<?xml version="1.0" encoding="utf-8"?>
<svg version="1.1" id="Layer_1"
xmlns="http://www.w3.org/2000/svg"
xmlns:xlink="http://www.w3.org/1999/xlink"
xmlns:author="http://www.sothink.com"
width="11px" height="6px"
xml:space="preserve">
<g id="7" transform="matrix(1, 0, 0, 1, 0, 0)">
<radialGradient
id="RadialGradID_51" gradientUnits="userSpaceOnUse" gradientTransform="matrix(0.00238037, -0.000442505, 0.000183105, 0.000793457, 1.65, 2.9)" spreadMethod ="pad" cx="0" cy="0" r="819.2" fx="0" fy="0" >
<stop  offset="0"  style="stop-color:#D9521C;stop-opacity:0.552941" />
<stop  offset="1"  style="stop-color:#FFEFEA;stop-opacity:0" />
</radialGradient>
<path style="fill:url(#RadialGradID_51) " d="M0.85,2.5L1.45 2.35L2.1 2.5L2.35 2.9L2.1 3.3L1.45 3.45L1.25 3.45L0.8 3.3L0.55 2.9L0.8 2.5L0.85 2.5" />
<radialGradient
id="RadialGradID_52" gradientUnits="userSpaceOnUse" gradientTransform="matrix(0.0012207, 0.000320435, -0.000213623, 0.000793457, 8.75, 2.8)" spreadMethod ="pad" cx="0" cy="0" r="819.2" fx="0" fy="0" >
<stop  offset="0"  style="stop-color:#D9521C;stop-opacity:0.552941" />
<stop  offset="1"  style="stop-color:#FFEFEA;stop-opacity:0" />
</radialGradient>
<path style="fill:url(#RadialGradID_52) " d="M9.1,3.35L8.6 3.2L8.4 2.85L8.6 2.45Q8.8 2.3 9.1 2.3L9.4 2.35L9.55 2.45L9.75 2.85L9.55 3.2L9.1 3.35" />
<radialGradient
id="RadialGradID_53" gradientUnits="userSpaceOnUse" gradientTransform="matrix(0.00131226, 0.00170898, -0.00358582, 0.00276184, 6.2, 1.5)" spreadMethod ="pad" cx="0" cy="0" r="819.2" fx="0" fy="0" >
<stop  offset="0"  style="stop-color:#D9521C;stop-opacity:0.552941" />
<stop  offset="1"  style="stop-color:#FFEFEA;stop-opacity:0" />
</radialGradient>
<path style="fill:url(#RadialGradID_53) " d="M4.55,0.15L5.55 0.1Q5.65 1.35 5.9 1.9L5.3 2.05L4.5 1.95L4.6 0.8L4.55 0.15" />
<radialGradient
id="RadialGradID_54" gradientUnits="userSpaceOnUse" gradientTransform="matrix(0.00190735, 0, 0, 0.00192261, 9.6, 2.55)" spreadMethod ="pad" cx="0" cy="0" r="819.2" fx="0" fy="0" >
<stop  offset="0.298039"  style="stop-color:#FFFFFF;stop-opacity:0.160784" />
<stop  offset="1"  style="stop-color:#FFFFFF;stop-opacity:0" />
</radialGradient>
<path style="fill:url(#RadialGradID_54) " d="M9.35,2.2L8.9 1.4Q9.45 1.35 9.85 1.85Q10.3 2.4 10.35 3L10.1 3.75L9.55 4.15L9.45 4.15L9.55 3.2L9.75 2.85L9.55 2.45L9.4 2.35L9.35 2.2" />
<radialGradient
id="RadialGradID_55" gradientUnits="userSpaceOnUse" gradientTransform="matrix(0.0020752, 0, 0, 0.00209045, 0.55, 2.65)" spreadMethod ="pad" cx="0" cy="0" r="819.2" fx="0" fy="0" >
<stop  offset="0.298039"  style="stop-color:#FFFFFF;stop-opacity:0.133333" />
<stop  offset="1"  style="stop-color:#FFFFFF;stop-opacity:0" />
</radialGradient>
<path style="fill:url(#RadialGradID_55) " d="M0.8,2.5L0.55 2.9L0.8 3.3L1.25 3.45L1.45 3.8L1.3 4.1L1.2 4.25Q0.8 4.25 0.4 3.45Q0 2.6 0 2L0.05 1.45L0.25 1.4Q0.55 1.35 0.8 2.2L0.85 2.5L0.8 2.5" />
<radialGradient
id="RadialGradID_56" gradientUnits="userSpaceOnUse" gradientTransform="matrix(0.00709534, -0.000915527, 0.000274658, 0.00212097, 4.55, 4.6)" spreadMethod ="pad" cx="0" cy="0" r="819.2" fx="0" fy="0" >
<stop  offset="0"  style="stop-color:#D15E3A;stop-opacity:0.662745" />
<stop  offset="1"  style="stop-color:#FFEFEA;stop-opacity:0" />
</radialGradient>
<path style="fill:url(#RadialGradID_56) " d="M8.05,4.55Q8.05 5 7.2 5.3L5 5.65L2.8 5.3Q1.85 5 1.85 4.55Q1.85 4.05 2.8 3.75L5 3.4L7.2 3.75Q8.05 4.05 8.05 4.55" />
<path style="fill:#865247;fill-opacity:0.380392" d="M9.15,2.95L9.3 2.8L8.95 2.6L8.9 2.6L8.55 2.6L8.8 2.5L8.9 2.5L9.1 2.25L9.5 2.65Q9.75 3.25 9.45 3.2L9 3L9.15 2.95" />
<radialGradient
id="RadialGradID_57" gradientUnits="userSpaceOnUse" gradientTransform="matrix(0.00613403, 0, 0, 0.00334167, 5.1, 3.45)" spreadMethod ="pad" cx="0" cy="0" r="819.2" fx="0" fy="0" >
<stop  offset="0.133333"  style="stop-color:#D98367;stop-opacity:0.913725" />
<stop  offset="0.909804"  style="stop-color:#FF9696;stop-opacity:0.380392" />
</radialGradient>
<path style="fill:url(#RadialGradID_57) " d="M8.55,2.6L8.1 2.65L7.3 2.75L6.9 2.75L6.5 2.7L5.65 2.75L4.95 2.8L4.7 2.8L3.9 2.7L3 2.7L2.05 2.65L1.85 2.55L2.1 2.55L3.15 2.15Q3.75 1.75 4.1 1.8L4.65 1.9L5.4 1.95L5.9 1.85L6.35 1.85Q6.5 1.85 7.25 2.2L8.8 2.5L8.55 2.6" />
<linearGradient
id="LinearGradID_58" gradientUnits="userSpaceOnUse" gradientTransform="matrix(0.000579834, 0, 0, 0.00111389, 5.4, 1.65)" spreadMethod ="pad" x1="-819.2" y1="0" x2="819.2" y2="0" >
<stop  offset="0.301961" style="stop-color:#FFFFFF;stop-opacity:0.223529" />
<stop  offset="1" style="stop-color:#FFFFFF;stop-opacity:0" />
</linearGradient>
<path style="fill:url(#LinearGradID_58) " d="M8.8,2.5L7.25 2.2Q6.5 1.85 6.35 1.85L5.9 1.85L5.4 1.95L4.65 1.9L4.1 1.8Q3.75 1.75 3.15 2.15L2.1 2.55L1.85 2.55L1.55 2.5L3.05 2L4.05 1.35L4.05 1.3L4.2 1.35L5.1 1.5Q5.5 1.4 5.75 0.75L5.85 0.75L6.3 1.1L6.7 1.75L7.8 2.2L8.9 2.5L8.8 2.5" />
<radialGradient
id="RadialGradID_59" gradientUnits="userSpaceOnUse" gradientTransform="matrix(0.00569153, 0, 0, 0.00410461, 4.95, 2.85)" spreadMethod ="pad" cx="0" cy="0" r="819.2" fx="0" fy="0" >
<stop  offset="0.109804"  style="stop-color:#913C3C;stop-opacity:1" />
<stop  offset="0.909804"  style="stop-color:#63322E;stop-opacity:0.8" />
</radialGradient>
<path style="fill:url(#RadialGradID_59) " d="M9,3L8.75 2.85L8.6 2.8L8.45 2.8L7.8 2.9L7.1 2.85L6.55 2.85L6.05 2.9L5.5 3L5 3L4.6 3L4.55 2.95L2.85 2.85L2.3 2.9L1.85 3L1.7 3.05L1.15 3Q0.9 2.85 1.1 2.55L1.35 2.4L1.45 2.5L1.4 2.55L1.45 2.55L1.55 2.5L1.85 2.55L2.05 2.65L3 2.7L3.9 2.7L4.7 2.8L4.95 2.8L5.65 2.75L6.5 2.7L6.9 2.75L7.3 2.75L8.1 2.65L8.55 2.6L8.9 2.6L8.95 2.6L9.3 2.8L9.15 2.95L9 3" />
<radialGradient
id="RadialGradID_60" gradientUnits="userSpaceOnUse" gradientTransform="matrix(0.00424194, 0, 0, 0.00248718, 5.15, 3)" spreadMethod ="pad" cx="0" cy="0" r="819.2" fx="0" fy="0" >
<stop  offset="0.133333"  style="stop-color:#ED7D71;stop-opacity:0.913725" />
<stop  offset="0.909804"  style="stop-color:#FF9696;stop-opacity:0.380392" />
</radialGradient>
<path style="fill:url(#RadialGradID_60) " d="M8.6,2.8L7.3 4L6.65 4.4L6 4.55L4.75 4.65Q3.9 4.6 3.25 4.2L1.7 3.05L1.85 3L2.3 2.9L2.85 2.85L4.55 2.95L4.6 3L5 3L5.5 3L6.05 2.9L6.55 2.85L7.1 2.85L7.8 2.9L8.45 2.8L8.6 2.8" />
<linearGradient
id="LinearGradID_61" gradientUnits="userSpaceOnUse" gradientTransform="matrix(0.0027771, -0.000106812, 1.52588e-005, 0.000457764, 5.1, 2.4)" spreadMethod ="pad" x1="-819.2" y1="0" x2="819.2" y2="0" >
<stop  offset="0.313725" style="stop-color:#FFFFFF;stop-opacity:0.313725" />
<stop  offset="1" style="stop-color:#FFFFFF;stop-opacity:0" />
</linearGradient>
<path style="fill:url(#LinearGradID_61) " d="M5.3,2.35L5.35 2L6.1 1.95L6.65 2.2L7.55 2.55L7.3 2.6L6.45 2.55L5.7 2.6L5.15 2.7L5.3 2.35" />
<linearGradient
id="LinearGradID_62" gradientUnits="userSpaceOnUse" gradientTransform="matrix(-0.00398254, 0.000167847, -3.05176e-005, -0.000701904, 5.85, 4.05)" spreadMethod ="pad" x1="-819.2" y1="0" x2="819.2" y2="0" >
<stop  offset="0.0470588" style="stop-color:#FFFFFF;stop-opacity:0.113725" />
<stop  offset="0.462745" style="stop-color:#FFFFFF;stop-opacity:0.490196" />
<stop  offset="1" style="stop-color:#FFFFFF;stop-opacity:0" />
</linearGradient>
<path style="fill:url(#LinearGradID_62) " d="M4.15,3L4.95 3.1L5.9 3L7.2 2.9L7.6 2.95L6.25 3.7L4.9 3.95Q4.15 3.95 2.75 3.05L3.25 2.95L4.15 3" />
<linearGradient
id="LinearGradID_63" gradientUnits="userSpaceOnUse" gradientTransform="matrix(0.000228882, -0.00117493, 0.000167847, 3.05176e-005, 5.15, 2.35)" spreadMethod ="pad" x1="-819.2" y1="0" x2="819.2" y2="0" >
<stop  offset="0.0470588" style="stop-color:#FFFFFF;stop-opacity:0.113725" />
<stop  offset="0.462745" style="stop-color:#FFFFFF;stop-opacity:0.490196" />
<stop  offset="1" style="stop-color:#FFFFFF;stop-opacity:0" />
</linearGradient>
<path style="fill:url(#LinearGradID_63) " d="M5.15,2.7L5.05 2.75L5.1 2L5.35 2L5.3 2.35L5.15 2.7" />
<linearGradient
id="LinearGradID_64" gradientUnits="userSpaceOnUse" gradientTransform="matrix(0.00209045, -0.00062561, 6.10352e-005, 0.000198364, 6.4, 3.35)" spreadMethod ="pad" x1="-819.2" y1="0" x2="819.2" y2="0" >
<stop  offset="0.0470588" style="stop-color:#FFFFFF;stop-opacity:0.113725" />
<stop  offset="0.462745" style="stop-color:#FFFFFF;stop-opacity:0.490196" />
<stop  offset="1" style="stop-color:#FFFFFF;stop-opacity:0" />
</linearGradient>
<path style="fill:url(#LinearGradID_64) " d="M5.35,3.65L4.9 3.6L5.55 3.45L7.05 3.05L6.45 3.5L5.35 3.65" />
<radialGradient
id="RadialGradID_65" gradientUnits="userSpaceOnUse" gradientTransform="matrix(0.00360107, 0, 0, 0.00361633, 1.85, 2.55)" spreadMethod ="pad" cx="0" cy="0" r="819.2" fx="0" fy="0" >
<stop  offset="0.133333"  style="stop-color:#ED7D71;stop-opacity:0.913725" />
<stop  offset="0.909804"  style="stop-color:#FF9696;stop-opacity:0.380392" />
</radialGradient>
<path style="fill:url(#RadialGradID_65) " d="M4.2,4.35L2.85 3.9L1.8 3Q2.25 2.85 2.9 3.45L4.2 4.35" />
</g>
</svg>
