<?xml version="1.0" encoding="utf-8"?>
<svg version="1.1" id="Layer_1"
xmlns="http://www.w3.org/2000/svg"
xmlns:xlink="http://www.w3.org/1999/xlink"
xmlns:author="http://www.sothink.com"
width="9px" height="6px"
xml:space="preserve">
<g id="20" transform="matrix(1, 0, 0, 1, 4.15, 2.6)">
<radialGradient
id="RadialGradID_193" gradientUnits="userSpaceOnUse" gradientTransform="matrix(0.00627136, 0, 0, 0.00456238, 0.1, -0.05)" spreadMethod ="pad" cx="0" cy="0" r="819.2" fx="210518" fy="0" >
<stop  offset="0.776471"  style="stop-color:#9E4C39;stop-opacity:1" />
<stop  offset="1"  style="stop-color:#C16A46;stop-opacity:0.0235294" />
</radialGradient>
<path style="fill:url(#RadialGradID_193) " d="M2.9,-0.35L2.35 -0.15L2.3 -0.15L1.3 -0.2L0.5 -0.05L-0.05 0L-0.55 -0.1L-1.1 -0.2L-1.55 -0.2L-3 -0.2L-3.6 -0.6L-3.35 -0.6L-3.25 -0.55L-3.1 -0.5L-2.75 -0.45L-2.15 -0.45L-1.65 -0.45L-1.05 -0.45L-0.5 -0.3L-0.3 -0.2L-0.05 -0.15L0.65 -0.3L1.35 -0.45L2.1 -0.5L2.9 -0.6Q3.15 -0.65 3.4 -0.8L3.45 -0.9L3.5 -0.95L3.55 -1.05L3.6 -1.05L3.6 -0.95L3.6 -0.85L3.25 -0.55L2.9 -0.35" />
<radialGradient
id="RadialGradID_194" gradientUnits="userSpaceOnUse" gradientTransform="matrix(0.00588989, 0, 0, 0.00195313, -0.05, -1.7)" spreadMethod ="pad" cx="0" cy="0" r="819.2" fx="0" fy="0" >
<stop  offset="0"  style="stop-color:#FFC8BA;stop-opacity:0" />
<stop  offset="0.705882"  style="stop-color:#ED9778;stop-opacity:1" />
</radialGradient>
<path style="fill:url(#RadialGradID_194) " d="M2.9,-0.6L2.1 -0.5L1.35 -0.45L0.65 -0.3L-0.05 -0.15L-0.3 -0.2L-0.5 -0.3L-1.05 -0.45L-1.65 -0.45L-2.15 -0.45L-2.75 -0.45L-3.1 -0.5L-3.25 -0.55L-2.9 -0.7L-1.35 -1.05Q-0.6 -1.2 -0.3 -0.8L-0.1 -0.7L0.2 -0.9L0.75 -1.1L3.15 -0.75L3.4 -0.8Q3.15 -0.65 2.9 -0.6" />
<radialGradient
id="RadialGradID_195" gradientUnits="userSpaceOnUse" gradientTransform="matrix(0.00535583, 0, 0, 0.00236511, -0.25, -0.3)" spreadMethod ="pad" cx="0" cy="0" r="819.2" fx="210531" fy="0" >
<stop  offset="0.478431"  style="stop-color:#ED9478;stop-opacity:1" />
<stop  offset="1"  style="stop-color:#FFCFBB;stop-opacity:0" />
</radialGradient>
<path style="fill:url(#RadialGradID_195) " d="M3.25,-0.55L1.9 0.9L0.9 1.2L-1.3 1.1Q-2.45 0.8 -3 -0.2L-1.55 -0.2L-1.1 -0.2L-0.55 -0.1L-0.05 0L0.5 -0.05L1.3 -0.2L2.3 -0.15L2.35 -0.15L2.9 -0.35L3.25 -0.55" />
<radialGradient
id="RadialGradID_196" gradientUnits="userSpaceOnUse" gradientTransform="matrix(0.00349426, 0, 0, 0.000823975, 0.7, 0.15)" spreadMethod ="pad" cx="0" cy="0" r="819.2" fx="0" fy="0" >
<stop  offset="0"  style="stop-color:#FFFFFF;stop-opacity:0.701961" />
<stop  offset="1"  style="stop-color:#FFFFFF;stop-opacity:0" />
</radialGradient>
<path style="fill:url(#RadialGradID_196) " d="M-1.5,0.2L-0.55 0.15L0.45 0.1L1.4 0.05Q1.85 0.1 1.75 0.25L1.1 0.6L-0.3 0.8L-1.6 0.55Q-2 0.35 -1.5 0.2" />
<radialGradient
id="RadialGradID_197" gradientUnits="userSpaceOnUse" gradientTransform="matrix(0.00112915, 0, 0, 0.00112915, -3.5, -0.65)" spreadMethod ="pad" cx="0" cy="0" r="819.2" fx="0" fy="0" >
<stop  offset="0.164706"  style="stop-color:#D9521C;stop-opacity:0.552941" />
<stop  offset="1"  style="stop-color:#FFEFEA;stop-opacity:0" />
</radialGradient>
<path style="fill:url(#RadialGradID_197) " d="M-3.05,-1.1L-2.95 -0.65L-3.25 -0.15L-3.7 0.1L-4.05 -0.15L-4.15 -0.7L-3.9 -1.1L-3.45 -1.35L-3.05 -1.1" />
<radialGradient
id="RadialGradID_198" gradientUnits="userSpaceOnUse" gradientTransform="matrix(0.000778198, -0.000488281, -0.000717163, -0.000869751, 3.55, -0.85)" spreadMethod ="pad" cx="0" cy="0" r="819.2" fx="0" fy="0" >
<stop  offset="0.164706"  style="stop-color:#D9521C;stop-opacity:0.552941" />
<stop  offset="1"  style="stop-color:#FFEFEA;stop-opacity:0" />
</radialGradient>
<path style="fill:url(#RadialGradID_198) " d="M3.95,-0.25L3.5 -0.25L3 -0.55Q2.8 -0.75 2.85 -1L3.05 -1.4L3.55 -1.4L4 -1.15L4.15 -0.65L3.95 -0.25" />
<radialGradient
id="RadialGradID_199" gradientUnits="userSpaceOnUse" gradientTransform="matrix(0.00326538, 0, 0, 0.00202942, -0.15, -1.7)" spreadMethod ="pad" cx="0" cy="0" r="819.2" fx="0" fy="0" >
<stop  offset="0"  style="stop-color:#FFFFFF;stop-opacity:0.470588" />
<stop  offset="1"  style="stop-color:#FFFFFF;stop-opacity:0" />
</radialGradient>
<path style="fill:url(#RadialGradID_199) " d="M1.6,-1L0.7 -1.2L0.4 -1.1L-0.1 -0.75L-0.5 -1.05L-0.9 -1.15L-2.55 -0.9L-0.65 -1.35L-0.55 -1.3L-0.55 -1.35L-0.15 -1.1L0.05 -1.15L0.5 -1.45L1.45 -1.15L1.65 -1L1.6 -1" />
<radialGradient
id="RadialGradID_200" gradientUnits="userSpaceOnUse" gradientTransform="matrix(0.004776, 0, 0, 0.00288391, 0.3, 1.05)" spreadMethod ="pad" cx="0" cy="0" r="819.2" fx="0" fy="0" >
<stop  offset="0.0666667"  style="stop-color:#E37653;stop-opacity:0.662745" />
<stop  offset="1"  style="stop-color:#FFEFEA;stop-opacity:0" />
</radialGradient>
<path style="fill:url(#RadialGradID_200) " d="M1.25,2.5L1.15 2.5L0.65 2.6Q-0.4 2.6 -1.05 2.1L-2.95 0.7L-3.1 0.45L-3.15 0.45Q-2.15 1.2 -1.5 1.3L-0.1 1.4L1.55 1.25Q2.35 1.05 3.3 0.1L2.3 1.6L1.7 2.25L1.25 2.5" />
<radialGradient
id="RadialGradID_201" gradientUnits="userSpaceOnUse" gradientTransform="matrix(0.00486755, 0, 0, 0.00244141, -2.05, -0.4)" spreadMethod ="pad" cx="0" cy="0" r="819.2" fx="210531" fy="0" >
<stop  offset="0.176471"  style="stop-color:#DB7353;stop-opacity:1" />
<stop  offset="1"  style="stop-color:#FFCFBB;stop-opacity:0" />
</radialGradient>
<path style="fill:url(#RadialGradID_201) " d="M-0.75,0L-2.35 0.15L-2.65 0.15L-2.8 0.1L-2.9 0L-2.95 -0.2L-1.55 -0.2L-1.1 -0.2L-0.55 -0.1L-0.35 0L-0.75 0" />
<radialGradient
id="RadialGradID_202" gradientUnits="userSpaceOnUse" gradientTransform="matrix(0.00141907, 0, 0, 0.0030365, -0.05, -1.65)" spreadMethod ="pad" cx="0" cy="0" r="819.2" fx="0" fy="0" >
<stop  offset="0"  style="stop-color:#E37653;stop-opacity:0.592157" />
<stop  offset="1"  style="stop-color:#FFEFEA;stop-opacity:0" />
</radialGradient>
<path style="fill:url(#RadialGradID_202) " d="M-0.4,-2.55L-0.1 -2.55L0.2 -2.6L0.35 -1.45L0.05 -1.2Q-0.05 -1.1 -0.15 -1.1L-0.45 -1.3L-0.65 -1.6L-0.5 -2.6L-0.4 -2.55" />
</g>
</svg>
