<?xml version="1.0" encoding="utf-8"?>
<svg version="1.1" id="Layer_1"
xmlns="http://www.w3.org/2000/svg"
xmlns:xlink="http://www.w3.org/1999/xlink"
xmlns:author="http://www.sothink.com"
width="7px" height="7px"
xml:space="preserve">
<g id="21" transform="matrix(1, 0, 0, 1, 3.3, 3.05)">
<radialGradient
id="RadialGradID_203" gradientUnits="userSpaceOnUse" gradientTransform="matrix(0.00387573, -0.000152588, 6.10352e-005, 0.00128174, -0.25, 1.9)" spreadMethod ="pad" cx="0" cy="0" r="819.2" fx="0" fy="0" >
<stop  offset="0.203922"  style="stop-color:#C93900;stop-opacity:0.423529" />
<stop  offset="1"  style="stop-color:#FFEFEA;stop-opacity:0" />
</radialGradient>
<path style="fill:url(#RadialGradID_203) " d="M-2.1,2.8Q-3 2.35 -3 1.9Q-3 1.4 -2.15 1.15L-0.1 0.8L2.05 1.15Q2.9 1.5 2.85 1.9Q2.85 2.45 2.05 2.75L-0.1 3.05L-2.1 2.8" />
<radialGradient
id="RadialGradID_204" gradientUnits="userSpaceOnUse" gradientTransform="matrix(-0.000778198, -0.000198364, 4.57764e-005, 0.000900269, -2.85, 0.15)" spreadMethod ="pad" cx="0" cy="0" r="819.2" fx="0" fy="0" >
<stop  offset="0"  style="stop-color:#D9521C;stop-opacity:0.552941" />
<stop  offset="1"  style="stop-color:#FFEFEA;stop-opacity:0" />
</radialGradient>
<path style="fill:url(#RadialGradID_204) " d="M-3.1,0.5L-3.3 0.05L-3.2 -0.25L-2.85 -0.35L-2.5 -0.1L-2.35 0.3L-2.45 0.7L-2.8 0.75L-3.1 0.5" />
<radialGradient
id="RadialGradID_205" gradientUnits="userSpaceOnUse" gradientTransform="matrix(0.000747681, -0.000167847, -0.000137329, -0.000839233, 2.85, 0.2)" spreadMethod ="pad" cx="0" cy="0" r="819.2" fx="0" fy="0" >
<stop  offset="0"  style="stop-color:#D9521C;stop-opacity:0.552941" />
<stop  offset="1"  style="stop-color:#FFEFEA;stop-opacity:0" />
</radialGradient>
<path style="fill:url(#RadialGradID_205) " d="M3.1,-0.2L3.3 0.1L3.2 0.55L2.95 0.7L2.55 0.65L2.4 0.35L2.4 -0.05L2.75 -0.3L3.1 -0.2" />
<path style="fill:#965136;fill-opacity:1" d="M2.3,0.55L1.6 0.5L0.75 0.65L-0.05 0.75L-0.9 0.65L-1.75 0.5L-2.4 0.55L-2.6 0.5Q-3.05 0.45 -3 0.15L-2.9 0.15L-2.8 0.15L-2.75 0.15L-2.2 0.25L-1.2 0.2L-0.85 0.3L-0.45 0.45L-0.05 0.55L0.3 0.45L0.75 0.3L1.1 0.2L2.1 0.25L2.65 0.15L2.75 0.15L2.85 0.15L2.45 0.5L2.3 0.55" />
<path style="fill:#C16C57;fill-opacity:1" d="M1.8,0.65L-0.1 0.9L-2.5 0.65L-2.6 0.5L-2.4 0.55L-1.75 0.5L-0.9 0.65L-0.05 0.75L0.75 0.65L1.6 0.5L2.3 0.55L2.45 0.5L2.4 0.65L1.8 0.65" />
<path style="fill:#D18E72;fill-opacity:1" d="M-0.05,1.85L1.25 1.65L2.05 1.15L1.2 1.75L-0.1 2L-1.4 1.75L-2.5 0.75L-1.35 1.65L-0.05 1.85" />
<radialGradient
id="RadialGradID_206" gradientUnits="userSpaceOnUse" gradientTransform="matrix(0.00482178, 0, 0, 0.00209045, -0.15, 0.55)" spreadMethod ="pad" cx="0" cy="0" r="819.2" fx="6" fy="0" >
<stop  offset="0.462745"  style="stop-color:#ED9B79;stop-opacity:1" />
<stop  offset="1"  style="stop-color:#FFCFBB;stop-opacity:0" />
</radialGradient>
<path style="fill:url(#RadialGradID_206) " d="M2.4,0.65L2.35 0.7L1.25 1.55L-0.05 1.75L-1.35 1.55L-2.5 0.65L-0.1 0.9L1.8 0.65L2.4 0.65" />
<radialGradient
id="RadialGradID_207" gradientUnits="userSpaceOnUse" gradientTransform="matrix(0.0057373, 0.000579834, -0.000228882, 0.0022583, -0.75, 0.3)" spreadMethod ="pad" cx="0" cy="0" r="819.2" fx="6" fy="0" >
<stop  offset="0"  style="stop-color:#A54116;stop-opacity:1" />
<stop  offset="0.329412"  style="stop-color:#ED936F;stop-opacity:1" />
<stop  offset="1"  style="stop-color:#FFCFBB;stop-opacity:0" />
</radialGradient>
<path style="fill:url(#RadialGradID_207) " d="M2.1,0.25L1.1 0.2L0.75 0.3L0.3 0.45L-0.05 0.55L-0.45 0.45L-0.85 0.3L-1.2 0.2L-2.2 0.25L-2.75 0.15L-2.1 -0.05L-1.3 -0.45L-0.9 -0.5L-0.35 -0.35L-0.05 -0.25L0.2 -0.35L0.8 -0.5L1.2 -0.45L2 -0.05L2.65 0.15L2.1 0.25" />
<radialGradient
id="RadialGradID_208" gradientUnits="userSpaceOnUse" gradientTransform="matrix(0.00236511, 0, 0, 0.00115967, 0.8, 0.9)" spreadMethod ="pad" cx="0" cy="0" r="819.2" fx="0" fy="0" >
<stop  offset="0.266667"  style="stop-color:#FFFFFF;stop-opacity:0.662745" />
<stop  offset="1"  style="stop-color:#FFFFFF;stop-opacity:0" />
</radialGradient>
<path style="fill:url(#RadialGradID_208) " d="M-0.15,1.2L0.5 0.9L1.65 0.7L0.8 1.25L-0.15 1.45L-0.65 1.4L-0.7 1.2L-0.7 1.15L-0.15 1.2" />
<radialGradient
id="RadialGradID_209" gradientUnits="userSpaceOnUse" gradientTransform="matrix(0.00202942, 0, 0, 0.00202942, 1.05, -0.75)" spreadMethod ="pad" cx="0" cy="0" r="819.2" fx="210508" fy="0" >
<stop  offset="0"  style="stop-color:#FFFFFF;stop-opacity:0.572549" />
<stop  offset="1"  style="stop-color:#FFFFFF;stop-opacity:0" />
</radialGradient>
<path style="fill:url(#RadialGradID_209) " d="M0,-0.15L0.7 -0.4L1.2 -0.2L1.5 0.1L1.4 0.1L1 0L0.5 0.1L0.15 0.2Q0 0.2 0 -0.15" />
<radialGradient
id="RadialGradID_210" gradientUnits="userSpaceOnUse" gradientTransform="matrix(0.00479126, 0, 0, 0.00479126, 0.45, -2.35)" spreadMethod ="pad" cx="0" cy="0" r="819.2" fx="0" fy="0" >
<stop  offset="0.227451"  style="stop-color:#ED9E76;stop-opacity:0.572549" />
<stop  offset="1"  style="stop-color:#F0AA86;stop-opacity:0" />
</radialGradient>
<path style="fill:url(#RadialGradID_210) " d="M-0.6,-3L0.05 -2.85L0.15 -2.85L0.4 -2.9L0.65 -0.8L0.4 -0.65L0.25 -0.6Q0 -1.75 -0.35 -1.9Q-0.7 -2.05 -0.85 -0.45L-1.15 -0.5L-1.15 -0.6L-1.05 -1.3L-0.95 -1.85L-0.7 -3.05L-0.6 -3" />
<radialGradient
id="RadialGradID_211" gradientUnits="userSpaceOnUse" gradientTransform="matrix(0.00260925, 0, 0, 0.00260925, 0.3, -1.2)" spreadMethod ="pad" cx="0" cy="0" r="819.2" fx="0" fy="0" >
<stop  offset="0"  style="stop-color:#FFFFFF;stop-opacity:0.580392" />
<stop  offset="1"  style="stop-color:#FFFFFF;stop-opacity:0" />
</radialGradient>
<path style="fill:url(#RadialGradID_211) " d="M0.75,-2.45L0.85 -1.95L0.95 -1.55L0.95 -1.35Q1.05 -0.7 2.6 -0.25L2.2 -0.1L1.8 -0.3L0.9 -0.6L0.55 -0.5L0.2 -0.35L-0.7 -0.6L-0.65 -0.8L-0.6 -0.95L-0.1 -0.55L0.2 -0.55L0.5 -0.75L0.6 -1L0.55 -1.45L0.55 -1.7L0.45 -2.2L0.5 -2.4L0.75 -2.45" />
</g>
</svg>
