<?xml version="1.0" encoding="utf-8"?>
<svg version="1.1" id="Layer_1"
xmlns="http://www.w3.org/2000/svg"
xmlns:xlink="http://www.w3.org/1999/xlink"
xmlns:author="http://www.sothink.com"
width="8px" height="5px"
xml:space="preserve">
<g id="17" transform="matrix(1, 0, 0, 1, 4, 2.3)">
<radialGradient
id="RadialGradID_163" gradientUnits="userSpaceOnUse" gradientTransform="matrix(0.00378418, 0, 0, 0.00215149, -0.15, 1.2)" spreadMethod ="pad" cx="0" cy="0" r="819.2" fx="0" fy="0" >
<stop  offset="0.145098"  style="stop-color:#E37653;stop-opacity:0.662745" />
<stop  offset="1"  style="stop-color:#FFEFEA;stop-opacity:0" />
</radialGradient>
<path style="fill:url(#RadialGradID_163) " d="M1.65,1.95Q1.8 2.5 1.15 2.25L-0.25 1.95L-2.05 2.1L-2.05 2Q-1.8 1.6 -1.95 1.1L-0.7 1.3L0.3 1.35L1.15 1.3L1.95 1.2L1.65 1.35Q1.5 1.45 1.65 1.95" />
<radialGradient
id="RadialGradID_164" gradientUnits="userSpaceOnUse" gradientTransform="matrix(0.00610352, 0, 0, 0.00610352, -0.8, 0.55)" spreadMethod ="pad" cx="0" cy="0" r="819.2" fx="210518" fy="0" >
<stop  offset="0.776471"  style="stop-color:#C16A46;stop-opacity:1" />
<stop  offset="1"  style="stop-color:#C16A46;stop-opacity:0.0235294" />
</radialGradient>
<path style="fill:url(#RadialGradID_164) " d="M2.8,0.6L1.65 0.55L0.55 0.65L0.15 0.7L-0.4 0.65L-1.5 0.55L-2.65 0.6L-2.95 0.65L-3.85 0.5L-3.25 0.25L-2.9 0.3L-2.85 0.35L-2.35 0.45L-1.45 0.4L-1 0.35L-0.45 0.45L0.15 0.55L0.6 0.45L1.2 0.35L1.6 0.4L2.5 0.45L3 0.35L3.05 0.3L3.2 0.3L3.8 0.85L2.8 0.6" />
<radialGradient
id="RadialGradID_165" gradientUnits="userSpaceOnUse" gradientTransform="matrix(0.00495911, 0, 0, 0.00108337, 0.1, 0.45)" spreadMethod ="pad" cx="0" cy="0" r="819.2" fx="6" fy="0" >
<stop  offset="0.568627"  style="stop-color:#ED9B79;stop-opacity:1" />
<stop  offset="1"  style="stop-color:#FFCFBB;stop-opacity:0" />
</radialGradient>
<path style="fill:url(#RadialGradID_165) " d="M3.8,0.85L4 0.85L3.65 0.9L1 1.2L0.15 1.25L-0.85 1.2Q-2.2 1.1 -2.95 0.65L-2.65 0.6L-1.5 0.55L-0.4 0.65L0.15 0.7L0.55 0.65L1.65 0.55L2.8 0.6L3.8 0.85" />
<radialGradient
id="RadialGradID_166" gradientUnits="userSpaceOnUse" gradientTransform="matrix(0.00549316, 0, 0, 0.00242615, -0.9, 0.75)" spreadMethod ="pad" cx="0" cy="0" r="819.2" fx="6" fy="0" >
<stop  offset="0"  style="stop-color:#663622;stop-opacity:1" />
<stop  offset="0.568627"  style="stop-color:#C16A46;stop-opacity:1" />
<stop  offset="1"  style="stop-color:#FFCFBB;stop-opacity:0" />
</radialGradient>
<path style="fill:url(#RadialGradID_166) " d="M2.5,0.45L1.6 0.4L1.2 0.35L0.6 0.45L0.15 0.55L-0.45 0.45L-1 0.35L-1.45 0.4L-2.35 0.45L-2.85 0.35L-2.85 0.3L-1.7 0L-0.95 -0.25L-0.65 -0.15L-0.3 0.05L0 0.2L0.15 0.2L0.2 0.2L0.45 0.05L0.8 -0.15L1.1 -0.25L1.85 0L3 0.3L3 0.35L2.5 0.45" />
<radialGradient
id="RadialGradID_167" gradientUnits="userSpaceOnUse" gradientTransform="matrix(0.00227356, -0.000259399, 7.62939e-005, 0.000732422, 1.05, 0.95)" spreadMethod ="pad" cx="0" cy="0" r="819.2" fx="0" fy="0" >
<stop  offset="0.192157"  style="stop-color:#FFE9E0;stop-opacity:0.933333" />
<stop  offset="0.67451"  style="stop-color:#FFD8BD;stop-opacity:0.231373" />
<stop  offset="1"  style="stop-color:#FFAC7D;stop-opacity:0" />
</radialGradient>
<path style="fill:url(#RadialGradID_167) " d="M1.95,1.1L1.05 1.2L0.1 1.25L-0.25 1.15L0.1 0.95L1 0.8L1.9 0.8L2.3 0.9L1.95 1.1" />
<radialGradient
id="RadialGradID_168" gradientUnits="userSpaceOnUse" gradientTransform="matrix(0.00364685, 0, 0, 0.00210571, 0.75, -0.7)" spreadMethod ="pad" cx="0" cy="0" r="819.2" fx="0" fy="0" >
<stop  offset="0.192157"  style="stop-color:#FFFFFF;stop-opacity:0.431373" />
<stop  offset="1"  style="stop-color:#FFFFFF;stop-opacity:0" />
</radialGradient>
<path style="fill:url(#RadialGradID_168) " d="M2.4,0.1L1.75 -0.15L1.3 -0.3L0.95 -0.2L0.7 -0.05L0.55 -0.15L0.55 -0.25L0.75 -0.4L0.9 -0.65L0.8 -1.05L0.75 -1.1L0.55 -2.05L0.95 -1.5L1.1 -1.05L1.2 -0.85Q1.35 -0.5 2.35 -0.15L2.4 0.1M-0.4,-0.7L-0.35 -1.5L-0.15 -2L-0.05 -1.75L-0.05 -1.05L-0.25 -0.2L-0.4 -0.3L-0.4 -0.7" />
<radialGradient
id="RadialGradID_169" gradientUnits="userSpaceOnUse" gradientTransform="matrix(0.000732422, 0, 0, 0.00280762, 0.4, -1)" spreadMethod ="pad" cx="0" cy="0" r="819.2" fx="0" fy="0" >
<stop  offset="0"  style="stop-color:#E37653;stop-opacity:0.592157" />
<stop  offset="1"  style="stop-color:#FFEFEA;stop-opacity:0" />
</radialGradient>
<path style="fill:url(#RadialGradID_169) " d="M0.15,-2.2L0.45 -2.3L0.8 -0.55L0.5 -0.25L0.15 -0.15Q-0.05 -0.15 -0.15 -0.3L0.05 -2.25L0.15 -2.2" />
</g>
</svg>
