<?xml version="1.0" encoding="utf-8"?>
<svg version="1.1" id="Layer_1"
xmlns="http://www.w3.org/2000/svg"
xmlns:xlink="http://www.w3.org/1999/xlink"
xmlns:author="http://www.sothink.com"
width="9px" height="6px"
xml:space="preserve">
<g id="29" transform="matrix(1, 0, 0, 1, 4.15, 2.85)">
<radialGradient
id="RadialGradID_293" gradientUnits="userSpaceOnUse" gradientTransform="matrix(0.00613403, 0, 0, 0.00392151, 0, 0.65)" spreadMethod ="pad" cx="0" cy="0" r="819.2" fx="0" fy="0" >
<stop  offset="0"  style="stop-color:#E37653;stop-opacity:0.501961" />
<stop  offset="1"  style="stop-color:#FFEFEA;stop-opacity:0" />
</radialGradient>
<path style="fill:url(#RadialGradID_293) " d="M-2.15,0.95Q-2.65 0.65 -2.75 0.1Q-1.9 0.75 -1.2 0.9L-0.2 0.95L-0.1 0.95L-0.05 0.95L0.95 0.9Q1.65 0.75 2.45 0.1L2.45 0.2L2.35 0.55L2.25 0.7L2.2 0.75L1.9 1L1.9 1.05L1.95 1.25L2.05 1.3L2.25 1.3L2.9 1.2L3.2 1.5Q3.2 2.1 2.9 2.3L2.4 2.5L1.4 2.15L0.8 2L-0.15 1.9L-0.45 1.95L-1.3 2.2L-2.3 2.85L-2.85 2.2L-3.1 1.65L-2.9 1.2L-2.05 1.05L-2.15 0.95" />
<radialGradient
id="RadialGradID_294" gradientUnits="userSpaceOnUse" gradientTransform="matrix(0.00434875, 0, 0, 0.00434875, 0.45, -1.05)" spreadMethod ="pad" cx="0" cy="0" r="819.2" fx="0" fy="0" >
<stop  offset="0"  style="stop-color:#FFFFFF;stop-opacity:0.482353" />
<stop  offset="1"  style="stop-color:#FFFFFF;stop-opacity:0" />
</radialGradient>
<path style="fill:url(#RadialGradID_294) " d="M2.65,-0.9L2.1 -1.2L1.5 -1.6L0.95 -1.75L0.45 -1.6L0 -1.45L-0.65 -1.65L-1.1 -1.8L-1.8 -1.55L-2.25 -1.3L-2.35 -1.35L-2.35 -1.4L-2.35 -1.45L-2.3 -1.5L-2.25 -1.5L-1.4 -1.95L-0.8 -2.4L-0.55 -2.4L-0.55 -2.35L-0.55 -2.2L-0.6 -2.05L-0.3 -1.8L0.3 -1.75L0.7 -1.85L0.7 -2.45L1.05 -2.45L1.1 -2.1L1.45 -1.85L2.85 -0.95L2.65 -0.9" />
<radialGradient
id="RadialGradID_295" gradientUnits="userSpaceOnUse" gradientTransform="matrix(0.00138855, 0, 0, 0.00231934, 0.1, -2.05)" spreadMethod ="pad" cx="0" cy="0" r="819.2" fx="0" fy="0" >
<stop  offset="0"  style="stop-color:#E37653;stop-opacity:0.431373" />
<stop  offset="1"  style="stop-color:#FFEFEA;stop-opacity:0" />
</radialGradient>
<path style="fill:url(#RadialGradID_295) " d="M0.3,-1.55L0.1 -1.6L-0.2 -1.7L-0.4 -1.75L-0.45 -2.05L-0.35 -2.45L-0.3 -2.75Q-0.15 -2.65 -0.05 -2.65L0.2 -2.7L0.45 -2.85L0.5 -2.45L0.6 -1.75L0.3 -1.55" />
<radialGradient
id="RadialGradID_296" gradientUnits="userSpaceOnUse" gradientTransform="matrix(0.00389099, 0, 0, 0.00389099, 0, -0.75)" spreadMethod ="pad" cx="0" cy="0" r="819.2" fx="0" fy="0" >
<stop  offset="0.376471"  style="stop-color:#A6503B;stop-opacity:1" />
<stop  offset="1"  style="stop-color:#751717;stop-opacity:1" />
</radialGradient>
<path style="fill:url(#RadialGradID_296) " d="M3.25,-0.6L3.45 -0.45L2.95 -0.15L2.5 -0.15L1.9 -0.35L0.85 -0.4L0.2 -0.4L-0.9 -0.45L-1.45 -0.5L-2.1 -0.35L-2.75 -0.25L-2.95 -0.25L-3.15 -0.3L-3.45 -0.5L-3.35 -0.7L-3.1 -0.75L-3.05 -0.7L-2.9 -0.65L-2.85 -0.6L-2.6 -0.45L-1.95 -0.7L-1.2 -0.9L-0.95 -0.9L-0.9 -0.9L0 -0.75L0.9 -0.8L1.15 -0.85L1.9 -0.65L2.5 -0.4L2.75 -0.5L2.85 -0.55L3.25 -0.6" />
<radialGradient
id="RadialGradID_297" gradientUnits="userSpaceOnUse" gradientTransform="matrix(0.00508118, 0, 0, 0.0032196, -0.15, -0.75)" spreadMethod ="pad" cx="0" cy="0" r="819.2" fx="0" fy="0" >
<stop  offset="0.337255"  style="stop-color:#ED8C78;stop-opacity:1" />
<stop  offset="1"  style="stop-color:#FFC4BA;stop-opacity:0" />
</radialGradient>
<path style="fill:url(#RadialGradID_297) " d="M-2.95,-0.25L-2.75 -0.25L-2.1 -0.35L-1.45 -0.5L-0.9 -0.45L0.2 -0.4L0.85 -0.4L1.9 -0.35L2.5 -0.15Q1.6 0.6 0.9 0.7L-0.1 0.75L-0.15 0.8L-0.2 0.75L-1.25 0.7L-2.95 -0.25" />
<radialGradient
id="RadialGradID_298" gradientUnits="userSpaceOnUse" gradientTransform="matrix(0.00485229, 0, 0, 0.00180054, -0.05, -2.25)" spreadMethod ="pad" cx="0" cy="0" r="819.2" fx="6" fy="0" >
<stop  offset="0"  style="stop-color:#FFA18A;stop-opacity:0.360784" />
<stop  offset="0.882353"  style="stop-color:#EB816E;stop-opacity:1" />
</radialGradient>
<path style="fill:url(#RadialGradID_298) " d="M-2.1,-1.25L-1.35 -1.7L-1.2 -1.75L-0.5 -1.5L0.3 -1.55L1.1 -1.65L1.95 -1.1L2.6 -0.65Q2.8 -0.55 2.85 -0.55L2.75 -0.5L2.5 -0.4L1.9 -0.65L1.15 -0.85L0.9 -0.8L0 -0.75L-0.9 -0.9L-0.95 -0.9L-1.2 -0.9L-1.95 -0.7L-2.6 -0.45L-2.85 -0.6L-2.9 -0.65L-3.05 -0.7L-2.1 -1.25" />
<radialGradient
id="RadialGradID_299" gradientUnits="userSpaceOnUse" gradientTransform="matrix(0.00332642, 0, 0, 0.00196838, -0.7, -0.5)" spreadMethod ="pad" cx="0" cy="0" r="819.2" fx="0" fy="0" >
<stop  offset="0.101961"  style="stop-color:#FFFFFF;stop-opacity:0.670588" />
<stop  offset="1"  style="stop-color:#FFFFFF;stop-opacity:0" />
</radialGradient>
<path style="fill:url(#RadialGradID_299) " d="M-1.8,-0.05L-1.55 -0.3L-0.65 -0.25L0.8 -0.2L0.85 -0.2L1.8 -0.05L1.15 0.25L0.8 0.3L-0.3 0.3L-1.3 0.2L-1.55 0.15L-1.7 0.05L-1.8 -0.05" />
<radialGradient
id="RadialGradID_300" gradientUnits="userSpaceOnUse" gradientTransform="matrix(0.000869751, -0.000793457, -0.000793457, -0.00141907, -3.4, -0.55)" spreadMethod ="pad" cx="0" cy="0" r="819.2" fx="0" fy="0" >
<stop  offset="0"  style="stop-color:#D9521C;stop-opacity:0.713725" />
<stop  offset="1"  style="stop-color:#FFEFEA;stop-opacity:0" />
</radialGradient>
<path style="fill:url(#RadialGradID_300) " d="M-3.85,-1.5L-4.15 -0.85L-3.95 -0.1L-3.45 0.4L-2.9 0.3Q-2.7 0.1 -2.65 -0.3L-2.85 -1.1L-3.35 -1.55L-3.85 -1.5" />
<radialGradient
id="RadialGradID_301" gradientUnits="userSpaceOnUse" gradientTransform="matrix(-0.00088501, -0.000793457, 0.000793457, -0.00141907, 3.3, -0.55)" spreadMethod ="pad" cx="0" cy="0" r="819.2" fx="0" fy="0" >
<stop  offset="0"  style="stop-color:#D9521C;stop-opacity:0.552941" />
<stop  offset="1"  style="stop-color:#FFEFEA;stop-opacity:0" />
</radialGradient>
<path style="fill:url(#RadialGradID_301) " d="M3.25,-1.5L2.75 -1.05L2.55 -0.25L2.8 0.35L3.35 0.45L3.85 -0.1L4 -0.8L3.8 -1.45L3.25 -1.5" />
<radialGradient
id="RadialGradID_302" gradientUnits="userSpaceOnUse" gradientTransform="matrix(0.00485229, 0, 0, 0.00180054, 0, -2)" spreadMethod ="pad" cx="0" cy="0" r="819.2" fx="6" fy="0" >
<stop  offset="0"  style="stop-color:#FFA18A;stop-opacity:0.360784" />
<stop  offset="0.882353"  style="stop-color:#EB816E;stop-opacity:1" />
</radialGradient>
<path style="fill:url(#RadialGradID_302) " d="M1.1,-0.9L1.15 -0.85L0.9 -0.8L1.1 -0.9" />
<radialGradient
id="RadialGradID_303" gradientUnits="userSpaceOnUse" gradientTransform="matrix(0.00485229, 0, 0, 0.00180054, 0, -2)" spreadMethod ="pad" cx="0" cy="0" r="819.2" fx="0" fy="0" >
<stop  offset="0"  style="stop-color:#FF6F4C;stop-opacity:0.360784" />
<stop  offset="0.882353"  style="stop-color:#DB614C;stop-opacity:1" />
</radialGradient>
<path style="fill:url(#RadialGradID_303) " d="M1.15,-0.85L1.1 -0.9L1.15 -0.9L1.15 -0.85" />
<radialGradient
id="RadialGradID_304" gradientUnits="userSpaceOnUse" gradientTransform="matrix(0.00485229, 0, 0, 0.00180054, 0, -2)" spreadMethod ="pad" cx="0" cy="0" r="819.2" fx="0" fy="0" >
<stop  offset="0"  style="stop-color:#FF6F4C;stop-opacity:0.360784" />
<stop  offset="0.898039"  style="stop-color:#A3220C;stop-opacity:0.580392" />
</radialGradient>
<path style="fill:url(#RadialGradID_304) " d="M-2.9,-0.65L-1.2 -0.9L-1.95 -0.7L-2.6 -0.45L-2.85 -0.6L-2.9 -0.65M1.15,-0.85L1.15 -0.9L2.55 -0.7L2.85 -0.55L2.75 -0.5L2.5 -0.4L1.9 -0.65L1.15 -0.85" />
<radialGradient
id="RadialGradID_305" gradientUnits="userSpaceOnUse" gradientTransform="matrix(0.00413513, 0, 0, 0.0039978, -2.2, 1.1)" spreadMethod ="pad" cx="0" cy="0" r="819.2" fx="0" fy="0" >
<stop  offset="0"  style="stop-color:#E37653;stop-opacity:0.282353" />
<stop  offset="1"  style="stop-color:#FFEFEA;stop-opacity:0" />
</radialGradient>
<path style="fill:url(#RadialGradID_305) " d="M-0.3,1.9L-1.25 2.15L-2.5 2.55L-3.1 2.35L-4.05 1.35L-2.8 0.85L-1.95 0.55L-1.9 0.6L-1.2 0.75L-0.45 0.9L-0.3 0.9L-0.3 1.9" />
<radialGradient
id="RadialGradID_306" gradientUnits="userSpaceOnUse" gradientTransform="matrix(0.00468445, 0, 0, 0.0045166, 1.35, 1.15)" spreadMethod ="pad" cx="0" cy="0" r="819.2" fx="0" fy="0" >
<stop  offset="0"  style="stop-color:#E37653;stop-opacity:0.172549" />
<stop  offset="1"  style="stop-color:#FFEFEA;stop-opacity:0" />
</radialGradient>
<path style="fill:url(#RadialGradID_306) " d="M-0.3,0.9L-0.15 0.9L-0.05 0.9L0.15 0.9L0.45 0.9L1.25 0.75L1.9 0.6L1.95 0.55L2.85 0.85L4.15 1.2L3.45 2.15L1.9 2.2L0.25 1.85L-0.3 1.9L-0.3 0.9" />
</g>
</svg>
