<?xml version="1.0" encoding="utf-8"?>
<svg version="1.1" id="Layer_1"
xmlns="http://www.w3.org/2000/svg"
xmlns:xlink="http://www.w3.org/1999/xlink"
xmlns:author="http://www.sothink.com"
width="11px" height="5px"
xml:space="preserve">
<g id="25" transform="matrix(1, 0, 0, 1, 5.1, 2.2)">
<radialGradient
id="RadialGradID_252" gradientUnits="userSpaceOnUse" gradientTransform="matrix(-0.000305176, -0.00131226, -0.00550842, 9.15527e-005, 0.5, 1.35)" spreadMethod ="pad" cx="0" cy="0" r="819.2" fx="0" fy="0" >
<stop  offset="0.0666667"  style="stop-color:#E37653;stop-opacity:0.662745" />
<stop  offset="1"  style="stop-color:#FFEFEA;stop-opacity:0" />
</radialGradient>
<path style="fill:url(#RadialGradID_252) " d="M0.35,0.6L2.85 0.75Q3.85 1 3.95 1.35L3.15 1.9L0.7 2.25L-1.7 2.05Q-2.85 1.8 -2.95 1.45Q-3 1.1 -2 0.85L0.35 0.6" />
<radialGradient
id="RadialGradID_253" gradientUnits="userSpaceOnUse" gradientTransform="matrix(0.0058136, 0, 0, 0.0058136, 0.25, 0.05)" spreadMethod ="pad" cx="0" cy="0" r="819.2" fx="0" fy="0" >
<stop  offset="0.619608"  style="stop-color:#A6503B;stop-opacity:1" />
<stop  offset="1"  style="stop-color:#733729;stop-opacity:1" />
</radialGradient>
<path style="fill:url(#RadialGradID_253) " d="M-3.6,-1.4L-3.85 -1.2L-4.1 -1.05L-4.3 -1.15L-4.3 -1.35L-4.05 -1.7L-3.75 -1.75L-3.25 -1.35L-2.9 -1.05L-2 -0.6Q-1.55 -0.35 -0.9 -0.15L0.15 0.05L1.6 -0.15L2.9 -0.55L3.8 -1L4.25 -1.45L4.3 -1.55L4.35 -1.55L4.5 -1.4L4.35 -1.2L4.25 -1.15L4.05 -0.95L3.55 -0.7L2.55 -0.25L1.85 0L0.4 0.2Q-0.6 0.25 -1.85 -0.3L-3.15 -1.1L-3.45 -1.35L-3.6 -1.4" />
<radialGradient
id="RadialGradID_254" gradientUnits="userSpaceOnUse" gradientTransform="matrix(0.00585938, 0, 0, 0.00315857, 0.55, -0.35)" spreadMethod ="pad" cx="0" cy="0" r="819.2" fx="6" fy="0" >
<stop  offset="0.337255"  style="stop-color:#ED8C78;stop-opacity:1" />
<stop  offset="1"  style="stop-color:#FFCFBB;stop-opacity:0" />
</radialGradient>
<path style="fill:url(#RadialGradID_254) " d="M2.55,0.5Q1.95 1 0.95 1.15L-0.8 1.1Q-1.6 0.95 -2.1 0.4L-2.95 -0.6L-3.45 -1.35L-3.15 -1.1L-1.85 -0.3Q-0.6 0.25 0.4 0.2L1.85 0L2.55 -0.25L3.55 -0.7L4.05 -0.95L4.25 -1.15L2.55 0.5" />
<radialGradient
id="RadialGradID_255" gradientUnits="userSpaceOnUse" gradientTransform="matrix(0.00653076, 0, 0, 0.00294495, 0.95, 0.15)" spreadMethod ="pad" cx="0" cy="0" r="819.2" fx="6" fy="0" >
<stop  offset="0.368627"  style="stop-color:#ED8C78;stop-opacity:1" />
<stop  offset="1"  style="stop-color:#FFC8BA;stop-opacity:0" />
</radialGradient>
<path style="fill:url(#RadialGradID_255) " d="M3.8,-1L2.9 -0.55L1.6 -0.15L0.15 0.05L-0.9 -0.15Q-1.55 -0.35 -2 -0.6L-2.9 -1.05L-0.75 -0.65L0.35 -0.35L0.8 -0.45L2.4 -0.8L3.8 -1" />
<radialGradient
id="RadialGradID_256" gradientUnits="userSpaceOnUse" gradientTransform="matrix(0.00140381, 0, 0, 0.00254822, 0.45, -1.7)" spreadMethod ="pad" cx="0" cy="0" r="819.2" fx="0" fy="0" >
<stop  offset="0"  style="stop-color:#E37653;stop-opacity:0.592157" />
<stop  offset="1"  style="stop-color:#FFEFEA;stop-opacity:0" />
</radialGradient>
<path style="fill:url(#RadialGradID_256) " d="M0.1,-1.7L0.3 -1.65L0.65 -1.7L0.8 -0.95L0.35 -0.65L-0.35 -1L-0.2 -1.4L-0.1 -1.7L-0.05 -1.75L0.1 -1.7" />
<radialGradient
id="RadialGradID_257" gradientUnits="userSpaceOnUse" gradientTransform="matrix(-0.00108337, -0.000701904, 0.000976563, -0.00123596, 4.25, -1.15)" spreadMethod ="pad" cx="0" cy="0" r="819.2" fx="0" fy="0" >
<stop  offset="0"  style="stop-color:#D9521C;stop-opacity:0.552941" />
<stop  offset="1"  style="stop-color:#FFEFEA;stop-opacity:0" />
</radialGradient>
<path style="fill:url(#RadialGradID_257) " d="M4.2,-1.95Q3.8 -1.9 3.55 -1.55L3.3 -0.85L3.6 -0.35L4.3 -0.25Q4.65 -0.4 4.9 -0.7Q5.2 -1 5.1 -1.35L4.85 -1.95L4.2 -1.95" />
<radialGradient
id="RadialGradID_258" gradientUnits="userSpaceOnUse" gradientTransform="matrix(-0.00108337, -0.000701904, 0.000976563, -0.00123596, -4.15, -1.35)" spreadMethod ="pad" cx="0" cy="0" r="819.2" fx="0" fy="0" >
<stop  offset="0"  style="stop-color:#D9521C;stop-opacity:0.552941" />
<stop  offset="1"  style="stop-color:#FFEFEA;stop-opacity:0" />
</radialGradient>
<path style="fill:url(#RadialGradID_258) " d="M-4.2,-2.15L-4.85 -1.75L-5.1 -1.05L-4.8 -0.55L-4.1 -0.45L-3.5 -0.9Q-3.2 -1.2 -3.3 -1.55Q-3.3 -1.95 -3.55 -2.15L-4.2 -2.15" />
<radialGradient
id="RadialGradID_259" gradientUnits="userSpaceOnUse" gradientTransform="matrix(0.00314331, 0.000518799, -0.000213623, 0.00135803, -0.9, 0)" spreadMethod ="pad" cx="0" cy="0" r="819.2" fx="0" fy="0" >
<stop  offset="0"  style="stop-color:#FFFFFF;stop-opacity:0.862745" />
<stop  offset="1"  style="stop-color:#FFFFFF;stop-opacity:0" />
</radialGradient>
<path style="fill:url(#RadialGradID_259) " d="M-2.55,-0.65L-2.4 -0.65L-1.45 -0.15L-1 0L1.5 0.15L1.55 0.15L1.6 0.35L1.6 0.4L0.1 0.75L-0.7 0.8L-0.9 0.8Q-1.3 0.75 -1.55 0.5L-2.5 -0.45L-2.55 -0.65" />
<radialGradient
id="RadialGradID_260" gradientUnits="userSpaceOnUse" gradientTransform="matrix(0.00265503, 0, 0, 0.00177002, -0.7, -1.05)" spreadMethod ="pad" cx="0" cy="0" r="819.2" fx="0" fy="0" >
<stop  offset="0"  style="stop-color:#FFFFFF;stop-opacity:0.513725" />
<stop  offset="1"  style="stop-color:#FFFFFF;stop-opacity:0" />
</radialGradient>
<path style="fill:url(#RadialGradID_260) " d="M-1.05,-0.6L-0.65 -0.5L0.1 -0.2L0.1 -0.15L-0.15 -0.1L-1 -0.25L-1.1 -0.25Q-1.75 -0.45 -2.1 -0.8L-1.75 -0.8L-1.05 -0.6" />
<radialGradient
id="RadialGradID_261" gradientUnits="userSpaceOnUse" gradientTransform="matrix(0.00300598, 0, 0, 0.00300598, -0.65, -0.9)" spreadMethod ="pad" cx="0" cy="0" r="819.2" fx="0" fy="0" >
<stop  offset="0"  style="stop-color:#FFFFFF;stop-opacity:0.470588" />
<stop  offset="1"  style="stop-color:#FFFFFF;stop-opacity:0" />
</radialGradient>
<path style="fill:url(#RadialGradID_261) " d="M-3,-1.4L-1.8 -1.45L-1.05 -1.35L-0.8 -1.35L-0.6 -1.5L-0.5 -1.6L-0.4 -1.65L-0.25 -1.3L-0.2 -0.85L0.4 -0.7L0.85 -0.95L1 -1.15L1.15 -1L1.35 -0.8L1 -0.55L0.55 -0.4L-0.5 -0.65L-1.7 -0.95L-2.5 -1.1Q-3 -1.15 -3 -1.4" />
</g>
</svg>
