<?xml version="1.0" encoding="utf-8"?>
<svg version="1.1" id="Layer_1"
xmlns="http://www.w3.org/2000/svg"
xmlns:xlink="http://www.w3.org/1999/xlink"
xmlns:author="http://www.sothink.com"
width="8px" height="6px"
xml:space="preserve">
<g id="23" transform="matrix(1, 0, 0, 1, -66.25, -38.15)">
<radialGradient
id="RadialGradID_223" gradientUnits="userSpaceOnUse" gradientTransform="matrix(-0.000228882, -0.00187683, -0.00434875, 0.000167847, 70.1, 42.2)" spreadMethod ="pad" cx="0" cy="0" r="819.2" fx="0" fy="0" >
<stop  offset="0.0666667"  style="stop-color:#E37653;stop-opacity:0.662745" />
<stop  offset="1"  style="stop-color:#FFEFEA;stop-opacity:0" />
</radialGradient>
<path style="fill:url(#RadialGradID_223) " d="M69.95,41.1L71.95 41.35Q72.7 41.6 72.8 42.15Q72.85 42.55 72.15 43L70.25 43.45L68.35 43.2Q67.45 42.85 67.4 42.35Q67.3 41.85 68.1 41.5Q68.8 41.05 69.95 41.1" />
<radialGradient
id="RadialGradID_224" gradientUnits="userSpaceOnUse" gradientTransform="matrix(0.00169373, 0, 0, 0.00271606, 70.45, 38.2)" spreadMethod ="pad" cx="0" cy="0" r="819.2" fx="0" fy="0" >
<stop  offset="0"  style="stop-color:#E37653;stop-opacity:0.592157" />
<stop  offset="1"  style="stop-color:#FFEFEA;stop-opacity:0" />
</radialGradient>
<path style="fill:url(#RadialGradID_224) " d="M70.4,38.2L70.7 38.2L70.9 38.9L70.95 39.3L70.65 39.55L70.2 39.9L70.2 38.35L70.15 38.35Q70.2 38.1 70.4 38.2" />
<path style="fill:#DB6960;fill-opacity:1" d="M68.2,41.5Q68.9 42.05 69.85 42.15L71.25 42L72.05 41.5L71.45 42.1L71 42.25L70.55 42.3L69.05 42.2Q68.6 42.05 67.9 41.2L68.2 41.5" />
<radialGradient
id="RadialGradID_225" gradientUnits="userSpaceOnUse" gradientTransform="matrix(0.00672913, 0, 0, 0.00306702, 70.1, 41.15)" spreadMethod ="pad" cx="0" cy="0" r="819.2" fx="6" fy="0" >
<stop  offset="0.368627"  style="stop-color:#ED8C78;stop-opacity:1" />
<stop  offset="1"  style="stop-color:#FFC8BA;stop-opacity:0" />
</radialGradient>
<path style="fill:url(#RadialGradID_225) " d="M72.8,40.45L71.9 40.4L71.4 40.5L70.35 40.75L69.3 40.55L68.65 40.4L68.3 40.45L67.25 40.3L67.95 40.05L69 39.75L69.9 39.95L70.2 40.1L70.4 40.05L71.5 39.75L72.5 40.15L73.25 40.35L72.8 40.45" />
<radialGradient
id="RadialGradID_226" gradientUnits="userSpaceOnUse" gradientTransform="matrix(0.00413513, 0, 0, 0.00413513, 70.25, 40.7)" spreadMethod ="pad" cx="0" cy="0" r="819.2" fx="0" fy="0" >
<stop  offset="0.619608"  style="stop-color:#AD2233;stop-opacity:1" />
<stop  offset="1"  style="stop-color:#944535;stop-opacity:1" />
</radialGradient>
<path style="fill:url(#RadialGradID_226) " d="M73,40.55L72.5 40.6L71.95 40.7L70.35 40.95L69.8 40.85L69.05 40.7L69 40.7L68 40.6L67.1 40.45L67 40.4L66.8 40.3Q66.75 40.15 66.85 40.15L67.1 40.2L67.25 40.3L68.3 40.45L68.65 40.4L69.3 40.55L70.35 40.75L71.4 40.5L71.9 40.4L72.8 40.45L73.25 40.35L73.45 40.2L73.55 40.2L73.55 40.35L73.3 40.5L73 40.55" />
<radialGradient
id="RadialGradID_227" gradientUnits="userSpaceOnUse" gradientTransform="matrix(0.00578308, 0, 0, 0.00343323, 69.6, 40.55)" spreadMethod ="pad" cx="0" cy="0" r="819.2" fx="6" fy="0" >
<stop  offset="0.25098"  style="stop-color:#ED8C78;stop-opacity:1" />
<stop  offset="1"  style="stop-color:#FFCFBB;stop-opacity:0" />
</radialGradient>
<path style="fill:url(#RadialGradID_227) " d="M73.3,40.5L72.65 41L72.1 41.45L72.05 41.5L71.25 42L69.85 42.15Q68.9 42.05 68.2 41.5L67.9 41.2L67.1 40.45L68 40.6L69 40.7L69.05 40.7L69.8 40.85L70.35 40.95L71.95 40.7L72.5 40.6L73 40.55L73.3 40.5" />
<radialGradient
id="RadialGradID_228" gradientUnits="userSpaceOnUse" gradientTransform="matrix(0.00300598, 0, 0, 0.00186157, 71.15, 39.45)" spreadMethod ="pad" cx="0" cy="0" r="819.2" fx="0" fy="0" >
<stop  offset="0"  style="stop-color:#FFFFFF;stop-opacity:0.513725" />
<stop  offset="1"  style="stop-color:#FFFFFF;stop-opacity:0" />
</radialGradient>
<path style="fill:url(#RadialGradID_228) " d="M70.15,40.15Q71.35 39.7 71.6 39.8L71.95 39.95L72.5 40.25L71.25 40.3L71.15 40.35L70.35 40.45L70.15 40.15" />
<radialGradient
id="RadialGradID_229" gradientUnits="userSpaceOnUse" gradientTransform="matrix(0.00291443, -0.000366211, 0.000183105, 0.00120544, 70.85, 41.15)" spreadMethod ="pad" cx="0" cy="0" r="819.2" fx="0" fy="0" >
<stop  offset="0"  style="stop-color:#FFFFFF;stop-opacity:0.862745" />
<stop  offset="1"  style="stop-color:#FFFFFF;stop-opacity:0" />
</radialGradient>
<path style="fill:url(#RadialGradID_229) " d="M70.05,41.1L70.2 41.2L70.15 41.5L70.3 41.55L70.4 41.35L70.5 41.1L71.05 41.05L72.5 40.6L72.8 40.6Q71.9 41.75 70.8 41.85L69.35 41.8Q69.15 41.55 69.3 41.45L69.5 41.1L69.75 41.4L69.95 41.4L69.95 41.25L70.05 41.1" />
<radialGradient
id="RadialGradID_230" gradientUnits="userSpaceOnUse" gradientTransform="matrix(0.000793457, -0.00050354, -0.000717163, -0.000900269, 66.95, 40.3)" spreadMethod ="pad" cx="0" cy="0" r="819.2" fx="0" fy="0" >
<stop  offset="0"  style="stop-color:#D9521C;stop-opacity:0.552941" />
<stop  offset="1"  style="stop-color:#FFEFEA;stop-opacity:0" />
</radialGradient>
<path style="fill:url(#RadialGradID_230) " d="M66.95,39.7L67.45 39.95L67.6 40.4L67.35 40.85L66.9 40.9L66.4 40.6Q66.25 40.35 66.25 40.1Q66.25 39.85 66.5 39.7Q66.65 39.55 66.95 39.7" />
<radialGradient
id="RadialGradID_231" gradientUnits="userSpaceOnUse" gradientTransform="matrix(-0.000793457, -0.000518799, 0.000717163, -0.000900269, 73.45, 40.25)" spreadMethod ="pad" cx="0" cy="0" r="819.2" fx="0" fy="0" >
<stop  offset="0"  style="stop-color:#D9521C;stop-opacity:0.552941" />
<stop  offset="1"  style="stop-color:#FFEFEA;stop-opacity:0" />
</radialGradient>
<path style="fill:url(#RadialGradID_231) " d="M73.9,39.65L74.1 40.1L73.95 40.55L73.5 40.9L73 40.8L72.8 40.45Q72.8 40.15 72.95 39.95L73.45 39.65L73.9 39.65" />
<radialGradient
id="RadialGradID_232" gradientUnits="userSpaceOnUse" gradientTransform="matrix(0.00285339, 0, 0, 0.00285339, 71.45, 39.45)" spreadMethod ="pad" cx="0" cy="0" r="819.2" fx="0" fy="0" >
<stop  offset="0"  style="stop-color:#FFFFFF;stop-opacity:0.470588" />
<stop  offset="1"  style="stop-color:#FFFFFF;stop-opacity:0" />
</radialGradient>
<path style="fill:url(#RadialGradID_232) " d="M71.1,38.15L71.5 38.5L71.7 39.2L72.4 39.65Q72.95 39.8 73 40.2L72.25 39.95L71.4 39.65L70.25 39.95L70.25 39.8L71.15 39.25L70.85 38.3Q70.9 38.15 71.1 38.15" />
<radialGradient
id="RadialGradID_233" gradientUnits="userSpaceOnUse" gradientTransform="matrix(0.00135803, 0, 0, 0.00190735, 70.1, 39.3)" spreadMethod ="pad" cx="0" cy="0" r="819.2" fx="0" fy="0" >
<stop  offset="0"  style="stop-color:#FFFFFF;stop-opacity:0.470588" />
<stop  offset="1"  style="stop-color:#FFFFFF;stop-opacity:0" />
</radialGradient>
<path style="fill:url(#RadialGradID_233) " d="M69.75,38.5L69.9 38.55L69.9 39.1L69.85 39.45L70.2 39.75L69.75 39.8L69.05 39.6L69.4 39.2L69.55 38.65L69.75 38.5" />
</g>
</svg>
