<?xml version="1.0" encoding="utf-8"?>
<svg version="1.1" id="Layer_1"
xmlns="http://www.w3.org/2000/svg"
xmlns:xlink="http://www.w3.org/1999/xlink"
xmlns:author="http://www.sothink.com"
width="11px" height="6px"
xml:space="preserve">
<g id="26" transform="matrix(1, 0, 0, 1, 5.3, 2.6)">
<radialGradient
id="RadialGradID_262" gradientUnits="userSpaceOnUse" gradientTransform="matrix(0.00561523, 0, 0, 0.00561523, 0.05, -0.3)" spreadMethod ="pad" cx="0" cy="0" r="819.2" fx="0" fy="0" >
<stop  offset="0.376471"  style="stop-color:#A6503B;stop-opacity:1" />
<stop  offset="1"  style="stop-color:#751717;stop-opacity:1" />
</radialGradient>
<path style="fill:url(#RadialGradID_262) " d="M3.05,-0.45L2.1 -0.35L1.2 -0.35L0.65 -0.3L0.2 -0.15L-0.55 -0.15L-1.75 -0.3L-1.8 -0.3L-3.4 -0.4L-4 -0.55L-4.1 -0.55L-4.3 -0.55Q-4.6 -0.55 -4.55 -0.65L-4.35 -0.75L-4.1 -0.75L-3.9 -0.7L-3.75 -0.65L-3.45 -0.55L-2.9 -0.5L-1.75 -0.5L-0.8 -0.4L-0.2 -0.3L0.4 -0.4L1.05 -0.5L2 -0.45L2.95 -0.55L3.45 -0.7L3.55 -0.7L3.8 -0.8L4.05 -0.75L4.15 -0.6L4 -0.6L3.65 -0.55L3.05 -0.45" />
<radialGradient
id="RadialGradID_263" gradientUnits="userSpaceOnUse" gradientTransform="matrix(0.00686646, 0, 0, 0.00279236, -0.2, 0.1)" spreadMethod ="pad" cx="0" cy="0" r="819.2" fx="6" fy="0" >
<stop  offset="0.368627"  style="stop-color:#ED8978;stop-opacity:1" />
<stop  offset="1"  style="stop-color:#FFC8BA;stop-opacity:0" />
</radialGradient>
<path style="fill:url(#RadialGradID_263) " d="M3.55,-0.7L3.45 -0.7L2.95 -0.55L2 -0.45L1.05 -0.5L0.4 -0.4L-0.2 -0.3L-0.8 -0.4L-1.75 -0.5L-2.9 -0.5L-3.45 -0.55L-3.75 -0.65L-3.9 -0.7L-2.15 -0.9L-1.35 -1.1L-0.7 -1L-0.05 -0.9L0.5 -1L1.05 -1.1L2.1 -0.9L3.55 -0.7" />
<radialGradient
id="RadialGradID_264" gradientUnits="userSpaceOnUse" gradientTransform="matrix(0.00689697, 0, 0, 0.00308228, -0.2, -0.75)" spreadMethod ="pad" cx="0" cy="0" r="819.2" fx="0" fy="0" >
<stop  offset="0.337255"  style="stop-color:#ED8C78;stop-opacity:1" />
<stop  offset="1"  style="stop-color:#FFC4BA;stop-opacity:0" />
</radialGradient>
<path style="fill:url(#RadialGradID_264) " d="M-4.1,-0.55L-4 -0.55L-3.4 -0.4L-1.8 -0.3L-1.75 -0.3L-0.55 -0.15L0.2 -0.15L0.65 -0.3L1.2 -0.35L2.1 -0.35L3.05 -0.45L3.65 -0.55L1.9 0.5Q1.05 1 -0.1 0.95L-1.55 0.85L-2.9 0.35L-4.1 -0.55" />
<radialGradient
id="RadialGradID_265" gradientUnits="userSpaceOnUse" gradientTransform="matrix(0.00308228, 0, 0, 0.00308228, -0.85, -2.05)" spreadMethod ="pad" cx="0" cy="0" r="819.2" fx="0" fy="0" >
<stop  offset="0.203922"  style="stop-color:#FFFFFF;stop-opacity:0.423529" />
<stop  offset="1"  style="stop-color:#FFFFFF;stop-opacity:0" />
</radialGradient>
<path style="fill:url(#RadialGradID_265) " d="M-1.3,-0.9L-0.9 -0.75L-0.5 -0.5L-2.85 -0.55L-1.7 -0.9L-1.3 -0.9" />
<radialGradient
id="RadialGradID_266" gradientUnits="userSpaceOnUse" gradientTransform="matrix(0.00343323, 0, 0, 0.00190735, -0.1, 0.05)" spreadMethod ="pad" cx="0" cy="0" r="819.2" fx="0" fy="0" >
<stop  offset="0.054902"  style="stop-color:#FFFFFF;stop-opacity:0" />
<stop  offset="0.694118"  style="stop-color:#FFFFFF;stop-opacity:0.670588" />
</radialGradient>
<path style="fill:url(#RadialGradID_266) " d="M2.45,-0.05L1.1 0.4L-0.25 0.5L-1.8 0.4L-2.55 -0.1L-2.45 -0.15L-0.2 0.05L1.25 -0.1L2.4 -0.15L2.45 -0.05" />
<radialGradient
id="RadialGradID_267" gradientUnits="userSpaceOnUse" gradientTransform="matrix(0.000991821, 0.000259399, -0.000411987, 0.00152588, 4.65, 0.25)" spreadMethod ="pad" cx="0" cy="0" r="819.2" fx="0" fy="0" >
<stop  offset="0"  style="stop-color:#E37653;stop-opacity:0.862745" />
<stop  offset="1"  style="stop-color:#FFEFEA;stop-opacity:0" />
</radialGradient>
<path style="fill:url(#RadialGradID_267) " d="M4.45,1.25Q4.35 0.25 5.2 -0.1Q5.4 0.3 5.1 0.7L4.55 1.35L4.45 1.25" />
<radialGradient
id="RadialGradID_268" gradientUnits="userSpaceOnUse" gradientTransform="matrix(-0.000106812, -0.00205994, -0.00454712, -3.05176e-005, -0.2, 1.2)" spreadMethod ="pad" cx="0" cy="0" r="819.2" fx="0" fy="0" >
<stop  offset="0"  style="stop-color:#E37653;stop-opacity:0.592157" />
<stop  offset="1"  style="stop-color:#FFEFEA;stop-opacity:0" />
</radialGradient>
<path style="fill:url(#RadialGradID_268) " d="M-0.2,0.05L1.85 0.45Q2.65 0.75 2.65 1.35Q2.65 1.85 1.9 2.25L-0.1 2.6L-2.1 2.25Q-3 1.85 -3 1.3Q-3 0.7 -2.15 0.4L-0.2 0.05" />
<radialGradient
id="RadialGradID_269" gradientUnits="userSpaceOnUse" gradientTransform="matrix(-0.0010376, -0.000656128, 0.000930786, -0.00117493, -4.45, -0.55)" spreadMethod ="pad" cx="0" cy="0" r="819.2" fx="0" fy="0" >
<stop  offset="0"  style="stop-color:#D9521C;stop-opacity:0.552941" />
<stop  offset="1"  style="stop-color:#FFEFEA;stop-opacity:0" />
</radialGradient>
<path style="fill:url(#RadialGradID_269) " d="M-4.5,-1.35L-5.1 -1L-5.3 -0.35L-5 0.2L-4.35 0.2Q-4 0.1 -3.75 -0.15Q-3.55 -0.45 -3.6 -0.8L-3.85 -1.35L-4.5 -1.35" />
<radialGradient
id="RadialGradID_270" gradientUnits="userSpaceOnUse" gradientTransform="matrix(0.0010376, -0.000656128, -0.000930786, -0.00117493, 4.1, -0.6)" spreadMethod ="pad" cx="0" cy="0" r="819.2" fx="0" fy="0" >
<stop  offset="0"  style="stop-color:#D9521C;stop-opacity:0.552941" />
<stop  offset="1"  style="stop-color:#FFEFEA;stop-opacity:0" />
</radialGradient>
<path style="fill:url(#RadialGradID_270) " d="M4.15,-1.4L4.75 -1.05L4.95 -0.4L4.65 0.15L4 0.15Q3.65 0.05 3.4 -0.2Q3.2 -0.5 3.25 -0.85L3.5 -1.4L4.15 -1.4" />
<radialGradient
id="RadialGradID_271" gradientUnits="userSpaceOnUse" gradientTransform="matrix(0.0035553, 0, 0, 0.00402832, -0.15, -1.6)" spreadMethod ="pad" cx="0" cy="0" r="819.2" fx="0" fy="0" >
<stop  offset="0"  style="stop-color:#E37653;stop-opacity:0.360784" />
<stop  offset="1"  style="stop-color:#FFEFEA;stop-opacity:0" />
</radialGradient>
<path style="fill:url(#RadialGradID_271) " d="M0.7,-1.45L0.25 -1.15L-0.3 -1.1L-0.75 -1.3L-0.9 -1.55L-0.65 -2.6L-0.1 -2.4L0.45 -2.6L0.7 -1.45" />
<radialGradient
id="RadialGradID_272" gradientUnits="userSpaceOnUse" gradientTransform="matrix(0.00608826, 0, 0, 0.00608826, -0.05, -0.3)" spreadMethod ="pad" cx="0" cy="0" r="819.2" fx="0" fy="0" >
<stop  offset="0"  style="stop-color:#FFFFFF;stop-opacity:0.482353" />
<stop  offset="1"  style="stop-color:#FFFFFF;stop-opacity:0" />
</radialGradient>
<path style="fill:url(#RadialGradID_272) " d="M-1,-1.75L-1.05 -1.25L-3.05 -0.65L-3.95 -0.55L-4.15 -0.7L-4.1 -0.8Q-3.1 -0.75 -2.2 -1.25L-1.95 -1.35L-1.55 -2.55L-1.35 -2.5L-1.2 -2.5L-1.1 -2.5L-0.95 -2.45L-0.95 -2.4Q-0.9 -2.05 -1 -1.75" />
</g>
</svg>
