<?xml version="1.0" encoding="utf-8"?>
<svg version="1.1" id="Layer_1"
xmlns="http://www.w3.org/2000/svg"
xmlns:xlink="http://www.w3.org/1999/xlink"
xmlns:author="http://www.sothink.com"
width="8px" height="6px"
xml:space="preserve">
<g id="30" transform="matrix(1, 0, 0, 1, 3.9, 3)">
<radialGradient
id="RadialGradID_307" gradientUnits="userSpaceOnUse" gradientTransform="matrix(-0.000259399, -0.00125122, -0.003479, 0.000289917, -0.1, 2.15)" spreadMethod ="pad" cx="0" cy="0" r="819.2" fx="0" fy="0" >
<stop  offset="0"  style="stop-color:#E37653;stop-opacity:0.662745" />
<stop  offset="1"  style="stop-color:#FFEFEA;stop-opacity:0" />
</radialGradient>
<path style="fill:url(#RadialGradID_307) " d="M1.6,2.65L0.1 3L-1.45 2.9Q-2.2 2.7 -2.25 2.4Q-2.3 2.05 -1.7 1.8Q-1.15 1.45 -0.2 1.45L1.4 1.55Q2 1.7 2.1 2.05Q2.15 2.3 1.6 2.65" />
<radialGradient
id="RadialGradID_308" gradientUnits="userSpaceOnUse" gradientTransform="matrix(0.000595093, 0.000564575, -0.000854492, 0.000534058, 3.25, -0.25)" spreadMethod ="pad" cx="0" cy="0" r="819.2" fx="0" fy="0" >
<stop  offset="0.117647"  style="stop-color:#D9521C;stop-opacity:0.552941" />
<stop  offset="1"  style="stop-color:#FFEFEA;stop-opacity:0" />
</radialGradient>
<path style="fill:url(#RadialGradID_308) " d="M2.7,0.1L2.6 -0.25L2.85 -0.6L3.35 -0.75L3.8 -0.6L3.9 -0.25L3.6 0.1L3.15 0.2L2.7 0.1" />
<radialGradient
id="RadialGradID_309" gradientUnits="userSpaceOnUse" gradientTransform="matrix(-0.000717163, -0.000457764, 0.00062561, -0.000808716, -3.3, 0.2)" spreadMethod ="pad" cx="0" cy="0" r="819.2" fx="0" fy="0" >
<stop  offset="0"  style="stop-color:#D9521C;stop-opacity:0.552941" />
<stop  offset="1"  style="stop-color:#FFEFEA;stop-opacity:0" />
</radialGradient>
<path style="fill:url(#RadialGradID_309) " d="M-3.3,-0.35L-3.7 -0.1L-3.9 0.35L-3.65 0.65L-3.25 0.75L-2.85 0.45L-2.7 0.05L-2.9 -0.35L-3.3 -0.35" />
<radialGradient
id="RadialGradID_310" gradientUnits="userSpaceOnUse" gradientTransform="matrix(0.00556946, 0, 0, 0.00421143, 0, 0.05)" spreadMethod ="pad" cx="0" cy="0" r="819.2" fx="210518" fy="0" >
<stop  offset="0.776471"  style="stop-color:#A6503B;stop-opacity:1" />
<stop  offset="1"  style="stop-color:#C16A46;stop-opacity:0.0235294" />
</radialGradient>
<path style="fill:url(#RadialGradID_310) " d="M2.95,-0.15L3.1 -0.25L3.15 -0.25L3.15 -0.15L3.1 0L2.9 0L2.55 0.05L1.95 0.15L1.5 0.1L0.6 0.05L-0.7 0.15L-1.65 0.3L-2.85 0.35L-3.15 0.3L-3.2 0.25L-3.25 0.35L-3.4 0.35L-3.4 0.3L-3.3 0.15L-3.2 0.05L-3.1 0.1L-3.05 0.15L-2.6 0.25L-2.3 0.3L-1.3 0.1L0.2 -0.05L0.7 -0.1L1.35 -0.05L1.9 0.05L2.3 0.05L2.95 -0.15" />
<radialGradient
id="RadialGradID_311" gradientUnits="userSpaceOnUse" gradientTransform="matrix(0.00671387, 0, 0, 0.00236511, 0.15, 0.4)" spreadMethod ="pad" cx="0" cy="0" r="819.2" fx="6" fy="0" >
<stop  offset="0.368627"  style="stop-color:#ED8C78;stop-opacity:1" />
<stop  offset="1"  style="stop-color:#FFC8BA;stop-opacity:0" />
</radialGradient>
<path style="fill:url(#RadialGradID_311) " d="M2.3,0.05L1.9 0.05L1.35 -0.05L0.7 -0.1L0.2 -0.05L-1.3 0.1L-2.3 0.3L-2.6 0.25L-3.05 0.15L-3.1 0.1Q-2.6 0.15 -1.9 -0.3L-0.85 -0.75L-0.2 -0.6L0.25 -0.55L1.2 -0.85L2 -0.55L2.95 -0.15L2.3 0.05" />
<radialGradient
id="RadialGradID_312" gradientUnits="userSpaceOnUse" gradientTransform="matrix(0.00671387, 0, 0, 0.00270081, 0.1, -0.1)" spreadMethod ="pad" cx="0" cy="0" r="819.2" fx="6" fy="0" >
<stop  offset="0.337255"  style="stop-color:#ED8C78;stop-opacity:1" />
<stop  offset="1"  style="stop-color:#FFCFBB;stop-opacity:0" />
</radialGradient>
<path style="fill:url(#RadialGradID_312) " d="M-2.85,0.35L-1.65 0.3L-0.7 0.15L0.6 0.05L1.5 0.1L1.95 0.15L2.55 0.05L2.9 0L2.15 0.6L1.45 0.95L-0.4 1.25L-1.8 1.1Q-2.5 0.95 -3.15 0.3L-2.85 0.35" />
<radialGradient
id="RadialGradID_313" gradientUnits="userSpaceOnUse" gradientTransform="matrix(0.00210571, 0.000350952, -0.000213623, 0.00125122, 1.9, -0.8)" spreadMethod ="pad" cx="0" cy="0" r="819.2" fx="48" fy="0" >
<stop  offset="0"  style="stop-color:#FFFFFF;stop-opacity:0.341176" />
<stop  offset="1"  style="stop-color:#FFFFFF;stop-opacity:0" />
</radialGradient>
<path style="fill:url(#RadialGradID_313) " d="M1.3,-0.75L1.8 -0.5L2.6 -0.2L2.15 -0.15L1.5 -0.25L1.2 -0.5L1.2 -0.7L1.3 -0.75" />
<radialGradient
id="RadialGradID_314" gradientUnits="userSpaceOnUse" gradientTransform="matrix(0.000762939, 0, 0, 0.0012207, 0.3, -0.6)" spreadMethod ="pad" cx="0" cy="0" r="819.2" fx="48" fy="0" >
<stop  offset="0"  style="stop-color:#FFFFFF;stop-opacity:0.313725" />
<stop  offset="1"  style="stop-color:#FFFFFF;stop-opacity:0" />
</radialGradient>
<path style="fill:url(#RadialGradID_314) " d="M0.3,-0.55L0.5 -0.6L0.6 -0.6L0.55 -0.45L0.5 -0.35L0.25 -0.1Q0.1 -0.1 0.1 -0.3L0.1 -0.45L0.3 -0.55" />
<radialGradient
id="RadialGradID_315" gradientUnits="userSpaceOnUse" gradientTransform="matrix(0.00463867, 0, 0, 0.00300598, 0.3, 0.45)" spreadMethod ="pad" cx="0" cy="0" r="819.2" fx="0" fy="0" >
<stop  offset="0"  style="stop-color:#FFFFFF;stop-opacity:0.470588" />
<stop  offset="1"  style="stop-color:#FFFFFF;stop-opacity:0" />
</radialGradient>
<path style="fill:url(#RadialGradID_315) " d="M-1.4,0.5L-0.2 0.35L1.45 0.25L2.2 0.3L1.25 0.7L0.4 0.7L-0.25 0.85L-2 0.65L-2.15 0.65L-2.3 0.55L-1.6 0.4L-1.55 0.45L-1.4 0.5" />
<radialGradient
id="RadialGradID_316" gradientUnits="userSpaceOnUse" gradientTransform="matrix(0.00283813, 0, 0, 0.00213623, 1.05, 0.35)" spreadMethod ="pad" cx="0" cy="0" r="819.2" fx="0" fy="0" >
<stop  offset="0"  style="stop-color:#FFFFFF;stop-opacity:0.862745" />
<stop  offset="1"  style="stop-color:#FFFFFF;stop-opacity:0" />
</radialGradient>
<path style="fill:url(#RadialGradID_316) " d="M1.8,0.4L1.35 0.5L1.25 0.45L1.2 0.5L1.2 0.6L1.15 0.5L1.1 0.45L1.1 0.55L0.95 0.6L0.65 0.65L0.6 0.5L0.6 0.45L0.45 0.45L0.2 0.55L0.15 0.55L0.15 0.4L0.2 0.35L0.25 0.35L0.25 0.45L0.4 0.4L0.55 0.35L0.65 0.35L0.7 0.35L0.7 0.4L0.8 0.4L1 0.35L1.05 0.35L1.15 0.45L1.15 0.4L1.15 0.35L1.25 0.35L1.6 0.3L1.7 0.35L1.8 0.4M-0.25,0.45L-0.2 0.45L-0.2 0.7L-0.25 0.75L-0.3 0.75L-0.35 0.6L-0.3 0.55L-0.3 0.5L-0.3 0.45L-0.25 0.45" />
<radialGradient
id="RadialGradID_317" gradientUnits="userSpaceOnUse" gradientTransform="matrix(0.00062561, 0, 0, 0.00062561, -1.35, 0.45)" spreadMethod ="pad" cx="0" cy="0" r="819.2" fx="0" fy="0" >
<stop  offset="0"  style="stop-color:#FFFFFF;stop-opacity:0.701961" />
<stop  offset="1"  style="stop-color:#FFFFFF;stop-opacity:0" />
</radialGradient>
<path style="fill:url(#RadialGradID_317) " d="M-1.3,0.55L-1.25 0.55L-1.2 0.6L-1.2 0.65L-1.15 0.7L-1.2 0.7L-1.25 0.8L-1.3 0.7L-1.35 0.75L-1.55 0.7L-1.6 0.6L-1.75 0.6L-1.85 0.55L-1.75 0.45L-1.6 0.55L-1.45 0.6L-1.35 0.6L-1.3 0.55" />
<radialGradient
id="RadialGradID_318" gradientUnits="userSpaceOnUse" gradientTransform="matrix(0.00236511, 0, 0, 0.0035553, 0.25, -1.4)" spreadMethod ="pad" cx="0" cy="0" r="819.2" fx="0" fy="0" >
<stop  offset="0"  style="stop-color:#E37653;stop-opacity:0.313725" />
<stop  offset="1"  style="stop-color:#FFEFEA;stop-opacity:0" />
</radialGradient>
<path style="fill:url(#RadialGradID_318) " d="M0.05,-1.25L0 -2.1L0.05 -2.5L0.7 -3L0.8 -2.15L0.85 -1.25L0.6 -1L0.1 -0.75L0.05 -1.25" />
<radialGradient
id="RadialGradID_319" gradientUnits="userSpaceOnUse" gradientTransform="matrix(0.00209045, 0, 0, 0.00341797, 0.15, -1.3)" spreadMethod ="pad" cx="0" cy="0" r="819.2" fx="0" fy="0" >
<stop  offset="0.192157"  style="stop-color:#FFFFFF;stop-opacity:0.431373" />
<stop  offset="1"  style="stop-color:#FFFFFF;stop-opacity:0" />
</radialGradient>
<path style="fill:url(#RadialGradID_319) " d="M0.9,-2.95L1 -2.35L1.05 -1.85L1.15 -1.45L1.4 -1.15L1.55 -1L1.45 -0.95L1.2 -0.95L0.85 -0.9L0.9 -0.95L0.95 -1.3L0.9 -1.85L0.85 -2.15L0.8 -2.85L0.8 -2.95L0.9 -2.95M-0.2,-2.2L-0.2 -2.6L0.25 -2.8L-0.05 -2.55L-0.05 -2.15L0 -0.9L-0.15 -0.9L-0.2 -1.35L-0.2 -1.95L-0.2 -2.2" />
</g>
</svg>
