<?xml version="1.0" encoding="utf-8"?>
<svg version="1.1" id="Layer_1"
xmlns="http://www.w3.org/2000/svg"
xmlns:xlink="http://www.w3.org/1999/xlink"
xmlns:author="http://www.sothink.com"
width="22px" height="30px"
xml:space="preserve">
<g id="27" transform="matrix(1, 0, 0, 1, -58.6, -17.5)">
<linearGradient
id="LinearGradID_934" gradientUnits="userSpaceOnUse" gradientTransform="matrix(-4.57764e-05, -0.0131683, 0.018219, -0.000244141, 69.4, 32.35)" spreadMethod ="pad" x1="-819.2" y1="0" x2="819.2" y2="0" >
<stop  offset="0" style="stop-color:#E0CDAE;stop-opacity:1" />
<stop  offset="0.988235" style="stop-color:#60442A;stop-opacity:1" />
</linearGradient>
<path style="fill:url(#LinearGradID_934) " d="M78.7,22.5Q80 26.25 80.2 32L80.15 34.1L80.15 34.15L79.55 36.15L79.55 36.3L79.15 37L79.05 37.2L78.85 37.7L78.75 38.1L78.65 38.75L78.6 39.25L78.3 38.2L78 39.1L77.7 40.75L77.65 41.25L77.65 41.5L77.4 41.15L77.3 41.8Q77.15 41.65 77.15 41.25L77.05 41.75L76.9 42.35L76.8 41.95Q76.45 42.75 76.45 43.55L76.2 43.8L75.4 44.5L74 45.45L71.95 46.55L70.4 47.4L70.3 46.85L70.1 46.35L70.05 46.4L69.9 46.85L69.7 47.35L69.5 46.8L69.3 46.3L69.3 47.25L69.25 47.25L68.15 46.65L66.4 45.45L64.8 44.05L63.9 42.9L63.95 44.25Q63 38.3 63.6 43.4Q63.35 41.9 62.7 40.45L62.5 40.1L62.3 39.75L62.1 40.5Q61.95 38.8 61.45 37.95L61.35 38.3L61.25 38.05Q61.1 36.75 60.35 36.2L59.45 33.65Q58.6 30.65 58.6 28.15Q58.65 22.95 62.25 20Q65.85 17.05 71.45 17.6Q77.15 18.15 78.7 22.5" />
</g>
</svg>
