<?xml version="1.0" encoding="utf-8"?>
<svg version="1.1" id="Layer_1"
xmlns="http://www.w3.org/2000/svg"
xmlns:xlink="http://www.w3.org/1999/xlink"
xmlns:author="http://www.sothink.com"
width="29px" height="34px"
xml:space="preserve">
<g id="26" transform="matrix(1, 0, 0, 1, -55.25, -16.75)">
<linearGradient
id="LinearGradID_2932" gradientUnits="userSpaceOnUse" gradientTransform="matrix(-0.00189209, -0.00502014, 0.00242615, -0.000808716, 80.35, 34.75)" spreadMethod ="pad" x1="-819.2" y1="0" x2="819.2" y2="0" >
<stop  offset="0" style="stop-color:#0A0407;stop-opacity:1" />
<stop  offset="0.564706" style="stop-color:#3C2D39;stop-opacity:1" />
<stop  offset="1" style="stop-color:#0D0509;stop-opacity:1" />
</linearGradient>
<path style="fill:url(#LinearGradID_2932) " d="M64,16.75Q64.85 16.75 65.65 17.35Q66.5 18 66.7 18.95L67.7 18.1Q68.2 17.65 68.6 17.65L72.25 18.5Q75.2 19.4 75.7 19.85Q76.8 20.9 78.6 25.35Q80.4 29.75 80.4 31.15Q80.4 34.1 78.7 38Q77 41.9 77 43.15Q77 43.6 77.35 44.7Q77.7 45.7 79.1 46.15Q77.55 46.1 76.95 45.3L76.3 44.45Q76.4 45.1 77.3 46.25Q75.45 45.1 75.2 44.55L75.1 48.75L74.7 47.6L74.2 45.95L74.1 46.05L73.5 47.95L72.5 50.25L72.3 48.55L71.9 46.65L71.8 46.65L71.5 48.35L71 50.15L70.95 50.1L70.9 50.05L70.2 48.5L69.4 47.25L69.2 49.85L69.1 49.85L67.6 47.75L65.9 45.75L66 48.35L65.9 48.35L65.25 46.35Q64.75 45.25 64.9 44.45L64.85 44.45Q64.75 44.1 64.35 44.1L63.25 44.55L63.3 44.2Q63.5 43 62.4 40.8L60.35 38.45Q57.4 34.9 57.4 29.05Q57.4 24.45 58.75 21.75Q60.25 18.7 63.95 16.75L64 16.75" />
<path style="fill:#1E191A;fill-opacity:1" d="M81.25,41.85L81.25 41.45L81.25 41.4L81.2 41.45L80.9 42.1L80.8 42.15L80.75 42.15L80.5 42.35L80.15 42.45L79.75 42.45L79.7 42.25L79.7 42.15L80 41.6L80.2 41.45L80.6 41.2L80.8 40.95L80.85 40.9L80.85 40.85L80.8 40.9L80.75 40.9L80.2 40.85L80.1 40.75L80.2 40.75L80.45 40.55L80.5 40.5L80.65 40.3L80.75 40L80.4 40.25L80.7 39.7L80.3 39.95L79.9 40.05L79.7 40.05L79.6 40.05L79.7 39.9L79.65 39.85L79.6 39.75L79.55 39.7L79.4 39.55L79.35 39.55L79.2 39.3L79.1 39.2L79.05 39.15L79 39L78.75 38.55L78.7 38.25L78.55 37.85L78.25 37.65L77.9 37.3L77.5 36.75L77.3 37.35L77.15 37.85L77.15 37.75L77.15 37.25L77.1 36.05L77.1 35.9L77.15 36Q77.5 35.05 79 35.05L79.7 35.25L80 35.45L80.5 35.95L81.4 36.6L81.8 36.95L83.15 35.9L83.4 35.9L83.4 36L82.25 38.15Q81.45 39.2 81.5 40.75Q81.55 41.4 81.25 41.85" />
<linearGradient
id="LinearGradID_2933" gradientUnits="userSpaceOnUse" gradientTransform="matrix(-0.00189209, -0.00502014, 0.00242615, -0.000808716, 79.7, 35.2)" spreadMethod ="pad" x1="-819.2" y1="0" x2="819.2" y2="0" >
<stop  offset="0" style="stop-color:#0A0407;stop-opacity:1" />
<stop  offset="0.564706" style="stop-color:#3C2D39;stop-opacity:1" />
<stop  offset="1" style="stop-color:#0D0509;stop-opacity:1" />
</linearGradient>
<path style="fill:url(#LinearGradID_2933) " d="M80.15,40.7L79.85 40.6L79.8 40.55L79.55 40.45L79.5 40.4L79.35 40.3L79.2 40.15L79.35 40.25L79.45 40.3L79.4 40.15L79.2 39.7L79.1 39.55L78.7 38.55L78.7 38.25L78.75 38.55L79 39L79.05 39.15L79.1 39.2L79.2 39.3L79.35 39.55L79.4 39.55L79.55 39.7L79.6 39.75L79.65 39.85L79.7 39.9L79.6 40.05L79.7 40.05L79.9 40.05L80.3 39.95L80.7 39.7L80.4 40.25L80.75 40L80.65 40.3L80.5 40.5L80.45 40.55L80.2 40.75L80.15 40.7M79.05,40.95L79.1 41L79.9 41.1L80.8 40.95L80.6 41.2L80.2 41.45L79.35 41.2L79.1 41L79.05 40.95M79.5,42.15L79.3 42.05L79.1 41.95L78.9 41.65L79.1 41.65L79.25 41.65L80 41.6L79.7 42.15L79.7 42.25L79.5 42.15M80.6,42.95L80.05 43.1L80 43.3L79.95 43.4L79.55 44.05Q78.5 44.65 77.6 44.5L76.95 44.3L76.05 43.65L76 43.65L75.95 43.55L75.8 43.3L75.8 43.25L76.15 43.55L76.4 43.7L76.45 43.7L76.65 43.85L77.05 44L77.1 44L77.25 44.05L77.45 44.1L78.4 44.2L78.5 44.15L79.1 44L79.35 43.85L79.8 43.3L79.8 43.25L79.75 43.3L79.5 43.55L79.25 43.7L79.45 43.2L79.45 43.15L78.9 43.15L78.2 43L77.85 42.85L77.7 42.8L77.35 42.6L77.3 42.6L77.3 42.7L77.5 43.35L77.85 43.8L77.5 43.55L77.45 43.45L77.25 43.1L77.2 43.1L76.9 42.4L76.8 41.8L77.1 42.15L77.35 42.35L77.4 42.4L77.5 42.5L77.75 42.6L78 42.65L78.75 42.75L79.1 42.75L79.55 42.7L80.05 42.6L80.2 42.55L80.7 42.35L81.1 42.15L81.15 42.15L81.2 41.95L81 42.05L80.8 42.15L80.9 42.1L81.2 41.45L81.25 41.4L81.25 41.45L81.25 41.85Q81.55 41.4 81.5 40.75Q81.9 41.95 80.7 42.85L80.6 42.95M80.35,40.25L80.3 40.3L80.4 40.25L80.35 40.25" />
<linearGradient
id="LinearGradID_2934" gradientUnits="userSpaceOnUse" gradientTransform="matrix(-0.00270081, -0.00198364, 0.00126648, -0.00152588, 78.85, 41.45)" spreadMethod ="pad" x1="-819.2" y1="0" x2="819.2" y2="0" >
<stop  offset="0" style="stop-color:#3C3638;stop-opacity:1" />
<stop  offset="0.564706" style="stop-color:#2C2326;stop-opacity:1" />
<stop  offset="1" style="stop-color:#201A1C;stop-opacity:1" />
</linearGradient>
<path style="fill:url(#LinearGradID_2934) " d="M79.7,42.25L79.75 42.45L80.15 42.45L80.5 42.35L80.75 42.15L80.8 42.15L81 42.05L81.2 41.95L81.15 42.15L81.1 42.15L80.7 42.35L80.2 42.55L80.05 42.6L79.55 42.7L79.1 42.75L78.75 42.75L78 42.65L77.75 42.6L77.5 42.5L77.4 42.4L77.35 42.35L77.1 42.15L76.8 41.8L76.4 40.95L76.5 40.7L76.85 39.55L76.95 39.85L77.6 41Q78.3 41.6 78.9 41.65L79.1 41.95L79.3 42.05L79.5 42.15L79.7 42.25" />
<linearGradient
id="LinearGradID_2935" gradientUnits="userSpaceOnUse" gradientTransform="matrix(-0.00213623, -0.00256348, 0.00115967, -0.000854492, 79.55, 39.25)" spreadMethod ="pad" x1="-819.2" y1="0" x2="819.2" y2="0" >
<stop  offset="0" style="stop-color:#26151A;stop-opacity:1" />
<stop  offset="0.47451" style="stop-color:#53383C;stop-opacity:1" />
<stop  offset="0.941176" style="stop-color:#1F1216;stop-opacity:1" />
</linearGradient>
<path style="fill:url(#LinearGradID_2935) " d="M77.3,37.35L77.5 36.75L77.9 37.3L78.25 37.65L78.55 37.85L78.7 38.25L78.7 38.55L79.1 39.55L79.2 39.7L79.4 40.15L79.45 40.3L79.35 40.25L79.2 40.15L79.1 40.15L78.65 39.85L78.55 39.75L78.3 39.55L78.1 39.3L77.95 39.15L77.85 39.05L77.55 38.45L77.5 38.25L77.45 38.05L77.4 38L77.3 37.35M80.4,40.25L80.3 40.3L80.35 40.25L80.4 40.25" />
<linearGradient
id="LinearGradID_2936" gradientUnits="userSpaceOnUse" gradientTransform="matrix(-0.00215149, -0.00143433, 0.000747681, -0.000991821, 79.8, 40.35)" spreadMethod ="pad" x1="-819.2" y1="0" x2="819.2" y2="0" >
<stop  offset="0" style="stop-color:#3C3638;stop-opacity:1" />
<stop  offset="0.564706" style="stop-color:#2C2326;stop-opacity:1" />
<stop  offset="1" style="stop-color:#201A1C;stop-opacity:1" />
</linearGradient>
<path style="fill:url(#LinearGradID_2936) " d="M79.9,41.1L79.1 41L79.05 40.95L78.45 40.7L78.4 40.65Q78.05 40.5 77.8 39.85L77.7 39.55L77.6 39.3L77.6 39.15L77.5 38.75L77.4 38L77.45 38.05L77.5 38.25L77.55 38.45L77.85 39.05L77.95 39.15L78.1 39.3L78.3 39.55L78.55 39.75L78.65 39.85L79.1 40.15L79.2 40.15L79.35 40.3L79.5 40.4L79.55 40.45L79.8 40.55L79.85 40.6L80.15 40.7L80.2 40.75L80.1 40.75L80.2 40.85L80.75 40.9L80.8 40.9L80.85 40.85L80.85 40.9L80.8 40.95L79.9 41.1" />
<linearGradient
id="LinearGradID_2937" gradientUnits="userSpaceOnUse" gradientTransform="matrix(-0.00151062, -0.00245667, 0.001297, -0.000717163, 78.35, 40.05)" spreadMethod ="pad" x1="-819.2" y1="0" x2="819.2" y2="0" >
<stop  offset="0" style="stop-color:#26151A;stop-opacity:1" />
<stop  offset="0.47451" style="stop-color:#53383C;stop-opacity:1" />
<stop  offset="0.941176" style="stop-color:#1F1216;stop-opacity:1" />
</linearGradient>
<path style="fill:url(#LinearGradID_2937) " d="M79.1,41L79.35 41.2L80.2 41.45L80 41.6L79.25 41.65L79.1 41.65L78.9 41.65Q78.3 41.6 77.6 41L76.95 39.85L76.85 39.55L76.9 39.55L77.1 38.5L77.15 37.85L77.3 37.35L77.4 38L77.5 38.75L77.6 39.15L77.6 39.3L77.7 39.55L77.8 39.85Q78.05 40.5 78.4 40.65L78.45 40.7L79.05 40.95L79.1 41" />
<linearGradient
id="LinearGradID_2938" gradientUnits="userSpaceOnUse" gradientTransform="matrix(-0.0017395, -0.0022583, 0.00160217, -0.00111389, 77.45, 42.8)" spreadMethod ="pad" x1="-819.2" y1="0" x2="819.2" y2="0" >
<stop  offset="0" style="stop-color:#26151A;stop-opacity:1" />
<stop  offset="0.47451" style="stop-color:#53383C;stop-opacity:1" />
<stop  offset="0.941176" style="stop-color:#1F1216;stop-opacity:1" />
</linearGradient>
<path style="fill:url(#LinearGradID_2938) " d="M80.7,42.85L80.55 43.8L80.55 43.95Q79.75 46.85 76.25 44.6Q80.1 45.9 80 43.3L80.05 43.1L80.6 42.95L80.7 42.85M78.1,44Q78.9 44.15 79.2 43.75L79.25 43.7L79.5 43.55L79.75 43.3L79.8 43.25L79.8 43.3L79.35 43.85L79.1 44L78.5 44.15L78.4 44.2L77.45 44.1L77.25 44.05L77.1 44L77.05 44L76.65 43.85L76.45 43.7L76.4 43.7L76.15 43.55L75.8 43.25L76 42.15L76.4 40.95L76.8 41.8L76.9 42.4L77.2 43.1L77.25 43.1L77.45 43.45L77.5 43.55L77.85 43.8L78.1 44" />
<linearGradient
id="LinearGradID_2939" gradientUnits="userSpaceOnUse" gradientTransform="matrix(-0.00209045, -0.000137329, 1.52588e-05, -0.00180054, 57.85, 35.55)" spreadMethod ="pad" x1="-819.2" y1="0" x2="819.2" y2="0" >
<stop  offset="0" style="stop-color:#402C2E;stop-opacity:1" />
<stop  offset="0.47451" style="stop-color:#705958;stop-opacity:1" />
<stop  offset="0.92549" style="stop-color:#40272A;stop-opacity:1" />
</linearGradient>
<path style="fill:url(#LinearGradID_2939) " d="M58.1,36.4L58.25 36.4L57.95 36.55L57.7 36.6L57.3 36.65L56.6 36.55L56.5 36.55L56.6 36.6L57.2 36.75L57.35 36.8L57.6 36.85L57.75 36.95L57.4 36.95L57.3 36.95L56.65 36.9L56.05 36.75L55.25 36.4L55.5 36.4L56.1 36.6L56 36.5L55.85 36.45L55.8 36.45L55.65 36.4L55.75 36.4L55.9 36.4L56.6 36.4L57.9 36.4L57.75 36.5L58.1 36.4" />
<linearGradient
id="LinearGradID_2940" gradientUnits="userSpaceOnUse" gradientTransform="matrix(-0.00126648, 0.000701904, -0.000335693, -0.000442505, 58.9, 36)" spreadMethod ="pad" x1="-819.2" y1="0" x2="819.2" y2="0" >
<stop  offset="0" style="stop-color:#402C2E;stop-opacity:1" />
<stop  offset="0.47451" style="stop-color:#705958;stop-opacity:1" />
<stop  offset="0.92549" style="stop-color:#40272A;stop-opacity:1" />
</linearGradient>
<path style="fill:url(#LinearGradID_2940) " d="M55.5,36.4L55.65 36.4L55.8 36.45L55.85 36.45L56 36.5L56.1 36.6L55.5 36.4M57.75,36.5L57.9 36.4L58.1 36.4L57.75 36.5M59,36.45L58.45 36.75L58.25 36.8L57.8 36.85L57.6 36.85L57.35 36.8L57.2 36.75L56.6 36.6L56.5 36.55L56.6 36.55L57.3 36.65L57.7 36.6L57.95 36.55L58.25 36.4L59.1 36.4L59 36.45" />
<linearGradient
id="LinearGradID_2941" gradientUnits="userSpaceOnUse" gradientTransform="matrix(-0.00135803, 0, -7.62939e-05, -0.0010376, 59.2, 36.9)" spreadMethod ="pad" x1="-819.2" y1="0" x2="819.2" y2="0" >
<stop  offset="0" style="stop-color:#26151A;stop-opacity:1" />
<stop  offset="0.47451" style="stop-color:#53383C;stop-opacity:1" />
<stop  offset="0.941176" style="stop-color:#1F1216;stop-opacity:1" />
</linearGradient>
<path style="fill:url(#LinearGradID_2941) " d="M61.5,37.75L61.3 37.95L61.2 38L59.75 38.85L59.35 38.9L60.05 38.7L59.15 38.6Q58.2 38.6 57.75 38.1L57.45 37.7L57.35 37.4L57.3 37.25L57.3 37.15L57.3 36.95L57.4 36.95L57.7 37.4L57.8 37.45L58.05 37.65L58.1 37.75Q58.55 38.25 59.3 38.25L60.1 37.95L60.9 37.4L61.05 37.3L61.1 37.25L61.15 37.2L61.05 37.25L60.7 37.35L60.55 37.4L60.5 37.45L60.45 37.45L59.1 37.75L58.85 37.75L59 37.7L59.1 37.65L58.85 37.65L58.4 37.45L58.3 37.4Q57.9 37.2 57.8 36.85L58.25 36.8L58.45 36.75L59 36.45L59.1 36.4L59.9 36.4L60.25 36.9L61.05 37.15L61.25 37.2Q60.55 38.1 61.5 37.75" />
<linearGradient
id="LinearGradID_2942" gradientUnits="userSpaceOnUse" gradientTransform="matrix(0.0045166, -0.00849915, 0.00971985, 0.00512695, 60.3, 22.2)" spreadMethod ="pad" x1="-819.2" y1="0" x2="819.2" y2="0" >
<stop  offset="0" style="stop-color:#000000;stop-opacity:1" />
<stop  offset="1" style="stop-color:#2E282C;stop-opacity:1" />
</linearGradient>
<path style="fill:url(#LinearGradID_2942) " d="M61.05,36.5L61.15 36.5L61.3 36.5L62.55 40L62.3 39.5L61.6 38.05L61.5 37.8L61.5 37.75L61.25 37.2L61.05 37.15L60.25 36.9L59.9 36.4L60.5 36.4L60.6 36.45L61 36.5L61.05 36.5" />
<linearGradient
id="LinearGradID_2943" gradientUnits="userSpaceOnUse" gradientTransform="matrix(0.00106812, -0.000610352, 0.00178528, 0.00257874, 61.1, 39.95)" spreadMethod ="pad" x1="-819.2" y1="0" x2="819.2" y2="0" >
<stop  offset="0" style="stop-color:#26151A;stop-opacity:1" />
<stop  offset="0.47451" style="stop-color:#53383C;stop-opacity:1" />
<stop  offset="0.941176" style="stop-color:#1F1216;stop-opacity:1" />
</linearGradient>
<path style="fill:url(#LinearGradID_2943) " d="M61.25,37.2L61.5 37.75Q60.55 38.1 61.25 37.2M62.7,40.25L63 40.75L63.55 41.6L62.75 41.15L62.4 41L62.25 40.9L62.25 40.85L61.7 40.25L61.65 40.2L61.4 39.95L61.1 39.5L60.9 39.15Q60.85 39.05 61.55 38.1Q60.8 38.75 61.5 37.8L61.6 38.05L62.3 39.5L62.55 40L62.7 40.25M60.75,37.4L60.45 37.45L60.5 37.45L60.55 37.4L60.7 37.35L61.05 37.25L61.15 37.2L61.1 37.25L61.05 37.3L60.75 37.4" />
<linearGradient
id="LinearGradID_2944" gradientUnits="userSpaceOnUse" gradientTransform="matrix(-0.00184631, 0, -4.57764e-05, -0.000656128, 59.6, 37.75)" spreadMethod ="pad" x1="-819.2" y1="0" x2="819.2" y2="0" >
<stop  offset="0" style="stop-color:#26151A;stop-opacity:1" />
<stop  offset="0.47451" style="stop-color:#53383C;stop-opacity:1" />
<stop  offset="0.941176" style="stop-color:#1F1216;stop-opacity:1" />
</linearGradient>
<path style="fill:url(#LinearGradID_2944) " d="M58.85,37.65L59.1 37.65L59 37.7L58.85 37.75L59.1 37.75L60.45 37.45L60.75 37.4L61.05 37.3L60.9 37.4L60.1 37.95L59.3 38.25Q58.55 38.25 58.1 37.75L58.05 37.65L57.9 37.4L57.85 37.25L57.9 37.35L57.95 37.4L58.75 37.65L58.85 37.65" />
<linearGradient
id="LinearGradID_2945" gradientUnits="userSpaceOnUse" gradientTransform="matrix(-0.00190735, 0.000152588, -0.000167847, -0.00088501, 59.1, 39.35)" spreadMethod ="pad" x1="-819.2" y1="0" x2="819.2" y2="0" >
<stop  offset="0" style="stop-color:#402C2E;stop-opacity:1" />
<stop  offset="0.47451" style="stop-color:#705958;stop-opacity:1" />
<stop  offset="0.92549" style="stop-color:#40272A;stop-opacity:1" />
</linearGradient>
<path style="fill:url(#LinearGradID_2945) " d="M61.5,37.75L61.5 37.8Q60.8 38.75 61.55 38.1L60.2 39.5L60.15 39.55L59 40L59.4 39.85L59.7 39.6L59.25 39.7L58.85 39.7L58.3 39.7L58.1 39.6L57.7 39.5Q57.05 39.3 56.8 38.8L56.8 38.75L57.1 38.95L57.25 39.05L57.95 39.35L58.05 39.4L58.6 39.45Q60.25 39.45 60.45 39.05L60 39.15L59.65 39.15L60.3 38.85L61.2 38L61.3 37.95L61.5 37.75" />
<linearGradient
id="LinearGradID_2946" gradientUnits="userSpaceOnUse" gradientTransform="matrix(-0.00300598, -0.000701904, 0.000335693, -0.00152588, 59, 39.15)" spreadMethod ="pad" x1="-819.2" y1="0" x2="819.2" y2="0" >
<stop  offset="0" style="stop-color:#26151A;stop-opacity:1" />
<stop  offset="0.47451" style="stop-color:#53383C;stop-opacity:1" />
<stop  offset="0.941176" style="stop-color:#1F1216;stop-opacity:1" />
</linearGradient>
<path style="fill:url(#LinearGradID_2946) " d="M60.9,39.15L60.7 39.5L60.1 40L59.55 40.2L59.3 40.25L59 40.3L58.55 40.35L58.35 40.25L58.2 40.2Q57.5 39.95 56.85 39.5L56.3 39.15L57.25 39.65L57.35 39.65L57.2 39.5L56.8 39.2L56.2 38.55L55.75 37.45L55.7 37.4L55.75 37.1L55.8 37.4L56.35 38.35L56.8 38.75L56.8 38.8Q57.05 39.3 57.7 39.5L58.1 39.6L58.3 39.7L58.85 39.7L59.25 39.7L59.7 39.6L59.4 39.85L59 40L60.15 39.55L60.2 39.5L61.55 38.1Q60.85 39.05 60.9 39.15" />
<linearGradient
id="LinearGradID_2947" gradientUnits="userSpaceOnUse" gradientTransform="matrix(-0.00265503, -0.000152588, 0, -0.000991821, 59.1, 38.7)" spreadMethod ="pad" x1="-819.2" y1="0" x2="819.2" y2="0" >
<stop  offset="0" style="stop-color:#0A0407;stop-opacity:1" />
<stop  offset="0.564706" style="stop-color:#3C2D39;stop-opacity:1" />
<stop  offset="1" style="stop-color:#0D0509;stop-opacity:1" />
</linearGradient>
<path style="fill:url(#LinearGradID_2947) " d="M61.2,38L60.3 38.85L59.65 39.15L60 39.15L60.45 39.05Q60.25 39.45 58.6 39.45L58.05 39.4L57.95 39.35L57.25 39.05L57.1 38.95L56.8 38.75L56.6 38.1L56.6 37.7L56.7 38.05L57.05 38.45Q57.6 39.05 58.5 39.05L59.15 38.95L59.35 38.9L59.75 38.85L61.2 38" />
<path style="fill:#33252F;fill-opacity:1" d="M61.1,39.5L61.4 39.95L61.25 40.2L61.2 40.25L61.05 40.35L60.45 40.7L59.7 40.9L58.9 41L57.95 40.9L57 40.6L57.45 40.7L57.55 40.7L57.7 40.7L57.05 40.4L56.9 40.3L56.85 40.25L56.8 40.2L56.7 40.1L56.45 39.9L56.2 39.5L56.15 39.35L56.2 39.4L56.3 39.5L56.55 39.75L56.85 39.95L57.3 40.2L57.4 40.25L59.35 40.55L58.55 40.35L59 40.3L59.3 40.25L59.55 40.2L60.1 40L60.7 39.5L60.9 39.15L61.1 39.5" />
<linearGradient
id="LinearGradID_2948" gradientUnits="userSpaceOnUse" gradientTransform="matrix(-0.00178528, -0.000671387, 0.000518799, -0.001297, 58.55, 40.05)" spreadMethod ="pad" x1="-819.2" y1="0" x2="819.2" y2="0" >
<stop  offset="0" style="stop-color:#26151A;stop-opacity:1" />
<stop  offset="0.47451" style="stop-color:#53383C;stop-opacity:1" />
<stop  offset="0.941176" style="stop-color:#1F1216;stop-opacity:1" />
</linearGradient>
<path style="fill:url(#LinearGradID_2948) " d="M60.65,42.4L58.75 42.35L58.75 42.3L58.65 42.25L58.5 42.1L58.55 42.25L58.55 42.3L58.25 42.2L58.4 42.1L58.5 42.1L59 42.05L58.65 41.95L59.1 41.7L60.7 41.05L59.35 41.25L59.2 41.25L58.45 41.8L58.35 41.85L56.85 40.95L57.8 41.15L57.85 41.15L57.8 41.15L57.8 41.1L57 40.6L57 40.65L56.75 40.4L56.5 40L56.45 39.9L56.7 40.1L56.8 40.2L56.85 40.25L56.9 40.3L57.05 40.4L57.7 40.7L57.55 40.7L57.45 40.7L57 40.6L57.95 40.9L58.9 41L59.7 40.9L60.45 40.7L61.05 40.35L61.2 40.25L61.25 40.2L61.4 39.95L61.65 40.2L61.7 40.25L62.25 40.85L62.25 40.9L62.4 41L62.75 41.15L62.7 41.2L61.65 41.95L61.3 42.15L61.25 42.1L61.05 42.25L60.8 42.35L60.65 42.4M59.35,40.55L57.4 40.25L57.3 40.2L56.85 39.95L56.55 39.75L56.3 39.5L56.2 39.4L56.2 39.35L56.15 39.2Q57 40.15 58.3 40.35L58.55 40.35L59.35 40.55" />
<linearGradient
id="LinearGradID_2949" gradientUnits="userSpaceOnUse" gradientTransform="matrix(-0.00227356, -0.00476074, 0.00236511, -0.000762939, 80.05, 35)" spreadMethod ="pad" x1="-819.2" y1="0" x2="819.2" y2="0" >
<stop  offset="0" style="stop-color:#0A0407;stop-opacity:1" />
<stop  offset="0.564706" style="stop-color:#3C2D39;stop-opacity:1" />
<stop  offset="1" style="stop-color:#0D0509;stop-opacity:1" />
</linearGradient>
<path style="fill:url(#LinearGradID_2949) " d="M61.2,43.4L61.3 43.45L61.45 43.45L61.6 43.5L61.65 43.5L61.7 43.5L62.25 42.85L62.4 42.7L62.6 42.55L62.65 42.5L63.05 42.25L63.1 42.25L63.35 42.1Q63.5 41.95 63.6 41.9Q63.55 41.6 63.65 41.7L63.55 41.6L63 40.75L62.7 40.25L62.55 40L61.3 36.5L61.15 36.5L61.05 36.5L61.05 36.45L61.05 36.4L62 36.55Q62.55 39 63.9 40.8L64.1 43.9L64.05 43.95L64.25 44.8Q63.2 45.9 62.55 44.9L61.65 44.9L61.1 44.7L60.9 44.55Q60.5 44.25 60.4 43.7Q60.85 44.3 61.2 44.3Q60.8 43.95 60.7 43.25L61.2 43.4M60.65,42.9L60.65 42.45L60.8 42.4L60.9 42.8L60.65 42.9M58.25,42.2L58.1 42.15L58.15 42.1L58.4 42.1L58.25 42.2M58.65,41.95L58.35 41.85L58.45 41.8L59.2 41.25L59.35 41.25L60.7 41.05L59.1 41.7L58.65 41.95M63.8,44.2L63.45 44.55L63.3 44.6L62.55 44.9Q63.65 45.4 63.9 44.15L63.8 44.2" />
<linearGradient
id="LinearGradID_2950" gradientUnits="userSpaceOnUse" gradientTransform="matrix(-0.00135803, 0.00157166, -0.00172424, -0.0012207, 61.3, 41.35)" spreadMethod ="pad" x1="-819.2" y1="0" x2="819.2" y2="0" >
<stop  offset="0" style="stop-color:#26151A;stop-opacity:1" />
<stop  offset="0.47451" style="stop-color:#53383C;stop-opacity:1" />
<stop  offset="0.941176" style="stop-color:#1F1216;stop-opacity:1" />
</linearGradient>
<path style="fill:url(#LinearGradID_2950) " d="M60.9,42.8L61.45 43.45L61.3 43.45L61.2 43.4L60.7 43.25L60.65 42.9L60.9 42.8M60.65,42.45L60.65 42.4L60.8 42.35L61.05 42.25Q60.95 42.3 60.8 42.4L60.65 42.45M58.5,42.1L58.65 42.25L58.75 42.3L58.75 42.35L58.6 42.3L58.55 42.25L58.5 42.1M58.5,42.1L58.45 42.05L58.5 42.1M62.25,42.85L62.7 41.2L62.75 41.15L63.55 41.6L63.65 41.7Q63.55 41.6 63.6 41.9Q63.5 41.95 63.35 42.1L63.1 42.25L63.05 42.25L62.65 42.5L62.6 42.55L62.4 42.7L62.25 42.85M61.65,43.5L61.7 43.5L61.65 43.5" />
<path style="fill:#1E191A;fill-opacity:1" d="M61.05,36.5L61 36.5L61 36.4L61.05 36.4L61.05 36.45L61.05 36.5" />
</g>
</svg>
