<?xml version="1.0" encoding="utf-8"?>
<svg version="1.1" id="Layer_1"
xmlns="http://www.w3.org/2000/svg"
xmlns:xlink="http://www.w3.org/1999/xlink"
xmlns:author="http://www.sothink.com"
width="27px" height="29px"
xml:space="preserve">
<g id="8" transform="matrix(1, 0, 0, 1, -55.75, -14.9)">
<path style="fill:#1E1A1A;fill-opacity:1" d="M79.65,38.85L79.85 38.95L79.9 39L79.75 39.05L79.45 39L79.25 38.85L79.1 38.65L78.9 38.15L78.8 37.95L78.8 37.8L78.55 37.6L78.65 37.4L79.7 34.95L80.35 33.2L80.45 33.6L80.55 33.85L80.7 34.5L80.8 34.75L80.7 34.7L80.65 34.7L80.45 34.6L80.6 34.35L80.55 33.95L80.2 34.6L79.65 35.15L79.9 35.15L80.3 35.05L80.6 34.85L80.65 34.85L80.2 35.35L79.55 35.65L80.3 35.65L79.95 36L79.5 36.15L79.5 36.2L80.35 36.2L80.95 36L81.25 35.9L81.15 35.85L80.4 35.85L80.65 35.55L80.75 35.3L80.55 35.35L80.4 35.4L80.3 35.4L80.55 35.1L80.75 34.8L80.9 34.95L80.95 35L80.9 35.3L81 35.6L81.4 35.7L81.35 35.9L81.3 36L81.85 36.25L81.9 36.25L81.4 36.4L80.65 36.55L79.8 36.5L79.55 36.6L79.6 36.7L79.9 36.75L80.75 36.8L81.5 36.6L81.8 36.45L81.3 37.05Q80.75 37.6 80.2 37.6L79.7 37.5L79.45 37.4L79.35 37.45L79.35 37.5L79.55 37.7L80.25 37.85Q80.75 37.85 81.35 37.25Q81.95 36.75 81.95 36.45L81.95 36.4L81.9 36.4L81.9 36.3L82.3 36.15L82.35 36.1L82.35 36.2L82.2 36.6L82 37L81.75 37.35L81.7 37.35L81.7 37.4L81.65 37.5Q81.1 38.1 80.05 38L80.2 38.15L80.05 38.1L79.75 38L79.55 37.9L79.35 37.7L79.25 37.6L79.55 37.95L79.35 37.9L79.4 37.95L79.65 38.2L80.1 38.3L80.6 38.5L79.1 38L79.1 38.05L79.15 38.2L79.2 38.25L79.65 38.85M77.25,41.2L77.15 40.85L77.05 40.2L76.9 40.95L76.4 41.45L76.15 41.45L76.25 41.2L77.45 39.5L78.35 37.9L78.75 38.05L78.75 38.15L78.5 38.75L78.35 39.1L78.3 38.8L78.2 38.8L78.2 39L78.2 39.25L78.25 39.45L78 39.95L77.5 40.45L77.35 40.95L77.35 41L77.25 41.2M80.7,37.05L80.55 37.1L80.75 37.1L80.85 37L80.75 37.05L80.7 37.05M80.8,37.25L80.35 37.3L79.45 37.15L79.7 37.35L80.15 37.55L80.55 37.45L80.8 37.25" />
<linearGradient
id="LinearGradID_92" gradientUnits="userSpaceOnUse" gradientTransform="matrix(0.00372314, -0.00292969, 0.0506592, 0.0648346, 42.05, 17.3)" spreadMethod ="pad" x1="-819.2" y1="0" x2="819.2" y2="0" >
<stop  offset="0" style="stop-color:#332B2B;stop-opacity:1" />
<stop  offset="0.490196" style="stop-color:#3F3838;stop-opacity:1" />
<stop  offset="1" style="stop-color:#1C1717;stop-opacity:1" />
</linearGradient>
<path style="fill:url(#LinearGradID_92) " d="M79.55,38.25L79.1 38.05L79.1 38L80.6 38.5L80.9 38.55L80.6 38.55L79.55 38.25M80.35,33.2L80.05 32.2L80.1 32.2L80.35 32.8L80.4 32.95L80.6 33.55Q81 34.4 81.55 34.9Q80.9 34.55 80.55 33.85L80.45 33.6L80.35 33.2M80.75,34.8L80.6 34.75L80.45 34.65L80.25 34.5L80.45 34.6L80.65 34.7L80.7 34.7L80.8 34.75L81.5 35.05Q82 35.3 82 35.85L81.95 36.2L81.9 36.2Q81.85 35.7 81.25 35.15L80.9 34.95L80.75 34.8M78.5,37.7L78.15 37.35L78.2 37.35L78.55 37.6L78.8 37.8L78.8 37.95L78.5 37.7" />
<linearGradient
id="LinearGradID_93" gradientUnits="userSpaceOnUse" gradientTransform="matrix(0.00144958, 0, 0, 0.000335693, 80.7, 36.55)" spreadMethod ="pad" x1="-819.2" y1="0" x2="819.2" y2="0" >
<stop  offset="0" style="stop-color:#1C1919;stop-opacity:1" />
<stop  offset="0.6" style="stop-color:#4A4040;stop-opacity:1" />
<stop  offset="1" style="stop-color:#1C1919;stop-opacity:1" />
</linearGradient>
<path style="fill:url(#LinearGradID_93) " d="M81.9,36.4L81.85 36.35L81.8 36.45L81.5 36.6L80.75 36.8L79.9 36.75L79.6 36.7L79.55 36.6L79.8 36.5L80.65 36.55L81.4 36.4L81.9 36.25L81.9 36.3L81.9 36.4" />
<linearGradient
id="LinearGradID_94" gradientUnits="userSpaceOnUse" gradientTransform="matrix(0.00108337, 0, 0, 0.00137329, 80.35, 35.1)" spreadMethod ="pad" x1="-819.2" y1="0" x2="819.2" y2="0" >
<stop  offset="0" style="stop-color:#1C1919;stop-opacity:1" />
<stop  offset="0.6" style="stop-color:#4A4040;stop-opacity:1" />
<stop  offset="1" style="stop-color:#1C1919;stop-opacity:1" />
</linearGradient>
<path style="fill:url(#LinearGradID_94) " d="M80.25,34.5L80.45 34.65L80.25 34.85L80.3 34.85L80.5 34.75L80.6 34.75L80.75 34.8L80.55 35.1L80.3 35.4L80.4 35.4L80.55 35.35L80.75 35.3L80.65 35.55L80.4 35.85L81.15 35.85L81.25 35.9L80.95 36L80.35 36.2L79.5 36.2L79.5 36.15L79.95 36L80.3 35.65L79.55 35.65L80.2 35.35L80.65 34.85L80.6 34.85L80.3 35.05L79.9 35.15L79.65 35.15L80.2 34.6L80.55 33.95L80.6 34.35L80.45 34.6L80.25 34.5" />
<linearGradient
id="LinearGradID_95" gradientUnits="userSpaceOnUse" gradientTransform="matrix(0.00158691, 0, 0, 0.000900269, 80.65, 37.1)" spreadMethod ="pad" x1="-819.2" y1="0" x2="819.2" y2="0" >
<stop  offset="0" style="stop-color:#1C1919;stop-opacity:1" />
<stop  offset="0.6" style="stop-color:#4A4040;stop-opacity:1" />
<stop  offset="1" style="stop-color:#1C1919;stop-opacity:1" />
</linearGradient>
<path style="fill:url(#LinearGradID_95) " d="M81.8,36.45L81.85 36.35L81.9 36.4L81.95 36.4L81.95 36.45Q81.95 36.75 81.35 37.25Q80.75 37.85 80.25 37.85L79.55 37.7L79.35 37.5L79.35 37.45L79.45 37.4L79.7 37.5L80.2 37.6Q80.75 37.6 81.3 37.05L81.8 36.45" />
<linearGradient
id="LinearGradID_96" gradientUnits="userSpaceOnUse" gradientTransform="matrix(-0.00405884, 0, 0, -0.082489, 80.5, 71.5)" spreadMethod ="pad" x1="-819.2" y1="0" x2="819.2" y2="0" >
<stop  offset="0" style="stop-color:#514E4E;stop-opacity:1" />
<stop  offset="1" style="stop-color:#1C1919;stop-opacity:1" />
</linearGradient>
<path style="fill:url(#LinearGradID_96) " d="M79.65,38.2L79.4 37.95L79.35 37.9L79.55 37.95L79.75 38L80.1 38.15L80.2 38.15L80.9 38.1L81.7 37.55L81.7 37.4L81.7 37.35L81.75 37.35L81.8 37.35L81.8 37.45L81.85 37.4L81.4 38.25L80.85 38.35L80.1 38.3L79.65 38.2M79.9,38.55L80.1 38.8L81.35 38.3L81.15 38.55L80.2 39.05L80.25 39.05L80.2 39.1L80.15 39.05L80 39L79.9 39L79.85 38.95L79.65 38.85L79.95 38.8L79.7 38.6L79.3 38.3L79.2 38.25L79.15 38.2L79.1 38.05L79.55 38.25L79.9 38.55M80.5,39.6L80.6 40.1L80.3 41L80.5 40.1L80.4 39.6L80.3 39.3L80.25 39.25L80.2 39.15L80.3 39.1L80.4 39.3L80.5 39.6M79.4,40.35L80.2 40.45L80.05 40.6L79.85 40.65L79.4 40.6L79 40.45L78.55 40.05L78.55 40L78.25 39.55L78.25 39.45L78.2 39.25L78.2 39L78.2 38.8L78.3 38.8L78.35 39.1L78.4 39.25L78.55 39.75L78.65 39.9L79.05 40.2L79.4 40.35M78.2,37.85L78.25 37.85L78.25 37.8L78.4 37.85L78.8 37.95L78.9 38.15L78.75 38.05L78.35 37.9L78.2 37.85M78.85,38.9L78.8 38.8L78.7 38.65L78.95 38.75L79.25 38.85L79.45 39L78.85 38.9" />
<linearGradient
id="LinearGradID_97" gradientUnits="userSpaceOnUse" gradientTransform="matrix(0.00215149, 0.00126648, -0.00117493, 0.00205994, 79.15, 39.75)" spreadMethod ="pad" x1="-819.2" y1="0" x2="819.2" y2="0" >
<stop  offset="0" style="stop-color:#100F0F;stop-opacity:1" />
<stop  offset="1" style="stop-color:#584D4D;stop-opacity:1" />
</linearGradient>
<path style="fill:url(#LinearGradID_97) " d="M79.05,40.2L78.85 39.6L78.7 39.2L78.65 39.9L78.55 39.75L78.4 39.25L78.35 39.1L78.5 38.75L78.75 38.15L78.75 38.05L79.1 38.65L79.25 38.85L78.95 38.75L78.7 38.65L78.8 38.8L78.85 38.9L79.45 39L79.75 39.05L80.25 39.25L80.3 39.3L80.4 39.6L80.2 39.6L79.6 39.5L79.2 39.15L79.4 40.35L79.05 40.2M80.4,39.3L80.85 39.35L81.3 39.25L81.8 39.05L81.15 39.5L80.5 39.6L80.4 39.3M78.5,40.5L78.6 41.2L78.75 41.05L79 40.45L79.4 40.6L79.1 41.5L78.9 41.7L78.85 41.75L78 41.95L77.45 41.75L77.35 41.4L77.35 41.35L77.4 41.4L77.9 41.5L78.45 41.35L78.35 41.25L77.95 40.8L77.4 41.2L77.3 41.3L77.25 41.35L77.25 41.25L77.25 41.2L77.35 41L77.35 40.95L77.5 40.45L78 39.95L78.25 39.45L78.25 39.55L78.55 40L78.55 40.05L78.5 40.5" />
<path style="fill:#100F0F;fill-opacity:1" d="M79.55,38.25L80.6 38.55L80.2 38.6L79.9 38.55L79.55 38.25M78.35,37.9L77.45 39.5L76.25 41.2L76.5 40.05L76.45 40.05Q76.35 40.8 75.35 41.65L74.4 42.4L74.4 42.25L74.65 41.85L74.7 41.3L73.8 41.9L72.85 42.25L72.3 42.1L72 41.9L72.15 42.3Q72.3 42.55 72.6 42.55L72.65 42.55L72.85 42.45L72.75 42.55L72.65 42.55L72.2 42.7L71.55 42.8Q70.35 42.8 69.75 42.3L69.35 41.75L68.95 42.8L68.4 43.6L68.4 43.55L68.5 43.35L68.55 43.15L67.65 42.55L66.5 41.75L66.75 42.3L67.2 42.6L66.8 42.6L66.35 42.65L65.5 42.4L64.9 42.1L64.65 41.7L64.65 42.05L64.55 42.45L64.15 42L63.75 41.55Q63.35 41 63.35 40.4L63.3 40.4L63.2 40.95L63.2 41.4L62.9 41L62.6 40.65L62.5 40.55L62.15 41.4Q61.95 41.6 61.5 41.6L61.45 41.5L61.7 41.2L62 40.95L62.25 40.65L62.3 40.55L62.5 40.55L62.5 40.45L62.45 40.35L62.4 40.35L62.3 40.55L62.3 40.5L62.4 40.2L62.15 39.9L61.9 39.55L61.7 38.7L61.55 38.75L61.7 39.3L61.7 39.6L61.55 39.8L61.45 39.95L61.45 39.85L61.6 39L61.5 39L61.15 39.15L60.85 39.25L61.2 38.65L61.2 38.35L61.1 38.25L61 38.25L60.6 38.5L60.45 38.5L60.6 38.1L60.8 37.7Q60.85 36.95 60.6 37L60.35 37.15L59.95 37.35L60.3 36.85L60.5 36.5L60.5 36.45L60 36.75L59.5 36.95L59.85 36.45L60.2 35.85L59.1 36.1L58.9 36.15L59.4 35.5L59.15 33.9L59.1 33.25Q59 32.65 58.55 32.2L58.5 32.25L58.85 33.1L58.2 31.6L58.15 31.6L58.15 31.55L58.05 31.4L58.1 30.9L58.05 30.9L57.95 31.3L57.95 31.25L57.9 31.25L57.8 31.05L57.6 30.4L57.55 30.4L57.55 31.6L57.65 32.15L57.75 32.55L57.6 32.4L57.55 32.2L57.5 33.1L57.4 32.65L57.35 32.65L57.25 33.15L57.25 32.55L57.05 33.4L56.95 34L56.9 32.9Q56.8 32.9 56.75 33L56.85 32.1L56.9 31.45L56.9 31.35L56.9 31.2L56.85 30.55L56.85 30.15L56.75 28.9L56.7 28.95L56.7 29.9L56.75 30.05L56.6 29.75L56.45 28.85L56.45 28.75L56.35 27.9L56.35 27.5Q56.35 26.45 56.85 25.05L58.35 21.45Q59.2 19.65 60.55 18.15Q61.9 16.6 63.85 15.9L67.6 15L70 14.95L73.35 15.5Q74.6 15.9 76.55 16.95Q78.45 18.05 79.5 19.9Q80.5 21.75 80.8 23.65Q81.1 25.65 81 27.65L80.35 31.15L80.35 31.2L80.35 31.3L80.35 31.6L80.3 31.9L80.3 31.95L80.35 32.8L80.1 32.2L80.05 32.2L80.35 33.2L79.7 34.95L78.65 37.4L78.55 37.6L78.2 37.35L78.15 37.35L78.5 37.7L78.8 37.95L78.4 37.85L78.25 37.8L78.25 37.85L78.2 37.85L78.35 37.9M61.3,41.35L61.3 41.45L61.2 41.6Q60.8 41.55 60.55 41.3Q60.15 41.05 60.25 40.55L60.6 40.2L61.3 39.4L61.25 39.6L61.2 40.5L61.2 40.7L60.85 40.95L60.7 40.9L60.75 40.9L60.95 40.7L60.95 40.3L60.75 40.5L60.65 40.8L60.7 40.9L60.8 41.1Q60.95 41.3 61.15 41.3L61.3 41.3L61.3 41.35M80.6,34.75L80.5 34.75L80.3 34.85L80.25 34.85L80.45 34.65L80.6 34.75" />
<linearGradient
id="LinearGradID_98" gradientUnits="userSpaceOnUse" gradientTransform="matrix(0.00372314, -0.00292969, 0.0506592, 0.0648346, 42.05, 17.3)" spreadMethod ="pad" x1="-819.2" y1="0" x2="819.2" y2="0" >
<stop  offset="0" style="stop-color:#332B2B;stop-opacity:1" />
<stop  offset="0.490196" style="stop-color:#584E4E;stop-opacity:1" />
<stop  offset="1" style="stop-color:#1C1717;stop-opacity:1" />
</linearGradient>
<path style="fill:url(#LinearGradID_98) " d="M56.75,31.95L56.7 32.1Q56.4 32.85 55.75 33Q56.3 32.65 56.55 31.7L56.75 30.65L56.75 30.05L56.7 29.9L56.7 28.95L56.75 28.9L56.85 30.15L56.85 30.55L56.9 31.2L56.9 31.35L56.9 31.45L56.75 31.9L56.75 31.95" />
<linearGradient
id="LinearGradID_99" gradientUnits="userSpaceOnUse" gradientTransform="matrix(0.000946045, 0.0035553, -0.00152588, 0.000411987, 57.75, 33.4)" spreadMethod ="pad" x1="-819.2" y1="0" x2="819.2" y2="0" >
<stop  offset="0" style="stop-color:#100F0F;stop-opacity:1" />
<stop  offset="1" style="stop-color:#584D4D;stop-opacity:1" />
</linearGradient>
<path style="fill:url(#LinearGradID_99) " d="M57.5,33.1L57.55 32.2L57.6 32.4L57.75 32.55L57.65 32.15L57.55 31.6L57.55 30.4L57.6 30.4L57.8 31.05L57.9 31.25L57.85 31.25L57.8 31.8L58.05 32.75L58.15 33.05L57.95 32.95L57.8 32.75L57.8 33L58.2 34L58.8 35.1Q58.35 34.8 58.05 34.05L57.65 33.25L57.65 33.55L57.5 33.1M56.6,33.5L56.7 32.25L56.75 31.95L56.75 31.9L56.9 31.45L56.85 32.1L56.75 33Q56.6 33.2 56.6 33.5M56.75,30.65L56.6 29.75L56.75 30.05L56.75 30.65M58.1,31.6L58.1 31.95L58.05 31.7L58.05 31.4L58.15 31.55L58.15 31.6L58.1 31.6" />
<path style="fill:#383030;fill-opacity:1" d="M58.1,31.95L58.25 32.45L58.6 33.6L59 34.35L59 34.2L58.9 33.3L58.85 33.1L58.5 32.25L58.55 32.2Q59 32.65 59.1 33.25L59.15 33.9L59.15 34.25L59 35.3L58.1 36.25L58.8 35.25L58.95 34.45Q58.5 34.1 58.2 33.25L58.15 33.05L58.05 32.75L57.8 31.8L57.85 31.25L57.9 31.25L57.95 31.25L57.95 31.3L58.05 30.9L58.1 30.9L58.05 31.4L58.05 31.7L58.1 31.95" />
<path style="fill:#3A3030;fill-opacity:1" d="M56.75,33Q56.8 32.9 56.9 32.9L56.95 34L56.95 34.55L56.95 34.65Q57.05 35.55 57.55 36.2Q56.65 35.65 56.65 34.45L56.6 33.75L56.6 33.6L56.6 33.5Q56.6 33.2 56.75 33" />
<linearGradient
id="LinearGradID_100" gradientUnits="userSpaceOnUse" gradientTransform="matrix(0.000946045, 0.0035553, -0.00152588, 0.000411987, 57.75, 33.4)" spreadMethod ="pad" x1="-819.2" y1="0" x2="819.2" y2="0" >
<stop  offset="0" style="stop-color:#100F0F;stop-opacity:1" />
<stop  offset="1" style="stop-color:#776A6A;stop-opacity:1" />
</linearGradient>
<path style="fill:url(#LinearGradID_100) " d="M57.25,33.5L57.65 34.45L57.6 34.45L57.4 34.3L57.25 34.2Q57.25 34.55 57.55 34.9L58.25 35.55Q57.65 35.55 57.15 34.9L56.95 34.65L56.95 34.55L56.95 34L57.05 33.4L57.25 32.55L57.25 33.15L57.25 33.5" />
<path style="fill:#252020;fill-opacity:1" d="M57.65,33.55L58.25 35.4L58.25 35.5L57.7 34.45L57.65 34.45L57.25 33.5L57.25 33.15L57.35 32.65L57.4 32.65L57.5 33.1L57.65 33.55" />
<linearGradient
id="LinearGradID_101" gradientUnits="userSpaceOnUse" gradientTransform="matrix(0, 0, 0, 0, 0, 0)" spreadMethod ="pad" x1="-819.2" y1="0" x2="819.2" y2="0" >
<stop  offset="0" style="stop-color:#332B2B;stop-opacity:1" />
<stop  offset="0.490196" style="stop-color:#4F4545;stop-opacity:1" />
<stop  offset="1" style="stop-color:#1C1717;stop-opacity:1" />
</linearGradient>
<path style="fill:url(#LinearGradID_101) " d="M61.7,41.2L61.45 41.5L61.5 41.6L61.85 42.25L61.75 42.35L61.35 41.6L60.6 42.3L61.2 41.6L61.3 41.45L61.3 41.35L61.3 41.3L61.2 40.7L61.2 40.5L61.25 39.6L61.3 39.4L61.5 39L61.6 39L61.45 39.85L61.45 39.95L61.4 40.5L61.45 41.3L61.6 40.95L61.7 39.85L61.7 39.6L61.7 39.3L61.55 38.75L61.7 38.7L61.9 39.55L61.95 40.75L61.7 41.2M59.85,39L59.6 39.5L59.75 39.8L59.7 39.85L59.5 39.6L59.5 39.45L59.45 39.35L59.4 39.1L59.5 38.85L59.6 38.3L59.65 38.2L59.7 38.1L59.25 38.4L59.05 38.65L58.75 39.35L58.8 38.5L58.9 38.35Q59.3 37.85 59.85 37.8L60.1 37.45L60.15 37.5L60.15 37.65L60.1 37.75L60.25 37.8L60.3 37.8L60.4 37.75L60.5 37.85L60.35 38.1L59.85 39M57.35,37.55L58.5 37.45L58.95 37.25L59.1 37.25L58.7 37.55L57.65 37.8L57.55 37.8L56.9 37.35L57.3 37.55L57.35 37.55M58.75,37.15L57.3 36.95L57.25 36.95L57.35 36.95L57.5 37L58.8 36.9L59.2 36.75L59.4 36.55L59.5 36.45L59.55 36.5L59.6 36.65L59.15 37L58.75 37.15M60.2,37.9L59.9 38L59.75 38.25L59.7 38.3L59.55 38.75L59.8 38.35L59.95 38.15L60.2 37.9" />
<linearGradient
id="LinearGradID_102" gradientUnits="userSpaceOnUse" gradientTransform="matrix(-0.00213623, 0.000823975, -0.000991821, -0.00265503, 59.25, 38.1)" spreadMethod ="pad" x1="-819.2" y1="0" x2="819.2" y2="0" >
<stop  offset="0" style="stop-color:#100F0F;stop-opacity:1" />
<stop  offset="0.470588" style="stop-color:#382F2F;stop-opacity:1" />
<stop  offset="1" style="stop-color:#100F0F;stop-opacity:1" />
<stop  offset="1" style="stop-color:#2E2828;stop-opacity:1" />
<stop  offset="1" style="stop-color:#1E1B1B;stop-opacity:1" />
</linearGradient>
<path style="fill:url(#LinearGradID_102) " d="M61.3,39.4L60.6 40.2L60.25 40.55L60.25 40.4L60.15 40.5L60 40.55L59.95 40.55L60.15 40L60.55 39.05Q59.85 39.65 59.75 40.5L59.45 40.3L59.2 39.65L59.25 39.2L59.35 38.9Q59.3 39.9 59.5 40.05L59.5 39.6L59.7 39.85L59.75 39.8L59.6 39.5L59.85 39L59.95 38.9L60.35 38.1L60.5 37.85L60.4 37.75L60.3 37.8L60.25 37.8L60.1 37.75L60.15 37.65L60.15 37.5L60.1 37.45L59.85 37.8Q59.3 37.85 58.9 38.35L58.8 38.5L58.45 38.45L57.8 37.9L57.55 37.8L57.65 37.8L58.7 37.55L59.1 37.25L58.95 37.25L59 37.1L58.75 37.15L59.15 37L59.6 36.65L59.55 36.5L59.5 36.45L59.4 36.55L59.2 36.75L58.8 36.9L59.05 36.65L59.25 36.45L58.95 36.6L58.55 36.65L58.05 36.6L58 36.6L58.4 36.45L58.9 36.15L59.1 36.1L60.2 35.85L59.85 36.45L59.5 36.95L60 36.75L60.5 36.45L60.5 36.5L60.3 36.85L59.95 37.35L60.35 37.15L60.6 37Q60.85 36.95 60.8 37.7L60.6 38.1L60.45 38.5L60.6 38.5L61 38.25L61.1 38.25L61.2 38.35L61.2 38.65L60.85 39.25L61.15 39.15L61.5 39L61.3 39.4M58.75,37.9L57.8 37.9L59.05 38.05L59.6 37.75L59.45 37.75L58.75 37.9" />
<linearGradient
id="LinearGradID_103" gradientUnits="userSpaceOnUse" gradientTransform="matrix(-0.00177002, 0.0010376, -0.00140381, -0.00247192, 59.15, 38.15)" spreadMethod ="pad" x1="-819.2" y1="0" x2="819.2" y2="0" >
<stop  offset="0" style="stop-color:#100F0F;stop-opacity:1" />
<stop  offset="0.470588" style="stop-color:#272121;stop-opacity:1" />
<stop  offset="1" style="stop-color:#201C1C;stop-opacity:1" />
</linearGradient>
<path style="fill:url(#LinearGradID_103) " d="M59.7,38.1L59.65 38.2L59.6 38.3L59.25 38.4L59.7 38.1M57.3,37.55L56.9 37.35L57.35 37.55L57.3 37.55M59.95,38.15L59.75 38.25L59.9 38L60.2 37.9L59.95 38.15" />
<linearGradient
id="LinearGradID_104" gradientUnits="userSpaceOnUse" gradientTransform="matrix(0.00372314, -0.00292969, 0.0506592, 0.0648346, 42.05, 17.3)" spreadMethod ="pad" x1="-819.2" y1="0" x2="819.2" y2="0" >
<stop  offset="0" style="stop-color:#332B2B;stop-opacity:1" />
<stop  offset="0.490196" style="stop-color:#4F4545;stop-opacity:1" />
<stop  offset="1" style="stop-color:#1C1717;stop-opacity:1" />
</linearGradient>
<path style="fill:url(#LinearGradID_104) " d="M59.95,40.55L59.9 41.05L60.15 41.9L60.15 41.95L59.75 41.5L59.7 40.9L59.75 40.5Q59.85 39.65 60.55 39.05L60.15 40L59.95 40.55" />
<path style="fill:#1D191A;fill-opacity:1" d="M62.3,40.55L62.4 40.35L62.45 40.35L62.5 40.45L62.5 40.55L62.3 40.55" />
<linearGradient
id="LinearGradID_105" gradientUnits="userSpaceOnUse" gradientTransform="matrix(0, 0, 0, 0, 47.3, 6.75)" spreadMethod ="pad" x1="-819.2" y1="0" x2="819.2" y2="0" >
<stop  offset="0" style="stop-color:#3F3838;stop-opacity:0.478431" />
<stop  offset="1" style="stop-color:#1C1919;stop-opacity:1" />
</linearGradient>
<path style="fill:url(#LinearGradID_105) " d="M79.3,38.3L79.7 38.6L79.35 38.45L79.3 38.3" />
</g>
</svg>
