<svg xmlns="http://www.w3.org/2000/svg" width="29" height="32"><g transform="translate(-56.7 -20.6)"><linearGradient id="a" gradientUnits="userSpaceOnUse" gradientTransform="matrix(.00465 .00446 -.01067 .0129 78.9 30.4)" x1="-819.2" x2="819.2"><stop offset="0" stop-color="#32120b"/><stop offset=".502" stop-color="#5e2c18"/><stop offset=".988" stop-color="#471e11"/></linearGradient><path d="M83.05 44.2l.35-1.4-1.85 3.65.4-.95-2.3 3.2-1.2 1.4.35-.7-1.1 1.05.95-1.3-1.25 1.4.9-1.3-.9 1.05.55-1-.6.75.55-.9-.6.65.45-.75-.85 1 .45-.85.6-.7 1.75-3.2-.9 2.3 1.6-3.4-.6 1.95 1.55-2.45-.8 2.15 1.1-1.95q-.85 2.5-2.1 4.4l1.95-2.7q1.35-2.55 2.15-5.55l.05-.2.3-1.1.1-.25-.5 3.2.75-3.6-.3 3.2.3-1.45.2-.75.05-.3.1-.25.2-1.55H85.2l-.15 1.55-.1.25-.25 1.1v.1l-1.65 4.2M79 47.55l-1.1 1.3.6-.3-.5.85.85-.95-.55 1 .9-1.1q.9-1.05 1.3-2.5l-.5.65.55-1.25-1.9 3.05.35-.75" fill="url(#a)"/><linearGradient id="b" gradientUnits="userSpaceOnUse" gradientTransform="matrix(.00655 .00925 -.00798 .00656 83.05 31.4)" x1="-819.2" x2="819.2"><stop offset="0" stop-color="#5d2e1c"/><stop offset=".38" stop-color="#ad645a"/><stop offset="1" stop-color="#38160b"/></linearGradient><path d="M84.7 38.55l-.1.25-.05.3-.2.75-.3 1.45.3-3.2-.75 3.6.5-3.2v-.1l.2-1.4h.6l-.2 1.55" fill="url(#b)"/><linearGradient id="c" gradientUnits="userSpaceOnUse" gradientTransform="matrix(.00175 .00867 -.01248 .0029 80.55 37.5)" x1="-819.2" x2="819.2"><stop offset="0" stop-color="#36140d"/><stop offset=".502" stop-color="#1e0802"/><stop offset="1" stop-color="#34130c"/></linearGradient><path d="M84.7 40l-1.3 4.05-.8 1.5.25-.75-1.45 2.45.2-.6L80 48.9l.3-.55-1.1 1.2.45-.85 2.3-3.2-.4.95 1.85-3.65-.35 1.4L84.7 40m-4.45-3h4.05l-.2 1.4v.1l-.1.25-.3 1.1-.05.2q-.8 3-2.15 5.55l-1.95 2.7q1.25-1.9 2.1-4.4l-1.1 1.95.8-2.15-1.55 2.45.6-1.95-1.6 3.4.9-2.3-1.75 3.2-.6.7.25-.45-.5.6.4-.8-.75 1 .65-1.1-.6.5.45-.75.05-.1v.05l1.45-2.3-.85 1.8 1.4-2.6v.1l-.3 1.3.9-2.2-.1.5.45-.8-.3 1.1.5-1.2-.2.05h-.05l.6-.7.2-.25.5-.45.7-1.05.65-1.55.05-1.2v-.3l-.05-.3-.05-.25-.5-.45-.05.05h-.4l-.35.05-.1-.1.3-.25h-1.4l-.05-.15" fill="url(#c)"/><linearGradient id="d" gradientUnits="userSpaceOnUse" gradientTransform="matrix(.00153 -.0015 .00218 .0026 80.55 37.25)" x1="-819.2" x2="819.2"><stop offset="0" stop-color="#5e3a2f"/><stop offset="1" stop-color="#200902"/></linearGradient><path d="M81.85 37.95l-.15.45-.3.8-.25.1-.1.1-.3.15-.25.25v-.05l.05-.15.1-.25v-.05l-.3.15-.15.1h-.15l.15-.2.05-.15.1-.1h-.15l-.05-.05.1-.15.1-.05-.1-.2-.1-.25h.05l.15.05-.25-.7v-.05l.3.15h.05l-.15-.2-.1-.2h.15l-.1-.2-.05-.1h1.05V37.45l.05.15.05.05h.35l-.05.1-.25.25-.15.2-.15.1h.15l.4-.25.2-.1" fill="url(#d)"/><linearGradient id="e" gradientUnits="userSpaceOnUse" gradientTransform="matrix(.00175 .00867 -.01248 .0029 80.8 38.55)" x1="-819.2" x2="819.2"><stop offset="0" stop-color="#36140d"/><stop offset=".502" stop-color="#1e0802"/><stop offset="1" stop-color="#34130c"/></linearGradient><path d="M81.25 37.15h.45l-.3.25.1.1.1.15h-.25l-.05-.05-.05-.15V37.15m.4.9l-.4.25h-.15l.15-.1.15-.2.25-.25.2.2-.2.1" fill="url(#e)"/><linearGradient id="f" gradientUnits="userSpaceOnUse" gradientTransform="matrix(.00145 .01837 -.01744 .00137 70.6 45.2)" x1="-819.2" x2="819.2"><stop offset="0" stop-color="#230a04"/><stop offset=".957" stop-color="#98564a"/></linearGradient><path d="M84.9 37H79.9v.3l-.05.05.1.3.05.1-.05.05V38.1l.05.15-.05.2.1.4.1.2.05.05h.15l-.1.1-.05.15-.15.2h.15l.15-.1.3-.15v.05l-.1.25-.05.15v.05l.25-.25.3-.15.1-.1.25-.1.3-.8.15-.45-.2-.2.05-.1h-.1l-.1-.15.35-.05h.4l.05-.05.5.45.05.25.05.3v.3l-.05 1.2-.65 1.55-.7 1.05-.5.45-.2.25-.6.7-.1.05-.2.15-.3.05h-.45l-.35.1q-.45 1.65-2.45 4.05l-1.5 1.05q-2.65 2.3-4.15 2.3l-.6-.05q-1.35-.15-3-1l-1.2-.75.2.05q-1.9-.95-5-4.3L58.6 42q-1.9-2.9-1.9-7.75 0-6 4.8-9.95 4.5-3.7 10.6-3.7 6.9 0 10.65 5.55Q85.9 30.8 85.1 37h-.2m-4.85.7h.05v.05l-.05-.05" fill="url(#f)"/><linearGradient id="g" gradientUnits="userSpaceOnUse" gradientTransform="matrix(.00336 .00018 -.00024 .0054 77.6 33.4)" x1="-819.2" x2="819.2"><stop offset="0" stop-color="#ba654a" stop-opacity=".753"/><stop offset="1" stop-color="#421b0f" stop-opacity=".8"/></linearGradient><path d="M80.3 37.15h-.25v.05l-.1.05-.05.05V37h.35l.05.15" fill="url(#g)"/><linearGradient id="h" gradientUnits="userSpaceOnUse" gradientTransform="matrix(.00336 .00018 -.00024 .0054 77.85 34.45)" x1="-819.2" x2="819.2"><stop offset="0" stop-color="#ba654a" stop-opacity=".753"/><stop offset="1" stop-color="#421b0f" stop-opacity=".8"/></linearGradient><path d="M80.1 37.75l.25.7-.15-.05h-.05l.1.25.1.2-.1.05-.1.15-.1-.2-.1-.4.05-.2-.05-.15V37.8l.05-.05-.05-.1-.1-.3.05-.05.05-.05.1-.05v-.05h.15l.05.1.1.2h-.15l.1.2.15.2h-.05l-.3-.15h-.05l.05.05" fill="url(#h)"/><path d="M80.25 43.9l.2-.05-.5 1.2.3-1.1-.45.8.1-.5-.9 2.2.3-1.3v-.1l-1.4 2.6.85-1.8-1.45 2.3v-.05l-.05.1-1.35.6.45-.5q2-2.4 2.45-4.05l.35-.1h.45l.3-.05.2-.15.1-.05h.05" fill="#140604"/><linearGradient id="i" gradientUnits="userSpaceOnUse" gradientTransform="matrix(-.00311 .00302 -.00179 -.00212 79.35 47.45)" x1="-819.2" x2="819.2"><stop offset="0" stop-color="#5d2e1c"/><stop offset=".365" stop-color="#804537"/><stop offset="1" stop-color="#38160b"/></linearGradient><path d="M78.65 48.3l1.9-3.05L80 46.5l.5-.65q-.4 1.45-1.3 2.5l-.9 1.1.55-1-.85.95.5-.85-.6.3 1.1-1.3-.35.75" fill="url(#i)"/></g></svg>