<svg xmlns="http://www.w3.org/2000/svg" width="27" height="26"><g transform="translate(-54.7 -22.05)"><linearGradient id="a" gradientUnits="userSpaceOnUse" gradientTransform="matrix(.00192 .00035 -.00024 .00179 58.95 43.25)" x1="-819.2" x2="819.2"><stop offset="0"/><stop offset=".51" stop-color="#312d3b"/><stop offset="1" stop-color="#1b1428"/><stop offset="1" stop-color="#1d172a"/></linearGradient><path d="M59.75 25.3q9.45-5.45 14.95-1.7 2.2 1.3 4.8 3.35 4.55 7.95-2.15 17.75l-.1.15q-10.5 4.85-18.4.15-.8-.15-1.25-.5l.1-.25-.15-.1Q51 35.7 59.5 25.35l.25-.05M57.7 42.9l.5.6.2.2.35.35.15.05v.05h-1 .1l.75.15h1.2v-.05l-.55-.35-.35-.2.5.2.35.1h.15l-.8-.65.4.15.35.15.15.05.15-.4.05-.2-.55-.3-.3-.15-.85-.7.3.4.25.35.25.3-.35-.25-.25-.1-.75-.6.15.35.3.55.05.05v.1l-.2-.15-.45-.35.3.35.05.15.2.3.15.2-.25-.2-.35-.25-.35-.25" fill="url(#a)"/><linearGradient id="b" gradientUnits="userSpaceOnUse" gradientTransform="matrix(.00148 .00066 -.00056 .00127 59 43.15)" x1="-819.2" x2="819.2"><stop offset="0" stop-color="#150d22"/><stop offset=".494" stop-color="#3f3b4c"/><stop offset="1" stop-color="#1b1428"/></linearGradient><path d="M58.05 43.15l.35.25.25.2-.15-.2-.2-.3-.05-.15-.3-.35.45.35.2.15V43l-.05-.05-.3-.55-.15-.35.75.6.25.1.35.25-.25-.3-.25-.35-.3-.4.85.7.3.15.55.3-.05.2-.15.4-.15-.05-.35-.15-.4-.15.8.65h-.15l-.35-.1-.5-.2.35.2.55.35v.05h-1.2l-.75-.15h-.1 1v-.05l-.15-.05-.35-.35-.2-.2-.5-.6.35.25" fill="url(#b)"/></g></svg>