<svg xmlns="http://www.w3.org/2000/svg" width="28" height="28"><g transform="translate(-59.7 -21.1)"><linearGradient id="a" gradientUnits="userSpaceOnUse" gradientTransform="matrix(.0037 0 0 .0055 81.45 41.55)" x1="-819.2" x2="819.2"><stop offset="0" stop-color="#1d0e05"/><stop offset="1" stop-color="#4d3828"/></linearGradient><path d="M81.05 45.8v.05l-1.35.65v.05q-2.9 1.5-5.8 1.5l-.15-.15Q60.05 46.5 59.7 36v-.4q.15-6.4 3.4-10.55 3.1-3.95 7.45-3.95 4.25 0 7.55 2.8 2.35 2 4 5.2l1.65 4.4-.85.55-.3.1h.35l.8-.3.05.1-.7.4-.7.15h.8l.8-.2.05.25-.55.4-.8.3h-.05l-.2.4-.15.2-.05.05v.05l-.55.7.15-.1.35-.25.05-.05.55-.45.1-.05.2-.25.25-.2-.15.3-.05.1-.05.05-.1.2-.5.7-.2.2-.25.25-.05.05.05.05h.05l.2-.15.35-.2.05-.05.4-.3.05-.05.6-.5.05.05-.25.4-.3.3h.4v.05l-.2.2V37h.2v.1l.6-.05-.2.15-.3.1-.1.05-.15.05-.25.15h.25l.15-.05.8-.2.1-.05v.05l-.5.4-.3.1.65-.1.15-.1-.05.1q-.2.45-.8.65l-.05.05h-.05l.05.05h.1l.45-.15-.25.5-.05.05-.25.3-.1.1h.1l.3-.15.15-.1-.1.25-.35.5-.15.2.45-.25-.3.5-.35.35-.1.1-.45.25.75-.15-.1.1-.2.15-.5.3-.45.2 1.35-.35-.05.05-.35.25-.35.25-.15.1-.45.2-1.3.55-.1.05h.1l1.25-.2-1.2.55 1.7-.55-.5.35-1.4.8 1.35-.3h.1l-.05.05h-.05l-1.25.65-.4.15-.3.05-.6.1h.8l.65-.05.35-.1-.3.2-.8.35h-.05l-.85.25-.15.05.15.05h.75l.15-.05.45-.25-.4.4-.35.2-.55.35-.45.15-.05.05-.65.2-.05.55.9-.15.25-.05h.1l.15-.05.85-.4.6-.35v.1l-.05.1" fill="url(#a)"/><linearGradient id="b" gradientUnits="userSpaceOnUse" gradientTransform="matrix(.00273 -.0017 .00154 .00264 83.6 34.6)" x1="-819.2" x2="819.2"><stop offset="0" stop-color="#7e5c41"/><stop offset=".471" stop-color="#6c492b"/><stop offset="1" stop-color="#977b5c"/></linearGradient><path d="M83.5 37.55h-.25l.25-.15.15-.05.1-.05.3-.1.2-.15.15-.1-.15-.05-.6.1h-.2v-.05l.2-.2.1-.1-.1.05h-.4l.3-.3.25-.4v-.05h-.05l-.6.5-.05.05-.4.3-.05.05-.35.2-.2.15h-.05l-.05-.05.05-.05.25-.25.2-.2.5-.7.1-.2.05-.05.05-.1.15-.3-.25.2-.2.25-.1.05-.55.45-.05.05-.35.25-.15.1.55-.7v-.05l.05-.05.15-.2.2-.4h.05l.8-.3.55-.4.1-.05.1-.15.1-.1.25-.2.1-.1h-.05l-.1.05-.15.1-.1.05-.05.05h-.05l-.1.05-.1.05-.8.2h-.8l.7-.15.7-.4.05-.1.05-.1-.05.05-.1.05-.8.3h-.35l.3-.1.85-.55.1-.15.05-.05.05-.05.05-.05h.1v-.05h.05l.6-.5v-.05l.05-.05.1-.2v-.05l.05-.15.05.15-.05.15-.1.15-.05.15-.5.75-.05.05-.1.2-.15.2-.05.1L84 34l.15-.1h.05l.15-.2.1-.05.5-.5.2-.25.1-.05.05-.05-.05.1v.1l-.25.35-.05.1-.35.45.5-.35.35-.3.25-.3-.2.45-.25.5-.35.4-.1.05-.25.25-.05.05h.05l.3-.2.1-.05.3-.35.05-.05.3-.45.1-.15v.35l-.2.7-.25.35-.1.1-.3.25-.25.2-.25.15-.25.15h.25l.05-.05.25-.1.3-.15.35-.2.15-.05.2-.15v.1l-.15.15-.1.15-.25.3-.3.25-.2.15-.15.1-.2.15-.15.1-.15.1h-.05l.15.05.35-.05.15-.05.15-.05.1-.05.2-.1.35-.1h.05l-.25.25-.05.05-.35.3-.05.05-.05.05-.3.2.2.05h-.25l-.1.05-.2.05-.15.1-.25.2-.15.05" fill="url(#b)"/><linearGradient id="c" gradientUnits="userSpaceOnUse" gradientTransform="matrix(.00342 0 0 .00269 81.6 38.15)" x1="-819.2" x2="819.2"><stop offset="0" stop-color="#996b50"/><stop offset=".565" stop-color="#aa856a"/><stop offset="1" stop-color="#836a52"/></linearGradient><path d="M83.65 36.7l.1-.05-.1.1v-.05m0 .3l.6-.1.15.05-.15.1-.6.05V37" fill="url(#c)"/><linearGradient id="d" gradientUnits="userSpaceOnUse" gradientTransform="matrix(.00337 0 0 .00331 81 43.85)" x1="-819.2" x2="819.2"><stop offset="0" stop-color="#61412c"/><stop offset="1" stop-color="#7f5d44"/></linearGradient><path d="M83.7 41.7l-.05.15-.45 1.2-.15.25-1 1.35-.4.5-.55.55v-.1l-.6.35-.85.4-.15.05h-.1l-.25.05-.9.15.05-.55.65-.2.05-.05.45-.15.55-.35.35-.2.4-.4-.45.25-.15.05h-.75l-.15-.05.15-.05.85-.25h.05l.8-.35.3-.2-.35.1-.65.05h-.8l.6-.1.3-.05.4-.15 1.25-.65h.05l.05-.05h-.1l-1.35.3 1.4-.8.5-.35-1.7.55 1.2-.55-1.25.2h-.1l.1-.05 1.3-.55.45-.2.15-.1.35-.25.35-.25.05-.05h.05l.1.35v.15l-.05.05m-1.95 1.6l.9-.3-.5.65-.65.3.35.25-.5.45-.95.7-.6.35-.35.25-.3.15-.1.05-.15.1.2-.05h.15l.2-.05.25-.1.75-.3.8-.6.1-.05.2-.15.55-.6.8-1.05.3-.55.45-1.05v-.15l-.45.35.4-.55-.9.6.1.45-.1.15-.5.5-.45.25" fill="url(#d)"/><linearGradient id="e" gradientUnits="userSpaceOnUse" gradientTransform="matrix(.00407 0 0 .00471 81.1 44.35)" x1="-819.2" x2="819.2"><stop offset="0" stop-color="#5e3f2b"/><stop offset="1" stop-color="#68452d"/></linearGradient><path d="M81.9 46l.05-.35q-.35.85-.85 1.1.45-.45.55-1.25l-.15.3-.85 1.05-.6.55-.4.3-.1.05h.1l.55-.15.2-.1-.15.15-.6.3h-.1l-.1.05-.15.05h.4l.75-.15.3-.1.15-.05-.1.05-.25.15-.85.25h-.25l-.4.05H79q-.85-.2-1.25-.75l1.45.05h.1l.15-.1h.05l.1-.05.3-.2.7-.6.45-.75v-.05l.05-.1.55-.55.4-.5 1-1.35.15-.25.45-1.2.05-.15.05-.05-.25 1.6.15-.35.25-.65.2-.55.35-1.2-.2 2.5h-.05l-.05.1-.1.2-.1.1-1.65 1.85-.1.1-.1.4-.3.85-.15.3h-.05l.3-.9" fill="url(#e)"/><linearGradient id="f" gradientUnits="userSpaceOnUse" gradientTransform="matrix(.00092 -.00142 .00125 .00085 80.6 46.75)" x1="-819.2" x2="819.2"><stop offset="0" stop-color="#755337"/><stop offset=".518" stop-color="#9c7252"/><stop offset="1" stop-color="#704f30"/></linearGradient><path d="M81.6 46.9l-.1.2-.6.65-.15.05-.3.1-.75.15h-.4l.15-.05.1-.05h.1l.6-.3.15-.15-.2.1-.55.15h-.1l.1-.05.4-.3.6-.55.85-1.05.15-.3q-.1.8-.55 1.25.5-.25.85-1.1l-.05.35-.3.9" fill="url(#f)"/><linearGradient id="g" gradientUnits="userSpaceOnUse" gradientTransform="matrix(.00264 -.00063 .0016 .00714 85.25 37.2)" x1="-819.2" x2="819.2"><stop offset="0" stop-color="#80593e"/><stop offset="1" stop-color="#bf9b6c"/></linearGradient><path d="M85.35 33l-.05.1-.05.15.45-.6.15 1.2v.05l-.05.25-.5.85.65-.5-.15.6-.15.35.2-.25.3-.75v-.1l.15-1.25-.05 1.4v.15l-.25.8-.05.05-.05.1-.05.1-.1.25-.25.45-.15.35-.4.5h-.05l-.6 1.1.65-.55-.05.1q-.45.7-.6 1.35l-.1.55v.05l.45-.65-.25 1.05.55-.8-.35 2.2 1.2-2-.3.9-.05.15-.1.25-.05.1-.05.05-.25.5-.05.1-.7 1.3.2-2.5-.35 1.2-.2.55-.25.65-.15.35.25-1.6v-.15l-.1-.35h-.05l-1.35.35.45-.2.5-.3.2-.15.1-.1-.75.15.45-.25.1-.1.35-.35.3-.5-.45.25.15-.2.35-.5.1-.25-.15.1-.3.15h-.1l.1-.1.25-.3.05-.05.25-.5-.45.15h-.1l-.05-.05h.05l.05-.05q.6-.2.8-.65l.05-.1-.15.1-.65.1.3-.1.5-.4v-.05l-.1.05-.8.2.25-.2.15-.1.2-.05.1-.05h.25l-.2-.05.3-.2.05-.05.05-.05.35-.3.05-.05.25-.25h-.05l-.35.1-.2.1-.1.05-.15.05-.15.05-.35.05-.15-.05H84l.15-.1.15-.1.2-.15.15-.1.2-.15.3-.25.25-.3.1-.15.15-.15v-.1l-.2.15-.15.05-.35.2-.3.15-.25.1-.05.05h-.25l.25-.15.25-.15.25-.2.3-.25.1-.1.25-.35.2-.7v-.35l-.1.15-.3.45-.05.05-.3.35-.1.05-.3.2h-.05l.05-.05.25-.25.1-.05.35-.4.25-.5.2-.45-.25.3-.35.3-.5.35.35-.45.05-.1.25-.35v-.1l.05-.1-.05.05-.1.05-.2.25-.5.5-.1.05-.15.2h-.05L84 34l-.05.05.05-.1.15-.2.1-.2.05-.05.5-.75.05-.15.1-.15.05-.15-.05-.15.15-.9.35.2-.1 1.55" fill="url(#g)"/><linearGradient id="h" gradientUnits="userSpaceOnUse" gradientTransform="matrix(.00188 -.00104 .0029 .00546 86.05 34.65)" x1="-819.2" x2="819.2"><stop offset="0" stop-color="#ab805f"/><stop offset="1" stop-color="#e3c9a1"/></linearGradient><path d="M85.8 39.65l-1.2 2 .35-2.2-.55.8.25-1.05-.45.65v-.05l.1-.55q.15-.65.6-1.35l.05-.1-.65.55.6-1.1h.05l.4-.5.15-.35.25-.45.1-.25.05-.1.05-.1.05-.05.25-.8v-.15l.05-1.4-.15 1.25v.1l-.3.75-.2.25.15-.35.15-.6-.65.5.5-.85.05-.25v-.05l-.15-1.2-.45.6.05-.15.05-.1.1-1.55q.8.6 1.1 1.85l.1.5.05.2v.2l-.15.7-.05.15-.3.75-.1.2-.15.25-.05.15-.2.35-.2.3-.05.15.75-.75-1.05 2.9 1.15-2.45v.4l-.05.4-.05.4v.05l-.15.65-.25.85" fill="url(#h)"/><linearGradient id="i" gradientUnits="userSpaceOnUse" gradientTransform="matrix(-.0009 .00206 -.00343 -.00159 86.1 36.65)" x1="-819.2" x2="819.2"><stop offset="0" stop-color="#65462f"/><stop offset="1" stop-color="#ad8351"/></linearGradient><path d="M86.05 38.8l.15-.65v-.05l.05-.4.05-.4v-.4l-1.15 2.45 1.05-2.9-.75.75.05-.15.2-.3.2-.35.05-.15.15-.25.1-.2.3-.75.05-.15.15-.7.1 1.2v1l-.05.35-.05.15-.05.4v.05l-.05.35-.25.75v.1l-.15.4-.7 1.6.3-.9.25-.85" fill="url(#i)"/><linearGradient id="j" gradientUnits="userSpaceOnUse" gradientTransform="matrix(.00294 0 0 .003 81.3 43.8)" x1="-819.2" x2="819.2"><stop offset="0" stop-color="#8f6244"/><stop offset="1" stop-color="#b08762"/></linearGradient><path d="M82.2 43.05l.5-.5.1-.15-.1-.45.9-.6-.4.55.45-.35v.15l-.45 1.05-.3.55-.8 1.05-.55.6-.2.15-.1.05-.8.6-.75.3-.25.1-.2.05h-.15l-.2.05.15-.1.1-.05.3-.15.35-.25.6-.35.95-.7.5-.45-.35-.25.65-.3.5-.65-.9.3.45-.25" fill="url(#j)"/></g></svg>