<svg xmlns="http://www.w3.org/2000/svg" width="27" height="42"><g transform="translate(-56.6 -17.6)"><radialGradient id="a" gradientUnits="userSpaceOnUse" gradientTransform="translate(71.1 23) scale(.11092)" spreadMethod="pad" cx="0" cy="0" r="819.2" fx="0" fy="0"><stop offset="0" stop-color="#32120a"/><stop offset="1" stop-color="#502b11"/></radialGradient><path d="M79 21.4q6.4 8.95 2.7 20.3-3.05 8.25-2.2 14.5l-.3.1q-.2.1-.5.45-.3.3-2 1l.55-.75-.7.2-1.95.35-.05-.3-1.3.75v-.65l-1.85.9h-.45l.35-.45v-.35h-.05l-.9.6-1.1.4H69q.7-1.2.65-1.8L67.9 58.4l-.1-.6-.25-.8-.05.05-.45 1.4-.85-.9v.05l.05.4-.65-.7.45 1.8L64 56.85v.05l.75 1q-1.65-1.3-2.05-2.05l.3.95-.75-.95Q51.7 34.4 60.9 21.6q9.3-7.9 18.1-.2M65.6 57.25l-.05-.05.05.1v-.05" fill="url(#a)"/><linearGradient id="b" gradientUnits="userSpaceOnUse" gradientTransform="matrix(.00061 -.0023 .00093 .00024 75.75 55.05)" x1="-819.2" x2="819.2"><stop offset="0" stop-color="#633a24"/><stop offset=".478" stop-color="#784e35"/><stop offset=".988" stop-color="#663c27"/></linearGradient><path d="M76.25 55.25V54.1q.55 1.6-.5 2.2l-.7.4.55-.7q-.45.5-1.15.7.7-.4.95-1.3l.05-.1.2-.95.15.65.05-.85-.35-1.2L76 54l.25 1.25" fill="url(#b)"/><linearGradient id="c" gradientUnits="userSpaceOnUse" gradientTransform="matrix(-.00055 .00792 .00826 .00058 78.1 48.2)" x1="-819.2" x2="819.2"><stop offset="0" stop-color="#210301"/><stop offset="1" stop-color="#502c1a"/></linearGradient><path d="M78 47.8l.05-.8q-.25.35-.35.8-.2.7-.15 1.7-.35-.55-.2-1.7l.05-.5-.3.5q-.55 1-.75 2.95-.25-.9.25-2.65-1.2.9-1.65 2.9-.05-.75.4-2.1l1.05-1.25q1.55-2.35 2.15-4.15l.75-3.65.15-2.2.05-.2.2.35.3 1.25q.4 1.5.45 3.1l-.05.85-.2.4-.05.1q-1.6 2.3-1.85 4.3-.15 1.45.4 2.75-.65-1.35-.7-2.75" fill="url(#c)"/><linearGradient id="d" gradientUnits="userSpaceOnUse" gradientTransform="matrix(-.00166 -.0062 -.00618 .00165 76.45 52.25)" x1="-819.2" x2="819.2"><stop offset="0" stop-color="#3d200c"/><stop offset=".502" stop-color="#6a402b"/><stop offset="1" stop-color="#241307"/></linearGradient><path d="M75.35 48.9q-.45 1.35-.4 2.1.45-2 1.65-2.9-.5 1.75-.25 2.65.2-1.95.75-2.95l.3-.5-.05.5q-.15 1.15.2 1.7-.05-1 .15-1.7.1-.45.35-.8l-.05.8q.05 1.4.7 2.75l.3.55q-.45-.35-.95-1.5l.7 2.25-.6-1 .35.75.5 1.9.05.15v1.75H79l-.15-1q0 1-.6 1.7l-.4.4q.4-.45.15-.85-.4 1.05-1.35 1.55.3-.25.3-.9-.45.8-1.35 1.2l.6-.75q-.6.6-1.45.5l.7-.5-1.7-.05q1.4-.75 1.5-2V54q-1.5-2.15-.1-4.85l.2-.25m.75 1.75V48.9q-.5 1.35-.2 3-.35-.25-.5-1.35-.15 1.2.15 1.85l.55 1 .2.25.4.95q.35.85-.3 1.75.95-.95.95-2.6.4 1.4-.05 2.45.85-.85.85-2.1v-.35l-.35-1.05-.15-.3-.5-1.85q-.2-1.35-.05-2.1-.5 1.55-.6 3.25l-.4-1.05M76 54l-.5-1.05.35 1.2-.05.85-.15-.65-.2.95-.05.1q-.25.9-.95 1.3.7-.2 1.15-.7l-.55.7.7-.4q1.05-.6.5-2.2v1.15L76 54" fill="url(#d)"/><linearGradient id="e" gradientUnits="userSpaceOnUse" gradientTransform="matrix(-.00113 -.00426 -.00468 .00125 76.7 52.4)" x1="-819.2" x2="819.2"><stop offset="0" stop-color="#57321f"/><stop offset=".478" stop-color="#784e35"/><stop offset="1" stop-color="#573321"/></linearGradient><path d="M76.5 51.7q.1-1.7.6-3.25-.15.75.05 2.1l.5 1.85.15.3.35 1.05v.35q0 1.25-.85 2.1.45-1.05.05-2.45 0 1.65-.95 2.6.65-.9.3-1.75l-.4-.95-.2-.25-.55-1q-.3-.65-.15-1.85.15 1.1.5 1.35-.3-1.65.2-3v1.75l.4 1.05" fill="url(#e)"/></g></svg>