<svg xmlns="http://www.w3.org/2000/svg" width="24" height="62"><g transform="translate(-58.35 -21.05)"><linearGradient id="a" gradientUnits="userSpaceOnUse" gradientTransform="matrix(-.00204 -.05818 .0373 -.00133 70.1 51.6)" x1="-819.2" x2="819.2"><stop offset="0" stop-color="#3a3849"/><stop offset=".965"/></linearGradient><path d="M76.7 22.5q6.3 6.05 4.2 25.4l-.05.7q2.3 28.15-.7 32.05l-.9-.1-1.35-.25q0 .35-.4.5l-.5.4-.1-.1q-.1-.55-.5-.7l-.15.3-.35.4-.4-.5-1.3.9-.2-.1-.25-.1-.55.3-.3-.3-.5.5-.4-1-1.15 1.4h-.35l-.1-.8-1.4.5-.1-.7h-.2l-.6.5h-.5l-.2-.4-.7.4-.1-.7h-.1l-.8.7q-.65-.55-.5-1l-.25.6q-3.1-2.05-3.45-8.1l.05-.15q.95-12.15-2.4-26.45v-.3q-3.1-18.1 5.65-23.6 6.15-3.2 11.9-.2" fill="url(#a)"/></g></svg>