<svg xmlns="http://www.w3.org/2000/svg" width="26" height="36"><g transform="translate(-57.4 -21.65)"><linearGradient id="a" gradientUnits="userSpaceOnUse" gradientTransform="matrix(.0155 0 0 .02164 70.1 39.35)" x1="-819.2" x2="819.2"><stop offset="0"/><stop offset=".988" stop-color="#221210"/></linearGradient><path d="M79.45 25.55q6.9 12.7-.5 27.55-2.1 2.95-4.75 3.75-9.8 1.4-12.45-5.1-8.65-16.8 0-27.05 8.8-6.45 17.7.85" fill="url(#a)"/><linearGradient id="b" gradientUnits="userSpaceOnUse" gradientTransform="matrix(.00227 -.01143 .00977 .00195 77.2 47.35)" x1="-819.2" x2="819.2"><stop offset="0" stop-color="#0a040a"/><stop offset=".431" stop-color="#48281a"/><stop offset=".957" stop-color="#0d0409"/></linearGradient><path d="M79.2 44.15q1.3-.1 1.6-1l.7-.6-1.2 2.2q-2.5 3.15-3.5 5.4v.05l-.2.45-1.5 1.6-.6.85-.35.45-.5.8-.05.05-.05.15-.1.25q-.5-1.55-.4-3.9 1.8-.95 3.15-2.4l1-1.15 1.2-1.9.6-1.2.2-.1" fill="url(#b)"/></g></svg>