<svg xmlns="http://www.w3.org/2000/svg" width="31" height="39"><g transform="translate(-55.3 -18.25)"><path d="M76.25 47.95l-2.55.9-.35.1-.25.05-3.75.55-2.8-1.75-.75-1.45-.15.4-.9-.1-.5-.3-.85-.7.1.2-.15-.25-.5-.95-.05-.05-.5-1.15-.2-.4-1.9-2.1q-2.4-6.2-2.35-11.9l-.8 1.8.15-1.2.05-.1q1.45-5.4 5.2-8.45 5.1-3.55 10.35-2.65 4.05.55 6.35 3.8 2.7 4.9 3.1 10.6l-.45-1h-.05l-.4 3.55v.15l.05.2h-.1l-.35.05-.15.05-.15.1-.1.05-.1.25q-.45.95-.25 3.85v.4l-.15.85-.05.6-.2-.75-.2-1.1-.3 2.35q-.1.9-.05 1.85l.15.7q-1.1 1.9-3.15 2.95" fill="#451101"/><linearGradient id="a" gradientUnits="userSpaceOnUse" gradientTransform="matrix(-.00018 .00507 -.00473 -.00017 82.25 40.15)" x1="-819.2" x2="819.2"><stop offset="0" stop-color="#3d160c"/><stop offset=".631" stop-color="#78361f"/><stop offset="1" stop-color="#592515"/></linearGradient><path d="M83.35 36.6l.15 1.65-.4-1.7-1-2.1.6 2.1.8 3.2-.45-1.15-1.1-1.85L83 39.1l-1.1-1.95L83 40.4l.05.1q.35 1.75.2 2.85v.05l-.15.15-.2-.3q.2-2.15-.9-4.95l-.05-.15-.65-1.75-.35-.6.35-.05h.1l-.05-.2v-.15l.4-3.55h.05l.45 1 .35.8.75 2.95" fill="url(#a)"/><linearGradient id="b" gradientUnits="userSpaceOnUse" gradientTransform="matrix(.0009 .00485 -.0037 .0007 82.85 40.25)" x1="-819.2" x2="819.2"><stop offset="0" stop-color="#5c2c1b"/><stop offset=".631" stop-color="#995739"/><stop offset="1" stop-color="#6c331f"/></linearGradient><path d="M82.6 33.65l1.05 2.95q1.25 4.4-.35 6.85l-.05-.05v-.05q.15-1.1-.2-2.85l-.05-.1-1.1-3.25L83 39.1l-1.05-2.35 1.1 1.85.45 1.15-.8-3.2-.6-2.1 1 2.1.4 1.7-.15-1.65-.75-2.95" fill="url(#b)"/><linearGradient id="c" gradientUnits="userSpaceOnUse" gradientTransform="matrix(-.00037 .00288 -.008 -.00102 80.55 42.45)" x1="-819.2" x2="819.2"><stop offset="0" stop-color="#905032"/><stop offset=".443" stop-color="#bc7255"/><stop offset="1" stop-color="#8f4b2e"/></linearGradient><path d="M80.95 35.8l.35.6.65 1.75.05.15q1.1 2.8.9 4.95l-.05.7-.15.55-.25.75-.05.1-.25.4-.1.15-1.6 1.6-.2.15.1-.1 1.3-1.65.65-1.6-3.4 4.05-.05.05-.65.7.45-.55v-.05l2.25-3.05q1.2-1.95 0-5.8v-.05l-.05-.25q.6.85.85 1.95.05-.95-.8-3.65l-.1-.25.1.15q.9 1.45 1.15 3.1.15-.9-.3-2.2l-.45-1.4-.5-1.2.15-.05" fill="url(#c)"/><linearGradient id="d" gradientUnits="userSpaceOnUse" gradientTransform="matrix(.0011 -.00952 .012 .00137 79.6 45.8)" x1="-819.2" x2="819.2"><stop offset="0" stop-color="#c27b5b"/><stop offset=".443" stop-color="#7e3a23"/><stop offset="1" stop-color="#70321b"/></linearGradient><path d="M78.9 48.35l3.4-4.05-.65 1.6-1.3 1.65-1.15.65-.35.2.05-.05m-5.25 2.4q-.2 1.2.75 2-.7-1.35.35-2.7-.4 2.1.45 3.05-.05-.45.05-.85.3-1.9 2.05-3.8l.15-.25.2-.3q.85-1.05 2.05-1.95l.05.05v.05l.1-.15.1-.1.05-.15.05-.15.65-1.45.05-.3.05-.05.15-1q.15-1.15-.4-3.85l-.1-.55.7 1-.6-2.4.75.85-.65-1.8.15-.1.5 1.2.45 1.4q.45 1.3.3 2.2-.25-1.65-1.15-3.1l-.1-.15.1.25q.85 2.7.8 3.65-.25-1.1-.85-1.95l.05.25v.05q1.2 3.85 0 5.8l-2.25 3.05v.05q-.75.55-1.2 1.25-.7.95-.95 2.15l-.25 1.8-.1-.25.05.15.05.55v.3q.05 1.15.45 2.05-.9-1.2-1-3-.1 1.45.3 2.2-.65-1.1-.75-2.15l-.05-.2q-1.1-.2-1.7-.85-.2-.75.15-1.8m2.25 2.45v-.55.55" fill="url(#d)"/><linearGradient id="e" gradientUnits="userSpaceOnUse" gradientTransform="matrix(.00029 .00232 -.00302 .0004 83.35 45.8)" x1="-819.2" x2="819.2"><stop offset="0" stop-color="#9b593d"/><stop offset=".471" stop-color="#b97053"/><stop offset="1" stop-color="#8d5036"/></linearGradient><path d="M82.8 47.8q.7-1 .6-1.9-.1-.75-.7-1.4l.15-.55.05-.7.2.3.05.1.85 2.1.05.15q.05 1.2-.9 2.4l-.35-.5" fill="url(#e)"/><linearGradient id="f" gradientUnits="userSpaceOnUse" gradientTransform="matrix(.00354 0 0 .00241 83.35 47.75)" x1="-819.2" x2="819.2"><stop offset="0" stop-color="#733f27"/><stop offset=".541" stop-color="#8d4f37"/><stop offset="1" stop-color="#775743"/></linearGradient><path d="M85.45 48.8l-.1.15.15-.1.75-1.1q-.3 1.05-1.05 1.65l-1.7.3q-2.15-.75-3.05-2.2l1.6-1.6.1-.15.05.15v.2q-.35 1.05.2 1.65l-.85-.6q.5 1.15 1.75 1.85l-2.2-1.45q.75 1.35 2.55 1.85h.2q.9 0 1.6-.6" fill="url(#f)"/><linearGradient id="g" gradientUnits="userSpaceOnUse" gradientTransform="matrix(.00523 .00284 -.00095 .00177 83.6 47.75)" x1="-819.2" x2="819.2"><stop offset="0" stop-color="#7e452d"/><stop offset=".541" stop-color="#a46750"/><stop offset="1" stop-color="#8c604a"/></linearGradient><path d="M83.85 49.4h-.2q-1.8-.5-2.55-1.85L83.3 49q-1.25-.7-1.75-1.85l.85.6q-.55-.6-.2-1.65.2 1.05.6 1.7l.35.5q.55.65 1.5.6.9-.2 1.5-1.85-.1.85-.7 1.75-.7.6-1.6.6" fill="url(#g)"/><linearGradient id="h" gradientUnits="userSpaceOnUse" gradientTransform="matrix(-.00499 -.0061 .00848 -.007 57.85 38.1)" x1="-819.2" x2="819.2"><stop offset="0" stop-color="#5f2614"/><stop offset=".471" stop-color="#834023"/><stop offset="1" stop-color="#421709"/></linearGradient><path d="M59.4 47.2l-.9-.6-.1-.1v-.05l-1.5-1.75-.35-.55q-2.65-5.2.25-12.65l.1-.3v-.05l.05-.15.1-.15.8-1.8q-.05 5.7 2.35 11.9V41q.25 2.35.1 3.9l-.15 1.75-.75.55m-3.15-4.7q1.05 2.45 2.7 3.7-1.2-1.7-1.55-3.1 1 1.95 2.5 3.15l-1.45-2.95 1.65 1.75q-.95-1.35-1.45-3.6.85 1.4 1.5 1.5-2.2-4.9-2.5-10.05-.35 3.75.4 6.55-1.2-3.35-.95-7.3-.8 3.1-.3 7-.8-2.05-.45-5.55-1.35 5.4-.2 8.8l.1.1" fill="url(#h)"/><linearGradient id="i" gradientUnits="userSpaceOnUse" gradientTransform="matrix(.00285 .00726 -.00795 .00316 57.9 39.15)" x1="-819.2" x2="819.2"><stop offset="0" stop-color="#70321f"/><stop offset=".471" stop-color="#924b2a"/><stop offset="1" stop-color="#6c2a14"/></linearGradient><path d="M58.9 43.3q-1.5-3.25-1.9-6.4-.05 1.95.35 3.65-1.15-1.6-1.45-3.45-.35 3.35 1.3 6.75L57 42.1l1.8 2.5q-.65-1.2-.9-2.35l1 1.05m-2.75-.9q-1.15-3.4.2-8.8-.35 3.5.45 5.55-.5-3.9.3-7-.25 3.95.95 7.3-.75-2.8-.4-6.55.3 5.15 2.5 10.05-.65-.1-1.5-1.5.5 2.25 1.45 3.6l-1.65-1.75 1.45 2.95q-1.5-1.2-2.5-3.15.35 1.4 1.55 3.1-1.65-1.25-2.7-3.7l-.1-.1" fill="url(#i)"/><linearGradient id="j" gradientUnits="userSpaceOnUse" gradientTransform="matrix(-.00188 .00589 -.00858 -.00276 60.85 49.8)" x1="-819.2" x2="819.2"><stop offset="0" stop-color="#321106"/><stop offset=".506" stop-color="#b55c2b"/><stop offset="1" stop-color="#8c4423"/></linearGradient><path d="M61.6 54.7v.05l.55 1.1q-.55-.4-.95-.9l-.1-.15q-1.95-2.45-1.15-7.15v-.05l.2-.95.15-1.75q.15-1.55-.1-3.9v-.05l1.9 2.1.2.4-.55 1.1v.15l-.1.25-.8 2.3v.05l-.05.2-.1.55v.1q-.4 2.35.2 4.6v.05l.15.5.05.15.3.8.1.3.1.15m-1-8.7l-.5 2.55q-.25 2.15.25 4.25l.85 1.6.05.05v-.1l-.3-.75-.25-.75q-.5-1.65-.45-3.1l-.05-.15.25-2.3.15-1.3" fill="url(#j)"/><linearGradient id="k" gradientUnits="userSpaceOnUse" gradientTransform="matrix(-.00223 -.0077 .00465 -.00137 57.35 40.85)" x1="-819.2" x2="819.2"><stop offset="0" stop-color="#804529"/><stop offset=".471" stop-color="#ab5a31"/><stop offset="1" stop-color="#814529"/></linearGradient><path d="M57.9 42.25q.25 1.15.9 2.35L57 42.1l.2 1.75q-1.65-3.4-1.3-6.75.3 1.85 1.45 3.45-.4-1.7-.35-3.65.4 3.15 1.9 6.4l-1-1.05" fill="url(#k)"/><linearGradient id="l" gradientUnits="userSpaceOnUse" gradientTransform="matrix(.00165 .0059 -.0052 .00148 58.6 50.95)" x1="-819.2" x2="819.2"><stop offset="0" stop-color="#6a3625"/><stop offset=".447" stop-color="#a15e46"/><stop offset="1" stop-color="#8a5a47"/></linearGradient><path d="M59.4 47.2l-.85 1.15-.05.05q-1 2.05-.25 4.1-.65-.9-.65-2.5 0-1.2.9-3.4l.9.6" fill="url(#l)"/><linearGradient id="m" gradientUnits="userSpaceOnUse" gradientTransform="matrix(.00179 .00603 -.0049 .00148 60.6 50.2)" x1="-819.2" x2="819.2"><stop offset="0" stop-color="#702f19"/><stop offset=".518" stop-color="#bd6c44"/><stop offset="1" stop-color="#8c4423"/></linearGradient><path d="M60.45 47.3l-.25 2.3.05.15q-.05 1.45.45 3.1l.25.75.3.75v.1l-.05-.05-.85-1.6q-.5-2.1-.25-4.25l.5-2.55-.15 1.3" fill="url(#m)"/><linearGradient id="n" gradientUnits="userSpaceOnUse" gradientTransform="matrix(.00227 .00443 -.00403 .00209 62 49.55)" x1="-819.2" x2="819.2"><stop offset="0" stop-color="#5f2613"/><stop offset=".502" stop-color="#8a4823"/><stop offset="1" stop-color="#a25e3b"/></linearGradient><path d="M64.15 51.95q-.9 2-2.15 2.65l-.4.1 1.35-1.65-.05-.05h.05q.7-1.2.6-2.15l-.3-.95-.1-.25q-.65-1.45-1.85-2.6l1.65 1.55.6.8.1.2q.05-.85-1.3-2.95 1.4 1.35 2 2.95l.05-.2v.2l.05.2.05.15q.3.9.2 1.85l-.3 1.1-.05.15-.2.4-.55.4-.2.1.75-2" fill="url(#n)"/><linearGradient id="o" gradientUnits="userSpaceOnUse" gradientTransform="matrix(-.00136 .0019 -.00314 -.0022 66.55 49.45)" x1="-819.2" x2="819.2"><stop offset="0" stop-color="#5f2614"/><stop offset=".988" stop-color="#854125"/></linearGradient><path d="M66.35 51.05q-.35-1.05-.1-2.5-.35.8-.25 2.35-.7-1.5-.35-3.7v-.05l.05-.4.1-.4.75 1.45.6 1.15q-1.05 1.85.45 3.7l-.25-.05q-.7-.65-1-1.55m-1.65.75h.05l-.35 1.15v-.05l.3-1.1m-1.5 2.3h-.1.1" fill="url(#o)"/><linearGradient id="p" gradientUnits="userSpaceOnUse" gradientTransform="matrix(-.00026 .00378 -.0038 -.00024 66.15 50.15)" x1="-819.2" x2="819.2"><stop offset="0" stop-color="#834025"/><stop offset=".631" stop-color="#a85830"/><stop offset=".988" stop-color="#854125"/></linearGradient><path d="M65.3 48.85v-.05l-.05-.55.2-.8v-.1l.05-.15v-.05l.15-.4.15-.4-.1.4-.05.4v.05q-.35 2.2.35 3.7-.1-1.55.25-2.35-.25 1.45.1 2.5.3.9 1 1.55-1.4-.45-1.9-1.45v-.4l-.15-1.9" fill="url(#p)"/><linearGradient id="q" gradientUnits="userSpaceOnUse" gradientTransform="matrix(-.00029 .00438 -.00107 -.00008 64.75 50.3)" x1="-819.2" x2="819.2"><stop offset="0" stop-color="#834025"/><stop offset=".631" stop-color="#a85830"/><stop offset=".988" stop-color="#854125"/></linearGradient><path d="M65.4 47.4h.05v.05l-.05-.05" fill="url(#q)"/><linearGradient id="r" gradientUnits="userSpaceOnUse" gradientTransform="matrix(.00154 .0002 -.0005 .0041 80.7 39.35)" x1="-819.2" x2="819.2"><stop offset="0" stop-color="#3b140e"/><stop offset="1" stop-color="#72331c"/></linearGradient><path d="M80.25 40.85l-.05-.35v-.4q-.2-2.9.25-3.85l.1-.25.1-.05.65 1.8-.75-.85.6 2.4-.7-1 .1.55q.55 2.7.4 3.85-.25-1.35-.7-1.85" fill="url(#r)"/><linearGradient id="s" gradientUnits="userSpaceOnUse" gradientTransform="matrix(.00058 0 0 .00192 80.5 42.1)" x1="-819.2" x2="819.2"><stop offset="0" stop-color="#643422"/><stop offset="1" stop-color="#78361f"/></linearGradient><path d="M80.3 42.7L80 42v-.05l.05-.6.15-.85.05.35q.45.5.7 1.85l-.15 1-.5-1" fill="url(#s)"/><linearGradient id="t" gradientUnits="userSpaceOnUse" gradientTransform="matrix(.00243 .00015 -.00024 .00363 80.55 43.45)" x1="-819.2" x2="819.2"><stop offset="0" stop-color="#42150a"/><stop offset="1" stop-color="#7a3720"/></linearGradient><path d="M79.8 42.35l.35 2.15-.65-1.35q.05 1.25.55 2.35l-.05.15-.05.15-.1.1-.1.15V46l-.05-.05v-.05l-.3-.9-.15-.7q-.05-.95.05-1.85l.3-2.35.2 1.1.2.75V42l.3.7.5 1-.05.05-.05.3q-.7-.6-.9-1.7" fill="url(#t)"/><linearGradient id="u" gradientUnits="userSpaceOnUse" gradientTransform="matrix(.0007 -.00633 .00282 .0003 76.95 50)" x1="-819.2" x2="819.2"><stop offset="0" stop-color="#c27b5b"/><stop offset=".443" stop-color="#7e3a23"/><stop offset="1" stop-color="#70321b"/></linearGradient><path d="M75.6 50.1q-.45.7-.5 1.25-.05.55.15.9-.1.4-.05.85-.85-.95-.45-3.05-1.05 1.35-.35 2.7-.95-.8-.75-2-.35 1.05-.15 1.8l-.45-.85-.05-.75v-.2l.1-1.75.25-.05.35-.1 2.55-.9Q78.3 46.9 79.4 45l.3.9v.05q-1.2.9-2.05 1.95l-.2.3Q76 49.4 75.6 50.1" fill="url(#u)"/><linearGradient id="v" gradientUnits="userSpaceOnUse" gradientTransform="matrix(.00142 .00122 -.00128 .00153 80.75 44.5)" x1="-819.2" x2="819.2"><stop offset="0" stop-color="#692b15"/><stop offset="1" stop-color="#7a3720"/></linearGradient><path d="M80.7 44.05l-.65 1.45q-.5-1.1-.55-2.35l.65 1.35-.35-2.15q.2 1.1.9 1.7" fill="url(#v)"/><linearGradient id="w" gradientUnits="userSpaceOnUse" gradientTransform="matrix(-.0011 .0014 -.00133 -.00105 61.55 51)" x1="-819.2" x2="819.2"><stop offset="0" stop-color="#612b1c"/><stop offset="1" stop-color="#834227"/></linearGradient><path d="M63.4 53.95l-.2.15-.75.35-.45.15q1.25-.65 2.15-2.65l-.75 2m-1.9.6l-.1-.3q1.65-1.6 1.6-3.65l.05.15.1.4v1.15l-.25.7.05.05-1.35 1.65-.1-.15m1.6-.45h.1-.1" fill="url(#w)"/><linearGradient id="x" gradientUnits="userSpaceOnUse" gradientTransform="matrix(.00415 .00519 -.00415 .00331 62.15 49)" x1="-819.2" x2="819.2"><stop offset="0" stop-color="#5f2614"/><stop offset=".506" stop-color="#612811"/><stop offset="1" stop-color="#8e4a29"/></linearGradient><path d="M63.15 52.3v-1.15l-.1-.4-.05-.15-.6-1-1.45-1.3-.25-.25.1-.55.05-.2v-.05l.8-2.3.1-.25v-.15l.55-1.1.5 1.15.05.05.5.95.15.25-.1-.2.85.7.4.3h.1l.9.1-.15.4v.05l-.05.15-.05.05.05.05-.2.8.05.55v.05l.15 1.9q-.2 1.6-1.3 2.7l.2-.4.05-.15v.05l.35-1.15h-.05q.1-.95-.2-1.85l-.05-.15-.05-.2v-.2l-.05.2q-.6-1.6-2-2.95 1.35 2.1 1.3 2.95l-.1-.2-.6-.8-1.65-1.55q1.2 1.15 1.85 2.6l.1.25.3.95q.1.95-.6 2.15h-.05l.25-.7m-3-5.65l-.2.95-.55-.4.75-.55m5 1.35l-.1.25-.1.25.2-.5" fill="url(#x)"/></g></svg>