<svg xmlns="http://www.w3.org/2000/svg" width="27" height="58"><path d="M25.55 11.8q1.7 10.75-1 23.9l-.2.95.05.35.45 1.85q.4 2.05.4 4.8L24.6 49l-.75 4.9-.1-.1q-.4-1.25-1-1.4l-1 2.1-.4-.8-.55 1.65-.75 1.55q.1-.8-.35-1.7-.6-1.15-.75-1.9l-.8 2-.7-1.1-1.85 3.35-.05-.05q0-3.15-.4-4l-.1.1-1.1 1.6-.4-.5-2.4 3.15-.1-.05.1-4.3h-.1q-.65 1.8-1.3 2.4l-.1-.1v-.6l-.2.1-1.35 2 .25-.9.2-1.05-.1-1.45-.2.1-.7 1.2V55q.5-1.75.5-4.95 0-4.15-.35-6.25-.6-3.4-2.6-7.8l-.15-.25Q-.8 26.6.15 14.1l.05-.35Q2.15 2.2 11.65.05q6.4-.6 11.45 4.75l.8 1.4q.75 1.2 1.65 5.6" fill="#010001"/></svg>