<svg xmlns="http://www.w3.org/2000/svg" width="26" height="57"><path d="M25.2 17.4Q24 29.9 18.9 40.75l-.3 1.05-.8.65-.5.7q-.7 1.1-.9 2.8l-.2 1.5v.05l-.05.25-.2.8q-.2.95.4 1.75l-.05.1-.05.1-.45.6q-.85 1.15-1 2.3l-.1 1.55-.05.2q-.25.35-.1 1.2-.3-.4-.35-1.1l.05-.2-.05.05-.05.15q-.2.55.15 1.6-.55-.9-.75-1.8l-.3-.2-.8-.35-.1.5h-.1l-.7-1.6v.1l-.2 1q-.1.75-.4 1l-.1-.1-1.5-3.2-.1.1-.3 1.4h-.1l-.5-1.4v1.9h-.1q-3.5-5.85-4.6-12.3L1.4 33.8Q.1 29.35.5 25.7l.05-.5q-1.5-6.5 1.25-13.8l.05-.45Q3.3 4 8.7 1.05q7.5-2.7 13.65 1.6 4.3 6.7 3 14.35l-.15.4m-7.85 17.2l.1-.1-.1.1m-11.8-2.05v-.05.05M14.6 49.2v.05-.05" fill="#0f0301"/></svg>