<svg xmlns="http://www.w3.org/2000/svg" width="35" height="36"><g transform="translate(-52.55 -18.85)"><path d="M81.5 38.85h-1.3l.05.1.2.3.45.3.1.05.85.45-.05.7q-.4 2.45-1.85 3l-.95.15v.1l-.6 1.05.45.4-2.1 2.85q-.75 1.05-2.5 2.15-1.6 1-1.9 1.55l-.4-.1q-.25 0-1.05.45l-.95.4-.3-.3q-.2-.3-.35-.3-.1 0-.5.35l-.5.3-2.25-2.3-1.55-1.45-.95-1.3q-1.1-1.25-1.9-2.9l-.2-.45.35-.1-.35-.4-1-.15q-1.45-1.05-1.9-3l-.15-.65q1.05-.45 1.7-.9l.3-.3.1 1.85v.2l.05-.2.15-1.55.05-.35H56.4v-.45l.5-1.7q.6-1.55.5-2.1-.15-.6.15-3.25.35-2.65 1.8-6 1.4-3.4 5.15-5.1 3.7-1.75 6.05-1.35l3.35.6 2 .6q.95.4 2.95 2.2 2 1.8 3.25 4.65 1.2 2.85 1.25 3.6V33q-.05 1.7-.3 2.35-.3.6.15 1.4.45.8.45 1.9v.2H81.5m-20.6 2.3l.05-.4.25-1.9h-.25l-.05 1.9v.4" fill="#693e29"/><linearGradient id="a" gradientUnits="userSpaceOnUse" gradientTransform="matrix(-.00288 0 -.00043 .005 82.05 35.6)" x1="-819.2" x2="819.2"><stop offset="0" stop-color="#b77946"/><stop offset=".424" stop-color="#e3a36f"/><stop offset=".973" stop-color="#c38650"/></linearGradient><path d="M83.8 39.75l.2-.9h.1l-.3.9" fill="url(#a)"/><linearGradient id="b" gradientUnits="userSpaceOnUse" gradientTransform="matrix(-.00304 -.00388 -.00363 .00383 81.1 35.3)" x1="-819.2" x2="819.2"><stop offset="0" stop-color="#6a2d0f"/><stop offset=".455" stop-color="#451e01"/><stop offset=".929" stop-color="#6b310e"/></linearGradient><path d="M83 38.85h.7v.45l-.7-.45m-2 .75l-.1-.05-.45-.3-.2-.3-.05-.1h.75l.15.15 1.5 1.1.1.05.1.05-.1.05h-.1l-.35-.05-.4-.15-.85-.45m1.5-.75l.9.8.05.05-.65-.25-.1-.05-1.2-.55h1" fill="url(#b)"/><path d="M83.4 40.8l-1.05 1.6-.1.05v.05l-.05.05q-1.4 1.3-1.1 2.65l-2.2.4-.05-.15-.45-.4L79 44v-.1l.95-.15q1.45-.55 1.85-3l.05-.7.4.15-.05.55-.55 1.3.85-1-.6 1 .35-.1h.1l1.05-1.15m-25.1 1.9l-.25-.15-.05-.1q-.9-.75-1.3-1.6.55.8 1.2 1.1h.1l.3.1-.6-1 .85 1-.5-1.3-.1-.5.45-.15.15.65q.45 1.95 1.9 3l1 .15.35.4-.35.1-1.15-.05-.15-.15q-.95-1.05-1.85-1.5" fill="#2d0100"/><linearGradient id="c" gradientUnits="userSpaceOnUse" gradientTransform="matrix(-.00172 -.00104 -.00082 .00162 82.1 39.05)" x1="-819.2" x2="819.2"><stop offset="0" stop-color="#884e29"/><stop offset=".914" stop-color="#632a0c"/></linearGradient><path d="M82.8 40.2l-.1-.05-.1-.05-1.5-1.1-.15-.15h.55l1.2.55.1.05.65.25-.05-.05-.9-.8h.5l.7.45-.2 1.25-.7-.35" fill="url(#c)"/><path d="M83.5 40.55v.2l-.1.05-1.05 1.15h-.1l-.35.1.6-1-.85 1 .55-1.3.05-.55.35.05h.1l.1-.05.7.35m-26.15-.3l.15.05h.1l.35-.05.1.5.5 1.3-.85-1 .6 1-.3-.1h-.1q-.65-.3-1.2-1.1l-.05-.1-.05-.2.75-.3" fill="#59290f"/><linearGradient id="d" gradientUnits="userSpaceOnUse" gradientTransform="matrix(.00334 -.00385 .00394 .0038 59.2 35.35)" x1="-819.2" x2="819.2"><stop offset="0" stop-color="#6a2d0f"/><stop offset=".455" stop-color="#451e01"/><stop offset=".929" stop-color="#6b310e"/></linearGradient><path d="M56.35 39.35v-.45h.05l.05-.05h.75l-.85.5m1.1.1l-.1.05-.7.2 1.1-.85h1.1l-1.4.6m.5.8l-.35.05h-.1l-.15-.05.15-.05.05-.05q1.2-.55 1.9-1.3h.95v.05l-.3.3q-.65.45-1.7.9l-.45.15" fill="url(#d)"/><linearGradient id="e" gradientUnits="userSpaceOnUse" gradientTransform="matrix(.00159 0 0 .00958 61.7 33.3)" x1="-819.2" x2="819.2"><stop offset="0" stop-color="#873b0d"/><stop offset="1" stop-color="#a3613b"/></linearGradient><path d="M60.4 38.85h.35l-.05.35-.15 1.55-.05.2v-.2l-.1-1.85v-.05m.5 1.9l.05-1.9h.25l-.25 1.9-.05.4v-.4" fill="url(#e)"/><linearGradient id="f" gradientUnits="userSpaceOnUse" gradientTransform="matrix(.0019 -.00104 .0009 .0016 58.15 39.05)" x1="-819.2" x2="819.2"><stop offset="0" stop-color="#884e29"/><stop offset=".914" stop-color="#632a0c"/></linearGradient><path d="M56.6 40.55q-.25-.6-.25-1.2l.85-.5h.55l-1.1.85.7-.2.1-.05 1.4-.6h.6q-.7.75-1.9 1.3l-.05.05-.15.05-.75.3" fill="url(#f)"/><linearGradient id="g" gradientUnits="userSpaceOnUse" gradientTransform="matrix(.00195 -.00601 .0084 .0037 60.45 32.4)" x1="-819.2" x2="819.2"><stop offset="0" stop-color="#884e29"/><stop offset=".475" stop-color="#65290a"/><stop offset=".929" stop-color="#a46b42"/></linearGradient><path d="M56.35 38.9v-.05h.1l-.05.05h-.05" fill="url(#g)"/><linearGradient id="h" gradientUnits="userSpaceOnUse" gradientTransform="matrix(.00314 0 .00044 .00496 58.2 35.7)" x1="-819.2" x2="819.2"><stop offset="0" stop-color="#b77946"/><stop offset=".424" stop-color="#e3a36f"/><stop offset=".973" stop-color="#c38650"/></linearGradient><path d="M56.05 38.85l.15.9-.3-.9h.15" fill="url(#h)"/><linearGradient id="i" gradientUnits="userSpaceOnUse" gradientTransform="matrix(.001 .00053 -.00047 .00113 58.95 43.55)" x1="-819.2" x2="819.2"><stop offset="0" stop-color="#0e0e0e"/><stop offset=".494" stop-color="#999"/><stop offset="1"/></linearGradient><path d="M57.75 43.4q.05-.5.25-.8l.05-.05.25.15q.9.45 1.85 1.5l-.15.45q-.9-.8-2.25-1.25" fill="url(#i)"/><path d="M60 44.65l-.1.25-2.15-1.1v-.4q1.35.45 2.25 1.25"/><linearGradient id="j" gradientUnits="userSpaceOnUse" gradientTransform="matrix(-.00307 .00987 .01634 .00711 54.8 63.5)" x1="-819.2" x2="819.2"><stop offset="0" stop-color="#2b1307"/><stop offset=".71" stop-color="#673417"/><stop offset="1" stop-color="#401d0b"/></linearGradient><path d="M60 47.2q1.2 2.8 1.6 5.55-.75-2.7-1.9-4.95.7 2.45.75 5.3h-.3l-.05-.25-.05.25h-.45l.25-1.05-.45 1.05h-.9q.95-4.9.65-8.7l.65.35q.3 2 1.1 3.25 1.45 2.6 2.2 5.1h-.4q-.85-2.7-2.7-5.9" fill="url(#j)"/><linearGradient id="k" gradientUnits="userSpaceOnUse" gradientTransform="matrix(-.0031 .01463 .01692 .00557 56.4 55.8)" x1="-819.2" x2="819.2"><stop offset="0" stop-color="#2b1307"/><stop offset=".471" stop-color="#8c512f"/><stop offset="1" stop-color="#401d0b"/></linearGradient><path d="M58.5 53.1h-.85l.85-4.05-1.35 4.05h-.3l.95-4.35-1.2 3.95-.1.4h-.3l.15-.55.75-3.85-1.25 3.65-.35.75h-.15l.2-.85.55-2.65.15-.45 1.6-5.2.35.05.95.4q.3 3.8-.65 8.7" fill="url(#k)"/><linearGradient id="l" gradientUnits="userSpaceOnUse" gradientTransform="matrix(-.00102 -.01001 -.00613 -.00061 54.25 56.5)" x1="-819.2" x2="819.2"><stop offset="0" stop-color="#512a15"/><stop offset=".431" stop-color="#c98c5e"/><stop offset=".973" stop-color="#562d15"/></linearGradient><path d="M56.1 49.6l-.55 2.65-.2.85h-.45l.3-.95.15-.75.75-1.8m-.6 3.5l.35-.75 1.25-3.65-.75 3.85-.15.55h-.7m1 0l.1-.4 1.2-3.95-.95 4.35h-.35m.65 0l1.35-4.05-.85 4.05h-.5" fill="url(#l)"/><linearGradient id="m" gradientUnits="userSpaceOnUse" gradientTransform="matrix(-.0078 .00847 .01054 .00893 54.85 64.6)" x1="-819.2" x2="819.2"><stop offset="0" stop-color="#411f0c"/><stop offset=".525" stop-color="#8b4923"/><stop offset="1" stop-color="#502710"/></linearGradient><path d="M59.6 53.1h-.2l.45-1.05-.25 1.05" fill="url(#m)"/><linearGradient id="n" gradientUnits="userSpaceOnUse" gradientTransform="matrix(-.00105 -.01042 -.00768 -.00076 59.15 55.65)" x1="-819.2" x2="819.2"><stop offset="0" stop-color="#2b1307"/><stop offset=".447" stop-color="#673417"/><stop offset=".973" stop-color="#2b1307"/></linearGradient><path d="M62.7 53.1h-2.25q-.05-2.85-.75-5.3 1.15 2.25 1.9 4.95Q61.2 50 60 47.2q1.85 3.2 2.7 5.9m-2.6-.25l.05.25h-.1l.05-.25" fill="url(#n)"/><linearGradient id="o" gradientUnits="userSpaceOnUse" gradientTransform="matrix(-.00604 .00157 .00284 .00587 52.7 57.5)" x1="-819.2" x2="819.2"><stop offset="0" stop-color="#7f5137"/><stop offset=".478" stop-color="#e8b586"/><stop offset="1" stop-color="#8c5b3d"/></linearGradient><path d="M54.5 53.1l.5-1 .35-.7-.15.75-.3.95h-.4" fill="url(#o)"/><linearGradient id="p" gradientUnits="userSpaceOnUse" gradientTransform="matrix(.00526 .01001 -.01434 .00755 87.9 64.1)" x1="-819.2" x2="819.2"><stop offset="0" stop-color="#2b1307"/><stop offset=".71" stop-color="#673417"/><stop offset="1" stop-color="#401d0b"/></linearGradient><path d="M79.95 47q.05 2.1 1 5.1h-1.2q-.35-2.05-.25-3.9-.45 1.8-.65 3.9h-.15q-.05-2.25.35-4.5-.8 2.4-1.1 4.5h-.35q.25-1.85.8-3.7.5-1.3.35-2.6.6-1 2.25-.75l2.15 4.45.3.45.8 2.15h-.3l-1.7-3.05 1.25 3.05h-.4l-1.55-3 1.35 3h-.45L81 49.45l1.1 2.65h-.55q-1.1-2.55-1.6-5.1" fill="url(#p)"/><linearGradient id="q" gradientUnits="userSpaceOnUse" gradientTransform="matrix(-.0013 -.01022 .00586 -.00075 86.75 56.9)" x1="-819.2" x2="819.2"><stop offset="0" stop-color="#2b1307"/><stop offset=".447" stop-color="#673417"/><stop offset=".973" stop-color="#2b1307"/></linearGradient><path d="M83.45 49.95l1.15 1.85.1.3h-.45l-.8-2.15m.5 2.15h-.45l-1.25-3.05 1.7 3.05m-.85 0h-.2l-1.35-3 1.55 3m-.65 0h-.35L81 49.45l1.45 2.65" fill="url(#q)"/><linearGradient id="r" gradientUnits="userSpaceOnUse" gradientTransform="matrix(.00627 .00148 -.00143 .00604 88.55 57.9)" x1="-819.2" x2="819.2"><stop offset="0" stop-color="#5e2f15"/><stop offset=".522" stop-color="#a6623b"/><stop offset="1" stop-color="#763611"/></linearGradient><path d="M84.6 51.8l.2.3h-.1l-.1-.3" fill="url(#r)"/><linearGradient id="s" gradientUnits="userSpaceOnUse" gradientTransform="matrix(-.00136 -.01064 .0073 -.00093 81.85 56.15)" x1="-819.2" x2="819.2"><stop offset="0" stop-color="#2b1307"/><stop offset=".447" stop-color="#673417"/><stop offset=".973" stop-color="#2b1307"/></linearGradient><path d="M79.75 52.1h-.9q.2-2.1.65-3.9-.1 1.85.25 3.9m-1.05 0h-.75q.3-2.1 1.1-4.5-.4 2.25-.35 4.5" fill="url(#s)"/><linearGradient id="t" gradientUnits="userSpaceOnUse" gradientTransform="matrix(-.00098 -.00764 .00243 -.0003 82.65 53.05)" x1="-819.2" x2="819.2"><stop offset="0" stop-color="#2b1307"/><stop offset="1" stop-color="#673417"/></linearGradient><path d="M81.55 52.1h-.6q-.95-3-1-5.1.5 2.55 1.6 5.1" fill="url(#t)"/><linearGradient id="u" gradientUnits="userSpaceOnUse" gradientTransform="matrix(-.0011 .00026 .00015 .0012 80 45.05)" x1="-819.2" x2="819.2"><stop offset="0" stop-color="#0e0e0e"/><stop offset=".494" stop-color="#999"/><stop offset="1"/></linearGradient><path d="M81.2 45.2q-1.45.1-2.55.6l-.05-.5q1.25-.75 2.2-.9l.3-.1.05.1.05.8" fill="url(#u)"/><path d="M81.2 45.2l-.1.4q-1.2-.05-2.4.45l-.05-.25q1.1-.5 2.55-.6"/><linearGradient id="v" gradientUnits="userSpaceOnUse" gradientTransform="matrix(.0068 0 0 .01181 87.35 56.15)" x1="-819.2" x2="819.2"><stop offset="0" stop-color="#985a26"/><stop offset=".549" stop-color="#daa477"/><stop offset=".941" stop-color="#9c5e2c"/></linearGradient><path d="M81.95 46.5q.6 1.8 2.5 4.45l2.55 3.4h-.25L84.5 51.2l-2.7-4.25v-.45h.15" fill="url(#v)"/><linearGradient id="w" gradientUnits="userSpaceOnUse" gradientTransform="matrix(.00513 0 0 .0151 79.95 31.4)" x1="-819.2" x2="819.2"><stop offset="0" stop-color="#985a26"/><stop offset=".549" stop-color="#daa477"/><stop offset=".941" stop-color="#9c5e2c"/></linearGradient><path d="M81.2 43.8l-.2-.05q1.45-2.15 2.15-3.9h.25q-.75 1.95-2.2 3.95" fill="url(#w)"/><linearGradient id="x" gradientUnits="userSpaceOnUse" gradientTransform="matrix(.00491 0 0 .01675 84.85 64.1)" x1="-819.2" x2="819.2"><stop offset="0" stop-color="#985a26"/><stop offset=".549" stop-color="#daa477"/><stop offset=".941" stop-color="#9c5e2c"/></linearGradient><path d="M81.65 54.35l-.8-2.2V50.4h.1q.05 1.8.9 3.95h-.2" fill="url(#x)"/><linearGradient id="y" gradientUnits="userSpaceOnUse" gradientTransform="matrix(.00247 0 0 .0064 57.65 37.6)" x1="-819.2" x2="819.2"><stop offset="0" stop-color="#985a26"/><stop offset=".549" stop-color="#daa477"/><stop offset=".941" stop-color="#9c5e2c"/></linearGradient><path d="M55.8 39.85h.2l.45 1.4q.75 1.25 2.35 1.5l-.15.1q-1.7 0-2.5-1.75l-.35-1.25" fill="url(#y)"/><linearGradient id="z" gradientUnits="userSpaceOnUse" gradientTransform="matrix(.00381 0 0 .0126 57.6 55.6)" x1="-819.2" x2="819.2"><stop offset="0" stop-color="#965824"/><stop offset=".549" stop-color="#daa477"/><stop offset=".941" stop-color="#9c5e2c"/></linearGradient><path d="M59.65 45.3q1.1 2.7 1.1 7l-.15 2.05h-.25l.15-2.05q0-3.2-.95-7h.1" fill="url(#z)"/><linearGradient id="A" gradientUnits="userSpaceOnUse" gradientTransform="matrix(.00516 0 0 .01257 53.65 53.85)" x1="-819.2" x2="819.2"><stop offset="0" stop-color="#965824"/><stop offset=".549" stop-color="#daa477"/><stop offset=".941" stop-color="#9c5e2c"/></linearGradient><path d="M57.9 43.7q0 1.85-4.05 8.85l-1 1.8h-.3l.85-1.45 2.65-4.75.85-2.4q.45-1.45.95-2.15l.05-.05v.15" fill="url(#A)"/><linearGradient id="B" gradientUnits="userSpaceOnUse" gradientTransform="matrix(.00427 0 0 .01633 61.15 57.9)" x1="-819.2" x2="819.2"><stop offset="0" stop-color="#965824"/><stop offset=".549" stop-color="#daa477"/><stop offset=".941" stop-color="#9c5e2c"/></linearGradient><path d="M63.3 54.35l-1.1-2.55q-1.9-3.85-2.1-5.6 1.15 3.35 2.75 6.5l.75 1.65h-.3" fill="url(#B)"/><linearGradient id="C" gradientUnits="userSpaceOnUse" gradientTransform="matrix(.00708 0 0 .01913 82.9 63.2)" x1="-819.2" x2="819.2"><stop offset="0" stop-color="#985a26"/><stop offset=".549" stop-color="#daa477"/><stop offset=".941" stop-color="#9c5e2c"/></linearGradient><path d="M77.25 54.35l.3-2.5q.6-3.3 1.8-4.3-1.05 1.4-1.6 4.55l-.25 2.25h-.25" fill="url(#C)"/><linearGradient id="D" gradientUnits="userSpaceOnUse" gradientTransform="matrix(.00409 0 0 .01321 55.25 62.6)" x1="-819.2" x2="819.2"><stop offset="0" stop-color="#8b4e29"/><stop offset=".549" stop-color="#be8659"/><stop offset="1" stop-color="#6d2e0d"/></linearGradient><path d="M58.55 51.8l.05.5-.25 2.05h-.4l.45-2.55h.15" fill="url(#D)"/></g></svg>