<svg xmlns="http://www.w3.org/2000/svg" width="25" height="77"><g transform="translate(-57.45 -22)"><linearGradient id="a" gradientUnits="userSpaceOnUse" gradientTransform="matrix(-.00401 .04147 -.0318 -.00307 69.65 48.15)" x1="-819.2" x2="819.2"><stop offset=".008" stop-color="#77625c"/><stop offset="1" stop-color="#d9c0ac"/></linearGradient><path d="M77.85 25.45l.4.65q6.05 10.45 2 34.65-.3 13.85-4.6 28.35Q54.8 118.55 58.4 57.85q-3.2-25.5 4.65-33.15 7.9-5.8 14.8.75" fill="url(#a)"/><linearGradient id="b" gradientUnits="userSpaceOnUse" gradientTransform="matrix(.00153 .00381 -.00316 .00128 65.5 52.2)" x1="-819.2" x2="819.2"><stop offset=".008" stop-color="#a68f82"/><stop offset=".475" stop-color="#c7b1a5"/><stop offset=".988" stop-color="#b39b8d"/></linearGradient><path d="M65.2 55l-.35-5.6.65 2 .3-1.4q.6 1.6.3 3.35L65.2 55" fill="url(#b)"/><linearGradient id="c" gradientUnits="userSpaceOnUse" gradientTransform="matrix(-.00027 .00662 -.00623 -.00024 76.25 52.9)" x1="-819.2" x2="819.2"><stop offset=".008" stop-color="#a68f82"/><stop offset=".475" stop-color="#c7b1a5"/><stop offset=".988" stop-color="#b39b8d"/></linearGradient><path d="M75.6 58q-.75-1.85-.75-3.75l-.45 2.1q-.65-2.8.3-6.05l-.05 2.7q.35-2.4 2.1-4.8-.95 3.1-.85 6.1l1.3-5.75.2 3.05.6-3.8.35 3.45q0 3.6-2.75 6.75" fill="url(#c)"/></g></svg>