<svg xmlns="http://www.w3.org/2000/svg" width="29" height="46"><g transform="translate(-59.1 -19.3)"><path d="M64.05 51.6l1.1.65.15 1.1.05.55.1 2.6v1.35l-.1.4-.2 1.5Q65 60 65 60.3h.5q1.55-5.1 1.5-9.7l-.6-.45-2.05-1.6q-1.6-1.9-2.6-4.05.4 1.05 2.15 4.5v.1l-2.1-2.3q-7-15.4 4-26.2l.2.05q6.65-3.3 11.15 1.5 5.7 9.45 2.75 21.6l-.15.65q-1.35 6.35.2 13.1-.2 2.8-1.95 3.25l-.4.05q-3.4.95-2.8 3.55-2.85-.6-2.7-3.55-1.95 1.55-1.7 4-2.65-1.5-3-4.4-.55 1.75.4 3.35-4.1-2.45-4.1-7.8l.25-2.75-.15-1.95.25.35" fill="#210c00"/><linearGradient id="a" gradientUnits="userSpaceOnUse" gradientTransform="matrix(.00229 .00038 -.00023 .00652 62.55 46.8)" x1="-819.2" x2="819.2"><stop offset="0" stop-color="#451b0d"/><stop offset=".957" stop-color="#241207"/></linearGradient><path d="M63.8 51.25l-.2-.25-.35-.6Q62 48.2 61.7 46.8h.1l2.1 2.3V49q-1.75-3.45-2.15-4.5 1 2.15 2.6 4.05l2.05 1.6.6.45q.05 4.6-1.5 9.7H65q0-.3.15-.55l.2-1.5.1-.4V56.5l-.1-2.6-.05-.55-.15-1.1-1.1-.65-.25-.35" fill="url(#a)"/><path d="M84.4 42.7l.95-.2-.85.6q.65.3 1.4-.55-.75 1.1-1.55 1 .7.4 1.8-.4-.65.75-1.9.95l2.15.1-5.75.2-.1-.8q1.2.6 3.15.5l-2.35-.65 2.3.15-2.2-.9q2.2.65 2.9 0h.05" fill="#5c230f"/><linearGradient id="b" gradientUnits="userSpaceOnUse" gradientTransform="matrix(.00497 .00087 -.0004 .00229 82.5 42.15)" x1="-819.2" x2="819.2"><stop offset="0" stop-color="#301308"/><stop offset=".486" stop-color="#7d4733"/></linearGradient><path d="M81.2 40q1.15 2.6 3.15 2.7-.7.65-2.9 0l2.2.9-2.3-.15 2.35.65q-1.95.1-3.15-.5 0-1.85.65-3.6" fill="url(#b)"/><linearGradient id="c" gradientUnits="userSpaceOnUse" gradientTransform="matrix(.00058 -.00638 .00597 .00055 83.95 34.55)" x1="-819.2" x2="819.2"><stop offset="0" stop-color="#5b3126"/><stop offset=".471" stop-color="#9d6046"/><stop offset="1" stop-color="#5e3327"/></linearGradient><path d="M84.25 39.25l-2.5-.05 1.25-.25q1.05-.35 1.95-1.2l.15-.15q1.3-2.25-.45-6.3 1.05 1.1 1.65 3.75-.2-5.05-4.05-5.8 1-.7 3.65.9l.15.25q1.6 2.45 1.3 5.45l-.25 1.05q-.45 2-2.55 3.5l1-1.25q-1.35 1.15-3.15 1 1.05-.05 1.85-.9" fill="url(#c)"/><linearGradient id="d" gradientUnits="userSpaceOnUse" gradientTransform="matrix(-.00108 .00627 -.00562 -.0011 83.95 33.95)" x1="-819.2" x2="819.2"><stop offset="0" stop-color="#26140f"/><stop offset=".455" stop-color="#754432"/><stop offset="1" stop-color="#3b2018"/></linearGradient><path d="M82.4 40.15l-.45-.1-1-.2L82 28.45q2.5.05 3.9 1.7-2.65-1.6-3.65-.9 3.85.75 4.05 5.8-.6-2.65-1.65-3.75 1.75 4.05.45 6.3l-.15.15q-.9.85-1.95 1.2l-1.25.25 2.5.05q-.8.85-1.85.9m1.8-6.7q.9 2.7 0 4.6 1-1.05.95-3.4-.25-2.6-1.45-4.45l.1 2.6q-.4-2.3-1.15-2.95Q83.8 35.3 82 38.4q1 0 1.7-2.1l-.7 2.65q1.45-1.55 1.2-5.5" fill="url(#d)"/><linearGradient id="e" gradientUnits="userSpaceOnUse" gradientTransform="matrix(-.00093 .0055 -.00562 -.0011 83.95 33.95)" x1="-819.2" x2="819.2"><stop offset="0" stop-color="#5b3126"/><stop offset=".471" stop-color="#9d6046"/><stop offset="1" stop-color="#5e3327"/></linearGradient><path d="M83 38.95l.7-2.65q-.7 2.1-1.7 2.1 1.8-3.1.65-8.55.75.65 1.15 2.95l-.1-2.6q1.2 1.85 1.45 4.45.05 2.35-.95 3.4.9-1.9 0-4.6.25 3.95-1.2 5.5" fill="url(#e)"/></g></svg>