<svg xmlns="http://www.w3.org/2000/svg" width="27" height="32"><g transform="translate(-56.3 -20.2)"><linearGradient id="a" gradientUnits="userSpaceOnUse" gradientTransform="matrix(-.00067 .0022 -.00311 -.00095 80.45 43.15)" x1="-819.2" x2="819.2"><stop offset="0" stop-color="#370a00"/><stop offset=".855" stop-color="#481e08"/></linearGradient><path d="M78.7 45.25Q81 43.3 81.65 41l-1.05 1.85.7-1.65-2.35 3.15h-.05l.35-1.35h.05q.8-.15 1.15-1.6l1.75-.85.05-.05h.05l-.05.2q-.45 1.85-2.65 4.35h-.05l-.7.55-.35.2.05-.1.15-.45" fill="url(#a)"/><path d="M58.85 41.2l-.05-.05-.4-.3-1.05-2.25.35 1.3-.35-.8-.3-.7-.15-.85-.05-.2.05.15.4.8v.05l.5.45-.45-.65v-.05l-.05-.35.5.55-.25-.65.05.05.1.15.05.05.8 2.6.3.7" fill="#260406"/><linearGradient id="b" gradientUnits="userSpaceOnUse" gradientTransform="matrix(.00444 0 0 .0051 59.95 43.75)" x1="-819.2" x2="819.2"><stop offset="0" stop-color="#8f5732"/><stop offset=".553" stop-color="#6f341c"/><stop offset=".941" stop-color="#7d4d26"/></linearGradient><path d="M63.5 47.75l.1.15h-.3l-1-1.4.25.8-.8-1.05.35 1.3-1.2-1.75-1.65-1.5-.75-.95-.85-1.45.25 1.15-1.25-2.3-.35-1v-.1l.25.4q.7 1.25 1.6 1.8l.55 1.2 1 1.45.4.45.1.05-.3-.65.3.4 1.15 1 .35.15-.35-.5h.05l1.25 1 .1.1.1.1.65 1.15" fill="url(#b)"/><linearGradient id="c" gradientUnits="userSpaceOnUse" gradientTransform="matrix(.00424 0 0 .0052 59.8 44)" x1="-819.2" x2="819.2"><stop offset="0" stop-color="#ab7950"/><stop offset=".553" stop-color="#996a42"/><stop offset=".941" stop-color="#9c6c44"/></linearGradient><path d="M63.3 47.9l-.9-.35.45.7-1.6-1.4-.7-1.05-.25-.4.1.45-.05-.05-.45-.4-.3-.35-1.2-1.6-.2-.3.1.35.6 1.1-.85-.9q-.7-.85-1.15-1.85-.45-.95-.6-2.1l.35 1 1.25 2.3-.25-1.15.85 1.45.75.95 1.65 1.5 1.2 1.75-.35-1.3.8 1.05-.25-.8 1 1.4" fill="url(#c)"/><path d="M78.7 45.25l-.15.45q-5.3 5.8-8.8 5.95-3.2-.8-6.25-3.9l-.65-1.15-.1-.1-.1-.1-.95-1.7.4 1.15-.7-.7-.65-.95.35.9-.8-.7-.45-.6-.1-.15.1.4-.05-.05-.9-1.25-.3-.65.2.05-.4-.3.15.1.5.15-.35-.2.55.1-.4-.75v-.05l-.3-.7-.8-2.6-.05-.05-.1-.15-.05-.05.25.65-.5-.55.05.35v.05l.45.65-.5-.45v-.05l-.4-.8v-.3q-.25-10.35 7.15-15.45 6.95-2.95 12-.25l1.1.8q1 .7 2.45 2.95 1.25 2.1 1.95 4.55.65 2.3.85 4.9l.05 2.7-.25 3.1v.05l-1.75.85q-.35 1.45-1.15 1.6h-.05l-.35 1.35-.2.9" fill="#160000"/><linearGradient id="d" gradientUnits="userSpaceOnUse" gradientTransform="matrix(.00272 0 0 .0028 60.4 44.15)" x1="-819.2" x2="819.2"><stop offset="0" stop-color="#431508"/><stop offset=".941" stop-color="#6d381e"/></linearGradient><path d="M61.4 45.4h-.05l.35.5-.35-.15-1.15-1-.3-.4.3.65-.1-.05-.4-.45-1-1.45-.55-1.2.45.25.3.65.9 1.25.05.05-.1-.4.1.15.45.6.8.7-.35-.9.65.95.7.7-.4-1.15.95 1.7-1.25-1" fill="url(#d)"/><linearGradient id="e" gradientUnits="userSpaceOnUse" gradientTransform="matrix(.00249 -.00357 .0021 .00148 80.15 43.15)" x1="-819.2" x2="819.2"><stop offset="0" stop-color="#370a00"/><stop offset=".49" stop-color="#6c2e20"/><stop offset=".855" stop-color="#481e08"/></linearGradient><path d="M78.9 44.35h.05l2.35-3.15-.7 1.65L81.65 41q-.65 2.3-2.95 4.25l.2-.9" fill="url(#e)"/></g></svg>