<svg xmlns="http://www.w3.org/2000/svg" width="249" height="497"><path d="M3.75 141.6l.05 1.25v.2l.1 2.4v1.15l-.1-.6-2.95-14.55-.55-2.8 2.85 10-1.25-5.6 2.1 1.4-.25 7.15m21.5 73.85q-4.05-8.6-6.75-17.45l.85.9 6.6 17.95-.7-1.4m5.8 16.45q-.1-.6-.45 6.25l-.05-.4.25-7.3-.05.2q-.55 1.5-2.4-7.2l3.15 8.65-.15 1.95-.2-1.15-.1-1" fill="#281d13"/><path d="M41.4 259.3l2.65-1 .05.05 4.05 11.45q2.35 7.95 4.1 18.6v.05l.85 5.95q1.1 8.05-.7 16.9-.05-8.7-2.25-22.55-2.9-12.35-8.75-29.45m18.8 22.25l.05.3 3.7 21.95q-2.55-12.25-5.65-21.3l-.1-.3-.1-.25 2.05-.75.05.35m168.3 45.1l3.75 1.2q-.9 2.4-1.45 5.15-.4 1.85-.65 3.9l-.7-3.8-.95-6.45m-161.55-76.7l2.95-2.7q2.6 5.05 4.9 8.95l-.3.45h-.05q-3.75-2.8-7.4-6.55l-.1-.15m-35.8-17.05l.15 1.75v1.75l-.05.65v.1l.05.6h-.05l-.05.45-.4 3.05-.05-.55v-1l-.15-1.55q.35-6.85.45-6.25l.1 1" fill="#452f21"/><linearGradient id="a" gradientUnits="userSpaceOnUse" gradientTransform="scale(0)" x1="-819.2" x2="819.2"><stop offset=".012" stop-color="#3e231d"/><stop offset=".494" stop-color="#583b2d"/><stop offset="1" stop-color="#896144"/></linearGradient><path d="M51.35 227.25q-1.15.6-2.35 1.15l-.05-.15 2.4-1" fill="url(#a)"/><linearGradient id="b" gradientUnits="userSpaceOnUse" gradientTransform="matrix(.03824 .03029 -.0033 .00417 53.95 241.5)" x1="-819.2" x2="819.2"><stop offset=".012" stop-color="#3e231d"/><stop offset=".494" stop-color="#583b2d"/><stop offset="1" stop-color="#896144"/></linearGradient><path d="M48.95 228.25q-5-11-7.1-23l.9 2.7 2.5 6.5q2.5 5.95 6.1 12.8l.9 1.65q6 11.05 12.55 18.65l2.15 2.4.1.15q3.65 3.75 7.4 6.55h.05l.3-.45q-2.3-3.9-4.9-8.95l-.15-.25-.1-.2q-5.05-9.65-7.4-16.95 2.8 6.1 7 12.7l2.2 3.35.15.15v.05q3.05 4.5 6.8 9.25l3.6 4.5 7.5 8.55q8.2 8.95 15.5 15.7-24.85-13-40.7-31.7l-2.15-2.65-.1-.15q-5.55-6.95-9.65-14.4-1.85-3.35-3.4-6.8 1.2-.55 2.35-1.15l-2.4 1" fill="url(#b)"/><linearGradient id="c" gradientUnits="userSpaceOnUse" gradientTransform="matrix(.11643 .18014 -.12526 .08093 108.25 200.55)" x1="-819.2" x2="819.2"><stop offset=".012" stop-color="#48261f"/><stop offset=".494" stop-color="#3f261a"/><stop offset="1" stop-color="#875735"/></linearGradient><path d="M228.5 326.65l-1.45-7.95q-1.35-5.7-3.4-9.7-2.7-5.25-7.8-9.15l-3.55-2.4-.15 3.7q0 7.6 2.15 15.05 1.25 4.4 4.55 12.35l1.65 4.1.7 1.8-1.85-2.05-4.75-4.85-3.7-3.65-2.3-2.35-.35-.35v-.05l-2.95-3.45-1.75-2.25 1.35 2.55.15.25q2.75 5.25 6.65 11.45l3.85 6.2v.05l2.2 3.65 5.15 9.5 1.7 4.05.25.65 1.7 5.55.75 3.45.4 2.8v.1l.05.3.25 5.1q0 7.65-.55 9.3-.7 1.9-4.6 8.85.8-3.85.8-5.75 0-8.5-2.4-13.8l-1.75-3q-2.65-3.65-10.5-8l-5-2.9-6.8-11.95-18.45-31.35q.15-.1.35-.25 2.75 4.4 14.45 13.95 6.3 5.15 13.15 10.2l1.55-2.1q-3.45-6.45-6.45-14.35l-.15-.5q-2.2-5.7-3.65-10.7-1.2-3.95-1.95-7.45-1.45-6.6-1.45-11.65l.7-.2q1.2 5.15 3.6 10.7 2.85 6.4 7.35 13.45l1.6 2.45.85 1.25.65.9 1.7-.55-.1-.35-.05-.15q-4.05-13.85-4.05-26.25l.45-6.65q.45-5.55.85-7 1.25 4.85 4.85 10.85l1.45 2.3v.05l4.65 7.25 2.1 3.2q2.3 3.85 4.1 7.75l.4.9.6 1.45-.35-1.6-.25-.95-2.8-9.15-4.5-11.35q-2.6-6.8-3.65-12.1-.8-3.8-.8-6.9 0-8.4 3.55-20.5v-.05l-1.35-.4v.05l-.2.55-.05.05v.05q-5.9 15.85-12.85 22l-.45.4-.85 2.1-1.3-.55q6.4-9 11.2-25.7l1.75-6.75q5.85-23.85 5.85-47.5v-.25q-.05-8-1.85-20.2-1.95-13.2-6-31.25l-.55.1q4 18.5 4 31.45 0 10.75-.55 19.85-1.45 24.5-6.85 36.8-1.25 2.85-6.9 12.5l-1.6 2.9-.05.15q-3.25 6.1-5.2 12.3h-1.8q-3-7-4.8-18.5l-.1-.7q-2.05-13-2.05-28.4l-3-.7-1.35 5.65q-1.85 9.8-1.85 24.55 0 27.65 4.15 46.9 1.75 8.2 4 13.65l1.15 3.5-1.35-3.35-5.5-12.95v-.05l-2.8-6.25-14.05-30.3-1.55-3.35q-16.3-35.95-23.25-61.8-.65 20.1 15.2 64.55l.25.8 1 2.8q4.95 13.5 11.9 30.8 6.3 15.5 6.45 16.35l-.15.2q-5.75-5.15-11.5-12l-.2-.25q-9.45-11.35-18.95-27.35-10.4-17.45-19.7-38.55-3.7-8.25-7.2-17.05l-.1-.3-.15-.4q-10.9-27.3-17-51.45l-.1-.45q-3.2-12.6-4.15-20.7l-.4-4.7-.05.2q-.55 2.85-.55 4.6 0 10.4 1.35 21.5l.05.15q3.05 25 12.95 53.4l.15.45.1.35.05.05.05.2q3.1 8.75 6.85 17.85 8.7 21 19.3 39.75l1.65 2.9.7 1.2.05.05 1.95 3.35q5.7 9.75 12.35 20.3l.6-.4 16.5 22.65 7.2 9.75 7.65 10.6q4.85 7 7.5 11.4v.05q3.05 5.15 5.15 10.15v.05q1.85 4.45 2.95 8.8 2.35 9.5 2.35 23.4 0 5.25-.8 11.15-1 7-3.15 14.95-3.95 14.7-3.95 25.9 0 8.35 4.05 16.8l1.65-.7.75 1.5q1.45 2.5 4.15 5.4l-.5.45 7.1 7.2.6.55q2.3 2.65 3.6 5.4-12-8.05-18.5-13.7l-2.1-1.9-2.05-2.05q-11.1-11.8-11.1-26.05 0-7.1 5.3-21.5l.55-1.25 2.9-7.3 1.8-4.7-.4-1.55-.6-1.25-.2-.3q-2.3 3-8.75 8.25-3.4 2.75-5.85 5.85.95-3.65 2.2-7.55l5.65-18.9q2.65-10.45 2.65-18.4 0-6.75-2.15-14.2-1.1-3.6-1.6-6.85-.6-3.2-.6-6.05l-.1-.2-.65-1.55q-4.2-9.55-12.8-21.5-5.15-7.25-11.9-15.3l-.05-.05-2.15-2.55-.25-.3-18.5-21.6-.5-.6-2.55-3-.95-1.15-1.5-1.85-.05-.05q-9.5-11.6-17.65-22.55l-1.3-1.75-7.2-10.05Q90.25 215.3 77 192.8l-1.5-2.55-1.7.95q-2.65-6.2-4.9-12.6-5.05-14.25-8.2-29.3-3-14.5-4.3-29.75l-.1-1.25q-.85-10.6-.85-21.55 0-8.5.8-16.75-1.7 8.2-2.95 16.45-.75 4.85-1.25 9.75-.8 6.55-1.25 13.1-.65 9.65-.65 19.3 0 30.1 5.85 54.1l2.2 8.2.25.85.05.05q2.15 7.1 5.15 14.4.95 2.35 2.05 4.7l-4.55-6.6q-3.35-5.2-6.75-11.15l-.05-.1-3.95-7.25-.1-.15-.75-1.45q-7.25-13.9-12.4-27.35-4.65-12-4.65-15.45l.15-1.3v-.1l-.35-.1-.05.1-.2 1.4q-.45 2.75-.45 3.95 0 8.6 5.75 24.5 4.05 11.2 9.8 22.9l1.2 2.4.4.85 3.05 5.85q3.7 6.85 7.5 12.9l6.4-3.85-6.35 4 3.05 4.75.05.05q4.2 6.4 8.5 11.75 4.4 5.55 8.5 9.45 3.5 3.35 6.8 5.55 3.15 4 7.45 8.9 10.3 11.75 13.85 16.55l.05.05.1.1.1.2q5.65 7.6 9.35 15.75l-1.3-.85h-.05l-1.65-1.05-11.1-7.1-15.15-9.7q-13.35-6.5-26.7-21.65l-1.35-1.55-.05-.1q-6.6-7.7-13.2-17.5 3.1 7.15 7.4 21.25l.05.05.9 3.1 5.2 18.3-2.05.75-1.65-4.35-.15-.4-2.75-6.1-.9-1.85-.7-1.35-.05-.1-1.35-2.5-.5-.85q-3.7-6.65-8.65-14.05l2.65 7.9-2.65 1-.05-.05-4.25-11.95-.05-.15-.05-.1-3.85-10.55-.75-1.95-.1-.3-.8-2.15-3.15-8.65-.6-2.9-.55-1.2-1.25-2.5-6.6-17.95-.85-.9-2.9-10.5q-3.95-15.5-9.35-42.05l-2.25-11-2.1-1.4-.55-2.95-.4-2.65-.35-3.1Q0 118.4 0 112.2q-.05-46.5 35.75-79.35Q58.9 11.6 88.3 4.1l4.2-1Q106.65 0 122.25 0q15.55 0 29.7 3.1 31.9 7 56.7 29.75 23.5 21.6 31.6 49.1l.35 1.2.9 3.45 1 4.45q1.95 10.15 1.95 21.15v1.45l-.15 4.2v.25l1.1-.2q3.75 18.7 3.35 36.3-.55 23.55-8.55 45.15-2.8 7.5-6.5 14.75l-.25.5 1.6.8-9.7 27.05-.05.25-1 3.05-1.3 4.2-.95 3.7-.4 1.95v.05q-.7 3.4-.7 5.8 0 9 2.5 15.15 1.45 3.7 5.45 9.15 3.95 5.4 5.4 9.2 2.5 6.25 2.5 15.4 0 7.4-3.45 14.8l-1.1 2.7-3.75-1.2m-71.95 5.2l1 3.4 1.9 6.8.55 2.25q1.1 5.25 1.1 9.15v.55l-.05 2.7q-.3 8.9-2.25 16.45-1.2 4.55-2.95 8.6-1.4 3.25-3.55 6.8-3.2 5.1-7.95 10.85-5.2 6.25-8.25 10.5-2.2 3.05-3.3 5.1-5.25 9.7-5.25 22.15v.65l-1.6-4.1q-1.9-5.45-1.9-8 0-6.15 2.5-10.9.8-1.5 5.4-7.85l.05-.1q3.75-5.15 5.45-10.2 2.5-7.25 6.6-24.8 4-17.35 4.2-35.1v-.5l-.1-4.15q-.6-8.75-3.75-14.25-4.35-16.75-11.2-28.65l-6.45-9.9-5.95-8.3-4.85-6.7-6.15-9.05-3.3-5.2-.55-.9 1.1 1.6 10.65 15.45 9.1 13.05q8.3 12.05 13.85 20.8l6.05 9.95.6 1.1.45.75.75 1.35q6.2 11.35 9.05 21.05l-1-2.4m20.7 141.35q5.45 6.95 7.45 11.7 2.4 5.7 2.2 12.05l-.35-.7q-3.85-7.85-14.05-18.65l-.7-.75-16.8-17.8q-8-9.65-8-16.7 0-21.1 10.15-42.9l6.95-15.15q3.15-8 3.15-14.55 0-4.85-2.95-15.75-2-7.45-4.65-14.5-1.35-16.45-6.1-29l-.6-1.5-.35-.85q-2.25-5.3-5.95-12.1l4.9 4.95 2 2.25q16.05 18.65 20.65 43.9l.85 5.45.1.5q.9 7.4.9 15.3 0 10.85-2.9 21.05-1.85 6.65-6.3 16.75-4.85 10.95-6.35 15.55-2.9 8.9-2.9 17.55 0 5.55.55 9.45l.05.3q.65 4.5 2.1 6.8 1.9 2.85 13.05 12.15l3.9 5.2M66.95 249.95l-2.15-2.4q-6.55-7.6-12.55-18.65l-.9-1.65q-3.6-6.85-6.1-12.8l-2.5-6.5-.9-2.7q2.1 12 7.1 23l.05.15q1.55 3.45 3.4 6.8 4.1 7.45 9.65 14.4l.1.15 2.15 2.65q15.85 18.7 40.7 31.7-7.3-6.75-15.5-15.7l-7.5-8.55-3.6-4.5q-3.75-4.75-6.8-9.25v-.05l-.15-.15-2.2-3.35q-4.2-6.6-7-12.7 2.35 7.3 7.4 16.95l.1.2.15.25-2.95 2.7" fill="url(#c)"/><linearGradient id="d" gradientUnits="userSpaceOnUse" gradientTransform="matrix(.11643 .18014 -.12526 .08093 108.25 200.55)" x1="-819.2" x2="819.2"><stop offset=".012" stop-color="#311914"/><stop offset=".494" stop-color="#27160d"/><stop offset="1" stop-color="#5d3920"/></linearGradient><path d="M67.65 179.05q-4.2-13.8-7.35-29.65-2.8-14.05-4.85-29.75 1.2 15.6 3.25 30.1 3.55 24.95 9.6 46.7l.05.1Q75.1 220.8 84.95 241q2.45 5.05 12.25 22.35l7.05 12.45 3.45 6.25-.1-.1-.05-.05q-3.55-4.8-13.85-16.55-4.3-4.9-7.45-8.9-3.3-2.2-6.8-5.55-4.1-3.9-8.5-9.45-4.3-5.35-8.5-11.75l-.05-.05-3.05-4.75 6.35-4-6.4 3.85q-3.8-6.05-7.5-12.9L48.75 206l-.4-.85-1.2-2.4q-5.75-11.7-9.8-22.9-5.75-15.9-5.75-24.5 0-1.2.45-3.95l.2-1.4.05-.1.35.1v.1l-.15 1.3q0 3.45 4.65 15.45 5.15 13.45 12.4 27.35l.75 1.45.1.15 3.95 7.25.05.1q3.4 5.95 6.75 11.15l4.55 6.6q-1.1-2.35-2.05-4.7-3-7.3-5.15-14.4l-.05-.05-.25-.85-2.2-8.2q-5.85-24-5.85-54.1 0-9.65.65-19.3.45-6.55 1.25-13.1.5-4.9 1.25-9.75Q54.55 88.2 56.25 80q-.8 8.25-.8 16.75 0 10.95.85 21.55l.1 1.25q1.3 15.25 4.3 29.75 3.15 15.05 8.2 29.3l-1.25.45m104.65 238.1q-3.8 8.3-4.8 22.25l-1.15-.1q-.9 2.7-.9 8.45 0 7.25 3.75 14.1 1.2 2.15 4.15 6.15-11.15-9.3-13.05-12.15-1.45-2.3-2.1-6.8l-.05-.3q-.55-3.9-.55-9.45 0-8.65 2.9-17.55 1.5-4.6 6.35-15.55 4.45-10.1 6.3-16.75 2.9-10.2 2.9-21.05 0-7.9-.9-15.3l-.1-.5-.85-5.45q-4.6-25.25-20.65-43.9l-2-2.25-4.9-4.95q3.7 6.8 5.95 12.1l.35.85.6 1.5q4.75 12.55 6.1 29l-2.1-5.25q-2.85-9.7-9.05-21.05l-.75-1.35-.45-.75-.6-1.1-6.05-9.95q-5.55-8.75-13.85-20.8l-9.1-13.05-10.65-15.45-1.1-1.6.55.9 3.3 5.2 6.15 9.05 4.85 6.7 5.95 8.3 6.45 9.9q6.85 11.9 11.2 28.65-2.15-3.7-5.45-5.9l-13.5-8.65q-1.05-12.15-4.35-22.35-1.5-4.5-3.4-8.65-3.4-7.25-9.3-16.1l-4.2-6.05-7.1-10.1q-15.35-22.25-24-44.95l3.9-2.3q13.25 22.5 27.15 42.35l7.2 10.05 1.3 1.75q8.15 10.95 17.65 22.55l.05.05 1.5 1.85.95 1.15 2.55 3 .5.6 18.5 21.6.25.3 2.15 2.55.05.05q6.75 8.05 11.9 15.3 8.6 11.95 12.8 21.5l.65 1.55.1.2q0 2.85.6 6.05.5 3.25 1.6 6.85 2.15 7.45 2.15 14.2 0 7.95-2.65 18.4l-5.65 18.9q-1.25 3.9-2.2 7.55-2.35 2.85-3.8 6m27.1 40.95l-1.65.7q-4.05-8.45-4.05-16.8 0-11.2 3.95-25.9 2.15-7.95 3.15-14.95.8-5.9.8-11.15 0-13.9-2.35-23.4-1.1-4.35-2.95-8.8v-.05q-2.1-5-5.15-10.15v-.05q-2.65-4.4-7.5-11.4l-7.65-10.6-7.2-9.75-16.5-22.65-.6.4q-6.65-10.55-12.35-20.3l-1.95-3.35-.05-.05-.7-1.2-1.65-2.9Q124.4 247 115.7 226q-3.75-9.1-6.85-17.85l-.05-.2-.05-.05-.1-.35-.15-.45q-9.9-28.4-12.95-53.4l-.05-.15q-1.35-11.1-1.35-21.5 0-1.75.55-4.6l.05-.2.4 4.7q.95 8.1 4.15 20.7l.1.45q6.1 24.15 17 51.45l.15.4.1.3q3.5 8.8 7.2 17.05 9.3 21.1 19.7 38.55 9.5 16 18.95 27.35l.2.25q5.75 6.85 11.5 12l.15-.2q-.15-.85-6.45-16.35-6.95-17.3-11.9-30.8l-1-2.8-.25-.8q-15.85-44.45-15.2-64.55 6.95 25.85 23.25 61.8l1.55 3.35 14.05 30.3 2.8 6.25v.05l5.5 12.95 1.35 3.35-1.15-3.5q-2.25-5.45-4-13.65-4.15-19.25-4.15-46.9 0-14.75 1.85-24.55l1.35-5.65 3 .7q0 15.4 2.05 28.4l.1.7q1.8 11.5 4.8 18.5h1.8q1.95-6.2 5.2-12.3l.05-.15 1.6-2.9q5.65-9.65 6.9-12.5 5.4-12.3 6.85-36.8.55-9.1.55-19.85 0-12.95-4-31.45l.55-.1q4.05 18.05 6 31.25 1.8 12.2 1.85 20.2v.25q0 23.65-5.85 47.5l-1.75 6.75q-4.8 16.7-11.2 25.7l1.3.55.85-2.1.45-.4q6.95-6.15 12.85-22v-.05l.05-.05.2-.55V248l1.35.4v.05q-3.55 12.1-3.55 20.5 0 3.1.8 6.9 1.05 5.3 3.65 12.1l4.5 11.35 2.8 9.15.25.95.35 1.6-.6-1.45-.4-.9q-1.8-3.9-4.1-7.75l-2.1-3.2-4.65-7.25v-.05l-1.45-2.3q-3.6-6-4.85-10.85-.4 1.45-.85 7l-.45 6.65q0 12.4 4.05 26.25l.05.15.1.35-1.7.55-.65-.9-.85-1.25-1.6-2.45q-4.5-7.05-7.35-13.45-2.4-5.55-3.6-10.7l-.7.2q0 5.05 1.45 11.65.75 3.5 1.95 7.45 1.45 5 3.65 10.7l.15.5q3 7.9 6.45 14.35l-1.55 2.1q-6.85-5.05-13.15-10.2-11.7-9.55-14.45-13.95-.2.15-.35.25l18.45 31.35 6.8 11.95-1.75-1.15-.65 1.05q2.25 2.85 4.2 6.45 1.95 3.55 3.55 7.85 3.7 9.75 3.7 18.35 0 3.4-.75 6.95l-.05.2-1.7 5.55q-1 2.8-5.4 12l-2.35 5.35q-5.15 12.5-5.55 23.85l-.05 1.9q0 9.1 2.2 13.95m1.7-211.7l.15-.1.05-.4-.2.5" fill="url(#d)"/><linearGradient id="e" gradientUnits="userSpaceOnUse" gradientTransform="matrix(.03165 .03926 -.01439 .01161 91.45 242)" x1="-819.2" x2="819.2"><stop offset=".012" stop-color="#5b3129"/><stop offset=".494" stop-color="#704633"/><stop offset="1" stop-color="#5d3920"/></linearGradient><path d="M68.3 196.45l4.8-1.35-4.75 1.45-.05-.1" fill="url(#e)"/><linearGradient id="f" gradientUnits="userSpaceOnUse" gradientTransform="matrix(-.02414 -.04675 .00806 -.00417 93.3 241.15)" x1="-819.2" x2="819.2"><stop offset=".012" stop-color="#46251e"/><stop offset=".494" stop-color="#5b3626"/><stop offset="1" stop-color="#2e1b0e"/></linearGradient><path d="M117.15 298q-3.7-8.15-9.35-15.75l-.1-.2-3.45-6.25-7.05-12.45q-9.8-17.3-12.25-22.35-9.85-20.2-16.6-44.45l4.75-1.45q8.65 22.7 24 44.95l7.1 10.1 4.2 6.05q5.9 8.85 9.3 16.1 1.9 4.15 3.4 8.65 3.3 10.2 4.35 22.35l-8.3-5.3M68.9 178.6q2.25 6.4 4.9 12.6l1.7-.95 1.5 2.55-3.9 2.3-4.8 1.35q-6.05-21.75-9.6-46.7-2.05-14.5-3.25-30.1 2.05 15.7 4.85 29.75 3.15 15.85 7.35 29.65l1.25-.45" fill="url(#f)"/></svg>