<svg xmlns="http://www.w3.org/2000/svg" width="26" height="43"><g transform="translate(-58.05 -20.85)"><linearGradient id="a" gradientUnits="userSpaceOnUse" gradientTransform="matrix(-.00136 .00385 -.00308 -.0009 80.5 44.15)" x1="-819.2" x2="819.2"><stop offset="0" stop-color="#060004"/><stop offset=".408" stop-color="#201115"/><stop offset="1" stop-color="#190a05"/></linearGradient><path d="M74.75 48.6l-.75.55-2.45-3.45-.85-1.25q-.6-1.3-1.25-4.45l-1.25-5.3q1.45 1.55 2.65 4.55l1.35 4-.25-4.4-.35-2.75.9 1.2q1.25 2.05 1.65 5.1.4-.6.6-5.9.45.45 1.15 3.65v2q.6-2.15.6-5.55v-.05l.5 2.2.5 3.1v.4l.2-.8.2-1.65q0-2.15-.55-4.55l-.8-2.4 1.3 1.95q.95 1.7 1.4 3.4v-1.15q.05-1.6-.7-3.7l-.3-.85.9 1.85 1.55 4.55.6 2.8.5 1.2q.6-1.2.9-3.4l.5-5.5v-.9l.3 3.4-.05.65-.15 1.8-.15 1.9-.4 2.9q-.35 1.2-1.25 2.45-.6.75-1.65 1.2l-.5.25.15-.1.15-.15-.35.2-.55.15-.7.1h-.55l-2.15.55-.6.2m-4.15-2.3l2.4 2.9h-.1l-2.05-.65-.25-.25q-1.35-1.3-2.85-3.65 1.75 1.8 3.7 2.95l-.9-1.25-1.65-2.2q-1.35-1.8-2.15-3.95-.8-2.1-.85-3.95.35.1 1.6 3.55l1.05 1.85q.3 2.15 2.05 4.65" fill="url(#a)"/><linearGradient id="b" gradientUnits="userSpaceOnUse" gradientTransform="matrix(.00182 .00946 -.00311 .00078 80.7 29.35)" x1="-819.2" x2="819.2"><stop offset="0" stop-color="#3a0d0d"/><stop offset=".408" stop-color="#5f2a2a"/><stop offset="1" stop-color="#10060a"/></linearGradient><path d="M83.2 34l-.5 5.5q-.3 2.2-.9 3.4l-.5-1.2-.6-2.8-1.55-4.55-.9-1.85-1.45-1.9-2-2q-3.6-3.2-6.6-3.2-1.25 0-2.3.5l-.25.2.25-.7.3-.3q-.25 0-1.5.55-.85.3-1.15.5.15-.85 1.2-1.8.7-.6 1.15-.85l-1.25.25-1.15.4.85-1.1.8-1.05q.9-1.15 3.9-1.15 6.65 0 10.8 5.15 1.95 2.45 2.85 5.25l.5 1.85v.9m-9.85 16.15l.45-.75.15-.2.05-.05.75-.55.6-.2q-.35.15-.4.6v1.45l.1 1.2.2.85 1.45 1.9 1.95 1.95q.95 1.15 1.1 2.6v.95l-.1 1.6-.1.75-.3-2.4-.55-1.25q-.45-.85-.7-.95l.35 1.5.25 1.3-.5-1.2q-.65-1.2-1.5-1.65l1 1.75q.45.85.45 2.15L78 62.9l-1.55-3.25-1.55-2.7.7 2.2-1.9-2.85q-.95-1.8-.95-4l.2-1.7.15-.25v-.05l.25-.15m3.2 7.4l.05.05v-.05h-.05" fill="url(#b)"/><linearGradient id="c" gradientUnits="userSpaceOnUse" gradientTransform="matrix(.00262 -.00398 .0055 .00363 64.15 30.15)" x1="-819.2" x2="819.2"><stop offset="0" stop-color="#855f3f"/><stop offset=".408" stop-color="#622d27"/><stop offset="1" stop-color="#270a0a"/></linearGradient><path d="M64.9 26.95q-.6.3-1.35 2-.95 2.2-.95 4.45 0 2.1.35 3.3.3 1.3 1.3 3.05l-1.6-2.9q-1.2-3.15-1.2-6.95l.05-.9q-.2.15-.35 1.5-.15 1.65-.15 3.45 0 1.05.75 3.4l-1-2.05q-.6-1.65-.6-3.65 0-1.3.25-1.75-.35.25-.75 1.6-.4 1.4-.45 2.8l-.2-1.75q0-2.35.65-4.6l.45-1.35q.4-.85.95-1.55 1.6-2.15 4-2.9l.1-.15-.8 1.05-.85 1.1 1.15-.4 1.25-.25q-.45.25-1.15.85-1.05.95-1.2 1.8.3-.2 1.15-.5 1.25-.55 1.5-.55l-.3.3-.25.7q-.65.35-.75.85" fill="url(#c)"/><linearGradient id="d" gradientUnits="userSpaceOnUse" gradientTransform="matrix(-.00136 .00385 -.00308 -.0009 80.5 44.15)" x1="-819.2" x2="819.2"><stop offset="0" stop-color="#8c5f38"/><stop offset=".408" stop-color="#b6865d"/><stop offset="1" stop-color="#775130"/></linearGradient><path d="M73.1 50.3h-.05l-.75.35-.8.15-.2-.05-.25-.05q-3.7-1-5.85-2.2h-.05v-.7l-.25-1.75-.1.9-.05.75v.55l-.1-.05-.35-.25-1.95-1.8-.2-.55q-.25-2.1-1.65-5.15-1.2-2.65-1.7-4.7-.4-1.5-.4-2.7l.25-2.55.7-2.3.75-1.6-.45 1.35Q59 30.2 59 32.55l.2 1.75q.45 2.6 2.2 5.9 1.05 1.95 2.05 3.35l-.85-3.6v-.55q1.95 4.8 4.4 6.95 1.55 1.35 3.85 2.2l2.05.65h.1l-2.4-2.9q-1.75-2.5-2.05-4.65l-.05-.85q.65 1.4 2.2 3.65l.85 1.25L74 49.15l-.05.05-.15.2-.45.75-.25.15m-11.4-4.85l-.1-.1-.05-.05q-.95-1-2.05-3.45l-.9-2.45-.15-.45-.15-1q-.25-1.45-.25-2.9v-.65l.2-2-.05.6.15 1.95q.35 2.4 1.5 5.6l1.85 4.9" fill="url(#d)"/><linearGradient id="e" gradientUnits="userSpaceOnUse" gradientTransform="matrix(-.00089 .00337 -.00047 -.0001 61.75 47.5)" x1="-819.2" x2="819.2"><stop offset="0" stop-color="#8c5f38"/><stop offset=".447" stop-color="#e9ba99"/><stop offset="1" stop-color="#f9e7c1"/></linearGradient><path d="M62.35 46.15l.05.25.05 1.1v.35l-.15 1.4-.15 1.4.15.65.15.65-.15-.35-.2-1.4.25-2.2-.25-1.5-.35-.95v-.05l-.05-.05-1.85-4.9q-1.15-3.2-1.5-5.6L58.2 33l.05-.6v-.15l.1-.35.3-1.4-.25 2.55q0 1.2.4 2.7.5 2.05 1.7 4.7 1.4 3.05 1.65 5.15l.2.55" fill="url(#e)"/><linearGradient id="f" gradientUnits="userSpaceOnUse" gradientTransform="matrix(-.00136 .00385 -.00308 -.0009 80.5 44.15)" x1="-819.2" x2="819.2"><stop offset="0" stop-color="#855f3f"/><stop offset=".408" stop-color="#6b312b"/><stop offset="1" stop-color="#270a0a"/></linearGradient><path d="M70.6 48.3l.25.25q-2.3-.85-3.85-2.2-2.45-2.15-4.4-6.95v.55l.85 3.6q-1-1.4-2.05-3.35-1.75-3.3-2.2-5.9.05-1.4.45-2.8.4-1.35.75-1.6-.25.45-.25 1.75 0 2 .6 3.65l1 2.05Q61 35 61 33.95q0-1.8.15-3.45.15-1.35.35-1.5l-.05.9q0 3.8 1.2 6.95l1.6 2.9.55 1q1.15 1.95 2.8 3.75l.15.15q1.5 2.35 2.85 3.65" fill="url(#f)"/><linearGradient id="g" gradientUnits="userSpaceOnUse" gradientTransform="scale(0)" x1="-819.2" x2="819.2"><stop offset="0" stop-color="#4a1a1a"/><stop offset=".408" stop-color="#331616"/><stop offset="1" stop-color="#10060a"/></linearGradient><path d="M64.25 39.75q-1-1.75-1.3-3.05-.35-1.2-.35-3.3 0-2.25.95-4.45.75-1.7 1.35-2 .1-.5.75-.85l.25-.2q1.05-.5 2.3-.5 3 0 6.6 3.2l2 2 1.45 1.9.3.85q.75 2.1.7 3.7v1.15q-.45-1.7-1.4-3.4l-1.3-1.95.8 2.4q.55 2.4.55 4.55l-.2 1.65-.2.8v-.4l-.5-3.1-.5-2.2v.05q0 3.4-.6 5.55v-2q-.7-3.2-1.15-3.65-.2 5.3-.6 5.9-.4-3.05-1.65-5.1l-.9-1.2.35 2.75.25 4.4-1.35-4q-1.2-3-2.65-4.55l1.25 5.3q.65 3.15 1.25 4.45-1.55-2.25-2.2-3.65l.05.85-1.05-1.85q-1.25-3.45-1.6-3.55.05 1.85.85 3.95.8 2.15 2.15 3.95l1.65 2.2.9 1.25q-1.95-1.15-3.7-2.95l-.15-.15q-1.65-1.8-2.8-3.75l-.55-1" fill="url(#g)"/><linearGradient id="h" gradientUnits="userSpaceOnUse" gradientTransform="matrix(-.0001 .0025 -.00073 -.00002 64.35 50.4)" x1="-819.2" x2="819.2"><stop offset="0" stop-color="#8c5f38"/><stop offset=".447" stop-color="#e9ba99"/><stop offset="1" stop-color="#f9e7c1"/></linearGradient><path d="M64.75 47.7l.05-.75.1-.9.25 1.75v.7h.05l-.1 1.05-.05.1-.35 2.05.05.55-.05.75-.15-1.25.2-1.25.2-1.55-.7 1.15q-.4.5-.4 1.1 0 .75.15 1l.05.15q-.35-.55-.35-1.1 0-1 .9-2l.05-.05v-.05h.05v-.05l.05-.3v-1.1" fill="url(#h)"/></g></svg>