<svg xmlns="http://www.w3.org/2000/svg" width="24" height="34"><g transform="translate(-58.8 -21.7)"><path d="M82.2 39.35v-.1q0-.75-.6-2.2l-.15-.3-1.15-2.55-.3-.5q-.3-.4-.4.55l-.35 3.95-.65 2.7-.1.4-.15.45-.35.9-1.15 2.45-.65.95q-2.25 2.5-2.75 3.4l-.2.4v.05h.15v.15l-.05.1-.6.2-1.4.2q-.95.1-4.5-1.2l-1-.35q-4.4-1.65-5.25-2.5-.85-.85-1.4-2.8l-.35-1.4.05-.45q-.2-2.15 0-4.2.2-2.45 1.2-6.3 1-3.85 4.4-6.7 3.4-2.9 6.05-2.95l3.1.15 1.25.45q.85.25 2.15 1.05 1.85 1.1 2.8 2.95 1.2 2.3 1.9 4.6.85 2.65.9 4.8v.3q0 1.6-.4 3.3l-.05.05M58.95 42.7l-.05-1.05v.2l.05.85" fill="#270d04"/><linearGradient id="a" gradientUnits="userSpaceOnUse" gradientTransform="rotate(134.929 32.28 36.423) scale(.00337 .00472)" x1="-819.2" x2="819.2"><stop offset="0" stop-color="#27130c"/><stop offset=".518" stop-color="#643527"/></linearGradient><path d="M80 33.7l.3.5 1.15 2.55.15.3q.6 1.45.6 2.2v.1l.05-.05v.1l-.45 1.9-.5 1.15-.05.05-.15.3-.2.4.1-.4.35-1.5.05-1.45-.35 1.45-.2.55v.05l-.35.9-.1.25.05-.25.05-.3.05-.5.05-.55V40.3l-.1-.95v-.25l-.05-.6-.15.4-.1.1-.4.4-.2-1.5-.05-.75-.2 1.15.35-4q.05-.75.3-.6" fill="url(#a)"/><linearGradient id="b" gradientUnits="userSpaceOnUse" gradientTransform="matrix(.00235 0 0 .00696 78.3 42.85)" x1="-819.2" x2="819.2"><stop offset="0" stop-color="#150909"/><stop offset="1" stop-color="#2b1611"/></linearGradient><path d="M77.8 48.4l-.25-.25q-.5-.55-1.15-1.9-2.2 2.6-2.65 3.45l-.15.35-.05-.2q-.05-.25-.1.05h-.2v-.05l.2-.4q.5-.9 2.75-3.4l.65-.95L78 42.65l.35-.9.15-.45.1-.4.65-2.7.35-3.95q.1-.95.4-.55-.25-.15-.3.6l-.35 4 .2-1.15.05.75.2 1.5.4-.4.1-.1.15-.4.05.6v.25l.1.95v1.15l-.05.55-.05.5-.05.3-.05.25.1-.25.35-.9v-.05l.2-.55.35-1.45-.05 1.45-.35 1.5-.1.4-.1.25-.25.55-.45 1.05-.05.15v.05l-.25 1.95-.7 1.6v.05l.45-.45v.55l-.05.15-.05.15v.05l.4-.4.05-.05-.25.7v.1l-.2-.15-.65-.45-.65-.4v-.05l-.1-.05-.25-.15" fill="url(#b)"/><path d="M79.85 48.9l-.4.4v-.05l.05-.15.05-.15v-.55l-.45.45v-.05l.7-1.6.25-1.95v-.05l.05-.15.45-1.05v1.25l.05.55-.55 2.4-.15.65-.05.05m-.6 5.8l.3.3h-.1l-.2-.3" fill="#3b1f15"/><path d="M75.85 51.35l.9-1.25.7-1.55-.4.55-.5.55.3-.8.15-.65-1.35 1.15 1.05-1.5h-.05l-2.4 2-.95.9.05-.6.05-.1v-.15h.05q.05-.3.1-.05l.05.2.15-.35q.45-.85 2.65-3.45.65 1.35 1.15 1.9l.25.25.25.15-.15.3-.8 1.3-.75.75L75 52.7l-.8 1.45q.6-1.55 1.65-2.8" fill="#100e0e"/><path d="M73.35 53.7v.3l-.15-.6-.1-1.25.1-.8.1-.6.95-.9 2.4-2h.05l-1.05 1.5L77 48.2l-.15.65-.3.8.5-.55.4-.55-.7 1.55-.9 1.25q-1.05 1.25-1.65 2.8l-.05.05-.1.15-.15.3v.1h-.05l-.05.25h-.05v-.7q.25-.9 1-1.95l1-1.3.65-.9.1-.15-.15.15-.15.2-.35.25.25-.45.2-.3.35-.6-1.15.9-.2.25q-.6.65-.8 1.4l.15-.85.1-.35.1-.4-.35.5-.4.6-.3.85q-.45.9-.45 1.55m1.45-3.9v-.05l-.1.1.1-.05" fill="#170c0c"/><linearGradient id="c" gradientUnits="userSpaceOnUse" gradientTransform="matrix(.00203 .00203 -.0026 .0026 78.65 52.4)" x1="-819.2" x2="819.2"><stop offset="0" stop-color="#251212"/><stop offset=".471" stop-color="#48271e"/><stop offset="1" stop-color="#2a1513"/></linearGradient><path d="M79.05 50.65l-.1-.1H79l.05.1" fill="url(#c)"/><linearGradient id="d" gradientUnits="userSpaceOnUse" gradientTransform="matrix(-.00305 .00305 -.004 -.004 77.05 53.7)" x1="-819.2" x2="819.2"><stop offset="0" stop-color="#150909"/><stop offset=".475" stop-color="#412822"/><stop offset="1" stop-color="#1c0d0c"/></linearGradient><path d="M74 53.05l.35-.95-.4.45-.4.5v-.15l.2-.6.05-.15.3-.85.4-.6.35-.5-.1.4-.1.35-.15.85q.2-.75.8-1.4l.2-.25 1.15-.9-.35.6-.2.3-.25.45.35-.25.15-.2.15-.15-.1.15-.65.9-1 1.3q-.75 1.05-1 1.95l.25-1.25" fill="url(#d)"/><linearGradient id="e" gradientUnits="userSpaceOnUse" gradientTransform="matrix(.00258 .00258 -.0026 .0026 78.95 52.55)" x1="-819.2" x2="819.2"><stop offset="0" stop-color="#090404"/><stop offset="1" stop-color="#361d16"/></linearGradient><path d="M78.4 52.85l.05.05h-.05v-.05" fill="url(#e)"/><path d="M74.7 49.85l.1-.1v.05l-.1.05"/><path d="M73.8 52.15l-.05.15-.2.6v.15l.4-.5.4-.45-.35.95-.25 1.25v.7h-.1l-.3-1v-.3q0-.65.45-1.55" fill="#20100a"/></g></svg>