<svg xmlns="http://www.w3.org/2000/svg" width="28" height="33"><g transform="translate(-55.75 -21.95)"><linearGradient id="a" gradientUnits="userSpaceOnUse" gradientTransform="matrix(-.0015 -.01172 .01683 -.00215 70.05 41.8)" x1="-819.2" x2="819.2"><stop offset="0" stop-color="#1e0806"/><stop offset=".518" stop-color="#350e10"/><stop offset="1" stop-color="#33100a"/></linearGradient><path d="M65 51.9q0-1.6-.85-2.5l.5 1.35.2 1.2q0 .8-.35 1.6l-.65.7.6-1.45-.2-1-.2-.65-.95-1.35.35.7-.1-.1-2.75-2.3q-4.1-3.4-4.7-7.7-.65-4.3 1.25-8.5t5.65-6.85q3.75-2.6 5.25-2.9l3.1-.15 1.85.3 2.05.95q1.8.8 4.1 2.6 2.25 1.8 3.25 5.25.95 3.45 1.05 6.7.1 3.25-.45 4.8l-1.25 2.95-1.8 3.1q-1.95 2.8-1.95 4v.15l.4 1.1-.25-.15-.15.05q-.3 0-.8-.75l-.2-.15h-.3l-.1-.35-.25-1.1-.5-1.8.35 1.8.2.85.1.6h-.15l.15.2v.05l.2.35.2.3-.15.05.1.1-.2-.05v-.05h-.1l-.25-.15-.55-.45-.3-.4-.25-.4.05.15.35.9.1.1-.05-.05v.05l-.05.05-.65-.7-.15-.15-.15-.15.45 1.05v.05l-.35-.25h-.1v.05l-.05-.05-.15-.15-.7-.65.1-1.1v-.45l-.2-.65.1.9-.1.85.05.5v.05l.25.95.4.5q-.6-.15-.95-.9l.05-.1v-.05l-.05-.3-.1.2-.25-.85-.25.95-.1-1.2-.2-.45v-.1l-.2.5-.55 1.5-.2-.85-.05-1.4q0 1.05-.95 3.25 0-.65-.55-1.6l-.55-1 .15 1.55-.05.85-1.25-2.1-.5-.8-.2-2.05-.05.4.1 1.45-.3-.6-.2-.6-.25-1-.05.5.3 1 .25 1.1.2.55-.1.45-.35-.35-.4-.5.05.55-.05.65-.1.3v-.1l-.15.15-.25.25-.05-.05.2-.35V53l-.05.15-.15-1.05.15.8-.3.65v-.05l.05-.4-.25-.8-.2-.35-.05-.25-.6-1.95.4 1.9.05.15-.15-.1-.4 1.2.1-1m2.7.45l.25.45-.3-.15.05-.3m7.1-2.55l.05.6.1 1 .05.25.05-.25.1.5v-.2l-.05-.4-.2-1.55-.05-.2-.05.25m0 .95l-.1-1.55-.05.7.15 1.45v-.15h.1l-.1-.4v-.05m.85.15l-.05-.5v.1l.05.4m-1.75.1l.05-.45h.1l-.05-.5h-.1V51m.25.35l-.1-.8.05.7.05.1m-7.65 0l.2.55-.25-.9-.75-1.3.6 1.25.2.5v-.1" fill="url(#a)"/><linearGradient id="b" gradientUnits="userSpaceOnUse" gradientTransform="translate(0 .4)" x1="-819.2" x2="819.2"><stop offset="0" stop-color="#250906"/><stop offset=".518" stop-color="#31090b"/><stop offset="1" stop-color="#310d07"/></linearGradient><path d="M76.5 53.05v-.15l-.1-.6-.2-.85-.35-1.8.5 1.8.25 1.1.1.35v.4l.1.1-.05.05-.05-.05v.1l-.2-.35v-.05l-.15-.2h.05l.1.15m.15.85l-.05.3h-.05v-.35h.1v.05m-1.45-1.45l.25.4.3.4-.5-.7v.05l-.05-.15m-.45 1.05l.35.25v-.05l.2.2-.6-.4h.05m-1-.8l-.05.05-.05-.5.1-.85-.1-.9.2.65v.45l-.1 1.1m-.35.65l-.35.4H73l.3-.65.1-.2.05.3v.05l-.05.1m-5.75-.7l-.35 1.05h-.05l.25-1.15.1-.45.05-.65-.2-.4-.3-.6-.3-1 .05-.5.25 1 .2.6.3.7v-.1l-.1-1.45.05-.4.2 2.05v.15l.45.8-.05.05-.4-.6-.1.6-.05.3m-2.25-1l-.4-1.9.6 1.95.05.25q.15 1.1.4 1.55v.05q-.45-.7-.6-1.75l-.05-.15m-.5 1.25q-.2.9-.9 1.5l.5-.85q.35-.8.35-1.6l-.2-1.2-.5-1.35q.85.9.85 2.5l-.1 1m-.65-1.1l.05.6q0 .7-.4 1.15h-.05l.35-1.15q0-.6-.4-1.3l-.35-.6-.35-.7.95 1.35.2.65m10.6-2.25l.05.2.2 1.55.05.4v.2l-.1-.5-.05.25-.05-.25-.1-1-.05-.6.05-.25m-.05 1.25l.1.4h-.1v.15l-.15-1.45.05-.7.1 1.55v.05m-.9-.75h.1l.05.5h-.1l-.05.45v-.95m.2 1.2l-.05-.7.1.8-.05-.1m-7.6.2l-.2-.5-.6-1.25.75 1.3.25.9-.2-.55v.1" fill="url(#b)"/></g></svg>