<svg xmlns="http://www.w3.org/2000/svg" width="28" height="42"><g transform="translate(-56.4 -22.45)"><path d="M82.75 37.3l.05 4.25V44l.35 3.3.75 8.65q0 .95-.4 2.05-.45 1.1-1.2 2-1.7 2.15-3.05 2.15l-2.05-.25-.4-.15q-.05.55.7 1.25-1.55-.35-2.15-.75l-.85-.6-.7 1.35-.4.4v-.45l-.05-.9-1 1.15-.8.4-.05-.55-1.4.3.5-.7-.35.2-.95.6V62.4h-.15q-.4.65-.95.8l-1 .05q-.95 0-1.6-.5l-.75-.95-.6.5-1.75.75q-1.2.3-2.75-1.35-1.55-1.65-1.1-2.85l.8-2.25.3-1.85-.05-.65-.1-.4q-2.6-2.35-2.8-5.8l-.4-6.15q-.25-2.95 2.15-10.6 2.45-7.7 9.4-8.5l1.35-.15h2.05q4.3.25 6.7 2.9 3.1 3.4 4.5 9.8l.2 2.1m-22.1 8.6l.2.35v.05l-.85-.65-.15-.2.85 1.1 1.4.75h.05q-.45-.2-.9-1l-.65-1.35h-.1v.55l.15.4m19.6-.85l-1.4 1.65-.4.5.1-.2.6-1.55v-.05L78 47.3l.15-.6.1-.5q-.3.95-1.45 2.15l-1.65 1.7-.7.95-.55.95-.15.5-.15.6-.15.85v.5l.3-1 .35-1.1h.05L74 53.4l-.05 1 .05 1.3.35 1.65-.05-1.05v-.75l.1-1.25.3-1.4q-.15 1.15.05 2.55.2 1.45.65 2.3l-.25-1.8-.05-1.5q0-1.75.6-3 .4-.85 1.4-1.85l1.7-1.8q.95-1.2 1.45-2.65v-.1M77.5 48.4v-.1l.8-.95-.8 1.05m-11.6 3.15l-.3-.55-.15.9-.25 1v-1.25l-.05-.15v.6q0 1.6-.6 2.8v.05l.45-.75.4-.8-.1.75-.2.75.65-1.3.15-1.45v-.6" fill="#050601"/><linearGradient id="a" gradientUnits="userSpaceOnUse" gradientTransform="matrix(.00148 .00258 -.00671 .00386 75.2 38.85)" x1="-819.2" x2="819.2"><stop offset="0" stop-color="#121211"/><stop offset=".502" stop-color="#231b16"/><stop offset="1" stop-color="#141311"/></linearGradient><path d="M60.5 45.5v-.55h.1l.65 1.35q.45.8.9 1h-.05l-1.4-.75-.85-1.1.15.2.85.65v-.05l-.2-.35-.15-.4" fill="url(#a)"/><linearGradient id="b" gradientUnits="userSpaceOnUse" gradientTransform="rotate(105.044 18.73 55.164) scale(.00776)" x1="-819.2" x2="819.2"><stop offset="0" stop-color="#121211"/><stop offset=".502" stop-color="#2a1f19"/><stop offset="1" stop-color="#141311"/></linearGradient><path d="M80.25 45.15q-.5 1.45-1.45 2.65l-1.7 1.8q-1 1-1.4 1.85-.6 1.25-.6 3l.05 1.5.25 1.8q-.45-.85-.65-2.3-.2-1.4-.05-2.55l-.3 1.4-.1 1.25v.75l.05 1.05L74 55.7l-.05-1.3.05-1 .15-1.1h-.05l-.35 1.1-.3 1v-.5l.15-.85.15-.6.15-.5.55-.95.7-.95 1.65-1.7q1.15-1.2 1.45-2.15l-.1.5-.15.6 1.15-1.9v.05l-.6 1.55-.1.2.4-.5 1.4-1.65v.1m-1.95 2.2l-.8.95v.1l.8-1.05m-12.4 4.8l-.15 1.45-.65 1.3.2-.75.1-.75-.4.8-.45.75v-.05q.6-1.2.6-2.8v-.6l.05.15v1.25l.25-1 .15-.9.3.55v.6" fill="url(#b)"/></g></svg>