<svg xmlns="http://www.w3.org/2000/svg" width="131" height="152"><g transform="translate(0 -1.15)"><linearGradient id="a" gradientUnits="userSpaceOnUse" gradientTransform="matrix(.00073 -.0569 .07341 .00096 69.3 119)" x1="-819.2" x2="819.2"><stop offset="0"/><stop offset=".388" stop-color="#2e2323"/><stop offset=".824"/></linearGradient><path d="M98.65 144.85l.2-.4.05.3-.25.45v-.35m1.95.2l.25-.55v-.1l.05.1.15.75-.4.65-.05-.85m1.1.15l-.3.55-.25.25v-.65l.1-.5.1-.45.05-.1.1-.5.1.55.1.85m1.05-1.15v-.1l.05.1-.15.55.1-.55m.2.65l.1.35.05.15-.35.6.2-1.1m.85.45l-.05-.25h.1v.1l-.05.15m.2.15l.2.2.15.2-.1.3h-.1l-.15-.7m.4.2l-.05-.35.15.1-.1.25m1.15-.4v-.15h.1l-.1.15m.2.4l.1.15.25.2-.1.15-.25.4v-.9m.7-.65l-.1.3v.1l-.15.3-.1-.8.25-.05.1.15m1.2 1.05l.1.55.1-.1-.1.15-.1.1v-.7m.95-.15l-.25.75h-.1l-.1-.75v-.1l.15-.6.1-.35v-.2l.1-.4v.05l-.1.55.1.6.1.45m.75-.7l-.2.45.05-.45v-.15l.05-.1.05.05.05.2m.8-.2l.4-.25.15-.1.05.25-.25.7-.1.3-.05-.15-.2-.75M46.8 50q0-.45.4-.75l-.65 1.8.25-1.05m10.15 92.9h.25l-.1.6-.1.15v-.15l-.05-.6m1.2-.05l.2-.05-.25.6v-.35l.05-.2m4.5-1.25l1-.2-.3 1.9h-.1l-.5-1.7h-.1m1.45-.3l.35-.1-.2.55-.05.2-.1.25v-.9m2.7-.55H68l1.2-6.55.1-3.1q0-9.1-.95-16.6l-.05-.1h.05v.1l.4 3.75v.05q.75 7.7.75 12.45v.4l-.3 3.05-.7 5.8.55.1.2 1.4v1.45l-.15-.65-.2.65q-.15.35-.15.7l-.2-.9-.2-.9-.1.1-.35 1.2V143l-.15-.95-.2-.5-.2-.55-.2 2.15-.2-1.35-.15-1.05m-27.35-63.5q0-2.35 1-6.4l.2 6.35-1.2.05m42.9 65.15l.15-2.1 1.05.2-.25 1.35-.2.95-.2-.65-.05.35-.2.9-.3-1m.8.5l.25-.35.4-.3q-.35.7-.3 1.55h-.1l-.25-.9m1.1-.3l.15-.35.15-.25q0 1.15-.3 1.55v-.95m.5-1l.2-.45.3 1.1-.1.9-.2-.95-.2-.6m.4 1.8l.15-.3-.1.55h-.1l.05-.25m.4-.65v-.05l.75-1.45.15 1.15-.6 2.25v-.15l-.2-1.3-.1-.45m1.45 0l.3-.65-.1 1.05-.2-.4m.4-.85l.05-.2.2 1.35.2-1.05.1-.05.25 1.1-.15.5-.1.75-.3-1.25-.25-1.15m1.45.75l.4-1.1.1.7-.2.4-.4.5.1-.5m1.15.2l.1-.45h.1l.1.45.15 1.15.25-.85.1-.25.1-.3-.05.3-.1.55-.3 1.05-.2-1.65v-.05.05l-.4.65.15-.65m.95-.45l.05-.2.05.25-.1-.05m.4 2.8v-.2l.2-.8-.05-.35-.1-.65v-.1l.05-.1v-.3q.35.1.25 1.7l-.05.35-.3.45m1.7-1.8l-.3.45-.35-.75-.05.15.35-1.3.15.2.2 1.25m1.55-.6l.05-.2h.05l-.1.2m.3 0l.2 1.05-.15.35v-.1l-.05-1.3m.35 1.25l.35-.8-.35 1.35h-.1l.1-.55m.55-1.1l.05-.1h.1l.2 2v.15l-.3.55-.05-2.6M73.5 142h.5l-.25 1.55-.15.5v-.5l-.1-1.55m.65 0h.3l-.1.55h-.1l-.1-.55m.55-.8l1.35-.25-.35 2-.2-.45-.3-.7v1.85h-.1v-.1l-.3-1.55v-.15l-.05-.25-.05-.4m5.35.85h.25l-.1 1-.15-1m.65 0h1v1.35l-.4-1.15-.2 1.3-.1.5v-.5l-.15-.95-.15-.55m-35-1.95l-.5 2.65-.1-1.6-.15-.6-.15-.45-.1-.25-.05.25-.2 1.85h-.15l-.1-1.85 1.25-1.3.25 1.3m2.65-.1l1.6-.15-.1 2.85h-.15l-.35-1.25-.4 1.1q-.25.6-.2 1.1l-.4-3.65m4.1 1.35l.5.15-.05 1.9h-.15l-.25-1.6-.05-.45m.95.25l.25.05-.05.2v.6l-.15-.6-.05-.25m-15.05-1.25l-.3 1.3-.1.2-.1-1.1-.15.8-.35 1.5h-.1l-.1-3 1.2.3m51.3 3.7l-.15.7v-1.95l.15 1.25m4.05-.55l-.25.35v-.6l.1-.9.15 1.15m3.15 1.2h-.1v-.85l.3-.35.05.15q-.2.35-.25 1.05m.6-.7h-.05v-.05h.05v.05m.45 1.1l.05.15-.1.05.05-.2m12 .35v-.05.05m.1-.55v.05-.05m-3.25 1l.1-.45.05.1v.05l-.15.3" fill="url(#a)"/><linearGradient id="b" gradientUnits="userSpaceOnUse" gradientTransform="matrix(-.00378 .01236 -.00151 -.00046 114.75 136)" x1="-819.2" x2="819.2"><stop offset=".149" stop-color="#2e2323"/><stop offset=".557" stop-color="#1f1818"/></linearGradient><path d="M111.05 145.9v-.05l.05-1.3.05-.55.2.6-.3 1.3m.7-1l.1-.2-.1.45v-.25m.5 0l.1-.1-.1.5v-.4m1.05-1.05l-.1 1.1-.05.75-.15-.75-.05-.8-.15.9v-.1l-.15-1.05.1-.3.1-.35.25 1 .15-.35.05-.05m-2.8 1.6l.25-.7.05.2-.3.5m3-1.75l-.05-.15v-.1l.05.25" fill="url(#b)"/><linearGradient id="c" gradientUnits="userSpaceOnUse" gradientTransform="matrix(-.00256 -.01707 .00111 -.00017 29.9 128.2)" x1="-819.2" x2="819.2"><stop offset=".024" stop-color="#282423"/><stop offset=".388" stop-color="#323030"/><stop offset=".929" stop-color="#191514"/></linearGradient><path d="M32.2 139.9l.05-.3h.1v1.45l-.15-1.15m.25 1.35l.05-.2v.8l-.05-.25.05-.35h-.05" fill="url(#c)"/><path d="M1.85 135.65l-.05.4-.05.1v-.05l.05-.2.1-2.05.2-3.1.05-.65v.15l-.1.5-.6 3.8-.05.3v-.2l-.05-3.9v-.55q.1-1.1 1.35-6.8l.25-1.7 1 .1-.95 8.4-.95 4.55-.2.9m121.6.4l.05-.2.35-.9h.05v-.25.25l-.3 1.6-.1.4-.1 1.35.05-2.25m4.05.25l.1-.7.2-1.2v-.05l.2-1.6.1-.4.1-.2-.2 2.35-.1.75-.4 1.05m1.2-24.05l.45-.05v.05l.25 2.15q1 9.35 1 15.7l-.1 2.65-.75 1.05q.4-5.25.15-9.6v-.05q-.3-5.85-1-11.9m-4.15-32.75l-.3.1-.55-3.35.35-.15.5 3.4m2 55.4l.15-.65-.15.85-.05.1.05-.3"/><linearGradient id="d" gradientUnits="userSpaceOnUse" gradientTransform="matrix(-.02344 -.01398 .00778 -.01303 59.2 24.2)" x1="-819.2" x2="819.2"><stop offset="0" stop-color="#271e1c"/><stop offset=".388" stop-color="#b79f9b"/><stop offset=".796" stop-color="#342827"/></linearGradient><path d="M31.55 152.95l-.1-.25.2-.05.1.1-.2.2" fill="url(#d)"/><linearGradient id="e" gradientUnits="userSpaceOnUse" gradientTransform="matrix(-.00246 -.01762 .00325 -.00046 114.4 128.35)" x1="-819.2" x2="819.2"><stop offset="0"/><stop offset=".388" stop-color="#150f0f"/><stop offset=".824"/></linearGradient><path d="M50.65 4.35l-1.5.8-.85.45-1.5 1.1-1.75 1.35h-.65q3.05-2.4 6.25-3.7M20.1 18.4l-.2.15-.65.9-1.25 1.4.15-1.1 1.95-1.35m80.65 82.3l-.3 1.2.55-.2-.2 2.35-.4 3.65-.95 8.25-.55-.05 1.35-8.15q-.95 1.5-2 7.2l-1.15-.2q-2.65 10.7-2.65 13.15 0 3.5.7 9.65l.7 5.3-.05.1-.2.3-.35.8-.1.2-.05-.4-.2-1.05-.1-.2h-.15l-1.8-.45-.15-.2-.35 1.3-.5 1.6-.3.75v-.1l.1-.75.05-.35q.1-1.6-.25-1.7v.3l-.4-.05v-.5l-.05-.25-.05.2-.05.2-.1.3-.5-.05-.1-.45h-.1l-.1.45-.5-.05-.05-.1-.1-.45-.1-.7-.4 1.1-.05.05-.05.1-.05.15-.45 1.05-.05-.95-.25-1.1-.1.05-.2 1.05-.2-1.35-.05.2-.1.2-.3.65-.8 1.05v-.1l.25-1.05v-.25l-.15-1.15-.75 1.45v.05l-.25.35-.15.3-.15.25-.05-.1.2-.4.1-.9-.3-1.1-.2.45-.2.4-.15.25-.15.35-.4.55h-.15l.25-.45-.1-.5-.05.05-.4.3-.25.35-.1.05v-.05l.05-.1.2-.95.25-1.35-1.05-.2-.1-6.05 1.9-.2-.05 1.6q0 1.6.4 3.05l.1-.1q-.35-6.2 1.8-15.3 2.7-10.15 3.65-15.35-.5.95-1.75 5.75l-2.35 7.85q-.9 2.35-1.4 6.8-.35 2.9-.4 5.7l-1.9.1-.05-.6.15-.55q.4-1.35.4-2.1 0-.95.75-5.15l.7-5.75-.25-1.15H84l.1-.95q-.9 1.2-1.75 3.9l-.5 1.8-.7-10.4-.35-4.5 1.7-.15v-.1l-1.8-13.8-.95.1v-.05l-.55-7.45q-.7-9.6-4.35-21.7L73.8 62.3q-1.9-5.7-2.9-9.65l-1.25.35q.4 6.5 1.15 12.55 1.25 10.6 3.45 19.9 2.65 11.25 3.3 15.05Q79 109.4 79 120.25l-.35 5.95-.4 2.85q-.45 3.05-.45 4.6 0 2.5-1.7 7.3l-.05-.1v.1l-1.35.25-.05-.1-.05-.3-.1.8-.05.3v.1h-.3v-.1l-.05-.3H74v.4h-.5l-.05-.4-.05-.4-.15.5-.2 1.15-.15.8v-.1l-.25-1-.4 1-.1.25v-.25l-.2-1.2-.1-.75-.05-.5-.2.5-.1.4-.1.35-.2.35-.2-1.5-.05-.1v.1q-.15.55-.15 1.7l-.35-.45-.25-.5-.05 1-.2.85h-.1l-.05-.85-.25-1.15-.05-.15-.05-.15-.4-1.4-.55-.1.7-5.8.3-3.05v-.4q0-4.75-.75-12.45v-.05l-.4-3.75v-.1h-.05q-.7-5.3-1.85-9.85l-.05-.05-1.1-3.7q-6.45-15.7-11.35-30.15l-1.55-5.1-1.4-5.5q-.9-4-1.65-8.35l-.5-2.8-.95-.5q0-.85-1.15-1.35l-.2-.05-2.65-.4h-.65l-6.7.6q-3.9.8-6.7 3.1h-.45v-.1L27 51.3l-.55.4q-1.15.9-1.55 2.35l-1.85 4.05-.3.7-.15-.6-1.55-6.5-1.5-6.1-1.2-5.25q-.65-4.15-.8-8.15 5-7.85 11.55-13.1l-3.85 2.15 4.8-2.95q5.7-4.35 12.4-6.85L33.3 16.7q6.9-3.25 14.45-4.35 18.55-2.3 33.6 6.8 16.1 9.7 23.35 28.55l1.5 4q3.4 9.3 6 18.9l.5 1.75-.05.65-.15 9.05q-.15 4.65-1.3 9.4-.6-6.7-2.8-15.6l-.1-.35-.05-.35-.1-.3-.05-.35-.1-.35-2.2-7.45.6 7.55.05.35v.35l.05.35v.3l.05.35v.55l.05.25v.2l.85 13.9-.2 3.65-.25-3.6q-.6-5.1-2.05-8.35l-.55-.8-1.6-2.4.25 9.6-.1 1.8-1 5.55-.9 4.75-.3-.35m16.85-55.75l.3 5.85v.25l-.65-2.1H117q-2.85-7.35-6.5-14.75l-.9-1.55q-3-5.15-6.05-9.4-5.65-7.75-11.95-12.7 4.85 3.65 11.8 10.35 10.15 9.8 13.6 22l.6 2.05m-26.05 52.7h-.05l-.25-.05.1 2 .2-1.8v-.15m-.85-.15v-.05l-.75-.25.3 1.45.2.7.05-.6.2-1.25m5.35 11.75l-.1-.35-.05.4.15-.05m-5.8 1.75q-.2 4.6-1.05 10-.7 4.55-.7 8.75l.15 3.2-.1.65.15 1.15.05 1.4h.2l.05-.05v-.1l.05-.1.1-1.95q.4-5.9 2.05-13.3l-.3 5.25q0 4.5.4 8.75l.4-.2v-.35h.05l1.55-9.45q.95-5.7 2.05-9.4-.95 1.05-1.6 3.85l-.95 4.45q-.35 1.3-.6 4.4l-.45 3.95.05-3.25.1-4.55-.4-4.55.2-1-.4.9h-.05v.15l-.95 3.25-.8 3 .05-.6.35-5.65.35-2.4.35-3.35-.15-2.85h-.2m-7.1 12l-.3 1.25-.75 3.85-.05-1.7 1.1-3.4" fill="url(#e)"/><linearGradient id="f" gradientUnits="userSpaceOnUse" gradientTransform="matrix(.00562 -.03056 .0032 .0006 115.15 128.4)" x1="-819.2" x2="819.2"><stop offset="0"/><stop offset=".388" stop-color="#120d0d"/><stop offset=".824"/></linearGradient><path d="M103.55 23.25q3.05 4.25 6.05 9.4l.9 1.55q3.65 7.4 6.5 14.75h.25l.65 2.1v-.25l-.3-5.85 1.6 5.8.25.95.7 2.5 1 3.95 1.05 7.4.25 2.25 1.6 8.3-.35.15v.65l.2 1.35.35 1.35.3-.1 1.35 11.25.65 2.9 2.35 16.4.25 2.15-.45.05q.65 7.35.65 13.6v2.9l-.85 4.85-.6 1.65.1-.75.2-2.35-.1.2-.1.4-.2 1.6v.05l-.2 1.2-.1.7-.3-1.65-.2 1.05q-.4 1.9-.95 2.45l-.55.85h-.2l.55-1.4-.45.95h-.2l.45-1.5-.15.05.2-.25v-.1l-.45.8-1.5 2.65-.6.45.2-1.5v-.1l.05-.75.1-1.35.1-.4.3-1.6v-.25.25h-.05l-.35.9-.05.2-.2.6-.85 2.1-.7 1.75.2-1.75q-.15-.45-.15-1.6v-.1.1l-.1.2-1.25 3.4-.7-2.85-.1-.5v.55l-.15 1.65-.45.95q-.1.4-.45-.15l-.95 1.9-.1-3.45-.6 2.2-.1-.75-.7 1.55.15-1.35v-.7l-.2.5-.05.1-.1.7-.5 1-.3 1.3-.2.05-.1-.5.15-.85.1-.8-.85 1.85-.05-.85-.2.85-.15.4-.15.35.1-.55.05-1.4.05-.65-1.55-.1.45 2.4-.1.3-.1.4-.2.5-.1.1-.1.1-.2-.85-.1.45v.1l-.1.2-.25.7-.15-1-.2-.6-.05.05-.4.45-.15.1-.4.25-.15.05h-.15l-.55-.05-.05-.05-.55-.4-.2-.25v-.05l-.1.4v.2l-.1.35-.15.6v.1l-.3.6-.1.1-.1-.55-.3-.7-.1.05v.15l-.25 1.05-.05-.65v-.55l-.05-.75-.55.2-.25.05h-.3l.05.4v.5l-.1-.15-.1-.35v-.2h-.1v.2l-.35 1.15q0-.55-.7-1.05l-.15-.1.05.35.05.4-.1-.2-.15-.2-.2-.2-.15-.3v-.1h-.1l.05.25-.2.55-.4.65v-.1l-.1-1.05-.05-.15-.1-.35-.15-.65-.05-.1v.1l-1.15.3-.1-.55-.1.5-.05.1-.45.1-.05-.1v.1l-.25.55-.4.65-.2.4-.6.9v-.1l.25-.6.2-.55.05-.05-.05-.15-.15-1.1-.15.15-.55.95-.1-.8-.05-.3-.2.4-.1.35-.55-6.15q-.5-6.55-.5-8.6l.45-2.75.5-3.75 1-8 .95-8.25.4-3.65.2-2.35.4-.2-.35-.45.9-4.75 1-5.55.1-1.8-.25-9.6 1.6 2.4.55.8q1.45 3.25 2.05 8.35l.25 3.6.2-3.65-.85-13.9v-.2l-.05-.25v-.55l-.05-.35v-.3l-.05-.35v-.35l-.05-.35-.6-7.55 2.2 7.45.1.35.05.35.1.3.05.35.1.35q2.2 8.9 2.8 15.6 1.15-4.75 1.3-9.4l.15-9.05.05-.65-.5-1.75q-2.6-9.6-6-18.9l-1.5-4q-7.25-18.85-23.35-28.55-15.05-9.1-33.6-6.8-7.55 1.1-14.45 4.35l9.15-5.25q-6.7 2.5-12.4 6.85l-4.8 2.95 3.85-2.15q-6.55 5.25-11.55 13.1l-.15.2-.15.2q-5.8 9-8.55 19.1-1.6 5.9-2.2 12.15-1 10.1-1.35 20.3l-.25 14.1q.05 12.4-.95 23.55l-1-.1q.75-6.85-.8-26.9l.2-11.4v-4.25l.25-3.8v-1.1L3.05 70q.15-3.15.85-6.5l.55-3.55.6-3.8.55-2.95.35-1.5 1.65-7.2q1.25-5.8 2.1-8.25l3.5-7.2.45-1.55 1.7-2.65v-.25q1.2-1.95 2.45-3.5l.2-.25 1.25-1.4.65-.9.2-.15q2.1-2.15 5.2-4.3l.25-.25q4.75-3.35 10.8-4.9l8.05-.9h.65L46.8 6.7l1.5-1.1.85-.45 1.5-.8q4.85-2.45 10.65-3l3.25-.2h.65l4.35.2 1.5.25 1.3.2 3.25.65q1.75.45 3.25 1.15.85.2 1.55.65 1.7.7 3.45 1.55l1.7.9.65.25.45.2q2.55 1.5 4.95 3.4 6.3 4.95 11.95 12.7m23 111.85l.15-.85-.15.65-.05.3v.2l.05-.3m-24-11.7q-.9 3.95-1.1 6.6v.15l-.1 1.55.05 1.6v1.15q.2 1.45 1.05 2.45l-.35-2.9-.2-2.2q0-3.25.75-7.4t1.85-6.8q-.75.4-1.95 5.8m-.85-4.7q-1.05 1.75-1.55 5.45-.5 3.35-.5 7.3l.2 4.45q.3 2.85.65 3.95l.25-.2-.35-5.15-.05-.95v-.3l.4-6.35.4 3.15.15-.1.3-5.05.05-3.35.4-2.4.35-1.65.2-1.6-.9 2.8m13.7 14.75l-.55 1.4.05.55h.05l.2-.85v-.35h.1l.15-.75m-7.35-9q.45-2.65 2.75-12-4.5 12.3-4.5 24.45l.1 3.5.4-.05.15-4.55q0-5.6 1.1-11.35" fill="url(#f)"/><linearGradient id="g" gradientUnits="userSpaceOnUse" gradientTransform="matrix(-.00714 -.02705 .00128 -.0003 96.7 119.15)" x1="-819.2" x2="819.2"><stop offset="0"/><stop offset=".388" stop-color="#2e2323"/><stop offset=".824"/></linearGradient><path d="M91.55 97.8l-.2 1.8-.1-2 .25.05.05.15m-1.05.95l-.05.6-.2-.7-.3-1.45.75.25v.05l-.2 1.25" fill="url(#g)"/><linearGradient id="h" gradientUnits="userSpaceOnUse" gradientTransform="matrix(-.01042 -.0308 .00722 -.00218 94.1 121.85)" x1="-819.2" x2="819.2"><stop offset="0"/><stop offset=".388" stop-color="#2e2323"/><stop offset=".824"/></linearGradient><path d="M101.25 144.85l-.1.5-.05.2-.05-.3-.15-.75.45-.1-.1.45m1.4-.25l-.05 1.65h-.1l-.35-1H102l-.3 1 .05-.75-.05-.3-.1-.85 1.15-.3-.1.55M91.5 97.65h.05v.15l-.05-.15m4.4 11.65l.05-.4.1.35-.15.05" fill="url(#h)"/><linearGradient id="i" gradientUnits="userSpaceOnUse" gradientTransform="matrix(0 .01575 -.00388 0 33.7 129.3)" x1="-819.2" x2="819.2"><stop offset=".024" stop-color="#070201"/><stop offset=".388" stop-color="#1e1716"/><stop offset=".929" stop-color="#090707"/></linearGradient><path d="M46.55 51.05l.05.65q.2 5.95 1.2 13.85l.45 3.3-.25.9-5.25 18.35-.75 3.05q-.95-7-1.35-13.95l-.2-6.35q-1 4.05-1 6.4l-.65 4.45-.85 4.7-.7 3.9q-.3 1.9-.3 3.75l-.4 3-.45 5.2q0 6.5.35 10.8l.25 2.65-1.05.25.6 6.85.35 2.7.05-.05.2 3.4-.35 6.1-.75 3-.8 1.8.05.7v.2l-.25-.75-.4 1.2h-.1v-1.7l-.45 1.6-.1.4-.2.75.05-.45-.1-.75-.1-.85h-.1l-.2.75-.2.45v-.5l.2-1v-.15l-.05.1-.4 1-.1.3-.05.2-.1-.1v-1.55h-.1l-.05.3-.15.4.1-.6.05-.55-.05-.15h.1l.05-.75.05-.5.05.4.45-.3.8-3.45q.75-1.35 1.2-4.8l.25-2.45.15-1.1-.05-.65v-1.5l.3-5.45q0-2.95-.5-6.45h-.2l-.2 11.15-.65 6-.3 2.3-.9 3.65.05-.85.3-3.05q0-7.15-.35-10.1l-1.05-5.45-.1-1.5v-.25l-.2-2.3v-.35L29.15 93.9 27.1 81.15l-.25-1.55-.05-3.95 1.85-14.7.4-3.7.35-5.55v-1.4h.45q2.8-2.3 6.7-3.1l6.7-.6h.65l2.65.4.2.05q1.15.5 1.15 1.35 0 .4-.7.8v.05q-.4.3-.4.75l-.25 1.05m-14.65 73v-4.8l.15 1.35.15 5.9-.3-2.45m.55 12l.15-.3-.15.55v-.25" fill="url(#i)"/><linearGradient id="j" gradientUnits="userSpaceOnUse" gradientTransform="matrix(-.01042 -.0308 .00722 -.00218 94.1 121.85)" x1="-819.2" x2="819.2"><stop offset="0"/><stop offset=".388" stop-color="#120e0e"/><stop offset=".824"/></linearGradient><path d="M48.85 48.9l.5 2.8q.75 4.35 1.65 8.35l1.4 5.5 1.55 5.1q4.9 14.45 11.35 30.15l1.1 3.7.05.05q1.15 4.55 1.85 9.85l.05.1q.95 7.5.95 16.6l-.1 3.1-1.2 6.55h-1.2l-.6 2.4-.1.5v-.5l-.15-.6-.4-.95-.35 1.4-.1-.95-.15-1.05v.6l-.05.45-.2.25-.1-1.1h-.15l-.35.1-.1-.7-.1-1.25-.25 2.05-1 .2-.5 1.7-.25-1.85-.35 1.6-.2-1.2-.2-1.1-.35 1.35-.2 1-.05.3-.6-1.1-.25 1.6q-.5-1.65-.5-2.55l-.35 2.05-.25-1.3-.25.7-.2.05.15-.95.25-.95-.2.3-.25.6-.1-.25-.2-.8-.15-.55v1.1l-.15.95-.25-1.3v1.2l-.05.7h-.25l-.05-.6h-.1l-.2.7-.2-.45h-.1l-.6 1.5v-.15l.2-1.6-.1-1.55-.95 2.05.1-.8-.1-.6.7-3.75q.85-5.15.85-9.8 0-13.7-4.95-39.85-2-10.6-3.2-19.15l-.45-3.3q-1-7.9-1.2-13.85l-.05-.65.65-1.8v-.05q.7-.4.7-.8l.95.5" fill="url(#j)"/><linearGradient id="k" gradientUnits="userSpaceOnUse" gradientTransform="matrix(0 -.0178 .003 0 30.1 127.95)" x1="-819.2" x2="819.2"><stop offset="0"/><stop offset=".388" stop-color="#1e1616"/><stop offset=".824"/></linearGradient><path d="M22.75 58.8l.3-.7 1.85-4.05q.4-1.45 1.55-2.35l.55-.4 2.4-1.1v1.5l-.35 5.55-.4 3.7-1.85 14.7.05 3.95-2.7-14.05-1.4-6.75m9.2 82v.15l-.05-.1v-.05l-.05-.1v.05l-.05-.05.3-8.7-.1-4.75-.1-3.2.3 2.45v.2l.1 9.65.15-.3v.25l-.2.75.1.7-.05.5-.05.75h-.1l.05.15-.05.55-.1.6-.05.4v.15l-.05-.05m-.25.6l.1-.2-.05.15v.1l-.05-.05" fill="url(#k)"/><linearGradient id="l" gradientUnits="userSpaceOnUse" gradientTransform="matrix(0 -.0178 .003 0 30.1 127.95)" x1="-819.2" x2="819.2"><stop offset="0"/><stop offset=".388" stop-color="#171111"/><stop offset=".824"/></linearGradient><path d="M40.3 140.8l-.25.65-.05-.3-.2-1.15h-.1l-.3.95-.2.9-.5-2.95v2.45l-.35-1-1.2-.3-.05-.65-.05-.15-.05.75-.35.85-.4-.75q.05.35-.5.9l-.15-.9-.5.85-.2.65v-.15l.1-.8v-.2l-.05-.7.8-1.8.75-3 .35-6.1v.25l.4 6.75h.2l.05-.25.05-.1q.7-1.9 1.2-6.5l.1-.65.4 4.2-.1.95.1.35h.15l.05.8.1-1.15.65-2.85.45-2.65.25-8.2-.3-2.85q-.3-1.15-.3-4.1h-.15l-.1.55.55 3.95.1 4.05-.45 4.85-.35 2.85v-.95l-.6-5.6v-.85l-.05-.55h-.15v.1l-.05-.3q-.9-7-1.5-9.55h-.15l.4 1.85q0 4.2.6 10.7l.15 1.45-.3 2.1-.65 5.65-.75-16.6h-.15l-.15 6.5.1 2.4-.05.05-.35-2.7-.6-6.85 1.05-.25-.25-2.65q-.35-4.3-.35-10.8l.45-5.2.4-3q0-1.85.3-3.75l.7-3.9.85-4.7.65-4.45 1.2-.05q.4 6.95 1.35 13.95.75 5.65 1.85 11.3 2.5 12.85 3.15 20.5l-.75 6.2-.95 5.85v-.2l-.3-9.25q-.4-5.05-1.5-9.5l-.15.05.5 2.55.8 5.25.3 10.75-.15 1.7.2-.05.1-.15 1-3.5.65-3.55q0-.9.3-2.65l-.05 5.2-1.55 7.15-1.25 1.3v.15l-.35 1.1-.15 1.1-.6-2.8v1.1l-.5-.75-.35 1.2-.1-.7-.4 1.3-.1.8-.2-1.6-.5.85-.05.1v-.1l-.3-1.45-.15-.8q.7-1.25 1.2-3.8l.45-4.5-.25-6.55-.3-6.5h-.15L41 133.2l-.2 3.1-.55 3.55.15-.2-.1 1.15" fill="url(#l)"/><linearGradient id="m" gradientUnits="userSpaceOnUse" gradientTransform="matrix(-.01042 -.0308 .00722 -.00218 94.1 121.85)" x1="-819.2" x2="819.2"><stop offset="0"/><stop offset=".388" stop-color="#1a1313"/><stop offset=".824"/></linearGradient><path d="M80.8 108.7l.35 4.5.7 10.4-.8 2.95L80 131.5l-.3 1.6.3-2.5.3-5.1-.3-9.25-.2.05-.25 6.65q-.35 4.95-.35 6.85 0 1.95-.35 3.75-.35 1.85-.35 3.45l.05.55.25-.05.55-2.05-.05.25v.35l.15.05h.2l.95-4.5q.5-2.75 1.2-4.6l.25-.6.05 1.7-.25 2.2-.35 2.8.25 2.1.2-.05.4-1.6.05.6v.1l.1 6.05-.15 2.1-.15-.8-.1-.35-.05-.5q-.15.2-.2.55l-.1.3-.05.35v.1h-1v-.2l-.1-.25v-.05l-.15-.7-.1.75-.05.35v.1h-.25l-.15-.45-.3-.85v.85l-.05.45q-.05.7-.45 1.1 0-1.2-.35-1.55l-.3 1.05-.3.9-.1-1.95-.05-.85-.7 2.3-.25-1.45-.45 1.95-.15-1.25-.2-.7-.15-.65q1.7-4.8 1.7-7.3 0-1.55.45-4.6l.4-2.85.35-5.95q0-10.85-1.45-19.75-.65-3.8-3.3-15.05-2.2-9.3-3.45-19.9-.75-6.05-1.15-12.55l1.25-.35q1 3.95 2.9 9.65l1.05 3.25q3.65 12.1 4.35 21.7l.55 7.45v.05l1.05 13.95" fill="url(#m)"/><linearGradient id="n" gradientUnits="userSpaceOnUse" gradientTransform="matrix(0 .01575 -.00388 0 33.7 129.3)" x1="-819.2" x2="819.2"><stop offset=".024" stop-color="#070201"/><stop offset=".388" stop-color="#121010"/><stop offset=".929" stop-color="#090707"/></linearGradient><path d="M45.45 138.8l1.55-7.15-.1 4.35q.4-.3.7-1.95l.2-2.05-.4-7.85.1-.7-.15-.9-.1-1.75h-.15v1.6l-.1.55q-.65-7.65-3.15-20.5-1.1-5.65-1.85-11.3l.75-3.05L48 69.75l.25-.9q1.2 8.55 3.2 19.15 4.95 26.15 4.95 39.85 0 4.65-.85 9.8l-.7 3.75-.05-.1q-.15-.2-.15-.55l-.45 1.35-.1-1.15-.45.7-.25-.05-.4-1.85-.05 1.75-.5-.15-.05-.65-.05.6-.15.45-.15.95h-.15l-.25-1.25h-.1l-.35 1.45h-.15l-.25-1.15-.25-1.15-.1.85q-.5-.5-.5-1.6l-1.6.15h-.1l-.75 2.3-.1-.85-.15-.5-.25 1.15q-.25.8-.2 1.2l-.15-1.3-.1-2q-.5.25-.55.9l.05.85-.35-1.65-.25-1.3" fill="url(#n)"/><linearGradient id="o" gradientUnits="userSpaceOnUse" gradientTransform="matrix(.00204 -.01372 .00345 .00035 90.05 132.95)" x1="-819.2" x2="819.2"><stop offset="0"/><stop offset=".388" stop-color="#2e2323"/><stop offset=".824"/></linearGradient><path d="M79.75 94.75l.95-.1 1.8 13.8v.1l-1.7.15-1.05-13.95m2.65 39.4l1.9-.1-1.9.2v-.1m7.45 9.35l-.25.85v-.1l.05-.2-.15-1.25.5.05-.15.65m.45-.65l.5.05-.1.25-.25.85-.15-1.15m1.1.35l-.4.85.05-1.1.4.05-.05.1v.1" fill="url(#o)"/><linearGradient id="p" gradientUnits="userSpaceOnUse" gradientTransform="matrix(.0003 -.01242 .00192 .00005 29.3 126.05)" x1="-819.2" x2="819.2"><stop offset="0" stop-color="#0e0d0d"/><stop offset=".388" stop-color="#2e2323"/><stop offset="1"/></linearGradient><path d="M82.1 128.1l.75-3.85.3-1.25-1.1 3.4-.25.6q-.7 1.85-1.2 4.6l-.95 4.5h-.2l-.15-.05v-.35l.05-.25-.55 2.05-.25.05-.05-.55q0-1.6.35-3.45.35-1.8.35-3.75 0-1.9.35-6.85l.25-6.65.2-.05.3 9.25-.3 5.1-.3 2.5.3-1.6 1.05-4.95.8-2.95.5-1.8q.85-2.7 1.75-3.9l-.1.95h.1l.25 1.15-.7 5.75q-.75 4.2-.75 5.15 0 .75-.4 2.1l-.15.55-.4 1.6-.2.05-.25-2.1.35-2.8.25-2.2" fill="url(#p)"/><linearGradient id="q" gradientUnits="userSpaceOnUse" gradientTransform="matrix(.0003 -.01242 .00192 .00005 29.3 126.05)" x1="-819.2" x2="819.2"><stop offset="0"/><stop offset=".388" stop-color="#2e2323"/><stop offset=".824"/></linearGradient><path d="M32.25 137.05l.2-.75.15-.55-.15.3-.15.3-.1-9.65v-.2l-.15-5.9-.15-1.35-.2-3.6 1.05 5.45q.35 2.95.35 10.1l-.3 3.05-.05.85.9-3.65.3-2.3.65-6 .2-11.15h.2q.5 3.5.5 6.45l-.3 5.45v1.5l.05.65-.15 1.1-.25 2.45q-.45 3.45-1.2 4.8l-.8 3.45-.45.3-.05-.4-.1-.7m4.6-8.2l-.2-3.4-.1-2.4.15-6.5h.15l.75 16.6.65-5.65.3-2.1-.15-1.45q-.6-6.5-.6-10.7l-.4-1.85h.15q.6 2.55 1.5 9.55l.05.3v-.1h.15l.05.55v.85l.6 5.6v.95l.35-2.85.45-4.85-.1-4.05-.55-3.95.1-.55h.15q0 2.95.3 4.1l.3 2.85-.25 8.2-.45 2.65-.65 2.85-.1 1.15-.05-.8h-.15l-.1-.35.1-.95-.4-4.2-.1.65q-.5 4.6-1.2 6.5l-.05.1-.05.25h-.2l-.4-6.75v-.25m47.45 5.2q.05-2.8.4-5.7.5-4.45 1.4-6.8l2.35-7.85q1.25-4.8 1.75-5.75-.95 5.2-3.65 15.35-2.15 9.1-1.8 15.3l-.1.1q-.4-1.45-.4-3.05l.05-1.6m13.95-19.1q1.05-5.7 2-7.2l-1.35 8.15-.85 4.75q-1.25 7.65-1.55 12.95l-.2.05-.05-2.05q0-4.95 1.4-13.4l.6-3.25M47.1 122.4v-1.6h.15l.1 1.75.15.9-.1.7.4 7.85-.2 2.05q-.3 1.65-.7 1.95l.1-4.35.05-5.2q-.3 1.75-.3 2.65l-.65 3.55-1 3.5-.1.15-.2.05.15-1.7-.3-10.75-.8-5.25-.5-2.55.15-.05q1.1 4.45 1.5 9.5l.3 9.25v.2l.95-5.85.75-6.2.1-.55m-6.7 17.25l-.15.2.55-3.55.2-3.1.4-14.95h.15l.3 6.5.25 6.55-.45 4.5q-.5 2.55-1.2 3.8l-.05.05m64.1-22.05q-1.1 2.65-1.85 6.8t-.75 7.4l.2 2.2.35 2.9q-.85-1-1.05-2.45v-1.15l-.05-1.6.1-1.55V130q.2-2.65 1.1-6.6 1.2-5.4 1.95-5.8m-1.9-1.7l-.2 1.6-.35 1.65-.4 2.4-.05 3.35-.3 5.05-.15.1-.4-3.15-.4 6.35v.3l.05.95.35 5.15-.25.2q-.35-1.1-.65-3.95l-.2-4.45q0-3.95.5-7.3.5-3.7 1.55-5.45l.9-2.8M90.45 111l.15 2.85-.35 3.35-.35 2.4-.35 5.65-.05.6.8-3 .95-3.25v-.15h.05l.4-.9-.2 1 .4 4.55-.1 4.55-.05 3.25.45-3.95q.25-3.1.6-4.4l.95-4.45q.65-2.8 1.6-3.85-1.1 3.7-2.05 9.4l-1.55 9.45h-.05v.35l-.4.2q-.4-4.25-.4-8.75l.3-5.25q-1.65 7.4-2.05 13.3l-.1 1.95-.05.1v.1l-.05.05h-.2l-.05-1.4-.15-1.15.1-.65-.15-3.2q0-4.2.7-8.75.85-5.4 1.05-10h.2m16.5 24.8l-.15 4.55-.4.05-.1-3.5q0-12.15 4.5-24.45-2.3 9.35-2.75 12-1.1 5.75-1.1 11.35" fill="url(#q)"/><linearGradient id="r" gradientUnits="userSpaceOnUse" gradientTransform="matrix(-.01163 -.02779 .00385 -.0014 107 121.8)" x1="-819.2" x2="819.2"><stop offset="0"/><stop offset=".388" stop-color="#2e2323"/><stop offset=".824"/></linearGradient><path d="M101.05 101.05l.35.45-.4.2-.55.2.3-1.2.3.35m12.2 42.85l-.15.35-.25-1-.1.35-.45-2.4 1.55.1-.05.65-.05 1.4-.1.55-.15 1.05-.1.8v-1.15l.1-.9-.05-.25v.1l-.15.3-.05.05" fill="url(#r)"/><linearGradient id="s" gradientUnits="userSpaceOnUse" gradientTransform="matrix(.0087 -.03131 .0094 .0026 4.55 112.25)" x1="-819.2" x2="819.2"><stop offset="0"/><stop offset=".388" stop-color="#231919"/><stop offset=".824"/></linearGradient><path d="M96.15 145v-.15l-.2-2h-.1l-.7-5.3q-.7-6.15-.7-9.65 0-2.45 2.65-13.15l1.15.2-.6 3.25q-1.4 8.45-1.4 13.4l.05 2.05.2-.05q.3-5.3 1.55-12.95l.85-4.75.55.05-1 8-.5 3.75-.45 2.75q0 2.05.5 8.6l.55 6.15v.05q-.25.5-.2.8l-.1.05-.3-.85-.05-.15-.1-.3-.25-.85h-.15v.05l-.2.7-.1-1.05-.05-.15-.3.35-.2.45-.3 1.1-.1-.4" fill="url(#s)"/><linearGradient id="t" gradientUnits="userSpaceOnUse" gradientTransform="matrix(-.00974 -.0308 .00465 -.00133 89.45 119.4)" x1="-819.2" x2="819.2"><stop offset="0"/><stop offset=".388" stop-color="#2e2323"/><stop offset=".824"/></linearGradient><path d="M92.85 142.15l1.8.45-.05.2-.6 2.75-.3-2.05-.15-1.15-.1.9-.3.8-.05-.4-.05-.25-.2-1.25" fill="url(#t)"/><linearGradient id="u" gradientUnits="userSpaceOnUse" gradientTransform="matrix(-.00246 -.01762 .00325 -.00046 114.4 128.35)" x1="-819.2" x2="819.2"><stop offset="0"/><stop offset=".388" stop-color="#2e2323"/><stop offset=".824"/></linearGradient><path d="M96.25 145.4l-.05.05-.05-.45.1.4" fill="url(#u)"/><linearGradient id="v" gradientUnits="userSpaceOnUse" gradientTransform="matrix(-.0039 -.01854 .00208 -.00041 113.35 128.5)" x1="-819.2" x2="819.2"><stop offset="0"/><stop offset=".388" stop-color="#2e2323"/><stop offset=".824"/></linearGradient><path d="M115.25 134.2h-.1v.35l-.2.85h-.05l-.05-.55.55-1.4-.15.75" fill="url(#v)"/><linearGradient id="w" gradientUnits="userSpaceOnUse" gradientTransform="matrix(-.01472 -.01683 .0083 -.00613 101.1 127.45)" x1="-819.2" x2="819.2"><stop offset="0"/><stop offset=".388" stop-color="#2e2323"/><stop offset=".824"/></linearGradient><path d="M106.2 145.55l.05.4-.15-.1-.25-.2v-.5l-.05-.4h.3l.1.8m.7.05v-.05l-.05-.1-.1-.1-.05-.1-.25-.4-.1-.15.55-.2.05.75v.55l-.05-.2" fill="url(#w)"/><linearGradient id="x" gradientUnits="userSpaceOnUse" gradientTransform="matrix(-.01216 -.02869 .00346 -.0013 101.2 121.7)" x1="-819.2" x2="819.2"><stop offset="0"/><stop offset=".38" stop-color="#2e2a2a"/><stop offset=".824"/></linearGradient><path d="M108.5 145.3l-.1-.6.1-.55.2.25.55.4-.05.1q-.35.45-.4 1.2h-.1l-.1-.35-.1-.45m1.45-.15v.1l-.05.15v.05l-.05.05-.1.15-.15-.1-.05-.3-.15.25-.05-.45-.05-.2.55.05h.05l.05.25" fill="url(#x)"/><linearGradient id="y" gradientUnits="userSpaceOnUse" gradientTransform="matrix(-.01207 -.02843 .00441 -.00163 103.95 121.5)" x1="-819.2" x2="819.2"><stop offset="0"/><stop offset=".388" stop-color="#2e2323"/><stop offset=".824"/></linearGradient><path d="M110 144.95l-.05.3v-.1l-.05-.25h.1v.05m.7-.45l.4-.45.05-.05-.05.55-.25.65-.05-.25-.05-.2-.05-.25" fill="url(#y)"/><linearGradient id="z" gradientUnits="userSpaceOnUse" gradientTransform="matrix(-.00246 -.01738 .00325 -.00046 114.4 126.85)" x1="-819.2" x2="819.2"><stop offset="0"/><stop offset=".388" stop-color="#150f0f"/><stop offset=".824"/></linearGradient><path d="M5.7 51.7l.55-3.65q1-6.45 2.65-12.75v-.15h.05l.1-.5.35-1.15q1.15-4.55 2.8-8 2.25-3 4.7-4.95l1.1-.85-.2 1.4q-1.25 1.55-2.45 3.5v.25l-1.7 2.65-.45 1.55-3.5 7.2q-.85 2.45-2.1 8.25l-1.65 7.2-.35 1.5-.55 2.95.65-4.45m3 37.65L7.3 87.7l-.05-.05L7 87.2l-.1-.15-.05-.15-.15-.25-1.55-2.5q.35-10.2 1.35-20.3.6-6.25 2.2-12.15 2.75-10.1 8.55-19.1l.15-.2q.2 3.9.95 7.95l1.2 5.25 1.5 6.1 1.55 6.5-.15.45q-.9 2-.8 3.65L21 65.4l-.05.15q-.65 1.9-.6 3.5l-.95 11.8q-.05 8.45 1.2 13.9l-.65.5-.3-.3-.75-.6-1.35-.4-1.45-.45-.15-.05-1.7-.5-.45-.2-.4-.2-1.45-.7-1.9-1.3-.3-.2-.05-.05-1-.95" fill="url(#z)"/><linearGradient id="A" gradientUnits="userSpaceOnUse" gradientTransform="matrix(0 -.01755 .003 0 30.1 126.45)" x1="-819.2" x2="819.2"><stop offset="0"/><stop offset=".388" stop-color="#1e1616"/><stop offset=".824"/></linearGradient><path d="M24.15 65.55l2.7 14.05.25 1.55.15 3.25q.5 11.15 2.2 21.7l1.6 8.55.15.95.05.25-.15-.15.8 3.6v4.75l.1 3.2.1 4.75-.3 8.7.05.05.05.05v.05l-.05.05-.05.2v.1l-.1.2q-.15.5-.05.95l-.7-1.25-.1.1.3-2.5.15-1q.05-1.4.25-2.55l.1-1.7v-1.6l-.1-1.7-.25-2.5-.2-1.45-.65-4q-1.15-6.3-2.35-9.8l-.6-.9-.6-1.05-1.5-4.45-1.35-2.85-.45-1.05-.5-1.35-1.15-2.55-.8-1.4q-.35-.95-.55-2.05-1.25-5.45-1.2-13.9l.95-11.8q-.05-1.6.6-3.5l.05-.15.65-3.1q-.1-1.65.8-3.65l.15-.45.15.6 1.4 6.75m8.35 75.7l-.05.35-.1.3-.1-.8.1.05.1.1h.05" fill="url(#A)"/><linearGradient id="B" gradientUnits="userSpaceOnUse" gradientTransform="matrix(.0087 -.03088 .0094 .00258 4.55 111)" x1="-819.2" x2="819.2"><stop offset="0"/><stop offset=".388" stop-color="#2e2323"/><stop offset=".824"/></linearGradient><path d="M8.2 119.35l-.3 6.35-.25 1.9-.8 3.8-.7 1.9q-.25.75-.35 1.8l-.6 1.1-.05.05-.05.1-.55.95v-2.1h-.1l-.3 1v-1.35q-.55 1.1-1.4 1.8v-.05l.45-1v-1.45l-.9 1.25q-.3.25-.5.65l.05-.4.2-.8v-.1L3 130.2l.95-8.4q1-11.15.95-23.55l.25-14.1 1.55 2.5.15.25.05.15v.6l-.05 5.3-.05 1.25-.05 4.05v.05q-.05 2.05.25 5.4l.05.75.1 1.85.05.7.45 4.6.3 3.3.05.4.2 4.05m-3.1-15.1l-.15-.6-.05-.15v2.2l.1 1.85v2.5l.05.85v1.6l.1 7.25v.9l-.1 1.6-.7 3.05-.25.85-.35.85.6-.55.4-.45.4-.6.4-.8.55-1.9.05-.25.35-3.45.05.5.6 4.3v-4.3L7 112l-.85-3.8-.1-.5-.1-.25-.3-1.25-.5-1.75v-.1l-.05-.1m-3.7 30.4l-.05.05-.65.75H.55l.3-.4v-.45q-.4-.05-.5.2l-.35.3v-.05l.35-1 .95-3.1.05-.2.05 3.9m.05-.1l.6-3.8.1-.5v-.15l-.05.65-.2 3.1-.45.7m.2 1.7v-.1l.15-.25-.05.2-.1.15" fill="url(#B)"/><linearGradient id="C" gradientUnits="userSpaceOnUse" gradientTransform="matrix(-.00491 -.03143 .00436 -.00066 8.75 114.35)" x1="-819.2" x2="819.2"><stop offset="0"/><stop offset=".388" stop-color="#2e2323"/><stop offset=".824"/></linearGradient><path d="M7 87.2l.25.45.05.05 1.4 1.65-.35 7.25q0 3.4.35 7.2l.05.75.65 5.05q.65 4.55 1.6 8.9l.45 9.55v3.7l-.05 1.9-.7 3.7h-.05l-.3.9-.7 1.8v-3.25q-.2 1.1-.6 1.6v-.4l-.1-1.5.25-4.95v-.6L9 125.8l-.1-.85-.9-9.65-.05-.4-.2-2.3-.1-1-.45-4.6-.05-.7-.1-1.85-.05-.75q-.3-3.35-.25-5.4v-.05l.05-4.05.05-1.25.05-5.3v-.6l.1.15" fill="url(#C)"/><linearGradient id="D" gradientUnits="userSpaceOnUse" gradientTransform="matrix(-.00552 -.03152 .00679 -.00116 12.65 117.4)" x1="-819.2" x2="819.2"><stop offset="0"/><stop offset=".388" stop-color="#2e2323"/><stop offset=".824"/></linearGradient><path d="M13.7 139.2l-.05-.3-.4.65v-.2l-.05-.45H13v.35l-.1-1.85h-.15l.05.7-.1-.4-.2.05v1.15l-.35.45-.45 1.1.05-1.6-.35.55-1.25 1.9.2-3.05.3-.9h.05l.7-3.7.05-1.9v-3.7L11 118.5q1.05 4.45 2.45 8.8-1.6-5.45-2.75-13.3-.8-5.25-1.1-9.35l-.05-.8-.2-4.7.2-3.2.15-1.65.05-1.2-.05-2.8.05.05.3.2 1.9 1.3.15 1.4.15 1.2q.4 3.6 1.55 10.45l1.3 7.85.2 1.2.6 3.7 1.95 14.7.4 5.35.2-2.4-.1-2.95q-.3-5.15-1.3-11.8l-.4-2.85-.2-.75-.05-.35-.4-2.4-.75-4.05-.75-5.25q-.85-5.75-1.05-10.35v-1.2q-.1-.4-.05-.8l.4.2.45.2.05.45.95 6.2.7 4.45.05.15.1.85 1.6 9.35.55 3.4 1.15 8.15.85 6.55.4 5.1.05 1.2v1.8l-.25-1.5h-.15l-.1 1.2v.1h-.15v1l-.75-1.65-.15-1.5H19l-.1 1.75v.15l-.05.4-.05 1h-.05l-.25.75-.45.65v-.1l.05-.9v-.35q-.25-1-.15-1.2-.4.7-.35 1.4-.1.4-.05.9h-.1l-.2-.9-.05-.25h-.1l-.1.2-.35.8.15-.85V140l-.35 1-.25.6-.1-1.2v.1l-.7 1.1-.3.3-.65.85v-.1l.35-.6.2-.5.05-.25v-1.05l-.2.05-.6.9v-1.1l-.35.6q-.3.5-.25.8h-.1l-.35-1.25.5-1.05m-3.35-38.1l.05 3.35.05.25q.45 4.7 1.6 11.6l.2 1.05.5 3.1q.9 5.2 1.2 8.5l.05.4.1 2.35v.3l-.3 5.3q.8-2.45.65-6.95-.2-4.5-1.5-12.5l-.05-.4-.9-5.25-1.15-7.5-.5-3.6m4 13.2l1.2 7.4q.9 5.35.9 7.9l-.1 3.35h.25l.05-2 .15-1.55q0-2.9-.8-7.45l-1.5-7.65h-.15" fill="url(#D)"/><linearGradient id="E" gradientUnits="userSpaceOnUse" gradientTransform="matrix(.0073 0 0 .03194 14.35 116.6)" x1="-819.2" x2="819.2"><stop offset="0"/><stop offset=".388" stop-color="#2e2323"/><stop offset=".824"/></linearGradient><path d="M11 118.5q-.95-4.35-1.6-8.9l-.65-5.05-.05-.75q-.35-3.8-.35-7.2l.35-7.25 1 .95.05 2.8-.05 1.2-.15 1.65-.2 3.2.2 4.7.05.8q.3 4.1 1.1 9.35 1.15 7.85 2.75 13.3-1.4-4.35-2.45-8.8" fill="url(#E)"/><linearGradient id="F" gradientUnits="userSpaceOnUse" gradientTransform="matrix(-.00305 -.02739 .00119 -.00012 15.3 115.05)" x1="-819.2" x2="819.2"><stop offset="0"/><stop offset=".388" stop-color="#2e2323"/><stop offset=".824"/></linearGradient><path d="M13.45 93.35v1.2q.2 4.6 1.05 10.35l.75 5.25.75 4.05.4 2.4.05.35.2.75.4 2.85q1 6.65 1.3 11.8l.1 2.95-.2 2.4-.4-5.35-1.95-14.7-.6-3.7-.2-1.2-1.3-7.85q-1.15-6.85-1.55-10.45l-.15-1.2-.15-1.4 1.45.7q-.05.4.05.8" fill="url(#F)"/><linearGradient id="G" gradientUnits="userSpaceOnUse" gradientTransform="matrix(-.00737 -.02968 .00328 -.0008 19.05 118.25)" x1="-819.2" x2="819.2"><stop offset="0"/><stop offset=".38" stop-color="#2e2a2a"/><stop offset=".824"/></linearGradient><path d="M16.05 95.1l.3 2.8.2 1.6q.3 2.5.95 5.65.95 5.55 2.75 12.8l.25 1.15.35 1.4q1.55 6.6 2.45 12.3l.85 6.3H24l-.05 1v-.05l-.05-.5h-.15l-.35-2.35h-.15l.35 2.15v.05h-.1l-.4-1.6v.05l-.15-.1-.05.25q0 1 .35 2.3v.05l-.1-.05v-.05l-.1-.05-.2.15-.15-.15-.95-7.6-.85-4.7-.1-.45-.7-3.65-1.2-5.9-.45-1.9-1.6-7.75-.7-3.2-.15-.85-.05-.15-.7-4.45-.95-6.2-.05-.45 1.7.5.15.05-.05 1.6m7.3 47.75l.05.2v.35l-.1.5h-.1l-.1-.8v-.55l-.1.2-.1.3-.15-1.7v-.15l-.05-.45v-.35l.35.3.15 1-.15-.9h-.2v1.2l.25.25v.2l.05-.1.2.3v.2m-.3-2.25v.05l-.15-.2.15.15m.35 2.45h-.05.05" fill="url(#G)"/><linearGradient id="H" gradientUnits="userSpaceOnUse" gradientTransform="matrix(-.0073 -.02942 .00418 -.001 21.55 118.4)" x1="-819.2" x2="819.2"><stop offset="0"/><stop offset=".388" stop-color="#2e2323"/><stop offset=".824"/></linearGradient><path d="M23.35 142.65l-.2-.3-.05-.1-.25-.25v-1.2h.2l.15.9-.15-1-.35-.3-.05-.05.05.4v.3l-.05.65-.2.1-.05.35-.1.05.15.5-.05.3-.1.25q-.5-.65-.55-1.75l-.05-.45-.1-.2v.15l-.05.75-.05.45h-.2l-.3-3.65h.15l.25 1.15v-.15l.05-1h.15l.05.25.15.65.05.25.05-.6h.15l.15.75-.05-.3v-1.5h.15l.3 2.2.05-.05h.05l.15.15.2-.15.1.05v.05l.1.05v-.05q-.35-1.3-.35-2.3l.05-.25.15.1v-.05l.4 1.6h.1v-.05l-.35-2.15h.15l.35 2.35h.15l.05.5.05 1.05.05.25-.1-1.1v-.15l.05-1h.15l-.85-6.3q-.9-5.7-2.45-12.3l-.35-1.4-.25-1.15q-1.8-7.25-2.75-12.8-.65-3.15-.95-5.65l-.2-1.6-.3-2.8.05-1.6 1.45.45 1.35.4.75.6.7 3.15 1.5 7.3 2.6 12.9.1.6.4 2.25.6 3.35.35 2.7.55 4.3-.7 4.1.05 1.1.25-.05q-.05-.6.45-3.7l.05-.35.05.4.7 9.3-.3.65-.45.65-.05-.9-.15.4-.45.95v-.1l.2-1.55v-.15l-.1.6h-.15v-.45l-.2-1.1v-.1l-.05.15-.4 1.3-.05.2-.05.4h-.15l-.25.35.25-.85-.25-1.1-.05-.15-.1 1.6V142l-.05-.7-.25 1.55h-.2v-.75l-.05.2v.25l-.1.1-.15.6h-.2l.1-.45-.15.25h-.1l.05-.15.05-.05h-.15v-.2m.2-19.5l.45 2.4-.1-2.15-.7-5.2-.75-3.25-3.1-9.65 2.6 10.4.55 2.45 1.05 5m-4.65 17V140l.1-1.75h.15l.15 1.5.75 1.65v-1h.15v-.1l.1-1.2h.15l.25 1.5.15.85v.05l-.05 1.3-.2.05-.2-1.1v.3q0 .8-.4 1.5h-.1v-.35l.05-.3-.45-1.2-.05.85-.25.1-.3-2.5m-5.7.1l-.8.9-.3.05.1-.1h-.1l.2-.25-.1-.25.05-.1h-.05l.1-.05.2-1.25v-1.45l.2-.05.1.4-.05-.7h.15l.1 1.85v-.35h.2l.05.45v.2l.4-.65.05.3-.5 1.05m8.65-.45v-.1.1m1.05.65l.15.2v-.05l-.15-.15m.45 2.6h.05-.05" fill="url(#H)"/><linearGradient id="I" gradientUnits="userSpaceOnUse" gradientTransform="matrix(-.007 -.02872 .00365 -.00085 24.3 119.1)" x1="-819.2" x2="819.2"><stop offset="0"/><stop offset=".388" stop-color="#2e2323"/><stop offset=".824"/></linearGradient><path d="M30 137.6l-.75 5.55-.2.15v-.1q-.1-.1.05-.1l.15-.5-.1-.8-.5 1.1-.15-1.05-.45.95-.4 1.8.15-1.1.15-.7v-.45l-.2.35-.2.3-.1-1.05-.15.35-.7-9.3-.05-.4.3-2.3.1-.95v-1.1l-.45-6.45q-.45-3.1-1.9-8.35l-.15.05q1.65 6.7 2.05 13.3l.15 2.75v.65l-.2 1.3-.55-4.3-.35-2.7-.6-3.35-.4-2.25-.1-.6-2.6-12.9-1.5-7.3-.7-3.15.3.3 1.2 1.55.8 1.4 1.15 2.55.5 1.35.05.4.7 3.1.1.45 2 7.9q1.1 4.6 2.4 11.9l.95 6 .3 5.1-.1.65" fill="url(#I)"/><linearGradient id="J" gradientUnits="userSpaceOnUse" gradientTransform="matrix(.00073 -.05612 .07341 .00095 69.3 117.65)" x1="-819.2" x2="819.2"><stop offset="0"/><stop offset=".388" stop-color="#2e2323"/><stop offset=".824"/></linearGradient><path d="M19.95 95.25l.65-.5q.2 1.1.55 2.05l-1.2-1.55m6.15 13.55l-1.15-3.2-.5-1.4-.4-1.05L25.4 106l1.5 4.45-.8-1.65" fill="url(#J)"/><linearGradient id="K" gradientUnits="userSpaceOnUse" gradientTransform="matrix(0 .01553 -.00388 0 33.7 127.8)" x1="-819.2" x2="819.2"><stop offset=".024" stop-color="#070201"/><stop offset=".388" stop-color="#1e1716"/><stop offset=".929" stop-color="#090707"/></linearGradient><path d="M31.9 119.25l-.65-3.4-.05-.25-.15-.95-1.6-8.55q-1.7-10.55-2.2-21.7l-.15-3.25 2.05 12.75 2.25 17.35v.35l-.75-2.45h-.15l1.1 4.75v.25l.1 1.5.2 3.6" fill="url(#K)"/><linearGradient id="L" gradientUnits="userSpaceOnUse" gradientTransform="matrix(.0003 -.01225 .00192 .00005 29.3 124.6)" x1="-819.2" x2="819.2"><stop offset="0"/><stop offset=".388" stop-color="#2e2323"/><stop offset=".824"/></linearGradient><path d="M31.4 111.6l.2 2.3-1.1-4.75h.15l.75 2.45m-2.15 31.55l.75-5.55.1-.65.35-3.6V133l-.35-5.5-.2-1.45-.35-2.95q-.6-2.95-.9-5.4l-.1-.45-.15-.45-.2-1.35-.3-1.65-.4-2.3.6.9q1.2 3.5 2.35 9.8l.65 4 .2 1.45.25 2.5.1 1.7v1.6l-.1 1.7q-.2 1.15-.25 2.55l-.15 1-.3 2.5v.05q-.5.5-.55 1.05l-.1.2-.1-1.05-.1-.5q-.05 1.05-.75 2.2" fill="url(#L)"/><linearGradient id="M" gradientUnits="userSpaceOnUse" gradientTransform="matrix(-.0053 -.02013 .00237 -.0006 27 118.85)" x1="-819.2" x2="819.2"><stop offset="0"/><stop offset=".388" stop-color="#2e2323"/><stop offset=".824"/></linearGradient><path d="M26.9 110.45l.6 1.05.4 2.3.3 1.65.2 1.35.15.45.1.45q.3 2.45.9 5.4l.35 2.95.2 1.45.35 5.5v.35l-.35 3.6-.3-5.1-.95-6q-1.3-7.3-2.4-11.9l-2-7.9-.1-.45-.7-3.1-.05-.4.45 1.05.4 1.05.5 1.4 1.15 3.2.8 1.65" fill="url(#M)"/><linearGradient id="N" gradientUnits="userSpaceOnUse" gradientTransform="matrix(.0001 -.01192 .0028 .00003 21.4 115.4)" x1="-819.2" x2="819.2"><stop offset="0" stop-color="#2d2827"/><stop offset=".388" stop-color="#392d2a"/><stop offset=".929" stop-color="#1e1c1c"/></linearGradient><path d="M26.45 131.5l.2-1.3v-.65l-.15-2.75q-.4-6.6-2.05-13.3l.15-.05q1.45 5.25 1.9 8.35l.45 6.45v1.1l-.1.95-.3 2.3-.05.35q-.5 3.1-.45 3.7l-.25.05-.05-1.1.7-4.1m-3.95-13.35l-.55-2.45-2.6-10.4 3.1 9.65.75 3.25.7 5.2.1 2.15-.45-2.4-1.05-5m-8-3.85l1.5 7.65q.8 4.55.8 7.45l-.15 1.55-.05 2h-.25l.1-3.35q0-2.55-.9-7.9l-1.2-7.4h.15" fill="url(#N)"/><linearGradient id="O" gradientUnits="userSpaceOnUse" gradientTransform="matrix(0 .01553 -.00388 0 33.7 127.8)" x1="-819.2" x2="819.2"><stop offset=".024" stop-color="#15100f"/><stop offset=".388" stop-color="#392d2a"/><stop offset=".929" stop-color="#090707"/></linearGradient><path d="M31.9 119.25v.05l-.8-3.6.15.15.65 3.4" fill="url(#O)"/><linearGradient id="P" gradientUnits="userSpaceOnUse" gradientTransform="matrix(-.01117 -.01845 .00827 -.00487 18.25 123.8)" x1="-819.2" x2="819.2"><stop offset="0"/><stop offset=".388" stop-color="#2e2323"/><stop offset=".824"/></linearGradient><path d="M21.55 135.45l.25 4-.15-.65-.05-.25h-.15l-.05 1v.15l-.25-1.15H21l.3 3.65h.2l.05-.45.1 1.05-.05.45V143l-.7-1.65v.25l-.05-.1v-.05l-.15-.85v-1.8l-.05-1.2-.4-5.1-.85-6.55-1.15-8.15-.55-3.4-1.6-9.35-.1-.85.15.85.7 3.2 1.6 7.75.45 1.9 1.2 5.9.7 3.65.1.45.65 7.55" fill="url(#P)"/><linearGradient id="Q" gradientUnits="userSpaceOnUse" gradientTransform="matrix(.0002 -.0216 .0026 .00002 12.3 119.8)" x1="-819.2" x2="819.2"><stop offset="0" stop-color="#2d2827"/><stop offset=".388" stop-color="#392d2a"/><stop offset=".929" stop-color="#1e1c1c"/></linearGradient><path d="M10.85 104.7l1.15 7.5.9 5.25.05.4q1.3 8 1.5 12.5.15 4.5-.65 6.95l.3-5.3v-.3l-.1-2.35-.05-.4q-.3-3.3-1.2-8.5l-.5-3.1-.2-1.05q-1.15-6.9-1.6-11.6l-.05-.25-.05-3.35.5 3.6" fill="url(#Q)"/><linearGradient id="R" gradientUnits="userSpaceOnUse" gradientTransform="matrix(.00014 -.0143 .00208 .00002 5.55 116.5)" x1="-819.2" x2="819.2"><stop offset="0" stop-color="#2d2827"/><stop offset=".388" stop-color="#392d2a"/><stop offset=".929" stop-color="#1e1c1c"/></linearGradient><path d="M5.15 104.35v.1l.5 1.75.3 1.25.1.25.1.5L7 112l.15 7.5v4.3l-.6-4.3-.05-.5-.35 3.45-.05.25-.55 1.9-.4.8-.4.6-.4.45-.6.55.35-.85.25-.85.7-3.05.1-1.6v-.9l-.1-7.25v-1.6l-.05-.85v-2.5l-.1-1.85v-2.2l.05.15.15.6.05.1" fill="url(#R)"/><linearGradient id="S" gradientUnits="userSpaceOnUse" gradientTransform="matrix(.00357 -.01312 .00307 .0008 7.6 127.7)" x1="-819.2" x2="819.2"><stop offset="0"/><stop offset=".388" stop-color="#2e2323"/><stop offset=".824"/></linearGradient><path d="M5.8 135.1q.1-1.05.35-1.8l.7-1.9.8-3.8.25-1.9.3-6.35-.2-4.05.9 9.65v.85l-.25 5.75-.95 5.15-.15.4-.45.85.2-1.8-.35.85-.35.75v-1.55h-.1l-.75 1.7v-.1l.05-1.45v-1.25" fill="url(#S)"/><linearGradient id="T" gradientUnits="userSpaceOnUse" gradientTransform="matrix(.00067 -.00888 .00082 .00006 8.5 132.95)" x1="-819.2" x2="819.2"><stop offset="0"/><stop offset=".388" stop-color="#2e2323"/><stop offset=".824"/></linearGradient><path d="M8.9 136.25l-1.5 3.35v-.1q.65-2.65.3-2.8l.95-5.15.25-5.75v-.85l.1.85.2 5.15v.6l-.25 4.95-.05-.25" fill="url(#T)"/><linearGradient id="U" gradientUnits="userSpaceOnUse" gradientTransform="matrix(-.00446 -.00735 .00398 -.00235 21 135.65)" x1="-819.2" x2="819.2"><stop offset="0"/><stop offset=".388" stop-color="#2e2323"/><stop offset=".824"/></linearGradient><path d="M21.8 139.45l-.25-4-.65-7.55.85 4.7.95 7.6h-.05l-.05.05-.3-2.2h-.15v1.5l.05.3-.15-.75h-.15l-.05.6-.05-.25m-.2 3.8l.05-.45.1.7-.1.2-.05-.25v-.2m1.1-2.5l.05.45-.05-.15v-.3m-.05-.4l.05.05v.35l-.05-.4" fill="url(#U)"/><linearGradient id="V" gradientUnits="userSpaceOnUse" gradientTransform="matrix(-.00256 -.01685 .00111 -.00017 29.9 126.7)" x1="-819.2" x2="819.2"><stop offset=".024" stop-color="#282423"/><stop offset=".388" stop-color="#323030"/><stop offset=".929" stop-color="#191514"/></linearGradient><path d="M32 140.85l-.1 1.35.05-1.25v-.15l.05.05" fill="url(#V)"/></g></svg>