<?xml version="1.0" encoding="utf-8"?>
<svg version="1.1" id="Layer_1"
xmlns="http://www.w3.org/2000/svg"
xmlns:xlink="http://www.w3.org/1999/xlink"
xmlns:author="http://www.sothink.com"
width="20px" height="7px"
xml:space="preserve">
<g id="95" transform="matrix(1, 0, 0, 1, -60.35, -29.9)">
<path style="fill:#D5C8D2;fill-opacity:0.901961" d="M77.4,30.55L77.6 30.6L77.75 30.6L78.3 30.8L78.4 30.9L78.65 31.3L78.2 30.85L77.75 30.7L75.85 30.55L75.3 30.55L75.8 30.5L76.25 30.5L76.65 30.5L77.4 30.55" />
<path style="fill:#363438;fill-opacity:0.901961" d="M78.65,30.35L78.75 30.65L78.75 30.75L78.7 30.6L78.65 30.45L78.45 30.4L78.1 30.35L78.35 30.35L78.65 30.35" />
<path style="fill:#4A3538;fill-opacity:0.901961" d="M78.65,30.75L78.75 30.85L78.8 31L78.85 31.2L78.8 31.15L78.75 31.05L78.6 30.7L78.65 30.75" />
<path style="fill:#79867F;fill-opacity:0.901961" d="M80.15,30.4L78.85 30.2L78.4 30.15L78.05 30.1L78.5 30.1L79.55 30.2L80.15 30.3L80.15 30.4" />
<path style="fill:#6F6F6F;fill-opacity:1" d="M79.2,30.5L79.2 30.55L79.25 30.5L79.2 30.5M79.3,30.5L79.25 30.6L79.2 30.6L79.15 30.55L79.25 30.45L79.3 30.5" />
<path style="fill:#3D3938;fill-opacity:1" d="M79.4,30.55L79.4 30.5L79.35 30.45L79.35 30.5L79.4 30.45L79.45 30.45L79.45 30.5L79.4 30.55" />
<path style="fill:#817F80;fill-opacity:1" d="M79.35,30.45L79.4 30.5L79.4 30.55L79.35 30.5L79.35 30.45" />
<path style="fill:#A7A5A8;fill-opacity:1" d="M79.25,30.5L79.2 30.55L79.2 30.5L79.25 30.5" />
<path style="fill:#303539;fill-opacity:1" d="M79.25,30.65L79.25 30.6L79.25 30.65L79.2 30.7L79.15 30.7L79.25 30.7L79.35 30.7L79.35 30.65L79.35 30.6L79.4 30.65L79.45 30.6L79.5 30.65L79.5 30.7L79.5 30.65L79.45 30.65L79.45 30.7L79.5 30.7L79.4 30.7L79.15 30.75L79.1 30.7L79.15 30.65L79.2 30.6L79.25 30.6L79.3 30.6L79.3 30.65L79.35 30.65L79.3 30.65L79.25 30.65" />
<path style="fill:#4F575A;fill-opacity:1" d="M79.3,30.65L79.35 30.65L79.35 30.7L79.25 30.7L79.15 30.7L79.2 30.7L79.25 30.65L79.25 30.6L79.25 30.65L79.3 30.65" />
<path style="fill:#3B4346;fill-opacity:1" d="M79.5,30.7L79.45 30.7L79.45 30.65L79.5 30.65L79.5 30.7" />
<path style="fill:#595357;fill-opacity:1" d="M79.45,30.75L79.5 30.75L79.55 30.8L79.45 30.85L79.4 30.8L79.45 30.75" />
<path style="fill:#E1E9EC;fill-opacity:1" d="M79.25,31.15L79.6 31.1L79.65 31.05L79.85 31.05L79.8 30.9L79.65 30.95L79.25 31.1L79.25 31.15M79.2,31.15L79.2 31.1L79.65 30.9L79.85 30.85L79.9 30.9L79.9 31.05L79.2 31.15" />
<path style="fill:#F9FFFF;fill-opacity:1" d="M79.25,31.1L79.65 30.95L79.8 30.9L79.85 31.05L79.65 31.05L79.6 31.1L79.25 31.15L79.25 31.1M79.65,30.95L79.55 31L79.65 31L79.8 30.95L79.75 30.95L79.65 30.95" />
<path style="fill:#BAB7B2;fill-opacity:0.901961" d="M76.15,30.05L76.45 30.05L76.5 30.05L77.8 30.1L77.95 30.1L78.05 30.1L78.4 30.15L77.6 30.15L76.45 30.1L76.2 30.1L75.95 30.05L75.6 30L75.65 30L75.75 30L75.8 30L76.15 30.05" />
<path style="fill:#9D7F81;fill-opacity:0.901961" d="M75.55,30L75.15 30.05L75.15 30.1L74.55 30.15L75.55 30" />
<path style="fill:#B29494;fill-opacity:0.8" d="M78.9,32.55L78.9 32.5L78.85 31.9L78.8 31.65L78.65 31.25L78.65 31.3L78.4 30.9L78.8 31.3L79 31.9L79.05 32.25L79.05 32.5L79.05 32.65Q78.95 32.55 78.9 32.7L78.85 32.85L78.9 32.55M75.8,30.5L75.3 30.55L74 30.7L73.65 30.75L72.7 30.95L73.25 30.75L73.4 30.7L73.55 30.7L73.95 30.65L74.45 30.55L74.8 30.55L75.55 30.5L76.1 30.5L76.25 30.5L75.8 30.5" />
<path style="fill:#7A3142;fill-opacity:0.8" d="M72.3,31.15Q72.15 31.25 72.05 31.3L71.85 31.55L71.8 31.75L71.7 32.05L71.65 32L71.85 31.45L72.25 31.05Q72.85 30.75 73.85 30.55L74.7 30.5L75.65 30.45L76.1 30.5L75.55 30.5L74.8 30.55L74.45 30.55L73.95 30.65L73.55 30.7L73.4 30.7L73.25 30.75L72.7 30.95Q72.45 31 72.3 31.15" />
<path style="fill:#C78469;fill-opacity:1" d="M79.8,31.2L79.45 31.2L79.9 31.15L79.9 31.2L79.8 31.2" />
<path style="fill:#AE5C46;fill-opacity:1" d="M79.65,31.25L79.25 31.25L79.2 31.2L79.65 31.15L79.9 31.1L79.9 31.15L79.45 31.2L79.8 31.2L79.9 31.2L79.65 31.25" />
<path style="fill:#311009;fill-opacity:1" d="M79.65,31.15L79.2 31.2L79.2 31.15L79.9 31.05L79.9 31.1L79.65 31.15" />
<path style="fill:#D6DFDC;fill-opacity:1" d="M79.75,30.95L79.8 30.95L79.65 31L79.55 31L79.65 30.95L79.75 30.95" />
<path style="fill:#91452E;fill-opacity:1" d="M79.9,31.2L79.9 31.35L79.65 31.35L79.6 31.35L79.25 31.25L79.65 31.25L79.9 31.2M79.65,31.3L79.55 31.3L79.85 31.3L79.85 31.25L79.65 31.3" />
<path style="fill:#D29173;fill-opacity:1" d="M79.75,31.3L79.85 31.25L79.85 31.3L79.75 31.3" />
<path style="fill:#C6805C;fill-opacity:1" d="M79.85,31.25L79.75 31.3L79.85 31.3L79.55 31.3L79.65 31.3L79.85 31.25" />
<path style="fill:#905D66;fill-opacity:0.901961" d="M80.15,31.85L80.25 31.75L80.25 31.8Q79.6 32.65 79 34.15L78.95 34.4L78.75 34.75L78.6 34.85L78.85 34.4L78.95 34.25L79.6 32.8L79.6 32.75L80 32.15L80 32.1L80.15 31.85" />
<path style="fill:#E3F2ED;fill-opacity:1" d="M79.95,32.1L79.95 32.15L79.7 32.45L79.7 32.4L79.75 32.25L79.9 32.05L79.95 32.1" />
<path style="fill:#6B2C27;fill-opacity:0.8" d="M78.6,33.2L78.65 32.3L78.6 31.5L78.4 31.1L78.65 31.45L78.7 32.15L78.7 32.65L78.65 32.95L78.65 33L78.6 33.2" />
<path style="fill:#6B3437;fill-opacity:0.8" d="M78.85,32.35L78.8 32.35L78.8 32.65L78.75 32.75L78.75 32.55L78.8 32.35L78.85 31.9L78.9 32.5L78.9 32.55L78.85 32.85L78.8 33.15L78.8 32.95L78.8 32.85L78.85 32.35" />
<path style="fill:#B1605F;fill-opacity:0.8" d="M78.8,32.85L78.75 33.15L78.65 33.6L78.6 33.65L78.4 34.1L78.25 34.25L78.55 33.55L78.7 33.1L78.75 32.85L78.75 32.75L78.8 32.65L78.8 32.35L78.85 32.35L78.8 32.85" />
<path style="fill:#BBA6AF;fill-opacity:0.8" d="M78.3,34.45L78.4 34.3L78.55 34L78.7 33.45L78.8 33.15L78.85 32.85L78.9 32.7Q78.95 32.55 79.05 32.65L78.8 33.45L78.6 34.1L78.5 34.25L78.5 34.3L78.2 34.75L78.25 34.6L78.15 34.7L78.3 34.45" />
<path style="fill:#EBEBEB;fill-opacity:0.901961" d="M73.7,35.55L73.65 35.5L73.1 35.25L73.05 35.2L72.55 34.85L72.4 34.65L72.25 34.45L72.2 34.35L72.25 34.4L72.55 34.7L72.7 34.85L73 35.1L73.05 35.15L73.15 35.2L73.2 35.2L73.35 35.3L73.75 35.4L74.25 35.55L75.25 35.6L76.7 35.45L76.55 35.55L76.6 35.55L76.75 35.5L76.8 35.5L77.45 35.25L78.1 34.85L78.2 34.75L78.5 34.3L78.5 34.25L78.6 34.1L78.8 33.45L79.05 32.65L79.05 32.9L79.05 33Q78.9 34.1 78.35 34.7L78.25 34.8Q77.8 35.3 76.75 35.55L76.7 35.6L75.95 35.7L75.05 35.75L74.4 35.7L74.3 35.7L74.05 35.65L73.8 35.6L73.75 35.55L73.7 35.55M74.35,35.7L74.3 35.7L74.35 35.7" />
<path style="fill:#883831;fill-opacity:0.8" d="M78.65,33L78.65 32.95L78.75 32.55L78.75 32.75L78.75 32.85L78.7 33.1L78.55 33.55L78.25 34.25L78.1 34.45L78.15 34.4L78.25 34.25L78.3 34.05L78.45 33.65L78.6 33.1L78.6 33.2L78.65 33" />
<path style="fill:#8A3F46;fill-opacity:0.8" d="M78.4,34.1L78.6 33.65L78.65 33.6L78.75 33.15L78.8 32.85L78.8 32.95L78.8 33.15L78.7 33.45L78.55 33.85L78.45 34.1L78.35 34.25L78.3 34.3L78.1 34.5L77.95 34.65L78.1 34.45L78.25 34.25L78.4 34.1" />
<path style="fill:#4F2429;fill-opacity:0.8" d="M72.9,34.75L73.6 35.15L74.95 35.4L76.2 35.35L77.1 35.1Q78.1 34.65 78.45 33.65L78.3 34.05L78.25 34.25L78.15 34.4L78.1 34.45L77.95 34.65L77.8 34.75L77.55 34.95L77.25 35.1L76.3 35.35L75.65 35.45L75.6 35.45L75.15 35.45L73.8 35.25L73.3 35.05L73 34.95L73 34.9L72.95 34.9L72.8 34.7L72.9 34.75" />
<path style="fill:#9A6A76;fill-opacity:0.8" d="M78.15,34.7L77.8 35L77.9 34.8L78.05 34.7L78.35 34.25L78.45 34.1L78.55 33.85L78.7 33.45L78.55 34L78.4 34.3L78.3 34.45L78.15 34.7" />
<path style="fill:#C1C4CD;fill-opacity:0.8" d="M77.95,34.65L77.85 34.75L77.8 34.8L77.8 34.75L77.95 34.65" />
<path style="fill:#E2DCE6;fill-opacity:0.901961" d="M70.7,31L70.35 30.95L71.2 30.8L71.3 30.8L72.15 30.55L73.3 30.25L73.7 30.2L73.35 30.35L73 30.45L72.6 30.6L71.65 30.8L70.9 30.95L70.7 31" />
<path style="fill:#5E171B;fill-opacity:0.901961" d="M70.75,31L70.9 30.95L71.65 30.8L72.6 30.6L73 30.45L73.35 30.35L73.7 30.3L74.55 30.15L75.15 30.1L75.15 30.05L75.65 30.05L75.8 30.05L75.9 30.05L76 30.1L75.85 30.1L75.45 30.1L72.8 30.55L71.45 30.95L71 31.05L70.75 31.05L70.7 31.05L70.45 31.05L70.75 31" />
<path style="fill:#8B6067;fill-opacity:0.901961" d="M73.75,30.15L75.55 30L75.6 30L75.95 30.05L76.1 30.1L76.05 30.1L76 30.1L75.9 30.05L75.8 30.05L75.65 30.05L75.15 30.05L75.55 30L74.55 30.15L73.7 30.3L74.05 30.15L74 30.15L73.9 30.15L73.75 30.15" />
<path style="fill:#9F7581;fill-opacity:0.901961" d="M73.9,30.15L74 30.15L74.05 30.15L73.7 30.3L73.35 30.35L73.7 30.2L73.3 30.25L73.55 30.2L73.65 30.15L73.75 30.15L73.9 30.15" />
<path style="fill:#1B151F;fill-opacity:1" d="M70.3,30.95L70.3 30.9L71.55 30.65L73.3 30.2L73.55 30.2L73.3 30.25L72.15 30.55L71.3 30.8L71.2 30.8L70.35 30.95L70.3 30.95" />
<path style="fill:#F0FFFF;fill-opacity:1" d="M71.85,31.55L72.05 31.3Q72.15 31.25 72.3 31.15Q72.45 31 72.7 30.95L73.65 30.75L74 30.7L73.5 30.85L72.7 31.05L72.4 31.2L72.15 31.4L71.85 31.8L71.85 31.55" />
<path style="fill:#A06265;fill-opacity:0.8" d="M71.7,32.2L71.7 32.05L71.8 31.75L71.85 31.55L71.85 31.8L71.85 31.85L71.75 32.25L71.75 32.35Q71.8 33.35 72.2 34L72.5 34.4L72.7 34.6L72.8 34.7L72.95 34.9L72.75 34.75L72.6 34.6L72.3 34.2L71.85 33.4L71.7 32.6L71.7 32.35L71.7 32.3L71.7 32.2" />
<path style="fill:#7D3737;fill-opacity:0.8" d="M70.3,32.05L70.3 31.95L70.8 31.95L71.1 32L71.2 32.1L71.25 32.25L71.05 32.1L70.85 32.05L70.65 32.05L70.45 32.05L70.3 32.05" />
<path style="fill:#6B3030;fill-opacity:0.0431373" d="M72.8,34.7L72.7 34.6L72.5 34.25L72.15 33.35L71.75 32.35L72.1 32.95L72.4 33.8L72.65 34.4L72.85 34.75L72.9 34.75L72.8 34.7" />
<path style="fill:#4A2125;fill-opacity:0.901961" d="M72.05,34.05L71.95 33.9L71.85 33.75L71.75 33.4L71.65 33.05L71.55 33.2L71.55 33.25L71.6 33.6L71.6 33.65L71.55 33.65L71.4 33.2L71.2 32.6L71.2 32.7L71.35 33.45L71.05 32.6L71.1 32.5L71.1 32.4L71.25 32.5L71.5 32.65L71.6 32.45L71.7 32.3L71.7 32.35L71.65 32.6L71.5 32.65L71.3 32.6L71.2 32.5L71.15 32.5L71.25 32.65L71.35 32.7L71.35 32.85L71.45 33.15L71.5 33.35L71.55 33.1L71.65 32.9L71.75 33.2L71.8 33.55L72 33.9L72.05 34.05" />
<path style="fill:#6C3133;fill-opacity:0.901961" d="M71.9,33.55L71.9 33.65L71.95 33.7L72 33.9L71.8 33.55L71.75 33.2L71.65 32.9L71.55 33.1L71.5 33.35L71.45 33.15L71.35 32.85L71.35 32.7L71.25 32.65L71.15 32.5L71.2 32.5L71.3 32.6L71.5 32.65L71.65 32.6L71.7 32.35L71.7 32.6L71.85 33.4L71.9 33.55M71.6,32.7L71.4 32.7L71.45 33L71.6 32.85L71.65 32.7L71.6 32.7" />
<path style="fill:#973834;fill-opacity:0.901961" d="M70.35,30.95L70.7 31L70.9 30.95L70.75 31L70.45 31.05L70.3 31.05L70.3 30.95L70.35 30.95" />
<path style="fill:#727A87;fill-opacity:1" d="M70.7,32.2L70.55 32.2L70.45 32.2L70.35 32.2L70.4 32.25L70.3 32.2L70.35 32.2L70.4 32.15L70.5 32.15L70.6 32.15L70.7 32.15L70.75 32.2L70.65 32.25L70.7 32.2" />
<path style="fill:#BBCACF;fill-opacity:1" d="M70.65,32.2L70.4 32.2L70.45 32.25L70.4 32.25L70.35 32.2L70.45 32.2L70.55 32.2L70.7 32.2L70.65 32.25L70.65 32.2" />
<path style="fill:#734246;fill-opacity:0.8" d="M71.35,33.7L71.2 33.3L71 32.8L70.85 32.5L70.55 32.4L70.3 32.35L70.3 32.3L70.85 32.5L70.9 32.55L70.9 32.6L71.1 32.95L71.3 33.55L71.35 33.7" />
<path style="fill:#F3FEFF;fill-opacity:1" d="M70.65,32.25L70.6 32.3L70.5 32.25L70.45 32.25L70.4 32.2L70.65 32.2L70.65 32.25" />
<path style="fill:#C5C3B6;fill-opacity:1" d="M71.05,32.35L71.05 32.4L70.95 32.5L70.95 32.4L71 32.35L71.05 32.35M71.05,32.4L71 32.4L70.95 32.45L71 32.45L71.05 32.4" />
<path style="fill:#ECEFE6;fill-opacity:1" d="M71,32.45L70.95 32.45L71 32.4L71.05 32.4L71 32.45" />
<path style="fill:#261E29;fill-opacity:0.901961" d="M71.5,34L71.45 33.8L71.3 33.55L71.1 32.95L70.9 32.6L71.05 32.6L71.35 33.45L71.2 32.7L71.2 32.6L71.4 33.2L71.55 33.65L71.6 33.65L71.6 33.6L71.55 33.25L71.6 33.2L71.65 33.3L71.65 33.6L71.75 34.05L71.75 34.1L71.5 33.75L71.6 34L71.7 34.15L71.8 34.4L71.5 34" />
<path style="fill:#BA9994;fill-opacity:0.4" d="M71.75,32.35L72.15 33.35L72.5 34.25L72.7 34.6L72.5 34.4L72.25 33.8L71.9 32.95L72.05 33.45L72.2 34Q71.8 33.35 71.75 32.35" />
<path style="fill:#F0FFFF;fill-opacity:0.4" d="M72.2,34L72.05 33.45L71.9 32.95L72.25 33.8L72.5 34.4L72.2 34" />
<path style="fill:#723F3C;fill-opacity:0.901961" d="M71.65,32.7L71.6 32.85L71.45 33L71.4 32.7L71.6 32.7L71.65 32.7" />
<path style="fill:#3E2633;fill-opacity:0.901961" d="M71.75,33.65L71.7 33.7L71.8 33.95L71.85 34.15L71.85 34.25L71.85 34.3L71.8 34.4L71.8 34.45L71.8 34.4L71.7 34.15L71.6 34L71.5 33.75L71.75 34.1L71.75 34.05L71.65 33.6L71.65 33.3L71.6 33.2L71.55 33.25L71.55 33.2L71.65 33.05L71.75 33.4L71.85 33.75L71.75 33.65" />
<path style="fill:#42404E;fill-opacity:0.901961" d="M72.2,34.35L72.05 34.2L71.95 34.05L71.9 34.1L71.85 34.25L71.85 34.15L71.8 33.95L71.7 33.7L71.75 33.65L71.85 33.75L71.95 33.9L72.05 34.05L72.1 34.1L72.15 34.3L72.2 34.35" />
<path style="fill:#796872;fill-opacity:0.8" d="M72.15,35.1L72 34.9L71.5 34.05L71.35 33.7L71.3 33.55L71.45 33.8L71.5 34L71.75 34.5L72 34.8L72.15 35.1" />
<path style="fill:#4C647C;fill-opacity:0.901961" d="M71.9,34.1L71.95 34.05L72.05 34.2L72.2 34.35L72.25 34.45L72.1 34.35L72 34.25L71.9 34.3L71.85 34.45L71.8 34.45L71.8 34.4L71.85 34.3L71.85 34.25L71.9 34.1" />
<path style="fill:#D1D6D2;fill-opacity:0.8" d="M72.75,34.8L72.45 34.55L72.15 34.15L71.95 33.7L71.9 33.65L71.9 33.55L71.85 33.4L72.3 34.2L72.6 34.6L72.75 34.75L72.95 34.9L72.75 34.8" />
<path style="fill:#BA9994;fill-opacity:0.8" d="M73,34.95L73.1 35.05L73.05 35.05L72.55 34.7L72.55 34.65L72.55 34.7L72.25 34.4L72.15 34.3L72.1 34.1L72.05 34.05L72 33.9L71.95 33.7L72.15 34.15L72.45 34.55L72.75 34.8L72.95 34.9L73 34.9L73 34.95L73.3 35.05L73 34.95" />
<path style="fill:#CCDEE8;fill-opacity:0.901961" d="M72.4,34.65L72.5 34.9L72.85 35.25L72.9 35.3L73 35.4L73.3 35.55L73.35 35.55L73.35 35.6L73.4 35.6L73.5 35.6L73.45 35.6L73.15 35.5L73.1 35.5L73 35.5L72.7 35.3L72.65 35.25L72.25 34.95L71.75 34.5L71.5 34L71.8 34.4L71.8 34.45L71.85 34.45L71.9 34.3L72 34.25L72.1 34.35L72.25 34.45L72.4 34.65M71.9,34.55L71.85 34.55L72.1 34.75L72.25 34.9L72.4 35L72.55 35.15L72.4 34.9L72.3 34.7L72.05 34.45L72.05 34.6L71.9 34.55" />
<path style="fill:#582A2C;fill-opacity:0.901961" d="M72.7,35.3L73 35.5L73.1 35.5L73.15 35.5L73.45 35.6L73.5 35.6L73.4 35.6L73.35 35.6L73.35 35.55L73.3 35.55L73 35.4L72.9 35.3L72.85 35.25L73.15 35.4L73.2 35.4L73.8 35.7L73.65 35.65L73.4 35.65L73.1 35.55L73 35.5L72.85 35.4L72.65 35.3L72.7 35.3M74.3,35.7L74.35 35.7L74.3 35.7M73.05,35.35L73 35.35L73 35.3L73 35.35L73.05 35.35" />
<path style="fill:#CCD4D6;fill-opacity:0.8" d="M76.55,35.55L76.75 35.5L76.6 35.55L76.55 35.55M74.3,35.7L74.4 35.7L74.3 35.7" />
<path style="fill:#875558;fill-opacity:0.8" d="M75.25,35.6L74.25 35.55L73.75 35.4L73.35 35.3L73.2 35.2L73.15 35.2L73.15 35.15L73.15 35.2L73.05 35.05L73.1 35.05L73.6 35.3L73.75 35.35L75.5 35.55L75.8 35.5L76.4 35.4L77.05 35.25L77.3 35.2L77.4 35.15L77.9 34.8L77.8 35L77.75 35.05L77.6 35.15L77.1 35.35L76.75 35.45L76.7 35.45L75.25 35.6" />
<path style="fill:#94575C;fill-opacity:0.901961" d="M72.85,35.25L72.5 34.9L72.4 34.65L72.55 34.85L73.05 35.2L73.1 35.25L73.65 35.5L73.7 35.55L73.75 35.55L73.6 35.55L73.45 35.5L73.4 35.45L73.2 35.4L73.15 35.4L72.85 35.25M73,35.35L73 35.3L73 35.35L73.05 35.35L73 35.35" />
<path style="fill:#CCD9E6;fill-opacity:0.8" d="M78.05,34.7L77.9 34.8L77.4 35.15L77.3 35.2L77.25 35.2L77.1 35.2Q77.3 35.1 77.55 34.95L77.8 34.75L77.8 34.8L77.85 34.75L77.95 34.65L78.1 34.5L78.3 34.3L78.35 34.25L78.05 34.7M73.3,35.05L73.8 35.25L75.15 35.45L75.6 35.45L75.65 35.45L75.9 35.45L75.8 35.5L75.5 35.55L73.75 35.35L73.6 35.3L73.1 35.05L73 34.95L73.3 35.05" />
<path style="fill:#95676A;fill-opacity:0.8" d="M73.15,35.2L73.05 35.15L73 35.1L72.7 34.85L72.55 34.7L73.05 35.05L73.15 35.2L73.15 35.15L73.15 35.2L73.2 35.2L73.15 35.2" />
<path style="fill:#7EA09F;fill-opacity:0.901961" d="M72.65,35.3L72.2 34.95L72.25 35.05L72.15 34.95L72.1 34.95L72 34.8L71.75 34.5L72.25 34.95L72.65 35.25L72.7 35.3L72.65 35.3" />
<path style="fill:#D2D4E0;fill-opacity:0.901961" d="M73.8,35.9L73.75 35.9L72.95 35.65L72.15 35.1L72 34.8L72.1 34.95L72.15 34.95L72.25 35.05L73 35.55L73.15 35.65L73.45 35.75L73.8 35.9" />
<path style="fill:#896978;fill-opacity:0.901961" d="M73.45,35.75L74.05 35.9L75.6 36L77.1 35.8L76.95 35.9L75.35 36.1L73.75 35.9L73.8 35.9L73.45 35.75" />
<path style="fill:#FCFEFD;fill-opacity:1" d="M72.05,34.6L72.05 34.45L72.3 34.7L72.4 34.9L72.55 35.15L72.4 35L72.25 34.9L72.1 34.75L71.85 34.55L71.9 34.55L72.05 34.6" />
<path style="fill:#E8E2EC;fill-opacity:0.8" d="M76.55,35.55L76.7 35.45L76.75 35.45L77.1 35.35L77.6 35.15L77.75 35.05L77.8 35L78.15 34.7L78.25 34.6L78.2 34.75L78.1 34.85L77.45 35.25L76.8 35.5L76.75 35.5L76.55 35.55" />
<path style="fill:#733F49;fill-opacity:0.8" d="M73.2,35.4L73.4 35.45L73.45 35.5L73.6 35.55L73.75 35.55L73.7 35.55L73.75 35.55L73.8 35.6L74.05 35.65L74.3 35.7L74.35 35.7L74.3 35.7L74.4 35.7L75.05 35.75L75.95 35.7L76.7 35.6L76.75 35.55Q77.8 35.3 78.25 34.8L78.5 34.65L78.2 35.05L77.8 35.35L77.75 35.35L76.9 35.7L76.8 35.7L75.5 35.85L74 35.75L73.8 35.7L73.2 35.4" />
<path style="fill:#A7A4AD;fill-opacity:0.8" d="M77.55,34.95Q77.3 35.1 77.1 35.2L77.25 35.2L77.3 35.2L77.05 35.25L76.4 35.4L75.8 35.5L75.9 35.45L75.65 35.45L76.3 35.35L77.25 35.1L77.55 34.95" />
<path style="fill:#F0FFFA;fill-opacity:1" d="M77.95,30.1L77.8 30.1L78.45 30L79.55 30.05L80.05 30.15L80.15 30.3L79.55 30.2L78.5 30.1L78.05 30.1L77.95 30.1" />
<path style="fill:#EAEBF2;fill-opacity:1" d="M75.8,30L75.85 30L76.05 30L76.25 30L76.5 30L76.8 29.95L78.2 29.95L78.45 30L77.8 30.1L76.5 30.05L76.45 30.05L76.15 30.05L75.8 30" />
<path style="fill:#4A2124;fill-opacity:0.823529" d="M71.4,32.35L71.3 32.2L71.2 32.05Q71.2 31.95 71.35 31.95L71.6 32L71.65 32L71.7 32.05L71.7 32.2Q71.6 32.05 71.45 32.05L71.4 32.1L71.45 32.3L71.45 32.35L71.4 32.35" />
<linearGradient
id="LinearGradID_9137" gradientUnits="userSpaceOnUse" gradientTransform="matrix(0.00637817, -0.000427246, 0.000106812, 0.00152588, 75.95, 31.25)" spreadMethod ="pad" x1="-819.2" y1="0" x2="819.2" y2="0" >
<stop  offset="0" style="stop-color:#662323;stop-opacity:0.701961" />
<stop  offset="1" style="stop-color:#401D1C;stop-opacity:0.8" />
</linearGradient>
<path style="fill:url(#LinearGradID_9137) " d="M70.45,32.05L70.65 32.05L70.85 32.05L71.05 32.1L71.25 32.25L71.2 32.1L71.1 32L70.8 31.95L70.3 31.95L70.3 31.05L70.45 31.05L70.7 31.05L70.75 31.05L71 31.05L71.45 30.95L72.8 30.55L75.45 30.1L75.85 30.1L76 30.1L76.05 30.1L76.1 30.1L75.95 30.05L76.2 30.1L76.45 30.1L77.6 30.15L78.4 30.15L78.85 30.2L80.15 30.4L80.15 30.5L79.65 30.35L79 30.3L78.75 30.25L76.4 30.2L76 30.2L74.9 30.3L75.65 30.3L77.35 30.4L77.9 30.45L78.15 30.6L78.25 30.7L77.75 30.55L77.45 30.55L77.4 30.55L76.65 30.5L76.25 30.5L76.1 30.5L75.65 30.45L74.7 30.5L73.85 30.55Q72.85 30.75 72.25 31.05L71.85 31.45L71.65 32L71.6 32L71.35 31.95Q71.2 31.95 71.2 32.05L71.3 32.2L71.4 32.35L71.35 32.35L71.1 32.2L70.9 32.1L70.3 32.15L70.3 32.05L70.45 32.05" />
<linearGradient
id="LinearGradID_9138" gradientUnits="userSpaceOnUse" gradientTransform="matrix(-0.00276184, -0.000289917, 0.00050354, -0.00471497, 78.55, 33.4)" spreadMethod ="pad" x1="-819.2" y1="0" x2="819.2" y2="0" >
<stop  offset="0" style="stop-color:#000000;stop-opacity:0.8" />
<stop  offset="1" style="stop-color:#401D1C;stop-opacity:0.8" />
</linearGradient>
<path style="fill:url(#LinearGradID_9138) " d="M80.2,30.75L80.25 31.5L80.25 31.75L80.15 31.85L80.05 31.75L79.85 31.95L79.75 31.7L79.65 31.55L79.35 31.65L79 31.85L79.05 32.25L79 31.9L78.8 31.3L78.4 30.9L78.3 30.8L77.75 30.6L77.6 30.6L77.4 30.55L77.45 30.55L77.75 30.55L78.25 30.7L78.15 30.6L77.9 30.45L77.35 30.4L75.65 30.3L74.9 30.3L76 30.2L76.4 30.2L78.75 30.25L79 30.3L79.65 30.35L80.15 30.5L80.2 30.75M78.35,30.35L78.1 30.35L78.45 30.4L78.65 30.45L78.7 30.6L78.75 30.75L78.75 30.65L78.65 30.35L78.35 30.35M79.45,30.5L79.45 30.45L79.4 30.45L79.35 30.5L79.4 30.55L79.45 30.5M79.25,30.45L79.15 30.55L79.2 30.6L79.25 30.6L79.3 30.5L79.25 30.45M79.3,30.65L79.3 30.6L79.25 30.6L79.2 30.6L79.15 30.65L79.1 30.7L79.15 30.75L79.4 30.7L79.5 30.7L79.5 30.65L79.45 30.6L79.4 30.65L79.35 30.6L79.35 30.65L79.3 30.65M79.4,30.8L79.45 30.85L79.55 30.8L79.5 30.75L79.45 30.75L79.4 30.8M79.2,31.2L79.25 31.25L79.6 31.35L79.65 31.35L79.9 31.35L79.9 31.2L79.9 31.15L79.9 31.1L79.9 31.05L79.9 30.9L79.85 30.85L79.65 30.9L79.2 31.1L79.2 31.15L79.2 31.2M78.6,30.7L78.75 31.05L78.8 31.15L78.85 31.2L78.8 31L78.75 30.85L78.65 30.75L78.6 30.7M77.65,35.6L77.65 35.65L77.1 35.8L75.6 36L74.05 35.9L73.45 35.75L73.15 35.65L73 35.55L72.25 35.05L72.2 34.95L72.65 35.3L72.85 35.4L73 35.5L73.1 35.55L73.4 35.65L73.65 35.65L73.8 35.7L74 35.75L75.5 35.85L76.8 35.7L76.9 35.7L77.75 35.35L77.8 35.35L78.2 35.05L78.5 34.65L78.25 34.8L78.35 34.7Q78.9 34.1 79.05 33L79.05 33.2L79 33.65L79.4 32.85L79.55 32.4L79.55 32.35L79.3 32.9L79.1 33.3L79.1 33.25L79.3 32.65L79.5 32.35L79.75 32.1L79.95 31.95L80 32.1L80 32.15L79.6 32.75L79.6 32.8L78.95 34.25L78.85 34.4L78.6 34.85L77.65 35.6M79.9,32.05L79.75 32.25L79.7 32.4L79.7 32.45L79.95 32.15L79.95 32.1L79.9 32.05" />
<linearGradient
id="LinearGradID_9139" gradientUnits="userSpaceOnUse" gradientTransform="matrix(1.52588e-05, 0.000762939, -0.001297, 3.05176e-05, 78.55, 31.75)" spreadMethod ="pad" x1="-819.2" y1="0" x2="819.2" y2="0" >
<stop  offset="0" style="stop-color:#2F0D0B;stop-opacity:0.8" />
<stop  offset="1" style="stop-color:#5A1A1A;stop-opacity:0.8" />
</linearGradient>
<path style="fill:url(#LinearGradID_9139) " d="M78.2,30.85L78.65 31.3L78.65 31.25L78.8 31.65L78.85 31.9L78.8 32.35L78.75 32.55L78.65 32.95L78.7 32.65L78.7 32.15L78.65 31.45L78.4 31.1L78.2 30.9L77.75 30.7L78.2 30.85" />
<linearGradient
id="LinearGradID_9140" gradientUnits="userSpaceOnUse" gradientTransform="matrix(0.000793457, 0.00012207, -0.000167847, 0.00109863, 79.8, 32.45)" spreadMethod ="pad" x1="-819.2" y1="0" x2="819.2" y2="0" >
<stop  offset="0" style="stop-color:#2F0D0B;stop-opacity:0.8" />
<stop  offset="1" style="stop-color:#5A1A1A;stop-opacity:0.8" />
</linearGradient>
<path style="fill:url(#LinearGradID_9140) " d="M80,32.1L79.95 31.95L79.75 32.1L79.5 32.35L79.3 32.65L79.1 33.25L79.1 33.3L79.3 32.9L79.55 32.35L79.55 32.4L79.4 32.85L79 33.65L79.05 33.2L79.05 33L79.05 32.9L79.05 32.65L79.05 32.5L79.05 32.25L79 31.85L79.35 31.65L79.65 31.55L79.75 31.7L79.85 31.95L80.05 31.75L80.15 31.85L80 32.1" />
<linearGradient
id="LinearGradID_9141" gradientUnits="userSpaceOnUse" gradientTransform="matrix(0.00111389, 0, 0, 0.000717163, 77.85, 35.3)" spreadMethod ="pad" x1="-819.2" y1="0" x2="819.2" y2="0" >
<stop  offset="0" style="stop-color:#000000;stop-opacity:0.8" />
<stop  offset="1" style="stop-color:#401D1C;stop-opacity:0.8" />
</linearGradient>
<path style="fill:url(#LinearGradID_9141) " d="M77.1,35.8L77.65 35.65L77.65 35.6L78.6 34.85L78.75 34.75Q78.2 35.6 76.95 35.9L77.1 35.8" />
<linearGradient
id="LinearGradID_9142" gradientUnits="userSpaceOnUse" gradientTransform="matrix(-0.000869751, 9.15527e-05, -4.57764e-05, -0.000411987, 71.1, 32.45)" spreadMethod ="pad" x1="-819.2" y1="0" x2="819.2" y2="0" >
<stop  offset="0" style="stop-color:#000000;stop-opacity:0.8" />
<stop  offset="1" style="stop-color:#401D1C;stop-opacity:0.8" />
</linearGradient>
<path style="fill:url(#LinearGradID_9142) " d="M70.9,32.6L70.9 32.55L70.85 32.5L70.3 32.3L70.3 32.2L70.3 32.15L70.9 32.1L71.1 32.2L71.35 32.35L71.4 32.35L71.45 32.35L71.45 32.3L71.4 32.1L71.45 32.05Q71.6 32.05 71.7 32.2L71.7 32.3L71.6 32.45L71.5 32.65L71.25 32.5L71.1 32.4L71.1 32.5L71.05 32.6L70.9 32.6M71,32.35L70.95 32.4L70.95 32.5L71.05 32.4L71.05 32.35L71 32.35M70.45,32.25L70.5 32.25L70.6 32.3L70.65 32.25L70.75 32.2L70.7 32.15L70.6 32.15L70.5 32.15L70.4 32.15L70.35 32.2L70.3 32.2L70.4 32.25L70.45 32.25" />
<path style="fill:#D5C8D2;fill-opacity:0.901961" d="M64.35,30.5L63.95 30.5L63.2 30.55L63.05 30.6L62.9 30.6L62.35 30.8L62.2 30.9L61.95 31.3L62.4 30.85L62.85 30.7L64.75 30.55L64.8 30.55L65.3 30.55L64.8 30.5L64.35 30.5" />
<path style="fill:#363438;fill-opacity:0.901961" d="M61.95,30.35L61.9 30.65L61.9 30.75L61.95 30.6L62 30.45L62.15 30.4L62.5 30.35L62.3 30.35L61.95 30.35" />
<path style="fill:#4A3538;fill-opacity:0.901961" d="M61.95,30.75L61.9 30.85L61.85 31L61.8 31.2L61.85 31.15L61.9 31.05L62.05 30.7L61.95 30.75" />
<path style="fill:#79867F;fill-opacity:0.901961" d="M62.55,30.1L62.1 30.1L61.1 30.2L60.5 30.3L60.45 30.4L61.8 30.2L62.2 30.15L62.55 30.1" />
<path style="fill:#6F6F6F;fill-opacity:1" d="M61.45,30.55L61.4 30.55L61.35 30.5L61.4 30.5L61.45 30.55M61.5,30.55L61.4 30.45L61.35 30.45L61.35 30.5L61.4 30.6L61.5 30.55" />
<path style="fill:#3D3938;fill-opacity:1" d="M61.2,30.5L61.25 30.45L61.3 30.5L61.2 30.45L61.15 30.45L61.15 30.5L61.2 30.55L61.25 30.55L61.2 30.5" />
<path style="fill:#817F80;fill-opacity:1" d="M61.3,30.5L61.25 30.45L61.2 30.5L61.25 30.55L61.3 30.5" />
<path style="fill:#A7A5A8;fill-opacity:1" d="M61.4,30.5L61.35 30.5L61.4 30.55L61.45 30.55L61.4 30.5" />
<path style="fill:#303539;fill-opacity:1" d="M61.35,30.65L61.35 30.6L61.4 30.6L61.4 30.65L61.45 30.7L61.5 30.7L61.4 30.7L61.25 30.7L61.25 30.65L61.3 30.65L61.35 30.65M61.3,30.6L61.25 30.65L61.2 30.6L61.1 30.65L61.15 30.7L61.15 30.65L61.2 30.65L61.2 30.7L61.15 30.7L61.25 30.7L61.45 30.75L61.55 30.7L61.45 30.65L61.4 30.6L61.35 30.6L61.3 30.65L61.3 30.6" />
<path style="fill:#4F575A;fill-opacity:1" d="M61.3,30.65L61.25 30.65L61.25 30.7L61.4 30.7L61.5 30.7L61.45 30.7L61.4 30.65L61.4 30.6L61.35 30.6L61.35 30.65L61.3 30.65" />
<path style="fill:#3B4346;fill-opacity:1" d="M61.15,30.7L61.2 30.7L61.2 30.65L61.15 30.65L61.15 30.7" />
<path style="fill:#595357;fill-opacity:1" d="M61.2,30.75L61.1 30.75L61.1 30.8L61.15 30.85L61.2 30.85L61.25 30.8L61.2 30.75" />
<path style="fill:#E1E9EC;fill-opacity:1" d="M61.4,31.15L61.45 31.15L61.45 31.1L61.4 31.1L60.95 30.9L60.8 30.85L60.75 30.9L60.7 31.05L61.4 31.15M61.35,31.15L61.05 31.1L60.95 31.05L60.8 31.05L60.8 30.9L60.95 30.95L61 30.95L61.4 31.1L61.35 31.15" />
<path style="fill:#F9FFFF;fill-opacity:1" d="M61.4,31.1L61 30.95L60.95 30.95L60.8 30.9L60.8 31.05L60.95 31.05L61.05 31.1L61.35 31.15L61.4 31.1M60.95,30.95L61.05 31L60.95 31L60.85 30.95L60.95 30.95" />
<path style="fill:#BAB7B2;fill-opacity:0.901961" d="M64.5,30.05L64.15 30.05L64.1 30.05L62.8 30.1L62.65 30.1L62.55 30.1L62.2 30.15L63 30.15L64.15 30.1L64.45 30.1L64.65 30.05L65 30L64.95 30L64.85 30L64.5 30.05" />
<path style="fill:#9D7F81;fill-opacity:0.901961" d="M65.1,30L65.45 30.05L65.5 30.1L66.05 30.15L65.1 30" />
<path style="fill:#B29494;fill-opacity:0.8" d="M61.75,32.55L61.75 32.5L61.75 31.9L61.8 31.65L62 31.25L61.95 31.3L62.2 30.9L61.8 31.3L61.65 31.9L61.6 32.25L61.55 32.5L61.55 32.65L61.75 32.7L61.8 32.85L61.75 32.55M67,30.75L67.95 30.95L67.4 30.75L67.25 30.7L67.1 30.7L66.65 30.65L66.15 30.55L65.85 30.55L65.1 30.5L64.55 30.5L64.35 30.5L64.8 30.5L65.3 30.55L66.6 30.7L67 30.75" />
<path style="fill:#7A3142;fill-opacity:0.8" d="M65.1,30.5L65.85 30.55L66.15 30.55L66.65 30.65L67.1 30.7L67.25 30.7L67.4 30.75L67.95 30.95L68.35 31.15L68.55 31.3L68.75 31.55L68.85 31.75L68.9 32.05L69 32L68.75 31.45L68.35 31.05Q67.8 30.75 66.8 30.55L66.75 30.55L65.95 30.5L64.95 30.45L64.55 30.5L65.1 30.5" />
<path style="fill:#C78469;fill-opacity:1" d="M60.85,31.2L61.15 31.2L60.7 31.15L60.7 31.2L60.85 31.2" />
<path style="fill:#AE5C46;fill-opacity:1" d="M60.95,31.25L61.35 31.25L61.4 31.2L60.95 31.15L60.7 31.1L60.7 31.15L61.15 31.2L60.85 31.2L60.7 31.2L60.95 31.25" />
<path style="fill:#311009;fill-opacity:1" d="M60.95,31.15L61.4 31.2L61.4 31.15L60.7 31.05L60.7 31.1L60.95 31.15" />
<path style="fill:#D6DFDC;fill-opacity:1" d="M60.85,30.95L60.95 31L61.05 31L60.95 30.95L60.85 30.95" />
<path style="fill:#91452E;fill-opacity:1" d="M60.7,31.2L60.75 31.35L60.95 31.35L61 31.35L61.35 31.25L60.95 31.25L60.7 31.2M60.95,31.3L61.05 31.3L60.8 31.3L60.75 31.3L60.75 31.25L60.95 31.3" />
<path style="fill:#D29173;fill-opacity:1" d="M60.85,31.3L60.75 31.25L60.75 31.3L60.8 31.3L60.85 31.3" />
<path style="fill:#C6805C;fill-opacity:1" d="M60.75,31.25L60.85 31.3L60.8 31.3L61.05 31.3L60.95 31.3L60.75 31.25" />
<path style="fill:#905D66;fill-opacity:0.901961" d="M60.45,31.85L60.4 31.75L60.4 31.8L61.6 34.15L61.7 34.4L61.85 34.75L62 34.85L61.75 34.4L61.7 34.25L61.05 32.8L61 32.75L60.65 32.15L60.65 32.1L60.45 31.85" />
<path style="fill:#E3F2ED;fill-opacity:1" d="M60.7,32.15L60.95 32.45L60.95 32.4L60.9 32.25L60.7 32.05L60.7 32.1L60.7 32.15" />
<path style="fill:#6B2C27;fill-opacity:0.8" d="M62.05,33.2L61.95 32.3L62.05 31.5L62.25 31.1L62 31.45L61.9 32.15L61.95 32.65L62 32.95L62 33L62.05 33.2" />
<path style="fill:#6B3437;fill-opacity:0.8" d="M61.8,32.35L61.85 32.65L61.85 32.75L61.85 32.55L61.85 32.35L61.75 31.9L61.75 32.5L61.75 32.55L61.8 32.85L61.85 33.15L61.85 32.95L61.85 32.85L61.8 32.35" />
<path style="fill:#B1605F;fill-opacity:0.8" d="M61.85,32.85L61.9 33.15L62 33.6L62 33.65L62.25 34.1L62.35 34.25L62.05 33.55L61.95 33.1L61.9 32.85L61.85 32.75L61.85 32.65L61.8 32.35L61.85 32.85" />
<path style="fill:#BBA6AF;fill-opacity:0.8" d="M62.3,34.45L62.2 34.3L62.05 34L61.9 33.45L61.85 33.15L61.8 32.85L61.75 32.7L61.55 32.65L61.8 33.45L62 34.1L62.1 34.25L62.1 34.3L62.45 34.75L62.35 34.6L62.45 34.7L62.3 34.45" />
<path style="fill:#EBEBEB;fill-opacity:0.901961" d="M66.35,35.7L66.25 35.7L66.35 35.7L66.6 35.65L66.85 35.6L66.85 35.55L66.95 35.55L67 35.5L67.55 35.25L67.6 35.2L68.05 34.85L68.1 34.85L68.25 34.65L68.4 34.45L68.45 34.35L68.4 34.4L68.1 34.7L67.9 34.85L67.65 35.1L67.6 35.15L67.5 35.2L67.45 35.2L67.4 35.2L67.25 35.3L66.9 35.4L66.4 35.55L65.35 35.6L63.9 35.45L64.05 35.55L63.9 35.5L63.85 35.5L63.2 35.25L62.5 34.85L62.45 34.75L62.1 34.3L62.1 34.25L62 34.1L61.8 33.45L61.55 32.65L61.55 32.9L61.6 33Q61.75 34.1 62.25 34.7L62.35 34.8Q62.8 35.3 63.85 35.55L63.9 35.6L64.65 35.7L65.6 35.75L66.2 35.7L66.3 35.7L66.35 35.7" />
<path style="fill:#883831;fill-opacity:0.8" d="M62,33L62 32.95L61.85 32.55L61.85 32.75L61.9 32.85L61.95 33.1L62.05 33.55L62.35 34.25L62.5 34.45L62.5 34.4L62.4 34.25L62.35 34.05L62.15 33.65L62.05 33.1L62.05 33.2L62 33" />
<path style="fill:#8A3F46;fill-opacity:0.8" d="M62.25,34.1L62 33.65L62 33.6L61.9 33.15L61.85 32.85L61.85 32.95L61.85 33.15L61.9 33.45L62.05 33.85L62.2 34.1L62.3 34.25L62.35 34.3L62.55 34.5L62.65 34.65L62.5 34.45L62.35 34.25L62.25 34.1" />
<path style="fill:#4F2429;fill-opacity:0.8" d="M67.75,34.75L67.05 35.15L65.7 35.4L64.45 35.35L63.5 35.1Q62.55 34.65 62.15 33.65L62.35 34.05L62.4 34.25L62.5 34.4L62.5 34.45L62.65 34.65L62.7 34.65L62.8 34.75L62.85 34.75L63.05 34.95L63.35 35.1L64.3 35.35L65 35.45L65.45 35.45L66.8 35.25L67.35 35.05L67.6 34.95L67.65 34.9L67.7 34.9L67.85 34.7L67.75 34.75" />
<path style="fill:#9A6A76;fill-opacity:0.8" d="M62.45,34.7L62.8 35L62.7 34.8L62.6 34.7L62.3 34.25L62.2 34.1L62.05 33.85L61.9 33.45L62.05 34L62.2 34.3L62.3 34.45L62.45 34.7" />
<path style="fill:#C1C4CD;fill-opacity:0.8" d="M62.8,34.75L62.7 34.65L62.65 34.65L62.8 34.75L62.8 34.8L62.85 34.75L62.8 34.75" />
<path style="fill:#E2DCE6;fill-opacity:0.901961" d="M69.9,31L70.25 30.95L69.4 30.8L69.3 30.8L68.45 30.55L67.3 30.25L66.95 30.2L66.9 30.2Q67.15 30.3 67.25 30.35L67.6 30.45L68 30.6L68.95 30.8L69.75 30.95L69.9 31" />
<path style="fill:#5E171B;fill-opacity:0.901961" d="M64.8,30.1L65.2 30.1L67.85 30.55L69.2 30.95L69.6 31.05L69.9 31.05L69.95 31.05L70.15 31.05L69.9 31L69.75 30.95L68.95 30.8L68 30.6L67.6 30.45L67.25 30.35L66.9 30.3L66.05 30.15L65.5 30.1L65.45 30.05L64.95 30.05L64.85 30.05L64.8 30.05L64.75 30.05L64.65 30.1L64.8 30.1" />
<path style="fill:#8B6067;fill-opacity:0.901961" d="M66.85,30.15L65.1 30L65 30L64.65 30.05L64.55 30.1L64.6 30.1L64.65 30.1L64.75 30.05L64.8 30.05L64.85 30.05L64.95 30.05L65.45 30.05L65.1 30L66.05 30.15L66.9 30.3L66.6 30.15L66.7 30.15L66.85 30.15" />
<path style="fill:#9F7581;fill-opacity:0.901961" d="M66.7,30.15L66.6 30.15L66.9 30.3L67.25 30.35Q67.15 30.3 66.9 30.2L66.95 30.2L67.3 30.25L67.1 30.2L66.95 30.15L66.85 30.15L66.7 30.15" />
<path style="fill:#1B151F;fill-opacity:1" d="M70.3,30.95L70.3 30.9L69.1 30.65L67.35 30.2L67.1 30.2L67.3 30.25L68.45 30.55L69.3 30.8L69.4 30.8L70.25 30.95L70.3 30.95" />
<path style="fill:#F0FFFF;fill-opacity:1" d="M68.8,31.8L68.75 31.55L68.55 31.3L68.35 31.15L67.95 30.95L67 30.75L66.6 30.7L67.15 30.85L67.95 31.05L68.25 31.2L68.45 31.4L68.75 31.8L68.8 31.8" />
<path style="fill:#A06265;fill-opacity:0.8" d="M68.9,32.2L68.9 32.05L68.85 31.75L68.75 31.55L68.8 31.8L68.75 31.8L68.8 31.85L68.85 32.25L68.85 32.35L68.9 32.35Q68.8 33.35 68.4 34L68.1 34.4L67.95 34.6L67.85 34.7L67.7 34.9L67.85 34.75L68 34.6L68.35 34.2L68.8 33.4L68.9 32.6L68.95 32.35L68.95 32.3L68.9 32.2" />
<path style="fill:#7D3737;fill-opacity:0.8" d="M70.3,32.05L70.3 31.95L69.8 31.95L69.55 32L69.45 32.1L69.35 32.25L69.55 32.1L69.8 32.05L70 32.05L70.15 32.05L70.3 32.05" />
<path style="fill:#6B3030;fill-opacity:0.0431373" d="M67.85,34.7L67.95 34.6L68.1 34.25L68.45 33.35L68.85 32.35L68.55 32.95L68.25 33.8L68 34.4L67.75 34.75L67.85 34.7" />
<path style="fill:#4A2125;fill-opacity:0.901961" d="M68.55,34.05L68.7 33.9L68.8 33.75L68.9 33.4L69 33.05L69.05 33.2L69.05 33.25L69.05 33.6L69.05 33.65L69.2 33.2L69.4 32.6L69.4 32.7L69.25 33.45L69.6 32.6L69.55 32.5L69.5 32.4L69.35 32.5L69.1 32.65L69 32.45L68.95 32.3L68.95 32.35L69 32.6L69.1 32.65L69.35 32.6L69.45 32.5L69.35 32.65L69.3 32.7L69.25 32.85L69.2 33.15L69.15 33.35L69.1 33.1L69 32.9L68.9 33.2L68.8 33.55L68.65 33.9L68.55 34.05" />
<path style="fill:#6C3133;fill-opacity:0.901961" d="M68.75,33.55L68.7 33.65L68.7 33.7L68.65 33.9L68.8 33.55L68.9 33.2L69 32.9L69.1 33.1L69.15 33.35L69.2 33.15L69.25 32.85L69.3 32.7L69.35 32.65L69.45 32.5L69.35 32.6L69.1 32.65L69 32.6L68.95 32.35L68.9 32.6L68.8 33.4L68.75 33.55M69,32.7L69.25 32.7L69.15 33L69.05 32.85L69 32.7" />
<path style="fill:#973834;fill-opacity:0.901961" d="M70.2,31.05L70.3 31.05L70.3 30.95L70.25 30.95L69.9 31L69.75 30.95L69.9 31L70.15 31.05L70.2 31.05" />
<path style="fill:#727A87;fill-opacity:1" d="M70.3,32.2L70.2 32.15L70.1 32.15L70.05 32.15L69.95 32.15L69.9 32.2L69.95 32.25L69.95 32.2L70.05 32.2L70.2 32.2L70.25 32.2L70.2 32.25L70.3 32.2" />
<path style="fill:#BBCACF;fill-opacity:1" d="M70,32.2L70.2 32.2L70.15 32.25L70.2 32.25L70.25 32.2L70.2 32.2L70.05 32.2L69.95 32.2L69.95 32.25L70 32.25L70 32.2" />
<path style="fill:#734246;fill-opacity:0.8" d="M69.3,33.7L69.45 33.3L69.65 32.8L69.8 32.5L70.05 32.4L70.3 32.35L70.3 32.3L69.75 32.5L69.7 32.55L69.7 32.6L69.55 32.95L69.3 33.55L69.3 33.7" />
<path style="fill:#F3FEFF;fill-opacity:1" d="M70.15,32.25L70.2 32.2L70 32.2L70 32.25L70.05 32.3L70.15 32.25" />
<path style="fill:#C5C3B6;fill-opacity:1" d="M69.6,32.35L69.55 32.4L69.65 32.5L69.7 32.5L69.7 32.4L69.65 32.35L69.6 32.35M69.6,32.4L69.65 32.4L69.65 32.45L69.6 32.4" />
<path style="fill:#ECEFE6;fill-opacity:1" d="M69.65,32.45L69.65 32.4L69.6 32.4L69.65 32.45" />
<path style="fill:#261E29;fill-opacity:0.901961" d="M69.1,34L69.2 33.8L69.3 33.55L69.55 32.95L69.7 32.6L69.6 32.6L69.25 33.45L69.4 32.7L69.4 32.6L69.2 33.2L69.05 33.65L69.05 33.6L69.05 33.25L69 33.2L69 33.3L68.95 33.6L68.9 34.05L68.9 34.1L69.15 33.75L69.05 34L68.95 34.15L68.85 34.4L69.1 34" />
<path style="fill:#BA9994;fill-opacity:0.4" d="M68.9,32.35L68.85 32.35L68.45 33.35L68.1 34.25L67.95 34.6L68.1 34.4L68.4 33.8L68.7 32.95L68.6 33.45L68.4 34Q68.8 33.35 68.9 32.35" />
<path style="fill:#F0FFFF;fill-opacity:0.4" d="M68.4,34L68.6 33.45L68.7 32.95L68.4 33.8L68.1 34.4L68.4 34" />
<path style="fill:#723F3C;fill-opacity:0.901961" d="M69.05,32.85L69.15 33L69.25 32.7L69 32.7L69.05 32.85" />
<path style="fill:#3E2633;fill-opacity:0.901961" d="M68.9,33.65L68.9 33.7L68.85 33.95L68.75 34.15L68.8 34.25L68.8 34.3L68.8 34.4L68.8 34.45L68.85 34.4L68.95 34.15L69.05 34L69.15 33.75L68.9 34.1L68.9 34.05L68.95 33.6L69 33.3L69 33.2L69.05 33.25L69.05 33.2L69 33.05L68.9 33.4L68.8 33.75L68.9 33.65" />
<path style="fill:#42404E;fill-opacity:0.901961" d="M68.45,34.35L68.55 34.2L68.65 34.05L68.7 34.1L68.8 34.25L68.75 34.15L68.85 33.95L68.9 33.7L68.9 33.65L68.8 33.75L68.7 33.9L68.55 34.05L68.55 34.1L68.45 34.3L68.45 34.35" />
<path style="fill:#796872;fill-opacity:0.8" d="M68.45,35.1L68.6 34.9L69.15 34.05L69.3 33.7L69.3 33.55L69.2 33.8L69.1 34L68.85 34.5L68.6 34.8L68.45 35.1" />
<path style="fill:#4C647C;fill-opacity:0.901961" d="M68.7,34.1L68.65 34.05L68.55 34.2L68.45 34.35L68.4 34.45L68.5 34.35L68.65 34.25L68.75 34.3L68.8 34.45L68.8 34.4L68.8 34.3L68.8 34.25L68.7 34.1" />
<path style="fill:#D1D6D2;fill-opacity:0.8" d="M67.85,34.8L68.2 34.55L68.5 34.15L68.7 33.7L68.7 33.65L68.75 33.55L68.8 33.4L68.35 34.2L68 34.6L67.85 34.75L67.7 34.9L67.85 34.8" />
<path style="fill:#BA9994;fill-opacity:0.8" d="M67.6,34.95L67.55 35.05L67.6 35.05L68.05 34.7L68.1 34.65L68.1 34.7L68.4 34.4L68.45 34.3L68.55 34.1L68.55 34.05L68.65 33.9L68.7 33.7L68.5 34.15L68.2 34.55L67.85 34.8L67.7 34.9L67.65 34.9L67.6 34.95L67.35 35.05L67.6 34.95" />
<path style="fill:#CCDEE8;fill-opacity:0.901961" d="M68.25,34.65L68.1 34.9L67.8 35.25L67.75 35.3L67.7 35.3L67.75 35.3L67.6 35.4L67.3 35.55L67.25 35.55L67.25 35.6L67.2 35.6L67.1 35.6L67.2 35.6L67.5 35.5L67.55 35.5L67.65 35.5L67.95 35.3L68 35.25L68.35 34.95L68.85 34.5L69.1 34L68.85 34.4L68.8 34.45L68.75 34.3L68.65 34.25L68.5 34.35L68.4 34.45L68.25 34.65M68.7,34.55L68.75 34.55L68.55 34.75L68.35 34.9L68.25 35L68.1 35.15L68.2 34.9L68.3 34.7L68.6 34.45L68.55 34.6L68.6 34.6L68.7 34.55" />
<path style="fill:#582A2C;fill-opacity:0.901961" d="M67.95,35.3L67.65 35.5L67.55 35.5L67.5 35.5L67.2 35.6L67.1 35.6L67.2 35.6L67.25 35.6L67.25 35.55L67.3 35.55L67.6 35.4L67.75 35.3L67.7 35.3L67.75 35.3L67.8 35.25L67.45 35.4L66.85 35.7L67 35.65L67.2 35.65L67.55 35.55L67.65 35.5L67.8 35.4L68 35.3L67.95 35.3M66.3,35.7L66.25 35.7L66.35 35.7L66.3 35.7M67.6,35.35L67.65 35.3L67.6 35.35" />
<path style="fill:#CCD4D6;fill-opacity:0.8" d="M64.05,35.55L63.9 35.5L64.05 35.55M66.3,35.7L66.2 35.7L66.3 35.7" />
<path style="fill:#875558;fill-opacity:0.8" d="M65.35,35.6L66.4 35.55L66.9 35.4L67.25 35.3L67.4 35.2L67.45 35.2L67.5 35.15L67.45 35.2L67.6 35.05L67.55 35.05L67 35.3L66.9 35.35L65.15 35.55L64.8 35.5L64.25 35.4L63.6 35.25L63.35 35.2L63.2 35.15L62.7 34.8L62.8 35L62.9 35.05L63 35.15L63.5 35.35L63.85 35.45L63.9 35.45L65.35 35.6M67.4,35.2L67.45 35.2L67.4 35.2" />
<path style="fill:#94575C;fill-opacity:0.901961" d="M67.8,35.25L68.1 34.9L68.25 34.65L68.1 34.85L68.05 34.85L67.6 35.2L67.55 35.25L67 35.5L66.95 35.55L66.9 35.55L67.05 35.55L67.15 35.5L67.25 35.45L67.2 35.45L67.45 35.4L67.8 35.25M67.65,35.3L67.6 35.35L67.65 35.3" />
<path style="fill:#CCD9E6;fill-opacity:0.8" d="M62.6,34.7L62.7 34.8L63.2 35.15L63.35 35.2L63.5 35.2L63.05 34.95L62.85 34.75L62.8 34.8L62.8 34.75L62.65 34.65L62.55 34.5L62.35 34.3L62.3 34.25L62.6 34.7M62.65,34.65L62.7 34.65L62.65 34.65M67.35,35.05L66.8 35.25L65.45 35.45L65 35.45L64.7 35.45L64.8 35.5L65.15 35.55L66.9 35.35L67 35.3L67.55 35.05L67.6 34.95L67.35 35.05" />
<path style="fill:#95676A;fill-opacity:0.8" d="M67.5,35.2L67.6 35.15L67.65 35.1L67.9 34.85L68.1 34.7L68.05 34.7L67.6 35.05L67.45 35.2L67.5 35.15L67.45 35.2L67.5 35.2M67.45,35.2L67.4 35.2L67.45 35.2" />
<path style="fill:#7EA09F;fill-opacity:0.901961" d="M68,35.3L68.4 34.95L68.4 35.05L68.5 34.95L68.6 34.8L68.85 34.5L68.35 34.95L68 35.25L67.95 35.3L68 35.3" />
<path style="fill:#D2D4E0;fill-opacity:0.901961" d="M66.8,35.9L66.9 35.9L67.65 35.65L68.45 35.1L68.6 34.8L68.5 34.95L68.4 35.05L67.65 35.55L67.45 35.65L67.2 35.75L66.8 35.9" />
<path style="fill:#896978;fill-opacity:0.901961" d="M67.2,35.75L66.6 35.9L65.05 36L65 36L63.5 35.8L63.7 35.9L65.3 36.1L66.9 35.9L66.8 35.9L67.2 35.75" />
<path style="fill:#FCFEFD;fill-opacity:1" d="M68.6,34.6L68.55 34.6L68.6 34.45L68.3 34.7L68.2 34.9L68.1 35.15L68.25 35L68.35 34.9L68.55 34.75L68.75 34.55L68.7 34.55L68.6 34.6" />
<path style="fill:#E8E2EC;fill-opacity:0.8" d="M64.05,35.55L63.9 35.45L63.85 35.45L63.5 35.35L63 35.15L62.9 35.05L62.8 35L62.45 34.7L62.35 34.6L62.45 34.75L62.5 34.85L63.2 35.25L63.85 35.5L63.9 35.5L64.05 35.55" />
<path style="fill:#733F49;fill-opacity:0.8" d="M67.45,35.4L67.2 35.45L67.25 35.45L67.15 35.5L67.05 35.55L66.9 35.55L66.95 35.55L66.85 35.55L66.85 35.6L66.6 35.65L66.35 35.7L66.25 35.7L66.3 35.7L66.2 35.7L65.6 35.75L64.65 35.7L63.9 35.6L63.85 35.55Q62.8 35.3 62.35 34.8L62.15 34.65L62.45 35.05L62.85 35.35L62.9 35.35L63.7 35.7L63.8 35.7L63.85 35.7L65.15 35.85L66.65 35.75L66.85 35.7L67.45 35.4" />
<path style="fill:#A7A4AD;fill-opacity:0.8" d="M63.05,34.95L63.5 35.2L63.35 35.2L63.6 35.25L64.25 35.4L64.8 35.5L64.7 35.45L65 35.45L64.3 35.35L63.35 35.1L63.05 34.95" />
<path style="fill:#F0FFFA;fill-opacity:1" d="M61.1,30.2L62.1 30.1L62.55 30.1L62.65 30.1L62.8 30.1L62.15 30L61.05 30.05L60.55 30.15L60.5 30.3L61.1 30.2" />
<path style="fill:#EAEBF2;fill-opacity:1" d="M64.85,30L64.8 30L64.55 30L64.4 30L64.15 30L63.8 29.95L62.45 29.95L62.15 30L62.8 30.1L64.1 30.05L64.15 30.05L64.5 30.05L64.85 30" />
<path style="fill:#4A2124;fill-opacity:0.823529" d="M69.25,32.35L69.35 32.2L69.4 32.05Q69.4 31.95 69.25 31.95L69.05 32L69 32L68.9 32.05L68.9 32.2Q69 32.05 69.15 32.05L69.25 32.1L69.15 32.3L69.2 32.35L69.25 32.35" />
<linearGradient
id="LinearGradID_9143" gradientUnits="userSpaceOnUse" gradientTransform="matrix(-0.00637817, -0.000427246, -0.000106812, 0.00152588, 64.7, 31.25)" spreadMethod ="pad" x1="-819.2" y1="0" x2="819.2" y2="0" >
<stop  offset="0" style="stop-color:#662323;stop-opacity:0.701961" />
<stop  offset="1" style="stop-color:#401D1C;stop-opacity:0.8" />
</linearGradient>
<path style="fill:url(#LinearGradID_9143) " d="M70.15,31.05L69.95 31.05L69.9 31.05L69.6 31.05L69.2 30.95L67.85 30.55L65.2 30.1L64.8 30.1L64.65 30.1L64.6 30.1L64.55 30.1L64.65 30.05L64.45 30.1L64.15 30.1L63 30.15L62.2 30.15L61.8 30.2L60.45 30.4L60.45 30.5L61 30.35L61.65 30.3L61.9 30.25L64.25 30.2L64.6 30.2L64.65 30.2L65.7 30.3L65 30.3L63.3 30.4L62.75 30.45L62.45 30.6L62.35 30.7L62.9 30.55L63.15 30.55L63.2 30.55L63.95 30.5L64.35 30.5L64.55 30.5L64.95 30.45L65.95 30.5L66.75 30.55L66.8 30.55Q67.8 30.75 68.35 31.05L68.75 31.45L69 32L69.05 32L69.25 31.95Q69.4 31.95 69.4 32.05L69.35 32.2L69.25 32.35L69.5 32.2L69.75 32.1L70.3 32.15L70.3 32.05L70.15 32.05L70 32.05L69.8 32.05L69.55 32.1L69.35 32.25L69.45 32.1L69.55 32L69.8 31.95L70.3 31.95L70.3 31.05L70.2 31.05L70.15 31.05" />
<linearGradient
id="LinearGradID_9144" gradientUnits="userSpaceOnUse" gradientTransform="matrix(0.00276184, -0.000289917, -0.00050354, -0.00471497, 62.1, 33.4)" spreadMethod ="pad" x1="-819.2" y1="0" x2="819.2" y2="0" >
<stop  offset="0" style="stop-color:#000000;stop-opacity:0.8" />
<stop  offset="1" style="stop-color:#401D1C;stop-opacity:0.8" />
</linearGradient>
<path style="fill:url(#LinearGradID_9144) " d="M60.45,31.85Q60.55 31.75 60.6 31.75L60.8 31.95L60.9 31.7L60.95 31.55L61.25 31.65L61.6 31.85L61.6 32.25L61.65 31.9L61.8 31.3L62.2 30.9L62.35 30.8L62.9 30.6L63.05 30.6L63.2 30.55L63.15 30.55L62.9 30.55L62.35 30.7L62.45 30.6L62.75 30.45L63.3 30.4L65 30.3L65.7 30.3L64.65 30.2L64.6 30.2L64.25 30.2L61.9 30.25L61.65 30.3L61 30.35L60.45 30.5L60.4 30.75L60.35 31.5L60.4 31.75L60.45 31.85M62.3,30.35L62.5 30.35L62.15 30.4L62 30.45L61.95 30.6L61.9 30.75L61.9 30.65L61.95 30.35L62.3 30.35M61.25,30.55L61.2 30.55L61.15 30.5L61.15 30.45L61.2 30.45L61.3 30.5L61.25 30.55M61.3,30.65L61.35 30.6L61.4 30.6L61.45 30.65L61.55 30.7L61.45 30.75L61.25 30.7L61.15 30.7L61.1 30.65L61.2 30.6L61.25 30.65L61.3 30.6L61.3 30.65M61.4,30.6L61.35 30.5L61.35 30.45L61.4 30.45L61.5 30.55L61.4 30.6M61.25,30.8L61.2 30.85L61.15 30.85L61.1 30.8L61.1 30.75L61.2 30.75L61.25 30.8M61.4,31.2L61.35 31.25L61 31.35L60.95 31.35L60.75 31.35L60.7 31.2L60.7 31.15L60.7 31.1L60.7 31.05L60.75 30.9L60.8 30.85L60.95 30.9L61.4 31.1L61.45 31.1L61.45 31.15L61.4 31.15L61.4 31.2M62.05,30.7L61.9 31.05L61.85 31.15L61.8 31.2L61.85 31L61.9 30.85L61.95 30.75L62.05 30.7M62.95,35.6L63 35.65L63.5 35.8L65 36L65.05 36L66.6 35.9L67.2 35.75L67.45 35.65L67.65 35.55L68.4 35.05L68.4 34.95L68 35.3L67.8 35.4L67.65 35.5L67.55 35.55L67.2 35.65L67 35.65L66.85 35.7L66.65 35.75L65.15 35.85L63.85 35.7L63.8 35.7L63.7 35.7L62.9 35.35L62.85 35.35L62.45 35.05L62.15 34.65L62.35 34.8L62.25 34.7Q61.75 34.1 61.6 33L61.6 33.2L61.6 33.65L61.25 32.85L61.05 32.4L61.05 32.35L61.35 32.9L61.55 33.3L61.55 33.25L61.3 32.65L61.15 32.35L60.9 32.1L60.65 31.95L60.65 32.1L60.65 32.15L61 32.75L61.05 32.8L61.7 34.25L61.75 34.4L62 34.85L62.95 35.6M60.7,32.1L60.7 32.05L60.9 32.25L60.95 32.4L60.95 32.45L60.7 32.15L60.7 32.1" />
<linearGradient
id="LinearGradID_9145" gradientUnits="userSpaceOnUse" gradientTransform="matrix(-1.52588e-05, 0.000762939, 0.001297, 3.05176e-05, 62.1, 31.75)" spreadMethod ="pad" x1="-819.2" y1="0" x2="819.2" y2="0" >
<stop  offset="0" style="stop-color:#2F0D0B;stop-opacity:0.8" />
<stop  offset="1" style="stop-color:#5A1A1A;stop-opacity:0.8" />
</linearGradient>
<path style="fill:url(#LinearGradID_9145) " d="M62.4,30.85L61.95 31.3L62 31.25L61.8 31.65L61.75 31.9L61.85 32.35L61.85 32.55L62 32.95L61.95 32.65L61.9 32.15L62 31.45L62.25 31.1L62.4 30.9L62.85 30.7L62.4 30.85" />
<linearGradient
id="LinearGradID_9146" gradientUnits="userSpaceOnUse" gradientTransform="matrix(-0.000793457, 0.00012207, 0.000167847, 0.00109863, 60.85, 32.45)" spreadMethod ="pad" x1="-819.2" y1="0" x2="819.2" y2="0" >
<stop  offset="0" style="stop-color:#2F0D0B;stop-opacity:0.8" />
<stop  offset="1" style="stop-color:#5A1A1A;stop-opacity:0.8" />
</linearGradient>
<path style="fill:url(#LinearGradID_9146) " d="M60.65,32.1L60.65 31.95L60.9 32.1L61.15 32.35L61.3 32.65L61.55 33.25L61.55 33.3L61.35 32.9L61.05 32.35L61.05 32.4L61.25 32.85L61.6 33.65L61.6 33.2L61.6 33L61.55 32.9L61.55 32.65L61.55 32.5L61.6 32.25L61.6 31.85L61.25 31.65L60.95 31.55L60.9 31.7L60.8 31.95L60.6 31.75Q60.55 31.75 60.45 31.85L60.65 32.1" />
<linearGradient
id="LinearGradID_9147" gradientUnits="userSpaceOnUse" gradientTransform="matrix(-0.00111389, 0, 0, 0.000717163, 62.75, 35.3)" spreadMethod ="pad" x1="-819.2" y1="0" x2="819.2" y2="0" >
<stop  offset="0" style="stop-color:#000000;stop-opacity:0.8" />
<stop  offset="1" style="stop-color:#401D1C;stop-opacity:0.8" />
</linearGradient>
<path style="fill:url(#LinearGradID_9147) " d="M63.5,35.8L63 35.65L62.95 35.6L62 34.85L61.85 34.75Q62.4 35.6 63.7 35.9L63.5 35.8" />
<linearGradient
id="LinearGradID_9148" gradientUnits="userSpaceOnUse" gradientTransform="matrix(0.000869751, 9.15527e-05, 4.57764e-05, -0.000411987, 69.55, 32.45)" spreadMethod ="pad" x1="-819.2" y1="0" x2="819.2" y2="0" >
<stop  offset="0" style="stop-color:#000000;stop-opacity:0.8" />
<stop  offset="1" style="stop-color:#401D1C;stop-opacity:0.8" />
</linearGradient>
<path style="fill:url(#LinearGradID_9148) " d="M69.7,32.6L69.7 32.55L69.75 32.5L70.3 32.3L70.3 32.2L70.3 32.15L69.75 32.1L69.5 32.2L69.25 32.35L69.2 32.35L69.15 32.3L69.25 32.1L69.15 32.05Q69 32.05 68.9 32.2L68.95 32.3L69 32.45L69.1 32.65L69.35 32.5L69.5 32.4L69.55 32.5L69.6 32.6L69.7 32.6M69.65,32.35L69.7 32.4L69.7 32.5L69.65 32.5L69.55 32.4L69.6 32.35L69.65 32.35M70.2,32.25L70.15 32.25L70.05 32.3L70 32.25L69.95 32.25L69.9 32.2L69.95 32.15L70.05 32.15L70.1 32.15L70.2 32.15L70.3 32.2L70.2 32.25" />
<radialGradient
id="RadialGradID_9149" gradientUnits="userSpaceOnUse" gradientTransform="matrix(0.00733948, 0, 0, 0.00733948, 78.9, 28.85)" spreadMethod ="pad" cx="0" cy="0" r="819.2" fx="0" fy="0" >
<stop  offset="0"  style="stop-color:#FFFFFF;stop-opacity:1" />
<stop  offset="1"  style="stop-color:#FFFFFF;stop-opacity:0" />
</radialGradient>
<path style="fill:url(#RadialGradID_9149) " d="M76.9,33L74.1 31.95L73.85 30.85L76.3 30.65L78 30.9Q78.6 31.2 78.55 31.95L78.45 33.2Q78.35 33.75 78 33.55L76.9 33" />
<radialGradient
id="RadialGradID_9150" gradientUnits="userSpaceOnUse" gradientTransform="matrix(-0.00733948, 0, 0, 0.00733948, 61.65, 28.85)" spreadMethod ="pad" cx="0" cy="0" r="819.2" fx="0" fy="0" >
<stop  offset="0"  style="stop-color:#FFFFFF;stop-opacity:1" />
<stop  offset="1"  style="stop-color:#FFFFFF;stop-opacity:0" />
</radialGradient>
<path style="fill:url(#RadialGradID_9150) " d="M62.2,33.4L62.1 32.15Q62 31.25 62.55 31L64.25 30.65L66.7 30.85L66.45 31.95L63.65 33L62.55 33.55Q62.2 33.75 62.2 33.4" />
</g>
</svg>
