<?xml version="1.0" encoding="utf-8"?>
<svg version="1.1" id="Layer_1"
xmlns="http://www.w3.org/2000/svg"
xmlns:xlink="http://www.w3.org/1999/xlink"
xmlns:author="http://www.sothink.com"
width="21px" height="5px"
xml:space="preserve">
<g id="93" transform="matrix(1, 0, 0, 1, -59.85, -30)">
<path style="fill:#F6F6EE;fill-opacity:1" d="M80.7,31.25L80.4 31.3L80.15 31.4L80.1 31.6L80 31.75L79.9 31.7L79.9 31.35L79.8 30.95L79.4 30.75L78.75 30.55L78.7 30.55L75.2 30.6L73.95 30.8L73.15 30.95L72.8 31Q71.75 31.2 71.45 31.5L71.4 31.5L71.35 31.75L71.35 31.8L71.3 32.05L71.2 32.1L71.15 32.1L71.1 32L71.1 31.9L71.1 31.75L70.7 31.7L70.25 31.7L70.3 31.55L70.85 31.6L71.1 31.55L71.35 31.45L71.85 31.15L72.3 31L72.75 30.9L73.4 30.8L74.55 30.65L76.8 30.45L79.1 30.45Q79.55 30.55 80 30.9L80.1 30.95L80.4 31.1L80.65 31.15L80.7 31.15L80.7 31.25" />
<path style="fill:#F5EDE3;fill-opacity:1" d="M71.65,32.7L71.65 32.65L71.6 32.55L71.6 32.3L71.6 32L71.55 31.6L71.4 32L71.35 32.1L71.25 32.2L71.05 32.1L71 32.05L70.95 31.95L70.9 31.9L70.7 31.85L70.25 31.85L70.25 31.7L70.7 31.7L71.1 31.75L71.1 31.9L71.1 32L71.15 32.1L71.2 32.1L71.3 32.05L71.35 31.8L71.35 31.75L71.4 31.5L71.45 31.5Q71.75 31.2 72.8 31L73.15 30.95L73.95 30.8L75.2 30.6L78.7 30.55L78.75 30.55L79.4 30.75L79.8 30.95L79.9 31.35L79.9 31.7L80 31.75L80.1 31.6L80.15 31.4L80.4 31.3L80.7 31.25L80.45 31.75L79.95 32.2Q79.75 32.5 79.7 32.75L79.5 33.25L79.9 32.5L80.15 32.1L80.45 31.85L80.65 31.75L80.75 31.65L80.75 31.3L80.75 31.2L80.85 31.3L80.8 31.55L80.8 31.7L80.7 31.8L80.15 32.2L79.75 32.85L79.55 33.2L79.3 33.5L79.15 33.65L78.85 33.85L78.15 34.15L77.6 34.3L77.35 34.35L76.15 34.55L75.55 34.55L75.4 34.55L72.85 34.25L72 33.6L71.85 33.3L71.85 33.2L71.65 32.7M72.35,31.35L72.2 31.35Q71.75 31.6 71.7 31.95L71.7 32.05L71.7 32.15L71.75 32.5L71.8 32.7L71.95 33.15L72.15 33.5L73.2 34.2L75.55 34.45L76.25 34.4L76.3 34.4L76.4 34.4L77.35 34.25L78.4 33.9L79.1 33.45L79.45 32.9L79.55 32.3L79.65 31.6L79.55 31.05L79.4 30.9L79.2 30.85L79.15 30.8L79.1 30.8L77.25 30.65L76 30.7L73.7 31L72.75 31.25L72.35 31.35" />
<path style="fill:#000000;fill-opacity:1" d="M80.75,30.95L80.65 30.95L80.45 30.9L80.1 30.8L80 30.7Q79.6 30.35 79.1 30.25L76.85 30.25L74.55 30.4L73.45 30.6L72.75 30.7L72.3 30.8L71.85 30.95L71.35 31.2L71.1 31.3L70.9 31.4L70.3 31.35L70.3 31.2L70.75 31.2L71.6 30.9L73.8 30.4L76.65 30.1L78.7 30.1L79.5 30.25L79.55 30.25L79.75 30.4L79.8 30.4L80.05 30.6L80.55 30.85L80.8 30.9L80.85 30.95L80.85 31.1L80.75 30.95" />
<path style="fill:#BBB5B5;fill-opacity:1" d="M80.75,31.05L80.75 31L80.65 31L80.45 30.95L80.1 30.85L80 30.75Q79.6 30.4 79.1 30.3L76.85 30.3L74.55 30.45L73.45 30.65L72.75 30.8L72.3 30.85L71.85 31.05L71.35 31.25L71.1 31.4L70.9 31.45L70.3 31.45L70.3 31.35L70.9 31.4L71.1 31.3L71.35 31.2L71.85 30.95L72.3 30.8L72.75 30.7L73.45 30.6L74.55 30.4L76.85 30.25L79.1 30.25Q79.6 30.35 80 30.7L80.1 30.8L80.45 30.9L80.65 30.95L80.75 30.95L80.85 31.1L80.85 31.15L80.75 31.05" />
<path style="fill:#FFFFFF;fill-opacity:1" d="M80.75,31.2L80.75 31.15L80.7 31.15L80.65 31.15L80.4 31.1L80.1 30.95L80 30.9Q79.55 30.55 79.1 30.45L76.8 30.45L74.55 30.65L73.4 30.8L72.75 30.9L72.3 31L71.85 31.15L71.35 31.45L71.1 31.55L70.85 31.6L70.3 31.55L70.3 31.45L70.9 31.45L71.1 31.4L71.35 31.25L71.85 31.05L72.3 30.85L72.75 30.8L73.45 30.65L74.55 30.45L76.85 30.3L79.1 30.3Q79.6 30.4 80 30.75L80.1 30.85L80.45 30.95L80.65 31L80.75 31L80.75 31.05L80.85 31.15L80.85 31.3L80.75 31.2M72,31.55L71.85 31.75L71.85 31.8L71.8 31.95L71.8 32.05L71.8 32.1L71.8 32.3L71.85 32.45L71.85 32.65L71.95 32.95L72.1 33.25L72.55 33.8L72.85 33.9L73.6 34.15L74.65 34.25L74.7 34.25L74.9 34.25L74.95 34.25L75.5 34.3L76.35 34.25L76.75 34.2L77.35 34.1L78.35 33.75Q79 33.55 79.3 32.75L79.3 32.7L79.55 31.65L79.5 31L79.4 30.9L79.55 31.05L79.65 31.6L79.55 32.3L79.45 32.9L79.1 33.45L78.4 33.9L77.35 34.25L76.4 34.4L76.3 34.4L76.25 34.4L75.55 34.45L73.2 34.2L72.15 33.5L71.95 33.15L71.8 32.7L71.75 32.5L71.7 32.15L71.7 32.05L71.7 31.95Q71.75 31.6 72.2 31.35L72.35 31.35L72.75 31.25Q72.3 31.3 72.05 31.5L72 31.55" />
<path style="fill:#FCF6F6;fill-opacity:1" d="M80.75,31.3L80.75 31.65L80.65 31.75L80.45 31.85L80.15 32.1L79.9 32.5L79.5 33.25L79.7 32.75Q79.75 32.5 79.95 32.2L80.45 31.75L80.7 31.25L80.7 31.15L80.75 31.15L80.75 31.2L80.75 31.3" />
<path style="fill:#281912;fill-opacity:1" d="M72.4,33.4Q73.2 34.1 75.55 34.1L76.05 34.1L76.45 34.05L76.55 34.05L77 34L77.4 33.9L78.65 33.35Q79.45 32.7 79.45 31.1L79.4 30.9L79.5 31L79.55 31.65L79.3 32.7L79.3 32.75Q79 33.55 78.35 33.75L77.35 34.1L76.75 34.2L76.35 34.25L75.5 34.3L74.95 34.25L74.9 34.25L74.7 34.25L74.65 34.25L73.6 34.15L72.85 33.9L72.55 33.8L72.1 33.25L71.95 32.95L71.85 32.65L71.85 32.45L71.95 32.75L72.15 33.15L72.2 33.25L72.45 33.55L72.8 33.7L72.4 33.4" />
<path style="fill:#D8CBBB;fill-opacity:1" d="M70.75,32.1L70.9 32.1L70.95 32.15L71 32.15L71.1 32.3L71.2 32.35L71.25 32.4L71.35 32.5L71.45 32.6L71.6 32.8L71.85 33.2L71.85 33.3L72 33.6L72.85 34.25L75.4 34.55L75.55 34.55L76.15 34.55L77.35 34.35L77.6 34.3L78.15 34.15L78.85 33.85L79.15 33.65L79.3 33.5L79.55 33.2L79.55 33.3Q79.15 34.15 77.3 34.5L76.55 34.6L76.5 34.6L76.1 34.65L75.55 34.65L74.1 34.6L73 34.4L72.45 34.15L72.1 33.85L71.7 33.25L71.35 32.7L71.25 32.55L71 32.3L70.85 32.2L70.65 32.15L70.5 32.15L70.25 32.15L70.25 32.1L70.75 32.1" />
<path style="fill:#FFFFFF;fill-opacity:0.101961" d="M72.25,33.15L71.9 32.4L71.8 32.1L71.8 32.05L71.8 31.95L71.85 31.8L71.85 31.75L72 31.55L72.2 32.3L72.25 32.7L72.25 33.15" />
<path style="fill:#E5C2A4;fill-opacity:1" d="M72.25,32.7L72.2 32.3L72 31.55L72.05 31.5L72.3 32.2L72.35 32.6L72.4 33.4L72.25 33.15L72.25 32.7" />
<path style="fill:#E8DDD3;fill-opacity:1" d="M70.25,32.1L70.25 32.05L70.25 31.85L70.7 31.85L70.9 31.9L70.95 31.95L71 32.05L71.05 32.1L71.25 32.2L71.35 32.1L71.4 32L71.55 31.6L71.6 32L71.6 32.3L71.6 32.55L71.65 32.65L71.65 32.7L71.85 33.2L71.6 32.8L71.45 32.6L71.35 32.5L71.25 32.4L71.2 32.35L71.1 32.3L71 32.15L70.95 32.15L70.9 32.1L70.75 32.1L70.25 32.1" />
<path style="fill:#5F3B2F;fill-opacity:1" d="M71.8,32.1L71.9 32.4L72.25 33.15L72.4 33.4L72.8 33.7L72.45 33.55L72.2 33.25L72.15 33.15L71.95 32.75L71.85 32.45L71.8 32.3L71.8 32.1L71.8 32.05L71.8 32.1" />
<radialGradient
id="RadialGradID_9111" gradientUnits="userSpaceOnUse" gradientTransform="matrix(0.00344849, 0.000183105, -0.000183105, 0.00344849, 72.25, 30.5)" spreadMethod ="pad" cx="0" cy="0" r="819.2" fx="0" fy="0" >
<stop  offset="0"  style="stop-color:#FFFFFF;stop-opacity:1" />
<stop  offset="1"  style="stop-color:#FFFFFF;stop-opacity:0" />
</radialGradient>
<path style="fill:url(#RadialGradID_9111) " d="M71.35,31L71.65 30.9L71.65 30.85L71.7 30.85L71.8 30.8L72.45 30.6L73.6 30.4L74.2 30.3L75.7 30.15L75.3 30.25L75.1 30.25L73.35 30.5L72.2 30.75L71.7 30.95L71.6 31L71.65 31L71.15 31.3L70.7 31.35L70.5 31.35L70.45 31.35L71 31.15L71.35 31" />
<radialGradient
id="RadialGradID_9112" gradientUnits="userSpaceOnUse" gradientTransform="matrix(0.00271606, 0.000137329, -0.000137329, 0.00271606, 79.45, 30.35)" spreadMethod ="pad" cx="0" cy="0" r="819.2" fx="0" fy="0" >
<stop  offset="0"  style="stop-color:#FFFFFF;stop-opacity:1" />
<stop  offset="1"  style="stop-color:#FFFFFF;stop-opacity:0" />
</radialGradient>
<path style="fill:url(#RadialGradID_9112) " d="M77.05,30.2L77.6 30.15L78.05 30.15L78.25 30.15L78.85 30.15L79.45 30.3L79.85 30.5L79.9 30.55L80 30.6L80.2 30.7L80.65 30.85L80.3 30.8L80.25 30.8L79.8 30.55L79.55 30.4L79.15 30.25L79.05 30.25L78.45 30.2L77.7 30.2L77.05 30.2" />
<path style="fill:#9FA583;fill-opacity:1" d="M73.65,34.05Q75.2 34.3 77 34.05Q78.35 33.8 78.9 33.25L79.15 33L79 33.3L78.6 33.65L77.9 33.95L77.45 34.1L77.25 34.1L77.05 34.15L76.9 34.15L76.3 34.25L75.25 34.25L74.25 34.2L73.8 34.2L73.45 34.1L72.95 33.95L72.5 33.7L72.35 33.45L72.55 33.65L72.75 33.75L73.3 33.95L73.65 34.05" />
<radialGradient
id="RadialGradID_9113" gradientUnits="userSpaceOnUse" gradientTransform="matrix(0.00141907, 7.62939e-05, -7.62939e-05, 0.00141907, 72.45, 32.9)" spreadMethod ="pad" cx="0" cy="0" r="819.2" fx="0" fy="0" >
<stop  offset="0"  style="stop-color:#FFFFFF;stop-opacity:1" />
<stop  offset="1"  style="stop-color:#FFFFFF;stop-opacity:0" />
</radialGradient>
<path style="fill:url(#RadialGradID_9113) " d="M72.15,32.95L72.45 33.35L72.45 33.4L72.3 33.3L72.05 32.95L71.95 32.55L71.95 32.45L72 32.6L72.15 32.95" />
<radialGradient
id="RadialGradID_9114" gradientUnits="userSpaceOnUse" gradientTransform="matrix(0.00134277, 7.62939e-05, -7.62939e-05, 0.00134277, 72.3, 33)" spreadMethod ="pad" cx="0" cy="0" r="819.2" fx="0" fy="0" >
<stop  offset="0"  style="stop-color:#FFFFFF;stop-opacity:1" />
<stop  offset="1"  style="stop-color:#FFFFFF;stop-opacity:0" />
</radialGradient>
<path style="fill:url(#RadialGradID_9114) " d="M72.25,32.35L72.3 32.7L72.35 33L72.3 33.15L72.25 32.8L72.25 32.35" />
<path style="fill:#F6F6EE;fill-opacity:1" d="M60.05,31.2L60.35 31.25L60.6 31.35L60.65 31.55L60.75 31.7L60.85 31.65L60.85 31.3L60.95 30.9L61.35 30.7L62 30.5L62.05 30.5L65.55 30.55L66.8 30.75L67.6 30.9L67.95 30.95Q69 31.25 69.3 31.55L69.35 31.55L69.4 31.8L69.4 31.85L69.45 32.1L69.55 32.15L69.6 32.15L69.65 32.05L69.65 31.95L69.65 31.8L70.05 31.75L70.5 31.75L70.45 31.6L69.9 31.65L69.65 31.6L69.4 31.5L68.9 31.2L68.45 31.05L68 30.85L67.35 30.75L66.2 30.6L63.95 30.4L61.65 30.4L60.75 30.85L60.65 30.9L60.35 31.05L60.1 31.1L60.05 31.1L60.05 31.2" />
<path style="fill:#F5EDE3;fill-opacity:1" d="M69.15,32.75L69.15 32.7L69.15 32.6L69.15 32.35L69.15 32.05L69.2 31.65L69.35 32.05L69.4 32.15L69.5 32.25L69.7 32.15L69.75 32.1L69.8 32L69.85 31.95L70.05 31.9L70.5 31.9L70.5 31.75L70.05 31.75L69.65 31.8L69.65 31.95L69.65 32.05L69.6 32.15L69.55 32.15L69.45 32.1L69.4 31.85L69.4 31.8L69.35 31.55L69.3 31.55Q69 31.25 67.95 30.95L67.6 30.9L66.8 30.75L65.55 30.55L62.05 30.5L62 30.5L61.35 30.7L60.95 30.9L60.85 31.3L60.85 31.65L60.75 31.7L60.65 31.55L60.6 31.35L60.35 31.25L60.05 31.2Q60.1 31.6 60.3 31.7L60.8 32.15L61.05 32.7L61.25 33.2L60.85 32.45L60.6 32.05L60.3 31.8L60.1 31.7L60 31.6L60 31.25L60 31.15L59.9 31.25L59.95 31.5L59.95 31.65L60.05 31.75L60.6 32.15L61 32.8L61.2 33.15L61.45 33.45L61.6 33.6L61.9 33.8L62.6 34.1L63.15 34.25L63.4 34.3L64.6 34.5L65.2 34.5L65.35 34.5L67.9 34.2L68.75 33.65L68.9 33.35L68.9 33.25L69.15 32.75M68.4,31.3L68.55 31.4Q69 31.65 69.05 32L69.05 32.1L69.05 32.2L69 32.55L68.95 32.75L68.8 33.2L68.6 33.55Q68.4 33.95 67.55 34.15L65.2 34.4L64.5 34.35L64.45 34.35L64.35 34.35L63.4 34.2L62.35 33.85L61.65 33.4L61.3 32.85L61.2 32.25L61.1 31.55L61.2 31L61.35 30.85L61.4 30.85L61.55 30.8L61.6 30.75L61.65 30.75L63.5 30.6L64.75 30.65L67.05 30.95L68 31.2L68.4 31.3" />
<path style="fill:#000000;fill-opacity:1" d="M60,30.9L60.1 30.9L60.3 30.85L60.65 30.75L60.75 30.65Q61.15 30.3 61.65 30.2L63.95 30.2L66.2 30.35L67.3 30.55L68 30.65L68.45 30.85L68.9 31L69.4 31.25L69.65 31.35L69.85 31.45L70.45 31.4L70.45 31.25L70 31.25L69.15 30.95L66.95 30.35L64.1 30.05L62.05 30.05L61.25 30.2L61.2 30.2L61 30.35L60.95 30.35L60.7 30.55L60.2 30.8L59.95 30.85L59.9 30.9L59.9 31.05L60 30.9" />
<path style="fill:#BBB5B5;fill-opacity:1" d="M60,31L60 30.95L60.1 30.95L60.3 30.9L60.65 30.8L60.75 30.7Q61.15 30.35 61.65 30.25L63.95 30.25L66.2 30.4L67.3 30.6L68 30.75L68.45 30.9L68.9 31.1L69.4 31.3L69.65 31.45L69.85 31.5L70.45 31.5L70.45 31.4L69.85 31.45L69.65 31.35L69.4 31.25L68.9 31L68.45 30.85L68 30.65L67.3 30.55L66.2 30.35L63.95 30.2L61.65 30.2Q61.15 30.3 60.75 30.65L60.65 30.75L60.3 30.85L60.1 30.9L60 30.9L59.9 31.05L59.9 31.1L60 31" />
<path style="fill:#FFFFFF;fill-opacity:1" d="M60,31.15L60 31.1L60.05 31.1L60.1 31.1L60.35 31.05L60.65 30.9L60.75 30.85L61.65 30.4L63.95 30.4L66.2 30.6L67.35 30.75L68 30.85L68.45 31.05L68.9 31.2L69.4 31.5L69.65 31.6L69.9 31.65L70.45 31.6L70.45 31.5L69.85 31.5L69.65 31.45L69.4 31.3L68.9 31.1L68.45 30.9L68 30.75L67.3 30.6L66.2 30.4L63.95 30.25L61.65 30.25Q61.15 30.35 60.75 30.7L60.65 30.8L60.3 30.9L60.1 30.95L60 30.95L60 31L59.9 31.1L59.9 31.25L60 31.15M68.75,31.6L68.9 31.8L68.9 31.85L68.95 32L68.95 32.1L68.95 32.15L68.95 32.35L68.9 32.5L68.9 32.7L68.8 33L68.65 33.3L68.2 33.75L67.9 33.85L67.15 34.1L66.1 34.2L66.05 34.2L65.85 34.2L65.8 34.2L65.25 34.25L64.4 34.2L64 34.15L63.4 34.05L62.4 33.7Q61.75 33.5 61.45 32.7L61.45 32.65L61.2 31.6Q61.15 31.1 61.25 30.95L61.35 30.85L61.2 31L61.1 31.55L61.2 32.25L61.3 32.85L61.65 33.4L62.35 33.85L63.4 34.2L64.35 34.35L64.45 34.35L64.5 34.35L65.2 34.4L67.55 34.15Q68.4 33.95 68.6 33.55L68.8 33.2L68.95 32.75L69 32.55L69.05 32.2L69.05 32.1L69.05 32Q69 31.65 68.55 31.4L68.4 31.3L68 31.2L68.7 31.55L68.75 31.6" />
<path style="fill:#FCF6F6;fill-opacity:1" d="M60,31.25L60 31.6L60.1 31.7L60.3 31.8L60.6 32.05L60.85 32.45L61.25 33.2L61.05 32.7L60.8 32.15L60.3 31.7Q60.1 31.6 60.05 31.2L60.05 31.1L60 31.1L60 31.15L60 31.25" />
<path style="fill:#281912;fill-opacity:1" d="M68.35,33.35Q67.55 34.05 65.2 34.05L64.7 34.05L64.3 34L64.2 34L63.75 33.95L63.35 33.85L62.1 33.3Q61.3 32.65 61.3 31.05L61.35 30.85L61.25 30.95Q61.15 31.1 61.2 31.6L61.45 32.65L61.45 32.7Q61.75 33.5 62.4 33.7L63.4 34.05L64 34.15L64.4 34.2L65.25 34.25L65.8 34.2L65.85 34.2L66.05 34.2L66.1 34.2L67.15 34.1L67.9 33.85L68.2 33.75L68.65 33.3L68.8 33L68.9 32.7L68.9 32.5L68.8 32.8L68.6 33.2L68.55 33.3L68.3 33.5L67.95 33.65L68.35 33.35" />
<path style="fill:#D8CBBB;fill-opacity:1" d="M70,32.15L69.85 32.15L69.8 32.2L69.75 32.2L69.65 32.35L69.55 32.4L69.5 32.45L69.4 32.55L69.3 32.65L69.15 32.85L68.9 33.25L68.9 33.35L68.75 33.65L67.9 34.2L65.35 34.5L65.2 34.5L64.6 34.5L63.4 34.3L63.15 34.25L62.6 34.1L61.9 33.8L61.6 33.6L61.45 33.45L61.2 33.15L61.2 33.25Q61.6 34.1 63.45 34.45L64.2 34.55L64.25 34.55L64.65 34.6L65.2 34.6L66.65 34.55L67.75 34.35L68.3 34.1L68.65 33.9L69.05 33.3L69.4 32.75L69.5 32.6L69.75 32.35L69.9 32.25L70.1 32.2L70.25 32.2L70.5 32.2L70.5 32.15L70 32.15" />
<path style="fill:#FFFFFF;fill-opacity:0.101961" d="M68.5,33.2L68.85 32.45L68.95 32.15L68.95 32.1L68.95 32L68.9 31.85L68.9 31.8L68.75 31.6L68.55 32.35L68.5 32.75L68.5 33.2" />
<path style="fill:#E5C2A4;fill-opacity:1" d="M68.5,32.75L68.55 32.35L68.75 31.6L68.7 31.55L68.45 32.25L68.4 32.55L68.35 33.35L68.5 33.2L68.5 32.75" />
<path style="fill:#E8DDD3;fill-opacity:1" d="M70.5,32.15L70.5 32.1L70.5 31.9L70.05 31.9L69.85 31.95L69.8 32L69.75 32.1L69.7 32.15L69.5 32.25L69.4 32.15L69.35 32.05L69.2 31.65L69.15 32.05L69.15 32.35L69.15 32.6L69.15 32.7L69.15 32.75L68.9 33.25L69.15 32.85L69.3 32.65L69.4 32.55L69.5 32.45L69.55 32.4L69.65 32.35L69.75 32.2L69.8 32.2L69.85 32.15L70 32.15L70.5 32.15" />
<path style="fill:#5F3B2F;fill-opacity:1" d="M68.95,32.15L68.85 32.45L68.5 33.2L68.35 33.35L67.95 33.65L68.3 33.5L68.55 33.3L68.6 33.2L68.8 32.8L68.9 32.5L68.95 32.35L68.95 32.15L68.95 32.1L68.95 32.15" />
<radialGradient
id="RadialGradID_9115" gradientUnits="userSpaceOnUse" gradientTransform="matrix(-0.00344849, 0.000183105, 0.000183105, 0.00344849, 68.25, 30.45)" spreadMethod ="pad" cx="0" cy="0" r="819.2" fx="0" fy="0" >
<stop  offset="0"  style="stop-color:#FFFFFF;stop-opacity:1" />
<stop  offset="1"  style="stop-color:#FFFFFF;stop-opacity:0" />
</radialGradient>
<path style="fill:url(#RadialGradID_9115) " d="M69.15,30.95L68.85 30.85L68.85 30.8L68.8 30.8L68.7 30.75L68.05 30.55L66.9 30.35L66.3 30.25L64.8 30.1L65.2 30.2L65.4 30.2L67.15 30.45L68.3 30.7L68.8 30.9L68.9 30.95L68.85 30.95L69.35 31.25L69.8 31.3L70 31.3L70.05 31.3L69.5 31.1L69.15 30.95" />
<radialGradient
id="RadialGradID_9116" gradientUnits="userSpaceOnUse" gradientTransform="matrix(-0.00271606, 0.000137329, 0.000137329, 0.00271606, 61.05, 30.3)" spreadMethod ="pad" cx="0" cy="0" r="819.2" fx="0" fy="0" >
<stop  offset="0"  style="stop-color:#FFFFFF;stop-opacity:1" />
<stop  offset="1"  style="stop-color:#FFFFFF;stop-opacity:0" />
</radialGradient>
<path style="fill:url(#RadialGradID_9116) " d="M63.45,30.15L62.9 30.1L62.45 30.1L62.25 30.1L61.65 30.1L61.05 30.25L60.65 30.45L60.6 30.5L60.5 30.55L60.3 30.65L59.85 30.8L60.2 30.75L60.25 30.75L60.7 30.5L60.95 30.35L61.35 30.2L61.45 30.2L62.05 30.15L62.8 30.15L63.45 30.15" />
<path style="fill:#9FA583;fill-opacity:1" d="M67.1,34Q65.55 34.25 63.75 34Q62.4 33.75 61.85 33.2L61.6 32.95L61.75 33.25L62.15 33.6L62.85 33.9L63.3 34.05L63.5 34.05L63.7 34.1L63.85 34.1L64.45 34.2L65.5 34.2L66.5 34.15L66.95 34.15L67.3 34.05L67.8 33.9L68.25 33.65L68.4 33.5L68.2 33.6L68 33.7L67.45 33.9L67.1 34" />
<radialGradient
id="RadialGradID_9117" gradientUnits="userSpaceOnUse" gradientTransform="matrix(-0.00141907, 7.62939e-05, 7.62939e-05, 0.00141907, 68.15, 32.95)" spreadMethod ="pad" cx="0" cy="0" r="819.2" fx="0" fy="0" >
<stop  offset="0"  style="stop-color:#FFFFFF;stop-opacity:1" />
<stop  offset="1"  style="stop-color:#FFFFFF;stop-opacity:0" />
</radialGradient>
<path style="fill:url(#RadialGradID_9117) " d="M68.45,33L68.15 33.4L68.15 33.45L68.3 33.35L68.55 33L68.65 32.6L68.65 32.5L68.6 32.65L68.45 33" />
<radialGradient
id="RadialGradID_9118" gradientUnits="userSpaceOnUse" gradientTransform="matrix(-0.00134277, 7.62939e-05, 7.62939e-05, 0.00134277, 68.3, 33.05)" spreadMethod ="pad" cx="0" cy="0" r="819.2" fx="0" fy="0" >
<stop  offset="0"  style="stop-color:#FFFFFF;stop-opacity:1" />
<stop  offset="1"  style="stop-color:#FFFFFF;stop-opacity:0" />
</radialGradient>
<path style="fill:url(#RadialGradID_9118) " d="M68.35,32.4L68.3 32.75L68.25 33.05L68.3 33.2L68.35 32.85L68.35 32.4" />
<radialGradient
id="RadialGradID_9119" gradientUnits="userSpaceOnUse" gradientTransform="matrix(0.00733948, 0, 0, 0.00733948, 79.65, 28.7)" spreadMethod ="pad" cx="0" cy="0" r="819.2" fx="0" fy="0" >
<stop  offset="0"  style="stop-color:#FFFFFF;stop-opacity:1" />
<stop  offset="1"  style="stop-color:#FFFFFF;stop-opacity:0" />
</radialGradient>
<path style="fill:url(#RadialGradID_9119) " d="M78.75,30.75Q79.35 31.05 79.25 31.75L79.1 32.8L78.7 33.2L77.65 32.85L74.85 31.8L75.15 30.9L76.9 30.65L78.75 30.75" />
<radialGradient
id="RadialGradID_9120" gradientUnits="userSpaceOnUse" gradientTransform="matrix(-0.00733948, 0, 0, 0.00733948, 61, 28.7)" spreadMethod ="pad" cx="0" cy="0" r="819.2" fx="0" fy="0" >
<stop  offset="0"  style="stop-color:#FFFFFF;stop-opacity:1" />
<stop  offset="1"  style="stop-color:#FFFFFF;stop-opacity:0" />
</radialGradient>
<path style="fill:url(#RadialGradID_9120) " d="M63,32.85L62 33.2Q61.7 33.2 61.6 32.8L61.4 31.75Q61.3 31.05 61.9 30.75L63.75 30.65L65.5 30.9L65.8 31.8L63 32.85" />
</g>
</svg>
