<?xml version="1.0" encoding="utf-8"?>
<svg version="1.1" id="Layer_1"
xmlns="http://www.w3.org/2000/svg"
xmlns:xlink="http://www.w3.org/1999/xlink"
xmlns:author="http://www.sothink.com"
width="21px" height="5px"
xml:space="preserve">
<g id="97" transform="matrix(1, 0, 0, 1, -59.9, -30.05)">
<path style="fill:#F0F1F5;fill-opacity:1" d="M71.15,30.6L71.05 30.55L70.15 30.5L69.95 30.5L69.95 30.4L70.8 30.4L71.2 30.5L71.55 30.65L71.7 30.8L71.65 30.95L71.15 30.6" />
<path style="fill:#8E9486;fill-opacity:1" d="M69.95,30.5L70.15 30.5L71.05 30.55L71.15 30.6L71.65 30.95L71.65 31.05Q71.45 30.8 71.1 30.7L70.45 30.6L69.95 30.6L69.95 30.5" />
<path style="fill:#595C53;fill-opacity:1" d="M71.65,31.1L71.6 31.1L71.6 31.15L71.55 31.35L71.3 30.95L71.05 30.85L70.75 30.8L69.95 30.8L69.95 30.6L70.45 30.6L71.1 30.7Q71.45 30.8 71.65 31.05L71.65 31.1" />
<path style="fill:#8A9199;fill-opacity:1" d="M71.65,30.95L71.7 30.8L71.75 30.8L71.85 30.65Q72.15 30.25 73 30.15L75.85 30.05L78.6 30.35Q79.4 30.6 79.55 31.05L79.7 31.6L79.75 31.8L79.75 31.95L79.75 32.15L79.75 32.4L79.7 32.6L79.7 32.4L79.7 32.15L79.7 32L79.65 31.7L79.5 31.2L78.9 30.6L76.15 30.25L72.95 30.35Q72.05 30.5 71.7 31L71.65 31L71.65 31.05L71.65 30.95" />
<path style="fill:#363638;fill-opacity:1" d="M72.35,30.7L72.35 30.75L72.25 30.75L71.95 30.95L71.75 31.45L71.75 31.6L71.75 31.7L71.75 31.95L71.85 32.35L71.9 32.55L72.1 33.1L72.75 33.85L73.95 34.25L75.2 34.35L76.2 34.35L78.2 34.15Q79.15 33.95 79.4 33.2L79.55 32.6L79.55 32.55L79.55 32.45L79.55 32.4L79.55 31.95L79.5 31.8L79.15 31.1L79.2 31.2L79.3 31.4L79.35 31.75L79.35 32.15L79.35 32.25L79.35 32.4L79.35 32.5L79.25 32.75L79.2 32.85L79.25 31.85L79.25 31.5L78.8 30.85L78.75 30.8L78.7 30.8L78.5 30.7L75.85 30.45L73.1 30.55L72.4 30.7L72.35 30.7M79.65,32.95L79.55 33.35L79.4 33.65L79 34.05L77.35 34.4L76 34.5L75.8 34.5L74.85 34.5Q73.2 34.4 72.55 33.8Q71.6 33 71.55 32L71.55 31.4L71.55 31.35L71.6 31.15L71.6 31.1L71.65 31.1L71.65 31.05L71.65 31L71.7 31Q72.05 30.5 72.95 30.35L76.15 30.25L78.9 30.6L79.5 31.2L79.65 31.7L79.7 32L79.7 32.15L79.7 32.4L79.7 32.6L79.65 32.95" />
<path style="fill:#586063;fill-opacity:1" d="M79.35,32.35L79.35 32.4L79.35 32.25L79.35 32.15L79.35 31.75L79.3 31.4L79.2 31.2L79.15 31.1L79.5 31.8L79.55 31.95L79.55 32.05L79.5 32.05L79.45 32.4L79.35 32.35M71.9,31.35L71.95 31.25L71.95 31.2L71.85 31.5L71.8 31.8L71.85 32.35L71.75 31.95L71.75 31.7L71.75 31.6L71.75 31.45L71.95 30.95L72.25 30.75L72.35 30.75L72.25 30.8L72.2 30.8L72.1 30.9L71.95 31.35L71.95 31.4L71.95 31.55L71.9 31.35" />
<path style="fill:#848D8A;fill-opacity:1" d="M76,34.2L75.55 34.2L74.15 34.1Q73.1 34 72.65 33.55L72.05 32.65L71.9 32L71.9 31.85L71.9 31.55L71.9 31.45L71.9 31.35L71.95 31.55L71.95 31.85L72 32.15L72.35 32.9L73.1 33.7L74.45 34L76 34.05L77 34L77.85 33.9L78.65 33.6Q79.1 33.3 79.25 31.85L79.2 32.85L79.25 32.75L79.35 32.5L79.35 32.4L79.35 32.35L79.45 32.4L79.35 32.75L79.1 33.3L78.55 33.85L77.3 34.15L76 34.2M72.35,30.75L72.35 30.7L72.4 30.7L72.35 30.75" />
<path style="fill:#F4FCF1;fill-opacity:1" d="M80.7,31.65L80.75 31.8L80.2 31.75L79.75 31.8L79.7 31.6L80.7 31.65" />
<path style="fill:#57604F;fill-opacity:1" d="M80.15,31.9L80.4 31.9L80.75 31.9L80.7 32.1L80.6 32.1L80.6 32.35L80.5 32.4L80.3 32.4L80.2 32.15L80.05 32.1L79.75 32.15L79.75 31.95L80.15 31.9" />
<path style="fill:#A0AA8F;fill-opacity:1" d="M79.75,32.4L79.75 32.15L80.05 32.1L80.2 32.15L80.3 32.4L79.75 32.4" />
<path style="fill:#A7AFA0;fill-opacity:1" d="M80.75,31.9L80.4 31.9L80.15 31.9L79.75 31.95L79.75 31.8L80.2 31.75L80.75 31.8L80.75 31.9" />
<linearGradient
id="LinearGradID_9165" gradientUnits="userSpaceOnUse" gradientTransform="matrix(-0.00161743, 0.00302124, -0.00120544, -0.000640869, 77.55, 32.95)" spreadMethod ="pad" x1="-819.2" y1="0" x2="819.2" y2="0" >
<stop  offset="0" style="stop-color:#95A0A6;stop-opacity:1" />
<stop  offset="0.470588" style="stop-color:#F2FDFF;stop-opacity:1" />
<stop  offset="1" style="stop-color:#7D878C;stop-opacity:1" />
</linearGradient>
<path style="fill:url(#LinearGradID_9165) " d="M76,34.2L77.3 34.15L78.55 33.85L79.1 33.3L79.35 32.75L79.45 32.4L79.5 32.05L79.55 32.05L79.55 31.95L79.55 32.4L79.55 32.45L79.55 32.55L79.55 32.6L79.4 33.2Q79.15 33.95 78.2 34.15L76.2 34.35L76 34.2" />
<linearGradient
id="LinearGradID_9166" gradientUnits="userSpaceOnUse" gradientTransform="matrix(0.00337219, 0.00108337, -0.000579834, 0.00178528, 74.1, 32.75)" spreadMethod ="pad" x1="-819.2" y1="0" x2="819.2" y2="0" >
<stop  offset="0" style="stop-color:#7D878C;stop-opacity:1" />
<stop  offset="0.321569" style="stop-color:#F2FDFF;stop-opacity:1" />
<stop  offset="1" style="stop-color:#95A0A6;stop-opacity:1" />
</linearGradient>
<path style="fill:url(#LinearGradID_9166) " d="M76.2,34.35L75.2 34.35L73.95 34.25L72.75 33.85L72.1 33.1L71.9 32.55L71.85 32.35L71.8 31.8L71.85 31.5L71.95 31.2L71.95 31.25L71.9 31.35L71.9 31.45L71.9 31.55L71.9 31.85L71.9 32L72.05 32.65L72.65 33.55Q73.1 34 74.15 34.1L75.55 34.2L76 34.2L76.2 34.35" />
<radialGradient
id="RadialGradID_9167" gradientUnits="userSpaceOnUse" gradientTransform="matrix(0.00672913, 0, 0, 0.00672913, 75.8, 30.25)" spreadMethod ="pad" cx="0" cy="0" r="819.2" fx="0" fy="0" >
<stop  offset="0"  style="stop-color:#EAF5F7;stop-opacity:1" />
<stop  offset="1"  style="stop-color:#95A0A6;stop-opacity:1" />
</radialGradient>
<path style="fill:url(#RadialGradID_9167) " d="M72.8,30.35L75.3 30.2L77.75 30.3L78.75 30.6Q79.2 30.8 78.8 30.7L77.65 30.5L75.5 30.35L74.1 30.35L72.85 30.45Q72.25 30.55 72.8 30.35" />
<path style="fill:#F0F1F5;fill-opacity:1" d="M70.7,30.4L69.85 30.4L69.45 30.5L69.1 30.65L68.95 30.8L69 30.95Q69.2 30.65 69.5 30.6L69.6 30.55L70.5 30.5L70.7 30.5L70.7 30.4" />
<path style="fill:#8E9486;fill-opacity:1" d="M70.7,30.5L70.5 30.5L69.6 30.55L69.5 30.6Q69.2 30.65 69 30.95L69 31.05L69.55 30.7L70.2 30.6L70.7 30.6L70.7 30.5" />
<path style="fill:#595C53;fill-opacity:1" d="M69,31.1L69.05 31.1L69.05 31.15L69.1 31.35L69.35 30.95L69.6 30.85L69.9 30.8L70.7 30.8L70.7 30.6L70.2 30.6L69.55 30.7L69 31.05L69 31.1" />
<path style="fill:#8A9199;fill-opacity:1" d="M69,30.95L68.95 30.8L68.9 30.8L68.8 30.65Q68.5 30.25 67.65 30.15L64.8 30.05L62.05 30.35Q61.25 30.6 61.1 31.05L60.95 31.6L60.9 31.8L60.9 31.95L60.9 32.15L60.9 32.4L60.95 32.6L60.95 32.4L60.95 32.15L60.95 32L61 31.7L61.15 31.2L61.75 30.6L64.5 30.25L67.7 30.35Q68.6 30.5 68.95 31L69 31L69 31.05L69 30.95" />
<path style="fill:#363638;fill-opacity:1" d="M61,32.95L61.1 33.35L61.25 33.65L61.65 34.05L63.3 34.4L64.65 34.5L64.85 34.5L65.8 34.5Q67.45 34.4 68.1 33.8Q69.05 33 69.1 32L69.1 31.4L69.1 31.35L69.05 31.15L69.05 31.1L69 31.1L69 31.05L69 31L68.95 31Q68.6 30.5 67.7 30.35L64.5 30.25L61.75 30.6L61.15 31.2L61 31.7L60.95 32L60.95 32.15L60.95 32.4L60.95 32.6L61 32.95M68.3,30.7L68.3 30.75L68.4 30.75L68.7 30.95L68.9 31.45L68.9 31.6L68.9 31.7L68.9 31.95L68.8 32.35L68.75 32.55L68.55 33.1L67.9 33.85L66.7 34.25L65.45 34.35L64.45 34.35L62.45 34.15Q61.5 33.95 61.25 33.2L61.1 32.6L61.1 32.55L61.1 32.45L61.1 32.4L61.1 31.95L61.15 31.8L61.5 31.1L61.45 31.2L61.35 31.4L61.3 31.75L61.3 32.15L61.3 32.25L61.3 32.4L61.3 32.5L61.4 32.75L61.45 32.85Q61.35 32.45 61.4 31.85L61.4 31.5Q61.55 31.1 61.85 30.85L61.9 30.8L61.95 30.8L62.15 30.7L64.8 30.45L67.55 30.55L68.25 30.7L68.3 30.7" />
<path style="fill:#586063;fill-opacity:1" d="M61.3,32.35L61.3 32.4L61.3 32.25L61.3 32.15L61.3 31.75L61.35 31.4L61.45 31.2L61.5 31.1L61.15 31.8L61.1 31.95L61.1 32.05L61.15 32.05L61.2 32.4Q61.25 32.25 61.3 32.35M68.75,31.35L68.7 31.25L68.7 31.2L68.8 31.5L68.85 31.8L68.8 32.35L68.9 31.95L68.9 31.7L68.9 31.6L68.9 31.45L68.7 30.95L68.4 30.75L68.3 30.75L68.4 30.8L68.45 30.8L68.55 30.9L68.7 31.35L68.7 31.4L68.7 31.55L68.75 31.35" />
<path style="fill:#848D8A;fill-opacity:1" d="M64.65,34.2L65.1 34.2L66.5 34.1Q67.55 34 68 33.55L68.6 32.65L68.75 32L68.75 31.85L68.75 31.55L68.75 31.45L68.75 31.35L68.7 31.55L68.7 31.85L68.65 32.15L68.3 32.9L67.55 33.7L66.2 34L64.65 34.05L63.65 34L62.8 33.9L62 33.6Q61.55 33.3 61.4 31.85Q61.35 32.45 61.45 32.85L61.4 32.75L61.3 32.5L61.3 32.4L61.3 32.35Q61.25 32.25 61.2 32.4L61.3 32.75L61.55 33.3L62.1 33.85L63.35 34.15L64.65 34.2M68.3,30.75L68.3 30.7L68.25 30.7L68.3 30.75" />
<path style="fill:#F4FCF1;fill-opacity:1" d="M59.95,31.65L59.9 31.8L60.45 31.75L60.9 31.8L60.95 31.6L59.95 31.65" />
<path style="fill:#57604F;fill-opacity:1" d="M60.5,31.9L60.25 31.9L59.9 31.9L59.95 32.1L60.05 32.1L60.05 32.35L60.15 32.4L60.35 32.4L60.45 32.15L60.6 32.1L60.9 32.15L60.9 31.95L60.5 31.9" />
<path style="fill:#A0AA8F;fill-opacity:1" d="M60.9,32.4L60.9 32.15L60.6 32.1L60.45 32.15L60.35 32.4L60.9 32.4" />
<path style="fill:#A7AFA0;fill-opacity:1" d="M59.9,31.9L60.25 31.9L60.5 31.9L60.9 31.95L60.9 31.8L60.45 31.75L59.9 31.8L59.9 31.9" />
<linearGradient
id="LinearGradID_9168" gradientUnits="userSpaceOnUse" gradientTransform="matrix(0.00161743, 0.00302124, 0.00120544, -0.000640869, 63.1, 32.95)" spreadMethod ="pad" x1="-819.2" y1="0" x2="819.2" y2="0" >
<stop  offset="0" style="stop-color:#95A0A6;stop-opacity:1" />
<stop  offset="0.470588" style="stop-color:#F2FDFF;stop-opacity:1" />
<stop  offset="1" style="stop-color:#7D878C;stop-opacity:1" />
</linearGradient>
<path style="fill:url(#LinearGradID_9168) " d="M64.65,34.2L63.35 34.15L62.1 33.85L61.55 33.3L61.3 32.75L61.2 32.4L61.15 32.05L61.1 32.05L61.1 31.95L61.1 32.4L61.1 32.45L61.1 32.55L61.1 32.6L61.25 33.2Q61.5 33.95 62.45 34.15L64.45 34.35L64.65 34.2" />
<linearGradient
id="LinearGradID_9169" gradientUnits="userSpaceOnUse" gradientTransform="matrix(-0.00337219, 0.00108337, 0.000579834, 0.00178528, 66.55, 32.75)" spreadMethod ="pad" x1="-819.2" y1="0" x2="819.2" y2="0" >
<stop  offset="0" style="stop-color:#7D878C;stop-opacity:1" />
<stop  offset="0.321569" style="stop-color:#F2FDFF;stop-opacity:1" />
<stop  offset="1" style="stop-color:#95A0A6;stop-opacity:1" />
</linearGradient>
<path style="fill:url(#LinearGradID_9169) " d="M64.45,34.35L65.45 34.35L66.7 34.25L67.9 33.85L68.55 33.1L68.75 32.55L68.8 32.35L68.85 31.8L68.8 31.5L68.7 31.2L68.7 31.25L68.75 31.35L68.75 31.45L68.75 31.55L68.75 31.85L68.75 32L68.6 32.65L68 33.55Q67.55 34 66.5 34.1L65.1 34.2L64.65 34.2L64.45 34.35" />
<radialGradient
id="RadialGradID_9170" gradientUnits="userSpaceOnUse" gradientTransform="matrix(-0.00672913, 0, 0, 0.00672913, 64.85, 30.25)" spreadMethod ="pad" cx="0" cy="0" r="819.2" fx="0" fy="0" >
<stop  offset="0"  style="stop-color:#EAF5F7;stop-opacity:1" />
<stop  offset="1"  style="stop-color:#95A0A6;stop-opacity:1" />
</radialGradient>
<path style="fill:url(#RadialGradID_9170) " d="M67.85,30.35L65.35 30.2L62.9 30.3L61.9 30.6Q61.45 30.8 61.85 30.7L63 30.5L65.15 30.35L66.55 30.35L67.8 30.45Q68.4 30.55 67.85 30.35" />
<radialGradient
id="RadialGradID_9171" gradientUnits="userSpaceOnUse" gradientTransform="matrix(0.00733948, 0, 0, 0.00733948, 79.45, 28.7)" spreadMethod ="pad" cx="0" cy="0" r="819.2" fx="0" fy="0" >
<stop  offset="0"  style="stop-color:#FFFFFF;stop-opacity:1" />
<stop  offset="1"  style="stop-color:#FFFFFF;stop-opacity:0" />
</radialGradient>
<path style="fill:url(#RadialGradID_9171) " d="M77.45,32.85L74.65 31.8L74.4 30.7L76.85 30.5L78.55 30.75Q79.15 31.05 79.1 31.8L79 33.05Q78.9 33.6 78.55 33.4L77.45 32.85" />
<radialGradient
id="RadialGradID_9172" gradientUnits="userSpaceOnUse" gradientTransform="matrix(-0.00733948, 0, 0, 0.00733948, 61.25, 28.7)" spreadMethod ="pad" cx="0" cy="0" r="819.2" fx="0" fy="0" >
<stop  offset="0"  style="stop-color:#FFFFFF;stop-opacity:1" />
<stop  offset="1"  style="stop-color:#FFFFFF;stop-opacity:0" />
</radialGradient>
<path style="fill:url(#RadialGradID_9172) " d="M63.25,32.85L66.05 31.8L66.3 30.7L63.85 30.5L62.15 30.75Q61.55 31.05 61.6 31.8L61.7 33.05Q61.8 33.6 62.15 33.4L63.25 32.85" />
</g>
</svg>
