<?xml version="1.0" encoding="utf-8"?>
<svg version="1.1" id="Layer_1"
xmlns="http://www.w3.org/2000/svg"
xmlns:xlink="http://www.w3.org/1999/xlink"
xmlns:author="http://www.sothink.com"
width="20px" height="7px"
xml:space="preserve">
<g id="92" transform="matrix(1, 0, 0, 1, -60.15, -29.6)">
<path style="fill:#BAC0BE;fill-opacity:1" d="M79.3,32.45L79.3 33.5L79.2 32.45L79.15 32.3L79.1 32.1L79.05 31.9L79 31.75L79 31.7L78.8 31.25L78.7 31.05L78.2 30.6L77.95 30.45L77.45 30.3L77.3 30.25L77.15 30.2L75.75 30L75.4 30L74.95 29.9L74.85 29.9L74.75 29.9L74.1 29.9L73.8 29.9L73.35 29.9L72.65 29.85L70.45 29.85L69 29.9L68.85 29.9L67.9 29.95L67.9 29.85L71.3 29.8L71.7 29.8L71.75 29.8L73.8 29.8L74.7 29.85L74.95 29.85L75.65 29.9L76.4 29.95L77 30.1L77.6 30.25L78 30.4L78.45 30.6L78.6 30.75L78.8 31L79.15 31.75L79.15 31.85L79.2 32L79.2 32.05L79.25 32.25L79.25 32.35L79.3 32.45" />
<path style="fill:#4D5457;fill-opacity:1" d="M67.9,29.95L68.85 29.9L69 29.9L70.45 29.85L72.65 29.85L73.35 29.9L73.8 29.9L72.65 30.05L72.6 30.05L72.6 30.1L72.5 30.1L68.1 30.15L68 30.1L67.95 30L67.9 29.95" />
<path style="fill:#F3F2F7;fill-opacity:1" d="M67.95,29.75Q68 29.65 68.1 29.65Q71.45 29.5 75 29.8L75.85 29.85Q77.2 29.9 78 30.35L78.45 30.6L78 30.4L77.6 30.25L77 30.1L76.4 29.95L75.65 29.9L74.95 29.85L74.7 29.85L73.8 29.8L71.75 29.8L71.7 29.8L71.3 29.8L67.9 29.85L67.95 29.75" />
<path style="fill:#515A63;fill-opacity:1" d="M75.95,30.2L77.1 30.25L77.3 30.25L77.45 30.3L77.95 30.45L78.2 30.6L78.7 31.05L78.8 31.25L79 31.7L79 31.75L79.05 31.9L79.1 32.45L79.1 32.7L79.1 32.95L79 32.3L78.95 32.05L78.95 31.95L78.8 31.65L78.75 31.6L78.7 31.55L78.65 31.5L78.65 31.55L78.6 31.5L78.55 31.5L78.55 31.45L78.4 31.25L78.45 31.4L78.35 31.25L77.6 30.65L77.2 30.5L76.7 30.4L76.5 30.35L76.35 30.35L76.1 30.3L75.75 30.3L75.45 30.3L75.3 30.3L74.8 30.3L75.95 30.2" />
<path style="fill:#9DA5A8;fill-opacity:1" d="M75.4,30L75.75 30L77.15 30.2L77.3 30.25L77.1 30.25L75.95 30.2L74.8 30.3L74.7 30.3L74.6 30.3L74.55 30.35L74.5 30.35L74.3 30.25L73.65 30.15L73.9 30.15L73.65 30.1L73.35 30.1L75.6 30.05L75.45 30L75.4 30M73.65,30.1L73.9 30.15L73.75 30.1L73.65 30.1" />
<path style="fill:#8B8E93;fill-opacity:1" d="M75.45,30L75.6 30.05L73.35 30.1L72.95 30.15L72.3 30.4L71.85 30.8L71.8 30.85L71.7 31.05L71.6 31.75L71.6 32.3L71.65 32.6L71.6 33.1L71.45 31.95L71.45 31.9L71.45 31.75L71.45 31.55L71.45 31.4Q71.55 30.7 71.85 30.5Q72.1 30.2 72.5 30.1L72.6 30.1L72.65 30.05L73.8 29.9L74.1 29.9L74.75 29.9L74.85 29.9L74.95 29.9L75.4 30L75.45 30" />
<path style="fill:#8D9691;fill-opacity:1" d="M80,31.8L80.05 32.05L79.2 32.05L79.2 32L79.15 31.85L80 31.8M80,32.35L79.95 32.45L80.05 32.45L79.65 32.45L79.3 32.45L79.25 32.35L79.65 32.35L80 32.35" />
<path style="fill:#48514C;fill-opacity:1" d="M80.05,32.05L80.05 32.1L80 32.25L79.85 32.3L79.9 32.25L79.65 32.3L79.25 32.25L79.2 32.05L80.05 32.05" />
<path style="fill:#7D877F;fill-opacity:1" d="M79.65,32.35L79.25 32.35L79.25 32.25L79.65 32.3L79.9 32.25L79.85 32.3L80 32.25L80 32.35L79.65 32.35" />
<path style="fill:#BAC4C0;fill-opacity:1" d="M79.15,31.85L79.15 31.75L80 31.75L80 31.8L79.15 31.85" />
<path style="fill:#788389;fill-opacity:1" d="M79.3,33.5L79.25 34L79.2 34L79.1 34.5L79 34.75L78.8 35.05L78.4 35.5L78.15 35.75L77.95 35.9L77.35 36.15Q78.75 35.55 78.95 34.2L78.95 34.15L78.95 34L78.95 33.8L79 32.95L78.7 31.6L78.7 31.55L78.75 31.6L78.8 31.65L78.95 31.95L78.95 32.05L79 32.3L79.1 32.95L79.1 32.7L79.1 32.45L79.05 31.9L79.1 32.1L79.15 32.3L79.2 32.45L79.3 33.5" />
<path style="fill:#BBBFC0;fill-opacity:1" d="M73.75,30.1L73.9 30.15L73.65 30.1L73.9 30.15L73.65 30.15L74.3 30.25L74.5 30.35L74.45 30.35L72.85 30.5L72.25 30.8L72.2 30.8Q71.9 31.05 71.9 32L72.15 33.25Q73 35.95 76.3 36Q78.4 35.95 78.75 33.9L78.8 32.55L78.75 32.15L78.65 31.8L78.55 31.55L78.4 31.25L78.55 31.45L78.55 31.5L78.6 31.5L78.65 31.55L78.65 31.5L78.7 31.55L78.7 31.6L79 32.95L78.95 33.8L78.95 34L78.95 34.15L78.95 34.2Q78.75 35.55 77.35 36.15L77.25 36.15L76.4 36.3L75.3 36.2L75.15 36.2L74.1 35.85L73.25 35.45L72.45 34.55L71.9 33.5L71.85 33.4L71.8 33.25L71.65 32.6L71.6 32.3L71.6 31.75L71.7 31.05L71.8 30.85L71.85 30.8L72.3 30.4L72.95 30.15L73.35 30.1L73.65 30.1L73.75 30.1" />
<path style="fill:#AFB5B3;fill-opacity:1" d="M71.25,31.55L71.1 31.55L71.1 31.45L71.1 31.4L71.45 31.4L71.45 31.55L71.25 31.55" />
<path style="fill:#777F81;fill-opacity:1" d="M71.1,31.95L71.1 31.9L71.1 31.75L71.45 31.75L71.45 31.9L71.45 31.95L71.1 31.95" />
<path style="fill:#5E6462;fill-opacity:1" d="M71.1,31.9L71.1 31.95L69.55 31.95L69.55 31.45L71.1 31.4L71.1 31.45L71.1 31.55L70.95 31.55L70.55 31.55L69.7 31.65L70.25 31.75L70.85 31.75L70.95 31.75L71.1 31.75L71.1 31.9" />
<path style="fill:#485253;fill-opacity:1" d="M71.45,31.55L71.45 31.75L71.1 31.75L71.1 31.55L71.25 31.55L71.45 31.55" />
<path style="fill:#3A4245;fill-opacity:1" d="M71.1,31.75L70.95 31.75L70.85 31.75L70.25 31.75L69.7 31.65L70.55 31.55L70.95 31.55L71.1 31.55L71.1 31.75" />
<path style="fill:#737C85;fill-opacity:1" d="M72.25,34.6L71.65 33.35L71.6 33.15L71.6 33.1L71.65 32.6L71.8 33.25L71.85 33.4L71.9 33.5L72.25 34.6" />
<path style="fill:#525B62;fill-opacity:1" d="M77.95,35.9L78.15 35.75L78.4 35.5L78.8 35.05L79 34.75L78.8 35.15Q78.1 36.4 76.35 36.45Q73.5 36.4 72.25 34.6L71.9 33.5L72.45 34.55L73.25 35.45L74.1 35.85L75.15 36.2L75.3 36.2L76.4 36.3L77.25 36.15L77.35 36.15L77.95 35.9" />
<radialGradient
id="RadialGradID_9107" gradientUnits="userSpaceOnUse" gradientTransform="matrix(0.0140228, 0, 0, 0.00914001, 75.8, 30.6)" spreadMethod ="pad" cx="0" cy="0" r="819.2" fx="0" fy="0" >
<stop  offset="0"  style="stop-color:#E5FCFF;stop-opacity:0.2" />
<stop  offset="1"  style="stop-color:#FFFFFF;stop-opacity:0" />
</radialGradient>
<path style="fill:url(#RadialGradID_9107) " d="M78.55,31.55L78.65 31.8L78.75 32.15L78.8 32.55L78.75 33.9Q78.4 35.95 76.3 36Q73 35.95 72.15 33.25L71.9 32Q71.9 31.05 72.2 30.8L72.25 30.8L72.85 30.5L74.45 30.35L74.5 30.35L74.55 30.35L74.6 30.3L74.7 30.3L74.8 30.3L75.3 30.3L75.45 30.3L75.75 30.3L76.1 30.3L76.35 30.35L76.5 30.35L76.7 30.4L77.2 30.5L77.6 30.65L78.35 31.25L78.45 31.4L78.4 31.25L78.55 31.55" />
<path style="fill:#FFFFFF;fill-opacity:1" d="M78.65,30.9L78.9 31.45L79 32.85L78.7 31.5L78.45 31.1L78.1 30.8Q77.9 30.6 76.7 30.15L77.4 30.25L77.85 30.4L78.35 30.65L78.65 30.9M73,30.15L73.55 30.1L74.3 30.05L74.75 30.05L74.5 30.1L73.75 30.2L73.05 30.3L72.35 30.6L71.9 31.05L71.65 32.25L71.65 31.45L71.7 31L71.85 30.7L72.15 30.4L73 30.15M72.75,34.9L72.45 34.4L72.4 34.35L72.25 33.75L72.6 34.35L73.1 34.95L73.65 35.35L74.2 35.6L74.7 35.85L75.2 36L74.3 35.8L73.3 35.35L72.75 34.9" />
<radialGradient
id="RadialGradID_9108" gradientUnits="userSpaceOnUse" gradientTransform="matrix(0.00733948, 0, 0, 0.00733948, 79.05, 29.25)" spreadMethod ="pad" cx="0" cy="0" r="819.2" fx="0" fy="0" >
<stop  offset="0"  style="stop-color:#FFFFFF;stop-opacity:1" />
<stop  offset="1"  style="stop-color:#FFFFFF;stop-opacity:0" />
</radialGradient>
<path style="fill:url(#RadialGradID_9108) " d="M76.7,30.65L77.15 30.8L77.9 31.15Q78.6 31.45 78.55 32.7L78.5 33.2L78 33.9L77.8 34.05Q76.35 33.05 74.25 32.35L74.9 30.4L75.7 30.35L76.45 30.5L76.7 30.65" />
<path style="fill:#BAC0BE;fill-opacity:1" d="M61.6,30.75L61.4 31Q61.15 31.3 61.05 31.75L61.05 31.85L61 32L61 32.05L60.95 32.25L60.95 32.35L60.9 32.45L60.9 33.5L61 32.45L61.05 32.3L61.1 32.1L61.15 31.9L61.2 31.75L61.2 31.7L61.4 31.25L61.5 31.05L62 30.6L62.25 30.45L62.75 30.3L62.9 30.25L63.05 30.2L64.45 30L64.8 30L65.25 29.9L65.35 29.9L65.45 29.9L66.1 29.9L66.4 29.9L66.85 29.9L67.55 29.85L69.75 29.85L71.2 29.9L71.35 29.9L72.3 29.95L72.3 29.85L68.9 29.8L68.5 29.8L68.45 29.8L66.4 29.8L65.5 29.85L65.25 29.85L64.55 29.9L63.8 29.95L63.2 30.1L62.6 30.25L62.2 30.4L61.75 30.6L61.6 30.75" />
<path style="fill:#4D5457;fill-opacity:1" d="M72.3,29.95L71.35 29.9L71.2 29.9L69.75 29.85L67.55 29.85L66.85 29.9L66.4 29.9L67.55 30.05L67.6 30.05L67.6 30.1L67.7 30.1Q69.9 30 72.1 30.15L72.2 30.1L72.25 30L72.3 29.95" />
<path style="fill:#F3F2F7;fill-opacity:1" d="M72.25,29.75L72.1 29.65Q68.75 29.5 65.2 29.8L64.35 29.85Q63 29.9 62.2 30.35L61.75 30.6L62.2 30.4L62.6 30.25L63.2 30.1L63.8 29.95L64.55 29.9L65.25 29.85L65.5 29.85L66.4 29.8L68.45 29.8L68.5 29.8L68.9 29.8L72.3 29.85L72.25 29.75" />
<path style="fill:#515A63;fill-opacity:1" d="M61.1,32.45L61.1 32.7L61.1 32.95L61.2 32.3L61.25 32.05L61.25 31.95L61.4 31.65L61.45 31.6L61.5 31.55L61.55 31.5L61.55 31.55L61.6 31.5L61.65 31.5L61.65 31.45L61.8 31.25L61.75 31.4L61.85 31.25L62.6 30.65L63 30.5L63.5 30.4L63.7 30.35L63.85 30.35L64.1 30.3L64.45 30.3L64.75 30.3L64.9 30.3L65.4 30.3L64.25 30.2L63.1 30.25L62.9 30.25L62.75 30.3L62.25 30.45L62 30.6L61.5 31.05L61.4 31.25L61.2 31.7L61.2 31.75L61.15 31.9L61.1 32.45" />
<path style="fill:#9DA5A8;fill-opacity:1" d="M65.5,30.3L65.6 30.3L65.65 30.35L65.7 30.35L65.9 30.25L66.55 30.15L66.3 30.15L66.55 30.1L66.85 30.1L64.6 30.05L64.75 30L64.8 30L64.45 30L63.05 30.2L62.9 30.25L63.1 30.25L64.25 30.2L65.4 30.3L65.5 30.3M66.3,30.15L66.45 30.1L66.55 30.1L66.3 30.15" />
<path style="fill:#8B8E93;fill-opacity:1" d="M64.75,30L64.6 30.05L66.85 30.1L67.25 30.15L67.9 30.4L68.35 30.8L68.4 30.85L68.5 31.05L68.6 31.75L68.6 32.3L68.55 32.6L68.6 33.1L68.75 31.95L68.75 31.9L68.75 31.75L68.75 31.55L68.75 31.4Q68.65 30.7 68.35 30.5Q68.1 30.2 67.7 30.1L67.6 30.1L67.55 30.05L66.4 29.9L66.1 29.9L65.45 29.9L65.35 29.9L65.25 29.9L64.8 30L64.75 30" />
<path style="fill:#8D9691;fill-opacity:1" d="M60.2,32.35L60.25 32.45L60.15 32.45L60.55 32.45L60.9 32.45L60.95 32.35L60.55 32.35L60.2 32.35M60.2,31.8L60.15 32.05L61 32.05L61 32L61.05 31.85L60.2 31.8" />
<path style="fill:#48514C;fill-opacity:1" d="M60.35,32.3L60.3 32.25L60.55 32.3L60.95 32.25L61 32.05L60.15 32.05L60.15 32.1L60.2 32.25L60.35 32.3" />
<path style="fill:#7D877F;fill-opacity:1" d="M60.55,32.35L60.95 32.35L60.95 32.25L60.55 32.3L60.3 32.25L60.35 32.3L60.2 32.25L60.2 32.35L60.55 32.35" />
<path style="fill:#BAC4C0;fill-opacity:1" d="M61.05,31.85L61.05 31.75L60.2 31.75L60.2 31.8L61.05 31.85" />
<path style="fill:#788389;fill-opacity:1" d="M61.2,34.75L61.4 35.05L61.8 35.5L62.05 35.75L62.25 35.9L62.85 36.15Q61.45 35.55 61.25 34.2L61.25 34.15L61.25 34L61.25 33.8L61.2 32.95Q61.2 32.1 61.5 31.6L61.5 31.55L61.45 31.6L61.4 31.65L61.25 31.95L61.25 32.05L61.2 32.3L61.1 32.95L61.1 32.7L61.1 32.45L61.15 31.9L61.1 32.1L61.05 32.3L61 32.45L60.9 33.5L60.95 34L61 34L61.1 34.5L61.2 34.75" />
<path style="fill:#BBBFC0;fill-opacity:1" d="M66.3,30.15L66.55 30.1L66.3 30.15L66.55 30.15L65.9 30.25L65.7 30.35L65.75 30.35L67.35 30.5L67.95 30.8L68 30.8Q68.3 31.05 68.3 32L68.05 33.25Q67.2 35.95 63.9 36Q61.8 35.95 61.45 33.9L61.4 32.55L61.45 32.15L61.55 31.8L61.65 31.55L61.8 31.25L61.65 31.45L61.65 31.5L61.6 31.5L61.55 31.55L61.55 31.5L61.5 31.55L61.5 31.6Q61.2 32.1 61.2 32.95L61.25 33.8L61.25 34L61.25 34.15L61.25 34.2Q61.45 35.55 62.85 36.15L62.95 36.15L63.8 36.3L64.9 36.2L65.05 36.2L66.1 35.85L66.95 35.45L67.75 34.55L68.3 33.5L68.35 33.4L68.4 33.25L68.55 32.6L68.6 32.3L68.6 31.75L68.5 31.05L68.4 30.85L68.35 30.8L67.9 30.4L67.25 30.15L66.85 30.1L66.55 30.1L66.45 30.1M66.45,30.1L66.3 30.15" />
<path style="fill:#AFB5B3;fill-opacity:1" d="M69.1,31.45L69.1 31.4L68.75 31.4L68.75 31.55L68.95 31.55L69.1 31.55L69.1 31.45" />
<path style="fill:#777F81;fill-opacity:1" d="M69.1,31.95L69.1 31.9L69.1 31.75L68.75 31.75L68.75 31.9L68.75 31.95L69.1 31.95" />
<path style="fill:#5E6462;fill-opacity:1" d="M69.1,31.4L69.1 31.45L69.1 31.55L69.25 31.55L69.65 31.55L70.5 31.65L69.95 31.75L69.35 31.75L69.25 31.75L69.1 31.75L69.1 31.9L69.1 31.95L70.65 31.95L70.65 31.45L69.1 31.4" />
<path style="fill:#485253;fill-opacity:1" d="M69.1,31.75L69.1 31.55L68.95 31.55L68.75 31.55L68.75 31.75L69.1 31.75" />
<path style="fill:#3A4245;fill-opacity:1" d="M69.25,31.75L69.35 31.75L69.95 31.75L70.5 31.65L69.65 31.55L69.25 31.55L69.1 31.55L69.1 31.75L69.25 31.75" />
<path style="fill:#737C85;fill-opacity:1" d="M67.95,34.6L68.55 33.35L68.6 33.15L68.6 33.1L68.55 32.6L68.4 33.25L68.35 33.4L68.3 33.5L67.95 34.6" />
<path style="fill:#525B62;fill-opacity:1" d="M62.25,35.9L62.05 35.75L61.8 35.5L61.4 35.05L61.2 34.75L61.4 35.15Q62.1 36.4 63.85 36.45Q66.7 36.4 67.95 34.6L68.3 33.5L67.75 34.55L66.95 35.45L66.1 35.85L65.05 36.2L64.9 36.2L63.8 36.3L62.95 36.15L62.85 36.15L62.25 35.9" />
<radialGradient
id="RadialGradID_9109" gradientUnits="userSpaceOnUse" gradientTransform="matrix(-0.0140228, 0, 0, 0.00914001, 64.4, 30.6)" spreadMethod ="pad" cx="0" cy="0" r="819.2" fx="0" fy="0" >
<stop  offset="0"  style="stop-color:#E5FCFF;stop-opacity:0.2" />
<stop  offset="1"  style="stop-color:#FFFFFF;stop-opacity:0" />
</radialGradient>
<path style="fill:url(#RadialGradID_9109) " d="M65.4,30.3L64.9 30.3L64.75 30.3L64.45 30.3L64.1 30.3L63.85 30.35L63.7 30.35L63.5 30.4L63 30.5L62.6 30.65L61.85 31.25L61.75 31.4L61.8 31.25L61.65 31.55L61.55 31.8L61.45 32.15L61.4 32.55L61.45 33.9Q61.8 35.95 63.9 36Q67.2 35.95 68.05 33.25L68.3 32Q68.3 31.05 68 30.8L67.95 30.8L67.35 30.5L65.75 30.35L65.7 30.35L65.65 30.35L65.6 30.3L65.5 30.3L65.4 30.3" />
<path style="fill:#FFFFFF;fill-opacity:1" d="M61.55,30.9L61.3 31.45L61.2 32.85L61.5 31.5L61.75 31.1Q61.9 30.9 62.1 30.8Q62.3 30.6 63.5 30.15L62.8 30.25Q62.65 30.25 62.35 30.4L61.85 30.65L61.55 30.9M67.85,30.6L68.3 31.05L68.55 32.25L68.55 31.45L68.5 31L68.35 30.7L68.05 30.4L67.2 30.15L66.65 30.1L65.9 30.05L65.45 30.05L65.7 30.1L66.45 30.2L67.15 30.3L67.85 30.6M67.45,34.9L67.75 34.4L67.8 34.35L67.95 33.75L67.6 34.35L67.1 34.95L66.55 35.35L66 35.6L65.5 35.85L65 36L65.9 35.8L66.9 35.35L67.45 34.9" />
<radialGradient
id="RadialGradID_9110" gradientUnits="userSpaceOnUse" gradientTransform="matrix(-0.00733948, 0, 0, 0.00733948, 61.15, 29.25)" spreadMethod ="pad" cx="0" cy="0" r="819.2" fx="0" fy="0" >
<stop  offset="0"  style="stop-color:#FFFFFF;stop-opacity:1" />
<stop  offset="1"  style="stop-color:#FFFFFF;stop-opacity:0" />
</radialGradient>
<path style="fill:url(#RadialGradID_9110) " d="M63.5,30.65L63.05 30.8L62.3 31.15Q61.6 31.45 61.65 32.7L61.7 33.2Q61.85 33.75 62.2 33.9L62.4 34.05Q63.85 33.05 65.95 32.35L65.3 30.4L64.5 30.35L63.75 30.5L63.5 30.65" />
</g>
</svg>
