<?xml version="1.0" encoding="utf-8"?>
<svg version="1.1" id="Layer_1"
xmlns="http://www.w3.org/2000/svg"
xmlns:xlink="http://www.w3.org/1999/xlink"
xmlns:author="http://www.sothink.com"
width="21px" height="5px"
xml:space="preserve">
<g id="98" transform="matrix(1, 0, 0, 1, -60.25, -29.9)">
<path style="fill:#000000;fill-opacity:1" d="M60.45,30.8Q60.55 30.55 61.2 30.3L62.9 29.95L64.6 29.95L65.85 30L66.1 30L66.15 30L66.3 30.05Q68 30.2 68.85 30.95L69 31.05L69.4 31.3L70.75 31.35L70.75 32.2L69.9 32.2L69.35 32.2Q69.15 32.25 69.1 32.45L68.8 33.1Q68.15 34.55 66.5 34.7L65.4 34.7L64.65 34.7L64 34.65L63.45 34.6L62.65 34.45L62.55 34.45L62.35 34.4Q61.8 34.2 61.5 33.8L60.95 32.9L60.65 32.3L60.4 32.2L60.25 31.95L60.25 31.65L60.3 31.3L60.35 31.15L60.45 30.8M66.6,30.45L66.15 30.4L63.65 30.3Q62.2 30.35 61.8 30.65Q61.4 30.9 61.35 31.2L61.3 31.6Q61.25 32.45 61.55 33.05Q61.95 33.9 63.65 34.2L64.35 34.3L64.65 34.35L64.9 34.35L66.45 34.2Q67.45 34 67.9 33.6L67.95 33.55L68.2 33.2L68.65 31.8Q68.6 30.95 67.3 30.6L66.6 30.45" />
<radialGradient
id="RadialGradID_9173" gradientUnits="userSpaceOnUse" gradientTransform="matrix(-0.00283813, 0, 0, 0.00283813, 70.1, 30.15)" spreadMethod ="pad" cx="0" cy="0" r="819.2" fx="0" fy="0" >
<stop  offset="0"  style="stop-color:#FFFFFF;stop-opacity:0.972549" />
<stop  offset="1"  style="stop-color:#FFFFFF;stop-opacity:0" />
</radialGradient>
<path style="fill:url(#RadialGradID_9173) " d="M70.25,31.6L69.25 31.55L69.15 31.45L69.2 31.4L70.25 31.45L70.25 31.6" />
<radialGradient
id="RadialGradID_9174" gradientUnits="userSpaceOnUse" gradientTransform="matrix(0.00332642, 0, 0, 0.00332642, 62.3, 33.35)" spreadMethod ="pad" cx="0" cy="0" r="819.2" fx="0" fy="0" >
<stop  offset="0"  style="stop-color:#FFFFFF;stop-opacity:0.972549" />
<stop  offset="1"  style="stop-color:#FFFFFF;stop-opacity:0" />
</radialGradient>
<path style="fill:url(#RadialGradID_9174) " d="M61.05,31.35L61.05 32.05L61.15 32.95L61.35 33.45L61.6 33.8Q62.05 34.3 63.5 34.35L63.55 34.35L62.8 34.15Q62.05 33.9 61.7 33.45Q61.3 33 61.1 31.25L61.05 31.35" />
<radialGradient
id="RadialGradID_9175" gradientUnits="userSpaceOnUse" gradientTransform="matrix(0.00610352, 0, 0, 0.00610352, 62.2, 29.8)" spreadMethod ="pad" cx="0" cy="0" r="819.2" fx="0" fy="0" >
<stop  offset="0"  style="stop-color:#FFFFFF;stop-opacity:0.972549" />
<stop  offset="1"  style="stop-color:#FFFFFF;stop-opacity:0" />
</radialGradient>
<path style="fill:url(#RadialGradID_9175) " d="M64.8,30.05L63.95 30.05L62.85 30.1L61.95 30.2L61.5 30.3L61.1 30.5L60.8 30.75L60.75 30.9L61.5 30.55L61.5 30.5L61.7 30.45L61.9 30.4L62.6 30.25L63.35 30.15L64.7 30.15L64.75 30.15L64.8 30.05" />
<radialGradient
id="RadialGradID_9176" gradientUnits="userSpaceOnUse" gradientTransform="matrix(0.00669861, 0, 0, 0.00669861, 67.35, 30.05)" spreadMethod ="pad" cx="0" cy="0" r="819.2" fx="0" fy="0" >
<stop  offset="0"  style="stop-color:#FFFFFF;stop-opacity:0.972549" />
<stop  offset="1"  style="stop-color:#FFFFFF;stop-opacity:0" />
</radialGradient>
<path style="fill:url(#RadialGradID_9176) " d="M64.75,30.15L65.6 30.2L65.7 30.2L67.45 30.5Q68.35 30.7 68.7 31.4L68.75 31.3L68.55 30.9L68.45 30.8L68.1 30.6L67.35 30.35L66.65 30.2L66.2 30.15L66.1 30.15L66.05 30.15L65.85 30.15L65.5 30.1L64.9 30.05L64.8 30.05L64.75 30.15" />
<radialGradient
id="RadialGradID_9177" gradientUnits="userSpaceOnUse" gradientTransform="matrix(0.000732422, 0.00257874, -0.00257874, 0.000732422, 67.5, 34)" spreadMethod ="pad" cx="0" cy="0" r="819.2" fx="0" fy="0" >
<stop  offset="0"  style="stop-color:#FFFFFF;stop-opacity:0.972549" />
<stop  offset="1"  style="stop-color:#FFFFFF;stop-opacity:0" />
</radialGradient>
<path style="fill:url(#RadialGradID_9177) " d="M67.85,34.05L68.05 33.85L68.1 33.75L68.1 33.8Q68.65 33.25 68.85 32.3L68.45 33L68.3 33.35L68.1 33.55L67.9 33.75L67.6 34L67.1 34.2L66.55 34.35L65.75 34.45L65.9 34.45L65.65 34.45L66.7 34.5L67.6 34.25L67.85 34.05" />
<path style="fill:#000000;fill-opacity:1" d="M79.5,30.35L80.2 30.95L80.3 31.15L80.35 31.3L80.35 31.65L80.35 31.95L80.2 32.2L79.95 32.3Q79.85 32.35 79.7 32.9L79.2 33.85Q78.85 34.25 78.5 34.35L78.05 34.45L78 34.45L77.2 34.6L76.65 34.65L75.95 34.7L75.25 34.7L74.15 34.7Q72.45 34.55 71.85 33.1L71.55 32.45Q71.45 32.25 71.25 32.2L70.75 32.2L69.85 32.2L69.85 31.35L71.25 31.3L71.6 31.05L71.75 30.95Q72.65 30.15 74.5 30L75.8 30L75.95 30L77.25 30Q78.75 30 79.5 30.35M76.95,30.3L74.5 30.4L74 30.45L73.3 30.6Q72 30.95 72 31.8Q71.95 32.55 72.4 33.2L72.65 33.55L72.75 33.6Q73.15 34 74.2 34.2L75.75 34.35L76 34.35L76.25 34.3L77 34.2Q78.65 33.9 79.1 33.05L79.3 31.6L79.3 31.2L78.8 30.65Q78.4 30.35 76.95 30.3" />
<radialGradient
id="RadialGradID_9178" gradientUnits="userSpaceOnUse" gradientTransform="matrix(-0.00332642, 0, 0, 0.00332642, 78.3, 33.35)" spreadMethod ="pad" cx="0" cy="0" r="819.2" fx="0" fy="0" >
<stop  offset="0"  style="stop-color:#FFFFFF;stop-opacity:0.972549" />
<stop  offset="1"  style="stop-color:#FFFFFF;stop-opacity:0" />
</radialGradient>
<path style="fill:url(#RadialGradID_9178) " d="M79.55,31.35L79.6 32.05L79.45 32.95L79.3 33.45L79 33.8Q78.55 34.3 77.15 34.35L77.1 34.35L77.8 34.15Q78.55 33.9 78.95 33.45Q79.35 33 79.5 31.25L79.55 31.35" />
<radialGradient
id="RadialGradID_9179" gradientUnits="userSpaceOnUse" gradientTransform="matrix(-0.00610352, 0, 0, 0.00610352, 78.4, 29.8)" spreadMethod ="pad" cx="0" cy="0" r="819.2" fx="0" fy="0" >
<stop  offset="0"  style="stop-color:#FFFFFF;stop-opacity:0.972549" />
<stop  offset="1"  style="stop-color:#FFFFFF;stop-opacity:0" />
</radialGradient>
<path style="fill:url(#RadialGradID_9179) " d="M75.85,30.05L76.7 30.05L77.8 30.1L78.65 30.2L79.15 30.3L79.55 30.5L79.85 30.75L79.85 30.9L79.15 30.55L79.1 30.5L78.9 30.45L78.7 30.4L78 30.25L77.25 30.15L75.95 30.15L75.9 30.15L75.85 30.05" />
<radialGradient
id="RadialGradID_9180" gradientUnits="userSpaceOnUse" gradientTransform="matrix(-0.00669861, 0, 0, 0.00669861, 73.25, 30.05)" spreadMethod ="pad" cx="0" cy="0" r="819.2" fx="0" fy="0" >
<stop  offset="0"  style="stop-color:#FFFFFF;stop-opacity:0.972549" />
<stop  offset="1"  style="stop-color:#FFFFFF;stop-opacity:0" />
</radialGradient>
<path style="fill:url(#RadialGradID_9180) " d="M75.9,30.15L75 30.2L74.9 30.2L73.2 30.5Q72.3 30.7 71.9 31.4L71.9 31.3L72.05 30.9L72.15 30.8Q72.35 30.65 72.5 30.6Q72.9 30.4 73.3 30.35L74 30.2L74.4 30.15L74.55 30.15L74.6 30.15L74.75 30.15L75.15 30.1L75.75 30.05L75.85 30.05L75.9 30.15" />
<radialGradient
id="RadialGradID_9181" gradientUnits="userSpaceOnUse" gradientTransform="matrix(-0.000732422, 0.00257874, 0.00257874, 0.000732422, 73.15, 34)" spreadMethod ="pad" cx="0" cy="0" r="819.2" fx="0" fy="0" >
<stop  offset="0"  style="stop-color:#FFFFFF;stop-opacity:0.972549" />
<stop  offset="1"  style="stop-color:#FFFFFF;stop-opacity:0" />
</radialGradient>
<path style="fill:url(#RadialGradID_9181) " d="M72.75,34.05L72.55 33.85L72.5 33.75L72.55 33.8Q72 33.25 71.8 32.3L72.15 33L72.35 33.35L72.5 33.55L72.7 33.75L73.05 34L73.5 34.2L74.05 34.35L74.85 34.45L74.7 34.45L75 34.45L73.95 34.5L73.05 34.25L72.75 34.05" />
<radialGradient
id="RadialGradID_9182" gradientUnits="userSpaceOnUse" gradientTransform="matrix(0.00320435, 0, 0, 0.00283813, 70.4, 30.15)" spreadMethod ="pad" cx="0" cy="0" r="819.2" fx="0" fy="0" >
<stop  offset="0"  style="stop-color:#FFFFFF;stop-opacity:0.972549" />
<stop  offset="1"  style="stop-color:#FFFFFF;stop-opacity:0" />
</radialGradient>
<path style="fill:url(#RadialGradID_9182) " d="M71.5,31.45L71.35 31.55L69.85 31.6L69.85 31.45L71.45 31.4L71.5 31.45" />
<radialGradient
id="RadialGradID_9183" gradientUnits="userSpaceOnUse" gradientTransform="matrix(0.00733948, 0, 0, 0.00733948, 79.45, 28.55)" spreadMethod ="pad" cx="0" cy="0" r="819.2" fx="0" fy="0" >
<stop  offset="0"  style="stop-color:#FFFFFF;stop-opacity:1" />
<stop  offset="1"  style="stop-color:#FFFFFF;stop-opacity:0" />
</radialGradient>
<path style="fill:url(#RadialGradID_9183) " d="M77.45,32.7L74.65 31.65L74.4 30.55L76.85 30.35L78.55 30.6Q79.15 30.9 79.1 31.65L79 32.9Q78.9 33.45 78.55 33.25L77.45 32.7" />
<radialGradient
id="RadialGradID_9184" gradientUnits="userSpaceOnUse" gradientTransform="matrix(-0.00733948, 0, 0, 0.00733948, 61.05, 28.55)" spreadMethod ="pad" cx="0" cy="0" r="819.2" fx="0" fy="0" >
<stop  offset="0"  style="stop-color:#FFFFFF;stop-opacity:1" />
<stop  offset="1"  style="stop-color:#FFFFFF;stop-opacity:0" />
</radialGradient>
<path style="fill:url(#RadialGradID_9184) " d="M63.05,32.7Q63.8 32.35 65.85 31.65L66.1 30.55L63.65 30.35L61.95 30.6Q61.35 30.9 61.4 31.65L61.5 32.9Q61.6 33.45 61.95 33.25L63.05 32.7" />
</g>
</svg>
