<?xml version="1.0" encoding="utf-8"?>
<svg version="1.1" id="Layer_1"
xmlns="http://www.w3.org/2000/svg"
xmlns:xlink="http://www.w3.org/1999/xlink"
xmlns:author="http://www.sothink.com"
width="22px" height="7px"
xml:space="preserve">
<g id="91" transform="matrix(1, 0, 0, 1, -59.8, -29.35)">
<linearGradient
id="LinearGradID_9092" gradientUnits="userSpaceOnUse" gradientTransform="matrix(-6.10352e-05, 0.00218201, -0.00421143, -0.000183105, 76.4, 31.3)" spreadMethod ="pad" x1="-819.2" y1="0" x2="819.2" y2="0" >
<stop  offset="0" style="stop-color:#0A0A07;stop-opacity:1" />
<stop  offset="0.454902" style="stop-color:#61654E;stop-opacity:1" />
<stop  offset="1" style="stop-color:#B5BAA3;stop-opacity:1" />
</linearGradient>
<path style="fill:url(#LinearGradID_9092) " d="M78.15,29.75L79.45 30.7L79.55 30.85L79.55 30.8L81 30.5L81 31.15L79.95 31.95L79.75 33.6Q79.5 34.7 78.8 35.4L78.15 35.85L76.4 36.2Q74 36.25 73 35.7Q71.5 34.8 71.25 32.7L71.2 31.7L70.35 31.65L70.35 30.85L71.15 30.8L71.2 30.75Q72.2 29.5 73.8 29.45L76 29.35L78.15 29.75M76.75,30L72.9 30.25Q71.65 30.8 71.75 32.2L72 33.55Q72.45 35.45 74.75 35.7Q78.85 36.1 79.35 33.2L79.35 32.9L79.3 31.95L78.9 31.05L78.6 30.7L78.15 30.4L76.75 30" />
<radialGradient
id="RadialGradID_9093" gradientUnits="userSpaceOnUse" gradientTransform="matrix(0.00587463, 0, 0, 0.00587463, 78.25, 34.05)" spreadMethod ="pad" cx="0" cy="0" r="819.2" fx="0" fy="0" >
<stop  offset="0"  style="stop-color:#FFFFFF;stop-opacity:0.501961" />
<stop  offset="1"  style="stop-color:#FFFFFF;stop-opacity:0" />
</radialGradient>
<path style="fill:url(#RadialGradID_9093) " d="M79.1,31.85L79 33.65Q78.4 35.5 76.45 35.75Q74.5 35.95 72.4 34.35Q76.45 34.2 77.65 33.45L79 32.3L79.1 31.85" />
<radialGradient
id="RadialGradID_9094" gradientUnits="userSpaceOnUse" gradientTransform="matrix(0.00569153, 0, 0, 0.00569153, 71.55, 31.35)" spreadMethod ="pad" cx="0" cy="0" r="819.2" fx="0" fy="0" >
<stop  offset="0"  style="stop-color:#FFFFFF;stop-opacity:0.8" />
<stop  offset="1"  style="stop-color:#FFFFFF;stop-opacity:0" />
</radialGradient>
<path style="fill:url(#RadialGradID_9094) " d="M73.55,30.2L76.35 30.05L73.8 32.65L72.2 34.25L72.05 31.6Q72.1 30.45 73.55 30.2" />
<linearGradient
id="LinearGradID_9095" gradientUnits="userSpaceOnUse" gradientTransform="matrix(0.000518799, 0.000793457, -0.000488281, 0.000320435, 79.55, 31.15)" spreadMethod ="pad" x1="-819.2" y1="0" x2="819.2" y2="0" >
<stop  offset="0.211765" style="stop-color:#FBFBFB;stop-opacity:1" />
<stop  offset="1" style="stop-color:#71755E;stop-opacity:1" />
</linearGradient>
<path style="fill:url(#LinearGradID_9095) " d="M80.3,31.25L79.75 32L79.5 30.95Q80.2 30.9 80.3 31.25" />
<linearGradient
id="LinearGradID_9096" gradientUnits="userSpaceOnUse" gradientTransform="matrix(0.00453186, 0.000137329, -3.05176e-05, 0.00088501, 75.5, 29.85)" spreadMethod ="pad" x1="-819.2" y1="0" x2="819.2" y2="0" >
<stop  offset="0" style="stop-color:#0A0A07;stop-opacity:1" />
<stop  offset="0.462745" style="stop-color:#FBFBFB;stop-opacity:1" />
<stop  offset="1" style="stop-color:#0A0A07;stop-opacity:1" />
</linearGradient>
<path style="fill:url(#LinearGradID_9096) " d="M79,30.85Q78.3 30 76.3 29.75L76.1 29.75Q73.3 29.4 71.95 30.7L71.75 30.5Q73.6 29.05 76.25 29.45Q78.25 29.6 79.3 30.65L79 30.85" />
<linearGradient
id="LinearGradID_9097" gradientUnits="userSpaceOnUse" gradientTransform="matrix(0.00172424, -0.00135803, 0.000534058, 0.000671387, 78.25, 34.8)" spreadMethod ="pad" x1="-819.2" y1="0" x2="819.2" y2="0" >
<stop  offset="0" style="stop-color:#B5BAA3;stop-opacity:1" />
<stop  offset="0.25098" style="stop-color:#EDEEEA;stop-opacity:1" />
<stop  offset="0.462745" style="stop-color:#FBFBFB;stop-opacity:1" />
<stop  offset="0.737255" style="stop-color:#F1F2EF;stop-opacity:1" />
<stop  offset="1" style="stop-color:#B5BAA3;stop-opacity:1" />
</linearGradient>
<path style="fill:url(#LinearGradID_9097) " d="M79.5,32.9L79.8 32.85Q79.7 35.85 76.4 36.1L76.4 35.8Q79.4 35.75 79.5 32.9" />
<linearGradient
id="LinearGradID_9098" gradientUnits="userSpaceOnUse" gradientTransform="matrix(0.00152588, 0.00183105, -0.000640869, 0.000534058, 72.65, 34.45)" spreadMethod ="pad" x1="-819.2" y1="0" x2="819.2" y2="0" >
<stop  offset="0" style="stop-color:#B5BAA3;stop-opacity:1" />
<stop  offset="0.25098" style="stop-color:#EDEEEA;stop-opacity:1" />
<stop  offset="0.462745" style="stop-color:#FBFBFB;stop-opacity:1" />
<stop  offset="0.737255" style="stop-color:#F1F2EF;stop-opacity:1" />
<stop  offset="1" style="stop-color:#B5BAA3;stop-opacity:1" />
</linearGradient>
<path style="fill:url(#LinearGradID_9098) " d="M74.65,35.7L74.6 36.05Q71.45 35.5 71.35 32.5L71.65 32.55Q71.85 35.35 74.65 35.7" />
<linearGradient
id="LinearGradID_9099" gradientUnits="userSpaceOnUse" gradientTransform="matrix(6.10352e-05, 0.00218201, 0.00421143, -0.000183105, 64.4, 31.3)" spreadMethod ="pad" x1="-819.2" y1="0" x2="819.2" y2="0" >
<stop  offset="0" style="stop-color:#0A0A07;stop-opacity:1" />
<stop  offset="0.454902" style="stop-color:#61654E;stop-opacity:1" />
<stop  offset="1" style="stop-color:#B5BAA3;stop-opacity:1" />
</linearGradient>
<path style="fill:url(#LinearGradID_9099) " d="M64.05,30L67.9 30.25Q69.15 30.8 69.05 32.2L68.8 33.55Q68.35 35.45 66.05 35.7Q61.95 36.1 61.45 33.2L61.45 32.9Q61.4 32.4 61.5 31.95L61.9 31.05L62.2 30.7L62.65 30.4L64.05 30M62.65,29.75Q61.85 30.1 61.35 30.7L61.25 30.85L61.25 30.8L59.8 30.5L59.8 31.15L60.85 31.95Q60.8 32.45 61.05 33.6Q61.3 34.7 62 35.4L62.65 35.85L64.4 36.2Q66.8 36.25 67.8 35.7Q69.3 34.8 69.55 32.7L69.6 31.7L70.45 31.65L70.45 30.85L69.65 30.8L69.6 30.75Q68.6 29.5 67 29.45L64.8 29.35L62.65 29.75" />
<radialGradient
id="RadialGradID_9100" gradientUnits="userSpaceOnUse" gradientTransform="matrix(-0.00587463, 0, 0, 0.00587463, 62.55, 34.05)" spreadMethod ="pad" cx="0" cy="0" r="819.2" fx="0" fy="0" >
<stop  offset="0"  style="stop-color:#FFFFFF;stop-opacity:0.501961" />
<stop  offset="1"  style="stop-color:#FFFFFF;stop-opacity:0" />
</radialGradient>
<path style="fill:url(#RadialGradID_9100) " d="M61.7,31.85L61.8 33.65Q62.4 35.5 64.35 35.75Q66.3 35.95 68.4 34.35Q64.35 34.2 63.15 33.45Q61.95 32.7 61.8 32.3L61.7 31.85" />
<radialGradient
id="RadialGradID_9101" gradientUnits="userSpaceOnUse" gradientTransform="matrix(0.00569153, 0, 0, 0.00569153, 61.9, 31.4)" spreadMethod ="pad" cx="0" cy="0" r="819.2" fx="0" fy="0" >
<stop  offset="0"  style="stop-color:#FFFFFF;stop-opacity:0.8" />
<stop  offset="1"  style="stop-color:#FFFFFF;stop-opacity:0" />
</radialGradient>
<path style="fill:url(#RadialGradID_9101) " d="M61.75,31.5Q62.2 30.4 63.8 30.15L66.7 30.1L64.15 32.7Q62.95 33.95 62.35 34Q61.3 32.6 61.75 31.5" />
<linearGradient
id="LinearGradID_9102" gradientUnits="userSpaceOnUse" gradientTransform="matrix(-0.000518799, 0.000793457, 0.000488281, 0.000320435, 61.25, 31.15)" spreadMethod ="pad" x1="-819.2" y1="0" x2="819.2" y2="0" >
<stop  offset="0.211765" style="stop-color:#FBFBFB;stop-opacity:1" />
<stop  offset="1" style="stop-color:#71755E;stop-opacity:1" />
</linearGradient>
<path style="fill:url(#LinearGradID_9102) " d="M60.5,31.25Q60.45 31.55 61.05 32L61.3 30.95Q60.6 30.9 60.5 31.25" />
<linearGradient
id="LinearGradID_9103" gradientUnits="userSpaceOnUse" gradientTransform="matrix(-0.00453186, 0.000137329, 3.05176e-05, 0.00088501, 65.3, 29.85)" spreadMethod ="pad" x1="-819.2" y1="0" x2="819.2" y2="0" >
<stop  offset="0" style="stop-color:#0A0A07;stop-opacity:1" />
<stop  offset="0.462745" style="stop-color:#FBFBFB;stop-opacity:1" />
<stop  offset="1" style="stop-color:#0A0A07;stop-opacity:1" />
</linearGradient>
<path style="fill:url(#LinearGradID_9103) " d="M61.8,30.85Q62.5 30 64.5 29.75L64.7 29.75Q67.5 29.4 68.85 30.7L69.05 30.5Q67.2 29.05 64.55 29.45Q62.55 29.6 61.5 30.65L61.8 30.85" />
<linearGradient
id="LinearGradID_9104" gradientUnits="userSpaceOnUse" gradientTransform="matrix(-0.00172424, -0.00135803, -0.000534058, 0.000671387, 62.55, 34.8)" spreadMethod ="pad" x1="-819.2" y1="0" x2="819.2" y2="0" >
<stop  offset="0" style="stop-color:#B5BAA3;stop-opacity:1" />
<stop  offset="0.25098" style="stop-color:#EDEEEA;stop-opacity:1" />
<stop  offset="0.462745" style="stop-color:#FBFBFB;stop-opacity:1" />
<stop  offset="0.737255" style="stop-color:#F1F2EF;stop-opacity:1" />
<stop  offset="1" style="stop-color:#B5BAA3;stop-opacity:1" />
</linearGradient>
<path style="fill:url(#LinearGradID_9104) " d="M61.3,32.9L61 32.85Q61.1 35.85 64.4 36.1L64.4 35.8Q61.4 35.75 61.3 32.9" />
<linearGradient
id="LinearGradID_9105" gradientUnits="userSpaceOnUse" gradientTransform="matrix(-0.00152588, 0.00183105, 0.000640869, 0.000534058, 68.15, 34.45)" spreadMethod ="pad" x1="-819.2" y1="0" x2="819.2" y2="0" >
<stop  offset="0" style="stop-color:#B5BAA3;stop-opacity:1" />
<stop  offset="0.25098" style="stop-color:#EDEEEA;stop-opacity:1" />
<stop  offset="0.462745" style="stop-color:#FBFBFB;stop-opacity:1" />
<stop  offset="0.737255" style="stop-color:#F1F2EF;stop-opacity:1" />
<stop  offset="1" style="stop-color:#B5BAA3;stop-opacity:1" />
</linearGradient>
<path style="fill:url(#LinearGradID_9105) " d="M66.15,35.7L66.2 36.05Q69.35 35.5 69.45 32.5L69.15 32.55Q68.95 35.35 66.15 35.7" />
<linearGradient
id="LinearGradID_9106" gradientUnits="userSpaceOnUse" gradientTransform="matrix(0.00115967, -6.10352e-05, 1.52588e-05, 0.000274658, 70.4, 31.1)" spreadMethod ="pad" x1="-819.2" y1="0" x2="819.2" y2="0" >
<stop  offset="0" style="stop-color:#6E725B;stop-opacity:1" />
<stop  offset="0.462745" style="stop-color:#FBFBFB;stop-opacity:1" />
<stop  offset="0.988235" style="stop-color:#686C55;stop-opacity:1" />
</linearGradient>
<path style="fill:url(#LinearGradID_9106) " d="M71.45,31.3L69.25 31.3L69.25 30.95L71.45 30.95L71.45 31.3" />
</g>
</svg>
