<?xml version="1.0" encoding="utf-8"?>
<svg version="1.1" id="Layer_1"
xmlns="http://www.w3.org/2000/svg"
xmlns:xlink="http://www.w3.org/1999/xlink"
xmlns:author="http://www.sothink.com"
width="21px" height="5px"
xml:space="preserve">
<g id="100" transform="matrix(1, 0, 0, 1, -60.25, -30.15)">
<path style="fill:#1B2126;fill-opacity:1" d="M78.7,30.45L78.55 30.4L78.85 30.5L78.9 30.5L79.25 30.75L79.45 31.2L79.4 31.2L79.45 31.55L79.45 31.65L79.45 31.85Q79.3 32.95 78.2 33.85Q77.2 34.65 76.2 34.8L75.1 34.85Q74.25 34.85 73.55 34.45L72.8 33.9L72.55 33.65L72.15 33Q71.85 32.5 71.85 32.05L71.85 31.45L71.2 31.15L70 30.95L69.9 30.9L69.85 30.8L70.15 30.8L71.3 31L71.65 31.25L71.9 31.25L72 31.15L72 31.1L72 31.05L72.1 30.9L72.3 30.8L72.5 30.75L72.3 30.9L72.2 31L72 31.55Q72 32.25 72.45 32.9L73.3 33.9Q73.65 34.25 74.15 34.45L75.2 34.7L76.1 34.65L76.55 34.55L77 34.4L77.3 34.25L77.7 34L78.4 33.45L79.05 32.65L79.3 31.85L79.3 31.8L79.2 31.15L78.7 30.65L78.9 30.75L78.75 30.65L78.85 30.65L79.05 30.7L78.85 30.55L78.8 30.5L78.85 30.55L78.7 30.45" />
<path style="fill:#2F3437;fill-opacity:1" d="M78.8,30.5L78.85 30.55L78.8 30.5M73.75,30.4L74.6 30.35L75 30.3L75.85 30.3L77.45 30.35L78.7 30.45L78.85 30.55L79.05 30.7L78.85 30.65L78.75 30.65L78.9 30.75L78.7 30.65L77.25 30.45L75.6 30.4L75.05 30.4L73.55 30.55Q72.7 30.65 72.3 30.9L72.5 30.75L72.3 30.8Q72.95 30.45 73.75 30.4" />
<path style="fill:#B6BABD;fill-opacity:1" d="M79.9,31.25L80.25 31.35L80.25 31.4L80.15 31.4L79.5 31.35L79.6 31.25L79.9 31.25" />
<path style="fill:#4F4F4F;fill-opacity:1" d="M80.2,31.6L79.45 31.65L79.45 31.55L79.4 31.2L79.45 31.2L79.65 31.2L80.3 31.3L80.2 31.6M79.6,31.25L79.5 31.35L80.15 31.4L80.25 31.4L80.25 31.35L79.9 31.25L79.6 31.25" />
<path style="fill:#63686B;fill-opacity:1" d="M73.55,30.55L75.05 30.4L75.6 30.4L77.25 30.45L78.7 30.65L79.2 31.15L79.3 31.8L79.3 31.85L79.05 32.65L78.4 33.45L77.7 34L77.3 34.25L77 34.4L76.55 34.55L76.1 34.65L75.2 34.7L74.15 34.45Q73.65 34.25 73.3 33.9L72.45 32.9Q72 32.25 72 31.55L72.2 31L72.3 30.9Q72.7 30.65 73.55 30.55M72.3,30.8L72.1 30.9L72.25 30.75L72.3 30.7L74 30.35L75.55 30.25L77.1 30.25L78.7 30.45L77.45 30.35L75.85 30.3L75 30.3L74.6 30.35L73.75 30.4Q72.95 30.45 72.3 30.8M78.6,30.85L78.5 30.85L76.5 30.5L75.15 30.55L73.45 30.65Q71.9 31.05 72.45 32.4L72.55 32.6L73.2 33.5Q73.65 34.05 74.75 34.4Q77 34.65 78.5 33Q79.5 31.5 78.65 30.9L78.6 30.85" />
<path style="fill:#292E34;fill-opacity:1" d="M80.3,31.3L80.4 31.35L80.3 31.8L79.45 31.85L79.45 31.65L80.2 31.6L80.3 31.3" />
<path style="fill:#5D5D5D;fill-opacity:1" d="M72,31.1L72 31.15L71.9 31.25L71.65 31.25L71.3 31L70.15 30.8L69.85 30.8L69.9 30.7L70 30.65L70.85 30.65Q71.25 30.7 71.45 30.9Q71.65 31.15 71.95 31.15L71.95 31.1L72 31.1M71,30.75L70.45 30.7L70 30.7L70.1 30.75L70.35 30.75L71 30.8L71 30.75" />
<path style="fill:#BDBDBD;fill-opacity:1" d="M71,30.8L70.35 30.75L70.1 30.75L70 30.7L70.45 30.7L71 30.75L71 30.8" />
<path style="fill:#A6A6A6;fill-opacity:1" d="M72.3,30.7L72.45 30.6L72.9 30.4L75.2 30.15L76.95 30.2L78.35 30.35L78.55 30.4L78.7 30.45L77.1 30.25L75.55 30.25L74 30.35L72.3 30.7" />
<radialGradient
id="RadialGradID_9195" gradientUnits="userSpaceOnUse" gradientTransform="matrix(0.00520325, 0, 0, 0.00396729, 75.5, 30.15)" spreadMethod ="pad" cx="0" cy="0" r="819.2" fx="0" fy="0" >
<stop  offset="0"  style="stop-color:#FFFFFF;stop-opacity:0.972549" />
<stop  offset="1"  style="stop-color:#FFFFFF;stop-opacity:0" />
</radialGradient>
<path style="fill:url(#RadialGradID_9195) " d="M78.5,30.55L78.75 30.6L79.05 30.8L77.95 30.55L77.4 30.45L76.7 30.4L74 30.45L73 30.6L73 30.55L73.8 30.35L75.6 30.25L75.95 30.25L77.95 30.4L78.45 30.5L78.5 30.55" />
<radialGradient
id="RadialGradID_9196" gradientUnits="userSpaceOnUse" gradientTransform="matrix(0.00442505, 0, 0, 0.00442505, 77.65, 33.2)" spreadMethod ="pad" cx="0" cy="0" r="819.2" fx="0" fy="0" >
<stop  offset="0"  style="stop-color:#FFFFFF;stop-opacity:0.972549" />
<stop  offset="1"  style="stop-color:#FFFFFF;stop-opacity:0" />
</radialGradient>
<path style="fill:url(#RadialGradID_9196) " d="M79.4,31.65L79.4 31.85L79.1 32.75L78.2 33.75Q77.6 34.3 76.8 34.5L75.7 34.75L75.35 34.7L75 34.6L75.1 34.6Q76.85 34.7 78.1 33.65Q79.3 32.55 79.35 31.65L79.4 31.65" />
<radialGradient
id="RadialGradID_9197" gradientUnits="userSpaceOnUse" gradientTransform="matrix(0.00296021, 0, 0, 0.00296021, 72, 32.75)" spreadMethod ="pad" cx="0" cy="0" r="819.2" fx="0" fy="0" >
<stop  offset="0"  style="stop-color:#FFFFFF;stop-opacity:0.972549" />
<stop  offset="1"  style="stop-color:#FFFFFF;stop-opacity:0" />
</radialGradient>
<path style="fill:url(#RadialGradID_9197) " d="M74,34.35L73.85 34.3Q72.85 33.8 72.4 33Q71.9 32.2 71.95 31.75L72.2 31.05L72.3 30.95L72.35 30.95Q72.55 30.8 72.8 30.75L72.85 30.75Q72.4 30.95 72.3 31.25L72.3 31.2L72.25 31.25Q72.1 31.65 72.2 32.1L72.8 33.2L73.35 33.85L74 34.35" />
<path style="fill:#1B2126;fill-opacity:1" d="M70.45,30.8L70.45 30.95Q69.7 30.9 69.5 31.15L68.85 31.45L68.85 32.05L68.55 33L68.15 33.65L67.9 33.9L67.1 34.45Q66.45 34.85 65.6 34.85L64.5 34.8Q63.45 34.65 62.45 33.85Q61.35 32.95 61.25 31.85L61.2 31.65L61.2 31.55L61.25 31.2L61.2 31.2Q61.25 30.9 61.45 30.75L61.75 30.5L61.8 30.5L62.1 30.4L62 30.45L61.85 30.55L61.85 30.5L61.8 30.55L61.6 30.7L61.8 30.65L61.9 30.65L61.75 30.75L62 30.65L61.5 31.15Q61.35 31.35 61.35 31.8L61.35 31.85L61.65 32.65L62.3 33.45L63 34L63.35 34.25L63.7 34.4L64.1 34.55L64.55 34.65L65.5 34.7L66.55 34.45L67.4 33.9L68.25 32.9L68.7 31.55L68.45 31L68.35 30.9L68.15 30.75L68.35 30.8L68.6 30.9L68.65 31.05L68.7 31.1L68.7 31.15L68.75 31.25L69 31.25L69.35 31L70.45 30.8" />
<path style="fill:#2F3437;fill-opacity:1" d="M62,30.45L63.2 30.35L64.8 30.3L65.7 30.3L66.1 30.35L66.9 30.4L68.35 30.8L68.15 30.75L68.35 30.9L67.15 30.55L65.65 30.4L65.1 30.4L63.4 30.45L62 30.65L61.75 30.75L61.9 30.65L61.8 30.65L61.6 30.7L61.8 30.55L61.85 30.5L61.85 30.55L62 30.45" />
<path style="fill:#B6BABD;fill-opacity:1" d="M60.45,31.35L60.75 31.25L61.05 31.25L61.15 31.35L60.5 31.4L60.45 31.4L60.45 31.35" />
<path style="fill:#4F4F4F;fill-opacity:1" d="M61.2,31.65L60.45 31.6Q60.35 31.55 60.4 31.3L61.05 31.2L61.2 31.2L61.25 31.2L61.2 31.55L61.2 31.65M60.45,31.4L60.5 31.4L61.15 31.35L61.05 31.25L60.75 31.25L60.45 31.35L60.45 31.4" />
<path style="fill:#63686B;fill-opacity:1" d="M63.6,30.25L65.1 30.25L66.65 30.35L68.35 30.7L68.45 30.75L68.6 30.9L68.35 30.8L66.9 30.4L66.1 30.35L65.7 30.3L64.8 30.3L63.2 30.35L62 30.45L63.6 30.25M62,30.65L63.4 30.45L65.1 30.4L65.65 30.4L67.15 30.55L68.35 30.9L68.45 31L68.7 31.55L68.25 32.9L67.4 33.9L66.55 34.45L65.5 34.7L64.55 34.65L64.1 34.55L63.7 34.4L63.35 34.25L63 34L62.3 33.45L61.65 32.65L61.35 31.85L61.35 31.8Q61.35 31.35 61.5 31.15L62 30.65M62,30.9Q61.15 31.5 62.2 33Q63.7 34.65 65.95 34.4Q67 34.05 67.5 33.5L68.15 32.6L68.25 32.4Q68.75 31 67.2 30.65L65.55 30.55L64.15 30.5Q62.8 30.5 62.15 30.85L62 30.9" />
<path style="fill:#292E34;fill-opacity:1" d="M60.45,31.6L61.2 31.65L61.25 31.85L60.35 31.8Q60.2 31.7 60.3 31.35L60.4 31.3Q60.35 31.55 60.45 31.6" />
<path style="fill:#5D5D5D;fill-opacity:1" d="M69.35,31L69 31.25L68.75 31.25L68.7 31.15L68.7 31.1L68.7 31.15L69.25 30.9Q69.4 30.7 69.85 30.65L70.45 30.65L70.45 30.7L70.2 30.7L69.7 30.75L69.65 30.75L69.65 30.8L70.3 30.75L70.45 30.75L70.45 30.8L69.35 31" />
<path style="fill:#BDBDBD;fill-opacity:1" d="M70.45,30.7L70.45 30.75L70.3 30.75L69.65 30.8L69.65 30.75L69.7 30.75L70.2 30.7L70.45 30.7" />
<path style="fill:#A6A6A6;fill-opacity:1" d="M62,30.45L62.1 30.4L62.3 30.35L63.7 30.2L65.45 30.15L67.8 30.4L68.2 30.6L68.25 30.6L68.35 30.7L66.65 30.35L65.1 30.25L63.6 30.25L62 30.45" />
<radialGradient
id="RadialGradID_9198" gradientUnits="userSpaceOnUse" gradientTransform="matrix(-0.00520325, 0, 0, 0.00396729, 65.2, 30.15)" spreadMethod ="pad" cx="0" cy="0" r="819.2" fx="0" fy="0" >
<stop  offset="0"  style="stop-color:#FFFFFF;stop-opacity:0.972549" />
<stop  offset="1"  style="stop-color:#FFFFFF;stop-opacity:0" />
</radialGradient>
<path style="fill:url(#RadialGradID_9198) " d="M62.15,30.55L61.95 30.6L61.6 30.8L62.75 30.55L63.3 30.45L64 30.4L66.7 30.45L67.7 30.6L67.65 30.55L66.9 30.35L65.05 30.25L64.7 30.25L62.75 30.4L62.2 30.5L62.15 30.55" />
<radialGradient
id="RadialGradID_9199" gradientUnits="userSpaceOnUse" gradientTransform="matrix(-0.00442505, 0, 0, 0.00442505, 63, 33.2)" spreadMethod ="pad" cx="0" cy="0" r="819.2" fx="0" fy="0" >
<stop  offset="0"  style="stop-color:#FFFFFF;stop-opacity:0.972549" />
<stop  offset="1"  style="stop-color:#FFFFFF;stop-opacity:0" />
</radialGradient>
<path style="fill:url(#RadialGradID_9199) " d="M61.3,31.85Q61.3 32.3 61.6 32.75L62.45 33.75Q63.1 34.3 63.85 34.5L65 34.75L65.3 34.7L65.7 34.6L65.55 34.6Q63.8 34.7 62.6 33.65Q61.4 32.55 61.3 31.65L61.3 31.85" />
<radialGradient
id="RadialGradID_9200" gradientUnits="userSpaceOnUse" gradientTransform="matrix(-0.00296021, 0, 0, 0.00296021, 68.7, 32.75)" spreadMethod ="pad" cx="0" cy="0" r="819.2" fx="0" fy="0" >
<stop  offset="0"  style="stop-color:#FFFFFF;stop-opacity:0.972549" />
<stop  offset="1"  style="stop-color:#FFFFFF;stop-opacity:0" />
</radialGradient>
<path style="fill:url(#RadialGradID_9200) " d="M66.65,34.35L66.8 34.3Q67.85 33.8 68.3 33L68.7 31.75L68.45 31.05L68.35 30.95L67.9 30.75L67.85 30.75L68.4 31.25L68.4 31.2L68.4 31.25L68.45 32.1L67.85 33.2L67.3 33.85L66.65 34.35" />
<radialGradient
id="RadialGradID_9201" gradientUnits="userSpaceOnUse" gradientTransform="matrix(0.00733948, 0, 0, 0.00733948, 79.25, 28.8)" spreadMethod ="pad" cx="0" cy="0" r="819.2" fx="0" fy="0" >
<stop  offset="0"  style="stop-color:#FFFFFF;stop-opacity:1" />
<stop  offset="1"  style="stop-color:#FFFFFF;stop-opacity:0" />
</radialGradient>
<path style="fill:url(#RadialGradID_9201) " d="M78.5,30.9Q79.1 31.15 79 31.85L79 31.9L78.7 32.6L78 33.3L77.25 32.95L74.45 31.9L74.2 30.8L76.65 30.6L78.5 30.9" />
<radialGradient
id="RadialGradID_9202" gradientUnits="userSpaceOnUse" gradientTransform="matrix(-0.00733948, 0, 0, 0.00733948, 61.4, 28.75)" spreadMethod ="pad" cx="0" cy="0" r="819.2" fx="0" fy="0" >
<stop  offset="0"  style="stop-color:#FFFFFF;stop-opacity:1" />
<stop  offset="1"  style="stop-color:#FFFFFF;stop-opacity:0" />
</radialGradient>
<path style="fill:url(#RadialGradID_9202) " d="M64,30.55L66.45 30.75L66.2 31.85L63.4 32.9L62.7 33.25Q62.2 33.1 61.95 32.55L61.7 31.85L61.7 31.8Q61.55 31.1 62.2 30.85L64 30.55" />
</g>
</svg>
