<?xml version="1.0" encoding="utf-8"?>
<svg version="1.1" id="Layer_1"
xmlns="http://www.w3.org/2000/svg"
xmlns:xlink="http://www.w3.org/1999/xlink"
xmlns:author="http://www.sothink.com"
width="22px" height="5px"
xml:space="preserve">
<g id="115" transform="matrix(1, 0, 0, 1, -59.1, -29.65)">
<path style="fill:#C8C9C4;fill-opacity:1" d="M79.65,31.15L79.75 31L79.85 30.85L80.05 30.7L80.15 30.45L80.15 30.4L80.05 30.25L80 30.2L80.7 30.15L80.75 30.25L80.5 30.25L80.35 30.45L80.2 30.75L80.15 30.85L79.75 31.15L79.65 31.2L79.65 31.15M59.1,30.25L59.15 30.15L60 30.2L60 30.25L59.85 30.4L59.85 30.45L60 30.7L60.25 30.85L60.45 31L60.5 31.15L60.55 31.2L60.35 31.15L59.9 30.85L59.8 30.75L59.6 30.45L59.4 30.25L59.1 30.25" />
<path style="fill:#6A4D45;fill-opacity:1" d="M80,30.2L78.9 30.3L78.8 30.3L78.75 30.25L80.6 30.1L80.65 30.1L80.7 30.15L80 30.2M61.6,30.3L60 30.2L59.15 30.15L59.2 30.1L59.3 30.1L61.75 30.25L61.65 30.3L61.6 30.3" />
<path style="fill:#685A57;fill-opacity:1" d="M80.75,30.25L80.45 30.5L80.2 30.75L80.35 30.45L80.5 30.25L80.75 30.25M59.4,30.25L59.6 30.45L59.8 30.75L59.5 30.5L59.1 30.25L59.4 30.25" />
<path style="fill:#4E3F3C;fill-opacity:1" d="M78.8,30.3L78.65 30.3L78.35 30.2L78.1 30L78.7 30.2L78.75 30.25L78.8 30.3L78.85 30.85L78.85 31.1L78.8 30.3M78.85,31.4L78.8 31.55L78.95 31.5L78.9 31.55L78.75 31.65L78.75 31.6L78.85 31.4M62.15,30.2L61.85 30.3L61.7 30.3L61.65 31.15L61.75 31.6L61.8 31.65L61.6 31.55L61.65 31.55L61.6 31.1L61.6 30.85L61.65 30.3L61.75 30.25L61.8 30.2L62.4 30L62.15 30.2" />
<path style="fill:#BBBFC8;fill-opacity:1" d="M78.5,30.35L78.55 31.1L78.55 31.7L78.55 31.85L78.45 31.9L78.45 30.6Q78.4 30.4 78.5 30.35M62.05,30.6L62 31.9L61.95 31.85L61.95 31.7L61.95 31.1L62 30.35L62.05 30.6" />
<path style="fill:#CED9DF;fill-opacity:1" d="M69.4,30.45L69.65 30.7L69.75 31.1L69.75 31.15L69.6 31L69.55 30.85L69.5 30.7L69.45 30.65L69.35 30.6L69.35 30.5L69.4 30.45" />
<radialGradient
id="RadialGradID_9403" gradientUnits="userSpaceOnUse" gradientTransform="matrix(-0.00723267, 0, 0, 0.00723267, 75.2, 33.5)" spreadMethod ="pad" cx="0" cy="0" r="819.2" fx="0" fy="0" >
<stop  offset="0"  style="stop-color:#5E5453;stop-opacity:1" />
<stop  offset="0.509804"  style="stop-color:#221D21;stop-opacity:1" />
<stop  offset="1"  style="stop-color:#000000;stop-opacity:1" />
</radialGradient>
<path style="fill:url(#RadialGradID_9403) " d="M70.25,30.45L70.75 30.45L71.4 30.2Q71.7 29.95 72.8 29.8L75.95 29.65Q77.3 29.65 78.1 30L78.35 30.2L78.65 30.3L78.8 30.3L78.85 31.1L78.85 31.15L78.85 31.3L78.85 31.4L78.75 31.6L78.75 31.65L78.7 31.65L78.7 31.7L78.45 32.45L78.2 33.15L78.15 33.25L76.05 33.7Q72.4 33.85 71.8 33.25L71.4 32.45L70.95 31.5Q70.75 31.1 70.3 31.1L70.25 31.1L70.25 30.45M75.85,29.9L75.4 29.9L72.95 30.1L72.25 30.2Q71.25 30.45 71.3 30.9L71.35 31.5Q71.8 33.2 72.6 33.3L72.95 33.4Q75 33.6 76.5 33.4Q77.95 33.2 78.05 32.8L78.2 31.8L78.15 30.9L78.05 30.45L77.75 30.15L76.9 29.95L75.95 29.9L75.85 29.9M78.45,30.6L78.45 31.9L78.55 31.85L78.55 31.7L78.55 31.1L78.5 30.35Q78.4 30.4 78.45 30.6" />
<radialGradient
id="RadialGradID_9404" gradientUnits="userSpaceOnUse" gradientTransform="matrix(-0.00167847, -0.00212097, -0.00506592, 0.00405884, 74.7, 32.55)" spreadMethod ="pad" cx="0" cy="0" r="819.2" fx="0" fy="0" >
<stop  offset="0"  style="stop-color:#FFFFFF;stop-opacity:0.85098" />
<stop  offset="0.47451"  style="stop-color:#B1B1BF;stop-opacity:0.513725" />
<stop  offset="0.960784"  style="stop-color:#F2F2F7;stop-opacity:0.352941" />
</radialGradient>
<path style="fill:url(#RadialGradID_9404) " d="M71.4,31L71.45 31.4Q71.9 33.1 72.7 33.25L73.1 33.3Q75.1 33.5 76.5 33.3Q77.9 33.15 78 32.75L78.1 31.8L78.05 30.95L78 30.5L77.7 30.25L76.8 30L75.95 29.9L76.9 29.95L77.75 30.15L78.05 30.45L78.15 30.9L78.2 31.8L78.05 32.8Q77.95 33.2 76.5 33.4Q75 33.6 72.95 33.4L72.6 33.3Q71.8 33.2 71.35 31.5L71.3 30.9Q71.25 30.45 72.25 30.2Q71.5 30.45 71.4 31" />
<linearGradient
id="LinearGradID_9405" gradientUnits="userSpaceOnUse" gradientTransform="matrix(0, 0.00193787, 0.000808716, 0, 72.55, 30.15)" spreadMethod ="pad" x1="-819.2" y1="0" x2="819.2" y2="0" >
<stop  offset="0.235294" style="stop-color:#E6F5F0;stop-opacity:0.811765" />
<stop  offset="1" style="stop-color:#FFFFFF;stop-opacity:0" />
</linearGradient>
<path style="fill:url(#LinearGradID_9405) " d="M71.8,30.8Q72 30.35 72.7 30.25L73.3 30.2L73.1 30.85L72.95 31.65L72.05 31.45Q71.85 31.35 71.8 30.8" />
<radialGradient
id="RadialGradID_9406" gradientUnits="userSpaceOnUse" gradientTransform="matrix(0.00558472, 0, 0, 0.00558472, 70.8, 31.25)" spreadMethod ="pad" cx="0" cy="0" r="819.2" fx="0" fy="0" >
<stop  offset="0.203922"  style="stop-color:#873F2B;stop-opacity:0.8" />
<stop  offset="0.564706"  style="stop-color:#964436;stop-opacity:0.572549" />
<stop  offset="1"  style="stop-color:#A86452;stop-opacity:0.180392" />
</radialGradient>
<path style="fill:url(#RadialGradID_9406) " d="M69.35,31.8L69.5 31.5Q69.75 31.1 70.2 31.1L70.25 31.1L70.3 31.1Q70.75 31.1 70.95 31.5L71.4 32.45L71.8 33.25Q72.4 33.85 76.05 33.7L78.15 33.25L77.85 33.6L76.5 34.05L75.2 34.15L74.45 34.15L72.15 33.6L71.65 33.2L71.55 33.05L71.15 32.35L70.5 31.4Q69.9 31.1 69.55 31.9L69.5 32.1L69.35 31.8" />
<radialGradient
id="RadialGradID_9407" gradientUnits="userSpaceOnUse" gradientTransform="matrix(0.00723267, 0, 0, 0.00723267, 65.25, 33.5)" spreadMethod ="pad" cx="0" cy="0" r="819.2" fx="0" fy="0" >
<stop  offset="0"  style="stop-color:#5E5453;stop-opacity:1" />
<stop  offset="0.509804"  style="stop-color:#221D21;stop-opacity:1" />
<stop  offset="1"  style="stop-color:#000000;stop-opacity:1" />
</radialGradient>
<path style="fill:url(#RadialGradID_9407) " d="M69.1,32.45L68.7 33.25L67.05 33.7L64.45 33.7Q62.45 33.5 62.3 33.15Q62.1 32.8 62.05 32.45L61.85 31.75L61.8 31.7L61.8 31.65L61.75 31.6L61.65 31.15L61.7 30.3L61.85 30.3L62.15 30.2L62.4 30L64.55 29.65L67.65 29.8Q68.75 29.95 69.1 30.2L69.75 30.45L70.25 30.45L70.25 31.1L70.2 31.1Q69.75 31.1 69.5 31.5L69.35 31.8L69.1 32.45M67.55,30.1L65.1 29.9L64.65 29.9L64.55 29.9L63.6 29.95L62.75 30.15L62.45 30.45L62.35 30.9L62.3 31.8L62.4 32.8Q62.5 33.2 64 33.4Q65.5 33.6 67.55 33.4L67.9 33.3Q68.7 33.2 69.1 31.5L69.2 30.9Q69.2 30.45 68.25 30.2L67.55 30.1M69.35,30.5L69.35 30.6L69.45 30.65L69.5 30.7L69.55 30.85L69.6 31L69.75 31.15L69.75 31.1L69.65 30.7L69.4 30.45L69.35 30.5M62,30.35L61.95 31.1L61.95 31.7L61.95 31.85L62 31.9L62.05 30.6L62 30.35" />
<radialGradient
id="RadialGradID_9408" gradientUnits="userSpaceOnUse" gradientTransform="matrix(0.00167847, -0.00212097, 0.00506592, 0.00405884, 65.8, 32.55)" spreadMethod ="pad" cx="0" cy="0" r="819.2" fx="0" fy="0" >
<stop  offset="0"  style="stop-color:#FFFFFF;stop-opacity:0.85098" />
<stop  offset="0.47451"  style="stop-color:#B1B1BF;stop-opacity:0.513725" />
<stop  offset="0.960784"  style="stop-color:#F2F2F7;stop-opacity:0.352941" />
</radialGradient>
<path style="fill:url(#RadialGradID_9408) " d="M63.7,30L62.8 30.25Q62.55 30.4 62.5 30.5L62.4 30.95L62.4 31.8L62.5 32.75Q62.6 33.15 64 33.3Q65.4 33.5 67.4 33.3L67.8 33.25Q68.6 33.1 69 31.4L69.1 31Q69 30.45 68.25 30.2Q69.2 30.45 69.2 30.9L69.1 31.5Q68.7 33.2 67.9 33.3L67.55 33.4Q65.5 33.6 64 33.4Q62.5 33.2 62.4 32.8L62.3 31.8L62.35 30.9L62.45 30.45L62.75 30.15L63.6 29.95L64.55 29.9L63.7 30" />
<linearGradient
id="LinearGradID_9409" gradientUnits="userSpaceOnUse" gradientTransform="matrix(0, 0.00178528, -0.000808716, 0, 67.9, 30.15)" spreadMethod ="pad" x1="-819.2" y1="0" x2="819.2" y2="0" >
<stop  offset="0.235294" style="stop-color:#E6F5F0;stop-opacity:0.811765" />
<stop  offset="1" style="stop-color:#FFFFFF;stop-opacity:0" />
</linearGradient>
<path style="fill:url(#LinearGradID_9409) " d="M67.4,30.85L67.2 30.2L67.8 30.25Q68.5 30.35 68.7 30.8L68.45 31.45L67.55 31.65L67.4 30.85" />
<linearGradient
id="LinearGradID_9410" gradientUnits="userSpaceOnUse" gradientTransform="matrix(-0.00640869, 0.00239563, -0.000823975, -0.00219727, 65.25, 32.85)" spreadMethod ="pad" x1="-819.2" y1="0" x2="819.2" y2="0" >
<stop  offset="0" style="stop-color:#E0A296;stop-opacity:0.341176" />
<stop  offset="0.243137" style="stop-color:#DB997F;stop-opacity:0.501961" />
<stop  offset="0.564706" style="stop-color:#E39B88;stop-opacity:0.321569" />
<stop  offset="1" style="stop-color:#F7A38F;stop-opacity:0.431373" />
</linearGradient>
<path style="fill:url(#LinearGradID_9410) " d="M69.35,31.8L69.5 32.1L69.2 32.8L69 33.3L68.7 33.55L65.9 34.3L62.2 34.45Q61.55 34.3 61.55 33.6L61.8 32L62.05 32.95Q62.25 33.6 63.75 33.8L67.05 33.7L68.7 33.25L69.1 32.45L69.35 31.8" />
<radialGradient
id="RadialGradID_9411" gradientUnits="userSpaceOnUse" gradientTransform="matrix(0.0022583, 0, 0, 0.00299072, 59.85, 30.35)" spreadMethod ="pad" cx="0" cy="0" r="819.2" fx="0" fy="0" >
<stop  offset="0"  style="stop-color:#55372D;stop-opacity:1" />
<stop  offset="0.556863"  style="stop-color:#2C1E1D;stop-opacity:1" />
<stop  offset="1"  style="stop-color:#211D1C;stop-opacity:1" />
</radialGradient>
<path style="fill:url(#RadialGradID_9411) " d="M61.65,30.3L61.6 30.85L61.6 31.1L61.65 31.55L61.6 31.55L60.6 31.2L60.55 31.2L60.5 31.15L60.45 31L60.25 30.85L60 30.7L59.85 30.45L59.85 30.4L60 30.25L60 30.2L61.6 30.3L61.65 30.3" />
<radialGradient
id="RadialGradID_9412" gradientUnits="userSpaceOnUse" gradientTransform="matrix(-0.00170898, 0, 0, 0.00299072, 80.15, 30.35)" spreadMethod ="pad" cx="0" cy="0" r="819.2" fx="0" fy="0" >
<stop  offset="0"  style="stop-color:#55372D;stop-opacity:1" />
<stop  offset="0.556863"  style="stop-color:#2C1E1D;stop-opacity:1" />
<stop  offset="1"  style="stop-color:#211D1C;stop-opacity:1" />
</radialGradient>
<path style="fill:url(#RadialGradID_9412) " d="M79.65,31.2L79.6 31.2L78.95 31.5L78.8 31.55L78.85 31.4L78.85 31.3L78.85 31.15L78.85 31.1L78.85 30.85L78.8 30.3L78.9 30.3L80 30.2L80.05 30.25L80.15 30.4L80.15 30.45L80.05 30.7L79.85 30.85L79.75 31L79.65 31.15L79.65 31.2" />
<linearGradient
id="LinearGradID_9413" gradientUnits="userSpaceOnUse" gradientTransform="matrix(0.000442505, 0.00326538, -0.000579834, 7.62939e-05, 63.5, 31.75)" spreadMethod ="pad" x1="-819.2" y1="0" x2="819.2" y2="0" >
<stop  offset="0" style="stop-color:#AAB0B0;stop-opacity:0" />
<stop  offset="0.439216" style="stop-color:#E5F9FF;stop-opacity:0.623529" />
<stop  offset="1" style="stop-color:#E5EDEB;stop-opacity:0" />
</linearGradient>
<path style="fill:url(#LinearGradID_9413) " d="M63.75,30.45L63.9 31.6L64.05 32.45L63.6 32.4L63.2 32.3L62.95 30.5L63.75 30.45" />
<linearGradient
id="LinearGradID_9414" gradientUnits="userSpaceOnUse" gradientTransform="matrix(-0.000259399, 0.00189209, 0.000579834, 7.62939e-05, 77.35, 31.6)" spreadMethod ="pad" x1="-819.2" y1="0" x2="819.2" y2="0" >
<stop  offset="0" style="stop-color:#AAB0B0;stop-opacity:0" />
<stop  offset="0.439216" style="stop-color:#E5F9FF;stop-opacity:0.623529" />
<stop  offset="1" style="stop-color:#E5EDEB;stop-opacity:0" />
</linearGradient>
<path style="fill:url(#LinearGradID_9414) " d="M76.75,30.45L77.55 30.5L77.3 32.3L76.9 32.4L76.45 32.45L76.6 31.6L76.75 30.45" />
<radialGradient
id="RadialGradID_9415" gradientUnits="userSpaceOnUse" gradientTransform="matrix(0.0055542, 0, 0, 0.0055542, 67.7, 29.9)" spreadMethod ="pad" cx="0" cy="0" r="819.2" fx="0" fy="0" >
<stop  offset="0"  style="stop-color:#FFFFFF;stop-opacity:0.85098" />
<stop  offset="0.478431"  style="stop-color:#F2F2F7;stop-opacity:0.352941" />
<stop  offset="1"  style="stop-color:#868691;stop-opacity:0" />
</radialGradient>
<path style="fill:url(#RadialGradID_9415) " d="M69.25,30.3L67.65 29.95L64.45 29.7L63.6 29.7L64.55 29.65L67.65 29.8Q68.75 29.95 69.1 30.2L69.5 30.4L69.25 30.3" />
<path style="fill:#CECFD4;fill-opacity:1" d="M71.25,30.35L70.95 30.55L70.6 30.55L70.45 30.5L71.25 30.35" />
<radialGradient
id="RadialGradID_9416" gradientUnits="userSpaceOnUse" gradientTransform="matrix(0.00505066, 0, 0, 0.00505066, 76.25, 29.65)" spreadMethod ="pad" cx="0" cy="0" r="819.2" fx="0" fy="0" >
<stop  offset="0"  style="stop-color:#FFFFFF;stop-opacity:0.85098" />
<stop  offset="0.478431"  style="stop-color:#F2F2F7;stop-opacity:0.352941" />
<stop  offset="1"  style="stop-color:#868691;stop-opacity:0" />
</radialGradient>
<path style="fill:url(#RadialGradID_9416) " d="M78.65,30.4L77.9 30.1L75.45 29.75L72.2 29.9L72.8 29.8L75.95 29.65L77.9 29.95L78.55 30.3L78.65 30.4" />
<radialGradient
id="RadialGradID_9417" gradientUnits="userSpaceOnUse" gradientTransform="matrix(0.00138855, 0, 0, 0.00138855, 71.35, 30.65)" spreadMethod ="pad" cx="0" cy="0" r="819.2" fx="0" fy="0" >
<stop  offset="0.109804"  style="stop-color:#FFFFFF;stop-opacity:0.631373" />
<stop  offset="0.901961"  style="stop-color:#EDEDFF;stop-opacity:0" />
</radialGradient>
<path style="fill:url(#RadialGradID_9417) " d="M70.45,30.5L70.8 30.55Q71 30.55 71 30.65L71 31.5L70.8 31.2L70.3 31.05L70.3 30.5L70.45 30.5" />
</g>
</svg>
