<?xml version="1.0" encoding="utf-8"?>
<svg version="1.1" id="Layer_1"
xmlns="http://www.w3.org/2000/svg"
xmlns:xlink="http://www.w3.org/1999/xlink"
xmlns:author="http://www.sothink.com"
width="20px" height="6px"
xml:space="preserve">
<g id="114" transform="matrix(1, 0, 0, 1, -60.45, -28.1)">
<path style="fill:#AC6853;fill-opacity:1" d="M68.65,31.05Q68.35 31.05 68.2 31.35L68.1 31.95L68.3 32.7L68.2 32.8L68 32.05Q68 30.95 68.8 30.95L68.8 31.15L68.65 31.05" />
<path style="fill:#513531;fill-opacity:1" d="M68.55,31.4L68.5 31.4L68.6 31.3L68.7 31.2L68.8 31.2L68.8 31.45L68.55 31.4" />
<path style="fill:#52414B;fill-opacity:1" d="M68.6,31.75L68.65 31.55L68.65 31.5L68.5 31.75L68.3 31.85L68.2 31.75L68.2 31.65Q68.2 31.45 68.5 31.4L68.55 31.4L68.8 31.45L68.7 31.9L68.65 32.05L68.5 32L68.6 31.75M68.3,31.65L68.3 31.75L68.3 31.8L68.55 31.55L68.55 31.45L68.5 31.4L68.4 31.45L68.3 31.6L68.3 31.65" />
<path style="fill:#9B8F9D;fill-opacity:1" d="M68.3,31.6L68.4 31.45L68.5 31.4L68.55 31.45L68.55 31.55L68.3 31.8L68.3 31.75L68.3 31.65L68.3 31.6" />
<path style="fill:#2F1C1E;fill-opacity:1" d="M68.3,31.85L68.5 31.75L68.65 31.5L68.65 31.55L68.6 31.75L68.5 32L68.4 31.95L68.3 31.85" />
<radialGradient
id="RadialGradID_9395" gradientUnits="userSpaceOnUse" gradientTransform="matrix(0.00143433, 0, 0, 0.00169373, 68.5, 31.9)" spreadMethod ="pad" cx="0" cy="0" r="819.2" fx="0" fy="0" >
<stop  offset="0"  style="stop-color:#FFDCC4;stop-opacity:1" />
<stop  offset="1"  style="stop-color:#B0876B;stop-opacity:0" />
</radialGradient>
<path style="fill:url(#RadialGradID_9395) " d="M68.4,31.95L68.5 32L68.55 32.3L68.35 32.6L68.3 32.7L68.1 31.95L68.2 31.35Q68.35 31.05 68.65 31.05L68.8 31.15L68.8 31.2L68.7 31.2L68.6 31.3L68.5 31.4Q68.2 31.45 68.2 31.65L68.2 31.75L68.3 31.85L68.4 31.95" />
<path style="fill:#432849;fill-opacity:1" d="M70.15,30.85L69.1 30.8L68.95 30.75L68.95 30.65L70.15 30.75L70.2 30.75L70.2 30.85L70.15 30.85" />
<path style="fill:#746778;fill-opacity:1" d="M69.1,30.8L70.15 30.85L70.2 30.85L70.2 30.9L70.05 30.95L69.4 30.9L69.1 30.8" />
<path style="fill:#381A1A;fill-opacity:1" d="M69.4,30.9L70.05 30.95L70.2 30.9L70.2 31L69.7 31.05L69 31.15L68.95 30.8L68.95 30.75L69.1 30.8L69.4 30.9" />
<path style="fill:#F3EAFD;fill-opacity:1" d="M61,29.9L61.1 30.15L61.05 30.15L60.95 30.2L60.85 29.9L60.45 28.15L60.5 28.1L60.55 28.1L60.6 28.1L61 29.9" />
<path style="fill:#5E4968;fill-opacity:1" d="M61.45,30.75L61.45 30.6L61.4 30.6L61.45 30.55L61.4 30.45L61.8 30.45L62.1 30.45L62.1 30.6L62 30.95L62 31L61.95 31L61.95 30.85L62 30.7L62 30.65L61.95 30.65L61.9 30.55L61.7 30.5L61.55 30.5L61.5 30.55L61.5 30.85L61.45 30.75" />
<path style="fill:#452D52;fill-opacity:1" d="M61.1,30.15L61 29.9L60.6 28.1L60.7 28.15L60.75 28.2L60.8 28.5L61.15 29.9L61.2 30.15L61.1 30.15" />
<path style="fill:#DECBB1;fill-opacity:1" d="M61.1,30.55L61 30.3L60.95 30.2L61.05 30.15L61.1 30.15L61.2 30.15L61.3 30.15L61.25 30.15L61.2 30.2L61.25 30.35L61.2 30.45L61.1 30.55M61.4,30.85L61.35 30.65L61.3 30.6L61.3 30.55L61.2 30.7L61.15 30.65L61.3 30.45L61.35 30.6L61.35 30.7L61.4 30.9L61.4 30.85M61.05,30.25L61.15 30.45L61.2 30.35L61.15 30.2L61.15 30.15L61.05 30.25" />
<path style="fill:#BE9E6F;fill-opacity:1" d="M61.5,30.9L61.4 30.9L61.35 30.7L61.35 30.6L61.3 30.45L61.15 30.65L61.1 30.55L61.2 30.45L61.25 30.35L61.2 30.2L61.25 30.15L61.3 30.15L61.35 30.15L61.35 30.4L61.35 30.45L61.35 30.5L61.4 30.6L61.5 30.9" />
<path style="fill:#FFFBF3;fill-opacity:1" d="M61.4,30.9L61.3 30.85L61.2 30.7L61.3 30.55L61.3 30.6L61.35 30.65L61.4 30.85L61.4 30.9M61.15,30.15L61.15 30.2L61.2 30.35L61.15 30.45L61.05 30.25L61.15 30.15" />
<path style="fill:#857784;fill-opacity:1" d="M61.4,30.45L61.45 30.55L61.4 30.6L61.35 30.5L61.35 30.45L61.4 30.45M61.9,30.6L61.65 30.6L61.55 30.65L61.55 30.85L61.5 30.85L61.5 30.55L61.55 30.5L61.7 30.5L61.9 30.55L61.95 30.65L61.9 30.6" />
<path style="fill:#1B0B0C;fill-opacity:1" d="M61.5,30.85L61.55 30.85L61.55 30.65L61.65 30.6L61.9 30.6L61.95 30.65L62 30.65L62 30.7L61.95 30.85L61.95 31L61.5 30.9L61.4 30.6L61.45 30.6L61.45 30.75L61.5 30.85" />
<path style="fill:#261920;fill-opacity:1" d="M61.4,30.45L61.35 30.45L61.35 30.4L61.5 30.4L61.55 30.25L61.7 30.25L61.8 30.3L61.8 30.45L61.4 30.45" />
<path style="fill:#4E3D43;fill-opacity:1" d="M61.7,30.25L61.55 30.25L61.5 30.4L61.35 30.4L61.35 30.15L61.8 30.25L61.8 30.3L61.7 30.25" />
<radialGradient
id="RadialGradID_9396" gradientUnits="userSpaceOnUse" gradientTransform="matrix(0.00773621, -0.00312805, 0.00216675, 0.00535583, 65.75, 33.3)" spreadMethod ="pad" cx="0" cy="0" r="819.2" fx="0" fy="0" >
<stop  offset="0"  style="stop-color:#FFFFFF;stop-opacity:1" />
<stop  offset="1"  style="stop-color:#FFFFFF;stop-opacity:0" />
</radialGradient>
<path style="fill:url(#RadialGradID_9396) " d="M64.25,33.1L66.45 33.25Q68.1 33.05 68.35 32.6L68.65 32.05L68.7 31.9L68.75 30.65Q68.55 30.25 66.55 30L63.55 29.9Q62.6 30.05 62.35 30.45L62.25 31.45Q62.3 32.1 62.65 32.5Q63 32.9 64.15 33.1L64.25 33.1M68.45,32.75Q68.2 33.25 66.5 33.45L64.1 33.3Q62.9 33.05 62.55 32.65L62.2 32.1Q61.95 30.75 62.2 30.35Q62.45 29.9 63.45 29.8L66.6 29.9Q68.65 30.15 68.85 30.6Q69.1 31.05 68.8 31.95L68.75 32.15L68.45 32.75" />
<radialGradient
id="RadialGradID_9397" gradientUnits="userSpaceOnUse" gradientTransform="matrix(0.00360107, -0.00154114, 0.00233459, 0.00543213, 65.35, 30.35)" spreadMethod ="pad" cx="0" cy="0" r="819.2" fx="0" fy="0" >
<stop  offset="0.160784"  style="stop-color:#927996;stop-opacity:1" />
<stop  offset="0.345098"  style="stop-color:#695266;stop-opacity:1" />
<stop  offset="0.647059"  style="stop-color:#481C1D;stop-opacity:1" />
<stop  offset="0.866667"  style="stop-color:#695056;stop-opacity:1" />
<stop  offset="1"  style="stop-color:#37250F;stop-opacity:1" />
</radialGradient>
<path style="fill:url(#RadialGradID_9397) " d="M68.75,32.15L68.8 31.95Q69.1 31.05 68.85 30.6Q68.65 30.15 66.6 29.9L63.45 29.8Q62.45 29.9 62.2 30.35Q61.95 30.75 62.2 32.1L62.55 32.65Q62.9 33.05 64.1 33.3L66.5 33.45Q68.2 33.25 68.45 32.75L68.75 32.15M68.9,31.9L68.65 32.6Q68.45 33.15 67.6 33.4Q65.8 33.75 64 33.35Q62.8 33.15 62.45 32.7Q62.1 32.3 62.05 31.65Q61.95 30.6 62.15 30.15Q62.4 29.7 63.45 29.55L66.65 29.7Q68.75 29.95 68.95 30.4Q69.2 30.85 68.9 31.8L68.9 31.9" />
<path style="fill:#FFE6CC;fill-opacity:1" d="M66.9,29.9L66.9 29.85L67 29.8L67.05 29.85L67.1 29.9L67.05 29.95L66.9 29.9M66.35,29.75L66.2 29.75L66.1 29.7L66.2 29.7L66.35 29.7L66.5 29.7L66.55 29.7L66.5 29.75L66.35 29.75M67.95,30L67.85 30L67.7 30L67.65 30L67.7 29.95L67.85 29.95L67.95 29.95L68 30L67.95 30M64.15,29.65L64.15 29.7L64.15 29.75L64 29.75L63.95 29.7L64 29.65L64.05 29.6L64.15 29.65M68.65,30.35L68.6 30.3L68.65 30.25L68.7 30.2L68.75 30.25L68.75 30.3L68.75 30.35L68.7 30.4L68.65 30.35M69.65,30.9L69.55 30.9L69.45 30.9L69.45 30.85L69.45 30.8L69.55 30.8L69.65 30.8L69.7 30.85L69.65 30.9M70.1,30.85L70.15 30.85L70.2 30.85L70.2 30.9L70.15 30.9L70.1 30.85M67.3,33.35L67.3 33.3L67.4 33.3L67.45 33.3L67.45 33.35L67.45 33.4L67.4 33.45L67.3 33.4L67.3 33.35M66.85,33.45L66.8 33.5L66.75 33.5L66.65 33.5L66.65 33.45L66.65 33.4L66.8 33.4L66.85 33.45M65.45,33.55L65.35 33.55L65.35 33.5L65.4 33.45L65.45 33.5L65.45 33.55M62.1,31.2L62.1 31.35L62.05 31.35L62 31.3L62 31.25L62.05 31.2L62.1 31.2" />
<radialGradient
id="RadialGradID_9398" gradientUnits="userSpaceOnUse" gradientTransform="matrix(0.00416565, 0, 0, 0.00257874, 64.9, 31.45)" spreadMethod ="pad" cx="0" cy="0" r="819.2" fx="0" fy="0" >
<stop  offset="0.478431"  style="stop-color:#FFFFFF;stop-opacity:0" />
<stop  offset="1"  style="stop-color:#FFFFFF;stop-opacity:0.862745" />
</radialGradient>
<path style="fill:url(#RadialGradID_9398) " d="M63.6,31.5L63.75 32.4Q63.9 32.8 64.2 33Q63.15 32.85 62.85 32.5L62.55 32Q62.35 30.9 62.55 30.55Q62.75 30.2 63.65 30.1L64.45 30.05L63.75 30.5Q63.6 30.7 63.6 31.5" />
<path style="fill:#AC6853;fill-opacity:1" d="M72.15,32.8L72.35 32.05Q72.35 30.95 71.55 30.95L71.55 31.15Q71.65 31.05 71.7 31.05Q72 31.05 72.15 31.35L72.25 31.95L72.05 32.7L72.15 32.8" />
<path style="fill:#513531;fill-opacity:1" d="M71.55,31.45L71.8 31.4L71.85 31.4L71.75 31.3L71.65 31.2L71.55 31.2L71.55 31.45" />
<path style="fill:#52414B;fill-opacity:1" d="M71.65,31.9L71.7 32.05L71.85 32L71.75 31.75L71.7 31.55L71.7 31.5L71.85 31.75L72.05 31.85L72.15 31.75L72.15 31.65L71.85 31.4L71.8 31.4L71.55 31.45L71.65 31.9M72.05,31.65L72.05 31.75L72.05 31.8L71.8 31.55L71.8 31.45L71.85 31.4L71.95 31.45L72.05 31.6L72.05 31.65" />
<path style="fill:#9B8F9D;fill-opacity:1" d="M72.05,31.6L71.95 31.45L71.85 31.4L71.8 31.45L71.8 31.55L72.05 31.8L72.05 31.75L72.05 31.65L72.05 31.6" />
<path style="fill:#2F1C1E;fill-opacity:1" d="M71.85,32L71.95 31.95L72.05 31.85L71.85 31.75L71.7 31.5L71.7 31.55L71.75 31.75L71.85 32" />
<radialGradient
id="RadialGradID_9399" gradientUnits="userSpaceOnUse" gradientTransform="matrix(-0.00143433, 0, 0, 0.00169373, 71.85, 31.9)" spreadMethod ="pad" cx="0" cy="0" r="819.2" fx="0" fy="0" >
<stop  offset="0"  style="stop-color:#FFDCC4;stop-opacity:1" />
<stop  offset="1"  style="stop-color:#B0876B;stop-opacity:0" />
</radialGradient>
<path style="fill:url(#RadialGradID_9399) " d="M72.15,31.65L72.15 31.75L72.05 31.85L71.95 31.95L71.85 32L71.8 32.3L72 32.6L72.05 32.7L72.25 31.95L72.15 31.35Q72 31.05 71.7 31.05Q71.65 31.05 71.55 31.15L71.55 31.2L71.65 31.2L71.75 31.3L71.85 31.4L72.15 31.65" />
<path style="fill:#432849;fill-opacity:1" d="M71.4,30.65L70.2 30.75L70.15 30.75L70.15 30.85L70.2 30.85L71.25 30.8L71.4 30.75L71.4 30.65" />
<path style="fill:#746778;fill-opacity:1" d="M70.2,30.85L70.15 30.85L70.15 30.9L70.3 30.95L70.95 30.9L71.25 30.8L70.2 30.85" />
<path style="fill:#381A1A;fill-opacity:1" d="M70.15,31L70.65 31.05L71.35 31.15L71.4 30.8L71.4 30.75L71.25 30.8L70.95 30.9L70.3 30.95L70.15 30.9L70.15 31" />
<path style="fill:#F3EAFD;fill-opacity:1" d="M79.35,29.9L79.25 30.15L79.3 30.15L79.4 30.2L79.5 29.9L79.9 28.15L79.85 28.1L79.8 28.1L79.75 28.1L79.35 29.9" />
<path style="fill:#5E4968;fill-opacity:1" d="M78.9,30.75L78.9 30.6L78.95 30.6L78.9 30.55L78.95 30.45L78.55 30.45L78.25 30.45L78.25 30.6L78.35 30.95L78.35 31L78.4 31L78.4 30.85L78.35 30.7L78.35 30.65L78.4 30.65L78.45 30.55L78.65 30.5L78.8 30.5L78.85 30.55L78.85 30.85L78.9 30.75" />
<path style="fill:#452D52;fill-opacity:1" d="M79.25,30.15L79.35 29.9L79.75 28.1L79.65 28.15L79.6 28.2L79.55 28.5L79.2 29.9L79.15 30.15L79.25 30.15" />
<path style="fill:#DECBB1;fill-opacity:1" d="M79.25,30.55L79.35 30.3L79.4 30.2L79.3 30.15L79.25 30.15L79.15 30.15L79.05 30.15L79.1 30.15L79.15 30.2L79.1 30.35L79.15 30.45L79.25 30.55M78.95,30.9L78.95 30.85L79 30.65L79.05 30.6L79.05 30.55L79.15 30.7L79.2 30.65L79.05 30.45L79 30.6L79 30.7L78.95 30.9M79.3,30.25L79.2 30.45L79.15 30.35L79.2 30.2L79.2 30.15L79.3 30.25" />
<path style="fill:#BE9E6F;fill-opacity:1" d="M79,30.4L79 30.45L79 30.5L78.95 30.6L78.85 30.9L78.95 30.9L79 30.7L79 30.6L79.05 30.45L79.2 30.65L79.25 30.55L79.15 30.45L79.1 30.35L79.15 30.2L79.1 30.15L79.05 30.15L79 30.15L79 30.4" />
<path style="fill:#FFFBF3;fill-opacity:1" d="M78.95,30.9L79.05 30.85L79.15 30.7L79.05 30.55L79.05 30.6L79 30.65L78.95 30.85L78.95 30.9M79.2,30.15L79.2 30.2L79.15 30.35L79.2 30.45L79.3 30.25L79.2 30.15" />
<path style="fill:#857784;fill-opacity:1" d="M79,30.5L79 30.45L78.95 30.45L78.9 30.55L78.95 30.6L79 30.5M78.45,30.6L78.7 30.6L78.8 30.65L78.8 30.85L78.85 30.85L78.85 30.55L78.8 30.5L78.65 30.5L78.45 30.55L78.4 30.65L78.45 30.6" />
<path style="fill:#1B0B0C;fill-opacity:1" d="M78.85,30.85L78.8 30.85L78.8 30.65L78.7 30.6L78.45 30.6L78.4 30.65L78.35 30.65L78.35 30.7L78.4 30.85L78.4 31L78.85 30.9L78.95 30.6L78.9 30.6L78.9 30.75L78.85 30.85" />
<path style="fill:#261920;fill-opacity:1" d="M78.55,30.3L78.55 30.45L78.95 30.45L79 30.45L79 30.4L78.85 30.4L78.8 30.25L78.65 30.25L78.55 30.3" />
<path style="fill:#4E3D43;fill-opacity:1" d="M78.65,30.25L78.8 30.25L78.85 30.4L79 30.4L79 30.15L78.55 30.25L78.55 30.3L78.65 30.25" />
<radialGradient
id="RadialGradID_9400" gradientUnits="userSpaceOnUse" gradientTransform="matrix(-0.00773621, -0.00312805, -0.00216675, 0.00535583, 74.6, 33.3)" spreadMethod ="pad" cx="0" cy="0" r="819.2" fx="0" fy="0" >
<stop  offset="0"  style="stop-color:#FFFFFF;stop-opacity:1" />
<stop  offset="1"  style="stop-color:#FFFFFF;stop-opacity:0" />
</radialGradient>
<path style="fill:url(#RadialGradID_9400) " d="M76.1,33.1L73.9 33.25Q72.25 33.05 72 32.6L71.7 32.05L71.65 31.9Q71.45 31.05 71.6 30.65Q71.8 30.25 73.8 30L76.8 29.9Q77.75 30.05 78 30.45L78.1 31.45L77.7 32.5Q77.35 32.9 76.2 33.1L76.1 33.1M71.9,32.75Q72.15 33.25 73.85 33.45L76.25 33.3L77.8 32.65L78.15 32.1Q78.4 30.75 78.15 30.35Q77.9 29.9 76.9 29.8L73.75 29.9Q71.7 30.15 71.5 30.6Q71.25 31.05 71.55 31.95L71.6 32.15L71.9 32.75" />
<radialGradient
id="RadialGradID_9401" gradientUnits="userSpaceOnUse" gradientTransform="matrix(-0.00360107, -0.00154114, -0.00233459, 0.00543213, 75, 30.35)" spreadMethod ="pad" cx="0" cy="0" r="819.2" fx="0" fy="0" >
<stop  offset="0.160784"  style="stop-color:#927996;stop-opacity:1" />
<stop  offset="0.345098"  style="stop-color:#695266;stop-opacity:1" />
<stop  offset="0.647059"  style="stop-color:#481C1D;stop-opacity:1" />
<stop  offset="0.866667"  style="stop-color:#695056;stop-opacity:1" />
<stop  offset="1"  style="stop-color:#37250F;stop-opacity:1" />
</radialGradient>
<path style="fill:url(#RadialGradID_9401) " d="M71.6,32.15L71.55 31.95Q71.25 31.05 71.5 30.6Q71.7 30.15 73.75 29.9L76.9 29.8Q77.9 29.9 78.15 30.35Q78.4 30.75 78.15 32.1L77.8 32.65L76.25 33.3L73.85 33.45Q72.15 33.25 71.9 32.75L71.6 32.15M71.7,32.6Q71.9 33.15 72.75 33.4Q74.55 33.75 76.35 33.35Q77.55 33.15 77.9 32.7L78.3 31.65L78.2 30.15Q77.95 29.7 76.9 29.55L73.7 29.7Q71.6 29.95 71.4 30.4Q71.15 30.85 71.45 31.8L71.45 31.9L71.7 32.6" />
<path style="fill:#FFE6CC;fill-opacity:1" d="M73.45,29.9L73.45 29.85L73.35 29.8L73.3 29.85L73.25 29.9L73.3 29.95L73.45 29.9M74,29.75L74.15 29.75L74.25 29.7L74.15 29.7L74 29.7L73.85 29.7L73.8 29.7L73.85 29.75L74 29.75M72.4,30L72.5 30L72.65 30L72.7 30L72.65 29.95L72.5 29.95L72.4 29.95L72.35 30L72.4 30M76.2,29.65L76.2 29.7L76.2 29.75L76.35 29.75L76.4 29.7L76.35 29.65L76.3 29.6L76.2 29.65M71.75,30.3L71.7 30.25L71.65 30.2L71.6 30.25L71.6 30.3L71.6 30.35L71.65 30.4L71.7 30.35L71.75 30.3M70.7,30.9L70.8 30.9L70.9 30.9L70.9 30.85L70.9 30.8L70.8 30.8L70.7 30.8L70.65 30.85L70.7 30.9M70.25,30.85L70.2 30.85L70.15 30.85L70.15 30.9L70.2 30.9L70.25 30.85M73.05,33.35L73.05 33.3L72.95 33.3L72.9 33.3L72.9 33.35L72.9 33.4L72.95 33.45L73.05 33.4L73.05 33.35M73.5,33.45L73.55 33.5L73.6 33.5L73.7 33.5L73.7 33.45L73.7 33.4L73.55 33.4L73.5 33.45M74.9,33.55L75 33.55L75 33.5L74.95 33.45L74.9 33.5L74.9 33.55M78.25,31.2L78.25 31.35L78.3 31.35L78.35 31.3L78.35 31.25L78.3 31.2L78.25 31.2" />
<radialGradient
id="RadialGradID_9402" gradientUnits="userSpaceOnUse" gradientTransform="matrix(-0.00416565, 0, 0, 0.00257874, 75.45, 31.45)" spreadMethod ="pad" cx="0" cy="0" r="819.2" fx="0" fy="0" >
<stop  offset="0.478431"  style="stop-color:#FFFFFF;stop-opacity:0" />
<stop  offset="1"  style="stop-color:#FFFFFF;stop-opacity:0.862745" />
</radialGradient>
<path style="fill:url(#RadialGradID_9402) " d="M76.75,31.5L76.6 32.4L76.15 33Q77.2 32.85 77.5 32.5L77.8 32Q78 30.9 77.8 30.55Q77.6 30.2 76.7 30.1L75.9 30.05L76.6 30.5L76.75 31.5" />
</g>
</svg>
