<?xml version="1.0" encoding="utf-8"?>
<svg version="1.1" id="Layer_1"
xmlns="http://www.w3.org/2000/svg"
xmlns:xlink="http://www.w3.org/1999/xlink"
xmlns:author="http://www.sothink.com"
width="22px" height="9px"
xml:space="preserve">
<g id="118" transform="matrix(1, 0, 0, 1, 9.35, -4.7)">
<path style="fill:#000000;fill-opacity:1" d="M0.85,5.8L-0.15 6.05L-0.25 6.05L-0.95 5.95L-1.1 5.85L-2.15 5.3L-3.35 4.9L-4.4 4.75L-5.2 4.75L-4.85 4.7L-3.35 4.85L-3.3 4.85Q-2.1 5.15 -0.85 5.9L-0.8 5.95L-0.5 6L-0.35 6L-0.25 6L0.35 5.85L0.45 5.85L0.85 5.75L0.9 5.75L1.3 5.75L1.3 5.8L0.85 5.8M-9.3,7.95L-9.05 8.35L-8.25 9.9L-7.9 10.5L-7.4 11.15L-7.35 11.2Q-6.6 11.95 -5.25 12.45L-3.25 12.6L-3.2 12.6L-1.65 12L-1.5 11.9L-1.05 11.5Q-0.45 10.85 0 9.75L0.35 8.35L0.15 7.95Q-0.1 7.55 0.2 7.1L0.85 6.9L1.3 6.95L1.3 7L0.6 7L0.35 7.1Q0 7.45 0.3 8L0.45 8.7Q0.2 9.85 -0.4 10.7L-0.4 10.75L-0.6 11.05L-1.1 11.65Q-1.9 12.45 -3.1 12.65L-3.15 12.7Q-4.75 12.95 -6.3 12.1Q-7.3 11.6 -7.9 10.65L-8.25 10.1L-9.05 8.4L-9.35 7.9L-9.35 5.65L-9.3 7.95M-0.6,9.75L-0.65 9.9L-0.75 10.2L-1.15 10.8L-1.3 11.05L-1.45 11.25L-1.5 11.25Q-2.35 12.05 -3.55 12.25L-5.75 11.85Q-6.85 11.3 -7.6 10.2L-8 9.3L-8.15 8.8L-8.2 8.6L-8.25 8.15L-8.15 7.45L-8.1 7.35L-7.7 6.6Q-7.35 6.2 -6.65 5.9L-7.15 6.25L-7.7 6.85L-8.05 7.95L-8.05 8.35Q-7.95 9.35 -7.35 10.2Q-6.4 11.45 -4.95 11.9L-4.8 11.95L-4.25 12.05L-4.2 12.05L-4.05 12.05L-2.75 11.85L-1.7 11.2L-1.55 11.05Q-0.65 10.15 -0.65 8.55L-0.65 8.5L-0.7 8.05Q-0.75 7.65 -0.95 7.3L-1.4 6.7L-1.35 6.75L-0.7 7.7L-0.65 7.8Q-0.5 8.15 -0.5 8.6L-0.5 8.75L-0.5 8.9L-0.5 9.05L-0.5 9.25L-0.6 9.75" />
<radialGradient
id="RadialGradID_9457" gradientUnits="userSpaceOnUse" gradientTransform="matrix(0.00747681, 0, 0, 0.00747681, -4.65, 4.8)" spreadMethod ="pad" cx="0" cy="0" r="819.2" fx="0" fy="0" >
<stop  offset="0"  style="stop-color:#4F4954;stop-opacity:1" />
<stop  offset="1"  style="stop-color:#000000;stop-opacity:1" />
</radialGradient>
<path style="fill:url(#RadialGradID_9457) " d="M-0.35,6.25L-0.4 6.25L-1.25 5.95Q-2.45 5.2 -3.45 5L-3.35 4.9L-2.15 5.3L-1.1 5.85L-0.95 5.95L-0.25 6.05L-0.15 6.05L0.85 5.8L1.3 5.8L1.3 6L0.85 6L-0.25 6.25L-0.35 6.25M-7.9,5.4L-9.35 5.65L-9.35 5.55L-8.9 5.4L-8.05 5.25L-7.85 5.25L-7.9 5.4" />
<path style="fill:#19171C;fill-opacity:1" d="M-1,11.3L-0.85 10.7L-0.9 10.7L-0.85 10.6L-0.6 9.8L-0.5 9.25L-0.5 9.05L-0.5 8.9L-0.5 8.75L-0.5 8.6L-0.45 8.3L-0.25 6.3L-0.25 6.25L0.85 6L1.3 6L1.3 6.95L0.85 6.9L0.2 7.1Q-0.1 7.55 0.15 7.95L0.35 8.35L0 9.75Q-0.45 10.85 -1.05 11.5L-1 11.3M-8,9.6L-7.95 10.15L-7.9 10.5L-8.25 9.9L-9.05 8.35L-9.3 7.95L-9.35 5.65L-7.9 5.4L-7.95 5.55L-8.15 7.35L-8.1 7.35L-8.15 7.45L-8.25 8.15L-8.2 8.6L-8.15 8.8L-8 9.6" />
<linearGradient
id="LinearGradID_9458" gradientUnits="userSpaceOnUse" gradientTransform="matrix(0.00610352, 0, 0, 0.00238037, -4.2, 6.8)" spreadMethod ="pad" x1="-819.2" y1="0" x2="819.2" y2="0" >
<stop  offset="0" style="stop-color:#060506;stop-opacity:1" />
<stop  offset="0.443137" style="stop-color:#2F2B32;stop-opacity:1" />
<stop  offset="1" style="stop-color:#000000;stop-opacity:1" />
</linearGradient>
<path style="fill:url(#LinearGradID_9458) " d="M-6.45,5.8L-6.55 5.85L-6.65 5.9Q-7.35 6.2 -7.7 6.6L-8.1 7.35L-8.15 7.35L-7.95 5.55L-7.9 5.4L-7.3 5.25L-5.7 4.9L-5.65 4.9L-3.5 5L-3.45 5Q-2.45 5.2 -1.25 5.95L-0.4 6.25L-0.35 6.25L-0.25 6.25L-0.25 6.3L-0.45 8.3L-0.5 8.6Q-0.5 8.15 -0.65 7.8L-0.7 7.7L-1.35 6.75L-1.4 6.7L-1.45 6.65L-1.55 6.55L-1.7 6.4Q-2.8 5.55 -4.35 5.55L-4.85 5.55L-5.4 5.6L-6.2 5.7L-6.25 5.75L-6.4 5.8L-6.45 5.8" />
<radialGradient
id="RadialGradID_9459" gradientUnits="userSpaceOnUse" gradientTransform="matrix(0.0299072, 0, 0, 0.0128174, -4.1, 5.95)" spreadMethod ="pad" cx="0" cy="0" r="819.2" fx="0" fy="0" >
<stop  offset="0"  style="stop-color:#4F4F59;stop-opacity:0.890196" />
<stop  offset="1"  style="stop-color:#000000;stop-opacity:1" />
</radialGradient>
<path style="fill:url(#RadialGradID_9459) " d="M-0.95,7.3Q-0.75 7.65 -0.7 8.05L-0.65 8.5L-0.65 8.55Q-0.65 10.15 -1.55 11.05L-1.7 11.2L-2.75 11.85Q-0.1 10.15 -1.1 7.35Q-2.6 5.15 -6.4 5.8L-6.25 5.75L-6.2 5.7L-5.4 5.6L-4.85 5.55L-4.35 5.55Q-2.8 5.55 -1.7 6.4L-1.55 6.55L-1.45 6.65L-1.4 6.7L-0.95 7.3M-4.95,11.9Q-6.4 11.45 -7.35 10.2Q-7.95 9.35 -8.05 8.35L-8.05 7.95L-7.7 6.85L-7.15 6.25L-6.65 5.9L-7 6.15L-7.55 6.8L-7.9 7.9L-7.9 8.3Q-7.8 9.3 -7.2 10.2Q-6.25 11.45 -4.8 11.9L-4.8 11.95L-4.95 11.9" />
<radialGradient
id="RadialGradID_9460" gradientUnits="userSpaceOnUse" gradientTransform="matrix(0.00747681, 0, 0, 0.00747681, -4.65, 4.8)" spreadMethod ="pad" cx="0" cy="0" r="819.2" fx="0" fy="0" >
<stop  offset="0"  style="stop-color:#625C69;stop-opacity:1" />
<stop  offset="1"  style="stop-color:#000000;stop-opacity:1" />
</radialGradient>
<path style="fill:url(#RadialGradID_9460) " d="M-7.85,5.25L-6.4 4.9L-6.35 4.9L-5.2 4.75L-4.4 4.75L-3.35 4.9L-3.45 5L-3.5 5L-5.65 4.9L-5.7 4.9L-7.3 5.25L-7.9 5.4L-7.85 5.25" />
<radialGradient
id="RadialGradID_9461" gradientUnits="userSpaceOnUse" gradientTransform="matrix(0.0299072, 0, 0, 0.0128174, -4.1, 5.95)" spreadMethod ="pad" cx="0" cy="0" r="819.2" fx="0" fy="0" >
<stop  offset="0"  style="stop-color:#1E1D30;stop-opacity:0.760784" />
<stop  offset="1"  style="stop-color:#000000;stop-opacity:1" />
</radialGradient>
<path style="fill:url(#RadialGradID_9461) " d="M-4.05,12.05L-4.2 12.05L-4.25 12.05L-4.8 11.95L-4.8 11.9Q-6.25 11.45 -7.2 10.2Q-7.8 9.3 -7.9 8.3L-7.9 7.9L-7.55 6.8L-7 6.15L-6.65 5.9L-6.55 5.85L-6.45 5.8L-6.4 5.8Q-2.6 5.15 -1.1 7.35Q-0.1 10.15 -2.75 11.85L-4.05 12.05" />
<linearGradient
id="LinearGradID_9462" gradientUnits="userSpaceOnUse" gradientTransform="matrix(0.00436401, 0, 0, 0.00186157, -4.45, 11.1)" spreadMethod ="pad" x1="-819.2" y1="0" x2="819.2" y2="0" >
<stop  offset="0" style="stop-color:#000000;stop-opacity:1" />
<stop  offset="0.458824" style="stop-color:#332F36;stop-opacity:1" />
<stop  offset="1" style="stop-color:#000000;stop-opacity:1" />
</linearGradient>
<path style="fill:url(#LinearGradID_9462) " d="M-7.95,10.15L-8 9.6L-7.7 10.25Q-7.05 11.25 -6.2 11.8L-6.15 11.85Q-5.3 12.35 -3.75 12.4L-2.05 11.8L-2 11.8L-0.9 10.7L-0.85 10.7L-1 11.3L-1.05 11.5L-1.5 11.9L-1.65 12L-3.2 12.6L-3.25 12.6L-5.25 12.45Q-6.6 11.95 -7.35 11.2L-7.4 11.15L-7.9 10.5L-7.95 10.15" />
<radialGradient
id="RadialGradID_9463" gradientUnits="userSpaceOnUse" gradientTransform="matrix(0.010788, 0, 0, 0.00648499, -4.45, 12.3)" spreadMethod ="pad" cx="0" cy="0" r="819.2" fx="0" fy="0" >
<stop  offset="0"  style="stop-color:#625C69;stop-opacity:1" />
<stop  offset="1"  style="stop-color:#000000;stop-opacity:1" />
</radialGradient>
<path style="fill:url(#RadialGradID_9463) " d="M-0.75,10.25L-0.85 10.6L-0.9 10.7L-2 11.8L-2.05 11.8L-3.75 12.4Q-5.3 12.35 -6.15 11.85L-6.2 11.8Q-7.05 11.25 -7.7 10.25L-8 9.6L-8 9.3L-7.6 10.2Q-6.85 11.3 -5.75 11.85L-3.55 12.25Q-2.35 12.05 -1.5 11.25L-1.45 11.25L-1.3 11.05L-1.15 10.8L-0.75 10.2L-0.75 10.25" />
<radialGradient
id="RadialGradID_9464" gradientUnits="userSpaceOnUse" gradientTransform="matrix(0.010788, 0, 0, 0.00648499, -4.45, 12.3)" spreadMethod ="pad" cx="0" cy="0" r="819.2" fx="0" fy="0" >
<stop  offset="0"  style="stop-color:#3C3840;stop-opacity:1" />
<stop  offset="1"  style="stop-color:#000000;stop-opacity:1" />
</radialGradient>
<path style="fill:url(#RadialGradID_9464) " d="M-0.75,10.2L-0.65 9.9L-0.6 9.75L-0.5 9.25L-0.6 9.8L-0.85 10.6L-0.75 10.25L-0.75 10.2M-8.15,8.8L-8 9.3L-8 9.6L-8.15 8.8" />
<radialGradient
id="RadialGradID_9465" gradientUnits="userSpaceOnUse" gradientTransform="matrix(-0.00747681, 0, 0, 0.00747681, 7.25, 4.8)" spreadMethod ="pad" cx="0" cy="0" r="819.2" fx="0" fy="0" >
<stop  offset="0"  style="stop-color:#4F4954;stop-opacity:1" />
<stop  offset="1"  style="stop-color:#000000;stop-opacity:1" />
</radialGradient>
<path style="fill:url(#RadialGradID_9465) " d="M10.5,5.4L10.45 5.25L10.65 5.25L11.5 5.4L11.95 5.55L11.95 5.65L10.5 5.4M1.3,6L1.3 5.8L1.7 5.8L2.75 6.05L2.85 6.05L3.55 5.95L3.7 5.85L4.75 5.3Q5.3 5.05 5.95 4.9L6.05 5Q5.05 5.2 3.85 5.95L3 6.25L2.95 6.25L2.85 6.25L1.7 6L1.3 6" />
<radialGradient
id="RadialGradID_9466" gradientUnits="userSpaceOnUse" gradientTransform="matrix(-0.00747681, 0, 0, 0.00747681, 7.25, 4.8)" spreadMethod ="pad" cx="0" cy="0" r="819.2" fx="0" fy="0" >
<stop  offset="0"  style="stop-color:#625C69;stop-opacity:1" />
<stop  offset="1"  style="stop-color:#000000;stop-opacity:1" />
</radialGradient>
<path style="fill:url(#RadialGradID_9466) " d="M6.05,5L5.95 4.9L7 4.75L7.8 4.75L8.95 4.9L9 4.9L10.45 5.25L10.5 5.4L9.9 5.25L8.3 4.9L8.25 4.9L6.1 5L6.05 5" />
<path style="fill:#19171C;fill-opacity:1" d="M11.9,7.95L11.65 8.35L10.85 9.9L10.5 10.5L10.55 10.15L10.6 9.6L10.7 9L10.75 8.8L10.8 8.6L10.85 8.15L10.75 7.45L10.7 7.35L10.75 7.35L10.55 5.55L10.5 5.4L11.95 5.65L11.9 7.95M3.45,10.7L3.6 11.3L3.65 11.5Q3.05 10.85 2.6 9.75Q2.25 9.05 2.25 8.35L2.45 7.95Q2.7 7.55 2.4 7.1L1.7 6.9L1.3 6.95L1.3 6L1.7 6L2.85 6.25L2.85 6.3L3 8.3L3.05 8.6L3.1 8.75L3.1 8.9L3.1 9.05L3.1 9.25L3.2 9.8L3.45 10.6L3.5 10.7L3.45 10.7" />
<linearGradient
id="LinearGradID_9467" gradientUnits="userSpaceOnUse" gradientTransform="matrix(-0.00610352, 0, 0, 0.00238037, 6.8, 6.8)" spreadMethod ="pad" x1="-819.2" y1="0" x2="819.2" y2="0" >
<stop  offset="0" style="stop-color:#060506;stop-opacity:1" />
<stop  offset="0.443137" style="stop-color:#2F2B32;stop-opacity:1" />
<stop  offset="1" style="stop-color:#000000;stop-opacity:1" />
</linearGradient>
<path style="fill:url(#LinearGradID_9467) " d="M9.05,5.8L9 5.8L8.85 5.75L8.8 5.75L8.75 5.7L8 5.6L7.45 5.55L6.95 5.55Q5.4 5.55 4.3 6.4L4.15 6.55L4.05 6.65L4 6.7L3.9 6.75L3.3 7.7L3.25 7.8Q3.1 8.2 3.1 8.75L3.05 8.6L3 8.3L2.85 6.3L2.85 6.25L2.95 6.25L3 6.25L3.85 5.95Q5.05 5.2 6.05 5L6.1 5L8.25 4.9L8.3 4.9L9.9 5.25L10.5 5.4L10.55 5.55L10.75 7.35L10.7 7.35L10.3 6.6Q9.95 6.15 9.15 5.85L9.05 5.8" />
<path style="fill:#000000;fill-opacity:1" d="M4.1,11.9L4.25 12Q4.95 12.4 5.8 12.6L5.85 12.6L7.85 12.45Q9.2 11.95 9.95 11.2L10 11.15L10.5 10.5L10.85 9.9L11.65 8.35L11.9 7.95L11.95 5.65L11.95 7.9L11.65 8.4L10.85 10.1L10.5 10.65Q9.9 11.6 8.9 12.1Q7.35 12.95 5.75 12.7L5.7 12.65Q4.5 12.45 3.7 11.65L3.2 11.05L3 10.75L3 10.7Q2.4 9.85 2.15 8.7Q2.05 8.35 2.3 8Q2.6 7.45 2.25 7.1L2 7L1.3 7L1.3 6.95L1.7 6.9L2.4 7.1Q2.7 7.55 2.45 7.95L2.25 8.35Q2.25 9.05 2.6 9.75Q3.05 10.85 3.65 11.5L4.1 11.9M7,4.75L5.95 4.9Q5.3 5.05 4.75 5.3L3.7 5.85L3.55 5.95L2.85 6.05L2.75 6.05L1.7 5.8L1.3 5.8L1.3 5.75L1.7 5.75L2.15 5.85L2.25 5.85L2.85 6L2.95 6L3.1 6L3.4 5.95L3.45 5.9Q4.7 5.15 5.9 4.85L5.95 4.85L7.45 4.7L7.8 4.75L7 4.75M10.6,9.3L10.2 10.2Q9.45 11.3 8.35 11.85Q7.5 12.3 6.15 12.25Q4.95 12.05 4.1 11.25L4.05 11.25L3.9 11.05L3.7 10.8L3.35 10.2L3.25 9.9L3.2 9.75L3.1 9.25L3.1 9.05L3.1 8.9L3.1 8.75Q3.1 8.2 3.25 7.8L3.3 7.7L3.9 6.75L4 6.7L3.55 7.3L3.25 8.05L3.25 8.5L3.25 8.55Q3.25 10.15 4.15 11.05L4.3 11.2L5.35 11.85L6.65 12.05L6.75 12.05L6.85 12.05L7.35 11.95L7.55 11.9Q9 11.45 9.95 10.2Q10.55 9.35 10.65 8.35L10.65 7.95L10.3 6.85L9.75 6.25L9.15 5.85Q9.95 6.15 10.3 6.6L10.7 7.35L10.75 7.45L10.85 8.15L10.8 8.6L10.75 8.8L10.7 9L10.6 9.3" />
<radialGradient
id="RadialGradID_9468" gradientUnits="userSpaceOnUse" gradientTransform="matrix(-0.0299072, 0, 0, 0.0128174, 6.7, 5.95)" spreadMethod ="pad" cx="0" cy="0" r="819.2" fx="0" fy="0" >
<stop  offset="0"  style="stop-color:#4F4F59;stop-opacity:0.890196" />
<stop  offset="1"  style="stop-color:#000000;stop-opacity:1" />
</radialGradient>
<path style="fill:url(#RadialGradID_9468) " d="M9.15,5.85L9.75 6.25L10.3 6.85L10.65 7.95L10.65 8.35Q10.55 9.35 9.95 10.2Q9 11.45 7.55 11.9L7.35 11.95L7.35 11.9Q8.8 11.45 9.75 10.2Q10.35 9.3 10.45 8.3L10.45 7.9L10.1 6.8L9.55 6.15L9.05 5.8L9.15 5.85M4.05,6.65L4.15 6.55L4.3 6.4Q5.4 5.55 6.95 5.55L7.45 5.55L8 5.6L8.75 5.7L8.8 5.75L8.85 5.75L9 5.8Q5.2 5.15 3.65 7.35Q2.65 10.15 5.35 11.85L4.3 11.2L4.15 11.05Q3.25 10.15 3.25 8.55L3.25 8.5L3.25 8.05L3.55 7.3L4 6.7L4.05 6.65" />
<radialGradient
id="RadialGradID_9469" gradientUnits="userSpaceOnUse" gradientTransform="matrix(-0.0299072, 0, 0, 0.0128174, 6.7, 5.95)" spreadMethod ="pad" cx="0" cy="0" r="819.2" fx="0" fy="0" >
<stop  offset="0"  style="stop-color:#1E1D30;stop-opacity:0.760784" />
<stop  offset="1"  style="stop-color:#000000;stop-opacity:1" />
</radialGradient>
<path style="fill:url(#RadialGradID_9469) " d="M3.65,7.35Q5.2 5.15 9 5.8L9.05 5.8L9.55 6.15L10.1 6.8L10.45 7.9L10.45 8.3Q10.35 9.3 9.75 10.2Q8.8 11.45 7.35 11.9L7.35 11.95L6.85 12.05L6.75 12.05L6.65 12.05L5.35 11.85Q2.65 10.15 3.65 7.35" />
<radialGradient
id="RadialGradID_9470" gradientUnits="userSpaceOnUse" gradientTransform="matrix(-0.010788, 0, 0, 0.00648499, 7.05, 12.3)" spreadMethod ="pad" cx="0" cy="0" r="819.2" fx="0" fy="0" >
<stop  offset="0"  style="stop-color:#3C3840;stop-opacity:1" />
<stop  offset="1"  style="stop-color:#000000;stop-opacity:1" />
</radialGradient>
<path style="fill:url(#RadialGradID_9470) " d="M10.6,9.3L10.7 9L10.6 9.6L10.6 9.3M3.35,10.25L3.45 10.6L3.2 9.8L3.1 9.25L3.2 9.75L3.25 9.9L3.35 10.2L3.35 10.25" />
<radialGradient
id="RadialGradID_9471" gradientUnits="userSpaceOnUse" gradientTransform="matrix(-0.010788, 0, 0, 0.00648499, 7.05, 12.3)" spreadMethod ="pad" cx="0" cy="0" r="819.2" fx="0" fy="0" >
<stop  offset="0"  style="stop-color:#625C69;stop-opacity:1" />
<stop  offset="1"  style="stop-color:#000000;stop-opacity:1" />
</radialGradient>
<path style="fill:url(#RadialGradID_9471) " d="M3.35,10.2L3.7 10.8L3.9 11.05L4.05 11.25L4.1 11.25Q4.95 12.05 6.15 12.25Q7.5 12.3 8.35 11.85Q9.45 11.3 10.2 10.2L10.6 9.3L10.6 9.6L10.3 10.25L8.8 11.8L8.75 11.85L6.35 12.4Q5.55 12.3 4.65 11.8L4.6 11.8L3.5 10.7L3.45 10.6L3.35 10.25L3.35 10.2" />
<linearGradient
id="LinearGradID_9472" gradientUnits="userSpaceOnUse" gradientTransform="matrix(-0.00436401, 0, 0, 0.00186157, 7.05, 11.1)" spreadMethod ="pad" x1="-819.2" y1="0" x2="819.2" y2="0" >
<stop  offset="0" style="stop-color:#000000;stop-opacity:1" />
<stop  offset="0.458824" style="stop-color:#332F36;stop-opacity:1" />
<stop  offset="1" style="stop-color:#000000;stop-opacity:1" />
</linearGradient>
<path style="fill:url(#LinearGradID_9472) " d="M3.65,11.5L3.6 11.3L3.45 10.7L3.5 10.7L4.6 11.8L4.65 11.8Q5.55 12.3 6.35 12.4L8.75 11.85L8.8 11.8L10.3 10.25L10.6 9.6L10.55 10.15L10.5 10.5L10 11.15L9.95 11.2Q9.2 11.95 7.85 12.45L5.85 12.6L5.8 12.6Q4.95 12.4 4.25 12L4.1 11.9L3.65 11.5" />
</g>
</svg>
