<?xml version="1.0" encoding="utf-8"?>
<svg version="1.1" id="Layer_1"
xmlns="http://www.w3.org/2000/svg"
xmlns:xlink="http://www.w3.org/1999/xlink"
xmlns:author="http://www.sothink.com"
width="23px" height="7px"
xml:space="preserve">
<g id="120" transform="matrix(1, 0, 0, 1, 14, -16.6)">
<path style="fill:#10150F;fill-opacity:1" d="M6.4,16.75Q4.1 16.65 1.8 16.8L1.7 16.85L-1.5 17.35L-1.5 17.4L-1.8 17.45L-3 17.5L-3.2 17.5L-3.6 17.45L-3.9 17.45L-4.5 17.35L-5.35 17.25L-5.4 17.25L-11 16.75L-13.35 16.85L-13.75 16.9L-13.95 16.95L-13.95 16.9L-11.15 16.7L-11.1 16.7L-4.5 17.25L-4.35 17.25L-3.9 17.35L-3 17.4L-0.85 17.15L-0.8 17.15L4.45 16.6L8.45 16.75L8.45 16.85L8.05 16.8L6.4 16.75" />
<linearGradient
id="LinearGradID_9513" gradientUnits="userSpaceOnUse" gradientTransform="matrix(-0.000473022, -4.57764e-05, 0.000137329, -0.00144958, 8.4, 17.9)" spreadMethod ="pad" x1="-819.2" y1="0" x2="819.2" y2="0" >
<stop  offset="0" style="stop-color:#88888A;stop-opacity:1" />
<stop  offset="0.984314" style="stop-color:#2E2C2F;stop-opacity:1" />
</linearGradient>
<path style="fill:url(#LinearGradID_9513) " d="M7.85,19.25Q8.3 17.85 8.05 16.8L8.45 16.85L8.45 17.3L8.4 18.6L8.4 18.65L8.15 18.9L8 19.05L7.85 19.25" />
<linearGradient
id="LinearGradID_9514" gradientUnits="userSpaceOnUse" gradientTransform="matrix(0.000213623, -1.52588e-05, 0.000106812, 0.00135803, -13.9, 18.05)" spreadMethod ="pad" x1="-819.2" y1="0" x2="819.2" y2="0" >
<stop  offset="0" style="stop-color:#88888A;stop-opacity:1" />
<stop  offset="0.984314" style="stop-color:#2E2C2F;stop-opacity:1" />
</linearGradient>
<path style="fill:url(#LinearGradID_9514) " d="M-13.6,19.05L-13.6 19.15L-13.65 19.05L-13.9 18.75L-13.95 18.7L-13.95 16.95L-13.75 16.9L-13.6 19.05" />
<linearGradient
id="LinearGradID_9515" gradientUnits="userSpaceOnUse" gradientTransform="matrix(0.000869751, -0.000854492, 0.000793457, 0.000808716, -12.65, 17.9)" spreadMethod ="pad" x1="-819.2" y1="0" x2="819.2" y2="0" >
<stop  offset="0" style="stop-color:#451B1D;stop-opacity:1" />
<stop  offset="0.184314" style="stop-color:#2B1F23;stop-opacity:1" />
<stop  offset="0.486275" style="stop-color:#4E343D;stop-opacity:1" />
<stop  offset="1" style="stop-color:#3B2F33;stop-opacity:1" />
</linearGradient>
<path style="fill:url(#LinearGradID_9515) " d="M-12.25,17.3L-12.4 17.4L-12.8 17.75L-12.85 17.8L-12.85 17.85L-12.85 18.9L-12.85 19L-12.95 19.15L-12.95 19.1L-12.95 17.9L-12.95 17.8L-12.9 17.7L-12.9 17.65L-12.65 17.4L-12.25 17.3" />
<radialGradient
id="RadialGradID_9516" gradientUnits="userSpaceOnUse" gradientTransform="matrix(0.00177002, -0.000289917, 0.00195312, 0.0116272, -13.95, 17.95)" spreadMethod ="pad" cx="0" cy="0" r="819.2" fx="210511" fy="0" >
<stop  offset="0"  style="stop-color:#323033;stop-opacity:1" />
<stop  offset="0.984314"  style="stop-color:#222123;stop-opacity:1" />
</radialGradient>
<path style="fill:url(#RadialGradID_9516) " d="M-5.2,22.75L-5.25 22.85L-6.7 23.35L-8.8 23.45L-10.3 23.3L-10.35 23.3L-11.15 23.05L-11.8 22.85L-12.55 21.9L-13.15 20.1L-13.2 20L-13.6 19.05L-13.75 16.9L-13.35 16.85Q-13.2 17.3 -12.65 17.4L-12.9 17.65L-12.9 17.7L-12.95 17.8L-12.95 17.9L-13.05 18.5L-12.85 20L-12.8 20.1L-12.55 21.1L-12.35 21.65L-12.15 22.1L-11.7 22.65L-11.15 22.85L-10.7 23L-8.95 23.25L-7.4 23.25L-6.1 23L-5.4 22.55L-5.1 22.2Q-5 22.35 -5.2 22.75" />
<path style="fill:#291919;fill-opacity:1" d="M-5.85,22.75L-7.25 23.05L-9.2 23.1L-11 22.75L-11.05 22.7L-11.15 22.7L-11.6 22.5L-11.85 22.25L-12.45 20.8L-12.45 20.75L-12.65 20L-12.85 19L-12.85 18.9L-12.85 17.85L-12.85 17.8L-12.8 17.75L-12.4 17.4L-12.4 17.45L-12.7 17.8L-12.65 19.6L-12.55 20L-12.2 21.1L-12.2 21.2L-11.85 22.05L-11.25 22.55L-9.3 23L-7.35 23L-5.9 22.7L-5.3 22.25L-5.85 22.75M-5.3,22.25L-5.25 22.15L-5.25 22.2L-5.3 22.25" />
<radialGradient
id="RadialGradID_9517" gradientUnits="userSpaceOnUse" gradientTransform="matrix(0.0091095, 0, 0, 0.0091095, -7.4, 15.75)" spreadMethod ="pad" cx="0" cy="0" r="819.2" fx="77" fy="0" >
<stop  offset="0"  style="stop-color:#AF63DE;stop-opacity:0.360784" />
<stop  offset="1"  style="stop-color:#D467C3;stop-opacity:0.901961" />
</radialGradient>
<path style="fill:url(#RadialGradID_9517) " d="M-10.45,21.3Q-8.15 22.55 -6.35 21.35L-6.3 21.3L-4.5 19.6L-4.1 19.05L-4.2 19.4L-4.3 20L-4.3 20.05L-4.5 20.55L-4.9 21.55L-5.25 22.15L-5.3 22.25L-5.9 22.7L-7.35 23L-9.3 23L-11.25 22.55L-11.85 22.05L-12.2 21.2L-12.2 21.1L-12.55 20L-12.65 19.6L-12.7 17.8L-12.4 17.45L-12.4 17.4L-12.25 17.35L-10.95 17.25Q-12.15 19.8 -10.45 21.3" />
<linearGradient
id="LinearGradID_9518" gradientUnits="userSpaceOnUse" gradientTransform="matrix(0.00611877, 0, 0, 0.00366211, -8.65, 19.7)" spreadMethod ="pad" x1="-819.2" y1="0" x2="819.2" y2="0" >
<stop  offset="0" style="stop-color:#191819;stop-opacity:1" />
<stop  offset="0.635294" style="stop-color:#444444;stop-opacity:1" />
<stop  offset="1" style="stop-color:#1D1B1E;stop-opacity:1" />
</linearGradient>
<path style="fill:url(#LinearGradID_9518) " d="M-5.1,22.2L-4.85 21.8L-4.5 20.85L-4.3 20.25L-4.25 20.25L-4 19L-4 18.7L-4.1 18.05L-4.4 17.8L-4.5 17.8L-4.6 17.75L-5.55 17.55L-7.45 17.3L-8.05 17.25L-10.45 17.15L-12.2 17.3L-12.25 17.3L-12.65 17.4Q-13.2 17.3 -13.35 16.85L-11 16.75L-5.4 17.25L-5.35 17.25L-4.5 17.35L-3.9 17.45L-3.75 18.6L-3.6 19.35L-3.75 19.65L-4.5 21.65L-4.75 22.2L-4.8 22.25L-4.85 22.3L-4.9 22.4L-5.2 22.75Q-5 22.35 -5.1 22.2" />
<path style="fill:#3C2420;fill-opacity:1" d="M-12.8,20L-12.25 21.7L-11.9 22.4L-11.85 22.4L-11.45 22.7L-11.15 22.8L-10.2 23.05L-7.95 23.2L-6.05 22.95L-6.05 22.9L-5.4 22.45L-5.3 22.35L-5.15 22.15L-4.75 21.3L-4.5 20.7L-4.45 20.6L-4.45 20.55Q-4.2 19.95 -4.1 19.05L-4.05 18.75L-4.1 18.5L-4.1 18.4L-4.15 18.25Q-4.2 17.95 -4.4 17.8L-4.1 18.05L-4 18.7L-4 19L-4.25 20.25L-4.3 20.25L-4.5 20.85L-4.85 21.8L-5.1 22.2L-5.4 22.55L-6.1 23L-7.4 23.25L-8.95 23.25L-10.7 23L-11.15 22.85L-11.7 22.65L-12.15 22.1L-12.35 21.65L-12.55 21.1L-12.8 20.1L-12.85 20L-13.05 18.5L-12.95 17.9L-12.95 19.1L-12.95 19.15L-12.8 20" />
<linearGradient
id="LinearGradID_9519" gradientUnits="userSpaceOnUse" gradientTransform="matrix(0.000808716, 0.00216675, -0.00196838, 0.000747681, -12.3, 20.75)" spreadMethod ="pad" x1="-819.2" y1="0" x2="819.2" y2="0" >
<stop  offset="0" style="stop-color:#661B1F;stop-opacity:1" />
<stop  offset="0.486275" style="stop-color:#AE2127;stop-opacity:1" />
<stop  offset="1" style="stop-color:#7B1D1D;stop-opacity:1" />
</linearGradient>
<path style="fill:url(#LinearGradID_9519) " d="M-11.75,22.45L-11.85 22.4L-11.9 22.4L-12.25 21.7L-12.8 20L-12.95 19.15L-12.85 19L-12.65 20L-12.45 20.75L-12.45 20.8L-11.85 22.25L-11.6 22.5L-11.75 22.45" />
<path style="fill:#000000;fill-opacity:1" d="M-4.9,22.4Q-5.2 23.1 -6.2 23.3L-9.2 23.45L-9.25 23.45L-11.15 23.1L-11.5 23L-12.4 22.25L-13.2 20.05L-13.25 20Q-13.35 19.55 -13.6 19.15L-13.6 19.05L-13.2 20L-13.15 20.1L-12.55 21.9L-11.8 22.85L-11.15 23.05L-10.35 23.3L-10.3 23.3L-8.8 23.45L-6.7 23.35L-5.25 22.85L-5.2 22.75L-4.9 22.4" />
<linearGradient
id="LinearGradID_9520" gradientUnits="userSpaceOnUse" gradientTransform="matrix(0.00616455, 0, 0, 0.00411987, 3.1, 20.1)" spreadMethod ="pad" x1="-819.2" y1="0" x2="819.2" y2="0" >
<stop  offset="0" style="stop-color:#191819;stop-opacity:1" />
<stop  offset="0.635294" style="stop-color:#353535;stop-opacity:1" />
<stop  offset="1" style="stop-color:#1D1B1E;stop-opacity:1" />
</linearGradient>
<path style="fill:url(#LinearGradID_9520) " d="M-1.9,18.85L-1.8 17.6L-1.8 17.45L-1.5 17.4L-1.5 17.35L1.7 16.85L1.8 16.8Q4.1 16.65 6.4 16.75L8.05 16.8Q8.3 17.85 7.85 19.25L8 19.05L7.8 19.4L7.6 20.25L7.55 20.25Q7.3 21.6 6.6 22.5L6.5 22.6L5.15 23.15L5.1 23.2L4.2 23.35L4.15 23.35Q2.2 23.6 0.55 23.3L-0.4 22.85L-0.75 22.45L-1.4 21.1L-1.85 19.95L-1.95 19.6L-1.9 18.85M-1.05,21L-1 21.1L-0.7 21.8L-0.2 22.5L0 22.7L0.25 22.85L0.3 22.85L1.85 23.15L4.4 23.05L4.45 23.05L5.65 22.7L5.95 22.55L6.2 22.4L6.85 21.3L7.3 19.55L7.35 18.95L7.35 18.9L7.4 18.8L7.4 18.15L7.4 17.95L7.4 17.9L7.4 17.8L7.35 17.7L7.25 17.55L6.85 17.25L6.1 17.2L4.55 17.1L2.8 17.2L0.8 17.35L0.65 17.4L0.55 17.45L0.35 17.45L-0.35 17.55L-1.1 17.75L-1.55 17.95L-1.55 18L-1.7 18.45L-1.7 18.5L-1.4 20.05L-1.2 20.55L-1.2 20.6L-1.1 20.75L-1.05 21" />
<path style="fill:#452B38;fill-opacity:1" d="M-0.35,17.6L-1.3 17.9Q-1.7 18.05 -1.6 18.75L-0.95 21.1L-0.9 21.15L-0.9 21.2L-0.8 21.45L-1 21.1L-1 21.05L-1.05 21L-1.05 20.95L-1.1 20.75L-1.2 20.6L-1.2 20.55L-1.4 20.05L-1.7 18.5L-1.7 18.45L-1.55 18L-1.55 17.95L-1.1 17.75L-0.35 17.55L0.35 17.45L-0.35 17.6" />
<linearGradient
id="LinearGradID_9521" gradientUnits="userSpaceOnUse" gradientTransform="matrix(0.0012207, -3.05176e-05, 3.05176e-05, 0.00131226, -2.85, 18.3)" spreadMethod ="pad" x1="-819.2" y1="0" x2="819.2" y2="0" >
<stop  offset="0" style="stop-color:#191819;stop-opacity:1" />
<stop  offset="0.486275" style="stop-color:#3A393A;stop-opacity:1" />
<stop  offset="1" style="stop-color:#1D1B1E;stop-opacity:1" />
</linearGradient>
<path style="fill:url(#LinearGradID_9521) " d="M-3.75,18.6L-3.9 17.45L-3.6 17.45L-3.2 17.5L-3 17.5L-1.8 17.45L-1.8 17.6L-1.9 18.85L-1.95 19.6L-2.25 19.2L-3 19.1L-3.1 19.1L-3.15 19.1L-3.3 19.15L-3.6 19.35L-3.75 18.6" />
<radialGradient
id="RadialGradID_9522" gradientUnits="userSpaceOnUse" gradientTransform="matrix(0.00836182, 0, 0, 0.00582886, 2.95, 17.55)" spreadMethod ="pad" cx="0" cy="0" r="819.2" fx="77" fy="0" >
<stop  offset="0"  style="stop-color:#C66BFF;stop-opacity:0.537255" />
<stop  offset="1"  style="stop-color:#D467C3;stop-opacity:0.760784" />
</radialGradient>
<path style="fill:url(#RadialGradID_9522) " d="M3.25,21.4Q-0.05 21.9 -0.35 17.6L0.35 17.45L0.55 17.45L0.65 17.4L0.8 17.35L2.8 17.2L3 17.2L3.05 17.2L6.1 17.25Q6.25 21.05 3.25 21.4" />
<radialGradient
id="RadialGradID_9523" gradientUnits="userSpaceOnUse" gradientTransform="matrix(0.00750732, 0, 0, 0.00750732, 2.15, 16.05)" spreadMethod ="pad" cx="0" cy="0" r="819.2" fx="77" fy="0" >
<stop  offset="0"  style="stop-color:#AF63DE;stop-opacity:0.360784" />
<stop  offset="1"  style="stop-color:#D467C3;stop-opacity:0.901961" />
</radialGradient>
<path style="fill:url(#RadialGradID_9523) " d="M6.1,17.25L6.85 17.35L6.9 17.4Q7.3 17.7 7.15 19L7.15 19.15L6.6 21.2L6.55 21.3L6.2 22L5.55 22.45L5.5 22.45L2.85 22.9L2.8 22.9Q0.9 23.05 -0.15 22.35L-0.2 22.25L-0.9 21.2L-0.9 21.15L-0.95 21.1L-1.6 18.75Q-1.7 18.05 -1.3 17.9L-0.35 17.6Q-0.05 21.9 3.25 21.4Q6.25 21.05 6.1 17.25" />
<linearGradient
id="LinearGradID_9524" gradientUnits="userSpaceOnUse" gradientTransform="matrix(0.000747681, 0.000961304, -0.000854492, 0.000671387, 5.8, 18.35)" spreadMethod ="pad" x1="-819.2" y1="0" x2="819.2" y2="0" >
<stop  offset="0" style="stop-color:#342A33;stop-opacity:1" />
<stop  offset="0.443137" style="stop-color:#47313D;stop-opacity:1" />
<stop  offset="1" style="stop-color:#2B1F1F;stop-opacity:1" />
</linearGradient>
<path style="fill:url(#LinearGradID_9524) " d="M7.25,18.75L7.25 17.85L7.25 17.8L7 17.45L6.95 17.4L6.9 17.4L6.85 17.35L6.1 17.25L3.05 17.2L3 17.2L2.8 17.2L4.55 17.1L6.1 17.2L6.85 17.25L7.25 17.55L7.35 17.7L7.4 17.8L7.4 17.9L7.4 17.95L7.4 18.15L7.4 18.8L7.35 18.9L7.25 18.75" />
<path style="fill:#560C31;fill-opacity:1" d="M6.2,22L6.55 21.3L6.6 21.2L7.15 19.15L7.15 19Q7.3 17.7 6.9 17.4L6.95 17.4L7 17.45L7.25 18.2L7.15 19.2L7.15 19.25L6.9 20.35L6.65 21.25L6.2 22.15L6.2 22" />
<path style="fill:#260607;fill-opacity:1" d="M-1,21.1L-1.05 21L-1 21.05L-1 21.1L-0.8 21.45L-0.8 21.5L-1 21.1M7.25,19L7.25 19.05L6.9 20.65L6.9 20.7L6.45 21.9L5.9 22.45L4.7 22.85L2.5 23.1L0.85 22.95Q0.25 22.8 -0.1 22.5L-0.2 22.4L-0.65 21.8L-0.8 21.55L-0.45 22.05L-0.2 22.35L0.1 22.55L0.15 22.6L1.2 22.95L3.05 23L3.1 23L5.25 22.65Q5.8 22.5 6.15 22.15L6.2 22.15L6.65 21.25L6.9 20.35L7.15 19.25L7.15 19.2L7.25 18.2L7 17.45L7.25 17.8L7.25 17.85L7.25 18.75L7.25 19" />
<path style="fill:#3B2F33;fill-opacity:1" d="M-12.2,17.3L-10.45 17.15L-8.05 17.25L-8 17.3L-9.4 17.25L-10.95 17.25L-12.25 17.35L-12.4 17.4L-12.25 17.3L-12.2 17.3" />
<path style="fill:#352736;fill-opacity:1" d="M-4.35,17.9L-4.5 17.85L-6.15 17.5L-8 17.3L-8.05 17.25L-7.45 17.3L-5.55 17.55L-4.6 17.75L-4.5 17.8L-4.4 17.8Q-4.2 17.95 -4.15 18.25L-4.35 17.9" />
<radialGradient
id="RadialGradID_9525" gradientUnits="userSpaceOnUse" gradientTransform="matrix(0.0128632, 0, 0, 0.00708008, -5.85, 17.85)" spreadMethod ="pad" cx="0" cy="0" r="819.2" fx="77" fy="0" >
<stop  offset="0"  style="stop-color:#C66BFF;stop-opacity:0.537255" />
<stop  offset="1"  style="stop-color:#D467C3;stop-opacity:0.760784" />
</radialGradient>
<path style="fill:url(#RadialGradID_9525) " d="M-4.1,18.85L-4.1 19.05L-4.5 19.6L-6.3 21.3L-6.35 21.35Q-8.15 22.55 -10.45 21.3Q-12.15 19.8 -10.95 17.25L-9.4 17.25L-8 17.3L-6.15 17.5L-4.5 17.85L-4.35 17.9L-4.15 18.25L-4.1 18.4L-4.1 18.5L-4.05 18.75L-4.1 18.85" />
<path style="fill:#3F2530;fill-opacity:1" d="M-5.15,22.05L-5.25 22.2L-5.25 22.15L-4.9 21.55L-4.5 20.55L-4.3 20.05L-4.3 20L-4.2 19.4L-4.1 19.05Q-4.2 19.95 -4.45 20.55L-4.45 20.6L-4.5 20.7L-4.75 21.3L-5.15 22.15L-5.3 22.35L-5.15 22.05M-4.05,18.75L-4.1 19.05L-4.1 18.85L-4.05 18.75" />
<linearGradient
id="LinearGradID_9526" gradientUnits="userSpaceOnUse" gradientTransform="matrix(0.00410461, 0, 0, 0.000717163, -8.5, 22.65)" spreadMethod ="pad" x1="-819.2" y1="0" x2="819.2" y2="0" >
<stop  offset="0" style="stop-color:#572420;stop-opacity:1" />
<stop  offset="0.443137" style="stop-color:#997C78;stop-opacity:1" />
<stop  offset="1" style="stop-color:#5A2824;stop-opacity:1" />
</linearGradient>
<path style="fill:url(#LinearGradID_9526) " d="M-11.6,22.5L-11.15 22.7L-11.05 22.7L-11 22.75L-9.2 23.1L-7.25 23.05L-5.85 22.75L-5.3 22.25L-5.25 22.2L-5.15 22.05L-5.3 22.35L-5.4 22.45L-6.05 22.9L-6.05 22.95L-7.95 23.2L-10.2 23.05L-11.15 22.8L-11.45 22.7L-11.85 22.4L-11.75 22.45L-11.6 22.5" />
<linearGradient
id="LinearGradID_9527" gradientUnits="userSpaceOnUse" gradientTransform="matrix(0.000701904, -0.00233459, 0.00221252, 0.000671387, 6.65, 20.65)" spreadMethod ="pad" x1="-819.2" y1="0" x2="819.2" y2="0" >
<stop  offset="0" style="stop-color:#781A18;stop-opacity:1" />
<stop  offset="0.443137" style="stop-color:#972324;stop-opacity:1" />
<stop  offset="1" style="stop-color:#551D20;stop-opacity:1" />
</linearGradient>
<path style="fill:url(#LinearGradID_9527) " d="M5.9,22.45L6.45 21.9L6.9 20.7L6.9 20.65L7.25 19.05L7.25 19L7.25 18.75L7.35 18.9L7.35 18.95L7.3 19.55L6.85 21.3L6.2 22.4L5.95 22.55L5.9 22.45" />
<linearGradient
id="LinearGradID_9528" gradientUnits="userSpaceOnUse" gradientTransform="matrix(0.00431824, 0, 0, 0.00111389, 2.65, 22.1)" spreadMethod ="pad" x1="-819.2" y1="0" x2="819.2" y2="0" >
<stop  offset="0.0196078" style="stop-color:#71415B;stop-opacity:1" />
<stop  offset="0.2" style="stop-color:#5A2834;stop-opacity:1" />
<stop  offset="0.458824" style="stop-color:#604354;stop-opacity:1" />
<stop  offset="1" style="stop-color:#635063;stop-opacity:1" />
</linearGradient>
<path style="fill:url(#LinearGradID_9528) " d="M-0.8,21.5L-0.8 21.45L-0.9 21.2L-0.2 22.25L-0.15 22.35Q0.9 23.05 2.8 22.9L2.85 22.9L5.5 22.45L5.55 22.45L6.2 22L6.2 22.15L6.15 22.15Q5.8 22.5 5.25 22.65L3.1 23L3.05 23L1.2 22.95L0.15 22.6L0.1 22.55L-0.2 22.35L-0.45 22.05L-0.8 21.55L-0.8 21.5" />
<linearGradient
id="LinearGradID_9529" gradientUnits="userSpaceOnUse" gradientTransform="matrix(0.00352478, 0, 0, 0.000366211, 2.9, 22.9)" spreadMethod ="pad" x1="-819.2" y1="0" x2="819.2" y2="0" >
<stop  offset="0.0196078" style="stop-color:#3D1D20;stop-opacity:1" />
<stop  offset="0.443137" style="stop-color:#695258;stop-opacity:1" />
<stop  offset="1" style="stop-color:#781A18;stop-opacity:1" />
</linearGradient>
<path style="fill:url(#LinearGradID_9529) " d="M5.65,22.7L4.45 23.05L4.4 23.05L1.85 23.15L0.3 22.85L0.25 22.85L0 22.7L0.9 23L2.55 23.15L4.15 23.05L5.8 22.6L5.65 22.7" />
<linearGradient
id="LinearGradID_9530" gradientUnits="userSpaceOnUse" gradientTransform="matrix(0.00436401, 0, 0, 0.0015564, 2.35, 21.85)" spreadMethod ="pad" x1="-819.2" y1="0" x2="819.2" y2="0" >
<stop  offset="0.00392157" style="stop-color:#291D1D;stop-opacity:1" />
<stop  offset="0.443137" style="stop-color:#571E24;stop-opacity:1" />
<stop  offset="0.992157" style="stop-color:#791A18;stop-opacity:1" />
</linearGradient>
<path style="fill:url(#LinearGradID_9530) " d="M-0.8,21.5L-0.8 21.55L-0.65 21.8L-0.2 22.4L-0.1 22.5Q0.25 22.8 0.85 22.95L2.5 23.1L4.7 22.85L5.9 22.45L5.95 22.55L5.65 22.7L5.8 22.6L4.15 23.05L2.55 23.15L0.9 23L0 22.7L-0.2 22.5L-0.7 21.8L-1 21.1L-0.8 21.5M-1.05,21L-1.1 20.75L-1.05 20.95L-1.05 21" />
</g>
</svg>
