<?xml version="1.0" encoding="utf-8"?>
<svg version="1.1" id="Layer_1"
xmlns="http://www.w3.org/2000/svg"
xmlns:xlink="http://www.w3.org/1999/xlink"
xmlns:author="http://www.sothink.com"
width="23px" height="8px"
xml:space="preserve">
<g id="119" transform="matrix(1, 0, 0, 1, 11.15, -7.7)">
<path style="fill:#CC7000;fill-opacity:1" d="M-11.05,9.15L-11.1 9.4L-11.05 9.55L-10.95 9.65L-10.85 9.6L-10.9 9.55L-10.9 9.45L-10.9 9.35L-10.85 9.25L-10.85 9.2L-11.05 9.15M-10.8,9.15L-10.8 9.65L-11.15 9.65L-11.15 9.1L-10.8 9.15" />
<path style="fill:#C94200;fill-opacity:1" d="M-10.85,9.2L-10.85 9.25L-10.9 9.35L-10.9 9.45L-10.9 9.55L-10.85 9.6L-10.95 9.65L-11.05 9.55L-11.1 9.4L-11.05 9.15L-10.85 9.2" />
<path style="fill:#BD6C00;fill-opacity:1" d="M-10.65,9.05L-10.25 9.05L-10.3 9.9L-10.45 9.95L-10.65 9.95L-10.65 9.45L-10.6 9.7L-10.45 9.85L-10.4 9.75L-10.4 9.55L-10.4 9.25L-10.55 9.1L-10.65 9.35L-10.65 9.05" />
<path style="fill:#963D05;fill-opacity:1" d="M-10.65,9.35L-10.55 9.1L-10.4 9.25L-10.4 9.55L-10.4 9.75L-10.45 9.85L-10.6 9.7L-10.65 9.45L-10.65 9.35" />
<linearGradient
id="LinearGradID_9473" gradientUnits="userSpaceOnUse" gradientTransform="matrix(0.0017395, 0.000183105, 1.52588e-05, -0.000198364, -1.5, 9.5)" spreadMethod ="pad" x1="-819.2" y1="0" x2="819.2" y2="0" >
<stop  offset="0" style="stop-color:#FFC60F;stop-opacity:0" />
<stop  offset="1" style="stop-color:#FCC30C;stop-opacity:0.501961" />
</linearGradient>
<path style="fill:url(#LinearGradID_9473) " d="M-6.85,7.7L-6.4 7.7L-4.1 7.95L-4.15 8L-5.3 7.8L-6.4 7.75L-7.85 7.8L-6.85 7.7M-8.7,9.2L-8.65 9.2L-8.7 9.25L-8.7 9.2" />
<linearGradient
id="LinearGradID_9474" gradientUnits="userSpaceOnUse" gradientTransform="matrix(-0.00500488, 0, 0, 0.000274658, -6.75, 8.35)" spreadMethod ="pad" x1="-819.2" y1="0" x2="819.2" y2="0" >
<stop  offset="0" style="stop-color:#F7C202;stop-opacity:1" />
<stop  offset="1" style="stop-color:#F68600;stop-opacity:0.85098" />
</linearGradient>
<path style="fill:url(#LinearGradID_9474) " d="M-3.15,8.35L-2.65 8.6L-4.5 8.65L-4.55 8.65L-6.4 8.5L-6.9 8.6L-10.8 8.25L-10.8 8.2L-10.75 8.2L-9.1 8.25L-8.6 8.25L-8.45 8.25L-7.35 8.3L-6 8.3L-3.15 8.35" />
<radialGradient
id="RadialGradID_9475" gradientUnits="userSpaceOnUse" gradientTransform="matrix(-0.00741577, 0, 0, 0.00741577, -4.95, 8.6)" spreadMethod ="pad" cx="0" cy="0" r="819.2" fx="0" fy="0" >
<stop  offset="0"  style="stop-color:#383038;stop-opacity:1" />
<stop  offset="1"  style="stop-color:#000000;stop-opacity:1" />
</radialGradient>
<path style="fill:url(#RadialGradID_9475) " d="M-6.9,8.6L-6.4 8.5L-4.55 8.65L-4.5 8.65L-3.6 8.95L-3.55 8.95L-3.45 9L-3.4 9.05Q-3.15 9.15 -2.9 9.35L-2.6 9.65L-2.35 10L-2.3 10.05L-2.3 10.1L-2.25 10.25L-2.05 11.1L-2 11.35L-2 11.5L-2.05 11.95L-2.15 12.3L-2.35 12.9L-2.4 12.9L-2.55 13.2L-2.6 13.3L-2.7 13.35L-2.85 13.55L-2.95 13.65L-3.25 13.95L-3.85 14.3L-3.95 14.35L-4 14.4L-5.2 14.65L-6.2 14.55L-7.1 14.25L-7.55 14L-7.9 13.75L-7.9 13.7L-8 13.65L-8.4 13.3L-8.45 13.2L-8.65 12.9L-8.95 12.45L-9.15 11.9L-9.25 11.6L-9.3 11.45L-9.3 11.1L-9.35 11L-9.35 10.6L-9.25 10.15L-9.15 9.9L-9.15 9.8L-9.1 9.75L-8.15 8.9L-8.1 8.9L-7.9 8.8L-6.9 8.6M-7.85,8.9Q-8.7 9.2 -9.1 10.2L-9.05 11.85L-8.25 13.3L-7.8 13.65L-6.9 14.2L-3.55 14.05L-3.35 13.9L-3.1 13.65L-2.85 13.35L-2.75 13.3L-2.35 12.6Q-2.1 11.95 -2.1 11.15L-2.1 11.1L-2.35 10.25Q-2.75 9.45 -3.4 9.15L-3.45 9.15Q-4.95 8.55 -6.4 8.65L-7.75 8.9L-7.85 8.9" />
<linearGradient
id="LinearGradID_9476" gradientUnits="userSpaceOnUse" gradientTransform="matrix(-0.00216675, 0, 0, 9.15527e-05, -6.2, 7.95)" spreadMethod ="pad" x1="-819.2" y1="0" x2="819.2" y2="0" >
<stop  offset="0" style="stop-color:#F7C202;stop-opacity:1" />
<stop  offset="1" style="stop-color:#F68600;stop-opacity:0.85098" />
</linearGradient>
<path style="fill:url(#LinearGradID_9476) " d="M-9.35,8L-8.25 7.85L-8.15 7.85L-7.85 7.8L-6.4 7.75L-5.3 7.8L-4.15 8L-9.35 8" />
<linearGradient
id="LinearGradID_9477" gradientUnits="userSpaceOnUse" gradientTransform="matrix(0.00689697, 0, 0, 0.000183105, -5.6, 9.1)" spreadMethod ="pad" x1="-819.2" y1="0" x2="819.2" y2="0" >
<stop  offset="0" style="stop-color:#FFE799;stop-opacity:0.972549" />
<stop  offset="0.47451" style="stop-color:#FFF6D9;stop-opacity:0.611765" />
<stop  offset="1" style="stop-color:#FCC30C;stop-opacity:0.760784" />
</linearGradient>
<path style="fill:url(#LinearGradID_9477) " d="M-3.55,8.95L-3.6 8.95L-4.5 8.65L-2.65 8.6L-3.15 8.35L-3.35 8.25L-3.45 8.25L-4.85 8.25L-6 8.3L-7.35 8.3L-8.45 8.25L-8.6 8.25L-9.1 8.25L-10.75 8.2L-9.45 8L-9.35 8L-4.15 8L-4.1 7.95L-3.4 8.15L-3.05 8.25L-2.65 8.45L-2.65 8.5L-2.35 8.65L-1.35 8.95L-3.55 8.95M-10.9,8.3L-10.9 8.25L-10.8 8.25L-6.9 8.6L-7.9 8.8L-10.8 8.45L-11 8.4L-10.9 8.3M-8.7,9.25L-8.95 9.5L-11.05 9.05L-11.05 8.85L-10.8 8.95L-10.4 9L-8.7 9.2L-8.7 9.25M-11,9.7L-9.7 9.8L-9.15 9.8L-9.15 9.9L-9.25 10.15L-10.95 9.9L-11 9.7M-10.9,10.85L-10.9 10.45L-9.35 10.6L-9.35 11L-10.9 10.85M-9.25,11.6L-9.15 11.9L-10 11.9L-10.15 11.55L-9.25 11.6M-9.55,12.85L-9.6 12.75L-9.75 12.5L-8.95 12.45L-8.65 12.9L-9.55 12.85M-8.9,13.7L-8.95 13.65L-9.25 13.3L-8.45 13.2L-8.4 13.3L-8 13.65L-7.9 13.7L-8.9 13.7M-7.75,14.6L-7.8 14.6L-8.45 14.1L-7.65 14.05L-7.55 14L-7.1 14.25L-6.2 14.55L-7.75 14.6M-5.2,14.65L-4 14.4L-3.95 14.35L-3.85 14.3L-2.8 14.4L-3.6 14.85L-5.2 14.65M-3.25,13.95L-2.95 13.65L-2.85 13.55L-2.05 13.6L-2.4 14.05L-3.25 13.95M-2.55,13.2L-2.4 12.9L-2.35 12.9L-1.6 12.85L-1.8 13.2L-2.55 13.2M-1.25,11.9L-1.4 12.3L-2.15 12.3L-2.05 11.95L-1.25 11.9M-2,11.35L-2.05 11.1L-1.95 11.1L-1.6 11.15L-1.55 11.15L-1.5 11.15L-1.1 11.2L-1.15 11.35L-1.15 11.4L-2 11.35M-2.05,10.25L-2.1 10.25L-2.25 10.25L-2.3 10.1L-0.65 10.05L-0.9 10.35L-1.05 10.3L-1.25 10.3L-1.4 10.25L-1.55 10.25L-1.65 10.2L-1.95 10.2L-2 10.2L-2.05 10.25M-2.6,9.65L-2.9 9.35L-0.05 9.4L-0.05 9.65L-2.6 9.65" />
<linearGradient
id="LinearGradID_9478" gradientUnits="userSpaceOnUse" gradientTransform="matrix(-0.00177002, 0, 0, -0.000762939, -9.6, 9.15)" spreadMethod ="pad" x1="-819.2" y1="0" x2="819.2" y2="0" >
<stop  offset="0" style="stop-color:#FFAB03;stop-opacity:0.941176" />
<stop  offset="1" style="stop-color:#F58000;stop-opacity:1" />
</linearGradient>
<path style="fill:url(#LinearGradID_9478) " d="M-10.7,8.85L-10.8 8.85L-11.05 8.65L-11 8.5L-10.8 8.5L-8.15 8.9L-9.1 9.75L-8.95 9.5L-8.7 9.25L-8.65 9.2L-8.7 9.2L-10.7 8.85" />
<path style="fill:#FFC903;fill-opacity:0.933333" d="M-11.05,9.05L-8.95 9.5L-9.1 9.75L-9.15 9.8L-9.7 9.8L-9.05 9.6L-11 9.2L-11.05 9.05M-11,8.4L-10.8 8.45L-7.9 8.8L-8.1 8.9L-8.15 8.9L-10.8 8.5L-11 8.5L-11 8.4M-11.05,8.65L-10.8 8.85L-10.7 8.85L-8.7 9.2L-10.4 9L-10.8 8.95L-11.05 8.85L-11.05 8.65M-10.9,10.45L-10.9 10.35L-9.45 10.25L-10.95 10L-10.95 9.9L-9.25 10.15L-9.35 10.6L-10.9 10.45" />
<radialGradient
id="RadialGradID_9479" gradientUnits="userSpaceOnUse" gradientTransform="matrix(-0.0109253, 0, 0, 0.00709534, -5.5, 9.25)" spreadMethod ="pad" cx="0" cy="0" r="819.2" fx="0" fy="0" >
<stop  offset="0"  style="stop-color:#33253D;stop-opacity:0.6" />
<stop  offset="1"  style="stop-color:#000000;stop-opacity:0.85098" />
</radialGradient>
<path style="fill:url(#RadialGradID_9479) " d="M-7.75,8.9L-6.4 8.65Q-4.95 8.55 -3.45 9.15L-3.4 9.15Q-2.75 9.45 -2.35 10.25L-2.1 11.1L-2.1 11.15Q-2.1 11.95 -2.35 12.6L-2.75 13.3L-2.85 13.35L-3.1 13.65L-3.35 13.9L-3.55 14.05L-6.9 14.2L-7.8 13.65L-8.25 13.3L-9.05 11.85L-9.1 10.2Q-8.7 9.2 -7.85 8.9L-7.75 8.9" />
<linearGradient
id="LinearGradID_9480" gradientUnits="userSpaceOnUse" gradientTransform="matrix(-0.00112915, 0, 0, 0.000259399, -10.1, 10.2)" spreadMethod ="pad" x1="-819.2" y1="0" x2="819.2" y2="0" >
<stop  offset="0" style="stop-color:#FFAB03;stop-opacity:0.941176" />
<stop  offset="1" style="stop-color:#F58000;stop-opacity:1" />
</linearGradient>
<path style="fill:url(#LinearGradID_9480) " d="M-11,9.7L-11 9.2L-9.05 9.6L-9.7 9.8L-11 9.7M-10.95,10L-9.45 10.25L-10.9 10.35L-10.95 10" />
<path style="fill:#FFC903;fill-opacity:0.823529" d="M-3.15,8.35L-6 8.3L-4.85 8.25L-3.45 8.25L-3.35 8.25L-3.15 8.35M-10.9,10.9L-10.9 10.85L-9.35 11L-9.3 11.1L-10.9 10.9M-9.3,11.45L-9.25 11.6L-10.15 11.55L-10.15 11.5L-9.3 11.45" />
<linearGradient
id="LinearGradID_9481" gradientUnits="userSpaceOnUse" gradientTransform="matrix(-0.00112915, 0, 0, 0.000259399, -10.1, 10.2)" spreadMethod ="pad" x1="-819.2" y1="0" x2="819.2" y2="0" >
<stop  offset="0" style="stop-color:#F7C202;stop-opacity:1" />
<stop  offset="1" style="stop-color:#F68600;stop-opacity:0.85098" />
</linearGradient>
<path style="fill:url(#LinearGradID_9481) " d="M-10.15,11.5L-10.15 11.45Q-10.45 11.05 -10.85 11L-10.9 10.9L-9.3 11.1L-9.3 11.45L-10.15 11.5M-9.75,12.5L-10 11.9L-9.15 11.9L-8.95 12.45L-9.75 12.5M-8.65,12.9L-8.45 13.2L-9.25 13.3L-9.55 12.85L-8.65 12.9M-7.9,13.7L-7.9 13.75L-7.55 14L-7.65 14.05L-8.45 14.1L-8.9 13.7L-7.9 13.7" />
<linearGradient
id="LinearGradID_9482" gradientUnits="userSpaceOnUse" gradientTransform="matrix(-0.00213623, 0, 0, 0.000289917, -1.8, 9.15)" spreadMethod ="pad" x1="-819.2" y1="0" x2="819.2" y2="0" >
<stop  offset="0" style="stop-color:#F7C202;stop-opacity:1" />
<stop  offset="1" style="stop-color:#F68600;stop-opacity:0.85098" />
</linearGradient>
<path style="fill:url(#LinearGradID_9482) " d="M-2.9,9.35Q-3.15 9.15 -3.4 9.05L-3.45 9L-3.55 8.95L-1.35 8.95L-1.2 8.95L-0.05 8.95L-0.05 9.4L-2.9 9.35" />
<linearGradient
id="LinearGradID_9483" gradientUnits="userSpaceOnUse" gradientTransform="matrix(-0.00154114, 0, 0, 0.000259399, -1.35, 9.85)" spreadMethod ="pad" x1="-819.2" y1="0" x2="819.2" y2="0" >
<stop  offset="0" style="stop-color:#F7C202;stop-opacity:1" />
<stop  offset="1" style="stop-color:#F68600;stop-opacity:0.85098" />
</linearGradient>
<path style="fill:url(#LinearGradID_9483) " d="M-2.3,10.1L-2.3 10.05L-2.35 10L-2.6 9.65L-0.05 9.65L-0.05 9.95L-0.55 10L-0.65 10.05L-2.3 10.1" />
<path style="fill:#CA4D0A;fill-opacity:1" d="M-1.5,11.15L-1.15 10.5L-1.15 10.45L-1.05 10.3L-0.9 10.35L-1 10.7L-1.1 11.2L-1.5 11.15" />
<path style="fill:#F38401;fill-opacity:1" d="M-1.55,11.15L-1.45 10.85L-1.35 10.6L-1.4 10.5L-1.45 10.45L-1.4 10.25L-1.25 10.3L-1.05 10.3L-1.15 10.45L-1.15 10.4L-1.2 10.4L-1.3 10.35L-1.4 10.4L-1.4 10.45L-1.25 10.5L-1.15 10.5L-1.5 11.15L-1.55 11.15" />
<path style="fill:#EBC316;fill-opacity:1" d="M-1.25,10.5L-1.4 10.45L-1.4 10.4L-1.3 10.35L-1.2 10.4L-1.15 10.4L-1.15 10.45L-1.15 10.5L-1.25 10.5" />
<path style="fill:#DB4908;fill-opacity:1" d="M-1.5,10.4L-1.6 10.65L-1.7 10.9L-1.85 10.5L-2 10.2L-1.95 10.2L-1.65 10.2L-1.55 10.25L-1.5 10.4" />
<path style="fill:#EC6A0C;fill-opacity:1" d="M-2.05,11.1L-2.25 10.25L-2.1 10.25L-2 10.7L-1.95 11.1L-2.05 11.1" />
<path style="fill:#CC3B04;fill-opacity:1" d="M-1.6,11.15L-1.95 11.1L-2 10.7L-2.1 10.25L-2.05 10.25L-2 10.2L-1.85 10.5L-1.7 10.9L-1.6 10.65L-1.5 10.4L-1.55 10.25L-1.4 10.25L-1.45 10.45L-1.6 11.15" />
<path style="fill:#D26200;fill-opacity:1" d="M-1.45,10.45L-1.4 10.5L-1.35 10.6L-1.45 10.85L-1.55 11.15L-1.6 11.15L-1.45 10.45" />
<linearGradient
id="LinearGradID_9484" gradientUnits="userSpaceOnUse" gradientTransform="matrix(0.000564575, 0, 0, -0.000366211, -1.6, 11.65)" spreadMethod ="pad" x1="-819.2" y1="0" x2="819.2" y2="0" >
<stop  offset="0" style="stop-color:#F79F02;stop-opacity:0.980392" />
<stop  offset="1" style="stop-color:#CD4304;stop-opacity:0.85098" />
</linearGradient>
<path style="fill:url(#LinearGradID_9484) " d="M-1.15,11.4L-1.25 11.9L-2.05 11.95L-2 11.5L-2 11.35L-1.15 11.4" />
<linearGradient
id="LinearGradID_9485" gradientUnits="userSpaceOnUse" gradientTransform="matrix(0.000610352, 0, 0, -0.000366211, -1.9, 12.6)" spreadMethod ="pad" x1="-819.2" y1="0" x2="819.2" y2="0" >
<stop  offset="0" style="stop-color:#F79F02;stop-opacity:0.980392" />
<stop  offset="1" style="stop-color:#CD4304;stop-opacity:0.85098" />
</linearGradient>
<path style="fill:url(#LinearGradID_9485) " d="M-2.35,12.9L-2.15 12.3L-1.4 12.3L-1.6 12.85L-2.35 12.9" />
<linearGradient
id="LinearGradID_9486" gradientUnits="userSpaceOnUse" gradientTransform="matrix(0.000656128, 0, 0, -0.000259399, -2.35, 13.4)" spreadMethod ="pad" x1="-819.2" y1="0" x2="819.2" y2="0" >
<stop  offset="0" style="stop-color:#F79F02;stop-opacity:0.980392" />
<stop  offset="1" style="stop-color:#CD4304;stop-opacity:0.85098" />
</linearGradient>
<path style="fill:url(#LinearGradID_9486) " d="M-2.85,13.55L-2.7 13.35L-2.6 13.3L-2.55 13.2L-1.8 13.2L-1.85 13.3L-1.9 13.35L-2 13.6L-2.05 13.6L-2.85 13.55" />
<linearGradient
id="LinearGradID_9487" gradientUnits="userSpaceOnUse" gradientTransform="matrix(-0.00253296, 0, 0, 0.000320435, -4.8, 14.85)" spreadMethod ="pad" x1="-819.2" y1="0" x2="819.2" y2="0" >
<stop  offset="0" style="stop-color:#F8A201;stop-opacity:0.6" />
<stop  offset="1" style="stop-color:#F68600;stop-opacity:0.85098" />
</linearGradient>
<path style="fill:url(#LinearGradID_9487) " d="M-3.6,14.85L-4.1 15L-4.35 15.1L-6.9 14.95L-7.35 14.8L-7.75 14.6L-6.2 14.55L-5.2 14.65L-3.6 14.85" />
<linearGradient
id="LinearGradID_9488" gradientUnits="userSpaceOnUse" gradientTransform="matrix(0.000869751, 0, 0, -0.000274658, -3.15, 14.15)" spreadMethod ="pad" x1="-819.2" y1="0" x2="819.2" y2="0" >
<stop  offset="0" style="stop-color:#F79F02;stop-opacity:0.980392" />
<stop  offset="1" style="stop-color:#CD4304;stop-opacity:0.85098" />
</linearGradient>
<path style="fill:url(#LinearGradID_9488) " d="M-2.4,14.05L-2.8 14.4L-3.85 14.3L-3.25 13.95L-2.4 14.05" />
<radialGradient
id="RadialGradID_9489" gradientUnits="userSpaceOnUse" gradientTransform="matrix(-0.00860596, 0, 0, 0.00860596, -3.95, 8)" spreadMethod ="pad" cx="0" cy="0" r="819.2" fx="0" fy="0" >
<stop  offset="0"  style="stop-color:#542400;stop-opacity:0.392157" />
<stop  offset="1"  style="stop-color:#735943;stop-opacity:0" />
</radialGradient>
<path style="fill:url(#RadialGradID_9489) " d="M-6.45,7.8L-10.45 8.3Q-10.85 8.3 -11 8.45L-10.8 8.25L-10.75 8.25L-6.85 7.75Q-4.45 7.5 -2.65 8.5Q-2 8.9 -1.2 8.95L-0.05 8.95L-0.05 9.05L-1.7 9.05Q-2.25 8.9 -2.75 8.55L-2.8 8.5Q-4.15 7.8 -6.35 7.8L-6.45 7.8" />
<radialGradient
id="RadialGradID_9490" gradientUnits="userSpaceOnUse" gradientTransform="matrix(-0.00791931, 0, 0, 0.00791931, -6.9, 14.4)" spreadMethod ="pad" cx="0" cy="0" r="819.2" fx="0" fy="0" >
<stop  offset="0"  style="stop-color:#FFFFFF;stop-opacity:0.85098" />
<stop  offset="1"  style="stop-color:#FFFFFF;stop-opacity:0" />
</radialGradient>
<path style="fill:url(#RadialGradID_9490) " d="M-8.35,9Q-9.6 9.7 -9.25 11.65L-9.2 11.75Q-8.75 13.4 -7.1 14.25L-7.1 14.3L-4 14.4L-3.95 14.4Q-2.25 13.5 -2.05 11.75L-2 11.55Q-1.95 9.85 -3.4 9.05Q-2.7 9.4 -2.35 9.85L-1.9 11.05L-1.95 11.75L-2.3 13.05L-3.55 14.25Q-4.1 14.6 -4.75 14.7L-6.6 14.55Q-7.5 14.3 -8.2 13.6L-9 12.65L-9.35 11.75L-9.45 10.75L-9.45 10.7Q-9.4 9.85 -8.85 9.25Q-8.6 9 -7.75 8.8L-8.35 9" />
<radialGradient
id="RadialGradID_9491" gradientUnits="userSpaceOnUse" gradientTransform="matrix(-0.0119019, 0, 0, 0.0119019, -9.05, 13.05)" spreadMethod ="pad" cx="0" cy="0" r="819.2" fx="0" fy="0" >
<stop  offset="0"  style="stop-color:#991200;stop-opacity:0.682353" />
<stop  offset="1"  style="stop-color:#F15E01;stop-opacity:0" />
</radialGradient>
<path style="fill:url(#RadialGradID_9491) " d="M-7.4,14.8Q-8.7 14.2 -9.6 12.8L-9.6 12.75L-10.05 11.75L-10.15 11.45Q-10.45 11.05 -10.85 11L-10.9 10.9Q-10.15 11.05 -9.95 11.5L-9.9 11.75Q-9.55 12.9 -8.9 13.55Q-8.3 14.3 -7.4 14.65L-7.4 14.8" />
<radialGradient
id="RadialGradID_9492" gradientUnits="userSpaceOnUse" gradientTransform="matrix(-0.0125275, 0, 0, 0.0125275, -1.6, 13.2)" spreadMethod ="pad" cx="0" cy="0" r="819.2" fx="0" fy="0" >
<stop  offset="0"  style="stop-color:#780B00;stop-opacity:0.843137" />
<stop  offset="1"  style="stop-color:#F15E01;stop-opacity:0" />
</radialGradient>
<path style="fill:url(#RadialGradID_9492) " d="M-0.35,10Q-0.95 10.1 -1 10.7L-1.2 11.75L-2 13.6Q-2.8 14.7 -4.1 15.05L-4.6 15.15L-7.35 14.85L-7.4 14.8L-7.4 14.65L-6.1 15.05L-4.6 15.05L-4.3 14.95L-4.1 14.9L-4 14.9L-3.55 14.75L-2.45 14.05L-2.45 14Q-1.65 13.05 -1.3 11.75L-1.25 11.45L-1.1 10.7L-1.45 11.15L-0.95 10.25Q-0.85 10.05 -0.35 10M-2.2,13.4L-1.55 12.1Q-1.8 13 -2.35 13.75L-2.7 14.1L-2.2 13.4" />
<path style="fill:#D15500;fill-opacity:0.6" d="M-0.95,10.25L-1.45 11.15L-1.1 10.7L-1.25 11.45L-1.3 11.75Q-1.65 13.05 -2.45 14L-2.45 14.05L-3.55 14.75L-4 14.9L-3.35 14.55L-3.25 14.5Q-2.05 13.5 -1.8 12.05L-1.75 11.75Q-1.4 10.55 -0.9 10.05L-0.05 9.85L-0.05 9.95L-0.25 9.95L-0.35 10Q-0.85 10.05 -0.95 10.25M-2.7,14.1L-2.35 13.75Q-1.8 13 -1.55 12.1L-2.2 13.4L-2.7 14.1" />
<path style="fill:#CC7000;fill-opacity:1" d="M10.75,9.2L10.75 9.25L10.8 9.35L10.8 9.45L10.8 9.55L10.75 9.6L10.85 9.65L10.95 9.55L11 9.4L10.95 9.15L10.75 9.2M11.05,9.1L11.05 9.65L10.7 9.65L10.7 9.15L11.05 9.1" />
<path style="fill:#C94200;fill-opacity:1" d="M10.95,9.15L11 9.4L10.95 9.55L10.85 9.65L10.75 9.6L10.8 9.55L10.8 9.45L10.8 9.35L10.75 9.25L10.75 9.2L10.95 9.15" />
<path style="fill:#BD6C00;fill-opacity:1" d="M10.55,9.95L10.35 9.95L10.2 9.9L10.15 9.05L10.55 9.05L10.55 9.35L10.45 9.1L10.3 9.25L10.3 9.55L10.3 9.75L10.35 9.85L10.5 9.7L10.55 9.45L10.55 9.95" />
<path style="fill:#963D05;fill-opacity:1" d="M10.55,9.45L10.5 9.7L10.35 9.85L10.3 9.75L10.3 9.55L10.3 9.25L10.45 9.1L10.55 9.35L10.55 9.45" />
<linearGradient
id="LinearGradID_9493" gradientUnits="userSpaceOnUse" gradientTransform="matrix(-0.00689697, 0, 0, 0.000183105, 5.5, 9.1)" spreadMethod ="pad" x1="-819.2" y1="0" x2="819.2" y2="0" >
<stop  offset="0" style="stop-color:#FFE799;stop-opacity:0.972549" />
<stop  offset="0.47451" style="stop-color:#FFF6D9;stop-opacity:0.611765" />
<stop  offset="1" style="stop-color:#FCC30C;stop-opacity:0.760784" />
</linearGradient>
<path style="fill:url(#LinearGradID_9493) " d="M8.85,9.5L8.6 9.25L8.6 9.2L10.3 9L10.7 8.95L10.95 8.85L10.95 9.05L8.85 9.5M9.15,10.15L9.05 9.9L9.05 9.8L9.6 9.8L10.9 9.7L10.85 9.9L9.15 10.15M9.25,11L9.25 10.6L10.8 10.45L10.8 10.85L9.25 11M9.05,11.9L9.15 11.6L10.05 11.55L9.9 11.9L9.05 11.9M9.65,12.5L9.5 12.75L9.45 12.85L8.55 12.9L8.85 12.45L9.65 12.5M9.15,13.3L8.85 13.65L8.8 13.7L7.8 13.7L7.9 13.65L8.3 13.3L8.35 13.2L9.15 13.3M6.1,14.55L7 14.25L7.45 14L7.55 14.05L8.35 14.1L7.7 14.6L7.65 14.6L6.1 14.55M3.5,14.85L2.7 14.4L3.75 14.3L3.85 14.35L3.9 14.4L5.1 14.65L3.5 14.85M2.3,14.05L1.95 13.6L2.75 13.55L2.85 13.65L3.15 13.95L2.3 14.05M2.25,12.9L2.3 12.9L2.45 13.2L1.7 13.2L1.5 12.85L2.25 12.9M1.95,11.95L2.05 12.3L1.3 12.3L1.15 11.9L1.95 11.95M1.05,11.4L1.05 11.35L1 11.2L1.4 11.15L1.45 11.15L1.5 11.15L1.85 11.1L1.95 11.1L1.9 11.35L1.05 11.4M2.2,10.1L2.15 10.25L2 10.25L1.95 10.25L1.9 10.2L1.85 10.2L1.55 10.2L1.45 10.25L1.3 10.25L1.15 10.3L0.95 10.3L0.8 10.35L0.55 10.05L2.2 10.1M-0.05,9.65L-0.05 9.4L2.8 9.35L2.5 9.65L-0.05 9.65M9.25,8L9.35 8L10.65 8.2L9 8.25L8.5 8.25L8.35 8.25L7.25 8.3L5.9 8.3L4.75 8.25L3.35 8.25L3.25 8.25L3.05 8.35L2.55 8.6L4.4 8.65L3.5 8.95L3.45 8.95L1.25 8.95L2.25 8.65L2.55 8.5L2.55 8.45L2.95 8.25L3.3 8.15L4 7.95L4.05 8L9.25 8M10.7,8.25L10.8 8.25L10.8 8.3L10.9 8.4L10.7 8.45L7.8 8.8L6.8 8.6L10.7 8.25" />
<path style="fill:#FFC903;fill-opacity:0.933333" d="M10.7,8.5L8.05 8.9L8 8.9L7.8 8.8L10.7 8.45L10.9 8.4L10.9 8.5L10.7 8.5M10.95,8.65L10.95 8.85L10.7 8.95L10.3 9L8.6 9.2L10.6 8.85L10.7 8.85L10.95 8.65M10.95,9.05L10.9 9.2L8.95 9.6L9.6 9.8L9.05 9.8L9 9.75L8.85 9.5L10.95 9.05M9.25,10.6L9.15 10.15L10.85 9.9L10.85 10L9.35 10.25L10.8 10.35L10.8 10.45L9.25 10.6" />
<linearGradient
id="LinearGradID_9494" gradientUnits="userSpaceOnUse" gradientTransform="matrix(0.00500488, 0, 0, 0.000274658, 6.65, 8.35)" spreadMethod ="pad" x1="-819.2" y1="0" x2="819.2" y2="0" >
<stop  offset="0" style="stop-color:#F7C202;stop-opacity:1" />
<stop  offset="1" style="stop-color:#F68600;stop-opacity:0.85098" />
</linearGradient>
<path style="fill:url(#LinearGradID_9494) " d="M6.8,8.6L6.3 8.5L4.45 8.65L4.4 8.65L2.55 8.6L3.05 8.35L5.9 8.3L7.25 8.3L8.35 8.25L8.5 8.25L9 8.25L10.65 8.2L10.7 8.2L10.7 8.25L6.8 8.6" />
<linearGradient
id="LinearGradID_9495" gradientUnits="userSpaceOnUse" gradientTransform="matrix(0.00177002, 0, 0, -0.000762939, 9.5, 9.15)" spreadMethod ="pad" x1="-819.2" y1="0" x2="819.2" y2="0" >
<stop  offset="0" style="stop-color:#FFAB03;stop-opacity:0.941176" />
<stop  offset="1" style="stop-color:#F58000;stop-opacity:1" />
</linearGradient>
<path style="fill:url(#LinearGradID_9495) " d="M8.85,9.5L9 9.75L8.05 8.9L10.7 8.5L10.9 8.5L10.95 8.65L10.7 8.85L10.6 8.85L8.6 9.2L8.55 9.2L8.6 9.25L8.85 9.5" />
<path style="fill:#FFC903;fill-opacity:0.823529" d="M10.8,10.85L10.8 10.9L9.2 11.1L9.25 11L10.8 10.85M9.15,11.6L9.2 11.45L10.05 11.5L10.05 11.55L9.15 11.6M3.05,8.35L3.25 8.25L3.35 8.25L4.75 8.25L5.9 8.3L3.05 8.35" />
<linearGradient
id="LinearGradID_9496" gradientUnits="userSpaceOnUse" gradientTransform="matrix(0.00112915, 0, 0, 0.000259399, 10, 10.2)" spreadMethod ="pad" x1="-819.2" y1="0" x2="819.2" y2="0" >
<stop  offset="0" style="stop-color:#F7C202;stop-opacity:1" />
<stop  offset="1" style="stop-color:#F68600;stop-opacity:0.85098" />
</linearGradient>
<path style="fill:url(#LinearGradID_9496) " d="M10.8,10.9L10.75 11Q10.35 11.05 10.05 11.45L10.05 11.5L9.2 11.45L9.2 11.1L10.8 10.9M8.85,12.45L9.05 11.9L9.9 11.9L9.65 12.5L8.85 12.45M9.45,12.85L9.15 13.3L8.35 13.2L8.55 12.9L9.45 12.85M7.55,14.05L7.45 14L7.8 13.75L7.8 13.7L8.8 13.7L8.35 14.1L7.55 14.05" />
<linearGradient
id="LinearGradID_9497" gradientUnits="userSpaceOnUse" gradientTransform="matrix(0.00112915, 0, 0, 0.000259399, 10, 10.2)" spreadMethod ="pad" x1="-819.2" y1="0" x2="819.2" y2="0" >
<stop  offset="0" style="stop-color:#FFAB03;stop-opacity:0.941176" />
<stop  offset="1" style="stop-color:#F58000;stop-opacity:1" />
</linearGradient>
<path style="fill:url(#LinearGradID_9497) " d="M9.6,9.8L8.95 9.6L10.9 9.2L10.9 9.7L9.6 9.8M9.35,10.25L10.85 10L10.8 10.35L9.35 10.25" />
<radialGradient
id="RadialGradID_9498" gradientUnits="userSpaceOnUse" gradientTransform="matrix(0.00741577, 0, 0, 0.00741577, 4.85, 8.6)" spreadMethod ="pad" cx="0" cy="0" r="819.2" fx="0" fy="0" >
<stop  offset="0"  style="stop-color:#383038;stop-opacity:1" />
<stop  offset="1"  style="stop-color:#000000;stop-opacity:1" />
</radialGradient>
<path style="fill:url(#RadialGradID_9498) " d="M7.8,8.8L8 8.9L8.05 8.9L9 9.75L9.05 9.8L9.05 9.9L9.15 10.15L9.25 10.6L9.25 11L9.2 11.1L9.2 11.45L9.15 11.6L9.05 11.9L8.85 12.45L8.55 12.9L8.35 13.2L8.3 13.3L7.9 13.65L7.8 13.7L7.8 13.75L7.45 14L7 14.25L6.1 14.55L5.1 14.65L3.9 14.4L3.85 14.35L3.75 14.3L3.15 13.95L2.85 13.65L2.75 13.55L2.6 13.35L2.5 13.3L2.45 13.2L2.3 12.9L2.25 12.9L2.05 12.3L1.95 11.95L1.9 11.5L1.9 11.35L1.95 11.1L2.15 10.25L2.2 10.1L2.2 10.05L2.25 10L2.5 9.65L2.8 9.35L3.3 9.05L3.35 9L3.45 8.95L3.5 8.95L4.4 8.65L4.45 8.65L6.3 8.5L6.8 8.6L7.8 8.8M3.3,9.15Q2.65 9.45 2.25 10.25L2 11.1L2 11.15Q2 11.95 2.25 12.6L2.65 13.3L2.75 13.35L3 13.65L3.25 13.9L3.45 14.05L6.8 14.2L7.7 13.65L8.15 13.3L8.95 11.85L9 10.2Q8.6 9.2 7.75 8.9L7.65 8.9L6.3 8.65Q4.85 8.55 3.35 9.15L3.3 9.15" />
<linearGradient
id="LinearGradID_9499" gradientUnits="userSpaceOnUse" gradientTransform="matrix(0.00213623, 0, 0, 0.000289917, 1.7, 9.15)" spreadMethod ="pad" x1="-819.2" y1="0" x2="819.2" y2="0" >
<stop  offset="0" style="stop-color:#F7C202;stop-opacity:1" />
<stop  offset="1" style="stop-color:#F68600;stop-opacity:0.85098" />
</linearGradient>
<path style="fill:url(#LinearGradID_9499) " d="M-0.05,9.4L-0.05 8.95L1.1 8.95L1.25 8.95L3.45 8.95L3.35 9L3.3 9.05L2.8 9.35L-0.05 9.4" />
<radialGradient
id="RadialGradID_9500" gradientUnits="userSpaceOnUse" gradientTransform="matrix(0.0109253, 0, 0, 0.00709534, 5.4, 9.25)" spreadMethod ="pad" cx="0" cy="0" r="819.2" fx="0" fy="0" >
<stop  offset="0"  style="stop-color:#33253D;stop-opacity:0.6" />
<stop  offset="1"  style="stop-color:#000000;stop-opacity:0.85098" />
</radialGradient>
<path style="fill:url(#RadialGradID_9500) " d="M3.35,9.15Q4.85 8.55 6.3 8.65L7.65 8.9L7.75 8.9Q8.6 9.2 9 10.2L8.95 11.85L8.15 13.3L7.7 13.65L6.8 14.2L3.45 14.05L3.25 13.9L3 13.65L2.75 13.35L2.65 13.3L2.25 12.6Q2 11.95 2 11.15L2 11.1L2.25 10.25Q2.65 9.45 3.3 9.15L3.35 9.15" />
<linearGradient
id="LinearGradID_9501" gradientUnits="userSpaceOnUse" gradientTransform="matrix(-0.0017395, 0.000183105, -1.52588e-05, -0.000198364, 1.4, 9.5)" spreadMethod ="pad" x1="-819.2" y1="0" x2="819.2" y2="0" >
<stop  offset="0" style="stop-color:#FFC60F;stop-opacity:0" />
<stop  offset="1" style="stop-color:#FCC30C;stop-opacity:0.501961" />
</linearGradient>
<path style="fill:url(#LinearGradID_9501) " d="M6.3,7.75L5.2 7.8L4.05 8L4 7.95L6.3 7.7L6.75 7.7L7.75 7.8L6.3 7.75M8.6,9.25L8.55 9.2L8.6 9.2L8.6 9.25" />
<linearGradient
id="LinearGradID_9502" gradientUnits="userSpaceOnUse" gradientTransform="matrix(0.00154114, 0, 0, 0.000259399, 1.25, 9.85)" spreadMethod ="pad" x1="-819.2" y1="0" x2="819.2" y2="0" >
<stop  offset="0" style="stop-color:#F7C202;stop-opacity:1" />
<stop  offset="1" style="stop-color:#F68600;stop-opacity:0.85098" />
</linearGradient>
<path style="fill:url(#LinearGradID_9502) " d="M2.5,9.65L2.25 10L2.2 10.05L2.2 10.1L0.55 10.05L0.45 10L-0.05 9.95L-0.05 9.65L2.5 9.65" />
<path style="fill:#F38401;fill-opacity:1" d="M0.95,10.3L1.15 10.3L1.3 10.25L1.35 10.45L1.3 10.5L1.25 10.6L1.35 10.85L1.45 11.15L1.4 11.15L1.05 10.5L1.15 10.5L1.3 10.45L1.3 10.4L1.2 10.35L1.1 10.4L1.05 10.4L1.05 10.45L0.95 10.3" />
<path style="fill:#EBC316;fill-opacity:1" d="M1.05,10.45L1.05 10.4L1.1 10.4L1.2 10.35L1.3 10.4L1.3 10.45L1.15 10.5L1.05 10.5L1.05 10.45" />
<path style="fill:#DB4908;fill-opacity:1" d="M1.55,10.2L1.85 10.2L1.9 10.2L1.75 10.5L1.6 10.9L1.5 10.65L1.4 10.4L1.45 10.25L1.55 10.2" />
<path style="fill:#CC3B04;fill-opacity:1" d="M1.95,10.25L2 10.25L1.9 10.7L1.85 11.1L1.5 11.15L1.35 10.45L1.3 10.25L1.45 10.25L1.4 10.4L1.5 10.65L1.6 10.9L1.75 10.5L1.9 10.2L1.95 10.25" />
<path style="fill:#D26200;fill-opacity:1" d="M1.45,11.15L1.35 10.85L1.25 10.6L1.3 10.5L1.35 10.45L1.5 11.15L1.45 11.15" />
<path style="fill:#EC6A0C;fill-opacity:1" d="M1.85,11.1L1.9 10.7L2 10.25L2.15 10.25L1.95 11.1L1.85 11.1" />
<path style="fill:#CA4D0A;fill-opacity:1" d="M1,11.2L0.9 10.7L0.8 10.35L0.95 10.3L1.05 10.45L1.05 10.5L1.4 11.15L1 11.2" />
<linearGradient
id="LinearGradID_9503" gradientUnits="userSpaceOnUse" gradientTransform="matrix(-0.000564575, 0, 0, -0.000366211, 1.5, 11.65)" spreadMethod ="pad" x1="-819.2" y1="0" x2="819.2" y2="0" >
<stop  offset="0" style="stop-color:#F79F02;stop-opacity:0.980392" />
<stop  offset="1" style="stop-color:#CD4304;stop-opacity:0.85098" />
</linearGradient>
<path style="fill:url(#LinearGradID_9503) " d="M1.9,11.35L1.9 11.5L1.95 11.95L1.15 11.9L1.05 11.4L1.9 11.35" />
<linearGradient
id="LinearGradID_9504" gradientUnits="userSpaceOnUse" gradientTransform="matrix(-0.000610352, 0, 0, -0.000366211, 1.8, 12.6)" spreadMethod ="pad" x1="-819.2" y1="0" x2="819.2" y2="0" >
<stop  offset="0" style="stop-color:#F79F02;stop-opacity:0.980392" />
<stop  offset="1" style="stop-color:#CD4304;stop-opacity:0.85098" />
</linearGradient>
<path style="fill:url(#LinearGradID_9504) " d="M1.5,12.85L1.3 12.3L2.05 12.3L2.25 12.9L1.5 12.85" />
<linearGradient
id="LinearGradID_9505" gradientUnits="userSpaceOnUse" gradientTransform="matrix(0.00216675, 0, 0, 9.15527e-05, 6.1, 7.95)" spreadMethod ="pad" x1="-819.2" y1="0" x2="819.2" y2="0" >
<stop  offset="0" style="stop-color:#F7C202;stop-opacity:1" />
<stop  offset="1" style="stop-color:#F68600;stop-opacity:0.85098" />
</linearGradient>
<path style="fill:url(#LinearGradID_9505) " d="M4.05,8L5.2 7.8L6.3 7.75L7.75 7.8L8.05 7.85L8.15 7.85L9.25 8L4.05 8" />
<linearGradient
id="LinearGradID_9506" gradientUnits="userSpaceOnUse" gradientTransform="matrix(0.00253296, 0, 0, 0.000320435, 4.7, 14.85)" spreadMethod ="pad" x1="-819.2" y1="0" x2="819.2" y2="0" >
<stop  offset="0" style="stop-color:#F8A201;stop-opacity:0.6" />
<stop  offset="1" style="stop-color:#F68600;stop-opacity:0.85098" />
</linearGradient>
<path style="fill:url(#LinearGradID_9506) " d="M5.1,14.65L6.1 14.55L7.65 14.6L7.25 14.8L6.8 14.95L4.25 15.1L4 15L3.5 14.85L5.1 14.65" />
<linearGradient
id="LinearGradID_9507" gradientUnits="userSpaceOnUse" gradientTransform="matrix(-0.000656128, 0, 0, -0.000259399, 2.25, 13.4)" spreadMethod ="pad" x1="-819.2" y1="0" x2="819.2" y2="0" >
<stop  offset="0" style="stop-color:#F79F02;stop-opacity:0.980392" />
<stop  offset="1" style="stop-color:#CD4304;stop-opacity:0.85098" />
</linearGradient>
<path style="fill:url(#LinearGradID_9507) " d="M1.95,13.6L1.9 13.6L1.8 13.35L1.75 13.3L1.7 13.2L2.45 13.2L2.5 13.3L2.6 13.35L2.75 13.55L1.95 13.6" />
<linearGradient
id="LinearGradID_9508" gradientUnits="userSpaceOnUse" gradientTransform="matrix(-0.000869751, 0, 0, -0.000274658, 3.05, 14.15)" spreadMethod ="pad" x1="-819.2" y1="0" x2="819.2" y2="0" >
<stop  offset="0" style="stop-color:#F79F02;stop-opacity:0.980392" />
<stop  offset="1" style="stop-color:#CD4304;stop-opacity:0.85098" />
</linearGradient>
<path style="fill:url(#LinearGradID_9508) " d="M3.15,13.95L3.75 14.3L2.7 14.4L2.3 14.05L3.15 13.95" />
<radialGradient
id="RadialGradID_9509" gradientUnits="userSpaceOnUse" gradientTransform="matrix(0.0119019, 0, 0, 0.0119019, 8.95, 13.05)" spreadMethod ="pad" cx="0" cy="0" r="819.2" fx="0" fy="0" >
<stop  offset="0"  style="stop-color:#991200;stop-opacity:0.682353" />
<stop  offset="1"  style="stop-color:#F15E01;stop-opacity:0" />
</radialGradient>
<path style="fill:url(#RadialGradID_9509) " d="M7.3,14.65L8.8 13.55L9.8 11.75L9.85 11.5Q10.05 11.05 10.8 10.9L10.75 11Q10.35 11.05 10.05 11.45L9.95 11.75L9.5 12.75L9.5 12.8Q8.6 14.2 7.3 14.8L7.3 14.65" />
<radialGradient
id="RadialGradID_9510" gradientUnits="userSpaceOnUse" gradientTransform="matrix(0.00860596, 0, 0, 0.00860596, 3.85, 8)" spreadMethod ="pad" cx="0" cy="0" r="819.2" fx="0" fy="0" >
<stop  offset="0"  style="stop-color:#542400;stop-opacity:0.392157" />
<stop  offset="1"  style="stop-color:#735943;stop-opacity:0" />
</radialGradient>
<path style="fill:url(#RadialGradID_9510) " d="M10.35,8.3L6.35 7.8L6.25 7.8Q4.05 7.8 2.7 8.5L2.65 8.55L1.6 9.05L-0.05 9.05L-0.05 8.95L1.1 8.95L2.55 8.5Q4.35 7.5 6.75 7.75L10.65 8.25L10.7 8.25L10.9 8.45Q10.75 8.3 10.35 8.3" />
<radialGradient
id="RadialGradID_9511" gradientUnits="userSpaceOnUse" gradientTransform="matrix(0.0125275, 0, 0, 0.0125275, 1.5, 13.2)" spreadMethod ="pad" cx="0" cy="0" r="819.2" fx="0" fy="0" >
<stop  offset="0"  style="stop-color:#780B00;stop-opacity:0.843137" />
<stop  offset="1"  style="stop-color:#F15E01;stop-opacity:0" />
</radialGradient>
<path style="fill:url(#RadialGradID_9511) " d="M0.85,10.25L1.35 11.15L1 10.7L1.15 11.45L1.2 11.75Q1.55 13.05 2.35 14L2.35 14.05L3.45 14.75L3.9 14.9L3.95 14.9L4 14.9L4.2 14.95L4.5 15.05L6 15.05L7.3 14.65L7.3 14.8L7.25 14.85L4.5 15.15L4 15.05Q2.7 14.7 1.9 13.6L1.1 11.75L0.9 10.7Q0.85 10.1 0.25 10Q0.75 10.05 0.85 10.25M2.65,14.1L2.25 13.75Q1.7 13 1.45 12.1L2.1 13.4L2.65 14.1" />
<path style="fill:#D15500;fill-opacity:0.6" d="M0.25,10L0.15 9.95L-0.05 9.95L-0.05 9.85L0.8 10.05Q1.3 10.55 1.65 11.75L1.7 12.05Q1.95 13.5 3.15 14.5L3.25 14.55L3.9 14.9L3.45 14.75L2.35 14.05L2.35 14Q1.55 13.05 1.2 11.75L1.15 11.45L1 10.7L1.35 11.15L0.85 10.25Q0.75 10.05 0.25 10M2.1,13.4L1.45 12.1Q1.7 13 2.25 13.75L2.65 14.1L2.1 13.4" />
<radialGradient
id="RadialGradID_9512" gradientUnits="userSpaceOnUse" gradientTransform="matrix(0.00791931, 0, 0, 0.00791931, 6.8, 14.4)" spreadMethod ="pad" cx="0" cy="0" r="819.2" fx="0" fy="0" >
<stop  offset="0"  style="stop-color:#FFFFFF;stop-opacity:0.85098" />
<stop  offset="1"  style="stop-color:#FFFFFF;stop-opacity:0" />
</radialGradient>
<path style="fill:url(#RadialGradID_9512) " d="M1.8,11.05L2.25 9.85L3.3 9.05Q1.85 9.85 1.9 11.55L1.95 11.75Q2.15 13.5 3.85 14.4L3.9 14.4L7 14.3L7 14.25Q8.65 13.4 9.1 11.75L9.15 11.65Q9.5 9.7 8.25 9L7.65 8.8Q8.5 9 8.75 9.25Q9.3 9.85 9.35 10.7L9.35 10.75L9.25 11.75L8.9 12.65L8.1 13.6Q7.4 14.3 6.5 14.55L4.65 14.7L3.45 14.25L2.2 13.05L1.85 11.75L1.8 11.05" />
</g>
</svg>
