<svg xmlns="http://www.w3.org/2000/svg" width="10" height="13"><g transform="translate(0 -.7)"><path d="M5.35 13.45H5.3l.05-.15v-.35q-.05-.4.35-.6.4-.25.8.15.25.3.1.6l-.1.15-.45.2H5.35m-3.45.05h-.5l-.65-.45H.7v-.15q.25-.45.9-.45t.55.5l-.05.4.05.15H1.9" fill="#823909"/><radialGradient id="a" gradientUnits="userSpaceOnUse" gradientTransform="matrix(.00366 .0001 -.00012 .00342 3.95 15.15)" spreadMethod="pad" cx="0" cy="0" r="819.2" fx="0" fy="0"><stop offset="0" stop-color="#f39b61"/><stop offset="1" stop-color="#f8be98"/></radialGradient><path d="M5.35 13.15v.15l-.05.15h.05l-.05.05h.2l.55-.05.45-.2.1-.15q.15-.3-.1-.6-.4-.4-.8-.15-.4.2-.35.6v.2M6.4 10.7l-.15-.85q1.6 1.25 1.85 1.8l.1.3.05.15q0 .65-.35.95l-1.05.45-1.65.05H2.55l-1.9.1-.25-.15-.05-.05q-.7-.65.1-1.4l.1-.1h.1l1.3-.35 1.9-.15 1.8.1q.6.15.75-.85m-5 2.8l.5.05.25-.05H2.1h.05l-.05-.15.05-.2v-.2q.1-.5-.55-.5t-.9.45v.15h.05l-.05.05.05-.05.65.45" fill="url(#a)"/><radialGradient id="b" gradientUnits="userSpaceOnUse" gradientTransform="matrix(.00139 .0001 -.00006 .00502 3.8 4.7)" spreadMethod="pad" cx="0" cy="0" r="819.2" fx="0" fy="0"><stop offset=".314" stop-color="#fff" stop-opacity=".431"/><stop offset="1" stop-color="#fff" stop-opacity="0"/></radialGradient><path d="M3.85.7q.35 0 .6 1.2l.25 2.9-.3 2.85v.05l-.2.55-.05.1-.4.45-.4-.55-.05-.1-.15-.45v-.1Q2.9 6.35 2.9 4.65l.3-2.9Q3.45.6 3.85.7" fill="url(#b)"/><radialGradient id="c" gradientUnits="userSpaceOnUse" gradientTransform="matrix(.00107 .00006 -.00006 .001 3.55 10.15)" spreadMethod="pad" cx="0" cy="0" r="819.2" fx="0" fy="0"><stop offset=".314" stop-color="#fff" stop-opacity=".431"/><stop offset="1" stop-color="#fff" stop-opacity="0"/></radialGradient><path d="M2.9 9.55q.25-.25.65-.2l.6.25.2.6-.3.55-.35.2-.25.05-.3-.1-.3-.2q-.25-.25-.2-.6 0-.3.25-.55" fill="url(#c)"/><radialGradient id="d" gradientUnits="userSpaceOnUse" gradientTransform="matrix(.0029 -.00003 .00006 .00476 6.5 5.1)" spreadMethod="pad" cx="0" cy="0" r="819.2" fx="0" fy="0"><stop offset=".337" stop-color="#f9c29f"/><stop offset="1" stop-color="#fedec1" stop-opacity="0"/></radialGradient><path d="M9.35 6.3q-.15.75-1.85 1.15-.55.1-1.05.95v.05l-.1-.15q-.15-1.35.1-2.85l.8-3.75-.05.5.05-.55q.6 2.7 1.6 3.35l.45.45.05.85" fill="url(#d)"/></g></svg>