<svg xmlns="http://www.w3.org/2000/svg" width="5" height="9"><g><radialGradient id="a" gradientUnits="userSpaceOnUse" gradientTransform="matrix(.00134 -.0001 .00018 .00258 2.75 3.7)" spreadMethod="pad" cx="0" cy="0" r="819.2" fx="0" fy="0"><stop offset=".337" stop-color="#f9c29f"/><stop offset="1" stop-color="#fedec1" stop-opacity="0"/></radialGradient><path d="M4.05 4.25q0 .45-.8.7-.25.1-.5.55l.05-.05-.15-1.55.3-2.05v.25-.3q.35 1.45.85 1.8l.25.2v.45" fill="url(#a)"/><path d="M2.1 7.8h-.25l-.2-.2.35.15.4-.15-.3.2" fill="#fff" fill-opacity=".502"/><path d="M2.85 6.65l-.2.6-.1.15.2-.55V6.5L2.6 3.95l.15-2.75.1.75L2.8 3.5l-.1 1.2.05.25.1 1.7" fill="#f8b98d" fill-opacity=".502"/><radialGradient id="b" gradientUnits="userSpaceOnUse" gradientTransform="matrix(.00092 -.00194 .00177 .001 2.85 1)" spreadMethod="pad" cx="0" cy="0" r="819.2" fx="0" fy="0"><stop offset="0" stop-color="#f39b61" stop-opacity=".643"/><stop offset="1" stop-color="#f8be98" stop-opacity=".353"/></radialGradient><path d="M3.35 2.7l-.5-.75-.1-.75v-.05l.15-.5.8-.65q-.15.5.3.75-.6.8-.6 1.55l.05.55v.05l-.1-.2" fill="url(#b)"/><radialGradient id="c" gradientUnits="userSpaceOnUse" gradientTransform="matrix(.00963 0 0 .01064 1.8 -.5)" spreadMethod="pad" cx="0" cy="0" r="819.2" fx="0" fy="0"><stop offset="0" stop-color="#f39b61" stop-opacity=".471"/><stop offset="1" stop-color="#f8be98" stop-opacity="0"/></radialGradient><path d="M1.1 6.75l.05.35-.3-.65-.3-.55-.3.05.1-.2.3-1.25.2-2.2q.2-1.2-.3-1.35L.4.2V.15q.85.3 1.1.85l.1.3q-.35 1.2-.35 1.8l.1 1.15-.05.4-.05.5-.15 1.6" fill="url(#c)"/><radialGradient id="d" gradientUnits="userSpaceOnUse" gradientTransform="matrix(.00197 .00021 -.0002 .00218 3.15 1.3)" spreadMethod="pad" cx="0" cy="0" r="819.2" fx="0" fy="0"><stop offset="0" stop-color="#f39b61" stop-opacity=".502"/><stop offset="1" stop-color="#f8be98" stop-opacity=".353"/></radialGradient><path d="M3.9 3.7h-.05l.05-.05v.05" fill="url(#d)"/><radialGradient id="e" gradientUnits="userSpaceOnUse" gradientTransform="matrix(-.00003 .00673 -.00601 -.00003 5.45 4.7)" spreadMethod="pad" cx="0" cy="0" r="819.2" fx="0" fy="0"><stop offset="0" stop-color="#f39b61" stop-opacity=".98"/><stop offset="1" stop-color="#f8be98" stop-opacity="0"/></radialGradient><path d="M2.95 5.85q.3-.6.4-1.9v.7q0 .65.3 1.1l.1.2-.25-.1q-.3 0-.45.55l-.1-.55" fill="url(#e)"/><radialGradient id="f" gradientUnits="userSpaceOnUse" gradientTransform="matrix(.00638 0 0 .00703 3.45 2.55)" spreadMethod="pad" cx="0" cy="0" r="819.2" fx="0" fy="0"><stop offset="0" stop-color="#f39b61" stop-opacity=".871"/><stop offset="1" stop-color="#f8be98" stop-opacity="0"/></radialGradient><path d="M3.15 7.15L3.1 6.6l-.05-.2q.15-.55.45-.55l.25.1.05.15.15.7-.65.65.15-.3h-.1l-.25.2.05-.2" fill="url(#f)"/><linearGradient id="g" gradientUnits="userSpaceOnUse" gradientTransform="matrix(-.00237 -.0002 .00032 -.0048 1.95 4.3)" x1="-819.2" x2="819.2"><stop offset="0" stop-color="#f39b61" stop-opacity=".333"/><stop offset="1" stop-color="#f8be98" stop-opacity=".871"/></linearGradient><path d="M2.4 7.6l.15-.2.1-.15.2-.6-.1-1.7.2.9.1.55.05.2.05.55-.05.2-.85.65-.3.1-.75-.55-.3-.3L.65 7l-.2.3-.25-.2q.1-.3.3-.3l.6.45.4.3.35.25h.25l.3-.2" fill="url(#g)"/><radialGradient id="h" gradientUnits="userSpaceOnUse" gradientTransform="matrix(.00243 0 0 .00267 2.05 7.65)" spreadMethod="pad" cx="0" cy="0" r="819.2" fx="0" fy="0"><stop offset="0" stop-color="#f39b61" stop-opacity=".592"/><stop offset="1" stop-color="#f8be98" stop-opacity="0"/></radialGradient><path d="M1.5 7.55l-.1-.05-.25-.4-.05-.35.15-1.6V6.6l.2.75.2.25.2.2-.35-.25" fill="url(#h)"/><radialGradient id="i" gradientUnits="userSpaceOnUse" gradientTransform="matrix(.00307 0 0 .00339 -2.1 5.2)" spreadMethod="pad" cx="0" cy="0" r="819.2" fx="0" fy="0"><stop offset="0" stop-color="#f39b61"/><stop offset="1" stop-color="#f8be98" stop-opacity=".553"/></radialGradient><path d="M1.4 7.5l.1.05-.4-.3-.6-.45q-.2 0-.3.3l-.15-.45.05-.5.15-.2.3-.05.3.55.3.65.25.4" fill="url(#i)"/><radialGradient id="j" gradientUnits="userSpaceOnUse" gradientTransform="matrix(.00638 0 0 .00703 3.45 2.55)" spreadMethod="pad" cx="0" cy="0" r="819.2" fx="0" fy="0"><stop offset="0" stop-color="#f39b61" stop-opacity=".463"/><stop offset="1" stop-color="#f8be98" stop-opacity="0"/></radialGradient><path d="M2.95 5.85l-.2-.9-.05-.25.1-1.2.05-1.55.5.75.1.2-.05.55-.05.25v.25q-.1 1.3-.4 1.9" fill="url(#j)"/><radialGradient id="k" gradientUnits="userSpaceOnUse" gradientTransform="matrix(.0001 -.00023 .00053 .00017 .4 6.4)" spreadMethod="pad" cx="0" cy="0" r="819.2" fx="0" fy="0"><stop offset=".314" stop-color="#fff" stop-opacity=".431"/><stop offset="1" stop-color="#fff" stop-opacity="0"/></radialGradient><path d="M.65 6.65h-.3l-.3-.15L0 6.35q0-.1.15-.1H.5l.3.15.05.2-.2.05" fill="url(#k)"/><radialGradient id="l" gradientUnits="userSpaceOnUse" gradientTransform="matrix(.00047 .00008 -.00002 .0031 1.65 3.3)" spreadMethod="pad" cx="0" cy="0" r="819.2" fx="0" fy="0"><stop offset=".314" stop-color="#fff" stop-opacity=".431"/><stop offset="1" stop-color="#fff" stop-opacity="0"/></radialGradient><path d="M1.65.85l.25.75.05 1.8-.1 1.75-.05.35v.05l-.15.3-.15-.35v-.05l-.05-.35-.1-1.8.1-1.8.2-.65" fill="url(#l)"/><radialGradient id="m" gradientUnits="userSpaceOnUse" gradientTransform="matrix(.00038 .00005 -.00003 .00087 1.6 6.7)" spreadMethod="pad" cx="0" cy="0" r="819.2" fx="0" fy="0"><stop offset=".314" stop-color="#fff" stop-opacity=".431"/><stop offset="1" stop-color="#fff" stop-opacity="0"/></radialGradient><path d="M1.9 6.75l-.15.5-.2.15-.2-.25-.1-.5.1-.45q.1-.2.25-.2l.2.2.1.55" fill="url(#m)"/><radialGradient id="n" gradientUnits="userSpaceOnUse" gradientTransform="matrix(-.00015 -.00018 -.00046 .00035 3.5 6.5)" spreadMethod="pad" cx="0" cy="0" r="819.2" fx="0" fy="0"><stop offset=".314" stop-color="#fff" stop-opacity=".431"/><stop offset="1" stop-color="#fff" stop-opacity="0"/></radialGradient><path d="M3.15 6.65l.25-.25.3-.15.2.05-.05.15-.2.25-.3.15h-.2v-.2" fill="url(#n)"/><radialGradient id="o" gradientUnits="userSpaceOnUse" gradientTransform="matrix(.0001 .00021 -.00015 .0005 2.65 7)" spreadMethod="pad" cx="0" cy="0" r="819.2" fx="0" fy="0"><stop offset=".314" stop-color="#fff" stop-opacity=".431"/><stop offset="1" stop-color="#fff" stop-opacity="0"/></radialGradient><path d="M2.75 6.65l.05.15-.1.35-.05.15-.05.1h-.1l-.05-.25.05-.35.15-.25h.1v.1" fill="url(#o)"/><path d="M3.05 7.45l-.1.1-.1.05-.1.1.25-.35.1-.05q.2-.25.35-.2v.05l-.4.3M1 7.4l-.15-.1-.25-.2L.55 7l.3.15.1.1.25.35h-.05l-.1-.1L1 7.4" fill="#823909" fill-opacity=".702"/></g></svg>