<?xml version="1.0" encoding="utf-8"?>
<svg version="1.1" id="Layer_1"
xmlns="http://www.w3.org/2000/svg"
xmlns:xlink="http://www.w3.org/1999/xlink"
xmlns:author="http://www.sothink.com"
width="24px" height="44px"
xml:space="preserve">
<g id="443" transform="matrix(1, 0, 0, 1, 3.3, 5.85)">
<radialGradient
id="RadialGradID_3929" gradientUnits="userSpaceOnUse" gradientTransform="matrix(0.00567627, -0.00222778, 0.00215149, 0.0163574, 13.6, 20.35)" spreadMethod ="pad" cx="0" cy="0" r="819.2" fx="0" fy="0" >
<stop  offset="0.337255"  style="stop-color:#F9C29F;stop-opacity:1" />
<stop  offset="1"  style="stop-color:#FEDEC1;stop-opacity:0" />
</radialGradient>
<path style="fill:url(#RadialGradID_3929) " d="M19.7,22.4Q19.75 25.15 16.65 27.6Q15.6 28.35 14.95 31.7L14.95 31.8L14.95 31.85L14.75 31.45Q13.9 26.8 13.65 21.5Q13.4 16.25 13.6 8L13.8 9.8L13.65 7.85Q15.9 16.75 18.2 18.3L19.3 19.3Q19.7 20.1 19.7 22.4" />
<radialGradient
id="RadialGradID_3930" gradientUnits="userSpaceOnUse" gradientTransform="matrix(0.00396729, 0, 0, 0.00830078, 2.55, 20.55)" spreadMethod ="pad" cx="0" cy="0" r="819.2" fx="0" fy="0" >
<stop  offset="0"  style="stop-color:#F8C898;stop-opacity:1" />
<stop  offset="0.0352941"  style="stop-color:#FDC7A7;stop-opacity:1" />
<stop  offset="1"  style="stop-color:#FDDDC0;stop-opacity:1" />
</radialGradient>
<path style="fill:url(#RadialGradID_3930) " d="M5.25,26.5L5.15 27.5Q0.75 29.85 1.35 26.6L2.35 19.9L3.45 9.75L4.75 16.55Q5.55 22.15 5.25 26.5" />
<radialGradient
id="RadialGradID_3931" gradientUnits="userSpaceOnUse" gradientTransform="matrix(0.000106812, 0.0065918, -0.0413208, 0.000778198, 13.05, 33.9)" spreadMethod ="pad" cx="0" cy="0" r="819.2" fx="0" fy="0" >
<stop  offset="0"  style="stop-color:#F8C898;stop-opacity:1" />
<stop  offset="0.0352941"  style="stop-color:#FDC7A7;stop-opacity:1" />
<stop  offset="1"  style="stop-color:#FDDDC0;stop-opacity:1" />
</radialGradient>
<path style="fill:url(#RadialGradID_3931) " d="M12.6,24.55L13.45 27.45L14 28.85Q14.4 30 13.4 31.2L12.7 31.85L10.8 33.75Q9.35 35.2 8.05 35Q6.7 34.8 5.35 33.5Q3.95 32.25 2.9 32.25Q1.8 32.25 1.35 33.05Q-0.95 31.5 -0.95 29.25Q-0.95 26.9 0.45 25.7Q1.85 24.55 1.5 25.5Q1.1 26.45 1.15 28.1Q1.2 29.8 2.3 30.2L3.9 30.7Q3.3 29.5 4.25 28.1Q4 29.3 4.35 30.05L4.95 31.1L5.45 31.7L6.3 32.4Q7.2 33.05 8.2 33.05Q9.4 33.05 10.65 32Q12 30.65 12.55 29.2L12.5 28.5L12.3 24.7L12.2 22.1L12.6 24.55M4.6,27.9L4.35 28.15L4.4 27.9Q4.55 26.8 4.6 27.9" />
<radialGradient
id="RadialGradID_3932" gradientUnits="userSpaceOnUse" gradientTransform="matrix(0.00785828, -0.00138855, 0.00300598, 0.0198822, 11.9, 21.6)" spreadMethod ="pad" cx="0" cy="0" r="819.2" fx="0" fy="0" >
<stop  offset="0"  style="stop-color:#F8C898;stop-opacity:1" />
<stop  offset="0.0352941"  style="stop-color:#FDC7A7;stop-opacity:1" />
<stop  offset="1"  style="stop-color:#FDDDC0;stop-opacity:1" />
</radialGradient>
<path style="fill:url(#RadialGradID_3932) " d="M11.3,21.65L10.55 9.4L13.05 17.2Q14.8 23.75 15.3 29L15.4 30.1Q12.2 33.05 11.6 31L12.1 28.55L11.45 25.85L11.3 21.65" />
<radialGradient
id="RadialGradID_3933" gradientUnits="userSpaceOnUse" gradientTransform="matrix(0.00480652, -0.00392151, 0.00650024, 0.0149384, 13.9, 26.75)" spreadMethod ="pad" cx="0" cy="0" r="819.2" fx="0" fy="0" >
<stop  offset="0.337255"  style="stop-color:#F9C29F;stop-opacity:1" />
<stop  offset="1"  style="stop-color:#FEDEC1;stop-opacity:0" />
</radialGradient>
<path style="fill:url(#RadialGradID_3933) " d="M17.7,23.4Q18.8 23.75 19.1 24Q19.65 24.6 20.15 27.65Q20.65 30.65 17.85 31.85Q15.05 33 12.3 32.15Q14.95 30.05 14.25 27.9Q12.55 22.9 10.55 15L11.2 16.65L10.55 14.85Q15.1 22.6 17.7 23.4M18.3,37.25L18.3 37.35L18.15 37.15L18.3 37.25" />
<radialGradient
id="RadialGradID_3934" gradientUnits="userSpaceOnUse" gradientTransform="matrix(-0.013092, -0.00166321, 0.00331116, 0.0391083, -8.15, 34.15)" spreadMethod ="pad" cx="0" cy="0" r="819.2" fx="0" fy="0" >
<stop  offset="0.337255"  style="stop-color:#F9C29F;stop-opacity:1" />
<stop  offset="1"  style="stop-color:#FEDEC1;stop-opacity:0" />
</radialGradient>
<path style="fill:url(#RadialGradID_3934) " d="M6.35,14.85L6.3 15L6.35 14.85M4.6,32.2Q2.05 33.1 -0.1 32.2Q-2.3 31.25 -1.9 28.7Q-1.55 26.1 0.2 25.2L1.4 24.4Q2.25 30.35 4.6 32.2M-1.2,37.15L-1.35 37.3L-1.35 37.2L-1.2 37.15" />
<radialGradient
id="RadialGradID_3935" gradientUnits="userSpaceOnUse" gradientTransform="matrix(0.013092, -0.00166321, -0.00331116, 0.0391083, 9.7, 14.15)" spreadMethod ="pad" cx="0" cy="0" r="819.2" fx="0" fy="0" >
<stop  offset="0.337255"  style="stop-color:#F9C29F;stop-opacity:1" />
<stop  offset="1"  style="stop-color:#FEDEC1;stop-opacity:0" />
</radialGradient>
<path style="fill:url(#RadialGradID_3935) " d="M-3.25,-5.7L-3.3 -5.85L-3.2 -5.7L-3.25 -5.7M4.85,4.7L4.9 10L4.5 16.7L4.45 17.55L4.45 18.1L4.25 19.5L4.4 18.9L4.2 22.7Q2.3 34.95 -0.5 10.3Q-0.35 6.05 1.05 3.25L1.65 1.9Q-0.3 -2.55 4.85 4.7" />
<radialGradient
id="RadialGradID_3936" gradientUnits="userSpaceOnUse" gradientTransform="matrix(0.00732422, 0.000259399, -0.000244141, 0.00791931, 7.75, 37)" spreadMethod ="pad" cx="0" cy="0" r="819.2" fx="0" fy="0" >
<stop  offset="0"  style="stop-color:#F39B61;stop-opacity:1" />
<stop  offset="1"  style="stop-color:#F8BE98;stop-opacity:1" />
</radialGradient>
<path style="fill:url(#RadialGradID_3936) " d="M13.3,30.85L14.4 30.65Q16.5 30.2 16.45 28.8Q16.4 27.4 12.9 26.55Q13.55 27.15 13.8 28.65L13.75 29Q13.75 27.6 12.65 26.3L12 22.65L11.25 13.6Q10.55 7 11.3 4.95Q12.1 2.8 16.4 0.3Q13.75 7.55 14 11.4L14.6 18.55Q14.8 20.95 15.6 24L15.95 25.15L17.3 26.65Q18.55 28.1 18.05 30.05Q17.55 32 15.85 32.65Q14.1 33.25 13.35 33.8L11.05 35.25L10.65 35.45Q8.7 36.9 7.05 36.05L3.8 34.3L1.5 33.6Q-0.85 32.7 0.9 31.85Q2.6 31 3.95 32.3L7.15 34.7Q9 35.75 12.05 32.45L13.4 30.45L13.3 30.85" />
<radialGradient
id="RadialGradID_3937" gradientUnits="userSpaceOnUse" gradientTransform="matrix(0.0127411, 0, 0, 0.0129852, 4.6, 28.1)" spreadMethod ="pad" cx="0" cy="0" r="819.2" fx="0" fy="0" >
<stop  offset="0"  style="stop-color:#F39B61;stop-opacity:1" />
<stop  offset="1"  style="stop-color:#F9C8A8;stop-opacity:1" />
</radialGradient>
<path style="fill:url(#RadialGradID_3937) " d="M13.75,29L13.8 28.65Q13.55 27.15 12.9 26.55Q16.4 27.4 16.45 28.8Q16.5 30.2 14.4 30.65L13.3 30.85L13.4 30.45L13.75 29" />
<path style="fill:#823909;fill-opacity:1" d="M14.1,33.15Q14.6 32.55 13.9 32.65Q13.2 32.75 12.4 33.45L10.75 34.9L10.1 35.4L9.25 35.75L8.6 35.85L8.15 35.75L6.8 35.3L6.55 35.2L6.6 35.2L7.6 35.4L9.8 35.1L10.95 34.25L11 34.25L12.5 32.75Q13.25 31.9 14.6 32.1Q15.9 32.3 14.1 33.15M2,32.8L2.05 33.25Q0.55 32.3 1.95 32.15Q3.35 31.95 4.25 33L6.35 35.05L6.35 35.1L5.75 34.8L4.1 33.55Q2.75 32.45 2 32.8" />
<radialGradient
id="RadialGradID_3938" gradientUnits="userSpaceOnUse" gradientTransform="matrix(0.00279236, 0.000274658, -0.000106812, 0.0116119, 7.45, 14.6)" spreadMethod ="pad" cx="0" cy="0" r="819.2" fx="0" fy="0" >
<stop  offset="0.313725"  style="stop-color:#FFFFFF;stop-opacity:0.431373" />
<stop  offset="1"  style="stop-color:#FFFFFF;stop-opacity:0" />
</radialGradient>
<path style="fill:url(#RadialGradID_3938) " d="M7.45,5.25Q8.2 5.3 8.7 8.15Q9.15 10.95 9.15 14.85Q9.05 18.75 8.55 21.45L8.2 22.85L8.1 23.05Q7.75 24.15 7.3 24.1Q6.8 24.05 6.45 22.85L6.4 22.65L6.05 21.25Q5.55 18.45 5.6 14.55Q5.65 10.6 6.2 7.85Q6.7 5.15 7.45 5.25" />
<radialGradient
id="RadialGradID_3939" gradientUnits="userSpaceOnUse" gradientTransform="matrix(0.00216675, 0.00012207, -0.00012207, 0.00234985, 6.85, 27.3)" spreadMethod ="pad" cx="0" cy="0" r="819.2" fx="0" fy="0" >
<stop  offset="0.313725"  style="stop-color:#FFFFFF;stop-opacity:0.431373" />
<stop  offset="1"  style="stop-color:#FFFFFF;stop-opacity:0" />
</radialGradient>
<path style="fill:url(#RadialGradID_3939) " d="M7.9,28.65Q7.35 29.2 6.7 29.15Q5.95 29.1 5.5 28.5Q5 27.9 5.05 27.15Q5.05 26.4 5.55 25.9Q6.15 25.35 6.9 25.4Q7.6 25.4 8.05 25.95Q8.55 26.55 8.5 27.35Q8.45 28.15 7.9 28.65" />
</g>
</svg>
