<svg xmlns="http://www.w3.org/2000/svg" width="26" height="42"><g transform="translate(4.05 5.9)"><radialGradient id="a" gradientUnits="userSpaceOnUse" gradientTransform="matrix(.00516 -.00307 .00511 .01482 14.7 17.9)" spreadMethod="pad" cx="0" cy="0" r="819.2" fx="0" fy="0"><stop offset=".337" stop-color="#f9c29f"/><stop offset="1" stop-color="#fedec1" stop-opacity="0"/></radialGradient><path d="M21.05 18.75q.5 2.55-2.1 5.35-.85.9-.9 4.15v.05l.05.05-.3-.35q-1.7-4.15-2.95-9-1.15-4.85-2.45-12.55l.5 1.65-.45-1.8q3.8 7.9 6.3 8.95 1.1.4 1.35.7.5.65.95 2.8" fill="url(#a)"/><radialGradient id="b" gradientUnits="userSpaceOnUse" gradientTransform="matrix(.00395 .00035 -.00076 .00781 1.6 19.1)" spreadMethod="pad" cx="0" cy="0" r="819.2" fx="0" fy="0"><stop offset="0" stop-color="#f8c898"/><stop offset=".035" stop-color="#fdc7a7"/><stop offset="1" stop-color="#fdddc0"/></radialGradient><path d="M3.8 24.9l-.2.95q-4.65 1.8-3.75-1.2L1.5 18.5l2-9.45.7 6.5q.25 5.3-.4 9.35" fill="url(#b)"/><radialGradient id="c" gradientUnits="userSpaceOnUse" gradientTransform="matrix(.0001 .00623 -.04132 .00073 13.2 29.7)" spreadMethod="pad" cx="0" cy="0" r="819.2" fx="0" fy="0"><stop offset="0" stop-color="#f8c898"/><stop offset=".035" stop-color="#fdc7a7"/><stop offset="1" stop-color="#fdddc0"/></radialGradient><path d="M12.2 20.65l.4 2.35 1.45 2.5.55 1.4q.35 1.4-.3 2.1l-1.4.95-2.1 1.75q-1.45 1.35-2.75 1.15-1.35-.2-2.7-1.35-1.4-1.25-2.45-1.25l-3.2.5q-2.2-.25-2.85-2.1-.65-1.9.2-3.4.8-1.5 2.85-2.9-2.4 4.9-.3 5.8 2.05.9 2.95.55-.35-.45.05-1.75-.05.95.9 1.85.95.9 2.25 1.4 1.3.55 2.55.55 1.25 0 2.6-.65t2.1-2.15q.7-1.55.15-2.3-.6-.85-.85-2.55l-.1-2.45M4.6 26.2l-.25.25.05-.3q.15-1 .2.05" fill="url(#c)"/><radialGradient id="d" gradientUnits="userSpaceOnUse" gradientTransform="matrix(.00778 -.00165 .00388 .01863 12.6 20.15)" spreadMethod="pad" cx="0" cy="0" r="819.2" fx="0" fy="0"><stop offset="0" stop-color="#f8c898"/><stop offset=".035" stop-color="#fdc7a7"/><stop offset="1" stop-color="#fdddc0"/></radialGradient><path d="M10.7 8.65l2.85 7.3q2.05 6.05 2.75 11l.1.65q-2.4.25-4.05-4-.6-1.5-.9-4.5-.35-2.95-.75-10.45" fill="url(#d)"/><radialGradient id="e" gradientUnits="userSpaceOnUse" gradientTransform="matrix(.0048 -.0037 .0065 .01411 13.9 25.05)" spreadMethod="pad" cx="0" cy="0" r="819.2" fx="0" fy="0"><stop offset=".337" stop-color="#f9c29f"/><stop offset="1" stop-color="#fedec1" stop-opacity="0"/></radialGradient><path d="M17.7 21.9q1.1.3 1.4.55.55.6 1.05 3.5.5 2.8-2.3 3.9-2.8 1.15-5.55.3 2.65-1.95 1.95-4-1.7-4.7-3.7-12.2l.65 1.6-.65-1.7q4.55 7.3 7.15 8.05m.6 13.05v.1l-.15-.2.15.1" fill="url(#e)"/><radialGradient id="f" gradientUnits="userSpaceOnUse" gradientTransform="matrix(-.0121 .00624 .02673 .02937 -10.25 32.6)" spreadMethod="pad" cx="0" cy="0" r="819.2" fx="0" fy="0"><stop offset=".337" stop-color="#f9c29f"/><stop offset="1" stop-color="#fedec1" stop-opacity="0"/></radialGradient><path d="M4.25 14.4l-.05.15.05-.15M-3.3 35.45l-.15.2v-.1l.15-.1m2.6-12.1q.85 5.65 3.2 7.4-2.55.85-4.7 0-2.2-.85-1.8-3.3.35-2.45 2.1-3.3l1.2-.8" fill="url(#f)"/><radialGradient id="g" gradientUnits="userSpaceOnUse" gradientTransform="matrix(.0121 .00624 -.02673 .02937 26.9 32.6)" spreadMethod="pad" cx="0" cy="0" r="819.2" fx="0" fy="0"><stop offset=".337" stop-color="#f9c29f"/><stop offset="1" stop-color="#fedec1" stop-opacity="0"/></radialGradient><path d="M12.4 14.4l.05.15-.05-.15m4.95 8.95q-.85 5.65-3.2 7.4 2.55.85 4.7 0 2.2-.85 1.8-3.3-.35-2.45-2.1-3.3l-1.2-.8m2.6 12.1l.15.2v-.1l-.15-.1" fill="url(#g)"/><radialGradient id="h" gradientUnits="userSpaceOnUse" gradientTransform="matrix(.00732 .00024 -.00024 .00748 7.75 34.75)" spreadMethod="pad" cx="0" cy="0" r="819.2" fx="0" fy="0"><stop offset="0" stop-color="#f39b61"/><stop offset="1" stop-color="#f8be98"/></radialGradient><path d="M16.85 26.2q.3-2-2.95-2.65l-.1.1-.2-.5-.65-2.65q-.9-2.9-1.45-8.55-.6-5.65 0-7.55.6-1.95 4.9-4.3-2.65 6.8-2.4 10.5.3 3.65 1.25 6.6l1.4 4.5.4.8L19 24.85q1 2.65-.3 4.25t-2.95 1.85q-1.65.25-2.4.8-.8.5-2.3 1.35l-.4.2q-1.95 1.35-3.6.55L3.8 32.2l-2.3-.7q-4.3-1.25-2.85-2.15 1.45-.9 3.95.35l4.1 1.9 2.85.2q1.2-.35 2.85-1.55l.65-.55 1.05-1.3q2.45-.2 2.75-2.2m-3.45 2.45l-.05.05.05-.15v.1" fill="url(#h)"/><radialGradient id="i" gradientUnits="userSpaceOnUse" gradientTransform="matrix(.01274 0 0 .01227 4.6 26.35)" spreadMethod="pad" cx="0" cy="0" r="819.2" fx="0" fy="0"><stop offset="0" stop-color="#f39b61"/><stop offset="1" stop-color="#f9c8a8"/></radialGradient><path d="M13.8 23.65l.1-.1q3.25.65 2.95 2.65-.3 2-2.75 2.2l.1-.2.2-.6q.25-.65-.2-1.7.45.15-.4-2.25" fill="url(#i)"/><radialGradient id="j" gradientUnits="userSpaceOnUse" gradientTransform="matrix(.01314 -.00108 -.00485 .03679 9.35 13.45)" spreadMethod="pad" cx="0" cy="0" r="819.2" fx="0" fy="0"><stop offset=".337" stop-color="#f9c29f"/><stop offset="1" stop-color="#fedec1" stop-opacity="0"/></radialGradient><path d="M-2.8-5.8l-.05-.1.05.1M4.7 9.35l-.65 6.3-.1.85v.45L3.7 18.3l.15-.6-.35 3.65Q1.15 32.75-.7 9.45q.3-4 1.85-6.6.25-.5-2.7-3.5 4.3 1.9 6.45 5l-.2 5" fill="url(#j)"/><path d="M13.35 31.55l-1.75.7-.85.55-.65.45-.85.3-.65.1-.45-.1-1.35-.4-.25-.1h.05l1 .15 2.2-.25 1.2-.65 2.25-1.2 2.05-.9 1.9-.1q1 .15-.6.95l-.9-.1-2.35.6M.4 31.1q-1.45-.05-1.35-.5.1-.45.95-.45l1.45.2q.65.2 2.05.95l2.85 1.6v.05l-.75-.3-2.15-.8Q1.8 31.15.4 31.1" fill="#823909"/><radialGradient id="k" gradientUnits="userSpaceOnUse" gradientTransform="matrix(.0028 .00026 -.0001 .01097 7.45 13.6)" spreadMethod="pad" cx="0" cy="0" r="819.2" fx="0" fy="0"><stop offset=".314" stop-color="#fff" stop-opacity=".431"/><stop offset="1" stop-color="#fff" stop-opacity="0"/></radialGradient><path d="M8.7 7.5q.45 2.65.45 6.35-.1 3.65-.6 6.2L8.2 21.4l-.1.2q-.35 1-.8.95-.5-.05-.85-1.15l-.05-.2-.35-1.3q-.5-2.65-.45-6.35.05-3.75.6-6.35.5-2.55 1.25-2.45.75.05 1.25 2.75" fill="url(#k)"/><radialGradient id="l" gradientUnits="userSpaceOnUse" gradientTransform="matrix(.00217 .00012 -.00012 .00221 6.85 25.6)" spreadMethod="pad" cx="0" cy="0" r="819.2" fx="0" fy="0"><stop offset=".314" stop-color="#fff" stop-opacity=".431"/><stop offset="1" stop-color="#fff" stop-opacity="0"/></radialGradient><path d="M6.9 23.8q.7 0 1.15.5.5.6.45 1.35-.05.7-.6 1.2-.55.5-1.2.45-.75-.05-1.2-.6-.5-.55-.45-1.25 0-.7.5-1.2.6-.5 1.35-.45" fill="url(#l)"/></g></svg>