<svg xmlns="http://www.w3.org/2000/svg" width="24" height="44"><g transform="translate(3.3 5.85)"><radialGradient id="a" gradientUnits="userSpaceOnUse" gradientTransform="matrix(.00568 -.00223 .00215 .01636 13.6 20.35)" spreadMethod="pad" cx="0" cy="0" r="819.2" fx="0" fy="0"><stop offset=".337" stop-color="#f9c29f"/><stop offset="1" stop-color="#fedec1" stop-opacity="0"/></radialGradient><path d="M19.7 22.4q.05 2.75-3.05 5.2-1.05.75-1.7 4.1V31.85l-.2-.4q-.85-4.65-1.1-9.95-.25-5.25-.05-13.5l.2 1.8-.15-1.95q2.25 8.9 4.55 10.45l1.1 1q.4.8.4 3.1" fill="url(#a)"/><radialGradient id="b" gradientUnits="userSpaceOnUse" gradientTransform="matrix(.00397 0 0 .0083 2.55 20.55)" spreadMethod="pad" cx="0" cy="0" r="819.2" fx="0" fy="0"><stop offset="0" stop-color="#f8c898"/><stop offset=".035" stop-color="#fdc7a7"/><stop offset="1" stop-color="#fdddc0"/></radialGradient><path d="M5.25 26.5l-.1 1q-4.4 2.35-3.8-.9l1-6.7 1.1-10.15 1.3 6.8q.8 5.6.5 9.95" fill="url(#b)"/><radialGradient id="c" gradientUnits="userSpaceOnUse" gradientTransform="matrix(.0001 .0066 -.04132 .00078 13.05 33.9)" spreadMethod="pad" cx="0" cy="0" r="819.2" fx="0" fy="0"><stop offset="0" stop-color="#f8c898"/><stop offset=".035" stop-color="#fdc7a7"/><stop offset="1" stop-color="#fdddc0"/></radialGradient><path d="M12.6 24.55l.85 2.9.55 1.4q.4 1.15-.6 2.35l-.7.65-1.9 1.9Q9.35 35.2 8.05 35q-1.35-.2-2.7-1.5-1.4-1.25-2.45-1.25-1.1 0-1.55.8-2.3-1.55-2.3-3.8 0-2.35 1.4-3.55 1.4-1.15 1.05-.2-.4.95-.35 2.6.05 1.7 1.15 2.1l1.6.5q-.6-1.2.35-2.6-.25 1.2.1 1.95l.6 1.05.5.6.85.7q.9.65 1.9.65 1.2 0 2.45-1.05 1.35-1.35 1.9-2.8l-.05-.7-.2-3.8-.1-2.6.4 2.45m-8 3.35l-.25.25.05-.25q.15-1.1.2 0" fill="url(#c)"/><radialGradient id="d" gradientUnits="userSpaceOnUse" gradientTransform="matrix(.00786 -.00139 .003 .01988 11.9 21.6)" spreadMethod="pad" cx="0" cy="0" r="819.2" fx="0" fy="0"><stop offset="0" stop-color="#f8c898"/><stop offset=".035" stop-color="#fdc7a7"/><stop offset="1" stop-color="#fdddc0"/></radialGradient><path d="M11.3 21.65L10.55 9.4l2.5 7.8Q14.8 23.75 15.3 29l.1 1.1q-3.2 2.95-3.8.9l.5-2.45-.65-2.7-.15-4.2" fill="url(#d)"/><radialGradient id="e" gradientUnits="userSpaceOnUse" gradientTransform="matrix(.0048 -.00392 .0065 .01494 13.9 26.75)" spreadMethod="pad" cx="0" cy="0" r="819.2" fx="0" fy="0"><stop offset=".337" stop-color="#f9c29f"/><stop offset="1" stop-color="#fedec1" stop-opacity="0"/></radialGradient><path d="M17.7 23.4q1.1.35 1.4.6.55.6 1.05 3.65.5 3-2.3 4.2-2.8 1.15-5.55.3 2.65-2.1 1.95-4.25-1.7-5-3.7-12.9l.65 1.65-.65-1.8q4.55 7.75 7.15 8.55m.6 13.85v.1l-.15-.2.15.1" fill="url(#e)"/><radialGradient id="f" gradientUnits="userSpaceOnUse" gradientTransform="matrix(-.0131 -.00166 .00331 .0391 -8.15 34.15)" spreadMethod="pad" cx="0" cy="0" r="819.2" fx="0" fy="0"><stop offset=".337" stop-color="#f9c29f"/><stop offset="1" stop-color="#fedec1" stop-opacity="0"/></radialGradient><path d="M6.35 14.85L6.3 15l.05-.15M4.6 32.2q-2.55.9-4.7 0-2.2-.95-1.8-3.5.35-2.6 2.1-3.5l1.2-.8q.85 5.95 3.2 7.8m-5.8 4.95l-.15.15v-.1l.15-.05" fill="url(#f)"/><radialGradient id="g" gradientUnits="userSpaceOnUse" gradientTransform="matrix(.0131 -.00166 -.00331 .0391 9.7 14.15)" spreadMethod="pad" cx="0" cy="0" r="819.2" fx="0" fy="0"><stop offset=".337" stop-color="#f9c29f"/><stop offset="1" stop-color="#fedec1" stop-opacity="0"/></radialGradient><path d="M-3.25-5.7l-.05-.15.1.15h-.05m8.1 10.4L4.9 10l-.4 6.7-.05.85v.55l-.2 1.4.15-.6-.2 3.8Q2.3 34.95-.5 10.3q.15-4.25 1.55-7.05l.6-1.35Q-.3-2.55 4.85 4.7" fill="url(#g)"/><radialGradient id="h" gradientUnits="userSpaceOnUse" gradientTransform="matrix(.00732 .00026 -.00024 .00792 7.75 37)" spreadMethod="pad" cx="0" cy="0" r="819.2" fx="0" fy="0"><stop offset="0" stop-color="#f39b61"/><stop offset="1" stop-color="#f8be98"/></radialGradient><path d="M13.3 30.85l1.1-.2q2.1-.45 2.05-1.85-.05-1.4-3.55-2.25.65.6.9 2.1l-.05.35q0-1.4-1.1-2.7L12 22.65l-.75-9.05q-.7-6.6.05-8.65.8-2.15 5.1-4.65-2.65 7.25-2.4 11.1l.6 7.15q.2 2.4 1 5.45l.35 1.15 1.35 1.5q1.25 1.45.75 3.4t-2.2 2.6q-1.75.6-2.5 1.15l-2.3 1.45-.4.2q-1.95 1.45-3.6.6L3.8 34.3l-2.3-.7q-2.35-.9-.6-1.75 1.7-.85 3.05.45l3.2 2.4q1.85 1.05 4.9-2.25l1.35-2-.1.4" fill="url(#h)"/><radialGradient id="i" gradientUnits="userSpaceOnUse" gradientTransform="matrix(.01274 0 0 .01299 4.6 28.1)" spreadMethod="pad" cx="0" cy="0" r="819.2" fx="0" fy="0"><stop offset="0" stop-color="#f39b61"/><stop offset="1" stop-color="#f9c8a8"/></radialGradient><path d="M13.75 29l.05-.35q-.25-1.5-.9-2.1 3.5.85 3.55 2.25.05 1.4-2.05 1.85l-1.1.2.1-.4.35-1.45" fill="url(#i)"/><path d="M14.1 33.15q.5-.6-.2-.5-.7.1-1.5.8l-1.65 1.45-.65.5-.85.35-.65.1-.45-.1-1.35-.45-.25-.1h.05l1 .2 2.2-.3 1.15-.85H11l1.5-1.5q.75-.85 2.1-.65 1.3.2-.5 1.05M2 32.8l.05.45q-1.5-.95-.1-1.1 1.4-.2 2.3.85l2.1 2.05v.05l-.6-.3-1.65-1.25q-1.35-1.1-2.1-.75" fill="#823909"/><radialGradient id="j" gradientUnits="userSpaceOnUse" gradientTransform="matrix(.0028 .00027 -.0001 .01161 7.45 14.6)" spreadMethod="pad" cx="0" cy="0" r="819.2" fx="0" fy="0"><stop offset=".314" stop-color="#fff" stop-opacity=".431"/><stop offset="1" stop-color="#fff" stop-opacity="0"/></radialGradient><path d="M7.45 5.25q.75.05 1.25 2.9.45 2.8.45 6.7-.1 3.9-.6 6.6l-.35 1.4-.1.2q-.35 1.1-.8 1.05-.5-.05-.85-1.25l-.05-.2-.35-1.4q-.5-2.8-.45-6.7.05-3.95.6-6.7.5-2.7 1.25-2.6" fill="url(#j)"/><radialGradient id="k" gradientUnits="userSpaceOnUse" gradientTransform="matrix(.00217 .00012 -.00012 .00235 6.85 27.3)" spreadMethod="pad" cx="0" cy="0" r="819.2" fx="0" fy="0"><stop offset=".314" stop-color="#fff" stop-opacity=".431"/><stop offset="1" stop-color="#fff" stop-opacity="0"/></radialGradient><path d="M7.9 28.65q-.55.55-1.2.5-.75-.05-1.2-.65-.5-.6-.45-1.35 0-.75.5-1.25.6-.55 1.35-.5.7 0 1.15.55.5.6.45 1.4-.05.8-.6 1.3" fill="url(#k)"/></g></svg>