<svg xmlns="http://www.w3.org/2000/svg" width="11" height="18"><g><radialGradient id="a" gradientUnits="userSpaceOnUse" gradientTransform="matrix(.00336 -.00021 .00047 .0056 6.8 8.15)" spreadMethod="pad" cx="0" cy="0" r="819.2" fx="0" fy="0"><stop offset=".337" stop-color="#f9c29f"/><stop offset="1" stop-color="#fedec1" stop-opacity="0"/></radialGradient><path d="M10.25 9.3q-.1.9-2.1 1.45-.6.15-1.1 1.2V12l-.1-.15q-.35-1.6-.2-3.35.1-1.8.65-4.45v.6V4q.9 3.15 2.15 3.85l.55.45.15 1" fill="url(#a)"/><path d="M5.3 16.85l-.3.05h-.35l-.5-.4.85.25 1-.35-.7.45" fill="#fff" fill-opacity=".502"/><path d="M7.15 14.35l-.5 1.3-.2.35.45-1.15.05-.75-.4-5.6.3-5.95.25 1.65q.2 2.5-.05 3.4-.35 1.1-.25 2.55l.15.6q.45 2.75.2 3.6" fill="#f8b98d" fill-opacity=".502"/><radialGradient id="b" gradientUnits="userSpaceOnUse" gradientTransform="matrix(.00229 -.00421 .00441 .00218 7.1 2.15)" spreadMethod="pad" cx="0" cy="0" r="819.2" fx="0" fy="0"><stop offset="0" stop-color="#f39b61" stop-opacity=".643"/><stop offset="1" stop-color="#f8be98" stop-opacity=".353"/></radialGradient><path d="M8.45 5.8L7.1 4.2l-.25-1.65V2.5q-.1-.5.45-1.1Q7.9.75 9.25 0q-.35 1.05.8 1.6-1.55 1.75-1.5 3.35l.1 1.2V6.3l-.2-.5" fill="url(#b)"/><radialGradient id="c" gradientUnits="userSpaceOnUse" gradientTransform="matrix(.0241 0 0 .02304 4.5 -1.15)" spreadMethod="pad" cx="0" cy="0" r="819.2" fx="0" fy="0"><stop offset="0" stop-color="#f39b61" stop-opacity=".471"/><stop offset="1" stop-color="#f8be98" stop-opacity="0"/></radialGradient><path d="M2.75 14.6l.15.8-.75-1.45q-.4-1.05-.8-1.15l-.7.1.2-.45q.65-1 .75-2.75.05-1.8.55-4.7.45-2.65-.7-3L1 .45v-.2Q3.1.9 3.75 2.1l.25.7q-.8 2.55-.8 3.9l.2 2.5-.15.9-.1 1-.4 3.5" fill="url(#c)"/><radialGradient id="d" gradientUnits="userSpaceOnUse" gradientTransform="matrix(.00494 .00047 -.0005 .00471 7.9 2.75)" spreadMethod="pad" cx="0" cy="0" r="819.2" fx="0" fy="0"><stop offset="0" stop-color="#f39b61" stop-opacity=".502"/><stop offset="1" stop-color="#f8be98" stop-opacity=".353"/></radialGradient><path d="M9.75 8l-.05-.05.05-.1V8" fill="url(#d)"/><radialGradient id="e" gradientUnits="userSpaceOnUse" gradientTransform="matrix(-.00008 .01457 -.01506 -.00008 13.7 10.2)" spreadMethod="pad" cx="0" cy="0" r="819.2" fx="0" fy="0"><stop offset="0" stop-color="#f39b61" stop-opacity=".98"/><stop offset="1" stop-color="#f8be98" stop-opacity="0"/></radialGradient><path d="M7.45 12.7q.65-1.35 1-4.15-.1.8-.05 1.5-.05 1.45.75 2.4l.25.4-.6-.15q-.8 0-1.1 1.15l-.25-1.15" fill="url(#e)"/><radialGradient id="f" gradientUnits="userSpaceOnUse" gradientTransform="matrix(.01596 0 0 .01526 8.6 5.5)" spreadMethod="pad" cx="0" cy="0" r="819.2" fx="0" fy="0"><stop offset="0" stop-color="#f39b61" stop-opacity=".871"/><stop offset="1" stop-color="#f8be98" stop-opacity="0"/></radialGradient><path d="M7.9 15.45l-.15-1.2-.05-.4Q8 12.7 8.8 12.7l.6.15.15.3.3 1.55q-.05 1-1.55 1.4l.35-.65H8.4l-.6.5.1-.5" fill="url(#f)"/><linearGradient id="g" gradientUnits="userSpaceOnUse" gradientTransform="matrix(-.00592 -.00043 .0008 -.0104 4.85 9.25)" x1="-819.2" x2="819.2"><stop offset="0" stop-color="#f39b61" stop-opacity=".333"/><stop offset="1" stop-color="#f8be98" stop-opacity=".871"/></linearGradient><path d="M6 16.4l.45-.4.2-.35.5-1.3q.25-.85-.2-3.6l.5 1.95.25 1.15.05.4.15 1.2-.1.5q-1.3 1.1-2.2 1.4l-.7.15q-.8-.05-1.9-1.15l-.7-.7-.65-.45q-.3-.05-.45.6l-.65-.45q.2-.6.7-.6.45-.05 1.55.9l.95.7.9.55H5l.3-.05.7-.45" fill="url(#g)"/><radialGradient id="h" gradientUnits="userSpaceOnUse" gradientTransform="matrix(.00606 0 0 .0058 5.15 16.55)" spreadMethod="pad" cx="0" cy="0" r="819.2" fx="0" fy="0"><stop offset="0" stop-color="#f39b61" stop-opacity=".592"/><stop offset="1" stop-color="#f8be98" stop-opacity="0"/></radialGradient><path d="M3.75 16.35l-.2-.15-.65-.8-.15-.8.4-3.5q-.05 2.2.05 3.2.1.95.5 1.6l.45.6.5.4-.9-.55" fill="url(#h)"/><radialGradient id="i" gradientUnits="userSpaceOnUse" gradientTransform="matrix(.00769 0 0 .00735 -5.25 11.25)" spreadMethod="pad" cx="0" cy="0" r="819.2" fx="0" fy="0"><stop offset="0" stop-color="#f39b61"/><stop offset="1" stop-color="#f8be98" stop-opacity=".553"/></radialGradient><path d="M3.55 16.2l.2.15-.95-.7q-1.1-.95-1.55-.9-.5 0-.7.6-.45-.4-.45-1l.2-1 .35-.45.7-.1q.4.1.8 1.15l.75 1.45.65.8" fill="url(#i)"/><radialGradient id="j" gradientUnits="userSpaceOnUse" gradientTransform="matrix(.01596 0 0 .01526 8.6 5.5)" spreadMethod="pad" cx="0" cy="0" r="819.2" fx="0" fy="0"><stop offset="0" stop-color="#f39b61" stop-opacity=".463"/><stop offset="1" stop-color="#f8be98" stop-opacity="0"/></radialGradient><path d="M7.45 12.7l-.5-1.95-.15-.6q-.1-1.45.25-2.55.25-.9.05-3.4l1.35 1.6.2.5-.15 1.1-.05.6v.55q-.35 2.8-1 4.15" fill="url(#j)"/><radialGradient id="k" gradientUnits="userSpaceOnUse" gradientTransform="matrix(.00021 -.00049 .00134 .00037 1.1 13.9)" spreadMethod="pad" cx="0" cy="0" r="819.2" fx="0" fy="0"><stop offset=".314" stop-color="#fff" stop-opacity=".431"/><stop offset="1" stop-color="#fff" stop-opacity="0"/></radialGradient><path d="M1.75 14.4l-.8-.05-.75-.3q-.25-.2-.15-.35l.4-.25.85.05.7.4.25.35-.5.15" fill="url(#k)"/><radialGradient id="l" gradientUnits="userSpaceOnUse" gradientTransform="matrix(.00117 .00015 -.00005 .00671 4.25 7.15)" spreadMethod="pad" cx="0" cy="0" r="819.2" fx="0" fy="0"><stop offset=".314" stop-color="#fff" stop-opacity=".431"/><stop offset="1" stop-color="#fff" stop-opacity="0"/></radialGradient><path d="M4.25 1.8q.3 0 .55 1.65l.15 3.85-.2 3.8-.2.8-.05.1-.3.65q-.25-.05-.4-.75v-.1l-.15-.75Q3.4 9.35 3.5 7.1l.2-3.85q.2-1.55.55-1.45" fill="url(#l)"/><radialGradient id="m" gradientUnits="userSpaceOnUse" gradientTransform="matrix(.00096 .0001 -.00006 .00188 4 14.45)" spreadMethod="pad" cx="0" cy="0" r="819.2" fx="0" fy="0"><stop offset=".314" stop-color="#fff" stop-opacity=".431"/><stop offset="1" stop-color="#fff" stop-opacity="0"/></radialGradient><path d="M4.8 14.6l-.35 1.05q-.2.4-.55.35l-.5-.55-.2-1.05.2-1.05q.3-.4.6-.35l.55.4.25 1.2" fill="url(#m)"/><radialGradient id="n" gradientUnits="userSpaceOnUse" gradientTransform="matrix(-.00037 -.0004 -.00114 .00076 8.85 14.1)" spreadMethod="pad" cx="0" cy="0" r="819.2" fx="0" fy="0"><stop offset=".314" stop-color="#fff" stop-opacity=".431"/><stop offset="1" stop-color="#fff" stop-opacity="0"/></radialGradient><path d="M8 14.4l.6-.55q.35-.3.75-.4l.45.1-.1.45-.5.5-.8.3-.45-.05q-.15-.1.05-.35" fill="url(#n)"/><radialGradient id="o" gradientUnits="userSpaceOnUse" gradientTransform="matrix(.00027 .00047 -.00037 .0011 6.65 15.15)" spreadMethod="pad" cx="0" cy="0" r="819.2" fx="0" fy="0"><stop offset=".314" stop-color="#fff" stop-opacity=".431"/><stop offset="1" stop-color="#fff" stop-opacity="0"/></radialGradient><path d="M6.95 14.35l.05.35-.15.8-.15.3-.2.15h-.2q-.1-.15-.05-.5l.1-.75.3-.5q.15-.15.25 0l.05.15" fill="url(#o)"/><path d="M7.7 16.1l-.35.2-.15.15-.25.2-.1.05.05-.05.6-.7.25-.2q.55-.45.95-.35v.05l-1 .65m-5.15-.05l-.35-.2-.65-.45-.1-.2q.2-.2.75.3l.2.15.6.8v.05l-.05-.05-.25-.25-.15-.15" fill="#823909" fill-opacity=".702"/></g></svg>