<?xml version="1.0" encoding="utf-8"?>
<svg version="1.1" id="Layer_1"
xmlns="http://www.w3.org/2000/svg"
xmlns:xlink="http://www.w3.org/1999/xlink"
xmlns:author="http://www.sothink.com"
width="11px" height="20px"
xml:space="preserve">
<g id="451" transform="matrix(1, 0, 0, 1, 0, 0)">
<radialGradient
id="RadialGradID_3979" gradientUnits="userSpaceOnUse" gradientTransform="matrix(0.00154114, 7.62939e-005, 0.000213623, 0.00598145, 4, 8.05)" spreadMethod ="pad" cx="0" cy="0" r="819.2" fx="0" fy="0" >
<stop  offset="0.313725"  style="stop-color:#FFFFFF;stop-opacity:0.431373" />
<stop  offset="1"  style="stop-color:#FFFFFF;stop-opacity:0" />
</radialGradient>
<path style="fill:url(#RadialGradID_3979) " d="M4.55,4.65L4.95 8.15L4.8 11.5L4.65 12.25L4.55 12.4L4.1 12.95L3.65 12.3L3.65 12.2L3.35 11.45Q3.05 10 3 8Q2.95 6 3.2 4.6Q3.4 3.2 3.85 3.25Q4.25 3.25 4.55 4.65" />
<radialGradient
id="RadialGradID_3980" gradientUnits="userSpaceOnUse" gradientTransform="matrix(0.00408936, -3.05176e-005, 3.05176e-005, 0.00408936, 4.55, 20.2)" spreadMethod ="pad" cx="0" cy="0" r="819.2" fx="0" fy="0" >
<stop  offset="0"  style="stop-color:#F39B61;stop-opacity:1" />
<stop  offset="1"  style="stop-color:#F8BE98;stop-opacity:1" />
</radialGradient>
<path style="fill:url(#RadialGradID_3980) " d="M5.5,11.75Q5.35 10.5 5.35 8.15Q5.3 5.75 6.6 1.85Q7.9 -2.05 6.9 2.3Q5.85 6.65 6.35 9.7Q6.8 12.7 7.25 13.45L5.5 11.75" />
<radialGradient
id="RadialGradID_3981" gradientUnits="userSpaceOnUse" gradientTransform="matrix(0.00119019, 3.05176e-005, -3.05176e-005, 0.00119019, 3.85, 14.6)" spreadMethod ="pad" cx="0" cy="0" r="819.2" fx="0" fy="0" >
<stop  offset="0.313725"  style="stop-color:#FFFFFF;stop-opacity:0.431373" />
<stop  offset="1"  style="stop-color:#FFFFFF;stop-opacity:0" />
</radialGradient>
<path style="fill:url(#RadialGradID_3981) " d="M3.95,13.65L4.65 13.85L4.9 14.6L4.55 15.25L3.9 15.55Q3.5 15.5 3.25 15.2L3 14.55Q3 14.15 3.25 13.85Q3.55 13.6 3.95 13.65" />
<radialGradient
id="RadialGradID_3982" gradientUnits="userSpaceOnUse" gradientTransform="matrix(0.00408936, -3.05176e-005, 3.05176e-005, 0.00408936, 4.2, 19.4)" spreadMethod ="pad" cx="0" cy="0" r="819.2" fx="0" fy="0" >
<stop  offset="0"  style="stop-color:#F39B61;stop-opacity:1" />
<stop  offset="1"  style="stop-color:#F8BE98;stop-opacity:1" />
</radialGradient>
<path style="fill:url(#RadialGradID_3982) " d="M5.5,11.75L7.25 13.45Q8 16.05 7.8 16.65L6.9 17.6L6.1 18.1L5 18.9Q4.1 19.55 3.2 19.15Q1.8 18.3 0.45 17.9L0.15 17.7Q-0.25 16.7 0.55 16.45L2.25 16.5L3.8 16.7L5.2 15.9Q5.9 15.25 5.5 11.75M3.6,18.15L3.6 18.2L3.55 18.2L3.15 18.1L3.2 18.2L3.8 18.35L4.15 18.35L4.45 18.2L4.55 18L4.95 17.6L5.1 17.55L5.35 17.5L5.35 17.55L5.45 17.5L6.2 17.4L6.45 17.25L6.45 17.15L6.15 16.95Q5.9 16.9 5.7 17.1L5.45 17.2Q5.1 17.2 4.8 17.5L4.75 17.55L4.35 18L3.95 18.2L3.6 18.15M2.45,17.85L2.55 17.85L2.6 17.9L2.65 17.9L3 18.05L3.05 18.1L3.05 18.05L2.85 17.85L2.15 17.35L1.8 17.15L1.05 17.05Q0.8 17.1 0.75 17.3L0.65 17.35Q1.3 17.75 1.85 17.7L1.95 17.7L2.35 17.8L2.45 17.85" />
<path style="fill:#823909;fill-opacity:1" d="M5.35,17.5L5.1 17.55L4.95 17.6L4.55 18L4.45 18.2L4.15 18.35L3.8 18.35L3.2 18.2L3.15 18.1L3.55 18.2L3.6 18.2L3.95 18.2L4.35 18L4.75 17.55L4.8 17.5Q5.1 17.2 5.45 17.2L5.7 17.1Q5.9 16.9 6.15 16.95L6.45 17.15L6.45 17.25L6.2 17.4L5.45 17.5L5.35 17.5M3,18.05L3.05 18.1L3 18.05L2.65 17.9L2.6 17.9L2.55 17.85L2.45 17.85L2 17.7L1.95 17.7L1.85 17.7Q1.3 17.75 0.65 17.35L0.75 17.3Q0.8 17.1 1.05 17.05L1.8 17.15L2.15 17.35L2.85 17.85L3 18.05" />
<radialGradient
id="RadialGradID_3983" gradientUnits="userSpaceOnUse" gradientTransform="matrix(0.00428772, -0.000793457, 0.00144958, 0.00738525, 6.1, 8.05)" spreadMethod ="pad" cx="0" cy="0" r="819.2" fx="0" fy="0" >
<stop  offset="0.337255"  style="stop-color:#F9C29F;stop-opacity:1" />
<stop  offset="1"  style="stop-color:#FEDEC1;stop-opacity:0" />
</radialGradient>
<path style="fill:url(#RadialGradID_3983) " d="M10.6,9.2Q10.65 10.4 8.25 11.4Q7.45 11.7 7 13.15L6.9 13.2L6.85 13.05Q6.2 10.95 6.05 8.6Q5.9 6.15 6.2 2.5L6.3 3.35L6.2 2.45Q7.85 6.55 9.5 7.3L10.35 7.8Q10.65 8.15 10.6 9.2" />
</g>
</svg>
