<svg xmlns="http://www.w3.org/2000/svg" width="5" height="9"><g transform="translate(-68.4 -30.3)"><radialGradient id="a" gradientUnits="userSpaceOnUse" gradientTransform="matrix(.00174 .00006 -.00005 .00183 70.25 39.1)" spreadMethod="pad" cx="0" cy="0" r="819.2" fx="0" fy="0"><stop offset="0" stop-color="#f39b61"/><stop offset="1" stop-color="#f8be98"/></radialGradient><path d="M71.95 35.5v.1l.05.45-.35-.05h-.2l-.15-.7-.1-.55v-1.5l.05-1.6 1.05-1.35q-.55 2.1-.45 3.75v.45l.1 1" fill="url(#a)"/><radialGradient id="b" gradientUnits="userSpaceOnUse" gradientTransform="matrix(.00174 .00006 -.00005 .00183 70.25 38.85)" spreadMethod="pad" cx="0" cy="0" r="819.2" fx="0" fy="0"><stop offset="0" stop-color="#f39b61"/><stop offset="1" stop-color="#f8be98"/></radialGradient><path d="M71.45 36h.2l.35.05-.05-.45v-.1l-.1-1 .45 1.45.3 1.5-.2.4-.15.15-.3.2-1 .45q-.55.65-1.1.25-.5-.45-.9-.6l-.3-.2q-.45-.25 0-.45l.85.1.7.4.6-.2.45-.35.2-.1.25-.25-.05-.65-.05-.3-.15-.3" fill="url(#b)"/><radialGradient id="c" gradientUnits="userSpaceOnUse" gradientTransform="matrix(.00066 .00006 -.00002 .0027 70.2 33.65)" spreadMethod="pad" cx="0" cy="0" r="819.2" fx="0" fy="0"><stop offset=".314" stop-color="#fff" stop-opacity=".431"/><stop offset="1" stop-color="#fff" stop-opacity="0"/></radialGradient><path d="M70.6 33.7l-.15 1.55-.1.3v.05l-.2.25-.2-.3v-.05l-.1-.3-.1-1.55q0-.95.15-1.55.1-.65.3-.6l.3.65.1 1.55" fill="url(#c)"/><radialGradient id="d" gradientUnits="userSpaceOnUse" gradientTransform="matrix(.00052 .00003 -.00003 .00053 70.05 36.6)" spreadMethod="pad" cx="0" cy="0" r="819.2" fx="0" fy="0"><stop offset=".314" stop-color="#fff" stop-opacity=".431"/><stop offset="1" stop-color="#fff" stop-opacity="0"/></radialGradient><path d="M70.35 36.3l.1.3-.15.3-.3.15-.25-.2-.15-.3.15-.3.3-.1.3.15" fill="url(#d)"/><radialGradient id="e" gradientUnits="userSpaceOnUse" gradientTransform="matrix(.00058 0 0 .00159 71.45 35.75)" spreadMethod="pad" cx="0" cy="0" r="819.2" fx="0" fy="0"><stop offset="0" stop-color="#f8c898"/><stop offset=".035" stop-color="#fdc7a7"/><stop offset="1" stop-color="#fdddc0"/></radialGradient><path d="M71.6 36.3l-.3.95q-.1.15-.1-1.9v-.6l.1.55.15.7.15.3" fill="url(#e)"/><radialGradient id="f" gradientUnits="userSpaceOnUse" gradientTransform="matrix(.001 0 0 .00192 68.8 35.55)" spreadMethod="pad" cx="0" cy="0" r="819.2" fx="0" fy="0"><stop offset="0" stop-color="#f8c898"/><stop offset=".035" stop-color="#fdc7a7"/><stop offset="1" stop-color="#fdddc0"/></radialGradient><path d="M69.35 34.65l.15 2.3-.05.2q-1.1.55-.95-.2l.25-1.55.3-2.35.3 1.6" fill="url(#f)"/><radialGradient id="g" gradientUnits="userSpaceOnUse" gradientTransform="matrix(.00136 -.00021 .00035 .00253 71.7 33.95)" spreadMethod="pad" cx="0" cy="0" r="819.2" fx="210473" fy="0"><stop offset=".337" stop-color="#f9c29f"/><stop offset="1" stop-color="#fedec1" stop-opacity="0"/></radialGradient><path d="M73.1 34.4l-.75.7-.45.6-.05-.05-.15-1.55.15-2v.25-.3q.45 1.4.95 1.65l.25.2.05.5" fill="url(#g)"/><path d="M71.85 37.95l-.6.15-.2.05h-.1l-.25.25-.15.1h-.2l-.25-.1-.05-.05.2.05.4-.05.25-.2.3-.2.2-.05q.3-.2.45 0v.05m-2.9 0q.1-.2.45 0l.15.05.45.35v.05l-.05-.05-.15-.1h-.1l-.2-.05-.55-.2v-.05" fill="#823909"/></g></svg>