<svg xmlns="http://www.w3.org/2000/svg" width="5" height="9"><g transform="translate(-68.4 -30.3)"><path d="M71.65 37.75l-.55.15-.25.05h-.1l-.25.3-.15.05h-.05l-.15-.05-.3-.05v-.05l.2.1.4-.1.2-.2h.05l.3-.25.2-.05.45.05v.05m-2.05.35l-.1-.05-.2-.05-.6-.2v-.05q.15-.2.5 0l.15.05.45.35-.2-.05m.25.1l-.05-.05.05.05" fill="#823909"/><radialGradient id="a" gradientUnits="userSpaceOnUse" gradientTransform="matrix(.00172 .00006 -.00006 .00183 70.2 39.15)" spreadMethod="pad" cx="0" cy="0" r="819.2" fx="0" fy="0"><stop offset="0" stop-color="#f39b61"/><stop offset="1" stop-color="#f8be98"/></radialGradient><path d="M71.95 35.6l.05.45-.65-.1-.15-.6.1.75-.1-.45-.05-2.35.1-1.7 1.05-1.3q-.6 2.05-.5 3.75l.1 1.45.05.1" fill="url(#a)"/><radialGradient id="b" gradientUnits="userSpaceOnUse" gradientTransform="matrix(.00066 .00006 -.00003 .00269 70.15 33.65)" spreadMethod="pad" cx="0" cy="0" r="819.2" fx="0" fy="0"><stop offset=".314" stop-color="#fff" stop-opacity=".431"/><stop offset="1" stop-color="#fff" stop-opacity="0"/></radialGradient><path d="M70.5 32.15l.05 1.55-.1 1.55-.1.3-.05.05-.15.3-.2-.35-.05-.05-.05-.3-.1-1.55q0-.9.15-1.55.1-.65.25-.65l.35.7" fill="url(#b)"/><radialGradient id="c" gradientUnits="userSpaceOnUse" gradientTransform="matrix(.00172 .00006 -.00006 .00183 70.25 38.85)" spreadMethod="pad" cx="0" cy="0" r="819.2" fx="0" fy="0"><stop offset="0" stop-color="#f39b61"/><stop offset="1" stop-color="#f8be98"/></radialGradient><path d="M72 36.05l-.05-.45v.05l.2.75.1.7v.1l-.15.5-.55.3-.45.2-.5.35-.75.1-1.15-.6-.15-.1v-.05q-.3-.35.05-.8l.05-.05h.05l.75.2.65.25.85-.25q.5-.35.45-.8l-.05-.5.65.1m-.35 1.65l-.45-.05-.2.05-.3.25h-.05l-.2.2-.4.1-.2-.1v.05l.3.05.15.05h.05l.15-.05.25-.3h.1l.25-.05.55-.15v-.05m-1.85.45l-.45-.35-.15-.05q-.35-.2-.5 0v.05l.6.2.2.05.1.05.2.05.05.05-.05-.05" fill="url(#c)"/><radialGradient id="d" gradientUnits="userSpaceOnUse" gradientTransform="matrix(.0005 .00003 -.00003 .00053 70 36.55)" spreadMethod="pad" cx="0" cy="0" r="819.2" fx="0" fy="0"><stop offset=".314" stop-color="#fff" stop-opacity=".431"/><stop offset="1" stop-color="#fff" stop-opacity="0"/></radialGradient><path d="M69.7 36.9l-.1-.35q0-.2.15-.3l.3-.1.3.1.1.35-.15.3-.35.1-.25-.1" fill="url(#d)"/><radialGradient id="e" gradientUnits="userSpaceOnUse" gradientTransform="matrix(.00136 -.00021 .00035 .00253 71.7 33.95)" spreadMethod="pad" cx="0" cy="0" r="819.2" fx="210473" fy="0"><stop offset=".337" stop-color="#f9c29f"/><stop offset="1" stop-color="#fedec1" stop-opacity="0"/></radialGradient><path d="M73.1 34.4l-.75.7-.45.6-.05-.05-.15-1.55.15-2v.25-.3q.45 1.4.95 1.65l.25.2.05.5" fill="url(#e)"/></g></svg>