<svg xmlns="http://www.w3.org/2000/svg" width="11" height="20"><g><radialGradient id="a" gradientUnits="userSpaceOnUse" gradientTransform="matrix(.00154 .00008 .00021 .00598 4 8.05)" spreadMethod="pad" cx="0" cy="0" r="819.2" fx="0" fy="0"><stop offset=".314" stop-color="#fff" stop-opacity=".431"/><stop offset="1" stop-color="#fff" stop-opacity="0"/></radialGradient><path d="M4.55 4.65l.4 3.5-.15 3.35-.15.75-.1.15-.45.55-.45-.65v-.1l-.3-.75Q3.05 10 3 8q-.05-2 .2-3.4.2-1.4.65-1.35.4 0 .7 1.4" fill="url(#a)"/><radialGradient id="b" gradientUnits="userSpaceOnUse" gradientTransform="rotate(-1.014 2718.817 -552.778) scale(.00409)" spreadMethod="pad" cx="0" cy="0" r="819.2" fx="0" fy="0"><stop offset="0" stop-color="#f39b61"/><stop offset="1" stop-color="#f8be98"/></radialGradient><path d="M5.5 11.75q-.15-1.25-.15-3.6-.05-2.4 1.25-6.3t.3.45q-1.05 4.35-.55 7.4.45 3 .9 3.75l-1.75-1.7" fill="url(#b)"/><radialGradient id="c" gradientUnits="userSpaceOnUse" gradientTransform="translate(3.85 14.6) scale(.00119)" spreadMethod="pad" cx="0" cy="0" r="819.2" fx="0" fy="0"><stop offset=".314" stop-color="#fff" stop-opacity=".431"/><stop offset="1" stop-color="#fff" stop-opacity="0"/></radialGradient><path d="M3.95 13.65l.7.2.25.75-.35.65-.65.3q-.4-.05-.65-.35L3 14.55q0-.4.25-.7.3-.25.7-.2" fill="url(#c)"/><radialGradient id="d" gradientUnits="userSpaceOnUse" gradientTransform="matrix(.00409 -.00003 .00003 .00409 4.2 19.4)" spreadMethod="pad" cx="0" cy="0" r="819.2" fx="0" fy="0"><stop offset="0" stop-color="#f39b61"/><stop offset="1" stop-color="#f8be98"/></radialGradient><path d="M5.5 11.75l1.75 1.7q.75 2.6.55 3.2l-.9.95-.8.5-1.1.8q-.9.65-1.8.25Q1.8 18.3.45 17.9l-.3-.2q-.4-1 .4-1.25l1.7.05 1.55.2 1.4-.8q.7-.65.3-4.15m-1.9 6.4v.05h-.05l-.4-.1.05.1.6.15h.35l.3-.15.1-.2.4-.4.15-.05.25-.05v.05l.1-.05.75-.1.25-.15v-.1l-.3-.2q-.25-.05-.45.15l-.25.1q-.35 0-.65.3l-.05.05-.4.45-.4.2-.35-.05m-1.15-.3h.1l.05.05h.05l.35.15.05.05v-.05l-.2-.2-.7-.5-.35-.2-.75-.1q-.25.05-.3.25l-.1.05q.65.4 1.2.35h.1l.4.1.1.05" fill="url(#d)"/><path d="M5.35 17.5l-.25.05-.15.05-.4.4-.1.2-.3.15H3.8l-.6-.15-.05-.1.4.1H3.95l.4-.2.4-.45.05-.05q.3-.3.65-.3l.25-.1q.2-.2.45-.15l.3.2v.1l-.25.15-.75.1h-.1M3 18.05l.05.05-.05-.05-.35-.15H2.6l-.05-.05h-.1L2 17.7H1.85q-.55.05-1.2-.35l.1-.05q.05-.2.3-.25l.75.1.35.2.7.5.15.2" fill="#823909"/><radialGradient id="e" gradientUnits="userSpaceOnUse" gradientTransform="matrix(.00429 -.0008 .00145 .00739 6.1 8.05)" spreadMethod="pad" cx="0" cy="0" r="819.2" fx="0" fy="0"><stop offset=".337" stop-color="#f9c29f"/><stop offset="1" stop-color="#fedec1" stop-opacity="0"/></radialGradient><path d="M10.6 9.2q.05 1.2-2.35 2.2-.8.3-1.25 1.75l-.1.05-.05-.15q-.65-2.1-.8-4.45-.15-2.45.15-6.1l.1.85-.1-.9q1.65 4.1 3.3 4.85l.85.5q.3.35.25 1.4" fill="url(#e)"/></g></svg>