<?xml version="1.0" encoding="utf-8"?>
<svg version="1.1" id="Layer_1"
xmlns="http://www.w3.org/2000/svg"
xmlns:xlink="http://www.w3.org/1999/xlink"
xmlns:author="http://www.sothink.com"
width="5px" height="9px"
xml:space="preserve">
<g id="448" transform="matrix(1, 0, 0, 1, -68.4, -30.3)">
<path style="fill:#823909;fill-opacity:1" d="M71.65,37.75L71.1 37.9L70.85 37.95L70.75 37.95L70.5 38.25L70.35 38.3L70.3 38.3L70.15 38.25L69.85 38.2L69.85 38.15L70.05 38.25L70.45 38.15L70.65 37.95L70.7 37.95L71 37.7L71.2 37.65L71.65 37.7L71.65 37.75M69.6,38.1L69.5 38.05L69.3 38L68.7 37.8L68.7 37.75Q68.85 37.55 69.2 37.75L69.35 37.8L69.8 38.15L69.6 38.1M69.85,38.2L69.8 38.15L69.85 38.2" />
<radialGradient
id="RadialGradID_3962" gradientUnits="userSpaceOnUse" gradientTransform="matrix(0.00172424, 6.10352e-005, -6.10352e-005, 0.00183105, 70.2, 39.15)" spreadMethod ="pad" cx="0" cy="0" r="819.2" fx="0" fy="0" >
<stop  offset="0"  style="stop-color:#F39B61;stop-opacity:1" />
<stop  offset="1"  style="stop-color:#F8BE98;stop-opacity:1" />
</radialGradient>
<path style="fill:url(#RadialGradID_3962) " d="M72,36.05L71.35 35.95L71.2 35.35L71.3 36.1L71.2 35.65L71.15 33.3L71.25 31.6L72.3 30.3Q71.7 32.35 71.8 34.05L71.9 35.5L71.95 35.6L72 36.05" />
<radialGradient
id="RadialGradID_3963" gradientUnits="userSpaceOnUse" gradientTransform="matrix(0.000656128, 6.10352e-005, -3.05176e-005, 0.00268555, 70.15, 33.65)" spreadMethod ="pad" cx="0" cy="0" r="819.2" fx="0" fy="0" >
<stop  offset="0.313725"  style="stop-color:#FFFFFF;stop-opacity:0.431373" />
<stop  offset="1"  style="stop-color:#FFFFFF;stop-opacity:0" />
</radialGradient>
<path style="fill:url(#RadialGradID_3963) " d="M70.5,32.15L70.55 33.7L70.45 35.25L70.35 35.55L70.3 35.6L70.15 35.9L69.95 35.55L69.9 35.5L69.85 35.2L69.75 33.65Q69.75 32.75 69.9 32.1Q70 31.45 70.15 31.45L70.5 32.15" />
<radialGradient
id="RadialGradID_3964" gradientUnits="userSpaceOnUse" gradientTransform="matrix(0.00172424, 6.10352e-005, -6.10352e-005, 0.00183105, 70.25, 38.85)" spreadMethod ="pad" cx="0" cy="0" r="819.2" fx="0" fy="0" >
<stop  offset="0"  style="stop-color:#F39B61;stop-opacity:1" />
<stop  offset="1"  style="stop-color:#F8BE98;stop-opacity:1" />
</radialGradient>
<path style="fill:url(#RadialGradID_3964) " d="M71.35,35.95L72 36.05L71.95 35.6L71.95 35.65L72.15 36.4L72.25 37.1L72.25 37.2L72.1 37.7L71.55 38L71.1 38.2L70.6 38.55L69.85 38.65L68.7 38.05L68.55 37.95L68.55 37.9Q68.25 37.55 68.6 37.1L68.65 37.05L68.7 37.05L69.45 37.25L70.1 37.5L70.95 37.25Q71.45 36.9 71.4 36.45L71.35 35.95M71.65,37.7L71.2 37.65L71 37.7L70.7 37.95L70.65 37.95L70.45 38.15L70.05 38.25L69.85 38.15L69.85 38.2L70.15 38.25L70.3 38.3L70.35 38.3L70.5 38.25L70.75 37.95L70.85 37.95L71.1 37.9L71.65 37.75L71.65 37.7M69.8,38.15L69.35 37.8L69.2 37.75Q68.85 37.55 68.7 37.75L68.7 37.8L69.3 38L69.5 38.05L69.6 38.1L69.8 38.15L69.85 38.2L69.8 38.15" />
<radialGradient
id="RadialGradID_3965" gradientUnits="userSpaceOnUse" gradientTransform="matrix(0.00050354, 3.05176e-005, -3.05176e-005, 0.000534058, 70, 36.55)" spreadMethod ="pad" cx="0" cy="0" r="819.2" fx="0" fy="0" >
<stop  offset="0.313725"  style="stop-color:#FFFFFF;stop-opacity:0.431373" />
<stop  offset="1"  style="stop-color:#FFFFFF;stop-opacity:0" />
</radialGradient>
<path style="fill:url(#RadialGradID_3965) " d="M69.7,36.9L69.6 36.55Q69.6 36.35 69.75 36.25L70.05 36.15L70.35 36.25L70.45 36.6L70.3 36.9L69.95 37L69.7 36.9" />
<radialGradient
id="RadialGradID_3966" gradientUnits="userSpaceOnUse" gradientTransform="matrix(0.00135803, -0.000213623, 0.000350952, 0.00253296, 71.7, 33.95)" spreadMethod ="pad" cx="0" cy="0" r="819.2" fx="210473" fy="0" >
<stop  offset="0.337255"  style="stop-color:#F9C29F;stop-opacity:1" />
<stop  offset="1"  style="stop-color:#FEDEC1;stop-opacity:0" />
</radialGradient>
<path style="fill:url(#RadialGradID_3966) " d="M73.1,34.4L72.35 35.1L71.9 35.7L71.85 35.65L71.7 34.1L71.85 32.1L71.85 32.35L71.85 32.05Q72.3 33.45 72.8 33.7L73.05 33.9L73.1 34.4" />
</g>
</svg>
