<svg xmlns="http://www.w3.org/2000/svg" width="14" height="22"><g><radialGradient id="a" gradientUnits="userSpaceOnUse" gradientTransform="matrix(.00154 .0001 .00021 .00674 4.7 8.75)" spreadMethod="pad" cx="0" cy="0" r="819.2" fx="0" fy="0"><stop offset=".314" stop-color="#fff" stop-opacity=".431"/><stop offset="1" stop-color="#fff" stop-opacity="0"/></radialGradient><path d="M5.25 4.9l.4 3.95-.15 3.8-.15.85-.1.1-.45.65-.45-.7v-.15l-.3-.8q-.3-1.65-.35-3.9-.05-2.3.2-3.85.2-1.6.65-1.5.4-.05.7 1.55" fill="url(#a)"/><radialGradient id="b" gradientUnits="userSpaceOnUse" gradientTransform="matrix(.00119 .00003 -.00003 .00134 4.55 16.1)" spreadMethod="pad" cx="0" cy="0" r="819.2" fx="0" fy="0"><stop offset=".314" stop-color="#fff" stop-opacity=".431"/><stop offset="1" stop-color="#fff" stop-opacity="0"/></radialGradient><path d="M3.95 16.75l-.25-.7q0-.45.25-.75.3-.3.7-.25.4-.05.7.25l.25.85-.35.7q-.3.3-.65.3l-.65-.4" fill="url(#b)"/><radialGradient id="c" gradientUnits="userSpaceOnUse" gradientTransform="matrix(.0055 -.0001 .00092 .00908 7.85 8.3)" spreadMethod="pad" cx="0" cy="0" r="819.2" fx="0" fy="0"><stop offset=".337" stop-color="#f9c29f"/><stop offset="1" stop-color="#fedec1" stop-opacity="0"/></radialGradient><path d="M13.45 10.55q-.15 1.5-3.3 2.2-1 .15-1.85 1.8v.1l-.1-.25q-.6-2.65-.45-5.5.15-2.8.9-7.1l.05.95-.05-1.05q1.6 5.2 3.6 6.4l1 .75q.3.5.2 1.7" fill="url(#c)"/><radialGradient id="d" gradientUnits="userSpaceOnUse" gradientTransform="matrix(.00409 -.00003 .00003 .0046 5.25 22.4)" spreadMethod="pad" cx="0" cy="0" r="819.2" fx="0" fy="0"><stop offset="0" stop-color="#f39b61"/><stop offset="1" stop-color="#f8be98"/></radialGradient><path d="M7.4 14.55v.3l-1 2.25q.4-.9.2-3.05-.25-2.15-.2-6.2 0-4.1.75-6.1Q7.85-.3 9.4.05 8 6.6 8.3 9.55l.55 4.8-1.45.2" fill="url(#d)"/><radialGradient id="e" gradientUnits="userSpaceOnUse" gradientTransform="matrix(.00409 -.00003 .00003 .0046 5.4 21.5)" spreadMethod="pad" cx="0" cy="0" r="819.2" fx="0" fy="0"><stop offset="0" stop-color="#f39b61"/><stop offset="1" stop-color="#f8be98"/></radialGradient><path d="M6.4 17.1l1-2.25v-.3l1.45-.2.8 3.65-2.05 1.6q-2.95 2.3-3.65 1.5l-2.8-1.75-1-.6Q-.4 18.4.8 17q1.45.2 2.25.9.75.65 1.3.7l1.1-.3.95-1.2" fill="url(#e)"/><path d="M6.55 18.95l-.3.2-.5.9-.35.25-.5.1H4l.55-.1q.5 0 1-.45L6 19.2v-.05l.7-.65.95-.4.6.05q-.6.6-1.1.65l-.6.15m-3 .9l-.05-.05-.35-.3-.15-.1-.4-.2-1.2-.7.05-.05q.35-.35 1 .15l.35.25.75.95v.05" fill="#823909"/></g></svg>