<?xml version="1.0" encoding="utf-8"?>
<svg version="1.1" id="Layer_1"
xmlns="http://www.w3.org/2000/svg"
xmlns:xlink="http://www.w3.org/1999/xlink"
xmlns:author="http://www.sothink.com"
width="5px" height="9px"
xml:space="preserve">
<g id="452" transform="matrix(1, 0, 0, 1, -68.3, -30.4)">
<path style="fill:#823909;fill-opacity:1" d="M70.45,38.05L71 37.65L71.4 37.55L71.2 37.6L71.5 37.55L71.65 37.65L71.65 37.7L71.05 37.9Q70.8 37.9 70.45 38.2L70.3 38.3L70.05 38.3L69.75 38.2L69.75 38.15L69.85 38.2L69.95 38.2L70.2 38.2L70.4 38.15L70.45 38.05M69.7,38.2L69.65 38.15L69.7 38.15L69.7 38.2M69.2,37.75L69.65 38.15L69.45 38L69.4 37.95L69.15 37.9L68.55 37.75L68.55 37.7L69.05 37.65L69.2 37.75" />
<radialGradient
id="RadialGradID_3984" gradientUnits="userSpaceOnUse" gradientTransform="matrix(0.00183105, 6.10352e-005, -6.10352e-005, 0.00198364, 70.15, 39.2)" spreadMethod ="pad" cx="0" cy="0" r="819.2" fx="0" fy="0" >
<stop  offset="0"  style="stop-color:#F39B61;stop-opacity:1" />
<stop  offset="1"  style="stop-color:#F8BE98;stop-opacity:1" />
</radialGradient>
<path style="fill:url(#RadialGradID_3984) " d="M72.05,35.85L71.3 35.8L71.2 35.15L71.25 35.9L71.2 35.4Q71.05 34.35 71.25 32.6Q71.45 30.85 71.7 30.5L71.75 30.4L72.15 30.4Q71.75 32.2 71.85 33.7L71.95 35.25L71.95 35.35L72.05 35.85" />
<radialGradient
id="RadialGradID_3985" gradientUnits="userSpaceOnUse" gradientTransform="matrix(0.00183105, 6.10352e-005, -6.10352e-005, 0.00198364, 70.2, 38.9)" spreadMethod ="pad" cx="0" cy="0" r="819.2" fx="0" fy="0" >
<stop  offset="0"  style="stop-color:#F39B61;stop-opacity:1" />
<stop  offset="1"  style="stop-color:#F8BE98;stop-opacity:1" />
</radialGradient>
<path style="fill:url(#RadialGradID_3985) " d="M69.75,38.15L69.75 38.2L70.05 38.3L70.3 38.3L70.45 38.2Q70.8 37.9 71.05 37.9L71.65 37.7L71.65 37.65L71.5 37.55Q72.35 37.3 71.4 36.3L71.3 35.8L72.05 35.85L71.95 35.35L72 35.4L72.15 36.25L72.3 37L72.3 37.1L71.95 37.8L70.95 38.45L70.45 38.7L69.55 38.6L68.55 37.95L68.4 37.9L68.4 37.85Q68.05 37.5 68.9 37.35L69.1 37.6L69.85 38.2L69.75 38.15M70.4,38.15L70.2 38.2L70.4 38.05L70.45 38.05L70.4 38.15M69.7,38.15L69.65 38.15L69.7 38.2L69.7 38.15M69.05,37.65L68.55 37.7L68.55 37.75L69.15 37.9L69.4 37.95L69.45 38L69.65 38.15L69.2 37.75L69.05 37.65" />
<radialGradient
id="RadialGradID_3986" gradientUnits="userSpaceOnUse" gradientTransform="matrix(0.000701904, 6.10352e-005, -3.05176e-005, 0.00291443, 70.05, 33.25)" spreadMethod ="pad" cx="0" cy="0" r="819.2" fx="0" fy="0" >
<stop  offset="0.313725"  style="stop-color:#FFFFFF;stop-opacity:0.431373" />
<stop  offset="1"  style="stop-color:#FFFFFF;stop-opacity:0" />
</radialGradient>
<path style="fill:url(#RadialGradID_3986) " d="M70.4,31.65L70.5 33.3L70.35 35L70.3 35.3L70.25 35.35L70.05 35.65L69.85 35.3L69.85 35.25L69.75 34.95L69.65 33.25Q69.65 32.2 69.8 31.55Q69.9 30.85 70.1 30.9Q70.25 30.9 70.4 31.65" />
<radialGradient
id="RadialGradID_3987" gradientUnits="userSpaceOnUse" gradientTransform="matrix(0.000534058, 3.05176e-005, -3.05176e-005, 0.000579834, 69.95, 36.4)" spreadMethod ="pad" cx="0" cy="0" r="819.2" fx="0" fy="0" >
<stop  offset="0.313725"  style="stop-color:#FFFFFF;stop-opacity:0.431373" />
<stop  offset="1"  style="stop-color:#FFFFFF;stop-opacity:0" />
</radialGradient>
<path style="fill:url(#RadialGradID_3987) " d="M69.5,36.4L69.65 36.05L69.95 35.95L70.25 36.1L70.35 36.45L70.2 36.75L69.9 36.9L69.6 36.7L69.5 36.4" />
<radialGradient
id="RadialGradID_3988" gradientUnits="userSpaceOnUse" gradientTransform="matrix(0.00143433, -0.000228882, 0.000366211, 0.00273132, 71.7, 33.55)" spreadMethod ="pad" cx="0" cy="0" r="819.2" fx="0" fy="0" >
<stop  offset="0.337255"  style="stop-color:#F9C29F;stop-opacity:1" />
<stop  offset="1"  style="stop-color:#FEDEC1;stop-opacity:0" />
</radialGradient>
<path style="fill:url(#RadialGradID_3988) " d="M73.25,34.05L72.4 34.8L71.9 35.45L71.9 35.4L71.7 33.75L71.85 31.5L71.85 31.8L71.85 31.5Q72.35 33.05 72.85 33.35L73.15 33.55L73.25 34.05" />
</g>
</svg>
