<svg xmlns="http://www.w3.org/2000/svg" width="5" height="9"><g transform="translate(-68.3 -30.4)"><path d="M70.45 38.05l.55-.4.4-.1-.2.05.3-.05.15.1v.05l-.6.2q-.25 0-.6.3l-.15.1h-.25l-.3-.1v-.05l.1.05h.35l.2-.05.05-.1m-.75.15l-.05-.05h.05v.05m-.5-.45l.45.4-.2-.15-.05-.05-.25-.05-.6-.15v-.05l.5-.05.15.1" fill="#823909"/><radialGradient id="a" gradientUnits="userSpaceOnUse" gradientTransform="matrix(.00183 .00006 -.00006 .00198 70.15 39.2)" spreadMethod="pad" cx="0" cy="0" r="819.2" fx="0" fy="0"><stop offset="0" stop-color="#f39b61"/><stop offset="1" stop-color="#f8be98"/></radialGradient><path d="M72.05 35.85l-.75-.05-.1-.65.05.75-.05-.5q-.15-1.05.05-2.8.2-1.75.45-2.1l.05-.1h.4q-.4 1.8-.3 3.3l.1 1.55v.1l.1.5" fill="url(#a)"/><radialGradient id="b" gradientUnits="userSpaceOnUse" gradientTransform="matrix(.00183 .00006 -.00006 .00198 70.2 38.9)" spreadMethod="pad" cx="0" cy="0" r="819.2" fx="0" fy="0"><stop offset="0" stop-color="#f39b61"/><stop offset="1" stop-color="#f8be98"/></radialGradient><path d="M69.75 38.15v.05l.3.1h.25l.15-.1q.35-.3.6-.3l.6-.2v-.05l-.15-.1q.85-.25-.1-1.25l-.1-.5.75.05-.1-.5.05.05.15.85.15.75v.1l-.35.7-1 .65-.5.25-.9-.1-1-.65-.15-.05v-.05q-.35-.35.5-.5l.2.25.75.6-.1-.05m.65 0l-.2.05.2-.15h.05l-.05.1m-.7 0h-.05l.05.05v-.05m-.65-.5l-.5.05v.05l.6.15.25.05.05.05.2.15-.45-.4-.15-.1" fill="url(#b)"/><radialGradient id="c" gradientUnits="userSpaceOnUse" gradientTransform="matrix(.0007 .00006 -.00003 .00291 70.05 33.25)" spreadMethod="pad" cx="0" cy="0" r="819.2" fx="0" fy="0"><stop offset=".314" stop-color="#fff" stop-opacity=".431"/><stop offset="1" stop-color="#fff" stop-opacity="0"/></radialGradient><path d="M70.4 31.65l.1 1.65-.15 1.7-.05.3-.05.05-.2.3-.2-.35v-.05l-.1-.3-.1-1.7q0-1.05.15-1.7.1-.7.3-.65.15 0 .3.75" fill="url(#c)"/><radialGradient id="d" gradientUnits="userSpaceOnUse" gradientTransform="matrix(.00053 .00003 -.00003 .00058 69.95 36.4)" spreadMethod="pad" cx="0" cy="0" r="819.2" fx="0" fy="0"><stop offset=".314" stop-color="#fff" stop-opacity=".431"/><stop offset="1" stop-color="#fff" stop-opacity="0"/></radialGradient><path d="M69.5 36.4l.15-.35.3-.1.3.15.1.35-.15.3-.3.15-.3-.2-.1-.3" fill="url(#d)"/><radialGradient id="e" gradientUnits="userSpaceOnUse" gradientTransform="matrix(.00143 -.00023 .00037 .00273 71.7 33.55)" spreadMethod="pad" cx="0" cy="0" r="819.2" fx="0" fy="0"><stop offset=".337" stop-color="#f9c29f"/><stop offset="1" stop-color="#fedec1" stop-opacity="0"/></radialGradient><path d="M73.25 34.05l-.85.75-.5.65v-.05l-.2-1.65.15-2.25v.3-.3q.5 1.55 1 1.85l.3.2.1.5" fill="url(#e)"/></g></svg>