<svg xmlns="http://www.w3.org/2000/svg" width="5" height="9"><g transform="translate(-68.25 -30.2)"><linearGradient id="a" gradientUnits="userSpaceOnUse" gradientTransform="matrix(0 -.00415 .00241 0 70.2 33.9)" x1="-819.2" x2="819.2"><stop offset=".22" stop-color="#fedec1"/><stop offset="1" stop-color="#fedec1" stop-opacity="0"/></linearGradient><path d="M70.35 30.2q1.1.15 1.2 2.25 0 2.1.65 4.75l-2.05 1.1-1.9-.9v-.25q.7-2.2.85-4.65.15-2.5 1.25-2.3" fill="url(#a)"/><radialGradient id="b" gradientUnits="userSpaceOnUse" gradientTransform="matrix(.0064 0 0 .0064 70.3 37.7)" spreadMethod="pad" cx="0" cy="0" r="819.2" fx="0" fy="0"><stop offset="0" stop-color="#f39b61"/><stop offset="1" stop-color="#f8be98" stop-opacity="0"/></radialGradient><path d="M72.05 36.05L71.3 36l-.1-.6.05.7-.05-.45q-.15-1.05-.05-2.3l.1-1.7 1.1-1.35q-.6 2.1-.5 3.75l.1 1.45v.1l.1.45" fill="url(#b)"/><radialGradient id="c" gradientUnits="userSpaceOnUse" gradientTransform="translate(70.2 38.85) scale(.00183)" spreadMethod="pad" cx="0" cy="0" r="819.2" fx="0" fy="0"><stop offset="0" stop-color="#f39b61"/><stop offset="1" stop-color="#f8be98"/></radialGradient><path d="M71.3 36l.75.05-.1-.45.05.05.15.75.15.7v.1l-.15.5-.6.3-.5.2-.9.35-.7-.2-.9-.35-.15-.05v-.05q-.35-.35.05-.75v-.05h.05l.75.15.8.25.85-.3q.55-.3.5-.75l-.1-.45m-1.55 2.2l.3.1h.2l.2-.1.25-.25h.1l.25-.05.6-.15v-.05l-.5-.05-.15.05q-.2.05-.35.25h-.05l-.2.2-.45.05-.2-.05v.05m-.55-.4l-.15-.1-.5.05v.05l.6.15.25.05.05.05.2.1.05.05v-.05h-.05q-.25-.25-.45-.35" fill="url(#c)"/><radialGradient id="d" gradientUnits="userSpaceOnUse" gradientTransform="matrix(.0007 .00006 -.00003 .00269 70.05 33.65)" spreadMethod="pad" cx="0" cy="0" r="819.2" fx="0" fy="0"><stop offset=".314" stop-color="#fff" stop-opacity=".431"/><stop offset="1" stop-color="#fff" stop-opacity="0"/></radialGradient><path d="M70.4 32.15l.1 1.55-.15 1.55-.05.3-.05.05-.2.25-.2-.3v-.05l-.1-.3-.1-1.55q0-.95.15-1.55.1-.65.3-.6l.3.65" fill="url(#d)"/><radialGradient id="e" gradientUnits="userSpaceOnUse" gradientTransform="matrix(.00053 .00003 -.00003 .00053 69.95 36.55)" spreadMethod="pad" cx="0" cy="0" r="819.2" fx="0" fy="0"><stop offset=".314" stop-color="#fff" stop-opacity=".431"/><stop offset="1" stop-color="#fff" stop-opacity="0"/></radialGradient><path d="M69.5 36.55q0-.2.15-.3l.3-.1.3.15.1.3-.15.3-.3.1-.3-.15-.1-.3" fill="url(#e)"/><path d="M69.75 38.15l.2.05.45-.05.2-.2h.05q.15-.2.35-.25l.15-.05.5.05v.05l-.6.15-.25.05h-.1l-.25.25-.2.1h-.2l-.3-.1v-.05m-.05 0v.05l-.05-.05h.05m-.05 0l-.2-.1-.05-.05-.25-.05-.6-.15v-.05l.5-.05.15.1q.2.1.45.35" fill="#823909"/></g></svg>