<svg xmlns="http://www.w3.org/2000/svg" width="5" height="10"><g><radialGradient id="a" gradientUnits="userSpaceOnUse" gradientTransform="matrix(.00873 0 0 .00873 1.9 7.65)" spreadMethod="pad" cx="0" cy="0" r="819.2" fx="0" fy="0"><stop offset=".306" stop-color="#fedec1"/><stop offset="1" stop-color="#ffecd9" stop-opacity=".282"/></radialGradient><path d="M3 2.85q-.05 2.1.15 3.8Q3.3 8.3 1.8 8.3q-.65 0-1.05-.5Q.4 7.4.1 7.6l.85-6.55v-.2q0-.4 1.1-.85.65.05.7.5.3.2.25 2.35" fill="url(#a)"/><path d="M2.8 7.95l.45.05v.05l-.6.15-.2.05-.1.05-.25.3-.15.05h-.2l-.25-.1-.05-.05.2.05.4-.05.25-.25.3-.25.2-.05M.8 8l.15.1.45.4v.05l-.05-.05-.15-.1-.1-.05-.2-.05q-.25.05-.55-.2v-.05L.8 8" fill="#823909"/><radialGradient id="b" gradientUnits="userSpaceOnUse" gradientTransform="matrix(.00174 .00008 -.00005 .00209 1.85 9.6)" spreadMethod="pad" cx="0" cy="0" r="819.2" fx="0" fy="0"><stop offset="0" stop-color="#f39b61"/><stop offset="1" stop-color="#f8be98"/></radialGradient><path d="M3.6 6.1l-.65-.05-.1-.7.05.85-.1-.5Q2.7 4.5 2.75 3l.1-1.9.1-.15q.35 1 .5 2.85l.1 1.7v.2l.05.4" fill="url(#b)"/><radialGradient id="c" gradientUnits="userSpaceOnUse" gradientTransform="matrix(.00066 .00008 -.00002 .00307 1.8 3.4)" spreadMethod="pad" cx="0" cy="0" r="819.2" fx="0" fy="0"><stop offset=".314" stop-color="#fff" stop-opacity=".431"/><stop offset="1" stop-color="#fff" stop-opacity="0"/></radialGradient><path d="M1.8.95l.3.75.1 1.75-.15 1.75-.1.35v.05l-.2.3-.2-.35V5.5l-.1-.35-.1-1.8q0-1.05.15-1.75.1-.7.3-.65" fill="url(#c)"/><radialGradient id="d" gradientUnits="userSpaceOnUse" gradientTransform="matrix(.00174 .00008 -.00005 .00209 1.85 9.25)" spreadMethod="pad" cx="0" cy="0" r="819.2" fx="0" fy="0"><stop offset="0" stop-color="#f39b61"/><stop offset="1" stop-color="#f8be98"/></radialGradient><path d="M2.95 6.05l.65.05-.05-.4.2.8.1.8.05.1-.2.6-.55.35-.45.2-.5.4-.75.1-1.15-.7-.1-.1H.15q-.3-.4.1-.9V7.3H.3q.3-.15.7.2.4.3.75.3l.8-.35q.5-.35.5-.85l-.1-.55M2.6 8l-.3.25-.25.25-.4.05-.2-.05.05.05.25.1h.2l.15-.05.25-.3.1-.05.2-.05.6-.15V8l-.45-.05-.2.05m-2.25.05v.05q.3.25.55.2l.2.05.1.05.15.1.05.05V8.5l-.45-.4L.8 8l-.45.05" fill="url(#d)"/><radialGradient id="e" gradientUnits="userSpaceOnUse" gradientTransform="matrix(.00052 .00005 -.00003 .00061 1.65 6.75)" spreadMethod="pad" cx="0" cy="0" r="819.2" fx="0" fy="0"><stop offset=".314" stop-color="#fff" stop-opacity=".431"/><stop offset="1" stop-color="#fff" stop-opacity="0"/></radialGradient><path d="M1.95 6.4l.1.35-.15.35-.3.1-.25-.15-.15-.35.15-.35.3-.1.3.15" fill="url(#e)"/><radialGradient id="f" gradientUnits="userSpaceOnUse" gradientTransform="matrix(.00136 -.00023 .00035 .00287 3.3 3.7)" spreadMethod="pad" cx="0" cy="0" r="819.2" fx="0" fy="0"><stop offset=".337" stop-color="#f9c29f"/><stop offset="1" stop-color="#fedec1" stop-opacity="0"/></radialGradient><path d="M4.7 4.25q.05.45-.75.8-.25.05-.45.65l-.05-.05L3.3 3.9l.15-2.3v.3-.35q.45 1.6.95 1.95l.25.15.05.6" fill="url(#f)"/></g></svg>