<svg xmlns="http://www.w3.org/2000/svg" width="6" height="9"><g transform="translate(-68.15 -30.25)"><path d="M69.7 38.35v.05l-.05-.05h.05m-.05 0l-.15-.1h-.05l-.05-.05-.25-.05-.6-.1V38l.5-.05.15.1.45.3m.1 0l.2.05.45-.05.2-.2h.05l.35-.2.15-.05.5.05V38l-.6.1-.25.05h-.1l-.25.25-.2.1h-.2l-.3-.1v-.05" fill="#823909"/><radialGradient id="a" gradientUnits="userSpaceOnUse" gradientTransform="matrix(.00183 .00006 -.00006 .00172 70.15 39.3)" spreadMethod="pad" cx="0" cy="0" r="819.2" fx="0" fy="0"><stop offset="0" stop-color="#f39b61"/><stop offset="1" stop-color="#f8be98"/></radialGradient><path d="M72.05 36.4l-.75-.05-.1-.6.05.7-.05-.45q-.15-1-.05-2.15l.1-1.6.95-1.15.15-.15q-.6 2-.5 3.55l.1 1.35v.1l.1.45" fill="url(#a)"/><radialGradient id="b" gradientUnits="userSpaceOnUse" gradientTransform="matrix(.00183 .00006 -.00006 .00172 70.2 39)" spreadMethod="pad" cx="0" cy="0" r="819.2" fx="0" fy="0"><stop offset="0" stop-color="#f39b61"/><stop offset="1" stop-color="#f8be98"/></radialGradient><path d="M68.45 37.4v-.05h.05l.75.15.8.25h.2l.65-.3q.55-.25.5-.7l-.1-.4.75.05-.1-.45.05.05.15.7.15.65v.1l-.05.35-.1.15-.15.1-.45.15-.5.2-.5.35-.35.1H69.75l-1.2-.65-.15-.05v-.05l-.15-.3.2-.4m.75.65l-.15-.1-.5.05v.05l.6.1.25.05.05.05h.05l.15.1.05.05v-.05h-.05l-.45-.3m.55.35l.3.1h.2l.2-.1.25-.25h.1l.25-.05.6-.1v-.05l-.5-.05-.15.05-.35.2h-.05l-.2.2-.45.05-.2-.05v.05" fill="url(#b)"/><radialGradient id="c" gradientUnits="userSpaceOnUse" gradientTransform="matrix(.0007 .00006 -.00003 .00253 70.05 34.1)" spreadMethod="pad" cx="0" cy="0" r="819.2" fx="0" fy="0"><stop offset=".314" stop-color="#fff" stop-opacity=".431"/><stop offset="1" stop-color="#fff" stop-opacity="0"/></radialGradient><path d="M70.4 32.7l.1 1.45-.15 1.5-.05.25-.05.05-.2.25-.2-.3v-.05l-.1-.25-.1-1.5q0-.85.15-1.45.1-.6.3-.55l.3.6" fill="url(#c)"/><radialGradient id="d" gradientUnits="userSpaceOnUse" gradientTransform="matrix(.00053 .00003 -.00003 .0005 69.95 36.85)" spreadMethod="pad" cx="0" cy="0" r="819.2" fx="0" fy="0"><stop offset=".314" stop-color="#fff" stop-opacity=".431"/><stop offset="1" stop-color="#fff" stop-opacity="0"/></radialGradient><path d="M69.5 36.85q0-.2.15-.3l.3-.1.3.15.1.3-.15.3-.3.05-.3-.1-.1-.3" fill="url(#d)"/><linearGradient id="e" gradientUnits="userSpaceOnUse" gradientTransform="matrix(0 -.0046 .00488 0 70.3 33.8)" x1="-819.2" x2="819.2"><stop offset="0" stop-color="#fedec1"/><stop offset="1" stop-color="#fedec1" stop-opacity=".153"/></linearGradient><path d="M68.25 37.8l-.05-.35v-.1l.15-.65.2-.7V35.85l.2-1.35.05-2.85q.1-.65.7-1.1.6-.5 1.35-.2.75.3 1.35.75l-.95 1.15-.1 1.6q-.1 1.15.05 2.15l.05.45-.05-.7.1.6.1.4q.05.45-.5.7l-.65.3h-.2l-.8-.25-.75-.15h-.05v.05l-.2.4m1.85-5.7q-.2-.05-.3.55-.15.6-.15 1.45l.1 1.5.1.25v.05l.2.3.2-.25.05-.05.05-.25.15-1.5-.1-1.45-.3-.6m-.5 5.05l.3.1.3-.05.15-.3-.1-.3-.3-.15-.3.1q-.15.1-.15.3l.1.3" fill="url(#e)"/><path d="M70.2 38.85h-.35" fill="none" stroke-width=".05" stroke-linecap="round" stroke-linejoin="round" stroke-miterlimit="3" stroke="#b76340" stroke-opacity=".502"/><radialGradient id="f" gradientUnits="userSpaceOnUse" gradientTransform="matrix(.00143 -.00018 .00037 .00238 71.7 34.4)" spreadMethod="pad" cx="0" cy="0" r="819.2" fx="0" fy="0"><stop offset=".337" stop-color="#f9c29f"/><stop offset="1" stop-color="#fedec1" stop-opacity="0"/></radialGradient><path d="M73.25 34.8q-.05.4-.85.7l-.5.55V36l-.2-1.45.15-1.95v.3-.3q.5 1.3 1 1.55l.3.2.1.45" fill="url(#f)"/></g></svg>