<svg xmlns="http://www.w3.org/2000/svg" width="37" height="62"><g transform="translate(-5.05 8.65)"><linearGradient id="a" gradientUnits="userSpaceOnUse" gradientTransform="matrix(-.00012 -.00676 .00865 -.0001 23 49.05)" x1="-819.2" x2="819.2"><stop offset="0" stop-color="#f04217" stop-opacity=".212"/><stop offset="1" stop-color="#fedec1" stop-opacity=".38"/></linearGradient><path d="M26.7 41.6l.35 6.45-.25 3q-.75 2.2-3.6 2.2-3.45 0-4.15-2.8v-3.1q0-1.55.15-2.5l-.15-2.3.5-.4.3 1.05q1.55-2.3 6-1.7l.85.1" fill="url(#a)"/><linearGradient id="b" gradientUnits="userSpaceOnUse" gradientTransform="matrix(-.02432 -.02507 .02441 -.02281 34.35 29.85)" x1="-819.2" x2="819.2"><stop offset=".208" stop-color="#e0826b" stop-opacity=".8"/><stop offset=".729" stop-color="#f1a06b" stop-opacity=".361"/><stop offset=".98" stop-color="#fedec1" stop-opacity=".263"/></linearGradient><path d="M11.1-7.95q.6-.85 1.8 0l.2.15q2 1.5 3.3 5.1 2.2 4.3 6.85 4.45 4.6-.15 6.8-4.45 1.3-3.6 3.25-5.1l.25-.15q1.15-.85 1.75 0l.45 1.5q.95 6.65.8 16.75-.15 8.8 3.65 18.35 1.2 3.1 1.1 6.25-.15 3.5-2.1 5.3-1.6 1.4-4.25 1.5-3.6.15-5.65 2.1-2.3 2.2-6.05 2.15-3.8.05-6.05-2.15-2.1-1.95-5.65-2.1-2.7-.1-4.3-1.5-2.05-1.8-2.2-5.3-.1-3.15 1.15-6.25Q10 19.1 9.9 10.3 9.7.2 10.65-6.45q.1-1 .45-1.5" fill="url(#b)"/><linearGradient id="c" gradientUnits="userSpaceOnUse" gradientTransform="matrix(.00015 -.03215 .03249 .00012 20.75 22.7)" x1="-819.2" x2="819.2"><stop offset="0" stop-color="#fee9d6" stop-opacity=".843"/><stop offset=".8" stop-color="#fff" stop-opacity="0"/></linearGradient><path d="M23.5 11.6q1.7 14.4 1.9 18.6.1 2.1-1.35 3.75-1.65 1.8-4.2 1.8-4.1 0-4.9-3.1-.7-3.6.85-11.1l4.45-30.2q.85 0 3.25 20.25" fill="url(#c)"/><radialGradient id="d" gradientUnits="userSpaceOnUse" gradientTransform="matrix(.02414 .00063 -.00117 .03148 23.45 26.2)" spreadMethod="pad" cx="0" cy="0" r="819.2" fx="0" fy="0"><stop offset=".463" stop-color="#cc663c"/><stop offset=".902" stop-color="#faa27c" stop-opacity=".263"/></radialGradient><path d="M17.9 39.7q2.65 1.85 5.7 1.7 2.5-.2 4.8-2.25l1.95-1.85q2-1.5 5.1-2 3.1-.5 4.1.9.75 1.05-.65 3.35-1.55 2.3-3.9 3.45-6.9 1.05-7.45 2.1-1.05 1.75-4.2 1.7-3.4 0-4.55-1.8l-2.05-1q-1.6-.75-3.2-.8-5.3-.2-5.75-2.9-.4-1.95.1-2.75 1-1.5 3.25-2 2.05-.5 2.85 1.1.55 1.1 2.15 2.1l1.75.95m-1.4 2.55l1.1.15-1.25-.2.15.05" fill="url(#d)"/><path d="M31.45 40.9q-.9.4-1.85.9l-.45-.05q-.15 0-.2-.3-.1-.5 1.25-1.4 1.45-.95 3.35-1.2 2.25-.35 3.05.45 0 .4-.3.4h-1.65q-1.15.2-3.2 1.2M17.45 41.6h.5l.15-.3q.25-.55-1.1-1.45-1.45-1.05-3.4-1.4-2.2-.45-3.15.25 0 .45.3.5l1.75.05q1.15.2 3.2 1.35l1.75 1" fill="#962e2e"/></g></svg>