<svg xmlns="http://www.w3.org/2000/svg" width="6" height="10"><g><path d="M1.75 8.95q-.15-.1-.65-.25l-.65-.2.35-.1h.05l.4.1v.05l.45.3.15.15-.1-.05m2.3-.25l-.5.05L3.1 9v-.1l.35-.35q.2-.15.55-.15.3-.05.35.2l-.05.1h-.25" fill="#823909"/><radialGradient id="a" gradientUnits="userSpaceOnUse" gradientTransform="matrix(.0007 .00006 -.00003 .00269 2.25 4.2)" spreadMethod="pad" cx="0" cy="0" r="819.2" fx="0" fy="0"><stop offset=".314" stop-color="#fff" stop-opacity=".431"/><stop offset="1" stop-color="#fff" stop-opacity="0"/></radialGradient><path d="M2.6 2.7l.1 1.55-.15 1.55-.05.3-.05.05-.2.25-.2-.3v-.05l-.1-.3-.1-1.55q0-.95.15-1.55.1-.65.3-.6l.3.65" fill="url(#a)"/><radialGradient id="b" gradientUnits="userSpaceOnUse" gradientTransform="matrix(.00053 .00003 -.00003 .00053 2.15 7.1)" spreadMethod="pad" cx="0" cy="0" r="819.2" fx="0" fy="0"><stop offset=".314" stop-color="#fff" stop-opacity=".431"/><stop offset="1" stop-color="#fff" stop-opacity="0"/></radialGradient><path d="M1.7 7.1q0-.2.15-.3l.3-.1.3.15.1.3-.15.3-.3.1-.3-.15-.1-.3" fill="url(#b)"/><radialGradient id="c" gradientUnits="userSpaceOnUse" gradientTransform="matrix(.00511 .00023 -.00006 .00151 2.5 9.1)" spreadMethod="pad" cx="0" cy="0" r="819.2" fx="0" fy="0"><stop offset="0" stop-color="#f08c4a"/><stop offset="1" stop-color="#f9c29f"/></radialGradient><path d="M3.95 6.35l.35.45.4.2.35.4-.1.6-.35.55-.3.15.05-.1Q4.3 8.35 4 8.4q-.35 0-.55.15l-.35.35V9l-.45.25-.55-.05-.25-.2-.15-.15-.45-.3V8.5l-.4-.1H.8l-.35.1-.4-.3v-.6q.05-.5.7-.9l.1-.05.35.2.45.6.75.5q.3 0 .45-.2l.15-.5V5.9l-.1-1.6q0-.8.35-2.6.4-1 1.05-1.7l-.45 2.15v.05l-.3 1.75q-.15.7 0 1.25l.25.85.15.3" fill="url(#c)"/><radialGradient id="d" gradientUnits="userSpaceOnUse" gradientTransform="matrix(.00235 0 0 .00429 3.5 4.1)" spreadMethod="pad" cx="0" cy="0" r="819.2" fx="210473" fy="0"><stop offset=".337" stop-color="#f9c29f"/><stop offset="1" stop-color="#fedec1" stop-opacity="0"/></radialGradient><path d="M5.65 3.85V5.2q-1.6.1-1.85.85l-.25-.85q-.15-.55 0-1.25l.3-1.75v-.05q.55 1.55 1.8 1.7" fill="url(#d)"/></g></svg>