<svg xmlns="http://www.w3.org/2000/svg" width="144" height="185"><g transform="translate(67 99)"><path d="M76.95 86H-67V-99H76.95V86" fill="none"/><radialGradient id="a" gradientUnits="userSpaceOnUse" gradientTransform="matrix(.02107 -.0095 .01035 .03552 16.1 -13.6)" spreadMethod="pad" cx="0" cy="0" r="819.2" fx="210473" fy="0"><stop offset=".337" stop-color="#f9c29f" stop-opacity=".741"/><stop offset="1" stop-color="#fedec1" stop-opacity="0"/></radialGradient><path d="M39.35-13.75Q39.85-7.5 28.3.5 24.6 3 22.65 11.2v.15l-.05.05-.65-.65Q17.9.85 16.25-11q-1.7-11.85-1.85-30.7l.9 3.9-.85-4.25q9.75 18.45 18.5 20.2 3.75.8 4.5 1.45 1.5 1.4 1.9 6.65" fill="url(#a)"/><path d="M21.75 49.25q-.5 2.25-6.25 3.95-1.25.55-2.2 1.15l-.95.7-1.75 1.55-.4.5.15-.35q2.05-3.65 4.1-5.55l1.6-1.2q3.5-2.95 5.5-1.25l.2.5m-48.1-2.5q1.95-1.7 5.45 1.25l.9.6.7.6q2.05 1.9 4.15 5.55l.15.35-.45-.5q-.7-.8-1.75-1.55l-.9-.7-1.9-1-.35-.15q-5.75-1.7-6.2-3.95l.2-.5" fill="#823909"/><linearGradient id="b" gradientUnits="userSpaceOnUse" gradientTransform="matrix(0 .08636 -.0821 0 .2 -4.65)" x1="-819.2" x2="819.2"><stop offset=".314" stop-color="#f8be98" stop-opacity=".431"/><stop offset="1" stop-color="#f8be98"/></linearGradient><path d="M14.2-62.7q-.6 14.4 2.5 36.55 3.05 22.1 6.55 31.65 3.45 9.55 9.65 17.4 6.15 7.85 4.95 17.35l-.2 1.25q-.6 3.2-2.15 5.3l-.95 1.1q-2.75 2.6-5.25 3.85-2.55 1.2-4.4 1.45-5.5.45-9.8 2.8l-7.7 4.3q-5.2 2.35-9.15 2.3-3-.1-5.3-1.6l-8.8-5.95q-1.85-1.4-4.15-2.25-1.7-.7-3.65-1.05l-.6-.15Q-29 50.1-32 48.3q-8.65-6.5-3.9-13.6 4.3-6.25 16.05 2.8 3.15 2.45 6.85 6l2.75 1.55q9.4 4.45 20.8-1.15Q23.6 37.45 21.8 29.2l-2.5-6.25q-7-13.6-9.2-31.9-3.4-28.6 4.1-62.95v9.2m7.35 111.45q-2-1.7-5.5 1.25l-1.6 1.2q-2.05 1.9-4.1 5.55l-.15.35.4-.5 1.75-1.55.95-.7q.95-.6 2.2-1.15 5.75-1.7 6.25-3.95l-.2-.5m-48.1-1.5q.45 2.25 6.2 3.95l.35.15 1.9 1 .9.7q1.05.75 1.75 1.55l.45.5-.15-.35q-2.1-3.65-4.15-5.55l-.7-.6-.9-.6q-3.5-2.95-5.45-1.25l-.2.5" fill="url(#b)"/><radialGradient id="c" gradientUnits="userSpaceOnUse" gradientTransform="matrix(.01059 .00098 -.00038 .0407 1.5 -11.95)" spreadMethod="pad" cx="0" cy="0" r="819.2" fx="0" fy="0"><stop offset=".314" stop-color="#fff" stop-opacity=".431"/><stop offset="1" stop-color="#fff" stop-opacity="0"/></radialGradient><path d="M6.3-34.75Q8.1-24.9 8-11.2 7.75 2.45 5.75 11.9l-1.3 4.95-.45.7Q2.7 21.3 1.05 21.2q-1.8-.2-3.15-4.35l-.3-.8-1.25-4.85q-1.85-9.85-1.7-23.55.2-13.85 2.3-23.45 1.9-9.35 4.65-8.95 2.8.2 4.7 10" fill="url(#c)"/><radialGradient id="d" gradientUnits="userSpaceOnUse" gradientTransform="rotate(3.009 -560.043 2.978) scale(.00819)" spreadMethod="pad" cx="0" cy="0" r="819.2" fx="0" fy="0"><stop offset=".314" stop-color="#fff" stop-opacity=".431"/><stop offset="1" stop-color="#fff" stop-opacity="0"/></radialGradient><path d="M3.25 37.15Q1.3 39-1.3 38.8q-2.65-.2-4.5-2.3-1.8-1.95-1.65-4.6.05-2.65 1.95-4.5 2.15-1.8 4.95-1.65 2.7.05 4.5 2 1.85 2.15 1.65 4.9-.2 2.7-2.35 4.5" fill="url(#d)"/></g></svg>