<svg xmlns="http://www.w3.org/2000/svg" width="6" height="9"><g transform="translate(-67.8 -29.9)"><path d="M69.7 38.1l.2.05.55-.05.2-.15h.05l.35-.25.2-.05.55.05v.05l-.6.15-.3.05h-.15l-.25.2-.25.1H70l-.3-.1v-.05m-.9-.4l.25.1.5.3h.05v.05l-.05-.05-.15-.05m0 0h-.05l-.1-.05-.25-.05-.7-.15-.05-.05.55-.05" fill="#823909"/><radialGradient id="a" gradientUnits="userSpaceOnUse" gradientTransform="matrix(.00212 .00005 0 .00175 70.2 39.1)" spreadMethod="pad" cx="0" cy="0" r="819.2" fx="0" fy="0"><stop offset="0" stop-color="#f39b61"/><stop offset="1" stop-color="#f8be98"/></radialGradient><path d="M72.25 36.1l-.9-.05-.1-.55.05.65-.05-.4q-.2-1-.15-2.2V31.9l1.05-1.15.2-.15q-.6 2-.45 3.6l.2 1.4v.1l.15.4" fill="url(#a)"/><radialGradient id="b" gradientUnits="userSpaceOnUse" gradientTransform="matrix(.00212 .00005 0 .00175 70.2 38.8)" spreadMethod="pad" cx="0" cy="0" r="819.2" fx="0" fy="0"><stop offset="0" stop-color="#f39b61"/><stop offset="1" stop-color="#f8be98"/></radialGradient><path d="M68.1 37.15v-.05h.1l.85.15.9.25h.25l.75-.3q.65-.25.55-.7l-.15-.45.9.05-.15-.4.1.05.15.7.2.65v.1l-.05.35-.1.15-.1.1-.55.2-.55.15-.6.35-.4.15h-.4l-.1-.05q-.8-.45-1.4-.6l-.2-.05v-.05q-.25-.15-.2-.35-.05-.2.2-.4m1.6 1l.3.1h.25l.25-.1.25-.2h.15l.3-.05.6-.15v-.05l-.55-.05-.2.05-.35.25h-.05l-.2.15-.55.05-.2-.05v.05m-.1 0v-.05h-.05l.05.05m-.8-.45l-.55.05.05.05.7.15.25.05.1.05h.05l.15.05-.5-.3-.25-.1" fill="url(#b)"/><radialGradient id="c" gradientUnits="userSpaceOnUse" gradientTransform="matrix(.0008 .00006 .00008 .00256 69.8 33.8)" spreadMethod="pad" cx="0" cy="0" r="819.2" fx="0" fy="0"><stop offset=".314" stop-color="#fff" stop-opacity=".431"/><stop offset="1" stop-color="#fff" stop-opacity="0"/></radialGradient><path d="M70.2 32.4l.15 1.45-.15 1.5v.3l-.05.05-.25.2-.2-.25v-.05l-.15-.3-.2-1.5q-.05-.9.15-1.45.05-.65.3-.6l.4.65" fill="url(#c)"/><radialGradient id="d" gradientUnits="userSpaceOnUse" gradientTransform="matrix(.00061 .00003 -.00002 .0005 69.8 36.6)" spreadMethod="pad" cx="0" cy="0" r="819.2" fx="0" fy="0"><stop offset=".314" stop-color="#fff" stop-opacity=".431"/><stop offset="1" stop-color="#fff" stop-opacity="0"/></radialGradient><path d="M69.3 36.6q0-.2.15-.3l.35-.1q.25 0 .35.15l.15.3-.15.3-.35.05-.35-.1-.15-.3" fill="url(#d)"/><linearGradient id="e" gradientUnits="userSpaceOnUse" gradientTransform="matrix(-.0002 -.00467 .00565 -.00003 70.1 33.5)" x1="-819.2" x2="819.2"><stop offset="0" stop-color="#fedec1"/><stop offset="1" stop-color="#fedec1" stop-opacity=".153"/></linearGradient><path d="M67.9 37.55l-.05-.35v-.1l.1-.65.25-.7V35.6l.1-1.4v-2.85q.05-.7.75-1.15l1.55-.2q.85.3 1.55.75L71.1 31.9v1.65q-.05 1.2.15 2.2l.05.4-.05-.65.1.55.15.45q.1.45-.55.7l-.75.3h-.25l-.9-.25-.85-.15h-.1v.05q-.25.2-.2.4m1.9-5.8q-.25-.05-.3.6-.2.55-.15 1.45l.2 1.5.15.3v.05l.2.25.25-.2.05-.05v-.3l.15-1.5-.15-1.45-.4-.65m-.35 5.15l.35.1.35-.05.15-.3-.15-.3q-.1-.15-.35-.15l-.35.1q-.15.1-.15.3l.15.3" fill="url(#e)"/><path d="M70.2 38.65h-.4" fill="none" stroke-width=".05" stroke-linecap="round" stroke-linejoin="round" stroke-miterlimit="3" stroke="#b76340" stroke-opacity=".502"/><radialGradient id="f" gradientUnits="userSpaceOnUse" gradientTransform="matrix(.00165 -.00021 .00053 .00241 71.7 34.15)" spreadMethod="pad" cx="0" cy="0" r="819.2" fx="210473" fy="0"><stop offset=".337" stop-color="#f9c29f"/><stop offset="1" stop-color="#fedec1" stop-opacity="0"/></radialGradient><path d="M73.45 34.55l-.9.7q-.35.05-.55.55v-.05l-.35-1.45.1-1.95v.25-.25q.65 1.3 1.25 1.55l.35.2.1.45" fill="url(#f)"/></g></svg>