<?xml version="1.0" encoding="utf-8"?>
<svg version="1.1" id="Layer_1"
xmlns="http://www.w3.org/2000/svg"
xmlns:xlink="http://www.w3.org/1999/xlink"
xmlns:author="http://www.sothink.com"
width="3px" height="3px"
xml:space="preserve">
<g id="465" transform="matrix(1, 0, 0, 1, 1.45, 1.3)">
<path style="fill:#823909;fill-opacity:1" d="M1.1,0.4L1.15 0.45L1.25 0.7L1.2 0.95L1 0.8L0.8 0.55L0.6 0.3L0.8 0.4L1 0.35L1.1 0.4M-1,0.6L-0.85 0.4L-0.55 0.25L-0.5 0.3L-0.6 0.65L-0.8 0.85L-0.85 0.85L-0.9 0.9L-1.05 0.9L-1.05 0.6L-1 0.6" />
<radialGradient
id="RadialGradID_4060" gradientUnits="userSpaceOnUse" gradientTransform="matrix(0.000534058, 3.05176e-005, -3.05176e-005, 0.000534058, -0.15, -0.85)" spreadMethod ="pad" cx="0" cy="0" r="819.2" fx="0" fy="0" >
<stop  offset="0.313725"  style="stop-color:#FFFFFF;stop-opacity:0.431373" />
<stop  offset="1"  style="stop-color:#FFFFFF;stop-opacity:0" />
</radialGradient>
<path style="fill:url(#RadialGradID_4060) " d="M-0.15,-1.3L0.15 -1.15L0.25 -0.85L0.1 -0.55Q-0.05 -0.4 -0.2 -0.4L-0.5 -0.55L-0.6 -0.85L-0.45 -1.15L-0.15 -1.3" />
<radialGradient
id="RadialGradID_4061" gradientUnits="userSpaceOnUse" gradientTransform="matrix(0.00172424, 0, 0, 0.00172424, -0.05, 1.4)" spreadMethod ="pad" cx="0" cy="0" r="819.2" fx="0" fy="0" >
<stop  offset="0"  style="stop-color:#F39B61;stop-opacity:1" />
<stop  offset="1"  style="stop-color:#F8BE98;stop-opacity:1" />
</radialGradient>
<path style="fill:url(#RadialGradID_4061) " d="M1.3,0.15L1.45 0.55L1.25 1.05L1 1.2L0.45 1.25L0.15 1.35L-0.85 1.05L-1.1 0.9L-1.3 0.7L-1.35 0.7L-1.4 0.65Q-1.5 0.2 -1.2 0.05L-0.65 -0.05L0.2 0L0.95 0L1.3 0.15M1,0.35L0.8 0.4L0.6 0.3L0.8 0.55L1 0.8L1.2 0.95L1.25 0.7L1.15 0.45L1.1 0.4L1 0.35M-1.05,0.6L-1.05 0.9L-0.9 0.9L-0.85 0.85L-0.8 0.85L-0.6 0.65L-0.5 0.3L-0.55 0.25L-0.85 0.4L-1 0.6L-1.05 0.6" />
</g>
</svg>
