<svg xmlns="http://www.w3.org/2000/svg" width="7" height="9"><g transform="translate(3.35 4.8)"><radialGradient id="a" gradientUnits="userSpaceOnUse" gradientTransform="matrix(.0007 .00006 -.00003 .00269 -.65 -1.25)" spreadMethod="pad" cx="0" cy="0" r="819.2" fx="0" fy="0"><stop offset=".314" stop-color="#fff" stop-opacity=".431"/><stop offset="1" stop-color="#fff" stop-opacity="0"/></radialGradient><path d="M-.9-2.8l.3-.65.3.7.1 1.55L-.3.35l-.1.3-.05.05-.2.3-.2-.35L-.9.6V.3L-.95.1l-.1-1.35.15-1.55" fill="url(#a)"/><radialGradient id="b" gradientUnits="userSpaceOnUse" gradientTransform="matrix(.00053 .00003 -.00003 .00053 -.75 1.65)" spreadMethod="pad" cx="0" cy="0" r="819.2" fx="0" fy="0"><stop offset=".314" stop-color="#fff" stop-opacity=".431"/><stop offset="1" stop-color="#fff" stop-opacity="0"/></radialGradient><path d="M-.75 1.25l.3.1.15.35-.2.3-.3.1-.25-.1-.15-.35.15-.3.3-.1" fill="url(#b)"/><path d="M.5-3.65q0-.65.15-1.15v1.05-.05q0 1.95.6 2.8l1 1.25q.4.45.45 1.05l-.3.9-.2.15-.3.25-.7.45-1 .35-.85.1-.9-.2-.65-.15-.1-.1V3l-.05.05-.15-.15-.55-.55-.3-.9q0-.55.8-1.3.75-.7.65-1.2l.05.2-.15.6-.05.05-.1.15-.5.6-.3.9q0 .95.75 1l.65.25 1.45.1.65-.15.4-.2q.9-.1 1.15-.6L2.15 1l-.3-.65L1.5-.1l-.35-.55Q.85-1.1.65-1.9L.5-3.1v-.55" fill="#f9c29f"/><path d="M.95 2.95L.4 3.1l-.25.05h-.1L0 3.2v-.05l.3-.25.2-.05.45.05v.05m-2.1.2l-.1-.05-.25-.05-.6-.2V2.8q.1-.2.5 0l.2.05.4.35-.15-.05" fill="#823909"/><path d="M1.05 1.75L.7 2.6q-.35.4-1.15.35-.9-.05-1.15-.45l-.3-.65.55.55 1.1.25.95-.4.35-.5" fill="#f9c29f"/><radialGradient id="c" gradientUnits="userSpaceOnUse" gradientTransform="translate(-.6 1.9) scale(.00531)" spreadMethod="pad" cx="0" cy="0" r="819.2" fx="0" fy="0"><stop offset=".008" stop-color="#f9c8a8" stop-opacity=".333"/><stop offset="1" stop-color="#f39b61" stop-opacity="0"/></radialGradient><path d="M1.95.3L2 .45 1.75.4q-.75.3-.8.9v.2l-.05.4-.3.45v.35h.45Q2 2.1 2 1.6q0-.45.4-.6l-.3.7-.75 1.15q-.75.7-1.9.7t-1.75-.5l-.75-.95-.15-.75.05-.3.25.2q0 1.55.9 1.55l.75.05-.3-.45.1.1v-.1l-.4-.55-.15-.3-.15-.55q-.05-.5-.4-.7l.75-1.35V-2.5l.05-.1 1.85.05h.4l.15.3.9 1.85.45.6-.05.1.15-.05-.15.05" fill="url(#c)"/><radialGradient id="d" gradientUnits="userSpaceOnUse" gradientTransform="translate(-.6 1.9) scale(.00531)" spreadMethod="pad" cx="0" cy="0" r="819.2" fx="0" fy="0"><stop offset=".008" stop-color="#f07828" stop-opacity=".333"/><stop offset="1" stop-color="#f39b61" stop-opacity="0"/></radialGradient><path d="M2.1.25q-.25.15.3.75-.4.15-.4.6 0 .5-.95 1.1H.6v-.35l.3-.45.05-.4v-.2q.05-.6.8-.9L2 .45 1.95.3 2.1.25m-5.25.8l.4-.6.25-.05-.05-.1q.35.2.4.7l.15.55.15.3.4.55v.1l-.1-.1.3.45L-2 2.8q-.9 0-.9-1.55l-.25-.2" fill="url(#d)"/></g></svg>