<svg xmlns="http://www.w3.org/2000/svg" width="5" height="9"><g transform="translate(2.35 4.35)"><path d="M1.75 3q-.2 0-.3.1l-.15.1.1-.95q.05-.6.45-.6l.4.25.05.2.05.25-.2.5-.25.35-.15-.2" fill="#fcd1af"/><path d="M1.9 3.2l-.5.35-.45.15.35-.5.15-.1q.1-.1.3-.1l.15.2m-2.8.4l-.25-.1-.45-.25-.1-.3.05-.1h.15l.35.4.25.35" fill="#aa6e46"/><path d="M1-2.1L.95-.7v2.3L.7 3.4q-.3.4-.7.45l-.55-.5-.3-.4-.1-.05v-.4l.1-2.05-.05-2.4.05-1.6Q-.4-4.25.4-4.2q.45 0 .7.45l.15.55q-.2.45-.25 1.1" fill="#fedec1"/><radialGradient id="a" gradientUnits="userSpaceOnUse" gradientTransform="matrix(.00995 0 0 .00995 1.15 -.7)" spreadMethod="pad" cx="0" cy="0" r="819.2" fx="0" fy="0"><stop offset="0" stop-color="#f8b991"/><stop offset=".992" stop-color="#f7c4a2"/></radialGradient><path d="M.95 3.7l-.4.4q-.35.35-.65.3l-.55-.45-.25-.35-.25-.35q0-.2.5 0l-.2-.15v-.15l.3.4.55.5q.4-.05.7-.45l.25-1.8V-.7L1-2.1q.05-.65.25-1.1l.95-1.15h.05q-.8.35-.85 2.5l.1.5.05.6.05.6q0 1.05.2 1.35l.3.55.15.15-.4-.25q-.4 0-.45.6l-.1.95-.35.5" fill="url(#a)"/><radialGradient id="b" gradientUnits="userSpaceOnUse" gradientTransform="matrix(.00578 0 0 .00578 -1.1 -1.8)" spreadMethod="pad" cx="0" cy="0" r="819.2" fx="0" fy="0"><stop offset="0" stop-color="#fdd7b8"/><stop offset=".973" stop-color="#fdd9ba"/></radialGradient><path d="M-1.75 1.55l.3-.9.15-1.5v-1.3q0-.7.4-1.3l.05-.1-.05 1.6.05 2.4-.1 2.05v.25l-.3-.4-.5-.8" fill="url(#b)"/><radialGradient id="c" gradientUnits="userSpaceOnUse" gradientTransform="translate(-2.05 2.85) scale(.00122)" spreadMethod="pad" cx="0" cy="0" r="819.2" fx="0" fy="0"><stop offset="0" stop-color="#f8b991"/><stop offset=".973" stop-color="#f8c9a9"/></radialGradient><path d="M-1.25 2.35l.3.4v.15l.1.05v.15l.2.15q-.5-.2-.5 0l-.35-.4h-.15l-.05.1.1.3q-.8-.2-.75-.8-.05-.65.45-.8l.15-.1.5.8" fill="url(#c)"/><radialGradient id="d" gradientUnits="userSpaceOnUse" gradientTransform="matrix(.00061 0 0 .0026 .15 -1.7)" spreadMethod="pad" cx="0" cy="0" r="819.2" fx="0" fy="0"><stop offset="0" stop-color="#fff" stop-opacity=".714"/><stop offset=".973" stop-color="#fff" stop-opacity="0"/></radialGradient><path d="M.5-3.5l.1 1.15L.5-.4.1.95Q-.25.75-.25-1.8v-1.35l.05-.15.1-.3.3-.3.3.4" fill="url(#d)"/><radialGradient id="e" gradientUnits="userSpaceOnUse" gradientTransform="translate(.15 3.35) scale(.00154)" spreadMethod="pad" cx="0" cy="0" r="819.2" fx="0" fy="0"><stop offset="0" stop-color="#fff" stop-opacity=".663"/><stop offset=".973" stop-color="#fff" stop-opacity="0"/></radialGradient><path d="M-.65 1.55l.5.2.55-.05q.35-.05.35.75L.5 3.3l-.45.3q-.25 0-.6-.35l-.4-.75.3-.95" fill="url(#e)"/></g></svg>