<svg xmlns="http://www.w3.org/2000/svg" width="4" height="9"><g transform="translate(1.55 4.05)"><radialGradient id="a" gradientUnits="userSpaceOnUse" gradientTransform="matrix(.00186 .00006 -.00006 .00185 -66.45 50.7)" spreadMethod="pad" cx="0" cy="0" r="819.2" fx="0" fy="0"><stop offset="0" stop-color="#f39b61"/><stop offset="1" stop-color="#f8be98"/></radialGradient><path d="M-1.5-4.05l.9 1.3.2 1.15-.05 1.05-.1.05-.55-1.75-.45-1.8h.05M1.15 3.5l.25.1v.05l-1.3.4-.55-.2-.45-.15h-.05l-.4-.25-.15-.2.15-.3.4-.5.5-.4-.25.6v.45l.05.3.65.2.4-.15.75.05" fill="url(#a)"/><radialGradient id="b" gradientUnits="userSpaceOnUse" gradientTransform="matrix(.0007 .00006 -.00003 .00272 .2 -1)" spreadMethod="pad" cx="0" cy="0" r="819.2" fx="0" fy="0"><stop offset=".314" stop-color="#fff" stop-opacity=".431"/><stop offset="1" stop-color="#fff" stop-opacity="0"/></radialGradient><path d="M.6-.95L.45.6.4.9.35.95l-.2.25-.2-.3L-.1.85l-.05-.3L-.3-1l.2-1.6q.1-.6.3-.6l.3.7.1 1.55" fill="url(#b)"/><radialGradient id="c" gradientUnits="userSpaceOnUse" gradientTransform="rotate(2.858 -45.934 1.03) scale(.00055)" spreadMethod="pad" cx="0" cy="0" r="819.2" fx="0" fy="0"><stop offset=".314" stop-color="#fff" stop-opacity=".431"/><stop offset="1" stop-color="#fff" stop-opacity="0"/></radialGradient><path d="M0 2.1q.15 0 .3.15l.1.35-.15.3-.3.1-.3-.15-.1-.3.1-.3L0 2.1" fill="url(#c)"/><path d="M-.5 3.65l.4.3h-.05l-.15-.1h-.05l-.2-.05-.5-.15.05-.05q.1-.15.35 0l.15.05m1.5.1l-.2.05H.7L.5 4l-.15.05H.2l-.25-.1H-.1L.1 4l.35-.05.2-.15q.15-.15.3-.2l.1-.05.4.05h.05l-.5.15" fill="#823909"/></g></svg>