<svg xmlns="http://www.w3.org/2000/svg" width="7" height="10"><g transform="translate(3 4.8)"><radialGradient id="a" gradientUnits="userSpaceOnUse" gradientTransform="matrix(.0019 -.00027 .0005 .0033 1.1 -.05)" spreadMethod="pad" cx="0" cy="0" r="819.2" fx="210473" fy="0"><stop offset=".337" stop-color="#f9c29f"/><stop offset="1" stop-color="#fedec1" stop-opacity="0"/></radialGradient><path d="M3-.15l.05.65q0 .55-1.05.95-.35.1-.55.75v.1h-.1v-.15Q1.1 1.25 1.1.2l.15-2.7v-.05Q1.9-.7 2.6-.35l.4.2" fill="url(#a)"/><radialGradient id="b" gradientUnits="userSpaceOnUse" gradientTransform="translate(-.95 4.4) scale(.01074)" spreadMethod="pad" cx="0" cy="0" r="819.2" fx="0" fy="0"><stop offset="0" stop-color="#f5aa79"/><stop offset=".988" stop-color="#f8c19f"/></radialGradient><path d="M1.05-3.8l.3-.25-.3 2.25Q1-.65 1.1 0l.25 1.7.2 1.15V3q-.05.65-.4.9L1 3.95l-.25.1-.25.1-.2.1-.45.35-.1.1-.05.05-.1.05-.25.05H-.7l-.25-.05-.15-.15-.05-.05-.2-.15h-.05l-.5-.2h-.2l-.25-.1-.2-.1-.45-.5V3.5l.05-.25.1-.1q.2-.25.5-.2l.6.15.85.15h.4l.8-.2q.5-.25.45-.8L.6 1.15.5 0 .45-.7V-1l.05-.1.2-1.5.3-1.05.05-.15m-2.4 7.9l-.2-.3-.6-.2q-.3 0-.3.15l1.05.4.05-.05m2.1-.4q0-.15-.15-.1-.3-.05-.5.25L.05 4l-.1.1H0v.05l.4-.2.25-.15.1-.05V3.7" fill="url(#b)"/><path d="M-1.4 4.15l-1.05-.4q0-.15.3-.15l.6.2.2.3-.05.05m2.15-.4l-.1.05-.25.15-.4.2V4.1h-.05l.1-.1.05-.15q.2-.3.5-.25.15-.05.15.1v.05" fill="#823909"/><radialGradient id="c" gradientUnits="userSpaceOnUse" gradientTransform="matrix(.00546 0 0 .00546 1.05 -.5)" spreadMethod="pad" cx="0" cy="0" r="819.2" fx="0" fy="0"><stop offset="0" stop-color="#f5aa79"/><stop offset=".988" stop-color="#f8c19f"/></radialGradient><path d="M1.05-3.8l.55-1" fill="none" stroke-width=".05" stroke-linecap="round" stroke-linejoin="round" stroke-miterlimit="3" stroke="url(#c)"/><radialGradient id="d" gradientUnits="userSpaceOnUse" gradientTransform="matrix(.00084 .00008 0 .00323 -.75 -1.05)" spreadMethod="pad" cx="0" cy="0" r="819.2" fx="0" fy="0"><stop offset=".314" stop-color="#fff" stop-opacity=".431"/><stop offset="1" stop-color="#fff" stop-opacity="0"/></radialGradient><path d="M-.45-2.9q.15.8.15 1.9Q-.3.1-.45.85l-.1.35-.05.1-.2.3-.3-.4v-.05l-.1-.4-.15-1.85.15-1.85q.15-.75.4-.7.2 0 .35.75" fill="url(#d)"/><radialGradient id="e" gradientUnits="userSpaceOnUse" gradientTransform="translate(-.95 2.5) scale(.00064)" spreadMethod="pad" cx="0" cy="0" r="819.2" fx="0" fy="0"><stop offset=".314" stop-color="#fff" stop-opacity=".431"/><stop offset="1" stop-color="#fff" stop-opacity="0"/></radialGradient><path d="M-.45 2.5l-.2.35L-1 3l-.35-.2-.15-.35.15-.35q.2-.15.4-.15.25 0 .35.15.15.15.15.4" fill="url(#e)"/></g></svg>