<?xml version="1.0" encoding="utf-8"?>
<svg version="1.1" id="Layer_1"
xmlns="http://www.w3.org/2000/svg"
xmlns:xlink="http://www.w3.org/1999/xlink"
xmlns:author="http://www.sothink.com"
width="7px" height="10px"
xml:space="preserve">
<g id="468" transform="matrix(1, 0, 0, 1, 3, 4.8)">
<radialGradient
id="RadialGradID_4070" gradientUnits="userSpaceOnUse" gradientTransform="matrix(0.00189209, -0.000274658, 0.00050354, 0.0032959, 1.1, -0.05)" spreadMethod ="pad" cx="0" cy="0" r="819.2" fx="210473" fy="0" >
<stop  offset="0.337255"  style="stop-color:#F9C29F;stop-opacity:1" />
<stop  offset="1"  style="stop-color:#FEDEC1;stop-opacity:0" />
</radialGradient>
<path style="fill:url(#RadialGradID_4070) " d="M3,-0.15L3.05 0.5Q3.05 1.05 2 1.45Q1.65 1.55 1.45 2.2L1.45 2.3L1.35 2.3L1.35 2.15Q1.1 1.25 1.1 0.2L1.25 -2.5L1.25 -2.55Q1.9 -0.7 2.6 -0.35L3 -0.15" />
<radialGradient
id="RadialGradID_4071" gradientUnits="userSpaceOnUse" gradientTransform="matrix(0.0107422, 0, 0, 0.0107422, -0.95, 4.4)" spreadMethod ="pad" cx="0" cy="0" r="819.2" fx="0" fy="0" >
<stop  offset="0"  style="stop-color:#F5AA79;stop-opacity:1" />
<stop  offset="0.988235"  style="stop-color:#F8C19F;stop-opacity:1" />
</radialGradient>
<path style="fill:url(#RadialGradID_4071) " d="M1.05,-3.8L1.35 -4.05L1.05 -1.8Q1 -0.65 1.1 0L1.35 1.7L1.55 2.85L1.55 3Q1.5 3.65 1.15 3.9L1 3.95L0.75 4.05L0.5 4.15L0.3 4.25L-0.15 4.6L-0.25 4.7L-0.3 4.75L-0.4 4.8L-0.65 4.85L-0.7 4.85L-0.95 4.8L-1.1 4.65L-1.15 4.6L-1.35 4.45L-1.4 4.45L-1.9 4.25L-1.95 4.25L-2.1 4.25L-2.35 4.15L-2.55 4.05L-3 3.55L-3 3.5L-2.95 3.25L-2.85 3.15Q-2.65 2.9 -2.35 2.95L-1.75 3.1L-0.9 3.25L-0.7 3.25L-0.5 3.25L0.3 3.05Q0.8 2.8 0.75 2.25L0.6 1.15L0.5 0L0.45 -0.7L0.45 -1L0.5 -1.1L0.7 -2.6L1 -3.65L1.05 -3.8M-1.35,4.1L-1.55 3.8L-2.15 3.6Q-2.45 3.6 -2.45 3.75L-1.4 4.15L-1.35 4.1M0.75,3.7Q0.75 3.55 0.6 3.6Q0.3 3.55 0.1 3.85L0.05 4L-0.05 4.1L0 4.1L0 4.15L0.4 3.95L0.65 3.8L0.75 3.75L0.75 3.7" />
<path style="fill:#823909;fill-opacity:1" d="M-1.4,4.15L-2.45 3.75Q-2.45 3.6 -2.15 3.6L-1.55 3.8L-1.35 4.1L-1.4 4.15M0.75,3.75L0.65 3.8L0.4 3.95L0 4.15L0 4.1L-0.05 4.1L0.05 4L0.1 3.85Q0.3 3.55 0.6 3.6Q0.75 3.55 0.75 3.7L0.75 3.75" />
<radialGradient
id="RadialGradID_4072" gradientUnits="userSpaceOnUse" gradientTransform="matrix(0.00546265, 0, 0, 0.00546265, 1.05, -0.5)" spreadMethod ="pad" cx="0" cy="0" r="819.2" fx="0" fy="0" >
<stop  offset="0"  style="stop-color:#F5AA79;stop-opacity:1" />
<stop  offset="0.988235"  style="stop-color:#F8C19F;stop-opacity:1" />
</radialGradient>
<path style="fill:none;stroke-width:0.05;stroke-linecap:round;stroke-linejoin:round;stroke-miterlimit:3;stroke:url(#RadialGradID_4072) " d="M1.05,-3.8L1.6 -4.8" />
<radialGradient
id="RadialGradID_4073" gradientUnits="userSpaceOnUse" gradientTransform="matrix(0.000839233, 7.62939e-005, 0, 0.00323486, -0.75, -1.05)" spreadMethod ="pad" cx="0" cy="0" r="819.2" fx="0" fy="0" >
<stop  offset="0.313725"  style="stop-color:#FFFFFF;stop-opacity:0.431373" />
<stop  offset="1"  style="stop-color:#FFFFFF;stop-opacity:0" />
</radialGradient>
<path style="fill:url(#RadialGradID_4073) " d="M-0.45,-2.9Q-0.3 -2.1 -0.3 -1Q-0.3 0.1 -0.45 0.85L-0.55 1.2L-0.6 1.3L-0.8 1.6L-1.1 1.2L-1.1 1.15L-1.2 0.75L-1.35 -1.1L-1.2 -2.95Q-1.05 -3.7 -0.8 -3.65Q-0.6 -3.65 -0.45 -2.9" />
<radialGradient
id="RadialGradID_4074" gradientUnits="userSpaceOnUse" gradientTransform="matrix(0.000640869, 3.05176e-005, -3.05176e-005, 0.000640869, -0.95, 2.5)" spreadMethod ="pad" cx="0" cy="0" r="819.2" fx="0" fy="0" >
<stop  offset="0.313725"  style="stop-color:#FFFFFF;stop-opacity:0.431373" />
<stop  offset="1"  style="stop-color:#FFFFFF;stop-opacity:0" />
</radialGradient>
<path style="fill:url(#RadialGradID_4074) " d="M-0.45,2.5L-0.65 2.85L-1 3L-1.35 2.8L-1.5 2.45L-1.35 2.1Q-1.15 1.95 -0.95 1.95Q-0.7 1.95 -0.6 2.1Q-0.45 2.25 -0.45 2.5" />
</g>
</svg>
