<svg xmlns="http://www.w3.org/2000/svg" width="5" height="8"><g transform="translate(2.5 3.55)"><path d="M-1.95.65h.05-.05" fill="#fedec1"/><radialGradient id="a" gradientUnits="userSpaceOnUse" gradientTransform="matrix(.00652 0 0 .00525 .15 4.55)" spreadMethod="pad" cx="0" cy="0" r="819.2" fx="0" fy="0"><stop offset=".008" stop-color="#f6b181"/><stop offset="1" stop-color="#fedec1"/></radialGradient><path d="M1.9.05V.2L1.85.05h.05m.3 1.25v.1l-.05.2-.4.85-1.2.6h-1.2q-.95-.2-1.3-.6-.4-.4-.25-1.1l.1-.15.2-.55h-.05l.9-3.15Q-.8-5.6 1.9.4l.05.15.1.15v.05L2.1 1l.05.1v-.05l.05.1v.15m0-.15L2.15 1V.75h.05v.4m-.05.15l-.05.1h.05v-.1M-.35.25H-.4h.05" fill="url(#a)"/><radialGradient id="b" gradientUnits="userSpaceOnUse" gradientTransform="matrix(.00484 0 0 .0039 -.3 4.5)" spreadMethod="pad" cx="0" cy="0" r="819.2" fx="0" fy="0"><stop offset="0" stop-color="#f39b61"/><stop offset="1" stop-color="#f8be98"/></radialGradient><path d="M2.15 1.35v.05H2.1l.05-.05" fill="url(#b)"/><radialGradient id="c" gradientUnits="userSpaceOnUse" gradientTransform="matrix(.00484 0 0 .0039 -.3 4.5)" spreadMethod="pad" cx="0" cy="0" r="819.2" fx="0" fy="0"><stop offset="0" stop-color="#f39b61"/><stop offset="1" stop-color="#f8be98" stop-opacity=".463"/></radialGradient><path d="M2.2.75h.05L2.15.5l.2.4.15.8q0 .7-.65 1.3-.7.65-2.55.55-2-.15-1.75-2.1l.25-.15v.05q-.15.7.25 1.1.35.4 1.3.6h1.2l1.2-.6.4-.85.05-.2V.75" fill="url(#c)"/><radialGradient id="d" gradientUnits="userSpaceOnUse" gradientTransform="matrix(.00305 0 0 .00246 -.5 .6)" spreadMethod="pad" cx="0" cy="0" r="819.2" fx="0" fy="0"><stop offset="0" stop-color="#f39b61" stop-opacity=".4"/><stop offset=".988" stop-color="#f8be98" stop-opacity=".212"/></radialGradient><path d="M.05.95L-.55.9l-1.15.15h.05Q-.9.45-.3.4L.9.65l.7.3-.6.1L.55 1 .05.95" fill="url(#d)"/><radialGradient id="e" gradientUnits="userSpaceOnUse" gradientTransform="matrix(0 -.00209 .00359 0 -.35 2.1)" spreadMethod="pad" cx="0" cy="0" r="819.2" fx="0" fy="0"><stop offset="0" stop-color="#fff" stop-opacity=".631"/><stop offset=".965" stop-color="#ffd" stop-opacity="0"/></radialGradient><path d="M.55 1q1.25.35 1.25 1.2-.05.85-1.95.8-1.95-.1-2.05-.65l-.15-.6q.2-.65 2.4-.8l.5.05" fill="url(#e)"/></g></svg>