<?xml version="1.0" encoding="utf-8"?>
<svg version="1.1" id="Layer_1"
xmlns="http://www.w3.org/2000/svg"
xmlns:xlink="http://www.w3.org/1999/xlink"
xmlns:author="http://www.sothink.com"
width="7px" height="9px"
xml:space="preserve">
<g id="473" transform="matrix(1, 0, 0, 1, 3.35, 4.1)">
<radialGradient
id="RadialGradID_4092" gradientUnits="userSpaceOnUse" gradientTransform="matrix(0.00798035, 0, -0.000198364, 0.00878906, -3.5, -3.85)" spreadMethod ="pad" cx="0" cy="0" r="819.2" fx="0" fy="0" >
<stop  offset="0"  style="stop-color:#F39B61;stop-opacity:1" />
<stop  offset="0.741176"  style="stop-color:#F7BA99;stop-opacity:0.431373" />
<stop  offset="1"  style="stop-color:#F7BA99;stop-opacity:0.180392" />
</radialGradient>
<path style="fill:url(#RadialGradID_4092) " d="M2,1L2 1.05L2 1.1L2.05 1.25L2.1 1.3L2.1 1.35L2.05 1.3L1.95 1.25L1.95 1.1L1.85 1.25L1.8 1.1Q1.5 1.25 1.25 1.75L1.3 1.95L1.3 2L1.25 1.8L1.1 2.15L1.05 1.05L0.8 0Q0.7 -0.5 0.75 -1.8Q0.7 -3.1 1.2 -3.45L2.2 -4.1L1.7 -2.5Q1.45 -1.7 1.55 -1.3L1.9 0.35L1.95 0.75L1.85 0.65L1.95 0.9L2 1" />
<radialGradient
id="RadialGradID_4093" gradientUnits="userSpaceOnUse" gradientTransform="matrix(0.00683594, 0, -0.000106812, 0.0045929, -0.2, 4.3)" spreadMethod ="pad" cx="0" cy="0" r="819.2" fx="0" fy="0" >
<stop  offset="0"  style="stop-color:#BE5E1F;stop-opacity:0.831373" />
<stop  offset="0.643137"  style="stop-color:#F7BC99;stop-opacity:1" />
<stop  offset="1"  style="stop-color:#F7BA99;stop-opacity:0.482353" />
</radialGradient>
<path style="fill:url(#RadialGradID_4093) " d="M1.8,3.15L2.5 3.05Q3.05 2.85 3.1 2.25Q3.2 1.6 2 1L1.95 0.9L2.3 1.05L2.85 1.35Q3.2 1.6 3.35 2.15Q3.5 2.7 3.1 3.1L2.4 3.5L1.8 3.55L1.05 3.85L0.25 4.15L-0.25 4.15L-1.2 3.7L-2.4 3.45Q-3.5 3.2 -3.3 2.35Q-3.15 1.45 -1.9 1L-2.05 1.45L-2 1.25L-2.05 1.25Q-2.95 1.6 -2.95 2.25Q-2.9 2.9 -2.2 3.15L-1.45 3.35L-1.05 3.5L-0.6 3.85L0.15 4.05Q0.6 4 1.1 3.65L1.8 3.15" />
<radialGradient
id="RadialGradID_4094" gradientUnits="userSpaceOnUse" gradientTransform="matrix(0.00709534, 0, -0.000183105, 0.0078125, -0.35, 7.6)" spreadMethod ="pad" cx="0" cy="0" r="819.2" fx="0" fy="0" >
<stop  offset="0.501961"  style="stop-color:#F39B61;stop-opacity:1" />
<stop  offset="0.694118"  style="stop-color:#F7B999;stop-opacity:0.870588" />
<stop  offset="1"  style="stop-color:#F7BA99;stop-opacity:0.231373" />
</radialGradient>
<path style="fill:url(#RadialGradID_4094) " d="M1.1,3.65Q0.6 4 0.15 4.05L-0.6 3.85L-1.05 3.5L-1.45 3.35L-1.5 2.65L-1.75 1.75L-1.95 1.45L-1.85 1.45L-1.55 1.75L-1.45 1.9L-1.35 2.1L-1.15 2.5L-1.05 2.7L-1.05 2.75Q-0.65 3.35 -0.05 3.35Q0.75 3.35 1.2 2.3L1.25 2.15L1.3 2L1.3 1.95L1.4 1.8L1.45 2.15L1.4 1.75L1.8 1.1L1.85 1.25L1.95 1.1L1.95 1.25L2.05 1.3L2.1 1.35L2 1.3L1.95 1.3L2 1.35Q1.55 1.8 1.55 2.75Q1.5 3 1.8 3.15L1.1 3.65" />
<radialGradient
id="RadialGradID_4095" gradientUnits="userSpaceOnUse" gradientTransform="matrix(0.00418091, -0.00109863, 0.00137329, 0.00706482, 0.55, -2.8)" spreadMethod ="pad" cx="0" cy="0" r="819.2" fx="0" fy="0" >
<stop  offset="0"  style="stop-color:#F39B61;stop-opacity:1" />
<stop  offset="0.741176"  style="stop-color:#F7BA99;stop-opacity:0.572549" />
<stop  offset="1"  style="stop-color:#F7B999;stop-opacity:0.101961" />
</radialGradient>
<path style="fill:url(#RadialGradID_4095) " d="M-1.55,1.75L-1.85 1.45L-1.95 1.45L-2.05 1.45L-1.9 1Q-1.65 0.05 -1.75 -2.05L-2 -2.75Q-2.3 -3.5 -2.95 -3.65L-1.9 -3.75Q-1.25 -3.3 -1.1 -2.55Q-0.95 -1.85 -1.15 0.2L-1.45 1.65L-1.45 1.6L-1.45 1.9L-1.55 1.75" />
<radialGradient
id="RadialGradID_4096" gradientUnits="userSpaceOnUse" gradientTransform="matrix(0.000640869, 6.10352e-005, -9.15527e-005, 0.00268555, 0.05, -0.6)" spreadMethod ="pad" cx="0" cy="0" r="819.2" fx="0" fy="0" >
<stop  offset="0.313725"  style="stop-color:#FFFFFF;stop-opacity:0.431373" />
<stop  offset="1"  style="stop-color:#FFFFFF;stop-opacity:0" />
</radialGradient>
<path style="fill:url(#RadialGradID_4096) " d="M0.4,-0.6L0.2 0.95L0.15 1.25L0.15 1.3L-0.05 1.55L-0.25 1.25L-0.25 1.2L-0.25 0.6L-0.25 -0.7L-0.2 -2.2L0.1 -2.8L0.35 -2.15L0.4 -0.6" />
<radialGradient
id="RadialGradID_4097" gradientUnits="userSpaceOnUse" gradientTransform="matrix(0.000488281, 3.05176e-005, -4.57764e-005, 0.000534058, -0.1, 2.3)" spreadMethod ="pad" cx="0" cy="0" r="819.2" fx="0" fy="0" >
<stop  offset="0.313725"  style="stop-color:#FFFFFF;stop-opacity:0.431373" />
<stop  offset="1"  style="stop-color:#FFFFFF;stop-opacity:0" />
</radialGradient>
<path style="fill:url(#RadialGradID_4097) " d="M0.2,2.3L0.05 2.6L-0.25 2.7L-0.5 2.55L-0.6 2.25L-0.45 1.95L-0.15 1.85Q0 1.85 0.1 2L0.2 2.3" />
</g>
</svg>
