<svg xmlns="http://www.w3.org/2000/svg" width="7" height="9"><g transform="translate(3.35 4.1)"><radialGradient id="a" gradientUnits="userSpaceOnUse" gradientTransform="matrix(.00798 0 -.0002 .00879 -3.5 -3.85)" spreadMethod="pad" cx="0" cy="0" r="819.2" fx="0" fy="0"><stop offset="0" stop-color="#f39b61"/><stop offset=".741" stop-color="#f7ba99" stop-opacity=".431"/><stop offset="1" stop-color="#f7ba99" stop-opacity=".18"/></radialGradient><path d="M2 1v.1l.05.15.05.05v.05l-.05-.05-.1-.05V1.1l-.1.15-.05-.15q-.3.15-.55.65l.05.2V2l-.05-.2-.15.35-.05-1.1L.8 0Q.7-.5.75-1.8.7-3.1 1.2-3.45l1-.65-.5 1.6q-.25.8-.15 1.2L1.9.35l.05.4-.1-.1.1.25L2 1" fill="url(#a)"/><radialGradient id="b" gradientUnits="userSpaceOnUse" gradientTransform="matrix(.00684 0 -.0001 .0046 -.2 4.3)" spreadMethod="pad" cx="0" cy="0" r="819.2" fx="0" fy="0"><stop offset="0" stop-color="#be5e1f" stop-opacity=".831"/><stop offset=".643" stop-color="#f7bc99"/><stop offset="1" stop-color="#f7ba99" stop-opacity=".482"/></radialGradient><path d="M1.8 3.15l.7-.1q.55-.2.6-.8Q3.2 1.6 2 1L1.95.9l.35.15.55.3q.35.25.5.8.15.55-.25.95l-.7.4-.6.05-.75.3-.8.3h-.5l-.95-.45-1.2-.25q-1.1-.25-.9-1.1.15-.9 1.4-1.35l-.15.45.05-.2h-.05q-.9.35-.9 1 .05.65.75.9l.75.2.4.15.45.35.75.2q.45-.05.95-.4l.7-.5" fill="url(#b)"/><radialGradient id="c" gradientUnits="userSpaceOnUse" gradientTransform="matrix(.0071 0 -.00018 .00781 -.35 7.6)" spreadMethod="pad" cx="0" cy="0" r="819.2" fx="0" fy="0"><stop offset=".502" stop-color="#f39b61"/><stop offset=".694" stop-color="#f7b999" stop-opacity=".871"/><stop offset="1" stop-color="#f7ba99" stop-opacity=".231"/></radialGradient><path d="M1.1 3.65q-.5.35-.95.4l-.75-.2-.45-.35-.4-.15-.05-.7-.25-.9-.2-.3h.1l.3.3.1.15.1.2.2.4.1.2v.05q.4.6 1 .6.8 0 1.25-1.05l.05-.15L1.3 2v-.05l.1-.15.05.35-.05-.4.4-.65.05.15.1-.15v.15l.1.05.05.05L2 1.3h-.05l.05.05q-.45.45-.45 1.4-.05.25.25.4l-.7.5" fill="url(#c)"/><radialGradient id="d" gradientUnits="userSpaceOnUse" gradientTransform="matrix(.00418 -.0011 .00137 .00706 .55 -2.8)" spreadMethod="pad" cx="0" cy="0" r="819.2" fx="0" fy="0"><stop offset="0" stop-color="#f39b61"/><stop offset=".741" stop-color="#f7ba99" stop-opacity=".573"/><stop offset="1" stop-color="#f7b999" stop-opacity=".102"/></radialGradient><path d="M-1.55 1.75l-.3-.3h-.2L-1.9 1q.25-.95.15-3.05l-.25-.7q-.3-.75-.95-.9l1.05-.1q.65.45.8 1.2.15.7-.05 2.75l-.3 1.45V1.6v.3l-.1-.15" fill="url(#d)"/><radialGradient id="e" gradientUnits="userSpaceOnUse" gradientTransform="matrix(.00064 .00006 -.0001 .00269 .05 -.6)" spreadMethod="pad" cx="0" cy="0" r="819.2" fx="0" fy="0"><stop offset=".314" stop-color="#fff" stop-opacity=".431"/><stop offset="1" stop-color="#fff" stop-opacity="0"/></radialGradient><path d="M.4-.6L.2.95l-.05.3v.05l-.2.25-.2-.3V-.7l.05-1.5.3-.6.25.65L.4-.6" fill="url(#e)"/><radialGradient id="f" gradientUnits="userSpaceOnUse" gradientTransform="matrix(.00049 .00003 -.00005 .00053 -.1 2.3)" spreadMethod="pad" cx="0" cy="0" r="819.2" fx="0" fy="0"><stop offset=".314" stop-color="#fff" stop-opacity=".431"/><stop offset="1" stop-color="#fff" stop-opacity="0"/></radialGradient><path d="M.2 2.3l-.15.3-.3.1-.25-.15-.1-.3.15-.3.3-.1Q0 1.85.1 2l.1.3" fill="url(#f)"/></g></svg>