<?xml version="1.0" encoding="utf-8"?>
<svg version="1.1" id="Layer_1"
xmlns="http://www.w3.org/2000/svg"
xmlns:xlink="http://www.w3.org/1999/xlink"
xmlns:author="http://www.sothink.com"
width="62px" height="97px"
xml:space="preserve">
<g id="478" transform="matrix(1, 0, 0, 1, -240.3, -141.6)">
<path style="fill:#823909;fill-opacity:1" d="M258.3,231.9L257.75 231.55Q256.75 230.9 255.5 230.5L254.4 230.1L251.8 229.5Q248.6 230.1 244.4 227.35L244.5 226.8Q246.05 224.65 250.4 226.6Q251.3 226.8 252.35 227.35Q254.95 228.65 258 231.6L258.3 231.9M259.15,231.95L258.6 231.6L261.2 232.2Q263.7 232.75 266.55 231.4L269.5 229.2L269.75 229.25Q272 227.4 273.9 226.6L276.05 226.05Q280.5 224.3 281.9 226.4L282.15 226.95Q277.7 229.45 274.55 228.65L271.85 229.15L270.65 229.3L267.35 232.3Q266.05 233.1 265.2 233.2L264.9 233.15L262.55 233.15Q260.1 232.45 259.15 231.95" />
<radialGradient
id="RadialGradID_4122" gradientUnits="userSpaceOnUse" gradientTransform="matrix(0.00854492, 0.000732422, -0.000305176, 0.0308228, 263.05, 180.2)" spreadMethod ="pad" cx="0" cy="0" r="819.2" fx="0" fy="0" >
<stop  offset="0.313725"  style="stop-color:#FFFFFF;stop-opacity:0.431373" />
<stop  offset="1"  style="stop-color:#FFFFFF;stop-opacity:0" />
</radialGradient>
<path style="fill:url(#RadialGradID_4122) " d="M268.3,180.7Q268.15 191.05 266.5 198.2L265.45 201.95L265.1 202.45Q264 205.35 262.65 205.25Q261.2 205.1 260.15 201.95L259.9 201.35Q259.35 199.85 258.9 197.65Q257.4 190.25 257.5 179.85Q257.65 169.35 259.35 162.05Q260.9 155 263.1 155.3Q265.4 155.45 266.9 162.9Q268.35 170.35 268.3 180.7" />
<radialGradient
id="RadialGradID_4123" gradientUnits="userSpaceOnUse" gradientTransform="matrix(0.0065918, 0.000366211, -0.000396729, 0.00619507, 261.35, 213.7)" spreadMethod ="pad" cx="0" cy="0" r="819.2" fx="0" fy="0" >
<stop  offset="0.313725"  style="stop-color:#FFFFFF;stop-opacity:0.431373" />
<stop  offset="1"  style="stop-color:#FFFFFF;stop-opacity:0" />
</radialGradient>
<path style="fill:url(#RadialGradID_4123) " d="M266.35,213.95Q266.15 216 264.45 217.35Q262.9 218.75 260.75 218.6Q258.65 218.45 257.15 216.8Q255.7 215.4 255.85 213.4Q255.85 211.35 257.4 209.95Q259.15 208.6 261.35 208.7Q263.55 208.75 265 210.25Q266.5 211.85 266.35 213.95" />
<radialGradient
id="RadialGradID_4124" gradientUnits="userSpaceOnUse" gradientTransform="matrix(0.0223694, 0.000686646, -0.000732422, 0.0209961, 263.75, 242.7)" spreadMethod ="pad" cx="0" cy="0" r="819.2" fx="0" fy="0" >
<stop  offset="0"  style="stop-color:#F39B61;stop-opacity:1" />
<stop  offset="1"  style="stop-color:#F8BE98;stop-opacity:1" />
</radialGradient>
<path style="fill:url(#RadialGradID_4124) " d="M286.8,207.55L278.1 206.65L276.6 199.85L277.35 208.2Q276.85 205.75 276.5 203.15Q274.95 191.25 275.9 176.25Q276.85 158.05 277.05 156.8Q277.4 155.4 290.35 141.6Q283.05 165.8 284.3 184.35Q284.9 193.7 285.8 201.35L285.95 202.5L286.8 207.55" />
<radialGradient
id="RadialGradID_4125" gradientUnits="userSpaceOnUse" gradientTransform="matrix(0.0223694, 0.000686646, -0.000732422, 0.0209961, 264.1, 239.4)" spreadMethod ="pad" cx="0" cy="0" r="819.2" fx="0" fy="0" >
<stop  offset="0"  style="stop-color:#F39B61;stop-opacity:1" />
<stop  offset="1"  style="stop-color:#F8BE98;stop-opacity:1" />
</radialGradient>
<path style="fill:url(#RadialGradID_4125) " d="M278.1,206.65L286.8 207.55L285.95 202.5L286.2 203.1L288.4 211.6L290.1 219.5L290.25 220.65Q290.6 224.3 288.05 226.45Q285.55 228.5 280.6 230.1L274.7 232.25L268.65 236.3Q263.6 239.4 258.85 237.2Q251.25 232.5 244.1 230.1L242.45 229.1L242.15 228.75Q238.1 224.8 242.95 220L243.3 219.5L243.9 219.55Q247.7 218.15 253.05 221.4Q258.45 224.5 262.45 224.3Q266.35 224.1 273.15 220.75Q279.85 217.35 279.2 212.25L278.1 206.65M258,231.6Q254.95 228.65 252.35 227.35Q251.3 226.8 250.4 226.6Q246.05 224.65 244.5 226.8L244.4 227.35Q248.6 230.1 251.8 229.5L254.4 230.1L255.5 230.5Q256.75 230.9 257.75 231.55L258.3 231.9L258 231.6M262.55,233.15L264.9 233.15L265.2 233.2Q266.05 233.1 267.35 232.3L270.65 229.3L271.85 229.15L274.55 228.65Q277.7 229.45 282.15 226.95L281.9 226.4Q280.5 224.3 276.05 226.05L273.9 226.6Q272 227.4 269.75 229.25L269.5 229.2L266.55 231.4Q263.7 232.75 261.2 232.2L258.6 231.6L259.15 231.95Q260.1 232.45 262.55 233.15" />
<radialGradient
id="RadialGradID_4126" gradientUnits="userSpaceOnUse" gradientTransform="matrix(0.0175323, -0.00236511, 0.00445557, 0.0289612, 283.3, 183)" spreadMethod ="pad" cx="0" cy="0" r="819.2" fx="0" fy="0" >
<stop  offset="0.337255"  style="stop-color:#F9C29F;stop-opacity:1" />
<stop  offset="1"  style="stop-color:#FEDEC1;stop-opacity:0" />
</radialGradient>
<path style="fill:url(#RadialGradID_4126) " d="M301.5,188.15Q301.3 192.9 291.4 196.35Q288.2 197.4 285.9 203.05L285.8 203.15L285.8 203.25L285.35 202.55Q283.2 194.25 283.15 185Q283.05 175.7 284.8 161.55L285.1 164.7L284.9 161.35Q290.7 177.4 297.35 180.7Q300.15 182.05 300.7 182.7Q301.75 184.15 301.5 188.15" />
</g>
</svg>
