<svg xmlns="http://www.w3.org/2000/svg" width="62" height="97"><g transform="translate(-240.3 -141.6)"><path d="M258.3 231.9l-.55-.35q-1-.65-2.25-1.05l-1.1-.4-2.6-.6q-3.2.6-7.4-2.15l.1-.55q1.55-2.15 5.9-.2.9.2 1.95.75 2.6 1.3 5.65 4.25l.3.3m.85.05l-.55-.35 2.6.6q2.5.55 5.35-.8l2.95-2.2.25.05q2.25-1.85 4.15-2.65l2.15-.55q4.45-1.75 5.85.35l.25.55q-4.45 2.5-7.6 1.7l-2.7.5-1.2.15-3.3 3q-1.3.8-2.15.9l-.3-.05h-2.35q-2.45-.7-3.4-1.2" fill="#823909"/><radialGradient id="a" gradientUnits="userSpaceOnUse" gradientTransform="matrix(.00854 .00073 -.0003 .03082 263.05 180.2)" spreadMethod="pad" cx="0" cy="0" r="819.2" fx="0" fy="0"><stop offset=".314" stop-color="#fff" stop-opacity=".431"/><stop offset="1" stop-color="#fff" stop-opacity="0"/></radialGradient><path d="M268.3 180.7q-.15 10.35-1.8 17.5l-1.05 3.75-.35.5q-1.1 2.9-2.45 2.8-1.45-.15-2.5-3.3l-.25-.6q-.55-1.5-1-3.7-1.5-7.4-1.4-17.8.15-10.5 1.85-17.8 1.55-7.05 3.75-6.75 2.3.15 3.8 7.6 1.45 7.45 1.4 17.8" fill="url(#a)"/><radialGradient id="b" gradientUnits="userSpaceOnUse" gradientTransform="matrix(.0066 .00037 -.0004 .0062 261.35 213.7)" spreadMethod="pad" cx="0" cy="0" r="819.2" fx="0" fy="0"><stop offset=".314" stop-color="#fff" stop-opacity=".431"/><stop offset="1" stop-color="#fff" stop-opacity="0"/></radialGradient><path d="M266.35 213.95q-.2 2.05-1.9 3.4-1.55 1.4-3.7 1.25-2.1-.15-3.6-1.8-1.45-1.4-1.3-3.4 0-2.05 1.55-3.45 1.75-1.35 3.95-1.25 2.2.05 3.65 1.55 1.5 1.6 1.35 3.7" fill="url(#b)"/><radialGradient id="c" gradientUnits="userSpaceOnUse" gradientTransform="matrix(.02237 .00069 -.00073 .021 263.75 242.7)" spreadMethod="pad" cx="0" cy="0" r="819.2" fx="0" fy="0"><stop offset="0" stop-color="#f39b61"/><stop offset="1" stop-color="#f8be98"/></radialGradient><path d="M286.8 207.55l-8.7-.9-1.5-6.8.75 8.35q-.5-2.45-.85-5.05-1.55-11.9-.6-26.9.95-18.2 1.15-19.45.35-1.4 13.3-15.2-7.3 24.2-6.05 42.75.6 9.35 1.5 17l.15 1.15.85 5.05" fill="url(#c)"/><radialGradient id="d" gradientUnits="userSpaceOnUse" gradientTransform="matrix(.02237 .00069 -.00073 .021 264.1 239.4)" spreadMethod="pad" cx="0" cy="0" r="819.2" fx="0" fy="0"><stop offset="0" stop-color="#f39b61"/><stop offset="1" stop-color="#f8be98"/></radialGradient><path d="M278.1 206.65l8.7.9-.85-5.05.25.6 2.2 8.5 1.7 7.9.15 1.15q.35 3.65-2.2 5.8-2.5 2.05-7.45 3.65l-5.9 2.15-6.05 4.05q-5.05 3.1-9.8.9-7.6-4.7-14.75-7.1l-1.65-1-.3-.35q-4.05-3.95.8-8.75l.35-.5.6.05q3.8-1.4 9.15 1.85 5.4 3.1 9.4 2.9 3.9-.2 10.7-3.55 6.7-3.4 6.05-8.5l-1.1-5.6M258 231.6q-3.05-2.95-5.65-4.25-1.05-.55-1.95-.75-4.35-1.95-5.9.2l-.1.55q4.2 2.75 7.4 2.15l2.6.6 1.1.4q1.25.4 2.25 1.05l.55.35-.3-.3m4.55 1.55h2.35l.3.05q.85-.1 2.15-.9l3.3-3 1.2-.15 2.7-.5q3.15.8 7.6-1.7l-.25-.55q-1.4-2.1-5.85-.35l-2.15.55q-1.9.8-4.15 2.65l-.25-.05-2.95 2.2q-2.85 1.35-5.35.8l-2.6-.6.55.35q.95.5 3.4 1.2" fill="url(#d)"/><radialGradient id="e" gradientUnits="userSpaceOnUse" gradientTransform="matrix(.01753 -.00237 .00446 .02896 283.3 183)" spreadMethod="pad" cx="0" cy="0" r="819.2" fx="0" fy="0"><stop offset=".337" stop-color="#f9c29f"/><stop offset="1" stop-color="#fedec1" stop-opacity="0"/></radialGradient><path d="M301.5 188.15q-.2 4.75-10.1 8.2-3.2 1.05-5.5 6.7l-.1.1v.1l-.45-.7q-2.15-8.3-2.2-17.55-.1-9.3 1.65-23.45l.3 3.15-.2-3.35q5.8 16.05 12.45 19.35 2.8 1.35 3.35 2 1.05 1.45.8 5.45" fill="url(#e)"/></g></svg>