<svg xmlns="http://www.w3.org/2000/svg" width="5" height="9"><g transform="translate(-67.95 -29.7)"><path d="M72.05 37.05l-.3.1q-.05 0-.15.1l.1-.95q.05-.6.45-.6l.4.25.05.2.05.25-.2.5-.25.35-.15-.2" fill="#fcd1af"/><path d="M72.2 37.25l-.5.35-.45.15.35-.5q.1-.1.15-.1l.3-.1.15.2m-2.8.4l-.25-.1-.45-.25-.1-.3.05-.1h.15l.35.4.25.35" fill="#aa6e46"/><path d="M71.3 31.95l-.05 1.4v2.3l-.25 1.8q-.3.4-.7.45-.35-.05-.55-.5l-.3-.4-.1-.05v-.4l.1-2.05-.05-2.4.05-1.6q.45-.7 1.25-.65.45 0 .7.45l.15.55-.25 1.1" fill="#fedec1"/><radialGradient id="a" gradientUnits="userSpaceOnUse" gradientTransform="matrix(.00995 0 0 .00995 71.45 33.35)" spreadMethod="pad" cx="0" cy="0" r="819.2" fx="0" fy="0"><stop offset="0" stop-color="#f8b991"/><stop offset=".992" stop-color="#f7c4a2"/></radialGradient><path d="M71.25 37.75l-.4.4q-.35.35-.65.3-.35-.15-.55-.45l-.25-.35-.25-.35q0-.2.5 0l-.2-.15V37l.3.4q.2.45.55.5.4-.05.7-.45l.25-1.8v-2.3l.05-1.4.25-1.1q.35-.8.95-1.15h.05q-.8.35-.85 2.5l.1.5.05.6.05.6q0 1.05.2 1.35l.3.55.15.15-.4-.25q-.4 0-.45.6l-.1.95-.35.5" fill="url(#a)"/><radialGradient id="b" gradientUnits="userSpaceOnUse" gradientTransform="matrix(.00578 0 0 .00578 69.2 32.25)" spreadMethod="pad" cx="0" cy="0" r="819.2" fx="0" fy="0"><stop offset="0" stop-color="#fdd7b8"/><stop offset=".973" stop-color="#fdd9ba"/></radialGradient><path d="M68.55 35.6q.25-.25.3-.9l.15-1.5v-1.3q0-.7.4-1.3l.05-.1-.05 1.6.05 2.4-.1 2.05v.25l-.3-.4-.5-.8" fill="url(#b)"/><radialGradient id="c" gradientUnits="userSpaceOnUse" gradientTransform="translate(68.25 36.9) scale(.00122)" spreadMethod="pad" cx="0" cy="0" r="819.2" fx="0" fy="0"><stop offset="0" stop-color="#f8b991"/><stop offset=".973" stop-color="#f8c9a9"/></radialGradient><path d="M69.45 37.15l.2.15q-.5-.2-.5 0l-.35-.4h-.15l-.05.1.1.3q-.8-.2-.75-.8-.05-.65.45-.8l.15-.1.5.8.3.4v.15l.1.05v.15" fill="url(#c)"/><radialGradient id="d" gradientUnits="userSpaceOnUse" gradientTransform="matrix(.00061 0 0 .0026 70.45 32.35)" spreadMethod="pad" cx="0" cy="0" r="819.2" fx="0" fy="0"><stop offset="0" stop-color="#fff" stop-opacity=".714"/><stop offset=".973" stop-color="#fff" stop-opacity="0"/></radialGradient><path d="M70.8 30.55l.1 1.15-.1 1.95q-.15 1.3-.4 1.35-.35-.2-.35-2.75V30.9l.05-.15.1-.3.3-.3.3.4" fill="url(#d)"/><radialGradient id="e" gradientUnits="userSpaceOnUse" gradientTransform="translate(70.45 37.4) scale(.00154)" spreadMethod="pad" cx="0" cy="0" r="819.2" fx="0" fy="0"><stop offset="0" stop-color="#fff" stop-opacity=".663"/><stop offset=".973" stop-color="#fff" stop-opacity="0"/></radialGradient><path d="M69.65 35.6q.2.2.5.2l.55-.05q.35-.05.35.75l-.25.85-.45.3-.6-.35-.4-.75q0-.5.3-.95" fill="url(#e)"/></g></svg>