<svg xmlns="http://www.w3.org/2000/svg" width="8" height="10"><g transform="translate(-65.9 -29.2)"><path d="M68.25 38.35l-.1-.25v-.05l.3-.05h.05l.4.2.15.1.15.1h.15l.6.15L71 38.4l.6-.2q.15-.15.25-.2l.8-.15-.15.2-.35.15-.85.2-.45.2-.45.15-.6-.1-.15-.05-.85-.2-.5-.05h-.05" fill="#b57248"/><radialGradient id="a" gradientUnits="userSpaceOnUse" gradientTransform="matrix(.0026 0 0 .00243 70.6 38.4)" spreadMethod="pad" cx="0" cy="0" r="819.2" fx="0" fy="0"><stop offset="0" stop-color="#f39b61"/><stop offset="1" stop-color="#f8be98"/></radialGradient><path d="M72.65 37.85l-.8.15q-.1.05-.25.2l-.6.2-1.05.15-.6-.15h-.15l-.15-.1-.15-.1-.4-.2h-.05l-.3.05v.05l.1.25h-.4l-.25-.25.05-.05-.05-.05.25-.3.6-.1q.25 0 .75.4v-.1l.4.2.8.05.55-.45.15-.3v-.6l-.1-.7-.05-.1-.05-.4q-.15-1.9 0-3.75.85-1.45 2.2-2.6-.5.75-.95 2.2-.6 1.4-.65 2.45l.2.9.05.2.2.6v.05l.05.15.25.15.2.15.55.3.1.05.15.65.05.05v.4l-.1.3-.05.15-.15.05v.05l-.5-.05.15-.2" fill="url(#a)"/><radialGradient id="b" gradientUnits="userSpaceOnUse" gradientTransform="matrix(.0007 -.00002 .0001 .0025 70.1 33.8)" spreadMethod="pad" cx="0" cy="0" r="819.2" fx="0" fy="0"><stop offset=".314" stop-color="#fff" stop-opacity=".431"/><stop offset="1" stop-color="#fff" stop-opacity="0"/></radialGradient><path d="M70.4 32.25v.15l.15 1.45-.05 1.2v.2l-.05.25-.05.05-.1.35-.3-.35-.05-.05-.05-.3-.2-1.4.1-1.5.2-.55q.2 0 .4.5" fill="url(#b)"/><radialGradient id="c" gradientUnits="userSpaceOnUse" gradientTransform="matrix(.00089 .00006 -.00006 .00076 70.35 37.05)" spreadMethod="pad" cx="0" cy="0" r="819.2" fx="0" fy="0"><stop offset=".314" stop-color="#fff" stop-opacity=".431"/><stop offset="1" stop-color="#fff" stop-opacity="0"/></radialGradient><path d="M70.35 36.5l.5.2.1.45-.2.45-.55.2-.35-.2-.2-.05-.05-.05-.1-.35.1-.4.2-.05q.15-.2.55-.2" fill="url(#c)"/><radialGradient id="d" gradientUnits="userSpaceOnUse" gradientTransform="matrix(.00572 0 0 .00684 70.1 31.55)" spreadMethod="pad" cx="0" cy="0" r="819.2" fx="41" fy="0"><stop offset=".251" stop-color="#e69370" stop-opacity=".792"/><stop offset=".988" stop-color="#ffefea" stop-opacity="0"/></radialGradient><path d="M66.15 29.85h.05l.8-.2.75-.45.4.3.05.05.55.9.45 1.3v1.4h-.05l.05.5v.5l-.15.9v.35l-.2.05q-.45-2.1-1.15-3.25-.45-.85-1.8-2.2.1-.1.15-.1l.1-.05" fill="url(#d)"/></g></svg>