<svg xmlns="http://www.w3.org/2000/svg" width="6" height="9"><g transform="translate(-67.45 -30.3)"><radialGradient id="a" gradientUnits="userSpaceOnUse" gradientTransform="matrix(.00145 0 0 .0022 70.05 38.35)" spreadMethod="pad" cx="0" cy="0" r="819.2" fx="0" fy="0"><stop offset="0" stop-color="#f39b61"/><stop offset="1" stop-color="#f8be98"/></radialGradient><path d="M72.05 36.75l.4-.45q-.75-.05-1.2-.75l.15.5v.2l.1.7-.6-1.35-.1-3.95q.35-.85 1.2-1.35l.7.25q-1.35 1.15-1.45 1.55l-.1.65.05.2v.1q0 1.85.8 2.6l.05.05.05.05q.9.6.9 1.45l-.15.45-.2.3h-.05q-.4.15-.65.4-.8.55-1.5.55l-1.2-.25-.4-.15-.35-.15q-.75-.4-1.05-.85l.45-.25.35.15.45.25.15.05.3.15.05.05h.05l.5.2.9-.05.5-.35q1.1 0 1.1-.8l-.2-.15" fill="url(#a)"/><radialGradient id="b" gradientUnits="userSpaceOnUse" gradientTransform="matrix(.00478 0 0 .00777 72.5 35)" spreadMethod="pad" cx="0" cy="0" r="819.2" fx="210473" fy="0"><stop offset=".337" stop-color="#f9c29f"/><stop offset="1" stop-color="#fedec1" stop-opacity="0"/></radialGradient><path d="M72.25 36.9q0 .8-1.1.8l-.5.35-.9.05-.5-.2.5.05q.7-.05.85-.45l.15-.75-.05-.45-.3-.75v-.4l.2-1.3-.15-1.4-.05-.1v-.45l.7-1.15.9-.45q-.85.5-1.2 1.35l.1 3.95.6 1.35-.05.25h.15l.4-.45h.05l.2.15" fill="url(#b)"/><radialGradient id="c" gradientUnits="userSpaceOnUse" gradientTransform="translate(71.7 36.75) scale(.00157)" spreadMethod="pad" cx="0" cy="0" r="819.2" fx="0" fy="0"><stop offset="0" stop-color="#f39b61"/><stop offset="1" stop-color="#f8be98"/></radialGradient><path d="M71.4 36.25v-.2l-.15-.5q.45.7 1.2.75l-.4.45H72l-.4.45h-.15l.05-.25-.1-.7" fill="url(#c)"/><radialGradient id="d" gradientUnits="userSpaceOnUse" gradientTransform="matrix(.00113 .00005 -.00005 .00252 69.85 33.8)" spreadMethod="pad" cx="0" cy="0" r="819.2" fx="0" fy="0"><stop offset=".314" stop-color="#fff" stop-opacity=".431"/><stop offset="1" stop-color="#fff" stop-opacity="0"/></radialGradient><path d="M70.4 35.15l-.05.15-.1.3-.05.05-.3.25-.35-.3-.05-.05-.15-.3q-.2-.65-.15-1.45 0-.9.25-1.45.15-.6.45-.55.3 0 .5.55l.05.1.15 1.4-.2 1.3" fill="url(#d)"/><radialGradient id="e" gradientUnits="userSpaceOnUse" gradientTransform="matrix(.00102 .00006 -.00006 .00096 69.95 36.7)" spreadMethod="pad" cx="0" cy="0" r="819.2" fx="0" fy="0"><stop offset=".314" stop-color="#fff" stop-opacity=".431"/><stop offset="1" stop-color="#fff" stop-opacity="0"/></radialGradient><path d="M69.15 36.4l.15-.15q.25-.25.65-.2l.6.2.15.6-.25.55-.6.25q-.35-.05-.6-.35l-.1-.1-.15-.45.15-.35" fill="url(#e)"/><radialGradient id="f" gradientUnits="userSpaceOnUse" gradientTransform="matrix(.0061 .00063 -.00026 .00246 70.2 38.45)" spreadMethod="pad" cx="0" cy="0" r="819.2" fx="0" fy="0"><stop offset="0" stop-color="#cc8051"/><stop offset="1" stop-color="#f8be98"/></radialGradient><path d="M68.3 37.85h.3q.35 0 .65.3l.25.2v.1l-.4-.1-.45-.2-.4-.25.05-.05" fill="url(#f)"/><radialGradient id="g" gradientUnits="userSpaceOnUse" gradientTransform="matrix(.00342 0 0 .00249 70.05 38.35)" spreadMethod="pad" cx="0" cy="0" r="819.2" fx="0" fy="0"><stop offset="0" stop-color="#cc8051"/><stop offset="1" stop-color="#f8be98"/></radialGradient><path d="M72.05 37.85l-.6.35-.45.1-.35.15-.6.15-.55-.1v-.1l.45.05h.4l.3-.05q.05-.1.2-.15.3-.3.75-.4h.45" fill="url(#g)"/><radialGradient id="h" gradientUnits="userSpaceOnUse" gradientTransform="matrix(.00227 0 0 .00317 71.2 34.4)" spreadMethod="pad" cx="0" cy="0" r="819.2" fx="210473" fy="0"><stop offset=".337" stop-color="#f9c29f"/><stop offset="1" stop-color="#fedec1" stop-opacity="0"/></radialGradient><path d="M71.15 32.65l1.8 2.2q-.1.8-.8 1.3l-.1-.05q-.85-1-.85-3.3l-.05-.15" fill="url(#h)"/></g></svg>