<svg xmlns="http://www.w3.org/2000/svg" width="9" height="11"><g transform="translate(4.6 4.7)"><path d="M-.55 4.7l-.55.05-.45-.25.3-.2.55.3.15.1m1.95.05H.85l.15-.2q.35-.3.5-.25l.25.25-.35.2" fill="#823709"/><radialGradient id="a" gradientUnits="userSpaceOnUse" gradientTransform="matrix(.00786 0 0 .00786 -.5 -3.6)" spreadMethod="pad" cx="0" cy="0" r="819.2" fx="0" fy="0"><stop offset="0" stop-color="#e6805c" stop-opacity=".561"/><stop offset=".894" stop-color="#f0aa86" stop-opacity="0"/></radialGradient><path d="M2.75-3.8q1-1.1 1.5 1-1.15.75-1.8 1.7-.55.8-1.1 2.35-.3-2.95.05-3.4L2.75-3.8" fill="url(#a)"/><radialGradient id="b" gradientUnits="userSpaceOnUse" gradientTransform="matrix(.0106 0 0 .0106 .4 4.8)" spreadMethod="pad" cx="0" cy="0" r="819.2" fx="0" fy="0"><stop offset="0" stop-color="#e6835c" stop-opacity=".722"/><stop offset=".227" stop-color="#ed9e76" stop-opacity=".553"/><stop offset=".694" stop-color="#f0aa86" stop-opacity=".392"/><stop offset=".894" stop-color="#f0aa86" stop-opacity="0"/></radialGradient><path d="M-2.3-3.45l1.2.7q.5.5.55 1.35l.05.2-.05.1-.15 2.55q.1.7-.1 1.35v.1l.2.7q.2.35.9.4h.2l1.25-.15q.5 0 .65.5.15.45-.2.7l-.95.25-.5.05-.6.2h-.2l-.3-.2-1.1-.2q-.9-.05-.65-1.65l.2-.6.35-1.3.15-1.95-.05-.75-.05-.2-.4-1.3-.4-.85M-.7 4.6l-.55-.3-.3.2.45.25.55-.05-.15-.1m2.45-.05L1.5 4.3q-.15-.05-.5.25l-.15.2h.55l.35-.2" fill="url(#b)"/><radialGradient id="c" gradientUnits="userSpaceOnUse" gradientTransform="matrix(.00069 .00006 -.0001 .00282 .05 .45)" spreadMethod="pad" cx="0" cy="0" r="819.2" fx="0" fy="0"><stop offset=".314" stop-color="#fff" stop-opacity=".431"/><stop offset="1" stop-color="#fff" stop-opacity="0"/></radialGradient><path d="M.4-1.1L.45.5.3 2.1l-.1.35v.05l-.2.25-.2-.3-.05-.05-.05-.35-.1-1.6.2-1.65.3-.65.3.75" fill="url(#c)"/><radialGradient id="d" gradientUnits="userSpaceOnUse" gradientTransform="matrix(.00069 .00005 -.00006 .00073 .1 3.35)" spreadMethod="pad" cx="0" cy="0" r="819.2" fx="0" fy="0"><stop offset=".314" stop-color="#fff" stop-opacity=".431"/><stop offset="1" stop-color="#fff" stop-opacity="0"/></radialGradient><path d="M-.3 2.95q.15-.15.4-.15l.4.15.1.45-.15.45-.4.1q-.25 0-.4-.2l-.15-.4.2-.4" fill="url(#d)"/><radialGradient id="e" gradientUnits="userSpaceOnUse" gradientTransform="matrix(.00655 0 0 .00655 -1.4 -2.75)" spreadMethod="pad" cx="0" cy="0" r="819.2" fx="210479" fy="0"><stop offset="0" stop-color="#e68760" stop-opacity=".8"/><stop offset=".988" stop-color="#ffefea" stop-opacity="0"/></radialGradient><path d="M-.4.15L-1.9 2.2V-.35q0-1-.25-1.8-.5-1.5-2.45-2.55h1.4q2.3.6 2.6 1.5.3.9.2 3.35" fill="url(#e)"/></g></svg>