<svg xmlns="http://www.w3.org/2000/svg" width="9" height="10"><g transform="translate(4 4.9)"><radialGradient id="a" gradientUnits="userSpaceOnUse" gradientTransform="rotate(2.106 434.115 -34.358) scale(.01362)" spreadMethod="pad" cx="0" cy="0" r="819.2" fx="0" fy="0"><stop offset="0" stop-color="#fbbd9d"/><stop offset="1" stop-color="#fedec1"/></radialGradient><path d="M.5 1.6l-.55.75L-.7 3.7l-.05.3-.15.9h-.45l-.3-1.2-.2-.55-.65-1.05-.35-.5.3-.5.2-1.85q0-1.5-1.6-3.05h.05q.5-1.1 3.15-1.1 2.6 0 3.7.6l.25.05L1.95-3.2Q.5-1.85.5.2v.25L.75 1l.1.2-.35.4" fill="url(#a)"/><radialGradient id="b" gradientUnits="userSpaceOnUse" gradientTransform="rotate(6.577 -66.007 86.469) scale(.01003)" spreadMethod="pad" cx="0" cy="0" r="819.2" fx="0" fy="0"><stop offset="0" stop-color="#fbbd9d"/><stop offset="1" stop-color="#fedec1"/></radialGradient><path d="M-.9 4.9l.15-.9.05-.3.65-1.35.55-.75.35-.4.2.5.05.05.45.7.3.6.05.25-.05.45-.4.55-.15.05-.15.05-1.1.2-.1.05h-.1l-.5.2-.1.05H-.9" fill="url(#b)"/><radialGradient id="c" gradientUnits="userSpaceOnUse" gradientTransform="rotate(6.537 -87.353 -105.193) scale(.01049)" spreadMethod="pad" cx="0" cy="0" r="819.2" fx="0" fy="0"><stop offset="0" stop-color="#fbbd9d"/><stop offset="1" stop-color="#fedec1"/></radialGradient><path d="M-2.85 1.6l.35.5.65 1.05.2.55.3 1.2h-.05l-.6-.25h-.1l-.1-.05-1.05-.2-.35-.05q-.4-.2-.4-.7 0-.75.6-1.5l.45-.45.1-.1" fill="url(#c)"/><radialGradient id="d" gradientUnits="userSpaceOnUse" gradientTransform="matrix(.00348 0 0 .00514 -2.85 -.6)" spreadMethod="pad" cx="0" cy="0" r="819.2" fx="210531" fy="0"><stop offset=".337" stop-color="#f9c29f"/><stop offset="1" stop-color="#fedec1" stop-opacity="0"/></radialGradient><path d="M-1.9 3.3q-.65-.65-.6-1.6l.1-.8-.15.2.2-1.85q0-1.5-1.6-3.05l.3-.05.1-.05q1.95.6 1.85 3.15l-.15 4.1-.05-.05" fill="url(#d)"/><radialGradient id="e" gradientUnits="userSpaceOnUse" gradientTransform="matrix(.00409 0 0 .00409 -1.05 3.9)" spreadMethod="pad" cx="0" cy="0" r="819.2" fx="0" fy="0"><stop offset="0" stop-color="#f39b61"/><stop offset="1" stop-color="#f8be98"/></radialGradient><path d="M-1.85 3.35l.05.05.85.15q.55-.1.85-.45l.15-.2.2-.55.05-.3V1.8l-.05-.1-.05-.45h.05l.1.05V1L.3.1l.45.9.3.7.05.05.45.7.3.6.05.25-.05.45-.4.55-.15.05-.15.05-1.1.2-.1.05h-.1l-.5.2-.1.05h-.65l-.6-.25h-.1l-.1-.05-1.05-.2-.35-.05q-.4-.2-.4-.7 0-.75.6-1.5l.45-.45.4-.6.15-.2-.1.8q-.05.95.6 1.6l.05.05m3.15-.8L.95 2.2l-.2-.15-.4 1.1H.4l.5.15.25.05.25-.3-.05-.3V2.7l-.05-.15m-4.4-.2q-.5.45-.5.85l.15.45.85-.2h.05l-.55-.95v-.15" fill="url(#e)"/><radialGradient id="f" gradientUnits="userSpaceOnUse" gradientTransform="matrix(.00406 0 0 .00595 .7 -.25)" spreadMethod="pad" cx="0" cy="0" r="819.2" fx="210531" fy="0"><stop offset=".337" stop-color="#f9c29f"/><stop offset="1" stop-color="#fedec1" stop-opacity="0"/></radialGradient><path d="M.35 1v.3l-.1-.05H.2l.05.45.05.1v.25l-.05.3-.2.55-.15.2.05-.45-.05-.6L-.2 1l-.15-2.7q-.05-.85 1.3-2l-.5 1.25L.3-1.2V.1l.05.9" fill="url(#f)"/><path d="M-2.55 3.6l.55.2.05.1q.45.4.75.4t.8-.35q.45-.3.85-.3.35 0 .7.3l-.6.1-.85.1-.1.05-.65.25L-2.2 4h-.4l-.35.15h-.2v-.1L-3.2 4q.4-.4.65-.4" fill="#823909"/><radialGradient id="g" gradientUnits="userSpaceOnUse" gradientTransform="matrix(.00056 .00002 .00003 .002 -.95 -.7)" spreadMethod="pad" cx="0" cy="0" r="819.2" fx="0" fy="0"><stop offset=".314" stop-color="#fff" stop-opacity=".573"/><stop offset="1" stop-color="#fff" stop-opacity="0"/></radialGradient><path d="M-1.2-1.85l.25-.45.3.45v.05q.15.5.15 1.15L-.6.4v.1l-.1.25-.2.2-.2-.2V.7l-.1-.25-.1-1.15.1-1.15" fill="url(#g)"/><radialGradient id="h" gradientUnits="userSpaceOnUse" gradientTransform="matrix(.00047 .00003 -.00005 .00076 -.9 2.6)" spreadMethod="pad" cx="0" cy="0" r="819.2" fx="0" fy="0"><stop offset=".314" stop-color="#fff" stop-opacity=".592"/><stop offset="1" stop-color="#fff" stop-opacity="0"/></radialGradient><path d="M-1.55 3l-.1-.35.1-.3.15-.1.45-.2.5.2q.2.2.15.45l-.2.45-.5.15-.5-.25-.05-.05" fill="url(#h)"/><radialGradient id="i" gradientUnits="userSpaceOnUse" gradientTransform="matrix(.00623 0 0 .00623 .2 -2.5)" spreadMethod="pad" cx="0" cy="0" r="819.2" fx="0" fy="0"><stop offset="0" stop-color="#d66d3e" stop-opacity=".812"/><stop offset="1" stop-color="#ffdec2" stop-opacity="0"/></radialGradient><path d="M2.8-4.35l1.25.25-1.85.7Q.5-2 .5.2v2.15l-.3.75q-.25.7-1.4.6.75-.4.9-1.2l.1-5q.4-1.3 3-1.85" fill="url(#i)"/></g></svg>