<svg xmlns="http://www.w3.org/2000/svg" width="8" height="10"><g transform="translate(4.45 4.5)"><radialGradient id="a" gradientUnits="userSpaceOnUse" gradientTransform="matrix(.0205 .00046 -.00072 .0132 -.1 -14.5)" spreadMethod="pad" cx="0" cy="0" r="819.2" fx="0" fy="0"><stop offset="0" stop-color="#fbbd9d"/><stop offset="1" stop-color="#fedec1"/></radialGradient><path d="M3.4-4.15Q2.1-3.1 2.05-1.6l-.2.75q-.2.6.1 1.75.2 1.1.7 1.6l.2 1.1-.15.25L1.55 5q-.75.4-1.65.45l-1.35-.35-1.45-1.25-.05-.55q-.05-.5.3-.85.35-.4.75-1.5.35-1.15.05-2.85-.3-1.7-1.55-2.2-2-.55-.1-.35l3.15.15 1.75-.05.95-.1q.6-.05 1.05.3" fill="url(#a)"/></g></svg>