<?xml version="1.0" encoding="utf-8"?>
<svg version="1.1" id="Layer_1"
xmlns="http://www.w3.org/2000/svg"
xmlns:xlink="http://www.w3.org/1999/xlink"
xmlns:author="http://www.sothink.com"
width="7px" height="10px"
xml:space="preserve">
<g id="486" transform="matrix(1, 0, 0, 1, 3.05, 4.55)">
<radialGradient
id="RadialGradID_4164" gradientUnits="userSpaceOnUse" gradientTransform="matrix(0.0136108, 0.000473022, -0.000473022, 0.0136108, 0.1, -15.25)" spreadMethod ="pad" cx="0" cy="0" r="819.2" fx="0" fy="0" >
<stop  offset="0"  style="stop-color:#FBBD9D;stop-opacity:1" />
<stop  offset="1"  style="stop-color:#FEDEC1;stop-opacity:1" />
</radialGradient>
<path style="fill:url(#RadialGradID_4164) " d="M2.25,2.15L2.2 2.15L2.1 2.05L1.95 1.9L1.55 1.35L1.3 1.65Q0.55 2.6 0.25 3.85L0.1 4.55L-0.1 4.6L-0.4 4.6L-0.65 3.55Q-0.95 2.7 -1.5 1.95L-2.15 1.15L-2.1 1.1Q-1.35 0.1 -1.45 -1.1Q-1.55 -2.05 -2 -2.75L-2.35 -3.25L-2.5 -3.85L-2.45 -3.8Q-1.75 -4.55 -0.05 -4.55Q1.65 -4.55 2.3 -3.85L2 -3.05Q1.7 -2.3 1.65 -1.05Q1.6 0.15 2.2 2.1L2.35 2.3L2.25 2.15" />
<radialGradient
id="RadialGradID_4165" gradientUnits="userSpaceOnUse" gradientTransform="matrix(0.00996399, 0.00112915, -0.00112915, 0.00996399, 10.3, 7.85)" spreadMethod ="pad" cx="0" cy="0" r="819.2" fx="0" fy="0" >
<stop  offset="0"  style="stop-color:#FBBD9D;stop-opacity:1" />
<stop  offset="1"  style="stop-color:#FEDEC1;stop-opacity:1" />
</radialGradient>
<path style="fill:url(#RadialGradID_4165) " d="M2.35,2.3L2.5 2.5L2.7 3.15L2.35 3.95L1.15 4.35L0.1 4.55L0.25 3.85Q0.55 2.6 1.3 1.65L1.55 1.35L1.95 1.9L2.1 2.05L2.2 2.15L2.25 2.15L2.35 2.3" />
<radialGradient
id="RadialGradID_4166" gradientUnits="userSpaceOnUse" gradientTransform="matrix(0.0104218, 0.00117493, -0.00117493, 0.0104218, -11.35, 8.95)" spreadMethod ="pad" cx="0" cy="0" r="819.2" fx="0" fy="0" >
<stop  offset="0"  style="stop-color:#FBBD9D;stop-opacity:1" />
<stop  offset="1"  style="stop-color:#FEDEC1;stop-opacity:1" />
</radialGradient>
<path style="fill:url(#RadialGradID_4166) " d="M-0.4,4.6L-1.2 4.4L-2.1 4.15L-2.7 4.05Q-3.15 3.65 -3.05 3L-2.8 2.35L-2.15 1.15L-1.5 1.95Q-0.95 2.7 -0.65 3.55L-0.4 4.6" />
<radialGradient
id="RadialGradID_4167" gradientUnits="userSpaceOnUse" gradientTransform="matrix(0.0043335, 0, 0, 0.00402832, 0, 4.1)" spreadMethod ="pad" cx="0" cy="0" r="819.2" fx="0" fy="0" >
<stop  offset="0"  style="stop-color:#F39B61;stop-opacity:1" />
<stop  offset="1"  style="stop-color:#F7BC99;stop-opacity:0.313725" />
</radialGradient>
<path style="fill:url(#RadialGradID_4167) " d="M-2.25,3.95L-2.3 3.85Q-2.35 3.25 -1.85 3.15L-1.6 3.1L-1.35 3.25Q-1.2 3.35 -1 3.4L-0.2 3.65L-0.1 3.65L0.25 3.6L0.45 3.5L0.7 3.4L0.75 3.4L0.8 3.35L1.2 3.25L1.55 3.25L1.9 3.25L2.15 3.35L2.25 3.45L2.3 3.5Q2.3 3.4 2.45 3.4Q2.45 2.8 2.05 2.45Q1.85 2.15 1.6 2.2L1.6 2.25L1.25 1.7L1.2 1.6L1 1.3Q0.75 0.8 0.8 -0.3L0.85 -1.9Q1.35 -2.95 1.85 -3.35Q1.25 -2.15 1.25 -0.45Q1.2 1.25 1.95 1.9L2.1 2.05L2.2 2.15L2.7 3.15L2.35 3.95L1.15 4.35L-0.1 4.6L-1.2 4.4L-2.1 4.15L-2.25 3.95" />
<radialGradient
id="RadialGradID_4168" gradientUnits="userSpaceOnUse" gradientTransform="matrix(0.00196838, 0, 0, 0.00183105, 2.8, 2.7)" spreadMethod ="pad" cx="0" cy="0" r="819.2" fx="0" fy="0" >
<stop  offset="0"  style="stop-color:#F29860;stop-opacity:0.513725" />
<stop  offset="1"  style="stop-color:#F7BA99;stop-opacity:0.141176" />
</radialGradient>
<path style="fill:url(#RadialGradID_4168) " d="M1.2,3.25L0.8 3.35L0.75 3.4Q1.3 2.85 1.3 2.15L1.2 1.6L1.25 1.7L1.6 2.25L1.6 2.2Q1.85 2.15 2.05 2.45L1.2 3.25" />
<radialGradient
id="RadialGradID_4169" gradientUnits="userSpaceOnUse" gradientTransform="matrix(0.00561523, 0, 0, 0.00645447, -5, 0.5)" spreadMethod ="pad" cx="0" cy="0" r="819.2" fx="0" fy="0" >
<stop  offset="0"  style="stop-color:#F39B61;stop-opacity:1" />
<stop  offset="1"  style="stop-color:#F7BC99;stop-opacity:0.313725" />
</radialGradient>
<path style="fill:url(#RadialGradID_4169) " d="M-2.1,4.15L-2.7 4.05Q-3.15 3.65 -3.05 3L-2.8 2.35L-2.1 1.1Q-1.35 0.1 -1.45 -1.1Q-1.55 -2.05 -2 -2.75L-2.35 -3.25L-2.5 -3.85L-1.35 -3.35Q-0.8 -3.05 -0.85 -2.7L-0.8 -1.35L-0.8 -0.6L-0.95 0.95L-1.05 1.2L-1.15 1.5Q-1.35 2 -1.65 2.15L-1.7 2.2L-1.85 2.3L-2.1 2.45L-2.45 2.5L-2.7 2.75L-2.8 3.2L-2.55 3.7L-2.35 3.9L-2.25 3.95L-2.1 4.15M-1.85,3.15L-1.85 3.05L-1.6 3.1L-1.85 3.15" />
<radialGradient
id="RadialGradID_4170" gradientUnits="userSpaceOnUse" gradientTransform="matrix(0.00292969, 0, 0, 0.00273132, -3.05, 2.55)" spreadMethod ="pad" cx="0" cy="0" r="819.2" fx="0" fy="0" >
<stop  offset="0"  style="stop-color:#F29860;stop-opacity:0.513725" />
<stop  offset="1"  style="stop-color:#F7BA99;stop-opacity:0.141176" />
</radialGradient>
<path style="fill:url(#RadialGradID_4170) " d="M-1,3.4Q-1.2 3.35 -1.35 3.25L-1.85 2.3L-1.7 2.2L-1.65 2.15Q-1.35 2 -1.15 1.5L-1.15 1.85Q-1.15 3.05 -0.2 3.65L-1 3.4" />
<radialGradient
id="RadialGradID_4171" gradientUnits="userSpaceOnUse" gradientTransform="matrix(0.00341797, 0, 0, 0.00317383, 1.75, -0.3)" spreadMethod ="pad" cx="0" cy="0" r="819.2" fx="210004" fy="0" >
<stop  offset="0"  style="stop-color:#D66D3E;stop-opacity:0.811765" />
<stop  offset="1"  style="stop-color:#FFDEC2;stop-opacity:0" />
</radialGradient>
<path style="fill:url(#RadialGradID_4171) " d="M2.1,-2.7Q1.7 -1.95 1.75 -1.2L1.9 -0.05Q1.9 0.35 2.2 0.8Q2.5 1.2 3.05 1.4Q2.55 1.7 2.55 2.2L2.5 2.25Q2.4 1.75 1.05 1.1L0.9 -1.15Q0.75 -3.75 2.95 -4.05L2.1 -2.7" />
<radialGradient
id="RadialGradID_4172" gradientUnits="userSpaceOnUse" gradientTransform="matrix(0.000930786, 0.000167847, -0.00012207, 0.000717163, -0.1, 2.6)" spreadMethod ="pad" cx="0" cy="0" r="819.2" fx="0" fy="0" >
<stop  offset="0.313725"  style="stop-color:#FFFFFF;stop-opacity:0.662745" />
<stop  offset="1"  style="stop-color:#FFFFFF;stop-opacity:0" />
</radialGradient>
<path style="fill:url(#RadialGradID_4172) " d="M-0.55,2.2L0 2.2L0.5 2.4L0.65 2.75L0.4 3L-0.15 3.05L-0.65 2.8L-0.85 2.45L-0.55 2.2" />
<radialGradient
id="RadialGradID_4173" gradientUnits="userSpaceOnUse" gradientTransform="matrix(0.000686646, 6.10352e-005, -3.05176e-005, 0.00183105, -0.15, 0.4)" spreadMethod ="pad" cx="0" cy="0" r="819.2" fx="0" fy="0" >
<stop  offset="0.313725"  style="stop-color:#FFFFFF;stop-opacity:0.431373" />
<stop  offset="1"  style="stop-color:#FFFFFF;stop-opacity:0" />
</radialGradient>
<path style="fill:url(#RadialGradID_4173) " d="M0.1,-0.65L0.25 0.45L0.15 1.5L0.05 1.7L0.05 1.75L-0.15 1.9L-0.35 1.7L-0.4 1.65L-0.5 1.45L-0.6 0.4L-0.5 -0.65L-0.2 -1.1L0.1 -0.65" />
<path style="fill:#823909;fill-opacity:1" d="M1.7,3.7Q0.9 3.95 0.7 4.2L1.5 3.5L1.55 3.5L1.7 3.65L1.7 3.7M-1.25,3.75L-1.9 3.6Q-1.8 3.4 -1.55 3.4L-1 3.65L-0.85 3.75L-0.6 4.3Q-0.8 3.8 -1.15 3.75L-1.25 3.75" />
</g>
</svg>
