<svg xmlns="http://www.w3.org/2000/svg" width="7" height="11"><g transform="translate(3.15 5.35)"><radialGradient id="a" gradientUnits="userSpaceOnUse" gradientTransform="rotate(2.106 415.994 -3.772) scale(.01362)" spreadMethod="pad" cx="0" cy="0" r="819.2" fx="0" fy="0"><stop offset="0" stop-color="#fbbd9d"/><stop offset="1" stop-color="#fedec1"/></radialGradient><path d="M1.2 2.65q-.65.9-.9 2l-.15.7H-.2l-.15-.05-.2-.9-.05-.05-.55-1.2-.3-.4-.05-.1-.25-.3-.1-.15.1-.2.1-3.2Q-1.95-3.5-3-4.05l.45-.5q.4-.5 1.8-.7 1.35-.2 2.15 0 .8.2 1.45.8l-.1.3-.3.8-.4 1.3L1.65.6q-.05.55.25 1.25l-.7.8" fill="url(#a)"/><radialGradient id="b" gradientUnits="userSpaceOnUse" gradientTransform="rotate(6.577 -71.218 96.1) scale(.01003)" spreadMethod="pad" cx="0" cy="0" r="819.2" fx="0" fy="0"><stop offset="0" stop-color="#fbbd9d"/><stop offset="1" stop-color="#fedec1"/></radialGradient><path d="M1.9 1.85l.1.2.25.5.25.3.15.1.45.8.05.2v.2L3 4.4l-.2.3-.05.05-.05.05-.1.05-.5.15h-.3l-.8.15-.6.15-.25.05.15-.7q.25-1.1.9-2l.7-.8" fill="url(#b)"/><radialGradient id="c" gradientUnits="userSpaceOnUse" gradientTransform="rotate(6.537 -92.594 -95.514) scale(.01049)" spreadMethod="pad" cx="0" cy="0" r="819.2" fx="0" fy="0"><stop offset="0" stop-color="#fbbd9d"/><stop offset="1" stop-color="#fedec1"/></radialGradient><path d="M-.35 5.3l-.7-.25-.9-.1H-2l-.55-.2h-.05l-.1-.1-.15-.1-.1-.3-.05.05-.1-.2v-.25q-.05-.65 1.1-1.4l.15-.25.1.15.25.3.05.1.3.4.55 1.2.05.05.2.9" fill="url(#c)"/><path d="M.65 5.1l.2-.25q.15-.15.45-.2h.3l.3.2.05.05-.6-.05q-.3 0-.85.4l.15-.15m-1.05.15l-.3-.15-.95-.25-.1-.1.5-.2.3.1.2.2.2.2.15.2" fill="#823909"/><radialGradient id="d" gradientUnits="userSpaceOnUse" gradientTransform="matrix(-.00414 -.00008 -.00023 .00525 3.65 .1)" spreadMethod="pad" cx="0" cy="0" r="819.2" fx="0" fy="0"><stop offset="0" stop-color="#f39b61"/><stop offset="1" stop-color="#f7bc99" stop-opacity=".314"/></radialGradient><path d="M2.5 2.95l-.6-.4V2.7l.05-.05v.2l-.05.55-.1.5h.05l-.1.1-.15.2-.1-.05-.15.1-.15.1-.1.05q.5-.75.2-1.5l-.35-.8-.1-.65v-1.8l.2-2.05.1-.05.1-.1 1.25-.9-.45 1.4L1.65.6q-.05.6.35 1.45l.25.5.25.3.15.1.45.8-.6-.8" fill="url(#d)"/><radialGradient id="e" gradientUnits="userSpaceOnUse" gradientTransform="matrix(.00217 .00005 -.00008 .00194 2.25 4.35)" spreadMethod="pad" cx="0" cy="0" r="819.2" fx="0" fy="0"><stop offset=".016" stop-color="#f29460" stop-opacity=".282"/><stop offset="1" stop-color="#f7bc99" stop-opacity="0"/></radialGradient><path d="M2.65 4.75V4.7l-.3-.3-.45-.2h-.3l.15-.2.1-.1H1.8l.1-.5.05-.55v-.2l-.05.05V2.55l.6.4.6.8.05.2v.2L3 4.4l-.2.3-.05.05h-.1" fill="url(#e)"/><radialGradient id="f" gradientUnits="userSpaceOnUse" gradientTransform="matrix(.00145 .00002 -.00006 .0013 .1 5.05)" spreadMethod="pad" cx="0" cy="0" r="819.2" fx="0" fy="0"><stop offset="0" stop-color="#f39b61"/><stop offset="1" stop-color="#f8be98"/></radialGradient><path d="M2.75 4.75l-.05.05-.1.05-.5.15h-.3l-.8.15-.6.15-.6.05-.85-.3-.9-.1H-2l-.55-.2h-.05l-.1-.1.45-.4.15-.05.25-.1.35.05.2.1.2.05h.1l.1.05.05.05.1.05q.6.45 1 .4l.6-.25.25-.2.1-.05.15-.1.15-.1.1.05h.3l.45.2.3.3v.05h.1m-2.25.5q.55-.4.85-.4l.6.05-.05-.05-.3-.2h-.3q-.3.05-.45.2l-.2.25-.15.15m-1.05-.2l-.2-.2-.2-.2-.3-.1-.5.2.1.1.95.25.3.15-.15-.2" fill="url(#f)"/><radialGradient id="g" gradientUnits="userSpaceOnUse" gradientTransform="matrix(.00293 .00005 -.00026 .00595 -2.75 .5)" spreadMethod="pad" cx="0" cy="0" r="819.2" fx="282" fy="0"><stop offset="0" stop-color="#f39b61"/><stop offset="1" stop-color="#f7bc99" stop-opacity=".314"/></radialGradient><path d="M-2.7 4.65l-.15-.1-.1-.3-.05.05-.1-.2v-.25q-.05-.65 1.1-1.4l.3-.5q.4-.8.4-1.4l-.15-2.65-.4-1.4 1.25.9.1.1.05.1.1 2.1v.1L-.4.15l.05 1.4-.4.85-.3.45-.15.45v.6l.45.55-.1-.05-.05-.05-.1-.05h-.1l-.2-.05q-.6-.55-.45-1.15l.05-.6h-.1v-.05l-.65.45-.15.7.35.65-.45.4" fill="url(#g)"/><radialGradient id="h" gradientUnits="userSpaceOnUse" gradientTransform="matrix(.00253 .00064 -.00053 .00156 -2.8 4.1)" spreadMethod="pad" cx="0" cy="0" r="819.2" fx="0" fy="0"><stop offset=".016" stop-color="#f29460" stop-opacity=".282"/><stop offset="1" stop-color="#f7bc99" stop-opacity="0"/></radialGradient><path d="M-1.5 4.15l-.35-.05-.25.1-.15.05-.35-.65.15-.7.65-.45v.05h.1l-.05.6q-.15.6.45 1.15l-.2-.1M-1.85 3l-.05.1.05-.1" fill="url(#h)"/><radialGradient id="i" gradientUnits="userSpaceOnUse" gradientTransform="matrix(.00403 .00006 -.0003 .00716 -2.6 -.55)" spreadMethod="pad" cx="0" cy="0" r="819.2" fx="93" fy="0"><stop offset="0" stop-color="#d66d3e" stop-opacity=".812"/><stop offset="1" stop-color="#ffdec2" stop-opacity="0"/></radialGradient><path d="M-.5 1.7l-1.25 1.2.1-4.1L-3-4.05q2.35.95 2.55 2.2L-.5 1.7" fill="url(#i)"/><radialGradient id="j" gradientUnits="userSpaceOnUse" gradientTransform="matrix(.001 .00005 -.00005 .00098 -.05 3.5)" spreadMethod="pad" cx="0" cy="0" r="819.2" fx="0" fy="0"><stop offset="0" stop-color="#fff" stop-opacity=".78"/><stop offset="1" stop-color="#fff" stop-opacity="0"/></radialGradient><path d="M.6 3.05l.15.5-.2.6L0 4.3q-.35 0-.55-.2l-.25-.6.3-.5.55-.25.55.3" fill="url(#j)"/><radialGradient id="k" gradientUnits="userSpaceOnUse" gradientTransform="matrix(.00119 .00006 -.00012 .0028 0 .9)" spreadMethod="pad" cx="0" cy="0" r="819.2" fx="0" fy="0"><stop offset="0" stop-color="#fff" stop-opacity=".69"/><stop offset="1" stop-color="#fff" stop-opacity="0"/></radialGradient><path d="M.5-.65v1.6l-.15 1.6q-.2.6-.45.6t-.3-.65L-.6.9l.35-1.6q.1-.7.35-.7l.4.75" fill="url(#k)"/></g></svg>