<svg xmlns="http://www.w3.org/2000/svg" width="16" height="11"><g transform="translate(8 5.1)"><radialGradient id="a" gradientUnits="userSpaceOnUse" gradientTransform="rotate(2.106 420.143 -12.49) scale(.01362)" spreadMethod="pad" cx="0" cy="0" r="819.2" fx="0" fy="0"><stop offset="0" stop-color="#fbbd9d"/><stop offset="1" stop-color="#fedec1"/></radialGradient><path d="M.9 2.55Q.25 3.4 0 4.5l-.15.65H-.3l-.35-.05-.25-.9-.65-1.35-.2-.25-.55-.7.05-.1.1-1.1.15-1.9q-.05-.65-.85-2.2l-1.35-.75q.55-.85 3.6-.9l4 .35.7.3.4.3Q2-2.3 1.75-.95L1.6 1v.3l.05.35q-.45.4-.75.9" fill="url(#a)"/><radialGradient id="b" gradientUnits="userSpaceOnUse" gradientTransform="rotate(6.577 -70.045 93.367) scale(.01003)" spreadMethod="pad" cx="0" cy="0" r="819.2" fx="0" fy="0"><stop offset="0" stop-color="#fbbd9d"/><stop offset="1" stop-color="#fedec1"/></radialGradient><path d="M1.65 1.65v.05l.25.5.05.05.15.2.1.2.05.15.05.1v.05l.1.2.05.45-.05.35-.1.15-.5.35-.4.15h-.05L.4 5l-.55.15L0 4.5q.25-1.1.9-1.95.3-.5.75-.9" fill="url(#b)"/><radialGradient id="c" gradientUnits="userSpaceOnUse" gradientTransform="rotate(6.537 -91.414 -98.26) scale(.01049)" spreadMethod="pad" cx="0" cy="0" r="819.2" fx="0" fy="0"><stop offset="0" stop-color="#fbbd9d"/><stop offset="1" stop-color="#fedec1"/></radialGradient><path d="M-.65 5.1L-1.1 5l-.95-.3-.1-.05-.7-.3h-.05l-.05-.1-.1-.15-.15-.45.15-.6.2-.5.1-.2.1-.1.35-.35.55.7.2.25.65 1.35.25.9" fill="url(#c)"/><path d="M.1 4.4L.6 4q.3-.25.55-.15.3.05.45.3l-.7.15-.6.15-.2-.05m-1.1 0l-.2.05-.6-.15-.6-.1-.1-.05.4-.3.6.15.5.4" fill="#823909"/><radialGradient id="d" gradientUnits="userSpaceOnUse" gradientTransform="matrix(.00435 0 0 .00508 3.7 .4)" spreadMethod="pad" cx="0" cy="0" r="819.2" fx="210524" fy="0"><stop offset="0" stop-color="#f39b61"/><stop offset="1" stop-color="#f7bc99" stop-opacity=".314"/></radialGradient><path d="M1.85 4.35q-.05-.55-.75-.8H.9l.1-.2-.2-1.3Q.5.9.55.6L.5-.45q0-.75.45-1.4L2.2-3.2l1.9-1.2Q2-2.35 1.75-.95L1.6 1v.3l.05.4.25.5.05.05.15.2.1.2.05.15.05.1.1.25.05.45-.05.35-.6.5.05-.1m-.6-1.25l.4.3.35.4.25-.3-.15-.6-.3-.4-.3-.15-.25.75" fill="url(#d)"/><radialGradient id="e" gradientUnits="userSpaceOnUse" gradientTransform="matrix(.00504 0 0 .00235 -.5 4.65)" spreadMethod="pad" cx="0" cy="0" r="819.2" fx="0" fy="0"><stop offset="0" stop-color="#f39b61"/><stop offset="1" stop-color="#f7bc99" stop-opacity=".314"/></radialGradient><path d="M-2.7 4.1l.25-.3.65-.15 1.8.2.9-.3h.2q.7.25.75.8l-.05.1-.4.15h-.05L.4 5l-.7.15-.8-.15-.95-.3-.1-.05-.7-.3h-.05l.2-.25m3 .35l.6-.15.7-.15q-.15-.25-.45-.3Q.9 3.75.6 4l-.5.4.2.05M-1.5 4l-.6-.15-.4.3.1.05.6.1.6.15.2-.05-.5-.4" fill="url(#e)"/><radialGradient id="f" gradientUnits="userSpaceOnUse" gradientTransform="matrix(.00362 0 0 .00508 -3.45 .1)" spreadMethod="pad" cx="0" cy="0" r="819.2" fx="0" fy="0"><stop offset="0" stop-color="#f39b61"/><stop offset="1" stop-color="#f7bc99" stop-opacity=".314"/></radialGradient><path d="M-2.9 4.35l-.05-.1-.1-.15-.15-.45.15-.6.2-.5.1-.2.1-.1.4-.45.1-1.1.15-1.9q-.05-.65-.85-2.25L-1.7-2.2l.65.95q.3 2.35-.3 3.45l-.3 1.05-.1-.3q-.15-.25-.45-.2V2.7l-.05.05-.1.05-.1.05-.35.5-.05.1V4l.05-.1.1.2-.2.25" fill="url(#f)"/><radialGradient id="g" gradientUnits="userSpaceOnUse" gradientTransform="matrix(.00093 .00017 -.00012 .00076 -.35 3.2)" spreadMethod="pad" cx="0" cy="0" r="819.2" fx="0" fy="0"><stop offset=".314" stop-color="#fff" stop-opacity=".663"/><stop offset="1" stop-color="#fff" stop-opacity="0"/></radialGradient><path d="M-.85 2.75h.55l.5.2.2.4-.3.25-.55.05-.5-.25-.15-.4.25-.25" fill="url(#g)"/><radialGradient id="h" gradientUnits="userSpaceOnUse" gradientTransform="matrix(.00066 .00008 -.00002 .00253 -.25 .05)" spreadMethod="pad" cx="0" cy="0" r="819.2" fx="0" fy="0"><stop offset=".314" stop-color="#fff" stop-opacity=".431"/><stop offset="1" stop-color="#fff" stop-opacity="0"/></radialGradient><path d="M.2.1L.05 1.5 0 1.8l-.05.1-.15.25-.2-.35v-.05l-.1-.3-.1-1.4.1-1.5.3-.6.3.7L.2.1" fill="url(#h)"/><radialGradient id="i" gradientUnits="userSpaceOnUse" gradientTransform="matrix(.00491 0 0 .00458 2.95 -1.6)" spreadMethod="pad" cx="0" cy="0" r="819.2" fx="210454" fy="0"><stop offset="0" stop-color="#e87243" stop-opacity=".812"/><stop offset="1" stop-color="#ffdec2" stop-opacity="0"/></radialGradient><path d="M2.9-2.5L1.05-1.25.7-1.3.6-2.55v-.8l.35-.45.1-.05 2.75-.3.35-.05H5.3l.6-.05-.25.05L7-3.6l1 1.2q-1.6-.7-3.45-.7L3.6-3l-.45.35-.25.15" fill="url(#i)"/><radialGradient id="j" gradientUnits="userSpaceOnUse" gradientTransform="matrix(.00484 0 0 .0048 -.3 .65)" spreadMethod="pad" cx="0" cy="0" r="819.2" fx="210473" fy="0"><stop offset=".337" stop-color="#f9c29f"/><stop offset="1" stop-color="#fedec1" stop-opacity="0"/></radialGradient><path d="M3.15-2.65l-.8 1.05Q1.9-.85 2-.1v.05l.15.35.35.6.9 1.15h-.05q-1.25-.25-1.75.3-.5.45-.55-.1L.9.5.8-.65l-.1-.5v-.15l.35.05L2.9-2.5l.25-.15M1.8-.7l.05-.15-.05.1v.05" fill="url(#j)"/><radialGradient id="k" gradientUnits="userSpaceOnUse" gradientTransform="matrix(.00491 0 0 .00485 2.95 -1.85)" spreadMethod="pad" cx="0" cy="0" r="819.2" fx="210454" fy="0"><stop offset="0" stop-color="#e87243" stop-opacity=".812"/><stop offset="1" stop-color="#ffdec2" stop-opacity="0"/></radialGradient><path d="M3.55 2.2L3.4 2l.15.2" fill="url(#k)"/><radialGradient id="l" gradientUnits="userSpaceOnUse" gradientTransform="matrix(-.00533 0 0 .00514 -4.05 -1.85)" spreadMethod="pad" cx="0" cy="0" r="819.2" fx="210454" fy="0"><stop offset="0" stop-color="#e87243" stop-opacity=".812"/><stop offset="1" stop-color="#ffdec2" stop-opacity="0"/></radialGradient><path d="M-2.85-2.4l-.95-.5.1.1-.85-.3-1.9-.15-1.2.2-.35.1.5-1 1-.25h.4l-.3-.05 1.05.05 3.8.35.1.05.3.45.05.8-.1 1.15q-.35.35-1.65-1" fill="url(#l)"/><radialGradient id="m" gradientUnits="userSpaceOnUse" gradientTransform="matrix(.00473 0 0 .00587 -.3 .25)" spreadMethod="pad" cx="0" cy="0" r="819.2" fx="210473" fy="0"><stop offset=".337" stop-color="#f9c29f"/><stop offset="1" stop-color="#fedec1" stop-opacity="0"/></radialGradient><path d="M-1.2-1.4l-.05.1v.2l-.05.45-.05.05V0l-.05.1-.1 1.65q-.1.95-.6.6-.5-.4-1.65-.3h-.15l1-1.35-.55.75.6-1.15.35-.45.05-.1h.05-.05l-.3-.9q-.4-1-.95-1.65l-.1-.1.95.5q1.3 1.35 1.65 1" fill="url(#m)"/></g></svg>