<svg xmlns="http://www.w3.org/2000/svg" width="8" height="10"><g transform="translate(3.7 4.7)"><radialGradient id="a" gradientUnits="userSpaceOnUse" gradientTransform="rotate(2.106 434.787 .182) scale(.01362)" spreadMethod="pad" cx="0" cy="0" r="819.2" fx="0" fy="0"><stop offset="0" stop-color="#fbbd9d"/><stop offset="1" stop-color="#fedec1"/></radialGradient><path d="M1.25 2.15Q.7 2.95.45 4l-.15.7H.15l-.35-.05-.25-.95-.6-1.3-.25-.3-.4-.55.2-.7v-.5l.05-.65-.05-1.15v-.4L-1.6-2l-1.1-1-1-.7v-.05q.4-.85 3-.95l3.6.4q.95.5.55.9l-.4.3-.95.8-.35.75v.35l.05.9.05.25v.4l.2.6.05.2-.85 1" fill="url(#a)"/><radialGradient id="b" gradientUnits="userSpaceOnUse" gradientTransform="rotate(6.577 -65.386 97.092) scale(.01003)" spreadMethod="pad" cx="0" cy="0" r="819.2" fx="0" fy="0"><stop offset="0" stop-color="#fbbd9d"/><stop offset="1" stop-color="#fedec1"/></radialGradient><path d="M2.1 1.15l.1.35.05.15.25.25.6 1.35-.1.5v.1l-.3.4-.6.05-.4.05-.25.05-.35.15-.45.1-.35.05.15-.7q.25-1.05.8-1.85l.85-1" fill="url(#b)"/><radialGradient id="c" gradientUnits="userSpaceOnUse" gradientTransform="rotate(6.537 -86.733 -94.515) scale(.01049)" spreadMethod="pad" cx="0" cy="0" r="819.2" fx="0" fy="0"><stop offset="0" stop-color="#fbbd9d"/><stop offset="1" stop-color="#fedec1"/></radialGradient><path d="M-.2 4.65l-.3-.1-.85-.25-.2-.05h-.05l.1.05-.25.05V4.3l-.3-.1-.35-.3-.05-.25.05-.65.1-.25.4-.85.2-.35.4.55.25.3.6 1.3.25.95" fill="url(#c)"/><path d="M-1.55 4.25h-.05l.25.05-.2-.05m-.15-.1q-.25-.25.25-.35.6-.2 1.1.6l-.5-.25h-.85m3.75-.35q.2.15 0 .35H1.5q-.4 0-.8.45.2-.55.55-.65l.4-.1.4-.05" fill="#630"/><radialGradient id="d" gradientUnits="userSpaceOnUse" gradientTransform="translate(5.6 -.45) scale(.00801)" spreadMethod="pad" cx="0" cy="0" r="819.2" fx="0" fy="0"><stop offset="0" stop-color="#f58b69"/><stop offset=".353" stop-color="#f8a989" stop-opacity=".627"/><stop offset="1" stop-color="#fcc8aa" stop-opacity=".259"/></radialGradient><path d="M1.8-.3l.05.25v.4l.2.6.15.55.05.15.25.25.6 1.35-.1.5q-.1-.25-.35-.25l.05-.25q-.05-.6-.4-.75l-.35-.2-.2.8-.25.35-.1-.95-.2-.45V1.1L1.05.35.95-.3l-.1-.45q.1-1.1.5-1.95l.3-.65.35-.1h1q.35-.05-.9 1.15l-.35.75v.35l.05.9" fill="url(#d)"/><radialGradient id="e" gradientUnits="userSpaceOnUse" gradientTransform="matrix(.0026 0 0 .0026 2.1 -.55)" spreadMethod="pad" cx="0" cy="0" r="819.2" fx="210473" fy="0"><stop offset=".337" stop-color="#f9c29f"/><stop offset="1" stop-color="#fedec1" stop-opacity="0"/></radialGradient><path d="M2.5 1.9l-.25-.25-.05-.15-.15-.55-.2-.6v-.4L1.8-.3l-.05-.9.7.9.25.35.35.3.4.25.15.1.15.1-.15.35-.15.2q-.35.45-.95.55" fill="url(#e)"/><radialGradient id="f" gradientUnits="userSpaceOnUse" gradientTransform="matrix(.01031 0 0 .00288 .45 4.4)" spreadMethod="pad" cx="0" cy="0" r="819.2" fx="0" fy="0"><stop offset="0" stop-color="#f58b69"/><stop offset=".353" stop-color="#f8a989" stop-opacity=".627"/><stop offset="1" stop-color="#fcc8aa" stop-opacity=".259"/></radialGradient><path d="M-2.4 3.9l.25-.2.55-.2.6.1q.35.1.6.3l.7.15L.6 4l.35-.15.1-.1.3-.1L2 3.5h.65q.25 0 .35.25v.1l-.3.4-.6.05-.4.05-.25.05-.35.15-.45.1-.5.05-.65-.15-.85-.25-.25-.05.1.05-.25.05V4.3l-.05-.15V4.1l-.15-.15-.1.25-.35-.3m5.05-.4v.05-.05m-3.5.65l.5.25q-.5-.8-1.1-.6-.5.1-.25.35h.85m3.35 0L2.4 4l-.05.25.15-.1m-.85-.3l-.4.1q-.35.1-.55.65.4-.45.8-.45h.55q.2-.2 0-.35l-.4.05" fill="url(#f)"/><radialGradient id="g" gradientUnits="userSpaceOnUse" gradientTransform="translate(.05 4.15) scale(.00418)" spreadMethod="pad" cx="0" cy="0" r="819.2" fx="0" fy="0"><stop offset="0" stop-color="#f39b61"/><stop offset="1" stop-color="#f8be98"/></radialGradient><path d="M2.35 4.25L2.4 4l.1.15-.15.1" fill="url(#g)"/><radialGradient id="h" gradientUnits="userSpaceOnUse" gradientTransform="matrix(.01022 0 0 .01022 -4.55 -2)" spreadMethod="pad" cx="0" cy="0" r="819.2" fx="0" fy="0"><stop offset="0" stop-color="#f58b69"/><stop offset=".353" stop-color="#f8a989" stop-opacity=".627"/><stop offset="1" stop-color="#fcc8aa" stop-opacity=".259"/></radialGradient><path d="M-2.4 3.9l-.05-.25.05-.65.1-.25.4-.85.4-1.05v-.5l.05-.65-.05-1.15v-.4L-1.6-2l-1.1-1q-2.05-.95.1-.95l1.3.65q.6 1.05.75 2.55v.45l-.1.65-.05.7v.1l.05.5-.45.8-.35.1V2.5l-.05-.3-.35.45-.35.75.05.3-.25.2" fill="url(#h)"/><radialGradient id="i" gradientUnits="userSpaceOnUse" gradientTransform="matrix(.003 0 0 .003 -1.7 -1.05)" spreadMethod="pad" cx="0" cy="0" r="819.2" fx="210473" fy="0"><stop offset=".337" stop-color="#f9c29f"/><stop offset="1" stop-color="#fedec1" stop-opacity="0"/></radialGradient><path d="M-2.3 2.5l-.4-1.15-.45-.8.3-.2.6-.65.1-.15.65-1 .05 1.15-.05.65v.5l-.4 1.05-.4.85V2.5" fill="url(#i)"/><radialGradient id="j" gradientUnits="userSpaceOnUse" gradientTransform="matrix(.0031 0 0 .0031 .3 3.7)" spreadMethod="pad" cx="0" cy="0" r="819.2" fx="0" fy="0"><stop offset="0" stop-color="#f39b61"/><stop offset="1" stop-color="#f8be98"/></radialGradient><path d="M-1.95 3.95l.15.15v.05l.05.15-.3-.1.1-.25" fill="url(#j)"/><radialGradient id="k" gradientUnits="userSpaceOnUse" gradientTransform="matrix(.00078 .00006 -.00003 .00266 .15 -.45)" spreadMethod="pad" cx="0" cy="0" r="819.2" fx="0" fy="0"><stop offset=".314" stop-color="#fff" stop-opacity=".431"/><stop offset="1" stop-color="#fff" stop-opacity="0"/></radialGradient><path d="M.55-1.9L.7-.4.55.95l-.05.2-.1.3-.2.3-.25-.3-.05-.05-.1-.35-.1-1.5L-.15-2l.35-.55.35.55v.1" fill="url(#k)"/><radialGradient id="l" gradientUnits="userSpaceOnUse" gradientTransform="matrix(.00072 .00006 -.00005 .00087 .3 2.8)" spreadMethod="pad" cx="0" cy="0" r="819.2" fx="0" fy="0"><stop offset=".314" stop-color="#fff" stop-opacity=".671"/><stop offset="1" stop-color="#fff" stop-opacity="0"/></radialGradient><path d="M.85 2.9l-.25.55-.4.2-.4-.3-.1-.1-.05-.4.05-.35.15-.1q.2-.25.4-.2l.45.2.15.5" fill="url(#l)"/><radialGradient id="m" gradientUnits="userSpaceOnUse" gradientTransform="matrix(.00589 0 0 .00589 -2.6 -2.7)" spreadMethod="pad" cx="0" cy="0" r="819.2" fx="210222" fy="0"><stop offset="0" stop-color="#d66d3e" stop-opacity=".812"/><stop offset="1" stop-color="#ffdec2" stop-opacity="0"/></radialGradient><path d="M-2.35-3.9l2.05.05 3-.15-.75.85L.9-2.3H-.5l-1.15-.2q-.25-1.05-.7-1.4" fill="url(#m)"/><radialGradient id="n" gradientUnits="userSpaceOnUse" gradientTransform="matrix(.0015 -.0026 .0052 .003 3.15 -1.35)" spreadMethod="pad" cx="0" cy="0" r="819.2" fx="0" fy="0"><stop offset="0" stop-color="#d66d3e" stop-opacity=".812"/><stop offset="1" stop-color="#ffdec2" stop-opacity="0"/></radialGradient><path d="M3.1-4.1l.55.6v.05q-1.95 1.1-1.95 2L1.95.7 1 0 .95-.2.8-1.8Q.8-3.75 3-4.05l.1-.05" fill="url(#n)"/></g></svg>