<svg xmlns="http://www.w3.org/2000/svg" width="10" height="10"><g transform="translate(4.55 4.85)"><radialGradient id="a" gradientUnits="userSpaceOnUse" gradientTransform="rotate(2.106 429.17 7.49) scale(.01362)" spreadMethod="pad" cx="0" cy="0" r="819.2" fx="0" fy="0"><stop offset="0" stop-color="#fbbd9d"/><stop offset="1" stop-color="#fedec1"/></radialGradient><path d="M2.6 1.1Q1.15 2.35.7 4.2l-.15.6-.1.05q.1-.1-.2-.05h-.2l-.25-.9q-.3-.85-.85-1.6l-.75-.9-.05-.05q.4-1.05.4-1.8.05-1.35-.05-1-1.55-2.1-2.4-2.1Q-2.75-4.8.3-4.85q3-.05 4.05.65L3.1-2.85q-.9 1.7-.85 2.2l.45 1.7-.1.05" fill="url(#a)"/><radialGradient id="b" gradientUnits="userSpaceOnUse" gradientTransform="rotate(6.577 -67.027 99.408) scale(.01003)" spreadMethod="pad" cx="0" cy="0" r="819.2" fx="0" fy="0"><stop offset="0" stop-color="#fbbd9d"/><stop offset="1" stop-color="#fedec1"/></radialGradient><path d="M.55 4.8l.15-.6q.45-1.85 1.9-3.1l.1-.05.65 2.15q.35 1.4-.8 1.35l-2 .25" fill="url(#b)"/><radialGradient id="c" gradientUnits="userSpaceOnUse" gradientTransform="rotate(6.537 -88.383 -92.187) scale(.01049)" spreadMethod="pad" cx="0" cy="0" r="819.2" fx="0" fy="0"><stop offset="0" stop-color="#fbbd9d"/><stop offset="1" stop-color="#fedec1"/></radialGradient><path d="M-.75 4.6h-1.4q-.45-.1-.45-1.5l.75-1.75.05.05.75.9q.55.75.85 1.6l.25.9-.8-.2" fill="url(#c)"/><radialGradient id="d" gradientUnits="userSpaceOnUse" gradientTransform="matrix(.00954 0 0 .01169 -.75 -2)" spreadMethod="pad" cx="0" cy="0" r="819.2" fx="0" fy="0"><stop offset="0" stop-color="#f5a686" stop-opacity=".412"/><stop offset="1" stop-color="#fac8ab" stop-opacity=".369"/></radialGradient><path d="M3.15-3.85l1.4-.6.05.05q-.6.55-.85 1.1l-.25.25q-.4.05-.75 1.1l-.2.6-.1.35-.1.35v.55l.6 1.5.55 1.95-.25.75v-.05Q3.35 3 2.9 2.8l-1-.1q-.6.15-.65-1.45l-.1-2.5q-.05-.9.05-1.2l.7-1.35.9-.25-.2.4.55-.2" fill="url(#d)"/><radialGradient id="e" gradientUnits="userSpaceOnUse" gradientTransform="matrix(.01018 0 0 .00394 .75 4.7)" spreadMethod="pad" cx="0" cy="0" r="819.2" fx="0" fy="0"><stop offset="0" stop-color="#f58b69"/><stop offset="1" stop-color="#ffdec2" stop-opacity="0"/></radialGradient><path d="M-2.2 4.15h-.05q.55-.35 1.15-.3l1.2.35L1.25 4l1.05-.3.6.15q.3.1.3.45 0 .3-.75.35H1.4l-.75.25-1.3-.2-1.05.05-.65-.1h-.05v-.2l.05-.15.05-.1.1-.05" fill="url(#e)"/><radialGradient id="f" gradientUnits="userSpaceOnUse" gradientTransform="matrix(.0039 0 0 .01009 -2.15 -1.65)" spreadMethod="pad" cx="0" cy="0" r="819.2" fx="0" fy="0"><stop offset="0" stop-color="#f5a686" stop-opacity=".773"/><stop offset="1" stop-color="#fcd1b5" stop-opacity=".216"/></radialGradient><path d="M-2.3 4.2l-.05.1-.05.15v.2q-.4-.35-.35-1 0-.75.4-1.3l.55-1.6.25-1.1q.05-1-.05-1.05-.5-.9-1.3-1.6-.85-.7-1.65-.65l.7-.05.3-.05.25.05.85-.05 1.25.65.5.65.1 1.7-.1 2.3Q-.75 2.6-.95 2.8l-.8.2q-.7.15-.65.7l.15.45-.05.05" fill="url(#f)"/><path d="M-1.15 4.1l.65.2.3.4-.75-.2q-.5.15-.55-.15 0-.25.35-.25m3.7.1q-.05.3-.55.2l-.8.15.35-.4q.25-.2.65-.2.35 0 .35.25" fill="#905045"/><radialGradient id="g" gradientUnits="userSpaceOnUse" gradientTransform="matrix(.001 .0001 -.0001 .0008 .35 3.2)" spreadMethod="pad" cx="0" cy="0" r="819.2" fx="0" fy="0"><stop offset=".314" stop-color="#fff" stop-opacity=".663"/><stop offset="1" stop-color="#fff" stop-opacity="0"/></radialGradient><path d="M-.15 2.8l.6-.05.5.15.2.4-.25.3-.6.1-.55-.2-.2-.35.3-.35" fill="url(#g)"/><radialGradient id="h" gradientUnits="userSpaceOnUse" gradientTransform="matrix(.00069 .00002 .0001 .00262 .45 .25)" spreadMethod="pad" cx="0" cy="0" r="819.2" fx="0" fy="0"><stop offset=".314" stop-color="#fff" stop-opacity=".431"/><stop offset="1" stop-color="#fff" stop-opacity="0"/></radialGradient><path d="M.65-1.25l.2 1.5-.1 1.55-.05.3.05.05-.2.25-.25-.3-.05-.05-.1-.3Q0 1.1 0 .25L.05-1.3l.25-.55.35.6" fill="url(#h)"/></g></svg>