<svg xmlns="http://www.w3.org/2000/svg" width="7" height="10"><g transform="translate(3.05 4.6)"><radialGradient id="a" gradientUnits="userSpaceOnUse" gradientTransform="rotate(2.106 436.198 -1.285) scale(.01362)" spreadMethod="pad" cx="0" cy="0" r="819.2" fx="0" fy="0"><stop offset="0" stop-color="#fbbd9d"/><stop offset="1" stop-color="#fedec1"/></radialGradient><path d="M1.15 2.15q-.5.8-.75 1.8l-.1.55H.2l-.2.1-.25-.05-.25-.9-.65-1.35-.2-.25-.55-.7-.2-.2-.45-.35-.05-.05.35-.7.55-1.3-.1-.3-.3-.55-.4-.6-.25-.35h.25q.55 0 .65-.25l-.35-.1-.3-.1-.55-.2H-3q.55-.9 3.2-.9 2.65 0 2.85.9h.05l-.55.2-.3.1-.35.1q.1.25.65.25h.25l-.25.35-.35.6-.35.6L1.6-.15l.35 1.3v.05l-.8.95" fill="url(#a)"/><radialGradient id="b" gradientUnits="userSpaceOnUse" gradientTransform="rotate(6.577 -64.97 96.623) scale(.01003)" spreadMethod="pad" cx="0" cy="0" r="819.2" fx="0" fy="0"><stop offset="0" stop-color="#fbbd9d"/><stop offset="1" stop-color="#fedec1"/></radialGradient><path d="M1.95 1.2L2.3.85 2.65.6l.05.15V1.05L2.3 2.1l.25.35.4.6.05.4q0 .9-1.45 1.15L.7 4.5H.3l.1-.55q.25-1 .75-1.8l.8-.95" fill="url(#b)"/><radialGradient id="c" gradientUnits="userSpaceOnUse" gradientTransform="rotate(6.537 -86.314 -94.986) scale(.01049)" spreadMethod="pad" cx="0" cy="0" r="819.2" fx="0" fy="0"><stop offset="0" stop-color="#fbbd9d"/><stop offset="1" stop-color="#fedec1"/></radialGradient><path d="M-.25 4.55l-.3-.05-.85.1q-1.45-.2-1.45-1.1l.15-.6.3-.4.5-1.15.55.7.2.25.65 1.35.25.9" fill="url(#c)"/><path d="M.45 4.25l.75-.8.3-.1.3.15q-.05.65-1.1.65l-.25.1m-1.05-.1q-1.1 0-1.1-.65.15-.2.3-.15l.25.1.6.7H-.6" fill="#662001" fill-opacity=".702"/><radialGradient id="d" gradientUnits="userSpaceOnUse" gradientTransform="matrix(.0078 0 0 .00969 4.45 -.85)" spreadMethod="pad" cx="0" cy="0" r="819.2" fx="0" fy="0"><stop offset="0" stop-color="#f58b69"/><stop offset=".353" stop-color="#f8a989" stop-opacity=".627"/><stop offset="1" stop-color="#fcc8aa" stop-opacity=".259"/></radialGradient><path d="M1.6-.15l.35 1.3.35.95.05.2.1.2-.25-.2h-.05l-.85.15Q.6.85.75-.65L1-2.95l.6-.5.55-.2.4-.15.35-.05.2.15-.55.2-.3.1-.35.1q.1.25.65.25h.25l-.25.35-.35.6-.35.6L1.6-.15" fill="url(#d)"/><radialGradient id="e" gradientUnits="userSpaceOnUse" gradientTransform="matrix(.00352 0 0 .00352 1.5 -.6)" spreadMethod="pad" cx="0" cy="0" r="819.2" fx="210473" fy="0"><stop offset=".337" stop-color="#f9c29f"/><stop offset="1" stop-color="#fedec1" stop-opacity="0"/></radialGradient><path d="M1.85-1.5Q2-.65 2.5.3l.2.45V1.05L2.3 2.1l-.35-.95-.35-1.3.25-1.35" fill="url(#e)"/><radialGradient id="f" gradientUnits="userSpaceOnUse" gradientTransform="translate(.15 4.15) scale(.00241)" spreadMethod="pad" cx="0" cy="0" r="819.2" fx="0" fy="0"><stop offset="0" stop-color="#f39b61"/><stop offset="1" stop-color="#f8be98"/></radialGradient><path d="M2.45 3.05l.05.05h-.05l-.4-.4-.55-.1-.5.05.25-.2h.05l.85-.15h.05l.25.2-.1-.2.2.15.4.6h-.5m-4.75 0h-.45l.05-.15.3-.4.3-.2.9.15.35.25-.5-.05q-.75 0-.95.45h-.05l.05-.05" fill="url(#f)"/><radialGradient id="g" gradientUnits="userSpaceOnUse" gradientTransform="matrix(.00241 0 0 .00201 .15 3.9)" spreadMethod="pad" cx="0" cy="0" r="819.2" fx="0" fy="0"><stop offset="0" stop-color="#f39b61"/><stop offset="1" stop-color="#f8be98"/></radialGradient><path d="M2.95 3.05l.05.4q0 .9-1.45 1.15L.7 4.5H.2l-.2.1-.55-.1-.85.1q-1.45-.2-1.45-1.1l.05-.45h.5l-.05.05-.05.15v.2l.6.75h.05l-.2-.7q.05-.35.4-.35.35-.05.6.25l.8.45H.3l.75-.5q.3-.3.65-.25.35 0 .4.35l-.2.7h.05l.6-.75-.05-.3-.05-.05h.5M.7 4.15q1.05 0 1.1-.65l-.3-.15-.3.1-.75.8.25-.1m-1.25 0l-.6-.7-.25-.1q-.15-.05-.3.15 0 .65 1.1.65h.05" fill="url(#g)"/><radialGradient id="h" gradientUnits="userSpaceOnUse" gradientTransform="matrix(.00409 0 0 .00409 .25 3.8)" spreadMethod="pad" cx="0" cy="0" r="819.2" fx="0" fy="0"><stop offset="0" stop-color="#f39b61"/><stop offset="1" stop-color="#ffcfb0"/></radialGradient><path d="M-2.1 2.3l-.3.2.55-1.35.35-1.3-.2-1.1-.1-.3-.3-.55-.4-.6-.25-.35h.25q.55 0 .65-.25l-.35-.1-.3-.1-.55-.2.25-.15.3.05.45.15.5.2.65.5.2 2.3q.15 1.55-.5 3.1l-.9-.15" fill="url(#h)"/><radialGradient id="i" gradientUnits="userSpaceOnUse" gradientTransform="matrix(.00348 0 0 .00348 -1.55 -.6)" spreadMethod="pad" cx="0" cy="0" r="819.2" fx="210473" fy="0"><stop offset=".337" stop-color="#f9c29f"/><stop offset="1" stop-color="#fedec1" stop-opacity="0"/></radialGradient><path d="M-2.7 2.9l-.35-.65v-.8l.05-.1.75-1.3.55-1.3.2 1.1-.35 1.3-.55 1.35-.3.4" fill="url(#i)"/><radialGradient id="j" gradientUnits="userSpaceOnUse" gradientTransform="rotate(5.652 -47.172 4.21) scale(.00069)" spreadMethod="pad" cx="0" cy="0" r="819.2" fx="0" fy="0"><stop offset=".286" stop-color="#fff" stop-opacity=".631"/><stop offset="1" stop-color="#fff" stop-opacity="0"/></radialGradient><path d="M.6 3.2l-.2.35-.4.15-.35-.2-.2-.4.2-.35.4-.15.45.15.1.45" fill="url(#j)"/><radialGradient id="k" gradientUnits="userSpaceOnUse" gradientTransform="matrix(.00092 .00008 -.00005 .00285 .05 0)" spreadMethod="pad" cx="0" cy="0" r="819.2" fx="0" fy="0"><stop offset=".314" stop-color="#fff" stop-opacity=".431"/><stop offset="1" stop-color="#fff" stop-opacity="0"/></radialGradient><path d="M.65.1l-.2 1.6-.1.35v.1l-.3.2-.25-.3L-.25 2l-.05-.35L-.45 0l.15-1.65q.15-.7.4-.65l.45.75L.65.1" fill="url(#k)"/></g></svg>