<?xml version="1.0" encoding="utf-8"?>
<svg version="1.1" id="Layer_1"
xmlns="http://www.w3.org/2000/svg"
xmlns:xlink="http://www.w3.org/1999/xlink"
xmlns:author="http://www.sothink.com"
width="8px" height="9px"
xml:space="preserve">
<g id="491" transform="matrix(1, 0, 0, 1, 3.7, 4.15)">
<radialGradient
id="RadialGradID_4217" gradientUnits="userSpaceOnUse" gradientTransform="matrix(0.00996399, 0.00112915, -0.00112915, 0.00996399, 9.5, 7.55)" spreadMethod ="pad" cx="0" cy="0" r="819.2" fx="0" fy="0" >
<stop  offset="0"  style="stop-color:#FBBD9D;stop-opacity:1" />
<stop  offset="1"  style="stop-color:#FEDEC1;stop-opacity:1" />
</radialGradient>
<path style="fill:url(#RadialGradID_4217) " d="M-0.65,4.15L-0.55 3.55L-0.55 3.45L-0.5 3.3L0.4 1.45L1.3 0.5L1.85 2.25L1.95 2.45Q2.15 3.15 1.95 3.45L1.55 3.85L1.15 4.05L0 4.2L-0.65 4.15" />
<radialGradient
id="RadialGradID_4218" gradientUnits="userSpaceOnUse" gradientTransform="matrix(0.0136108, 0.000473022, -0.000473022, 0.0136108, -0.7, -15.55)" spreadMethod ="pad" cx="0" cy="0" r="819.2" fx="0" fy="0" >
<stop  offset="0"  style="stop-color:#FBBD9D;stop-opacity:1" />
<stop  offset="1"  style="stop-color:#FEDEC1;stop-opacity:1" />
</radialGradient>
<path style="fill:url(#RadialGradID_4218) " d="M0.4,1.45L-0.5 3.3L-0.55 3.45L-0.55 3.55L-0.65 4.15L-0.95 4.15L-1.2 4.1L-1.35 3.55L-1.45 3.25L-2.05 2L-2.3 1.65L-2.75 1.05L-2.4 -0.3L-2.35 -0.55L-2.4 -0.9Q-2.4 -2.15 -2.95 -3L-3.25 -3.4L-3.7 -3.75L-0.2 -4.15Q2.1 -4.15 3.75 -3.55Q1.65 -2.65 1.25 -1.9Q0.8 -1.1 1.25 0.3L1.3 0.5L0.4 1.45" />
<radialGradient
id="RadialGradID_4219" gradientUnits="userSpaceOnUse" gradientTransform="matrix(0.0104218, 0.00117493, -0.00117493, 0.0104218, -12.15, 8.65)" spreadMethod ="pad" cx="0" cy="0" r="819.2" fx="0" fy="0" >
<stop  offset="0"  style="stop-color:#FBBD9D;stop-opacity:1" />
<stop  offset="1"  style="stop-color:#FEDEC1;stop-opacity:1" />
</radialGradient>
<path style="fill:url(#RadialGradID_4219) " d="M-2.75,1.05L-2.3 1.65L-2.05 2L-1.45 3.25L-1.35 3.55L-1.2 4.1L-1.5 4.1L-2.25 4.1L-3.05 4L-3.3 3.6L-3.45 3L-3.3 2.55L-2.9 1.35L-2.75 1.05" />
<radialGradient
id="RadialGradID_4220" gradientUnits="userSpaceOnUse" gradientTransform="matrix(0.0113831, 0, -0.000366211, 0.0113831, -1.75, -2.85)" spreadMethod ="pad" cx="0" cy="0" r="819.2" fx="0" fy="0" >
<stop  offset="0"  style="stop-color:#F58B69;stop-opacity:1" />
<stop  offset="1"  style="stop-color:#FFDEC2;stop-opacity:0" />
</radialGradient>
<path style="fill:url(#RadialGradID_4220) " d="M1.6,2L1.7 2.35L1.7 2.95L1.7 2.9Q1.65 2.5 1.4 2.4L1 2.35L0.75 2.6L0.6 2.85L0.25 2.95L-0.15 3.25L-0.65 3.45L-0.85 3.5Q0.65 2.65 0.4 1.35L0 -0.95Q-0.05 -2.05 0.25 -2.35L0.75 -2.9L1.15 -3.15L1.55 -3.3L2.5 -3.5L3.75 -3.55Q1.65 -2.65 1.25 -1.9Q0.8 -1.1 1.25 0.3L1.85 2.25L1.95 2.45L1.6 2" />
<radialGradient
id="RadialGradID_4221" gradientUnits="userSpaceOnUse" gradientTransform="matrix(0.00993347, 0, -0.00012207, 0.00352478, -1.1, 4.4)" spreadMethod ="pad" cx="0" cy="0" r="819.2" fx="0" fy="0" >
<stop  offset="0"  style="stop-color:#F58B69;stop-opacity:1" />
<stop  offset="1"  style="stop-color:#FFDEC2;stop-opacity:0" />
</radialGradient>
<path style="fill:url(#RadialGradID_4221) " d="M0.9,2.85L1.55 3.05L1.7 3.25L1.7 3.05L1.7 2.95L1.7 2.35L1.6 2L1.95 2.45Q2.15 3.15 1.95 3.45L1.55 3.85L1.15 4.05L0 4.2L-0.95 4.15L-1.5 4.1L-2.25 4.1L-3.05 4L-3.3 3.6L-3.45 3Q-3.05 2.65 -2.75 2.75Q-2.45 2.8 -2 3.2L-1.45 3.5L-1.25 3.55L-0.85 3.5L-0.65 3.45L-0.15 3.25L0.25 2.95L0.6 2.85L0.9 2.85" />
<radialGradient
id="RadialGradID_4222" gradientUnits="userSpaceOnUse" gradientTransform="matrix(0.00894165, 0, -0.000289917, 0.00894165, -5.4, -1.05)" spreadMethod ="pad" cx="0" cy="0" r="819.2" fx="0" fy="0" >
<stop  offset="0"  style="stop-color:#F58B69;stop-opacity:0.772549" />
<stop  offset="1"  style="stop-color:#FFDEC2;stop-opacity:0" />
</radialGradient>
<path style="fill:url(#RadialGradID_4222) " d="M-3.45,3L-3.3 2.55L-2.9 1.35L-2.35 -0.55L-2.6 -2.55Q-1.7 -1.75 -1.75 -0.65L-1.95 0.8L-2 1.4L-2.05 2L-2 2.5L-1.45 3.5L-2 3.2Q-2.45 2.8 -2.75 2.75Q-3.05 2.65 -3.45 3" />
<path style="fill:#753833;fill-opacity:1" d="M-0.1,3.55L0.25 3.4L0.6 3.45L0.75 3.65L0.7 3.75L0.3 3.75L-0.5 3.95L-0.1 3.55M-1.95,3.5L-1.5 3.95L-1.9 3.75L-2.15 3.75L-2.6 3.85L-2.65 3.75L-2.5 3.55L-2.25 3.4L-1.95 3.5" />
<radialGradient
id="RadialGradID_4223" gradientUnits="userSpaceOnUse" gradientTransform="matrix(0.000778198, 0.000137329, -0.000106812, 0.000640869, -1.25, 2.6)" spreadMethod ="pad" cx="0" cy="0" r="819.2" fx="0" fy="0" >
<stop  offset="0.313725"  style="stop-color:#FFFFFF;stop-opacity:0.662745" />
<stop  offset="1"  style="stop-color:#FFFFFF;stop-opacity:0" />
</radialGradient>
<path style="fill:url(#RadialGradID_4223) " d="M-1.65,2.3L-1.2 2.25L-0.75 2.4L-0.6 2.75L-0.9 2.95L-1.35 3L-1.8 2.8L-1.9 2.5L-1.65 2.3" />
<radialGradient
id="RadialGradID_4224" gradientUnits="userSpaceOnUse" gradientTransform="matrix(0.000549316, 4.57764e-005, -4.57764e-005, 0.00212097, -0.9, 0.25)" spreadMethod ="pad" cx="0" cy="0" r="819.2" fx="0" fy="0" >
<stop  offset="0.313725"  style="stop-color:#FFFFFF;stop-opacity:0.431373" />
<stop  offset="1"  style="stop-color:#FFFFFF;stop-opacity:0" />
</radialGradient>
<path style="fill:url(#RadialGradID_4224) " d="M-0.6,-0.95L-0.55 0.25L-0.65 1.5L-0.7 1.75L-0.75 1.75L-0.9 1.95L-1.05 1.75L-1.05 1.7L-1.15 1.45L-1.2 0.2L-1.1 -1L-0.85 -1.5L-0.6 -0.95" />
</g>
</svg>
