<?xml version="1.0" encoding="utf-8"?>
<svg version="1.1" id="Layer_1"
xmlns="http://www.w3.org/2000/svg"
xmlns:xlink="http://www.w3.org/1999/xlink"
xmlns:author="http://www.sothink.com"
width="8px" height="10px"
xml:space="preserve">
<g id="496" transform="matrix(1, 0, 0, 1, 4.45, 4.5)">
<radialGradient
id="RadialGradID_4251" gradientUnits="userSpaceOnUse" gradientTransform="matrix(0.0205078, 0.000457764, -0.000717163, 0.0131989, -0.1, -14.5)" spreadMethod ="pad" cx="0" cy="0" r="819.2" fx="0" fy="0" >
<stop  offset="0"  style="stop-color:#FBBD9D;stop-opacity:1" />
<stop  offset="1"  style="stop-color:#FEDEC1;stop-opacity:1" />
</radialGradient>
<path style="fill:url(#RadialGradID_4251) " d="M3.4,-4.15Q2.1 -3.1 2.05 -1.6L1.85 -0.85Q1.65 -0.25 1.95 0.9Q2.15 2 2.65 2.5L2.85 3.6L2.7 3.85L1.55 5Q0.8 5.4 -0.1 5.45L-1.45 5.1L-2.9 3.85L-2.95 3.3Q-3 2.8 -2.65 2.45Q-2.3 2.05 -1.9 0.95Q-1.55 -0.2 -1.85 -1.9Q-2.15 -3.6 -3.4 -4.1Q-5.4 -4.65 -3.5 -4.45L-0.35 -4.3L1.4 -4.35L2.35 -4.45Q2.95 -4.5 3.4 -4.15" />
</g>
</svg>
