<?xml version="1.0" encoding="utf-8"?>
<svg version="1.1" id="Layer_1"
xmlns="http://www.w3.org/2000/svg"
xmlns:xlink="http://www.w3.org/1999/xlink"
xmlns:author="http://www.sothink.com"
width="9px" height="10px"
xml:space="preserve">
<g id="493" transform="matrix(1, 0, 0, 1, 4, 4.9)">
<radialGradient
id="RadialGradID_4238" gradientUnits="userSpaceOnUse" gradientTransform="matrix(0.0136108, 0.000473022, -0.000473022, 0.0136108, -0.9, -15.1)" spreadMethod ="pad" cx="0" cy="0" r="819.2" fx="0" fy="0" >
<stop  offset="0"  style="stop-color:#FBBD9D;stop-opacity:1" />
<stop  offset="1"  style="stop-color:#FEDEC1;stop-opacity:1" />
</radialGradient>
<path style="fill:url(#RadialGradID_4238) " d="M0.5,1.6L-0.05 2.35L-0.7 3.7L-0.75 4L-0.9 4.9L-1.35 4.9L-1.65 3.7L-1.85 3.15L-2.5 2.1L-2.85 1.6L-2.55 1.1L-2.35 -0.75Q-2.35 -2.25 -3.95 -3.8L-3.9 -3.8Q-3.4 -4.9 -0.75 -4.9Q1.85 -4.9 2.95 -4.3L3.2 -4.25L1.95 -3.2Q0.5 -1.85 0.5 0.2L0.5 0.45L0.75 1L0.85 1.2L0.5 1.6" />
<radialGradient
id="RadialGradID_4239" gradientUnits="userSpaceOnUse" gradientTransform="matrix(0.00996399, 0.00112915, -0.00112915, 0.00996399, 9.3, 8)" spreadMethod ="pad" cx="0" cy="0" r="819.2" fx="0" fy="0" >
<stop  offset="0"  style="stop-color:#FBBD9D;stop-opacity:1" />
<stop  offset="1"  style="stop-color:#FEDEC1;stop-opacity:1" />
</radialGradient>
<path style="fill:url(#RadialGradID_4239) " d="M-0.9,4.9L-0.75 4L-0.7 3.7L-0.05 2.35L0.5 1.6L0.85 1.2L1.05 1.7L1.1 1.75L1.55 2.45L1.85 3.05L1.9 3.3L1.85 3.75L1.45 4.3L1.3 4.35L1.15 4.4L0.05 4.6L-0.05 4.65L-0.15 4.65L-0.65 4.85L-0.75 4.9L-0.9 4.9" />
<radialGradient
id="RadialGradID_4240" gradientUnits="userSpaceOnUse" gradientTransform="matrix(0.0104218, 0.00117493, -0.00117493, 0.0104218, -12.35, 9.1)" spreadMethod ="pad" cx="0" cy="0" r="819.2" fx="0" fy="0" >
<stop  offset="0"  style="stop-color:#FBBD9D;stop-opacity:1" />
<stop  offset="1"  style="stop-color:#FEDEC1;stop-opacity:1" />
</radialGradient>
<path style="fill:url(#RadialGradID_4240) " d="M-2.85,1.6L-2.5 2.1L-1.85 3.15L-1.65 3.7L-1.35 4.9L-1.4 4.9L-2 4.65L-2.1 4.65L-2.2 4.6L-3.25 4.4L-3.6 4.35Q-4 4.15 -4 3.65Q-4 2.9 -3.4 2.15L-2.95 1.7L-2.85 1.6" />
<radialGradient
id="RadialGradID_4241" gradientUnits="userSpaceOnUse" gradientTransform="matrix(0.003479, 0, 0, 0.00514221, -2.85, -0.6)" spreadMethod ="pad" cx="0" cy="0" r="819.2" fx="210531" fy="0" >
<stop  offset="0.337255"  style="stop-color:#F9C29F;stop-opacity:1" />
<stop  offset="1"  style="stop-color:#FEDEC1;stop-opacity:0" />
</radialGradient>
<path style="fill:url(#RadialGradID_4241) " d="M-1.9,3.3Q-2.55 2.65 -2.5 1.7L-2.4 0.9L-2.55 1.1L-2.35 -0.75Q-2.35 -2.25 -3.95 -3.8L-3.65 -3.85L-3.55 -3.9Q-1.6 -3.3 -1.7 -0.75L-1.85 3.35L-1.9 3.3" />
<radialGradient
id="RadialGradID_4242" gradientUnits="userSpaceOnUse" gradientTransform="matrix(0.00408936, 0, 0, 0.00408936, -1.05, 3.9)" spreadMethod ="pad" cx="0" cy="0" r="819.2" fx="0" fy="0" >
<stop  offset="0"  style="stop-color:#F39B61;stop-opacity:1" />
<stop  offset="1"  style="stop-color:#F8BE98;stop-opacity:1" />
</radialGradient>
<path style="fill:url(#RadialGradID_4242) " d="M-1.85,3.35L-1.8 3.4L-0.95 3.55Q-0.4 3.45 -0.1 3.1L0.05 2.9L0.25 2.35L0.3 2.05L0.3 1.85L0.3 1.8L0.25 1.7L0.2 1.25L0.25 1.25L0.35 1.3L0.35 1L0.3 0.1L0.75 1L1.05 1.7L1.1 1.75L1.55 2.45L1.85 3.05L1.9 3.3L1.85 3.75L1.45 4.3L1.3 4.35L1.15 4.4L0.05 4.6L-0.05 4.65L-0.15 4.65L-0.65 4.85L-0.75 4.9L-1.4 4.9L-2 4.65L-2.1 4.65L-2.2 4.6L-3.25 4.4L-3.6 4.35Q-4 4.15 -4 3.65Q-4 2.9 -3.4 2.15L-2.95 1.7L-2.55 1.1L-2.4 0.9L-2.5 1.7Q-2.55 2.65 -1.9 3.3L-1.85 3.35M1.3,2.55L0.95 2.2L0.75 2.05L0.35 3.15L0.4 3.15L0.9 3.3L1.15 3.35L1.4 3.05L1.35 2.75L1.35 2.7L1.3 2.55M-3.1,2.35Q-3.6 2.8 -3.6 3.2L-3.45 3.65L-2.6 3.45L-2.55 3.45L-3.1 2.5L-3.1 2.35" />
<radialGradient
id="RadialGradID_4243" gradientUnits="userSpaceOnUse" gradientTransform="matrix(0.00405884, 0, 0, 0.00595093, 0.7, -0.25)" spreadMethod ="pad" cx="0" cy="0" r="819.2" fx="210531" fy="0" >
<stop  offset="0.337255"  style="stop-color:#F9C29F;stop-opacity:1" />
<stop  offset="1"  style="stop-color:#FEDEC1;stop-opacity:0" />
</radialGradient>
<path style="fill:url(#RadialGradID_4243) " d="M0.35,1L0.35 1.3L0.25 1.25L0.2 1.25L0.25 1.7L0.3 1.8L0.3 1.85L0.3 2.05L0.25 2.35L0.05 2.9L-0.1 3.1L-0.05 2.65L-0.1 2.05L-0.2 1L-0.35 -1.7Q-0.4 -2.55 0.95 -3.7L0.45 -2.45L0.3 -1.2L0.3 0.1L0.35 1" />
<path style="fill:#823909;fill-opacity:1" d="M-2.55,3.6L-2 3.8L-1.95 3.9Q-1.5 4.3 -1.2 4.3Q-0.9 4.3 -0.4 3.95Q0.05 3.65 0.45 3.65Q0.8 3.65 1.15 3.95L0.55 4.05L-0.3 4.15L-0.4 4.2L-1.05 4.45L-2.2 4L-2.6 4L-2.95 4.15L-3 4.15L-3.15 4.15L-3.15 4.05L-3.2 4Q-2.8 3.6 -2.55 3.6" />
<radialGradient
id="RadialGradID_4244" gradientUnits="userSpaceOnUse" gradientTransform="matrix(0.000564575, 1.52588e-005, 3.05176e-005, 0.0019989, -0.95, -0.7)" spreadMethod ="pad" cx="0" cy="0" r="819.2" fx="0" fy="0" >
<stop  offset="0.313725"  style="stop-color:#FFFFFF;stop-opacity:0.572549" />
<stop  offset="1"  style="stop-color:#FFFFFF;stop-opacity:0" />
</radialGradient>
<path style="fill:url(#RadialGradID_4244) " d="M-1.2,-1.85L-0.95 -2.3L-0.65 -1.85L-0.65 -1.8Q-0.5 -1.3 -0.5 -0.65L-0.6 0.4L-0.6 0.5L-0.7 0.75L-0.9 0.95L-1.1 0.75L-1.1 0.7L-1.2 0.45L-1.3 -0.7L-1.2 -1.85" />
<radialGradient
id="RadialGradID_4245" gradientUnits="userSpaceOnUse" gradientTransform="matrix(0.000473022, 3.05176e-005, -4.57764e-005, 0.000762939, -0.9, 2.6)" spreadMethod ="pad" cx="0" cy="0" r="819.2" fx="0" fy="0" >
<stop  offset="0.313725"  style="stop-color:#FFFFFF;stop-opacity:0.592157" />
<stop  offset="1"  style="stop-color:#FFFFFF;stop-opacity:0" />
</radialGradient>
<path style="fill:url(#RadialGradID_4245) " d="M-1.55,3L-1.65 2.65L-1.55 2.35L-1.4 2.25L-0.95 2.05L-0.45 2.25Q-0.25 2.45 -0.3 2.7L-0.5 3.15L-1 3.3L-1.5 3.05L-1.55 3" />
<radialGradient
id="RadialGradID_4246" gradientUnits="userSpaceOnUse" gradientTransform="matrix(0.00622559, 0, 0, 0.00622559, 0.2, -2.5)" spreadMethod ="pad" cx="0" cy="0" r="819.2" fx="0" fy="0" >
<stop  offset="0"  style="stop-color:#D66D3E;stop-opacity:0.811765" />
<stop  offset="1"  style="stop-color:#FFDEC2;stop-opacity:0" />
</radialGradient>
<path style="fill:url(#RadialGradID_4246) " d="M2.8,-4.35L4.05 -4.1L2.2 -3.4Q0.5 -2 0.5 0.2L0.5 2.35L0.2 3.1Q-0.05 3.8 -1.2 3.7Q-0.45 3.3 -0.3 2.5L-0.2 -2.5Q0.2 -3.8 2.8 -4.35" />
</g>
</svg>
