<svg xmlns="http://www.w3.org/2000/svg" width="7" height="10"><g transform="translate(3.5 4.8)"><radialGradient id="a" gradientUnits="userSpaceOnUse" gradientTransform="rotate(2.106 431.768 -6.958) scale(.01362)" spreadMethod="pad" cx="0" cy="0" r="819.2" fx="0" fy="0"><stop offset="0" stop-color="#fbbd9d"/><stop offset="1" stop-color="#fedec1"/></radialGradient><path d="M1.25 1.95Q.5 2.85.2 4.1l-.15.7h-.5l-.25-1-.85-1.6v-.05l-.75-.85.4-.5.05-.15.2-.85-.7-3.65v-.05h.05q-.25-.85 2.2-.9 2.45-.05 2.3 1.1l-.7 1.65-.1 1.1q0 .9.15 1.6L1.6 1l.1.1h.05v.05l.1.1-.6.7" fill="url(#a)"/><radialGradient id="b" gradientUnits="userSpaceOnUse" gradientTransform="rotate(6.577 -66.401 94.93) scale(.01003)" spreadMethod="pad" cx="0" cy="0" r="819.2" fx="0" fy="0"><stop offset="0" stop-color="#fbbd9d"/><stop offset="1" stop-color="#fedec1"/></radialGradient><path d="M1.85 1.25l.65.35.25.3.25.3.1.1.25.8v.1l-.1.2-.15.2-.2.15h-.05l-.1.05q-.1.05-.3.2l-.3.1-.25.1q-.4.1-.8.35l-.85.25h-.2l.15-.7q.3-1.25 1.05-2.15l.6-.7" fill="url(#b)"/><radialGradient id="c" gradientUnits="userSpaceOnUse" gradientTransform="rotate(6.537 -87.752 -96.688) scale(.01049)" spreadMethod="pad" cx="0" cy="0" r="819.2" fx="0" fy="0"><stop offset="0" stop-color="#fbbd9d"/><stop offset="1" stop-color="#fedec1"/></radialGradient><path d="M-.45 4.8H-.5l-.35-.1-.45-.2-.7-.35-.4-.1-.35-.15-.25-.15-.2-.15-.15-.2-.15-.3.3-.8.1-.1.25-.3.2-.25.35-.35.75.85v.05l.85 1.6.25 1" fill="url(#c)"/><radialGradient id="d" gradientUnits="userSpaceOnUse" gradientTransform="matrix(.00609 -.00258 .0028 .0066 2.95 .45)" spreadMethod="pad" cx="0" cy="0" r="819.2" fx="210473" fy="0"><stop offset=".337" stop-color="#f9c29f"/><stop offset="1" stop-color="#fedec1" stop-opacity="0"/></radialGradient><path d="M2.8 3.75l-.1-.25.15-.1.1-.1.05-.15.05-.15-.25-.5-.2-.3-.2-.05-.25.05-.35.6-.3-.6-.1-.05-.2-.25-.15-.2H1l-.1-.6V.65L.85-.2v-1.55q.05-.75.7-1.5l.65-.45-.7 1.65-.1 1.1q0 .9.15 1.6L1.6 1l.1.1h.05v.05l.75.45.25.3.25.3.1.1.25.8v.1l-.1.2-.15.2-.2.15h-.1" fill="url(#d)"/><radialGradient id="e" gradientUnits="userSpaceOnUse" gradientTransform="matrix(.00227 0 0 .00227 -.05 4.55)" spreadMethod="pad" cx="0" cy="0" r="819.2" fx="0" fy="0"><stop offset="0" stop-color="#f39b61"/><stop offset="1" stop-color="#f8be98"/></radialGradient><path d="M-2.9 3.55l.3-.25 1.05.25 2.7.1h.1l.2-.1.05-.05 1-.2.2.2.1.25h.05l-.1.05q-.1.05-.3.2l-.3.1-.25.1q-.4.1-.8.35l-.85.25H-.5l-.35-.1-.45-.2-.7-.35-.4-.1-.35-.15-.25-.15-.2-.15.2.15h.05l.05-.2m1.5.6q.25.1.6.45l-.7-.75-.95-.15-.15.1.05.1.2.1h.4l.55.15m3.7-.45q-.6-.2-1.2.35l-.6.55.25-.1.6-.3.55-.2.3-.05.15-.05.1-.1-.15-.1" fill="url(#e)"/><radialGradient id="f" gradientUnits="userSpaceOnUse" gradientTransform="matrix(.00475 0 0 .00475 -.2 4.4)" spreadMethod="pad" cx="0" cy="0" r="819.2" fx="0" fy="0"><stop offset=".239" stop-color="#a66842"/><stop offset="1" stop-color="#d19f81"/></radialGradient><path d="M-1.95 4h-.4l-.2-.1-.05-.1.15-.1.95.15.7.75q-.35-.35-.6-.45L-1.95 4m4.4-.2l-.1.1-.15.05-.3.05-.55.2-.6.3-.25.1.6-.55q.6-.55 1.2-.35l.15.1" fill="url(#f)"/><radialGradient id="g" gradientUnits="userSpaceOnUse" gradientTransform="matrix(.00444 .00075 -.00104 .00632 -2.55 .65)" spreadMethod="pad" cx="0" cy="0" r="819.2" fx="210473" fy="0"><stop offset=".337" stop-color="#f9c29f"/><stop offset="1" stop-color="#fedec1" stop-opacity="0"/></radialGradient><path d="M-2.95 3.75H-3l-.2-.15-.15-.2-.15-.3.3-.8.1-.1.25-.3.2-.25.75-.85.05-.15.2-.85-.7-3.7Q-1-3.15-1.05.65l-.05.8v.2l-.25.25-.25.3-.2.4q-.2-.3-.55-.3-.3 0-.55.3l-.25.5.1.1.15.35-.05.2" fill="url(#g)"/><radialGradient id="h" gradientUnits="userSpaceOnUse" gradientTransform="matrix(.00076 0 0 .00308 -.05 -.8)" spreadMethod="pad" cx="0" cy="0" r="819.2" fx="0" fy="0"><stop offset="0" stop-color="#fff" stop-opacity=".373"/><stop offset="1" stop-color="#fff" stop-opacity="0"/></radialGradient><path d="M-.05-3.1l.35.65L.45-.8.3.85l-.35.7-.4-.7-.1-1.65.1-1.65.4-.65" fill="url(#h)"/><radialGradient id="i" gradientUnits="userSpaceOnUse" gradientTransform="matrix(.001 0 0 .001 0 2.75)" spreadMethod="pad" cx="0" cy="0" r="819.2" fx="0" fy="0"><stop offset="0" stop-color="#fff" stop-opacity=".671"/><stop offset="1" stop-color="#fff" stop-opacity="0"/></radialGradient><path d="M-.85 2.75l.25-.6q.25-.25.6-.25l.65.25.25.6-.25.6-.65.3-.6-.3-.25-.6" fill="url(#i)"/><radialGradient id="j" gradientUnits="userSpaceOnUse" gradientTransform="matrix(.00327 0 0 .00426 .75 .4)" spreadMethod="pad" cx="0" cy="0" r="819.2" fx="0" fy="0"><stop offset="0" stop-color="#d66d3e" stop-opacity=".812"/><stop offset="1" stop-color="#ffdec2" stop-opacity="0"/></radialGradient><path d="M2.15-.1L3.5 1.45l-.5.3-1.15-.65.1 1.35Q1.15 2.05.9.65V-.9l.1-.5q.45-2 2.3-2.25-1.35 1.1-1.55 2.7.05.55.4.85" fill="url(#j)"/></g></svg>