<svg xmlns="http://www.w3.org/2000/svg" width="8" height="9"><g transform="translate(3.7 4.15)"><radialGradient id="a" gradientUnits="userSpaceOnUse" gradientTransform="rotate(6.577 -61.92 88.006) scale(.01003)" spreadMethod="pad" cx="0" cy="0" r="819.2" fx="0" fy="0"><stop offset="0" stop-color="#fbbd9d"/><stop offset="1" stop-color="#fedec1"/></radialGradient><path d="M-.65 4.15l.1-.6v-.1l.05-.15.9-1.85.9-.95.55 1.75.1.2q.2.7 0 1l-.4.4-.4.2L0 4.2l-.65-.05" fill="url(#a)"/><radialGradient id="b" gradientUnits="userSpaceOnUse" gradientTransform="rotate(2.106 447.18 -28.853) scale(.01362)" spreadMethod="pad" cx="0" cy="0" r="819.2" fx="0" fy="0"><stop offset="0" stop-color="#fbbd9d"/><stop offset="1" stop-color="#fedec1"/></radialGradient><path d="M.4 1.45L-.5 3.3l-.05.15v.1l-.1.6h-.3l-.25-.05-.15-.55-.1-.3-.6-1.25-.25-.35-.45-.6.35-1.35.05-.25-.05-.35q0-1.25-.55-2.1l-.3-.4-.45-.35 3.5-.4q2.3 0 3.95.6-2.1.9-2.5 1.65-.45.8 0 2.2l.05.2-.9.95" fill="url(#b)"/><radialGradient id="c" gradientUnits="userSpaceOnUse" gradientTransform="rotate(6.537 -83.245 -103.645) scale(.01049)" spreadMethod="pad" cx="0" cy="0" r="819.2" fx="0" fy="0"><stop offset="0" stop-color="#fbbd9d"/><stop offset="1" stop-color="#fedec1"/></radialGradient><path d="M-2.75 1.05l.45.6.25.35.6 1.25.1.3.15.55h-1.05l-.8-.1-.25-.4-.15-.6.15-.45.4-1.2.15-.3" fill="url(#c)"/><radialGradient id="d" gradientUnits="userSpaceOnUse" gradientTransform="matrix(.01138 0 -.00037 .01138 -1.75 -2.85)" spreadMethod="pad" cx="0" cy="0" r="819.2" fx="0" fy="0"><stop offset="0" stop-color="#f58b69"/><stop offset="1" stop-color="#ffdec2" stop-opacity="0"/></radialGradient><path d="M1.6 2l.1.35v.6-.05q-.05-.4-.3-.5L1 2.35l-.25.25-.15.25-.35.1-.4.3-.5.2-.2.05Q.65 2.65.4 1.35L0-.95q-.05-1.1.25-1.4l.5-.55.4-.25.4-.15.95-.2 1.25-.05q-2.1.9-2.5 1.65-.45.8 0 2.2l.6 1.95.1.2L1.6 2" fill="url(#d)"/><radialGradient id="e" gradientUnits="userSpaceOnUse" gradientTransform="matrix(.00993 0 -.00012 .00352 -1.1 4.4)" spreadMethod="pad" cx="0" cy="0" r="819.2" fx="0" fy="0"><stop offset="0" stop-color="#f58b69"/><stop offset="1" stop-color="#ffdec2" stop-opacity="0"/></radialGradient><path d="M.9 2.85l.65.2.15.2v-.9L1.6 2l.35.45q.2.7 0 1l-.4.4-.4.2L0 4.2l-.95-.05-.55-.05h-.75l-.8-.1-.25-.4-.15-.6q.4-.35.7-.25.3.05.75.45l.55.3.2.05.4-.05.2-.05.5-.2.4-.3.35-.1h.3" fill="url(#e)"/><radialGradient id="f" gradientUnits="userSpaceOnUse" gradientTransform="matrix(.00894 0 -.00029 .00894 -5.4 -1.05)" spreadMethod="pad" cx="0" cy="0" r="819.2" fx="0" fy="0"><stop offset="0" stop-color="#f58b69" stop-opacity=".773"/><stop offset="1" stop-color="#ffdec2" stop-opacity="0"/></radialGradient><path d="M-3.45 3l.15-.45.4-1.2.55-1.9-.25-2q.9.8.85 1.9L-1.95.8l-.05.6-.05.6.05.5.55 1-.55-.3q-.45-.4-.75-.45-.3-.1-.7.25" fill="url(#f)"/><path d="M-.1 3.55l.35-.15.35.05.15.2-.05.1H.3l-.8.2.4-.4m-1.85-.05l.45.45-.4-.2h-.25l-.45.1-.05-.1.15-.2.25-.15.3.1" fill="#753833"/><radialGradient id="g" gradientUnits="userSpaceOnUse" gradientTransform="matrix(.00078 .00014 -.0001 .00064 -1.25 2.6)" spreadMethod="pad" cx="0" cy="0" r="819.2" fx="0" fy="0"><stop offset=".314" stop-color="#fff" stop-opacity=".663"/><stop offset="1" stop-color="#fff" stop-opacity="0"/></radialGradient><path d="M-1.65 2.3l.45-.05.45.15.15.35-.3.2-.45.05-.45-.2-.1-.3.25-.2" fill="url(#g)"/><radialGradient id="h" gradientUnits="userSpaceOnUse" gradientTransform="matrix(.00055 .00005 -.00005 .00212 -.9 .25)" spreadMethod="pad" cx="0" cy="0" r="819.2" fx="0" fy="0"><stop offset=".314" stop-color="#fff" stop-opacity=".431"/><stop offset="1" stop-color="#fff" stop-opacity="0"/></radialGradient><path d="M-.6-.95l.05 1.2-.1 1.25-.05.25h-.05l-.15.2-.15-.2V1.7l-.1-.25L-1.2.2l.1-1.2.25-.5.25.55" fill="url(#h)"/></g></svg>