<svg xmlns="http://www.w3.org/2000/svg" width="7" height="10"><g transform="translate(3.05 4.55)"><radialGradient id="a" gradientUnits="userSpaceOnUse" gradientTransform="rotate(2.106 438.992 -5.659) scale(.01362)" spreadMethod="pad" cx="0" cy="0" r="819.2" fx="0" fy="0"><stop offset="0" stop-color="#fbbd9d"/><stop offset="1" stop-color="#fedec1"/></radialGradient><path d="M2.25 2.15H2.2l-.1-.1-.15-.15-.4-.55-.25.3Q.55 2.6.25 3.85l-.15.7-.2.05h-.3l-.25-1.05q-.3-.85-.85-1.6l-.65-.8.05-.05q.75-1 .65-2.2-.1-.95-.55-1.65l-.35-.5-.15-.6.05.05q.7-.75 2.4-.75t2.35.7l-.3.8q-.3.75-.35 2Q1.6.15 2.2 2.1l.15.2-.1-.15" fill="url(#a)"/><radialGradient id="b" gradientUnits="userSpaceOnUse" gradientTransform="rotate(6.577 -64.162 95.244) scale(.01003)" spreadMethod="pad" cx="0" cy="0" r="819.2" fx="0" fy="0"><stop offset="0" stop-color="#fbbd9d"/><stop offset="1" stop-color="#fedec1"/></radialGradient><path d="M2.35 2.3l.15.2.2.65-.35.8-1.2.4-1.05.2.15-.7q.3-1.25 1.05-2.2l.25-.3.4.55.15.15.1.1h.05l.1.15" fill="url(#b)"/><radialGradient id="c" gradientUnits="userSpaceOnUse" gradientTransform="rotate(6.537 -85.501 -96.372) scale(.01049)" spreadMethod="pad" cx="0" cy="0" r="819.2" fx="0" fy="0"><stop offset="0" stop-color="#fbbd9d"/><stop offset="1" stop-color="#fedec1"/></radialGradient><path d="M-.4 4.6l-.8-.2-.9-.25-.6-.1q-.45-.4-.35-1.05l.25-.65.65-1.2.65.8q.55.75.85 1.6L-.4 4.6" fill="url(#c)"/><radialGradient id="d" gradientUnits="userSpaceOnUse" gradientTransform="matrix(.00433 0 0 .00403 0 4.1)" spreadMethod="pad" cx="0" cy="0" r="819.2" fx="0" fy="0"><stop offset="0" stop-color="#f39b61"/><stop offset="1" stop-color="#f7bc99" stop-opacity=".314"/></radialGradient><path d="M-2.25 3.95l-.05-.1q-.05-.6.45-.7l.25-.05.25.15q.15.1.35.15l.8.25h.1l.35-.05.2-.1.25-.1h.05l.05-.05.4-.1h.7l.25.1.1.1.05.05q0-.1.15-.1 0-.6-.4-.95-.2-.3-.45-.25v.05l-.35-.55-.05-.1-.2-.3Q.75.8.8-.3l.05-1.6q.5-1.05 1-1.45-.6 1.2-.6 2.9-.05 1.7.7 2.35l.15.15.1.1.5 1-.35.8-1.2.4-1.25.25-1.1-.2-.9-.25-.15-.2" fill="url(#d)"/><radialGradient id="e" gradientUnits="userSpaceOnUse" gradientTransform="matrix(.00197 0 0 .00183 2.8 2.7)" spreadMethod="pad" cx="0" cy="0" r="819.2" fx="0" fy="0"><stop offset="0" stop-color="#f29860" stop-opacity=".514"/><stop offset="1" stop-color="#f7ba99" stop-opacity=".141"/></radialGradient><path d="M1.2 3.25l-.4.1-.05.05q.55-.55.55-1.25l-.1-.55.05.1.35.55V2.2q.25-.05.45.25l-.85.8" fill="url(#e)"/><radialGradient id="f" gradientUnits="userSpaceOnUse" gradientTransform="matrix(.00562 0 0 .00645 -5 .5)" spreadMethod="pad" cx="0" cy="0" r="819.2" fx="0" fy="0"><stop offset="0" stop-color="#f39b61"/><stop offset="1" stop-color="#f7bc99" stop-opacity=".314"/></radialGradient><path d="M-2.1 4.15l-.6-.1q-.45-.4-.35-1.05l.25-.65.7-1.25q.75-1 .65-2.2-.1-.95-.55-1.65l-.35-.5-.15-.6 1.15.5q.55.3.5.65l.05 1.35v.75L-.95.95l-.1.25-.1.3q-.2.5-.5.65l-.05.05-.15.1-.25.15-.35.05-.25.25-.1.45.25.5.2.2.1.05.15.2m.25-1v-.1l.25.05-.25.05" fill="url(#f)"/><radialGradient id="g" gradientUnits="userSpaceOnUse" gradientTransform="matrix(.00293 0 0 .00273 -3.05 2.55)" spreadMethod="pad" cx="0" cy="0" r="819.2" fx="0" fy="0"><stop offset="0" stop-color="#f29860" stop-opacity=".514"/><stop offset="1" stop-color="#f7ba99" stop-opacity=".141"/></radialGradient><path d="M-1 3.4q-.2-.05-.35-.15l-.5-.95.15-.1.05-.05q.3-.15.5-.65v.35q0 1.2.95 1.8L-1 3.4" fill="url(#g)"/><radialGradient id="h" gradientUnits="userSpaceOnUse" gradientTransform="matrix(.00342 0 0 .00317 1.75 -.3)" spreadMethod="pad" cx="0" cy="0" r="819.2" fx="210004" fy="0"><stop offset="0" stop-color="#d66d3e" stop-opacity=".812"/><stop offset="1" stop-color="#ffdec2" stop-opacity="0"/></radialGradient><path d="M2.1-2.7q-.4.75-.35 1.5L1.9-.05q0 .4.3.85.3.4.85.6-.5.3-.5.8l-.05.05q-.1-.5-1.45-1.15L.9-1.15q-.15-2.6 2.05-2.9L2.1-2.7" fill="url(#h)"/><radialGradient id="i" gradientUnits="userSpaceOnUse" gradientTransform="matrix(.00093 .00017 -.00012 .00072 -.1 2.6)" spreadMethod="pad" cx="0" cy="0" r="819.2" fx="0" fy="0"><stop offset=".314" stop-color="#fff" stop-opacity=".663"/><stop offset="1" stop-color="#fff" stop-opacity="0"/></radialGradient><path d="M-.55 2.2H0l.5.2.15.35L.4 3l-.55.05-.5-.25-.2-.35.3-.25" fill="url(#i)"/><radialGradient id="j" gradientUnits="userSpaceOnUse" gradientTransform="matrix(.00069 .00006 -.00003 .00183 -.15 .4)" spreadMethod="pad" cx="0" cy="0" r="819.2" fx="0" fy="0"><stop offset=".314" stop-color="#fff" stop-opacity=".431"/><stop offset="1" stop-color="#fff" stop-opacity="0"/></radialGradient><path d="M.1-.65L.25.45.15 1.5l-.1.2v.05l-.2.15-.2-.2-.05-.05-.1-.2L-.6.4l.1-1.05.3-.45.3.45" fill="url(#j)"/><path d="M1.7 3.7q-.8.25-1 .5l.8-.7h.05l.15.15v.05m-2.95.05l-.65-.15q.1-.2.35-.2l.55.25.15.1.25.55q-.2-.5-.55-.55h-.1" fill="#823909"/></g></svg>