<?xml version="1.0" encoding="utf-8"?>
<svg version="1.1" id="Layer_1"
xmlns="http://www.w3.org/2000/svg"
xmlns:xlink="http://www.w3.org/1999/xlink"
xmlns:author="http://www.sothink.com"
width="8px" height="10px"
xml:space="preserve">
<g id="498" transform="matrix(1, 0, 0, 1, 3.6, 4.6)">
<radialGradient
id="RadialGradID_4264" gradientUnits="userSpaceOnUse" gradientTransform="matrix(0.0114288, 0.000808716, -0.000808716, 0.0114288, -0.75, 2.45)" spreadMethod ="pad" cx="0" cy="0" r="819.2" fx="0" fy="0" >
<stop  offset="0"  style="stop-color:#E6835C;stop-opacity:0.721569" />
<stop  offset="0.227451"  style="stop-color:#ED9E76;stop-opacity:0.552941" />
<stop  offset="0.694118"  style="stop-color:#F0AA86;stop-opacity:0.392157" />
<stop  offset="0.894118"  style="stop-color:#F0AA86;stop-opacity:0" />
</radialGradient>
<path style="fill:url(#RadialGradID_4264) " d="M3.65,-4.25Q1.9 -3.9 1.25 -3.25Q0.55 -2.65 0.7 -0.8L1.1 2.3L1.1 2.4L1.35 3.8L1.1 4.25L0.5 4.4L0.25 4.4L-0.55 4.55L-1.25 4.65L-2.5 4.3L-3.2 4.15Q-3.55 4.05 -3.6 3.4Q-3.6 2.65 -2.8 3L-1.2 3.55L-0.6 3.55L-0.1 3.1Q0.3 2.7 0.15 2.05L-0.25 -2.5L-0.05 -3.35L1.05 -4.45L3.65 -4.25" />
<path style="fill:#823709;fill-opacity:1" d="M0.4,3.95L0.4 4.05L-0.2 4.25L-0.55 4.3L-0.45 4.2Q-0.05 3.85 0.2 3.9L0.4 3.95M-2.5,3.8Q-2.3 3.8 -2 4.05L-1.55 4.4Q-1.9 4.1 -2.35 4.1L-2.85 3.9L-2.75 3.85L-2.5 3.8" />
<radialGradient
id="RadialGradID_4265" gradientUnits="userSpaceOnUse" gradientTransform="matrix(0.000732422, 4.57764e-005, -6.10352e-005, 0.00305176, -1.25, -0.4)" spreadMethod ="pad" cx="0" cy="0" r="819.2" fx="0" fy="0" >
<stop  offset="0.313725"  style="stop-color:#FFFFFF;stop-opacity:0.65098" />
<stop  offset="1"  style="stop-color:#FFFFFF;stop-opacity:0" />
</radialGradient>
<path style="fill:url(#RadialGradID_4265) " d="M-0.9,-2.1L-0.8 -0.3L-1 1.45L-1.05 1.8L-1.1 1.8L-1.35 2.1L-1.5 1.8L-1.5 1.75L-1.65 1.4L-1.7 -0.4L-1.55 -2.15L-1.25 -2.8L-0.9 -2.1" />
<radialGradient
id="RadialGradID_4266" gradientUnits="userSpaceOnUse" gradientTransform="matrix(0.000991821, 6.10352e-005, -7.62939e-005, 0.00105286, -1.15, 2.5)" spreadMethod ="pad" cx="0" cy="0" r="819.2" fx="0" fy="0" >
<stop  offset="0.313725"  style="stop-color:#FFFFFF;stop-opacity:0.670588" />
<stop  offset="1"  style="stop-color:#FFFFFF;stop-opacity:0" />
</radialGradient>
<path style="fill:url(#RadialGradID_4266) " d="M-1.75,1.95Q-1.45 1.7 -1.1 1.7L-0.6 2L-0.35 2.65L-0.65 3.2L-1.25 3.4L-1.8 3.15L-2.05 2.55L-1.75 1.95" />
</g>
</svg>
