<svg xmlns="http://www.w3.org/2000/svg" width="6" height="10"><g transform="translate(2.85 4.6)"><radialGradient id="a" gradientUnits="userSpaceOnUse" gradientTransform="matrix(.00224 .0003 -.00131 .00838 2.1 -5.15)" spreadMethod="pad" cx="0" cy="0" r="819.2" fx="0" fy="0"><stop offset="0" stop-color="#f39b61"/><stop offset="1" stop-color="#f8be98"/></radialGradient><path d="M2.3-3.9l-.45.45-.65.9q-.3.5-.3 1.45v.05q-.05.85.4 2.4l.5 2-.9-.9L.4 1V.85Q.25 0 .25-1.05v-.05q0-1.95.55-2.75l.05-.05q.2-.35.85-.3l.8.05-.2.25" fill="url(#a)"/><radialGradient id="b" gradientUnits="userSpaceOnUse" gradientTransform="matrix(.0113 0 0 .01103 -.1 3.75)" spreadMethod="pad" cx="0" cy="0" r="819.2" fx="0" fy="0"><stop offset="0" stop-color="#e6835c" stop-opacity=".722"/><stop offset=".227" stop-color="#ed9e76" stop-opacity=".553"/><stop offset=".694" stop-color="#f0aa86" stop-opacity=".392"/><stop offset=".894" stop-color="#f0aa86" stop-opacity="0"/></radialGradient><path d="M2.9-4.55q-.65.4-1.05 1.2l-.5 1.05-.1.4v.85q0 .6.5 2.7l.2.8q.2 1.6-.6 1.7l-1 .15h-.3l-.75.3-.4-.15-1.1-.2q-.9-.05-.25-1.2l1.3-.05q1.2.05 1.4-.4l.2-.95V.8l-.2-3.4Q.3-3.15.8-3.8l2.1-.8v.05" fill="url(#b)"/><radialGradient id="c" gradientUnits="userSpaceOnUse" gradientTransform="translate(1.25 3.45) scale(.0019)" spreadMethod="pad" cx="0" cy="0" r="819.2" fx="0" fy="0"><stop offset="0" stop-color="#2e0002"/><stop offset=".773" stop-color="#532424" stop-opacity=".322"/></radialGradient><path d="M.55 3.4q.5-.05.25.5l-.6.05v-.4l.35-.15" fill="url(#c)"/><radialGradient id="d" gradientUnits="userSpaceOnUse" gradientTransform="translate(-2.6 3.25) scale(.00186)" spreadMethod="pad" cx="0" cy="0" r="819.2" fx="0" fy="0"><stop offset="0" stop-color="#2e0002"/><stop offset=".773" stop-color="#532424" stop-opacity=".322"/></radialGradient><path d="M-1.95 3.4l.5.5h-.8v-.25q.1-.3.3-.25" fill="url(#d)"/><radialGradient id="e" gradientUnits="userSpaceOnUse" gradientTransform="matrix(.00107 .0001 -.00024 .00636 -.8 .95)" spreadMethod="pad" cx="0" cy="0" r="819.2" fx="0" fy="0"><stop offset=".314" stop-color="#fff" stop-opacity=".6"/><stop offset="1" stop-color="#fff" stop-opacity="0"/></radialGradient><path d="M-1.4-.45l.2-1.95.45-.75q.25 0 .4.85l.1 2 .05 1.85v.1l-.15.5q-.05.25-.7.3-.55-.3-.45-.6l.05-.7.05-1.6" fill="url(#e)"/><radialGradient id="f" gradientUnits="userSpaceOnUse" gradientTransform="matrix(.00276 0 0 .00197 -.6 2.7)" spreadMethod="pad" cx="0" cy="0" r="819.2" fx="0" fy="0"><stop offset=".314" stop-color="#fff" stop-opacity=".431"/><stop offset="1" stop-color="#fff" stop-opacity="0"/></radialGradient><path d="M-2.85 3.15q0-1.05 1.7-1.05h.05l.25-.15.35-.2h.1q.9 0 .95.6-.05.65-.5.85l-.5.1-.9-.25L-1.5 3q-.7 0-1 .35h-.35v-.2" fill="url(#f)"/></g></svg>