<svg xmlns="http://www.w3.org/2000/svg" width="8" height="10"><g transform="translate(3.7 5)"><radialGradient id="a" gradientUnits="userSpaceOnUse" gradientTransform="matrix(.0009 0 0 .00412 -1.3 -.45)" spreadMethod="pad" cx="0" cy="0" r="819.2" fx="0" fy="0"><stop offset=".314" stop-color="#fff" stop-opacity=".651"/><stop offset="1" stop-color="#fff" stop-opacity="0"/></radialGradient><path d="M-1.7-2.2l.4-.75q.2 0 .4.75l.2 1.8-.2 1.75q-.2.75-.4.75l-.4-.75-.2-1.75.2-1.8" fill="url(#a)"/><radialGradient id="b" gradientUnits="userSpaceOnUse" gradientTransform="matrix(.00745 -.00096 .00201 .01587 -.85 1.1)" spreadMethod="pad" cx="0" cy="0" r="819.2" fx="0" fy="0"><stop offset="0" stop-color="#e6835c" stop-opacity=".722"/><stop offset=".255" stop-color="#ed9e76" stop-opacity=".553"/><stop offset=".62" stop-color="#f0aa86" stop-opacity=".392"/><stop offset="1" stop-color="#f0aa86" stop-opacity="0"/></radialGradient><path d="M3.7-5Q1.2-3.85.7-1.55L.95.65q.1.65.9 2.5Q2 4.3 1.35 4.5l-1.1.25L-1 5l-1.45-.25-.6-.05h-.1q-.45-.15-.55-1l.35-.6.45-.1q.15 0 .6.3l.95.25q1-.15 1.05-.8V-1.7q-.3-2.1 2.8-2.95L3.7-5" fill="url(#b)"/><radialGradient id="c" gradientUnits="userSpaceOnUse" gradientTransform="translate(-1.65 2.95) scale(.00095)" spreadMethod="pad" cx="0" cy="0" r="819.2" fx="0" fy="0"><stop offset="0" stop-color="#fff" stop-opacity=".761"/><stop offset="1" stop-color="#fff" stop-opacity="0"/></radialGradient><path d="M-1.1 3.5l-.55.2-.55-.2-.2-.55.2-.55.55-.2.55.2.2.55-.2.55" fill="url(#c)"/><path d="M-2.45 3.9l.55.35-.4.1h-.4l-.25-.2.1-.2.4-.05m3.05.15l-.25.25-.45.05-.35-.2.7-.25q.3-.05.35.15" fill="#823909"/></g></svg>