<svg xmlns="http://www.w3.org/2000/svg" width="7" height="10"><radialGradient id="a" gradientUnits="userSpaceOnUse" gradientTransform="matrix(.0058 .00018 -.00032 .0102 4.15 4.6)" spreadMethod="pad" cx="0" cy="0" r="819.2" fx="0" fy="0"><stop offset="0" stop-color="#f9c29f"/><stop offset="1" stop-color="#fedec1" stop-opacity="0"/></radialGradient><path d="M3.2 7.4l-.2.35-.5.4-.15.05.05-.75.05-4.85-.3-.8-.65-.55-.45-.4L.85.8.25.05l2.2.3L5.05.1Q3.6 1.15 3.3 1.75 3 2.3 3 3v.1l.05 1.8v.8q0 1.2.15 1.7" fill="url(#a)"/><radialGradient id="b" gradientUnits="userSpaceOnUse" gradientTransform="matrix(.00386 .00012 -.00017 .00554 3.05 4.05)" spreadMethod="pad" cx="0" cy="0" r="819.2" fx="210473" fy="0"><stop offset=".337" stop-color="#f9c29f"/><stop offset="1" stop-color="#fedec1" stop-opacity="0"/></radialGradient><path d="M1.4 1.15l.1.1q.35 1.45.3 4.55l-.1 1.8-.45-.8-.55-.45.5-2.4-.1-1.7Q.85 1.4 0 .45L.85.8l.2.05.35.3" fill="url(#b)"/><radialGradient id="c" gradientUnits="userSpaceOnUse" gradientTransform="matrix(.01013 .0003 -.00052 .01755 .2 -1.7)" spreadMethod="pad" cx="0" cy="0" r="819.2" fx="0" fy="0"><stop offset="0" stop-color="#e89679" stop-opacity=".663"/><stop offset="1" stop-color="#f3a26e" stop-opacity="0"/></radialGradient><path d="M4.2 5.6l-.75-.05-.4.15v-.8L3 3.1V3q0-.7.3-1.25.3-.6 1.75-1.65L5.4 0l1.35.15q-1.8.75-2.3 1.4l-.05.1q-.75 2-.05 4v.25l-.15-.3" fill="url(#c)"/><radialGradient id="d" gradientUnits="userSpaceOnUse" gradientTransform="matrix(.00937 .00029 -.00038 .01266 3.1 12.85)" spreadMethod="pad" cx="0" cy="0" r="819.2" fx="0" fy="0"><stop offset="0" stop-color="#e89679"/><stop offset="1" stop-color="#f3a26e" stop-opacity="0"/></radialGradient><path d="M3.05 5.7l.4-.15.75.05.15.3.15.25.55.95.05.6-.45.6q-.65.2-.95.5l-.35.25-.15.05h-.05L3 9.05l-.5.05-.45-.2-.4-.35-1-.25q-.55-.15-.6-.65H.1q.3-.25.6-.2.45-.05.75.35l.8.35.1.05.15-.05.5-.4.2-.35q-.15-.5-.15-1.7" fill="url(#d)"/><path d="M4.5 8.1l.05.1-.55.25-.3.15-.25.2.85-.7h.2m-3.4.25l-.4-.1.2-.15.55.15.15.15-.5-.05" fill="#944717"/><radialGradient id="e" gradientUnits="userSpaceOnUse" gradientTransform="translate(2.4 7.55) scale(.00092)" spreadMethod="pad" cx="0" cy="0" r="819.2" fx="0" fy="0"><stop offset=".082" stop-color="#fff" stop-opacity=".733"/><stop offset="1" stop-color="#fff" stop-opacity="0"/></radialGradient><path d="M2.4 8.25l-.55-.2-.2-.5.2-.55.6-.2q.3 0 .45.25l.25.55-.25.5-.5.15" fill="url(#e)"/><radialGradient id="f" gradientUnits="userSpaceOnUse" gradientTransform="matrix(.0006 .00002 -.0001 .0036 2.55 4.2)" spreadMethod="pad" cx="0" cy="0" r="819.2" fx="0" fy="0"><stop offset=".082" stop-color="#fff" stop-opacity=".733"/><stop offset="1" stop-color="#fff" stop-opacity="0"/></radialGradient><path d="M2.9 2.15L3 4.2l-.2 2.1-.35.85q-.15 0-.2-.85l-.1-2.15.2-2q.15-.9.3-.85.2-.05.25.85" fill="url(#f)"/><radialGradient id="g" gradientUnits="userSpaceOnUse" gradientTransform="rotate(1.498 -58.026 -18.137) scale(.00954)" spreadMethod="pad" cx="0" cy="0" r="819.2" fx="0" fy="0"><stop offset=".251" stop-color="#e6926f"/><stop offset=".988" stop-color="#ffefea" stop-opacity="0"/></radialGradient><path d="M5 1.35l-.65.9Q4.2 2.7 5.6 4q-1.15-.15-1.75-.5-.6-.4-.6-.9.2-1 1.15-1.6.7-.55 2.3-.8Q5.45.95 5 1.35" fill="url(#g)"/></svg>