<svg xmlns="http://www.w3.org/2000/svg" width="5" height="9"><radialGradient id="a" gradientUnits="userSpaceOnUse" gradientTransform="matrix(.00308 .0001 -.00018 .00612 2 3.35)" spreadMethod="pad" cx="0" cy="0" r="819.2" fx="160" fy="0"><stop offset=".337" stop-color="#f9c29f"/><stop offset="1" stop-color="#fedec1" stop-opacity="0"/></radialGradient><path d="M.75.35Q1.1.65 1.1 2v2.6L1.05 6q-.15.25-.2-.05l-.3-.35q-.3 0-.4.35l.2-1.2.15-2L.2 1 .5.55l.2-.2h.05" fill="url(#a)"/><radialGradient id="b" gradientUnits="userSpaceOnUse" gradientTransform="matrix(.01062 .00032 -.00032 .01062 2.6 7.85)" spreadMethod="pad" cx="0" cy="0" r="819.2" fx="0" fy="0"><stop offset="0" stop-color="#e89679"/><stop offset="1" stop-color="#f3a26e" stop-opacity="0"/></radialGradient><path d="M0 7q0-.45.5-.45l.55.45q.5.4.9.3l.65-.25.25-.4.1-1.35v-.05l-.1-3.6Q2.7.15 4.75 0l-.8 1.1q-.4.45-.35 1.3l.35 2.75.1.15q.35.6.3 1.2l-.25.7-1.2.7-.35.25-.3.15H2q-.45 0-.8-.35l-.25-.2L.1 7.2 0 7" fill="url(#b)"/><path d="M3.7 6.95l-.8.5.65-.65.15.15M.65 7q.25 0 .55.65L.5 7.1Q.45 7 .65 7" fill="#944717"/><radialGradient id="c" gradientUnits="userSpaceOnUse" gradientTransform="matrix(.00076 .00002 -.00003 .0009 1.95 6.2)" spreadMethod="pad" cx="0" cy="0" r="819.2" fx="0" fy="0"><stop offset=".431" stop-color="#fff" stop-opacity=".733"/><stop offset="1" stop-color="#fff" stop-opacity="0"/></radialGradient><path d="M1.9 6.9l-.45-.25-.1-.5.2-.5q.2-.25.45-.2.25 0 .4.3l.15.5-.2.5-.45.15" fill="url(#c)"/><radialGradient id="d" gradientUnits="userSpaceOnUse" gradientTransform="matrix(.00073 .0001 -.00017 .0028 2.1 3.55)" spreadMethod="pad" cx="0" cy="0" r="819.2" fx="0" fy="0"><stop offset=".082" stop-color="#fff" stop-opacity=".733"/><stop offset="1" stop-color="#fff" stop-opacity="0"/></radialGradient><path d="M1.65 5.15q-.1-.7-.05-1.65t.25-1.6l.4-.6.3.7.05 1.6-.25 1.6-.35.65q-.2 0-.35-.7" fill="url(#d)"/></svg>