<svg xmlns="http://www.w3.org/2000/svg" width="6" height="9"><g transform="translate(2.7 4.05)"><path d="M2.5 1.8l-.15.7-.3.1-.4-.2.2-1.1v-.05l.05-.2.5.55.05.1.05.05v.05m-4.8.65l-.05-.05-.1-.25.15-.35.55-.45h.05v.45l.1.3-.15.4-.35.1-.05-.05h-.05l-.05-.05-.05-.05" fill="#fbc6a8"/><radialGradient id="a" gradientUnits="userSpaceOnUse" gradientTransform="matrix(.00786 0 0 .01193 .05 4.1)" spreadMethod="pad" cx="0" cy="0" r="819.2" fx="0" fy="0"><stop offset=".098" stop-color="#e6805c" stop-opacity=".863"/><stop offset=".337" stop-color="#ed9e76" stop-opacity=".69"/><stop offset=".694" stop-color="#f0aa86" stop-opacity=".392"/><stop offset="1" stop-color="#f0aa86" stop-opacity="0"/></radialGradient><path d="M2 .75l.35.45.25.5.05.35-.1-.2-.05-.1-.05-.05-.05-.1-.5-.55-.05.2v.05l-.2 1.1-.1-.35.05-.55-.2-.5Q1.2.75 1.05.8.85.8.9.15q.4-.75.3-1.5l-.15-.95-.15-.75v-.05l.1-.25.3-.45.45-.25.05.05-.1.3-.05.65-.1 1.25.05.9.2.8.05.55.05.2.1.1" fill="url(#a)"/><radialGradient id="b" gradientUnits="userSpaceOnUse" gradientTransform="matrix(.00813 0 0 .01053 .1 1.6)" spreadMethod="pad" cx="0" cy="0" r="819.2" fx="0" fy="0"><stop offset=".259" stop-color="#f58b69" stop-opacity=".243"/><stop offset="1" stop-color="#ffdec2" stop-opacity="0"/></radialGradient><path d="M1.9.65l-.05-.2L1.8-.1l-.2-.8-.05-.9.1-1.25.05-.65q0 1.4.25 2.55l.25.9.35 1.6-.4-.5L2 .75l-.1-.1m-.55 1.6h-.2l-.05.05-.3.2-.65.2-.8-.35-.4-.2-.15-.7.25-1 .2-2.25.4-.65-.35-.5.05-.05.5.05.2-.15.1-.4.05-.35.05-.2h.1l.15.5.4.5.15.75.15.95Q1.3-.6.9.15.85.8 1.05.8q.15-.05.35.2l.2.5-.05.55.1.35-.3-.15m-.3-.6L.9 1.1.75.6v-.8l.05-.95-.15-.8-.5-.45q-.6 0-.65 1.05V-.4L-.65.65l-.2.6q-.15.45.35.85l1.35.05.2-.5" fill="url(#b)"/><radialGradient id="c" gradientUnits="userSpaceOnUse" gradientTransform="matrix(.00786 0 0 .01193 .05 4.1)" spreadMethod="pad" cx="0" cy="0" r="819.2" fx="0" fy="0"><stop offset="0" stop-color="#e6805c" stop-opacity=".863"/><stop offset=".149" stop-color="#ed9e76" stop-opacity=".69"/><stop offset=".694" stop-color="#f0aa86" stop-opacity=".392"/><stop offset="1" stop-color="#f0aa86" stop-opacity="0"/></radialGradient><path d="M2.5 1.75l.05.1v.35l-.05.25-.1.3-.3.25h-.25l-.1-.05Q1.3 2.6 1 2.8l-.4.3-.25.25L0 3.6l-.45-.3-.5-.45-.65-.15h-.6l-.45-.45V2.2l.1-.4.35-.55.6-1.15.25-1.4q.1-.85-.1-1.25l-.4-.75h.45l.65.3.05.05.35.5-.4.65-.2 2.25-.25 1 .15.7.4.2.8.35.65-.2.3-.2.05-.05h.2l.3.15.4.2.3-.1.15-.7v-.05m-4.6.85l.35-.1.15-.4-.1-.3v-.45h-.05l-.55.45-.15.35.1.25.05.05.05.05.05.05.1.05" fill="url(#c)"/><radialGradient id="d" gradientUnits="userSpaceOnUse" gradientTransform="matrix(.0071 0 0 .00462 .05 3.25)" spreadMethod="pad" cx="0" cy="0" r="819.2" fx="0" fy="0"><stop offset=".259" stop-color="#e67d5c" stop-opacity=".812"/><stop offset=".557" stop-color="#ed9e76" stop-opacity=".69"/><stop offset=".925" stop-color="#f0aa86" stop-opacity=".392"/></radialGradient><path d="M2.55 1.85l.1.2v.05l.05.1v.05l-.05.25-.15.35-.15.15-.15.2-1.35.5-.5.3-.55.05-.4-.25-.25-.15-.85-.3-.35-.15-.35-.25-.25-.6v-.1l.45.45h.6l.65.15.5.45.45.3.35-.25.25-.25.4-.3q.3-.2.75.15l.1.05h.25l.3-.25.1-.3.05-.25v-.35" fill="url(#d)"/><radialGradient id="e" gradientUnits="userSpaceOnUse" gradientTransform="translate(.75 2.75) scale(.0025)" spreadMethod="pad" cx="0" cy="0" r="819.2" fx="0" fy="0"><stop offset=".365" stop-color="#f8a989" stop-opacity=".635"/><stop offset="1" stop-color="#fbc6a8" stop-opacity=".286"/></radialGradient><path d="M2.5 1.8v-.05.05" fill="url(#e)"/><path d="M.9 2.95l.45-.1.3.25-.35.1h-.25l-.35.2H.6q-.05-.1.05-.25l.25-.2m-2.75 0l.4-.2q.55 0 .9.65h-.1l-.2-.15-.5-.05q-.35 0-.5-.25" fill="#823709"/><radialGradient id="f" gradientUnits="userSpaceOnUse" gradientTransform="matrix(.00063 0 0 .0027 .25 -.25)" spreadMethod="pad" cx="0" cy="0" r="819.2" fx="0" fy="0"><stop offset=".204" stop-color="#fff" stop-opacity=".78"/><stop offset=".988" stop-color="#fff" stop-opacity="0"/></radialGradient><path d="M-.15-1.75Q0-2.4.25-2.4l.4.65.15 1.5L.65 1.3q-.15.6-.4.6t-.4-.6L-.3-.25l.15-1.5" fill="url(#f)"/><radialGradient id="g" gradientUnits="userSpaceOnUse" gradientTransform="translate(0 1.75) scale(.0009)" spreadMethod="pad" cx="0" cy="0" r="819.2" fx="0" fy="0"><stop offset=".11" stop-color="#fff" stop-opacity=".78"/><stop offset=".988" stop-color="#fff" stop-opacity="0"/></radialGradient><path d="M.55 2.25L0 2.5l-.5-.25-.2-.5.2-.5Q-.3 1 0 1l.55.25.2.5-.2.5" fill="url(#g)"/></g></svg>