<svg xmlns="http://www.w3.org/2000/svg" width="6" height="10"><g transform="translate(2.8 4.75)"><radialGradient id="a" gradientUnits="userSpaceOnUse" gradientTransform="matrix(.00089 0 -.00005 .005 -.4 .5)" spreadMethod="pad" cx="0" cy="0" r="819.2" fx="0" fy="0"><stop offset=".314" stop-color="#fff" stop-opacity=".541"/><stop offset="1" stop-color="#fff" stop-opacity="0"/></radialGradient><path d="M-.05-2.45L.35-.9.25.35l.2 2q-.2 1.1-.95 1.1-.7-.2-.7-.7l.1-1.1L-.95.6-.8-.55V-1.5q.4-1.55.75-.95" fill="url(#a)"/><radialGradient id="b" gradientUnits="userSpaceOnUse" gradientTransform="matrix(.00179 -.00006 .00003 .00111 -.25 2.95)" spreadMethod="pad" cx="0" cy="0" r="819.2" fx="0" fy="0"><stop offset=".314" stop-color="#fff" stop-opacity=".431"/><stop offset="1" stop-color="#fff" stop-opacity="0"/></radialGradient><path d="M1.15 3.2q.05.6-1 .65-1.6.05-1.65-.8l.3-.55.25-.35.1-.05.5-.05q.55 0 1 .3.5.3.5.85" fill="url(#b)"/><radialGradient id="c" gradientUnits="userSpaceOnUse" gradientTransform="matrix(.00372 -.00012 .00012 .00404 .4 4.35)" spreadMethod="pad" cx="0" cy="0" r="819.2" fx="636" fy="0"><stop offset="0" stop-color="#f29860" stop-opacity=".702"/><stop offset="1" stop-color="#f8be98"/></radialGradient><path d="M1.55-4.3l1.1-.4.15-.05-.6 1.35q-.65 1-.55 3.75l.3 1.25.15.6.25.9v.8q-.15.65-.65.65h-.3l-.65-.1-.95.3q-.4.05-1.15-.4l-.45.1-.6-.15-.35-.35-.05-.4.1-.35.25-.6q-.1.7.2.75l.6.1.65.25.7.15.7-.2.2-.15.1-.05.05-.05-.2-5.35.45-1.9.55-.45" fill="url(#c)"/><path d="M1.35 4.2l-.4.15-.5-.05q.3-.3.55-.4l.35.3m-3.2-.45l.3.15.6.5-.75-.15-.3-.3.15-.2" fill="#823909"/></g></svg>