<svg xmlns="http://www.w3.org/2000/svg" width="5" height="10"><g transform="translate(-67.6 -30.1)"><radialGradient id="a" gradientUnits="userSpaceOnUse" gradientTransform="matrix(.00694 .00221 -.00288 .00903 69.9 38.1)" spreadMethod="pad" cx="0" cy="0" r="819.2" fx="0" fy="0"><stop offset="0" stop-color="#e6835c" stop-opacity=".722"/><stop offset=".227" stop-color="#ed9e76" stop-opacity=".553"/><stop offset=".694" stop-color="#f0aa86" stop-opacity=".392"/><stop offset=".894" stop-color="#f0aa86" stop-opacity="0"/></radialGradient><path d="M71.8 37l.3.15q.25.35-.1.7l-.45.25-1.45.25-1.3-.25h-.1l-.4-.15-.4-.2q-.3-.3-.3-.75t.4-1.15l.55-1 .25-1.55q0-.75.4-1.3l.2 1.4v2.05l-.1.1-.35.45q-.25.4-.1.85l.35.25.7.4 1.05-.15q.6-.45.85-.35m-3.8.2h.2l.2-.2.05-.3.05-.35v-.3q0-.1-.15.05l-.35.4-.15.45.15.25" fill="url(#a)"/><path d="M71.3 37.9l-.55.1.4-.55.45-.2q.25-.05.25.2l-.15.4-.4.05m-2.3-.1l-.3-.05-.1-.3.05-.2.1-.1.3.1.75.7-.8-.15" fill="#823909"/><radialGradient id="b" gradientUnits="userSpaceOnUse" gradientTransform="matrix(.00203 -.00044 .00044 .00203 70.35 38.5)" spreadMethod="pad" cx="0" cy="0" r="819.2" fx="0" fy="0"><stop offset="0" stop-color="#e07849" stop-opacity=".6"/><stop offset="1" stop-color="#ffdec2" stop-opacity="0"/></radialGradient><path d="M70.65 38.8l.15.85-.15.2-.35.05q-.45 0-.45-.15l.1-.45.05-.65v-.05l.1-.15.15-.05.25.1.15.3" fill="url(#b)"/><radialGradient id="c" gradientUnits="userSpaceOnUse" gradientTransform="matrix(.00102 .00012 -.0001 .00119 70.05 36.5)" spreadMethod="pad" cx="0" cy="0" r="819.2" fx="0" fy="0"><stop offset="0" stop-color="#fff" stop-opacity=".973"/><stop offset="1" stop-color="#fff" stop-opacity="0"/></radialGradient><path d="M69.5 36.35q-.05-.25.25-.4.25-.25.5-.2l.35.35.2.45-.25.45-.5.2q-.25-.05-.35-.25l-.2-.6" fill="url(#c)"/><radialGradient id="d" gradientUnits="userSpaceOnUse" gradientTransform="matrix(-.00098 .00064 -.00018 .00586 70.15 32.6)" spreadMethod="pad" cx="0" cy="0" r="819.2" fx="0" fy="0"><stop offset="0" stop-color="#fff" stop-opacity=".471"/><stop offset="1" stop-color="#fff" stop-opacity="0"/></radialGradient><path d="M70.2 30.2l.4 1.45.15 1.95-.3 1.55q-.2.7-.4.5l-.4-1.45-.05-2.1q0-.9.25-1.5.2-.7.35-.4" fill="url(#d)"/><radialGradient id="e" gradientUnits="userSpaceOnUse" gradientTransform="rotate(48.632 -4.21 98.786) scale(.00157)" spreadMethod="pad" cx="0" cy="0" r="819.2" fx="0" fy="0"><stop offset="0" stop-color="#fff" stop-opacity=".471"/><stop offset="1" stop-color="#fff" stop-opacity="0"/></radialGradient><path d="M71.25 36.1l1 .25q.45.55.1 1.05l-.45-.7q-.35-.4-.8-.45l.15-.15" fill="url(#e)"/></g></svg>