<svg xmlns="http://www.w3.org/2000/svg" width="12" height="9"><g transform="translate(-64.4 -31.45)"><radialGradient id="a" gradientUnits="userSpaceOnUse" gradientTransform="matrix(.00354 -.0001 .00021 .00706 71.2 34.7)" spreadMethod="pad" cx="0" cy="0" r="819.2" fx="0" fy="0"><stop offset="0" stop-color="#f58b69" stop-opacity=".243"/><stop offset="1" stop-color="#ffdec2" stop-opacity="0"/></radialGradient><path d="M71.75 31.45L72 34.1q0 .5.35 1.65l-.15.4q-.25 1-.6 1.2l.1-.6-.35-.8-.1-.4-.1-.65v-2.2q-.05-.4.25-.75l.35-.5" fill="url(#a)"/><radialGradient id="b" gradientUnits="userSpaceOnUse" gradientTransform="matrix(.0114 -.00035 .00027 .00888 70.3 38.1)" spreadMethod="pad" cx="0" cy="0" r="819.2" fx="0" fy="0"><stop offset=".098" stop-color="#e6805c" stop-opacity=".863"/><stop offset=".337" stop-color="#ed9e76" stop-opacity=".69"/><stop offset=".694" stop-color="#f0aa86" stop-opacity=".392"/><stop offset="1" stop-color="#f0aa86" stop-opacity="0"/></radialGradient><path d="M72.95 37.15v.5l-.25.35q-.25.3-.75.4-.45 0-.85.45l-.8.3h-.05l-.7-.25q-.4-.35-.75-.4h-.2l-.8-.35q-.3-.25-.3-.85l.2-.75.15-.15.25-.35q.45.1.6-.15l.1-.25v-.05q-.5-1.1-.35-1.5l.2-.9.2-1.15.05-.2.4.9.05 2.2v.65l-.1.4-.2.85q-.1.4.55 1.3l.65.3q.65-.05 1-.6l.15-.2.4-.25.15.45.5-.1.5-.85v.25m-5.15-.4l-.1.7.2.35.2.15.4.1.15-.6q0-.75-.5-1.05-.3 0-.35.35" fill="url(#b)"/><radialGradient id="c" gradientUnits="userSpaceOnUse" gradientTransform="matrix(.00375 -.00012 .0001 .00291 70.1 38.65)" spreadMethod="pad" cx="0" cy="0" r="819.2" fx="0" fy="0"><stop offset="0" stop-color="#de8568"/><stop offset=".604" stop-color="#f8a989" stop-opacity=".635"/><stop offset="1" stop-color="#fbc6a8" stop-opacity=".286"/></radialGradient><path d="M68.15 36.4q.5.3.5 1.05l-.15.6-.4-.1-.2-.15-.2-.35.1-.7q.05-.35.35-.35" fill="url(#c)"/><radialGradient id="d" gradientUnits="userSpaceOnUse" gradientTransform="matrix(.00066 -.00002 .0001 .0032 70.35 34.3)" spreadMethod="pad" cx="0" cy="0" r="819.2" fx="0" fy="0"><stop offset=".204" stop-color="#fff" stop-opacity=".78"/><stop offset=".988" stop-color="#fff" stop-opacity="0"/></radialGradient><path d="M70.25 31.8q.25 0 .45.75l.25 1.7-.15 1.85-.4.7-.4-.7-.2-1.8.1-1.75q.15-.75.35-.75" fill="url(#d)"/><radialGradient id="e" gradientUnits="userSpaceOnUse" gradientTransform="matrix(.00085 -.00003 .00003 .0009 70.4 37.25)" spreadMethod="pad" cx="0" cy="0" r="819.2" fx="0" fy="0"><stop offset=".086" stop-color="#fff" stop-opacity=".973"/><stop offset=".988" stop-color="#fff" stop-opacity="0"/></radialGradient><path d="M69.7 37.25q-.05-.3.15-.5l.5-.2.5.2.25.45-.2.55-.5.25-.5-.25-.2-.5" fill="url(#e)"/><radialGradient id="f" gradientUnits="userSpaceOnUse" gradientTransform="matrix(.0058 -.00018 .00018 .00597 72.8 38.3)" spreadMethod="pad" cx="0" cy="0" r="819.2" fx="0" fy="0"><stop offset="0" stop-color="#ed9e76" stop-opacity=".553"/><stop offset=".49" stop-color="#f0aa86" stop-opacity=".392"/><stop offset="1" stop-color="#f0aa86" stop-opacity="0"/></radialGradient><path d="M75.1 38.7l-.85-1.05Q73.1 36 72.5 35.9l.05.35q-.15-.2-.15-.6l.85.5 1.15.9q.75.5 1.35 2.1l-.65-.45" fill="url(#f)"/><radialGradient id="g" gradientUnits="userSpaceOnUse" gradientTransform="matrix(.00166 -.00131 .00241 .0032 73.3 37.1)" spreadMethod="pad" cx="0" cy="0" r="819.2" fx="0" fy="0"><stop offset="0" stop-color="#db7c5e" stop-opacity=".8"/><stop offset="1" stop-color="#ffdec2" stop-opacity="0"/></radialGradient><path d="M75.75 39.15Q74.5 38.75 74 38l-.75-.85-.25.05v-.35l-.45-.6-.05-.35q.6.1 1.75 1.75l.85 1.05.65.45" fill="url(#g)"/><radialGradient id="h" gradientUnits="userSpaceOnUse" gradientTransform="matrix(.00082 .00139 -.00331 .0021 67.05 37.35)" spreadMethod="pad" cx="0" cy="0" r="819.2" fx="0" fy="0"><stop offset="0" stop-color="#db7c5e" stop-opacity=".8"/><stop offset="1" stop-color="#ffdec2" stop-opacity="0"/></radialGradient><path d="M67.75 36.55l-.25.75-.1.05-.2.1-.35.4-.7.45-1.3 1.2q.25-.65 1.45-1.65.8-1.1 1.45-1.3" fill="url(#h)"/><radialGradient id="i" gradientUnits="userSpaceOnUse" gradientTransform="matrix(.00623 -.0002 .0002 .0064 67.9 38.2)" spreadMethod="pad" cx="0" cy="0" r="819.2" fx="0" fy="0"><stop offset="0" stop-color="#ed9e76" stop-opacity=".553"/><stop offset=".49" stop-color="#f0aa86" stop-opacity=".392"/><stop offset="1" stop-color="#f0aa86" stop-opacity="0"/></radialGradient><path d="M66.3 37.85q-1.2 1-1.45 1.65l-.45.2q-.05-.55 1.15-1.7 1.15-1.2 1.45-1.4l.65-.3.3-.15.2-.1-.2.35-.2.15q-.65.2-1.45 1.3" fill="url(#i)"/></g></svg>