<svg xmlns="http://www.w3.org/2000/svg" width="7" height="10"><g transform="translate(3.2 4.55)"><path d="M.55 2.6q0-.7.35-.6l.6.5.05.25-.35.2H.5l.05-.35" fill="#f6c4a6"/><path d="M.85 3.6l-.3.25-.8.35.45-.45q.3-.4.55-.35l.1.2m-3.3.05q-.2-.35.15-.25l.5.35.3.25-.3-.05-.3-.15-.35-.15" fill="#823709"/><radialGradient id="a" gradientUnits="userSpaceOnUse" gradientTransform="matrix(.00414 .00066 -.0009 .00563 1.4 -1.8)" spreadMethod="pad" cx="0" cy="0" r="819.2" fx="0" fy="0"><stop offset="0" stop-color="#e89679"/><stop offset="1" stop-color="#f3a26e" stop-opacity="0"/></radialGradient><path d="M1 1.1L0-.2l.05-1.4.25-1.95.45-.9.4.5h.55l1.5-.3q-1.4.95-1.9 1.7l-.4.9.1 1.4.4 1.7L1 1.1" fill="url(#a)"/><radialGradient id="b" gradientUnits="userSpaceOnUse" gradientTransform="matrix(.00478 -.00052 .0007 .0064 -.85 2.65)" spreadMethod="pad" cx="0" cy="0" r="819.2" fx="0" fy="0"><stop offset=".118" stop-color="#e89679"/><stop offset="1" stop-color="#f3a26e" stop-opacity="0"/></radialGradient><path d="M0-.2l1 1.3.4.35.25 1.1.05.2q0 .85-.3 1.05l-.6.3q-.2.05-.45.2L0 4.5l-1.2-.05V4.4l-.3-.2-.3-.1-.2.05h-.2q-.3.15-.65-.25l-.35-.5v-.15q.2-.35.6-.35l.6.35.8.4h.15l.75-.25.05-.05.2-.2.1-.6-.05-.2V-.2m.75 3.6Q.5 3.35.2 3.75l-.45.45.8-.35.3-.25-.1-.2M.5 2.95h.7l.35-.2-.05-.25L.9 2q-.35-.1-.35.6l-.05.35m-2.6.85l.3.15.3.05-.3-.25-.5-.35q-.35-.1-.15.25l.35.15" fill="url(#b)"/><radialGradient id="c" gradientUnits="userSpaceOnUse" gradientTransform="matrix(.00064 .00006 -.00012 .00365 -.8 .35)" spreadMethod="pad" cx="0" cy="0" r="819.2" fx="0" fy="0"><stop offset=".314" stop-color="#fff" stop-opacity=".8"/><stop offset="1" stop-color="#fff" stop-opacity="0"/></radialGradient><path d="M-.75-2.55q.25.05.4.9L-.25.4l-.25 2-.1.4v.05l-.3.35-.2-.35V2.7l-.15-.4-.05-2 .2-2.05.35-.8" fill="url(#c)"/><radialGradient id="d" gradientUnits="userSpaceOnUse" gradientTransform="matrix(.00282 .00023 -.00047 .0056 -.85 -.65)" spreadMethod="pad" cx="0" cy="0" r="819.2" fx="210473" fy="0"><stop offset=".337" stop-color="#f9c29f"/><stop offset="1" stop-color="#fedec1" stop-opacity="0"/></radialGradient><path d="M-1.45-.35L-1.5 1.7q0 .7-.3 1.05l-.15.4-.15-.45-.05-.45q-.1-.35-.45-.3l.05-.15q.65-3.3.3-6.35.4.25.7.9l.25 1.3-.15 2" fill="url(#d)"/></g></svg>