<svg xmlns="http://www.w3.org/2000/svg" width="5" height="10"><g transform="translate(-67.85 -30.5)"><radialGradient id="a" gradientUnits="userSpaceOnUse" gradientTransform="matrix(.00658 .00172 -.0023 .00842 68.1 38.65)" spreadMethod="pad" cx="0" cy="0" r="819.2" fx="0" fy="0"><stop offset="0" stop-color="#e6835c" stop-opacity=".722"/><stop offset=".227" stop-color="#ed9e76" stop-opacity=".553"/><stop offset=".694" stop-color="#f0aa86" stop-opacity=".392"/><stop offset=".894" stop-color="#f0aa86" stop-opacity="0"/></radialGradient><path d="M72.1 36.5l-.25-.5v-.15l.15.3.3.25.3.7-.25.65-.65.4-.4.05-.4.1-.3.1-.45.1v-.05l-1.6-.4q-.75-.3-.7-.75 0-.45.15-.7l.2-.5.3-.9.3-.95.1.2.15.15v.7l-.25 1.1q-.1.55.3.8l.95.4.85-.15q.4-.3.6-.3l.35.1.25.05.15-.3-.15-.5" fill="url(#a)"/><path d="M71.75 37.45l.1.1v.1l-.1.1-.35.1-.65.25.15-.5q.15-.25.45-.25h.3l.1.1m-3.2.1l.05-.2.25-.05.5.25.35.55-.45-.1-.55-.2-.05-.05-.1-.2" fill="#823909"/><radialGradient id="b" gradientUnits="userSpaceOnUse" gradientTransform="matrix(.00537 -.00143 .00142 .00528 68.7 31.05)" spreadMethod="pad" cx="0" cy="0" r="819.2" fx="210209" fy="0"><stop offset=".055" stop-color="#e69370"/><stop offset=".988" stop-color="#e69370" stop-opacity="0"/></radialGradient><path d="M69.2 33.1l.05 1.9q-.05.55-.25.45h-.05l-.15-.35-.05.25q-.15 1.15 0-.4v-.5q-.1-2.25-.4-3.1-.3-.75-.25-.85.95.3 1.05.8l.05 1.8" fill="url(#b)"/><radialGradient id="c" gradientUnits="userSpaceOnUse" gradientTransform="matrix(.00089 .00005 -.00005 .00087 70.05 36.35)" spreadMethod="pad" cx="0" cy="0" r="819.2" fx="0" fy="0"><stop offset="0" stop-color="#fff" stop-opacity=".973"/><stop offset="1" stop-color="#fff" stop-opacity="0"/></radialGradient><path d="M69.55 36.35l.2-.35q.25-.25.45-.2l.3.25.15.35-.15.3-.4.15-.3-.1-.25-.4" fill="url(#c)"/><radialGradient id="d" gradientUnits="userSpaceOnUse" gradientTransform="matrix(-.00085 .0005 -.0001 .00366 70.2 33.1)" spreadMethod="pad" cx="0" cy="0" r="819.2" fx="0" fy="0"><stop offset="0" stop-color="#fff" stop-opacity=".573"/><stop offset="1" stop-color="#fff" stop-opacity="0"/></radialGradient><path d="M70.15 30.8l.45 1.65.15 1.2q.15 1.25-.05 1.6-.2.3-.55-.25l-.2-.45-.25-1.7.4-2.05h.05" fill="url(#d)"/><radialGradient id="e" gradientUnits="userSpaceOnUse" gradientTransform="matrix(.00145 -.00006 .00006 .00143 70.25 38.1)" spreadMethod="pad" cx="0" cy="0" r="819.2" fx="0" fy="0"><stop offset="0" stop-color="#e6835c" stop-opacity=".722"/><stop offset=".227" stop-color="#ed9e76" stop-opacity=".553"/><stop offset=".694" stop-color="#f0aa86" stop-opacity=".392"/></radialGradient><path d="M70.45 38.4l.05.75.05.25-.15.2-.3.2-.2-.05-.15-.15h-.05l.15-.4.1-.6-.1-.25q-.05-.15.2 0l.4.05" fill="url(#e)"/><radialGradient id="f" gradientUnits="userSpaceOnUse" gradientTransform="matrix(.00047 .00128 -.0013 .00047 72.2 36.75)" spreadMethod="pad" cx="0" cy="0" r="819.2" fx="0" fy="0"><stop offset="0" stop-color="#fff" stop-opacity=".471"/><stop offset="1" stop-color="#fff" stop-opacity="0"/></radialGradient><path d="M71.75 37.3l-.1-.7-.55-.7.2-.05.7.55q.3.6-.25.9" fill="url(#f)"/></g></svg>