<svg xmlns="http://www.w3.org/2000/svg" width="6" height="9"><g transform="translate(2.6 4.1)"><path d="M-1.5 2.1l.2.35-.1.4-.25.15-.4.2-.1.15v-.3l.25-.65.4-.3" fill="#f6bfa1"/><path d="M-2.1 1.75l.05-.1v.1h-.05" fill="#de8254"/><radialGradient id="a" gradientUnits="userSpaceOnUse" gradientTransform="matrix(.00595 -.00023 .00032 .00916 .75 .3)" spreadMethod="pad" cx="0" cy="0" r="819.2" fx="0" fy="0"><stop offset=".165" stop-color="#f58b69" stop-opacity=".243"/><stop offset="1" stop-color="#ffdec2" stop-opacity="0"/></radialGradient><path d="M1.7 1.05v-.1l.2.9.5.8.05.4Q1.95 2 1.65 2l-.3.05-.05.7-.1.1L.65 2l-.1-.95H1.7" fill="url(#a)"/><radialGradient id="b" gradientUnits="userSpaceOnUse" gradientTransform="matrix(.00818 -.00027 .00035 .01007 0 2.2)" spreadMethod="pad" cx="0" cy="0" r="819.2" fx="0" fy="0"><stop offset=".008" stop-color="#d96540" stop-opacity=".722"/><stop offset=".196" stop-color="#ed7940" stop-opacity=".553"/><stop offset=".569" stop-color="#f0aa86" stop-opacity=".192"/><stop offset="1" stop-color="#f0aa86" stop-opacity="0"/></radialGradient><path d="M-1.75 1.05H-.6l-.05.85-.1.8.05.5.1.1.6.25.6-.25.65-.4h.25q.4.1.65.4l.1.4-.4.2-1.25.05L.5 4l-.55.15-.55-.1L-.75 4H-.8l-.35-.1h-.1l-1-.3-.2-.45.05-.4.25-.7.1-.3v-.1l.3-.7v.1M-1.9 2.4l-.25.65v.3l.1-.15.4-.2.25-.15.1-.4-.2-.35-.4.3" fill="url(#b)"/><radialGradient id="c" gradientUnits="userSpaceOnUse" gradientTransform="matrix(.00058 -.00003 .0001 .00252 -.05 .45)" spreadMethod="pad" cx="0" cy="0" r="819.2" fx="0" fy="0"><stop offset=".314" stop-color="#fff" stop-opacity=".533"/><stop offset="1" stop-color="#fff" stop-opacity="0"/></radialGradient><path d="M.25 1.05l-.05.8-.15.6-.25-.6-.1-.8h.55" fill="url(#c)"/><radialGradient id="d" gradientUnits="userSpaceOnUse" gradientTransform="matrix(.00595 -.00034 .00032 .01352 .75 .05)" spreadMethod="pad" cx="0" cy="0" r="819.2" fx="0" fy="0"><stop offset=".165" stop-color="#f58b69" stop-opacity=".243"/><stop offset="1" stop-color="#ffdec2" stop-opacity="0"/></radialGradient><path d="M1.55-.15L1.6.2l.1.75v.1H.55l-.1-1.2h1.1" fill="url(#d)"/><radialGradient id="e" gradientUnits="userSpaceOnUse" gradientTransform="matrix(.00818 -.00041 .00035 .01488 0 2.85)" spreadMethod="pad" cx="0" cy="0" r="819.2" fx="0" fy="0"><stop offset=".008" stop-color="#d96540" stop-opacity=".722"/><stop offset=".196" stop-color="#ed7940" stop-opacity=".553"/><stop offset=".569" stop-color="#f0aa86" stop-opacity=".192"/><stop offset="1" stop-color="#f0aa86" stop-opacity="0"/></radialGradient><path d="M-.6-.15V1.05h-1.15v-.1l.2-.7.1-.4h.85" fill="url(#e)"/><radialGradient id="f" gradientUnits="userSpaceOnUse" gradientTransform="matrix(.00058 -.00005 .0001 .00372 -.05 .3)" spreadMethod="pad" cx="0" cy="0" r="819.2" fx="0" fy="0"><stop offset=".314" stop-color="#fff" stop-opacity=".533"/><stop offset="1" stop-color="#fff" stop-opacity="0"/></radialGradient><path d="M-.3 1.05v-.1l-.05-.7v-.4h.6v1.2H-.3" fill="url(#f)"/><radialGradient id="g" gradientUnits="userSpaceOnUse" gradientTransform="matrix(.00595 -.00027 .00032 .01102 .75 0)" spreadMethod="pad" cx="0" cy="0" r="819.2" fx="0" fy="0"><stop offset=".165" stop-color="#f58b69" stop-opacity=".243"/><stop offset="1" stop-color="#ffdec2" stop-opacity="0"/></radialGradient><path d="M1.3-1.8l.25 1.65H.45L.4-.85.35-1.8h.95" fill="url(#g)"/><radialGradient id="h" gradientUnits="userSpaceOnUse" gradientTransform="matrix(.00595 -.00018 .00032 .00746 .75 -.55)" spreadMethod="pad" cx="0" cy="0" r="819.2" fx="0" fy="0"><stop offset=".165" stop-color="#f58b69" stop-opacity=".243"/><stop offset="1" stop-color="#ffdec2" stop-opacity="0"/></radialGradient><path d="M.35-1.8l.1-1.6q.1-1.3.75.6l.1 1H.35" fill="url(#h)"/><radialGradient id="i" gradientUnits="userSpaceOnUse" gradientTransform="matrix(.00818 -.00023 .00035 .0082 0 1)" spreadMethod="pad" cx="0" cy="0" r="819.2" fx="0" fy="0"><stop offset=".008" stop-color="#d96540" stop-opacity=".722"/><stop offset=".196" stop-color="#ed7940" stop-opacity=".553"/><stop offset=".569" stop-color="#f0aa86" stop-opacity=".192"/><stop offset="1" stop-color="#f0aa86" stop-opacity="0"/></radialGradient><path d="M-1.4-1.8l-.1-1.35.45-.6.35-.35.25.3q.2.55.1 1.3l-.1.7h-.95" fill="url(#i)"/><radialGradient id="j" gradientUnits="userSpaceOnUse" gradientTransform="matrix(.00818 -.00034 .00035 .01212 0 2.3)" spreadMethod="pad" cx="0" cy="0" r="819.2" fx="0" fy="0"><stop offset=".008" stop-color="#d96540" stop-opacity=".722"/><stop offset=".196" stop-color="#ed7940" stop-opacity=".553"/><stop offset=".569" stop-color="#f0aa86" stop-opacity=".192"/><stop offset="1" stop-color="#f0aa86" stop-opacity="0"/></radialGradient><path d="M-1.45-.15l.1-.75q.05-.45-.05-.8v-.1h.95l-.05.25-.1 1.4h-.85" fill="url(#j)"/><radialGradient id="k" gradientUnits="userSpaceOnUse" gradientTransform="matrix(.00058 -.00003 .0001 .00304 -.05 .2)" spreadMethod="pad" cx="0" cy="0" r="819.2" fx="0" fy="0"><stop offset=".314" stop-color="#fff" stop-opacity=".533"/><stop offset="1" stop-color="#fff" stop-opacity="0"/></radialGradient><path d="M-.35-.15l.05-1.4.05-.25h.3l.05.25.15 1.4h-.6" fill="url(#k)"/><radialGradient id="l" gradientUnits="userSpaceOnUse" gradientTransform="matrix(.00058 -.00003 .0001 .00204 -.05 -.45)" spreadMethod="pad" cx="0" cy="0" r="819.2" fx="0" fy="0"><stop offset=".314" stop-color="#fff" stop-opacity=".533"/><stop offset="1" stop-color="#fff" stop-opacity="0"/></radialGradient><path d="M-.25-1.8l.15-.3.15.3h-.3" fill="url(#l)"/><radialGradient id="m" gradientUnits="userSpaceOnUse" gradientTransform="matrix(.00356 0 0 .00356 -.7 2.45)" spreadMethod="pad" cx="0" cy="0" r="819.2" fx="0" fy="0"><stop offset="0" stop-color="#de8254"/><stop offset="1" stop-color="#de8254" stop-opacity="0"/></radialGradient><path d="M-2.15 2.05l-.25.7-.05.4.2.45 1 .3h.1l.35.1-.5-.05h-.25l-.75-.25-.3-.5.05-.35.3-.8.15-.3h.05l-.1.3" fill="url(#m)"/><path d="M-1 3.7l-.15-.1-.2-.1-.4-.15.2-.15q.3 0 .55.25l.35.25H-1m2.2-.2l-.6.1.4-.3q.2-.2.35-.1l.25.1-.05.2H1.2" fill="#823709"/><radialGradient id="n" gradientUnits="userSpaceOnUse" gradientTransform="matrix(.00076 -.00003 .00003 .00072 .1 2.75)" spreadMethod="pad" cx="0" cy="0" r="819.2" fx="0" fy="0"><stop offset=".188" stop-color="#fff" stop-opacity=".714"/><stop offset="1" stop-color="#fff" stop-opacity="0"/></radialGradient><path d="M.5 3.15l-.4.15-.45-.15-.15-.35.15-.4.45-.2.4.15.15.4-.15.4" fill="url(#n)"/><radialGradient id="o" gradientUnits="userSpaceOnUse" gradientTransform="matrix(.00455 -.00006 .00006 .0043 4.5 5.35)" spreadMethod="pad" cx="0" cy="0" r="819.2" fx="0" fy="0"><stop offset="0" stop-color="#de8254"/><stop offset="1" stop-color="#de8254" stop-opacity="0"/></radialGradient><path d="M2.2 3.7l-1.5.2L2 3.45q.45-.45.05-1.6l-.15-.3q.65 1.05.7 1.65l-.4.5" fill="url(#o)"/></g></svg>