<svg xmlns="http://www.w3.org/2000/svg" width="8" height="10"><g transform="translate(3.65 4.7)"><radialGradient id="a" gradientUnits="userSpaceOnUse" gradientTransform="translate(1.2 -1.2) scale(.00665)" spreadMethod="pad" cx="0" cy="0" r="819.2" fx="0" fy="0"><stop offset="0" stop-color="#f58b69" stop-opacity=".243"/><stop offset="1" stop-color="#ffdec2" stop-opacity="0"/></radialGradient><path d="M2.85-4.2l.8-.25Q1.7-3.25 2.2-1.5L2.9.85q.15.55-.15.7-.3.15-.6.85L1.7-.7l-.15-1.5-.05-1.15q0-.35.35-.5l1-.35" fill="url(#a)"/><radialGradient id="b" gradientUnits="userSpaceOnUse" gradientTransform="translate(.8 3.7) scale(.0116)" spreadMethod="pad" cx="0" cy="0" r="819.2" fx="0" fy="0"><stop offset="0" stop-color="#e37f5a" stop-opacity=".643"/><stop offset=".204" stop-color="#ed9e76" stop-opacity=".463"/><stop offset=".616" stop-color="#f0aa86" stop-opacity=".161"/><stop offset=".894" stop-color="#f0aa86" stop-opacity="0"/></radialGradient><path d="M.5-3.25Q.1-1.1.15-.35L0 1.15-.25 2.2l.4 1q.45.7.85.7l.85-.35q.5-.35 1.2-.55.75-.25.25.4l-.6.55-.5.1q-.4.1-.65.3l-.35.25-.35.1-.05.05-.15-.05-.35-.2-.65-.45-.65-.1-.6-.2q-.35-.25-.3-.7l.55-2.2q.55-1.7.55-2.3l-.25-.85-.6-.85-1.2-1.25 1.3-.3q.6 0 1.25.5l.8.95m-1.85 5.6l-.25.85.9-.3-.05-.4q-.15-.35-.35-.35l-.25.2" fill="url(#b)"/><path d="M-1.1 2.15q.2 0 .35.35l.05.4-.9.3.25-.85.25-.2" fill="#f5b895" fill-opacity=".4"/><path d="M2.4 3.9l-.75.15.75-.55.35.1-.35.3m-3.1-.1H-1l-.2-.2q0-.15.3-.15l.55.25.25.25-.6-.15" fill="#823709"/><radialGradient id="c" gradientUnits="userSpaceOnUse" gradientTransform="matrix(.0011 0 0 .00507 1.3 -.2)" spreadMethod="pad" cx="0" cy="0" r="819.2" fx="0" fy="0"><stop offset="0" stop-color="#fff" stop-opacity=".733"/><stop offset="1" stop-color="#fff" stop-opacity="0"/></radialGradient><path d="M1.65 1.9l-.35.85q-.25 0-.35-.85Q.8 1 .8-.2q0-1.25.15-2.1.1-.9.35-.85l.35.85.1 2.1-.1 2.1" fill="url(#c)"/><radialGradient id="d" gradientUnits="userSpaceOnUse" gradientTransform="matrix(-.00574 -.00066 -.00084 .00832 .75 -4.35)" spreadMethod="pad" cx="0" cy="0" r="819.2" fx="0" fy="0"><stop offset="0" stop-color="#f58b69" stop-opacity=".812"/><stop offset="1" stop-color="#ffdec2" stop-opacity="0"/></radialGradient><path d="M.15-3.05l.2.45L0-.7.1.5l-.5 1.85Q-.15.15-.75-1L-1.8-2.85l-1.85-1.7.5.1 1.25.2 1.35.55.7.65" fill="url(#d)"/><radialGradient id="e" gradientUnits="userSpaceOnUse" gradientTransform="translate(1.3 2.5) scale(.0009)" spreadMethod="pad" cx="0" cy="0" r="819.2" fx="0" fy="0"><stop offset=".149" stop-color="#fff" stop-opacity=".871"/><stop offset="1" stop-color="#fff" stop-opacity="0"/></radialGradient><path d="M.8 1.95l.5-.2.5.2.25.55-.25.5q-.2.2-.5.2L.8 3l-.2-.5.2-.55" fill="url(#e)"/></g></svg>