<svg xmlns="http://www.w3.org/2000/svg" width="6" height="10"><g transform="translate(-67.1 -30.85)"><radialGradient id="a" gradientUnits="userSpaceOnUse" gradientTransform="matrix(.00146 .00002 -.00002 .00146 70.35 38.85)" spreadMethod="pad" cx="0" cy="0" r="819.2" fx="0" fy="0"><stop offset="0" stop-color="#e07849" stop-opacity=".6"/><stop offset="1" stop-color="#ffdec2" stop-opacity="0"/></radialGradient><path d="M70.15 38.8l.15-.05h.2l.15.35.1.4-.1.4-.25.25-.35-.25-.15-.35.1-.25.15-.35v-.15" fill="url(#a)"/><radialGradient id="b" gradientUnits="userSpaceOnUse" gradientTransform="matrix(.00845 .00327 -.00423 .011 68.55 38.05)" spreadMethod="pad" cx="0" cy="0" r="819.2" fx="0" fy="0"><stop offset="0" stop-color="#e6835c" stop-opacity=".722"/><stop offset=".227" stop-color="#ed9e76" stop-opacity=".553"/><stop offset=".694" stop-color="#f0aa86" stop-opacity=".392"/><stop offset=".894" stop-color="#f0aa86" stop-opacity="0"/></radialGradient><path d="M69.15 31.35l.4 1.35-.1 1-.15 1.45-.35 2q0 .45.4.75l.65.2H70.6l.8-.25.65-.25.45-.3.05.1.15.45-.45.55-.7.2-1.05.2.1-.1-.25.1q-.2 0-.45-.2l-.45-.1-.6-.05-.4.05q-.5 0-.75-.55l-.05-.3.1-.35.2-.55.45-.95q.4-1 .4-2v-1.25l-.3-.55-.3-.25h-.05q-.25-.55-1.05-.75h.25l.2-.15h.35l.3.25.05.05.05.05q.1-.2.4-.15l.45.3" fill="url(#b)"/><path d="M71.4 38.15h.3l.2.05v.2l-.75.25-.6.2.4-.4q.25-.3.45-.3m-2.35 0l.9.5-1.05-.05-.35-.25v-.1l.15-.15.35.05" fill="#823909"/><radialGradient id="c" gradientUnits="userSpaceOnUse" gradientTransform="matrix(.0009 .00015 -.00015 .00105 70.35 37)" spreadMethod="pad" cx="0" cy="0" r="819.2" fx="0" fy="0"><stop offset="0" stop-color="#fff" stop-opacity=".973"/><stop offset="1" stop-color="#fff" stop-opacity="0"/></radialGradient><path d="M69.85 36.85q0-.2.25-.35l.45-.2.3.4.1.4-.2.35-.5.15-.25-.2-.15-.55" fill="url(#c)"/><radialGradient id="d" gradientUnits="userSpaceOnUse" gradientTransform="matrix(-.0009 .0005 -.00047 .00517 70.35 33.7)" spreadMethod="pad" cx="0" cy="0" r="819.2" fx="0" fy="0"><stop offset="0" stop-color="#fff" stop-opacity=".471"/><stop offset="1" stop-color="#fff" stop-opacity="0"/></radialGradient><path d="M70.55 31.55l.25 1.3.05 1.8-.3 1.3q-.25.65-.45.35l-.25-1.3q-.05-1 .05-1.8l.3-1.35q.15-.5.35-.3" fill="url(#d)"/><radialGradient id="e" gradientUnits="userSpaceOnUse" gradientTransform="matrix(.00108 .00127 -.00127 .00108 72.6 36.6)" spreadMethod="pad" cx="0" cy="0" r="819.2" fx="0" fy="0"><stop offset="0" stop-color="#fff" stop-opacity=".471"/><stop offset="1" stop-color="#fff" stop-opacity="0"/></radialGradient><path d="M71.25 36l1.1.3q.45.55.05 1.1l-.45-.75q-.35-.45-.9-.5l.2-.15" fill="url(#e)"/><radialGradient id="f" gradientUnits="userSpaceOnUse" gradientTransform="matrix(.0077 -.00157 .00157 .0077 69.75 32.15)" spreadMethod="pad" cx="0" cy="0" r="819.2" fx="54" fy="0"><stop offset=".055" stop-color="#e69370"/><stop offset=".988" stop-color="#ffefea" stop-opacity="0"/></radialGradient><path d="M68.1 31.8l-.7-.7q1-.1 1.4.45.35.5.35 1.35l-.25 2q-.2 1.2-.55 1.55l-.05.05v-.3l.2-1.25.25-1.6q.05-.6-.65-1.55" fill="url(#f)"/></g></svg>