<svg xmlns="http://www.w3.org/2000/svg" width="6" height="10"><path d="M5.55 7.5l-.05.45-.85-.15v-.15q.05-1.1.35-1.1.55 0 .55.95" fill="#fbc6a8"/><radialGradient id="a" gradientUnits="userSpaceOnUse" gradientTransform="matrix(.00531 0 0 .00781 2.6 4.5)" spreadMethod="pad" cx="0" cy="0" r="819.2" fx="0" fy="0"><stop offset=".102" stop-color="#f58b69" stop-opacity=".243"/><stop offset="1" stop-color="#ffdec2" stop-opacity="0"/></radialGradient><path d="M.2 7.4q0-.25.55-1l.05-.1.85-2.35.2-.85q.05-.5-.3-1.15l-.7-1L.3.6.6.45q.3-.35.6-.2l.55.4.5 1.1q.3.95.1 2.25L2.1 5.8l-.1.75.05.65q.1.45.95.9l-.3-.05L2.2 8l-.75-.35L1.1 6.6l-.45.25-.2.75.05.2-.3.2v-.6" fill="url(#a)"/><radialGradient id="b" gradientUnits="userSpaceOnUse" gradientTransform="matrix(.0071 0 0 .00885 3.4 5.95)" spreadMethod="pad" cx="0" cy="0" r="819.2" fx="0" fy="0"><stop offset=".067" stop-color="#f58b69" stop-opacity=".243"/><stop offset="1" stop-color="#ffdec2" stop-opacity="0"/></radialGradient><path d="M1.45 7.65l-.2-.05-.6.05-.15.15-.05-.2.2-.75.45-.25.35 1.05" fill="url(#b)"/><radialGradient id="c" gradientUnits="userSpaceOnUse" gradientTransform="matrix(.00952 0 0 .00977 3 7.95)" spreadMethod="pad" cx="0" cy="0" r="819.2" fx="0" fy="0"><stop offset=".145" stop-color="#ed9e76" stop-opacity=".69"/><stop offset=".694" stop-color="#f0aa86" stop-opacity=".29"/><stop offset="1" stop-color="#f0aa86" stop-opacity="0"/></radialGradient><path d="M5.4 8.5l-.2.05-.85.1q-.4.15-.65.4l-.6.2q-.35 0-.55-.2Q2.3 8.8 2 8.7l-.6-.1-.45-.05Q.7 8.5.4 8.3l-.1-.1L.2 8l.3-.2.15-.15.6-.05.2.05.75.35.5.05.3.05.7-.2.1-.1.45-.7-.05-.4-.35-1.95-.3-1.1-.25-1.7q-.1-.9.6-1.45l.5-.25L5.95 0Q4.3 2 4.2 3.1q.05 1.15 1.05 3.15l.05.05h.05l.1.15.2.25.25.55v.4l-.05.3-.05.15-.4.4M5 6.55q-.3 0-.35 1.1v.15l.85.15.05-.45q0-.95-.55-.95" fill="url(#c)"/><radialGradient id="d" gradientUnits="userSpaceOnUse" gradientTransform="matrix(.00616 0 0 .00294 3.15 6.95)" spreadMethod="pad" cx="0" cy="0" r="819.2" fx="0" fy="0"><stop offset=".161" stop-color="#cf7052" stop-opacity=".812"/><stop offset=".627" stop-color="#ed9e76" stop-opacity=".702"/><stop offset=".898" stop-color="#f0aa86" stop-opacity=".392"/></radialGradient><path d="M.2 8l.1.2.1.1q.3.2.55.25l.45.05.6.1q.3.1.55.35.2.2.55.2l.6-.2q.25-.25.65-.4l.85-.1.2-.05.4-.4.05.05q-.05.8-.9.8-.95 0-1.3.3l-.3.25-.3.05-.75-.15q-.35-.25-.85-.35L.4 8.7Q0 8.4 0 7.6l.2-.2V8" fill="url(#d)"/><radialGradient id="e" gradientUnits="userSpaceOnUse" gradientTransform="matrix(.00069 0 0 .00331 3.05 4.1)" spreadMethod="pad" cx="0" cy="0" r="819.2" fx="0" fy="0"><stop offset=".204" stop-color="#fff" stop-opacity=".78"/><stop offset=".988" stop-color="#fff" stop-opacity="0"/></radialGradient><path d="M3.45 2.25l.2 1.85-.2 1.85q-.15.8-.4.8t-.45-.8L2.4 4.1l.2-1.85q.2-.8.45-.8l.4.8" fill="url(#e)"/><radialGradient id="f" gradientUnits="userSpaceOnUse" gradientTransform="matrix(.00108 0 0 .00104 3.15 6.95)" spreadMethod="pad" cx="0" cy="0" r="819.2" fx="0" fy="0"><stop offset=".204" stop-color="#fff" stop-opacity=".78"/><stop offset=".988" stop-color="#fff" stop-opacity="0"/></radialGradient><path d="M3.15 7.8l-.65-.25q-.3-.25-.3-.6t.3-.6q.25-.25.65-.25l.6.25.3.6-.3.6-.6.25" fill="url(#f)"/><path d="M2.55 8.9l-.25-.15-1.4-.4q.75-.2 1.15 0l.5.55M4 8.8q-.05-.45.8-.55l.6.2-1.05.2L4 8.8" fill="#823709"/></svg>