<svg xmlns="http://www.w3.org/2000/svg" width="6" height="10"><path d="M3.95 6.3l.2.15.4.9v.4l-.25.05q-.4 0-.45-.35-.05-.25.05-.55l.05-.6" fill="#fbc6a8"/><radialGradient id="a" gradientUnits="userSpaceOnUse" gradientTransform="matrix(.00917 -.001 .00116 .01057 1.65 5.7)" spreadMethod="pad" cx="0" cy="0" r="819.2" fx="0" fy="0"><stop offset=".235" stop-color="#f58b69" stop-opacity=".243"/><stop offset="1" stop-color="#ffdec2" stop-opacity="0"/></radialGradient><path d="M.2 7.1l.05-.2.15-.65.4-2.15Q1.05 2.7.3.75L1.4 1.8l.35 1.15L1.7 4.4q-.1.8-.05 1.7l.15 1.65-.3-.1h-.2l-.05-.1L1.2 7l-.1-.6-.2.2q-.3.4-.35.9l-.05.15.05.25-.4.35L.2 7.1" fill="url(#a)"/><radialGradient id="b" gradientUnits="userSpaceOnUse" gradientTransform="matrix(.00447 -.00049 .00049 .00447 3.1 7.9)" spreadMethod="pad" cx="0" cy="0" r="819.2" fx="0" fy="0"><stop offset=".161" stop-color="#cf7052" stop-opacity=".812"/><stop offset=".627" stop-color="#ed9e76" stop-opacity=".702"/><stop offset=".898" stop-color="#f0aa86" stop-opacity=".392"/></radialGradient><path d="M.15 8.25q.05.5.45.65l1.25.25H3.7l.45-.2.5-.45.15-.65q.15 1.2-.2 1.4l-.5.2-.35-.1-.55.15-.7-.05-1.15-.1q-.9 0-1.1-.35L0 8.2l.2-1.1-.05 1.15" fill="url(#b)"/><radialGradient id="c" gradientUnits="userSpaceOnUse" gradientTransform="matrix(.01 -.0011 .0011 .01 5.95 8.5)" spreadMethod="pad" cx="0" cy="0" r="819.2" fx="210450" fy="0"><stop offset="0" stop-color="#e67d5c" stop-opacity=".792"/><stop offset=".337" stop-color="#ed9e76" stop-opacity=".69"/><stop offset=".792" stop-color="#f0aa86" stop-opacity=".392"/><stop offset="1" stop-color="#f0aa86" stop-opacity="0"/></radialGradient><path d="M4.65 8.5l-.5.45-.45.2H1.85L.6 8.9q-.4-.15-.45-.65l.4-.35.05-.05.5-.2h.4l.3.1.15.05.85.15.65-.15q.3-.3.1-1.45L3.5 5.9l-.1-1.45-.05-1.8q.05-.6.4-1.15Q4 .95 5.55 0 4.7 1.6 4.4 2.5q-.3.95-.2 1.85l.15 1.5.3 1.25.1.3v.2l.05.15v.1l-.15.65M3.9 6.9q-.1.3-.05.55.05.35.45.35l.25-.05v-.4l-.4-.9-.2-.15-.05.6" fill="url(#c)"/><path d="M1.3 8.3l.45.1.3.25-.4.05-.3.1-.2-.05-.1-.2q0-.2.25-.25m2.8.25l-.3.2h-.3l-.25-.25q.15-.2.5-.15l.35.2" fill="#823709"/><radialGradient id="d" gradientUnits="userSpaceOnUse" gradientTransform="matrix(.00067 -.00005 .0002 .00298 2.4 4.5)" spreadMethod="pad" cx="0" cy="0" r="819.2" fx="0" fy="0"><stop offset=".204" stop-color="#fff" stop-opacity=".78"/><stop offset=".988" stop-color="#fff" stop-opacity="0"/></radialGradient><path d="M2.7 2.8L3 4.45l-.1 1.7-.35.75-.5-.7q-.2-.65-.25-1.65-.05-1 .05-1.7.15-.7.4-.7.25-.05.45.65" fill="url(#d)"/><radialGradient id="e" gradientUnits="userSpaceOnUse" gradientTransform="translate(2.5 7.1) scale(.0009)" spreadMethod="pad" cx="0" cy="0" r="819.2" fx="0" fy="0"><stop offset=".204" stop-color="#fff" stop-opacity=".78"/><stop offset=".988" stop-color="#fff" stop-opacity="0"/></radialGradient><path d="M2.6 7.85l-.6-.2-.25-.45q0-.3.15-.55.25-.25.55-.3l.5.2.3.5-.2.5-.45.3" fill="url(#e)"/></svg>