<svg xmlns="http://www.w3.org/2000/svg" width="6" height="10"><g transform="translate(2.75 4.65)"><path d="M-2.6 3.25q-.1.45.2.5l.55-.05.3-.1.3.05q.2.1.25.15l.3.25.3.3.45.1Q.4 4.45.6 4q.25-.45.75-.45l.6.1.05.05-.25.1-.55.15q-.2 0-.45.35l-.65.35-.75-.25q-.4-.3-.75-.45l-.75-.05-.45-.1-.15-.25.15-.35v-.05.1" fill="#823909" fill-opacity=".753"/><path d="M.15-2.3H.1q-.65 0-.85.5.15-.55-.05-1.05l-.55-.65-.35-.25h-.05l1 .05H.5L1.95-4q-1.2.35-1.4 1.25l-.1.5-.3-.05" fill="#e8ac8b" fill-opacity=".4"/><radialGradient id="a" gradientUnits="userSpaceOnUse" gradientTransform="matrix(.00726 -.00003 .00003 .00768 .7 -2.45)" spreadMethod="pad" cx="0" cy="0" r="819.2" fx="0" fy="0"><stop offset="0" stop-color="#f29860" stop-opacity=".753"/><stop offset="1" stop-color="#f7bc99" stop-opacity=".624"/></radialGradient><path d="M1 3.35l.05-.3-.1-1.6L.6-.65l-.15-1.6.1-.5q.2-.9 1.4-1.25l.8-.25v.4l-.1.1v.1q-1 .4-1.3.75L1-2.15l.1 1.05.15 1.05.45 1.3.5 1.35.1.55-.05.35-.1.2-.25.1-.25-.15-.4-.05-.4.2.15-.45" fill="url(#a)"/><radialGradient id="b" gradientUnits="userSpaceOnUse" gradientTransform="matrix(.00798 -.00005 .00005 .00844 -.15 8.3)" spreadMethod="pad" cx="0" cy="0" r="819.2" fx="0" fy="0"><stop offset="0" stop-color="#f29860" stop-opacity=".753"/><stop offset="1" stop-color="#f7bc99" stop-opacity=".624"/></radialGradient><path d="M1 3.35l-.15.45L.7 4l-.4.35-.35.1-.7-.4q-.5-.35-.75-.35l-.3.05-.5.05q-.35-.1-.3-.7l.15-.85.65-.6-.45.5-.2.8.1.6.35.05.65-.15q.45 0 .8.3L.1 4l.65-.35.25-.3" fill="url(#b)"/><radialGradient id="c" gradientUnits="userSpaceOnUse" gradientTransform="matrix(.00421 -.0008 .00137 .00748 -2.75 -3.1)" spreadMethod="pad" cx="0" cy="0" r="819.2" fx="0" fy="0"><stop offset="0" stop-color="#f29860" stop-opacity=".753"/><stop offset="1" stop-color="#f7ba99" stop-opacity=".141"/></radialGradient><path d="M-.75-1.8L-.85.15l-.15 1V.7q-.4 1.9-.4-.7-.1-2.6-.35-2.85l-.6-.95-.25-.3.6.2.1.1h.1l.05.05h.05l.35.25.55.65q.2.5.05 1.05" fill="url(#c)"/><radialGradient id="d" gradientUnits="userSpaceOnUse" gradientTransform="matrix(.00629 0 0 .00648 .05 1.3)" spreadMethod="pad" cx="0" cy="0" r="819.2" fx="0" fy="0"><stop offset="0" stop-color="#fff" stop-opacity=".6"/><stop offset="1" stop-color="#ffefea" stop-opacity="0"/></radialGradient><path d="M.6-1.9L.45-.7.55.9.75 2l.1 1.15-.3.45-.55.2q-.35.1-.6-.3l-.25-.7.2-.95Q-.5 1.2-.5.25L-.75-1.8l-.3-1.2.15-.5.95-.05q.75.05.7.5L.6-1.9" fill="url(#d)"/><radialGradient id="e" gradientUnits="userSpaceOnUse" gradientTransform="matrix(.00053 -.00058 .00056 .00055 -1.85 2.95)" spreadMethod="pad" cx="0" cy="0" r="819.2" fx="0" fy="0"><stop offset="0" stop-color="#fff" stop-opacity=".58"/><stop offset="1" stop-color="#ffefea" stop-opacity="0"/></radialGradient><path d="M-1.3 2.9l-.2.4-.4.25-.35-.1-.1-.35.2-.4.4-.25.35.1.1.35" fill="url(#e)"/><radialGradient id="f" gradientUnits="userSpaceOnUse" gradientTransform="matrix(.0018 -.00002 .00002 .00185 0 2.95)" spreadMethod="pad" cx="0" cy="0" r="819.2" fx="0" fy="0"><stop offset="0" stop-color="#fff" stop-opacity=".8"/><stop offset="1" stop-color="#ffefea" stop-opacity="0"/></radialGradient><path d="M0 2.05q.5-.05.9.25.35.3.35.65l-.35.6-.9.3-.85-.25-.35-.65.35-.65.85-.25" fill="url(#f)"/><radialGradient id="g" gradientUnits="userSpaceOnUse" gradientTransform="matrix(.00212 -.00002 .00002 .0022 0 -1.6)" spreadMethod="pad" cx="0" cy="0" r="819.2" fx="0" fy="0"><stop offset="0" stop-color="#fff" stop-opacity=".58"/><stop offset="1" stop-color="#ffefea" stop-opacity="0"/></radialGradient><path d="M-.05-4.65q.8-.1.9 1.05L.8-1.7.55-.4.1.2q-.4 0-.4-.75l-.1-1.3-.25-1.65q-.2-1.05.6-1.15" fill="url(#g)"/></g></svg>