<?xml version="1.0" encoding="utf-8"?>
<svg version="1.1" id="Layer_1"
xmlns="http://www.w3.org/2000/svg"
xmlns:xlink="http://www.w3.org/1999/xlink"
xmlns:author="http://www.sothink.com"
width="8px" height="10px"
xml:space="preserve">
<g id="499" transform="matrix(1, 0, 0, 1, 3.75, 4.55)">
<radialGradient
id="RadialGradID_4267" gradientUnits="userSpaceOnUse" gradientTransform="matrix(0.0045166, 0, 0, 0.00643921, -0.85, -0.55)" spreadMethod ="pad" cx="0" cy="0" r="819.2" fx="0" fy="0" >
<stop  offset="0"  style="stop-color:#F58B69;stop-opacity:0.243137" />
<stop  offset="1"  style="stop-color:#FFDEC2;stop-opacity:0" />
</radialGradient>
<path style="fill:url(#RadialGradID_4267) " d="M-1.25,-0.75L-1.3 0.3L-1.3 1.6L-1.3 2.55L-2.2 1.6L-2.6 1.45L-2.35 0.45L-2.3 0.3L-2.05 -1.05Q-2 -1.75 -2.6 -3.75Q-2.2 -3.7 -1.65 -2.75L-1.45 -4.55Q-1.1 -4.25 -1.15 -3L-1.25 -0.75" />
<radialGradient
id="RadialGradID_4268" gradientUnits="userSpaceOnUse" gradientTransform="matrix(0.0134125, 0, 0, 0.0144806, -0.05, 4.1)" spreadMethod ="pad" cx="0" cy="0" r="819.2" fx="210534" fy="0" >
<stop  offset="0"  style="stop-color:#E66030;stop-opacity:0.392157" />
<stop  offset="0.243137"  style="stop-color:#ED9E76;stop-opacity:0.4" />
<stop  offset="0.596078"  style="stop-color:#F0AA86;stop-opacity:0.2" />
<stop  offset="0.894118"  style="stop-color:#F0AA86;stop-opacity:0" />
</radialGradient>
<path style="fill:url(#RadialGradID_4268) " d="M0.5,-3.35Q0.85 -3.75 1.45 -3.95L1.15 -1.9L1.2 -0.3L1.25 0.35L1.65 2.15L2 2.55L2.1 3.25L2.15 3.6Q2.15 4.15 1.55 4.15L0.9 4.15L0.35 4.35L-0.3 4.6L-0.4 4.6L-1.1 4.35L-1.2 4.3L-1.5 4.15L-1.65 4.15L-1.7 4.15L-2.15 4.15L-2.25 4.15L-2.45 4.1L-2.55 4.1Q-2.85 4 -2.8 3.6L-2.8 3.55L-2.7 3.5L-2.25 3.4L-2.1 3.4L-1.9 3.5L-1.5 3.7L-0.9 3.95L-0.25 3.8Q0.05 3.65 0.15 3L0.2 1.6L0.1 0.55L0.1 0.3L-0.1 -2L-0.1 -2.15L-0.1 -2.3L-0.15 -2.4L-0.05 -2.65L0.45 -3.5L0.5 -3.35" />
<radialGradient
id="RadialGradID_4269" gradientUnits="userSpaceOnUse" gradientTransform="matrix(0.000762939, 6.10352e-005, -9.15527e-005, 0.00279236, -0.8, 0)" spreadMethod ="pad" cx="0" cy="0" r="819.2" fx="0" fy="0" >
<stop  offset="0.313725"  style="stop-color:#FFFFFF;stop-opacity:0.431373" />
<stop  offset="1"  style="stop-color:#FFFFFF;stop-opacity:0" />
</radialGradient>
<path style="fill:url(#RadialGradID_4269) " d="M-0.75,-2.2Q-0.55 -2.2 -0.45 -1.55L-0.35 0.05L-0.55 1.65L-0.6 2.05L-0.65 2.1L-0.9 2.3L-1.05 2.05L-1.05 2L-1.2 1.6L-1.25 0L-1.05 -1.6L-0.75 -2.2" />
<radialGradient
id="RadialGradID_4270" gradientUnits="userSpaceOnUse" gradientTransform="matrix(0.000762939, 4.57764e-005, -6.10352e-005, 0.000717163, -0.75, 2.95)" spreadMethod ="pad" cx="0" cy="0" r="819.2" fx="0" fy="0" >
<stop  offset="0.313725"  style="stop-color:#FFFFFF;stop-opacity:0.572549" />
<stop  offset="1"  style="stop-color:#FFFFFF;stop-opacity:0" />
</radialGradient>
<path style="fill:url(#RadialGradID_4270) " d="M-1.2,2.5L-0.7 2.4Q-0.45 2.4 -0.3 2.55Q-0.15 2.75 -0.15 3L-0.4 3.4L-0.8 3.55L-1.25 3.35L-1.4 2.95L-1.2 2.5" />
<radialGradient
id="RadialGradID_4271" gradientUnits="userSpaceOnUse" gradientTransform="matrix(0.00730896, 0, 0, 0.00758362, -1.9, -4.85)" spreadMethod ="pad" cx="0" cy="0" r="819.2" fx="210518" fy="0" >
<stop  offset="0"  style="stop-color:#C98062;stop-opacity:0.733333" />
<stop  offset="0.8"  style="stop-color:#C98062;stop-opacity:0" />
</radialGradient>
<path style="fill:url(#RadialGradID_4271) " d="M1.6,-4.15L3.75 -4.05L3.7 -3.95Q0.5 -2.85 0.55 1.85L0.5 1.8Q-0.05 -1.4 -0.05 -2.5Q-0.05 -3.1 0.95 -3.95L1.2 -4.2L1.6 -4.15" />
<radialGradient
id="RadialGradID_4272" gradientUnits="userSpaceOnUse" gradientTransform="matrix(0.00445557, 0, 0, 0.00509644, -1.25, 2.95)" spreadMethod ="pad" cx="0" cy="0" r="819.2" fx="9" fy="0" >
<stop  offset="0.0980392"  style="stop-color:#D9521C;stop-opacity:0.552941" />
<stop  offset="1"  style="stop-color:#FFEFEA;stop-opacity:0" />
</radialGradient>
<path style="fill:url(#RadialGradID_4272) " d="M-3,3.2L-2.85 3.85Q-3.55 3.9 -3.75 3.45L-3.7 3.4Q-3.15 1.95 -2.7 2.1L-3 3.15L-3 3.2" />
<path style="fill:#FFDEC2;fill-opacity:0.4" d="M1.2,2Q1.35 1.95 1.55 2.2L1.7 2.4L1.8 3Q1.9 3.55 1.35 3.55Q1.2 3.55 1.2 3.25L0.95 2.05L1.2 2" />
<path style="fill:#823709;fill-opacity:1" d="M-2.55,4.15L-1.85 4L-1.1 4.25L-2.55 4.15M1.85,4.15L0.45 4.25L1.15 4L1.85 4.15" />
</g>
</svg>
