<svg xmlns="http://www.w3.org/2000/svg" width="8" height="10"><g transform="translate(3.75 4.55)"><radialGradient id="a" gradientUnits="userSpaceOnUse" gradientTransform="matrix(.00452 0 0 .00644 -.85 -.55)" spreadMethod="pad" cx="0" cy="0" r="819.2" fx="0" fy="0"><stop offset="0" stop-color="#f58b69" stop-opacity=".243"/><stop offset="1" stop-color="#ffdec2" stop-opacity="0"/></radialGradient><path d="M-1.25-.75L-1.3.3v2.25l-.9-.95-.4-.15.25-1L-2.3.3l.25-1.35q.05-.7-.55-2.7.4.05.95 1l.2-1.8q.35.3.3 1.55l-.1 2.25" fill="url(#a)"/><radialGradient id="b" gradientUnits="userSpaceOnUse" gradientTransform="matrix(.01341 0 0 .01448 -.05 4.1)" spreadMethod="pad" cx="0" cy="0" r="819.2" fx="210534" fy="0"><stop offset="0" stop-color="#e66030" stop-opacity=".392"/><stop offset=".243" stop-color="#ed9e76" stop-opacity=".4"/><stop offset=".596" stop-color="#f0aa86" stop-opacity=".2"/><stop offset=".894" stop-color="#f0aa86" stop-opacity="0"/></radialGradient><path d="M.5-3.35q.35-.4.95-.6l-.3 2.05.05 1.6.05.65.4 1.8.35.4.1.7.05.35q0 .55-.6.55H.9l-.55.2-.65.25h-.1l-.7-.25-.1-.05-.3-.15h-.75l-.2-.05h-.1q-.3-.1-.25-.5v-.05l.1-.05.45-.1h.15l.2.1.4.2.6.25.65-.15q.3-.15.4-.8L.2 1.6.1.55V.3L-.1-2v-.3l-.05-.1.1-.25.5-.85.05.15" fill="url(#b)"/><radialGradient id="c" gradientUnits="userSpaceOnUse" gradientTransform="matrix(.00076 .00006 -.0001 .0028 -.8 0)" spreadMethod="pad" cx="0" cy="0" r="819.2" fx="0" fy="0"><stop offset=".314" stop-color="#fff" stop-opacity=".431"/><stop offset="1" stop-color="#fff" stop-opacity="0"/></radialGradient><path d="M-.75-2.2q.2 0 .3.65l.1 1.6-.2 1.6-.05.4-.05.05-.25.2-.15-.25V2l-.15-.4-.05-1.6.2-1.6.3-.6" fill="url(#c)"/><radialGradient id="d" gradientUnits="userSpaceOnUse" gradientTransform="matrix(.00076 .00005 -.00006 .00072 -.75 2.95)" spreadMethod="pad" cx="0" cy="0" r="819.2" fx="0" fy="0"><stop offset=".314" stop-color="#fff" stop-opacity=".573"/><stop offset="1" stop-color="#fff" stop-opacity="0"/></radialGradient><path d="M-1.2 2.5l.5-.1q.25 0 .4.15.15.2.15.45l-.25.4-.4.15-.45-.2-.15-.4.2-.45" fill="url(#d)"/><radialGradient id="e" gradientUnits="userSpaceOnUse" gradientTransform="matrix(.0073 0 0 .00758 -1.9 -4.85)" spreadMethod="pad" cx="0" cy="0" r="819.2" fx="210518" fy="0"><stop offset="0" stop-color="#c98062" stop-opacity=".733"/><stop offset=".8" stop-color="#c98062" stop-opacity="0"/></radialGradient><path d="M1.6-4.15l2.15.1-.05.1Q.5-2.85.55 1.85L.5 1.8q-.55-3.2-.55-4.3 0-.6 1-1.45l.25-.25.4.05" fill="url(#e)"/><radialGradient id="f" gradientUnits="userSpaceOnUse" gradientTransform="matrix(.00446 0 0 .0051 -1.25 2.95)" spreadMethod="pad" cx="0" cy="0" r="819.2" fx="9" fy="0"><stop offset=".098" stop-color="#d9521c" stop-opacity=".553"/><stop offset="1" stop-color="#ffefea" stop-opacity="0"/></radialGradient><path d="M-3 3.2l.15.65q-.7.05-.9-.4l.05-.05q.55-1.45 1-1.3L-3 3.15v.05" fill="url(#f)"/><path d="M1.2 2q.15-.05.35.2l.15.2.1.6q.1.55-.45.55-.15 0-.15-.3l-.25-1.2L1.2 2" fill="#ffdec2" fill-opacity=".4"/><path d="M-2.55 4.15l.7-.15.75.25-1.45-.1m4.4 0l-1.4.1.7-.25.7.15" fill="#823709"/></g></svg>