<svg xmlns="http://www.w3.org/2000/svg" width="6" height="9"><path d="M1.5 7.1l-.25-.05-.2.05H1v-.65l.25-.3.25.95" fill="#fac0a2"/><radialGradient id="a" gradientUnits="userSpaceOnUse" gradientTransform="matrix(.00916 0 .0003 .0087 5.9 4.6)" spreadMethod="pad" cx="0" cy="0" r="819.2" fx="0" fy="0"><stop offset=".102" stop-color="#f58b69" stop-opacity=".243"/><stop offset="1" stop-color="#ffdec2" stop-opacity="0"/></radialGradient><path d="M4.25 6.6L4 6.2l-.05-.05-.1-.65.05-.3v-.95l-.05-2.5-.1-.85Q3.9.35 4.2.1l1-.1q-.45.65-.55 1-.15.4.85-.4-.9 1.35-.6 2.8.3 1.45.7 2.3.4.8.2 1.6v-.2L5.55 7H5.5l-.05-.55-.05-.3-.25-.1q-.25-.05-.5.2l-.55.9v-.1l.15-.45" fill="url(#a)"/><radialGradient id="b" gradientUnits="userSpaceOnUse" gradientTransform="matrix(.0009 0 .00003 .00075 3.55 6.6)" spreadMethod="pad" cx="0" cy="0" r="819.2" fx="0" fy="0"><stop offset=".314" stop-color="#fff" stop-opacity=".663"/><stop offset="1" stop-color="#fff" stop-opacity="0"/></radialGradient><path d="M4.1 7.05h-.05l-.5.15-.45-.15-.2-.45q-.05-.25.15-.4l.45-.15.45.1.05.05.25.4-.15.45" fill="url(#b)"/><radialGradient id="c" gradientUnits="userSpaceOnUse" gradientTransform="matrix(.0073 0 .00029 .0082 2.45 6.2)" spreadMethod="pad" cx="0" cy="0" r="819.2" fx="0" fy="0"><stop offset="0" stop-color="#e6805c" stop-opacity=".863"/><stop offset=".337" stop-color="#ed9e76" stop-opacity=".69"/><stop offset=".792" stop-color="#f0aa86" stop-opacity=".392"/><stop offset="1" stop-color="#f0aa86" stop-opacity="0"/></radialGradient><path d="M1 7.1h.05l.2-.05.25.05.55.1h.1l.05.15V7.2q-.1-.3.05-.05l.45.4.65.15.8-.35h.05l.2-.15L5.5 7h.05l.25.1v.25q-.15.4-.65.4l-.4-.05H4.5l-.15.05-.1.05Q4 7.9 3.9 8l-.2.1v-.05l-.1.05v-.05l-.4.1h-.1v.1l-.35-.15-.3-.1h-.2L1.1 7.4h-.05L1 7.35V7.1" fill="url(#c)"/><radialGradient id="d" gradientUnits="userSpaceOnUse" gradientTransform="matrix(.00925 0 .00034 .00925 2.9 4.75)" spreadMethod="pad" cx="0" cy="0" r="819.2" fx="0" fy="0"><stop offset=".282" stop-color="#f58b69" stop-opacity=".243"/><stop offset="1" stop-color="#ffdec2" stop-opacity="0"/></radialGradient><path d="M3.35 7.7l-.65-.15-.45-.4q-.15-.25-.05.05l-.05-.05-.2-.45.1-.7.1-.7.5-4.1-.3-.65L2.2.4V.35l.5.4.05.1V.9l.05 1.6-.2 1.75-.3 2.2q-.05.45.15.55l.4.15.35.25h.4l.55-.2v.15l-.8.35M1.9 7.1l.3.1v.15l-.05-.15h-.1l-.15-.1" fill="url(#d)"/><radialGradient id="e" gradientUnits="userSpaceOnUse" gradientTransform="matrix(.0076 0 .00058 .016 1.45 2.95)" spreadMethod="pad" cx="0" cy="0" r="819.2" fx="0" fy="0"><stop offset="0" stop-color="#e89573"/><stop offset="1" stop-color="#ffdec2" stop-opacity="0"/></radialGradient><path d="M1.25 6.15l-.25.3v.9L.8 6.8v-.3l.05-.2.4-1v-.25l.6-2.3v-1.2l-.2-.7L1 .1l.45.05.4.1.35.15.15.15.3.65-.5 4.1-.1.7-.1.7.2.45.05.05-.3-.1.15.1-.55-.1-.25-.95" fill="url(#e)"/><radialGradient id="f" gradientUnits="userSpaceOnUse" gradientTransform="matrix(.0043 0 .00018 .00508 2.2 7.3)" spreadMethod="pad" cx="0" cy="0" r="819.2" fx="0" fy="0"><stop offset=".161" stop-color="#cf7052" stop-opacity=".812"/><stop offset=".627" stop-color="#ed9e76" stop-opacity=".702"/><stop offset=".898" stop-color="#f0aa86" stop-opacity=".392"/></radialGradient><path d="M.85 6.3l-.05.2v.3l.2.55.05.05h.05l1.15.6h.2l.3.1.35.15v.15l-.1.05-1.45.45-.85-.1-.45-.15Q-.1 8.5 0 8.15l.2-.75 1.05-2.1-.4 1" fill="url(#f)"/><radialGradient id="g" gradientUnits="userSpaceOnUse" gradientTransform="matrix(.00067 .00003 .0003 .00339 3.65 3.7)" spreadMethod="pad" cx="0" cy="0" r="819.2" fx="0" fy="0"><stop offset=".314" stop-color="#fff" stop-opacity=".431"/><stop offset="1" stop-color="#fff" stop-opacity="0"/></radialGradient><path d="M3.45 1l.35.75.35 3.9v.5l-.1.05-.1.25-.25-.3v-.1l-.15-.4-.3-1.95-.05-1.95q.05-.8.25-.75" fill="url(#g)"/><path d="M5.1 7.4v.15L3.8 8q.9-.65 1.15-.65l.15.05m-3.6-.1q.2 0 .6.3l.6.45-.75-.3-.5-.25-.05-.05v-.1l.1-.05" fill="#8d4e44"/></svg>