<svg xmlns="http://www.w3.org/2000/svg" width="9" height="11"><g transform="translate(4.3 5.1)"><path d="M-2.25 2l.65-1-.05.7q.1.35-.3.45l-.35.1.05-.25" fill="#fbc6a8"/><radialGradient id="a" gradientUnits="userSpaceOnUse" gradientTransform="matrix(.00493 0 0 .00594 3.25 -2.95)" spreadMethod="pad" cx="0" cy="0" r="819.2" fx="0" fy="0"><stop offset=".102" stop-color="#f58b69" stop-opacity=".29"/><stop offset="1" stop-color="#ffdec2" stop-opacity="0"/></radialGradient><path d="M2.35 2.45l-.15.05-.45-.15-.65-.15-.05.05L.85.7.7-.3.65-.85V-2.3l.1-1.75L1-4.6l.55-.5q-.35.85-.25 1.9l.05.85.05.4.1 1.4.05.25.3 1.1.3.8.25.65v.2h-.05M1.5 1.9l.35.25.05.05.2.1.05-.3-.8-1.1.15.8v.2" fill="url(#a)"/><radialGradient id="b" gradientUnits="userSpaceOnUse" gradientTransform="matrix(.01106 0 0 .0142 -1.4 2.15)" spreadMethod="pad" cx="0" cy="0" r="819.2" fx="0" fy="0"><stop offset="0" stop-color="#e6805c" stop-opacity=".431"/><stop offset=".227" stop-color="#ed9e76" stop-opacity=".29"/><stop offset=".694" stop-color="#f0aa86" stop-opacity=".212"/><stop offset=".894" stop-color="#f0aa86" stop-opacity="0"/></radialGradient><path d="M-.7-.95l-.05.65-.1 2.2.6.6.95-.2.35-.05.05-.05.65.15.45.15.15-.05h.05l.05.25-.05.35-.25-.25q-.35-.35-.7-.35l-1.05.3-1.25-.05q-.65-.4-1.1-.4l-.1.05-.45.35v-.45l.4-1.3q.55-.3 1.4-1.9m-1.6 3.2l.35-.1q.4-.1.3-.45l.05-.7-.65 1-.05.25" fill="url(#b)"/><radialGradient id="c" gradientUnits="userSpaceOnUse" gradientTransform="matrix(.0066 0 0 .00325 -.95 3.55)" spreadMethod="pad" cx="0" cy="0" r="819.2" fx="0" fy="0"><stop offset=".157" stop-color="#d17153" stop-opacity=".714"/><stop offset=".631" stop-color="#ed9e76" stop-opacity=".58"/><stop offset=".988" stop-color="#f0aa86" stop-opacity=".392"/></radialGradient><path d="M1.5 3.6l-.35-.15-.55.15-.35.15-.2.05H-.1l-.75-.35q-.25-.2-.45-.2l-.5.1q-.3.05-.55-.3l-.15-.3V2.7l.45-.35.1-.05q.45 0 1.1.4l1.25.05 1.05-.3q.35 0 .7.35l.25.25-.15.25-.65.3h-.1" fill="url(#c)"/><radialGradient id="d" gradientUnits="userSpaceOnUse" gradientTransform="matrix(.00665 0 0 .00665 -2.3 -4.15)" spreadMethod="pad" cx="0" cy="0" r="819.2" fx="0" fy="0"><stop offset="0" stop-color="#e67d5c" stop-opacity=".631"/><stop offset=".792" stop-color="#ed9e76" stop-opacity=".4"/></radialGradient><path d="M-2.1.95l.4-1.25.05-.45.1-.5v-.25l.05-1.05-.35-2.35.9.55q.25.25.25 1v2.4Q-1.55.65-2.1.95" fill="url(#d)"/><radialGradient id="e" gradientUnits="userSpaceOnUse" gradientTransform="matrix(.0037 .00156 -.00192 .00458 -1.35 2.5)" spreadMethod="pad" cx="0" cy="0" r="819.2" fx="0" fy="0"><stop offset=".196" stop-color="#de7444" stop-opacity=".671"/><stop offset=".6" stop-color="#f0aa86" stop-opacity=".392"/><stop offset="1" stop-color="#f0aa86" stop-opacity="0"/></radialGradient><path d="M-2.5 2.25v.5l.15.3q.25.35.55.3l.5-.1q.2 0 .45.2l.75.35H.05l.2-.05.35-.15.55-.15.35.15h.1l-.5.35-.5.15H.3l-.45.1-.65.3-.5.45-.25.2-1.5-.2q-.65-.2-.7-.55v-.05l.25-1.05.75-1.9 1.2-2.65-.1.5-.05.45-.4 1.25-.4 1.3" fill="url(#e)"/><path d="M.95 3.1l.3-.1h.25l.05.1-.15.2-.7.1.25-.3m-2.5-.15h.25l.3.1.15.25-.55-.1q-.25.05-.25-.1l.1-.15" fill="#823709"/><radialGradient id="f" gradientUnits="userSpaceOnUse" gradientTransform="matrix(.00067 .00005 .00005 .00362 .15 -1.9)" spreadMethod="pad" cx="0" cy="0" r="819.2" fx="0" fy="0"><stop offset=".314" stop-color="#fff" stop-opacity=".651"/><stop offset="1" stop-color="#fff" stop-opacity="0"/></radialGradient><path d="M.1-4.75l.3.85.15 2.1L.45.25.4.65.35.7l-.2.35-.2-.35V.65L-.15.2-.3-1.85l.1-2.1.3-.8" fill="url(#f)"/><radialGradient id="g" gradientUnits="userSpaceOnUse" gradientTransform="matrix(.00082 -.00002 0 .00087 .35 1.5)" spreadMethod="pad" cx="0" cy="0" r="819.2" fx="0" fy="0"><stop offset=".314" stop-color="#fff" stop-opacity=".671"/><stop offset="1" stop-color="#fff" stop-opacity="0"/></radialGradient><path d="M-.15 1.05l.5-.2.5.2.2.5-.2.5-.5.2-.5-.2-.2-.45q0-.35.2-.55" fill="url(#g)"/><radialGradient id="h" gradientUnits="userSpaceOnUse" gradientTransform="matrix(.00108 -.00029 .00078 .0029 2.75 3.25)" spreadMethod="pad" cx="0" cy="0" r="819.2" fx="0" fy="0"><stop offset="0" stop-color="#ed9e76" stop-opacity=".553"/><stop offset=".49" stop-color="#f0aa86" stop-opacity=".392"/><stop offset="1" stop-color="#f0aa86" stop-opacity="0"/></radialGradient><path d="M2.4 2.4v-.15l-.25-.65-.3-.8q1.25.6 1.8 1.75.65 1.35.65 2.6l-1-1.45-.85-1-.05-.25V2.4" fill="url(#h)"/><radialGradient id="i" gradientUnits="userSpaceOnUse" gradientTransform="matrix(.00148 0 0 .00273 -2.5 2.75)" spreadMethod="pad" cx="0" cy="0" r="819.2" fx="0" fy="0"><stop offset="0" stop-color="#ed9e76" stop-opacity=".553"/><stop offset=".49" stop-color="#f0aa86" stop-opacity=".392"/><stop offset="1" stop-color="#f0aa86" stop-opacity="0"/></radialGradient><path d="M-2.5 2.25v.5l-.85.95-.4.65-.55.8q0-1.25.65-2.6l.9-1.15.65-.45-.4 1.3" fill="url(#i)"/></g></svg>