<svg xmlns="http://www.w3.org/2000/svg" width="6" height="10"><path d="M.3 7.2l.05-.1.45-.55v.6l.2.55-.3.1H.55L.4 7.7l-.1-.25V7.2" fill="#fbc6a8"/><radialGradient id="a" gradientUnits="userSpaceOnUse" gradientTransform="translate(.9 5.8) scale(.00967)" spreadMethod="pad" cx="0" cy="0" r="819.2" fx="0" fy="0"><stop offset="0" stop-color="#e6805c" stop-opacity=".431"/><stop offset=".227" stop-color="#ed9e76" stop-opacity=".29"/><stop offset=".694" stop-color="#f0aa86" stop-opacity=".212"/><stop offset=".894" stop-color="#f0aa86" stop-opacity="0"/></radialGradient><path d="M4.1 1l-.5.7-.1 1 .25 1.85.1.6.1.3.1.8L4 7.1l-.1.3-.35.35L2.7 8 2 7.9q-.7-.2-.85-.65V7.1l-.1-.55v-.4l.1-.7V5.4l.05-.25.2-1.2.15-1.15-.1-.6-.7-1.15L.5.25l.9.8q.55.7.45 1.75l-.1 1.6v1.05l-.1.6.05.8.15.35.3.2.5.15.55-.1.15-.1.2-.25.05-.85-.1-.8-.05-.3-.05-.3-.25-1.6v-1.6Q3.3.55 4.85 0l-.7.95L4.1 1" fill="url(#a)"/><radialGradient id="b" gradientUnits="userSpaceOnUse" gradientTransform="matrix(.00575 0 0 .00351 2.55 8.25)" spreadMethod="pad" cx="0" cy="0" r="819.2" fx="0" fy="0"><stop offset=".239" stop-color="#cf5f3c" stop-opacity=".863"/><stop offset="1" stop-color="#ed9e76" stop-opacity=".69"/></radialGradient><path d="M4.65 8.6h-1.1l-.8.15-.55-.05-.25-.1-1.3-.1-.45-.55.25.2.35.05.15-.1.45-.05.55.3q.25.3.8.25l.8-.3q.2-.25.65-.25h.1l.45.15.25-.1.2-.5.05-.15v.15q.05.8-.6 1" fill="url(#b)"/><radialGradient id="c" gradientUnits="userSpaceOnUse" gradientTransform="matrix(.00462 0 0 .00313 2.3 7.6)" spreadMethod="pad" cx="0" cy="0" r="819.2" fx="0" fy="0"><stop offset=".243" stop-color="#cf7052" stop-opacity=".812"/><stop offset=".604" stop-color="#ed9e76" stop-opacity=".702"/><stop offset=".898" stop-color="#f0aa86" stop-opacity=".392"/></radialGradient><path d="M5.25 7.6v.65l-.2.35-.75.25h-.1l-.9.2-.45.15-.35-.05-.4-.1-1.2-.2q-.95-.1-.9-.75l.15-.75v.1l.05.5.45.55 1.3.1.25.1.55.05.8-.15h1.1q.65-.2.6-1" fill="url(#c)"/><radialGradient id="d" gradientUnits="userSpaceOnUse" gradientTransform="matrix(.00908 0 0 .00853 2.4 8.35)" spreadMethod="pad" cx="0" cy="0" r="819.2" fx="0" fy="0"><stop offset="0" stop-color="#e67d5c" stop-opacity=".631"/><stop offset=".298" stop-color="#ed9e76" stop-opacity=".58"/><stop offset=".643" stop-color="#f0aa86" stop-opacity=".392"/><stop offset="1" stop-color="#f0aa86" stop-opacity="0"/></radialGradient><path d="M.15 7.45v-.1l.05-.1.1-.35v-.05l.05-.25.1-.65.1-.5.05-.3.2-.75.25-1.5L1 2.05l-.25-1 .7 1.15.1.6-.15 1.15-.2 1.2-.05.25v.05l-.1.7v.4l.1.55v.15q.15.45.85.65l.7.1.85-.25.35-.35.1-.3.05-.85-.1-.8-.1-.3-.1-.6L3.5 2.7l.1-1 .5-.7.05-.05-.05.5-.15.95.3 1.75.3 1 .1.3.25.7.35 1.3-.05.15-.2.5-.25.1-.45-.15h-.1q-.45 0-.65.25l-.8.3q-.55.05-.8-.25l-.55-.3-.45.05-.15.1-.35-.05-.25-.2-.05-.5m4.15.2l.45.05.15-.2v-.25l-.2-.55-.4-.3v.7l-.1.35-.05.1.15.1m-4-.2l.1.25.15.1H.7l.3-.1-.2-.55v-.6l-.45.55-.05.1v.25" fill="url(#d)"/><path d="M4.45 8.35l-.4.1-.65.05q.4-.35.7-.35l.35.1v.1M.95 8.3q.1-.15.35-.15.25 0 .65.35l-.4-.05H1.1L.95 8.3" fill="#823709"/><radialGradient id="e" gradientUnits="userSpaceOnUse" gradientTransform="matrix(.00072 .00005 -.00003 .0034 2.8 3.5)" spreadMethod="pad" cx="0" cy="0" r="819.2" fx="0" fy="0"><stop offset=".314" stop-color="#fff" stop-opacity=".651"/><stop offset="1" stop-color="#fff" stop-opacity="0"/></radialGradient><path d="M3.25 3.55L3.1 5.5l-.05.4-.05.05-.25.3-.15-.3V5.9l-.15-.45-.1-1.95q0-1.15.15-1.9.1-.85.3-.8l.35.8.1 1.95" fill="url(#e)"/><radialGradient id="f" gradientUnits="userSpaceOnUse" gradientTransform="matrix(.00095 -.00002 0 .001 2.85 6.65)" spreadMethod="pad" cx="0" cy="0" r="819.2" fx="0" fy="0"><stop offset=".314" stop-color="#fff" stop-opacity=".671"/><stop offset="1" stop-color="#fff" stop-opacity="0"/></radialGradient><path d="M2.3 6.15q.2-.25.55-.25l.5.25.25.55-.25.6-.5.2q-.35 0-.55-.2l-.25-.55q0-.35.25-.6" fill="url(#f)"/></svg>