<svg xmlns="http://www.w3.org/2000/svg" width="5" height="8"><radialGradient id="a" gradientUnits="userSpaceOnUse" gradientTransform="translate(3 5.4) scale(.00772)" spreadMethod="pad" cx="0" cy="0" r="819.2" fx="0" fy="0"><stop offset="0" stop-color="#e89573" stop-opacity=".373"/><stop offset="1" stop-color="#ffdec2" stop-opacity="0"/></radialGradient><path d="M3.45 2.75l.45 2.8-.2 1q-.3.3-.8.4l-.55-.1-.3-.15q-.45-.4-.4-1l.05-1.05.2-1.4q.1-.95-.3-1.8L.75.15q1.2.75 1.4 1.65l.05 2.35-.1.6-.1.5q-.15.65 0 1.05l.3.4.5.15q.4 0 .75-.35.35-.3 0-1.45l-.3-2.55q-.1-.65.25-1.35l1-.95Q3.4 1.65 3.45 2.75" fill="url(#a)"/><path d="M1.2 5.9l.05.4.05.2q-.05 0-.25.15l-.35.1-.2-.15.15-.65q.1-.3.35-.3.2 0 .2.25" fill="#f8c8aa"/><radialGradient id="b" gradientUnits="userSpaceOnUse" gradientTransform="matrix(.00754 0 0 .0093 1.75 7.6)" spreadMethod="pad" cx="0" cy="0" r="819.2" fx="0" fy="0"><stop offset="0" stop-color="#e67d5c" stop-opacity=".671"/><stop offset=".298" stop-color="#ed9e76" stop-opacity=".482"/><stop offset=".776" stop-color="#f0aa86" stop-opacity=".263"/><stop offset="1" stop-color="#f0aa86" stop-opacity="0"/></radialGradient><path d="M4.5.2l.3-.2-.4 1.35q-.3.95-.3 1.5l.35 1.9.35 1.15q.35 1.05.15 1.35l-.45.3h-.45l-.5-.15-.5.05-.5.1h-.1l-.5-.15h-.2l-.5.15H.8l-.4-.3q-.25-.3.1-1.35l.15-.5.2-.65.35-1.9-.25-1.5L.5 0l.25.15.85 1.3q.4.85.3 1.8l-.2 1.4-.05 1.05q-.05.6.4 1l.3.15.55.1q.5-.1.8-.4l.2-1-.45-2.8Q3.4 1.65 4.5.2m-.4 5.7l-.05.4-.05.2.3.15.3.1.2-.15-.15-.65-.35-.3-.2.25M1 5.65q-.25 0-.35.3L.5 6.6l.2.15.35-.1q.2-.15.25-.15l-.05-.2-.05-.4q0-.25-.2-.25" fill="url(#b)"/><radialGradient id="c" gradientUnits="userSpaceOnUse" gradientTransform="translate(.65 6.35) scale(.00253)" spreadMethod="pad" cx="0" cy="0" r="819.2" fx="0" fy="0"><stop offset=".016" stop-color="#cf7052" stop-opacity=".812"/><stop offset=".522" stop-color="#ed9e76" stop-opacity=".502"/><stop offset=".898" stop-color="#f0aa86" stop-opacity=".18"/></radialGradient><path d="M2.45 7.55l-.85.25-.45.05-.5-.05-.6-.6q-.25-.5.6-1.8l-.15.5Q.15 6.95.4 7.25l.4.3h.45l.5-.15h.2l.5.15" fill="url(#c)"/><path d="M2.1 7.15l-.4.1-.25.15H1.4l-.05-.05Q1.45 7 1.8 7l.2.1.1.05m1.4-.05l.2-.1q.35 0 .45.35l-.05.05h-.05l-.25-.15-.4-.1.1-.05" fill="#8d4e44"/><radialGradient id="d" gradientUnits="userSpaceOnUse" gradientTransform="matrix(.00072 -.00018 .00012 .00046 1.6 6.25)" spreadMethod="pad" cx="0" cy="0" r="819.2" fx="0" fy="0"><stop offset="0" stop-color="#fff" stop-opacity=".533"/><stop offset="1" stop-color="#fff" stop-opacity="0"/></radialGradient><path d="M2.2 6.1l-.1.25-.4.2h-.5L1 6.4l.1-.25.45-.2H2l.2.15" fill="url(#d)"/><radialGradient id="e" gradientUnits="userSpaceOnUse" gradientTransform="matrix(.00046 0 0 .00237 2.9 3.45)" spreadMethod="pad" cx="0" cy="0" r="819.2" fx="0" fy="0"><stop offset="0" stop-color="#fff" stop-opacity=".643"/><stop offset="1" stop-color="#fff" stop-opacity="0"/></radialGradient><path d="M2.9 1.55l.25.55.1 1.35-.1 1.35-.25.6q-.2 0-.3-.6l-.1-1.35.1-1.35q.1-.55.3-.55" fill="url(#e)"/><radialGradient id="f" gradientUnits="userSpaceOnUse" gradientTransform="translate(3.05 6) scale(.00072)" spreadMethod="pad" cx="0" cy="0" r="819.2" fx="0" fy="0"><stop offset="0" stop-color="#fff" stop-opacity=".914"/><stop offset="1" stop-color="#fff" stop-opacity="0"/></radialGradient><path d="M3.6 6l-.15.4q-.2.2-.4.2l-.45-.2-.15-.4q0-.25.15-.4l.45-.15q.2 0 .4.15l.15.4" fill="url(#f)"/></svg>