<svg xmlns="http://www.w3.org/2000/svg" width="6" height="10"><g><path d="M1.75 6.85l-.6.05-.7.8-.05-.2.25-.85q.25-.5.95-.85l.2.5.1.55h-.15" fill="#fbc6a8"/><radialGradient id="a" gradientUnits="userSpaceOnUse" gradientTransform="matrix(.00583 0 0 .00583 3 3.2)" spreadMethod="pad" cx="0" cy="0" r="819.2" fx="0" fy="0"><stop offset=".161" stop-color="#f0aa86" stop-opacity=".192"/><stop offset=".627" stop-color="#ed9e76" stop-opacity=".471"/><stop offset="1" stop-color="#e67d5c" stop-opacity=".463"/></radialGradient><path d="M4.15 3q0 1.15.45 1.85l.5.55.55.75.2.9-.05.25v.05l-.15.3V7.6l.05-.2-.25-.85-1-.8-.15.5-.1.55-.45.15-.4.2-.1.05h-.4l-.15-.05L2.35 7l-.45-.15-.1-.55-.2-.5q-.7.35-.95.85L.4 7.5l.05.2-.1-.25L.3 7.3l-.05-.15q-.05-.55.2-.9l.5-.75.65-.9q.3-.65.25-1.55-.05-1.65-.7-3 .95-.15 1.15 1l.1 1.75-.3 1.55Q1.85 5.35 2 6q.2.65.6.75h.8l.55-.7q.15-.55-.1-1.6L3.6 2.8V1q.2-1.1 1.15-1v.05Q4.15 1.4 4.15 3" fill="url(#a)"/><radialGradient id="b" gradientUnits="userSpaceOnUse" gradientTransform="matrix(.00955 0 0 .01071 2.6 2.05)" spreadMethod="pad" cx="0" cy="0" r="819.2" fx="0" fy="0"><stop offset=".102" stop-color="#f58b69" stop-opacity=".373"/><stop offset="1" stop-color="#ffdec2" stop-opacity="0"/></radialGradient><path d="M.7 5.5l-.7.45q1.3-1.4 1.3-3.4L1.15.05q.65 1.35.7 3 .05.9-.25 1.55l-.9.9m3.9-.65q-.45-.7-.45-1.85 0-1.6.6-2.95l-.1 2.5q0 2 1.25 3.4l-.65-.45-.65-.65" fill="url(#b)"/><radialGradient id="c" gradientUnits="userSpaceOnUse" gradientTransform="matrix(.00623 0 0 .00325 3.05 7.85)" spreadMethod="pad" cx="0" cy="0" r="819.2" fx="0" fy="0"><stop offset=".118" stop-color="#d07153" stop-opacity=".812"/><stop offset=".753" stop-color="#ed9e76" stop-opacity=".702"/><stop offset="1" stop-color="#f0aa86" stop-opacity=".392"/></radialGradient><path d="M5.35 7.9L4.4 8l-.8.05-.4.25-.15.05-.15-.05-.35-.25q-.2-.15-.8 0L.8 8l-.3-.25-.05-.05.7-.8.6-.05h.15l.45.15.35.15.15.05h.4l.1-.05.4-.2.45-.15h.1l.65.05.7.75-.05.05-.25.25" fill="url(#c)"/><radialGradient id="d" gradientUnits="userSpaceOnUse" gradientTransform="matrix(.0056 0 0 .0056 3.05 7.85)" spreadMethod="pad" cx="0" cy="0" r="819.2" fx="0" fy="0"><stop offset=".008" stop-color="#ed9e76" stop-opacity=".624"/><stop offset="1" stop-color="#f0aa86" stop-opacity="0"/></radialGradient><path d="M5.8 7.4q0 .75-.85.95l-.8.15-.4.25-.2.35-.5.5q-.3-.05-.5-.5l-.25-.4-.35-.2-.8-.15q-.8-.2-.85-.9h.05l.1.25.05.05.3.25.95.05q.6-.15.8 0l.35.25.15.05.15-.05.4-.25.8-.05.95-.1.25-.25h.05l.15-.3v.05" fill="url(#d)"/><path d="M3.95 7.7q-.35.05-.35-.1l.3-.25.35-.15.55.05q.4.05.15.5l-1-.05m-1.45.05l-.45-.15H1.5q-.45-.05-.45-.25 0-.25.5-.15.5.05.75.25l.2.3" fill="#823709"/><radialGradient id="e" gradientUnits="userSpaceOnUse" gradientTransform="matrix(.00063 0 0 .0028 3.05 3.05)" spreadMethod="pad" cx="0" cy="0" r="819.2" fx="0" fy="0"><stop offset="0" stop-color="#fff" stop-opacity=".78"/><stop offset=".988" stop-color="#fff" stop-opacity="0"/></radialGradient><path d="M3.45 1.45l.15 1.6-.15 1.6q-.15.6-.4.6t-.4-.6q-.15-.7-.15-1.6 0-.9.15-1.6.15-.6.4-.6l.4.6" fill="url(#e)"/><radialGradient id="f" gradientUnits="userSpaceOnUse" gradientTransform="matrix(.00214 .00056 -.00021 .00076 4.25 6.2)" spreadMethod="pad" cx="0" cy="0" r="819.2" fx="0" fy="0"><stop offset="0" stop-color="#fff" stop-opacity=".592"/><stop offset=".988" stop-color="#fff" stop-opacity="0"/></radialGradient><path d="M4.4 5.8q.75.4.95.75v.3q-.2-.2-.65-.3l-.3-.15v-.6" fill="url(#f)"/><radialGradient id="g" gradientUnits="userSpaceOnUse" gradientTransform="matrix(.00105 0 0 .00105 3 5.8)" spreadMethod="pad" cx="0" cy="0" r="819.2" fx="0" fy="0"><stop offset=".125" stop-color="#fff" stop-opacity=".78"/><stop offset=".988" stop-color="#fff" stop-opacity="0"/></radialGradient><path d="M3.6 5.15l.3.65-.3.6-.6.25-.6-.25-.25-.6q0-.35.25-.65.25-.25.6-.25t.6.25" fill="url(#g)"/></g></svg>