<svg xmlns="http://www.w3.org/2000/svg" width="9" height="11"><g transform="translate(4.1 5)"><path d="M-2.3 3.05l.05-.15.35-.5.4-.35.3-.3v.65l-.35.5-.25.1-.5.05" fill="#fbc6a8"/><radialGradient id="a" gradientUnits="userSpaceOnUse" gradientTransform="matrix(.00098 -.00056 .00198 .00345 3 2.9)" spreadMethod="pad" cx="0" cy="0" r="819.2" fx="0" fy="0"><stop offset="0" stop-color="#ed9e76" stop-opacity=".553"/><stop offset=".49" stop-color="#f0aa86" stop-opacity=".392"/><stop offset="1" stop-color="#f0aa86" stop-opacity="0"/></radialGradient><path d="M3.1 3.2l.25.45.35.8-.25-1.55q-.3-.75-.75-.8L2.65 2q.6-.1 1 .45.45.6.5 2.25l-.1.35-.2-.05q-.3-.75-.8-1.35l.05-.45" fill="url(#a)"/><radialGradient id="b" gradientUnits="userSpaceOnUse" gradientTransform="matrix(.00072 -.00041 .00133 .0023 3.25 3.1)" spreadMethod="pad" cx="0" cy="0" r="819.2" fx="210511" fy="0"><stop offset="0" stop-color="#db7c5e" stop-opacity=".8"/><stop offset="1" stop-color="#ffdec2" stop-opacity="0"/></radialGradient><path d="M3.1 3.2L3 2.9l-.3-.8q.45.05.75.8l.25 1.55-.35-.8-.25-.45" fill="url(#b)"/><radialGradient id="c" gradientUnits="userSpaceOnUse" gradientTransform="matrix(.00792 0 0 .01237 .15 -1.7)" spreadMethod="pad" cx="0" cy="0" r="819.2" fx="0" fy="0"><stop offset=".102" stop-color="#f58b69" stop-opacity=".243"/><stop offset="1" stop-color="#ffdec2" stop-opacity="0"/></radialGradient><path d="M-1.3 1.25l.3-2.2q.05-1.75-.5-2.9l.3-.45.25.15q.5 2.8.05 4.3l-.4 1.1" fill="url(#c)"/><radialGradient id="d" gradientUnits="userSpaceOnUse" gradientTransform="matrix(.00166 .00096 -.00172 .00298 -2.4 3.05)" spreadMethod="pad" cx="0" cy="0" r="819.2" fx="0" fy="0"><stop offset=".196" stop-color="#ed9e76" stop-opacity=".553"/><stop offset=".6" stop-color="#f0aa86" stop-opacity=".392"/><stop offset="1" stop-color="#f0aa86" stop-opacity="0"/></radialGradient><path d="M-2.6 3.9l-.5.85-.3.15-.35-.15L-4 4.4q-.35-1.2.6-2l1.3-1.05q.3-.15.55.3l-.15.2-.1-.15h-.1q-.2 0-.8.45l-.75 1.05-.05.9.35.4.5-.65.2-.3.05.1-.2.25" fill="url(#d)"/><radialGradient id="e" gradientUnits="userSpaceOnUse" gradientTransform="matrix(.00581 0 0 .00287 -.6 4.25)" spreadMethod="pad" cx="0" cy="0" r="819.2" fx="0" fy="0"><stop offset=".008" stop-color="#ed9e76" stop-opacity=".624"/><stop offset="1" stop-color="#f0aa86" stop-opacity="0"/></radialGradient><path d="M-2.4 3.65l.15.3q.25.4.85.45l.5-.25.45-.05.45.2.3.1.3-.1.35-.15-.55.3-.35.1-.3-.05-.35-.05-.45.05-.55.1-.45-.25-.55-.45.2-.25" fill="url(#e)"/><radialGradient id="f" gradientUnits="userSpaceOnUse" gradientTransform="matrix(.00545 0 0 .00996 2.05 -1.05)" spreadMethod="pad" cx="0" cy="0" r="819.2" fx="0" fy="0"><stop offset=".161" stop-color="#f0aa86" stop-opacity=".192"/><stop offset=".627" stop-color="#ed9e76" stop-opacity=".471"/><stop offset="1" stop-color="#e67d5c" stop-opacity=".463"/></radialGradient><path d="M-.9.15q.45-1.5-.05-4.3l-.05-.1.1.05.3.35.15.25q.4.95.4 2.05v.35Q-.25.05-.6.9q-.3.8-.2 1.5.05.7 1.3.7h.15L1 3l.2-.2.05-.05.15-.2V2l-.15-.65-.2-1.4V-1.6l.15-1.1.05-.35L1.7-4l.05-.1v.65Q1.6-1 2.1.45L2.65 2l.05.1.3.8.1.3-.05.45-.15.3-.05-.2-.1-.2q-.6-.55-1.6-.3L-1 3.2q-1.1-.25-1.25.75l-.15-.3-.05-.1V3.5q-.1-.6.5-1.25l.25-.4.15-.2.1-.2.05-.1.1-.1.4-1.1M2.25 3.1l.4.15.05-.05.05-.1-.2-.65-.55-.5-.1.9.35.25M-1.8 3l.25-.1.35-.5v-.65l-.3.3-.4.35-.35.5-.05.15.5-.05" fill="url(#f)"/><radialGradient id="g" gradientUnits="userSpaceOnUse" gradientTransform="matrix(.00478 .00064 -.00037 .00269 -.25 4.7)" spreadMethod="pad" cx="0" cy="0" r="819.2" fx="0" fy="0"><stop offset=".118" stop-color="#d07153" stop-opacity=".812"/><stop offset=".753" stop-color="#ed9e76" stop-opacity=".702"/><stop offset="1" stop-color="#f0aa86" stop-opacity=".392"/></radialGradient><path d="M.6 4.3l-.3.1-.3-.1-.45-.2-.45.05-.5.25q-.6-.05-.85-.45.15-1 1.25-.75l2.15.05q1-.25 1.6.3l.1.2.05.2V4q-.55.65-.9.55l-.6-.3Q1.2 4 1 4.1l-.05.05-.35.15" fill="url(#g)"/><radialGradient id="h" gradientUnits="userSpaceOnUse" gradientTransform="matrix(.00563 0 0 .01088 -.6 -3.3)" spreadMethod="pad" cx="0" cy="0" r="819.2" fx="0" fy="0"><stop offset=".102" stop-color="#f58b69" stop-opacity=".373"/><stop offset="1" stop-color="#ffdec2" stop-opacity="0"/></radialGradient><path d="M1.25-3.05l-.05.35-.1-.9-.05-1.1h.05l.25.45.3.25h.05l-.45.95M-.9-4.2l.65.45q.15 0 .2-.45L-.1-5l.35.55.05.15q.35.95.15 2.55L.2 1.6q0 .55.35.8.3.25.7.35l-.05.05L1 3l-.35.1H.5q-1.25 0-1.3-.7-.1-.7.2-1.5.35-.85.55-2.1v-.35q0-1.1-.4-2.05l-.15-.25-.3-.35" fill="url(#h)"/><radialGradient id="i" gradientUnits="userSpaceOnUse" gradientTransform="matrix(.00212 .00122 -.0018 .00313 -2.3 3.05)" spreadMethod="pad" cx="0" cy="0" r="819.2" fx="210511" fy="0"><stop offset=".125" stop-color="#da7861" stop-opacity=".8"/><stop offset="1" stop-color="#fdc19b" stop-opacity="0"/></radialGradient><path d="M-2.45 3.55l-.2.3-.5.65-.35-.4.05-.9.75-1.05q.6-.45.8-.45h.1l.1.15-.25.4q-.6.65-.5 1.25v.05" fill="url(#i)"/><path d="M-.45 3.95h-.1l.1.1-.25-.1L-1 4l-.3.2q-.3.25-.45.1l-.1-.25.05-.15.1-.1.3-.1h.1l.5.1q.25 0 .35.15m2.7-.05l.05.15-.1.25-.4-.1-.4-.25H.9q.1-.15.45-.2l.55-.05.25.1.1.1" fill="#823709"/><radialGradient id="j" gradientUnits="userSpaceOnUse" gradientTransform="matrix(.00064 0 0 .00287 .65 -.3)" spreadMethod="pad" cx="0" cy="0" r="819.2" fx="0" fy="0"><stop offset="0" stop-color="#fff" stop-opacity=".78"/><stop offset=".988" stop-color="#fff" stop-opacity="0"/></radialGradient><path d="M1.05-1.95L1.2-.3l-.15 1.6-.4.65Q.4 1.95.2 1.3.05.65.05-.3q0-.95.15-1.65.2-.65.45-.65l.4.65" fill="url(#j)"/><radialGradient id="k" gradientUnits="userSpaceOnUse" gradientTransform="translate(.65 1.95) scale(.00098)" spreadMethod="pad" cx="0" cy="0" r="819.2" fx="0" fy="0"><stop offset=".125" stop-color="#fff" stop-opacity=".78"/><stop offset=".988" stop-color="#fff" stop-opacity="0"/></radialGradient><path d="M1.2 1.35l.25.6-.25.55-.55.25-.6-.25-.2-.55.2-.6.6-.25.55.25" fill="url(#k)"/><radialGradient id="l" gradientUnits="userSpaceOnUse" gradientTransform="matrix(.00197 .00052 -.0002 .00072 1.8 2.6)" spreadMethod="pad" cx="0" cy="0" r="819.2" fx="0" fy="0"><stop offset="0" stop-color="#fff" stop-opacity=".592"/><stop offset=".988" stop-color="#fff" stop-opacity="0"/></radialGradient><path d="M1.95 2.35l-.1-.55q.5.1.95 1.15v.6h-.05q-.25-.35-1-.45L.9 2.9l.65-.15.4-.4" fill="url(#l)"/></g></svg>