<svg xmlns="http://www.w3.org/2000/svg" width="9" height="10"><g transform="translate(-66.05 -29.7)"><radialGradient id="a" gradientUnits="userSpaceOnUse" gradientTransform="matrix(.00159 0 0 .00159 70.8 31.95)" spreadMethod="pad" cx="0" cy="0" r="819.2" fx="0" fy="0"><stop offset=".314" stop-color="#fff" stop-opacity=".271"/><stop offset="1" stop-color="#fff" stop-opacity="0"/></radialGradient><path d="M71.5 31.6l.3.35-.3.3-.7.15-.7-.15-.3-.3.3-.35.7-.1.7.1" fill="url(#a)"/><radialGradient id="b" gradientUnits="userSpaceOnUse" gradientTransform="matrix(.00055 0 .00003 .0008 71.05 36.2)" spreadMethod="pad" cx="0" cy="0" r="819.2" fx="0" fy="0"><stop offset=".314" stop-color="#fff" stop-opacity=".89"/><stop offset="1" stop-color="#fff" stop-opacity="0"/></radialGradient><path d="M71.05 35.65l.25.2.1.4-.05.45-.25.15-.25-.15-.1-.45q-.05-.25.05-.4.1-.2.25-.2" fill="url(#b)"/><radialGradient id="c" gradientUnits="userSpaceOnUse" gradientTransform="matrix(.0005 0 .00027 .0046 70.9 33.7)" spreadMethod="pad" cx="0" cy="0" r="819.2" fx="0" fy="0"><stop offset=".314" stop-color="#fff" stop-opacity=".392"/><stop offset="1" stop-color="#fff" stop-opacity="0"/></radialGradient><path d="M70.4 31.5q0-.75.2-.75l.3.8.2 1.75.05 1.65-.2.55q-.2-.05-.3-.65l-.15-1.6-.1-1.75" fill="url(#c)"/><radialGradient id="d" gradientUnits="userSpaceOnUse" gradientTransform="matrix(.00017 0 .00003 .00066 71.25 36.25)" spreadMethod="pad" cx="0" cy="0" r="819.2" fx="0" fy="0"><stop offset=".314" stop-color="#fff" stop-opacity=".573"/><stop offset="1" stop-color="#fff" stop-opacity="0"/></radialGradient><path d="M71.25 35.8l.1.15.05.4v.35l-.1.15-.15-.15-.05-.35v-.4l.15-.15" fill="url(#d)"/><path d="M71.8 37.45l.45-.1.25.15v.25h-1.1l.15-.1.2-.15.05-.05m-1.8.6l-1.25-.2-.35-.25v-.15q0-.15.3-.15.25 0 .7.4l.6.35" fill="#823909"/><radialGradient id="e" gradientUnits="userSpaceOnUse" gradientTransform="matrix(.0051 -.00113 .00078 .00359 68.85 36.85)" spreadMethod="pad" cx="0" cy="0" r="819.2" fx="0" fy="0"><stop offset=".161" stop-color="#c25a39" stop-opacity=".871"/><stop offset=".627" stop-color="#ed9e76" stop-opacity=".702"/><stop offset=".898" stop-color="#f0aa86" stop-opacity=".392"/></radialGradient><path d="M70.05 38.05l.1.05.35.05-.05.1q-2.9 1.65-3.75 1.2-.85-.5-.55-1.1l.65-1 1.05-1.25.6-1.05-.6 1.35-.1.25-.05.25v.45l.1.25.75.5.1.05.2.05 1.15-.15h.05" fill="url(#e)"/><radialGradient id="f" gradientUnits="userSpaceOnUse" gradientTransform="matrix(.00642 0 0 .00647 73.85 32.65)" spreadMethod="pad" cx="0" cy="0" r="819.2" fx="0" fy="0"><stop offset="0" stop-color="#e6805c" stop-opacity=".863"/><stop offset=".337" stop-color="#ed9e76" stop-opacity=".69"/><stop offset=".792" stop-color="#f0aa86" stop-opacity=".392"/><stop offset="1" stop-color="#f0aa86" stop-opacity="0"/></radialGradient><path d="M73.1 36.5l-.2-.15-.25-.25-.15-.15-.1-.05-.05-.1-.25.4-.2.5-.05.2-.3.3-.05-.1.05-.05V37l.15-.65-.15-.75-.05-.4-.25-1.7q0-2.15.35-2.75l-.1 1.05q-.05.7.4 2v-.05l.05-.3.15.85.15.5.45 1.1.15.15v.05l.2.25.05.15" fill="url(#f)"/><radialGradient id="g" gradientUnits="userSpaceOnUse" gradientTransform="matrix(.01299 0 0 .0131 67.35 37.1)" spreadMethod="pad" cx="0" cy="0" r="819.2" fx="0" fy="0"><stop offset="0" stop-color="#e6805c" stop-opacity=".863"/><stop offset=".337" stop-color="#ed9e76" stop-opacity=".69"/><stop offset=".792" stop-color="#f0aa86" stop-opacity=".392"/><stop offset="1" stop-color="#f0aa86" stop-opacity="0"/></radialGradient><path d="M69.7 37.5l-.9-.35.1-.1.05-.3-.1-.5-.35-.55q-.65.6-.75 1.1.05.4.4.5l.05.05v.15l.2.4-.15-.05-.4-.3-.1-.65h-.05l.05-.25.1-.25.6-1.35.2-.8.05-1.25-.1-1.7q-.15-.85-.75-1.55l.35-.05q.4.05 1.4.65l.4.3.05.4.05.4v.25l-.1 1.8-.35 2.35q-.25 1.1.3 1.45l.35.15-.6.05m-1.9.1l.05-.05-.05.05" fill="url(#g)"/><radialGradient id="h" gradientUnits="userSpaceOnUse" gradientTransform="matrix(.00623 0 0 .00627 66.9 36.15)" spreadMethod="pad" cx="0" cy="0" r="819.2" fx="0" fy="0"><stop offset="0" stop-color="#e6805c" stop-opacity=".863"/><stop offset=".337" stop-color="#ed9e76" stop-opacity=".69"/><stop offset=".792" stop-color="#f0aa86" stop-opacity=".392"/><stop offset="1" stop-color="#f0aa86" stop-opacity="0"/></radialGradient><path d="M71.1 37.4l-.3.15-.5-.1-.35-.15q-.55-.35-.3-1.45L70 33.5l.1-1.8.05 1.8-.15 1.6q-.2.9-.05 1.4l.45.7.05.05h.05l.15.05h.05q.85-.05.85-1.4l-.05-.3h.05l.15.75-.15.65v.05l-.05.05-.4.3" fill="url(#h)"/><radialGradient id="i" gradientUnits="userSpaceOnUse" gradientTransform="matrix(.00623 0 0 .00627 66.9 36.15)" spreadMethod="pad" cx="0" cy="0" r="819.2" fx="3" fy="0"><stop offset="0" stop-color="#e6835c" stop-opacity=".722"/><stop offset=".227" stop-color="#ed9e76" stop-opacity=".553"/><stop offset=".459" stop-color="#f0aa86" stop-opacity=".514"/><stop offset=".894" stop-color="#f0aa86" stop-opacity="0"/></radialGradient><path d="M71.5 35.6v-.4l.05.4h-.05" fill="url(#i)"/><radialGradient id="j" gradientUnits="userSpaceOnUse" gradientTransform="translate(70.4 33.65) scale(.00572)" spreadMethod="pad" cx="0" cy="0" r="819.2" fx="0" fy="0"><stop offset="0" stop-color="#e6805c" stop-opacity=".863"/><stop offset=".337" stop-color="#ed9e76" stop-opacity=".69"/><stop offset=".792" stop-color="#f0aa86" stop-opacity=".392"/><stop offset="1" stop-color="#f0aa86" stop-opacity="0"/></radialGradient><path d="M68.7 37.15l-.35.05-.15.05-.05.05q-.35-.1-.4-.5.1-.5.75-1.1l.35.55.1.5-.05.3-.1.1h-.1" fill="url(#j)"/><radialGradient id="k" gradientUnits="userSpaceOnUse" gradientTransform="matrix(.0061 0 0 .0061 70.45 37.9)" spreadMethod="pad" cx="0" cy="0" r="819.2" fx="0" fy="0"><stop offset="0" stop-color="#e6805c" stop-opacity=".863"/><stop offset=".337" stop-color="#ed9e76" stop-opacity=".69"/><stop offset=".792" stop-color="#f0aa86" stop-opacity=".392"/><stop offset="1" stop-color="#f0aa86" stop-opacity="0"/></radialGradient><path d="M71.55 37.2l.3-.3-.05.1.05.05.55.15.3.1.25-.3v-.35l-.15-.25-.15-.25v-.05l.25.25.2.15.1.15v.05l.05.1-.1.3.15.05-.15.45-.2.25-1.15.1h-.6l-.1.05-.2.05h-.05l-.05.05-.3.05-.35-.05-.1-.05H70l-.6-.35q-.45-.4-.7-.4-.3 0-.3.15v.15l.35.25 1.25.2-1.15.15-.2-.05-.1-.05-.75-.5.05-.05.4.3.15.05-.2-.4v-.25l.15-.05.35-.05h.1l.9.35.6-.05.5.1.75-.35m.2.3l-.2.15-.15.1h1.1v-.25l-.25-.15-.45.1-.05.05" fill="url(#k)"/><radialGradient id="l" gradientUnits="userSpaceOnUse" gradientTransform="matrix(.01013 0 0 .0102 69.85 38.65)" spreadMethod="pad" cx="0" cy="0" r="819.2" fx="3" fy="0"><stop offset="0" stop-color="#e6835c" stop-opacity=".722"/><stop offset=".227" stop-color="#ed9e76" stop-opacity=".553"/><stop offset=".459" stop-color="#f0aa86" stop-opacity=".514"/><stop offset=".894" stop-color="#f0aa86" stop-opacity="0"/></radialGradient><path d="M72.5 35.95l.15.15v.05l-.15-.2m-4.7 1.65l-.1-.25v-.45h.05l.1.65-.05.05" fill="url(#l)"/><radialGradient id="m" gradientUnits="userSpaceOnUse" gradientTransform="matrix(.00642 0 0 .00647 73.85 32.65)" spreadMethod="pad" cx="0" cy="0" r="819.2" fx="3" fy="0"><stop offset="0" stop-color="#e6835c" stop-opacity=".722"/><stop offset=".227" stop-color="#ed9e76" stop-opacity=".553"/><stop offset=".459" stop-color="#f0aa86" stop-opacity=".514"/><stop offset=".894" stop-color="#f0aa86" stop-opacity="0"/></radialGradient><path d="M70.8 37.55l.3-.15.4-.3.05.1-.75.35" fill="url(#m)"/><radialGradient id="n" gradientUnits="userSpaceOnUse" gradientTransform="matrix(.0051 -.00113 .00078 .00359 69.5 36.2)" spreadMethod="pad" cx="0" cy="0" r="819.2" fx="210261" fy="0"><stop offset=".161" stop-color="#e6835c" stop-opacity=".722"/><stop offset=".463" stop-color="#ed9e76" stop-opacity=".553"/><stop offset=".667" stop-color="#f0aa86" stop-opacity=".392"/><stop offset=".894" stop-color="#f0aa86" stop-opacity="0"/></radialGradient><path d="M70.5 38.15l.3-.05-.35.15.05-.1" fill="url(#n)"/><radialGradient id="o" gradientUnits="userSpaceOnUse" gradientTransform="translate(72.5 33.25) scale(.00743)" spreadMethod="pad" cx="0" cy="0" r="819.2" fx="0" fy="0"><stop offset="0" stop-color="#e6805c" stop-opacity=".863"/><stop offset=".337" stop-color="#ed9e76" stop-opacity=".69"/><stop offset=".792" stop-color="#f0aa86" stop-opacity=".392"/><stop offset="1" stop-color="#f0aa86" stop-opacity="0"/></radialGradient><path d="M73.15 37.1l.1-.3-.05-.1v-.05l-.1-.15-.05-.15.15-.15.05-.05q1.3 1.1 1.65 2.7-.3-1.1-1.6-1.7l-.15-.05" fill="url(#o)"/></g></svg>