<svg xmlns="http://www.w3.org/2000/svg" width="9" height="10"><g transform="translate(4.3 5)"><path d="M-2.3 2.65l.15-.2.35-.25v.65l.2.5q.15.25-.1.15h-.75l.1-.75.05-.1" fill="#fbc6a8"/><radialGradient id="a" gradientUnits="userSpaceOnUse" gradientTransform="matrix(.00275 0 0 .00427 -.15 -3.6)" spreadMethod="pad" cx="0" cy="0" r="819.2" fx="0" fy="0"><stop offset=".259" stop-color="#ed9e76" stop-opacity=".09"/><stop offset="1" stop-color="#e67d5c" stop-opacity=".314"/></radialGradient><path d="M-.75-2.95l-.25-.3-.9-.65-.1-.05-.55-.8L-2.8-5l3.9.35L2.65-5l-.5.9-.45.1-.85.35-.4.45v.15l-1.2.1" fill="url(#a)"/><radialGradient id="b" gradientUnits="userSpaceOnUse" gradientTransform="matrix(.00377 0 0 .00682 -.2 .1)" spreadMethod="pad" cx="0" cy="0" r="819.2" fx="44" fy="0"><stop offset=".525" stop-color="#ed9e76" stop-opacity=".29"/><stop offset="1" stop-color="#e67d5c" stop-opacity=".314"/></radialGradient><path d="M-2.55-4.2l.55.25.1.05.9.65.25.3v.05l.05.2.05.5v1.05L-.8.05-.9 1.3l-.05.55.05.35.15 1 .6.4.5-.05.25-.4.15-.4V2.2l-.05-1L.6.05.5-1.2v-1.55l-.05-.3v-.15l.4-.45L1.7-4l.45-.1.2-.1-.4.35-.8 1-.05.05q-.15.5-.15 1.7l.1 2.85.15 1.5q.05.55-1.25.7-1.3-.15-1.25-.7l.1-1.5.1-2.85q0-1.2-.15-1.7-.1-.35-.55-.75l-.75-.65" fill="url(#b)"/><radialGradient id="c" gradientUnits="userSpaceOnUse" gradientTransform="matrix(.00354 0 0 .00504 -.75 .35)" spreadMethod="pad" cx="0" cy="0" r="819.2" fx="0" fy="0"><stop offset=".008" stop-color="#e6805c" stop-opacity=".431"/><stop offset="1" stop-color="#f0aa86" stop-opacity="0"/></radialGradient><path d="M-2.75 1.95V1.9l-.15-.5-.15-.55.5-1.05 1-1.4v.6q0 .75-.5 2.3v.05l-.05.1-.4 1.35-.1.7-.1-.45V3l.05-.45-.1-.6" fill="url(#c)"/><radialGradient id="d" gradientUnits="userSpaceOnUse" gradientTransform="matrix(.00305 0 0 .0026 -.2 4.25)" spreadMethod="pad" cx="0" cy="0" r="819.2" fx="0" fy="0"><stop offset=".11" stop-color="#cf7c52" stop-opacity=".451"/><stop offset=".647" stop-color="#823709"/></radialGradient><path d="M.95 4.25l-.2.1-.1.1-.3.1-.1.05h-.5l-.25-.05-.3-.1-.15-.1-.2-.1-.35-.2-.1-.05-.15-.05h-.1l-.2-.1.2-.1.4.1.4.25.9.35H0l.9-.35.4-.25.35-.1.2.1-.2.1h-.1L1.4 4l-.05.05-.35.2H.95" fill="url(#d)"/><radialGradient id="e" gradientUnits="userSpaceOnUse" gradientTransform="matrix(.003 0 0 .00397 -.05 2.55)" spreadMethod="pad" cx="0" cy="0" r="819.2" fx="0" fy="0"><stop offset="0" stop-color="#cf5f3c" stop-opacity=".733"/><stop offset="1" stop-color="#ed9e76" stop-opacity=".361"/></radialGradient><path d="M-1.15 4.25l.2.1.15.1.3.1.25.05h.5l.1-.05.3-.1.1-.1.2-.1H1l.65-.05.55-.2.2-.35h.1L2.35 4l-.3.35-.3.15-.6.05-.6.3-.5.15-.6-.2-.75-.55H-1.15" fill="url(#e)"/><radialGradient id="f" gradientUnits="userSpaceOnUse" gradientTransform="matrix(.0061 0 0 .0061 -1.5 3.75)" spreadMethod="pad" cx="0" cy="0" r="819.2" fx="0" fy="0"><stop offset=".008" stop-color="#e6805c" stop-opacity=".431"/><stop offset="1" stop-color="#f0aa86" stop-opacity="0"/></radialGradient><path d="M-2.65 2.55L-2.7 3q-.7.2-1.05.85l-.55 1q.15-1.3.65-1.85l.9-1.05.1.6" fill="url(#f)"/><radialGradient id="g" gradientUnits="userSpaceOnUse" gradientTransform="matrix(.00352 -.00122 .00204 .00592 1.05 1.9)" spreadMethod="pad" cx="0" cy="0" r="819.2" fx="0" fy="0"><stop offset=".008" stop-color="#e6805c" stop-opacity=".431"/><stop offset="1" stop-color="#f0aa86" stop-opacity="0"/></radialGradient><path d="M1.4-1.55L2-.3l.75 1.45v.7l-.05.45.9 1.15q1.2 1.8.4 1.05l-1.3-.95h-.3q.05-.5-.5-2.1Q1.35-.25 1.35-1l.05-.55" fill="url(#g)"/><radialGradient id="h" gradientUnits="userSpaceOnUse" gradientTransform="matrix(.00781 0 0 .00829 -.05 4.2)" spreadMethod="pad" cx="0" cy="0" r="819.2" fx="0" fy="0"><stop offset="0" stop-color="#e67d5c" stop-opacity=".6"/><stop offset=".588" stop-color="#f0aa86" stop-opacity=".431"/><stop offset=".98" stop-color="#ed9e76" stop-opacity=".424"/></radialGradient><path d="M-1.25 4.25l-.35-.05h-.2q-.7-.05-.8-.55V3.5l.1-.7.4-1.35.05-.1V1.3q.5-1.55.5-2.3v-.6q-.15-1.25-1-2.6l.75.65q.45.4.55.75.15.5.15 1.7l-.1 2.85-.1 1.5q-.05.55 1.25.7 1.3-.15 1.25-.7l-.15-1.5-.1-2.85q0-1.2.15-1.7l.05-.05.8-1 .4-.35q-.8 1.35-.95 2.6v.05L1.35-1q0 .75.55 2.45.55 1.6.5 2.1v.1L2.2 4l-.55.2-.65.05.35-.2L1.4 4l.15-.05h.1l.2-.1-.2-.1-.35.1-.4.25-.9.35H-.15l-.9-.35-.4-.25-.4-.1-.2.1.2.1h.1l.15.05.1.05.35.2h-.1m2.7-.95l.1.15.7.05-.1-.75q-.15-.45-.6-.5v.6l-.1.45m-3.8-.55l-.1.75h.75q.25.1.1-.15l-.2-.5V2.2l-.35.25-.15.2-.05.1" fill="url(#h)"/><radialGradient id="i" gradientUnits="userSpaceOnUse" gradientTransform="matrix(.00055 .00003 -.00002 .00333 -.05 -.4)" spreadMethod="pad" cx="0" cy="0" r="819.2" fx="0" fy="0"><stop offset=".314" stop-color="#fff" stop-opacity=".651"/><stop offset="1" stop-color="#fff" stop-opacity="0"/></radialGradient><path d="M.2-2.25l.1 1.9-.15 1.9-.05.4L.05 2l-.15.3-.1-.3v-.05l-.15-.4L-.4-.4l.1-1.9.25-.75.25.8" fill="url(#i)"/><radialGradient id="j" gradientUnits="userSpaceOnUse" gradientTransform="matrix(.0008 -.00002 0 .00093 0 2.6)" spreadMethod="pad" cx="0" cy="0" r="819.2" fx="0" fy="0"><stop offset=".314" stop-color="#fff" stop-opacity=".671"/><stop offset="1" stop-color="#fff" stop-opacity="0"/></radialGradient><path d="M-.45 2.15q.2-.25.45-.25t.45.25l.2.5-.2.55-.45.2-.45-.2-.2-.5.2-.55" fill="url(#j)"/></g></svg>