<svg xmlns="http://www.w3.org/2000/svg" width="6" height="10"><g><radialGradient id="a" gradientUnits="userSpaceOnUse" gradientTransform="matrix(.00291 .00076 -.00156 .00584 4.15 8.1)" spreadMethod="pad" cx="0" cy="0" r="819.2" fx="0" fy="0"><stop offset=".016" stop-color="#cf7052" stop-opacity=".812"/><stop offset=".522" stop-color="#ed9e76" stop-opacity=".502"/><stop offset=".898" stop-color="#f0aa86" stop-opacity=".18"/></radialGradient><path d="M4.05 2.25q1.3 2.95 1.1 4.15-.15.8.3 1.9.1.65-.15.8l-.5.15h-.6l-.65-.1L3 9.2v.05l-.1.05-.4-.05-.25-.15-.1-.1.35.1.25.1.25-.1.35-.15.3.05.35.1h.45l.5-.35q.25-.15.15-.8L4.85 6.9l-.3-.85-.25-.75-.15-.8L4 3.75v-.8l.05-.7" fill="url(#a)"/><radialGradient id="b" gradientUnits="userSpaceOnUse" gradientTransform="matrix(.0028 0 0 .0046 2.1 7.2)" spreadMethod="pad" cx="0" cy="0" r="819.2" fx="0" fy="0"><stop offset=".016" stop-color="#cf7052" stop-opacity=".812"/><stop offset=".522" stop-color="#ed9e76" stop-opacity=".502"/><stop offset=".898" stop-color="#f0aa86" stop-opacity=".18"/></radialGradient><path d="M.5 8.75v.05l-.3-.65-.1-.9L0 7l.2-.85.25-.6.65-1.1.25-2.35h.05l.1.85v.8l-.15.75-.2.8-.15.75-.3.85-.3 1.05q-.15.65.1.8" fill="url(#b)"/><radialGradient id="c" gradientUnits="userSpaceOnUse" gradientTransform="matrix(.00937 0 0 .00937 2.7 10)" spreadMethod="pad" cx="0" cy="0" r="819.2" fx="0" fy="0"><stop offset="0" stop-color="#e67d5c" stop-opacity=".624"/><stop offset=".518" stop-color="#ed9e76" stop-opacity=".341"/><stop offset="1" stop-color="#f0aa86" stop-opacity=".18"/></radialGradient><path d="M.4 7.95L.7 6.9l.3-.85.15-.75.2-.8.15-.75v-.8l-.1-.85-.05-.15-.4-1.1.3.2.45.55.25 1.65-.1 2.2-.2 1.45.1.75.9.65H3l.65-.65.15-.75-.2-1.45q-.15-1.1-.15-2.2l.3-1.65.3-.45q.15-.2.5-.25-.4.65-.45 1.2l-.05.15-.05.7v.8l.15.75.15.8.25.75.3.85.25 1.05q.1.65-.15.8l-.5.35H4L3.65 9l-.3-.05L3 9.1l-.25.1-.25-.1-.35-.1-.05-.05-.2.05-.4.1h-.45L.7 8.9l-.2-.15q-.25-.15-.1-.8m3.8-.85l-.05.7q-.15.4.2.5l.6.05-.15-.7-.4-.55h-.2m-2.95 0H1.1l-.35.55Q.6 8 .6 8.35l.55-.05q.35-.1.2-.5l-.1-.7" fill="url(#c)"/><radialGradient id="d" gradientUnits="userSpaceOnUse" gradientTransform="matrix(.01009 0 0 .0099 2.4 1.35)" spreadMethod="pad" cx="0" cy="0" r="819.2" fx="0" fy="0"><stop offset=".078" stop-color="#ed9e76" stop-opacity=".322"/><stop offset=".988" stop-color="#f0aa86" stop-opacity=".09"/></radialGradient><path d="M3.75 1.6l-.3 1.65q0 1.1.15 2.2l.2 1.45-.15.75L3 8.3h-.35l-.9-.65-.1-.75.2-1.45.1-2.2L1.7 1.6l-.45-.55-.6-.9L2 .45h1l1-.1.7-.35-.35.5-.3.65-.3.45M2.6 1.35q-.4 0-.45.55L2.1 3.3V7.1q-.1.7.45.75l.75-.15.1-.6-.1-.95-.1-1.2V4l-.05-.8-.05-.8-.1-.85q-.1-.3-.4-.2" fill="url(#d)"/><path d="M3.75 8.75l-.2-.05.25-.15.6.15-.1.05h-.55m-2.25-.1l-.3.05-.1-.05.2-.1.35-.05.25.1-.15.1-.25-.05" fill="#8d4e44"/><radialGradient id="e" gradientUnits="userSpaceOnUse" gradientTransform="matrix(.00055 0 0 .00386 2.55 4.2)" spreadMethod="pad" cx="0" cy="0" r="819.2" fx="0" fy="0"><stop offset="0" stop-color="#fff" stop-opacity=".561"/><stop offset="1" stop-color="#fff" stop-opacity="0"/></radialGradient><path d="M2.9 6.2l-.3.7q-.2 0-.3-.7-.15-.7-.15-1.7t.15-1.7q.1-.7.3-.7l.3.7.15 1.7-.15 1.7" fill="url(#e)"/><radialGradient id="f" gradientUnits="userSpaceOnUse" gradientTransform="matrix(.00072 -.00027 .00021 .00061 2.55 7.35)" spreadMethod="pad" cx="0" cy="0" r="819.2" fx="0" fy="0"><stop offset=".314" stop-color="#fff" stop-opacity=".663"/><stop offset="1" stop-color="#fff" stop-opacity="0"/></radialGradient><path d="M2 7.2l.35-.3h.35l.15.2.1.3-.05.25-.25.2h-.4L2 7.55V7.2" fill="url(#f)"/></g></svg>