<svg xmlns="http://www.w3.org/2000/svg" width="7" height="11"><g transform="translate(3.45 5.15)"><path d="M-2.05 1.5l.25-.4.15.25v.05l.05.6-.1.2-.4.25-.05-.2-.05-.1v-.2l.05-.3.1-.15" fill="#fbc6a8"/><radialGradient id="a" gradientUnits="userSpaceOnUse" gradientTransform="matrix(.005 -.00143 .00287 .00995 -.8 1.3)" spreadMethod="pad" cx="0" cy="0" r="819.2" fx="0" fy="0"><stop offset="0" stop-color="#e67d5c" stop-opacity=".714"/><stop offset=".416" stop-color="#ed9e76" stop-opacity=".58"/><stop offset=".773" stop-color="#f0aa86" stop-opacity=".392"/><stop offset="1" stop-color="#f0aa86" stop-opacity="0"/></radialGradient><path d="M1.7 3.35l.15-.15.2-.2L2 2.8q-.1-.15-.3-.15-.25 0-.65.3L.3 3.2H.1q-.45 0-.9-.4t-.7-.4l-.4.1-.3.6-.05-.05q-.25-.3 0-1.5v-.1l.7-3.9-.1-1.05-.1-.4-.35-1.25.25.15q1.2.8 1 2.35l-.2 2.6-.05 1.1-.1.35q0 .5.4 1l.4.35.75-.05q.8-.2.75-.85v-1l-.05-.9-.2-2.6q-.2-1.7 1.25-2.5L1.75-3.9l-.2 1.45L2 .3l.25 1.15.1.45-.1 1.15-.1.1-.45.2M1.55 2l.1.2.4.25.1-.3v-.2l-.1-.45-.3-.4-.15.3-.05.6m-3.2-.7q.35-.65.35-1.5l-.05-.65-.5 1.35-.3 1.15-.05.3v.2l.05.1.05.2.4-.25.1-.2-.05-.6v-.1" fill="url(#a)"/><radialGradient id="b" gradientUnits="userSpaceOnUse" gradientTransform="matrix(.00148 -.0005 .00122 .0036 2.5 1.7)" spreadMethod="pad" cx="0" cy="0" r="819.2" fx="0" fy="0"><stop offset=".227" stop-color="#ed9e76" stop-opacity=".29"/><stop offset="1" stop-color="#f0aa86" stop-opacity="0"/></radialGradient><path d="M2.25 1.45L2 .3l1.15 1.9q.45 1 .25 2.25L2.95 3.2l-.6-1.3-.1-.45" fill="url(#b)"/><radialGradient id="c" gradientUnits="userSpaceOnUse" gradientTransform="matrix(.00874 0 0 .00874 -1.75 .15)" spreadMethod="pad" cx="0" cy="0" r="819.2" fx="0" fy="0"><stop offset="0" stop-color="#e6805c" stop-opacity=".431"/><stop offset=".227" stop-color="#ed9e76" stop-opacity=".29"/><stop offset=".694" stop-color="#f0aa86" stop-opacity=".212"/><stop offset=".894" stop-color="#f0aa86" stop-opacity="0"/></radialGradient><path d="M-1.85-5q1.1.25 1.2 1.2l.05 1.35-.1 2.7-.1 2.15q-.4-.5-.4-1l.1-.35.05-1.1.2-2.6q.2-1.55-1-2.35" fill="url(#c)"/><radialGradient id="d" gradientUnits="userSpaceOnUse" gradientTransform="matrix(.00504 0 0 .00504 -2.05 .7)" spreadMethod="pad" cx="0" cy="0" r="819.2" fx="0" fy="0"><stop offset="0" stop-color="#e6805c" stop-opacity=".431"/><stop offset=".886" stop-color="#ed9e76" stop-opacity=".29"/></radialGradient><path d="M-2.35.7V0L-2-1.3l.35-2.2.1 1.05-.7 3.9v.1l-.1-.85" fill="url(#d)"/><radialGradient id="e" gradientUnits="userSpaceOnUse" gradientTransform="matrix(.00494 0 0 .00494 -.75 3.15)" spreadMethod="pad" cx="0" cy="0" r="819.2" fx="0" fy="0"><stop offset=".239" stop-color="#cf5f3c" stop-opacity=".863"/><stop offset="1" stop-color="#ed9e76" stop-opacity=".69"/></radialGradient><path d="M1.45 3.35l-.35-.1H.95l-.3.1-.3.1-.25.05H0l-.65-.15-.1-.05-.3-.05-.4.1-.75-.25.3-.6.4-.1q.25 0 .7.4.45.4.9.4h.2l.75-.25q.4-.3.65-.3.2 0 .3.15l.05.2-.2.2-.15.15h-.25m-3.6-1.7l.3-1.15.5-1.35.05.65q0 .85-.35 1.5v.05l-.15-.25-.25.4-.1.15" fill="url(#e)"/><radialGradient id="f" gradientUnits="userSpaceOnUse" gradientTransform="matrix(.0039 .0016 -.00208 .00504 -.95 2.15)" spreadMethod="pad" cx="0" cy="0" r="819.2" fx="0" fy="0"><stop offset=".243" stop-color="#cf7052" stop-opacity=".702"/><stop offset=".604" stop-color="#ed9e76" stop-opacity=".6"/><stop offset=".898" stop-color="#f0aa86" stop-opacity=".141"/></radialGradient><path d="M1.7 3.35l.45-.2q-.25.45-.7.5h-.1l-.95.1-.3.1-1.05.65H-1l-1.05.55-.55.1q-.85-.4-.85-.75l.2-1 .9-2.7.1.85q-.25 1.2 0 1.5l.05.05.75.25.4-.1.3.05.1.05.65.15h.1l.25-.05.3-.1.3-.1h.15l.35.1h.25" fill="url(#f)"/><path d="M-.9 3.05L-1.5 3l-.2-.15.05-.1.2-.05.4.25.15.1m2.15-.15q.15-.15.25-.15l.15.05.05.1-.1.15-.35.05-.3.05.3-.25" fill="#823709"/><radialGradient id="g" gradientUnits="userSpaceOnUse" gradientTransform="matrix(.00078 .00005 -.00002 .00403 .25 -1.1)" spreadMethod="pad" cx="0" cy="0" r="819.2" fx="0" fy="0"><stop offset=".314" stop-color="#fff" stop-opacity=".651"/><stop offset="1" stop-color="#fff" stop-opacity="0"/></radialGradient><path d="M.7-1L.55 1.3l-.1.45-.05.05-.2.4-.2-.4v-.05l-.15-.5-.1-2.3.2-2.35q.05-.95.3-.9l.35.95L.7-1" fill="url(#g)"/><radialGradient id="h" gradientUnits="userSpaceOnUse" gradientTransform="matrix(.00095 -.00002 0 .001 .15 1.8)" spreadMethod="pad" cx="0" cy="0" r="819.2" fx="0" fy="0"><stop offset=".314" stop-color="#fff" stop-opacity=".671"/><stop offset="1" stop-color="#fff" stop-opacity="0"/></radialGradient><path d="M-.45 1.25l.6-.2.55.2.2.6-.2.6-.55.2-.6-.2-.2-.55.2-.65" fill="url(#h)"/></g></svg>