<svg xmlns="http://www.w3.org/2000/svg" width="6" height="10"><g><radialGradient id="a" gradientUnits="userSpaceOnUse" gradientTransform="matrix(.00763 0 0 .0034 2.9 7.6)" spreadMethod="pad" cx="0" cy="0" r="819.2" fx="0" fy="0"><stop offset=".016" stop-color="#cf7052" stop-opacity=".812"/><stop offset=".522" stop-color="#ed9e76" stop-opacity=".502"/><stop offset=".898" stop-color="#f0aa86" stop-opacity=".18"/></radialGradient><path d="M5.8 7.1q-.1.95-.8 1.15l-.6.2-.5.25-.5.35q-.5.45-1.05.2-.7-.65-1.25-.75l-.75-.4-.3-.7V7l.2-.5-.05.25q-.05.45.3.85.35.4 1.15.55l.25-.1.5-.05.15.1.3.05.3.05.65-.3q.55-.2 1.15 0 .7 0 .85-.8" fill="url(#a)"/><radialGradient id="b" gradientUnits="userSpaceOnUse" gradientTransform="matrix(.00757 0 0 .00697 3 7.55)" spreadMethod="pad" cx="0" cy="0" r="819.2" fx="0" fy="0"><stop offset="0" stop-color="#e6805c" stop-opacity=".863"/><stop offset=".337" stop-color="#ed9e76" stop-opacity=".69"/><stop offset=".776" stop-color="#f0aa86" stop-opacity=".263"/><stop offset="1" stop-color="#f0aa86" stop-opacity="0"/></radialGradient><path d="M5 5.45l-.2-.25q-.6-.75-.7-1.75L4.05 2l.05-.9q.1-.5.6-.7l-.1.4-.05.15-.05.45q-.1 2.4.6 3.45l.2.3.35.65.2.7v.25l-.05.35q-.15.8-.85.8-.6-.2-1.15 0l-.65.3-.3-.05-.3-.05L2.4 8l-.5.05-.25.1Q.85 8 .5 7.6q-.35-.4-.3-.85l.05-.25.05-.15.05-.25-.05.4q0 .55.45.55l.5-.15.6-.1h.3l.6.2.7-.05.65-.1.65.2.6.1.05-.55v-.5l-.35-.5L5 5.45" fill="url(#b)"/><radialGradient id="c" gradientUnits="userSpaceOnUse" gradientTransform="matrix(.01204 0 0 .01204 -1.05 3.85)" spreadMethod="pad" cx="0" cy="0" r="819.2" fx="0" fy="0"><stop offset="0" stop-color="#e89573" stop-opacity=".671"/><stop offset="1" stop-color="#ffdec2" stop-opacity="0"/></radialGradient><path d="M4.1 1.1l-.05.9.05 1.45q.1 1 .7 1.75l.2.25h-.2l-.1.1-.05.7-.15.45.45.25.45-.35-.05.55-.6-.1-.65-.2-.65.1-.7.05-.6-.2h-.3l-.6.1-.5.15Q.3 7.05.3 6.5l.05-.4.35-.95.5-1.4.2-1-.1-1.05Q1.15 1.1.25.1L.3.05q.95-.1 1.6.5.65.6.2 3.25l-.2 1.75.1.75q.15.35.9.55l.45-.1.45-.1L4 6l-.15-1.35-.2-1.6v-1.7q0-1 1.15-1.35l-.1.4q-.5.2-.6.7m-3 4.4v.05q-.4.25-.5.7-.15.5 0 .6l.3-.2.65-.1-.2-.3V5.7l-.1-.2H1.1" fill="url(#c)"/><path d="M1.15 5.5h.1l.1.2v.55l.2.3-.65.1-.3.2q-.15-.1 0-.6.1-.45.5-.7l.05-.05" fill="#f8c8aa"/><path d="M2.3 7.55h-.6l-.45-.1q-.05-.1.05-.15l.3-.05.5.15.15.15h.05m1.8 0l-.45-.05q-.15.05.05-.1.25-.15.45-.15l.4.1.1.1-.55.1" fill="#8d4e44"/><radialGradient id="d" gradientUnits="userSpaceOnUse" gradientTransform="matrix(.00052 0 0 .00276 2.95 2.6)" spreadMethod="pad" cx="0" cy="0" r="819.2" fx="0" fy="0"><stop offset="0" stop-color="#fff" stop-opacity=".561"/><stop offset="1" stop-color="#fff" stop-opacity="0"/></radialGradient><path d="M3.2 4.75l-.3.65q-.2 0-.35-.65-.15-.65-.15-1.6 0-.9.15-1.55T2.9.95l.3.65.15 1.55-.15 1.6" fill="url(#d)"/><radialGradient id="e" gradientUnits="userSpaceOnUse" gradientTransform="matrix(.00087 0 .00003 .00069 3.1 5.9)" spreadMethod="pad" cx="0" cy="0" r="819.2" fx="0" fy="0"><stop offset=".314" stop-color="#fff" stop-opacity=".663"/><stop offset="1" stop-color="#fff" stop-opacity="0"/></radialGradient><path d="M3.65 6.35H3.6l-.5.1-.45-.1-.2-.45.15-.35.45-.15.45.1.05.05.25.35-.15.45" fill="url(#e)"/><radialGradient id="f" gradientUnits="userSpaceOnUse" gradientTransform="matrix(.00476 0 0 .0016 3.05 .7)" spreadMethod="pad" cx="0" cy="0" r="819.2" fx="0" fy="0"><stop offset="0" stop-color="#e89573" stop-opacity=".514"/><stop offset="1" stop-color="#ffdec2" stop-opacity="0"/></radialGradient><path d="M4.2.05L3.85 1.2l-.15.05-.45-.1-.45-.05-.45.1-.25.05Q2.3.65 1.9.1l.6.1.8.05.6-.15.3-.05" fill="url(#f)"/></g></svg>