<svg xmlns="http://www.w3.org/2000/svg" width="8" height="9"><g><path d="M1.7 6.75q.15-.65.5-.65l.3.7v.1l-.25.35-.35.2q-.35 0-.2-.7" fill="#fbc6a8"/><radialGradient id="a" gradientUnits="userSpaceOnUse" gradientTransform="matrix(.006 0 0 .00377 4.05 7.2)" spreadMethod="pad" cx="0" cy="0" r="819.2" fx="0" fy="0"><stop offset=".008" stop-color="#ed9e76" stop-opacity=".624"/><stop offset="1" stop-color="#f0aa86" stop-opacity="0"/></radialGradient><path d="M6.6 7.25v.05l-.1.4-.3.3-.5.1-.55-.05-.55.1-.15.05-.5.1-.1-.05-.35-.1-.7-.1-.55.05-.6-.1q-.3-.15-.35-.75l.2-.1v.2l.05.2.35.4h.4l.5-.05.65.1.35.1h.1l.45-.05L4.5 8l.55-.1.5.05h.4l.3-.25.05-.15.05-.05v-.2l.05-.15.2.1" fill="url(#a)"/><radialGradient id="b" gradientUnits="userSpaceOnUse" gradientTransform="matrix(.0074 0 0 .0047 3.75 8.4)" spreadMethod="pad" cx="0" cy="0" r="819.2" fx="0" fy="0"><stop offset="0" stop-color="#cf7052" stop-opacity=".812"/><stop offset=".651" stop-color="#ed9e76" stop-opacity=".702"/><stop offset="1" stop-color="#f0aa86" stop-opacity=".392"/></radialGradient><path d="M6.3 7.55l-.05.15-.3.25h-.4l-.5-.05-.55.1-.15.05-.45.05h-.1L3.45 8l-.65-.1-.5.05h-.4l-.35-.4-.05-.2.15.15.35.05.4-.15.6-.05.55.25.5.15.45-.15.55-.25.6.05.45.15.25-.05-.05.05" fill="url(#b)"/><radialGradient id="c" gradientUnits="userSpaceOnUse" gradientTransform="matrix(.0075 0 0 .0075 3.8 3.3)" spreadMethod="pad" cx="0" cy="0" r="819.2" fx="0" fy="0"><stop offset=".102" stop-color="#f0aa86" stop-opacity=".392"/><stop offset=".51" stop-color="#ed9e76" stop-opacity=".522"/><stop offset=".863" stop-color="#f0aa86" stop-opacity=".392"/></radialGradient><path d="M5.55 1.9l-.2.9.35 1.7.25.7.15.35.3 1.4v.2l-.05.15v.2l-.25.05-.45-.15-.6-.05-.55.25-.45.15-.5-.15L3 7.35l-.6.05-.4.15-.35-.05-.15-.15v-.4q0-.45.3-1.4l.1-.35.25-.7.35-1.7-.2-.9L1.85.05q1.25 1.7 1.1 3.05l-.2 2.35q-.1 1.05.15 1.45v.05l.7.5q.35.2.8 0l.55-.55.15-1.45-.25-2.35Q4.7 1.75 6.2 0l-.65 1.9M1.9 7.45l.35-.2.25-.35v-.1l-.3-.7q-.35 0-.5.65-.15.7.2.7M5.7 6.1q-.2 0-.3.8v.05l.25.3.35.2q.3 0 .15-.7l-.05-.3-.4-.35" fill="url(#c)"/><radialGradient id="d" gradientUnits="userSpaceOnUse" gradientTransform="matrix(.00174 .00174 -.0025 .0025 1.85 6.4)" spreadMethod="pad" cx="0" cy="0" r="819.2" fx="0" fy="0"><stop offset=".039" stop-color="#ed9e76" stop-opacity=".553"/><stop offset=".318" stop-color="#f0aa86" stop-opacity=".392"/><stop offset="1" stop-color="#f0aa86" stop-opacity="0"/></radialGradient><path d="M1.3 7.25l-.55.4-.75.8q.6-1.9 1.5-2.85l.4-.4-.1.35q-.3.95-.3 1.4v.2l-.2.1" fill="url(#d)"/><radialGradient id="e" gradientUnits="userSpaceOnUse" gradientTransform="matrix(.00198 -.00114 .00183 .00317 6.15 6.6)" spreadMethod="pad" cx="0" cy="0" r="819.2" fx="0" fy="0"><stop offset=".039" stop-color="#ed9e76" stop-opacity=".553"/><stop offset=".318" stop-color="#f0aa86" stop-opacity=".392"/><stop offset="1" stop-color="#f0aa86" stop-opacity="0"/></radialGradient><path d="M6.4 7.15v-.2l-.3-1.4-.15-.35.45.4q.9.95 1.5 2.85l-.75-.8-.55-.4-.2-.1" fill="url(#e)"/><radialGradient id="f" gradientUnits="userSpaceOnUse" gradientTransform="matrix(.0078 0 0 .0078 3.9 6.8)" spreadMethod="pad" cx="0" cy="0" r="819.2" fx="210524" fy="0"><stop offset="0" stop-color="#ed9e76" stop-opacity=".29"/><stop offset=".447" stop-color="#f0aa86" stop-opacity=".212"/><stop offset="1" stop-color="#f0aa86" stop-opacity=".424"/></radialGradient><path d="M2.85.45l.4 1.15.05.85-.15 1.95-.1 1.85.2.7.25.2.35.1.1.05.35-.1.3-.3.15-.65-.1-1.85-.15-1.95.05-.85q.05-.6.4-1.15L6.2 0Q4.7 1.75 4.85 3.1l.25 2.35-.15 1.45-.55.55q-.45.2-.8 0l-.7-.5V6.9q-.25-.4-.15-1.45l.2-2.35Q3.1 1.75 1.85.05l1 .4" fill="url(#f)"/><path d="M3.15 7.75l-.3-.05-.35.05-.25-.05q.1-.15.25-.15l.5.05.55.35-.4-.2M5.3 7.7l-.3.05-.45.2.55-.35.5-.05q.15 0 .3.15l-.3.05-.3-.05" fill="#823709"/><radialGradient id="g" gradientUnits="userSpaceOnUse" gradientTransform="matrix(.0008 -.0001 .00005 .00085 3.95 6.5)" spreadMethod="pad" cx="0" cy="0" r="819.2" fx="0" fy="0"><stop offset=".071" stop-color="#fff" stop-opacity=".922"/><stop offset="1" stop-color="#fff" stop-opacity="0"/></radialGradient><path d="M3.4 6.1q.25-.2.5-.25l.45.15.2.5-.15.5-.45.25q-.25 0-.45-.2l-.25-.45q0-.3.15-.5" fill="url(#g)"/><radialGradient id="h" gradientUnits="userSpaceOnUse" gradientTransform="matrix(.00069 0 0 .00307 3.95 3.55)" spreadMethod="pad" cx="0" cy="0" r="819.2" fx="0" fy="0"><stop offset="0" stop-color="#fff" stop-opacity=".733"/><stop offset="1" stop-color="#fff" stop-opacity="0"/></radialGradient><path d="M4.25 5.35l-.3.7-.3-.7-.1-1.8.1-1.8.3-.7q.2 0 .3.7l.15 1.8-.15 1.8" fill="url(#h)"/></g></svg>