<svg xmlns="http://www.w3.org/2000/svg" width="6" height="11"><g><radialGradient id="a" gradientUnits="userSpaceOnUse" gradientTransform="matrix(.00401 0 0 .00365 4.7 7.7)" spreadMethod="pad" cx="0" cy="0" r="819.2" fx="0" fy="0"><stop offset=".016" stop-color="#cf7052" stop-opacity=".812"/><stop offset=".522" stop-color="#ed9e76" stop-opacity=".502"/><stop offset=".898" stop-color="#f0aa86" stop-opacity=".18"/></radialGradient><path d="M3 8.95v-.2l.3-.15.05-.05.55-.15.45.1.65.05.2-.1q.5-.4.45-1.4L5.4 6.4 5.2 6q.65.8.7 1.4 0 .55-.4 1.05t-1.2.35l-.55-.1-.4.15H3.3l-.3.1" fill="url(#a)"/><radialGradient id="b" gradientUnits="userSpaceOnUse" gradientTransform="matrix(.00542 0 0 .00739 3.45 4.5)" spreadMethod="pad" cx="0" cy="0" r="819.2" fx="0" fy="0"><stop offset="0" stop-color="#ed9e76" stop-opacity=".522"/><stop offset=".918" stop-color="#f0aa86" stop-opacity=".263"/></radialGradient><path d="M5.4 6.4l.25.65q.05 1-.45 1.4v-.2l-.6-.6q-.55-.2-.35-.65L4.1 5.5l.05.7-.2.95q-.2.5-1.05.65-.9-.15-1.1-.65l-.2-.95.05-.7q-.3 1-.15 1.5.2.45-.35.65-.5.2-.6.6v.1q-.35-.4-.3-1.3l.2-.65.2-.35.05-.1.75-1.6.2-1L1.5 2.3 1.05 0l.9 1.2q.65 1.3.15 4.25-.3.75-.3 1.05 0 .65.35.9l.7.3q.35 0 .8-.4.4-.4.2-1.3-.4-2.45-.3-3.4.1-.95.5-1.6l.8-1-.5 2.3-.15 1.05.25 1L5.2 6l.2.4m-.95-.3v.8q-.35.55.2.6l.6.05.05-.15-.25-.65-.6-.65m-3.7.65q-.3.4-.3.65l.05.15.6-.05q.6-.05.2-.6v-.8l-.55.65" fill="url(#b)"/><radialGradient id="c" gradientUnits="userSpaceOnUse" gradientTransform="matrix(.00752 0 0 .0039 2.9 7.95)" spreadMethod="pad" cx="0" cy="0" r="819.2" fx="0" fy="0"><stop offset="0" stop-color="#e67d5c" stop-opacity=".624"/><stop offset=".537" stop-color="#ed9e76" stop-opacity=".6"/><stop offset="1" stop-color="#f0aa86" stop-opacity=".263"/></radialGradient><path d="M2.5 8.55l-.55-.15-.45.1-.65.05-.3-.2v-.1q.1-.4.6-.6.55-.2.35-.65-.15-.5.15-1.5l-.05.7.2.95q.2.5 1.1.65.85-.15 1.05-.65l.2-.95-.05-.7.15 1.5q-.2.45.35.65l.6.6v.2l-.2.1-.65-.05-.45-.1-.55.15-.05.05-.3.15q-.2 0-.5-.2" fill="url(#c)"/><radialGradient id="d" gradientUnits="userSpaceOnUse" gradientTransform="matrix(.0035 0 0 .00337 1.55 7.3)" spreadMethod="pad" cx="0" cy="0" r="819.2" fx="0" fy="0"><stop offset=".016" stop-color="#cf7052" stop-opacity=".812"/><stop offset=".522" stop-color="#ed9e76" stop-opacity=".502"/><stop offset=".898" stop-color="#f0aa86" stop-opacity=".18"/></radialGradient><path d="M2.65 8.9H2.6l-.05-.05-.4-.15-.55.1q-.8.15-1.2-.35-.45-.5-.4-1.05.05-.6.65-1.35l-.2.35-.2.65q-.05.9.3 1.3l.3.2.65-.05.45-.1.55.15q.3.2.5.2v.2h-.05l-.3-.05" fill="url(#d)"/><radialGradient id="e" gradientUnits="userSpaceOnUse" gradientTransform="matrix(.0023 0 0 .00311 3.1 10.05)" spreadMethod="pad" cx="0" cy="0" r="819.2" fx="0" fy="0"><stop offset="0" stop-color="#e89573" stop-opacity=".592"/><stop offset="1" stop-color="#ffdec2" stop-opacity="0"/></radialGradient><path d="M2.95 8.95H3l.3-.1-.05 1.35q-.1.4-.75.25v-.3l.15-1.25.3.05" fill="url(#e)"/><path d="M1.6 8h-.15l-.3.05Q.9 8.1 1.1 7.9l.3-.2.35.05.3.15-.1.05L1.6 8m2.7.05L3.9 8l-.3-.1.1-.1q.15-.1.25-.1h.4l.3.1-.05.15-.3.1" fill="#8d4e44"/><radialGradient id="f" gradientUnits="userSpaceOnUse" gradientTransform="matrix(.0006 0 0 .00368 2.9 3.15)" spreadMethod="pad" cx="0" cy="0" r="819.2" fx="0" fy="0"><stop offset="0" stop-color="#fff" stop-opacity=".561"/><stop offset="1" stop-color="#fff" stop-opacity="0"/></radialGradient><path d="M3.3 5.05q-.1.7-.35.7-.2 0-.35-.7-.15-.65-.15-1.6 0-.95.15-1.65.15-.65.35-.65.25 0 .35.65l.2 1.65-.2 1.6" fill="url(#f)"/><radialGradient id="g" gradientUnits="userSpaceOnUse" gradientTransform="matrix(.00096 -.00035 .00029 .0008 2.9 6.6)" spreadMethod="pad" cx="0" cy="0" r="819.2" fx="0" fy="0"><stop offset=".314" stop-color="#fff" stop-opacity=".663"/><stop offset="1" stop-color="#fff" stop-opacity="0"/></radialGradient><path d="M3.2 6l.2.3.1.45-.05.3-.35.2-.55.05-.35-.45q-.15-.2 0-.45l.4-.4H3.2" fill="url(#g)"/></g></svg>