<svg xmlns="http://www.w3.org/2000/svg" width="7" height="10"><g transform="translate(3.25 4.65)"><path d="M.85 2.6l.4-.85.4-.45.4.4.2.7-.25.25h-.45l-.45.05q-.25.05-.25-.1" fill="#fbc6a8"/><radialGradient id="a" gradientUnits="userSpaceOnUse" gradientTransform="matrix(.00314 0 0 .00722 1.45 -1.35)" spreadMethod="pad" cx="0" cy="0" r="819.2" fx="0" fy="0"><stop offset=".196" stop-color="#ed9e76" stop-opacity=".424"/><stop offset=".914" stop-color="#f0aa86" stop-opacity="0"/></radialGradient><path d="M2.6 2.85L2.5 2v-.05l-.25-.8-.45-1.2-.3-1.4-.1-.85.2-1 .25-.6-.15.85q0 .45.15.8l.8 1.6Q3.3.6 3.1 1.4l-.25.8-.05.1-.05.2-.15.35" fill="url(#a)"/><radialGradient id="b" gradientUnits="userSpaceOnUse" gradientTransform="matrix(.00404 0 0 .0063 -.55 -.95)" spreadMethod="pad" cx="0" cy="0" r="819.2" fx="0" fy="0"><stop offset="0" stop-color="#ed9e76" stop-opacity=".341"/><stop offset=".914" stop-color="#f0aa86" stop-opacity="0"/></radialGradient><path d="M-2.85 2.25l-.1-.3-.15-1.2.25-.95.8-1.25q.65-.85.7-1.45l.05-.8.15.4.1 1-.1.9L-1.5.05l-.75 1.3-.2.45-.1.25v.05l-.15.5v.25l-.15-.6" fill="url(#b)"/><radialGradient id="c" gradientUnits="userSpaceOnUse" gradientTransform="matrix(.00333 0 0 .00336 .4 2.9)" spreadMethod="pad" cx="0" cy="0" r="819.2" fx="0" fy="0"><stop offset="0" stop-color="#cf5f3c" stop-opacity=".863"/><stop offset="1" stop-color="#ed9e76" stop-opacity=".69"/></radialGradient><path d="M2.25 1.15l.25.8v.35l-.3.85-.55.2-.65.2-.45.15-.4.15H-.2l-.45-.15-.4-.15-.65-.2-.55-.3-.3-.75v-.1l.05-.1.05-.3.2-.45.75-1.3V.1l-.05.5-.3.5-.5 1v.3l.05.1.35.25q.35.05 1.1.5l1.2.2.85-.4.7-.3.45-.2.05-.35-.15-.5L2 1.35V1.3L1.8.75v-.8l.45 1.2" fill="url(#c)"/><radialGradient id="d" gradientUnits="userSpaceOnUse" gradientTransform="matrix(.00304 0 0 .00226 -.8 3)" spreadMethod="pad" cx="0" cy="0" r="819.2" fx="0" fy="0"><stop offset=".243" stop-color="#cf7052" stop-opacity=".812"/><stop offset=".604" stop-color="#ed9e76" stop-opacity=".702"/><stop offset=".898" stop-color="#f0aa86" stop-opacity=".392"/></radialGradient><path d="M-2.5 2.1l-.05.1v.1l.3.75.55.3.65.2.4.15.45.15h.1l.05.45-.15-.05-.25-.15-.1-.05-.1-.05-.95-.2-.85-.3-.15-.25-.1-.4V2.6l.15-.5v-.05l.1-.25-.05.3" fill="url(#d)"/><radialGradient id="e" gradientUnits="userSpaceOnUse" gradientTransform="translate(1.4 3.3) scale(.00336)" spreadMethod="pad" cx="0" cy="0" r="819.2" fx="0" fy="0"><stop offset=".243" stop-color="#cf7052" stop-opacity=".812"/><stop offset=".604" stop-color="#ed9e76" stop-opacity=".702"/><stop offset=".898" stop-color="#f0aa86" stop-opacity=".392"/></radialGradient><path d="M2.6 2.85l-.2.55-.75.35-.8.1-.3.15-.45.25-.15.05-.05-.45h.25l.4-.15.45-.15.65-.2.55-.2.3-.85V2l.1.85" fill="url(#e)"/><radialGradient id="f" gradientUnits="userSpaceOnUse" gradientTransform="matrix(.00323 0 0 .00215 .1 4.25)" spreadMethod="pad" cx="0" cy="0" r="819.2" fx="0" fy="0"><stop offset="0" stop-color="#ed9e76" stop-opacity=".702"/><stop offset=".918" stop-color="#f0aa86" stop-opacity=".392"/></radialGradient><path d="M2.75 2.5q.05.8-.4 1.3l-.25.25-.05.05-.05.05-.05.05-1.25.15-.6.3-.3-.05-.6-.3-1.05-.1-.15-.1-.6-.85.15.25.85.3.95.2.1.05.1.05.25.15.15.05.15-.05L.55 4l.3-.15.8-.1.75-.35.2-.55.15-.35" fill="url(#f)"/><radialGradient id="g" gradientUnits="userSpaceOnUse" gradientTransform="matrix(.00636 0 0 .00778 1.55 -2.1)" spreadMethod="pad" cx="0" cy="0" r="819.2" fx="0" fy="0"><stop offset="0" stop-color="#e67d5c" stop-opacity=".561"/><stop offset=".412" stop-color="#f7af8a" stop-opacity=".561"/><stop offset=".886" stop-color="#ed9e76" stop-opacity=".631"/></radialGradient><path d="M1.6-3.3l-.2 1 .1.85.3 1.4v.8l.2.55v.05l.25.35.15.5-.05.35-.45.2-.7.3-.85.4-1.2-.2q-.75-.45-1.1-.5l-.35-.25.15.1.15.05h.45l.45.05q.25.05.25-.1l-.05-.1.25.05.55.4q.6.05.8-.45l.15-.7L.8.45l-.05-1.5L.8-3l.1-.5q.45-1.1 1.35-1.1l-.4.7-.25.6m-.5 6l.45-.05H2l.25-.25-.2-.7-.4-.4-.4.45-.4.85q0 .15.25.1" fill="url(#g)"/><radialGradient id="h" gradientUnits="userSpaceOnUse" gradientTransform="matrix(.0066 0 0 .0092 .55 -1.65)" spreadMethod="pad" cx="0" cy="0" r="819.2" fx="0" fy="0"><stop offset="0" stop-color="#e6805c" stop-opacity=".431"/><stop offset=".518" stop-color="#ed9e76" stop-opacity=".29"/><stop offset="1" stop-color="#f0aa86" stop-opacity=".212"/></radialGradient><path d="M-.9 2.5l-.05-.15-.3-.6-.4-.45-.4.4-.15.45-.05.25.1.2-.15-.1-.05-.1v-.3l.5-1 .3-.5.05-.5V.05l.35-1.45.1-.9-.1-1-.15-.4-.5-.9q.65-.15 1.1.55l.15.5.15.85-.05.75L-.7 1.6v.55l.05.3v.1L-.9 2.5" fill="url(#h)"/><radialGradient id="i" gradientUnits="userSpaceOnUse" gradientTransform="matrix(.00105 -.00061 .00087 .0015 -2.45 3.9)" spreadMethod="pad" cx="0" cy="0" r="819.2" fx="0" fy="0"><stop offset="0" stop-color="#fff" stop-opacity=".361"/><stop offset="1" stop-color="#fff" stop-opacity="0"/></radialGradient><path d="M-1.85 4.2l.25.45-.25-.05-.75-.1-.45-.2-.2-.55.1-.7.3-.8.15.6.1.4.6.85.15.1" fill="url(#i)"/><radialGradient id="j" gradientUnits="userSpaceOnUse" gradientTransform="matrix(.0006 .00034 -.00056 .001 2.8 3.8)" spreadMethod="pad" cx="0" cy="0" r="819.2" fx="0" fy="0"><stop offset="0" stop-color="#fff" stop-opacity=".361"/><stop offset="1" stop-color="#fff" stop-opacity="0"/></radialGradient><path d="M2 4.15l.05-.05.05-.05.25-.25q.45-.5.4-1.3l.05-.2.05-.1.35 1.05.1.65-.15.4-.25.3h-.15l-.35.05-.3-.1-.2-.2.05-.15.05-.05" fill="url(#j)"/><path d="M1.7 3.2l-.4.15-.2.05-.25.05-.35.1.15-.1.35-.2.3-.15.25-.05.35.05-.2.1m-3.05.1q-.5-.15-.6-.3l.15-.05q.25-.05.85.35l.55.3-.95-.3" fill="#823709"/><radialGradient id="k" gradientUnits="userSpaceOnUse" gradientTransform="matrix(.0007 .00005 -.00003 .00421 .15 -.65)" spreadMethod="pad" cx="0" cy="0" r="819.2" fx="0" fy="0"><stop offset=".314" stop-color="#fff" stop-opacity=".651"/><stop offset="1" stop-color="#fff" stop-opacity="0"/></radialGradient><path d="M.55-.55L.4 1.8l-.05.5-.05.1-.2.35-.2-.4V2.3l-.1-.5-.1-2.45.15-2.4q.1-1 .3-.9l.3.95.1 2.45" fill="url(#k)"/></g></svg>