<svg xmlns="http://www.w3.org/2000/svg" width="6" height="11"><g transform="translate(-67.15 -28.3)"><radialGradient id="a" gradientUnits="userSpaceOnUse" gradientTransform="matrix(.00072 -.00002 .00003 .00328 70.1 33.1)" spreadMethod="pad" cx="0" cy="0" r="819.2" fx="0" fy="0"><stop offset=".314" stop-color="#fff" stop-opacity=".522"/><stop offset="1" stop-color="#fff" stop-opacity="0"/></radialGradient><path d="M70.25 31.4l.1 1.85-.05 1.9-.25.75-.2-.75q-.15-.85-.15-1.95l.1-1.75q.05-.8.2-.8l.25.75" fill="url(#a)"/><radialGradient id="b" gradientUnits="userSpaceOnUse" gradientTransform="matrix(.00089 -.00006 .00005 .00095 69.95 35.75)" spreadMethod="pad" cx="0" cy="0" r="819.2" fx="0" fy="0"><stop offset=".314" stop-color="#fff" stop-opacity=".671"/><stop offset="1" stop-color="#fff" stop-opacity="0"/></radialGradient><path d="M70.45 36.3l-.45.3-.5-.25-.3-.45q-.05-.35.25-.65l.45-.2.5.15.25.6-.2.5" fill="url(#b)"/><radialGradient id="c" gradientUnits="userSpaceOnUse" gradientTransform="matrix(-.00888 -.00041 -.00041 .00888 72 35.1)" spreadMethod="pad" cx="0" cy="0" r="819.2" fx="0" fy="0"><stop offset="0" stop-color="#e6805c" stop-opacity=".431"/><stop offset=".227" stop-color="#ed9e76" stop-opacity=".29"/><stop offset=".694" stop-color="#f0aa86" stop-opacity=".212"/><stop offset=".894" stop-color="#f0aa86" stop-opacity="0"/></radialGradient><path d="M71.8 30.05l-.35.25-.35.45-.05.15v1.4l.1 1.7.35 2.15-.45.95-.65.3h-.15q.7-.25.75-.85l-.2-4.25v-.55l.05-.35-.05-.5q.05-.3.65-.85h.35" fill="url(#c)"/><radialGradient id="d" gradientUnits="userSpaceOnUse" gradientTransform="matrix(.00406 -.0023 .0016 .00298 72.4 38.85)" spreadMethod="pad" cx="0" cy="0" r="819.2" fx="57" fy="0"><stop offset=".243" stop-color="#cf7052" stop-opacity=".812"/><stop offset=".604" stop-color="#ed9e76" stop-opacity=".702"/><stop offset=".898" stop-color="#f0aa86" stop-opacity=".392"/></radialGradient><path d="M72.2 35.25l.6.7.2.9-.15.45-.35.4-.35.3-.15.05-.75.35-.85-.2h-.05l-.6-.25h.05l.3.1h.4q.4-.2.8-.6.4-.4 1.05-.45l.15-.05h.05l.2-.35v-.2l-.3-.75-.05-.05-.2-.35" fill="url(#d)"/><radialGradient id="e" gradientUnits="userSpaceOnUse" gradientTransform="matrix(.00304 -.00017 .00026 .00473 70.25 30)" spreadMethod="pad" cx="0" cy="0" r="819.2" fx="0" fy="0"><stop offset=".259" stop-color="#ed9e76" stop-opacity=".09"/><stop offset="1" stop-color="#e67d5c" stop-opacity=".314"/></radialGradient><path d="M71.6 29.9q-.6.6-1.3.7l-.75-.1-.8-.7-1.5-1.3h.55l1.45.3 1.05.25 2.1-.75.55.15-.05.05-.75.65-.4.25h.2l-.35.5" fill="url(#e)"/><radialGradient id="f" gradientUnits="userSpaceOnUse" gradientTransform="matrix(-.0024 .00783 -.00482 -.0015 71.15 35.9)" spreadMethod="pad" cx="0" cy="0" r="819.2" fx="0" fy="0"><stop offset="0" stop-color="#e67d5c" stop-opacity=".714"/><stop offset=".416" stop-color="#ed9e76" stop-opacity=".58"/><stop offset=".773" stop-color="#f0aa86" stop-opacity=".392"/><stop offset="1" stop-color="#f0aa86" stop-opacity="0"/></radialGradient><path d="M72.5 36.95l-.3-.05q-.35 0-.9.5h-.05l-.75.5h-.55l-.65-.55-.1-.1-.25-.4-.1-.15h-.1l-.05-.05-.4-.15q-.4.05-.4.45l-.1-.25-.05-.1v-.55q0-.5.75-1.55l.35-.65.15-.75.15-1.15-.05-.2-.15-1.15-.2-.6.35.2.35.4.05.05v-.05l.05-.05V31.7l.05.3v.25l-.05 1.6v.05l-.15 1.7-.1.4q0 .65.3 1t.7.35h.15l.65-.35q.35-.2.25-1.1l-.15-.45-.05-.75-.05-.95-.1-1.3q-.05-.9.15-1.6v-.35l.5-.4h.05l.35-.2-.45.95q-.25 1.3.05 2.25l.15.6.2 1.05.3.7.15.35.05.05.3.75v.15l-.2.4-.1-.2m-.9-1l-.05.85H72l.55-.1-.2-.25-.45.05-.25-.5q0-.35-.05-.05m-3.35.2l.4.25.35.2q-.2-1.25-.55-.85l-.4.35v.15l.2-.1" fill="url(#f)"/><radialGradient id="g" gradientUnits="userSpaceOnUse" gradientTransform="matrix(.00804 -.00043 .00043 .00804 70.45 37.9)" spreadMethod="pad" cx="0" cy="0" r="819.2" fx="0" fy="0"><stop offset=".239" stop-color="#cf5f3c" stop-opacity=".863"/><stop offset="1" stop-color="#ed9e76" stop-opacity=".69"/></radialGradient><path d="M72.6 37.15h-.05l-.15.05q-.65 0-1.05.45l-.8.5h-.35l-.35-.05-.2-.1-.4-.3-.55-.55q-.5.15-.8-.2 0-.4.4-.45l.4.15.05.05h.1l.1.15.25.4.1.1.65.55h.55l.75-.5h.05q.55-.5.9-.5l.3.05.1.2" fill="url(#g)"/><path d="M71.65 36l.25.5.45-.05.2.25-.55.1h-.45l.05-.85q.05-.3.05.05" fill="#fab99e"/><radialGradient id="h" gradientUnits="userSpaceOnUse" gradientTransform="matrix(.00316 -.00117 .001 .00269 68.65 38.15)" spreadMethod="pad" cx="0" cy="0" r="819.2" fx="0" fy="0"><stop offset=".11" stop-color="#cf7c52" stop-opacity=".451"/><stop offset=".647" stop-color="#823709"/></radialGradient><path d="M68.45 37.05l-.25-.15h.1l.2-.05h.2l.2.25h-.05l-.4-.05" fill="url(#h)"/><radialGradient id="i" gradientUnits="userSpaceOnUse" gradientTransform="matrix(-.00485 0 0 .0057 70.4 30.2)" spreadMethod="pad" cx="0" cy="0" r="819.2" fx="0" fy="0"><stop offset=".102" stop-color="#d16e47" stop-opacity=".702"/><stop offset="1" stop-color="#fac7a9" stop-opacity=".463"/></radialGradient><path d="M71.05 31.5q.1-1.25.75-1.85.6-.6 1.1-.3.45.25-.25.95-.75.6-.8 1.9-.05 1.2-.5.9-.45-.3-.3-1.6" fill="url(#i)"/><radialGradient id="j" gradientUnits="userSpaceOnUse" gradientTransform="matrix(.00264 0 0 .00264 69.45 30.6)" spreadMethod="pad" cx="0" cy="0" r="819.2" fx="0" fy="0"><stop offset=".102" stop-color="#d16e47" stop-opacity=".702"/><stop offset="1" stop-color="#fac7a9" stop-opacity=".463"/></radialGradient><path d="M68.55 29.7q.65.45.85 1.45v1.8q-.15.7-.5-.7-.3-1.5-1.15-2-.9-.55-.4-.75.5-.25 1.2.2" fill="url(#j)"/></g></svg>