<svg xmlns="http://www.w3.org/2000/svg" width="8" height="10"><g transform="translate(3.7 4.65)"><path d="M-1.4 1.6v.15l-.05.05-.3.65-.35.2-.2-.1-.05-.15.35-.7.45-.4q.15 0 .15.3" fill="#fbc6a8"/><radialGradient id="a" gradientUnits="userSpaceOnUse" gradientTransform="matrix(.00758 0 0 .0102 -.95 1.05)" spreadMethod="pad" cx="0" cy="0" r="819.2" fx="0" fy="0"><stop offset=".235" stop-color="#f58b69" stop-opacity=".243"/><stop offset="1" stop-color="#ffdec2" stop-opacity="0"/></radialGradient><path d="M1.6 1.05l-.15.1.65.8.2.7-.05.25H1.8l-.25-.25-.15-.2q-.45-.2-.8.2l-.6.4-.65-.35-.2-.1-.3-1L-1-.65l.15-2-.05-.55-.4-.8v-.15l-.05-.25.25.35.2.3.05.1.25.5.05.55-.1 2.4-.05.55-.15 1.55.6.8h.3q.6-.25.65-.8L.5.35V-.2L.35-2.55v-.05l.1-.55.2-.5.35-.5.2-.2-.05.15-.05.4-.05.2v.15l-.05.2v.6l.05.4.2 1.2.15.9L1.6 1l.05.1-.05-.05m-.4.55v.1l.05.05v.05l.3.65q.15.2.4.2l.2-.1.05-.15q0-.3-.4-.7l-.45-.4q-.15 0-.15.3" fill="url(#a)"/><radialGradient id="b" gradientUnits="userSpaceOnUse" gradientTransform="matrix(.00443 0 0 .0031 -.1 2.7)" spreadMethod="pad" cx="0" cy="0" r="819.2" fx="0" fy="0"><stop offset=".11" stop-color="#ed9e76" stop-opacity=".702"/><stop offset=".533" stop-color="#cf7052" stop-opacity=".561"/><stop offset=".835" stop-color="#f0aa86" stop-opacity=".392"/></radialGradient><path d="M-.85 2.6l.2.1.65.35.6-.4q.35-.4.8-.2l.15.2.25.25h.45l-.15.25-.55.45-.25-.05-.15-.1-.4-.15-.45.05-.35.2H-.1l-.35-.2-.5-.05-.4.15-.15.1-.25.05-.55-.45-.1-.15h.2l.4-.3.45-.25.5.15" fill="url(#b)"/><radialGradient id="c" gradientUnits="userSpaceOnUse" gradientTransform="matrix(.0073 0 0 .00899 -3.7 -.45)" spreadMethod="pad" cx="0" cy="0" r="819.2" fx="0" fy="0"><stop offset="0" stop-color="#e67d5c" stop-opacity=".69"/><stop offset=".337" stop-color="#ed9e76" stop-opacity=".69"/><stop offset=".792" stop-color="#f0aa86" stop-opacity=".392"/><stop offset="1" stop-color="#f0aa86" stop-opacity="0"/></radialGradient><path d="M-1.35 2.45l-.45.25-.4.3h-.2l-.05-.35.15-.65v-.05l.15-.25.35-.6.15-.9.2-1.25.05-.25-.4-1.85-.1-.4v-.6l.45.35.2.2-.05-.4.4.8.05.55-.15 2-.15 2.25.3 1-.5-.15m-.2-1.15l-.45.4-.35.7.05.15.2.1.35-.2.3-.65.05-.05V1.6q0-.3-.15-.3" fill="url(#c)"/><radialGradient id="d" gradientUnits="userSpaceOnUse" gradientTransform="matrix(.00775 0 0 .00426 -.85 2.6)" spreadMethod="pad" cx="0" cy="0" r="819.2" fx="0" fy="0"><stop offset=".196" stop-color="#ed9e76" stop-opacity=".553"/><stop offset=".6" stop-color="#f0aa86" stop-opacity=".392"/><stop offset="1" stop-color="#f0aa86" stop-opacity="0"/></radialGradient><path d="M-2.6 1.75l.15-.15.65-.5-.35.6-.15.25V2l-.15.65.05.35.1.15.55.45.25-.05.15-.1.4-.15.5.05.35.2h.05l.35-.2.45-.05.4.15.15.1.25.05.55-.45.15-.25.05-.25-.2-.7-.65-.8.15-.1.05.05.8.65q.8.7 1.25 2.9l-.6-.95q-.45-.85-.8-.45l-.65.4-.45-.05-.55-.2-.4.05-.45.25-.15.15h-.1l-.6-.05-1.05.2-.8.3-.55.05-.25-.25.3-1 .4-.85.15-.2.25-.3" fill="url(#d)"/><radialGradient id="e" gradientUnits="userSpaceOnUse" gradientTransform="matrix(.00717 0 0 .00912 -1.5 -.8)" spreadMethod="pad" cx="0" cy="0" r="819.2" fx="0" fy="0"><stop offset=".235" stop-color="#f58b69" stop-opacity=".29"/><stop offset="1" stop-color="#ffdec2" stop-opacity="0"/></radialGradient><path d="M-1.25-3.6l-.2-.2-.45-.35v.6l.1.4.4 1.85-.05.25-.2 1.25-.15.9-.65.5-.15.15-.25.3q.8-1.75.9-3.45v-.55l-.3-1.5-.5-1.2q.75-.1 1.45.55v.1l.05.4" fill="url(#e)"/><path d="M-.7 3l-.1.1h-.5l-.35-.15.15-.25.35-.1.45.4m2-.3l.15.25q0 .15-.35.15H.65L.5 3l.5-.4.3.1" fill="#823709"/><radialGradient id="f" gradientUnits="userSpaceOnUse" gradientTransform="matrix(.00063 -.00006 .00003 .00066 .15 1.8)" spreadMethod="pad" cx="0" cy="0" r="819.2" fx="0" fy="0"><stop offset=".071" stop-color="#fff" stop-opacity=".922"/><stop offset="1" stop-color="#fff" stop-opacity="0"/></radialGradient><path d="M-.25 1.5q.15-.15.35-.15l.35.1.15.35-.1.4-.35.2-.35-.15-.2-.35.15-.4" fill="url(#f)"/><radialGradient id="g" gradientUnits="userSpaceOnUse" gradientTransform="matrix(.00058 0 0 .00258 -.1 -.55)" spreadMethod="pad" cx="0" cy="0" r="819.2" fx="0" fy="0"><stop offset="0" stop-color="#fff" stop-opacity=".733"/><stop offset="1" stop-color="#fff" stop-opacity="0"/></radialGradient><path d="M.15.95l-.25.6-.25-.6-.1-1.5.1-1.45.25-.65.25.65.1 1.45-.1 1.5" fill="url(#g)"/></g></svg>