<?xml version="1.0" encoding="utf-8"?>
<svg version="1.1" id="Layer_1"
xmlns="http://www.w3.org/2000/svg"
xmlns:xlink="http://www.w3.org/1999/xlink"
xmlns:author="http://www.sothink.com"
width="24px" height="21px"
xml:space="preserve">
<g id="14" transform="matrix(1, 0, 0, 1, -58.2, -12.9)">
<path style="fill:#453530;fill-opacity:1" d="M81,28.6L81.05 28.6L81 28.7L81 28.6M78.15,26.65L78.15 26.6L78.15 26.65" />
<radialGradient
id="RadialGradID_325" gradientUnits="userSpaceOnUse" gradientTransform="matrix(0.0184784, 0, 0, 0.0188293, 76.8, 17.55)" spreadMethod ="pad" cx="0" cy="0" r="819.2" fx="0" fy="0" >
<stop  offset="0"  style="stop-color:#0F0F0F;stop-opacity:1" />
<stop  offset="0.988235"  style="stop-color:#1F1F26;stop-opacity:1" />
</radialGradient>
<path style="fill:url(#RadialGradID_325) " d="M61.65,27.65L61.6 27.65L61.65 27.65" />
<radialGradient
id="RadialGradID_326" gradientUnits="userSpaceOnUse" gradientTransform="matrix(0.0284119, 0, 0, 0.0142975, 74.75, 16.65)" spreadMethod ="pad" cx="0" cy="0" r="819.2" fx="0" fy="0" >
<stop  offset="0.243137"  style="stop-color:#1E2124;stop-opacity:1" />
<stop  offset="0.752941"  style="stop-color:#454C5C;stop-opacity:1" />
<stop  offset="0.972549"  style="stop-color:#292A2F;stop-opacity:1" />
</radialGradient>
<path style="fill:url(#RadialGradID_326) " d="M81.45,23.45L81.45 23.55L81.35 23.2L81.45 23.45M79.1,33.05L79.05 32.45L79.1 32.45L79.1 33.05" />
<radialGradient
id="RadialGradID_327" gradientUnits="userSpaceOnUse" gradientTransform="matrix(0.0284119, 0, 0, 0.0142975, 74.75, 16.65)" spreadMethod ="pad" cx="0" cy="0" r="819.2" fx="0" fy="0" >
<stop  offset="0.243137"  style="stop-color:#262A2D;stop-opacity:1" />
<stop  offset="0.752941"  style="stop-color:#393E4D;stop-opacity:1" />
<stop  offset="0.972549"  style="stop-color:#292A2F;stop-opacity:1" />
</radialGradient>
<path style="fill:url(#RadialGradID_327) " d="M59.7,29.7L59.7 29.65L59.8 30.05L59.75 29.9L59.7 29.7M60.1,30.9L60.15 30.85L60.1 31.05L60.1 30.9" />
<path style="fill:#000000;fill-opacity:1" d="M79.1,33.05L79.15 31.5L79.15 30.3L79.2 30.35L79.25 30.55L79.35 30.8L79.1 29.6L79.1 29.4L79.25 29.55L79.4 29.75L79.25 29.25L78.75 28.35L78.6 28.15L78.65 28.15L78.65 28.1L78.75 28.15L78.9 28.25L79.2 28.45L78.8 27.95L78.6 27.65L78.35 27.3L78.35 27.25L78.3 27L78.2 26.8L78.15 26.65L78.5 26.9L78.25 26.45L78.1 26.2L78.1 26L78.05 25.85L77.85 25.45L77.75 25.3L77.45 24.8L76.45 23.05L77 21.45L77 21.15L78.3 21.15Q79.9 25.6 80.1 26.6L79.65 26.15Q79.55 26.35 79.8 26.8L79.8 26.85L79.65 26.6L79.45 26.35L79.4 26.35L80 27.7L80 27.75L79.55 27.2L80.3 29.35L79.15 27.1L79.9 29.15L79.65 28.95L80.1 30.1L79.85 29.9L79.8 29.9L80.1 30.8L79.95 30.7L79.65 31.45L79.4 32.4L79.35 32.5L79.15 33.05L79.1 33.1L79.1 33.05M61.65,27.65L61.95 27.25L62 27.25L61.7 27.65L61.4 28.25L61.55 28.15L61.8 27.95L61.55 28.35L61.2 29.05L61.05 29.25L60.9 29.75L61.05 29.55L61.2 29.4L61.2 29.6Q61 30.05 60.95 30.8L61.05 30.55L61.1 30.35L61.15 30.3L61.15 31.5L61.2 33.05L61.25 33.3L61.3 33.7L61.2 33.35L61.15 33.3L60.9 32.4L60.65 31.45L60.4 30.85L60.7 29.9L60.65 29.9L60.4 30.1L60.85 28.95L60.6 29.15L61.35 27.1L60.2 29.35L60.95 27.2L60.5 27.75L60.5 27.7L61.1 26.35L61.05 26.35L60.85 26.6L60.7 26.85L60.7 26.8L60.85 26.15L60.4 26.6Q60.6 25.6 62.2 21.15L62.75 21.15L63.8 23.4L63.05 24.45L62.85 24.8L62.45 25.45L62.25 25.85L62.2 26L62.2 26.05L62.2 26.2L61.8 26.9L62.15 26.65L62.15 26.6L61.95 27.15L61.9 27.2L61.65 27.55L61.6 27.65L61.65 27.65" />
<linearGradient
id="LinearGradID_328" gradientUnits="userSpaceOnUse" gradientTransform="matrix(-0.000900269, 0.0015564, -0.00306702, -0.00177002, 60.45, 25)" spreadMethod ="pad" x1="-819.2" y1="0" x2="819.2" y2="0" >
<stop  offset="0" style="stop-color:#141414;stop-opacity:1" />
<stop  offset="0.988235" style="stop-color:#4A4A4A;stop-opacity:1" />
</linearGradient>
<path style="fill:url(#LinearGradID_328) " d="M60.35,30.7L60.15 30.85L60.1 30.9L59.95 30.5L59.85 30.2L59.85 30.15L59.8 30.05L59.7 29.65L59.7 29.7L59.6 29.5L59.6 29.75L59.3 28.6L59.25 28.6L59.3 28.7L59.1 28.2L59 27.7L58.95 27.7L58.95 27.95L58.7 26.65L58.65 26.45L58.55 24.5L58.6 23.35L58.25 24.15L58.2 24.3L58.3 23.55L58.95 21.7L59 21.65L59.25 21.3L59.35 21.3L59.35 21.15L59.55 20.95L60.35 20.95L60.35 21.15L62.2 21.15Q60.6 25.6 60.4 26.6L60.85 26.15L60.7 26.8L60.7 26.85L60.85 26.6L61.05 26.35L61.1 26.35L60.5 27.7L60.5 27.75L60.95 27.2L60.2 29.35L61.35 27.1L60.6 29.15L60.85 28.95L60.4 30.1L60.65 29.9L60.7 29.9L60.4 30.85L60.35 30.7" />
<linearGradient
id="LinearGradID_329" gradientUnits="userSpaceOnUse" gradientTransform="matrix(0.00186157, 0.00315857, -0.00289917, 0.00170898, 80.1, 25.4)" spreadMethod ="pad" x1="-819.2" y1="0" x2="819.2" y2="0" >
<stop  offset="0" style="stop-color:#141414;stop-opacity:1" />
<stop  offset="0.988235" style="stop-color:#4A4A4A;stop-opacity:1" />
</linearGradient>
<path style="fill:url(#LinearGradID_329) " d="M81.65,24.15L81.85 25.3L81.9 25.45L81.9 25.6L81.65 25.4L81.6 25.4L81.6 25.6L81.7 26.2L81.55 25.95L81.5 25.95L81.5 26.35L81.6 26.55L81.6 26.75L81.45 26.75L81.4 27.85L81.35 27.75L81.3 27.75L81.2 28.15L81.2 28.2L81 28.6L80.7 29.75L80.7 29.8L80.65 29.7L80.6 29.7L80.6 29.65L80.25 30.9L80.2 30.9L80.15 30.85L80.1 30.8L79.8 29.9L79.85 29.9L80.1 30.1L79.65 28.95L79.9 29.15L79.15 27.1L80.3 29.35L79.55 27.2L80 27.75L80 27.7L79.4 26.35L79.45 26.35L79.65 26.6L79.8 26.85L79.8 26.8Q79.55 26.35 79.65 26.15L80.1 26.6Q79.9 25.6 78.3 21.15L80.85 21.15L81.25 22.4L81 22.2L81.25 22.9L81.35 23.2L81.45 23.55L81.65 24.15" />
<path style="fill:#000000;fill-opacity:1" d="M73.6,17.3L73.95 17.3L74.15 17.3L72.8 16.9L73.95 16.8Q75.15 16.85 76.25 17.4L77.25 17.95L76.75 18L77.15 18.05L76.75 18.1L76.25 18.25L76.2 18.25L77.7 18.5Q77.45 18.55 76.9 18.9L77.55 18.8Q77.25 18.95 77.2 19.05L78.3 18.6L78.4 18.55L78.45 18.55L77.7 19.1L77.8 19.1L78.2 18.95L78.2 19L77.9 19.3L78.35 19.05L78 19.55L78.6 18.85L78.55 19.15L78.45 19.5L78.45 19.55L78.65 19.35L78.65 19.7L78.75 19L78.85 19.9Q79.2 19.65 78.95 19.05L79.4 19.6L79.7 20.15L79.9 21.35L79.8 21.8L79.8 21.75L79.55 21.05L79.1 20.3L78.9 21L78.9 20.45L78.85 20.45L78.5 20.95L78.65 20.5L78.7 20.05L77.75 20.85L78.3 19.85L77.8 20.1L78.25 19.7L78.2 19.7L77.8 20L77.25 20.45L76.5 20.95L77.8 19.4L77.75 19.4L77.6 19.45L77.35 19.45L77.65 19.15L77.6 19.15L77.15 19.4L76.25 20.05L76.65 19.5L77 19.15L76.45 19.3L75.65 19.7L76.55 19L76.15 19.05L77.1 18.5L76.05 18.65L74.6 19.15L74.45 19.15Q75.2 18.65 75.3 18.65L74.85 18.65L74.85 18.6L75.35 18.45L74.95 18.3L75.7 18.25L75.7 18.2L75.15 18.1L74.45 17.95L73.95 17.8L72.95 17.65L73.9 17.45L73.15 17.3L73.5 17.3L73.6 17.3" />
<linearGradient
id="LinearGradID_330" gradientUnits="userSpaceOnUse" gradientTransform="matrix(-0.00372314, 0.00180054, -0.00141907, -0.00294495, 63.05, 18.75)" spreadMethod ="pad" x1="-819.2" y1="0" x2="819.2" y2="0" >
<stop  offset="0.160784" style="stop-color:#000000;stop-opacity:1" />
<stop  offset="0.627451" style="stop-color:#2E2E2E;stop-opacity:1" />
</linearGradient>
<path style="fill:url(#LinearGradID_330) " d="M77.25,23.9L76.1 25.15L76.1 25.1L76.45 24.75L76.4 24.75L76.15 24.85L76.2 24.8L76.35 24.55L75.2 25.25L75.35 25.1L75.75 24.75L76.15 24.35L75.15 24.85L75.6 24.3L75.55 24.3L76.1 23.7L76.45 23.35L76.95 22.9L76.95 23.05L76.15 24.15L77.2 23.25L77.3 23.2L78.4 22.35L77.95 23.15L77.25 23.9M71.9,24.35L73.25 23.65L73.95 23.3L76.1 22.15L75.6 22.8L74.8 23.5L74.05 24.05L73.75 24.2Q72.55 24.7 72.35 24.6L72.4 24.6L72.65 24.4L72.9 24.3L72.85 24.3L72.4 24.4L71.4 24.7L71.85 24.35L71.9 24.35M64,24.95L63.2 25.35L63.3 25.2L63.65 24.85L63.5 24.95L65.05 23.55L65.35 23.3L66.55 22.4L65.6 23.3L65.45 23.5L65.4 23.55L65.7 23.35L65.75 23.35L64 24.95M71.35,14L72.7 14.7L72.7 14.75L72.05 13.55L72 13.5L71.65 13.2L72.2 13.35L72.6 13.5L72.95 13.65L73 13.7L73.95 14.45L74.2 14.7L74 14.25L73.95 14.2L73.7 13.75L73.8 13.8L73.45 13.5L73.95 13.8L75.1 15.1L74.25 14.4L74.25 14.45L74.75 15.2L74.35 14.95L73.95 14.65L74.25 15.15L73.95 14.9L72.45 13.75L72.25 13.75L72.25 13.8L72.75 14.4L73.5 15.45L73.15 15.2L72.75 15.05L73.1 15.6L71.8 14.6L71.1 14.2L70.35 13.85L70.2 13.85L70.2 13.9L70.9 14.35L71.95 15.1L71.15 14.75L70.6 14.55L70.55 14.55L70.05 14.45L69.65 14.45L70.35 14.75L70.85 14.95L70.8 14.95L70.05 14.95L69.55 15.05L68.75 15.1Q67.55 15.15 66.6 15.55Q65.5 15.95 64.7 16.7L65.4 16.4L66.2 16.05L64.75 17.15L64.05 18L66.25 16.55L67.05 16.2L69.3 15.5L69.5 15.5L69.25 15.55Q68.4 15.8 67.3 16.5L66.15 17.2L65.4 17.8L66.1 17.4L66.15 17.35L67.55 16.8L68.85 16.35L68.9 16.35L68.45 16.55L67.9 16.9L67.5 17.3L67.95 17Q68.45 16.8 69.05 16.7L71.35 16.45L72.7 16.55L70.9 16.8L72 16.9L71.2 17.15L71.8 17.15L71.05 17.45Q69.75 18.05 69.4 18.35L68.85 18.55L68.2 18.9L67.05 19.8L67.05 19.75L68.1 18.7L68.2 18.65L69.6 17.65L69.5 17.65L69.1 17.75L70.8 17L70.7 17L68.6 17.2Q67.5 17.55 66.45 18.25L64.65 19.95L63.4 21.6L63.8 20.85L64.45 19.7L63.85 20.3L63.25 21.2L63.25 21.15L63.65 20.4L64.6 18.7L64 19.15L64 19.1L65.15 17.5Q64.85 17.55 64.3 18.15L63.8 18.8L63 20.05Q62.55 20.8 62.25 21.85L62.2 21.85L62.2 21.5Q62.2 20.75 62.9 19.4L63.8 17.7L63.35 18.2L62.85 18.95L63.1 18.35L63.5 17.45L63.5 17.3L63.45 17.3L62.95 17.8L62.9 17.9Q62.95 17.4 63.85 16.55L64.8 15.7L64.1 16.8Q64.95 15.75 66.8 15.2L67.35 15.05L66.85 15.1L66.6 15.1L66.4 15.05L66.95 14.9L67.65 14.7L69.1 14.55L69.1 14.5L68.45 14.35L69.35 14.15L68.3 13.6L69 13.6L69.85 13.75L68.9 13.1L69.05 13.15L68.85 13L69.35 13.1Q69.85 13.25 70 13.35L71.35 14M76.2,21.95L73.95 23L73.6 23.2L72.5 23.7L71.75 24L72.2 23.75L72.7 23.35L73.55 22.75L71.75 23.6L73.2 22.5L73.15 22.5L71.65 23.15L71.55 23.15L73.95 21.55L74.25 21.3L74.2 21.3L73.95 21.4L73.25 21.7L73.25 21.65L73.65 21.25L72.65 21.85L71.2 22.55L72.05 21.7L73.05 20.55L73 20.55L72.5 20.9L72.55 20.8L73.6 19.7L73.55 19.7L72.6 20.2L73.3 19.65L73.25 19.65Q71.8 20 69.9 22.8Q71 20.2 71.35 20.05L70.45 20.65L70.45 20.6L71.25 19.85L71.2 19.85L70.45 20.25L70.45 20.2L70.95 19.75L71.55 19.25L71.2 19.35L71.8 18.8L71.75 18.8L70.8 19.15Q70.3 19.3 69.8 19.75L68.15 21.55L66.2 23.05L67.45 21.85L68.15 20.75L67.4 21.25L67.4 21.2L68.8 19.5Q69.3 18.8 70.05 18.35L70.15 18.3L70.65 18.25L70.9 18.25L71.2 18.25L70.55 18.55L69.75 18.95L71.55 18.5L72.55 18.4L73.3 18.35L73.35 18.4L73.6 18.4L72.85 18.55L72.8 18.6L73.55 18.6L71.9 19.35L73.95 18.95L73.6 19.15L74 19.15L73.95 19.2Q73.8 19.25 73.5 19.45L73.45 19.5L74.9 19.2L75.25 19.2L73.95 20.25L72.55 21.5L73.95 20.9L74.7 20.5L74.45 20.75L74.1 21.1L75.15 20.5L75.95 20.2L75.85 20.3L75.65 20.4L75.65 20.45L76.65 20.1L75.9 21L74.75 22.05L76 21.5L75.15 22.05L76.95 21.1L77.45 20.7L77.7 20.5L77.5 20.85L76.95 21.35L77.45 21.15L76.25 21.95L76.2 21.95M68.5,17.4Q67.85 17.8 67.05 18.7L66.95 18.7L66.4 19.4L67.15 18.7Q67.85 18.1 68.7 17.75Q68.2 18.1 67.65 18.7L65.45 21.2L66.65 20.05L66.7 20.05L66.5 20.35L66.3 20.7Q67.65 19.4 68.8 18.9L67.4 20.4L68.4 19.5L66.6 21.7L64.95 23.25L63.8 24.05L63.35 24.45L64.35 23.15L64.35 23.1L64.3 23.1L63.95 23.4L64.15 23.1L65 22.25L66.3 20.85L65.55 21.3L64.5 22.05L64.5 22L65.1 21.25L65.75 20.3L65.7 20.35L63 22.7L64.2 20.95L64.3 20.85Q65.5 19.35 66.65 18.5L68.45 17.4L68.5 17.4M65.85,20L65.9 19.95L66.25 19.55L65.85 20M67.3,20.45L67.35 20.45L67.3 20.45" />
<linearGradient
id="LinearGradID_331" gradientUnits="userSpaceOnUse" gradientTransform="matrix(0.00241089, -0.000137329, 0.000167847, 0.00311279, 80.3, 22.75)" spreadMethod ="pad" x1="-819.2" y1="0" x2="819.2" y2="0" >
<stop  offset="0.160784" style="stop-color:#000000;stop-opacity:1" />
<stop  offset="0.627451" style="stop-color:#2E2E2E;stop-opacity:1" />
</linearGradient>
<path style="fill:url(#LinearGradID_331) " d="M80.65,22.65L80.6 21.85L80.55 21.4L80.35 20.9L80.4 22.1L80.05 21.1Q80.2 21.65 79.85 22.5L79.3 23.65L79.85 22.9L80.2 22.3L80.1 23.1Q79.85 24.15 79.05 24.85L79.1 24.75L79.1 24.6L78.55 25.15L79 24.15L79 23.95L78.45 24.55L78.1 24.9L78.1 24.85L78.25 24.3L78.25 24.15L77.7 24.6L77.95 24L78.1 23.55L78.1 23.5L78.15 23.5L79.1 22.95L79.35 22.7L79.8 21.75L79.8 21.8L79.9 21.35L79.7 20.15L80.25 20.75L80.25 20.7L80 20.15L79.65 19.6L79.85 19.6L80 19.65L80.35 19.85L80.2 19.85L80.05 19.8L80 19.8L80.4 20.2L80.55 20.4L80.6 20.5L80.9 20.95L81 21.1L81 21.15L80.95 21.15L81.2 21.55L81.05 21.5L81.45 22.1L81.25 22L81.45 22.45L81.55 22.95L81.7 23.2L81.85 23.65L81.7 23.55L81.65 23.55L82 24.55L82 24.75L81.85 24.65L81.7 24.55L81.45 23.45L81.3 24.85L81.15 23.35L80.9 24.9L80.9 24.2L80.85 24.25L80.65 25L80.55 23.85L80.65 22.65" />
<radialGradient
id="RadialGradID_332" gradientUnits="userSpaceOnUse" gradientTransform="matrix(0.00868225, 0, 0, 0.00868225, 78, 17.1)" spreadMethod ="pad" cx="0" cy="0" r="819.2" fx="0" fy="0" >
<stop  offset="0.227451"  style="stop-color:#1A1A1A;stop-opacity:1" />
<stop  offset="1"  style="stop-color:#424242;stop-opacity:1" />
</radialGradient>
<path style="fill:url(#RadialGradID_332) " d="M80.55,23.85L80.5 23.75L80.2 26.2L80.2 24.8L79.65 26.7L79.7 25.25L79.35 26.2L79.35 26.15L79.55 24.65L79.55 24.5L79.5 24.55L79.15 25.1L78.7 25.65L79.05 24.85Q79.85 24.15 80.1 23.1L80.2 22.3L79.85 22.9L79.3 23.65L79.85 22.5Q80.2 21.65 80.05 21.1L80.4 22.1L80.35 20.9L80.55 21.4L80.6 21.85L80.65 22.65L80.55 23.85" />
<radialGradient
id="RadialGradID_333" gradientUnits="userSpaceOnUse" gradientTransform="matrix(0.0169525, 0, 0, 0.0169525, 78, 17.1)" spreadMethod ="pad" cx="0" cy="0" r="819.2" fx="0" fy="0" >
<stop  offset="0.227451"  style="stop-color:#1A1A1A;stop-opacity:1" />
<stop  offset="1"  style="stop-color:#424242;stop-opacity:1" />
</radialGradient>
<path style="fill:url(#RadialGradID_333) " d="M78.1,23.5L78.15 23.5L78.1 23.5M79.6,19.25L79.6 19.3L79.75 19.35L80.45 19.65L80.3 19.65L79.95 19.6L80 19.65L79.85 19.6L79.65 19.6L80 20.15L80.25 20.7L80.25 20.75L79.7 20.15L79.4 19.6L78.95 19.05Q79.2 19.65 78.85 19.9L78.75 19L78.65 19.7L78.65 19.35L78.45 19.55L78.45 19.5L78.55 19.15L78.6 18.85L78 19.55L78.35 19.05L77.9 19.3L78.2 19L78.2 18.95L77.8 19.1L77.7 19.1L78.45 18.55L78.4 18.55L78.3 18.6L77.2 19.05Q77.25 18.95 77.55 18.8L76.9 18.9Q77.45 18.55 77.7 18.5L76.2 18.25L76.25 18.25L76.75 18.1L77.15 18.05L76.75 18L77.25 17.95L76.25 17.4Q75.15 16.85 73.95 16.8L72.8 16.9L74.15 17.3L73.95 17.3L73.6 17.3L73.5 17.25L73.5 17.3L73.15 17.3L73.9 17.45L72.95 17.65L73.95 17.8L74.45 17.95L75.15 18.1L75.7 18.2L75.7 18.25L74.95 18.3L75.35 18.45L74.85 18.6L74.85 18.65L75.3 18.65Q75.2 18.65 74.45 19.15L74.6 19.15L76.05 18.65L77.1 18.5L76.15 19.05L76.55 19L75.65 19.7L76.45 19.3L77 19.15L76.65 19.5L76.25 20.05L77.15 19.4L77.6 19.15L77.65 19.15L77.35 19.45L77.6 19.45L77.75 19.4L77.8 19.4L76.5 20.95L77.25 20.45L77.8 20L78.2 19.7L78.25 19.7L77.8 20.1L78.3 19.85L77.75 20.85L78.7 20.05L78.65 20.5L78.5 20.95L78.85 20.45L78.9 20.45L78.9 21L79.1 20.3L79.55 21.05L79.8 21.75L79.35 22.7L79.1 22.95L78.15 23.5L78.65 22.85L79.05 21.4L78.6 22.05L78.65 21.95L78.75 21.2Q78.3 22.3 77.25 23.05L77.25 23L78.3 21.6L78.3 21.45L77 22.35L77.4 21.95L77.6 21.75L77.6 21.7L76.95 22.05L76.25 22.35L76.25 22.3L77.45 21.35L76.25 21.95L77.45 21.15L76.95 21.35L77.5 20.85L77.7 20.5L77.45 20.7L76.95 21.1L75.15 22.05L76 21.5L76.05 21.5L76.1 21.45L76 21.5L74.75 22.05L75.9 21L76.65 20.1L75.65 20.45L75.65 20.4L75.85 20.3L75.95 20.2L75.15 20.5L74.1 21.1L74.45 20.75L74.7 20.5L73.95 20.9L72.55 21.5L73.95 20.25L75.25 19.2L74.9 19.2L73.45 19.5L73.5 19.45Q73.8 19.25 73.95 19.2L74 19.15L73.6 19.15L73.95 18.95L71.9 19.35L73.55 18.6L72.8 18.6L72.85 18.55L73.6 18.4L73.35 18.4L73.3 18.35L72.55 18.4L71.55 18.5L69.75 18.95L70.55 18.55L71.2 18.25L70.9 18.25L70.65 18.25L70.15 18.3L70.05 18.3L70.75 18.1L70.6 18.1L70.05 18.2L69.35 18.4L69.4 18.35Q69.75 18.05 71.05 17.45L71.8 17.15L71.2 17.15L72 16.9L70.9 16.8L72.7 16.55L71.35 16.45L69.05 16.7Q68.45 16.8 67.95 17L67.5 17.3L67.9 16.9L68.45 16.55L68.9 16.35L68.85 16.35L67.55 16.8L66.15 17.35L66.1 17.4L65.4 17.8L66.15 17.2L67.3 16.5Q68.4 15.8 69.25 15.55L69.5 15.5L69.3 15.5L67.05 16.2L66.25 16.55L64.05 18L64.75 17.15L66.2 16.05L65.4 16.4L64.7 16.7Q65.5 15.95 66.6 15.55Q67.55 15.15 68.75 15.1L69.55 15.05L69.95 15.05Q71.1 15.1 71.65 15.45L71.1 15.4L70.85 15.35L70.65 15.35L71.85 15.75L73.1 16.05L72.05 16L71.8 16L73.95 16.35L74.2 16.35L75.55 16.75L74.6 16.1L75.3 16.4L76.05 16.8L75.5 16.25L74.7 15.5L76.05 16.35L76.45 16.7L77.15 17.4L76.8 16.8L77.95 18.25L77.85 18L77.7 17.7L78.05 18.05L78.35 18.4L78.3 17.85L78.35 17.6L78.65 18.7L78.7 18.8L78.7 18.75L78.8 18.2L78.85 18.5L78.95 18.85L79 18.9L79.05 18.9L79.4 18.8L79.75 18.8L80 18.9L79.6 18.9L79.65 18.95L79.35 19.05L79.15 19.1L79.35 19.2L79.6 19.25M74.05,18.95L74.1 18.95L74.1 18.9L74.05 18.95" />
<radialGradient
id="RadialGradID_334" gradientUnits="userSpaceOnUse" gradientTransform="matrix(0.0145874, 0, 0, 0.00985718, 75.3, 18)" spreadMethod ="pad" cx="0" cy="0" r="819.2" fx="0" fy="0" >
<stop  offset="0.243137"  style="stop-color:#030202;stop-opacity:1" />
<stop  offset="0.521569"  style="stop-color:#212129;stop-opacity:1" />
<stop  offset="1"  style="stop-color:#362424;stop-opacity:1" />
</radialGradient>
<path style="fill:url(#RadialGradID_334) " d="M76.65,16.2L76.6 16.2L76.2 15.8L76.55 16.35L76.5 16.35L75.4 15.35L75.4 15.3L75.35 15.3L75.4 15.35L75.75 15.9L76.05 16.35L74.7 15.5L75.5 16.25L76.05 16.8L75.3 16.4L74.6 16.1L75.55 16.75L74.2 16.35L73.95 16.35L71.8 16L72.05 16L73.1 16.05L71.85 15.75L70.65 15.35L70.85 15.35L71.1 15.4L71.65 15.45Q71.1 15.1 69.95 15.05L69.55 15.05L70.05 14.95L70.8 14.95L70.85 14.95L70.35 14.75L69.65 14.45L70.05 14.45L70.55 14.55L70.6 14.55L71.15 14.75L71.95 15.1L70.9 14.35L70.2 13.9L70.2 13.85L70.35 13.85L71.1 14.2L71.8 14.6L73.1 15.6L72.75 15.05L73.15 15.2L73.5 15.45L72.75 14.4L72.25 13.8L72.25 13.75L72.45 13.75L73.95 14.9L74.25 15.15L73.95 14.65L74.35 14.95L74.75 15.2L74.25 14.45L74.25 14.4L75.1 15.1L73.95 13.8L73.45 13.5L73.45 13.45L73.95 13.65L73.3 13.2L73.95 13.55L75.2 14.4L75.65 14.9L75.5 14.6L75.3 14.25L76.1 15.6L76 14.9L76.65 16.2" />
<radialGradient
id="RadialGradID_335" gradientUnits="userSpaceOnUse" gradientTransform="matrix(0.0110321, 0, 0, 0.0110321, 67.9, 16.15)" spreadMethod ="pad" cx="0" cy="0" r="819.2" fx="0" fy="0" >
<stop  offset="0.227451"  style="stop-color:#1A1A1A;stop-opacity:1" />
<stop  offset="0.917647"  style="stop-color:#424242;stop-opacity:1" />
</radialGradient>
<path style="fill:url(#RadialGradID_335) " d="M62.5,21.7L61.75 22.4L61.35 22.85L61.35 22.8L61.65 22.35L61.65 22.3L62.05 21.3L61.45 22.1L61.4 22.2L60.55 23.2L61.35 21.65L61.2 21.75L61.1 21.85L61.2 21.7L62.1 20.5L62.85 18.95L63.35 18.2L63.8 17.7L62.9 19.4Q62.2 20.75 62.2 21.5L62.2 21.85L62.25 21.85Q62.55 20.8 63 20.05L63.8 18.8L64.3 18.15Q64.85 17.55 65.15 17.5L64 19.1L64 19.15L64.6 18.7L63.65 20.4L62.5 21.7" />
<linearGradient
id="LinearGradID_336" gradientUnits="userSpaceOnUse" gradientTransform="matrix(0.0017395, -0.00186157, 0.00163269, 0.00152588, 60.6, 23.25)" spreadMethod ="pad" x1="-819.2" y1="0" x2="819.2" y2="0" >
<stop  offset="0" style="stop-color:#212121;stop-opacity:1" />
<stop  offset="0.54902" style="stop-color:#5E5E5E;stop-opacity:1" />
<stop  offset="0.972549" style="stop-color:#636363;stop-opacity:1" />
</linearGradient>
<path style="fill:url(#LinearGradID_336) " d="M62.35,24Q60.65 25.35 60.35 26.1L60.35 25.7L60.45 25.25L60.75 24.5L59.4 26.15L59.85 25.4L60.1 24.8L60.05 24.8L59.65 25.25L59.9 24.7L59.35 25.3L58.9 25.95L58.9 25.9L59.4 24.8L58.9 25.5L58.55 26.1L58.6 24.8L58.45 25.1L58.65 23.85L58.6 23.9L58.4 24.25L58.75 23L58.5 23.35L58.6 23.05L58.65 22.95L58.7 22.75Q59.25 21.75 60.35 20.95L60.85 20.5L61 20.35L61.2 20.15L61 20.55L60.1 21.85L61.05 20.75L61.35 20.45L62.55 19.15L61.65 20.4L61.1 21.2L60.45 22.1Q59.35 23.8 59.4 24.3L59.95 23.35L60.75 22.2L60.85 22.15L60.3 23.3L59.65 24.35L59.65 24.4L60.65 23.25L61.45 22.5L60.8 23.3L60.1 24.5L60.1 24.55L61.1 23.45L62 22.55L62.15 22.35L61.45 23.45L61.45 23.5L62.8 22.35L62.5 22.75L61.35 24.05L60.55 25.25L60.55 25.3Q61.15 24.5 62.3 23.5L63.05 22.9Q63.5 22.55 63.7 22.5L62.35 24" />
<radialGradient
id="RadialGradID_337" gradientUnits="userSpaceOnUse" gradientTransform="matrix(0.0106201, 0, 0, 0.0106201, 70.15, 15.05)" spreadMethod ="pad" cx="0" cy="0" r="819.2" fx="32" fy="0" >
<stop  offset="0.227451"  style="stop-color:#1A1A1A;stop-opacity:1" />
<stop  offset="0.917647"  style="stop-color:#424242;stop-opacity:1" />
</radialGradient>
<path style="fill:url(#RadialGradID_337) " d="M62.85,18L61.15 19.9L61.6 19.1L61 19.65L60.3 20.45L61 19.4L61.9 17.95L61 18.75L60.9 18.85L59.85 20.2L60.1 19.75L60 19.75L59.3 20.35L60.05 19.4L60 19.4L59.65 19.7L59.65 19.65L60.25 18.9L60.35 18.7L61 18.15L61.3 17.95L62.35 17.2Q62.75 16.9 63.35 16.55L63.4 16.5L62.05 17L62 17L61.75 17.05L62.15 16.85L62.55 16.7L61.9 16.7L62.55 16.45Q62.75 16.25 64.05 15.75L64.1 15.75L63.4 16.25L63.4 16.3L64.6 15.7L65.7 15.2L65.7 15.15L64.3 15.35L63 15.75L62.45 15.95L62.4 15.95L62.4 15.85L63.15 15.4Q63.75 15 64.2 14.95L64.4 14.9L66.85 14.55L67.2 14.55L68.1 14.45L67.35 14.35L65.95 14.35L65.75 14.4L67.75 13.75L66.65 13.65L66.4 13.55L66.2 13.55L67.8 13.3L67 13.2L67.25 13.15L67.6 13.15L68.45 13.15L68.05 13.05L67.6 12.9L68.05 12.9L68.7 13L68.9 13.1L69.85 13.75L69 13.6L68.3 13.6L69.35 14.15L68.45 14.35L69.1 14.5L69.1 14.55L67.65 14.7L66.95 14.9L66.4 15.05L66.6 15.1L66.85 15.1L67.35 15.05L66.8 15.2Q64.95 15.75 64.1 16.8L64.8 15.7L63.85 16.55Q62.95 17.4 62.9 17.9L62.85 18" />
<linearGradient
id="LinearGradID_338" gradientUnits="userSpaceOnUse" gradientTransform="matrix(-0.00341797, 0, 0, -0.000823975, 65.5, 14.1)" spreadMethod ="pad" x1="-819.2" y1="0" x2="819.2" y2="0" >
<stop  offset="0" style="stop-color:#212121;stop-opacity:1" />
<stop  offset="0.54902" style="stop-color:#5E5E5E;stop-opacity:1" />
<stop  offset="0.972549" style="stop-color:#636363;stop-opacity:1" />
</linearGradient>
<path style="fill:url(#LinearGradID_338) " d="M63.4,16.5L63.35 16.55Q62.75 16.9 62.35 17.2L61.3 17.95L61 18.15L60.35 18.7L60 18.95L60.5 18.35L60.35 18.35L61.05 17.8L61.3 17.6L61.25 17.6L60.35 18.1Q60.45 17.95 61.1 17.55L61.2 17.5L61.95 17.05L62 17.05L62.05 17L63.4 16.5M64.3,15.35L65.7 15.15L65.7 15.2L64.6 15.7L63.4 16.3L63.4 16.25L64.1 15.75L64.05 15.75Q62.75 16.25 62.55 16.45L61.45 16.85L62.65 16.15L62.1 16.15L63 15.75L64.3 15.35M64.2,14.95L63.75 14.95L64 14.9L64.45 14.7L64.4 14.7L64.1 14.75L64.65 14.45L65.2 14.25L65.15 14.25L64.95 14.2L66.15 13.95L66.4 13.9L66.05 13.85L66.6 13.65L66.65 13.65L67.75 13.75L65.75 14.4L65.95 14.35L67.35 14.35L68.1 14.45L67.2 14.55L66.85 14.55L64.4 14.9L64.2 14.95M70,13.35L70.05 13.35L69.8 13.2L69.65 13.05L69.65 13L70.5 13.2L70.3 13.05L71.65 13.6L71.7 13.6L71.35 13.35L72.05 13.55L72.7 14.75L72.7 14.7L71.35 14L70 13.35M73.95,14.2L74 14.25L74.2 14.7L73.95 14.45L73 13.7L73.05 13.7L72.45 13.15L73.7 13.75L73.95 14.2M60.55,18.35L60.55 18.3L60.5 18.35L60.55 18.35" />
<path style="fill:#383838;fill-opacity:1" d="M78.35,18.4L78.05 18.05L77.7 17.7L77.85 18L77.95 18.25L76.8 16.8L77.15 17.4L76.45 16.7L76.05 16.35L75.75 15.9L75.4 15.35L76.5 16.35L76.55 16.35L76.2 15.8L76.6 16.2L76.65 16.2L76 14.9L75.9 14.7L76.4 15.45L76.8 15.85L76.7 15.6L77.25 16.35L77.15 16L77.6 17L77.65 16.5L77.85 16.9L77.95 17.4L78 17.45L78 16.75L78.25 17.55L78.3 17.85L78.35 18.4" />
<path style="fill:#5E5E5E;fill-opacity:1" d="M79.4,18.8L79.05 18.9L79 18.9L78.95 18.85L78.85 18.5L78.8 18.2L78.7 18.75L78.7 18.8L78.65 18.7L78.35 17.6L78.4 17.4L78.55 17.7L78.6 17.95L78.65 17.75L78.75 17.55L78.85 18.05L79 17.95L79.25 17.85L79.05 18.15L79.05 18.2L79.8 18.25L79.8 18.3L79.25 18.5L79.75 18.8L79.4 18.8M79.35,19.2L79.15 19.1L79.35 19.05L79.65 18.95Q79.9 19 80.35 19.35L79.85 19.25L79.6 19.25L79.35 19.2" />
<linearGradient
id="LinearGradID_339" gradientUnits="userSpaceOnUse" gradientTransform="matrix(0.00135803, -0.00508118, 0.00106812, 0.000289917, 68.15, 25.35)" spreadMethod ="pad" x1="-819.2" y1="0" x2="819.2" y2="0" >
<stop  offset="0.160784" style="stop-color:#000000;stop-opacity:1" />
<stop  offset="0.627451" style="stop-color:#2E2E2E;stop-opacity:1" />
</linearGradient>
<path style="fill:url(#LinearGradID_339) " d="M68.6,25.5L68.75 25.35L69.1 24.95L67.75 25.55L67.75 25.5L68.55 25L68.5 25L67.9 25.25L68.35 24.85L66.45 25.85L67.05 25.35L67 25.35L66.35 25.6L66.6 25.45L66.75 25.25L68.75 23.65L69.15 23.25L68.9 23.65L68.55 24.05L68 24.7L69.3 23.65L70.2 22.85L71.75 21.25L70.6 22.85L69.85 23.7L68.95 24.5L68.95 24.55L69.35 24.35L69.9 23.85L70 23.85L69.5 24.4L69.45 24.5L71.35 22.95L71.4 22.95L70.7 23.75L70.6 23.9L68.6 25.5M66,25.2L66.05 25.15L65.5 25.4L65.5 25.35L66 25L65.95 25L65.3 25.2L65.7 24.95L65.65 24.95L64.6 25.35L64.9 25.05Q64.2 25.2 64.1 25.5L64.15 25.3L64.25 25.1L64.25 25.05Q64.7 24.45 66.1 23.35L66.55 23L66.6 23L66.3 23.4L65.6 24.15L66.65 23.45L67.75 22.55L69.4 20.95L69.45 20.95L68.05 22.75L67.25 23.45L66.7 23.95L67.05 23.7L67.4 23.5Q67.55 23.35 67.65 23.35L67.55 23.5L67.2 23.85L66.6 24.4L67.95 23.55L69.3 22.65L68.25 23.6L68.05 23.75L66 25.2" />
<linearGradient
id="LinearGradID_340" gradientUnits="userSpaceOnUse" gradientTransform="matrix(-0.00112915, 0.00418091, -0.00865173, -0.00231934, 64.75, 23.05)" spreadMethod ="pad" x1="-819.2" y1="0" x2="819.2" y2="0" >
<stop  offset="0.0196078" style="stop-color:#1F1F1F;stop-opacity:1" />
<stop  offset="0.521569" style="stop-color:#545454;stop-opacity:1" />
<stop  offset="0.980392" style="stop-color:#3D3D3D;stop-opacity:1" />
</linearGradient>
<path style="fill:url(#LinearGradID_340) " d="M77.95,23.15L78.4 22.35L77.3 23.2L77.2 23.25L76.15 24.15L76.95 23.05L76.95 22.9L76.45 23.35L76.1 23.7L75.55 24.3L74.45 25L75 24.35L74.95 24.4L74.15 25.05L73.95 25.2L72.95 26.05L73.65 25.25L73.95 24.95L74.35 24.55L73.95 24.75L73.35 25L73.4 24.95L73.95 24.5L74.4 24.15L74 24.3L73.95 24.35L73.55 24.5L73.75 24.35L73.95 24.15L74.05 24.05L74.8 23.5L75.6 22.8L76.1 22.15L73.95 23.3L73.25 23.65L71.9 24.35L71.85 24.35L70.9 24.7L69.95 25.25L69.95 25.2L70.7 24.6L68.85 25.6L69.15 25.3L69.4 25.1L69.35 25.1L68.4 25.65L68.45 25.6L68.6 25.5L70.6 23.9L70.7 23.75L71.4 22.95L71.35 22.95L69.45 24.5L69.5 24.4L70 23.85L69.9 23.85L69.35 24.35L68.95 24.55L68.95 24.5L69.85 23.7L70.6 22.85L71.75 21.25L70.2 22.85L69.3 23.65L68 24.7L68.55 24.05L68.9 23.65L69.15 23.25L68.75 23.65L66.75 25.25L66.6 25.3Q65.5 25.8 65.1 26L66 25.2L68.05 23.75L68.25 23.6L69.3 22.65L67.95 23.55L66.6 24.4L67.2 23.85L67.55 23.5L67.65 23.35Q67.55 23.35 67.4 23.5L67.05 23.7L66.7 23.95L67.25 23.45L68.05 22.75L69.45 20.95L69.4 20.95L67.75 22.55L66.65 23.45L65.6 24.15L66.3 23.4L66.6 23L66.55 23L66.1 23.35Q64.7 24.45 64.25 25.05L64.15 25.15L63.8 25.4L63.45 25.7L64 24.95L65.75 23.35L65.7 23.35L65.4 23.55L65.45 23.5L65.6 23.3L66.55 22.4L65.35 23.3L65.05 23.55L63.5 24.95Q63.3 25 63.05 25.2L62.55 25.7L62.9 25.2L63.2 24.8L63 24.9Q62.5 25 61.7 25.85L62.7 24.55L63.65 23.45L62.05 24.7L62.9 23.6L62.85 23.6L62.35 24L63.7 22.5Q63.5 22.55 63.05 22.9L62.3 23.5Q61.15 24.5 60.55 25.3L60.55 25.25L61.35 24.05L62.5 22.75L62.8 22.35L61.45 23.5L61.45 23.45L62.15 22.35L62 22.55L61.1 23.45L60.1 24.55L60.1 24.5L60.8 23.3L61.45 22.5L60.65 23.25L59.65 24.4L59.65 24.35L60.3 23.3L60.85 22.15L60.75 22.2L59.95 23.35L59.4 24.3Q59.35 23.8 60.45 22.1L61.1 21.2L61.65 20.4L62.55 19.15L61.35 20.45L61.05 20.75L60.1 21.85L61 20.55L61.2 20.15L61 20.35L60.85 20.5L60.35 20.95Q59.25 21.75 58.7 22.75L59 22.05L58.75 22.3L58.55 22.6L58.55 22.55L59.2 21.3L59.65 20.6L59.75 20.4L59.85 20.2L60.9 18.85L61 18.75L61.9 17.95L61 19.4L60.3 20.45L61 19.65L61.6 19.1L61.15 19.9L62.85 18L62.9 17.9L62.95 17.8L63.45 17.3L63.5 17.3L63.5 17.45L63.1 18.35L62.85 18.95L62.1 20.5L61.2 21.7L61.1 21.85L61.2 21.75L61.35 21.65L60.55 23.2L61.4 22.2L61.45 22.1L62.05 21.3L61.65 22.3L61.65 22.35L61.35 22.8L61.35 22.85L61.75 22.4L62.5 21.7L63.65 20.4L63.25 21.15L63.25 21.2L63.85 20.3L64.45 19.7L63.8 20.85L63.4 21.6L64.65 19.95L66.45 18.25Q67.5 17.55 68.6 17.2L70.7 17L70.8 17L69.1 17.75L69.5 17.65L69.6 17.65L68.2 18.65L68.1 18.7L67.05 19.75L67.05 19.8L68.2 18.9L68.85 18.55L69.4 18.35L69.35 18.4L70.05 18.2L70.6 18.1L70.75 18.1L70.05 18.3L70.15 18.3L70.05 18.35Q69.3 18.8 68.8 19.5L67.4 21.2L67.4 21.25L68.15 20.75L67.45 21.85L66.2 23.05L68.15 21.55L69.8 19.75Q70.3 19.3 70.8 19.15L71.75 18.8L71.8 18.8L71.2 19.35L71.55 19.25L70.95 19.75L70.45 20.2L70.45 20.25L71.2 19.85L71.25 19.85L70.45 20.6L70.45 20.65L71.35 20.05Q71 20.2 69.9 22.8Q71.8 20 73.25 19.65L73.3 19.65L72.6 20.2L73.55 19.7L73.6 19.7L72.55 20.8L72.5 20.9L73 20.55L73.05 20.55L72.05 21.7L71.2 22.55L72.65 21.85L73.65 21.25L73.25 21.65L73.25 21.7L73.95 21.4L74.2 21.3L74.25 21.3L73.95 21.55L71.55 23.15L71.65 23.15L73.15 22.5L73.2 22.5L71.75 23.6L73.55 22.75L72.7 23.35L72.2 23.75L71.75 24L72.5 23.7L73.6 23.2L73.95 23L76.2 21.95L76.25 21.95L77.45 21.35L76.25 22.3L76.25 22.35L76.95 22.05L77.6 21.7L77.6 21.75L77.4 21.95L77 22.35L78.3 21.45L78.3 21.6L77.25 23L77.25 23.05Q78.3 22.3 78.75 21.2L78.65 21.95L78.6 22.05L79.05 21.4L78.65 22.85L78.15 23.5L78.15 23.3L77.6 24.3L76.15 25.7L76.95 24.75L77.25 23.9L77.95 23.15M68.45,17.4L66.65 18.5Q65.5 19.35 64.3 20.85L64.2 20.95L63 22.7L65.7 20.35L65.75 20.3L65.1 21.25L64.5 22L64.5 22.05L65.55 21.3L66.3 20.85L65 22.25L64.15 23.1L63.95 23.4L64.3 23.1L64.35 23.1L64.35 23.15L63.35 24.45L63.8 24.05L64.95 23.25L66.6 21.7L68.4 19.5L67.4 20.4L68.8 18.9Q67.65 19.4 66.3 20.7L66.5 20.35L66.7 20.05L66.65 20.05L65.45 21.2L67.65 18.7Q68.2 18.1 68.7 17.75Q67.85 18.1 67.15 18.7L66.4 19.4L66.95 18.7L67.05 18.7Q67.85 17.8 68.5 17.4L68.45 17.4" />
<linearGradient
id="LinearGradID_341" gradientUnits="userSpaceOnUse" gradientTransform="matrix(1.52588e-05, -0.00427246, 0.000961304, 0, 73.25, 20.55)" spreadMethod ="pad" x1="-819.2" y1="0" x2="819.2" y2="0" >
<stop  offset="0" style="stop-color:#7D4D3E;stop-opacity:0" />
<stop  offset="0.521569" style="stop-color:#B5B5B5;stop-opacity:0.341176" />
<stop  offset="1" style="stop-color:#7D7D7D;stop-opacity:0" />
</linearGradient>
<path style="fill:url(#LinearGradID_341) " d="M69.9,23.6L69.9 23.55L71.05 22.35L72.2 21.25L72.15 21.25L71.3 21.85L72.2 20.9L72.95 20L72.85 20.5L72.85 20.55L73.55 19.95L72.55 21.6L73.85 20.35Q74.85 19.4 75.8 19.1Q73.35 21.6 71.45 22.5L70.35 23.2L69.9 23.6M72.45,21.65L72.5 21.65L72.45 21.65M76.95,18.95Q77.15 19.15 76 20L73.9 21.3L76.4 19.15L76.3 19.45L76.3 19.5L76.65 19.2L76.95 18.95M76.55,20.8L75.15 21.85L76.8 19.75L76.7 20.5L77.55 19.1L76.8 20.85L75.1 22.75L76.6 20.8L76.55 20.8" />
<linearGradient
id="LinearGradID_342" gradientUnits="userSpaceOnUse" gradientTransform="matrix(0.00674438, -0.00386047, 0.000396729, 0.000686646, 65.75, 18.6)" spreadMethod ="pad" x1="-819.2" y1="0" x2="819.2" y2="0" >
<stop  offset="0" style="stop-color:#7D7D7D;stop-opacity:0" />
<stop  offset="0.521569" style="stop-color:#B5B5B5;stop-opacity:0.45098" />
<stop  offset="0.988235" style="stop-color:#7D7D7D;stop-opacity:0" />
</linearGradient>
<path style="fill:url(#LinearGradID_342) " d="M68.65,14.9Q67.5 15.25 67.25 15.7L67.8 15.45L70.15 15.15Q68.7 15.3 67.1 16.05Q65.2 16.95 63.85 18.4L63.85 18.35L65 17.1L66.4 15.85L66.35 15.85Q65.5 16.15 65 16.45Q67.8 14.65 69.35 14.75L68.65 14.9M67.6,16.65Q66.15 17.3 65.25 17.95Q66.05 16.85 69.1 15.9L67.15 17.15L67.4 16.9L67.6 16.7L67.6 16.65M69.15,17.6L68.15 17.8L69.25 17.35L70.95 17.05L69 17.85L68.4 18.25L68.45 18.1L69.15 17.6M64.55,15.95L62.95 16.9Q63.25 16.5 63.85 16.05Q65.1 15.05 66.45 15Q65.5 15.25 64.15 16.65L63.25 17.6L63.75 16.8L64.55 15.95M64.6,15.9L64.6 15.85L64.6 15.9M69.3,18.8L70.2 18.25L71.2 17.75L70 18Q70.25 17.75 71.25 17.55Q72.15 17.35 72.7 17.95L70.6 18.2L69.3 18.8" />
<linearGradient
id="LinearGradID_343" gradientUnits="userSpaceOnUse" gradientTransform="matrix(0.00483704, -0.00280762, 0.000289917, 0.00050354, 62.25, 23.9)" spreadMethod ="pad" x1="-819.2" y1="0" x2="819.2" y2="0" >
<stop  offset="0" style="stop-color:#7D7D7D;stop-opacity:0" />
<stop  offset="0.521569" style="stop-color:#FCFCFC;stop-opacity:0.341176" />
<stop  offset="0.988235" style="stop-color:#7D7D7D;stop-opacity:0" />
</linearGradient>
<path style="fill:url(#LinearGradID_343) " d="M61.7,23.35L62.65 22.55L61.9 23.3L60.4 25.05L60.4 25L61.3 23.3L62.05 22.05L63.9 20.5L62.65 21.85Q61.7 22.9 61.7 23.35M62,24L62.05 24L63.9 22.9L60.8 25.25Q61.35 24.3 62.05 23.7Q62.9 22.95 63.25 22.75L62.65 23.3L62 24" />
<linearGradient
id="LinearGradID_344" gradientUnits="userSpaceOnUse" gradientTransform="matrix(0, -0.00402832, 0.000793457, 0, 64.8, 19.95)" spreadMethod ="pad" x1="-819.2" y1="0" x2="819.2" y2="0" >
<stop  offset="0.00784314" style="stop-color:#7D7D7D;stop-opacity:0" />
<stop  offset="0.490196" style="stop-color:#E3E3E3;stop-opacity:0.572549" />
<stop  offset="1" style="stop-color:#7D7D7D;stop-opacity:0" />
</linearGradient>
<path style="fill:url(#LinearGradID_344) " d="M64.65,18.4L64.5 18.65L63.9 19.85L63.75 19.95L62.45 21L62.45 20.95L62.95 20.3L63.6 19.4L62.6 20.15L61 21.75Q60.95 21 61.85 20.1Q62.75 19.15 63.45 18.8L63.5 18.8L62.55 19.85Q62.9 19.55 63.6 19.25L64.3 18.4L65.05 17.65L64.65 18.4M65.4,20.45L65.95 19.6L64.8 20.75L63.3 22.6Q64.55 20.1 66.1 18.8Q67.65 17.5 68.05 17.4L65.85 19.95L65.05 21.15L65.4 20.45M64.35,23.15L65.6 21.6L67.1 19.85L66.3 21.2Q68.5 19.35 69.75 19Q68.4 19.85 66.75 21.35L65.25 22.95L65.25 22.9L66.6 21.2L65.45 22.1L64.35 23.15" />
<linearGradient
id="LinearGradID_345" gradientUnits="userSpaceOnUse" gradientTransform="matrix(0.00201416, -0.00201416, 0.00062561, 0.00062561, 70, 20.5)" spreadMethod ="pad" x1="-819.2" y1="0" x2="819.2" y2="0" >
<stop  offset="0.00784314" style="stop-color:#7D7D7D;stop-opacity:0" />
<stop  offset="0.490196" style="stop-color:#E3E3E3;stop-opacity:0.572549" />
<stop  offset="1" style="stop-color:#7D7D7D;stop-opacity:0" />
</linearGradient>
<path style="fill:url(#LinearGradID_345) " d="M69.35,20.3L69.05 20.75L69.95 19.85Q70.7 19.1 71.15 18.85L69.75 20.3L69.75 20.35L70.9 19.7Q71.85 19.25 72.4 19.15Q71.15 19.7 69.9 20.5Q68.35 21.5 67.35 23L67.35 22.95Q67.4 22.45 68.35 21.3L69.85 19.65L69.35 20.3" />
<linearGradient
id="LinearGradID_346" gradientUnits="userSpaceOnUse" gradientTransform="matrix(0.00228882, 0.000946045, -0.000167847, 0.000411987, 72, 15.4)" spreadMethod ="pad" x1="-819.2" y1="0" x2="819.2" y2="0" >
<stop  offset="0" style="stop-color:#D6C6BB;stop-opacity:0" />
<stop  offset="0.486275" style="stop-color:#D9CEC9;stop-opacity:0.290196" />
<stop  offset="1" style="stop-color:#473229;stop-opacity:0" />
</linearGradient>
<path style="fill:url(#LinearGradID_346) " d="M70.5,15.2L71.1 15.1L71.35 15.1L70.9 14.9L70 14.6Q71.6 14.55 73.2 15.85L73.1 15.85L70.85 15.2L70.5 15.2" />
<linearGradient
id="LinearGradID_347" gradientUnits="userSpaceOnUse" gradientTransform="matrix(0.00263977, -0.000701904, 9.15527e-05, 0.000350952, 70.95, 16.25)" spreadMethod ="pad" x1="-819.2" y1="0" x2="819.2" y2="0" >
<stop  offset="0" style="stop-color:#D6C6BB;stop-opacity:0" />
<stop  offset="0.486275" style="stop-color:#D9CEC9;stop-opacity:0.290196" />
<stop  offset="1" style="stop-color:#473229;stop-opacity:0" />
</linearGradient>
<path style="fill:url(#LinearGradID_347) " d="M70.25,16.35L69.75 16.35L69.4 16.4L71.6 16.05L72.6 16.15L70.9 16.5Q69.75 16.75 69.5 16.95L69.55 16.9L70.15 16.55L70.8 16.35L70.25 16.35" />
<linearGradient
id="LinearGradID_348" gradientUnits="userSpaceOnUse" gradientTransform="matrix(-0.00137329, -0.00231934, 0.000610352, -0.000411987, 73.5, 14.25)" spreadMethod ="pad" x1="-819.2" y1="0" x2="819.2" y2="0" >
<stop  offset="0" style="stop-color:#D6C6BB;stop-opacity:0" />
<stop  offset="0.486275" style="stop-color:#D9CEC9;stop-opacity:0.411765" />
<stop  offset="1" style="stop-color:#473229;stop-opacity:0" />
</linearGradient>
<path style="fill:url(#LinearGradID_348) " d="M74.85,15.25L74.05 14.7L74.25 15.05L74.6 15.9L73.4 14.35L72.05 13.2Q73.1 13.35 74.85 15.2L74.85 15.25" />
<linearGradient
id="LinearGradID_349" gradientUnits="userSpaceOnUse" gradientTransform="matrix(0.00314331, 0.000839233, -0.000137329, 0.000473022, 75.25, 17.1)" spreadMethod ="pad" x1="-819.2" y1="0" x2="819.2" y2="0" >
<stop  offset="0" style="stop-color:#D6C6BB;stop-opacity:0" />
<stop  offset="0.533333" style="stop-color:#D9CEC9;stop-opacity:0.541176" />
<stop  offset="1" style="stop-color:#473229;stop-opacity:0" />
</linearGradient>
<path style="fill:url(#LinearGradID_349) " d="M76.55,17.4L75.85 17.1L76.75 17.9L75.45 17.25Q74.45 16.75 72.85 16.4L72.65 16.35Q75.15 16.35 76.6 17.2L77.55 17.8L76.55 17.4" />
<linearGradient
id="LinearGradID_350" gradientUnits="userSpaceOnUse" gradientTransform="matrix(0.0018158, -0.00312805, 0.000640869, 0.000366211, 74.4, 18.7)" spreadMethod ="pad" x1="-819.2" y1="0" x2="819.2" y2="0" >
<stop  offset="0" style="stop-color:#D6C6BB;stop-opacity:0" />
<stop  offset="0.533333" style="stop-color:#D9CEC9;stop-opacity:0.352941" />
<stop  offset="1" style="stop-color:#473229;stop-opacity:0" />
</linearGradient>
<path style="fill:url(#LinearGradID_350) " d="M75.65,18.35L75.15 18.7L74.25 19.65L74.85 18.7L74.2 18.95L73.4 19.45L73.8 18.9L74.3 18.45L74.25 18.45L73.6 18.65Q73.85 18.35 74.95 18.1L75.1 18.1L74.3 18.7L75.5 18.35L75.65 18.35M76.6,20.5L75.65 21.35L76.9 19.6L76.45 20.45L76.4 20.5L76.45 20.5L76.45 20.45L76.9 20.15L77.35 19.7L75.2 22.55L76.65 20.5L76.6 20.5M76.5,22L77.75 20.45L77.7 20.45Q77.2 20.7 77 20.85L78.15 19.8Q78.05 20.6 77.25 21.4L76.5 22M79.6,20.9L79.55 20.15Q79.85 21.1 79.6 21.85L78.7 23Q79.3 22.1 79.05 20.95L79 20.5Q79.45 21.05 79.4 21.65L79.6 20.9" />
<linearGradient
id="LinearGradID_351" gradientUnits="userSpaceOnUse" gradientTransform="matrix(0.00350952, -0.000915527, 0.000198364, 0.000762939, 71.7, 18.05)" spreadMethod ="pad" x1="-819.2" y1="0" x2="819.2" y2="0" >
<stop  offset="0" style="stop-color:#D6C6BB;stop-opacity:0" />
<stop  offset="0.533333" style="stop-color:#D9CEC9;stop-opacity:0.352941" />
<stop  offset="1" style="stop-color:#473229;stop-opacity:0" />
</linearGradient>
<path style="fill:url(#LinearGradID_351) " d="M71.75,18.1L72.8 18.05L73.55 18.1L71.55 18.5Q70.4 18.9 70.05 19.2L70.1 19.15L70.8 18.5L71.7 17.8Q70.1 17.9 69.5 18.35Q69.9 17.95 70.75 17.7L73.35 17.5L72.25 17.8L71.65 18.15L71.75 18.1" />
<linearGradient
id="LinearGradID_352" gradientUnits="userSpaceOnUse" gradientTransform="matrix(0.00038147, -0.00143433, 0.000518799, 0.000137329, 80.15, 20.7)" spreadMethod ="pad" x1="-819.2" y1="0" x2="819.2" y2="0" >
<stop  offset="0" style="stop-color:#D6C6BB;stop-opacity:0" />
<stop  offset="0.533333" style="stop-color:#D9CEC9;stop-opacity:0.352941" />
<stop  offset="1" style="stop-color:#473229;stop-opacity:0" />
</linearGradient>
<path style="fill:url(#LinearGradID_352) " d="M80.25,22L80.15 20.95L80.1 20.95L79.85 22.05L79.9 21.35L79.9 20.05Q80.35 20.7 80.35 21.35L80.25 22.05L80.25 22" />
<linearGradient
id="LinearGradID_353" gradientUnits="userSpaceOnUse" gradientTransform="matrix(0.00178528, 0.000488281, -0.000137329, 0.00050354, 80.5, 27.7)" spreadMethod ="pad" x1="-819.2" y1="0" x2="819.2" y2="0" >
<stop  offset="0" style="stop-color:#6B6B6B;stop-opacity:0" />
<stop  offset="0.470588" style="stop-color:#C4C4C4;stop-opacity:0.423529" />
<stop  offset="1" style="stop-color:#8F8F8F;stop-opacity:0" />
</linearGradient>
<path style="fill:url(#LinearGradID_353) " d="M81.25,25.65L81.3 27.4L80.8 25.5L80.75 25.05L80.7 24.1L80.75 24.15L81 25.35L81 23.95L81.45 26.15L81.25 25.65M80.6,27.7L80.05 24.75L80.05 24.55L80.9 27.4L80.85 29.1L80.65 28.4L80.65 29.5L80.55 29.2L80.1 27.85L80.4 28.2Q79.85 27.25 79.85 26.8L79.9 26.8L80.6 27.7" />
<linearGradient
id="LinearGradID_354" gradientUnits="userSpaceOnUse" gradientTransform="matrix(-0.00137329, 0.000793457, -0.00112915, -0.00195312, 59.5, 27.8)" spreadMethod ="pad" x1="-819.2" y1="0" x2="819.2" y2="0" >
<stop  offset="0" style="stop-color:#6B6B6B;stop-opacity:0" />
<stop  offset="0.470588" style="stop-color:#C4C4C4;stop-opacity:0.423529" />
<stop  offset="1" style="stop-color:#8F8F8F;stop-opacity:0" />
</linearGradient>
<path style="fill:url(#LinearGradID_354) " d="M59.3,25.7L59.75 24.95L59.4 27.5L59.5 27.15L59.55 27.1L59.55 28.35L60.05 26.45L59.95 29.95L59.8 28.7L59.75 30.05L59.4 28L59.25 28.85L59.2 27.65L59.15 28L59.2 26L59.15 26L59.3 25.7" />
<linearGradient
id="LinearGradID_355" gradientUnits="userSpaceOnUse" gradientTransform="matrix(0.00219727, 0, 0, 0.0027771, 67.05, 19.05)" spreadMethod ="pad" x1="-819.2" y1="0" x2="819.2" y2="0" >
<stop  offset="0.00784314" style="stop-color:#7D7D7D;stop-opacity:0" />
<stop  offset="0.470588" style="stop-color:#E3E3E3;stop-opacity:0.352941" />
<stop  offset="1" style="stop-color:#7D7D7D;stop-opacity:0" />
</linearGradient>
<path style="fill:url(#LinearGradID_355) " d="M68.85,16.9Q66.5 19.4 65.35 21.35L65.25 21.15Q65.75 20.05 66.35 19.35L68.75 16.8L68.85 16.9" />
<linearGradient
id="LinearGradID_356" gradientUnits="userSpaceOnUse" gradientTransform="matrix(0.00222778, 0, 0, 0.00241089, 65.4, 19.6)" spreadMethod ="pad" x1="-819.2" y1="0" x2="819.2" y2="0" >
<stop  offset="0.00784314" style="stop-color:#7D7D7D;stop-opacity:0" />
<stop  offset="0.470588" style="stop-color:#E3E3E3;stop-opacity:0.352941" />
<stop  offset="1" style="stop-color:#7D7D7D;stop-opacity:0" />
</linearGradient>
<path style="fill:url(#LinearGradID_356) " d="M67.25,17.75Q66.25 18.4 65.25 19.6L63.7 21.6L63.6 21.4L65 19.6Q66.45 18 67.15 17.65L67.25 17.75" />
<linearGradient
id="LinearGradID_357" gradientUnits="userSpaceOnUse" gradientTransform="matrix(0.00140381, 0, 0, 0.00244141, 64.7, 18.65)" spreadMethod ="pad" x1="-819.2" y1="0" x2="819.2" y2="0" >
<stop  offset="0.00784314" style="stop-color:#7D7D7D;stop-opacity:0" />
<stop  offset="0.470588" style="stop-color:#E3E3E3;stop-opacity:0.352941" />
<stop  offset="1" style="stop-color:#7D7D7D;stop-opacity:0" />
</linearGradient>
<path style="fill:url(#LinearGradID_357) " d="M65.75,16.65L65.85 16.75L64.95 18.75Q64.4 20 63.65 20.65L63.55 20.45L64.7 18.5Q65.25 16.85 65.75 16.65" />
<linearGradient
id="LinearGradID_358" gradientUnits="userSpaceOnUse" gradientTransform="matrix(0.00198364, 0, 0, 0.00247192, 62, 22.7)" spreadMethod ="pad" x1="-819.2" y1="0" x2="819.2" y2="0" >
<stop  offset="0.00784314" style="stop-color:#7D7D7D;stop-opacity:0" />
<stop  offset="0.470588" style="stop-color:#E3E3E3;stop-opacity:0.352941" />
<stop  offset="1" style="stop-color:#7D7D7D;stop-opacity:0" />
</linearGradient>
<path style="fill:url(#LinearGradID_358) " d="M63.65,20.8Q62.55 21.55 61.7 22.9L60.45 24.75L60.4 24.55L61.55 22.45Q62.5 21.3 63.55 20.7L63.65 20.8" />
<linearGradient
id="LinearGradID_359" gradientUnits="userSpaceOnUse" gradientTransform="matrix(0.00167847, 0, 0, 0.00164795, 62.85, 20.4)" spreadMethod ="pad" x1="-819.2" y1="0" x2="819.2" y2="0" >
<stop  offset="0.00784314" style="stop-color:#7D7D7D;stop-opacity:0" />
<stop  offset="0.470588" style="stop-color:#E3E3E3;stop-opacity:0.352941" />
<stop  offset="1" style="stop-color:#7D7D7D;stop-opacity:0" />
</linearGradient>
<path style="fill:url(#LinearGradID_359) " d="M64.25,19.15L62.8 20.35L61.7 21.7L61.6 21.75L61.5 21.5Q61.5 21.1 62.7 20.1Q63.8 19.1 64.15 19.05L64.25 19.15" />
<linearGradient
id="LinearGradID_360" gradientUnits="userSpaceOnUse" gradientTransform="matrix(0.00115967, 0, 0, 0.00134277, 63.95, 23.05)" spreadMethod ="pad" x1="-819.2" y1="0" x2="819.2" y2="0" >
<stop  offset="0.00784314" style="stop-color:#7D7D7D;stop-opacity:0" />
<stop  offset="0.470588" style="stop-color:#E3E3E3;stop-opacity:0.282353" />
<stop  offset="1" style="stop-color:#7D7D7D;stop-opacity:0" />
</linearGradient>
<path style="fill:url(#LinearGradID_360) " d="M63.2,23.6L63.8 22.85L64.8 21.95L64.9 22.05L64.05 22.95L63.8 23.25L63.55 23.6L63.2 24.1L63.1 24.15L63 23.95L63.2 23.6" />
<linearGradient
id="LinearGradID_361" gradientUnits="userSpaceOnUse" gradientTransform="matrix(0.00198364, 0, 0, 0.0015564, 62.25, 24.5)" spreadMethod ="pad" x1="-819.2" y1="0" x2="819.2" y2="0" >
<stop  offset="0.00784314" style="stop-color:#7D7D7D;stop-opacity:0" />
<stop  offset="0.470588" style="stop-color:#E3E3E3;stop-opacity:0.352941" />
<stop  offset="1" style="stop-color:#7D7D7D;stop-opacity:0" />
</linearGradient>
<path style="fill:url(#LinearGradID_361) " d="M63,23.95L60.75 25.8L60.65 25.6Q60.65 25.3 62.1 24.3L63.2 23.6L63 23.95M63.8,23.25L63.9 23.35L63.55 23.6L63.8 23.25" />
<linearGradient
id="LinearGradID_362" gradientUnits="userSpaceOnUse" gradientTransform="matrix(0.00152588, 0, 0, 0.00134277, 65.6, 22.9)" spreadMethod ="pad" x1="-819.2" y1="0" x2="819.2" y2="0" >
<stop  offset="0.00784314" style="stop-color:#7D7D7D;stop-opacity:0" />
<stop  offset="0.470588" style="stop-color:#E3E3E3;stop-opacity:0.282353" />
<stop  offset="1" style="stop-color:#7D7D7D;stop-opacity:0" />
</linearGradient>
<path style="fill:url(#LinearGradID_362) " d="M66.75,21.8L66.85 21.9L64.45 24L64.35 23.8L65.25 22.95Q66.15 22.1 66.7 21.85L66.75 21.8" />
<linearGradient
id="LinearGradID_363" gradientUnits="userSpaceOnUse" gradientTransform="matrix(0.00234985, 0, 0, 0.00204468, 68.55, 20.25)" spreadMethod ="pad" x1="-819.2" y1="0" x2="819.2" y2="0" >
<stop  offset="0.00784314" style="stop-color:#7D7D7D;stop-opacity:0" />
<stop  offset="0.470588" style="stop-color:#E3E3E3;stop-opacity:0.352941" />
<stop  offset="1" style="stop-color:#7D7D7D;stop-opacity:0" />
</linearGradient>
<path style="fill:url(#LinearGradID_363) " d="M66.7,21.85L66.65 21.75Q66.65 21.2 68.3 19.95L70.4 18.6L70.5 18.7L68.2 20.7Q67.3 21.35 66.85 21.9L66.75 21.8L66.7 21.85" />
<linearGradient
id="LinearGradID_364" gradientUnits="userSpaceOnUse" gradientTransform="matrix(0.0022583, 0, 0, 0.00186157, 68.6, 23.3)" spreadMethod ="pad" x1="-819.2" y1="0" x2="819.2" y2="0" >
<stop  offset="0.00784314" style="stop-color:#7D7D7D;stop-opacity:0" />
<stop  offset="0.470588" style="stop-color:#E3E3E3;stop-opacity:0.282353" />
<stop  offset="1" style="stop-color:#7D7D7D;stop-opacity:0" />
</linearGradient>
<path style="fill:url(#LinearGradID_364) " d="M66.75,24.6L69.9 22.2Q70.15 22 70.45 21.9L67.3 24.45L66.75 24.6" />
<linearGradient
id="LinearGradID_365" gradientUnits="userSpaceOnUse" gradientTransform="matrix(0.00247192, 0, 0, 0.00186157, 70.25, 20.75)" spreadMethod ="pad" x1="-819.2" y1="0" x2="819.2" y2="0" >
<stop  offset="0.00784314" style="stop-color:#7D7D7D;stop-opacity:0" />
<stop  offset="0.470588" style="stop-color:#E3E3E3;stop-opacity:0.352941" />
<stop  offset="1" style="stop-color:#7D7D7D;stop-opacity:0" />
</linearGradient>
<path style="fill:url(#LinearGradID_365) " d="M68.25,22.1Q68.25 21.8 70 20.6Q71.65 19.45 72.2 19.25L72.3 19.35Q69.65 20.9 68.35 22.3L68.25 22.1" />
</g>
</svg>
