<?xml version="1.0" encoding="utf-8"?>
<svg version="1.1" id="Layer_1"
xmlns="http://www.w3.org/2000/svg"
xmlns:xlink="http://www.w3.org/1999/xlink"
xmlns:author="http://www.sothink.com"
width="24px" height="24px"
xml:space="preserve">
<g id="10" transform="matrix(1, 0, 0, 1, -58.05, -11.9)">
<path style="fill:#524C59;fill-opacity:1" d="M80.85,24.6L80.85 24.5L80.7 24.3L80.8 24.2L80.95 23.6L80.85 23.1L80.95 22.7L80.75 22.55L80.9 21.95Q80.9 21.65 80.7 21.65L80.8 21.45L80.8 21.05L80.55 21.05L80.55 20.95L80.7 20.75L80.7 20.35L80.5 20.35L80.65 19.95L80.65 19.55L80.25 19.55L80.55 19L80.1 19L80.2 18.75Q80.2 18.45 79.75 18.45L79.8 17.75L79.5 17.75L79.5 17.3L79.2 17.3L79.2 17.2L79.35 17L79.55 17.05L79.75 17.05L79.85 17.1L79.95 17.1L79.95 17.15L79.7 17.2L79.7 17.25L79.95 17.3L79.75 17.5Q79.75 17.65 80.05 17.65L79.95 17.75L79.9 17.8L80.1 17.95L80.35 18.1L80.35 18.15L80.1 18.2L80.5 18.4L80.45 18.5L80.35 18.5L80.75 18.9L80.55 18.9L80.55 18.95L80.6 18.95L81 19.05L80.85 19.15L80.65 19.25L80.95 19.55L80.95 19.65L80.75 19.65L80.95 19.85L80.75 20L81 20.25L81.25 20.5L81.25 20.55L80.95 20.55L81.25 20.85L81.25 20.9L81.05 20.95L81.5 21.5L81.2 21.5L81.05 21.5L81.2 21.7L81.4 22.05L81.15 22.05L81.6 22.6L81.4 22.6L81.25 22.55L81.2 22.55L81.3 22.75L81.45 22.95L81.45 23L81.1 23L81.35 23.2L81.6 23.35L81.6 23.4L81.25 23.45L81.3 23.65L81.45 23.85L81.25 23.8L81.35 23.95L81.5 24.15L81.5 24.2L81.35 24.15L81.3 24.15L81.4 24.35L81.5 24.55L81.25 24.55L81.35 24.65L81.45 24.75L81.45 24.85L81.2 24.85L81.15 24.85L81.2 24.9L81.45 25.1L81.25 25.1L81.25 25.3L81.35 25.45L81.25 25.45L81.15 25.35L81.25 25.6L81.45 25.9L81.15 25.9L81.2 26.15L81.35 26.35L81.05 26.3L81.25 26.6L81.25 26.7L81.05 26.7L81.05 26.85L81.15 26.95L81.15 27.1L81.05 27.1L80.85 24.6M80.85,27L80.95 27.45L80.95 27.5L80.9 27.45L80.85 27.4L80.85 27.3L80.8 26.9L80.85 27" />
<radialGradient
id="RadialGradID_917" gradientUnits="userSpaceOnUse" gradientTransform="matrix(0.0278473, 0, 0, 0.0278473, 59.25, 29.55)" spreadMethod ="pad" cx="0" cy="0" r="819.2" fx="0" fy="0" >
<stop  offset="0"  style="stop-color:#3E302D;stop-opacity:1" />
<stop  offset="1"  style="stop-color:#231D29;stop-opacity:1" />
</radialGradient>
<path style="fill:url(#RadialGradID_917) " d="M60.15,32.9L60.15 32.95L59.8 31.9L59.65 30.9L59.7 30.85L59.65 30.85L59.25 28.6Q58.95 28.6 58.95 28.3L58.95 27.5L58.8 27.35L58.8 27.3L58.85 27L58.65 27L58.65 26.3L58.7 26.25L58.65 26.1L58.8 26L58.6 25.9L58.45 25.8L58.55 25.75L58.65 25.65L58.65 25.6L58.5 25.55L58.3 25.4L58.7 25.3L58.7 25.25L58.65 25.25L58.5 25.15L58.35 25.05L58.55 24.95L58.35 24.8L58.3 24.75L58.35 24.75L58.55 24.65L58.35 24.55L58.35 24.45L58.4 24.5L58.45 24.55L58.45 24.45L58.6 24.45L58.7 23.7L58.55 23.3L58.65 23.3L58.45 22.75L58.55 22.3L58.6 21.8L58.45 21.3L58.45 21.15L58.35 20.75L58.35 20.55L58.55 20.7L58.6 20.75L58.55 20.7L58.5 20.55L58.5 20.5L58.45 20.35L58.65 20.5L58.65 20.15L58.7 20.15L58.7 19.9L58.65 19.65L58.85 19.75L58.85 19.6L58.8 19.35L58.9 19.4L58.95 19.55L59 19.55L59 19.35L58.95 19L59.05 19.1L59 18.4L59.15 18.6L59.15 18.2L59.4 18.4L59.25 17.85L59.45 17.85L59.45 17.8L59.4 17.7L59.55 17.75L59.45 17.3L59.75 17.35L59.65 17.2L59.95 17.2L59.9 16.95L59.9 16.7L60.1 16.7L60.15 16.75L60.25 16.75L60.2 16.45L60.5 16.45L60.5 16.15L60.7 16.15L60.85 16.2L61 16.25L60.95 16L60.9 15.75L61 15.85L61.1 15.85L61.05 15.45L61.3 15.55L61.35 15.55L61.3 15.35L61.5 15.35L61.5 15.25L61.8 15.35L61.8 15.15L62.15 15.05L62.2 14.75L62.3 14.4L62.3 14.7L62.45 14.3L62.5 14.3L62.55 14.45L62.7 14.25L62.85 14L62.85 14.3L63.1 14L63.15 14.3L63.4 13.8L63.45 13.8L63.45 14L63.5 14L63.55 13.75L63.6 13.75L63.6 13.7L63.65 13.75L63.65 13.8L63.8 13.7L63.85 13.6L64 13.7L64.1 13.6L64.15 13.4L64.2 13.35L64.3 13.55L64.35 13.6L64.5 13.2L64.55 13.35L64.6 13.5L64.75 13.3L64.9 13L64.95 12.95L65 12.95L65 13.35L65.15 13.2L65.25 13L65.3 13.1L65.5 12.85L65.6 13L65.8 12.65L65.9 12.75L65.9 12.8L66 12.7L66.1 12.5L66.25 12.65L66.3 12.75L66.35 12.75L66.4 12.45L66.45 12.45L66.55 12.7L66.6 12.75L66.65 12.75Q66.55 12.5 66.7 12.45L67 12.2L67.05 12.15L67.15 12.55L67.35 12.3L67.4 12L67.45 11.95L67.5 12.15L67.55 12.45L67.65 12.3L67.7 12.15L67.8 12.3L67.9 12.25L67.95 12.15L68.05 12.5L68.15 12.5L68.2 12.25L68.3 12.1L68.35 12.25L68.55 12.05L68.6 12.05L68.6 12.25L68.8 12.15L69.05 11.95L69.05 12.05L69.3 12L69.3 12.15L69.55 12.1Q69.6 12.05 69.8 11.95L69.7 12.2L69.9 12.05L70.05 12L70 12.25L70.6 11.9L70.65 11.9L70.6 12.1L70.65 12.1L70.95 12.05L70.95 12.35L71.15 12.35L71.45 12.2L71.75 12.05L71.75 12.25L71.85 12.2L72.05 12.1L72 12.3L72.15 12.3L72.35 12.2L72.4 12.2L72.35 12.4L72.8 12.25L72.75 12.45L72.95 12.4L73.15 12.35L73 12.45L73 12.65L73.2 12.55L73.4 12.45L73.4 12.6L73.6 12.6L74 12.45L73.95 12.6L73.85 12.65L73.85 12.7L74.25 12.6L74.2 12.75L74.3 12.75L74.6 12.65L74.65 12.65L74.65 12.7L74.6 12.8L74.5 12.9L75.1 12.8L75 13L75.35 13L75.35 13.3L75.25 13.5L75.3 13.5L75.5 13.4L75.75 13.35L75.7 13.6L76.15 13.5L76.15 13.7L76.05 13.85L76.35 13.8L76.3 14.1L76.7 14.05L76.85 14.1L77.1 14.1L77.05 14.25L76.95 14.3L77.15 14.35L77.35 14.3L77.55 14.3L77.45 14.45L77.35 14.55L77.7 14.55L77.65 14.7L77.55 14.8L77.9 14.8L77.7 15.05L78.2 15.05L78.05 15.35L78.5 15.35L78.4 15.55L78.3 15.75L78.7 15.65L78.9 15.65L78.85 15.8L78.8 16L79.05 16.05L79 16.2L78.9 16.35L79.25 16.35L79.15 16.5L79.1 16.65L79.45 16.65L79.4 16.8L79.35 16.9L79.3 16.95L79.35 17L79.2 17.2L79.2 17.3L79.5 17.3L79.5 17.75L79.8 17.75L79.75 18.45Q80.2 18.45 80.2 18.75L80.1 19L80.55 19L80.25 19.55L80.65 19.55L80.65 19.95L80.5 20.35L80.7 20.35L80.7 20.75L80.55 20.95L80.55 21.05L80.8 21.05L80.8 21.45L80.7 21.65Q80.9 21.65 80.9 21.95L80.75 22.55L80.95 22.7L80.85 23.1L80.95 23.6L80.8 24.2L80.7 24.3L80.85 24.5L80.85 24.6L81.05 27.1L81.05 28.4Q80.8 28.45 80.6 29.2L80.55 29.1L80.5 28.8L80.6 28.9L80.55 28.3L80.6 28.3L80.75 28.5L80.75 27.85L80.95 28L80.9 27.9L80.9 27.8L80.85 27.7L80.8 27.65L80.8 27.6L80.6 27.1L80.25 26.35L80.25 26.1L80.55 26.1L80.4 25.7L80.25 25.25L80.55 25.35L80.3 24.75L80.1 24.15L80.55 24.15L80.4 23.8L80.25 23.4L80.25 23.25L80.65 23.25L80.2 22.2L80.6 22.25L80.4 21.95L80.2 21.5L80.35 21.5L80.45 21.5L80.25 21.3L80 21.1L80.5 21.1L80.5 21.05L79.85 20.5L80.2 20.5L80.2 20.45L79.8 20.15L79.55 19.9L79.8 19.8L80.05 19.75L80.05 19.7L79.7 19.5L79.45 19.3L79.85 19.3L79.55 19L79.25 18.7L79.25 18.65L79.65 18.6L79.4 18.4L79 18.3L79.05 18.25L79.05 18.2L79.5 18.05L78.5 17.7L78.5 17.6L78.75 17.55L78.95 17.4L78.35 17.3L78.35 17.25L78.7 17.05L78.15 16.95L78.4 16.85L78.65 16.75L78.6 16.75L78.15 16.65L77.6 16.55L77.85 16.45L78.1 16.3L77.75 16.15L77.35 16.05L77.55 15.9L77.75 15.75L77.3 15.65L76.9 15.6L77.2 15.25L76.8 15.2L76.9 14.95L76.85 14.95L76.65 15.1L76.45 15.3L76.75 14.8L76.45 14.8L76.25 14.9L76.1 15.1L76.05 15.1L76.35 14.5L76.3 14.5L75.95 14.65L75.9 14.7L76.05 14.3L75.5 14.7L74.95 15.2L74.95 15.15L75.25 14.7L75.45 14.15L75.05 14.3L74.7 14.5L74.7 14.35L74.8 14.2L74.8 14.05Q74.65 14.05 74.5 14.2L74.25 14.4L74.2 14.4L74.35 13.95L74.4 13.6L74.15 13.8L73.85 13.95L73.85 13.9L73.9 13.7L73.95 13.55L73.7 13.7L73.5 13.85L73.65 13.55L73.75 13.2L73.25 13.45L72.8 13.75L72.9 13.45L73 13.15L72.75 13.3L72.5 13.45L72.45 13.45L72.45 13.4L72.55 13.15L72.55 13.1L72.15 13.35L71.75 13.7L71.95 13.2L71.95 13.05L71.7 13.15L71.65 13.15L71.75 13L71.55 13.05L71.4 13.1L71.45 12.95L71.5 12.85L71.45 12.85L70.85 13.15L71 13L71.05 12.8L70.7 13L70.3 13.15L70.45 13L70.45 12.85L70.3 12.95L70.1 13L70.15 12.7L69.95 12.85L69.8 13.05L69.9 12.85L70 12.7L70 12.65L69.95 12.65L69.4 13L68.95 13.35L68.95 13.3L69.3 12.5Q69.05 12.6 68.6 13.05L68.2 13.5L68.15 13.5L68.35 13.05L68.45 12.65Q67.5 13.4 67.35 13.7L67.45 13.4L67.55 13.1L66.75 13.7L66.75 13.3L66.65 13.5L66.5 13.65L66.5 13.6L66.45 13.25L66.2 13.5L66 14L65.95 14L65.85 13.7L65.8 13.4L65.7 13.4L65.55 13.9L65.3 14.4L65.2 13.7L64.9 14.25L64.55 14.8L64.4 14.45L64.3 14.25L64.2 14.5L64.15 14.65L64.05 14.45L63.95 14.25L63.85 14.9L63.75 14.9L63.7 14.6L63.65 14.3L63.5 14.65L63.25 15.05L63.25 14.7L63.2 14.7L62.85 15.55L62.75 15.3L62.65 15.05L62.5 15.55L62.45 15.4L62.35 15.25L62.35 16L62.3 15.95L61.95 15.5L61.85 15.6L61.9 15.7L62 15.9L61.6 16.2L61.15 16.45L61.35 16.45L60.8 17L60.35 17.35L60.35 17.4L60.8 17.4L60 18.15L59.4 18.6L59.9 18.55L59.6 18.9L59.25 19.25L59.5 19.25L59.7 19.2L59.65 19.35L59.6 19.5L59.4 19.8L59.15 20.25L59.2 20.25L59.65 20L59.65 20.1L59.45 20.55L59.35 20.7L58.85 21.55L59.15 21.45L59.35 21.25L59.1 21.95L59 22.2L59 22.25L58.8 22.65L59 22.55L59.15 22.45L59.35 22.3L59.45 22.3L59.25 22.9L59 23.6L59.35 23.3L59.15 23.85L59 24.25L59 24.3L59.05 24.3L59.25 24.15Q59.35 24.05 59.4 24.05L59.4 24.1L59.05 25.05L59.3 24.8L59.35 24.8L59.35 25.15L59.15 26.05L59.4 25.8L59.45 25.75L59.65 25.6L59.45 26.3L59.4 26.45L59.4 26.8L59.45 26.8L59.6 26.65L59.75 26.45L59.8 26.45L59.5 27.4L59.5 27.65L59.6 27.55L59.75 27.45L59.75 27.75L59.65 28.2L59.65 28.55L59.85 28.35L59.85 28.75L59.75 29.55L59.8 30.4L59.9 30.7L59.95 31.35L59.95 31.65L59.95 31.7L59.95 31.85L60 32.35L60.15 32.9M58.55,24.3L58.55 24.25L58.55 24.3M58.4,22.85L58.35 22.85L58.35 22.75L58.35 22.7L58.4 22.85M58.4,22.6L58.4 22.55L58.4 22.6M58.45,21.6L58.35 21.3L58.35 21.25L58.4 21.35L58.45 21.35L58.45 21.6M59.2,28.3L59.2 28.25L59.15 28.25L59.2 28.3M80.8,26.9L80.85 27.3L80.85 27.4L80.9 27.45L80.95 27.5L80.95 27.45L80.85 27L80.8 26.9" />
<radialGradient
id="RadialGradID_918" gradientUnits="userSpaceOnUse" gradientTransform="matrix(0.0264435, 0, 0, 0.0264435, 60.15, 31.15)" spreadMethod ="pad" cx="0" cy="0" r="819.2" fx="0" fy="0" >
<stop  offset="0"  style="stop-color:#302523;stop-opacity:1" />
<stop  offset="1"  style="stop-color:#0F0C12;stop-opacity:1" />
</radialGradient>
<path style="fill:url(#RadialGradID_918) " d="M80.25,30.65L80.15 30.65L80.15 30.4L80.25 30L80.25 29.8L80.25 29.25L80.25 28.95L80.25 28.75L80.25 28.7L80.2 28.35L80.1 27.7L80 27.75L79.9 27.8L79.8 27.85L79.8 27.75L79.85 27.65L79.9 27.65L79.9 27.55L79.9 27.45L79.9 26.8L79.75 26.2L79.65 26L79.75 25.7L79.95 25.35L79.55 25.2L79.7 25L79.85 24.7L79.75 24.55L79.65 24.5L79.6 24.5L79.55 24.45L79.75 24.1L79.8 24.15L79.8 24.1L79.8 24.05L80.2 22.55Q80.15 21.35 79.7 21.35L79.8 20.85L79.6 20.45L79.25 20.4L79.25 20.1L79.35 19.9L79.35 19.6L78.4 19.65L78.4 19.6L78.85 18.9L77.8 18.85L77.8 18.9L77.75 18.85Q77.65 18.7 77.15 18.6L76.6 18.4L76.55 18.35L76.55 18.3L77 18.15L77.4 17.95L76.55 17.8L75.7 17.7L75.7 17.65L76.15 17.4L76.6 17.15L76.6 17.1L76.55 17.1L75.3 16.95L75.95 16.6L75.4 16.6L74.95 16.65L74.6 16.65L75.1 16.5L75.55 16.25L73.4 16.2L73.4 16.15L73.95 15.9L74.45 15.6L73.75 15.5L73 15.5L73.4 15.25L73.65 15.05L72.25 15L72.8 14.55L72.55 14.55L72 14.75L71.45 14.8L71.95 14.3L71.75 14.3L70.5 14.6L70.3 14.6L70.3 14.55L70.6 14.4L70.75 14.2L70.3 14.2L69.55 14.35L69.1 14.4L69.1 14.35L69.5 14.1L68.4 14.4L68.35 14.4L69 13.65L68.35 14.05L67.75 14.5L67.85 14.25L67.95 14.05L67.9 14.05L66.9 14.8L66.9 14.5L66.6 14.8L66.35 15L66.45 14.65L66.45 14.6L66.45 14.65L65.1 15.5L64.95 15.55L64.55 15.45L64.2 15.3L64.2 15.4L64.25 15.5L64.4 15.7L64.1 15.7L63.85 15.6L63.65 15.6L63.75 15.85L63.75 15.9L63.1 15.65L63.35 16.15L63.35 16.2L62.8 16.1L62.85 16.25L62.95 16.35L62.45 16.4L62.1 16.5L62.35 16.55L62.35 16.6L61.85 16.7L61.4 16.85L62 16.85L61 17.45L61.2 17.55L61.45 17.55L60.9 17.95L60.3 18.35L60.3 18.4L60.6 18.4L60.9 18.3L60.9 18.35L60.35 18.8L60 19.15L60.2 19.15L60.45 19.05L60.65 18.95L60.65 19L60.2 19.55L59.95 19.85L60.15 19.85L59.4 21.3L59.45 21.3L59.7 21.2L59.75 21.2L59.45 21.65L59 22.2L59.1 21.95L59.35 21.25L59.15 21.45L58.85 21.55L59.35 20.7L59.45 20.55L59.65 20.1L59.65 20L59.2 20.25L59.15 20.25L59.4 19.8L59.6 19.5L59.65 19.35L59.7 19.2L59.5 19.25L59.25 19.25L59.6 18.9L59.9 18.55L59.4 18.6L60 18.15L60.8 17.4L60.35 17.4L60.35 17.35L60.8 17L61.35 16.45L61.15 16.45L61.6 16.2L62 15.9L61.9 15.7L61.85 15.6L61.95 15.5L62.3 15.95L62.35 16L62.35 15.25L62.45 15.4L62.5 15.55L62.65 15.05L62.75 15.3L62.85 15.55L63.2 14.7L63.25 14.7L63.25 15.05L63.5 14.65L63.65 14.3L63.7 14.6L63.75 14.9L63.85 14.9L63.95 14.25L64.05 14.45L64.15 14.65L64.2 14.5L64.3 14.25L64.4 14.45L64.55 14.8L64.9 14.25L65.2 13.7L65.3 14.4L65.55 13.9L65.7 13.4L65.8 13.4L65.85 13.7L65.95 14L66 14L66.2 13.5L66.45 13.25L66.5 13.6L66.5 13.65L66.65 13.5L66.75 13.3L66.75 13.7L67.55 13.1L67.45 13.4L67.35 13.7Q67.5 13.4 68.45 12.65L68.35 13.05L68.15 13.5L68.2 13.5L68.6 13.05Q69.05 12.6 69.3 12.5L68.95 13.3L68.95 13.35L69.4 13L69.95 12.65L70 12.7L69.9 12.85L69.8 13.05L69.95 12.85L70.15 12.7L70.1 13L70.3 12.95L70.45 12.85L70.45 13L70.3 13.15L70.7 13L71.05 12.8L71 13L70.85 13.15L71.45 12.85L71.5 12.85L71.45 12.95L71.4 13.1L71.55 13.05L71.75 13L71.65 13.15L71.7 13.15L71.95 13.05L71.95 13.2L71.75 13.7L72.15 13.35L72.55 13.1L72.55 13.15L72.45 13.4L72.45 13.45L72.5 13.45L72.75 13.3L73 13.15L72.9 13.45L72.8 13.75L73.25 13.45L73.75 13.2L73.65 13.55L73.5 13.85L73.7 13.7L73.95 13.55L73.9 13.7L73.85 13.9L73.85 13.95L74.15 13.8L74.4 13.6L74.35 13.95L74.2 14.4L74.25 14.4L74.5 14.2Q74.65 14.05 74.8 14.05L74.8 14.2L74.7 14.35L74.7 14.5L75.05 14.3L75.45 14.15L75.25 14.7L74.95 15.15L74.95 15.2L75.5 14.7L76.05 14.3L75.9 14.7L75.95 14.65L76.3 14.5L76.35 14.5L76.05 15.1L76.1 15.1L76.25 14.9L76.45 14.8L76.75 14.8L76.45 15.3L76.65 15.1L76.85 14.95L76.9 14.95L76.8 15.2L77.2 15.25L76.9 15.6L77.3 15.65L77.75 15.75L77.55 15.9L77.35 16.05L77.75 16.15L78.1 16.3L77.85 16.45L77.6 16.55L78.15 16.65L78.6 16.75L78.65 16.75L78.4 16.85L78.15 16.95L78.7 17.05L78.35 17.25L78.35 17.3L78.95 17.4L78.75 17.55L78.5 17.6L78.5 17.7L79.5 18.05L79.05 18.2L79.05 18.25L79 18.3L79.4 18.4L79.65 18.6L79.25 18.65L79.25 18.7L79.55 19L79.85 19.3L79.45 19.3L79.7 19.5L80.05 19.7L80.05 19.75L79.8 19.8L79.55 19.9L79.8 20.15L80.2 20.45L80.2 20.5L79.85 20.5L80.5 21.05L80.5 21.1L80 21.1L80.25 21.3L80.45 21.5L80.35 21.5L80.2 21.5L80.4 21.95L80.6 22.25L80.2 22.2L80.65 23.25L80.25 23.25L80.25 23.4L80.4 23.8L80.55 24.15L80.1 24.15L80.3 24.75L80.55 25.35L80.25 25.25L80.4 25.7L80.55 26.1L80.25 26.1L80.25 26.35L80.6 27.1L80.8 27.6L80.8 27.65L80.85 27.7L80.9 27.8L80.9 27.9L80.95 28L80.75 27.85L80.75 28.5L80.6 28.3L80.55 28.3L80.6 28.9L80.5 28.8L80.55 29.1L80.6 29.2L80.25 30.75L80.25 30.65M80.2,31.05L80.15 31.55L80.05 31.4L80.05 31.3L80.15 31.15L80.2 31.05M80.1,31.9L80.05 32.1L80 32.05L80.1 31.9M60.55,31.45L60.55 31.55L60.5 31.45L60.55 31.45M59.65,30.9L59.65 30.85L59.7 30.85L59.65 30.9M60.5,28.3L60.55 28.3L60.55 28.35L60.5 28.3M72.75,13.8L72.8 13.8L72.8 13.75L72.75 13.8M59,24.3L59 24.25L59.05 24.3L59 24.3M59,22.25L59.1 22.25L59.25 22.1L59.3 22.1L59 22.55L58.8 22.65L59 22.25M79.9,28.5L79.9 28.45L79.95 28.5L79.9 28.5M80.45,28.75L80.45 28.8L80.5 28.8L80.45 28.75" />
<radialGradient
id="RadialGradID_919" gradientUnits="userSpaceOnUse" gradientTransform="matrix(0.0240936, 0, 0, 0.0240936, 62.35, 26.8)" spreadMethod ="pad" cx="0" cy="0" r="819.2" fx="0" fy="0" >
<stop  offset="0"  style="stop-color:#130F10;stop-opacity:1" />
<stop  offset="1"  style="stop-color:#000000;stop-opacity:1" />
</radialGradient>
<path style="fill:url(#RadialGradID_919) " d="M60.15,32.9L60.1 32.75L60.05 32.35L60.1 32.35L60.15 32.8L60.15 32.7L60.15 32.8L60.15 32.9M60.55,28.35L60.3 28.75L60.1 29.15L60.2 29.2L60.05 30.45L59.95 31.35L59.9 30.7L59.8 30.4L59.75 29.55L59.85 28.75L59.85 28.35L59.65 28.55L59.65 28.2L59.75 27.75L59.75 27.45L59.6 27.55L59.5 27.65L59.5 27.4L59.8 26.45L59.75 26.45L59.6 26.65L59.45 26.8L59.4 26.8L59.4 26.45L59.45 26.3L59.65 25.6L59.45 25.75L59.4 25.8L59.15 26.05L59.35 25.15L59.35 24.8L59.3 24.8L59.05 25.05L59.4 24.1L59.4 24.05Q59.35 24.05 59.25 24.15L59.05 24.3L59 24.25L59.15 23.85L59.35 23.3L59 23.6L59.25 22.9L59.45 22.3L59.35 22.3L59.15 22.45L59 22.55L59.3 22.1L59.25 22.1L59.1 22.25L59 22.25L59 22.2L59.45 21.65L59.75 21.2L59.7 21.2L59.45 21.3L59.4 21.3L60.15 19.85L59.95 19.85L60.2 19.55L60.65 19L60.65 18.95L60.45 19.05L60.2 19.15L60 19.15L60.35 18.8L60.9 18.35L60.9 18.3L60.6 18.4L60.3 18.4L60.3 18.35L60.9 17.95L61.45 17.55L61.2 17.55L61 17.45L62 16.85L61.4 16.85L61.85 16.7L62.35 16.6L62.4 16.55L62.35 16.55L62.1 16.5L62.45 16.4L62.95 16.35L62.85 16.25L62.8 16.1L63.35 16.2L63.35 16.15L63.1 15.65L63.75 15.9L63.75 15.85L63.65 15.6L63.85 15.6L64.1 15.7L64.4 15.7L64.25 15.5L64.2 15.4L64.2 15.3L64.55 15.45L64.95 15.55L65.1 15.5L66.45 14.65L66.45 14.6L66.45 14.65L66.35 15L66.6 14.8L66.9 14.5L66.9 14.8L67.9 14.05L67.95 14.05L67.85 14.25L67.75 14.5L68.35 14.05L69 13.65L68.35 14.4L68.4 14.4L69.5 14.1L69.1 14.35L69.1 14.4L69.55 14.35L70.3 14.2L70.75 14.2L70.6 14.4L70.3 14.55L70.3 14.6L70.5 14.6L71.75 14.3L71.95 14.3L71.45 14.8L72 14.75L72.55 14.55L72.8 14.55L72.25 15L73.65 15.05L73.4 15.25L73 15.5L73.75 15.5L74.45 15.6L73.95 15.9L73.4 16.15L73.4 16.2L75.55 16.25L75.1 16.5L74.6 16.65L74.95 16.65L75.4 16.6L75.95 16.6L75.3 16.95L76.55 17.1L76.6 17.1L76.6 17.15L76.15 17.4L75.7 17.65L75.7 17.7L76.55 17.8L77.4 17.95L77 18.15L76.55 18.3L76.55 18.35L76.6 18.4L77.15 18.6Q77.65 18.7 77.75 18.85L77.8 18.9L77.8 18.85L78.85 18.9L78.4 19.6L78.4 19.65L79.35 19.6L79.35 19.9L79.25 20.1L79.25 20.4L79.6 20.45L79.8 20.85L79.7 21.35Q80.15 21.35 80.2 22.55L79.8 24.05L79.8 23.85L79.35 23.9L79.3 23.85L79.3 23.75L79.7 23.15L79.7 22.85L79.15 22.85L79.2 22.75L79.3 22.55L79.5 22.25L79.5 21.9L78.9 21.75L78.85 21.75L79.05 21.2L78.1 21.2L78.1 21.15L78.45 20.65L78.4 20.6L77.4 20.5L77.95 20.1L77.65 20.1L75.85 20.3L75.15 20.3L75.15 20.25L75.8 20L74.85 20L73.15 20.05L73.65 19.9L74 19.7L73.65 19.7L73.3 19.65L74 19.45L74.7 19.25L74.5 19.25L71.4 19.4L71.35 19.4L71.4 19.35L72.2 19.15L73.15 18.9L72.15 18.8L73.25 18.5L74.6 17.95L73.95 17.9L72.65 17.95L72.65 17.9L73.2 17.6L73.75 17.25L73.2 17.15L72.55 17.1L72.6 17.05L72.6 17L72.85 16.85L73.15 16.65L72.75 16.6L72.45 16.55L72.45 16.5L72.55 16.4L72.65 16.25L72.15 16.25L72.3 16.15L72.45 16L71.65 15.95L72.15 15.65L71.75 15.65L71.3 15.75L70.9 15.8L71.25 15.4L70.6 15.5L69.85 15.65L70.1 15.25L69.7 15.35L69.3 15.45L69.5 15.2L69.5 15.15L69.45 15.15L68.55 15.45L67.85 15.7L68.15 15.35L68.35 15L67.55 15.55L67.65 15.25L67.75 15L67.2 15.65L67.2 15.15L67.15 15.15L67.15 15.45L66.75 15.45L66.35 15.45L66.45 15.75L66.2 15.7L66 15.6L65.8 15.6L65.8 15.8L65.85 15.85L65.9 15.9L65.9 15.95L65.6 15.95L65.35 15.85L64.9 15.85L64.95 16.05L65 16.2L64.85 16.2L64.75 16.15L64.6 16.1L64.25 16.1L64.3 16.3L64.45 16.45L64.15 16.45L64 16.4L63.8 16.35L63.6 16.35L63.75 16.55L63.55 16.55L63.25 16.45L63.05 16.45L63.15 16.65L62.8 16.55L62.65 16.55L62.65 16.8L62.35 16.75L62.15 16.75L62.15 17.1L61.7 17.35L61.7 17.4L61.85 17.45L62 17.5L61.7 17.85L61.4 18.1L61.85 18.1L61.5 18.5L61.1 18.85L61.5 18.8L61.05 19.65L61 19.65L61.05 19.65L61.6 19.45L61.2 20.5L61.2 20.55L61.25 20.55L61.8 20.25L62.25 20L62.1 20.25L61.95 20.5L62.7 20.15L63.25 19.95L63.1 20.1L63 20.25L63.75 20.3L62.45 20.65L62.8 20.65L62.8 20.7Q62.25 20.9 61.95 21.35L61.9 21.4L61.55 21.55L61.15 21.7L61.1 21.65L60.95 21.85L60.8 22.05L60.75 21.95L60.45 22.35L60.4 22.4L60.4 22.5L60.3 22.7L60.05 22.95L60.05 23L60.3 22.9L60.35 22.95L60.1 23.2L59.9 23.4L59.9 23.5L60.3 23.5L60.1 23.9L59.85 24.25L60.3 24.25L60.1 24.6L59.9 24.85L60.4 24.85L60.2 25.2L59.95 25.45L60.1 25.45L60.4 25.4L59.95 26.2L60.4 26.2L60.2 26.5L59.95 26.8L60.25 26.75L60.55 26.7L60.4 27.1L60.2 27.5L60.4 27.5L60.55 27.45L60.6 27.35L60.55 27.5L60.35 27.9L60.15 28.45L60.25 28.45L60.3 28.35L60.5 28.3L60.55 28.35M79.8,24.1L79.8 24.15L79.75 24.1L79.8 24.1M79.8,24.75L79.4 24.85L79.35 24.85L79.4 24.8L79.6 24.5L79.65 24.5L79.75 24.55L79.85 24.7L79.7 25L79.55 25.2L79.95 25.35L79.75 25.7L79.65 26L79.75 26.2L79.9 26.8L79.9 27.45L79.75 27.55L79.75 27.5L79.8 27.4L79.8 27.15L79.85 27.1L79.65 26.9L79.65 26.85L79.6 26.4L79.35 26.4L79.35 26.3L79.35 25.95L79.5 25.6L79.45 25.4L79.55 25.2L79.8 24.75M66.3,15.05L66.35 15.05L66.35 15L66.3 15.05M59.95,31.65L60 31.75L60 31.8L59.95 31.65" />
<radialGradient
id="RadialGradID_920" gradientUnits="userSpaceOnUse" gradientTransform="matrix(0.0221252, 0, 0, 0.0221252, 66.55, 18.8)" spreadMethod ="pad" cx="0" cy="0" r="819.2" fx="0" fy="0" >
<stop  offset="0"  style="stop-color:#251C17;stop-opacity:1" />
<stop  offset="1"  style="stop-color:#130B09;stop-opacity:1" />
</radialGradient>
<path style="fill:url(#RadialGradID_920) " d="M79.75,24.1L79.55 24.45L79.6 24.5L79.4 24.8L79.4 24.75L79.45 24.35L79.45 24.1L79.3 24.05L79.3 23.95L79.15 24L79.05 24L79.4 23.4L79.1 23.5L79 23.5L79 23.45L79.15 23.15L79.2 23.05L79.15 23.1L79 23.1L79.05 23.05L79.1 22.85L79.2 22.6L79.15 22.6L79.1 22.65L79 22.65L79.05 22.65L79.05 22.6L79.1 22.45L79.2 22.25L78.95 22.35L78.85 22.35L78.95 22.25L78.95 22.2L79 22.1L78.95 22.1L78.9 21.75L79.5 21.9L79.5 22.25L79.3 22.55L79.2 22.75L79.15 22.85L79.7 22.85L79.7 23.15L79.3 23.75L79.3 23.85L79.35 23.9L79.8 23.85L79.8 24.05L79.8 24.1L79.75 24.1M78.55,21.75L78.6 21.45L77.65 21.3L77.6 21.3L77.65 20.95L77.1 21L77.15 20.6L76.95 20.7L76.6 20.7L76.8 20.4L76.75 20.35L75.45 20.75L75.45 20.7L75.65 20.45L75.4 20.45L73.9 20.7L73.9 20.75L73.25 20.85L72.75 20.9L72.55 20.9L72.75 20.75L73 20.65L72.9 20.65L72.4 20.8L71.75 21.05L71.55 21.05L71.85 20.8L72.15 20.65L72.1 20.65L71.2 20.85L71.15 20.85L70.95 20.85L71.05 20.8L71.2 20.65L71.4 20.55L71.45 20.5L71.5 20.5L72.4 20.05L72.1 20.05L71.3 20.15L72 19.85L71.4 19.75L69.5 19.75L69.5 19.7L69.75 19.6L70 19.45L69.45 19.45L70.1 19.25L70.45 19.15L70.85 19.1L70.2 19.1L70.9 18.85L72.05 18.5L71.15 18.5L71.65 18.35L71.25 18.35L70.9 18.3L70.95 18.25L72.15 17.9L71.3 17.9L71.8 17.7L72.25 17.5L71.95 17.55L71.6 17.55L72.05 17.05L71.9 17.15L71.7 17.15L71.7 17.1L71.9 16.95L72.05 16.75L72 16.75L71.75 16.85L71.5 16.95L71.15 17.05L71.15 16.95L71.25 16.75L70.55 17.15L70.5 17.1L70.85 16.5L70.5 16.7L70.1 16.85L70.5 16.2L69.2 16.95L69.5 16.2L69.2 16.4L69 16.65L69 16.4L69 16.1L68.95 16.1L68.65 16.7L68.65 16.35L68.3 17.35L68.25 17.35L68.2 16.95L68.15 16.95L68.05 17.25L67.85 17.45L67.85 17.1L67.8 17.15L67.75 17.15L67.65 17.4L67.55 17.6L67.55 17.65L67.2 18.1L67.65 17.1L67.65 17.05L67.35 17.25L67.15 17.45L67.35 16.85L67.4 16.8L67.35 16.8L67.35 16.85L67.05 17.3L66.75 17.7L66.75 17.45L66.85 17.1L66.85 16.9L66.55 17.3Q66.6 17 66.8 16.65L66.25 17.35L66.2 17.35L66.25 17.35L66.3 17.2L66.45 16.95L65.65 17.6L65.7 17.4L65.8 17.2L65.75 17.2L65.55 17.35L65.45 17.4L65.45 17.3L65.4 17.4L65.25 17.65L65.3 17.7L65.25 17.85L65.2 17.85L65.1 17.5L65.05 17.15L64.95 17.85L64.8 17.6L64.65 17.35L64.6 17.7L64.4 17.15L64.3 17.6L64.15 17.4L64.05 17.2L64.05 17.3L64.05 17.35L64 17.35L63.9 17.15L63.8 17.05L63.65 16.95L63.7 17.1L63.1 16.95L63.2 17.15L62.85 17.15L62.7 17.15L62.85 17.2L63.05 17.25L62.4 17.3L62.5 17.3L62.65 17.35L62.35 17.35L62.05 17.4Q62.55 17.55 62.7 17.65L62.55 17.7L62.4 17.75L62.8 17.8L62.6 17.85L62.35 17.95L63.1 18L62.8 18.05L62.55 18.1L62.8 18.15L63.1 18.25L62.9 18.25L62.8 18.3L63.05 18.35L63.25 18.45L63.05 18.45L62.85 18.5L63.5 18.65L63.6 18.65L63.55 18.7L63.1 18.8L63.3 18.85L63.35 18.9L63.05 19L62.75 19.1L62.95 19.1L63.1 19.15L63.1 19.2L62.8 19.25L62.5 19.35L62.5 19.4L62.9 19.4L62.65 19.5L62.45 19.6L63.4 19.5L63.55 19.5L64.25 19.55L63.7 19.7L63.7 19.75L63.85 19.75L64.65 19.6L64.25 19.8L64.85 19.75L65.25 19.8L64.7 19.9L65.25 20L65.8 20.1L65.45 20.1L65.45 20.15L65.85 20.2L66.25 20.25L66.25 20.3L65.95 20.3L65.95 20.35L63.8 20.3L63.75 20.3L63 20.25L63.1 20.1L63.25 19.95L62.7 20.15L61.95 20.5L62.1 20.25L62.25 20L61.8 20.25L61.25 20.55L61.2 20.5L61.6 19.45L61.05 19.65L61 19.65L61.05 19.65L61.5 18.8L61.1 18.85L61.5 18.5L61.85 18.1L61.4 18.1L61.7 17.85L62 17.5L61.85 17.45L61.7 17.4L61.7 17.35L62.15 17.1L62.15 16.75L62.35 16.75L62.65 16.8L62.65 16.55L62.8 16.55L63.15 16.65L63.05 16.45L63.25 16.45L63.55 16.55L63.75 16.55L63.6 16.35L63.8 16.35L64 16.4L64.15 16.45L64.45 16.45L64.3 16.3L64.25 16.1L64.6 16.1L64.75 16.15L64.85 16.2L65 16.2L64.95 16.05L64.9 15.85L65.35 15.85L65.6 15.95L65.9 15.95L65.9 15.9L65.85 15.85L65.8 15.8L65.8 15.6L66 15.6L66.2 15.7L66.45 15.75L66.35 15.45L66.75 15.45L67.15 15.45L67.15 15.15L67.2 15.15L67.2 15.65L67.75 15L67.65 15.25L67.55 15.55L68.35 15L68.15 15.35L67.85 15.7L68.55 15.45L69.45 15.15L69.5 15.15L69.5 15.2L69.3 15.45L69.7 15.35L70.1 15.25L69.85 15.65L70.6 15.5L71.25 15.4L70.9 15.8L71.3 15.75L71.75 15.65L72.15 15.65L71.65 15.95L72.45 16L72.3 16.15L72.15 16.25L72.65 16.25L72.55 16.4L72.45 16.5L72.45 16.55L72.75 16.6L73.15 16.65L72.85 16.85L72.6 17L72.6 17.05L72.55 17.1L73.2 17.15L73.75 17.25L73.2 17.6L72.65 17.9L72.65 17.95L73.95 17.9L74.6 17.95L73.25 18.5L72.15 18.8L73.15 18.9L72.2 19.15L71.4 19.35L71.35 19.4L71.4 19.4L74.5 19.25L74.7 19.25L74 19.45L73.3 19.65L73.65 19.7L74 19.7L73.65 19.9L73.15 20.05L74.85 20L75.8 20L75.15 20.25L75.15 20.3L75.85 20.3L77.65 20.1L77.95 20.1L77.4 20.5L78.4 20.6L78.45 20.65L78.1 21.15L78.1 21.2L79.05 21.2L78.85 21.75L78.55 21.75M68.85,18.75L68.9 18.65L68.95 18.55L69.1 18.4L68.8 18.4L67.95 18.7L67.95 18.65L68.2 18.3L67.55 18.5L67.85 18.05L68 18L68.05 17.95Q68.25 17.85 68.6 17.7L68.35 18.35L69.4 17.85L69.15 18.35L69.15 18.4L70 18L69.15 19.1L69.1 19.1L69.2 18.8L69.35 18.65L69.35 18.6L68.85 18.8L68.8 18.8L68.85 18.75M79,26L79.05 26.05L79 26.05L79 26M79.55,25.2L79.45 25.4L79.35 25L79.25 25L79.4 24.85L79.8 24.75L79.55 25.2" />
<radialGradient
id="RadialGradID_921" gradientUnits="userSpaceOnUse" gradientTransform="matrix(0.00845337, 0.0059967, -0.00379944, 0.00535583, 68.6, 20.05)" spreadMethod ="pad" cx="0" cy="0" r="819.2" fx="0" fy="0" >
<stop  offset="0"  style="stop-color:#534232;stop-opacity:1" />
<stop  offset="0.960784"  style="stop-color:#1C1412;stop-opacity:1" />
</radialGradient>
<path style="fill:url(#RadialGradID_921) " d="M71.15,20.95L71.15 21.05L70.7 21.1L70.6 21.1L70.75 20.8L70.35 20.85L70.4 20.65L69.95 20.65L70.1 20.45L70.05 20.4L69.8 20.5L69.85 20.5L69.55 20.7L69.2 20.8L69.3 20.65L69.35 20.65L69.4 20.55L69 20.65L69.4 20.25L69.35 20.25L69 20.35L68.85 20.4L69.2 19.65L68.75 19.9L68.7 19.9L69.2 19.25L69.15 19.2L68.55 19.6L68.55 19.55L68.75 19.3L68.1 19.65L68.1 19.6L68.25 19.45L68.85 18.75L68.8 18.8L68.85 18.8L69.35 18.6L69.35 18.65L69.2 18.8L69.1 19.1L69.15 19.1L70 18L69.15 18.4L69.15 18.35L69.4 17.85L68.35 18.35L68.6 17.7Q68.25 17.85 68.05 17.95L68 18L67.85 18.05L67.55 18.5L68.2 18.3L67.95 18.65L67.95 18.7L68.8 18.4L69.1 18.4L68.95 18.55Q68.4 18.9 68 19.2L68.3 18.6L67.75 19L67.75 18.85L67.45 19.05L67.3 19.15L67.2 19.25L67.45 18.6L67.4 18.6L67.05 18.85L67.15 18.35L66.75 18.75L66.8 18.55L66.95 18.2L66.95 18L66.45 18.7L66.45 18.3L66.4 18.3L66.25 18.45L66.25 17.85L66.2 17.85L66 18.2L66 17.6L65.7 18.2L65.65 17.85L65.6 17.85L65.55 18L65.5 18.1L65.45 18.05L65.4 17.6L65.3 17.7L65.25 17.65L65.4 17.4L65.45 17.4L65.55 17.35L65.75 17.2L65.8 17.2L65.7 17.4L65.65 17.6L66.45 16.95L66.3 17.2L66.25 17.35L66.2 17.35L66.2 17.4L66.25 17.35L66.8 16.65Q66.6 17 66.55 17.3L66.85 16.9L66.85 17.1L66.75 17.45L66.75 17.7L67.05 17.3L67.35 16.85L67.15 17.45L67.35 17.25L67.65 17.05L67.65 17.1L67.2 18.1L67.55 17.65L67.55 17.6L67.65 17.4L67.75 17.15L67.8 17.15L67.85 17.1L67.85 17.45L68.05 17.25L68.15 16.95L68.2 16.95L68.25 17.35L68.25 17.4L68.3 17.35L68.65 16.35L68.65 16.7L68.95 16.1L69 16.1L69 16.4L69 16.65L69.2 16.4L69.5 16.2L69.2 16.95L70.5 16.2L70.1 16.85L70.5 16.7L70.85 16.5L70.5 17.1L70.5 17.15L70.55 17.15L71.25 16.75L71.15 16.95L71.15 17.05L71.5 16.95L71.75 16.85L72 16.75L72.05 16.75L71.9 16.95L71.7 17.1L71.7 17.15L71.9 17.15L72.05 17.05L71.6 17.55L71.95 17.55L72.25 17.5L71.8 17.7L71.3 17.9L72.15 17.9L70.95 18.25L70.9 18.3L71.25 18.35L71.65 18.35L71.15 18.5L72.05 18.5L70.9 18.85L70.2 19.1L70.85 19.1L70.45 19.15L70.1 19.25L69.45 19.45L70 19.45L69.75 19.6L69.5 19.7L69.5 19.75L71.4 19.75L72 19.85L71.3 20.15L72.1 20.05L72.4 20.05L71.5 20.5L71.45 20.5L71.4 20.55L71.2 20.65L71.05 20.8L70.95 20.85L71.15 20.85L71.15 20.95M70.05,21.3L70.05 21.25L70.1 21.3L70.05 21.3" />
<linearGradient
id="LinearGradID_922" gradientUnits="userSpaceOnUse" gradientTransform="matrix(0.00138855, 0, 0, 0.0010376, 63.05, 17.8)" spreadMethod ="pad" x1="-819.2" y1="0" x2="819.2" y2="0" >
<stop  offset="0.00392157" style="stop-color:#201713;stop-opacity:1" />
<stop  offset="0.945098" style="stop-color:#48402D;stop-opacity:1" />
</linearGradient>
<path style="fill:url(#LinearGradID_922) " d="M63.5,18.65L62.85 18.5L63.05 18.45L63.25 18.45L63.05 18.35L62.8 18.3L62.9 18.25L63.1 18.25L62.8 18.15L62.55 18.1L62.8 18.05L63.1 18L62.35 17.95L62.6 17.85L62.8 17.8L62.4 17.75L62.55 17.7L62.7 17.65Q62.55 17.55 62.05 17.4L62.35 17.35L62.65 17.35L62.5 17.3L62.4 17.3L63.05 17.25L62.85 17.2L62.7 17.15L62.85 17.15L63.2 17.15L63.1 16.95L63.7 17.1L63.7 17.15L63.75 17.25L63.7 17.25L63.6 17.2L63.4 17.15L63.45 17.25L63.55 17.4L63.35 17.4L63.15 17.3L63.25 17.45L63.4 17.6L63 17.7L63.35 17.75L63.4 17.8L63.3 17.85L63.15 17.9L63.5 18.05L63.4 18.25L63.7 18.35L64.05 18.4L63.95 18.5L63.85 18.6L63.9 18.6L63.5 18.65" />
<linearGradient
id="LinearGradID_923" gradientUnits="userSpaceOnUse" gradientTransform="matrix(0.00325012, 0.000442505, -0.000366211, 0.00265503, 65.7, 19.15)" spreadMethod ="pad" x1="-819.2" y1="0" x2="819.2" y2="0" >
<stop  offset="0" style="stop-color:#483E32;stop-opacity:1" />
<stop  offset="0.945098" style="stop-color:#9D7959;stop-opacity:1" />
</linearGradient>
<path style="fill:url(#LinearGradID_923) " d="M64,17.75L63.9 17.8L63.85 17.8L63.7 18L64.1 18.05L64.05 18.15L63.95 18.25L64.35 18.3L64.15 18.5L64.8 18.5L64.65 18.55L64.55 18.65L65.1 18.65L64.9 18.8L65.3 18.85L65.65 18.9L65.55 19L65.4 19.05L65.4 19.1L65.9 19.15L65.9 19.25L65.8 19.4L65.75 19.4L66.05 19.45L66.25 19.45L66.25 19.55L66.15 19.65L66.05 19.7L66.3 19.75L66.55 19.8L66.55 19.9L66.5 19.9L66.5 19.95L65.45 19.75L65.65 19.7L65.8 19.55L65.3 19.5L65.4 19.4L65.45 19.4L64.7 19.5L64.35 19.5L64.35 19.45L64.8 19.2L64.5 19.2L63.9 19.3L64.2 19.15L64.15 19.1L63.35 19.15L63.35 19.1L63.85 18.9L64.35 18.7L64.15 18.65L63.95 18.6L63.9 18.6L63.85 18.6L63.95 18.5L64.05 18.4L63.7 18.35L63.4 18.25L63.5 18.05L63.15 17.9L63.3 17.85L63.4 17.8L63.35 17.75L63 17.7L63.4 17.6L63.25 17.45L63.15 17.3L63.35 17.4L63.55 17.4L63.45 17.25L63.4 17.15L63.6 17.2L63.7 17.25L63.75 17.25L63.7 17.15L63.7 17.1L63.65 16.95L63.8 17.05L63.9 17.15L64 17.35L64 17.75M68.7,21.5L68.55 21.5L68.4 21.55L68.25 21.55L68.25 21.5L68.2 21.5L68.1 21.4L68.1 21.35L68.1 21.3L68.05 21.15L67.75 21.05L67.45 20.95L67.55 20.9L67.7 20.75L67.3 20.7L66.8 20.65L67.25 20.6L67.25 20.55L66.85 20.45L66.55 20.35L66.75 20.3L66.95 20.2L66.5 20.15L66.1 20.1L66.1 20.05L66.55 20L66.55 19.95L66.9 20L66.8 20.1L66.8 20.15L67.3 20.2L67.45 20.2L67.3 20.35L67.2 20.4L67.3 20.45L67.65 20.5L67.55 20.55L67.45 20.6L67.9 20.7L67.9 20.75L67.8 20.85L68.35 21.15L68.4 21.2L68.45 21.25L68.45 21.2L68.5 21.2L68.65 21.35L68.75 21.5L68.7 21.5" />
<linearGradient
id="LinearGradID_924" gradientUnits="userSpaceOnUse" gradientTransform="matrix(0.00389099, 0.00331116, -0.000473022, 0.000549316, 66.9, 20.4)" spreadMethod ="pad" x1="-819.2" y1="0" x2="819.2" y2="0" >
<stop  offset="0.00392157" style="stop-color:#443C31;stop-opacity:1" />
<stop  offset="0.945098" style="stop-color:#A37356;stop-opacity:1" />
</linearGradient>
<path style="fill:url(#LinearGradID_924) " d="M64,17.35L64.05 17.35L64.05 17.3L64.05 17.2L64.15 17.4L64.3 17.6L64.4 17.15L64.6 17.7L64.65 17.35L64.8 17.6L64.95 17.85L65.05 17.15L65.1 17.5L65.2 17.85L65.25 17.85L65.3 17.7L65.4 17.6L65.45 18.05L65.5 18.1L65.55 18L65.6 17.85L65.65 17.85L65.7 18.2L66 17.6L66 18.2L66.2 17.85L66.25 17.85L66.25 18.45L66.4 18.3L66.45 18.3L66.45 18.7L66.95 18L66.95 18.2L66.8 18.55L66.75 18.75L67.15 18.35L67.05 18.85L67.4 18.6L67.45 18.6L67.2 19.25L67.3 19.15L67.45 19.05L67.75 18.85L67.75 19L68.3 18.6L68 19.2Q68.4 18.9 68.95 18.55L68.9 18.65L68.85 18.75L68.25 19.45L68.1 19.6L68.1 19.65L68.75 19.3L68.55 19.55L68.55 19.6L69.15 19.2L69.2 19.25L68.7 19.9L68.75 19.9L69.2 19.65L68.85 20.4L69 20.35L69.35 20.25L69.4 20.25L69 20.65L68.7 20.65L68.75 20.55L68.8 20.5L68.3 20.5L68.4 20.3L68 20.3L68.1 20.25L68.15 20.15L67.7 20.15L67.8 20L67.9 19.9L67.4 19.9L67.6 19.7L67.15 19.7L67.3 19.45L67.3 19.4L67.2 19.45L67.05 19.5L67.1 19.4L67.15 19.3L67.05 19.3L66.8 19.35L66.95 19.05L66.9 19.05L66.7 19.1L66.6 19.1L66.7 18.9L66.6 18.9L66.3 18.9L66.15 18.9L66.25 18.7L66 18.7L66 18.65L66.05 18.55L65.9 18.55L65.7 18.55L65.85 18.35L65.5 18.4L65.45 18.4L65.45 18.35L65.55 18.25L65.6 18.2L65.45 18.2L65.25 18.25L65.25 18.2L65.3 18.1L65.05 18.15L65.15 18L64.95 18.05L64.6 18.15L64.75 17.95L64.6 17.95L64.3 18.05L64.3 17.95L64.35 17.9L64.25 17.9L64 17.95L64.05 17.85L64.1 17.75L64 17.75L64 17.35" />
<linearGradient
id="LinearGradID_925" gradientUnits="userSpaceOnUse" gradientTransform="matrix(0.00411987, 0.00180054, -0.000854492, 0.00196838, 66.6, 19.55)" spreadMethod ="pad" x1="-819.2" y1="0" x2="819.2" y2="0" >
<stop  offset="0" style="stop-color:#857663;stop-opacity:1" />
<stop  offset="1" style="stop-color:#C7A787;stop-opacity:1" />
</linearGradient>
<path style="fill:url(#LinearGradID_925) " d="M66.5,19.95L66.5 19.9L66.55 19.9L66.55 19.8L66.3 19.75L66.05 19.7L66.15 19.65L66.25 19.55L66.25 19.45L66.05 19.45L65.75 19.4L65.8 19.4L65.9 19.25L65.9 19.15L65.4 19.1L65.4 19.05L65.55 19L65.65 18.9L65.3 18.85L64.9 18.8L65.1 18.65L64.55 18.65L64.65 18.55L64.8 18.5L64.15 18.5L64.35 18.3L63.95 18.25L64.05 18.15L64.1 18.05L63.7 18L63.85 17.8L63.9 17.8L64 17.75L64.1 17.75L64.05 17.85L64 17.95L64.25 17.9L64.35 17.9L64.3 17.95L64.3 18.05L64.6 17.95L64.75 17.95L64.6 18.15L64.95 18.05L65.15 18L65.05 18.15L65.3 18.1L65.25 18.2L65.25 18.25L65.45 18.2L65.6 18.2L65.55 18.25L65.45 18.35L65.45 18.4L65.5 18.4L65.85 18.35L65.7 18.55L65.9 18.55L66.05 18.55L66 18.65L66 18.7L66.25 18.7L66.15 18.9L66.3 18.9L66.6 18.9L66.7 18.9L66.6 19.1L66.7 19.1L66.9 19.05L66.95 19.05L66.8 19.35L67.05 19.3L67.15 19.3L67.1 19.4L67.05 19.5L67.2 19.45L67.3 19.4L67.3 19.45L67.15 19.7L67.6 19.7L67.4 19.9L67.9 19.9L67.8 20L67.7 20.15L68.15 20.15L68.1 20.25L68 20.3L68.4 20.3L68.3 20.5L68.8 20.5L68.75 20.55L68.7 20.65L69 20.65L68.95 20.75L68.9 20.8L69.05 20.85L69.25 20.9L69.25 20.95L69.85 20.95L69.55 21.15L69.55 21.2L69.9 21.2L70.35 21.1L70.4 21.15L70.1 21.35L71 21.4L71 21.35L71.05 21.35L71.1 21.35L71.4 21.5L71.6 21.65L71 21.7L70.75 21.6L70.65 21.6L70.5 21.65L70.45 21.7L70.3 21.7L70.25 21.75L70.05 21.75L69.8 21.75L69.8 21.7L69.3 21.65L69.3 21.6L69.15 21.6L69.15 21.5L68.85 21.7L68.8 21.6L68.85 21.5L68.75 21.5L68.65 21.35L68.5 21.2L68.45 21.2L68.35 21.15L67.8 20.85L67.9 20.75L67.9 20.7L67.45 20.6L67.55 20.55L67.65 20.5L67.3 20.45L67.2 20.4L67.3 20.35L67.45 20.2L67.3 20.2L66.8 20.15L66.8 20.1L66.9 20L66.55 19.95L66.5 19.95M70.1,21.3L70.05 21.25L70.05 21.3L70.1 21.3" />
<linearGradient
id="LinearGradID_926" gradientUnits="userSpaceOnUse" gradientTransform="matrix(0.00172424, -0.00149536, 0.00108337, 0.00125122, 64.5, 19.75)" spreadMethod ="pad" x1="-819.2" y1="0" x2="819.2" y2="0" >
<stop  offset="0.00392157" style="stop-color:#211813;stop-opacity:1" />
<stop  offset="0.945098" style="stop-color:#645341;stop-opacity:1" />
</linearGradient>
<path style="fill:url(#LinearGradID_926) " d="M66,21.25L65.25 21.1L66.4 21.1L66.5 21.1L66.65 21.15L67.1 21.1L67.3 21.1L67.4 21.1L67.3 21.05L66.6 20.85L66.6 20.8L67.05 20.8L66.3 20.55L66.45 20.5L66.6 20.5L66.6 20.45L65.95 20.35L65.95 20.3L66.25 20.3L66.3 20.3L66.25 20.25L65.85 20.2L65.45 20.15L65.45 20.1L65.8 20.1L65.25 20L64.7 19.9L65.25 19.8L64.85 19.75L64.25 19.8L64.65 19.6L63.85 19.75L63.7 19.75L63.7 19.7L64.25 19.55L63.55 19.5L63.4 19.5L62.45 19.6L62.65 19.5L62.9 19.4L62.5 19.4L62.5 19.35L62.8 19.25L63.1 19.2L63.1 19.15L62.95 19.1L62.75 19.1L63.05 19L63.35 18.9L63.3 18.85L63.1 18.8L63.55 18.7L63.6 18.65L63.5 18.65L63.9 18.6L63.95 18.6L64.15 18.65L64.35 18.7L63.85 18.9L63.35 19.1L63.35 19.15L64.15 19.1L64.2 19.15L63.9 19.3L64.5 19.2L64.8 19.2L64.35 19.45L64.35 19.5L64.7 19.5L65.45 19.4L65.4 19.4L65.3 19.5L65.8 19.55L65.65 19.7L65.45 19.75L66.5 19.95L66.55 19.95L66.55 20L66.1 20.05L66.1 20.1L66.5 20.15L66.95 20.2L66.75 20.3L66.55 20.35L66.85 20.45L67.25 20.55L67.25 20.6L66.8 20.65L67.3 20.7L67.7 20.75L67.55 20.9L67.45 20.95L67.75 21.05L68.05 21.15L68.1 21.3L68 21.3L68.1 21.4L68.2 21.5L68.2 21.55L66 21.25" />
<linearGradient
id="LinearGradID_927" gradientUnits="userSpaceOnUse" gradientTransform="matrix(0.0030365, 0, 0, 0.000534058, 63.95, 20.6)" spreadMethod ="pad" x1="-819.2" y1="0" x2="819.2" y2="0" >
<stop  offset="0.0313725" style="stop-color:#1F1715;stop-opacity:1" />
<stop  offset="0.945098" style="stop-color:#200C05;stop-opacity:1" />
</linearGradient>
<path style="fill:url(#LinearGradID_927) " d="M63.75,20.3L63.8 20.3L65.95 20.35L66.6 20.45L66.6 20.5L66.45 20.5L66.3 20.55L67.05 20.8L66.6 20.8L66.6 20.85L67.3 21.05L67.4 21.1L67.3 21.1L67.1 21.1L66.65 21.15L66.5 21.1L66.4 21.1L65.9 21L65.05 20.9L65.15 20.85L65.3 20.75L64.95 20.75L64.5 20.8L64.1 20.9L64.05 20.9L64.45 20.65L63.25 20.9L63.5 20.65L62.6 20.9L62.8 20.7L62.8 20.65L62.45 20.65L63.75 20.3" />
<linearGradient
id="LinearGradID_928" gradientUnits="userSpaceOnUse" gradientTransform="matrix(0.00305176, 0, 0, 0.00117493, 64.05, 21.6)" spreadMethod ="pad" x1="-819.2" y1="0" x2="819.2" y2="0" >
<stop  offset="0.0313725" style="stop-color:#261E1C;stop-opacity:1" />
<stop  offset="0.431373" style="stop-color:#2F241E;stop-opacity:1" />
<stop  offset="0.945098" style="stop-color:#60442E;stop-opacity:1" />
</linearGradient>
<path style="fill:url(#LinearGradID_928) " d="M61.4,23L61.7 22.35Q61.85 21.85 62.35 21.4Q61.75 21.7 61.55 22.4L61.8 21.6L61.8 21.55L61.85 21.55L61.9 21.4L61.95 21.35Q62.25 20.9 62.8 20.7L62.6 20.9L63.5 20.65L63.25 20.9L64.45 20.65L64.05 20.9L64.1 20.9L64.5 20.8L64.95 20.75L65.3 20.75L65.15 20.85L65.05 20.9L65.9 21L66.4 21.1L65.25 21.1L66 21.25L66.55 21.5L65.1 21.35L64.5 21.4L65.5 21.7L62.85 21.9L61.9 22.6L62 22.45L61.95 22.45L61.85 22.6L61.55 23L61.4 23" />
<radialGradient
id="RadialGradID_929" gradientUnits="userSpaceOnUse" gradientTransform="matrix(0.0283508, 0, 0, 0.0283508, 60.1, 22.65)" spreadMethod ="pad" cx="0" cy="0" r="819.2" fx="0" fy="0" >
<stop  offset="0"  style="stop-color:#C74C00;stop-opacity:0.533333" />
<stop  offset="1"  style="stop-color:#FCDBBF;stop-opacity:0" />
</radialGradient>
<path style="fill:url(#RadialGradID_929) " d="M62,27.2L61.75 27.5L61.5 27.75L61.5 27.8L61.55 27.8L61.65 27.75L61.25 28.3L60.9 28.7L60.9 28.75L60.95 28.75L61.15 28.6L60.6 29.3L60.8 29.3L60.65 29.55L60.5 29.85L60.45 29.85L60.5 29.9L60.6 30.25L60.55 30.25L60.5 30.15L60.5 30.3L60.55 30.5L60.55 30.55L60.45 30.45L60.45 30.6L60.5 30.8L60.55 30.85L60.55 31.1L60.4 30.95L60.45 29.2L60.45 28.95L60.6 28.95L60.55 28.85L60.5 28.75L60.5 28.7L60.7 28.7L60.8 28.65L60.75 28.6L60.65 28.5L60.55 28.5L60.55 28.45L60.6 28.45L60.75 28.35L60.9 28.3L60.7 28.25L61 28.15L61.3 28L61.05 28L60.95 27.95L61.3 27.55L61.15 27.5L61.4 27.1L61.15 27.1L61.45 26.7L61.55 26.45L61.45 26.45L61.55 26.25L61.5 26.05L61.5 25.9Q61.25 24.5 61.4 24.15L61.35 24.15L61.5 23.7L61.55 23.2L61.45 23.2L61.55 23.1L61.6 23L61.55 23L61.85 22.6L61.95 22.45L62 22.45L61.9 22.6L62.85 21.9L65.5 21.7L64.5 21.4L65.1 21.35L66.55 21.5L66 21.25L68.2 21.55L68.25 21.6L68.05 21.6L67.5 21.5L67.3 21.5L67.15 21.5L67.05 21.45L66.75 21.45L66.85 21.55L66.95 21.7L66.65 21.7L65.95 21.6L65.7 21.6L65.8 21.7L65.8 21.8L63.85 22.05L63.85 22L63.95 21.85L63.1 22.25L62.3 22.9L62.35 22.7L62.4 22.55L62.1 22.8L61.9 23.05L61.85 23.1L61.75 23.3L61.6 23.6L61.6 23.65L61.75 23.6L61.95 23.5L61.8 24.2L61.8 24.25L61.85 24.25L62 24.1L61.75 24.9L61.85 25.1L61.85 25.25L61.8 25.25L61.75 25.55L61.75 25.85L61.9 25.8L61.85 26L61.8 26.2L61.95 26.2L62.05 26.1L62.05 26.3L62 26.3L61.7 26.7L61.65 26.75L61.8 26.7L62 26.7L61.8 27.2L61.95 27.15L62 27.2M60.5,31.45L60.45 31.45L60.4 31.4L60.45 31.4L60.4 31.15L60.5 31.35L60.55 31.45L60.5 31.45M60.45,31.7L60.5 31.8L60.5 32.1L60.45 31.7M60.3,33.15L60.2 33.15L60.15 32.8L60.15 32.7L60.3 33.15M68.9,21.7L68.45 21.8L68.5 21.8L68.7 21.5L68.75 21.5L68.85 21.5L68.8 21.6L68.85 21.7L69.15 21.5L69.15 21.6L68.9 21.7M69.3,21.75L69.3 21.65L69.8 21.7L69.8 21.75L69.3 21.75M68,21.3L68.1 21.35L68.1 21.4L68 21.3M61.75,25.9L61.8 25.95L61.8 25.9L61.75 25.9M61.35,27.3L61.35 27.35L61.35 27.3" />
<radialGradient
id="RadialGradID_930" gradientUnits="userSpaceOnUse" gradientTransform="matrix(0.00984192, 0, 0, 0.00984192, 60.95, 28.2)" spreadMethod ="pad" cx="0" cy="0" r="819.2" fx="0" fy="0" >
<stop  offset="0"  style="stop-color:#5C3F31;stop-opacity:0.682353" />
<stop  offset="0.988235"  style="stop-color:#2B1A12;stop-opacity:1" />
</radialGradient>
<path style="fill:url(#RadialGradID_930) " d="M60.15,32.7L60.1 32.35L60.05 32.35L60 32.35L59.95 31.85L60 31.8L60 31.75L59.95 31.65L59.95 31.35L60.05 30.45L60.2 29.2L60.1 29.15L60.3 28.75L60.55 28.35L60.55 28.3L60.6 28.3L60.7 28.25L60.75 28.15L60.65 28.15L60.7 28L60.4 28L60.75 27.35L60.75 27.3L61.05 26.7L60.8 26.45L61.1 26.15L60.8 26.15L61.2 25.55L61 25.6L61.1 25.45L61.2 25.25L60.95 25.25L61.2 24.95L61.05 24.95L61.15 24.8L61.2 24.7L61 24.75L60.95 24.75L61.05 24.55L61.15 24.4L60.95 24.4L61.1 24.15L60.95 24.3L60.9 24.3L60.9 24.25L61 24L61.15 23.7L61 23.75L61.15 23.5L60.9 23.6L61.05 23.4L61.15 23.25L61.05 23.3L61 23.3L61 23.25L61.15 22.95L61.1 23L61 23L61 22.95L61.2 22.8L61.05 22.8L61 22.85L60.9 22.85L61.25 22.45L61.15 22.45L61.1 22.45L61.2 22.3L61.3 22.15L61.2 22.25L61.15 22.25L61.2 22.25L61.55 21.8L61.45 21.85L61.4 21.85L61.5 21.75L61.8 21.6L61.55 22.4Q61.75 21.7 62.35 21.4Q61.85 21.85 61.7 22.35L61.4 23L61.55 23L61.6 23L61.55 23.1L61.45 23.2L61.55 23.2L61.5 23.7L61.35 24.15L61.4 24.15Q61.25 24.5 61.5 25.9L61.5 26.05L61.55 26.25L61.45 26.45L61.55 26.45L61.45 26.7L61.15 27.1L61.4 27.1L61.15 27.5L61.3 27.55L60.95 27.95L61.05 28L61.3 28L61 28.15L60.7 28.25L60.9 28.3L60.75 28.35L60.6 28.45L60.55 28.45L60.55 28.5L60.65 28.5L60.75 28.6L60.8 28.65L60.7 28.7L60.5 28.7L60.5 28.75L60.55 28.85L60.6 28.95L60.45 28.95L60.45 29.2L60.4 30.95L60.4 31.15L60.45 31.4L60.4 31.4L60.4 31.65L60.45 31.7L60.5 32.1L60.95 35L60.3 33.25L60.3 33.1L60.3 33.15L60.15 32.7M60.15,32.8L60.2 33.05L60.15 32.95L60.15 32.9L60 32.35L60.1 32.75L60.15 32.9L60.15 32.8M61.8,25.9L61.8 25.95L61.75 25.9L61.8 25.9" />
<radialGradient
id="RadialGradID_931" gradientUnits="userSpaceOnUse" gradientTransform="matrix(0.0126648, 0, 0, 0.0126648, 61.05, 27.6)" spreadMethod ="pad" cx="0" cy="0" r="819.2" fx="0" fy="0" >
<stop  offset="0"  style="stop-color:#453F30;stop-opacity:1" />
<stop  offset="1"  style="stop-color:#0D0A0B;stop-opacity:1" />
</radialGradient>
<path style="fill:url(#RadialGradID_931) " d="M60.5,28.3L60.3 28.35L60.25 28.45L60.15 28.45L60.35 27.9L60.55 27.5L60.6 27.35L60.55 27.45L60.4 27.5L60.2 27.5L60.4 27.1L60.55 26.7L60.25 26.75L59.95 26.8L60.2 26.5L60.4 26.2L59.95 26.2L60.4 25.4L60.1 25.45L59.95 25.45L60.2 25.2L60.4 24.85L59.9 24.85L60.1 24.6L60.3 24.25L59.85 24.25L60.1 23.9L60.3 23.5L59.9 23.5L59.9 23.4L60.1 23.2L60.35 22.95L60.35 22.9L60.3 22.9L60.05 23L60.05 22.95L60.3 22.7L60.4 22.5L60.4 22.4L60.45 22.35L60.75 21.95L60.8 22.05L60.95 21.85L61.1 21.65L61.15 21.7L61.55 21.55L61.9 21.4L61.85 21.55L61.8 21.55L61.8 21.6L61.5 21.75L61.4 21.85L61.45 21.85L61.55 21.8L61.2 22.25L61.15 22.25L61.2 22.25L61.3 22.15L61.2 22.3L61.1 22.45L61.15 22.45L61.25 22.45L60.9 22.85L61 22.85L61.05 22.8L61.2 22.8L61 22.95L61 23L61.1 23L61.15 22.95L61 23.25L61 23.3L61.05 23.3L61.15 23.25L61.05 23.4L60.9 23.6L61.15 23.5L61 23.75L61.15 23.7L61 24L60.9 24.25L60.9 24.3L60.95 24.3L61.1 24.15L60.95 24.4L61.15 24.4L61.05 24.55L60.95 24.75L61 24.75L61.2 24.7L61.15 24.8L61.05 24.95L61.2 24.95L60.95 25.25L61.2 25.25L61.1 25.45L61 25.6L61.2 25.55L60.8 26.15L61.1 26.15L60.8 26.45L61.05 26.7L60.75 27.3L60.75 27.35L60.4 28L60.7 28L60.65 28.15L60.75 28.15L60.7 28.25L60.6 28.3L60.55 28.3L60.5 28.3M61.35,27.35L61.35 27.3L61.35 27.35" />
<linearGradient
id="LinearGradID_932" gradientUnits="userSpaceOnUse" gradientTransform="matrix(0.00389099, 0.00331116, -0.000473022, 0.000549316, 66.9, 20.4)" spreadMethod ="pad" x1="-819.2" y1="0" x2="819.2" y2="0" >
<stop  offset="0.00392157" style="stop-color:#443C31;stop-opacity:1" />
<stop  offset="0.945098" style="stop-color:#8C644A;stop-opacity:1" />
</linearGradient>
<path style="fill:url(#LinearGradID_932) " d="M71.05,21.1L70.9 21.25L70.95 21.25L71.05 21.2L71.15 21.2L71.1 21.35L71.05 21.35L71 21.35L71 21.4L70.1 21.35L70.4 21.15L70.35 21.1L69.9 21.2L69.55 21.2L69.55 21.15L69.85 20.95L69.25 20.95L69.25 20.9L69.05 20.85L68.9 20.8L68.95 20.75L69 20.65L69.4 20.55L69.35 20.65L69.3 20.65L69.2 20.8L69.55 20.7L69.85 20.5L69.8 20.5L70.05 20.4L70.1 20.45L69.95 20.65L70.4 20.65L70.35 20.85L70.75 20.8L70.6 21.1L70.7 21.1L71.15 21.05L71.05 21.1" />
<radialGradient
id="RadialGradID_933" gradientUnits="userSpaceOnUse" gradientTransform="matrix(0.0108948, 0, 0, 0.0108948, 70, 22.25)" spreadMethod ="pad" cx="0" cy="0" r="819.2" fx="0" fy="0" >
<stop  offset="0"  style="stop-color:#5A3518;stop-opacity:1" />
<stop  offset="0.945098"  style="stop-color:#3D1F15;stop-opacity:1" />
</radialGradient>
<path style="fill:url(#RadialGradID_933) " d="M80.2,29.8L80.1 29.85L80.2 29.45L80.2 29.3L80.1 29.35L80.1 29.25L80.15 29.1L80.2 29L80.2 28.75L80.15 28.75L80.1 28.8L80.05 28.85L80.05 28.65L80.15 28.45L80.15 28.35L79.95 28.5L79.9 28.45L79.95 28.2L80 27.95L80 27.75L80.1 27.7L80.2 28.35L80.25 28.7L80.25 28.75L80.25 28.95L80.25 29.25L80.25 29.8L80.2 29.8M77.5,21.2L77 21.2L75.95 20.75L75.8 21L75.5 20.8Q75.25 20.8 75.25 21.05L74.65 20.8Q74.35 20.8 74.05 21.05L74.05 21.15L74.1 21.2L73.9 21.2L73.85 21.15L73.55 21.15L73.3 21.15L73.4 21.25L72.85 21.2L72.35 21.2L72.5 21.25L71.1 21.35L71.05 21.35L71.1 21.35L71.15 21.2L71.05 21.2L70.95 21.25L70.9 21.25L71.05 21.1L71.15 21.05L71.15 20.95L71.15 20.85L71.2 20.85L72.1 20.65L72.15 20.65L71.85 20.8L71.55 21.05L71.75 21.05L72.4 20.8L72.9 20.65L73 20.65L72.75 20.75L72.55 20.9L72.75 20.9L73.25 20.85L73.9 20.75L73.9 20.7L75.4 20.45L75.65 20.45L75.45 20.7L75.45 20.75L76.75 20.35L76.8 20.4L76.6 20.7L76.95 20.7L77.15 20.6L77.1 21L77.65 20.95L77.6 21.3L77.5 21.2M78.95,22.95L78.9 23L78.85 23L78.75 23.05L78.8 22.9L78.8 22.85L78.85 22.65L78.5 22.9L78.45 22.9L78.55 22.7L78.6 22.45L78.55 22.5L78.55 22.1L78 22.1L78.05 21.7L77.8 21.7L77.8 21.65L77.7 21.65L77.65 21.3L78.6 21.45L78.55 21.75L78.85 21.75L78.9 21.75L78.95 22.1L79 22.1L78.95 22.2L78.95 22.25L78.85 22.35L78.95 22.35L79.2 22.25L79.1 22.45L79.05 22.6L79.05 22.65L79 22.65L79.1 22.65L79.15 22.6L79.2 22.6L79.1 22.85L79.05 23.05L78.95 22.95M71.6,21.45L71.45 21.45L71.6 21.4L71.6 21.45M79.15,23.1L79.2 23.05L79.15 23.15L79.15 23.1M79.35,24.85L79.4 24.85L79.25 25L79.35 25L79.45 25.4L79.5 25.6L79.35 25.95L79.35 26.3L79.3 26.3L79.25 26.35L79.2 26.35L79.2 26.15L79.05 26.05L79 26.05L79.05 26.05L79 26L79.1 25.75L79 25.8L79.05 25.7L79.15 25.45L79.15 25.35L79.1 25.4L78.8 25.55L79.15 24.9L78.95 25L79.2 24.45L79.1 24.45L79.05 24.5L78.9 24.5L79.3 24.05L79.45 24.1L79.45 24.35L79.4 24.75L79.4 24.8L79.35 24.85M79.65,27.25L79.6 27.3L79.55 27.3L79.6 27L79.6 26.85L79.45 27L79.45 26.95L79.45 26.85L79.5 26.75L79.5 26.6L79.4 26.65L79.3 26.7L79.3 26.6L79.35 26.5L79.35 26.4L79.6 26.4L79.65 26.85L79.65 26.9L79.85 27.1L79.8 27.15L79.65 27.25" />
<radialGradient
id="RadialGradID_934" gradientUnits="userSpaceOnUse" gradientTransform="matrix(0.0191803, 0, 0, 0.0191803, 60.1, 22.65)" spreadMethod ="pad" cx="0" cy="0" r="819.2" fx="0" fy="0" >
<stop  offset="0"  style="stop-color:#C76E37;stop-opacity:0.533333" />
<stop  offset="1"  style="stop-color:#FCDBBF;stop-opacity:0" />
</radialGradient>
<path style="fill:url(#RadialGradID_934) " d="M61.95,27.15L62 27.15L62 27.2L61.95 27.15M60.45,30.6L60.45 30.45L60.55 30.55L60.55 30.5L60.5 30.3L60.5 30.15L60.55 30.25L60.55 30.3L60.7 30.3L60.7 30.5L60.6 30.65L60.5 30.8L60.45 30.6M60.4,31.15L60.4 30.95L60.55 31.1L60.5 31.35L60.4 31.15M68.35,21.15L68.45 21.2L68.45 21.25L68.4 21.2L68.35 21.15" />
<radialGradient
id="RadialGradID_935" gradientUnits="userSpaceOnUse" gradientTransform="matrix(0.0267487, 0, 0, 0.0267487, 78.45, 20.8)" spreadMethod ="pad" cx="0" cy="0" r="819.2" fx="0" fy="0" >
<stop  offset="0"  style="stop-color:#D65200;stop-opacity:0.443137" />
<stop  offset="1"  style="stop-color:#FCD0AA;stop-opacity:0.0705882" />
</radialGradient>
<path style="fill:url(#RadialGradID_935) " d="M80.15,31.55L80.15 31.6L80.1 31.9L80.15 31.55M80,32.05L80.05 32.1L80.1 32.1L80.05 32.1L80 32.1L80 32.05M79.65,30.1L79.6 30.2L79.4 29.8L79.35 28.75L79.35 28.8L79.15 28.85L79.15 28.3Q78.5 27.85 78.5 27L78.2 27L78 26.7L78.15 26.05L78 25.6L78.1 25.4L78.1 25.15L77.95 25.1L78.05 24.9Q78.05 24.75 78.2 24.65L78.2 24.4L78 24.4L78.25 23.9L78.05 23.9L78.15 23.4L78.1 23.4L78.1 22.9L77.9 22.9L77.9 22.6L77.45 22.5L77.45 22.75L77.4 22.75L77.15 22.4L76.8 22.15L76.75 22.1L76.75 22.15L76.85 22.3L76.9 22.5Q76.35 21.85 75.35 21.55L75.5 21.75L75.55 21.95L75.5 21.95L74.95 21.7L74.7 21.6L72.6 21.9L72.6 21.85L72.75 21.7L72.7 21.7L71.55 22.15L71.7 21.95Q71 22.4 70.55 22.4L70.65 22.15L70.65 21.85L70.15 22.05L69.15 21.95L69.15 22.2L68.3 21.8L68.45 22.2Q68.1 21.9 67.15 21.5L67.3 21.5L67.5 21.5L68.05 21.6L68.25 21.6L68.2 21.55L68.25 21.55L68.4 21.55L68.55 21.5L68.7 21.5L68.5 21.8L68.45 21.8L68.9 21.7L69.15 21.6L69.15 21.7L69.3 21.65L69.3 21.75L69.8 21.75L69.8 21.9Q69.95 21.85 70.05 21.75L70.05 21.85L70.45 21.7L70.75 21.6L71 21.7L71.6 21.65L72.05 21.55L73.05 21.5L72.95 21.45L72.95 21.35L74.1 21.25L74.1 21.2L74.05 21.15L74.2 21.2L74.5 21.25L74.55 21.25L74.95 21.4L74.7 21.15L74.85 21.15L75.5 21.35L75.65 21.35L75.65 21.25L75.55 21.15L75.9 21.3L76.2 21.45L76.3 21.4L76.35 21.3L76.45 21.3L76.45 21.55L76.6 21.6L76.8 21.55L76.95 21.45L77.15 21.45L77.1 21.5L77.25 21.55L77.15 21.7L77.4 21.7L77.3 21.95L77.75 21.95L77.65 22.2L78 22.2L78.2 22.15L78.2 22.25L78.25 22.3L78.4 22.5L78.55 22.5L78.6 22.45L78.55 22.7L78.45 22.9L78.5 22.9L78.85 22.65L78.8 22.85L78.8 22.9L78.75 23.05L78.85 23L78.9 23L78.75 23.4L78.55 23.65L78.95 23.5L78.7 23.85L78.6 24.15L78.8 24.1L78.9 24.05L78.65 24.45L78.75 24.45L78.55 24.95L78.65 24.95L78.8 24.85L78.5 25.45L78.7 25.4L78.55 25.8L78.45 26.15L78.75 25.95L78.75 26.2L78.9 26.1L78.8 26.5L79.05 26.4L79.05 26.75L79.15 26.75L79.1 26.95L79.15 27.3L79.35 27.3L79.6 28.35L79.55 28.35L79.6 28.35L79.7 29.1L79.7 29.3L79.75 29.5L79.65 30.1M71.6,21.45L71.7 21.4L71.75 21.4L71.7 21.45L71.6 21.45M72.6,21.4L72.5 21.4L72.6 21.35L72.6 21.4M79.75,30.05L79.7 30.2L79.7 30.25L79.7 30.05L79.75 30.05M79.8,31.45L79.8 31.35L79.85 31.45L79.8 31.45" />
<radialGradient
id="RadialGradID_936" gradientUnits="userSpaceOnUse" gradientTransform="matrix(0.0267487, 0, 0, 0.0267487, 78.45, 20.8)" spreadMethod ="pad" cx="0" cy="0" r="819.2" fx="0" fy="0" >
<stop  offset="0"  style="stop-color:#C74C00;stop-opacity:0.533333" />
<stop  offset="1"  style="stop-color:#FCDBBF;stop-opacity:0" />
</radialGradient>
<path style="fill:url(#RadialGradID_936) " d="M80.45,31.1L80.5 31.05L80.45 31.1M79.8,31.6L79.8 31.65L79.75 31.6L79.8 31.6M80.35,31.2L80.4 31.2L80.35 31.4L80.35 31.2M79.65,31.1L79.65 31L79.7 31L79.7 31.05L79.65 31.1" />
<radialGradient
id="RadialGradID_937" gradientUnits="userSpaceOnUse" gradientTransform="matrix(0.00791931, 0, 0, 0.00791931, 76.3, 24.15)" spreadMethod ="pad" cx="0" cy="0" r="819.2" fx="0" fy="0" >
<stop  offset="0"  style="stop-color:#593418;stop-opacity:0.541176" />
<stop  offset="0.945098"  style="stop-color:#3D1F15;stop-opacity:1" />
</radialGradient>
<path style="fill:url(#RadialGradID_937) " d="M77.7,21.65L77.75 21.75L77.8 21.7L78.05 21.7L78 22.1L78.55 22.1L78.55 22.5L78.4 22.5L78.25 22.3L78.2 22.25L78.2 22.15L78 22.2L77.65 22.2L77.75 21.95L77.3 21.95L77.4 21.7L77.15 21.7L77.25 21.55L77.1 21.5L77.15 21.45L76.95 21.45L76.8 21.55L76.6 21.6L76.45 21.55L76.45 21.3L76.35 21.3L76.3 21.4L76.2 21.45L75.9 21.3L75.55 21.15L75.65 21.25L75.65 21.35L75.5 21.35L74.85 21.15L74.7 21.15L74.95 21.4L74.55 21.25L74.5 21.25L74.2 21.2L74.05 21.15L74.05 21.05Q74.35 20.8 74.65 20.8L75.25 21.05Q75.25 20.8 75.5 20.8L75.8 21L75.95 20.75L77 21.2L77.5 21.2L77.6 21.3L77.65 21.3L77.7 21.65M74.1,21.25L72.95 21.35L72.95 21.45L73.05 21.5L72.05 21.55L71.6 21.65L71.4 21.5L71.1 21.35L72.5 21.25L72.35 21.2L72.85 21.2L73.4 21.25L73.3 21.15L73.55 21.15L73.85 21.15L73.9 21.2L74.1 21.2L74.1 21.25M71.6,21.4L71.45 21.45L71.6 21.45L71.6 21.4M71.7,21.45L71.75 21.4L71.7 21.4L71.6 21.45L71.7 21.45M72.6,21.35L72.5 21.4L72.6 21.4L72.6 21.35" />
<radialGradient
id="RadialGradID_938" gradientUnits="userSpaceOnUse" gradientTransform="matrix(0.0278473, 0, 0, 0.0278473, 59.35, 29.55)" spreadMethod ="pad" cx="0" cy="0" r="819.2" fx="0" fy="0" >
<stop  offset="0"  style="stop-color:#3E302D;stop-opacity:1" />
<stop  offset="1"  style="stop-color:#231D29;stop-opacity:1" />
</radialGradient>
<path style="fill:url(#RadialGradID_938) " d="M58.55,24.25L58.4 24.1L58.35 24L58.45 24L58.55 23.95L58.45 23.8L58.4 23.75L58.35 23.65L58.25 23.45L58.45 23.55L58.35 23.35L58.25 23.2L58.4 23.3L58.25 22.95L58.05 22.6L58.35 22.85L58.4 22.85L58.35 22.7L58.3 22.55L58.4 22.6L58.4 22.55L58.15 21.9L58.4 22.25L58.35 22.1L58.25 21.85L58.3 21.85L58.3 21.9L58.4 22L58.45 22L58.25 21.45L58.3 21.45L58.4 21.6L58.45 21.6L58.45 21.35L58.45 21.3L58.6 21.8L58.55 22.3L58.45 22.75L58.65 23.3L58.55 23.3L58.7 23.7L58.6 24.45L58.45 24.45L58.45 24.55L58.4 24.5L58.35 24.45L58.25 24.35L58.55 24.3L58.55 24.25" />
<radialGradient
id="RadialGradID_939" gradientUnits="userSpaceOnUse" gradientTransform="matrix(0.00422668, 0, 0, 0.0103912, 79.05, 28.35)" spreadMethod ="pad" cx="0" cy="0" r="819.2" fx="0" fy="0" >
<stop  offset="0"  style="stop-color:#5C3F31;stop-opacity:0.682353" />
<stop  offset="0.988235"  style="stop-color:#2B1A12;stop-opacity:1" />
</radialGradient>
<path style="fill:url(#RadialGradID_939) " d="M80,32.1L80.05 32.1L79.25 34.65L79.7 32L79.55 31L79.65 30.1L79.75 29.5L79.7 29.3L79.7 29.1L79.6 28.35L79.55 28.35L79.6 28.35L79.35 27.3L79.15 27.3L79.1 26.95L79.15 26.75L79.05 26.75L79.05 26.4L78.8 26.5L78.9 26.1L78.75 26.2L78.75 25.95L78.45 26.15L78.55 25.8L78.7 25.4L78.5 25.45L78.8 24.85L78.65 24.95L78.55 24.95L78.75 24.45L78.65 24.45L78.9 24.05L78.8 24.1L78.6 24.15L78.7 23.85L78.95 23.5L78.55 23.65L78.75 23.4L78.9 23L78.95 22.95L79.05 23.05L79 23.1L79.15 23.1L79.15 23.15L79 23.45L79 23.5L79.1 23.5L79.4 23.4L79.05 24L79.15 24L79.3 23.95L79.3 24.05L78.9 24.5L79.05 24.5L79.1 24.45L79.2 24.45L78.95 25L79.15 24.9L78.8 25.55L79.1 25.4L79.15 25.35L79.15 25.45L79.05 25.7L79 25.8L79.1 25.75L79 26L79 26.05L79.05 26.05L79.2 26.15L79.2 26.35L79.25 26.35L79.3 26.3L79.35 26.3L79.35 26.4L79.35 26.5L79.3 26.6L79.3 26.7L79.4 26.65L79.5 26.6L79.5 26.75L79.45 26.85L79.45 26.95L79.45 27L79.6 26.85L79.6 27L79.55 27.3L79.6 27.3L79.65 27.25L79.8 27.15L79.8 27.4L79.75 27.5L79.75 27.55L79.9 27.45L79.9 27.55L79.85 27.65L79.8 27.75L79.8 27.85L79.9 27.8L80 27.75L80 27.95L79.95 28.2L79.9 28.45L79.9 28.5L79.95 28.5L80.15 28.35L80.15 28.45L80.05 28.65L80.05 28.85L80.1 28.8L80.15 28.75L80.2 28.75L80.2 29L80.15 29.1L80.1 29.25L80.1 29.35L80.2 29.3L80.2 29.45L80.1 29.85L80.2 29.8L80.25 29.8L80.25 30L80.15 30.4L80.15 30.65L80.25 30.65L80.25 30.75L80.25 30.95L80.2 31.05L80.15 31.15L80.05 31.3L80.05 31.4L80.15 31.55L80.1 31.9L80 32.05L80 32.1M79.7,30.05L79.7 30.25L79.7 30.2L79.75 30.05L79.7 30.05M79.85,31.45L79.8 31.35L79.8 31.45L79.85 31.45M79.75,31.6L79.8 31.65L79.8 31.6L79.75 31.6M79.7,31.05L79.7 31L79.65 31L79.65 31.1L79.7 31.05" />
</g>
</svg>
