<?xml version="1.0" encoding="utf-8"?>
<svg version="1.1" id="Layer_1"
xmlns="http://www.w3.org/2000/svg"
xmlns:xlink="http://www.w3.org/1999/xlink"
xmlns:author="http://www.sothink.com"
width="34px" height="25px"
xml:space="preserve">
<g id="34" transform="matrix(1, 0, 0, 1, -50.95, -11.2)">
<linearGradient
id="LinearGradID_1497" gradientUnits="userSpaceOnUse" gradientTransform="matrix(0.00154114, 0.000167847, -0.00012207, 0.0017395, 80.3, 17.05)" spreadMethod ="pad" x1="-819.2" y1="0" x2="819.2" y2="0" >
<stop  offset="0" style="stop-color:#21130B;stop-opacity:1" />
<stop  offset="0.407843" style="stop-color:#715B5D;stop-opacity:1" />
<stop  offset="1" style="stop-color:#544138;stop-opacity:1" />
</linearGradient>
<path style="fill:url(#LinearGradID_1497) " d="M80.65,17.6L80.35 17.35L80.35 17.05L81 17.7L80.85 17.05L80.35 16.6L80.35 15.7L81 16.6L81.45 18.45L81.4 18.4L80.65 17.6M80.35,17.75L80.45 18.05L80.35 17.95L80.35 17.75" />
<linearGradient
id="LinearGradID_1498" gradientUnits="userSpaceOnUse" gradientTransform="matrix(0.00204468, 0.000213623, -0.000427246, 0.00582886, 81.85, 23.3)" spreadMethod ="pad" x1="-819.2" y1="0" x2="819.2" y2="0" >
<stop  offset="0" style="stop-color:#432B2E;stop-opacity:1" />
<stop  offset="0.509804" style="stop-color:#4E3E2F;stop-opacity:1" />
<stop  offset="0.988235" style="stop-color:#61493D;stop-opacity:1" />
</linearGradient>
<path style="fill:url(#LinearGradID_1498) " d="M81.5,18.7L81.45 18.5L81.4 18.4L81.45 18.45L81.45 18.5Q82.85 18.95 83.35 20.25L83.6 21.9L83.6 22.4Q83.6 23.85 82.85 25.1L82.85 25.15Q82.65 26.75 83.15 28.25Q82.65 27.55 82.55 26.35L82.55 25.25M82.55,25.25Q82.75 24.3 82.6 22.9L82.6 22.8L82.35 21.8L81.85 20.7L82.05 21.55L81.75 21.1L81.75 21.15L82.1 22.15L82.25 22.5L82.25 22.6L82.25 23L82.05 22.35L81.8 21.6L81.7 21.35L81.5 20.95L81 19.85L80.95 19.7L80.85 19.55L80.5 18.8L80.55 18.8L80.75 19.05L80.95 19.35L81.1 19.55L81.1 19.45L80.7 18.6L80.7 18.55L81.25 19.2L81.1 18.75L80.95 18.35L81.4 18.8L81.5 18.95L81.6 19.15L81.55 19L81.55 18.9L81.5 18.7M83.05,20.6Q82.75 19.9 82.05 19.7L83.15 20.7L83.05 20.6M83.25,21.5L82.9 20.8L82 20L82.35 20.55L81.65 19.85L81.9 20.2L82.45 21.5L82.8 23.05L82.65 25.05L83.15 23.35L83.25 21.65L83.25 21.5" />
<linearGradient
id="LinearGradID_1499" gradientUnits="userSpaceOnUse" gradientTransform="matrix(0.00134277, 0.000137329, -0.000106812, 0.00140381, 80.65, 18.3)" spreadMethod ="pad" x1="-819.2" y1="0" x2="819.2" y2="0" >
<stop  offset="0" style="stop-color:#42292D;stop-opacity:1" />
<stop  offset="0.509804" style="stop-color:#2B161B;stop-opacity:1" />
<stop  offset="0.988235" style="stop-color:#583E3F;stop-opacity:1" />
</linearGradient>
<path style="fill:url(#LinearGradID_1499) " d="M80.45,18.65L80.35 18.6L80.35 17.95L80.45 18.05L80.35 17.75L80.35 17.35L80.65 17.6L81.4 18.4L81.45 18.5L81.5 18.7L81.55 18.9L81.55 19L81.6 19.15L81.5 18.95L81.4 18.8L80.95 18.35L81.1 18.75L81.25 19.2L80.7 18.55L80.7 18.6L81.1 19.45L81.1 19.55L80.95 19.35L80.75 19.05L80.55 18.8L80.5 18.8L80.45 18.65" />
<linearGradient
id="LinearGradID_1500" gradientUnits="userSpaceOnUse" gradientTransform="matrix(0.000228882, 0.00134277, -0.00221252, 0.000564575, 81.25, 22.65)" spreadMethod ="pad" x1="-819.2" y1="0" x2="819.2" y2="0" >
<stop  offset="0" style="stop-color:#2E1D25;stop-opacity:1" />
<stop  offset="1" style="stop-color:#4D343F;stop-opacity:1" />
</linearGradient>
<path style="fill:url(#LinearGradID_1500) " d="M81.7,21.35L81.8 21.6L82.05 22.35L82.25 23L82.25 23.05L82 24.95L81.75 23.15L81.5 22.25L81.45 24.05L81.2 22.4L81.2 23.15L81.25 23.85L81.15 22.95L81.05 23.8L80.95 22.15L80.85 23.75L80.5 21.25L80.8 21.85L80.85 21.85L80.7 20.55L80.95 21.1L81.2 21.6L81.2 21.5L80.95 20.6L81.35 21.4L81.15 20.8L81.45 21.2L81.2 20.5L81.4 20.75L81.5 20.95L81.7 21.35" />
<linearGradient
id="LinearGradID_1501" gradientUnits="userSpaceOnUse" gradientTransform="matrix(0.000808716, 0.000411987, -0.00038147, 0.00112915, 80.85, 20.1)" spreadMethod ="pad" x1="-819.2" y1="0" x2="819.2" y2="0" >
<stop  offset="0" style="stop-color:#24111F;stop-opacity:1" />
<stop  offset="0.494118" style="stop-color:#8C797F;stop-opacity:1" />
<stop  offset="0.988235" style="stop-color:#4B392E;stop-opacity:1" />
</linearGradient>
<path style="fill:url(#LinearGradID_1501) " d="M80.35,19.5L80.35 19.4L80.8 19.85L80.4 19.05L80.85 19.55L80.95 19.7L81 19.85L81.5 20.95L81.4 20.75L81.2 20.5L81.45 21.2L81.15 20.8L80.35 19.5" />
<radialGradient
id="RadialGradID_1502" gradientUnits="userSpaceOnUse" gradientTransform="matrix(0.00836182, 0.00088501, -0.000732422, 0.0101013, 77.8, 15.7)" spreadMethod ="pad" cx="0" cy="0" r="819.2" fx="0" fy="0" >
<stop  offset="0"  style="stop-color:#0D0309;stop-opacity:1" />
<stop  offset="0.988235"  style="stop-color:#281825;stop-opacity:1" />
</radialGradient>
<path style="fill:url(#RadialGradID_1502) " d="M80.45,21.1L80.35 20.7L80.35 19.5L81.15 20.8L81.35 21.4L80.95 20.6L81.2 21.5L81.2 21.6L80.95 21.1L80.7 20.55L80.85 21.85L80.8 21.85L80.5 21.25L80.45 21.1M80.35,18.6L80.45 18.65L80.5 18.8L80.85 19.55L80.4 19.05L80.8 19.85L80.35 19.4L80.35 18.6" />
<linearGradient
id="LinearGradID_1503" gradientUnits="userSpaceOnUse" gradientTransform="matrix(0.000900269, 0.00245667, -0.000701904, 0.000366211, 82.05, 22.25)" spreadMethod ="pad" x1="-819.2" y1="0" x2="819.2" y2="0" >
<stop  offset="0" style="stop-color:#4C3A2E;stop-opacity:1" />
<stop  offset="0.972549" style="stop-color:#8A777D;stop-opacity:1" />
</linearGradient>
<path style="fill:url(#LinearGradID_1503) " d="M82.55,25.2L82.3 22.8L82.25 22.6L82.25 22.5L82.1 22.15L81.75 21.15L81.75 21.1L82.05 21.55L81.85 20.7L82.35 21.8L82.6 22.8L82.6 22.9Q82.75 24.3 82.55 25.25L82.55 25.2" />
<linearGradient
id="LinearGradID_1504" gradientUnits="userSpaceOnUse" gradientTransform="matrix(0.000213623, 0.00350952, -0.00389099, 0.000335693, 81.75, 25.6)" spreadMethod ="pad" x1="-819.2" y1="0" x2="819.2" y2="0" >
<stop  offset="0" style="stop-color:#361F2F;stop-opacity:1" />
<stop  offset="0.427451" style="stop-color:#4C2E30;stop-opacity:1" />
<stop  offset="0.988235" style="stop-color:#563732;stop-opacity:1" />
</linearGradient>
<path style="fill:url(#LinearGradID_1504) " d="M82.25,23.05L82.25 23L82.25 22.6L82.3 22.8L82.55 25.2L82.55 25.25L82.55 26.35L82.2 27.7L82.25 23.05M80.95,29.25L81 29.25L80.95 29.05L80.8 26.9L80.85 24.05L80.85 23.75L80.95 22.15L81.05 23.8L81.15 22.95L81.25 23.85L81.25 24.55L81.15 25.35L81.1 25.65L81.1 25.85Q81.1 27.25 81.5 27.85Q81.25 26.6 81.45 25.45L82.1 28.2L81.8 25.55L82.2 27.8Q82.1 28.65 82.35 29.3L82.05 28.95Q81.75 29.35 82.05 29.9L81.7 29.35L81.35 31.15L81.15 30.25L81.05 30L81 29.95L80.85 29.4L80.95 29.25M81.4,29.25L81.4 29.3L81.45 29.3L81.4 29.25M81.55,29.15L81.5 29.1L81.45 29.1L81.55 29.15" />
<linearGradient
id="LinearGradID_1505" gradientUnits="userSpaceOnUse" gradientTransform="matrix(0.00062561, 0.00320435, -0.00292969, 0.000839233, 81.7, 25.2)" spreadMethod ="pad" x1="-819.2" y1="0" x2="819.2" y2="0" >
<stop  offset="0" style="stop-color:#3C2833;stop-opacity:1" />
<stop  offset="0.392157" style="stop-color:#644650;stop-opacity:1" />
<stop  offset="0.988235" style="stop-color:#563732;stop-opacity:1" />
<stop  offset="1" style="stop-color:#523331;stop-opacity:1" />
</linearGradient>
<path style="fill:url(#LinearGradID_1505) " d="M82.2,27.7L82.2 27.8L81.8 25.55L82.1 28.2L81.45 25.45Q81.25 26.6 81.5 27.85Q81.1 27.25 81.1 25.85L81.1 25.65L81.15 25.35L81.25 24.55L81.25 23.85L81.2 23.15L81.2 22.4L81.45 24.05L81.5 22.25L81.75 23.15L82 24.95L82.25 23.05L82.2 27.7" />
<linearGradient
id="LinearGradID_1506" gradientUnits="userSpaceOnUse" gradientTransform="matrix(0.00340271, 0.000305176, -0.000137329, 0.00160217, 71.8, 13.1)" spreadMethod ="pad" x1="-819.2" y1="0" x2="819.2" y2="0" >
<stop  offset="0" style="stop-color:#2F2025;stop-opacity:1" />
<stop  offset="0.47451" style="stop-color:#655252;stop-opacity:1" />
<stop  offset="0.913725" style="stop-color:#2D1E21;stop-opacity:1" />
</linearGradient>
<path style="fill:url(#LinearGradID_1506) " d="M72.45,12.1L73.1 12.3Q73.6 12.45 74 12.75L74.25 12.9L73.05 12.75L74 13.2L74.55 13.85L73.4 13.15L74 13.8L74.3 14.55L74 14.1L73.1 13.35L73 13.35L72.9 13.3L73 13.4L73.15 13.5L73.5 14.1L73.2 13.85L72.95 13.75L72.65 13.6L72.6 13.6L72.4 13.55L71.85 13.35L71.7 13.35L71.4 13.25L70.6 13.1L71.3 13.05L71.35 13.05L71.8 13L71.9 13L72.05 12.95L71.9 12.95L71.8 12.9L71.6 12.85L71.3 12.8L70.85 12.75L70.35 12.7L69.8 12.7L69.55 12.7L69.65 12.65L71.25 12.45L71.45 12.4L71.3 12.35L71.2 12.35L70.6 12.35L69.7 12.5L69.6 12.5L69.5 12.5L69.75 12.35L71.15 11.85L71.65 11.75L72.3 11.8L72.4 11.8L72.9 11.9L73.15 11.95L73.65 12.1L72.45 12.1" />
<path style="fill:#2E1F22;fill-opacity:1" d="M73.7,14.55L73.35 14.25L73.25 14.2L73.2 14.1L72.95 13.9L72.65 13.75L72.55 13.7L71.85 13.5L71.6 13.45L70.35 13.4L70.3 13.35L70.25 13.35L69.5 13.1L69 12.8L68.7 12.55Q69.8 11.75 71.1 11.7L71.65 11.7L71.65 11.75L71.15 11.85L69.75 12.35L69.5 12.5L69.6 12.5L69.7 12.5L70.6 12.35L71.2 12.35L71.3 12.35L71.45 12.4L71.25 12.45L69.65 12.65L69.55 12.7L69.8 12.7L70.35 12.7L70.85 12.75L71.3 12.8L71.6 12.85L71.8 12.9L71.9 12.95L72.05 12.95L71.9 13L71.8 13L71.35 13.05L71.3 13.05L70.6 13.1L71.4 13.25L71.7 13.35L71.85 13.35L72.4 13.55L72.6 13.6L72.65 13.6L72.95 13.75L73.2 13.85L73.5 14.1L73.7 14.55" />
<linearGradient
id="LinearGradID_1507" gradientUnits="userSpaceOnUse" gradientTransform="matrix(-0.00326538, 0.00161743, -0.00143433, -0.00305176, 73.45, 14.7)" spreadMethod ="pad" x1="-819.2" y1="0" x2="819.2" y2="0" >
<stop  offset="0" style="stop-color:#1A0E0E;stop-opacity:1" />
<stop  offset="0.913725" style="stop-color:#26171B;stop-opacity:1" />
</linearGradient>
<path style="fill:url(#LinearGradID_1507) " d="M74.1,15.85L73.95 16.8L73.95 17.5Q73.65 17 73.7 16.25L73.25 17.5Q73 17.1 73.2 16.6Q72.6 16.95 72.5 17.85Q72.3 17.4 72.5 16.85L72.15 17.2L72.05 17.55L71.85 18.4L71.8 17.55L71.9 17.2L71.8 17.4L71.95 16.75L72 16.55L72.3 16L72.9 15.05L72.95 15.05L72.9 16.25L73.25 15.3L73.35 14.75L73.4 14.45L73.4 14.35L73.35 14.25L73.7 14.55L73.5 14.1L73.15 13.5L73 13.4L72.9 13.3L73 13.35L73.1 13.35L74 14.1L74.3 14.55L74 13.8L73.4 13.15L74.55 13.85L74 13.2L73.05 12.75L74.25 12.9L74 12.75Q73.6 12.45 73.1 12.3L72.45 12.1L73.65 12.1L74 12.25L74.05 12.3L74.75 12.65L75.7 13.15L75.75 13.15L75.8 13.2Q76.25 13.6 76.3 14.05L76.25 14.1Q75.35 14.6 74.8 15.65Q74.5 16.25 74.35 17.05L74.1 15.85" />
<path style="fill:#190D14;fill-opacity:1" d="M58.7,17.25L58.7 17.7L58.7 17.75L58.55 17.85L58.4 18L58.35 18.05L58.1 18.25L58.2 17.6L58.25 17.25Q58.6 15.7 59.55 14.7Q60.2 14 61.15 13.6Q61.7 13.3 62.45 13.15L64.45 12.75L65.3 11.85Q66.05 11.15 66.85 11.2L66.85 11.25L67.05 11.2L67.65 11.4L68.05 11.8L68.3 12.15L68.7 12.55L69 12.8L69.5 13.1L70.25 13.35L70.3 13.35L70.35 13.4L69.35 13.5L67.65 13.2L67.45 13.1L69.1 13.2L68.05 12.9L68 12.9L67.85 12.85L66.95 12.75L66.6 12.85L66.35 12.95L66.3 13Q65.9 13.15 65.6 13.45Q65.7 13.05 66.15 12.8L66.3 12.75L66.35 12.7L66.6 12.6L66.95 12.5L67.05 12.45L66.9 12.45L66.6 12.45L66.35 12.45L66.3 12.45L65.85 12.55Q65.25 12.65 64.55 13.05L63.45 13.25L63.15 13.35L61.7 13.7L61.3 13.9L61.2 13.85L61.15 13.85L60.35 14.25Q59.85 14.5 59.5 14.95Q58.95 15.6 58.8 16.65L58.7 17.25" />
<linearGradient
id="LinearGradID_1508" gradientUnits="userSpaceOnUse" gradientTransform="matrix(0.00762939, 0.000686646, -0.000213623, 0.00239563, 67.1, 14.45)" spreadMethod ="pad" x1="-819.2" y1="0" x2="819.2" y2="0" >
<stop  offset="0" style="stop-color:#281C19;stop-opacity:1" />
<stop  offset="0.431373" style="stop-color:#261920;stop-opacity:1" />
<stop  offset="0.913725" style="stop-color:#1B0E14;stop-opacity:1" />
</linearGradient>
<path style="fill:url(#LinearGradID_1508) " d="M66.35,13.7L66.35 13.65L66.7 13.45L66.6 13.5L66.35 13.55L66.35 12.95L66.6 12.85L66.95 12.75L67.85 12.85L68 12.9L68.05 12.9L69.1 13.2L67.45 13.1L67.65 13.2L69.35 13.5L70.35 13.4L71.6 13.45L71.85 13.5L72.55 13.7L72.65 13.75L72.95 13.9L73.2 14.1L73.25 14.2L73.35 14.25L73.4 14.35L73.4 14.45L73.3 14.45L72.9 14.45L72.75 14.45L72.45 14.5Q72.2 14.6 71.9 14.75Q70.75 15.25 69.05 16.45L68.95 16.5L68.6 16.55L67.05 16.3L66.6 16.1L66.35 15.95L66.35 15.9L66.35 15.75L66.6 15.75L67.1 15.7L68.05 15.4L67.15 15.35L66.6 15.25L66.35 15.2L66.35 14.55L66.6 14.55L67.1 14.6L69.05 14.6Q70.85 14.45 71.8 13.85L69.45 14.1L70.8 13.6L69.3 13.8L67.5 13.5L67.35 13.45L67.45 13.55L68.6 14.2L67.15 14.1L66.6 14.05L67.15 14.25L68.1 14.35L66.35 14.5L66.35 13.7M66.35,12.45L66.6 12.45L66.9 12.45L67.05 12.45L66.95 12.5L66.6 12.6L66.35 12.7L66.35 12.45M69.5,15.75L71.9 14.55L70.2 15L71.75 14.3L68.3 15.05L69.6 14.95L67.5 15.9L69.5 15.3L67.7 16.15L69.35 15.8L69.5 15.75" />
<linearGradient
id="LinearGradID_1509" gradientUnits="userSpaceOnUse" gradientTransform="matrix(0.00349426, 0.000320435, -7.62939e-05, 0.000808716, 68.85, 14.1)" spreadMethod ="pad" x1="-819.2" y1="0" x2="819.2" y2="0" >
<stop  offset="0" style="stop-color:#332227;stop-opacity:1" />
<stop  offset="0.431373" style="stop-color:#422F38;stop-opacity:1" />
<stop  offset="0.913725" style="stop-color:#332227;stop-opacity:1" />
</linearGradient>
<path style="fill:url(#LinearGradID_1509) " d="M66.35,14.5L68.1 14.35L67.15 14.25L66.6 14.05L67.15 14.1L68.6 14.2L67.45 13.55L67.35 13.45L67.5 13.5L69.3 13.8L70.8 13.6L69.45 14.1L71.8 13.85Q70.85 14.45 69.05 14.6L67.1 14.6L66.6 14.55L66.35 14.55L66.35 14.5" />
<linearGradient
id="LinearGradID_1510" gradientUnits="userSpaceOnUse" gradientTransform="matrix(0.00895691, 0.000686646, -0.000244141, 0.00239563, 67.3, 14.45)" spreadMethod ="pad" x1="-819.2" y1="0" x2="819.2" y2="0" >
<stop  offset="0" style="stop-color:#281C19;stop-opacity:1" />
<stop  offset="0.431373" style="stop-color:#261920;stop-opacity:1" />
<stop  offset="0.913725" style="stop-color:#1B0E14;stop-opacity:1" />
</linearGradient>
<path style="fill:url(#LinearGradID_1510) " d="M66.35,13.7L66.35 14.5L66.1 14.5L66.3 14.55L66.35 14.55L66.35 15.2L66.3 15.2L64.55 14.6L66.35 13.7M66.35,15.75L66.35 15.9L66.3 15.85L66.1 15.7L66.3 15.75L66.35 15.75M61.7,13.7L63.15 13.35L63.45 13.25L64.55 13.05Q65.25 12.65 65.85 12.55L66.3 12.45L66.35 12.45L66.35 12.7L66.3 12.75L66.15 12.8Q65.7 13.05 65.6 13.45Q65.9 13.15 66.3 13L66.35 12.95L66.35 13.55L66.3 13.55Q65.05 13.85 63.7 14.5L65.4 13.4L62.95 14.2L62.45 14.4L61.8 14.7L63.3 13.75L63.05 13.85L62.9 13.9L61.4 14.6Q60.55 15.05 59.75 15.7L61.3 14.1L61.7 13.7" />
<linearGradient
id="LinearGradID_1511" gradientUnits="userSpaceOnUse" gradientTransform="matrix(0.00523376, -0.00137329, 0.000915527, 0.00262451, 64.2, 15.5)" spreadMethod ="pad" x1="-819.2" y1="0" x2="819.2" y2="0" >
<stop  offset="0" style="stop-color:#2E1E21;stop-opacity:1" />
<stop  offset="0.47451" style="stop-color:#48343E;stop-opacity:1" />
<stop  offset="0.913725" style="stop-color:#2C1C21;stop-opacity:1" />
</linearGradient>
<path style="fill:url(#LinearGradID_1511) " d="M66.35,15.75L66.3 15.75L66.1 15.7L66.3 15.85L66.35 15.9L66.35 15.95L66.35 16.4L66.3 16.4L65.25 15.65L65.2 15.65L62.4 16.05L61.75 16.3L61.65 16.35L61.6 16.4L60.75 16.85L60.4 17.1Q60.6 16.85 60.95 16.65L61.25 16.45L61.75 16.2L62.45 15.9L62.9 15.7L64.4 15.15L64.35 15.15L63.8 15.25L63.35 15.35L62.6 15.55L62.05 15.7L61.7 15.85L61.3 16.05L60.7 16.4L59.8 17L60.4 16.35L61 15.85L61.6 15.55L61.5 15.55Q60.95 15.7 60.2 16.15L59.25 16.85L58.85 17.3L58.85 17.25L59.15 16.7L59.3 16.5L59.85 15.9L59.8 15.9L59.35 16.2L59.1 16.35L58.8 16.65Q58.95 15.6 59.5 14.95Q59.85 14.5 60.35 14.25L61.15 13.85L61.2 13.85L61.3 13.9L61.7 13.7L61.3 14.1L59.75 15.7Q60.55 15.05 61.4 14.6L62.9 13.9L63.05 13.85L63.3 13.75L61.8 14.7L62.45 14.4L62.95 14.2L65.4 13.4L63.7 14.5Q65.05 13.85 66.3 13.55L66.35 13.55L66.35 13.65L66.35 13.7L64.55 14.6L66.3 15.2L66.35 15.2L66.35 15.75" />
<linearGradient
id="LinearGradID_1512" gradientUnits="userSpaceOnUse" gradientTransform="matrix(0.00445557, -0.00137329, 0.000778198, 0.00262451, 64.45, 15.5)" spreadMethod ="pad" x1="-819.2" y1="0" x2="819.2" y2="0" >
<stop  offset="0" style="stop-color:#2E1E21;stop-opacity:1" />
<stop  offset="0.47451" style="stop-color:#48343E;stop-opacity:1" />
<stop  offset="0.913725" style="stop-color:#2C1C21;stop-opacity:1" />
</linearGradient>
<path style="fill:url(#LinearGradID_1512) " d="M66.35,15.2L66.6 15.25L67.15 15.35L68.05 15.4L67.1 15.7L66.6 15.75L66.35 15.75L66.35 15.2M68.85,16.55L68.6 16.65L68.5 16.65L67.05 16.7L66.7 16.55L66.6 16.55L66.35 16.45L66.35 16.4L66.35 15.95L66.6 16.1L67.05 16.3L68.6 16.55L68.95 16.5L68.85 16.55M66.35,13.55L66.6 13.5L66.7 13.45L66.35 13.65L66.35 13.55" />
<linearGradient
id="LinearGradID_1513" gradientUnits="userSpaceOnUse" gradientTransform="matrix(0.00410461, 0.000320435, -9.15527e-05, 0.000808716, 69.35, 14.1)" spreadMethod ="pad" x1="-819.2" y1="0" x2="819.2" y2="0" >
<stop  offset="0" style="stop-color:#332227;stop-opacity:1" />
<stop  offset="0.431373" style="stop-color:#422F38;stop-opacity:1" />
<stop  offset="0.913725" style="stop-color:#332227;stop-opacity:1" />
</linearGradient>
<path style="fill:url(#LinearGradID_1513) " d="M66.35,14.5L66.35 14.55L66.3 14.55L66.1 14.5L66.35 14.5" />
<linearGradient
id="LinearGradID_1514" gradientUnits="userSpaceOnUse" gradientTransform="matrix(0.00527954, -0.00387573, 0.00361633, 0.0037384, 60.85, 19.35)" spreadMethod ="pad" x1="-819.2" y1="0" x2="819.2" y2="0" >
<stop  offset="0" style="stop-color:#2F1B1C;stop-opacity:1" />
<stop  offset="0.407843" style="stop-color:#3D2A34;stop-opacity:1" />
<stop  offset="0.956863" style="stop-color:#210C1B;stop-opacity:1" />
</linearGradient>
<path style="fill:url(#LinearGradID_1514) " d="M56,22.95L56.1 22.85L56.2 22.65L55.55 23.55Q55.7 22.55 56.4 21.8L56.7 21.45L55.75 22L56.2 21.5L55.75 21.65L55.15 22L55.1 22L55.2 21.95L55.4 21.7L55.55 21.5L55.75 21.35L55.2 21.6L55.15 21.65L55 21.8L55.2 21.5L55.8 21.1Q56.25 19.1 58.1 17.35L58.25 17.25L58.2 17.6L58.1 18.25L58.35 18.05L58.4 18L58.55 17.85L58.45 18.2L58.1 18.85L57.7 19.5L58.05 19.05L58.6 18.55L59.1 18.1L60.4 17.1L60.75 16.85L61.6 16.4L61.65 16.35L61.75 16.3L62.4 16.05L65.2 15.65L65.25 15.65L66.3 16.4L66.35 16.4L66.35 16.45L66.35 16.65L66.2 16.65Q64.55 16.25 62.3 17.05L64.6 15.9L62.2 16.55L61.85 16.7L61.4 16.85L60.4 17.4L59.8 17.8L59.35 18.15L56.4 21L58.2 19.75L56.95 21.05L59.45 19.05L57.15 21.65L58.1 21L57.5 21.65L58.15 21.4L57.45 22L57 22.3L56.8 22.55L56.95 22.45L55.75 24.05L55.2 24.55L56 22.95" />
<radialGradient
id="RadialGradID_1515" gradientUnits="userSpaceOnUse" gradientTransform="matrix(0.0204773, 0.00157166, -0.00178528, 0.0178375, 66.95, 16.8)" spreadMethod ="pad" cx="0" cy="0" r="819.2" fx="0" fy="0" >
<stop  offset="0"  style="stop-color:#000000;stop-opacity:1" />
<stop  offset="0.972549"  style="stop-color:#33212F;stop-opacity:1" />
</radialGradient>
<path style="fill:url(#RadialGradID_1515) " d="M65.7,17.9L65.95 17.15Q64.65 17.9 63.9 19.5Q63.8 18.75 64.55 17.75Q63.55 18.6 63.4 20.4L63.35 18.2Q62.25 19.6 61.95 21L61.9 21.3L61.65 20.1L61.25 20.95L60.95 22.7L60.65 21.05Q60.1 21.4 59.95 22.05L60.05 21.15Q59.25 22.4 57.7 22.75L58.7 21.8Q57.1 22.6 56.55 23.6L58.45 23.3L56.05 24.45L57.5 24.15Q56.5 24.55 55.95 25.4L55.5 26.2L55.15 25.35L54.5 26.75L54.7 25.85L54.7 25.55L55.1 24.55L55.1 24.6L55.2 24.55L55.75 24.05L56.95 22.45L56.8 22.55L57 22.3L57.45 22L58.15 21.4L57.5 21.65L58.1 21L58.8 20.5L59.75 19.65Q60.4 19.7 60.45 20.6Q60.85 19.75 60.8 18.45L61.4 19.65Q61.25 18.3 61.8 17.45Q61.5 18.75 61.95 19.1Q62.05 18.35 62.65 17.75Q64.05 16.7 66.2 16.7L66.25 16.7L66.2 16.65L66.35 16.65L66.35 17.25L66.35 17.3L65.7 17.9" />
<linearGradient
id="LinearGradID_1516" gradientUnits="userSpaceOnUse" gradientTransform="matrix(0.00448608, -0.00387573, 0.00306702, 0.0037384, 61.6, 19.35)" spreadMethod ="pad" x1="-819.2" y1="0" x2="819.2" y2="0" >
<stop  offset="0" style="stop-color:#2F1B1C;stop-opacity:1" />
<stop  offset="0.407843" style="stop-color:#3D2A34;stop-opacity:1" />
<stop  offset="0.956863" style="stop-color:#210C1B;stop-opacity:1" />
</linearGradient>
<path style="fill:url(#LinearGradID_1516) " d="M66.6,16.55L66.7 16.55L66.35 16.65L66.35 16.45L66.6 16.55" />
<linearGradient
id="LinearGradID_1517" gradientUnits="userSpaceOnUse" gradientTransform="matrix(0.00332642, -0.00238037, 0.00222778, 0.00234985, 61.75, 18.5)" spreadMethod ="pad" x1="-819.2" y1="0" x2="819.2" y2="0" >
<stop  offset="0.0156863" style="stop-color:#442E3A;stop-opacity:1" />
<stop  offset="0.384314" style="stop-color:#402F39;stop-opacity:1" />
<stop  offset="0.972549" style="stop-color:#34242F;stop-opacity:1" />
</linearGradient>
<path style="fill:url(#LinearGradID_1517) " d="M66.2,16.65L66.2 16.7Q64.05 16.7 62.65 17.75Q62.05 18.35 61.95 19.1Q61.5 18.75 61.8 17.45Q61.25 18.3 61.4 19.65L60.8 18.45Q60.85 19.75 60.45 20.6Q60.4 19.7 59.75 19.65L58.8 20.5L59.35 19.8L60.05 19.55L60.15 19.6L60.4 19.8L60.45 19.15Q60.5 18.75 60.7 18.6L59.8 18.75L60.15 18.4L60.6 18.1L59.7 18.45L59.6 18.55L59.75 18.35L60.7 17.65L61.9 16.95L62.05 16.85L62.3 16.7L62.25 16.7L62.1 16.75L61.85 16.8L61.4 16.85L61.85 16.7L62.2 16.55L64.6 15.9L62.3 17.05Q64.55 16.25 66.2 16.65" />
<radialGradient
id="RadialGradID_1518" gradientUnits="userSpaceOnUse" gradientTransform="matrix(0.0174408, 0.00157166, -0.00152588, 0.0178375, 66.8, 16.8)" spreadMethod ="pad" cx="0" cy="0" r="819.2" fx="0" fy="0" >
<stop  offset="0.0156863"  style="stop-color:#1B0919;stop-opacity:1" />
<stop  offset="0.972549"  style="stop-color:#33212F;stop-opacity:1" />
</radialGradient>
<path style="fill:url(#RadialGradID_1518) " d="M66.35,16.65L66.7 16.55L67.05 16.7L68.5 16.65Q68 16.95 67.5 17.2L67.45 17.25L67.55 17.25L67.85 17.15L68.2 17.1L67.55 17.45L67.95 18.7L68.15 19.25L68.3 19.65L68.3 19.7L68.4 21.4Q68.2 19.85 67.75 19.05L67.55 18.55L67.65 19.2L67.8 21.3L67.55 19.45L67.1 18.25L67.2 19.7L67.2 21.4L67.15 21.85L66.85 19.35Q66.9 20.35 66.6 21.05L66.45 21.35L66.35 21.5L66.35 21L66.35 20.8L66.6 19.8L66.35 20.2L66.35 19.1L66.35 18.8L66.4 18.45L66.45 17.1L66.35 17.25L66.35 16.65" />
<linearGradient
id="LinearGradID_1519" gradientUnits="userSpaceOnUse" gradientTransform="matrix(0.00183105, -0.00648499, 0.00564575, 0.00166321, 62.75, 21)" spreadMethod ="pad" x1="-819.2" y1="0" x2="819.2" y2="0" >
<stop  offset="0" style="stop-color:#0A0407;stop-opacity:1" />
<stop  offset="0.564706" style="stop-color:#3C2D39;stop-opacity:1" />
<stop  offset="1" style="stop-color:#0D0509;stop-opacity:1" />
</linearGradient>
<path style="fill:url(#LinearGradID_1519) " d="M66.35,17.3L66.35 17.25L66.45 17.1L66.4 18.45L66.35 18.8L66.35 17.3M66.35,20.3L66.35 20.2L66.6 19.8L66.35 20.8L66.35 20.3M66.35,22.55L66.35 21.55L66.35 21.5L66.45 21.35L66.6 21.05Q66.9 20.35 66.85 19.35L67.15 21.85L67.15 21.95L66.6 22.4L66.4 22.55L66.35 22.55" />
<radialGradient
id="RadialGradID_1520" gradientUnits="userSpaceOnUse" gradientTransform="matrix(0.00782776, 0.000701904, -0.000686646, 0.00801086, 72.75, 14.8)" spreadMethod ="pad" cx="0" cy="0" r="819.2" fx="0" fy="0" >
<stop  offset="0"  style="stop-color:#11050E;stop-opacity:1" />
<stop  offset="0.917647"  style="stop-color:#190E15;stop-opacity:1" />
</radialGradient>
<path style="fill:url(#RadialGradID_1520) " d="M73.35,14.75L73.25 15.3L72.9 16.25L72.95 15.05L72.9 15.05L72.3 16L72 16.55L71.95 16.75L71.8 17.4L71.3 18.7Q71.15 18.2 71.35 17.8Q70.9 18.2 70.55 19.2Q70.65 18.2 71.25 17.25Q70.2 18.6 70.25 19.7Q69.75 18.25 71.9 16.1Q71.05 16.35 70.25 17.2L70.6 16Q69.75 16.7 69.5 17.6L69.5 17.55L69.5 16.5Q68.55 17.45 68.8 19.1L68.3 17.7L67.9 17.3L68.1 18.25L68.3 19.65L68.15 19.25L67.95 18.7L67.55 17.45L68.2 17.1L67.85 17.15L67.55 17.25L67.45 17.25L67.5 17.2Q68 16.95 68.5 16.65L68.6 16.65L68.85 16.55L68.95 16.5L69.05 16.45Q70.75 15.25 71.9 14.75Q72.2 14.6 72.45 14.5L72.75 14.45L72.9 14.45L73.3 14.45L73.4 14.45L73.35 14.75" />
<linearGradient
id="LinearGradID_1521" gradientUnits="userSpaceOnUse" gradientTransform="matrix(0.000518799, 0.00314331, -0.00416565, 0.000747681, 69.2, 19.9)" spreadMethod ="pad" x1="-819.2" y1="0" x2="819.2" y2="0" >
<stop  offset="0" style="stop-color:#0F080A;stop-opacity:1" />
<stop  offset="0.635294" style="stop-color:#4A3B43;stop-opacity:1" />
<stop  offset="1" style="stop-color:#382424;stop-opacity:1" />
</linearGradient>
<path style="fill:url(#LinearGradID_1521) " d="M66.6,22.6L66.4 22.55L66.6 22.4L67.15 21.95L67.15 21.85L67.2 21.4L67.2 19.7L67.1 18.25L67.55 19.45L67.8 21.3L67.65 19.2L67.55 18.55L67.75 19.05Q68.2 19.85 68.4 21.4L68.3 19.7L68.3 19.65L68.1 18.25L67.9 17.3L68.3 17.7L68.8 19.1Q68.55 17.45 69.5 16.5L69.5 17.55L69.45 17.6L69.5 17.6Q69.75 16.7 70.6 16L70.25 17.2Q71.05 16.35 71.9 16.1Q69.75 18.25 70.25 19.7L70.25 19.8L70.45 21.45L70.35 21.55L70.25 21.65L70.2 21.65L69.9 22Q68.75 23.2 66.6 22.6M69.9,21.65L70 21.2L70.25 21.35Q69.85 20.35 69.95 18.95L69.75 20.05L69.75 18.9Q69.55 19.95 69.5 21L69.45 22.25L69.7 21.25L69.9 22L69.9 21.65M68.5,21.5L68.5 21.85L68.1 20.5L68.05 21.45L67.8 22.35L67.7 21.45Q67.65 22.4 67.15 22.6L68.35 22.55Q68.85 22.5 69.15 21.85L69.2 21.55L69.35 18.15L69 20.55L68.7 19.3L68.65 20.2L68.35 18.7Q68.6 20.1 68.5 21.5" />
<linearGradient
id="LinearGradID_1522" gradientUnits="userSpaceOnUse" gradientTransform="matrix(0.00259399, 0.000228882, -0.00012207, 0.00135803, 69.7, 15.2)" spreadMethod ="pad" x1="-819.2" y1="0" x2="819.2" y2="0" >
<stop  offset="0" style="stop-color:#332227;stop-opacity:1" />
<stop  offset="0.431373" style="stop-color:#422F38;stop-opacity:1" />
<stop  offset="0.913725" style="stop-color:#332227;stop-opacity:1" />
</linearGradient>
<path style="fill:url(#LinearGradID_1522) " d="M69.35,15.8L67.7 16.15L69.5 15.3L67.5 15.9L69.6 14.95L68.3 15.05L71.75 14.3L70.2 15L71.9 14.55L69.5 15.75L69.35 15.8" />
<linearGradient
id="LinearGradID_1523" gradientUnits="userSpaceOnUse" gradientTransform="matrix(0.00177002, -0.00262451, 0.00300598, 0.00154114, 60.5, 17.45)" spreadMethod ="pad" x1="-819.2" y1="0" x2="819.2" y2="0" >
<stop  offset="0" style="stop-color:#362828;stop-opacity:1" />
<stop  offset="0.431373" style="stop-color:#614E4F;stop-opacity:1" />
<stop  offset="0.913725" style="stop-color:#2B1B1D;stop-opacity:1" />
</linearGradient>
<path style="fill:url(#LinearGradID_1523) " d="M59.1,18.1L58.6 18.55L58.05 19.05L57.7 19.5L58.1 18.85L58.45 18.2L58.55 17.85L58.7 17.75L58.7 17.7L58.7 17.25L58.8 16.65L59.1 16.35L59.35 16.2L59.8 15.9L59.85 15.9L59.3 16.5L59.15 16.7L58.85 17.25L58.85 17.3L59.25 16.85L60.2 16.15Q60.95 15.7 61.5 15.55L61.6 15.55L61 15.85L60.4 16.35L59.8 17L60.7 16.4L61.3 16.05L61.7 15.85L62.05 15.7L62.6 15.55L63.35 15.35L63.8 15.25L64.35 15.15L64.4 15.15L62.9 15.7L62.45 15.9L61.75 16.2L61.25 16.45L60.95 16.65Q60.6 16.85 60.4 17.1L59.1 18.1" />
<linearGradient
id="LinearGradID_1524" gradientUnits="userSpaceOnUse" gradientTransform="matrix(0.00215149, -0.00198364, 0.00270081, 0.00222778, 60.15, 18.3)" spreadMethod ="pad" x1="-819.2" y1="0" x2="819.2" y2="0" >
<stop  offset="0" style="stop-color:#48343F;stop-opacity:1" />
<stop  offset="0.760784" style="stop-color:#67545A;stop-opacity:1" />
<stop  offset="0.972549" style="stop-color:#3A2A34;stop-opacity:1" />
</linearGradient>
<path style="fill:url(#LinearGradID_1524) " d="M61.4,16.85L61.85 16.8L62.1 16.75L62.25 16.7L62.3 16.7L62.05 16.85L61.9 16.95L60.7 17.65L59.75 18.35L59.6 18.55L59.7 18.45L60.6 18.1L60.15 18.4L59.8 18.75L60.7 18.6Q60.5 18.75 60.45 19.15L60.4 19.8L60.15 19.6L60.05 19.55L59.35 19.8L58.8 20.5L58.1 21L57.15 21.65L59.45 19.05L56.95 21.05L58.2 19.75L56.4 21L59.35 18.15L59.8 17.8L60.4 17.4L61.4 16.85" />
<radialGradient
id="RadialGradID_1525" gradientUnits="userSpaceOnUse" gradientTransform="matrix(0.0204773, 0.00157166, -0.00178528, 0.0178375, 66.95, 16.8)" spreadMethod ="pad" cx="0" cy="0" r="819.2" fx="0" fy="0" >
<stop  offset="0.0156863"  style="stop-color:#1B0919;stop-opacity:1" />
<stop  offset="0.972549"  style="stop-color:#33212F;stop-opacity:1" />
</radialGradient>
<path style="fill:url(#RadialGradID_1525) " d="M66.35,20.3L65.55 21.45L65.6 21.25L66.3 19.35L66.35 19.1L66.35 20.2L66.35 20.3M66.35,21.55L66.3 21.6L66.1 21.75L66.35 21L66.35 21.5L66.35 21.55" />
<linearGradient
id="LinearGradID_1526" gradientUnits="userSpaceOnUse" gradientTransform="matrix(0.00215149, -0.00648499, 0.00662231, 0.00166321, 62.15, 21)" spreadMethod ="pad" x1="-819.2" y1="0" x2="819.2" y2="0" >
<stop  offset="0" style="stop-color:#0A0407;stop-opacity:1" />
<stop  offset="0.564706" style="stop-color:#3C2D39;stop-opacity:1" />
<stop  offset="1" style="stop-color:#0D0509;stop-opacity:1" />
</linearGradient>
<path style="fill:url(#LinearGradID_1526) " d="M57,25.9L55.5 26.2L55.95 25.4Q56.5 24.55 57.5 24.15L56.05 24.45L58.45 23.3L56.55 23.6Q57.1 22.6 58.7 21.8L57.7 22.75Q59.25 22.4 60.05 21.15L59.95 22.05Q60.1 21.4 60.65 21.05L60.95 22.7L61.25 20.95L61.65 20.1L61.9 21.3L61.95 21Q62.25 19.6 63.35 18.2L63.4 20.4Q63.55 18.6 64.55 17.75Q63.8 18.75 63.9 19.5Q64.65 17.9 65.95 17.15L65.7 17.9L66.35 17.3L66.35 18.8L66.35 19.1L66.3 19.35L65.6 21.25L65.55 21.45L66.35 20.3L66.35 20.8L66.35 21L66.1 21.75L66.3 21.6L66.35 21.55L66.35 22.55L66.3 22.55L65.55 22.25L66 22.75L66.1 22.9Q65.05 23.95 61.4 22.9L62.25 23.25L61.9 23.85L61.9 23.2Q61.45 24.05 60.8 24.35L61.3 23.15L61.4 22.35L61.35 22.35L60.8 23.15L60.05 23.85L60.05 23.8L60.15 23.1L59.7 23.7L59.15 24.2L59.6 23.35L59.8 22.8L59.95 22.25Q58.8 24.25 57.9 24.85L57.85 24.9L57.65 24.95L56.15 25.25L58.05 25.5L57.35 25.75L57 25.9M65.3,19.4L64.05 21.85L64.05 21.15Q64.35 19.7 65.3 18.15Q64.2 19.2 63.4 21.1L63.25 21.65L63.2 19.7L62.75 20.7L62.75 19.7L62.25 21L62 22.5L62.45 21.75L62.75 22.9L63.05 21.85L63.1 22.9L63.8 21.45L63.6 23L64.3 22.15L64.4 23.2L64.8 22.4L64.95 23.1L65.55 20.2L64.8 21.6L65.3 19.4M63.4,23.75L62.4 23.65L64 24.2L62.75 24.8L63.35 24.35L62 24.9L62.15 24.7L62.35 24.15L62.35 24.1L62.3 23.8L62.25 23.25L63.4 23.75" />
<linearGradient
id="LinearGradID_1527" gradientUnits="userSpaceOnUse" gradientTransform="matrix(0.00012207, -0.00296021, 0.00360107, 0.000106812, 63.65, 21.25)" spreadMethod ="pad" x1="-819.2" y1="0" x2="819.2" y2="0" >
<stop  offset="0" style="stop-color:#2F222C;stop-opacity:1" />
<stop  offset="0.533333" style="stop-color:#59474D;stop-opacity:1" />
<stop  offset="0.960784" style="stop-color:#362833;stop-opacity:1" />
</linearGradient>
<path style="fill:url(#LinearGradID_1527) " d="M64.8,21.6L65.55 20.2L64.95 23.1L64.8 22.4L64.4 23.2L64.3 22.15L63.6 23L63.8 21.45L63.1 22.9L63.05 21.85L62.75 22.9L62.45 21.75L62 22.5L62.25 21L62.75 19.7L62.75 20.7L63.2 19.7L63.25 21.65L63.4 21.1Q64.2 19.2 65.3 18.15Q64.35 19.7 64.05 21.15L64.05 21.85L65.3 19.4L64.8 21.6" />
<path style="fill:#000000;fill-opacity:1" d="M59.35,25.5L62.35 24.1L58.8 25.2L60.95 23.8L58 24.85L57.9 24.85Q58.8 24.25 59.95 22.25L59.8 22.8L59.6 23.35L59.15 24.2L59.7 23.7L60.15 23.1L60.05 23.8L60.05 23.85L60.8 23.15L61.35 22.35L61.4 22.35L61.3 23.15L60.8 24.35Q61.45 24.05 61.9 23.2L61.9 23.85L62.25 23.25L62.3 23.8L62.35 24.1L62.35 24.15L62.15 24.7L62 24.9L59.35 25.5M62.75,24.8L64 24.2L64.35 24.3L64.55 24.3L65.7 24.15Q65 24.85 64.05 25.2L64.8 24.5Q62.75 25.5 60.85 25.8L61.35 25.55L62.75 24.8" />
<linearGradient
id="LinearGradID_1528" gradientUnits="userSpaceOnUse" gradientTransform="matrix(0.00311279, 0.000244141, -9.15527e-05, 0.000946045, 63.95, 23.5)" spreadMethod ="pad" x1="-819.2" y1="0" x2="819.2" y2="0" >
<stop  offset="0" style="stop-color:#291A1B;stop-opacity:1" />
<stop  offset="0.490196" style="stop-color:#5F4B4A;stop-opacity:1" />
<stop  offset="0.960784" style="stop-color:#2B1B1C;stop-opacity:1" />
</linearGradient>
<path style="fill:url(#LinearGradID_1528) " d="M66.2,22.95L66.3 23.1L66.35 23.15L66.35 23.2L66.35 23.4L66.35 23.45L66.3 23.5L65.75 24.1L65.7 24.15L64.55 24.3L64.35 24.3L64 24.2L62.4 23.65L63.4 23.75L62.25 23.25L61.4 22.9Q65.05 23.95 66.1 22.9L66.2 22.95" />
<linearGradient
id="LinearGradID_1529" gradientUnits="userSpaceOnUse" gradientTransform="matrix(0.00680542, -0.00312805, 0.00238037, 0.00393677, 62.3, 26.6)" spreadMethod ="pad" x1="-819.2" y1="0" x2="819.2" y2="0" >
<stop  offset="0" style="stop-color:#000000;stop-opacity:1" />
<stop  offset="0.501961" style="stop-color:#140B0C;stop-opacity:1" />
<stop  offset="0.988235" style="stop-color:#1C0B11;stop-opacity:1" />
<stop  offset="1" style="stop-color:#0F0608;stop-opacity:1" />
</linearGradient>
<path style="fill:url(#LinearGradID_1529) " d="M61.35,25.55L60.85 25.8Q62.75 25.5 64.8 24.5L64.05 25.2Q65 24.85 65.7 24.15L65.75 24.1L66.3 23.5L66.35 23.45L66.35 25.9L66.3 25.9L64.25 25.9L63.9 25.9L63.9 25.95L64.75 26.45L64.25 26.45L63.65 26.45L63.15 26.35Q63.2 26.1 63.4 25.95L62.4 26.3L62.95 25.85Q60.1 26.35 59.95 27.7Q59.65 26.9 60.2 26Q59.5 26.25 59 27.4Q58.8 26.65 59.7 25.8L58.55 26.55L59 25.8Q57.65 26.25 57.55 27.35L57.5 27.4L57.55 27.45L57.3 28.25L56.95 28.8L56.95 28.9L56.6 29.3L56.6 29.25L56.55 29.15L56.45 29.45L56.4 29.55L56.4 29.65L56.35 29.7L56.25 29.8L56.3 29.7L56.55 29L56.4 29Q57.7 27.4 57.35 25.75L58.05 25.5L56.15 25.25L57.65 24.95L57.85 24.9L57.9 24.85L58 24.85L60.95 23.8L58.8 25.2L62.35 24.1L59.35 25.5L62 24.9L63.35 24.35L62.75 24.8L61.35 25.55" />
<linearGradient
id="LinearGradID_1530" gradientUnits="userSpaceOnUse" gradientTransform="matrix(7.62939e-05, 0.00201416, -0.000473022, 1.52588e-05, 69.75, 20.55)" spreadMethod ="pad" x1="-819.2" y1="0" x2="819.2" y2="0" >
<stop  offset="0" style="stop-color:#241A1F;stop-opacity:1" />
<stop  offset="0.494118" style="stop-color:#6E5B5D;stop-opacity:1" />
<stop  offset="1" style="stop-color:#382626;stop-opacity:1" />
</linearGradient>
<path style="fill:url(#LinearGradID_1530) " d="M69.9,22L69.7 21.25L69.45 22.25L69.5 21Q69.55 19.95 69.75 18.9L69.75 20.05L69.95 18.95Q69.85 20.35 70.25 21.35L70 21.2L69.9 21.65L69.9 22" />
<linearGradient
id="LinearGradID_1531" gradientUnits="userSpaceOnUse" gradientTransform="matrix(0.00137329, 0.00152588, -0.00280762, 0.00265503, 73.4, 18.1)" spreadMethod ="pad" x1="-819.2" y1="0" x2="819.2" y2="0" >
<stop  offset="0" style="stop-color:#312224;stop-opacity:1" />
<stop  offset="0.407843" style="stop-color:#413033;stop-opacity:1" />
<stop  offset="0.933333" style="stop-color:#231419;stop-opacity:1" />
</linearGradient>
<path style="fill:url(#LinearGradID_1531) " d="M74.35,17.1L74.8 16.3L74.5 17.25L75.7 15.45Q75.2 16.25 75.1 17.05L76.85 16.65Q75.65 16.95 74.8 17.55Q76.5 17.3 77.5 17.55L75.85 17.65L77.9 18.2L76.2 18L77.6 18.65L73.95 18.25L73.45 18.45L74.3 18.45L73.95 18.5Q73.35 18.65 73.1 19.1Q71.65 19.75 70.45 21.45L70.25 19.8L70.25 19.7Q70.2 18.6 71.25 17.25Q70.65 18.2 70.55 19.2Q70.9 18.2 71.35 17.8Q71.15 18.2 71.3 18.7L71.8 17.4L71.8 17.55L71.85 18.4L72.05 17.55L72.15 17.2L72.5 16.85Q72.3 17.4 72.5 17.85Q72.6 16.95 73.2 16.6Q73 17.1 73.25 17.5L73.7 16.25Q73.65 17 73.95 17.5L73.95 16.8L74.1 15.85L74.35 17.05L74.25 17.25L74.35 17.1M72.2,17.65Q71.95 18 71.85 18.6L71.6 18.15Q71.4 18.6 71.35 19L71.05 18.45Q70.65 19.15 70.8 19.5L71 19.05L71.3 19.35L71.2 19.1L71.85 19L71.75 18.85L72.7 18.5L72.45 18.4L73.3 18.25L73.1 18.15L73.8 17.85L73.55 17.25L73.15 17.8L73.1 17.45L72.95 17.9L72.9 17.4L72.6 18.15Q72.3 18.1 72.2 17.65M72.75,18.7L71.45 19.4L71 19.9L70.8 20.75L71.25 20.15Q71.8 19.25 72.75 18.7" />
<linearGradient
id="LinearGradID_1532" gradientUnits="userSpaceOnUse" gradientTransform="matrix(0.00636292, -0.00267029, 0.00134277, 0.00331116, 71.35, 21.55)" spreadMethod ="pad" x1="-819.2" y1="0" x2="819.2" y2="0" >
<stop  offset="0" style="stop-color:#26151A;stop-opacity:1" />
<stop  offset="0.47451" style="stop-color:#53383C;stop-opacity:1" />
<stop  offset="0.941176" style="stop-color:#1F1216;stop-opacity:1" />
</linearGradient>
<path style="fill:url(#LinearGradID_1532) " d="M66.35,23.2L66.35 23.15L66.35 22.55L66.4 22.55L66.6 22.6Q68.75 23.2 69.9 22L70.2 21.65L70.25 21.65L70.35 21.55L70.45 21.45Q71.65 19.75 73.1 19.1L73.8 18.9L74.6 18.9Q73.75 19.3 73.25 20Q75.1 18.95 77.1 19.4L75.75 19.65L77.2 19.75L75.4 20.1L77 20.3Q74.55 20.35 73.2 21.05L74.9 20.9L73.25 21.7L74.3 21.5L73.5 22L71 23.55L69.75 24.1L69.7 24.2L68.45 24.25Q67.55 24.15 66.8 23.65L66.6 23.4L66.45 23.25L66.35 23.2M69.8,23.25L67.15 23.35Q67.75 23.85 68.75 24Q69.9 23.9 70.9 23.15L71.05 23.05L71.05 23Q72.4 21.8 73.75 21.2L72 21.7Q73.5 20.55 74.65 20.3L73.5 20.5L74.55 19.95Q72.95 20.35 71.65 21.4Q72.2 20.2 73.45 19.3Q71.7 19.95 70.45 21.65L70.45 21.7Q69.4 23.15 67.5 23.1L69.3 23.2L70.8 22L69.8 23.25" />
<linearGradient
id="LinearGradID_1533" gradientUnits="userSpaceOnUse" gradientTransform="matrix(7.62939e-05, 0.00228882, -0.00276184, 9.15527e-05, 68.25, 20.95)" spreadMethod ="pad" x1="-819.2" y1="0" x2="819.2" y2="0" >
<stop  offset="0" style="stop-color:#241A1F;stop-opacity:1" />
<stop  offset="0.494118" style="stop-color:#6E5B5D;stop-opacity:1" />
<stop  offset="1" style="stop-color:#382626;stop-opacity:1" />
</linearGradient>
<path style="fill:url(#LinearGradID_1533) " d="M68.35,18.7L68.65 20.2L68.7 19.3L69 20.55L69.35 18.15L69.2 21.55L69.15 21.85Q68.85 22.5 68.35 22.55L67.15 22.6Q67.65 22.4 67.7 21.45L67.8 22.35L68.05 21.45L68.1 20.5L68.5 21.85L68.5 21.5Q68.6 20.1 68.35 18.7" />
<linearGradient
id="LinearGradID_1534" gradientUnits="userSpaceOnUse" gradientTransform="matrix(0.00749207, -0.00267029, 0.00158691, 0.00331116, 72.25, 21.55)" spreadMethod ="pad" x1="-819.2" y1="0" x2="819.2" y2="0" >
<stop  offset="0" style="stop-color:#26151A;stop-opacity:1" />
<stop  offset="0.47451" style="stop-color:#53383C;stop-opacity:1" />
<stop  offset="0.941176" style="stop-color:#1F1216;stop-opacity:1" />
</linearGradient>
<path style="fill:url(#LinearGradID_1534) " d="M66.35,23.15L66.3 23.1L66.2 22.95L66.1 22.9L66 22.75L65.55 22.25L66.3 22.55L66.35 22.55L66.35 23.15" />
<linearGradient
id="LinearGradID_1535" gradientUnits="userSpaceOnUse" gradientTransform="matrix(0.00578308, -0.00312805, 0.00202942, 0.00393677, 62.85, 26.6)" spreadMethod ="pad" x1="-819.2" y1="0" x2="819.2" y2="0" >
<stop  offset="0" style="stop-color:#000000;stop-opacity:1" />
<stop  offset="0.501961" style="stop-color:#140B0C;stop-opacity:1" />
<stop  offset="0.988235" style="stop-color:#1C0B11;stop-opacity:1" />
<stop  offset="1" style="stop-color:#0F0608;stop-opacity:1" />
</linearGradient>
<path style="fill:url(#LinearGradID_1535) " d="M67.9,25.1L67.85 25.15L67 25.7L66.6 25.85L66.35 25.9L66.35 23.45L66.35 23.4L66.45 23.25L66.6 23.4L66.8 23.65Q67.55 24.15 68.45 24.25L67.9 25.1" />
<linearGradient
id="LinearGradID_1536" gradientUnits="userSpaceOnUse" gradientTransform="matrix(0.00265503, 0.000244141, -7.62939e-05, 0.000946045, 64.25, 23.5)" spreadMethod ="pad" x1="-819.2" y1="0" x2="819.2" y2="0" >
<stop  offset="0" style="stop-color:#291A1B;stop-opacity:1" />
<stop  offset="0.490196" style="stop-color:#5F4B4A;stop-opacity:1" />
<stop  offset="0.960784" style="stop-color:#2B1B1C;stop-opacity:1" />
</linearGradient>
<path style="fill:url(#LinearGradID_1536) " d="M66.45,23.25L66.35 23.4L66.35 23.2L66.45 23.25" />
<linearGradient
id="LinearGradID_1537" gradientUnits="userSpaceOnUse" gradientTransform="matrix(0.000442505, 0.00125122, -0.00294495, 0.00112915, 71.1, 24.05)" spreadMethod ="pad" x1="-819.2" y1="0" x2="819.2" y2="0" >
<stop  offset="0" style="stop-color:#030101;stop-opacity:1" />
<stop  offset="0.929412" style="stop-color:#5D3A39;stop-opacity:1" />
</linearGradient>
<path style="fill:url(#LinearGradID_1537) " d="M68.45,24.25L69.7 24.2L69.75 24.1L71 23.55L73.5 22L74.3 21.5L74.95 21.3Q74.05 21.95 73.95 22.65L73.6 22.85L73.6 22.8L73.6 22.7L73.55 22.8L73.35 23.25L73.35 23.35Q72.55 25 71.35 25.95Q72.8 24.05 73.55 22.35L72.6 23.5L73.1 22.55L71.35 24.8L72.15 23.1L71.25 24.25L70.9 24.55L69.4 25.75L70.95 24L71.1 23.75L68.85 25.4L69.4 24.6L67.6 25.95L68.75 24.55L67.9 25.1L68.45 24.25" />
<linearGradient
id="LinearGradID_1538" gradientUnits="userSpaceOnUse" gradientTransform="matrix(0.00349426, -0.00279236, 0.00189209, 0.00245667, 70.9, 21.65)" spreadMethod ="pad" x1="-819.2" y1="0" x2="819.2" y2="0" >
<stop  offset="0" style="stop-color:#402C2E;stop-opacity:1" />
<stop  offset="0.47451" style="stop-color:#705958;stop-opacity:1" />
<stop  offset="0.92549" style="stop-color:#40272A;stop-opacity:1" />
</linearGradient>
<path style="fill:url(#LinearGradID_1538) " d="M70.8,22L69.3 23.2L67.5 23.1Q69.4 23.15 70.45 21.7L70.45 21.65Q71.7 19.95 73.45 19.3Q72.2 20.2 71.65 21.4Q72.95 20.35 74.55 19.95L73.5 20.5L74.65 20.3Q73.5 20.55 72 21.7L73.75 21.2Q72.4 21.8 71.05 23L71.05 23.05L70.9 23.15Q69.9 23.9 68.75 24Q67.75 23.85 67.15 23.35L69.8 23.25L70.8 22" />
<linearGradient
id="LinearGradID_1539" gradientUnits="userSpaceOnUse" gradientTransform="matrix(0.00158691, 0.000137329, -0.00012207, 0.00140381, 78.7, 14.5)" spreadMethod ="pad" x1="-819.2" y1="0" x2="819.2" y2="0" >
<stop  offset="0" style="stop-color:#4C3A2E;stop-opacity:1" />
<stop  offset="0.0235294" style="stop-color:#402B30;stop-opacity:1" />
<stop  offset="0.407843" style="stop-color:#715B5D;stop-opacity:1" />
<stop  offset="0.956863" style="stop-color:#6B5A52;stop-opacity:1" />
</linearGradient>
<path style="fill:url(#LinearGradID_1539) " d="M77.55,13.8L77.5 13.65L79.5 13.6Q80.6 14.35 79.5 15.7L79.35 15.75L79.2 15.35Q80.1 14.5 79.3 13.9Q78.6 13.55 78.1 14.05L77.55 13.8" />
<path style="fill:#362A24;fill-opacity:1" d="M75.7,13.15L74.75 12.65Q76.1 12.25 77.35 13.2L77.5 13.65L77.55 13.8L77.5 13.8L77.4 13.75L77 13.8Q76.75 13 75.75 13.15L75.7 13.15" />
<linearGradient
id="LinearGradID_1540" gradientUnits="userSpaceOnUse" gradientTransform="matrix(0.00302124, 0.000274658, -0.000198364, 0.00230408, 76.95, 15.6)" spreadMethod ="pad" x1="-819.2" y1="0" x2="819.2" y2="0" >
<stop  offset="0" style="stop-color:#3A2534;stop-opacity:1" />
<stop  offset="0.643137" style="stop-color:#38202D;stop-opacity:1" />
<stop  offset="0.956863" style="stop-color:#211009;stop-opacity:1" />
</linearGradient>
<path style="fill:url(#LinearGradID_1540) " d="M79.2,15.35L79.35 15.75L79.45 15.9L78.35 14.7L78.85 15.9L78.15 14.9L78.45 15.9L78 15.2Q77.75 15.15 77.65 15.45Q76.5 14.4 75.1 17.05Q75.2 16.25 75.7 15.45L74.5 17.25L74.8 16.3L74.35 17.1L74.35 17.05Q74.5 16.25 74.8 15.65L74.85 16.15L75.4 15.25L75.15 15.8L75.8 15.15L76.55 14.65L76.6 14.65Q77.35 14.6 78.05 15.05L77 14.15L77.95 14.35Q77.3 13.85 76.35 14.05L77 13.8L77.4 13.75L77.5 13.8L77.55 13.8L78.1 14.05L79.2 15.35" />
<linearGradient
id="LinearGradID_1541" gradientUnits="userSpaceOnUse" gradientTransform="matrix(0.00126648, -0.00143433, 0.00102234, 0.000946045, 76.45, 15.1)" spreadMethod ="pad" x1="-819.2" y1="0" x2="819.2" y2="0" >
<stop  offset="0" style="stop-color:#473243;stop-opacity:1" />
<stop  offset="0.407843" style="stop-color:#6E5663;stop-opacity:1" />
<stop  offset="0.956863" style="stop-color:#452725;stop-opacity:1" />
</linearGradient>
<path style="fill:url(#LinearGradID_1541) " d="M76.25,14.1L76.3 14.05L76.35 14.05Q77.3 13.85 77.95 14.35L77 14.15L78.05 15.05Q77.35 14.6 76.6 14.65L76.55 14.65L75.8 15.15L75.15 15.8L75.4 15.25L74.85 16.15L74.8 15.65Q75.35 14.6 76.25 14.1" />
<radialGradient
id="RadialGradID_1542" gradientUnits="userSpaceOnUse" gradientTransform="matrix(0.00987244, 0.00088501, -0.000869751, 0.0101013, 77.35, 15.7)" spreadMethod ="pad" cx="0" cy="0" r="819.2" fx="0" fy="0" >
<stop  offset="0"  style="stop-color:#0D0309;stop-opacity:1" />
<stop  offset="0.988235"  style="stop-color:#281825;stop-opacity:1" />
</radialGradient>
<path style="fill:url(#RadialGradID_1542) " d="M80.35,18.6L80.35 19.4L80.15 19.25L80.35 19.5L80.35 20.7L80.05 19.95L79.7 19.35L79.95 20.15L80.2 21.55L80.25 22.55L79.3 20.3L79.75 22.35L78.85 20.5L79.5 22.7L78.3 20.45L79.45 23.25L78.4 21.6L78.4 21.75L78.5 23.55L77.85 22.1L78.15 23.95L77.55 22.6L77.75 23.75Q77.2 22.65 76.65 22.2L77.4 23.95Q76.95 23.05 76.1 22.6L76.2 22.55L76 22.55L75.35 22.75L75 22.95L75.1 22.7L75.25 22.35Q74.7 22.5 74.4 22.7L74.65 22.4L73.95 22.65Q74.05 21.95 74.95 21.3L74.3 21.5L73.25 21.7L74.9 20.9L73.2 21.05Q74.55 20.35 77 20.3L75.4 20.1L77.2 19.75L75.75 19.65L77.1 19.4Q75.1 18.95 73.25 20Q73.75 19.3 74.6 18.9L73.8 18.9L73.1 19.1Q73.35 18.65 73.95 18.5L74.3 18.45L73.45 18.45L73.95 18.25L77.6 18.65L76.2 18L77.9 18.2L75.85 17.65L77.5 17.55Q76.5 17.3 74.8 17.55Q75.65 16.95 76.85 16.65L75.1 17.05Q76.5 14.4 77.65 15.45Q77.75 15.15 78 15.2L78.45 15.9L78.15 14.9L78.85 15.9L78.35 14.7L79.45 15.9Q78.5 16.75 78.8 17.35L80.05 18.45L79.9 18.1L80.35 18.6M78.05,16.8L77.3 17.15Q78.05 17.4 78.3 18.25L77.9 17.9Q78.15 18.45 77.9 18.85L74.75 18.45L75.95 18.6Q75 18.8 74.3 19.35L77.8 19.05Q77.8 19.55 77.15 20.15L77.55 20.05Q77.05 20.8 75.35 21.1L76.65 21.05Q75.1 21.55 74.6 22.2Q75.6 21.6 76.6 22.55L76.25 21.6L77.2 22.3L76.85 21.45L77.55 22.05L77.4 21L78.15 21.9L78 20.55L78.5 21.25L77.9 19.7L78.75 20.8L78.3 19.35Q78.9 19.6 79.5 20.15L78.5 19.05L79.3 19.35L78.55 18.5L79.6 18.95L78.65 18.1Q78.45 17.35 78.6 16.6L78.15 17.05Q78.3 16.55 78.75 16.15Q77.85 16.15 77.45 16.85L78.05 16.8" />
<path style="fill:#030102;fill-opacity:1" d="M77.45,16.85Q77.85 16.15 78.75 16.15Q78.3 16.55 78.15 17.05L78.6 16.6Q78.45 17.35 78.65 18.1L79.6 18.95L78.55 18.5L79.3 19.35L78.5 19.05L79.5 20.15Q78.9 19.6 78.3 19.35L78.75 20.8L77.9 19.7L78.5 21.25L78 20.55L78.15 21.9L77.4 21L77.55 22.05L76.85 21.45L77.2 22.3L76.25 21.6L76.6 22.55Q75.6 21.6 74.6 22.2Q75.1 21.55 76.65 21.05L75.35 21.1Q77.05 20.8 77.55 20.05L77.15 20.15Q77.8 19.55 77.8 19.05L74.3 19.35Q75 18.8 75.95 18.6L74.75 18.45L77.9 18.85Q78.15 18.45 77.9 17.9L78.3 18.25Q78.05 17.4 77.3 17.15L78.05 16.8L77.45 16.85" />
<linearGradient
id="LinearGradID_1543" gradientUnits="userSpaceOnUse" gradientTransform="matrix(0.0018158, 0.000167847, -0.000152588, 0.0017395, 80.3, 17.05)" spreadMethod ="pad" x1="-819.2" y1="0" x2="819.2" y2="0" >
<stop  offset="0" style="stop-color:#21130B;stop-opacity:1" />
<stop  offset="0.407843" style="stop-color:#715B5D;stop-opacity:1" />
<stop  offset="1" style="stop-color:#544138;stop-opacity:1" />
</linearGradient>
<path style="fill:url(#LinearGradID_1543) " d="M80.35,17.95L79.45 17.3L79.9 18.1L80.05 18.45L78.8 17.35Q78.5 16.75 79.45 15.9L79.35 15.75L79.5 15.7Q79.95 15.5 80.35 15.7L80.35 16.6L79.75 16.55L80.35 17.05L80.35 17.35L79.9 17.1L80.35 17.75L80.35 17.95" />
<linearGradient
id="LinearGradID_1544" gradientUnits="userSpaceOnUse" gradientTransform="matrix(0.00158691, 0.000137329, -0.00012207, 0.00140381, 80.65, 18.3)" spreadMethod ="pad" x1="-819.2" y1="0" x2="819.2" y2="0" >
<stop  offset="0" style="stop-color:#42292D;stop-opacity:1" />
<stop  offset="0.509804" style="stop-color:#2B161B;stop-opacity:1" />
<stop  offset="0.988235" style="stop-color:#583E3F;stop-opacity:1" />
</linearGradient>
<path style="fill:url(#LinearGradID_1544) " d="M79.9,17.1L80.35 17.35L80.35 17.75L79.9 17.1M79.9,18.1L79.45 17.3L80.35 17.95L80.35 18.6L79.9 18.1" />
<linearGradient
id="LinearGradID_1545" gradientUnits="userSpaceOnUse" gradientTransform="matrix(0.000167847, 0.000366211, -0.00132751, 0.000656128, 72.25, 18.4)" spreadMethod ="pad" x1="-819.2" y1="0" x2="819.2" y2="0" >
<stop  offset="0" style="stop-color:#3F3032;stop-opacity:1" />
<stop  offset="0.407843" style="stop-color:#574344;stop-opacity:1" />
<stop  offset="0.933333" style="stop-color:#3F3032;stop-opacity:1" />
</linearGradient>
<path style="fill:url(#LinearGradID_1545) " d="M72.6,18.15L72.9 17.4L72.95 17.9L73.1 17.45L73.15 17.8L73.55 17.25L73.8 17.85L73.1 18.15L73.3 18.25L72.45 18.4L72.7 18.5L71.75 18.85L71.85 19L71.2 19.1L71.3 19.35L71 19.05L70.8 19.5Q70.65 19.15 71.05 18.45L71.35 19Q71.4 18.6 71.6 18.15L71.85 18.6Q71.95 18 72.2 17.65Q72.3 18.1 72.6 18.15" />
<path style="fill:#1F0C12;fill-opacity:1" d="M71.25,20.15L70.8 20.75L71 19.9L71.45 19.4L72.75 18.7Q71.8 19.25 71.25 20.15" />
<linearGradient
id="LinearGradID_1546" gradientUnits="userSpaceOnUse" gradientTransform="matrix(0.00108337, -0.00256348, 0.00286865, 0.00128174, 68.5, 25.2)" spreadMethod ="pad" x1="-819.2" y1="0" x2="819.2" y2="0" >
<stop  offset="0" style="stop-color:#2B1717;stop-opacity:1" />
<stop  offset="0.478431" style="stop-color:#674850;stop-opacity:1" />
<stop  offset="0.929412" style="stop-color:#382322;stop-opacity:1" />
</linearGradient>
<path style="fill:url(#LinearGradID_1546) " d="M66.35,26.95L66.35 25.9L66.6 25.85L67 25.7L67.85 25.15L67.9 25.1L68.75 24.55L67.6 25.95L69.4 24.6L68.85 25.4L71.1 23.75L70.95 24L69.4 25.75L70.9 24.55L71.25 24.25L72.15 23.1L71.35 24.8L73.1 22.55L72.6 23.5L73.55 22.35Q72.8 24.05 71.35 25.95L71.3 26L70.95 26.2L70.75 26.35L70.45 26.5L70.75 26.2Q71.65 25.35 72.15 24.5L69.8 26.25L71.3 24.5L70.9 24.85Q69.7 25.9 68.6 26.25L70.15 24.8L68.4 26L68.65 25.45L67.45 26.45L68.35 26.2L67.65 26.7L69.4 26.4L68.75 26.75L68.4 26.8L67.55 26.8L67.25 26.9L66.6 26.95L66.35 26.95" />
<radialGradient
id="RadialGradID_1547" gradientUnits="userSpaceOnUse" gradientTransform="matrix(0.0102234, 0.000915527, -0.000900269, 0.0104523, 76.15, 23.1)" spreadMethod ="pad" cx="0" cy="0" r="819.2" fx="0" fy="0" >
<stop  offset="0"  style="stop-color:#C7733F;stop-opacity:1" />
<stop  offset="1"  style="stop-color:#FCDBBF;stop-opacity:0" />
</radialGradient>
<path style="fill:url(#RadialGradID_1547) " d="M70.75,26.55L70.95 26.2L71.3 26L71.35 25.95Q72.55 25 73.35 23.35L73.35 23.25L73.55 22.8L73.6 22.8L73.6 22.85L73.95 22.65L74.65 22.4L74.4 22.7Q74.7 22.5 75.25 22.35L75.1 22.7L75 22.95L75.35 22.75L76 22.55L76.2 22.55L76.1 22.6L75.6 23.1L76.3 22.85L76.5 22.95L76.45 23L76.3 23L76.2 23.15L76.4 23.25L76.5 23.3Q76.9 23.85 76.9 24.45L76.4 24.05L76.65 24.7L76.95 25.05L77.25 25.35L76.55 25L77.1 25.95L77.3 26.2L76.9 26L77.4 27.1L77.35 27.1L76.3 25.7L76.7 25.9L76.55 25.7L76.1 24.95L76.3 25L76.3 24.9L76.3 24.85L76.15 24.6L75.9 24.35L76 24.35L76.3 24.45L75.8 23.75L75.85 23.7L76 23.7L75.95 23.75L76.05 23.8L76.1 23.8L76.4 23.85L76.5 23.85L76.5 23.75L76.3 23.6L76.05 23.4L75.85 23.5L75.6 23.45L75.9 23.15L75.85 23.1L75 23.55L75.55 22.9Q75.4 22.9 75.1 23.05L74.55 23.4L75 22.75L74.4 23L74.4 22.85L74.1 23.05Q73.9 23.2 73.85 23.25L73.8 23.25L73.8 23.2L74.1 22.75Q73.95 22.9 73.75 23L73.65 23.1Q73.25 24.65 69.7 27.95L70.75 26.55" />
<linearGradient
id="LinearGradID_1548" gradientUnits="userSpaceOnUse" gradientTransform="matrix(0.000961304, 0.000411987, -0.000457764, 0.00112915, 80.95, 20.1)" spreadMethod ="pad" x1="-819.2" y1="0" x2="819.2" y2="0" >
<stop  offset="0" style="stop-color:#24111F;stop-opacity:1" />
<stop  offset="0.494118" style="stop-color:#8C797F;stop-opacity:1" />
<stop  offset="0.988235" style="stop-color:#4B392E;stop-opacity:1" />
</linearGradient>
<path style="fill:url(#LinearGradID_1548) " d="M80.35,19.4L80.35 19.5L80.15 19.25L80.35 19.4" />
<linearGradient
id="LinearGradID_1549" gradientUnits="userSpaceOnUse" gradientTransform="matrix(0.00149536, 0.00291443, -0.00346375, 0.00259399, 80, 24.35)" spreadMethod ="pad" x1="-819.2" y1="0" x2="819.2" y2="0" >
<stop  offset="0" style="stop-color:#392733;stop-opacity:1" />
<stop  offset="0.427451" style="stop-color:#795B63;stop-opacity:1" />
<stop  offset="0.988235" style="stop-color:#3A2834;stop-opacity:1" />
</linearGradient>
<path style="fill:url(#LinearGradID_1549) " d="M80.45,26.7L80.35 26.3L80.35 24.45L80.35 20.7L80.45 21.1L80.5 21.25L80.85 23.75L80.85 24.05L80.8 26.9L80.75 27.5Q80.65 25.6 80.35 24.45L80.45 26.7" />
<linearGradient
id="LinearGradID_1550" gradientUnits="userSpaceOnUse" gradientTransform="matrix(0.00175476, 0.00291443, -0.0040741, 0.00259399, 79.95, 24.35)" spreadMethod ="pad" x1="-819.2" y1="0" x2="819.2" y2="0" >
<stop  offset="0" style="stop-color:#392733;stop-opacity:1" />
<stop  offset="0.427451" style="stop-color:#795B63;stop-opacity:1" />
<stop  offset="0.988235" style="stop-color:#3A2834;stop-opacity:1" />
</linearGradient>
<path style="fill:url(#LinearGradID_1550) " d="M79.45,23.25L78.3 20.45L79.5 22.7L78.85 20.5L79.75 22.35L79.3 20.3L80.25 22.55L80.2 21.55L79.95 20.15L79.7 19.35L80.05 19.95L80.35 20.7L80.35 24.45L80.35 26.3L80.1 25.2L79.45 23.25" />
<linearGradient
id="LinearGradID_1551" gradientUnits="userSpaceOnUse" gradientTransform="matrix(0.00177002, 0.00260925, -0.0032196, 0.00227356, 78.1, 25.25)" spreadMethod ="pad" x1="-819.2" y1="0" x2="819.2" y2="0" >
<stop  offset="0" style="stop-color:#3B2730;stop-opacity:1" />
<stop  offset="0.447059" style="stop-color:#806365;stop-opacity:1" />
<stop  offset="0.988235" style="stop-color:#38212D;stop-opacity:1" />
</linearGradient>
<path style="fill:url(#LinearGradID_1551) " d="M80.3,27.95Q79.85 26.2 78.95 24.75L79.65 26.85L78.4 24.95L79.35 27.95L77.85 25.3L78.5 27.05L77.6 25.8L78.8 28.3L78.35 27.5L77.15 25.6L77.2 25.6L77.5 25.75L77.6 25.75L76.9 24.75L77.3 25.05L77 24.35L77.1 24.35L77.15 24.45L77.3 24.45L76.45 23L76.5 22.95L76.3 22.85L75.6 23.1L76.1 22.6Q76.95 23.05 77.4 23.95L76.65 22.2Q77.2 22.65 77.75 23.75L77.55 22.6L78.15 23.95L77.85 22.1L78.5 23.55L78.4 21.75Q79.7 24.15 80.3 27.95" />
<linearGradient
id="LinearGradID_1552" gradientUnits="userSpaceOnUse" gradientTransform="matrix(0.00268555, 0.00300598, -0.00325012, 0.00305176, 77.8, 26.85)" spreadMethod ="pad" x1="-819.2" y1="0" x2="819.2" y2="0" >
<stop  offset="0" style="stop-color:#7C4C48;stop-opacity:1" />
<stop  offset="0.988235" style="stop-color:#4E2B27;stop-opacity:1" />
</linearGradient>
<path style="fill:url(#LinearGradID_1552) " d="M78.6,31.7Q78.25 29.3 77.4 27.15L77.35 27.1L77.4 27.1L76.9 26L77.3 26.2L77.1 25.95L76.55 25L77.25 25.35L76.95 25.05L76.65 24.7L76.4 24.05L76.9 24.45Q76.9 23.85 76.5 23.3L76.4 23.25L76.2 23.15L76.3 23L76.45 23L77.3 24.45L77.15 24.45L77.1 24.35L77 24.35L77.3 25.05L76.9 24.75L77.6 25.75L77.5 25.75L77.2 25.6L77.15 25.6L78.35 27.5L78.8 28.3L78.8 28.35L79.05 29.2L79.1 29.4Q79.1 29.95 78.5 30.4L78.6 31.7M76.3,24.9L76.2 24.75L76.3 24.85L76.3 24.9" />
<linearGradient
id="LinearGradID_1553" gradientUnits="userSpaceOnUse" gradientTransform="matrix(0.00259399, 0.00224304, -0.00474548, 0.00575256, 79.55, 29)" spreadMethod ="pad" x1="-819.2" y1="0" x2="819.2" y2="0" >
<stop  offset="0" style="stop-color:#3A232D;stop-opacity:1" />
<stop  offset="0.478431" style="stop-color:#371F2F;stop-opacity:1" />
<stop  offset="0.988235" style="stop-color:#72403F;stop-opacity:1" />
</linearGradient>
<path style="fill:url(#LinearGradID_1553) " d="M80.35,30.2L80.15 31.25L80 30.6Q79.8 31 79.75 31.9L79.7 31.05L79.65 31.05L78.85 33.95L78.4 34.95L78.5 33.95L78.6 32.9L78.6 31.7L78.5 30.4Q79.1 29.95 79.1 29.4L79.05 29.2L78.8 28.35L78.8 28.3L77.6 25.8L78.5 27.05L77.85 25.3L79.35 27.95L78.4 24.95L79.65 26.85L78.95 24.75Q79.85 26.2 80.3 27.95Q79.7 24.15 78.4 21.75L78.4 21.6L79.45 23.25L80.1 25.2L80.35 26.3L80.35 30.2" />
<linearGradient
id="LinearGradID_1554" gradientUnits="userSpaceOnUse" gradientTransform="matrix(0.00106812, -0.00167847, 0.00259399, 0.00123596, 55.1, 23)" spreadMethod ="pad" x1="-819.2" y1="0" x2="819.2" y2="0" >
<stop  offset="0" style="stop-color:#533E39;stop-opacity:1" />
<stop  offset="0.380392" style="stop-color:#766365;stop-opacity:1" />
<stop  offset="0.956863" style="stop-color:#2E1515;stop-opacity:1" />
</linearGradient>
<path style="fill:url(#LinearGradID_1554) " d="M55.1,24.55L54.7 25.55L54.5 24.05L54.5 24Q54.05 22.9 54.8 21.95L54.9 21.85L55 21.8L55.15 21.65L55.2 21.6L55.75 21.35L55.55 21.5L55.4 21.7L55.2 21.95L55.1 22L55.15 22L55.75 21.65L56.2 21.5L55.75 22L55.45 22.35Q55.1 22.75 55.05 23.2L55.05 23.3L55 23.7L55 24.1L55.05 24.45L55.1 24.55" />
<linearGradient
id="LinearGradID_1555" gradientUnits="userSpaceOnUse" gradientTransform="matrix(-0.000289917, 0.00135803, -0.00215149, -0.000335693, 60.8, 27.55)" spreadMethod ="pad" x1="-819.2" y1="0" x2="819.2" y2="0" >
<stop  offset="0" style="stop-color:#170C13;stop-opacity:1" />
<stop  offset="0.745098" style="stop-color:#493444;stop-opacity:1" />
</linearGradient>
<path style="fill:url(#LinearGradID_1555) " d="M63.15,26.4Q63.1 26.75 63.35 27.2Q63.55 27.7 63.25 28.15L64 28L62.5 28.7L62.5 28.75L62.25 28.8L61.75 28.95Q63.1 28.25 63 27.5L61.6 28.35Q62.4 27.4 62.1 26.65Q61.35 28.8 57.55 27.35Q57.65 26.25 59 25.8L58.55 26.55L59.7 25.8Q58.8 26.65 59 27.4Q59.5 26.25 60.2 26Q59.65 26.9 59.95 27.7Q60.1 26.35 62.95 25.85L62.4 26.3L63.4 25.95Q63.2 26.1 63.15 26.35L63.15 26.4" />
<linearGradient
id="LinearGradID_1556" gradientUnits="userSpaceOnUse" gradientTransform="matrix(-0.00262451, 0.00292969, -0.00231934, -0.00157166, 53.85, 27.6)" spreadMethod ="pad" x1="-819.2" y1="0" x2="819.2" y2="0" >
<stop  offset="0" style="stop-color:#12070D;stop-opacity:1" />
<stop  offset="0.266667" style="stop-color:#4B313E;stop-opacity:1" />
<stop  offset="0.505882" style="stop-color:#2E1711;stop-opacity:1" />
<stop  offset="1" style="stop-color:#87665E;stop-opacity:1" />
</linearGradient>
<path style="fill:url(#LinearGradID_1556) " d="M55.55,28L55.5 27.85L55.25 28.2L55.25 28.15Q55.6 27.6 55.55 26.35L55.55 26.3L55.5 26.3L55.5 26.2L57 25.9L57.35 25.75Q57.7 27.4 56.4 29L55.85 29.15L55.65 29.2L56.05 29L56.3 28.85L55.95 28.45L56.7 27.2L56.2 28.45Q56.75 28.05 57.1 27.1L57 26.05L56.45 27L56.35 26.2L56.25 27L56 26.35L55.75 28.2L55.55 28M55.8,28.25L56.25 27.35L55.9 28.4L55.8 28.25" />
<linearGradient
id="LinearGradID_1557" gradientUnits="userSpaceOnUse" gradientTransform="matrix(-6.10352e-05, -0.00144958, 0.0012207, -3.05176e-05, 56.4, 27.2)" spreadMethod ="pad" x1="-819.2" y1="0" x2="819.2" y2="0" >
<stop  offset="0" style="stop-color:#26161F;stop-opacity:1" />
<stop  offset="0.564706" style="stop-color:#6F515D;stop-opacity:1" />
<stop  offset="0.960784" style="stop-color:#2B1A23;stop-opacity:1" />
</linearGradient>
<path style="fill:url(#LinearGradID_1557) " d="M55.9,28.4L56.25 27.35L55.8 28.25L55.75 28.2L56 26.35L56.25 27L56.35 26.2L56.45 27L57 26.05L57.1 27.1Q56.75 28.05 56.2 28.45L56.7 27.2L55.95 28.45L55.9 28.4" />
<linearGradient
id="LinearGradID_1558" gradientUnits="userSpaceOnUse" gradientTransform="matrix(0.00253296, -0.00183105, 0.00117493, 0.0012207, 60.2, 27.8)" spreadMethod ="pad" x1="-819.2" y1="0" x2="819.2" y2="0" >
<stop  offset="0" style="stop-color:#24161F;stop-opacity:1" />
<stop  offset="0.564706" style="stop-color:#6A4D59;stop-opacity:1" />
<stop  offset="0.960784" style="stop-color:#281922;stop-opacity:1" />
</linearGradient>
<path style="fill:url(#LinearGradID_1558) " d="M57.55,27.45L57.5 27.4L57.55 27.35Q61.35 28.8 62.1 26.65Q62.4 27.4 61.6 28.35L63 27.5Q63.1 28.25 61.75 28.95L59.3 29.05L61.1 28.55L57.75 28.15L59.45 28.45Q58.1 28.05 57.55 27.45" />
<linearGradient
id="LinearGradID_1559" gradientUnits="userSpaceOnUse" gradientTransform="matrix(-0.00238037, 0.00306702, -0.00210571, -0.00164795, 54.2, 27.25)" spreadMethod ="pad" x1="-819.2" y1="0" x2="819.2" y2="0" >
<stop  offset="0" style="stop-color:#12070D;stop-opacity:1" />
<stop  offset="0.266667" style="stop-color:#4B313E;stop-opacity:1" />
<stop  offset="0.505882" style="stop-color:#2E1711;stop-opacity:1" />
<stop  offset="1" style="stop-color:#87665E;stop-opacity:1" />
</linearGradient>
<path style="fill:url(#LinearGradID_1559) " d="M55.75,28.2L55.8 28.25L55.9 28.4L55.95 28.45L56.3 28.85L56.05 29L55.65 29.2L54.55 29.5L53.7 29.45L53.3 29.3L53.15 29.25Q51.8 28.5 50.95 27.35Q52.3 28.3 53.8 28.8L53.05 27.9Q54.55 28.75 55.25 28.2L55.5 27.85L55.55 28L55.75 28.2" />
<linearGradient
id="LinearGradID_1560" gradientUnits="userSpaceOnUse" gradientTransform="matrix(0.00259399, 0.000198364, -0.000167847, 0.00157166, 55.25, 29.85)" spreadMethod ="pad" x1="-819.2" y1="0" x2="819.2" y2="0" >
<stop  offset="0" style="stop-color:#9F9089;stop-opacity:1" />
<stop  offset="0.909804" style="stop-color:#432D3A;stop-opacity:1" />
</linearGradient>
<path style="fill:url(#LinearGradID_1560) " d="M56.6,29.3L56.95 28.9L56.75 29.5L56.6 29.3M57,29.85L56.95 29.7L56.9 29.6L57.5 28.7L57.15 29.65L57 29.9L57 29.85" />
<linearGradient
id="LinearGradID_1561" gradientUnits="userSpaceOnUse" gradientTransform="matrix(0.00619507, -0.00326538, 0.00218201, 0.00411987, 61.9, 26.2)" spreadMethod ="pad" x1="-819.2" y1="0" x2="819.2" y2="0" >
<stop  offset="0" style="stop-color:#000000;stop-opacity:1" />
<stop  offset="0.501961" style="stop-color:#140B0C;stop-opacity:1" />
<stop  offset="0.988235" style="stop-color:#1C0B11;stop-opacity:1" />
<stop  offset="1" style="stop-color:#0F0608;stop-opacity:1" />
</linearGradient>
<path style="fill:url(#LinearGradID_1561) " d="M56.45,29.45L56.55 29.15L56.6 29.25L56.45 29.45" />
<linearGradient
id="LinearGradID_1562" gradientUnits="userSpaceOnUse" gradientTransform="matrix(0.00234985, 0.000213623, -0.000152588, 0.00164795, 55.5, 29.6)" spreadMethod ="pad" x1="-819.2" y1="0" x2="819.2" y2="0" >
<stop  offset="0" style="stop-color:#9F9089;stop-opacity:1" />
<stop  offset="0.909804" style="stop-color:#432D3A;stop-opacity:1" />
</linearGradient>
<path style="fill:url(#LinearGradID_1562) " d="M56.75,29.5L56.6 30L56.85 29.55L56.9 29.6L56.95 29.7L57 29.85L56.9 30L56.6 30.55L56.55 30.6Q55.6 31.05 54.7 30.9Q53.95 30.75 53.55 30.25L54.3 30.45Q55.45 30.6 56.2 29.85L56.25 29.8L56.35 29.7L56.4 29.65L56.4 29.6L56.4 29.55L56.45 29.45L56.6 29.25L56.6 29.3L56.75 29.5" />
<linearGradient
id="LinearGradID_1563" gradientUnits="userSpaceOnUse" gradientTransform="matrix(0.00379944, -0.00247192, 0.00271606, 0.00314331, 58, 30.4)" spreadMethod ="pad" x1="-819.2" y1="0" x2="819.2" y2="0" >
<stop  offset="0" style="stop-color:#5C4349;stop-opacity:1" />
<stop  offset="0.352941" style="stop-color:#35202F;stop-opacity:1" />
<stop  offset="0.964706" style="stop-color:#050203;stop-opacity:1" />
</linearGradient>
<path style="fill:url(#LinearGradID_1563) " d="M61.45,31L61.1 31.7L61.05 31.95L61 32.25L61 32.1Q60.35 33.1 59.5 33.55L59.35 33.7L59.45 33.5L60.4 31.8L58.8 33.95L59.15 33Q59.6 32.1 59.65 31.05L58.8 32.8L59.15 30.45L58.55 31.9L58.4 32.1L57.95 32.25L57.95 32.15L57.9 31.7L58.2 31.3L58.8 30L57.75 31.2L57.7 31.15L57.9 30.75L58.5 28.95L57.65 30.05L58.15 29.05L57.45 30L57.25 30.2L57.2 30.15L57 29.9L57.15 29.65L57.5 28.7L56.9 29.6L56.85 29.55L56.75 29.5L56.95 28.9L56.95 28.8L57.3 28.25L57.55 27.45Q58.1 28.05 59.45 28.45L57.75 28.15L61.1 28.55L59.3 29.05L61.75 28.95L62.25 28.8L62.5 28.75L62.4 28.85L63.15 28.7L64.4 28.4L62.95 29.05L64.65 28.8L62.45 29.65L61 29.85L63.15 29.9Q62 30.1 61.45 31M56.4,29L56.55 29L56.3 29.7L54.9 29.95L55.85 29.15L56.4 29" />
<linearGradient
id="LinearGradID_1564" gradientUnits="userSpaceOnUse" gradientTransform="matrix(0.00346375, -0.00257874, 0.00247192, 0.00328064, 58, 30.2)" spreadMethod ="pad" x1="-819.2" y1="0" x2="819.2" y2="0" >
<stop  offset="0" style="stop-color:#5C4349;stop-opacity:1" />
<stop  offset="0.352941" style="stop-color:#35202F;stop-opacity:1" />
<stop  offset="0.964706" style="stop-color:#050203;stop-opacity:1" />
</linearGradient>
<path style="fill:url(#LinearGradID_1564) " d="M57.5,31.95L57.55 31.95L57.85 31.65L57.85 31.6L57.9 31.7L57.95 32.15Q57 32.5 56.8 33Q56.85 32.45 57.5 31.95M57.1,30.3L56.2 31.25L55.35 31.75Q54.55 31.95 53.9 31.75Q53.15 31.35 52.65 30.5Q53.55 31.45 54.4 31.6L54.55 31.65Q55.9 31.5 56.5 30.7L56.6 30.55L56.9 30L57 29.85L57 29.9L57.2 30.15L57.1 30.3M56.6,30L56.75 29.5L56.85 29.55L56.6 30M57.7,31.05L57.7 31.15L57.4 31.5L57.65 31.15L57.7 31.05" />
<linearGradient
id="LinearGradID_1565" gradientUnits="userSpaceOnUse" gradientTransform="matrix(0.00184631, -0.00215149, 0.00326538, 0.00279236, 56.2, 31.95)" spreadMethod ="pad" x1="-819.2" y1="0" x2="819.2" y2="0" >
<stop  offset="0.0196078" style="stop-color:#7C6B61;stop-opacity:1" />
<stop  offset="0.929412" style="stop-color:#432D3A;stop-opacity:1" />
</linearGradient>
<path style="fill:url(#LinearGradID_1565) " d="M57.4,35.45Q56.8 34.85 56.6 33.85L56.5 33.75L56.4 33L56.6 32.4Q56.8 31.65 57.5 30.75L57.55 30.65L57.6 30.7L57.6 30.75L57.7 31.05L57.65 31.15L57.4 31.5L57.7 31.15L57.75 31.2L57.85 31.6L57.85 31.65L57.55 31.95L57.5 31.95Q56.85 32.45 56.8 33L56.75 33.1L56.75 33.2Q56.75 34.5 57.45 35.4L57.45 35.5L57.4 35.45M57.2,30.15L57.25 30.2L57.55 30.6L57.45 30.7Q55.55 32.3 54.4 32.05L53.9 31.75Q54.55 31.95 55.35 31.75L56.2 31.25L57.1 30.3L57.2 30.15" />
<linearGradient
id="LinearGradID_1566" gradientUnits="userSpaceOnUse" gradientTransform="matrix(0.00202942, -0.00205994, 0.00358582, 0.00267029, 56.05, 32.1)" spreadMethod ="pad" x1="-819.2" y1="0" x2="819.2" y2="0" >
<stop  offset="0.0196078" style="stop-color:#7C6B61;stop-opacity:1" />
<stop  offset="0.929412" style="stop-color:#432D3A;stop-opacity:1" />
</linearGradient>
<path style="fill:url(#LinearGradID_1566) " d="M57.45,35.5L57.55 35.6L57.4 35.5L57.4 35.45L57.45 35.5M57.7,31.05L57.6 30.75L57.7 30.6L57.6 30.7L57.55 30.65L57.5 30.75L57.45 30.7L57.55 30.6L57.25 30.2L57.45 30L58.15 29.05L57.65 30.05L58.5 28.95L57.9 30.75L57.7 31.15L57.7 31.05M57.85,31.6L57.75 31.2L58.8 30L58.2 31.3L57.9 31.7L57.85 31.6" />
<linearGradient
id="LinearGradID_1567" gradientUnits="userSpaceOnUse" gradientTransform="matrix(0.00193787, -0.00143433, 0.00163269, 0.00167847, 58.8, 32.5)" spreadMethod ="pad" x1="-819.2" y1="0" x2="819.2" y2="0" >
<stop  offset="0" style="stop-color:#5C4349;stop-opacity:1" />
<stop  offset="0.0196078" style="stop-color:#563D40;stop-opacity:1" />
<stop  offset="0.929412" style="stop-color:#2E1B27;stop-opacity:1" />
</linearGradient>
<path style="fill:url(#LinearGradID_1567) " d="M61,32.1Q60.7 33.15 60.05 33.75Q59.95 33.8 59.75 33.95L57.5 34.65Q58.95 34 58.45 32.1L58.4 32.1L58.55 31.9L59.15 30.45L58.8 32.8L59.65 31.05Q59.6 32.1 59.15 33L58.8 33.95L60.4 31.8L59.45 33.5L59.35 33.7L59.5 33.55Q60.35 33.1 61 32.1" />
<linearGradient
id="LinearGradID_1568" gradientUnits="userSpaceOnUse" gradientTransform="matrix(0.00346375, -0.00257874, 0.00247192, 0.00328064, 58, 30.2)" spreadMethod ="pad" x1="-819.2" y1="0" x2="819.2" y2="0" >
<stop  offset="0" style="stop-color:#5C4349;stop-opacity:1" />
<stop  offset="0.352941" style="stop-color:#35202F;stop-opacity:1" />
<stop  offset="0.929412" style="stop-color:#24131B;stop-opacity:1" />
</linearGradient>
<path style="fill:url(#LinearGradID_1568) " d="M56.4,33Q55.25 32.8 54.8 32.35L56.6 32.4L56.4 33" />
<linearGradient
id="LinearGradID_1569" gradientUnits="userSpaceOnUse" gradientTransform="matrix(0.00221252, 0.00224304, -0.00402832, 0.00575256, 79.65, 29)" spreadMethod ="pad" x1="-819.2" y1="0" x2="819.2" y2="0" >
<stop  offset="0" style="stop-color:#3A232D;stop-opacity:1" />
<stop  offset="0.478431" style="stop-color:#371F2F;stop-opacity:1" />
<stop  offset="0.988235" style="stop-color:#72403F;stop-opacity:1" />
</linearGradient>
<path style="fill:url(#LinearGradID_1569) " d="M80.35,26.3L80.45 26.7L80.35 24.45Q80.65 25.6 80.75 27.5L80.8 26.9L80.95 29.05L80.95 29.25L80.85 29.4Q80.6 29.9 80.65 30.4L80.45 29.55L80.45 29.65L80.35 30.2L80.35 26.3" />
<linearGradient
id="LinearGradID_1570" gradientUnits="userSpaceOnUse" gradientTransform="matrix(0.000854492, -0.00163269, 0.00135803, 0.000732422, 69.75, 25.55)" spreadMethod ="pad" x1="-819.2" y1="0" x2="819.2" y2="0" >
<stop  offset="0" style="stop-color:#523136;stop-opacity:1" />
<stop  offset="0.47451" style="stop-color:#8B7172;stop-opacity:1" />
<stop  offset="0.941176" style="stop-color:#4F3337;stop-opacity:1" />
</linearGradient>
<path style="fill:url(#LinearGradID_1570) " d="M69,26.75L68.75 26.75L69.4 26.4L67.65 26.7L68.35 26.2L67.45 26.45L68.65 25.45L68.4 26L70.15 24.8L68.6 26.25Q69.7 25.9 70.9 24.85L71.3 24.5L69.8 26.25L72.15 24.5Q71.65 25.35 70.75 26.2L70.45 26.5L69 26.75" />
<linearGradient
id="LinearGradID_1571" gradientUnits="userSpaceOnUse" gradientTransform="matrix(0.00447083, -0.00276184, 0.00192261, 0.00328064, 66.4, 29)" spreadMethod ="pad" x1="-819.2" y1="0" x2="819.2" y2="0" >
<stop  offset="0" style="stop-color:#361D23;stop-opacity:1" />
<stop  offset="0.552941" style="stop-color:#4F393B;stop-opacity:1" />
<stop  offset="0.929412" style="stop-color:#1C0B0B;stop-opacity:1" />
</linearGradient>
<path style="fill:url(#LinearGradID_1571) " d="M66.35,30.2L66.6 30.15L66.95 30.05Q67.9 29.45 68.75 28.65L69.55 27.6L68 28.6L69.5 27.2L67.5 28.45L68.5 27.35L66.6 28.6L66.35 28.75L66.35 28.15L66.6 28L68.4 26.8L68.75 26.75L69 26.75L70.45 26.5L70.75 26.35L70.95 26.2L70.75 26.55L69.7 27.95L69.55 28.25L67.7 29.9L66.6 30.3L66.35 30.35L66.35 30.2" />
<linearGradient
id="LinearGradID_1572" gradientUnits="userSpaceOnUse" gradientTransform="matrix(0.00128174, -0.00256348, 0.00337219, 0.00128174, 68.95, 25.2)" spreadMethod ="pad" x1="-819.2" y1="0" x2="819.2" y2="0" >
<stop  offset="0" style="stop-color:#2B1717;stop-opacity:1" />
<stop  offset="0.478431" style="stop-color:#674850;stop-opacity:1" />
<stop  offset="0.929412" style="stop-color:#382322;stop-opacity:1" />
</linearGradient>
<path style="fill:url(#LinearGradID_1572) " d="M66.35,26.95L66.3 26.95L65 26.85L63.75 26.5L66.1 26.55L64.25 25.9L66.3 25.9L66.35 25.9L66.35 26.95" />
<linearGradient
id="LinearGradID_1573" gradientUnits="userSpaceOnUse" gradientTransform="matrix(0.00262451, 0.000198364, -0.000106812, 0.0010376, 65.25, 27.45)" spreadMethod ="pad" x1="-819.2" y1="0" x2="819.2" y2="0" >
<stop  offset="0" style="stop-color:#250D1A;stop-opacity:1" />
<stop  offset="0.960784" style="stop-color:#432429;stop-opacity:1" />
</linearGradient>
<path style="fill:url(#LinearGradID_1573) " d="M66.3,27.4L64 28L63.25 28.15Q63.55 27.7 63.35 27.2Q63.1 26.75 63.15 26.4L63.15 26.35L63.65 26.45L64.25 26.45L64.75 26.45L63.9 25.95L63.9 25.9L64.25 25.9L66.1 26.55L63.75 26.5L65 26.85L66.3 26.95L66.35 26.95L66.35 27.3L66.35 27.35L66.3 27.4" />
<linearGradient
id="LinearGradID_1574" gradientUnits="userSpaceOnUse" gradientTransform="matrix(0.00189209, -0.000579834, 0.000686646, 0.00172424, 66.5, 27.75)" spreadMethod ="pad" x1="-819.2" y1="0" x2="819.2" y2="0" >
<stop  offset="0.239216" style="stop-color:#5C3D41;stop-opacity:1" />
<stop  offset="0.721569" style="stop-color:#856B6E;stop-opacity:1" />
<stop  offset="0.929412" style="stop-color:#4D2C2E;stop-opacity:1" />
</linearGradient>
<path style="fill:url(#LinearGradID_1574) " d="M66.35,27.9L66.3 27.9L65.5 28.05L65.35 28.05L65.85 27.7L65.95 27.7L66.3 27.65L66.35 27.6L66.35 27.9" />
<linearGradient
id="LinearGradID_1575" gradientUnits="userSpaceOnUse" gradientTransform="matrix(0.00349426, -0.00245667, 0.00212097, 0.00228882, 66, 28.8)" spreadMethod ="pad" x1="-819.2" y1="0" x2="819.2" y2="0" >
<stop  offset="0" style="stop-color:#1A0F12;stop-opacity:1" />
<stop  offset="0.517647" style="stop-color:#614145;stop-opacity:1" />
<stop  offset="0.929412" style="stop-color:#2B1818;stop-opacity:1" />
</linearGradient>
<path style="fill:url(#LinearGradID_1575) " d="M63.15,29.9L61 29.85L62.45 29.65L64.65 28.8L62.95 29.05L64.4 28.4L63.15 28.7L62.4 28.85L62.5 28.75L62.5 28.7L64 28L66.3 27.4L66.35 27.35L66.35 27.55L66.35 27.6L66.3 27.65L65.95 27.7L65.85 27.7L65.35 28.05L65.5 28.05L66.3 27.9L66.35 27.9L66.35 28.15L66.3 28.2L65.9 28.35L65.85 28.45L65.75 28.45L63.65 29.4Q64.7 29.5 66.3 28.8L66.35 28.75L66.35 29.1L66.35 29.15L66.3 29.2L65.3 29.7L66.3 29.5L66.35 29.5L66.35 29.7L66.3 29.75L65.5 30.05L66.3 29.95L66.35 29.95L66.35 30.2L66.3 30.2L64.05 30.25Q62.6 30.3 61.45 31Q62 30.1 63.15 29.9" />
<linearGradient
id="LinearGradID_1576" gradientUnits="userSpaceOnUse" gradientTransform="matrix(0.00297546, -0.00245667, 0.00180054, 0.00228882, 66, 28.8)" spreadMethod ="pad" x1="-819.2" y1="0" x2="819.2" y2="0" >
<stop  offset="0" style="stop-color:#1A0F12;stop-opacity:1" />
<stop  offset="0.517647" style="stop-color:#614145;stop-opacity:1" />
<stop  offset="0.929412" style="stop-color:#2B1818;stop-opacity:1" />
</linearGradient>
<path style="fill:url(#LinearGradID_1576) " d="M66.6,27.2L67.25 26.9L67.55 26.8L68.4 26.8L66.6 28L66.35 28.15L66.35 27.9L66.4 27.9L66.6 27.8L67.8 26.9L66.6 27.45L66.35 27.55L66.35 27.35L66.35 27.3L66.6 27.2M66.35,28.75L66.6 28.6L68.5 27.35L67.5 28.45L69.5 27.2L68 28.6L69.55 27.6L68.75 28.65Q67.9 29.45 66.95 30.05L66.6 30.15L66.35 30.2L66.35 29.95L66.6 29.85Q67.55 29.55 68.45 28.7L67.45 28.95L68.25 28.25Q67.65 28.55 67 28.8L67.45 28.3L67.05 28.6L66.6 28.95L66.35 29.1L66.35 28.75M66.35,29.5L67.3 29.25L66.35 29.7L66.35 29.5" />
<linearGradient
id="LinearGradID_1577" gradientUnits="userSpaceOnUse" gradientTransform="matrix(0.00161743, -0.000579834, 0.000579834, 0.00172424, 66.4, 27.75)" spreadMethod ="pad" x1="-819.2" y1="0" x2="819.2" y2="0" >
<stop  offset="0.239216" style="stop-color:#5C3D41;stop-opacity:1" />
<stop  offset="0.721569" style="stop-color:#856B6E;stop-opacity:1" />
<stop  offset="0.929412" style="stop-color:#4D2C2E;stop-opacity:1" />
</linearGradient>
<path style="fill:url(#LinearGradID_1577) " d="M66.35,27.55L66.6 27.45L67.8 26.9L66.6 27.8L66.4 27.9L66.35 27.9L66.35 27.6L66.35 27.55" />
<linearGradient
id="LinearGradID_1578" gradientUnits="userSpaceOnUse" gradientTransform="matrix(0.00224304, 0.000198364, -9.15527e-05, 0.0010376, 65.35, 27.45)" spreadMethod ="pad" x1="-819.2" y1="0" x2="819.2" y2="0" >
<stop  offset="0" style="stop-color:#250D1A;stop-opacity:1" />
<stop  offset="0.960784" style="stop-color:#432429;stop-opacity:1" />
</linearGradient>
<path style="fill:url(#LinearGradID_1578) " d="M66.6,26.95L67.25 26.9L66.6 27.2L66.35 27.3L66.35 26.95L66.6 26.95" />
<linearGradient
id="LinearGradID_1579" gradientUnits="userSpaceOnUse" gradientTransform="matrix(0.00184631, -0.00144958, 0.000762939, 0.00100708, 66.95, 29.15)" spreadMethod ="pad" x1="-819.2" y1="0" x2="819.2" y2="0" >
<stop  offset="0" style="stop-color:#4B3135;stop-opacity:1" />
<stop  offset="0.490196" style="stop-color:#865B5F;stop-opacity:1" />
<stop  offset="0.929412" style="stop-color:#412C2E;stop-opacity:1" />
</linearGradient>
<path style="fill:url(#LinearGradID_1579) " d="M66.35,29.7L67.3 29.25L66.35 29.5L66.35 29.15L66.35 29.1L66.6 28.95L67.05 28.6L67.45 28.3L67 28.8Q67.65 28.55 68.25 28.25L67.45 28.95L68.45 28.7Q67.55 29.55 66.6 29.85L66.35 29.95L66.35 29.7" />
<linearGradient
id="LinearGradID_1580" gradientUnits="userSpaceOnUse" gradientTransform="matrix(0.00524902, -0.00276184, 0.00227356, 0.00328064, 66.5, 29)" spreadMethod ="pad" x1="-819.2" y1="0" x2="819.2" y2="0" >
<stop  offset="0" style="stop-color:#361D23;stop-opacity:1" />
<stop  offset="0.552941" style="stop-color:#4F393B;stop-opacity:1" />
<stop  offset="0.929412" style="stop-color:#1C0B0B;stop-opacity:1" />
</linearGradient>
<path style="fill:url(#LinearGradID_1580) " d="M61.45,31Q62.6 30.3 64.05 30.25L66.3 30.2L66.35 30.2L66.35 30.35L66.3 30.35L63.8 30.4Q61.6 30.8 61.1 31.7L61.45 31M66.35,28.75L66.3 28.8Q64.7 29.5 63.65 29.4L65.75 28.45L65.85 28.45L65.9 28.35L66.3 28.2L66.35 28.15L66.35 28.75" />
<linearGradient
id="LinearGradID_1581" gradientUnits="userSpaceOnUse" gradientTransform="matrix(0.00218201, -0.00144958, 0.000900269, 0.00100708, 67.1, 29.15)" spreadMethod ="pad" x1="-819.2" y1="0" x2="819.2" y2="0" >
<stop  offset="0" style="stop-color:#4B3135;stop-opacity:1" />
<stop  offset="0.490196" style="stop-color:#865B5F;stop-opacity:1" />
<stop  offset="0.929412" style="stop-color:#412C2E;stop-opacity:1" />
</linearGradient>
<path style="fill:url(#LinearGradID_1581) " d="M66.35,29.15L66.35 29.5L66.3 29.5L65.3 29.7L66.3 29.2L66.35 29.15M66.35,29.7L66.35 29.95L66.3 29.95L65.5 30.05L66.3 29.75L66.35 29.7" />
<linearGradient
id="LinearGradID_1582" gradientUnits="userSpaceOnUse" gradientTransform="matrix(0.00228882, 0, 0, 0.00119019, 54.55, 22.05)" spreadMethod ="pad" x1="-819.2" y1="0" x2="819.2" y2="0" >
<stop  offset="0" style="stop-color:#311C21;stop-opacity:1" />
<stop  offset="0.454902" style="stop-color:#54424B;stop-opacity:1" />
<stop  offset="0.956863" style="stop-color:#180D14;stop-opacity:1" />
</linearGradient>
<path style="fill:url(#LinearGradID_1582) " d="M52.75,22.1Q53.2 22.8 54.05 22.8Q55.05 22.8 55.65 22.1L56.4 21.1L56.45 21.35L55.85 22.3Q55.05 23.05 54.05 23.05Q53.7 23.05 53.2 22.65L52.7 22.2L52.75 22.1" />
<linearGradient
id="LinearGradID_1583" gradientUnits="userSpaceOnUse" gradientTransform="matrix(0.00189209, 0, 0, 0.000793457, 55.35, 20.6)" spreadMethod ="pad" x1="-819.2" y1="0" x2="819.2" y2="0" >
<stop  offset="0" style="stop-color:#311C21;stop-opacity:1" />
<stop  offset="0.454902" style="stop-color:#54424B;stop-opacity:1" />
<stop  offset="0.956863" style="stop-color:#180D14;stop-opacity:1" />
</linearGradient>
<path style="fill:url(#LinearGradID_1583) " d="M53.8,21.1Q55.3 21.15 56.2 20.55L56.9 19.95L56.35 20.75Q55.85 21.25 54.55 21.25L53.8 21.1" />
<linearGradient
id="LinearGradID_1584" gradientUnits="userSpaceOnUse" gradientTransform="matrix(0.00247192, 0, 0, 0.0022583, 54.6, 23.55)" spreadMethod ="pad" x1="-819.2" y1="0" x2="819.2" y2="0" >
<stop  offset="0" style="stop-color:#311C21;stop-opacity:1" />
<stop  offset="0.454902" style="stop-color:#54424B;stop-opacity:1" />
<stop  offset="0.956863" style="stop-color:#180D14;stop-opacity:1" />
</linearGradient>
<path style="fill:url(#LinearGradID_1584) " d="M56.65,21.9Q55.6 25.4 53.3 25.4Q52.6 25.4 52.6 25.2Q55 24.75 55.75 23.45L56.6 21.7L56.65 21.9" />
<linearGradient
id="LinearGradID_1585" gradientUnits="userSpaceOnUse" gradientTransform="matrix(0.00100708, 0, 0, 0.00134277, 57.7, 33.4)" spreadMethod ="pad" x1="-819.2" y1="0" x2="819.2" y2="0" >
<stop  offset="0" style="stop-color:#311C21;stop-opacity:1" />
<stop  offset="0.454902" style="stop-color:#524048;stop-opacity:1" />
<stop  offset="0.956863" style="stop-color:#180D14;stop-opacity:1" />
</linearGradient>
<path style="fill:url(#LinearGradID_1585) " d="M58.15,33.45L57.15 34.5L56.9 34.4L58.05 33.3L58.4 32.3L58.5 32.3L58.55 32.55L58.15 33.45" />
<linearGradient
id="LinearGradID_1586" gradientUnits="userSpaceOnUse" gradientTransform="matrix(0.000427246, 0, 0, 0.00308228, 79.35, 29.9)" spreadMethod ="pad" x1="-819.2" y1="0" x2="819.2" y2="0" >
<stop  offset="0" style="stop-color:#311C21;stop-opacity:1" />
<stop  offset="0.454902" style="stop-color:#000000;stop-opacity:1" />
<stop  offset="0.956863" style="stop-color:#180D14;stop-opacity:1" />
</linearGradient>
<path style="fill:url(#LinearGradID_1586) " d="M79.1,31.4L79.3 29.8L79.35 28L79.4 27.4L79.5 27.4L79.7 29.8L79.5 31.2L79.05 32.35L79.05 32.4L79 32.45L79.1 31.4" />
<linearGradient
id="LinearGradID_1587" gradientUnits="userSpaceOnUse" gradientTransform="matrix(0.00106812, 0, 0, 0.00457764, 78.2, 29.85)" spreadMethod ="pad" x1="-819.2" y1="0" x2="819.2" y2="0" >
<stop  offset="0" style="stop-color:#311C21;stop-opacity:1" />
<stop  offset="0.454902" style="stop-color:#000000;stop-opacity:1" />
<stop  offset="0.956863" style="stop-color:#180D14;stop-opacity:1" />
</linearGradient>
<path style="fill:url(#LinearGradID_1587) " d="M79,32.45L79.05 32.4L78.75 33.6L78.8 31.35Q78.8 30.4 78.2 28.35L77.35 26.1L78.65 28.55Q79.1 29.8 79.1 31.4L79 32.45" />
<linearGradient
id="LinearGradID_1588" gradientUnits="userSpaceOnUse" gradientTransform="matrix(0.00164795, 0, 0, 0.00256348, 80.35, 16.8)" spreadMethod ="pad" x1="-819.2" y1="0" x2="819.2" y2="0" >
<stop  offset="0" style="stop-color:#311C21;stop-opacity:1" />
<stop  offset="0.454902" style="stop-color:#54424B;stop-opacity:1" />
<stop  offset="0.956863" style="stop-color:#180D14;stop-opacity:1" />
</linearGradient>
<path style="fill:url(#LinearGradID_1588) " d="M81.5,18.6Q81.5 17.45 81 16.6Q80.4 15.65 79 14.8L79 14.7Q81.7 15.1 81.7 18.25L81.5 18.9L81.5 18.6" />
<linearGradient
id="LinearGradID_1589" gradientUnits="userSpaceOnUse" gradientTransform="matrix(0.00100708, 0, 0, 0.00405884, 83.55, 24.5)" spreadMethod ="pad" x1="-819.2" y1="0" x2="819.2" y2="0" >
<stop  offset="0" style="stop-color:#311C21;stop-opacity:1" />
<stop  offset="0.454902" style="stop-color:#54424B;stop-opacity:1" />
<stop  offset="0.956863" style="stop-color:#180D14;stop-opacity:1" />
</linearGradient>
<path style="fill:url(#LinearGradID_1589) " d="M82.85,25.3L82.8 24.75L82.8 24.7L82.8 24.55L82.95 23.25L83.05 22.65L83.15 21.95L83.3 21.2L83.35 21.35L83.25 22.65L83.1 24.25L82.95 25.45L83.05 26.65Q83.3 27.35 84.4 27.75L84.4 27.8L84 27.85Q83.05 27.85 82.8 26.65L82.8 26.5L82.85 25.3" />
<linearGradient
id="LinearGradID_1590" gradientUnits="userSpaceOnUse" gradientTransform="matrix(0.000579834, 0, 0, 0.0038147, 82.75, 23.1)" spreadMethod ="pad" x1="-819.2" y1="0" x2="819.2" y2="0" >
<stop  offset="0" style="stop-color:#311C21;stop-opacity:1" />
<stop  offset="0.454902" style="stop-color:#54424B;stop-opacity:1" />
<stop  offset="0.956863" style="stop-color:#180D14;stop-opacity:1" />
</linearGradient>
<path style="fill:url(#LinearGradID_1590) " d="M83.05,22.65L82.3 20L82.4 20L83.15 21.95L83.05 22.65M83.25,22.65L83.25 23.15L83.1 24.25L83.25 22.65M82.6,26.2L82.55 26.2L82.5 26.05L82.7 25L82.6 26.2" />
<linearGradient
id="LinearGradID_1591" gradientUnits="userSpaceOnUse" gradientTransform="matrix(0.00119019, 0, 0, 0.00415039, 81.85, 26.65)" spreadMethod ="pad" x1="-819.2" y1="0" x2="819.2" y2="0" >
<stop  offset="0" style="stop-color:#311C21;stop-opacity:1" />
<stop  offset="0.454902" style="stop-color:#54424B;stop-opacity:1" />
<stop  offset="0.956863" style="stop-color:#180D14;stop-opacity:1" />
</linearGradient>
<path style="fill:url(#LinearGradID_1591) " d="M82.7,25L82.7 24.85L82.5 24.1L82.5 23.25L82.6 23.25L82.8 24.7L82.8 24.75L82.85 25.3L82.8 26.5L82.55 27.95Q82.1 29.95 81.15 30.05L80.9 30Q82.3 29.15 82.5 27.45L82.6 26.2L82.7 25" />
<linearGradient
id="LinearGradID_1592" gradientUnits="userSpaceOnUse" gradientTransform="matrix(0.00289917, 0, 0, 0.0012207, 69.8, 12.3)" spreadMethod ="pad" x1="-819.2" y1="0" x2="819.2" y2="0" >
<stop  offset="0" style="stop-color:#311C21;stop-opacity:1" />
<stop  offset="0.454902" style="stop-color:#54424B;stop-opacity:1" />
<stop  offset="0.956863" style="stop-color:#180D14;stop-opacity:1" />
</linearGradient>
<path style="fill:url(#LinearGradID_1592) " d="M72.2,12L71.7 11.8L71.15 11.6Q68.3 11.6 67.7 12.3L67.6 13.3L67.5 13.3L67.45 12.85Q67.45 12.2 68.6 11.65Q70.1 10.85 72.2 11.9L72.2 12" />
<linearGradient
id="LinearGradID_1593" gradientUnits="userSpaceOnUse" gradientTransform="matrix(0.00494385, 0, 0, 0.00436401, 61.25, 15.55)" spreadMethod ="pad" x1="-819.2" y1="0" x2="819.2" y2="0" >
<stop  offset="0" style="stop-color:#311C21;stop-opacity:1" />
<stop  offset="0.454902" style="stop-color:#54424B;stop-opacity:1" />
<stop  offset="0.956863" style="stop-color:#180D14;stop-opacity:1" />
</linearGradient>
<path style="fill:url(#LinearGradID_1593) " d="M65.3,12.05Q60.85 12.95 59.05 14.9Q57.65 16.4 57.45 19L57.25 19.1L57.2 18.95Q57.2 16.75 58.8 14.95Q60.85 12.6 65.05 12.05L65.05 12L65.3 12.05" />
<linearGradient
id="LinearGradID_1594" gradientUnits="userSpaceOnUse" gradientTransform="matrix(0.003479, 0, 0, 0.00405884, 75.5, 16.55)" spreadMethod ="pad" x1="-819.2" y1="0" x2="819.2" y2="0" >
<stop  offset="0" style="stop-color:#311C21;stop-opacity:1" />
<stop  offset="0.454902" style="stop-color:#54424B;stop-opacity:1" />
<stop  offset="0.956863" style="stop-color:#180D14;stop-opacity:1" />
</linearGradient>
<path style="fill:url(#LinearGradID_1594) " d="M72.8,19.85L72.7 19.9L72.65 18.95Q72.65 16.5 73.2 15.5Q74.4 13.15 78.35 13.25Q73.5 14.15 73.05 16.35L73.05 18.15Q73.1 19.3 72.8 19.85" />
<linearGradient
id="LinearGradID_1595" gradientUnits="userSpaceOnUse" gradientTransform="matrix(0.00119019, 0, 0, 0.00396729, 56, 25.3)" spreadMethod ="pad" x1="-819.2" y1="0" x2="819.2" y2="0" >
<stop  offset="0" style="stop-color:#311C21;stop-opacity:1" />
<stop  offset="0.454902" style="stop-color:#54424B;stop-opacity:1" />
<stop  offset="0.956863" style="stop-color:#180D14;stop-opacity:1" />
</linearGradient>
<path style="fill:url(#LinearGradID_1595) " d="M55.55,24.3Q55.3 25.15 55.3 26.35L55.4 27.5Q55.7 28.2 57 28.5L56.6 28.55Q55.45 28.55 55.15 27.5L55.05 26.35Q55.05 23 56.65 22.05Q55.85 23.35 55.55 24.3" />
<linearGradient
id="LinearGradID_1596" gradientUnits="userSpaceOnUse" gradientTransform="matrix(0.00302124, 0, 0, 0.00131226, 55.2, 29.5)" spreadMethod ="pad" x1="-819.2" y1="0" x2="819.2" y2="0" >
<stop  offset="0" style="stop-color:#311C21;stop-opacity:1" />
<stop  offset="0.454902" style="stop-color:#54424B;stop-opacity:1" />
<stop  offset="0.956863" style="stop-color:#180D14;stop-opacity:1" />
</linearGradient>
<path style="fill:url(#LinearGradID_1596) " d="M56.85,29.6L56.15 29.6L57.6 28.45L57.7 28.65Q57.7 29.15 57 29.6L56.85 29.6M55.6,30.15L55.95 30.15L54 30.6L53.05 30.5L52.75 30.25L55.1 30.15L55.6 30.15" />
<linearGradient
id="LinearGradID_1597" gradientUnits="userSpaceOnUse" gradientTransform="matrix(0.00302124, 0, 0, 0.00100708, 54.95, 29.3)" spreadMethod ="pad" x1="-819.2" y1="0" x2="819.2" y2="0" >
<stop  offset="0" style="stop-color:#311C21;stop-opacity:1" />
<stop  offset="0.454902" style="stop-color:#54424B;stop-opacity:1" />
<stop  offset="0.956863" style="stop-color:#180D14;stop-opacity:1" />
</linearGradient>
<path style="fill:url(#LinearGradID_1597) " d="M55.1,30.15Q54.1 30 53.3 29.45L52.5 28.75L52.55 28.5L52.65 28.5Q53.65 29.05 53.7 29.45L56.15 29.6L56.85 29.6L57 29.6L57.45 29.75L56.7 30.05L55.95 30.15L55.6 30.15L55.1 30.15" />
<linearGradient
id="LinearGradID_1598" gradientUnits="userSpaceOnUse" gradientTransform="matrix(0.00201416, 0, 0, 0.000976562, 55.95, 31.6)" spreadMethod ="pad" x1="-819.2" y1="0" x2="819.2" y2="0" >
<stop  offset="0" style="stop-color:#311C21;stop-opacity:1" />
<stop  offset="0.454902" style="stop-color:#54424B;stop-opacity:1" />
<stop  offset="0.956863" style="stop-color:#180D14;stop-opacity:1" />
</linearGradient>
<path style="fill:url(#LinearGradID_1598) " d="M54.3,32.3L56.55 31.6L57.6 30.8L56.9 31.75Q56.1 32.4 54.85 32.4L54.3 32.3" />
<linearGradient
id="LinearGradID_1599" gradientUnits="userSpaceOnUse" gradientTransform="matrix(0.0015564, 0, 0, 0.00183105, 58.15, 33.1)" spreadMethod ="pad" x1="-819.2" y1="0" x2="819.2" y2="0" >
<stop  offset="0" style="stop-color:#311C21;stop-opacity:1" />
<stop  offset="0.454902" style="stop-color:#54424B;stop-opacity:1" />
<stop  offset="0.956863" style="stop-color:#180D14;stop-opacity:1" />
</linearGradient>
<path style="fill:url(#LinearGradID_1599) " d="M59.35,31.6L59.45 31.75Q58.35 32.1 57.7 32.9Q57.1 33.6 57.2 34.2L58.4 34.35L57.6 34.6Q56.9 34.6 56.9 34Q56.9 33.4 57.55 32.6Q58.35 31.55 59.35 31.6" />
<linearGradient
id="LinearGradID_1600" gradientUnits="userSpaceOnUse" gradientTransform="matrix(0.00268555, 0, 0, 0.0022583, 68.7, 28.45)" spreadMethod ="pad" x1="-819.2" y1="0" x2="819.2" y2="0" >
<stop  offset="0" style="stop-color:#311C21;stop-opacity:1" />
<stop  offset="0.454902" style="stop-color:#54424B;stop-opacity:1" />
<stop  offset="0.956863" style="stop-color:#180D14;stop-opacity:1" />
</linearGradient>
<path style="fill:url(#LinearGradID_1600) " d="M70.9,26.6Q69.85 29.8 66.5 30.3Q68.3 29.75 69.5 28.3L70.9 26.6" />
<linearGradient
id="LinearGradID_1601" gradientUnits="userSpaceOnUse" gradientTransform="matrix(0.00146484, 0.000396729, -0.000442505, 0.0017395, 68.1, 15.15)" spreadMethod ="pad" x1="-819.2" y1="0" x2="819.2" y2="0" >
<stop  offset="0" style="stop-color:#FFFFFF;stop-opacity:0" />
<stop  offset="0.423529" style="stop-color:#FFFFFF;stop-opacity:0.211765" />
<stop  offset="1" style="stop-color:#FFFFFF;stop-opacity:0" />
</linearGradient>
<path style="fill:url(#LinearGradID_1601) " d="M70,15.4Q69 16 68.1 15.9Q66.9 15.65 66.2 14.9L66.85 15.1Q68.6 16.05 70 15.4" />
<linearGradient
id="LinearGradID_1602" gradientUnits="userSpaceOnUse" gradientTransform="matrix(0.00186157, 0.00050354, -0.000152588, 0.000595093, 66.15, 14.6)" spreadMethod ="pad" x1="-819.2" y1="0" x2="819.2" y2="0" >
<stop  offset="0" style="stop-color:#FFFFFF;stop-opacity:0" />
<stop  offset="0.423529" style="stop-color:#FFFFFF;stop-opacity:0.211765" />
<stop  offset="1" style="stop-color:#FFFFFF;stop-opacity:0" />
</linearGradient>
<path style="fill:url(#LinearGradID_1602) " d="M67.8,14.7L64.55 14.7L66.35 14.2L67.8 14.7" />
<linearGradient
id="LinearGradID_1603" gradientUnits="userSpaceOnUse" gradientTransform="matrix(0.00263977, 0.000228882, -0.00012207, 0.0014801, 63.85, 14.1)" spreadMethod ="pad" x1="-819.2" y1="0" x2="819.2" y2="0" >
<stop  offset="0" style="stop-color:#FFFFFF;stop-opacity:0" />
<stop  offset="0.423529" style="stop-color:#FFFFFF;stop-opacity:0.211765" />
<stop  offset="1" style="stop-color:#FFFFFF;stop-opacity:0" />
</linearGradient>
<path style="fill:url(#LinearGradID_1603) " d="M61.6,14.85Q63.4 13.7 65.25 13L63.8 14.1L66.15 13.35L64.8 14.2Q63.5 14.5 62.45 15.25L63.5 14L61.6 14.85" />
<linearGradient
id="LinearGradID_1604" gradientUnits="userSpaceOnUse" gradientTransform="matrix(0.00119019, -0.00109863, 0.000976562, 0.00105286, 65.4, 23)" spreadMethod ="pad" x1="-819.2" y1="0" x2="819.2" y2="0" >
<stop  offset="0" style="stop-color:#FFFFFF;stop-opacity:0" />
<stop  offset="0.458824" style="stop-color:#FFFFFF;stop-opacity:0.113725" />
<stop  offset="1" style="stop-color:#FFFFFF;stop-opacity:0" />
</linearGradient>
<path style="fill:url(#LinearGradID_1604) " d="M63.7,23.05L65.2 23.1L64.1 22.7L67 22.65L65.95 23.15L66.95 23.25L65.2 23.4L64.9 23.35L63.7 23.05" />
<linearGradient
id="LinearGradID_1605" gradientUnits="userSpaceOnUse" gradientTransform="matrix(0.00144958, -0.00134277, 0.00135803, 0.00146484, 71.55, 21.65)" spreadMethod ="pad" x1="-819.2" y1="0" x2="819.2" y2="0" >
<stop  offset="0" style="stop-color:#FFFFFF;stop-opacity:0" />
<stop  offset="0.423529" style="stop-color:#FFFFFF;stop-opacity:0.380392" />
<stop  offset="1" style="stop-color:#FFFFFF;stop-opacity:0" />
</linearGradient>
<path style="fill:url(#LinearGradID_1605) " d="M73.6,20.75Q72.7 21.15 72.25 21.8Q71.15 22.9 69.5 23.15Q70.6 22.65 70.9 22.35L71.65 21.55Q72.15 20.9 73.45 20.15L72.2 21.35Q73 20.85 73.6 20.75" />
<linearGradient
id="LinearGradID_1606" gradientUnits="userSpaceOnUse" gradientTransform="matrix(-0.000686646, -0.00120544, 0.00222778, -0.00126648, 80.95, 22.8)" spreadMethod ="pad" x1="-819.2" y1="0" x2="819.2" y2="0" >
<stop  offset="0" style="stop-color:#FFFFFF;stop-opacity:0" />
<stop  offset="0.423529" style="stop-color:#FFFFFF;stop-opacity:0.380392" />
<stop  offset="1" style="stop-color:#FFFFFF;stop-opacity:0" />
</linearGradient>
<path style="fill:url(#LinearGradID_1606) " d="M80.35,20.45L82.05 24.6L80.95 22.9L81.5 25.05L80.05 21.05L80.85 22.5L80.35 20.45" />
<linearGradient
id="LinearGradID_1607" gradientUnits="userSpaceOnUse" gradientTransform="matrix(-0.000686646, -0.00120544, 0.00222778, -0.00126648, 79.85, 23.8)" spreadMethod ="pad" x1="-819.2" y1="0" x2="819.2" y2="0" >
<stop  offset="0" style="stop-color:#FFFFFF;stop-opacity:0" />
<stop  offset="0.423529" style="stop-color:#FFFFFF;stop-opacity:0.380392" />
<stop  offset="1" style="stop-color:#FFFFFF;stop-opacity:0" />
</linearGradient>
<path style="fill:url(#LinearGradID_1607) " d="M79.75,23.5L79.25 21.45L80.95 25.6L79.85 23.9L80.4 26.05L78.95 22.05L79.75 23.5" />
<linearGradient
id="LinearGradID_1608" gradientUnits="userSpaceOnUse" gradientTransform="matrix(0.00167847, -0.00154114, 0.000732422, 0.000793457, 73.5, 17.75)" spreadMethod ="pad" x1="-819.2" y1="0" x2="819.2" y2="0" >
<stop  offset="0" style="stop-color:#FFFFFF;stop-opacity:0" />
<stop  offset="0.423529" style="stop-color:#FFFFFF;stop-opacity:0.160784" />
<stop  offset="1" style="stop-color:#FFFFFF;stop-opacity:0" />
</linearGradient>
<path style="fill:url(#LinearGradID_1608) " d="M71.05,19.25Q72.25 16.8 76.15 16.55Q73.15 17.35 71.05 19.25" />
<linearGradient
id="LinearGradID_1609" gradientUnits="userSpaceOnUse" gradientTransform="matrix(0.000991821, -0.000747681, 0.000793457, 0.00102234, 67.3, 26.95)" spreadMethod ="pad" x1="-819.2" y1="0" x2="819.2" y2="0" >
<stop  offset="0" style="stop-color:#FFFFFF;stop-opacity:0" />
<stop  offset="0.423529" style="stop-color:#FFFFFF;stop-opacity:0.160784" />
<stop  offset="1" style="stop-color:#FFFFFF;stop-opacity:0" />
</linearGradient>
<path style="fill:url(#LinearGradID_1609) " d="M65.65,28.05L66.7 27.3L65.35 27.8L67.15 26.85L67.3 26.75L68.5 26.2L65.65 28.05" />
</g>
</svg>
