<?xml version="1.0" encoding="utf-8"?>
<svg version="1.1" id="Layer_1"
xmlns="http://www.w3.org/2000/svg"
xmlns:xlink="http://www.w3.org/1999/xlink"
xmlns:author="http://www.sothink.com"
width="25px" height="29px"
xml:space="preserve">
<g id="18" transform="matrix(1, 0, 0, 1, -57.4, -7.55)">
<path style="fill:#150D0D;fill-opacity:1" d="M81.65,25.2L81.65 25.15L81.45 24.7L81.45 24.5L81.55 24.5L81.75 24.8L81.75 24.75L81.7 24.6L81.7 24.55L81.65 24.5L81.55 24.1L81.55 23.9L81.6 23.95L81.65 24.15L81.65 24L81.7 24.1L81.45 23.55L81.05 22.5L81.35 23.65L80.5 22.4L80.9 23.3L80.55 22.75L79.3 20.45L78.7 19.4L79.05 20.4L79.1 20.5L79 20.4L78.45 19.45L78.4 19.45L78.75 20.45L77.45 18L77.5 18L78.4 18.85L78 18.1L80.3 21.2L80.3 21.05L79.25 19.3L81.3 22L81.05 21.45L81.05 21.35L81.65 21.95L81.85 22.05L81.85 22L81.65 21.7L81 20.85L81.65 21.4L81.95 21.7L81.95 21.85L82.1 22.05L81.95 22.2L82.05 22.35L82.15 22.5L82.15 22.55L81.95 22.55L81.9 22.65L82 22.9L82.1 23L82.1 23.1L81.9 23.15L81.95 23.3L82.05 23.45L81.8 23.45L81.8 23.5L81.75 23.5L81.9 23.65L81.95 23.8L81.9 23.9L81.8 23.95L81.75 23.95L81.85 24.15L81.85 24.2L81.95 24.45L81.7 24.5L81.8 24.75L81.95 25.05L81.9 25.05L81.8 25L81.85 25.2L81.9 25.35L81.75 25.4L81.65 25.2M81.7,22.5L81.65 22.4L81.5 22.25L81.65 22.45L81.7 22.5M62.25,18.2L61.85 18.85L62.25 18.55L62.25 19.1L61.5 20.55L61.85 19.45L61.3 20.45L61.6 19.4L60.95 20.65L59.4 23.3L59.75 22.4L58.95 23.65L59.25 22.5L58.8 23.8Q58.55 24.15 58.75 23.95L58.8 23.9L58.8 24.1L58.55 24.8L58.8 24.5L58.85 24.5L58.85 24.7L58.5 25.65L58.3 25.55L58.4 25.4L58.55 25.2L58.4 25.1L58.25 25L58.35 24.75L58.5 24.6L58.5 24.5L58.15 24.45L58.3 24.15L58.4 23.95L58.25 23.9L58.15 23.8L58.25 23.65L58.35 23.5L58.35 23.45L58.1 23.45L58.2 23.3L58.25 23.15L58 23.1L58 23L58.15 22.9L58.25 22.65L58.2 22.55L58 22.55L58 22.5L58.1 22.35L58.15 22.2L58 22.05L58.2 21.85L58.35 21.65L59.3 20.85L58.5 22L58.5 22.05L59.3 21.35L59.25 21.55L59.2 21.75L61.1 19.3L60 21.05L62.25 18.2" />
<path style="fill:#3B3028;fill-opacity:1" d="M79.1,22.35L79.3 22.7L79.85 23.45L79.55 23.25L79.5 23.25L79.5 23.55L79.55 23.7L79.75 24.5L79.6 24.25L79.5 24.25L80.2 25.35L80.1 25.3L80.05 25.3L80.55 26.15L80.5 26.2L80.1 25.95L80.15 26.15L80.2 26.5L80.4 27.1L80.4 27.2L80.5 27.55L80.65 27.9L80.4 27.7L80.35 27.7L80.35 28.05L80.45 28.4L80.45 28.75L80.3 28.6L80.25 28.6L80.25 28.85L80.3 29.15L80.3 29.35L80.3 29.6L80.1 29.25L80.2 30L80.2 31L80.1 30.95L80.1 31.85L80.15 32.6L80.15 32.65L80.05 33.2Q79.9 33.1 79.75 33.75L79.95 32.6L80 31.2L80.1 30.55L79.95 29.55L80 29.15L80.05 28.95L79.95 28.6L79.8 28.2L79.8 28L80 28.1L80 28.05L79.7 27L79.75 27L79.85 27.15L79.9 27.15L79.7 26.55L79.6 26.1L79.65 26.1L79.75 26.15L79.9 26.2L79.9 26.15L79.65 25.45L79.45 24.85L79.5 24.85L79.65 25.05L79.35 24.15L79.2 23.65L79.3 23.65L79.4 23.7L79.5 23.75L79.4 23.5L78.7 22.05L78.65 22.05L78.65 22L78.7 22.05L78.75 22.1L78.9 22.15L78.3 21.4L77.5 20.5L77.5 20.7L77.6 20.95L76.9 20.45L76.9 20.05L78.25 20.55L78.4 20.65L78.3 20.65L78.05 20.55L78 20.55L78.3 20.85L78.6 21.15L78.8 21.3L78.95 21.4L79.25 21.65L78.95 21.5L78.9 21.45L78.9 21.5L79.1 21.85L79.5 22.5L79.3 22.45L79.1 22.3L79.05 22.3L79.1 22.35M76.9,20.7L76.9 20.55L77.1 20.7L77.55 21.1L76.9 20.7M76.9,19.9L76.9 19.85L77 19.8L76.9 19.9" />
<path style="fill:#251E1D;fill-opacity:1" d="M81.5,18.85L81.6 18.85L81.75 18.95L81.7 18.95L81.65 19L81.6 19.1L81.9 19.3L81.8 19.4L81.75 19.45L81.85 19.55L82 19.65L81.9 19.8L81.85 19.9L81.85 20L82.05 20L81.8 20.2L81.85 20.25L81.95 20.3L82.05 20.4L81.9 20.5L81.95 20.5L82.05 20.55L82.15 20.65L82.1 20.65L82 20.7L81.95 20.75L81.6 20.65L80.55 19.8Q79.85 19.05 81.2 20.1L81.5 20.2L81.6 20.3L81.5 20.1L81.45 20.1L79.7 18.05L80.85 18.95L80.05 17.9L81.05 18.75L81.3 19L81.25 18.9L81.05 18.6L80.95 18.5L80.85 18.3L81.5 18.85" />
<path style="fill:#2B2521;fill-opacity:1" d="M80.1,31.85L80.1 30.95L80.2 31L80.2 30L80.1 29.25L80.3 29.6L80.3 29.35L80.3 29.15L80.25 28.85L80.25 28.6L80.3 28.6L80.45 28.75L80.45 28.4L80.35 28.05L80.35 27.7L80.4 27.7L80.65 27.9L80.5 27.55L80.4 27.2L80.4 27.1L80.2 26.5L80.15 26.15L80.1 25.95L80.5 26.2L80.55 26.15L80.05 25.3L80.1 25.3L80.2 25.35L79.5 24.25L79.6 24.25L79.75 24.5L79.55 23.7L79.5 23.55L79.5 23.25L79.55 23.25L79.85 23.45L79.3 22.7L79.1 22.35L79.1 22.3L79.3 22.45L79.5 22.5L79.1 21.85L78.9 21.5L78.9 21.45L78.95 21.5L79.25 21.65L78.95 21.4L78.9 21.3L79.1 21.4L78.75 20.45L78.4 19.45L78.45 19.45L79 20.4L79.1 20.5L79.05 20.4L78.7 19.4L79.3 20.45L80.55 22.75L80.9 23.3L80.5 22.4L81.35 23.65L81.05 22.5L81.45 23.55L81.7 24.1L81.65 24L81.65 24.15L81.6 23.95L81.55 23.9L81.55 24.1L81.65 24.5L81.7 24.55L81.7 24.6L81.75 24.75L81.75 24.8L81.55 24.5L81.45 24.5L81.45 24.7L81.65 25.15L81.65 25.2L81.75 25.4L81.85 25.55L81.6 25.65L81.75 25.8Q81.55 25.85 81.55 26.5L81.4 26.65L81.6 26.9L81.6 27.05L81.25 27.1L81.25 27.2L81.5 27.5L81.5 27.65L81.1 27.7L81.3 28L81.35 28.05L81.05 28.15L81.25 28.35L80.95 28.55L81.1 28.7L80.95 28.85L81.05 29L80.7 29.25L80.85 29.55L80.85 29.7L80.8 29.65L80.75 29.65L80.75 29.9L80.7 30.2L80.65 30.25L80.6 30.25L80.6 30.15L80.55 30.1L80.5 30.1L80.35 30.85L80.2 32.4L80.15 32.6L80.1 31.85M59.65,29.05L59.65 29.6L59.45 30.2L59.4 30.2L59.4 29.95L59.4 29.65L59.4 29.6L59.65 29.05M59.15,28.75L59.45 28.1L59.4 28.55L59.25 29L59.3 28.95L59.55 28.5L59.45 29.05L59.35 29.5L59.35 29.45L59.2 29.45L59.2 29.35L59.2 29.4L59.2 29.15L59.1 29.1L59.2 28.75L59.15 28.75L59.1 28.7L59.15 28.65L59.15 28.75" />
<path style="fill:#4A3833;fill-opacity:1" d="M79.85,32.3L79.8 31.95L79.9 31.95L79.8 31.6L79.7 31.25L79.75 31.1L79.8 30.95L79.8 30.85L79.7 30.6L79.7 30.45L79.85 30.45L79.8 30.25L79.7 30.1L79.7 29.85L79.85 29.85L79.85 29.8L79.8 29.55L79.65 29.25L79.9 29.25L79.65 28.7L79.6 28.6L79.4 28.3L79.15 27.6L79.25 27.75L79.4 27.85L79.45 27.85L79.45 27.8L79.3 27.35L79.15 26.85L79.4 27.15L78.8 25.55L78.8 25.4L79.35 26.25L79.35 26.2L79 25.05L79.4 25.5L79.15 24.65L79.05 23.95L78.5 22.9L78.8 23.15L79.2 23.45L79.25 23.45L78.35 22.15L78.5 22.25L78.6 22.35L78.3 21.7L78.2 21.6L77.65 21L77.6 20.95L77.5 20.7L77.5 20.5L78.3 21.4L78.9 22.15L78.75 22.1L78.7 22.05L78.65 22L78.65 22.05L78.7 22.05L79.4 23.5L79.5 23.75L79.4 23.7L79.3 23.65L79.2 23.65L79.35 24.15L79.65 25.05L79.5 24.85L79.45 24.85L79.65 25.45L79.9 26.15L79.9 26.2L79.75 26.15L79.65 26.1L79.6 26.1L79.7 26.55L79.9 27.15L79.85 27.15L79.75 27L79.7 27L80 28.05L80 28.1L79.8 28L79.8 28.2L79.95 28.6L80.05 28.95L80 29.15L79.95 29.55L80.1 30.55L80 31.2L79.95 32.6L79.85 32.3" />
<path style="fill:#4A3933;fill-opacity:0.713725" d="M59.8,29.8L59.85 29.8L59.8 29.95L59.8 29.8" />
<path style="fill:#0F0C0B;fill-opacity:1" d="M58.1,21L57.9 21L58.05 20.95L58.25 20.8L58.1 20.7L58 20.65L58.1 20.55L58.2 20.5L58.25 20.5L58.05 20.4L58.15 20.3L58.3 20.25L58.35 20.2L58.05 20L58.25 20L58.3 19.9L58.2 19.8L58.15 19.65L58.3 19.55L58.35 19.45L58.35 19.4L58.25 19.3L58.3 19.3L58.55 19.1L58.55 19.05L58.8 18.85L58.85 18.8L58.9 18.8L59.3 18.5L59.1 18.85L60.25 17.9L60.3 17.9L59.45 18.95L60.6 18.05L58.75 20.3L59.3 19.85L58.6 20.55L58.4 20.7L58.1 21" />
<linearGradient
id="LinearGradID_397" gradientUnits="userSpaceOnUse" gradientTransform="matrix(0.000595093, -0.00219727, 0.00920105, 0.00248718, 72.1, 15.15)" spreadMethod ="pad" x1="-819.2" y1="0" x2="819.2" y2="0" >
<stop  offset="0" style="stop-color:#2E2F2D;stop-opacity:1" />
<stop  offset="0.992157" style="stop-color:#565550;stop-opacity:1" />
</linearGradient>
<path style="fill:url(#LinearGradID_397) " d="M77,15.05L76.9 15.15L76.9 14.5L77.2 14.25L77.25 14.25L77.3 14.1L77.2 14.65L77.3 15.05L77.4 15L77.8 15.8L77.9 16.05L77.9 15L78.15 15.15L78.4 15.4L79 16L79.05 16L78.9 15.7L78.8 15.4L80.05 16.15L80.3 16.25L80.2 16.45L80.45 16.5L80.4 16.65L80.35 16.85L80.6 17L80.85 17.05L80.85 17.35L81 17.4L80.9 17.65L81.2 17.75L81.15 17.95L81.1 17.9L80.45 17.25L80.2 17L79.75 16.4L79.35 16.05L79.35 16.1L79.55 16.55L79.75 16.95L79.7 16.95L78.8 16L78.8 16.25L79.15 16.8L79.3 17.15L79.3 17.4L79.15 17.25L78.65 16.55L78.15 15.85L78.6 17.15L78.6 17.5L78.4 17.15L78.15 16.6L77.7 15.95L77.6 15.95L77.5 16.3L77.4 16.5L77.3 16.6L77.3 16.45L77.2 15.65L77.1 15.65L76.9 16L76.9 15.25L77 15.05M76.9,14.1L76.9 13.7L76.95 13.7L77.05 13.7L77.05 13.9L76.9 14.1M61.55,15.5L62.25 14.8L62.25 14.95L62.25 15.25L62.1 15.35L61.8 15.55L62.25 14.95L61.55 15.5M61.9,15.85L62.1 15.65L62.25 15.5L62.25 15.6L61.9 15.85" />
<linearGradient
id="LinearGradID_398" gradientUnits="userSpaceOnUse" gradientTransform="matrix(0.001297, -0.001297, 0.00862122, 0.00862122, 71.4, 18.65)" spreadMethod ="pad" x1="-819.2" y1="0" x2="819.2" y2="0" >
<stop  offset="0" style="stop-color:#171413;stop-opacity:1" />
<stop  offset="1" style="stop-color:#292C2A;stop-opacity:1" />
</linearGradient>
<path style="fill:url(#LinearGradID_398) " d="M79.1,21.4L78.9 21.3L78.95 21.4L78.8 21.3L78.6 21.15L78.3 20.85L78.3 20.65L78.4 20.65L78.25 20.55L78.25 20.4L77.9 19.1L77.6 18.3L77.55 18.3L77.55 19.15L77.55 19.3L77.45 19.2L77.45 19.15L76.9 17.1L76.9 16L77.1 15.65L77.2 15.65L77.3 16.45L77.3 16.6L77.4 16.5L77.5 16.3L77.6 15.95L77.7 15.95L78.15 16.6L78.4 17.15L78.6 17.5L78.6 17.15L78.15 15.85L78.65 16.55L79.15 17.25L79.3 17.4L79.3 17.15L79.15 16.8L78.8 16.25L78.8 16L79.7 16.95L79.75 16.95L79.55 16.55L79.35 16.1L79.35 16.05L79.75 16.4L80.2 17L80.45 17.25L81.1 17.9L81.15 17.95L81.15 18.1L81.25 18.1L81.35 18.2L81.3 18.25L81.3 18.3L81.35 18.4L81.55 18.55L81.5 18.85L80.85 18.3L80.95 18.5L81.05 18.6L81.25 18.9L81.3 19L81.05 18.75L80.05 17.9L80.85 18.95L79.7 18.05L81.45 20.1L81.5 20.1L81.6 20.3L81.5 20.2L81.2 20.1Q79.85 19.05 80.55 19.8L81.6 20.65L81.95 20.75L81.9 20.8L82.05 20.95L82.15 21L81.95 21L81.95 21.05L82.25 21.35L82 21.35L82.05 21.55L82.25 21.65L82.25 21.7L81.95 21.7L81.65 21.4L81 20.85L81.65 21.7L81.85 22L81.85 22.05L81.65 21.95L81.05 21.35L81.05 21.45L81.3 22L79.25 19.3L80.3 21.05L80.3 21.2L78 18.1L78.4 18.85L77.5 18L77.45 18L78.75 20.45L79.1 21.4M76.9,15.25L76.9 15.15L77 15.05L76.9 15.25M81.65,22.45L81.5 22.25L81.65 22.4L81.7 22.5L81.65 22.45M62.25,14.95L61.8 15.55L62.1 15.35L62.25 15.25L62.25 15.5L62.1 15.65L61.9 15.85L62.25 15.6L62.25 17.15L60.7 18.35L61.25 17.75L60.7 18.1L60.8 18L61.1 17.75L61.5 17.05L61.45 17L62.1 16.2L61.8 16.4L61.55 16.6L59.25 18.05L60.9 16.75L61.35 16.35L61.75 15.95L61.95 15.65L61.8 15.8L61.75 15.8L60.75 16.4L60.25 16.75L60.55 16.45L60.65 16.35L60.8 16.25L61.05 16L60.85 16.05L59.75 16.8L59.75 16.65L59.65 16.5L59.9 16.45L59.85 16.25L59.8 16.1L60.25 16L60.15 15.8L60.45 15.65L60.7 15.55L60.6 15.5L61.05 15.3L60.8 15.2L61.45 15.05L61.35 14.9L61.35 14.85L61.75 14.75L61.65 14.6Q61.75 14.45 61.95 14.45L62.25 14.45L62.25 14.8L61.55 15.5L62.25 14.95M62.25,17.45L62.25 17.85L60.8 18.95L62.25 17.45" />
<linearGradient
id="LinearGradID_399" gradientUnits="userSpaceOnUse" gradientTransform="matrix(0.00186157, -0.00151062, 0.00160217, 0.00198364, 63.4, 18.45)" spreadMethod ="pad" x1="-819.2" y1="0" x2="819.2" y2="0" >
<stop  offset="0" style="stop-color:#1B1B1E;stop-opacity:1" />
<stop  offset="1" style="stop-color:#4E4F4B;stop-opacity:1" />
</linearGradient>
<path style="fill:url(#LinearGradID_399) " d="M60,21.05L61.1 19.3L59.2 21.75L59.25 21.55L59.3 21.35L58.5 22.05L58.5 22L59.3 20.85L58.35 21.65L58.2 21.85L58.15 21.7L57.9 21.7L57.9 21.65L58.05 21.55L58.15 21.35L57.9 21.35L58.2 21.05L58.15 21L58.1 21L58.4 20.7L58.6 20.55L59.3 19.85L58.75 20.3L60.6 18.05L59.45 18.95L60.3 17.9L60.25 17.9L59.1 18.85L59.3 18.5L58.9 18.8L58.85 18.8L58.8 18.85L58.55 19.05L58.55 19L58.4 18.95L58.55 18.85L58.7 18.85L58.6 18.55Q58.7 18.4 58.8 18.4L58.85 18.3L58.8 18.25L58.75 18.2L58.9 18.1L59 18.1L58.95 17.9L58.9 17.75L59.25 17.65L59.1 17.4L59.3 17.35L59.25 17.05L59.5 17L59.55 16.9Q59.6 16.8 59.7 16.85L59.75 16.85L59.75 16.8L60.85 16.05L61.05 16L60.8 16.25L60.65 16.35L60.55 16.45L60.25 16.75L60.75 16.4L61.75 15.8L61.8 15.8L61.95 15.65L61.75 15.95L61.35 16.35L60.9 16.75L59.25 18.05L61.55 16.6L61.8 16.4L62.1 16.2L61.45 17L61.5 17.05L61.1 17.75L60.8 18L60.7 18.1L61.25 17.75L60.7 18.35L62.25 17.15L62.25 17.45L60.8 18.95L62.25 17.85L62.25 18.2L62.25 18.55L61.85 18.85L62.25 18.2L60 21.05M61.35,21.4L61.25 21.4L61.5 20.55L62.25 19.1L62.25 20.5L61.35 21.4" />
<radialGradient
id="RadialGradID_400" gradientUnits="userSpaceOnUse" gradientTransform="matrix(0.0164032, 0, 0, 0.0164032, 70.8, 20.9)" spreadMethod ="pad" cx="0" cy="0" r="819.2" fx="0" fy="0" >
<stop  offset="0.219608"  style="stop-color:#795444;stop-opacity:1" />
<stop  offset="1"  style="stop-color:#875F4F;stop-opacity:0.560784" />
</radialGradient>
<path style="fill:url(#RadialGradID_400) " d="M79.75,34.2L79.6 34.65L79.6 34.7L79.55 34.8L79.45 35.05L79.5 35.15L79.3 35.6L79.35 35.05L79.5 32.2L79.35 31.8L79.4 31.75L79.4 31.8L79.5 31.95L79.5 31.65L79.4 31.25L79.35 30.95L79.5 31.3L79.55 31.3L79.55 30.95L79.5 30.85L79.5 30.7L79.45 30.6L79.55 30.6L79.55 30.35L79.45 30.1L79.45 29.95L79.5 29.85L79.5 29.8L79.4 29.5Q79.35 29.2 79.45 29.15L79.15 28.55L78.8 28.15L78.55 27.45L78.35 26.55L78.4 26.55L78.7 27.1L78.4 26.05L78.45 26L78.7 26.4L78.8 26.6L78.8 26.5L78.55 25.85L78.4 25.2L78.65 25.45L78.65 25.4L78.55 24.8L78.4 24.3L78.55 24.5L78.75 24.65L78.15 23.25L78.35 23.3L78 22.8L77.7 22.4L77.7 22.35L77.85 22.4L77.95 22.45L77.9 22.4L77.75 22.15L77.6 21.85L77.75 21.9L77.05 21.3L76.9 21.2L76.9 20.7L77.55 21.1L77.1 20.7L76.9 20.55L76.9 20.45L77.6 20.95L77.65 21L78.2 21.6L78.3 21.7L78.6 22.35L78.5 22.25L78.35 22.15L79.25 23.45L79.2 23.45L78.8 23.15L78.5 22.9L79.05 23.95L79.15 24.65L79.4 25.5L79 25.05L79.35 26.2L79.35 26.25L78.8 25.4L78.8 25.55L79.4 27.15L79.15 26.85L79.3 27.35L79.45 27.8L79.4 27.85L79.25 27.75L79.15 27.6L79.4 28.3L79.6 28.6L79.65 28.7L79.9 29.25L79.65 29.25L79.8 29.55L79.85 29.8L79.85 29.85L79.7 29.85L79.7 30.1L79.8 30.25L79.85 30.45L79.7 30.45L79.7 30.6L79.8 30.85L79.8 30.95L79.75 31.1L79.7 31.25L79.8 31.6L79.9 31.95L79.8 31.95L79.85 32.3L79.95 32.6L79.75 33.75Q79.9 33.1 80.05 33.2L80.05 33.25L79.95 33.7L79.95 33.8L79.9 33.95L79.75 34.2M61.3,26.65L61.35 26.6L61.45 26.4L61.7 26L61.7 26.05L61.45 27.1L61.75 26.65L61.55 27.45L61.35 28.15L61.05 28.55L60.7 29.15L60.7 29.5L60.6 29.8L60.65 29.85L60.7 29.95L60.7 30.1L60.6 30.35L60.6 30.6L60.65 30.6L60.65 30.7L60.6 30.85L60.6 31.3L60.75 30.95L60.75 31.25L60.6 31.65L60.6 31.95L60.65 31.95L60.7 31.8L60.75 31.75L60.75 31.8L60.65 32.1L60.5 32.6L60.65 33.9L60.9 35.1L60.9 35.45L60.55 34.65L60.25 33.9L60.1 33.25L60.1 33.2Q60.25 33.05 60.4 33.75L60.2 32.6L60.25 32.3L60.35 31.95L60.2 31.95L60.35 31.6L60.4 31.25L60.35 31.1L60.3 30.95L60.35 30.85L60.4 30.6L60.4 30.45L60.25 30.45L60.35 30.25L60.4 30.1L60.4 29.85L60.25 29.85L60.25 29.8L60.35 29.55L60.5 29.25L60.2 29.25L60.5 28.7L60.55 28.6L60.7 28.3L61.05 27.6L60.9 27.75L60.7 27.85L60.7 27.8L60.85 27.35L61.05 26.85L60.75 27.15L61.3 25.55L61.3 25.5L60.8 26.25L60.8 26.2L61.15 25.05L60.75 25.5L60.95 24.65L61.05 24.55L61.1 24.4L61.15 24.25L61.2 24.05L61.05 24.2L60.9 24.4L60.9 24.3L60.95 24.15L61.15 23.9L61.65 22.9L61.3 23.15L60.9 23.45L60.9 23.4L61.8 22.15L61.65 22.25L61.5 22.35L61.9 21.6L61.95 21.55L62.2 21.3L62.2 21.25L62.25 21.25L62.25 22.35L62.2 22.5L62.25 22.5L62.25 22.65L62.1 22.8L61.8 23.3L61.7 23.7L61.7 23.75L61.4 24.65L61.6 24.5L61.75 24.3L61.6 24.8L61.45 25.4L61.45 25.45L61.5 25.45L61.7 25.2L61.75 25.2L61.55 25.85L61.3 26.6L61.3 26.65" />
<radialGradient
id="RadialGradID_401" gradientUnits="userSpaceOnUse" gradientTransform="matrix(0.0201721, 0, 0, 0.0201721, 70.1, 23.1)" spreadMethod ="pad" cx="0" cy="0" r="819.2" fx="0" fy="0" >
<stop  offset="0.219608"  style="stop-color:#FCA783;stop-opacity:1" />
<stop  offset="1"  style="stop-color:#FFDEC2;stop-opacity:0.713725" />
</radialGradient>
<path style="fill:url(#RadialGradID_401) " d="M79.9,33.95L79.7 34.8L79.6 34.7L79.6 34.65L79.75 34.2L79.9 33.95M79.35,31.8L79.5 32.2L79.35 35.05L79.3 35.6L79.2 35.75L79.2 33.3L79.25 32.95L79.2 32.05L79.2 31.05L79.05 29.2L78.25 27.55L78.15 26.8Q78.05 23.85 77.4 22.7L76.9 22.1L76.9 21.2L77.05 21.3L77.75 21.9L77.6 21.85L77.75 22.15L77.9 22.4L77.85 22.4L77.7 22.35L77.7 22.4L78 22.8L78.35 23.3L78.15 23.25L78.75 24.65L78.55 24.5L78.4 24.3L78.55 24.8L78.65 25.4L78.65 25.45L78.4 25.2L78.55 25.85L78.8 26.5L78.8 26.6L78.7 26.4L78.45 26L78.4 26L78.4 26.05L78.7 27.1L78.4 26.55L78.35 26.55L78.55 27.45L78.8 28.15L79.15 28.55L79.45 29.15Q79.35 29.2 79.4 29.5L79.5 29.8L79.5 29.85L79.45 29.95L79.45 30.1L79.55 30.35L79.55 30.6L79.45 30.6L79.5 30.7L79.5 30.85L79.55 30.95L79.55 31.3L79.5 31.3L79.35 30.95L79.4 31.25L79.5 31.65L79.5 31.95L79.4 31.8L79.4 31.75L79.35 31.75L79.35 31.8M62.25,22.35L62.25 22.5L62.2 22.5L62.25 22.35M61.45,27.1L61.7 26.05L61.7 26L61.45 26.4L61.35 26.6L61.3 26.6L61.55 25.85L61.75 25.2L61.75 25.15L61.7 25.2L61.5 25.45L61.45 25.4L61.6 24.8L61.75 24.3L61.6 24.5L61.4 24.65L61.7 23.75L61.7 23.7L61.8 23.3L62.1 22.8L62.25 22.65L62.25 23.1L62.5 23.1Q62.05 24.3 62 26.8L61.9 27.55Q61.45 28.2 61.15 29.2Q60.8 30.2 60.9 31.05Q61.1 31.9 60.8 32.65L60.75 32.9L60.75 33.05L60.9 35.1L60.65 33.9L60.5 32.6L60.65 32.1L60.75 31.8L60.75 31.75L60.7 31.8L60.65 31.95L60.6 31.95L60.6 31.65L60.75 31.25L60.75 30.95L60.6 31.3L60.6 30.85L60.65 30.7L60.65 30.6L60.6 30.6L60.6 30.35L60.7 30.1L60.7 29.95L60.65 29.85L60.6 29.8L60.7 29.5L60.7 29.15L61.05 28.55L61.35 28.15L61.55 27.45L61.75 26.65L61.45 27.1M61.8,26.55L61.75 26.55L61.75 26.65L61.8 26.55" />
<radialGradient
id="RadialGradID_402" gradientUnits="userSpaceOnUse" gradientTransform="matrix(0.160599, 0, 0, 0.160599, 55.65, 27.75)" spreadMethod ="pad" cx="0" cy="0" r="819.2" fx="0" fy="0" >
<stop  offset="0.219608"  style="stop-color:#795444;stop-opacity:1" />
<stop  offset="1"  style="stop-color:#875F4F;stop-opacity:0.560784" />
</radialGradient>
<path style="fill:url(#RadialGradID_402) " d="M78.4,26L78.45 26L78.4 26.05L78.4 26M61.7,25.2L61.75 25.15L61.75 25.2L61.7 25.2" />
<linearGradient
id="LinearGradID_403" gradientUnits="userSpaceOnUse" gradientTransform="matrix(0.000167847, -0.000656128, 0.00354004, 0.000946045, 74.85, 13.3)" spreadMethod ="pad" x1="-819.2" y1="0" x2="819.2" y2="0" >
<stop  offset="0" style="stop-color:#302C2B;stop-opacity:1" />
<stop  offset="0.992157" style="stop-color:#948D89;stop-opacity:1" />
</linearGradient>
<path style="fill:url(#LinearGradID_403) " d="M77.05,13.9L77.2 13.95L77.55 14Q77.4 14.2 77.55 14.25L77.8 14.25L77.8 14.45L78.15 14.45L78.45 14.55L78.5 14.6L78.4 14.75L78.75 14.85L78.75 14.9L78.65 15.05L79.3 15.2L79.15 15.3L79.5 15.5L79.45 15.55L79.7 15.65L79.95 15.75L80 15.8L79.95 15.8L79.85 16L80 16L80.3 16.1L80.3 16.25L80.05 16.15L78.8 15.4L78.9 15.7L79.05 16L79 16L78.4 15.4L78.15 15.15L77.9 15L77.9 16.05L77.8 15.8L77.4 15L77.3 15.05L77.2 14.65L77.3 14.1L77.25 14.25L77.2 14.25L76.9 14.5L76.9 14.1L77.05 13.9" />
<linearGradient
id="LinearGradID_404" gradientUnits="userSpaceOnUse" gradientTransform="matrix(0.000320435, -0.0012207, 0.00590515, 0.00158691, 71.3, 19.1)" spreadMethod ="pad" x1="-819.2" y1="0" x2="819.2" y2="0" >
<stop  offset="0" style="stop-color:#2A2725;stop-opacity:1" />
<stop  offset="1" style="stop-color:#4F4446;stop-opacity:1" />
</linearGradient>
<path style="fill:url(#LinearGradID_404) " d="M76.9,20.05L76.9 19.9L77 19.8L76.9 19.85L76.9 17.1L77.45 19.15L77.45 19.2L77.55 19.3L77.55 19.15L77.55 18.3L77.6 18.3L77.9 19.1L78.25 20.4L78.25 20.55L76.9 20.05M78,20.55L78.05 20.55L78.3 20.65L78.3 20.85L78 20.55" />
<path style="fill:#1A1A1A;fill-opacity:1" d="M59.4,29.6L59.35 29.6L59.35 29.5L59.45 29.05L59.55 28.5L59.3 28.95L59.25 29L59.4 28.55L59.45 28.1L59.15 28.75L59.15 28.65L59.15 28.6L59.15 28.5L59.2 28.25L59.25 28L59.3 27.6L59.45 26.95L59.45 26.7L59.25 26.85L59.25 26.95L59.15 27L59.4 26.3L59.5 26.05L59.55 25.75L59.4 25.9L59.25 26.05L59.35 25.8L59.65 25.1L59.75 24.7L59.4 25L59.9 23.9L59.9 24.2L60.5 23L60.4 23.6L60.5 23.3L61.2 21.75L61.35 21.4L62.25 20.5L62.25 21.25L62.2 21.25L62.2 21.3L62 21.35L61.9 21.45L61.75 21.6L61.85 21.45L61.95 21.3L62.1 20.95L61.8 21.3L60.8 22.85L61.1 22.7L60.45 24.05L60.25 24.45L60.2 24.55L60.3 24.45L60.75 23.85L60.4 24.75L59.95 25.55L60.35 25.05L60.4 25.05L59.85 26.3L60.5 25.4L60.6 25.3L60.15 26.45L59.75 27.4L60.2 26.75L60.05 27.35L59.75 28.05L59.95 27.75L60.2 27.4L59.8 28.55L59.8 28.6L59.75 28.75L60.2 28.1L60.05 28.8L59.85 29.75L59.95 29.55L60.1 29.25L59.95 30.05L59.8 30.85L60.05 30.65L60.1 30.65L60.1 31L60 31.8L59.95 32.4L59.9 32.4L59.75 30.85L59.65 30.6L59.6 30.1L59.5 30.25L59.45 30.25L59.45 30.2L59.65 29.6L59.65 29.05L59.4 29.6M59.15,28.75L59.1 28.8L59.15 28.75M59.8,29.95L59.85 29.8L59.8 29.8L59.8 29.95" />
<path style="fill:#2E2827;fill-opacity:1" d="M61.95,21.55L61.9 21.6L61.5 22.35L61.65 22.25L61.8 22.15L60.9 23.4L60.9 23.45L61.3 23.15L61.65 22.9L61.15 23.9L60.95 24.15L60.9 24.3L60.9 24.4L61.05 24.2L61.2 24.05L61.15 24.25L61.1 24.4L61.05 24.55L60.95 24.65L60.75 25.5L61.15 25.05L60.8 26.2L60.8 26.25L61.3 25.5L61.3 25.55L60.75 27.15L61.05 26.85L60.85 27.35L60.7 27.8L60.7 27.85L60.9 27.75L61.05 27.6L60.7 28.3L60.55 28.6L60.5 28.7L60.2 29.25L60.5 29.25L60.35 29.55L60.25 29.8L60.25 29.85L60.4 29.85L60.4 30.1L60.35 30.25L60.25 30.45L60.4 30.45L60.4 30.6L60.35 30.85L60.3 30.95L60.35 31.1L60.4 31.25L60.35 31.6L60.2 31.95L60.35 31.95L60.25 32.3L60.2 32.6L60.4 33.75Q60.25 33.05 60.1 33.2L59.95 32.45L59.95 32.4L60 31.8L60.1 31L60.1 30.65L60.05 30.65L59.8 30.85L59.95 30.05L60.1 29.25L59.95 29.55L59.85 29.75L60.05 28.8L60.2 28.1L59.75 28.75L59.8 28.6L59.8 28.55L60.2 27.4L59.95 27.75L59.75 28.05L60.05 27.35L60.2 26.75L59.75 27.4L60.15 26.45L60.6 25.3L60.5 25.4L59.85 26.3L60.4 25.05L60.35 25.05L59.95 25.55L60.4 24.75L60.75 23.85L60.3 24.45L60.2 24.55L60.25 24.45L60.45 24.05L61.1 22.7L60.8 22.85L61.8 21.3L62.1 20.95L61.95 21.3L61.85 21.45L61.75 21.6L61.9 21.45L62 21.35L62.2 21.3L61.95 21.55" />
<path style="fill:#303030;fill-opacity:1" d="M61.2,21.75L60.5 23.3L60.4 23.6L60.5 23L59.9 24.2L59.9 23.9L59.4 25L59.75 24.7L59.65 25.1L59.35 25.8L59.25 26.05L59.4 25.9L59.55 25.75L59.5 26.05L59.4 26.3L59.15 27L59.25 26.95L59.25 26.85L59.45 26.7L59.45 26.95L59.3 27.6L59.25 28L59.2 28.25L59.15 28.5L58.9 28.5L58.8 28.05L59 27.8L58.75 27.8L58.7 27.45L58.85 27.2L58.65 27.2L58.55 26.9L58.65 26.65L58.5 26.55L58.7 26.3L58.65 26.25L58.55 26.2L58.5 26.15L58.35 26.05L58.4 25.85L58.55 25.65L58.5 25.65L58.85 24.7L58.85 24.5L58.8 24.5L58.55 24.8L58.8 24.1L58.8 23.9L58.75 23.95Q58.55 24.15 58.8 23.8L59.25 22.5L58.95 23.65L59.75 22.4L59.4 23.3L60.95 20.65L61.6 19.4L61.3 20.45L61.85 19.45L61.5 20.55L61.25 21.4L61.35 21.4L61.2 21.75" />
<radialGradient
id="RadialGradID_405" gradientUnits="userSpaceOnUse" gradientTransform="matrix(0.0276031, 0, 0, 0.0276031, 68, 16.9)" spreadMethod ="pad" cx="0" cy="0" r="819.2" fx="0" fy="0" >
<stop  offset="0"  style="stop-color:#C74C00;stop-opacity:1" />
<stop  offset="1"  style="stop-color:#FCDBBF;stop-opacity:0" />
</radialGradient>
<path style="fill:url(#RadialGradID_405) " d="M65.8,15Q67.65 14.2 70.65 14.2Q75.2 14.2 77.25 15.8Q78.4 16.65 79.3 18Q80.25 19.45 80.25 20.5Q80.25 21.95 79.75 23.3Q79.25 24.7 78.75 24.75L78.5 24.75L78.5 24L78.15 24.35L77.8 24.5L77.8 24.05L77.45 24.4L77.4 24L77.4 24.05L77.1 24.7L77.05 24.25L76.55 24.9L76.55 24.2L76.15 24.85L76.1 23.95L75.85 24.5L75.85 24.35L75.8 24.4L75.75 23.55L75.6 24.1L75.6 23.15L75.55 23.15Q75.4 24.15 75.05 24.65L75.05 24L74.85 24.2L74.85 24.1L74.85 24.25L74.75 24.3L74.7 23.55L74.55 24.2L74.45 24.15L74.45 24.1L74.4 23.6L74.35 23.6L73.95 24.75L73.95 24.2L73 25.2L73 25.15L73.1 24.9L73.1 24.35L73.05 24.35L72.2 25.55L72.05 25.4L71.65 26L71.6 24.9L71.55 24.9L71.15 25.9L71.15 24.9L71.1 24.9L70.95 25.85L70.7 25.7L70.65 25L70.6 25L70.4 25.6L70.4 24.5L70.35 24.5L70.1 25.45L70 25.45L69.9 24.95L69.65 25.45L69.5 25.05L69.15 25.5L68.45 25L68.3 24.2L68.3 24.25L68.05 24.5L67.8 23.25L67.75 23.9L67.65 24.55L67.6 24.45L67.5 23.4L67.3 24.5L67.25 24.5L67 23.9L66.95 24.2L66.9 24.2L66.8 23.95L66.75 24L66.55 24.25L66.3 23.55L66.25 23.55L66.1 24.2L66 24.55L65.85 24.4L65.85 24.65L65.8 24.05L65.7 24.55L65.65 24.55L65.55 23.7L65.5 23.7L65.35 24.4L65.25 24.45L65.15 23.2L64.85 24.2L64.65 22.95L64.5 24L64.4 22.85L64.1 24.15L64.05 24.05L63.95 25.15L63.7 24L63.65 24L63.45 24.4L63.1 24.75L62.75 23.95L62.6 24.75L62.3 23.95L61.9 24.6L61.75 24.15L61.7 24.2L61.65 24.5L61.4 24.25L61 24L60.75 23.75Q60.35 23.25 60.35 22.8L60.55 22.2L60.85 21Q60.85 20.3 62.2 18.25Q63.65 15.95 65.8 15" />
<linearGradient
id="LinearGradID_406" gradientUnits="userSpaceOnUse" gradientTransform="matrix(0.00106812, 0, 0, 0.00318909, 81.55, 18)" spreadMethod ="pad" x1="-819.2" y1="0" x2="819.2" y2="0" >
<stop  offset="0" style="stop-color:#402E44;stop-opacity:1" />
<stop  offset="0.894118" style="stop-color:#553950;stop-opacity:1" />
</linearGradient>
<path style="fill:url(#LinearGradID_406) " d="M81.95,19.1L81.9 19.1L81.85 19.6L81.8 20.05L81.65 18.9L81.5 17.75L81.35 19.5L81.3 18.3L80.95 16.8L80.95 17.45L80.85 18.05L80.7 15.8L80.65 15.45L80 14.3L80.75 15.25L80.85 15.5L82.4 16.95Q81.9 16.45 81.5 16.5L82.25 17.4Q81.8 16.95 81.3 16.85L82 17.65Q82.65 19.15 82.2 20.65L82.05 19.85L82.05 20.05L82 20.05L81.95 19.1" />
<linearGradient
id="LinearGradID_407" gradientUnits="userSpaceOnUse" gradientTransform="matrix(-0.000564575, 0.00210571, -0.00314331, -0.000823975, 81.45, 20.2)" spreadMethod ="pad" x1="-819.2" y1="0" x2="819.2" y2="0" >
<stop  offset="0" style="stop-color:#3A2740;stop-opacity:1" />
<stop  offset="0.894118" style="stop-color:#553950;stop-opacity:1" />
</linearGradient>
<path style="fill:url(#LinearGradID_407) " d="M80.95,21.55L80.95 21.25L81.35 19.6L81.35 19.5L81.5 17.75L81.65 18.9L81.8 20.05L81.85 19.6L81.9 19.1L81.95 19.1L82 20.05L82 20.1Q81.95 21.3 81.45 22.05L81.5 21.6L81.25 22.2L81.1 22.75L81.15 21.8L80.85 22.9L80.95 21.55M81.8,20.2L81.8 20.05L81.75 20.2L81.8 20.2" />
<linearGradient
id="LinearGradID_408" gradientUnits="userSpaceOnUse" gradientTransform="matrix(0.00038147, 0.00517273, -0.00151062, 0.000106812, 80, 17.05)" spreadMethod ="pad" x1="-819.2" y1="0" x2="819.2" y2="0" >
<stop  offset="0" style="stop-color:#5A3850;stop-opacity:1" />
<stop  offset="0.458824" style="stop-color:#9A737A;stop-opacity:1" />
<stop  offset="0.988235" style="stop-color:#5A3850;stop-opacity:1" />
</linearGradient>
<path style="fill:url(#LinearGradID_408) " d="M80.55,18.85L80.4 17.9L79.7 16.05L80.1 16.55L80.55 17.5L80.2 16.05L79.85 14.8L79.9 15.2L79.9 15.55L79.85 15.55L79.55 15L79.3 14.5L79.25 14.35L78.45 12.9L79.05 13.4L79.45 14L79.25 13.5L79.05 12.95L79.65 13.95L79.65 13.85L79.55 13.4L79.45 13.2L80.75 15.25L80 14.3L80.65 15.45L80.7 15.8L80.85 18.05L80.95 17.45L80.95 16.8L81.3 18.3L81.35 19.5L81.35 19.6L80.95 21.25Q80.95 19.9 80.55 18.85" />
<linearGradient
id="LinearGradID_409" gradientUnits="userSpaceOnUse" gradientTransform="matrix(0.000137329, 0.00187683, -0.00204468, 0.000137329, 73.85, 11)" spreadMethod ="pad" x1="-819.2" y1="0" x2="819.2" y2="0" >
<stop  offset="0" style="stop-color:#2D1C2E;stop-opacity:1" />
<stop  offset="0.360784" style="stop-color:#53364A;stop-opacity:1" />
</linearGradient>
<path style="fill:url(#LinearGradID_409) " d="M71.2,9.9L70.9 9.5L70.6 9L71.15 8.55L71.95 8.35L72.7 8.55Q72.95 8.15 72.3 7.9Q72.75 7.95 73.1 8.25L73.7 9L74.75 9.2L74.8 9.2L75 9.35L75.05 9.6L75.25 10.1L74.85 9.7L74.8 9.65L74.85 9.75L75.05 10.25L75.15 10.55L75.15 10.7L74.6 9.9L74.6 9.95L74.85 10.85L74.8 11.1L73.85 9.45L73.8 9.4L73.8 9.45L74.25 10.9L74.2 11.25L73.85 10.45L73.4 9.75L73.4 9.65L73.35 9.65L73.4 9.75L73.4 10.5L72.8 9.6L72.8 9.7L72.75 10.2L72.45 9.7L72.05 9.2L72.05 9.85L71.9 9.75L72.05 9.9L72 10.7L71.9 10.65L71.4 9L71.45 9.7L71.4 10.2L71.2 9.9" />
<path style="fill:#16132F;fill-opacity:1" d="M70.45,9.4L69.95 9.4L70.3 8.55Q70 8.65 69.85 8.8L69.55 9.4L69.05 9.25L68.9 9.2L68.85 9.2L67.25 9.4L67 9.55L67.25 9.5L69.55 9.75Q68.55 9.45 67.65 10Q68.6 9.6 69.45 10Q67.75 9.8 67 11.15L66.7 11.3L67 10.55L66.6 10.9L66.3 11.1L66.3 11.05L66.65 10.4L66.15 10.85L66.15 10.75L66.15 10.45L66.05 10.55L65.9 10.25L65.9 10.2L66.5 9.55Q66.85 9.2 67.25 9Q67.8 8.7 68.35 8.75L68.85 8.4L69.8 7.75L70.6 7.55Q70.1 7.7 69.8 7.95L69.4 8.55L69.8 8.25Q70.2 7.9 70.75 7.85L70.45 8L69.9 8.5L70.85 8L71.4 7.95L71.3 8.1L71 8.3Q70.65 8.6 70.55 9L70.45 9.2L70.45 9.4" />
<linearGradient
id="LinearGradID_410" gradientUnits="userSpaceOnUse" gradientTransform="matrix(0.00323486, 0, 0, 0.00222778, 74.15, 10.25)" spreadMethod ="pad" x1="-819.2" y1="0" x2="819.2" y2="0" >
<stop  offset="0" style="stop-color:#61405C;stop-opacity:1" />
<stop  offset="1" style="stop-color:#9A6F79;stop-opacity:1" />
</linearGradient>
<path style="fill:url(#LinearGradID_410) " d="M73.4,10.55L72.8 9.7L72.8 9.6L73.4 10.5L73.4 10.55M73.4,9.75L73.35 9.65L73.4 9.65L73.4 9.75M73.8,9.45L73.8 9.4L73.85 9.45L73.8 9.45M75.3,10.2L75.25 10.1L75.3 10.15L75.3 10.2" />
<linearGradient
id="LinearGradID_411" gradientUnits="userSpaceOnUse" gradientTransform="matrix(0.00349426, 0, 0, 0.00341797, 77.9, 12.75)" spreadMethod ="pad" x1="-819.2" y1="0" x2="819.2" y2="0" >
<stop  offset="0" style="stop-color:#19102B;stop-opacity:1" />
<stop  offset="1" style="stop-color:#5A3850;stop-opacity:1" />
</linearGradient>
<path style="fill:url(#LinearGradID_411) " d="M77.05,10.9L78 11.3L77.4 11.3L77.85 11.5Q78.3 11.7 78.4 11.8L77.65 11.8L77.65 11.85L79 12.25L79.7 12.65L79.3 12.6L80.8 15.25L80.75 15.25L79.45 13.2L79.55 13.4L79.65 13.85L79.65 13.95L79.05 12.95L79.25 13.5L79.45 14L79.05 13.4L78.45 12.9L78.4 12.9L78.8 14Q78.1 12.7 77.05 12.05L77 12L78 14.15Q77.25 12.7 76.25 11.9Q77.65 14.1 77.95 15.55Q77.15 13.6 75.7 11.9L75.5 11.65L75.4 11.55L75.35 11.5L74.35 10.9L75.35 12.05L74.2 11.25L74 11.1L75 12.2L74.05 12L73.7 11.85L73.65 12.2L73.15 11.55L73.3 11.65L73.2 11.55L73.15 11.55L71.65 10.8L71.4 10.2L71.45 9.7L71.4 9L71.9 10.65L72 10.7L72.05 9.9L71.9 9.75L72.05 9.85L72.05 9.2L72.45 9.7L72.75 10.2L72.8 9.7L73.4 10.55L73.4 10.5L73.4 9.75L73.85 10.45L74.2 11.25L74.25 10.9L73.8 9.45L73.85 9.45L74.8 11.1L74.85 10.85L74.6 9.95L74.6 9.9L75.15 10.7L75.15 10.55L75.05 10.25L74.85 9.75L74.85 9.7L75.25 10.1L75.05 9.6L75 9.35L75.2 9.5L75.6 9.4Q76.1 9.35 76.45 9.75L76.9 10.9L77.05 10.9M72.45,10.7L72.5 10.75L72.5 10.7L72.45 10.7M73.15,11.15L73.1 11.1L73.15 11.2L73.15 11.15M75.35,10.2L75.35 10.15L75.3 10.1L75.3 10.15L75.25 10.1L75.3 10.2L75.35 10.2" />
<linearGradient
id="LinearGradID_412" gradientUnits="userSpaceOnUse" gradientTransform="matrix(0.00201416, 0, 0, 0.00187683, 72.25, 10.1)" spreadMethod ="pad" x1="-819.2" y1="0" x2="819.2" y2="0" >
<stop  offset="0" style="stop-color:#19102B;stop-opacity:1" />
<stop  offset="1" style="stop-color:#5A3850;stop-opacity:1" />
</linearGradient>
<path style="fill:url(#LinearGradID_412) " d="M70.45,9.4L70.45 9.2L70.6 9L70.9 9.5L71.2 9.9L70.6 9.25L70.5 9.35L70.45 9.4M74.85,9.75L74.8 9.65L74.85 9.7L74.85 9.75M73.15,11.55L73.2 11.55L73.3 11.65L73.15 11.55M75.3,10.15L75.3 10.1L75.35 10.15L75.35 10.2L75.3 10.2L75.3 10.15" />
<linearGradient
id="LinearGradID_413" gradientUnits="userSpaceOnUse" gradientTransform="matrix(0.00215149, 0, 0, 0.00196838, 70.05, 10.4)" spreadMethod ="pad" x1="-819.2" y1="0" x2="819.2" y2="0" >
<stop  offset="0" style="stop-color:#3C324F;stop-opacity:1" />
<stop  offset="0.556863" style="stop-color:#7D4A5A;stop-opacity:1" />
<stop  offset="0.964706" style="stop-color:#4F3C57;stop-opacity:1" />
</linearGradient>
<path style="fill:url(#LinearGradID_413) " d="M69.95,9.4L70.45 9.4L70.5 9.35L70.6 9.25L71.2 9.9L71.4 10.2L71.65 10.8L71.65 10.9L71.05 10.25L71.35 10.9L70.45 10.25L70.1 10.3L68.95 11.2L69.25 10.7L68.7 11L68.55 11.1Q67.85 11.55 67.6 12L67.85 11.45L67.25 12.05L67.5 11.5Q67 11.85 66.85 12.35L66.9 11.8Q67.8 10.75 68.85 10.2Q68 10.35 67.2 11L67.1 11.05L67 11.15Q67.75 9.8 69.45 10Q68.6 9.6 67.65 10Q68.55 9.45 69.55 9.75L67.25 9.5L67 9.55L67.25 9.4L68.85 9.2L68.9 9.2L69.05 9.25L69.55 9.4L69.95 9.4" />
<linearGradient
id="LinearGradID_414" gradientUnits="userSpaceOnUse" gradientTransform="matrix(0.00137329, 0.00291443, -0.0019989, 0.000930786, 73.7, 12.9)" spreadMethod ="pad" x1="-819.2" y1="0" x2="819.2" y2="0" >
<stop  offset="0" style="stop-color:#120E1D;stop-opacity:1" />
<stop  offset="0.415686" style="stop-color:#684D5A;stop-opacity:1" />
<stop  offset="1" style="stop-color:#1D152F;stop-opacity:1" />
</linearGradient>
<path style="fill:url(#LinearGradID_414) " d="M73.5,13.1L73.5 13.3Q73.6 14 74.1 14.25L73.25 13.85L73.85 14.55L73.15 14.15L73.45 14.7L73.3 14.6L73.05 14.45Q71.9 13.7 71.35 12.75L72.05 13.05L71.05 12.1L72.5 12.75Q71.95 11.95 71.1 11.75Q71.95 11.7 72.8 12.45Q72.2 11.25 70.5 11.1L71.05 10.9L70.45 10.25L71.35 10.9L71.05 10.25L71.65 10.9L71.65 10.8L73.15 11.55L73.65 12.2L73.5 13.1" />
<linearGradient
id="LinearGradID_415" gradientUnits="userSpaceOnUse" gradientTransform="matrix(0.00242615, 0, 0, 0.00370789, 75.05, 14.85)" spreadMethod ="pad" x1="-819.2" y1="0" x2="819.2" y2="0" >
<stop  offset="0" style="stop-color:#110D28;stop-opacity:1" />
<stop  offset="0.988235" style="stop-color:#443046;stop-opacity:1" />
</linearGradient>
<path style="fill:url(#LinearGradID_415) " d="M75.2,12.6L74.3 12.45L74.3 12.5Q75.55 12.75 76.5 13.95L76.55 14Q77.05 15.15 77.05 17.25L77.05 17.55L76.85 17.9L76.7 15.55L76.65 15.4Q76.35 14.3 75.5 13.45L76.15 14.7L75.35 13.65L75.8 14.75L75.1 13.75Q75.75 14.85 75.8 15.65L74.75 13.9L75.3 15.05L74.1 13.65Q74.95 14.85 75.1 15.6L74 14.45L74.6 15.6L73.8 14.7L74.4 15.6L73.55 15L73.05 14.45L73.3 14.6L73.45 14.7L73.15 14.15L73.85 14.55L73.25 13.85L74.1 14.25Q73.6 14 73.5 13.3L73.5 13.1L73.65 12.2L73.7 11.85L74.05 12L75.2 12.6" />
<linearGradient
id="LinearGradID_416" gradientUnits="userSpaceOnUse" gradientTransform="matrix(0.00335693, 0.00717163, -0.00737, 0.00344849, 77.45, 17.55)" spreadMethod ="pad" x1="-819.2" y1="0" x2="819.2" y2="0" >
<stop  offset="0" style="stop-color:#624155;stop-opacity:1" />
<stop  offset="0.290196" style="stop-color:#785965;stop-opacity:1" />
<stop  offset="0.490196" style="stop-color:#5A3850;stop-opacity:1" />
<stop  offset="1" style="stop-color:#3B2433;stop-opacity:1" />
</linearGradient>
<path style="fill:url(#LinearGradID_416) " d="M80.95,21.25L80.95 21.55L80.85 22.9L80.8 22.95L80.55 23.45L80.55 22.75L80.15 23.9L80.15 23.25L79.9 23.85L79.75 23.05L79.75 23.8Q79.35 23.55 79.1 22.6L79.2 23.6Q78.7 22.25 78.8 23.25L78.95 24.15L78.6 22.9L78.6 24.25L78.5 22.5L78.45 22.6L78.6 20.9L78.35 18.85Q78.2 16.35 77.15 15L77.05 17.25Q77.05 15.15 76.55 14L76.5 13.95Q75.55 12.75 74.3 12.5L74.3 12.45L75.2 12.6L74.05 12L75 12.2L74 11.1L74.2 11.25L75.35 12.05L74.35 10.9L75.35 11.5L75.4 11.55L75.5 11.65L75.7 11.9L76.15 12.9L75.55 12.3L77.15 14.7L77.25 14.85L78.5 17.7L78.3 16.6L79 18.3L78.35 15.85L78.8 17.3L78.3 14.65L78.55 15.25L78.6 15.4L79.5 18.3L79.95 20.3L79.45 19.15L79.8 21.55L79.15 19.4L79.25 20.55L78.8 19.7L79 21.65L79.25 22.6L79.25 21.45L79.65 23.15L79.9 21.9L80.2 22.95L80.25 21.45L80.65 22.6Q80.85 22 80.7 20.75L80.7 20.65L80.7 20.6L80.55 19.45L80.3 18.15L80.55 18.85Q80.95 19.9 80.95 21.25" />
<linearGradient
id="LinearGradID_417" gradientUnits="userSpaceOnUse" gradientTransform="matrix(0.00265503, 0, 0, 0.00157166, 79.1, 11.9)" spreadMethod ="pad" x1="-819.2" y1="0" x2="819.2" y2="0" >
<stop  offset="0" style="stop-color:#61405C;stop-opacity:1" />
<stop  offset="1" style="stop-color:#9A6F79;stop-opacity:1" />
</linearGradient>
<path style="fill:url(#LinearGradID_417) " d="M76.9,10.9Q78.6 10.15 79.8 11.7Q79.35 11.35 79 11.45Q80.25 12.15 81.25 13.25L80.75 12.8Q80.05 12.3 79.35 12.2L80.7 12.95L79.7 12.65L79 12.25L77.65 11.85L77.65 11.8L78.4 11.8Q78.3 11.7 77.85 11.5L77.4 11.3L78 11.3L77.05 10.9L76.9 10.9" />
<linearGradient
id="LinearGradID_418" gradientUnits="userSpaceOnUse" gradientTransform="matrix(0.00161743, 0.00283813, -0.00335693, 0.00192261, 77.4, 15.05)" spreadMethod ="pad" x1="-819.2" y1="0" x2="819.2" y2="0" >
<stop  offset="0" style="stop-color:#5B435B;stop-opacity:1" />
<stop  offset="0.458824" style="stop-color:#BA7C7C;stop-opacity:1" />
<stop  offset="0.988235" style="stop-color:#5E455B;stop-opacity:1" />
</linearGradient>
<path style="fill:url(#LinearGradID_418) " d="M79.05,15.3L79.25 16.6L78.45 14.8L78.55 15.25L78.3 14.65L78.8 17.3L78.35 15.85L79 18.3L78.3 16.6L78.5 17.7L77.25 14.85L77.15 14.7L75.55 12.3L76.15 12.9L75.7 11.9Q77.15 13.6 77.95 15.55Q77.65 14.1 76.25 11.9Q77.25 12.7 78 14.15L77 12L77.05 12.05Q78.15 13.4 79.05 15.3" />
<linearGradient
id="LinearGradID_419" gradientUnits="userSpaceOnUse" gradientTransform="matrix(0.000808716, -0.00389099, 0.00553894, 0.00114441, 60.95, 16.9)" spreadMethod ="pad" x1="-819.2" y1="0" x2="819.2" y2="0" >
<stop  offset="0" style="stop-color:#2E1C2A;stop-opacity:1" />
<stop  offset="0.478431" style="stop-color:#704D61;stop-opacity:1" />
<stop  offset="1" style="stop-color:#382234;stop-opacity:1" />
</linearGradient>
<path style="fill:url(#LinearGradID_419) " d="M63.1,13.7L62.5 14.35L62.65 13.65L63 12.95L62.95 12.95L62.7 13.25L62.65 13.3Q62.1 14 62 15.05L61.95 15.3L62.55 14.35L62.05 16.9L62 16.1L61.95 16.5L61.75 15.55L61.4 16.55L61.35 15.55L61.2 16.35L61.2 15.25L61.1 15.7L61.1 15.75L61.05 15.8Q60.6 16.35 60.45 17Q60.7 15.35 61.6 14L62 13.4L62.25 13.05Q62.7 12.45 63.6 11.95L64.6 11.45L63.95 11.55L63.6 11.65Q63.1 11.85 62.85 12.1L63.35 11.45L62.7 11.95L62 12.85L61.85 13.2L62 12.55Q61.35 13.5 60.85 14.55L61.1 13.6Q60.35 14.8 60.1 16.3Q60.05 15.25 60.55 14.15Q59.65 14.75 59.4 15.55Q59 15.65 58.5 16.3Q58.7 15.8 59.3 15.25Q59.1 15.15 58.6 15.65Q59.1 14.55 60.15 13.9Q59.9 13.85 59.3 14.25Q60 13.55 60.7 13.3L60.15 13.35Q61.1 12.55 62 12.1L61.3 12.35L62 11.7Q62.65 11.25 63.6 11.15L64.1 11.15L64.25 11.15L64.75 11.3L64.8 11.3L65 11.25L65.55 11.2L64.9 10.9L65.05 10.9L65.6 11L64.85 10.5L65 10.45Q65.45 10.3 65.8 10.9L65.95 11.2L65.95 11.3L66.15 11.55L65.8 11.5L65.55 11.4L65.45 11.4L65.6 11.45L65.8 11.65L65 11.45L64.9 11.5L64.8 11.55Q64.1 11.8 63.6 12.15Q63 12.5 62.65 12.95Q63.2 12.6 63.6 12.55L63.7 12.5L63.6 12.65L62.65 14.05L63.6 12.95Q63.1 13.75 62.95 14.6L63.1 13.7" />
<linearGradient
id="LinearGradID_420" gradientUnits="userSpaceOnUse" gradientTransform="matrix(0.00378418, 0, 0, 0.00338745, 65.7, 12)" spreadMethod ="pad" x1="-819.2" y1="0" x2="819.2" y2="0" >
<stop  offset="0" style="stop-color:#0E0A17;stop-opacity:1" />
<stop  offset="0.988235" style="stop-color:#251D3F;stop-opacity:1" />
</linearGradient>
<path style="fill:url(#LinearGradID_420) " d="M65.9,10.25L66.05 10.55L66.15 10.45L66.15 10.75L66.15 10.85L66.65 10.4L66.3 11.05L66.3 11.1L66.6 10.9L67 10.55L66.7 11.3L67 11.15L67.1 11.05L67.2 11Q68 10.35 68.85 10.2Q67.8 10.75 66.9 11.8L66.95 11.5Q66.6 12.1 66.6 12.7L66.4 11.9Q66.25 12.7 66.4 13.5L66.4 13.55L66.4 13.95L66.2 13.5L65.9 12.95L66 13.8L65.7 13.2L65.45 12.8L65.4 12.7L65.15 11.9L65.05 12.5L64.75 12L64.85 12.75L64.8 12.7L64.45 12.05L64.5 12.75L64.45 12.75L64.35 12.35L64.3 12.2L63.9 13.5L63.85 13L63.6 13.35Q63.1 14.1 62.9 14.8L62.9 14.7L62.95 14.6Q63.1 13.75 63.6 12.95L62.65 14.05L63.6 12.65L63.7 12.5L63.6 12.55Q63.2 12.6 62.65 12.95Q63 12.5 63.6 12.15Q64.1 11.8 64.8 11.55L64.9 11.5L65 11.45L65.8 11.65L65.6 11.45L65.45 11.4L65.55 11.4L65.8 11.5L66.15 11.55L65.95 11.3L65.95 11.2L65.8 10.9Q65.45 10.3 65 10.45L64.85 10.5L65.6 11L65.05 10.9L64.9 10.9L65.55 11.2L65 11.25L64.8 11.3L64.75 11.3L64.25 11.15L64.1 11.15L63.6 11.15Q64.15 10.1 64.8 10L64.95 9.95Q65.25 9.35 66 9.1L67.15 8.85Q66.65 9.05 66.35 9.4L65.9 10.2L65.9 10.25" />
<linearGradient
id="LinearGradID_421" gradientUnits="userSpaceOnUse" gradientTransform="matrix(-0.000213623, 0.00595093, -0.00775146, -0.000274658, 61, 17.35)" spreadMethod ="pad" x1="-819.2" y1="0" x2="819.2" y2="0" >
<stop  offset="0" style="stop-color:#542E3B;stop-opacity:1" />
<stop  offset="0.494118" style="stop-color:#99606E;stop-opacity:1" />
<stop  offset="1" style="stop-color:#3B2028;stop-opacity:1" />
</linearGradient>
<path style="fill:url(#LinearGradID_421) " d="M60.15,21L59.75 22.3L59.8 20.95L59.25 22.3L59.25 21.85Q58.45 20.55 58.5 19.15L58.65 19.7L58.6 18.35Q58.75 19.75 59.2 21.35L59.1 20.2L59.35 21.35L59.35 20.7L59.3 20.6L59.2 19.75L59.5 21L59.5 21.05L59.5 21.1L59.55 21.1L60 19.15L60.05 19.9L60.1 19.4L60.1 19.35L60.15 19L60.2 19.35L60.25 19.65L60.35 20.4L60.4 19L60.45 18.55L60.55 16.9L60.3 17.5L60.2 17.75L60.2 16.8L60.5 15.85Q60.05 16.35 59.9 16.8L59.85 16.8L59.8 16.8Q59.7 16 60 14.9Q59.45 15.9 59.2 16.8L59.3 16.8L59.05 17.85Q59.2 17.3 59.5 17.25L59.4 18.05L59.3 18.75L59.15 18.2L59.2 17.9L59.1 18.05L59 18.95L59.05 19.45L58.85 18.55Q58.75 17.65 59.05 16.8L58.9 16.8L59.25 16L59.3 15.95L58.65 16.4L59.4 15.55Q59.65 14.75 60.55 14.15Q60.05 15.25 60.1 16.3Q60.35 14.8 61.1 13.6L60.85 14.55Q61.35 13.5 62 12.55L61.85 13.2L62 12.85L62.7 11.95L63.35 11.45L62.85 12.1Q63.1 11.85 63.6 11.65L63.95 11.55L64.6 11.45L63.6 11.95Q62.7 12.45 62.25 13.05L62 13.4L61.6 14Q60.7 15.35 60.45 17Q60.6 16.35 61.05 15.8L61.1 15.75L60.95 16.05Q60.6 17.25 60.7 18.55Q60.7 17.75 61.15 17L60.9 20.4Q61.35 19.35 61.5 17.65L61.45 18.65L61.95 16.5L62 16.1L62.05 16.9L62.55 14.35L61.95 15.3L62 15.05Q62.1 14 62.65 13.3L62.7 13.25L62.95 12.95L63 12.95L62.65 13.65L62.5 14.35L63.1 13.7L62.95 14.6L62.9 14.7L62.9 14.8L62.7 16.05L62.7 16.25L63.25 14.55L63.6 13.95L63.9 13.5L63.9 13.55L63.6 14.4L63.25 15.45L62.95 16.95L62.95 17.1L63.6 15.5L63.25 19.75L63.75 17.85L63.65 19.65L64.2 17.55L64 19.45L64.15 19.3L64.25 19.25L64.3 19.15L64.35 19.15L64.35 19.3L64.1 20.25L64.5 19.65L63.9 21.45L63.6 22.35L63.4 22.85L63.4 22.9L63.4 22.55L63.45 21.75L63.4 21.95L63.4 21.85L63.4 22L63.05 23.25L63.3 21.55L62.7 23.5L63.15 18.95L62.55 22.75L62.6 22.2L62.55 22.55Q62.5 20.6 62.9 18.75L62.2 21.55L62.7 17.9L62.05 20.15Q61.95 19.3 62.2 18.2L62 18.75Q61.3 20.9 61.15 23.7L61.15 23.8L61.1 24.15L61.05 24.15L61 21.85L60.7 22.65L60.55 23.4L60.5 23.6L60.5 23.25L60.8 20.55L60.8 20.35L60.05 23.35L60 23.3L60 23.25L60.15 21M62.1,17L62.1 17.1L62 17.3Q61.4 19.2 61.15 21.1Q61.45 19.7 62 18.35L62.45 17.25L62.45 17.15L62.7 14.85L62.3 16.35L62.1 17M62.85,17.55L62.7 19.1L63.05 17.8L62.85 19.75L63.15 18.7L63.35 16.55L62.85 17.55M63.75,20.3L63.9 19.3L63.35 20.7L63.35 19.7Q63 20.95 62.95 22.15L63.4 20.9L63.3 21.8L63.7 20.9L63.6 22.05L64.15 19.55L63.75 20.3" />
<linearGradient
id="LinearGradID_422" gradientUnits="userSpaceOnUse" gradientTransform="matrix(0.000961304, -0.00405884, 0.00448608, 0.00105286, 63.3, 17.05)" spreadMethod ="pad" x1="-819.2" y1="0" x2="819.2" y2="0" >
<stop  offset="0" style="stop-color:#482D43;stop-opacity:1" />
<stop  offset="0.454902" style="stop-color:#BF727C;stop-opacity:1" />
<stop  offset="1" style="stop-color:#171126;stop-opacity:1" />
</linearGradient>
<path style="fill:url(#LinearGradID_422) " d="M64.2,13.65L64.5 13.1L64.4 13.85Q63.75 15.3 63.7 17.05L64.3 15.1L63.9 17.5Q64.1 16.5 64.6 15.35L64.2 17.25L64.2 17.55L63.65 19.65L63.75 17.85L63.25 19.75L63.6 15.5L62.95 17.1L62.95 16.95L63.25 15.45L63.6 14.4L63.9 13.55L63.95 13.4L63.9 13.5L64.3 12.2L64.35 12.35L64.2 13.65M64,13.35L63.95 13.4L64 13.4L64 13.35" />
<linearGradient
id="LinearGradID_423" gradientUnits="userSpaceOnUse" gradientTransform="matrix(0.000411987, 0.00135803, -0.00198364, 0.000595093, 67.1, 13.1)" spreadMethod ="pad" x1="-819.2" y1="0" x2="819.2" y2="0" >
<stop  offset="0" style="stop-color:#45334C;stop-opacity:1" />
<stop  offset="0.494118" style="stop-color:#7D464F;stop-opacity:1" />
<stop  offset="0.988235" style="stop-color:#433858;stop-opacity:1" />
</linearGradient>
<path style="fill:url(#LinearGradID_423) " d="M66.4,13.55L66.4 13.5Q66.25 12.7 66.4 11.9L66.6 12.7Q66.6 12.1 66.95 11.5L66.9 11.8L66.85 12.35Q67 11.85 67.5 11.5L67.25 12.05L67.85 11.45L67.6 12L67.55 12.05Q67.3 12.35 67.1 13.3L67.1 13.35L67.35 12.85L67.55 12.5L67.45 13.25L67.4 13.75L67.3 13.9L67.25 13.95L67.45 13.05Q67.1 13.6 66.95 14.45L66.95 13.2Q66.65 14.1 66.85 14.8L66.4 13.55" />
<linearGradient
id="LinearGradID_424" gradientUnits="userSpaceOnUse" gradientTransform="matrix(-0.00012207, 0.00164795, -0.000793457, -6.10352e-05, 67.8, 12.35)" spreadMethod ="pad" x1="-819.2" y1="0" x2="819.2" y2="0" >
<stop  offset="0" style="stop-color:#6F4456;stop-opacity:1" />
<stop  offset="0.494118" style="stop-color:#B56C75;stop-opacity:1" />
<stop  offset="0.988235" style="stop-color:#724859;stop-opacity:1" />
</linearGradient>
<path style="fill:url(#LinearGradID_424) " d="M68.2,11.75L67.4 13.75L67.45 13.25L67.55 12.5L67.35 12.85L67.1 13.35L67.1 13.3Q67.3 12.35 67.55 12.05L67.6 12.1L67.6 12Q67.85 11.55 68.55 11.1L68.2 11.75" />
<linearGradient
id="LinearGradID_425" gradientUnits="userSpaceOnUse" gradientTransform="matrix(0.00270081, 0, 0, 0.00338745, 71.1, 13)" spreadMethod ="pad" x1="-819.2" y1="0" x2="819.2" y2="0" >
<stop  offset="0" style="stop-color:#000000;stop-opacity:1" />
<stop  offset="0.988235" style="stop-color:#271F3E;stop-opacity:1" />
</linearGradient>
<path style="fill:url(#LinearGradID_425) " d="M69.25,13.25L69.65 13.85L69.6 13.8L69.1 13.45L69.5 14.1L68.95 13.65L68.9 13.5L68.95 13.45L69.15 12.6L69.3 12.25L69.75 11.2L69.05 11.9L70.1 10.3L70.45 10.25L71.05 10.9L70.5 11.1Q72.2 11.25 72.8 12.45Q71.95 11.7 71.1 11.75Q71.95 11.95 72.5 12.75L71.05 12.1L72.05 13.05L71.35 12.75Q71.9 13.7 73.05 14.45L71.75 13.85L72.35 15.85L71.6 14.65Q71.25 12.85 70.7 12.05L70.9 12.95L70.45 12.45L70.75 13L70.1 12.35L70.55 13.1L70.1 12.65L70.5 13.4L69.8 12.8L70.35 13.65L69.7 13.25L70.3 13.75L70.2 13.7L69.85 13.55L69.25 13.25" />
<linearGradient
id="LinearGradID_426" gradientUnits="userSpaceOnUse" gradientTransform="matrix(-0.000595093, 0.00305176, -0.00283813, -0.000549316, 69.4, 13.1)" spreadMethod ="pad" x1="-819.2" y1="0" x2="819.2" y2="0" >
<stop  offset="0" style="stop-color:#45334C;stop-opacity:1" />
<stop  offset="0.494118" style="stop-color:#7D464F;stop-opacity:1" />
<stop  offset="0.988235" style="stop-color:#433858;stop-opacity:1" />
</linearGradient>
<path style="fill:url(#LinearGradID_426) " d="M68.4,13.05Q68.25 14 68.6 14.85Q68.4 14.05 68.7 13.2L68.8 13.95Q68.75 13.05 69.05 12.2L68.7 12.7Q68.9 11.75 69.35 11Q68.7 11.8 68.5 12.45L68.75 11.5Q68.15 12.65 68.25 13.85L68.15 14.8Q67.8 13.65 68.2 11.75L68.55 11.1L68.7 11L69.25 10.7L68.95 11.2L70.1 10.3L69.05 11.9L69.75 11.2L69.3 12.25L69.15 12.6L68.95 13.45L68.9 13.5L68.95 13.65Q69 14.55 69.35 14.85L69.2 14.8L68.8 14.35L68.85 15.05L69.15 15.8L68.55 15.05L68.25 13.9L68.4 13.05" />
<linearGradient
id="LinearGradID_427" gradientUnits="userSpaceOnUse" gradientTransform="matrix(0.00120544, 0.00306702, -0.00378418, 0.0014801, 70.8, 15.8)" spreadMethod ="pad" x1="-819.2" y1="0" x2="819.2" y2="0" >
<stop  offset="0" style="stop-color:#493B56;stop-opacity:1" />
<stop  offset="0.47451" style="stop-color:#A2585F;stop-opacity:1" />
<stop  offset="0.988235" style="stop-color:#4B3C56;stop-opacity:1" />
</linearGradient>
<path style="fill:url(#LinearGradID_427) " d="M71.85,16.05L71.9 16.2L72.1 17.4L72.2 18.35L71.95 17.5L71.05 13.45L71.05 13.95L71.1 14.35L71.1 15.05L70.55 13.45L70.5 13.45L70.9 15.1L70.65 14.65L70.2 13.7L70.3 13.75L69.7 13.25L70.35 13.65L69.8 12.8L70.5 13.4L70.1 12.65L70.55 13.1L70.1 12.35L70.75 13L70.45 12.45L70.9 12.95L70.7 12.05Q71.25 12.85 71.6 14.65L71.85 16.05M69.65,13.85L69.25 13.25L69.85 13.55L70.6 15.1L69.65 13.85M69.6,13.85L69.65 13.9L70.35 15.15L70.75 15.85L71.25 16.95L71.35 17.25L71.3 17.15L71.25 17.1L71.5 18.75L70.85 16.7Q70.25 15.15 69.3 14.1L69.15 13.9L68.95 13.65L69.5 14.1L69.1 13.45L69.6 13.8L69.6 13.85M71.1,15.45L71.85 17.3L71.65 17L71.85 17.9L71.15 15.8L71.1 15.45" />
<path style="fill:#4A354D;fill-opacity:1" d="M71.15,15.8L71.85 17.9L71.65 17L71.85 17.3L71.95 17.5L72.2 18.35L72.1 17.4L72.45 18.15L72.55 20.45L72.05 18.75L72 18.7L72 18.75L72.35 21.05L71.75 18.75L71.8 20.75L71.4 19.35L71.25 18.85L71.15 18.65L70.85 16.7L71.5 18.75L71.25 17.1L71.3 17.15L71.35 17.25L71.25 16.95L70.6 15.1L69.85 13.55L70.2 13.7L70.65 14.65L71.15 15.8" />
<linearGradient
id="LinearGradID_428" gradientUnits="userSpaceOnUse" gradientTransform="matrix(0.000457764, 0.00132751, -0.00236511, 0.000793457, 70.75, 15.45)" spreadMethod ="pad" x1="-819.2" y1="0" x2="819.2" y2="0" >
<stop  offset="0" style="stop-color:#7D4B57;stop-opacity:1" />
<stop  offset="0.462745" style="stop-color:#C98080;stop-opacity:1" />
<stop  offset="0.988235" style="stop-color:#804F59;stop-opacity:1" />
</linearGradient>
<path style="fill:url(#LinearGradID_428) " d="M70.65,14.65L70.9 15.1L70.5 13.45L70.55 13.45L71.1 15.05L71.1 14.35L71.05 13.95L71.05 13.45L71.95 17.5L71.85 17.3L71.1 15.45L71.15 15.8L70.65 14.65M70.6,15.1L71.25 16.95L70.75 15.85L70.35 15.15L69.65 13.9L69.65 13.85L70.6 15.1" />
<linearGradient
id="LinearGradID_429" gradientUnits="userSpaceOnUse" gradientTransform="matrix(0.00120544, 0.00306702, -0.00378418, 0.0014801, 70.8, 15.8)" spreadMethod ="pad" x1="-819.2" y1="0" x2="819.2" y2="0" >
<stop  offset="0" style="stop-color:#493B56;stop-opacity:1" />
<stop  offset="0.47451" style="stop-color:#C46363;stop-opacity:1" />
<stop  offset="0.988235" style="stop-color:#4B3C56;stop-opacity:1" />
</linearGradient>
<path style="fill:url(#LinearGradID_429) " d="M69.65,13.85L69.65 13.9L69.6 13.85L69.6 13.8L69.65 13.85" />
<linearGradient
id="LinearGradID_430" gradientUnits="userSpaceOnUse" gradientTransform="matrix(0.00209045, 0.000366211, -0.000671387, 0.0038147, 68.7, 14.9)" spreadMethod ="pad" x1="-819.2" y1="0" x2="819.2" y2="0" >
<stop  offset="0" style="stop-color:#231A36;stop-opacity:1" />
<stop  offset="0.988235" style="stop-color:#353251;stop-opacity:1" />
</linearGradient>
<path style="fill:url(#LinearGradID_430) " d="M70,15.5L69.3 14.95L70.4 16.45L69.3 15.75L69.85 18L69 15.9L69.25 18.1L68.95 17.45L68.7 17.9L68.6 15.75L68.5 16.7L68.05 15.35L68.25 16.7L67.9 15.65L67.45 15.15Q67.6 16.35 67.4 16.95L67.15 15.2L67.1 15L67.1 15.05L67.05 14.9L66.95 14.55L66.95 14.45Q67.1 13.6 67.45 13.05L67.25 13.95L67.3 13.9L67.4 13.75L68.2 11.75Q67.8 13.65 68.15 14.8L68.25 13.85L68.25 13.9L68.55 15.05L69.15 15.8L68.85 15.05L68.8 14.35L69.2 14.8L69.35 14.85Q69 14.55 68.95 13.65L69.15 13.9L70 15.5" />
<path style="fill:#000000;fill-opacity:1" d="M62.05,23.3L62 23.45L61.9 23.8L61.8 24.3L61.65 23.6L61.6 23.55L61.6 23.6L61.45 24L61.35 23.7L61.3 23.55Q61.4 21.7 61.9 20.05L61.7 21.5L62.25 20L62 21.05L61.7 23.15L62.15 22L62.05 23.3M71.1,18.6Q70.75 17.55 70.2 16.8L70.45 19.3L70.1 17.8L70.05 19L69.5 17.2L69.55 18.45L69.4 17.7L69.2 18.9L68.95 18.2L68.95 17.45L69.25 18.1L69 15.9L69.85 18L69.3 15.75L70.4 16.45L69.3 14.95L70 15.5L69.15 13.9L69.3 14.1Q70.25 15.15 70.85 16.7L71.15 18.65L71.1 18.6M65.6,19.3L65.65 19.1L66.05 17.1L66.05 20.05L66 20.65L65.8 21.5L65.85 20.7L65.85 20.4L65.85 19.9L65.6 21.25L65.6 19.35L65.6 19.3" />
<linearGradient
id="LinearGradID_431" gradientUnits="userSpaceOnUse" gradientTransform="matrix(-0.000183105, 0.00238037, -0.000564575, -4.57764e-05, 68.75, 12.9)" spreadMethod ="pad" x1="-819.2" y1="0" x2="819.2" y2="0" >
<stop  offset="0" style="stop-color:#6F4456;stop-opacity:1" />
<stop  offset="0.494118" style="stop-color:#B56C75;stop-opacity:1" />
<stop  offset="0.988235" style="stop-color:#724859;stop-opacity:1" />
</linearGradient>
<path style="fill:url(#LinearGradID_431) " d="M68.25,13.9L68.25 13.85Q68.15 12.65 68.75 11.5L68.5 12.45Q68.7 11.8 69.35 11Q68.9 11.75 68.7 12.7L69.05 12.2Q68.75 13.05 68.8 13.95L68.7 13.2Q68.4 14.05 68.6 14.85Q68.25 14 68.4 13.05L68.25 13.9" />
<path style="fill:#433B53;fill-opacity:1" d="M65.75,14.05L66.35 14.85L65.45 12.8L65.7 13.2L66 13.8L65.9 12.95L66.2 13.5L66.4 13.95L66.4 13.55L66.85 14.8Q66.65 14.1 66.95 13.2L66.95 14.45L66.95 14.55L67.05 14.9L67.1 15.05L67.1 16.1L66.5 14.9L66.95 17.05L66.95 17.15L66.9 17.05L66.15 15.15L66.05 14.8L66.05 14.75L65.75 14.05" />
<linearGradient
id="LinearGradID_432" gradientUnits="userSpaceOnUse" gradientTransform="matrix(-0.000473022, 0.00411987, -0.00422668, -0.000488281, 65.15, 16.6)" spreadMethod ="pad" x1="-819.2" y1="0" x2="819.2" y2="0" >
<stop  offset="0" style="stop-color:#000000;stop-opacity:1" />
<stop  offset="1" style="stop-color:#6B3A3F;stop-opacity:1" />
</linearGradient>
<path style="fill:url(#LinearGradID_432) " d="M65.6,23.3L65.6 22.25L65.35 23.05L65.35 22.75L65.35 22.3L65.35 22.25L65.5 21.75L65.35 22.15L65.35 21.35L65.35 21.2L65.6 19.35L65.6 21.25L65.85 19.9L65.85 20.4L65.85 20.7L65.8 21.5L66 20.65L66.05 20.05L66.05 17.1L65.65 19.1L65.8 16.6L65.2 18.35L65.25 16.6L64.95 18.1L64.95 17.05L64.5 19.35L64.6 17.35L64.2 19.1L64.75 15.8L64.2 17.25L64.6 15.35Q64.1 16.5 63.9 17.5L64.3 15.1L63.7 17.05Q63.75 15.3 64.4 13.85L64.5 13.1L64.2 13.65L64.35 12.35L64.45 12.75L64.5 12.8L64.5 12.75L65.4 14.65L65.15 13.55L65.65 14.7L65.3 13.5L66.05 14.75L66.05 14.8L66.15 15.15L66.05 15.1L66.05 15.15L66.55 16.65L66.35 16.25L66.55 17.35L66.55 17.65L66.4 17.1L66.2 16.35L66.25 17.1L66.3 19.1L66.25 19.3L66.25 19.85L66.2 20.2L65.8 23.05L65.75 23.2L65.6 23.75L65.6 23.7L65.55 23.55L65.6 23.3M65,23.2L65 23.15L65.05 23.15L65 23.2" />
<linearGradient
id="LinearGradID_433" gradientUnits="userSpaceOnUse" gradientTransform="matrix(-7.62939e-05, 0.00588989, -0.00596619, -7.62939e-05, 67.05, 19.75)" spreadMethod ="pad" x1="-819.2" y1="0" x2="819.2" y2="0" >
<stop  offset="0" style="stop-color:#28262B;stop-opacity:1" />
<stop  offset="0.486275" style="stop-color:#7B494A;stop-opacity:1" />
<stop  offset="1" style="stop-color:#291E28;stop-opacity:1" />
</linearGradient>
<path style="fill:url(#LinearGradID_433) " d="M66.65,24L66.55 23Q66.5 22.6 66.35 23.8L66.25 22.6L66 24.3L65.95 24.3L65.85 23.1L65.7 24.05L65.65 23.95L65.6 23.75L65.75 23.2L65.8 23.05L65.95 22.65L66.45 20.3L66.45 21.7L66.75 19.05L66.65 21.25L67 19.15L67 18.55L66.8 17.05L66.75 16.9L66.75 17.6L66.55 16.8L66.55 17.35L66.35 16.25L66.55 16.65L66.05 15.15L66.15 15.15L66.9 17.05L66.95 17.15L66.95 17.05L66.5 14.9L67.1 16.1L67.1 15.05L67.1 15L67.15 15.2L67.4 16.95Q67.6 16.35 67.45 15.15L67.9 15.65L68.25 16.7L68.05 15.35L68.5 16.7L68.6 15.75L68.7 17.9L68.7 18.2L68.6 18.65L68.35 20.4L68.2 19.15L68.1 22.1L67.8 19.15Q67.8 21.35 67.35 23.05L67.5 20.9L67.15 22.85L67.15 22.5L67.15 22.95L67.1 23.7L67 23.05Q67.15 22 67 22.8L67.2 18.75L66.65 24M67.3,17.95L67.25 21.05L67.6 19.25L67.6 20.45L67.8 18.35L68 19.95L68.1 17.95L68.35 19.3L68.45 18.2L68.3 16.55L68.1 17.75L67.8 16L67.7 17.9L67.6 16.35L67.4 17.7L67.25 16.95L67.05 16.6L67.15 18.7L67.3 17.85L67.3 17.95" />
<linearGradient
id="LinearGradID_434" gradientUnits="userSpaceOnUse" gradientTransform="matrix(-0.000289917, 0.00404358, -0.00418091, -0.000305176, 66.55, 19.7)" spreadMethod ="pad" x1="-819.2" y1="0" x2="819.2" y2="0" >
<stop  offset="0" style="stop-color:#7D4B57;stop-opacity:1" />
<stop  offset="0.439216" style="stop-color:#B88282;stop-opacity:1" />
<stop  offset="0.988235" style="stop-color:#804F59;stop-opacity:1" />
</linearGradient>
<path style="fill:url(#LinearGradID_434) " d="M66.55,17.35L66.55 16.8L66.75 17.6L66.75 16.9L66.8 17.05L67 18.55L67 19.15L66.65 21.25L66.75 19.05L66.45 21.7L66.45 20.3L65.95 22.65L65.8 23.05L66.2 20.2L66.25 19.85L66.25 19.3L66.3 19.1L66.25 17.1L66.2 16.35L66.4 17.1L66.55 17.65L66.55 17.35" />
<linearGradient
id="LinearGradID_435" gradientUnits="userSpaceOnUse" gradientTransform="matrix(-0.000213623, 0.00311279, -0.000930786, -6.10352e-05, 67.7, 18.55)" spreadMethod ="pad" x1="-819.2" y1="0" x2="819.2" y2="0" >
<stop  offset="0" style="stop-color:#7D4B57;stop-opacity:1" />
<stop  offset="0.439216" style="stop-color:#B88282;stop-opacity:1" />
<stop  offset="0.988235" style="stop-color:#804F59;stop-opacity:1" />
</linearGradient>
<path style="fill:url(#LinearGradID_435) " d="M67.3,17.85L67.15 18.7L67.05 16.6L67.25 16.95L67.4 17.7L67.6 16.35L67.7 17.9L67.8 16L68.1 17.75L68.3 16.55L68.45 18.2L68.35 19.3L68.1 17.95L68 19.95L67.8 18.35L67.6 20.45L67.6 19.25L67.25 21.05L67.3 17.95L67.3 17.85" />
<linearGradient
id="LinearGradID_436" gradientUnits="userSpaceOnUse" gradientTransform="matrix(-0.00164795, 0.00390625, -0.00509644, -0.00213623, 69.95, 20.4)" spreadMethod ="pad" x1="-819.2" y1="0" x2="819.2" y2="0" >
<stop  offset="0" style="stop-color:#12142B;stop-opacity:1" />
<stop  offset="0.694118" style="stop-color:#453145;stop-opacity:1" />
<stop  offset="1" style="stop-color:#2B1E28;stop-opacity:1" />
</linearGradient>
<path style="fill:url(#LinearGradID_436) " d="M72.55,25.25L72.55 25.3L72.45 25.75L72.65 24.55L72.55 25.25M72.65,22.85L72.65 24.1L72.2 25.25L72.65 22.85M72.2,25.1L72.1 25.25L72.05 25.3L71.95 25.5L71.8 24.45L71.3 25.7L71.15 25.8L71.25 23.7L71 25.5L70.85 25.85L70.8 25.5L70.8 24.6L70.65 25.05Q70.65 24.85 70.6 25.1L70.45 25.25L70.45 24.65L70.4 24.3L70.2 24.95Q70.1 25.45 70.15 24.65L70.15 24.05L70.15 23.5L70.5 22.5L70.6 21.4L70.65 21.25Q70.8 19.95 70.6 18.75L70.25 20.75L70.25 19.4L70 22.15L69.9 18.9L69.6 20.3L69.7 18.5L69.45 19.5L69.45 18.3L69.3 19.55L68.95 18.6L68.95 18.7Q69.1 20.05 68.8 20.5L68.6 19.05L68.6 18.95L68.6 18.65L68.7 18.2L68.7 17.9L68.95 17.45L68.95 18.2L69.2 18.9L69.4 17.7L69.55 18.45L69.5 17.2L70.05 19L70.1 17.8L70.45 19.3L70.2 16.8Q70.75 17.55 71.1 18.6L71.15 18.65L71.25 18.85L71.3 19.1L71.55 20.65L71.4 20.15L70.65 17.95Q71.15 20.05 71 21.9L71 22L71 22.1L70.55 24.85L71.5 22L71.65 24.5L72.15 21.5L72.2 25.1" />
<linearGradient
id="LinearGradID_437" gradientUnits="userSpaceOnUse" gradientTransform="matrix(0.00115967, 0.0022583, -0.00117493, 0.000595093, 65.45, 13)" spreadMethod ="pad" x1="-819.2" y1="0" x2="819.2" y2="0" >
<stop  offset="0" style="stop-color:#171126;stop-opacity:1" />
<stop  offset="0.494118" style="stop-color:#804D5A;stop-opacity:1" />
<stop  offset="1" style="stop-color:#190D0E;stop-opacity:1" />
</linearGradient>
<path style="fill:url(#LinearGradID_437) " d="M66.05,14.75L65.3 13.5L65.65 14.7L65.15 13.55L65.4 14.65L64.5 12.75L64.45 12.05L64.8 12.7L64.85 12.75L64.75 12L65.05 12.5L65.15 11.9L65.4 12.7L65.45 12.8L66.35 14.85L65.75 14.05L66.05 14.75" />
<linearGradient
id="LinearGradID_438" gradientUnits="userSpaceOnUse" gradientTransform="matrix(0.000808716, -0.00389099, 0.00553894, 0.00114441, 60.95, 16.9)" spreadMethod ="pad" x1="-819.2" y1="0" x2="819.2" y2="0" >
<stop  offset="0" style="stop-color:#4C2E47;stop-opacity:1" />
<stop  offset="0.478431" style="stop-color:#704D61;stop-opacity:1" />
<stop  offset="0.988235" style="stop-color:#4D2F48;stop-opacity:1" />
</linearGradient>
<path style="fill:url(#LinearGradID_438) " d="M58.9,16.8L58.8 16.8L58.65 16.8L59.25 16L58.9 16.8M62.9,14.8Q63.1 14.1 63.6 13.35L63.85 13L63.9 13.5L63.6 13.95L63.25 14.55L62.7 16.25L62.7 16.05L62.9 14.8M60.2,17.75L60.3 17.5L60.55 16.9L60.45 18.55L60.4 19L60.35 20.4L60.25 19.65L60.2 19.35L60.2 17.75" />
<linearGradient
id="LinearGradID_439" gradientUnits="userSpaceOnUse" gradientTransform="matrix(0.000366211, 0.00367737, -0.00131226, 0.000137329, 61.95, 17.95)" spreadMethod ="pad" x1="-819.2" y1="0" x2="819.2" y2="0" >
<stop  offset="0" style="stop-color:#7A4458;stop-opacity:1" />
<stop  offset="0.494118" style="stop-color:#C9787C;stop-opacity:1" />
<stop  offset="0.988235" style="stop-color:#834A5C;stop-opacity:1" />
</linearGradient>
<path style="fill:url(#LinearGradID_439) " d="M62.3,16.35L62.7 14.85L62.45 17.15L62.45 17.25L62 18.35Q61.45 19.7 61.15 21.1Q61.4 19.2 62 17.3L62.1 17.1L62.1 17L62.3 16.35" />
<linearGradient
id="LinearGradID_440" gradientUnits="userSpaceOnUse" gradientTransform="matrix(0.000900269, -0.00248718, 0.00379944, 0.00140381, 61.3, 16.5)" spreadMethod ="pad" x1="-819.2" y1="0" x2="819.2" y2="0" >
<stop  offset="0" style="stop-color:#6A485C;stop-opacity:1" />
<stop  offset="0.972549" style="stop-color:#141331;stop-opacity:1" />
</linearGradient>
<path style="fill:url(#LinearGradID_440) " d="M61.45,18.65L61.5 17.65Q61.35 19.35 60.9 20.4L61.15 17Q60.7 17.75 60.7 18.55Q60.6 17.25 60.95 16.05L61.1 15.75L61.1 15.7L61.2 15.25L61.2 16.35L61.35 15.55L61.4 16.55L61.75 15.55L61.95 16.5L61.45 18.65" />
<linearGradient
id="LinearGradID_441" gradientUnits="userSpaceOnUse" gradientTransform="matrix(-0.000289917, 0.00354004, -0.00535583, -0.000457764, 64.55, 19.75)" spreadMethod ="pad" x1="-819.2" y1="0" x2="819.2" y2="0" >
<stop  offset="0" style="stop-color:#6F4456;stop-opacity:1" />
<stop  offset="0.501961" style="stop-color:#A8646E;stop-opacity:1" />
<stop  offset="0.988235" style="stop-color:#5D323C;stop-opacity:1" />
</linearGradient>
<path style="fill:url(#LinearGradID_441) " d="M65.3,19.95L64.9 21.7L64.9 19.45L64.8 20.2L64.8 19.75L64.35 21.6L64.55 19.95Q64 21.4 63.75 23Q63.7 22.75 63.7 22.95L63.65 23.7L63.6 24L63.4 24.45L63.4 24L63.35 24.05L63.4 22.9L63.4 22.85L63.6 22.35L63.9 21.45L64.5 19.65L64.1 20.25L64.35 19.3L64.35 19.15L64.3 19.15L64.25 19.25L64.15 19.3L64 19.45L64.2 17.55L64.2 17.25L64.75 15.8L64.2 19.1L64.6 17.35L64.5 19.35L64.95 17.05L64.95 18.1L65.25 16.6L65.2 18.35L65.8 16.6L65.65 19.1L65.6 19.25L65.6 19.3L65.6 19.35L65.35 21.2L65.35 21.35L65.3 19.95" />
<linearGradient
id="LinearGradID_442" gradientUnits="userSpaceOnUse" gradientTransform="matrix(0.000198364, 0.00190735, -0.000549316, 6.10352e-05, 63.05, 18.1)" spreadMethod ="pad" x1="-819.2" y1="0" x2="819.2" y2="0" >
<stop  offset="0" style="stop-color:#7A4458;stop-opacity:1" />
<stop  offset="0.470588" style="stop-color:#DE8587;stop-opacity:1" />
<stop  offset="0.988235" style="stop-color:#834A5C;stop-opacity:1" />
</linearGradient>
<path style="fill:url(#LinearGradID_442) " d="M63.35,16.55L63.15 18.7L62.85 19.75L63.05 17.8L62.7 19.1L62.85 17.55L63.35 16.55" />
<linearGradient
id="LinearGradID_443" gradientUnits="userSpaceOnUse" gradientTransform="matrix(-7.62939e-05, 0.00588989, -0.00596619, -7.62939e-05, 67.05, 19.75)" spreadMethod ="pad" x1="-819.2" y1="0" x2="819.2" y2="0" >
<stop  offset="0" style="stop-color:#4D3F5C;stop-opacity:1" />
<stop  offset="0.47451" style="stop-color:#945D62;stop-opacity:1" />
<stop  offset="0.988235" style="stop-color:#5A3B58;stop-opacity:1" />
</linearGradient>
<path style="fill:url(#LinearGradID_443) " d="M65.6,19.25L65.65 19.1L65.6 19.3L65.6 19.25" />
<linearGradient
id="LinearGradID_444" gradientUnits="userSpaceOnUse" gradientTransform="matrix(-0.000366211, 0.00331116, -0.000823975, -9.15527e-05, 64.45, 22.45)" spreadMethod ="pad" x1="-819.2" y1="0" x2="819.2" y2="0" >
<stop  offset="0" style="stop-color:#261933;stop-opacity:1" />
<stop  offset="1" style="stop-color:#6B3A3F;stop-opacity:1" />
</linearGradient>
<path style="fill:url(#LinearGradID_444) " d="M65,23.95L64.95 23.95Q64.85 23.6 64.85 23.9L64.8 21.8L64.75 21.8L64.55 23.05L64.45 22.6L64.25 22.05L64.2 23.5L64.2 22.45L64.2 22.4Q64.2 21.85 64.15 22.25L64.1 23.3Q63.95 24.75 63.95 23.9L63.75 23Q64 21.4 64.55 19.95L64.35 21.6L64.8 19.75L64.8 20.2L64.9 19.45L64.9 21.7L65.3 19.95L65.35 21.35L65.35 22.15L65.25 22.45L65.05 23.15L65 23.15L65 23.2L65 23.95" />
<linearGradient
id="LinearGradID_445" gradientUnits="userSpaceOnUse" gradientTransform="matrix(-0.000137329, 0.001297, -0.00141907, -0.000152588, 63.4, 20.45)" spreadMethod ="pad" x1="-819.2" y1="0" x2="819.2" y2="0" >
<stop  offset="0" style="stop-color:#6F434F;stop-opacity:1" />
<stop  offset="0.454902" style="stop-color:#BF727C;stop-opacity:1" />
<stop  offset="1" style="stop-color:#372638;stop-opacity:1" />
</linearGradient>
<path style="fill:url(#LinearGradID_445) " d="M64.15,19.55L63.6 22.05L63.7 20.9L63.3 21.8L63.4 20.9L62.95 22.15Q63 20.95 63.35 19.7L63.35 20.7L63.9 19.3L63.75 20.3L64.15 19.55" />
<linearGradient
id="LinearGradID_446" gradientUnits="userSpaceOnUse" gradientTransform="matrix(0.000274658, -0.0027771, 0.00415039, 0.000427246, 62.3, 21.35)" spreadMethod ="pad" x1="-819.2" y1="0" x2="819.2" y2="0" >
<stop  offset="0" style="stop-color:#312233;stop-opacity:1" />
<stop  offset="0.972549" style="stop-color:#54384F;stop-opacity:1" />
</linearGradient>
<path style="fill:url(#LinearGradID_446) " d="M63.4,22.55L63.4 21.95L63.45 21.75L63.4 22.55M63.4,22L63.25 23.5L63.1 24.5Q63 24.75 63 24.45L62.85 23.5L62.85 23.55L62.65 24.05L62.55 24.3L62.55 22.75L63.15 18.95L62.7 23.5L63.3 21.55L63.05 23.25L63.4 22M62.55,22.55L62.4 23.4L62.1 24L62.15 22.75L62.05 23.3L62.15 22L61.7 23.15L62 21.05L62.25 20L61.7 21.5L61.9 20.05Q61.4 21.7 61.3 23.55L61.25 23.5L61.15 23.7Q61.3 20.9 62 18.75L62.2 18.2Q61.95 19.3 62.05 20.15L62.7 17.9L62.2 21.55L62.9 18.75Q62.5 20.6 62.55 22.55" />
<path style="fill:#47232C;fill-opacity:1" d="M61.05,24.15L60.9 23.8L60.85 23.95L60.8 23.7L60.8 23.95L60.65 23.3L60.6 23.3L60.6 23.95L60.45 23.55L60.4 23.45L60.35 23.5L60.35 23.55L60.3 23.4L60.25 23.2L60.2 23.65L60.15 23.65L60.05 23.35L60.8 20.35L60.8 20.55L60.5 23.25L60.5 23.6L60.55 23.4L60.7 22.65L61 21.85L61.05 24.15M59.75,22.3L60.15 21L60 23.25L59.95 23.75L59.65 22.7L59.7 22.65L59.75 22.3" />
<linearGradient
id="LinearGradID_447" gradientUnits="userSpaceOnUse" gradientTransform="matrix(-0.00112915, 0.00389099, -0.00450134, -0.00132751, 65.4, 21.3)" spreadMethod ="pad" x1="-819.2" y1="0" x2="819.2" y2="0" >
<stop  offset="0" style="stop-color:#2C1835;stop-opacity:1" />
<stop  offset="1" style="stop-color:#6B3A3F;stop-opacity:1" />
</linearGradient>
<path style="fill:url(#LinearGradID_447) " d="M65.55,23.55L65.55 23.45L65.45 23.85L65.4 23.9L65.4 24L65.35 23.95L65.3 23.05L65.35 23.05L65.6 22.25L65.6 23.3L65.55 23.55M65,23.2L65.05 23.15L65.25 22.45L65.35 22.15L65.5 21.75L65.35 22.25L65.35 22.3L65.05 23.15L65 23.95L65 23.2" />
<linearGradient
id="LinearGradID_448" gradientUnits="userSpaceOnUse" gradientTransform="matrix(-0.00157166, 0.00328064, -0.00395203, -0.00187683, 69.45, 21.85)" spreadMethod ="pad" x1="-819.2" y1="0" x2="819.2" y2="0" >
<stop  offset="0" style="stop-color:#373050;stop-opacity:1" />
<stop  offset="0.392157" style="stop-color:#895760;stop-opacity:1" />
<stop  offset="1" style="stop-color:#422C3E;stop-opacity:1" />
</linearGradient>
<path style="fill:url(#LinearGradID_448) " d="M69.2,21.2L68.55 23.95L68.55 20.7L68.6 19.05L68.8 20.5Q69.1 20.05 68.95 18.7L68.95 18.6L69.3 19.55L69.45 18.3L69.45 19.5L69.7 18.5L69.6 20.3L69.9 18.9L70 22.15L70.25 19.4L70.25 20.75L70.6 18.75Q70.8 19.95 70.65 21.25L70.6 21.4L70.5 22.5L70.15 23.5L69.8 24.35L69.7 21.8L68.9 24.3L68.95 23.9L68.95 24L69.2 21.2" />
<linearGradient
id="LinearGradID_449" gradientUnits="userSpaceOnUse" gradientTransform="matrix(-0.001297, 0.00332642, -0.00375366, -0.00146484, 67.25, 23.15)" spreadMethod ="pad" x1="-819.2" y1="0" x2="819.2" y2="0" >
<stop  offset="0" style="stop-color:#08070F;stop-opacity:1" />
<stop  offset="1" style="stop-color:#664956;stop-opacity:1" />
</linearGradient>
<path style="fill:url(#LinearGradID_449) " d="M68.1,24L68 22.65L67.65 24.1L67.65 23.5L67.65 22.15L67.35 23.8L67.25 23.9L67.15 23.5L67.1 23.7L67.1 23.75L67.05 23.85L67 23.2L67 23.05L66.95 23.15L66.95 22.8L66.95 23.3L66.85 23.7L66.85 23.6L66.85 23.3L66.8 23.55L66.75 23.45L66.8 23.65L66.65 24.1L66.65 24L67.2 18.75L67 22.8L67 23.05L67.1 23.7L67.15 22.95L67.1 23.5L67.15 23.5L67.15 22.85L67.5 20.9L67.35 23.05Q67.8 21.35 67.8 19.15L68.1 22.1L68.2 19.15L68.35 20.4L68.6 18.65L68.6 18.95L68.6 19.05L68.55 20.7L68.1 24" />
<path style="fill:#452D34;fill-opacity:1" d="M69.7,21.8L69.8 24.35L70.15 23.5L70.1 23.95L69.95 25.3L69.85 24.85L69.8 24.3Q69.75 24.25 69.65 24.75L69.55 25.25L69.55 25.05L69.5 25.05L69.5 25.2L69.45 25.2L69.55 23.75L69.4 24.85L69.35 25.15L69.3 24.8L69.35 24.2L69.15 24.95L69.15 25L69.05 25.4L69 25L68.9 24.4L68.9 24.3L69.7 21.8M68.55,20.7L68.55 23.95L69.2 21.2L68.95 24L68.8 24.5L68.75 24.25L68.7 24.25L68.65 24.55L68.6 24.45L68.55 24.3L68.5 24.35L68.5 23.95L68.45 23.8L68.5 23.9L68.45 23.35Q68.35 22.45 68.35 23.35L68.35 23.65L68.3 23.9L68.25 24.15L68.1 24L68.55 20.7M68.65,24.25L68.65 24.4L68.7 24.05L68.6 24.2L68.65 24.25" />
<linearGradient
id="LinearGradID_450" gradientUnits="userSpaceOnUse" gradientTransform="matrix(-0.000259399, 0.00132751, -0.00376892, -0.000747681, 79.6, 17.55)" spreadMethod ="pad" x1="-819.2" y1="0" x2="819.2" y2="0" >
<stop  offset="0" style="stop-color:#352546;stop-opacity:1" />
<stop  offset="0.862745" style="stop-color:#5A3850;stop-opacity:1" />
<stop  offset="0.894118" style="stop-color:#5A3850;stop-opacity:1" />
</linearGradient>
<path style="fill:url(#LinearGradID_450) " d="M79.55,15L79.85 15.55L79.9 15.55L79.9 15.2L79.85 14.8L80.2 16.05L80.55 17.5L80.1 16.55L79.7 16.05L79.65 15.95L79.65 16L79.7 16.05L80.4 17.9L80.55 18.85L80.3 18.15L80.55 19.45L80.7 20.6L80.7 20.65L79.7 18.05L80.15 19.75L79.5 18.3L78.6 15.4L78.55 15.25L78.45 14.8L79.25 16.6L79.05 15.3L78.7 14.4Q79.15 14.7 79.6 15.85L79.3 14.5L79.55 15" />
<linearGradient
id="LinearGradID_451" gradientUnits="userSpaceOnUse" gradientTransform="matrix(0.00335693, 0.00717163, -0.00737, 0.00344849, 77.45, 17.55)" spreadMethod ="pad" x1="-819.2" y1="0" x2="819.2" y2="0" >
<stop  offset="0" style="stop-color:#624155;stop-opacity:1" />
<stop  offset="0.290196" style="stop-color:#785965;stop-opacity:1" />
<stop  offset="0.490196" style="stop-color:#5A3850;stop-opacity:1" />
</linearGradient>
<path style="fill:url(#LinearGradID_451) " d="M77.05,12.05Q78.1 12.7 78.8 14L78.4 12.9L78.45 12.9L79.25 14.35L79.3 14.5L79.6 15.85Q79.15 14.7 78.7 14.4L79.05 15.3Q78.15 13.4 77.05 12.05" />
<linearGradient
id="LinearGradID_452" gradientUnits="userSpaceOnUse" gradientTransform="matrix(0.000595093, 0.00564575, -0.00640869, 0.000686646, 77.05, 20.3)" spreadMethod ="pad" x1="-819.2" y1="0" x2="819.2" y2="0" >
<stop  offset="0" style="stop-color:#201632;stop-opacity:1" />
<stop  offset="0.988235" style="stop-color:#34223F;stop-opacity:1" />
</linearGradient>
<path style="fill:url(#LinearGradID_452) " d="M77.75,21.9L77.6 23.65L78.05 22.05L78.1 24.35L78.1 24.45L78.05 24.45L78.05 23.1L77.95 24.4Q77.85 24.6 77.85 23.95L77.7 24.05L77.8 23.4L77.6 24.2L77.5 23L77.35 24.4L77.25 24.25L77.1 24.55L77 23.7Q77 22.75 76.85 24.7L76.75 23.65L76.8 23.5L76.75 23.6L76.65 23.15L76.6 23.7L76.6 23.6L76.6 23.75L76.65 23.15L76.65 23.1L76.7 22.95L76.65 23.05L76.5 24.2L76.45 23.9L76.6 23.2L76.65 23.05L76.45 23.25L76.4 23.6L76.4 23.3L76.4 22.9L76.35 23.35L76.2 23.65L76.15 23.75L76.1 23.1L76.7 21.8L75.9 22.9L75.8 23L75.9 22.75L76.05 22.4L76.05 22.35L76.25 21.8L76 22.1L76.2 21.15L76.15 20.95L76.15 19.15L76.4 21.1L76.55 18.8L76.75 20.6L76.85 18.75L76.85 18.2L76.85 17.9L77.05 17.55L77.05 17.25L77.15 15Q78.2 16.35 78.35 18.85L77.65 16.8L77.9 19L77.35 16.95L77.65 19.2L77.25 18.05L77.5 19.95L77 18.1L77.2 20.1L76.95 19.65Q77.2 21.25 76.8 22.7L77.55 20.75Q77.6 22 77 23.6L77 23.7L77.75 21.9M75.9,23.55L75.95 23.4L75.95 23.6L75.9 23.55M75.75,23.85L75.7 24L75.65 23.95L75.7 23.95L75.75 23.85" />
<linearGradient
id="LinearGradID_453" gradientUnits="userSpaceOnUse" gradientTransform="matrix(0.00244141, 0.00457764, -0.00431824, 0.00230408, 75.1, 17.45)" spreadMethod ="pad" x1="-819.2" y1="0" x2="819.2" y2="0" >
<stop  offset="0" style="stop-color:#211831;stop-opacity:1" />
<stop  offset="0.431373" style="stop-color:#805461;stop-opacity:1" />
<stop  offset="0.988235" style="stop-color:#2C1D39;stop-opacity:1" />
</linearGradient>
<path style="fill:url(#LinearGradID_453) " d="M73.55,15L74.4 15.6L73.8 14.7L74.6 15.6L74 14.45L75.1 15.6Q74.95 14.85 74.1 13.65L75.3 15.05L74.75 13.9L75.8 15.65Q75.75 14.85 75.1 13.75L75.8 14.75L75.35 13.65L76.15 14.7L75.5 13.45Q76.35 14.3 76.65 15.4L76.7 15.55L76.85 17.9L76.85 18.2L76.85 18.75L76.75 20.6L76.55 18.8L76.4 21.1L76.15 19.15L76.15 20.95Q76 19.2 75.2 17.25L75.15 17.2Q74.6 16.1 73.3 14.85L73.55 15" />
<linearGradient
id="LinearGradID_454" gradientUnits="userSpaceOnUse" gradientTransform="matrix(0.00282288, 0, 0, 0.00535583, 73.9, 18.2)" spreadMethod ="pad" x1="-819.2" y1="0" x2="819.2" y2="0" >
<stop  offset="0" style="stop-color:#000000;stop-opacity:1" />
<stop  offset="0.988235" style="stop-color:#2B2443;stop-opacity:1" />
</linearGradient>
<path style="fill:url(#LinearGradID_454) " d="M72.45,18.15L72.1 17.4L71.9 16.2L71.85 16.05L71.6 14.65L72.35 15.85L71.75 13.85L73.05 14.45L73.55 15L73.3 14.85Q74.6 16.1 75.15 17.2L75.2 17.25Q76 19.2 76.15 20.95L76.2 21.15L76 22.1L75.95 22.2L75.65 22.6L75.85 21.85L75.9 21.05L75.9 21.1L75.65 21.8L75.2 22.6L75.35 22.05L75.5 21.3L75.5 21.05L75.25 21.65Q75.7 19.8 74.9 17.05L74.95 18.1L74.5 16.6Q74.85 18.25 74.5 20.25L74.45 19.6L74.45 20.2L74.3 19.55Q74.35 16.65 73.3 15.75L73.85 17.15L73.2 16.25Q73.65 17.55 73.55 18.2Q73.35 17.15 72.9 16.75L73.25 19.65Q73.05 18.15 72.65 17.3L72.85 19.85L72.45 18.15" />
<linearGradient
id="LinearGradID_455" gradientUnits="userSpaceOnUse" gradientTransform="matrix(-0.000488281, 0.00370789, -0.00456238, -0.000595093, 74.2, 19.5)" spreadMethod ="pad" x1="-819.2" y1="0" x2="819.2" y2="0" >
<stop  offset="0" style="stop-color:#493B56;stop-opacity:1" />
<stop  offset="0.454902" style="stop-color:#9C5B71;stop-opacity:1" />
<stop  offset="0.988235" style="stop-color:#4B3C56;stop-opacity:1" />
</linearGradient>
<path style="fill:url(#LinearGradID_455) " d="M74.5,23.1L74.4 23.25L74.5 22.7Q74.8 21.15 74.55 22.15L74.75 20.75L74.25 22.8L74.5 20.25Q74.85 18.25 74.5 16.6L74.95 18.1L74.9 17.05Q75.7 19.8 75.25 21.65L75.1 20.05L74.55 22.85L74.5 23.1M73.35,22.4L73.7 20.35L73.25 22L73.25 19.85L73.25 19.65L72.9 16.75Q73.35 17.15 73.55 18.2Q73.65 17.55 73.2 16.25L73.85 17.15L73.3 15.75Q74.35 16.65 74.3 19.55Q73.95 21.5 73.35 22.4" />
<linearGradient
id="LinearGradID_456" gradientUnits="userSpaceOnUse" gradientTransform="matrix(-1.52588e-05, -0.00259399, 0.00372314, -3.05176e-05, 73.7, 21.15)" spreadMethod ="pad" x1="-819.2" y1="0" x2="819.2" y2="0" >
<stop  offset="0" style="stop-color:#39213F;stop-opacity:1" />
<stop  offset="0.988235" style="stop-color:#7D586C;stop-opacity:1" />
</linearGradient>
<path style="fill:url(#LinearGradID_456) " d="M76.75,23.6L76.8 23.5L76.75 23.65L76.6 23.8L76.6 23.7L76.75 23.6M76.65,23.15L76.65 23.05L76.7 22.95L76.65 23.1L76.65 23.15M76.45,23.9L76.4 23.6L76.45 23.25L76.65 23.05L76.6 23.2L76.45 23.9M76.35,23.35L76.3 23.6L76.2 23.75L76.2 23.65L76.35 23.35M75.95,23.6L75.85 23.9L75.65 22.6L75.45 23.7L75.55 22.8L75.1 24.4Q75.1 23.15 74.95 23.75L74.95 23.4L74.95 23.45L75 22.9L74.45 23.55L74.45 23.65L74.55 22.85L75.1 20.05L75.25 21.65L75.5 21.05L75.5 21.3L75.35 22.05L75.2 22.6L75.65 21.8L75.9 21.1L75.9 21.05L75.85 21.85L75.65 22.6L75.95 22.2L76 22.1L76.25 21.8L76.05 22.35L76.05 22.4L75.9 22.75L75.8 23L75.9 22.9L76.7 21.8L76.1 23.1L76.05 22.7L75.95 23.4L75.9 23.55L75.95 23.6" />
<linearGradient
id="LinearGradID_457" gradientUnits="userSpaceOnUse" gradientTransform="matrix(0.000534058, -0.00344849, 0.00369263, 0.000564575, 73.7, 21.4)" spreadMethod ="pad" x1="-819.2" y1="0" x2="819.2" y2="0" >
<stop  offset="0" style="stop-color:#140C17;stop-opacity:1" />
<stop  offset="0.988235" style="stop-color:#7D586C;stop-opacity:1" />
</linearGradient>
<path style="fill:url(#LinearGradID_457) " d="M74.55,22.85L74.45 23.65L74.45 23.5L74.5 23.1L74.55 22.85M72.65,24.55L72.75 23.8L72.65 24.1L72.65 22.85L72.55 21.6L72.9 23.5L72.9 21.7L73.1 22.8L73.25 22L73.7 20.35L73.35 22.4Q73.95 21.5 74.3 19.55L74.45 20.2L74.45 19.6L74.5 20.25L74.25 22.8L74.75 20.75L74.55 22.15L74.25 23.3L73.95 24.15L73.85 24.3Q74.15 21.95 73.7 23.65L73.3 24.65L73.3 24.5L73.4 23.8L73.45 23.7L73.45 23.65L73.25 24L73.4 23.6L73.35 23.6L72.8 24.9L72.55 25.25L72.65 24.55" />
<linearGradient
id="LinearGradID_458" gradientUnits="userSpaceOnUse" gradientTransform="matrix(-1.52588e-05, 0.0043335, -0.00523376, -3.05176e-05, 71.95, 21.6)" spreadMethod ="pad" x1="-819.2" y1="0" x2="819.2" y2="0" >
<stop  offset="0" style="stop-color:#44324B;stop-opacity:1" />
<stop  offset="0.478431" style="stop-color:#916171;stop-opacity:1" />
<stop  offset="0.988235" style="stop-color:#3D2A44;stop-opacity:1" />
</linearGradient>
<path style="fill:url(#LinearGradID_458) " d="M72.2,25.25L72.2 25.1L72.15 21.5L71.65 24.5L71.5 22L70.55 24.85L71 22.1L71 22L71 21.9Q71.15 20.05 70.65 17.95L71.4 20.15L71.55 20.65L71.3 19.1L71.4 19.35L71.8 20.75L71.75 18.75L72.35 21.05L72 18.75L72 18.7L72.05 18.75L72.55 20.45L72.45 18.15L72.85 19.85L72.65 17.3Q73.05 18.15 73.25 19.65L73.25 19.85L73.25 22L73.1 22.8L72.9 21.7L72.9 23.5L72.55 21.6L72.65 22.85L72.2 25.25" />
<linearGradient
id="LinearGradID_459" gradientUnits="userSpaceOnUse" gradientTransform="matrix(0.000228882, 0.00312805, -0.00308228, 0.000228882, 79.8, 20.6)" spreadMethod ="pad" x1="-819.2" y1="0" x2="819.2" y2="0" >
<stop  offset="0" style="stop-color:#513247;stop-opacity:1" />
<stop  offset="0.458824" style="stop-color:#825E69;stop-opacity:1" />
<stop  offset="0.960784" style="stop-color:#412839;stop-opacity:1" />
<stop  offset="0.988235" style="stop-color:#5A3850;stop-opacity:1" />
</linearGradient>
<path style="fill:url(#LinearGradID_459) " d="M79.5,18.3L80.15 19.75L79.7 18.05L80.7 20.65L80.7 20.75Q80.85 22 80.65 22.6L80.25 21.45L80.2 22.95L79.9 21.9L79.65 23.15L79.25 21.45L79.25 22.6L79 21.65L78.8 19.7L79.25 20.55L79.15 19.4L79.8 21.55L79.45 19.15L79.95 20.3L79.5 18.3" />
<linearGradient
id="LinearGradID_460" gradientUnits="userSpaceOnUse" gradientTransform="matrix(0.000274658, 0.00276184, -0.000579834, 6.10352e-05, 78, 20.3)" spreadMethod ="pad" x1="-819.2" y1="0" x2="819.2" y2="0" >
<stop  offset="0" style="stop-color:#7A4458;stop-opacity:1" />
<stop  offset="0.494118" style="stop-color:#C9787C;stop-opacity:1" />
<stop  offset="0.988235" style="stop-color:#834A5C;stop-opacity:1" />
</linearGradient>
<path style="fill:url(#LinearGradID_460) " d="M78.1,19.9L78.05 18.05L78.35 19.6L78.4 19.7L78.3 22.55L78.2 20.65L78 22L77.9 20.9L77.65 21.7L77.75 18.8L78.1 19.9" />
<linearGradient
id="LinearGradID_461" gradientUnits="userSpaceOnUse" gradientTransform="matrix(0.000595093, 0.00302124, -0.00450134, 0.000869751, 77.7, 20.6)" spreadMethod ="pad" x1="-819.2" y1="0" x2="819.2" y2="0" >
<stop  offset="0" style="stop-color:#564354;stop-opacity:1" />
<stop  offset="0.439216" style="stop-color:#9C5555;stop-opacity:1" />
<stop  offset="1" style="stop-color:#564252;stop-opacity:1" />
</linearGradient>
<path style="fill:url(#LinearGradID_461) " d="M77,23.7L76.95 23.75L77 23.7L77 23.6Q77.6 22 77.55 20.75L76.8 22.7Q77.2 21.25 76.95 19.65L77.2 20.1L77 18.1L77.5 19.95L77.25 18.05L77.65 19.2L77.35 16.95L77.9 19L77.65 16.8L78.35 18.85L78.6 20.9L78.45 22.6L78.3 23.9L78.15 24.25L78.1 24.35L78.05 22.05L77.6 23.65L77.75 21.9L77 23.7M77.75,18.8L77.65 21.7L77.9 20.9L78 22L78.2 20.65L78.3 22.55L78.4 19.7L78.35 19.6L78.05 18.05L78.1 19.9L77.75 18.8" />
<linearGradient
id="LinearGradID_462" gradientUnits="userSpaceOnUse" gradientTransform="matrix(0.000228882, 0.00238037, -0.000610352, 6.10352e-05, 59.4, 16.9)" spreadMethod ="pad" x1="-819.2" y1="0" x2="819.2" y2="0" >
<stop  offset="0" style="stop-color:#7A4458;stop-opacity:1" />
<stop  offset="0.494118" style="stop-color:#C9787C;stop-opacity:1" />
<stop  offset="0.988235" style="stop-color:#834A5C;stop-opacity:1" />
</linearGradient>
<path style="fill:url(#LinearGradID_462) " d="M60.5,15.85L60.2 16.8L60.15 17.1L59.4 18.05L59.5 17.25Q59.2 17.3 59.05 17.85L59.3 16.8L59.2 16.8Q59.45 15.9 60 14.9Q59.7 16 59.8 16.8L59.85 16.8L59.85 17.05L59.95 16.8L59.9 16.8Q60.05 16.35 60.5 15.85" />
<linearGradient
id="LinearGradID_463" gradientUnits="userSpaceOnUse" gradientTransform="matrix(-0.000228882, 0.00747681, -0.00698853, -0.000274658, 60.9, 17.75)" spreadMethod ="pad" x1="-819.2" y1="0" x2="819.2" y2="0" >
<stop  offset="0" style="stop-color:#693A4C;stop-opacity:1" />
<stop  offset="0.494118" style="stop-color:#99606E;stop-opacity:1" />
<stop  offset="0.988235" style="stop-color:#6C3C4E;stop-opacity:1" />
</linearGradient>
<path style="fill:url(#LinearGradID_463) " d="M59.9,16.8L59.95 16.8L59.85 17.05L59.85 16.8L59.9 16.8M60.2,17.75L60.05 18.3L60.05 18.15L59.95 17.7L59.85 18.35L59.75 19L59.7 19L59.55 18.4L59.55 18.95L59.5 19.55L59.3 18.75L59.4 18.05L60.15 17.1L60.2 16.8L60.2 17.75" />
<linearGradient
id="LinearGradID_464" gradientUnits="userSpaceOnUse" gradientTransform="matrix(0.000732422, -0.00389099, 0.00498962, 0.00114441, 60.9, 16.9)" spreadMethod ="pad" x1="-819.2" y1="0" x2="819.2" y2="0" >
<stop  offset="0" style="stop-color:#362132;stop-opacity:1" />
<stop  offset="0.478431" style="stop-color:#68475B;stop-opacity:1" />
<stop  offset="0.988235" style="stop-color:#382233;stop-opacity:1" />
</linearGradient>
<path style="fill:url(#LinearGradID_464) " d="M60.2,19.35L60.15 19L60.1 19.35L60.1 19.4L60.05 19.9L60 19.15L59.55 21.1L59.5 21.05L59.5 21L59.2 19.75L59.3 20.6L59.35 20.7L59.35 21.35L59.1 20.2L59.2 21.35Q58.75 19.75 58.6 18.35L58.65 19.7L58.5 19.15L58.4 17.65L58.15 18.75L58.15 19.5L58.1 19.15L58.05 20.3L58.2 21.65L58.2 20.5L58.25 20.5Q58.45 21.25 59.2 22.7L59.2 22.8L59.15 23.25L59.1 23.25L59 22.5L58.9 22.75L58.85 22.95L58.8 22.6L58.75 22.6L58.75 22.75L58.7 22.75L58.65 22.25L58.6 23.05L58.5 22.45L58.4 21.7L58.35 21.95L58.2 22.2L58.2 21.8L58.15 21.9L58.1 21.95L58.1 21.75L57.95 22.25Q57.7 21.35 57.75 20.35L57.75 20.15L57.75 20L57.7 20.1L57.5 21.15Q57.45 19.95 57.8 18.8Q57.5 19 57.4 19.55Q57.3 18.9 58.6 17.05L58.7 16.9L58.8 16.8L58.9 16.8L59.05 16.8Q58.75 17.65 58.85 18.55L59.05 19.45L59 18.95L59.1 18.05L59.2 17.9L59.15 18.2L59.3 18.75L59.5 19.55L59.55 18.95L59.55 18.4L59.7 19L59.75 19L59.85 18.35L59.95 17.7L60.05 18.15L60.05 18.3L60.2 17.75L60.2 19.35" />
<linearGradient
id="LinearGradID_465" gradientUnits="userSpaceOnUse" gradientTransform="matrix(0.000579834, 0.00617981, -0.00456238, 0.000518799, 59.9, 18.5)" spreadMethod ="pad" x1="-819.2" y1="0" x2="819.2" y2="0" >
<stop  offset="0" style="stop-color:#7A4458;stop-opacity:1" />
<stop  offset="0.494118" style="stop-color:#C9787C;stop-opacity:1" />
<stop  offset="0.988235" style="stop-color:#834A5C;stop-opacity:1" />
</linearGradient>
<path style="fill:url(#LinearGradID_465) " d="M59.55,21.1L59.5 21.1L59.5 21.05L59.55 21.1" />
<path style="fill:#5C2D3A;fill-opacity:1" d="M59.65,22.7L59.65 23.45L59.6 23.45L59.5 23.05L59.5 23.15L59.35 22.75L59.3 22.95L59.25 22.8L59.2 22.7Q58.45 21.25 58.25 20.5L58.2 20.5L58.2 21.65L58.05 20.3L58.1 19.15L58.15 19.5L58.15 18.75L58.4 17.65L58.5 19.15Q58.45 20.55 59.25 21.85L59.25 22.3L59.8 20.95L59.75 22.3L59.65 22.65L59.65 22.7" />
<linearGradient
id="LinearGradID_466" gradientUnits="userSpaceOnUse" gradientTransform="matrix(-0.000213623, 0.00595093, -0.00775146, -0.000274658, 61, 17.35)" spreadMethod ="pad" x1="-819.2" y1="0" x2="819.2" y2="0" >
<stop  offset="0" style="stop-color:#693A4C;stop-opacity:1" />
<stop  offset="0.494118" style="stop-color:#99606E;stop-opacity:1" />
<stop  offset="1" style="stop-color:#59313F;stop-opacity:1" />
</linearGradient>
<path style="fill:url(#LinearGradID_466) " d="M59.7,22.65L59.65 22.7L59.65 22.65L59.75 22.3L59.7 22.65" />
<linearGradient
id="LinearGradID_467" gradientUnits="userSpaceOnUse" gradientTransform="matrix(0.00050354, 0, 0, 0.0052948, 70.1, 21.85)" spreadMethod ="pad" x1="-819.2" y1="0" x2="819.2" y2="0" >
<stop  offset="0" style="stop-color:#302A46;stop-opacity:1" />
<stop  offset="0.470588" style="stop-color:#71434B;stop-opacity:1" />
<stop  offset="0.956863" style="stop-color:#312B47;stop-opacity:1" />
</linearGradient>
<path style="fill:url(#LinearGradID_467) " d="M81.45,15.8L80.65 14.55L79.4 13.35Q79.95 13.05 80.75 14.1Q81.5 15 81.5 15.55L81.45 15.8M76.65,10.3Q77.75 10.2 78.5 10.75Q79.2 11.15 79.35 11.75L79.3 11.8L78.45 11L76.65 10.3M75.45,9.5Q76.2 10.4 76.2 11.3L76.15 12.05L76 12.1L75.2 10.25Q74.6 9.1 73.55 8.55L73.55 8.4Q74.65 8.55 75.45 9.5M63.25,11.55L63.05 11.55L63 11Q63 10.45 63.5 10.1Q64.15 9.65 65.35 9.7Q64.3 10.05 63.7 10.45L63.25 11.55M60.55,13.95L60.4 14.1Q60.25 13.9 60.25 13.6Q60.25 12.85 61.1 11.95Q62 10.95 62.8 11.25Q61.7 11.75 61.15 12.45L60.55 13.95M63.65,13.4Q63.4 13.65 62.9 14.9L62.25 16.9L62.35 14.95Q62.65 12.9 63.75 12.85L63.8 13L63.65 13.4" />
<linearGradient
id="LinearGradID_468" gradientUnits="userSpaceOnUse" gradientTransform="matrix(0.00062561, -0.00132751, 0.000106812, 4.57764e-05, 67.6, 12.5)" spreadMethod ="pad" x1="-819.2" y1="0" x2="819.2" y2="0" >
<stop  offset="0" style="stop-color:#FFFFFF;stop-opacity:0" />
<stop  offset="0.494118" style="stop-color:#FFEED9;stop-opacity:0.411765" />
<stop  offset="1" style="stop-color:#FFFFFF;stop-opacity:0" />
</linearGradient>
<path style="fill:url(#LinearGradID_468) " d="M68.2,11.4L67.75 12.45L67.1 13.55L67.6 12.3Q67.85 11.65 68.2 11.4" />
<linearGradient
id="LinearGradID_469" gradientUnits="userSpaceOnUse" gradientTransform="matrix(0.000656128, -0.00140381, 0.000457764, 0.000213623, 68.6, 12.75)" spreadMethod ="pad" x1="-819.2" y1="0" x2="819.2" y2="0" >
<stop  offset="0" style="stop-color:#FFFFFF;stop-opacity:0" />
<stop  offset="0.494118" style="stop-color:#FFEED9;stop-opacity:0.411765" />
<stop  offset="1" style="stop-color:#FFFFFF;stop-opacity:0" />
</linearGradient>
<path style="fill:url(#LinearGradID_469) " d="M69,11.6Q68.6 12 68.5 12.75L68.45 14.1L68.4 14.15L68.35 13.35L68.4 12.4Q68.45 11.95 68.95 11.55L69 11.6" />
<linearGradient
id="LinearGradID_470" gradientUnits="userSpaceOnUse" gradientTransform="matrix(0.000427246, -0.000900269, 0.000976562, 0.000473022, 65.15, 13.55)" spreadMethod ="pad" x1="-819.2" y1="0" x2="819.2" y2="0" >
<stop  offset="0" style="stop-color:#FFFFFF;stop-opacity:0" />
<stop  offset="0.494118" style="stop-color:#FFEED9;stop-opacity:0.411765" />
<stop  offset="1" style="stop-color:#FFFFFF;stop-opacity:0" />
</linearGradient>
<path style="fill:url(#LinearGradID_470) " d="M64.85,12.45L65.7 14.35L65.7 14.65Q64.75 12.9 64.75 12.55L64.75 12.45L64.85 12.45" />
<linearGradient
id="LinearGradID_471" gradientUnits="userSpaceOnUse" gradientTransform="matrix(0.000350952, -0.00138855, -0.00476074, -0.000946045, 67.35, 18.1)" spreadMethod ="pad" x1="-819.2" y1="0" x2="819.2" y2="0" >
<stop  offset="0" style="stop-color:#FFFFFF;stop-opacity:0" />
<stop  offset="0.454902" style="stop-color:#FFFFFF;stop-opacity:0.211765" />
<stop  offset="1" style="stop-color:#FFFFFF;stop-opacity:0" />
</linearGradient>
<path style="fill:url(#LinearGradID_471) " d="M66.95,16.1L67.75 17.75L67.3 15.1Q68 16.3 68.15 17.35Q68.5 19.4 67.05 21.1Q67.75 19.1 67.3 17.15L66.95 16.1" />
<linearGradient
id="LinearGradID_472" gradientUnits="userSpaceOnUse" gradientTransform="matrix(0.000198364, -0.00158691, -0.00483704, -0.000595093, 67.35, 18.65)" spreadMethod ="pad" x1="-819.2" y1="0" x2="819.2" y2="0" >
<stop  offset="0" style="stop-color:#FFFFFF;stop-opacity:0" />
<stop  offset="0.454902" style="stop-color:#FFFFFF;stop-opacity:0.211765" />
<stop  offset="1" style="stop-color:#FFFFFF;stop-opacity:0" />
</linearGradient>
<path style="fill:url(#LinearGradID_472) " d="M66.65,17.15L66.75 17.5Q67.25 19.75 66.45 21.75L66.4 19.8Q66.7 18.15 66.25 15.8L66.65 17.15" />
<linearGradient
id="LinearGradID_473" gradientUnits="userSpaceOnUse" gradientTransform="matrix(-0.000930786, 0.00360107, -0.00376892, -0.000976562, 63.8, 20.65)" spreadMethod ="pad" x1="-819.2" y1="0" x2="819.2" y2="0" >
<stop  offset="0" style="stop-color:#FFFFFF;stop-opacity:0" />
<stop  offset="0.470588" style="stop-color:#FFFFFF;stop-opacity:0.372549" />
<stop  offset="1" style="stop-color:#FFFFFF;stop-opacity:0" />
</linearGradient>
<path style="fill:url(#LinearGradID_473) " d="M63.5,20.65L63 22.5L63.25 20.3Q63.5 19 64.15 17.5L63.75 20.25L64.55 18.1L63.45 23.9L63.5 20.65" />
<linearGradient
id="LinearGradID_474" gradientUnits="userSpaceOnUse" gradientTransform="matrix(-6.10352e-05, -0.00285339, 0.00439453, -0.00012207, 62.4, 16.75)" spreadMethod ="pad" x1="-819.2" y1="0" x2="819.2" y2="0" >
<stop  offset="0" style="stop-color:#FFFFFF;stop-opacity:0" />
<stop  offset="0.486275" style="stop-color:#FFFFFF;stop-opacity:0.45098" />
<stop  offset="1" style="stop-color:#FFFFFF;stop-opacity:0" />
</linearGradient>
<path style="fill:url(#LinearGradID_474) " d="M63,18.1L62.65 20.1L62.55 18.8Q62.45 17.45 62.8 16.3Q63.15 15.05 63.8 13.85Q63.35 15.15 63.2 16.25L63 18.1" />
<linearGradient
id="LinearGradID_475" gradientUnits="userSpaceOnUse" gradientTransform="matrix(-0.000915527, -0.00218201, 0.00186157, -0.000778198, 75.5, 16.8)" spreadMethod ="pad" x1="-819.2" y1="0" x2="819.2" y2="0" >
<stop  offset="0" style="stop-color:#FFFFFF;stop-opacity:0" />
<stop  offset="0.470588" style="stop-color:#FFFFFF;stop-opacity:0.372549" />
<stop  offset="1" style="stop-color:#FFFFFF;stop-opacity:0" />
</linearGradient>
<path style="fill:url(#LinearGradID_475) " d="M76.15,17.3Q76.45 18.65 76.15 19.3Q75.9 16.8 74.5 15.05Q75.3 15.45 75.95 16.55L75.5 14.7Q76.45 15.65 76.65 18.35L76.15 17.3" />
<linearGradient
id="LinearGradID_476" gradientUnits="userSpaceOnUse" gradientTransform="matrix(-0.000427246, 0.00202942, -0.00314331, -0.000595093, 77.95, 20.5)" spreadMethod ="pad" x1="-819.2" y1="0" x2="819.2" y2="0" >
<stop  offset="0" style="stop-color:#FFFFFF;stop-opacity:0" />
<stop  offset="0.470588" style="stop-color:#FFFFFF;stop-opacity:0.372549" />
<stop  offset="1" style="stop-color:#FFFFFF;stop-opacity:0" />
</linearGradient>
<path style="fill:url(#LinearGradID_476) " d="M78,20.5L78 17.9Q78.5 20.4 78.25 22.6L78 21.25L77.6 23.15L77.65 18.75L78 20.5" />
<linearGradient
id="LinearGradID_477" gradientUnits="userSpaceOnUse" gradientTransform="matrix(0.00135803, 0.00288391, -0.00331116, 0.00157166, 77.2, 15.1)" spreadMethod ="pad" x1="-819.2" y1="0" x2="819.2" y2="0" >
<stop  offset="0" style="stop-color:#FFFFFF;stop-opacity:0" />
<stop  offset="0.470588" style="stop-color:#FFFFFF;stop-opacity:0.372549" />
<stop  offset="1" style="stop-color:#FFFFFF;stop-opacity:0" />
</linearGradient>
<path style="fill:url(#LinearGradID_477) " d="M78.4,15.35L78.45 15.5L79.1 18.05L78.15 16.05L78.55 18.1Q77.5 14.45 75.3 12.1Q77.25 13.6 77.9 15.05L77.2 12.75L78.4 15.35" />
<linearGradient
id="LinearGradID_478" gradientUnits="userSpaceOnUse" gradientTransform="matrix(0.000183105, -0.00224304, 0.00410461, 0.000320435, 73.35, 18.75)" spreadMethod ="pad" x1="-819.2" y1="0" x2="819.2" y2="0" >
<stop  offset="0" style="stop-color:#FFFFFF;stop-opacity:0" />
<stop  offset="0.486275" style="stop-color:#FFFFFF;stop-opacity:0.45098" />
<stop  offset="1" style="stop-color:#FFFFFF;stop-opacity:0" />
</linearGradient>
<path style="fill:url(#LinearGradID_478) " d="M74,16.25L74.1 16.85L74.15 17.5L74.2 19.3L73.55 22.2L73.85 19.6L72.95 22.05Q73.55 19.85 73.35 17.65L73.25 16.75L73 15.45L73.45 16.7L73.6 17.6L73.8 19.1L73.85 17.6L73.9 16.65L73.7 15.25L74.05 16.3L74 16.25" />
<linearGradient
id="LinearGradID_479" gradientUnits="userSpaceOnUse" gradientTransform="matrix(-0.00012207, -0.00134277, 0.00299072, -0.00108337, 74.35, 19.1)" spreadMethod ="pad" x1="-819.2" y1="0" x2="819.2" y2="0" >
<stop  offset="0" style="stop-color:#FFFFFF;stop-opacity:0" />
<stop  offset="0.486275" style="stop-color:#FFFFFF;stop-opacity:0.45098" />
<stop  offset="1" style="stop-color:#FFFFFF;stop-opacity:0" />
</linearGradient>
<path style="fill:url(#LinearGradID_479) " d="M74.05,16.3L74.25 16.75L74.8 18.4L74.8 17.2Q75.35 19 75.15 20.9L75 20.1L74.45 21.65Q75.05 19.8 74.1 16.85L74 16.25L74.05 16.3" />
<linearGradient
id="LinearGradID_480" gradientUnits="userSpaceOnUse" gradientTransform="matrix(-0.000579834, 0.00283813, -0.000610352, -0.00012207, 80.05, 21)" spreadMethod ="pad" x1="-819.2" y1="0" x2="819.2" y2="0" >
<stop  offset="0" style="stop-color:#FFFFFF;stop-opacity:0" />
<stop  offset="0.470588" style="stop-color:#FFFFFF;stop-opacity:0.372549" />
<stop  offset="1" style="stop-color:#FFFFFF;stop-opacity:0" />
</linearGradient>
<path style="fill:url(#LinearGradID_480) " d="M80.4,20.95Q80.4 22.3 80.05 23.45L80 21.15L79.55 23.2L79.6 18.9L79.95 21L80 18.65L80.4 20.95" />
<linearGradient
id="LinearGradID_481" gradientUnits="userSpaceOnUse" gradientTransform="matrix(0.000152588, -0.00216675, 0.00309753, 0.000274658, 60.95, 19.9)" spreadMethod ="pad" x1="-819.2" y1="0" x2="819.2" y2="0" >
<stop  offset="0" style="stop-color:#FFFFFF;stop-opacity:0" />
<stop  offset="0.470588" style="stop-color:#FFFFFF;stop-opacity:0.372549" />
<stop  offset="1" style="stop-color:#FFFFFF;stop-opacity:0" />
</linearGradient>
<path style="fill:url(#LinearGradID_481) " d="M60.75,21.05L60.5 22.25Q60 20.7 60.4 18.8L60.55 20.75L60.8 17.35L60.85 20.3L61.35 18.45L61.15 22.45L60.75 21.05" />
<linearGradient
id="LinearGradID_482" gradientUnits="userSpaceOnUse" gradientTransform="matrix(0.000213623, -0.00198364, 0.00312805, 0.000350952, 69.55, 21.15)" spreadMethod ="pad" x1="-819.2" y1="0" x2="819.2" y2="0" >
<stop  offset="0" style="stop-color:#FFFFFF;stop-opacity:0" />
<stop  offset="0.501961" style="stop-color:#FFFFFF;stop-opacity:0.262745" />
<stop  offset="1" style="stop-color:#FFFFFF;stop-opacity:0" />
</linearGradient>
<path style="fill:url(#LinearGradID_482) " d="M70.2,19.2L69.55 24.3L69.45 20.7L68.85 23.8Q68.85 21.65 69.4 19.15L69.7 21.25L70.2 19.2" />
<linearGradient
id="LinearGradID_483" gradientUnits="userSpaceOnUse" gradientTransform="matrix(0.000350952, -0.00158691, 0.0040741, 0.000228882, 71.5, 21.45)" spreadMethod ="pad" x1="-819.2" y1="0" x2="819.2" y2="0" >
<stop  offset="0" style="stop-color:#FFFFFF;stop-opacity:0" />
<stop  offset="0.501961" style="stop-color:#FFFFFF;stop-opacity:0.262745" />
<stop  offset="1" style="stop-color:#FFFFFF;stop-opacity:0" />
</linearGradient>
<path style="fill:url(#LinearGradID_483) " d="M72.15,19L72.4 19.7L72.35 19.65L72.4 20.1L72.4 20.6L72.3 21.85Q72 23.15 71.45 23.9L71.95 22.05L70.85 23.8Q71.7 22.2 71.65 20.7L71.55 20L71.4 19.15L71.8 20L71.9 20.65L71.95 21.7L72.1 20.65L72.2 19.95L72.15 19" />
<linearGradient
id="LinearGradID_484" gradientUnits="userSpaceOnUse" gradientTransform="matrix(0.000564575, -0.00280762, 0.00431824, 0.00088501, 60.4, 16)" spreadMethod ="pad" x1="-819.2" y1="0" x2="819.2" y2="0" >
<stop  offset="0" style="stop-color:#FFFFFF;stop-opacity:0" />
<stop  offset="0.486275" style="stop-color:#FFFFFF;stop-opacity:0.45098" />
<stop  offset="1" style="stop-color:#FFFFFF;stop-opacity:0" />
</linearGradient>
<path style="fill:url(#LinearGradID_484) " d="M59.9,15.35Q60.55 13.95 61.85 12.7L60.3 15.45L61.85 13.75Q61.15 14.6 60.6 15.5Q59.95 16.65 59.6 17.95Q59.35 18.7 59.25 19.5L59.2 17.85Q59.25 16.5 59.9 15.35" />
<linearGradient
id="LinearGradID_485" gradientUnits="userSpaceOnUse" gradientTransform="matrix(-0.000579834, -0.00178528, -0.00254822, 0.00125122, 70.55, 14.4)" spreadMethod ="pad" x1="-819.2" y1="0" x2="819.2" y2="0" >
<stop  offset="0" style="stop-color:#FFFFFF;stop-opacity:0" />
<stop  offset="0.470588" style="stop-color:#FFFFFF;stop-opacity:0.411765" />
<stop  offset="1" style="stop-color:#FFFFFF;stop-opacity:0" />
</linearGradient>
<path style="fill:url(#LinearGradID_485) " d="M70.8,14L70.15 13Q71.95 14.8 71.9 17Q71.65 15.65 71.1 15L71.65 17.15L71.15 15.8L70.95 15.3Q70.35 13.55 69.2 12.55Q70.05 13 70.8 14" />
<linearGradient
id="LinearGradID_486" gradientUnits="userSpaceOnUse" gradientTransform="matrix(0.00106812, 0, 0, 0.00286865, 70.25, 17.1)" spreadMethod ="pad" x1="-819.2" y1="0" x2="819.2" y2="0" >
<stop  offset="0" style="stop-color:#634358;stop-opacity:1" />
<stop  offset="0.47451" style="stop-color:#A2585F;stop-opacity:1" />
<stop  offset="0.988235" style="stop-color:#5E4257;stop-opacity:1" />
</linearGradient>
<path style="fill:url(#LinearGradID_486) " d="M69.4,14.75L70 15.7L70.4 16.85L71.15 19.4L71.1 19.45L70.4 17.1L69.4 14.85L69.4 14.75" />
<linearGradient
id="LinearGradID_487" gradientUnits="userSpaceOnUse" gradientTransform="matrix(0.000427246, 0, 0, 0.00402832, 69.8, 18.75)" spreadMethod ="pad" x1="-819.2" y1="0" x2="819.2" y2="0" >
<stop  offset="0" style="stop-color:#634358;stop-opacity:1" />
<stop  offset="0.47451" style="stop-color:#A2585F;stop-opacity:1" />
<stop  offset="0.988235" style="stop-color:#5E4257;stop-opacity:1" />
</linearGradient>
<path style="fill:url(#LinearGradID_487) " d="M69.55,15.45L69.95 17.8L70.15 20.1L70.05 22L70 22.05L69.95 21.95L70.05 20.25Q70.05 19.2 69.45 16.3L69.45 15.45L69.55 15.45" />
<linearGradient
id="LinearGradID_488" gradientUnits="userSpaceOnUse" gradientTransform="matrix(0.00144958, -0.00563049, 0.0045929, 0.00123596, 67.45, 19.2)" spreadMethod ="pad" x1="-819.2" y1="0" x2="819.2" y2="0" >
<stop  offset="0" style="stop-color:#402B38;stop-opacity:1" />
<stop  offset="0.47451" style="stop-color:#744553;stop-opacity:1" />
<stop  offset="1" style="stop-color:#422A3A;stop-opacity:1" />
</linearGradient>
<path style="fill:url(#LinearGradID_488) " d="M67.8,18.3L67.15 23.05L67.1 23.1L67.05 22.9Q67.6 19.8 67.6 16.6Q67.6 15.35 67.85 15.3Q67.7 15.55 67.7 16.3L67.8 18.3" />
<linearGradient
id="LinearGradID_489" gradientUnits="userSpaceOnUse" gradientTransform="matrix(0.000671387, 0, 0, 0.003479, 69.1, 22)" spreadMethod ="pad" x1="-819.2" y1="0" x2="819.2" y2="0" >
<stop  offset="0" style="stop-color:#402B38;stop-opacity:1" />
<stop  offset="0.47451" style="stop-color:#744553;stop-opacity:1" />
<stop  offset="1" style="stop-color:#422A3A;stop-opacity:1" />
</linearGradient>
<path style="fill:url(#LinearGradID_489) " d="M69.65,19.15Q69.8 21.95 68.65 24.85L68.6 24.85L68.55 24.75Q68.55 24.45 68.9 23.4L69.25 22.1L69.45 20.55Q69.5 19.5 69.65 19.15" />
<linearGradient
id="LinearGradID_490" gradientUnits="userSpaceOnUse" gradientTransform="matrix(0.00134277, 0, 0, 0.00296021, 75.15, 16.95)" spreadMethod ="pad" x1="-819.2" y1="0" x2="819.2" y2="0" >
<stop  offset="0" style="stop-color:#634358;stop-opacity:1" />
<stop  offset="0.47451" style="stop-color:#A2585F;stop-opacity:1" />
<stop  offset="0.988235" style="stop-color:#5E4257;stop-opacity:1" />
</linearGradient>
<path style="fill:url(#LinearGradID_490) " d="M74.15,14.55Q75.75 16.75 76.25 18.75L76.25 19.4L76.2 19.4Q76.1 18.2 75.4 16.85L74.05 14.6L74.15 14.55" />
<linearGradient
id="LinearGradID_491" gradientUnits="userSpaceOnUse" gradientTransform="matrix(0.00192261, 0, 0, 0.00335693, 74.4, 16.95)" spreadMethod ="pad" x1="-819.2" y1="0" x2="819.2" y2="0" >
<stop  offset="0" style="stop-color:#634358;stop-opacity:1" />
<stop  offset="0.47451" style="stop-color:#A2585F;stop-opacity:1" />
<stop  offset="0.988235" style="stop-color:#5E4257;stop-opacity:1" />
</linearGradient>
<path style="fill:url(#LinearGradID_491) " d="M72.9,14.2L74.9 16.55Q75.7 17.8 76 19.2L76 19.7L75.95 19.7Q75.85 18.3 74.85 16.75L72.85 14.2L72.9 14.2" />
<linearGradient
id="LinearGradID_492" gradientUnits="userSpaceOnUse" gradientTransform="matrix(0.000946045, 0, 0, 0.00234985, 72.6, 15.7)" spreadMethod ="pad" x1="-819.2" y1="0" x2="819.2" y2="0" >
<stop  offset="0" style="stop-color:#634358;stop-opacity:1" />
<stop  offset="0.47451" style="stop-color:#A2585F;stop-opacity:1" />
<stop  offset="0.988235" style="stop-color:#5E4257;stop-opacity:1" />
</linearGradient>
<path style="fill:url(#LinearGradID_492) " d="M71.9,13.8Q73.1 15.6 73.35 17.6L73.4 17.65L73.3 17.65Q73 15.8 71.85 13.8L71.9 13.8" />
<linearGradient
id="LinearGradID_493" gradientUnits="userSpaceOnUse" gradientTransform="matrix(0.000427246, 0, 0, 0.00253296, 75.1, 21.15)" spreadMethod ="pad" x1="-819.2" y1="0" x2="819.2" y2="0" >
<stop  offset="0" style="stop-color:#634358;stop-opacity:1" />
<stop  offset="0.47451" style="stop-color:#A2585F;stop-opacity:1" />
<stop  offset="0.988235" style="stop-color:#5E4257;stop-opacity:1" />
</linearGradient>
<path style="fill:url(#LinearGradID_493) " d="M75.4,19.1L75.45 19.5L75.25 21.7L74.75 23.25L75.2 21.15L75.3 19.1L75.4 19.1" />
</g>
</svg>
