<?xml version="1.0" encoding="utf-8"?>
<svg version="1.1" id="Layer_1"
xmlns="http://www.w3.org/2000/svg"
xmlns:xlink="http://www.w3.org/1999/xlink"
xmlns:author="http://www.sothink.com"
width="29px" height="25px"
xml:space="preserve">
<g id="9" transform="matrix(1, 0, 0, 1, -55.2, -10.9)">
<linearGradient
id="LinearGradID_106" gradientUnits="userSpaceOnUse" gradientTransform="matrix(-0.00317383, 0.000839233, -0.0215302, -0.0783997, 67.75, 18.1)" spreadMethod ="pad" x1="-819.2" y1="0" x2="819.2" y2="0" >
<stop  offset="0" style="stop-color:#46464A;stop-opacity:1" />
<stop  offset="1" style="stop-color:#292627;stop-opacity:1" />
</linearGradient>
<path style="fill:url(#LinearGradID_106) " d="M83.1,21.1L83.5 22.55L83.55 22.8L83.55 23Q83.95 25 83.75 26.15Q83.7 25.55 83.7 26.2L83.5 27.85L83.3 28.35L83.15 28.6L82.95 29.05L82.85 29.2L82.8 29.3L82.75 29.3L82.9 28.95L83 28.6L83.35 27.65L83.55 27L83.65 25.4L83.55 24.6L83.55 24.45L83.5 25L83.5 24.6L83.5 24.15L83.45 24L83.45 23.95L83.3 23.25L83.35 23.25L83.45 23.7Q83.45 22.55 82.5 21.1L82.35 20.6L82.3 20.55L82.25 20.55L82.15 20.35L82.45 20.7L83.15 21.6Q82.7 20.2 81.5 18.9L81.75 19.1Q82.8 20.15 83.1 21.1M80.25,17.85L80.05 17.75L80.1 17.75L80.3 17.85L80.85 18.25L80.85 18.2L80.65 17.75L80.45 17.3L80.25 16.95L80.25 16.9L79.65 16.1L79.35 15.75L79.25 15.65L79.2 15.55L79.15 15.5L79.25 15.6L79.3 15.65Q80.65 17.05 81 18.4L80.45 18L80.25 17.85M80.9,18.5L81.05 18.6L81.1 18.8L81.1 19.05L80.95 18.65L80.9 18.5M57.9,19.95L57.5 20.35L57 20.65L57.55 20.2L57.95 19.65L58.2 19.25L58.25 19.2L58.65 18.75L58.3 19.25L58.15 19.5L58.05 19.75L57.9 19.95M62.9,13.75L62.65 13.8L62.5 13.75L62.1 13.75Q61.7 13.8 61.9 13.65L62.55 13.4L62.95 13.4L63 13.4L63.55 13.2L63.9 13.15L65.2 13.9L64.9 13.5L64.65 13.1L64.9 13.25L65.1 13.4L65.1 13.35L65 13L65.15 13.1L65.25 13.3L65.3 13.3L65.35 12.75L65.55 13.1L65.8 13.4L65.75 12.7L65.85 12.1L66 12.3L66.1 12.45L66.4 12.2Q66.5 12.1 66.7 12.1L67.05 12.5L67.25 12.95L67.25 12L67.35 12L67.3 11.95L67.1 11.65L66.45 11.8L66.3 11.95L66.2 12L66.1 12L66.15 11.95Q66.9 11.35 67.25 11.5Q67.55 11.55 67.55 12L67.55 12.05L67.55 12.15L67.6 13.45L67.65 13.5L67.9 12.35L68.2 11.4L68.5 11.35L68.85 11.15L69.75 10.9L70.1 10.9L69.75 10.95L68.7 11.35L68.65 11.4L68.7 11.45L68.75 11.45L68.95 11.5L69.5 11.25L69.75 11.1L70 11L70.2 11L69.9 11.35L69.75 11.6L69.45 12.15L69.4 12.15L69.3 11.65L69.05 12.15L68.95 13L68.85 13.95L68.7 13.7L68.65 13.5Q68.4 14.15 68.55 15.6L68.55 15.65L68.45 16.4L68.4 16.45L68 15.9L67.55 15.45L68.2 16.85L68.5 17.65L68.2 17.5L68.35 17.75L68.5 18.55L68.5 18.75L68.05 18.5L67.65 18.15L67.65 18.45L67.65 18.55L67.7 18.6L67.7 18.75L67.1 18.45L67.1 18.4L66.8 18.05L65.5 16.55Q64.75 15.95 63.6 15.75L64.95 15.8L61.7 15.45L60.55 15.35L60.6 15.2L61.05 15.1L61.95 15.05L61.65 15L61.35 14.9L61.3 14.9L61.4 14.9L62.05 14.85L62.65 14.9L62.9 14.9L62.35 14.7L62.05 14.55L62.05 14.45L62.3 14.45L63.55 14.65L63.6 14.65Q62.65 14.1 62.45 14.1L62.65 14.1L62.75 14.05Q63 14.05 63.7 14.35L64.4 14.6L66.05 16.2L65.85 16.2L66.7 17.2L67.6 18.05L67.6 17.85L67.55 17.4L67.95 17.7L67.55 16.4L67.25 15.75L67.2 15.65L67.2 15.6L66.95 15.2L66.95 15L67.7 15.45L68.35 16.05L68.35 16L68.1 15.55L67.85 15.05L67.85 15Q67.5 14.3 67.7 13.65L67.65 13.65L67.55 13.95L67.5 14.45L67.35 14.15L67.25 13.55L67.15 13L66.95 13.5L66.85 14.65L66.85 14.7Q66.65 14.15 66.55 12.6L66.2 13.75L66.15 14.25L66.05 14.05L65.9 13.7L65.85 13.7L65.75 14.4L65.75 15.05L65.35 14.8L65.3 14.75L65 14.5L63.55 13.55L62.9 13.75M73.85,12.15L74.75 12.2L75.05 12.4L74.75 12.3L74.5 12.3L74.2 12.3Q73.5 12.3 73.05 12.55L72.65 12.9L72.65 12.85L72.9 12.55L73.55 12.25L73.85 12.15M77.65,14.25Q79 14.75 79.7 15.55Q80.2 16.1 80.55 17.15L80.2 16.45L79.5 15.6L78.7 15.05L78.3 14.8L78 14.5L77.75 14.4L77.5 14.3L77.1 14.1L77.15 14.05L77.2 14.1L77.45 14.2L77.55 14.2L77.65 14.25M72,12.35L71.55 13.1L71.5 13.1L71.45 12.9L71.9 12.25L72.6 11.6L72 12.35" />
<linearGradient
id="LinearGradID_107" gradientUnits="userSpaceOnUse" gradientTransform="matrix(0.00332642, 0, 0, 0.00878906, 80.7, 21.7)" spreadMethod ="pad" x1="-819.2" y1="0" x2="819.2" y2="0" >
<stop  offset="0" style="stop-color:#5D504A;stop-opacity:1" />
<stop  offset="1" style="stop-color:#2E2B33;stop-opacity:1" />
</linearGradient>
<path style="fill:url(#LinearGradID_107) " d="M81.1,18.65L81.05 18.6L80.9 18.5L80.3 18.1L80.15 18.05L79.95 18.05L79.15 17.25L79.7 17.3L80.1 17.3L80.4 17.85L80.3 17.85L80.1 17.75L80.05 17.75L80.25 17.85L80.2 17.85L80.45 18L81 18.4L81.65 19L81.75 19.1L81.5 18.9L81.1 18.65M80.5,19.65L80.2 19.3L79.7 18.7L79.7 18.65L81.95 21.15L82.15 21.4L82.2 21.4L81.15 19.75L80 18.1L81.75 20L82.35 21.05L83.3 23.45L83.05 23.25L82.8 23.05L83.2 24.05L83.45 25.1L83.4 25.05L83.2 24.9Q83.4 25.15 83.4 26.1L83.4 26.45L83.15 26.15L83.15 26.25L83.2 26.55L83.3 26.9L83.2 27.2L83.2 27.85L83.15 27.7L83.1 27.55L83.05 28.2L83 28.25L82.8 28.9L82.7 28.45L82.5 28.85L82.5 28.65L82.55 28.4L82.65 28.1L82.8 27.55L82.8 26.95L82.8 26.4L82.95 26.75L83.05 27L83 25.8L82.8 24.55L82.95 24.65L83.1 24.8L82.85 23.75L82.4 22.7L82.6 22.85Q82.15 21.7 81.35 20.7L81.1 20.4L81.05 20.3L80.55 19.7L80.5 19.65M79.15,15.5L79.2 15.55L78.5 15.15L78.4 15.1L78.35 15L78 14.5L78.3 14.8L79.25 15.6L79.15 15.5M79.65,16.1L80.25 16.9L80.25 16.95L79.85 16.6L79.9 16.8L80 17.05Q79.75 16.5 78.45 15.65L79.25 15.65L79.35 15.75L79.55 16L79.65 16.1" />
<path style="fill:#433939;fill-opacity:1" d="M79.9,18.05L79.95 18.05L80.15 18.05L80.3 18.1L80.95 18.65L81.1 19.05L81.1 18.8L82.15 20.35L82.25 20.55L82.3 20.55L82.35 20.6L82.5 21.1L82.6 21.35L83.3 23.45L83.5 24.6L83.5 25L83.5 25.05L83.35 27.55L83.35 27.65L83 28.6L82.9 28.95L82.75 29.3L82.8 29.3L82.85 29.2L82.95 29.05L82.85 29.3L82.6 29.8L82.6 29.75L82.55 29.2L82.5 28.85L82.7 28.45L82.8 28.9L83 28.25L83.05 28.2L83.1 27.55L83.15 27.7L83.2 27.85L83.2 27.2L83.3 26.9L83.2 26.55L83.15 26.25L83.15 26.15L83.4 26.45L83.4 26.1Q83.4 25.15 83.2 24.9L83.4 25.05L83.45 25.1L83.2 24.05L82.8 23.05L83.05 23.25L83.3 23.45L82.35 21.05L81.75 20L80 18.1L79.9 18.05M83.15,28.6L83.3 28.35L83.5 28.8L83.15 28.6" />
<path style="fill:#221E1F;fill-opacity:1" d="M78.95,22.5Q78.85 22.3 78.75 22.35L78.3 21.85L78.05 21.65L78.1 21.65L78.5 21.85L78.75 21.95Q79.2 22.15 79.75 22.9Q79.4 22.05 78.3 20.85L77.8 20.3L77.45 19.9L78.55 20.35L79.55 21.05L79.55 21L79.05 20.3L78.45 19.55L78.2 19.15L78.95 19.55L79.75 20.3L80.15 20.75L79.9 20.3L79.45 19.7L79.2 19.4L78.55 18.7L79.05 19L79.9 19.7L79.9 19.65L79.15 18.35L78.2 17.3Q79.05 17.7 79.7 18.45L79.3 18.4L80.2 19.3L80.5 19.65L80.55 19.7L80.95 20.3L81.1 20.55L81.55 21.4L82.25 23.35L82.3 23.65L82.35 24.05L82.4 25L82.4 25.55L82.3 26.75L82.1 27.55L82 27.5L81.95 27.6L81.9 27.8L81.85 27.8L81.6 27.95L81.55 27.75L81.35 28L81.15 28.15L81.1 28.15L81.1 28.1L81.25 27.8L81.35 27.35L81.4 27.35L81.45 27.7L81.65 27.15L81.7 27.5L81.95 26.95L82 26.4L82.05 26.55L82.1 26.8L82.15 26.8L82.2 26.35L82.25 26.45L82.25 25.75L81.95 23.2L81.7 22.65L81.2 21.6L81.1 21.45L80.3 20.3L80.5 20.65L80.9 21.6L81.1 22.15L81.35 23.15L81.1 22.75L80.2 21.35L79.5 20.45L80 21.3L80.8 22.9L81.1 24.45L81.15 24.9L81.1 24.75L80.65 23.4L79.4 21.25L80.1 22.95L80.9 25.7L80.4 24.2L79.3 22.55L80.2 24.45L80.65 26.7L80.65 26.95L80.7 27.1L80.7 27.35L80.7 27.55L80.75 27.95L80.75 28.4L80.85 28.15L81 27.85L81.05 27.95L81.05 28.1L80.9 28.35L80.85 28.45L80.7 28.6L80.7 28.3L80.6 27.3Q80.5 25.95 80 24.6Q79.7 23.6 79 22.65L78.95 22.5M79.9,25.6L79.35 23.85L79.1 23.15L79.65 24.15L80 25.25Q80.4 26.95 80.3 29.1L79.9 25.6" />
<linearGradient
id="LinearGradID_108" gradientUnits="userSpaceOnUse" gradientTransform="matrix(0.00688171, 0, 0, 0.0092926, 76.85, 21.5)" spreadMethod ="pad" x1="-819.2" y1="0" x2="819.2" y2="0" >
<stop  offset="0" style="stop-color:#2C2726;stop-opacity:1" />
<stop  offset="1" style="stop-color:#121112;stop-opacity:1" />
</linearGradient>
<path style="fill:url(#LinearGradID_108) " d="M82.55,29.2L82.6 29.75L82.4 30.35L82.35 30.35Q82.05 28.75 81.7 28.75Q81.4 28.75 81.1 29.15L80.65 30.1L80.6 30.25L80.6 30.2L80.55 29.95L80.6 29.6L80.6 29.4L80.6 29.15L80.6 28.95L80.85 28.6L81.05 28.8L81.65 28.1L81.7 28.1L81.75 28.6L82.15 27.7L82.2 27.7L82.2 28.3L82.3 26.75L82.4 25.55L82.4 25L82.35 24.05L82.3 23.65L82.25 23.35L81.55 21.4L81.1 20.55L80.95 20.3L80.55 19.7L81.05 20.3L81.1 20.4L81.35 20.7Q82.15 21.7 82.6 22.85L82.4 22.7L82.85 23.75L83.1 24.8L82.95 24.65L82.8 24.55L83 25.8L83.05 27L82.95 26.75L82.8 26.4L82.8 26.95L82.8 27.55L82.65 28.1L82.55 28.4L82.5 28.65L82.5 28.85L82.55 29.2M81.15,19.75L82.2 21.4L82.15 21.4L81.95 21.15L79.7 18.65L79.7 18.7L80.2 19.3L79.3 18.4L79.7 18.45Q79.05 17.7 78.2 17.3L79.15 18.35L79.9 19.65L79.9 19.7L79.05 19L78.55 18.7L79.2 19.4L79.45 19.7L78.4 18.85L77.9 18.2Q77.5 17.7 76.45 17.2L77.65 17.45L77.8 17.5L77.15 17.1L76.75 16.85L77.05 16.85L77.7 17L78.4 17L78.35 16.9L77.45 16.4L76.8 16.1L78.05 16.15L78.35 16.3L78.1 16.15L78.4 16.1L78.35 16.05L76.95 15.25L77.35 15.15L77.75 15.05L77.1 14.75L76.4 14.5L76.45 14.45L76.6 14.35L76.95 14.05L76.8 14.05L76.3 14.1L75.8 14.1L75.45 14.1L75.7 14L76.5 13.9L77.05 13.9L77.15 14L77.15 14.05L77.1 14.1L77.5 14.3L78.05 14.75L77.85 14.8L77.9 14.9L78.2 15.1L78.55 15.3L78.6 15.35L78.55 15.35Q78.45 15.35 78.3 15.5L78 15.6L78.65 16Q79.5 16.45 79.7 17.3Q79.05 16.85 78.25 16.75L80.65 19.1L81.15 19.75M76.8,16.1L76.5 16.1L76.5 16.05L76.8 16.1" />
<linearGradient
id="LinearGradID_109" gradientUnits="userSpaceOnUse" gradientTransform="matrix(-0.00230408, -0.0022583, 0.00288391, -0.00279236, 82, 23.6)" spreadMethod ="pad" x1="-819.2" y1="0" x2="819.2" y2="0" >
<stop  offset="0" style="stop-color:#221E1F;stop-opacity:1" />
<stop  offset="0.427451" style="stop-color:#3B343C;stop-opacity:1" />
<stop  offset="1" style="stop-color:#221E1F;stop-opacity:1" />
</linearGradient>
<path style="fill:url(#LinearGradID_109) " d="M80.6,28.75L80.4 29.05L80.3 29.1Q80.4 26.95 80 25.25L79.65 24.15L79.1 23.15L79 22.65Q79.7 23.6 80 24.6Q80.5 25.95 80.6 27.3L80.7 28.3L80.7 28.6L80.85 28.45L80.9 28.35L81.05 28.1L81.05 27.95L81 27.85L80.85 28.15L80.75 28.4L80.75 27.95L80.7 27.55L80.7 27.35L80.7 27.1L80.65 26.95L80.65 26.7L80.2 24.45L79.3 22.55L80.4 24.2L80.9 25.7L80.1 22.95L79.4 21.25L80.65 23.4L81.1 24.75L81.15 24.9L81.1 24.45L80.8 22.9L80 21.3L79.5 20.45L80.2 21.35L81.1 22.75L81.35 23.15L81.1 22.15L80.9 21.6L80.5 20.65L80.3 20.3L81.1 21.45L81.2 21.6L81.7 22.65L81.95 23.2L82.25 25.75L82.25 26.45L82.2 26.35L82.15 26.8L82.1 26.8L82.05 26.55L82 26.4L81.95 26.95L81.7 27.5L81.65 27.15L81.45 27.7L81.4 27.35L81.35 27.35L81.25 27.8L81.1 28.1L81.1 28.15L81.15 28.15L81.35 28L81.55 27.75L81.6 27.95L81.85 27.8L81.9 27.8L81.95 27.6L82 27.5L82.1 27.55L82.3 26.75L82.2 28.3L82.2 27.7L82.15 27.7L81.75 28.6L81.7 28.1L81.65 28.1L81.05 28.8L80.85 28.6L80.6 28.95L80.6 28.75M80.25,32.3L80.3 32.25L80.25 32.3L80.3 32.2L80.3 32.25L80.25 32.25L80.3 32.1L80.25 32.25L80.2 32.25L80.25 32.15L80.6 30.25L80.65 30.1L81.1 29.15Q81.4 28.75 81.7 28.75Q82.05 28.75 82.35 30.35L82.4 30.35L82.6 29.75L82.6 29.8L82.85 29.3L82.75 30.6L82.75 31.2L82.7 31.1L82.7 31.7L82.55 33.1L82.3 33.75Q82.3 33.35 81.95 33.05Q81.2 32.45 80.5 32.45L80.15 32.55L80.25 32.3M80.65,28.75L80.65 28.65L80.65 28.7L80.65 28.75" />
<linearGradient
id="LinearGradID_110" gradientUnits="userSpaceOnUse" gradientTransform="matrix(0.000671387, -0.00439453, 0.0822144, 0.0117035, 92.45, 17.3)" spreadMethod ="pad" x1="-819.2" y1="0" x2="819.2" y2="0" >
<stop  offset="0" style="stop-color:#413F42;stop-opacity:1" />
<stop  offset="0.0980392" style="stop-color:#4F4E4F;stop-opacity:1" />
<stop  offset="0.27451" style="stop-color:#5B5B5B;stop-opacity:1" />
<stop  offset="1" style="stop-color:#242025;stop-opacity:1" />
</linearGradient>
<path style="fill:url(#LinearGradID_110) " d="M71.85,12.85L71.75 12.95L71.4 13.4L71.3 13.6L71.15 14L71.2 13.75L71.55 12.3L71.2 12.8L70.75 13.5L70.7 13.5L71.4 11.9L71.6 11.55L72.15 11.45Q73 11.5 72.9 11.7L73.4 11.7L73.8 11.85L73.75 11.95L73.65 12.05L73.85 12.15L73.55 12.25L72.9 12.55L72.65 12.85L72.65 12.9L73.05 12.55Q73.5 12.3 74.2 12.3Q74.7 12.45 74.7 12.6L74.65 12.7L74.5 12.8L74.75 12.8L75.4 12.9L76.1 13.15L75.9 13.15L76.75 13.5L75.35 13.9L74.75 14.2L73.85 14.85L73.8 14.9L73.7 15L73.65 15.05L72.75 15.9L71.95 16.8L71.95 16.65L72.05 16.15L72 16.15L71.9 16.25L71.95 15.95L71.15 17L71.1 17.2L71.05 17.2L71.05 17.15L70.95 16.65L70.9 16.65L70.75 17.2L70.7 16.85L70.55 17.55L70.55 17.75L70.45 17.6L70.4 17.3L70.35 16.9L70.15 17.75L70.1 17.75L69.85 16.5L69.8 16.5L69.75 16.65L69.7 16.8L69.65 17.1L69.65 17.15L69.55 17.7L69.25 17L68.75 14.85L68.75 14.8L68.55 15.6Q68.4 14.15 68.65 13.5L68.7 13.7L68.85 13.95L68.95 13L69.05 12.15L69.3 11.65L69.4 12.15L69.45 12.15L69.75 11.6L69.9 11.35L70.2 11L70.45 11L70.5 11.05L70.3 11.5L69.8 12.5L69.75 12.7Q69.45 13.55 69.45 14.35L69.55 15.2L69.6 15.25L69.7 15.45L69.75 15.5L69.75 15.4L69.75 15.35L69.8 15.4L69.8 15.35L69.95 14.85L70.4 14.2L70.4 14.75L70.4 14.85L70.45 15.2L70.6 16.7L70.6 15.25L70.7 14.4L70.75 15.4L70.9 15.9L71.1 16.3Q71.1 15.65 71.4 14.5L72 12.7L71.8 12.95L71.85 12.85M72.6,11.6L71.9 12.25L71.45 12.9L71.5 13.1L71.55 13.1L72 12.35L72.6 11.6M75.65,13.15Q75.3 13 74.75 13.15L74.65 13.15Q73.95 13.35 73.4 13.8L73.6 13.4L73.75 13.1L73.9 12.9Q72.8 13.9 72.7 15.35Q73.05 14.4 73.85 13.85Q74.25 13.5 74.75 13.35L75.25 13.2L75.65 13.15M73,13.3L74 12.35L73.55 12.5Q73.05 12.65 72.65 13.1Q72.15 13.75 72.05 14.85Q72.35 14.1 73 13.3" />
<linearGradient
id="LinearGradID_111" gradientUnits="userSpaceOnUse" gradientTransform="matrix(0, -0.00444031, 0.0831146, 3.05176e-05, 92.65, 14.05)" spreadMethod ="pad" x1="-819.2" y1="0" x2="819.2" y2="0" >
<stop  offset="0" style="stop-color:#3C3A3A;stop-opacity:1" />
<stop  offset="1" style="stop-color:#242025;stop-opacity:1" />
</linearGradient>
<path style="fill:url(#LinearGradID_111) " d="M70.4,11.75L70.15 12L69.9 12.45L69.75 12.85L69.7 13.15L69.55 14.1L69.65 14.85L69.75 15.3L69.75 15.35L69.75 15.4L69.75 15.5L69.7 15.45L69.6 15.25L69.55 15.2L69.45 14.35Q69.45 13.55 69.75 12.7L69.8 12.5L70.3 11.5L70.5 11.05L70.65 11.6L70.4 11.75M71.1,14L71.1 13.9L71.1 13.7L71 13.45L70.9 13.85Q70.8 14.15 70.85 14.5L70.85 15.2L70.9 15.5L71.1 16.05L71.25 14.7Q71.25 14.15 71.8 12.95L72 12.7L71.4 14.5Q71.1 15.65 71.1 16.3L70.9 15.9L70.75 15.4L70.7 14.4L70.6 15.25L70.6 16.7L70.45 15.2L70.4 14.85L70.4 14.75L70.4 14.2L69.95 14.85L69.8 15.35Q69.7 14.35 70.35 12.95L70.3 13.7L70.3 14.05L70.6 13.1L71.4 11.85L70.9 12.2L70.5 12.5L70.5 12.25L70.9 11.85Q71.15 11.65 71.6 11.55L71.4 11.9L70.7 13.5L70.75 13.5L71.2 12.8L71.55 12.3L71.2 13.75L71.15 14L71.1 14" />
<linearGradient
id="LinearGradID_112" gradientUnits="userSpaceOnUse" gradientTransform="matrix(-0.00202942, 0.00338745, -0.0718079, -0.0406952, 79.9, 17.6)" spreadMethod ="pad" x1="-819.2" y1="0" x2="819.2" y2="0" >
<stop  offset="0" style="stop-color:#141315;stop-opacity:1" />
<stop  offset="1" style="stop-color:#2B2A2E;stop-opacity:1" />
</linearGradient>
<path style="fill:url(#LinearGradID_112) " d="M69.8,15.4L69.75 15.35L69.75 15.3L69.65 14.85L69.55 14.1L69.7 13.15L69.75 12.85L69.9 12.45L70.15 12L70.4 11.75L70.65 11.6L70.65 11.7Q70.5 12 70.5 12.25L70.5 12.5L70.9 12.2L71.4 11.85L70.6 13.1L70.3 14.05L70.3 13.7L70.35 12.95Q69.7 14.35 69.8 15.35L69.8 15.4M71.8,12.95Q71.25 14.15 71.25 14.7L71.1 16.05L70.9 15.5L70.85 15.2L70.85 14.5Q70.8 14.15 70.9 13.85L71 13.45L71.1 13.7L71.1 13.9L71.1 14L71.15 14L71.3 13.6L71.4 13.4L71.75 12.95L71.85 12.85L71.8 12.95" />
<path style="fill:#272528;fill-opacity:1" d="M66.1,12L66.2 12L66.3 11.95L66.35 11.95L66.6 11.9L66.8 11.85L67.15 11.95L67.25 12L67.25 12.95L67.05 12.5L66.7 12.1Q66.5 12.1 66.4 12.2L66.1 12.45L66 12.3L65.85 12.1L65.75 12.7L65.8 13.4L65.55 13.1L65.35 12.75L65.3 13.3L65.25 13.3L65.15 13.1L65 13L65.1 13.35L65.1 13.4L64.9 13.25L64.65 13.1L64.9 13.5L65.2 13.9L63.9 13.15L64.05 13.15L64.6 12.95L65.05 12.75L65.5 12.5L65.85 12L66.15 11.95L66.1 12M65.35,14.8L65.75 15.05L65.75 14.4L65.85 13.7L65.9 13.7L66.05 14.05L66.15 14.25L66.2 13.75L66.55 12.6Q66.65 14.15 66.85 14.7L66.85 14.65L66.95 13.5L67.15 13L67.25 13.55L67.35 14.15L67.5 14.45L67.55 13.95L67.65 13.65L67.7 13.65Q67.5 14.3 67.85 15L67.85 15.05L68.1 15.55L68.35 16L68.35 16.05L67.7 15.45L66.95 15L66.95 15.2L67.2 15.6L67.2 15.65L67.25 15.75L67.55 16.4L67.95 17.7L67.55 17.4L67.3 16.75L66.8 15.55L66.8 15.9L66.75 16.2L65.35 14.85L65.35 14.8M65.3,14.75L65.25 14.75L65.15 14.65L65 14.5L65.3 14.75" />
<path style="fill:#524D51;fill-opacity:1" d="M67.9,12.35L67.65 13.5L67.6 13.45L67.55 12.15L67.55 12.05L67.55 12L67.95 11.7L68.2 11.4L67.9 12.35" />
<linearGradient
id="LinearGradID_113" gradientUnits="userSpaceOnUse" gradientTransform="matrix(0.00128174, 0.00216675, -0.00213623, 0.00120544, 68.3, 17.25)" spreadMethod ="pad" x1="-819.2" y1="0" x2="819.2" y2="0" >
<stop  offset="0" style="stop-color:#3E393F;stop-opacity:1" />
<stop  offset="0.494118" style="stop-color:#171617;stop-opacity:1" />
<stop  offset="1" style="stop-color:#403B41;stop-opacity:1" />
</linearGradient>
<path style="fill:url(#LinearGradID_113) " d="M68.85,15.8L68.85 16.9L69.15 18.35L69.15 18.75L68.75 18.4L68.75 18.35L68.55 18.1L68.35 17.75L68.2 17.5L68.5 17.65L68.2 16.85L67.55 15.45L68 15.9L68.4 16.45L68.45 16.4L68.55 15.65L68.55 15.6L68.75 14.8L68.75 14.85L68.85 15.8" />
<linearGradient
id="LinearGradID_114" gradientUnits="userSpaceOnUse" gradientTransform="matrix(0.00302124, 0, 0, 0.00263977, 65.1, 15.9)" spreadMethod ="pad" x1="-819.2" y1="0" x2="819.2" y2="0" >
<stop  offset="0" style="stop-color:#383536;stop-opacity:1" />
<stop  offset="1" style="stop-color:#131213;stop-opacity:1" />
</linearGradient>
<path style="fill:url(#LinearGradID_114) " d="M62.65,13.8L62.9 13.75L63.75 13.8L65 14.5L65.15 14.65L65.25 14.75L65.3 14.75L65.35 14.8L65.35 14.85L66.75 16.2L66.8 15.9L66.8 15.55L67.3 16.75L67.55 17.4L67.6 17.85L67.6 18.05L66.7 17.2L65.85 16.2L66.05 16.2L64.4 14.6Q63.7 14 62.65 13.8" />
<path style="fill:#171314;fill-opacity:1" d="M60.6,15.2L60.55 15.35L61.7 15.45L64.95 15.8L63.6 15.75Q64.75 15.95 65.5 16.55L66.8 18.05L66.15 17.4Q64.1 15.75 61.3 15.75L60.15 15.75L60.25 15.7L60.15 15.65L59.7 15.65L60.3 15.35Q60.45 15.2 60.6 15.2" />
<linearGradient
id="LinearGradID_115" gradientUnits="userSpaceOnUse" gradientTransform="matrix(0.00202942, 0.00341797, -0.0717773, 0.0405426, 73.6, 14.35)" spreadMethod ="pad" x1="-819.2" y1="0" x2="819.2" y2="0" >
<stop  offset="0" style="stop-color:#1A181C;stop-opacity:1" />
<stop  offset="0.47451" style="stop-color:#403F46;stop-opacity:1" />
<stop  offset="1" style="stop-color:#131214;stop-opacity:1" />
</linearGradient>
<path style="fill:url(#LinearGradID_115) " d="M67.35,18.75L67.55 18.95L67.35 18.95L67.35 19L67.15 19.2L66.95 19.4L66.8 19.4L66.65 19.35L66.5 19.35L66.5 19.55L66.45 19.55L65.9 19.35L65.85 19.35L65.35 18.9L64.6 18.4L63.7 17.95L63 17.6L62.95 17.55L63 17.55L64.35 18.05L66.9 19.25L66.65 18.95L66.35 18.5L65 17.3L63.4 16.3L65 16.9L66.15 17.4L66.8 18.05L67.1 18.4L67.1 18.45L67.35 18.75M63.85,18.6Q64.8 19.05 65.65 19.6L65.45 19.7L64.85 19.55L64.4 19.45L64.05 19.2L63.25 18.65L62.45 18.2L62.05 17.95L62.5 18.05L63.85 18.6M64.3,19.75L64.35 19.8L64.35 20.15L64.3 20.15L63.9 19.9L63.6 19.75L63.55 19.75L63.4 19.65L63.7 19.85L63.8 20L63.4 19.75L62.85 19.5L62.85 19.45L63.2 19.45L63.9 19.6L64.3 19.75" />
<path style="fill:#1E191A;fill-opacity:1" d="M71.95,16.9L71.85 16.95L71.8 16.95L71.85 16.9L71.95 16.65L71.95 16.8L71.95 16.9M67.1,18.45L67.7 18.75L67.7 18.6L67.65 18.55L67.65 18.45L67.65 18.15L68.05 18.5L68.5 18.75L68.5 18.55L68.35 17.75L68.55 18.1L68.75 18.35L68.75 18.4L69.15 18.75L69.15 18.35L68.85 16.9L68.85 15.8L69.1 16.95L69.6 18L69.65 18L69.75 17.3L69.95 18.1L69.95 18.15L70.1 18L70.15 17.8L70.2 17.8L70.3 18L70.4 18.15L70.45 18.15L70.55 17.8L70.7 17.4L70.75 17.6L70.8 17.8L70.95 17.35L71 17.55L71 17.7L70.85 17.9L70.7 18.6L70.65 18.65L70.6 18.75L70.6 18.85L70.6 18.8L70.6 18.7L70.4 18.95L70.3 18.6L69.95 18.95L69.6 19.3L69.5 18.9L69.5 18.95L69.55 19.5L68.65 18.9L68.6 18.9L68.65 18.95L68.6 18.95L68.6 19L68.5 19.45L68.05 19.1L68.05 19.3L68 19.3L67.65 18.95L67.55 18.95L67.35 18.75L67.1 18.45M71.05,17.7L71.25 17.15L71.55 16.65L71.6 16.65L71.6 17.1L71.55 17.2L71.45 17.5L71.3 17.6L71.1 17.65L71.05 17.7" />
<linearGradient
id="LinearGradID_116" gradientUnits="userSpaceOnUse" gradientTransform="matrix(0, -0.00444031, 0.0831146, 3.05176e-05, 92.65, 14.05)" spreadMethod ="pad" x1="-819.2" y1="0" x2="819.2" y2="0" >
<stop  offset="0" style="stop-color:#2E2C2C;stop-opacity:1" />
<stop  offset="1" style="stop-color:#242025;stop-opacity:1" />
</linearGradient>
<path style="fill:url(#LinearGradID_116) " d="M71.85,16.9L71.8 16.95L71.75 16.95L71.6 17.1L71.6 16.65L71.55 16.65L71.25 17.15L71.05 17.7L71 17.7L71 17.55L70.95 17.35L70.8 17.8L70.75 17.6L70.7 17.4L70.55 17.8L70.45 18.15L70.4 18.15L70.3 18L70.2 17.8L70.15 17.8L70.1 18L69.95 18.15L69.95 18.1L69.75 17.3L69.65 18L69.6 18L69.1 16.95L68.85 15.8L68.75 14.85L69.25 17L69.55 17.7L69.65 17.15L69.65 17.1L69.7 16.8L69.75 16.65L69.8 16.5L69.85 16.5L70.1 17.75L70.15 17.75L70.35 16.9L70.4 17.3L70.45 17.6L70.55 17.75L70.55 17.55L70.7 16.85L70.75 17.2L70.9 16.65L70.95 16.65L71.05 17.15L71.05 17.2L71.1 17.2L71.15 17L71.95 15.95L71.9 16.25L72 16.15L72.05 16.15L71.95 16.65L71.85 16.9" />
<path style="fill:#1C1C1F;fill-opacity:1" d="M60.3,15.35L60.55 15.05L60.65 14.8L61 14.4Q61.3 14.15 61.55 14.05L62 13.95L62.65 13.8Q63.7 14 64.4 14.6L63.7 14.35Q63 14.05 62.75 14.05L62.65 14.1L62.45 14.1Q62.65 14.1 63.6 14.65L63.55 14.65L62.3 14.45L62.05 14.45L62.05 14.55L62.35 14.7L62.9 14.9L62.65 14.9L62.05 14.85L61.4 14.9L61.3 14.9L61.35 14.9L61.65 15L61.95 15.05L61.05 15.1L60.6 15.2Q60.45 15.2 60.3 15.35M63.55,13.55L65 14.5L63.75 13.8L62.9 13.75L63.55 13.55" />
<linearGradient
id="LinearGradID_117" gradientUnits="userSpaceOnUse" gradientTransform="matrix(0.00509644, 0.00234985, -0.0355377, 0.0732574, 66.95, 8.05)" spreadMethod ="pad" x1="-819.2" y1="0" x2="819.2" y2="0" >
<stop  offset="0.164706" style="stop-color:#27252D;stop-opacity:1" />
<stop  offset="0.709804" style="stop-color:#111011;stop-opacity:1" />
</linearGradient>
<path style="fill:url(#LinearGradID_117) " d="M64.05,16.85L65.55 17.85Q66.05 18.15 66.35 18.5L66.65 18.95L66.7 19.05L65.2 18.2Q63.85 17.5 62.35 17.45Q65.1 18.7 65.45 19.25Q65.05 18.85 64.05 18.45L62.5 18.05L62.05 17.95L61.65 17.9L61.9 18.05L61.95 18.05L62.85 18.7L63.95 19.45L62.75 19.35L62.4 19.35Q62.9 19.55 63.25 19.85L62.55 19.8L62.15 19.8L61.15 19.9L60.7 20.05L60.4 20.15L61.1 20.25L61.7 20.35L61.2 20.75L60.7 21.35L61.15 21.25L61.2 21.2L61.25 21.2L61.55 20.9L62.45 20.8L62.5 20.8L61.75 21.3L61.15 22.05Q61.3 22 61.3 22.15L61.05 23L60.75 23.7L60.85 23.15L60.8 23.2L60.7 23.6L60.7 23.75L60.6 23.85L60.65 23.85L60.7 23.75L60.7 23.85L60.75 23.75L61.15 23.55L60.8 24.5Q60.5 25.4 60.3 27.3L60.25 27.4L60.15 28.2L60.2 24.75L60.3 24.25L60.3 24.2L60.4 23.7Q59.95 24 59.5 25.6L59.45 25.7L59.2 26.95Q59.4 23.65 60.3 21.95L59.1 23.2L58.6 24.1L58.8 23.45Q59.05 22.4 59.6 21.5L60.2 20.45L60.25 20.35L60.25 20.4L60.15 20.45L59.85 20.75L58.65 22.2L58.35 22.75L57.8 23.6L57.9 23.35Q58.6 21.75 59.2 20.85Q59.95 19.7 60.65 19.6Q59.85 19.7 59.25 20.15L58.2 21L58.2 20.95L58.9 19.85L59.25 19.55L58.6 19.95Q59.45 18.8 60.65 18.35Q61.05 18.05 61.6 17.95L61.4 17.9L61.45 17.85L61.35 17.9L60.9 17.9L60.35 17.9L60.1 17.9L61.3 17.55L62.75 17.2L61.9 16.95L61.15 16.8L61.95 16.65L62.8 16.6Q62.65 16.4 62.35 16.3Q63.5 16.5 64.05 16.85M59.65,24.55L59.65 24.75L59.65 24.7L59.65 24.55" />
<linearGradient
id="LinearGradID_118" gradientUnits="userSpaceOnUse" gradientTransform="matrix(0.00259399, 0.00119019, -0.0355377, 0.0732574, 65.2, 8.1)" spreadMethod ="pad" x1="-819.2" y1="0" x2="819.2" y2="0" >
<stop  offset="0" style="stop-color:#4B3D4D;stop-opacity:1" />
<stop  offset="0.717647" style="stop-color:#161517;stop-opacity:1" />
</linearGradient>
<path style="fill:url(#LinearGradID_118) " d="M58.25,19.1L58.2 19.1L58.2 19.05L58.65 18.55L59.9 17.75L59.3 17.9Q58.9 18 58.7 18.2L59.3 17.5L59.95 16.95L59.9 16.95L59 17.6L58.7 17.8L58.8 17.6L58.85 17.5L58.9 17.45L58.95 17.4L59 17.35L59.3 16.95Q59.7 16.55 60.6 16.15L62.35 16.3Q62.65 16.4 62.8 16.6L61.95 16.65L61.15 16.8L61.9 16.95L62.75 17.2L61.3 17.55L60.1 17.9L60.35 17.9L60.9 17.9L61.35 17.9Q59.85 18.45 59.1 19.05L58.2 19.75L58.4 19.45L58.55 19.3L58.2 19.5L58.15 19.5L58.3 19.25L58.65 18.75L58.25 19.2L58.25 19.1M59.95,17.95L60 18L60.1 17.95L59.95 17.95" />
<linearGradient
id="LinearGradID_119" gradientUnits="userSpaceOnUse" gradientTransform="matrix(0.00344849, 0.00195312, -0.0415192, 0.069931, 69.4, 10.25)" spreadMethod ="pad" x1="-819.2" y1="0" x2="819.2" y2="0" >
<stop  offset="0" style="stop-color:#161517;stop-opacity:1" />
<stop  offset="0.47451" style="stop-color:#1E1D20;stop-opacity:1" />
<stop  offset="1" style="stop-color:#131214;stop-opacity:1" />
</linearGradient>
<path style="fill:url(#LinearGradID_119) " d="M63.9,19.6L63.2 19.45L62.85 19.45L62.85 19.5L63.4 19.75L63.8 20L63.7 20L63.3 19.95L62.8 20L62.7 20L62.5 20L61.8 20.05L61.1 20.1L61.55 20.15L62.1 20.2L61.7 20.5L61.55 20.6L61.1 21L61.55 20.9L61.25 21.2L61.2 21.2L61.15 21.25L60.7 21.35L61.2 20.75L61.7 20.35L61.1 20.25L60.4 20.15L60.7 20.05L61.15 19.9L62.15 19.8L62.55 19.8L63.25 19.85Q62.9 19.55 62.4 19.35L62.75 19.35L63.95 19.45L62.85 18.7L61.95 18.05L61.9 18.05L61.65 17.9L62.05 17.95L62.45 18.2L63.25 18.65L64.05 19.2L64.4 19.45L64.25 19.4L64.25 19.6L64.3 19.75L63.9 19.6M62.5,18.05L64.05 18.45Q65.05 18.85 65.45 19.25Q65.1 18.7 62.35 17.45Q63.85 17.5 65.2 18.2L66.7 19.05L66.65 18.95L66.9 19.25L64.35 18.05L63 17.55L62.95 17.55L63 17.6L63.7 17.95L64.6 18.4L65.35 18.9L65.85 19.35L65.7 19.5L65.65 19.6Q64.8 19.05 63.85 18.6L62.5 18.05" />
<linearGradient
id="LinearGradID_120" gradientUnits="userSpaceOnUse" gradientTransform="matrix(0.00358582, 0.000274658, -0.00550842, 0.0825195, 60.2, -2.4)" spreadMethod ="pad" x1="-819.2" y1="0" x2="819.2" y2="0" >
<stop  offset="0" style="stop-color:#61596B;stop-opacity:1" />
<stop  offset="0.462745" style="stop-color:#2B2931;stop-opacity:1" />
<stop  offset="1" style="stop-color:#1F1E23;stop-opacity:1" />
</linearGradient>
<path style="fill:url(#LinearGradID_120) " d="M56.25,28.85L56.2 28.55L56.15 28.6L56.1 28.3L56.05 28.05L55.7 27.4L55.35 26.75L55.2 25.8Q55.2 25.35 55.75 24.7L56.5 23.85L56.65 23.55L56.65 23.5L57.1 22.2L57.5 21.45L57.7 21L57.05 22Q56.55 22.9 56.4 23.55L56.35 23.55Q56.5 22.7 56.9 21.9L57.9 20.55L58.05 20.25Q58.15 19.95 57.8 20.35L57.9 19.95L58.05 19.75L58.15 19.5L58.2 19.5L58.55 19.3L58.4 19.45L58.2 19.75L59.1 19.05Q59.85 18.45 61.35 17.9L61.45 17.85L61.4 17.9L61.6 17.95Q61.05 18.05 60.65 18.35Q59.45 18.8 58.6 19.95L59.25 19.55L58.9 19.85L58.2 20.95L58.2 21L59.25 20.15Q59.85 19.7 60.65 19.6Q59.95 19.7 59.2 20.85L58.5 21.4Q57.8 22.15 57.45 23.35L57.45 23.15L58.1 21.4L57.05 23.05L57.05 23.15L57 23.15L56.7 23.85L56.65 24L55.65 25.25L55.35 25.65L55.3 26.25L55.75 27.4L55.95 27.65L55.8 27L56.05 26.45L56.45 25.55L56.35 26.25L56.35 26.4L56.15 27.15L56.15 27.5L56.2 27.95L56.25 27.9L56.4 27.1L56.45 27.8L56.5 27.75L56.6 26.9L56.65 26.95L56.8 26.75L56.85 26.55L56.85 26.7L57.65 24.55L57.65 25.5Q57.85 23.9 58.45 22.8L58.05 23.8L57.55 26.1L57.6 26.1Q57.75 25 58.25 23.8L59.15 21.65L58.7 22.35L58.65 22.35L58.35 22.75L58.65 22.2L59.85 20.75L60.15 20.45L60.25 20.4L60.25 20.35L60.2 20.45L59.6 21.5Q59.05 22.4 58.8 23.45L58.6 24.1L59.1 23.2L60.3 21.95Q59.4 23.65 59.2 26.95L59.45 25.7L59.5 25.6Q59.95 24 60.4 23.7L60.3 24.2L60.3 24.25L60.2 24.75L60.15 28.2L60.25 27.4L60.3 27.3Q60.5 25.4 60.8 24.5L61.15 23.55L60.75 23.75L60.75 23.7L61.05 23L61.3 22.15Q61.3 22 61.15 22.05L61.75 21.3L62.5 20.8L62.6 20.75L62.7 20.75L62.8 20.8L62.6 20.9L61.75 21.4L61.95 21.35L62.1 21.35L61.55 22L61.85 21.9Q61.35 22.3 61.2 23.25L61.2 23.3L61.45 23.2Q61.05 24.05 60.95 24.95L61.1 24.9L61.15 24.9L60.95 25.3L61.15 25.25L61 26L60.95 26.5L60.9 26.6L60.85 26.65L60.95 26.1L60.75 26.8L60.35 28.2L60.25 28.6L60.05 30.7L59.75 30.15L59.2 28.7L58.85 28.9L58 28.05L58.05 27.95L58.25 27.75L58.45 28.1L59 28.55Q58.8 27.8 58.9 26.9L58.9 26.4L59 25.6L59 25.4L59.5 23.55L59.65 22.85L59.45 23.35L58.6 25.5L58.3 26.7L58.3 26.65L58.3 26.45L58.15 27L58.05 27.55L58 27.55L57.95 26.85L58 26.1L58.4 23.7L57.75 26.1L57.4 27.35Q57.35 26.75 57.6 25.35L56.85 27.25L56.5 28.05L56.55 27.7L56.3 28.4L56.3 28.45L56.3 28.55L56.25 29.15L56.25 28.85M59.55,26.25L59.3 28.6L59.65 29.5L59.7 29.65L59.7 29.1L59.8 26.65L60 24.4L59.65 25.8L59.55 26.25" />
<path style="fill:#1B1819;fill-opacity:1" d="M61.3,15.75Q64.1 15.75 66.15 17.4L65 16.9L63.4 16.3L65 17.3L66.35 18.5Q66.05 18.15 65.55 17.85L64.05 16.85Q63.5 16.5 62.35 16.3L60.6 16.15Q59.7 16.55 59.3 16.95L59 17.35Q59.45 16.25 60.15 15.75L61.3 15.75" />
<path style="fill:#312928;fill-opacity:1" d="M63.7,20L63.8 20L63.7 19.85L63.4 19.65L63.55 19.75L63.6 19.75L63.9 19.9L64.3 20.15L64.35 20.15L64.35 19.8L64.3 19.75L64.25 19.6L64.25 19.4L64.4 19.45L64.85 19.55L65.45 19.7L65.65 19.6L65.7 19.5L65.85 19.35L65.9 19.35L66.45 19.55L66.5 19.55L66.5 19.35L66.65 19.35L66.8 19.4L66.95 19.4L67.15 19.2L67.35 19L67.35 18.95L67.55 18.95L67.65 18.95L68 19.3L68.05 19.3L68.05 19.1L68.5 19.45L68.6 19L68.6 18.95L68.65 18.95L68.6 18.9L68.65 18.9L69.55 19.5L69.5 18.95L69.5 18.9L69.6 19.3L69.95 18.95L70.3 18.6L70.4 18.95L70.6 18.7L70.6 18.8L70.25 19.5L70.2 19.25L70.2 19.1L70.15 19L70.15 19.05L70.1 19.05L69.9 19.4L69.75 19.6L69.6 19.85L68.8 19.4L68.7 19.85L68 19.45L67.95 19.7Q67.8 19.75 67.45 19.45L67.45 19.4L67.4 19.4L67.35 19.45L67.25 19.45L67.05 19.5L67.1 19.65L66.55 19.6L66.25 19.85L66 19.85L65.8 19.8L65.65 19.8L65.6 19.8L65.6 20L65.55 20L65.35 19.9L65.2 19.85L65.2 20.1L65.15 20.1L64.85 19.95L64.8 20.25L64.75 20.25L64.45 20.05L64.45 20.35L64.15 20.25L63.85 20.1L63.85 20.05L63.7 20M63.35,20.4L63.1 20.2L63.15 20.15L63.65 20.15L63.65 20.2L63.6 20.3L63.55 20.3L63.65 20.4L63.65 20.45L63.35 20.45L63.3 20.4L63.35 20.4M62.4,20.7L62.4 20.65L62.5 20.7L62.45 20.45L63.2 20.4L63.25 20.6L62.85 20.5L63.1 20.85L62.8 20.8L62.7 20.75L62.6 20.75L62.75 20.75L62.55 20.7L62.5 20.7L62.4 20.7M70.6,18.75L70.65 18.65L70.7 18.6L70.75 18.6L70.7 18.65L70.65 18.8L70.6 18.85L70.6 18.75" />
<linearGradient
id="LinearGradID_121" gradientUnits="userSpaceOnUse" gradientTransform="matrix(0, 0, 0, 0, 46.95, 8.1)" spreadMethod ="pad" x1="-819.2" y1="0" x2="819.2" y2="0" >
<stop  offset="0.00392157" style="stop-color:#806761;stop-opacity:1" />
<stop  offset="1" style="stop-color:#3A302C;stop-opacity:1" />
</linearGradient>
<path style="fill:url(#LinearGradID_121) " d="M65.15,20.2L65.2 20.35L64.65 20.35L64.7 20.55L64.35 20.55L64.25 20.6Q64 20.55 64.25 20.8L63.6 20.9L63.55 20.95L63.25 20.8L64.1 20.75L64.1 20.7L63.65 20.4L63.55 20.3L63.6 20.3L63.65 20.2L63.65 20.15L63.65 20.05L63.85 20.05L63.85 20.1L64.15 20.25L64.45 20.35L64.45 20.05L64.75 20.25L64.8 20.25L64.85 19.95L65.15 20.1L65.15 20.2M65.65,19.8L65.8 19.8L66 19.85L66.25 19.85L66.55 19.6L67.1 19.65L67.05 19.5L67.25 19.45L67.35 19.45L67.3 19.95L66.85 19.85Q66.45 19.7 66.45 19.85L66.4 20.15L66.35 20.15L65.65 19.8M61.45,24.6L61.3 25.05L61.2 25L61.3 24.8L61.2 24.75L61.4 23.75L61.85 22.25L61.65 22.35L62.45 21.5L62 21.5L62.4 21.3L62.65 21.15L63.55 20.95L63.7 21L62.65 21.4L62.75 21.4L62.8 21.45L62.1 22.3L62.3 22.3Q61.8 22.9 61.6 23.8L61.5 24.6L61.45 24.6" />
<linearGradient
id="LinearGradID_122" gradientUnits="userSpaceOnUse" gradientTransform="matrix(-0.0155182, 0, 3.05176e-05, -0.0808716, 68.2, 33.15)" spreadMethod ="pad" x1="-819.2" y1="0" x2="819.2" y2="0" >
<stop  offset="0" style="stop-color:#5D423A;stop-opacity:1" />
<stop  offset="0.505882" style="stop-color:#CB9977;stop-opacity:0.8" />
<stop  offset="1" style="stop-color:#664A42;stop-opacity:1" />
</linearGradient>
<path style="fill:url(#LinearGradID_122) " d="M66.35,20.15L66.4 20.15L66.45 19.85Q66.45 19.7 66.85 19.85L67.3 19.95L67.35 19.45L67.4 19.4L67.45 19.4L67.45 19.45Q67.8 19.75 67.95 19.7L68 19.45L68.7 19.85L68.8 19.4L69.6 19.85L69.75 19.6L69.65 19.8L69.65 20L69.4 19.9L69.15 19.85L69.05 19.85L69 20L67.7 19.8L67.5 20.1L67.25 20.1L66.15 20.4Q65.4 20.55 64.3 21.05Q63.2 21.5 62.75 21.95L62.05 23.25L62.2 23.15Q61.8 23.95 61.65 24.65L61.8 24.65L61.6 24.95L61.5 25.05L61.45 25.05L61.5 24.6L61.6 23.8Q61.8 22.9 62.3 22.3L62.1 22.3L62.8 21.45L62.75 21.4L62.65 21.4L63.7 21L63.55 20.95L63.6 20.9L64.25 20.8Q64 20.55 64.25 20.6L64.35 20.55L64.7 20.55L64.65 20.35L65.2 20.35L65.15 20.2L65.15 20.1L65.2 20.1L65.2 19.85L65.35 19.9L65.55 20L65.6 20L65.6 19.8L65.65 19.8L66.35 20.15M69.9,19.4L70.1 19.05L70.15 19.05L69.9 19.4M70.2,19.25L70.25 19.5L70.6 18.8L70.55 19.05L70.6 18.85L70.65 18.8L70.7 18.65L70.75 18.6L70.9 18.4L70.95 18.3L71.35 17.85L71.1 18.4L71.05 18.35L71.05 18.2L71 18.2L70.6 19.3L70.6 19.15L70.4 19.5L70.4 19.6L70.35 19.65L70.15 19.5L70.2 19.25M61.65,22.35L61.6 22.4L61.55 22.4L61.65 22.35M78.6,23.6L78.65 23.65L78.7 23.9L78.85 24.4L78.65 24L78.35 23.4L78.1 22.95L77.85 22.6L77.8 22.55L77.45 22.3L76.4 21.85L76 21.75L76.35 21.7L76.35 21.65L74.55 20.95L73.45 20.55L72.2 20.25L72.2 20.15L72.4 20L72.45 19.95L72.3 19.95L71.75 20.05L71.55 20L71.5 19.8L71.55 19.65L72.95 19.85L72.95 19.9L73.85 20.15L74.95 20.55L75.2 20.6L74.5 20.65L74.6 20.65L74.75 20.65Q75.1 20.85 75.6 21.05L76.4 21.4L76.5 21.45Q77.2 21.8 77.9 22.45L78.6 23.6" />
<linearGradient
id="LinearGradID_123" gradientUnits="userSpaceOnUse" gradientTransform="matrix(0.00202942, 0.00341797, -0.0717773, 0.0405426, 73.6, 14.35)" spreadMethod ="pad" x1="-819.2" y1="0" x2="819.2" y2="0" >
<stop  offset="0" style="stop-color:#161517;stop-opacity:1" />
<stop  offset="0.47451" style="stop-color:#1E1D20;stop-opacity:1" />
<stop  offset="1" style="stop-color:#131214;stop-opacity:1" />
</linearGradient>
<path style="fill:url(#LinearGradID_123) " d="M62.5,20.7L62.6 20.75L62.5 20.8L62.45 20.8L61.55 20.9L61.1 21L61.55 20.6L61.7 20.5L62.1 20.2L61.55 20.15L61.1 20.1L61.8 20.05L62.5 20L62.7 20L62.8 20L63.3 19.95L63.7 20L63.85 20.05L63.65 20.05L63.65 20.15L63.15 20.15L63.1 20.2L63.35 20.4L63.3 20.4L63.2 20.35L63.2 20.4L62.45 20.45L62.5 20.7L62.45 20.65L62.4 20.65L62.4 20.7L62.5 20.7" />
<linearGradient
id="LinearGradID_124" gradientUnits="userSpaceOnUse" gradientTransform="matrix(0, 0, 0, 0, 46.95, 8.1)" spreadMethod ="pad" x1="-819.2" y1="0" x2="819.2" y2="0" >
<stop  offset="0" style="stop-color:#5D4F4C;stop-opacity:1" />
<stop  offset="1" style="stop-color:#201B19;stop-opacity:1" />
</linearGradient>
<path style="fill:url(#LinearGradID_124) " d="M62.65,21.15L62.4 21.3L62 21.5L62.45 21.5L61.65 22.35L61.55 22.4L61.6 22.4L61.65 22.35L61.85 22.25L61.4 23.75L61.2 24.75L61.3 24.8L61.2 25L61.3 25.05L61 26L61.2 25.85L61.25 25.9L61.35 25.75L61.45 25.65L61.5 25.6L61.15 26.4L60.95 26.5L61 26L61.15 25.25L60.95 25.3L61.15 24.9L61.1 24.9L60.95 24.95Q61.05 24.05 61.45 23.2L61.2 23.3L61.2 23.25Q61.35 22.3 61.85 21.9L61.55 22L62.1 21.35L61.95 21.35L61.75 21.4L62.6 20.9L62.8 20.8L63.1 20.85L62.85 20.5L63.25 20.6L63.2 20.4L63.2 20.35L63.3 20.4L63.35 20.45L63.65 20.45L63.65 20.4L64.1 20.7L64.1 20.75L63.25 20.8L63.55 20.95L62.65 21.15M61.45,25.05L61.5 25.05L61.4 25.3L61.4 25.35L61.45 25.05" />
<radialGradient
id="RadialGradID_125" gradientUnits="userSpaceOnUse" gradientTransform="matrix(0.0273285, 0, 0, 0.0266724, 70.7, 17.4)" spreadMethod ="pad" cx="0" cy="0" r="819.2" fx="0" fy="0" >
<stop  offset="0"  style="stop-color:#F9A46C;stop-opacity:1" />
<stop  offset="1"  style="stop-color:#FDDDC0;stop-opacity:1" />
</radialGradient>
<path style="fill:url(#RadialGradID_125) " d="M61.35,25.75L61.25 25.9L61.2 25.85L61.25 25.8L61.4 25.4L61.4 25.3L61.5 25.05L61.6 24.95L61.8 24.65L61.65 24.65Q61.8 23.95 62.2 23.15L62.05 23.25L62.75 21.95Q63.2 21.5 64.3 21.05Q65.4 20.55 66.15 20.4L67.25 20.1L67.5 20.1L67.7 19.8L69 20L69.05 19.85L69.15 19.85L69.4 19.9L69.65 20L70.15 19.5L70.35 19.65L70.4 19.6L70.4 19.5L70.6 19.15L70.6 19.3L70.55 19.4L70.75 19.15L71.4 18.45L70.75 19.4L71 19.15L71.05 19.15L70.9 19.5L70.85 19.75L71.2 19.65L71.55 19.55L71.55 19.6L71.55 19.65L71.5 19.8L71.55 20L71.75 20.05L72.3 19.95L72.45 19.95L72.4 20L72.2 20.15L72.2 20.25L73.45 20.55L74.55 20.95L76.35 21.65L76.35 21.7L76 21.75L76.4 21.85L77.45 22.3L77.8 22.55L77.45 22.55L78.4 24.15L78.2 24.05Q78.7 24.55 79.85 31.25L79.75 33L79.45 34.4L79.35 34.7L79.25 35.05L79.05 35.6L79.45 33.15L79.5 32.65L79.4 31.3L78.6 26.85L78.3 25.45L77.65 24.35L77.95 24.35L78.05 24.4L77.8 23.65L77.6 23.4L76.8 22.6L77.35 22.6L77 22.4L76.4 22.1L76.1 21.95L75.45 21.65L75.85 21.55L74.3 21.1L73.6 20.95L72.9 20.8L72.9 20.5L71.35 20.3L70.95 20.15L71.25 19.85L70.7 20.05L70.45 20.1L69.75 20.15L69 20.15L68.05 20.2L66.85 20.5L65.4 21Q64.85 21.2 64.35 21.5Q63.8 21.75 63.3 22.15Q62.8 22.5 62.35 23.3L62.15 23.55L62.25 23.5L62 24.3L62.35 24.1L61.65 25.4L61.85 25.4L61.8 25.5L61.55 26.2L61.65 26.2L61.75 26.05L61.9 25.9L61.45 27Q60.65 28.9 60.6 29.85L60.6 31.6L60.55 34.1L60.5 34.1L60.5 34.05L60.5 33.95L60.35 32.9L60.35 30.55Q60.45 29.2 60.8 27.95L60.85 27.85L61 27.3L61.4 26.4L61.2 26.5L61.15 26.5L61.2 26.45L61.15 26.4L61.5 25.6L61.45 25.65L61.45 25.6L61.35 25.75M80.3,32.25L80.3 32.2L80.25 32.3L80.3 32.25" />
<linearGradient
id="LinearGradID_126" gradientUnits="userSpaceOnUse" gradientTransform="matrix(0.00509644, 0.00234985, -0.0355377, 0.0732574, 66.95, 8.05)" spreadMethod ="pad" x1="-819.2" y1="0" x2="819.2" y2="0" >
<stop  offset="0.164706" style="stop-color:#1D1C20;stop-opacity:1" />
<stop  offset="0.709804" style="stop-color:#111011;stop-opacity:1" />
</linearGradient>
<path style="fill:url(#LinearGradID_126) " d="M62.4,20.65L62.45 20.65L62.5 20.7L62.4 20.65M62.6,20.75L62.5 20.7L62.55 20.7L62.75 20.75L62.6 20.75" />
<linearGradient
id="LinearGradID_127" gradientUnits="userSpaceOnUse" gradientTransform="matrix(0.00509644, 0.00234985, -0.0355377, 0.0732574, 66.95, 8.05)" spreadMethod ="pad" x1="-819.2" y1="0" x2="819.2" y2="0" >
<stop  offset="0" style="stop-color:#414046;stop-opacity:1" />
<stop  offset="0.164706" style="stop-color:#27252C;stop-opacity:1" />
<stop  offset="0.709804" style="stop-color:#201C20;stop-opacity:1" />
<stop  offset="1" style="stop-color:#26252C;stop-opacity:1" />
</linearGradient>
<path style="fill:url(#LinearGradID_127) " d="M60.75,23.75L60.7 23.85L60.7 23.75L60.7 23.6L60.8 23.2L60.85 23.15L60.75 23.7L60.75 23.75M57.4,28.3L57.05 28L56.85 27.65L56.25 29.15L56.3 28.55L56.3 28.45L56.3 28.4L56.55 27.7L56.5 28.05L56.5 28.2L56.55 28.2L56.8 27.55L57.25 27L57.35 27.9L57.55 27.65L57.8 27.5L57.85 27.8L57.95 28.05L57.4 28.3" />
<linearGradient
id="LinearGradID_128" gradientUnits="userSpaceOnUse" gradientTransform="matrix(-0.0155182, 0, 3.05176e-05, -0.0808716, 68.2, 33.15)" spreadMethod ="pad" x1="-819.2" y1="0" x2="819.2" y2="0" >
<stop  offset="0" style="stop-color:#3C2C27;stop-opacity:1" />
<stop  offset="0.505882" style="stop-color:#74584B;stop-opacity:1" />
<stop  offset="1" style="stop-color:#3C2C27;stop-opacity:1" />
</linearGradient>
<path style="fill:url(#LinearGradID_128) " d="M61.2,26.45L61.15 26.5L61.2 26.5L61.4 26.4L61 27.3L60.85 27.85L60.8 27.95Q60.45 29.2 60.35 30.55L60.35 29.85L60.6 27.7L60.75 27.15L60.85 26.65L60.9 26.6L60.95 26.5L61.15 26.4L61.2 26.45M61.45,25.6L61.45 25.65L61.35 25.75L61.45 25.6M61.4,25.35L61.4 25.3L61.4 25.4L61.25 25.8L61.2 25.85L61 26L61.3 25.05L61.45 24.6L61.5 24.6L61.45 25.05L61.4 25.35" />
<path style="fill:#1F1B1A;fill-opacity:1" d="M71.1,17.65L71.3 17.6L71.45 17.5L71.55 17.2L71.6 17.1L71.75 16.95L71.8 16.95L71.85 16.95L71.95 16.9L72.15 16.85L72.4 16.8L72.65 16.5L72.8 16.2L72.9 15.9L73.25 15.55L73.65 15.3L73.4 15.6L73.05 16.2L72.55 17L72.25 17.1L71.95 17.15Q71.55 17.3 71.6 17.7L71.35 17.85L70.95 18.3L70.9 18.4L70.75 18.6L70.7 18.6L70.65 18.65L70.7 18.6L70.85 17.9L71 17.7L71.05 17.7L71.1 17.65M70.55,19.05L70.6 18.8L70.6 18.85L70.55 19.05" />
<linearGradient
id="LinearGradID_129" gradientUnits="userSpaceOnUse" gradientTransform="matrix(0, 0, 0, 0, 0, 0)" spreadMethod ="pad" x1="-819.2" y1="0" x2="819.2" y2="0" >
<stop  offset="0" style="stop-color:#3C2C27;stop-opacity:1" />
<stop  offset="0.505882" style="stop-color:#CB9977;stop-opacity:1" />
<stop  offset="1" style="stop-color:#3C2C27;stop-opacity:1" />
</linearGradient>
<path style="fill:url(#LinearGradID_129) " d="M70.15,19.05L70.15 19L70.2 19.1L70.2 19.25L70.15 19.5L69.65 20L69.65 19.8L69.75 19.6L69.9 19.4L70.15 19.05" />
<linearGradient
id="LinearGradID_130" gradientUnits="userSpaceOnUse" gradientTransform="matrix(0.000549316, -0.00320435, 0.00167847, 0.000274658, 72.4, 18.2)" spreadMethod ="pad" x1="-819.2" y1="0" x2="819.2" y2="0" >
<stop  offset="0.00392157" style="stop-color:#F9AA75;stop-opacity:1" />
<stop  offset="1" style="stop-color:#3A302C;stop-opacity:1" />
</linearGradient>
<path style="fill:url(#LinearGradID_130) " d="M71.6,17.7Q71.55 17.3 71.95 17.15L72.25 17.1L72.55 17L72.35 17.3L72.55 17.35L72.65 17.35L71.9 17.7L71.45 18.3L72.2 18.3L72.8 18.35L72 18.55L71.2 18.75L71.6 18.85Q71.95 18.85 72.05 19Q71.45 19.15 71.35 19.25L71.55 19.5L71.55 19.55L71.2 19.65L70.85 19.75L70.9 19.5L71.05 19.15L71 19.15L70.75 19.4L71.4 18.45L70.75 19.15L70.55 19.4L70.6 19.3L71 18.2L71.05 18.2L71.05 18.35L71.1 18.4L71.35 17.85L71.6 17.7" />
<linearGradient
id="LinearGradID_131" gradientUnits="userSpaceOnUse" gradientTransform="matrix(0.00378418, 0.00157166, -0.0325623, 0.074585, 78.65, 9.95)" spreadMethod ="pad" x1="-819.2" y1="0" x2="819.2" y2="0" >
<stop  offset="0.00784314" style="stop-color:#242122;stop-opacity:1" />
<stop  offset="0.494118" style="stop-color:#423E3F;stop-opacity:1" />
<stop  offset="1" style="stop-color:#252122;stop-opacity:1" />
</linearGradient>
<path style="fill:url(#LinearGradID_131) " d="M80.65,19.1L78.25 16.75Q79.05 16.85 79.7 17.3Q79.5 16.45 78.65 16L78 15.6L78.3 15.5Q78.45 15.35 78.55 15.35L78.6 15.35L78.55 15.3L78.2 15.1L77.9 14.9L77.85 14.8L78.05 14.75L77.5 14.3L77.75 14.4L78 14.5L78.35 15L78.4 15.1L78.5 15.15L79.2 15.55L79.25 15.65L78.45 15.65Q79.75 16.5 80 17.05L80 17.1L80.1 17.3L79.7 17.3L79.15 17.25L79.95 18.05L79.9 18.05L80 18.1L81.15 19.75L80.65 19.1M77.55,14.2L77.6 14.2L77.65 14.25L77.55 14.2M77.15,14L77.05 13.9L77.4 14.15L77.45 14.2L77.2 14.1L77.15 14.05L77.15 14" />
<linearGradient
id="LinearGradID_132" gradientUnits="userSpaceOnUse" gradientTransform="matrix(-0.00202942, 0.00338745, -0.0718079, -0.0406952, 79.9, 17.6)" spreadMethod ="pad" x1="-819.2" y1="0" x2="819.2" y2="0" >
<stop  offset="0" style="stop-color:#141315;stop-opacity:1" />
<stop  offset="1" style="stop-color:#454348;stop-opacity:1" />
</linearGradient>
<path style="fill:url(#LinearGradID_132) " d="M71.95,16.8L72.75 15.9L73.65 15.05L73.7 15L73.8 14.9L73.85 14.85L74.75 14.2L75.35 13.9L76.75 13.5L76.8 13.55L77.6 14.2L77.55 14.2L77.45 14.2L77.4 14.15L77.05 13.9L76.5 13.9L75.7 14L75.45 14.1L74.95 14.25Q76.15 14.3 75.5 14.4L74.75 14.55L74.65 14.6L74.35 14.8L74.35 14.9L74.25 15L74.1 15.1L74.05 15.1L74.05 15.15L74 15.15L73.9 15.15L73.8 15.2L73.65 15.3L73.25 15.55L72.9 15.9L72.8 16.2L72.65 16.5L72.4 16.8L72.15 16.85L71.95 16.9L71.95 16.8M75.25,13.2L74.75 13.35Q74.25 13.5 73.85 13.85Q73.05 14.4 72.7 15.35Q72.8 13.9 73.9 12.9L73.75 13.1L73.6 13.4L73.4 13.8Q73.95 13.35 74.65 13.15L74.75 13.15Q75.3 13 75.65 13.15L75.25 13.2M72.05,14.85Q72.15 13.75 72.65 13.1Q73.05 12.65 73.55 12.5L74 12.35L73 13.3Q72.35 14.1 72.05 14.85" />
<linearGradient
id="LinearGradID_133" gradientUnits="userSpaceOnUse" gradientTransform="matrix(0.00382996, 0.00141907, -0.0294647, 0.0757751, 78.35, 9.85)" spreadMethod ="pad" x1="-819.2" y1="0" x2="819.2" y2="0" >
<stop  offset="0.00784314" style="stop-color:#242122;stop-opacity:1" />
<stop  offset="0.407843" style="stop-color:#353232;stop-opacity:1" />
<stop  offset="1" style="stop-color:#251F1F;stop-opacity:1" />
</linearGradient>
<path style="fill:url(#LinearGradID_133) " d="M75.45,14.1L75.8 14.1L76.3 14.1L76.8 14.05L76.95 14.05L76.6 14.35L76.45 14.45L76.4 14.5L77.1 14.75L77.75 15.05L77.35 15.15L76.95 15.25L78.35 16.05L78.4 16.1L78.1 16.15L78.35 16.3L78.05 16.15L76.8 16.1L77.45 16.4L78.35 16.9L78.4 17L77.7 17L77.05 16.85L76.75 16.85L77.15 17.1L77.8 17.5L77.65 17.45L76.45 17.2Q77.5 17.7 77.9 18.2L78.4 18.85L78.5 18.95L78.25 18.75L77.9 18.75L77.6 18.7L77.25 18.7L77 18.75L77.55 19.05L78.8 20.1Q77.25 19.25 76.7 19.2L76.15 19.25Q77 19.6 78.8 21.65L76.65 20.45L77 20.6L76.75 20.3L76 19.55L75.2 19.05L75.5 19.05L75.6 19.1L76.25 19.1L75.85 18.85L75.4 18.65L76.2 18.8L76.9 18.95L77.05 18.95L76.45 18.4L75.55 17.95L76.4 18.2L77.3 18.55L77.5 18.55L77.15 18.1L76.85 17.8L76 17.15L76.3 17.15L76.65 17.2L76.75 17.2L76.8 17.15L76.3 16.85L76 16.65L75.2 16.15L75.8 16.25L76.5 16.4L76.7 16.4L76.7 16.35L76.2 16.05L75.7 15.75L76.35 15.75L76.7 15.75L76.95 15.8L77.1 15.8L75.85 15.35L75.85 15.3L76.35 15.2L76.85 15.05L76.35 14.8L75.85 14.7L75.85 14.65L76.2 14.4L76.5 14.2L75.45 14.5L74.8 14.8L75.75 15.4L75.5 15.4L75 15.15L74.75 15.05L74.45 14.9L74.35 14.9L74.35 14.8L74.65 14.6L74.75 14.55L75.5 14.4Q76.15 14.3 74.95 14.25L75.45 14.1M76.5,16.05L76.5 16.1L76.8 16.1L76.5 16.05" />
<linearGradient
id="LinearGradID_134" gradientUnits="userSpaceOnUse" gradientTransform="matrix(0.00382996, 0.00141907, -0.0294647, 0.0757751, 78.35, 9.85)" spreadMethod ="pad" x1="-819.2" y1="0" x2="819.2" y2="0" >
<stop  offset="0.00784314" style="stop-color:#242122;stop-opacity:1" />
<stop  offset="0.407843" style="stop-color:#53535D;stop-opacity:1" />
<stop  offset="1" style="stop-color:#1B1919;stop-opacity:1" />
</linearGradient>
<path style="fill:url(#LinearGradID_134) " d="M76.4,20.35L75.1 19.75L74.75 19.6L72.75 19.1L73.05 19.05L73.65 19Q74 19.05 73.5 18.9L72.45 18.75L72.05 18.75L73.9 18.5L73.25 18.2L71.95 17.95Q72.5 17.55 73 17.45L73.85 17.25L73.45 17L73 16.7L73.55 16.5L74.05 16.5L74.05 16.45L73.6 16.25L73.3 15.95L74.2 16L74.7 16.05L74.55 16L74 15.6L73.9 15.5L75.45 15.4L75.5 15.4L75.75 15.4L74.8 14.8L75.45 14.5L76.5 14.2L76.2 14.4L75.85 14.65L75.85 14.7L76.35 14.8L76.85 15.05L76.35 15.2L75.85 15.3L75.85 15.35L77.1 15.8L76.95 15.8L76.7 15.75L76.35 15.75L75.7 15.75L76.2 16.05L76.7 16.35L76.7 16.4L76.5 16.4L75.8 16.25L75.2 16.15L76 16.65L76.3 16.85L76.8 17.15L76.75 17.2L76.65 17.2L76.3 17.15L76 17.15L76.85 17.8L77.15 18.1L77.5 18.55L77.3 18.55L76.4 18.2L75.55 17.95L76.45 18.4L77.05 18.95L76.9 18.95L76.2 18.8L75.4 18.65L75.85 18.85L76.25 19.1L75.6 19.1L75.5 19.05L75.2 19.05L76 19.55L76.75 20.3L77 20.6L76.65 20.45L76.4 20.35" />
<linearGradient
id="LinearGradID_135" gradientUnits="userSpaceOnUse" gradientTransform="matrix(0.00382996, 0.00141907, -0.0294647, 0.0757751, 78.35, 9.85)" spreadMethod ="pad" x1="-819.2" y1="0" x2="819.2" y2="0" >
<stop  offset="0.00784314" style="stop-color:#242122;stop-opacity:1" />
<stop  offset="0.407843" style="stop-color:#353232;stop-opacity:1" />
<stop  offset="1" style="stop-color:#1B1919;stop-opacity:1" />
</linearGradient>
<path style="fill:url(#LinearGradID_135) " d="M73.9,15.5L73.65 15.3L73.8 15.2L73.95 15.2L74.05 15.3L74.75 15.35L75.45 15.4L73.9 15.5" />
<path style="fill:#1C1817;fill-opacity:1" d="M73.9,15.15L74 15.15L74.05 15.15L74.05 15.1L74.1 15.1L74.25 15L74.35 14.9L74.45 14.9L74.75 15.05L75 15.15L75.5 15.4L75.45 15.4L74.75 15.35L74.05 15.3L73.95 15.2L73.8 15.2L73.9 15.15" />
<linearGradient
id="LinearGradID_136" gradientUnits="userSpaceOnUse" gradientTransform="matrix(0.00688171, 0, 0, 0.0092926, 76.85, 21.5)" spreadMethod ="pad" x1="-819.2" y1="0" x2="819.2" y2="0" >
<stop  offset="0" style="stop-color:#312928;stop-opacity:1" />
<stop  offset="0.988235" style="stop-color:#121012;stop-opacity:1" />
</linearGradient>
<path style="fill:url(#LinearGradID_136) " d="M79,23.05L78.45 22.55L78.4 22.5L78.05 22.25L77.75 21.95L77.4 21.7L77.2 21.6L76.75 21.25L76.1 20.85L75.65 20.65L76.1 20.55L74.45 20.1L72.8 19.75L71.55 19.6L71.55 19.55L71.55 19.5L71.35 19.25Q71.45 19.15 72.05 19Q71.95 18.85 71.6 18.85L71.2 18.75L72 18.55L72.8 18.35L72.2 18.3L71.45 18.3L71.9 17.7L72.65 17.35L72.55 17.35L72.35 17.3L72.55 17L73.05 16.2L73.4 15.6L73.65 15.3L73.9 15.5L74 15.6L74.55 16L74.7 16.05L74.2 16L73.3 15.95L73.6 16.25L74.05 16.45L74.05 16.5L73.55 16.5L73 16.7L73.45 17L73.85 17.25L73 17.45Q72.5 17.55 71.95 17.95L73.25 18.2L73.9 18.5L72.05 18.75L72.45 18.75L73.5 18.9Q74 19.05 73.65 19L73.05 19.05L72.75 19.1L74.75 19.6L75.1 19.75L76.4 20.35L76.65 20.45L78.8 21.65Q77 19.6 76.15 19.25L76.7 19.2Q77.25 19.25 78.8 20.1L77.55 19.05L77 18.75L77.25 18.7L77.6 18.7L77.9 18.75L78.25 18.75L78.5 18.95L78.4 18.85L79.45 19.7L79.9 20.3L80.15 20.75L79.75 20.3L78.95 19.55L78.2 19.15L78.45 19.55L79.05 20.3L79.55 21L79.55 21.05L78.55 20.35L77.45 19.9L77.8 20.3L78.3 20.85Q79.4 22.05 79.75 22.9Q79.2 22.15 78.75 21.95L78.5 21.85L78.1 21.65L78.05 21.65L78.3 21.85L78.75 22.35Q78.85 22.3 78.95 22.5L79 22.65L79.1 23.15L79 23.05" />
<linearGradient
id="LinearGradID_137" gradientUnits="userSpaceOnUse" gradientTransform="matrix(0.00100708, -0.00170898, 0.0717468, 0.0406036, 62.1, 13.9)" spreadMethod ="pad" x1="-819.2" y1="0" x2="819.2" y2="0" >
<stop  offset="0.00392157" style="stop-color:#806761;stop-opacity:1" />
<stop  offset="1" style="stop-color:#3A302C;stop-opacity:1" />
</linearGradient>
<path style="fill:url(#LinearGradID_137) " d="M71.55,19.6L72.8 19.75L74.45 20.1L76.1 20.55L75.65 20.65L76.1 20.85L76.75 21.25L77.2 21.6L77.8 22.3L77.9 22.45Q77.2 21.8 76.5 21.45L76.4 21.4L75.6 21.05Q75.1 20.85 74.75 20.65L74.6 20.65L74.5 20.65L75.2 20.6L74.95 20.55L73.85 20.15L72.95 19.9L72.95 19.85L71.55 19.65L71.55 19.6" />
<path style="fill:#231D19;fill-opacity:1" d="M80.15,32.55L80 32.95L80.05 32.6L80.05 32.45L80.1 32.3L80.2 30.45L80.05 29L80.05 29.15L80 29.5L79.95 29.55L79.95 29.3L79.3 26.45L79.15 25.55L78.65 23.65L78.6 23.6L77.9 22.45L77.8 22.3L77.2 21.6L77.4 21.7L77.75 21.95L78.05 22.25L78.4 22.5L78.45 22.55L79 23.05L79.1 23.15L79.35 23.85L79.9 25.6L80.3 29.1L80.4 29.05L80.6 28.75L80.6 28.95L80.6 29.15L80.6 29.4L80.6 29.6L80.55 29.95L80.6 30.2L80.6 30.25L80.25 32.15L80.2 32.25L80.25 32.25L80.3 32.1L80.25 32.25L80.3 32.25L80.25 32.3L80.15 32.55M80.65,28.7L80.65 28.65L80.65 28.75L80.65 28.7" />
<linearGradient
id="LinearGradID_138" gradientUnits="userSpaceOnUse" gradientTransform="matrix(-0.0155182, 0, 3.05176e-05, -0.0808716, 68.2, 33.15)" spreadMethod ="pad" x1="-819.2" y1="0" x2="819.2" y2="0" >
<stop  offset="0.0196078" style="stop-color:#C98974;stop-opacity:1" />
<stop  offset="0.505882" style="stop-color:#CBA795;stop-opacity:1" />
<stop  offset="1" style="stop-color:#745247;stop-opacity:1" />
</linearGradient>
<path style="fill:url(#LinearGradID_138) " d="M78.9,24.85L78.75 24.75L79.4 27.6L79.6 29.35L79.8 30.55L79.85 31.25Q78.7 24.55 78.2 24.05L78.4 24.15L77.45 22.55L77.8 22.55L77.85 22.6L78.1 22.95L78.35 23.4L78.65 24L78.85 24.4L78.9 24.85" />
<linearGradient
id="LinearGradID_139" gradientUnits="userSpaceOnUse" gradientTransform="matrix(-0.0155182, 0, 3.05176e-05, -0.0808716, 68.2, 33.15)" spreadMethod ="pad" x1="-819.2" y1="0" x2="819.2" y2="0" >
<stop  offset="0" style="stop-color:#8C5C4E;stop-opacity:1" />
<stop  offset="0.505882" style="stop-color:#CB9977;stop-opacity:0.8" />
<stop  offset="1" style="stop-color:#664A42;stop-opacity:1" />
</linearGradient>
<path style="fill:url(#LinearGradID_139) " d="M79.85,31.25L79.8 30.55L79.6 29.35L79.4 27.6L78.75 24.75L78.9 24.85L78.85 24.4L78.7 23.9L78.65 23.65L79.15 25.55L79.3 26.45L79.95 29.3L79.95 29.55L80 29.5L80.05 29.15L80.05 30.45L80 31.5L79.95 31.85L79.75 33L79.85 31.25" />
<linearGradient
id="LinearGradID_140" gradientUnits="userSpaceOnUse" gradientTransform="matrix(0.00131226, -0.00485229, 0.0803375, 0.020752, 31.75, 17)" spreadMethod ="pad" x1="-819.2" y1="0" x2="819.2" y2="0" >
<stop  offset="0" style="stop-color:#26262A;stop-opacity:1" />
<stop  offset="0.0823529" style="stop-color:#1C1B1E;stop-opacity:1" />
<stop  offset="1" style="stop-color:#141213;stop-opacity:1" />
</linearGradient>
<path style="fill:url(#LinearGradID_140) " d="M57.55,20.2L57.7 19.95L58.2 19.1L58.25 19.1L58.25 19.2L58.2 19.25L57.95 19.65L57.55 20.2M58.2,19.05L58.7 17.8L59 17.6L59.9 16.95L59.95 16.95L59.3 17.5L58.7 18.2Q58.9 18 59.3 17.9L59.9 17.75L58.65 18.55L58.2 19.05" />
<linearGradient
id="LinearGradID_141" gradientUnits="userSpaceOnUse" gradientTransform="matrix(0.00509644, 0.00234985, -0.0355377, 0.0732574, 66.95, 8.05)" spreadMethod ="pad" x1="-819.2" y1="0" x2="819.2" y2="0" >
<stop  offset="0" style="stop-color:#414046;stop-opacity:1" />
<stop  offset="0.164706" style="stop-color:#1D1C20;stop-opacity:1" />
<stop  offset="0.709804" style="stop-color:#111011;stop-opacity:1" />
<stop  offset="1" style="stop-color:#26252C;stop-opacity:1" />
</linearGradient>
<path style="fill:url(#LinearGradID_141) " d="M60.1,32.85L60.1 33.15L60.05 33.05L59.9 31.8L59.5 32.1L59.6 31.65L59.65 31.2L59.65 30.95L59.6 30.4L59.4 29.6L59.35 29.75L59.25 30.05L59.15 29.7Q59 29.1 58.6 28.85Q58.25 28.6 57.6 28.5L57.45 28.55Q57.35 28.55 57.2 28.65L56.9 29.2L56.75 28.85L56.65 29.2L56.55 29.7L56.4 29.35L56.35 29.85L56.35 29.75L56.25 29.35L56.25 29.2L56.2 28.9L56.25 28.85L56.25 29.15L56.85 27.65L57.05 28L57.4 28.3L57.95 28.05L57.95 28.1L58 28.05L58.85 28.9L59.2 28.7L59.75 30.15L60.05 30.7L60 31.45L60 32.25L60.1 32.8L60.1 32.85M60.1,17.95L60 18L59.95 17.95L60.1 17.95M59.65,24.7L59.65 24.75L59.65 24.55L59.65 24.7" />
<linearGradient
id="LinearGradID_142" gradientUnits="userSpaceOnUse" gradientTransform="matrix(0.00358582, 0.000289917, -0.00588989, 0.082489, 60.6, -2.55)" spreadMethod ="pad" x1="-819.2" y1="0" x2="819.2" y2="0" >
<stop  offset="0" style="stop-color:#524B5B;stop-opacity:1" />
<stop  offset="0.301961" style="stop-color:#2B2931;stop-opacity:1" />
<stop  offset="1" style="stop-color:#1F1E23;stop-opacity:1" />
</linearGradient>
<path style="fill:url(#LinearGradID_142) " d="M58.55,21.75L58 22.15L57.45 23.7L57.25 24.45L57.25 24.6L57.45 23.35Q57.8 22.15 58.5 21.4L59.2 20.85Q58.6 21.75 57.9 23.35L57.75 23.65L58.55 21.75M56.6,26.9L56.9 25L56.95 25L56.85 25.45L56.85 26.1L56.6 26.9" />
<linearGradient
id="LinearGradID_143" gradientUnits="userSpaceOnUse" gradientTransform="matrix(0.00358582, 0.000289917, -0.00588989, 0.082489, 60.6, -2.55)" spreadMethod ="pad" x1="-819.2" y1="0" x2="819.2" y2="0" >
<stop  offset="0.164706" style="stop-color:#27252D;stop-opacity:1" />
<stop  offset="0.709804" style="stop-color:#111011;stop-opacity:1" />
</linearGradient>
<path style="fill:url(#LinearGradID_143) " d="M57.45,23.35L57.25 24.6L57.25 24.45L57.45 23.7L57.45 24.55L57.75 23.65L57.9 23.35L57.8 23.6L58.35 22.75L58.65 22.35L58.7 22.35L58.45 22.8Q57.85 23.9 57.65 25.5L57.65 24.55L56.85 26.7L56.85 26.55L56.85 26.1L56.85 25.45L56.95 25L56.9 25L56.6 26.9L56.5 27.75L56.45 27.8L56.4 27.1L56.6 26.25L56.75 25.65L56.55 26.05L56.35 26.4L56.35 26.25L56.45 25.55L56.6 25.15L57.1 23.75L57.1 23.4L57.05 23.1L57.05 23.05L58.1 21.4L57.45 23.15L57.45 23.35" />
<linearGradient
id="LinearGradID_144" gradientUnits="userSpaceOnUse" gradientTransform="matrix(0.00358582, 0.000289917, -0.00588989, 0.082489, 60.6, -2.55)" spreadMethod ="pad" x1="-819.2" y1="0" x2="819.2" y2="0" >
<stop  offset="0" style="stop-color:#312E35;stop-opacity:1" />
<stop  offset="0.301961" style="stop-color:#2B2931;stop-opacity:1" />
<stop  offset="1" style="stop-color:#1F1E23;stop-opacity:1" />
</linearGradient>
<path style="fill:url(#LinearGradID_144) " d="M56.85,26.1L56.85 26.55L56.8 26.75L56.65 26.95L56.6 26.9L56.85 26.1M58.45,22.8L58.7 22.35L59.15 21.65L58.25 23.8Q57.75 25 57.6 26.1L57.55 26.1L58.05 23.8L58.45 22.8M57.45,23.7L58 22.15L58.55 21.75L57.75 23.65L57.45 24.55L57.45 23.7" />
<path style="fill:#2B1F1C;fill-opacity:1" d="M60.7,23.75L60.65 23.85L60.6 23.85L60.7 23.75" />
<linearGradient
id="LinearGradID_145" gradientUnits="userSpaceOnUse" gradientTransform="matrix(-0.00144958, 0.00480652, -0.0796661, -0.022934, 85.45, 33.2)" spreadMethod ="pad" x1="-819.2" y1="0" x2="819.2" y2="0" >
<stop  offset="0" style="stop-color:#474151;stop-opacity:1" />
<stop  offset="0.701961" style="stop-color:#25232A;stop-opacity:1" />
<stop  offset="1" style="stop-color:#57515F;stop-opacity:1" />
</linearGradient>
<path style="fill:url(#LinearGradID_145) " d="M57.95,28.1L57.95 28.05L57.85 27.8L57.8 27.5L57.55 27.65L57.35 27.9L57.25 27L56.8 27.55L56.55 28.2L56.5 28.2L56.5 28.05L56.85 27.25L57.6 25.35Q57.35 26.75 57.4 27.35L57.75 26.1L58.4 23.7L58 26.1L57.95 26.85L58 27.55L58.05 27.55L58.15 27L58.3 26.45L58.3 26.65L58.3 26.7L58.6 25.5L59.45 23.35L59.65 22.85L59.5 23.55L59 25.4L58.9 25.85L59 25.6L58.9 26.4L58.9 26.9Q58.8 27.8 59 28.55L58.45 28.1L58.25 27.75L58.05 27.95L58 28.05L57.95 28.1M59.65,25.8L60 24.4L59.8 26.65L59.7 29.1L59.7 29.65L59.65 29.5L59.3 28.6L59.55 26.25L59.65 25.8" />
<linearGradient
id="LinearGradID_146" gradientUnits="userSpaceOnUse" gradientTransform="matrix(0.00358582, 0.000289917, -0.00588989, 0.082489, 60.6, -2.55)" spreadMethod ="pad" x1="-819.2" y1="0" x2="819.2" y2="0" >
<stop  offset="0" style="stop-color:#524B5B;stop-opacity:1" />
<stop  offset="0.309804" style="stop-color:#312E37;stop-opacity:1" />
<stop  offset="1" style="stop-color:#25232A;stop-opacity:1" />
</linearGradient>
<path style="fill:url(#LinearGradID_146) " d="M58.9,25.85L59 25.4L59 25.6L58.9 25.85" />
<linearGradient
id="LinearGradID_147" gradientUnits="userSpaceOnUse" gradientTransform="matrix(0.00509644, 0.00234985, -0.0355377, 0.0732574, 66.95, 8.05)" spreadMethod ="pad" x1="-819.2" y1="0" x2="819.2" y2="0" >
<stop  offset="0" style="stop-color:#414046;stop-opacity:1" />
<stop  offset="0.164706" style="stop-color:#1D1C20;stop-opacity:1" />
<stop  offset="0.709804" style="stop-color:#272427;stop-opacity:1" />
<stop  offset="1" style="stop-color:#26252C;stop-opacity:1" />
</linearGradient>
<path style="fill:url(#LinearGradID_147) " d="M60.5,34.05L60.45 34L60.1 32.85L60.1 32.8L60 32.25L60 31.45L60.05 30.7L60.25 28.6L60.35 28.2L60.75 26.8L60.95 26.1L60.85 26.65L60.75 27.15L60.6 27.7L60.35 29.85L60.35 30.55L60.35 32.9L60.5 33.95L60.5 34.05" />
<linearGradient
id="LinearGradID_148" gradientUnits="userSpaceOnUse" gradientTransform="matrix(0.00131226, -0.00485229, 0.0803375, 0.020752, 31.75, 17)" spreadMethod ="pad" x1="-819.2" y1="0" x2="819.2" y2="0" >
<stop  offset="0" style="stop-color:#26262A;stop-opacity:1" />
<stop  offset="0.0823529" style="stop-color:#2D2C31;stop-opacity:1" />
<stop  offset="1" style="stop-color:#141213;stop-opacity:1" />
</linearGradient>
<path style="fill:url(#LinearGradID_148) " d="M56.35,26.4L56.55 26.05L56.75 25.65L56.6 26.25L56.4 27.1L56.25 27.9L56.2 27.95L56.15 27.5L56.15 27.15L56.35 26.4" />
<linearGradient
id="LinearGradID_149" gradientUnits="userSpaceOnUse" gradientTransform="matrix(0.00131226, -0.00485229, 0.0803375, 0.020752, 31.75, 17)" spreadMethod ="pad" x1="-819.2" y1="0" x2="819.2" y2="0" >
<stop  offset="0" style="stop-color:#2E2E33;stop-opacity:1" />
<stop  offset="0.156863" style="stop-color:#211F23;stop-opacity:1" />
<stop  offset="1" style="stop-color:#141213;stop-opacity:1" />
</linearGradient>
<path style="fill:url(#LinearGradID_149) " d="M56.2,28.9L56.15 28.6L56.2 28.55L56.25 28.85L56.2 28.9" />
<path style="fill:#3C312A;fill-opacity:1" d="M79.35,34.7L79.45 34.4L79.75 33L79.95 31.85L80 31.5L80.05 30.45L80.05 29.15L80.05 29L80.2 30.45L80.1 32.3L80.05 32.45L80.05 32.6L80 32.95L79.4 34.65L79.25 35.05L79.35 34.7" />
<linearGradient
id="LinearGradID_150" gradientUnits="userSpaceOnUse" gradientTransform="matrix(0.00115967, -0.00257874, 0.0019989, 0.000854492, 72.9, 14.85)" spreadMethod ="pad" x1="-819.2" y1="0" x2="819.2" y2="0" >
<stop  offset="0" style="stop-color:#B1B1B1;stop-opacity:0.478431" />
<stop  offset="1" style="stop-color:#595959;stop-opacity:0.341176" />
</linearGradient>
<path style="fill:url(#LinearGradID_150) " d="M68.9,14.6L69.05 15.1L69.15 14.1L69.3 13.1Q69.3 15.05 69.45 16.55L70.2 15L70.2 17.2L69.9 16L69.75 16.45L69.5 17.45L69.1 16.2L68.9 14.8Q68.8 14.85 68.65 15.35L68.7 14.7L68.8 14.1L68.9 14.6M68.3,15.45L67.9 14.85L67.8 14.1L67.85 13.5L68.05 12.95L68.05 13.5L68 14Q68 14.6 68.3 15.45M72,14.2L71.85 15.6L72.55 14.4L73.55 13.25L73.05 14.05Q72.7 14.65 72.65 15.75Q73.75 14.35 74.3 14.05L73 15.6L72.3 16.6L72.3 16.55L72.45 16.1L72.55 15.7L72.3 16.05L72.15 16.3L72.15 16.25L72.25 15.3L71.7 16.15L71.4 16.75Q71.5 15.45 71.75 14.45Q72 13.5 72.65 12.85Q72.15 13.45 72 14.2" />
<linearGradient
id="LinearGradID_151" gradientUnits="userSpaceOnUse" gradientTransform="matrix(-0.00128174, -0.00123596, 0.00154114, -0.00151062, 69.5, 13.85)" spreadMethod ="pad" x1="-819.2" y1="0" x2="819.2" y2="0" >
<stop  offset="0" style="stop-color:#B1B1B1;stop-opacity:0.360784" />
<stop  offset="1" style="stop-color:#595959;stop-opacity:0.2" />
</linearGradient>
<path style="fill:url(#LinearGradID_151) " d="M67.5,16L67.9 16.75L67.8 15.7L67.9 16.15L68.1 17.2L68.25 17.9L68.25 17.95L67.65 16.6L67.4 15.75L67.5 16" />
<linearGradient
id="LinearGradID_152" gradientUnits="userSpaceOnUse" gradientTransform="matrix(-0.00128174, -0.00123596, 0.00154114, -0.00151062, 69.5, 13.85)" spreadMethod ="pad" x1="-819.2" y1="0" x2="819.2" y2="0" >
<stop  offset="0" style="stop-color:#B1B1B1;stop-opacity:0.45098" />
<stop  offset="1" style="stop-color:#595959;stop-opacity:0.2" />
</linearGradient>
<path style="fill:url(#LinearGradID_152) " d="M66.5,17.85L65.7 16.7L64.2 15.2Q65.5 16 66.3 16.9L67.5 18.4L67.45 18.4L67 18.15L66.55 17.9L66.65 18.3L66.7 18.7L66.7 18.75L65.85 17.95L65.25 17.6L65.6 17.7L66.35 17.85L66.5 17.85" />
<linearGradient
id="LinearGradID_153" gradientUnits="userSpaceOnUse" gradientTransform="matrix(0.00279236, 0.000732422, -0.000564575, 0.00205994, 76.75, 13.55)" spreadMethod ="pad" x1="-819.2" y1="0" x2="819.2" y2="0" >
<stop  offset="0" style="stop-color:#7E7C76;stop-opacity:0.329412" />
<stop  offset="0.458824" style="stop-color:#B4B0A1;stop-opacity:0.2" />
<stop  offset="1" style="stop-color:#3F3F3F;stop-opacity:0.121569" />
</linearGradient>
<path style="fill:url(#LinearGradID_153) " d="M76.4,16.5L75.15 16.55L74.15 16.6L73.75 16.5L75.5 16.4L74.8 16L74.15 15.75L74.4 15.75L75 15.85Q76.05 16.15 76.55 16.4L76.8 16.5L76.4 16.5" />
<linearGradient
id="LinearGradID_154" gradientUnits="userSpaceOnUse" gradientTransform="matrix(0.00279236, 0.000732422, -0.000564575, 0.00205994, 76.75, 13.55)" spreadMethod ="pad" x1="-819.2" y1="0" x2="819.2" y2="0" >
<stop  offset="0" style="stop-color:#7E7C76;stop-opacity:0.329412" />
<stop  offset="0.458824" style="stop-color:#B4B0A1;stop-opacity:0.321569" />
<stop  offset="1" style="stop-color:#595959;stop-opacity:0.25098" />
</linearGradient>
<path style="fill:url(#LinearGradID_154) " d="M74.15,16.6L75.15 16.55L76.4 16.5L76.8 16.5L77.15 16.65L76 16.65L75.5 16.7L75.55 16.7L76.35 17.05L76.85 17.35L76.15 17.3L74.75 17.3L75.95 17.6L77.6 18.5Q75.2 17.6 73.8 17.5L74.75 17.25L75.45 17.05Q75.35 17.05 74.95 16.85L74.15 16.6M73.35,17.85L74.3 17.95L75.3 18.25L76.85 18.85L74.2 18.65L75.1 18.9L75.95 19.2L74.4 18.9L73.05 18.8L73.3 18.75L74.45 18.35L72.8 17.85L73.35 17.85M75.05,19.45Q75.9 19.6 76.65 20.4Q75.8 19.85 73.7 19.3L75.05 19.45" />
</g>
</svg>
