<svg xmlns="http://www.w3.org/2000/svg" width="20" height="7"><g transform="translate(-60.35 -29.9)"><path d="M77.4 30.55l.2.05h.15l.55.2.1.1.25.4-.45-.45-.45-.15-1.9-.15h-.55l.5-.05H76.65l.75.05" fill="#d5c8d2" fill-opacity=".902"/><path d="M78.65 30.35l.1.3v.1l-.05-.15-.05-.15-.2-.05-.35-.05h.55" fill="#363438" fill-opacity=".902"/><path d="M78.65 30.75l.1.1.05.15.05.2-.05-.05-.05-.1-.15-.35.05.05" fill="#4a3538" fill-opacity=".902"/><path d="M80.15 30.4l-1.3-.2-.45-.05-.35-.05h.45l1.05.1.6.1v.1" fill="#79867f" fill-opacity=".902"/><path d="M79.2 30.5v.05l.05-.05h-.05m.1 0l-.05.1h-.05l-.05-.05.1-.1.05.05" fill="#6f6f6f"/><path d="M79.4 30.55v-.05l-.05-.05v.05l.05-.05h.05v.05l-.05.05" fill="#3d3938"/><path d="M79.35 30.45l.05.05v.05l-.05-.05v-.05" fill="#817f80"/><path d="M79.25 30.5l-.05.05v-.05h.05" fill="#a7a5a8"/><path d="M79.25 30.65v-.05.05l-.05.05h-.05.2v-.1l.05.05.05-.05.05.05v.05-.05h-.05v.05h.05-.1l-.25.05-.05-.05.05-.05.05-.05h.1v.05h.05-.1" fill="#303539"/><path d="M79.3 30.65h.05v.05h-.2.05l.05-.05v-.05.05h.05" fill="#4f575a"/><path d="M79.5 30.7h-.05v-.05h.05v.05" fill="#3b4346"/><path d="M79.45 30.75h.05l.05.05-.1.05-.05-.05.05-.05" fill="#595357"/><path d="M79.25 31.15l.35-.05.05-.05h.2l-.05-.15-.15.05-.4.15v.05m-.05 0v-.05l.45-.2.2-.05.05.05v.15l-.7.1" fill="#e1e9ec"/><path d="M79.25 31.1l.4-.15.15-.05.05.15h-.2l-.05.05-.35.05v-.05m.4-.15l-.1.05h.1l.15-.05H79.65" fill="#f9ffff"/><path d="M76.15 30.05h.35l1.3.05h.25l.35.05h-.8l-1.15-.05h-.25l-.25-.05-.35-.05h.2l.35.05" fill="#bab7b2" fill-opacity=".902"/><path d="M75.55 30l-.4.05v.05l-.6.05 1-.15" fill="#9d7f81" fill-opacity=".902"/><path d="M78.9 32.55v-.05l-.05-.6-.05-.25-.15-.4v.05l-.25-.4.4.4.2.6.05.35v.4q-.1-.1-.15.05l-.05.15.05-.3m-3.1-2.05l-.5.05-1.3.15-.35.05-.95.2.55-.2.15-.05h.15l.4-.05.5-.1h.35l.75-.05H76.25h-.45" fill="#b29494" fill-opacity=".8"/><path d="M72.3 31.15q-.15.1-.25.15l-.2.25-.05.2-.1.3-.05-.05.2-.55.4-.4q.6-.3 1.6-.5l.85-.05.95-.05.45.05h-.55l-.75.05h-.35l-.5.1-.4.05h-.15l-.15.05-.55.2q-.25.05-.4.2" fill="#7a3142" fill-opacity=".8"/><path d="M79.8 31.2h-.35l.45-.05v.05h-.1" fill="#c78469"/><path d="M79.65 31.25h-.4l-.05-.05.45-.05.25-.05v.05l-.45.05H79.9l-.25.05" fill="#ae5c46"/><path d="M79.65 31.15l-.45.05v-.05l.7-.1v.05l-.25.05" fill="#311009"/><path d="M79.75 30.95h.05l-.15.05h-.1l.1-.05h.1" fill="#d6dfdc"/><path d="M79.9 31.2v.15h-.3l-.35-.1h.4l.25-.05m-.25.1h-.1.3v-.05l-.2.05" fill="#91452e"/><path d="M79.75 31.3l.1-.05v.05h-.1" fill="#d29173"/><path d="M79.85 31.25l-.1.05h.1-.3.1l.2-.05" fill="#c6805c"/><path d="M80.15 31.85l.1-.1v.05q-.65.85-1.25 2.35l-.05.25-.2.35-.15.1.25-.45.1-.15.65-1.45v-.05l.4-.6v-.05l.15-.25" fill="#905d66" fill-opacity=".902"/><path d="M79.95 32.1v.05l-.25.3v-.05l.05-.15.15-.2.05.05" fill="#e3f2ed"/><path d="M78.6 33.2l.05-.9-.05-.8-.2-.4.25.35.05.7v.5l-.05.3V33l-.05.2" fill="#6b2c27" fill-opacity=".8"/><path d="M78.85 32.35h-.05v.3l-.05.1v-.2l.05-.2.05-.45.05.6v.05l-.05.3-.05.3V32.85l.05-.5" fill="#6b3437" fill-opacity=".8"/><path d="M78.8 32.85l-.05.3-.1.45-.05.05-.2.45-.15.15.3-.7.15-.45.05-.25v-.1l.05-.1v-.3h.05l-.05.5" fill="#b1605f" fill-opacity=".8"/><path d="M78.3 34.45l.1-.15.15-.3.15-.55.1-.3.05-.3.05-.15q.05-.15.15-.05l-.25.8-.2.65-.1.15v.05l-.3.45.05-.15-.1.1.15-.25" fill="#bba6af" fill-opacity=".8"/><path d="M73.7 35.55l-.05-.05-.55-.25-.05-.05-.5-.35-.15-.2-.15-.2-.05-.1.05.05.3.3.15.15.3.25.05.05.1.05h.05l.15.1.4.1.5.15 1 .05 1.45-.15-.15.1h.05l.15-.05h.05l.65-.25.65-.4.1-.1.3-.45v-.05l.1-.15.2-.65.25-.8V33q-.15 1.1-.7 1.7l-.1.1q-.45.5-1.5.75l-.05.05-.75.1-.9.05-.65-.05h-.1l-.25-.05-.25-.05-.05-.05h-.05m.65.15h-.05.05" fill="#ebebeb" fill-opacity=".902"/><path d="M78.65 33v-.05l.1-.4V32.85l-.05.25-.15.45-.3.7-.15.2.05-.05.1-.15.05-.2.15-.4.15-.55v.1l.05-.2" fill="#883831" fill-opacity=".8"/><path d="M78.4 34.1l.2-.45.05-.05.1-.45.05-.3V33.15l-.1.3-.15.4-.1.25-.1.15-.05.05-.2.2-.15.15.15-.2.15-.2.15-.15" fill="#8a3f46" fill-opacity=".8"/><path d="M72.9 34.75l.7.4 1.35.25 1.25-.05.9-.25q1-.45 1.35-1.45l-.15.4-.05.2-.1.15-.05.05-.15.2-.15.1-.25.2-.3.15-.95.25-.65.1h-.5l-1.35-.2-.5-.2-.3-.1v-.05h-.05l-.15-.2.1.05" fill="#4f2429" fill-opacity=".8"/><path d="M78.15 34.7l-.35.3.1-.2.15-.1.3-.45.1-.15.1-.25.15-.4-.15.55-.15.3-.1.15-.15.25" fill="#9a6a76" fill-opacity=".8"/><path d="M77.95 34.65l-.1.1-.05.05v-.05l.15-.1" fill="#c1c4cd" fill-opacity=".8"/><path d="M70.7 31l-.35-.05.85-.15h.1l.85-.25 1.15-.3.4-.05-.35.15-.35.1-.4.15-.95.2-.75.15-.2.05" fill="#e2dce6" fill-opacity=".902"/><path d="M70.75 31l.15-.05.75-.15.95-.2.4-.15.35-.1.35-.05.85-.15.6-.05v-.05h.75l.1.05h-.55l-2.65.45-1.35.4-.45.1h-.55l.3-.05" fill="#5e171b" fill-opacity=".902"/><path d="M73.75 30.15l1.8-.15h.05l.35.05.15.05H76l-.1-.05h-.75l.4-.05-1 .15-.85.15.35-.15H73.75" fill="#8b6067" fill-opacity=".902"/><path d="M73.9 30.15H74.05l-.35.15-.35.05.35-.15-.4.05.25-.05.1-.05h.25" fill="#9f7581" fill-opacity=".902"/><path d="M70.3 30.95v-.05l1.25-.25 1.75-.45h.25l-.25.05-1.15.3-.85.25h-.1l-.85.15h-.05" fill="#1b151f"/><path d="M71.85 31.55l.2-.25q.1-.05.25-.15.15-.15.4-.2l.95-.2.35-.05-.5.15-.8.2-.3.15-.25.2-.3.4v-.25" fill="azure"/><path d="M71.7 32.2v-.15l.1-.3.05-.2v.3l-.1.4v.1q.05 1 .45 1.65l.3.4.2.2.1.1.15.2-.2-.15-.15-.15-.3-.4-.45-.8-.15-.8v-.4" fill="#a06265" fill-opacity=".8"/><path d="M70.3 32.05v-.1h.5l.3.05.1.1.05.15-.2-.15-.2-.05h-.55" fill="#7d3737" fill-opacity=".8"/><path d="M72.8 34.7l-.1-.1-.2-.35-.35-.9-.4-1 .35.6.3.85.25.6.2.35h.05l-.1-.05" fill="#6b3030" fill-opacity=".043"/><path d="M72.05 34.05l-.1-.15-.1-.15-.1-.35-.1-.35-.1.15v.05l.05.35v.05h-.05l-.15-.45-.2-.6v.1l.15.75-.3-.85.05-.1v-.1l.15.1.25.15.1-.2.1-.15v.05l-.05.25-.15.05-.2-.05-.1-.1h-.05l.1.15.1.05v.15l.1.3.05.2.05-.25.1-.2.1.3.05.35.2.35.05.15" fill="#4a2125" fill-opacity=".902"/><path d="M71.9 33.55v.1l.05.05.05.2-.2-.35-.05-.35-.1-.3-.1.2-.05.25-.05-.2-.1-.3v-.15l-.1-.05-.1-.15h.05l.1.1.2.05.15-.05.05-.25v.25l.15.8.05.15m-.3-.85h-.2l.05.3.15-.15.05-.15h-.05" fill="#6c3133" fill-opacity=".902"/><path d="M70.35 30.95l.35.05.2-.05-.15.05-.3.05h-.15v-.1h.05" fill="#973834" fill-opacity=".902"/><path d="M70.7 32.2h-.35l.05.05-.1-.05h.05l.05-.05H70.7l.05.05-.1.05.05-.05" fill="#727a87"/><path d="M70.65 32.2h-.25l.05.05h-.05l-.05-.05h.35l-.05.05v-.05" fill="#bbcacf"/><path d="M71.35 33.7l-.15-.4-.2-.5-.15-.3-.3-.1-.25-.05v-.05l.55.2.05.05v.05l.2.35.2.6.05.15" fill="#734246" fill-opacity=".8"/><path d="M70.65 32.25l-.05.05-.1-.05h-.05l-.05-.05h.25v.05" fill="#f3feff"/><path d="M71.05 32.35v.05l-.1.1v-.1l.05-.05h.05m0 .05H71l-.05.05H71l.05-.05" fill="#c5c3b6"/><path d="M71 32.45h-.05l.05-.05h.05l-.05.05" fill="#ecefe6"/><path d="M71.5 34l-.05-.2-.15-.25-.2-.6-.2-.35h.15l.3.85-.15-.75v-.1l.2.6.15.45h.05v-.05l-.05-.35.05-.05.05.1v.3l.1.45v.05l-.25-.35.1.25.1.15.1.25-.3-.4" fill="#261e29" fill-opacity=".902"/><path d="M71.75 32.35l.4 1 .35.9.2.35-.2-.2-.25-.6-.35-.85.15.5.15.55q-.4-.65-.45-1.65" fill="#ba9994" fill-opacity=".4"/><path d="M72.2 34l-.15-.55-.15-.5.35.85.25.6-.3-.4" fill="azure" fill-opacity=".4"/><path d="M71.65 32.7l-.05.15-.15.15-.05-.3h.25" fill="#723f3c" fill-opacity=".902"/><path d="M71.75 33.65l-.05.05.1.25.05.2V34.3l-.05.1v.05-.05l-.1-.25-.1-.15-.1-.25.25.35v-.05l-.1-.45v-.3l-.05-.1-.05.05v-.05l.1-.15.1.35.1.35-.1-.1" fill="#3e2633" fill-opacity=".902"/><path d="M72.2 34.35l-.15-.15-.1-.15-.05.05-.05.15v-.1l-.05-.2-.1-.25.05-.05.1.1.1.15.1.15.05.05.05.2.05.05" fill="#42404e" fill-opacity=".902"/><path d="M72.15 35.1l-.15-.2-.5-.85-.15-.35-.05-.15.15.25.05.2.25.5.25.3.15.3" fill="#796872" fill-opacity=".8"/><path d="M71.9 34.1l.05-.05.1.15.15.15.05.1-.15-.1-.1-.1-.1.05-.05.15h-.05v-.05l.05-.1v-.05l.05-.15" fill="#4c647c" fill-opacity=".902"/><path d="M72.75 34.8l-.3-.25-.3-.4-.2-.45-.05-.05v-.1l-.05-.15.45.8.3.4.15.15.2.15-.2-.1" fill="#d1d6d2" fill-opacity=".8"/><path d="M73 34.95l.1.1h-.05l-.5-.35v-.05.05l-.3-.3-.1-.1-.05-.2-.05-.05-.05-.15-.05-.2.2.45.3.4.3.25.2.1H73v.05l.3.1-.3-.1" fill="#ba9994" fill-opacity=".8"/><path d="M72.4 34.65l.1.25.35.35.05.05.1.1.3.15h.05v.05H73.5h-.05l-.3-.1H73l-.3-.2-.05-.05-.4-.3-.5-.45-.25-.5.3.4v.05h.05l.05-.15.1-.05.1.1.15.1.15.2m-.5-.1h-.05l.25.2.15.15.15.1.15.15-.15-.25-.1-.2-.25-.25v.15l-.15-.05" fill="#ccdee8" fill-opacity=".902"/><path d="M72.7 35.3l.3.2H73.15l.3.1h.05H73.35v-.05h-.05l-.3-.15-.1-.1-.05-.05.3.15h.05l.6.3-.15-.05h-.25l-.3-.1-.1-.05-.15-.1-.2-.1h.05m1.6.4h.05-.05m-1.25-.35H73v-.05.05h.05" fill="#582a2c" fill-opacity=".902"/><path d="M76.55 35.55l.2-.05-.15.05h-.05m-2.25.15h.1-.1" fill="#ccd4d6" fill-opacity=".8"/><path d="M75.25 35.6l-1-.05-.5-.15-.4-.1-.15-.1h-.05v-.05.05l-.1-.15h.05l.5.25.15.05 1.75.2.3-.05.6-.1.65-.15.25-.05.1-.05.5-.35-.1.2-.05.05-.15.1-.5.2-.35.1h-.05l-1.45.15" fill="#875558" fill-opacity=".8"/><path d="M72.85 35.25l-.35-.35-.1-.25.15.2.5.35.05.05.55.25.05.05h.05-.15l-.15-.05-.05-.05-.2-.05h-.05l-.3-.15m.15.1v-.05.05h.05H73" fill="#94575c" fill-opacity=".902"/><path d="M78.05 34.7l-.15.1-.5.35-.1.05h-.2q.2-.1.45-.25l.25-.2v.05l.05-.05.1-.1.15-.15.2-.2.05-.05-.3.45m-4.75.35l.5.2 1.35.2h.75l-.1.05-.3.05-1.75-.2-.15-.05-.5-.25-.1-.1.3.1" fill="#ccd9e6" fill-opacity=".8"/><path d="M73.15 35.2l-.1-.05-.05-.05-.3-.25-.15-.15.5.35.1.15v-.05.05h.05-.05" fill="#95676a" fill-opacity=".8"/><path d="M72.65 35.3l-.45-.35.05.1-.1-.1h-.05l-.1-.15-.25-.3.5.45.4.3.05.05h-.05" fill="#7ea09f" fill-opacity=".902"/><path d="M73.8 35.9h-.05l-.8-.25-.8-.55-.15-.3.1.15h.05l.1.1.75.5.15.1.3.1.35.15" fill="#d2d4e0" fill-opacity=".902"/><path d="M73.45 35.75l.6.15 1.55.1 1.5-.2-.15.1-1.6.2-1.6-.2h.05l-.35-.15" fill="#896978" fill-opacity=".902"/><path d="M72.05 34.6v-.15l.25.25.1.2.15.25-.15-.15-.15-.1-.15-.15-.25-.2h.05l.15.05" fill="#fcfefd"/><path d="M76.55 35.55l.15-.1h.05l.35-.1.5-.2.15-.1.05-.05.35-.3.1-.1-.05.15-.1.1-.65.4-.65.25h-.05l-.2.05" fill="#e8e2ec" fill-opacity=".8"/><path d="M73.2 35.4l.2.05.05.05.15.05h.15-.05.05l.05.05.25.05.25.05h.05-.05.1l.65.05.9-.05.75-.1.05-.05q1.05-.25 1.5-.75l.25-.15-.3.4-.4.3h-.05l-.85.35h-.1l-1.3.15-1.5-.1-.2-.05-.6-.3" fill="#733f49" fill-opacity=".8"/><path d="M77.55 34.95q-.25.15-.45.25h.2l-.25.05-.65.15-.6.1.1-.05h-.25l.65-.1.95-.25.3-.15" fill="#a7a4ad" fill-opacity=".8"/><path d="M77.95 30.1h-.15l.65-.1 1.1.05.5.1.1.15-.6-.1-1.05-.1h-.55" fill="#f0fffa"/><path d="M75.8 30h.7l.3-.05h1.4l.25.05-.65.1-1.3-.05h-.35L75.8 30" fill="#eaebf2"/><path d="M71.4 32.35l-.1-.15-.1-.15q0-.1.15-.1l.25.05h.05l.05.05v.15q-.1-.15-.25-.15l-.05.05.05.2v.05h-.05" fill="#4a2124" fill-opacity=".824"/><linearGradient id="a" gradientUnits="userSpaceOnUse" gradientTransform="matrix(.00638 -.00043 .0001 .00153 75.95 31.25)" x1="-819.2" x2="819.2"><stop offset="0" stop-color="#662323" stop-opacity=".702"/><stop offset="1" stop-color="#401d1c" stop-opacity=".8"/></linearGradient><path d="M70.45 32.05h.4l.2.05.2.15-.05-.15-.1-.1-.3-.05h-.5v-.9h.7l.45-.1 1.35-.4 2.65-.45H76.1l-.15-.05.25.05h.25l1.15.05h.8l.45.05 1.3.2v.1l-.5-.15-.65-.05-.25-.05-2.35-.05H76l-1.1.1h.75l1.7.1.55.05.25.15.1.1-.5-.15h-.35l-.75-.05h-.55l-.45-.05-.95.05-.85.05q-1 .2-1.6.5l-.4.4-.2.55h-.05l-.25-.05q-.15 0-.15.1l.1.15.1.15h-.05l-.25-.15-.2-.1-.6.05v-.1h.15" fill="url(#a)"/><linearGradient id="b" gradientUnits="userSpaceOnUse" gradientTransform="matrix(-.00276 -.00029 .0005 -.00471 78.55 33.4)" x1="-819.2" x2="819.2"><stop offset="0" stop-opacity=".8"/><stop offset="1" stop-color="#401d1c" stop-opacity=".8"/></linearGradient><path d="M80.2 30.75l.05.75v.25l-.1.1-.1-.1-.2.2-.1-.25-.1-.15-.3.1-.35.2.05.4-.05-.35-.2-.6-.4-.4-.1-.1-.55-.2h-.15l-.2-.05h.35l.5.15-.1-.1-.25-.15-.55-.05-1.7-.1h-.75l1.1-.1h.4l2.35.05.25.05.65.05.5.15.05.25m-1.85-.4h-.25l.35.05.2.05.05.15.05.15v-.1l-.1-.3h-.3m1.1.15v-.05h-.05l-.05.05.05.05.05-.05m-.2-.05l-.1.1.05.05h.05l.05-.1-.05-.05m.05.2v-.05h-.1l-.05.05-.05.05.05.05.25-.05h.1v-.05l-.05-.05-.05.05-.05-.05v.05h-.05m.1.15l.05.05.1-.05-.05-.05h-.05l-.05.05m-.2.4l.05.05.35.1h.3V30.9l-.05-.05-.2.05-.45.2v.1m-.6-.5l.15.35.05.1.05.05-.05-.2-.05-.15-.1-.1-.05-.05m-.95 4.9v.05l-.55.15-1.5.2-1.55-.1-.6-.15-.3-.1-.15-.1-.75-.5-.05-.1.45.35.2.1.15.1.1.05.3.1h.25l.15.05.2.05 1.5.1 1.3-.15h.1l.85-.35h.05l.4-.3.3-.4-.25.15.1-.1q.55-.6.7-1.7v.2l-.05.45.4-.8.15-.45v-.05l-.25.55-.2.4v-.05l.2-.6.2-.3.25-.25.2-.15.05.15v.05l-.4.6v.05l-.65 1.45-.1.15-.25.45-.95.75m2.25-3.55l-.15.2-.05.15v.05l.25-.3v-.05l-.05-.05" fill="url(#b)"/><linearGradient id="c" gradientUnits="userSpaceOnUse" gradientTransform="matrix(.00002 .00076 -.0013 .00003 78.55 31.75)" x1="-819.2" x2="819.2"><stop offset="0" stop-color="#2f0d0b" stop-opacity=".8"/><stop offset="1" stop-color="#5a1a1a" stop-opacity=".8"/></linearGradient><path d="M78.2 30.85l.45.45v-.05l.15.4.05.25-.05.45-.05.2-.1.4.05-.3v-.5l-.05-.7-.25-.35-.2-.2-.45-.2.45.15" fill="url(#c)"/><linearGradient id="d" gradientUnits="userSpaceOnUse" gradientTransform="matrix(.0008 .00012 -.00017 .0011 79.8 32.45)" x1="-819.2" x2="819.2"><stop offset="0" stop-color="#2f0d0b" stop-opacity=".8"/><stop offset="1" stop-color="#5a1a1a" stop-opacity=".8"/></linearGradient><path d="M80 32.1l-.05-.15-.2.15-.25.25-.2.3-.2.6v.05l.2-.4.25-.55v.05l-.15.45-.4.8.05-.45V32.25l-.05-.4.35-.2.3-.1.1.15.1.25.2-.2.1.1-.15.25" fill="url(#d)"/><linearGradient id="e" gradientUnits="userSpaceOnUse" gradientTransform="matrix(.00111 0 0 .00072 77.85 35.3)" x1="-819.2" x2="819.2"><stop offset="0" stop-opacity=".8"/><stop offset="1" stop-color="#401d1c" stop-opacity=".8"/></linearGradient><path d="M77.1 35.8l.55-.15v-.05l.95-.75.15-.1q-.55.85-1.8 1.15l.15-.1" fill="url(#e)"/><linearGradient id="f" gradientUnits="userSpaceOnUse" gradientTransform="matrix(-.00087 .0001 -.00005 -.00041 71.1 32.45)" x1="-819.2" x2="819.2"><stop offset="0" stop-opacity=".8"/><stop offset="1" stop-color="#401d1c" stop-opacity=".8"/></linearGradient><path d="M70.9 32.6v-.05l-.05-.05-.55-.2V32.15l.6-.05.2.1.25.15h.1v-.05l-.05-.2.05-.05q.15 0 .25.15v.1l-.1.15-.1.2-.25-.15-.15-.1v.1l-.05.1h-.15m.1-.25l-.05.05v.1l.1-.1v-.05H71m-.55-.1h.05l.1.05.05-.05.1-.05-.05-.05H70.4l-.05.05h-.05l.1.05h.05" fill="url(#f)"/><path d="M64.35 30.5h-.4l-.75.05-.15.05h-.15l-.55.2-.15.1-.25.4.45-.45.45-.15 1.9-.15h.55l-.5-.05h-.45" fill="#d5c8d2" fill-opacity=".902"/><path d="M61.95 30.35l-.05.3v.1l.05-.15.05-.15.15-.05.35-.05h-.55" fill="#363438" fill-opacity=".902"/><path d="M61.95 30.75l-.05.1-.05.15-.05.2.05-.05.05-.1.15-.35-.1.05" fill="#4a3538" fill-opacity=".902"/><path d="M62.55 30.1h-.45l-1 .1-.6.1-.05.1 1.35-.2.4-.05.35-.05" fill="#79867f" fill-opacity=".902"/><path d="M61.45 30.55h-.05l-.05-.05h.05l.05.05m.05 0l-.1-.1h-.05v.05l.05.1.1-.05" fill="#6f6f6f"/><path d="M61.2 30.5l.05-.05.05.05-.1-.05h-.05v.05l.05.05h.05l-.05-.05" fill="#3d3938"/><path d="M61.3 30.5l-.05-.05-.05.05.05.05.05-.05" fill="#817f80"/><path d="M61.4 30.5h-.05l.05.05h.05l-.05-.05" fill="#a7a5a8"/><path d="M61.35 30.65v-.05h.05v.05l.05.05h.05-.25v-.05h.1m-.05-.05l-.05.05-.05-.05-.1.05.05.05v-.05h.05v.05h-.05.1l.2.05.1-.05-.1-.05-.05-.05h-.05l-.05.05v-.05" fill="#303539"/><path d="M61.3 30.65h-.05v.05h.25-.05l-.05-.05v-.05h-.05v.05h-.05" fill="#4f575a"/><path d="M61.15 30.7h.05v-.05h-.05v.05" fill="#3b4346"/><path d="M61.2 30.75h-.1v.05l.05.05h.05l.05-.05-.05-.05" fill="#595357"/><path d="M61.4 31.15h.05v-.05h-.05l-.45-.2-.15-.05-.05.05-.05.15.7.1m-.05 0l-.3-.05-.1-.05h-.15v-.15l.15.05H61l.4.15-.05.05" fill="#e1e9ec"/><path d="M61.4 31.1l-.4-.15h-.05l-.15-.05v.15h.15l.1.05.3.05.05-.05m-.45-.15l.1.05h-.1l-.1-.05h.1" fill="#f9ffff"/><path d="M64.5 30.05H64.1l-1.3.05h-.25l-.35.05h.8l1.15-.05h.3l.2-.05L65 30H64.85l-.35.05" fill="#bab7b2" fill-opacity=".902"/><path d="M65.1 30l.35.05.05.05.55.05-.95-.15" fill="#9d7f81" fill-opacity=".902"/><path d="M61.75 32.55v-.65l.05-.25.2-.4-.05.05.25-.4-.4.4-.15.6-.05.35-.05.25v.15l.2.05.05.15-.05-.3m5.25-1.8l.95.2-.55-.2-.15-.05h-.15l-.45-.05-.5-.1h-.3l-.75-.05h-.75.45l.5.05 1.3.15.4.05" fill="#b29494" fill-opacity=".8"/><path d="M65.1 30.5l.75.05h.3l.5.1.45.05h.15l.15.05.55.2.4.2.2.15.2.25.1.2.05.3.1-.05-.25-.55-.4-.4q-.55-.3-1.55-.5h-.05l-.8-.05-1-.05-.4.05h.55" fill="#7a3142" fill-opacity=".8"/><path d="M60.85 31.2h.3l-.45-.05v.05h.15" fill="#c78469"/><path d="M60.95 31.25h.4l.05-.05-.45-.05-.25-.05v.05l.45.05H60.7l.25.05" fill="#ae5c46"/><path d="M60.95 31.15l.45.05v-.05l-.7-.1v.05l.25.05" fill="#311009"/><path d="M60.85 30.95l.1.05h.1l-.1-.05h-.1" fill="#d6dfdc"/><path d="M60.7 31.2l.05.15H61l.35-.1h-.4l-.25-.05m.25.1h.1-.3v-.05l.2.05" fill="#91452e"/><path d="M60.85 31.3l-.1-.05v.05h.1" fill="#d29173"/><path d="M60.75 31.25l.1.05h-.05.25-.1l-.2-.05" fill="#c6805c"/><path d="M60.45 31.85l-.05-.1v.05l1.2 2.35.1.25.15.35.15.1-.25-.45-.05-.15-.65-1.45-.05-.05-.35-.6v-.05l-.2-.25" fill="#905d66" fill-opacity=".902"/><path d="M60.7 32.15l.25.3v-.05l-.05-.15-.2-.2v.1" fill="#e3f2ed"/><path d="M62.05 33.2l-.1-.9.1-.8.2-.4-.25.35-.1.7.05.5.05.3V33l.05.2" fill="#6b2c27" fill-opacity=".8"/><path d="M61.8 32.35l.05.3v.1-.4l-.1-.45v.65l.05.3.05.3V32.85l-.05-.5" fill="#6b3437" fill-opacity=".8"/><path d="M61.85 32.85l.05.3.1.45v.05l.25.45.1.15-.3-.7-.1-.45-.05-.25-.05-.1v-.1l-.05-.3.05.5" fill="#b1605f" fill-opacity=".8"/><path d="M62.3 34.45l-.1-.15-.15-.3-.15-.55-.05-.3-.05-.3-.05-.15-.2-.05.25.8.2.65.1.15v.05l.35.45-.1-.15.1.1-.15-.25" fill="#bba6af" fill-opacity=".8"/><path d="M66.35 35.7h-.1.1l.25-.05.25-.05v-.05h.1l.05-.05.55-.25.05-.05.45-.35h.05l.15-.2.15-.2.05-.1-.05.05-.3.3-.2.15-.25.25-.05.05-.1.05h-.1l-.15.1-.35.1-.5.15-1.05.05-1.45-.15.15.1-.15-.05h-.05l-.65-.25-.7-.4-.05-.1-.35-.45v-.05l-.1-.15-.2-.65-.25-.8v.25l.05.1q.15 1.1.65 1.7l.1.1q.45.5 1.5.75l.05.05.75.1.95.05.6-.05H66.35" fill="#ebebeb" fill-opacity=".902"/><path d="M62 33v-.05l-.15-.4v.2l.05.1.05.25.1.45.3.7.15.2v-.05l-.1-.15-.05-.2-.2-.4-.1-.55v.1L62 33" fill="#883831" fill-opacity=".8"/><path d="M62.25 34.1l-.25-.45v-.05l-.1-.45-.05-.3V33.15l.05.3.15.4.15.25.1.15.05.05.2.2.1.15-.15-.2-.15-.2-.1-.15" fill="#8a3f46" fill-opacity=".8"/><path d="M67.75 34.75l-.7.4-1.35.25-1.25-.05-.95-.25q-.95-.45-1.35-1.45l.2.4.05.2.1.15v.05l.15.2h.05l.1.1h.05l.2.2.3.15.95.25.7.1h.45l1.35-.2.55-.2.25-.1.05-.05h.05l.15-.2-.1.05" fill="#4f2429" fill-opacity=".8"/><path d="M62.45 34.7l.35.3-.1-.2-.1-.1-.3-.45-.1-.15-.15-.25-.15-.4.15.55.15.3.1.15.15.25" fill="#9a6a76" fill-opacity=".8"/><path d="M62.8 34.75l-.1-.1h-.05l.15.1v.05l.05-.05h-.05" fill="#c1c4cd" fill-opacity=".8"/><path d="M69.9 31l.35-.05-.85-.15h-.1l-.85-.25-1.15-.3-.35-.05h-.05q.25.1.35.15l.35.1.4.15.95.2.8.15.15.05" fill="#e2dce6" fill-opacity=".902"/><path d="M64.8 30.1h.4l2.65.45 1.35.4.4.1h.55L69.9 31l-.15-.05-.8-.15-.95-.2-.4-.15-.35-.1-.35-.05-.85-.15-.55-.05-.05-.05H64.75l-.1.05h.15" fill="#5e171b" fill-opacity=".902"/><path d="M66.85 30.15L65.1 30H65l-.35.05-.1.05h.1l.1-.05h.7L65.1 30l.95.15.85.15-.3-.15h.25" fill="#8b6067" fill-opacity=".902"/><path d="M66.7 30.15h-.1l.3.15.35.05q-.1-.05-.35-.15h.05l.35.05-.2-.05-.15-.05h-.25" fill="#9f7581" fill-opacity=".902"/><path d="M70.3 30.95v-.05l-1.2-.25-1.75-.45h-.25l.2.05 1.15.3.85.25h.1l.85.15h.05" fill="#1b151f"/><path d="M68.8 31.8l-.05-.25-.2-.25-.2-.15-.4-.2-.95-.2-.4-.05.55.15.8.2.3.15.2.2.3.4h.05" fill="azure"/><path d="M68.9 32.2v-.15l-.05-.3-.1-.2.05.25h-.05l.05.05.05.4v.1h.05q-.1 1-.5 1.65l-.3.4-.15.2-.1.1-.15.2.15-.15.15-.15.35-.4.45-.8.1-.8.05-.25v-.05l-.05-.1" fill="#a06265" fill-opacity=".8"/><path d="M70.3 32.05v-.1h-.5l-.25.05-.1.1-.1.15.2-.15.25-.05h.5" fill="#7d3737" fill-opacity=".8"/><path d="M67.85 34.7l.1-.1.15-.35.35-.9.4-1-.3.6-.3.85-.25.6-.25.35.1-.05" fill="#6b3030" fill-opacity=".043"/><path d="M68.55 34.05l.15-.15.1-.15.1-.35.1-.35.05.15V33.65l.15-.45.2-.6v.1l-.15.75.35-.85-.05-.1-.05-.1-.15.1-.25.15-.1-.2-.05-.15v.05l.05.25.1.05.25-.05.1-.1-.1.15-.05.05-.05.15-.05.3-.05.2-.05-.25-.1-.2-.1.3-.1.35-.15.35-.1.15" fill="#4a2125" fill-opacity=".902"/><path d="M68.75 33.55l-.05.1v.05l-.05.2.15-.35.1-.35.1-.3.1.2.05.25.05-.2.05-.3.05-.15.05-.05.1-.15-.1.1-.25.05-.1-.05-.05-.25-.05.25-.1.8-.05.15m.25-.85h.25l-.1.3-.1-.15-.05-.15" fill="#6c3133" fill-opacity=".902"/><path d="M70.2 31.05h.1v-.1h-.05l-.35.05-.15-.05.15.05.25.05h.05" fill="#973834" fill-opacity=".902"/><path d="M70.3 32.2l-.1-.05h-.25l-.05.05.05.05v-.05h.3l-.05.05.1-.05" fill="#727a87"/><path d="M70 32.2h.2l-.05.05h.05l.05-.05H69.95v.05H70v-.05" fill="#bbcacf"/><path d="M69.3 33.7l.15-.4.2-.5.15-.3.25-.1.25-.05v-.05l-.55.2-.05.05v.05l-.15.35-.25.6v.15" fill="#734246" fill-opacity=".8"/><path d="M70.15 32.25l.05-.05H70v.05l.05.05.1-.05" fill="#f3feff"/><path d="M69.6 32.35l-.05.05.1.1h.05v-.1l-.05-.05h-.05m0 .05h.05v.05l-.05-.05" fill="#c5c3b6"/><path d="M69.65 32.45v-.05h-.05l.05.05" fill="#ecefe6"/><path d="M69.1 34l.1-.2.1-.25.25-.6.15-.35h-.1l-.35.85.15-.75v-.1l-.2.6-.15.45V33.25L69 33.2v.1l-.05.3-.05.45v.05l.25-.35-.1.25-.1.15-.1.25.25-.4" fill="#261e29" fill-opacity=".902"/><path d="M68.9 32.35h-.05l-.4 1-.35.9-.15.35.15-.2.3-.6.3-.85-.1.5-.2.55q.4-.65.5-1.65" fill="#ba9994" fill-opacity=".4"/><path d="M68.4 34l.2-.55.1-.5-.3.85-.3.6.3-.4" fill="azure" fill-opacity=".4"/><path d="M69.05 32.85l.1.15.1-.3H69l.05.15" fill="#723f3c" fill-opacity=".902"/><path d="M68.9 33.65v.05l-.05.25-.1.2.05.1v.2l.05-.05.1-.25.1-.15.1-.25-.25.35v-.05l.05-.45.05-.3v-.1l.05.05v-.05l-.05-.15-.1.35-.1.35.1-.1" fill="#3e2633" fill-opacity=".902"/><path d="M68.45 34.35l.1-.15.1-.15.05.05.1.15-.05-.1.1-.2.05-.25v-.05l-.1.1-.1.15-.15.15v.05l-.1.2v.05" fill="#42404e" fill-opacity=".902"/><path d="M68.45 35.1l.15-.2.55-.85.15-.35v-.15l-.1.25-.1.2-.25.5-.25.3-.15.3" fill="#796872" fill-opacity=".8"/><path d="M68.7 34.1l-.05-.05-.1.15-.1.15-.05.1.1-.1.15-.1.1.05.05.15v-.2l-.1-.15" fill="#4c647c" fill-opacity=".902"/><path d="M67.85 34.8l.35-.25.3-.4.2-.45v-.05l.05-.1.05-.15-.45.8-.35.4-.15.15-.15.15.15-.1" fill="#d1d6d2" fill-opacity=".8"/><path d="M67.6 34.95l-.05.1h.05l.45-.35.05-.05v.05l.3-.3.05-.1.1-.2v-.05l.1-.15.05-.2-.2.45-.3.4-.35.25-.15.1h-.05l-.05.05-.25.1.25-.1" fill="#ba9994" fill-opacity=".8"/><path d="M68.25 34.65l-.15.25-.3.35-.05.05h-.05.05l-.15.1-.3.15h-.05v.05H67.1h.1l.3-.1H67.65l.3-.2.05-.05.35-.3.5-.45.25-.5-.25.4-.05.05-.05-.15-.1-.05-.15.1-.1.1-.15.2m.45-.1h.05l-.2.2-.2.15-.1.1-.15.15.1-.25.1-.2.3-.25-.05.15h.05l.1-.05" fill="#ccdee8" fill-opacity=".902"/><path d="M67.95 35.3l-.3.2H67.5l-.3.1h-.1H67.25v-.05h.05l.3-.15.15-.1h-.05.05l.05-.05-.35.15-.6.3.15-.05h.2l.35-.1.1-.05.15-.1.2-.1h-.05m-1.65.4h-.05.1-.05m1.3-.35l.05-.05-.05.05" fill="#582a2c" fill-opacity=".902"/><path d="M64.05 35.55l-.15-.05.15.05m2.25.15h-.1.1" fill="#ccd4d6" fill-opacity=".8"/><path d="M65.35 35.6l1.05-.05.5-.15.35-.1.15-.1h.05l.05-.05-.05.05.15-.15h-.05l-.55.25-.1.05-1.75.2-.35-.05-.55-.1-.65-.15-.25-.05-.15-.05-.5-.35.1.2.1.05.1.1.5.2.35.1h.05l1.45.15m2.05-.4h.05-.05" fill="#875558" fill-opacity=".8"/><path d="M67.8 35.25l.3-.35.15-.25-.15.2h-.05l-.45.35-.05.05-.55.25-.05.05h-.05.15l.1-.05.1-.05h-.05l.25-.05.35-.15m-.15.05l-.05.05.05-.05" fill="#94575c" fill-opacity=".902"/><path d="M62.6 34.7l.1.1.5.35.15.05h.15l-.45-.25-.2-.2-.05.05v-.05l-.15-.1-.1-.15-.2-.2-.05-.05.3.45m.05-.05h.05-.05m4.7.4l-.55.2-1.35.2h-.75l.1.05.35.05 1.75-.2.1-.05.55-.25.05-.1-.25.1" fill="#ccd9e6" fill-opacity=".8"/><path d="M67.5 35.2l.1-.05.05-.05.25-.25.2-.15h-.05l-.45.35-.15.15.05-.05-.05.05h.05m-.05 0h-.05.05" fill="#95676a" fill-opacity=".8"/><path d="M68 35.3l.4-.35v.1l.1-.1.1-.15.25-.3-.5.45-.35.3-.05.05H68" fill="#7ea09f" fill-opacity=".902"/><path d="M66.8 35.9h.1l.75-.25.8-.55.15-.3-.1.15-.1.1-.75.5-.2.1-.25.1-.4.15" fill="#d2d4e0" fill-opacity=".902"/><path d="M67.2 35.75l-.6.15-1.55.1H65l-1.5-.2.2.1 1.6.2 1.6-.2h-.1l.4-.15" fill="#896978" fill-opacity=".902"/><path d="M68.6 34.6h-.05l.05-.15-.3.25-.1.2-.1.25.15-.15.1-.1.2-.15.2-.2h-.05l-.1.05" fill="#fcfefd"/><path d="M64.05 35.55l-.15-.1h-.05l-.35-.1-.5-.2-.1-.1-.1-.05-.35-.3-.1-.1.1.15.05.1.7.4.65.25h.05l.15.05" fill="#e8e2ec" fill-opacity=".8"/><path d="M67.45 35.4l-.25.05h.05l-.1.05-.1.05h-.15.05-.1v.05l-.25.05-.25.05h-.1.05-.1l-.6.05-.95-.05-.75-.1-.05-.05q-1.05-.25-1.5-.75l-.2-.15.3.4.4.3h.05l.8.35H63.85l1.3.15 1.5-.1.2-.05.6-.3" fill="#733f49" fill-opacity=".8"/><path d="M63.05 34.95l.45.25h-.15l.25.05.65.15.55.1-.1-.05h.3l-.7-.1-.95-.25-.3-.15" fill="#a7a4ad" fill-opacity=".8"/><path d="M61.1 30.2l1-.1H62.8l-.65-.1-1.1.05-.5.1-.05.15.6-.1" fill="#f0fffa"/><path d="M64.85 30h-.7l-.35-.05h-1.35l-.3.05.65.1 1.3-.05H64.5l.35-.05" fill="#eaebf2"/><path d="M69.25 32.35l.1-.15.05-.15q0-.1-.15-.1l-.2.05H69l-.1.05v.15q.1-.15.25-.15l.1.05-.1.2.05.05h.05" fill="#4a2124" fill-opacity=".824"/><linearGradient id="g" gradientUnits="userSpaceOnUse" gradientTransform="matrix(-.00638 -.00043 -.0001 .00153 64.7 31.25)" x1="-819.2" x2="819.2"><stop offset="0" stop-color="#662323" stop-opacity=".702"/><stop offset="1" stop-color="#401d1c" stop-opacity=".8"/></linearGradient><path d="M70.15 31.05h-.55l-.4-.1-1.35-.4-2.65-.45H64.55l.1-.05-.2.05h-.3l-1.15.05h-.8l-.4.05-1.35.2v.1l.55-.15.65-.05.25-.05 2.35-.05H64.65l1.05.1H65l-1.7.1-.55.05-.3.15-.1.1.55-.15h.3l.75-.05H64.55l.4-.05 1 .05.8.05h.05q1 .2 1.55.5l.4.4.25.55h.05l.2-.05q.15 0 .15.1l-.05.15-.1.15.25-.15.25-.1.55.05v-.1h-.5l-.25.05-.2.15.1-.15.1-.1.25-.05h.5v-.9H70.15" fill="url(#g)"/><linearGradient id="h" gradientUnits="userSpaceOnUse" gradientTransform="matrix(.00276 -.00029 -.0005 -.00471 62.1 33.4)" x1="-819.2" x2="819.2"><stop offset="0" stop-opacity=".8"/><stop offset="1" stop-color="#401d1c" stop-opacity=".8"/></linearGradient><path d="M60.45 31.85q.1-.1.15-.1l.2.2.1-.25.05-.15.3.1.35.2v.4l.05-.35.15-.6.4-.4.15-.1.55-.2h.15l.15-.05h-.3l-.55.15.1-.1.3-.15.55-.05 1.7-.1h.7l-1.05-.1H64.25l-2.35.05-.25.05-.65.05-.55.15-.05.25-.05.75.05.25.05.1m1.85-1.5h.2l-.35.05-.15.05-.05.15-.05.15v-.1l.05-.3h.35m-1.05.2h-.05l-.05-.05v-.05h.05l.1.05-.05.05m.05.1l.05-.05h.05l.05.05.1.05-.1.05-.2-.05h-.1l-.05-.05.1-.05.05.05.05-.05v.05m.1-.05l-.05-.1v-.05h.05l.1.1-.1.05m-.15.2l-.05.05h-.05l-.05-.05v-.05h.1l.05.05m.15.4l-.05.05-.35.1h-.25l-.05-.15V31.05l.05-.15.05-.05.15.05.45.2h.05v.05h-.05v.05m.65-.5l-.15.35-.05.1-.05.05.05-.2.05-.15.05-.1.1-.05m.9 4.9l.05.05.5.15 1.5.2h.05l1.55-.1.6-.15.25-.1.2-.1.75-.5v-.1l-.4.35-.2.1-.15.1-.1.05-.35.1H67l-.15.05-.2.05-1.5.1-1.3-.15H63.7l-.8-.35h-.05l-.4-.3-.3-.4.2.15-.1-.1q-.5-.6-.65-1.7v.65l-.35-.8-.2-.45v-.05l.3.55.2.4v-.05l-.25-.6-.15-.3-.25-.25-.25-.15v.2l.35.6.05.05.65 1.45.05.15.25.45.95.75m-2.25-3.5v-.05l.2.2.05.15v.05l-.25-.3v-.05" fill="url(#h)"/><linearGradient id="i" gradientUnits="userSpaceOnUse" gradientTransform="matrix(-.00002 .00076 .0013 .00003 62.1 31.75)" x1="-819.2" x2="819.2"><stop offset="0" stop-color="#2f0d0b" stop-opacity=".8"/><stop offset="1" stop-color="#5a1a1a" stop-opacity=".8"/></linearGradient><path d="M62.4 30.85l-.45.45.05-.05-.2.4-.05.25.1.45v.2l.15.4-.05-.3-.05-.5.1-.7.25-.35.15-.2.45-.2-.45.15" fill="url(#i)"/><linearGradient id="j" gradientUnits="userSpaceOnUse" gradientTransform="matrix(-.0008 .00012 .00017 .0011 60.85 32.45)" x1="-819.2" x2="819.2"><stop offset="0" stop-color="#2f0d0b" stop-opacity=".8"/><stop offset="1" stop-color="#5a1a1a" stop-opacity=".8"/></linearGradient><path d="M60.65 32.1v-.15l.25.15.25.25.15.3.25.6v.05l-.2-.4-.3-.55v.05l.2.45.35.8V33l-.05-.1v-.4l.05-.25v-.4l-.35-.2-.3-.1-.05.15-.1.25-.2-.2q-.05 0-.15.1l.2.25" fill="url(#j)"/><linearGradient id="k" gradientUnits="userSpaceOnUse" gradientTransform="matrix(-.00111 0 0 .00072 62.75 35.3)" x1="-819.2" x2="819.2"><stop offset="0" stop-opacity=".8"/><stop offset="1" stop-color="#401d1c" stop-opacity=".8"/></linearGradient><path d="M63.5 35.8l-.5-.15-.05-.05-.95-.75-.15-.1q.55.85 1.85 1.15l-.2-.1" fill="url(#k)"/><linearGradient id="l" gradientUnits="userSpaceOnUse" gradientTransform="matrix(.00087 .0001 .00005 -.00041 69.55 32.45)" x1="-819.2" x2="819.2"><stop offset="0" stop-opacity=".8"/><stop offset="1" stop-color="#401d1c" stop-opacity=".8"/></linearGradient><path d="M69.7 32.6v-.05l.05-.05.55-.2V32.15l-.55-.05-.25.1-.25.15h-.05l-.05-.05.1-.2-.1-.05q-.15 0-.25.15l.05.1.05.15.1.2.25-.15.15-.1.05.1.05.1h.1m-.05-.25l.05.05v.1h-.05l-.1-.1.05-.05h.05m.55-.1h-.05l-.1.05-.05-.05h-.05l-.05-.05.05-.05h.25l.1.05-.1.05" fill="url(#l)"/><radialGradient id="m" gradientUnits="userSpaceOnUse" gradientTransform="matrix(.00734 0 0 .00734 78.9 28.85)" spreadMethod="pad" cx="0" cy="0" r="819.2" fx="0" fy="0"><stop offset="0" stop-color="#fff"/><stop offset="1" stop-color="#fff" stop-opacity="0"/></radialGradient><path d="M76.9 33l-2.8-1.05-.25-1.1 2.45-.2 1.7.25q.6.3.55 1.05l-.1 1.25q-.1.55-.45.35L76.9 33" fill="url(#m)"/><radialGradient id="n" gradientUnits="userSpaceOnUse" gradientTransform="matrix(-.00734 0 0 .00734 61.65 28.85)" spreadMethod="pad" cx="0" cy="0" r="819.2" fx="0" fy="0"><stop offset="0" stop-color="#fff"/><stop offset="1" stop-color="#fff" stop-opacity="0"/></radialGradient><path d="M62.2 33.4l-.1-1.25q-.1-.9.45-1.15l1.7-.35 2.45.2-.25 1.1-2.8 1.05-1.1.55q-.35.2-.35-.15" fill="url(#n)"/></g></svg>