<svg xmlns="http://www.w3.org/2000/svg" width="21" height="5"><g transform="translate(-60.25 -30.15)"><path d="M78.7 30.45l-.15-.05.3.1h.05l.35.25.2.45h-.05l.05.35V31.85q-.15 1.1-1.25 2-1 .8-2 .95l-1.1.05q-.85 0-1.55-.4l-.75-.55-.25-.25-.4-.65q-.3-.5-.3-.95v-.6l-.65-.3-1.2-.2-.1-.05-.05-.1h.3l1.15.2.35.25h.25l.1-.1v-.1l.1-.15.2-.1.2-.05-.2.15-.1.1-.2.55q0 .7.45 1.35l.85 1q.35.35.85.55l1.05.25.9-.05.45-.1.45-.15.3-.15.4-.25.7-.55.65-.8.25-.8v-.05l-.1-.65-.5-.5.2.1-.15-.1h.1l.2.05-.2-.15-.05-.05.05.05-.15-.1" fill="#1b2126"/><path d="M78.8 30.5l.05.05-.05-.05m-5.05-.1l.85-.05.4-.05h.85l1.6.05 1.25.1.15.1.2.15-.2-.05h-.1l.15.1-.2-.1-1.45-.2-1.65-.05h-.55l-1.5.15q-.85.1-1.25.35l.2-.15-.2.05q.65-.35 1.45-.4" fill="#2f3437"/><path d="M79.9 31.25l.35.1v.05h-.1l-.65-.05.1-.1h.3" fill="#b6babd"/><path d="M80.2 31.6l-.75.05v-.1l-.05-.35h.25l.65.1-.1.3m-.6-.35l-.1.1.65.05h.1v-.05l-.35-.1h-.3" fill="#4f4f4f"/><path d="M73.55 30.55l1.5-.15h.55l1.65.05 1.45.2.5.5.1.65v.05l-.25.8-.65.8-.7.55-.4.25-.3.15-.45.15-.45.1-.9.05-1.05-.25q-.5-.2-.85-.55l-.85-1q-.45-.65-.45-1.35l.2-.55.1-.1q.4-.25 1.25-.35m-1.25.25l-.2.1.15-.15.05-.05 1.7-.35 1.55-.1h1.55l1.6.2-1.25-.1-1.6-.05H75l-.4.05-.85.05q-.8.05-1.45.4m6.3.05h-.1l-2-.35-1.35.05-1.7.1q-1.55.4-1 1.75l.1.2.65.9q.45.55 1.55.9 2.25.25 3.75-1.4 1-1.5.15-2.1l-.05-.05" fill="#63686b"/><path d="M80.3 31.3l.1.05-.1.45-.85.05v-.2l.75-.05.1-.3" fill="#292e34"/><path d="M72 31.1v.05l-.1.1h-.25L71.3 31l-1.15-.2h-.3l.05-.1.1-.05h.85q.4.05.6.25.2.25.5.25v-.05H72m-1-.35l-.55-.05H70l.1.05h.25l.65.05v-.05" fill="#5d5d5d"/><path d="M71 30.8l-.65-.05h-.25l-.1-.05h.45l.55.05v.05" fill="#bdbdbd"/><path d="M72.3 30.7l.15-.1.45-.2 2.3-.25 1.75.05 1.4.15.2.05.15.05-1.6-.2h-1.55l-1.55.1-1.7.35" fill="#a6a6a6"/><radialGradient id="a" gradientUnits="userSpaceOnUse" gradientTransform="matrix(.0052 0 0 .00397 75.5 30.15)" spreadMethod="pad" cx="0" cy="0" r="819.2" fx="0" fy="0"><stop offset="0" stop-color="#fff" stop-opacity=".973"/><stop offset="1" stop-color="#fff" stop-opacity="0"/></radialGradient><path d="M78.5 30.55l.25.05.3.2-1.1-.25-.55-.1-.7-.05-2.7.05-1 .15v-.05l.8-.2 1.8-.1h.35l2 .15.5.1.05.05" fill="url(#a)"/><radialGradient id="b" gradientUnits="userSpaceOnUse" gradientTransform="matrix(.00443 0 0 .00443 77.65 33.2)" spreadMethod="pad" cx="0" cy="0" r="819.2" fx="0" fy="0"><stop offset="0" stop-color="#fff" stop-opacity=".973"/><stop offset="1" stop-color="#fff" stop-opacity="0"/></radialGradient><path d="M79.4 31.65v.2l-.3.9-.9 1q-.6.55-1.4.75l-1.1.25-.35-.05-.35-.1h.1q1.75.1 3-.95 1.2-1.1 1.25-2h.05" fill="url(#b)"/><radialGradient id="c" gradientUnits="userSpaceOnUse" gradientTransform="translate(72 32.75) scale(.00296)" spreadMethod="pad" cx="0" cy="0" r="819.2" fx="0" fy="0"><stop offset="0" stop-color="#fff" stop-opacity=".973"/><stop offset="1" stop-color="#fff" stop-opacity="0"/></radialGradient><path d="M74 34.35l-.15-.05q-1-.5-1.45-1.3-.5-.8-.45-1.25l.25-.7.1-.1h.05q.2-.15.45-.2h.05q-.45.2-.55.5v-.05l-.05.05q-.15.4-.05.85l.6 1.1.55.65.65.5" fill="url(#c)"/><path d="M70.45 30.8v.15q-.75-.05-.95.2l-.65.3v.6l-.3.95-.4.65-.25.25-.8.55q-.65.4-1.5.4l-1.1-.05q-1.05-.15-2.05-.95-1.1-.9-1.2-2l-.05-.2v-.1l.05-.35h-.05q.05-.3.25-.45l.3-.25h.05l.3-.1-.1.05-.15.1v-.05l-.05.05-.2.15.2-.05h.1l-.15.1.25-.1-.5.5q-.15.2-.15.65v.05l.3.8.65.8.7.55.35.25.35.15.4.15.45.1.95.05 1.05-.25.85-.55.85-1 .45-1.35-.25-.55-.1-.1-.2-.15.2.05.25.1.05.15.05.05v.05l.05.1H69l.35-.25 1.1-.2" fill="#1b2126"/><path d="M62 30.45l1.2-.1 1.6-.05h.9l.4.05.8.05 1.45.4-.2-.05.2.15-1.2-.35-1.5-.15h-.55l-1.7.05-1.4.2-.25.1.15-.1h-.1l-.2.05.2-.15.05-.05v.05l.15-.1" fill="#2f3437"/><path d="M60.45 31.35l.3-.1h.3l.1.1-.65.05h-.05v-.05" fill="#b6babd"/><path d="M61.2 31.65l-.75-.05q-.1-.05-.05-.3l.65-.1h.2l-.05.35v.1m-.75-.25h.05l.65-.05-.1-.1h-.3l-.3.1v.05" fill="#4f4f4f"/><path d="M63.6 30.25h1.5l1.55.1 1.7.35.1.05.15.15-.25-.1-1.45-.4-.8-.05-.4-.05h-.9l-1.6.05-1.2.1 1.6-.2m-1.6.4l1.4-.2 1.7-.05h.55l1.5.15 1.2.35.1.1.25.55-.45 1.35-.85 1-.85.55-1.05.25-.95-.05-.45-.1-.4-.15-.35-.15L63 34l-.7-.55-.65-.8-.3-.8v-.05q0-.45.15-.65l.5-.5m0 .25q-.85.6.2 2.1 1.5 1.65 3.75 1.4 1.05-.35 1.55-.9l.65-.9.1-.2q.5-1.4-1.05-1.75l-1.65-.1-1.4-.05q-1.35 0-2 .35l-.15.05" fill="#63686b"/><path d="M60.45 31.6l.75.05.05.2-.9-.05q-.15-.1-.05-.45l.1-.05q-.05.25.05.3" fill="#292e34"/><path d="M69.35 31l-.35.25h-.25l-.05-.1v-.05.05l.55-.25q.15-.2.6-.25h.6v.05h-.25l-.5.05h-.05v.05l.65-.05h.15v.05l-1.1.2" fill="#5d5d5d"/><path d="M70.45 30.7v.05h-.15l-.65.05v-.05h.05l.5-.05h.25" fill="#bdbdbd"/><path d="M62 30.45l.1-.05.2-.05 1.4-.15 1.75-.05 2.35.25.4.2h.05l.1.1-1.7-.35-1.55-.1h-1.5l-1.6.2" fill="#a6a6a6"/><radialGradient id="d" gradientUnits="userSpaceOnUse" gradientTransform="matrix(-.0052 0 0 .00397 65.2 30.15)" spreadMethod="pad" cx="0" cy="0" r="819.2" fx="0" fy="0"><stop offset="0" stop-color="#fff" stop-opacity=".973"/><stop offset="1" stop-color="#fff" stop-opacity="0"/></radialGradient><path d="M62.15 30.55l-.2.05-.35.2 1.15-.25.55-.1.7-.05 2.7.05 1 .15-.05-.05-.75-.2-1.85-.1h-.35l-1.95.15-.55.1-.05.05" fill="url(#d)"/><radialGradient id="e" gradientUnits="userSpaceOnUse" gradientTransform="matrix(-.00443 0 0 .00443 63 33.2)" spreadMethod="pad" cx="0" cy="0" r="819.2" fx="0" fy="0"><stop offset="0" stop-color="#fff" stop-opacity=".973"/><stop offset="1" stop-color="#fff" stop-opacity="0"/></radialGradient><path d="M61.3 31.85q0 .45.3.9l.85 1q.65.55 1.4.75l1.15.25.3-.05.4-.1h-.15q-1.75.1-2.95-.95-1.2-1.1-1.3-2v.2" fill="url(#e)"/><radialGradient id="f" gradientUnits="userSpaceOnUse" gradientTransform="matrix(-.00296 0 0 .00296 68.7 32.75)" spreadMethod="pad" cx="0" cy="0" r="819.2" fx="0" fy="0"><stop offset="0" stop-color="#fff" stop-opacity=".973"/><stop offset="1" stop-color="#fff" stop-opacity="0"/></radialGradient><path d="M66.65 34.35l.15-.05q1.05-.5 1.5-1.3l.4-1.25-.25-.7-.1-.1-.45-.2h-.05l.55.5v-.05.05l.05.85-.6 1.1-.55.65-.65.5" fill="url(#f)"/><radialGradient id="g" gradientUnits="userSpaceOnUse" gradientTransform="matrix(.00734 0 0 .00734 79.25 28.8)" spreadMethod="pad" cx="0" cy="0" r="819.2" fx="0" fy="0"><stop offset="0" stop-color="#fff"/><stop offset="1" stop-color="#fff" stop-opacity="0"/></radialGradient><path d="M78.5 30.9q.6.25.5.95v.05l-.3.7-.7.7-.75-.35-2.8-1.05-.25-1.1 2.45-.2 1.85.3" fill="url(#g)"/><radialGradient id="h" gradientUnits="userSpaceOnUse" gradientTransform="matrix(-.00734 0 0 .00734 61.4 28.75)" spreadMethod="pad" cx="0" cy="0" r="819.2" fx="0" fy="0"><stop offset="0" stop-color="#fff"/><stop offset="1" stop-color="#fff" stop-opacity="0"/></radialGradient><path d="M64 30.55l2.45.2-.25 1.1-2.8 1.05-.7.35q-.5-.15-.75-.7l-.25-.7v-.05q-.15-.7.5-.95l1.8-.3" fill="url(#h)"/></g></svg>