<svg xmlns="http://www.w3.org/2000/svg" width="21" height="4"><g transform="translate(-60.3 -30.2)"><path d="M70.55 31.3v-.4l-.1-.05-1.65.1q-.4-.2-1.3-.45l-1.65-.25-2.2.15q-1.4.15-2.55.9-.75-.05-.8.55 0 .55.8.65l.25.2q1.55 1.2 3.95 1.15 2.5-.05 4.2-1.95l.1-.15.2-.2.1-.1.15-.05.5-.1m-1.6.6q-.85 1.5-4.7 1.55-1.8-.35-2.9-1.2-.3-.45.5-.85 4-1.5 6.8.1l.3.4" fill="#090909"/><path d="M69.8 31.55h.05l.05-.1-.1.1m.25-.15l.5-.05v-.05l-.5.1" fill="#595a5e"/><path d="M70.55 30.9v-.05h-.1l.1.05" fill="#5b5c60"/><linearGradient id="a" gradientUnits="userSpaceOnUse" gradientTransform="matrix(-.00061 -.00012 .0001 -.0007 63.45 31.4)" x1="-819.2" x2="819.2"><stop offset="0" stop-color="#fff" stop-opacity=".973"/><stop offset="1" stop-color="#fff" stop-opacity="0"/></linearGradient><path d="M63.3 31l1-.05q-.25.45-.1.95l-.9.05q-.15-.5 0-.95" fill="url(#a)"/><linearGradient id="b" gradientUnits="userSpaceOnUse" gradientTransform="matrix(-.00066 .00024 -.0002 -.0005 62.25 31.8)" x1="-819.2" x2="819.2"><stop offset="0" stop-color="#fff" stop-opacity=".973"/><stop offset="1" stop-color="#fff" stop-opacity="0"/></linearGradient><path d="M63.15 31.95l-.85.3q-.2-.25-.25-.7.45-.4 1.1-.5v.9" fill="url(#b)"/><linearGradient id="c" gradientUnits="userSpaceOnUse" gradientTransform="matrix(.00047 -.0014 -.00049 -.00017 69.5 30.45)" x1="-819.2" x2="819.2"><stop offset=".031" stop-color="#090909"/><stop offset=".302" stop-color="#949494"/><stop offset=".475" stop-color="#eee"/><stop offset=".631" stop-color="#919191"/><stop offset="1" stop-color="#0a0a0a"/></linearGradient><path d="M69 31.8l.8-.85-.95.05.05.05.1.75" fill="url(#c)"/><linearGradient id="d" gradientUnits="userSpaceOnUse" gradientTransform="matrix(-.00243 .00084 .00017 .00053 67.5 33.2)" x1="-819.2" x2="819.2"><stop offset=".031" stop-color="#090909"/><stop offset=".302" stop-color="#949494"/><stop offset=".431" stop-color="#eee"/><stop offset=".588" stop-color="#e1e1e1"/><stop offset=".71" stop-color="#919191"/><stop offset="1" stop-color="#0a0a0a"/></linearGradient><path d="M64.5 33.9q3.8-.25 4.7-1.8l-.3.05q-1.05 1.35-4.35 1.45l-.05.3" fill="url(#d)"/><linearGradient id="e" gradientUnits="userSpaceOnUse" gradientTransform="matrix(-.00562 0 0 .00076 66.1 30.75)" x1="-819.2" x2="819.2"><stop offset=".031" stop-color="#090909"/><stop offset=".302" stop-color="#949494"/><stop offset=".431" stop-color="#eee"/><stop offset=".588" stop-color="#e1e1e1"/><stop offset=".71" stop-color="#919191"/><stop offset="1" stop-color="#0a0a0a"/></linearGradient><path d="M68.7 30.85q-.8-.65-4.05-.65-2.75 0-3.6 1.25.95-.95 3.45-1l3.45.3.65.25h.15v-.15h-.05" fill="url(#e)"/><linearGradient id="f" gradientUnits="userSpaceOnUse" gradientTransform="matrix(.00021 -.00066 -.0004 -.00012 61.4 31.55)" x1="-819.2" x2="819.2"><stop offset=".031" stop-color="#090909"/><stop offset=".302" stop-color="#949494"/><stop offset=".475" stop-color="#eee"/><stop offset=".631" stop-color="#919191"/><stop offset="1" stop-color="#0a0a0a"/></linearGradient><path d="M61.05 31.55h-.2q-.35 0-.4.25-.05.2.55.3l.05-.55" fill="url(#f)"/><linearGradient id="g" gradientUnits="userSpaceOnUse" gradientTransform="matrix(.00223 .00084 -.00015 .00053 62.5 33.2)" x1="-819.2" x2="819.2"><stop offset=".031" stop-color="#090909"/><stop offset=".302" stop-color="#949494"/><stop offset=".431" stop-color="#eee"/><stop offset=".588" stop-color="#e1e1e1"/><stop offset=".71" stop-color="#919191"/><stop offset="1" stop-color="#0a0a0a"/></linearGradient><path d="M61.15 32.35l-.05.15q1.35 1.3 4.2 1.4l.05-.2q-2.6-.15-4.2-1.35" fill="url(#g)"/><path d="M70.55 31.3v-.4l.1-.05 1.6.1 1.3-.45 1.6-.25 2.15.15q1.4.15 2.55.9.7-.05.75.55 0 .55-.75.65l-.25.2q-1.55 1.2-3.9 1.15-2.45-.05-4.1-1.95l-.1-.15-.25-.2-.1-.1-.15-.05-.45-.1m1.55.6q.85 1.5 4.65 1.55 1.75-.35 2.85-1.2.3-.45-.55-.85-3.9-1.5-6.65.1l-.3.4" fill="#090909"/><path d="M71.25 31.55h-.05l-.05-.1.1.1M71 31.4l-.45-.05v-.05l.45.1" fill="#595a5e"/><path d="M70.55 30.9v-.05h.1l-.1.05" fill="#5b5c60"/><linearGradient id="h" gradientUnits="userSpaceOnUse" gradientTransform="matrix(.00061 -.00012 -.0001 -.0007 77.5 31.4)" x1="-819.2" x2="819.2"><stop offset="0" stop-color="#fff" stop-opacity=".973"/><stop offset="1" stop-color="#fff" stop-opacity="0"/></linearGradient><path d="M77.65 31l-1-.05.15.95.85.05V31" fill="url(#h)"/><linearGradient id="i" gradientUnits="userSpaceOnUse" gradientTransform="matrix(.00064 .00024 .00018 -.0005 78.7 31.8)" x1="-819.2" x2="819.2"><stop offset="0" stop-color="#fff" stop-opacity=".973"/><stop offset="1" stop-color="#fff" stop-opacity="0"/></linearGradient><path d="M77.8 31.95l.85.3.25-.7q-.45-.4-1.05-.5l-.05.9" fill="url(#i)"/><linearGradient id="j" gradientUnits="userSpaceOnUse" gradientTransform="matrix(-.00047 -.0014 .00047 -.00017 71.6 30.45)" x1="-819.2" x2="819.2"><stop offset=".031" stop-color="#090909"/><stop offset=".302" stop-color="#949494"/><stop offset=".475" stop-color="#eee"/><stop offset=".631" stop-color="#919191"/><stop offset="1" stop-color="#0a0a0a"/></linearGradient><path d="M72.05 31.8l-.8-.85.95.05-.05.05-.1.75" fill="url(#j)"/><linearGradient id="k" gradientUnits="userSpaceOnUse" gradientTransform="matrix(.00238 .00084 -.00015 .00053 73.55 33.2)" x1="-819.2" x2="819.2"><stop offset=".031" stop-color="#090909"/><stop offset=".302" stop-color="#949494"/><stop offset=".431" stop-color="#eee"/><stop offset=".588" stop-color="#e1e1e1"/><stop offset=".71" stop-color="#919191"/><stop offset="1" stop-color="#0a0a0a"/></linearGradient><path d="M76.5 33.9q-3.75-.25-4.65-1.8l.3.05q1.05 1.35 4.3 1.45l.05.3" fill="url(#k)"/><linearGradient id="l" gradientUnits="userSpaceOnUse" gradientTransform="matrix(.00552 0 0 .00076 74.9 30.75)" x1="-819.2" x2="819.2"><stop offset=".031" stop-color="#090909"/><stop offset=".302" stop-color="#949494"/><stop offset=".431" stop-color="#eee"/><stop offset=".588" stop-color="#e1e1e1"/><stop offset=".71" stop-color="#919191"/><stop offset="1" stop-color="#0a0a0a"/></linearGradient><path d="M72.35 30.85q.8-.65 4-.65 2.65 0 3.55 1.25-1-.95-3.4-1l-3.4.3-.65.25h-.15v-.15h.05" fill="url(#l)"/><linearGradient id="m" gradientUnits="userSpaceOnUse" gradientTransform="matrix(-.0002 -.00066 .0004 -.00012 79.55 31.55)" x1="-819.2" x2="819.2"><stop offset=".031" stop-color="#090909"/><stop offset=".302" stop-color="#949494"/><stop offset=".475" stop-color="#eee"/><stop offset=".631" stop-color="#919191"/><stop offset="1" stop-color="#0a0a0a"/></linearGradient><path d="M79.9 31.55h.15q.35 0 .4.25.05.2-.55.3v-.55" fill="url(#m)"/><linearGradient id="n" gradientUnits="userSpaceOnUse" gradientTransform="matrix(-.0022 .00084 .00015 .00053 78.45 33.2)" x1="-819.2" x2="819.2"><stop offset=".031" stop-color="#090909"/><stop offset=".302" stop-color="#949494"/><stop offset=".431" stop-color="#eee"/><stop offset=".588" stop-color="#e1e1e1"/><stop offset=".71" stop-color="#919191"/><stop offset="1" stop-color="#0a0a0a"/></linearGradient><path d="M79.8 32.35l.05.15q-1.35 1.3-4.15 1.4l-.05-.2q2.55-.15 4.15-1.35" fill="url(#n)"/></g></svg>