<svg xmlns="http://www.w3.org/2000/svg" width="20" height="7"><g transform="translate(-60.15 -29.6)"><path d="M79.3 32.45v1.05l-.1-1.05-.05-.15-.05-.2-.05-.2-.05-.15v-.05l-.2-.45-.1-.2-.5-.45-.25-.15-.5-.15-.15-.05-.15-.05-1.4-.2h-.35l-.45-.1h-1.6l-.7-.05h-2.2L69 29.9h-.15l-.95.05v-.1l3.4-.05h2.5l.9.05h.25l.7.05.75.05.6.15.6.15.4.15.45.2.15.15.2.25.35.75v.1l.05.15v.05l.05.2v.1l.05.1" fill="#bac0be"/><path d="M67.9 29.95l.95-.05H69l1.45-.05h2.2l.7.05h.45l-1.15.15h-.05v.05h-.1l-4.4.05-.1-.05-.05-.1-.05-.05" fill="#4d5457"/><path d="M67.95 29.75q.05-.1.15-.1 3.35-.15 6.9.15l.85.05q1.35.05 2.15.5l.45.25-.45-.2-.4-.15-.6-.15-.6-.15-.75-.05-.7-.05h-.25l-.9-.05H71.3l-3.4.05.05-.1" fill="#f3f2f7"/><path d="M75.95 30.2l1.15.05h.2l.15.05.5.15.25.15.5.45.1.2.2.45v.05l.05.15.05.55v.5l-.1-.65-.05-.25v-.1l-.15-.3-.05-.05-.05-.05-.05-.05v.05l-.05-.05h-.05v-.05l-.15-.2.05.15-.1-.15-.75-.6-.4-.15-.5-.1-.2-.05h-.15l-.25-.05H74.8l1.15-.1" fill="#515a63"/><path d="M75.4 30h.35l1.4.2.15.05h-.2l-1.15-.05-1.15.1h-.2l-.05.05h-.05l-.2-.1-.65-.1h.25l-.25-.05h-.3l2.25-.05-.15-.05h-.05m-1.75.1l.25.05-.15-.05h-.1" fill="#9da5a8"/><path d="M75.45 30l.15.05-2.25.05-.4.05-.65.25-.45.4-.05.05-.1.2-.1.7v.55l.05.3-.05.5-.15-1.15v-.55q.1-.7.4-.9.25-.3.65-.4h.1l.05-.05 1.15-.15H74.95l.45.1h.05" fill="#8b8e93"/><path d="M80 31.8l.05.25h-.85V32l-.05-.15.85-.05m0 .55l-.05.1h.1-.75l-.05-.1H80" fill="#8d9691"/><path d="M80.05 32.05v.05l-.05.15-.15.05.05-.05-.25.05-.4-.05-.05-.2h.85" fill="#48514c"/><path d="M79.65 32.35h-.4v-.1l.4.05.25-.05-.05.05.15-.05v.1h-.35" fill="#7d877f"/><path d="M79.15 31.85v-.1H80v.05l-.85.05" fill="#bac4c0"/><path d="M79.3 33.5l-.05.5h-.05l-.1.5-.1.25-.2.3-.4.45-.25.25-.2.15-.6.25q1.4-.6 1.6-1.95v-.4l.05-.85-.3-1.35v-.05l.05.05.05.05.15.3v.1l.05.25.1.65v-.5l-.05-.55.05.2.05.2.05.15.1 1.05" fill="#788389"/><path d="M73.75 30.1l.15.05-.25-.05.25.05h-.25l.65.1.2.1h-.05l-1.6.15-.6.3h-.05q-.3.25-.3 1.2l.25 1.25Q73 35.95 76.3 36q2.1-.05 2.45-2.1l.05-1.35-.05-.4-.1-.35-.1-.25-.15-.3.15.2v.05h.05l.05.05v-.05l.05.05v.05l.3 1.35-.05.85V34.2q-.2 1.35-1.6 1.95h-.1l-.85.15-1.1-.1h-.15l-1.05-.35-.85-.4-.8-.9-.55-1.05-.05-.1-.05-.15-.15-.65-.05-.3v-.55l.1-.7.1-.2.05-.05.45-.4.65-.25.4-.05h.4" fill="#bbbfc0"/><path d="M71.25 31.55h-.15V31.4h.35v.15h-.2" fill="#afb5b3"/><path d="M71.1 31.95v-.2h.35v.2h-.35" fill="#777f81"/><path d="M71.1 31.9v.05h-1.55v-.5l1.55-.05V31.55h-.55l-.85.1.55.1h.85v.15" fill="#5e6462"/><path d="M71.45 31.55v.2h-.35v-.2h.35" fill="#485253"/><path d="M71.1 31.75h-.85l-.55-.1.85-.1h.55v.2" fill="#3a4245"/><path d="M72.25 34.6l-.6-1.25-.05-.2v-.05l.05-.5.15.65.05.15.05.1.35 1.1" fill="#737c85"/><path d="M77.95 35.9l.2-.15.25-.25.4-.45.2-.3-.2.4q-.7 1.25-2.45 1.3-2.85-.05-4.1-1.85l-.35-1.1.55 1.05.8.9.85.4 1.05.35h.15l1.1.1.85-.15h.1l.6-.25" fill="#525b62"/><radialGradient id="a" gradientUnits="userSpaceOnUse" gradientTransform="matrix(.01402 0 0 .00914 75.8 30.6)" spreadMethod="pad" cx="0" cy="0" r="819.2" fx="0" fy="0"><stop offset="0" stop-color="#e5fcff" stop-opacity=".2"/><stop offset="1" stop-color="#fff" stop-opacity="0"/></radialGradient><path d="M78.55 31.55l.1.25.1.35.05.4-.05 1.35q-.35 2.05-2.45 2.1-3.3-.05-4.15-2.75L71.9 32q0-.95.3-1.2h.05l.6-.3 1.6-.15h.1l.05-.05h1.5l.25.05h.15l.2.05.5.1.4.15.75.6.1.15-.05-.15.15.3" fill="url(#a)"/><path d="M78.65 30.9l.25.55.1 1.4-.3-1.35-.25-.4-.35-.3q-.2-.2-1.4-.65l.7.1.45.15.5.25.3.25M73 30.15l.55-.05.75-.05h.45l-.25.05-.75.1-.7.1-.7.3-.45.45-.25 1.2v-.8l.05-.45.15-.3.3-.3.85-.25m-.25 4.75l-.3-.5-.05-.05-.15-.6.35.6.5.6.55.4.55.25.5.25.5.15-.9-.2-1-.45-.55-.45" fill="#fff"/><radialGradient id="b" gradientUnits="userSpaceOnUse" gradientTransform="matrix(.00734 0 0 .00734 79.05 29.25)" spreadMethod="pad" cx="0" cy="0" r="819.2" fx="0" fy="0"><stop offset="0" stop-color="#fff"/><stop offset="1" stop-color="#fff" stop-opacity="0"/></radialGradient><path d="M76.7 30.65l.45.15.75.35q.7.3.65 1.55l-.05.5-.5.7-.2.15q-1.45-1-3.55-1.7l.65-1.95.8-.05.75.15.25.15" fill="url(#b)"/><path d="M61.6 30.75l-.2.25q-.25.3-.35.75v.1L61 32v.05l-.05.2v.1l-.05.1v1.05l.1-1.05.05-.15.05-.2.05-.2.05-.15v-.05l.2-.45.1-.2.5-.45.25-.15.5-.15.15-.05.15-.05 1.4-.2h.35l.45-.1h1.6l.7-.05h2.2l1.45.05h.15l.95.05v-.1l-3.4-.05h-2.5l-.9.05h-.25l-.7.05-.75.05-.6.15-.6.15-.4.15-.45.2-.15.15" fill="#bac0be"/><path d="M72.3 29.95l-.95-.05h-.15l-1.45-.05h-2.2l-.7.05h-.45l1.15.15h.05v.05h.1q2.2-.1 4.4.05l.1-.05.05-.1.05-.05" fill="#4d5457"/><path d="M72.25 29.75l-.15-.1q-3.35-.15-6.9.15l-.85.05q-1.35.05-2.15.5l-.45.25.45-.2.4-.15.6-.15.6-.15.75-.05.7-.05h.25l.9-.05H68.9l3.4.05-.05-.1" fill="#f3f2f7"/><path d="M61.1 32.45v.5l.1-.65.05-.25v-.1l.15-.3.05-.05.05-.05.05-.05v.05l.05-.05h.05v-.05l.15-.2-.05.15.1-.15.75-.6.4-.15.5-.1.2-.05h.15l.25-.05H65.4l-1.15-.1-1.15.05h-.2l-.15.05-.5.15-.25.15-.5.45-.1.2-.2.45v.05l-.05.15-.05.55" fill="#515a63"/><path d="M65.5 30.3h.1l.05.05h.05l.2-.1.65-.1h-.25l.25-.05h.3l-2.25-.05.15-.05h.05-.35l-1.4.2-.15.05h.2l1.15-.05 1.15.1h.1m.8-.15l.15-.05h.1l-.25.05" fill="#9da5a8"/><path d="M64.75 30l-.15.05 2.25.05.4.05.65.25.45.4.05.05.1.2.1.7v.55l-.05.3.05.5.15-1.15v-.55q-.1-.7-.4-.9-.25-.3-.65-.4h-.1l-.05-.05-1.15-.15H65.25l-.45.1h-.05" fill="#8b8e93"/><path d="M60.2 32.35l.05.1h-.1.75l.05-.1h-.75m0-.55l-.05.25H61V32l.05-.15-.85-.05" fill="#8d9691"/><path d="M60.35 32.3l-.05-.05.25.05.4-.05.05-.2h-.85v.05l.05.15.15.05" fill="#48514c"/><path d="M60.55 32.35h.4v-.1l-.4.05-.25-.05.05.05-.15-.05v.1h.35" fill="#7d877f"/><path d="M61.05 31.85v-.1h-.85v.05l.85.05" fill="#bac4c0"/><path d="M61.2 34.75l.2.3.4.45.25.25.2.15.6.25q-1.4-.6-1.6-1.95v-.4l-.05-.85q0-.85.3-1.35v-.05l-.05.05-.05.05-.15.3v.1l-.05.25-.1.65v-.5l.05-.55-.05.2-.05.2-.05.15-.1 1.05.05.5H61l.1.5.1.25" fill="#788389"/><path d="M66.3 30.15l.25-.05-.25.05h.25l-.65.1-.2.1h.05l1.6.15.6.3H68q.3.25.3 1.2l-.25 1.25q-.85 2.7-4.15 2.75-2.1-.05-2.45-2.1l-.05-1.35.05-.4.1-.35.1-.25.15-.3-.15.2v.05h-.05l-.05.05v-.05l-.05.05v.05q-.3.5-.3 1.35l.05.85V34.2q.2 1.35 1.6 1.95h.1l.85.15 1.1-.1h.15l1.05-.35.85-.4.8-.9.55-1.05.05-.1.05-.15.15-.65.05-.3v-.55l-.1-.7-.1-.2-.05-.05-.45-.4-.65-.25-.4-.05h-.4m0 0l-.15.05" fill="#bbbfc0"/><path d="M69.1 31.45v-.05h-.35v.15h.35v-.1" fill="#afb5b3"/><path d="M69.1 31.95v-.2h-.35v.2h.35" fill="#777f81"/><path d="M69.1 31.4V31.55h.55l.85.1-.55.1h-.85v.2h1.55v-.5l-1.55-.05" fill="#5e6462"/><path d="M69.1 31.75v-.2h-.35v.2h.35" fill="#485253"/><path d="M69.25 31.75h.7l.55-.1-.85-.1h-.55v.2h.15" fill="#3a4245"/><path d="M67.95 34.6l.6-1.25.05-.2v-.05l-.05-.5-.15.65-.05.15-.05.1-.35 1.1" fill="#737c85"/><path d="M62.25 35.9l-.2-.15-.25-.25-.4-.45-.2-.3.2.4q.7 1.25 2.45 1.3 2.85-.05 4.1-1.85l.35-1.1-.55 1.05-.8.9-.85.4-1.05.35h-.15l-1.1.1-.85-.15h-.1l-.6-.25" fill="#525b62"/><radialGradient id="c" gradientUnits="userSpaceOnUse" gradientTransform="matrix(-.01402 0 0 .00914 64.4 30.6)" spreadMethod="pad" cx="0" cy="0" r="819.2" fx="0" fy="0"><stop offset="0" stop-color="#e5fcff" stop-opacity=".2"/><stop offset="1" stop-color="#fff" stop-opacity="0"/></radialGradient><path d="M65.4 30.3H64.1l-.25.05h-.15l-.2.05-.5.1-.4.15-.75.6-.1.15.05-.15-.15.3-.1.25-.1.35-.05.4.05 1.35q.35 2.05 2.45 2.1 3.3-.05 4.15-2.75L68.3 32q0-.95-.3-1.2h-.05l-.6-.3-1.6-.15h-.1l-.05-.05h-.2" fill="url(#c)"/><path d="M61.55 30.9l-.25.55-.1 1.4.3-1.35.25-.4q.15-.2.35-.3.2-.2 1.4-.65l-.7.1q-.15 0-.45.15l-.5.25-.3.25m6.3-.3l.45.45.25 1.2v-.8L68.5 31l-.15-.3-.3-.3-.85-.25-.55-.05-.75-.05h-.45l.25.05.75.1.7.1.7.3m-.4 4.3l.3-.5.05-.05.15-.6-.35.6-.5.6-.55.4-.55.25-.5.25-.5.15.9-.2 1-.45.55-.45" fill="#fff"/><radialGradient id="d" gradientUnits="userSpaceOnUse" gradientTransform="matrix(-.00734 0 0 .00734 61.15 29.25)" spreadMethod="pad" cx="0" cy="0" r="819.2" fx="0" fy="0"><stop offset="0" stop-color="#fff"/><stop offset="1" stop-color="#fff" stop-opacity="0"/></radialGradient><path d="M63.5 30.65l-.45.15-.75.35q-.7.3-.65 1.55l.05.5q.15.55.5.7l.2.15q1.45-1 3.55-1.7l-.65-1.95-.8-.05-.75.15-.25.15" fill="url(#d)"/></g></svg>