<svg xmlns="http://www.w3.org/2000/svg" width="21" height="5"><g transform="translate(-59.85 -30)"><path d="M80.7 31.25l-.3.05-.25.1-.05.2-.1.15-.1-.05v-.35l-.1-.4-.4-.2-.65-.2h-.05l-3.5.05-1.25.2-.8.15-.35.05q-1.05.2-1.35.5h-.05l-.05.25v.05l-.05.25-.1.05h-.05l-.05-.1v-.25l-.4-.05h-.45l.05-.15.55.05.25-.05.25-.1.5-.3.45-.15.45-.1.65-.1 1.15-.15 2.25-.2h2.3q.45.1.9.45l.1.05.3.15.25.05h.05v.1" fill="#f6f6ee"/><path d="M71.65 32.7v-.05l-.05-.1V32l-.05-.4-.15.4-.05.1-.1.1-.2-.1-.05-.05-.05-.1-.05-.05-.2-.05h-.45v-.15h.45l.4.05V32l.05.1h.05l.1-.05.05-.25v-.05l.05-.25h.05q.3-.3 1.35-.5l.35-.05.8-.15 1.25-.2 3.5-.05h.05l.65.2.4.2.1.4v.35l.1.05.1-.15.05-.2.25-.1.3-.05-.25.5-.5.45q-.2.3-.25.55l-.2.5.4-.75.25-.4.3-.25.2-.1.1-.1V31.2l.1.1-.05.25v.15l-.1.1-.55.4-.4.65-.2.35-.25.3-.15.15-.3.2-.7.3-.55.15-.25.05-1.2.2h-.75l-2.55-.3-.85-.65-.15-.3v-.1l-.2-.5m.7-1.35h-.15q-.45.25-.5.6v.2l.05.35.05.2.15.45.2.35 1.05.7 2.35.25.7-.05H76.4l.95-.15 1.05-.35.7-.45.35-.55.1-.6.1-.7-.1-.55-.15-.15-.2-.05-.05-.05h-.05l-1.85-.15-1.25.05-2.3.3-.95.25-.4.1" fill="#f5ede3"/><path d="M80.75 30.95h-.1l-.2-.05-.35-.1-.1-.1q-.4-.35-.9-.45h-2.25l-2.3.15-1.1.2-.7.1-.45.1-.45.15-.5.25-.25.1-.2.1-.6-.05v-.15h.45l.85-.3 2.2-.5 2.85-.3h2.05l.8.15h.05l.2.15h.05l.25.2.5.25.25.05.05.05v.15l-.1-.15"/><path d="M80.75 31.05V31h-.1l-.2-.05-.35-.1-.1-.1q-.4-.35-.9-.45h-2.25l-2.3.15-1.1.2-.7.15-.45.05-.45.2-.5.2-.25.15-.2.05h-.6v-.1l.6.05.2-.1.25-.1.5-.25.45-.15.45-.1.7-.1 1.1-.2 2.3-.15h2.25q.5.1.9.45l.1.1.35.1.2.05h.1l.1.15v.05l-.1-.1" fill="#bbb5b5"/><path d="M80.75 31.2v-.05h-.1l-.25-.05-.3-.15-.1-.05q-.45-.35-.9-.45h-2.3l-2.25.2-1.15.15-.65.1-.45.1-.45.15-.5.3-.25.1-.25.05-.55-.05v-.1h.6l.2-.05.25-.15.5-.2.45-.2.45-.05.7-.15 1.1-.2 2.3-.15h2.25q.5.1.9.45l.1.1.35.1.2.05h.1v.05l.1.1v.15l-.1-.1m-8.75.35l-.15.2v.05l-.05.15V32.3l.05.15v.2l.1.3.15.3.45.55.3.1.75.25 1.05.1h.3l.55.05.85-.05.4-.05.6-.1 1-.35q.65-.2.95-1v-.05l.25-1.05-.05-.65-.1-.1.15.15.1.55-.1.7-.1.6-.35.55-.7.45-1.05.35-.95.15H76.25l-.7.05-2.35-.25-1.05-.7-.2-.35-.15-.45-.05-.2-.05-.35v-.2q.05-.35.5-.6h.15l.4-.1q-.45.05-.7.25l-.05.05" fill="#fff"/><path d="M80.75 31.3v.35l-.1.1-.2.1-.3.25-.25.4-.4.75.2-.5q.05-.25.25-.55l.5-.45.25-.5v-.1h.05V31.3" fill="#fcf6f6"/><path d="M72.4 33.4q.8.7 3.15.7h.5l.4-.05h.1L77 34l.4-.1 1.25-.55q.8-.65.8-2.25l-.05-.2.1.1.05.65-.25 1.05v.05q-.3.8-.95 1l-1 .35-.6.1-.4.05-.85.05-.55-.05h-.3l-1.05-.1-.75-.25-.3-.1-.45-.55-.15-.3-.1-.3v-.2l.1.3.2.4.05.1.25.3.35.15-.4-.3" fill="#281912"/><path d="M70.75 32.1h.15l.05.05H71l.1.15.1.05.05.05.1.1.1.1.15.2.25.4v.1l.15.3.85.65 2.55.3h.75l1.2-.2.25-.05.55-.15.7-.3.3-.2.15-.15.25-.3v.1q-.4.85-2.25 1.2l-.75.1h-.05l-.4.05h-.55l-1.45-.05-1.1-.2-.55-.25-.35-.3-.4-.6-.35-.55-.1-.15-.25-.25-.15-.1-.2-.05h-.4v-.05h.5" fill="#d8cbbb"/><path d="M72.25 33.15l-.35-.75-.1-.3V31.95l.05-.15v-.05l.15-.2.2.75.05.4v.45" fill="#fff" fill-opacity=".102"/><path d="M72.25 32.7l-.05-.4-.2-.75.05-.05.25.7.05.4.05.8-.15-.25v-.45" fill="#e5c2a4"/><path d="M70.25 32.1v-.25h.45l.2.05.05.05.05.1.05.05.2.1.1-.1.05-.1.15-.4.05.4v.55l.05.1v.05l.2.5-.25-.4-.15-.2-.1-.1-.1-.1-.05-.05-.1-.05-.1-.15h-.05l-.05-.05h-.65" fill="#e8ddd3"/><path d="M71.8 32.1l.1.3.35.75.15.25.4.3-.35-.15-.25-.3-.05-.1-.2-.4-.1-.3-.05-.15v-.25.05" fill="#5f3b2f"/><radialGradient id="a" gradientUnits="userSpaceOnUse" gradientTransform="matrix(.00345 .00018 -.00018 .00345 72.25 30.5)" spreadMethod="pad" cx="0" cy="0" r="819.2" fx="0" fy="0"><stop offset="0" stop-color="#fff"/><stop offset="1" stop-color="#fff" stop-opacity="0"/></radialGradient><path d="M71.35 31l.3-.1v-.05h.05l.1-.05.65-.2 1.15-.2.6-.1 1.5-.15-.4.1h-.2l-1.75.25-1.15.25-.5.2-.1.05h.05l-.5.3-.45.05h-.25l.55-.2.35-.15" fill="url(#a)"/><radialGradient id="b" gradientUnits="userSpaceOnUse" gradientTransform="rotate(3.084 -555.52 1589.56) scale(.00272)" spreadMethod="pad" cx="0" cy="0" r="819.2" fx="0" fy="0"><stop offset="0" stop-color="#fff"/><stop offset="1" stop-color="#fff" stop-opacity="0"/></radialGradient><path d="M77.05 30.2l.55-.05h1.25l.6.15.4.2.05.05.1.05.2.1.45.15-.35-.05h-.05l-.45-.25-.25-.15-.4-.15h-.1l-.6-.05h-1.4" fill="url(#b)"/><path d="M73.65 34.05q1.55.25 3.35 0 1.35-.25 1.9-.8l.25-.25-.15.3-.4.35-.7.3-.45.15h-.2l-.2.05h-.15l-.6.1h-1.05l-1-.05h-.45l-.35-.1-.5-.15-.45-.25-.15-.25.2.2.2.1.55.2.35.1" fill="#9fa583"/><radialGradient id="c" gradientUnits="userSpaceOnUse" gradientTransform="rotate(2.074 -595.817 1355.72) scale(.00142)" spreadMethod="pad" cx="0" cy="0" r="819.2" fx="0" fy="0"><stop offset="0" stop-color="#fff"/><stop offset="1" stop-color="#fff" stop-opacity="0"/></radialGradient><path d="M72.15 32.95l.3.4v.05l-.15-.1-.25-.35-.1-.4v-.1l.05.15.15.35" fill="url(#c)"/><radialGradient id="d" gradientUnits="userSpaceOnUse" gradientTransform="matrix(.00134 .00008 -.00008 .00134 72.3 33)" spreadMethod="pad" cx="0" cy="0" r="819.2" fx="0" fy="0"><stop offset="0" stop-color="#fff"/><stop offset="1" stop-color="#fff" stop-opacity="0"/></radialGradient><path d="M72.25 32.35l.05.35.05.3-.05.15-.05-.35v-.45" fill="url(#d)"/><path d="M60.05 31.2l.3.05.25.1.05.2.1.15.1-.05v-.35l.1-.4.4-.2.65-.2h.05l3.5.05 1.25.2.8.15.35.05q1.05.3 1.35.6h.05l.05.25v.05l.05.25.1.05h.05l.05-.1v-.25l.4-.05h.45l-.05-.15-.55.05-.25-.05-.25-.1-.5-.3-.45-.15-.45-.2-.65-.1-1.15-.15-2.25-.2h-2.3l-.9.45-.1.05-.3.15-.25.05h-.05v.1" fill="#f6f6ee"/><path d="M69.15 32.75v-.7l.05-.4.15.4.05.1.1.1.2-.1.05-.05.05-.1.05-.05.2-.05h.45v-.15h-.45l-.4.05v.25l-.05.1h-.05l-.1-.05-.05-.25v-.05l-.05-.25h-.05q-.3-.3-1.35-.6l-.35-.05-.8-.15-1.25-.2-3.5-.05H62l-.65.2-.4.2-.1.4v.35l-.1.05-.1-.15-.05-.2-.25-.1-.3-.05q.05.4.25.5l.5.45.25.55.2.5-.4-.75-.25-.4-.3-.25-.2-.1-.1-.1V31.15l-.1.1.05.25v.15l.1.1.55.4.4.65.2.35.25.3.15.15.3.2.7.3.55.15.25.05 1.2.2h.75l2.55-.3.85-.55.15-.3v-.1l.25-.5m-.75-1.45l.15.1q.45.25.5.6v.2l-.05.35-.05.2-.15.45-.2.35q-.2.4-1.05.6l-2.35.25-.7-.05H64.35l-.95-.15-1.05-.35-.7-.45-.35-.55-.1-.6-.1-.7.1-.55.15-.15h.05l.15-.05.05-.05h.05l1.85-.15 1.25.05 2.3.3.95.25.4.1" fill="#f5ede3"/><path d="M60 30.9h.1l.2-.05.35-.1.1-.1q.4-.35.9-.45h2.3l2.25.15 1.1.2.7.1.45.2.45.15.5.25.25.1.2.1.6-.05v-.15H70l-.85-.3-2.2-.6-2.85-.3h-2.05l-.8.15h-.05l-.2.15h-.05l-.25.2-.5.25-.25.05-.05.05v.15l.1-.15"/><path d="M60 31v-.05h.1l.2-.05.35-.1.1-.1q.4-.35.9-.45h2.3l2.25.15 1.1.2.7.15.45.15.45.2.5.2.25.15.2.05h.6v-.1l-.6.05-.2-.1-.25-.1-.5-.25-.45-.15-.45-.2-.7-.1-1.1-.2-2.25-.15h-2.3q-.5.1-.9.45l-.1.1-.35.1-.2.05H60l-.1.15v.05l.1-.1" fill="#bbb5b5"/><path d="M60 31.15v-.05h.1l.25-.05.3-.15.1-.05.9-.45h2.3l2.25.2 1.15.15.65.1.45.2.45.15.5.3.25.1.25.05.55-.05v-.1h-.6l-.2-.05-.25-.15-.5-.2-.45-.2-.45-.15-.7-.15-1.1-.2-2.25-.15h-2.3q-.5.1-.9.45l-.1.1-.35.1-.2.05H60V31l-.1.1v.15l.1-.1m8.75.45l.15.2v.05l.05.15V32.35l-.05.15v.2l-.1.3-.15.3-.45.45-.3.1-.75.25-1.05.1h-.3l-.55.05-.85-.05-.4-.05-.6-.1-1-.35q-.65-.2-.95-1v-.05l-.25-1.05q-.05-.5.05-.65l.1-.1-.15.15-.1.55.1.7.1.6.35.55.7.45 1.05.35.95.15H64.5l.7.05 2.35-.25q.85-.2 1.05-.6l.2-.35.15-.45.05-.2.05-.35V32q-.05-.35-.5-.6l-.15-.1-.4-.1.7.35.05.05" fill="#fff"/><path d="M60 31.25v.35l.1.1.2.1.3.25.25.4.4.75-.2-.5-.25-.55-.5-.45q-.2-.1-.25-.5v-.1H60V31.25" fill="#fcf6f6"/><path d="M68.35 33.35q-.8.7-3.15.7h-.5l-.4-.05h-.1l-.45-.05-.4-.1-1.25-.55q-.8-.65-.8-2.25l.05-.2-.1.1q-.1.15-.05.65l.25 1.05v.05q.3.8.95 1l1 .35.6.1.4.05.85.05.55-.05h.3l1.05-.1.75-.25.3-.1.45-.45.15-.3.1-.3v-.2l-.1.3-.2.4-.05.1-.25.2-.35.15.4-.3" fill="#281912"/><path d="M70 32.15h-.15l-.05.05h-.05l-.1.15-.1.05-.05.05-.1.1-.1.1-.15.2-.25.4v.1l-.15.3-.85.55-2.55.3h-.75l-1.2-.2-.25-.05-.55-.15-.7-.3-.3-.2-.15-.15-.25-.3v.1q.4.85 2.25 1.2l.75.1h.05l.4.05h.55l1.45-.05 1.1-.2.55-.25.35-.2.4-.6.35-.55.1-.15.25-.25.15-.1.2-.05h.4v-.05H70" fill="#d8cbbb"/><path d="M68.5 33.2l.35-.75.1-.3V32l-.05-.15v-.05l-.15-.2-.2.75-.05.4v.45" fill="#fff" fill-opacity=".102"/><path d="M68.5 32.75l.05-.4.2-.75-.05-.05-.25.7-.05.3-.05.8.15-.15v-.45" fill="#e5c2a4"/><path d="M70.5 32.15v-.25h-.45l-.2.05-.05.05-.05.1-.05.05-.2.1-.1-.1-.05-.1-.15-.4-.05.4V32.75l-.25.5.25-.4.15-.2.1-.1.1-.1.05-.05.1-.05.1-.15h.05l.05-.05h.65" fill="#e8ddd3"/><path d="M68.95 32.15l-.1.3-.35.75-.15.15-.4.3.35-.15.25-.2.05-.1.2-.4.1-.3.05-.15v-.25.05" fill="#5f3b2f"/><radialGradient id="e" gradientUnits="userSpaceOnUse" gradientTransform="matrix(-.00345 .00018 .00018 .00345 68.25 30.45)" spreadMethod="pad" cx="0" cy="0" r="819.2" fx="0" fy="0"><stop offset="0" stop-color="#fff"/><stop offset="1" stop-color="#fff" stop-opacity="0"/></radialGradient><path d="M69.15 30.95l-.3-.1v-.05h-.05l-.1-.05-.65-.2-1.15-.2-.6-.1-1.5-.15.4.1h.2l1.75.25 1.15.25.5.2.1.05h-.05l.5.3.45.05h.25l-.55-.2-.35-.15" fill="url(#e)"/><radialGradient id="f" gradientUnits="userSpaceOnUse" gradientTransform="matrix(-.00272 .00014 .00014 .00272 61.05 30.3)" spreadMethod="pad" cx="0" cy="0" r="819.2" fx="0" fy="0"><stop offset="0" stop-color="#fff"/><stop offset="1" stop-color="#fff" stop-opacity="0"/></radialGradient><path d="M63.45 30.15l-.55-.05h-1.25l-.6.15-.4.2-.05.05-.1.05-.2.1-.45.15.35-.05h.05l.45-.25.25-.15.4-.15h.1l.6-.05h1.4" fill="url(#f)"/><path d="M67.1 34q-1.55.25-3.35 0-1.35-.25-1.9-.8l-.25-.25.15.3.4.35.7.3.45.15h.2l.2.05h.15l.6.1h1.05l1-.05h.45l.35-.1.5-.15.45-.25.15-.15-.2.1-.2.1-.55.2-.35.1" fill="#9fa583"/><radialGradient id="g" gradientUnits="userSpaceOnUse" gradientTransform="matrix(-.00142 .00008 .00008 .00142 68.15 32.95)" spreadMethod="pad" cx="0" cy="0" r="819.2" fx="0" fy="0"><stop offset="0" stop-color="#fff"/><stop offset="1" stop-color="#fff" stop-opacity="0"/></radialGradient><path d="M68.45 33l-.3.4v.05l.15-.1.25-.35.1-.4v-.1l-.05.15-.15.35" fill="url(#g)"/><radialGradient id="h" gradientUnits="userSpaceOnUse" gradientTransform="matrix(-.00134 .00008 .00008 .00134 68.3 33.05)" spreadMethod="pad" cx="0" cy="0" r="819.2" fx="0" fy="0"><stop offset="0" stop-color="#fff"/><stop offset="1" stop-color="#fff" stop-opacity="0"/></radialGradient><path d="M68.35 32.4l-.05.35-.05.3.05.15.05-.35v-.45" fill="url(#h)"/><radialGradient id="i" gradientUnits="userSpaceOnUse" gradientTransform="matrix(.00734 0 0 .00734 79.65 28.7)" spreadMethod="pad" cx="0" cy="0" r="819.2" fx="0" fy="0"><stop offset="0" stop-color="#fff"/><stop offset="1" stop-color="#fff" stop-opacity="0"/></radialGradient><path d="M78.75 30.75q.6.3.5 1l-.15 1.05-.4.4-1.05-.35-2.8-1.05.3-.9 1.75-.25 1.85.1" fill="url(#i)"/><radialGradient id="j" gradientUnits="userSpaceOnUse" gradientTransform="matrix(-.00734 0 0 .00734 61 28.7)" spreadMethod="pad" cx="0" cy="0" r="819.2" fx="0" fy="0"><stop offset="0" stop-color="#fff"/><stop offset="1" stop-color="#fff" stop-opacity="0"/></radialGradient><path d="M63 32.85l-1 .35q-.3 0-.4-.4l-.2-1.05q-.1-.7.5-1l1.85-.1 1.75.25.3.9-2.8 1.05" fill="url(#j)"/></g></svg>