<svg xmlns="http://www.w3.org/2000/svg" width="22" height="7"><g transform="translate(-59.8 -29.35)"><linearGradient id="a" gradientUnits="userSpaceOnUse" gradientTransform="matrix(-.00006 .00218 -.00421 -.00018 76.4 31.3)" x1="-819.2" x2="819.2"><stop offset="0" stop-color="#0a0a07"/><stop offset=".455" stop-color="#61654e"/><stop offset="1" stop-color="#b5baa3"/></linearGradient><path d="M78.15 29.75l1.3.95.1.15v-.05l1.45-.3v.65l-1.05.8-.2 1.65q-.25 1.1-.95 1.8l-.65.45-1.75.35q-2.4.05-3.4-.5-1.5-.9-1.75-3l-.05-1-.85-.05v-.8l.8-.05.05-.05q1-1.25 2.6-1.3l2.2-.1 2.15.4m-1.4.25l-3.85.25q-1.25.55-1.15 1.95l.25 1.35q.45 1.9 2.75 2.15 4.1.4 4.6-2.5v-.3l-.05-.95-.4-.9-.3-.35-.45-.3-1.4-.4" fill="url(#a)"/><radialGradient id="b" gradientUnits="userSpaceOnUse" gradientTransform="matrix(.00587 0 0 .00587 78.25 34.05)" spreadMethod="pad" cx="0" cy="0" r="819.2" fx="0" fy="0"><stop offset="0" stop-color="#fff" stop-opacity=".502"/><stop offset="1" stop-color="#fff" stop-opacity="0"/></radialGradient><path d="M79.1 31.85l-.1 1.8q-.6 1.85-2.55 2.1-1.95.2-4.05-1.4 4.05-.15 5.25-.9L79 32.3l.1-.45" fill="url(#b)"/><radialGradient id="c" gradientUnits="userSpaceOnUse" gradientTransform="matrix(.0057 0 0 .0057 71.55 31.35)" spreadMethod="pad" cx="0" cy="0" r="819.2" fx="0" fy="0"><stop offset="0" stop-color="#fff" stop-opacity=".8"/><stop offset="1" stop-color="#fff" stop-opacity="0"/></radialGradient><path d="M73.55 30.2l2.8-.15-2.55 2.6-1.6 1.6-.15-2.65q.05-1.15 1.5-1.4" fill="url(#c)"/><linearGradient id="d" gradientUnits="userSpaceOnUse" gradientTransform="matrix(.00052 .0008 -.00049 .00032 79.55 31.15)" x1="-819.2" x2="819.2"><stop offset=".212" stop-color="#fbfbfb"/><stop offset="1" stop-color="#71755e"/></linearGradient><path d="M80.3 31.25l-.55.75-.25-1.05q.7-.05.8.3" fill="url(#d)"/><linearGradient id="e" gradientUnits="userSpaceOnUse" gradientTransform="matrix(.00453 .00014 -.00003 .00089 75.5 29.85)" x1="-819.2" x2="819.2"><stop offset="0" stop-color="#0a0a07"/><stop offset=".463" stop-color="#fbfbfb"/><stop offset="1" stop-color="#0a0a07"/></linearGradient><path d="M79 30.85q-.7-.85-2.7-1.1h-.2q-2.8-.35-4.15.95l-.2-.2q1.85-1.45 4.5-1.05 2 .15 3.05 1.2l-.3.2" fill="url(#e)"/><linearGradient id="f" gradientUnits="userSpaceOnUse" gradientTransform="matrix(.00172 -.00136 .00053 .00067 78.25 34.8)" x1="-819.2" x2="819.2"><stop offset="0" stop-color="#b5baa3"/><stop offset=".251" stop-color="#edeeea"/><stop offset=".463" stop-color="#fbfbfb"/><stop offset=".737" stop-color="#f1f2ef"/><stop offset="1" stop-color="#b5baa3"/></linearGradient><path d="M79.5 32.9l.3-.05q-.1 3-3.4 3.25v-.3q3-.05 3.1-2.9" fill="url(#f)"/><linearGradient id="g" gradientUnits="userSpaceOnUse" gradientTransform="matrix(.00153 .00183 -.00064 .00053 72.65 34.45)" x1="-819.2" x2="819.2"><stop offset="0" stop-color="#b5baa3"/><stop offset=".251" stop-color="#edeeea"/><stop offset=".463" stop-color="#fbfbfb"/><stop offset=".737" stop-color="#f1f2ef"/><stop offset="1" stop-color="#b5baa3"/></linearGradient><path d="M74.65 35.7l-.05.35q-3.15-.55-3.25-3.55l.3.05q.2 2.8 3 3.15" fill="url(#g)"/><linearGradient id="h" gradientUnits="userSpaceOnUse" gradientTransform="matrix(.00006 .00218 .00421 -.00018 64.4 31.3)" x1="-819.2" x2="819.2"><stop offset="0" stop-color="#0a0a07"/><stop offset=".455" stop-color="#61654e"/><stop offset="1" stop-color="#b5baa3"/></linearGradient><path d="M64.05 30l3.85.25q1.25.55 1.15 1.95l-.25 1.35q-.45 1.9-2.75 2.15-4.1.4-4.6-2.5v-.3q-.05-.5.05-.95l.4-.9.3-.35.45-.3 1.4-.4m-1.4-.25q-.8.35-1.3.95l-.1.15v-.05l-1.45-.3v.65l1.05.8q-.05.5.2 1.65.25 1.1.95 1.8l.65.45 1.75.35q2.4.05 3.4-.5 1.5-.9 1.75-3l.05-1 .85-.05v-.8l-.8-.05-.05-.05q-1-1.25-2.6-1.3l-2.2-.1-2.15.4" fill="url(#h)"/><radialGradient id="i" gradientUnits="userSpaceOnUse" gradientTransform="matrix(-.00587 0 0 .00587 62.55 34.05)" spreadMethod="pad" cx="0" cy="0" r="819.2" fx="0" fy="0"><stop offset="0" stop-color="#fff" stop-opacity=".502"/><stop offset="1" stop-color="#fff" stop-opacity="0"/></radialGradient><path d="M61.7 31.85l.1 1.8q.6 1.85 2.55 2.1 1.95.2 4.05-1.4-4.05-.15-5.25-.9-1.2-.75-1.35-1.15l-.1-.45" fill="url(#i)"/><radialGradient id="j" gradientUnits="userSpaceOnUse" gradientTransform="matrix(.0057 0 0 .0057 61.9 31.4)" spreadMethod="pad" cx="0" cy="0" r="819.2" fx="0" fy="0"><stop offset="0" stop-color="#fff" stop-opacity=".8"/><stop offset="1" stop-color="#fff" stop-opacity="0"/></radialGradient><path d="M61.75 31.5q.45-1.1 2.05-1.35l2.9-.05-2.55 2.6q-1.2 1.25-1.8 1.3-1.05-1.4-.6-2.5" fill="url(#j)"/><linearGradient id="k" gradientUnits="userSpaceOnUse" gradientTransform="matrix(-.00052 .0008 .00049 .00032 61.25 31.15)" x1="-819.2" x2="819.2"><stop offset=".212" stop-color="#fbfbfb"/><stop offset="1" stop-color="#71755e"/></linearGradient><path d="M60.5 31.25q-.05.3.55.75l.25-1.05q-.7-.05-.8.3" fill="url(#k)"/><linearGradient id="l" gradientUnits="userSpaceOnUse" gradientTransform="matrix(-.00453 .00014 .00003 .00089 65.3 29.85)" x1="-819.2" x2="819.2"><stop offset="0" stop-color="#0a0a07"/><stop offset=".463" stop-color="#fbfbfb"/><stop offset="1" stop-color="#0a0a07"/></linearGradient><path d="M61.8 30.85q.7-.85 2.7-1.1h.2q2.8-.35 4.15.95l.2-.2q-1.85-1.45-4.5-1.05-2 .15-3.05 1.2l.3.2" fill="url(#l)"/><linearGradient id="m" gradientUnits="userSpaceOnUse" gradientTransform="matrix(-.00172 -.00136 -.00053 .00067 62.55 34.8)" x1="-819.2" x2="819.2"><stop offset="0" stop-color="#b5baa3"/><stop offset=".251" stop-color="#edeeea"/><stop offset=".463" stop-color="#fbfbfb"/><stop offset=".737" stop-color="#f1f2ef"/><stop offset="1" stop-color="#b5baa3"/></linearGradient><path d="M61.3 32.9l-.3-.05q.1 3 3.4 3.25v-.3q-3-.05-3.1-2.9" fill="url(#m)"/><linearGradient id="n" gradientUnits="userSpaceOnUse" gradientTransform="matrix(-.00153 .00183 .00064 .00053 68.15 34.45)" x1="-819.2" x2="819.2"><stop offset="0" stop-color="#b5baa3"/><stop offset=".251" stop-color="#edeeea"/><stop offset=".463" stop-color="#fbfbfb"/><stop offset=".737" stop-color="#f1f2ef"/><stop offset="1" stop-color="#b5baa3"/></linearGradient><path d="M66.15 35.7l.05.35q3.15-.55 3.25-3.55l-.3.05q-.2 2.8-3 3.15" fill="url(#n)"/><linearGradient id="o" gradientUnits="userSpaceOnUse" gradientTransform="matrix(.00116 -.00006 .00002 .00027 70.4 31.1)" x1="-819.2" x2="819.2"><stop offset="0" stop-color="#6e725b"/><stop offset=".463" stop-color="#fbfbfb"/><stop offset=".988" stop-color="#686c55"/></linearGradient><path d="M71.45 31.3h-2.2v-.35h2.2v.35" fill="url(#o)"/></g></svg>