<svg xmlns="http://www.w3.org/2000/svg" width="21" height="5"><g transform="translate(-60.15 -29.75)"><linearGradient id="a" gradientUnits="userSpaceOnUse" gradientTransform="matrix(.00337 -.00034 .0001 .00096 65.8 33.4)" x1="-819.2" x2="819.2"><stop offset="0" stop-color="#e0a697" stop-opacity=".263"/><stop offset=".243" stop-color="#cc9076" stop-opacity=".561"/><stop offset=".565" stop-color="#e3bdb2" stop-opacity=".4"/><stop offset="1" stop-color="#d58e7c" stop-opacity=".682"/></linearGradient><path d="M62.7 33.1q.35.55 1.4.7l2.25.15q1.15-.05 1.95-.55l.65-.6v.25l-.1.15-.5.4-1.95.55-2.25-.1q-1.05-.15-1.65-.9l.2-.05" fill="url(#a)"/><linearGradient id="b" gradientUnits="userSpaceOnUse" gradientTransform="matrix(.00168 -.00023 .00018 .00133 62.25 32.3)" x1="-819.2" x2="819.2"><stop offset="0" stop-color="#9e6c5e" stop-opacity=".651"/><stop offset=".243" stop-color="#c7846f" stop-opacity=".451"/><stop offset="1" stop-color="#9c4d44" stop-opacity=".514"/></linearGradient><path d="M62.5 33.15l-.85-.2-.45-.55-.5-.4-.25-.8.2.15.15.35.55.4.45.55q.45.45 1.4 0l.25-.6h.05v.2l.05.35q.05.25-.55.35l-.3.15-.2.05" fill="url(#b)"/><path d="M74.25 33.1q-1.4 0-2-1.35l.1-.15.65.45 1.95 1.05h-.7" fill="#fff" fill-opacity=".192"/><path d="M71.5 31.15l.25-.05.1-.15v-.05l.05.1-.05.15v.1h-.3l-.05-.1" fill="#2f2023"/><path d="M71.85 31.15l.05-.15.15-.05.2.05.05.15-.05.15-.2.1-.15-.1-.05-.05v-.1m.3 0l-.1-.1-.1.05-.1.15.3-.1" fill="#755b5a"/><path d="M71.85 31.25l.1-.15.1-.05.1.1-.3.1m-.35-.2l.3-.15.05.05-.1.15-.25.05v-.1" fill="#e8f0f3"/><path d="M71.7 32.3l-.05-.05-.15.2-.1-.15-.1-.2.15-.45-.1-.3v-.1l-.05-.15V31l.15-.2h.05v.35l.05.1v.15l.2.4.15.2-.05.25-.15.05m-.25-.15h.15l.1-.2v-.05l-.15-.05-.1.15v.15" fill="#706466"/><path d="M71.6 32.85h-.1l-.25-.3.05-.05.05-.05-.15-.5v-.6h.15l.1.3-.15.45.1.2.1.15.15-.2.05.05.05.3-.15.25" fill="#e49e6a"/><path d="M71.2 31.95l.15.5-.05.05-.05.05-.2-.55-.05-.3.2-.35v.6" fill="#954628"/><path d="M71.45 32l.1-.15.15.05v.05l-.1.2h-.15V32" fill="#d2d0db"/><path d="M71.6 32.85l.15-.25-.05-.3.15-.05-.05.45-.05.05-.15.1" fill="#ba8a73"/><path d="M78.1 31.6l-.35-.15h.15l.2.1v.05m-.6-.2l.15.15-.05.05-.1-.05v-.15" fill="#faf8f9"/><path d="M77.55 31.35h-.05l-.1.2h-.05l-.1-.2.05-.1.1-.05.1-.05.15.25-.1-.05" fill="#9d6f62"/><linearGradient id="c" gradientUnits="userSpaceOnUse" gradientTransform="matrix(-.00209 -.00105 -.0001 .00023 76.35 30.35)" x1="-819.2" x2="819.2"><stop offset="0" stop-color="#e2b7a4" stop-opacity=".263"/><stop offset=".114" stop-color="#fff"/><stop offset=".208" stop-color="#ffdfd7" stop-opacity=".565"/><stop offset=".808" stop-color="#ffd3c7" stop-opacity=".4"/><stop offset="1" stop-color="#fff1e5" stop-opacity=".682"/></linearGradient><path d="M71.5 30.8h-.05q.15-.35.55-.6 1.15-.5 3.1-.45 1.7 0 2.3.45l.15.1.3.35.15.3.15.55-.1-.1-.05-.05-.2-.45-.05-.1-.1-.1-.25-.25q-.95-.75-3.85-.5-1.55.15-2.05.95v-.1" fill="url(#c)"/><radialGradient id="d" gradientUnits="userSpaceOnUse" gradientTransform="matrix(-.00089 0 0 .00049 77.7 31.35)" spreadMethod="pad" cx="0" cy="0" r="819.2" fx="0" fy="0"><stop offset="0" stop-color="#aaaeaf"/><stop offset="1" stop-color="#45494c"/></radialGradient><path d="M78.05 31.75h-.1l-.2-.05-.3.05h-.05v-.2l.1-.2h.05l.1.05.15-.05h.2l.05.05.1.1h-.05l.05.15-.05.1h-.05m.05-.2l-.2-.1h-.15l.35.15v-.05m-.6 0l.1.05.05-.05-.15-.15v.15" fill="url(#d)"/><linearGradient id="e" gradientUnits="userSpaceOnUse" gradientTransform="matrix(.0022 -.00008 .00003 .0007 74 30.5)" x1="-819.2" x2="819.2"><stop offset="0" stop-color="#c49c90" stop-opacity=".263"/><stop offset=".518" stop-color="#936d64" stop-opacity=".565"/><stop offset=".925" stop-color="#99726b" stop-opacity=".4"/></linearGradient><path d="M77.65 30.8l-.25-.25q-.95-.75-3.85-.5-1.55.15-2.05.95v-.1q.5-.8 2.05-.95 2.9-.25 3.85.5l.25.25.1.1.05.1-.15-.1" fill="url(#e)"/><linearGradient id="f" gradientUnits="userSpaceOnUse" gradientTransform="matrix(-.00447 -.0001 -.00002 .00117 74.15 32.6)" x1="-819.2" x2="819.2"><stop offset="0" stop-color="#c38c6d" stop-opacity=".263"/><stop offset=".176" stop-color="#fcf8f9" stop-opacity=".588"/><stop offset=".506" stop-color="#fff"/><stop offset=".792" stop-color="#ffd3c7" stop-opacity=".4"/><stop offset="1" stop-color="#fff1e5" stop-opacity=".682"/></linearGradient><path d="M78.1 31.75h.05l-.75 1.4-.1.05q-.55.4-1.7.4l-2.3-.15q-1.15-.2-1.7-.6l.15-.1 1.6.5 2.2.2 1.7-.45.15-.1.55-1.15H78.1" fill="url(#f)"/><linearGradient id="g" gradientUnits="userSpaceOnUse" gradientTransform="matrix(.001 -.00005 .00002 .00014 70.35 31.3)" x1="-819.2" x2="819.2"><stop offset="0" stop-color="#774f4f"/><stop offset=".243" stop-color="#cbc1b5"/><stop offset="1" stop-color="#280201"/></linearGradient><path d="M71.3 31.1l.05.15H69.6v-.15h1.7" fill="url(#g)"/><linearGradient id="h" gradientUnits="userSpaceOnUse" gradientTransform="matrix(.00131 .00002 0 .00008 70.4 31)" x1="-819.2" x2="819.2"><stop offset="0" stop-color="#d7c0b0"/><stop offset=".243" stop-color="#e9e7ec"/><stop offset="1" stop-color="#8a6457"/></linearGradient><path d="M69.6 31.1V31h1.7v.1h-1.7" fill="url(#h)"/><linearGradient id="i" gradientUnits="userSpaceOnUse" gradientTransform="matrix(-.00047 .00047 .0001 .0001 80 30.75)" x1="-819.2" x2="819.2"><stop offset="0" stop-color="#5d5d55"/><stop offset=".188" stop-color="#e3e0db"/><stop offset=".69" stop-color="#f8e9d4"/><stop offset="1" stop-color="#826b42"/></linearGradient><path d="M79.55 31.35l-.1-.1h-.05l.8-.75v.1l-.25.4-.4.35" fill="url(#i)"/><path d="M79.95 31l.25-.4.05.15-.15.25-.5.45-.05-.1.4-.35" fill="#b39a72"/><path d="M78.9 31.65l.05-.1.05-.05.15-.15.25-.1h.05l.1.1.05.1-.05.15-.2.15-.25.1-.2-.1v-.1m.5-.25l-.3.25.1.05.15-.1.05-.2" fill="#c3bfb3"/><path d="M79.35 31.6l-.15.1-.1-.05.3-.25-.05.2" fill="#fff"/><path d="M79 31.5l-.05.05-.05.1h-.75l-.05-.15h.9" fill="#b4a9a3"/><path d="M78.15 31.65h.75v.1h-.8l.05-.1" fill="#795d36"/><linearGradient id="j" gradientUnits="userSpaceOnUse" gradientTransform="matrix(-.00337 -.00034 -.0001 .00096 74.6 33.4)" x1="-819.2" x2="819.2"><stop offset="0" stop-color="#e0a697" stop-opacity=".263"/><stop offset=".243" stop-color="#cc9076" stop-opacity=".561"/><stop offset=".565" stop-color="#e3bdb2" stop-opacity=".4"/><stop offset="1" stop-color="#d58e7c" stop-opacity=".682"/></linearGradient><path d="M77.7 33.1q-.35.55-1.4.7l-2.25.15q-1.15-.05-1.95-.55l-.65-.6v.25l.1.15.5.4 1.95.55 2.25-.1q1.05-.15 1.65-.9l-.2-.05" fill="url(#j)"/><linearGradient id="k" gradientUnits="userSpaceOnUse" gradientTransform="matrix(-.00168 -.00023 -.00018 .00133 78.15 32.3)" x1="-819.2" x2="819.2"><stop offset="0" stop-color="#9e6c5e" stop-opacity=".651"/><stop offset=".243" stop-color="#c7846f" stop-opacity=".451"/><stop offset="1" stop-color="#9c4d44" stop-opacity=".514"/></linearGradient><path d="M77.9 33.15l.85-.2.45-.55.5-.4.25-.8-.2.15-.15.35-.55.4-.45.55q-.45.45-1.4 0l-.25-.6h-.05v.2l-.05.35q-.05.25.55.35l.3.15.2.05" fill="url(#k)"/><linearGradient id="l" gradientUnits="userSpaceOnUse" gradientTransform="matrix(.00034 .00237 -.00073 .0001 75.1 31.05)" x1="-819.2" x2="819.2"><stop offset=".02" stop-color="#fff" stop-opacity=".643"/><stop offset="1" stop-color="#fff" stop-opacity="0"/></linearGradient><path d="M75.8 33.45l-.8-.1-.6-3.35 1.2-.05.2 3.5" fill="url(#l)"/><linearGradient id="m" gradientUnits="userSpaceOnUse" gradientTransform="matrix(.00006 .00201 -.0008 .00002 76.4 31.1)" x1="-819.2" x2="819.2"><stop offset=".02" stop-color="#fff" stop-opacity=".282"/><stop offset="1" stop-color="#fff" stop-opacity="0"/></linearGradient><path d="M75.6 29.95l1.2.2-.25 3.15-.75.15-.2-3.5" fill="url(#m)"/><path d="M68.1 31.6l.1.15q-.5 1.15-1.5 1.35l-.5.05h-.7l1.2-.6.75-.45.65-.5" fill="#fff" fill-opacity=".192"/><path d="M68.9 31.3h-.3v-.1l-.05-.2.05-.05.1.15.25.05-.05.15" fill="#2f2023"/><path d="M68.6 31.3l-.1-.2-.1-.05-.1.15.3.1-.05.05-.15.05-.2-.05-.05-.15.05-.2.2-.05.15.05.05.2v.1" fill="#755b5a"/><path d="M68.95 31.15l-.25-.05-.1-.15h.05l.3.1v.1m-.45-.05l.1.2-.3-.1.1-.15.1.05" fill="#e8f0f3"/><path d="M68.6 32.25l-.05-.2.15-.25.2-.35v-.15l.05-.15v-.35H69l.15.2v.1l-.05.15v.1l-.1.3.15.45-.1.25-.1.1-.15-.15-.05.05-.15-.1m.15-.35v.1l.1.15H69v-.1l-.1-.15h-.15" fill="#706466"/><path d="M69.2 32.6l-.25.3-.1-.05-.15-.25.05-.25.05-.05.15.15.1-.1.1-.25-.15-.45.1-.3h.15V32l-.15.45.05.1.05.05" fill="#e49e6a"/><path d="M69.15 32.55l-.05-.1.15-.45v-.65l.2.4-.05.25-.2.6-.05-.05" fill="#954628"/><path d="M68.9 31.9l.1.15v.1h-.15l-.1-.15v-.1h.15" fill="#d2d0db"/><path d="M68.75 32.35l-.05.25.15.25-.15-.1h-.05l-.05-.5.15.1" fill="#ba8a73"/><path d="M62.95 31.55l-.1.05h-.05q0-.15.15-.15v.1m-.4-.1l.15.05-.35.15v-.1l.2-.1" fill="#faf8f9"/><path d="M62.95 31.4H62.8q0-.2.15-.2l.2.05.05.1-.1.25-.05-.05-.1-.15" fill="#9d6f62"/><linearGradient id="n" gradientUnits="userSpaceOnUse" gradientTransform="matrix(.0021 -.00105 .0001 .00023 64.1 30.4)" x1="-819.2" x2="819.2"><stop offset="0" stop-color="#e2b7a4" stop-opacity=".263"/><stop offset=".114" stop-color="#fff"/><stop offset=".208" stop-color="#ffdfd7" stop-opacity=".565"/><stop offset=".808" stop-color="#ffd3c7" stop-opacity=".4"/><stop offset="1" stop-color="#fff1e5" stop-opacity=".682"/></linearGradient><path d="M68.95 30.8v.1q-.5-.8-2.05-.95l-3.15.15-.95.6-.1.15v.1l-.25.45-.05.05-.1.05.15-.5.15-.35.3-.3.35-.25 2.1-.35 3.1.45.55.6h-.05" fill="url(#n)"/><linearGradient id="o" gradientUnits="userSpaceOnUse" gradientTransform="matrix(-.00237 -.00014 .00005 -.00075 65.85 30.5)" x1="-819.2" x2="819.2"><stop offset="0" stop-color="#c49c90" stop-opacity=".263"/><stop offset=".518" stop-color="#936d64" stop-opacity=".565"/><stop offset=".925" stop-color="#99726b" stop-opacity=".4"/></linearGradient><path d="M68.95 31q-.55-.8-2.05-.95l-2.75.05q-1 .2-1.35.7l-.1.15v-.1l.1-.15.95-.6 3.15-.15q1.55.15 2.05.95v.1" fill="url(#o)"/><radialGradient id="p" gradientUnits="userSpaceOnUse" gradientTransform="matrix(.00089 0 0 .00049 62.75 31.35)" spreadMethod="pad" cx="0" cy="0" r="819.2" fx="0" fy="0"><stop offset="0" stop-color="#aaaeaf"/><stop offset="1" stop-color="#45494c"/></radialGradient><path d="M62.3 31.5l.1-.05.05-.05H62.95l.1.15v.05l-.05.15h-.5l-.1.05-.1-.05-.05-.1.05-.15m.65-.05q-.15 0-.15.15h.05l.1-.05v-.1m-.6.1v.1l.35-.15-.15-.05-.2.1" fill="url(#p)"/><linearGradient id="q" gradientUnits="userSpaceOnUse" gradientTransform="matrix(.00447 -.0001 .00003 .00117 66.3 32.65)" x1="-819.2" x2="819.2"><stop offset="0" stop-color="#c38c6d" stop-opacity=".263"/><stop offset=".176" stop-color="#fcf8f9" stop-opacity=".588"/><stop offset=".506" stop-color="#fff"/><stop offset=".792" stop-color="#ffd3c7" stop-opacity=".4"/><stop offset="1" stop-color="#fff1e5" stop-opacity=".682"/></linearGradient><path d="M68.85 32.85q-.55.45-1.7.6l-.45.1-1.85.1-1.7-.45q-.6-.45-.85-1.45l.1.05.1-.05q.2.85.7 1.3.6.4 1.7.4l1.8-.1.4-.05q1-.15 1.6-.55l.15.1" fill="url(#q)"/><linearGradient id="r" gradientUnits="userSpaceOnUse" gradientTransform="matrix(.001 -.00005 .00002 .00014 70.35 31.3)" x1="-819.2" x2="819.2"><stop offset="0" stop-color="#774f4f"/><stop offset=".243" stop-color="#cbc1b5"/><stop offset="1" stop-color="#280201"/></linearGradient><path d="M70.85 31.1v.15H69.1l.05-.15h1.7" fill="url(#r)"/><linearGradient id="s" gradientUnits="userSpaceOnUse" gradientTransform="matrix(.00131 .00002 0 .00008 70.4 31)" x1="-819.2" x2="819.2"><stop offset="0" stop-color="#d7c0b0"/><stop offset=".243" stop-color="#e9e7ec"/><stop offset="1" stop-color="#8a6457"/></linearGradient><path d="M69.15 31.1V31h1.7v.1h-1.7" fill="url(#s)"/><path d="M60.8 31.45l-.5-.45-.15-.25.05-.15.25.4.4.35-.05.1" fill="#b39a72"/><path d="M61.5 31.65h.75l.05.1h-.8v-.1" fill="#795d36"/><path d="M61.45 31.55l-.05-.05h.9l-.05.15h-.75l-.05-.1" fill="#b4a9a3"/><path d="M61.4 31.5l.05.05.05.1v.1l-.2.1-.25-.1-.2-.15-.05-.15.05-.1.1-.1H61l.25.1.15.15m-.35.1l.15.1.1-.05-.3-.25.05.2" fill="#c3bfb3"/><linearGradient id="t" gradientUnits="userSpaceOnUse" gradientTransform="matrix(.00047 .00047 -.0001 .0001 60.4 30.75)" x1="-819.2" x2="819.2"><stop offset="0" stop-color="#5d5d55"/><stop offset=".188" stop-color="#e3e0db"/><stop offset=".69" stop-color="#f8e9d4"/><stop offset="1" stop-color="#826b42"/></linearGradient><path d="M60.2 30.5l.8.75h-.05l-.1.1-.4-.35-.25-.4v-.1" fill="url(#t)"/><path d="M61 31.4l.3.25-.1.05-.15-.1-.05-.2" fill="#fff"/><linearGradient id="u" gradientUnits="userSpaceOnUse" gradientTransform="matrix(.00006 .00201 -.0008 .00002 67.85 31.15)" x1="-819.2" x2="819.2"><stop offset=".02" stop-color="#fff" stop-opacity=".282"/><stop offset="1" stop-color="#fff" stop-opacity="0"/></linearGradient><path d="M67.25 33.5l.75-.15.25-3.15-1.2-.2.2 3.5" fill="url(#u)"/><linearGradient id="v" gradientUnits="userSpaceOnUse" gradientTransform="matrix(.00034 .00237 -.00073 .0001 66.55 31.1)" x1="-819.2" x2="819.2"><stop offset=".02" stop-color="#fff" stop-opacity=".643"/><stop offset="1" stop-color="#fff" stop-opacity="0"/></linearGradient><path d="M67.25 33.5l-.2-3.5-1.2.05.6 3.35.8.1" fill="url(#v)"/></g></svg>