<svg xmlns="http://www.w3.org/2000/svg" width="22" height="6"><g transform="translate(-59.4 -28.9)"><radialGradient id="a" gradientUnits="userSpaceOnUse" gradientTransform="matrix(.0169 0 0 .01117 70.25 30.6)" spreadMethod="pad" cx="0" cy="0" r="819.2" fx="0" fy="0"><stop offset="0" stop-color="#964d39" stop-opacity=".424"/><stop offset="1" stop-color="#964d39" stop-opacity="0"/></radialGradient><path d="M79.25 31.8l-.25.75q-.1 1.55-3.55 1.7-2.2.15-3.1-.6-.9-.75-1.4-2.1l-1.2.1-.3.7-.25.4v.05q-1.45 1.7-3.9 1.5-2.4-.35-2.95-.8-.55-.5-.55-1.1 0-.6.35-1.15l.95-.95q.85-.85 2.7-.65l2.9.55q.7.25 1.25.7h.9l.8-.45 2.3-.7 3 .3q.65.65 1.55.9.9.2.75.85m-1.75-.7q-.95-.75-1.5-.9l-1.05-.2q-1 0-1.75.45l-1.75 1q0 .7.7 1.45 1 1.1 2.7 1 2.8-.05 3.3-1.15v-.1l.2-.85-.85-.7m-8.65-.2l-1.15-.4-1.95-.4q-1.3-.05-2.25.7-.95.7-1.15 1.25-.2.5.45 1.15.6.6 3.15.7 2.6-.15 3.2-1.85.25-.95-.3-1.15" fill="url(#a)"/><path d="M69.35 30.2h-.05l.15-.05.3.1.45.1h.05l.45-.1.3-.1.15.05h-.05l-.1.25-.3.05-.45.05h-.05l-.45-.05-.3-.05-.1-.25" fill="#272823"/><path d="M79 30.05h.1v1.3l.15-.1.95-.65.2-.4v-.45q-.05-.3.05-.3l.05.1-.05.05.1.55v.05l-.05.05q-.1.5-1.25 1.15h-.05l-.1.15-.1.2v-1.7m-17.55 1.7l-.15-.2-.05-.15h-.05l-1.3-1.15v-.1l.05-.55v-.05l.05-.1.05.3v.45l.15.4 1 .65.1.1v-1.3H61.45v1.7" fill="#fcf8f7"/><linearGradient id="b" gradientUnits="userSpaceOnUse" gradientTransform="matrix(.00302 .00174 -.00143 .00249 66.35 31.2)" x1="-819.2" x2="819.2"><stop offset="0" stop-color="#2b2e33"/><stop offset=".4" stop-color="#100503"/><stop offset="1" stop-color="#3a2c2b"/></linearGradient><path d="M67.75 33.3q-1.5.45-3.35.05-1.7-.4-2.4-1.45-.25-.5-.2-1.75l-.05-.15h-.05q.95-1.05 3.3-.9 3.1-.1 4.3 1.1h.05l.1.25.1.8-.25.9-.1.2-.05.05q-.8.7-1.4.9m1.35-2.15l-.25-.95q-2.85-1.2-5.8-.45-.65.15-.75.45v.9q.05.55.25.95l.65.6q1.8.85 3.8.45 1.9-.35 2.05-1.55l.05-.4" fill="url(#b)"/><radialGradient id="c" gradientUnits="userSpaceOnUse" gradientTransform="translate(70.25 31) scale(.0007)" spreadMethod="pad" cx="0" cy="0" r="819.2" fx="0" fy="0"><stop offset="0" stop-color="#3c3b40"/><stop offset="1" stop-color="#17141a"/></radialGradient><path d="M70.2 31.15h-.35l-.1.05-.2.05-.1-.8.3.05.45.05v.6" fill="url(#c)"/><linearGradient id="d" gradientUnits="userSpaceOnUse" gradientTransform="matrix(.00204 .00117 -.00111 .00192 64.05 31.55)" x1="-819.2" x2="819.2"><stop offset="0" stop-color="#424147"/><stop offset=".4" stop-color="#3a3d41"/><stop offset="1" stop-color="#4a3834"/></linearGradient><path d="M61.6 31.65v-1.6h.05l.05-.05h.05l.05.15q-.05 1.25.2 1.75.7 1.05 2.4 1.45 1.85.4 3.35-.05.6-.2 1.4-.9-.75 1.3-3.5 1.2-1.6-.1-2.65-.6-1.25-.8-1.4-1.35" fill="url(#d)"/><linearGradient id="e" gradientUnits="userSpaceOnUse" gradientTransform="matrix(.00095 .00053 -.00029 .00052 61.85 32.15)" x1="-819.2" x2="819.2"><stop offset="0" stop-color="#61605e"/><stop offset=".4" stop-color="#cfc5c4"/><stop offset="1" stop-color="#b8b2b2"/></linearGradient><path d="M61.45 30.05l.15.05v1.55q.15.55 1.4 1.35l-1.35-.9-.2-.35v-1.7" fill="url(#e)"/><linearGradient id="f" gradientUnits="userSpaceOnUse" gradientTransform="matrix(.00131 .00104 -.0002 .00024 60.9 29.85)" x1="-819.2" x2="819.2"><stop offset="0" stop-color="#1b161a"/><stop offset=".427" stop-color="#918c90"/><stop offset="1" stop-color="#4e4946"/></linearGradient><path d="M59.6 29l-.05-.1h.05l.15.05.45.5.75.35.3.15h.2l.2.1h-.05v.05l-.15-.05H61.3l-.1.05-1.35-.85-.2-.2-.05-.05" fill="url(#f)"/><linearGradient id="g" gradientUnits="userSpaceOnUse" gradientTransform="matrix(.00017 .00017 -.00027 .00027 59.65 29.45)" x1="-819.2" x2="819.2"><stop offset="0" stop-color="#40322f"/><stop offset="1" stop-color="#64534c"/></linearGradient><path d="M59.95 29.6l-.05.55v.05l-.45-.85-.05-.25q-.05-.1.05-.15l.1-.05.05.1.05.05.2.35.1.15v.05" fill="url(#g)"/><linearGradient id="h" gradientUnits="userSpaceOnUse" gradientTransform="matrix(.00052 .00014 -.00017 .00061 60.4 29.95)" x1="-819.2" x2="819.2"><stop offset="0" stop-color="#d8d6d9"/><stop offset=".427" stop-color="#fffeff"/><stop offset="1" stop-color="#d7d5d8"/></linearGradient><path d="M61.2 31.25l-1-.65-.15-.4v-.45l-.05-.3-.05.1-.1-.15-.2-.35.2.2 1.35.85v1.15" fill="url(#h)"/><linearGradient id="i" gradientUnits="userSpaceOnUse" gradientTransform="matrix(0 .00055 -.00008 0 61.25 30.65)" x1="-819.2" x2="819.2"><stop offset="0" stop-color="#848283"/><stop offset="1" stop-color="#c0bbbf"/></linearGradient><path d="M61.3 31.35l-.1-.1V30.1l.1-.05v1.3" fill="url(#i)"/><linearGradient id="j" gradientUnits="userSpaceOnUse" gradientTransform="matrix(-.00052 .00014 .00017 .00061 80 29.95)" x1="-819.2" x2="819.2"><stop offset="0" stop-color="#d8d6d9"/><stop offset=".427" stop-color="#fffeff"/><stop offset="1" stop-color="#d7d5d8"/></linearGradient><path d="M80.45 29.45q-.1 0-.05.3v.45l-.2.4-.95.65V30.1l1.35-.85.2-.2-.2.35-.1.15-.05-.1" fill="url(#j)"/><linearGradient id="k" gradientUnits="userSpaceOnUse" gradientTransform="matrix(-.00131 .00104 .0002 .00024 79.55 29.85)" x1="-819.2" x2="819.2"><stop offset="0" stop-color="#1b161a"/><stop offset=".427" stop-color="#918c90"/><stop offset="1" stop-color="#4e4946"/></linearGradient><path d="M78.8 30.05l.2-.1h.2l.3-.15.75-.35.45-.5.15-.05h.05l-.1.1v.05l-.2.2-1.35.85-.15-.05H79l-.15.05-.05-.05" fill="url(#k)"/><linearGradient id="l" gradientUnits="userSpaceOnUse" gradientTransform="matrix(-.00017 .00017 .00027 .00027 80.8 29.45)" x1="-819.2" x2="819.2"><stop offset="0" stop-color="#40322f"/><stop offset="1" stop-color="#64534c"/></linearGradient><path d="M80.55 30.15l-.1-.55.05-.05.1-.15.2-.35V29l.1-.1.1.05.05.15-.05.25q-.3.35-.45.85v-.05" fill="url(#l)"/><linearGradient id="m" gradientUnits="userSpaceOnUse" gradientTransform="matrix(-.00204 .00117 .00111 .00192 76.4 31.55)" x1="-819.2" x2="819.2"><stop offset="0" stop-color="#424147"/><stop offset=".4" stop-color="#3a3d41"/><stop offset="1" stop-color="#4a3834"/></linearGradient><path d="M77.45 33q-1.05.5-2.7.6-2.7.1-3.45-1.2l1.4.9q1.5.45 3.35.05 1.7-.4 2.4-1.45.25-.5.15-1.75l.1-.15h.05l.05.05.05.05v1.55q-.15.55-1.4 1.35" fill="url(#m)"/><linearGradient id="n" gradientUnits="userSpaceOnUse" gradientTransform="matrix(-.00302 .00174 .00143 .00249 74.1 31.2)" x1="-819.2" x2="819.2"><stop offset="0" stop-color="#2b2e33"/><stop offset=".4" stop-color="#100503"/><stop offset="1" stop-color="#3a2c2b"/></linearGradient><path d="M71 30.45l.1-.25h.05q1.2-1.2 4.3-1.1 2.35-.15 3.3.9h-.05l-.1.15q.1 1.25-.15 1.75-.7 1.05-2.4 1.45-1.85.4-3.35-.05l-1.4-.9-.05-.05-.1-.2-.25-.9q-.1-.45.1-.8m7.15.65v-.9q-.1-.3-.75-.45-2.95-.75-5.8.45-.25.25-.25.95l.05.4q.15 1.2 2.05 1.55 2 .4 3.8-.45l.65-.6.25-.95" fill="url(#n)"/><linearGradient id="o" gradientUnits="userSpaceOnUse" gradientTransform="matrix(0 .00055 .00008 0 79.2 30.65)" x1="-819.2" x2="819.2"><stop offset="0" stop-color="#848283"/><stop offset="1" stop-color="#c0bbbf"/></linearGradient><path d="M79.1 31.35v-1.3l.15.05v1.15l-.15.1" fill="url(#o)"/><linearGradient id="p" gradientUnits="userSpaceOnUse" gradientTransform="matrix(-.00095 .00053 .00029 .00052 78.6 32.15)" x1="-819.2" x2="819.2"><stop offset="0" stop-color="#61605e"/><stop offset=".4" stop-color="#cfc5c4"/><stop offset="1" stop-color="#b8b2b2"/></linearGradient><path d="M78.85 31.65V30.1l.15-.05v1.7l-.2.35-1.35.9q1.25-.8 1.4-1.35" fill="url(#p)"/><radialGradient id="q" gradientUnits="userSpaceOnUse" gradientTransform="matrix(-.0007 0 0 .0007 70.2 31)" spreadMethod="pad" cx="0" cy="0" r="819.2" fx="0" fy="0"><stop offset="0" stop-color="#3c3b40"/><stop offset="1" stop-color="#17141a"/></radialGradient><path d="M70.9 31.25l-.2-.05-.1-.05H70.2v-.6h.05l.45-.05.3-.05q-.2.35-.1.8" fill="url(#q)"/><radialGradient id="r" gradientUnits="userSpaceOnUse" gradientTransform="matrix(.00278 0 0 .00278 66.85 29.5)" spreadMethod="pad" cx="0" cy="0" r="819.2" fx="0" fy="0"><stop offset="0" stop-color="#fff"/><stop offset=".255" stop-color="#fff" stop-opacity=".322"/><stop offset=".475" stop-color="#fff" stop-opacity=".141"/><stop offset="1" stop-color="#fff" stop-opacity="0"/></radialGradient><path d="M67.85 29.7l-3.35-.25h-.1l-1.5-.05q3.55-.5 5.7.45l-.75-.15" fill="url(#r)"/><radialGradient id="s" gradientUnits="userSpaceOnUse" gradientTransform="translate(63.2 32.75) scale(.0018)" spreadMethod="pad" cx="0" cy="0" r="819.2" fx="0" fy="0"><stop offset="0" stop-color="#fff"/><stop offset=".255" stop-color="#fff" stop-opacity=".322"/><stop offset=".475" stop-color="#fff" stop-opacity=".141"/><stop offset="1" stop-color="#fff" stop-opacity="0"/></radialGradient><path d="M65.5 33.4h-.1l-.2-.05q-2.2-.1-2.95-1.5v.05q1 1.45 3.9 1.45l-.65.05" fill="url(#s)"/><radialGradient id="t" gradientUnits="userSpaceOnUse" gradientTransform="translate(68.4 32.7) scale(.00366)" spreadMethod="pad" cx="0" cy="0" r="819.2" fx="0" fy="0"><stop offset="0" stop-color="#fff" stop-opacity=".482"/><stop offset=".255" stop-color="#fff" stop-opacity=".18"/><stop offset=".475" stop-color="#fff" stop-opacity=".09"/><stop offset="1" stop-color="#fff" stop-opacity="0"/></radialGradient><path d="M66.15 33.35h.2q2.45-.2 2.85-1.95l.05-.45.05.2v.45q-.4 1.6-2.6 1.85l-1.2-.05.65-.05" fill="url(#t)"/><radialGradient id="u" gradientUnits="userSpaceOnUse" gradientTransform="matrix(-.00278 0 0 .00278 73.6 29.5)" spreadMethod="pad" cx="0" cy="0" r="819.2" fx="0" fy="0"><stop offset="0" stop-color="#fff"/><stop offset=".255" stop-color="#fff" stop-opacity=".322"/><stop offset=".475" stop-color="#fff" stop-opacity=".141"/><stop offset="1" stop-color="#fff" stop-opacity="0"/></radialGradient><path d="M72.6 29.7l3.35-.25h.1l1.5-.05q-3.55-.5-5.7.45l.75-.15" fill="url(#u)"/><radialGradient id="v" gradientUnits="userSpaceOnUse" gradientTransform="matrix(-.0018 0 0 .0018 77.25 32.75)" spreadMethod="pad" cx="0" cy="0" r="819.2" fx="0" fy="0"><stop offset="0" stop-color="#fff"/><stop offset=".255" stop-color="#fff" stop-opacity=".322"/><stop offset=".475" stop-color="#fff" stop-opacity=".141"/><stop offset="1" stop-color="#fff" stop-opacity="0"/></radialGradient><path d="M74.95 33.4h.1l.2-.05q2.2-.1 2.95-1.5v.05q-1 1.45-3.9 1.45l.65.05" fill="url(#v)"/><radialGradient id="w" gradientUnits="userSpaceOnUse" gradientTransform="matrix(-.00366 0 0 .00366 72.05 32.7)" spreadMethod="pad" cx="0" cy="0" r="819.2" fx="0" fy="0"><stop offset="0" stop-color="#fff" stop-opacity=".482"/><stop offset=".255" stop-color="#fff" stop-opacity=".18"/><stop offset=".475" stop-color="#fff" stop-opacity=".09"/><stop offset="1" stop-color="#fff" stop-opacity="0"/></radialGradient><path d="M74.3 33.35h-.2q-2.45-.2-2.85-1.95l-.05-.45-.05.2v.45q.4 1.6 2.6 1.85l1.2-.05-.65-.05" fill="url(#w)"/><radialGradient id="x" gradientUnits="userSpaceOnUse" gradientTransform="matrix(.00075 0 0 .00075 70.15 30.5)" spreadMethod="pad" cx="0" cy="0" r="819.2" fx="0" fy="0"><stop offset="0" stop-color="#fff"/><stop offset=".333" stop-color="#fff" stop-opacity=".392"/><stop offset=".663" stop-color="#fff" stop-opacity=".18"/><stop offset="1" stop-color="#fff" stop-opacity="0"/></radialGradient><path d="M70.65 30.45h.15l-.6.2-.35-.05-.15-.2.95.05" fill="url(#x)"/></g></svg>