<svg xmlns="http://www.w3.org/2000/svg" width="22" height="5"><g transform="translate(-59.1 -29.65)"><path d="M79.65 31.15l.1-.15.1-.15.2-.15.1-.25v-.05l-.1-.15-.05-.05.7-.05.05.1h-.25l-.15.2-.15.3-.05.1-.4.3-.1.05v-.05m-20.55-.9l.05-.1.85.05v.05l-.15.15v.05l.15.25.25.15.2.15.05.15.05.05-.2-.05-.45-.3-.1-.1-.2-.3-.2-.2h-.3" fill="#c8c9c4"/><path d="M80 30.2l-1.1.1h-.1l-.05-.05 1.85-.15h.05l.05.05-.7.05m-18.4.1l-1.6-.1-.85-.05.05-.05h.1l2.45.15-.1.05h-.05" fill="#6a4d45"/><path d="M80.75 30.25l-.3.25-.25.25.15-.3.15-.2h.25m-21.35 0l.2.2.2.3-.3-.25-.4-.25h.3" fill="#685a57"/><path d="M78.8 30.3h-.15l-.3-.1-.25-.2.6.2.05.05.05.05.05.55v.25l-.05-.8m.05 1.1l-.05.15.15-.05-.05.05-.15.1v-.05l.1-.2m-16.7-1.2l-.3.1h-.15l-.05.85.1.45.05.05-.2-.1h.05l-.05-.45v-.25l.05-.55.1-.05.05-.05.6-.2-.25.2" fill="#4e3f3c"/><path d="M78.5 30.35l.05.75v.75l-.1.05v-1.3q-.05-.2.05-.25m-16.45.25L62 31.9l-.05-.05v-.75l.05-.75.05.25" fill="#bbbfc8"/><path d="M69.4 30.45l.25.25.1.4v.05L69.6 31l-.05-.15-.05-.15-.05-.05-.1-.05v-.1l.05-.05" fill="#ced9df"/><radialGradient id="a" gradientUnits="userSpaceOnUse" gradientTransform="matrix(-.00723 0 0 .00723 75.2 33.5)" spreadMethod="pad" cx="0" cy="0" r="819.2" fx="0" fy="0"><stop offset="0" stop-color="#5e5453"/><stop offset=".51" stop-color="#221d21"/><stop offset="1"/></radialGradient><path d="M70.25 30.45h.5l.65-.25q.3-.25 1.4-.4l3.15-.15q1.35 0 2.15.35l.25.2.3.1h.15l.05.8V31.4l-.1.2v.05h-.05v.05l-.25.75-.25.7-.05.1-2.1.45q-3.65.15-4.25-.45l-.4-.8-.45-.95q-.2-.4-.65-.4h-.05v-.65m5.6-.55h-.45l-2.45.2-.7.1q-1 .25-.95.7l.05.6q.45 1.7 1.25 1.8l.35.1q2.05.2 3.55 0 1.45-.2 1.55-.6l.15-1-.05-.9-.1-.45-.3-.3-.85-.2-.95-.05h-.1m2.6.7v1.3l.1-.05v-.75l-.05-.75q-.1.05-.05.25" fill="url(#a)"/><radialGradient id="b" gradientUnits="userSpaceOnUse" gradientTransform="matrix(-.00168 -.00212 -.00507 .00406 74.7 32.55)" spreadMethod="pad" cx="0" cy="0" r="819.2" fx="0" fy="0"><stop offset="0" stop-color="#fff" stop-opacity=".851"/><stop offset=".475" stop-color="#b1b1bf" stop-opacity=".514"/><stop offset=".961" stop-color="#f2f2f7" stop-opacity=".353"/></radialGradient><path d="M71.4 31l.05.4q.45 1.7 1.25 1.85l.4.05q2 .2 3.4 0 1.4-.15 1.5-.55l.1-.95-.05-.85-.05-.45-.3-.25-.9-.25-.85-.1.95.05.85.2.3.3.1.45.05.9-.15 1q-.1.4-1.55.6-1.5.2-3.55 0l-.35-.1q-.8-.1-1.25-1.8l-.05-.6q-.05-.45.95-.7-.75.25-.85.8" fill="url(#b)"/><linearGradient id="c" gradientUnits="userSpaceOnUse" gradientTransform="matrix(0 .00194 .0008 0 72.55 30.15)" x1="-819.2" x2="819.2"><stop offset=".235" stop-color="#e6f5f0" stop-opacity=".812"/><stop offset="1" stop-color="#fff" stop-opacity="0"/></linearGradient><path d="M71.8 30.8q.2-.45.9-.55l.6-.05-.2.65-.15.8-.9-.2q-.2-.1-.25-.65" fill="url(#c)"/><radialGradient id="d" gradientUnits="userSpaceOnUse" gradientTransform="matrix(.00558 0 0 .00558 70.8 31.25)" spreadMethod="pad" cx="0" cy="0" r="819.2" fx="0" fy="0"><stop offset=".204" stop-color="#873f2b" stop-opacity=".8"/><stop offset=".565" stop-color="#964436" stop-opacity=".573"/><stop offset="1" stop-color="#a86452" stop-opacity=".18"/></radialGradient><path d="M69.35 31.8l.15-.3q.25-.4.7-.4h.1q.45 0 .65.4l.45.95.4.8q.6.6 4.25.45l2.1-.45-.3.35-1.35.45-1.3.1h-.75l-2.3-.55-.5-.4-.1-.15-.4-.7-.65-.95q-.6-.3-.95.5l-.05.2-.15-.3" fill="url(#d)"/><radialGradient id="e" gradientUnits="userSpaceOnUse" gradientTransform="matrix(.00723 0 0 .00723 65.25 33.5)" spreadMethod="pad" cx="0" cy="0" r="819.2" fx="0" fy="0"><stop offset="0" stop-color="#5e5453"/><stop offset=".51" stop-color="#221d21"/><stop offset="1"/></radialGradient><path d="M69.1 32.45l-.4.8-1.65.45h-2.6q-2-.2-2.15-.55-.2-.35-.25-.7l-.2-.7-.05-.05v-.05l-.05-.05-.1-.45.05-.85h.15l.3-.1.25-.2 2.15-.35 3.1.15q1.1.15 1.45.4l.65.25h.5v.65h-.05q-.45 0-.7.4l-.15.3-.25.65m-1.55-2.35l-2.45-.2h-.55l-.95.05-.85.2-.3.3-.1.45-.05.9.1 1q.1.4 1.6.6 1.5.2 3.55 0l.35-.1q.8-.1 1.2-1.8l.1-.6q0-.45-.95-.7l-.7-.1m1.8.4v.1l.1.05.05.05.05.15.05.15.15.15v-.05l-.1-.4-.25-.25-.05.05M62 30.35l-.05.75v.75l.05.05.05-1.3-.05-.25" fill="url(#e)"/><radialGradient id="f" gradientUnits="userSpaceOnUse" gradientTransform="matrix(.00168 -.00212 .00507 .00406 65.8 32.55)" spreadMethod="pad" cx="0" cy="0" r="819.2" fx="0" fy="0"><stop offset="0" stop-color="#fff" stop-opacity=".851"/><stop offset=".475" stop-color="#b1b1bf" stop-opacity=".514"/><stop offset=".961" stop-color="#f2f2f7" stop-opacity=".353"/></radialGradient><path d="M63.7 30l-.9.25q-.25.15-.3.25l-.1.45v.85l.1.95q.1.4 1.5.55 1.4.2 3.4 0l.4-.05q.8-.15 1.2-1.85l.1-.4q-.1-.55-.85-.8.95.25.95.7l-.1.6q-.4 1.7-1.2 1.8l-.35.1q-2.05.2-3.55 0t-1.6-.6l-.1-1 .05-.9.1-.45.3-.3.85-.2.95-.05-.85.1" fill="url(#f)"/><linearGradient id="g" gradientUnits="userSpaceOnUse" gradientTransform="matrix(0 .00179 -.0008 0 67.9 30.15)" x1="-819.2" x2="819.2"><stop offset=".235" stop-color="#e6f5f0" stop-opacity=".812"/><stop offset="1" stop-color="#fff" stop-opacity="0"/></linearGradient><path d="M67.4 30.85l-.2-.65.6.05q.7.1.9.55l-.25.65-.9.2-.15-.8" fill="url(#g)"/><linearGradient id="h" gradientUnits="userSpaceOnUse" gradientTransform="matrix(-.0064 .0024 -.00082 -.0022 65.25 32.85)" x1="-819.2" x2="819.2"><stop offset="0" stop-color="#e0a296" stop-opacity=".341"/><stop offset=".243" stop-color="#db997f" stop-opacity=".502"/><stop offset=".565" stop-color="#e39b88" stop-opacity=".322"/><stop offset="1" stop-color="#f7a38f" stop-opacity=".431"/></linearGradient><path d="M69.35 31.8l.15.3-.3.7-.2.5-.3.25-2.8.75-3.7.15q-.65-.15-.65-.85l.25-1.6.25.95q.2.65 1.7.85l3.3-.1 1.65-.45.4-.8.25-.65" fill="url(#h)"/><radialGradient id="i" gradientUnits="userSpaceOnUse" gradientTransform="matrix(.00226 0 0 .003 59.85 30.35)" spreadMethod="pad" cx="0" cy="0" r="819.2" fx="0" fy="0"><stop offset="0" stop-color="#55372d"/><stop offset=".557" stop-color="#2c1e1d"/><stop offset="1" stop-color="#211d1c"/></radialGradient><path d="M61.65 30.3l-.05.55v.25l.05.45h-.05l-1-.35h-.05l-.05-.05-.05-.15-.2-.15-.25-.15-.15-.25v-.05l.15-.15v-.05l1.6.1h.05" fill="url(#i)"/><radialGradient id="j" gradientUnits="userSpaceOnUse" gradientTransform="matrix(-.0017 0 0 .003 80.15 30.35)" spreadMethod="pad" cx="0" cy="0" r="819.2" fx="0" fy="0"><stop offset="0" stop-color="#55372d"/><stop offset=".557" stop-color="#2c1e1d"/><stop offset="1" stop-color="#211d1c"/></radialGradient><path d="M79.65 31.2h-.05l-.65.3-.15.05.05-.15v-.55l-.05-.55h.1l1.1-.1.05.05.1.15v.05l-.1.25-.2.15-.1.15-.1.15v.05" fill="url(#j)"/><linearGradient id="k" gradientUnits="userSpaceOnUse" gradientTransform="matrix(.00044 .00327 -.00058 .00008 63.5 31.75)" x1="-819.2" x2="819.2"><stop offset="0" stop-color="#aab0b0" stop-opacity="0"/><stop offset=".439" stop-color="#e5f9ff" stop-opacity=".624"/><stop offset="1" stop-color="#e5edeb" stop-opacity="0"/></linearGradient><path d="M63.75 30.45l.15 1.15.15.85-.45-.05-.4-.1-.25-1.8.8-.05" fill="url(#k)"/><linearGradient id="l" gradientUnits="userSpaceOnUse" gradientTransform="matrix(-.00026 .0019 .00058 .00008 77.35 31.6)" x1="-819.2" x2="819.2"><stop offset="0" stop-color="#aab0b0" stop-opacity="0"/><stop offset=".439" stop-color="#e5f9ff" stop-opacity=".624"/><stop offset="1" stop-color="#e5edeb" stop-opacity="0"/></linearGradient><path d="M76.75 30.45l.8.05-.25 1.8-.4.1-.45.05.15-.85.15-1.15" fill="url(#l)"/><radialGradient id="m" gradientUnits="userSpaceOnUse" gradientTransform="matrix(.00555 0 0 .00555 67.7 29.9)" spreadMethod="pad" cx="0" cy="0" r="819.2" fx="0" fy="0"><stop offset="0" stop-color="#fff" stop-opacity=".851"/><stop offset=".478" stop-color="#f2f2f7" stop-opacity=".353"/><stop offset="1" stop-color="#868691" stop-opacity="0"/></radialGradient><path d="M69.25 30.3l-1.6-.35-3.2-.25h-.85l.95-.05 3.1.15q1.1.15 1.45.4l.4.2-.25-.1" fill="url(#m)"/><path d="M71.25 30.35l-.3.2h-.35l-.15-.05.8-.15" fill="#cecfd4"/><radialGradient id="n" gradientUnits="userSpaceOnUse" gradientTransform="translate(76.25 29.65) scale(.00505)" spreadMethod="pad" cx="0" cy="0" r="819.2" fx="0" fy="0"><stop offset="0" stop-color="#fff" stop-opacity=".851"/><stop offset=".478" stop-color="#f2f2f7" stop-opacity=".353"/><stop offset="1" stop-color="#868691" stop-opacity="0"/></radialGradient><path d="M78.65 30.4l-.75-.3-2.45-.35-3.25.15.6-.1 3.15-.15 1.95.3.65.35.1.1" fill="url(#n)"/><radialGradient id="o" gradientUnits="userSpaceOnUse" gradientTransform="matrix(.00139 0 0 .00139 71.35 30.65)" spreadMethod="pad" cx="0" cy="0" r="819.2" fx="0" fy="0"><stop offset=".11" stop-color="#fff" stop-opacity=".631"/><stop offset=".902" stop-color="#ededff" stop-opacity="0"/></radialGradient><path d="M70.45 30.5l.35.05q.2 0 .2.1v.85l-.2-.3-.5-.15v-.55h.15" fill="url(#o)"/></g></svg>