<svg xmlns="http://www.w3.org/2000/svg" width="22" height="5"><g transform="translate(-59.3 -29.45)"><path d="M62.7 30q.5-.5 2.7-.55 2.2 0 3 .5l.55.65v.05l-.55-.6q-.8-.5-3-.5l-2.5.4-.2.15q-.25.25-.4.65l.4-.75" fill="#845740"/><path d="M70.2 30.5l-1.1.05 2.35-.05q.35.25.15.35l-.45-.1q-.15-.2-.95-.25" fill="#916451"/><path d="M71.15 30.75l-2.15.1-.05-.15v-.1l.15-.05 1.1-.05q.8.05.95.25" fill="#29150c"/><path d="M69.3 30.95l.15.3-.4.85-.45.5.05-.1v-.05l.45-.6.25-.65-.05-.25" fill="#674329"/><path d="M69.35 31.2l-.25.65-.45.6.2-.5.2-.25.1-.4-.1-.15H69v-.1l.25-.1h.05l.05.25m-.1 0l-.1.3v.05l.15-.4-.05-.1h-.05l.05.15" fill="#8b7357"/><path d="M69.2 31.05h.05l.05.1-.15.4v-.05l.1-.3-.05-.15" fill="#d9ae8a"/><path d="M69.05 31.15l.1.15-.1.4-.2.25.1-.45.05-.3v-.05h.05" fill="#311c19"/><path d="M68.7 31.65l-.05.05-.1-.1.1-.1h.05v.15" fill="#746b5c"/><path d="M68.6 31.9l-.05.05-.15-.1-.05-.05v-.1l.1-.2q.05-.1.15-.1l.15.05-.05.05h-.05l-.1.1.1.1-.05.2" fill="#181413"/><path d="M68.45 32.3l-.05.1v-.05l-.05-.25.05-.25.15.1.05-.05-.15.4m-.05-.1l.05-.1-.05-.1-.05.1.05.1" fill="#7a5d3f"/><path d="M68.35 32.1l.05-.1.05.1-.05.1-.05-.1" fill="#83714d"/><path d="M61.35 30.9h.05l.25-.05h.65l-.05.25h-.5l-.25-.1h-.2l.05-.1" fill="#281f18"/><path d="M61.3 31h-.15l.05-.1q0-.25-.55-.25h-.15v-.05l.1-.05h.1l.6.1.05.05.05.1.25-.05h.65v.1h-.65l.05-.05h-.05l-.15.05h-.2v-.05l-.05.05.1.05-.05.1" fill="#664e42"/><path d="M60.6 30.8l-.1-.15h.15q.55 0 .55.25l-.05.1h-.05l-.3-.1-.2-.1" fill="#94968b"/><path d="M61.4 30.9h-.05l-.1-.05.05-.05v.05h.2l.15-.05h.05l-.05.05-.25.05" fill="#b6b193"/><path d="M60.5 30.65l.1.15.2.1-.3-.1h-.05V30.65h.05" fill="#8f7658"/><path d="M60.5 30.6v.05h-.05q-.75-.2-.75-.3l.8.25" fill="#b2afa0"/><path d="M59.65 30.4v-.15l.05.05v.05q0 .1.75.3v.05l-.8-.25v-.05" fill="#1a1408"/><path d="M59.7 30.35v-.05l.9.25-.1.05-.8-.25" fill="#3f322c"/><path d="M59.5 30.3l.05-.05.05.05v.05H59.45l.05-.05" fill="#c6c7b5"/><path d="M59.55 30.45l-.05-.05-.1.2-.05-.15v-.1l.2-.15.1.05v.15l-.1.05m-.1-.1H59.6v-.05l-.05-.05-.05.05-.05.05" fill="#758459"/><path d="M59.65 30.4v.05l-.2.15-.05.1-.1-.2.05-.15v.1l.05.15.1-.2.05.05.1-.05" fill="#39463c"/><path d="M62.55 30.75l-.05.8q.05 1.15.95 1.5l2.5.4q1.55.05 2.05-.5l.4-.6v.05l-.4.65q-.5.55-2.05.5l-2.5-.4q-.9-.35-.95-1.55l.05-.85" fill="#cf8a6b"/><linearGradient id="a" gradientUnits="userSpaceOnUse" gradientTransform="matrix(.00409 -.00012 .00008 .0026 65.6 31.65)" x1="-819.2" x2="819.2"><stop offset=".039" stop-color="#35211a"/><stop offset=".58" stop-color="#865841"/><stop offset=".988" stop-color="#2a1816"/></linearGradient><path d="M68.95 30.7l.05.15V31.2l-.05.3-.1.45-.2.5v.05l-.05.1-.4.55q-.55.6-2.2.65l-2.7-.4q-1.05-.45-1.1-1.65l.05-.65.05-.25v-.1q.15-.4.4-.65l.2-.15 2.5-.4q2.2 0 3 .5l.55.6v.05m-6.15-.6q-.45.45-.4 1.6 0 1.15.95 1.55l2.6.4q1.6 0 2.1-.5L68.7 32l.15-.5q.2-.85-.25-1.25l-.3-.15-2.95-.4-2.45.3-.1.1" fill="url(#a)"/><radialGradient id="b" gradientUnits="userSpaceOnUse" gradientTransform="matrix(.00415 0 0 .00308 65.7 30.8)" spreadMethod="pad" cx="0" cy="0" r="819.2" fx="0" fy="0"><stop offset=".031" stop-color="#fff" stop-opacity="0"/><stop offset="1" stop-color="#fff" stop-opacity=".212"/></radialGradient><path d="M68.75 31.45l-.15-.05q-.1 0-.15.1l-.1.2v.1l.05.05-.05.25.05.25-.4.6q-.5.55-2.05.5l-2.5-.4q-.9-.35-.95-1.5l.05-.8q.1-.5.35-.75l2.45-.3 2.95.4.3.15q.3.4.15 1.2m-5.85-.05l.6.9.7-.6-.7-1.25q-.45.3-.6.95" fill="url(#b)"/><linearGradient id="c" gradientUnits="userSpaceOnUse" gradientTransform="matrix(-.00107 -.00026 .00027 -.00107 63.85 31.65)" x1="-819.2" x2="819.2"><stop offset=".016" stop-color="#fff" stop-opacity="0"/><stop offset=".961" stop-color="#fff" stop-opacity=".431"/></linearGradient><path d="M63.5 30.45l.7 1.25-.7.6-.6-.9q.15-.65.6-.95" fill="url(#c)"/><linearGradient id="d" gradientUnits="userSpaceOnUse" gradientTransform="matrix(.0037 0 0 .00223 65.6 31.8)" x1="-819.2" x2="819.2"><stop offset=".039" stop-color="#f5efd5"/><stop offset=".58" stop-color="#a78d6c"/><stop offset=".988" stop-color="#f9ffdb"/></linearGradient><path d="M62.5 31.6q.05 1.2.95 1.55l2.5.4q1.55.05 2.05-.5l.4-.65.05-.1.15-.4.05-.2.05-.05v-.15l.05-.05q.15-.8-.15-1.2.45.4.25 1.25l-.15.5-.65 1.15q-.5.5-2.1.5l-2.6-.4q-.95-.4-.95-1.55-.05-1.15.4-1.6l.1-.1q-.25.25-.35.75l-.05.85" fill="url(#d)"/><path d="M71.4 30.7q.15-.4.55-.65.75-.5 3-.45 2.2 0 2.7.5l.4.75H78l-.35-.65-.2-.15-2.5-.4q-2.25 0-3 .5l-.6.65.05-.1" fill="#845740"/><path d="M71.3 32.2l-.4-.85q0-.25.15-.3l-.1.25.3.65.4.6.05.05.05.1-.45-.5" fill="#674329"/><path d="M71.1 31.05l.2.1v.1h-.05l-.1.15.15.4.2.25.15.5-.4-.6-.3-.65.1-.25h.05m0 .1q-.1 0-.1.15l.15.35-.05-.3.05-.2h-.05" fill="#8b7357"/><path d="M71.15 31.15l-.05.2.05.3-.15-.35q0-.15.1-.15h.05" fill="#d9ae8a"/><path d="M71.3 31.8l-.15-.4.1-.15h.05l.05.05v.3l.15.45-.2-.25" fill="#311c19"/><path d="M71.7 31.8l-.05-.05v-.15h.05l.1.15-.1.05" fill="#746b5c"/><path d="M71.8 32.05h-.05l-.05-.25.1-.05-.1-.15h-.05l-.05-.05.15-.05.15.1.1.2-.05.1v.05l-.15.1" fill="#181413"/><path d="M71.95 32.5l-.05-.05-.15-.4h.05l.15-.1.05.25-.05.25v.05m-.05-.2l.05-.05v-.15l-.05.15v.05" fill="#7a5d3f"/><path d="M71.9 32.25l.05-.15v.15l-.05.05v-.05" fill="#83714d"/><path d="M71.95 32.45l.4.6q.5.55 2.05.5l2.5-.35q.9-.4.9-1.55l-.05-.8.1.85q-.05 1.2-.95 1.55l-2.5.4q-1.55.05-2.05-.5l-.4-.65v-.05" fill="#93634c"/><path d="M78 30.85h.05H78" fill="#7d4632"/><path d="M78.45 30.95l.25.05h.3l.05.1h-.2l-.25.1h-.5l-.05-.25h.4" fill="#281f18"/><path d="M79.85 30.75h-.2q-.5 0-.5.3v.05h-.1L79 31l.05-.05h-.2l-.15-.05h-.05l.05.1-.25-.05h-.4v-.1h.6l.05.05h.25l.05-.1v-.05l.65-.1h.1v.05h.05l.05.05" fill="#664e42"/><path d="M79.15 31.1v-.05q0-.3.5-.3h.2v.05l-.1.1-.25.1-.25.1h-.1" fill="#94968b"/><path d="M78.65 30.9h.05l.15.05h.2L79 31h-.3l-.05-.1" fill="#b6b193"/><path d="M79.9 30.9h-.05l-.35.1.25-.1.1-.1v-.05l.05.05v.1" fill="#8f7658"/><path d="M79.8 30.7l.85-.25-.75.35-.05-.05-.05-.05" fill="#b2afa0"/><path d="M80.7 30.4v.15l-.8.3v-.05l.75-.35v-.05h.05" fill="#1a1408"/><path d="M79.8 30.7h-.05l.9-.3v.05l-.85.25" fill="#3f322c"/><path d="M80.8 30.4h.05l.05.05-.15.05v-.1h.05" fill="#c6c7b5"/><path d="M80.7 30.55v-.2h.1l.2.1v.1l-.05.15-.15-.15h-.1m.05-.15v.1l.15-.05-.05-.05h-.1" fill="#758459"/><path d="M80.75 30.55h.05l.15.15.05-.15v-.1l.05.2-.1.15-.1-.1-.15-.15h.05" fill="#39463c"/><linearGradient id="e" gradientUnits="userSpaceOnUse" gradientTransform="matrix(-.00409 -.00012 -.00008 .0026 74.75 31.8)" x1="-819.2" x2="819.2"><stop offset=".039" stop-color="#35211a"/><stop offset=".58" stop-color="#865841"/><stop offset=".988" stop-color="#2a1816"/></linearGradient><path d="M78.05 30.95l.05.25.05.65q-.05 1.2-1.1 1.65l-2.75.4q-1.65-.05-2.15-.6l-.4-.6-.05-.1-.05-.05-.15-.5-.15-.45v-.3l-.05-.05v-.1l.05-.2v-.15l.6-.65q.75-.5 3-.5l2.5.4.2.15.35.65.05.1M75 29.8l-2.95.4q-.2.05-.3.2-.45.4-.25 1.25l.15.45q.25.75.65 1.15.5.55 2.1.5l2.6-.4q.95-.35.95-1.55.05-1.15-.4-1.6l-.1-.1-2.45-.3" fill="url(#e)"/><radialGradient id="f" gradientUnits="userSpaceOnUse" gradientTransform="matrix(-.00415 0 0 .00308 74.65 30.9)" spreadMethod="pad" cx="0" cy="0" r="819.2" fx="0" fy="0"><stop offset=".031" stop-color="#fff" stop-opacity="0"/><stop offset="1" stop-color="#fff" stop-opacity=".212"/></radialGradient><path d="M72 32.2l-.05-.25v-.05l.05-.1-.1-.2-.15-.1-.15.05q-.15-.75.15-1.15.1-.15.3-.2l2.95-.4 2.45.3.3.75.05.8q0 1.15-.9 1.55l-2.5.35q-1.55.05-2.05-.5l-.4-.6.05-.25m4.8.25l.65-.95-.6-.95-.7 1.25.65.65m-.2-2.05l-.85-.2-.3 1.35.55.15.6-1.3" fill="url(#f)"/><linearGradient id="g" gradientUnits="userSpaceOnUse" gradientTransform="matrix(-.0037 0 0 .00223 74.7 31.95)" x1="-819.2" x2="819.2"><stop offset=".039" stop-color="#d6d1bb"/><stop offset=".58" stop-color="#a78d6c"/><stop offset=".988" stop-color="#e3e8c8"/></linearGradient><path d="M71.6 31.55l.05.05v.15l.05.05.05.25.15.4.05.05.4.65q.5.55 2.05.5l2.5-.4q.9-.35.95-1.55l-.1-.85-.3-.75.1.1q.45.45.4 1.6 0 1.2-.95 1.55l-2.6.4q-1.6.05-2.1-.5-.4-.4-.65-1.15l-.15-.45q-.2-.85.25-1.25-.3.4-.15 1.15" fill="url(#g)"/><linearGradient id="h" gradientUnits="userSpaceOnUse" gradientTransform="matrix(.00107 -.00026 -.00027 -.00107 76.5 31.75)" x1="-819.2" x2="819.2"><stop offset=".016" stop-color="#fff" stop-opacity="0"/><stop offset=".961" stop-color="#fff" stop-opacity=".431"/></linearGradient><path d="M76.15 31.8l.7-1.25.6.95-.65.95-.65-.65" fill="url(#h)"/><linearGradient id="i" gradientUnits="userSpaceOnUse" gradientTransform="matrix(.0006 -.0012 -.00049 -.00024 75.75 31.3)" x1="-819.2" x2="819.2"><stop offset=".016" stop-color="#fff" stop-opacity="0"/><stop offset=".961" stop-color="#fff" stop-opacity=".431"/></linearGradient><path d="M76 31.7l-.55-.15.3-1.35.85.2-.6 1.3" fill="url(#i)"/></g></svg>