<svg xmlns="http://www.w3.org/2000/svg" width="21" height="5"><g transform="translate(-60.25 -29.4)"><path d="M68.7 30.35l.15.05.4.4-.05.1.2.15h-.2l-.05.55v.05l-.15.5-.1.25h-.1l.25-.95v-.3q.05-.4-.5-.65l-1.25-.3q-2.15-.3-3.4 0-1.15.2-1.25.5l-.1-.05q.75-.85 4-.65 2.4.3 2.55.85l-.4-.5" fill="#393840"/><path d="M68.1 33.45h-.05q1.5-2.45.5-2.95.55.25.5.65v.3l-.25.95-.7 1.05" fill="#c0ad9c"/><path d="M68.7 33.05l-.1-.1.1-.15.2.1.3-.45.15-.6-.2-.2v-.05h.15l.15.4-.3.65-.4.4h-.05" fill="#85716a"/><path d="M69.65 31.95l-.25.7-.35.45H69l-.25-.05.4-.4.3-.65-.15-.4.2.05.15.3m-.15 0l-.15.55.15-.15.1-.4-.15-.2.05.2" fill="#ac948a"/><path d="M68.9 32.45l.1.05.1-.15v-.1l-.1-.1.15-.5.2.2-.15.6-.3.45-.2-.1.2-.35" fill="#625857"/><path d="M69.05 33.1l.35-.45.25-.7-.15-.3q.25.1.15.65l-.05.05-.55.9-.4-.05h.3l.05-.05.05-.05" fill="#9f7e6f"/><path d="M69.45 31.75l.15.2-.1.4-.15.15.15-.55-.05-.2" fill="#cebbb4"/><path d="M69.1 32.25v.1l-.1.15-.1-.05v-.05l.1-.25.1.1" fill="#d0d1d3"/><path d="M68.6 32.95l.1.1h.05l.25.05v.05l-.05.05h-.3l-.1-.15.05-.1" fill="#cbb5aa"/><path d="M62.65 30.85l-.15-.15.05-.05.1.05V30.85" fill="#fcffff"/><path d="M62.6 31.45v.1H62.45v-.8l.05-.05.15.15-.05.6" fill="#2f3430"/><path d="M62.35 30.75h.1V31h-.15l.05-.25" fill="#656678"/><path d="M62.45 30.75h-.1l-.05.25h-.05v-.25l-.05-.15-.25-.05-.25-.05-.2-.15.05.05h.1l.5.1h.05l.1.1.05.05h.1v.1" fill="#969799"/><path d="M62.15 30.95l-.05-.05-.1-.05h-.1l.1-.2h.15v.3" fill="#9d9d9f"/><path d="M62.15 30.65H62l-.1.2h-.05l-.05-.05-.05-.25h-.05v.2l-.25-.1-.1-.15.05-.1-.75-.5.05-.05.8.5.2.15.25.05.25.05.05.15V31h-.05l-.05-.05v-.3" fill="#f8fdf9"/><path d="M60.7 30l-.1.05-.1-.25-.25-.25v-.1l.45.4-.05.05v.05l.05.05" fill="#363634"/><path d="M61.8 30.8h-.05l-.05-.05v-.2h.05l.05.25m-1.15-.85v-.05l.75.5-.05.1v-.05L60.7 30l-.05-.05" fill="#8a7b7e"/><path d="M60.6 30.05h-.05L60.5 30l-.2-.25-.05-.1v-.1l.25.25.1.25" fill="#cbcdcc"/><radialGradient id="a" gradientUnits="userSpaceOnUse" gradientTransform="matrix(.0057 0 0 .00455 65.4 30.95)" spreadMethod="pad" cx="0" cy="0" r="819.2" fx="0" fy="0"><stop offset=".031" stop-color="#fff" stop-opacity="0"/><stop offset="1" stop-color="#fff" stop-opacity=".212"/></radialGradient><path d="M68.05 33.45l-.05.05-4.35-.15-.25-.1q-.6-.3-.8-1.8l.05-.6V30.7q.1-.3 1.25-.5 1.25-.3 3.4 0l1.25.3q1 .5-.5 2.95m-1.1-3.1l.25 1.1.4.05.35-.95-1-.2m1.3 1.45l.6-.9-.75-.3-.4.95q.3.05.5.25h.05" fill="url(#a)"/><linearGradient id="b" gradientUnits="userSpaceOnUse" gradientTransform="matrix(-.00044 -.00008 -.00012 .00063 67.75 31)" x1="-819.2" x2="819.2"><stop offset=".031" stop-color="#fff" stop-opacity="0"/><stop offset="1" stop-color="#fff" stop-opacity=".314"/></linearGradient><path d="M67.95 30.55l-.35.95-.4-.05-.25-1.1 1 .2" fill="url(#b)"/><linearGradient id="c" gradientUnits="userSpaceOnUse" gradientTransform="matrix(-.00027 -.0001 -.00023 .00061 68.9 31.55)" x1="-819.2" x2="819.2"><stop offset=".031" stop-color="#fff" stop-opacity="0"/><stop offset="1" stop-color="#fff" stop-opacity=".314"/></linearGradient><path d="M68.2 31.8q-.2-.2-.5-.25l.4-.95.75.3-.6.9h-.05" fill="url(#c)"/><linearGradient id="d" gradientUnits="userSpaceOnUse" gradientTransform="matrix(.00381 .0001 -.00002 .00061 65.85 30.35)" x1="-819.2" x2="819.2"><stop offset=".047" stop-color="#baaeae"/><stop offset=".549" stop-color="#8e7976"/><stop offset="1" stop-color="#f5fdff"/></linearGradient><path d="M69.1 30.85q-.15-.55-2.55-.85-3.25-.2-4 .65l-.05.05-.05.05V30.6l.05-.05.25-.3.1-.05q3.1-.75 5.75.1l.1.05.4.5" fill="url(#d)"/><linearGradient id="e" gradientUnits="userSpaceOnUse" gradientTransform="matrix(.0012 -.00002 0 .00015 70.4 30.9)" x1="-819.2" x2="819.2"><stop offset=".035" stop-color="#4e4d55"/><stop offset=".447" stop-color="#a5a4b6"/><stop offset=".898" stop-color="#8b7d7c"/></linearGradient><path d="M69.2 30.9l.05-.1 2.1.05V31l-1.95.05-.2-.15" fill="url(#e)"/><linearGradient id="f" gradientUnits="userSpaceOnUse" gradientTransform="matrix(.0033 -.00018 .0001 .00162 65.6 32.55)" x1="-819.2" x2="819.2"><stop offset=".047" stop-color="#d6cec3"/><stop offset=".549" stop-color="#b28d7d"/><stop offset="1" stop-color="#ac9792"/></linearGradient><path d="M68.8 32.4h.1v.05l-.2.35-.1.15-.05.1-.15.2-.1.15-.35.2-4.35-.1-.25-.1q-.6-.35-.8-1.85h.05v-.1q.2 1.5.8 1.8l.25.1 4.35.15.05-.05h.05l.7-1.05" fill="url(#f)"/><path d="M78 30.55l-.1.1q-.05-.3-1.25-.55-1.25-.25-3.35.05l-1.25.3q-.55.25-.5.65v.25l.25 1h-.1l-.1-.25-.15-.55-.1-.6h-.2l.25-.15-.05-.05.35-.4.2-.1q-.55.35-.4.55.15-.55 2.55-.85 3.2-.2 3.95.6" fill="#393840"/><path d="M71.8 32.35l-.25-1v-.25q-.05-.4.5-.65-1 .5.45 2.95l-.7-1.05" fill="#c0ad9c"/><path d="M71.3 31.55h.15l-.2.2.15.65.3.45.2-.1.1.15-.15.05-.05.05-.35-.4-.3-.7.15-.35" fill="#85716a"/><path d="M71.2 32.6l-.25-.7.15-.3.2-.05-.15.35.3.7.35.4-.25.05-.35-.45m-.1-.7l.05-.2-.15.2.1.35.1.2h.05l-.15-.55" fill="#ac948a"/><path d="M71.9 32.75l-.2.1-.3-.45-.15-.65.2-.2.15.55h-.05l-.05.1v.05l.1.2.1-.1.2.4" fill="#625857"/><path d="M71.55 33.05l.05.05h.05l.25.05h-.35l-.6-.9q-.15-.55.15-.65l-.15.3.25.7.35.45" fill="#9f7e6f"/><path d="M71.2 32.45l-.1-.2-.1-.35.15-.2-.05.2.15.55h-.05" fill="#cebbb4"/><path d="M71.6 32.45l-.1-.2v-.05l.05-.1h.05l.1.25-.1.1" fill="#d0d1d3"/><path d="M71.65 33.1h-.05l-.05-.05.25-.05.05-.05.15-.05.05.05-.15.2-.25-.05" fill="#cbb5aa"/><path d="M78 30.55l.05.1-.1.1v-.1h-.05l.1-.1" fill="#fcffff"/><path d="M77.95 31.35v-.6l.1-.1.05.05.05.25v.25l-.05.3H77.95v-.15" fill="#2f3430"/><path d="M78.1 30.7h.15l.05.25h-.15l-.05-.25" fill="#656678"/><path d="M78.1 30.6l.15-.05h.05l.1-.1.55-.1H79v-.05h.05l-.2.1-.25.05-.2.05-.1.2.05.2v.05h-.05l-.05-.25h-.15v-.1" fill="#969799"/><path d="M78.7 30.8h-.15l-.1.05-.05.05v-.3l.15-.05.15.25" fill="#9d9d9f"/><path d="M78.55 30.55l-.15.05v.3l-.05.05v-.05l-.05-.2.1-.2.2-.05.25-.05.2-.1.85-.55v.05l-.7.55q-.15.05 0 .1l-.1.15-.25.1.05-.2h-.1v.25h-.05l-.05.05-.15-.25" fill="#f8fdf9"/><path d="M79.95 29.9l-.05-.1v-.05l.4-.35v.05l-.25.3L80 30l-.1-.05.05-.05" fill="#363634"/><path d="M79.9 29.8l.05.1-.05.05-.65.45-.05.05q-.15-.05 0-.1l.7-.55m-1.1.7h.1l-.05.2h-.05v.05-.25" fill="#8a7b7e"/><path d="M80.05 29.75l.25-.3V29.6l-.05.1-.2.25L80 30l.05-.25" fill="#cbcdcc"/><radialGradient id="g" gradientUnits="userSpaceOnUse" gradientTransform="matrix(-.0057 0 0 .00453 75.2 30.9)" spreadMethod="pad" cx="0" cy="0" r="819.2" fx="0" fy="0"><stop offset=".031" stop-color="#fff" stop-opacity="0"/><stop offset="1" stop-color="#fff" stop-opacity=".212"/></radialGradient><path d="M76.75 30.5l-.95-.2.2 1.05.4.1.35-.95m1.2.25v.6q-.2 1.55-.8 1.85l-.25.1-4.35.1h-.05q-1.45-2.45-.45-2.95l1.25-.3q2.1-.3 3.35-.05 1.2.25 1.25.55l.05.05v.05m-.3.1l-.75-.3-.4.95q.3.05.55.25l.6-.9" fill="url(#g)"/><linearGradient id="h" gradientUnits="userSpaceOnUse" gradientTransform="matrix(-.0038 .0001 .00002 .00061 74.7 30.3)" x1="-819.2" x2="819.2"><stop offset=".047" stop-color="#baaeae"/><stop offset=".549" stop-color="#8e7976"/><stop offset="1" stop-color="#f5fdff"/></linearGradient><path d="M74.05 29.95q-2.4.3-2.55.85-.15-.2.4-.55h.1q2.65-.85 5.75-.1l.1.05.2.3.05.05V30.7l-.05-.05-.05-.1q-.75-.8-3.95-.6" fill="url(#h)"/><linearGradient id="i" gradientUnits="userSpaceOnUse" gradientTransform="matrix(-.00044 -.00008 -.00012 .00063 76.55 30.95)" x1="-819.2" x2="819.2"><stop offset=".031" stop-color="#fff" stop-opacity="0"/><stop offset="1" stop-color="#fff" stop-opacity=".314"/></linearGradient><path d="M76.4 31.45l-.4-.1-.2-1.05.95.2-.35.95" fill="url(#i)"/><linearGradient id="j" gradientUnits="userSpaceOnUse" gradientTransform="matrix(-.0033 -.00018 -.0001 .0016 75 32.5)" x1="-819.2" x2="819.2"><stop offset=".047" stop-color="#d6cec3"/><stop offset=".549" stop-color="#b28d7d"/><stop offset="1" stop-color="#ac9792"/></linearGradient><path d="M71.7 32.35h.1l.7 1.05h.05l4.35-.1.25-.1q.6-.3.8-1.85v.15H78q-.15 1.5-.75 1.85l-.25.1-4.35.1-.4-.2-.05-.15-.15-.25-.05-.05-.1-.15-.2-.4" fill="url(#j)"/><linearGradient id="k" gradientUnits="userSpaceOnUse" gradientTransform="matrix(-.00027 -.0001 -.00023 .00061 77.7 31.5)" x1="-819.2" x2="819.2"><stop offset=".031" stop-color="#fff" stop-opacity="0"/><stop offset="1" stop-color="#fff" stop-opacity=".314"/></linearGradient><path d="M77.05 31.75q-.25-.2-.55-.25l.4-.95.75.3-.6.9" fill="url(#k)"/></g></svg>