<svg xmlns="http://www.w3.org/2000/svg" width="23" height="8"><g transform="translate(11.15 -7.7)"><path d="M-11.05 9.15l-.05.25.05.15.1.1.1-.05-.05-.05v-.2l.05-.1V9.2l-.2-.05m.25 0v.5h-.35V9.1l.35.05" fill="#cc7000"/><path d="M-10.85 9.2v.05l-.05.1v.2l.05.05-.1.05-.1-.1-.05-.15.05-.25.2.05" fill="#c94200"/><path d="M-10.65 9.05h.4l-.05.85-.15.05h-.2v-.5l.05.25.15.15.05-.1v-.5l-.15-.15-.1.25v-.3" fill="#bd6c00"/><path d="M-10.65 9.35l.1-.25.15.15v.5l-.05.1-.15-.15-.05-.25v-.1" fill="#963d05"/><linearGradient id="a" gradientUnits="userSpaceOnUse" gradientTransform="matrix(.00174 .00018 .00002 -.0002 -1.5 9.5)" x1="-819.2" x2="819.2"><stop offset="0" stop-color="#ffc60f" stop-opacity="0"/><stop offset="1" stop-color="#fcc30c" stop-opacity=".502"/></linearGradient><path d="M-6.85 7.7h.45l2.3.25-.05.05-1.15-.2-1.1-.05-1.45.05 1-.1M-8.7 9.2h.05l-.05.05V9.2" fill="url(#a)"/><linearGradient id="b" gradientUnits="userSpaceOnUse" gradientTransform="matrix(-.005 0 0 .00027 -6.75 8.35)" x1="-819.2" x2="819.2"><stop offset="0" stop-color="#f7c202"/><stop offset="1" stop-color="#f68600" stop-opacity=".851"/></linearGradient><path d="M-3.15 8.35l.5.25-1.85.05h-.05L-6.4 8.5l-.5.1-3.9-.35V8.2h.05l1.65.05h.65l1.1.05H-6l2.85.05" fill="url(#b)"/><radialGradient id="c" gradientUnits="userSpaceOnUse" gradientTransform="matrix(-.00742 0 0 .00742 -4.95 8.6)" spreadMethod="pad" cx="0" cy="0" r="819.2" fx="0" fy="0"><stop offset="0" stop-color="#383038"/><stop offset="1"/></radialGradient><path d="M-6.9 8.6l.5-.1 1.85.15h.05l.9.3h.05l.1.05.05.05q.25.1.5.3l.3.3.25.35.05.05v.05l.05.15.2.85.05.25v.15l-.05.45-.1.35-.2.6h-.05l-.15.3-.05.1-.1.05-.15.2-.1.1-.3.3-.6.35-.1.05-.05.05-1.2.25-1-.1-.9-.3-.45-.25-.35-.25v-.05l-.1-.05-.4-.35-.05-.1-.2-.3-.3-.45-.2-.55-.1-.3-.05-.15v-.35l-.05-.1v-.4l.1-.45.1-.25v-.1l.05-.05.95-.85h.05l.2-.1 1-.2m-.95.3q-.85.3-1.25 1.3l.05 1.65.8 1.45.45.35.9.55 3.35-.15.2-.15.25-.25.25-.3.1-.05.4-.7q.25-.65.25-1.45v-.05l-.25-.85q-.4-.8-1.05-1.1h-.05q-1.5-.6-2.95-.5l-1.35.25h-.1" fill="url(#c)"/><linearGradient id="d" gradientUnits="userSpaceOnUse" gradientTransform="matrix(-.00217 0 0 .0001 -6.2 7.95)" x1="-819.2" x2="819.2"><stop offset="0" stop-color="#f7c202"/><stop offset="1" stop-color="#f68600" stop-opacity=".851"/></linearGradient><path d="M-9.35 8l1.1-.15h.1l.3-.05 1.45-.05 1.1.05 1.15.2h-5.2" fill="url(#d)"/><linearGradient id="e" gradientUnits="userSpaceOnUse" gradientTransform="matrix(.0069 0 0 .00018 -5.6 9.1)" x1="-819.2" x2="819.2"><stop offset="0" stop-color="#ffe799" stop-opacity=".973"/><stop offset=".475" stop-color="#fff6d9" stop-opacity=".612"/><stop offset="1" stop-color="#fcc30c" stop-opacity=".761"/></linearGradient><path d="M-3.55 8.95h-.05l-.9-.3 1.85-.05-.5-.25-.2-.1h-1.5L-6 8.3h-1.35l-1.1-.05h-.65l-1.65-.05 1.3-.2h5.3l.05-.05.7.2.35.1.4.2v.05l.3.15 1 .3h-2.2m-7.35-.65v-.05h.1l3.9.35-1 .2-2.9-.35-.2-.05.1-.1m2.2.95l-.25.25-2.1-.45v-.2l.25.1.4.05 1.7.2v.05m-2.3.45l1.3.1h.55v.1l-.1.25-1.7-.25-.05-.2m.1 1.15v-.4l1.55.15v.4l-1.55-.15m1.65.75l.1.3H-10l-.15-.35.9.05m-.3 1.25l-.05-.1-.15-.25.8-.05.3.45-.9-.05m.65.85l-.05-.05-.3-.35.8-.1.05.1.4.35.1.05h-1m1.15.9h-.05l-.65-.5.8-.05.1-.05.45.25.9.3-1.55.05m2.55.05l1.2-.25.05-.05.1-.05 1.05.1-.8.45-1.6-.2m1.95-.7l.3-.3.1-.1.8.05-.35.45-.85-.1m.7-.75l.15-.3h.05l.75-.05-.2.35h-.75m1.3-1.3l-.15.4h-.75l.1-.35.8-.05m-.75-.55l-.05-.25h.1l.35.05h.1l.4.05-.05.15v.05l-.85-.05m-.05-1.1h-.2l-.05-.15 1.65-.05-.25.3-.15-.05h-.2l-.15-.05h-.15l-.1-.05H-2l-.05.05m-.55-.6l-.3-.3 2.85.05v.25H-2.6" fill="url(#e)"/><linearGradient id="f" gradientUnits="userSpaceOnUse" gradientTransform="matrix(-.00177 0 0 -.00076 -9.6 9.15)" x1="-819.2" x2="819.2"><stop offset="0" stop-color="#ffab03" stop-opacity=".941"/><stop offset="1" stop-color="#f58000"/></linearGradient><path d="M-10.7 8.85h-.1l-.25-.2.05-.15h.2l2.65.4-.95.85.15-.25.25-.25.05-.05h-.05l-2-.35" fill="url(#f)"/><path d="M-11.05 9.05l2.1.45-.15.25-.05.05h-.55l.65-.2-1.95-.4-.05-.15m.05-.65l.2.05 2.9.35-.2.1h-.05l-2.65-.4h-.2v-.1m-.05.25l.25.2h.1l2 .35-1.7-.2-.4-.05-.25-.1v-.2m.15 1.8v-.1l1.45-.1-1.5-.25v-.1l1.7.25-.1.45-1.55-.15" fill="#ffc903" fill-opacity=".933"/><radialGradient id="g" gradientUnits="userSpaceOnUse" gradientTransform="matrix(-.01093 0 0 .0071 -5.5 9.25)" spreadMethod="pad" cx="0" cy="0" r="819.2" fx="0" fy="0"><stop offset="0" stop-color="#33253d" stop-opacity=".6"/><stop offset="1" stop-opacity=".851"/></radialGradient><path d="M-7.75 8.9l1.35-.25q1.45-.1 2.95.5h.05q.65.3 1.05 1.1l.25.85v.05q0 .8-.25 1.45l-.4.7-.1.05-.25.3-.25.25-.2.15-3.35.15-.9-.55-.45-.35-.8-1.45-.05-1.65q.4-1 1.25-1.3h.1" fill="url(#g)"/><linearGradient id="h" gradientUnits="userSpaceOnUse" gradientTransform="matrix(-.00113 0 0 .00026 -10.1 10.2)" x1="-819.2" x2="819.2"><stop offset="0" stop-color="#ffab03" stop-opacity=".941"/><stop offset="1" stop-color="#f58000"/></linearGradient><path d="M-11 9.7v-.5l1.95.4-.65.2-1.3-.1m.05.3l1.5.25-1.45.1-.05-.35" fill="url(#h)"/><path d="M-3.15 8.35L-6 8.3l1.15-.05h1.5l.2.1m-7.75 2.55v-.05l1.55.15.05.1-1.6-.2m1.6.55l.05.15-.9-.05v-.05l.85-.05" fill="#ffc903" fill-opacity=".824"/><linearGradient id="i" gradientUnits="userSpaceOnUse" gradientTransform="matrix(-.00113 0 0 .00026 -10.1 10.2)" x1="-819.2" x2="819.2"><stop offset="0" stop-color="#f7c202"/><stop offset="1" stop-color="#f68600" stop-opacity=".851"/></linearGradient><path d="M-10.15 11.5v-.05q-.3-.4-.7-.45l-.05-.1 1.6.2v.35l-.85.05m.4 1l-.25-.6h.85l.2.55-.8.05m1.1.4l.2.3-.8.1-.3-.45.9.05m.75.8v.05l.35.25-.1.05-.8.05-.45-.4h1" fill="url(#i)"/><linearGradient id="j" gradientUnits="userSpaceOnUse" gradientTransform="matrix(-.00214 0 0 .00029 -1.8 9.15)" x1="-819.2" x2="819.2"><stop offset="0" stop-color="#f7c202"/><stop offset="1" stop-color="#f68600" stop-opacity=".851"/></linearGradient><path d="M-2.9 9.35q-.25-.2-.5-.3L-3.45 9l-.1-.05h3.5v.45l-2.85-.05" fill="url(#j)"/><linearGradient id="k" gradientUnits="userSpaceOnUse" gradientTransform="matrix(-.00154 0 0 .00026 -1.35 9.85)" x1="-819.2" x2="819.2"><stop offset="0" stop-color="#f7c202"/><stop offset="1" stop-color="#f68600" stop-opacity=".851"/></linearGradient><path d="M-2.3 10.1v-.05l-.05-.05-.25-.35h2.55v.3l-.5.05-.1.05-1.65.05" fill="url(#k)"/><path d="M-1.5 11.15l.35-.65v-.05l.1-.15.15.05-.1.35-.1.5-.4-.05" fill="#ca4d0a"/><path d="M-1.55 11.15l.1-.3.1-.25-.05-.1-.05-.05.05-.2.15.05h.2l-.1.15v-.05h-.05l-.1-.05-.1.05v.05l.15.05h.1l-.35.65h-.05" fill="#f38401"/><path d="M-1.25 10.5l-.15-.05v-.05l.1-.05.1.05h.05v.1h-.1" fill="#ebc316"/><path d="M-1.5 10.4l-.1.25-.1.25-.15-.4-.15-.3h.35l.1.05.05.15" fill="#db4908"/><path d="M-2.05 11.1l-.2-.85h.15l.1.45.05.4h-.1" fill="#ec6a0c"/><path d="M-1.6 11.15l-.35-.05-.05-.4-.1-.45h.05l.05-.05.15.3.15.4.1-.25.1-.25-.05-.15h.15l-.05.2-.15.7" fill="#cc3b04"/><path d="M-1.45 10.45l.05.05.05.1-.1.25-.1.3h-.05l.15-.7" fill="#d26200"/><linearGradient id="l" gradientUnits="userSpaceOnUse" gradientTransform="matrix(.00056 0 0 -.00037 -1.6 11.65)" x1="-819.2" x2="819.2"><stop offset="0" stop-color="#f79f02" stop-opacity=".98"/><stop offset="1" stop-color="#cd4304" stop-opacity=".851"/></linearGradient><path d="M-1.15 11.4l-.1.5-.8.05.05-.45v-.15l.85.05" fill="url(#l)"/><linearGradient id="m" gradientUnits="userSpaceOnUse" gradientTransform="matrix(.00061 0 0 -.00037 -1.9 12.6)" x1="-819.2" x2="819.2"><stop offset="0" stop-color="#f79f02" stop-opacity=".98"/><stop offset="1" stop-color="#cd4304" stop-opacity=".851"/></linearGradient><path d="M-2.35 12.9l.2-.6h.75l-.2.55-.75.05" fill="url(#m)"/><linearGradient id="n" gradientUnits="userSpaceOnUse" gradientTransform="matrix(.00066 0 0 -.00026 -2.35 13.4)" x1="-819.2" x2="819.2"><stop offset="0" stop-color="#f79f02" stop-opacity=".98"/><stop offset="1" stop-color="#cd4304" stop-opacity=".851"/></linearGradient><path d="M-2.85 13.55l.15-.2.1-.05.05-.1h.75l-.05.1-.05.05-.1.25h-.05l-.8-.05" fill="url(#n)"/><linearGradient id="o" gradientUnits="userSpaceOnUse" gradientTransform="matrix(-.00253 0 0 .00032 -4.8 14.85)" x1="-819.2" x2="819.2"><stop offset="0" stop-color="#f8a201" stop-opacity=".6"/><stop offset="1" stop-color="#f68600" stop-opacity=".851"/></linearGradient><path d="M-3.6 14.85l-.5.15-.25.1-2.55-.15-.45-.15-.4-.2 1.55-.05 1 .1 1.6.2" fill="url(#o)"/><linearGradient id="p" gradientUnits="userSpaceOnUse" gradientTransform="matrix(.00087 0 0 -.00027 -3.15 14.15)" x1="-819.2" x2="819.2"><stop offset="0" stop-color="#f79f02" stop-opacity=".98"/><stop offset="1" stop-color="#cd4304" stop-opacity=".851"/></linearGradient><path d="M-2.4 14.05l-.4.35-1.05-.1.6-.35.85.1" fill="url(#p)"/><radialGradient id="q" gradientUnits="userSpaceOnUse" gradientTransform="matrix(-.0086 0 0 .0086 -3.95 8)" spreadMethod="pad" cx="0" cy="0" r="819.2" fx="0" fy="0"><stop offset="0" stop-color="#542400" stop-opacity=".392"/><stop offset="1" stop-color="#735943" stop-opacity="0"/></radialGradient><path d="M-6.45 7.8l-4 .5q-.4 0-.55.15l.2-.2h.05l3.9-.5q2.4-.25 4.2.75.65.4 1.45.45h1.15v.1H-1.7q-.55-.15-1.05-.5l-.05-.05q-1.35-.7-3.55-.7h-.1" fill="url(#q)"/><radialGradient id="r" gradientUnits="userSpaceOnUse" gradientTransform="matrix(-.00792 0 0 .00792 -6.9 14.4)" spreadMethod="pad" cx="0" cy="0" r="819.2" fx="0" fy="0"><stop offset="0" stop-color="#fff" stop-opacity=".851"/><stop offset="1" stop-color="#fff" stop-opacity="0"/></radialGradient><path d="M-8.35 9q-1.25.7-.9 2.65l.05.1q.45 1.65 2.1 2.5v.05l3.1.1h.05q1.7-.9 1.9-2.65l.05-.2q.05-1.7-1.4-2.5.7.35 1.05.8l.45 1.2-.05.7-.35 1.3-1.25 1.2q-.55.35-1.2.45l-1.85-.15q-.9-.25-1.6-.95l-.8-.95-.35-.9-.1-1v-.05q.05-.85.6-1.45.25-.25 1.1-.45l-.6.2" fill="url(#r)"/><radialGradient id="s" gradientUnits="userSpaceOnUse" gradientTransform="matrix(-.0119 0 0 .0119 -9.05 13.05)" spreadMethod="pad" cx="0" cy="0" r="819.2" fx="0" fy="0"><stop offset="0" stop-color="#991200" stop-opacity=".682"/><stop offset="1" stop-color="#f15e01" stop-opacity="0"/></radialGradient><path d="M-7.4 14.8q-1.3-.6-2.2-2v-.05l-.45-1-.1-.3q-.3-.4-.7-.45l-.05-.1q.75.15.95.6l.05.25q.35 1.15 1 1.8.6.75 1.5 1.1v.15" fill="url(#s)"/><radialGradient id="t" gradientUnits="userSpaceOnUse" gradientTransform="matrix(-.01253 0 0 .01253 -1.6 13.2)" spreadMethod="pad" cx="0" cy="0" r="819.2" fx="0" fy="0"><stop offset="0" stop-color="#780b00" stop-opacity=".843"/><stop offset="1" stop-color="#f15e01" stop-opacity="0"/></radialGradient><path d="M-.35 10q-.6.1-.65.7l-.2 1.05-.8 1.85q-.8 1.1-2.1 1.45l-.5.1-2.75-.3-.05-.05v-.15l1.3.4h1.5l.3-.1.2-.05h.1l.45-.15 1.1-.7V14q.8-.95 1.15-2.25l.05-.3.15-.75-.35.45.5-.9q.1-.2.6-.25m-1.85 3.4l.65-1.3q-.25.9-.8 1.65l-.35.35.5-.7" fill="url(#t)"/><path d="M-.95 10.25l-.5.9.35-.45-.15.75-.05.3q-.35 1.3-1.15 2.25v.05l-1.1.7-.45.15.65-.35.1-.05q1.2-1 1.45-2.45l.05-.3q.35-1.2.85-1.7l.85-.2v.1h-.2l-.1.05q-.5.05-.6.25M-2.7 14.1l.35-.35q.55-.75.8-1.65l-.65 1.3-.5.7" fill="#d15500" fill-opacity=".6"/><path d="M10.75 9.2v.05l.05.1v.2l-.05.05.1.05.1-.1.05-.15-.05-.25-.2.05m.3-.1v.55h-.35v-.5l.35-.05" fill="#cc7000"/><path d="M10.95 9.15l.05.25-.05.15-.1.1-.1-.05.05-.05v-.2l-.05-.1V9.2l.2-.05" fill="#c94200"/><path d="M10.55 9.95h-.2l-.15-.05-.05-.85h.4v.3l-.1-.25-.15.15v.5l.05.1.15-.15.05-.25v.5" fill="#bd6c00"/><path d="M10.55 9.45l-.05.25-.15.15-.05-.1v-.5l.15-.15.1.25v.1" fill="#963d05"/><linearGradient id="u" gradientUnits="userSpaceOnUse" gradientTransform="matrix(-.0069 0 0 .00018 5.5 9.1)" x1="-819.2" x2="819.2"><stop offset="0" stop-color="#ffe799" stop-opacity=".973"/><stop offset=".475" stop-color="#fff6d9" stop-opacity=".612"/><stop offset="1" stop-color="#fcc30c" stop-opacity=".761"/></linearGradient><path d="M8.85 9.5l-.25-.25V9.2l1.7-.2.4-.05.25-.1v.2l-2.1.45m.3.65l-.1-.25v-.1h.55l1.3-.1-.05.2-1.7.25m.1.85v-.4l1.55-.15v.4L9.25 11m-.2.9l.1-.3.9-.05-.15.35h-.85m.6.6l-.15.25-.05.1-.9.05.3-.45.8.05m-.5.8l-.3.35-.05.05h-1l.1-.05.4-.35.05-.1.8.1M6.1 14.55l.9-.3.45-.25.1.05.8.05-.65.5h-.05l-1.55-.05m-2.6.3l-.8-.45 1.05-.1.1.05.05.05 1.2.25-1.6.2m-1.2-.8l-.35-.45.8-.05.1.1.3.3-.85.1m-.05-1.15h.05l.15.3H1.7l-.2-.35.75.05m-.3-.95l.1.35H1.3l-.15-.4.8.05m-.9-.55v-.05L1 11.2l.4-.05h.1l.35-.05h.1l-.05.25-.85.05m1.15-1.3l-.05.15h-.2l-.05-.05h-.35l-.1.05H1.3l-.15.05h-.2l-.15.05-.25-.3 1.65.05m-2.25-.45V9.4l2.85-.05-.3.3H-.05M9.25 8h.1l1.3.2L9 8.25h-.65l-1.1.05H5.9l-1.15-.05h-1.5l-.2.1-.5.25 1.85.05-.9.3H1.25l1-.3.3-.15v-.05l.4-.2.35-.1.7-.2.05.05h5.2m1.45.25h.1v.05l.1.1-.2.05-2.9.35-1-.2 3.9-.35" fill="url(#u)"/><path d="M10.7 8.5l-2.65.4H8l-.2-.1 2.9-.35.2-.05v.1h-.2m.25.15v.2l-.25.1-.4.05-1.7.2 2-.35h.1l.25-.2m0 .4l-.05.15-1.95.4.65.2h-.55L9 9.75l-.15-.25 2.1-.45m-1.7 1.55l-.1-.45 1.7-.25v.1l-1.5.25 1.45.1v.1l-1.55.15" fill="#ffc903" fill-opacity=".933"/><linearGradient id="v" gradientUnits="userSpaceOnUse" gradientTransform="matrix(.005 0 0 .00027 6.65 8.35)" x1="-819.2" x2="819.2"><stop offset="0" stop-color="#f7c202"/><stop offset="1" stop-color="#f68600" stop-opacity=".851"/></linearGradient><path d="M6.8 8.6l-.5-.1-1.85.15H4.4L2.55 8.6l.5-.25L5.9 8.3h1.35l1.1-.05H9l1.65-.05h.05v.05l-3.9.35" fill="url(#v)"/><linearGradient id="w" gradientUnits="userSpaceOnUse" gradientTransform="matrix(.00177 0 0 -.00076 9.5 9.15)" x1="-819.2" x2="819.2"><stop offset="0" stop-color="#ffab03" stop-opacity=".941"/><stop offset="1" stop-color="#f58000"/></linearGradient><path d="M8.85 9.5l.15.25-.95-.85 2.65-.4h.2l.05.15-.25.2h-.1l-2 .35h-.05l.05.05.25.25" fill="url(#w)"/><path d="M10.8 10.85v.05l-1.6.2.05-.1 1.55-.15m-1.65.75l.05-.15.85.05v.05l-.9.05m-6.1-3.25l.2-.1h1.5l1.15.05-2.85.05" fill="#ffc903" fill-opacity=".824"/><linearGradient id="x" gradientUnits="userSpaceOnUse" gradientTransform="matrix(.00113 0 0 .00026 10 10.2)" x1="-819.2" x2="819.2"><stop offset="0" stop-color="#f7c202"/><stop offset="1" stop-color="#f68600" stop-opacity=".851"/></linearGradient><path d="M10.8 10.9l-.05.1q-.4.05-.7.45v.05l-.85-.05v-.35l1.6-.2m-1.95 1.55l.2-.55h.85l-.25.6-.8-.05m.6.4l-.3.45-.8-.1.2-.3.9-.05m-1.9 1.2l-.1-.05.35-.25v-.05h1l-.45.4-.8-.05" fill="url(#x)"/><linearGradient id="y" gradientUnits="userSpaceOnUse" gradientTransform="matrix(.00113 0 0 .00026 10 10.2)" x1="-819.2" x2="819.2"><stop offset="0" stop-color="#ffab03" stop-opacity=".941"/><stop offset="1" stop-color="#f58000"/></linearGradient><path d="M9.6 9.8l-.65-.2 1.95-.4v.5l-1.3.1m-.25.45l1.5-.25-.05.35-1.45-.1" fill="url(#y)"/><radialGradient id="z" gradientUnits="userSpaceOnUse" gradientTransform="matrix(.00742 0 0 .00742 4.85 8.6)" spreadMethod="pad" cx="0" cy="0" r="819.2" fx="0" fy="0"><stop offset="0" stop-color="#383038"/><stop offset="1"/></radialGradient><path d="M7.8 8.8l.2.1h.05l.95.85.05.05v.1l.1.25.1.45v.4l-.05.1v.35l-.05.15-.1.3-.2.55-.3.45-.2.3-.05.1-.4.35-.1.05v.05l-.35.25-.45.25-.9.3-1 .1-1.2-.25-.05-.05-.1-.05-.6-.35-.3-.3-.1-.1-.15-.2-.1-.05-.05-.1-.15-.3h-.05l-.2-.6-.1-.35-.05-.45v-.15l.05-.25.2-.85.05-.15v-.05l.05-.05.25-.35.3-.3.5-.3.05-.05.1-.05h.05l.9-.3h.05L6.3 8.5l.5.1 1 .2m-4.5.35q-.65.3-1.05 1.1L2 11.1v.05q0 .8.25 1.45l.4.7.1.05.25.3.25.25.2.15 3.35.15.9-.55.45-.35.8-1.45L9 10.2q-.4-1-1.25-1.3h-.1L6.3 8.65q-1.45-.1-2.95.5H3.3" fill="url(#z)"/><linearGradient id="A" gradientUnits="userSpaceOnUse" gradientTransform="matrix(.00214 0 0 .00029 1.7 9.15)" x1="-819.2" x2="819.2"><stop offset="0" stop-color="#f7c202"/><stop offset="1" stop-color="#f68600" stop-opacity=".851"/></linearGradient><path d="M-.05 9.4v-.45h3.5l-.1.05-.05.05-.5.3-2.85.05" fill="url(#A)"/><radialGradient id="B" gradientUnits="userSpaceOnUse" gradientTransform="matrix(.01093 0 0 .0071 5.4 9.25)" spreadMethod="pad" cx="0" cy="0" r="819.2" fx="0" fy="0"><stop offset="0" stop-color="#33253d" stop-opacity=".6"/><stop offset="1" stop-opacity=".851"/></radialGradient><path d="M3.35 9.15q1.5-.6 2.95-.5l1.35.25h.1q.85.3 1.25 1.3l-.05 1.65-.8 1.45-.45.35-.9.55-3.35-.15-.2-.15-.25-.25-.25-.3-.1-.05-.4-.7Q2 11.95 2 11.15v-.05l.25-.85q.4-.8 1.05-1.1h.05" fill="url(#B)"/><linearGradient id="C" gradientUnits="userSpaceOnUse" gradientTransform="matrix(-.00174 .00018 -.00002 -.0002 1.4 9.5)" x1="-819.2" x2="819.2"><stop offset="0" stop-color="#ffc60f" stop-opacity="0"/><stop offset="1" stop-color="#fcc30c" stop-opacity=".502"/></linearGradient><path d="M6.3 7.75l-1.1.05-1.15.2L4 7.95l2.3-.25h.45l1 .1-1.45-.05m2.3 1.5l-.05-.05h.05v.05" fill="url(#C)"/><linearGradient id="D" gradientUnits="userSpaceOnUse" gradientTransform="matrix(.00154 0 0 .00026 1.25 9.85)" x1="-819.2" x2="819.2"><stop offset="0" stop-color="#f7c202"/><stop offset="1" stop-color="#f68600" stop-opacity=".851"/></linearGradient><path d="M2.5 9.65l-.25.35-.05.05v.05l-1.65-.05-.1-.05-.5-.05v-.3H2.5" fill="url(#D)"/><path d="M.95 10.3h.2l.15-.05.05.2-.05.05-.05.1.1.25.1.3H1.4l-.35-.65h.1l.15-.05v-.05l-.1-.05-.1.05h-.05v.05l-.1-.15" fill="#f38401"/><path d="M1.05 10.45v-.05h.05l.1-.05.1.05v.05l-.15.05h-.1v-.05" fill="#ebc316"/><path d="M1.55 10.2h.35l-.15.3-.15.4-.1-.25-.1-.25.05-.15.1-.05" fill="#db4908"/><path d="M1.95 10.25H2l-.1.45-.05.4-.35.05-.15-.7-.05-.2h.15l-.05.15.1.25.1.25.15-.4.15-.3.05.05" fill="#cc3b04"/><path d="M1.45 11.15l-.1-.3-.1-.25.05-.1.05-.05.15.7h-.05" fill="#d26200"/><path d="M1.85 11.1l.05-.4.1-.45h.15l-.2.85h-.1" fill="#ec6a0c"/><path d="M1 11.2l-.1-.5-.1-.35.15-.05.1.15v.05l.35.65-.4.05" fill="#ca4d0a"/><linearGradient id="E" gradientUnits="userSpaceOnUse" gradientTransform="matrix(-.00056 0 0 -.00037 1.5 11.65)" x1="-819.2" x2="819.2"><stop offset="0" stop-color="#f79f02" stop-opacity=".98"/><stop offset="1" stop-color="#cd4304" stop-opacity=".851"/></linearGradient><path d="M1.9 11.35v.15l.05.45-.8-.05-.1-.5.85-.05" fill="url(#E)"/><linearGradient id="F" gradientUnits="userSpaceOnUse" gradientTransform="matrix(-.00061 0 0 -.00037 1.8 12.6)" x1="-819.2" x2="819.2"><stop offset="0" stop-color="#f79f02" stop-opacity=".98"/><stop offset="1" stop-color="#cd4304" stop-opacity=".851"/></linearGradient><path d="M1.5 12.85l-.2-.55h.75l.2.6-.75-.05" fill="url(#F)"/><linearGradient id="G" gradientUnits="userSpaceOnUse" gradientTransform="matrix(.00217 0 0 .0001 6.1 7.95)" x1="-819.2" x2="819.2"><stop offset="0" stop-color="#f7c202"/><stop offset="1" stop-color="#f68600" stop-opacity=".851"/></linearGradient><path d="M4.05 8l1.15-.2 1.1-.05 1.45.05.3.05h.1l1.1.15h-5.2" fill="url(#G)"/><linearGradient id="H" gradientUnits="userSpaceOnUse" gradientTransform="matrix(.00253 0 0 .00032 4.7 14.85)" x1="-819.2" x2="819.2"><stop offset="0" stop-color="#f8a201" stop-opacity=".6"/><stop offset="1" stop-color="#f68600" stop-opacity=".851"/></linearGradient><path d="M5.1 14.65l1-.1 1.55.05-.4.2-.45.15-2.55.15L4 15l-.5-.15 1.6-.2" fill="url(#H)"/><linearGradient id="I" gradientUnits="userSpaceOnUse" gradientTransform="matrix(-.00066 0 0 -.00026 2.25 13.4)" x1="-819.2" x2="819.2"><stop offset="0" stop-color="#f79f02" stop-opacity=".98"/><stop offset="1" stop-color="#cd4304" stop-opacity=".851"/></linearGradient><path d="M1.95 13.6H1.9l-.1-.25-.05-.05-.05-.1h.75l.05.1.1.05.15.2-.8.05" fill="url(#I)"/><linearGradient id="J" gradientUnits="userSpaceOnUse" gradientTransform="matrix(-.00087 0 0 -.00027 3.05 14.15)" x1="-819.2" x2="819.2"><stop offset="0" stop-color="#f79f02" stop-opacity=".98"/><stop offset="1" stop-color="#cd4304" stop-opacity=".851"/></linearGradient><path d="M3.15 13.95l.6.35-1.05.1-.4-.35.85-.1" fill="url(#J)"/><radialGradient id="K" gradientUnits="userSpaceOnUse" gradientTransform="translate(8.95 13.05) scale(.0119)" spreadMethod="pad" cx="0" cy="0" r="819.2" fx="0" fy="0"><stop offset="0" stop-color="#991200" stop-opacity=".682"/><stop offset="1" stop-color="#f15e01" stop-opacity="0"/></radialGradient><path d="M7.3 14.65l1.5-1.1 1-1.8.05-.25q.2-.45.95-.6l-.05.1q-.4.05-.7.45l-.1.3-.45 1v.05q-.9 1.4-2.2 2v-.15" fill="url(#K)"/><radialGradient id="L" gradientUnits="userSpaceOnUse" gradientTransform="matrix(.0086 0 0 .0086 3.85 8)" spreadMethod="pad" cx="0" cy="0" r="819.2" fx="0" fy="0"><stop offset="0" stop-color="#542400" stop-opacity=".392"/><stop offset="1" stop-color="#735943" stop-opacity="0"/></radialGradient><path d="M10.35 8.3l-4-.5h-.1q-2.2 0-3.55.7l-.05.05-1.05.5H-.05v-.1H1.1l1.45-.45q1.8-1 4.2-.75l3.9.5h.05l.2.2q-.15-.15-.55-.15" fill="url(#L)"/><radialGradient id="M" gradientUnits="userSpaceOnUse" gradientTransform="matrix(.01253 0 0 .01253 1.5 13.2)" spreadMethod="pad" cx="0" cy="0" r="819.2" fx="0" fy="0"><stop offset="0" stop-color="#780b00" stop-opacity=".843"/><stop offset="1" stop-color="#f15e01" stop-opacity="0"/></radialGradient><path d="M.85 10.25l.5.9L1 10.7l.15.75.05.3q.35 1.3 1.15 2.25v.05l1.1.7.45.15H4l.2.05.3.1H6l1.3-.4v.15l-.05.05-2.75.3-.5-.1q-1.3-.35-2.1-1.45l-.8-1.85-.2-1.05q-.05-.6-.65-.7.5.05.6.25m1.8 3.85l-.4-.35q-.55-.75-.8-1.65l.65 1.3.55.7" fill="url(#M)"/><path d="M.25 10l-.1-.05h-.2v-.1l.85.2q.5.5.85 1.7l.05.3q.25 1.45 1.45 2.45l.1.05.65.35-.45-.15-1.1-.7V14q-.8-.95-1.15-2.25l-.05-.3L1 10.7l.35.45-.5-.9q-.1-.2-.6-.25m1.85 3.4l-.65-1.3q.25.9.8 1.65l.4.35-.55-.7" fill="#d15500" fill-opacity=".6"/><radialGradient id="N" gradientUnits="userSpaceOnUse" gradientTransform="matrix(.00792 0 0 .00792 6.8 14.4)" spreadMethod="pad" cx="0" cy="0" r="819.2" fx="0" fy="0"><stop offset="0" stop-color="#fff" stop-opacity=".851"/><stop offset="1" stop-color="#fff" stop-opacity="0"/></radialGradient><path d="M1.8 11.05l.45-1.2 1.05-.8q-1.45.8-1.4 2.5l.05.2q.2 1.75 1.9 2.65h.05l3.1-.1v-.05q1.65-.85 2.1-2.5l.05-.1Q9.5 9.7 8.25 9l-.6-.2q.85.2 1.1.45.55.6.6 1.45v.05l-.1 1-.35.9-.8.95q-.7.7-1.6.95l-1.85.15-1.2-.45-1.25-1.2-.35-1.3-.05-.7" fill="url(#N)"/></g></svg>