<svg xmlns="http://www.w3.org/2000/svg" width="45" height="60"><path d="M5.05 44.45l-.8-2.6L2.4 35.1l-.15-.7-.85-3.95Q.55 26.6.05 23.25L0 22.7Q.15 12.25 6.85 6.2q5.1-4.7 12.4-5.55l1.05-.1L23 0q9.65-.05 15.6 6.45 5.2 5.65 5.75 14.3l.05 1.8v.05l-.3 2.05-.5 3.45q-.7 7.1-1.55 11.65l-.15.55-.2.65-.3.95-.5 1.55-.4 1-.4 1.15q-5.65 9-15.25 13.45l-1.95.25-2-.1-1.1-.3Q9.4 52.9 5.7 46l-.65-1.55" fill="#ffecd9"/><path d="M5.05 44.45l-.8-2.6L2.4 35.1l-.15-.7-.85-3.95Q.55 26.6.05 23.25L0 22.7Q.15 12.25 6.85 6.2q5.1-4.7 12.4-5.55l1.05-.1L23 0q9.65-.05 15.6 6.45 5.2 5.65 5.75 14.3l.05 1.8v.05l-.3 2.05-.5 3.45q-.7 7.1-1.55 11.65l-.15.55-.2.65-.3.95-.5 1.55-.4 1-.4 1.15M24.85 59.05l-1.95.25-2-.1M40.1 45.6q-5.65 9-15.25 13.45m-3.95.15l-1.1-.3Q9.4 52.9 5.7 46l-.65-1.55" fill="none" stroke-width=".05" stroke-linecap="round" stroke-linejoin="round" stroke-miterlimit="3" stroke="#f60"/></svg>