<svg xmlns="http://www.w3.org/2000/svg" width="41" height="60"><path d="M40.9 33.35q-.45 5.55-1.55 9.7l-.1.3q-1.1 3.05-2.8 6.05-1.95 2.95-4.3 5.1-4.3 3.5-9 4.45l-2.65.15h-.05l-.9-.05-1.4-.05q-3.5-.8-5.9-2.3-3.1-1.9-6.9-6.05L5 50.1q-1.2-1.8-1.95-3.7Q1.15 42.15 0 33.45V20.6Q0 12.05 5.95 6q6-6.05 14.5-6h.05q8.4-.05 14.4 6t6 14.6v12.75" fill="#ffecd9"/><path d="M40.9 32.6v-12q0-8.55-6-14.6-6-6.05-14.4-6h-.05q-8.5-.05-14.5 6Q0 12.05 0 20.6v12.85m19.55 25.6l.9.05h.05l2.65-.15" fill="none" stroke-width=".05" stroke-linecap="round" stroke-linejoin="round" stroke-miterlimit="3" stroke="#f60"/><path d="M0 33.45q1.15 8.7 3.05 12.95.75 1.9 1.95 3.7l.35.55q3.8 4.15 6.9 6.05 2.4 1.5 5.9 2.3l1.4.05m3.6-.1q4.7-.95 9-4.45 2.35-2.15 4.3-5.1 1.7-3 2.8-6.05l.1-.3q1.1-4.15 1.55-9.7v-.75" fill="none" stroke-width=".05" stroke-linecap="round" stroke-linejoin="round" stroke-miterlimit="3" stroke="#f60"/></svg>