<svg xmlns="http://www.w3.org/2000/svg" width="44" height="60"><g transform="translate(-69.25 -12.4)"><path d="M70.35 41.65l-.15-.15-.85-9.95q-.45-6.35 1.55-7.6l2.45-2.1Q91.3 2.7 108.6 22.4l.2.2.15-.1 2.9 4q1 1.7 1.1 5.4.1 3.7-2.5 20.65-1.2 9.65-7.35 13.05l-8.6 4.75q-2.5 1.35-3.65 1.3l-1.25-.4-2.75-1.4-6.6-3.9q-5.05-3.15-6.5-7.5-1.45-4.35-2.45-8.4l-.25-1.25-.8-7.1.1-.05m31.7 22.7l.2.1.9-.85-.15-.15-.95.9m-20.15.85l-.4-.4-.45-.4H81l.5.45.4.35m6.7 4.7l.15.05-.15-.05M75.15 55.6l-.5.35q.25-.15.55-.25l-.05-.1" fill="#ffecd9"/><radialGradient id="a" gradientUnits="userSpaceOnUse" gradientTransform="matrix(.0111 0 0 .0111 107.55 56.25)" spreadMethod="pad" cx="0" cy="0" r="819.2" fx="0" fy="0"><stop offset="0" stop-color="#febcbc"/><stop offset="1" stop-color="#ffeddb"/></radialGradient><path d="M103 63.45l.15.15-.9.85-.2-.1.95-.9" fill="url(#a)"/><path d="M81.5 64.85l-.5-.45h.05l.45.4.4.4-.4-.35" fill="#ffeddb"/><radialGradient id="b" gradientUnits="userSpaceOnUse" gradientTransform="matrix(.04414 0 0 .04414 87.95 31.6)" spreadMethod="pad" cx="0" cy="0" r="819.2" fx="0" fy="0"><stop offset=".02" stop-color="#f0c4b0"/><stop offset="1" stop-color="#ffeddb"/></radialGradient><path d="M70.25 41.7l-.1.05-.2-.55.25.3.15.15-.1.05" fill="url(#b)"/><path d="M75.2 55.7q-.3.1-.55.25l.5-.35.05.1" fill="#fed8b4"/><path d="M110.45 52.55q-1.2 9.65-7.35 13.05l-8.6 4.75q-2.5 1.35-3.65 1.3l-1.25-.4-2.75-1.4-6.6-3.9q-5.05-3.15-6.5-7.5-1.45-4.35-2.45-8.4l-.25-1.25" fill="none" stroke-width=".25" stroke-linecap="round" stroke-linejoin="round" stroke-miterlimit="3" stroke="#fd9e66"/><radialGradient id="c" gradientUnits="userSpaceOnUse" gradientTransform="matrix(.01015 -.0001 .0001 .01015 102 43.25)" spreadMethod="pad" cx="0" cy="0" r="819.2" fx="0" fy="0"><stop offset=".02" stop-color="#efbda9"/><stop offset="1" stop-color="#ffeddb" stop-opacity="0"/></radialGradient><path d="M106.9 39.15l1.05.65q2.2 1.8 2.25 4.25 0 1.2-.55 2.25l-1.6 1.95-.8.6q-1.95 1.15-4.55 1.2h-.35l-1-.05 2.6-.5-.1-.55.05-.3q2.25-6.1 3-9.5" fill="url(#c)"/><radialGradient id="d" gradientUnits="userSpaceOnUse" gradientTransform="matrix(.00964 -.0001 .0001 .00964 101.15 43.6)" spreadMethod="pad" cx="0" cy="0" r="819.2" fx="0" fy="0"><stop offset=".02" stop-color="#efbda9"/><stop offset="1" stop-color="#ffeddb" stop-opacity="0"/></radialGradient><path d="M103.9 48.65l-.05.3.1.55-2.6.5-5.1.9-1.45-1.4-.45-5.3h.25l.15-1.85 1.8-4 1-.45-.95.35.35-.85 2.9-.8.05.25.8-.4-.3.05 2.45-.75.4.5 4-.3q.1 1.05-.35 3.2-.75 3.4-3 9.5" fill="url(#d)"/><radialGradient id="e" gradientUnits="userSpaceOnUse" gradientTransform="matrix(.0111 0 0 .0111 107.55 56.25)" spreadMethod="pad" cx="0" cy="0" r="819.2" fx="0" fy="0"><stop offset="0" stop-color="#febcbc"/><stop offset="1" stop-color="#ffeddb"/></radialGradient><path d="M102.25 64.45l-.2-.1.95-.9.15.15-.9.85" fill="url(#e)"/></g></svg>