<svg xmlns="http://www.w3.org/2000/svg" width="43" height="59"><g transform="translate(-70 -12.55)"><path d="M74.1 20.25l-.1-.2.3-.3.4-.4q2.55-2.95 7-4.75 4.55-2.05 9.45-2.05 5.65 0 11.25 3.35 3.75 2.35 5.8 5.3l1.2 1.9.3.95q.95 2.2 1.55 5.45 1 4.8 1.1 8.35-.1 7.3-1.7 13.7l-1.95 4.65-1.5 3.15-3.25 4.4q-4.9 5.15-10.4 7.4l-2.7.4-1.05-.1-3.25-1.2q-2.85-1.15-7.9-6.2L75.6 60.2q-2.05-3.8-3.65-8.45v-.2Q70 44.75 70 36.9q0-3.55 1.15-8.3 1-5.4 2.7-8l.25-.35" fill="#ffecd9"/><path d="M108.2 21.2l1.2 1.9m.3.95q.95 2.2 1.55 5.45 1 4.8 1.1 8.35-.1 7.3-1.7 13.7" fill="none" stroke-width=".05" stroke-linecap="round" stroke-linejoin="round" stroke-miterlimit="3" stroke="#f60"/><path d="M110.65 51.55l-1.95 4.65-1.5 3.15-3.25 4.4q-4.9 5.15-10.4 7.4l-2.7.4-1.05-.1-3.25-1.2q-2.85-1.15-7.9-6.2L75.6 60.2q-2.05-3.8-3.65-8.45v-.2Q70 44.75 70 36.9q0-3.55 1.15-8.3 1-5.4 2.7-8-.1-.35.15-.55l.3-.3.4-.4q2.55-2.95 7-4.75 4.55-2.05 9.45-2.05 5.65 0 11.25 3.35 3.75 2.35 5.8 5.3m1.2 1.9l.3.95m-35.6-3.8l-.25.35" fill="none" stroke-width=".05" stroke-linecap="round" stroke-linejoin="round" stroke-miterlimit="3" stroke="#f60"/><radialGradient id="a" gradientUnits="userSpaceOnUse" gradientTransform="matrix(.0024 -.00002 .00003 .00208 101.95 60.8)" spreadMethod="pad" cx="0" cy="0" r="819.2" fx="0" fy="0"><stop offset=".047" stop-color="#c52929" stop-opacity=".2"/><stop offset="1" stop-color="#ffefea" stop-opacity="0"/></radialGradient><path d="M103.15 58.85q1.35 0 1.35 2.1 0 1.95-2.45 1.95-1.2 0-1.25-.8V62q0-.5.65-.75l.1-.05.55-.75.05-.25.05-.4q.05-.4.25-.6.25-.35.7-.35m-2.4.7l-.1.45-.5.55q.05-.5.5-.85l.1-.15" fill="url(#a)"/><radialGradient id="b" gradientUnits="userSpaceOnUse" gradientTransform="matrix(.0024 -.00002 .00003 .00208 80.15 61)" spreadMethod="pad" cx="0" cy="0" r="819.2" fx="0" fy="0"><stop offset=".047" stop-color="#c52929" stop-opacity=".2"/><stop offset="1" stop-color="#ffefea" stop-opacity="0"/></radialGradient><path d="M81.45 62.15l-.05-.05.1.05h-.05m.05-2.35q.5.45.55 1.05l-.25-.3-.45-.85.15.1" fill="url(#b)"/><radialGradient id="c" gradientUnits="userSpaceOnUse" gradientTransform="matrix(.0024 -.00002 .00003 .00208 80.15 61)" spreadMethod="pad" cx="0" cy="0" r="819.2" fx="0" fy="0"><stop offset=".102" stop-color="#c52929" stop-opacity=".302"/><stop offset="1" stop-color="#ffefea" stop-opacity="0"/></radialGradient><path d="M81.45 62.15l.05.4q0 1.1-1.3 1.1-.9 0-1.6-.65-.8-.8-.8-1.9 0-2.35 1.6-2.35.9 0 .9 1.25l-.1.3q.1.7.65 1l.05.1.5.7.05.05" fill="url(#c)"/></g></svg>