<svg xmlns="http://www.w3.org/2000/svg" width="48" height="56"><g transform="translate(-66.65 -15.1)"><radialGradient id="a" gradientUnits="userSpaceOnUse" gradientTransform="matrix(.0112 0 0 .00783 103.35 53.4)" spreadMethod="pad" cx="0" cy="0" r="819.2" fx="0" fy="0"><stop offset="0" stop-color="#febcbc" stop-opacity=".6"/><stop offset="1" stop-color="#ffeddb" stop-opacity="0"/></radialGradient><path d="M103.15 45.45q3.75 0 6.45 2.65 2.65 2.65 2.65 6.45 0 3.75-2.65 6.4-2.7 2.65-6.45 2.65t-6.4-2.65q-2.7-2.65-2.65-6.4-.05-3.8 2.65-6.45 2.65-2.65 6.4-2.65" fill="url(#a)"/><radialGradient id="b" gradientUnits="userSpaceOnUse" gradientTransform="matrix(.0112 0 0 .00783 77.1 53.75)" spreadMethod="pad" cx="0" cy="0" r="819.2" fx="0" fy="0"><stop offset="0" stop-color="#febcbc" stop-opacity=".6"/><stop offset="1" stop-color="#ffeddb" stop-opacity="0"/></radialGradient><path d="M83.3 61.3q-2.7 2.65-6.4 2.65-3.8 0-6.45-2.65-2.65-2.65-2.65-6.4 0-3.8 2.65-6.45 2.65-2.65 6.45-2.65 3.7 0 6.4 2.65 2.65 2.65 2.65 6.45 0 3.75-2.65 6.4" fill="url(#b)"/><radialGradient id="c" gradientUnits="userSpaceOnUse" gradientTransform="matrix(.00175 0 0 .00175 106.3 50.25)" spreadMethod="pad" cx="0" cy="0" r="819.2" fx="0" fy="0"><stop offset="0" stop-color="#fff" stop-opacity=".373"/><stop offset="1" stop-color="#fff" stop-opacity="0"/></radialGradient><path d="M106.3 48.85l.95.5.45.9-.45.9q-.5.45-.95.45-.45 0-.95-.45-.45-.45-.4-.9-.05-.45.4-.9.5-.5.95-.5" fill="url(#c)"/><radialGradient id="d" gradientUnits="userSpaceOnUse" gradientTransform="matrix(.0019 0 0 .0019 75.25 51.1)" spreadMethod="pad" cx="0" cy="0" r="819.2" fx="0" fy="0"><stop offset="0" stop-color="#fff" stop-opacity=".373"/><stop offset="1" stop-color="#fff" stop-opacity="0"/></radialGradient><path d="M75.25 49.6q.55 0 1.05.55.5.45.5.95l-.5 1.05-1.05.45-1-.45q-.5-.55-.5-1.05t.5-.95q.5-.55 1-.55" fill="url(#d)"/><path d="M111.7 57.15l-1.45 3.6q-1.2 2.9-2.9 4.05l-3.4 1.85-2.3.95-2.95 1.35q-2.85 1.25-6.2 1.55-3.45.25-9.55-2.5-6.15-2.75-7.4-3.55-2-1.25-2.45-2.35-1.35-3.05-1.2-3.5-2.25-6.65-3.05-13.2-1.45-11.9 5-21.55 1.4-2.4 3.5-4.15l2.2-1.55.8-.45q4.4-2.45 10.35-2.6h.35q8.1-.25 13.45 3.9l1.75 1.5q6.35 5.45 7.3 10.25.85 4.8.9 10.4.05 5.55-.6 8.75-.7 3.2-1.95 6.75h-.1l-.1.5" fill="#ffecd9"/><path d="M80.35 17.7q4.4-2.45 10.35-2.6h.35q8.1-.25 13.45 3.9l1.75 1.5m-32.4 3.35q1.4-2.4 3.5-4.15l2.2-1.55" fill="none" stroke-width=".05" stroke-linecap="round" stroke-linejoin="round" stroke-miterlimit="3" stroke="#fd9e66"/><path d="M106.25 20.5q6.35 5.45 7.3 10.25.85 4.8.9 10.4.05 5.55-.6 8.75-.7 3.2-1.95 6.75l-.2.5-1.45 3.6q-1.2 2.9-2.9 4.05l-3.4 1.85-2.3.95-2.95 1.35q-2.85 1.25-6.2 1.55-3.45.25-9.55-2.5-6.15-2.75-7.4-3.55-2-1.25-2.45-2.35-1.35-3.05-1.2-3.5-2.25-6.65-3.05-13.2-1.45-11.9 5-21.55m5.7-5.7l.8-.45m31.35 39.45l.1-.5m-32.25-38.5q-3.4 2.75-5.7 5.7" fill="none" stroke-width=".25" stroke-linecap="round" stroke-linejoin="round" stroke-miterlimit="3" stroke="#fd9e66"/><radialGradient id="e" gradientUnits="userSpaceOnUse" gradientTransform="matrix(.0014 .00221 -.00185 .00307 103.35 62.05)" spreadMethod="pad" cx="0" cy="0" r="819.2" fx="0" fy="0"><stop offset=".047" stop-color="#f1c9b8" stop-opacity=".58"/><stop offset="1" stop-color="#feeade" stop-opacity="0"/></radialGradient><path d="M105.15 61.45v.1l-.05.5-.55.1q-1.05.2-1.05.85l.3 1.6-.65.35-.9-.2.5-1.75.1-.2q.3-.8 1.05-1.65l1.15-1.05.1 1.35" fill="url(#e)"/><radialGradient id="f" gradientUnits="userSpaceOnUse" gradientTransform="matrix(-.0014 .00221 .00185 .00307 80.65 61.75)" spreadMethod="pad" cx="0" cy="0" r="819.2" fx="0" fy="0"><stop offset=".047" stop-color="#f1c9b8" stop-opacity=".58"/><stop offset="1" stop-color="#feeade" stop-opacity="0"/></radialGradient><path d="M78.85 61.15v.1l.05.5.55.1q1.05.2 1.05.85l-.3 1.6.65.35.9-.2-.5-1.75-.1-.2q-.3-.8-1.05-1.65-.5-.6-1.15-1.05l-.1 1.35" fill="url(#f)"/><radialGradient id="g" gradientUnits="userSpaceOnUse" gradientTransform="matrix(.0119 -.0003 .00021 .00832 104.45 51.35)" spreadMethod="pad" cx="0" cy="0" r="819.2" fx="0" fy="0"><stop offset="0" stop-color="#febcbc" stop-opacity=".6"/><stop offset="1" stop-color="#ffeddb" stop-opacity="0"/></radialGradient><path d="M103.95 42.9q4-.1 6.95 2.65 2.85 2.75 2.95 6.8.15 3.95-2.65 6.85-2.7 2.9-6.7 3-4 .1-6.9-2.65-2.9-2.75-3.05-6.75-.1-4 2.7-6.9 2.7-2.9 6.7-3" fill="url(#g)"/><radialGradient id="h" gradientUnits="userSpaceOnUse" gradientTransform="matrix(.0119 -.0003 .00021 .00832 76.5 52.45)" spreadMethod="pad" cx="0" cy="0" r="819.2" fx="0" fy="0"><stop offset="0" stop-color="#febcbc" stop-opacity=".6"/><stop offset="1" stop-color="#ffeddb" stop-opacity="0"/></radialGradient><path d="M83.3 60.25q-2.75 2.95-6.75 3.05-4 .1-6.9-2.7-2.9-2.7-3-6.7-.15-4 2.65-6.9 2.75-2.9 6.75-3 3.95-.1 6.9 2.65 2.85 2.75 3 6.75.1 4-2.65 6.85" fill="url(#h)"/><radialGradient id="i" gradientUnits="userSpaceOnUse" gradientTransform="translate(108.6 48.7) scale(.00186)" spreadMethod="pad" cx="0" cy="0" r="819.2" fx="0" fy="0"><stop offset="0" stop-color="#fff" stop-opacity=".373"/><stop offset="1" stop-color="#fff" stop-opacity="0"/></radialGradient><path d="M107.55 47.8q.5-.55 1-.55t1 .5q.55.4.55.9t-.5 1.05q-.45.45-.95.45-.5 0-1.05-.4-.45-.5-.45-1t.4-.95" fill="url(#i)"/><radialGradient id="j" gradientUnits="userSpaceOnUse" gradientTransform="rotate(-1.37 2281.612 -3325.866) scale(.00203)" spreadMethod="pad" cx="0" cy="0" r="819.2" fx="0" fy="0"><stop offset="0" stop-color="#fff" stop-opacity=".373"/><stop offset="1" stop-color="#fff" stop-opacity="0"/></radialGradient><path d="M75.6 48.9q.5 0 1.1.5.55.5.5 1.05.1.5-.45 1.05l-1.05.55q-.55.05-1.1-.5-.55-.5-.55-1-.05-.55.5-1.1.5-.55 1.05-.55" fill="url(#j)"/></g></svg>