<svg xmlns="http://www.w3.org/2000/svg" width="43" height="60"><g transform="translate(-69.8 -12.3)"><path d="M73.7 21.45q17.8-18.55 34.9.95l.2.2.15-.1 2.1 2.8q1.4 4.4 1.45 11.1v.65l-.05 2.85v.25l.05.6V40.9h-.05l.05.4v.25l.05-.3.05 5-.4 2.55-1.45 4-1.95 5.05-1.7 4.2-1.4 2.3-1.25 1.2h-.05l-.6.35.05.05-.05.05-.3.25-.85.6-1.45.75-4.4 2.5q-3.25 1.8-5.3 2-2.05.2-5.5-1.7l-5.45-3.15-.8-.5-.4-.25-.3-.2-.3-.25-.6-.4-1.3-1.25-.85-1.35-1.7-4.2-2.8-6.75q-1.4-3.3-1.5-5.8-.15-2.55 0-5v-.7l.05.1.05-.75-.05-2.85q0-9.4 2.6-14.45l.7-.8.35-.4m29.45 42.15l-.15-.15-.95.9.2.1.9-.85M81.9 65.2l-.4-.4-.45-.4H81l.5.45.4.35m3.45 2.85l.05.05v-.05h-.05M90 70.6l-.1-.05h-.15l.25.05M70.05 40.95v.2l.05-.05V41.7l.05.05.05-.05.15-.05-.2-.2-.05-.6v-.65l-.05.75M75.2 55.7l-.05-.1-.5.35q.25-.15.55-.25" fill="#ffecd9"/><path d="M112.35 52.1h.05l-.5.35.2-.15.7-.75-.45.55" fill="#f7d2bb"/><radialGradient id="a" gradientUnits="userSpaceOnUse" gradientTransform="matrix(.0111 0 0 .0111 107.55 56.25)" spreadMethod="pad" cx="0" cy="0" r="819.2" fx="0" fy="0"><stop offset="0" stop-color="#febcbc"/><stop offset="1" stop-color="#ffeddb"/></radialGradient><path d="M102.25 64.45l-.2-.1.95-.9.15.15-.9.85" fill="url(#a)"/><path d="M81.5 64.85l-.5-.45h.05l.45.4.4.4-.4-.35" fill="#ffeddb"/><radialGradient id="b" gradientUnits="userSpaceOnUse" gradientTransform="matrix(.04414 0 0 .04414 87.95 31.6)" spreadMethod="pad" cx="0" cy="0" r="819.2" fx="0" fy="0"><stop offset=".02" stop-color="#f0c4b0"/><stop offset="1" stop-color="#ffeddb"/></radialGradient><path d="M70.15 41.45l.2.2-.15.05-.05.05-.05-.05v-.3l.05.05" fill="url(#b)"/><path d="M74.65 55.95l.5-.35.05.1q-.3.1-.55.25" fill="#fed8b4"/><path d="M108.95 22.5l-.35-.1.2.2m.15-.1l2.1 2.8q1.4 4.4 1.45 11.1v.65l-.05 2.85.05.85.05-.1-.05.15v.1l.05.25v.1l.05 5-.4 2.55-1.45 4-1.95 5.05-1.7 4.2-1.4 2.3-1.25 1.2-.05.05-.55.35-.05.05-.3.25-.85.6-1.45.75-4.4 2.5q-3.25 1.8-5.3 2-2.05.2-5.5-1.7l-5.45-3.15-.8-.5-.4-.25-.3-.2-.3-.25-.6-.4-1.3-1.25-.85-1.35-1.7-4.2-2.8-6.75q-1.4-3.3-1.5-5.8-.15-2.55 0-5v-.7l.05.1.05-.75-.05-2.85q0-9.4 2.6-14.45l.7-.8.35-.4q17.8-18.55 34.9.95m3.85 17.5v.25l.05.6v.05m0 .1v.25V41l.05.15m-.05-.1l-.05-.15.05.4v.25l.05-.3m-.05.05v-.15" fill="none" stroke-width=".25" stroke-linecap="round" stroke-linejoin="round" stroke-miterlimit="3" stroke="#fd9e66"/><path d="M72.65 22.65q.35-.8 1.05-1.2M70.05 41l.05.1-.05.05m0 .05v.15m.05-.25v-.25" fill="none" stroke-width=".05" stroke-linecap="round" stroke-linejoin="round" stroke-miterlimit="3" stroke="red"/><path d="M70.1 39.95v.25l-.05.75m0 .2v.05-.5m0 .65v.25-.4m0-.05v-.1" fill="none" stroke-width=".05" stroke-linecap="round" stroke-linejoin="round" stroke-miterlimit="3" stroke="#fd9e66"/><radialGradient id="c" gradientUnits="userSpaceOnUse" gradientTransform="matrix(.01015 -.0001 .0001 .01015 102 43.25)" spreadMethod="pad" cx="0" cy="0" r="819.2" fx="0" fy="0"><stop offset=".02" stop-color="#efbda9"/><stop offset="1" stop-color="#ffeddb" stop-opacity="0"/></radialGradient><path d="M106.9 39.15l1.05.65q2.2 1.8 2.25 4.25 0 1.2-.55 2.25l-1.6 1.95-.8.6q-1.95 1.15-4.55 1.2h-.35l-1-.05 2.6-.5-.1-.55.05-.3q2.25-6.1 3-9.5" fill="url(#c)"/><radialGradient id="d" gradientUnits="userSpaceOnUse" gradientTransform="matrix(.00964 -.0001 .0001 .00964 101.15 43.6)" spreadMethod="pad" cx="0" cy="0" r="819.2" fx="0" fy="0"><stop offset=".02" stop-color="#efbda9"/><stop offset="1" stop-color="#ffeddb" stop-opacity="0"/></radialGradient><path d="M103.9 48.65l-.05.3.1.55-2.6.5-5.1.9-1.45-1.4-.45-5.3h.25l.15-1.85 1.8-4 1-.45-.95.35.35-.85 2.9-.8.05.25.8-.4-.3.05 2.45-.75.4.5 4-.3q.1 1.05-.35 3.2-.75 3.4-3 9.5" fill="url(#d)"/></g></svg>