<svg xmlns="http://www.w3.org/2000/svg" width="42" height="59"><path d="M3.75 7.35l.4-.35.35-.3q2.55-2.95 6.85-4.75Q15.85 0 20.6 0q5.5 0 10.95 3.3 3.7 2.3 5.75 5.15l1.1 1.9.35.85q.85 2.15 1.5 5.35 1 4.7 1 8.15 0 7.7-1.9 14.45-1.4 6.3-4.85 11.3-5.75 8.3-13.8 8.3-8.1 0-13.85-8.3Q3.3 45.2 1.9 38.65v-.35Q0 31.5 0 23.85q0-3.5 1-8.2 1.05-5.25 2.75-7.8l.2-.35-.2-.15" fill="#ffecd9"/><path d="M38.75 11.2q.85 2.15 1.5 5.35 1 4.7 1 8.15 0 7.7-1.9 14.45-1.4 6.3-4.85 11.3-5.75 8.3-13.8 8.3-8.1 0-13.85-8.3Q3.3 45.2 1.9 38.65m35.4-30.2l1.1 1.9M38.4 10.35l.35.85M1.9 38.65v-.35Q0 31.5 0 23.85q0-3.5 1-8.2 1.05-5.25 2.75-7.8v-.5l.4-.35.35-.3q2.55-2.95 6.85-4.75Q15.85 0 20.6 0q5.5 0 10.95 3.3 3.7 2.3 5.75 5.15M3.95 7.5l-.2.35" fill="none" stroke-width=".05" stroke-linecap="round" stroke-linejoin="round" stroke-miterlimit="3" stroke="#f60"/></svg>