<svg xmlns="http://www.w3.org/2000/svg" width="46" height="60"><g transform="translate(-68.05 -12.05)"><path d="M111.8 45.4l-.3 2.9q-.85 5.05-3.7 10.85l-2.85 4-.15.25-.3.35q-5.1 5.3-9.3 6.95l-.3.1-.8.15-2.75.15h-.9l-1.4-.1-1.15-.25-1.3-.7-1.4-.8-1.2-.85-1.2-.95-4.65-4.65q-1.85-2.2-4.05-6.2l-.9-2.05-1.3-3.45-.4-1.8-.6-3.8V32.65q0-8.55 5.95-14.6 6-6.05 14.45-6h.05q8.45-.05 14.45 6t6 14.6V45.4" fill="#ffecd9"/><path d="M111.8 44.65v-12q0-8.55-6-14.6-6-6.05-14.45-6h-.05q-8.45-.05-14.45 6-5.95 6.05-5.95 14.6V45.5m.6 3.8l.4 1.8 1.3 3.45.9 2.05q2.2 4 4.05 6.2l4.65 4.65 1.2.95 1.2.85 1.4.8 1.3.7m2.55.35h.9l2.75-.15.8-.15.3-.1q4.2-1.65 9.3-6.95l.3-.35.15-.25 2.85-4q2.85-5.8 3.7-10.85" fill="none" stroke-width=".05" stroke-linecap="round" stroke-linejoin="round" stroke-miterlimit="3" stroke="#f60"/><path d="M70.9 45.5l.6 3.8m16.4 21.45l1.15.25 1.4.1m21.05-22.8l.3-2.9v-.75" fill="none" stroke-width=".05" stroke-linecap="round" stroke-linejoin="round" stroke-miterlimit="3" stroke="#f60"/><radialGradient id="a" gradientUnits="userSpaceOnUse" gradientTransform="matrix(.01106 0 0 .00774 104.55 51)" spreadMethod="pad" cx="0" cy="0" r="819.2" fx="0" fy="0"><stop offset="0" stop-color="#febcbc" stop-opacity=".6"/><stop offset="1" stop-color="#ffeddb" stop-opacity="0"/></radialGradient><path d="M110.7 45.8q2.6 2.65 2.65 6.35-.05 3.7-2.65 6.35-2.65 2.6-6.35 2.6-3.7 0-6.3-2.6-2.65-2.65-2.65-6.35 0-3.7 2.65-6.35 2.6-2.6 6.3-2.6 3.7 0 6.35 2.6" fill="url(#a)"/><radialGradient id="b" gradientUnits="userSpaceOnUse" gradientTransform="matrix(.01106 0 0 .00774 77.2 51.35)" spreadMethod="pad" cx="0" cy="0" r="819.2" fx="0" fy="0"><stop offset="0" stop-color="#febcbc" stop-opacity=".6"/><stop offset="1" stop-color="#ffeddb" stop-opacity="0"/></radialGradient><path d="M83.35 46.15q2.6 2.6 2.65 6.35-.05 3.7-2.65 6.35-2.65 2.6-6.35 2.6-3.7 0-6.3-2.6-2.65-2.65-2.65-6.35 0-3.75 2.65-6.35 2.6-2.6 6.3-2.6 3.7 0 6.35 2.6" fill="url(#b)"/><radialGradient id="c" gradientUnits="userSpaceOnUse" gradientTransform="matrix(.00188 0 0 .00188 75.95 48.8)" spreadMethod="pad" cx="0" cy="0" r="819.2" fx="0" fy="0"><stop offset="0" stop-color="#fff" stop-opacity=".373"/><stop offset="1" stop-color="#fff" stop-opacity="0"/></radialGradient><path d="M74.95 47.85l1-.55q.5.05 1 .55.5.45.5.95 0 .5-.5 1t-1 .5q-.5 0-1-.5t-.5-1q0-.5.5-.95" fill="url(#c)"/><radialGradient id="d" gradientUnits="userSpaceOnUse" gradientTransform="matrix(.00174 0 0 .00174 106.6 47.95)" spreadMethod="pad" cx="0" cy="0" r="819.2" fx="0" fy="0"><stop offset="0" stop-color="#fff" stop-opacity=".373"/><stop offset="1" stop-color="#fff" stop-opacity="0"/></radialGradient><path d="M106.6 49.3q-.5 0-.95-.45-.45-.45-.45-.9t.45-.9q.45-.45.95-.5.45.05.9.5l.45.9-.45.9q-.45.45-.9.45" fill="url(#d)"/><radialGradient id="e" gradientUnits="userSpaceOnUse" gradientTransform="matrix(.0033 -.00003 .00005 .00287 103.15 60.65)" spreadMethod="pad" cx="0" cy="0" r="819.2" fx="0" fy="0"><stop offset=".047" stop-color="#c52929" stop-opacity=".2"/><stop offset="1" stop-color="#ffefea" stop-opacity="0"/></radialGradient><path d="M101.5 58.9l-.2.65-.7.7q.1-.65.7-1.2l.2-.15m3.3-1q1.85 0 1.85 2.9 0 2.75-3.35 2.75-1.65 0-1.75-1.15V62.25q0-.7.85-1h.05l.1-.05q.65-.4.8-1.05l.05-.4.05-.55.4-.8q.3-.5.95-.5" fill="url(#e)"/><radialGradient id="f" gradientUnits="userSpaceOnUse" gradientTransform="matrix(.0033 -.00003 .00005 .00287 80.1 61.15)" spreadMethod="pad" cx="0" cy="0" r="819.2" fx="0" fy="0"><stop offset=".047" stop-color="#c52929" stop-opacity=".2"/><stop offset="1" stop-color="#ffefea" stop-opacity="0"/></radialGradient><path d="M81.75 59.4l.2.15q.65.6.75 1.45l-.35-.45-.6-1.15m.15 3.4l-.05-.1.1.1h-.05" fill="url(#f)"/><radialGradient id="g" gradientUnits="userSpaceOnUse" gradientTransform="matrix(.0033 -.00003 .00005 .00287 80.1 61.15)" spreadMethod="pad" cx="0" cy="0" r="819.2" fx="0" fy="0"><stop offset=".102" stop-color="#c52929" stop-opacity=".302"/><stop offset="1" stop-color="#ffefea" stop-opacity="0"/></radialGradient><path d="M81.9 62.8l.05.55q0 1.5-1.75 1.5-1.25 0-2.25-.9-1.1-1.1-1.1-2.6 0-3.25 2.2-3.25 1.25 0 1.25 1.7l-.1.45q.1.95.85 1.4l.1.05.7 1 .05.1" fill="url(#g)"/></g></svg>