<svg xmlns="http://www.w3.org/2000/svg" width="44" height="59"><g transform="translate(-68.65 -12.45)"><path d="M82.3 67.6l-3.6-2.8q-1.95-1.9-3.4-4.5l-.05-.2-.7-1.55q-1.15-2.6-1.7-4.8l-1.8-6.65-.15-.7-.9-3.9q-.85-3.75-1.3-7.1l-.05-.5q.15-10.35 6.75-16.35 5.05-4.6 12.3-5.45l1-.1 2.65-.55q9.55 0 15.4 6.35 5.15 5.6 5.65 14.1l.05 1.8v.1l-.25 2-.5 3.35q-.7 7.05-1.55 11.55l-.15.5-.15.65-.35.95-.85 2.55q-1.95 5.2-5.15 8.45-2.3 2.3-6.65 4.5l-1.3.7-.15.05-4.15.95q-2 0-4.05-.8l-.8-.35-1.05-.55-2.15-1.15-.25-.2-.5-.25-.15-.1" fill="#ffecd9"/><path d="M82.3 67.6l-3.6-2.8q-1.95-1.9-3.4-4.5l-.05-.2-.7-1.55q-1.15-2.6-1.7-4.8l-1.8-6.65-.15-.7-.9-3.9q-.85-3.75-1.3-7.1l-.05-.5q.15-10.35 6.75-16.35 5.05-4.6 12.3-5.45l1-.1 2.65-.55q9.55 0 15.4 6.35 5.15 5.6 5.65 14.1l.05 1.8v.1l-.25 2-.5 3.35q-.7 7.05-1.55 11.55l-.15.5-.15.65-.35.95-.85 2.55q-1.95 5.2-5.15 8.45-2.3 2.3-6.65 4.5l-1.3.7-.15.05-4.15.95q-2 0-4.05-.8l-.8-.35-1.05-.55-2.15-1.15" fill="none" stroke-width=".05" stroke-linecap="round" stroke-linejoin="round" stroke-miterlimit="3" stroke="#f60"/><path d="M83.2 68.15l-.25-.2-.5-.25-.15-.1" fill="none" stroke-width=".05" stroke-linecap="round" stroke-linejoin="round" stroke-miterlimit="3" stroke="#f60"/><radialGradient id="a" gradientUnits="userSpaceOnUse" gradientTransform="matrix(.00238 -.00002 .00003 .00206 102 61)" spreadMethod="pad" cx="0" cy="0" r="819.2" fx="0" fy="0"><stop offset=".047" stop-color="#c52929" stop-opacity=".2"/><stop offset="1" stop-color="#ffefea" stop-opacity="0"/></radialGradient><path d="M100.8 59.7l-.15.5-.5.5q.05-.5.5-.85l.15-.15m2.35-.65q1.35 0 1.35 2.05 0 1.95-2.4 1.95-1.2 0-1.3-.8v-.1q0-.5.65-.75h.1q.45-.3.55-.8l.05-.25.05-.4q.05-.35.25-.6.25-.3.7-.3" fill="url(#a)"/><radialGradient id="b" gradientUnits="userSpaceOnUse" gradientTransform="matrix(.00238 -.00002 .00003 .00206 81.05 61.15)" spreadMethod="pad" cx="0" cy="0" r="819.2" fx="0" fy="0"><stop offset=".047" stop-color="#c52929" stop-opacity=".2"/><stop offset="1" stop-color="#ffefea" stop-opacity="0"/></radialGradient><path d="M82.4 60q.5.4.55 1l-.25-.3-.45-.8.15.1m-.05 2.3l-.05-.05.1.05h-.05" fill="url(#b)"/><radialGradient id="c" gradientUnits="userSpaceOnUse" gradientTransform="matrix(.00238 -.00002 .00003 .00206 81.05 61.15)" spreadMethod="pad" cx="0" cy="0" r="819.2" fx="0" fy="0"><stop offset=".102" stop-color="#c52929" stop-opacity=".302"/><stop offset="1" stop-color="#ffefea" stop-opacity="0"/></radialGradient><path d="M82.35 62.3l.05.4q0 1.1-1.25 1.1-.9 0-1.65-.65-.8-.8-.8-1.85 0-2.35 1.6-2.35.9 0 .9 1.2l-.05.35q.1.7.6 1l.05.05.5.7.05.05" fill="url(#c)"/></g></svg>