<svg xmlns="http://www.w3.org/2000/svg" width="44" height="59"><g transform="translate(-69.25 -12.4)"><path d="M88.75 69.95l-.15-.05.4.35L86.55 69l-6.75-3.65q-4.6-2.55-6.05-6.9-1.45-4.35-2.45-8.4l-.25-1.25-.8-7.1.1-.05-.15-.15-.85-9.95q-.45-6.35 1.55-7.6l2.45-2.1Q91.3 2.7 108.6 22.4l.2.2.15-.1 2.9 4q1 1.7 1.1 5.4.1 3.7-2.5 20.65l-1.75 5.8q-1.5 4.35-5.85 6.85l-6.1 3.35q-1.7.9-2.6 1.55-.95.6-3.3.55-1.8-.45-2.1-.7m14.4-6.35l-.15-.15-.95.9.2.1.9-.85M81.5 64.8l-.45-.4H81l.5.45.4.35-.4-.4m-6.35-9.2l-.5.35q.25-.15.55-.25l-.05-.1" fill="#ffecd9"/><radialGradient id="a" gradientUnits="userSpaceOnUse" gradientTransform="matrix(.0111 0 0 .0111 107.55 56.25)" spreadMethod="pad" cx="0" cy="0" r="819.2" fx="0" fy="0"><stop offset="0" stop-color="#febcbc"/><stop offset="1" stop-color="#ffeddb"/></radialGradient><path d="M102.25 64.45l-.2-.1.95-.9.15.15-.9.85" fill="url(#a)"/><path d="M81.9 65.2l-.4-.35-.5-.45h.05l.45.4.4.4" fill="#ffeddb"/><radialGradient id="b" gradientUnits="userSpaceOnUse" gradientTransform="matrix(.04414 0 0 .04414 87.95 31.6)" spreadMethod="pad" cx="0" cy="0" r="819.2" fx="0" fy="0"><stop offset=".02" stop-color="#f0c4b0"/><stop offset="1" stop-color="#ffeddb"/></radialGradient><path d="M70.25 41.7l-.1.05-.2-.55.25.3.15.15-.1.05" fill="url(#b)"/><path d="M75.2 55.7q-.3.1-.55.25l.5-.35.05.1" fill="#fed8b4"/><path d="M110.45 52.55l-1.75 5.8q-1.5 4.35-5.85 6.85l-6.1 3.35q-1.7.9-2.6 1.55-.95.6-3.3.55l-1.85-.4L86.55 69l-6.75-3.65q-4.6-2.55-6.05-6.9-1.45-4.35-2.45-8.4l-.25-1.25" fill="none" stroke-width=".25" stroke-linecap="round" stroke-linejoin="round" stroke-miterlimit="3" stroke="#fd9e66"/><radialGradient id="c" gradientUnits="userSpaceOnUse" gradientTransform="matrix(.00185 -.00156 .00203 .00244 80.9 62.2)" spreadMethod="pad" cx="0" cy="0" r="819.2" fx="0" fy="0"><stop offset=".047" stop-color="#e99696" stop-opacity=".58"/><stop offset="1" stop-color="#ffefea" stop-opacity="0"/></radialGradient><path d="M82.55 64.2q-.6.5-1.5.35-.9-.25-1.6-1.05-.65-.8-.7-1.7-.05-.95.6-1.45.6-.5 1.45-.3.9.2 1.6 1 .65.8.65 1.75.05.9-.5 1.4" fill="url(#c)"/><radialGradient id="d" gradientUnits="userSpaceOnUse" gradientTransform="matrix(.00201 .00134 -.00179 .0026 102.2 62.65)" spreadMethod="pad" cx="0" cy="0" r="819.2" fx="0" fy="0"><stop offset=".047" stop-color="#e99696" stop-opacity=".58"/><stop offset="1" stop-color="#ffefea" stop-opacity="0"/></radialGradient><path d="M100.7 64.75q-.65-.45-.7-1.3 0-1 .6-1.85.6-.85 1.4-1.1l1.6.15q.65.45.7 1.3 0 .9-.55 1.85-.65.8-1.5 1.05l-1.55-.1" fill="url(#d)"/></g></svg>