<svg xmlns="http://www.w3.org/2000/svg" width="223" height="255"><g transform="translate(-5.65 .1)"><path d="M167.75 222.65l-4.05 4 .7.4q-4.3 3.75-9.1 7.1l-.9.65-11.7 8-4.9 3.4-.05.05-4.3 2.75-4.85 2.9q-4.05 2.3-9.1 2.5l-.2.05q-3.4.45-6.4.15l-3-.95q-2.25-1-4.4-2.5l-.55-.35-12.75-8-.8-.55h-.05l-.45.7-.05-.05-.15-.1-4.25-2.95-6.85-4.7h-.05l-.05-.05-4.75-3.45v-.05l-2.3-1.75-1.9-1.6q-4.15-3.55-7.85-7.4h-.05l-1.65-1.8-4-4.65-.25-.25q-6.95-8.7-13.8-23.6l-.05-.05-2.7-6.1L38 179l-3.9-9.35v-.05l-.65-1.5-.45-1.05-6.7-15.3-9.6-20.95-10.65-22.65-.3-.1Q7.8 93.35 14.5 76.3l1.55-3.85 1.3-5.7q10.6-14.35 21.1-25.6Q59 19.25 79.4 9q35.7-17.95 70.85 0 21.5 11 42.8 35.45l.7-.4q20.35 24.7 34.4 63.65l-.1.3q-16.3 33.75-25.65 55.25l-2.7 6.3-.05.1-3.75 9.05q-3.2 7.95-6.4 14.6l-.05.2q-6.15 12.6-12.35 20.35l-.15.2-5.5 6.3-3 3-.7-.7M23.6 125.75l.7 2.3.85-.55-1.55-1.75m22.8 63.15l-.2-.4-2.1 1.45 2.3-1.05m102.55 6.65l-.15-3.45.1 2.4.05 1.05m-75.1 33.2l1.9 1.55-1.85-1.6-2.05-1.75h-.15l2.15 1.8" fill="#ffecd9"/><path d="M207.35 174.05l3.2-3.2q-.65 1.2-1.9 2.45h.15q-1.25 1.05-2.3 1.45l.85-.7" fill="#f7d2bb"/><path d="M44.1 189.95l2.1-1.45.2.4-2.3 1.05" fill="#fed8b4"/><path d="M71.7 226.95h.15l2.05 1.75 1.85 1.6-1.9-1.55-2.15-1.8" fill="#ffeddb"/><radialGradient id="a" gradientUnits="userSpaceOnUse" gradientTransform="matrix(.04848 0 0 .04848 187.75 191.35)" spreadMethod="pad" cx="0" cy="0" r="819.2" fx="0" fy="0"><stop offset="0" stop-color="#febcbc"/><stop offset="1" stop-color="#ffeddb"/></radialGradient><path d="M168.45 223.35l-4.05 3.7-.7-.4 4.05-4 .7.7" fill="url(#a)"/><radialGradient id="b" gradientUnits="userSpaceOnUse" gradientTransform="matrix(.19263 0 0 .19263 102.15 83.8)" spreadMethod="pad" cx="0" cy="0" r="819.2" fx="0" fy="0"><stop offset=".02" stop-color="#f0c4b0"/><stop offset="1" stop-color="#ffeddb"/></radialGradient><path d="M16.05 72.45l.1-4.05 1.2-1.65-1.3 5.7" fill="url(#b)"/><path d="M193.75 44.05l-.7-1.3m.7 1.3q20.35 24.7 34.4 63.65l-.1.3q-16.3 33.75-25.65 55.25l-2.7 6.3-.05.1-3.75 9.05q-3.2 7.95-6.4 14.6l-.05.2q-6.15 12.6-12.35 20.35l-.15.2-5.5 6.3-3 3-4.05 3.7q-4.3 3.75-9.1 7.1l-.9.65-11.7 8-4.9 3.4-.05.05-4.3 2.75-4.85 2.9q-4.05 2.3-9.1 2.5l-.2.05q-3.4.45-6.4.15l-3.1-.6q-2.4-.6-4.5-1.8l-9.2-5.7-5.2-3.55-.05-.05-.15-.1-4.25-2.95-6.85-4.7h-.05l-.05-.05-4.75-3.45v-.05l-2.3-1.75-1.9-1.6q-4.15-3.55-7.85-7.4h-.05l-1.65-1.8-4-4.65-.25-.25q-6.95-8.7-13.8-23.6l-.05-.05-2.7-6.1L38 179l-3.9-9.35v-.05l-.65-1.5-.45-1.05-6.7-15.3m-9.6-20.95L6.05 108.15m-.3-.1Q7.8 93.35 14.5 76.3l1.55-3.85m.1-4.05l1.2-1.65q10.6-14.35 21.1-25.6Q59 19.25 79.4 9q35.7-17.95 70.85 0 21.5 11 42.8 35.45m-175.7 22.3l-1.3 5.7M25.15 182l.2.15" fill="none" stroke-width=".25" stroke-linecap="round" stroke-linejoin="round" stroke-miterlimit="3" stroke="#fd9e66"/><radialGradient id="c" gradientUnits="userSpaceOnUse" gradientTransform="matrix(.04889 0 0 .03416 182.75 174.4)" spreadMethod="pad" cx="0" cy="0" r="819.2" fx="0" fy="0"><stop offset="0" stop-color="#febcbc" stop-opacity=".6"/><stop offset="1" stop-color="#ffeddb" stop-opacity="0"/></radialGradient><path d="M221.4 179.4q0 16.4-11.6 28-11.6 11.6-28 11.6t-28-11.6q-11.6-11.6-11.6-28t11.6-28q11.6-11.6 28-11.6t28 11.6q11.6 11.6 11.6 28" fill="url(#c)"/><radialGradient id="d" gradientUnits="userSpaceOnUse" gradientTransform="matrix(.04889 0 0 .03416 68.05 175.9)" spreadMethod="pad" cx="0" cy="0" r="819.2" fx="0" fy="0"><stop offset="0" stop-color="#febcbc" stop-opacity=".6"/><stop offset="1" stop-color="#ffeddb" stop-opacity="0"/></radialGradient><path d="M39.1 152.9q11.6-11.6 28-11.6t28 11.6q11.6 11.6 11.6 28t-11.6 28q-11.6 11.6-28 11.6t-28-11.6q-11.6-11.6-11.6-28t11.6-28" fill="url(#d)"/><radialGradient id="e" gradientUnits="userSpaceOnUse" gradientTransform="matrix(.00832 0 0 .00832 60.25 164.55)" spreadMethod="pad" cx="0" cy="0" r="819.2" fx="0" fy="0"><stop offset="0" stop-color="#fff" stop-opacity=".373"/><stop offset="1" stop-color="#fff" stop-opacity="0"/></radialGradient><path d="M55.85 160.3q2.2-2.25 4.4-2.3 2.2.05 4.45 2.3 2.15 2.1 2.1 4.25.05 2.2-2.1 4.45-2.25 2.15-4.45 2.1-2.2.05-4.4-2.1-2.2-2.25-2.15-4.45-.05-2.15 2.15-4.25" fill="url(#e)"/><radialGradient id="f" gradientUnits="userSpaceOnUse" gradientTransform="matrix(.00766 0 0 .00766 195.65 160.7)" spreadMethod="pad" cx="0" cy="0" r="819.2" fx="0" fy="0"><stop offset="0" stop-color="#fff" stop-opacity=".373"/><stop offset="1" stop-color="#fff" stop-opacity="0"/></radialGradient><path d="M195.65 166.75q-2.05 0-4.05-1.95-2-2.05-1.95-4.1-.05-1.95 1.95-3.9 2-2.05 4.05-2.1 2.05.05 4.1 2.1 1.95 1.95 1.95 3.9 0 2.05-1.95 4.1-2.05 1.95-4.1 1.95" fill="url(#f)"/></g></svg>