<svg xmlns="http://www.w3.org/2000/svg" width="24" height="28"><g transform="translate(-58.6 -24.85)"><path d="M79.9 43.6l.1-.05.35-.35-.25.25h.05l-.25.15" fill="#f7d2bb"/><radialGradient id="a" gradientUnits="userSpaceOnUse" gradientTransform="matrix(.02077 0 0 .02077 68.65 33.8)" spreadMethod="pad" cx="0" cy="0" r="819.2" fx="0" fy="0"><stop offset=".02" stop-color="#f0c4b0"/><stop offset="1" stop-color="#ffeddb"/></radialGradient><path d="M60.15 38.3l.2.25-.1.05-.1-.3" fill="url(#a)"/><path d="M70.35 52.15H70.2q-.7 0-1.5-.5l-2.3-1.6-2.2-1.9-1.25-1.75q-.5-.9-1.75-4.35l-2.5-6.85q.8-2.4 1.7-4.15.9-1.75 2.05-3.3 1.2-1.6 2.95-2.25l4.8-.55h.2q3.05-.1 4.8.55 1.7.65 2.9 2.25l2.1 3.3 1.7 4.15-2.5 6.85-1.75 4.35-1.25 1.75-2.2 1.9-2.3 1.6-1.45.5h-.1" fill="#ffecd9"/><path d="M70.4 52.15h-.05.1l1.45-.5 2.3-1.6 2.2-1.9 1.25-1.75 1.75-4.35 2.5-6.85-1.7-4.15-2.1-3.3q-1.2-1.6-2.9-2.25-1.75-.65-4.8-.55h-.2l-4.8.55q-1.75.65-2.95 2.25-1.15 1.55-2.05 3.3-.9 1.75-1.7 4.15l2.5 6.85q1.25 3.45 1.75 4.35l1.25 1.75 2.2 1.9 2.3 1.6q.8.5 1.5.5h.25m-.1-27.2h-.05" fill="none" stroke-width=".25" stroke-linecap="round" stroke-linejoin="round" stroke-miterlimit="3" stroke="#fd9e66"/><radialGradient id="b" gradientUnits="userSpaceOnUse" gradientTransform="matrix(.00528 0 0 .0037 76.35 42.65)" spreadMethod="pad" cx="0" cy="0" r="819.2" fx="0" fy="0"><stop offset="0" stop-color="#febcbc" stop-opacity=".6"/><stop offset="1" stop-color="#ffeddb" stop-opacity="0"/></radialGradient><path d="M71.95 43.2q0-1.8 1.3-3.05 1.2-1.25 3-1.25 1.75 0 3 1.25t1.25 3.05q0 1.75-1.25 3t-3 1.25q-1.8 0-3-1.25-1.3-1.25-1.3-3" fill="url(#b)"/><radialGradient id="c" gradientUnits="userSpaceOnUse" gradientTransform="matrix(.00528 0 0 .0037 64 42.8)" spreadMethod="pad" cx="0" cy="0" r="819.2" fx="0" fy="0"><stop offset="0" stop-color="#febcbc" stop-opacity=".6"/><stop offset="1" stop-color="#ffeddb" stop-opacity="0"/></radialGradient><path d="M66.9 46.35q-1.25 1.25-3.05 1.25-1.75 0-3-1.25t-1.25-3q0-1.8 1.25-3.05 1.25-1.25 3-1.25 1.8 0 3.05 1.25 1.25 1.25 1.25 3.05 0 1.75-1.25 3" fill="url(#c)"/><radialGradient id="d" gradientUnits="userSpaceOnUse" gradientTransform="translate(63.1 41.55) scale(.0009)" spreadMethod="pad" cx="0" cy="0" r="819.2" fx="0" fy="0"><stop offset="0" stop-color="#fff" stop-opacity=".373"/><stop offset="1" stop-color="#fff" stop-opacity="0"/></radialGradient><path d="M62.65 41.1l.45-.25q.25 0 .5.25l.2.45-.2.5-.5.2-.45-.2-.25-.5.25-.45" fill="url(#d)"/><radialGradient id="e" gradientUnits="userSpaceOnUse" gradientTransform="matrix(.00082 0 0 .00082 77.7 41.15)" spreadMethod="pad" cx="0" cy="0" r="819.2" fx="0" fy="0"><stop offset="0" stop-color="#fff" stop-opacity=".373"/><stop offset="1" stop-color="#fff" stop-opacity="0"/></radialGradient><path d="M77.7 41.8l-.4-.2-.25-.45q0-.2.25-.45l.4-.2.45.2.2.45-.2.45-.45.2" fill="url(#e)"/></g></svg>