<svg xmlns="http://www.w3.org/2000/svg" width="24" height="28"><g transform="translate(.1 .05)"><path d="M11.75 27.4h-.15q-.7 0-1.5-.5l-2.3-1.6q-1.5-1.05-2.2-1.9l-1.25-1.75q-.55-.95-1.8-4.4L0 10.35q.8-2.4 1.75-4.15.85-1.8 2.1-3.35Q5.05 1.25 6.8.6 8.5 0 11.6.05h.25q3.05-.1 4.8.55 1.7.65 2.95 2.25l2.1 3.35 1.7 4.15-2.5 6.9-1.8 4.4-1.25 1.75-2.2 1.9-2.35 1.6-1.4.5h-.1v.05l-.05-.05" fill="#ffecd9"/><path d="M11.8 27.4h.1l1.4-.5 2.35-1.6 2.2-1.9 1.25-1.75 1.8-4.4 2.5-6.9-1.7-4.15-2.1-3.35Q18.35 1.25 16.65.6q-1.75-.65-4.8-.55h-.25Q8.5 0 6.8.6q-1.75.65-2.95 2.25Q2.6 4.4 1.75 6.2.8 7.95 0 10.35l2.55 6.9q1.25 3.45 1.8 4.4L5.6 23.4q.7.85 2.2 1.9l2.3 1.6q.8.5 1.5.5h.2m0 .05l.1-.05m-.1.05l-.05-.05m.05.05l-.05-.05" fill="none" stroke-width=".25" stroke-linecap="round" stroke-linejoin="bevel" stroke-miterlimit="3" stroke="#fd9e66"/><radialGradient id="a" gradientUnits="userSpaceOnUse" gradientTransform="matrix(.00517 0 0 .00362 17.35 17.9)" spreadMethod="pad" cx="0" cy="0" r="819.2" fx="48" fy="0"><stop offset="0" stop-color="#febcbc" stop-opacity=".6"/><stop offset="1" stop-color="#ffeddb" stop-opacity="0"/></radialGradient><path d="M20.2 15.45q1.25 1.25 1.25 3 0 1.7-1.25 2.95-1.25 1.2-2.95 1.2-1.75 0-2.95-1.2-1.25-1.25-1.25-2.95 0-1.75 1.25-3 1.2-1.25 2.95-1.2 1.7-.05 2.95 1.2" fill="url(#a)"/><radialGradient id="b" gradientUnits="userSpaceOnUse" gradientTransform="matrix(.00517 0 0 .00362 5.2 18.05)" spreadMethod="pad" cx="0" cy="0" r="819.2" fx="0" fy="0"><stop offset="0" stop-color="#febcbc" stop-opacity=".6"/><stop offset="1" stop-color="#ffeddb" stop-opacity="0"/></radialGradient><path d="M2.15 15.6q1.2-1.25 2.95-1.2 1.75-.05 2.95 1.2 1.25 1.25 1.25 3 0 1.7-1.25 2.95-1.2 1.2-2.95 1.25-1.75-.05-2.95-1.25Q.9 20.3.9 18.6q0-1.75 1.25-3" fill="url(#b)"/><radialGradient id="c" gradientUnits="userSpaceOnUse" gradientTransform="matrix(.00089 0 0 .00089 4.4 16.85)" spreadMethod="pad" cx="0" cy="0" r="819.2" fx="0" fy="0"><stop offset="0" stop-color="#fff" stop-opacity=".373"/><stop offset="1" stop-color="#fff" stop-opacity="0"/></radialGradient><path d="M3.95 16.4q.25-.25.45-.25.25 0 .5.25l.2.45-.2.45-.5.25-.45-.25-.25-.45.25-.45" fill="url(#c)"/><radialGradient id="d" gradientUnits="userSpaceOnUse" gradientTransform="matrix(.0008 0 0 .0008 18.75 16.45)" spreadMethod="pad" cx="0" cy="0" r="819.2" fx="0" fy="0"><stop offset="0" stop-color="#fff" stop-opacity=".373"/><stop offset="1" stop-color="#fff" stop-opacity="0"/></radialGradient><path d="M18.75 17.05q-.2 0-.45-.2l-.2-.4.2-.45.45-.2.45.2.2.45-.2.4-.45.2" fill="url(#d)"/></g></svg>