<svg xmlns="http://www.w3.org/2000/svg" width="25" height="29"><g transform="translate(.1 .1)"><path d="M12 27.95H11.85q-.75 0-1.5-.55l-2.4-1.6-2.25-1.95-1.25-1.8q-.6-.95-1.85-4.45L0 10.55q.85-2.5 1.8-4.25.9-1.8 2.15-3.4 1.2-1.65 3-2.3l4.9-.6h.25q3.1-.05 4.85.6 1.8.65 3.05 2.3l2.15 3.4 1.75 4.25-2.6 7.05-1.8 4.45-1.3 1.8-2.25 1.95-2.35 1.6q-.75.55-1.5.55H12" fill="#ffecd9"/><path d="M12 27.95h.1q.75 0 1.5-.55l2.35-1.6 2.25-1.95 1.3-1.8 1.8-4.45 2.6-7.05-1.75-4.25L20 2.9Q18.75 1.25 16.95.6 15.2-.05 12.1 0h-.25l-4.9.6q-1.8.65-3 2.3Q2.7 4.5 1.8 6.3.85 8.05 0 10.55l2.6 7.05q1.25 3.5 1.85 4.45l1.25 1.8 2.25 1.95 2.4 1.6q.75.55 1.5.55h.25M12 0h.05M12 0h-.05m.1 27.95H12z" fill="none" stroke-width=".25" stroke-linecap="round" stroke-linejoin="round" stroke-miterlimit="3" stroke="#fd9e66"/><radialGradient id="a" gradientUnits="userSpaceOnUse" gradientTransform="matrix(.00554 0 0 .00388 17.9 18.45)" spreadMethod="pad" cx="0" cy="0" r="819.2" fx="0" fy="0"><stop offset="0" stop-color="#febcbc" stop-opacity=".6"/><stop offset="1" stop-color="#ffeddb" stop-opacity="0"/></radialGradient><path d="M21 22.2q-1.35 1.3-3.2 1.35-1.85-.05-3.15-1.35-1.35-1.3-1.3-3.15-.05-1.9 1.3-3.2 1.3-1.3 3.15-1.3 1.85 0 3.2 1.3 1.3 1.3 1.3 3.2 0 1.85-1.3 3.15" fill="url(#a)"/><radialGradient id="b" gradientUnits="userSpaceOnUse" gradientTransform="matrix(.00554 0 0 .00388 4.9 18.65)" spreadMethod="pad" cx="0" cy="0" r="819.2" fx="0" fy="0"><stop offset="0" stop-color="#febcbc" stop-opacity=".6"/><stop offset="1" stop-color="#ffeddb" stop-opacity="0"/></radialGradient><path d="M.35 19.2q-.05-1.85 1.3-3.15 1.3-1.35 3.15-1.3 1.85-.05 3.2 1.3 1.3 1.3 1.3 3.15 0 1.85-1.3 3.2-1.35 1.3-3.2 1.3t-3.15-1.3Q.3 21.05.35 19.2" fill="url(#b)"/><radialGradient id="c" gradientUnits="userSpaceOnUse" gradientTransform="matrix(.00095 0 0 .00095 4.05 17.35)" spreadMethod="pad" cx="0" cy="0" r="819.2" fx="0" fy="0"><stop offset="0" stop-color="#fff" stop-opacity=".373"/><stop offset="1" stop-color="#fff" stop-opacity="0"/></radialGradient><path d="M4.05 16.6l.5.25.2.5-.2.5-.5.25-.5-.25-.25-.5.25-.5.5-.25" fill="url(#c)"/><radialGradient id="d" gradientUnits="userSpaceOnUse" gradientTransform="matrix(.00087 0 0 .00087 19.4 16.9)" spreadMethod="pad" cx="0" cy="0" r="819.2" fx="0" fy="0"><stop offset="0" stop-color="#fff" stop-opacity=".373"/><stop offset="1" stop-color="#fff" stop-opacity="0"/></radialGradient><path d="M18.9 17.4l-.2-.5.2-.45.5-.2.45.2.2.45-.2.5-.45.2-.5-.2" fill="url(#d)"/></g></svg>