<svg xmlns="http://www.w3.org/2000/svg" width="223" height="255"><g transform="translate(-5.65 .1)"><path d="M167.75 222.65l-4.05 4 .7.4q-4.3 3.75-9.1 7.1l-.9.65-11.7 8-4.9 3.4-.05.05-4.3 2.75-4.85 2.9q-4.05 2.3-9.1 2.5l-.2.05q-3.4.45-6.4.15l-3-.95q-2.25-1-4.4-2.5l-.55-.35-12.75-8-.8-.55h-.05l-.45.7-.05-.05-.15-.1-4.25-2.95-6.85-4.7h-.05l-.05-.05-4.75-3.45v-.05l-2.3-1.75-1.9-1.6q-4.15-3.55-7.85-7.4h-.05l-1.65-1.8-4-4.65-.25-.25q-6.95-8.7-13.8-23.6l-.05-.05q-2.45-5.35-4.9-11.5l-3.9-9.35v-.05l-.65-1.5-.45-1.05q-9.55-22.25-26.95-58.9l-.3-.1Q8 91.7 16.05 72.45l1.3-5.7q10.6-14.35 21.1-25.6 78.75-83.9 154.6 3.3l.7-.4q20.35 24.7 34.4 63.65l-.1.3q-16.3 33.75-25.65 55.25l-2.7 6.3-.05.1-3.75 9.05q-3.2 7.95-6.4 14.6l-.05.2q-6.15 12.6-12.35 20.35l-.15.2-5.5 6.3-3 3-.7-.7M25.15 127.5l-1.55-1.75.7 2.3.85-.55m21.05 61l-2.1 1.45 2.3-1.05-.2-.4m102.7 6l.05 1.05-.15-3.45.1 2.4m-77.2 32.45l2.15 1.8 1.9 1.55-1.85-1.6-2.05-1.75h-.15" fill="#ffecd9"/><path d="M208.8 173.3q-1.25 1.05-2.3 1.45l.85-.7 3.2-3.2q-.65 1.2-1.9 2.45h.15" fill="#f7d2bb"/><path d="M46.4 188.9l-2.3 1.05 2.1-1.45.2.4" fill="#fed8b4"/><path d="M71.85 226.95l2.05 1.75 1.85 1.6-1.9-1.55-2.15-1.8h.15" fill="#ffeddb"/><radialGradient id="a" gradientUnits="userSpaceOnUse" gradientTransform="matrix(.04848 0 0 .04848 187.75 191.35)" spreadMethod="pad" cx="0" cy="0" r="819.2" fx="0" fy="0"><stop offset="0" stop-color="#febcbc"/><stop offset="1" stop-color="#ffeddb"/></radialGradient><path d="M168.45 223.35l-4.05 3.7-.7-.4 4.05-4 .7.7" fill="url(#a)"/><radialGradient id="b" gradientUnits="userSpaceOnUse" gradientTransform="matrix(.19263 0 0 .19263 102.15 83.8)" spreadMethod="pad" cx="0" cy="0" r="819.2" fx="0" fy="0"><stop offset=".02" stop-color="#f0c4b0"/><stop offset="1" stop-color="#ffeddb"/></radialGradient><path d="M16.05 72.45l.1-4.05 1.2-1.65-1.3 5.7m8.25 55.6l-.7-2.3 1.55 1.75-.85.55" fill="url(#b)"/><path d="M193.75 44.05l-.7-1.3m.7 1.3q20.35 24.7 34.4 63.65l-.1.3q-16.3 33.75-25.65 55.25l-2.7 6.3-.05.1-3.75 9.05q-3.2 7.95-6.4 14.6l-.05.2q-6.15 12.6-12.35 20.35l-.15.2-5.5 6.3-3 3-4.05 3.7q-4.3 3.75-9.1 7.1l-.9.65-11.7 8-4.9 3.4-.05.05-4.3 2.75-4.85 2.9q-4.05 2.3-9.1 2.5l-.2.05q-3.4.45-6.4.15l-3.1-.6q-2.4-.6-4.5-1.8l-9.2-5.7-5.2-3.55-.05-.05-.15-.1-4.25-2.95-6.85-4.7h-.05l-.05-.05-4.75-3.45v-.05l-2.3-1.75-1.9-1.6q-4.15-3.55-7.85-7.4h-.05l-1.65-1.8-4-4.65-.25-.25q-6.95-8.7-13.8-23.6l-.05-.05q-2.45-5.35-4.9-11.5l-3.9-9.35v-.05l-.65-1.5-.45-1.05q-9.55-22.25-26.95-58.9m-.3-.1Q8 91.7 16.05 72.45m.1-4.05l1.2-1.65q10.6-14.35 21.1-25.6 78.75-83.9 154.6 3.3m-175.7 22.3l-1.3 5.7M25.15 182l.2.15" fill="none" stroke-width=".25" stroke-linecap="round" stroke-linejoin="round" stroke-miterlimit="3" stroke="#fd9e66"/></g></svg>