<svg xmlns="http://www.w3.org/2000/svg" width="236" height="246"><g transform="translate(.1 -9.25)"><path d="M167.75 222.65l-4.05 4 .7.4q-4.3 3.75-9.1 7.1l-.9.65-11.7 8-4.9 3.4-.05.05-4.3 2.75-4.85 2.9q-4.05 2.3-9.1 2.5l-.2.05q-3.4.45-6.4.15l-3-.95q-2.25-1-4.4-2.5l-.55-.35-12.75-8-.8-.55h-.05l-.45.7-.05-.05-.15-.1-4.25-2.95-6.85-4.7h-.05l-.05-.05-4.75-3.45v-.05l-2.3-1.75-1.9-1.6q-4.15-3.55-7.85-7.4h-.05l-1.65-1.8-4-4.65-.25-.25q-6.95-8.7-13.8-23.6l-.05-.05q-2.45-5.35-4.9-11.5l-3.9-9.35v-.05l-.65-1.5-.45-1.05Q27.9 155.1 20.45 139l-.05-.2-.1-.15-.05.2v.05l-.05.15.05.15v.05l.05.3-.05-.4.05-.05v.45l-.1-.2-.05-.1-.3 1.2.1-1.7.05-.75.25.5q-3.75-61.9 18.5-91Q103.7-21.35 177.9 34.1l1.3 1q17.25 13.75 29.35 45.6-1.2-5.75 1.2 3.25v.1q4.9 23.9 3.6 54.95-6.35 13.65-10.95 24.25l-2.7 6.3-.05.1-3.75 9.05q-3.2 7.95-6.4 14.6l-.05.2q-6.15 12.6-12.35 20.35l-.15.2-5.5 6.3-3 3-.7-.7M198.7 52l.3.55.35.5.05.1v.05l.1.15-.8-1.25V52M44.1 189.95l2.3-1.05-.2-.4-2.1 1.45m29.75 38.8l1.9 1.55-1.85-1.6-2.05-1.75h-.15l2.15 1.8" fill="#ffecd9"/><path d="M46.2 188.5l.2.4-2.3 1.05 2.1-1.45" fill="#fed8b4"/><path d="M71.7 226.95h.15l2.05 1.75 1.85 1.6-1.9-1.55-2.15-1.8" fill="#ffeddb"/><radialGradient id="a" gradientUnits="userSpaceOnUse" gradientTransform="matrix(.04848 0 0 .04848 187.75 191.35)" spreadMethod="pad" cx="0" cy="0" r="819.2" fx="0" fy="0"><stop offset="0" stop-color="#febcbc"/><stop offset="1" stop-color="#ffeddb"/></radialGradient><path d="M168.45 223.35l-4.05 3.7-.7-.4 4.05-4 .7.7" fill="url(#a)"/><path d="M213.35 139q-6.35 13.65-10.95 24.25l-2.7 6.3-.05.1-3.75 9.05q-3.2 7.95-6.4 14.6l-.05.2q-6.15 12.6-12.35 20.35l-.15.2-5.5 6.3-3 3-4.05 3.7q-4.3 3.75-9.1 7.1l-.9.65-11.7 8-4.9 3.4-.05.05-4.3 2.75-4.85 2.9q-4.05 2.3-9.1 2.5l-.2.05q-3.4.45-6.4.15l-3.1-.6q-2.4-.6-4.5-1.8l-9.2-5.7-5.2-3.55-.05-.05-.15-.1-4.25-2.95-6.85-4.7h-.05l-.05-.05-4.75-3.45v-.05l-2.3-1.75-1.9-1.6q-4.15-3.55-7.85-7.4h-.05l-1.65-1.8-4-4.65-.25-.25q-6.95-8.7-13.8-23.6l-.05-.05q-2.45-5.35-4.9-11.5l-3.9-9.35v-.05l-.65-1.5-.45-1.05Q27.9 155.1 20.45 139l-.05-.2-.1.3v.45l-.1-.2-.35 1.1.1-1.7.05-.75.25.5q-3.75-61.9 18.5-91Q103.7-21.35 177.9 34.1l1.3 1q17.25 13.75 29.35 45.6-1.2-5.75 1.2 3.25v.1q4.9 23.9 3.6 54.95l-.05.85m-3.55-55.9l-1.2-3.25M20.2 139.35l-.05-.1-.2-.5m.25.3l.05.15v-.3m-.05.15L20 138m.25.85v-.25.3m.15-.1l-.1-.15v-.05h-.05v-.1l.05.1m-.1.75l.05-.1v-.05m0-.35l.05.25-.05.05.05.4-.05-.3m4.9 42.75l.2.15" fill="none" stroke-width=".25" stroke-linecap="round" stroke-linejoin="round" stroke-miterlimit="3" stroke="#fd9e66"/><path d="M21.6 152.5q1.85 1.9 3.7 5.05l-2.2-6-1.5.95m-1.3-12.95l9.4 20.7 3.45 8.1.45.95.6 1.45.05.05 3.7 8.95.2.45q2.2 5.65 4.5 10.55v.1l1.7 3.45-1.3.85-2.6 1.15q-4.3 2.85-18.4-6.35l-.2-.15-1.35-.9-.55-.35q-3.8-2.7-6.95-5.8-2.65-2.65-4.8-5.5-2.95-4.15-4.95-8.9-1.85-4.4-2.8-9.3-3.2-16.15 16.85-18.65l2.6-.1.4-.75m-1.85 41.85l2.15 4.4.6 1.15h.15q3.2 2.5 5.85 1.55l.2-.05 1.85-.1h.15q1.45-.15 2.95.65l.15.15 3.1-.05q.95-.9-.1-3.85l-.35-.55q-2.45-1.5-3.6-3.15l-.05-.65-.05-.35q-.7-1.8 0-5.6v-.5l-.35-.35-.5-.1-.35.05q-4.4-.1-5.25-4.45-.8-4.5 1.55-5.55l.3-.35.15-.5-.15-.35q-7.05-10.95-12.8-11.6-4.8-.65-7.35 7.05-.15.35.95 4.4l.2.65.4.85q1.75 8.75 10.2 17.2" fill="#f7d2bb"/><path d="M23.1 151.55l2.2 6q-1.85-3.15-3.7-5.05l1.5-.95" fill="#f8d2ba"/><path d="M18.65 181.15l1.8 2.1q.7 1.15 2 2.25l-.15.05q1.2.9 2.25 1.2l2.05.05 2.85-.2q1.85 0 3.8 1l-.15-.2 1.05.45q.25-.45-.3-1.85-2.7-1.95-3.85-4l-.15-.35v-.3q-.85-1.95-.2-5.6-5.25-.45-6.3-5.7-1.05-5.5 1.6-7.25-6.2-9.15-11.15-9.85-3.4-.2-5.35 6l-.5.5q-.35.15.2 3.75l.1 1-.4-.85-.2-.65q-1.1-4.05-.95-4.4 2.55-7.7 7.35-7.05 5.75.65 12.8 11.6l.15.35-.15.5-.3.35Q24.2 165.1 25 169.6q.85 4.35 5.25 4.45l.35-.05.5.1.35.35v.5q-.7 3.8 0 5.6l.05.35.05.65q1.15 1.65 3.6 3.15l.35.55q1.05 2.95.1 3.85l-3.1.05-.15-.15q-1.5-.8-2.95-.65h-.15l-1.85.1-.2.05q-2.65.95-5.85-1.55h-.15l-.6-1.15-2.15-4.4.2-.25" fill="#efb087"/><radialGradient id="b" gradientUnits="userSpaceOnUse" gradientTransform="matrix(.03094 -.0019 .0019 .03094 32.05 160.15)" spreadMethod="pad" cx="0" cy="0" r="819.2" fx="0" fy="0"><stop offset="0" stop-color="#d3873d"/><stop offset=".992" stop-color="#f5c9ab"/></radialGradient><path d="M18.45 181.4q-8.45-8.45-10.2-17.2l-.1-1q-.55-3.6-.2-3.75l.5-.5q1.95-6.2 5.35-6 4.95.7 11.15 9.85-2.65 1.75-1.6 7.25 1.05 5.25 6.3 5.7-.65 3.65.2 5.6v.3l.15.35q1.15 2.05 3.85 4 .55 1.4.3 1.85l-1.05-.45.15.2q-1.95-1-3.8-1l-2.85.2-2.05-.05q-1.05-.3-2.25-1.2l.15-.05q-1.3-1.1-2-2.25l-1.8-2.1-.2.25" fill="url(#b)"/><path d="M19.9 140.3l-2.6.1Q-2.75 142.9.45 159.05q.95 4.9 2.8 9.3 2 4.75 4.95 8.9 2.15 2.85 4.8 5.5 3.15 3.1 6.95 5.8l.55.35 1.35.9m.2.15q14.1 9.2 18.4 6.35l2.6-1.15" fill="none" stroke-width=".25" stroke-linecap="round" stroke-linejoin="round" stroke-miterlimit="3" stroke="#fd9e66"/><path d="M213.3 139.85l6.95.8 2.8.8q15.35 4.8 11.25 18.95-4.15 14.1-15.35 23.2l-2.9 2.15-4.3 2.6-7.45 3.85q-10.55 4.75-13.75 1.35l-.1-.2-.65-.2.45-.9.05-.15q3.05-6.4 6.1-14l3.6-8.65.05-.1 2.6-6.05q4.45-10.3 10.6-23.5l.05.05m8.6 32.2q6.05-7.45 5.65-9.05-.55-1.65-.2-2.45l1.45-3.7q.25.2-.55 3.7-.85 3.45.6-.45l1.25-4.25q-1.9-7.9-6.7-7.65-5.8.1-13.7 10.4l-.2.3.05.55.3.35q2.2 1.25 1 5.65-1.15 4.25-5.55 4l-.3-.05-.55.1q-.25.05-.35.2-.1.25-.05.55.3 3.85-.55 5.55l-.05.35-.1.65q-1.3 1.5-3.85 2.9l-.4.4q-1.35 2.9-.4 3.9.45.85 3.05.3l.15-.15q1.55-.65 3-.4h.2l1.8.3h.2q2.5 1.25 5.95-.95l.1.05 3-4.9q.7-.15 5.75-6.2" fill="#f7d2bb"/><path d="M228.35 156.25q-1.45-6.3-4.85-6.35-5 .2-11.95 8.8 2.5 1.95.95 7.4-1.55 5.15-6.75 5.1.3 3.7-.6 5.55l-.1.35-.25.35q-1.3 1.9-4.1 3.6-.7 1.35-.5 1.85l1.1-.4-.2.15q2-.85 3.9-.6 1.65-.15 2.8.4l2.05.15 2.4-1-.2-.05 2.2-2.05 1.8-1.8.2-.15.2.2-.3.5-3 4.9-.1-.05q-3.45 2.2-5.95.95h-.2l-1.8-.3h-.2q-1.45-.25-3 .4l-.15.15q-2.6.55-3.05-.3-.95-1 .4-3.9l.4-.4q2.55-1.4 3.85-2.9l.1-.65.05-.35q.85-1.7.55-5.55-.05-.3.05-.55.1-.15.35-.2l.55-.1.3.05q4.4.25 5.55-4 1.2-4.4-1-5.65l-.3-.35-.05-.55.2-.3q7.9-10.3 13.7-10.4 4.8-.25 6.7 7.65l-1.25 4.25q-1.45 3.9-.6.45.8-3.5.55-3.7l-.45-.6" fill="#efb087"/><radialGradient id="c" gradientUnits="userSpaceOnUse" gradientTransform="matrix(.03015 -.02756 .02055 .02252 205.65 151.1)" spreadMethod="pad" cx="0" cy="0" r="819.2" fx="0" fy="0"><stop offset="0" stop-color="#d3873d"/><stop offset=".992" stop-color="#f5c9ab"/></radialGradient><path d="M216.15 178.25l.3-.5-.2-.2-.2.15-1.8 1.8-2.2 2.05.2.05-2.4 1-2.05-.15q-1.15-.55-2.8-.4-1.9-.25-3.9.6l.2-.15-1.1.4q-.2-.5.5-1.85 2.8-1.7 4.1-3.6l.25-.35.1-.35q.9-1.85.6-5.55 5.2.05 6.75-5.1 1.55-5.45-.95-7.4 6.95-8.6 11.95-8.8 3.4.05 4.85 6.35l.45.6-1.45 3.7q-.35.8.2 2.45.4 1.6-5.65 9.05-5.05 6.05-5.75 6.2" fill="url(#c)"/><path d="M213.3 139.85l6.95.8 2.8.8q15.35 4.8 11.25 18.95-4.15 14.1-15.35 23.2l-2.9 2.15-4.3 2.6-7.45 3.85q-10.55 4.75-13.75 1.35" fill="none" stroke-width=".25" stroke-linecap="round" stroke-linejoin="round" stroke-miterlimit="3" stroke="#fd9e66"/></g></svg>