<svg xmlns="http://www.w3.org/2000/svg" width="27" height="29"><g transform="translate(.1 .1)"><path d="M23.75 14.95l.8.1.35.1q1.7.55 1.25 2.15-.45 1.6-1.75 2.65l-.3.25-.5.3-.85.4-1.55.15h-.05L21.1 21l.05-.1.7-1.6.4-.95v-.05l.3-.65 1.2-2.7m1.8 1.95l-.1.4q-.1.4.1-.05l.15-.45q-.25-.9-.8-.9-.65.05-1.55 1.2v.1l.05.05q.25.15.1.65-.15.45-.65.45H22.7v.05l-.05.65v.1l-.45.35-.05.05-.05.45H22.5l.3-.05h.05l.2.05.7-.1.35-.55.65-.7.65-1.05-.05-.3.2-.4" fill="#f7d2bb"/><path d="M23.75 19.9l-.7.1-.2-.05h-.05l-.3.05H22.1l.05-.45.05-.05.45-.35v-.1l.05-.65v-.05H22.85q.5 0 .65-.45.15-.5-.1-.65l-.05-.05v-.1q.9-1.15 1.55-1.2.55 0 .8.9l-.15.45q-.2.45-.1.05l.1-.4-.05-.05q-.2-.75-.55-.75-.6.05-1.4 1 .3.25.15.85-.2.6-.8.6l-.05.6v.05l-.05.05-.45.4-.05.2.1-.05v.05l.45-.1.3.05.25.05.25-.15.25-.25.2-.2.05.05-.05.05-.35.55" fill="#efb087"/><radialGradient id="a" gradientUnits="userSpaceOnUse" gradientTransform="matrix(.00342 -.00313 .00233 .00256 22.9 16.25)" spreadMethod="pad" cx="0" cy="0" r="819.2" fx="0" fy="0"><stop offset="0" stop-color="#d3873d"/><stop offset=".992" stop-color="#f5c9ab"/></radialGradient><path d="M25.35 17.3l.05.3-.65 1.05-.65.7.05-.05-.05-.05-.2.2-.25.25-.25.15-.25-.05-.3-.05-.45.1v-.05l-.1.05.05-.2.45-.4.05-.05v-.05l.05-.6q.6 0 .8-.6.15-.6-.15-.85.8-.95 1.4-1 .35 0 .55.75l.05.05-.2.4" fill="url(#a)"/><path d="M23.75 14.95l.8.1.35.1q1.7.55 1.25 2.15-.45 1.6-1.75 2.65l-.3.25-.5.3-.85.4-1.55.15" fill="none" stroke-width=".25" stroke-linecap="round" stroke-linejoin="round" stroke-miterlimit="3" stroke="#fd9e66"/><path d="M2.45 16.4l.4.6-.25-.7-.15.1m-.15-1.45l1.05 2.35.4.9.05.1.1.2.4 1 .05.05.5 1.2.2.4-.15.1-.3.15q-.5.3-2.1-.75l-.15-.1-.1-.05-.8-.65-.5-.65-.6-1-.3-1.05q-.35-1.85 1.9-2.1h.3l.05-.1m-.2 4.75l.25.5.05.1h.05q.35.3.65.2h.25l.3.05H4.05v-.4l-.05-.1-.4-.35v-.05l-.05-.05V18.85h-.1l-.6-.5q-.1-.5.15-.65h.05v-.1q-.8-1.25-1.45-1.35-.55-.05-.85.8l.1.5.05.1.05.1q.2 1 1.15 1.95" fill="#f7d2bb"/><path d="M2.6 16.3l.25.7-.4-.6.15-.1" fill="#f8d2ba"/><path d="M2.1 19.65l.2.25.25.25.25.15h.55l.45.1-.05-.05.15.1-.05-.25-.45-.45v-.05q-.1-.25-.05-.65-.6-.05-.7-.65-.1-.6.2-.8-.7-1.05-1.3-1.15-.35 0-.6.7l-.05.05.05.4v.15l-.05-.1-.05-.1-.1-.5q.3-.85.85-.8.65.1 1.45 1.35v.1H3q-.25.15-.15.65l.6.5h.1v.75l.05.05v.05l.4.35.05.1v.4H3.65l-.3-.05H3.1q-.3.1-.65-.2H2.4l-.05-.1-.25-.5v-.05" fill="#efb087"/><radialGradient id="b" gradientUnits="userSpaceOnUse" gradientTransform="matrix(.00351 -.00021 .00021 .00351 3.65 17.3)" spreadMethod="pad" cx="0" cy="0" r="819.2" fx="0" fy="0"><stop offset="0" stop-color="#d3873d"/><stop offset=".992" stop-color="#f5c9ab"/></radialGradient><path d="M2.1 19.7q-.95-.95-1.15-1.95v-.15l-.05-.4.05-.05q.25-.7.6-.7.6.1 1.3 1.15-.3.2-.2.8.1.6.7.65-.05.4.05.65v.05l.45.45.05.25-.15-.1.05.05-.45-.1H2.8l-.25-.15-.25-.25-.2-.25v.05" fill="url(#b)"/><path d="M2.25 15.05h-.3q-2.25.25-1.9 2.1l.3 1.05.6 1 .5.65.8.65.1.05.15.1q1.6 1.05 2.1.75l.3-.15" fill="none" stroke-width=".25" stroke-linecap="round" stroke-linejoin="round" stroke-miterlimit="3" stroke="#fd9e66"/><path d="M13.35 28h-.05l-.3.05h-.15l-.65-.15-.9-.4-2.8-1.7q-1.2-.75-2.3-2.25v-.05l-1.65-2.7q-.85-1.75-1.6-3.95l-.75-1.7Q.75 7.3 4.65 3.25l.4-.35Q13-2.85 20.6 2.85L21.65 4l.35.35q.3.25 1.45 2.45 1.15 2.15.55 5.8l-.7 4.25q-2.4 6.95-5.55 8.9L16.2 26.8l-1.3.7-.9.4h-.05l-.6.1m-5.4-3.1H7.9l.25.2-.2-.2" fill="#ffecd9"/><path d="M8.15 25.1l-.25-.2h.05l.2.2" fill="#ffeddb"/><path d="M2.95 16.85l-.75-1.7Q.75 7.3 4.65 3.25l.4-.35Q13-2.85 20.6 2.85L21.65 4l.35.35q.3.25 1.45 2.45 1.15 2.15.55 5.8M16.2 26.8l-1.3.7-.9.4h-.05l-.3.1-.3.05h-.5l-.65-.15-.9-.4-2.8-1.7q-1.2-.75-2.3-2.25v-.05l-1.65-2.7q-.85-1.75-1.6-3.95M16.2 26.8l1.5-1q1.2-.75 2.3-2.25v-.05l1.65-2.7 1.65-3.95M24 12.6l-.7 4.25" fill="none" stroke-width=".2" stroke-linecap="round" stroke-linejoin="round" stroke-miterlimit="3" stroke="#fd9e66"/><radialGradient id="c" gradientUnits="userSpaceOnUse" gradientTransform="matrix(.00555 0 0 .0039 18.95 19.4)" spreadMethod="pad" cx="0" cy="0" r="819.2" fx="0" fy="0"><stop offset="0" stop-color="#febcbc" stop-opacity=".6"/><stop offset="1" stop-color="#ffeddb" stop-opacity="0"/></radialGradient><path d="M15.65 16.8q1.35-1.3 3.2-1.3t3.2 1.3l.65.85-.3.7v.05l-.45 1-.7 1.65v.05l-1.4 2.3h-.05v.05l-.6.7-.35.35q-1.9 0-3.2-1.3-1.3-1.35-1.3-3.2t1.3-3.2" fill="url(#c)"/><radialGradient id="d" gradientUnits="userSpaceOnUse" gradientTransform="matrix(.00555 0 0 .0039 5.9 19.6)" spreadMethod="pad" cx="0" cy="0" r="819.2" fx="0" fy="0"><stop offset="0" stop-color="#febcbc" stop-opacity=".6"/><stop offset="1" stop-color="#ffeddb" stop-opacity="0"/></radialGradient><path d="M3.6 18.4l-.1-.2-.05-.1-.55-1.35q1.2-1.1 2.9-1.1 1.9 0 3.2 1.35 1.3 1.3 1.3 3.15 0 1.85-1.3 3.2-.85.8-1.9 1.15l-.25-.3-.2-.2-.45-.55h-.05l-1.55-2.7-.55-1.3-.45-1.05" fill="url(#d)"/><radialGradient id="e" gradientUnits="userSpaceOnUse" gradientTransform="matrix(.00095 0 0 .00095 5 18.3)" spreadMethod="pad" cx="0" cy="0" r="819.2" fx="0" fy="0"><stop offset="0" stop-color="#fff" stop-opacity=".373"/><stop offset="1" stop-color="#fff" stop-opacity="0"/></radialGradient><path d="M4.5 17.8q.25-.25.5-.25t.5.25l.25.5-.25.5-.5.25-.5-.25-.25-.5.25-.5" fill="url(#e)"/><radialGradient id="f" gradientUnits="userSpaceOnUse" gradientTransform="matrix(.00087 0 0 .00087 20.4 17.85)" spreadMethod="pad" cx="0" cy="0" r="819.2" fx="0" fy="0"><stop offset="0" stop-color="#fff" stop-opacity=".373"/><stop offset="1" stop-color="#fff" stop-opacity="0"/></radialGradient><path d="M20.4 18.55l-.45-.2-.25-.5.25-.4q.2-.25.45-.25l.45.25.25.4-.25.5-.45.2" fill="url(#f)"/></g></svg>