<svg xmlns="http://www.w3.org/2000/svg" width="27" height="30"><g transform="translate(-56.85 -23.05)"><path d="M69.45 52l-.5-.3-1.6-1h-.05l-.05.1-1.25-.9-.55-.4-.5-.4-.9-.8-.65-.75v-.05q-.8-.95-1.55-2.65h-.05l-.55-1.3-.45-1.1-1.25-2.8q-1.75-4.9.5-10.35l1.25-1.45q8.95-9.5 17.55.2l.1.15q1.15 1.4 2.1 3.15 1 3.35.15 7.6l-1.25 2.8-.75 1.75-.75 1.65-1.4 2.35-.95 1.05-.1-.05-.45.45.05.05-1 .8-2 1.35-1.05.65-1.05.3h-.75l-.3-.1M59.7 37.75l.1-.05-.15-.2.05.25m2.25 7l.25-.1v-.05l-.25.15m3.6 4.6l-.45-.4.45.4" fill="#ffecd9"/><path d="M80.65 42.9l-.25.15.1-.1.35-.35-.2.3" fill="#f7d2bb"/><radialGradient id="a" gradientUnits="userSpaceOnUse" gradientTransform="matrix(.0055 0 0 .0055 78.25 44.95)" spreadMethod="pad" cx="0" cy="0" r="819.2" fx="0" fy="0"><stop offset="0" stop-color="#febcbc"/><stop offset="1" stop-color="#ffeddb"/></radialGradient><path d="M75.6 49l-.05-.05.45-.45.1.05-.5.45" fill="url(#a)"/><radialGradient id="b" gradientUnits="userSpaceOnUse" gradientTransform="translate(68.55 32.7) scale(.02188)" spreadMethod="pad" cx="0" cy="0" r="819.2" fx="37830" fy="0"><stop offset=".02" stop-color="#f0c4b0"/><stop offset="1" stop-color="#ffeddb"/></radialGradient><path d="M59.65 37.5l.15.2-.1.05-.05-.25" fill="url(#b)"/><path d="M62.2 44.6v.05l-.25.1.25-.15" fill="#fed8b4"/><path d="M65.1 48.95l.45.4-.45-.4" fill="#ffeddb"/><path d="M67.25 50.8L66 49.9l-.55-.4-.5-.4-.9-.8-.65-.75v-.05q-.8-.95-1.55-2.65h-.05l-.55-1.3-.45-1.1-1.25-2.8q-1.75-4.9.5-10.35l1.25-1.45q8.95-9.5 17.55.2l.1.15q1.15 1.4 2.1 3.15 1 3.35.15 7.6m-21.4 4.9l.05.05" fill="none" stroke-width=".25" stroke-miterlimit="3" stroke="#fd9e66"/><path d="M76.1 48.55l.95-1.05 1.4-2.35.75-1.65.75-1.75 1.25-2.8M69.75 52.1h.75l1.05-.3 1.05-.65 2-1.35 1-.8m.5-.45l-.5.45m-5.85 3.1l-.35-.05-.5-.2-1.65-1.05" fill="none" stroke-width=".25" stroke-linecap="round" stroke-miterlimit="3" stroke="#fd9e66"/><path d="M81.2 38.95l-.05.15" fill="none" stroke-width=".25" stroke-miterlimit="3" stroke="#fd9e66"/><path d="M78.6 45.2v-.05h-.1l.05-.1V45l.7-1.6.4-.95.3-.7 1.2-2.65.8.05.35.1q1.7.55 1.25 2.15-.45 1.6-1.75 2.65l-.3.25q-.7.35-1.35.75l-1.55.15m4.35-4.2l-.1.45q-.1.35.1-.05l.15-.5q-.25-.9-.8-.85-.65 0-1.55 1.15v.1l.05.05q.25.15.1.65-.15.45-.65.45h-.1l-.05.1-.05.6v.15l-.45.3-.05.05-.05.45.35.05.05-.05.3-.05h.05l.2.05.7-.1.35-.55.65-.7.65-1.05-.05-.25.2-.45" fill="#f7d2bb"/><path d="M81.15 44l-.7.1-.2-.05h-.05l-.3.05-.05.05-.35-.05.05-.45.05-.05.45-.3v-.15l.05-.6.05-.1h.1q.5 0 .65-.45.15-.5-.1-.65l-.05-.05v-.1q.9-1.15 1.55-1.15.55-.05.8.85l-.15.5q-.2.4-.1.05l.1-.45-.05-.05q-.2-.7-.55-.75-.6.05-1.4 1 .3.25.15.85-.2.6-.8.6l-.05.6v.05l-.05.05-.45.4-.05.2.1-.05v.05l.45-.1.3.05.25.05.25-.15.45-.4v-.05l.05.05-.05.05-.35.55" fill="#efb087"/><radialGradient id="c" gradientUnits="userSpaceOnUse" gradientTransform="matrix(.00342 -.00313 .00233 .00256 80.3 40.35)" spreadMethod="pad" cx="0" cy="0" r="819.2" fx="0" fy="0"><stop offset="0" stop-color="#d3873d"/><stop offset=".992" stop-color="#f5c9ab"/></radialGradient><path d="M82.75 41.45l.05.25-.65 1.05-.65.7.05-.05-.05-.05v.05l-.45.4-.25.15-.25-.05-.3-.05-.45.1v-.05l-.1.05.05-.2.45-.4.05-.05v-.05l.05-.6q.6 0 .8-.6.15-.6-.15-.85.8-.95 1.4-1 .35.05.55.75l.05.05-.2.45" fill="url(#c)"/><path d="M81.15 39.1l.8.05.35.1q1.7.55 1.25 2.15-.45 1.6-1.75 2.65l-.3.25q-.7.35-1.35.75l-1.55.15" fill="none" stroke-width=".25" stroke-miterlimit="3" stroke="#fd9e66"/><path d="M59.55 40.4l.25.7-.4-.6.15-.1" fill="#f8d2ba"/><path d="M61.55 45.5q-.5.3-2.1-.75l-.25-.15-.75-.65-.55-.6-.6-1.05-.3-1.05q-.35-1.8 1.9-2.1h.3l.05-.1 1.6 3.55.45 1.05.5 1.2.2.4-.15.1-.3.15m-2.15-5l.4.6-.25-.7-.15.1m-.35 3.3l.3.65.7.15h.25l.3.05.05.05.35-.05v-.4l-.05-.1-.4-.35-.05-.1V42.95h-.1q-.5 0-.6-.5-.1-.5.15-.6l.05-.05v-.1q-.8-1.25-1.45-1.3-.55-.1-.85.8l.1.5.05.05.05.1q.2 1 1.15 1.95" fill="#f7d2bb"/><path d="M57.85 41.75l-.05-.05-.1-.5q.3-.9.85-.8.65.05 1.45 1.3v.1l-.05.05q-.25.1-.15.6t.6.5h.1v.75l.05.1.4.35.05.1v.4l-.35.05-.05-.05-.3-.05h-.25l-.7-.15-.3-.65v-.05l.2.25.25.25.25.15h.55l.45.1h-.05l.15.05-.05-.25-.45-.45v-.05q-.1-.25-.05-.65-.6-.05-.7-.65-.1-.6.2-.8-.7-1.05-1.3-1.15-.35 0-.6.7l-.05.05.05.45v.1l-.05-.1" fill="#efb087"/><radialGradient id="d" gradientUnits="userSpaceOnUse" gradientTransform="matrix(.00351 -.00021 .00021 .00351 60.6 41.4)" spreadMethod="pad" cx="0" cy="0" r="819.2" fx="0" fy="0"><stop offset="0" stop-color="#d3873d"/><stop offset=".992" stop-color="#f5c9ab"/></radialGradient><path d="M57.9 41.85v-.1l-.05-.45.05-.05q.25-.7.6-.7.6.1 1.3 1.15-.3.2-.2.8.1.6.7.65-.05.4.05.65v.05l.45.45.05.25-.15-.05h.05l-.45-.1h-.55l-.25-.15-.25-.25-.2-.25v.05q-.95-.95-1.15-1.95" fill="url(#d)"/><path d="M59.2 39.15h-.3q-2.25.3-1.9 2.1l.3 1.05.6 1.05.55.6.75.65.25.15q1.6 1.05 2.1.75l.3-.15" fill="none" stroke-width=".25" stroke-miterlimit="3" stroke="#fd9e66"/></g></svg>