<svg xmlns="http://www.w3.org/2000/svg" width="27" height="29"><g transform="translate(-57 -23.6)"><path d="M81.1 39.05l.8.1.35.1q1.7.55 1.25 2.15-.45 1.6-1.75 2.65l-.3.25-1.35.7-1.55.15h-.05l-.05-.05 1.15-2.65v-.05l1.5-3.35m1.7 2.35q-.1.4.1-.05l.15-.45q-.25-.9-.8-.9-.65.05-1.55 1.2v.1l.05.05q.25.15.1.65-.15.45-.65.45h-.15v.05l-.05.65v.1l-.45.35-.05.05-.05.45h.4l.3-.05h.05l.2.05.7-.1.35-.55.05-.05.6-.65.65-1.05-.05-.3.2-.4-.1.4" fill="#f7d2bb"/><path d="M82.9 41l-.05-.05q-.2-.75-.55-.75-.6.05-1.4 1 .3.25.15.85-.2.6-.8.6l-.05.6v.05l-.5.45-.05.2.1-.05v.05l.45-.1.55.1.25-.15.45-.45.05.05-.05.05-.35.55-.7.1-.2-.05h-.05l-.3.05h-.4l.05-.45.05-.05.45-.35v-.1l.05-.65v-.05h.15q.5 0 .65-.45.15-.5-.1-.65l-.05-.05v-.1q.9-1.15 1.55-1.2.55 0 .8.9l-.15.45q-.2.45-.1.05l.1-.4" fill="#efb087"/><radialGradient id="a" gradientUnits="userSpaceOnUse" gradientTransform="matrix(.00342 -.00313 .00233 .00256 80.25 40.35)" spreadMethod="pad" cx="0" cy="0" r="819.2" fx="0" fy="0"><stop offset="0" stop-color="#d3873d"/><stop offset=".992" stop-color="#f5c9ab"/></radialGradient><path d="M81.45 43.35l-.45.45-.25.15-.55-.1-.45.1v-.05l-.1.05.05-.2.5-.45v-.05l.05-.6q.6 0 .8-.6.15-.6-.15-.85.8-.95 1.4-1 .35 0 .55.75l.05.05-.2.4.05.3-.65 1.05-.6.65-.05-.05" fill="url(#a)"/><path d="M81.1 39.05l.8.1.35.1q1.7.55 1.25 2.15-.45 1.6-1.75 2.65l-.3.25-1.35.7-1.55.15" fill="none" stroke-width=".25" stroke-linecap="square" stroke-linejoin="bevel" stroke-miterlimit="3" stroke="#fd9e66"/><path d="M59.55 40.5l.15-.1.25.7-.4-.6" fill="#f8d2ba"/><path d="M59.4 39.05L61 42.6l.4 1 .05.05.7 1.6-.15.1-.3.15q-.5.3-2.1-.75l-.15-.1-.1-.05-.8-.65-.5-.65-.6-1-.3-1.05q-.35-1.85 1.9-2.1h.3l.05-.1m-.2 4.75l.3.6h.05l.65.2h.25l.3.05h.4v-.4l-.05-.1-.4-.35v-.05l-.05-.05v-.75h-.1q-.5 0-.6-.5-.1-.5.15-.65h.05v-.1q-.8-1.25-1.45-1.35-.55-.05-.85.8l.1.5.1.2q.2 1 1.15 1.95m.75-2.7l-.25-.7-.15.1.4.6" fill="#f7d2bb"/><path d="M59.2 43.75l.45.5.25.15h.55l.45.1-.05-.05.15.1-.05-.25-.45-.45v-.05q-.1-.25-.05-.65-.6-.05-.7-.65-.1-.6.2-.8-.7-1.05-1.3-1.15-.35 0-.6.7l-.05.05.05.4v.15l-.1-.2-.1-.5q.3-.85.85-.8.65.1 1.45 1.35v.1h-.05q-.25.15-.15.65t.6.5h.1v.75l.05.05v.05l.4.35.05.1v.4h-.4l-.3-.05h-.25l-.65-.2h-.05l-.3-.6v-.05" fill="#efb087"/><radialGradient id="b" gradientUnits="userSpaceOnUse" gradientTransform="matrix(.00351 -.00021 .00021 .00351 60.75 41.4)" spreadMethod="pad" cx="0" cy="0" r="819.2" fx="0" fy="0"><stop offset="0" stop-color="#d3873d"/><stop offset=".992" stop-color="#f5c9ab"/></radialGradient><path d="M59.2 43.8q-.95-.95-1.15-1.95v-.15l-.05-.4.05-.05q.25-.7.6-.7.6.1 1.3 1.15-.3.2-.2.8.1.6.7.65-.05.4.05.65v.05l.45.45.05.25-.15-.1.05.05-.45-.1h-.55l-.25-.15-.45-.5v.05" fill="url(#b)"/><path d="M59.35 39.15h-.3q-2.25.25-1.9 2.1l.3 1.05.6 1 .5.65.8.65.1.05.15.1q1.6 1.05 2.1.75l.3-.15" fill="none" stroke-width=".25" stroke-linecap="square" stroke-linejoin="bevel" stroke-miterlimit="3" stroke="#fd9e66"/><path d="M82.85 41.45q-.1.4.05-.05l.15-.5q-.2-.85-.75-.85-.7 0-1.6 1.2v.1l.05.05q.25.1.1.6t-.6.45h-.1l-.05.05v.05l-.1.65v.1l-.45.35-.05.05q-.15.3 0 .4l.3.05h.05l.35-.05.2.05h.05l.65-.15.35-.55.65-.7.65-1v-.3l.15-.4-.05.4m-1.7-2.35l.75.1.35.1q1.75.55 1.25 2.15-.45 1.6-1.7 2.65l-1.7.95-1.55.15-.1-.05.05-.1 1.1-2.6h.05l1.5-3.35" fill="#f7d2bb"/><path d="M81.45 43.45l-.35.55-.65.15h-.05l-.2-.05-.35.05h-.05l-.3-.05q-.15-.1 0-.4l.05-.05.45-.35v-.1l.1-.65v-.05l.05-.05h.1q.45.05.6-.45.15-.5-.1-.6l-.05-.05v-.1q.9-1.2 1.6-1.2.55 0 .75.85l-.15.5q-.15.45-.05.05l.05-.4-.05-.1q-.15-.7-.55-.7-.6 0-1.35 1 .25.2.1.85-.2.6-.75.55l-.1.65v.05l-.05.05-.45.4-.05.2.1-.05.45-.05.55.05.25-.1.45-.45h.05l-.05.05" fill="#efb087"/><radialGradient id="c" gradientUnits="userSpaceOnUse" gradientTransform="matrix(.00343 -.00313 .00233 .00256 80.25 40.4)" spreadMethod="pad" cx="0" cy="0" r="819.2" fx="0" fy="0"><stop offset="0" stop-color="#d3873d"/><stop offset=".992" stop-color="#f5c9ab"/></radialGradient><path d="M81.5 43.4h-.05l-.45.45-.25.1-.55-.05-.45.05-.1.05.05-.2.45-.4.05-.05v-.05l.1-.65q.55.05.75-.55.15-.65-.1-.85.75-1 1.35-1 .4 0 .55.7l.05.1-.15.4v.3l-.65 1-.65.7.05-.05" fill="url(#c)"/><path d="M81.15 39.1l.75.1.35.1q1.75.55 1.25 2.15-.45 1.6-1.7 2.65l-1.7.95-1.55.15" fill="none" stroke-width=".25" stroke-miterlimit="3" stroke="#fd9e66"/><path d="M60 41.1l-.45-.55.2-.1.25.65" fill="#f8d2ba"/><path d="M59.2 43.85l.25.5.05.1h.05l.65.2.25-.05.35.1h.35v-.45l-.05-.05-.4-.35v-.8l-.1-.05h-.05q-.5 0-.6-.5-.1-.5.2-.65l.05-.1-.05-.05q-.8-1.2-1.45-1.3-.55-.05-.85.8l.15.5.05.2q.2.95 1.15 1.95m.2-4.75l1.5 3.25.1.25.95 2.3.2.4-.15.1-.3.1q-.5.35-2.1-.7l-.25-.15-.75-.65-.55-.65-.55-1-.35-1.05q-.35-1.85 1.95-2.15h.25l.05-.05m.35 1.35l-.2.1.45.55-.25-.65" fill="#f7d2bb"/><radialGradient id="d" gradientUnits="userSpaceOnUse" gradientTransform="rotate(-3.116 708.219 -986.554) scale(.00353)" spreadMethod="pad" cx="0" cy="0" r="819.2" fx="0" fy="0"><stop offset="0" stop-color="#d3873d"/><stop offset=".992" stop-color="#f5c9ab"/></radialGradient><path d="M58.05 41.9l-.05-.55.05-.05q.25-.7.65-.7.55.1 1.25 1.1-.3.2-.2.85.15.6.75.65v.7l.45.45.05.2-.15-.05.05.05-.45-.15-.55.05-.25-.15-.4-.5-.05.05q-.95-1-1.15-1.95" fill="url(#d)"/><path d="M59.25 43.8l.4.5.25.15.55-.05.45.15-.05-.05.15.05-.05-.2-.45-.45v-.7q-.6-.05-.75-.65-.1-.65.2-.85-.7-1-1.25-1.1-.4 0-.65.7l-.05.05.05.55-.05-.2-.15-.5q.3-.85.85-.8.65.1 1.45 1.3l.05.05-.05.1q-.3.15-.2.65.1.5.6.5h.05l.1.05v.8l.4.35.05.05v.45h-.35l-.35-.1-.25.05-.65-.2h-.05l-.05-.1-.25-.5.05-.05" fill="#efb087"/><path d="M59.35 39.15h-.25q-2.3.3-1.95 2.15l.35 1.05.55 1 .55.65.75.65.25.15q1.6 1.05 2.1.7l.3-.1" fill="none" stroke-width=".25" stroke-miterlimit="3" stroke="#fd9e66"/><path d="M73.4 50.95l-1.3.7-.9.35-.65.15h-.5L69.4 52l-.9-.35-2.8-1.75q-1.2-.75-2.3-2.2v-.05l-1.65-2.75-1.6-3.95-.8-1.75Q58.2 31.8 61 28.3l.3-.45q.35-.7 2.65-2.5 2.3-1.75 6.95-1.65 5.3.5 8.6 4.55h.05v.05l.1.2q.9 1.15 1.35 2.75.9 3.15.2 7.8l-.05.1-.15.25-.5 1.6q-2.4 6.95-5.55 8.9l-1.55 1.05M65.1 49l.25.2-.2-.2h-.05" fill="#ffecd9"/><path d="M65.15 49l.2.2-.25-.2h.05" fill="#ffeddb"/><path d="M81.15 39.15l.05-.1q.7-4.65-.2-7.8-.45-1.6-1.35-2.75l-.1-.2v-.05M79.55 28.25h-.05m.05 0h-.05" fill="none" stroke-width=".2" stroke-linecap="round" stroke-miterlimit="3" stroke="#fd9e66"/><path d="M79.5 28.25q-3.3-4.05-8.6-4.55-4.65-.1-6.95 1.65-2.3 1.8-2.65 2.5l-.3.45q-2.8 3.5-1.65 10.9l.8 1.75" fill="none" stroke-width=".2" stroke-miterlimit="3" stroke="#fd9e66"/><path d="M60.15 40.95l1.6 3.95 1.65 2.75v.05q1.1 1.45 2.3 2.2l2.8 1.75.9.35.65.15h.15m1-.15l.9-.35 1.3-.7 1.5-1.05q1.2-.75 2.3-2.2v-.05l1.65-2.75L80.5 41" fill="none" stroke-width=".2" stroke-linecap="round" stroke-miterlimit="3" stroke="#fd9e66"/><path d="M80.5 41l.5-1.6.15-.25" fill="none" stroke-width=".2" stroke-miterlimit="3" stroke="#fd9e66"/><path d="M71.2 52l-.35.1-.3.05h-.35" fill="none" stroke-width=".2" stroke-linecap="round" stroke-miterlimit="3" stroke="#fd9e66"/><radialGradient id="e" gradientUnits="userSpaceOnUse" gradientTransform="matrix(.00555 0 0 .0039 76.15 43.55)" spreadMethod="pad" cx="0" cy="0" r="819.2" fx="0" fy="0"><stop offset="0" stop-color="#febcbc" stop-opacity=".6"/><stop offset="1" stop-color="#ffeddb" stop-opacity="0"/></radialGradient><path d="M78.45 45.2l-1.4 2.3-.05.05-.95 1.05q-1.9 0-3.2-1.3-1.3-1.3-1.3-3.2 0-1.85 1.3-3.15 1.35-1.35 3.2-1.35t3.2 1.35l.65.8v.05l-.3.7-1.15 2.7" fill="url(#e)"/><radialGradient id="f" gradientUnits="userSpaceOnUse" gradientTransform="matrix(.00555 0 0 .0039 63.1 43.7)" spreadMethod="pad" cx="0" cy="0" r="819.2" fx="99" fy="0"><stop offset="0" stop-color="#febcbc" stop-opacity=".6"/><stop offset="1" stop-color="#ffeddb" stop-opacity="0"/></radialGradient><path d="M66.2 41.1q1.3 1.3 1.3 3.2 0 1.85-1.3 3.15-.85.85-1.9 1.15l-.9-1-.05-.05q-.8-1-1.55-2.65v-.05l-1.7-3.95q1.2-1.1 2.9-1.1 1.9 0 3.2 1.3" fill="url(#f)"/><radialGradient id="g" gradientUnits="userSpaceOnUse" gradientTransform="matrix(.00087 0 0 .00087 77.6 42)" spreadMethod="pad" cx="0" cy="0" r="819.2" fx="0" fy="0"><stop offset="0" stop-color="#fff" stop-opacity=".373"/><stop offset="1" stop-color="#fff" stop-opacity="0"/></radialGradient><path d="M77.6 42.7l-.45-.25-.25-.45.25-.45q.2-.2.45-.2l.45.2.25.45-.25.45-.45.25" fill="url(#g)"/><radialGradient id="h" gradientUnits="userSpaceOnUse" gradientTransform="matrix(.00095 0 0 .00095 62.25 42.45)" spreadMethod="pad" cx="0" cy="0" r="819.2" fx="0" fy="0"><stop offset="0" stop-color="#fff" stop-opacity=".373"/><stop offset="1" stop-color="#fff" stop-opacity="0"/></radialGradient><path d="M61.75 41.95l.5-.25.5.25.2.5-.2.5-.5.25-.5-.25-.25-.5.25-.5" fill="url(#h)"/></g></svg>