<svg xmlns="http://www.w3.org/2000/svg" width="26" height="29"><g transform="translate(.1 .1)"><path d="M23.4 19.15l-.25.3-.25.15.1-.1.4-.35" fill="#f7d2bb"/><radialGradient id="a" gradientUnits="userSpaceOnUse" gradientTransform="translate(11.1 9.3) scale(.02182)" spreadMethod="pad" cx="0" cy="0" r="819.2" fx="0" fy="0"><stop offset=".02" stop-color="#f0c4b0"/><stop offset="1" stop-color="#ffeddb"/></radialGradient><path d="M2.25 14.3l-.05-.25.2.2-.15.05" fill="url(#a)"/><path d="M24.55 18.35l.05-.1v-.05l.1-.5q-.3-.9-.85-.8-.65.1-1.4 1.35l-.05.05.05.05v.05q.3.1.2.6-.1.5-.55.5h-.05l-.05.05h-.05v.85l-.4.35-.05.05v.45h.35v-.05l.35-.05h.25l.65-.2h.05l.05-.1.2-.5q.95-1 1.15-2M23.2 15.7h.25q2.3.2 1.95 2.05l-.3 1.1-.5 1-.55.6-.8.7-.05.05-.15.1q-1.6 1.05-2.1.75l-.3-.1-.15-.1.2-.4.5-1.2v-.05l.4-1.05.1-.15.05-.1.35-.95 1.05-2.35.05.1m-.35 1.25l-.25.7.4-.6-.15-.1" fill="#f7d2bb"/><path d="M23 17.05l-.4.6.25-.7.15.1" fill="#f8d2ba"/><path d="M23.2 20.85l-.05.1h-.05l-.65.2h-.25l-.35.05v.05h-.35v-.45l.05-.05.4-.35v-.85H22l.05-.05h.05q.45 0 .55-.5.1-.5-.2-.6v-.05l-.05-.05.05-.05q.75-1.25 1.4-1.35.55-.1.85.8l-.1.5v.05l-.05.1v-.5l-.05-.1q-.25-.7-.6-.65-.6.1-1.25 1.15.3.15.2.8-.15.6-.7.65V20.4h-.05l-.4.5-.05.2.15-.05h-.05l.45-.1h.55l.25-.15.2-.25.2-.25v.05l-.2.5" fill="#efb087"/><radialGradient id="b" gradientUnits="userSpaceOnUse" gradientTransform="matrix(-.0035 -.00015 -.00015 .0035 21.8 17.95)" spreadMethod="pad" cx="0" cy="0" r="819.2" fx="0" fy="0"><stop offset="0" stop-color="#d3873d"/><stop offset=".992" stop-color="#f5c9ab"/></radialGradient><path d="M23.4 20.35v-.05l-.2.25-.2.25-.25.15h-.55l-.45.1h.05l-.15.05.05-.2.4-.5h.05V19.7q.55-.05.7-.65.1-.65-.2-.8.65-1.05 1.25-1.15.35-.05.6.65l.05.1v.5q-.2 1-1.15 2" fill="url(#b)"/><path d="M23.2 15.7h.25q2.3.2 1.95 2.05l-.3 1.1-.5 1-.55.6-.8.7-.05.05-.15.1q-1.6 1.05-2.1.75l-.3-.1" fill="none" stroke-width=".25" stroke-linecap="round" stroke-linejoin="round" stroke-miterlimit="3" stroke="#fd9e66"/><path d="M2.4 17.1l.45.55-.25-.7-.2.15m-.15-1.5l1.1 2.35.35.9V19l.1.15.4 1 .05.05.45 1.2.2.4-.15.1-.3.15q-.5.3-2.1-.75l-.1-.1-.05-.05-.8-.7-.55-.6L.3 18.8l-.25-1.05q-.4-1.8 1.9-2.1l.25.05.05-.1M2 20.3l.25.55.05.15h.05l.65.15h.25l.35.05-.05.05.35-.05.05-.4-.05-.05-.4-.4v-.8l-.05-.05h-.1q-.5 0-.6-.5-.1-.5.2-.6v-.05l.1-.05-.05-.05Q2.2 17 1.55 16.9q-.55-.1-.8.8l.1.5V18.35q.2 1 1.15 1.95" fill="#f7d2bb"/><path d="M2.6 16.95l.25.7-.45-.55.2-.15" fill="#f8d2ba"/><path d="M2.05 20.25l.2.3.2.25.25.15h.55l.45.1h-.05l.15.05-.05-.25-.45-.45V19.7q-.6-.05-.75-.65-.1-.6.25-.8-.7-1.1-1.25-1.15-.4-.05-.6.65l-.1.05.05.45-.05.1V18.2l-.1-.5q.25-.9.8-.8.65.1 1.45 1.35l.05.05-.1.05v.05q-.3.1-.2.6.1.5.6.5h.1l.05.05V20.35l.4.4.05.05-.05.4-.35.05.05-.05-.35-.05H3L2.35 21H2.3l-.05-.15L2 20.3l.05-.05" fill="#efb087"/><radialGradient id="c" gradientUnits="userSpaceOnUse" gradientTransform="rotate(-3.282 414.25 -66.992) scale(.0035)" spreadMethod="pad" cx="0" cy="0" r="819.2" fx="0" fy="0"><stop offset="0" stop-color="#d3873d"/><stop offset=".992" stop-color="#f5c9ab"/></radialGradient><path d="M2 20.3q-.95-.95-1.15-1.95l.05-.1-.05-.45.1-.05q.2-.7.6-.65.55.05 1.25 1.15-.35.2-.25.8.15.6.75.65V20.4l.45.45.05.25-.15-.05h.05l-.45-.1H2.7l-.25-.15-.2-.25-.2-.3-.05.05" fill="url(#c)"/><path d="M2.2 15.7l-.25-.05q-2.3.3-1.9 2.1L.3 18.8l.55 1.05.55.6.8.7.05.05.1.1q1.6 1.05 2.1.75l.3-.15" fill="none" stroke-width=".25" stroke-linecap="round" stroke-linejoin="round" stroke-miterlimit="3" stroke="#fd9e66"/><path d="M23.3 15.35l-1 2.65-1.85 4.6-1.3 1.85-2.3 1.95-2.45 1.7-1.5.55h-.25q-.75 0-1.55-.55l-2.45-1.7-2.3-1.95-1.3-1.85q-.6-1-1.9-4.6l-.9-2.6Q.85 8.8 3.95 3.75l.6-.8Q5.8 1.25 7.6.6q1.75-.65 5.05-.55V0h.2v.05q3.2-.1 5.05.55 1.8.65 2.55 1.3.7.65 2.25 3.8t.6 9.65" fill="#ffecd9"/><path d="M23.3 15.35l-1 2.65-1.85 4.6-1.3 1.85-2.3 1.95-2.45 1.7-1.5.55h-.25q-.75 0-1.55-.55l-2.45-1.7-2.3-1.95-1.3-1.85q-.6-1-1.9-4.6l-.9-2.6m1.7-11.65l.6-.8Q5.8 1.25 7.6.6q1.75-.65 5.05-.55m.1-.05h.1v.05q3.2-.1 5.05.55 1.8.65 2.55 1.3.7.65 2.25 3.8" fill="none" stroke-width=".25" stroke-linecap="round" stroke-linejoin="round" stroke-miterlimit="3" stroke="#fd9e66"/><path d="M2.25 15.4Q.85 8.8 3.95 3.75M22.7 5.7q1.55 3.15.6 9.65" fill="none" stroke-width=".2" stroke-linecap="round" stroke-linejoin="round" stroke-miterlimit="3" stroke="#fd9e66"/><radialGradient id="d" gradientUnits="userSpaceOnUse" gradientTransform="translate(5.1 19.6) scale(.00688)" spreadMethod="pad" cx="0" cy="0" r="819.2" fx="0" fy="0"><stop offset="0" stop-color="#febcbc" stop-opacity=".6"/><stop offset="1" stop-color="#ffeddb" stop-opacity="0"/></radialGradient><path d="M2.75 16.85l.1-.1q1.3-1.3 3.15-1.3 1.9 0 3.2 1.3 1.3 1.3 1.3 3.15 0 1.85-1.3 3.15-1.3 1.3-2.55 1.3h-.3L5.3 23 4 20.55q-.6-1.4-1.25-3.7" fill="url(#d)"/><radialGradient id="e" gradientUnits="userSpaceOnUse" gradientTransform="matrix(-.00688 0 0 .00688 20.25 19.6)" spreadMethod="pad" cx="0" cy="0" r="819.2" fx="0" fy="0"><stop offset="0" stop-color="#febcbc" stop-opacity=".6"/><stop offset="1" stop-color="#ffeddb" stop-opacity="0"/></radialGradient><path d="M20.1 23l-1 1.35h-.35q-1.25 0-2.55-1.3-1.35-1.3-1.35-3.15 0-1.85 1.35-3.15 1.3-1.3 3.15-1.3 1.85 0 3.2 1.3l.1.1-1.25 3.7L20.1 23" fill="url(#e)"/><radialGradient id="f" gradientUnits="userSpaceOnUse" gradientTransform="matrix(.00095 0 0 .0007 5.55 17.35)" spreadMethod="pad" cx="0" cy="0" r="819.2" fx="0" fy="0"><stop offset="0" stop-color="#fff" stop-opacity=".373"/><stop offset="1" stop-color="#fff" stop-opacity="0"/></radialGradient><path d="M5.05 16.95l.5-.15.5.15.25.4-.25.35-.5.15-.5-.15-.25-.35.25-.4" fill="url(#f)"/><radialGradient id="g" gradientUnits="userSpaceOnUse" gradientTransform="matrix(.00087 0 0 .00064 20.9 17)" spreadMethod="pad" cx="0" cy="0" r="819.2" fx="0" fy="0"><stop offset="0" stop-color="#fff" stop-opacity=".373"/><stop offset="1" stop-color="#fff" stop-opacity="0"/></radialGradient><path d="M20.9 17.5l-.45-.15-.25-.35.25-.3.45-.2.45.2.2.3-.2.35-.45.15" fill="url(#g)"/></g></svg>