<svg xmlns="http://www.w3.org/2000/svg" width="220" height="296"><g transform="translate(115.4 139.15)"><path d="M100.15 15.2q-8.1 41.75-22.2 67.75-13.85 25.35-37.35 42.8-6.9 5.1-18.05 16.45-9.15 9.2-14.5 11.8-13.75 5.6-27.65 0-5.35-2.6-14.5-11.8-11.2-11.35-18.05-16.45-23.55-17.45-37.35-42.8-14.15-26-22.25-67.75Q-123.6-42.35-97-92.9q33.35-44.35 95.2-46.1 54.15-2.65 87.25 46.1 26.6 50.55 14.7 108.1" fill="#ffecd9"/><path d="M100.15 15.2q-8.1 41.75-22.2 67.75-13.85 25.35-37.35 42.8-6.9 5.1-18.05 16.45-9.15 9.2-14.5 11.8-13.75 5.6-27.65 0-5.35-2.6-14.5-11.8-11.2-11.35-18.05-16.45-23.55-17.45-37.35-42.8-14.15-26-22.25-67.75Q-123.6-42.35-97-92.9q33.35-44.35 95.2-46.1 54.15-2.65 87.25 46.1 26.6 50.55 14.7 108.1z" fill="none" stroke-width=".05" stroke-linecap="round" stroke-linejoin="round" stroke-miterlimit="3" stroke="#fd9e66"/><radialGradient id="a" gradientUnits="userSpaceOnUse" gradientTransform="matrix(.11061 0 0 .07898 -3.4 -69.35)" spreadMethod="pad" cx="0" cy="0" r="819.2" fx="0" fy="0"><stop offset="0" stop-color="#fff"/><stop offset="0" stop-color="#fffffe" stop-opacity=".851"/><stop offset="1" stop-color="#ffecd9" stop-opacity="0"/></radialGradient><path d="M62.45-109.2q8 8.1 11.05 19.35 2.6 9.5 2.6 28.55 0 3.35-10.7 8.6-10.05 5.05-16.6 5.9-5.5.8-26.25 10.55-19.65 9.2-28.8 9.2-10.95 0-34.75-9.1-18.6-7-31.05-13.75-7.7-4.2-9.75-7.1-3.3-4.55-3.3-15 0-10.65 3.9-22.25 2.45-7.45 7.5-12.8l11.05-10.15q8.2-7.85 26.55-13.15 16.45-4.75 30.25-4.7Q27.5-135.1 43-124.3q14.5 10.05 19.45 15.1" fill="url(#a)"/></g></svg>