<svg xmlns="http://www.w3.org/2000/svg" width="23" height="30"><g transform="translate(-59.3 -22.6)"><path d="M70.4 22.6q2.75-.05 5.15 1.05 2.55 1.15 4.25 3.4l.1.2q1.65 2.95 1.6 6.5 0 2-.55 4.25-1.35 5.5-2.2 7.6l-.7 1.2-.4.6-1.75 1.8-1.7 1.35-1.5 1.3q-.85.6-2.25.6-1.45 0-2.35-.6l-1.5-1.3-1.7-1.35-1.75-1.8-.4-.6-.65-1.2q-.85-2.1-2.25-7.6Q58.3 31.75 61 27.05q1.75-2.1 4.25-3.25 2.45-1.15 5.15-1.2" fill="#ffecd9"/><path d="M70.4 22.6q2.75-.05 5.15 1.05 2.55 1.15 4.25 3.4l.1.2q1.65 2.95 1.6 6.5 0 2-.55 4.25-1.35 5.5-2.2 7.6l-.7 1.2-.4.6-1.75 1.8-1.7 1.35-1.5 1.3q-.85.6-2.25.6-1.45 0-2.35-.6l-1.5-1.3-1.7-1.35-1.75-1.8-.4-.6-.65-1.2q-.85-2.1-2.25-7.6Q58.3 31.75 61 27.05q1.75-2.1 4.25-3.25 2.45-1.15 5.15-1.2z" fill="none" stroke-width=".05" stroke-linecap="round" stroke-linejoin="round" stroke-miterlimit="3" stroke="#fd9e66"/><radialGradient id="a" gradientUnits="userSpaceOnUse" gradientTransform="matrix(.01024 0 0 .0051 70.25 30.05)" spreadMethod="pad" cx="0" cy="0" r="819.2" fx="0" fy="0"><stop offset=".008" stop-color="#fef3ef"/><stop offset="1" stop-color="#fed" stop-opacity=".333"/></radialGradient><path d="M75.35 24.35q2.45 1.35 3.15 3.4.3.75.3 2.35 0 .55-.8 1.1-.8.6-2.05.7l-2.7.9q-2 .75-2.95.75-1.15 0-3.6-.75l-3.2-1.15q-1.35-.55-1.35-2.45 0-.85.4-1.85.6-1.4 1.9-2.4.85-.65 2.75-1.1l3.15-.4q3.45 0 5 .9" fill="url(#a)"/><radialGradient id="b" gradientUnits="userSpaceOnUse" gradientTransform="matrix(-.00215 .00652 -.00667 -.0008 80.35 42.7)" spreadMethod="pad" cx="0" cy="0" r="819.2" fx="0" fy="0"><stop offset="0" stop-color="#f59292" stop-opacity=".612"/><stop offset="1" stop-color="#ffecd9" stop-opacity=".38"/></radialGradient><path d="M80.5 39.6l-.6 2.25-1.1 3.5q-.55 1.35-1.25 2.1l-1.5 1.4-.65-.45-.95-1.1q-1.2-1.7-1.2-3.5l-.05-1.95.1-1.65q.05-.15.6-.4l.75-.3.7-.5.85-.15 1.45-.6 1.75-.6q1.25-.35 1.35.65l-.25 1.3" fill="url(#b)"/><radialGradient id="c" gradientUnits="userSpaceOnUse" gradientTransform="matrix(.0036 0 0 .00188 70.2 50.75)" spreadMethod="pad" cx="0" cy="0" r="819.2" fx="0" fy="0"><stop offset=".008" stop-color="#fef3ef"/><stop offset="1" stop-color="#fed" stop-opacity=".333"/></radialGradient><path d="M73.1 49.9l.1.85-.25.4-.75.3-.95.3-1.05.3-1.25-.3-1.15-.4q-.45-.2-.45-.9 0-.35.15-.7.2-.5.65-.9l1-.4 1.1-.1 1.75.3q.85.5 1.1 1.25" fill="url(#c)"/><radialGradient id="d" gradientUnits="userSpaceOnUse" gradientTransform="matrix(.00215 .00652 .00667 -.0008 60.5 42.8)" spreadMethod="pad" cx="0" cy="0" r="819.2" fx="0" fy="0"><stop offset="0" stop-color="#f59292" stop-opacity=".612"/><stop offset="1" stop-color="#ffecd9" stop-opacity=".38"/></radialGradient><path d="M67.5 40.25l.1 1.65v2q-.05 1.75-1.25 3.5l-.9 1.1q-.45.4-.7.45-.2.15-1.5-1.4-.7-.75-1.25-2.1l-1.1-3.5-.6-2.25-.15-1.05q.1-.9 1.25-.9l1.75.6 1.45.55.9.2.7.5.75.3.55.35" fill="url(#d)"/></g></svg>