<svg xmlns="http://www.w3.org/2000/svg" width="26" height="32"><g transform="translate(12.9 15.9)"><path d="M11.75 5.35l-.2.3-.55.85-.4.3-.5.1h-.3l-.1-.2q-.15-.2-.05-.8l.4-.35L10 5.5l1.05-1.25.65-.4.15-.4V3.4l.2-.4.15-.9q0-1.7-.9-1.75l-.5.05q.15-.55.3-.45l.35-.15.45-.05q.45-.1.8.7V.75l.05.1-.05.5q.1 1.75-.75 2.6l-1.4 1.25-.15.15q.7-.4 1.15-.35l.2.2v.15m0-5.4l.8.8V1l.05-.1q-.05-.7-.75-1l-.1.05m.7 2.05l-.3 1.1.45-.8V2h-.15m-1.7 3.75q-.65-.05-.8.75l.2.05h.15l.45-.15.2-.4.45-.55-.65.3M-11.85-.1q-.7.3-.75 1v.15l.05-.3.8-.8-.1-.05m.55.5q-.9 0-.9 1.75l.15.85.2.45v.05l.15.35.65.4 1.1 1.25-.1.05.4.35q.1.65-.05.8l-.05.15-.35.05-.5-.1-.35-.3-.6-.85-.15-.3V5.3l-.05-.05V5.2l.25-.2q.4-.05 1.05.35l-.1-.15-1.35-1.25q-.9-.8-.8-2.6l-.05-.45.05-.1V.7l.05-.1-.05-.1q.35-.85.8-.75l.45.05.35.15q.15-.05.35.45h-.55m-1.25 1.65l-.05.25q.25.75.5.8l-.35-1.1-.1.05m1.2 3.35l.4.65.2.35.45.2.15-.05.25-.05q-.15-.8-.8-.7l-.65-.4" fill="#f7d2bb"/><path d="M11.75 5.2l-.2-.2q-.45-.05-1.15.35l.15-.15 1.4-1.25q.85-.85.75-2.6l.05-.5.15.8-.3 2-.5 1.15-.35.55V5.2m-23.85-.4l-.5-1.15-.3-1.95.15-.8.05.45q-.1 1.8.8 2.6l1.35 1.25.1.15q-.65-.4-1.05-.35l-.25.2v.05l-.35-.45" fill="#f9c29f"/><path d="M11.85-.1q.7.3.75 1l-.05.1V.75l-.8-.8.1-.05M12.6 2v.3l-.45.8.3-1.1h.15m-1.2 3.45l-.45.55-.2.4-.45.15h-.15l-.2-.05q.15-.8.8-.75l.65-.3m-23.15-5.5l-.8.8-.05.3V.9q.05-.7.75-1l.1.05m-.7 2.05l.35 1.1q-.25-.05-.5-.8l.05-.25.1-.05m1.75 3.8q.65-.1.8.7l-.25.05-.15.05-.45-.2-.2-.35-.4-.65.65.4" fill="#f9e1d2"/><radialGradient id="a" gradientUnits="userSpaceOnUse" gradientTransform="matrix(-.00424 -.00084 -.00084 .00424 -10.5 2.5)" spreadMethod="pad" cx="0" cy="0" r="819.2" fx="0" fy="0"><stop offset="0" stop-color="#d7914a"/><stop offset=".62" stop-color="#f5c9ab"/></radialGradient><path d="M-9.65 5.9l-.4-.35.1-.05-1.1-1.25-.65-.4-.15-.35v-.05l-.2-.45-.15-.85q0-1.75.9-1.75h.55q.4.9.5 1.6l.25 1.6.25 1.45.1.85" fill="url(#a)"/><radialGradient id="b" gradientUnits="userSpaceOnUse" gradientTransform="matrix(.00424 -.00084 .00084 .00424 10.5 2.45)" spreadMethod="pad" cx="0" cy="0" r="819.2" fx="0" fy="0"><stop offset="0" stop-color="#d7914a"/><stop offset=".62" stop-color="#f5c9ab"/></radialGradient><path d="M9.65 5.9l.1-.85L10 3.6l.25-1.6.55-1.6.5-.05q.9.05.9 1.75l-.15.9-.2.4v.05l-.15.4-.65.4L10 5.5l.05.05-.4.35" fill="url(#b)"/><path d="M10.8.4q.15-.55.3-.45l.35-.15.45-.05q.45-.1.8.7V.75l.05.1.15.8-.3 2-.5 1.15-.35.55-.2.3-.55.85-.4.3-.5.1h-.3l-.1-.2q-.15-.2-.05-.8l.1-.85L10 3.6l.25-1.6.55-1.6m-21.55 0q-.2-.5-.35-.45l-.35-.15-.45-.05q-.45-.1-.8.75l.05.1-.05.1v.1l-.05.1-.15.8.3 1.95.5 1.15.35.45.05.05v.05l.15.3.6.85.35.3.5.1.35-.05.05-.15q.15-.15.05-.8m-1.1-5.5q.4.9.5 1.6l.25 1.6.25 1.45.1.85" fill="none" stroke-width=".05" stroke-linecap="round" stroke-linejoin="round" stroke-miterlimit="3" stroke="#fd9e66"/><path d="M9.7 6.1l-.05.4.15 1.55-.05 1.05-.4 1.65-.8 1.35-.9.85-1.15.65-1.25.5-.7.2-.3.05h-.1l-.65.1q-1.3.65-2.8.75l-.85.05H-.45l-.3-.05q-1.5-.1-2.75-.75l-.7-.1h-.1l-.3-.05-.65-.2-1.25-.5-1.15-.65-.9-.85-.8-1.35-.45-1.65-.05-1.05.1-1.05.1-.55-.05-.35-1.25-5.65-.4-1.45-.3-3.05.1-2v-.05q.35-1.8 1.2-3.3l1.85-2.75q3.55-3.75 8.1-3.75l3.15.3q3 .6 5.1 2.7 2.05 2.15 2.95 4.2.7 1.6.9 3.4.2 2.05-.05 3.15L10.9 1.2l-1.2 5v-.1" fill="#ffecd9"/><path d="M9.7 6.2l1.2-5 .75-3.35q.25-1.1.05-3.15-.2-1.8-.9-3.4-.9-2.05-2.95-4.2-2.1-2.1-5.1-2.7l-3.15-.3q-4.55 0-8.1 3.75l-1.85 2.75q-.85 1.5-1.2 3.3v.05l-.1 2 .3 3.05.4 1.45L-9.7 6.1l.05.35-.1.55-.1 1.05.05 1.05.45 1.65.8 1.35.9.85 1.15.65 1.25.5.65.2.3.05h.1l.7.1q1.25.65 2.75.75l.3.05H-.15l.85-.05q1.5-.1 2.8-.75l.65-.1h.1l.3-.05.7-.2 1.25-.5 1.15-.65.9-.85.8-1.35.4-1.65.05-1.05-.15-1.55.05-.4" fill="none" stroke-width=".05" stroke-linecap="round" stroke-linejoin="round" stroke-miterlimit="3" stroke="#fd9e66"/><radialGradient id="c" gradientUnits="userSpaceOnUse" gradientTransform="matrix(.00055 .0044 -.00404 .00151 7.35 8.8)" spreadMethod="pad" cx="0" cy="0" r="819.2" fx="0" fy="0"><stop offset="0" stop-color="#fec1b4" stop-opacity=".69"/><stop offset="1" stop-color="#ffecd9" stop-opacity=".38"/></radialGradient><path d="M4.45 5.7l-.65.45q-.45.25-.55.55l-.1.75.35 1.05.8.95.2.85.2 1.5.5 1.25.2.3 2.05-.65q.9-.2 1.8-2.5 1-2.3-.25-4.5l-3.75-.2-.8.2" fill="url(#c)"/><radialGradient id="d" gradientUnits="userSpaceOnUse" gradientTransform="matrix(-.00055 .0044 .00404 .00151 -7.35 8.8)" spreadMethod="pad" cx="0" cy="0" r="819.2" fx="0" fy="0"><stop offset="0" stop-color="#fec1b4" stop-opacity=".69"/><stop offset="1" stop-color="#ffecd9" stop-opacity=".38"/></radialGradient><path d="M-4.45 5.7l.65.45q.45.25.55.55l.1.75-.35 1.05-.8.95-.2.85-.2 1.5-.5 1.25-.2.3-2.05-.65q-.9-.2-1.8-2.5-1-2.3.25-4.5l3.75-.2.8.2" fill="url(#d)"/><radialGradient id="e" gradientUnits="userSpaceOnUse" gradientTransform="matrix(.00989 0 0 .01025 6.6 -7.25)" spreadMethod="pad" cx="0" cy="0" r="819.2" fx="0" fy="0"><stop offset="0" stop-color="#fff" stop-opacity=".643"/><stop offset="1" stop-color="#fff" stop-opacity="0"/></radialGradient><path d="M10.3-.15h-.05l.25-2.25q0-3.6-1.85-6.9-2.3-4.15-6.3-5.15h.45q3.7.65 6 4.05 2.05 2.95 2.05 5.95l-.55 4.3" fill="url(#e)"/><radialGradient id="f" gradientUnits="userSpaceOnUse" gradientTransform="matrix(.01025 0 0 .01062 -7.25 -6.8)" spreadMethod="pad" cx="0" cy="0" r="819.2" fx="0" fy="0"><stop offset="0" stop-color="#fff" stop-opacity=".502"/><stop offset="1" stop-color="#fff" stop-opacity="0"/></radialGradient><path d="M-8.65-9.1q-1.8 3.25-1.8 6.35 0 2 .55 3.35v.3h-.05q-.9-3.1-.9-5.65l.15-1.55q0-1.15 2.25-4.45 1.65-2.6 4.75-3.8h.05q-3.05 1.95-5 5.45" fill="url(#f)"/><radialGradient id="g" gradientUnits="userSpaceOnUse" gradientTransform="matrix(.01195 0 0 .01237 6.95 -11.4)" spreadMethod="pad" cx="0" cy="0" r="819.2" fx="0" fy="0"><stop offset="0" stop-color="#fff" stop-opacity=".161"/><stop offset="1" stop-color="#fff" stop-opacity="0"/></radialGradient><path d="M7.8-12q2.15 2.7 2.15 5.2 0 4.1-6.5 4.1-1.4 0-1.85-.35Q.95-3.55.4-5.4q-.65-2.05-.55-3.15l-.05-2.5q0-2.4.9-3.9l.1.05q6 1.75 7 2.9" fill="url(#g)"/></g></svg>