<svg xmlns="http://www.w3.org/2000/svg" width="27" height="7"><g transform="translate(-57.2 -37.4)"><path d="M81.3 42.95l-.2.25-.7.75-.5.2h-.45l-.3-.05-.1-.2q-.1-.2.1-.8l.5-.3-.05-.05 1.3-1 .7-.3.25-.3v-.05l.25-.35.3-.85q.3-1.7-.55-1.9l-.55-.05.5-.45.35-.05h.4q.5.05.65.9V38.7l-.1.55q-.3 1.75-1.3 2.35l-1.6 1-.15.1 1.15-.15.15.25-.05.15m1.1-5.25l.65.9-.05.25.05-.1q.1-.7-.55-1.1l-.1.05m.3 2.1l-.55 1.05.6-.75.05-.25-.1-.05m-2.4 3.35q-.65-.2-.95.6l.2.1.15.05.5-.1.25-.35.5-.5-.65.2" fill="#f7d2bb"/><path d="M81.35 42.8l-.15-.25-1.15.15.15-.1 1.6-1q1-.6 1.3-2.35l.1-.55v.9l-.7 1.85-.7 1.05-.5.45.05-.15" fill="#f9c29f"/><path d="M82.5 37.65q.65.4.55 1.1l-.05.1.05-.25-.65-.9.1-.05m.3 2.2l-.05.25-.6.75.55-1.05.1.05m-1.85 3.1l-.5.5-.25.35-.5.1-.15-.05-.2-.1q.3-.8.95-.6l.65-.2" fill="#f9e1d2"/><radialGradient id="a" gradientUnits="userSpaceOnUse" gradientTransform="matrix(.00433 0 0 .00433 80.65 39.9)" spreadMethod="pad" cx="0" cy="0" r="819.2" fx="0" fy="0"><stop offset="0" stop-color="#d7914a"/><stop offset=".62" stop-color="#f5c9ab"/></radialGradient><path d="M79.15 43.1l.25-.8.55-1.35.6-1.55.75-1.45.55.05q.85.2.55 1.9l-.3.85-.25.35v.05l-.25.3-.7.3-1.3 1 .05.05-.5.3" fill="url(#a)"/><path d="M81.3 37.95l.5-.45.35-.05h.4q.5.05.65.9v1.25l-.7 1.85-.7 1.05-.5.45-.2.25-.7.75-.5.2h-.45l-.3-.05-.1-.2q-.1-.2.1-.8l.25-.8.55-1.35.6-1.55.75-1.45z" fill="none" stroke-width=".05" stroke-linecap="round" stroke-linejoin="round" stroke-miterlimit="3" stroke="#fd9e66"/><path d="M59.15 42.9l.2.25.7.75.5.2H61l.3-.05.1-.2-.1-.8-.5-.3.05-.05-1.3-1-.7-.3-.25-.3v-.05l-.25-.35-.3-.85q-.3-1.7.55-1.9l.55-.05-.5-.45-.35-.05h-.4q-.5.05-.65.9V38.65l.1.55q.3 1.75 1.3 2.35l1.6 1 .15.1-1.15-.15q-.2.05-.15.25l.05.15m-1.1-5.25l-.65.9.05.25-.05-.1q-.1-.7.55-1.1l.1.05m-.3 2.1l.55 1.05-.6-.75-.05-.25.1-.05m2.4 3.35q.65-.2.95.6l-.2.1-.15.05-.5-.1-.25-.35-.5-.5.65.2" fill="#f7d2bb"/><path d="M59.1 42.75q-.05-.2.15-.25l1.15.15-.15-.1-1.6-1q-1-.6-1.3-2.35l-.1-.55v.9l.7 1.85q.3.7.7 1.05l.5.45-.05-.15" fill="#f9c29f"/><path d="M57.95 37.6q-.65.4-.55 1.1l.05.1-.05-.25.65-.9-.1-.05m-.3 2.2l.05.25.6.75-.55-1.05-.1.05m1.85 3.1l.5.5.25.35.5.1.15-.05.2-.1q-.3-.8-.95-.6l-.65-.2" fill="#f9e1d2"/><radialGradient id="b" gradientUnits="userSpaceOnUse" gradientTransform="matrix(-.00433 0 0 .00433 59.8 39.85)" spreadMethod="pad" cx="0" cy="0" r="819.2" fx="0" fy="0"><stop offset="0" stop-color="#d7914a"/><stop offset=".62" stop-color="#f5c9ab"/></radialGradient><path d="M61.3 43.05l-.25-.8-.55-1.35-.6-1.55-.75-1.45-.55.05q-.85.2-.55 1.9l.3.85.25.35v.05l.25.3.7.3 1.3 1-.05.05.5.3" fill="url(#b)"/><path d="M59.15 37.9l-.5-.45-.35-.05h-.4q-.5.05-.65.9v1.25l.7 1.85q.3.7.7 1.05l.5.45.2.25.7.75.5.2H61l.3-.05.1-.2-.1-.8-.25-.8-.55-1.35-.6-1.55-.75-1.45z" fill="none" stroke-width=".05" stroke-linecap="round" stroke-linejoin="round" stroke-miterlimit="3" stroke="#fd9e66"/></g></svg>