<svg xmlns="http://www.w3.org/2000/svg" width="26" height="32"><g transform="translate(12.9 15.55)"><path d="M11.55 6.1l-.2.25-.6.8-.4.25-.45.1h-.3l-.15-.2v-.75l.45-.4-.05-.05q.5-.8 1.1-1.15l.65-.4.25-.35-.05-.05.2-.4.2-.9q.05-1.65-.8-1.75l-.55.05q.25-.55.4-.55l.35-.1.4-.05q.5 0 .8.8V1.4l.05.1v.05l-.05.6q-.05 1.75-.95 2.5L10.4 5.9l-.15.1q.7-.35 1.1-.3l.2.2v.2M11.9.7l.75.8v.25l.05-.1q0-.7-.7-1l-.1.05m.6 2.05l-.4 1.1.5-.85v-.25h-.1M10.55 6.4q-.6-.1-.8.7l.2.05.15.05.45-.15.2-.35.45-.55-.65.25" fill="#f7d2bb"/><path d="M11.55 5.9l-.2-.2q-.4-.05-1.1.3l.15-.1 1.45-1.25q.9-.75.95-2.5l.05-.6.1.9-.45 1.95-.55 1.15-.4.55v-.2" fill="#f9c29f"/><path d="M12 .65q.7.3.7 1l-.05.1V1.5L11.9.7l.1-.05m.6 2.1V3l-.5.85.4-1.1h.1m-1.4 3.4l-.45.55-.2.35-.45.15-.15-.05-.2-.05q.2-.8.8-.7l.65-.25" fill="#f9e1d2"/><radialGradient id="a" gradientUnits="userSpaceOnUse" gradientTransform="rotate(-8.013 26.998 -72.265) scale(.00433)" spreadMethod="pad" cx="0" cy="0" r="819.2" fx="0" fy="0"><stop offset="0" stop-color="#d7914a"/><stop offset=".62" stop-color="#f5c9ab"/></radialGradient><path d="M9.45 6.55l.15-.85.3-1.45.4-1.6.55-1.5.55-.05q.85.1.8 1.75l-.2.9-.2.4.05.05-.25.35-.65.4q-.6.35-1.1 1.15l.05.05-.45.4" fill="url(#a)"/><path d="M10.85 1.15q.25-.55.4-.55l.35-.1.4-.05q.5 0 .8.8V1.4l.05.1v.05l.1.9-.45 1.95-.55 1.15-.4.55-.2.25-.6.8-.4.25-.45.1h-.3l-.15-.2v-.75l.15-.85.3-1.45.4-1.6.55-1.5z" fill="none" stroke-width=".05" stroke-linecap="round" stroke-linejoin="round" stroke-miterlimit="3" stroke="#fd9e66"/><path d="M-11.5 5.9l.15-.25q.45-.05 1.15.35l-.15-.15-1.45-1.2q-.9-.75-1-2.55v-.65l.05-.1v-.1q.25-.85.75-.8l.4.05.35.1.45.5h-.55q-.9.05-.8 1.75l.15.9.2.4v.05l.2.3.7.4 1.15 1.2-.05.05.45.35v.8l-.15.2h-.3l-.45-.05-.5-.25-.6-.85-.15-.3V5.9m1 1.15l.5.2.15-.05.2-.05q-.2-.85-.85-.75l-.65-.3.45.55.2.4m-1.45-6.4q-.7.3-.7 1l.05.1-.05-.25.8-.8-.1-.05m-.6 2.1V3l.5.85-.4-1.15-.1.05" fill="#f7d2bb"/><path d="M-11.5 6.05l-.45-.5-.55-1.15-.4-1.95.1-.8v.45q.1 1.8 1 2.55l1.45 1.2.15.15q-.7-.4-1.15-.35l-.15.25v.15" fill="#f9c29f"/><radialGradient id="b" gradientUnits="userSpaceOnUse" gradientTransform="matrix(-.00429 -.00061 -.00061 .00429 -10.4 3.1)" spreadMethod="pad" cx="0" cy="0" r="819.2" fx="0" fy="0"><stop offset="0" stop-color="#d7914a"/><stop offset=".62" stop-color="#f5c9ab"/></radialGradient><path d="M-9.8 6.15l.05-.05-1.15-1.2-.7-.4-.2-.3v-.05l-.2-.4-.15-.9q-.1-1.7.8-1.75h.55l.55 1.5.4 1.65.35 1.4.15.85-.45-.35" fill="url(#b)"/><path d="M-10.7 6.65l-.45-.55.65.3q.65-.1.85.75l-.2.05-.15.05-.5-.2-.2-.4M-11.85.7l-.8.8.05.25-.05-.1q0-.7.7-1l.1.05m-.6 2l.4 1.15-.5-.85v-.25l.1-.05" fill="#f9e1d2"/><path d="M-9.35 6.5l-.15-.85-.35-1.4-.4-1.65-.55-1.5m1.45 5.4v.8l-.15.2h-.3l-.45-.05-.5-.25-.6-.85-.15-.3-.45-.5-.55-1.15-.4-1.95.1-.8v-.2l.05-.1v-.1q.25-.85.75-.8l.4.05.35.1.45.5" fill="none" stroke-width=".05" stroke-linecap="round" stroke-linejoin="round" stroke-miterlimit="3" stroke="#fd9e66"/><path d="M10.1 4.8v-.15l-.05.15-.2 1.5Q9.6 8 9.05 9.05q-.65 1.2-2.5 2.8L2.6 15.1q-1 .65-2.5.6H.05q-1.5.05-2.5-.6l-3.95-3.25q-1.9-1.6-2.5-2.8l-.75-2.45-.05-.3v-.15l-.2-1.3V4.7l-.05.15-.1.05-.75-2.75-.1-.4-.5-2.15-.3-2.45v-.65l.3-2.35q.35-1.8 1.2-3.3.75-1.5 1.95-2.7 3.4-3.75 8.3-3.7 4.85-.05 8.3 3.7 3.45 3.7 3.5 9L11.2 1.1l-.1.25-.85 3.5-.15-.05" fill="#ffecd9"/><radialGradient id="c" gradientUnits="userSpaceOnUse" gradientTransform="matrix(.01282 0 0 .01299 -.45 -19.5)" spreadMethod="pad" cx="0" cy="0" r="819.2" fx="41" fy="0"><stop offset="0" stop-color="#fff"/><stop offset=".988" stop-color="#ffecd9"/></radialGradient><path d="M-10.05 4.9l.1-.05h.05l.2 1.3-.35-1.25m20.15-.1l.15.05-.4 1.45.2-1.5h.05" fill="url(#c)"/><path d="M10.25 4.85l.85-3.5.1-.25.65-3.95q-.05-5.3-3.5-9-3.45-3.75-8.3-3.7-4.9-.05-8.3 3.7-1.2 1.2-1.95 2.7-.85 1.5-1.2 3.3l-.3 2.35v.65l.3 2.45.5 2.15.1.4.75 2.75.35 1.25v.15l.05.3.75 2.45q.6 1.2 2.5 2.8l3.95 3.25q1 .65 2.5.6H.1q1.5.05 2.5-.6l3.95-3.25q1.85-1.6 2.5-2.8.55-1.05.8-2.75m.4-1.45l-.4 1.45" fill="none" stroke-width=".05" stroke-linecap="round" stroke-linejoin="round" stroke-miterlimit="3" stroke="#fd9e66"/><radialGradient id="d" gradientUnits="userSpaceOnUse" gradientTransform="matrix(.00061 .00525 -.00449 .00179 7.5 5.6)" spreadMethod="pad" cx="0" cy="0" r="819.2" fx="0" fy="0"><stop offset="0" stop-color="#fec1b4" stop-opacity=".69"/><stop offset="1" stop-color="#ffecd9" stop-opacity=".38"/></radialGradient><path d="M9.7 2.15q.1 4.4-.45 5.9-.6 1.4-2 2.95L5.9 12.05v-.4l-.75-1L4.6 9.2l-.25-1.85q.05-.75-.2-1l-.9-1.1L2.85 4l.1-.95.6-.65.75-.55.9-.2 4.15.2.35.3" fill="url(#d)"/><radialGradient id="e" gradientUnits="userSpaceOnUse" gradientTransform="matrix(-.00061 .00525 .00449 .00179 -7.35 5.6)" spreadMethod="pad" cx="0" cy="0" r="819.2" fx="0" fy="0"><stop offset="0" stop-color="#fec1b4" stop-opacity=".69"/><stop offset="1" stop-color="#ffecd9" stop-opacity=".38"/></radialGradient><path d="M-9.55 2.15q-.1 4.4.45 5.9.6 1.4 2 2.95l1.35 1.05v-.4l.75-1 .55-1.45.25-1.85.2-1 .9-1.1.4-1.25-.1-.95-.6-.65-.75-.55-.9-.2-4.15.2-.35.3" fill="url(#e)"/><radialGradient id="f" gradientUnits="userSpaceOnUse" gradientTransform="matrix(.01035 0 0 .01047 6.95 -7.35)" spreadMethod="pad" cx="0" cy="0" r="819.2" fx="0" fy="0"><stop offset="0" stop-color="#fff" stop-opacity=".643"/><stop offset="1" stop-color="#fff" stop-opacity="0"/></radialGradient><path d="M10.8-.05h-.05l.3-2.3q0-3.7-1.95-7.1-2.4-4.2-6.6-5.2h.45q3.9.6 6.3 4.1 2.15 3 2.15 6.1 0 1.35-.6 4.4" fill="url(#f)"/><radialGradient id="g" gradientUnits="userSpaceOnUse" gradientTransform="matrix(.01073 0 0 .01085 -7.5 -6.85)" spreadMethod="pad" cx="0" cy="0" r="819.2" fx="0" fy="0"><stop offset="0" stop-color="#fff" stop-opacity=".502"/><stop offset="1" stop-color="#fff" stop-opacity="0"/></radialGradient><path d="M-8.95-9.2q-1.9 3.35-1.9 6.45 0 2.05.55 3.45V1h-.05q-.95-3.15-.95-5.75l.15-1.6q0-1.2 2.4-4.55 1.7-2.65 4.95-3.85h.05q-3.2 2-5.2 5.55" fill="url(#g)"/><radialGradient id="h" gradientUnits="userSpaceOnUse" gradientTransform="matrix(.01248 0 0 .01263 7.4 -11.65)" spreadMethod="pad" cx="0" cy="0" r="819.2" fx="0" fy="0"><stop offset="0" stop-color="#fff" stop-opacity=".161"/><stop offset="1" stop-color="#fff" stop-opacity="0"/></radialGradient><path d="M10.55-6.95q0 4.2-6.8 4.2l-1.9-.3q-.7-.55-1.3-2.4-.7-2.1-.6-3.25l-.05-2.55q0-2.45.95-4l.1.05q6.3 1.8 7.35 3 2.25 2.7 2.25 5.25" fill="url(#h)"/></g></svg>