<svg width="27" height="33" xmlns="http://www.w3.org/2000/svg">
 <defs>
  <linearGradient y2="0.4325" y1="0.598913" x2="0.760622" x1="-0.470426" id="a">
   <stop stop-color="#fab89d" offset="0"/>
   <stop stop-color="#ffecd9" offset="1"/>
  </linearGradient>
  <linearGradient y2="0.497109" y1="0.787388" x2="0.769475" x1="1.431418" id="b">
   <stop stop-color="#faa684" offset="0"/>
   <stop stop-color="#ffecd9" offset="1"/>
  </linearGradient>
  <linearGradient y2="0.432529" y1="0.603442" x2="1.411984" x1="-0.510885" id="c">
   <stop stop-color="#faa684" offset="0"/>
   <stop stop-color="#ffecd9" offset="1"/>
  </linearGradient>
  <linearGradient y2="0.350431" y1="0.76396" x2="-0.309017" x1="1.70485" id="d">
   <stop stop-color="#faa684" offset="0"/>
   <stop stop-color="#ffecd9" offset="1"/>
  </linearGradient>
  <radialGradient fy="0" fx="0" r="819.2" cy="0" cx="0" spreadMethod="pad" gradientTransform="matrix(0.014539999887347221,0,0,0.014539999887347221,2.299997329711914,31.599998474121094)" gradientUnits="userSpaceOnUse" id="e">
   <stop stop-color="#fab89d" offset="0"/>
   <stop stop-color="#ffecd9" offset="1"/>
  </radialGradient>
  <linearGradient y2="0.441717" y1="0.340892" x2="0.471577" x1="1.473482" id="f">
   <stop stop-color="#fab89d" offset="0"/>
   <stop stop-color="#ffecd9" offset="1"/>
  </linearGradient>
  <linearGradient y2="0.656069" y1="0.719727" x2="0.32744" x1="-0.355808" id="g">
   <stop stop-color="#fab89d" offset="0"/>
   <stop stop-color="#ffecd9" offset="1"/>
  </linearGradient>
  <radialGradient fy="0" fx="48" r="819.2" cy="0" cx="0" spreadMethod="pad" gradientTransform="matrix(-0.005229999776929617,-0.003109999932348728,-0.003389999968931079,0.006130000110715628,21.549999237060547,20.649999618530273)" gradientUnits="userSpaceOnUse" id="h">
   <stop stop-opacity="0.451" stop-color="#ff9c9c" offset="0"/>
   <stop stop-opacity="0.231" stop-color="#ffc1bf" offset="0.565"/>
   <stop stop-opacity="0" stop-color="#ffeddb" offset="1"/>
  </radialGradient>
  <radialGradient fy="0" fx="0" r="819.2" cy="0" cx="0" spreadMethod="pad" gradientTransform="matrix(0.005229999776929617,-0.003109999932348728,0.003389999968931079,0.006130000110715628,6.0499958992004395,20.849998474121094)" gradientUnits="userSpaceOnUse" id="i">
   <stop stop-opacity="0.451" stop-color="#ff9c9c" offset="0"/>
   <stop stop-opacity="0.231" stop-color="#ffc1bf" offset="0.565"/>
   <stop stop-opacity="0" stop-color="#ffeddb" offset="1"/>
  </radialGradient>
  <radialGradient fy="0" fx="0" r="819.2" cy="0" cx="0" spreadMethod="pad" gradientTransform="matrix(0.0032500000670552254,0.0002899999963119626,-0.0002899999963119626,0.0032500000670552254,23.299999237060547,19)" gradientUnits="userSpaceOnUse" id="j">
   <stop stop-color="#d3873d" offset="0"/>
   <stop stop-color="#f5c9ab" offset="0.992"/>
  </radialGradient>
  <radialGradient fy="0" fx="0" r="819.2" cy="0" cx="0" spreadMethod="pad" gradientTransform="matrix(-0.0032500000670552254,0.0002899999963119626,0.0002899999963119626,0.0032500000670552254,3.599996566772461,19.049999237060547)" gradientUnits="userSpaceOnUse" id="k">
   <stop stop-color="#d3873d" offset="0"/>
   <stop stop-color="#f5c9ab" offset="0.992"/>
  </radialGradient>
  <radialGradient fy="0" fx="0" r="819.2" cy="0" cx="0" spreadMethod="pad" gradientTransform="matrix(0.01209999993443489,0,0,0.011719999834895134,20.549999237060547,3.6999998092651367)" gradientUnits="userSpaceOnUse" id="l">
   <stop stop-opacity="0.161" stop-color="#fff" offset="0"/>
   <stop stop-opacity="0" stop-color="#fff" offset="1"/>
  </radialGradient>
  <radialGradient fy="0" fx="41" r="819.2" cy="0" cx="0" spreadMethod="pad" gradientTransform="matrix(0.012439999729394913,0,0,0.01205000001937151,12.949995994567871,-3.6499996185302734)" gradientUnits="userSpaceOnUse" id="m">
   <stop stop-color="#fff" offset="0"/>
   <stop stop-color="#ffecd9" offset="0.988"/>
  </radialGradient>
  <radialGradient fy="0" fx="0" r="819.2" cy="0" cx="0" spreadMethod="pad" gradientTransform="matrix(0.01001999992877245,0,0,0.009700000286102295,20.149999618530273,7.699999809265137)" gradientUnits="userSpaceOnUse" id="n">
   <stop stop-opacity="0.643" stop-color="#fff" offset="0"/>
   <stop stop-opacity="0" stop-color="#fff" offset="1"/>
  </radialGradient>
  <radialGradient fy="0" fx="0" r="819.2" cy="0" cx="0" spreadMethod="pad" gradientTransform="matrix(0.010400000028312206,0,0,0.01006999984383583,6.149995803833008,8.149999618530273)" gradientUnits="userSpaceOnUse" id="o">
   <stop stop-opacity="0.502" stop-color="#fff" offset="0"/>
   <stop stop-opacity="0" stop-color="#fff" offset="1"/>
  </radialGradient>
  <radialGradient fy="0" fx="0" r="819.2" cy="0" cx="0" spreadMethod="pad" gradientTransform="matrix(0.011610000394284725,0,0,0.011250000447034836,13.099995613098145,3.799999237060547)" gradientUnits="userSpaceOnUse" id="p">
   <stop stop-opacity="0.502" stop-color="#fff" offset="0"/>
   <stop stop-opacity="0" stop-color="#fff" offset="1"/>
  </radialGradient>
 </defs>
 <g>
  <title>background</title>
  <rect fill="none" id="canvas_background" height="3.874997" width="3.499998" y="-1" x="-1"/>
 </g>
 <g>
  <title>Layer 1</title>
  <g id="svg_1">
   <path id="svg_2" fill="#ffecd9" d="m21.049999,20.349998l-0.349998,1.450001l-0.300001,0.75l-0.4,1.049999l-0.6,1l0,0.100002l-0.75,0.799999l-1.15,0.950001l-0.450001,-0.100002l-0.549999,-0.199999q-1.000004,-0.4 -1.300004,-0.35q-1.4,1.450001 -1.5,1.85q-0.1,0.4 0.9,1.1q0.95,0.700001 1.2,1.5l0.1,0.450001l-0.299999,0.399998q-0.8,0.950001 -2.000001,0.700001l-0.95,-0.4l-1.299999,-0.699999l0,-0.400002q0.249999,-0.849998 1.249999,-1.549999q1,-0.700001 0.900001,-1.1l-1.400001,-1.800001q0.450001,-1.949999 1.3,-2.399998l-2.15,-0.400002l-2,0.700001l-0.65,-0.150002l-0.950001,-1.349998l-0.95,-2.1l-1.15,-3.1l-0.55,-1.65l0.2,-0.55l0.3,-0.849999l1.2,-1.950001l0.2,-0.45q1.700001,-1.849999 1.85,-3.75l0.4,-6.95q2,-0.799999 4.35,-0.799999l0.2,0l1.75,0.15l2.650004,0.799999l0.449999,5.1l0.1,2.2q0.200001,1.2 1.25,2.7l0.35,0.5l0.25,0.5l1.15,1.950001l0.35,0.75l0,0.099999l0.299999,0.900001l-0.099998,0.25l-1.150002,4.349998"/>
   <path id="svg_3" fill="url(#a)" d="m14.999996,32.150002l-0.7,0.199997l-0.75,0q-0.950001,0 -2,-0.649998l-1.2,-0.800001l-0.35,-0.300001l-1,-0.799999l-1.25,-1.099998l-0.7,-0.700001l-0.55,-2.85l0,-0.1l-0.95,-4.450001l-0.2,-0.749998q-0.25,-1.050001 -1.25,-3.1l-1.25,-2.1l-0.349999,-0.55l-0.150001,-0.5l-0.099999,-0.349999l2.399999,2.75l0.5,0.6l1,3.749998l0.05,0.25l0.3,1.200001l1.35,3.25l0.05,0.1l0.8,1.050001l0.45,0.349998l0.200001,0l1.299999,-0.4l1.400001,-0.35l0.049999,0.049999l1.400001,1.800001q0.099999,0.4 -0.900001,1.1q-1,0.700001 -1.249999,1.549999l0,0.400002l1.299999,0.699997l0.95,0.400002l0.85,0.25l0.55,0.099998"/>
   <path id="svg_4" fill="url(#b)" d="m14.449996,32.049999l-0.85,-0.25q1.200001,0.25 2.000001,-0.700001l0.299999,-0.399998l-0.1,-0.450001q-0.25,-0.799999 -1.2,-1.5q-1,-0.700001 -0.9,-1.1q0.1,-0.4 1.5,-1.85q0.3,-0.049999 1.300004,0.35l0.549999,0.199999l0.450001,0.100002l1.15,-0.950001l0.75,-0.799999l0,-0.100002l0.6,-1l0.4,-1.049999l0.300001,-0.75l0.349998,-1.450001l1.150002,-4.349998l1.899998,-2.05l0.150002,-0.150001l0.5,-0.5l-0.1,0.3l-0.1,0.400001l-0.049999,0.15l-0.049999,0.4l-0.050001,0l-1.300001,2.200001q-1,2.049999 -1.25,3.1l-0.649998,2.85l-0.150002,0.899998l-1.4,4.5l-2.15,2.150002l-0.1,0.15l-1.300001,1.15l-1.100002,0.600002l-0.55,-0.100002m-9.600001,-7.799999l-0.349999,-1.25l-0.1,-0.700001l-0.3,-1.4l0.3,1.4l0.45,1.950001m-2.349998,-10.150001l0,0.05l-0.150001,-0.55l0.150001,0.5m2.099998,-9.849999l0.8,-0.900001l0.65,-0.55l-0.65,0.55l-0.8,0.900001"/>
   <path id="svg_5" fill="url(#c)" d="m4.399996,22.299999l-0.3,-1.4l-1.599999,-6.75l0,-0.05l0.349999,0.55l1.25,2.1q1,2.049999 1.25,3.1l0.2,0.749998l0.95,4.450001l0,0.1l0.55,2.85l-1.5,-2.150002l-0.35,-0.699999l-0.2,-0.550001l-0.150001,-0.349998l-0.45,-1.950001"/>
   <path id="svg_6" fill="url(#d)" d="m24.450001,14.549999l-1.550001,6.35l-0.25,1.4l-0.15,0.700001l-0.400002,1.200001l-0.999998,1.949999l-1.450001,1.949999l1.4,-4.5l0.150002,-0.899998l0.649998,-2.85q0.25,-1.050001 1.25,-3.1l1.300001,-2.200001l0.050001,0"/>
   <path id="svg_7" fill="url(#e)" d="m12.049996,25.799999l-1.400001,0.35l-1.299999,0.4l-0.200001,0l-0.45,-0.349998l-0.8,-1.050001l-0.05,-0.1l-1.35,-3.25l-0.3,-1.200001l-0.05,-0.25l-1,-3.749998l-0.25,-0.85l0.1,-0.35l0.55,1.65l1.15,3.1l0.95,2.1l0.950001,1.349998l0.65,0.150002l2,-0.700001l2.15,0.400002q-0.849999,0.449999 -1.3,2.399998l-0.049999,-0.049999"/>
   <path id="svg_8" fill="url(#f)" d="m24.25,13.799999l-0.150002,0.150001l-1.899998,2.05l0.099998,-0.25l-0.299999,-0.900001l0,-0.099999l-0.35,-0.75l-1.15,-1.950001l-0.25,-0.5l-0.35,-0.5q-1.049999,-1.5 -1.25,-2.7l-0.1,-2.2l-0.449999,-5.1l1.15,0.55l1,0.650001l0.700001,0.549999l0.649998,0.55l0.800001,0.900001q2.949999,4 2.4,8.5l-0.049999,0.349999l0,0.2l-0.5,0.5"/>
   <path id="svg_9" fill="url(#g)" d="m4.649996,16l-2.399999,-2.75l0,-0.150001l-0.05,-0.349999q-0.600001,-4.5 2.399999,-8.5l0.8,-0.900001l0.65,-0.55l0.7,-0.549999l2.4,-1.35l-0.4,6.95q-0.15,1.900001 -1.85,3.75l-0.2,0.45l-1.2,1.950001l-0.3,0.849999l-0.2,0.55l-0.1,0.35l0.25,0.85l-0.5,-0.6"/>
   <path id="svg_10" stroke="#fd9e66" stroke-miterlimit="3" stroke-linejoin="round" stroke-linecap="round" stroke-width="0.05" fill="none" d="m24.75,13.299999l0,-0.2l0.049999,-0.349999q0.549999,-4.5 -2.4,-8.5l-0.800001,-0.900001l-0.649998,-0.55l-0.700001,-0.549999l-1,-0.650001l-1.15,-0.55m6.65,12.25l-0.1,0.3l-0.1,0.400001l-0.049999,0.15l-0.049999,0.4l-1.550001,6.35l-0.25,1.4l-0.15,0.700001l-0.400002,1.200001l-0.999998,1.949999l-1.450001,1.949999l-2.15,2.150002l-0.1,0.15l-1.300001,1.15l-1.100002,0.600002l-0.7,0.199997l-0.75,0q-0.950001,0 -2,-0.649998l-1.2,-0.800001l-0.35,-0.300001l-1,-0.799999l-1.25,-1.099998l-0.7,-0.700001l-1.5,-2.150002l-0.35,-0.699999l-0.2,-0.550001l-0.150001,-0.349998l-0.349999,-1.25l-0.1,-0.700001l-0.3,-1.4l-1.599999,-6.75l-0.150001,-0.55l-0.099999,-0.349999l0,-0.150001l-0.05,-0.349999q-0.600001,-4.5 2.399999,-8.5l0.8,-0.900001l0.65,-0.55l0.7,-0.549999l2.4,-1.35q2,-0.799999 4.35,-0.799999l0.2,0l1.75,0.15l2.650004,0.799999"/>
   <path id="svg_11" fill="url(#h)" d="m16.35,18.4q1.15,-2.1 3.199999,-2.75q2.049999,-0.8 3.85,0.25q1.75,1.049999 2.199999,3.25q0.400002,2.199999 -0.699999,4.300001q-1.15,2.099998 -3.25,2.849998q-2.1,0.700001 -3.799999,-0.299999q-1.750002,-1.1 -2.200005,-3.299999q-0.5,-2.25 0.700005,-4.300001"/>
   <path id="svg_12" fill="url(#i)" d="m11.449996,22.700001q-0.45,2.199999 -2.2,3.299999q-1.75,1 -3.8,0.299999q-2.099999,-0.75 -3.199999,-2.849998q-1.150001,-2.100002 -0.7,-4.300001q0.4,-2.200001 2.2,-3.25q1.749999,-1.05 3.849999,-0.25q2,0.65 3.15,2.75q1.2,2.050001 0.7,4.300001"/>
   <path id="svg_13" fill="#efb087" d="m25.9,18.85l-0.050001,-0.650002q-0.5,-0.75 -1.75,1.450001q-0.149998,0.9 -0.5,1.15q-0.349998,0.25 -0.349998,0.5l0.099998,0.400002l0,0.049999l-0.549999,0.9l0.85,-0.65l0.6,0l0.450001,-0.200001l0.599998,-0.799999l-0.4,0.849998l-0.699999,0.300001q-0.350002,0.050001 -0.650002,0.300001l-0.4,0.299999l-0.300001,0.099998l-0.199999,-0.199999l0.25,-0.5l0.15,-0.5q-0.049999,-0.65 0.150002,-0.800001q0.5,-0.449999 0.5,-0.9l0.299999,-1l0.799999,-0.9q0.6,-0.449999 0.85,-0.449999q0.550001,0.049999 0.5,0.799999l-0.300001,1.15l0.050001,-0.699999"/>
   <path id="svg_14" fill="#f7d2bb" d="m23.849998,17.049999l1.75,-0.299999q0.400002,0.049999 0.650002,0.35l0.099998,0.15l0.25,0.5l0,0.1l0.050001,0.4l-0.1,1.699999q-0.099998,0.85 -1.049999,1.950001l-1.1,1.1l-0.6,0.700001l-0.5,0.699999q-0.299999,0.35 -1.450001,0.550001l2,-7.900002m1.950001,2.75l0.049999,-0.25l0.300001,-1.15q0.050001,-0.75 -0.5,-0.799999q-0.25,0 -0.85,0.449999l-0.799999,0.9l-0.299999,1q0,0.450001 -0.5,0.9q-0.200001,0.150002 -0.150002,0.800001l-0.15,0.5l-0.25,0.5l0.199999,0.199999l0.300001,-0.099998l0.4,-0.299999q0.299999,-0.25 0.650002,-0.300001l0.699999,-0.300001l0.4,-0.849998l0.5,-1.200001"/>
   <path id="svg_15" fill="url(#j)" d="m25.299999,21l-0.599998,0.799999l-0.450001,0.200001l-0.6,0l-0.85,0.65l0.549999,-0.9l0,-0.049999l-0.099998,-0.400002q0,-0.25 0.349998,-0.5t0.5,-1.15q1.25,-2.200001 1.75,-1.450001l0.050001,0.650002l-0.050001,0.699999l-0.049999,0.25l-0.5,1.200001"/>
   <path id="svg_16" stroke="#fd9e66" stroke-miterlimit="3" stroke-linejoin="round" stroke-linecap="round" stroke-width="0.05" fill="none" d="m21.849998,24.950001q1.150002,-0.200001 1.450001,-0.550001l0.5,-0.699999l0.6,-0.700001l1.1,-1.1q0.950001,-1.1 1.049999,-1.950001l0.1,-1.699999l-0.050001,-0.4l0,-0.1l-0.25,-0.5l-0.099998,-0.15q-0.25,-0.300001 -0.650002,-0.35l-1.75,0.299999"/>
   <path id="svg_17" fill="#efb087" d="m0.799997,18.4q-0.05,-0.75 0.45,-0.75q0.3,-0.049999 0.9,0.4l0.8,0.85l0.35,1.049999q-0.05,0.4 0.45,0.9q0.25,0.150002 0.2,0.800001l0.149999,0.5l0.25,0.449999l-0.25,0.25l-0.299999,-0.149998l-0.35,-0.25q-0.35,-0.300001 -0.7,-0.300001l-0.650001,-0.35l-0.45,-0.799999l0.600001,0.799999l0.4,0.200001l0.650001,0.049999l0.849999,0.549999l-0.5,-0.849998l0,-0.049999l0.1,-0.400002q-0.05,-0.299999 -0.400001,-0.549999q-0.349999,-0.200001 -0.45,-1.15q-1.300001,-2.200001 -1.800001,-1.450001l-0.049999,0.700001l0.049999,0.699999l-0.299999,-1.15"/>
   <path id="svg_18" fill="#f7d2bb" d="m5.149996,24.950001l-1.449999,-0.550001l-0.05,0l-0.55,-0.699999l-0.5,-0.75l-1.15,-1.100002q-0.95,-1 -1.05,-1.9l-0.099999,-1.75l0.049999,-0.4l0,-0.049999l0.200001,-0.5l0.149999,-0.15q0.3,-0.35 0.7,-0.35q0.850001,-0.1 1.7,0.299999l2.049999,7.900002m-4.05,-5.400002l0.05,0.25l0.5,1.200001l0.45,0.799999l0.650001,0.35q0.349999,0 0.7,0.300001l0.35,0.25l0.299999,0.149998l0.25,-0.25l-0.25,-0.449999l-0.149999,-0.5q0.05,-0.65 -0.2,-0.800001q-0.5,-0.5 -0.45,-0.9l-0.35,-1.049999l-0.8,-0.85q-0.6,-0.449999 -0.9,-0.4q-0.5,0 -0.45,0.75l0.299999,1.15"/>
   <path id="svg_19" fill="url(#k)" d="m1.149996,19.799999l-0.05,-0.25l-0.049999,-0.699999l0.049999,-0.700001q0.5,-0.75 1.800001,1.450001q0.1,0.949999 0.45,1.15q0.35,0.25 0.400001,0.549999l-0.1,0.400002l0,0.049999l0.5,0.849998l-0.849999,-0.549999l-0.650001,-0.049999l-0.4,-0.200001l-0.600001,-0.799999l-0.5,-1.200001"/>
   <path id="svg_20" stroke="#fd9e66" stroke-miterlimit="3" stroke-linejoin="round" stroke-linecap="round" stroke-width="0.05" fill="none" d="m5.149996,24.950001l-1.449999,-0.550001l-0.05,0l-0.55,-0.699999l-0.5,-0.75l-1.15,-1.100002q-0.95,-1 -1.05,-1.9l-0.099999,-1.75l0.049999,-0.4l0,-0.049999l0.200001,-0.5l0.149999,-0.15q0.3,-0.35 0.7,-0.35q0.850001,-0.1 1.7,0.299999"/>
   <path id="svg_21" fill="url(#l)" d="m14.299996,0.4q6.100003,1.65 7.100003,2.8q2.199999,2.5 2.199999,4.9q0,3.85 -6.599998,3.85q-1.400003,0 -1.850004,-0.3q-0.65,-0.45 -1.25,-2.2q-0.65,-1.95 -0.55,-3l-0.049999,-2.400001q0,-2.299999 0.9,-3.7l0.1,0.05"/>
   <path id="svg_22" fill="url(#m)" d="m24.049999,14.549999l-0.15,-2.15q-0.15,-1.45 -1.35,-3.45l-1,-0.7q-1.15,-0.700001 -2.599998,-0.75q-3.000005,-0.3 -5.100004,2.2q-2.2,-2.5 -5.150001,-2.2q-3.15,0.2 -4.799999,2.9l-0.7,1.3l-0.15,1.849999l-0.05,0.85l0.15,1.65l-0.099999,0.550001q-0.650001,-1.400001 -0.900001,-3.300001l-0.05,-1.45l0,-0.65l0.25,-2.150001q0.35,-1.7 1.200001,-3.099999l1.849998,-2.45q3.3,-3.5 8.100001,-3.450001q4.700004,-0.049999 8.050004,3.450001q3.299999,3.4 3.35,8.35l-0.650002,3.699999l-0.200001,-1"/>
   <path id="svg_23" stroke="#fd9e66" stroke-miterlimit="3" stroke-linejoin="round" stroke-linecap="round" stroke-width="0.05" fill="none" d="m24.25,15.549999l0.65,-3.7q-0.050001,-4.95 -3.35,-8.349999q-3.349998,-3.5 -8.050003,-3.450001q-4.8,-0.050001 -8.1,3.450001l-1.849998,2.45q-0.85,1.4 -1.200001,3.099999l-0.25,2.150001l0,0.65l0.05,1.45q0.25,1.900001 0.900001,3.300001"/>
   <path id="svg_24" fill="url(#n)" d="m16.35,0.95q3.75,0.55 6.1,3.8q2.049999,2.75 2.049999,5.65l-0.549999,4.05l-0.050001,0l0.25,-2.1q0,-3.4 -1.85,-6.55q-2.349998,-3.95 -6.400003,-4.849999l0.450005,0"/>
   <path id="svg_25" fill="url(#o)" d="m9.799995,0.849999q-3.099999,1.8 -5.049999,5.150001q-1.849999,3.049999 -1.849999,6q0,1.849999 0.55,3.2l0,0.25l-0.05,0q-0.9,-2.95 -0.9,-5.35l0.15,-1.45q0,-1.15 2.299999,-4.2q1.65,-2.5 4.8,-3.6l0.049999,0"/>
   <path id="svg_26" fill="url(#p)" d="m20.4,2.599999l2.1,2.45q-0.5,2.35 -2.75,4.1q-2.75,2.25 -6.650004,2.25q-3.9,0 -6.7,-2.25q-2.449999,-2 -2.699999,-4.75l1.149999,-0.85q0.900001,-0.75 2.7,-1.75q1.75,-1.049999 3.5,-1.45l2.400001,-0.3l2.05,0.150001l1.400003,0.4l1.4,0.650001l2.1,1.349999"/>
  </g>
 </g>
</svg>