<svg width="25" height="33" xmlns="http://www.w3.org/2000/svg">
 <defs>
  <radialGradient fy="0" fx="0" r="819.2" cy="0" cx="0" spreadMethod="pad" gradientTransform="matrix(-0.002300000051036477,-0.0005799999926239252,-0.0014600000577047467,0.0056500001810491085,21.825000762939453,19.11250114440918)" gradientUnits="userSpaceOnUse" id="a">
   <stop stop-color="#e88b64" offset="0"/>
   <stop stop-color="#fdd7b9" offset="0.847"/>
  </radialGradient>
  <radialGradient fy="0" fx="0" r="819.2" cy="0" cx="0" spreadMethod="pad" gradientTransform="matrix(-0.0018500000005587935,-0.0006300000241026282,-0.0011599999852478504,0.005160000175237656,22.124996185302734,19.162500381469727)" gradientUnits="userSpaceOnUse" id="b">
   <stop stop-color="#c54b18" offset="0.02"/>
   <stop stop-color="#fcc7a5" offset="1"/>
  </radialGradient>
  <radialGradient fy="0" fx="0" r="819.2" cy="0" cx="0" spreadMethod="pad" gradientTransform="matrix(0.0018599999602884054,-0.0005799999926239252,0.0010000000474974513,0.005189999938011169,2.774993419647217,19.162500381469727)" gradientUnits="userSpaceOnUse" id="c">
   <stop stop-color="#c54b18" offset="0.02"/>
   <stop stop-color="#fcc7a5" offset="1"/>
  </radialGradient>
  <radialGradient fy="0" fx="0" r="819.2" cy="0" cx="0" spreadMethod="pad" gradientTransform="matrix(0.002319999970495701,-0.0005000000237487257,0.0012799999676644802,0.00570000009611249,3.024993419647217,19.11250114440918)" gradientUnits="userSpaceOnUse" id="d">
   <stop stop-color="#e88b64" offset="0"/>
   <stop stop-color="#fdd7b9" offset="0.847"/>
  </radialGradient>
  <radialGradient fy="0" fx="0" r="819.2" cy="0" cx="0" spreadMethod="pad" gradientTransform="matrix(0.005400000140070915,-0.0002699999895412475,0.0012499999720603228,0.025529999285936356,24.02499771118164,13.962498664855957)" gradientUnits="userSpaceOnUse" id="e">
   <stop stop-color="#fbc3a3" offset="0"/>
   <stop stop-color="#ffecd9" offset="0.831"/>
  </radialGradient>
  <radialGradient fy="0" fx="0" r="819.2" cy="0" cx="0" spreadMethod="pad" gradientTransform="matrix(0.015440000221133232,-0.0002099999983329326,0.00018000000272877514,0.01281999982893467,13.174993515014648,-1.8375002145767212)" gradientUnits="userSpaceOnUse" id="f">
   <stop stop-color="#fccfb3" offset="0"/>
   <stop stop-color="#ffecd9" offset="1"/>
  </radialGradient>
  <radialGradient fy="0" fx="48" r="819.2" cy="0" cx="0" spreadMethod="pad" gradientTransform="matrix(0.003449999960139394,-0.001449999981559813,0.007780000101774931,0.01810000091791153,2.874995708465576,24.36250114440918)" gradientUnits="userSpaceOnUse" id="g">
   <stop stop-color="#fbc5a7" offset="0.047"/>
   <stop stop-color="#ffecd9" offset="1"/>
  </radialGradient>
  <radialGradient fy="0" fx="0" r="819.2" cy="0" cx="0" spreadMethod="pad" gradientTransform="matrix(0.0026400000788271427,-0.0010999999940395355,0.001820000004954636,0.00430000014603138,9.374990463256836,14.16249942779541)" gradientUnits="userSpaceOnUse" id="h">
   <stop stop-color="#fac5af" offset="0.239"/>
   <stop stop-color="#ffeadd" offset="1"/>
  </radialGradient>
  <radialGradient fy="0" fx="128" r="819.2" cy="0" cx="0" spreadMethod="pad" gradientTransform="matrix(0.003000000026077032,0.001449999981559813,-0.009569999761879444,0.01964000053703785,21.124996185302734,25.11250114440918)" gradientUnits="userSpaceOnUse" id="i">
   <stop stop-color="#fbc5a7" offset="0.239"/>
   <stop stop-color="#ffecd9" offset="1"/>
  </radialGradient>
  <radialGradient fy="0" fx="0" r="819.2" cy="0" cx="0" spreadMethod="pad" gradientTransform="matrix(0.006909999996423721,-0.00009999999747378752,0.000029999999242136255,0.002520000096410513,12.424993515014648,33.0625)" gradientUnits="userSpaceOnUse" id="j">
   <stop stop-color="#fbc5a7" offset="0.047"/>
   <stop stop-color="#ffecd9" offset="1"/>
  </radialGradient>
  <radialGradient fy="0" fx="210518" r="819.2" cy="0" cx="0" spreadMethod="pad" gradientTransform="matrix(0.0066200001165270805,0.001019999966956675,-0.003449999960139394,0.022199999541044235,-0.07500451803207397,12.66249942779541)" gradientUnits="userSpaceOnUse" id="k">
   <stop stop-color="#fbc3a3" offset="0"/>
   <stop stop-color="#ffecd9" offset="0.831"/>
  </radialGradient>
  <radialGradient fy="0" fx="0" r="819.2" cy="0" cx="0" spreadMethod="pad" gradientTransform="matrix(0.005400000140070915,-0.0002699999895412475,0.0012499999720603228,0.025529999285936356,24.624996185302734,13.962498664855957)" gradientUnits="userSpaceOnUse" id="l">
   <stop stop-color="#fbc3a3" offset="0"/>
   <stop stop-color="#ffecd9" offset="0.831"/>
  </radialGradient>
  <linearGradient y2="0.625184" y1="0.353027" x2="0.85146" x1="0.03226" id="m">
   <stop stop-color="#f9ae8e" offset="0"/>
   <stop stop-opacity="0" stop-color="#fbc5a7" offset="1"/>
  </linearGradient>
  <linearGradient y2="0.374495" y1="0.198478" x2="0.093576" x1="1.413276" id="n">
   <stop stop-color="#fab99e" offset="0"/>
   <stop stop-opacity="0" stop-color="#fbc5a7" offset="1"/>
  </linearGradient>
  <radialGradient fy="0" fx="0" r="819.2" cy="0" cx="0" spreadMethod="pad" gradientTransform="matrix(0.015440000221133232,-0.0002099999983329326,0.00018000000272877514,0.01281999982893467,13.574995040893555,-3.8875014781951904)" gradientUnits="userSpaceOnUse" id="o">
   <stop stop-color="#fccfb3" offset="0"/>
   <stop stop-color="#ffecd9" offset="1"/>
  </radialGradient>
  <radialGradient fy="0" fx="210518" r="819.2" cy="0" cx="0" spreadMethod="pad" gradientTransform="matrix(0.0066200001165270805,0.001019999966956675,-0.003449999960139394,0.022199999541044235,-0.07500451803207397,12.66249942779541)" gradientUnits="userSpaceOnUse" id="p">
   <stop stop-color="#fbc3a3" offset="0"/>
   <stop stop-color="#ffecd9" offset="0.831"/>
  </radialGradient>
  <radialGradient fy="0" fx="0" r="819.2" cy="0" cx="0" spreadMethod="pad" gradientTransform="matrix(0.005400000140070915,-0.0002699999895412475,0.0012499999720603228,0.025529999285936356,24.624996185302734,13.962498664855957)" gradientUnits="userSpaceOnUse" id="q">
   <stop stop-color="#fbc3a3" offset="0"/>
   <stop stop-color="#ffecd9" offset="0.831"/>
  </radialGradient>
  <radialGradient fy="0" fx="0" r="819.2" cy="0" cx="0" spreadMethod="pad" gradientTransform="matrix(0.005830000154674053,-0.00007999999797903001,0.00004999999873689376,0.0037799999117851257,12.224996566772461,13.81249713897705)" gradientUnits="userSpaceOnUse" id="r">
   <stop stop-opacity="0.682" stop-color="#fffcf7" offset="0.314"/>
   <stop stop-opacity="0" stop-color="#fffbee" offset="1"/>
  </radialGradient>
 </defs>
 <g>
  <title>background</title>
  <rect fill="none" id="canvas_background" height="3.874997" width="3.499998" y="-1" x="-1"/>
 </g>
 <g>
  <title>Layer 1</title>
  <g id="svg_1">
   <path id="svg_2" fill="url(#a)" d="m22.075001,18.612501l0,-0.099998l-0.050003,-0.049999l0.350006,-0.950001l0.299995,-0.650002l0.050003,-0.149998l0.199997,-0.400002l0.150002,-0.299999q0.349998,-0.450002 0.800003,-0.450002l0.549995,0.349998q0.25,0.250001 0.050003,1.250001l-0.300003,1.100002l-0.099998,0.200001l-0.25,1.099998l-0.5,1.799999l-0.650002,1.5q-0.449997,0.549999 -1,0.549999l-0.199997,-0.099998l0.199997,-1.049999l0.200005,-0.150002l0.799995,-0.899998l0.450005,-0.800003l-0.100006,0.050003l-0.299995,0.099998l-0.099998,-0.099998l-0.050003,-0.25l0.050003,-0.25l0,-0.100002l0.049995,0l0.200005,0.200001l0.399994,-0.5l0.300003,-0.849998l-0.050003,-0.25l-0.049995,-0.050003l0.099998,-0.449997q0.099998,-0.400002 0.25,-0.400002l0.050003,-0.25l0.149994,-0.5l0,-0.349998l-0.149994,-0.050003l-0.350006,0.350002l-0.299995,0.149998l-0.25,0.5l-0.050003,0.100002l-0.349998,0.799999l-0.599998,1.150002l0.099998,-0.850002"/>
   <path id="svg_3" fill="url(#b)" d="m21.725002,22.112501l-0.050003,-0.149998l0.150002,-0.950001l0.150002,-1.549999l0.599998,-1.150002l0.349998,-0.799999l0.050003,-0.100002l0.25,-0.5l0.300003,-0.149998l0.349998,-0.350002l0.150002,0.050003l0,0.349998l-0.150002,0.5l-0.050003,0.25q-0.150002,0 -0.25,0.400002l-0.099998,0.449997l0.050003,0.050003l0.049995,0.25l-0.299995,0.849998l-0.400002,0.5l-0.200005,-0.200001l-0.049995,0l0,0.100002l-0.050003,0.25l0.050003,0.25l0.099998,0.099998l0.300003,-0.099998l0.099998,-0.050003l-0.450005,0.800003l-0.799995,0.899998l-0.200005,0.150002l0.050003,-0.150002m0.449997,-1.349998l0.050003,0l-0.050003,0"/>
   <path id="svg_4" stroke="#fd9e66" stroke-miterlimit="3" stroke-linejoin="round" stroke-linecap="round" stroke-width="0.05" fill="none" d="m21.674999,22.262499l-0.199997,1.049999l0.199997,0.100002q0.550003,0 1,-0.550003l0.650002,-1.5l0.5,-1.799999l0.25,-1.099998l0.099998,-0.200001l0.300003,-1.099998q0.199997,-1 -0.050003,-1.250001l-0.550003,-0.350002q-0.449997,0 -0.799995,0.450002l-0.150002,0.299999l-0.199997,0.400002l-0.050003,0.149998l-0.300003,0.650002l-0.349998,0.950001l0.050003,0.049999l0,0.099998l-0.099998,0.850002l-0.150002,1.549999l-0.150002,0.950001l0.050003,0.149998l-0.050003,0.150002m0.349998,-3.799999l0.050003,0.149998"/>
   <path id="svg_5" fill="url(#c)" d="m2.974994,21.012499l-0.099998,-0.150002l-0.25,-0.099998l0.099998,0.849998q0.150002,0.700001 -0.200001,0.350002l-0.549999,-0.799999l-0.25,-0.75l0.049999,0.049999l0.350002,0.049999l0.099998,-0.049999l0.049999,-0.25l-0.049999,-0.25l0,-0.100002l-0.049999,0l-0.200001,0.25l-0.349998,-0.5l-0.350002,-0.899998l0.049999,-0.200001l0.050003,0l0,-0.049999l-0.100002,-0.5l-0.200001,-0.400002l-0.049999,-0.25l-0.099998,-0.5l0,-0.349998l0.149998,-0.049999l0.350002,0.349998l0.299999,0.200001l0.200001,0.450001l0.049999,0.099998l0.299999,0.75l0.650001,1.200001l0.049999,1.549999m-0.349998,-0.25l-0.050003,0l0.050003,0"/>
   <path id="svg_6" fill="url(#d)" d="m2.274994,18.262499l-0.299999,-0.75l-0.050003,-0.099998l-0.199997,-0.450001l-0.300003,-0.200001l-0.349998,-0.349998l-0.150002,0.049999l0,0.349998l0.100002,0.5l0.049999,0.25l0.200001,0.400002l0.099998,0.5l0,0.049999l-0.049999,0l-0.049999,0.200001l0.349998,0.899998l0.350002,0.5l0.199997,-0.25l0.050003,0l0,0.100002l0.049999,0.25l-0.049999,0.25l-0.100002,0.049999l-0.349998,-0.049999l-0.049999,-0.049999l0.25,0.75l0.549999,0.799999q0.349998,0.349998 0.200001,-0.350002l-0.100002,-0.849998l0.25,0.099998l0.100002,0.150002l0.099998,1.150002l0.25,1.149998l-0.25,0.100002q-0.549999,0 -0.95,-0.600002q-0.399997,-0.450001 -0.649997,-1.450001l-0.400002,-1.799999l-0.299999,-1.099998l-0.100002,-0.25l-0.199997,-1.100002q-0.150002,-0.949997 0.049999,-1.250001q0.25,-0.299999 0.600002,-0.299999q0.5,0 0.799999,0.500001l0.099998,0.200001l0.2,0.450001l0.049999,0.149998l0.25,0.650002l0.299999,0.950001l0,0.149998l0.100002,0.850002l-0.650001,-1.200001"/>
   <path id="svg_7" stroke="#fd9e66" stroke-miterlimit="3" stroke-linejoin="round" stroke-linecap="round" stroke-width="0.05" fill="none" d="m2.924995,19.4625l-0.099998,-0.849998l0,-0.150002l-0.300003,-0.950001l-0.25,-0.649998l-0.049999,-0.150002l-0.2,-0.450001l-0.099998,-0.200001q-0.299999,-0.500001 -0.799999,-0.500001q-0.350002,0 -0.600002,0.300003q-0.199997,0.3 -0.049999,1.250001l0.200001,1.099998l0.099999,0.25l0.300003,1.099998l0.399998,1.800003q0.25,1 0.650001,1.449997q0.399997,0.600002 0.95,0.600002l0.25,-0.100002l-0.25,-1.149998l-0.100002,-1.150002m-0.049999,-1.549999l0.049999,1.549999m-0.149998,-2.549999l0,0.150002"/>
   <path id="svg_8" fill="#ffecd9" d="m20.874996,20.812498q-0.5,1 -1.449997,1.599998l-1.200005,0.75l-0.5,0.100002l0.599998,0.649998l0,1.25l-0.5,1.850002q-0.449997,0.899998 -1.399994,0.899998l0.149994,0.600002q0,0.699997 -1.100004,1.950001q-1.549995,0.950001 -3.449997,1l-1.400002,-0.150002q-0.849998,-0.149998 -1.599998,-0.649998l-0.200005,-0.300003q-0.799993,-1 -0.799993,-1.75l0.049994,-0.449997l0.350004,-0.450001l-1.100003,-0.549999l-0.599998,-0.600002q-0.549999,-1.399998 -0.549999,-2.200001l0.049999,-0.699997l0.050003,-0.200001q-0.850002,-0.200001 -1.800003,-1.5l-0.399999,-0.800003q-0.5,-1.049999 -0.600003,-2.450001q-0.149998,-1.349998 0.700001,-3.399999l0.650006,-1.349998l0.650002,-1.599998l0.299999,-0.900002l5.099999,0.549999l5.450003,-0.75l3.5,-0.9l0.5,2.050001l0.599998,2.349998l0.099998,2.200002l0.100006,1.049999q0.25,1.850002 -0.25,2.799999m-12.400007,-7.449998l-0.050003,0l0.050003,0.049999l0,-0.049999"/>
   <path id="svg_9" fill="url(#e)" d="m23.624996,11.312499l0,0.4l-0.050003,-0.4l0.050003,0"/>
   <path id="svg_10" fill="url(#f)" d="m5.924996,8.662499l-0.200001,-1.799999l-0.299999,-1l0,-0.300001l-0.299999,-1l16.499999,0l-0.099998,0.150002l-0.349998,0.799999l-0.199997,-0.299999l-0.350006,1.65l0,0.049999l-0.149994,0.4q-0.650002,1.649999 -0.650002,3.049999l-3.5,0.9l-5.450003,0.75l-5.099999,-0.549999l0.150002,-2.799999"/>
   <path id="svg_11" fill="url(#g)" d="m9.574995,31.362501l0.550003,0.5l-0.100006,0.049999l-0.099998,-0.049999q-1.749998,-1.149998 -3.249997,-2.799999q-2.749998,-2.299999 -3.399999,-6l-0.600002,-2.549999q0.049999,-0.549999 0.799999,-1.799999q0.100002,1.399998 0.600003,2.449997l0.399999,0.800003q0.950001,1.299999 1.800003,1.5l-0.050003,0.199997l-0.049999,0.700001q0,0.799999 0.550003,2.200001l0.599998,0.599998l1.099996,0.550003l-0.349997,0.449997l-0.050002,0.450001q0,0.75 0.8,1.75l0.199997,0.299999l0.550003,0.700001"/>
   <path id="svg_12" fill="url(#h)" d="m8.474997,13.412499l-0.050003,-0.049999l0.050003,0l0,0.049999"/>
   <path id="svg_13" fill="url(#i)" d="m15.474997,30.4625q1.100004,-1.25 1.100004,-1.950001l-0.150002,-0.599998q0.950005,0 1.400002,-0.900002l0.5,-1.849998l0,-1.25l-0.599998,-0.650002l0.5,-0.099998l1.199997,-0.75q0.950005,-0.600002 1.450005,-1.600002q0.5,-0.949997 0.25,-2.799999l1,2.900002l-0.300003,0.799999l-0.049995,0.349998l-0.900002,3.450001q-0.700005,1.700001 -2.25,3.350002l-3.20001,2.75q-0.550003,-0.049999 -0.400002,-0.299999q0.75,-0.75 0.450005,-0.850002"/>
   <path id="svg_14" fill="url(#j)" d="m9.024992,30.6625q0.75,0.5 1.599998,0.650002l1.400002,0.149998q1.900002,-0.049999 3.449997,-1q0.300003,0.100002 -0.449997,0.850002q-0.150002,0.25 0.400002,0.299999l-0.75,0.449999l-3.849998,0.150002l-0.800003,-0.300001l0.099998,-0.049999l-0.549995,-0.5l-0.550003,-0.700001"/>
   <path id="svg_15" fill="url(#k)" d="m2.674995,20.512499l-0.549999,-2.450001l0,-1.299999l-0.400001,-3.450002l-0.099998,-1.4q0,-4.1 1.349998,-6.899999l0.25,-0.450001l1.900003,0l0.299999,1l0,0.300001l0.299999,1l0.200001,1.799999l-0.150002,2.799999l-0.299999,0.9l-0.649998,1.600002l-0.650002,1.349998q-0.849999,2.05 -0.700001,3.400002q-0.75,1.25 -0.799999,1.799999"/>
   <path id="svg_16" fill="url(#l)" d="m21.124996,18.012499l-0.099998,-1.049999l-0.099998,-2.200002l-0.599998,-2.349998l-0.5,-2.050001q0,-1.4 0.649994,-3.049999l0.150002,-0.4l0,-0.050001l0.349998,-1.65l0.200005,0.299999l0.349998,-0.799999l0.099998,-0.15l0.400002,0q1.699997,2.25 1.699997,5.549999l-0.099998,0.700001l0,0.5l-0.049995,0l-0.150002,2.300001l-0.050003,0.049999l-0.449997,2.200001l-0.050003,0.349999l-0.449997,3.200001l-0.300003,1.5l-1,-2.900002"/>
   <path id="svg_17" stroke="#fd9e66" stroke-miterlimit="3" stroke-linejoin="round" stroke-linecap="round" stroke-width="0.05" fill="none" d="m23.575001,11.312499l0.050003,0.4l0,-0.4m-0.050003,0l-0.150002,2.300001l-0.049995,0.049999l-0.450005,2.200001l-0.049995,0.349999l-0.450005,3.200001l-0.299995,1.5l-0.300003,0.799999l-0.050003,0.349998l-0.899994,3.450001q-0.700005,1.700001 -2.25,3.350002l-3.20001,2.75l-0.75,0.449999l-3.849998,0.150002l-0.800003,-0.300001l-0.099998,-0.049999q-1.749998,-1.149998 -3.249997,-2.799999q-2.750001,-2.299999 -3.400003,-6l-0.599998,-2.549999l-0.549999,-2.450001l0,-1.299999l-0.400001,-3.450002l-0.099998,-1.4q0,-4.1 1.349998,-6.900001l0.25,-0.450001m18.800004,0q1.699997,2.25 1.699997,5.550001l-0.099998,0.700001l0,0.5"/>
   <path id="svg_18" fill="url(#m)" d="m3.624996,21.9125q0.450001,1.049999 2.950002,1.849998l-1.100002,0.75q-0.75,0.550003 -1.649999,-0.699997q-0.900002,-1.25 -1.549999,-4.550003l1.349998,2.650002"/>
   <path id="svg_19" fill="url(#n)" d="m20.524998,24.7125q-0.5,0.700001 -1.050003,-1.25l-0.649994,-0.400002l0.099998,0l1.799995,-0.75q0.650002,-0.449997 1.75,-3l-0.349998,1.950001l-0.650002,1.700001l-0.949997,1.75"/>
   <path id="svg_20" fill="url(#o)" d="m4.324998,3.362499q3.449997,-3.35 8.249997,-3.299999q4.950003,-0.050001 8.550009,3.5q-0.800003,2.15 -0.900002,4.899999l-1.75,-0.35q-3.20001,-0.299999 -5.500006,2.450001q-2.349998,-2.75 -5.55,-2.450001l-1.499996,0.300001l-0.5,-2.300001l-0.550003,-1.699999l-0.549999,-1.050001"/>
   <path id="svg_21" fill="url(#p)" d="m0.524994,9.812499l0.099999,-0.5q0.400002,-1.5 1.200001,-2.800001l0.900001,-1.449999l1.099998,-1.25l0.500001,-0.450001l0.550003,1.050001l0.549999,1.699999l0.5,2.300001q-1,0.25 -1.8,0.799999q-1.150002,0.75 -1.950001,2.049999l-0.299999,0.400002l0.399997,6.250001l0.150001,1.200001l-1.2,-2.700001q-0.600002,-1.950002 -0.800003,-3.650002l-0.049999,-0.949999l0.049999,-1.450001l0.100002,-0.549999"/>
   <path id="svg_22" fill="url(#q)" d="m21.124996,3.562499l0.199997,0.25l0.700005,0.75l1.25,1.65l0.75,2.149999q0.299995,1.25 0.25,2.700001l-0.25,2.35l-0.300003,1.649998l-0.299995,1.100003l-0.800003,2.150002l-0.099998,0q-0.400002,-1.800003 -1.349998,-3.900002q-0.950005,-2.099998 -0.950005,-3.75l0,-2.200001q0.099998,-2.75 0.900002,-4.899999"/>
   <path id="svg_23" stroke="#fd9e66" stroke-miterlimit="3" stroke-linejoin="round" stroke-linecap="round" stroke-width="0.05" fill="none" d="m2.424995,19.112501l-1.2,-2.700001q-0.599999,-1.950002 -0.799999,-3.650002l-0.049999,-0.949999l0.049999,-1.449999q0.049999,-0.800001 0.200001,-1.050001q0.399998,-1.5 1.200001,-2.799999l0.899997,-1.450001l1.100002,-1.25l0.500001,-0.449999q3.449997,-3.35 8.249997,-3.300001q4.950003,-0.049999 8.550001,3.5l0.200005,0.25l0.699997,0.75l1.25,1.650002l0.75,2.149999q0.300003,1.25 0.25,2.700001l-0.25,2.349998l-0.299995,1.650002l-0.300003,1.099999l-0.800003,2.150002m-22,-9.000001l-0.100002,0.5l-0.099998,0.549999"/>
   <path id="svg_24" fill="url(#r)" d="m16.524998,11.312499q1.550003,0.999998 1.599998,2.449999q0,1.400002 -1.549995,2.400002q-1.550009,1.049999 -3.800009,1.049999q-2.199997,0.049999 -3.849998,-0.950001q-1.55,-0.949998 -1.55,-2.349999q-0.049995,-1.450001 1.499997,-2.5q1.599998,-1 3.800003,-1.049999q2.25,0 3.850004,0.949999"/>
  </g>
 </g>
</svg>