<svg xmlns="http://www.w3.org/2000/svg" width="24" height="32"><g transform="translate(11.75 15.8)"><path d="M10.1 2.15l-.1.15-.5 1.55-.25 1.05-.7 3.05-.1.65-.05.25.55.2q.6.15 1.05-.55l.65-1.1.3-.5.4-.95.45-2.5q.1-1.8-1.4-1.4l-.25.1h-.05m.4 4.7l-.05.2h-.05l-.5.4v.05q-.05-.05-.15.05l-.25.2-.25.15q-.1-.05-.05-.4v-.1l.3-.45v-.1l-.05-.6V6.2l.05-.05V6.1h.05l.4-.7-.15-.5h-.05v-.1q.5-1.45 1-1.75l.3-.05.2.55v.65l-.05.7-.05.1v.15l-.65 1.7" fill="#f7d2bb"/><path d="M11.05 3l-.3.05q-.5.3-1 1.75v.1h.05l.15.5-.4.7H9.5v.05l-.05.05v.05l.05.6v.1l-.3.45v.1q-.05.35.05.4l.25-.15.25-.2q.1-.1.15-.05v-.05l.5-.4h.05l.05-.2.1-.4v-.1.05l-.15.25-.15.3-.05.15-.1.05-.2.1-.25.15-.3.25.05-.05-.1.1v-.2l.3-.6v-.05l-.05-.6q.45-.25.5-.85.05-.65-.2-.7.45-1.2.85-1.5.3-.15.5.35l-.2-.55" fill="#efb087"/><radialGradient id="a" gradientUnits="userSpaceOnUse" gradientTransform="matrix(.00208 -.00427 .00206 .0012 9.3 4.25)" spreadMethod="pad" cx="0" cy="0" r="819.2" fx="0" fy="0"><stop offset="0" stop-color="#d3873d"/><stop offset=".992" stop-color="#f5c9ab"/></radialGradient><path d="M11.15 5.15V5l.05-.1.05-.7v-.65q-.2-.5-.5-.35-.4.3-.85 1.5.25.05.2.7-.05.6-.5.85l.05.6v.05l-.3.6v.2l.1-.1-.05.05.3-.25.25-.15.2-.1.1-.05.05-.15.15-.3.15-.25v-.05.1l-.1.4.65-1.7" fill="url(#a)"/><path d="M8.4 8.85l.55.2q.6.15 1.05-.55l.65-1.1.3-.5.4-.95.45-2.5q.1-1.8-1.4-1.4l-.25.1h-.05" fill="none" stroke-width=".05" stroke-linecap="round" stroke-linejoin="bevel" stroke-miterlimit="3" stroke="#fd9e66"/><path d="M-8.4 8.8l-.55.2q-.55.15-1.05-.55l-.6-1.1-.3-.5-.45-.95q-.3-.75-.4-2.5-.15-1.8 1.35-1.4l.3.1.1.15.55 1.55.25 1.05.65 3.05.15.65v.25m-2-1.8v.05l.55.35.15.1.25.2v.05l.25.1v-.5l-.25-.45v-.7l.05-.05-.05-.05-.05-.05-.45-.7q-.05-.5.2-.5h.05v-.1q-.55-1.45-1-1.75l-.35-.05-.2.6v.6l.1.7v.25l.7 1.7.05.2" fill="#f7d2bb"/><path d="M-10.45 6.8l-.1-.45V6.3l.1.35.15.3.1.1.05.1.2.05q.1 0 .25.1l.3.3.1.1-.05-.25-.25-.55v-.1l.05-.6q-.5-.25-.55-.85-.05-.6.25-.65-.5-1.25-.85-1.55-.35-.15-.55.4l.2-.6.35.05q.45.3 1 1.75v.1h-.05q-.25 0-.2.5l.45.7.05.05.05.05-.05.05v.7l.25.45v.5l-.25-.1V7.7l-.25-.2-.15-.1-.55-.35V7l-.05-.2" fill="#efb087"/><radialGradient id="b" gradientUnits="userSpaceOnUse" gradientTransform="matrix(-.00208 -.00427 -.00206 .0012 -9.3 4.2)" spreadMethod="pad" cx="0" cy="0" r="819.2" fx="0" fy="0"><stop offset="0" stop-color="#d3873d"/><stop offset=".992" stop-color="#f5c9ab"/></radialGradient><path d="M-10.7 3.15q.35.3.85 1.55-.3.05-.25.65.05.6.55.85l-.05.6v.1l.25.55.05.25-.1-.1-.3-.3q-.15-.1-.25-.1l-.2-.05-.05-.1-.1-.1-.15-.3-.1-.35v.05l.1.45-.7-1.7v-.25l-.1-.7v-.6q.2-.55.55-.4" fill="url(#b)"/><path d="M-8.4 8.8l-.55.2q-.55.15-1.05-.55l-.6-1.1-.3-.5-.45-.95q-.3-.75-.4-2.5-.15-1.8 1.35-1.4l.3.1" fill="none" stroke-width=".05" stroke-linecap="round" stroke-linejoin="bevel" stroke-miterlimit="3" stroke="#fd9e66"/><path d="M6.95 5.9q-.6 1.4-2.1 3-1.25 1.3-1.6 2.25-.3.65-.35 1.6l-.6 1.45q-.55.6-2 .6H.05l-.15-.05v.05h-.1q-1.45 0-2-.6l-.55-1.45-.4-1.6q-.4-.95-1.6-2.25-1.5-1.6-2.1-3L-8.1 1.7l-.15-.55 2.2-3.45.35-1.35.15-1.1-.35-2.85q0-1.8.75-3.15.85-1.55 2.75-2.85 2.5-.55 5 .05 1.85 1.25 2.65 2.8Q6-9.4 6-7.6l-.35 2.85.15 1.1.35 1.35 2.2 3.45-.15.55-1.25 4.2" fill="#ffecd9"/><linearGradient id="c" gradientUnits="userSpaceOnUse" gradientTransform="matrix(-.00908 .0015 -.0019 -.01088 12.1 -6.1)" x1="-819.2" x2="819.2"><stop offset="0" stop-color="#faa684"/><stop offset="1" stop-color="#ffecd9"/></linearGradient><path d="M8.2 1.7l.15-.55-2.2-3.45-.35-1.35-.15-1.1L6-7.6q0-1.8-.75-3.15-.8-1.55-2.65-2.8l.7.15q4.4 1.3 6.7 4.65l.45.8.35.9q1 3.1-.05 7.15-.65 1.6-1.15 3.55L8.2 1.7" fill="url(#c)"/><linearGradient id="d" gradientUnits="userSpaceOnUse" gradientTransform="matrix(.00867 .00119 -.00162 .01118 -12.4 -4.25)" x1="-819.2" x2="819.2"><stop offset="0" stop-color="#faa684"/><stop offset="1" stop-color="#ffecd9"/></linearGradient><path d="M9.25 4.95l-.4 1.9Q8.4 9.1 7.75 10.5l.2-.6.7-2.25.6-2.7M1.3 15.7l-.35.05-.65.1.75-.1.25-.05M-7.45 11Q-8.3 9.55-8.8 6.85l-.75-3.15q-.5-2-1.15-3.6-1.05-4.05-.05-7.15l.35-.9.4-.8q2.4-3.45 6.95-4.7l.65-.15q-1.9 1.3-2.75 2.85Q-5.9-9.4-5.9-7.6l.35 2.85-.15 1.1-.35 1.35-2.2 3.45.15.55-1.45 2q.65 2.05 1 3.95l.7 2.25.4 1.1" fill="url(#d)"/><radialGradient id="e" gradientUnits="userSpaceOnUse" gradientTransform="matrix(.01167 -.00534 .01096 .02266 -1.45 6)" spreadMethod="pad" cx="0" cy="0" r="819.2" fx="0" fy="0"><stop offset=".439" stop-color="#ffecd9"/><stop offset="1" stop-color="#faa684"/></radialGradient><path d="M-.1 15.85l-.8-.1q-.8-.1-1.55-.6l-.05-.05-.2-.15-.25-.15-1.85-1.25-.1-.1-1.7-1.4-.85-1.05-.4-1.1-.7-2.25q-.35-1.9-1-3.95l1.45-2 1.25 4.2q.6 1.4 2.1 3 1.2 1.3 1.6 2.25l.4 1.6.55 1.45q.55.6 2 .6h.1v1.05" fill="url(#e)"/><radialGradient id="f" gradientUnits="userSpaceOnUse" gradientTransform="matrix(.01082 .00496 -.01079 .02223 1.7 6.45)" spreadMethod="pad" cx="0" cy="0" r="819.2" fx="0" fy="0"><stop offset=".439" stop-color="#ffecd9"/><stop offset="1" stop-color="#faa684"/></radialGradient><path d="M-.1 14.8h.4q1.45 0 2-.6l.6-1.45q.05-.95.35-1.6.35-.95 1.6-2.25 1.5-1.6 2.1-3L8.2 1.7l1.4 1.95-.35 1.3-.6 2.7-.7 2.25-.2.6-1.1 1.55-1.8 1.5-2.35 1.6-1.2.55-.25.05-.75.1h-.4V14.8" fill="url(#f)"/><path d="M2.6-13.55l.7.15q4.4 1.3 6.7 4.65l.45.8.35.9q1 3.1-.05 7.15-.65 1.6-1.15 3.55l-.35 1.3-.4 1.9Q8.4 9.1 7.75 10.5l-1.1 1.55-1.8 1.5-2.35 1.6-1.2.55-.35.05-.65.1h-.4l-.8-.1q-.8-.1-1.55-.6l-.05-.05-.2-.15-.25-.15-1.85-1.25-.1-.1-1.7-1.4-.85-1.05Q-8.3 9.55-8.8 6.85l-.75-3.15q-.5-2-1.15-3.6-1.05-4.05-.05-7.15l.35-.9.4-.8q2.4-3.45 6.95-4.7l.65-.15q2.5-.55 5 .05z" fill="none" stroke-width=".05" stroke-linecap="round" stroke-linejoin="round" stroke-miterlimit="3" stroke="#fd9e66"/><radialGradient id="g" gradientUnits="userSpaceOnUse" gradientTransform="matrix(.00471 .0026 -.00298 .00514 6.85 5.5)" spreadMethod="pad" cx="0" cy="0" r="819.2" fx="0" fy="0"><stop offset="0" stop-color="#ffd5cc"/><stop offset="1" stop-color="#ffdcd0" stop-opacity="0"/></radialGradient><path d="M3.3 2.75q1.35-1.1 3.2-1.1t3.15 1.1Q11 3.85 11 5.45 11 7 9.65 8.15q-1.3 1.1-3.15 1.1-1.85 0-3.2-1.1-.95-.85-1.2-1.95L2 5.45q0-1.6 1.3-2.7" fill="url(#g)"/><radialGradient id="h" gradientUnits="userSpaceOnUse" gradientTransform="matrix(-.00471 .0026 .00298 .00514 -6.7 5.5)" spreadMethod="pad" cx="0" cy="0" r="819.2" fx="0" fy="0"><stop offset="0" stop-color="#ffd5cc"/><stop offset="1" stop-color="#ffdcd0" stop-opacity="0"/></radialGradient><path d="M-3.15 2.75q-1.35-1.1-3.2-1.1t-3.15 1.1q-1.35 1.1-1.35 2.7 0 1.55 1.35 2.7 1.3 1.1 3.15 1.1 1.85 0 3.2-1.1.95-.85 1.2-1.95l.1-.75q0-1.6-1.3-2.7" fill="url(#h)"/><radialGradient id="i" gradientUnits="userSpaceOnUse" gradientTransform="matrix(.0121 0 0 .01172 7.2 -12.1)" spreadMethod="pad" cx="0" cy="0" r="819.2" fx="0" fy="0"><stop offset="0" stop-color="#fff" stop-opacity=".161"/><stop offset="1" stop-color="#fff" stop-opacity="0"/></radialGradient><path d="M.85-15.45l.1.05q6.1 1.65 7.1 2.8 2.2 2.5 2.2 4.9 0 3.85-6.6 3.85l-1.85-.3Q1.15-4.6.55-6.35-.1-8.3 0-9.35l-.05-2.4q0-2.3.9-3.7" fill="url(#i)"/><radialGradient id="j" gradientUnits="userSpaceOnUse" gradientTransform="matrix(.02762 0 0 .02678 .3 -17.5)" spreadMethod="pad" cx="0" cy="0" r="819.2" fx="3" fy="0"><stop offset=".439" stop-color="#ffecd9"/><stop offset="1" stop-color="#faa684"/></radialGradient><path d="M8.2-7.55q-1.15-.7-2.6-.75-3-.3-5.1 2.2-1.8-2.1-4.15-2.25l-1 .05-2.25.55-.7.4-.05-.25-.3-4.7q3.3-3.5 8.1-3.45 4.7-.05 8.05 3.45l2.15 3.05.05.1L9.1-6.9l-.9-.65" fill="url(#j)"/><radialGradient id="k" gradientUnits="userSpaceOnUse" gradientTransform="translate(19.35 -7.6) scale(.0203)" spreadMethod="pad" cx="0" cy="0" r="819.2" fx="3" fy="0"><stop offset=".439" stop-color="#ffecd9"/><stop offset="1" stop-color="#faa684"/></radialGradient><path d="M10.7.25v-.2l-.15-2.3-.35-2.2q-.2-1.05-1-2.4l-.1-.05 1.3-2.25q1.1 2.35 1.15 5.2l-.5 3.45-.35.75" fill="url(#k)"/><radialGradient id="l" gradientUnits="userSpaceOnUse" gradientTransform="translate(1.6 -9.75) scale(.02653)" spreadMethod="pad" cx="0" cy="0" r="819.2" fx="86" fy="0"><stop offset=".439" stop-color="#ffecd9"/><stop offset="1" stop-color="#faa684"/></radialGradient><path d="M-9.45-5.4l-.7 1.3-.25 1.75-.1 1.45.25 2.4-.3-.95q-.4-1.15-.65-3.05l-.05-1.45v-.65l.25-2.15.05-.1q.3-1.6 1.15-3l1.85-2.45.3 4.7.05.25q-1.1.7-1.85 1.95" fill="url(#l)"/><path d="M11.05-.5l.5-3.45q-.05-2.85-1.15-5.2l-.05-.1L8.2-12.3Q4.85-15.8.15-15.75q-4.8-.05-8.1 3.45L-9.8-9.85q-.85 1.4-1.15 3l-.05.1-.25 2.15v.65l.05 1.45q.25 1.9.65 3.05" fill="none" stroke-width=".05" stroke-linecap="round" stroke-linejoin="round" stroke-miterlimit="3" stroke="#fd9e66"/><radialGradient id="m" gradientUnits="userSpaceOnUse" gradientTransform="matrix(.01002 0 0 .0097 6.8 -8.1)" spreadMethod="pad" cx="0" cy="0" r="819.2" fx="0" fy="0"><stop offset="0" stop-color="#fff" stop-opacity=".643"/><stop offset="1" stop-color="#fff" stop-opacity="0"/></radialGradient><path d="M3-14.85q3.75.55 6.1 3.8 2.05 2.75 2.05 5.65l-.55 4.05h-.05l.25-2.1q0-3.4-1.85-6.55-2.35-3.95-6.4-4.85H3" fill="url(#m)"/><radialGradient id="n" gradientUnits="userSpaceOnUse" gradientTransform="matrix(.0104 0 0 .01007 -7.2 -7.65)" spreadMethod="pad" cx="0" cy="0" r="819.2" fx="0" fy="0"><stop offset="0" stop-color="#fff" stop-opacity=".502"/><stop offset="1" stop-color="#fff" stop-opacity="0"/></radialGradient><path d="M-3.55-14.95q-3.1 1.8-5.05 5.15-1.85 3.05-1.85 6 0 1.85.55 3.2v.25h-.05q-.9-2.95-.9-5.35l.15-1.45q0-1.15 2.3-4.2 1.65-2.5 4.8-3.6h.05" fill="url(#n)"/><radialGradient id="o" gradientUnits="userSpaceOnUse" gradientTransform="matrix(.01161 0 0 .01125 -.25 -12)" spreadMethod="pad" cx="0" cy="0" r="819.2" fx="0" fy="0"><stop offset="0" stop-color="#fff" stop-opacity=".502"/><stop offset="1" stop-color="#fff" stop-opacity="0"/></radialGradient><path d="M-5.8-14q1.75-1.05 3.5-1.45l2.45-.3 2.05.15 1.4.45 1.4.6 2.1 1.4q1.15.95 2.05 2.4-.5 2.35-2.7 4.1Q3.7-4.4-.2-4.4q-3.95 0-6.75-2.25-2.45-2-2.7-4.75l1.15-.85L-5.8-14" fill="url(#o)"/></g></svg>