<svg xmlns="http://www.w3.org/2000/svg" width="26" height="33"><g transform="translate(-57.55 -19.8)"><radialGradient id="a" gradientUnits="userSpaceOnUse" gradientTransform="rotate(-28.792 108.767 -98.617) scale(.00491)" spreadMethod="pad" cx="0" cy="0" r="819.2" fx="0" fy="0"><stop offset="0" stop-color="#e88b64"/><stop offset=".847" stop-color="#fdd7b9"/></radialGradient><path d="M59.15 37.35l.35 4.55v2.45q-.65-.4-.8-.9l-.15-1.4-.05-.1-.35-1.15-.3-1.45q-.4-2.3-.3-2.55.15-.25.5-.25l.45.1.65.65v.05m-1.2.35l.3.25.1.35v.35l.1.8v.05l-.2.15-.05.2.2.5.2.2h.05V41l.05.5.1.45.25.35.2-.45v-.4l-.25-1q-.25-.4-.25-.8l.1-.4.1-.6v-.05l-.2-.45q-.3-.55-.65-.55l-.2.05-.1.05h.15" fill="url(#a)"/><radialGradient id="b" gradientUnits="userSpaceOnUse" gradientTransform="matrix(.00275 -.00072 .00139 .00533 60.2 39.95)" spreadMethod="pad" cx="0" cy="0" r="819.2" fx="0" fy="0"><stop offset="0" stop-color="#c54b18"/><stop offset="1" stop-color="#fcc7a5"/></radialGradient><path d="M57.8 37.7l.1-.05.2-.05q.35 0 .65.55l.2.45v.05l-.1.6-.1.4q0 .4.25.8l.25 1v.4l-.2.45-.25-.35-.1-.45-.05-.5v-.45h-.05l-.2-.2-.2-.5.05-.2.2-.15v-.05l-.1-.8v-.35l-.1-.35-.3-.25h-.15" fill="url(#b)"/><path d="M59.15 37.35l.35 4.55v2.45q-.65-.4-.8-.9l-.15-1.4-.05-.1-.35-1.15-.3-1.45q-.4-2.3-.3-2.55.15-.25.5-.25l.45.1.65.65" fill="none" stroke-width=".05" stroke-linecap="round" stroke-linejoin="round" stroke-miterlimit="3" stroke="#fd9e66"/><radialGradient id="c" gradientUnits="userSpaceOnUse" gradientTransform="matrix(-.0043 -.00237 -.00237 .0043 79.2 40.25)" spreadMethod="pad" cx="0" cy="0" r="819.2" fx="0" fy="0"><stop offset="0" stop-color="#e88b64"/><stop offset=".847" stop-color="#fdd7b9"/></radialGradient><path d="M81 37.4q-.3 2.2-.35 4.55v2.45l.8-.9.15-1.4.05-.1.35-1.15.3-1.45.3-2.55q-.15-.25-.5-.25l-.45.1-.65.65v.05m1.2.35l-.3.25-.1.35v.35l-.1.8v.05l.2.15.05.2-.2.5-.2.2h-.05v.45l-.05.5-.1.45-.25.35-.2-.45v-.4q0-.6.25-1l.25-.8-.1-.4-.1-.6v-.05l.2-.45q.3-.55.65-.55l.2.05.1.05h-.15" fill="url(#c)"/><radialGradient id="d" gradientUnits="userSpaceOnUse" gradientTransform="matrix(-.00275 -.00072 -.00139 .00533 79.95 40)" spreadMethod="pad" cx="0" cy="0" r="819.2" fx="0" fy="0"><stop offset="0" stop-color="#c54b18"/><stop offset="1" stop-color="#fcc7a5"/></radialGradient><path d="M82.35 37.75l-.1-.05-.2-.05q-.35 0-.65.55l-.2.45v.05l.1.6.1.4-.25.8q-.25.4-.25 1v.4l.2.45.25-.35.1-.45.05-.5v-.45h.05l.2-.2.2-.5-.05-.2-.2-.15v-.05l.1-.8v-.35l.1-.35.3-.25h.15" fill="url(#d)"/><path d="M81 37.4q-.3 2.2-.35 4.55v2.45l.8-.9.15-1.4.05-.1.35-1.15.3-1.45.3-2.55q-.15-.25-.5-.25l-.45.1-.65.65" fill="none" stroke-width=".05" stroke-linecap="round" stroke-linejoin="round" stroke-miterlimit="3" stroke="#fd9e66"/><path d="M80.05 40.5l-.05-.25-.65 2.15-1.05 1.15-.05.05-1.3 1.55-.5.95-.5-1.4-.6-.65-.1-.1.05.1.1.85-.45 1.85-.55.85-1.05.25-.95.05-1.2.15-1.3.1h-1.05l-1.2-.15q-1-.1-2.1-.6-1.2-.55-1.45-1.2h-.05v-.25l-.05.15-.45-.55-.6-.55-.45-.45-.55-1.6-.1-.9-.05-.15-.55-.5q-.35-.5-.4-1.4v-.5l-.65-1.2-.1-.2v.05l-.4.3-.1.15-.05-.05-.3-.85-.1-1.6-.1-.65q-.4-6.9 5.7-10.95h.05q4.65-1.95 8.55-.75 2.75.9 5.1 3.45 1.9 2.85 2.2 8.95l.05 1.2q.25 4-.05 6.05l-.6-2.9m-11.65 11q.3-.1-.6-.65-1.2-.75-1-1.5h.4l2.75-.25h.25l1 .05 1.55.1.7-.15q-.85 1.65-1.6 2.3v.05h-.1l-.8.25-.5.05-.75-.05-1.3-.2" fill="#ffecd9"/><radialGradient id="e" gradientUnits="userSpaceOnUse" gradientTransform="matrix(.0079 0 0 .00754 65.8 46.45)" spreadMethod="pad" cx="0" cy="0" r="819.2" fx="475" fy="0"><stop offset="0" stop-color="#ffc8ab"/><stop offset="1" stop-color="#ffecd9"/></radialGradient><path d="M60.35 38.7l-.25-.55v-.05l.1.2.65 1.2v.5l-.5-1.3" fill="url(#e)"/><radialGradient id="f" gradientUnits="userSpaceOnUse" gradientTransform="matrix(.00366 -.00168 .00925 .02017 62.6 51.35)" spreadMethod="pad" cx="0" cy="0" r="819.2" fx="0" fy="0"><stop offset="0" stop-color="#ffba99"/><stop offset="1" stop-color="#ffecd9"/></radialGradient><path d="M69.95 49.1l-2.75.25h-.4q-.2.75 1 1.5.9.55.6.65l-.35-.15h-.1l-.05-.05h-.1l-1.75-.9v.05l.2.25.15.1 1.5 1.3 3.6.45-3.85-.4-.95-.35-3.4-2.25q-2.35-1.5-3.4-4-.4-1.4-.5-4.65l-.1-1.85-.05-1.35.3.85v.05h.05l.1-.15.4-.3.25.55.5 1.3q.05.9.4 1.4l.55.5.05.15.1.9.55 1.6.45.45.6.55.45.55.05-.15v.25h.05q.25.65 1.45 1.2 1.1.5 2.1.6l1.2.15h1.05l.05.95m-4.15 1.4l.05-.05h-.05v.05" fill="url(#f)"/><radialGradient id="g" gradientUnits="userSpaceOnUse" gradientTransform="matrix(.0039 .00331 -.01566 .01842 78.7 49.75)" spreadMethod="pad" cx="0" cy="0" r="819.2" fx="44" fy="0"><stop offset="0" stop-color="#ffba99"/><stop offset="1" stop-color="#ffecd9"/></radialGradient><path d="M69.9 48.15l1.3-.1 1.2-.15.95-.05 1.05-.25.55-.85.45-1.85-.1-.85-.05-.1.1.1.6.65.5 1.4.5-.95 1.3-1.55.05-.05 1.05-1.15.65-2.15.05.25.6 2.9-.15 1.2q-1.1 4.35-6.45 6.85l-.05.1q-1.05.7-2.25.95l-.25.05h.05l.2-.05 1.05-.7.65-.6.8-.8.5-.55-.8.65-.75.45-.8.35-.2.1-.05-.05-.05.05H72l-.1.05h-.05v-.05q.75-.65 1.6-2.3l-.7.15-1.55-.1-1-.05h-.25l-.05-.95" fill="url(#g)"/><radialGradient id="h" gradientUnits="userSpaceOnUse" gradientTransform="matrix(.00897 0 0 .0057 70 54)" spreadMethod="pad" cx="0" cy="0" r="819.2" fx="0" fy="0"><stop offset="0" stop-color="#ffba99"/><stop offset="1" stop-color="#ffecd9"/></radialGradient><path d="M71.5 52.55l-3.6-.45-1.5-1.3-.15-.1-.2-.25v-.05l1.75.9h.1l.05.05h.1l.35.15 1.3.2.75.05.5-.05.9-.25h.05l.1-.05h.2l.2-.1.8-.35.75-.45.8-.65-.5.55-.8.8-.65.6-1.05.7-.2.05h-.05" fill="url(#h)"/><path d="M59.25 37.7l-.1-1.6-.1-.65q-.4-6.9 5.7-10.95h.05q4.65-1.95 8.55-.75 2.75.9 5.1 3.45 1.9 2.85 2.2 8.95l.05 1.2q.25 4-.05 6.05l-.15 1.2q-1.1 4.35-6.45 6.85l-.05.1q-1.05.7-2.25.95l-.25.05-3.85-.4-.95-.35-3.4-2.25q-2.35-1.5-3.4-4-.4-1.4-.5-4.65l-.1-1.85-.05-1.35z" fill="none" stroke-width=".05" stroke-linecap="round" stroke-linejoin="round" stroke-miterlimit="3" stroke="#fd9e66"/><radialGradient id="i" gradientUnits="userSpaceOnUse" gradientTransform="matrix(.00667 0 0 .0033 69.9 34.8)" spreadMethod="pad" cx="0" cy="0" r="819.2" fx="0" fy="0"><stop offset=".298" stop-color="#fffcf7" stop-opacity=".443"/><stop offset="1" stop-color="#fffbee" stop-opacity="0"/></radialGradient><path d="M64.05 35.15q0-.95 1.6-1.65 1.7-.65 4.05-.65 2.35 0 4 .65 1.7.7 1.7 1.65 0 .9-1.7 1.55l-4 .65q-2.35 0-4.05-.65-1.6-.65-1.6-1.55" fill="url(#i)"/><radialGradient id="j" gradientUnits="userSpaceOnUse" gradientTransform="matrix(.01349 0 0 .01308 69.4 15.8)" spreadMethod="pad" cx="0" cy="0" r="819.2" fx="41" fy="0"><stop offset="0" stop-color="#fff"/><stop offset=".988" stop-color="#ffecd9"/></radialGradient><path d="M79.45 27.7l-.4 3.5q0 1 .85 4.3l.95 2.9-.15.4v.05l-.05-.1v-.1L79.4 35.3l-.2-1.45-.35-1.75q-.5-1.45-1.85-2.95L75.55 28l-.3-.15h-.55q-2.5.2-4.35 2.45-2.35-2.75-5.55-2.45l-.25.05-.65.1q-1.95 1.6-3.1 3.7v-.35q-.3-3.9-1.35-5.55.7-1.25 1.75-2.25 3.6-3.8 8.75-3.75 5.1-.05 8.75 3.75l1.15 1.35-.4 2.8M59 38.65l.05-.2.7-2.05-.45 2.95v.1l-.25-.6-.05-.2" fill="url(#j)"/><radialGradient id="k" gradientUnits="userSpaceOnUse" gradientTransform="matrix(.00464 .00117 -.00381 .01497 56.5 33.15)" spreadMethod="pad" cx="0" cy="0" r="819.2" fx="0" fy="0"><stop offset="0" stop-color="#fbc3a3"/><stop offset=".831" stop-color="#ffecd9"/></radialGradient><path d="M59.05 38.45l-.05.2q-1.1-2.7-1.35-4.45l-.05-1.6v-.7l.3-2.35q.35-1.8 1.3-3.3l.25-.45q1.05 1.65 1.35 5.55v.35l-.55 1-.5 3.7-.7 2.05" fill="url(#k)"/><radialGradient id="l" gradientUnits="userSpaceOnUse" gradientTransform="matrix(.005 -.00128 .00307 .01207 83.1 33.2)" spreadMethod="pad" cx="0" cy="0" r="819.2" fx="0" fy="0"><stop offset="0" stop-color="#fbc3a3"/><stop offset=".831" stop-color="#ffecd9"/></radialGradient><path d="M80.85 38.4l-.95-2.9q-.85-3.3-.85-4.3l.4-3.5.4-2.8q2.15 3.55 2.3 7.15.1 3.55-1.3 6.35" fill="url(#l)"/><path d="M79.85 24.9l-1.15-1.35q-3.65-3.8-8.75-3.75-5.15-.05-8.75 3.75-1.05 1-1.75 2.25l-.25.45q-.95 1.5-1.3 3.3l-.3 2.35v.7l.05 1.6q.25 1.75 1.35 4.45m21.7.2v-.05l.15-.4m-1-13.5q2.15 3.55 2.3 7.15.1 3.55-1.3 6.35M59.3 39.45l-.25-.6-.05-.2" fill="none" stroke-width=".05" stroke-linecap="round" stroke-linejoin="round" stroke-miterlimit="3" stroke="#fd9e66"/></g></svg>