<svg width="26" height="33" xmlns="http://www.w3.org/2000/svg"><defs><radialGradient fy="0" fx="0" r="819.2" cy="0" cx="0" spreadMethod="pad" gradientTransform="rotate(-28.792 41.673 2.613) scale(.00491)" gradientUnits="userSpaceOnUse" id="a"><stop stop-color="#e88b64" offset="0"/><stop stop-color="#fdd7b9" offset=".847"/></radialGradient><radialGradient fy="0" fx="0" r="819.2" cy="0" cx="0" spreadMethod="pad" gradientTransform="matrix(.00275 -.00072 .00139 .00533 3.15 20.15)" gradientUnits="userSpaceOnUse" id="b"><stop stop-color="#c54b18" offset="0"/><stop stop-color="#fcc7a5" offset="1"/></radialGradient><radialGradient fy="0" fx="0" r="819.2" cy="0" cx="0" spreadMethod="pad" gradientTransform="matrix(-.0043 -.00237 -.00237 .0043 22.15 20.45)" gradientUnits="userSpaceOnUse" id="c"><stop stop-color="#e88b64" offset="0"/><stop stop-color="#fdd7b9" offset=".847"/></radialGradient><radialGradient fy="0" fx="0" r="819.2" cy="0" cx="0" spreadMethod="pad" gradientTransform="matrix(-.00275 -.00072 -.00139 .00533 22.9 20.2)" gradientUnits="userSpaceOnUse" id="d"><stop stop-color="#c54b18" offset="0"/><stop stop-color="#fcc7a5" offset="1"/></radialGradient><radialGradient fy="0" fx="475" r="819.2" cy="0" cx="0" spreadMethod="pad" gradientTransform="matrix(.0079 0 0 .00754 8.75 26.65)" gradientUnits="userSpaceOnUse" id="e"><stop stop-color="#ffc8ab" offset="0"/><stop stop-color="#ffecd9" offset="1"/></radialGradient><radialGradient fy="0" fx="0" r="819.2" cy="0" cx="0" spreadMethod="pad" gradientTransform="matrix(.00366 -.00168 .00925 .02017 5.55 31.55)" gradientUnits="userSpaceOnUse" id="f"><stop stop-color="#ffba99" offset="0"/><stop stop-color="#ffecd9" offset="1"/></radialGradient><radialGradient fy="0" fx="44" r="819.2" cy="0" cx="0" spreadMethod="pad" gradientTransform="matrix(.0039 .00331 -.01566 .01842 21.65 29.95)" gradientUnits="userSpaceOnUse" id="g"><stop stop-color="#ffba99" offset="0"/><stop stop-color="#ffecd9" offset="1"/></radialGradient><radialGradient fy="0" fx="0" r="819.2" cy="0" cx="0" spreadMethod="pad" gradientTransform="matrix(.00897 0 0 .0057 12.95 34.2)" gradientUnits="userSpaceOnUse" id="h"><stop stop-color="#ffba99" offset="0"/><stop stop-color="#ffecd9" offset="1"/></radialGradient><radialGradient fy="0" fx="0" r="819.2" cy="0" cx="0" spreadMethod="pad" gradientTransform="matrix(.00667 0 0 .0033 12.85 15)" gradientUnits="userSpaceOnUse" id="i"><stop stop-opacity=".443" stop-color="#fffcf7" offset=".298"/><stop stop-opacity="0" stop-color="#fffbee" offset="1"/></radialGradient><radialGradient fy="0" fx="41" r="819.2" cy="0" cx="0" spreadMethod="pad" gradientTransform="matrix(.01349 0 0 .01308 12.35 -4)" gradientUnits="userSpaceOnUse" id="j"><stop stop-color="#fff" offset="0"/><stop stop-color="#ffecd9" offset=".988"/></radialGradient><radialGradient fy="0" fx="0" r="819.2" cy="0" cx="0" spreadMethod="pad" gradientTransform="matrix(.00464 .00117 -.00381 .01497 -.55 13.35)" gradientUnits="userSpaceOnUse" id="k"><stop stop-color="#fbc3a3" offset="0"/><stop stop-color="#ffecd9" offset=".831"/></radialGradient><radialGradient fy="0" fx="0" r="819.2" cy="0" cx="0" spreadMethod="pad" gradientTransform="matrix(.005 -.00128 .00307 .01207 26.05 13.4)" gradientUnits="userSpaceOnUse" id="l"><stop stop-color="#fbc3a3" offset="0"/><stop stop-color="#ffecd9" offset=".831"/></radialGradient></defs><path fill="none" d="M-1-1h3.5v3.875H-1z"/><path fill="url(#a)" d="M2.1 17.55l.35 4.55v2.45q-.65-.4-.8-.9l-.15-1.4-.05-.1L1.1 21l-.3-1.45Q.4 17.25.5 17q.15-.25.5-.25l.45.1.65.65v.05m-1.2.35l.3.25.1.35v.35l.1.8v.05l-.2.15-.05.2.2.5.2.2h.05v.45l.05.5.1.45.25.35.2-.45v-.4l-.25-1q-.25-.4-.25-.8l.1-.4.1-.6v-.05l-.2-.45q-.3-.55-.65-.55l-.2.05-.1.05H.9"/><path fill="url(#b)" d="M.75 17.9l.1-.05.2-.05q.35 0 .65.55l.2.45v.05l-.1.6-.1.4q0 .4.25.8l.25 1v.4l-.2.45-.25-.35-.1-.45-.05-.5v-.45h-.05l-.2-.2-.2-.5.05-.2.2-.15v-.05l-.1-.8v-.35l-.1-.35-.3-.25H.75"/><path stroke="#fd9e66" stroke-miterlimit="3" stroke-linejoin="round" stroke-linecap="round" stroke-width=".05" fill="none" d="M2.1 17.55l.35 4.55v2.45q-.65-.4-.8-.9l-.15-1.4-.05-.1L1.1 21l-.3-1.45Q.4 17.25.5 17q.15-.25.5-.25l.45.1.65.65"/><path fill="url(#c)" d="M23.95 17.6q-.3 2.2-.35 4.55v2.45l.8-.9.15-1.4.05-.1.35-1.15.3-1.45.3-2.55q-.15-.25-.5-.25l-.45.1-.65.65v.05m1.2.35l-.3.25-.1.35v.35l-.1.8v.05l.2.15.05.2-.2.5-.2.2h-.05v.45l-.05.5-.1.45-.25.35-.2-.45v-.4q0-.6.25-1l.25-.8-.1-.4-.1-.6v-.05l.2-.45q.3-.55.65-.55l.2.05.1.05h-.15"/><path fill="url(#d)" d="M25.3 17.95l-.1-.05-.2-.05q-.35 0-.65.55l-.2.45v.05l.1.6.1.4-.25.8q-.25.4-.25 1v.4l.2.45.25-.35.1-.45.05-.5v-.45h.05l.2-.2.2-.5-.05-.2-.2-.15v-.05l.1-.8v-.35l.1-.35.3-.25h.15"/><path stroke="#fd9e66" stroke-miterlimit="3" stroke-linejoin="round" stroke-linecap="round" stroke-width=".05" fill="none" d="M23.95 17.6q-.3 2.2-.35 4.55v2.45l.8-.9.15-1.4.05-.1.35-1.15.3-1.45.3-2.55q-.15-.25-.5-.25l-.45.1-.65.65"/><path fill="#ffecd9" d="M23 20.7l-.05-.25-.65 2.15-1.05 1.15-.05.05-1.3 1.55-.5.95-.5-1.4-.6-.65-.1-.1.05.1.1.85-.45 1.85-.55.85-1.05.25-.95.05-1.2.15-1.3.1H11.8l-1.2-.15q-1-.1-2.1-.6-1.2-.55-1.45-1.2H7v-.25l-.05.15-.45-.55-.6-.55-.45-.45-.55-1.6-.1-.9-.05-.15-.55-.5q-.35-.5-.4-1.4v-.5l-.65-1.2-.1-.2v.05l-.4.3-.1.15-.05-.05-.3-.85-.1-1.6-.1-.65Q1.6 8.75 7.7 4.7h.05q4.65-1.95 8.55-.75 2.75.9 5.1 3.45 1.9 2.85 2.2 8.95l.05 1.2q.25 4-.05 6.05l-.6-2.9m-11.65 11q.3-.1-.6-.65-1.2-.75-1-1.5h.4l2.75-.25h.25l1 .05 1.55.1.7-.15q-.85 1.65-1.6 2.3v.05h-.1l-.8.25-.5.05-.75-.05-1.3-.2"/><path fill="url(#e)" d="M3.3 18.9l-.25-.55v-.05l.1.2.65 1.2v.5l-.5-1.3"/><path fill="url(#f)" d="M12.9 29.3l-2.75.25h-.4q-.2.75 1 1.5.9.55.6.65l-.35-.15h-.1l-.05-.05h-.1L9 30.6v.05l.2.25.15.1 1.5 1.3 3.6.45-3.85-.4-.95-.35-3.4-2.25q-2.35-1.5-3.4-4-.4-1.4-.5-4.65l-.1-1.85-.05-1.35.3.85v.05h.05l.1-.15.4-.3.25.55.5 1.3q.05.9.4 1.4l.55.5.05.15.1.9.55 1.6.45.45.6.55.45.55.05-.15v.25h.05q.25.65 1.45 1.2 1.1.5 2.1.6l1.2.15h1.05l.05.95m-4.15 1.4l.05-.05h-.05v.05"/><path fill="url(#g)" d="M12.85 28.35l1.3-.1 1.2-.15.95-.05 1.05-.25.55-.85.45-1.85-.1-.85-.05-.1.1.1.6.65.5 1.4.5-.95 1.3-1.55.05-.05 1.05-1.15.65-2.15.05.25.6 2.9-.15 1.2q-1.1 4.35-6.45 6.85l-.05.1q-1.05.7-2.25.95l-.25.05h.05l.2-.05 1.05-.7.65-.6.8-.8.5-.55-.8.65-.75.45-.8.35-.2.1-.05-.05-.05.05h-.1l-.1.05h-.05v-.05q.75-.65 1.6-2.3l-.7.15-1.55-.1-1-.05h-.25l-.05-.95"/><path fill="url(#h)" d="M14.45 32.75l-3.6-.45-1.5-1.3-.15-.1-.2-.25v-.05l1.75.9h.1l.05.05h.1l.35.15 1.3.2.75.05.5-.05.9-.25h.05l.1-.05h.2l.2-.1.8-.35.75-.45.8-.65-.5.55-.8.8-.65.6-1.05.7-.2.05h-.05"/><path stroke="#fd9e66" stroke-miterlimit="3" stroke-linejoin="round" stroke-linecap="round" stroke-width=".05" fill="none" d="M2.2 17.9l-.1-1.6-.1-.65Q1.6 8.75 7.7 4.7h.05q4.65-1.95 8.55-.75 2.75.9 5.1 3.45 1.9 2.85 2.2 8.95l.05 1.2q.25 4-.05 6.05l-.15 1.2q-1.1 4.35-6.45 6.85l-.05.1q-1.05.7-2.25.95l-.25.05-3.85-.4-.95-.35-3.4-2.25q-2.35-1.5-3.4-4-.4-1.4-.5-4.65l-.1-1.85-.05-1.35z"/><path fill="url(#i)" d="M7 15.35q0-.95 1.6-1.65 1.7-.65 4.05-.65 2.35 0 4 .65 1.7.7 1.7 1.65 0 .9-1.7 1.55l-4 .65q-2.35 0-4.05-.65Q7 16.25 7 15.35"/><path fill="url(#j)" d="M22.4 7.9l-.4 3.5q0 1 .85 4.3l.95 2.9-.15.4v.05l-.05-.1v-.1l-1.25-3.35-.2-1.45-.35-1.75q-.5-1.45-1.85-2.95L18.5 8.2l-.3-.15h-.55q-2.5.2-4.35 2.45-2.35-2.75-5.55-2.45l-.25.05-.65.1q-1.95 1.6-3.1 3.7v-.35Q3.45 7.65 2.4 6q.7-1.25 1.75-2.25Q7.75-.05 12.9 0q5.1-.05 8.75 3.75L22.8 5.1l-.4 2.8M1.95 18.85l.05-.2.7-2.05-.45 2.95v.1l-.25-.6-.05-.2"/><path fill="url(#k)" d="M2 18.65l-.05.2Q.85 16.15.6 14.4l-.05-1.6v-.7l.3-2.35q.35-1.8 1.3-3.3L2.4 6q1.05 1.65 1.35 5.55v.35l-.55 1-.5 3.7-.7 2.05"/><path fill="url(#l)" d="M23.8 18.6l-.95-2.9Q22 12.4 22 11.4l.4-3.5.4-2.8q2.15 3.55 2.3 7.15.1 3.55-1.3 6.35"/><path stroke="#fd9e66" stroke-miterlimit="3" stroke-linejoin="round" stroke-linecap="round" stroke-width=".05" fill="none" d="M22.8 5.1l-1.15-1.35Q18-.05 12.9 0 7.75-.05 4.15 3.75 3.1 4.75 2.4 6l-.25.45q-.95 1.5-1.3 3.3l-.3 2.35v.7l.05 1.6q.25 1.75 1.35 4.45m21.7.2V19l.15-.4m-1-13.5q2.15 3.55 2.3 7.15.1 3.55-1.3 6.35M2.25 19.65l-.25-.6-.05-.2"/></svg>