<svg xmlns="http://www.w3.org/2000/svg" width="27" height="33"><g transform="translate(13.2 16.15)"><path d="M7.6 4.2l-.35 1.45-.3.75-.4 1.05-.6 1v.1l-.75.8-1.15.95-.45-.1-.55-.2q-1-.4-1.3-.35Q.35 11.1.25 11.5q-.1.4.9 1.1.95.7 1.2 1.5l.1.45-.3.4q-.8.95-2 .7l-.95-.4-1.3-.7v-.4q.25-.85 1.25-1.55 1-.7.9-1.1l-1.4-1.8q.45-1.95 1.3-2.4l-2.15-.4-2 .7-.65-.15-.95-1.35-.95-2.1L-7.9.9l-.55-1.65.2-.55.3-.85 1.2-1.95.2-.45Q-4.85-6.4-4.7-8.3l.4-6.95q2-.8 4.35-.8h.2L2-15.9l2.65.8.45 5.1.1 2.2q.2 1.2 1.25 2.7l.35.5.25.5L8.2-2.15l.35.75v.1l.3.9-.1.25L7.6 4.2" fill="#ffecd9"/><linearGradient id="a" gradientUnits="userSpaceOnUse" gradientTransform="matrix(.00958 -.00194 .0037 .01822 -9.35 6.95)" x1="-819.2" x2="819.2"><stop offset="0" stop-color="#fab89d"/><stop offset="1" stop-color="#ffecd9"/></linearGradient><path d="M1.55 16l-.7.2H.1q-.95 0-2-.65l-1.2-.8-.35-.3-1-.8-1.25-1.1-.7-.7L-6.95 9v-.1l-.95-4.45-.2-.75Q-8.35 2.65-9.35.6l-1.25-2.1-.35-.55-.15-.5-.1-.35 2.4 2.75.5.6 1 3.75.05.25.3 1.2L-5.6 8.9l.05.1.8 1.05.45.35h.2l1.3-.4 1.4-.35.05.05 1.4 1.8q.1.4-.9 1.1-1 .7-1.25 1.55v.4l1.3.7.95.4.85.25.55.1" fill="url(#a)"/><linearGradient id="b" gradientUnits="userSpaceOnUse" gradientTransform="matrix(-.00905 -.0052 .0091 -.01582 13.55 5.5)" x1="-819.2" x2="819.2"><stop offset="0" stop-color="#faa684"/><stop offset="1" stop-color="#ffecd9"/></linearGradient><path d="M1 15.9l-.85-.25q1.2.25 2-.7l.3-.4-.1-.45q-.25-.8-1.2-1.5-1-.7-.9-1.1.1-.4 1.5-1.85.3-.05 1.3.35l.55.2.45.1 1.15-.95.75-.8v-.1l.6-1 .4-1.05.3-.75.35-1.45L8.75-.15l1.9-2.05.15-.15.5-.5-.1.3-.1.4-.05.15-.05.4h-.05L9.65.6q-1 2.05-1.25 3.1l-.65 2.85-.15.9-1.4 4.5-2.15 2.15-.1.15-1.3 1.15-1.1.6-.55-.1m-9.6-7.8l-.35-1.25-.1-.7-.3-1.4.3 1.4.45 1.95m-2.35-10.15V-2l-.15-.55.15.5m2.1-9.85l.8-.9.65-.55-.65.55-.8.9" fill="url(#b)"/><linearGradient id="c" gradientUnits="userSpaceOnUse" gradientTransform="matrix(.00534 -.00145 .00246 .00917 -8.9 5.15)" x1="-819.2" x2="819.2"><stop offset="0" stop-color="#faa684"/><stop offset="1" stop-color="#ffecd9"/></linearGradient><path d="M-9.05 6.15l-.3-1.4-1.6-6.75v-.05l.35.55L-9.35.6q1 2.05 1.25 3.1l.2.75.95 4.45V9l.55 2.85-1.5-2.15-.35-.7-.2-.55-.15-.35-.45-1.95" fill="url(#c)"/><linearGradient id="d" gradientUnits="userSpaceOnUse" gradientTransform="matrix(-.0059 -.00342 .00449 -.00777 9.55 5.95)" x1="-819.2" x2="819.2"><stop offset="0" stop-color="#faa684"/><stop offset="1" stop-color="#ffecd9"/></linearGradient><path d="M11-1.6L9.45 4.75l-.25 1.4-.15.7-.4 1.2-1 1.95-1.45 1.95 1.4-4.5.15-.9.65-2.85Q8.65 2.65 9.65.6l1.3-2.2H11" fill="url(#d)"/><radialGradient id="e" gradientUnits="userSpaceOnUse" gradientTransform="translate(-11.15 15.45) scale(.01454)" spreadMethod="pad" cx="0" cy="0" r="819.2" fx="0" fy="0"><stop offset="0" stop-color="#fab89d"/><stop offset="1" stop-color="#ffecd9"/></radialGradient><path d="M-1.4 9.65l-1.4.35-1.3.4h-.2l-.45-.35-.8-1.05-.05-.1-1.35-3.25-.3-1.2-.05-.25-1-3.75-.25-.85.1-.35L-7.9.9-6.75 4l.95 2.1.95 1.35.65.15 2-.7 2.15.4q-.85.45-1.3 2.4l-.05-.05" fill="url(#e)"/><linearGradient id="f" gradientUnits="userSpaceOnUse" gradientTransform="matrix(-.00415 .00092 -.00179 -.0082 11.25 -9.25)" x1="-819.2" x2="819.2"><stop offset="0" stop-color="#fab89d"/><stop offset="1" stop-color="#ffecd9"/></linearGradient><path d="M10.8-2.35l-.15.15-1.9 2.05.1-.25-.3-.9v-.1l-.35-.75L7.05-4.1l-.25-.5-.35-.5Q5.4-6.6 5.2-7.8L5.1-10l-.45-5.1 1.15.55 1 .65.7.55.65.55.8.9q2.95 4 2.4 8.5l-.05.35v.2l-.5.5" fill="url(#f)"/><linearGradient id="g" gradientUnits="userSpaceOnUse" gradientTransform="matrix(.00294 -.00061 .00192 .00906 -11.45 -4.45)" x1="-819.2" x2="819.2"><stop offset="0" stop-color="#fab89d"/><stop offset="1" stop-color="#ffecd9"/></linearGradient><path d="M-8.8-.15l-2.4-2.75v-.15l-.05-.35q-.6-4.5 2.4-8.5l.8-.9.65-.55.7-.55 2.4-1.35-.4 6.95q-.15 1.9-1.85 3.75l-.2.45-1.2 1.95-.3.85-.2.55-.1.35.25.85-.5-.6" fill="url(#g)"/><path d="M11.3-2.85v-.2l.05-.35q.55-4.5-2.4-8.5l-.8-.9-.65-.55-.7-.55-1-.65-1.15-.55M11.3-2.85l-.1.3-.1.4-.05.15-.05.4-1.55 6.35-.25 1.4-.15.7-.4 1.2-1 1.95-1.45 1.95-2.15 2.15-.1.15-1.3 1.15-1.1.6-.7.2H.1q-.95 0-2-.65l-1.2-.8-.35-.3-1-.8-1.25-1.1-.7-.7-1.5-2.15-.35-.7-.2-.55-.15-.35-.35-1.25-.1-.7-.3-1.4-1.6-6.75-.15-.55-.1-.35v-.15l-.05-.35q-.6-4.5 2.4-8.5l.8-.9.65-.55.7-.55 2.4-1.35q2-.8 4.35-.8h.2L2-15.9l2.65.8" fill="none" stroke-width=".05" stroke-linecap="round" stroke-linejoin="round" stroke-miterlimit="3" stroke="#fd9e66"/><radialGradient id="h" gradientUnits="userSpaceOnUse" gradientTransform="matrix(-.00523 -.00311 -.00339 .00613 8.1 4.5)" spreadMethod="pad" cx="0" cy="0" r="819.2" fx="48" fy="0"><stop offset="0" stop-color="#ff9c9c" stop-opacity=".451"/><stop offset=".565" stop-color="#ffc1bf" stop-opacity=".231"/><stop offset="1" stop-color="#ffeddb" stop-opacity="0"/></radialGradient><path d="M2.9 2.25Q4.05.15 6.1-.5q2.05-.8 3.85.25Q11.7.8 12.15 3q.4 2.2-.7 4.3-1.15 2.1-3.25 2.85-2.1.7-3.8-.3-1.75-1.1-2.2-3.3-.5-2.25.7-4.3" fill="url(#h)"/><radialGradient id="i" gradientUnits="userSpaceOnUse" gradientTransform="matrix(.00523 -.00311 .00339 .00613 -7.4 4.7)" spreadMethod="pad" cx="0" cy="0" r="819.2" fx="0" fy="0"><stop offset="0" stop-color="#ff9c9c" stop-opacity=".451"/><stop offset=".565" stop-color="#ffc1bf" stop-opacity=".231"/><stop offset="1" stop-color="#ffeddb" stop-opacity="0"/></radialGradient><path d="M-2 6.55q-.45 2.2-2.2 3.3-1.75 1-3.8.3-2.1-.75-3.2-2.85-1.15-2.1-.7-4.3.4-2.2 2.2-3.25Q-7.95-1.3-5.85-.5q2 .65 3.15 2.75 1.2 2.05.7 4.3" fill="url(#i)"/><path d="M12.45 2.7l-.05-.65q-.5-.75-1.75 1.45-.15.9-.5 1.15-.35.25-.35.5l.1.4v.05l-.55.9.85-.65h.6l.45-.2.6-.8-.4.85-.7.3q-.35.05-.65.3l-.4.3-.3.1-.2-.2.25-.5.15-.5q-.05-.65.15-.8.5-.45.5-.9l.3-1 .8-.9q.6-.45.85-.45.55.05.5.8l-.3 1.15.05-.7" fill="#efb087"/><path d="M10.4.9l1.75-.3q.4.05.65.35l.1.15.25.5v.1l.05.4-.1 1.7q-.1.85-1.05 1.95l-1.1 1.1-.6.7-.5.7q-.3.35-1.45.55l2-7.9m1.95 2.75l.05-.25.3-1.15q.05-.75-.5-.8-.25 0-.85.45l-.8.9-.3 1q0 .45-.5.9-.2.15-.15.8l-.15.5-.25.5.2.2.3-.1.4-.3q.3-.25.65-.3l.7-.3.4-.85.5-1.2" fill="#f7d2bb"/><radialGradient id="j" gradientUnits="userSpaceOnUse" gradientTransform="matrix(.00325 .00029 -.00029 .00325 9.85 2.85)" spreadMethod="pad" cx="0" cy="0" r="819.2" fx="0" fy="0"><stop offset="0" stop-color="#d3873d"/><stop offset=".992" stop-color="#f5c9ab"/></radialGradient><path d="M11.85 4.85l-.6.8-.45.2h-.6l-.85.65.55-.9v-.05l-.1-.4q0-.25.35-.5t.5-1.15q1.25-2.2 1.75-1.45l.05.65-.05.7-.05.25-.5 1.2" fill="url(#j)"/><path d="M8.4 8.8q1.15-.2 1.45-.55l.5-.7.6-.7 1.1-1.1Q13 4.65 13.1 3.8l.1-1.7-.05-.4v-.1l-.25-.5-.1-.15q-.25-.3-.65-.35L10.4.9" fill="none" stroke-width=".05" stroke-linecap="round" stroke-linejoin="round" stroke-miterlimit="3" stroke="#fd9e66"/><path d="M-12.65 2.25q-.05-.75.45-.75.3-.05.9.4l.8.85.35 1.05q-.05.4.45.9.25.15.2.8l.15.5.25.45-.25.25-.3-.15-.35-.25q-.35-.3-.7-.3l-.65-.35-.45-.8.6.8.4.2.65.05.85.55-.5-.85v-.05l.1-.4q-.05-.3-.4-.55-.35-.2-.45-1.15-1.3-2.2-1.8-1.45l-.05.7.05.7-.3-1.15" fill="#efb087"/><path d="M-8.3 8.8l-1.45-.55h-.05l-.55-.7-.5-.75L-12 5.7q-.95-1-1.05-1.9l-.1-1.75.05-.4V1.6l.2-.5.15-.15q.3-.35.7-.35.85-.1 1.7.3l2.05 7.9m-4.05-5.4l.05.25.5 1.2.45.8.65.35q.35 0 .7.3l.35.25.3.15.25-.25-.25-.45-.15-.5q.05-.65-.2-.8-.5-.5-.45-.9l-.35-1.05-.8-.85q-.6-.45-.9-.4-.5 0-.45.75l.3 1.15" fill="#f7d2bb"/><radialGradient id="k" gradientUnits="userSpaceOnUse" gradientTransform="matrix(-.00325 .00029 .00029 .00325 -9.85 2.9)" spreadMethod="pad" cx="0" cy="0" r="819.2" fx="0" fy="0"><stop offset="0" stop-color="#d3873d"/><stop offset=".992" stop-color="#f5c9ab"/></radialGradient><path d="M-12.3 3.65l-.05-.25-.05-.7.05-.7q.5-.75 1.8 1.45.1.95.45 1.15.35.25.4.55l-.1.4v.05l.5.85-.85-.55-.65-.05-.4-.2-.6-.8-.5-1.2" fill="url(#k)"/><path d="M-8.3 8.8l-1.45-.55h-.05l-.55-.7-.5-.75L-12 5.7q-.95-1-1.05-1.9l-.1-1.75.05-.4V1.6l.2-.5.15-.15q.3-.35.7-.35.85-.1 1.7.3" fill="none" stroke-width=".05" stroke-linecap="round" stroke-linejoin="round" stroke-miterlimit="3" stroke="#fd9e66"/><radialGradient id="l" gradientUnits="userSpaceOnUse" gradientTransform="matrix(.0121 0 0 .01172 7.1 -12.45)" spreadMethod="pad" cx="0" cy="0" r="819.2" fx="0" fy="0"><stop offset="0" stop-color="#fff" stop-opacity=".161"/><stop offset="1" stop-color="#fff" stop-opacity="0"/></radialGradient><path d="M.85-15.75q6.1 1.65 7.1 2.8 2.2 2.5 2.2 4.9 0 3.85-6.6 3.85-1.4 0-1.85-.3-.65-.45-1.25-2.2-.65-1.95-.55-3l-.05-2.4q0-2.3.9-3.7l.1.05" fill="url(#l)"/><radialGradient id="m" gradientUnits="userSpaceOnUse" gradientTransform="matrix(.01244 0 0 .01205 -.5 -19.8)" spreadMethod="pad" cx="0" cy="0" r="819.2" fx="41" fy="0"><stop offset="0" stop-color="#fff"/><stop offset=".988" stop-color="#ffecd9"/></radialGradient><path d="M10.6-1.6l-.15-2.15Q10.3-5.2 9.1-7.2l-1-.7q-1.15-.7-2.6-.75-3-.3-5.1 2.2-2.2-2.5-5.15-2.2-3.15.2-4.8 2.9l-.7 1.3-.15 1.85-.05.85.15 1.65-.1.55q-.65-1.4-.9-3.3l-.05-1.45v-.65l.25-2.15q.35-1.7 1.2-3.1l1.85-2.45q3.3-3.5 8.1-3.45 4.7-.05 8.05 3.45 3.3 3.4 3.35 8.35L10.8-.6l-.2-1" fill="url(#m)"/><path d="M10.8-.6l.65-3.7q-.05-4.95-3.35-8.35-3.35-3.5-8.05-3.45-4.8-.05-8.1 3.45L-9.9-10.2q-.85 1.4-1.2 3.1l-.25 2.15v.65l.05 1.45q.25 1.9.9 3.3" fill="none" stroke-width=".05" stroke-linecap="round" stroke-linejoin="round" stroke-miterlimit="3" stroke="#fd9e66"/><radialGradient id="n" gradientUnits="userSpaceOnUse" gradientTransform="matrix(.01002 0 0 .0097 6.7 -8.45)" spreadMethod="pad" cx="0" cy="0" r="819.2" fx="0" fy="0"><stop offset="0" stop-color="#fff" stop-opacity=".643"/><stop offset="1" stop-color="#fff" stop-opacity="0"/></radialGradient><path d="M2.9-15.2q3.75.55 6.1 3.8 2.05 2.75 2.05 5.65L10.5-1.7h-.05l.25-2.1q0-3.4-1.85-6.55-2.35-3.95-6.4-4.85h.45" fill="url(#n)"/><radialGradient id="o" gradientUnits="userSpaceOnUse" gradientTransform="matrix(.0104 0 0 .01007 -7.3 -8)" spreadMethod="pad" cx="0" cy="0" r="819.2" fx="0" fy="0"><stop offset="0" stop-color="#fff" stop-opacity=".502"/><stop offset="1" stop-color="#fff" stop-opacity="0"/></radialGradient><path d="M-3.65-15.3q-3.1 1.8-5.05 5.15-1.85 3.05-1.85 6 0 1.85.55 3.2v.25h-.05q-.9-2.95-.9-5.35l.15-1.45q0-1.15 2.3-4.2 1.65-2.5 4.8-3.6h.05" fill="url(#o)"/><radialGradient id="p" gradientUnits="userSpaceOnUse" gradientTransform="matrix(.01161 0 0 .01125 -.35 -12.35)" spreadMethod="pad" cx="0" cy="0" r="819.2" fx="0" fy="0"><stop offset="0" stop-color="#fff" stop-opacity=".502"/><stop offset="1" stop-color="#fff" stop-opacity="0"/></radialGradient><path d="M6.95-13.55l2.1 2.45Q8.55-8.75 6.3-7 3.55-4.75-.35-4.75q-3.9 0-6.7-2.25-2.45-2-2.7-4.75l1.15-.85q.9-.75 2.7-1.75 1.75-1.05 3.5-1.45l2.4-.3 2.05.15 1.4.4 1.4.65 2.1 1.35" fill="url(#p)"/></g></svg>