<svg width="25" height="33" xmlns="http://www.w3.org/2000/svg"><defs><radialGradient fy="0" fx="0" r="819.2" cy="0" cx="0" spreadMethod="pad" gradientTransform="matrix(-.00558 -.00307 -.00307 .00558 5.262 18.412)" gradientUnits="userSpaceOnUse" id="a"><stop stop-color="#e88b64" offset="0"/><stop stop-color="#fdd7b9" offset=".847"/></radialGradient><radialGradient fy="0" fx="0" r="819.2" cy="0" cx="0" spreadMethod="pad" gradientTransform="matrix(-.00356 .00104 .00153 .00525 3.862 19.562)" gradientUnits="userSpaceOnUse" id="b"><stop stop-color="#c54b18" offset="0"/><stop stop-color="#fcc7a5" offset="1"/></radialGradient><radialGradient fy="0" fx="0" r="819.2" cy="0" cx="0" spreadMethod="pad" gradientTransform="rotate(-28.751 45.612 -29.057) scale(.00637)" gradientUnits="userSpaceOnUse" id="c"><stop stop-color="#e88b64" offset="0"/><stop stop-color="#fdd7b9" offset=".847"/></radialGradient><radialGradient fy="0" fx="0" r="819.2" cy="0" cx="0" spreadMethod="pad" gradientTransform="matrix(.00356 .00104 -.00153 .00525 21.062 19.562)" gradientUnits="userSpaceOnUse" id="d"><stop stop-color="#c54b18" offset="0"/><stop stop-color="#fcc7a5" offset="1"/></radialGradient><radialGradient fy="0" fx="0" r="819.2" cy="0" cx="0" spreadMethod="pad" gradientTransform="matrix(.00604 -.0015 .00667 .02711 2.012 26.212)" gradientUnits="userSpaceOnUse" id="e"><stop stop-color="#fbbd9d" offset="0"/><stop stop-color="#ffecd9" offset="1"/></radialGradient><radialGradient fy="0" fx="0" r="819.2" cy="0" cx="0" spreadMethod="pad" gradientTransform="matrix(.0066 .00302 -.00876 .01915 23.062 25.012)" gradientUnits="userSpaceOnUse" id="f"><stop stop-color="#fbbd9d" offset="0"/><stop stop-color="#ffecd9" offset="1"/></radialGradient><radialGradient fy="0" fx="0" r="819.2" cy="0" cx="0" spreadMethod="pad" gradientTransform="matrix(.0061 .00153 -.00252 .01006 21.262 26.012)" gradientUnits="userSpaceOnUse" id="g"><stop stop-color="#fbbd9d" offset="0"/><stop stop-color="#ffecd9" offset=".847"/></radialGradient><radialGradient fy="0" fx="210386" r="819.2" cy="0" cx="0" spreadMethod="pad" gradientTransform="matrix(.00574 -.00128 .00308 .01353 3.512 26.662)" gradientUnits="userSpaceOnUse" id="h"><stop stop-color="#fbbd9d" offset="0"/><stop stop-color="#ffecd9" offset=".847"/></radialGradient><radialGradient fy="0" fx="0" r="819.2" cy="0" cx="0" spreadMethod="pad" gradientTransform="matrix(.00877 -.00192 .00198 .00908 14.012 16.212)" gradientUnits="userSpaceOnUse" id="i"><stop stop-color="#fac5af" offset=".259"/><stop stop-color="#ffeadd" offset="1"/></radialGradient><radialGradient fy="0" fx="0" r="819.2" cy="0" cx="0" spreadMethod="pad" gradientTransform="matrix(.00629 0 0 .00204 12.062 33.212)" gradientUnits="userSpaceOnUse" id="j"><stop stop-color="#fbbd9d" offset="0"/><stop stop-color="#ffecd9" offset="1"/></radialGradient><radialGradient fy="0" fx="0" r="819.2" cy="0" cx="0" spreadMethod="pad" gradientTransform="matrix(.00566 .00154 -.00436 .016 .662 6.862)" gradientUnits="userSpaceOnUse" id="k"><stop stop-color="#fbc3a3" offset="0"/><stop stop-color="#ffecd9" offset=".831"/></radialGradient><radialGradient fy="0" fx="0" r="819.2" cy="0" cx="0" spreadMethod="pad" gradientTransform="matrix(.00636 -.00151 .00395 .0168 23.562 7.612)" gradientUnits="userSpaceOnUse" id="l"><stop stop-color="#fbc3a3" offset="0"/><stop stop-color="#ffecd9" offset=".831"/></radialGradient><radialGradient fy="0" fx="41" r="819.2" cy="0" cx="0" spreadMethod="pad" gradientTransform="matrix(.01349 0 0 .01308 11.912 -3.938)" gradientUnits="userSpaceOnUse" id="m"><stop stop-color="#fff" offset="0"/><stop stop-color="#ffecd9" offset=".988"/></radialGradient><radialGradient fy="0" fx="0" r="819.2" cy="0" cx="0" spreadMethod="pad" gradientTransform="matrix(.00604 -.0015 .00667 .02711 2.012 26.212)" gradientUnits="userSpaceOnUse" id="n"><stop stop-color="#fbbd9d" offset="0"/><stop stop-color="#ffecd9" offset="1"/></radialGradient><radialGradient fy="0" fx="0" r="819.2" cy="0" cx="0" spreadMethod="pad" gradientTransform="matrix(.0066 .00302 -.00876 .01915 23.062 25.012)" gradientUnits="userSpaceOnUse" id="o"><stop stop-color="#fbbd9d" offset="0"/><stop stop-color="#ffecd9" offset="1"/></radialGradient><radialGradient fy="0" fx="0" r="819.2" cy="0" cx="0" spreadMethod="pad" gradientTransform="matrix(.00566 .00154 -.00436 .016 .662 6.862)" gradientUnits="userSpaceOnUse" id="p"><stop stop-color="#fbc3a3" offset="0"/><stop stop-color="#ffecd9" offset=".831"/></radialGradient><radialGradient fy="0" fx="0" r="819.2" cy="0" cx="0" spreadMethod="pad" gradientTransform="matrix(.00636 -.00151 .00395 .0168 23.562 7.612)" gradientUnits="userSpaceOnUse" id="q"><stop stop-color="#fbc3a3" offset="0"/><stop stop-color="#ffecd9" offset=".831"/></radialGradient><radialGradient fy="0" fx="0" r="819.2" cy="0" cx="0" spreadMethod="pad" gradientTransform="matrix(.0126 0 0 .0122 12.312 4.512)" gradientUnits="userSpaceOnUse" id="r"><stop stop-opacity=".502" stop-color="#fff" offset="0"/><stop stop-opacity="0" stop-color="#fff" offset="1"/></radialGradient><radialGradient fy="0" fx="0" r="819.2" cy="0" cx="0" spreadMethod="pad" gradientTransform="matrix(.01128 0 0 .01093 4.562 8.962)" gradientUnits="userSpaceOnUse" id="s"><stop stop-opacity=".271" stop-color="#fff" offset="0"/><stop stop-opacity="0" stop-color="#fff" offset="1"/></radialGradient><radialGradient fy="0" fx="0" r="819.2" cy="0" cx="0" spreadMethod="pad" gradientTransform="matrix(.01088 0 0 .01053 19.762 8.462)" gradientUnits="userSpaceOnUse" id="t"><stop stop-opacity=".302" stop-color="#fff" offset="0"/><stop stop-opacity="0" stop-color="#fff" offset="1"/></radialGradient><radialGradient fy="0" fx="0" r="819.2" cy="0" cx="0" spreadMethod="pad" gradientTransform="matrix(.00175 .00665 -.00635 .00188 11.812 13.062)" gradientUnits="userSpaceOnUse" id="u"><stop stop-opacity=".592" stop-color="#fffcf7" offset=".314"/><stop stop-opacity="0" stop-color="#fffbee" offset="1"/></radialGradient></defs><path fill="none" d="M-1-1h3.5v3.875H-1z"/><g><path fill="url(#a)" d="M.512 18.862q.1 1 .5 2l-.05-1.3q-.1-1.15.05-1.3l.1.05.1.35.3.35h.3l.2-.1.1.6-.35.35-.45.45q-.35.65.9.75l.05.65-.45-.15-.45-.3.65.95.9.35h.35q.45-.3.25-.75l-.4-.8.1-.7-.3-.55-.2-.5v-.65q-.2-.55-.9-.95l-1.1-.1q-.25.3-.2 1.3m3.35 4.9q.05.25-.7.15-.8-.1-1.3-.6l-.9-1.1q-.4-.5-.9-2.7-.1-1.85.3-2.55.4-.7 1.4-.35l1.3.5q.7 3.2.8 6.65"/><path fill="url(#b)" d="M.712 17.562l1.1.1q.7.4.9.95v.65l.2.5.3.55-.1.7.4.8q.2.45-.25.75h-.35l-.9-.35-.65-.95.45.3.45.15-.05-.65q-1.25-.1-.9-.75l.45-.45.35-.35-.1-.6-.2.1h-.3l-.3-.35-.1-.35-.1-.05q-.15.15-.05 1.3l.05 1.3q-.4-1-.5-2-.05-1 .2-1.3"/><path stroke-opacity=".502" stroke="#b76340" stroke-miterlimit="3" stroke-linejoin="round" stroke-linecap="round" stroke-width=".05" fill="none" d="M3.062 17.112l-1.3-.5q-1-.35-1.4.35-.4.7-.3 2.55.5 2.2.9 2.7l.9 1.1q.5.5 1.3.6.75.1.7-.15"/><path fill="url(#c)" d="M24.412 18.862l-.5 2 .05-1.3-.05-1.3-.1.05-.1.35-.3.35h-.3l-.2-.1-.1.6.35.35.45.45q.35.65-.9.75l-.05.65.45-.15.45-.3-.65.95-.9.35h-.35q-.45-.3-.25-.75l.4-.8-.1-.7.3-.55.2-.5v-.65q.2-.55.9-.95l1.1-.1.2 1.3m-3.35 4.9q-.05.25.7.15.8-.1 1.3-.6l.9-1.1q.4-.5.9-2.7.1-1.85-.3-2.55-.4-.7-1.4-.35l-1.3.5q-.7 3.2-.8 6.65"/><path fill="url(#d)" d="M24.212 17.562l-1.1.1q-.7.4-.9.95v.65l-.2.5-.3.55.1.7-.4.8q-.2.45.25.75h.35l.9-.35.65-.95-.45.3-.45.15.05-.65q1.25-.1.9-.75l-.45-.45-.35-.35.1-.6.2.1h.3l.3-.35.1-.35.1-.05.05 1.3-.05 1.3.5-2-.2-1.3"/><path stroke-opacity=".502" stroke="#b76340" stroke-miterlimit="3" stroke-linejoin="round" stroke-linecap="round" stroke-width=".05" fill="none" d="M21.862 17.112l1.3-.5q1-.35 1.4.35.4.7.3 2.55-.5 2.2-.9 2.7l-.9 1.1q-.5.5-1.3.6-.75.1-.7-.15"/><path fill="#ffecd9" d="M16.562 7.362q-1.3 1.25 1.05 2.3 2.25 1.1 1.95 2.35l-.25 1.2q0 .5.7 1.8l.35.5-.75 1.4-.55.55-.2.7.1.65.1.7q0 .65-.4 1.45l-.8.95q-.25.2-.5 1.15l-.35 1.4-.4 1.75-.45 2.15-1.3 3-.75.35-1.6.35-1.8-.25-1.35-.4q-.2-.5.1-1.35.5-1-.75-3.25l-1.9-3.05-1.15-1.2-1.05-1.2q-.4-.8-.35-1.45.1-.75.55-1.25l.4-.55-1.15-1.85-.55-1.25q-.05-.2-1-.5-.3.15-.55-.2h1.35l-.05-.15.05-.15 1.8-2q-.1-.7.9-.25 1.2.45 1.95-.6.75-1.15.25-5.35-.25-1.4-.1-2.45 2.15-1.05 4.8-1.05 2.6 0 4.55 1.25.35 2.55-.9 3.8m-13.55 6.65l-.2.2v-.05l.2-.35v.2m.1-.5l-.05.2v-.2h.05m7.15 7.65l.05-.3-.1.2.05.1"/><path fill="url(#e)" d="M9.462 31.762l.2.2.35.35q-1.95-1.2-3.5-2.9-2.3-2.15-2.8-4l-.65-2.7v-.1q-.75-2.15-1.05-5.3l.2.55q.45 1.35 2.3 3.5l.1 1.4.5 1.95q.35 1.1.9 1.8l1.45 1.65.9 1.75.8 1.25v.1l.05.05.25.45m-6.2-17.6l.05.15h-.6l.1-.15v.05l.2-.2.25.15m-.2-.65l.05-.05v.05h-.05"/><path fill="url(#f)" d="M22.862 13.962v2.65l-.45 5.05-.65 2.45-.45 1.05q-1.15 2.7-2.65 4.05l-2.85 2.35-.3.2-.45.25-.7.05.45-.5v.2l1.25-1q1.4-1.3 1.65-2.35l.35-1.2.2-1q.05-.45.25-.8v-.1l.1-.25.05-.2q.55-2.3.9-2.9l.6-.75.5-.8.8-1.65.75-2.4q.35-1.25-1.4.3l.1-.15 1.85-2.35.1-.2"/><path fill="url(#g)" d="M14.812 31.512l.05-.15 1.3-3 .45-2.15.4-1.75.35-1.4q.25-.95.5-1.15l.8-.95q.4-.8.4-1.45l-.1-.7-.1-.65.2-.7.55-.55.75-1.4.55 1-.1.15q1.75-1.55 1.4-.3l-.75 2.4-.8 1.65-.5.8-.6.75q-.35.6-.9 2.9l-.05.2-.1.25v.1q-.2.35-.25.8l-.2 1-.35 1.2q-.25 1.05-1.65 2.35l-1.25 1v-.25"/><path fill="url(#h)" d="M9.212 31.312l-.05-.05v-.1l-.8-1.25-.9-1.75-1.45-1.65q-.55-.7-.9-1.8l-.5-1.95-.1-1.4q-1.85-2.15-2.3-3.5l-.2-.55v-.95q-.6-1.6-.05-2.05.25.35.55.2.95.3 1 .5l.55 1.25 1.15 1.85-.4.55q-.45.5-.55 1.25-.05.65.35 1.45l1.05 1.2 1.15 1.2 1.9 3.05q1.25 2.25.75 3.25-.3.85-.1 1.35l-.15-.1"/><path fill="url(#i)" d="M10.212 21.062l.1-.2-.05.3-.05-.1"/><path fill="url(#j)" d="M9.362 31.412l1.35.4 1.8.25 1.6-.35.75-.35-.05.15v.05l-.45.5.7-.05-1.4.55-3.65-.25-.35-.35-.2-.2-.25-.45.15.1"/><path fill="url(#k)" d="M3.012 14.012v-.2l-.2.35-.1.15h-.75q.5-8.5 6.15-10.95-.15 1.05.1 2.45.5 4.2-.25 5.35-.75 1.05-1.95.6-1-.45-.9.25l-1.8 2-.05.15-.25-.15m.05-.3l.05-.2v-.05l-.05.05v.2"/><path fill="url(#l)" d="M20.362 15.512l-.35-.5q-.7-1.3-.7-1.8l.25-1.2q.3-1.25-1.95-2.35-2.35-1.05-1.05-2.3 1.25-1.25.9-3.8 1.9.8 3.6 3.05 1.7 2.2 1.8 7.35l-.1.2-1.85 2.35-.55-1"/><path stroke="#fd9e66" stroke-miterlimit="3" stroke-linejoin="round" stroke-linecap="round" stroke-width=".05" fill="none" d="M1.962 14.312q.5-8.5 6.15-10.95 2.15-1.05 4.8-1.05 2.6 0 4.55 1.25 1.9.8 3.6 3.05 1.7 2.2 1.8 7.35v2.65l-.45 5.05-.65 2.45-.45 1.05q-1.15 2.7-2.65 4.05l-2.85 2.35-.3.2-.45.25-1.4.55-3.65-.25q-1.95-1.2-3.5-2.9-2.3-2.15-2.8-4l-.65-2.7v-.1q-.75-2.15-1.05-5.3v-.95l-.05-2.05z"/><path fill="url(#m)" d="M24.512 9.812h-.05l.05-.05v.05"/><path fill="url(#n)" d="M.112 12.862v-.3l.05.2.05.25h-.1v-.15m2.3 7.65l-.4-.95-.25-.45-.2-.4-.5-1.35 1.4 1.05v.1l.05.2v1.7l.1.6-.2-.5"/><path fill="url(#o)" d="M22.612 20.112l.05-2.05v-1.6l-.05-.25.7-.45q.4-.25.75-.35l-.55 2.05.2-.5-.05.2-1.05 2.95"/><path fill="url(#p)" d="M7.312 8.112q-2.4.2-4 1.7-1 1.7-1.15 3.6-.15 1.85.05 2.7l.2 1.6.05.7-1.4-1.05-.35-1.1q-.3-.85-.45-2l-.15-1.25h.1l-.05-.25-.05-.2v-.4l.3-2.35.1-.35.2-.75q.35-1.15 1-2.2.75-1.5 2-2.7 1.4-1.45 3-2.35l.35 1.15q.6 2.25.6 3.65l-.05 1.85h-.3"/><path fill="url(#q)" d="M24.862 12.862v.55l-.25 1.2-.35 1.3-.55 1.05-.2.5.55-2.05q-.35.1-.75.35l-.7.45-.05-.1q-.2-.85-.25-1.7v-.25l.05-.1v-.05q.2-3.35-.05-4.3l-1.1-.75q-1.25-.75-2.85-.85-3.2-.3-5.5 2.45-2.25-2.65-5.25-2.45l.05-1.85q0-1.4-.6-3.65l-.35-1.15q2.6-1.45 5.75-1.4 5.1-.05 8.75 3.75 2.5 2.6 3.3 5.95l-.05.05h.05q.35 1.45.35 3.05"/><path stroke="#fd9e66" stroke-miterlimit="3" stroke-linejoin="round" stroke-linecap="round" stroke-width=".05" fill="none" d="M22.612 20.112l1.05-2.95-.15.3.2-.5.55-1.05.35-1.3.25-1.2v-.55q0-1.6-.35-3.05v-.05q-.8-3.35-3.3-5.95-3.65-3.8-8.75-3.75-3.15-.05-5.75 1.4-1.6.9-3 2.35-1.25 1.2-2 2.7-.65 1.05-1 2.2l-.2.75-.1.35-.3 2.35v.85l.15 1.25q.15 1.15.45 2l.35 1.1.5 1.35.2.4.25.45.4.95.2.5m21.05-3.85l.05-.2m-.05.2l.05-.2"/><path fill="url(#r)" d="M17.962 1.812q1 .35 2.3 1.45 1.25 1.05 2.25 2.65-.55 2.55-2.95 4.45-3 2.45-7.25 2.45-4.2 0-7.25-2.45-2.65-2.15-2.95-5.15l1.25-.95 2.95-1.9q1.9-1.1 3.8-1.55l2.6-.35 2.2.15 1.55.5 1.5.7"/><path fill="url(#s)" d="M8.512 1.012q-3.35 2-5.45 5.55-2.05 3.4-2.05 6.55 0 2.05.6 3.45v.3h-.05q-.95-3.15-.95-5.8l.15-1.6q0-1.2 2.5-4.55 1.8-2.7 5.2-3.9h.05"/><path fill="url(#t)" d="M24.062 13.462q0-3.65-2-7.1-2.55-4.25-6.95-5.25h.5q4.05.65 6.6 4.15 2.25 3 2.25 6.1 0 1.4-.6 4.45h-.05l.25-2.35"/><path fill="url(#u)" d="M17.012 11.812q.5 2.15-.4 3.85-1.25 2-3.15 2.5-1.85.55-3.55-.35-1.7-1.2-2.2-3-.55-2.2.7-3.85.6-2.05 2.8-2.55 1.85-.55 3.55.7 1.35.8 2.25 2.7"/></g></svg>