<svg width="24" height="32" xmlns="http://www.w3.org/2000/svg"><defs><radialGradient fy="0" fx="0" r="819.2" cy="0" cx="0" spreadMethod="pad" gradientTransform="matrix(.00208 -.00427 .00206 .0012 21.237 20.05)" gradientUnits="userSpaceOnUse" id="a"><stop stop-color="#d3873d" offset="0"/><stop stop-color="#f5c9ab" offset=".992"/></radialGradient><radialGradient fy="0" fx="0" r="819.2" cy="0" cx="0" spreadMethod="pad" gradientTransform="matrix(-.00208 -.00427 -.00206 .0012 2.637 20)" gradientUnits="userSpaceOnUse" id="b"><stop stop-color="#d3873d" offset="0"/><stop stop-color="#f5c9ab" offset=".992"/></radialGradient><linearGradient y2=".505" y1=".362" x2=".237" x1="1.95" id="c"><stop stop-color="#faa684" offset="0"/><stop stop-color="#ffecd9" offset="1"/></linearGradient><linearGradient y2=".351" y1=".284" x2=".29" x1="-.403" id="d"><stop stop-color="#faa684" offset="0"/><stop stop-color="#ffecd9" offset="1"/></linearGradient><radialGradient fy="0" fx="0" r="819.2" cy="0" cx="0" spreadMethod="pad" gradientTransform="matrix(.01167 -.00534 .01096 .02266 10.488 21.8)" gradientUnits="userSpaceOnUse" id="e"><stop stop-color="#ffecd9" offset=".439"/><stop stop-color="#faa684" offset="1"/></radialGradient><radialGradient fy="0" fx="0" r="819.2" cy="0" cx="0" spreadMethod="pad" gradientTransform="matrix(.01082 .00496 -.01079 .02223 13.637 22.25)" gradientUnits="userSpaceOnUse" id="f"><stop stop-color="#ffecd9" offset=".439"/><stop stop-color="#faa684" offset="1"/></radialGradient><radialGradient fy="0" fx="0" r="819.2" cy="0" cx="0" spreadMethod="pad" gradientTransform="matrix(.00471 .0026 -.00298 .00514 18.788 21.3)" gradientUnits="userSpaceOnUse" id="g"><stop stop-color="#ffd5cc" offset="0"/><stop stop-opacity="0" stop-color="#ffdcd0" offset="1"/></radialGradient><radialGradient fy="0" fx="0" r="819.2" cy="0" cx="0" spreadMethod="pad" gradientTransform="matrix(-.00471 .0026 .00298 .00514 5.238 21.3)" gradientUnits="userSpaceOnUse" id="h"><stop stop-color="#ffd5cc" offset="0"/><stop stop-opacity="0" stop-color="#ffdcd0" offset="1"/></radialGradient><radialGradient fy="0" fx="0" r="819.2" cy="0" cx="0" spreadMethod="pad" gradientTransform="matrix(.0121 0 0 .01172 19.138 3.7)" gradientUnits="userSpaceOnUse" id="i"><stop stop-opacity=".161" stop-color="#fff" offset="0"/><stop stop-opacity="0" stop-color="#fff" offset="1"/></radialGradient><radialGradient fy="0" fx="3" r="819.2" cy="0" cx="0" spreadMethod="pad" gradientTransform="matrix(.02762 0 0 .02678 12.238 -1.7)" gradientUnits="userSpaceOnUse" id="j"><stop stop-color="#ffecd9" offset=".439"/><stop stop-color="#faa684" offset="1"/></radialGradient><radialGradient fy="0" fx="3" r="819.2" cy="0" cx="0" spreadMethod="pad" gradientTransform="translate(31.288 8.2) scale(.0203)" gradientUnits="userSpaceOnUse" id="k"><stop stop-color="#ffecd9" offset=".439"/><stop stop-color="#faa684" offset="1"/></radialGradient><radialGradient fy="0" fx="86" r="819.2" cy="0" cx="0" spreadMethod="pad" gradientTransform="matrix(.02653 0 0 .02653 13.538 6.05)" gradientUnits="userSpaceOnUse" id="l"><stop stop-color="#ffecd9" offset=".439"/><stop stop-color="#faa684" offset="1"/></radialGradient><radialGradient fy="0" fx="0" r="819.2" cy="0" cx="0" spreadMethod="pad" gradientTransform="matrix(.01002 0 0 .0097 18.737 7.7)" gradientUnits="userSpaceOnUse" id="m"><stop stop-opacity=".643" stop-color="#fff" offset="0"/><stop stop-opacity="0" stop-color="#fff" offset="1"/></radialGradient><radialGradient fy="0" fx="0" r="819.2" cy="0" cx="0" spreadMethod="pad" gradientTransform="matrix(.0104 0 0 .01007 4.738 8.15)" gradientUnits="userSpaceOnUse" id="n"><stop stop-opacity=".502" stop-color="#fff" offset="0"/><stop stop-opacity="0" stop-color="#fff" offset="1"/></radialGradient><radialGradient fy="0" fx="0" r="819.2" cy="0" cx="0" spreadMethod="pad" gradientTransform="matrix(.01161 0 0 .01125 11.688 3.8)" gradientUnits="userSpaceOnUse" id="o"><stop stop-opacity=".502" stop-color="#fff" offset="0"/><stop stop-opacity="0" stop-color="#fff" offset="1"/></radialGradient></defs><path fill="none" d="M-1-1h3.5v3.875H-1z"/><g><path fill="#f7d2bb" d="M22.038 17.95l-.1.15-.5 1.55-.25 1.05-.7 3.05-.1.65-.05.25.55.2q.6.15 1.05-.55l.65-1.1.3-.5.4-.95.45-2.5q.1-1.8-1.4-1.4l-.25.1h-.05m.4 4.7l-.05.2h-.05l-.5.4v.05q-.05-.05-.15.05l-.25.2-.25.15q-.1-.05-.05-.4v-.1l.3-.45v-.1l-.05-.6V22l.05-.05v-.05h.05l.4-.7-.15-.5h-.05v-.1q.5-1.45 1-1.75l.3-.05.2.55V20l-.05.7-.05.1v.15l-.65 1.7"/><path fill="#efb087" d="M22.987 18.8l-.3.05q-.5.3-1 1.75v.1h.05l.15.5-.4.7h-.05v.05l-.05.05v.05l.05.6v.1l-.3.45v.1q-.05.35.05.4l.25-.15.25-.2q.1-.1.15-.05v-.05l.5-.4h.05l.05-.2.1-.4v-.1.05l-.15.25-.15.3-.05.15-.1.05-.2.1-.25.15-.3.25.05-.05-.1.1v-.2l.3-.6v-.05l-.05-.6q.45-.25.5-.85.05-.65-.2-.7.45-1.2.85-1.5.3-.15.5.35l-.2-.55"/><path fill="url(#a)" d="M23.087 20.95v-.15l.05-.1.05-.7v-.65q-.2-.5-.5-.35-.4.3-.85 1.5.25.05.2.7-.05.6-.5.85l.05.6v.05l-.3.6v.2l.1-.1-.05.05.3-.25.25-.15.2-.1.1-.05.05-.15.15-.3.15-.25v-.05.1l-.1.4.65-1.7"/><path stroke="#fd9e66" stroke-miterlimit="3" stroke-linejoin="bevel" stroke-linecap="round" stroke-width=".05" fill="none" d="M20.337 24.65l.55.2q.6.15 1.05-.55l.65-1.1.3-.5.4-.95.45-2.5q.1-1.8-1.4-1.4l-.25.1h-.05"/><path fill="#f7d2bb" d="M3.538 24.6l-.55.2q-.55.15-1.05-.55l-.6-1.1-.3-.5-.45-.95q-.3-.75-.4-2.5-.15-1.8 1.35-1.4l.3.1.1.15.55 1.55.25 1.05.65 3.05.15.65v.25m-2-1.8v.05l.55.35.15.1.25.2v.05l.25.1v-.5l-.25-.45V22l.05-.05-.05-.05-.05-.05-.45-.7q-.05-.5.2-.5h.05v-.1q-.55-1.45-1-1.75l-.35-.05-.2.6v.6l.1.7v.25l.7 1.7.05.2"/><path fill="#efb087" d="M1.488 22.6l-.1-.45v-.05l.1.35.15.3.1.1.05.1.2.05q.1 0 .25.1l.3.3.1.1-.05-.25-.25-.55v-.1l.05-.6q-.5-.25-.55-.85-.05-.6.25-.65-.5-1.25-.85-1.55-.35-.15-.55.4l.2-.6.35.05q.45.3 1 1.75v.1h-.05q-.25 0-.2.5l.45.7.05.05.05.05-.05.05v.7l.25.45v.5l-.25-.1v-.05l-.25-.2-.15-.1-.55-.35v-.05l-.05-.2"/><path fill="url(#b)" d="M1.238 18.95q.35.3.85 1.55-.3.05-.25.65.05.6.55.85l-.05.6v.1l.25.55.05.25-.1-.1-.3-.3q-.15-.1-.25-.1l-.2-.05-.05-.1-.1-.1-.15-.3-.1-.35v.05l.1.45-.7-1.7v-.25l-.1-.7v-.6q.2-.55.55-.4"/><path stroke="#fd9e66" stroke-miterlimit="3" stroke-linejoin="bevel" stroke-linecap="round" stroke-width=".05" fill="none" d="M3.538 24.6l-.55.2q-.55.15-1.05-.55l-.6-1.1-.3-.5-.45-.95q-.3-.75-.4-2.5-.15-1.8 1.35-1.4l.3.1"/><path fill="#ffecd9" d="M18.888 21.7q-.6 1.4-2.1 3-1.25 1.3-1.6 2.25-.3.65-.35 1.6l-.6 1.45q-.55.6-2 .6h-.25l-.15-.05v.05h-.1q-1.45 0-2-.6l-.55-1.45-.4-1.6q-.4-.95-1.6-2.25-1.5-1.6-2.1-3l-1.25-4.2-.15-.55 2.2-3.45.35-1.35.15-1.1-.35-2.85q0-1.8.75-3.15.85-1.55 2.75-2.85 2.5-.55 5 .05 1.85 1.25 2.65 2.8.75 1.35.75 3.15l-.35 2.85.15 1.1.35 1.35 2.2 3.45-.15.55-1.25 4.2"/><path fill="url(#c)" d="M20.138 17.5l.15-.55-2.2-3.45-.35-1.35-.15-1.1.35-2.85q0-1.8-.75-3.15-.8-1.55-2.65-2.8l.7.15q4.4 1.3 6.7 4.65l.45.8.35.9q1 3.1-.05 7.15-.65 1.6-1.15 3.55l-1.4-1.95"/><path fill="url(#d)" d="M21.188 20.75l-.4 1.9q-.45 2.25-1.1 3.65l.2-.6.7-2.25.6-2.7m-7.95 10.75l-.35.05-.65.1.75-.1.25-.05m-8.75-4.7q-.85-1.45-1.35-4.15l-.75-3.15q-.5-2-1.15-3.6-1.05-4.05-.05-7.15l.35-.9.4-.8q2.4-3.45 6.95-4.7l.65-.15q-1.9 1.3-2.75 2.85-.75 1.35-.75 3.15l.35 2.85-.15 1.1-.35 1.35-2.2 3.45.15.55-1.45 2q.65 2.05 1 3.95l.7 2.25.4 1.1"/><path fill="url(#e)" d="M11.838 31.65l-.8-.1q-.8-.1-1.55-.6l-.05-.05-.2-.15-.25-.15-1.85-1.25-.1-.1-1.7-1.4-.85-1.05-.4-1.1-.7-2.25q-.35-1.9-1-3.95l1.45-2 1.25 4.2q.6 1.4 2.1 3 1.2 1.3 1.6 2.25l.4 1.6.55 1.45q.55.6 2 .6h.1v1.05"/><path fill="url(#f)" d="M11.838 30.6h.4q1.45 0 2-.6l.6-1.45q.05-.95.35-1.6.35-.95 1.6-2.25 1.5-1.6 2.1-3l1.25-4.2 1.4 1.95-.35 1.3-.6 2.7-.7 2.25-.2.6-1.1 1.55-1.8 1.5-2.35 1.6-1.2.55-.25.05-.75.1h-.4V30.6"/><path stroke="#fd9e66" stroke-miterlimit="3" stroke-linejoin="round" stroke-linecap="round" stroke-width=".05" fill="none" d="M14.537 2.25l.7.15q4.4 1.3 6.7 4.65l.45.8.35.9q1 3.1-.05 7.15-.65 1.6-1.15 3.55l-.35 1.3-.4 1.9q-.45 2.25-1.1 3.65l-1.1 1.55-1.8 1.5-2.35 1.6-1.2.55-.35.05-.65.1h-.4l-.8-.1q-.8-.1-1.55-.6l-.05-.05-.2-.15-.25-.15-1.85-1.25-.1-.1-1.7-1.4-.85-1.05q-.85-1.45-1.35-4.15l-.75-3.15q-.5-2-1.15-3.6-1.05-4.05-.05-7.15l.35-.9.4-.8q2.4-3.45 6.95-4.7l.65-.15q2.5-.55 5 .05z"/><path fill="url(#g)" d="M15.238 18.55q1.35-1.1 3.2-1.1t3.15 1.1q1.35 1.1 1.35 2.7 0 1.55-1.35 2.7-1.3 1.1-3.15 1.1-1.85 0-3.2-1.1-.95-.85-1.2-1.95l-.1-.75q0-1.6 1.3-2.7"/><path fill="url(#h)" d="M8.787 18.55q-1.35-1.1-3.2-1.1t-3.15 1.1q-1.35 1.1-1.35 2.7 0 1.55 1.35 2.7 1.3 1.1 3.15 1.1 1.85 0 3.2-1.1.95-.85 1.2-1.95l.1-.75q0-1.6-1.3-2.7"/><path fill="url(#i)" d="M12.787.35l.1.05q6.1 1.65 7.1 2.8 2.2 2.5 2.2 4.9 0 3.85-6.6 3.85l-1.85-.3q-.65-.45-1.25-2.2-.65-1.95-.55-3l-.05-2.4q0-2.3.9-3.7"/><path fill="url(#j)" d="M20.138 8.25q-1.15-.7-2.6-.75-3-.3-5.1 2.2-1.8-2.1-4.15-2.25l-1 .05-2.25.55-.7.4-.05-.25-.3-4.7q3.3-3.5 8.1-3.45 4.7-.05 8.05 3.45l2.15 3.05.05.1-1.3 2.25-.9-.65"/><path fill="url(#k)" d="M22.638 16.05v-.2l-.15-2.3-.35-2.2q-.2-1.05-1-2.4l-.1-.05 1.3-2.25q1.1 2.35 1.15 5.2l-.5 3.45-.35.75"/><path fill="url(#l)" d="M2.487 10.4l-.7 1.3-.25 1.75-.1 1.45.25 2.4-.3-.95q-.4-1.15-.65-3.05l-.05-1.45v-.65l.25-2.15.05-.1q.3-1.6 1.15-3l1.85-2.45.3 4.7.05.25q-1.1.7-1.85 1.95"/><path stroke="#fd9e66" stroke-miterlimit="3" stroke-linejoin="round" stroke-linecap="round" stroke-width=".05" fill="none" d="M22.987 15.3l.5-3.45q-.05-2.85-1.15-5.2l-.05-.1-2.15-3.05Q16.788 0 12.088.05q-4.8-.05-8.1 3.45l-1.85 2.45q-.85 1.4-1.15 3l-.05.1-.25 2.15v.65l.05 1.45q.25 1.9.65 3.05"/><path fill="url(#m)" d="M14.938.95q3.75.55 6.1 3.8 2.05 2.75 2.05 5.65l-.55 4.05h-.05l.25-2.1q0-3.4-1.85-6.55-2.35-3.95-6.4-4.85h.45"/><path fill="url(#n)" d="M8.387.85q-3.1 1.8-5.05 5.15-1.85 3.05-1.85 6 0 1.85.55 3.2v.25h-.05q-.9-2.95-.9-5.35l.15-1.45q0-1.15 2.3-4.2 1.65-2.5 4.8-3.6h.05"/><path fill="url(#o)" d="M6.138 1.8Q7.888.75 9.637.35l2.45-.3 2.05.15 1.4.45 1.4.6 2.1 1.4q1.15.95 2.05 2.4-.5 2.35-2.7 4.1-2.75 2.25-6.65 2.25-3.95 0-6.75-2.25-2.45-2-2.7-4.75l1.15-.85 2.7-1.75"/></g></svg>