<svg width="24" height="32" xmlns="http://www.w3.org/2000/svg">
 <defs>
  <radialGradient fy="0" fx="0" r="819.2" cy="0" cx="0" spreadMethod="pad" gradientTransform="matrix(0.0020800000056624413,-0.004269999917596579,0.0020600000862032175,0.0012000000569969416,21.237499237060547,20.049999237060547)" gradientUnits="userSpaceOnUse" id="a">
   <stop stop-color="#d3873d" offset="0"/>
   <stop stop-color="#f5c9ab" offset="0.992"/>
  </radialGradient>
  <radialGradient fy="0" fx="0" r="819.2" cy="0" cx="0" spreadMethod="pad" gradientTransform="matrix(-0.0020800000056624413,-0.004269999917596579,-0.0020600000862032175,0.0012000000569969416,2.6374998092651367,20)" gradientUnits="userSpaceOnUse" id="b">
   <stop stop-color="#d3873d" offset="0"/>
   <stop stop-color="#f5c9ab" offset="0.992"/>
  </radialGradient>
  <linearGradient y2="0.504581" y1="0.361698" x2="0.237306" x1="1.949668" id="c">
   <stop stop-color="#faa684" offset="0"/>
   <stop stop-color="#ffecd9" offset="1"/>
  </linearGradient>
  <linearGradient y2="0.350589" y1="0.284385" x2="0.289942" x1="-0.403394" id="d">
   <stop stop-color="#faa684" offset="0"/>
   <stop stop-color="#ffecd9" offset="1"/>
  </linearGradient>
  <radialGradient fy="0" fx="0" r="819.2" cy="0" cx="0" spreadMethod="pad" gradientTransform="matrix(0.011669999919831753,-0.0053400001488626,0.01095999963581562,0.02266000024974346,10.487500190734863,21.799999237060547)" gradientUnits="userSpaceOnUse" id="e">
   <stop stop-color="#ffecd9" offset="0.439"/>
   <stop stop-color="#faa684" offset="1"/>
  </radialGradient>
  <radialGradient fy="0" fx="0" r="819.2" cy="0" cx="0" spreadMethod="pad" gradientTransform="matrix(0.010820000432431698,0.0049600000493228436,-0.01078999973833561,0.02222999930381775,13.637499809265137,22.25)" gradientUnits="userSpaceOnUse" id="f">
   <stop stop-color="#ffecd9" offset="0.439"/>
   <stop stop-color="#faa684" offset="1"/>
  </radialGradient>
  <radialGradient fy="0" fx="0" r="819.2" cy="0" cx="0" spreadMethod="pad" gradientTransform="matrix(0.00471000000834465,0.0026000000070780516,-0.0029800001066178083,0.005140000022947788,18.787500381469727,21.299999237060547)" gradientUnits="userSpaceOnUse" id="g">
   <stop stop-color="#ffd5cc" offset="0"/>
   <stop stop-opacity="0" stop-color="#ffdcd0" offset="1"/>
  </radialGradient>
  <radialGradient fy="0" fx="0" r="819.2" cy="0" cx="0" spreadMethod="pad" gradientTransform="matrix(-0.00471000000834465,0.0026000000070780516,0.0029800001066178083,0.005140000022947788,5.237500190734863,21.299999237060547)" gradientUnits="userSpaceOnUse" id="h">
   <stop stop-color="#ffd5cc" offset="0"/>
   <stop stop-opacity="0" stop-color="#ffdcd0" offset="1"/>
  </radialGradient>
  <radialGradient fy="0" fx="0" r="819.2" cy="0" cx="0" spreadMethod="pad" gradientTransform="matrix(0.01209999993443489,0,0,0.011719999834895134,19.137500762939453,3.6999998092651367)" gradientUnits="userSpaceOnUse" id="i">
   <stop stop-opacity="0.161" stop-color="#fff" offset="0"/>
   <stop stop-opacity="0" stop-color="#fff" offset="1"/>
  </radialGradient>
  <radialGradient fy="0" fx="3" r="819.2" cy="0" cx="0" spreadMethod="pad" gradientTransform="matrix(0.027620000764727592,0,0,0.02677999995648861,12.237500190734863,-1.6999998092651367)" gradientUnits="userSpaceOnUse" id="j">
   <stop stop-color="#ffecd9" offset="0.439"/>
   <stop stop-color="#faa684" offset="1"/>
  </radialGradient>
  <radialGradient fy="0" fx="3" r="819.2" cy="0" cx="0" spreadMethod="pad" gradientTransform="matrix(0.0203000009059906,0,0,0.0203000009059906,31.287500381469727,8.200000762939453)" gradientUnits="userSpaceOnUse" id="k">
   <stop stop-color="#ffecd9" offset="0.439"/>
   <stop stop-color="#faa684" offset="1"/>
  </radialGradient>
  <radialGradient fy="0" fx="86" r="819.2" cy="0" cx="0" spreadMethod="pad" gradientTransform="matrix(0.02652999944984913,0,0,0.02652999944984913,13.537500381469727,6.050000190734863)" gradientUnits="userSpaceOnUse" id="l">
   <stop stop-color="#ffecd9" offset="0.439"/>
   <stop stop-color="#faa684" offset="1"/>
  </radialGradient>
  <radialGradient fy="0" fx="0" r="819.2" cy="0" cx="0" spreadMethod="pad" gradientTransform="matrix(0.01001999992877245,0,0,0.009700000286102295,18.737499237060547,7.699999809265137)" gradientUnits="userSpaceOnUse" id="m">
   <stop stop-opacity="0.643" stop-color="#fff" offset="0"/>
   <stop stop-opacity="0" stop-color="#fff" offset="1"/>
  </radialGradient>
  <radialGradient fy="0" fx="0" r="819.2" cy="0" cx="0" spreadMethod="pad" gradientTransform="matrix(0.010400000028312206,0,0,0.01006999984383583,4.737500190734863,8.149999618530273)" gradientUnits="userSpaceOnUse" id="n">
   <stop stop-opacity="0.502" stop-color="#fff" offset="0"/>
   <stop stop-opacity="0" stop-color="#fff" offset="1"/>
  </radialGradient>
  <radialGradient fy="0" fx="0" r="819.2" cy="0" cx="0" spreadMethod="pad" gradientTransform="matrix(0.011610000394284725,0,0,0.011250000447034836,11.6875,3.8000001907348633)" gradientUnits="userSpaceOnUse" id="o">
   <stop stop-opacity="0.502" stop-color="#fff" offset="0"/>
   <stop stop-opacity="0" stop-color="#fff" offset="1"/>
  </radialGradient>
 </defs>
 <g>
  <title>background</title>
  <rect fill="none" id="canvas_background" height="3.874997" width="3.499998" y="-1" x="-1"/>
 </g>
 <g>
  <title>Layer 1</title>
  <g id="svg_1">
   <path id="svg_2" fill="#f7d2bb" d="m22.0375,17.950001l-0.1,0.15l-0.5,1.549999l-0.25,1.050001l-0.700001,3.049999l-0.099998,0.650002l-0.050001,0.25l0.550001,0.199999q0.599998,0.15 1.049999,-0.550001l0.65,-1.099998l0.300001,-0.5l0.4,-0.950001l0.449999,-2.5q0.1,-1.799999 -1.4,-1.4l-0.25,0.1l-0.049999,0m0.4,4.699999l-0.049999,0.200001l-0.050001,0l-0.5,0.4l0,0.049999q-0.049999,-0.049999 -0.15,0.050001l-0.25,0.199999l-0.25,0.150002q-0.1,-0.050001 -0.049999,-0.400002l0,-0.099998l0.299999,-0.450001l0,-0.1l-0.049999,-0.6l0,-0.049999l0.049999,-0.049999l0,-0.050001l0.049999,0l0.400002,-0.699999l-0.150002,-0.5l-0.049999,0l0,-0.1q0.5,-1.450001 1,-1.75l0.299999,-0.050001l0.200001,0.550001l0,0.65l-0.049999,0.700001l-0.050001,0.099998l0,0.150002l-0.65,1.699999"/>
   <path id="svg_3" fill="#efb087" d="m22.987499,18.799999l-0.299999,0.050001q-0.5,0.299999 -1,1.75l0,0.1l0.049999,0l0.150002,0.5l-0.400002,0.699999l-0.049999,0l0,0.050001l-0.049999,0.049999l0,0.049999l0.049999,0.6l0,0.1l-0.299999,0.450001l0,0.099998q-0.050001,0.35 0.049999,0.400002l0.25,-0.150002l0.25,-0.199999q0.1,-0.1 0.15,-0.050001l0,-0.049999l0.5,-0.4l0.050001,0l0.049999,-0.200001l0.1,-0.4l0,-0.1l0,0.050001l-0.15,0.25l-0.150002,0.299999l-0.049999,0.15l-0.1,0.050001l-0.199999,0.099998l-0.25,0.150002l-0.300001,0.25l0.050001,-0.050001l-0.1,0.1l0,-0.200001l0.299999,-0.599998l0,-0.050001l-0.049999,-0.6q0.449999,-0.25 0.5,-0.849998q0.049999,-0.650002 -0.200001,-0.700001q0.450001,-1.200001 0.85,-1.5q0.299999,-0.15 0.5,0.35l-0.200001,-0.550001"/>
   <path id="svg_4" fill="url(#a)" d="m23.0875,20.950001l0,-0.150002l0.050001,-0.099998l0.049999,-0.700001l0,-0.65q-0.200001,-0.5 -0.5,-0.35q-0.4,0.299999 -0.85,1.5q0.25,0.049999 0.200001,0.700001q-0.050001,0.599998 -0.5,0.849998l0.049999,0.6l0,0.050001l-0.299999,0.599998l0,0.200001l0.1,-0.1l-0.050001,0.050001l0.300001,-0.25l0.25,-0.150002l0.199999,-0.099998l0.1,-0.050001l0.049999,-0.15l0.150002,-0.299999l0.15,-0.25l0,-0.050001l0,0.1l-0.1,0.4l0.65,-1.699999"/>
   <path id="svg_5" stroke="#fd9e66" stroke-miterlimit="3" stroke-linejoin="bevel" stroke-linecap="round" stroke-width="0.05" fill="none" d="m20.3375,24.650002l0.550001,0.199999q0.599998,0.15 1.049999,-0.550001l0.65,-1.099998l0.300001,-0.5l0.4,-0.950001l0.449999,-2.5q0.1,-1.799999 -1.4,-1.4l-0.25,0.1l-0.049999,0"/>
   <path id="svg_6" fill="#f7d2bb" d="m3.5375,24.6l-0.55,0.199999q-0.55,0.150002 -1.05,-0.549999l-0.6,-1.1l-0.299999,-0.5l-0.450001,-0.949999q-0.299999,-0.75 -0.4,-2.5q-0.15,-1.800001 1.35,-1.400002l0.299999,0.1l0.1,0.15l0.55,1.550001l0.25,1.049999l0.65,3.050001l0.150001,0.65l0,0.25m-2,-1.800001l0,0.050001l0.549999,0.35l0.150001,0.099998l0.25,0.200001l0,0.049999l0.25,0.1l0,-0.5l-0.25,-0.449999l0,-0.700001l0.05,-0.049999l-0.05,-0.050001l-0.05,-0.049999l-0.45,-0.700001q-0.05,-0.5 0.2,-0.5l0.05,0l0,-0.1q-0.55,-1.449999 -1,-1.75l-0.35,-0.049999l-0.2,0.6l0,0.6l0.1,0.699999l0,0.25l0.7,1.700001l0.05,0.199999"/>
   <path id="svg_7" fill="#efb087" d="m1.4875,22.6l-0.1,-0.450001l0,-0.049999l0.1,0.35l0.15,0.299999l0.1,0.1l0.05,0.1l0.2,0.049999q0.099999,0 0.25,0.1l0.3,0.299999l0.099999,0.1l-0.05,-0.25l-0.25,-0.549999l0,-0.1l0.05,-0.6q-0.5,-0.25 -0.55,-0.85q-0.049999,-0.6 0.25,-0.65q-0.5,-1.25 -0.849999,-1.549999q-0.35,-0.150002 -0.55,0.4l0.2,-0.6l0.35,0.049999q0.45,0.300001 1,1.75l0,0.1l-0.05,0q-0.25,0 -0.2,0.5l0.45,0.700001l0.05,0.049999l0.05,0.050001l-0.05,0.049999l0,0.700001l0.25,0.449999l0,0.5l-0.25,-0.1l0,-0.049999l-0.25,-0.200001l-0.150001,-0.099998l-0.549999,-0.35l0,-0.050001l-0.05,-0.199999"/>
   <path id="svg_8" fill="url(#b)" d="m1.2375,18.950001q0.349999,0.299999 0.849999,1.549999q-0.299999,0.049999 -0.25,0.65q0.05,0.6 0.55,0.85l-0.05,0.6l0,0.1l0.25,0.549999l0.05,0.25l-0.099999,-0.1l-0.3,-0.299999q-0.150001,-0.1 -0.25,-0.1l-0.2,-0.049999l-0.05,-0.1l-0.1,-0.1l-0.15,-0.299999l-0.1,-0.35l0,0.049999l0.1,0.450001l-0.7,-1.700001l0,-0.25l-0.1,-0.699999l0,-0.6q0.2,-0.550001 0.55,-0.4"/>
   <path id="svg_9" stroke="#fd9e66" stroke-miterlimit="3" stroke-linejoin="bevel" stroke-linecap="round" stroke-width="0.05" fill="none" d="m3.5375,24.6l-0.55,0.199999q-0.55,0.150002 -1.05,-0.549999l-0.6,-1.1l-0.299999,-0.5l-0.450001,-0.949999q-0.299999,-0.75 -0.4,-2.5q-0.15,-1.800001 1.35,-1.400002l0.299999,0.1"/>
   <path id="svg_10" fill="#ffecd9" d="m18.887501,21.700001q-0.6,1.4 -2.1,3q-1.25,1.299999 -1.6,2.25q-0.3,0.65 -0.35,1.599998l-0.599999,1.450001q-0.55,0.6 -2,0.6l-0.25,0l-0.150001,-0.050001l0,0.050001l-0.099999,0q-1.45,0 -2,-0.6l-0.55,-1.450001l-0.4,-1.599998q-0.400001,-0.950001 -1.6,-2.25q-1.5,-1.6 -2.1,-3l-1.25,-4.200001l-0.15,-0.549999l2.2,-3.450001l0.35,-1.35l0.15,-1.099999l-0.35,-2.849999q0,-1.8 0.75,-3.150001q0.85,-1.55 2.75,-2.85q2.5,-0.549999 5,0.05q1.85,1.25 2.65,2.8q0.75,1.35 0.75,3.150001l-0.35,2.849999l0.15,1.099999l0.35,1.35l2.200001,3.450001l-0.15,0.549999l-1.25,4.200001"/>
   <path id="svg_11" fill="url(#c)" d="m20.137501,17.5l0.15,-0.549999l-2.200001,-3.450001l-0.35,-1.35l-0.15,-1.099999l0.35,-2.849999q0,-1.8 -0.75,-3.150001q-0.799999,-1.55 -2.65,-2.8l0.7,0.150001q4.400001,1.299999 6.7,4.65l0.450001,0.8l0.349998,0.9q1,3.1 -0.049999,7.150001q-0.65,1.599999 -1.15,3.55l-1.4,-1.950001"/>
   <path id="svg_12" fill="url(#d)" d="m21.1875,20.75l-0.4,1.9q-0.450001,2.250002 -1.1,3.65l0.200001,-0.599998l0.699999,-2.25l0.6,-2.700001m-7.95,10.75l-0.35,0.049999l-0.65,0.100002l0.75,-0.100002l0.25,-0.049999m-8.75,-4.700001q-0.85,-1.449999 -1.35,-4.15l-0.75,-3.15q-0.5,-2 -1.15,-3.599999q-1.05,-4.05 -0.05,-7.150001l0.35,-0.9l0.4,-0.8q2.4,-3.45 6.95,-4.7l0.650001,-0.150001q-1.900001,1.3 -2.75,2.85q-0.75,1.35 -0.75,3.150001l0.35,2.849999l-0.15,1.099999l-0.35,1.35l-2.2,3.450001l0.15,0.549999l-1.45,2q0.650001,2.049999 1,3.950001l0.7,2.25l0.4,1.099998"/>
   <path id="svg_13" fill="url(#e)" d="m11.8375,31.650002l-0.799999,-0.100002q-0.8,-0.099998 -1.55,-0.599998l-0.05,-0.049999l-0.2,-0.150002l-0.25,-0.15l-1.85,-1.25l-0.1,-0.1l-1.7,-1.4l-0.85,-1.050001l-0.4,-1.099998l-0.7,-2.25q-0.349999,-1.900002 -1,-3.950001l1.45,-2l1.25,4.200001q0.6,1.4 2.1,3q1.2,1.299999 1.6,2.25l0.4,1.599998l0.55,1.450001q0.55,0.6 2,0.6l0.099999,0l0,1.050001"/>
   <path id="svg_14" fill="url(#f)" d="m11.8375,30.6l0.400001,0q1.45,0 2,-0.6l0.599999,-1.450001q0.05,-0.949999 0.35,-1.599998q0.35,-0.950001 1.6,-2.25q1.5,-1.6 2.1,-3l1.25,-4.200001l1.4,1.950001l-0.35,1.299999l-0.6,2.700001l-0.699999,2.25l-0.200001,0.599998l-1.1,1.550001l-1.799999,1.5l-2.35,1.6l-1.2,0.549999l-0.25,0.049999l-0.75,0.100002l-0.400001,0l0,-1.050001"/>
   <path id="svg_15" stroke="#fd9e66" stroke-miterlimit="3" stroke-linejoin="round" stroke-linecap="round" stroke-width="0.05" fill="none" d="m14.5375,2.25l0.7,0.150001q4.400001,1.299999 6.7,4.65l0.450001,0.8l0.349998,0.9q1,3.1 -0.049999,7.150001q-0.65,1.599999 -1.15,3.55l-0.35,1.299999l-0.4,1.9q-0.450001,2.250002 -1.1,3.65l-1.1,1.550001l-1.799999,1.5l-2.35,1.6l-1.2,0.549999l-0.35,0.049999l-0.65,0.100002l-0.400001,0l-0.799999,-0.100002q-0.8,-0.099998 -1.55,-0.599998l-0.05,-0.049999l-0.2,-0.150002l-0.25,-0.15l-1.85,-1.25l-0.1,-0.1l-1.7,-1.4l-0.85,-1.050001q-0.85,-1.449999 -1.35,-4.15l-0.75,-3.15q-0.5,-2 -1.15,-3.599999q-1.05,-4.05 -0.05,-7.150001l0.35,-0.9l0.4,-0.8q2.4,-3.45 6.95,-4.7l0.650001,-0.150001q2.5,-0.549999 5,0.05z"/>
   <path id="svg_16" fill="url(#g)" d="m15.2375,18.549999q1.349999,-1.099998 3.2,-1.099998t3.15,1.099998q1.35,1.1 1.35,2.700001q0,1.549999 -1.35,2.700001q-1.299999,1.099998 -3.15,1.099998q-1.85,0 -3.200001,-1.099998q-0.950001,-0.85 -1.200001,-1.950001l-0.099998,-0.75q0,-1.6 1.3,-2.700001"/>
   <path id="svg_17" fill="url(#h)" d="m8.7875,18.549999q-1.35,-1.099998 -3.2,-1.099998t-3.15,1.099998q-1.35,1.1 -1.35,2.700001q0,1.549999 1.35,2.700001q1.3,1.099998 3.15,1.099998q1.85,0 3.2,-1.099998q0.95,-0.85 1.2,-1.950001l0.099999,-0.75q0,-1.6 -1.299999,-2.700001"/>
   <path id="svg_18" fill="url(#i)" d="m12.7875,0.35l0.099999,0.05q6.099999,1.65 7.099999,2.799999q2.200001,2.5 2.200001,4.900001q0,3.85 -6.6,3.85l-1.849999,-0.300001q-0.650001,-0.449999 -1.25,-2.199999q-0.650001,-1.950001 -0.55,-3.000001l-0.05,-2.4q0,-2.3 0.900001,-3.700001"/>
   <path id="svg_19" fill="url(#j)" d="m20.137501,8.25q-1.150002,-0.7 -2.6,-0.75q-3,-0.3 -5.1,2.200001q-1.8,-2.1 -4.15,-2.250001l-1,0.05l-2.25,0.55l-0.7,0.400001l-0.05,-0.25l-0.3,-4.700001q3.3,-3.5 8.099999,-3.45q4.700001,-0.05 8.050001,3.45l2.150002,3.05l0.049999,0.1l-1.300001,2.249999l-0.9,-0.65"/>
   <path id="svg_20" fill="url(#k)" d="m22.637501,16.049999l0,-0.199999l-0.150002,-2.3l-0.349998,-2.2q-0.200001,-1.05 -1,-2.4l-0.1,-0.050001l1.299999,-2.249999q1.1,2.349999 1.15,5.2l-0.5,3.45l-0.349998,0.749999"/>
   <path id="svg_21" fill="url(#l)" d="m2.4875,10.4l-0.7,1.300001l-0.25,1.75l-0.1,1.45l0.25,2.399999l-0.3,-0.949999q-0.4,-1.150001 -0.65,-3.05l-0.05,-1.45l0,-0.65l0.25,-2.150001l0.05,-0.099999q0.3,-1.6 1.15,-3.000001l1.85,-2.45l0.3,4.700001l0.05,0.25q-1.1,0.699999 -1.85,1.949999"/>
   <path id="svg_22" stroke="#fd9e66" stroke-miterlimit="3" stroke-linejoin="round" stroke-linecap="round" stroke-width="0.05" fill="none" d="m22.987499,15.3l0.5,-3.45q-0.049999,-2.85 -1.15,-5.2l-0.049999,-0.1l-2.15,-3.05q-3.35,-3.5 -8.050001,-3.45q-4.8,-0.05 -8.099999,3.45l-1.85,2.45q-0.849999,1.400001 -1.15,3.000001l-0.05,0.099999l-0.25,2.150001l0,0.65l0.05,1.45q0.25,1.9 0.65,3.05"/>
   <path id="svg_23" fill="url(#m)" d="m14.9375,0.95q3.75,0.55 6.1,3.8q2.049999,2.75 2.049999,5.65l-0.549999,4.05l-0.050001,0l0.25,-2.099999q0,-3.4 -1.849998,-6.55q-2.35,-3.95 -6.400001,-4.85l0.45,0"/>
   <path id="svg_24" fill="url(#n)" d="m8.3875,0.85q-3.1,1.8 -5.05,5.15q-1.849999,3.05 -1.849999,6q0,1.85 0.55,3.2l0,0.25l-0.05,0q-0.900001,-2.95 -0.900001,-5.349999l0.150001,-1.450001q0,-1.15 2.3,-4.199999q1.65,-2.5 4.799999,-3.599999l0.05,0"/>
   <path id="svg_25" fill="url(#o)" d="m6.1375,1.8q1.75,-1.05 3.5,-1.45l2.45,-0.3l2.05,0.15l1.400001,0.450001l1.4,0.599999l2.1,1.400001q1.15,0.95 2.049999,2.4q-0.5,2.35 -2.699999,4.099999q-2.750001,2.25 -6.650001,2.25q-3.95,0 -6.75,-2.25q-2.45,-1.999999 -2.7,-4.749999l1.15,-0.85l2.7,-1.75"/>
  </g>
 </g>
</svg>