<svg width="25" height="33" xmlns="http://www.w3.org/2000/svg">
 <defs>
  <radialGradient fy="0" fx="0" r="819.2" cy="0" cx="0" spreadMethod="pad" gradientTransform="matrix(-0.00558000011369586,-0.0030700000934302807,-0.0030700000934302807,0.00558000011369586,5.2618489265441895,18.411846160888672)" gradientUnits="userSpaceOnUse" id="a">
   <stop stop-color="#e88b64" offset="0"/>
   <stop stop-color="#fdd7b9" offset="0.847"/>
  </radialGradient>
  <radialGradient fy="0" fx="0" r="819.2" cy="0" cx="0" spreadMethod="pad" gradientTransform="matrix(-0.0035600000992417336,0.0010400000028312206,0.0015300000086426735,0.005249999929219484,3.8618476390838623,19.561847686767578)" gradientUnits="userSpaceOnUse" id="b">
   <stop stop-color="#c54b18" offset="0"/>
   <stop stop-color="#fcc7a5" offset="1"/>
  </radialGradient>
  <radialGradient fy="0" fx="0" r="819.2" cy="0" cx="0" spreadMethod="pad" gradientTransform="matrix(0.005584695842117071,-0.0030639958567917347,0.0030639958567917347,0.005584695842117071,19.599477767944336,18.35763168334961)" gradientUnits="userSpaceOnUse" id="c">
   <stop stop-color="#e88b64" offset="0"/>
   <stop stop-color="#fdd7b9" offset="0.847"/>
  </radialGradient>
  <radialGradient fy="0" fx="0" r="819.2" cy="0" cx="0" spreadMethod="pad" gradientTransform="matrix(0.0035600000992417336,0.0010400000028312206,-0.0015300000086426735,0.005249999929219484,21.061851501464844,19.561847686767578)" gradientUnits="userSpaceOnUse" id="d">
   <stop stop-color="#c54b18" offset="0"/>
   <stop stop-color="#fcc7a5" offset="1"/>
  </radialGradient>
  <radialGradient fy="0" fx="0" r="819.2" cy="0" cx="0" spreadMethod="pad" gradientTransform="matrix(0.006039999891072512,-0.001500000013038516,0.006670000031590462,0.02710999920964241,2.0118491649627686,26.21184539794922)" gradientUnits="userSpaceOnUse" id="e">
   <stop stop-color="#fbbd9d" offset="0"/>
   <stop stop-color="#ffecd9" offset="1"/>
  </radialGradient>
  <radialGradient fy="0" fx="0" r="819.2" cy="0" cx="0" spreadMethod="pad" gradientTransform="matrix(0.006599999964237213,0.003019999945536256,-0.00875999964773655,0.01915000006556511,23.061851501464844,25.01184844970703)" gradientUnits="userSpaceOnUse" id="f">
   <stop stop-color="#fbbd9d" offset="0"/>
   <stop stop-color="#ffecd9" offset="1"/>
  </radialGradient>
  <radialGradient fy="0" fx="0" r="819.2" cy="0" cx="0" spreadMethod="pad" gradientTransform="matrix(0.006099999882280827,0.0015300000086426735,-0.002520000096410513,0.010060000233352184,21.26184844970703,26.01184844970703)" gradientUnits="userSpaceOnUse" id="g">
   <stop stop-color="#fbbd9d" offset="0"/>
   <stop stop-color="#ffecd9" offset="0.847"/>
  </radialGradient>
  <radialGradient fy="0" fx="210386" r="819.2" cy="0" cx="0" spreadMethod="pad" gradientTransform="matrix(0.005739999935030937,-0.0012799999676644802,0.0030799999367445707,0.013530000112950802,3.5118491649627686,26.661846160888672)" gradientUnits="userSpaceOnUse" id="h">
   <stop stop-color="#fbbd9d" offset="0"/>
   <stop stop-color="#ffecd9" offset="0.847"/>
  </radialGradient>
  <radialGradient fy="0" fx="0" r="819.2" cy="0" cx="0" spreadMethod="pad" gradientTransform="matrix(0.00877000018954277,-0.0019199999514967203,0.001979999942705035,0.009080000221729279,14.011849403381348,16.21184539794922)" gradientUnits="userSpaceOnUse" id="i">
   <stop stop-color="#fac5af" offset="0.259"/>
   <stop stop-color="#ffeadd" offset="1"/>
  </radialGradient>
  <radialGradient fy="0" fx="0" r="819.2" cy="0" cx="0" spreadMethod="pad" gradientTransform="matrix(0.006289999932050705,0,0,0.00203999993391335,12.06185245513916,33.21184539794922)" gradientUnits="userSpaceOnUse" id="j">
   <stop stop-color="#fbbd9d" offset="0"/>
   <stop stop-color="#ffecd9" offset="1"/>
  </radialGradient>
  <radialGradient fy="0" fx="0" r="819.2" cy="0" cx="0" spreadMethod="pad" gradientTransform="matrix(0.005659999791532755,0.0015399999683722854,-0.004360000137239695,0.01600000075995922,0.6618505716323853,6.861847400665283)" gradientUnits="userSpaceOnUse" id="k">
   <stop stop-color="#fbc3a3" offset="0"/>
   <stop stop-color="#ffecd9" offset="0.831"/>
  </radialGradient>
  <radialGradient fy="0" fx="0" r="819.2" cy="0" cx="0" spreadMethod="pad" gradientTransform="matrix(0.0063599999994039536,-0.001509999972768128,0.003949999809265137,0.01679999940097332,23.561851501464844,7.611847400665283)" gradientUnits="userSpaceOnUse" id="l">
   <stop stop-color="#fbc3a3" offset="0"/>
   <stop stop-color="#ffecd9" offset="0.831"/>
  </radialGradient>
  <radialGradient fy="0" fx="41" r="819.2" cy="0" cx="0" spreadMethod="pad" gradientTransform="matrix(0.013489999808371067,0,0,0.013079999946057796,11.911850929260254,-3.938152551651001)" gradientUnits="userSpaceOnUse" id="m">
   <stop stop-color="#fff" offset="0"/>
   <stop stop-color="#ffecd9" offset="0.988"/>
  </radialGradient>
  <radialGradient fy="0" fx="0" r="819.2" cy="0" cx="0" spreadMethod="pad" gradientTransform="matrix(0.006039999891072512,-0.001500000013038516,0.006670000031590462,0.02710999920964241,2.0118491649627686,26.21184539794922)" gradientUnits="userSpaceOnUse" id="n">
   <stop stop-color="#fbbd9d" offset="0"/>
   <stop stop-color="#ffecd9" offset="1"/>
  </radialGradient>
  <radialGradient fy="0" fx="0" r="819.2" cy="0" cx="0" spreadMethod="pad" gradientTransform="matrix(0.006599999964237213,0.003019999945536256,-0.00875999964773655,0.01915000006556511,23.061851501464844,25.01184844970703)" gradientUnits="userSpaceOnUse" id="o">
   <stop stop-color="#fbbd9d" offset="0"/>
   <stop stop-color="#ffecd9" offset="1"/>
  </radialGradient>
  <radialGradient fy="0" fx="0" r="819.2" cy="0" cx="0" spreadMethod="pad" gradientTransform="matrix(0.005659999791532755,0.0015399999683722854,-0.004360000137239695,0.01600000075995922,0.6618505716323853,6.861847400665283)" gradientUnits="userSpaceOnUse" id="p">
   <stop stop-color="#fbc3a3" offset="0"/>
   <stop stop-color="#ffecd9" offset="0.831"/>
  </radialGradient>
  <radialGradient fy="0" fx="0" r="819.2" cy="0" cx="0" spreadMethod="pad" gradientTransform="matrix(0.0063599999994039536,-0.001509999972768128,0.003949999809265137,0.01679999940097332,23.561851501464844,7.611847400665283)" gradientUnits="userSpaceOnUse" id="q">
   <stop stop-color="#fbc3a3" offset="0"/>
   <stop stop-color="#ffecd9" offset="0.831"/>
  </radialGradient>
  <radialGradient fy="0" fx="0" r="819.2" cy="0" cx="0" spreadMethod="pad" gradientTransform="matrix(0.012600000016391277,0,0,0.012199999764561653,12.31185245513916,4.511847019195557)" gradientUnits="userSpaceOnUse" id="r">
   <stop stop-opacity="0.502" stop-color="#fff" offset="0"/>
   <stop stop-opacity="0" stop-color="#fff" offset="1"/>
  </radialGradient>
  <radialGradient fy="0" fx="0" r="819.2" cy="0" cx="0" spreadMethod="pad" gradientTransform="matrix(0.01128000020980835,0,0,0.010929999873042107,4.561848163604736,8.961848258972168)" gradientUnits="userSpaceOnUse" id="s">
   <stop stop-opacity="0.271" stop-color="#fff" offset="0"/>
   <stop stop-opacity="0" stop-color="#fff" offset="1"/>
  </radialGradient>
  <radialGradient fy="0" fx="0" r="819.2" cy="0" cx="0" spreadMethod="pad" gradientTransform="matrix(0.010879999957978725,0,0,0.010529999621212482,19.76184844970703,8.461848258972168)" gradientUnits="userSpaceOnUse" id="t">
   <stop stop-opacity="0.302" stop-color="#fff" offset="0"/>
   <stop stop-opacity="0" stop-color="#fff" offset="1"/>
  </radialGradient>
  <radialGradient fy="0" fx="0" r="819.2" cy="0" cx="0" spreadMethod="pad" gradientTransform="matrix(0.0017500000540167093,0.006649999879300594,-0.00634999992325902,0.001879999996162951,11.81185245513916,13.061848640441895)" gradientUnits="userSpaceOnUse" id="u">
   <stop stop-opacity="0.592" stop-color="#fffcf7" offset="0.314"/>
   <stop stop-opacity="0" stop-color="#fffbee" offset="1"/>
  </radialGradient>
 </defs>
 <g>
  <title>background</title>
  <rect fill="none" id="canvas_background" height="3.874997" width="3.499998" y="-1" x="-1"/>
 </g>
 <g>
  <title>Layer 1</title>
  <g id="svg_1">
   <path id="svg_2" fill="url(#a)" d="m0.511849,18.861847q0.099998,1 0.5,2l-0.049999,-1.299999q-0.100002,-1.150002 0.049999,-1.299999l0.099998,0.049999l0.100002,0.349998l0.299999,0.350002l0.299999,0l0.200001,-0.100002l0.099998,0.600002l-0.349999,0.349998l-0.450001,0.450001q-0.349998,0.649998 0.900002,0.75l0.049999,0.649998l-0.450001,-0.149998l-0.450001,-0.299999l0.650002,0.949997l0.900002,0.350002l0.349998,0q0.450001,-0.299999 0.25,-0.75l-0.400002,-0.799999l0.100002,-0.700001l-0.299999,-0.549999l-0.200001,-0.5l0,-0.650002q-0.200001,-0.549999 -0.900002,-0.950001l-1.099998,-0.099998q-0.25,0.299999 -0.200001,1.299999m3.349999,4.900002q0.050003,0.25 -0.699997,0.149998q-0.800003,-0.099998 -1.300003,-0.599998l-0.899998,-1.100002q-0.400002,-0.5 -0.900002,-2.699997q-0.099998,-1.850002 0.299999,-2.550003q0.400001,-0.699997 1.400001,-0.349998l1.299999,0.5q0.700001,3.200001 0.799999,6.650002"/>
   <path id="svg_3" fill="url(#b)" d="m0.71185,17.561848l1.099998,0.099998q0.700001,0.400002 0.900002,0.950001l0,0.650002l0.200001,0.5l0.299999,0.549999l-0.099998,0.700001l0.399998,0.799999q0.200001,0.450001 -0.25,0.75l-0.349998,0l-0.900002,-0.349998l-0.649998,-0.950001l0.449997,0.299999l0.450001,0.150002l-0.049999,-0.650002q-1.25,-0.099998 -0.900002,-0.75l0.450001,-0.450001l0.350002,-0.349998l-0.100002,-0.600002l-0.200001,0.100002l-0.299999,0l-0.299999,-0.350002l-0.099998,-0.349998l-0.100002,-0.049999q-0.149998,0.149998 -0.049999,1.299999l0.049999,1.299999q-0.399998,-1 -0.5,-2q-0.049999,-1 0.200001,-1.299999"/>
   <path id="svg_4" stroke-opacity="0.502" stroke="#b76340" stroke-miterlimit="3" stroke-linejoin="round" stroke-linecap="round" stroke-width="0.05" fill="none" d="m3.061848,17.111847l-1.299999,-0.5q-1,-0.349998 -1.400001,0.349998q-0.399998,0.700001 -0.299999,2.550003q0.5,2.199997 0.900002,2.699997l0.899998,1.100002q0.5,0.5 1.299999,0.599998q0.75,0.100002 0.700001,-0.149998"/>
   <path id="svg_5" fill="url(#c)" d="m24.41185,18.861847l-0.5,2l0.050003,-1.299999l-0.050003,-1.299999l-0.099998,0.049999l-0.099998,0.349998l-0.300003,0.350002l-0.300003,0l-0.199997,-0.100002l-0.099998,0.600002l0.349998,0.349998l0.449997,0.450001q0.350006,0.649998 -0.899994,0.75l-0.050003,0.649998l0.449997,-0.149998l0.450005,-0.299999l-0.650002,0.949997l-0.900002,0.350002l-0.349998,0q-0.449997,-0.299999 -0.25,-0.75l0.400002,-0.799999l-0.099998,-0.700001l0.299995,-0.549999l0.200005,-0.5l0,-0.650002q0.199997,-0.549999 0.899994,-0.950001l1.100006,-0.099998l0.199997,1.299999m-3.349998,4.900002q-0.050003,0.25 0.699997,0.149998q0.800003,-0.099998 1.300003,-0.599998l0.900002,-1.100002q0.399994,-0.5 0.899994,-2.699997q0.100006,-1.850002 -0.299995,-2.550003q-0.400002,-0.699997 -1.400002,-0.349998l-1.300003,0.5q-0.699997,3.200001 -0.799995,6.650002"/>
   <path id="svg_6" fill="url(#d)" d="m24.211845,17.561848l-1.099998,0.099998q-0.700005,0.400002 -0.900002,0.950001l0,0.650002l-0.199997,0.5l-0.300003,0.549999l0.099998,0.700001l-0.400002,0.799999q-0.199997,0.450001 0.25,0.75l0.350006,0l0.899994,-0.349998l0.650002,-0.950001l-0.449997,0.299999l-0.450005,0.150002l0.050003,-0.650002q1.25,-0.099998 0.900002,-0.75l-0.450005,-0.450001l-0.349998,-0.349998l0.099998,-0.600002l0.200005,0.100002l0.299995,0l0.300003,-0.350002l0.099998,-0.349998l0.099998,-0.049999l0.050003,1.299999l-0.050003,1.299999l0.5,-2l-0.199997,-1.299999"/>
   <path id="svg_7" stroke-opacity="0.502" stroke="#b76340" stroke-miterlimit="3" stroke-linejoin="round" stroke-linecap="round" stroke-width="0.05" fill="none" d="m21.861847,17.111847l1.300003,-0.5q1,-0.349998 1.399994,0.349998q0.400002,0.700001 0.300003,2.550003q-0.5,2.199997 -0.900002,2.699997l-0.900002,1.100002q-0.5,0.5 -1.299995,0.599998q-0.75,0.100002 -0.700005,-0.149998"/>
   <path id="svg_8" fill="#ffecd9" d="m16.561852,7.361847q-1.300002,1.25 1.050003,2.3q2.25,1.1 1.949997,2.35l-0.25,1.199999q0,0.5 0.699997,1.800003l0.350006,0.5l-0.75,1.399997l-0.550003,0.549999l-0.199997,0.700001l0.099998,0.650002l0.099998,0.700001q0,0.649998 -0.400002,1.449997l-0.799995,0.950001q-0.25,0.200001 -0.5,1.150002l-0.350006,1.399998l-0.399994,1.75l-0.450005,2.150002l-1.299994,3l-0.75,0.349998l-1.600006,0.350002l-1.799995,-0.25l-1.349998,-0.400002q-0.200005,-0.5 0.099998,-1.349998q0.5,-1 -0.75,-3.25l-1.900002,-3.049999l-1.150002,-1.200001l-1.049999,-1.200001q-0.399998,-0.799999 -0.349998,-1.450001q0.099998,-0.75 0.549999,-1.25l0.400002,-0.549999l-1.150002,-1.849998l-0.549999,-1.249999q-0.049999,-0.200001 -1,-0.5q-0.299999,0.149998 -0.549999,-0.200001l1.349999,0l-0.049999,-0.150002l0.049999,-0.149998l1.799999,-2.000002q-0.099998,-0.699999 0.900002,-0.25q1.200001,0.449999 1.950001,-0.6q0.75,-1.15 0.25,-5.349999q-0.25,-1.400002 -0.099998,-2.450001q2.149994,-1.049999 4.799995,-1.049999q2.599998,0 4.550002,1.25q0.349998,2.549999 -0.900002,3.799999m-13.550002,6.650002l-0.200001,0.200001l0,-0.049999l0.200001,-0.350002l0,0.200001m0.099998,-0.5l-0.049999,0.200001l0,-0.200001l0.049999,0m7.150002,7.649997l0.050003,-0.299999l-0.100006,0.200001l0.050003,0.099998"/>
   <path id="svg_9" fill="url(#e)" d="m9.461846,31.761848l0.199997,0.200001l0.350006,0.349998q-1.950005,-1.200001 -3.5,-2.900002q-2.300003,-2.149998 -2.800003,-4l-0.650002,-2.699997l0,-0.100002q-0.75,-2.149998 -1.049999,-5.299999l0.200001,0.549999q0.450001,1.350002 2.299999,3.5l0.100002,1.400002l0.5,1.950001q0.349998,1.099998 0.899998,1.799999l1.450001,1.649998l0.900002,1.75l0.799995,1.25l0,0.100002l0.050003,0.049999l0.25,0.450001m-6.199997,-17.600001l0.049999,0.150002l-0.599998,0l0.099998,-0.150002l0,0.049999l0.200001,-0.200001l0.25,0.150002m-0.200001,-0.650002l0.049999,-0.049999l0,0.049999l-0.049999,0"/>
   <path id="svg_10" fill="url(#f)" d="m22.861847,13.961846l0,2.650001l-0.449997,5.049999l-0.650002,2.450001l-0.449997,1.049999q-1.150002,2.700001 -2.650002,4.049999l-2.849998,2.350002l-0.300003,0.200001l-0.449997,0.25l-0.700005,0.049999l0.450005,-0.5l0,0.200001l1.249999,-1q1.399994,-1.300003 1.649994,-2.350002l0.350006,-1.200001l0.199997,-1q0.050003,-0.449997 0.25,-0.799999l0,-0.099998l0.099998,-0.25l0.050003,-0.200001q0.549995,-2.299999 0.900002,-2.900002l0.599998,-0.75l0.5,-0.799999l0.799995,-1.649998l0.75,-2.400002q0.350006,-1.249999 -1.399994,0.299999l0.099998,-0.149998l1.849998,-2.350001l0.099998,-0.200001"/>
   <path id="svg_11" fill="url(#g)" d="m14.811852,31.511848l0.050003,-0.149998l1.299994,-3l0.450005,-2.150002l0.399994,-1.75l0.350006,-1.400002q0.25,-0.950001 0.5,-1.150002l0.799995,-0.949997q0.400002,-0.800003 0.400002,-1.450001l-0.099998,-0.700001l-0.099998,-0.650002l0.199997,-0.699997l0.550003,-0.550003l0.75,-1.399997l0.549995,0.999999l-0.099998,0.150002q1.75,-1.549998 1.400002,-0.300003l-0.75,2.400002l-0.800003,1.650002l-0.5,0.799999l-0.599998,0.75q-0.349998,0.599998 -0.900002,2.900002l-0.049995,0.199997l-0.100006,0.25l0,0.100002q-0.199997,0.349998 -0.25,0.799999l-0.199997,1l-0.349998,1.200001q-0.25,1.049999 -1.650002,2.349998l-1.249999,1l0,-0.25"/>
   <path id="svg_12" fill="url(#h)" d="m9.211846,31.311848l-0.050003,-0.049999l0,-0.100002l-0.799995,-1.25l-0.900002,-1.75l-1.450001,-1.649998q-0.549999,-0.700001 -0.899998,-1.799999l-0.5,-1.950001l-0.100002,-1.400002q-1.849998,-2.149998 -2.299999,-3.5l-0.200001,-0.549999l0,-0.950001q-0.599999,-1.599998 -0.049999,-2.049998q0.25,0.349998 0.549999,0.200001q0.950001,0.299999 1,0.5l0.549999,1.249999l1.150005,1.849998l-0.400002,0.549999q-0.449997,0.5 -0.549999,1.25q-0.049999,0.650002 0.350002,1.450001l1.049999,1.200001l1.150002,1.200001l1.900002,3.049999q1.25,2.25 0.75,3.25q-0.300003,0.849998 -0.100006,1.349998l-0.149994,-0.099998"/>
   <path id="svg_13" fill="url(#i)" d="m10.211846,21.061848l0.099998,-0.200001l-0.049995,0.299999l-0.050003,-0.099998"/>
   <path id="svg_14" fill="url(#j)" d="m9.361848,31.411846l1.349998,0.400002l1.800003,0.25l1.599998,-0.350002l0.75,-0.349998l-0.050003,0.149998l0,0.050003l-0.449997,0.5l0.699997,-0.050003l-1.399994,0.550003l-3.650002,-0.25l-0.349998,-0.350002l-0.200005,-0.200001l-0.25,-0.449997l0.150002,0.099998"/>
   <path id="svg_15" fill="url(#k)" d="m3.011849,14.011849l0,-0.200001l-0.200001,0.350002l-0.099998,0.149998l-0.75,0q0.5,-8.499999 6.149998,-10.949999q-0.150002,1.049999 0.099998,2.450001q0.5,4.199999 -0.25,5.349999q-0.75,1.050001 -1.949997,0.6q-1,-0.449999 -0.900002,0.25l-1.799999,2l-0.049999,0.150002l-0.25,-0.150002m0.049999,-0.299999l0.049999,-0.200001l0,-0.049999l-0.049999,0.049999l0,0.200001"/>
   <path id="svg_16" fill="url(#l)" d="m20.361847,15.511849l-0.349998,-0.5q-0.700005,-1.299999 -0.700005,-1.799999l0.25,-1.200001q0.300003,-1.25 -1.949997,-2.35q-2.349998,-1.049999 -1.050003,-2.3q1.25,-1.25 0.900002,-3.799999q1.900002,0.799999 3.599998,3.049999q1.700005,2.200001 1.800003,7.350001l-0.099998,0.200001l-1.849998,2.349998l-0.550003,-0.999999"/>
   <path id="svg_17" stroke="#fd9e66" stroke-miterlimit="3" stroke-linejoin="round" stroke-linecap="round" stroke-width="0.05" fill="none" d="m1.96185,14.311849q0.5,-8.5 6.149998,-10.949999q2.150002,-1.050001 4.800003,-1.050001q2.599998,0 4.550002,1.25q1.899994,0.800001 3.599998,3.050001q1.699997,2.199999 1.799995,7.350001l0,2.649997l-0.449997,5.049999l-0.650002,2.450001l-0.449997,1.049999q-1.150002,2.700001 -2.650002,4.049999l-2.849998,2.350002l-0.300003,0.200001l-0.449997,0.25l-1.400002,0.549999l-3.650002,-0.25q-1.949997,-1.200001 -3.5,-2.900002q-2.299999,-2.149998 -2.799999,-4l-0.650002,-2.700001l0,-0.099998q-0.75,-2.150002 -1.049999,-5.299999l0,-0.950001l-0.049999,-2.049998z"/>
   <path id="svg_18" fill="url(#m)" d="m24.511848,9.811849l-0.050003,0l0.050003,-0.049999l0,0.049999"/>
   <path id="svg_19" fill="url(#n)" d="m0.111848,12.861848l0,-0.299999l0.049999,0.200001l0.049999,0.25l-0.099998,0l0,-0.150002m2.299999,7.650001l-0.400002,-0.950001l-0.25,-0.450001l-0.199997,-0.400002l-0.5,-1.349998l1.399998,1.049999l0,0.100002l0.049999,0.199997l0,1.700001l0.100002,0.600002l-0.200001,-0.5"/>
   <path id="svg_20" fill="url(#o)" d="m22.611847,20.111847l0.050003,-2.049999l0,-1.600002l-0.050003,-0.25l0.699997,-0.449996q0.400002,-0.25 0.75,-0.350002l-0.549995,2.049998l0.199997,-0.5l-0.049995,0.200001l-1.050003,2.950001"/>
   <path id="svg_21" fill="url(#p)" d="m7.311852,8.111848q-2.400002,0.200001 -4,1.700001q-1,1.699999 -1.150002,3.599998q-0.149998,1.850002 0.050003,2.7l0.199997,1.599998l0.050003,0.700001l-1.400002,-1.049999l-0.349998,-1.099998q-0.300003,-0.850001 -0.450001,-1.999999l-0.150002,-1.25l0.100002,0l-0.050003,-0.25l-0.049999,-0.200001l0,-0.400002l0.299999,-2.349998l0.100002,-0.35l0.200001,-0.75q0.349998,-1.15 1,-2.200001q0.75,-1.5 2,-2.699999q1.399997,-1.450001 3,-2.350001l0.349998,1.15q0.599998,2.25 0.599998,3.649999l-0.050003,1.850001l-0.300003,0"/>
   <path id="svg_22" fill="url(#q)" d="m24.861847,12.861848l0,0.549999l-0.25,1.200001l-0.349998,1.299999l-0.550003,1.049998l-0.199997,0.5l0.549995,-2.049998q-0.349998,0.100002 -0.75,0.350002l-0.699997,0.449996l-0.050003,-0.099998q-0.199997,-0.849998 -0.25,-1.7l0,-0.25l0.050003,-0.099998l0,-0.049999q0.199997,-3.350002 -0.050003,-4.300001l-1.099998,-0.75q-1.25,-0.75 -2.849998,-0.85q-3.199996,-0.3 -5.499999,2.450001q-2.25,-2.650002 -5.25,-2.450001l0.050003,-1.850001q0,-1.4 -0.600006,-3.649999l-0.349998,-1.15q2.599999,-1.450001 5.75,-1.4q5.099998,-0.050001 8.749999,3.75q2.5,2.599998 3.300003,5.949999l-0.050003,0.050001l0.050003,0q0.349998,1.449999 0.349998,3.049999"/>
   <path id="svg_23" stroke="#fd9e66" stroke-miterlimit="3" stroke-linejoin="round" stroke-linecap="round" stroke-width="0.05" fill="none" d="m22.611847,20.111847l1.050003,-2.950001l-0.150002,0.299999l0.199997,-0.5l0.550003,-1.049998l0.349998,-1.299999l0.25,-1.200001l0,-0.549999q0,-1.6 -0.349998,-3.049999l0,-0.050001q-0.800003,-3.350001 -3.300003,-5.949999q-3.650002,-3.800001 -8.749999,-3.75q-3.150002,-0.050001 -5.75,1.4q-1.599998,0.9 -3,2.350001q-1.25,1.199999 -2,2.699999q-0.649998,1.050001 -1,2.200001l-0.200001,0.75l-0.099998,0.35l-0.299999,2.349998l0,0.850002l0.149998,1.25q0.150002,1.149998 0.450001,1.999999l0.350002,1.099998l0.5,1.349998l0.199997,0.400002l0.25,0.450001l0.400002,0.950001l0.200001,0.5m21.050002,-3.850002l0.049995,-0.200001m-0.049995,0.200001l0.049995,-0.200001"/>
   <path id="svg_24" fill="url(#r)" d="m17.961845,1.811848q1,0.350001 2.300003,1.450001q1.25,1.049999 2.25,2.649999q-0.550003,2.55 -2.950005,4.450001q-3,2.449999 -7.249999,2.449999q-4.199997,0 -7.25,-2.449999q-2.649997,-2.150002 -2.949997,-5.150002l1.25,-0.949999l2.949997,-1.899999q1.900002,-1.100001 3.800004,-1.550001l2.599998,-0.35l2.199997,0.150001l1.550002,0.5l1.5,0.699999"/>
   <path id="svg_25" fill="url(#s)" d="m8.511849,1.011847q-3.349999,2 -5.450001,5.550001q-2.049999,3.4 -2.049999,6.55q0,2.049999 0.599998,3.45l0,0.299999l-0.049999,0q-0.950001,-3.150001 -0.950001,-5.799998l0.150002,-1.6q0,-1.200001 2.5,-4.550002q1.799999,-2.699999 5.199997,-3.899999l0.050003,0"/>
   <path id="svg_26" fill="url(#t)" d="m24.061852,13.461846q0,-3.65 -2,-7.100001q-2.550003,-4.249998 -6.950004,-5.249998l0.5,0q4.050002,0.65 6.599998,4.149999q2.25,3 2.25,6.100001q0,1.400002 -0.599998,4.450001l-0.050003,0l0.25,-2.350002"/>
   <path id="svg_27" fill="url(#u)" d="m17.011848,11.811849q0.5,2.150002 -0.400002,3.849998q-1.249999,1.999999 -3.150001,2.499999q-1.849998,0.550003 -3.549995,-0.349998q-1.700005,-1.200001 -2.200005,-2.999999q-0.549995,-2.200001 0.700005,-3.85q0.599998,-2.049999 2.799995,-2.549999q1.850006,-0.55 3.550003,0.700001q1.349998,0.799999 2.249999,2.699999"/>
  </g>
 </g>
</svg>