<svg width="26" height="32" xmlns="http://www.w3.org/2000/svg"><defs><radialGradient fy="0" fx="0" r="819.2" cy="0" cx="0" spreadMethod="pad" gradientTransform="matrix(.00357 0 0 .0036 23.112 18.75)" gradientUnits="userSpaceOnUse" id="a"><stop stop-color="#d3873d" offset="0"/><stop stop-color="#f5c9ab" offset=".992"/></radialGradient><radialGradient fy="0" fx="0" r="819.2" cy="0" cx="0" spreadMethod="pad" gradientTransform="matrix(-.00357 0 0 .0036 2.912 18.75)" gradientUnits="userSpaceOnUse" id="b"><stop stop-color="#d3873d" offset="0"/><stop stop-color="#f5c9ab" offset=".992"/></radialGradient><linearGradient y2=".601" y1=".693" x2=".658" x1="-.983" id="c"><stop stop-color="#faa684" offset="0"/><stop stop-color="#ffecd9" offset="1"/></linearGradient><linearGradient y2=".429" y1=".43" x2=".543" x1="-.225" id="d"><stop stop-color="#faa684" offset="0"/><stop stop-color="#ffecd9" offset="1"/></linearGradient><linearGradient y2=".603" y1=".681" x2=".307" x1="1.908" id="e"><stop stop-color="#faa684" offset="0"/><stop stop-color="#ffecd9" offset="1"/></linearGradient><linearGradient y2=".434" y1=".436" x2=".459" x1="1.197" id="f"><stop stop-color="#faa684" offset="0"/><stop stop-color="#ffecd9" offset="1"/></linearGradient><linearGradient y2=".43" y1="2.844" x2=".57" x1=".57" id="g"><stop stop-color="#faa684" offset="0"/><stop stop-color="#ffecd9" offset="1"/></linearGradient><radialGradient fy="0" fx="48" r="819.2" cy="0" cx="0" spreadMethod="pad" gradientTransform="matrix(-.0049 -.0029 -.00317 .0057 20.512 19.9)" gradientUnits="userSpaceOnUse" id="h"><stop stop-opacity=".451" stop-color="#ff9c9c" offset="0"/><stop stop-opacity=".231" stop-color="#ffc1bf" offset=".565"/><stop stop-opacity="0" stop-color="#ffeddb" offset="1"/></radialGradient><radialGradient fy="0" fx="0" r="819.2" cy="0" cx="0" spreadMethod="pad" gradientTransform="matrix(.00488 -.00288 .00317 .0057 6.012 20.1)" gradientUnits="userSpaceOnUse" id="i"><stop stop-opacity=".451" stop-color="#ff9c9c" offset="0"/><stop stop-opacity=".231" stop-color="#ffc1bf" offset=".565"/><stop stop-opacity="0" stop-color="#ffeddb" offset="1"/></radialGradient><radialGradient fy="0" fx="0" r="819.2" cy="0" cx="0" spreadMethod="pad" gradientTransform="matrix(.01175 0 0 .01138 19.812 3.55)" gradientUnits="userSpaceOnUse" id="j"><stop stop-opacity=".161" stop-color="#fff" offset="0"/><stop stop-opacity="0" stop-color="#fff" offset="1"/></radialGradient><linearGradient y2="1.731" y1="1.736" x2="-4.137" x1="2.471" id="k"><stop stop-color="#faa684" offset="0"/><stop stop-color="#ffecd9" offset="1"/></linearGradient><linearGradient y2="1.524" y1="1.528" x2="5.359" x1="-1.793" id="l"><stop stop-color="#faa684" offset="0"/><stop stop-color="#ffecd9" offset="1"/></linearGradient><linearGradient y2="1.498" y1="1.693" x2="1.861" x1="-2.826" id="m"><stop stop-color="#faa684" offset="0"/><stop stop-color="#ffecd9" offset="1"/></linearGradient><linearGradient y2="1.23" y1="1.365" x2="-1.048" x1="3.817" id="n"><stop stop-color="#faa684" offset="0"/><stop stop-color="#ffecd9" offset="1"/></linearGradient><radialGradient fy="0" fx="0" r="819.2" cy="0" cx="0" spreadMethod="pad" gradientTransform="matrix(.00974 0 0 .00943 19.462 7.5)" gradientUnits="userSpaceOnUse" id="o"><stop stop-opacity=".643" stop-color="#fff" offset="0"/><stop stop-opacity="0" stop-color="#fff" offset="1"/></radialGradient><radialGradient fy="0" fx="0" r="819.2" cy="0" cx="0" spreadMethod="pad" gradientTransform="matrix(.01009 0 0 .00978 5.862 7.9)" gradientUnits="userSpaceOnUse" id="p"><stop stop-opacity=".502" stop-color="#fff" offset="0"/><stop stop-opacity="0" stop-color="#fff" offset="1"/></radialGradient><radialGradient fy="0" fx="0" r="819.2" cy="0" cx="0" spreadMethod="pad" gradientTransform="matrix(.01128 0 0 .01093 12.612 3.65)" gradientUnits="userSpaceOnUse" id="q"><stop stop-opacity=".502" stop-color="#fff" offset="0"/><stop stop-opacity="0" stop-color="#fff" offset="1"/></radialGradient></defs><path fill="none" d="M-1-1h582v402H-1z"/><g><path fill="#efb087" d="M22.862 22.65l-.25.25v-.25q.05-.4.25-.7l.45-1-.25-1.6.1-1.15q0-.55.45-1l.5-.35.65-.1.55.45.15 1.2v.2l-.1 1q0 .65-.45 1.2l-.3.6-.45.85q-.2.3-.25-.2-.1-.55-.3-.25l-.5.5.4-.65.45-.15.1.05.15.1.35-.4.3-.65.35-.65.1-.6-.35-1.1.15-.6q0-.7-.55-.7l-.75.25q-.3.2-.45.8l-.05.2v.15l-.05.65.1 1.15.1.75-.05.5-.35.65.2-.15v.05l-.2.4-.2.3m-20.05-.7v-.05l.15.15-.35-.65-.05-.5.1-.75.15-1.15-.1-.65v-.15l-.05-.2-.45-.8-.7-.25q-.6 0-.6.7l.15.6-.35 1.1.15.6.3.65.35.65.3.4.15-.1.1-.05.45.15.4.65-.5-.5q-.2-.3-.25.25-.1.5-.3.2l-.45-.85-.3-.6q-.45-.55-.45-1.2l-.1-1v-.2q-.05-.85.15-1.2.3-.4.55-.45l.65.1q.25.1.5.35.45.45.45 1l.1 1.15-.25 1.6.45 1 .25.7v.25l-.25-.25-.2-.3-.15-.4"/><path fill="#f7d2bb" d="M23.362 16.05l.65-.15q1.1-.1 1.6.75.45.65.3 1.35.05.9-.6 2.7l-1 2.2q-.5 1.7-1.3 1.7l-1.15-.35-.15-.35 1.65-7.85m-.25 6.25l.5-.5q.2-.3.3.25.05.5.25.2l.45-.85.3-.6q.45-.55.45-1.2l.1-1v-.2l-.15-1.2-.55-.45-.65.1-.5.35q-.45.45-.45 1l-.1 1.15.25 1.6-.45 1q-.2.3-.25.7v.25l.25-.25.2-.3h.05v-.05m-20.2.05h.05l.2.3.25.25v-.25l-.25-.7-.45-1 .25-1.6-.1-1.15q0-.55-.45-1-.25-.25-.5-.35l-.65-.1q-.25.05-.55.45-.2.35-.15 1.2v.2l.1 1q0 .65.45 1.2l.3.6.45.85q.2.3.3-.2.05-.55.25-.25l.5.5v.05m1.4 1.55l-.15.35-1.15.35q-.8 0-1.3-1.7-.35-.35-1-2.2-.65-1.8-.6-2.7-.15-.7.3-1.35.5-.85 1.6-.75l.65.15 1.65 7.85"/><path fill="url(#a)" d="M23.112 22.35h-.05l.2-.4v-.05l-.2.15.35-.65.05-.5-.1-.75-.1-1.15.05-.65v-.15l.05-.2q.15-.6.45-.8l.75-.25q.55 0 .55.7l-.15.6.35 1.1-.1.6-.35.65-.3.65-.35.4-.15-.1-.1-.05-.45.15-.4.65v.05"/><path fill="url(#b)" d="M2.962 22.35h-.05v-.05l-.4-.65-.45-.15-.1.05-.15.1-.3-.4-.35-.65-.3-.65-.15-.6.35-1.1-.15-.6q0-.7.6-.7l.7.25.45.8.05.2v.15l.1.65-.15 1.15-.1.75.05.5.35.65-.15-.15v.05l.15.4"/><path stroke="#fd9e66" stroke-miterlimit="3" stroke-linejoin="round" stroke-linecap="round" stroke-width=".05" fill="none" d="M23.362 16.05l.65-.15q1.1-.1 1.6.75.45.65.3 1.35.05.9-.6 2.7l-1 2.2q-.5 1.7-1.3 1.7l-1.15-.35-.15-.35m-19.05-7.85l-.65-.15q-1.1-.1-1.6.75-.45.65-.3 1.35-.05.9.6 2.7.65 1.85 1 2.2.5 1.7 1.3 1.7l1.15-.35.15-.35"/><path fill="#ffecd9" d="M20.812 9.35l-.7 3.3q-.05.65.35 1.35l.65 1.15.15.55-.45 3.45-.8 2.1q-.25.45-1 .55-.75.1-3.2-1.4l.25.7.15.5.3.3.2.2.05.15.85 1.8.05-.05h.6q.5-.05.7.45.15.45-.3 1.5l-1.4 2.55-.65.95q-.1-.15.1-.9.15-.8-.15-.3l-.9 1.1-1 1.1-.85.65-.75.15h-.1l-.65-.15-.85-.65-1-1.1-.85-1.1q-.35-.5-.2.3l.1.9-.65-.95-1.35-2.55q-.5-1.05-.3-1.5.15-.5.65-.45h.6l.1.05.7-1.8.25-.35.3-.3.2-.5.25-.7q-2.45 1.5-3.25 1.4-.75-.1-1-.55-.25-.45-.75-2.1-.5-1.6-.5-3.45l.2-.55.6-1.15q.4-.7.4-1.35l-.7-3.3-.9-3.75q1.65-2.15 4.75-3.25 1.95-.65 3.8-.7h.05q2 .1 3.9.75 3.1 1.05 4.75 3.2l.05.1-.85 3.65"/><path fill="url(#c)" d="M9.012 22.75l-.4.7.2-.75.1-.15q.2-.75.5-1.2l-.4.1-.7.4q-1.65.9-2.15.6-.55-.3-.95-1-.45-.75-.75-2.05l-.9-4.1q-.55-2.3-1.3-4.15.3-3.35 2.1-5.55l.9 3.75.7 3.3q0 .65-.4 1.35l-.6 1.15-.2.55q0 1.85.5 3.45.5 1.65.75 2.1.25.45 1 .55.8.1 3.25-1.4l-.25.7-.2.5-.3.3-.25.35-.25.5"/><path fill="url(#d)" d="M12.963 31.7v.05h-.05l.05-.05m-5.6-3.7l-.2-.1q-1.05-1.05-2.2-2.85-1.2-1.8-1.65-4.55l-.75-5-.3-3.1v-1.25q.75 1.85 1.3 4.15l.9 4.1q.3 1.3.75 2.05.4.7.95 1 .5.3 2.15-.6l.7-.4.4-.1q-.3.45-.5 1.2l-.1.15-.2.75-.15.3h-.05l-.75-.15q-.7-.15-.9.2-.25.3.05 1.4l.25.75.1.65.15 1 .05.4"/><path fill="url(#e)" d="M17.312 23.25l-.55-1-.05-.15-.2-.2-.3-.3-.15-.5-.25-.7q2.45 1.5 3.2 1.4.75-.1 1-.55l.8-2.1.45-3.45-.15-.55-.65-1.15q-.4-.7-.35-1.35l.7-3.3.85-3.65q1.75 2.15 2 5.45l.05.15q-.75 1.8-1.2 4l-.95 4.1-.7 2.05-.95 1q-.55.3-2.2-.6l-.65-.4-.45-.1.55 1.2.2.7.05.2-.1-.2"/><path fill="url(#f)" d="M18.712 27.85h-.05l.15-.65v-.25l.05-.1v-.25l.05-.15.3-1.25q.3-1.1.1-1.4-.25-.35-.9-.2l-.8.15-.2-.3-.05-.2-.2-.7-.55-1.2.45.1.65.4q1.65.9 2.2.6l.95-1 .7-2.05.95-4.1q.45-2.2 1.2-4l-.05 1.1-.25 3.1-.75 5.05q-.45 2.7-1.65 4.55l-2.2 2.8-.15.1.05-.15m-4 3.5l-.55.2.55-.3v.1m-1.4.4h-.35v-.05l.35.05"/><path fill="url(#g)" d="M12.963 31.7l-.05.05-.45-.05q-.75-.1-1.6-.6l-1.9-1.45-1.6-1.65-.05-.4-.15-1-.1-.65-.25-.75q-.3-1.1-.05-1.4.2-.35.9-.2l.75.15h.05l.15-.3.4-.7.25-.5-.7 1.8-.1-.05h-.6q-.5-.05-.65.45-.2.45.3 1.5l1.35 2.55.65.95-.1-.9q-.15-.8.2-.3l.85 1.1 1 1.1.85.65.65.15h.1l.75-.15.85-.65 1-1.1.9-1.1q.3-.5.15.3-.2.75-.1.9l.65-.95 1.4-2.55q.45-1.05.3-1.5-.2-.5-.7-.45h-.6l-.05.05-.85-1.8.55 1 .1.2.2.3.8-.15q.65-.15.9.2.2.3-.1 1.4l-.3 1.25-.05.15v.25l-.05.1v.25l-.15.65h.05l-.05.15-1.65 1.65-1.9 1.5-.4.2v-.1l-.55.3-.85.2-.35-.05"/><path stroke="#fd9e66" stroke-miterlimit="3" stroke-linejoin="round" stroke-linecap="round" stroke-width=".05" fill="none" d="M4.362 5.6q1.65-2.15 4.75-3.25 1.95-.65 3.8-.7h.05q2 .1 3.9.75 3.1 1.05 4.75 3.2l.05.1q1.75 2.15 2 5.45l.05.15-.05 1.1-.25 3.1-.75 5.05q-.45 2.7-1.65 4.55l-2.2 2.8-.15.1-1.65 1.65-1.9 1.5-.4.2-.55.2-.85.2h-.4l-.45-.05q-.75-.1-1.6-.6l-1.9-1.45-1.6-1.65-.2-.1q-1.05-1.05-2.2-2.85-1.2-1.8-1.65-4.55l-.75-5-.3-3.1v-1.25q.3-3.35 2.1-5.55z"/><path fill="url(#h)" d="M18.612 15.2q1.95-.7 3.6.25 1.65 1 2.05 3.05.4 2.05-.65 4-1.1 1.95-3 2.6-1.95.7-3.6-.25-1.65-1-2.05-3.1-.4-2.05.65-3.95 1.1-1.95 3-2.6"/><path fill="url(#i)" d="M10.412 17.8q1.1 1.9.65 4-.35 2.05-2.05 3.05-1.65 1-3.55.3-1.95-.7-3-2.65-1.1-1.95-.65-4 .4-2 2.05-3 1.65-.95 3.6-.25 1.85.65 2.95 2.55"/><path fill="url(#j)" d="M12.762 3.9q0-2.2.85-3.6l.1.05q5.95 1.6 6.9 2.7 2.15 2.45 2.15 4.75 0 3.75-6.4 3.75l-1.8-.25q-.65-.5-1.25-2.2-.6-1.85-.5-2.9l-.05-2.3"/><path fill="url(#k)" d="M24.062 11.5l-.6 3.6-.6-.55v-.5l.7-5.9q.45 1.55.5 3.35"/><path fill="url(#l)" d="M2.562 9.85l.35 2.3-.05 1.3v.5l.2 1.85v.1h-.45q-.4-1.15-.65-3l-.05-1.4v-.6l.05-.8.2-1.35.15-.65.25 1.75"/><path fill="url(#m)" d="M4.362 9.2l-.7.9q-.45.6-.65 1.25l-.1.8-.35-2.3-.25-1.75q.35-1.25 1-2.3.55-1.15 1.45-2.05 0 1.4.35 4.7l-.75.75"/><path fill="url(#n)" d="M22.762 6.15l.8 2-.7 5.9.05-.8q0-2.6-1.15-4.6l-.8-.55.15-1.8.05-2.15V3.8l1.6 2.35"/><path fill="#ffecd9" d="M20.762 8q-1.1-.65-2.5-.75-2.9-.3-4.95 2.15-1.15-1.3-2.5-1.85l-2.45-.3q-1.9.15-3.25 1.2-.35-3.3-.35-4.7l.35-.35q3.2-3.4 7.85-3.35 4.55-.05 7.8 3.35l.4.4v.35l-.05 2.15-.15 1.8-.2-.1"/><path stroke="#fd9e66" stroke-miterlimit="3" stroke-linejoin="round" stroke-linecap="round" stroke-width=".05" fill="none" d="M23.462 15.1l.6-3.6q-.05-1.8-.5-3.35l-.8-2-1.6-2.35-.4-.4q-3.25-3.4-7.8-3.35Q8.313 0 5.113 3.4l-.35.35M2.312 8.1l-.15.65-.2 1.35-.05.8v.6l.05 1.4q.25 1.85.65 3m-.3-7.8q.35-1.25 1-2.3.55-1.15 1.45-2.05"/><path fill="url(#o)" d="M23.112 14.05h-.05l.25-2.1q0-3.3-1.8-6.35-2.3-3.8-6.25-4.7h.45q3.65.55 5.95 3.7 2 2.7 2 5.5l-.55 3.95"/><path fill="url(#p)" d="M4.512 5.8q-1.8 3-1.8 5.85 0 1.8.5 3.1V15h-.05q-.85-2.85-.85-5.2l.15-1.4q0-1.1 2.2-4.1 1.65-2.4 4.7-3.5h.05q-3.05 1.8-4.9 5"/><path fill="url(#q)" d="M19.712 2.55q1.1.9 2 2.35-.5 2.3-2.65 4-2.65 2.15-6.45 2.15-3.8 0-6.5-2.15-2.4-1.95-2.65-4.65l1.1-.8q.9-.75 2.65-1.7 1.7-1 3.4-1.45l2.35-.25 2 .15 1.35.4 1.35.6 2.05 1.35"/></g></svg>