<svg xmlns="http://www.w3.org/2000/svg" width="26" height="32"><g transform="translate(-57.15 -20.4)"><path d="M79.95 43.05l-.25.25v-.25q.05-.4.25-.7l.45-1-.25-1.6.1-1.15q0-.55.45-1l.5-.35.65-.1.55.45.15 1.2v.2l-.1 1q0 .65-.45 1.2l-.3.6-.45.85q-.2.3-.25-.2-.1-.55-.3-.25l-.5.5.4-.65.45-.15.1.05.15.1.35-.4.3-.65.35-.65.1-.6-.35-1.1.15-.6q0-.7-.55-.7l-.75.25q-.3.2-.45.8l-.05.2v.15l-.05.65.1 1.15.1.75-.05.5-.35.65.2-.15v.05l-.2.4-.2.3m-20.05-.7v-.05l.15.15-.35-.65-.05-.5.1-.75.15-1.15-.1-.65v-.15l-.05-.2-.45-.8-.7-.25q-.6 0-.6.7l.15.6-.35 1.1.15.6.3.65.35.65.3.4.15-.1.1-.05.45.15.4.65-.5-.5q-.2-.3-.25.25-.1.5-.3.2l-.45-.85-.3-.6q-.45-.55-.45-1.2l-.1-1v-.2q-.05-.85.15-1.2.3-.4.55-.45l.65.1q.25.1.5.35.45.45.45 1l.1 1.15-.25 1.6.45 1 .25.7v.25l-.25-.25-.2-.3-.15-.4" fill="#efb087"/><path d="M80.45 36.45l.65-.15q1.1-.1 1.6.75.45.65.3 1.35.05.9-.6 2.7l-1 2.2q-.5 1.7-1.3 1.7l-1.15-.35-.15-.35 1.65-7.85m-.25 6.25l.5-.5q.2-.3.3.25.05.5.25.2l.45-.85.3-.6q.45-.55.45-1.2l.1-1v-.2l-.15-1.2-.55-.45-.65.1-.5.35q-.45.45-.45 1l-.1 1.15.25 1.6-.45 1q-.2.3-.25.7v.25l.25-.25.2-.3h.05v-.05m-20.2.05h.05l.2.3.25.25v-.25l-.25-.7-.45-1 .25-1.6-.1-1.15q0-.55-.45-1-.25-.25-.5-.35l-.65-.1q-.25.05-.55.45-.2.35-.15 1.2v.2l.1 1q0 .65.45 1.2l.3.6.45.85q.2.3.3-.2.05-.55.25-.25l.5.5v.05m1.4 1.55l-.15.35-1.15.35q-.8 0-1.3-1.7-.35-.35-1-2.2-.65-1.8-.6-2.7-.15-.7.3-1.35.5-.85 1.6-.75l.65.15 1.65 7.85" fill="#f7d2bb"/><radialGradient id="a" gradientUnits="userSpaceOnUse" gradientTransform="matrix(.00357 0 0 .0036 80.2 39.15)" spreadMethod="pad" cx="0" cy="0" r="819.2" fx="0" fy="0"><stop offset="0" stop-color="#d3873d"/><stop offset=".992" stop-color="#f5c9ab"/></radialGradient><path d="M80.2 42.75h-.05l.2-.4v-.05l-.2.15.35-.65.05-.5-.1-.75-.1-1.15.05-.65v-.15l.05-.2q.15-.6.45-.8l.75-.25q.55 0 .55.7l-.15.6.35 1.1-.1.6-.35.65-.3.65-.35.4-.15-.1-.1-.05-.45.15-.4.65v.05" fill="url(#a)"/><radialGradient id="b" gradientUnits="userSpaceOnUse" gradientTransform="matrix(-.00357 0 0 .0036 60 39.15)" spreadMethod="pad" cx="0" cy="0" r="819.2" fx="0" fy="0"><stop offset="0" stop-color="#d3873d"/><stop offset=".992" stop-color="#f5c9ab"/></radialGradient><path d="M60.05 42.75H60v-.05l-.4-.65-.45-.15-.1.05-.15.1-.3-.4-.35-.65-.3-.65-.15-.6.35-1.1-.15-.6q0-.7.6-.7l.7.25.45.8.05.2v.15l.1.65-.15 1.15-.1.75.05.5.35.65-.15-.15v.05l.15.4" fill="url(#b)"/><path d="M80.45 36.45l.65-.15q1.1-.1 1.6.75.45.65.3 1.35.05.9-.6 2.7l-1 2.2q-.5 1.7-1.3 1.7l-1.15-.35-.15-.35m-19.05-7.85l-.65-.15q-1.1-.1-1.6.75-.45.65-.3 1.35-.05.9.6 2.7.65 1.85 1 2.2.5 1.7 1.3 1.7l1.15-.35.15-.35" fill="none" stroke-width=".05" stroke-linecap="round" stroke-linejoin="round" stroke-miterlimit="3" stroke="#fd9e66"/><path d="M77.9 29.75l-.7 3.3q-.05.65.35 1.35l.65 1.15.15.55-.45 3.45-.8 2.1q-.25.45-1 .55-.75.1-3.2-1.4l.25.7.15.5.3.3.2.2.05.15.85 1.8.05-.05h.6q.5-.05.7.45.15.45-.3 1.5l-1.4 2.55-.65.95q-.1-.15.1-.9.15-.8-.15-.3l-.9 1.1-1 1.1-.85.65-.75.15h-.1l-.65-.15-.85-.65-1-1.1-.85-1.1q-.35-.5-.2.3l.1.9-.65-.95-1.35-2.55q-.5-1.05-.3-1.5.15-.5.65-.45h.6l.1.05.7-1.8.25-.35.3-.3.2-.5.25-.7q-2.45 1.5-3.25 1.4-.75-.1-1-.55-.25-.45-.75-2.1-.5-1.6-.5-3.45l.2-.55.6-1.15q.4-.7.4-1.35l-.7-3.3-.9-3.75q1.65-2.15 4.75-3.25 1.95-.65 3.8-.7h.05q2 .1 3.9.75 3.1 1.05 4.75 3.2l.05.1-.85 3.65" fill="#ffecd9"/><linearGradient id="c" gradientUnits="userSpaceOnUse" gradientTransform="matrix(.00801 -.001 .00145 .01135 58.05 37.55)" x1="-819.2" x2="819.2"><stop offset="0" stop-color="#faa684"/><stop offset="1" stop-color="#ffecd9"/></linearGradient><path d="M66.1 43.15l-.4.7.2-.75.1-.15q.2-.75.5-1.2l-.4.1-.7.4q-1.65.9-2.15.6-.55-.3-.95-1-.45-.75-.75-2.05l-.9-4.1q-.55-2.3-1.3-4.15.3-3.35 2.1-5.55l.9 3.75.7 3.3q0 .65-.4 1.35l-.6 1.15-.2.55q0 1.85.5 3.45.5 1.65.75 2.1.25.45 1 .55.8.1 3.25-1.4l-.25.7-.2.5-.3.3-.25.35-.25.5" fill="url(#c)"/><linearGradient id="d" gradientUnits="userSpaceOnUse" gradientTransform="matrix(.00502 -.00002 -.00002 .00781 61.05 40.4)" x1="-819.2" x2="819.2"><stop offset="0" stop-color="#faa684"/><stop offset="1" stop-color="#ffecd9"/></linearGradient><path d="M70.05 52.1v.05H70l.05-.05m-5.6-3.7l-.2-.1q-1.05-1.05-2.2-2.85-1.2-1.8-1.65-4.55l-.75-5-.3-3.1v-1.25q.75 1.85 1.3 4.15l.9 4.1q.3 1.3.75 2.05.4.7.95 1 .5.3 2.15-.6l.7-.4.4-.1q-.3.45-.5 1.2l-.1.15-.2.75-.15.3h-.05l-.75-.15q-.7-.15-.9.2-.25.3.05 1.4l.25.75.1.65.15 1 .05.4" fill="url(#d)"/><linearGradient id="e" gradientUnits="userSpaceOnUse" gradientTransform="matrix(-.00772 -.00084 .00127 -.01147 81.65 37.5)" x1="-819.2" x2="819.2"><stop offset="0" stop-color="#faa684"/><stop offset="1" stop-color="#ffecd9"/></linearGradient><path d="M74.4 43.65l-.55-1-.05-.15-.2-.2-.3-.3-.15-.5-.25-.7q2.45 1.5 3.2 1.4.75-.1 1-.55l.8-2.1.45-3.45-.15-.55-.65-1.15q-.4-.7-.35-1.35l.7-3.3.85-3.65q1.75 2.15 2 5.45l.05.15q-.75 1.8-1.2 4l-.95 4.1-.7 2.05-.95 1q-.55.3-2.2-.6l-.65-.4-.45-.1.55 1.2.2.7.05.2-.1-.2" fill="url(#e)"/><linearGradient id="f" gradientUnits="userSpaceOnUse" gradientTransform="matrix(-.00484 -.00002 .00003 -.0114 78.95 40.6)" x1="-819.2" x2="819.2"><stop offset="0" stop-color="#faa684"/><stop offset="1" stop-color="#ffecd9"/></linearGradient><path d="M75.8 48.25h-.05l.15-.65v-.25l.05-.1V47l.05-.15.3-1.25q.3-1.1.1-1.4-.25-.35-.9-.2l-.8.15-.2-.3-.05-.2-.2-.7-.55-1.2.45.1.65.4q1.65.9 2.2.6l.95-1 .7-2.05.95-4.1q.45-2.2 1.2-4l-.05 1.1-.25 3.1-.75 5.05q-.45 2.7-1.65 4.55l-2.2 2.8-.15.1.05-.15m-4 3.5l-.55.2.55-.3v.1m-1.4.4h-.35v-.05l.35.05" fill="url(#f)"/><linearGradient id="g" gradientUnits="userSpaceOnUse" gradientTransform="matrix(0 -.014 .00777 0 71 58.2)" x1="-819.2" x2="819.2"><stop offset="0" stop-color="#faa684"/><stop offset="1" stop-color="#ffecd9"/></linearGradient><path d="M70.05 52.1l-.05.05-.45-.05q-.75-.1-1.6-.6l-1.9-1.45-1.6-1.65-.05-.4-.15-1-.1-.65-.25-.75q-.3-1.1-.05-1.4.2-.35.9-.2l.75.15h.05l.15-.3.4-.7.25-.5-.7 1.8-.1-.05h-.6q-.5-.05-.65.45-.2.45.3 1.5l1.35 2.55.65.95-.1-.9q-.15-.8.2-.3l.85 1.1 1 1.1.85.65.65.15h.1l.75-.15.85-.65 1-1.1.9-1.1q.3-.5.15.3-.2.75-.1.9l.65-.95 1.4-2.55q.45-1.05.3-1.5-.2-.5-.7-.45h-.6l-.05.05-.85-1.8.55 1 .1.2.2.3.8-.15q.65-.15.9.2.2.3-.1 1.4l-.3 1.25-.05.15v.25l-.05.1v.25l-.15.65h.05l-.05.15-1.65 1.65-1.9 1.5-.4.2v-.1l-.55.3-.85.2-.35-.05" fill="url(#g)"/><path d="M61.45 26q1.65-2.15 4.75-3.25 1.95-.65 3.8-.7h.05q2 .1 3.9.75 3.1 1.05 4.75 3.2l.05.1q1.75 2.15 2 5.45l.05.15-.05 1.1-.25 3.1-.75 5.05q-.45 2.7-1.65 4.55l-2.2 2.8-.15.1-1.65 1.65-1.9 1.5-.4.2-.55.2-.85.2H70l-.45-.05q-.75-.1-1.6-.6l-1.9-1.45-1.6-1.65-.2-.1q-1.05-1.05-2.2-2.85-1.2-1.8-1.65-4.55l-.75-5-.3-3.1v-1.25q.3-3.35 2.1-5.55z" fill="none" stroke-width=".05" stroke-linecap="round" stroke-linejoin="round" stroke-miterlimit="3" stroke="#fd9e66"/><radialGradient id="h" gradientUnits="userSpaceOnUse" gradientTransform="matrix(-.0049 -.0029 -.00317 .0057 77.6 40.3)" spreadMethod="pad" cx="0" cy="0" r="819.2" fx="48" fy="0"><stop offset="0" stop-color="#ff9c9c" stop-opacity=".451"/><stop offset=".565" stop-color="#ffc1bf" stop-opacity=".231"/><stop offset="1" stop-color="#ffeddb" stop-opacity="0"/></radialGradient><path d="M75.7 35.6q1.95-.7 3.6.25 1.65 1 2.05 3.05.4 2.05-.65 4-1.1 1.95-3 2.6-1.95.7-3.6-.25-1.65-1-2.05-3.1-.4-2.05.65-3.95 1.1-1.95 3-2.6" fill="url(#h)"/><radialGradient id="i" gradientUnits="userSpaceOnUse" gradientTransform="matrix(.00488 -.00288 .00317 .0057 63.1 40.5)" spreadMethod="pad" cx="0" cy="0" r="819.2" fx="0" fy="0"><stop offset="0" stop-color="#ff9c9c" stop-opacity=".451"/><stop offset=".565" stop-color="#ffc1bf" stop-opacity=".231"/><stop offset="1" stop-color="#ffeddb" stop-opacity="0"/></radialGradient><path d="M67.5 38.2q1.1 1.9.65 4-.35 2.05-2.05 3.05-1.65 1-3.55.3-1.95-.7-3-2.65-1.1-1.95-.65-4 .4-2 2.05-3 1.65-.95 3.6-.25 1.85.65 2.95 2.55" fill="url(#i)"/><radialGradient id="j" gradientUnits="userSpaceOnUse" gradientTransform="matrix(.01175 0 0 .01138 76.9 23.95)" spreadMethod="pad" cx="0" cy="0" r="819.2" fx="0" fy="0"><stop offset="0" stop-color="#fff" stop-opacity=".161"/><stop offset="1" stop-color="#fff" stop-opacity="0"/></radialGradient><path d="M69.85 24.3q0-2.2.85-3.6l.1.05q5.95 1.6 6.9 2.7 2.15 2.45 2.15 4.75 0 3.75-6.4 3.75l-1.8-.25q-.65-.5-1.25-2.2-.6-1.85-.5-2.9l-.05-2.3" fill="url(#j)"/><linearGradient id="k" gradientUnits="userSpaceOnUse" gradientTransform="matrix(-.00484 -.00002 .00003 -.0114 78.95 40.6)" x1="-819.2" x2="819.2"><stop offset="0" stop-color="#faa684"/><stop offset="1" stop-color="#ffecd9"/></linearGradient><path d="M81.15 31.9l-.6 3.6-.6-.55v-.5l.7-5.9q.45 1.55.5 3.35" fill="url(#k)"/><linearGradient id="l" gradientUnits="userSpaceOnUse" gradientTransform="matrix(.00502 -.00002 -.00002 .00781 61.05 40.4)" x1="-819.2" x2="819.2"><stop offset="0" stop-color="#faa684"/><stop offset="1" stop-color="#ffecd9"/></linearGradient><path d="M59.65 30.25l.35 2.3-.05 1.3v.5l.2 1.85v.1h-.45q-.4-1.15-.65-3L59 31.9v-.6l.05-.8.2-1.35.15-.65.25 1.75" fill="url(#l)"/><linearGradient id="m" gradientUnits="userSpaceOnUse" gradientTransform="matrix(.00801 -.001 .00145 .01135 58.05 37.55)" x1="-819.2" x2="819.2"><stop offset="0" stop-color="#faa684"/><stop offset="1" stop-color="#ffecd9"/></linearGradient><path d="M61.45 29.6l-.7.9q-.45.6-.65 1.25l-.1.8-.35-2.3-.25-1.75q.35-1.25 1-2.3.55-1.15 1.45-2.05 0 1.4.35 4.7l-.75.75" fill="url(#m)"/><linearGradient id="n" gradientUnits="userSpaceOnUse" gradientTransform="matrix(-.00772 -.00084 .00127 -.01147 81.65 37.5)" x1="-819.2" x2="819.2"><stop offset="0" stop-color="#faa684"/><stop offset="1" stop-color="#ffecd9"/></linearGradient><path d="M79.85 26.55l.8 2-.7 5.9.05-.8q0-2.6-1.15-4.6l-.8-.55.15-1.8.05-2.15v-.35l1.6 2.35" fill="url(#n)"/><path d="M77.85 28.4q-1.1-.65-2.5-.75-2.9-.3-4.95 2.15-1.15-1.3-2.5-1.85l-2.45-.3q-1.9.15-3.25 1.2-.35-3.3-.35-4.7l.35-.35q3.2-3.4 7.85-3.35 4.55-.05 7.8 3.35l.4.4v.35l-.05 2.15-.15 1.8-.2-.1" fill="#ffecd9"/><path d="M80.55 35.5l.6-3.6q-.05-1.8-.5-3.35l-.8-2-1.6-2.35-.4-.4q-3.25-3.4-7.8-3.35-4.65-.05-7.85 3.35l-.35.35M59.4 28.5l-.15.65-.2 1.35-.05.8v.6l.05 1.4q.25 1.85.65 3m-.3-7.8q.35-1.25 1-2.3.55-1.15 1.45-2.05" fill="none" stroke-width=".05" stroke-linecap="round" stroke-linejoin="round" stroke-miterlimit="3" stroke="#fd9e66"/><radialGradient id="o" gradientUnits="userSpaceOnUse" gradientTransform="matrix(.00974 0 0 .00943 76.55 27.9)" spreadMethod="pad" cx="0" cy="0" r="819.2" fx="0" fy="0"><stop offset="0" stop-color="#fff" stop-opacity=".643"/><stop offset="1" stop-color="#fff" stop-opacity="0"/></radialGradient><path d="M80.2 34.45h-.05l.25-2.1q0-3.3-1.8-6.35-2.3-3.8-6.25-4.7h.45q3.65.55 5.95 3.7 2 2.7 2 5.5l-.55 3.95" fill="url(#o)"/><radialGradient id="p" gradientUnits="userSpaceOnUse" gradientTransform="matrix(.01009 0 0 .00978 62.95 28.3)" spreadMethod="pad" cx="0" cy="0" r="819.2" fx="0" fy="0"><stop offset="0" stop-color="#fff" stop-opacity=".502"/><stop offset="1" stop-color="#fff" stop-opacity="0"/></radialGradient><path d="M61.6 26.2q-1.8 3-1.8 5.85 0 1.8.5 3.1v.25h-.05q-.85-2.85-.85-5.2l.15-1.4q0-1.1 2.2-4.1 1.65-2.4 4.7-3.5h.05q-3.05 1.8-4.9 5" fill="url(#p)"/><radialGradient id="q" gradientUnits="userSpaceOnUse" gradientTransform="matrix(.01128 0 0 .01093 69.7 24.05)" spreadMethod="pad" cx="0" cy="0" r="819.2" fx="0" fy="0"><stop offset="0" stop-color="#fff" stop-opacity=".502"/><stop offset="1" stop-color="#fff" stop-opacity="0"/></radialGradient><path d="M76.8 22.95q1.1.9 2 2.35-.5 2.3-2.65 4-2.65 2.15-6.45 2.15-3.8 0-6.5-2.15-2.4-1.95-2.65-4.65l1.1-.8q.9-.75 2.65-1.7 1.7-1 3.4-1.45l2.35-.25 2 .15 1.35.4 1.35.6 2.05 1.35" fill="url(#q)"/></g></svg>