<svg width="24" height="32" xmlns="http://www.w3.org/2000/svg">
 <defs>
  <radialGradient fy="0" fx="0" r="819.2" cy="0" cx="0" spreadMethod="pad" gradientTransform="matrix(0.02101000025868416,0,0,0.020749999210238457,10.35000228881836,12.762500762939453)" gradientUnits="userSpaceOnUse" id="a">
   <stop stop-color="#f0c4b0" offset="0.02"/>
   <stop stop-color="#ffeddb" offset="1"/>
  </radialGradient>
  <radialGradient fy="0" fx="48" r="819.2" cy="0" cx="0" spreadMethod="pad" gradientTransform="matrix(0.0052999998442828655,0,0,0.0052200001664459705,19.700000762939453,24.412498474121094)" gradientUnits="userSpaceOnUse" id="b">
   <stop stop-color="#febcbc" offset="0"/>
   <stop stop-color="#ffeddb" offset="1"/>
  </radialGradient>
  <radialGradient fy="0" fx="0" r="819.2" cy="0" cx="0" spreadMethod="pad" gradientTransform="matrix(0.012330000288784504,0,0,0.015399999916553497,15.60000228881836,11.01249885559082)" gradientUnits="userSpaceOnUse" id="c">
   <stop stop-color="#fcead8" offset="0.22"/>
   <stop stop-color="#feccab" offset="1"/>
  </radialGradient>
  <radialGradient fy="0" fx="0" r="819.2" cy="0" cx="0" spreadMethod="pad" gradientTransform="matrix(0.00865000020712614,0.004360000137239695,-0.00965999998152256,0.019029999151825905,13.049999237060547,22.362499237060547)" gradientUnits="userSpaceOnUse" id="d">
   <stop stop-color="#ffecd9" offset="0.275"/>
   <stop stop-color="#feccab" offset="1"/>
  </radialGradient>
  <radialGradient fy="0" fx="0" r="819.2" cy="0" cx="0" spreadMethod="pad" gradientTransform="matrix(0.00848000030964613,0.004879999905824661,-0.01143999956548214,0.01979999989271164,13.10000228881836,21.262500762939453)" gradientUnits="userSpaceOnUse" id="e">
   <stop stop-color="#fcead8" offset="0.157"/>
   <stop stop-color="#feccab" offset="1"/>
  </radialGradient>
  <radialGradient fy="0" fx="0" r="819.2" cy="0" cx="0" spreadMethod="pad" gradientTransform="matrix(0.009519999846816063,-0.004459999967366457,0.0070500001311302185,0.01510000042617321,8.950000762939453,22.162498474121094)" gradientUnits="userSpaceOnUse" id="f">
   <stop stop-color="#fcead8" offset="0.157"/>
   <stop stop-color="#feccab" offset="1"/>
  </radialGradient>
  <radialGradient fy="0" fx="0" r="819.2" cy="0" cx="0" spreadMethod="pad" gradientTransform="matrix(0.010130000300705433,-0.005830000154674053,0.010350000113248825,0.017880000174045563,9.950000762939453,19.912498474121094)" gradientUnits="userSpaceOnUse" id="g">
   <stop stop-color="#fcead8" offset="0.157"/>
   <stop stop-color="#feccab" offset="1"/>
  </radialGradient>
  <radialGradient fy="0" fx="0" r="819.2" cy="0" cx="0" spreadMethod="pad" gradientTransform="matrix(0.012500000186264515,0,0,0.017869999632239342,8.14999771118164,11.71249771118164)" gradientUnits="userSpaceOnUse" id="h">
   <stop stop-color="#fcead8" offset="0.22"/>
   <stop stop-color="#feccab" offset="1"/>
  </radialGradient>
  <radialGradient fy="0" fx="0" r="819.2" cy="0" cx="0" spreadMethod="pad" gradientTransform="matrix(0.007739999797195196,-0.0036200000904500484,0.0070500001311302185,0.01510000042617321,8.299999237060547,21.762500762939453)" gradientUnits="userSpaceOnUse" id="i">
   <stop stop-color="#ffecd9" offset="0.235"/>
   <stop stop-color="#feccab" offset="1"/>
  </radialGradient>
  <radialGradient fy="0" fx="210505" r="819.2" cy="0" cx="0" spreadMethod="pad" gradientTransform="matrix(0.006000000052154064,-0.0010000000474974513,0.004459999967366457,0.027219999581575394,22.10000228881836,8.8125)" gradientUnits="userSpaceOnUse" id="j">
   <stop stop-color="#feccab" offset="0.306"/>
   <stop stop-color="#ffecd9" offset="1"/>
  </radialGradient>
  <radialGradient fy="0" fx="210505" r="819.2" cy="0" cx="0" spreadMethod="pad" gradientTransform="matrix(0.00930000003427267,0,0,0.00930000003427267,24.299999237060547,18.862499237060547)" gradientUnits="userSpaceOnUse" id="k">
   <stop stop-color="#feccab" offset="0.008"/>
   <stop stop-color="#ffecd9" offset="1"/>
  </radialGradient>
  <radialGradient fy="0" fx="210505" r="819.2" cy="0" cx="0" spreadMethod="pad" gradientTransform="matrix(0.023150000721216202,0,0,0.023150000721216202,-10.39999771118164,14.912498474121094)" gradientUnits="userSpaceOnUse" id="l">
   <stop stop-color="#feccab" offset="0.008"/>
   <stop stop-color="#ffecd9" offset="1"/>
  </radialGradient>
  <radialGradient fy="0" fx="0" r="819.2" cy="0" cx="0" spreadMethod="pad" gradientTransform="matrix(0.012330000288784504,0,0,0.015399999916553497,15.60000228881836,11.01249885559082)" gradientUnits="userSpaceOnUse" id="m">
   <stop stop-color="#fcead8" offset="0.22"/>
   <stop stop-color="#feccab" offset="1"/>
  </radialGradient>
  <radialGradient fy="0" fx="210505" r="819.2" cy="0" cx="0" spreadMethod="pad" gradientTransform="matrix(0.006000000052154064,-0.0010000000474974513,0.004459999967366457,0.027219999581575394,22.10000228881836,8.8125)" gradientUnits="userSpaceOnUse" id="n">
   <stop stop-color="#feccab" offset="0.306"/>
   <stop stop-color="#ffecd9" offset="1"/>
  </radialGradient>
  <radialGradient fy="0" fx="0" r="819.2" cy="0" cx="0" spreadMethod="pad" gradientTransform="matrix(0.012500000186264515,0,0,0.017869999632239342,8.14999771118164,11.71249771118164)" gradientUnits="userSpaceOnUse" id="o">
   <stop stop-color="#fcead8" offset="0.22"/>
   <stop stop-color="#feccab" offset="1"/>
  </radialGradient>
  <radialGradient fy="0" fx="0" r="819.2" cy="0" cx="0" spreadMethod="pad" gradientTransform="matrix(0.00865000020712614,0.004360000137239695,-0.00965999998152256,0.019029999151825905,13.049999237060547,22.362499237060547)" gradientUnits="userSpaceOnUse" id="p">
   <stop stop-color="#ffecd9" offset="0.275"/>
   <stop stop-color="#feccab" offset="1"/>
  </radialGradient>
  <radialGradient fy="0" fx="210505" r="819.2" cy="0" cx="0" spreadMethod="pad" gradientTransform="matrix(0.023150000721216202,0,0,0.023150000721216202,-10.39999771118164,14.912498474121094)" gradientUnits="userSpaceOnUse" id="q">
   <stop stop-color="#feccab" offset="0.008"/>
   <stop stop-color="#ffecd9" offset="1"/>
  </radialGradient>
  <radialGradient fy="0" fx="0" r="819.2" cy="0" cx="0" spreadMethod="pad" gradientTransform="matrix(0.01408000010997057,0,0,0.01868000067770481,11.85000228881836,10.5625)" gradientUnits="userSpaceOnUse" id="r">
   <stop stop-color="#ffecd9" offset="0.318"/>
   <stop stop-color="#fdd9bf" offset="0.98"/>
  </radialGradient>
  <radialGradient fy="0" fx="0" r="819.2" cy="0" cx="0" spreadMethod="pad" gradientTransform="matrix(0.026750000193715096,0,0,0.016370000317692757,11.60000228881836,-1.3875007629394531)" gradientUnits="userSpaceOnUse" id="s">
   <stop stop-opacity="0.561" stop-color="#cc6849" offset="0"/>
   <stop stop-opacity="0.153" stop-color="#cf5c4c" offset="0.553"/>
   <stop stop-opacity="0" stop-color="#ffd0b3" offset="1"/>
  </radialGradient>
 </defs>
 <g>
  <title>background</title>
  <rect fill="none" id="canvas_background" height="402" width="582" y="-1" x="-1"/>
 </g>
 <g>
  <title>Layer 1</title>
  <g id="svg_1">
   <path id="svg_2" fill="#ffecd9" d="m17.500004,27.762501l-0.400002,0.400002l0.050003,0.049999l-0.950005,0.799999l-0.099998,0l-1.299995,0.900002l-0.550003,0.349998l-0.5,0.350002l-0.5,0.25l-1,0.299999l-0.75,0l-0.25,-0.100002l-0.5,-0.25l-0.099998,0l-1.400002,-0.899998l-0.050003,-0.049999l-0.049995,0l-0.050003,0.099998l0,-0.049999l-0.449997,-0.299999l-0.75,-0.550003l-0.5,-0.349998l-0.25,-0.200001l-0.25,-0.200001l-0.849998,-0.75l-0.150002,-0.25l-0.5,-0.449997l0,-0.050003q-0.75,-0.899998 -1.450001,-2.5l-0.049999,0l-0.550003,-1.25l-0.449997,-1.049999l-0.050003,-0.149998l0,-0.150002l-0.049999,-0.099998l-1,-2.100002l-1.049999,-3.549999q-0.849999,-2.799999 -0.25,-6.4q0.349999,-0.950001 0.849999,-1.800001q0.75,-1.449999 1.950001,-2.699999q3.500004,-3.75 8.500004,-3.700001q5,-0.049999 8.549995,3.700001q2.050003,2.25 3,4.449999q0.599998,3.900002 -0.75,8.399998l-1.299995,3.450001l-0.5,1.150002l-0.200005,0.5l-0.75,1.549999l-1.299995,2.25l-0.650002,0.650002l-0.300003,0.349998l-0.099998,-0.049999m-15.550003,-10.25l-0.150002,-0.200001l0.050003,0.25l0.099998,-0.049999m2.299999,6.549999l-0.200001,0.150002l0.200001,-0.099998l0,-0.050003m3.250004,4.5l-0.200005,-0.199997l-0.25,-0.200001l0.25,0.25l0.200005,0.149998"/>
   <path id="svg_3" fill="url(#a)" d="m1.850002,17.5625l-0.049999,-0.25l0.150002,0.200001l-0.100002,0.049999"/>
   <path id="svg_4" fill="#fed8b4" d="m4.25,24.112499l-0.200001,0.099998l0.200001,-0.149998l0,0.049999"/>
   <path id="svg_5" fill="#ffeddb" d="m7.299999,28.412498l-0.25,-0.25l0.25,0.200001l0.199997,0.200001l-0.199997,-0.150002"/>
   <path id="svg_6" fill="url(#b)" d="m17.149998,28.212498l-0.050003,-0.049999l0.400002,-0.400002l0.099998,0.049999l-0.449997,0.400002"/>
   <path id="svg_7" stroke="#fd9e66" stroke-miterlimit="3" stroke-linejoin="round" stroke-linecap="round" stroke-width="0.05" fill="none" d="m0.5,14.912498l1.200001,4.5"/>
   <path id="svg_8" fill="url(#c)" d="m20.700001,20.712498l-0.050003,-0.650002q0.800003,-1.950001 0.800003,-2.649998l-0.150002,-0.850002l-0.099998,-0.200001l-1.050003,-1.5l3.25,0.050003l-0.5,2.049999l-0.449997,1.5l-0.699997,2.049999l-0.950005,2.25l0.050003,-0.200001l-0.050003,0.200001l-0.25,0.5l0.150002,-2.549999"/>
   <path id="svg_9" fill="url(#d)" d="m13.750004,26.262501l0.050003,-0.349998l0.549995,-1.650002l0.599998,-1.200001l5.150002,-5.150002l0.5,-0.75l-0.049995,-0.149998l-0.150002,-0.400002l-0.599998,-1.75l0.349998,0l1.049995,1.5l0.100006,0.200001l0.149994,0.849998q0,0.700001 -0.799995,2.650002l-0.050003,-0.649998l-0.049995,0.149998l-1.900002,2.450001q-0.900002,0.850002 -1.599998,3.400002q-0.700005,2.5 -2.25,3.399998l-0.900002,1.050003l-0.800003,0.599998l-0.299995,0.150002l-0.650002,0.299999l-0.099998,0.049999l-0.950005,-0.299999l-0.150002,-0.049999l-0.649994,-0.300003l-0.600006,-0.75q0,-0.299999 0.5,-0.599998l0.450005,-0.200001l0.099998,0.200001l0.199997,0.299999l0.200005,0.400002q0.25,0.450001 0.75,0.450001l0.150002,0l0.699997,-0.5l0.5,-1.350002l0.150002,-0.549999l0.449997,-0.5l0.050003,-0.549999l-0.150002,-0.400002"/>
   <path id="svg_10" fill="url(#e)" d="m12.049999,30.962498l0.099998,-0.049999l0.650002,-0.300003l0.300003,-0.149998l0.799995,-0.600002l0.900002,-1.049999q1.550003,-0.899998 2.25,-3.399998q0.699997,-2.550003 1.599998,-3.400002l1.900002,-2.450001l0.050003,-0.149998l0.049995,0.649998l0.050003,0.650002l-0.150002,2.549999l-0.5,1.099998l-1.400002,2.300003l-0.599998,0.699997l-0.300003,0.350002l-0.5,0.399998l-1,0.800003l-0.099998,0.049999l-1.299995,0.899998l-0.550003,0.400002l-0.5,0.299999l-0.150002,0.100002l-0.349998,0.199997l-0.5,0.200001l-0.699997,0.150002l-0.050003,-0.25"/>
   <path id="svg_11" fill="url(#f)" d="m13.899998,26.662498l-0.050003,0.549999l-0.449997,0.5l-1.75,0.700001l-1,0.349998q-0.5,-1.099998 -0.849998,-3l-0.099998,-0.299999l3.199997,0.299999q0.599998,0.200001 0.849998,0.5l0.150002,0.400002"/>
   <path id="svg_12" fill="url(#g)" d="m12.100002,31.212498l-0.849998,-0.150002l-2.200005,-1.149998l0,-0.050003l-0.549995,-0.349998l-2.450005,-1.899998l-0.749996,-0.900002l0,-0.049999l-0.050003,-0.049999q-0.799999,-0.950001 -1.5,-2.549999l-0.549999,-1.25l-0.450001,-1.100002l-0.049999,-0.149998l-0.049999,-0.150002l-0.799999,-1.75q0.299999,-2.900002 1.399998,-4.050003l-0.149998,0.75l-0.100002,1l0.150002,1.550003l0.650002,1.699997l0.199997,0.350002l0.25,0.549999q1.100002,2.049999 2.200001,3q1.150002,0.950001 3.25,0.950001l0.099998,0.299999q0.350006,1.900002 0.850006,3l-0.450005,0.200001q-0.5,0.299999 -0.5,0.599998l0.599998,0.75l0.650002,0.299999l0.150002,0.050003l0.949997,0.299999l0.050003,0.25"/>
   <path id="svg_13" fill="url(#h)" d="m1.850002,19.662498l-0.399998,-0.849998q-0.75,-1.700001 -1,-3.900002l3.099999,-0.049999l-0.200001,0.399998l-0.100002,0.350002q-1.099998,1.149998 -1.399998,4.049999"/>
   <path id="svg_14" fill="url(#i)" d="m9.000004,23.3125l0.5,1.299999l0.050003,0.150002l0.149994,0.700001q-2.099998,0 -3.25,-0.950001q-1.099998,-0.950001 -2.199997,-3l-0.25,-0.549999l-0.200001,-0.350002l-0.649998,-1.700001l-0.150002,-1.549999l0.099998,-1l1.599998,1.849998l2.800003,2.849998q0.899994,0.900002 1.5,2.25"/>
   <path id="svg_15" fill="url(#j)" d="m20.399998,16.612499l0.150002,0.400002l0.049995,0.149998l-0.049995,-0.099998l-1.400002,-1.799999l-0.199997,-0.25l-0.100006,-0.150002l0.950005,0l0.599998,1.75"/>
   <path id="svg_16" fill="url(#k)" d="m20.100002,17.912498l-5.150002,5.150002l0.099998,-0.200001l0.800003,-1.049999l0.349998,-0.400002l0.050003,-0.049999l0.099998,-0.100002l0.150002,-0.199997l0.449997,-0.550003q1.75,-2.199997 2.099998,-3.849998l0.050003,-0.950001l-0.150002,-0.700001l0.200005,0.25l1.399994,1.800003l0.050003,0.099998l-0.5,0.75"/>
   <path id="svg_17" fill="url(#l)" d="m7.500004,21.0625l-2.800003,-2.850002l-1.599998,-1.850002l0.149998,-0.75l0.100002,-0.349998l0.199997,-0.400002l1.700001,0q-0.349998,1.200001 -0.099998,2.050003q0.349998,1 1.549999,2.25q1.199997,1.25 1.650002,2.299999l0.650002,1.849998q-0.600006,-1.349998 -1.5,-2.25"/>
   <path id="svg_18" stroke="#fd9e66" stroke-miterlimit="3" stroke-linejoin="round" stroke-linecap="round" stroke-width="0.05" fill="none" d="m20.549999,23.262501l0.25,-0.5l0.050003,-0.200001l-0.050003,0.200001l0.949997,-2.25l0.700005,-2.049999l0.449997,-1.5l0.5,-2.049999m-2.849998,8.349998l-0.5,1.100002l-1.400002,2.299999l-0.599998,0.700001l-0.300003,0.349998l-0.5,0.400002l-1,0.799999l-0.099998,0.049999l-1.299995,0.900002l-0.550003,0.399998l-0.5,0.299999l-0.150002,0.100002l-0.349998,0.200001l-0.5,0.199997l-0.699997,0.150002l-0.850006,-0.150002l-2.199997,-1.149998l0,-0.049999l-0.550003,-0.350002l-2.449997,-1.899998l-0.75,-0.900002l0,-0.049999l-0.049999,-0.049999q-0.800003,-0.950001 -1.5,-2.550003l-0.550003,-1.25l-0.449997,-1.099998l-0.050003,-0.150002l-0.049999,-0.149998l-0.799999,-1.75l-0.400002,-0.850002q-0.75,-1.699997 -1,-3.899998"/>
   <path id="svg_19" fill="url(#m)" d="m19.350002,13.3125l-0.150002,-0.349998l-0.049995,-0.200001l-0.300003,-0.950001l-0.25,-0.949999q-0.25,-1.35 -0.25,-2.85l-0.099998,-5.75l2.299995,1.949999l1.600006,1.950001l0.149994,0.200001q2,4.85 1.050003,8.499998l-3.199997,0l-0.800003,-1.549999"/>
   <path id="svg_20" fill="url(#n)" d="m18.350002,8.012499q0,1.5 0.25,2.85l0.25,0.950001l0.300003,0.949997l0.049995,0.200001l0.150002,0.350002l0.449997,1.549999l-0.949997,0l-0.300003,-0.299999q-0.75,-0.75 -1.099998,-2.150002q-0.449997,-1.4 -0.299995,-6.199999l0,-4.6l0.449997,0.25l0.650002,0.4l0.099998,5.75"/>
   <path id="svg_21" fill="url(#o)" d="m7.799999,6.362499q0,3 -0.599998,4.25l-0.25,0.4l-0.050003,0.050001l-2.099998,2.299999q-0.700001,0.5 -1.099998,1.200001l-0.150002,0.299999l-3.049999,0l-0.049999,-0.25q-0.5,-3.400002 0.700001,-7.35q0.599998,-1.35 1.549999,-2.6l0.450001,-0.449999q1.299999,-1.450001 2.899998,-2.35l0.900002,-0.450001l0.849998,4.950001"/>
   <path id="svg_22" fill="url(#p)" d="m20.149998,14.862499l-0.349998,0l-0.450005,-1.549999l0.800003,1.549999"/>
   <path id="svg_23" fill="url(#q)" d="m3.549999,14.862499l0.149998,-0.299999q0.400002,-0.700001 1.100002,-1.200001l2.099998,-2.299999q-0.849998,1.549999 -1.450001,3.200001l-0.199997,0.599998l-1.700001,0"/>
   <path id="svg_24" stroke="#fd9e66" stroke-miterlimit="3" stroke-linejoin="round" stroke-linecap="round" stroke-width="0.05" fill="none" d="m6.950001,1.412498l-0.900002,0.449999q-1.599998,0.900002 -2.899998,2.35l-0.450001,0.450001q-0.950001,1.25 -1.549999,2.6q-1.200001,3.949999 -0.700001,7.35l0.049999,0.25m17.750004,-12.6l2.299995,1.949999l1.599998,1.950001l0.150002,0.199999q2,4.85 1.050003,8.500002"/>
   <path id="svg_25" fill="url(#r)" d="m0.299999,13.762501l-0.049999,-1.549999l0,-0.599998q0.049999,-1.200003 0.25,-2.250002q0.399998,-1.75 1.25,-3.150002q0.699997,-1.449999 1.899998,-2.549999q3.400002,-3.65 8.300003,-3.549999q4.849998,-0.1 8.299995,3.549999q3.450005,3.549999 3.5,8.550001l-0.549995,3.599998l-0.75,-0.299999l0.099998,-1.399998q0,-2.800003 -1.25,-4.850002q-0.449997,-0.449999 -1.050003,-0.75q-1.149994,-0.699999 -2.649994,-0.75q-3.100006,-0.299999 -5.25,2.300001q-2.25,-2.6 -5.300003,-2.300001q-3.25,0.25 -4.950001,3q-0.449997,0.600002 -0.75,1.350002q-0.149998,1.049999 -0.149998,2.199997l0.25,2.5l0,0.100002l-0.450001,0q-0.450001,-1.200001 -0.700001,-3.150002"/>
   <path id="svg_26" stroke="#fd9e66" stroke-miterlimit="3" stroke-linejoin="round" stroke-linecap="round" stroke-width="0.05" fill="none" d="m23.200001,15.8125l0.550003,-3.599998q-0.050003,-5.000002 -3.5,-8.550001q-3.450005,-3.65 -8.300003,-3.549999q-4.900002,-0.1 -8.299999,3.549999q-1.200001,1.1 -1.900002,2.549999q-0.849998,1.400002 -1.25,3.150002q-0.200001,1.049999 -0.25,2.249998l0,0.600002l0.049999,1.549999q0.25,1.950001 0.700001,3.149998"/>
   <path id="svg_27" fill="url(#s)" d="m11.950001,0.112499l1.25,0q4.849998,0.450001 8.099998,4.85l0.200005,0.25q2.049995,2.699999 2.199997,6.4q-1.300003,2.400002 -4.699997,3.400002q-3.349998,1 -7.599998,1q-4.25,-0.050003 -7.400005,-1.800003q-3.149998,-1.799999 -3.25,-3.549999q-0.149998,-1.75 1,-4.049999q1.150002,-2.35 2.800003,-3.799999l0.099998,-0.1l0.049999,0q2.550003,-2.4 7.25,-2.6"/>
  </g>
 </g>
</svg>