<svg width="25" height="31" xmlns="http://www.w3.org/2000/svg"><defs><radialGradient fy="0" fx="0" r="819.2" cy="0" cx="0" spreadMethod="pad" gradientTransform="rotate(-.833 39.785 922.412) scale(.00293)" gradientUnits="userSpaceOnUse" id="a"><stop stop-color="#d3873d" offset="0"/><stop stop-color="#f5c9ab" offset=".992"/></radialGradient><radialGradient fy="0" fx="0" r="819.2" cy="0" cx="0" spreadMethod="pad" gradientTransform="matrix(-.00293 -.00008 -.00008 .00293 3.425 18.462)" gradientUnits="userSpaceOnUse" id="b"><stop stop-color="#d3873d" offset="0"/><stop stop-color="#f5c9ab" offset=".992"/></radialGradient><linearGradient y2=".541" y1=".481" x2=".672" x1="1.505" id="c"><stop stop-color="#fab89d" offset="0"/><stop stop-color="#ffecd9" offset="1"/></linearGradient><linearGradient y2=".355" y1=".356" x2="-.215" x1=".932" id="d"><stop stop-color="#fab89d" offset="0"/><stop stop-color="#ffecd9" offset="1"/></linearGradient><radialGradient fy="0" fx="0" r="819.2" cy="0" cx="0" spreadMethod="pad" gradientTransform="matrix(.01073 0 0 .01813 11.925 16.362)" gradientUnits="userSpaceOnUse" id="e"><stop stop-color="#ffecd9" offset=".533"/><stop stop-color="#fee6d2" offset="1"/></radialGradient><linearGradient y2=".92" y1=".842" x2=".569" x1="-.953" id="f"><stop stop-color="#fab89d" offset="0"/><stop stop-color="#ffecd9" offset="1"/></linearGradient><linearGradient y2=".34" y1=".346" x2=".783" x1="-.108" id="g"><stop stop-color="#fab89d" offset="0"/><stop stop-color="#ffecd9" offset="1"/></linearGradient><linearGradient y2=".578" y1=".706" x2=".887" x1="-.229" id="h"><stop stop-color="#fab89d" offset="0"/><stop stop-color="#ffecd9" offset="1"/></linearGradient><linearGradient y2=".159" y1=".478" x2=".652" x1=".148" id="i"><stop stop-color="#fab89d" offset="0"/><stop stop-color="#ffecd9" offset="1"/></linearGradient><linearGradient y2=".207" y1="1.672" x2=".463" x1=".463" id="j"><stop stop-color="#fab89d" offset="0"/><stop stop-color="#ffecd9" offset="1"/></linearGradient><linearGradient y2=".319" y1=".654" x2=".09" x1="1.867" id="k"><stop stop-color="#fab89d" offset="0"/><stop stop-color="#ffecd9" offset="1"/></linearGradient><radialGradient fy="0" fx="48" r="819.2" cy="0" cx="0" spreadMethod="pad" gradientTransform="matrix(-.0066 -.00005 -.00005 .0048 5.925 21.062)" gradientUnits="userSpaceOnUse" id="l"><stop stop-opacity=".624" stop-color="#ffbdbd" offset="0"/><stop stop-opacity=".314" stop-color="#ffd6cc" offset=".569"/><stop stop-opacity="0" stop-color="#ffeddb" offset="1"/></radialGradient><radialGradient fy="0" fx="48" r="819.2" cy="0" cx="0" spreadMethod="pad" gradientTransform="matrix(.0066 -.00005 .00005 .0048 18.675 21.212)" gradientUnits="userSpaceOnUse" id="m"><stop stop-opacity=".624" stop-color="#ffbdbd" offset="0"/><stop stop-opacity=".314" stop-color="#ffd6cc" offset=".569"/><stop stop-opacity="0" stop-color="#ffeddb" offset="1"/></radialGradient><radialGradient fy="0" fx="0" r="819.2" cy="0" cx="0" spreadMethod="pad" gradientTransform="matrix(.0102 -.00179 .00244 .0151 -.175 26.812)" gradientUnits="userSpaceOnUse" id="n"><stop stop-opacity=".682" stop-color="#db9883" offset="0"/><stop stop-opacity=".153" stop-color="#e8bcab" offset="1"/></radialGradient><radialGradient fy="0" fx="0" r="819.2" cy="0" cx="0" spreadMethod="pad" gradientTransform="matrix(.01324 0 0 .02216 27.875 18.212)" gradientUnits="userSpaceOnUse" id="o"><stop stop-opacity=".773" stop-color="#db9984" offset=".024"/><stop stop-opacity=".153" stop-color="#e8bcab" offset="1"/></radialGradient><radialGradient fy="0" fx="0" r="819.2" cy="0" cx="0" spreadMethod="pad" gradientTransform="matrix(.0111 0 0 .01074 18.925 3.412)" gradientUnits="userSpaceOnUse" id="p"><stop stop-opacity=".161" stop-color="#fff" offset="0"/><stop stop-opacity="0" stop-color="#fff" offset="1"/></radialGradient><linearGradient y2="1.215" y1="1.121" x2=".698" x1="-.3" id="q"><stop stop-color="#fab89d" offset="0"/><stop stop-color="#ffecd9" offset="1"/></linearGradient><radialGradient fy="0" fx="0" r="819.2" cy="0" cx="0" spreadMethod="pad" gradientTransform="matrix(.01073 0 0 .01813 11.925 16.362)" gradientUnits="userSpaceOnUse" id="r"><stop stop-color="#ffecd9" offset=".533"/><stop stop-color="#fee6d2" offset="1"/></radialGradient><linearGradient y2="1.227" y1="1.103" x2=".3" x1="1.248" id="s"><stop stop-color="#fab89d" offset="0"/><stop stop-color="#ffecd9" offset="1"/></linearGradient><linearGradient y2=".965" y1=".97" x2="-1.429" x1=".864" id="t"><stop stop-color="#fab89d" offset="0"/><stop stop-color="#ffecd9" offset="1"/></linearGradient><linearGradient y2=".945" y1=".96" x2="4.299" x1="-.592" id="u"><stop stop-color="#fab89d" offset="0"/><stop stop-color="#ffecd9" offset="1"/></linearGradient><linearGradient y2="23.827" y1="48.841" x2="-19.585" x1="34.918" id="v"><stop stop-color="#fab89d" offset="0"/><stop stop-color="#ffecd9" offset="1"/></linearGradient><radialGradient fy="0" fx="48" r="819.2" cy="0" cx="0" spreadMethod="pad" gradientTransform="matrix(-.0066 -.00005 -.00005 .0048 5.925 21.062)" gradientUnits="userSpaceOnUse" id="w"><stop stop-opacity=".624" stop-color="#ffbdbd" offset="0"/><stop stop-opacity=".314" stop-color="#ffd6cc" offset=".569"/><stop stop-opacity="0" stop-color="#ffeddb" offset="1"/></radialGradient><radialGradient fy="0" fx="48" r="819.2" cy="0" cx="0" spreadMethod="pad" gradientTransform="matrix(.0066 -.00005 .00005 .0048 18.675 21.212)" gradientUnits="userSpaceOnUse" id="x"><stop stop-opacity=".624" stop-color="#ffbdbd" offset="0"/><stop stop-opacity=".314" stop-color="#ffd6cc" offset=".569"/><stop stop-opacity="0" stop-color="#ffeddb" offset="1"/></radialGradient><radialGradient fy="0" fx="0" r="819.2" cy="0" cx="0" spreadMethod="pad" gradientTransform="matrix(.01324 0 0 .02216 27.875 18.212)" gradientUnits="userSpaceOnUse" id="y"><stop stop-opacity=".773" stop-color="#db9984" offset=".024"/><stop stop-opacity=".153" stop-color="#e8bcab" offset="1"/></radialGradient><radialGradient fy="0" fx="0" r="819.2" cy="0" cx="0" spreadMethod="pad" gradientTransform="matrix(.0102 -.00179 .00244 .0151 -.175 26.812)" gradientUnits="userSpaceOnUse" id="z"><stop stop-opacity=".682" stop-color="#db9883" offset="0"/><stop stop-opacity=".153" stop-color="#e8bcab" offset="1"/></radialGradient><radialGradient fy="0" fx="0" r="819.2" cy="0" cx="0" spreadMethod="pad" gradientTransform="matrix(.00919 0 0 .0089 18.575 7.112)" gradientUnits="userSpaceOnUse" id="A"><stop stop-opacity=".643" stop-color="#fff" offset="0"/><stop stop-opacity="0" stop-color="#fff" offset="1"/></radialGradient><radialGradient fy="0" fx="0" r="819.2" cy="0" cx="0" spreadMethod="pad" gradientTransform="matrix(.00952 0 0 .00922 5.725 7.512)" gradientUnits="userSpaceOnUse" id="B"><stop stop-opacity=".502" stop-color="#fff" offset="0"/><stop stop-opacity="0" stop-color="#fff" offset="1"/></radialGradient><radialGradient fy="0" fx="0" r="819.2" cy="0" cx="0" spreadMethod="pad" gradientTransform="matrix(.01064 0 0 .0103 12.125 3.512)" gradientUnits="userSpaceOnUse" id="C"><stop stop-opacity=".502" stop-color="#fff" offset="0"/><stop stop-opacity="0" stop-color="#fff" offset="1"/></radialGradient></defs><path fill="none" d="M-1-1h582v402H-1z"/><g><path fill="#efb087" d="M23.475 20.212l-.2.5-1.4.95-.35.25h-.15q-.15-.2 0-.45l.15-.75q-.1-.5.1-.65.35-.45.3-.85l.2-.9.25-.5q.3-.55.85-.6l.3.05q.75.4.3 1.4l-.15-1.25h-.3q-.8.25-1 1.2l-.1.3-.35 1.05q-.3.25-.25.5l.05.25.1.15-.4.85.7-.6.1-.05h.25l.6-.35.4-.7v.2"/><path fill="#f7d2bb" d="M23.825 18.663q.45-1-.3-1.4l-.3-.05q-.55.05-.85.6l-.25.5-.2.9q.05.4-.3.85-.2.15-.1.65l-.15.75q-.15.25 0 .45h.15l.35-.25 1.4-.95.2-.5v-.2l.1-.25.25-1.1m-2.2-2.1l.6-.25 1.55.15q.8.6.8 1.55l-.25 1.7-.5 1-.9 1.5-.75 1.2-1.45.15.9-7"/><path fill="url(#a)" d="M23.575 19.762l-.1.25-.4.7-.6.35h-.25l-.1.05-.7.6.4-.85-.1-.15-.05-.25q-.05-.25.25-.5l.35-1.05.1-.3q.2-.95 1-1.2h.3l.15 1.25-.25 1.1"/><path stroke="#fd9e66" stroke-miterlimit="3" stroke-linejoin="round" stroke-linecap="round" stroke-width=".05" fill="none" d="M20.725 23.562l1.45-.15.75-1.2.9-1.5.5-1 .25-1.7q0-.95-.8-1.55l-1.55-.15-.6.25"/><path fill="#efb087" d="M1.275 17.413h.3q.8.25 1 1.2l.1.3q.05.8.35 1.05l.25.5-.05.25-.1.15.4.85-.7-.6-.1-.05h-.25l-.6-.35-.4-.7v.2l.2.5 1.4.95.35.25h.15v-.45l-.15-.75-.1-.65-.3-.85-.2-.9-.25-.5q-.3-.55-.85-.6l-.3.05q-.75.4-.3 1.4l.15-1.25"/><path fill="#f7d2bb" d="M1.375 19.762q-.2-.5-.25-1.1-.45-1 .3-1.4l.3-.05q.55.05.85.6l.25.5.2.9.3.85.1.65.15.75v.45h-.15l-.35-.25-1.4-.95-.2-.5v-.2l-.1-.25m1.95-3.2l-.6-.25-1.55.15q-.8.6-.8 1.55-.05.85.25 1.7l.5 1 .9 1.5.75 1.2 1.45.15-.9-7"/><path fill="url(#b)" d="M1.475 20.012l.4.7.6.35h.25l.1.05.7.6-.4-.85.1-.15.05-.25-.25-.5q-.3-.25-.35-1.05l-.1-.3q-.2-.95-1-1.2h-.3l-.15 1.25q.05.6.25 1.1l.1.25"/><path stroke="#fd9e66" stroke-miterlimit="3" stroke-linejoin="round" stroke-linecap="round" stroke-width=".05" fill="none" d="M4.225 23.562l-1.45-.15-.75-1.2-.9-1.5-.5-1q-.3-.85-.25-1.7 0-.95.8-1.55l1.55-.15.6.25"/><path fill="url(#c)" d="M19.275 18.262l-.05-.1-.15-.15v-.2l-.65-3-.8-1.75q-.35-.6-.5-2.15l-.4-.25q-1.2-.65-1.4-2.2-.25-1.55-.25-3.35l-.1-3.15 1.9 1.05 1.75 1.5q.9.95 1.6 2.05l.1.15-.6 2.65-.5 2.5v.1q-.15.4-.05.85l.55 2.7.4 2.05.1.6v1.3l-.95-1.2m-5.3 12h-.1.1m-1 .25l-1.1.1h-.4l-.2-.05h.55l1.15-.05"/><path fill="url(#d)" d="M18.625 26.262l1.65-2.35.05-.1-.1-4.35v-1.3l-.1-.6-.4-2.05-.55-2.7q-.1-.45.05-.85v-.1l.5-2.5.6-2.65q1.85 3 2 6.95v.5l-.15 2.35-.2 1.65q-.95 5.8-2.25 7.5l-2 2 .9-1.4"/><path fill="url(#e)" d="M19.075 18.163q.2 1.75-.2 2.85-.5 1.1-2 .25l-.25.4-.2.3.6 1.55.1.45q-.3 1.55-.95 2.45l-2.1 2.3-.1.1q-.85.8-1.85.9l-.85-.25-1-.75-.1-.15-1-1.05-1-1.1q-.55-.6-.8-1.65l.3-1.25q.3-1.25.6-1.55l-.2-.3-.3-.4q-1.55.85-1.95-.25-.4-.95-.25-2.45v-.4l.05-.35q.2-2.05.65-3l.85-1.75.4-1.95.25-.25.7-.7.45-1.35.1-.9.2-2.1.1-1.6.1-2.15v-.1l1.7-.4h1.8l.8.05.25.05.2.05.3.1.5.15.1 3.15q0 1.8.25 3.35.2 1.55 1.4 2.2l.4.25q.15 1.55.5 2.15l.8 1.75.65 3v.35"/><path fill="url(#f)" d="M9.425 2.062l-.1 2.15-.1 1.6-.2 2.1-.1.9-.45 1.35-.7.7-.25.25-.4 1.95-.85 1.75q-.45.95-.65 3l-.05.35v.4l-1.1 1.05v-1.45l.5-2.65.55-2.7v-.4l-.05-.15v-.3l-.5-2.6-.5-2.55.05-.1q.55-1.2 1.4-2.2.85-1 1.85-1.65.8-.6 1.65-.9v.1"/><path fill="url(#g)" d="M4.375 22.962l-.7-1.45-.15-.9-.45-2.45-.2-1.65q-.65-5.65 1.6-9.7l.5 2.55.5 2.6v.3l.05.15v.4l-.55 2.7-.5 2.65v1.45l-.1 3.35m9.6 7.25v.05h-.1l.1-.05"/><path fill="url(#h)" d="M4.475 19.612l1.1-1.05q-.15 1.5.25 2.45.4 1.1 1.95.25l.3.4.2.3q-.3.3-.6 1.55l-.3 1.25-.05.5.3 1.1.5 1.15.2.4-.5-.1-1.2-1.3q-1.2-1.55-2.25-3.55l.1-3.35"/><path fill="url(#i)" d="M10.675 30.462l-1.35-.55-1.85-1.55-2.45-2.7q-.8-1.1-1.35-4.15l.7 1.45q1.05 2 2.25 3.55l1.2 1.3 2.85 2.65"/><path fill="url(#j)" d="M7.825 27.812l.5.1-.2-.4-.5-1.15-.3-1.1.05-.5q.25 1.05.8 1.65l1 1.1 1 1.05.1.15 1 .75.85.25q1-.1 1.85-.9l.1-.1 2.1-2.3q.65-.9.95-2.45l.25 1.3-.3 1.1-.45 1.1-.25.45-.2.25-.15.4-.2.35.9-.5.2-.1-.15.1-.95.6-.1.2-.95.7-.8.35v-.05l-.1.05h-.05l-.85.25-1.15.05h-.55l-.4-.05-.2-.05-2.85-2.65"/><path fill="url(#k)" d="M16.725 28.413l-.9.5.2-.35.15-.4.2-.25.25-.45.45-1.1.3-1.1-.25-1.3-.1-.45-.6-1.55.2-.3.25-.4q1.5.85 2-.25.4-1.1.2-2.85v-.15l.15.15.05.1.95 1.2.1 4.35-.05.1-1.65 2.35-.9 1.4-.4.35-.35.25-.25.15m-.9.6l.95-.6-1.05.8.1-.2"/><path stroke="#fd9e66" stroke-miterlimit="3" stroke-linejoin="round" stroke-linecap="round" stroke-width=".05" fill="none" d="M9.425 1.962q-.85.3-1.65.9-1 .65-1.85 1.65-.85 1-1.4 2.2l-.05.1m4.95-4.85l1.7-.4m2.6.05l.25.05.2.05.3.1m.5.15l1.9 1.05 1.75 1.5q.9.95 1.6 2.05l.1.15q1.85 3 2 6.95v.5l-.15 2.35-.2 1.65q-.95 5.8-2.25 7.5l-2 2-.4.35-.35.25-.05.05-.15.1-1.05.8-.95.7-.8.35h-.15l-.85.25-1.1.1h-.4l-.2-.05-.4-.05-.2-.05-1.35-.55-1.85-1.55-2.45-2.7q-.8-1.1-1.35-4.15l-.15-.9-.45-2.45-.2-1.65q-.65-5.65 1.6-9.7m9.25-5.2l-.8-.05h-1.8m3.85.4h-.05l-.45-.15"/><path fill="url(#l)" d="M3.025 17.312q1.3-1.1 3.1-1.05 2.2 0 3.75 1.7 1.5 1.65 1.5 3.9 0 2.3-1.55 3.9-1.2 1.2-2.7 1.55l-.6-.65q-1.4-1.35-2.1-2.75l-.1-.2-.3-.8-.05-.2-.1-.3-.1-.35-.25-1.4-.5-3.35"/><path fill="url(#m)" d="M21.075 20.812q-.2 1.65-.85 3.1l-.05.1q-.7 1.4-2 2.75l-.7.65q-1.5-.3-2.65-1.5-1.6-1.65-1.6-3.9 0-2.3 1.55-3.95 1.5-1.65 3.7-1.65 1.75-.1 3.2 1l-.6 3.4"/><path fill="url(#n)" d="M9.775 18.413q0 1.9-1.1 4.5l-1.1 2.8.6 2.3.5 1.4-1.2-1.05-2.45-2.7q-.9-1.3-1.55-5.05l-.6-4.1q-.5-4.3.65-7.7.3 3.75.95 6.75 1.2 4.8 2.55 4.8.65 0 1.3-.65l1.4-1.3h.05"/><path fill="url(#o)" d="M20.225 6.562q1.95 3.1 2.1 7.1v.5l-.15 2.35q-.95 7.2-2.5 9.15l-2.35 2.35-2.55 1.85-.8.4h-.15l-.4.1q3.8-3.65 4.05-4.55l-.05-.75q-.05-.55.4-1.5l1.55-3.25q.5-1.6.5-3.3l-.4-3.2q-.5-2.7-.5-3.55l.5-4.8.75 1.1"/><path fill="url(#p)" d="M13.075.362l.1.05q5.6 1.5 6.5 2.5 2.05 2.35 2.05 4.5 0 3.55-6.05 3.55l-1.7-.25q-.6-.45-1.15-2.05-.6-1.8-.5-2.75l-.05-2.2q0-2.05.8-3.35"/><path fill="url(#q)" d="M7.975 7.012q-1.8.15-3.05 1.15l-.15.1-.15-.7-.15-.75-.9 2q-.3.75-.45 1.6l-.2.95-.15 1.55-.05.5v1.65h-.05l-.25-.95-.15-.6-.2-1.25-.05-1.35v-.6l.05-.75.2-1.25.15-.6q.3-1.2.95-2.2.5-1.05 1.35-1.95l.35-.3q1.95-2.1 4.5-2.8l-.25 1.55.1-.05v.8l-.1 1.45-.1 1.6-.05.35-.05.75v.1h-1.15"/><path fill="url(#r)" d="M12.425.112l2.6.25v1.15l.05.5-.1-.05.05 1 .05 2.15.05 1.35.05.7v.1l-.05.05q-1.35.45-2.4 1.75-1.1-1.25-2.35-1.75l-1.2-.3h-.05v-.1l.05-.75.05-.35.1-1.6.1-1.45v-.8l-.1.05.25-1.55 2.85-.35"/><path fill="url(#s)" d="M22.325 14.262v-.7l-.25-2.15-.45-1.85-.85-2.1-.45-.75-.1.35-.15.7-.05.05-.15-.05q-1.1-.65-2.45-.75l-2.25.25v-.1l-.05-.7-.05-1.35-.05-2.15-.05-1 .1.05-.05-.5V.362l.85.25q1.75.65 3.3 2l.65.65.4.4 1.5 2.2.75 1.85q.4 1.5.45 3.2v.15l-.3 2.15-.25 1.1-.05-.05"/><path fill="url(#t)" d="M22.325 14.412l-.5-.4.05-.5.05-.8-.3-2.3-.85-2.05v-.05l-.55-.4-.2-.1.05-.05.15-.7.1-.35.45.75.85 2.1.45 1.85.25 2.15v.85"/><path fill="url(#u)" d="M2.775 13.762l.15 1.4v.1h-.15l-.05-.2v-1.65l.05.35m1.85-5.35l-.45.45-.6.8-.05.05-.4.7q.15-.85.45-1.6l.9-2 .15.75.15.7-.15.15"/><path fill="url(#v)" d="M19.075 18.163v-.15l.15.15h-.15"/><path stroke="#fd9e66" stroke-miterlimit="3" stroke-linejoin="round" stroke-linecap="round" stroke-width=".05" fill="none" d="M22.375 14.312l.25-1.1.3-2.15v-.15q-.05-1.7-.45-3.2l-.75-1.85-1.5-2.2-.4-.4-.65-.65q-1.55-1.35-3.3-2l-.85-.25-2.6-.25-2.85.35q-2.55.7-4.5 2.8l-.35.3q-.85.9-1.35 1.95-.65 1-.95 2.2l-.15.6-.2 1.25-.05.75v.6l.05 1.35.2 1.25.15.6.25.95"/><path fill="url(#w)" d="M3.025 17.312q1.3-1.1 3.1-1.05 2.2 0 3.75 1.7 1.5 1.65 1.5 3.9 0 2.3-1.55 3.9-1.2 1.2-2.7 1.55l-.6-.65q-1.4-1.35-2.1-2.75l-.1-.2-.3-.8-.05-.2-.1-.3-.1-.35-.25-1.4-.5-3.35"/><path fill="url(#x)" d="M21.075 20.812q-.2 1.65-.85 3.1l-.05.1q-.7 1.4-2 2.75l-.7.65q-1.5-.3-2.65-1.5-1.6-1.65-1.6-3.9 0-2.3 1.55-3.95 1.5-1.65 3.7-1.65 1.75-.1 3.2 1l-.6 3.4"/><path fill="url(#y)" d="M19.175 2.612l.65.65.4.4 1.5 2.2.75 1.85q.4 1.5.45 3.2l-.35 2.3-.2.95h-.05v.25l-.5-.4.05-.5.05-.8-.3-2.3-.85-2.05v-.05l-.55-.4-.2-.1-.15-.05-.6-.3q-.05-3.05-.95-5.5l.85.65"/><path fill="url(#z)" d="M2.425 7.712q.3-1.2.95-2.2.4-.85 1.05-1.55-.65 1.8-.85 4.1v1.1l.05.2v.2l-.05.1-.05.05-.4.7-.25.5-.1.75-.05 1.3v.45l.05.35.15 1.4v.1h-.15l-.05-.2-.45-1.55-.2-1.25-.05-1.35v-.6l.05-.75.2-1.25.15-.6"/><path fill="url(#A)" d="M21.975 13.312l.25-1.95q0-3.1-1.7-6-2.15-3.6-5.9-4.45h.45q3.4.55 5.55 3.5 1.9 2.55 1.9 5.15l-.5 3.75h-.05"/><path fill="url(#B)" d="M4.475 5.512q-1.7 2.85-1.7 5.55 0 1.7.5 2.9v.25h-.05q-.85-2.7-.85-4.9l.15-1.35q0-1 2.1-3.85 1.55-2.25 4.4-3.3h.05q-2.85 1.7-4.6 4.7"/><path fill="url(#C)" d="M18.825 2.462q1.05.85 1.85 2.2-.45 2.2-2.45 3.8-2.55 2-6.1 2.05-3.6-.05-6.15-2.05-2.25-1.85-2.5-4.35l1.05-.8 2.5-1.6q1.6-.95 3.2-1.35l2.2-.25 1.9.1 1.25.4 1.3.6q.8.3 1.95 1.25"/></g></svg>