<svg width="27" height="32" xmlns="http://www.w3.org/2000/svg">
 <defs>
  <radialGradient fy="0" fx="0" r="819.2" cy="0" cx="0" spreadMethod="pad" gradientTransform="matrix(-0.00471000000834465,-0.0006000000284984708,-0.0006900000153109431,0.004519999958574772,2.9999895095825195,18.25)" gradientUnits="userSpaceOnUse" id="a">
   <stop stop-color="#d7914a" offset="0"/>
   <stop stop-color="#f5c9ab" offset="0.62"/>
  </radialGradient>
  <radialGradient fy="0" fx="0" r="819.2" cy="0" cx="0" spreadMethod="pad" gradientTransform="matrix(0.00471000000834465,-0.0006000000284984708,0.0006900000153109431,0.004519999958574772,23.899991989135742,18.25)" gradientUnits="userSpaceOnUse" id="b">
   <stop stop-color="#d7914a" offset="0"/>
   <stop stop-color="#f5c9ab" offset="0.62"/>
  </radialGradient>
  <linearGradient y2="0.516419" y1="0.60324" x2="0.213003" x1="1.858425" id="c">
   <stop stop-color="#fab89d" offset="0"/>
   <stop stop-color="#ffecd9" offset="1"/>
  </linearGradient>
  <linearGradient y2="0.588533" y1="0.616873" x2="0.348091" x1="-0.020451" id="d">
   <stop stop-color="#fab89d" offset="0"/>
   <stop stop-color="#ffecd9" offset="1"/>
  </linearGradient>
  <radialGradient fy="0" fx="0" r="819.2" cy="0" cx="0" spreadMethod="pad" gradientTransform="matrix(0.007890000008046627,0,0,0.019500000402331352,12.69998836517334,15.199999809265137)" gradientUnits="userSpaceOnUse" id="e">
   <stop stop-color="#ffecd9" offset="0.533"/>
   <stop stop-color="#fee6d2" offset="1"/>
  </radialGradient>
  <linearGradient y2="0.520734" y1="0.54228" x2="-1.001394" x1="0.831859" id="f">
   <stop stop-color="#fab89d" offset="0"/>
   <stop stop-color="#ffecd9" offset="1"/>
  </linearGradient>
  <linearGradient y2="0.520658" y1="0.626261" x2="0.58955" x1="-0.755068" id="g">
   <stop stop-color="#fab89d" offset="0"/>
   <stop stop-color="#ffecd9" offset="1"/>
  </linearGradient>
  <linearGradient y2="0.339321" y1="1.358158" x2="0.699366" x1="0.001689" id="h">
   <stop stop-color="#fab89d" offset="0"/>
   <stop stop-color="#ffecd9" offset="1"/>
  </linearGradient>
  <radialGradient fy="0" fx="0" r="819.2" cy="0" cx="0" spreadMethod="pad" gradientTransform="matrix(0.009170000441372395,0,0,0.005810000002384186,20.349992752075195,26.350000381469727)" gradientUnits="userSpaceOnUse" id="i">
   <stop stop-opacity="0.153" stop-color="#c42929" offset="0"/>
   <stop stop-opacity="0" stop-color="#ffefea" offset="1"/>
  </radialGradient>
  <radialGradient fy="0" fx="0" r="819.2" cy="0" cx="0" spreadMethod="pad" gradientTransform="matrix(0.009720000438392162,0,0,0.005950000137090683,4.899988651275635,26.399999618530273)" gradientUnits="userSpaceOnUse" id="j">
   <stop stop-opacity="0.153" stop-color="#c42929" offset="0"/>
   <stop stop-opacity="0" stop-color="#ffefea" offset="1"/>
  </radialGradient>
  <radialGradient fy="0" fx="48" r="819.2" cy="0" cx="0" spreadMethod="pad" gradientTransform="matrix(0.014019999653100967,0.0011699999449774623,-0.00215000007301569,0.023509999737143517,26.149991989135742,21.549999237060547)" gradientUnits="userSpaceOnUse" id="k">
   <stop stop-opacity="0.451" stop-color="#f8a48f" offset="0"/>
   <stop stop-opacity="0.431" stop-color="#fbd0bf" offset="0.761"/>
   <stop stop-opacity="0" stop-color="#ffeddb" offset="1"/>
  </radialGradient>
  <radialGradient fy="0" fx="157" r="819.2" cy="0" cx="0" spreadMethod="pad" gradientTransform="matrix(0.004459999967366457,0.0024900001008063555,0.0028200000524520874,-0.004989999812096357,19.799991607666016,21.799999237060547)" gradientUnits="userSpaceOnUse" id="l">
   <stop stop-opacity="0.451" stop-color="#ff9c9c" offset="0"/>
   <stop stop-opacity="0.231" stop-color="#ffc1bf" offset="0.565"/>
   <stop stop-opacity="0" stop-color="#ffeddb" offset="1"/>
  </radialGradient>
  <radialGradient fy="0" fx="157" r="819.2" cy="0" cx="0" spreadMethod="pad" gradientTransform="matrix(-0.004459999967366457,0.0024900001008063555,-0.0028200000524520874,-0.004989999812096357,6.299988746643066,21.399999618530273)" gradientUnits="userSpaceOnUse" id="m">
   <stop stop-opacity="0.451" stop-color="#ff9c9c" offset="0"/>
   <stop stop-opacity="0.231" stop-color="#ffc1bf" offset="0.565"/>
   <stop stop-opacity="0" stop-color="#ffeddb" offset="1"/>
  </radialGradient>
  <radialGradient fy="0" fx="0" r="819.2" cy="0" cx="0" spreadMethod="pad" gradientTransform="matrix(0.01221999991685152,0,0,0.011839999817311764,20.649991989135742,3.799999952316284)" gradientUnits="userSpaceOnUse" id="n">
   <stop stop-opacity="0.161" stop-color="#fff" offset="0"/>
   <stop stop-opacity="0" stop-color="#fff" offset="1"/>
  </radialGradient>
  <linearGradient y2="1.035311" y1="1.077592" x2="2.845704" x1="0.192757" id="o">
   <stop stop-color="#fab89d" offset="0"/>
   <stop stop-color="#ffecd9" offset="1"/>
  </linearGradient>
  <linearGradient y2="1.457421" y1="1.661845" x2="1.766979" x1="-1.594566" id="p">
   <stop stop-color="#fab89d" offset="0"/>
   <stop stop-color="#ffecd9" offset="1"/>
  </linearGradient>
  <radialGradient fy="0" fx="0" r="819.2" cy="0" cx="0" spreadMethod="pad" gradientTransform="matrix(0.007890000008046627,0,0,0.019500000402331352,12.69998836517334,15.199999809265137)" gradientUnits="userSpaceOnUse" id="q">
   <stop stop-color="#ffecd9" offset="0.533"/>
   <stop stop-color="#fee6d2" offset="1"/>
  </radialGradient>
  <radialGradient fy="0" fx="0" r="819.2" cy="0" cx="0" spreadMethod="pad" gradientTransform="matrix(0.010130000300705433,0,0,0.009800000116229057,20.199993133544922,7.75)" gradientUnits="userSpaceOnUse" id="r">
   <stop stop-opacity="0.643" stop-color="#fff" offset="0"/>
   <stop stop-opacity="0" stop-color="#fff" offset="1"/>
  </radialGradient>
  <radialGradient fy="0" fx="0" r="819.2" cy="0" cx="0" spreadMethod="pad" gradientTransform="matrix(0.010499999858438969,0,0,0.010180000215768814,6.049988746643066,8.25)" gradientUnits="userSpaceOnUse" id="s">
   <stop stop-opacity="0.502" stop-color="#fff" offset="0"/>
   <stop stop-opacity="0" stop-color="#fff" offset="1"/>
  </radialGradient>
  <radialGradient fy="0" fx="0" r="819.2" cy="0" cx="0" spreadMethod="pad" gradientTransform="matrix(0.011730000376701355,0,0,0.011370000429451466,13.09998893737793,3.799999952316284)" gradientUnits="userSpaceOnUse" id="t">
   <stop stop-opacity="0.502" stop-color="#fff" offset="0"/>
   <stop stop-opacity="0" stop-color="#fff" offset="1"/>
  </radialGradient>
  <radialGradient fy="0" fx="0" r="819.2" cy="0" cx="0" spreadMethod="pad" gradientTransform="matrix(-0.0012499999720603228,-0.0022899999748915434,-0.0013599999947473407,0.0006600000197067857,7.19998836517334,25.5)" gradientUnits="userSpaceOnUse" id="u">
   <stop stop-opacity="0.341" stop-color="#ff7357" offset="0"/>
   <stop stop-opacity="0.031" stop-color="#ffecd9" offset="1"/>
  </radialGradient>
  <radialGradient fy="0" fx="0" r="819.2" cy="0" cx="0" spreadMethod="pad" gradientTransform="matrix(0.0012499999720603228,-0.0022899999748915434,0.0013599999947473407,0.0006600000197067857,19.649991989135742,25.450000762939453)" gradientUnits="userSpaceOnUse" id="v">
   <stop stop-opacity="0.341" stop-color="#ff7357" offset="0"/>
   <stop stop-opacity="0.031" stop-color="#ffecd9" offset="1"/>
  </radialGradient>
  <radialGradient fy="0" fx="0" r="819.2" cy="0" cx="0" spreadMethod="pad" gradientTransform="matrix(0.0012700000079348683,0.001500000013038516,-0.0028200000524520874,0.00215000007301569,8.549988746643066,22.350000381469727)" gradientUnits="userSpaceOnUse" id="w">
   <stop stop-opacity="0.353" stop-color="#fff" offset="0"/>
   <stop stop-opacity="0" stop-color="#ccc" offset="1"/>
  </radialGradient>
  <radialGradient fy="0" fx="0" r="819.2" cy="0" cx="0" spreadMethod="pad" gradientTransform="matrix(0.0010499999625608325,-0.0016799999866634607,0.002730000065639615,0.001560000004246831,17.649991989135742,21.950000762939453)" gradientUnits="userSpaceOnUse" id="x">
   <stop stop-opacity="0.353" stop-color="#fff" offset="0"/>
   <stop stop-opacity="0" stop-color="#ccc" offset="1"/>
  </radialGradient>
  <radialGradient fy="0" fx="0" r="819.2" cy="0" cx="0" spreadMethod="pad" gradientTransform="matrix(0.0012199999764561653,0.00139999995008111,-0.0031300000846385956,0.002469999948516488,8.44998836517334,24.299999237060547)" gradientUnits="userSpaceOnUse" id="y">
   <stop stop-opacity="0.78" stop-color="#facdbe" offset="0"/>
   <stop stop-opacity="0" stop-color="#fcdcc9" offset="1"/>
  </radialGradient>
  <radialGradient fy="0" fx="0" r="819.2" cy="0" cx="0" spreadMethod="pad" gradientTransform="matrix(-0.0010999999940395355,0.0012499999720603228,0.0031300000846385956,0.002469999948516488,17.599992752075195,24.049999237060547)" gradientUnits="userSpaceOnUse" id="z">
   <stop stop-opacity="0.78" stop-color="#facdbe" offset="0"/>
   <stop stop-opacity="0" stop-color="#fcdcc9" offset="1"/>
  </radialGradient>
 </defs>
 <g>
  <title>background</title>
  <rect fill="none" id="canvas_background" height="402" width="582" y="-1" x="-1"/>
 </g>
 <g>
  <title>Layer 1</title>
  <path id="svg_1" fill="#f7d2bb" d="m1.799989,21.4l0.2,0.25l0.6,0.9l0.55,0.25l0.5,0.1l0.35,-0.049999l0.1,-0.15l0.05,-0.900002l-0.5,-0.349998l0.05,-0.050001l-1.3,-1.199999l-0.700001,-0.400002l-0.2,-0.4l0,-0.049999l-0.25,-0.4l-0.15,-0.900002q-0.1,-1.799999 0.9,-1.9l0.6,0.050001l-0.5,-0.6l-0.35,-0.1l-0.4,-0.05q-0.6,0 -0.9,0.849999l-0.05,0.1l0,0.25l0.05,0.65q0,1.800001 1.05,2.6l1.55,1.299999l0.15,0.1q-0.75,-0.4 -1.2,-0.300001q-0.25,0 -0.2,0.200001l0,0.200001m-0.35,-5.599999l-0.85,0.8l0,0.299999l0,-0.15q-0.05,-0.75 0.75,-1.05l0.1,0.1m-0.7,2.099999l0.45,1.15q-0.25,-0.049999 -0.55,-0.799999l0,-0.35l0.1,0m2.150001,3.800001q0.7,-0.1 0.9,0.75l-0.2,0.099998l-0.2,0.050001l-0.5,-0.15l-0.25,-0.450001l-0.5,-0.6l0.75,0.300001"/>
  <path id="svg_2" fill="#f9c29f" d="m1.799989,21.200001q-0.05,-0.199999 0.2,-0.199999q0.45,-0.1 1.2,0.299999l-0.15,-0.1l-1.55,-1.299999q-1.05,-0.800001 -1.05,-2.600002l-0.05,-0.65l-0.15,0.949999l0.5,2.050001l0.6,1.15l0.45,0.6l0,-0.200001"/>
  <path id="svg_3" fill="#f9e1d2" d="m1.349989,15.7q-0.8,0.3 -0.75,1.05l0,0.15l0,-0.299999l0.85,-0.8l-0.1,-0.1m-0.7,2.2l0,0.35q0.3,0.75 0.55,0.799999l-0.45,-1.15l-0.1,0m1.5,3.5l0.5,0.6l0.25,0.450001l0.5,0.15l0.2,-0.050001l0.2,-0.099998q-0.2,-0.85 -0.9,-0.75l-0.75,-0.300001"/>
  <path id="svg_4" fill="url(#a)" d="m4.149989,21.799999l-0.2,-0.85l-0.35,-1.5l-0.4,-1.65l-0.6,-1.6l-0.6,-0.049999q-1,0.099998 -0.9,1.9l0.15,0.9l0.25,0.4l0,0.050001l0.2,0.4l0.700001,0.4l1.3,1.200001l-0.05,0.049999l0.5,0.35"/>
  <path id="svg_5" stroke="#fd9e66" stroke-miterlimit="3" stroke-linejoin="round" stroke-linecap="round" stroke-width="0.05" fill="none" d="m2.599989,16.200001l-0.5,-0.599999l-0.35,-0.1l-0.4,-0.05q-0.6,0 -0.9,0.85l-0.05,0.1l0,0.25l-0.15,0.949999l0.5,2.049999l0.6,1.15l0.45,0.6l0.2,0.25l0.6,0.9l0.55,0.25l0.5,0.1l0.35,-0.049999l0.1,-0.15l0.05,-0.900002l-0.2,-0.849998l-0.35,-1.5l-0.4,-1.650002l-0.6,-1.599998z"/>
  <path id="svg_6" fill="#f7d2bb" d="m25.099993,21.4l-0.200001,0.25l-0.6,0.9l-0.549999,0.25l-0.5,0.1l-0.35,-0.049999l-0.1,-0.15q-0.15,-0.25 -0.049999,-0.900002l0.5,-0.349998l-0.049999,-0.050001q0.599998,-0.85 1.299999,-1.199999l0.700001,-0.400002l0.199999,-0.4l0,-0.049999l0.25,-0.4l0.15,-0.900002q0.1,-1.799999 -0.9,-1.9l-0.6,0.050001l0.5,-0.6l0.35,-0.1l0.4,-0.05q0.6,0 0.900002,0.849999l0.049999,0.1l0,0.25l-0.049999,0.65q0,1.800001 -1.050001,2.6l-1.549999,1.299999l-0.15,0.1q0.75,-0.4 1.199999,-0.300001l0.200001,0.200001l0,0.200001m0.35,-5.599999l0.849998,0.8l0,0.299999l0,-0.15q0.050001,-0.75 -0.75,-1.05l-0.099998,0.1m0.699999,2.099999l-0.449999,1.15l0.549999,-0.800001l0,-0.349998l-0.1,0m-2.15,3.799999q-0.700001,-0.1 -0.9,0.75l0.199999,0.1l0.200001,0.049999l0.5,-0.15l0.25,-0.449999l0.5,-0.6l-0.75,0.300001"/>
  <path id="svg_7" fill="#f9c29f" d="m25.099993,21.200001l-0.200001,-0.199999q-0.449999,-0.1 -1.199999,0.299999l0.15,-0.1l1.549999,-1.299999q1.050001,-0.800001 1.050001,-2.6l0.049999,-0.65l0.15,0.949999l-0.5,2.050001l-0.6,1.15l-0.449999,0.6l0,-0.200001"/>
  <path id="svg_8" fill="#f9e1d2" d="m25.549992,15.7q0.799999,0.3 0.75,1.05l0,0.15l0,-0.299999l-0.85,-0.8l0.1,-0.1m0.699999,2.2l0,0.35l-0.549999,0.799999l0.450001,-1.15l0.099998,0m-1.5,3.5l-0.5,0.6l-0.25,0.450001l-0.5,0.15l-0.199999,-0.050001l-0.200001,-0.099998q0.200001,-0.85 0.9,-0.75l0.75,-0.300001"/>
  <path id="svg_9" fill="url(#b)" d="m22.749992,21.799999l0.200001,-0.85l0.349998,-1.5l0.400002,-1.65q0.15,-0.800001 0.599998,-1.6l0.6,-0.049999q1,0.099998 0.9,1.9l-0.15,0.9l-0.25,0.4l0,0.050001l-0.199999,0.4l-0.700001,0.4q-0.700001,0.35 -1.299999,1.200001l0.049999,0.049999l-0.5,0.35"/>
  <path id="svg_10" stroke="#fd9e66" stroke-miterlimit="3" stroke-linejoin="round" stroke-linecap="round" stroke-width="0.05" fill="none" d="m24.299992,16.200001l0.5,-0.599999l0.35,-0.1l0.4,-0.05q0.6,0 0.9,0.85l0.049999,0.1l0,0.25l0.150002,0.949999l-0.5,2.050001l-0.6,1.15l-0.450001,0.6l-0.199999,0.25l-0.6,0.9l-0.550001,0.25l-0.5,0.1l-0.349998,-0.050001l-0.1,-0.15q-0.15,-0.25 -0.050001,-0.9l0.200001,-0.85l0.35,-1.5l0.4,-1.65q0.15,-0.799999 0.6,-1.6z"/>
  <path id="svg_11" fill="#ffead8" d="m21.499992,8.9l0.1,0.200001l-0.1,0l0,-0.200001m-14.500004,17.1l0.2,0l-0.15,0.049999l-0.05,-0.049999"/>
  <path id="svg_12" fill="url(#c)" d="m15.599989,30.799999l0,-0.050001q-0.1,-0.699999 0.25,-1.549999l0.800003,-1.549999l0.75,-1.25q0.15,-0.650002 -1.350002,-1.75l-1.450001,-1.1l0.4,-0.35l0.55,-0.450001l1.100003,0.450001l1.5,0.35l0.1,0l0.85,-0.550001q0.449999,-1.699999 0.5,-3.449999l0,-0.85l-0.25,-1.75l-0.200001,-2.3l0.200001,-3.25l0.699999,-3l0.1,-0.5l0.800001,0.5l0.5,0.400001l0.049999,0.05l0,0.349999l0.1,1.55l0,1.6l-0.050001,1.650001l-0.15,1.6l-0.150002,1.35l-0.25,1.199999l-0.049999,0.550001q-0.35,2.799999 -0.450001,5.699999l-0.049999,2.200001l0,0.5l-0.65,1.049999l-1.35,1.200001l-1.799999,1.35l-0.25,0.15l-0.800004,0.449999l0,-0.5"/>
  <path id="svg_13" fill="url(#d)" d="m5.649989,26.1l-0.55,-1.200001q-0.5,-0.9 -0.7,-1.9l-1.049999,-4.6q-0.85,-3.599999 -0.3,-5.25q0.45,-1.349999 1.149999,-2.299999l0.35,-0.400001l0,1.900001l0.05,1.65l0.1,1.05l0.05,0.55l0.25,1.65l0.25,1.65l0.3,1.700001l0.15,2.9l-0.1,1.35q-0.05,0.699999 0.05,1.25m13.950004,-18.5l1.35,0.8l0.5,0.400001l0.099998,0.05l-0.049999,0.049999l0,-0.049999l-0.049999,-0.05l-0.5,-0.400001l-0.800001,-0.5l-0.549999,-0.3"/>
  <path id="svg_14" fill="url(#e)" d="m11.899988,30.85l-1.45,-0.5q-1.849999,-0.950001 -3.400001,-4.300001l0.15,-0.049999l2.35,-0.049999l0.099999,0l0.55,-0.85l0.3,-0.35l1.3,-1.1l-0.3,-0.299999l-0.45,-0.5l-1.400001,0.75l-1.349999,0.4l-0.7,-0.200001l-0.6,-0.699999l-0.6,-1.35q-0.4,-1.799999 -0.4,-3.35q0.1,-1.6 0.65,-3.45q0.55,-1.9 0.25,-3.849999l-0.149999,-1.55l-0.05,-1.150001l0,-0.65q1.75,-0.95 3.85,-1.5l2.7,-0.3l0.1,0l2.700001,0.3q1.750002,0.4 3.300003,1.2l0.25,0.15l0.549999,0.3l-0.1,0.5l-0.699999,3l-0.200001,3.25l0.200001,2.300001l0.25,1.75l0,0.849998q-0.050001,1.75 -0.5,3.450001l-0.85,0.549999l-0.1,0l-1.5,-0.349998l-1.100003,-0.450001l-0.55,0.450001l-0.4,0.349998l1.450001,1.1q1.500002,1.1 1.350002,1.75l-0.75,1.25l-0.800003,1.550001q-0.35,0.849998 -0.25,1.549999l0,0.049999l-3.700001,0.050001"/>
  <path id="svg_15" fill="url(#f)" d="m20.449993,26.6l0.050001,-2.200001q0.099998,-2.9 0.449999,-5.699999l0.050001,-0.549999l0.25,-1.200001l0.15,-1.35l0.15,-1.6l0.049999,-1.65l0,-1.6l-0.099998,-1.55l0,-0.099999l0.099998,0l-0.099998,-0.200001l0.049999,-0.049999l0.549999,0.5l0.25,0.5l2.1,3.400001q0.35,1.1 -0.25,3.099999l-1.049999,3.700001l-0.800001,2.849998l-0.65,1.700001l-0.049999,0.15l-1.200001,2.35l0,-0.5"/>
  <path id="svg_16" fill="url(#g)" d="m6.849988,26l-0.05,0.049999l-0.05,0.5q-0.05,0.400002 0.65,1.700001l0.4,0.6l-1.3,-1.200001q-0.6,-0.75 -0.85,-1.549999q-0.1,-0.550001 -0.05,-1.25l0.1,-1.35l-0.15,-2.9l-0.3,-1.700001l-0.25,-1.65l-0.25,-1.65l-0.05,-0.55l-0.1,-1.05l-0.05,-1.65l0,-1.900001l0.35,-1.2l0.1,-0.15l0.05,-0.25l0.1,-0.05l0.7,-0.55l0.65,-0.35l0.2,-0.15l0,0.65l0.05,1.150001l0.15,1.55q0.3,1.95 -0.25,3.849999q-0.55,1.849999 -0.65,3.45q0,1.550001 0.4,3.35l0.6,1.35l0.6,0.699999l0.7,0.200001l1.349999,-0.4l1.400001,-0.75l0.45,0.5l0.3,0.299999l-1.3,1.1l-0.3,0.35l-0.55,0.85l-0.099999,0l-2.35,0.049999l-0.35,0"/>
  <path id="svg_17" fill="url(#h)" d="m6.999989,26l0.05,0.049999q1.55,3.35 3.4,4.300001l1.45,0.5l3.700001,-0.050001l0,0.5q-1.1,0.6 -1.900001,0.650002l-1.8,-0.300001l-1.599999,-0.799999l-1.400001,-1.050001l-1.099999,-0.949999l-0.4,-0.6q-0.7,-1.299999 -0.65,-1.700001l0.05,-0.5l0.05,-0.049999l0.15,0"/>
  <path id="svg_18" stroke="#fd9e66" stroke-miterlimit="3" stroke-linejoin="round" stroke-linecap="round" stroke-width="0.05" fill="none" d="m21.549992,8.85l0.549999,0.5l0.25,0.5l2.1,3.4q0.35,1.100001 -0.25,3.1l-1.049999,3.699999l-0.800001,2.85l-0.65,1.700001l-0.049999,0.15l-1.200001,2.35l-0.65,1.049999l-1.35,1.200001l-1.799999,1.35l-0.25,0.15l-0.800004,0.449999q-1.1,0.6 -1.900001,0.650002l-1.8,-0.300001l-1.599999,-0.799999l-1.400001,-1.050001l-1.099999,-0.949999l-1.3,-1.200001q-0.6,-0.75 -0.85,-1.549999l-0.55,-1.200001q-0.5,-0.9 -0.7,-1.9l-1.049998,-4.6q-0.85,-3.599999 -0.3,-5.25q0.45,-1.349999 1.149999,-2.299999l0.35,-0.400001l0.35,-1.2l0.1,-0.15l0.05,-0.25l0.1,-0.05l0.7,-0.55l0.65,-0.35l0.2,-0.15q1.75,-0.95 3.85,-1.5l2.7,-0.3l0.1,0l2.700001,0.3q1.750002,0.4 3.300003,1.2l0.25,0.15l1.35,0.8l0.5,0.400001l0.099998,0.05z"/>
  <path id="svg_19" fill="url(#i)" d="m18.099993,24.75l0.699999,-0.15l2.1,-1.550001l-0.299999,1.050001l-0.300001,0.699999l-0.549999,0.550001l-1.200001,0.799999q-1.349998,1.15 -1.599998,2.450001q0.099998,-3.25 -0.450001,-4.15l-1.500004,-2.150002l1.050001,1l1.250002,1.200001l0.800001,0.25"/>
  <path id="svg_20" fill="url(#j)" d="m5.699988,23.049999q2,1.699999 2.8,1.699999l0.3,-0.049999q0.7,-0.200001 1.75,-1.4l1.05,-1l-1.5,2.15l-0.150001,0.299999q-0.45,0.900002 -0.599999,3.75q-0.55,-1.549999 -1.2,-2.099998l-1.300001,-1.049999q-0.45,-0.25 -0.85,-1.25l-0.3,-1.050001"/>
  <path id="svg_21" fill="url(#k)" d="m19.249992,7.35l0.9,0.55l0.800001,0.5l0.549999,0.450001l0.1,0.25q1.199999,3.4 1.199999,4.5l-0.15,3.35l-0.1,1.15l-0.049999,0.6l-1,4.15l-0.5,3.049999l-0.299999,0.9l-0.5,0.900002l-0.050001,0.049999l-1.15,1.200001l-1.450001,1.199999q-1.099998,0.9 -2.150003,1.35l-0.099999,0.1l-1.25,0.35l1.55,-1l0.450001,-0.85l-0.600001,-1.4q-0.5,-1 -0.15,-1.400002q0.349999,-0.299999 0.65,-0.4q0.200002,-0.15 -0.5,-1.5l-1,-1.65q-0.3,-0.35 0.1,-0.4l1.2,0.15l1.800003,0.65q1.050001,0.550001 2.1,-0.699999q0.550001,-2.35 0.6,-4.900002q0.1,-2.449999 -0.200001,-4.949999q-0.349998,-1.75 -0.799999,-6.25"/>
  <path id="svg_22" fill="url(#l)" d="m14.849989,23.450001q-0.400001,-1.799999 0.549999,-3.5q1.000004,-1.65 2.750004,-2.25q1.75,-0.549999 3.25,0.300001q1.5,0.799999 1.9,2.599998q0.35,1.800001 -0.65,3.450001q-0.949999,1.700001 -2.699999,2.299999l-3.25,-0.25q-1.450005,-0.9 -1.850004,-2.65"/>
  <path id="svg_23" fill="url(#m)" d="m6.149989,25.9q-1.7,-0.549999 -2.699999,-2.25q-1,-1.699999 -0.6,-3.449999q0.35,-1.800001 1.849999,-2.650002q1.5,-0.85 3.25,-0.25q1.75,0.549999 2.75,2.25q0.95,1.700001 0.55,3.450001q-0.4,1.799999 -1.85,2.700001l-3.25,0.199999"/>
  <path id="svg_24" fill="url(#n)" d="m21.499992,3.25q2.200001,2.55 2.200001,4.95q0,3.900001 -6.650002,3.900001l-1.900003,-0.3q-0.65,-0.45 -1.25,-2.25q-0.65,-1.95 -0.549999,-3l-0.05,-2.4q0,-2.3 0.9,-3.75l0.1,0.05q6.200004,1.65 7.200004,2.8"/>
  <path id="svg_25" fill="url(#o)" d="m4.549989,13.75l-1.299999,3.700001l0.05,0.6q-1,-2.7 -1.3,-4.6l-0.05,-1.5l0,-0.65l0.3,-2.200001q0.3,-1.650001 1.2,-3.05l0.25,-0.4l0.849999,8.100001"/>
  <path id="svg_26" fill="url(#p)" d="m6.599988,8.05l-2.05,5.7l-0.849999,-8.1q0.599999,-1.15 1.599999,-2.1l0.7,-0.7l0.6,5.2"/>
  <path id="svg_27" fill="#fac1ab" d="m23.849993,15.3l-0.050001,-0.150001l0,0.05l-1.949999,-2.95l0.6,-7.75q2.5,3.2 2.549999,7.45l-0.75,4.250001l-0.4,-0.9"/>
  <path id="svg_28" fill="#fcd6c3" d="m20.349993,10l-0.35,-7.85l1.6,1.4l0.85,0.95l-0.6,7.75l-1.5,-2.25"/>
  <path id="svg_29" fill="url(#q)" d="m5.999989,2.85q3.15,-2.85 7.45,-2.8q2.400001,-0.05 4.450004,0.9l1.200001,0.6l0.199999,6.85l-0.599998,-0.849999l-0.25,0q-2.700005,-0.1 -4.900004,1.8q-1.900001,-2.1 -4.900002,-1.8q-1.15,0.1 -2.049999,0.5l-0.600001,-5.2"/>
  <path id="svg_30" fill="#fde1ce" d="m19.299992,8.4l-0.200001,-6.85q0.450001,0.25 0.9,0.6l0.350002,7.85l-1.050001,-1.6"/>
  <path id="svg_31" stroke="#fd9e66" stroke-miterlimit="3" stroke-linejoin="round" stroke-linecap="round" stroke-width="0.05" fill="none" d="m24.249992,16.200001l0.75,-4.25q-0.049999,-4.250001 -2.549999,-7.450001m-18.750004,1.15q0.599999,-1.15 1.599999,-2.1l0.7,-0.7q3.15,-2.85 7.45,-2.8q2.400001,-0.05 4.450004,0.9l1.200001,0.6q0.449999,0.25 0.9,0.6l1.6,1.4l0.85,0.95m-18.750004,1.15l-0.25,0.4q-0.9,1.4 -1.2,3.05l-0.3,2.2l0,0.65l0.05,1.5q0.3,1.900001 1.3,4.599999"/>
  <path id="svg_32" fill="url(#r)" d="m23.999992,14.6l-0.049999,0l0.25,-2.150001q0,-3.4 -1.85,-6.65q-2.4,-3.95 -6.500004,-4.85l0.500004,0q3.75,0.6 6.15,3.85q2.1,2.8 2.1,5.65q0,1.3 -0.6,4.150001"/>
  <path id="svg_33" fill="url(#s)" d="m9.749989,0.85q-3.15,1.85 -5.1,5.15q-1.899999,3.15 -1.899999,6.1q0,1.9 0.55,3.2l0,0.3l-0.05,0q-0.9,-2.950001 -0.9,-5.400001l0.15,-1.5q0,-1.1 2.349999,-4.25q1.65,-2.5 4.85,-3.6l0.05,0"/>
  <path id="svg_34" fill="url(#t)" d="m20.499992,2.65q1.15,1 2.1,2.45q-0.550001,2.4 -2.75,4.15q-2.800001,2.3 -6.750004,2.3t-6.75,-2.3q-2.499999,-2 -2.749999,-4.8l1.149999,-0.85l2.75,-1.8q1.75,-1 3.55,-1.45l2.4,-0.3l2.05,0.15l1.450005,0.45l1.4,0.65q0.9,0.35 2.15,1.35"/>
  <path id="svg_35" fill="url(#u)" d="m6.499989,25.5l-0.05,-0.65q0.25,-0.35 -0.25,-0.950001q0.25,-0.049999 0.7,0.4q0.3,0.25 0.25,0.800001l-0.2,0.4l-0.45,0"/>
  <path id="svg_36" fill="url(#v)" d="m19.699993,25.049999q-0.049999,-0.550001 0.200001,-0.800001q0.449999,-0.449999 0.75,-0.4q-0.5,0.6 -0.300001,0.950001l-0.049999,0.65l-0.450001,0l-0.15,-0.4"/>
  <path id="svg_37" fill="url(#w)" d="m10.249989,21.65q-1.85,2.4 -2.55,2.4q-0.95,0 -1.2,-1.799999l0.3,-0.200001l1.3,-0.849998q0.9,-0.5 1.599999,-0.5l0.7,0.049999q0.200001,0.1 0.200001,0.5l-0.35,0.4"/>
  <path id="svg_38" fill="url(#x)" d="m15.299989,21.450001q-0.5,-0.85 1.400004,-0.799999q1.949999,0.049999 2.5,1.1l0,0.099998q0.199999,0.800001 -0.150002,1.400002l-1.5,0.15q-1.15,-0.450001 -1.950003,-1.550001l-0.3,-0.4"/>
  <path id="svg_39" fill="url(#y)" d="m10.749989,22.85q-0.7,0.25 -1.45,1.199999l-1,0.950001q-0.55,0 -1.1,-0.5q0.6,-0.6 1.5,-1.15q1.35,-0.85 1.8,-0.85l0.25,0.35"/>
  <path id="svg_40" fill="url(#z)" d="m15.799989,22.5q0.400002,0 1.750003,0.85l1.550001,1.15q-0.550001,0.5 -1.1,0.5l-1,-0.950001q-0.800001,-0.949999 -1.500004,-1.199999l0.3,-0.35"/>
 </g>
</svg>