<svg xmlns="http://www.w3.org/2000/svg" width="25" height="31"><g transform="translate(-58.1 -21.55)"><path d="M81.2 41.7l-.2.5-1.4.95-.35.25h-.15q-.15-.2 0-.45l.15-.75q-.1-.5.1-.65.35-.45.3-.85l.2-.9.25-.5q.3-.55.85-.6l.3.05q.75.4.3 1.4l-.15-1.25h-.3q-.8.25-1 1.2l-.1.3-.35 1.05q-.3.25-.25.5l.05.25.1.15-.4.85.7-.6.1-.05h.25l.6-.35.4-.7v.2" fill="#efb087"/><path d="M81.55 40.15q.45-1-.3-1.4l-.3-.05q-.55.05-.85.6l-.25.5-.2.9q.05.4-.3.85-.2.15-.1.65l-.15.75q-.15.25 0 .45h.15l.35-.25 1.4-.95.2-.5v-.2l.1-.25.25-1.1m-2.2-2.1l.6-.25 1.55.15q.8.6.8 1.55l-.25 1.7-.5 1-.9 1.5-.75 1.2-1.45.15.9-7" fill="#f7d2bb"/><radialGradient id="a" gradientUnits="userSpaceOnUse" gradientTransform="rotate(-.833 1546.586 -3037.242) scale(.00293)" spreadMethod="pad" cx="0" cy="0" r="819.2" fx="0" fy="0"><stop offset="0" stop-color="#d3873d"/><stop offset=".992" stop-color="#f5c9ab"/></radialGradient><path d="M81.3 41.25l-.1.25-.4.7-.6.35h-.25l-.1.05-.7.6.4-.85-.1-.15-.05-.25q-.05-.25.25-.5L80 40.4l.1-.3q.2-.95 1-1.2h.3l.15 1.25-.25 1.1" fill="url(#a)"/><path d="M78.45 45.05l1.45-.15.75-1.2.9-1.5.5-1 .25-1.7q0-.95-.8-1.55l-1.55-.15-.6.25" fill="none" stroke-width=".05" stroke-linecap="round" stroke-linejoin="round" stroke-miterlimit="3" stroke="#fd9e66"/><path d="M59 38.9h.3q.8.25 1 1.2l.1.3q.05.8.35 1.05l.25.5-.05.25-.1.15.4.85-.7-.6-.1-.05h-.25l-.6-.35-.4-.7v.2l.2.5 1.4.95.35.25h.15v-.45l-.15-.75-.1-.65-.3-.85-.2-.9-.25-.5q-.3-.55-.85-.6l-.3.05q-.75.4-.3 1.4L59 38.9" fill="#efb087"/><path d="M59.1 41.25q-.2-.5-.25-1.1-.45-1 .3-1.4l.3-.05q.55.05.85.6l.25.5.2.9.3.85.1.65.15.75v.45h-.15l-.35-.25-1.4-.95-.2-.5v-.2l-.1-.25m1.95-3.2l-.6-.25-1.55.15q-.8.6-.8 1.55-.05.85.25 1.7l.5 1 .9 1.5.75 1.2 1.45.15-.9-7" fill="#f7d2bb"/><radialGradient id="b" gradientUnits="userSpaceOnUse" gradientTransform="matrix(-.00293 -.00008 -.00008 .00293 61.15 39.95)" spreadMethod="pad" cx="0" cy="0" r="819.2" fx="0" fy="0"><stop offset="0" stop-color="#d3873d"/><stop offset=".992" stop-color="#f5c9ab"/></radialGradient><path d="M59.2 41.5l.4.7.6.35h.25l.1.05.7.6-.4-.85.1-.15.05-.25-.25-.5q-.3-.25-.35-1.05l-.1-.3q-.2-.95-1-1.2H59l-.15 1.25q.05.6.25 1.1l.1.25" fill="url(#b)"/><path d="M61.95 45.05l-1.45-.15-.75-1.2-.9-1.5-.5-1q-.3-.85-.25-1.7 0-.95.8-1.55l1.55-.15.6.25" fill="none" stroke-width=".05" stroke-linecap="round" stroke-linejoin="round" stroke-miterlimit="3" stroke="#fd9e66"/><linearGradient id="c" gradientUnits="userSpaceOnUse" gradientTransform="matrix(-.0046 .00105 -.00365 -.01736 78.85 38.1)" x1="-819.2" x2="819.2"><stop offset="0" stop-color="#fab89d"/><stop offset="1" stop-color="#ffecd9"/></linearGradient><path d="M77 39.75l-.05-.1-.15-.15v-.2l-.65-3-.8-1.75q-.35-.6-.5-2.15l-.4-.25q-1.2-.65-1.4-2.2-.25-1.55-.25-3.35l-.1-3.15 1.9 1.05 1.75 1.5q.9.95 1.6 2.05l.1.15-.6 2.65-.5 2.5v.1q-.15.4-.05.85l.55 2.7.4 2.05.1.6v1.3l-.95-1.2m-5.3 12h-.1.1m-1 .25l-1.1.1h-.4l-.2-.05h.55L70.7 52" fill="url(#c)"/><linearGradient id="d" gradientUnits="userSpaceOnUse" gradientTransform="matrix(-.00322 -.00002 .00002 -.01248 77.1 35.65)" x1="-819.2" x2="819.2"><stop offset="0" stop-color="#fab89d"/><stop offset="1" stop-color="#ffecd9"/></linearGradient><path d="M76.35 47.75L78 45.4l.05-.1-.1-4.35v-1.3l-.1-.6-.4-2.05-.55-2.7q-.1-.45.05-.85v-.1l.5-2.5.6-2.65q1.85 3 2 6.95v.5L79.9 38l-.2 1.65q-.95 5.8-2.25 7.5l-2 2 .9-1.4" fill="url(#d)"/><radialGradient id="e" gradientUnits="userSpaceOnUse" gradientTransform="matrix(.01073 0 0 .01813 69.65 37.85)" spreadMethod="pad" cx="0" cy="0" r="819.2" fx="0" fy="0"><stop offset=".533" stop-color="#ffecd9"/><stop offset="1" stop-color="#fee6d2"/></radialGradient><path d="M76.8 39.65q.2 1.75-.2 2.85-.5 1.1-2 .25l-.25.4-.2.3.6 1.55.1.45q-.3 1.55-.95 2.45l-2.1 2.3-.1.1q-.85.8-1.85.9l-.85-.25-1-.75-.1-.15-1-1.05-1-1.1q-.55-.6-.8-1.65l.3-1.25q.3-1.25.6-1.55l-.2-.3-.3-.4q-1.55.85-1.95-.25-.4-.95-.25-2.45v-.4l.05-.35q.2-2.05.65-3l.85-1.75.4-1.95.25-.25.7-.7.45-1.35.1-.9.2-2.1.1-1.6.1-2.15v-.1l1.7-.4h1.8l.8.05.25.05.2.05.3.1.5.15.1 3.15q0 1.8.25 3.35.2 1.55 1.4 2.2l.4.25q.15 1.55.5 2.15l.8 1.75.65 3v.35" fill="url(#e)"/><linearGradient id="f" gradientUnits="userSpaceOnUse" gradientTransform="matrix(.0046 .00084 -.00288 .01701 61.25 39)" x1="-819.2" x2="819.2"><stop offset="0" stop-color="#fab89d"/><stop offset="1" stop-color="#ffecd9"/></linearGradient><path d="M67.15 23.55l-.1 2.15-.1 1.6-.2 2.1-.1.9-.45 1.35-.7.7-.25.25-.4 1.95L64 36.3q-.45.95-.65 3l-.05.35v.4l-1.1 1.05v-1.45l.5-2.65.55-2.7v-.4l-.05-.15v-.3l-.5-2.6-.5-2.55.05-.1q.55-1.2 1.4-2.2.85-1 1.85-1.65.8-.6 1.65-.9v.1" fill="url(#f)"/><linearGradient id="g" gradientUnits="userSpaceOnUse" gradientTransform="matrix(.00612 -.00008 .00012 .01183 64.25 36.35)" x1="-819.2" x2="819.2"><stop offset="0" stop-color="#fab89d"/><stop offset="1" stop-color="#ffecd9"/></linearGradient><path d="M62.1 44.45L61.4 43l-.15-.9-.45-2.45-.2-1.65q-.65-5.65 1.6-9.7l.5 2.55.5 2.6v.3l.05.15v.4L62.7 37l-.5 2.65v1.45l-.1 3.35m9.6 7.25v.05h-.1l.1-.05" fill="url(#g)"/><linearGradient id="h" gradientUnits="userSpaceOnUse" gradientTransform="matrix(.00269 -.00073 .00154 .00616 63.4 46.05)" x1="-819.2" x2="819.2"><stop offset="0" stop-color="#fab89d"/><stop offset="1" stop-color="#ffecd9"/></linearGradient><path d="M62.2 41.1l1.1-1.05q-.15 1.5.25 2.45.4 1.1 1.95.25l.3.4.2.3q-.3.3-.6 1.55l-.3 1.25-.05.5.3 1.1.5 1.15.2.4-.5-.1-1.2-1.3q-1.2-1.55-2.25-3.55l.1-3.35" fill="url(#h)"/><linearGradient id="i" gradientUnits="userSpaceOnUse" gradientTransform="matrix(.00215 -.00174 .00284 .0037 64.2 45.85)" x1="-819.2" x2="819.2"><stop offset="0" stop-color="#fab89d"/><stop offset="1" stop-color="#ffecd9"/></linearGradient><path d="M68.4 51.95l-1.35-.55-1.85-1.55-2.45-2.7q-.8-1.1-1.35-4.15l.7 1.45q1.05 2 2.25 3.55l1.2 1.3 2.85 2.65" fill="url(#i)"/><linearGradient id="j" gradientUnits="userSpaceOnUse" gradientTransform="matrix(0 -.0059 .00612 0 69.7 51.65)" x1="-819.2" x2="819.2"><stop offset="0" stop-color="#fab89d"/><stop offset="1" stop-color="#ffecd9"/></linearGradient><path d="M65.55 49.3l.5.1-.2-.4-.5-1.15-.3-1.1.05-.5q.25 1.05.8 1.65l1 1.1 1 1.05.1.15 1 .75.85.25q1-.1 1.85-.9l.1-.1 2.1-2.3q.65-.9.95-2.45l.25 1.3-.3 1.1-.45 1.1-.25.45-.2.25-.15.4-.2.35.9-.5.2-.1-.15.1-.95.6-.1.2-.95.7-.8.35v-.05l-.1.05h-.05l-.85.25-1.15.05H69l-.4-.05-.2-.05-2.85-2.65" fill="url(#j)"/><linearGradient id="k" gradientUnits="userSpaceOnUse" gradientTransform="matrix(-.00499 -.00229 .00266 -.00623 77.95 44.95)" x1="-819.2" x2="819.2"><stop offset="0" stop-color="#fab89d"/><stop offset="1" stop-color="#ffecd9"/></linearGradient><path d="M74.45 49.9l-.9.5.2-.35.15-.4.2-.25.25-.45.45-1.1.3-1.1-.25-1.3-.1-.45-.6-1.55.2-.3.25-.4q1.5.85 2-.25.4-1.1.2-2.85v-.15l.15.15.05.1.95 1.2.1 4.35-.05.1-1.65 2.35-.9 1.4-.4.35-.35.25-.25.15m-.9.6l.95-.6-1.05.8.1-.2" fill="url(#k)"/><path d="M67.15 23.45q-.85.3-1.65.9-1 .65-1.85 1.65-.85 1-1.4 2.2l-.05.1m4.95-4.85l1.7-.4m2.6.05l.25.05.2.05.3.1m.5.15l1.9 1.05 1.75 1.5q.9.95 1.6 2.05l.1.15q1.85 3 2 6.95v.5L79.9 38l-.2 1.65q-.95 5.8-2.25 7.5l-2 2-.4.35-.35.25-.05.05-.15.1-1.05.8-.95.7-.8.35h-.15l-.85.25-1.1.1h-.4l-.2-.05-.4-.05-.2-.05-1.35-.55-1.85-1.55-2.45-2.7q-.8-1.1-1.35-4.15l-.15-.9-.45-2.45-.2-1.65q-.65-5.65 1.6-9.7m9.25-5.2l-.8-.05h-1.8m3.85.4h-.05l-.45-.15" fill="none" stroke-width=".05" stroke-linecap="round" stroke-linejoin="round" stroke-miterlimit="3" stroke="#fd9e66"/><radialGradient id="l" gradientUnits="userSpaceOnUse" gradientTransform="matrix(-.0066 -.00005 -.00005 .0048 63.65 42.55)" spreadMethod="pad" cx="0" cy="0" r="819.2" fx="48" fy="0"><stop offset="0" stop-color="#ffbdbd" stop-opacity=".624"/><stop offset=".569" stop-color="#ffd6cc" stop-opacity=".314"/><stop offset="1" stop-color="#ffeddb" stop-opacity="0"/></radialGradient><path d="M60.75 38.8q1.3-1.1 3.1-1.05 2.2 0 3.75 1.7 1.5 1.65 1.5 3.9 0 2.3-1.55 3.9-1.2 1.2-2.7 1.55l-.6-.65q-1.4-1.35-2.1-2.75l-.1-.2-.3-.8-.05-.2-.1-.3-.1-.35-.25-1.4-.5-3.35" fill="url(#l)"/><radialGradient id="m" gradientUnits="userSpaceOnUse" gradientTransform="matrix(.0066 -.00005 .00005 .0048 76.4 42.7)" spreadMethod="pad" cx="0" cy="0" r="819.2" fx="48" fy="0"><stop offset="0" stop-color="#ffbdbd" stop-opacity=".624"/><stop offset=".569" stop-color="#ffd6cc" stop-opacity=".314"/><stop offset="1" stop-color="#ffeddb" stop-opacity="0"/></radialGradient><path d="M78.8 42.3q-.2 1.65-.85 3.1l-.05.1q-.7 1.4-2 2.75l-.7.65q-1.5-.3-2.65-1.5-1.6-1.65-1.6-3.9 0-2.3 1.55-3.95 1.5-1.65 3.7-1.65 1.75-.1 3.2 1l-.6 3.4" fill="url(#m)"/><radialGradient id="n" gradientUnits="userSpaceOnUse" gradientTransform="matrix(.0102 -.00179 .00244 .0151 57.55 48.3)" spreadMethod="pad" cx="0" cy="0" r="819.2" fx="0" fy="0"><stop offset="0" stop-color="#db9883" stop-opacity=".682"/><stop offset="1" stop-color="#e8bcab" stop-opacity=".153"/></radialGradient><path d="M67.5 39.9q0 1.9-1.1 4.5l-1.1 2.8.6 2.3.5 1.4-1.2-1.05-2.45-2.7q-.9-1.3-1.55-5.05l-.6-4.1q-.5-4.3.65-7.7.3 3.75.95 6.75 1.2 4.8 2.55 4.8.65 0 1.3-.65l1.4-1.3h.05" fill="url(#n)"/><radialGradient id="o" gradientUnits="userSpaceOnUse" gradientTransform="matrix(.01324 0 0 .02216 85.6 39.7)" spreadMethod="pad" cx="0" cy="0" r="819.2" fx="0" fy="0"><stop offset=".024" stop-color="#db9984" stop-opacity=".773"/><stop offset="1" stop-color="#e8bcab" stop-opacity=".153"/></radialGradient><path d="M77.95 28.05q1.95 3.1 2.1 7.1v.5L79.9 38q-.95 7.2-2.5 9.15l-2.35 2.35-2.55 1.85-.8.4h-.15l-.4.1q3.8-3.65 4.05-4.55l-.05-.75q-.05-.55.4-1.5l1.55-3.25q.5-1.6.5-3.3l-.4-3.2q-.5-2.7-.5-3.55l.5-4.8.75 1.1" fill="url(#o)"/><radialGradient id="p" gradientUnits="userSpaceOnUse" gradientTransform="matrix(.0111 0 0 .01074 76.65 24.9)" spreadMethod="pad" cx="0" cy="0" r="819.2" fx="0" fy="0"><stop offset="0" stop-color="#fff" stop-opacity=".161"/><stop offset="1" stop-color="#fff" stop-opacity="0"/></radialGradient><path d="M70.8 21.85l.1.05q5.6 1.5 6.5 2.5 2.05 2.35 2.05 4.5 0 3.55-6.05 3.55l-1.7-.25q-.6-.45-1.15-2.05-.6-1.8-.5-2.75L70 25.2q0-2.05.8-3.35" fill="url(#p)"/><linearGradient id="q" gradientUnits="userSpaceOnUse" gradientTransform="matrix(.0046 .00084 -.00288 .01701 61.25 39)" x1="-819.2" x2="819.2"><stop offset="0" stop-color="#fab89d"/><stop offset="1" stop-color="#ffecd9"/></linearGradient><path d="M65.7 28.5q-1.8.15-3.05 1.15l-.15.1-.15-.7-.15-.75-.9 2q-.3.75-.45 1.6l-.2.95-.15 1.55-.05.5v1.65h-.05l-.25-.95L60 35l-.2-1.25-.05-1.35v-.6l.05-.75.2-1.25.15-.6q.3-1.2.95-2.2.5-1.05 1.35-1.95l.35-.3q1.95-2.1 4.5-2.8l-.25 1.55.1-.05v.8l-.1 1.45-.1 1.6-.05.35-.05.75v.1H65.7" fill="url(#q)"/><radialGradient id="r" gradientUnits="userSpaceOnUse" gradientTransform="matrix(.01073 0 0 .01813 69.65 37.85)" spreadMethod="pad" cx="0" cy="0" r="819.2" fx="0" fy="0"><stop offset=".533" stop-color="#ffecd9"/><stop offset="1" stop-color="#fee6d2"/></radialGradient><path d="M70.15 21.6l2.6.25V23l.05.5-.1-.05.05 1 .05 2.15.05 1.35.05.7v.1l-.05.05q-1.35.45-2.4 1.75-1.1-1.25-2.35-1.75l-1.2-.3h-.05v-.1l.05-.75.05-.35.1-1.6.1-1.45v-.8l-.1.05.25-1.55 2.85-.35" fill="url(#r)"/><linearGradient id="s" gradientUnits="userSpaceOnUse" gradientTransform="matrix(-.0046 .00105 -.00365 -.01736 78.85 38.1)" x1="-819.2" x2="819.2"><stop offset="0" stop-color="#fab89d"/><stop offset="1" stop-color="#ffecd9"/></linearGradient><path d="M80.05 35.75v-.7l-.25-2.15-.45-1.85-.85-2.1-.45-.75-.1.35-.15.7-.05.05-.15-.05q-1.1-.65-2.45-.75l-2.25.25v-.1l-.05-.7-.05-1.35-.05-2.15-.05-1 .1.05-.05-.5v-1.15l.85.25q1.75.65 3.3 2l.65.65.4.4 1.5 2.2.75 1.85q.4 1.5.45 3.2v.15l-.3 2.15-.25 1.1-.05-.05" fill="url(#s)"/><linearGradient id="t" gradientUnits="userSpaceOnUse" gradientTransform="matrix(-.00322 -.00002 .00002 -.01248 77.1 35.65)" x1="-819.2" x2="819.2"><stop offset="0" stop-color="#fab89d"/><stop offset="1" stop-color="#ffecd9"/></linearGradient><path d="M80.05 35.9l-.5-.4.05-.5.05-.8-.3-2.3-.85-2.05v-.05l-.55-.4-.2-.1.05-.05.15-.7.1-.35.45.75.85 2.1.45 1.85.25 2.15v.85" fill="url(#t)"/><linearGradient id="u" gradientUnits="userSpaceOnUse" gradientTransform="matrix(.00612 -.00008 .00012 .01183 64.25 36.35)" x1="-819.2" x2="819.2"><stop offset="0" stop-color="#fab89d"/><stop offset="1" stop-color="#ffecd9"/></linearGradient><path d="M60.5 35.25l.15 1.4v.1h-.15l-.05-.2V34.9l.05.35m1.85-5.35l-.45.45-.6.8-.05.05-.4.7q.15-.85.45-1.6l.9-2 .15.75.15.7-.15.15" fill="url(#u)"/><linearGradient id="v" gradientUnits="userSpaceOnUse" gradientTransform="matrix(-.00499 -.00229 .00266 -.00623 77.95 44.95)" x1="-819.2" x2="819.2"><stop offset="0" stop-color="#fab89d"/><stop offset="1" stop-color="#ffecd9"/></linearGradient><path d="M76.8 39.65v-.15l.15.15h-.15" fill="url(#v)"/><path d="M80.1 35.8l.25-1.1.3-2.15v-.15q-.05-1.7-.45-3.2l-.75-1.85-1.5-2.2-.4-.4-.65-.65q-1.55-1.35-3.3-2l-.85-.25-2.6-.25-2.85.35q-2.55.7-4.5 2.8l-.35.3q-.85.9-1.35 1.95-.65 1-.95 2.2l-.15.6-.2 1.25-.05.75v.6l.05 1.35L60 35l.15.6.25.95" fill="none" stroke-width=".05" stroke-linecap="round" stroke-linejoin="round" stroke-miterlimit="3" stroke="#fd9e66"/><radialGradient id="w" gradientUnits="userSpaceOnUse" gradientTransform="matrix(-.0066 -.00005 -.00005 .0048 63.65 42.55)" spreadMethod="pad" cx="0" cy="0" r="819.2" fx="48" fy="0"><stop offset="0" stop-color="#ffbdbd" stop-opacity=".624"/><stop offset=".569" stop-color="#ffd6cc" stop-opacity=".314"/><stop offset="1" stop-color="#ffeddb" stop-opacity="0"/></radialGradient><path d="M60.75 38.8q1.3-1.1 3.1-1.05 2.2 0 3.75 1.7 1.5 1.65 1.5 3.9 0 2.3-1.55 3.9-1.2 1.2-2.7 1.55l-.6-.65q-1.4-1.35-2.1-2.75l-.1-.2-.3-.8-.05-.2-.1-.3-.1-.35-.25-1.4-.5-3.35" fill="url(#w)"/><radialGradient id="x" gradientUnits="userSpaceOnUse" gradientTransform="matrix(.0066 -.00005 .00005 .0048 76.4 42.7)" spreadMethod="pad" cx="0" cy="0" r="819.2" fx="48" fy="0"><stop offset="0" stop-color="#ffbdbd" stop-opacity=".624"/><stop offset=".569" stop-color="#ffd6cc" stop-opacity=".314"/><stop offset="1" stop-color="#ffeddb" stop-opacity="0"/></radialGradient><path d="M78.8 42.3q-.2 1.65-.85 3.1l-.05.1q-.7 1.4-2 2.75l-.7.65q-1.5-.3-2.65-1.5-1.6-1.65-1.6-3.9 0-2.3 1.55-3.95 1.5-1.65 3.7-1.65 1.75-.1 3.2 1l-.6 3.4" fill="url(#x)"/><radialGradient id="y" gradientUnits="userSpaceOnUse" gradientTransform="matrix(.01324 0 0 .02216 85.6 39.7)" spreadMethod="pad" cx="0" cy="0" r="819.2" fx="0" fy="0"><stop offset=".024" stop-color="#db9984" stop-opacity=".773"/><stop offset="1" stop-color="#e8bcab" stop-opacity=".153"/></radialGradient><path d="M76.9 24.1l.65.65.4.4 1.5 2.2.75 1.85q.4 1.5.45 3.2l-.35 2.3-.2.95h-.05v.25l-.5-.4.05-.5.05-.8-.3-2.3-.85-2.05v-.05l-.55-.4-.2-.1-.15-.05-.6-.3q-.05-3.05-.95-5.5l.85.65" fill="url(#y)"/><radialGradient id="z" gradientUnits="userSpaceOnUse" gradientTransform="matrix(.0102 -.00179 .00244 .0151 57.55 48.3)" spreadMethod="pad" cx="0" cy="0" r="819.2" fx="0" fy="0"><stop offset="0" stop-color="#db9883" stop-opacity=".682"/><stop offset="1" stop-color="#e8bcab" stop-opacity=".153"/></radialGradient><path d="M60.15 29.2q.3-1.2.95-2.2.4-.85 1.05-1.55-.65 1.8-.85 4.1v1.1l.05.2v.2l-.05.1-.05.05-.4.7-.25.5-.1.75-.05 1.3v.45l.05.35.15 1.4v.1h-.15l-.05-.2L60 35l-.2-1.25-.05-1.35v-.6l.05-.75.2-1.25.15-.6" fill="url(#z)"/><radialGradient id="A" gradientUnits="userSpaceOnUse" gradientTransform="matrix(.00919 0 0 .0089 76.3 28.6)" spreadMethod="pad" cx="0" cy="0" r="819.2" fx="0" fy="0"><stop offset="0" stop-color="#fff" stop-opacity=".643"/><stop offset="1" stop-color="#fff" stop-opacity="0"/></radialGradient><path d="M79.7 34.8l.25-1.95q0-3.1-1.7-6-2.15-3.6-5.9-4.45h.45q3.4.55 5.55 3.5 1.9 2.55 1.9 5.15l-.5 3.75h-.05" fill="url(#A)"/><radialGradient id="B" gradientUnits="userSpaceOnUse" gradientTransform="matrix(.00952 0 0 .00922 63.45 29)" spreadMethod="pad" cx="0" cy="0" r="819.2" fx="0" fy="0"><stop offset="0" stop-color="#fff" stop-opacity=".502"/><stop offset="1" stop-color="#fff" stop-opacity="0"/></radialGradient><path d="M62.2 27q-1.7 2.85-1.7 5.55 0 1.7.5 2.9v.25h-.05q-.85-2.7-.85-4.9l.15-1.35q0-1 2.1-3.85 1.55-2.25 4.4-3.3h.05Q63.95 24 62.2 27" fill="url(#B)"/><radialGradient id="C" gradientUnits="userSpaceOnUse" gradientTransform="matrix(.01064 0 0 .0103 69.85 25)" spreadMethod="pad" cx="0" cy="0" r="819.2" fx="0" fy="0"><stop offset="0" stop-color="#fff" stop-opacity=".502"/><stop offset="1" stop-color="#fff" stop-opacity="0"/></radialGradient><path d="M76.55 23.95q1.05.85 1.85 2.2-.45 2.2-2.45 3.8-2.55 2-6.1 2.05-3.6-.05-6.15-2.05-2.25-1.85-2.5-4.35l1.05-.8 2.5-1.6q1.6-.95 3.2-1.35l2.2-.25 1.9.1 1.25.4 1.3.6q.8.3 1.95 1.25" fill="url(#C)"/></g></svg>