<svg width="25" height="31" xmlns="http://www.w3.org/2000/svg">
 <defs>
  <radialGradient fy="0" fx="0" r="819.2" cy="0" cx="0" spreadMethod="pad" gradientTransform="matrix(0.002929690293967724,-0.00004259657725924626,0.00004259657725924626,0.002929690293967724,-13.405899047851562,0.6759045124053955)" gradientUnits="userSpaceOnUse" id="a">
   <stop stop-color="#d3873d" offset="0"/>
   <stop stop-color="#f5c9ab" offset="0.992"/>
  </radialGradient>
  <radialGradient fy="0" fx="0" r="819.2" cy="0" cx="0" spreadMethod="pad" gradientTransform="matrix(-0.0029299999587237835,-0.00007999999797903001,-0.00007999999797903001,0.0029299999587237835,3.424987316131592,18.462499618530273)" gradientUnits="userSpaceOnUse" id="b">
   <stop stop-color="#d3873d" offset="0"/>
   <stop stop-color="#f5c9ab" offset="0.992"/>
  </radialGradient>
  <linearGradient y2="0.541367" y1="0.481321" x2="0.672008" x1="1.504786" id="c">
   <stop stop-color="#fab89d" offset="0"/>
   <stop stop-color="#ffecd9" offset="1"/>
  </linearGradient>
  <linearGradient y2="0.354827" y1="0.356391" x2="-0.214746" x1="0.932135" id="d">
   <stop stop-color="#fab89d" offset="0"/>
   <stop stop-color="#ffecd9" offset="1"/>
  </linearGradient>
  <radialGradient fy="0" fx="0" r="819.2" cy="0" cx="0" spreadMethod="pad" gradientTransform="matrix(0.010730000212788582,0,0,0.018130000680685043,11.924985885620117,16.362497329711914)" gradientUnits="userSpaceOnUse" id="e">
   <stop stop-color="#ffecd9" offset="0.533"/>
   <stop stop-color="#fee6d2" offset="1"/>
  </radialGradient>
  <linearGradient y2="0.920007" y1="0.842032" x2="0.569357" x1="-0.953196" id="f">
   <stop stop-color="#fab89d" offset="0"/>
   <stop stop-color="#ffecd9" offset="1"/>
  </linearGradient>
  <linearGradient y2="0.340489" y1="0.346078" x2="0.783339" x1="-0.108292" id="g">
   <stop stop-color="#fab89d" offset="0"/>
   <stop stop-color="#ffecd9" offset="1"/>
  </linearGradient>
  <linearGradient y2="0.577752" y1="0.70567" x2="0.886999" x1="-0.228772" id="h">
   <stop stop-color="#fab89d" offset="0"/>
   <stop stop-color="#ffecd9" offset="1"/>
  </linearGradient>
  <linearGradient y2="0.159172" y1="0.477699" x2="0.651611" x1="0.148388" id="i">
   <stop stop-color="#fab89d" offset="0"/>
   <stop stop-color="#ffecd9" offset="1"/>
  </linearGradient>
  <linearGradient y2="0.207079" y1="1.67171" x2="0.462686" x1="0.462686" id="j">
   <stop stop-color="#fab89d" offset="0"/>
   <stop stop-color="#ffecd9" offset="1"/>
  </linearGradient>
  <linearGradient y2="0.31911" y1="0.654104" x2="0.089607" x1="1.866915" id="k">
   <stop stop-color="#fab89d" offset="0"/>
   <stop stop-color="#ffecd9" offset="1"/>
  </linearGradient>
  <radialGradient fy="0" fx="48" r="819.2" cy="0" cx="0" spreadMethod="pad" gradientTransform="matrix(-0.006599999964237213,-0.00004999999873689376,-0.00004999999873689376,0.004800000227987766,5.924985885620117,21.062498092651367)" gradientUnits="userSpaceOnUse" id="l">
   <stop stop-opacity="0.624" stop-color="#ffbdbd" offset="0"/>
   <stop stop-opacity="0.314" stop-color="#ffd6cc" offset="0.569"/>
   <stop stop-opacity="0" stop-color="#ffeddb" offset="1"/>
  </radialGradient>
  <radialGradient fy="0" fx="48" r="819.2" cy="0" cx="0" spreadMethod="pad" gradientTransform="matrix(0.006599999964237213,-0.00004999999873689376,0.00004999999873689376,0.004800000227987766,18.674991607666016,21.212499618530273)" gradientUnits="userSpaceOnUse" id="m">
   <stop stop-opacity="0.624" stop-color="#ffbdbd" offset="0"/>
   <stop stop-opacity="0.314" stop-color="#ffd6cc" offset="0.569"/>
   <stop stop-opacity="0" stop-color="#ffeddb" offset="1"/>
  </radialGradient>
  <radialGradient fy="0" fx="0" r="819.2" cy="0" cx="0" spreadMethod="pad" gradientTransform="matrix(0.010200000368058681,-0.0017900000093504786,0.0024399999529123306,0.01510000042617321,-0.17501568794250488,26.812498092651367)" gradientUnits="userSpaceOnUse" id="n">
   <stop stop-opacity="0.682" stop-color="#db9883" offset="0"/>
   <stop stop-opacity="0.153" stop-color="#e8bcab" offset="1"/>
  </radialGradient>
  <radialGradient fy="0" fx="0" r="819.2" cy="0" cx="0" spreadMethod="pad" gradientTransform="matrix(0.013240000233054161,0,0,0.0221599992364645,27.874988555908203,18.212499618530273)" gradientUnits="userSpaceOnUse" id="o">
   <stop stop-opacity="0.773" stop-color="#db9984" offset="0.024"/>
   <stop stop-opacity="0.153" stop-color="#e8bcab" offset="1"/>
  </radialGradient>
  <radialGradient fy="0" fx="0" r="819.2" cy="0" cx="0" spreadMethod="pad" gradientTransform="matrix(0.011099999770522118,0,0,0.010739999823272228,18.924991607666016,3.4124977588653564)" gradientUnits="userSpaceOnUse" id="p">
   <stop stop-opacity="0.161" stop-color="#fff" offset="0"/>
   <stop stop-opacity="0" stop-color="#fff" offset="1"/>
  </radialGradient>
  <linearGradient y2="1.21494" y1="1.120676" x2="0.69779" x1="-0.30044" id="q">
   <stop stop-color="#fab89d" offset="0"/>
   <stop stop-color="#ffecd9" offset="1"/>
  </linearGradient>
  <radialGradient fy="0" fx="0" r="819.2" cy="0" cx="0" spreadMethod="pad" gradientTransform="matrix(0.010730000212788582,0,0,0.018130000680685043,11.924985885620117,16.362497329711914)" gradientUnits="userSpaceOnUse" id="r">
   <stop stop-color="#ffecd9" offset="0.533"/>
   <stop stop-color="#fee6d2" offset="1"/>
  </radialGradient>
  <linearGradient y2="1.226535" y1="1.103214" x2="0.299582" x1="1.247587" id="s">
   <stop stop-color="#fab89d" offset="0"/>
   <stop stop-color="#ffecd9" offset="1"/>
  </linearGradient>
  <linearGradient y2="0.965405" y1="0.96966" x2="-1.429487" x1="0.86427" id="t">
   <stop stop-color="#fab89d" offset="0"/>
   <stop stop-color="#ffecd9" offset="1"/>
  </linearGradient>
  <linearGradient y2="0.944907" y1="0.960418" x2="4.299271" x1="-0.591954" id="u">
   <stop stop-color="#fab89d" offset="0"/>
   <stop stop-color="#ffecd9" offset="1"/>
  </linearGradient>
  <linearGradient y2="23.827223" y1="48.840511" x2="-19.585227" x1="34.918323" id="v">
   <stop stop-color="#fab89d" offset="0"/>
   <stop stop-color="#ffecd9" offset="1"/>
  </linearGradient>
  <radialGradient fy="0" fx="48" r="819.2" cy="0" cx="0" spreadMethod="pad" gradientTransform="matrix(-0.006599999964237213,-0.00004999999873689376,-0.00004999999873689376,0.004800000227987766,5.924985885620117,21.062498092651367)" gradientUnits="userSpaceOnUse" id="w">
   <stop stop-opacity="0.624" stop-color="#ffbdbd" offset="0"/>
   <stop stop-opacity="0.314" stop-color="#ffd6cc" offset="0.569"/>
   <stop stop-opacity="0" stop-color="#ffeddb" offset="1"/>
  </radialGradient>
  <radialGradient fy="0" fx="48" r="819.2" cy="0" cx="0" spreadMethod="pad" gradientTransform="matrix(0.006599999964237213,-0.00004999999873689376,0.00004999999873689376,0.004800000227987766,18.674991607666016,21.212499618530273)" gradientUnits="userSpaceOnUse" id="x">
   <stop stop-opacity="0.624" stop-color="#ffbdbd" offset="0"/>
   <stop stop-opacity="0.314" stop-color="#ffd6cc" offset="0.569"/>
   <stop stop-opacity="0" stop-color="#ffeddb" offset="1"/>
  </radialGradient>
  <radialGradient fy="0" fx="0" r="819.2" cy="0" cx="0" spreadMethod="pad" gradientTransform="matrix(0.013240000233054161,0,0,0.0221599992364645,27.874988555908203,18.212499618530273)" gradientUnits="userSpaceOnUse" id="y">
   <stop stop-opacity="0.773" stop-color="#db9984" offset="0.024"/>
   <stop stop-opacity="0.153" stop-color="#e8bcab" offset="1"/>
  </radialGradient>
  <radialGradient fy="0" fx="0" r="819.2" cy="0" cx="0" spreadMethod="pad" gradientTransform="matrix(0.010200000368058681,-0.0017900000093504786,0.0024399999529123306,0.01510000042617321,-0.17501568794250488,26.812498092651367)" gradientUnits="userSpaceOnUse" id="z">
   <stop stop-opacity="0.682" stop-color="#db9883" offset="0"/>
   <stop stop-opacity="0.153" stop-color="#e8bcab" offset="1"/>
  </radialGradient>
  <radialGradient fy="0" fx="0" r="819.2" cy="0" cx="0" spreadMethod="pad" gradientTransform="matrix(0.009189999662339687,0,0,0.008899999782443047,18.574993133544922,7.1124982833862305)" gradientUnits="userSpaceOnUse" id="A">
   <stop stop-opacity="0.643" stop-color="#fff" offset="0"/>
   <stop stop-opacity="0" stop-color="#fff" offset="1"/>
  </radialGradient>
  <radialGradient fy="0" fx="0" r="819.2" cy="0" cx="0" spreadMethod="pad" gradientTransform="matrix(0.009519999846816063,0,0,0.009220000356435776,5.724985122680664,7.512497901916504)" gradientUnits="userSpaceOnUse" id="B">
   <stop stop-opacity="0.502" stop-color="#fff" offset="0"/>
   <stop stop-opacity="0" stop-color="#fff" offset="1"/>
  </radialGradient>
  <radialGradient fy="0" fx="0" r="819.2" cy="0" cx="0" spreadMethod="pad" gradientTransform="matrix(0.010639999993145466,0,0,0.010300000198185444,12.124982833862305,3.512498140335083)" gradientUnits="userSpaceOnUse" id="C">
   <stop stop-opacity="0.502" stop-color="#fff" offset="0"/>
   <stop stop-opacity="0" stop-color="#fff" offset="1"/>
  </radialGradient>
 </defs>
 <g>
  <title>background</title>
  <rect fill="none" id="canvas_background" height="402" width="582" y="-1" x="-1"/>
 </g>
 <g>
  <title>Layer 1</title>
  <g id="svg_1">
   <path id="svg_2" fill="#efb087" d="m23.474987,20.2125l-0.199997,0.5l-1.400002,0.950001l-0.349998,0.25l-0.150002,0q-0.150002,-0.200001 0,-0.450001l0.150002,-0.75q-0.100006,-0.5 0.099998,-0.650002q0.349998,-0.449997 0.299995,-0.849998l0.200005,-0.900002l0.25,-0.5q0.299995,-0.549999 0.849998,-0.599998l0.300003,0.049999q0.75,0.400002 0.299995,1.400002l-0.150002,-1.25l-0.299995,0q-0.800003,0.25 -1,1.200001l-0.099998,0.299999l-0.350006,1.049999q-0.299995,0.25 -0.25,0.5l0.050003,0.25l0.099998,0.150002l-0.400002,0.849998l0.700005,-0.599998l0.099998,-0.050003l0.25,0l0.599998,-0.349998l0.400002,-0.700001l0,0.200001"/>
   <path id="svg_3" fill="#f7d2bb" d="m23.824993,18.6625q0.449997,-1 -0.300003,-1.399998l-0.299995,-0.050003q-0.550003,0.050003 -0.849998,0.600002l-0.25,0.5l-0.200005,0.899998q0.050003,0.400002 -0.299995,0.850002q-0.200005,0.149998 -0.100006,0.649998l-0.149994,0.75q-0.150002,0.25 0,0.450001l0.149994,0l0.350006,-0.25l1.399994,-0.950001l0.200005,-0.5l0,-0.199997l0.099998,-0.25l0.25,-1.100002m-2.199997,-2.099998l0.599998,-0.25l1.549995,0.149998q0.800003,0.600002 0.800003,1.550003l-0.25,1.699997l-0.5,1l-0.900002,1.5l-0.75,1.200001l-1.449997,0.150002l0.900002,-7"/>
   <path id="svg_4" fill="url(#a)" d="m23.574993,19.762499l-0.099998,0.25l-0.400002,0.700001l-0.599998,0.349998l-0.25,0l-0.099998,0.049999l-0.700005,0.600002l0.400002,-0.850002l-0.099998,-0.149998l-0.050003,-0.25q-0.049995,-0.25 0.25,-0.5l0.349998,-1.049999l0.099998,-0.299999q0.200005,-0.950001 1,-1.200001l0.300003,0l0.150002,1.25l-0.25,1.099998"/>
   <path id="svg_5" stroke="#fd9e66" stroke-miterlimit="3" stroke-linejoin="round" stroke-linecap="round" stroke-width="0.05" fill="none" d="m20.724987,23.562498l1.449997,-0.150002l0.75,-1.199997l0.900002,-1.5l0.5,-1l0.25,-1.700001q0,-0.950001 -0.799995,-1.549999l-1.550003,-0.150002l-0.599998,0.25"/>
   <path id="svg_6" fill="#efb087" d="m1.274985,17.4125l0.299999,0q0.8,0.25 1.000001,1.200001l0.100002,0.299999q0.049999,0.799999 0.349998,1.049999l0.25,0.5l-0.049999,0.25l-0.100002,0.150002l0.400002,0.849998l-0.700001,-0.599998l-0.099998,-0.049999l-0.25,0l-0.600003,-0.350002l-0.399998,-0.699997l0,0.199997l0.200001,0.5l1.399998,0.950001l0.350002,0.25l0.149998,0l0,-0.450001l-0.149998,-0.75l-0.100002,-0.649998l-0.299999,-0.850002l-0.200001,-0.899998l-0.25,-0.5q-0.299999,-0.549999 -0.849999,-0.600002l-0.299999,0.050003q-0.75,0.399998 -0.300003,1.399998l0.150002,-1.25"/>
   <path id="svg_7" fill="#f7d2bb" d="m1.374984,19.762499q-0.200001,-0.5 -0.25,-1.099998q-0.450001,-1 0.299999,-1.400002l0.299999,-0.049999q0.550004,0.049999 0.850003,0.599998l0.25,0.5l0.200001,0.900002l0.299999,0.849998l0.099998,0.650002l0.150002,0.75l0,0.450001l-0.150002,0l-0.349998,-0.25l-1.400002,-0.950001l-0.199997,-0.5l0,-0.200001l-0.100002,-0.25m1.950001,-3.200001l-0.599998,-0.25l-1.550004,0.150002q-0.799999,0.599998 -0.799999,1.549999q-0.049999,0.849998 0.25,1.700001l0.5,1l0.900002,1.5l0.750001,1.200001l1.45,0.149998l-0.900001,-7"/>
   <path id="svg_8" fill="url(#b)" d="m1.474986,20.012499l0.400002,0.700001l0.599999,0.349998l0.25,0l0.099998,0.049999l0.700001,0.600002l-0.399998,-0.850002l0.099998,-0.149998l0.049999,-0.25l-0.25,-0.5q-0.299999,-0.25 -0.349998,-1.049999l-0.100002,-0.300003q-0.199997,-0.949997 -1.000001,-1.199997l-0.299999,0l-0.150002,1.25q0.050003,0.599998 0.25,1.099998l0.100002,0.25"/>
   <path id="svg_9" stroke="#fd9e66" stroke-miterlimit="3" stroke-linejoin="round" stroke-linecap="round" stroke-width="0.05" fill="none" d="m4.224986,23.562498l-1.45,-0.150002l-0.750001,-1.199997l-0.899998,-1.5l-0.5,-1q-0.300003,-0.850002 -0.25,-1.700001q0,-0.950001 0.799999,-1.549999l1.55,-0.150002l0.599998,0.25"/>
   <path id="svg_10" fill="url(#c)" d="m19.27499,18.262499l-0.050003,-0.099998l-0.149994,-0.150002l0,-0.200001l-0.650002,-3.000001l-0.800003,-1.75q-0.349998,-0.599998 -0.5,-2.149998l-0.400002,-0.25q-1.200003,-0.650002 -1.4,-2.200001q-0.25,-1.550001 -0.25,-3.35l-0.100006,-3.149999l1.900007,1.049999l1.75,1.5q0.900002,0.950001 1.599998,2.049999l0.100006,0.150002l-0.600006,2.65l-0.5,2.499998l0,0.100002q-0.149994,0.399998 -0.049995,0.849998l0.549995,2.700001l0.400002,2.05l0.099998,0.600002l0,1.299999l-0.949997,-1.200001m-5.300009,12l-0.099998,0l0.099998,0m-1,0.25l-1.099998,0.099998l-0.400002,0l-0.199997,-0.049999l0.550003,0l1.149994,-0.049999"/>
   <path id="svg_11" fill="url(#d)" d="m18.624989,26.262499l1.650002,-2.349998l0.050003,-0.099998l-0.100006,-4.350002l0,-1.299999l-0.099998,-0.599998l-0.400002,-2.05l-0.549995,-2.700001q-0.099998,-0.450001 0.049995,-0.850002l0,-0.099998l0.5,-2.5l0.600006,-2.65q1.849998,3 2,6.949999l0,0.5l-0.150002,2.349999l-0.199997,1.650002q-0.950005,5.799999 -2.25,7.5l-2,2l0.899994,-1.400002"/>
   <path id="svg_12" fill="url(#e)" d="m19.074993,18.1625q0.199997,1.75 -0.199997,2.849998q-0.5,1.100002 -2,0.25l-0.25,0.400002l-0.200005,0.299999l0.599998,1.549999l0.100006,0.450001q-0.300003,1.549999 -0.950008,2.450001l-2.1,2.299999l-0.099998,0.099998q-0.849998,0.800003 -1.849998,0.900002l-0.850006,-0.25l-1,-0.75l-0.099998,-0.150002l-1,-1.049999l-1,-1.099998q-0.549995,-0.600002 -0.799995,-1.650002l0.299995,-1.25q0.300003,-1.25 0.599998,-1.549999l-0.199997,-0.299999l-0.300003,-0.400002q-1.549995,0.850002 -1.949997,-0.25q-0.400002,-0.950001 -0.25,-2.450001l0,-0.399998l0.049999,-0.350002q0.200001,-2.05 0.649998,-3.000001l0.850006,-1.75l0.399994,-1.949997l0.25,-0.25l0.700005,-0.700001l0.449997,-1.35l0.099998,-0.9l0.200005,-2.1l0.099998,-1.6l0.099998,-2.149999l0,-0.100001l1.700005,-0.4l1.799995,0l0.800003,0.049999l0.25,0.050001l0.199997,0.049999l0.300003,0.1l0.5,0.15l0.099998,3.149999q0,1.800001 0.25,3.35q0.199997,1.550001 1.400007,2.200001l0.400002,0.25q0.149994,1.549999 0.5,2.149998l0.799995,1.75l0.650002,3.000001l0,0.350002"/>
   <path id="svg_13" fill="url(#f)" d="m9.424986,2.062497l-0.099998,2.149999l-0.099998,1.6l-0.200005,2.1l-0.099998,0.9l-0.449997,1.35l-0.700005,0.699999l-0.25,0.25l-0.400002,1.950001l-0.849998,1.75q-0.450001,0.950001 -0.650002,3.000001l-0.049999,0.349998l0,0.400002l-1.099998,1.049999l0,-1.450001l0.5,-2.649999l0.549999,-2.700001l0,-0.400002l-0.049999,-0.149998l0,-0.299999l-0.5,-2.600002l-0.5,-2.549999l0.049999,-0.1q0.549999,-1.200001 1.400002,-2.200001q0.849998,-1 1.849998,-1.649999q0.800003,-0.6 1.650002,-0.9l0,0.100001"/>
   <path id="svg_14" fill="url(#g)" d="m4.374983,22.9625l-0.699996,-1.450001l-0.149998,-0.900002l-0.450001,-2.449997l-0.200001,-1.650002q-0.650002,-5.650002 1.599997,-9.700002l0.5,2.550001l0.5,2.6l0,0.299999l0.050003,0.150002l0,0.399998l-0.550003,2.700001l-0.5,2.650002l0,1.449997l-0.099998,3.350002m9.600002,7.25l0,0.049999l-0.100006,0l0.100006,-0.049999"/>
   <path id="svg_15" fill="url(#h)" d="m4.474985,19.612497l1.099998,-1.049999q-0.149998,1.5 0.25,2.450001q0.400002,1.099998 1.950001,0.25l0.300003,0.399998l0.199997,0.300003q-0.299995,0.299999 -0.599998,1.549999l-0.300003,1.25l-0.049995,0.5l0.299995,1.099998l0.5,1.150002l0.200005,0.399998l-0.5,-0.099998l-1.200005,-1.299999q-1.199997,-1.549999 -2.249996,-3.549999l0.099998,-3.350002"/>
   <path id="svg_16" fill="url(#i)" d="m10.674986,30.4625l-1.349998,-0.549999l-1.849998,-1.549999l-2.450005,-2.700001q-0.799999,-1.100002 -1.349997,-4.150002l0.699999,1.450001q1.049999,2 2.249996,3.549999l1.200005,1.299999l2.849998,2.650002"/>
   <path id="svg_17" fill="url(#j)" d="m7.824987,27.812498l0.5,0.099998l-0.199997,-0.399998l-0.5,-1.150002l-0.300003,-1.099998l0.050003,-0.5q0.25,1.049999 0.799995,1.649998l1,1.100002l1,1.049999l0.099998,0.150002l1,0.75l0.850006,0.25q1,-0.100002 1.849998,-0.900002l0.099998,-0.099998l2.1,-2.300003q0.650005,-0.899998 0.950008,-2.449997l0.25,1.299999l-0.300003,1.099998l-0.449997,1.100002l-0.25,0.449997l-0.200008,0.25l-0.150003,0.400002l-0.199997,0.349998l0.900007,-0.5l0.199997,-0.099998l-0.150002,0.099998l-0.950003,0.600002l-0.099998,0.200001l-0.950005,0.699997l-0.799995,0.350002l0,-0.049999l-0.099998,0.049999l-0.050003,0l-0.849998,0.25l-1.150002,0.049999l-0.550003,0l-0.400002,-0.049999l-0.199997,-0.049999l-2.849998,-2.650002"/>
   <path id="svg_18" fill="url(#k)" d="m16.724987,28.4125l-0.900007,0.5l0.200005,-0.349998l0.149996,-0.400002l0.200008,-0.25l0.25,-0.450001l0.449997,-1.099998l0.300003,-1.100002l-0.25,-1.299999l-0.099998,-0.449997l-0.600006,-1.550003l0.200005,-0.299999l0.25,-0.399998q1.5,0.849998 2,-0.25q0.400002,-1.100002 0.199997,-2.850002l0,-0.149998l0.150002,0.149998l0.050003,0.100002l0.949997,1.199997l0.099998,4.350002l-0.049995,0.099998l-1.650002,2.350002l-0.900002,1.399998l-0.400002,0.350002l-0.349998,0.25l-0.25,0.149998m-0.900007,0.600002l0.95001,-0.600002l-1.050009,0.799999l0.099998,-0.199997"/>
   <path id="svg_19" stroke="#fd9e66" stroke-miterlimit="3" stroke-linejoin="round" stroke-linecap="round" stroke-width="0.05" fill="none" d="m9.424986,1.962499q-0.849998,0.300001 -1.650002,0.9q-1,0.650002 -1.849998,1.650001q-0.849998,1 -1.399998,2.199999l-0.050003,0.1m4.950001,-4.85l1.699997,-0.4m2.600006,0.049999l0.25,0.050001l0.199997,0.049999l0.300003,0.1m0.5,0.15l1.9,1.050001l1.75,1.5q0.900002,0.949999 1.600006,2.049999l0.099998,0.15q1.849998,3 2,6.950001l0,0.5l-0.150002,2.349999l-0.199997,1.650002q-0.950005,5.799999 -2.25,7.5l-2,2l-0.400002,0.349998l-0.349998,0.25l-0.050003,0.049999l-0.150002,0.100002l-1.050001,0.799999l-0.950005,0.700001l-0.799995,0.349998l-0.150002,0l-0.849998,0.25l-1.100006,0.099998l-0.399994,0l-0.200005,-0.049999l-0.400002,-0.049999l-0.199997,-0.049999l-1.349998,-0.549999l-1.849998,-1.550003l-2.450005,-2.699997q-0.799999,-1.100002 -1.349997,-4.150002l-0.150002,-0.900002l-0.450001,-2.449997l-0.199997,-1.650002q-0.650002,-5.650002 1.599997,-9.700002m9.250004,-5.199999l-0.800003,-0.050001l-1.800003,0m3.850006,0.400002l-0.050003,0l-0.449997,-0.150002"/>
   <path id="svg_20" fill="url(#l)" d="m3.024986,17.312498q1.299998,-1.099998 3.099997,-1.049999q2.200005,0 3.75,1.700001q1.5,1.649998 1.5,3.899998q0,2.299999 -1.549995,3.900002q-1.200005,1.200001 -2.700005,1.549999l-0.599998,-0.650002q-1.400002,-1.349998 -2.099998,-2.75l-0.100002,-0.199997l-0.299998,-0.800003l-0.049999,-0.199997l-0.100002,-0.300003l-0.099998,-0.349998l-0.25,-1.400002l-0.5,-3.349998"/>
   <path id="svg_21" fill="url(#m)" d="m21.074993,20.812498q-0.199997,1.650002 -0.849998,3.099998l-0.050003,0.100002q-0.699997,1.399998 -2,2.75l-0.699997,0.649998q-1.500005,-0.299999 -2.650007,-1.5q-1.599998,-1.649998 -1.599998,-3.899998q0,-2.299999 1.549995,-3.950001q1.500004,-1.650002 3.70001,-1.650002q1.75,-0.099998 3.199997,1l-0.599998,3.400002"/>
   <path id="svg_22" fill="url(#n)" d="m9.774984,18.4125q0,1.900002 -1.099998,4.5l-1.099998,2.799999l0.599998,2.299999l0.5,1.400002l-1.200005,-1.049999l-2.449997,-2.700001q-0.900001,-1.299999 -1.549998,-5.049999l-0.600002,-4.100002q-0.5,-4.3 0.650002,-7.7q0.299999,3.750002 0.949999,6.750002q1.200001,4.8 2.549999,4.8q0.650002,0 1.300003,-0.650002l1.399994,-1.299999l0.050003,0"/>
   <path id="svg_23" fill="url(#o)" d="m20.224987,6.562497q1.949997,3.1 2.099998,7.099998l0,0.5l-0.149994,2.350003q-0.949997,7.200001 -2.5,9.150002l-2.349998,2.349998l-2.550009,1.849998l-0.799995,0.400002l-0.150002,0l-0.400002,0.099998q3.800009,-3.649998 4.050009,-4.549999l-0.050003,-0.75q-0.050003,-0.549999 0.400002,-1.5l1.549995,-3.25q0.5,-1.599998 0.5,-3.299999l-0.399994,-3.200002q-0.5,-2.700001 -0.5,-3.550001l0.5,-4.799999l0.75,1.1"/>
   <path id="svg_24" fill="url(#p)" d="m13.074987,0.362498l0.099998,0.049999q5.600004,1.5 6.500006,2.5q2.050003,2.35 2.050003,4.5q0,3.550001 -6.050009,3.550001l-1.699997,-0.25q-0.599998,-0.450001 -1.150002,-2.050001q-0.599998,-1.799999 -0.5,-2.75l-0.050003,-2.199999q0,-2.049999 0.800003,-3.350001"/>
   <path id="svg_25" fill="url(#q)" d="m7.974981,7.012498q-1.799999,0.15 -3.049999,1.15l-0.150002,0.1l-0.149998,-0.700001l-0.150002,-0.75l-0.9,2q-0.299999,0.75 -0.449997,1.6l-0.200001,0.949999l-0.150002,1.550003l-0.049999,0.5l0,1.649998l-0.049999,0l-0.25,-0.950001l-0.149998,-0.599998l-0.200001,-1.25l-0.049999,-1.349998l0,-0.600002l0.049999,-0.75l0.200001,-1.25l0.150002,-0.599998q0.299999,-1.200001 0.949997,-2.200001q0.5,-1.049999 1.350001,-1.950001l0.349998,-0.299999q1.950001,-2.100001 4.500004,-2.799999l-0.25,1.549999l0.099998,-0.049999l0,0.799999l-0.099998,1.450001l-0.100006,1.599998l-0.049995,0.35l-0.050003,0.75l0,0.1l-1.150002,0"/>
   <path id="svg_26" fill="url(#r)" d="m12.424986,0.112498l2.599998,0.25l0,1.15l0.050003,0.5l-0.099998,-0.049999l0.049995,1l0.050003,2.149999l0.049995,1.35l0.050003,0.699999l0,0.1l-0.050003,0.049999q-1.349998,0.450001 -2.399994,1.75q-1.100006,-1.25 -2.350006,-1.75l-1.199997,-0.299999l-0.050003,0l0,-0.1l0.050003,-0.75l0.050003,-0.35l0.099998,-1.599998l0.099998,-1.450001l0,-0.799999l-0.099998,0.049999l0.25,-1.549999l2.849998,-0.35"/>
   <path id="svg_27" fill="url(#s)" d="m22.324993,14.262498l0,-0.700001l-0.25,-2.149998l-0.449997,-1.850002l-0.850006,-2.099998l-0.449997,-0.75l-0.099998,0.349998l-0.150002,0.700001l-0.050003,0.049999l-0.149994,-0.049999q-1.100006,-0.65 -2.450005,-0.75l-2.250006,0.25l0,-0.1l-0.049995,-0.699999l-0.050003,-1.35l-0.050003,-2.149999l-0.049995,-1l0.099998,0.049999l-0.050003,-0.5l0,-1.15l0.850006,0.25q1.750006,0.65 3.300001,2l0.650002,0.65l0.400002,0.4l1.5,2.200001l0.75,1.85q0.400002,1.5 0.449997,3.200001l0,0.149998l-0.299995,2.150002l-0.25,1.099998l-0.050003,-0.049999"/>
   <path id="svg_28" fill="url(#t)" d="m22.324993,14.412499l-0.5,-0.399998l0.050003,-0.5l0.049995,-0.800003l-0.299995,-2.299999l-0.850006,-2.049999l0,-0.050001l-0.549995,-0.4l-0.200005,-0.1l0.050003,-0.049999l0.150002,-0.700001l0.099998,-0.349998l0.449997,0.75l0.850006,2.099998l0.449997,1.85l0.25,2.150002l0,0.849998"/>
   <path id="svg_29" fill="url(#u)" d="m2.774986,13.762498l0.150002,1.400002l0,0.099998l-0.150002,0l-0.049999,-0.200001l0,-1.649998l0.049999,0.350002m1.849997,-5.350002l-0.449996,0.450001l-0.600002,0.799999l-0.049999,0.050001l-0.400002,0.699999q0.150002,-0.85 0.450001,-1.6l0.9,-2l0.149998,0.75l0.150002,0.700001l-0.150002,0.15"/>
   <path id="svg_30" fill="url(#v)" d="m19.074993,18.1625l0,-0.149998l0.150002,0.149998l-0.150002,0"/>
   <path id="svg_31" stroke="#fd9e66" stroke-miterlimit="3" stroke-linejoin="round" stroke-linecap="round" stroke-width="0.05" fill="none" d="m22.374989,14.312497l0.25,-1.099998l0.300003,-2.150002l0,-0.150002q-0.050003,-1.699999 -0.450005,-3.199999l-0.75,-1.85l-1.5,-2.199999l-0.400002,-0.400002l-0.649994,-0.65q-1.550003,-1.350001 -3.300009,-2l-0.849998,-0.25l-2.599998,-0.25l-2.850006,0.35q-2.549995,0.700001 -4.499996,2.799999l-0.349998,0.300001q-0.850001,0.899999 -1.350001,1.949999q-0.649998,1 -0.950001,2.200001l-0.149998,0.6l-0.200001,1.25l-0.049999,0.75l0,0.599998l0.049999,1.350002l0.200001,1.25l0.150002,0.599998l0.25,0.950001"/>
   <path id="svg_32" fill="url(#w)" d="m3.024986,17.312498q1.299998,-1.099998 3.099997,-1.049999q2.200005,0 3.75,1.700001q1.5,1.649998 1.5,3.899998q0,2.299999 -1.549995,3.900002q-1.200005,1.200001 -2.700005,1.549999l-0.599998,-0.650002q-1.400002,-1.349998 -2.099998,-2.75l-0.100002,-0.199997l-0.299998,-0.800003l-0.049999,-0.199997l-0.100002,-0.300003l-0.099998,-0.349998l-0.25,-1.400002l-0.5,-3.349998"/>
   <path id="svg_33" fill="url(#x)" d="m21.074993,20.812498q-0.199997,1.650002 -0.849998,3.099998l-0.050003,0.100002q-0.699997,1.399998 -2,2.75l-0.699997,0.649998q-1.500005,-0.299999 -2.650007,-1.5q-1.599998,-1.649998 -1.599998,-3.899998q0,-2.299999 1.549995,-3.950001q1.500004,-1.650002 3.70001,-1.650002q1.75,-0.099998 3.199997,1l-0.599998,3.400002"/>
   <path id="svg_34" fill="url(#y)" d="m19.174992,2.612499l0.650002,0.65l0.400002,0.4l1.5,2.200001l0.75,1.85q0.399994,1.5 0.449997,3.200001l-0.349998,2.299999l-0.200005,0.950001l-0.049995,0l0,0.25l-0.5,-0.400002l0.049995,-0.5l0.050003,-0.799999l-0.300003,-2.300001l-0.849998,-2.049999l0,-0.050001l-0.549995,-0.4l-0.200005,-0.1l-0.150002,-0.049999l-0.599998,-0.299999q-0.049995,-3.049999 -0.949997,-5.5l0.849998,0.65"/>
   <path id="svg_35" fill="url(#z)" d="m2.424987,7.712499q0.299999,-1.199999 0.950001,-2.199999q0.400002,-0.85 1.049998,-1.550001q-0.65,1.800001 -0.850001,4.1l0,1.1l0.050003,0.199999l0,0.200001l-0.050003,0.1l-0.049999,0.049999l-0.399998,0.700001l-0.25,0.5l-0.100002,0.75l-0.049999,1.299999l0,0.450001l0.049999,0.349998l0.150002,1.400002l0,0.099998l-0.150002,0l-0.049999,-0.200001l-0.450001,-1.549999l-0.200001,-1.25l-0.049999,-1.349998l0,-0.600002l0.049999,-0.75l0.200001,-1.25l0.150002,-0.599998"/>
   <path id="svg_36" fill="url(#A)" d="m21.974987,13.312497l0.25,-1.950001q0,-3.1 -1.699997,-6q-2.150002,-3.6 -5.900007,-4.449999l0.449997,0q3.400007,0.549999 5.550009,3.5q1.900002,2.549999 1.900002,5.15l-0.5,3.75l-0.050003,0"/>
   <path id="svg_37" fill="url(#B)" d="m4.474985,5.512498q-1.699999,2.85 -1.699999,5.549999q0,1.700001 0.5,2.900002l0,0.25l-0.049999,0q-0.849998,-2.700001 -0.849998,-4.900002l0.149998,-1.349998q0,-1 2.100001,-3.85q1.549999,-2.25 4.399998,-3.300001l0.050003,0q-2.850002,1.700001 -4.600002,4.700001"/>
   <path id="svg_38" fill="url(#C)" d="m18.824993,2.462499q1.050003,0.85 1.849998,2.200001q-0.449997,2.199999 -2.449997,3.799999q-2.550009,2 -6.100004,2.049999q-3.600006,-0.049999 -6.150002,-2.049999q-2.249999,-1.85 -2.499999,-4.35l1.049998,-0.799999l2.499996,-1.600001q1.600006,-0.949999 3.200005,-1.35l2.199997,-0.25l1.900002,0.1l1.25,0.4l1.300009,0.6q0.799995,0.300001 1.949997,1.25"/>
  </g>
 </g>
</svg>