<svg width="24" height="31" xmlns="http://www.w3.org/2000/svg">
 <defs>
  <radialGradient fy="0" fx="0" r="819.2" cy="0" cx="0" spreadMethod="pad" gradientTransform="matrix(0.004029999952763319,0,0,0.004089999943971634,21.349987030029297,17.374996185302734)" gradientUnits="userSpaceOnUse" id="a">
   <stop stop-color="#d3873d" offset="0"/>
   <stop stop-color="#f5c9ab" offset="0.992"/>
  </radialGradient>
  <radialGradient fy="0" fx="0" r="819.2" cy="0" cx="0" spreadMethod="pad" gradientTransform="matrix(0.0035099999513477087,0,0,0.0035600000992417336,3.4999871253967285,17.47499656677246)" gradientUnits="userSpaceOnUse" id="b">
   <stop stop-color="#d3873d" offset="0"/>
   <stop stop-color="#f5c9ab" offset="0.992"/>
  </radialGradient>
  <linearGradient y2="0.60971" y1="0.738706" x2="0.889729" x1="-0.915351" id="c">
   <stop stop-color="#faa684" offset="0"/>
   <stop stop-color="#ffecd9" offset="1"/>
  </linearGradient>
  <radialGradient fy="0" fx="0" r="819.2" cy="0" cx="0" spreadMethod="pad" gradientTransform="matrix(0.009449999779462814,-0.00471000000834465,0.007600000128149986,0.015180000104010105,0.6999872326850891,24.774995803833008)" gradientUnits="userSpaceOnUse" id="d">
   <stop stop-color="#fba784" offset="0"/>
   <stop stop-color="#ffecd9" offset="1"/>
  </radialGradient>
  <radialGradient fy="0" fx="0" r="819.2" cy="0" cx="0" spreadMethod="pad" gradientTransform="matrix(0.016249999403953552,0,0,0.023280000314116478,12.34998607635498,14.524995803833008)" gradientUnits="userSpaceOnUse" id="e">
   <stop stop-color="#fee8d4" offset="0.431"/>
   <stop stop-color="#fedcc6" offset="0.992"/>
  </radialGradient>
  <linearGradient y2="0.590105" y1="0.759346" x2="0.051267" x1="2.206686" id="f">
   <stop stop-color="#faa684" offset="0"/>
   <stop stop-color="#ffecd9" offset="1"/>
  </linearGradient>
  <radialGradient fy="0" fx="0" r="819.2" cy="0" cx="0" spreadMethod="pad" gradientTransform="matrix(0.009890000335872173,0.00570000009611249,-0.010529999621212482,0.018230000510811806,24.349987030029297,22.22499656677246)" gradientUnits="userSpaceOnUse" id="g">
   <stop stop-color="#fba784" offset="0"/>
   <stop stop-color="#ffecd9" offset="1"/>
  </radialGradient>
  <linearGradient y2="-0.554985" y1="3.60953" x2="0.795022" x1="0.588539" id="h">
   <stop stop-color="#fba784" offset="0"/>
   <stop stop-color="#ffecd9" offset="1"/>
  </linearGradient>
  <radialGradient fy="0" fx="0" r="819.2" cy="0" cx="0" spreadMethod="pad" gradientTransform="matrix(-0.004600000102072954,0.0024999999441206455,-0.003860000055283308,-0.0053900000639259815,5.799988269805908,19.524995803833008)" gradientUnits="userSpaceOnUse" id="i">
   <stop stop-color="#ffd5cc" offset="0"/>
   <stop stop-opacity="0" stop-color="#ffdcd0" offset="1"/>
  </radialGradient>
  <radialGradient fy="0" fx="0" r="819.2" cy="0" cx="0" spreadMethod="pad" gradientTransform="matrix(0.004600000102072954,0.0024999999441206455,0.0038799999747425318,-0.0053900000639259815,18.049985885620117,19.524995803833008)" gradientUnits="userSpaceOnUse" id="j">
   <stop stop-color="#ffd5cc" offset="0"/>
   <stop stop-opacity="0" stop-color="#ffdcd0" offset="1"/>
  </radialGradient>
  <radialGradient fy="0" fx="0" r="819.2" cy="0" cx="0" spreadMethod="pad" gradientTransform="matrix(-0.002689999993890524,0,0,0.0020600000862032175,15.84998607635498,19.624996185302734)" gradientUnits="userSpaceOnUse" id="k">
   <stop stop-opacity="0.173" stop-color="#fff" offset="0"/>
   <stop stop-opacity="0" stop-color="#fff" offset="1"/>
  </radialGradient>
  <radialGradient fy="0" fx="0" r="819.2" cy="0" cx="0" spreadMethod="pad" gradientTransform="matrix(0.002689999993890524,0,0,0.0020600000862032175,7.499988079071045,19.624996185302734)" gradientUnits="userSpaceOnUse" id="l">
   <stop stop-opacity="0.173" stop-color="#fff" offset="0"/>
   <stop stop-opacity="0" stop-color="#fff" offset="1"/>
  </radialGradient>
  <radialGradient fy="0" fx="41" r="819.2" cy="0" cx="0" spreadMethod="pad" gradientTransform="matrix(0.011250000447034836,0,0,0.010879999957978725,11.69998550415039,-3.225003242492676)" gradientUnits="userSpaceOnUse" id="m">
   <stop stop-color="#fff" offset="0"/>
   <stop stop-color="#ffecd9" offset="0.988"/>
  </radialGradient>
  <linearGradient y2="1.45846" y1="1.673616" x2="1.529024" x1="-1.289024" id="n">
   <stop stop-color="#faa684" offset="0"/>
   <stop stop-color="#ffecd9" offset="1"/>
  </linearGradient>
  <linearGradient y2="1.489744" y1="1.805338" x2="-0.696922" x1="2.936052" id="o">
   <stop stop-color="#faa684" offset="0"/>
   <stop stop-color="#ffecd9" offset="1"/>
  </linearGradient>
  <radialGradient fy="0" fx="0" r="819.2" cy="0" cx="0" spreadMethod="pad" gradientTransform="matrix(0.016249999403953552,0,0,0.023280000314116478,12.34998607635498,14.524995803833008)" gradientUnits="userSpaceOnUse" id="p">
   <stop stop-color="#fee8d4" offset="0.431"/>
   <stop stop-color="#fedcc6" offset="0.992"/>
  </radialGradient>
  <radialGradient fy="0" fx="0" r="819.2" cy="0" cx="0" spreadMethod="pad" gradientTransform="matrix(0.010940000414848328,0,0,0.010590000078082085,18.549985885620117,3.474996566772461)" gradientUnits="userSpaceOnUse" id="q">
   <stop stop-opacity="0.161" stop-color="#fff" offset="0"/>
   <stop stop-opacity="0" stop-color="#fff" offset="1"/>
  </radialGradient>
  <radialGradient fy="0" fx="0" r="819.2" cy="0" cx="0" spreadMethod="pad" gradientTransform="matrix(0.009060000069439411,0,0,0.00877000018954277,18.149986267089844,7.024997234344482)" gradientUnits="userSpaceOnUse" id="r">
   <stop stop-opacity="0.643" stop-color="#fff" offset="0"/>
   <stop stop-opacity="0" stop-color="#fff" offset="1"/>
  </radialGradient>
  <radialGradient fy="0" fx="0" r="819.2" cy="0" cx="0" spreadMethod="pad" gradientTransform="matrix(0.009379999712109566,0,0,0.009100000374019146,5.549988269805908,7.424997329711914)" gradientUnits="userSpaceOnUse" id="s">
   <stop stop-opacity="0.502" stop-color="#fff" offset="0"/>
   <stop stop-opacity="0" stop-color="#fff" offset="1"/>
  </radialGradient>
  <radialGradient fy="0" fx="0" r="819.2" cy="0" cx="0" spreadMethod="pad" gradientTransform="matrix(0.010499999858438969,0,0,0.010160000063478947,11.84998607635498,3.474996566772461)" gradientUnits="userSpaceOnUse" id="t">
   <stop stop-opacity="0.502" stop-color="#fff" offset="0"/>
   <stop stop-opacity="0" stop-color="#fff" offset="1"/>
  </radialGradient>
 </defs>
 <g>
  <title>background</title>
  <rect fill="none" id="canvas_background" height="402" width="582" y="-1" x="-1"/>
 </g>
 <g>
  <title>Layer 1</title>
  <path id="svg_1" fill="#f7d2bb" d="m20.999992,14.312498l0.450001,-0.25q0.949999,-0.35 1.599998,0.25q0.650002,0.65 0.650002,1.2q0,0.849999 -0.550001,1.95l-0.799999,1.6l-0.200001,0.700001l-0.199999,0.65l-0.700001,1l-1.15,0.199999l-0.050001,0l0.950001,-7.299999m0.200001,5.549999l0.049999,-0.15l0.1,-0.35l0.6,-0.75l0.15,0l-0.050001,0.050001l-0.75,1.5l0,0.1q1.5,-1.85 1.85,-4.35q0.15,-1.200001 -1.049999,-0.8l-0.4,0.349999q-0.550001,1.25 -0.85,2.700001l0.15,0.1l0,0.199999l-0.049999,0.25l-0.35,1.65l0.1,0.1l0.15,-0.049999l0.35,-0.550001"/>
  <path id="svg_2" fill="#efb087" d="m20.999992,18.462498l0,-0.199999l-0.15,-0.1q0.299999,-1.450001 0.85,-2.700001l0.4,-0.349999q1.199999,-0.400001 1.049999,0.8q-0.35,2.5 -1.85,4.349998l0,-0.1l0.75,-1.5l0.050001,-0.049999l-0.15,0l-0.6,0.75l-0.1,0.35l-0.049999,0.15l-0.050001,-0.65l0.25,-0.449999l0.550001,-0.400002q0.799999,-0.6 0.799999,-1.799999l-0.1,-0.85q-0.049999,-0.349999 -0.299999,-0.349999l-0.35,0.099999l-0.049999,0.05q-0.450001,0.55 -0.5,1.150001l0.049999,1.049999l-0.15,0.549999l-0.4,0.450001l0.049999,-0.25"/>
  <path id="svg_3" fill="url(#a)" d="m20.849993,20.412498l-0.15,0.049999l-0.1,-0.1l0.35,-1.65l0.4,-0.449999l0.15,-0.550001l-0.049999,-1.049999q0.049999,-0.6 0.5,-1.150001l0.049999,-0.05l0.35,-0.099999q0.25,0 0.299999,0.349999l0.1,0.85q0,1.200001 -0.799999,1.799999l-0.550001,0.400002l-0.25,0.449999l0.050001,0.65l-0.35,0.550001"/>
  <path id="svg_4" stroke="#fd9e66" stroke-miterlimit="3" stroke-linejoin="round" stroke-linecap="round" stroke-width="0.05" fill="none" d="m20.999992,14.312498l0.450001,-0.25q0.949999,-0.35 1.599998,0.25q0.650002,0.65 0.650002,1.2q0,0.849999 -0.550001,1.95l-0.799999,1.6l-0.200001,0.700001l-0.199999,0.65l-0.700001,1l-1.15,0.199999l-0.050001,0"/>
  <path id="svg_5" fill="#f7d2bb" d="m4.149994,21.412498q-0.700001,0.5 -1.25,0.25t-0.65,-0.950001l-0.25,-1.15l-0.95,-1.65q-0.8,-1.15 -0.8,-2.05l0.1,-0.8q0.25,-0.65 0.9,-0.6q0.6,0.05 1.25,0.5l1.650001,6.450001m-1.400001,-3.9l-0.45,-1.1l-0.699999,-1.1q-0.4,-0.4 -0.7,-0.1l-0.2,0.85q0,0.65 0.35,1.35l0.6,1.1l0.5,0.9l0.4,1.15l0.05,0l0.05,-0.200001l0.05,-0.549999q0.05,-0.35 -0.45,-0.75l-0.2,-0.25l-0.05,-0.1l0.05,-0.15q0.4,0 0.75,0.549999l0.2,0.6l0.05,-0.65l-0.05,-0.549999l-0.25,-1"/>
  <path id="svg_6" fill="#efb087" d="m2.049994,18.812498l0.2,0.25q0.5,0.4 0.45,0.75l-0.05,0.549999l-0.05,0.200001l-0.05,0l-0.4,-1.15l-0.5,-0.9l-0.6,-1.1q-0.35,-0.700001 -0.35,-1.35l0.2,-0.85q0.3,-0.299999 0.7,0.1l0.699999,1.1l0.45,1.1l0.25,1l-0.7,-1.700001q-0.75,-1.35 -1.1,-1.35l-0.15,0.05l-0.05,0.05l-0.05,0.6q0,0.6 0.5,1.4l0.55,1.15l0.05,0.1"/>
  <path id="svg_7" fill="url(#b)" d="m1.449994,17.562498q-0.5,-0.799999 -0.5,-1.4l0.05,-0.6l0.05,-0.05l0.15,-0.05q0.35,0 1.1,1.35l0.7,1.700001l0.05,0.549999l-0.05,0.65l-0.2,-0.6q-0.35,-0.549999 -0.75,-0.549999l-0.05,0.15l-0.55,-1.15"/>
  <path id="svg_8" stroke="#fd9e66" stroke-miterlimit="3" stroke-linejoin="round" stroke-linecap="round" stroke-width="0.05" fill="none" d="m4.149994,21.412498q-0.700001,0.5 -1.25,0.25t-0.65,-0.950001l-0.25,-1.15l-0.95,-1.65q-0.8,-1.15 -0.8,-2.05l0.1,-0.8q0.25,-0.65 0.9,-0.6q0.6,0.05 1.25,0.5"/>
  <path id="svg_9" fill="url(#c)" d="m4.099994,8.512498l-0.15,3l-0.05,1l0,1.2q0.1,4.300001 0.650001,5.85q0.7,1.75 1.45,2.049999q0.75,0.300001 1.9,-0.299999q1.149998,-0.549999 1.249998,0.1l-1.049998,0.949999l-0.349999,0.400002l-0.85,1.25q-0.15,0.4 0,0.65l1.749998,1.85q1.6,1.599998 1.5,3l-0.15,-0.1l-0.75,-0.550001l-0.05,-0.050001l-0.95,-0.199999l-0.449998,-0.450001l-0.6,-1.35l-1.75,-2.949999l-0.55,-0.950001q-1.250001,-2.199999 -2.050001,-5.1l-0.3,-1.299999l-0.2,-1.55l0,-1.25l0.05,-1.849999l0.05,-0.35q0.1,-2.249999 1.3,-3.649998l0.400001,-0.45l-0.05,1.099999m3.1,19.250001l-0.55,-0.550001q-1.8,-1.85 -2.4,-3.35l-0.1,-0.25q1,2 3.05,4.15"/>
  <path id="svg_10" fill="url(#d)" d="m7.949994,28.512499l-0.349999,-0.299999l-0.4,-0.450001q-2.05,-2.150002 -3.05,-4.150002q-0.600001,-1.5 -1.050001,-3.550001q-0.35,-1.65 -0.55,-3.549999l0.3,1.299999q0.8,2.900002 2.050001,5.1l0.55,0.950001l1.75,2.949999l0.6,1.35l0.149999,0.35"/>
  <path id="svg_11" fill="url(#e)" d="m10.149992,29.512499q0.1,-1.4 -1.5,-3l-1.749998,-1.85q-0.15,-0.25 0,-0.65l0.85,-1.25l0.349999,-0.400002l1.049998,-0.949999q-0.099999,-0.65 -1.249998,-0.1q-1.15,0.6 -1.9,0.299999t-1.45,-2.049999q-0.550001,-1.549999 -0.650001,-5.85l0,-1.2l0.05,-1l0.15,-3l0.05,-1.099999q1.150001,-1.2 2.7,-2.1q0.85,-0.5 1.949998,-0.75l3.05,-0.3q3.599999,0 6.65,1.8l0.85,0.55l0.1,1.899999l0.15,3l0,2.2q-0.1,4.300001 -0.65,5.700001q-0.650002,1.6 -1.450001,2.199999q-0.75,0.6 -2.25,-0.4t-1,0.200001l0.6,0.549999l1.049999,1.050001l0.800001,1.049999l0,0.65l-0.700001,0.950001l-1.3,1.6q-0.7,0.9 -0.65,2.099998l-0.5,0.35l-1.85,0.35l-1.55,-0.549999"/>
  <path id="svg_12" fill="url(#f)" d="m14.049993,29.362497q-0.05,-1.200001 0.65,-2.1l1.3,-1.6l0.700001,-0.949999l0,-0.65l-0.800001,-1.049999l-1.049999,-1.050001l-0.6,-0.549999q-0.5,-1.200001 1,-0.200001t2.25,0.4q0.799999,-0.599998 1.450001,-2.199999q0.549999,-1.4 0.65,-5.700001l0,-2.2l-0.15,-3l-0.1,-1.899999q2.199999,1.75 2.449999,4.899999l-0.049999,1.650001l-0.049999,0.549999l-0.200001,1.150001l-0.65,1.749999l-0.700001,2.85l-0.6,2.4l-0.099998,0.200001l-0.450001,1.25l-0.950001,1.65l-1,1.5l-0.049999,0.1l-0.049999,0.049999l-0.400002,0.550001l-0.15,0.199999l-1.349999,1.85l0.05,-0.75l-1.05,0.9"/>
  <path id="svg_13" fill="url(#g)" d="m15.049993,29.212498l1.349999,-1.85l0.15,-0.199999l0.400002,-0.550001l0.049999,-0.049999l0.049999,-0.1l1,-1.5l0.950001,-1.65l0.450001,-1.25l0.099998,-0.200001l0.6,-2.4l0.700001,-2.85l0.65,-1.749999l-0.75,5.499999l-0.4,1.75l-0.950001,2.400002q-0.9,1.75 -3.549999,4.349998l-1.150001,0.900002l0.35,-0.550001"/>
  <path id="svg_14" fill="url(#h)" d="m7.799994,28.162498l0.449998,0.449999l0.95,0.200001l0.05,0.049999l0.75,0.550001l0.15,0.1l1.55,0.549999l1.85,-0.35l0.5,-0.35l1.05,-0.9l-0.05,0.75l-0.35,0.550001l-0.95,0.699999l-1.5,0.450001l-0.6,0l-0.799999,-0.200001l-1.5,-0.949999l-1.399999,-1.25l-0.149999,-0.35"/>
  <path id="svg_15" stroke="#fd9e66" stroke-miterlimit="3" stroke-linejoin="round" stroke-linecap="round" stroke-width="0.05" fill="none" d="m2.549993,16.512499l-0.2,-1.55l0,-1.25l0.05,-1.849999l0.05,-0.35q0.1,-2.250001 1.3,-3.65l0.400001,-0.45q1.150001,-1.2 2.7,-2.1q0.85,-0.5 1.949998,-0.75l3.05,-0.3q3.599999,0 6.65,1.8l0.85,0.55q2.199999,1.75 2.449999,4.899999l-0.049999,1.650001l-0.049999,0.549999l-0.200001,1.150001l-0.75,5.499999l-0.4,1.75l-0.950001,2.400002q-0.9,1.75 -3.549999,4.349998l-1.150001,0.900002l-0.95,0.699999l-1.5,0.450001l-0.6,0l-0.799999,-0.200001l-1.5,-0.949999l-1.399999,-1.25l-0.349999,-0.300001l-0.4,-0.449999l-0.55,-0.550001q-1.8,-1.85 -2.4,-3.35l-0.1,-0.25q-0.600001,-1.5 -1.050001,-3.550001q-0.35,-1.65 -0.55,-3.549999l0,0.000002z"/>
  <path id="svg_16" fill="url(#i)" d="m6.899994,15.112498q0.45,0.099999 0.8,0.349999q1.599998,0.85 2.099998,2.550001q0.599999,1.75 -0.25,3.349998q-0.75,1.550001 -2.449998,1.950001q-1.7,0.5 -3.250001,-0.4q-1.55,-0.85 -2.099999,-2.550001q-0.6,-1.700001 0.25,-3.300001q0.75,-1.549999 2.45,-2.049999l2.45,0.1"/>
  <path id="svg_17" fill="url(#j)" d="m16.499992,15.112498l2.450001,-0.05q1.65,0.45 2.450001,2.049999q0.799999,1.550001 0.25,3.25q-0.550001,1.75 -2.15,2.6q-1.550001,0.9 -3.25,0.4q-1.650001,-0.449999 -2.450001,-2q-0.8,-1.549999 -0.25,-3.299999q0.55,-1.700001 2.15,-2.6l0.800001,-0.349999"/>
  <path id="svg_18" fill="url(#k)" d="m15.649992,18.162498l0.6,-0.050001l0.6,-0.099998q0.65,0 1,0.549999l0.25,0.75q0,0.85 -0.35,1.4q-0.450001,0.9 -1.450001,0.9q-1.249999,0 -2.049999,-1.049999q-0.6,-0.799999 -0.6,-1.5q0,-1.25 0.55,-1.200001l1.45,0.300001"/>
  <path id="svg_19" fill="url(#l)" d="m7.149994,18.162498l1.499998,-0.300001q0.55,-0.049999 0.55,1.200001q0,0.700001 -0.599999,1.5q-0.799998,1.049999 -2.049998,1.049999q-1,0 -1.5,-0.9q-0.3,-0.549999 -0.3,-1.4l0.25,-0.75q0.35,-0.549999 0.95,-0.549999l0.6,0.099998l0.6,0.050001"/>
  <path id="svg_20" fill="url(#m)" d="m19.249992,7.512498l0.049999,0.05l-0.099998,-0.05l0.049999,0"/>
  <path id="svg_21" fill="url(#n)" d="m5.849994,3.662498l-1.3,4.3l-0.600001,0.55l-0.7,0.900001l-0.6,1.15l-0.15,2l0.2,2.15l0,0.1l-0.4,0l-0.599999,-2.75l-0.05,-1.35l0,-0.599999l0.2,-1.95q0.35,-1.45 1.1,-2.75q0.6,-1.2 1.700001,-2.25l2,-1.6l-0.8,2.1"/>
  <path id="svg_22" fill="url(#o)" d="m17.649992,1.862498l1.550001,1.3q3,3.1 3.049999,7.549999l-0.6,3.35l-0.5,-0.5l0.050001,-1.2q0,-2.400001 -1.1,-4.3l-0.800001,-0.5l-0.049999,-0.05l-1.6,-5.65"/>
  <path id="svg_23" fill="url(#p)" d="m19.249992,7.512498l-0.049999,0q-1.050001,-0.65 -2.35,-0.75q-2.700001,-0.25 -4.6,2q-1.95,-2.25 -4.599997,-2q-1.85,0.15 -3.1,1.2l1.3,-4.3l0.8,-2.1l0.35,-0.2q2.199997,-1.3 4.899997,-1.3q3.200001,0 5.75,1.8l1.6,5.65"/>
  <path id="svg_24" stroke="#fd9e66" stroke-miterlimit="3" stroke-linejoin="round" stroke-linecap="round" stroke-width="0.05" fill="none" d="m6.649994,1.562498l-2,1.6q-1.100001,1.05 -1.700001,2.25q-0.75,1.3 -1.1,2.75l-0.2,1.95l0,0.599999l0.05,1.35l0.599999,2.75m4.350001,-13.25l0.35,-0.2q2.199998,-1.3 4.899998,-1.3q3.200001,0 5.75,1.8l1.550001,1.3q3,3.1 3.049999,7.549999l-0.6,3.35"/>
  <path id="svg_25" fill="url(#q)" d="m12.649992,0.412498q5.550001,1.5 6.449999,2.5q2,2.3 2,4.450001q0,3.5 -5.999999,3.5l-1.650001,-0.25q-0.599999,-0.45 -1.15,-2.05q-0.6,-1.75 -0.5,-2.699999l-0.05,-2.15q0,-2.05 0.8,-3.35l0.099999,0.05"/>
  <path id="svg_26" fill="url(#r)" d="m14.449992,0.812498q3.400001,0.55 5.55,3.5q1.85,2.5 1.85,5.05l-0.5,3.7l-0.050001,0l0.200001,-1.95q0,-3.05 -1.65,-5.9q-2.1,-3.55 -5.8,-4.4l0.4,0"/>
  <path id="svg_27" fill="url(#s)" d="m8.549993,0.712498q-2.799998,1.7 -4.549999,4.65q-1.65,2.8 -1.65,5.449999q0,1.75 0.5,2.9l0,0.200001l-0.05,0q-0.85,-2.6 -0.85,-4.8l0.15,-1.35q0,-0.95 2.1,-3.8q1.45,-2.2 4.299998,-3.25l0.05,0"/>
  <path id="svg_28" fill="url(#t)" d="m18.199993,2.412498q1.050001,0.85 1.9,2.200001q-0.5,2.1 -2.449999,3.699999q-2.500001,2 -6.05,2t-6.099998,-2q-2.200001,-1.8 -2.450001,-4.3l1.05,-0.8q0.849999,-0.65 2.45,-1.55q1.599998,-0.95 3.199998,-1.35l2.15,-0.25l1.85,0.15l1.3,0.35l1.249999,0.6q0.85,0.3 1.900002,1.25"/>
 </g>
</svg>