<svg width="24" height="31" xmlns="http://www.w3.org/2000/svg"><defs><radialGradient fy="0" fx="0" r="819.2" cy="0" cx="0" spreadMethod="pad" gradientTransform="matrix(.00403 0 0 .00409 21.35 17.375)" gradientUnits="userSpaceOnUse" id="a"><stop stop-color="#d3873d" offset="0"/><stop stop-color="#f5c9ab" offset=".992"/></radialGradient><radialGradient fy="0" fx="0" r="819.2" cy="0" cx="0" spreadMethod="pad" gradientTransform="matrix(.00351 0 0 .00356 3.5 17.475)" gradientUnits="userSpaceOnUse" id="b"><stop stop-color="#d3873d" offset="0"/><stop stop-color="#f5c9ab" offset=".992"/></radialGradient><linearGradient y2=".61" y1=".739" x2=".89" x1="-.915" id="c"><stop stop-color="#faa684" offset="0"/><stop stop-color="#ffecd9" offset="1"/></linearGradient><radialGradient fy="0" fx="0" r="819.2" cy="0" cx="0" spreadMethod="pad" gradientTransform="matrix(.00945 -.00471 .0076 .01518 .7 24.775)" gradientUnits="userSpaceOnUse" id="d"><stop stop-color="#fba784" offset="0"/><stop stop-color="#ffecd9" offset="1"/></radialGradient><radialGradient fy="0" fx="0" r="819.2" cy="0" cx="0" spreadMethod="pad" gradientTransform="matrix(.01625 0 0 .02328 12.35 14.525)" gradientUnits="userSpaceOnUse" id="e"><stop stop-color="#fee8d4" offset=".431"/><stop stop-color="#fedcc6" offset=".992"/></radialGradient><linearGradient y2=".59" y1=".759" x2=".051" x1="2.207" id="f"><stop stop-color="#faa684" offset="0"/><stop stop-color="#ffecd9" offset="1"/></linearGradient><radialGradient fy="0" fx="0" r="819.2" cy="0" cx="0" spreadMethod="pad" gradientTransform="matrix(.00989 .0057 -.01053 .01823 24.35 22.225)" gradientUnits="userSpaceOnUse" id="g"><stop stop-color="#fba784" offset="0"/><stop stop-color="#ffecd9" offset="1"/></radialGradient><linearGradient y2="-.555" y1="3.61" x2=".795" x1=".589" id="h"><stop stop-color="#fba784" offset="0"/><stop stop-color="#ffecd9" offset="1"/></linearGradient><radialGradient fy="0" fx="0" r="819.2" cy="0" cx="0" spreadMethod="pad" gradientTransform="matrix(-.0046 .0025 -.00386 -.00539 5.8 19.525)" gradientUnits="userSpaceOnUse" id="i"><stop stop-color="#ffd5cc" offset="0"/><stop stop-opacity="0" stop-color="#ffdcd0" offset="1"/></radialGradient><radialGradient fy="0" fx="0" r="819.2" cy="0" cx="0" spreadMethod="pad" gradientTransform="matrix(.0046 .0025 .00388 -.00539 18.05 19.525)" gradientUnits="userSpaceOnUse" id="j"><stop stop-color="#ffd5cc" offset="0"/><stop stop-opacity="0" stop-color="#ffdcd0" offset="1"/></radialGradient><radialGradient fy="0" fx="0" r="819.2" cy="0" cx="0" spreadMethod="pad" gradientTransform="matrix(-.00269 0 0 .00206 15.85 19.625)" gradientUnits="userSpaceOnUse" id="k"><stop stop-opacity=".173" stop-color="#fff" offset="0"/><stop stop-opacity="0" stop-color="#fff" offset="1"/></radialGradient><radialGradient fy="0" fx="0" r="819.2" cy="0" cx="0" spreadMethod="pad" gradientTransform="matrix(.00269 0 0 .00206 7.5 19.625)" gradientUnits="userSpaceOnUse" id="l"><stop stop-opacity=".173" stop-color="#fff" offset="0"/><stop stop-opacity="0" stop-color="#fff" offset="1"/></radialGradient><radialGradient fy="0" fx="41" r="819.2" cy="0" cx="0" spreadMethod="pad" gradientTransform="matrix(.01125 0 0 .01088 11.7 -3.225)" gradientUnits="userSpaceOnUse" id="m"><stop stop-color="#fff" offset="0"/><stop stop-color="#ffecd9" offset=".988"/></radialGradient><linearGradient y2="1.458" y1="1.674" x2="1.529" x1="-1.289" id="n"><stop stop-color="#faa684" offset="0"/><stop stop-color="#ffecd9" offset="1"/></linearGradient><linearGradient y2="1.49" y1="1.805" x2="-.697" x1="2.936" id="o"><stop stop-color="#faa684" offset="0"/><stop stop-color="#ffecd9" offset="1"/></linearGradient><radialGradient fy="0" fx="0" r="819.2" cy="0" cx="0" spreadMethod="pad" gradientTransform="matrix(.01625 0 0 .02328 12.35 14.525)" gradientUnits="userSpaceOnUse" id="p"><stop stop-color="#fee8d4" offset=".431"/><stop stop-color="#fedcc6" offset=".992"/></radialGradient><radialGradient fy="0" fx="0" r="819.2" cy="0" cx="0" spreadMethod="pad" gradientTransform="matrix(.01094 0 0 .01059 18.55 3.475)" gradientUnits="userSpaceOnUse" id="q"><stop stop-opacity=".161" stop-color="#fff" offset="0"/><stop stop-opacity="0" stop-color="#fff" offset="1"/></radialGradient><radialGradient fy="0" fx="0" r="819.2" cy="0" cx="0" spreadMethod="pad" gradientTransform="matrix(.00906 0 0 .00877 18.15 7.025)" gradientUnits="userSpaceOnUse" id="r"><stop stop-opacity=".643" stop-color="#fff" offset="0"/><stop stop-opacity="0" stop-color="#fff" offset="1"/></radialGradient><radialGradient fy="0" fx="0" r="819.2" cy="0" cx="0" spreadMethod="pad" gradientTransform="matrix(.00938 0 0 .0091 5.55 7.425)" gradientUnits="userSpaceOnUse" id="s"><stop stop-opacity=".502" stop-color="#fff" offset="0"/><stop stop-opacity="0" stop-color="#fff" offset="1"/></radialGradient><radialGradient fy="0" fx="0" r="819.2" cy="0" cx="0" spreadMethod="pad" gradientTransform="matrix(.0105 0 0 .01016 11.85 3.475)" gradientUnits="userSpaceOnUse" id="t"><stop stop-opacity=".502" stop-color="#fff" offset="0"/><stop stop-opacity="0" stop-color="#fff" offset="1"/></radialGradient></defs><path fill="none" d="M-1-1h582v402H-1z"/><g><path fill="#f7d2bb" d="M21 14.312l.45-.25q.95-.35 1.6.25.65.65.65 1.2 0 .85-.55 1.95l-.8 1.6-.2.7-.2.65-.7 1-1.15.2h-.05l.95-7.3m.2 5.55l.05-.15.1-.35.6-.75h.15l-.05.05-.75 1.5v.1q1.5-1.85 1.85-4.35.15-1.2-1.05-.8l-.4.35q-.55 1.25-.85 2.7l.15.1v.2l-.05.25-.35 1.65.1.1.15-.05.35-.55"/><path fill="#efb087" d="M21 18.462v-.2l-.15-.1q.3-1.45.85-2.7l.4-.35q1.2-.4 1.05.8-.35 2.5-1.85 4.35v-.1l.75-1.5.05-.05h-.15l-.6.75-.1.35-.05.15-.05-.65.25-.45.55-.4q.8-.6.8-1.8l-.1-.85q-.05-.35-.3-.35l-.35.1-.05.05q-.45.55-.5 1.15l.05 1.05-.15.55-.4.45.05-.25"/><path fill="url(#a)" d="M20.85 20.412l-.15.05-.1-.1.35-1.65.4-.45.15-.55-.05-1.05q.05-.6.5-1.15l.05-.05.35-.1q.25 0 .3.35l.1.85q0 1.2-.8 1.8l-.55.4-.25.45.05.65-.35.55"/><path stroke="#fd9e66" stroke-miterlimit="3" stroke-linejoin="round" stroke-linecap="round" stroke-width=".05" fill="none" d="M21 14.312l.45-.25q.95-.35 1.6.25.65.65.65 1.2 0 .85-.55 1.95l-.8 1.6-.2.7-.2.65-.7 1-1.15.2h-.05"/><path fill="#f7d2bb" d="M4.15 21.412q-.7.5-1.25.25t-.65-.95L2 19.562l-.95-1.65q-.8-1.15-.8-2.05l.1-.8q.25-.65.9-.6.6.05 1.25.5l1.65 6.45m-1.4-3.9l-.45-1.1-.7-1.1q-.4-.4-.7-.1l-.2.85q0 .65.35 1.35l.6 1.1.5.9.4 1.15h.05l.05-.2.05-.55q.05-.35-.45-.75l-.2-.25-.05-.1.05-.15q.4 0 .75.55l.2.6.05-.65-.05-.55-.25-1"/><path fill="#efb087" d="M2.05 18.812l.2.25q.5.4.45.75l-.05.55-.05.2h-.05l-.4-1.15-.5-.9-.6-1.1q-.35-.7-.35-1.35l.2-.85q.3-.3.7.1l.7 1.1.45 1.1.25 1-.7-1.7q-.75-1.35-1.1-1.35l-.15.05-.05.05-.05.6q0 .6.5 1.4l.55 1.15.05.1"/><path fill="url(#b)" d="M1.45 17.562q-.5-.8-.5-1.4l.05-.6.05-.05.15-.05q.35 0 1.1 1.35l.7 1.7.05.55-.05.65-.2-.6q-.35-.55-.75-.55l-.05.15-.55-1.15"/><path stroke="#fd9e66" stroke-miterlimit="3" stroke-linejoin="round" stroke-linecap="round" stroke-width=".05" fill="none" d="M4.15 21.412q-.7.5-1.25.25t-.65-.95L2 19.562l-.95-1.65q-.8-1.15-.8-2.05l.1-.8q.25-.65.9-.6.6.05 1.25.5"/><path fill="url(#c)" d="M4.1 8.512l-.15 3-.05 1v1.2q.1 4.3.65 5.85.7 1.75 1.45 2.05.75.3 1.9-.3 1.15-.55 1.25.1l-1.05.95-.35.4-.85 1.25q-.15.4 0 .65l1.75 1.85q1.6 1.6 1.5 3l-.15-.1-.75-.55-.05-.05-.95-.2-.45-.45-.6-1.35-1.75-2.95-.55-.95q-1.25-2.2-2.05-5.1l-.3-1.3-.2-1.55v-1.25l.05-1.85.05-.35q.1-2.25 1.3-3.65l.4-.45-.05 1.1m3.1 19.25l-.55-.55q-1.8-1.85-2.4-3.35l-.1-.25q1 2 3.05 4.15"/><path fill="url(#d)" d="M7.95 28.512l-.35-.3-.4-.45q-2.05-2.15-3.05-4.15-.6-1.5-1.05-3.55-.35-1.65-.55-3.55l.3 1.3q.8 2.9 2.05 5.1l.55.95 1.75 2.95.6 1.35.15.35"/><path fill="url(#e)" d="M10.15 29.512q.1-1.4-1.5-3l-1.75-1.85q-.15-.25 0-.65l.85-1.25.35-.4 1.05-.95q-.1-.65-1.25-.1-1.15.6-1.9.3t-1.45-2.05q-.55-1.55-.65-5.85v-1.2l.05-1 .15-3 .05-1.1q1.15-1.2 2.7-2.1.85-.5 1.95-.75l3.05-.3q3.6 0 6.65 1.8l.85.55.1 1.9.15 3v2.2q-.1 4.3-.65 5.7-.65 1.6-1.45 2.2-.75.6-2.25-.4t-1 .2l.6.55 1.05 1.05.8 1.05v.65l-.7.95-1.3 1.6q-.7.9-.65 2.1l-.5.35-1.85.35-1.55-.55"/><path fill="url(#f)" d="M14.05 29.362q-.05-1.2.65-2.1l1.3-1.6.7-.95v-.65l-.8-1.05-1.05-1.05-.6-.55q-.5-1.2 1-.2t2.25.4q.8-.6 1.45-2.2.55-1.4.65-5.7v-2.2l-.15-3-.1-1.9q2.2 1.75 2.45 4.9l-.05 1.65-.05.55-.2 1.15-.65 1.75-.7 2.85-.6 2.4-.1.2-.45 1.25-.95 1.65-1 1.5-.05.1-.05.05-.4.55-.15.2-1.35 1.85.05-.75-1.05.9"/><path fill="url(#g)" d="M15.05 29.212l1.35-1.85.15-.2.4-.55.05-.05.05-.1 1-1.5.95-1.65.45-1.25.1-.2.6-2.4.7-2.85.65-1.75-.75 5.5-.4 1.75-.95 2.4q-.9 1.75-3.55 4.35l-1.15.9.35-.55"/><path fill="url(#h)" d="M7.8 28.162l.45.45.95.2.05.05.75.55.15.1 1.55.55 1.85-.35.5-.35 1.05-.9-.05.75-.35.55-.95.7-1.5.45h-.6l-.8-.2-1.5-.95-1.4-1.25-.15-.35"/><path stroke="#fd9e66" stroke-miterlimit="3" stroke-linejoin="round" stroke-linecap="round" stroke-width=".05" fill="none" d="M2.55 16.512l-.2-1.55v-1.25l.05-1.85.05-.35q.1-2.25 1.3-3.65l.4-.45q1.15-1.2 2.7-2.1.85-.5 1.95-.75l3.05-.3q3.6 0 6.65 1.8l.85.55q2.2 1.75 2.45 4.9l-.05 1.65-.05.55-.2 1.15-.75 5.5-.4 1.75-.95 2.4q-.9 1.75-3.55 4.35l-1.15.9-.95.7-1.5.45h-.6l-.8-.2-1.5-.95-1.4-1.25-.35-.3-.4-.45-.55-.55q-1.8-1.85-2.4-3.35l-.1-.25q-.6-1.5-1.05-3.55-.35-1.65-.55-3.55z"/><path fill="url(#i)" d="M6.9 15.112q.45.1.8.35 1.6.85 2.1 2.55.6 1.75-.25 3.35-.75 1.55-2.45 1.95-1.7.5-3.25-.4-1.55-.85-2.1-2.55-.6-1.7.25-3.3.75-1.55 2.45-2.05l2.45.1"/><path fill="url(#j)" d="M16.5 15.112l2.45-.05q1.65.45 2.45 2.05.8 1.55.25 3.25-.55 1.75-2.15 2.6-1.55.9-3.25.4-1.65-.45-2.45-2-.8-1.55-.25-3.3.55-1.7 2.15-2.6l.8-.35"/><path fill="url(#k)" d="M15.65 18.162l.6-.05.6-.1q.65 0 1 .55l.25.75q0 .85-.35 1.4-.45.9-1.45.9-1.25 0-2.05-1.05-.6-.8-.6-1.5 0-1.25.55-1.2l1.45.3"/><path fill="url(#l)" d="M7.15 18.162l1.5-.3q.55-.05.55 1.2 0 .7-.6 1.5-.8 1.05-2.05 1.05-1 0-1.5-.9-.3-.55-.3-1.4l.25-.75q.35-.55.95-.55l.6.1.6.05"/><path fill="url(#m)" d="M19.25 7.512l.05.05-.1-.05h.05"/><path fill="url(#n)" d="M5.85 3.662l-1.3 4.3-.6.55-.7.9-.6 1.15-.15 2 .2 2.15v.1h-.4l-.6-2.75-.05-1.35v-.6l.2-1.95q.35-1.45 1.1-2.75.6-1.2 1.7-2.25l2-1.6-.8 2.1"/><path fill="url(#o)" d="M17.65 1.862l1.55 1.3q3 3.1 3.05 7.55l-.6 3.35-.5-.5.05-1.2q0-2.4-1.1-4.3l-.8-.5-.05-.05-1.6-5.65"/><path fill="url(#p)" d="M19.25 7.512h-.05q-1.05-.65-2.35-.75-2.7-.25-4.6 2-1.95-2.25-4.6-2-1.85.15-3.1 1.2l1.3-4.3.8-2.1.35-.2q2.2-1.3 4.9-1.3 3.2 0 5.75 1.8l1.6 5.65"/><path stroke="#fd9e66" stroke-miterlimit="3" stroke-linejoin="round" stroke-linecap="round" stroke-width=".05" fill="none" d="M6.65 1.562l-2 1.6q-1.1 1.05-1.7 2.25-.75 1.3-1.1 2.75l-.2 1.95v.6l.05 1.35.6 2.75m4.35-13.25l.35-.2q2.2-1.3 4.9-1.3 3.2 0 5.75 1.8l1.55 1.3q3 3.1 3.05 7.55l-.6 3.35"/><path fill="url(#q)" d="M12.65.412q5.55 1.5 6.45 2.5 2 2.3 2 4.45 0 3.5-6 3.5l-1.65-.25q-.6-.45-1.15-2.05-.6-1.75-.5-2.7l-.05-2.15q0-2.05.8-3.35l.1.05"/><path fill="url(#r)" d="M14.45.812q3.4.55 5.55 3.5 1.85 2.5 1.85 5.05l-.5 3.7h-.05l.2-1.95q0-3.05-1.65-5.9-2.1-3.55-5.8-4.4h.4"/><path fill="url(#s)" d="M8.55.712q-2.8 1.7-4.55 4.65-1.65 2.8-1.65 5.45 0 1.75.5 2.9v.2H2.8q-.85-2.6-.85-4.8l.15-1.35q0-.95 2.1-3.8 1.45-2.2 4.3-3.25h.05"/><path fill="url(#t)" d="M18.2 2.412q1.05.85 1.9 2.2-.5 2.1-2.45 3.7-2.5 2-6.05 2t-6.1-2q-2.2-1.8-2.45-4.3l1.05-.8q.85-.65 2.45-1.55 1.6-.95 3.2-1.35l2.15-.25 1.85.15 1.3.35 1.25.6q.85.3 1.9 1.25"/></g></svg>