<svg width="24" height="32" xmlns="http://www.w3.org/2000/svg">
 <defs>
  <linearGradient y2="0.428236" y1="0.490881" x2="-0.17048" x1="2.350455" id="a">
   <stop stop-color="#fab89d" offset="0"/>
   <stop stop-color="#ffecd9" offset="1"/>
  </linearGradient>
  <linearGradient y2="0.437985" y1="0.556833" x2="0.472608" x1="1.121142" id="b">
   <stop stop-color="#fab89d" offset="0"/>
   <stop stop-color="#ffecd9" offset="1"/>
  </linearGradient>
  <linearGradient y2="0.577357" y1="0.671077" x2="0.618683" x1="-0.274494" id="c">
   <stop stop-color="#fab89d" offset="0"/>
   <stop stop-color="#ffecd9" offset="1"/>
  </linearGradient>
  <linearGradient y2="0.240579" y1="0.47175" x2="0.179599" x1="0.996872" id="d">
   <stop stop-color="#fab89d" offset="0"/>
   <stop stop-color="#ffecd9" offset="1"/>
  </linearGradient>
  <linearGradient y2="0.579744" y1="0.745558" x2="0.973501" x1="-0.049258" id="e">
   <stop stop-color="#f59267" offset="0"/>
   <stop stop-color="#fab89d" offset="0.141"/>
   <stop stop-color="#ffead5" offset="1"/>
  </linearGradient>
  <linearGradient y2="-0.251589" y1="1.818256" x2="0.462557" x1="0.47862" id="f">
   <stop stop-color="#fab89d" offset="0"/>
   <stop stop-color="#ffecd9" offset="1"/>
  </linearGradient>
  <linearGradient y2="0.46377" y1="0.408958" x2="1.18434" x1="-0.344833" id="g">
   <stop stop-color="#fab89d" offset="0"/>
   <stop stop-color="#ffecd9" offset="1"/>
  </linearGradient>
  <radialGradient fy="0" fx="0" r="819.2" cy="0" cx="0" spreadMethod="pad" gradientTransform="matrix(0.0027199999894946814,-0.000029999999242136255,0.000029999999242136255,0.0019000000320374966,11.68749713897705,30.049999237060547)" gradientUnits="userSpaceOnUse" id="h">
   <stop stop-opacity="0.502" stop-color="#fff" offset="0.314"/>
   <stop stop-opacity="0" stop-color="#fff" offset="1"/>
  </radialGradient>
  <radialGradient fy="0" fx="210315" r="819.2" cy="0" cx="0" spreadMethod="pad" gradientTransform="matrix(0.006599999964237213,0.004800000227987766,-0.003590000094845891,0.004800000227987766,5.037497043609619,21.75)" gradientUnits="userSpaceOnUse" id="i">
   <stop stop-opacity="0.6" stop-color="#febcbc" offset="0"/>
   <stop stop-opacity="0" stop-color="#ffeddb" offset="1"/>
  </radialGradient>
  <radialGradient fy="0" fx="237" r="819.2" cy="0" cx="0" spreadMethod="pad" gradientTransform="matrix(0.006260000169277191,-0.003539999946951866,0.0026599999982863665,0.004550000187009573,19.23749351501465,21.650001525878906)" gradientUnits="userSpaceOnUse" id="j">
   <stop stop-opacity="0.6" stop-color="#febcbc" offset="0"/>
   <stop stop-opacity="0" stop-color="#ffeddb" offset="1"/>
  </radialGradient>
  <radialGradient fy="0" fx="0" r="819.2" cy="0" cx="0" spreadMethod="pad" gradientTransform="matrix(0.0007999999797903001,0.000019999999494757503,-0.000019999999494757503,0.0008500000112690032,19.087493896484375,19.950000762939453)" gradientUnits="userSpaceOnUse" id="k">
   <stop stop-opacity="0.373" stop-color="#fff" offset="0"/>
   <stop stop-opacity="0" stop-color="#fff" offset="1"/>
  </radialGradient>
  <radialGradient fy="0" fx="0" r="819.2" cy="0" cx="0" spreadMethod="pad" gradientTransform="matrix(0.0008900000248104334,0.000019999999494757503,-0.000019999999494757503,0.0009200000204145908,5.3874969482421875,20.049999237060547)" gradientUnits="userSpaceOnUse" id="l">
   <stop stop-opacity="0.373" stop-color="#fff" offset="0"/>
   <stop stop-opacity="0" stop-color="#fff" offset="1"/>
  </radialGradient>
  <radialGradient fy="0" fx="0" r="819.2" cy="0" cx="0" spreadMethod="pad" gradientTransform="matrix(0.011839999817311764,0,0,0.011470000259578228,18.637495040893555,3.6000003814697266)" gradientUnits="userSpaceOnUse" id="m">
   <stop stop-opacity="0.161" stop-color="#fff" offset="0"/>
   <stop stop-opacity="0" stop-color="#fff" offset="1"/>
  </radialGradient>
  <linearGradient y2="0.782186" y1="0.726972" x2="1.165906" x1="-0.21035" id="n">
   <stop stop-color="#fab89d" offset="0"/>
   <stop stop-color="#ffecd9" offset="1"/>
  </linearGradient>
  <linearGradient y2="0.732136" y1="0.795954" x2="0.01504" x1="1.946125" id="o">
   <stop stop-color="#fab89d" offset="0"/>
   <stop stop-color="#ffecd9" offset="1"/>
  </linearGradient>
  <radialGradient fy="0" fx="0" r="819.2" cy="0" cx="0" spreadMethod="pad" gradientTransform="matrix(0.009809999726712704,0,0,0.009499999694526196,18.337493896484375,7.550000190734863)" gradientUnits="userSpaceOnUse" id="p">
   <stop stop-opacity="0.643" stop-color="#fff" offset="0"/>
   <stop stop-opacity="0" stop-color="#fff" offset="1"/>
  </radialGradient>
  <radialGradient fy="0" fx="0" r="819.2" cy="0" cx="0" spreadMethod="pad" gradientTransform="matrix(0.010160000063478947,0,0,0.009840000420808792,4.587497234344482,7.950000286102295)" gradientUnits="userSpaceOnUse" id="q">
   <stop stop-opacity="0.502" stop-color="#fff" offset="0"/>
   <stop stop-opacity="0" stop-color="#fff" offset="1"/>
  </radialGradient>
  <radialGradient fy="0" fx="0" r="819.2" cy="0" cx="0" spreadMethod="pad" gradientTransform="matrix(0.011350000277161598,0,0,0.010999999940395355,11.387496948242188,3.700000762939453)" gradientUnits="userSpaceOnUse" id="r">
   <stop stop-opacity="0.502" stop-color="#fff" offset="0"/>
   <stop stop-opacity="0" stop-color="#fff" offset="1"/>
  </radialGradient>
 </defs>
 <g>
  <title>background</title>
  <rect fill="none" id="canvas_background" height="402" width="582" y="-1" x="-1"/>
 </g>
 <g>
  <title>Layer 1</title>
  <g id="svg_1">
   <path id="svg_2" fill="#f7d2bb" d="m22.737494,17.950001l-0.4,0.049999l-0.25,0.1l-0.199999,0.6l0.25,-0.050001q0.9,0.050001 0.849998,1.750002q-0.049999,1.099998 -0.549999,1.599998l-0.65,0.5l-0.85,0.650002l0.299999,-0.100002l0.950001,-0.599998q1.299999,-1 1.4,-2.800001l-0.049999,-0.9q-0.25,-0.799999 -0.800001,-0.799999m-0.349998,5.599998l0,-0.149998l-0.150002,-0.200001q-0.549999,0 -1.5,0.5l-0.199999,0.15l-0.200001,1.15l0.1,0.049999l0.25,0l0.5,-0.049999l0.450001,-0.25l0.599998,-0.9l0.150002,-0.300001"/>
   <path id="svg_3" fill="#f9c29f" d="m21.687494,19.65l-0.65,1.950001l-0.4,1.6l-0.1,0.65l0.199999,-0.15q0.950001,-0.5 1.5,-0.5l0.150002,0.200001l0,0.149998l0.4,-0.449999l0.6,-1.25l0.349998,-1.9l-0.199999,-1.200001l0.049999,0.9q-0.1,1.800001 -1.4,2.800001l-0.950001,0.599998l-0.299999,0.100002l0.85,-0.650002l0.65,-0.5q0.5,-0.5 0.549999,-1.599998q0.050001,-1.700001 -0.849998,-1.750002l-0.25,0.050001l-0.200001,0.949999"/>
   <path id="svg_4" stroke="#fd9e66" stroke-miterlimit="3" stroke-linejoin="round" stroke-linecap="round" stroke-width="0.05" fill="none" d="m20.537495,23.85l0.1,-0.65l0.4,-1.6l0.65,-1.950001l0.200001,-0.949999l0.199999,-0.6l0.25,-0.1l0.4,-0.049999q0.550001,0 0.800001,0.799999l0.199999,1.200001l-0.349998,1.9l-0.6,1.25l-0.4,0.449999m-1.85,0.300001l-0.200001,1.15l0.1,0.049999l0.25,0l0.5,-0.049999l0.450001,-0.25l0.599998,-0.9l0.150002,-0.300001"/>
   <path id="svg_5" fill="#f7d2bb" d="m1.187497,17.85l0.4,0.049999l0.25,0.1l0.200001,0.6l-0.25,-0.049999q-0.9,0.049999 -0.85,1.749998q0.1,1.100002 0.6,1.650002l0.65,0.450001l0.85,0.649998l-0.3,-0.049999l-0.95,-0.65q-1.4,-1 -1.450001,-2.75l0.05,-0.9q0.25,-0.85 0.8,-0.85m0.4,5.65l0,-0.15l0.150001,-0.199999q0.550001,-0.050001 1.5,0.449999l0.2,0.15l0.2,1.150002l-0.099999,0.049999l-0.3,0l-0.45,-0.049999l-0.450001,-0.25l-0.6,-0.850002l-0.150001,-0.299999"/>
   <path id="svg_6" fill="#f9c29f" d="m2.287498,19.550001l0.65,1.949999l0.35,1.6l0.15,0.65l-0.2,-0.15q-0.95,-0.5 -1.5,-0.449999l-0.150001,0.199999l0,0.15l-0.4,-0.5q-0.399999,-0.4 -0.6,-1.200001l-0.4,-1.899998l0.2,-1.200001l-0.05,0.9q0.05,1.75 1.450001,2.75l0.95,0.65l0.3,0.049999l-0.85,-0.649998l-0.65,-0.450001q-0.5,-0.549999 -0.6,-1.650002q-0.05,-1.699999 0.85,-1.749998l0.25,0.049999l0.25,0.950001"/>
   <path id="svg_7" stroke="#fd9e66" stroke-miterlimit="3" stroke-linejoin="round" stroke-linecap="round" stroke-width="0.05" fill="none" d="m3.437497,23.75l-0.15,-0.65l-0.35,-1.6l-0.65,-1.949999l-0.25,-0.950001l-0.200001,-0.6l-0.25,-0.1l-0.4,-0.049999q-0.55,0 -0.8,0.85l-0.2,1.200001l0.4,1.899998q0.200001,0.800001 0.6,1.200001l0.4,0.5m1.850001,0.25l0.2,1.150002l-0.099999,0.049999l-0.3,0l-0.45,-0.049999l-0.450001,-0.25l-0.6,-0.850002l-0.150001,-0.299999"/>
   <path id="svg_8" fill="#ffecd9" d="m19.637495,12.400001l-0.1,0.9q-0.450001,3.3 -0.550001,5.750001q-0.15,2.4 -1,3.749998q-0.9,1.300001 -1.899998,1.600002q-1.299998,0.449999 -1.999999,1.399998l-0.299999,1.75q-0.25,1.350002 0.15,2.850002l-0.75,0.849998l-0.6,0.450001l-2.65,-0.450001l0,-0.049999q0.4,-1.400002 -0.7,-2.450001l-1.9,-1.9l-0.5,-0.949999l-0.45,-1.600002l-0.75,-2.5l-0.55,-1.699999l-0.55,-3.15l-0.3,-3.700001l-0.05,-1.45l0.05,-4.55l0.8,-0.599999l0.6,-0.3q1.55,-1 3.2,-1.450001l3,-0.45l4.999997,0.5l1.700001,0.85q0.049999,3.7 1.1,6.599999"/>
   <path id="svg_9" fill="url(#a)" d="m18.537495,5.8l0.75,0.5l1.449999,1.3l0.650002,0.6l0.849998,2q0.35,1.45 0.200001,3.95l-0.1,2.05l-0.15,1.15l-0.4,1.75l0,0.299999q0,-2.349998 -1.450001,-5.299999l-0.699999,-1.7q-1.050001,-2.900001 -1.1,-6.6"/>
   <path id="svg_10" fill="url(#b)" d="m19.637495,12.400001l0.699999,1.7q1.450001,2.950001 1.450001,5.299999l0,-0.299999l0.4,-1.75l-0.450001,2.6l-1.199999,4.5l-0.15,0.4l-1.300001,1.75q-1.25,1.699999 -3.199997,3.300001l-0.849999,0.699999l-0.1,0.1q-1.2,0.799999 -2.35,1l0.6,-0.450001l0.75,-0.849998q-0.4,-1.5 -0.15,-2.850002l0.299999,-1.75q0.700001,-0.949999 1.999999,-1.399998q0.999998,-0.300001 1.899998,-1.600002q0.85,-1.349998 1,-3.749998q0.1,-2.450001 0.550001,-5.750001l0.1,-0.9"/>
   <path id="svg_11" fill="url(#c)" d="m4.187497,11.8l0.05,1.45l0.3,3.700001l0.55,3.15l0.55,1.699999l0.75,2.5l0.45,1.600002l0.5,0.949999l1.9,1.9q1.099999,1.049999 0.7,2.450001l-0.8,-0.450001l-1.1,-0.849998l-2.5,-2.450001l-1.45,-1.85l-1.15,-3l-1.050001,-3.75l-0.599999,-2.85l-0.200001,-0.65l-0.049999,-1.2l0.2,-1.75q0.25,-1.3 1.35,-3l1.650001,-2.150001l-0.05,4.55"/>
   <path id="svg_12" stroke="#fd9e66" stroke-miterlimit="3" stroke-linejoin="round" stroke-linecap="round" stroke-width="0.05" fill="none" d="m9.937497,31.200001l-0.8,-0.450001l-1.1,-0.849998l-2.5,-2.450001l-1.45,-1.85l-1.15,-3l-1.050001,-3.75l-0.599999,-2.85l-0.200001,-0.65l-0.049999,-1.2l0.2,-1.75q0.25,-1.3 1.35,-3l1.650001,-2.150001l0.8,-0.599999l0.6,-0.3q1.55,-1 3.2,-1.45l3,-0.45l4.999997,0.5l1.700001,0.849999l0.75,0.5l1.449999,1.3l0.650002,0.6l0.849998,2q0.35,1.45 0.200001,3.95l-0.1,2.05l-0.15,1.15l-0.450001,2.6l-1.199999,4.5l-0.15,0.4l-1.300001,1.75q-1.25,1.699999 -3.199997,3.300001l-0.849999,0.699999l-0.1,0.1q-1.200001,0.799999 -2.35,1l-2.65,-0.450001"/>
   <path id="svg_13" fill="url(#d)" d="m21.237494,20.6l0,-0.1l-0.049999,0l1.1,-3.75q-0.550001,4.299999 -1.75,7.700001l-0.15,0.4l-1.35,1.75q-1.200001,1.699999 -3.149998,3.25l-0.9,0.75l-0.1,0.1l-1.099999,0.65l0.5,-0.449999l0.5,-0.600002q3.499997,-3.75 4.249997,-5.299999l2.049999,-4.200001l0.15,-0.199999"/>
   <path id="svg_14" fill="url(#e)" d="m2.187497,18.1l0.05,-1.200001l0,-2.9l0.3,2.050001q1.15,7.1 2.05,8.699999q0.8,1.5 4.2,5.75l0,0.1l-0.750001,-0.75l-2.549999,-2.4q-0.9,-0.799999 -1.4,-1.85l-0.95,-2.25l-0.599999,-1.4l-0.25,-1.6l-0.1,-2.25"/>
   <path id="svg_15" fill="url(#f)" d="m7.037497,26.549999l0.85,1.850002l1.7,2.049999q1.1,1.200001 2.400001,1.200001q1.349999,0 2.5,-1.300001l1.649998,-2.199999q0.5,-0.950001 0.799999,-2.5l0.25,1.25l-0.299999,1.099998l-0.550001,1.299999l-0.399997,0.300001l-1.85,1.6l-4,0.15l-2,-1.75l-0.099999,-0.1l-0.75,-1.4l-0.25,-1.1l0.05,-0.450001"/>
   <path id="svg_16" fill="url(#g)" d="m1.237497,12.400001q0.3,-1.3 1.45,-3.05q0.95,-1.75 2.4,-2.7l0.05,0q-0.1,4.75 -1.55,8.099999q-1.4,3.1 -1.25,5.5l0,0.150002l-0.15,-0.6l-0.75,-3.400002l-0.05,-0.199999l-0.25,-1.200001l-0.05,-0.9l0.15,-1.7"/>
   <path id="svg_17" fill="url(#h)" d="m10.087497,29.150002l1.6,-0.350002l1.7,0.25q0.650001,0.200001 0.650001,0.700001q0,0.5 -0.6,0.900002q-0.7,0.449999 -1.6,0.599998q-0.849999,0.200001 -1.65,-0.4q-0.85,-0.550001 -0.8,-1.050001q-0.05,-0.5 0.7,-0.649998"/>
   <path id="svg_18" fill="url(#i)" d="m8.437497,18.800001q1.2,1.35 1.1,3.199999q0,1.700001 -1.25,3l-0.8,0.650002q-1,0.599998 -2.2,0.549999l-0.75,-0.049999q-0.65,-2 -1.7,-3.75l-1.4,-1.950001q0.35,-1 1.100001,-1.75q1.25,-1.25 3,-1.200001q1.1,0 1.95,0.550001l0.95,0.75"/>
   <path id="svg_19" fill="url(#j)" d="m21.887495,20.049999l-1.800001,4l-1.15,2.200001l-0.9,0.049999q-1.75,-0.049999 -2.849998,-1.349998q-1.2,-1.299999 -1.2,-3.049999q0.099999,-1.850002 1.349999,-3.1q1.199998,-1.200001 2.949998,-1.15q1.699999,0 2.9,1.299999l0.700001,1.1"/>
   <path id="svg_20" fill="url(#k)" d="m19.087494,20.6l-0.449999,-0.25l-0.200001,-0.4l0.200001,-0.450001l0.449999,-0.25l0.4,0.300001l0.200001,0.449999l-0.200001,0.400002q-0.199999,0.199999 -0.4,0.199999"/>
   <path id="svg_21" fill="url(#l)" d="m4.887497,19.5l0.5,-0.199999l0.5,0.25l0.2,0.499998q0,0.25 -0.3,0.450001l-0.45,0.25l-0.5,-0.299999l-0.15,-0.450001l0.2,-0.5"/>
   <path id="svg_22" fill="url(#m)" d="m12.487497,0.35q5.999996,1.6 6.949997,2.7q2.15,2.5 2.15,4.8q0,3.8 -6.449997,3.8q-1.349999,0 -1.8,-0.3q-0.65,-0.45 -1.25,-2.15q-0.65,-1.900001 -0.549999,-2.950001l-0.05,-2.349999q0,-2.2 0.9,-3.6l0.1,0.05"/>
   <path id="svg_23" fill="#ffecd9" d="m17.087494,7.3q-2.899997,-0.3 -4.999997,2.2q-1.15,-1.349999 -2.5,-1.9l-2.5,-0.3l-2,0.5l0.05,-1.349999l-0.2,-4.1l0.3,-0.2q2.799999,-2.150001 6.5,-2.1q3.349999,-0.05 6.049997,1.8l0.65,5.7l-1.35,-0.25"/>
   <path id="svg_24" fill="url(#n)" d="m3.837497,8.5l-0.75,0.75l-0.7,0.900001l-0.7,1.3l-0.1,0.75l-0.049999,1.349999l0,0.5l0.2,1.85l0,0.099999l-0.45,0q-0.4,-1.15 -0.6,-3l-0.05,-1.45l0,-0.599999l0.05,-0.8l0.2,-1.35l0.150001,-0.65l1,-2.3l1.45,-2.1l0.349999,-0.349999l1.1,-1.05l0.2,4.1l-0.05,1.349999l-1.25,0.7"/>
   <path id="svg_25" fill="url(#o)" d="m21.687494,14.650001l0.049999,-0.5l0.050001,-0.8q0,-2.65 -1.200001,-4.65l-0.799999,-0.55l-0.15,-0.1l-1.200001,-0.5l-0.65,-5.7l1.85,1.55l0.4,0.45l1.6,2.35l0.799999,2q0.450001,1.549999 0.5,3.349999l-0.6,3.650001l-0.65,-0.55"/>
   <path id="svg_26" stroke="#fd9e66" stroke-miterlimit="3" stroke-linejoin="round" stroke-linecap="round" stroke-width="0.05" fill="none" d="m22.337494,15.200001l0.6,-3.650001q-0.049999,-1.8 -0.5,-3.349999l-0.799999,-2l-1.6,-2.35l-0.4,-0.45l-1.85,-1.55q-2.699998,-1.85 -6.049997,-1.8q-3.700001,-0.05 -6.5,2.1l-0.3,0.2l-1.1,1.05l-0.349999,0.349999l-1.45,2.1l-1,2.3l-0.150001,0.65l-0.2,1.35l-0.05,0.8l0,0.599999l0.05,1.45q0.2,1.85 0.6,3"/>
   <path id="svg_27" fill="url(#p)" d="m22.187494,12.05q0,-3.3 -1.799999,-6.4q-2.300001,-3.85 -6.299998,-4.75l0.450001,0q3.699996,0.55 5.999997,3.75q2,2.7 2,5.5l-0.550001,4l-0.049999,0l0.25,-2.1"/>
   <path id="svg_28" fill="url(#q)" d="m3.237497,5.85q-1.800001,3 -1.800001,5.85q0,1.849999 0.5,3.15l0,0.25l-0.05,0q-0.849999,-2.85 -0.849999,-5.25l0.149999,-1.4q0,-1.1 2.25,-4.150001q1.6,-2.4 4.7,-3.5l0.05,0q-3.05,1.8 -4.95,5.05"/>
   <path id="svg_29" fill="url(#r)" d="m18.587494,2.55q1.1,0.95 2,2.400001q-0.5,2.299999 -2.65,4q-2.699997,2.2 -6.499997,2.2q-3.85,0 -6.6,-2.2q-2.4,-1.950001 -2.6,-4.650001l1.099999,-0.849999l2.650001,-1.700001q1.7,-1 3.45,-1.4l2.35,-0.3l2,0.150001l1.349999,0.4q0.45,0.25 1.399998,0.65l2.049999,1.3"/>
  </g>
 </g>
</svg>