<svg width="26" height="32" xmlns="http://www.w3.org/2000/svg"><defs><radialGradient fy="0" fx="0" r="819.2" cy="0" cx="0" spreadMethod="pad" gradientTransform="matrix(-.00443 .00041 .00041 .00444 21.675 18.75)" gradientUnits="userSpaceOnUse" id="a"><stop stop-color="#d3873d" offset="0"/><stop stop-color="#f5c9ab" offset=".992"/></radialGradient><radialGradient fy="0" fx="0" r="819.2" cy="0" cx="0" spreadMethod="pad" gradientTransform="matrix(.00443 .00041 -.00041 .00444 4.275 18.75)" gradientUnits="userSpaceOnUse" id="b"><stop stop-color="#d3873d" offset="0"/><stop stop-color="#f5c9ab" offset=".992"/></radialGradient><linearGradient y2=".503" y1=".599" x2=".549" x1="-.348" id="c"><stop stop-color="#fba784" offset="0"/><stop stop-color="#ffecd9" offset="1"/></linearGradient><linearGradient y2=".479" y1=".797" x2=".383" x1="1.633" id="d"><stop stop-color="#fbd1b7" offset=".314"/><stop stop-color="#fee0c8" offset=".604"/><stop stop-color="#ffecd9" offset=".898"/></linearGradient><linearGradient y2=".498" y1=".669" x2=".237" x1="1.534" id="e"><stop stop-color="#fba784" offset="0"/><stop stop-color="#ffecd9" offset="1"/></linearGradient><linearGradient y2=".547" y1=".672" x2=".661" x1="-.648" id="f"><stop stop-color="#fbd1b7" offset=".314"/><stop stop-color="#fee0c8" offset=".604"/><stop stop-color="#ffecd9" offset=".898"/></linearGradient><radialGradient fy="0" fx="0" r="819.2" cy="0" cx="0" spreadMethod="pad" gradientTransform="matrix(-.00374 -.00543 -.00449 .00249 6.675 20.6)" gradientUnits="userSpaceOnUse" id="g"><stop stop-opacity=".361" stop-color="#fab19f" offset="0"/><stop stop-opacity=".161" stop-color="#fcccad" offset=".675"/><stop stop-opacity="0" stop-color="#ffeddb" offset="1"/></radialGradient><radialGradient fy="0" fx="0" r="819.2" cy="0" cx="0" spreadMethod="pad" gradientTransform="matrix(.0117 0 0 .01134 19.975 3.6)" gradientUnits="userSpaceOnUse" id="h"><stop stop-opacity=".161" stop-color="#fff" offset="0"/><stop stop-opacity="0" stop-color="#fff" offset="1"/></radialGradient><linearGradient y2="1.338" y1="1.657" x2="-2.591" x1="2.369" id="i"><stop stop-color="#fba784" offset="0"/><stop stop-color="#ffecd9" offset="1"/></linearGradient><linearGradient y2="1.322" y1="1.517" x2="2.768" x1="-1.093" id="j"><stop stop-color="#fba784" offset="0"/><stop stop-color="#ffecd9" offset="1"/></linearGradient><linearGradient y2="2.557" y1="3.004" x2="3.873" x1="-2.776" id="k"><stop stop-color="#fbd1b7" offset=".314"/><stop stop-color="#fee0c8" offset=".604"/><stop stop-color="#ffecd9" offset=".898"/></linearGradient><radialGradient fy="0" fx="0" r="819.2" cy="0" cx="0" spreadMethod="pad" gradientTransform="matrix(.00969 0 0 .00938 19.475 7.45)" gradientUnits="userSpaceOnUse" id="l"><stop stop-opacity=".643" stop-color="#fff" offset="0"/><stop stop-opacity="0" stop-color="#fff" offset="1"/></radialGradient><radialGradient fy="0" fx="0" r="819.2" cy="0" cx="0" spreadMethod="pad" gradientTransform="matrix(.01004 0 0 .00974 5.925 7.9)" gradientUnits="userSpaceOnUse" id="m"><stop stop-opacity=".502" stop-color="#fff" offset="0"/><stop stop-opacity="0" stop-color="#fff" offset="1"/></radialGradient><radialGradient fy="0" fx="0" r="819.2" cy="0" cx="0" spreadMethod="pad" gradientTransform="matrix(.01123 0 0 .01088 12.725 3.65)" gradientUnits="userSpaceOnUse" id="n"><stop stop-opacity=".502" stop-color="#fff" offset="0"/><stop stop-opacity="0" stop-color="#fff" offset="1"/></radialGradient><radialGradient fy="0" fx="48" r="819.2" cy="0" cx="0" spreadMethod="pad" gradientTransform="matrix(.01968 0 0 .0306 24.375 19.45)" gradientUnits="userSpaceOnUse" id="o"><stop stop-opacity=".451" stop-color="#fab09e" offset="0"/><stop stop-opacity=".161" stop-color="#fcccad" offset=".667"/><stop stop-opacity="0" stop-color="#ffeddb" offset="1"/></radialGradient><radialGradient fy="0" fx="48" r="819.2" cy="0" cx="0" spreadMethod="pad" gradientTransform="matrix(.00374 -.00543 .00449 .00249 19.075 21.25)" gradientUnits="userSpaceOnUse" id="p"><stop stop-opacity=".451" stop-color="#fab09e" offset="0"/><stop stop-opacity=".161" stop-color="#fcccad" offset=".675"/><stop stop-opacity="0" stop-color="#ffeddb" offset="1"/></radialGradient><radialGradient fy="0" fx="0" r="819.2" cy="0" cx="0" spreadMethod="pad" gradientTransform="translate(11.425 13.45) scale(.00645)" gradientUnits="userSpaceOnUse" id="q"><stop stop-opacity=".212" stop-color="#fff" offset=".196"/><stop stop-opacity="0" stop-color="#fff" offset="1"/></radialGradient><radialGradient fy="0" fx="0" r="819.2" cy="0" cx="0" spreadMethod="pad" gradientTransform="matrix(.00241 0 0 .00241 17.175 18.2)" gradientUnits="userSpaceOnUse" id="r"><stop stop-opacity=".212" stop-color="#fff" offset=".196"/><stop stop-opacity="0" stop-color="#fff" offset="1"/></radialGradient><radialGradient fy="0" fx="0" r="819.2" cy="0" cx="0" spreadMethod="pad" gradientTransform="matrix(.0047 0 0 .0057 9.025 19.2)" gradientUnits="userSpaceOnUse" id="s"><stop stop-opacity=".271" stop-color="#fff" offset=".063"/><stop stop-opacity="0" stop-color="#fff" offset="1"/></radialGradient><radialGradient fy="0" fx="0" r="819.2" cy="0" cx="0" spreadMethod="pad" gradientTransform="translate(16.375 21.65) scale(.00534)" gradientUnits="userSpaceOnUse" id="t"><stop stop-opacity=".271" stop-color="#fff" offset=".063"/><stop stop-opacity="0" stop-color="#fff" offset="1"/></radialGradient><radialGradient fy="0" fx="0" r="819.2" cy="0" cx="0" spreadMethod="pad" gradientTransform="matrix(.00256 0 0 .00157 12.925 29.45)" gradientUnits="userSpaceOnUse" id="u"><stop stop-opacity=".212" stop-color="#fff" offset=".196"/><stop stop-opacity="0" stop-color="#fff" offset="1"/></radialGradient></defs><path fill="none" d="M-1-1h582v402H-1z"/><g><path fill="#efb087" d="M21.875 22.05q-.2-.15-.15-.7.15-.5.75-1.25l.15-.15h.05l.1-.15.2-.55.05-1.05q.05-.8.7-1.15l.55-.1.1.05q.65.1.75.9l.05.05-.25 1.1-.1-.95q-.1-.75-.6-.65-.75 0-.8.85l-.25 1.25-.65 1.05-.4 1-.1.3-.15.15m-18.05-.45q-.1-.65-.4-1l-.65-1.05-.25-1.25q-.05-.85-.8-.85-.5-.1-.6.65l-.1.95-.25-1.1.05-.05q.1-.8.75-.9l.1-.05.55.1q.65.35.7 1.15l.05 1.05.2.55.1.15h.05l.15.15.75 1.25-.15.7-.15-.15-.1-.3"/><path fill="#f7d2bb" d="M24.925 19.05l.25-1.1-.05-.05q-.1-.8-.75-.9l-.1-.05-.55.1q-.65.35-.7 1.15l-.05 1.05-.2.55-.1.15h-.05l-.15.15q-.6.75-.75 1.25-.05.55.15.7l.15-.15.1-.25.15-.1.2-.25q.85-.05 1.05-.5l1.05-1.3.35-.45m-2.2-2.55q.35-.45 1.5-.5 1.15 0 1.35 2.05l-.4 1.8-.6 1.2-.6 1.05q-1.25 1.9-2.9 1.15l1.65-6.75m-17.85 6.75q-1.65.75-2.9-1.15l-.6-1.05-.6-1.2q-.45-1.05-.4-1.8.2-2.05 1.35-2.05 1.15.05 1.5.5l1.65 6.75m-3.5-3.75l1.05 1.3q.2.45 1.05.5l.2.25.15.1.1.25.15.15.15-.7-.75-1.25-.15-.15h-.05l-.1-.15-.2-.55-.05-1.05q-.05-.8-.7-1.15l-.55-.1-.1.05q-.65.1-.75.9l-.05.05.25 1.1.35.45"/><path fill="url(#a)" d="M24.575 19.5l-1.05 1.3q-.2.45-1.05.5l-.2.25-.15.1-.1.25.1-.3.4-1 .65-1.05.25-1.25q.05-.85.8-.85.5-.1.6.65l.1.95-.35.45"/><path fill="url(#b)" d="M3.925 21.9l-.1-.25-.15-.1-.2-.25q-.85-.05-1.05-.5l-1.05-1.3-.35-.45.1-.95q.1-.75.6-.65.75 0 .8.85l.25 1.25.65 1.05q.3.35.4 1l.1.3"/><path stroke="#fd9e66" stroke-miterlimit="3" stroke-linejoin="round" stroke-linecap="round" stroke-width=".05" fill="none" d="M22.725 16.5q.35-.45 1.5-.5 1.15 0 1.35 2.05l-.4 1.8-.6 1.2-.6 1.05q-1.25 1.9-2.9 1.15M3.225 16.5q-.35-.45-1.5-.5-1.15 0-1.35 2.05-.05.75.4 1.8l.6 1.2.6 1.05q1.25 1.9 2.9 1.15"/><path fill="#ffecd9" d="M9.025 27.25q-1.55-1.15-1.85-2.55l-.3-2.5-.15-1.4-.45-2.3q-.5-1.8-1.3-6.75l-.15-1-.1-.6-.25-1.7.05-.05q1.45-2.25 4.05-4.25 2.25-1.45 4.4-1.45h.25q2.15 0 4.4 1.45 2.6 2 4.05 4.3l.65 1.1.3.65.1.3q.75 2.25.5 4.7l-.35 2.2.15-2.1q.2-2.35-.5-4.5l-.05-.15-.6-1.35-.35 2.45-1.3 6.75-.6 3.55-.05.15-.3 2.5q-.25 1.4-1.8 2.55-1.15.9-2.1 2.5l-.3.25q-1.5 1.3-3.25.85-1.3-2.4-2.8-3.6"/><path fill="url(#c)" d="M10.575 30.35l.2.25-2.25-1.35q-2.15-1.4-3.7-5.7l-.2-.6q-1.55-4.85-1.9-7.75v-.1q-.1-2.65.95-5.05l.2-.5.4 2.65 1.2 6.7.45 1.75.2 1.9.35 2.55q.3 1.4 1.85 2.5 1.2.95 2.25 2.75"/><path fill="url(#d)" d="M10.575 30.35q.65.35 1.25.5 1.75.45 3.25-.85l.3-.25q.95-1.6 2.1-2.5 1.55-1.15 1.8-2.55l.3-2.5.05-.15.6-3.55 1.3-6.75.35-2.45.6 1.35-.15.8-.1.75-1.25 6.7q-.45 1.65-.6 3.3v.35l-.4 2.55q-.25 1.4-1.8 2.5-1.1.9-2.05 2.5l-1.35.75-.95.45-1 .1-.9-.2-.85-.4-.3-.2-.2-.25"/><path fill="url(#e)" d="M18.175 27.6q1.55-1.1 1.8-2.5l.4-2.55v-.35q.15-1.65.6-3.3l1.25-6.7.1-.75.15-.8.05.15q.7 2.15.5 4.5l-.15 2.1-1.55 5.55-.2.6q-1.55 4.3-3.7 5.7l-1.3.85q.95-1.6 2.05-2.5"/><path fill="url(#f)" d="M8.325 27.6q-1.55-1.1-1.85-2.5l-.35-2.55-.2-1.9-.45-1.75-1.2-6.7-.4-2.65.6-1.1.25 1.7.1.6.15 1q.8 4.95 1.3 6.75l.45 2.3.15 1.4.3 2.5q.3 1.4 1.85 2.55 1.5 1.2 2.8 3.6-.6-.15-1.25-.5-1.05-1.8-2.25-2.75"/><path stroke="#fd9e66" stroke-miterlimit="3" stroke-linejoin="round" stroke-linecap="round" stroke-width=".05" fill="none" d="M2.725 15.1q-.25-2.65.65-5.05l.25-.65.6-1.1q1.4-2.35 3.9-4.35 2.25-1.45 4.4-1.45h.9q2.2 0 4.4 1.45 2.5 2 3.9 4.35l.6 1.1.25.65.15.45q.75 2.25.5 4.7l-.35 2.2-1.55 5.55-.2.6q-1.55 4.3-3.7 5.7l-1.3.85-1.35.75-.95.45-1 .1-.9-.2-.85-.4-.3-.2-2.25-1.35q-2.15-1.4-3.7-5.7l-.2-.6q-1.55-4.85-1.9-7.75v-.1z"/><path fill="url(#g)" d="M11.325 22.75q-.15 1.9-1.75 2.8l-3.4.1q-2.1-.75-3.15-2.6-1.3-1.8-1.3-3.7.25-1.8 1.8-2.7l3.65-.2q1.7.75 3.1 2.55 1.25 1.9 1.05 3.75"/><path fill="url(#h)" d="M20.775 3.05q2.15 2.45 2.15 4.75 0 3.75-6.4 3.75l-1.8-.3q-.65-.45-1.2-2.15-.65-1.85-.55-2.9l-.05-2.3q0-2.2.9-3.55l.1.05q5.9 1.6 6.85 2.65"/><path fill="#ffecd9" d="M21.875 9.9q-.65-1.25-1.45-1.85-.75-.65-2.85-.9-2.15-.25-4.15 2.25-2.15-2.5-4.95-2.2l-.55.05q-1.05.45-2 1.05l-1.25 1.2-.65-4.65q.55-.8 1.25-1.5 3.2-3.35 7.75-3.3 4.55-.05 7.8 3.3l2.15 3-.65 4.7-.45-1.15"/><path fill="url(#i)" d="M22.975 14.75l-.05-.3-.25-1.8-.25-1.3-.1-.3.65-4.7q.75 1.55 1.05 3.35l.1 1.75-1.15 5.25v-1.95"/><path fill="url(#j)" d="M3.725 11.4l-.1.45q-.5 1.75-.55 3.65v.75l-.1.5q-.65-2.05-.9-3.9l-.05-1.4v-.65l.3-2.1q.25-1.2.8-2.2l.75 4.5-.15.4"/><path fill="url(#k)" d="M3.875 11l-.75-4.5.35-.7.55-.95.65 4.65-.8 1.5"/><path stroke="#fd9e66" stroke-miterlimit="3" stroke-linejoin="round" stroke-linecap="round" stroke-width=".05" fill="none" d="M22.975 16.7l1.15-5.25-.1-1.75q-.3-1.8-1.05-3.35l-2.15-3q-3.25-3.35-7.8-3.3-4.55-.05-7.75 3.3-.7.7-1.25 1.5l-.55.95-.35.7q-.55 1-.8 2.2l-.3 2.1v.65l.05 1.4q.25 1.85.9 3.9"/><path fill="url(#l)" d="M15.775.9q3.6.55 5.9 3.7 2 2.65 2 5.45l-.3 2.7-.05-.85q0-3.25-1.8-6.3-2.25-3.8-6.2-4.7h.45"/><path fill="url(#m)" d="M9.475.8q-3 1.8-4.9 4.95-1.8 3-1.8 5.85 0 1.35.3 2.55-.65-2.35-.65-4.4l.15-1.4q0-1.1 2.2-4.1Q6.375 1.9 9.425.8h.05"/><path fill="url(#n)" d="M7.325 1.8q1.7-1.05 3.4-1.5l2.35-.25 1.95.15 1.35.4 1.35.6 2.05 1.3q1.1.95 2 2.35-.5 2.3-2.6 4-2.7 2.15-6.45 2.15-3.8 0-6.5-2.15-2.35-1.9-2.3-2.95.05-1.1.9-2.05.8-1 2.5-2.05"/><path fill="url(#o)" d="M16.875.9q5.65 2.4 6.95 8.15l-.55 4.6-.05 1.55-.35 2.15-1.55 5.6-.2.6q-1.55 4.3-3.7 5.7l-2.2 1.35.35-.8q.2-.5.05-1.25l-1.1-2.3q-.85-1.6.6-1.8 1.55-.1 2.75-.8 1.3-.65 2-2.3.75-1.7.75-3.1l-.2-2.6q-.35-1.6-2.2-2.75-1.75-1.2-1.95-3.05-.25-1.9-.15-3.45.15-1.65.6-2.75l.15.05V.9"/><path fill="url(#p)" d="M22.725 23.7q-1.05 1.8-3.15 2.6l-3.4-.1q-1.6-.9-1.7-2.8-.25-1.85 1-3.75 1.4-1.85 3.1-2.55l3.65.15q1.55.95 1.8 2.75.05 1.85-1.3 3.7"/><path fill="url(#q)" d="M14.125 11.9l.1.85-.2 2.45-.45 3-.9-2.4-.9-2.4q-.45-.8-1.8-1.15L8.125 12l-.65.05q1.3-2 1.95-2.6.55-.6 1.05-.6.85 0 1.8.8l1.7 1.65.15.6"/><path fill="url(#r)" d="M20.125 18.05l-1.05 1.3-1.05.65q-.35 0-1.2-.85l-.15-.25q-.55-.5-.75-1l.1-.1.25-.35.25-.25.35.15 1.3.1h1.95v.6"/><path fill="url(#s)" d="M11.025 19q0 1.55-.4 3-.5 1.7-1.15 1.8-.6-1.55-1.35-2.5l-1.15-1.1-.85-.7q-.35-.55-.35-1.55l.15-.8q.35.6 1.6.75l2 .3 1.15.35q.35.1.35.45"/><path fill="url(#t)" d="M16.175 21.15l.2-.7.05-.4.05.1q.05.4.9 1.1l.1.05.95.75-.3 1.1-.65 1.25-.25-.5-1.1-2.7.05-.05"/><path fill="url(#u)" d="M12.925 27.95q1.1.25 1.75.65.7.35.7.95t-.7 1q-.65.4-1.6.4-.85 0-1.5-.4-.7-.4-1.1-1.45-.5-1 .4-1.2l2.05.05"/></g></svg>