<svg width="26" height="32" xmlns="http://www.w3.org/2000/svg">
 <defs>
  <radialGradient fy="0" fx="0" r="819.2" cy="0" cx="0" spreadMethod="pad" gradientTransform="matrix(0.0035699999425560236,0,0,0.003599999938160181,23.11249351501465,18.750001907348633)" gradientUnits="userSpaceOnUse" id="a">
   <stop stop-color="#d3873d" offset="0"/>
   <stop stop-color="#f5c9ab" offset="0.992"/>
  </radialGradient>
  <radialGradient fy="0" fx="0" r="819.2" cy="0" cx="0" spreadMethod="pad" gradientTransform="matrix(-0.0035699999425560236,0,0,0.003599999938160181,2.9124972820281982,18.750001907348633)" gradientUnits="userSpaceOnUse" id="b">
   <stop stop-color="#d3873d" offset="0"/>
   <stop stop-color="#f5c9ab" offset="0.992"/>
  </radialGradient>
  <linearGradient y2="0.601165" y1="0.692952" x2="0.657724" x1="-0.982724" id="c">
   <stop stop-color="#faa684" offset="0"/>
   <stop stop-color="#ffecd9" offset="1"/>
  </linearGradient>
  <linearGradient y2="0.428816" y1="0.430407" x2="0.543213" x1="-0.225456" id="d">
   <stop stop-color="#faa684" offset="0"/>
   <stop stop-color="#ffecd9" offset="1"/>
  </linearGradient>
  <linearGradient y2="0.603486" y1="0.681021" x2="0.30706" x1="1.908129" id="e">
   <stop stop-color="#faa684" offset="0"/>
   <stop stop-color="#ffecd9" offset="1"/>
  </linearGradient>
  <linearGradient y2="0.434407" y1="0.436009" x2="0.459076" x1="1.196737" id="f">
   <stop stop-color="#faa684" offset="0"/>
   <stop stop-color="#ffecd9" offset="1"/>
  </linearGradient>
  <linearGradient y2="0.4296" y1="2.844084" x2="0.569981" x1="0.569981" id="g">
   <stop stop-color="#faa684" offset="0"/>
   <stop stop-color="#ffecd9" offset="1"/>
  </linearGradient>
  <radialGradient fy="0" fx="48" r="819.2" cy="0" cx="0" spreadMethod="pad" gradientTransform="matrix(-0.004900000058114529,-0.002899999963119626,-0.003169999923557043,0.00570000009611249,20.512495040893555,19.899999618530273)" gradientUnits="userSpaceOnUse" id="h">
   <stop stop-opacity="0.451" stop-color="#ff9c9c" offset="0"/>
   <stop stop-opacity="0.231" stop-color="#ffc1bf" offset="0.565"/>
   <stop stop-opacity="0" stop-color="#ffeddb" offset="1"/>
  </radialGradient>
  <radialGradient fy="0" fx="0" r="819.2" cy="0" cx="0" spreadMethod="pad" gradientTransform="matrix(0.004879999905824661,-0.0028800000436604023,0.003169999923557043,0.00570000009611249,6.012495517730713,20.100000381469727)" gradientUnits="userSpaceOnUse" id="i">
   <stop stop-opacity="0.451" stop-color="#ff9c9c" offset="0"/>
   <stop stop-opacity="0.231" stop-color="#ffc1bf" offset="0.565"/>
   <stop stop-opacity="0" stop-color="#ffeddb" offset="1"/>
  </radialGradient>
  <radialGradient fy="0" fx="0" r="819.2" cy="0" cx="0" spreadMethod="pad" gradientTransform="matrix(0.011749999597668648,0,0,0.011380000039935112,19.812498092651367,3.5500011444091797)" gradientUnits="userSpaceOnUse" id="j">
   <stop stop-opacity="0.161" stop-color="#fff" offset="0"/>
   <stop stop-opacity="0" stop-color="#fff" offset="1"/>
  </radialGradient>
  <linearGradient y2="1.731455" y1="1.73617" x2="-4.137424" x1="2.470764" id="k">
   <stop stop-color="#faa684" offset="0"/>
   <stop stop-color="#ffecd9" offset="1"/>
  </linearGradient>
  <linearGradient y2="1.523541" y1="1.527742" x2="5.358587" x1="-1.793376" id="l">
   <stop stop-color="#faa684" offset="0"/>
   <stop stop-color="#ffecd9" offset="1"/>
  </linearGradient>
  <linearGradient y2="1.497714" y1="1.692762" x2="1.861354" x1="-2.825642" id="m">
   <stop stop-color="#faa684" offset="0"/>
   <stop stop-color="#ffecd9" offset="1"/>
  </linearGradient>
  <linearGradient y2="1.230426" y1="1.364695" x2="-1.04778" x1="3.817011" id="n">
   <stop stop-color="#faa684" offset="0"/>
   <stop stop-color="#ffecd9" offset="1"/>
  </linearGradient>
  <radialGradient fy="0" fx="0" r="819.2" cy="0" cx="0" spreadMethod="pad" gradientTransform="matrix(0.009739999659359455,0,0,0.009429999627172947,19.462499618530273,7.5)" gradientUnits="userSpaceOnUse" id="o">
   <stop stop-opacity="0.643" stop-color="#fff" offset="0"/>
   <stop stop-opacity="0" stop-color="#fff" offset="1"/>
  </radialGradient>
  <radialGradient fy="0" fx="0" r="819.2" cy="0" cx="0" spreadMethod="pad" gradientTransform="matrix(0.010089999996125698,0,0,0.00977999996393919,5.862497806549072,7.899999618530273)" gradientUnits="userSpaceOnUse" id="p">
   <stop stop-opacity="0.502" stop-color="#fff" offset="0"/>
   <stop stop-opacity="0" stop-color="#fff" offset="1"/>
  </radialGradient>
  <radialGradient fy="0" fx="0" r="819.2" cy="0" cx="0" spreadMethod="pad" gradientTransform="matrix(0.01128000020980835,0,0,0.010929999873042107,12.612494468688965,3.6499996185302734)" gradientUnits="userSpaceOnUse" id="q">
   <stop stop-opacity="0.502" stop-color="#fff" offset="0"/>
   <stop stop-opacity="0" stop-color="#fff" offset="1"/>
  </radialGradient>
 </defs>
 <g>
  <title>background</title>
  <rect fill="none" id="canvas_background" height="402" width="582" y="-1" x="-1"/>
 </g>
 <g>
  <title>Layer 1</title>
  <g id="svg_1">
   <path id="svg_2" fill="#efb087" d="m22.862494,22.65l-0.25,0.25l0,-0.25q0.050003,-0.399998 0.25,-0.700001l0.450005,-1l-0.25,-1.599998l0.099998,-1.150002q0,-0.549999 0.449997,-1l0.5,-0.349998l0.650002,-0.099998l0.550003,0.449997l0.150002,1.200001l0,0.200001l-0.100006,1q0,0.650002 -0.449997,1.200001l-0.300003,0.599998l-0.449997,0.850002q-0.199997,0.299999 -0.25,-0.200001q-0.099998,-0.549999 -0.300003,-0.25l-0.5,0.5l0.400002,-0.650002l0.450005,-0.149998l0.099998,0.049999l0.150002,0.099998l0.349998,-0.399998l0.299995,-0.650002l0.350006,-0.650002l0.099998,-0.599998l-0.349998,-1.099998l0.149994,-0.600002q0,-0.700001 -0.549995,-0.700001l-0.75,0.25q-0.300003,0.200001 -0.450005,0.800003l-0.049995,0.199997l0,0.150002l-0.050003,0.650002l0.099998,1.149998l0.100006,0.75l-0.050003,0.5l-0.349998,0.650002l0.199997,-0.150002l0,0.049999l-0.199997,0.400002l-0.200005,0.299999m-20.049995,-0.700001l0,-0.049999l0.149998,0.150002l-0.349998,-0.650002l-0.049999,-0.5l0.099998,-0.75l0.150002,-1.149998l-0.100002,-0.650002l0,-0.150002l-0.049999,-0.199997l-0.450001,-0.800003l-0.700001,-0.25q-0.599998,0 -0.599998,0.700001l0.150002,0.600002l-0.350002,1.099998l0.150002,0.599998l0.299999,0.650002l0.349998,0.650002l0.300003,0.399998l0.149998,-0.099998l0.100002,-0.049999l0.449997,0.149998l0.400002,0.650002l-0.5,-0.5q-0.200001,-0.299999 -0.25,0.25q-0.099998,0.5 -0.299999,0.200001l-0.450001,-0.850002l-0.299999,-0.599998q-0.450001,-0.549999 -0.450001,-1.200001l-0.099998,-1l0,-0.200001q-0.050003,-0.849998 0.149998,-1.200001q0.299999,-0.399998 0.549999,-0.449997l0.650002,0.099998q0.25,0.099998 0.5,0.349998q0.450001,0.450001 0.450001,1l0.099998,1.150002l-0.25,1.599998l0.450001,1l0.25,0.700001l0,0.25l-0.25,-0.25l-0.200001,-0.299999l-0.149998,-0.400002"/>
   <path id="svg_3" fill="#f7d2bb" d="m23.362494,16.050001l0.650002,-0.150002q1.099998,-0.099998 1.599998,0.75q0.450005,0.650002 0.300003,1.350002q0.050003,0.899998 -0.599998,2.699997l-1,2.200001q-0.5,1.700001 -1.300003,1.700001l-1.150002,-0.349998l-0.149994,-0.350002l1.649994,-7.849998m-0.25,6.25l0.5,-0.5q0.200005,-0.299999 0.300003,0.25q0.050003,0.5 0.25,0.200001l0.449997,-0.850002l0.300003,-0.599998q0.449997,-0.549999 0.449997,-1.200001l0.100006,-1l0,-0.200001l-0.150002,-1.200001l-0.550003,-0.449997l-0.650002,0.099998l-0.5,0.349998q-0.449997,0.450001 -0.449997,1l-0.099998,1.150002l0.25,1.599998l-0.450005,1q-0.199997,0.300003 -0.25,0.700001l0,0.25l0.25,-0.25l0.200005,-0.299999l0.049995,0l0,-0.049999m-20.199996,0.049999l0.049999,0l0.200001,0.299999l0.25,0.25l0,-0.25l-0.25,-0.700001l-0.450001,-1l0.25,-1.599998l-0.099998,-1.150002q0,-0.549999 -0.450001,-1q-0.25,-0.25 -0.5,-0.349998l-0.650002,-0.099998q-0.25,0.049999 -0.549999,0.449997q-0.200001,0.350002 -0.149998,1.200001l0,0.200001l0.099998,1q0,0.650002 0.450001,1.200001l0.299999,0.599998l0.450001,0.850002q0.200001,0.299999 0.299999,-0.200001q0.049999,-0.549999 0.25,-0.25l0.5,0.5l0,0.049999m1.400001,1.549999l-0.150002,0.350002l-1.150001,0.349998q-0.799999,0 -1.299999,-1.700001q-0.349998,-0.349998 -1,-2.200001q-0.649998,-1.799999 -0.599998,-2.699997q-0.150002,-0.700001 0.299999,-1.350002q0.5,-0.849998 1.599999,-0.75l0.650002,0.150002l1.650001,7.849998"/>
   <path id="svg_4" fill="url(#a)" d="m23.112494,22.35l-0.049995,0l0.199997,-0.400002l0,-0.049999l-0.199997,0.150002l0.349998,-0.650002l0.050003,-0.5l-0.100006,-0.75l-0.099998,-1.149998l0.050003,-0.650002l0,-0.150002l0.049995,-0.199997q0.150002,-0.600002 0.450005,-0.800003l0.75,-0.25q0.549995,0 0.549995,0.700001l-0.149994,0.600002l0.349998,1.099998l-0.099998,0.599998l-0.350006,0.650002l-0.299995,0.650002l-0.349998,0.399998l-0.150002,-0.099998l-0.099998,-0.049999l-0.450005,0.149998l-0.400002,0.650002l0,0.049999"/>
   <path id="svg_5" fill="url(#b)" d="m2.962497,22.35l-0.049999,0l0,-0.049999l-0.400002,-0.650002l-0.449997,-0.149998l-0.100002,0.049999l-0.149998,0.099998l-0.300003,-0.399998l-0.349998,-0.650002l-0.299999,-0.650002l-0.150002,-0.599998l0.350002,-1.099998l-0.150002,-0.600002q0,-0.700001 0.599998,-0.700001l0.700001,0.25l0.450001,0.800003l0.049999,0.199997l0,0.150002l0.100002,0.650002l-0.150002,1.149998l-0.099998,0.75l0.049999,0.5l0.349998,0.650002l-0.149998,-0.150002l0,0.049999l0.149998,0.400002"/>
   <path id="svg_6" stroke="#fd9e66" stroke-miterlimit="3" stroke-linejoin="round" stroke-linecap="round" stroke-width="0.05" fill="none" d="m23.362494,16.050001l0.650002,-0.150002q1.099998,-0.099998 1.599998,0.75q0.450005,0.650002 0.300003,1.350002q0.050003,0.899998 -0.599998,2.699997l-1,2.200001q-0.5,1.700001 -1.300003,1.700001l-1.150002,-0.349998l-0.149994,-0.350002m-19.050002,-7.849998l-0.650002,-0.150002q-1.099999,-0.099998 -1.599999,0.75q-0.450001,0.650002 -0.299999,1.350002q-0.049999,0.899998 0.599998,2.699997q0.650002,1.850002 1,2.200001q0.5,1.700001 1.299999,1.700001l1.150001,-0.349998l0.150002,-0.350002"/>
   <path id="svg_7" fill="#ffecd9" d="m20.812498,9.35l-0.700005,3.299999q-0.049995,0.650002 0.350006,1.350002l0.649994,1.149998l0.150002,0.549999l-0.449997,3.450001l-0.800003,2.100002q-0.25,0.449997 -1,0.549999q-0.75,0.099998 -3.199996,-1.400002l0.249999,0.700001l0.150002,0.5l0.299995,0.299999l0.200005,0.200001l0.049995,0.150002l0.849998,1.799999l0.050003,-0.049999l0.599998,0q0.5,-0.050003 0.700005,0.449997q0.149994,0.450001 -0.300003,1.5l-1.400002,2.550003l-0.650002,0.949997q-0.099998,-0.149998 0.100006,-0.899998q0.149994,-0.799999 -0.150002,-0.299999l-0.900001,1.099998l-1,1.099998l-0.849998,0.650002l-0.75,0.150002l-0.099998,0l-0.650002,-0.150002l-0.849998,-0.650002l-1,-1.099998l-0.850006,-1.099998q-0.349998,-0.5 -0.199997,0.299999l0.099998,0.899998l-0.650002,-0.949997l-1.349999,-2.550003q-0.5,-1.049999 -0.299995,-1.5q0.149994,-0.5 0.649994,-0.449997l0.600007,0l0.099998,0.049999l0.699997,-1.799999l0.25,-0.350002l0.300003,-0.299999l0.199997,-0.5l0.25,-0.700001q-2.449997,1.5 -3.25,1.400002q-0.75,-0.100002 -1,-0.549999q-0.25,-0.450001 -0.75,-2.100002q-0.5,-1.599998 -0.5,-3.450001l0.200001,-0.549999l0.600002,-1.149998q0.399998,-0.700001 0.399998,-1.350002l-0.700001,-3.299999l-0.899998,-3.75q1.649998,-2.15 4.749997,-3.25q1.950005,-0.65 3.800003,-0.700001l0.050003,0q2,0.1 3.899993,0.75q3.100006,1.050001 4.75,3.200001l0.050003,0.1l-0.849998,3.65"/>
   <path id="svg_8" fill="url(#c)" d="m9.012496,22.750002l-0.400002,0.699997l0.200005,-0.75l0.099998,-0.149998q0.199997,-0.75 0.5,-1.200001l-0.400002,0.099998l-0.699997,0.400002q-1.650002,0.900002 -2.150002,0.599998q-0.549999,-0.299999 -0.950001,-1q-0.450001,-0.75 -0.75,-2.049999l-0.899997,-4.099998q-0.550003,-2.299999 -1.300003,-4.150002q0.300003,-3.349998 2.100002,-5.549999l0.899998,3.75l0.700001,3.299999q0,0.650002 -0.399998,1.350002l-0.600002,1.149998l-0.200001,0.549999q0,1.850002 0.5,3.450001q0.5,1.650002 0.75,2.100002q0.25,0.449997 1,0.549999q0.800003,0.099998 3.25,-1.400002l-0.25,0.700001l-0.199997,0.5l-0.300003,0.299999l-0.25,0.350002l-0.25,0.5"/>
   <path id="svg_9" fill="url(#d)" d="m12.962501,31.699999l0,0.050003l-0.050003,0l0.050003,-0.050003m-5.600007,-3.699997l-0.199997,-0.100002q-1.049999,-1.049999 -2.200001,-2.849998q-1.200001,-1.799999 -1.649997,-4.549999l-0.75,-5l-0.300003,-3.100002l0,-1.25q0.75,1.850002 1.300003,4.150002l0.899997,4.099998q0.299999,1.299999 0.75,2.049999q0.400002,0.700001 0.950001,1q0.5,0.300003 2.150002,-0.599998l0.699997,-0.400002l0.400002,-0.099998q-0.300003,0.450001 -0.5,1.200001l-0.099998,0.149998l-0.200005,0.75l-0.149994,0.300003l-0.050003,0l-0.75,-0.150002q-0.699997,-0.150002 -0.900002,0.200001q-0.25,0.299999 0.050003,1.399998l0.25,0.75l0.099998,0.650002l0.150002,1l0.049995,0.400002"/>
   <path id="svg_10" fill="url(#e)" d="m17.312498,23.250002l-0.550003,-1l-0.049995,-0.150002l-0.200005,-0.200001l-0.299995,-0.299999l-0.150002,-0.5l-0.249999,-0.700001q2.449996,1.5 3.199996,1.400002q0.75,-0.100002 1,-0.549999l0.800003,-2.100002l0.449997,-3.450001l-0.150002,-0.549999l-0.649994,-1.149998q-0.400002,-0.700001 -0.350006,-1.350002l0.700005,-3.299999l0.849998,-3.65q1.75,2.15 2,5.449999l0.050003,0.150002q-0.75,1.799999 -1.200005,4l-0.949997,4.099998l-0.700005,2.049999l-0.949997,1q-0.550003,0.300003 -2.199997,-0.599998l-0.650002,-0.400002l-0.450005,-0.099998l0.550003,1.200001l0.199997,0.700001l0.050003,0.199997l-0.099998,-0.199997"/>
   <path id="svg_11" fill="url(#f)" d="m18.7125,27.85l-0.050003,0l0.150002,-0.650002l0,-0.25l0.049995,-0.099998l0,-0.25l0.050003,-0.150002l0.300003,-1.25q0.299995,-1.099998 0.099998,-1.399998q-0.25,-0.350002 -0.900002,-0.200001l-0.800003,0.150002l-0.199997,-0.300003l-0.050003,-0.199997l-0.199997,-0.700001l-0.550003,-1.200001l0.450005,0.099998l0.650002,0.400002q1.649994,0.900002 2.199997,0.599998l0.949997,-1l0.700005,-2.049999l0.949997,-4.099998q0.450005,-2.200001 1.200005,-4l-0.050003,1.099998l-0.25,3.100002l-0.75,5.049999q-0.449997,2.700001 -1.650002,4.549999l-2.199997,2.799999l-0.150002,0.100002l0.050003,-0.150002m-3.999999,3.5l-0.550003,0.200001l0.550003,-0.299999l0,0.099998m-1.400002,0.400002l-0.349998,0l0,-0.050003l0.349998,0.050003"/>
   <path id="svg_12" fill="url(#g)" d="m12.962501,31.699999l-0.050003,0.050003l-0.449997,-0.050003q-0.75,-0.099998 -1.600006,-0.599998l-1.899994,-1.450001l-1.600007,-1.649998l-0.049995,-0.400002l-0.150002,-1l-0.099998,-0.650002l-0.25,-0.75q-0.300003,-1.099998 -0.050003,-1.399998q0.200005,-0.350002 0.900002,-0.200001l0.75,0.150002l0.050003,0l0.149994,-0.300003l0.400002,-0.699997l0.25,-0.5l-0.699997,1.799999l-0.099998,-0.049999l-0.600007,0q-0.5,-0.050003 -0.649994,0.449997q-0.200005,0.450001 0.299995,1.5l1.349999,2.550003l0.650002,0.949997l-0.099998,-0.899998q-0.150002,-0.799999 0.199997,-0.299999l0.850006,1.099998l1,1.099998l0.849998,0.650002l0.650002,0.150002l0.099998,0l0.75,-0.150002l0.849998,-0.650002l1,-1.099998l0.900001,-1.099998q0.299995,-0.5 0.150002,0.299999q-0.200005,0.75 -0.100006,0.899998l0.650002,-0.949997l1.400002,-2.550003q0.449997,-1.049999 0.300003,-1.5q-0.200005,-0.5 -0.700005,-0.449997l-0.599998,0l-0.050003,0.049999l-0.849998,-1.799999l0.550003,1l0.099998,0.199997l0.199997,0.300003l0.800003,-0.150002q0.650002,-0.150002 0.900002,0.200001q0.199997,0.299999 -0.099998,1.399998l-0.300003,1.25l-0.050003,0.150002l0,0.25l-0.049995,0.099998l0,0.25l-0.150002,0.650002l0.050003,0l-0.050003,0.150002l-1.650002,1.649998l-1.900001,1.5l-0.399994,0.200001l0,-0.099998l-0.550003,0.299999l-0.849998,0.200001l-0.349998,-0.050003"/>
   <path id="svg_13" stroke="#fd9e66" stroke-miterlimit="3" stroke-linejoin="round" stroke-linecap="round" stroke-width="0.05" fill="none" d="m4.362498,5.6q1.649998,-2.15 4.749997,-3.25q1.950005,-0.65 3.800003,-0.700001l0.050003,0q2,0.1 3.899993,0.75q3.100006,1.050001 4.75,3.200001l0.050003,0.1q1.75,2.15 2,5.449999l0.050003,0.150002l-0.050003,1.099998l-0.25,3.100002l-0.75,5.049999q-0.449997,2.700001 -1.650002,4.549999l-2.199997,2.799999l-0.150002,0.100002l-1.650002,1.649998l-1.900001,1.5l-0.399994,0.200001l-0.550003,0.200001l-0.849998,0.200001l-0.400002,0l-0.449997,-0.050003q-0.75,-0.099998 -1.600006,-0.599998l-1.899994,-1.450001l-1.600007,-1.649998l-0.199997,-0.100002q-1.049999,-1.049999 -2.200001,-2.849998q-1.200001,-1.799999 -1.649997,-4.549999l-0.75,-5l-0.300003,-3.100002l0,-1.25q0.300003,-3.349998 2.100002,-5.549999z"/>
   <path id="svg_14" fill="url(#h)" d="m18.612494,15.199999q1.950005,-0.699997 3.600006,0.25q1.649994,1 2.049995,3.050003q0.400002,2.049999 -0.650002,4q-1.099998,1.949997 -3,2.599998q-1.949997,0.700001 -3.599998,-0.25q-1.650001,-1 -2.049994,-3.099998q-0.400002,-2.050003 0.649994,-3.950001q1.100005,-1.950001 2.999999,-2.600002"/>
   <path id="svg_15" fill="url(#i)" d="m10.412498,17.800001q1.099998,1.899998 0.650002,4q-0.349998,2.049999 -2.050003,3.049999q-1.650002,1 -3.55,0.299999q-1.950001,-0.700001 -3,-2.649998q-1.099999,-1.950001 -0.649998,-4q0.399998,-2 2.049999,-3q1.649997,-0.950001 3.600002,-0.25q1.849999,0.649998 2.949997,2.549999"/>
   <path id="svg_16" fill="url(#j)" d="m12.762496,3.9q0,-2.199999 0.849998,-3.599998l0.100006,0.049999q5.949996,1.6 6.899993,2.700001q2.150002,2.449999 2.150002,4.75q0,3.75 -6.400002,3.75l-1.799994,-0.25q-0.650002,-0.5 -1.25,-2.200001q-0.599998,-1.85 -0.5,-2.9l-0.050003,-2.300001"/>
   <path id="svg_17" fill="url(#k)" d="m24.062498,11.5l-0.599998,3.6l-0.600006,-0.549999l0,-0.5l0.700005,-5.900002q0.449997,1.550001 0.5,3.35"/>
   <path id="svg_18" fill="url(#l)" d="m2.562499,9.85l0.349998,2.299999l-0.049999,1.299999l0,0.5l0.200001,1.850002l0,0.099998l-0.450001,0q-0.400002,-1.149998 -0.650002,-3l-0.049999,-1.4l0,-0.6l0.049999,-0.799999l0.200001,-1.35l0.150002,-0.65l0.25,1.75"/>
   <path id="svg_19" fill="url(#m)" d="m4.362498,9.200001l-0.700001,0.9q-0.450001,0.6 -0.650002,1.25l-0.099998,0.799999l-0.349998,-2.299999l-0.25,-1.75q0.349998,-1.25 1,-2.299999q0.549999,-1.150002 1.449997,-2.050001q0,1.4 0.350002,4.700001l-0.75,0.75"/>
   <path id="svg_20" fill="url(#n)" d="m22.762495,6.15l0.800003,2l-0.700005,5.900002l0.050003,-0.799999q0,-2.600002 -1.150002,-4.600002l-0.799995,-0.549999l0.149994,-1.799999l0.050003,-2.150002l0,-0.349998l1.599998,2.349998"/>
   <path id="svg_21" fill="#ffecd9" d="m20.762495,8q-1.099998,-0.65 -2.5,-0.75q-2.900001,-0.299999 -4.949996,2.15q-1.150002,-1.299999 -2.5,-1.849998l-2.450005,-0.300001q-1.899998,0.15 -3.249997,1.200001q-0.350002,-3.300001 -0.350002,-4.700001l0.350002,-0.35q3.200001,-3.4 7.850003,-3.349998q4.549994,-0.050001 7.799994,3.349998l0.400002,0.400002l0,0.349998l-0.050003,2.150002l-0.149994,1.799999l-0.200005,-0.1"/>
   <path id="svg_22" stroke="#fd9e66" stroke-miterlimit="3" stroke-linejoin="round" stroke-linecap="round" stroke-width="0.05" fill="none" d="m23.4625,15.1l0.599998,-3.6q-0.050003,-1.799999 -0.5,-3.35l-0.800003,-2l-1.599998,-2.349998l-0.400002,-0.400002q-3.25,-3.4 -7.799994,-3.349998q-4.650002,-0.050001 -7.850003,3.349998l-0.350002,0.35m-2.449997,4.35l-0.150002,0.65l-0.200001,1.35l-0.049999,0.799999l0,0.6l0.049999,1.4q0.25,1.850002 0.650002,3m-0.299999,-7.799999q0.349998,-1.25 1,-2.299999q0.549999,-1.150002 1.449997,-2.050001"/>
   <path id="svg_23" fill="url(#o)" d="m23.112494,14.050001l-0.049995,0l0.25,-2.100002q0,-3.299999 -1.800003,-6.349998q-2.299995,-3.799999 -6.249999,-4.700001l0.450005,0q3.649993,0.550001 5.949996,3.700001q2,2.700001 2,5.5l-0.550003,3.950001"/>
   <path id="svg_24" fill="url(#p)" d="m4.512496,5.800001q-1.799999,3 -1.799999,5.849998q0,1.799999 0.5,3.100002l0,0.25l-0.049999,0q-0.849998,-2.850002 -0.849998,-5.200001l0.149998,-1.400002q0,-1.099998 2.200001,-4.099998q1.650002,-2.400002 4.699997,-3.5l0.050003,0q-3.05,1.799999 -4.900002,5"/>
   <path id="svg_25" fill="url(#q)" d="m19.7125,2.550001q1.099998,0.9 2,2.349998q-0.5,2.300001 -2.650002,4q-2.650002,2.150002 -6.450004,2.150002q-3.799995,0 -6.499997,-2.150002q-2.400001,-1.949999 -2.650001,-4.65l1.100002,-0.799999q0.899998,-0.75 2.650002,-1.700001q1.699997,-1 3.399994,-1.449999l2.350006,-0.25l2,0.15l1.349998,0.4l1.349998,0.6l2.050003,1.35"/>
  </g>
 </g>
</svg>