<svg xmlns="http://www.w3.org/2000/svg" width="24" height="31"><path d="M20.75 14.25l.45-.25q.95-.35 1.6.25.65.65.65 1.2 0 .85-.55 1.95l-.8 1.6-.2.7-.2.65-.7 1-1.15.2h-.05l.95-7.3m.2 5.55l.05-.15.1-.35.6-.75h.15l-.05.05-.75 1.5v.1q1.5-1.85 1.85-4.35.15-1.2-1.05-.8l-.4.35q-.55 1.25-.85 2.7l.15.1v.2l-.05.25-.35 1.65.1.1.15-.05.35-.55" fill="#f7d2bb"/><path d="M20.75 18.4v-.2l-.15-.1q.3-1.45.85-2.7l.4-.35q1.2-.4 1.05.8-.35 2.5-1.85 4.35v-.1l.75-1.5.05-.05h-.15l-.6.75-.1.35-.05.15-.05-.65.25-.45.55-.4q.8-.6.8-1.8l-.1-.85q-.05-.35-.3-.35l-.35.1-.05.05q-.45.55-.5 1.15l.05 1.05-.15.55-.4.45.05-.25" fill="#efb087"/><radialGradient id="a" gradientUnits="userSpaceOnUse" gradientTransform="matrix(.00403 0 0 .00409 20.85 17.25)" spreadMethod="pad" cx="0" cy="0" r="819.2" fx="0" fy="0"><stop offset="0" stop-color="#d3873d"/><stop offset=".992" stop-color="#f5c9ab"/></radialGradient><path d="M20.6 20.35l-.15.05-.1-.1.35-1.65.4-.45.15-.55-.05-1.05q.05-.6.5-1.15l.05-.05.35-.1q.25 0 .3.35l.1.85q0 1.2-.8 1.8l-.55.4-.25.45.05.65-.35.55" fill="url(#a)"/><path d="M20.75 14.25l.45-.25q.95-.35 1.6.25.65.65.65 1.2 0 .85-.55 1.95l-.8 1.6-.2.7-.2.65-.7 1-1.15.2h-.05" fill="none" stroke-width=".05" stroke-linecap="round" stroke-linejoin="round" stroke-miterlimit="3" stroke="#fd9e66"/><path d="M3.9 21.35q-.7.5-1.25.25T2 20.65l-.25-1.15-.95-1.65Q0 16.7 0 15.8l.1-.8q.25-.65.9-.6.6.05 1.25.5l1.65 6.45m-1.4-3.9l-.45-1.1-.7-1.1q-.4-.4-.7-.1l-.2.85q0 .65.35 1.35l.6 1.1.5.9.4 1.15h.05l.05-.2.05-.55Q2.5 19.4 2 19l-.2-.25-.05-.1.05-.15q.4 0 .75.55l.2.6.05-.65-.05-.55-.25-1" fill="#f7d2bb"/><path d="M1.8 18.75L2 19q.5.4.45.75l-.05.55-.05.2H2.3l-.4-1.15-.5-.9-.6-1.1Q.45 16.65.45 16l.2-.85q.3-.3.7.1l.7 1.1.45 1.1.25 1-.7-1.7Q1.3 15.4.95 15.4l-.15.05-.05.05-.05.6q0 .6.5 1.4l.55 1.15.05.1" fill="#efb087"/><radialGradient id="b" gradientUnits="userSpaceOnUse" gradientTransform="matrix(.00351 0 0 .00356 3 17.35)" spreadMethod="pad" cx="0" cy="0" r="819.2" fx="0" fy="0"><stop offset="0" stop-color="#d3873d"/><stop offset=".992" stop-color="#f5c9ab"/></radialGradient><path d="M1.2 17.5q-.5-.8-.5-1.4l.05-.6.05-.05.15-.05q.35 0 1.1 1.35l.7 1.7.05.55-.05.65-.2-.6q-.35-.55-.75-.55l-.05.15-.55-1.15" fill="url(#b)"/><path d="M3.9 21.35q-.7.5-1.25.25T2 20.65l-.25-1.15-.95-1.65Q0 16.7 0 15.8l.1-.8q.25-.65.9-.6.6.05 1.25.5" fill="none" stroke-width=".05" stroke-linecap="round" stroke-linejoin="round" stroke-miterlimit="3" stroke="#fd9e66"/><linearGradient id="c" gradientUnits="userSpaceOnUse" gradientTransform="matrix(.0086 -.00174 .00276 .01369 2 22.25)" x1="-819.2" x2="819.2"><stop offset="0" stop-color="#faa684"/><stop offset="1" stop-color="#ffecd9"/></linearGradient><path d="M3.85 8.45l-.15 3-.05 1v1.2q.1 4.3.65 5.85.7 1.75 1.45 2.05.75.3 1.9-.3 1.15-.55 1.25.1l-1.05.95-.35.4-.85 1.25q-.15.4 0 .65l1.75 1.85q1.6 1.6 1.5 3l-.15-.1L9 28.8l-.05-.05-.95-.2-.45-.45-.6-1.35L5.2 23.8l-.55-.95q-1.25-2.2-2.05-5.1l-.3-1.3-.2-1.55v-1.25l.05-1.85.05-.35Q2.3 9.2 3.5 7.8l.4-.45-.05 1.1m3.1 19.25l-.55-.55Q4.6 25.3 4 23.8l-.1-.25q1 2 3.05 4.15" fill="url(#c)"/><radialGradient id="d" gradientUnits="userSpaceOnUse" gradientTransform="matrix(.00945 -.00471 .0076 .01518 .2 24.65)" spreadMethod="pad" cx="0" cy="0" r="819.2" fx="0" fy="0"><stop offset="0" stop-color="#fba784"/><stop offset="1" stop-color="#ffecd9"/></radialGradient><path d="M7.7 28.45l-.35-.3-.4-.45Q4.9 25.55 3.9 23.55q-.6-1.5-1.05-3.55-.35-1.65-.55-3.55l.3 1.3q.8 2.9 2.05 5.1l.55.95 1.75 2.95.6 1.35.15.35" fill="url(#d)"/><radialGradient id="e" gradientUnits="userSpaceOnUse" gradientTransform="matrix(.01625 0 0 .02328 11.85 14.4)" spreadMethod="pad" cx="0" cy="0" r="819.2" fx="0" fy="0"><stop offset=".431" stop-color="#fee8d4"/><stop offset=".992" stop-color="#fedcc6"/></radialGradient><path d="M9.9 29.45q.1-1.4-1.5-3L6.65 24.6q-.15-.25 0-.65l.85-1.25.35-.4 1.05-.95q-.1-.65-1.25-.1-1.15.6-1.9.3T4.3 19.5q-.55-1.55-.65-5.85v-1.2l.05-1 .15-3 .05-1.1q1.15-1.2 2.7-2.1.85-.5 1.95-.75l3.05-.3q3.6 0 6.65 1.8l.85.55.1 1.9.15 3v2.2q-.1 4.3-.65 5.7-.65 1.6-1.45 2.2-.75.6-2.25-.4t-1 .2l.6.55 1.05 1.05.8 1.05v.65l-.7.95-1.3 1.6q-.7.9-.65 2.1l-.5.35-1.85.35-1.55-.55" fill="url(#e)"/><linearGradient id="f" gradientUnits="userSpaceOnUse" gradientTransform="matrix(-.0102 -.00235 .00322 -.01385 22.55 21.9)" x1="-819.2" x2="819.2"><stop offset="0" stop-color="#faa684"/><stop offset="1" stop-color="#ffecd9"/></linearGradient><path d="M13.8 29.3q-.05-1.2.65-2.1l1.3-1.6.7-.95V24l-.8-1.05-1.05-1.05-.6-.55q-.5-1.2 1-.2t2.25.4q.8-.6 1.45-2.2.55-1.4.65-5.7v-2.2l-.15-3-.1-1.9q2.2 1.75 2.45 4.9l-.05 1.65-.05.55-.2 1.15-.65 1.75-.7 2.85-.6 2.4-.1.2-.45 1.25-.95 1.65-1 1.5-.05.1-.05.05-.4.55-.15.2-1.35 1.85.05-.75-1.05.9" fill="url(#f)"/><radialGradient id="g" gradientUnits="userSpaceOnUse" gradientTransform="matrix(.00989 .0057 -.01053 .01823 23.85 22.1)" spreadMethod="pad" cx="0" cy="0" r="819.2" fx="0" fy="0"><stop offset="0" stop-color="#fba784"/><stop offset="1" stop-color="#ffecd9"/></radialGradient><path d="M14.8 29.15l1.35-1.85.15-.2.4-.55.05-.05.05-.1 1-1.5.95-1.65.45-1.25.1-.2.6-2.4.7-2.85.65-1.75-.75 5.5-.4 1.75-.95 2.4q-.9 1.75-3.55 4.35l-1.15.9.35-.55" fill="url(#g)"/><linearGradient id="h" gradientUnits="userSpaceOnUse" gradientTransform="matrix(.00092 -.00699 .00247 .00032 12.6 32.3)" x1="-819.2" x2="819.2"><stop offset="0" stop-color="#fba784"/><stop offset="1" stop-color="#ffecd9"/></linearGradient><path d="M7.55 28.1l.45.45.95.2.05.05.75.55.15.1 1.55.55 1.85-.35.5-.35 1.05-.9-.05.75-.35.55-.95.7-1.5.45h-.6l-.8-.2-1.5-.95-1.4-1.25-.15-.35" fill="url(#h)"/><path d="M2.3 16.45l-.2-1.55v-1.25l.05-1.85.05-.35Q2.3 9.2 3.5 7.8l.4-.45q1.15-1.2 2.7-2.1.85-.5 1.95-.75l3.05-.3q3.6 0 6.65 1.8l.85.55q2.2 1.75 2.45 4.9l-.05 1.65-.05.55-.2 1.15-.75 5.5-.4 1.75-.95 2.4q-.9 1.75-3.55 4.35l-1.15.9-.95.7-1.5.45h-.6l-.8-.2-1.5-.95-1.4-1.25-.35-.3-.4-.45-.55-.55Q4.6 25.3 4 23.8l-.1-.25q-.6-1.5-1.05-3.55-.35-1.65-.55-3.55z" fill="none" stroke-width=".05" stroke-linecap="round" stroke-linejoin="round" stroke-miterlimit="3" stroke="#fd9e66"/><radialGradient id="i" gradientUnits="userSpaceOnUse" gradientTransform="matrix(-.0046 .0025 -.00386 -.00539 5.3 19.4)" spreadMethod="pad" cx="0" cy="0" r="819.2" fx="0" fy="0"><stop offset="0" stop-color="#ffd5cc"/><stop offset="1" stop-color="#ffdcd0" stop-opacity="0"/></radialGradient><path d="M6.65 15.05q.45.1.8.35 1.6.85 2.1 2.55.6 1.75-.25 3.35-.75 1.55-2.45 1.95-1.7.5-3.25-.4Q2.05 22 1.5 20.3q-.6-1.7.25-3.3.75-1.55 2.45-2.05l2.45.1" fill="url(#i)"/><radialGradient id="j" gradientUnits="userSpaceOnUse" gradientTransform="matrix(.0046 .0025 .00388 -.00539 17.55 19.4)" spreadMethod="pad" cx="0" cy="0" r="819.2" fx="0" fy="0"><stop offset="0" stop-color="#ffd5cc"/><stop offset="1" stop-color="#ffdcd0" stop-opacity="0"/></radialGradient><path d="M16.25 15.05L18.7 15q1.65.45 2.45 2.05.8 1.55.25 3.25-.55 1.75-2.15 2.6-1.55.9-3.25.4-1.65-.45-2.45-2-.8-1.55-.25-3.3.55-1.7 2.15-2.6l.8-.35" fill="url(#j)"/><radialGradient id="k" gradientUnits="userSpaceOnUse" gradientTransform="matrix(-.00269 0 0 .00206 15.35 19.5)" spreadMethod="pad" cx="0" cy="0" r="819.2" fx="0" fy="0"><stop offset="0" stop-color="#fff" stop-opacity=".173"/><stop offset="1" stop-color="#fff" stop-opacity="0"/></radialGradient><path d="M15.4 18.1l.6-.05.6-.1q.65 0 1 .55l.25.75q0 .85-.35 1.4-.45.9-1.45.9-1.25 0-2.05-1.05-.6-.8-.6-1.5 0-1.25.55-1.2l1.45.3" fill="url(#k)"/><radialGradient id="l" gradientUnits="userSpaceOnUse" gradientTransform="matrix(.00269 0 0 .00206 7 19.5)" spreadMethod="pad" cx="0" cy="0" r="819.2" fx="0" fy="0"><stop offset="0" stop-color="#fff" stop-opacity=".173"/><stop offset="1" stop-color="#fff" stop-opacity="0"/></radialGradient><path d="M6.9 18.1l1.5-.3q.55-.05.55 1.2 0 .7-.6 1.5-.8 1.05-2.05 1.05-1 0-1.5-.9-.3-.55-.3-1.4l.25-.75q.35-.55.95-.55l.6.1.6.05" fill="url(#l)"/><radialGradient id="m" gradientUnits="userSpaceOnUse" gradientTransform="matrix(.01125 0 0 .01088 11.2 -3.35)" spreadMethod="pad" cx="0" cy="0" r="819.2" fx="41" fy="0"><stop offset="0" stop-color="#fff"/><stop offset=".988" stop-color="#ffecd9"/></radialGradient><path d="M19 7.45l.05.05-.1-.05H19" fill="url(#m)"/><linearGradient id="n" gradientUnits="userSpaceOnUse" gradientTransform="matrix(.0086 -.00174 .00276 .01369 2 22.25)" x1="-819.2" x2="819.2"><stop offset="0" stop-color="#faa684"/><stop offset="1" stop-color="#ffecd9"/></linearGradient><path d="M5.6 3.6L4.3 7.9l-.6.55-.7.9-.6 1.15-.15 2 .2 2.15v.1h-.4L1.45 12l-.05-1.35v-.6l.2-1.95q.35-1.45 1.1-2.75.6-1.2 1.7-2.25l2-1.6-.8 2.1" fill="url(#n)"/><linearGradient id="o" gradientUnits="userSpaceOnUse" gradientTransform="matrix(-.0102 -.00235 .00322 -.01385 22.55 21.9)" x1="-819.2" x2="819.2"><stop offset="0" stop-color="#faa684"/><stop offset="1" stop-color="#ffecd9"/></linearGradient><path d="M17.4 1.8l1.55 1.3q3 3.1 3.05 7.55L21.4 14l-.5-.5.05-1.2q0-2.4-1.1-4.3l-.8-.5-.05-.05-1.6-5.65" fill="url(#o)"/><radialGradient id="p" gradientUnits="userSpaceOnUse" gradientTransform="matrix(.01625 0 0 .02328 11.85 14.4)" spreadMethod="pad" cx="0" cy="0" r="819.2" fx="0" fy="0"><stop offset=".431" stop-color="#fee8d4"/><stop offset=".992" stop-color="#fedcc6"/></radialGradient><path d="M19 7.45h-.05Q17.9 6.8 16.6 6.7q-2.7-.25-4.6 2-1.95-2.25-4.6-2-1.85.15-3.1 1.2l1.3-4.3.8-2.1.35-.2Q8.95 0 11.65 0q3.2 0 5.75 1.8L19 7.45" fill="url(#p)"/><path d="M6.4 1.5l-2 1.6Q3.3 4.15 2.7 5.35q-.75 1.3-1.1 2.75l-.2 1.95v.6L1.45 12l.6 2.75M6.4 1.5l.35-.2Q8.95 0 11.65 0q3.2 0 5.75 1.8l1.55 1.3q3 3.1 3.05 7.55L21.4 14" fill="none" stroke-width=".05" stroke-linecap="round" stroke-linejoin="round" stroke-miterlimit="3" stroke="#fd9e66"/><radialGradient id="q" gradientUnits="userSpaceOnUse" gradientTransform="matrix(.01094 0 0 .01059 18.05 3.35)" spreadMethod="pad" cx="0" cy="0" r="819.2" fx="0" fy="0"><stop offset="0" stop-color="#fff" stop-opacity=".161"/><stop offset="1" stop-color="#fff" stop-opacity="0"/></radialGradient><path d="M12.4.35q5.55 1.5 6.45 2.5 2 2.3 2 4.45 0 3.5-6 3.5l-1.65-.25q-.6-.45-1.15-2.05-.6-1.75-.5-2.7l-.05-2.15q0-2.05.8-3.35l.1.05" fill="url(#q)"/><radialGradient id="r" gradientUnits="userSpaceOnUse" gradientTransform="matrix(.00906 0 0 .00877 17.65 6.9)" spreadMethod="pad" cx="0" cy="0" r="819.2" fx="0" fy="0"><stop offset="0" stop-color="#fff" stop-opacity=".643"/><stop offset="1" stop-color="#fff" stop-opacity="0"/></radialGradient><path d="M14.2.75q3.4.55 5.55 3.5 1.85 2.5 1.85 5.05l-.5 3.7h-.05l.2-1.95q0-3.05-1.65-5.9-2.1-3.55-5.8-4.4h.4" fill="url(#r)"/><radialGradient id="s" gradientUnits="userSpaceOnUse" gradientTransform="matrix(.00938 0 0 .0091 5.05 7.3)" spreadMethod="pad" cx="0" cy="0" r="819.2" fx="0" fy="0"><stop offset="0" stop-color="#fff" stop-opacity=".502"/><stop offset="1" stop-color="#fff" stop-opacity="0"/></radialGradient><path d="M8.3.65Q5.5 2.35 3.75 5.3 2.1 8.1 2.1 10.75q0 1.75.5 2.9v.2h-.05q-.85-2.6-.85-4.8l.15-1.35q0-.95 2.1-3.8Q5.4 1.7 8.25.65h.05" fill="url(#s)"/><radialGradient id="t" gradientUnits="userSpaceOnUse" gradientTransform="matrix(.0105 0 0 .01016 11.35 3.35)" spreadMethod="pad" cx="0" cy="0" r="819.2" fx="0" fy="0"><stop offset="0" stop-color="#fff" stop-opacity=".502"/><stop offset="1" stop-color="#fff" stop-opacity="0"/></radialGradient><path d="M17.95 2.35q1.05.85 1.9 2.2-.5 2.1-2.45 3.7-2.5 2-6.05 2t-6.1-2q-2.2-1.8-2.45-4.3l1.05-.8Q4.7 2.5 6.3 1.6 7.9.65 9.5.25L11.65 0l1.85.15 1.3.35 1.25.6q.85.3 1.9 1.25" fill="url(#t)"/></svg>