<svg width="26" height="32" xmlns="http://www.w3.org/2000/svg">
 <defs>
  <radialGradient fy="0" fx="0" r="819.2" cy="0" cx="0" spreadMethod="pad" gradientTransform="matrix(-0.004430000204592943,0.00041000000783242285,0.00041000000783242285,0.00443999981507659,21.67498779296875,18.75)" gradientUnits="userSpaceOnUse" id="a">
   <stop stop-color="#d3873d" offset="0"/>
   <stop stop-color="#f5c9ab" offset="0.992"/>
  </radialGradient>
  <radialGradient fy="0" fx="0" r="819.2" cy="0" cx="0" spreadMethod="pad" gradientTransform="matrix(0.004430000204592943,0.00041000000783242285,-0.00041000000783242285,0.00443999981507659,4.2749857902526855,18.75)" gradientUnits="userSpaceOnUse" id="b">
   <stop stop-color="#d3873d" offset="0"/>
   <stop stop-color="#f5c9ab" offset="0.992"/>
  </radialGradient>
  <linearGradient y2="0.502812" y1="0.599326" x2="0.548646" x1="-0.347944" id="c">
   <stop stop-color="#fba784" offset="0"/>
   <stop stop-color="#ffecd9" offset="1"/>
  </linearGradient>
  <linearGradient y2="0.478617" y1="0.797401" x2="0.383333" x1="1.633474" id="d">
   <stop stop-color="#fbd1b7" offset="0.314"/>
   <stop stop-color="#fee0c8" offset="0.604"/>
   <stop stop-color="#ffecd9" offset="0.898"/>
  </linearGradient>
  <linearGradient y2="0.498047" y1="0.669048" x2="0.236794" x1="1.534406" id="e">
   <stop stop-color="#fba784" offset="0"/>
   <stop stop-color="#ffecd9" offset="1"/>
  </linearGradient>
  <linearGradient y2="0.547204" y1="0.671546" x2="0.660619" x1="-0.64804" id="f">
   <stop stop-color="#fbd1b7" offset="0.314"/>
   <stop stop-color="#fee0c8" offset="0.604"/>
   <stop stop-color="#ffecd9" offset="0.898"/>
  </linearGradient>
  <radialGradient fy="0" fx="0" r="819.2" cy="0" cx="0" spreadMethod="pad" gradientTransform="matrix(-0.0037400000728666782,-0.005429999902844429,-0.004490000195801258,0.0024900001008063555,6.674985885620117,20.600000381469727)" gradientUnits="userSpaceOnUse" id="g">
   <stop stop-opacity="0.361" stop-color="#fab19f" offset="0"/>
   <stop stop-opacity="0.161" stop-color="#fcccad" offset="0.675"/>
   <stop stop-opacity="0" stop-color="#ffeddb" offset="1"/>
  </radialGradient>
  <radialGradient fy="0" fx="0" r="819.2" cy="0" cx="0" spreadMethod="pad" gradientTransform="matrix(0.011699999682605267,0,0,0.011339999735355377,19.97498893737793,3.5999999046325684)" gradientUnits="userSpaceOnUse" id="h">
   <stop stop-opacity="0.161" stop-color="#fff" offset="0"/>
   <stop stop-opacity="0" stop-color="#fff" offset="1"/>
  </radialGradient>
  <linearGradient y2="1.338494" y1="1.656676" x2="-2.591468" x1="2.369245" id="i">
   <stop stop-color="#fba784" offset="0"/>
   <stop stop-color="#ffecd9" offset="1"/>
  </linearGradient>
  <linearGradient y2="1.322007" y1="1.517017" x2="2.768493" x1="-1.092817" id="j">
   <stop stop-color="#fba784" offset="0"/>
   <stop stop-color="#ffecd9" offset="1"/>
  </linearGradient>
  <linearGradient y2="2.556706" y1="3.004269" x2="3.872753" x1="-2.775979" id="k">
   <stop stop-color="#fbd1b7" offset="0.314"/>
   <stop stop-color="#fee0c8" offset="0.604"/>
   <stop stop-color="#ffecd9" offset="0.898"/>
  </linearGradient>
  <radialGradient fy="0" fx="0" r="819.2" cy="0" cx="0" spreadMethod="pad" gradientTransform="matrix(0.009689999744296074,0,0,0.009379999712109566,19.47498893737793,7.449999809265137)" gradientUnits="userSpaceOnUse" id="l">
   <stop stop-opacity="0.643" stop-color="#fff" offset="0"/>
   <stop stop-opacity="0" stop-color="#fff" offset="1"/>
  </radialGradient>
  <radialGradient fy="0" fx="0" r="819.2" cy="0" cx="0" spreadMethod="pad" gradientTransform="matrix(0.010040000081062317,0,0,0.009739999659359455,5.924985885620117,7.900000095367432)" gradientUnits="userSpaceOnUse" id="m">
   <stop stop-opacity="0.502" stop-color="#fff" offset="0"/>
   <stop stop-opacity="0" stop-color="#fff" offset="1"/>
  </radialGradient>
  <radialGradient fy="0" fx="0" r="819.2" cy="0" cx="0" spreadMethod="pad" gradientTransform="matrix(0.011230000294744968,0,0,0.010879999957978725,12.72498893737793,3.6500000953674316)" gradientUnits="userSpaceOnUse" id="n">
   <stop stop-opacity="0.502" stop-color="#fff" offset="0"/>
   <stop stop-opacity="0" stop-color="#fff" offset="1"/>
  </radialGradient>
  <radialGradient fy="0" fx="48" r="819.2" cy="0" cx="0" spreadMethod="pad" gradientTransform="matrix(0.019680000841617584,0,0,0.03060000017285347,24.374988555908203,19.450000762939453)" gradientUnits="userSpaceOnUse" id="o">
   <stop stop-opacity="0.451" stop-color="#fab09e" offset="0"/>
   <stop stop-opacity="0.161" stop-color="#fcccad" offset="0.667"/>
   <stop stop-opacity="0" stop-color="#ffeddb" offset="1"/>
  </radialGradient>
  <radialGradient fy="0" fx="48" r="819.2" cy="0" cx="0" spreadMethod="pad" gradientTransform="matrix(0.0037400000728666782,-0.005429999902844429,0.004490000195801258,0.0024900001008063555,19.074989318847656,21.25)" gradientUnits="userSpaceOnUse" id="p">
   <stop stop-opacity="0.451" stop-color="#fab09e" offset="0"/>
   <stop stop-opacity="0.161" stop-color="#fcccad" offset="0.675"/>
   <stop stop-opacity="0" stop-color="#ffeddb" offset="1"/>
  </radialGradient>
  <radialGradient fy="0" fx="0" r="819.2" cy="0" cx="0" spreadMethod="pad" gradientTransform="matrix(0.0064500002190470695,0,0,0.0064500002190470695,11.424988746643066,13.449999809265137)" gradientUnits="userSpaceOnUse" id="q">
   <stop stop-opacity="0.212" stop-color="#fff" offset="0.196"/>
   <stop stop-opacity="0" stop-color="#fff" offset="1"/>
  </radialGradient>
  <radialGradient fy="0" fx="0" r="819.2" cy="0" cx="0" spreadMethod="pad" gradientTransform="matrix(0.002409999957308173,0,0,0.002409999957308173,17.17498779296875,18.200000762939453)" gradientUnits="userSpaceOnUse" id="r">
   <stop stop-opacity="0.212" stop-color="#fff" offset="0.196"/>
   <stop stop-opacity="0" stop-color="#fff" offset="1"/>
  </radialGradient>
  <radialGradient fy="0" fx="0" r="819.2" cy="0" cx="0" spreadMethod="pad" gradientTransform="matrix(0.004699999932199717,0,0,0.00570000009611249,9.024988174438477,19.200000762939453)" gradientUnits="userSpaceOnUse" id="s">
   <stop stop-opacity="0.271" stop-color="#fff" offset="0.063"/>
   <stop stop-opacity="0" stop-color="#fff" offset="1"/>
  </radialGradient>
  <radialGradient fy="0" fx="0" r="819.2" cy="0" cx="0" spreadMethod="pad" gradientTransform="matrix(0.0053400001488626,0,0,0.0053400001488626,16.374988555908203,21.649999618530273)" gradientUnits="userSpaceOnUse" id="t">
   <stop stop-opacity="0.271" stop-color="#fff" offset="0.063"/>
   <stop stop-opacity="0" stop-color="#fff" offset="1"/>
  </radialGradient>
  <radialGradient fy="0" fx="0" r="819.2" cy="0" cx="0" spreadMethod="pad" gradientTransform="matrix(0.0025599999353289604,0,0,0.0015699999639764428,12.924988746643066,29.450000762939453)" gradientUnits="userSpaceOnUse" id="u">
   <stop stop-opacity="0.212" stop-color="#fff" offset="0.196"/>
   <stop stop-opacity="0" stop-color="#fff" offset="1"/>
  </radialGradient>
 </defs>
 <g>
  <title>background</title>
  <rect fill="none" id="canvas_background" height="402" width="582" y="-1" x="-1"/>
 </g>
 <g>
  <title>Layer 1</title>
  <path id="svg_1" fill="#efb087" d="m21.874989,22.049999q-0.200001,-0.15 -0.15,-0.700001q0.15,-0.5 0.75,-1.25l0.15,-0.15l0.049999,0l0.1,-0.15l0.200001,-0.550001l0.049999,-1.049999q0.050001,-0.799999 0.700001,-1.15l0.549999,-0.1l0.1,0.049999q0.65,0.1 0.75,0.900002l0.049999,0.049999l-0.25,1.1l-0.099998,-0.950001q-0.1,-0.75 -0.6,-0.65q-0.75,0 -0.800001,0.85l-0.25,1.25l-0.65,1.049999l-0.4,1l-0.1,0.300001l-0.15,0.15m-18.050003,-0.449999q-0.1,-0.65 -0.4,-1l-0.65,-1.050001l-0.25,-1.25q-0.05,-0.849998 -0.799999,-0.849998q-0.5,-0.1 -0.6,0.65l-0.1,0.949999l-0.25,-1.099998l0.05,-0.050001q0.1,-0.799999 0.75,-0.9l0.1,-0.049999l0.55,0.099998q0.65,0.35 0.7,1.150002l0.05,1.049999l0.2,0.549999l0.1,0.150002l0.05,0l0.15,0.15l0.75,1.25l-0.15,0.699999l-0.15,-0.15l-0.1,-0.299999"/>
  <path id="svg_2" fill="#f7d2bb" d="m24.924988,19.049999l0.25,-1.1l-0.050001,-0.049999q-0.099998,-0.800001 -0.75,-0.900002l-0.099998,-0.049999l-0.550001,0.1q-0.65,0.35 -0.699999,1.15l-0.050001,1.049999l-0.199999,0.550001l-0.1,0.15l-0.050001,0l-0.15,0.15q-0.6,0.75 -0.75,1.25q-0.049999,0.550001 0.15,0.700001l0.150002,-0.15l0.099998,-0.25l0.150002,-0.1l0.199999,-0.25q0.85,-0.050001 1.050001,-0.5l1.049999,-1.300001l0.35,-0.449999m-2.200001,-2.550001q0.35,-0.449999 1.5,-0.499999q1.15,0 1.35,2.05l-0.4,1.799999l-0.6,1.200001l-0.6,1.049999q-1.25,1.9 -2.9,1.15l1.65,-6.75m-17.850001,6.750002q-1.65,0.75 -2.899999,-1.15l-0.6,-1.050001l-0.6,-1.200001q-0.45,-1.049999 -0.4,-1.799999q0.2,-2.049999 1.35,-2.049999q1.149999,0.049999 1.499999,0.5l1.65,6.75m-3.499999,-3.75l1.049999,1.299999q0.2,0.450001 1.05,0.5l0.2,0.25l0.15,0.1l0.1,0.25l0.15,0.15l0.15,-0.699999l-0.75,-1.25l-0.15,-0.15l-0.05,0l-0.1,-0.150002l-0.2,-0.549999l-0.05,-1.049999q-0.05,-0.800001 -0.7,-1.150002l-0.55,-0.099998l-0.1,0.049999q-0.65,0.1 -0.75,0.9l-0.05,0.050001l0.25,1.099998l0.35,0.450001"/>
  <path id="svg_3" fill="url(#a)" d="m24.574989,19.5l-1.049999,1.299999q-0.200001,0.450001 -1.050001,0.5l-0.199999,0.25l-0.15,0.1l-0.1,0.25l0.1,-0.299999l0.4,-1l0.65,-1.050001l0.25,-1.25q0.049999,-0.849998 0.799999,-0.849998q0.5,-0.1 0.6,0.65l0.1,0.949999l-0.35,0.450001"/>
  <path id="svg_4" fill="url(#b)" d="m3.924986,21.9l-0.1,-0.25l-0.15,-0.1l-0.2,-0.25q-0.85,-0.049999 -1.05,-0.5l-1.049999,-1.299999l-0.35,-0.450001l0.1,-0.949999q0.1,-0.75 0.6,-0.65q0.749999,0 0.799999,0.849998l0.25,1.25l0.65,1.050001q0.3,0.35 0.4,1l0.1,0.299999"/>
  <path id="svg_5" stroke="#fd9e66" stroke-miterlimit="3" stroke-linejoin="round" stroke-linecap="round" stroke-width="0.05" fill="none" d="m22.724989,16.5q0.35,-0.450001 1.5,-0.5q1.15,0 1.35,2.049999l-0.400002,1.800001l-0.599998,1.199999l-0.6,1.050001q-1.25,1.9 -2.9,1.15m-17.850004,-6.75q-0.35,-0.450001 -1.499999,-0.5q-1.15,0 -1.35,2.049999q-0.05,0.75 0.4,1.799999l0.6,1.200001l0.6,1.049999q1.249999,1.9 2.899999,1.15"/>
  <path id="svg_6" fill="#ffecd9" d="m9.024988,27.25q-1.550003,-1.15 -1.850002,-2.549999l-0.3,-2.5l-0.15,-1.4l-0.45,-2.299999q-0.5,-1.800001 -1.3,-6.750001l-0.15,-1l-0.1,-0.6l-0.25,-1.7l0.05,-0.05q1.45,-2.25 4.050003,-4.25q2.25,-1.45 4.400001,-1.45l0.25,0q2.15,0 4.4,1.45q2.6,2 4.049999,4.3l0.650002,1.1l0.299999,0.65l0.1,0.3q0.75,2.25 0.5,4.7l-0.35,2.2l0.15,-2.099999q0.200001,-2.35 -0.5,-4.5l-0.049999,-0.150001l-0.6,-1.349999l-0.35,2.45l-1.299999,6.75l-0.6,3.549999l-0.049999,0.150002l-0.300001,2.5q-0.25,1.4 -1.799999,2.549999q-1.150002,0.9 -2.1,2.5l-0.3,0.25q-1.5,1.299999 -3.25,0.85q-1.3,-2.4 -2.8,-3.6"/>
  <path id="svg_7" fill="url(#c)" d="m10.574988,30.35l0.2,0.25l-2.25,-1.35q-2.150002,-1.4 -3.700003,-5.699999l-0.2,-0.6q-1.55,-4.85 -1.9,-7.750001l0,-0.099999q-0.1,-2.650001 0.95,-5.05l0.2,-0.5l0.4,2.65l1.2,6.7l0.45,1.75l0.2,1.9l0.35,2.549999q0.3,1.4 1.850003,2.5q1.2,0.950001 2.25,2.75"/>
  <path id="svg_8" fill="url(#d)" d="m10.574988,30.35q0.650001,0.35 1.25,0.5q1.75,0.449999 3.25,-0.85l0.3,-0.25q0.949999,-1.6 2.1,-2.5q1.549999,-1.15 1.799999,-2.549999l0.300001,-2.5l0.049999,-0.150002l0.6,-3.549999l1.299999,-6.75l0.35,-2.45l0.6,1.349999l-0.15,0.8l-0.1,0.75l-1.25,6.7q-0.450001,1.65 -0.6,3.300001l0,0.349998l-0.4,2.550001q-0.25,1.4 -1.800001,2.5q-1.099998,0.9 -2.049999,2.5l-1.35,0.75l-0.95,0.449999l-1,0.1l-0.9,-0.199999l-0.85,-0.400002l-0.3,-0.199999l-0.2,-0.25"/>
  <path id="svg_9" fill="url(#e)" d="m18.174988,27.6q1.549999,-1.1 1.799999,-2.5l0.4,-2.550001l0,-0.349998q0.150002,-1.650002 0.6,-3.300001l1.25,-6.699999l0.1,-0.75l0.15,-0.8l0.050001,0.150001q0.699999,2.15 0.5,4.5l-0.150002,2.1l-1.549999,5.549999l-0.200001,0.6q-1.549999,4.299999 -3.699999,5.700001l-1.300001,0.849998q0.950001,-1.599998 2.050001,-2.5"/>
  <path id="svg_10" fill="url(#f)" d="m8.324988,27.6q-1.550003,-1.1 -1.850003,-2.5l-0.35,-2.550001l-0.2,-1.9l-0.45,-1.75l-1.2,-6.699999l-0.4,-2.65l0.6,-1.1l0.25,1.7l0.1,0.6l0.15,1q0.8,4.95 1.3,6.750001l0.45,2.299999l0.15,1.4l0.3,2.5q0.3,1.4 1.850002,2.549999q1.5,1.200001 2.8,3.6q-0.599999,-0.15 -1.25,-0.5q-1.05,-1.800001 -2.25,-2.75"/>
  <path id="svg_11" stroke="#fd9e66" stroke-miterlimit="3" stroke-linejoin="round" stroke-linecap="round" stroke-width="0.05" fill="none" d="m2.724986,15.1q-0.25,-2.650001 0.65,-5.05l0.25,-0.650001l0.6,-1.099999q1.4,-2.35 3.900001,-4.35q2.250002,-1.45 4.400002,-1.45l0.900001,0q2.2,0 4.400001,1.45q2.5,2 3.9,4.35l0.6,1.099999l0.25,0.650001l0.15,0.45q0.75,2.25 0.5,4.7l-0.35,2.2l-1.549999,5.550001l-0.200001,0.599998q-1.549999,4.300001 -3.700001,5.700001l-1.299999,0.85l-1.35,0.75l-0.95,0.449999l-1,0.1l-0.9,-0.199999l-0.85,-0.400002l-0.3,-0.199999l-2.25,-1.35q-2.150002,-1.4 -3.700003,-5.700001l-0.2,-0.599998q-1.55,-4.85 -1.9,-7.750001l0,-0.099999z"/>
  <path id="svg_12" fill="url(#g)" d="m11.324988,22.75q-0.15,1.9 -1.75,2.799999l-3.400002,0.1q-2.1,-0.75 -3.15,-2.6q-1.299999,-1.799999 -1.299999,-3.699999q0.25,-1.800001 1.799999,-2.700001l3.65,-0.199999q1.700003,0.75 3.100002,2.549999q1.25,1.9 1.05,3.75"/>
  <path id="svg_13" fill="url(#h)" d="m20.774988,3.05q2.15,2.45 2.15,4.75q0,3.75 -6.4,3.75l-1.799999,-0.3q-0.650001,-0.45 -1.200001,-2.15q-0.65,-1.85 -0.549999,-2.900001l-0.05,-2.3q0,-2.2 0.9,-3.55l0.1,0.05q5.900001,1.6 6.849999,2.65"/>
  <path id="svg_14" fill="#ffecd9" d="m21.874989,9.9q-0.65,-1.25 -1.450001,-1.849999q-0.75,-0.65 -2.849998,-0.9q-2.150001,-0.25 -4.150001,2.25q-2.150001,-2.5 -4.95,-2.2l-0.550003,0.05q-1.05,0.45 -2,1.05l-1.25,1.2l-0.65,-4.65q0.55,-0.8 1.25,-1.5q3.200003,-3.35 7.750002,-3.3q4.550001,-0.05 7.800001,3.3l2.15,3l-0.65,4.7l-0.450001,-1.150001"/>
  <path id="svg_15" fill="url(#i)" d="m22.974989,14.75l-0.050001,-0.3l-0.25,-1.8l-0.25,-1.299999l-0.099998,-0.3l0.65,-4.7q0.75,1.55 1.049999,3.35l0.1,1.75l-1.15,5.250001l0,-1.950001"/>
  <path id="svg_16" fill="url(#j)" d="m3.724986,11.4l-0.1,0.450001q-0.5,1.75 -0.55,3.65l0,0.75l-0.1,0.5q-0.65,-2.05 -0.899999,-3.9l-0.05,-1.400001l0,-0.65l0.299999,-2.1q0.25,-1.2 0.8,-2.2l0.75,4.5l-0.15,0.4"/>
  <path id="svg_17" fill="url(#k)" d="m3.874986,11l-0.75,-4.5l0.35,-0.7l0.55,-0.95l0.65,4.65l-0.8,1.5"/>
  <path id="svg_18" stroke="#fd9e66" stroke-miterlimit="3" stroke-linejoin="round" stroke-linecap="round" stroke-width="0.05" fill="none" d="m22.974989,16.700001l1.15,-5.25l-0.1,-1.75q-0.299999,-1.8 -1.049999,-3.35l-2.15,-3q-3.25,-3.350001 -7.800001,-3.300001q-4.549999,-0.05 -7.750002,3.3q-0.7,0.7 -1.25,1.5l-0.55,0.95l-0.35,0.7q-0.55,1 -0.8,2.2l-0.299999,2.1l0,0.65l0.05,1.400001q0.25,1.849999 0.899999,3.9"/>
  <path id="svg_19" fill="url(#l)" d="m15.774988,0.9q3.6,0.55 5.9,3.7q2,2.65 2,5.45l-0.299999,2.7l-0.049999,-0.85q0,-3.25 -1.800001,-6.3q-2.25,-3.8 -6.2,-4.7l0.45,0"/>
  <path id="svg_20" fill="url(#m)" d="m9.474989,0.8q-3.000003,1.8 -4.900003,4.95q-1.8,3 -1.8,5.85q0,1.349999 0.3,2.549999q-0.65,-2.349999 -0.65,-4.4l0.15,-1.4q0,-1.1 2.2,-4.1q1.6,-2.35 4.650003,-3.45l0.05,0"/>
  <path id="svg_21" fill="url(#n)" d="m7.324986,1.8q1.700003,-1.05 3.400003,-1.5l2.349999,-0.25l1.95,0.15l1.35,0.4l1.35,0.6l2.049999,1.3q1.1,0.95 2,2.35q-0.5,2.3 -2.6,4q-2.699999,2.15 -6.449999,2.15q-3.8,0 -6.500003,-2.15q-2.35,-1.900001 -2.3,-2.95q0.05,-1.1 0.9,-2.05q0.8,-1 2.5,-2.05"/>
  <path id="svg_22" fill="url(#o)" d="m16.874989,0.9q5.65,2.4 6.950001,8.15l-0.550001,4.599998l-0.049999,1.55l-0.35,2.150002l-1.549999,5.599998l-0.200001,0.6q-1.549999,4.300001 -3.700001,5.699999l-2.199999,1.35l0.349999,-0.799999q0.2,-0.5 0.05,-1.25l-1.1,-2.300001q-0.849999,-1.599998 0.6,-1.799999q1.549999,-0.1 2.75,-0.799999q1.299999,-0.650002 2,-2.300001q0.75,-1.699999 0.75,-3.099998l-0.200001,-2.6q-0.349998,-1.599999 -2.199999,-2.75q-1.75,-1.2 -1.950001,-3.049999q-0.25,-1.900001 -0.15,-3.45q0.15,-1.65 0.6,-2.75l0.15,0.05l0,-2.8"/>
  <path id="svg_23" fill="url(#p)" d="m22.724989,23.700001q-1.050001,1.800001 -3.15,2.6l-3.400002,-0.1q-1.599999,-0.9 -1.699999,-2.799999q-0.25,-1.85 1,-3.75q1.4,-1.85 3.1,-2.550001l3.65,0.150002q1.549999,0.949999 1.799999,2.75q0.050001,1.849998 -1.299999,3.699999"/>
  <path id="svg_24" fill="url(#q)" d="m14.124989,11.9l0.1,0.85l-0.200001,2.45l-0.45,3.000001l-0.9,-2.400001l-0.900001,-2.400002q-0.45,-0.799999 -1.799999,-1.149999l-1.850002,-0.25l-0.650001,0.05q1.300003,-2 1.950003,-2.6q0.55,-0.599999 1.05,-0.599999q0.849999,0 1.799999,0.799999l1.700001,1.650001l0.15,0.599999"/>
  <path id="svg_25" fill="url(#r)" d="m20.124989,18.049999l-1.049999,1.299999l-1.050001,0.65q-0.35,0 -1.199999,-0.849998l-0.150002,-0.25q-0.549999,-0.5 -0.749999,-1l0.099999,-0.1l0.25,-0.35l0.25,-0.25l0.35,0.15l1.299999,0.1l1.950001,0l0,0.6"/>
  <path id="svg_26" fill="url(#s)" d="m11.024988,19q0,1.549999 -0.4,3q-0.5,1.700001 -1.15,1.799999q-0.6,-1.549999 -1.350002,-2.5l-1.150001,-1.099998l-0.85,-0.699999q-0.35,-0.550001 -0.35,-1.550001l0.15,-0.799999q0.35,0.6 1.6,0.75l2.000002,0.299999l1.150001,0.35q0.349999,0.1 0.349999,0.450001"/>
  <path id="svg_27" fill="url(#t)" d="m16.174988,21.15l0.200001,-0.699999l0.049999,-0.400002l0.050001,0.1q0.049999,0.4 0.9,1.1l0.1,0.049999l0.949999,0.75l-0.299999,1.1l-0.65,1.25l-0.25,-0.5l-1.1,-2.699999l0.049999,-0.050001"/>
  <path id="svg_28" fill="url(#u)" d="m12.924989,27.950001q1.099999,0.25 1.75,0.65q0.7,0.35 0.7,0.950001t-0.7,1q-0.650001,0.4 -1.6,0.4q-0.849999,0 -1.5,-0.4q-0.7,-0.4 -1.099999,-1.450001q-0.5,-1 0.4,-1.199999l2.05,0.049999"/>
 </g>
</svg>