<svg xmlns="http://www.w3.org/2000/svg" width="22" height="28"><path d="M19.5 18.05l-.2.25-.7.75-.5.2h-.45l-.3-.05-.1-.2q-.1-.2.1-.8l.5-.3-.05-.05 1.3-1 .7-.3.25-.3v-.05l.25-.35.3-.85q.3-1.7-.55-1.9l-.55-.05.5-.45.35-.05h.4q.5.05.65.9v.35l-.1.55Q21 16.1 20 16.7l-1.6 1-.15.1 1.15-.15.15.25-.05.15m1.1-5.25l.65.9-.05.25.05-.1q.1-.7-.55-1.1l-.1.05m.3 2.1l-.55 1.05.6-.75.05-.25-.1-.05m-2.4 3.35q-.65-.2-.95.6l.2.1.15.05.5-.1.25-.35.5-.5-.65.2" fill="#f7d2bb"/><path d="M19.55 17.9l-.15-.25-1.15.15.15-.1 1.6-1q1-.6 1.3-2.35l.1-.55v.9l-.7 1.85-.7 1.05-.5.45.05-.15" fill="#f9c29f"/><path d="M20.7 12.75q.65.4.55 1.1l-.05.1.05-.25-.65-.9.1-.05m.3 2.2l-.05.25-.6.75.55-1.05.1.05m-1.85 3.1l-.5.5-.25.35-.5.1-.15-.05-.2-.1q.3-.8.95-.6l.65-.2" fill="#f9e1d2"/><radialGradient id="a" gradientUnits="userSpaceOnUse" gradientTransform="translate(18.85 15) scale(.00433)" spreadMethod="pad" cx="0" cy="0" r="819.2" fx="0" fy="0"><stop offset="0" stop-color="#d7914a"/><stop offset=".62" stop-color="#f5c9ab"/></radialGradient><path d="M17.35 18.2l.25-.8.55-1.35.6-1.55.75-1.45.55.05q.85.2.55 1.9l-.3.85-.25.35v.05l-.25.3-.7.3-1.3 1 .05.05-.5.3" fill="url(#a)"/><path d="M19.5 13.05l.5-.45.35-.05h.4q.5.05.65.9v1.25l-.7 1.85-.7 1.05-.5.45-.2.25-.7.75-.5.2h-.45l-.3-.05-.1-.2q-.1-.2.1-.8l.25-.8.55-1.35.6-1.55.75-1.45z" fill="none" stroke-width=".05" stroke-linecap="round" stroke-linejoin="round" stroke-miterlimit="3" stroke="#fd9e66"/><path d="M1.95 18l.2.25.7.75.5.2h.45l.3-.05.1-.2-.1-.8-.5-.3.05-.05-1.3-1-.7-.3-.25-.3v-.05l-.25-.35-.3-.85q-.3-1.7.55-1.9l.55-.05-.5-.45-.35-.05H.7q-.5.05-.65.9v.35l.1.55q.3 1.75 1.3 2.35l1.6 1 .15.1-1.15-.15q-.2.05-.15.25l.05.15m-1.1-5.25l-.65.9.05.25-.05-.1q-.1-.7.55-1.1l.1.05m-.3 2.1l.55 1.05q-.25-.05-.6-.75l-.05-.25.1-.05m2.4 3.35q.65-.2.95.6l-.2.1-.15.05-.5-.1-.25-.35-.5-.5.65.2" fill="#f7d2bb"/><path d="M1.9 17.85q-.05-.2.15-.25l1.15.15-.15-.1-1.6-1q-1-.6-1.3-2.35l-.1-.55v.9l.7 1.85q.3.7.7 1.05l.5.45-.05-.15" fill="#f9c29f"/><path d="M.75 12.7q-.65.4-.55 1.1l.05.1-.05-.25.65-.9-.1-.05m-.3 2.2l.05.25q.35.7.6.75l-.55-1.05-.1.05M2.3 18l.5.5.25.35.5.1.15-.05.2-.1q-.3-.8-.95-.6L2.3 18" fill="#f9e1d2"/><radialGradient id="b" gradientUnits="userSpaceOnUse" gradientTransform="matrix(-.00433 0 0 .00433 2.6 14.95)" spreadMethod="pad" cx="0" cy="0" r="819.2" fx="0" fy="0"><stop offset="0" stop-color="#d7914a"/><stop offset=".62" stop-color="#f5c9ab"/></radialGradient><path d="M4.1 18.15l-.25-.8L3.3 16l-.6-1.55L1.95 13l-.55.05q-.85.2-.55 1.9l.3.85.25.35v.05l.25.3.7.3 1.3 1-.05.05.5.3" fill="url(#b)"/><path d="M1.95 13l-.5-.45-.35-.05H.7q-.5.05-.65.9v1.25l.7 1.85q.3.7.7 1.05l.5.45.2.25.7.75.5.2h.45l.3-.05.1-.2-.1-.8-.25-.8L3.3 16l-.6-1.55L1.95 13z" fill="none" stroke-width=".05" stroke-linecap="round" stroke-linejoin="round" stroke-miterlimit="3" stroke="#fd9e66"/><path d="M11.05 26.4q-1.15.15-2.9-.8L8 25.3l-.1-.15-.8-.9q-1.3-1.4-2.2-2.8-.6-1.05-.85-2.15-.3-1.1-.45-2.85-.15-1.75.75-4 .9-2.2.95-3.85l.1-2.1-.3.1V1.9Q7.5.05 10.65.1q3.6-.05 6.25 2.45v4.1l-.6-.25.05 2.2q.05 1.65 1 3.85.9 2.25.75 4l-.45 2.85-.9 2.15-2.2 2.8-.85 1.05-.15.2q-1.3.8-2.5.9" fill="#ffecd9"/><linearGradient id="c" gradientUnits="userSpaceOnUse" gradientTransform="matrix(.0049 -.00043 .00131 .01515 1.15 15)" x1="-819.2" x2="819.2"><stop offset="0" stop-color="#faa684"/><stop offset="1" stop-color="#ffecd9"/></linearGradient><path d="M7.7 25.35l-.05-.05Q5.7 23.1 4.9 22.6l-1.85-3.4v-.1q-.75-4.25-.9-8.15v-.15l-.05-.25.05-.85.05-.1-.05-4 .3-.6Q3 3.85 3.95 2.95L5.1 1.9v4.7l.3-.1-.1 2.1q-.05 1.65-.95 3.85-.9 2.25-.75 4 .15 1.75.45 2.85.25 1.1.85 2.15.9 1.4 2.2 2.8l.8.9.1.15.15.3-.45-.25" fill="url(#c)"/><linearGradient id="d" gradientUnits="userSpaceOnUse" gradientTransform="matrix(.00198 -.0002 .00087 .00903 2.6 16.15)" x1="-819.2" x2="819.2"><stop offset="0" stop-color="#faa684"/><stop offset="1" stop-color="#ffecd9"/></linearGradient><path d="M3.7 22.55l-.2-.3Q2.4 20.6 2.15 18.4l-.3-4.05-.6-3.3V9.3l.2-1.8.7-1.9.05 4-.05.1-.05.85.05.25v.15q.15 3.9.9 8.15v.1l.65 3.35" fill="url(#d)"/><linearGradient id="e" gradientUnits="userSpaceOnUse" gradientTransform="matrix(-.00476 -.00038 .00119 -.01514 20.25 15)" x1="-819.2" x2="819.2"><stop offset="0" stop-color="#faa684"/><stop offset="1" stop-color="#ffecd9"/></linearGradient><path d="M17.3 2.95q1.95 2.05 2.5 4.7l-.4 5.55v.05l-.75 5.85-.05.1-1.7 3.25q-.7.35-2.95 2.85l-.05.05-.35.15.15-.2.85-1.05 2.2-2.8.9-2.15.45-2.85q.15-1.75-.75-4-.95-2.2-1-3.85l-.05-2.2.6.25v-4.1l.4.4" fill="url(#e)"/><linearGradient id="f" gradientUnits="userSpaceOnUse" gradientTransform="matrix(-.0031 -.00046 .0012 -.0083 18.75 16.15)" x1="-819.2" x2="819.2"><stop offset="0" stop-color="#faa684"/><stop offset="1" stop-color="#ffecd9"/></linearGradient><path d="M19.65 14l-.3 4.4q-.25 2.05-1.25 3.65l.5-2.85.05-.1.75-5.85v-.05l.4-5.55.25 2.2-.4 3.9V14" fill="url(#f)"/><linearGradient id="g" gradientUnits="userSpaceOnUse" gradientTransform="matrix(0 -.01321 .0095 0 10.6 26.45)" x1="-819.2" x2="819.2"><stop offset="0" stop-color="#faa684"/><stop offset="1" stop-color="#ffecd9"/></linearGradient><path d="M3.7 22.55l-.65-3.35 1.85 3.4.35.6.85 1.2.8.9.75.65.9.6 1.85.5 2.7-.5.95-.6.75-.65.6-.65 1.05-1.45.45-.75 1.7-3.25-.5 2.85-.1.2-1.95 2.5-.6.55q-1.4 1.2-2.6 1.55l-2.1.45-2.1-.45q-1.2-.35-2.55-1.55l-.65-.55-1.75-2.2" fill="url(#g)"/><linearGradient id="h" gradientUnits="userSpaceOnUse" gradientTransform="matrix(0 -.00671 .00328 0 10.85 28)" x1="-819.2" x2="819.2"><stop offset="0" stop-color="#faa684"/><stop offset="1" stop-color="#ffecd9"/></linearGradient><path d="M4.9 22.6q.8.5 2.75 2.7l.05.05.45.25q1.75.95 2.9.8 1.2-.1 2.5-.9l.35-.15.05-.05q2.25-2.5 2.95-2.85l-.45.75-1.05 1.45-.6.65-.75.65-.95.6-2.7.5-1.85-.5-.9-.6-.75-.65-.8-.9-.85-1.2-.35-.6" fill="url(#h)"/><radialGradient id="i" gradientUnits="userSpaceOnUse" gradientTransform="matrix(.01025 0 0 .00995 10.2 -2.95)" spreadMethod="pad" cx="0" cy="0" r="819.2" fx="41" fy="0"><stop offset="0" stop-color="#fff"/><stop offset=".988" stop-color="#ffecd9"/></radialGradient><path d="M19.65 13.75v.05-.05" fill="url(#i)"/><path d="M18.1 22.05q1-1.6 1.25-3.65l.3-4.4v-.25l.4-3.9-.25-2.2q-.55-2.65-2.5-4.7l-.4-.4Q14.25.05 10.65.1 7.5.05 5.1 1.9L3.95 2.95Q3 3.85 2.45 5l-.3.6-.7 1.9-.2 1.8v1.75l.6 3.3.3 4.05q.25 2.2 1.35 3.85l.2.3m15.95-8.8v.05m-1.55 8.25l-.1.2-1.95 2.5-.6.55q-1.4 1.2-2.6 1.55l-2.1.45-2.1-.45q-1.2-.35-2.55-1.55l-.65-.55-1.75-2.2" fill="none" stroke-width=".05" stroke-linecap="round" stroke-linejoin="round" stroke-miterlimit="3" stroke="#fd9e66"/><radialGradient id="j" gradientUnits="userSpaceOnUse" gradientTransform="matrix(.00998 0 0 .00967 16.45 3.1)" spreadMethod="pad" cx="0" cy="0" r="819.2" fx="0" fy="0"><stop offset="0" stop-color="#fff" stop-opacity=".161"/><stop offset="1" stop-color="#fff" stop-opacity="0"/></radialGradient><path d="M11.2.3l.1.05q5.05 1.35 5.85 2.3 1.8 2.05 1.8 4.05 0 3.2-5.45 3.2L12 9.65q-.55-.4-1.05-1.85-.55-1.6-.45-2.5l-.05-1.95q0-1.85.75-3.05" fill="url(#j)"/><radialGradient id="k" gradientUnits="userSpaceOnUse" gradientTransform="matrix(.00827 0 0 .00801 16.1 6.4)" spreadMethod="pad" cx="0" cy="0" r="819.2" fx="0" fy="0"><stop offset="0" stop-color="#fff" stop-opacity=".643"/><stop offset="1" stop-color="#fff" stop-opacity="0"/></radialGradient><path d="M19.15 12l.25-1.8q0-2.8-1.55-5.4-1.95-3.25-5.3-4h.4q3.1.5 5 3.15 1.7 2.3 1.7 4.65L19.2 12h-.05" fill="url(#k)"/><radialGradient id="l" gradientUnits="userSpaceOnUse" gradientTransform="matrix(.00858 0 0 .0083 4.55 6.75)" spreadMethod="pad" cx="0" cy="0" r="819.2" fx="0" fy="0"><stop offset="0" stop-color="#fff" stop-opacity=".502"/><stop offset="1" stop-color="#fff" stop-opacity="0"/></radialGradient><path d="M3.4 4.95q-1.55 2.6-1.55 5 0 1.55.45 2.65v.2h-.05q-.7-2.45-.7-4.45l.1-1.2q0-.9 1.9-3.45Q4.9 1.65 7.5.75h.05Q5 2.25 3.4 4.95" fill="url(#l)"/><radialGradient id="m" gradientUnits="userSpaceOnUse" gradientTransform="matrix(.00958 0 0 .00928 10.3 3.15)" spreadMethod="pad" cx="0" cy="0" r="819.2" fx="0" fy="0"><stop offset="0" stop-color="#fff" stop-opacity=".502"/><stop offset="1" stop-color="#fff" stop-opacity="0"/></radialGradient><path d="M16.35 2.15q.95.8 1.7 2-.45 2-2.25 3.4-2.25 1.85-5.5 1.85-3.2 0-5.55-1.85-2-1.6-2.2-3.9l.95-.7L5.7 1.5Q7.15.65 8.6.3l2-.25 1.7.1 1.15.4 1.15.5q.75.3 1.75 1.1" fill="url(#m)"/><radialGradient id="n" gradientUnits="userSpaceOnUse" gradientTransform="matrix(.00375 .00267 -.00313 .00475 17.15 18.15)" spreadMethod="pad" cx="0" cy="0" r="819.2" fx="0" fy="0"><stop offset=".067" stop-color="#ffb2b2" stop-opacity=".624"/><stop offset=".631" stop-color="#ffd0c9" stop-opacity=".365"/><stop offset="1" stop-color="#ffeddb" stop-opacity="0"/></radialGradient><path d="M19.7 14.4q1.2.85 1.4 2.55.15 1.8-.9 3.4-1.05 1.5-2.7 2.05-1.55.45-2.85-.4-1.25-.95-1.35-2.65-.15-1.75.85-3.35 1.05-1.55 2.7-2.1 1.65-.5 2.85.5" fill="url(#n)"/><radialGradient id="o" gradientUnits="userSpaceOnUse" gradientTransform="matrix(-.00414 .00218 .00253 .0051 4.8 18.2)" spreadMethod="pad" cx="0" cy="0" r="819.2" fx="0" fy="0"><stop offset=".067" stop-color="#ffb2b2" stop-opacity=".624"/><stop offset=".631" stop-color="#ffd0c9" stop-opacity=".365"/><stop offset="1" stop-color="#ffeddb" stop-opacity="0"/></radialGradient><path d="M8.05 16.45q.85 1.7.5 3.45-.4 1.7-1.8 2.4l-2.9.05q-1.55-.7-2.4-2.35-.85-1.75-.5-3.45.4-1.75 1.75-2.45l2.95-.05q1.55.7 2.4 2.4" fill="url(#o)"/></svg>