<svg width="24" height="29" xmlns="http://www.w3.org/2000/svg">
 <defs>
  <radialGradient fy="0" fx="3" r="819.2" cy="0" cx="0" spreadMethod="pad" gradientTransform="matrix(0.014419999904930592,0,0,0.032760001718997955,12.4375,12.8125)" gradientUnits="userSpaceOnUse" id="a">
   <stop stop-color="#ffecd9" offset="0.459"/>
   <stop stop-color="#feccab" offset="1"/>
  </radialGradient>
  <radialGradient fy="0" fx="0" r="819.2" cy="0" cx="0" spreadMethod="pad" gradientTransform="matrix(0.010970000177621841,0,0,0.01283000037074089,12.287500381469727,18.012500762939453)" gradientUnits="userSpaceOnUse" id="b">
   <stop stop-color="#ffecd9" offset="0.459"/>
   <stop stop-color="#feccab" offset="1"/>
  </radialGradient>
  <radialGradient fy="0" fx="0" r="819.2" cy="0" cx="0" spreadMethod="pad" gradientTransform="matrix(-0.004530000034719706,0.002099999925121665,0.0033100000582635403,0.005859999917447567,5.187497138977051,18.162500381469727)" gradientUnits="userSpaceOnUse" id="c">
   <stop stop-opacity="0.573" stop-color="#ffb2b2" offset="0.067"/>
   <stop stop-opacity="0.282" stop-color="#ffbeb5" offset="0.631"/>
   <stop stop-opacity="0" stop-color="#ffd3cf" offset="1"/>
  </radialGradient>
  <radialGradient fy="0" fx="0" r="819.2" cy="0" cx="0" spreadMethod="pad" gradientTransform="matrix(0.004530000034719706,0.002099999925121665,-0.0033100000582635403,0.005859999917447567,19.037500381469727,18.162500381469727)" gradientUnits="userSpaceOnUse" id="d">
   <stop stop-opacity="0.573" stop-color="#ffb2b2" offset="0.067"/>
   <stop stop-opacity="0.282" stop-color="#ffbeb5" offset="0.631"/>
   <stop stop-opacity="0" stop-color="#ffd3cf" offset="1"/>
  </radialGradient>
  <radialGradient fy="0" fx="0" r="819.2" cy="0" cx="0" spreadMethod="pad" gradientTransform="matrix(0.01066999975591898,0,0,0.010329999960958958,18.387500762939453,3.312499523162842)" gradientUnits="userSpaceOnUse" id="e">
   <stop stop-opacity="0.161" stop-color="#fff" offset="0"/>
   <stop stop-opacity="0" stop-color="#fff" offset="1"/>
  </radialGradient>
  <radialGradient fy="0" fx="0" r="819.2" cy="0" cx="0" spreadMethod="pad" gradientTransform="matrix(0.008829999715089798,0,0,0.008559999987483025,17.987499237060547,6.862499237060547)" gradientUnits="userSpaceOnUse" id="f">
   <stop stop-opacity="0.643" stop-color="#fff" offset="0"/>
   <stop stop-opacity="0" stop-color="#fff" offset="1"/>
  </radialGradient>
  <radialGradient fy="0" fx="0" r="819.2" cy="0" cx="0" spreadMethod="pad" gradientTransform="matrix(0.009159999899566174,0,0,0.008870000019669533,5.587497234344482,7.2624993324279785)" gradientUnits="userSpaceOnUse" id="g">
   <stop stop-opacity="0.502" stop-color="#fff" offset="0"/>
   <stop stop-opacity="0" stop-color="#fff" offset="1"/>
  </radialGradient>
  <radialGradient fy="0" fx="0" r="819.2" cy="0" cx="0" spreadMethod="pad" gradientTransform="matrix(0.010239999741315842,0,0,0.009920000098645687,11.787500381469727,3.362499713897705)" gradientUnits="userSpaceOnUse" id="h">
   <stop stop-opacity="0.502" stop-color="#fff" offset="0"/>
   <stop stop-opacity="0" stop-color="#fff" offset="1"/>
  </radialGradient>
  <radialGradient fy="0" fx="0" r="819.2" cy="0" cx="0" spreadMethod="pad" gradientTransform="matrix(0.00422667758539319,-0.000985289691016078,0.000985289691016078,0.00422667758539319,21.367143630981445,16.33781623840332)" gradientUnits="userSpaceOnUse" id="i">
   <stop stop-color="#d7914a" offset="0"/>
   <stop stop-color="#f5c9ab" offset="0.62"/>
  </radialGradient>
  <radialGradient fy="0" fx="0" r="819.2" cy="0" cx="0" spreadMethod="pad" gradientTransform="matrix(-0.004259999841451645,-0.0007999999797903001,-0.0007999999797903001,0.004259999841451645,2.8374972343444824,16.262500762939453)" gradientUnits="userSpaceOnUse" id="j">
   <stop stop-color="#d7914a" offset="0"/>
   <stop stop-color="#f5c9ab" offset="0.62"/>
  </radialGradient>
 </defs>
 <g>
  <title>background</title>
  <rect fill="none" id="canvas_background" height="402" width="582" y="-1" x="-1"/>
 </g>
 <g>
  <title>Layer 1</title>
  <g id="svg_1">
   <path id="svg_2" fill="#ffecd9" d="m18.637501,2.5625l0,4.45l-0.1,2.150001q0,1.5 0.449999,3.95l0.5,3.05l-0.299999,2l-0.849998,2.4l-1.700001,1.049999l-0.85,1.299999q-0.5,0.5 0.25,1.150002q0.699999,0.599998 -0.5,2.200001q-1.25,1.599998 -2,1.799999l-1.35,0.25l-1.45,-0.25q-0.8,-0.200001 -2,-1.799999q-1.250003,-1.600002 -0.500002,-2.200001q0.700002,-0.650002 0.250002,-1.150002l-0.900003,-1.299999l-1.7,-1.049999l-0.8,-2.4l-0.35,-2l0.5,-3.05q0.45,-2.45 0.45,-3.95l-0.05,-1.850001l0,-4.8q2.750003,-2.5 6.500004,-2.45q3.7,-0.05 6.5,2.5"/>
   <path id="svg_3" fill="url(#a)" d="m21.637501,13.7125l0,0.35q-0.150002,2.450001 -0.950001,5.450001l-0.349998,1.25l-0.350002,1.299999l0.600002,-2.85l0.049999,-0.199999l-0.150002,0.25q-0.699999,1.5 -1.699999,2l-0.050001,0.049999l-0.349998,0.85l-0.6,1.4l0,0.049999l0.050001,0l0.649998,-0.75l0.600002,-0.599998l-1.25,1.899998l-1.200001,2.25l-0.049999,0l-1.100001,1l-1.8,1.25l-1.5,0.350002l-1.599999,-0.350002l-1.8,-1.25l-1.100003,-1l-1.3,-2.25l-1.4,-2.149998l0.15,0.25l0.6,0.599998l0.65,0.75l0.05,0l0.25,0.25l-0.85,-1.699999l-0.35,-0.85l-0.05,-0.049999q-0.95,-0.5 -1.7,-2l-0.05,-0.1l0,0.049999l0.5,2.4l-0.25,-0.849998l-0.349999,-1.25q-0.75,-2.900002 -0.900001,-5.250001l-0.549999,-2.5l-0.05,-1.3l0,-0.549999l0.25,-1.900001q0.25,-1.5 1.05,-2.7q0.599999,-1.2 1.599999,-2.2l0.65,-0.6l0,4.8l0.05,1.850001q0,1.5 -0.45,3.95l-0.5,3.05l0.35,2l0.8,2.4l1.7,1.049999l0.900003,1.299999q0.45,0.5 -0.250002,1.150002q-0.750001,0.599998 0.500002,2.200001q1.2,1.599998 2,1.799999l1.45,0.25l1.35,-0.25q0.75,-0.200001 2,-1.799999q1.199999,-1.600002 0.5,-2.200001q-0.75,-0.650002 -0.25,-1.150002l0.85,-1.299999l1.700001,-1.049999l0.849998,-2.4l0.299999,-2l-0.5,-3.05q-0.449999,-2.45 -0.449999,-3.95l0.1,-2.150001l0,-4.45l0.599998,0.55q2.900002,3.049999 2.950001,7.35l-0.5,2.900001l-0.049999,0.349999"/>
   <path id="svg_4" fill="url(#b)" d="m4.187497,21.612499l-0.5,-2.4l0,-0.049999l0.05,0.1q0.75,1.5 1.7,2l0.05,0.049999l0.35,0.85l0.85,1.699999l-0.25,-0.25l-0.05,0l-0.65,-0.75l-0.6,-0.599998l-0.15,-0.25l1.4,2.149998l1.3,2.25l-1.25,-1.149998l-0.05,-0.050001q-1.35,-1.25 -1.85,-2.449999l-0.15,-0.400002l-0.2,-0.75m13.650004,3.650002l-0.150002,0.199999l-0.799999,0.699999l-0.25,0.25l1.200001,-2.25l1.25,-1.899998l-0.600002,0.599998l-0.649998,0.75l-0.050001,0l0,-0.049999l0.6,-1.4l0.349998,-0.85l0.050001,-0.049999q1,-0.5 1.699999,-2l0.150002,-0.25l-0.049999,0.199999l-0.600002,2.85l-0.199999,0.700001l-0.050001,0q-0.5,1.25 -1.849998,2.449999l-0.049999,0.050001"/>
   <path id="svg_5" stroke="#fd9e66" stroke-miterlimit="3" stroke-linejoin="round" stroke-linecap="round" stroke-width="0.05" fill="none" d="m5.637497,2.512499l-0.65,0.6q-1,1 -1.599999,2.2q-0.8,1.2 -1.05,2.7l-0.25,1.900001l0,0.549999l0.05,1.3l0.549999,2.5q0.150001,2.349999 0.900001,5.250001l0.349999,1.25l0.25,0.849998m3.5,4.799999l1.100003,1l1.8,1.25l1.599999,0.350002l1.5,-0.350002l1.8,-1.25l1.100001,-1l0.049999,0m3.349998,-4.349998l0.350002,-1.299999l0.349998,-1.25q0.799999,-3 0.950001,-5.450001q-0.049999,-0.35 0.049999,-0.7l0.5,-2.900001q-0.049999,-4.300001 -2.950001,-7.35l-0.599998,-0.55m-13.000004,-0.05q2.750003,-2.5 6.500004,-2.45q3.7,-0.05 6.5,2.5m3,11.5l0,-0.35l0.049999,-0.349999m-14.000003,13.049998l-1.25,-1.149998l-0.05,-0.050001q-1.35,-1.25 -1.85,-2.449999l-0.15,-0.400002l-0.2,-0.75m15.800002,0.450001l-0.099998,0.299999l-0.1,0.400002l-0.050001,0q-0.5,1.25 -1.849998,2.449999l-0.049999,0.050001l-0.950001,0.899998l-0.25,0.25"/>
   <path id="svg_6" fill="url(#c)" d="m2.537497,14.412499l0.45,-0.299999q1.55,-0.75 3.35,-0.05q1.75,0.7 2.700003,2.4q0.9,1.700001 0.55,3.4q-0.45,1.650002 -2.050004,2.400002l-2.3,0.299999l-1,-1.5q-0.55,-0.950001 -1.099999,-3.700001l-0.55,-2.7l-0.05,-0.25"/>
   <path id="svg_7" fill="url(#d)" d="m21.637501,14.662499l-0.549999,2.850001l-1.100002,3.549999l-1,1.5l-2.299999,-0.299999q-1.599999,-0.75 -2,-2.400002q-0.4,-1.699999 0.5,-3.4q0.950001,-1.7 2.700001,-2.4q1.799999,-0.7 3.349998,0.05l0.450001,0.25l-0.049999,0.299999"/>
   <path id="svg_8" fill="url(#e)" d="m19.137501,2.8625q1.950001,2.2 1.950001,4.300001q0,3.400001 -5.850001,3.400001l-1.599999,-0.250001q-0.6,-0.4 -1.1,-1.950001q-0.6,-1.7 -0.5,-2.65l-0.05,-2.099999q0,-2 0.8,-3.25l0.1,0.049999q5.349998,1.450001 6.25,2.450001"/>
   <path id="svg_9" fill="url(#f)" d="m21.7875,9.2125l-0.5,3.6l-0.050001,0l0.200001,-1.9q0,-3.000001 -1.599998,-5.750001q-2.100002,-3.5 -5.650002,-4.299999l0.400001,0q3.3,0.549999 5.349999,3.4q1.85,2.45 1.85,4.95"/>
   <path id="svg_10" fill="url(#g)" d="m4.387497,5.3125q-1.65,2.75 -1.65,5.3q0,1.700001 0.5,2.85l0,0.2l-0.05,0q-0.799999,-2.55 -0.799999,-4.7l0.15,-1.3q0,-0.95 2,-3.7q1.45,-2.2 4.250003,-3.15l0.05,0q-2.750003,1.599999 -4.450004,4.5"/>
   <path id="svg_11" fill="url(#h)" d="m13.887501,0.212499l1.25,0.400001l1.25,0.549999q0.75,0.3 1.849998,1.200001l1.800001,2.099999q-0.449999,2.1 -2.4,3.65q-2.400001,1.950001 -5.85,1.950001q-3.450001,0 -5.950003,-1.950001q-2.150001,-1.75 -2.35,-4.2l1,-0.75l2.4,-1.549999q1.550003,-0.900001 3.100003,-1.3l2.1,-0.25l1.8,0.15"/>
   <path id="svg_12" fill="#f7d2bb" d="m22.5375,19.112499l-0.15,0.300001l-0.450001,0.9l-0.450001,0.35l-0.449999,0.1l-0.300001,0l-0.149998,-0.200001l-0.100002,-0.799999l0.450001,-0.400002l-0.099998,-0.049999q0.5,-0.799999 1.049999,-1.25l0.65,-0.450001l0.15,-0.349998l0,-0.050001l0.150002,-0.4l0.149998,-0.900001q-0.149998,-1.7 -1,-1.7l-0.549999,0.05l0.400002,-0.55l0.349998,-0.099999l0.400002,-0.1q0.449999,-0.1 0.799999,0.75l0,0.1l0.049999,0.099999l0,0.150001l0.049999,0.5q0.100002,1.8 -0.75,2.599999l-1.299999,1.35l-0.15,0.1q0.65,-0.35 1.1,-0.35l0.200001,0.15l-0.050001,0.15m-0.050001,-5.349999l0.800001,0.75l0,0.25l0,-0.1q-0.050001,-0.7 -0.75,-0.95l-0.050001,0.05m0.700001,2l-0.25,1.150001l0.400002,-0.85l-0.050001,-0.25l-0.1,-0.05m-1.549999,3.8q-0.700001,-0.049999 -0.799999,0.799999l0.199999,0.050001l0.199999,0.049999q0.300001,-0.049999 0.450001,-0.25l0.200001,-0.4l0.299999,-0.6l-0.549999,0.35"/>
   <path id="svg_13" fill="#f9c29f" d="m22.587502,18.9625l-0.200001,-0.15q-0.450001,0 -1.1,0.35l0.15,-0.1l1.299999,-1.35q0.850002,-0.799999 0.75,-2.599999l-0.049999,-0.5l0.200001,0.849999l-0.200001,1.950001l-0.5,1.199999l-0.4,0.5l0.050001,-0.15"/>
   <path id="svg_14" fill="#f9e1d2" d="m22.5375,13.7125q0.699999,0.25 0.75,0.95l0,0.1l0,-0.25l-0.800001,-0.75l0.050001,-0.05m0.75,2.1l0.050001,0.25l-0.400002,0.85l0.25,-1.150001l0.1,0.05m-1.1,3.4l-0.299999,0.6l-0.200001,0.4q-0.15,0.200001 -0.450001,0.25l-0.199999,-0.049999l-0.199999,-0.050001q0.099998,-0.849998 0.799999,-0.799999l0.549999,-0.35"/>
   <path id="svg_15" fill="url(#i)" d="m20.487499,19.762501l0.050001,-0.800001l0.25,-1.5l0.25,-1.599999q0.050001,-0.700001 0.4,-1.6l0.549999,-0.05q0.850002,0 1,1.7l-0.149998,0.900001l-0.150002,0.4l0,0.050001l-0.15,0.349998l-0.65,0.450001q-0.549999,0.450001 -1.049999,1.25l0.099998,0.049999l-0.450001,0.400002"/>
   <path id="svg_16" stroke="#fd9e66" stroke-miterlimit="3" stroke-linejoin="round" stroke-linecap="round" stroke-width="0.05" fill="none" d="m21.4375,14.2625l0.400002,-0.55l0.349998,-0.099999l0.400002,-0.1q0.449999,-0.1 0.799999,0.75l0,0.1l0.049999,0.099999l0,0.150001l0.200001,0.849999l-0.200001,1.950001l-0.5,1.199999l-0.4,0.5l-0.15,0.300001l-0.450001,0.9l-0.450001,0.35l-0.449999,0.1l-0.300001,0l-0.149998,-0.200001l-0.100002,-0.799999l0.050001,-0.800001l0.25,-1.5l0.25,-1.599999q0.050001,-0.700001 0.4,-1.6z"/>
   <path id="svg_17" fill="#f7d2bb" d="m1.687497,19.112499l0.150001,0.300001l0.5,0.9l0.5,0.299999l0.45,0.050001l0.3,0.049999l0.099999,-0.199999q0.150001,-0.200001 0.05,-0.800001l-0.4,-0.4l0.05,-0.049999l-1.05,-1.200001l-0.650001,-0.450001l-0.2,-0.349998l0,-0.050001l-0.2,-0.4l-0.15,-0.900001q0.049999,-1.7 0.95,-1.75l0.55,0.05q-0.25,-0.55 -0.450001,-0.5l-0.299999,-0.15l-0.400001,-0.05q-0.55,-0.05 -0.849999,0.75l0,0.2l-0.05,0.1l0,0.65q-0.05,1.75 0.849999,2.550001l1.35,1.25l0.15,0.099998q-0.65,-0.4 -1.049999,-0.349998l-0.200001,0.199999l0,0.15m-0.099999,-5.349999l-0.85,0.8l0,0.25l0,-0.1q0,-0.7 0.75,-1l0.1,0.05m-0.7,2l0.349999,1.150001l-0.45,-0.85l0,-0.25l0.1,-0.05m1.7,3.750001q0.7,-0.050001 0.849999,0.799999l-0.2,0.049999l-0.2,0l-0.45,-0.15l-0.2,-0.4l-0.35,-0.6l0.55,0.300001"/>
   <path id="svg_18" fill="#f9c29f" d="m1.687497,18.9625l0.200001,-0.199999q0.4,-0.050001 1.049999,0.349998l-0.15,-0.099998l-1.35,-1.25q-0.9,-0.800001 -0.849999,-2.550001l0,-0.599999l-0.150001,0.849999l0.35,2l0.5,1.15l0.4,0.5l0,-0.15"/>
   <path id="svg_19" fill="#f9e1d2" d="m1.487497,13.7125q-0.75,0.3 -0.75,1l0,0.1l0,-0.25l0.85,-0.8l-0.1,-0.05m-0.7,2.1l0,0.25l0.45,0.85l-0.349999,-1.150001l-0.1,0.05m1.25,3.4l0.35,0.6l0.2,0.4l0.45,0.15l0.2,0l0.2,-0.049999q-0.15,-0.85 -0.849999,-0.799999l-0.55,-0.300001"/>
   <path id="svg_20" fill="url(#j)" d="m3.737497,19.7125l-0.099999,-0.85l-0.25,-1.4l-0.35,-1.65q-0.05,-0.75 -0.4,-1.6l-0.55,-0.05q-0.900001,0.05 -0.95,1.75l0.15,0.900001l0.2,0.4l0,0.050001l0.2,0.349998l0.650001,0.450001l1.05,1.200001l-0.05,0.049999l0.4,0.4"/>
   <path id="svg_21" stroke="#fd9e66" stroke-miterlimit="3" stroke-linejoin="round" stroke-linecap="round" stroke-width="0.05" fill="none" d="m2.637497,14.2125q-0.25,-0.55 -0.450001,-0.5l-0.299999,-0.15l-0.400001,-0.05q-0.55,-0.05 -0.849999,0.75l0,0.2l-0.05,0.1l0,0.05l-0.150001,0.849999l0.35,2l0.5,1.15l0.4,0.5l0.150001,0.300001l0.5,0.9l0.5,0.299999l0.45,0.050001l0.3,0.049999l0.099999,-0.199999q0.150001,-0.200001 0.05,-0.800001l-0.099999,-0.85l-0.25,-1.4l-0.35,-1.65q-0.05,-0.75 -0.4,-1.6z"/>
  </g>
 </g>
</svg>