<svg width="24" height="29" xmlns="http://www.w3.org/2000/svg"><defs><radialGradient fy="0" fx="3" r="819.2" cy="0" cx="0" spreadMethod="pad" gradientTransform="matrix(.01442 0 0 .03276 12.438 12.813)" gradientUnits="userSpaceOnUse" id="a"><stop stop-color="#ffecd9" offset=".459"/><stop stop-color="#feccab" offset="1"/></radialGradient><radialGradient fy="0" fx="0" r="819.2" cy="0" cx="0" spreadMethod="pad" gradientTransform="matrix(.01097 0 0 .01283 12.288 18.013)" gradientUnits="userSpaceOnUse" id="b"><stop stop-color="#ffecd9" offset=".459"/><stop stop-color="#feccab" offset="1"/></radialGradient><radialGradient fy="0" fx="0" r="819.2" cy="0" cx="0" spreadMethod="pad" gradientTransform="matrix(-.00453 .0021 .00331 .00586 5.187 18.163)" gradientUnits="userSpaceOnUse" id="c"><stop stop-opacity=".573" stop-color="#ffb2b2" offset=".067"/><stop stop-opacity=".282" stop-color="#ffbeb5" offset=".631"/><stop stop-opacity="0" stop-color="#ffd3cf" offset="1"/></radialGradient><radialGradient fy="0" fx="0" r="819.2" cy="0" cx="0" spreadMethod="pad" gradientTransform="matrix(.00453 .0021 -.00331 .00586 19.038 18.163)" gradientUnits="userSpaceOnUse" id="d"><stop stop-opacity=".573" stop-color="#ffb2b2" offset=".067"/><stop stop-opacity=".282" stop-color="#ffbeb5" offset=".631"/><stop stop-opacity="0" stop-color="#ffd3cf" offset="1"/></radialGradient><radialGradient fy="0" fx="0" r="819.2" cy="0" cx="0" spreadMethod="pad" gradientTransform="matrix(.01067 0 0 .01033 18.388 3.312)" gradientUnits="userSpaceOnUse" id="e"><stop stop-opacity=".161" stop-color="#fff" offset="0"/><stop stop-opacity="0" stop-color="#fff" offset="1"/></radialGradient><radialGradient fy="0" fx="0" r="819.2" cy="0" cx="0" spreadMethod="pad" gradientTransform="matrix(.00883 0 0 .00856 17.987 6.862)" gradientUnits="userSpaceOnUse" id="f"><stop stop-opacity=".643" stop-color="#fff" offset="0"/><stop stop-opacity="0" stop-color="#fff" offset="1"/></radialGradient><radialGradient fy="0" fx="0" r="819.2" cy="0" cx="0" spreadMethod="pad" gradientTransform="matrix(.00916 0 0 .00887 5.587 7.262)" gradientUnits="userSpaceOnUse" id="g"><stop stop-opacity=".502" stop-color="#fff" offset="0"/><stop stop-opacity="0" stop-color="#fff" offset="1"/></radialGradient><radialGradient fy="0" fx="0" r="819.2" cy="0" cx="0" spreadMethod="pad" gradientTransform="matrix(.01024 0 0 .00992 11.788 3.362)" gradientUnits="userSpaceOnUse" id="h"><stop stop-opacity=".502" stop-color="#fff" offset="0"/><stop stop-opacity="0" stop-color="#fff" offset="1"/></radialGradient><radialGradient fy="0" fx="0" r="819.2" cy="0" cx="0" spreadMethod="pad" gradientTransform="rotate(-13.122 81.709 -84.72) scale(.00434)" gradientUnits="userSpaceOnUse" id="i"><stop stop-color="#d7914a" offset="0"/><stop stop-color="#f5c9ab" offset=".62"/></radialGradient><radialGradient fy="0" fx="0" r="819.2" cy="0" cx="0" spreadMethod="pad" gradientTransform="matrix(-.00426 -.0008 -.0008 .00426 2.837 16.263)" gradientUnits="userSpaceOnUse" id="j"><stop stop-color="#d7914a" offset="0"/><stop stop-color="#f5c9ab" offset=".62"/></radialGradient></defs><path fill="none" d="M-1-1h582v402H-1z"/><g><path fill="#ffecd9" d="M18.638 2.563v4.45l-.1 2.15q0 1.5.45 3.95l.5 3.05-.3 2-.85 2.4-1.7 1.05-.85 1.3q-.5.5.25 1.15.7.6-.5 2.2-1.25 1.6-2 1.8l-1.35.25-1.45-.25q-.8-.2-2-1.8-1.25-1.6-.5-2.2.7-.65.25-1.15l-.9-1.3-1.7-1.05-.8-2.4-.35-2 .5-3.05q.45-2.45.45-3.95l-.05-1.85v-4.8q2.75-2.5 6.5-2.45 3.7-.05 6.5 2.5"/><path fill="url(#a)" d="M21.638 13.713v.35q-.15 2.45-.95 5.45l-.35 1.25-.35 1.3.6-2.85.05-.2-.15.25q-.7 1.5-1.7 2l-.05.05-.35.85-.6 1.4v.05h.05l.65-.75.6-.6-1.25 1.9-1.2 2.25h-.05l-1.1 1-1.8 1.25-1.5.35-1.6-.35-1.8-1.25-1.1-1-1.3-2.25-1.4-2.15.15.25.6.6.65.75h.05l.25.25-.85-1.7-.35-.85-.05-.05q-.95-.5-1.7-2l-.05-.1v.05l.5 2.4-.25-.85-.35-1.25q-.75-2.9-.9-5.25l-.55-2.5-.05-1.3v-.55l.25-1.9q.25-1.5 1.05-2.7.6-1.2 1.6-2.2l.65-.6v4.8l.05 1.85q0 1.5-.45 3.95l-.5 3.05.35 2 .8 2.4 1.7 1.05.9 1.3q.45.5-.25 1.15-.75.6.5 2.2 1.2 1.6 2 1.8l1.45.25 1.35-.25q.75-.2 2-1.8 1.2-1.6.5-2.2-.75-.65-.25-1.15l.85-1.3 1.7-1.05.85-2.4.3-2-.5-3.05q-.45-2.45-.45-3.95l.1-2.15v-4.45l.6.55q2.9 3.05 2.95 7.35l-.5 2.9-.05.35"/><path fill="url(#b)" d="M4.187 21.612l-.5-2.4v-.05l.05.1q.75 1.5 1.7 2l.05.05.35.85.85 1.7-.25-.25h-.05l-.65-.75-.6-.6-.15-.25 1.4 2.15 1.3 2.25-1.25-1.15-.05-.05q-1.35-1.25-1.85-2.45l-.15-.4-.2-.75m13.65 3.65l-.15.2-.8.7-.25.25 1.2-2.25 1.25-1.9-.6.6-.65.75h-.05v-.05l.6-1.4.35-.85.05-.05q1-.5 1.7-2l.15-.25-.05.2-.6 2.85-.2.7h-.05q-.5 1.25-1.85 2.45l-.05.05"/><path stroke="#fd9e66" stroke-miterlimit="3" stroke-linejoin="round" stroke-linecap="round" stroke-width=".05" fill="none" d="M5.637 2.512l-.65.6q-1 1-1.6 2.2-.8 1.2-1.05 2.7l-.25 1.9v.55l.05 1.3.55 2.5q.15 2.35.9 5.25l.35 1.25.25.85m3.5 4.8l1.1 1 1.8 1.25 1.6.35 1.5-.35 1.8-1.25 1.1-1h.05m3.35-4.35l.35-1.3.35-1.25q.8-3 .95-5.45-.05-.35.05-.7l.5-2.9q-.05-4.3-2.95-7.35l-.6-.55m-13-.05q2.75-2.5 6.5-2.45 3.7-.05 6.5 2.5m3 11.5v-.35l.05-.35m-14 13.05l-1.25-1.15-.05-.05q-1.35-1.25-1.85-2.45l-.15-.4-.2-.75m15.8.45l-.1.3-.1.4h-.05q-.5 1.25-1.85 2.45l-.05.05-.95.9-.25.25"/><path fill="url(#c)" d="M2.537 14.412l.45-.3q1.55-.75 3.35-.05 1.75.7 2.7 2.4.9 1.7.55 3.4-.45 1.65-2.05 2.4l-2.3.3-1-1.5q-.55-.95-1.1-3.7l-.55-2.7-.05-.25"/><path fill="url(#d)" d="M21.638 14.662l-.55 2.85-1.1 3.55-1 1.5-2.3-.3q-1.6-.75-2-2.4-.4-1.7.5-3.4.95-1.7 2.7-2.4 1.8-.7 3.35.05l.45.25-.05.3"/><path fill="url(#e)" d="M19.138 2.862q1.95 2.2 1.95 4.3 0 3.4-5.85 3.4l-1.6-.25q-.6-.4-1.1-1.95-.6-1.7-.5-2.65l-.05-2.1q0-2 .8-3.25l.1.05q5.35 1.45 6.25 2.45"/><path fill="url(#f)" d="M21.788 9.213l-.5 3.6h-.05l.2-1.9q0-3-1.6-5.75-2.1-3.5-5.65-4.3h.4q3.3.55 5.35 3.4 1.85 2.45 1.85 4.95"/><path fill="url(#g)" d="M4.387 5.313q-1.65 2.75-1.65 5.3 0 1.7.5 2.85v.2h-.05q-.8-2.55-.8-4.7l.15-1.3q0-.95 2-3.7 1.45-2.2 4.25-3.15h.05q-2.75 1.6-4.45 4.5"/><path fill="url(#h)" d="M13.888.212l1.25.4 1.25.55q.75.3 1.85 1.2l1.8 2.1q-.45 2.1-2.4 3.65-2.4 1.95-5.85 1.95-3.45 0-5.95-1.95-2.15-1.75-2.35-4.2l1-.75 2.4-1.55q1.55-.9 3.1-1.3l2.1-.25 1.8.15"/><path fill="#f7d2bb" d="M22.538 19.112l-.15.3-.45.9-.45.35-.45.1h-.3l-.15-.2-.1-.8.45-.4-.1-.05q.5-.8 1.05-1.25l.65-.45.15-.35v-.05l.15-.4.15-.9q-.15-1.7-1-1.7l-.55.05.4-.55.35-.1.4-.1q.45-.1.8.75v.1l.05.1v.15l.05.5q.1 1.8-.75 2.6l-1.3 1.35-.15.1q.65-.35 1.1-.35l.2.15-.05.15m-.05-5.35l.8.75v.25-.1q-.05-.7-.75-.95l-.05.05m.7 2l-.25 1.15.4-.85-.05-.25-.1-.05m-1.55 3.8q-.7-.05-.8.8l.2.05.2.05q.3-.05.45-.25l.2-.4.3-.6-.55.35"/><path fill="#f9c29f" d="M22.588 18.962l-.2-.15q-.45 0-1.1.35l.15-.1 1.3-1.35q.85-.8.75-2.6l-.05-.5.2.85-.2 1.95-.5 1.2-.4.5.05-.15"/><path fill="#f9e1d2" d="M22.538 13.713q.7.25.75.95v.1-.25l-.8-.75.05-.05m.75 2.1l.05.25-.4.85.25-1.15.1.05m-1.1 3.4l-.3.6-.2.4q-.15.2-.45.25l-.2-.05-.2-.05q.1-.85.8-.8l.55-.35"/><path fill="url(#i)" d="M20.487 19.763l.05-.8.25-1.5.25-1.6q.05-.7.4-1.6l.55-.05q.85 0 1 1.7l-.15.9-.15.4v.05l-.15.35-.65.45q-.55.45-1.05 1.25l.1.05-.45.4"/><path stroke="#fd9e66" stroke-miterlimit="3" stroke-linejoin="round" stroke-linecap="round" stroke-width=".05" fill="none" d="M21.438 14.262l.4-.55.35-.1.4-.1q.45-.1.8.75v.1l.05.1v.15l.2.85-.2 1.95-.5 1.2-.4.5-.15.3-.45.9-.45.35-.45.1h-.3l-.15-.2-.1-.8.05-.8.25-1.5.25-1.6q.05-.7.4-1.6z"/><path fill="#f7d2bb" d="M1.687 19.112l.15.3.5.9.5.3.45.05.3.05.1-.2q.15-.2.05-.8l-.4-.4.05-.05-1.05-1.2-.65-.45-.2-.35v-.05l-.2-.4-.15-.9q.05-1.7.95-1.75l.55.05q-.25-.55-.45-.5l-.3-.15-.4-.05q-.55-.05-.85.75v.2l-.05.1v.65q-.05 1.75.85 2.55l1.35 1.25.15.1q-.65-.4-1.05-.35l-.2.2v.15m-.1-5.35l-.85.8v.25-.1q0-.7.75-1l.1.05m-.7 2l.35 1.15-.45-.85v-.25l.1-.05m1.7 3.75q.7-.05.85.8l-.2.05h-.2l-.45-.15-.2-.4-.35-.6.55.3"/><path fill="#f9c29f" d="M1.687 18.962l.2-.2q.4-.05 1.05.35l-.15-.1-1.35-1.25q-.9-.8-.85-2.55v-.6l-.15.85.35 2 .5 1.15.4.5v-.15"/><path fill="#f9e1d2" d="M1.487 13.713q-.75.3-.75 1v.1-.25l.85-.8-.1-.05m-.7 2.1v.25l.45.85-.35-1.15-.1.05m1.25 3.4l.35.6.2.4.45.15h.2l.2-.05q-.15-.85-.85-.8l-.55-.3"/><path fill="url(#j)" d="M3.737 19.712l-.1-.85-.25-1.4-.35-1.65q-.05-.75-.4-1.6l-.55-.05q-.9.05-.95 1.75l.15.9.2.4v.05l.2.35.65.45 1.05 1.2-.05.05.4.4"/><path stroke="#fd9e66" stroke-miterlimit="3" stroke-linejoin="round" stroke-linecap="round" stroke-width=".05" fill="none" d="M2.637 14.213q-.25-.55-.45-.5l-.3-.15-.4-.05q-.55-.05-.85.75v.2l-.05.1v.05l-.15.85.35 2 .5 1.15.4.5.15.3.5.9.5.3.45.05.3.05.1-.2q.15-.2.05-.8l-.1-.85-.25-1.4-.35-1.65q-.05-.75-.4-1.6z"/></g></svg>