<svg width="23" height="29" xmlns="http://www.w3.org/2000/svg">
 <defs>
  <radialGradient fy="0" fx="0" r="819.2" cy="0" cx="0" spreadMethod="pad" gradientTransform="matrix(0.004287723917514086,-0.0006035923724994063,0.0006035923724994063,0.004287723917514086,20.246803283691406,15.474449157714844)" gradientUnits="userSpaceOnUse" id="a">
   <stop stop-color="#d7914a" offset="0"/>
   <stop stop-color="#f5c9ab" offset="0.62"/>
  </radialGradient>
  <radialGradient fy="0" fx="0" r="819.2" cy="0" cx="0" spreadMethod="pad" gradientTransform="matrix(-0.004290000069886446,-0.0006099999882280827,-0.0006099999882280827,0.004290000069886446,2.8249993324279785,15.600000381469727)" gradientUnits="userSpaceOnUse" id="b">
   <stop stop-color="#d7914a" offset="0"/>
   <stop stop-color="#f5c9ab" offset="0.62"/>
  </radialGradient>
  <radialGradient fy="0" fx="0" r="819.2" cy="0" cx="0" spreadMethod="pad" gradientTransform="matrix(0.015209999866783619,0,0,0.032099999487400055,11.675000190734863,10.100000381469727)" gradientUnits="userSpaceOnUse" id="c">
   <stop stop-color="#ffecd9" offset="0.612"/>
   <stop stop-color="#fba784" offset="1"/>
  </radialGradient>
  <radialGradient fy="0" fx="0" r="819.2" cy="0" cx="0" spreadMethod="pad" gradientTransform="matrix(0.015080000273883343,0,0,0.02054000087082386,10.875,19.200000762939453)" gradientUnits="userSpaceOnUse" id="d">
   <stop stop-color="#ffecd9" offset="0.408"/>
   <stop stop-color="#fba784" offset="1"/>
  </radialGradient>
  <radialGradient fy="0" fx="215" r="819.2" cy="0" cx="0" spreadMethod="pad" gradientTransform="matrix(0.014109999872744083,0.003809999907389283,-0.005969999823719263,0.02191000059247017,26.375,21.549999237060547)" gradientUnits="userSpaceOnUse" id="e">
   <stop stop-color="#feccab" offset="0"/>
   <stop stop-color="#ffecd9" offset="1"/>
  </radialGradient>
  <radialGradient fy="0" fx="41" r="819.2" cy="0" cx="0" spreadMethod="pad" gradientTransform="matrix(0.01095999963581562,0,0,0.010619999840855598,11.175000190734863,-3.25)" gradientUnits="userSpaceOnUse" id="f">
   <stop stop-color="#fff" offset="0"/>
   <stop stop-color="#ffecd9" offset="0.988"/>
  </radialGradient>
  <radialGradient fy="0" fx="0" r="819.2" cy="0" cx="0" spreadMethod="pad" gradientTransform="matrix(0.004600000102072954,0.0014199999859556556,-0.0021699999924749136,0.0071299998089671135,6.374997615814209,22.25)" gradientUnits="userSpaceOnUse" id="g">
   <stop stop-opacity="0.153" stop-color="#c42929" offset="0"/>
   <stop stop-opacity="0" stop-color="#ffefea" offset="1"/>
  </radialGradient>
  <radialGradient fy="0" fx="0" r="819.2" cy="0" cx="0" spreadMethod="pad" gradientTransform="matrix(0.0021200000774115324,0.0015999999595806003,-0.0031300000846385956,0.004170000087469816,16.475000381469727,25.5)" gradientUnits="userSpaceOnUse" id="h">
   <stop stop-opacity="0.082" stop-color="#c42929" offset="0"/>
   <stop stop-opacity="0" stop-color="#ffefea" offset="1"/>
  </radialGradient>
  <radialGradient fy="0" fx="0" r="819.2" cy="0" cx="0" spreadMethod="pad" gradientTransform="matrix(0.004600000102072954,0.0014199999859556556,-0.0021699999924749136,0.0071299998089671135,6.324997425079346,22.5)" gradientUnits="userSpaceOnUse" id="i">
   <stop stop-opacity="0.024" stop-color="#c42929" offset="0"/>
   <stop stop-opacity="0" stop-color="#ffefea" offset="1"/>
  </radialGradient>
  <radialGradient fy="0" fx="0" r="819.2" cy="0" cx="0" spreadMethod="pad" gradientTransform="matrix(0.001970000099390745,-0.0026199999265372753,0.004579999949783087,0.003389999968931079,16.174999237060547,21.049999237060547)" gradientUnits="userSpaceOnUse" id="j">
   <stop stop-opacity="0.031" stop-color="#c42929" offset="0"/>
   <stop stop-opacity="0" stop-color="#ffefea" offset="1"/>
  </radialGradient>
  <radialGradient fy="0" fx="0" r="819.2" cy="0" cx="0" spreadMethod="pad" gradientTransform="matrix(0.004999999888241291,-0.0014600000577047467,0.0009599999757483602,0.003269999986514449,12.175000190734863,27.450000762939453)" gradientUnits="userSpaceOnUse" id="k">
   <stop stop-opacity="0.082" stop-color="#c42929" offset="0"/>
   <stop stop-opacity="0" stop-color="#ffefea" offset="1"/>
  </radialGradient>
  <radialGradient fy="0" fx="48" r="819.2" cy="0" cx="0" spreadMethod="pad" gradientTransform="matrix(0.003659999929368496,0.0035200000274926424,-0.004490000195801258,0.004619999788701534,18.125,19.100000381469727)" gradientUnits="userSpaceOnUse" id="l">
   <stop stop-opacity="0.522" stop-color="#ffbdbd" offset="0.02"/>
   <stop stop-opacity="0.314" stop-color="#ffc9c4" offset="0.416"/>
   <stop stop-opacity="0" stop-color="#ffeddb" offset="1"/>
  </radialGradient>
  <radialGradient fy="0" fx="0" r="819.2" cy="0" cx="0" spreadMethod="pad" gradientTransform="matrix(-0.004350000061094761,0.00203999993391335,0.002689999993890524,0.0047599999234080315,5.574997425079346,19.900001525878906)" gradientUnits="userSpaceOnUse" id="m">
   <stop stop-opacity="0.522" stop-color="#ffbdbd" offset="0.02"/>
   <stop stop-opacity="0.314" stop-color="#ffc9c4" offset="0.416"/>
   <stop stop-opacity="0" stop-color="#ffeddb" offset="1"/>
  </radialGradient>
  <radialGradient fy="0" fx="0" r="819.2" cy="0" cx="0" spreadMethod="pad" gradientTransform="matrix(0.01066999975591898,0,0,0.010329999960958958,17.924999237060547,3.25)" gradientUnits="userSpaceOnUse" id="n">
   <stop stop-opacity="0.161" stop-color="#fff" offset="0"/>
   <stop stop-opacity="0" stop-color="#fff" offset="1"/>
  </radialGradient>
  <radialGradient fy="0" fx="0" r="819.2" cy="0" cx="0" spreadMethod="pad" gradientTransform="matrix(0.008829999715089798,0,0,0.008559999987483025,17.525001525878906,6.750000476837158)" gradientUnits="userSpaceOnUse" id="o">
   <stop stop-opacity="0.643" stop-color="#fff" offset="0"/>
   <stop stop-opacity="0" stop-color="#fff" offset="1"/>
  </radialGradient>
  <radialGradient fy="0" fx="0" r="819.2" cy="0" cx="0" spreadMethod="pad" gradientTransform="matrix(0.009159999899566174,0,0,0.008870000019669533,5.124997615814209,7.15000057220459)" gradientUnits="userSpaceOnUse" id="p">
   <stop stop-opacity="0.502" stop-color="#fff" offset="0"/>
   <stop stop-opacity="0" stop-color="#fff" offset="1"/>
  </radialGradient>
  <radialGradient fy="0" fx="0" r="819.2" cy="0" cx="0" spreadMethod="pad" gradientTransform="matrix(0.010239999741315842,0,0,0.009920000098645687,11.325000762939453,3.3000001907348633)" gradientUnits="userSpaceOnUse" id="q">
   <stop stop-opacity="0.502" stop-color="#fff" offset="0"/>
   <stop stop-opacity="0" stop-color="#fff" offset="1"/>
  </radialGradient>
 </defs>
 <g>
  <title>background</title>
  <rect fill="none" id="canvas_background" height="402" width="582" y="-1" x="-1"/>
 </g>
 <g>
  <title>Layer 1</title>
  <g id="svg_1">
   <path id="svg_2" fill="#f7d2bb" d="m22.375,15.400001q-0.25,1.05 -0.9,1.599999l-1.449999,1.25l-0.150002,0.1l1.150002,-0.299999l0.149998,0.199999l0,0.200001l-0.149998,0.25l-0.600002,0.799999l-0.5,0.25l-0.399998,0.1l-0.300001,-0.050001l-0.15,-0.149998l0,-0.800001l0.4,-0.35l-0.050001,-0.049999l1.200001,-1.15l0.650002,-0.400002l0.199999,-0.349998l0,-0.050001l0.199999,-0.4l0.200001,-0.85l-0.049999,-1.049999l-0.6,-0.700001l-1.25,-0.099999l0.6,-0.45l0.75,-0.200001l0.450001,0.05l0.199999,0.05l0.199999,0.35l0.300001,0.7l-0.1,1.5m-0.599998,-2.3l-0.150002,-0.1l0,0.200001l0.200001,0.25l0.450001,0.45l-0.050001,-0.400001l-0.449999,-0.4m0.299999,2.3l-0.35,0.8l0.5,-0.75l-0.050001,-0.200001l-0.099998,0.150001m-1.900002,3.349999q-0.649998,-0.099998 -0.799999,0.700001l0.150002,0.049999l0.149998,0.049999l0.5,-0.149998l0.200001,-0.350002l0.450001,-0.549999l-0.650002,0.25"/>
   <path id="svg_3" fill="#f9c29f" d="m22.475,13.900001l0.050001,0.2q0.199999,0.65 0,1.3l-0.350002,1.349999l-0.549999,1.15l-0.450001,0.550001l0,-0.200001l-0.149998,-0.199999l-1.150002,0.299999l0.150002,-0.1l1.449999,-1.25q0.65,-0.549999 0.9,-1.599999l0.1,-1.5"/>
   <path id="svg_4" fill="#f9e1d2" d="m22.225,13.5l0.050001,0.400001l-0.450001,-0.45l-0.200001,-0.25l0,-0.200001l0.150002,0.1l0.449999,0.4m-0.050001,1.75l0.050001,0.200001l-0.5,0.75l0.35,-0.8l0.099998,-0.150001m-1.349998,3.25l-0.450001,0.549999l-0.200001,0.350002l-0.5,0.149998l-0.149998,-0.049999l-0.150002,-0.049999q0.150002,-0.799999 0.799999,-0.700001l0.650002,-0.25"/>
   <path id="svg_5" fill="url(#a)" d="m19.075001,18.85l0.049999,-0.700001l0.049999,-1.299999l0.300001,-2.15l0.050001,-0.200001l0.349998,-0.849999l0.1,-0.25l1.25,0.099999l0.6,0.700001l0.049999,1.049999l-0.200001,0.85l-0.199999,0.4l0,0.050001l-0.199999,0.349998l-0.650002,0.400002l-1.200001,1.15l0.050001,0.049999l-0.4,0.35"/>
   <path id="svg_6" stroke="#fd9e66" stroke-miterlimit="3" stroke-linejoin="round" stroke-linecap="round" stroke-width="0.05" fill="none" d="m19.975,13.400001l0.6,-0.45l0.75,-0.200001l0.450001,0.05l0.199999,0.05l0.199999,0.35l0.300001,0.7l0.050001,0.2q0.199999,0.65 0,1.3l-0.350002,1.349999l-0.549999,1.15l-0.450001,0.550001l-0.149998,0.25l-0.600002,0.799999l-0.5,0.25l-0.399998,0.1l-0.300001,-0.050001l-0.15,-0.149998l0,-0.800001l0.049999,-0.700001l0.049999,-1.299999l0.300001,-2.15l0.050001,-0.200001l0.349998,-0.849999l0.1,-0.25z"/>
   <path id="svg_7" fill="#f7d2bb" d="m1.224999,13.200001l0.1,-0.1l0.049999,0.05l0,0.15l-0.2,0.25l-0.5,0.5l0.1,-0.45l0.45,-0.4m-0.65,2.349999q0.25,1.05 0.9,1.55l1.4,1.200001l0.150001,0.15q-0.7,-0.35 -1.1,-0.300001l-0.15,0.200001l0,0.15l0.2,0.299999l0.55,0.850002l0.45,0.25l0.45,0.049999l0.3,0l0.15,-0.150002l0,-0.849998l-0.45,-0.35l0.05,-0.050001l-1.15,-1.199999l-0.650001,-0.35l-0.2,-0.299999l0,-0.050001l-0.2,-0.4l-0.150001,-0.9l0.05,-1l0.6,-0.8l1.2,-0.05l-0.55,-0.45l-0.75,-0.2l-0.45,0.05l-0.25,0.05l-0.2,0.349999l-0.3,0.75l0.1,1.5m0.299999,0l0.35,0.8l-0.5,-0.8l0.1,-0.2l0.049999,0.2m1.85,3.3q0.65,-0.1 0.850001,0.75l-0.2,0.050001l-0.150001,0.049999l-0.5,-0.200001l-0.2,-0.349998l-0.449999,-0.600002l0.649999,0.300001"/>
   <path id="svg_8" fill="#f9c29f" d="m0.474999,14.05l0,0.2q-0.2,0.650001 -0.05,1.25l0.35,1.4l0.599999,1.1l0.400001,0.5l0,-0.15l0.15,-0.200001q0.400001,-0.049999 1.1,0.300001l-0.150001,-0.15l-1.4,-1.200001q-0.65,-0.5 -0.9,-1.55l-0.1,-1.5"/>
   <path id="svg_9" fill="#f9e1d2" d="m0.774999,13.6l-0.1,0.45l0.5,-0.5l0.2,-0.25l0,-0.15l-0.049999,-0.05l-0.1,0.1l-0.45,0.4m0.05,1.75l-0.1,0.2l0.5,0.8l-0.35,-0.8l-0.049999,-0.2m1.25,3.199999l0.45,0.600002l0.2,0.349998l0.5,0.200001l0.15,-0.049999l0.2,-0.050001q-0.2,-0.85 -0.85,-0.75l-0.65,-0.300001"/>
   <path id="svg_10" fill="url(#b)" d="m3.874999,18.950001l-0.05,-0.700001l-0.1,-1.25l-0.3,-2.2l0,-0.2l-0.349999,-0.85l-0.1,-0.25l-1.2,0.05l-0.6,0.8l-0.05,1l0.150001,0.9l0.2,0.4l0,0.050001l0.2,0.299999l0.650001,0.35l1.15,1.199999l-0.05,0.050001l0.45,0.35"/>
   <path id="svg_11" stroke="#fd9e66" stroke-miterlimit="3" stroke-linejoin="round" stroke-linecap="round" stroke-width="0.05" fill="none" d="m2.974999,13.5l-0.55,-0.45l-0.75,-0.2l-0.45,0.05l-0.25,0.05l-0.2,0.349999l-0.3,0.75l0,0.2q-0.2,0.650001 -0.05,1.25l0.35,1.4l0.599999,1.1l0.400001,0.5l0.2,0.299999l0.55,0.850002l0.45,0.25l0.45,0.049999l0.3,0l0.15,-0.150002l0,-0.849998l-0.05,-0.700001l-0.1,-1.25l-0.3,-2.2l0,-0.2l-0.349999,-0.85l-0.1,-0.25z"/>
   <path id="svg_12" fill="#ffecd9" d="m9.325001,27.35q0.45,-0.699999 -0.05,-1.35l-0.7,-1.349998l-0.250001,-1q-0.350002,-1.75 0.200001,-2.950001l0.849999,-1.650002q0.200001,-0.5 -0.549999,0l-2.100003,1.150002l-0.85,0.299999l-0.9,-1.15l-0.4,-1.1l-0.299999,-1.65l-0.499999,-8.25l-0.1,0.1l-0.25,-4.05l1.099999,-1.35q2.95,-3.099999 7.100002,-3.05q4.150001,-0.049999 7.1,3.05l1.25,1.55l-0.300001,3.25l-0.049999,0l-0.599998,-0.45l0.349998,2.599999l0.049999,0.25l0,0.450001l-0.5,3.7l-0.75,3.499999l-0.449999,1.300001l-1.050001,0.9l-0.049999,0l-0.5,-0.050001l-0.549999,-0.199999l-0.900001,-0.35q-0.25,0 -0.4,0.200001l-0.35,1.099998l0.05,0.200001l0.1,0.75q0,1.049999 -1,1.900002q-0.450001,0.449999 -0.55,0.75q-0.150001,0.25 0.15,0.799999l0.05,0.099998q0.25,0.700001 -1.35,1.200001q-1.549999,0.5 -1.849999,0.900002l-0.2,-0.050001"/>
   <path id="svg_13" fill="url(#c)" d="m3.674999,8.450001l0.1,-0.1l0.499999,8.25l0.299999,1.65l0.4,1.1l0.9,1.15l0.85,-0.299999l2.100003,-1.150002q0.75,-0.5 0.549999,0l-0.849999,1.650002q-0.550003,1.200001 -0.200001,2.950001l0.250001,1l0.7,1.349998q0.5,0.650002 0.05,1.35l-1.050001,-0.699999l-0.700002,-1.450001l0.15,-1.049999l0,-0.050001q0.2,-0.4 0.1,-1.75q-0.05,-1.5 -0.35,-1.949999l-1.05,0.449999l-0.15,0.15l-0.25,0.35l-0.1,0.35l0,1.549999q0.15,0.950001 -1.5,-0.950001l-0.749999,-0.949999l-0.2,-0.800001l-0.15,-1.449999l-1.700001,-7.4l0,-1.85l0.200001,-1.9q0.299999,-1.5 1.099999,-2.7l0.5,-0.849999l0.25,4.05"/>
   <path id="svg_14" fill="url(#d)" d="m9.525001,27.400002l0.4,0.099998q2.7,-0.049999 3.5,-0.9l0.8,-1.25l0.45,-1.699999q0.3,-2.100002 2.2,-2.300001q1.799999,-0.199999 2.6,-1l0.199999,-0.199999l-0.049999,0.399998l-0.799999,2.650002q-0.650002,1.450001 -2.900001,3.4q-2.3,1.949999 -4.099999,2.050001l-0.35,0.049999l-0.25,-0.049999q-1.75,-0.100002 -4.050003,-2.050001q-2.25,-1.949999 -2.85,-3.4l-0.649999,-1.85l0.749999,0.949999q1.65,1.900002 1.5,0.950001l0,-1.549999l0.1,-0.35l0.25,-0.35l0.15,-0.15l1.05,-0.449999q0.3,0.449999 0.35,1.949999q0.1,1.35 -0.1,1.75l0,0.050001l-0.15,1.049999l0.700002,1.450001l1.050001,0.699999l0.2,0.050001"/>
   <path id="svg_15" fill="url(#e)" d="m19.975,4.6q1.699999,2.55 1.75,5.8l-1.85,8.2l-0.200001,1.550001l-0.199999,0.199999q-0.800001,0.800001 -2.6,1q-1.9,0.199999 -2.2,2.300001l-0.45,1.699999l-0.8,1.25q-0.8,0.85 -3.5,0.9l-0.4,-0.099998q0.3,-0.400002 1.849999,-0.900002q1.6,-0.5 1.35,-1.200001l-0.05,-0.099998q-0.3,-0.549999 -0.15,-0.799999q0.099999,-0.300001 0.55,-0.75q1,-0.850002 1,-1.900002l-0.1,-0.75l-0.05,-0.200001l0.35,-1.099998q0.15,-0.200001 0.4,-0.200001l0.900001,0.35l0.549999,0.199999l0.5,0.050001l0.049999,0l1.050001,-0.9l0.449999,-1.300001l0.75,-3.499999l0.5,-3.7l0,-0.450001l-0.049999,-0.25l-0.349998,-2.599999l0.599998,0.45l0.049999,0.05l0,-0.05l0.300001,-3.25"/>
   <path id="svg_16" fill="url(#f)" d="m19.674999,7.85l0,0.05l-0.049999,-0.05l0.049999,0m-16.35,11.25l0,0.1l0,-0.1"/>
   <path id="svg_17" stroke="#fd9e66" stroke-miterlimit="3" stroke-linejoin="round" stroke-linecap="round" stroke-width="0.05" fill="none" d="m3.424999,4.400001l-0.5,0.849999q-0.8,1.2 -1.099999,2.7l-0.200001,1.9l0,1.85l1.700001,7.4l0.15,1.449999l0.2,0.800001m-0.25,-16.950001l1.099999,-1.35q2.95,-3.099998 7.100002,-3.049999q4.150001,-0.049999 7.1,3.05l1.25,1.55q1.699999,2.55 1.75,5.8l-1.85,8.2l-0.200001,1.550001l-0.049999,0.399998l-0.799999,2.650002q-0.650002,1.450001 -2.900001,3.4q-2.3,1.949999 -4.099999,2.050001l-0.35,0.049999l-0.25,-0.049999q-1.75,-0.100002 -4.050003,-2.050001q-2.25,-1.949999 -2.85,-3.4l-0.649999,-1.85m-0.349999,-2.25l0,0.1"/>
   <path id="svg_18" fill-opacity="0.251" fill="#fdd8c3" d="m6.024998,22.5q-0.2,-0.200001 -0.15,0.799999l0.05,0.850002l-0.55,-1.400002l-0.15,-1l0.8,0.75"/>
   <path id="svg_19" fill="#ffe2cf" d="m17.825001,22.6l0.049999,-0.6l0.35,-0.5l0.15,-0.049999l0.400002,0.099998l-0.900002,1.950001l-0.049999,-0.65l0,-0.25"/>
   <path id="svg_20" fill="url(#g)" d="m5.524998,24.200001l0.75,1.450001l-1.5,-1.550001l-0.35,-1.199999l1.1,1.25l0,0.049999"/>
   <path id="svg_21" fill="url(#h)" d="m17.825001,24.799999l-1.75,1.600002l-1.8,1.25l0.599999,-1.350002q0.400001,-1.699999 2.549999,-2.649998l0.25,0.5l0.050001,0.049999l0.1,0.599998"/>
   <path id="svg_22" fill="url(#i)" d="m5.524998,24.150002l-0.45,-1.600002l-0.4,-1.849998l0.85,0.25q1.35,-0.200001 2.650001,-1.25q1.250002,-1.150002 1.150002,-0.799999l-1.550003,2.599998l-0.15,1.049999l0.3,0.450001l0.250001,0.6q0.100001,0.4 -0.05,0.65l-0.300001,1.35l-0.2,1.199999l-0.55,-0.399998l-0.8,-0.75l-0.75,-1.5m-0.3,-2.400002l0.15,1l0.55,1.400002l-0.05,-0.850002q-0.05,-1 0.15,-0.799999l-0.8,-0.75"/>
   <path id="svg_23" fill="url(#j)" d="m18.375,21.450001l-0.15,0.049999l-0.35,0.5l-0.049999,0.6l-1.200001,0.4l-0.75,0.400002l-0.4,-0.25l-0.2,-0.800001l-1.45,-1.9l-0.1,-0.450001l-0.3,-0.700001q1.35,-0.25 5.499999,1.75l-0.149998,0.5l-0.400002,-0.099998"/>
   <path id="svg_24" fill="url(#k)" d="m16.375,24.1l-2.349999,3.15q-1,1.25 -2.2,1.25q-1.150001,0 -1.75,-0.65l-1.05,-1.550001l1.45,-0.049999l2.45,-0.65l3.45,-1.5"/>
   <path id="svg_25" fill="url(#l)" d="m20.225,16.35l-0.6,4.199999l-0.5,1.900002l-1.25,0.5q-1.6,0.4 -2.9,-0.400002q-1.3,-0.849998 -1.45,-2.449999q-0.150001,-1.65 0.95,-3.1q1.05,-1.5 2.75,-2q1.699999,-0.45 2.949999,0.450001l0.200001,0.15l-0.15,0.75"/>
   <path id="svg_26" fill="url(#m)" d="m2.874999,15.5l0.450001,-0.25l3.099998,-0.049999q1.65,0.7 2.550002,2.299999q0.9,1.549999 0.5,3.150002q-0.400001,1.549999 -1.850003,2.25l-3.099998,0.049999l-0.25,-0.1l-0.699999,-2.25l-0.55,-4.15l-0.150001,-0.950001"/>
   <path id="svg_27" fill="url(#n)" d="m18.674999,2.8q1.900002,2.2 1.900002,4.3q0,3.4 -5.8,3.4l-1.650001,-0.25q-0.549999,-0.4 -1.099999,-1.95q-0.55,-1.7 -0.45,-2.65l-0.05,-2.1q0,-2 0.8,-3.25l0.049999,0.05q5.400002,1.45 6.299999,2.45"/>
   <path id="svg_28" fill="url(#o)" d="m21.275002,9.1l-0.450001,3.6l-0.049999,0l0.199999,-1.900001q0,-3 -1.6,-5.75q-2.099998,-3.5 -5.65,-4.3l0.4,0q3.299999,0.5 5.35,3.400001q1.800001,2.4 1.800001,4.95"/>
   <path id="svg_29" fill="url(#p)" d="m3.924999,5.200001q-1.65,2.75 -1.65,5.299999q0,1.650001 0.5,2.85l0,0.2l-0.05,0q-0.8,-2.55 -0.8,-4.7l0.150001,-1.3q0,-1 1.999999,-3.7q1.449999,-2.2 4.250001,-3.15l0.05,0q-2.750002,1.599999 -4.450001,4.5"/>
   <path id="svg_30" fill="url(#q)" d="m17.725,2.3l1.85,2.1q-0.450001,2.1 -2.400002,3.65q-2.449999,1.95 -5.849998,1.95q-3.450003,0 -5.950003,-1.95q-2.149999,-1.75 -2.349998,-4.2l1,-0.75l2.399998,-1.55q1.55,-0.9 3.050003,-1.3l2.15,-0.25l1.8,0.150001l1.25,0.4l1.2,0.55q0.799999,0.3 1.85,1.2"/>
  </g>
 </g>
</svg>