<svg width="22" height="28" xmlns="http://www.w3.org/2000/svg"><defs><radialGradient fy="0" fx="0" r="819.2" cy="0" cx="0" spreadMethod="pad" gradientTransform="matrix(.00433 0 0 .00433 19.1 15)" gradientUnits="userSpaceOnUse" id="a"><stop stop-color="#d7914a" offset="0"/><stop stop-color="#f5c9ab" offset=".62"/></radialGradient><radialGradient fy="0" fx="0" r="819.2" cy="0" cx="0" spreadMethod="pad" gradientTransform="matrix(-.00433 0 0 .00433 2.85 14.95)" gradientUnits="userSpaceOnUse" id="b"><stop stop-color="#d7914a" offset="0"/><stop stop-color="#f5c9ab" offset=".62"/></radialGradient><linearGradient y2=".538" y1=".568" x2=".506" x1="-.821" id="c"><stop stop-color="#faa684" offset="0"/><stop stop-color="#ffecd9" offset="1"/></linearGradient><linearGradient y2=".613" y1=".632" x2="1.213" x1="-.111" id="d"><stop stop-color="#faa684" offset="0"/><stop stop-color="#ffecd9" offset="1"/></linearGradient><linearGradient y2=".529" y1=".556" x2=".448" x1="1.696" id="e"><stop stop-color="#faa684" offset="0"/><stop stop-color="#ffecd9" offset="1"/></linearGradient><linearGradient y2=".564" y1=".616" x2="-.969" x1="1.636" id="f"><stop stop-color="#faa684" offset="0"/><stop stop-color="#ffecd9" offset="1"/></linearGradient><linearGradient y2="-.441" y1="2.231" x2=".486" x1=".486" id="g"><stop stop-color="#faa684" offset="0"/><stop stop-color="#ffecd9" offset="1"/></linearGradient><linearGradient y2=".012" y1="2.401" x2=".496" x1=".496" id="h"><stop stop-color="#faa684" offset="0"/><stop stop-color="#ffecd9" offset="1"/></linearGradient><radialGradient fy="0" fx="41" r="819.2" cy="0" cx="0" spreadMethod="pad" gradientTransform="matrix(.01025 0 0 .00995 10.45 -2.95)" gradientUnits="userSpaceOnUse" id="i"><stop stop-color="#fff" offset="0"/><stop stop-color="#ffecd9" offset=".988"/></radialGradient><radialGradient fy="0" fx="0" r="819.2" cy="0" cx="0" spreadMethod="pad" gradientTransform="matrix(.00998 0 0 .00967 16.7 3.1)" gradientUnits="userSpaceOnUse" id="j"><stop stop-opacity=".161" stop-color="#fff" offset="0"/><stop stop-opacity="0" stop-color="#fff" offset="1"/></radialGradient><radialGradient fy="0" fx="0" r="819.2" cy="0" cx="0" spreadMethod="pad" gradientTransform="matrix(.00827 0 0 .00801 16.35 6.4)" gradientUnits="userSpaceOnUse" id="k"><stop stop-opacity=".643" stop-color="#fff" offset="0"/><stop stop-opacity="0" stop-color="#fff" offset="1"/></radialGradient><radialGradient fy="0" fx="0" r="819.2" cy="0" cx="0" spreadMethod="pad" gradientTransform="matrix(.00858 0 0 .0083 4.8 6.75)" gradientUnits="userSpaceOnUse" id="l"><stop stop-opacity=".502" stop-color="#fff" offset="0"/><stop stop-opacity="0" stop-color="#fff" offset="1"/></radialGradient><radialGradient fy="0" fx="0" r="819.2" cy="0" cx="0" spreadMethod="pad" gradientTransform="matrix(.00958 0 0 .00928 10.55 3.15)" gradientUnits="userSpaceOnUse" id="m"><stop stop-opacity=".502" stop-color="#fff" offset="0"/><stop stop-opacity="0" stop-color="#fff" offset="1"/></radialGradient><radialGradient fy="0" fx="0" r="819.2" cy="0" cx="0" spreadMethod="pad" gradientTransform="matrix(.00375 .00267 -.00313 .00475 17.4 18.15)" gradientUnits="userSpaceOnUse" id="n"><stop stop-opacity=".624" stop-color="#ffb2b2" offset=".067"/><stop stop-opacity=".365" stop-color="#ffd0c9" offset=".631"/><stop stop-opacity="0" stop-color="#ffeddb" offset="1"/></radialGradient><radialGradient fy="0" fx="0" r="819.2" cy="0" cx="0" spreadMethod="pad" gradientTransform="matrix(-.00414 .00218 .00253 .0051 5.05 18.2)" gradientUnits="userSpaceOnUse" id="o"><stop stop-opacity=".624" stop-color="#ffb2b2" offset=".067"/><stop stop-opacity=".365" stop-color="#ffd0c9" offset=".631"/><stop stop-opacity="0" stop-color="#ffeddb" offset="1"/></radialGradient></defs><path fill="none" d="M-1-1h582v402H-1z"/><g><path fill="#f7d2bb" d="M19.75 18.05l-.2.25-.7.75-.5.2h-.45l-.3-.05-.1-.2q-.1-.2.1-.8l.5-.3-.05-.05 1.3-1 .7-.3.25-.3v-.05l.25-.35.3-.85q.3-1.7-.55-1.9l-.55-.05.5-.45.35-.05h.4q.5.05.65.9v.35l-.1.55q-.3 1.75-1.3 2.35l-1.6 1-.15.1 1.15-.15.15.25-.05.15m1.1-5.25l.65.9-.05.25.05-.1q.1-.7-.55-1.1l-.1.05m.3 2.1l-.55 1.05.6-.75.05-.25-.1-.05m-2.4 3.35q-.65-.2-.95.6l.2.1.15.05.5-.1.25-.35.5-.5-.65.2"/><path fill="#f9c29f" d="M19.8 17.9l-.15-.25-1.15.15.15-.1 1.6-1q1-.6 1.3-2.35l.1-.55v.9l-.7 1.85-.7 1.05-.5.45.05-.15"/><path fill="#f9e1d2" d="M20.95 12.75q.65.4.55 1.1l-.05.1.05-.25-.65-.9.1-.05m.3 2.2l-.05.25-.6.75.55-1.05.1.05m-1.85 3.1l-.5.5-.25.35-.5.1-.15-.05-.2-.1q.3-.8.95-.6l.65-.2"/><path fill="url(#a)" d="M17.6 18.2l.25-.8.55-1.35.6-1.55.75-1.45.55.05q.85.2.55 1.9l-.3.85-.25.35v.05l-.25.3-.7.3-1.3 1 .05.05-.5.3"/><path stroke="#fd9e66" stroke-miterlimit="3" stroke-linejoin="round" stroke-linecap="round" stroke-width=".05" fill="none" d="M19.75 13.05l.5-.45.35-.05h.4q.5.05.65.9v1.25l-.7 1.85-.7 1.05-.5.45-.2.25-.7.75-.5.2h-.45l-.3-.05-.1-.2q-.1-.2.1-.8l.25-.8.55-1.35.6-1.55.75-1.45z"/><path fill="#f7d2bb" d="M2.2 18l.2.25.7.75.5.2h.45l.3-.05.1-.2-.1-.8-.5-.3.05-.05-1.3-1-.7-.3-.25-.3v-.05l-.25-.35-.3-.85q-.3-1.7.55-1.9L2.2 13l-.5-.45-.35-.05h-.4q-.5.05-.65.9v.35l.1.55q.3 1.75 1.3 2.35l1.6 1 .15.1-1.15-.15q-.2.05-.15.25l.05.15m-1.1-5.25l-.65.9.05.25-.05-.1q-.1-.7.55-1.1l.1.05m-.3 2.1l.55 1.05q-.25-.05-.6-.75L.7 14.9l.1-.05m2.4 3.35q.65-.2.95.6l-.2.1-.15.05-.5-.1-.25-.35-.5-.5.65.2"/><path fill="#f9c29f" d="M2.15 17.85q-.05-.2.15-.25l1.15.15-.15-.1-1.6-1q-1-.6-1.3-2.35l-.1-.55v.9L1 16.5q.3.7.7 1.05l.5.45-.05-.15"/><path fill="#f9e1d2" d="M1 12.7q-.65.4-.55 1.1l.05.1-.05-.25.65-.9-.1-.05m-.3 2.2l.05.25q.35.7.6.75L.8 14.85l-.1.05M2.55 18l.5.5.25.35.5.1.15-.05.2-.1q-.3-.8-.95-.6l-.65-.2"/><path fill="url(#b)" d="M4.35 18.15l-.25-.8L3.55 16l-.6-1.55L2.2 13l-.55.05q-.85.2-.55 1.9l.3.85.25.35v.05l.25.3.7.3 1.3 1-.05.05.5.3"/><path stroke="#fd9e66" stroke-miterlimit="3" stroke-linejoin="round" stroke-linecap="round" stroke-width=".05" fill="none" d="M2.2 13l-.5-.45-.35-.05h-.4q-.5.05-.65.9v1.25L1 16.5q.3.7.7 1.05l.5.45.2.25.7.75.5.2h.45l.3-.05.1-.2-.1-.8-.25-.8L3.55 16l-.6-1.55L2.2 13z"/><path fill="#ffecd9" d="M11.3 26.4q-1.15.15-2.9-.8l-.15-.3-.1-.15-.8-.9q-1.3-1.4-2.2-2.8-.6-1.05-.85-2.15-.3-1.1-.45-2.85-.15-1.75.75-4 .9-2.2.95-3.85l.1-2.1-.3.1V1.9Q7.75.05 10.9.1q3.6-.05 6.25 2.45v4.1l-.6-.25.05 2.2q.05 1.65 1 3.85.9 2.25.75 4l-.45 2.85-.9 2.15-2.2 2.8-.85 1.05-.15.2q-1.3.8-2.5.9"/><path fill="url(#c)" d="M7.95 25.35l-.05-.05q-1.95-2.2-2.75-2.7L3.3 19.2v-.1q-.75-4.25-.9-8.15v-.15l-.05-.25.05-.85.05-.1-.05-4 .3-.6q.55-1.15 1.5-2.05L5.35 1.9v4.7l.3-.1-.1 2.1q-.05 1.65-.95 3.85-.9 2.25-.75 4Q4 18.2 4.3 19.3q.25 1.1.85 2.15.9 1.4 2.2 2.8l.8.9.1.15.15.3-.45-.25"/><path fill="url(#d)" d="M3.95 22.55l-.2-.3Q2.65 20.6 2.4 18.4l-.3-4.05-.6-3.3V9.3l.2-1.8.7-1.9.05 4-.05.1-.05.85.05.25v.15q.15 3.9.9 8.15v.1l.65 3.35"/><path fill="url(#e)" d="M17.55 2.95q1.95 2.05 2.5 4.7l-.4 5.55v.05l-.75 5.85-.05.1-1.7 3.25q-.7.35-2.95 2.85l-.05.05-.35.15.15-.2.85-1.05 2.2-2.8.9-2.15.45-2.85q.15-1.75-.75-4-.95-2.2-1-3.85l-.05-2.2.6.25v-4.1l.4.4"/><path fill="url(#f)" d="M19.9 14l-.3 4.4q-.25 2.05-1.25 3.65l.5-2.85.05-.1.75-5.85v-.05l.4-5.55.25 2.2-.4 3.9V14"/><path fill="url(#g)" d="M3.95 22.55L3.3 19.2l1.85 3.4.35.6.85 1.2.8.9.75.65.9.6 1.85.5 2.7-.5.95-.6.75-.65.6-.65 1.05-1.45.45-.75 1.7-3.25-.5 2.85-.1.2-1.95 2.5-.6.55q-1.4 1.2-2.6 1.55l-2.1.45-2.1-.45q-1.2-.35-2.55-1.55l-.65-.55-1.75-2.2"/><path fill="url(#h)" d="M5.15 22.6q.8.5 2.75 2.7l.05.05.45.25q1.75.95 2.9.8 1.2-.1 2.5-.9l.35-.15.05-.05q2.25-2.5 2.95-2.85l-.45.75-1.05 1.45-.6.65-.75.65-.95.6-2.7.5-1.85-.5-.9-.6-.75-.65-.8-.9-.85-1.2-.35-.6"/><path fill="url(#i)" d="M19.9 13.75v.05-.05"/><path stroke="#fd9e66" stroke-miterlimit="3" stroke-linejoin="round" stroke-linecap="round" stroke-width=".05" fill="none" d="M18.35 22.05q1-1.6 1.25-3.65l.3-4.4v-.25l.4-3.9-.25-2.2q-.55-2.65-2.5-4.7l-.4-.4Q14.5.05 10.9.1 7.75.05 5.35 1.9L4.2 2.95q-.95.9-1.5 2.05l-.3.6-.7 1.9-.2 1.8v1.75l.6 3.3.3 4.05q.25 2.2 1.35 3.85l.2.3m15.95-8.8v.05m-1.55 8.25l-.1.2-1.95 2.5-.6.55q-1.4 1.2-2.6 1.55l-2.1.45-2.1-.45q-1.2-.35-2.55-1.55l-.65-.55-1.75-2.2"/><path fill="url(#j)" d="M11.45.3l.1.05q5.05 1.35 5.85 2.3 1.8 2.05 1.8 4.05 0 3.2-5.45 3.2l-1.5-.25q-.55-.4-1.05-1.85-.55-1.6-.45-2.5l-.05-1.95q0-1.85.75-3.05"/><path fill="url(#k)" d="M19.4 12l.25-1.8q0-2.8-1.55-5.4-1.95-3.25-5.3-4h.4q3.1.5 5 3.15 1.7 2.3 1.7 4.65l-.45 3.4h-.05"/><path fill="url(#l)" d="M3.65 4.95q-1.55 2.6-1.55 5 0 1.55.45 2.65v.2H2.5q-.7-2.45-.7-4.45l.1-1.2q0-.9 1.9-3.45Q5.15 1.65 7.75.75h.05q-2.55 1.5-4.15 4.2"/><path fill="url(#m)" d="M16.6 2.15q.95.8 1.7 2-.45 2-2.25 3.4-2.25 1.85-5.5 1.85-3.2 0-5.55-1.85-2-1.6-2.2-3.9l.95-.7 2.2-1.45Q7.4.65 8.85.3l2-.25 1.7.1 1.15.4 1.15.5q.75.3 1.75 1.1"/><path fill="url(#n)" d="M19.95 14.4q1.2.85 1.4 2.55.15 1.8-.9 3.4-1.05 1.5-2.7 2.05-1.55.45-2.85-.4-1.25-.95-1.35-2.65-.15-1.75.85-3.35 1.05-1.55 2.7-2.1 1.65-.5 2.85.5"/><path fill="url(#o)" d="M8.3 16.45q.85 1.7.5 3.45-.4 1.7-1.8 2.4l-2.9.05q-1.55-.7-2.4-2.35-.85-1.75-.5-3.45.4-1.75 1.75-2.45l2.95-.05q1.55.7 2.4 2.4"/></g></svg>