<svg width="22" height="28" xmlns="http://www.w3.org/2000/svg">
 <defs>
  <radialGradient fy="0" fx="0" r="819.2" cy="0" cx="0" spreadMethod="pad" gradientTransform="matrix(0.0043299999088048935,0,0,0.0043299999088048935,19.100004196166992,15)" gradientUnits="userSpaceOnUse" id="a">
   <stop stop-color="#d7914a" offset="0"/>
   <stop stop-color="#f5c9ab" offset="0.62"/>
  </radialGradient>
  <radialGradient fy="0" fx="0" r="819.2" cy="0" cx="0" spreadMethod="pad" gradientTransform="matrix(-0.0043299999088048935,0,0,0.0043299999088048935,2.8499932289123535,14.949999809265137)" gradientUnits="userSpaceOnUse" id="b">
   <stop stop-color="#d7914a" offset="0"/>
   <stop stop-color="#f5c9ab" offset="0.62"/>
  </radialGradient>
  <linearGradient y2="0.537879" y1="0.567606" x2="0.50646" x1="-0.820509" id="c">
   <stop stop-color="#faa684" offset="0"/>
   <stop stop-color="#ffecd9" offset="1"/>
  </linearGradient>
  <linearGradient y2="0.612753" y1="0.632085" x2="1.213068" x1="-0.111027" id="d">
   <stop stop-color="#faa684" offset="0"/>
   <stop stop-color="#ffecd9" offset="1"/>
  </linearGradient>
  <linearGradient y2="0.52892" y1="0.556048" x2="0.448097" x1="1.695903" id="e">
   <stop stop-color="#faa684" offset="0"/>
   <stop stop-color="#ffecd9" offset="1"/>
  </linearGradient>
  <linearGradient y2="0.564109" y1="0.616447" x2="-0.968985" x1="1.635652" id="f">
   <stop stop-color="#faa684" offset="0"/>
   <stop stop-color="#ffecd9" offset="1"/>
  </linearGradient>
  <linearGradient y2="-0.440942" y1="2.231066" x2="0.485531" x1="0.485531" id="g">
   <stop stop-color="#faa684" offset="0"/>
   <stop stop-color="#ffecd9" offset="1"/>
  </linearGradient>
  <linearGradient y2="0.011558" y1="2.401486" x2="0.495833" x1="0.495833" id="h">
   <stop stop-color="#faa684" offset="0"/>
   <stop stop-color="#ffecd9" offset="1"/>
  </linearGradient>
  <radialGradient fy="0" fx="41" r="819.2" cy="0" cx="0" spreadMethod="pad" gradientTransform="matrix(0.010250000283122063,0,0,0.009949999861419201,10.449990272521973,-2.950000047683716)" gradientUnits="userSpaceOnUse" id="i">
   <stop stop-color="#fff" offset="0"/>
   <stop stop-color="#ffecd9" offset="0.988"/>
  </radialGradient>
  <radialGradient fy="0" fx="0" r="819.2" cy="0" cx="0" spreadMethod="pad" gradientTransform="matrix(0.009979999624192715,0,0,0.009669999592006207,16.70000457763672,3.0999999046325684)" gradientUnits="userSpaceOnUse" id="j">
   <stop stop-opacity="0.161" stop-color="#fff" offset="0"/>
   <stop stop-opacity="0" stop-color="#fff" offset="1"/>
  </radialGradient>
  <radialGradient fy="0" fx="0" r="819.2" cy="0" cx="0" spreadMethod="pad" gradientTransform="matrix(0.008270000107586384,0,0,0.008009999990463257,16.349998474121094,6.400000095367432)" gradientUnits="userSpaceOnUse" id="k">
   <stop stop-opacity="0.643" stop-color="#fff" offset="0"/>
   <stop stop-opacity="0" stop-color="#fff" offset="1"/>
  </radialGradient>
  <radialGradient fy="0" fx="0" r="819.2" cy="0" cx="0" spreadMethod="pad" gradientTransform="matrix(0.008580000139772892,0,0,0.008299999870359898,4.799997329711914,6.75)" gradientUnits="userSpaceOnUse" id="l">
   <stop stop-opacity="0.502" stop-color="#fff" offset="0"/>
   <stop stop-opacity="0" stop-color="#fff" offset="1"/>
  </radialGradient>
  <radialGradient fy="0" fx="0" r="819.2" cy="0" cx="0" spreadMethod="pad" gradientTransform="matrix(0.009580000303685665,0,0,0.009279999881982803,10.5499906539917,3.1500000953674316)" gradientUnits="userSpaceOnUse" id="m">
   <stop stop-opacity="0.502" stop-color="#fff" offset="0"/>
   <stop stop-opacity="0" stop-color="#fff" offset="1"/>
  </radialGradient>
  <radialGradient fy="0" fx="0" r="819.2" cy="0" cx="0" spreadMethod="pad" gradientTransform="matrix(0.0037499999161809683,0.0026700000744313,-0.0031300000846385956,0.004749999847263098,17.40000343322754,18.149999618530273)" gradientUnits="userSpaceOnUse" id="n">
   <stop stop-opacity="0.624" stop-color="#ffb2b2" offset="0.067"/>
   <stop stop-opacity="0.365" stop-color="#ffd0c9" offset="0.631"/>
   <stop stop-opacity="0" stop-color="#ffeddb" offset="1"/>
  </radialGradient>
  <radialGradient fy="0" fx="0" r="819.2" cy="0" cx="0" spreadMethod="pad" gradientTransform="matrix(-0.004139999859035015,0.0021800000686198473,0.002529999939724803,0.005100000184029341,5.049997329711914,18.200000762939453)" gradientUnits="userSpaceOnUse" id="o">
   <stop stop-opacity="0.624" stop-color="#ffb2b2" offset="0.067"/>
   <stop stop-opacity="0.365" stop-color="#ffd0c9" offset="0.631"/>
   <stop stop-opacity="0" stop-color="#ffeddb" offset="1"/>
  </radialGradient>
 </defs>
 <g>
  <title>background</title>
  <rect fill="none" id="canvas_background" height="402" width="582" y="-1" x="-1"/>
 </g>
 <g>
  <title>Layer 1</title>
  <path id="svg_1" fill="#f7d2bb" d="m19.750004,18.049999l-0.200001,0.25l-0.699999,0.75l-0.5,0.200001l-0.450001,0l-0.299999,-0.049999l-0.1,-0.200001q-0.1,-0.200001 0.1,-0.799999l0.5,-0.300001l-0.050001,-0.049999l1.300001,-1l0.699999,-0.300001l0.25,-0.299999l0,-0.049999l0.25,-0.35l0.300001,-0.85q0.299999,-1.7 -0.550001,-1.9l-0.549999,-0.05l0.5,-0.45l0.35,-0.05l0.4,0q0.5,0.05 0.65,0.9l0,0.35l-0.1,0.55q-0.299999,1.75 -1.299999,2.35l-1.6,1l-0.15,0.099998l1.15,-0.15l0.15,0.25l-0.049999,0.15m1.1,-5.249999l0.65,0.9l-0.049999,0.25l0.049999,-0.099999q0.1,-0.700001 -0.549999,-1.1l-0.1,0.05m0.299999,2.099999l-0.549999,1.05l0.6,-0.75l0.049999,-0.25l-0.1,-0.05m-2.4,3.35q-0.65,-0.200001 -0.950001,0.6l0.200001,0.1l0.15,0.049999l0.5,-0.1l0.25,-0.35l0.5,-0.5l-0.65,0.200001"/>
  <path id="svg_2" fill="#f9c29f" d="m19.800003,17.9l-0.15,-0.25l-1.15,0.15l0.15,-0.099998l1.6,-1q1,-0.6 1.299999,-2.35l0.1,-0.55l0,0.9l-0.699999,1.849999l-0.700001,1.050001l-0.5,0.449999l0.049999,-0.15"/>
  <path id="svg_3" fill="#f9e1d2" d="m20.950005,12.75q0.65,0.4 0.549999,1.1l-0.049999,0.099999l0.049999,-0.25l-0.65,-0.9l0.1,-0.05m0.299999,2.2l-0.049999,0.25l-0.6,0.75l0.549999,-1.05l0.1,0.05m-1.85,3.099999l-0.5,0.5l-0.25,0.35l-0.5,0.1l-0.15,-0.049999l-0.200001,-0.1q0.300001,-0.800001 0.950001,-0.6l0.65,-0.200001"/>
  <path id="svg_4" fill="url(#a)" d="m17.600004,18.200001l0.25,-0.800001l0.549999,-1.35l0.6,-1.549999l0.75,-1.45l0.549999,0.05q0.85,0.2 0.550001,1.9l-0.300001,0.85l-0.25,0.35l0,0.049999l-0.25,0.299999l-0.699999,0.300001l-1.300001,1l0.050001,0.049999l-0.5,0.300001"/>
  <path id="svg_5" stroke="#fd9e66" stroke-miterlimit="3" stroke-linejoin="round" stroke-linecap="round" stroke-width="0.05" fill="none" d="m19.750004,13.05l0.5,-0.45l0.35,-0.05l0.4,0q0.5,0.05 0.65,0.9l0,1.25l-0.699999,1.849999l-0.700001,1.050001l-0.5,0.449999l-0.200001,0.25l-0.699999,0.75l-0.5,0.200001l-0.450001,0l-0.299999,-0.049999l-0.1,-0.200001q-0.1,-0.200001 0.1,-0.799999l0.25,-0.800001l0.549999,-1.35l0.6,-1.549999l0.75,-1.45z"/>
  <path id="svg_6" fill="#f7d2bb" d="m2.199994,18l0.2,0.25l0.699999,0.75l0.5,0.200001l0.450001,0l0.300001,-0.050001l0.1,-0.199999l-0.1,-0.800001l-0.500001,-0.299999l0.05,-0.050001l-1.300001,-1l-0.699999,-0.299999l-0.25,-0.299999l0,-0.050001l-0.25,-0.349999l-0.3,-0.85q-0.3,-1.7 0.55,-1.9l0.549999,-0.05l-0.499999,-0.45l-0.35,-0.05l-0.4,0q-0.5,0.05 -0.65,0.9l0,0.35l0.1,0.55q0.3,1.749999 1.3,2.349999l1.599998,1l0.15,0.1l-1.149999,-0.15q-0.2,0.049999 -0.15,0.25l0.05,0.15m-1.099999,-5.25l-0.65,0.9l0.05,0.25l-0.05,-0.099999q-0.1,-0.7 0.55,-1.1l0.1,0.05m-0.3,2.1l0.55,1.049999q-0.25,-0.049999 -0.6,-0.75l-0.05,-0.25l0.1,-0.049999m2.399998,3.35q0.650001,-0.200001 0.950002,0.599998l-0.2,0.1l-0.150001,0.050001l-0.500001,-0.1l-0.25,-0.35l-0.5,-0.5l0.65,0.200001"/>
  <path id="svg_7" fill="#f9c29f" d="m2.149994,17.85q-0.05,-0.200001 0.15,-0.25l1.149999,0.15l-0.15,-0.1l-1.599998,-1q-1,-0.6 -1.3,-2.349999l-0.1,-0.55l0,0.9l0.7,1.85q0.3,0.700001 0.7,1.049999l0.499999,0.450001l-0.05,-0.15"/>
  <path id="svg_8" fill="#f9e1d2" d="m0.999995,12.7q-0.65,0.400001 -0.55,1.1l0.05,0.099999l-0.05,-0.25l0.65,-0.9l-0.1,-0.05m-0.3,2.2l0.05,0.25q0.35,0.700001 0.6,0.75l-0.55,-1.049999l-0.1,0.049999m1.849999,3.1l0.5,0.5l0.25,0.35l0.500001,0.1l0.150001,-0.050001l0.2,-0.1q-0.300001,-0.799999 -0.950002,-0.599998l-0.65,-0.200001"/>
  <path id="svg_9" fill="url(#b)" d="m4.349996,18.15l-0.250001,-0.799999l-0.550002,-1.35l-0.6,-1.55l-0.749999,-1.45l-0.549999,0.05q-0.85,0.2 -0.55,1.9l0.3,0.85l0.25,0.349999l0,0.050001l0.25,0.299999l0.699999,0.299999l1.300001,1l-0.05,0.050001l0.500001,0.299999"/>
  <path id="svg_10" stroke="#fd9e66" stroke-miterlimit="3" stroke-linejoin="round" stroke-linecap="round" stroke-width="0.05" fill="none" d="m2.199994,13l-0.499999,-0.45l-0.35,-0.05l-0.4,0q-0.5,0.05 -0.65,0.9l0,1.25l0.7,1.85q0.3,0.700001 0.7,1.049999l0.499999,0.450001l0.2,0.25l0.699999,0.75l0.5,0.200001l0.450001,0l0.300001,-0.050001l0.1,-0.199999l-0.1,-0.800001l-0.250001,-0.799999l-0.550002,-1.35l-0.6,-1.55l-0.749999,-1.45z"/>
  <path id="svg_11" fill="#ffecd9" d="m11.299991,26.4q-1.150002,0.15 -2.9,-0.799999l-0.149998,-0.300001l-0.1,-0.15l-0.799996,-0.9q-1.3,-1.4 -2.2,-2.799999q-0.6,-1.050001 -0.850001,-2.150002q-0.300001,-1.099998 -0.450001,-2.849998q-0.15,-1.750001 0.750002,-4.000001q0.900001,-2.2 0.950001,-3.849999l0.1,-2.1l-0.3,0.1l0,-4.7q2.399998,-1.85 5.549992,-1.8q3.6,-0.05 6.250014,2.45l0,4.1l-0.600002,-0.25l0.050001,2.2q0.050001,1.65 1.000002,3.849999q0.9,2.25 0.75,4.000001l-0.450001,2.849998l-0.9,2.150002l-2.200013,2.799999l-0.85,1.049999l-0.15,0.200001q-1.300001,0.799999 -2.5,0.9"/>
  <path id="svg_12" fill="url(#c)" d="m7.949995,25.35l-0.05,-0.050001q-1.949997,-2.199999 -2.749997,-2.699999l-1.850004,-3.4l0,-0.1q-0.75,-4.25 -0.899999,-8.150001l0,-0.15l-0.05,-0.25l0.05,-0.85l0.05,-0.099999l-0.05,-4l0.299999,-0.6q0.55,-1.15 1.500002,-2.05l1.150002,-1.05l0,4.7l0.3,-0.1l-0.1,2.1q-0.05,1.65 -0.950001,3.849999q-0.900002,2.25 -0.750002,4.000001q0.15,1.75 0.450001,2.849998q0.250001,1.1 0.850001,2.150002q0.9,1.4 2.2,2.799999l0.799996,0.9l0.1,0.15l0.149998,0.300001l-0.449996,-0.25"/>
  <path id="svg_13" fill="url(#d)" d="m3.949995,22.549999l-0.200001,-0.299999q-1.1,-1.65 -1.35,-3.85l-0.3,-4.049999l-0.599999,-3.3l0,-1.75l0.2,-1.8l0.699999,-1.9l0.05,4l-0.05,0.099999l-0.05,0.85l0.05,0.25l0,0.15q0.15,3.900001 0.899999,8.150001l0,0.1l0.650002,3.349998"/>
  <path id="svg_14" fill="url(#e)" d="m17.550003,2.95q1.950001,2.05 2.5,4.7l-0.4,5.55l0,0.05l-0.75,5.85l-0.049999,0.1l-1.700001,3.25q-0.700003,0.349998 -2.950013,2.849998l-0.050001,0.050001l-0.349998,0.15l0.15,-0.200001l0.85,-1.049999l2.200013,-2.799999l0.9,-2.150002l0.450001,-2.849998q0.15,-1.750001 -0.75,-4.000001q-0.950001,-2.2 -1.000002,-3.849999l-0.050001,-2.2l0.600002,0.25l0,-4.1l0.4,0.4"/>
  <path id="svg_15" fill="url(#f)" d="m19.900003,14l-0.299999,4.4q-0.25,2.050001 -1.25,3.65l0.5,-2.849998l0.049999,-0.1l0.75,-5.85l0,-0.05l0.4,-5.55l0.25,2.2l-0.4,3.9l0,0.25"/>
  <path id="svg_16" fill="url(#g)" d="m3.949995,22.549999l-0.650002,-3.349998l1.850004,3.4l0.35,0.6l0.85,1.199999l0.8,0.9l0.749997,0.650002l0.899996,0.599998l1.849998,0.5l2.700001,-0.5l0.950001,-0.599998l0.75,-0.650002l0.6,-0.65l1.050014,-1.449999l0.449999,-0.75l1.700001,-3.25l-0.5,2.849998l-0.1,0.200001l-1.950006,2.5l-0.600005,0.549999q-1.400002,1.200001 -2.600002,1.550001l-2.1,0.449999l-2.1,-0.449999q-1.199993,-0.35 -2.549992,-1.550001l-0.65,-0.549999l-1.750002,-2.200001"/>
  <path id="svg_17" fill="url(#h)" d="m5.149997,22.6q0.8,0.5 2.749997,2.699999l0.05,0.050001l0.449996,0.25q1.749998,0.949999 2.9,0.799999q1.199999,-0.1 2.5,-0.9l0.349998,-0.15l0.050001,-0.050001q2.25001,-2.5 2.950013,-2.849998l-0.449999,0.75l-1.050014,1.449999l-0.6,0.65l-0.75,0.650002l-0.950001,0.599998l-2.700001,0.5l-1.849998,-0.5l-0.899996,-0.599998l-0.749997,-0.650002l-0.8,-0.9l-0.85,-1.199999l-0.35,-0.6"/>
  <path id="svg_18" fill="url(#i)" d="m19.900003,13.75l0,0.05l0,-0.05"/>
  <path id="svg_19" stroke="#fd9e66" stroke-miterlimit="3" stroke-linejoin="round" stroke-linecap="round" stroke-width="0.05" fill="none" d="m18.350004,22.049999q1,-1.599998 1.25,-3.65l0.299999,-4.4l0,-0.25l0.4,-3.9l-0.25,-2.2q-0.549999,-2.65 -2.5,-4.7l-0.4,-0.4q-2.650014,-2.5 -6.250014,-2.45q-3.149994,-0.05 -5.549992,1.8l-1.150002,1.05q-0.950002,0.9 -1.500002,2.05l-0.299999,0.6l-0.699999,1.9l-0.2,1.8l0,1.75l0.599999,3.3l0.3,4.049999q0.25,2.200001 1.35,3.85l0.200001,0.299999m15.950008,-8.799999l0,0.05m-1.549999,8.249999l-0.1,0.200001l-1.950006,2.5l-0.600005,0.549999q-1.400002,1.200001 -2.600002,1.550001l-2.1,0.449999l-2.1,-0.449999q-1.199993,-0.35 -2.549992,-1.550001l-0.65,-0.549999l-1.750002,-2.200001"/>
  <path id="svg_20" fill="url(#j)" d="m11.44999,0.3l0.1,0.05q5.050012,1.35 5.850013,2.3q1.800001,2.05 1.800001,4.05q0,3.2 -5.450015,3.2l-1.5,-0.25q-0.549999,-0.4 -1.049999,-1.849999q-0.550001,-1.6 -0.450001,-2.5l-0.049999,-1.95q0,-1.85 0.75,-3.05"/>
  <path id="svg_21" fill="url(#k)" d="m19.400003,12l0.25,-1.8q0,-2.8 -1.549999,-5.4q-1.950006,-3.25 -5.300014,-4l0.4,0q3.100007,0.5 5.000014,3.15q1.699999,2.3 1.699999,4.65l-0.449999,3.4l-0.050001,0"/>
  <path id="svg_22" fill="url(#l)" d="m3.649994,4.95q-1.549999,2.6 -1.549999,5q0,1.55 0.449999,2.650001l0,0.2l-0.05,0q-0.699999,-2.45 -0.699999,-4.45l0.1,-1.2q0,-0.9 1.899999,-3.45q1.350003,-2.05 3.950001,-2.95l0.050001,0q-2.549999,1.5 -4.150002,4.2"/>
  <path id="svg_23" fill="url(#m)" d="m16.600002,2.15q0.950001,0.8 1.700001,2q-0.449999,2 -2.250008,3.4q-2.250005,1.849999 -5.500005,1.849999q-3.199994,0 -5.549994,-1.849999q-2.000004,-1.6 -2.200004,-3.9l0.950001,-0.7l2.200003,-1.45q1.45,-0.85 2.899993,-1.2l2,-0.25l1.700001,0.1l1.15,0.4l1.15,0.5q0.75,0.3 1.750012,1.1"/>
  <path id="svg_24" fill="url(#n)" d="m19.950005,14.4q1.199999,0.85 1.4,2.550001q0.15,1.799999 -0.9,3.4q-1.050001,1.5 -2.700001,2.049999q-1.550007,0.450001 -2.850015,-0.4q-1.25,-0.950001 -1.349998,-2.65q-0.150002,-1.75 0.849998,-3.35q1.050001,-1.55 2.700015,-2.1q1.65,-0.5 2.85,0.5"/>
  <path id="svg_25" fill="url(#o)" d="m8.299994,16.450001q0.849996,1.699999 0.499997,3.449999q-0.4,1.700001 -1.799994,2.4l-2.900002,0.050001q-1.550001,-0.700001 -2.4,-2.35q-0.85,-1.75 -0.5,-3.450001q0.4,-1.749999 1.749998,-2.449999l2.950004,-0.05q1.55,0.7 2.399996,2.400001"/>
 </g>
</svg>