<svg width="26" height="34" xmlns="http://www.w3.org/2000/svg"><defs><radialGradient fy="0" fx="0" r="819.2" cy="0" cx="0" spreadMethod="pad" gradientTransform="matrix(-.00328 .00073 .0023 .00777 3.775 19.863)" gradientUnits="userSpaceOnUse" id="a"><stop stop-color="#e88b64" offset="0"/><stop stop-color="#fdd7b9" offset=".847"/></radialGradient><radialGradient fy="0" fx="0" r="819.2" cy="0" cx="0" spreadMethod="pad" gradientTransform="matrix(.00432 -.00098 .00145 .00673 4.725 19.663)" gradientUnits="userSpaceOnUse" id="b"><stop stop-color="#c54b18" offset=".02"/><stop stop-color="#fcc7a5" offset="1"/></radialGradient><radialGradient fy="0" fx="0" r="819.2" cy="0" cx="0" spreadMethod="pad" gradientTransform="matrix(.00395 0 0 .00255 2.325 16.363)" gradientUnits="userSpaceOnUse" id="c"><stop stop-color="#c54b18" offset="0"/><stop stop-color="#fcc7a5" offset="1"/></radialGradient><radialGradient fy="0" fx="0" r="819.2" cy="0" cx="0" spreadMethod="pad" gradientTransform="matrix(.00328 .00073 -.0023 .00777 22.175 19.962)" gradientUnits="userSpaceOnUse" id="d"><stop stop-color="#e88b64" offset="0"/><stop stop-color="#fdd7b9" offset=".847"/></radialGradient><radialGradient fy="0" fx="0" r="819.2" cy="0" cx="0" spreadMethod="pad" gradientTransform="matrix(-.00432 -.00098 -.00145 .00673 21.225 19.762)" gradientUnits="userSpaceOnUse" id="e"><stop stop-color="#c54b18" offset=".02"/><stop stop-color="#fcc7a5" offset="1"/></radialGradient><radialGradient fy="0" fx="0" r="819.2" cy="0" cx="0" spreadMethod="pad" gradientTransform="matrix(-.00395 0 0 .00255 23.625 16.462)" gradientUnits="userSpaceOnUse" id="f"><stop stop-color="#c54b18" offset="0"/><stop stop-color="#fcc7a5" offset="1"/></radialGradient><radialGradient fy="0" fx="0" r="819.2" cy="0" cx="0" spreadMethod="pad" gradientTransform="matrix(.02063 0 0 .0236 15.675 4.063)" gradientUnits="userSpaceOnUse" id="g"><stop stop-color="#fdd8bf" offset="0"/><stop stop-color="#ffecd9" offset="1"/></radialGradient><radialGradient fy="0" fx="414" r="819.2" cy="0" cx="0" spreadMethod="pad" gradientTransform="matrix(.01427 0 0 .0411 24.175 11.063)" gradientUnits="userSpaceOnUse" id="h"><stop stop-color="#fbc3a3" offset="0"/><stop stop-color="#ffecd9" offset=".918"/></radialGradient><radialGradient fy="0" fx="263" r="819.2" cy="0" cx="0" spreadMethod="pad" gradientTransform="matrix(.00668 -.00325 .00978 .0214 6.175 33.762)" gradientUnits="userSpaceOnUse" id="i"><stop stop-color="#fbc3a3" offset="0"/><stop stop-color="#ffecd9" offset=".949"/></radialGradient><radialGradient fy="0" fx="210463" r="819.2" cy="0" cx="0" spreadMethod="pad" gradientTransform="matrix(.00694 0 0 .007 1.575 19.363)" gradientUnits="userSpaceOnUse" id="j"><stop stop-color="#fddec7" offset="0"/><stop stop-color="#ffecd9" offset="1"/></radialGradient><linearGradient y2=".71" y1=".88" x2=".219" x1="1.667" id="k"><stop stop-color="#f0b192" offset="0"/><stop stop-color="#ffecd9" offset="1"/></linearGradient><linearGradient y2=".484" y1=".504" x2="-.782" x1="1.967" id="l"><stop stop-color="#fbc3a3" offset="0"/><stop stop-color="#ffecd9" offset=".992"/></linearGradient><linearGradient y2=".629" y1="3.627" x2=".151" x1=".754" id="m"><stop stop-color="#fbc3a3" offset="0"/><stop stop-color="#ffecd9" offset="1"/></linearGradient><linearGradient y2=".532" y1="1.353" x2=".87" x1="-1.111" id="n"><stop stop-color="#fbc3a3" offset="0"/><stop stop-color="#ffecd9" offset="1"/></linearGradient><linearGradient y2=".489" y1="1.178" x2=".799" x1=".329" id="o"><stop stop-color="#fbcdb0" offset="0"/><stop stop-color="#ffecd9" offset=".973"/></linearGradient><linearGradient y2="-.18" y1=".259" x2=".678" x1="1.402" id="p"><stop stop-color="#fbcdb0" offset="0"/><stop stop-color="#ffecd9" offset="1"/></linearGradient><radialGradient fy="0" fx="0" r="819.2" cy="0" cx="0" spreadMethod="pad" gradientTransform="matrix(.0052 .00208 -.00374 .0098 20.625 26.012)" gradientUnits="userSpaceOnUse" id="q"><stop stop-color="#fbcdb0" offset="0"/><stop stop-color="#ffecd9" offset="1"/></radialGradient><linearGradient y2=".432" y1="1.568" x2="1.337" x1="-.239" id="r"><stop stop-color="#f8b487" offset="0"/><stop stop-color="#efb68f" offset=".38"/><stop stop-color="#fde5d0" offset="1"/></linearGradient><linearGradient y2=".042" y1="1.776" x2=".515" x1=".541" id="s"><stop stop-color="#f8b78c" offset="0"/><stop stop-color="#ffecd9" offset="1"/></linearGradient><linearGradient y2="-.583" y1="1.583" x2="-.064" x1=".849" id="t"><stop stop-color="#f9bd97" offset="0"/><stop stop-color="#fde5d0" offset="1"/></linearGradient><linearGradient y2=".523" y1=".523" x2="2.059" x1="-2.173" id="u"><stop stop-color="#fbc3a3" offset="0"/><stop stop-color="#ffecd9" offset=".992"/></linearGradient><radialGradient fy="0" fx="210251" r="819.2" cy="0" cx="0" spreadMethod="pad" gradientTransform="matrix(.00127 -.00005 .00008 .00214 7.725 26.813)" gradientUnits="userSpaceOnUse" id="v"><stop stop-opacity=".373" stop-color="#f9a27d" offset="0"/><stop stop-opacity="0" stop-color="#fbc5a7" offset="1"/></radialGradient><radialGradient fy="0" fx="0" r="819.2" cy="0" cx="0" spreadMethod="pad" gradientTransform="matrix(.00533 -.00021 .00008 .00229 14.075 15.962)" gradientUnits="userSpaceOnUse" id="w"><stop stop-opacity=".153" stop-color="#e99d7d" offset=".18"/><stop stop-opacity="0" stop-color="#ffefea" offset=".988"/></radialGradient><radialGradient fy="0" fx="0" r="819.2" cy="0" cx="0" spreadMethod="pad" gradientTransform="matrix(.00768 0 0 .00357 16.275 31.063)" gradientUnits="userSpaceOnUse" id="x"><stop stop-opacity=".412" stop-color="#fff" offset="0"/><stop stop-opacity="0" stop-color="#fff" offset="1"/></radialGradient><radialGradient fy="0" fx="0" r="819.2" cy="0" cx="0" spreadMethod="pad" gradientTransform="matrix(-.00429 -.0014 -.00253 .00783 8.425 23.462)" gradientUnits="userSpaceOnUse" id="y"><stop stop-opacity=".412" stop-color="#fff" offset="0"/><stop stop-opacity="0" stop-color="#fff" offset="1"/></radialGradient><radialGradient fy="0" fx="0" r="819.2" cy="0" cx="0" spreadMethod="pad" gradientTransform="matrix(.00443 -.00366 .0057 .00728 17.775 25.813)" gradientUnits="userSpaceOnUse" id="z"><stop stop-opacity=".412" stop-color="#fff" offset="0"/><stop stop-opacity="0" stop-color="#fff" offset="1"/></radialGradient><radialGradient fy="0" fx="0" r="819.2" cy="0" cx="0" spreadMethod="pad" gradientTransform="matrix(.00394 0 0 .00406 15.325 14.212)" gradientUnits="userSpaceOnUse" id="A"><stop stop-opacity=".451" stop-color="#fff" offset="0"/><stop stop-opacity="0" stop-color="#fff" offset="1"/></radialGradient><radialGradient fy="0" fx="0" r="819.2" cy="0" cx="0" spreadMethod="pad" gradientTransform="matrix(.00568 0 0 .00586 11.875 13.663)" gradientUnits="userSpaceOnUse" id="B"><stop stop-opacity=".451" stop-color="#fff" offset="0"/><stop stop-opacity="0" stop-color="#fff" offset="1"/></radialGradient><radialGradient fy="0" fx="210251" r="819.2" cy="0" cx="0" spreadMethod="pad" gradientTransform="matrix(-.00127 -.00005 -.00008 .00214 18.675 26.762)" gradientUnits="userSpaceOnUse" id="C"><stop stop-opacity=".373" stop-color="#f9a27d" offset="0"/><stop stop-opacity="0" stop-color="#fbc5a7" offset="1"/></radialGradient><radialGradient fy="0" fx="0" r="819.2" cy="0" cx="0" spreadMethod="pad" gradientTransform="matrix(.01483 0 0 .01965 13.125 11.063)" gradientUnits="userSpaceOnUse" id="D"><stop stop-color="#ffecd9" offset=".318"/><stop stop-color="#fdd9bf" offset=".98"/></radialGradient><radialGradient fy="0" fx="414" r="819.2" cy="0" cx="0" spreadMethod="pad" gradientTransform="matrix(.01488 0 0 .0412 24.775 11.313)" gradientUnits="userSpaceOnUse" id="E"><stop stop-color="#fbc3a3" offset="0"/><stop stop-color="#ffecd9" offset=".918"/></radialGradient><linearGradient y2=".428" y1=".428" x2="1.56" x1="-.618" id="F"><stop stop-color="#fbc3a3" offset="0"/><stop stop-color="#ffecd9" offset=".992"/></linearGradient><radialGradient fy="0" fx="0" r="819.2" cy="0" cx="0" spreadMethod="pad" gradientTransform="matrix(.0215 0 0 .02367 15.875 4.413)" gradientUnits="userSpaceOnUse" id="G"><stop stop-color="#fdd8bf" offset="0"/><stop stop-color="#ffecd9" offset="1"/></radialGradient></defs><path fill="none" d="M-1-1h582v402H-1z"/><g><path fill="url(#a)" d="M.825 19.113v-.25l-.05-.25q0-.3.15-.5l.3-.15h.05l.4.75.05.15v.25q0 .9.7 1.7l-.6-.65-.45-.5q.5 1.2 1.1 1.55.15-.2.35-.15l-.55-1.15q-.25-.6-.05-.65l.45.2q.35.2.4.85v1l-.65.5-.45-.45-.75-.9v.05l.25.6.25.45.1.05.4.55.6.2.3-.15.5.2.3.25.1.45-.15.3-.1.6h-.1l-1.35-.35q-.7-.85-1.1-2.05l-.5-1.55q-1.15-2.9 0-3.65 1.3-.5 2.45.4l.25 1.55-.85-.6-.7-.45-.8-.25-.5.45v.3l.05.1h-.05l.2.95.05.25"/><path fill="url(#b)" d="M3.925 22.663l-.3-.25-.5-.2-.3.15-.6-.2-.4-.55-.1-.05-.25-.45-.25-.6v-.05l.75.9.45.45.65-.5v-1q-.05-.65-.4-.85l-.45-.2q-.2.05.05.65l.55 1.15q-.2-.05-.35.15-.6-.35-1.1-1.55l.45.5.6.65q-.7-.8-.7-1.7v-.25l-.05-.15-.4-.75h-.05q.3-.5.65-.65l.7.45.85.6.5 4.3m.3 1.9q-.6.15-1.55-.5l-.35-.4 1.35.35h.1l.1-.6.15-.3.2 1.45m-3.4-5.7v.25l-.05-.25h.05"/><path fill="url(#c)" d="M1.225 17.962l-.3.15q-.15.2-.15.5l.05.25h-.05l-.2-.95h.05l-.05-.1v-.3l.5-.45.8.25q-.35.15-.65.65"/><path stroke="#fd9e66" stroke-miterlimit="3" stroke-linejoin="round" stroke-linecap="round" stroke-width=".05" fill="none" d="M3.425 18.363l-.25-1.55q-1.15-.9-2.45-.4-1.15.75 0 3.65l.5 1.55q.4 1.2 1.1 2.05l.35.4q.95.65 1.55.5l-.2-1.45-.1-.45-.5-4.3z"/><path fill="url(#d)" d="M21.925 23.212l.15.3.1.6h.1l1.35-.35 1.1-2.05.5-1.55q1.15-2.9 0-3.65-1.3-.5-2.45.4l-.25 1.55.85-.6q.35-.3.7-.45l.8-.25.5.45v.3l-.05.1h.05l-.2.95-.05.25v-.25l.05-.25-.15-.5-.3-.15h-.05l-.4.75-.05.15v.25q0 .9-.7 1.7l.6-.65.45-.5q-.5 1.2-1.1 1.55-.15-.2-.35-.15l.55-1.15.05-.65q-.15-.1-.45.2-.35.2-.4.85v1q.05.2.65.5l.45-.45.75-.9v.05l-.25.6-.25.45-.1.05-.4.55-.6.2-.3-.15-.5.2-.3.25-.1.45"/><path fill="url(#e)" d="M23.375 17.863l-.85.6-.5 4.3.3-.25.5-.2.3.15.6-.2.4-.55.1-.05.25-.45.25-.6v-.05l-.75.9-.45.45q-.6-.3-.65-.5v-1q.05-.65.4-.85.3-.3.45-.2l-.05.65-.55 1.15q.2-.05.35.15.6-.35 1.1-1.55l-.45.5-.6.65q.7-.8.7-1.7v-.25l.05-.15.4-.75h.05l-.65-.65q-.35.15-.7.45m1.8 1.1h-.05v.25l.05-.25m-3.45 5.7q.6.15 1.55-.5l.35-.4-1.35.35h-.1l-.1-.6-.15-.3-.2 1.45"/><path fill="url(#f)" d="M25.025 18.212l.15.5-.05.25h.05l.2-.95h-.05l.05-.1v-.3l-.5-.45-.8.25.65.65.3.15"/><path stroke="#fd9e66" stroke-miterlimit="3" stroke-linejoin="round" stroke-linecap="round" stroke-width=".05" fill="none" d="M21.925 23.212l.1-.45.5-4.3.25-1.55q1.15-.9 2.45-.4 1.15.75 0 3.65l-.5 1.55-1.1 2.05-.35.4q-.95.65-1.55.5l.2-1.45z"/><path fill="#ffecd9" d="M9.475 27.863l-.35-.25-.05-.1.1-.55.4-.35-.85.1q-.35-.65-.4-1.35l.15-.1.95-1.45h-.65l.4-.5.05-.05h.05l.65.35.15.6-.5 3.2-.05.5-.05-.05"/><path fill="#feead6" d="M16.075 30.113l-1.2.75-1.45.35h-.1l-1.3-.1-.65-.15-.05-.1q-.2-.2 0-.75h1.15l.95-.05 1.5-.05 1.15.1"/><path fill="url(#g)" d="M20.475 5.912l.3.3-.8 3.25q-.9 3.45-1.35 3.7l1 .4 1.25.7.3.3.15.15.25.95.1.25-.05.15v.15l-.05.35-.1.4v.15l.1-.55.1-.35.05-.15.1-.1v.9q-.2 1.55-.1 1.85l-.75 2.35-1 1.15-.65.3-.65.3-1 .05v.05l.05.15-.15-.1-.4-.1-.2-.1v.35l.35.7.55.7.85.7-.6.15-1.25.15-.1.55v.1l-1.15 1.15-1.6.95.5.15-1.2.2h-.35l-3.25-.6-.2-.1.05-.5.5-3.2-.15-.6-.65-.35h-.05l1.25-1.8-1.75.95-.4-.35-.45-.05-.8-.3-.35-.25-1.25-1.35-.05.05v-.15q3.8 4.05-.1-1.1l-.25-3.1-.4-1.85-.1-.5-.2-.05-.15-.05.15-1.35q0-2.15-.7-4.2l.1-1q.45-1.05 1.15-1.8l.45-.45q1.4-1.4 3.55-2l2.75-.5.15-.1h1.05l.55.1q3.3.2 5.35 1.55l1.15.9q-.3.45.55 1.4"/><path fill="url(#h)" d="M20.725 27.363l-.95 1 .75-1.8.6-1.85.2-1.05q-.15.05.15-.7l.55-1.3-.45.7h-.1v-.15l.4-.75.1-.45.25-2.1-.15-1.2.05-.05-.3-.9v-.8l-.1.1-.05.15-.05-.15.05-.15-.1-.25-.25-.95-.15-.85-.1-1.3-.05-.85-.05-2.4v-2.95l-.2-.15-.3-.3q-.85-.95-.55-1.4l.95 1 .45.7.7 1.2.75 3.15.05.35.05.35v.1l.25 1.75-.05 2.6-.1 1.05-.3 2.9-.05.3-.2 1.45-.6 3.75-.7 1.85-.4.35m1.3-9.25l-.05.45.05-.55v.1"/><path fill="url(#i)" d="M10.375 32.363l-.05-.05-.5-.3-.4-.3-.2-.15-.5-.45q-2.1-1.35-3.25-2.85l-.15-.15q-1.55-1.9-1.8-6.7l-.05-.55-.3-2.65.25-1.15.4-1.7.1.95q.3 2.75.65 4l.4 1.1.2.75.1.2.1.25.2 1.45v.1l.05.7q.2 3.85 3.15 4.5l.4.95.75 1.4.5.65h-.05m-6.85-24.95l.25-.6-.1 1-.15-.4"/><path fill="url(#j)" d="M7.775 22.813l-1 .3-1.05-.35-.45-.4-.1-.2-.2-.75-.4-1.1q-.35-1.25-.65-4l-.1-.95.4-2 .15.05.2.05.1.5.4 1.85.25 3.1q3.9 5.15.1 1.1v.15l.05-.05 1.25 1.35.35.25.8.3.45.05.4.35-.95.4"/><path fill="url(#k)" d="M18.725 25.212l-.85-.7-.55-.7-.35-.7v-.35l.2.1.4.1.15.1-.05-.15v-.05l1-.05.65-.3.65-.3 1-1.15.75-2.35q-.1-.3.1-1.85v-.1l.3.9-.05.05.15 1.2-.25 2.1-.1.45-.4.75v.15l-.6.8-1.25 1.35-.45.1h-.55l-.25-.15.7.85-.35-.1m2.95-9l-.1.35-.1.55v-.15l.1-.4.05-.35v-.15l.05.15m.35 1.8l-.05.55.05-.45v-.1"/><path fill="url(#l)" d="M21.325 14.713l-.15-.15-.3-.3-1.25-.7-1-.4q.45-.25 1.35-3.7l.8-3.25.2.15v2.95l.05 2.4.05.85.1 1.3.15.85"/><path fill="url(#m)" d="M5.725 22.762l1.05.35 1-.3.95-.4 1.75-.95-1.25 1.8-.05.05-.4.5h-.5q-1.7-.25-2.55-1.05"/><path fill="url(#n)" d="M8.275 23.813h1.15l-.95 1.45-.15.1q.05.7.4 1.35h-1.1l-.8-1.35-.1.95q-.75-.45-1.1-1.45l-.05-.7v-.1l-.2-1.45-.1-.25.45.4q.85.8 2.55 1.05"/><path fill="url(#o)" d="M13.425 30.063l-.95.05h-1.15l-1.25 1.6v.05l-.15-.05-.75-1.4-.4-.95q-2.95-.65-3.15-4.5.35 1 1.1 1.45l.1-.95.8 1.35h1.1l.85-.1-.4.35-.1.55.05.1.35.25.05.05.2.1 3.25.6h.3l.15 1.45"/><path fill="url(#p)" d="M14.925 30.012l-1.5.05-.15-1.45h.05l1.2-.2-.5-.15 1.6-.95 1.15-1.15v-.1l.1-.55 1.25-.15.6-.15.35.1.45.3v.3q0 1.25-.6 2.45l-.2.3-1.15 1.85-.2.35v.1l-.1.05q-.5.2-.8.45l-.15.1v-.25l-.1-.9-.1-.3-.05-.05v.05l-1.15-.1"/><path fill="url(#q)" d="M19.225 28.913l-1.85 1.95.2-.35 1.15-1.85.2-.3q.6-1.2.6-2.45v-.3l-.45-.3-.7-.85.25.15h.55l.45-.1 1.25-1.35.6-.8h.1l.45-.7-.55 1.3q-.3.75-.15.7l-.2 1.05-.6 1.85-.75 1.8-.55.55"/><path fill="url(#r)" d="M13.875 32.813q.8-.35 1.35-.45l.55-.35.55-.45.15-.1q.3-.25.8-.45l.1-.05v-.1l1.85-1.95.55-.55.95-1 .4-.35-.85 1.35-.7 1-.05.1-.05.1-.7.7-1.5 1.15-.4.35-.65.45-.55.3-1.25.5-1 .1h-.5l.95-.3m5.5-3.25h-.15v.05l.15-.05"/><path fill="url(#s)" d="M13.375 32.762l-1.8-.35-.75-.35-.75-.3v-.05l1.25-1.6q-.2.55 0 .75l.05.1.65.15 1.3.1h.1l1.45-.35 1.2-.75v-.05l.05.05.1.3.1.9v.25l-.55.45-.55.35q-.55.1-1.35.45l-.5-.05"/><path fill="url(#t)" d="M10.425 32.363l-.5-.65.15.05.75.3.75.35 1.8.35.5.05-.95.3h-.05l-.9-.1-.75-.3-.7-.3-.15-.05h.05"/><path fill="url(#u)" d="M3.825 15.363l-.4 1.7-.25 1.15-.1-.9-.4-2.75-.05-.75v-1.3l.05-1.3q.15-2.15.85-3.8l.15.4q.7 2.05.7 4.2l-.15 1.35-.4 2"/><path stroke="#fd9e66" stroke-miterlimit="3" stroke-linejoin="round" stroke-linecap="round" stroke-width=".05" fill="none" d="M10.325 32.313l-.5-.3-.4-.3-.2-.15-.5-.45q-2.1-1.35-3.25-2.85l-.15-.15q-1.55-1.9-1.8-6.7l-.05-.55-.3-2.65-.1-.9-.4-2.75-.05-.75v-1.3l.05-1.3q.15-2.15.85-3.8l.25-.6q.45-1.05 1.15-1.8l.45-.45q1.4-1.4 3.55-2l2.75-.5.15-.1h1.05l.55.1q3.3.2 5.35 1.55l1.15.9.95 1 .45.7.7 1.2.75 3.15.05.35m.05.45l.25 1.75-.05 2.6-.1 1.05-.3 2.9-.05.3-.2 1.45-.6 3.75-.7 1.85-.85 1.35-.7 1-.05.1-.05.1-.7.7-1.5 1.15-.4.35-.65.45-.55.3-1.25.5-1 .1h-.55l-.9-.1-.75-.3-.7-.3-.15-.05"/><path fill="url(#v)" d="M7.675 26.063l.15 2.4h-.15l-.2-.55-.5-.8.15-.85.55-.2"/><path fill="url(#w)" d="M15.325 15.912l-.2 1.5-.05.15-1.8-.6q-.3 0-.65.3l-.45.4-.15-.5-.25-1.45.95.25 1.65-.15.95.1"/><path fill-opacity=".173" fill="#fff" d="M12.225 15.313l1.9.25-.05.35-1.8.15.1-.35-.15-.4"/><path fill="url(#x)" d="M14.375 32.113l-2.25.1-.85-.05q-.35-.1-.35-.65l.25-.75.35-.65 2.2-.35 1.2.05v.1l.75 1.55q.15.55-1.3.65"/><path fill="url(#y)" d="M11.075 19.863l-.1 1.1q-.05 1.05-.65 1.65l-1.1 1.25q-1.1 1.05-1.95 1.05-.5 0-.85-.55l-.25-1.05q0-1.65.75-1.65l.8.15q.9 0 2.05-.7l1.3-1.25"/><path fill="url(#z)" d="M20.575 20.762q1.3-.75.9.9-.35 1.55-1.5 2.8l-1.45 1.1q-.3 0-.9-.8l-.75-1.05-1.65-2.05.2-.95.1-.3.8.7q.7.45 1.5.45l1.3-.25 1.45-.55"/><path fill="url(#A)" d="M14.125 15.563q.2-.4.75-.5l1.95-.35 1.6.3q-.7.15-2.3.8l-1.55.6h-.15l-.35-.5.05-.35"/><path fill="url(#B)" d="M12.375 15.713l-.1.35-.1.05-.5.1-1.25-.3-1-.35-.35-.15-1-.75h2.45l1.05.3q.4.1.65.35l.15.4"/><path fill="url(#C)" d="M19.275 26.212l.15.85-.5.8-.2.55h-.15l.15-2.4.55.2"/><path fill="url(#D)" d="M2.175 17.613v.05-.05m.1.2l.25.4.5 1.65-.75-2.05"/><path fill="url(#E)" d="M21.375 7.463q.5-1.15.75-1.55l.8-1.1.2.25q1.55 1.85 1.85 3.2l.45 2.05.1 1-.2 2.45-.6 2.35-.15.8-.8 2.2-1.6 3.85.2-1.95.2-1.1.1-.65q.4-3.7-.2-9.45.1-.6-.5-.9l-.6-.3-.35-.15.35-1"/><path fill="url(#F)" d="M4.325 9.563l-.75.75-.7.95-.2.25.1 1.3q.3 4.45.9 9.75h-.05l-2.25-6.55-.25-.8-.15-.8-.05-1.6v-.65q.05-1.25.25-2.4.3-1.3.85-2.45l.45-.85.3-.5.55 1.2 1 2.4m-2.15 8.1v-.05.05m.85 2.2l-.5-1.65-.25-.4.75 2.05"/><path fill="url(#G)" d="M3.325 7.162l-.55-1.2q.65-1.2 1.7-2.2 3.6-3.8 8.75-3.7 5.1-.1 8.75 3.7l.95 1.05-.8 1.1q-.25.4-.75 1.55l-.35 1-1.85-.35q-3.25-.35-5.55 2.4-2.35-2.75-5.55-2.4-2.25.15-3.75 1.45l-1-2.4"/><path stroke="#fd9e66" stroke-miterlimit="3" stroke-linejoin="round" stroke-linecap="round" stroke-width=".05" fill="none" d="M3.675 22.563h-.05l-2.25-6.55-.25-.8-.15-.8-.05-1.6v-.65q.05-1.25.25-2.4.3-1.3.85-2.45l.45-.85.3-.5q.65-1.2 1.7-2.2 3.6-3.8 8.75-3.7 5.1-.1 8.75 3.7l.95 1.05.2.25q1.55 1.85 1.85 3.2l.45 2.05.1 1-.2 2.45-.6 2.35-.15.8-.8 2.2-1.6 3.85m-20-5.3v-.05"/></g></svg>