<svg width="23" height="29" xmlns="http://www.w3.org/2000/svg"><defs><radialGradient fy="0" fx="0" r="819.2" cy="0" cx="0" spreadMethod="pad" gradientTransform="rotate(-8.013 120.59 -136.799) scale(.00433)" gradientUnits="userSpaceOnUse" id="a"><stop stop-color="#d7914a" offset="0"/><stop stop-color="#f5c9ab" offset=".62"/></radialGradient><radialGradient fy="0" fx="0" r="819.2" cy="0" cx="0" spreadMethod="pad" gradientTransform="matrix(-.00429 -.00061 -.00061 .00429 2.825 15.6)" gradientUnits="userSpaceOnUse" id="b"><stop stop-color="#d7914a" offset="0"/><stop stop-color="#f5c9ab" offset=".62"/></radialGradient><radialGradient fy="0" fx="0" r="819.2" cy="0" cx="0" spreadMethod="pad" gradientTransform="matrix(.01521 0 0 .0321 11.675 10.1)" gradientUnits="userSpaceOnUse" id="c"><stop stop-color="#ffecd9" offset=".612"/><stop stop-color="#fba784" offset="1"/></radialGradient><radialGradient fy="0" fx="0" r="819.2" cy="0" cx="0" spreadMethod="pad" gradientTransform="matrix(.01508 0 0 .02054 10.875 19.2)" gradientUnits="userSpaceOnUse" id="d"><stop stop-color="#ffecd9" offset=".408"/><stop stop-color="#fba784" offset="1"/></radialGradient><radialGradient fy="0" fx="215" r="819.2" cy="0" cx="0" spreadMethod="pad" gradientTransform="matrix(.01411 .00381 -.00597 .02191 26.375 21.55)" gradientUnits="userSpaceOnUse" id="e"><stop stop-color="#feccab" offset="0"/><stop stop-color="#ffecd9" offset="1"/></radialGradient><radialGradient fy="0" fx="41" r="819.2" cy="0" cx="0" spreadMethod="pad" gradientTransform="matrix(.01096 0 0 .01062 11.175 -3.25)" gradientUnits="userSpaceOnUse" id="f"><stop stop-color="#fff" offset="0"/><stop stop-color="#ffecd9" offset=".988"/></radialGradient><radialGradient fy="0" fx="0" r="819.2" cy="0" cx="0" spreadMethod="pad" gradientTransform="matrix(.0046 .00142 -.00217 .00713 6.375 22.25)" gradientUnits="userSpaceOnUse" id="g"><stop stop-opacity=".153" stop-color="#c42929" offset="0"/><stop stop-opacity="0" stop-color="#ffefea" offset="1"/></radialGradient><radialGradient fy="0" fx="0" r="819.2" cy="0" cx="0" spreadMethod="pad" gradientTransform="matrix(.00212 .0016 -.00313 .00417 16.475 25.5)" gradientUnits="userSpaceOnUse" id="h"><stop stop-opacity=".082" stop-color="#c42929" offset="0"/><stop stop-opacity="0" stop-color="#ffefea" offset="1"/></radialGradient><radialGradient fy="0" fx="0" r="819.2" cy="0" cx="0" spreadMethod="pad" gradientTransform="matrix(.0046 .00142 -.00217 .00713 6.325 22.5)" gradientUnits="userSpaceOnUse" id="i"><stop stop-opacity=".024" stop-color="#c42929" offset="0"/><stop stop-opacity="0" stop-color="#ffefea" offset="1"/></radialGradient><radialGradient fy="0" fx="0" r="819.2" cy="0" cx="0" spreadMethod="pad" gradientTransform="matrix(.00197 -.00262 .00458 .00339 16.175 21.05)" gradientUnits="userSpaceOnUse" id="j"><stop stop-opacity=".031" stop-color="#c42929" offset="0"/><stop stop-opacity="0" stop-color="#ffefea" offset="1"/></radialGradient><radialGradient fy="0" fx="0" r="819.2" cy="0" cx="0" spreadMethod="pad" gradientTransform="matrix(.005 -.00146 .00096 .00327 12.175 27.45)" gradientUnits="userSpaceOnUse" id="k"><stop stop-opacity=".082" stop-color="#c42929" offset="0"/><stop stop-opacity="0" stop-color="#ffefea" offset="1"/></radialGradient><radialGradient fy="0" fx="48" r="819.2" cy="0" cx="0" spreadMethod="pad" gradientTransform="matrix(.00366 .00352 -.00449 .00462 18.125 19.1)" gradientUnits="userSpaceOnUse" id="l"><stop stop-opacity=".522" stop-color="#ffbdbd" offset=".02"/><stop stop-opacity=".314" stop-color="#ffc9c4" offset=".416"/><stop stop-opacity="0" stop-color="#ffeddb" offset="1"/></radialGradient><radialGradient fy="0" fx="0" r="819.2" cy="0" cx="0" spreadMethod="pad" gradientTransform="matrix(-.00435 .00204 .00269 .00476 5.575 19.9)" gradientUnits="userSpaceOnUse" id="m"><stop stop-opacity=".522" stop-color="#ffbdbd" offset=".02"/><stop stop-opacity=".314" stop-color="#ffc9c4" offset=".416"/><stop stop-opacity="0" stop-color="#ffeddb" offset="1"/></radialGradient><radialGradient fy="0" fx="0" r="819.2" cy="0" cx="0" spreadMethod="pad" gradientTransform="matrix(.01067 0 0 .01033 17.925 3.25)" gradientUnits="userSpaceOnUse" id="n"><stop stop-opacity=".161" stop-color="#fff" offset="0"/><stop stop-opacity="0" stop-color="#fff" offset="1"/></radialGradient><radialGradient fy="0" fx="0" r="819.2" cy="0" cx="0" spreadMethod="pad" gradientTransform="matrix(.00883 0 0 .00856 17.525 6.75)" gradientUnits="userSpaceOnUse" id="o"><stop stop-opacity=".643" stop-color="#fff" offset="0"/><stop stop-opacity="0" stop-color="#fff" offset="1"/></radialGradient><radialGradient fy="0" fx="0" r="819.2" cy="0" cx="0" spreadMethod="pad" gradientTransform="matrix(.00916 0 0 .00887 5.125 7.15)" gradientUnits="userSpaceOnUse" id="p"><stop stop-opacity=".502" stop-color="#fff" offset="0"/><stop stop-opacity="0" stop-color="#fff" offset="1"/></radialGradient><radialGradient fy="0" fx="0" r="819.2" cy="0" cx="0" spreadMethod="pad" gradientTransform="matrix(.01024 0 0 .00992 11.325 3.3)" gradientUnits="userSpaceOnUse" id="q"><stop stop-opacity=".502" stop-color="#fff" offset="0"/><stop stop-opacity="0" stop-color="#fff" offset="1"/></radialGradient></defs><path fill="none" d="M-1-1h582v402H-1z"/><g><path fill="#f7d2bb" d="M22.375 15.4q-.25 1.05-.9 1.6l-1.45 1.25-.15.1 1.15-.3.15.2v.2l-.15.25-.6.8-.5.25-.4.1-.3-.05-.15-.15v-.8l.4-.35-.05-.05 1.2-1.15.65-.4.2-.35v-.05l.2-.4.2-.85-.05-1.05-.6-.7-1.25-.1.6-.45.75-.2.45.05.2.05.2.35.3.7-.1 1.5m-.6-2.3l-.15-.1v.2l.2.25.45.45-.05-.4-.45-.4m.3 2.3l-.35.8.5-.75-.05-.2-.1.15m-1.9 3.35q-.65-.1-.8.7l.15.05.15.05.5-.15.2-.35.45-.55-.65.25"/><path fill="#f9c29f" d="M22.475 13.9l.05.2q.2.65 0 1.3l-.35 1.35-.55 1.15-.45.55v-.2l-.15-.2-1.15.3.15-.1 1.45-1.25q.65-.55.9-1.6l.1-1.5"/><path fill="#f9e1d2" d="M22.225 13.5l.05.4-.45-.45-.2-.25V13l.15.1.45.4m-.05 1.75l.05.2-.5.75.35-.8.1-.15m-1.35 3.25l-.45.55-.2.35-.5.15-.15-.05-.15-.05q.15-.8.8-.7l.65-.25"/><path fill="url(#a)" d="M19.075 18.85l.05-.7.05-1.3.3-2.15.05-.2.35-.85.1-.25 1.25.1.6.7.05 1.05-.2.85-.2.4v.05l-.2.35-.65.4-1.2 1.15.05.05-.4.35"/><path stroke="#fd9e66" stroke-miterlimit="3" stroke-linejoin="round" stroke-linecap="round" stroke-width=".05" fill="none" d="M19.975 13.4l.6-.45.75-.2.45.05.2.05.2.35.3.7.05.2q.2.65 0 1.3l-.35 1.35-.55 1.15-.45.55-.15.25-.6.8-.5.25-.4.1-.3-.05-.15-.15v-.8l.05-.7.05-1.3.3-2.15.05-.2.35-.85.1-.25z"/><path fill="#f7d2bb" d="M1.225 13.2l.1-.1.05.05v.15l-.2.25-.5.5.1-.45.45-.4m-.65 2.35q.25 1.05.9 1.55l1.4 1.2.15.15q-.7-.35-1.1-.3l-.15.2v.15l.2.3.55.85.45.25.45.05h.3l.15-.15v-.85l-.45-.35.05-.05-1.15-1.2-.65-.35-.2-.3v-.05l-.2-.4-.15-.9.05-1 .6-.8 1.2-.05-.55-.45-.75-.2-.45.05-.25.05-.2.35-.3.75.1 1.5m.3 0l.35.8-.5-.8.1-.2.05.2m1.85 3.3q.65-.1.85.75l-.2.05-.15.05-.5-.2-.2-.35-.45-.6.65.3"/><path fill="#f9c29f" d="M.475 14.05v.2q-.2.65-.05 1.25l.35 1.4.6 1.1.4.5v-.15l.15-.2q.4-.05 1.1.3l-.15-.15-1.4-1.2q-.65-.5-.9-1.55l-.1-1.5"/><path fill="#f9e1d2" d="M.775 13.6l-.1.45.5-.5.2-.25v-.15l-.05-.05-.1.1-.45.4m.05 1.75l-.1.2.5.8-.35-.8-.05-.2m1.25 3.2l.45.6.2.35.5.2.15-.05.2-.05q-.2-.85-.85-.75l-.65-.3"/><path fill="url(#b)" d="M3.875 18.95l-.05-.7-.1-1.25-.3-2.2v-.2l-.35-.85-.1-.25-1.2.05-.6.8-.05 1 .15.9.2.4v.05l.2.3.65.35 1.15 1.2-.05.05.45.35"/><path stroke="#fd9e66" stroke-miterlimit="3" stroke-linejoin="round" stroke-linecap="round" stroke-width=".05" fill="none" d="M2.975 13.5l-.55-.45-.75-.2-.45.05-.25.05-.2.35-.3.75v.2q-.2.65-.05 1.25l.35 1.4.6 1.1.4.5.2.3.55.85.45.25.45.05h.3l.15-.15v-.85l-.05-.7-.1-1.25-.3-2.2v-.2l-.35-.85-.1-.25z"/><path fill="#ffecd9" d="M9.325 27.35q.45-.7-.05-1.35l-.7-1.35-.25-1q-.35-1.75.2-2.95l.85-1.65q.2-.5-.55 0l-2.1 1.15-.85.3-.9-1.15-.4-1.1-.3-1.65-.5-8.25-.1.1-.25-4.05 1.1-1.35q2.95-3.1 7.1-3.05 4.15-.05 7.1 3.05l1.25 1.55-.3 3.25h-.05l-.6-.45.35 2.6.05.25v.45l-.5 3.7-.75 3.5-.45 1.3-1.05.9h-.05l-.5-.05-.55-.2-.9-.35q-.25 0-.4.2l-.35 1.1.05.2.1.75q0 1.05-1 1.9-.45.45-.55.75-.15.25.15.8l.05.1q.25.7-1.35 1.2-1.55.5-1.85.9l-.2-.05"/><path fill="url(#c)" d="M3.675 8.45l.1-.1.5 8.25.3 1.65.4 1.1.9 1.15.85-.3 2.1-1.15q.75-.5.55 0l-.85 1.65q-.55 1.2-.2 2.95l.25 1 .7 1.35q.5.65.05 1.35l-1.05-.7-.7-1.45.15-1.05v-.05q.2-.4.1-1.75-.05-1.5-.35-1.95l-1.05.45-.15.15-.25.35-.1.35v1.55q.15.95-1.5-.95l-.75-.95-.2-.8-.15-1.45-1.7-7.4V9.85l.2-1.9q.3-1.5 1.1-2.7l.5-.85.25 4.05"/><path fill="url(#d)" d="M9.525 27.4l.4.1q2.7-.05 3.5-.9l.8-1.25.45-1.7q.3-2.1 2.2-2.3 1.8-.2 2.6-1l.2-.2-.05.4-.8 2.65q-.65 1.45-2.9 3.4-2.3 1.95-4.1 2.05l-.35.05-.25-.05q-1.75-.1-4.05-2.05-2.25-1.95-2.85-3.4l-.65-1.85.75.95q1.65 1.9 1.5.95V21.7l.1-.35.25-.35.15-.15 1.05-.45q.3.45.35 1.95.1 1.35-.1 1.75v.05l-.15 1.05.7 1.45 1.05.7.2.05"/><path fill="url(#e)" d="M19.975 4.6q1.7 2.55 1.75 5.8l-1.85 8.2-.2 1.55-.2.2q-.8.8-2.6 1-1.9.2-2.2 2.3l-.45 1.7-.8 1.25q-.8.85-3.5.9l-.4-.1q.3-.4 1.85-.9 1.6-.5 1.35-1.2l-.05-.1q-.3-.55-.15-.8.1-.3.55-.75 1-.85 1-1.9l-.1-.75-.05-.2.35-1.1q.15-.2.4-.2l.9.35.55.2.5.05h.05l1.05-.9.45-1.3.75-3.5.5-3.7v-.45l-.05-.25-.35-2.6.6.45.05.05v-.05l.3-3.25"/><path fill="url(#f)" d="M19.675 7.85v.05l-.05-.05h.05M3.325 19.1v.1-.1"/><path stroke="#fd9e66" stroke-miterlimit="3" stroke-linejoin="round" stroke-linecap="round" stroke-width=".05" fill="none" d="M3.425 4.4l-.5.85q-.8 1.2-1.1 2.7l-.2 1.9v1.85l1.7 7.4.15 1.45.2.8M3.425 4.4l1.1-1.35q2.95-3.1 7.1-3.05 4.15-.05 7.1 3.05l1.25 1.55q1.7 2.55 1.75 5.8l-1.85 8.2-.2 1.55-.05.4-.8 2.65q-.65 1.45-2.9 3.4-2.3 1.95-4.1 2.05l-.35.05-.25-.05q-1.75-.1-4.05-2.05-2.25-1.95-2.85-3.4l-.65-1.85m-.35-2.25v.1"/><path fill-opacity=".251" fill="#fdd8c3" d="M6.025 22.5q-.2-.2-.15.8l.05.85-.55-1.4-.15-1 .8.75"/><path fill="#ffe2cf" d="M17.825 22.6l.05-.6.35-.5.15-.05.4.1-.9 1.95-.05-.65v-.25"/><path fill="url(#g)" d="M5.525 24.2l.75 1.45-1.5-1.55-.35-1.2 1.1 1.25v.05"/><path fill="url(#h)" d="M17.825 24.8l-1.75 1.6-1.8 1.25.6-1.35q.4-1.7 2.55-2.65l.25.5.05.05.1.6"/><path fill="url(#i)" d="M5.525 24.15l-.45-1.6-.4-1.85.85.25q1.35-.2 2.65-1.25 1.25-1.15 1.15-.8l-1.55 2.6-.15 1.05.3.45.25.6q.1.4-.05.65l-.3 1.35-.2 1.2-.55-.4-.8-.75-.75-1.5m-.3-2.4l.15 1 .55 1.4-.05-.85q-.05-1 .15-.8l-.8-.75"/><path fill="url(#j)" d="M18.375 21.45l-.15.05-.35.5-.05.6-1.2.4-.75.4-.4-.25-.2-.8-1.45-1.9-.1-.45-.3-.7q1.35-.25 5.5 1.75l-.15.5-.4-.1"/><path fill="url(#k)" d="M16.375 24.1l-2.35 3.15q-1 1.25-2.2 1.25-1.15 0-1.75-.65l-1.05-1.55 1.45-.05 2.45-.65 3.45-1.5"/><path fill="url(#l)" d="M20.225 16.35l-.6 4.2-.5 1.9-1.25.5q-1.6.4-2.9-.4-1.3-.85-1.45-2.45-.15-1.65.95-3.1 1.05-1.5 2.75-2 1.7-.45 2.95.45l.2.15-.15.75"/><path fill="url(#m)" d="M2.875 15.5l.45-.25 3.1-.05q1.65.7 2.55 2.3.9 1.55.5 3.15-.4 1.55-1.85 2.25l-3.1.05-.25-.1-.7-2.25-.55-4.15-.15-.95"/><path fill="url(#n)" d="M18.675 2.8q1.9 2.2 1.9 4.3 0 3.4-5.8 3.4l-1.65-.25q-.55-.4-1.1-1.95-.55-1.7-.45-2.65l-.05-2.1q0-2 .8-3.25l.05.05q5.4 1.45 6.3 2.45"/><path fill="url(#o)" d="M21.275 9.1l-.45 3.6h-.05l.2-1.9q0-3-1.6-5.75-2.1-3.5-5.65-4.3h.4q3.3.5 5.35 3.4 1.8 2.4 1.8 4.95"/><path fill="url(#p)" d="M3.925 5.2q-1.65 2.75-1.65 5.3 0 1.65.5 2.85v.2h-.05q-.8-2.55-.8-4.7l.15-1.3q0-1 2-3.7 1.45-2.2 4.25-3.15h.05q-2.75 1.6-4.45 4.5"/><path fill="url(#q)" d="M17.725 2.3l1.85 2.1q-.45 2.1-2.4 3.65-2.45 1.95-5.85 1.95-3.45 0-5.95-1.95-2.15-1.75-2.35-4.2l1-.75 2.4-1.55q1.55-.9 3.05-1.3l2.15-.25 1.8.15 1.25.4 1.2.55q.8.3 1.85 1.2"/></g></svg>