<svg xmlns="http://www.w3.org/2000/svg" width="24" height="29"><g transform="translate(11.6 14.45)"><path d="M6.6-11.95v4.45l-.1 2.15q0 1.5.45 3.95l.5 3.05-.3 2-.85 2.4L4.6 7.1l-.85 1.3q-.5.5.25 1.15.7.6-.5 2.2-1.25 1.6-2 1.8l-1.35.25-1.45-.25q-.8-.2-2-1.8-1.25-1.6-.5-2.2.7-.65.25-1.15l-.9-1.3-1.7-1.05-.8-2.4-.35-2 .5-3.05q.45-2.45.45-3.95L-6.4-7.2V-12q2.75-2.5 6.5-2.45 3.7-.05 6.5 2.5" fill="#ffecd9"/><radialGradient id="a" gradientUnits="userSpaceOnUse" gradientTransform="matrix(.01442 0 0 .03276 .4 -1.7)" spreadMethod="pad" cx="0" cy="0" r="819.2" fx="3" fy="0"><stop offset=".459" stop-color="#ffecd9"/><stop offset="1" stop-color="#feccab"/></radialGradient><path d="M9.6-.8v.35Q9.45 2 8.65 5L8.3 6.25l-.35 1.3.6-2.85.05-.2-.15.25q-.7 1.5-1.7 2l-.05.05-.35.85-.6 1.4v.05h.05l.65-.75.6-.6-1.25 1.9-1.2 2.25h-.05l-1.1 1-1.8 1.25-1.5.35-1.6-.35-1.8-1.25-1.1-1-1.3-2.25-1.4-2.15.15.25.6.6.65.75h.05l.25.25-.85-1.7-.35-.85-.05-.05q-.95-.5-1.7-2l-.05-.1v.05l.5 2.4-.25-.85L-8.45 5q-.75-2.9-.9-5.25l-.55-2.5-.05-1.3v-.55l.25-1.9q.25-1.5 1.05-2.7.6-1.2 1.6-2.2l.65-.6v4.8l.05 1.85q0 1.5-.45 3.95l-.5 3.05.35 2 .8 2.4 1.7 1.05.9 1.3q.45.5-.25 1.15-.75.6.5 2.2 1.2 1.6 2 1.8l1.45.25 1.35-.25q.75-.2 2-1.8 1.2-1.6.5-2.2-.75-.65-.25-1.15l.85-1.3 1.7-1.05.85-2.4.3-2-.5-3.05Q6.5-3.85 6.5-5.35l.1-2.15v-4.45l.6.55q2.9 3.05 2.95 7.35l-.5 2.9-.05.35" fill="url(#a)"/><radialGradient id="b" gradientUnits="userSpaceOnUse" gradientTransform="matrix(.01097 0 0 .01283 .25 3.5)" spreadMethod="pad" cx="0" cy="0" r="819.2" fx="0" fy="0"><stop offset=".459" stop-color="#ffecd9"/><stop offset="1" stop-color="#feccab"/></radialGradient><path d="M-7.85 7.1l-.5-2.4v-.05l.05.1q.75 1.5 1.7 2l.05.05.35.85.85 1.7-.25-.25h-.05l-.65-.75-.6-.6-.15-.25 1.4 2.15 1.3 2.25-1.25-1.15-.05-.05Q-7 9.45-7.5 8.25l-.15-.4-.2-.75M5.8 10.75l-.15.2-.8.7-.25.25 1.2-2.25 1.25-1.9-.6.6-.65.75h-.05v-.05l.6-1.4.35-.85.05-.05q1-.5 1.7-2l.15-.25-.05.2-.6 2.85-.2.7H7.7Q7.2 9.5 5.85 10.7l-.05.05" fill="url(#b)"/><path d="M-6.4-12l-.65.6q-1 1-1.6 2.2-.8 1.2-1.05 2.7l-.25 1.9v.55l.05 1.3.55 2.5q.15 2.35.9 5.25l.35 1.25.25.85m3.5 4.8l1.1 1 1.8 1.25 1.6.35 1.5-.35 1.8-1.25 1.1-1h.05m3.35-4.35l.35-1.3L8.65 5q.8-3 .95-5.45-.05-.35.05-.7l.5-2.9q-.05-4.3-2.95-7.35l-.6-.55m-13-.05q2.75-2.5 6.5-2.45 3.7-.05 6.5 2.5m3 11.5V-.8l.05-.35m-14 13.05l-1.25-1.15-.05-.05Q-7 9.45-7.5 8.25l-.15-.4-.2-.75m15.8.45l-.1.3-.1.4H7.7Q7.2 9.5 5.85 10.7l-.05.05-.95.9-.25.25" fill="none" stroke-width=".05" stroke-linecap="round" stroke-linejoin="round" stroke-miterlimit="3" stroke="#fd9e66"/><radialGradient id="c" gradientUnits="userSpaceOnUse" gradientTransform="matrix(-.00453 .0021 .00331 .00586 -6.85 3.65)" spreadMethod="pad" cx="0" cy="0" r="819.2" fx="0" fy="0"><stop offset=".067" stop-color="#ffb2b2" stop-opacity=".573"/><stop offset=".631" stop-color="#ffbeb5" stop-opacity=".282"/><stop offset="1" stop-color="#ffd3cf" stop-opacity="0"/></radialGradient><path d="M-9.5-.1l.45-.3q1.55-.75 3.35-.05 1.75.7 2.7 2.4.9 1.7.55 3.4Q-2.9 7-4.5 7.75l-2.3.3-1-1.5q-.55-.95-1.1-3.7l-.55-2.7-.05-.25" fill="url(#c)"/><radialGradient id="d" gradientUnits="userSpaceOnUse" gradientTransform="matrix(.00453 .0021 -.00331 .00586 7 3.65)" spreadMethod="pad" cx="0" cy="0" r="819.2" fx="0" fy="0"><stop offset=".067" stop-color="#ffb2b2" stop-opacity=".573"/><stop offset=".631" stop-color="#ffbeb5" stop-opacity=".282"/><stop offset="1" stop-color="#ffd3cf" stop-opacity="0"/></radialGradient><path d="M9.6.15L9.05 3l-1.1 3.55-1 1.5-2.3-.3q-1.6-.75-2-2.4-.4-1.7.5-3.4.95-1.7 2.7-2.4 1.8-.7 3.35.05l.45.25-.05.3" fill="url(#d)"/><radialGradient id="e" gradientUnits="userSpaceOnUse" gradientTransform="matrix(.01067 0 0 .01033 6.35 -11.2)" spreadMethod="pad" cx="0" cy="0" r="819.2" fx="0" fy="0"><stop offset="0" stop-color="#fff" stop-opacity=".161"/><stop offset="1" stop-color="#fff" stop-opacity="0"/></radialGradient><path d="M7.1-11.65q1.95 2.2 1.95 4.3 0 3.4-5.85 3.4L1.6-4.2Q1-4.6.5-6.15-.1-7.85 0-8.8l-.05-2.1q0-2 .8-3.25l.1.05q5.35 1.45 6.25 2.45" fill="url(#e)"/><radialGradient id="f" gradientUnits="userSpaceOnUse" gradientTransform="matrix(.00883 0 0 .00856 5.95 -7.65)" spreadMethod="pad" cx="0" cy="0" r="819.2" fx="0" fy="0"><stop offset="0" stop-color="#fff" stop-opacity=".643"/><stop offset="1" stop-color="#fff" stop-opacity="0"/></radialGradient><path d="M9.75-5.3l-.5 3.6H9.2l.2-1.9q0-3-1.6-5.75-2.1-3.5-5.65-4.3h.4q3.3.55 5.35 3.4Q9.75-7.8 9.75-5.3" fill="url(#f)"/><radialGradient id="g" gradientUnits="userSpaceOnUse" gradientTransform="matrix(.00916 0 0 .00887 -6.45 -7.25)" spreadMethod="pad" cx="0" cy="0" r="819.2" fx="0" fy="0"><stop offset="0" stop-color="#fff" stop-opacity=".502"/><stop offset="1" stop-color="#fff" stop-opacity="0"/></radialGradient><path d="M-7.65-9.2Q-9.3-6.45-9.3-3.9q0 1.7.5 2.85v.2h-.05q-.8-2.55-.8-4.7l.15-1.3q0-.95 2-3.7 1.45-2.2 4.25-3.15h.05q-2.75 1.6-4.45 4.5" fill="url(#g)"/><radialGradient id="h" gradientUnits="userSpaceOnUse" gradientTransform="matrix(.01024 0 0 .00992 -.25 -11.15)" spreadMethod="pad" cx="0" cy="0" r="819.2" fx="0" fy="0"><stop offset="0" stop-color="#fff" stop-opacity=".502"/><stop offset="1" stop-color="#fff" stop-opacity="0"/></radialGradient><path d="M1.85-14.3l1.25.4 1.25.55q.75.3 1.85 1.2l1.8 2.1q-.45 2.1-2.4 3.65Q3.2-4.45-.25-4.45q-3.45 0-5.95-1.95-2.15-1.75-2.35-4.2l1-.75 2.4-1.55q1.55-.9 3.1-1.3l2.1-.25 1.8.15" fill="url(#h)"/><path d="M10.5 4.6l-.15.3-.45.9-.45.35-.45.1h-.3l-.15-.2-.1-.8.45-.4-.1-.05q.5-.8 1.05-1.25l.65-.45.15-.35V2.7l.15-.4.15-.9q-.15-1.7-1-1.7l-.55.05.4-.55.35-.1.4-.1q.45-.1.8.75v.1l.05.1V.1l.05.5q.1 1.8-.75 2.6L9.4 4.55l-.15.1q.65-.35 1.1-.35l.2.15-.05.15m-.05-5.35l.8.75v.25-.1q-.05-.7-.75-.95l-.05.05m.7 2L10.9 2.4l.4-.85-.05-.25-.1-.05M9.6 5.05q-.7-.05-.8.8l.2.05.2.05q.3-.05.45-.25l.2-.4.3-.6-.55.35" fill="#f7d2bb"/><path d="M10.55 4.45l-.2-.15q-.45 0-1.1.35l.15-.1 1.3-1.35q.85-.8.75-2.6L11.4.1l.2.85-.2 1.95-.5 1.2-.4.5.05-.15" fill="#f9c29f"/><path d="M10.5-.8q.7.25.75.95v.1V0l-.8-.75.05-.05m.75 2.1l.05.25-.4.85.25-1.15.1.05m-1.1 3.4l-.3.6-.2.4q-.15.2-.45.25L9 5.9l-.2-.05q.1-.85.8-.8l.55-.35" fill="#f9e1d2"/><radialGradient id="i" gradientUnits="userSpaceOnUse" gradientTransform="rotate(-13.122 12.6 -39.646) scale(.00434)" spreadMethod="pad" cx="0" cy="0" r="819.2" fx="0" fy="0"><stop offset="0" stop-color="#d7914a"/><stop offset=".62" stop-color="#f5c9ab"/></radialGradient><path d="M8.45 5.25l.05-.8.25-1.5.25-1.6q.05-.7.4-1.6l.55-.05q.85 0 1 1.7l-.15.9-.15.4v.05l-.15.35-.65.45Q9.3 4 8.8 4.8l.1.05-.45.4" fill="url(#i)"/><path d="M9.4-.25l.4-.55.35-.1.4-.1q.45-.1.8.75v.1l.05.1V.1l.2.85-.2 1.95-.5 1.2-.4.5-.15.3-.45.9-.45.35-.45.1h-.3l-.15-.2-.1-.8.05-.8.25-1.5.25-1.6q.05-.7.4-1.6z" fill="none" stroke-width=".05" stroke-linecap="round" stroke-linejoin="round" stroke-miterlimit="3" stroke="#fd9e66"/><path d="M-10.35 4.6l.15.3.5.9.5.3.45.05.3.05.1-.2q.15-.2.05-.8l-.4-.4.05-.05-1.05-1.2-.65-.45-.2-.35V2.7l-.2-.4-.15-.9q.05-1.7.95-1.75l.55.05q-.25-.55-.45-.5l-.3-.15-.4-.05q-.55-.05-.85.75v.2l-.05.1V.7q-.05 1.75.85 2.55l1.35 1.25.15.1q-.65-.4-1.05-.35l-.2.2v.15m-.1-5.35l-.85.8V.3.2q0-.7.75-1l.1.05m-.7 2l.35 1.15-.45-.85V1.3l.1-.05M-9.45 5q.7-.05.85.8l-.2.05H-9l-.45-.15-.2-.4-.35-.6.55.3" fill="#f7d2bb"/><path d="M-10.35 4.45l.2-.2q.4-.05 1.05.35l-.15-.1-1.35-1.25q-.9-.8-.85-2.55V.1l-.15.85.35 2 .5 1.15.4.5v-.15" fill="#f9c29f"/><path d="M-10.55-.8q-.75.3-.75 1v.1-.25l.85-.8-.1-.05m-.7 2.1v.25l.45.85-.35-1.15-.1.05M-10 4.7l.35.6.2.4.45.15h.2l.2-.05q-.15-.85-.85-.8l-.55-.3" fill="#f9e1d2"/><radialGradient id="j" gradientUnits="userSpaceOnUse" gradientTransform="matrix(-.00426 -.0008 -.0008 .00426 -9.2 1.75)" spreadMethod="pad" cx="0" cy="0" r="819.2" fx="0" fy="0"><stop offset="0" stop-color="#d7914a"/><stop offset=".62" stop-color="#f5c9ab"/></radialGradient><path d="M-8.3 5.2l-.1-.85-.25-1.4L-9 1.3q-.05-.75-.4-1.6l-.55-.05q-.9.05-.95 1.75l.15.9.2.4v.05l.2.35.65.45 1.05 1.2-.05.05.4.4" fill="url(#j)"/><path d="M-9.4-.3q-.25-.55-.45-.5l-.3-.15-.4-.05q-.55-.05-.85.75v.2l-.05.1V.1l-.15.85.35 2 .5 1.15.4.5.15.3.5.9.5.3.45.05.3.05.1-.2q.15-.2.05-.8l-.1-.85-.25-1.4L-9 1.3q-.05-.75-.4-1.6z" fill="none" stroke-width=".05" stroke-linecap="round" stroke-linejoin="round" stroke-miterlimit="3" stroke="#fd9e66"/></g></svg>