<svg width="26" height="34" xmlns="http://www.w3.org/2000/svg">
 <defs>
  <radialGradient fy="0" fx="0" r="819.2" cy="0" cx="0" spreadMethod="pad" gradientTransform="matrix(-0.003280000062659383,0.0007300000288523734,0.002300000051036477,0.007770000025629997,3.7749977111816406,19.86250114440918)" gradientUnits="userSpaceOnUse" id="a">
   <stop stop-color="#e88b64" offset="0"/>
   <stop stop-color="#fdd7b9" offset="0.847"/>
  </radialGradient>
  <radialGradient fy="0" fx="0" r="819.2" cy="0" cx="0" spreadMethod="pad" gradientTransform="matrix(0.00431999983265996,-0.0009800000116229057,0.001449999981559813,0.006730000022798777,4.724998474121094,19.662500381469727)" gradientUnits="userSpaceOnUse" id="b">
   <stop stop-color="#c54b18" offset="0.02"/>
   <stop stop-color="#fcc7a5" offset="1"/>
  </radialGradient>
  <radialGradient fy="0" fx="0" r="819.2" cy="0" cx="0" spreadMethod="pad" gradientTransform="matrix(0.003949999809265137,0,0,0.0025500000920146704,2.3249969482421875,16.36250114440918)" gradientUnits="userSpaceOnUse" id="c">
   <stop stop-color="#c54b18" offset="0"/>
   <stop stop-color="#fcc7a5" offset="1"/>
  </radialGradient>
  <radialGradient fy="0" fx="0" r="819.2" cy="0" cx="0" spreadMethod="pad" gradientTransform="matrix(0.003280000062659383,0.0007300000288523734,-0.002300000051036477,0.007770000025629997,22.17499542236328,19.962499618530273)" gradientUnits="userSpaceOnUse" id="d">
   <stop stop-color="#e88b64" offset="0"/>
   <stop stop-color="#fdd7b9" offset="0.847"/>
  </radialGradient>
  <radialGradient fy="0" fx="0" r="819.2" cy="0" cx="0" spreadMethod="pad" gradientTransform="matrix(-0.00431999983265996,-0.0009800000116229057,-0.001449999981559813,0.006730000022798777,21.224998474121094,19.76249885559082)" gradientUnits="userSpaceOnUse" id="e">
   <stop stop-color="#c54b18" offset="0.02"/>
   <stop stop-color="#fcc7a5" offset="1"/>
  </radialGradient>
  <radialGradient fy="0" fx="0" r="819.2" cy="0" cx="0" spreadMethod="pad" gradientTransform="matrix(-0.003949999809265137,0,0,0.0025500000920146704,23.625,16.462499618530273)" gradientUnits="userSpaceOnUse" id="f">
   <stop stop-color="#c54b18" offset="0"/>
   <stop stop-color="#fcc7a5" offset="1"/>
  </radialGradient>
  <radialGradient fy="0" fx="0" r="819.2" cy="0" cx="0" spreadMethod="pad" gradientTransform="matrix(0.0206300001591444,0,0,0.023600000888109207,15.674995422363281,4.0625)" gradientUnits="userSpaceOnUse" id="g">
   <stop stop-color="#fdd8bf" offset="0"/>
   <stop stop-color="#ffecd9" offset="1"/>
  </radialGradient>
  <radialGradient fy="0" fx="414" r="819.2" cy="0" cx="0" spreadMethod="pad" gradientTransform="matrix(0.014270000159740448,0,0,0.041099999099969864,24.17499542236328,11.0625)" gradientUnits="userSpaceOnUse" id="h">
   <stop stop-color="#fbc3a3" offset="0"/>
   <stop stop-color="#ffecd9" offset="0.918"/>
  </radialGradient>
  <radialGradient fy="0" fx="263" r="819.2" cy="0" cx="0" spreadMethod="pad" gradientTransform="matrix(0.006680000107735395,-0.0032500000670552254,0.00977999996393919,0.021400000900030136,6.174999237060547,33.76249694824219)" gradientUnits="userSpaceOnUse" id="i">
   <stop stop-color="#fbc3a3" offset="0"/>
   <stop stop-color="#ffecd9" offset="0.949"/>
  </radialGradient>
  <radialGradient fy="0" fx="210463" r="819.2" cy="0" cx="0" spreadMethod="pad" gradientTransform="matrix(0.006940000224858522,0,0,0.007000000216066837,1.5749969482421875,19.36250114440918)" gradientUnits="userSpaceOnUse" id="j">
   <stop stop-color="#fddec7" offset="0"/>
   <stop stop-color="#ffecd9" offset="1"/>
  </radialGradient>
  <linearGradient y2="0.709575" y1="0.879615" x2="0.21884" x1="1.666873" id="k">
   <stop stop-color="#f0b192" offset="0"/>
   <stop stop-color="#ffecd9" offset="1"/>
  </linearGradient>
  <linearGradient y2="0.48448" y1="0.503755" x2="-0.781844" x1="1.96703" id="l">
   <stop stop-color="#fbc3a3" offset="0"/>
   <stop stop-color="#ffecd9" offset="0.992"/>
  </linearGradient>
  <linearGradient y2="0.628698" y1="3.626624" x2="0.150821" x1="0.754442" id="m">
   <stop stop-color="#fbc3a3" offset="0"/>
   <stop stop-color="#ffecd9" offset="1"/>
  </linearGradient>
  <linearGradient y2="0.531986" y1="1.353069" x2="0.870453" x1="-1.111418" id="n">
   <stop stop-color="#fbc3a3" offset="0"/>
   <stop stop-color="#ffecd9" offset="1"/>
  </linearGradient>
  <linearGradient y2="0.489032" y1="1.177635" x2="0.799361" x1="0.328846" id="o">
   <stop stop-color="#fbcdb0" offset="0"/>
   <stop stop-color="#ffecd9" offset="0.973"/>
  </linearGradient>
  <linearGradient y2="-0.179943" y1="0.258684" x2="0.678242" x1="1.40176" id="p">
   <stop stop-color="#fbcdb0" offset="0"/>
   <stop stop-color="#ffecd9" offset="1"/>
  </linearGradient>
  <radialGradient fy="0" fx="0" r="819.2" cy="0" cx="0" spreadMethod="pad" gradientTransform="matrix(0.005200000014156103,0.0020800000056624413,-0.0037400000728666782,0.009800000116229057,20.625,26.01249885559082)" gradientUnits="userSpaceOnUse" id="q">
   <stop stop-color="#fbcdb0" offset="0"/>
   <stop stop-color="#ffecd9" offset="1"/>
  </radialGradient>
  <linearGradient y2="0.431932" y1="1.568068" x2="1.33701" x1="-0.239451" id="r">
   <stop stop-color="#f8b487" offset="0"/>
   <stop stop-color="#efb68f" offset="0.38"/>
   <stop stop-color="#fde5d0" offset="1"/>
  </linearGradient>
  <linearGradient y2="0.042228" y1="1.775953" x2="0.514893" x1="0.541108" id="s">
   <stop stop-color="#f8b78c" offset="0"/>
   <stop stop-color="#ffecd9" offset="1"/>
  </linearGradient>
  <linearGradient y2="-0.582513" y1="1.582513" x2="-0.063858" x1="0.84867" id="t">
   <stop stop-color="#f9bd97" offset="0"/>
   <stop stop-color="#fde5d0" offset="1"/>
  </linearGradient>
  <linearGradient y2="0.523148" y1="0.523148" x2="2.058735" x1="-2.173019" id="u">
   <stop stop-color="#fbc3a3" offset="0"/>
   <stop stop-color="#ffecd9" offset="0.992"/>
  </linearGradient>
  <radialGradient fy="0" fx="210251" r="819.2" cy="0" cx="0" spreadMethod="pad" gradientTransform="matrix(0.0012700000079348683,-0.00004999999873689376,0.00007999999797903001,0.002139999996870756,7.724998474121094,26.812501907348633)" gradientUnits="userSpaceOnUse" id="v">
   <stop stop-opacity="0.373" stop-color="#f9a27d" offset="0"/>
   <stop stop-opacity="0" stop-color="#fbc5a7" offset="1"/>
  </radialGradient>
  <radialGradient fy="0" fx="0" r="819.2" cy="0" cx="0" spreadMethod="pad" gradientTransform="matrix(0.005330000072717667,-0.0002099999983329326,0.00007999999797903001,0.0022899999748915434,14.074996948242188,15.962499618530273)" gradientUnits="userSpaceOnUse" id="w">
   <stop stop-opacity="0.153" stop-color="#e99d7d" offset="0.18"/>
   <stop stop-opacity="0" stop-color="#ffefea" offset="0.988"/>
  </radialGradient>
  <radialGradient fy="0" fx="0" r="819.2" cy="0" cx="0" spreadMethod="pad" gradientTransform="matrix(0.007679999805986881,0,0,0.0035699999425560236,16.275001525878906,31.062501907348633)" gradientUnits="userSpaceOnUse" id="x">
   <stop stop-opacity="0.412" stop-color="#fff" offset="0"/>
   <stop stop-opacity="0" stop-color="#fff" offset="1"/>
  </radialGradient>
  <radialGradient fy="0" fx="0" r="819.2" cy="0" cx="0" spreadMethod="pad" gradientTransform="matrix(-0.004290000069886446,-0.00139999995008111,-0.002529999939724803,0.007829999551177025,8.424995422363281,23.462499618530273)" gradientUnits="userSpaceOnUse" id="y">
   <stop stop-opacity="0.412" stop-color="#fff" offset="0"/>
   <stop stop-opacity="0" stop-color="#fff" offset="1"/>
  </radialGradient>
  <radialGradient fy="0" fx="0" r="819.2" cy="0" cx="0" spreadMethod="pad" gradientTransform="matrix(0.004430000204592943,-0.003659999929368496,0.00570000009611249,0.007280000019818544,17.775001525878906,25.812501907348633)" gradientUnits="userSpaceOnUse" id="z">
   <stop stop-opacity="0.412" stop-color="#fff" offset="0"/>
   <stop stop-opacity="0" stop-color="#fff" offset="1"/>
  </radialGradient>
  <radialGradient fy="0" fx="0" r="819.2" cy="0" cx="0" spreadMethod="pad" gradientTransform="matrix(0.00394000019878149,0,0,0.00406000018119812,15.324996948242188,14.212499618530273)" gradientUnits="userSpaceOnUse" id="A">
   <stop stop-opacity="0.451" stop-color="#fff" offset="0"/>
   <stop stop-opacity="0" stop-color="#fff" offset="1"/>
  </radialGradient>
  <radialGradient fy="0" fx="0" r="819.2" cy="0" cx="0" spreadMethod="pad" gradientTransform="matrix(0.005679999943822622,0,0,0.005859999917447567,11.875,13.662500381469727)" gradientUnits="userSpaceOnUse" id="B">
   <stop stop-opacity="0.451" stop-color="#fff" offset="0"/>
   <stop stop-opacity="0" stop-color="#fff" offset="1"/>
  </radialGradient>
  <radialGradient fy="0" fx="210251" r="819.2" cy="0" cx="0" spreadMethod="pad" gradientTransform="matrix(-0.0012700000079348683,-0.00004999999873689376,-0.00007999999797903001,0.002139999996870756,18.67499542236328,26.76249885559082)" gradientUnits="userSpaceOnUse" id="C">
   <stop stop-opacity="0.373" stop-color="#f9a27d" offset="0"/>
   <stop stop-opacity="0" stop-color="#fbc5a7" offset="1"/>
  </radialGradient>
  <radialGradient fy="0" fx="0" r="819.2" cy="0" cx="0" spreadMethod="pad" gradientTransform="matrix(0.014829999767243862,0,0,0.01964999921619892,13.125,11.0625)" gradientUnits="userSpaceOnUse" id="D">
   <stop stop-color="#ffecd9" offset="0.318"/>
   <stop stop-color="#fdd9bf" offset="0.98"/>
  </radialGradient>
  <radialGradient fy="0" fx="414" r="819.2" cy="0" cx="0" spreadMethod="pad" gradientTransform="matrix(0.014879999682307243,0,0,0.041200000792741776,24.775001525878906,11.3125)" gradientUnits="userSpaceOnUse" id="E">
   <stop stop-color="#fbc3a3" offset="0"/>
   <stop stop-color="#ffecd9" offset="0.918"/>
  </radialGradient>
  <linearGradient y2="0.427711" y1="0.427711" x2="1.559643" x1="-0.618467" id="F">
   <stop stop-color="#fbc3a3" offset="0"/>
   <stop stop-color="#ffecd9" offset="0.992"/>
  </linearGradient>
  <radialGradient fy="0" fx="0" r="819.2" cy="0" cx="0" spreadMethod="pad" gradientTransform="matrix(0.0215000007301569,0,0,0.023669999092817307,15.875,4.412500381469727)" gradientUnits="userSpaceOnUse" id="G">
   <stop stop-color="#fdd8bf" offset="0"/>
   <stop stop-color="#ffecd9" offset="1"/>
  </radialGradient>
 </defs>
 <g>
  <title>background</title>
  <rect fill="none" id="canvas_background" height="402" width="582" y="-1" x="-1"/>
 </g>
 <g>
  <title>Layer 1</title>
  <g id="svg_1">
   <path id="svg_2" fill="url(#a)" d="m0.824997,19.112501l0,-0.25l-0.049999,-0.25q0,-0.299999 0.149998,-0.5l0.299999,-0.150002l0.050003,0l0.399998,0.75l0.049999,0.150002l0,0.25q0,0.900002 0.700001,1.700001l-0.599998,-0.650002l-0.450001,-0.5q0.5,1.200001 1.099998,1.549999q0.150002,-0.199997 0.350002,-0.149998l-0.549999,-1.150002q-0.25,-0.599998 -0.050003,-0.649998l0.450001,0.199997q0.350002,0.200001 0.400002,0.850002l0,1l-0.650002,0.5l-0.449997,-0.450001l-0.75,-0.900002l0,0.050003l0.25,0.599998l0.25,0.450001l0.099998,0.049999l0.400002,0.549999l0.599998,0.200001l0.299999,-0.150002l0.5,0.200001l0.300003,0.25l0.099998,0.450001l-0.150002,0.299999l-0.099998,0.600002l-0.099998,0l-1.350002,-0.350002q-0.700001,-0.849998 -1.099998,-2.049999l-0.5,-1.549999q-1.150002,-2.900002 0,-3.650002q1.299999,-0.5 2.450001,0.400002l0.25,1.549999l-0.850002,-0.599998l-0.700001,-0.450001l-0.799999,-0.25l-0.5,0.450001l0,0.299999l0.049999,0.099998l-0.049999,0l0.200001,0.950001l0.049999,0.25"/>
   <path id="svg_3" fill="url(#b)" d="m3.924999,22.6625l-0.299999,-0.25l-0.5,-0.200001l-0.299999,0.150002l-0.600002,-0.200001l-0.399998,-0.549999l-0.100002,-0.049999l-0.25,-0.450001l-0.25,-0.600002l0,-0.049999l0.75,0.900002l0.450001,0.450001l0.650002,-0.5l0,-1q-0.050003,-0.650002 -0.400002,-0.850002l-0.450001,-0.200001q-0.200001,0.050003 0.049999,0.650002l0.550003,1.150002q-0.200001,-0.050003 -0.350002,0.149998q-0.599998,-0.349998 -1.099998,-1.549999l0.450001,0.5l0.599998,0.650002q-0.700001,-0.800003 -0.700001,-1.700001l0,-0.25l-0.049999,-0.150002l-0.400002,-0.75l-0.049999,0q0.299999,-0.5 0.650002,-0.649998l0.700001,0.449997l0.849998,0.600002l0.5,4.299999m0.299999,1.900002q-0.599998,0.149998 -1.549999,-0.5l-0.349998,-0.400002l1.349998,0.349998l0.099998,0l0.100002,-0.599998l0.149998,-0.299999l0.200001,1.450001m-3.399998,-5.700001l0,0.25l-0.050003,-0.25l0.050003,0"/>
   <path id="svg_4" fill="url(#c)" d="m1.224998,17.9625l-0.299999,0.150002q-0.150002,0.199997 -0.150002,0.5l0.049999,0.25l-0.049999,0l-0.200001,-0.950001l0.050003,0l-0.050003,-0.100002l0,-0.299999l0.5,-0.450001l0.800003,0.25q-0.350002,0.150002 -0.650002,0.650002"/>
   <path id="svg_5" stroke="#fd9e66" stroke-miterlimit="3" stroke-linejoin="round" stroke-linecap="round" stroke-width="0.05" fill="none" d="m3.424999,18.362501l-0.25,-1.549999q-1.150002,-0.900002 -2.450001,-0.400002q-1.149998,0.75 0,3.650002l0.5,1.549999q0.400002,1.200001 1.100002,2.049999l0.349998,0.400002q0.950001,0.649998 1.549999,0.5l-0.200001,-1.450001l-0.099998,-0.450001l-0.5,-4.299999z"/>
   <path id="svg_6" fill="url(#d)" d="m21.924995,23.2125l0.150002,0.299999l0.099998,0.600002l0.099998,0l1.349998,-0.350002l1.100006,-2.049999l0.5,-1.549999q1.149994,-2.900002 0,-3.650002q-1.300003,-0.5 -2.450005,0.400002l-0.25,1.549999l0.849998,-0.599998q0.350006,-0.300003 0.700005,-0.450001l0.799995,-0.25l0.5,0.450001l0,0.299999l-0.049995,0.099998l0.049995,0l-0.199997,0.950001l-0.050003,0.25l0,-0.25l0.050003,-0.25l-0.150002,-0.5l-0.299995,-0.150002l-0.050003,0l-0.400002,0.75l-0.049995,0.150002l0,0.25q0,0.900002 -0.700005,1.700001l0.599998,-0.650002l0.450005,-0.5q-0.5,1.200001 -1.099998,1.549999q-0.150002,-0.199997 -0.350006,-0.149998l0.550003,-1.150002l0.050003,-0.649998q-0.150002,-0.100002 -0.450005,0.199997q-0.349998,0.200001 -0.400002,0.850002l0,1q0.050003,0.200001 0.650002,0.5l0.450005,-0.450001l0.75,-0.900002l0,0.050003l-0.25,0.599998l-0.25,0.450001l-0.100006,0.049999l-0.399994,0.549999l-0.600006,0.200001l-0.299995,-0.150002l-0.5,0.200001l-0.300003,0.25l-0.099998,0.450001"/>
   <path id="svg_7" fill="url(#e)" d="m23.375,17.862501l-0.849998,0.599998l-0.5,4.300003l0.299995,-0.25l0.5,-0.200001l0.300003,0.149998l0.599998,-0.199997l0.400002,-0.550003l0.099998,-0.049999l0.25,-0.450001l0.25,-0.599998l0,-0.049999l-0.75,0.899998l-0.449997,0.450001q-0.599998,-0.299999 -0.650002,-0.5l0,-1q0.050003,-0.649998 0.400002,-0.849998q0.299995,-0.299999 0.449997,-0.200001l-0.049995,0.650002l-0.550003,1.149998q0.199997,-0.049999 0.349998,0.150002q0.599998,-0.350002 1.099998,-1.549999l-0.449997,0.5l-0.599998,0.649998q0.699997,-0.799999 0.699997,-1.700001l0,-0.25l0.050003,-0.149998l0.400002,-0.75l0.049995,0l-0.650002,-0.650002q-0.349998,0.150002 -0.699997,0.450001m1.799995,1.099998l-0.049995,0l0,0.25l0.049995,-0.25m-3.449997,5.700001q0.599998,0.150002 1.549995,-0.5l0.350006,-0.400002l-1.350006,0.350002l-0.099998,0l-0.099998,-0.600002l-0.150002,-0.299999l-0.199997,1.450001"/>
   <path id="svg_8" fill="url(#f)" d="m25.025002,18.2125l0.150002,0.5l-0.050003,0.25l0.050003,0l0.199997,-0.950001l-0.049995,0l0.049995,-0.099998l0,-0.299999l-0.5,-0.450001l-0.799995,0.25l0.649994,0.649998l0.300003,0.150002"/>
   <path id="svg_9" stroke="#fd9e66" stroke-miterlimit="3" stroke-linejoin="round" stroke-linecap="round" stroke-width="0.05" fill="none" d="m21.924995,23.2125l0.099998,-0.450001l0.5,-4.299999l0.25,-1.549999q1.150002,-0.900002 2.450005,-0.400002q1.149994,0.75 0,3.650002l-0.5,1.549999l-1.100006,2.049999l-0.349998,0.400002q-0.949997,0.649998 -1.549995,0.5l0.199997,-1.450001z"/>
   <path id="svg_10" fill="#ffecd9" d="m9.474998,27.862501l-0.349998,-0.25l-0.050003,-0.099998l0.099998,-0.550003l0.400002,-0.349998l-0.849998,0.099998q-0.349998,-0.649998 -0.400002,-1.349998l0.150002,-0.099998l0.949997,-1.450001l-0.649994,0l0.399994,-0.5l0.050003,-0.049999l0.050003,0l0.649994,0.349998l0.150002,0.599998l-0.5,3.200001l-0.049995,0.5l-0.050003,-0.049999"/>
   <path id="svg_11" fill="#feead6" d="m16.074997,30.112501l-1.199997,0.75l-1.450005,0.349998l-0.099998,0l-1.300003,-0.099998l-0.649994,-0.150002l-0.050003,-0.099998q-0.199997,-0.200001 0,-0.75l1.150002,0l0.949997,-0.049999l1.5,-0.049999l1.150002,0.099998"/>
   <path id="svg_12" fill="url(#g)" d="m20.474998,5.9125l0.300003,0.299999l-0.800003,3.25q-0.900002,3.450001 -1.349998,3.700001l1,0.400002l1.25,0.699997l0.299995,0.300003l0.150002,0.149998l0.25,0.950001l0.099998,0.25l-0.049995,0.150002l0,0.149998l-0.050003,0.350002l-0.099998,0.399998l0,0.150002l0.099998,-0.549999l0.099998,-0.350002l0.050003,-0.149998l0.099998,-0.100002l0,0.900002q-0.199997,1.549999 -0.099998,1.849998l-0.75,2.350002l-1,1.150002l-0.650002,0.299999l-0.650002,0.299999l-1,0.049999l0,0.050003l0.050003,0.149998l-0.150002,-0.099998l-0.400002,-0.100002l-0.199997,-0.099998l0,0.349998l0.349998,0.700001l0.550003,0.700001l0.849998,0.699997l-0.599998,0.150002l-1.25,0.150002l-0.099998,0.549999l0,0.100002l-1.150002,1.149998l-1.599998,0.950001l0.5,0.149998l-1.200005,0.200001l-0.349998,0l-3.25,-0.599998l-0.199997,-0.100002l0.049995,-0.5l0.5,-3.200001l-0.150002,-0.599998l-0.649994,-0.349998l-0.050003,0l1.25,-1.800003l-1.75,0.950001l-0.400002,-0.349998l-0.449997,-0.049999l-0.800003,-0.300003l-0.349998,-0.25l-1.25,-1.349998l-0.049999,0.049999l0,-0.149998q3.799999,4.049999 -0.100002,-1.100002l-0.25,-3.099998l-0.399998,-1.850002l-0.100002,-0.5l-0.199997,-0.049999l-0.150002,-0.049999l0.150002,-1.35q0,-2.15 -0.700001,-4.199999l0.099998,-1q0.450001,-1.049999 1.150002,-1.799999l0.450001,-0.450001q1.399998,-1.4 3.549995,-2l2.75,-0.5l0.150002,-0.1l1.050003,0l0.549995,0.1q3.300003,0.200001 5.350006,1.550001l1.149994,0.9q-0.299995,0.449999 0.550003,1.4"/>
   <path id="svg_13" fill="url(#h)" d="m20.724998,27.362501l-0.949997,1l0.75,-1.799999l0.599998,-1.850002l0.199997,-1.049999q-0.150002,0.049999 0.150002,-0.700001l0.550003,-1.299999l-0.450005,0.700001l-0.099998,0l0,-0.150002l0.400002,-0.75l0.099998,-0.449997l0.25,-2.100002l-0.150002,-1.200001l0.050003,-0.049999l-0.300003,-0.899998l0,-0.800003l-0.099998,0.100002l-0.050003,0.149998l-0.049995,-0.149998l0.049995,-0.150002l-0.099998,-0.25l-0.25,-0.950001l-0.150002,-0.849998l-0.099998,-1.299999l-0.049995,-0.85l-0.050003,-2.4l0,-2.950001l-0.199997,-0.15l-0.300003,-0.299999q-0.849998,-0.950001 -0.550003,-1.400002l0.950005,1l0.449997,0.700001l0.700005,1.200001l0.75,3.15l0.049995,0.35l0.050003,0.349998l0,0.1l0.25,1.75l-0.050003,2.599998l-0.099998,1.050003l-0.300003,2.899998l-0.049995,0.299999l-0.200005,1.450001l-0.599998,3.75l-0.699997,1.850002l-0.400002,0.349998m1.300003,-9.25l-0.050003,0.450001l0.050003,-0.549999l0,0.099998"/>
   <path id="svg_14" fill="url(#i)" d="m10.375,32.362503l-0.050003,-0.050003l-0.5,-0.299995l-0.399994,-0.300005l-0.200005,-0.149998l-0.5,-0.450001q-2.099998,-1.349998 -3.249996,-2.849998l-0.150002,-0.150002q-1.549999,-1.900002 -1.799999,-6.700001l-0.049999,-0.549999l-0.300003,-2.650002l0.25,-1.149998l0.400002,-1.700001l0.099998,0.950001q0.300003,2.75 0.650002,4l0.399998,1.099998l0.200001,0.75l0.099998,0.200001l0.100002,0.25l0.199997,1.450001l0,0.099998l0.050003,0.700001q0.199997,3.849998 3.150002,4.5l0.399994,0.950001l0.75,1.399998l0.5,0.650003l-0.049995,0m-6.850002,-24.950003l0.25,-0.6l-0.099998,1l-0.150002,-0.4"/>
   <path id="svg_15" fill="url(#j)" d="m7.775002,22.812502l-1,0.299999l-1.049999,-0.349998l-0.450001,-0.400002l-0.099998,-0.199997l-0.200005,-0.750004l-0.400002,-1.099998q-0.349998,-1.25 -0.649998,-4l-0.100002,-0.950001l0.400002,-2l0.150002,0.049999l0.199997,0.049999l0.100002,0.5l0.399998,1.850002l0.25,3.099998q3.900002,5.150002 0.100002,1.099998l0,0.150002l0.049999,-0.049999l1.25,1.349998l0.349998,0.25l0.800003,0.299999l0.449997,0.050003l0.400002,0.349998l-0.949997,0.400002"/>
   <path id="svg_16" fill="url(#k)" d="m18.724998,25.2125l-0.849998,-0.700001l-0.550003,-0.700001l-0.349998,-0.699997l0,-0.350002l0.199997,0.100002l0.400002,0.099998l0.150002,0.099998l-0.050003,-0.149998l0,-0.049999l1,-0.050003l0.650002,-0.299999l0.650002,-0.299999l1,-1.150002l0.75,-2.349998q-0.099998,-0.299999 0.099998,-1.849998l0,-0.100002l0.300003,0.900002l-0.050003,0.049999l0.150002,1.200001l-0.25,2.099998l-0.099998,0.450001l-0.400002,0.75l0,0.150002l-0.599998,0.799999l-1.25,1.349998l-0.450005,0.100002l-0.549995,0l-0.25,-0.150002l0.699997,0.849998l-0.349998,-0.099998m2.949997,-9l-0.099998,0.349998l-0.099998,0.550003l0,-0.150002l0.099998,-0.400002l0.050003,-0.349998l0,-0.150002l0.049995,0.150002m0.350006,1.799999l-0.050003,0.549999l0.050003,-0.449997l0,-0.100002"/>
   <path id="svg_17" fill="url(#l)" d="m21.324997,14.7125l-0.150002,-0.150002l-0.299995,-0.299999l-1.25,-0.700001l-1,-0.399998q0.449997,-0.25 1.349998,-3.700001l0.799995,-3.25l0.200005,0.15l0,2.950001l0.049995,2.4l0.050003,0.849998l0.099998,1.300003l0.150002,0.849998"/>
   <path id="svg_18" fill="url(#m)" d="m5.724998,22.762499l1.049999,0.349998l1.000004,-0.299999l0.949997,-0.400002l1.75,-0.949997l-1.25,1.799999l-0.050003,0.049999l-0.399994,0.5l-0.5,0q-1.700005,-0.25 -2.550003,-1.049999"/>
   <path id="svg_19" fill="url(#n)" d="m8.275002,23.812502l1.150002,0l-0.950005,1.450001l-0.149994,0.099998q0.049995,0.700001 0.399994,1.350002l-1.099998,0l-0.799999,-1.350002l-0.099998,0.950001q-0.75,-0.450001 -1.100002,-1.450001l-0.049999,-0.699997l0,-0.100002l-0.200001,-1.450001l-0.099998,-0.25l0.450001,0.400002q0.849998,0.799999 2.549999,1.049999"/>
   <path id="svg_20" fill="url(#o)" d="m13.424995,30.062502l-0.949997,0.049999l-1.150002,0l-1.25,1.600002l0,0.049999l-0.150002,-0.049999l-0.75,-1.400002l-0.400002,-0.950001q-2.949997,-0.649998 -3.149998,-4.5q0.349998,1 1.099998,1.450001l0.100002,-0.950001l0.799995,1.350002l1.100006,0l0.849998,-0.100002l-0.400002,0.350002l-0.099998,0.549999l0.049995,0.099998l0.350006,0.25l0.049995,0.050003l0.200005,0.099998l3.25,0.599998l0.299995,0l0.150002,1.450001"/>
   <path id="svg_21" fill="url(#p)" d="m14.924995,30.012499l-1.5,0.049999l-0.150002,-1.450001l0.050003,0l1.199997,-0.200001l-0.5,-0.149998l1.599998,-0.950001l1.150002,-1.150002l0,-0.099998l0.099998,-0.549999l1.25,-0.150002l0.600006,-0.149998l0.349998,0.099998l0.449997,0.299999l0,0.299999q0,1.25 -0.599998,2.450005l-0.199997,0.299999l-1.150002,1.849998l-0.200005,0.350002l0,0.099998l-0.099998,0.049999q-0.5,0.200001 -0.799995,0.450001l-0.150002,0.099998l0,-0.25l-0.099998,-0.899998l-0.100006,-0.299999l-0.049995,-0.050003l0,0.050003l-1.150002,-0.100002"/>
   <path id="svg_22" fill="url(#q)" d="m19.224998,28.9125l-1.849998,1.950001l0.199997,-0.350002l1.150002,-1.849998l0.199997,-0.299999q0.600006,-1.200001 0.600006,-2.450001l0,-0.299999l-0.450005,-0.299999l-0.699997,-0.850002l0.25,0.150002l0.549995,0l0.450005,-0.100002l1.25,-1.349998l0.599998,-0.799999l0.099998,0l0.450005,-0.700001l-0.550003,1.299999q-0.300003,0.75 -0.150002,0.700001l-0.199997,1.049999l-0.599998,1.850002l-0.75,1.799999l-0.550003,0.549999"/>
   <path id="svg_23" fill="url(#r)" d="m13.875,32.8125q0.800003,-0.349998 1.349998,-0.449997l0.550003,-0.349998l0.549995,-0.450003l0.150002,-0.099998q0.300003,-0.25 0.800003,-0.450001l0.099998,-0.049999l0,-0.100002l1.849998,-1.949997l0.550003,-0.550003l0.949997,-1l0.400002,-0.349998l-0.849998,1.349998l-0.700005,1l-0.049995,0.100002l-0.050003,0.099998l-0.699997,0.700001l-1.5,1.149998l-0.400002,0.349998l-0.650002,0.450003l-0.549995,0.299995l-1.25,0.5l-1,0.100006l-0.5,0l0.949997,-0.300003m5.5,-3.249998l-0.150002,0l0,0.049999l0.150002,-0.049999"/>
   <path id="svg_24" fill="url(#s)" d="m13.375,32.762497l-1.800003,-0.349998l-0.75,-0.349998l-0.75,-0.300001l0,-0.049999l1.25,-1.599998q-0.199997,0.549999 0,0.75l0.050003,0.099998l0.649994,0.150002l1.300003,0.099998l0.099998,0l1.450005,-0.349998l1.199997,-0.75l0,-0.049999l0.050003,0.049999l0.099998,0.299999l0.099998,0.900002l0,0.25l-0.550003,0.449995l-0.549995,0.350006q-0.550003,0.099998 -1.349998,0.449997l-0.5,-0.050003"/>
   <path id="svg_25" fill="url(#t)" d="m10.424995,32.362503l-0.5,-0.650003l0.150002,0.050003l0.75,0.299997l0.75,0.349998l1.799995,0.350006l0.5,0.049995l-0.949997,0.300003l-0.050003,0l-0.899994,-0.099998l-0.75,-0.300003l-0.700005,-0.300003l-0.150002,-0.049995l0.050003,0"/>
   <path id="svg_26" fill="url(#u)" d="m3.824997,15.362501l-0.400002,1.700001l-0.25,1.149998l-0.099998,-0.899998l-0.400002,-2.75l-0.049999,-0.75l0,-1.299999l0.049999,-1.300001q0.150002,-2.15 0.850002,-3.799999l0.149998,0.4q0.700001,2.049999 0.700001,4.199999l-0.150002,1.35l-0.399998,2"/>
   <path id="svg_27" stroke="#fd9e66" stroke-miterlimit="3" stroke-linejoin="round" stroke-linecap="round" stroke-width="0.05" fill="none" d="m10.324997,32.3125l-0.5,-0.299995l-0.400002,-0.300001l-0.199997,-0.150002l-0.5,-0.450001q-2.100002,-1.349998 -3.250004,-2.849998l-0.149998,-0.150002q-1.549999,-1.899998 -1.799999,-6.699997l-0.049999,-0.550003l-0.300003,-2.649998l-0.099998,-0.900002l-0.400002,-2.75l-0.049999,-0.75l0,-1.299999l0.049999,-1.300001q0.150002,-2.15 0.850002,-3.799999l0.25,-0.6q0.449997,-1.049999 1.149998,-1.799999l0.450001,-0.450001q1.400002,-1.4 3.549999,-2l2.75,-0.5l0.150002,-0.1l1.050003,0l0.549995,0.1q3.300003,0.200001 5.349998,1.550001l1.150002,0.9l0.950005,1l0.449997,0.699999l0.699997,1.200001l0.75,3.15l0.050003,0.35m0.050003,0.450001l0.25,1.749998l-0.050003,2.600002l-0.099998,1.049999l-0.300003,2.900002l-0.049995,0.299999l-0.200005,1.450001l-0.599998,3.75l-0.699997,1.849998l-0.850006,1.349998l-0.699997,1l-0.050003,0.100002l-0.049995,0.099998l-0.700005,0.700001l-1.499992,1.149998l-0.400002,0.349998l-0.650002,0.450003l-0.549995,0.299995l-1.25,0.5l-1,0.100006l-0.550003,0l-0.900002,-0.100006l-0.75,-0.299995l-0.699997,-0.300003l-0.150002,-0.049995"/>
   <path id="svg_28" fill="url(#v)" d="m7.674995,26.062502l0.150002,2.400002l-0.150002,0l-0.199997,-0.549999l-0.500004,-0.800003l0.149998,-0.849998l0.550003,-0.200001"/>
   <path id="svg_29" fill="url(#w)" d="m15.324997,15.9125l-0.199997,1.5l-0.050003,0.150002l-1.800003,-0.600002q-0.299995,0 -0.649994,0.299999l-0.450005,0.400002l-0.150002,-0.5l-0.25,-1.450001l0.950005,0.25l1.650002,-0.149998l0.949997,0.099998"/>
   <path id="svg_30" fill-opacity="0.173" fill="#fff" d="m12.224998,15.312502l1.900002,0.25l-0.050003,0.350002l-1.799995,0.149998l0.099998,-0.349998l-0.150002,-0.400002"/>
   <path id="svg_31" fill="url(#x)" d="m14.375,32.112503l-2.25,0.099998l-0.849998,-0.050003q-0.349998,-0.099998 -0.349998,-0.649996l0.25,-0.75l0.349998,-0.650002l2.199997,-0.349998l1.200005,0.049999l0,0.099998l0.75,1.549999q0.149994,0.550005 -1.300003,0.650003"/>
   <path id="svg_32" fill="url(#y)" d="m11.074997,19.862501l-0.099998,1.099998q-0.050003,1.050003 -0.650002,1.650002l-1.099998,1.25q-1.099998,1.049999 -1.950005,1.049999q-0.499996,0 -0.849998,-0.549999l-0.25,-1.049999q0,-1.650002 0.75,-1.650002l0.800003,0.150002q0.900002,0 2.049995,-0.700001l1.300003,-1.25"/>
   <path id="svg_33" fill="url(#z)" d="m20.574997,20.762499q1.300003,-0.75 0.900002,0.899998q-0.349998,1.550003 -1.5,2.800003l-1.450005,1.099998q-0.299995,0 -0.899994,-0.799999l-0.75,-1.049999l-1.650002,-2.049999l0.199997,-0.950001l0.099998,-0.299999l0.800003,0.699997q0.699997,0.450001 1.5,0.450001l1.300003,-0.25l1.449997,-0.549999"/>
   <path id="svg_34" fill="url(#A)" d="m14.125,15.562502q0.199997,-0.399998 0.75,-0.5l1.949997,-0.349998l1.600006,0.299999q-0.700005,0.150002 -2.300003,0.799999l-1.550003,0.600002l-0.149994,0l-0.350006,-0.5l0.050003,-0.350002"/>
   <path id="svg_35" fill="url(#B)" d="m12.375,15.7125l-0.099998,0.349998l-0.099998,0.050003l-0.5,0.099998l-1.25,-0.299999l-1,-0.350002l-0.350006,-0.149998l-1,-0.75l2.450005,0l1.049995,0.299999q0.400002,0.099998 0.650002,0.349998l0.150002,0.400002"/>
   <path id="svg_36" fill="url(#C)" d="m19.275002,26.2125l0.150002,0.849998l-0.5,0.800003l-0.200005,0.549999l-0.149994,0l0.149994,-2.400002l0.550003,0.200001"/>
   <path id="svg_37" fill="url(#D)" d="m2.174999,17.612501l0,0.049999l0,-0.049999m0.099998,0.200001l0.25,0.399998l0.5,1.650002l-0.75,-2.049999"/>
   <path id="svg_38" fill="url(#E)" d="m21.375,7.4625q0.5,-1.15 0.75,-1.550001l0.800003,-1.099998l0.199997,0.25q1.550003,1.849998 1.849998,3.199999l0.450005,2.050001l0.099998,1l-0.200005,2.449999l-0.599998,2.350002l-0.150002,0.799999l-0.799995,2.200001l-1.599998,3.849998l0.199997,-1.950001l0.199997,-1.099998l0.100006,-0.650002q0.399994,-3.700001 -0.200005,-9.449999q0.099998,-0.6 -0.5,-0.900002l-0.599998,-0.299999l-0.349998,-0.15l0.349998,-1"/>
   <path id="svg_39" fill="url(#F)" d="m4.324997,9.5625l-0.75,0.75l-0.700001,0.950001l-0.200001,0.25l0.100002,1.300001q0.299999,4.449997 0.899998,9.75l-0.049999,0l-2.249996,-6.550003l-0.25,-0.799999l-0.150002,-0.799999l-0.049999,-1.599998l0,-0.650002q0.049999,-1.25 0.25,-2.4q0.299999,-1.300001 0.849998,-2.450001l0.450001,-0.85l0.299999,-0.5l0.549999,1.200001l1,2.4m-2.149998,8.1l0,-0.049999l0,0.049999m0.849998,2.200001l-0.5,-1.650002l-0.25,-0.399998l0.75,2.049999"/>
   <path id="svg_40" fill="url(#G)" d="m3.324997,7.1625l-0.549999,-1.200001q0.649998,-1.199999 1.700001,-2.199999q3.599998,-3.800001 8.75,-3.700001q5.099998,-0.1 8.75,3.700001l0.949997,1.049999l-0.799995,1.1q-0.25,0.4 -0.75,1.549999l-0.350006,1l-1.849998,-0.349998q-3.25,-0.35 -5.549995,2.4q-2.350006,-2.75 -5.550003,-2.4q-2.25,0.15 -3.75,1.449999l-1,-2.4"/>
   <path id="svg_41" stroke="#fd9e66" stroke-miterlimit="3" stroke-linejoin="round" stroke-linecap="round" stroke-width="0.05" fill="none" d="m3.674999,22.562502l-0.049999,0l-2.25,-6.550003l-0.25,-0.799999l-0.150002,-0.799999l-0.049999,-1.599998l0,-0.650002q0.049999,-1.25 0.25,-2.4q0.299999,-1.300001 0.849998,-2.450001l0.450001,-0.85l0.299999,-0.5q0.650002,-1.199999 1.700001,-2.199999q3.599998,-3.800001 8.75,-3.700001q5.099998,-0.1 8.75,3.700001l0.949997,1.049999l0.200005,0.25q1.549995,1.85 1.849998,3.200001l0.449997,2.049999l0.100006,1l-0.200005,2.449999l-0.599998,2.350002l-0.150002,0.799999l-0.799995,2.200001l-1.600006,3.849998m-19.999996,-5.299999l0,-0.049999"/>
  </g>
 </g>
</svg>