<svg width="25" height="32" xmlns="http://www.w3.org/2000/svg"><defs><radialGradient fy="0" fx="0" r="819.2" cy="0" cx="0" spreadMethod="pad" gradientTransform="matrix(-.00325 0 0 .00606 3.437 17.1)" gradientUnits="userSpaceOnUse" id="a"><stop stop-color="#f7bb97" offset=".024"/><stop stop-color="#f7d2bb" offset="1"/></radialGradient><radialGradient fy="0" fx="0" r="819.2" cy="0" cx="0" spreadMethod="pad" gradientTransform="matrix(-.00453 0 0 .00603 2.287 17.7)" gradientUnits="userSpaceOnUse" id="b"><stop stop-color="#d7914a" offset="0"/><stop stop-color="#f5c9ab" offset=".62"/></radialGradient><radialGradient fy="0" fx="0" r="819.2" cy="0" cx="0" spreadMethod="pad" gradientTransform="matrix(.00325 0 0 .00606 21.538 17.1)" gradientUnits="userSpaceOnUse" id="c"><stop stop-color="#f7bb97" offset=".024"/><stop stop-color="#f7d2bb" offset="1"/></radialGradient><radialGradient fy="0" fx="0" r="819.2" cy="0" cx="0" spreadMethod="pad" gradientTransform="matrix(.00453 0 0 .00603 22.688 17.7)" gradientUnits="userSpaceOnUse" id="d"><stop stop-color="#d7914a" offset="0"/><stop stop-color="#f5c9ab" offset=".62"/></radialGradient><radialGradient fy="0" fx="0" r="819.2" cy="0" cx="0" spreadMethod="pad" gradientTransform="matrix(.01558 0 0 .02606 12.238 14.95)" gradientUnits="userSpaceOnUse" id="e"><stop stop-color="#ffecd9" offset=".541"/><stop stop-color="#fba784" offset="1"/></radialGradient><radialGradient fy="0" fx="0" r="819.2" cy="0" cx="0" spreadMethod="pad" gradientTransform="matrix(.01575 0 0 .02434 12.137 17.1)" gradientUnits="userSpaceOnUse" id="f"><stop stop-color="#ffecd9" offset=".408"/><stop stop-color="#fba784" offset="1"/></radialGradient><radialGradient fy="0" fx="0" r="819.2" cy="0" cx="0" spreadMethod="pad" gradientTransform="matrix(.01776 0 0 .02423 12.238 20.25)" gradientUnits="userSpaceOnUse" id="g"><stop stop-color="#ffecd9" offset=".384"/><stop stop-color="#fba784" offset="1"/></radialGradient><radialGradient fy="0" fx="0" r="819.2" cy="0" cx="0" spreadMethod="pad" gradientTransform="matrix(-.00467 .00247 .00287 .00577 6.137 21.45)" gradientUnits="userSpaceOnUse" id="h"><stop stop-opacity=".522" stop-color="#ffa8a8" offset=".067"/><stop stop-opacity=".29" stop-color="#ffd0c9" offset=".631"/><stop stop-opacity="0" stop-color="#ffefe8" offset="1"/></radialGradient><radialGradient fy="0" fx="0" r="819.2" cy="0" cx="0" spreadMethod="pad" gradientTransform="matrix(.00467 .00247 -.00287 .00577 18.987 21.45)" gradientUnits="userSpaceOnUse" id="i"><stop stop-opacity=".522" stop-color="#ffa8a8" offset=".067"/><stop stop-opacity=".29" stop-color="#ffd0c9" offset=".631"/><stop stop-opacity="0" stop-color="#ffefe8" offset="1"/></radialGradient><radialGradient fy="0" fx="0" r="819.2" cy="0" cx="0" spreadMethod="pad" gradientTransform="matrix(.01161 0 0 .01125 19.288 3.45)" gradientUnits="userSpaceOnUse" id="j"><stop stop-opacity=".161" stop-color="#fff" offset="0"/><stop stop-opacity="0" stop-color="#fff" offset="1"/></radialGradient><radialGradient fy="0" fx="0" r="819.2" cy="0" cx="0" spreadMethod="pad" gradientTransform="matrix(.00961 0 0 .00932 18.837 7.3)" gradientUnits="userSpaceOnUse" id="k"><stop stop-opacity=".643" stop-color="#fff" offset="0"/><stop stop-opacity="0" stop-color="#fff" offset="1"/></radialGradient><radialGradient fy="0" fx="0" r="819.2" cy="0" cx="0" spreadMethod="pad" gradientTransform="matrix(.00996 0 0 .00966 5.387 7.7)" gradientUnits="userSpaceOnUse" id="l"><stop stop-opacity=".502" stop-color="#fff" offset="0"/><stop stop-opacity="0" stop-color="#fff" offset="1"/></radialGradient><radialGradient fy="0" fx="0" r="819.2" cy="0" cx="0" spreadMethod="pad" gradientTransform="matrix(.01114 0 0 .01079 12.088 3.55)" gradientUnits="userSpaceOnUse" id="m"><stop stop-opacity=".502" stop-color="#fff" offset="0"/><stop stop-opacity="0" stop-color="#fff" offset="1"/></radialGradient></defs><path fill="none" d="M-1-1h582v402H-1z"/><g><path fill="#f9e1d2" d="M.987 19.05L.937 19v-.05l-.1-.35.15-.25.2-.25q-.25.5.85 1.7v.05l.05.05-.85-.55-.25-.3m1.75 2.4l-.6-.1-.15-.45.15-.5.25-.15.6.5q.3.15.3.35l-.3.3-.25.05"/><path fill="url(#a)" d="M1.237 19.35l.85.55-.05-.05v-.05q-1.1-1.2-.85-1.7l-.2.25-.15.25.1.35-.15-.3v-.75l.15-1.1.25-.75.25.5.15.4-.1.6-.15.7.45 1.15.8.7V20l-.1-.4-.1-.7.05-.3.1-.25-.45-.55-.05-.35-.15-.5q-.2-.6-.55-1.1l-.45-.65-.15.15-.05.25.1.45.05.45-.1.6-.1.95.25 1.1.8 1.3.1-.3.05-.1-.25-.3-.55-.6-.05-.1.25.3m1.4-4.15l.05.1.15.45 1.05 5.55-.6.4-1.1.05-.5-.35-.15-.3-.2-.3q-.85-1.3-.9-2.15l.05-1.3.1-.75-.1-.8.05-.85.4-.4.55-.05.7.3.45.4m.35 6.2l.3-.3q0-.2-.3-.35l-.6-.5-.25.15-.15.5.15.45.6.1.25-.05"/><path fill="url(#b)" d="M.937 19l.05.05.05.1.55.6.25.3-.05.1-.1.3-.8-1.3-.25-1.1.1-.95.1-.6-.05-.45-.1-.45.05-.25.15-.15.45.65q.35.5.55 1.1l.15.5.05.35.45.55-.1.25-.05.3.1.7.1.4v.1l-.8-.7-.45-1.15.15-.7.1-.6-.15-.4-.25-.5-.25.75-.15 1.1v.75l.15.3V19"/><path stroke="#fd9e66" stroke-miterlimit="3" stroke-linejoin="round" stroke-linecap="round" stroke-width=".05" fill="none" d="M3.887 21.3l-.6.4-1.1.05-.5-.35-.15-.3-.2-.3q-.85-1.3-.9-2.15l.05-1.3.1-.75-.1-.8.05-.85.4-.4.55-.05.7.3.45.4"/><path fill="url(#c)" d="M24.138 18.6l-.15-.25-.2-.25q.25.5-.85 1.7v.05l-.05.05.85-.55.25-.3-.05.1-.55.6-.25.3.05.1.1.3.8-1.3.25-1.1-.1-.95-.1-.6.05-.45.1-.45-.05-.25-.15-.15-.45.65q-.35.5-.55 1.1l-.15.5-.05.35-.45.55.1.25.05.3-.1.7-.1.4v.1l.8-.7.45-1.15-.15-.7-.1-.6.15-.4.25-.5.25.75.15 1.1v.75l-.15.3.1-.35m-1.35-3.8l.7-.3.55.05.4.4.05.85-.1.8.1.75.05 1.3q-.05.85-.9 2.15l-.2.3-.15.3-.5.35-1.1-.05-.6-.4 1.05-5.55.15-.45.05-.1.45-.4m.05 5.6l-.25-.15-.6.5q-.3.15-.3.35l.3.3.25.05.6-.1.15-.45-.15-.5"/><path fill="url(#d)" d="M24.038 19v-.05l.15-.3v-.75l-.15-1.1-.25-.75-.25.5-.15.4.1.6.15.7-.45 1.15-.8.7V20l.1-.4.1-.7-.05-.3-.1-.25.45-.55.05-.35.15-.5q.2-.6.55-1.1l.45-.65.15.15.05.25-.1.45-.05.45.1.6.1.95-.25 1.1-.8 1.3-.1-.3-.05-.1.25-.3.55-.6.05-.1.05-.05"/><path fill="#f9e1d2" d="M23.987 19.05l-.25.3-.85.55.05-.05v-.05q1.1-1.2.85-1.7l.2.25.15.25-.1.35V19l-.05.05m-1 1.85l-.15.45-.6.1-.25-.05-.3-.3q0-.2.3-.35l.6-.5.25.15.15.5"/><path stroke="#fd9e66" stroke-miterlimit="3" stroke-linejoin="round" stroke-linecap="round" stroke-width=".05" fill="none" d="M21.088 21.3l.6.4 1.1.05.5-.35.15-.3.2-.3q.85-1.3.9-2.15l-.05-1.3-.1-.75.1-.8-.05-.85-.4-.4-.55-.05-.7.3-.45.4"/><path fill="#ffecd9" d="M18.288 22.8q-.45.65-.6 2.1-.1 1.5-1.1 3.05l-1.85 2.15q-1.1.9-2.3.8-1.15 0-2.15-.8l-1.85-2.15q-.95-1.55-1.1-3.05-.1-1.45-.6-2.1l-1.6-1.55-.05-1.15q-.05-1.45.85-3.35l1.05-2.15q.45-1.15.5-2.3l.4-5.2-.4.05.5-2.9.4-.6.4-.3V3.3l.1-.05h.05l4.45-.65 1.1.15.45.3.45.4.9.85.45.55.35 2.25h.1l.35 5.2q.05 1.15.55 2.3l1 2.15q.95 1.9.9 3.35l-.05 1.15-1.65 1.55"/><path fill="url(#e)" d="M5.187 22.3l-1.2-5.2-1.1-5.15-.25-1 .05-.1-.6-3.45.8-1.7q.7-1.35 1.8-2.4 1.75-1.85 3.9-2.65l3.85-.65 2.4.25 1.25.35.8.35q1.75.8 3.25 2.35 2.15 2.2 2.9 5.05l-.75 3.85-.05-.4-1.2 5.3-1.15 5.2.05-1.05.05-1.15q.05-1.45-.9-3.35l-1-2.15q-.5-1.15-.55-2.3l-.35-5.2h-.1l-.35-2.25-.45-.55-.9-.85-.45-.4-.45-.3-1.1-.15-4.45.65h-.05l-.1.05v.05l-.4.3-.4.6-.5 2.9.4-.05-.4 5.2q-.05 1.15-.5 2.3l-1.05 2.15q-.9 1.9-.85 3.35l.05 1.15.05 1.05"/><path fill="url(#f)" d="M17.688 26.65l1.1-1.5.75-1.8.35-1.05 1.15-5.2 1.2-5.3.05.4.75-3.85q.35 1.4.35 2.95l-.8 3.85-.05-.1-.6 2.85-1.25 5.25-1.05 2.65q-.6 1.15-2.75 2.95l-1.2 1.05q1.25-2.25 2-3.15m-12.2-3.3l.75 1.8 1.15 1.5 2.2 3.45-1.6-1.35q-2.15-1.8-2.75-2.95l-1.05-2.65-1.25-5.25-.4-1.9-.05.1q-.7-1.55-.95-3.4l-.05-1.4v-.6l.25-2.1.35-1.2.6 3.45-.05.1.25 1 1.1 5.15 1.2 5.2.3 1.05"/><path fill="url(#g)" d="M5.187 22.3l-.05-1.05 1.6 1.55q.5.65.6 2.1.15 1.5 1.1 3.05l1.85 2.15q1 .8 2.15.8 1.2.1 2.3-.8l1.85-2.15q1-1.55 1.1-3.05.15-1.45.6-2.1l1.65-1.55-.05 1.05-.35 1.05-.75 1.8-1.1 1.5q-.75.9-2 3.15l-1.45 1.1-1 .4-.75.1h-.1l-.75-.1-1-.4-1.05-.8-2.2-3.45-1.15-1.5-.75-1.8-.3-1.05"/><path stroke="#fd9e66" stroke-miterlimit="3" stroke-linejoin="round" stroke-linecap="round" stroke-width=".05" fill="none" d="M23.038 8.35q-.75-2.85-2.9-5.05-1.5-1.55-3.25-2.35l-.8-.35-1.25-.35-2.4-.25-3.85.65q-2.15.8-3.9 2.65-1.1 1.05-1.8 2.4l-.8 1.7m20.45 7.65l-.6 2.85-1.25 5.25-1.05 2.65q-.6 1.15-2.75 2.95l-1.2 1.05-1.45 1.1-1 .4-.75.1h-.1l-.75-.1-1-.4-1.05-.8-1.6-1.35q-2.15-1.8-2.75-2.95l-1.05-2.65-1.25-5.25-.4-1.9m-.05.1q-.7-1.55-.95-3.4l-.05-1.4v-.6l.25-2.1.35-1.2m20.95.95q.35 1.4.35 2.95l-.8 3.85"/><path fill="url(#h)" d="M10.338 19.3q.9 1.95.55 3.9-.45 1.9-2.05 2.75-1.55.8-3.25.05l-.35-.15v-.05l-1.05-2.65-1.25-5.25v-.1q.5-.75 1.3-1.15l3.35-.1q1.8.85 2.75 2.75"/><path fill="url(#i)" d="M22.038 17.55l-.1.35-1.25 5.25-1.05 2.65-.1.2q-1.7.75-3.25-.05-1.6-.85-2.05-2.75-.35-1.95.55-3.9.95-1.9 2.75-2.75l3.35.1 1.15.9"/><path fill="url(#j)" d="M12.887 8.95q-.65-1.85-.55-2.9l-.05-2.25q0-2.2.9-3.55l.1.05q5.85 1.6 6.8 2.65 2.1 2.4 2.1 4.7 0 3.7-6.35 3.7l-1.75-.25q-.65-.45-1.2-2.15"/><path fill="url(#k)" d="M22.388 13.75l.25-2.05q0-3.25-1.8-6.25-2.25-3.8-6.15-4.65h.45q3.6.55 5.85 3.65 1.95 2.65 1.95 5.4l-.5 3.9h-.05"/><path fill="url(#l)" d="M8.888.7q-3 1.75-4.85 4.9-1.8 3-1.8 5.8 0 1.8.55 3.05v.25h-.05q-.85-2.8-.85-5.1l.15-1.4q0-1.1 2.2-4.05 1.55-2.4 4.6-3.45h.05"/><path fill="url(#m)" d="M19.138 2.45l1.95 2.35q-.5 2.25-2.6 3.95-2.65 2.1-6.4 2.1-3.75 0-6.45-2.1-2.35-1.95-2.55-4.6l1.1-.8 2.6-1.7q1.65-.95 3.35-1.4l2.3-.25 1.95.1 1.35.45 1.35.6 2.05 1.3"/></g></svg>