<svg width="25" height="32" xmlns="http://www.w3.org/2000/svg">
 <defs>
  <radialGradient fy="0" fx="0" r="819.2" cy="0" cx="0" spreadMethod="pad" gradientTransform="matrix(-0.0032500000670552254,0,0,0.006060000043362379,3.4374983310699463,17.100000381469727)" gradientUnits="userSpaceOnUse" id="a">
   <stop stop-color="#f7bb97" offset="0.024"/>
   <stop stop-color="#f7d2bb" offset="1"/>
  </radialGradient>
  <radialGradient fy="0" fx="0" r="819.2" cy="0" cx="0" spreadMethod="pad" gradientTransform="matrix(-0.004530000034719706,0,0,0.006029999814927578,2.2874984741210938,17.69999885559082)" gradientUnits="userSpaceOnUse" id="b">
   <stop stop-color="#d7914a" offset="0"/>
   <stop stop-color="#f5c9ab" offset="0.62"/>
  </radialGradient>
  <radialGradient fy="0" fx="0" r="819.2" cy="0" cx="0" spreadMethod="pad" gradientTransform="matrix(0.0032500000670552254,0,0,0.006060000043362379,21.537500381469727,17.100000381469727)" gradientUnits="userSpaceOnUse" id="c">
   <stop stop-color="#f7bb97" offset="0.024"/>
   <stop stop-color="#f7d2bb" offset="1"/>
  </radialGradient>
  <radialGradient fy="0" fx="0" r="819.2" cy="0" cx="0" spreadMethod="pad" gradientTransform="matrix(0.004530000034719706,0,0,0.006029999814927578,22.6875,17.69999885559082)" gradientUnits="userSpaceOnUse" id="d">
   <stop stop-color="#d7914a" offset="0"/>
   <stop stop-color="#f5c9ab" offset="0.62"/>
  </radialGradient>
  <radialGradient fy="0" fx="0" r="819.2" cy="0" cx="0" spreadMethod="pad" gradientTransform="matrix(0.01558000035583973,0,0,0.02606000006198883,12.237500190734863,14.949999809265137)" gradientUnits="userSpaceOnUse" id="e">
   <stop stop-color="#ffecd9" offset="0.541"/>
   <stop stop-color="#fba784" offset="1"/>
  </radialGradient>
  <radialGradient fy="0" fx="0" r="819.2" cy="0" cx="0" spreadMethod="pad" gradientTransform="matrix(0.01575000025331974,0,0,0.02434000000357628,12.137499809265137,17.100000381469727)" gradientUnits="userSpaceOnUse" id="f">
   <stop stop-color="#ffecd9" offset="0.408"/>
   <stop stop-color="#fba784" offset="1"/>
  </radialGradient>
  <radialGradient fy="0" fx="0" r="819.2" cy="0" cx="0" spreadMethod="pad" gradientTransform="matrix(0.01775999926030636,0,0,0.024229999631643295,12.237500190734863,20.25)" gradientUnits="userSpaceOnUse" id="g">
   <stop stop-color="#ffecd9" offset="0.384"/>
   <stop stop-color="#fba784" offset="1"/>
  </radialGradient>
  <radialGradient fy="0" fx="0" r="819.2" cy="0" cx="0" spreadMethod="pad" gradientTransform="matrix(-0.004670000169426203,0.002469999948516488,0.0028699999675154686,0.005770000163465738,6.1374969482421875,21.450000762939453)" gradientUnits="userSpaceOnUse" id="h">
   <stop stop-opacity="0.522" stop-color="#ffa8a8" offset="0.067"/>
   <stop stop-opacity="0.29" stop-color="#ffd0c9" offset="0.631"/>
   <stop stop-opacity="0" stop-color="#ffefe8" offset="1"/>
  </radialGradient>
  <radialGradient fy="0" fx="0" r="819.2" cy="0" cx="0" spreadMethod="pad" gradientTransform="matrix(0.004670000169426203,0.002469999948516488,-0.0028699999675154686,0.005770000163465738,18.987499237060547,21.450000762939453)" gradientUnits="userSpaceOnUse" id="i">
   <stop stop-opacity="0.522" stop-color="#ffa8a8" offset="0.067"/>
   <stop stop-opacity="0.29" stop-color="#ffd0c9" offset="0.631"/>
   <stop stop-opacity="0" stop-color="#ffefe8" offset="1"/>
  </radialGradient>
  <radialGradient fy="0" fx="0" r="819.2" cy="0" cx="0" spreadMethod="pad" gradientTransform="matrix(0.011610000394284725,0,0,0.011250000447034836,19.287500381469727,3.4499998092651367)" gradientUnits="userSpaceOnUse" id="j">
   <stop stop-opacity="0.161" stop-color="#fff" offset="0"/>
   <stop stop-opacity="0" stop-color="#fff" offset="1"/>
  </radialGradient>
  <radialGradient fy="0" fx="0" r="819.2" cy="0" cx="0" spreadMethod="pad" gradientTransform="matrix(0.009610000066459179,0,0,0.009320000186562538,18.837499618530273,7.299999237060547)" gradientUnits="userSpaceOnUse" id="k">
   <stop stop-opacity="0.643" stop-color="#fff" offset="0"/>
   <stop stop-opacity="0" stop-color="#fff" offset="1"/>
  </radialGradient>
  <radialGradient fy="0" fx="0" r="819.2" cy="0" cx="0" spreadMethod="pad" gradientTransform="matrix(0.009960000403225422,0,0,0.00965999998152256,5.3874969482421875,7.699999809265137)" gradientUnits="userSpaceOnUse" id="l">
   <stop stop-opacity="0.502" stop-color="#fff" offset="0"/>
   <stop stop-opacity="0" stop-color="#fff" offset="1"/>
  </radialGradient>
  <radialGradient fy="0" fx="0" r="819.2" cy="0" cx="0" spreadMethod="pad" gradientTransform="matrix(0.011140000075101852,0,0,0.01078999973833561,12.08750057220459,3.549999237060547)" gradientUnits="userSpaceOnUse" id="m">
   <stop stop-opacity="0.502" stop-color="#fff" offset="0"/>
   <stop stop-opacity="0" stop-color="#fff" offset="1"/>
  </radialGradient>
 </defs>
 <g>
  <title>background</title>
  <rect fill="none" id="canvas_background" height="402" width="582" y="-1" x="-1"/>
 </g>
 <g>
  <title>Layer 1</title>
  <g id="svg_1">
   <path id="svg_2" fill="#f9e1d2" d="m0.987498,19.049999l-0.05,-0.049999l0,-0.050001l-0.099999,-0.349998l0.15,-0.25l0.2,-0.25q-0.25,0.5 0.850001,1.699999l0,0.049999l0.05,0.050001l-0.850001,-0.549999l-0.25,-0.300001m1.750001,2.400002l-0.600001,-0.100002l-0.15,-0.449999l0.15,-0.5l0.25,-0.15l0.6,0.5q0.3,0.15 0.3,0.349998l-0.3,0.300001l-0.25,0.050001"/>
   <path id="svg_3" fill="url(#a)" d="m1.237498,19.35l0.850001,0.549999l-0.05,-0.050001l0,-0.049999q-1.100001,-1.199999 -0.850001,-1.699999l-0.2,0.25l-0.15,0.25l0.099999,0.349998l-0.15,-0.299999l0,-0.75l0.15,-1.1l0.25,-0.75l0.25,0.5l0.150001,0.4l-0.1,0.6l-0.15,0.700001l0.45,1.15l0.800001,0.699999l0,-0.099998l-0.1,-0.4l-0.1,-0.700001l0.05,-0.299999l0.1,-0.25l-0.450001,-0.550001l-0.05,-0.35l-0.150001,-0.5q-0.2,-0.599998 -0.549999,-1.099999l-0.450001,-0.65l-0.15,0.15l-0.05,0.25l0.1,0.45l0.05,0.450001l-0.1,0.6l-0.1,0.949999l0.25,1.1l0.8,1.300001l0.1,-0.300001l0.05,-0.1l-0.25,-0.299999l-0.55,-0.6l-0.05,-0.1l0.25,0.300001m1.4,-4.150001l0.05,0.099999l0.150001,0.450001l1.049999,5.549999l-0.599999,0.400002l-1.100001,0.049999l-0.5,-0.35l-0.15,-0.300001l-0.2,-0.299999q-0.85,-1.299999 -0.900001,-2.15l0.05,-1.299999l0.1,-0.75l-0.1,-0.800001l0.05,-0.849999l0.4,-0.400001l0.55,-0.049999l0.7,0.299999l0.45,0.400001m0.35,6.2l0.3,-0.300001q0,-0.199999 -0.3,-0.349998l-0.6,-0.5l-0.25,0.15l-0.15,0.5l0.15,0.449999l0.600001,0.100002l0.25,-0.050001"/>
   <path id="svg_4" fill="url(#b)" d="m0.937497,19l0.05,0.049999l0.05,0.1l0.55,0.6l0.25,0.299999l-0.05,0.1l-0.1,0.300001l-0.8,-1.300001l-0.25,-1.1l0.1,-0.949999l0.1,-0.6l-0.05,-0.450001l-0.1,-0.45l0.05,-0.25l0.15,-0.15l0.450001,0.65q0.349999,0.500001 0.549999,1.099999l0.150001,0.5l0.05,0.35l0.450001,0.550001l-0.1,0.25l-0.05,0.299999l0.1,0.700001l0.1,0.4l0,0.099998l-0.800001,-0.699999l-0.45,-1.15l0.15,-0.700001l0.1,-0.6l-0.150001,-0.4l-0.25,-0.5l-0.25,0.75l-0.15,1.1l0,0.75l0.15,0.299999l0,0.050001"/>
   <path id="svg_5" stroke="#fd9e66" stroke-miterlimit="3" stroke-linejoin="round" stroke-linecap="round" stroke-width="0.05" fill="none" d="m3.887498,21.299999l-0.599999,0.400002l-1.100001,0.049999l-0.5,-0.35l-0.15,-0.300001l-0.2,-0.299999q-0.85,-1.299999 -0.900001,-2.15l0.05,-1.299999l0.1,-0.75l-0.1,-0.800001l0.05,-0.849999l0.4,-0.400001l0.55,-0.049999l0.7,0.299999l0.45,0.400001"/>
   <path id="svg_6" fill="url(#c)" d="m24.137501,18.6l-0.150002,-0.25l-0.199999,-0.25q0.25,0.5 -0.85,1.699999l0,0.049999l-0.049999,0.050001l0.849998,-0.549999l0.25,-0.300001l-0.049999,0.1l-0.549999,0.6l-0.25,0.299999l0.049999,0.1l0.1,0.300001l0.800001,-1.300001l0.25,-1.1l-0.100002,-0.949999l-0.099998,-0.6l0.049999,-0.450001l0.1,-0.45l-0.050001,-0.25l-0.149998,-0.15l-0.450001,0.65q-0.35,0.500001 -0.549999,1.099999l-0.150002,0.5l-0.049999,0.35l-0.450001,0.550001l0.1,0.25l0.050001,0.299999l-0.100002,0.700001l-0.099998,0.4l0,0.099998l0.799999,-0.699999l0.450001,-1.15l-0.150002,-0.700001l-0.099998,-0.6l0.15,-0.4l0.25,-0.5l0.25,0.75l0.15,1.1l0,0.75l-0.15,0.299999l0.1,-0.349998m-1.35,-3.800001l0.699999,-0.299999l0.550001,0.049999l0.4,0.400001l0.049999,0.849999l-0.099998,0.800001l0.099998,0.75l0.050001,1.299999q-0.050001,0.85 -0.9,2.15l-0.200001,0.299999l-0.15,0.300001l-0.5,0.35l-1.1,-0.049999l-0.599998,-0.400002l1.049999,-5.549999l0.15,-0.450001l0.050001,-0.099999l0.449999,-0.400001m0.050001,5.6l-0.25,-0.15l-0.600002,0.5q-0.299999,0.15 -0.299999,0.349998l0.299999,0.300001l0.25,0.050001l0.600002,-0.100002l0.149998,-0.449999l-0.149998,-0.5"/>
   <path id="svg_7" fill="url(#d)" d="m24.0375,19l0,-0.050001l0.15,-0.299999l0,-0.75l-0.15,-1.1l-0.25,-0.75l-0.25,0.5l-0.15,0.4l0.099998,0.6l0.150002,0.700001l-0.450001,1.15l-0.799999,0.699999l0,-0.099998l0.099998,-0.4l0.100002,-0.700001l-0.050001,-0.299999l-0.1,-0.25l0.450001,-0.550001l0.049999,-0.35l0.150002,-0.5q0.199999,-0.599998 0.549999,-1.099999l0.450001,-0.65l0.149998,0.15l0.050001,0.25l-0.1,0.45l-0.049999,0.450001l0.099998,0.6l0.100002,0.949999l-0.25,1.1l-0.800001,1.300001l-0.1,-0.300001l-0.049999,-0.1l0.25,-0.299999l0.549999,-0.6l0.049999,-0.1l0.050001,-0.049999"/>
   <path id="svg_8" fill="#f9e1d2" d="m23.987499,19.049999l-0.25,0.300001l-0.849998,0.549999l0.049999,-0.050001l0,-0.049999q1.1,-1.199999 0.85,-1.699999l0.199999,0.25l0.150002,0.25l-0.1,0.349998l0,0.050001l-0.050001,0.049999m-1,1.85l-0.149998,0.449999l-0.600002,0.100002l-0.25,-0.050001l-0.299999,-0.300001q0,-0.199999 0.299999,-0.349998l0.600002,-0.5l0.25,0.15l0.149998,0.5"/>
   <path id="svg_9" stroke="#fd9e66" stroke-miterlimit="3" stroke-linejoin="round" stroke-linecap="round" stroke-width="0.05" fill="none" d="m21.087502,21.299999l0.599998,0.400002l1.1,0.049999l0.5,-0.35l0.15,-0.300001l0.200001,-0.299999q0.849998,-1.299999 0.9,-2.15l-0.050001,-1.299999l-0.099998,-0.75l0.099998,-0.800001l-0.049999,-0.849999l-0.4,-0.400001l-0.550001,-0.049999l-0.699999,0.299999l-0.449999,0.400001"/>
   <path id="svg_10" fill="#ffecd9" d="m18.2875,22.799999q-0.450001,0.650002 -0.6,2.1q-0.1,1.5 -1.1,3.050001l-1.849999,2.149998q-1.1,0.900002 -2.3,0.800001q-1.15,0 -2.15,-0.800001l-1.85,-2.149998q-0.950003,-1.550001 -1.100003,-3.050001q-0.1,-1.449999 -0.6,-2.1l-1.6,-1.549999l-0.05,-1.150002q-0.05,-1.449999 0.85,-3.349998l1.05,-2.150001q0.45,-1.15 0.5,-2.3l0.4,-5.2l-0.4,0.05l0.5,-2.9l0.400003,-0.6l0.400001,-0.3l0,-0.05l0.1,-0.049999l0.049999,0l4.45,-0.650001l1.1,0.150001l0.45,0.299999l0.450001,0.400001l0.9,0.849999l0.449999,0.55l0.35,2.25l0.1,0l0.35,5.2q0.049999,1.150001 0.549999,2.3l1,2.150001q0.950001,1.9 0.9,3.349998l-0.049999,1.150002l-1.65,1.549999"/>
   <path id="svg_11" fill="url(#e)" d="m5.187497,22.299999l-1.199998,-5.199999l-1.1,-5.150001l-0.25,-1l0.05,-0.1l-0.6,-3.45l0.8,-1.7q0.700001,-1.35 1.799999,-2.400001q1.75,-1.849999 3.900003,-2.65l3.85,-0.65l2.4,0.25l1.25,0.349999l0.800001,0.35q1.75,0.8 3.25,2.349999q2.15,2.200001 2.9,5.05l-0.75,3.85l-0.050001,-0.400001l-1.199999,5.300001l-1.15,5.199999l0.049999,-1.049999l0.049999,-1.150002q0.050001,-1.449999 -0.9,-3.349998l-1,-2.150001q-0.5,-1.15 -0.549999,-2.3l-0.35,-5.2l-0.1,0l-0.35,-2.25l-0.449999,-0.55l-0.9,-0.849999l-0.450001,-0.400001l-0.45,-0.299999l-1.1,-0.150001l-4.45,0.650001l-0.049999,0l-0.1,0.049999l0,0.05l-0.400001,0.3l-0.400003,0.6l-0.5,2.9l0.4,-0.05l-0.4,5.2q-0.05,1.150001 -0.5,2.3l-1.05,2.150001q-0.9,1.9 -0.85,3.349998l0.05,1.150002l0.05,1.049999"/>
   <path id="svg_12" fill="url(#f)" d="m17.6875,26.65l1.1,-1.5l0.75,-1.800001l0.35,-1.049999l1.15,-5.199999l1.199999,-5.300001l0.050001,0.400001l0.75,-3.85q0.35,1.400001 0.35,2.95l-0.799999,3.85l-0.050001,-0.1l-0.6,2.85l-1.25,5.25l-1.049999,2.65q-0.6,1.150002 -2.75,2.950001l-1.200001,1.049999q1.25,-2.25 2,-3.15m-12.200003,-3.300001l0.75,1.800001l1.15,1.5l2.200003,3.449999l-1.600003,-1.349998q-2.15,-1.799999 -2.75,-2.950001l-1.049999,-2.65l-1.249999,-5.25l-0.4,-1.9l-0.05,0.1q-0.700001,-1.550001 -0.950001,-3.400001l-0.05,-1.400001l0,-0.599999l0.25,-2.1l0.350001,-1.2l0.6,3.45l-0.05,0.1l0.25,1l1.1,5.150001l1.199998,5.199999l0.3,1.049999"/>
   <path id="svg_13" fill="url(#g)" d="m5.187497,22.299999l-0.05,-1.049999l1.6,1.549999q0.5,0.650002 0.6,2.1q0.15,1.5 1.100003,3.050001l1.85,2.149998q1,0.800001 2.15,0.800001q1.2,0.1 2.3,-0.800001l1.849999,-2.149998q1,-1.550001 1.1,-3.050001q0.15,-1.449999 0.6,-2.1l1.65,-1.549999l-0.049999,1.049999l-0.35,1.049999l-0.75,1.800001l-1.1,1.5q-0.75,0.9 -2,3.15l-1.45,1.1l-1,0.4l-0.75,0.1l-0.1,0l-0.75,-0.1l-1,-0.4l-1.05,-0.800001l-2.200003,-3.449999l-1.15,-1.5l-0.75,-1.800001l-0.3,-1.049999"/>
   <path id="svg_14" stroke="#fd9e66" stroke-miterlimit="3" stroke-linejoin="round" stroke-linecap="round" stroke-width="0.05" fill="none" d="m23.0375,8.349999q-0.75,-2.849999 -2.9,-5.05q-1.5,-1.549999 -3.25,-2.349999l-0.800001,-0.35l-1.25,-0.349999l-2.4,-0.25l-3.85,0.65q-2.150003,0.8 -3.900003,2.65q-1.099998,1.05 -1.799999,2.400001l-0.8,1.7m20.450002,7.65l-0.6,2.85l-1.25,5.25l-1.049999,2.65q-0.6,1.150002 -2.75,2.950001l-1.200001,1.049999l-1.45,1.1l-1,0.4l-0.75,0.1l-0.1,0l-0.75,-0.1l-1,-0.4l-1.05,-0.800001l-1.600003,-1.349998q-2.15,-1.799999 -2.75,-2.950001l-1.049999,-2.65l-1.249999,-5.25l-0.4,-1.9m-0.05,0.1q-0.700001,-1.550001 -0.950001,-3.400001l-0.05,-1.400001l0,-0.599999l0.25,-2.1l0.350001,-1.2m20.950004,0.95q0.349998,1.400001 0.349998,2.95l-0.799999,3.85"/>
   <path id="svg_15" fill="url(#h)" d="m10.3375,19.299999q0.900001,1.950001 0.55,3.900002q-0.45,1.899998 -2.05,2.75q-1.550003,0.799999 -3.250003,0.049999l-0.35,-0.150002l0,-0.049999l-1.049999,-2.65l-1.249999,-5.25l0,-0.1q0.5,-0.75 1.299999,-1.15l3.349999,-0.1q1.800004,0.85 2.750003,2.75"/>
   <path id="svg_16" fill="url(#i)" d="m22.0375,17.549999l-0.1,0.35l-1.25,5.25l-1.049999,2.65l-0.1,0.200001q-1.700001,0.75 -3.25,-0.049999q-1.6,-0.850002 -2.05,-2.75q-0.35,-1.950001 0.55,-3.900002q0.95,-1.9 2.75,-2.75l3.35,0.1l1.15,0.9"/>
   <path id="svg_17" fill="url(#j)" d="m12.8875,8.95q-0.65,-1.85 -0.549999,-2.900001l-0.05,-2.25q0,-2.2 0.9,-3.549999l0.1,0.049999q5.85,1.6 6.799999,2.650001q2.1,2.4 2.1,4.7q0,3.7 -6.35,3.7l-1.749999,-0.25q-0.650001,-0.45 -1.200001,-2.15"/>
   <path id="svg_18" fill="url(#k)" d="m22.387501,13.75l0.25,-2.05q0,-3.25 -1.799999,-6.25q-2.250002,-3.8 -6.150002,-4.650001l0.450001,0q3.599998,0.55 5.849998,3.650001q1.950001,2.65 1.950001,5.4l-0.5,3.900001l-0.049999,0"/>
   <path id="svg_19" fill="url(#l)" d="m8.887501,0.7q-3.000004,1.75 -4.850002,4.9q-1.8,3 -1.8,5.8q0,1.8 0.550001,3.05l0,0.25l-0.05,0q-0.850001,-2.8 -0.850001,-5.099999l0.150001,-1.4q0,-1.1 2.2,-4.050001q1.549999,-2.4 4.600002,-3.45l0.050001,0"/>
   <path id="svg_20" fill="url(#m)" d="m19.137501,2.45l1.950001,2.349999q-0.5,2.25 -2.600002,3.950001q-2.65,2.099999 -6.399999,2.099999q-3.750001,0 -6.450004,-2.099999q-2.349998,-1.950001 -2.549998,-4.6l1.099999,-0.8l2.599999,-1.7q1.650003,-0.95 3.350004,-1.4l2.299999,-0.25l1.95,0.099999l1.35,0.45l1.349999,0.6l2.050001,1.3"/>
  </g>
 </g>
</svg>