<svg width="26" height="33" xmlns="http://www.w3.org/2000/svg"><defs><radialGradient fy="0" fx="0" r="819.2" cy="0" cx="0" spreadMethod="pad" gradientTransform="matrix(.00433 0 0 .00433 23.162 20.5)" gradientUnits="userSpaceOnUse" id="a"><stop stop-color="#d7914a" offset="0"/><stop stop-color="#f5c9ab" offset=".62"/></radialGradient><radialGradient fy="0" fx="0" r="819.2" cy="0" cx="0" spreadMethod="pad" gradientTransform="matrix(-.00433 0 0 .00433 2.912 20.45)" gradientUnits="userSpaceOnUse" id="b"><stop stop-color="#d7914a" offset="0"/><stop stop-color="#f5c9ab" offset=".62"/></radialGradient><radialGradient fy="0" fx="0" r="819.2" cy="0" cx="0" spreadMethod="pad" gradientTransform="matrix(.0179 0 0 .02759 12.912 13.8)" gradientUnits="userSpaceOnUse" id="c"><stop stop-color="#ffecd9" offset=".541"/><stop stop-color="#fba784" offset="1"/></radialGradient><radialGradient fy="0" fx="0" r="819.2" cy="0" cx="0" spreadMethod="pad" gradientTransform="matrix(.01944 0 0 .03725 12.962 16.2)" gradientUnits="userSpaceOnUse" id="d"><stop stop-color="#ffecd9" offset=".439"/><stop stop-color="#fba784" offset="1"/></radialGradient><radialGradient fy="0" fx="0" r="819.2" cy="0" cx="0" spreadMethod="pad" gradientTransform="matrix(.02315 0 0 .03897 10.813 14.75)" gradientUnits="userSpaceOnUse" id="e"><stop stop-color="#ffecd9" offset=".439"/><stop stop-color="#fba784" offset="1"/></radialGradient><radialGradient fy="0" fx="3" r="819.2" cy="0" cx="0" spreadMethod="pad" gradientTransform="matrix(.01016 0 0 .0322 .363 7.6)" gradientUnits="userSpaceOnUse" id="f"><stop stop-color="#ffd7bd" offset="0"/><stop stop-color="#ffecd9" offset="1"/></radialGradient><radialGradient fy="0" fx="3" r="819.2" cy="0" cx="0" spreadMethod="pad" gradientTransform="matrix(.02643 0 0 .03716 31.862 19.7)" gradientUnits="userSpaceOnUse" id="g"><stop stop-color="#fedbc4" offset="0"/><stop stop-color="#ffecd9" offset="1"/></radialGradient><radialGradient fy="0" fx="0" r="819.2" cy="0" cx="0" spreadMethod="pad" gradientTransform="matrix(.01228 0 0 .0119 20.263 3.7)" gradientUnits="userSpaceOnUse" id="h"><stop stop-opacity=".161" stop-color="#fff" offset="0"/><stop stop-opacity="0" stop-color="#fff" offset="1"/></radialGradient><radialGradient fy="0" fx="0" r="819.2" cy="0" cx="0" spreadMethod="pad" gradientTransform="matrix(.01018 0 0 .00986 19.763 7.7)" gradientUnits="userSpaceOnUse" id="i"><stop stop-opacity=".643" stop-color="#fff" offset="0"/><stop stop-opacity="0" stop-color="#fff" offset="1"/></radialGradient><radialGradient fy="0" fx="0" r="819.2" cy="0" cx="0" spreadMethod="pad" gradientTransform="matrix(.01056 0 0 .01022 5.512 8.1)" gradientUnits="userSpaceOnUse" id="j"><stop stop-opacity=".502" stop-color="#fff" offset="0"/><stop stop-opacity="0" stop-color="#fff" offset="1"/></radialGradient><radialGradient fy="0" fx="0" r="819.2" cy="0" cx="0" spreadMethod="pad" gradientTransform="matrix(.0118 0 0 .01141 12.662 3.9)" gradientUnits="userSpaceOnUse" id="k"><stop stop-opacity=".502" stop-color="#fff" offset="0"/><stop stop-opacity="0" stop-color="#fff" offset="1"/></radialGradient><radialGradient fy="0" fx="0" r="819.2" cy="0" cx="0" spreadMethod="pad" gradientTransform="matrix(.01736 0 0 .03156 29.813 12.9)" gradientUnits="userSpaceOnUse" id="l"><stop stop-opacity=".702" stop-color="#faa684" offset=".016"/><stop stop-opacity="0" stop-color="#faa684" offset="1"/></radialGradient><radialGradient fy="0" fx="0" r="819.2" cy="0" cx="0" spreadMethod="pad" gradientTransform="matrix(.00491 .0035 -.00409 .00621 20.462 21.55)" gradientUnits="userSpaceOnUse" id="m"><stop stop-opacity=".541" stop-color="#ffb2b2" offset=".039"/><stop stop-opacity=".365" stop-color="#ffd0c9" offset=".616"/><stop stop-opacity="0" stop-color="#ffeddb" offset="1"/></radialGradient><radialGradient fy="0" fx="0" r="819.2" cy="0" cx="0" spreadMethod="pad" gradientTransform="matrix(-.0054 .00285 .00331 .00667 5.212 21.55)" gradientUnits="userSpaceOnUse" id="n"><stop stop-opacity=".541" stop-color="#ffb2b2" offset=".039"/><stop stop-opacity=".365" stop-color="#ffd0c9" offset=".616"/><stop stop-opacity="0" stop-color="#ffeddb" offset="1"/></radialGradient></defs><path fill="none" d="M-1-1h582v402H-1z"/><g><path fill="#f7d2bb" d="M23.813 23.55l-.2.25-.7.75-.5.2h-.45l-.3-.05-.1-.2q-.1-.2.1-.8l.5-.3-.05-.05 1.3-1 .7-.3.25-.3v-.05l.25-.35.3-.85q.3-1.7-.55-1.9l-.55-.05.5-.45.35-.05h.4q.5.05.65.9v.35l-.1.55q-.3 1.75-1.3 2.35l-1.6 1-.15.1 1.15-.15.15.25-.05.15m1.1-5.25q.05.25.65.9l-.05.25.05-.1q.1-.7-.55-1.1l-.1.05m.3 2.1l-.55 1.05.6-.75.05-.25-.1-.05m-2.4 3.35q-.65-.2-.95.6l.2.1.15.05.5-.1.25-.35.5-.5-.65.2"/><path fill="#f9c29f" d="M23.862 23.4l-.15-.25-1.15.15.15-.1 1.6-1q1-.6 1.3-2.35l.1-.55v.9l-.7 1.85-.7 1.05-.5.45.05-.15"/><path fill="#f9e1d2" d="M25.013 18.25q.65.4.55 1.1l-.05.1.05-.25q-.6-.65-.65-.9l.1-.05m.3 2.2l-.05.25-.6.75.55-1.05.1.05m-1.85 3.1l-.5.5-.25.35-.5.1-.15-.05-.2-.1q.3-.8.95-.6l.65-.2"/><path fill="url(#a)" d="M21.662 23.7l.25-.8.55-1.35.6-1.55q.25-.7.75-1.45l.55.05q.85.2.55 1.9l-.3.85-.25.35v.05l-.25.3-.7.3-1.3 1 .05.05-.5.3"/><path stroke="#fd9e66" stroke-miterlimit="3" stroke-linejoin="round" stroke-linecap="round" stroke-width=".05" fill="none" d="M23.813 18.55l.5-.45.35-.05h.4q.5.05.65.9v1.25l-.7 1.85-.7 1.05-.5.45-.2.25-.7.75-.5.2h-.45l-.3-.05-.1-.2q-.1-.2.1-.8l.25-.8.55-1.35.6-1.55q.25-.7.75-1.45z"/><path fill="#f7d2bb" d="M2.263 23.5l.2.25.7.75.5.2h.45l.3-.05.1-.2q.1-.2-.1-.8l-.5-.3.05-.05q-.65-.7-1.3-1l-.7-.3-.25-.3v-.05l-.25-.35-.3-.85q-.3-1.7.55-1.9l.55-.05-.5-.45-.35-.05h-.4q-.5.05-.65.9v.35l.1.55q.3 1.75 1.3 2.35l1.6 1 .15.1-1.15-.15-.15.25.05.15m-1.1-5.25l-.65.9.05.25-.05-.1q-.1-.7.55-1.1l.1.05m-.3 2.1l.55 1.05-.6-.75-.05-.25.1-.05m2.4 3.35q.65-.2.95.6l-.2.1-.15.05-.5-.1-.25-.35-.5-.5.65.2"/><path fill="#f9c29f" d="M2.212 23.35l.15-.25 1.15.15-.15-.1-1.6-1q-1-.6-1.3-2.35l-.1-.55v.9l.7 1.85.7 1.05.5.45-.05-.15"/><path fill="#f9e1d2" d="M1.063 18.2q-.65.4-.55 1.1l.05.1-.05-.25.65-.9-.1-.05m-.3 2.2l.05.25.6.75-.55-1.05-.1.05m1.85 3.1l.5.5.25.35.5.1.15-.05.2-.1q-.3-.8-.95-.6l-.65-.2"/><path fill="url(#b)" d="M4.412 23.65l-.25-.8-.55-1.35-.6-1.55q-.25-.7-.75-1.45l-.55.05q-.85.2-.55 1.9l.3.85.25.35v.05l.25.3.7.3q.65.3 1.3 1l-.05.05.5.3"/><path stroke="#fd9e66" stroke-miterlimit="3" stroke-linejoin="round" stroke-linecap="round" stroke-width=".05" fill="none" d="M2.263 18.5l-.5-.45-.35-.05h-.4q-.5.05-.65.9v1.25l.7 1.85.7 1.05.5.45.2.25.7.75.5.2h.45l.3-.05.1-.2q.1-.2-.1-.8l-.25-.8-.55-1.35-.6-1.55q-.25-.7-.75-1.45z"/><path fill="#ffecd9" d="M8.412 28.3l-.35-.75-1.75-3.9-.2-.95-.9-4.4v-.15h.75l.15-.4 1.1-2.3q.5-1.2.55-2.4l.4-5.5-.4.05.3-1.75 1.45-1.7 7.95.9.05.1.4 2.4h.1l.4 5.5q.05 1.2.55 2.4l1.1 2.3.35.4-1.3 4.15-1.4 4q-.7 1.65-1.8 2.9l-1.45 1.6q-.5.55-2.35.75-1.1-.25-1.65-.85l-.45-.5-.4-.5-1.2-1.4"/><path fill="url(#c)" d="M22.563 16.3l-.8.4.15 1.45h-1.5l-.35-.4-1.1-2.3q-.5-1.2-.55-2.4l-.4-5.5h-.1l-.4-2.4-.05-.1-.4-.5-.95-.85-.45-.45-.5-.35-1.15-.15-4.7.7h-.05l-.1.05v.05l-.45.35-.45.6-.2 1.35-.3 1.75.4-.05-.4 5.5q-.05 1.2-.55 2.4l-1.1 2.3-.15.4h-1.9l-.05-.65q0-1.6-.7-3.2l-1.25-6.45q.8-1.9 2.3-3.6 1.6-2 3.9-3.05 2.25-1.1 4.75-1.2 2.35-.05 4.7 1.05 2.25 1.1 4 3.1 1.8 2.1 2.5 4.7l-1.65 7.45"/><path fill="url(#d)" d="M11.613 32.05l-.35.3-.55-.3-1.4-.9-1.45-1.25-1.4-1.65-1.5-2.4-1.05-2-1.1-3.1-.6-2.1q-.4-1.45-.6-4-.3-2.6.05-4.4l.4-2.4 1.25 6.45q.7 1.6.7 3.2l.05.65-.05.2.95 2.75.05.15.15.4.75 1.95.75 2.05.6 1.1.55.85.6.7 1.2 1.4.4.5.45.5q.55.6 1.65.85l-1.15.05 1.95.4-1.3.05"/><path fill="url(#e)" d="M12.912 32l1.35-.2h.1l.1-.05.75-.3.05-.05.1-.1.15-.05v-.05l1.45-1.65 1.85-2.85.15-.1 1.4-3q1-2.4 1.55-5.45l-.15-1.45.8-.4 1.65-7.45.3 1.55v3q-.15 3.2-.85 5.55l-1.4 4.4q-.65 2.05-1.75 3.75l-1.75 2.3-.7.7-.25.25-.45.4-.4.4h-.05l-.2.15q-1.35 1.1-2.1 1.2l-.25.05-1.25.1-.9-.05-.65-.15-.15-.05-.1-.05h-.05l.35-.3 1.3-.05"/><path fill="url(#f)" d="M4.063 18.15h1.15v.15l.9 4.4.2.95 1.75 3.9.35.75-.6-.7-.55-.85-.6-1.1-.75-2.05-.75-1.95-.15-.4-.05-.15-.95-2.75.05-.2m5.45-14l-1.45 1.7.2-1.35.45-.6.45-.35V3.5l.1-.05h.05l4.7-.7 1.15.15.5.35.45.45.95.85.4.5-7.95-.9"/><path fill="url(#g)" d="M20.362 23.6l-1.4 3-.15.1-1.85 2.85-1.45 1.65v.05l-.15.05-.1.1-.05.05-.75.3-.1.05h-.1l-1.35.2-1.95-.4 1.15-.05q1.85-.2 2.35-.75l1.45-1.6q1.1-1.25 1.8-2.9l1.4-4 1.3-4.15h1.5q-.55 3.05-1.55 5.45"/><path stroke="#fd9e66" stroke-miterlimit="3" stroke-linejoin="round" stroke-linecap="round" stroke-width=".05" fill="none" d="M24.212 8.85q-.7-2.6-2.5-4.7-1.75-2-4-3.1-2.35-1.1-4.7-1.05-2.5.1-4.75 1.2-2.3 1.05-3.9 3.05-1.5 1.7-2.3 3.6m22.15 1l.3 1.55v3q-.15 3.2-.85 5.55l-1.4 4.4q-.65 2.05-1.75 3.75l-1.75 2.3-.7.7-.25.25-.45.4-.4.4h-.05l-.2.15q-1.35 1.1-2.1 1.2l-.25.05-1.25.1-.9-.05-.65-.15-.15-.05-.1-.05h-.05l-.55-.3-1.4-.9-1.45-1.25-1.4-1.65-1.5-2.4-1.05-2-1.1-3.1-.6-2.1q-.4-1.45-.6-4-.3-2.6.05-4.4l.4-2.4"/><path fill="url(#h)" d="M12.963 6.45l-.05-2.4q0-2.35.9-3.75l.1.05q6.2 1.65 7.2 2.8 2.25 2.55 2.25 4.95 0 3.95-6.7 3.95l-1.9-.3q-.65-.5-1.25-2.25-.65-1.95-.55-3.05"/><path fill="url(#i)" d="M23.513 14.55l.25-2.2q0-3.45-1.85-6.65-2.4-4-6.5-4.9h.45q3.8.6 6.2 3.9 2.1 2.8 2.1 5.7 0 1.25-.6 4.15h-.05"/><path fill="url(#j)" d="M4.112 5.9q-1.9 3.15-1.9 6.1 0 1.95.55 3.25v.25h-.05q-.9-2.95-.9-5.4l.15-1.5q0-1.1 2.35-4.25 1.7-2.55 4.9-3.65h.05q-3.15 1.85-5.15 5.2"/><path fill="url(#k)" d="M22.162 5.2q-.55 2.4-2.75 4.2-2.8 2.2-6.75 2.2-4 0-6.85-2.2-2.5-2.05-2.7-4.85l1.15-.85 2.75-1.8 3.55-1.5 2.45-.25 2.05.1 1.45.45 1.4.65q.9.3 2.2 1.4l2.05 2.45"/><path fill="url(#l)" d="M24.313 13.45q-.1 4.85-1.35 8l-1.7 4.15-1.45 2.35-2.35 2.75q-1.4 1.4-2.6 1.8l2.95-5.25q1.35-2.95 2.45-5.15 1.05-2.2 1.1-4.25.1-2.1-.75-3.25-.9-1.15-.5-4l1-6.7.7 1q2.55 3.7 2.5 8.55"/><path fill="url(#m)" d="M23.763 18.25l-.45 1.75-1.25 4.75-.9 2.3-.2.05q-2.1.6-3.7-.5-1.7-1.2-1.85-3.45-.2-2.35 1.1-4.35 1.4-2.1 3.55-2.85 2.1-.6 3.7.7l.2.15-.2 1.45"/><path fill="url(#n)" d="M6.412 16.1q2 .9 3.1 3.2 1.1 2.2.65 4.45-.5 2.2-2.35 3.15-1.3.7-2.75.35l-1-2.4-1.3-4.7-.5-2-.35-1.55.6-.4 3.9-.1"/></g></svg>