<svg width="26" height="33" xmlns="http://www.w3.org/2000/svg">
 <defs>
  <radialGradient fy="0" fx="0" r="819.2" cy="0" cx="0" spreadMethod="pad" gradientTransform="matrix(0.0043299999088048935,0,0,0.0043299999088048935,23.162498474121094,20.5)" gradientUnits="userSpaceOnUse" id="a">
   <stop stop-color="#d7914a" offset="0"/>
   <stop stop-color="#f5c9ab" offset="0.62"/>
  </radialGradient>
  <radialGradient fy="0" fx="0" r="819.2" cy="0" cx="0" spreadMethod="pad" gradientTransform="matrix(-0.0043299999088048935,0,0,0.0043299999088048935,2.91249942779541,20.44999885559082)" gradientUnits="userSpaceOnUse" id="b">
   <stop stop-color="#d7914a" offset="0"/>
   <stop stop-color="#f5c9ab" offset="0.62"/>
  </radialGradient>
  <radialGradient fy="0" fx="0" r="819.2" cy="0" cx="0" spreadMethod="pad" gradientTransform="matrix(0.017899999395012856,0,0,0.02758999913930893,12.91249942779541,13.799999237060547)" gradientUnits="userSpaceOnUse" id="c">
   <stop stop-color="#ffecd9" offset="0.541"/>
   <stop stop-color="#fba784" offset="1"/>
  </radialGradient>
  <radialGradient fy="0" fx="0" r="819.2" cy="0" cx="0" spreadMethod="pad" gradientTransform="matrix(0.019440000876784325,0,0,0.03725000098347664,12.962499618530273,16.19999885559082)" gradientUnits="userSpaceOnUse" id="d">
   <stop stop-color="#ffecd9" offset="0.439"/>
   <stop stop-color="#fba784" offset="1"/>
  </radialGradient>
  <radialGradient fy="0" fx="0" r="819.2" cy="0" cx="0" spreadMethod="pad" gradientTransform="matrix(0.023150000721216202,0,0,0.03897000104188919,10.8125,14.749999046325684)" gradientUnits="userSpaceOnUse" id="e">
   <stop stop-color="#ffecd9" offset="0.439"/>
   <stop stop-color="#fba784" offset="1"/>
  </radialGradient>
  <radialGradient fy="0" fx="3" r="819.2" cy="0" cx="0" spreadMethod="pad" gradientTransform="matrix(0.010160000063478947,0,0,0.03220000118017197,0.36250004172325134,7.59999942779541)" gradientUnits="userSpaceOnUse" id="f">
   <stop stop-color="#ffd7bd" offset="0"/>
   <stop stop-color="#ffecd9" offset="1"/>
  </radialGradient>
  <radialGradient fy="0" fx="3" r="819.2" cy="0" cx="0" spreadMethod="pad" gradientTransform="matrix(0.026429999619722366,0,0,0.0371600016951561,31.862499237060547,19.69999885559082)" gradientUnits="userSpaceOnUse" id="g">
   <stop stop-color="#fedbc4" offset="0"/>
   <stop stop-color="#ffecd9" offset="1"/>
  </radialGradient>
  <radialGradient fy="0" fx="0" r="819.2" cy="0" cx="0" spreadMethod="pad" gradientTransform="matrix(0.012280000373721123,0,0,0.011900000274181366,20.262500762939453,3.6999988555908203)" gradientUnits="userSpaceOnUse" id="h">
   <stop stop-opacity="0.161" stop-color="#fff" offset="0"/>
   <stop stop-opacity="0" stop-color="#fff" offset="1"/>
  </radialGradient>
  <radialGradient fy="0" fx="0" r="819.2" cy="0" cx="0" spreadMethod="pad" gradientTransform="matrix(0.010180000215768814,0,0,0.009859999641776085,19.762500762939453,7.69999885559082)" gradientUnits="userSpaceOnUse" id="i">
   <stop stop-opacity="0.643" stop-color="#fff" offset="0"/>
   <stop stop-opacity="0" stop-color="#fff" offset="1"/>
  </radialGradient>
  <radialGradient fy="0" fx="0" r="819.2" cy="0" cx="0" spreadMethod="pad" gradientTransform="matrix(0.01056000031530857,0,0,0.010219999589025974,5.512499809265137,8.09999942779541)" gradientUnits="userSpaceOnUse" id="j">
   <stop stop-opacity="0.502" stop-color="#fff" offset="0"/>
   <stop stop-opacity="0" stop-color="#fff" offset="1"/>
  </radialGradient>
  <radialGradient fy="0" fx="0" r="819.2" cy="0" cx="0" spreadMethod="pad" gradientTransform="matrix(0.011800000444054604,0,0,0.011409999802708626,12.66249942779541,3.8999996185302734)" gradientUnits="userSpaceOnUse" id="k">
   <stop stop-opacity="0.502" stop-color="#fff" offset="0"/>
   <stop stop-opacity="0" stop-color="#fff" offset="1"/>
  </radialGradient>
  <radialGradient fy="0" fx="0" r="819.2" cy="0" cx="0" spreadMethod="pad" gradientTransform="matrix(0.01735999993979931,0,0,0.03156000003218651,29.8125,12.899999618530273)" gradientUnits="userSpaceOnUse" id="l">
   <stop stop-opacity="0.702" stop-color="#faa684" offset="0.016"/>
   <stop stop-opacity="0" stop-color="#faa684" offset="1"/>
  </radialGradient>
  <radialGradient fy="0" fx="0" r="819.2" cy="0" cx="0" spreadMethod="pad" gradientTransform="matrix(0.004910000134259462,0.0035000001080334187,-0.004089999943971634,0.006209999788552523,20.462499618530273,21.549999237060547)" gradientUnits="userSpaceOnUse" id="m">
   <stop stop-opacity="0.541" stop-color="#ffb2b2" offset="0.039"/>
   <stop stop-opacity="0.365" stop-color="#ffd0c9" offset="0.616"/>
   <stop stop-opacity="0" stop-color="#ffeddb" offset="1"/>
  </radialGradient>
  <radialGradient fy="0" fx="0" r="819.2" cy="0" cx="0" spreadMethod="pad" gradientTransform="matrix(-0.005400000140070915,0.002850000048056245,0.0033100000582635403,0.006670000031590462,5.212499618530273,21.549999237060547)" gradientUnits="userSpaceOnUse" id="n">
   <stop stop-opacity="0.541" stop-color="#ffb2b2" offset="0.039"/>
   <stop stop-opacity="0.365" stop-color="#ffd0c9" offset="0.616"/>
   <stop stop-opacity="0" stop-color="#ffeddb" offset="1"/>
  </radialGradient>
 </defs>
 <g>
  <title>background</title>
  <rect fill="none" id="canvas_background" height="402" width="582" y="-1" x="-1"/>
 </g>
 <g>
  <title>Layer 1</title>
  <g id="svg_1">
   <path id="svg_2" fill="#f7d2bb" d="m23.8125,23.549999l-0.200001,0.25l-0.700001,0.75l-0.5,0.200001l-0.449999,0l-0.300001,-0.050001l-0.099998,-0.199999q-0.1,-0.200001 0.099998,-0.800001l0.5,-0.299999l-0.049999,-0.050001l1.299999,-1l0.700001,-0.299999l0.25,-0.299999l0,-0.050001l0.25,-0.35l0.299999,-0.849998q0.300001,-1.700001 -0.549999,-1.900002l-0.549999,-0.049999l0.5,-0.450001l0.349998,-0.049999l0.400002,0q0.5,0.049999 0.65,0.9l0,0.35l-0.1,0.549999q-0.299999,1.75 -1.299999,2.35l-1.6,1l-0.15,0.1l1.15,-0.15l0.15,0.25l-0.049999,0.15m1.099998,-5.25q0.050001,0.25 0.650002,0.9l-0.049999,0.25l0.049999,-0.1q0.099998,-0.699999 -0.549999,-1.099998l-0.100002,0.049999m0.300001,2.1l-0.550001,1.049999l0.600002,-0.75l0.049999,-0.25l-0.1,-0.049999m-2.4,3.35q-0.650002,-0.200001 -0.950001,0.599998l0.200001,0.1l0.15,0.050001l0.5,-0.1l0.25,-0.35l0.5,-0.5l-0.65,0.200001"/>
   <path id="svg_3" fill="#f9c29f" d="m23.862499,23.4l-0.15,-0.25l-1.15,0.15l0.15,-0.1l1.6,-1q1,-0.6 1.299999,-2.35l0.1,-0.549999l0,0.9l-0.699999,1.85l-0.700001,1.049999l-0.5,0.450001l0.049999,-0.15"/>
   <path id="svg_4" fill="#f9e1d2" d="m25.012501,18.25q0.649998,0.4 0.549999,1.099998l-0.049999,0.1l0.049999,-0.25q-0.6,-0.65 -0.650002,-0.9l0.100002,-0.049999m0.299999,2.199999l-0.049999,0.25l-0.600002,0.75l0.550001,-1.049999l0.1,0.049999m-1.85,3.1l-0.5,0.5l-0.25,0.35l-0.5,0.1l-0.15,-0.050001l-0.200001,-0.1q0.299999,-0.799999 0.950001,-0.599998l0.65,-0.200001"/>
   <path id="svg_5" fill="url(#a)" d="m21.662498,23.699999l0.25,-0.799999l0.550001,-1.35l0.6,-1.549999q0.25,-0.700001 0.75,-1.450001l0.549999,0.049999q0.85,0.200001 0.549999,1.900002l-0.299999,0.849998l-0.25,0.35l0,0.050001l-0.25,0.299999l-0.700001,0.299999l-1.299999,1l0.049999,0.050001l-0.5,0.299999"/>
   <path id="svg_6" stroke="#fd9e66" stroke-miterlimit="3" stroke-linejoin="round" stroke-linecap="round" stroke-width="0.05" fill="none" d="m23.8125,18.549999l0.5,-0.450001l0.349998,-0.049999l0.400002,0q0.5,0.049999 0.65,0.9l0,1.25l-0.699999,1.85l-0.700001,1.049999l-0.5,0.450001l-0.200001,0.25l-0.700001,0.75l-0.5,0.200001l-0.449999,0l-0.300001,-0.050001l-0.099998,-0.199999q-0.1,-0.200001 0.099998,-0.800001l0.25,-0.799999l0.550001,-1.35l0.6,-1.549999q0.25,-0.700001 0.75,-1.450001z"/>
   <path id="svg_7" fill="#f7d2bb" d="m2.2625,23.5l0.2,0.25l0.7,0.75l0.5,0.199999l0.450001,0l0.299999,-0.049999l0.1,-0.200001q0.1,-0.199999 -0.1,-0.799999l-0.5,-0.300001l0.05,-0.049999q-0.65,-0.700001 -1.3,-1l-0.7,-0.299999l-0.25,-0.300001l0,-0.049999l-0.25,-0.35l-0.3,-0.85q-0.299999,-1.699999 0.55,-1.9l0.55,-0.049999l-0.5,-0.450001l-0.35,-0.049999l-0.4,0q-0.5,0.049999 -0.65,0.9l0,0.35l0.099999,0.549999q0.3,1.75 1.3,2.35l1.6,1l0.15,0.1l-1.15,-0.150002l-0.150001,0.25l0.05,0.150002m-1.1,-5.25l-0.65,0.9l0.05,0.25l-0.05,-0.1q-0.1,-0.700001 0.55,-1.1l0.099999,0.050001m-0.299999,2.099998l0.549999,1.049999l-0.599999,-0.75l-0.05,-0.25l0.1,-0.049999m2.4,3.35q0.65,-0.200001 0.95,0.6l-0.2,0.099998l-0.15,0.049999l-0.5,-0.099998l-0.25,-0.35l-0.5,-0.5l0.65,0.200001"/>
   <path id="svg_8" fill="#f9c29f" d="m2.2125,23.349998l0.150001,-0.25l1.15,0.150002l-0.15,-0.1l-1.6,-1q-1,-0.6 -1.3,-2.35l-0.099999,-0.549999l0,0.9l0.7,1.85l0.7,1.049999l0.5,0.450001l-0.05,-0.150002"/>
   <path id="svg_9" fill="#f9e1d2" d="m1.0625,18.199999q-0.650001,0.4 -0.55,1.1l0.05,0.1l-0.05,-0.25l0.65,-0.9l-0.099999,-0.050001m-0.3,2.200001l0.05,0.25l0.599999,0.75l-0.549999,-1.050001l-0.1,0.050001m1.85,3.1l0.5,0.5l0.25,0.349998l0.5,0.1l0.15,-0.049999l0.2,-0.1q-0.3,-0.799999 -0.95,-0.6l-0.65,-0.199999"/>
   <path id="svg_10" fill="url(#b)" d="m4.412499,23.65l-0.25,-0.800001l-0.549999,-1.349998l-0.6,-1.550001q-0.25,-0.699999 -0.75,-1.449999l-0.55,0.049999q-0.849999,0.200001 -0.55,1.9l0.3,0.85l0.25,0.35l0,0.049999l0.25,0.300001l0.7,0.299999q0.650001,0.299999 1.3,1l-0.05,0.049999l0.5,0.300001"/>
   <path id="svg_11" stroke="#fd9e66" stroke-miterlimit="3" stroke-linejoin="round" stroke-linecap="round" stroke-width="0.05" fill="none" d="m2.2625,18.5l-0.5,-0.450001l-0.35,-0.049999l-0.4,0q-0.5,0.049999 -0.65,0.9l0,1.25l0.7,1.85l0.7,1.049999l0.5,0.450001l0.2,0.25l0.7,0.75l0.5,0.199999l0.450001,0l0.299999,-0.049999l0.1,-0.200001q0.1,-0.199999 -0.1,-0.799999l-0.25,-0.800001l-0.549999,-1.349998l-0.6,-1.550001q-0.25,-0.699999 -0.75,-1.449999z"/>
   <path id="svg_12" fill="#ffecd9" d="m8.4125,28.299999l-0.35,-0.75l-1.75,-3.9l-0.2,-0.950001l-0.9,-4.4l0,-0.15l0.75,0l0.15,-0.4l1.1,-2.300001q0.5,-1.2 0.55,-2.4l0.4,-5.5l-0.4,0.05l0.3,-1.75l1.45,-1.7l7.95,0.9l0.050001,0.1l0.4,2.4l0.1,0l0.4,5.5q0.049999,1.2 0.549999,2.4l1.1,2.300001l0.35,0.4l-1.300001,4.15l-1.4,4q-0.699999,1.65 -1.799999,2.9l-1.450001,1.6q-0.5,0.549999 -2.349999,0.75q-1.1,-0.25 -1.650001,-0.85l-0.45,-0.5l-0.400001,-0.5l-1.199999,-1.4"/>
   <path id="svg_13" fill="url(#c)" d="m22.5625,16.299999l-0.799999,0.4l0.149998,1.450001l-1.499998,0l-0.35,-0.4l-1.1,-2.300001q-0.5,-1.2 -0.549999,-2.4l-0.4,-5.5l-0.1,0l-0.4,-2.4l-0.050001,-0.1l-0.4,-0.5l-0.950001,-0.85l-0.449999,-0.45l-0.5,-0.349999l-1.150001,-0.150001l-4.7,0.7l-0.05,0l-0.099999,0.05l0,0.05l-0.450001,0.35l-0.45,0.599999l-0.2,1.35l-0.3,1.75l0.4,-0.05l-0.4,5.5q-0.05,1.2 -0.55,2.4l-1.1,2.300001l-0.15,0.4l-1.9,0l-0.05,-0.65q0,-1.6 -0.7,-3.200001l-1.25,-6.45q0.8,-1.900001 2.3,-3.6q1.599999,-2 3.9,-3.05q2.25,-1.1 4.75,-1.199999q2.349999,-0.049999 4.7,1.05q2.25,1.1 4,3.1q1.800001,2.099999 2.5,4.699999l-1.65,7.45"/>
   <path id="svg_14" fill="url(#d)" d="m11.6125,32.049999l-0.35,0.299999l-0.55,-0.299999l-1.4,-0.9l-1.45,-1.25l-1.4,-1.65l-1.5,-2.400002l-1.05,-2l-1.099999,-3.099998l-0.6,-2.1q-0.4,-1.450001 -0.599999,-4q-0.3,-2.6 0.049999,-4.400001l0.400001,-2.4l1.25,6.45q0.7,1.6 0.7,3.200001l0.05,0.65l-0.05,0.199999l0.95,2.75l0.05,0.150002l0.15,0.4l0.75,1.949999l0.75,2.050001l0.6,1.1l0.55,0.849998l0.6,0.700001l1.199999,1.4l0.400001,0.5l0.45,0.5q0.55,0.6 1.650001,0.85l-1.150001,0.049999l1.95,0.400002l-1.299999,0.049999"/>
   <path id="svg_15" fill="url(#e)" d="m12.912499,32l1.35,-0.200001l0.1,0l0.099999,-0.049999l0.75,-0.300001l0.05,-0.049999l0.099999,-0.1l0.150001,-0.049999l0,-0.050001l1.45,-1.65l1.85,-2.85l0.15,-0.1l1.4,-3q1,-2.4 1.549999,-5.449999l-0.149998,-1.450001l0.799999,-0.4l1.65,-7.45l0.300001,1.55l0,3q-0.150002,3.199999 -0.850002,5.549999l-1.399998,4.4q-0.650002,2.050001 -1.75,3.75l-1.75,2.300001l-0.700001,0.699999l-0.25,0.25l-0.450001,0.400002l-0.4,0.4l-0.049999,0l-0.200001,0.15q-1.35,1.100002 -2.099999,1.200001l-0.25,0.049999l-1.25,0.100002l-0.900001,-0.050003l-0.65,-0.150002l-0.150001,-0.049995l-0.099999,-0.050003l-0.05,0l0.35,-0.299999l1.299999,-0.049999"/>
   <path id="svg_16" fill="url(#f)" d="m4.0625,18.15l1.15,0l0,0.15l0.9,4.4l0.2,0.950001l1.75,3.9l0.35,0.75l-0.6,-0.700001l-0.55,-0.849998l-0.6,-1.1l-0.75,-2.050001l-0.75,-1.949999l-0.15,-0.4l-0.05,-0.150002l-0.95,-2.75l0.05,-0.199999m5.45,-14l-1.45,1.7l0.2,-1.35l0.45,-0.599999l0.450001,-0.35l0,-0.05l0.099999,-0.05l0.05,0l4.7,-0.7l1.150001,0.150001l0.5,0.349999l0.449999,0.45l0.950001,0.85l0.4,0.5l-7.95,-0.9"/>
   <path id="svg_17" fill="url(#g)" d="m20.362499,23.599998l-1.4,3l-0.15,0.1l-1.85,2.85l-1.45,1.65l0,0.050001l-0.150001,0.049999l-0.099999,0.1l-0.05,0.049999l-0.75,0.300001l-0.099999,0.049999l-0.1,0l-1.35,0.200001l-1.95,-0.400002l1.150001,-0.049999q1.849999,-0.200001 2.349999,-0.75l1.450001,-1.6q1.1,-1.25 1.799999,-2.9l1.4,-4l1.300001,-4.15l1.499998,0q-0.549999,3.049999 -1.549999,5.449999"/>
   <path id="svg_18" stroke="#fd9e66" stroke-miterlimit="3" stroke-linejoin="round" stroke-linecap="round" stroke-width="0.05" fill="none" d="m24.2125,8.849999q-0.699999,-2.6 -2.5,-4.7q-1.75,-2 -4,-3.1q-2.35,-1.1 -4.7,-1.049999q-2.5,0.1 -4.75,1.2q-2.3,1.05 -3.9,3.05q-1.5,1.7 -2.3,3.599999m22.15,1l0.300001,1.55l0,3q-0.150002,3.199999 -0.850002,5.550001l-1.399998,4.4q-0.650002,2.049999 -1.75,3.749998l-1.75,2.300001l-0.700001,0.699999l-0.25,0.25l-0.450001,0.400002l-0.4,0.4l-0.049999,0l-0.200001,0.15q-1.35,1.100002 -2.099999,1.200001l-0.25,0.049999l-1.25,0.100002l-0.900001,-0.050003l-0.65,-0.150002l-0.150001,-0.049995l-0.099999,-0.050003l-0.05,0l-0.55,-0.299999l-1.4,-0.9l-1.45,-1.25l-1.4,-1.65l-1.5,-2.400002l-1.05,-2l-1.099999,-3.099998l-0.6,-2.1q-0.4,-1.450001 -0.599999,-4q-0.3,-2.6 0.049999,-4.400001l0.400001,-2.4"/>
   <path id="svg_19" fill="url(#h)" d="m12.9625,6.449999l-0.05,-2.4q0,-2.35 0.900001,-3.75l0.099999,0.05q6.2,1.65 7.2,2.799999q2.25,2.549999 2.25,4.95q0,3.95 -6.699999,3.95l-1.900001,-0.3q-0.65,-0.499999 -1.25,-2.249999q-0.65,-1.95 -0.55,-3.05"/>
   <path id="svg_20" fill="url(#i)" d="m23.512501,14.549999l0.25,-2.2q0,-3.45 -1.850002,-6.650001q-2.399998,-4 -6.499998,-4.9l0.449999,0q3.800001,0.6 6.200001,3.9q2.099998,2.8 2.099998,5.700001q0,1.25 -0.599998,4.15l-0.049999,0"/>
   <path id="svg_21" fill="url(#j)" d="m4.1125,5.9q-1.900001,3.15 -1.900001,6.099999q0,1.95 0.55,3.25l0,0.25l-0.05,0q-0.9,-2.95 -0.9,-5.4l0.15,-1.5q0,-1.1 2.35,-4.25q1.7,-2.55 4.9,-3.650001l0.05,0q-3.15,1.85 -5.15,5.2"/>
   <path id="svg_22" fill="url(#k)" d="m22.162498,5.199999q-0.549999,2.400001 -2.749998,4.200001q-2.800001,2.2 -6.750001,2.2q-3.999999,0 -6.849999,-2.2q-2.5,-2.05 -2.7,-4.85l1.15,-0.85l2.75,-1.799999l3.55,-1.5l2.45,-0.25l2.05,0.1l1.450001,0.449999l1.4,0.650001q0.9,0.3 2.199999,1.4l2.049999,2.45"/>
   <path id="svg_23" fill="url(#l)" d="m24.3125,13.449999q-0.1,4.85 -1.35,8l-1.699999,4.15l-1.450001,2.35l-2.35,2.75q-1.4,1.4 -2.599999,1.800001l2.95,-5.25q1.35,-2.950001 2.450001,-5.150002q1.049999,-2.199999 1.099998,-4.25q0.1,-2.099999 -0.75,-3.249999q-0.9,-1.150001 -0.5,-4l1,-6.7l0.700001,1q2.549999,3.7 2.5,8.550001"/>
   <path id="svg_24" fill="url(#m)" d="m23.762501,18.25l-0.450001,1.75l-1.25,4.75l-0.900002,2.299999l-0.199999,0.049999q-2.1,0.6 -3.699999,-0.5q-1.700001,-1.199999 -1.85,-3.449999q-0.200001,-2.35 1.1,-4.35q1.4,-2.1 3.549999,-2.85q2.099998,-0.599999 3.700001,0.700001l0.199999,0.15l-0.199999,1.450001"/>
   <path id="svg_25" fill="url(#n)" d="m6.4125,16.099998q2,0.900002 3.1,3.200001q1.099999,2.200001 0.650001,4.450001q-0.5,2.199999 -2.35,3.15q-1.3,0.699999 -2.75,0.35l-1,-2.400002l-1.3,-4.699999l-0.5,-2l-0.35,-1.550001l0.6,-0.4l3.9,-0.1"/>
  </g>
 </g>
</svg>