<svg width="26" height="32" xmlns="http://www.w3.org/2000/svg"><defs><radialGradient fy="0" fx="0" r="819.2" cy="0" cx="0" spreadMethod="pad" gradientTransform="matrix(.00433 0 0 .00433 23.1 19.85)" gradientUnits="userSpaceOnUse" id="a"><stop stop-color="#d7914a" offset="0"/><stop stop-color="#f5c9ab" offset=".62"/></radialGradient><radialGradient fy="0" fx="0" r="819.2" cy="0" cx="0" spreadMethod="pad" gradientTransform="matrix(-.00433 0 0 .00433 2.85 19.8)" gradientUnits="userSpaceOnUse" id="b"><stop stop-color="#d7914a" offset="0"/><stop stop-color="#f5c9ab" offset=".62"/></radialGradient><radialGradient fy="0" fx="0" r="819.2" cy="0" cx="0" spreadMethod="pad" gradientTransform="matrix(.01654 0 0 .02448 12.8 18.85)" gradientUnits="userSpaceOnUse" id="c"><stop stop-color="#ffecd9" offset=".553"/><stop stop-color="#faa684" offset="1"/></radialGradient><radialGradient fy="0" fx="41" r="819.2" cy="0" cx="0" spreadMethod="pad" gradientTransform="matrix(.01282 0 0 .01242 12.4 -3.8)" gradientUnits="userSpaceOnUse" id="d"><stop stop-color="#fff" offset="0"/><stop stop-color="#ffecd9" offset=".988"/></radialGradient><radialGradient fy="0" fx="0" r="819.2" cy="0" cx="0" spreadMethod="pad" gradientTransform="matrix(.00423 -.00397 .00395 .00652 6.25 23.1)" gradientUnits="userSpaceOnUse" id="e"><stop stop-opacity=".451" stop-color="#ff9c9c" offset="0"/><stop stop-opacity=".231" stop-color="#ffc1bf" offset=".565"/><stop stop-opacity="0" stop-color="#ffeddb" offset="1"/></radialGradient><radialGradient fy="0" fx="48" r="819.2" cy="0" cx="0" spreadMethod="pad" gradientTransform="matrix(-.00432 -.00388 -.00375 .00662 20.1 22.9)" gradientUnits="userSpaceOnUse" id="f"><stop stop-opacity=".451" stop-color="#ff9c9c" offset="0"/><stop stop-opacity=".231" stop-color="#ffc1bf" offset=".565"/><stop stop-opacity="0" stop-color="#ffeddb" offset="1"/></radialGradient><radialGradient fy="0" fx="0" r="819.2" cy="0" cx="0" spreadMethod="pad" gradientTransform="matrix(.01247 0 0 .01209 20.25 3.8)" gradientUnits="userSpaceOnUse" id="g"><stop stop-opacity=".161" stop-color="#fff" offset="0"/><stop stop-opacity="0" stop-color="#fff" offset="1"/></radialGradient><radialGradient fy="0" fx="0" r="819.2" cy="0" cx="0" spreadMethod="pad" gradientTransform="matrix(.01033 0 0 .01001 19.85 7.9)" gradientUnits="userSpaceOnUse" id="h"><stop stop-opacity=".643" stop-color="#fff" offset="0"/><stop stop-opacity="0" stop-color="#fff" offset="1"/></radialGradient><radialGradient fy="0" fx="0" r="819.2" cy="0" cx="0" spreadMethod="pad" gradientTransform="matrix(.01071 0 0 .01038 5.4 8.35)" gradientUnits="userSpaceOnUse" id="i"><stop stop-opacity=".502" stop-color="#fff" offset="0"/><stop stop-opacity="0" stop-color="#fff" offset="1"/></radialGradient><radialGradient fy="0" fx="0" r="819.2" cy="0" cx="0" spreadMethod="pad" gradientTransform="matrix(.01196 0 0 .0116 12.55 3.9)" gradientUnits="userSpaceOnUse" id="j"><stop stop-opacity=".502" stop-color="#fff" offset="0"/><stop stop-opacity="0" stop-color="#fff" offset="1"/></radialGradient></defs><path fill="none" d="M-1-1h582v402H-1z"/><g><path fill="#f7d2bb" d="M23.75 22.9l-.2.25-.7.75-.5.2h-.45l-.3-.05-.1-.2q-.1-.2.1-.8l.5-.3-.05-.05 1.3-1 .7-.3.25-.3v-.05l.25-.35.3-.85q.3-1.7-.55-1.9l-.55-.05.5-.45.35-.05h.4q.5.05.65.9v.35l-.1.55q-.3 1.75-1.3 2.35l-1.6 1-.15.1 1.15-.15.15.25-.05.15m1.1-5.25q.05.25.65.9l-.05.25.05-.1q.1-.7-.55-1.1l-.1.05m.3 2.1l-.55 1.05.6-.75.05-.25-.1-.05m-2.4 3.35q-.65-.2-.95.6l.2.1.15.05.5-.1.25-.35.5-.5-.65.2"/><path fill="#f9c29f" d="M23.8 22.75l-.15-.25-1.15.15.15-.1 1.6-1q1-.6 1.3-2.35l.1-.55v.9l-.7 1.85-.7 1.05-.5.45.05-.15"/><path fill="#f9e1d2" d="M24.95 17.6q.65.4.55 1.1l-.05.1.05-.25q-.6-.65-.65-.9l.1-.05m.3 2.2l-.05.25-.6.75.55-1.05.1.05m-1.85 3.1l-.5.5-.25.35-.5.1-.15-.05-.2-.1q.3-.8.95-.6l.65-.2"/><path fill="url(#a)" d="M21.6 23.05l.25-.8.55-1.35.6-1.55q.25-.7.75-1.45l.55.05q.85.2.55 1.9l-.3.85-.25.35v.05l-.25.3-.7.3-1.3 1 .05.05-.5.3"/><path stroke="#fd9e66" stroke-miterlimit="3" stroke-linejoin="round" stroke-linecap="round" stroke-width=".05" fill="none" d="M23.75 17.9l.5-.45.35-.05h.4q.5.05.65.9v1.25l-.7 1.85-.7 1.05-.5.45-.2.25-.7.75-.5.2h-.45l-.3-.05-.1-.2q-.1-.2.1-.8l.25-.8.55-1.35.6-1.55q.25-.7.75-1.45z"/><path fill="#f7d2bb" d="M2.2 22.85l.2.25.7.75.5.2h.45l.3-.05.1-.2q.1-.2-.1-.8l-.5-.3.05-.05q-.65-.7-1.3-1l-.7-.3-.25-.3V21l-.25-.35-.3-.85q-.3-1.7.55-1.9l.55-.05-.5-.45-.35-.05h-.4q-.5.05-.65.9v.35l.1.55q.3 1.75 1.3 2.35l1.6 1 .15.1-1.15-.15-.15.25.05.15M1.1 17.6l-.65.9.05.25-.05-.1q-.1-.7.55-1.1l.1.05m-.3 2.1l.55 1.05-.6-.75-.05-.25.1-.05m2.4 3.35q.65-.2.95.6l-.2.1-.15.05-.5-.1-.25-.35-.5-.5.65.2"/><path fill="#f9c29f" d="M2.15 22.7l.15-.25 1.15.15-.15-.1-1.6-1q-1-.6-1.3-2.35l-.1-.55v.9l.7 1.85.7 1.05.5.45-.05-.15"/><path fill="#f9e1d2" d="M1 17.55q-.65.4-.55 1.1l.05.1-.05-.25.65-.9-.1-.05m-.3 2.2l.05.25.6.75L.8 19.7l-.1.05m1.85 3.1l.5.5.25.35.5.1.15-.05.2-.1q-.3-.8-.95-.6l-.65-.2"/><path fill="url(#b)" d="M4.35 23l-.25-.8-.55-1.35-.6-1.55q-.25-.7-.75-1.45l-.55.05q-.85.2-.55 1.9l.3.85.25.35v.05l.25.3.7.3q.65.3 1.3 1l-.05.05.5.3"/><path stroke="#fd9e66" stroke-miterlimit="3" stroke-linejoin="round" stroke-linecap="round" stroke-width=".05" fill="none" d="M2.2 17.85l-.5-.45-.35-.05h-.4q-.5.05-.65.9v1.25l.7 1.85.7 1.05.5.45.2.25.7.75.5.2h.45l.3-.05.1-.2q.1-.2-.1-.8l-.25-.8-.55-1.35-.6-1.55q-.25-.7-.75-1.45z"/><path fill="#ffecd9" d="M20.7 13.15q.7 2.05.7 4.25v2.2q-.1 3.15-1.75 5.65l-1.35 1.1q-1.3.95-2.05 2.75-.8 1.8-2.2 1.95l-2.3-.05q-.95-.2-1.9-1.55l-1.25-1.9L7 25.4q-1.25-1.6-1.35-3.1l-.35-4.4-.05-3.75q.15-.95.95-1.95 3-1.85 7.1-2.2h.05l.85-.1q5.85 1.2 6.5 3.25"/><path fill="url(#c)" d="M24.05 16.35l-.7 2.7-1.15 4.25q-.8 2.6-2.4 4.45-1.7 1.85-4.65 3.8l-1.65.3-.9-.05-1.6-.25q-3.5-2.3-5.05-4.35L5 25.85Q4 24.1 3.05 20.3l-1.7-5.7-.05-.6-.05-.3v-.65l-.05-.6v-.95l.3-2.2q.3-1.75 1.2-3.15.75-1.45 1.9-2.55Q8.05-.05 12.95 0q4.85-.05 8.3 3.6 3.05 3.15 3.4 7.55l.15 1.15v.75l-.55 2.55-.05.15-.15.6M14.2 9.9l-.85.1h-.05q-4.1.35-7.1 2.2-.8 1-.95 1.95l.05 3.75.35 4.4q.1 1.5 1.35 3.1l1.6 2.15 1.25 1.9q.95 1.35 1.9 1.55l2.3.05q1.4-.15 2.2-1.95.75-1.8 2.05-2.75l1.35-1.1q1.65-2.5 1.75-5.65v-2.2q0-2.2-.7-4.25-.65-2.05-6.5-3.25"/><path fill="url(#d)" d="M24.25 15.6l-.05.15.05-.15"/><path stroke="#fd9e66" stroke-miterlimit="3" stroke-linejoin="round" stroke-linecap="round" stroke-width=".05" fill="none" d="M24.05 16.35l.15-.6.05-.15-.05.15m.05-.15l.55-2.55v-.75l-.15-1.15q-.35-4.4-3.4-7.55Q17.8-.05 12.95 0 8.05-.05 4.6 3.6 3.45 4.7 2.7 6.15q-.9 1.4-1.2 3.15l-.3 2.2v.95l.05.6v.65l.05.3.05.6 1.7 5.7Q4 24.1 5 25.85l.95 1.35Q7.5 29.25 11 31.55l1.6.25.9.05 1.65-.3q2.95-1.95 4.65-3.8 1.6-1.85 2.4-4.45l1.15-4.25.7-2.7.2-.75z"/><path fill="url(#e)" d="M6.85 17.1q1.95.6 3.25 2.85 1.35 2.2 1.25 4.7-.05 2.5-1.5 3.85-1.3 1.25-3 .8l-.45-.45Q5.15 27.6 4.7 25.7L3.4 21l-.65-2.4.65-.75q1.45-1.35 3.45-.75"/><path fill="url(#f)" d="M22.25 17.7l.9 1-.65 2.3-1.3 4.7q-.5 1.9-1.75 3.15l-.5.5q-1.55.3-2.8-.8-1.45-1.3-1.55-3.9-.25-2.4 1.05-4.7 1.25-2.2 3.2-2.9 1.9-.6 3.4.65"/><path fill="url(#g)" d="M13.7.35l.1.05q6.3 1.7 7.35 2.85 2.25 2.6 2.25 5.05 0 4-6.8 4l-1.9-.3q-.65-.5-1.3-2.3-.65-2-.55-3.1l-.05-2.45q0-2.35.9-3.8"/><path fill="url(#h)" d="M23.65 14.85l.25-2.2q0-3.5-1.9-6.75-2.45-4.05-6.6-5h.45q3.9.6 6.3 3.95 2.1 2.85 2.1 5.8l-.55 4.2h-.05"/><path fill="url(#i)" d="M3.95 6.1q-1.9 3.2-1.9 6.2 0 1.95.55 3.3v.25h-.05q-.95-3-.95-5.5l.15-1.5q0-1.15 2.4-4.35Q5.85 1.95 9.1.8h.05q-3.2 1.9-5.2 5.3"/><path fill="url(#j)" d="M15.05.2l1.45.45 1.45.65q.9.35 2.15 1.4l2.1 2.5q-.5 2.45-2.8 4.25-2.8 2.3-6.85 2.3-4 0-6.9-2.3-2.55-2.05-2.8-4.9l1.2-.9 2.8-1.8Q8.65.8 10.45.35l2.45-.3 2.15.15"/></g></svg>