<svg width="26" height="32" xmlns="http://www.w3.org/2000/svg">
 <defs>
  <radialGradient fy="0" fx="0" r="819.2" cy="0" cx="0" spreadMethod="pad" gradientTransform="matrix(0.0043299999088048935,0,0,0.0043299999088048935,23.09998321533203,19.850000381469727)" gradientUnits="userSpaceOnUse" id="a">
   <stop stop-color="#d7914a" offset="0"/>
   <stop stop-color="#f5c9ab" offset="0.62"/>
  </radialGradient>
  <radialGradient fy="0" fx="0" r="819.2" cy="0" cx="0" spreadMethod="pad" gradientTransform="matrix(-0.0043299999088048935,0,0,0.0043299999088048935,2.849987030029297,19.799999237060547)" gradientUnits="userSpaceOnUse" id="b">
   <stop stop-color="#d7914a" offset="0"/>
   <stop stop-color="#f5c9ab" offset="0.62"/>
  </radialGradient>
  <radialGradient fy="0" fx="0" r="819.2" cy="0" cx="0" spreadMethod="pad" gradientTransform="matrix(0.016540000215172768,0,0,0.024480000138282776,12.799988746643066,18.850000381469727)" gradientUnits="userSpaceOnUse" id="c">
   <stop stop-color="#ffecd9" offset="0.553"/>
   <stop stop-color="#faa684" offset="1"/>
  </radialGradient>
  <radialGradient fy="0" fx="41" r="819.2" cy="0" cx="0" spreadMethod="pad" gradientTransform="matrix(0.01281999982893467,0,0,0.012419999577105045,12.399988174438477,-3.8000011444091797)" gradientUnits="userSpaceOnUse" id="d">
   <stop stop-color="#fff" offset="0"/>
   <stop stop-color="#ffecd9" offset="0.988"/>
  </radialGradient>
  <radialGradient fy="0" fx="0" r="819.2" cy="0" cx="0" spreadMethod="pad" gradientTransform="matrix(0.004230000078678131,-0.003969999961555004,0.003949999809265137,0.006519999820739031,6.24998664855957,23.099998474121094)" gradientUnits="userSpaceOnUse" id="e">
   <stop stop-opacity="0.451" stop-color="#ff9c9c" offset="0"/>
   <stop stop-opacity="0.231" stop-color="#ffc1bf" offset="0.565"/>
   <stop stop-opacity="0" stop-color="#ffeddb" offset="1"/>
  </radialGradient>
  <radialGradient fy="0" fx="48" r="819.2" cy="0" cx="0" spreadMethod="pad" gradientTransform="matrix(-0.00431999983265996,-0.0038799999747425318,-0.0037499999161809683,0.0066200001165270805,20.099985122680664,22.899999618530273)" gradientUnits="userSpaceOnUse" id="f">
   <stop stop-opacity="0.451" stop-color="#ff9c9c" offset="0"/>
   <stop stop-opacity="0.231" stop-color="#ffc1bf" offset="0.565"/>
   <stop stop-opacity="0" stop-color="#ffeddb" offset="1"/>
  </radialGradient>
  <radialGradient fy="0" fx="0" r="819.2" cy="0" cx="0" spreadMethod="pad" gradientTransform="matrix(0.012470000423491001,0,0,0.012090000323951244,20.249984741210938,3.799999237060547)" gradientUnits="userSpaceOnUse" id="g">
   <stop stop-opacity="0.161" stop-color="#fff" offset="0"/>
   <stop stop-opacity="0" stop-color="#fff" offset="1"/>
  </radialGradient>
  <radialGradient fy="0" fx="0" r="819.2" cy="0" cx="0" spreadMethod="pad" gradientTransform="matrix(0.010329999960958958,0,0,0.010010000318288803,19.849985122680664,7.899999618530273)" gradientUnits="userSpaceOnUse" id="h">
   <stop stop-opacity="0.643" stop-color="#fff" offset="0"/>
   <stop stop-opacity="0" stop-color="#fff" offset="1"/>
  </radialGradient>
  <radialGradient fy="0" fx="0" r="819.2" cy="0" cx="0" spreadMethod="pad" gradientTransform="matrix(0.010710000060498714,0,0,0.010379999876022339,5.399986267089844,8.34999942779541)" gradientUnits="userSpaceOnUse" id="i">
   <stop stop-opacity="0.502" stop-color="#fff" offset="0"/>
   <stop stop-opacity="0" stop-color="#fff" offset="1"/>
  </radialGradient>
  <radialGradient fy="0" fx="0" r="819.2" cy="0" cx="0" spreadMethod="pad" gradientTransform="matrix(0.011959999799728394,0,0,0.011599999852478504,12.549988746643066,3.8999996185302734)" gradientUnits="userSpaceOnUse" id="j">
   <stop stop-opacity="0.502" stop-color="#fff" offset="0"/>
   <stop stop-opacity="0" stop-color="#fff" offset="1"/>
  </radialGradient>
 </defs>
 <g>
  <title>background</title>
  <rect fill="none" id="canvas_background" height="402" width="582" y="-1" x="-1"/>
 </g>
 <g>
  <title>Layer 1</title>
  <g id="svg_1">
   <path id="svg_2" fill="#f7d2bb" d="m23.749985,22.9l-0.200001,0.25l-0.700001,0.75l-0.5,0.199999l-0.449999,0l-0.300001,-0.049999l-0.099998,-0.200001q-0.1,-0.199999 0.099998,-0.799999l0.5,-0.299999l-0.049999,-0.049999l1.299999,-1l0.700001,-0.300001l0.25,-0.300001l0,-0.049999l0.25,-0.349998l0.299999,-0.85q0.300001,-1.700001 -0.549999,-1.900002l-0.549999,-0.049999l0.5,-0.450001l0.349998,-0.049999l0.400002,0q0.5,0.049999 0.65,0.9l0,0.35l-0.1,0.549999q-0.299999,1.750002 -1.299999,2.35l-1.6,1l-0.15,0.1l1.15,-0.15l0.15,0.25l-0.049999,0.15m1.099998,-5.25q0.050001,0.25 0.650002,0.9l-0.049999,0.25l0.049999,-0.1q0.099998,-0.699999 -0.549999,-1.099998l-0.100002,0.049999m0.300001,2.1l-0.550001,1.049999l0.600002,-0.75l0.049999,-0.25l-0.1,-0.049999m-2.4,3.349998q-0.650002,-0.199999 -0.950001,0.600002l0.200001,0.099998l0.15,0.049999l0.5,-0.099998l0.25,-0.35l0.5,-0.5l-0.65,0.199999"/>
   <path id="svg_3" fill="#f9c29f" d="m23.799984,22.75l-0.15,-0.25l-1.15,0.15l0.15,-0.1l1.6,-1q1,-0.599998 1.299999,-2.35l0.1,-0.549999l0,0.9l-0.699999,1.85l-0.700001,1.050001l-0.5,0.449999l0.049999,-0.15"/>
   <path id="svg_4" fill="#f9e1d2" d="m24.949986,17.6q0.649998,0.4 0.549999,1.099998l-0.049999,0.1l0.049999,-0.25q-0.6,-0.65 -0.650002,-0.9l0.100002,-0.049999m0.299999,2.199999l-0.049999,0.25l-0.600002,0.75l0.550001,-1.049999l0.1,0.049999m-1.85,3.1l-0.5,0.5l-0.25,0.35l-0.5,0.099998l-0.15,-0.049999l-0.200001,-0.099998q0.299999,-0.800001 0.950001,-0.600002l0.65,-0.199999"/>
   <path id="svg_5" fill="url(#a)" d="m21.599983,23.049999l0.25,-0.799999l0.550001,-1.35l0.6,-1.549999q0.25,-0.700001 0.75,-1.450001l0.549999,0.049999q0.85,0.200001 0.549999,1.900002l-0.299999,0.85l-0.25,0.349998l0,0.049999l-0.25,0.300001l-0.700001,0.300001l-1.299999,1l0.049999,0.049999l-0.5,0.299999"/>
   <path id="svg_6" stroke="#fd9e66" stroke-miterlimit="3" stroke-linejoin="round" stroke-linecap="round" stroke-width="0.05" fill="none" d="m23.749985,17.9l0.5,-0.450001l0.349998,-0.049999l0.400002,0q0.5,0.049999 0.65,0.9l0,1.25l-0.699999,1.85l-0.700001,1.050001l-0.5,0.449999l-0.200001,0.25l-0.700001,0.75l-0.5,0.199999l-0.449999,0l-0.300001,-0.049999l-0.099998,-0.200001q-0.1,-0.199999 0.099998,-0.799999l0.25,-0.799999l0.550001,-1.35l0.6,-1.549999q0.25,-0.700001 0.75,-1.450001z"/>
   <path id="svg_7" fill="#f7d2bb" d="m2.199987,22.849998l0.2,0.25l0.7,0.75l0.5,0.200001l0.450001,0l0.299998,-0.049999l0.1,-0.200001q0.1,-0.200001 -0.1,-0.799999l-0.499999,-0.299999l0.05,-0.050001q-0.65,-0.699999 -1.3,-1l-0.7,-0.300001l-0.25,-0.299999l0,-0.049999l-0.25,-0.35l-0.3,-0.85q-0.299999,-1.699999 0.55,-1.9l0.550001,-0.049999l-0.5,-0.450001l-0.35,-0.049999l-0.4,0q-0.5,0.049999 -0.65,0.9l0,0.35l0.099999,0.549999q0.3,1.75 1.3,2.35l1.600001,1l0.15,0.099998l-1.15,-0.149998l-0.150001,0.25l0.05,0.149998m-1.100001,-5.249998l-0.65,0.9l0.05,0.25l-0.05,-0.1q-0.1,-0.700001 0.55,-1.1l0.099999,0.050001m-0.299999,2.099998l0.549999,1.050001l-0.599999,-0.75l-0.05,-0.25l0.1,-0.050001m2.4,3.35q0.65,-0.200001 0.949999,0.6l-0.2,0.1l-0.149999,0.049999l-0.5,-0.099998l-0.25,-0.350002l-0.5,-0.5l0.65,0.200001"/>
   <path id="svg_8" fill="#f9c29f" d="m2.149987,22.700001l0.150001,-0.25l1.15,0.149998l-0.15,-0.099998l-1.600001,-1q-1,-0.6 -1.3,-2.35l-0.099999,-0.549999l0,0.9l0.7,1.849998l0.7,1.050001l0.5,0.449999l-0.05,-0.149998"/>
   <path id="svg_9" fill="#f9e1d2" d="m0.999987,17.549999q-0.650001,0.4 -0.55,1.1l0.05,0.1l-0.05,-0.25l0.65,-0.9l-0.099999,-0.050001m-0.3,2.200001l0.05,0.25l0.599999,0.75l-0.549999,-1.050001l-0.1,0.050001m1.850001,3.099998l0.5,0.5l0.25,0.350002l0.5,0.099998l0.149999,-0.049999l0.2,-0.1q-0.3,-0.800001 -0.949999,-0.6l-0.65,-0.200001"/>
   <path id="svg_10" fill="url(#b)" d="m4.349986,23l-0.25,-0.799999l-0.549999,-1.350002l-0.6,-1.549999q-0.25,-0.699999 -0.75,-1.449999l-0.550001,0.049999q-0.849999,0.200001 -0.55,1.9l0.3,0.85l0.25,0.35l0,0.049999l0.25,0.299999l0.7,0.300001q0.650001,0.300001 1.3,1l-0.05,0.050001l0.499999,0.299999"/>
   <path id="svg_11" stroke="#fd9e66" stroke-miterlimit="3" stroke-linejoin="round" stroke-linecap="round" stroke-width="0.05" fill="none" d="m2.199987,17.85l-0.5,-0.450001l-0.35,-0.049999l-0.4,0q-0.5,0.049999 -0.65,0.9l0,1.25l0.7,1.849998l0.7,1.050001l0.5,0.449999l0.2,0.25l0.7,0.75l0.5,0.200001l0.450001,0l0.299998,-0.049999l0.1,-0.200001q0.1,-0.200001 -0.1,-0.799999l-0.25,-0.799999l-0.549999,-1.350002l-0.6,-1.549999q-0.25,-0.699999 -0.75,-1.449999z"/>
   <path id="svg_12" fill="#ffecd9" d="m20.699986,13.15q0.699999,2.05 0.699999,4.25l0,2.200001q-0.1,3.15 -1.75,5.65l-1.35,1.099998q-1.299999,0.950001 -2.049999,2.75q-0.799996,1.800001 -2.199996,1.950001l-2.3,-0.049999q-0.950001,-0.200001 -1.9,-1.549999l-1.25,-1.900002l-1.600002,-2.15q-1.25,-1.6 -1.35,-3.1l-0.35,-4.4l-0.05,-3.75q0.15,-0.95 0.95,-1.95q3.000002,-1.85 7.100002,-2.2l0.049999,0l0.85,-0.1q5.849996,1.2 6.499997,3.25"/>
   <path id="svg_13" fill="url(#c)" d="m24.049984,16.35l-0.700001,2.699999l-1.149998,4.25q-0.800001,2.6 -2.400002,4.450001q-1.699999,1.849998 -4.649996,3.799999l-1.65,0.299999l-0.900001,-0.049999l-1.599999,-0.25q-3.500002,-2.299999 -5.050002,-4.349998l-0.95,-1.350002q-0.999999,-1.75 -1.949999,-5.549999l-1.700001,-5.7l-0.049999,-0.599999l-0.05,-0.3l0,-0.650001l-0.05,-0.599999l0,-0.95l0.3,-2.200001q0.3,-1.75 1.2,-3.15q0.75,-1.45 1.899999,-2.55q3.450001,-3.65 8.350002,-3.599999q4.849996,-0.05 8.299996,3.599999q3.049999,3.150001 3.4,7.55l0.15,1.15l0,0.75l-0.549999,2.55l-0.049999,0.150001l-0.150002,0.6m-9.849996,-6.450001l-0.85,0.1l-0.049999,0q-4.1,0.349999 -7.100002,2.2q-0.8,1 -0.95,1.95l0.05,3.75l0.35,4.4q0.1,1.5 1.35,3.1l1.600002,2.15l1.25,1.900002q0.949999,1.349998 1.9,1.549999l2.3,0.049999q1.4,-0.15 2.199996,-1.950001q0.75,-1.799999 2.049999,-2.75l1.35,-1.099998q1.65,-2.5 1.75,-5.65l0,-2.200001q0,-2.2 -0.699999,-4.25q-0.650002,-2.05 -6.499997,-3.25"/>
   <path id="svg_14" fill="url(#d)" d="m24.249985,15.599999l-0.049999,0.150001l0.049999,-0.150001"/>
   <path id="svg_15" stroke="#fd9e66" stroke-miterlimit="3" stroke-linejoin="round" stroke-linecap="round" stroke-width="0.05" fill="none" d="m24.049984,16.35l0.150002,-0.6l0.049999,-0.150001l-0.049999,0.150001m0.049999,-0.150001l0.549999,-2.55l0,-0.75l-0.15,-1.15q-0.35,-4.4 -3.4,-7.55q-3.450001,-3.65 -8.299996,-3.599999q-4.900002,-0.05 -8.350002,3.599999q-1.149999,1.1 -1.899999,2.55q-0.9,1.4 -1.2,3.15l-0.3,2.200001l0,0.95l0.05,0.599999l0,0.650001l0.05,0.3l0.049999,0.599999l1.700001,5.7q0.95,3.799999 1.949999,5.549999l0.95,1.350002q1.55,2.049999 5.050002,4.349998l1.599999,0.25l0.900001,0.049999l1.65,-0.299999q2.949997,-1.950001 4.649996,-3.799999q1.6,-1.85 2.400002,-4.450001l1.149998,-4.25l0.700001,-2.699999l0.200001,-0.750001z"/>
   <path id="svg_16" fill="url(#e)" d="m6.849987,17.1q1.950001,0.599998 3.250002,2.85q1.349999,2.199999 1.249999,4.699999q-0.049999,2.5 -1.499999,3.85q-1.300001,1.25 -3.000002,0.799999l-0.45,-0.450001q-1.25,-1.25 -1.7,-3.149998l-1.299999,-4.700001l-0.65,-2.4l0.65,-0.75q1.449999,-1.35 3.449999,-0.75"/>
   <path id="svg_17" fill="url(#f)" d="m22.249985,17.699999l0.9,1l-0.65,2.300001l-1.299999,4.700001q-0.5,1.899998 -1.75,3.149998l-0.5,0.5q-1.550001,0.300001 -2.799999,-0.799999q-1.449998,-1.299999 -1.549998,-3.9q-0.25,-2.4 1.05,-4.699999q1.249996,-2.200001 3.199997,-2.900002q1.9,-0.6 3.4,0.65"/>
   <path id="svg_18" fill="url(#g)" d="m13.699988,0.349999l0.1,0.05q6.299996,1.7 7.349996,2.85q2.25,2.599999 2.25,5.049999q0,4 -6.799999,4l-1.899997,-0.299999q-0.65,-0.5 -1.3,-2.3q-0.65,-2 -0.55,-3.1l-0.049999,-2.45q0,-2.35 0.9,-3.8"/>
   <path id="svg_19" fill="url(#h)" d="m23.649984,14.849999l0.25,-2.2q0,-3.5 -1.9,-6.75q-2.450001,-4.05 -6.599997,-5l0.450001,0q3.899996,0.6 6.299995,3.95q2.1,2.85 2.1,5.8l-0.549999,4.2l-0.050001,0"/>
   <path id="svg_20" fill="url(#i)" d="m3.949987,6.099999q-1.9,3.2 -1.9,6.2q0,1.950001 0.55,3.3l0,0.25l-0.049999,0q-0.950001,-3 -0.950001,-5.5l0.150001,-1.5q0,-1.15 2.4,-4.349999q1.7,-2.55 4.950002,-3.700001l0.049999,0q-3.200002,1.900001 -5.200001,5.3"/>
   <path id="svg_21" fill="url(#j)" d="m15.049988,0.2l1.449997,0.45l1.450001,0.65q0.9,0.35 2.15,1.400001l2.1,2.5q-0.5,2.45 -2.800001,4.25q-2.799999,2.3 -6.849996,2.3q-4.000001,0 -6.900002,-2.3q-2.549999,-2.05 -2.799999,-4.900002l1.200001,-0.899999l2.799999,-1.8q1.800002,-1.05 3.600002,-1.5l2.45,-0.3l2.15,0.150001"/>
  </g>
 </g>
</svg>