<?xml version="1.0" encoding="utf-8"?>
<svg version="1.1" id="Layer_1"
xmlns="http://www.w3.org/2000/svg"
xmlns:xlink="http://www.w3.org/1999/xlink"
xmlns:author="http://www.sothink.com"
width="20px" height="29px"
xml:space="preserve">
<g id="77" transform="matrix(1, 0, 0, 1, -60.4, -17.15)">
<path style="fill:#FEDEC1;fill-opacity:1" d="M69.95,17.3L70 17.3Q74.25 17.25 78.55 20.5L78.9 23.95L78.95 24.15L79.1 25.1L79.3 26.9L79.45 31.2L79.25 36.1L78.95 39.35L78.25 40.75L76.2 42.55L73.3 44.8L71.95 45.6L70.15 46.05L69.95 46.05L69.8 46.05L67.95 45.6L66.65 44.8L63.7 42.55L61.7 40.75Q61.15 40.15 60.95 39.35Q60.75 38.55 60.65 36.1L60.5 31.2L60.6 26.9L60.85 25.1L61 24.15L61 23.95L61.4 20.5Q65.65 17.25 69.9 17.3L69.95 17.3" />
<path style="fill:none;stroke-width:0.25;stroke-linecap:round;stroke-linejoin:round;stroke-miterlimit:3;stroke:#F1A585;stroke-opacity:1" d="M69.95,17.3L70 17.3Q74.25 17.25 78.55 20.5L78.9 23.95L78.95 24.15L79.1 25.1L79.3 26.9L79.45 31.2L79.25 36.1L78.95 39.35L78.25 40.75L76.2 42.55L73.3 44.8L71.95 45.6L70.15 46.05L69.95 46.05L69.8 46.05L67.95 45.6L66.65 44.8L63.7 42.55L61.7 40.75Q61.15 40.15 60.95 39.35Q60.75 38.55 60.65 36.1L60.5 31.2" />
<path style="fill:none;stroke-width:0.25;stroke-linecap:round;stroke-linejoin:round;stroke-miterlimit:3;stroke:#F1A585;stroke-opacity:1" d="M60.5,31.2L60.6 26.9L60.85 25.1L61 24.15L61 23.95L61.4 20.5Q65.65 17.25 69.9 17.3L69.95 17.3" />
</g>
</svg>
