<?xml version="1.0" encoding="utf-8"?>
<svg version="1.1" id="Layer_1"
xmlns="http://www.w3.org/2000/svg"
xmlns:xlink="http://www.w3.org/1999/xlink"
xmlns:author="http://www.sothink.com"
width="20px" height="29px"
xml:space="preserve">
<g id="70" transform="matrix(1, 0, 0, 1, -60.45, -17.65)">
<path style="fill:#FEDEC1;fill-opacity:1" d="M70,19.3L69.9 19.35L69.85 19.35L69.85 19.3L69.9 19.3L70 19.3M70.05,19.3L70.1 19.3L70.2 19.3L70.2 19.35L70.1 19.35L70.05 19.3" />
<path style="fill:none;stroke-width:0.25;stroke-linecap:round;stroke-linejoin:round;stroke-miterlimit:3;stroke:#F1A585;stroke-opacity:1" d="M69.9,19.3L70 19.3M70.05,19.3L70.1 19.3" />
<path style="fill:#FEDEC1;fill-opacity:1" d="M79.35,30.3L79.3 31.25L79.1 34.5L78.6 38.6L78 42.15Q77.75 43.3 76.85 43.8L74.55 44.85L72.6 45.65L71.45 45.95L70.15 46.05L68.85 46L67.55 45.65L65.45 44.85L63.2 43.8Q62.3 43.3 62 42.15L61.4 38.6L60.9 34.5L60.7 31.25L60.65 30.3L60.65 29.85L60.55 27.9L60.75 25.25L61.25 20.8Q64.75 18.1 69.85 17.8L69.9 17.75L70 17.75L70.05 17.75L70.1 17.75L70.2 17.8Q75.25 18.1 78.75 20.8L79.25 25.25L60.75 25.25L79.25 25.25M79.25,25.25L79.45 27.9L79.4 29.85L79.35 30.3" />
<path style="fill:none;stroke-width:0.25;stroke-linecap:round;stroke-linejoin:round;stroke-miterlimit:3;stroke:#F1A585;stroke-opacity:1" d="M60.65,30.3L60.7 31.25L60.9 34.5L61.4 38.6L62 42.15Q62.3 43.3 63.2 43.8L65.45 44.85L67.55 45.65L68.85 46M71.45,45.95L72.6 45.65L74.55 44.85L76.85 43.8Q77.75 43.3 78 42.15L78.6 38.6L79.1 34.5L79.3 31.25L79.35 30.3" />
<path style="fill:none;stroke-width:0.25;stroke-linecap:round;stroke-linejoin:round;stroke-miterlimit:3;stroke:#F1A585;stroke-opacity:1" d="M79.35,30.3L79.4 29.85L79.45 27.9L79.25 25.25L78.75 20.8Q75.25 18.1 70.2 17.8L70.1 17.75L70.05 17.75M70,17.75L69.9 17.75L69.85 17.8Q64.75 18.1 61.25 20.8L60.75 25.25L60.55 27.9L60.65 29.85L60.65 30.3M68.85,46L70.15 46.05L71.45 45.95" />
<radialGradient
id="RadialGradID_318" gradientUnits="userSpaceOnUse" gradientTransform="matrix(0.00415039, -0.00790405, 0.00331116, 0.00219727, 77.5, 37.4)" spreadMethod ="pad" cx="0" cy="0" r="819.2" fx="228" fy="0" >
<stop  offset="0.12549"  style="stop-color:#F5AF92;stop-opacity:0.4" />
<stop  offset="1"  style="stop-color:#FEDCBC;stop-opacity:0" />
</radialGradient>
<path style="fill:url(#RadialGradID_318) " d="M79.4,28.95L79.4 29.85L79.35 30.3L79.3 31.25L79.1 34.5L78.6 38.6L78.4 40.05L78 42.15Q77.75 43.3 76.85 43.8L75 44.7L74.8 44.8L74.75 44.5Q74.2 43.45 73.2 40.5Q72.2 37.35 72.2 35.5Q72.2 33.65 73.35 32.3Q74.5 30.95 76.2 30.55Q77.9 30.15 79.1 29.2L79.4 28.95" />
<radialGradient
id="RadialGradID_319" gradientUnits="userSpaceOnUse" gradientTransform="matrix(-0.00413513, -0.00790405, -0.0032959, 0.00219727, 62.15, 37.35)" spreadMethod ="pad" cx="0" cy="0" r="819.2" fx="228" fy="0" >
<stop  offset="0.12549"  style="stop-color:#F5AF92;stop-opacity:0.4" />
<stop  offset="1"  style="stop-color:#FEDCBC;stop-opacity:0" />
</radialGradient>
<path style="fill:url(#RadialGradID_319) " d="M60.65,29.85L60.6 29.15L60.85 29.35Q62 30.3 63.7 30.7Q65.4 31.1 66.55 32.45Q67.7 33.75 67.75 35.65Q67.75 37.5 66.7 40.65L65.2 44.4L64.95 44.65L63.2 43.8Q62.3 43.3 62 42.15L61.6 40.05L61.4 38.6L60.9 34.5L60.7 31.25L60.65 30.3L60.65 29.85" />
<radialGradient
id="RadialGradID_320" gradientUnits="userSpaceOnUse" gradientTransform="matrix(0.000762939, 0, 0, 0.00128174, 63.6, 32.8)" spreadMethod ="pad" cx="0" cy="0" r="819.2" fx="0" fy="0" >
<stop  offset="0"  style="stop-color:#FFFFFF;stop-opacity:0.2" />
<stop  offset="1"  style="stop-color:#FFFFFF;stop-opacity:0" />
</radialGradient>
<path style="fill:url(#RadialGradID_320) " d="M63.6,31.8L64 32.15L64.2 32.8L64 33.5L63.6 33.85L63.15 33.5L62.95 32.8L63.15 32.15L63.6 31.8" />
<radialGradient
id="RadialGradID_321" gradientUnits="userSpaceOnUse" gradientTransform="matrix(-0.000762939, 0, 0, 0.00128174, 76.25, 32.8)" spreadMethod ="pad" cx="0" cy="0" r="819.2" fx="0" fy="0" >
<stop  offset="0"  style="stop-color:#FFFFFF;stop-opacity:0.2" />
<stop  offset="1"  style="stop-color:#FFFFFF;stop-opacity:0" />
</radialGradient>
<path style="fill:url(#RadialGradID_321) " d="M75.65,32.8L75.85 32.15Q76.05 31.8 76.3 31.8L76.7 32.15L76.9 32.8L76.7 33.5L76.3 33.85L75.85 33.5L75.65 32.8" />
<radialGradient
id="RadialGradID_322" gradientUnits="userSpaceOnUse" gradientTransform="matrix(1.52588e-005, -0.00212097, 0.00271606, 9.15527e-005, 70, 43.6)" spreadMethod ="pad" cx="0" cy="0" r="819.2" fx="0" fy="0" >
<stop  offset="0.439216"  style="stop-color:#FFFFFF;stop-opacity:0.2" />
<stop  offset="0.976471"  style="stop-color:#F1C9B8;stop-opacity:0" />
</radialGradient>
<path style="fill:url(#RadialGradID_322) " d="M67.3,42.65Q67.5 41.8 68.45 41.75L70 41.75L71.45 41.95Q72.3 42.2 72.5 42.9Q72.7 43.6 72.05 44.25Q71.4 44.85 70.25 45.05Q69.05 45.25 68.1 44.4Q67.15 43.55 67.3 42.65" />
<path style="fill:#F4BBA4;fill-opacity:0.6" d="M67.15,44.9L68 45.25L70.2 45.5Q71.65 45.55 72.95 44.9L72.75 45.1Q72.25 45.5 71.35 45.8L69.3 45.95Q68.15 45.85 67.15 44.9" />
</g>
</svg>
