<?xml version="1.0" encoding="utf-8"?>
<svg version="1.1" id="Layer_1"
xmlns="http://www.w3.org/2000/svg"
xmlns:xlink="http://www.w3.org/1999/xlink"
xmlns:author="http://www.sothink.com"
width="22px" height="29px"
xml:space="preserve">
<g id="64" transform="matrix(1, 0, 0, 1, -59.55, -18.1)">
<path style="fill:#FEDEC1;fill-opacity:1" d="M67.55,45.1Q64.15 42.4 62.9 40.4L62.3 38.6L62.15 38.15L62.05 37.8L61.95 37.45L61.9 37.4L61.9 37.35L60.2 31.9Q59.45 29.25 59.75 26.55L60.05 24.45L60.75 20.4Q65.4 18.15 70.05 18.2L70.2 18.2Q74.85 18.15 79.55 20.4L80.25 24.45L80.5 26.55Q80.85 29.25 80.1 31.9L78.4 37.35L78.35 37.4L78.35 37.45L78.25 37.8L78.15 38.15L78 38.6L77.4 40.4Q76.1 42.4 72.7 45.1L72.3 45.45Q71.45 46 70.2 46.05L70.05 46.05Q68.8 46 67.95 45.45L67.5 45.15L67.55 45.1" />
<path style="fill:none;stroke-width:0.25;stroke-linecap:round;stroke-linejoin:round;stroke-miterlimit:3;stroke:#F1A585;stroke-opacity:1" d="M67.95,45.45Q68.8 46 70.05 46.05L70.2 46.05Q71.45 46 72.3 45.45L72.7 45.1Q76.1 42.4 77.4 40.4L78 38.6L78.15 38.15L78.25 37.8L78.35 37.45L78.35 37.4L78.4 37.35L80.1 31.9Q80.85 29.25 80.5 26.55L80.25 24.45L79.55 20.4Q74.85 18.15 70.2 18.2L70.05 18.2Q65.4 18.15 60.75 20.4L60.05 24.45L59.75 26.55Q59.45 29.25 60.2 31.9L61.9 37.35L61.9 37.4L61.95 37.45L62.05 37.8L62.15 38.15L62.3 38.6L62.9 40.4Q64.15 42.4 67.55 45.1L67.95 45.45z" />
</g>
</svg>
