<?xml version="1.0" encoding="utf-8"?>
<svg version="1.1" id="Layer_1"
xmlns="http://www.w3.org/2000/svg"
xmlns:xlink="http://www.w3.org/1999/xlink"
xmlns:author="http://www.sothink.com"
width="22px" height="28px"
xml:space="preserve">
<g id="65" transform="matrix(1, 0, 0, 1, -59.45, -18.35)">
<path style="fill:#FEDEC1;fill-opacity:1" d="M70.15,18.45L70.2 18.45Q74.8 18.4 79.45 20.5L80.4 26.45Q80.75 29.15 80 31.8L79.1 34.65L78.4 37.4L77.55 40.05Q76.9 42.15 74.85 43.75L72.25 45.55L71.2 45.9L70.2 45.95L70.15 45.95L70.1 45.95L70 45.95L69.95 45.95L69.85 45.95L68.9 45.9L67.85 45.55L65.25 43.75Q63.2 42.15 62.5 40.05L61.65 37.4L60.95 34.65L60.1 31.8Q59.35 29.15 59.65 26.45Q60 23.6 60.65 20.5Q65.25 18.4 69.85 18.45L69.95 18.45L70 18.45L70.1 18.45L70.15 18.45" />
<path style="fill:none;stroke-width:0.25;stroke-linecap:round;stroke-linejoin:round;stroke-miterlimit:3;stroke:#F1A585;stroke-opacity:1" d="M70.15,18.45L70.2 18.45Q74.8 18.4 79.45 20.5L80.4 26.45Q80.75 29.15 80 31.8L79.1 34.65L78.4 37.4L77.55 40.05Q76.9 42.15 74.85 43.75L72.25 45.55L71.2 45.9L70.2 45.95L70.15 45.95M70,45.95L69.95 45.95M68.9,45.9L67.85 45.55L65.25 43.75Q63.2 42.15 62.5 40.05L61.65 37.4" />
<path style="fill:none;stroke-width:0.25;stroke-linecap:round;stroke-linejoin:round;stroke-miterlimit:3;stroke:#F1A585;stroke-opacity:1" d="M70.15,45.95L70.1 45.95L70 45.95M69.95,45.95L69.85 45.95L68.9 45.9M61.65,37.4L60.95 34.65L60.1 31.8Q59.35 29.15 59.65 26.45Q60 23.6 60.65 20.5Q65.25 18.4 69.85 18.45L69.95 18.45L70 18.45L70.1 18.45" />
</g>
</svg>
