<?xml version="1.0" encoding="utf-8"?>
<svg version="1.1" id="Layer_1"
xmlns="http://www.w3.org/2000/svg"
xmlns:xlink="http://www.w3.org/1999/xlink"
xmlns:author="http://www.sothink.com"
width="22px" height="29px"
xml:space="preserve">
<g id="63" transform="matrix(1, 0, 0, 1, -59.55, -17.65)">
<path style="fill:#FEDEC1;fill-opacity:1" d="M70.15,46.05L70.05 46.05L69.55 46L68.65 45.7L67.75 45.05L65.8 43.15L63.2 40.25Q62.1 38.85 61.4 36.1L60.05 31.3Q59.45 29.25 59.75 26.55L60.1 23.95L60.75 20.1Q65.4 17.7 70.05 17.75L70.2 17.75Q74.85 17.7 79.55 20.1L80.15 23.95L60.1 23.95L80.15 23.95M80.15,23.95L80.5 26.55Q80.85 29.25 80.2 31.3L78.9 36.1Q78.15 38.85 77.05 40.25L74.5 43.15L72.55 45.05L71.65 45.7L70.7 46L70.2 46.05L70.15 46.05" />
<path style="fill:none;stroke-width:0.25;stroke-linecap:round;stroke-linejoin:round;stroke-miterlimit:3;stroke:#F1A585;stroke-opacity:1" d="M70.2,46.05L70.7 46L71.65 45.7L72.55 45.05L74.5 43.15L77.05 40.25Q78.15 38.85 78.9 36.1L80.2 31.3Q80.85 29.25 80.5 26.55L80.15 23.95L79.55 20.1Q74.85 17.7 70.2 17.75L70.05 17.75Q65.4 17.7 60.75 20.1L60.1 23.95L59.75 26.55Q59.45 29.25 60.05 31.3L61.4 36.1Q62.1 38.85 63.2 40.25L65.8 43.15L67.75 45.05L68.65 45.7L69.55 46L70.05 46.05L70.15 46.05L70.2 46.05M70.05,46.05L70.15 46.05" />
</g>
</svg>
