<?xml version="1.0" encoding="utf-8"?>
<svg version="1.1" id="Layer_1"
xmlns="http://www.w3.org/2000/svg"
xmlns:xlink="http://www.w3.org/1999/xlink"
xmlns:author="http://www.sothink.com"
width="20px" height="29px"
xml:space="preserve">
<g id="61" transform="matrix(1, 0, 0, 1, -60.2, -17.8)">
<path style="fill:#FEDEC1;fill-opacity:1" d="M70.1,18.1L70.2 18.1L70.1 18.1L70.05 18.1L70 18.1L69.95 18.1L69.85 18.1L69.9 18.1L70 18.1L70.05 18.1L70.1 18.1" />
<path style="fill:none;stroke-width:0.25;stroke-linecap:round;stroke-linejoin:round;stroke-miterlimit:3;stroke:#F1A585;stroke-opacity:1" d="M69.9,18.1L70 18.1M70.05,18.1L70.1 18.1" />
<path style="fill:none;stroke-width:0.25;stroke-linecap:round;stroke-linejoin:round;stroke-miterlimit:3;stroke:#F1A585;stroke-opacity:1" d="M70,18.1L70.05 18.1" />
<path style="fill:#FEDEC1;fill-opacity:1" d="M70.05,17.9L70.1 17.95L70.2 17.95Q75.9 18.2 77.65 19.9L78.45 23.35L78.5 23.6L78.55 23.95L79.75 30.1L79.3 34.1L78.45 38.1L77.85 41.05L76.95 42.9L75.9 43.75L74.3 44.6L72.35 45.5L70.15 45.95L67.7 45.5L65.7 44.6L64.15 43.75L63.1 42.9Q62.5 42.2 62.2 41.05L61.55 38.1L60.75 34.1Q60.25 31.9 60.3 30.1L61.45 23.95L61.55 23.6L61.6 23.35L62.4 19.9Q64.15 18.2 69.85 17.95L69.95 17.95L70 17.9L70 17.95L70.05 17.9" />
<path style="fill:none;stroke-width:0.25;stroke-linecap:round;stroke-linejoin:round;stroke-miterlimit:3;stroke:#F1A585;stroke-opacity:1" d="M70.05,17.9L70.1 17.95L70.2 17.95Q75.9 18.2 77.65 19.9L78.45 23.35L78.5 23.6L78.55 23.95L79.75 30.1L79.3 34.1L78.45 38.1L77.85 41.05L76.95 42.9L75.9 43.75L74.3 44.6L72.35 45.5L70.15 45.95L67.7 45.5L65.7 44.6L64.15 43.75L63.1 42.9Q62.5 42.2 62.2 41.05L61.55 38.1L60.75 34.1Q60.25 31.9 60.3 30.1L61.45 23.95L61.55 23.6L61.6 23.35L62.4 19.9Q64.15 18.2 69.85 17.95L69.95 17.95L70 17.9" />
<path style="fill:none;stroke-width:0.25;stroke-linecap:round;stroke-linejoin:round;stroke-miterlimit:3;stroke:#F1A585;stroke-opacity:1" d="M70,17.9L70 17.95L70.05 17.9" />
<radialGradient
id="RadialGradID_286" gradientUnits="userSpaceOnUse" gradientTransform="matrix(0.00402832, -0.00802612, 0.0032196, 0.00224304, 77.3, 37.1)" spreadMethod ="pad" cx="0" cy="0" r="819.2" fx="228" fy="0" >
<stop  offset="0.12549"  style="stop-color:#F5AF92;stop-opacity:0.4" />
<stop  offset="1"  style="stop-color:#FEDCBC;stop-opacity:0" />
</radialGradient>
<path style="fill:url(#RadialGradID_286) " d="M73.15,40.25Q72.15 37.1 72.15 35.2Q72.15 33.3 73.25 31.95Q74.4 30.6 76.05 30.2Q77.7 29.75 78.85 28.8Q79.15 28.45 79.4 28.5L79.45 28.5L79.75 30.1L79.3 34.1L78.45 38.1L77.95 40.5L77.85 41.05L76.95 42.9L75.9 43.75L74.65 44.45L74.55 44.5L74.55 44.45L73.15 40.25" />
<radialGradient
id="RadialGradID_287" gradientUnits="userSpaceOnUse" gradientTransform="matrix(-0.00401306, -0.00802612, -0.00320435, 0.00224304, 62.35, 37.1)" spreadMethod ="pad" cx="0" cy="0" r="819.2" fx="228" fy="0" >
<stop  offset="0.12549"  style="stop-color:#F5AF92;stop-opacity:0.4" />
<stop  offset="1"  style="stop-color:#FEDCBC;stop-opacity:0" />
</radialGradient>
<path style="fill:url(#RadialGradID_287) " d="M65.35,44.4L64.15 43.75L63.1 42.9Q62.5 42.2 62.2 41.05L62.05 40.5L61.95 39.95L61.55 38.1L60.75 34.1Q60.25 31.9 60.3 30.1L60.5 28.85L60.55 28.65L61.15 28.95Q62.25 29.9 63.9 30.35Q65.55 30.75 66.7 32.1Q67.8 33.45 67.8 35.35Q67.8 37.25 66.8 40.4L65.35 44.35L65.35 44.4" />
<path style="fill:none;stroke-width:0.25;stroke-linecap:round;stroke-linejoin:round;stroke-miterlimit:3;stroke:#F1A585;stroke-opacity:1" d="M70.2,18.1Q75.9 18.35 77.65 20L78.1 21.95L78.5 23.6L79.45 28.5L79.75 30.1L79.3 34.1L78.45 38.1L77.95 40.5L77.85 41.05L76.95 42.9L75.9 43.75L74.65 44.45M74.55,44.45Q74.45 44.55 74.3 44.6L72.35 45.5L70.15 45.95L67.7 45.5L65.7 44.6L65.35 44.4L64.15 43.75L63.1 42.9Q62.5 42.2 62.2 41.05L62.05 40.5L61.95 39.95L61.55 38.1L60.75 34.1Q60.25 31.9 60.3 30.1L60.5 28.85Q60.95 26.2 61.55 23.6L61.9 21.95L62.4 20Q64.15 18.35 69.85 18.1M74.55,44.45L74.65 44.45" />
<radialGradient
id="RadialGradID_288" gradientUnits="userSpaceOnUse" gradientTransform="matrix(0.000808716, 0, 0, 0.00134277, 63.35, 32.2)" spreadMethod ="pad" cx="0" cy="0" r="819.2" fx="0" fy="0" >
<stop  offset="0"  style="stop-color:#FFFFFF;stop-opacity:0.2" />
<stop  offset="1"  style="stop-color:#FFFFFF;stop-opacity:0" />
</radialGradient>
<path style="fill:url(#RadialGradID_288) " d="M63.35,31.15L63.8 31.5L64 32.2L63.8 32.9L63.35 33.25Q63.15 33.25 62.95 32.9L62.7 32.2L62.95 31.5Q63.15 31.15 63.35 31.15" />
<radialGradient
id="RadialGradID_289" gradientUnits="userSpaceOnUse" gradientTransform="matrix(-0.000793457, 0, 0, 0.00134277, 76.55, 32.2)" spreadMethod ="pad" cx="0" cy="0" r="819.2" fx="0" fy="0" >
<stop  offset="0"  style="stop-color:#FFFFFF;stop-opacity:0.2" />
<stop  offset="1"  style="stop-color:#FFFFFF;stop-opacity:0" />
</radialGradient>
<path style="fill:url(#RadialGradID_289) " d="M75.95,32.2L76.15 31.5Q76.35 31.15 76.6 31.15L77 31.5L77.2 32.2L77 32.9L76.6 33.25Q76.35 33.25 76.15 32.9L75.95 32.2" />
<radialGradient
id="RadialGradID_290" gradientUnits="userSpaceOnUse" gradientTransform="matrix(1.52588e-005, -0.00219727, 0.00282288, 9.15527e-005, 70, 43.4)" spreadMethod ="pad" cx="0" cy="0" r="819.2" fx="0" fy="0" >
<stop  offset="0.439216"  style="stop-color:#FFFFFF;stop-opacity:0.2" />
<stop  offset="0.976471"  style="stop-color:#F1C9B8;stop-opacity:0" />
</radialGradient>
<path style="fill:url(#RadialGradID_290) " d="M67.2,42.4Q67.4 41.5 68.35 41.45L70 41.45L71.5 41.7Q72.4 41.95 72.6 42.65Q72.85 43.4 72.15 44.05Q71.45 44.7 70.25 44.9Q69 45.1 68.05 44.2Q67.05 43.3 67.2 42.4" />
<path style="fill:#F4BBA4;fill-opacity:0.6" d="M67,44.75L67.9 45.15L70.2 45.4Q71.7 45.4 73.05 44.75L72.85 44.95L71.4 45.7L69.3 45.85Q68.1 45.75 67 44.75" />
</g>
</svg>
