<?xml version="1.0" encoding="utf-8"?>
<svg version="1.1" id="Layer_1"
xmlns="http://www.w3.org/2000/svg"
xmlns:xlink="http://www.w3.org/1999/xlink"
xmlns:author="http://www.sothink.com"
width="19px" height="29px"
xml:space="preserve">
<g id="78" transform="matrix(1, 0, 0, 1, -60.85, -17.7)">
<path style="fill:#FEDEC1;fill-opacity:1" d="M61.05,34.6L60.95 29.1L61.05 26.75L61.05 26.7L61.15 25.6L61.2 24.95L61.2 24.9L61.25 24.2L61.3 23.8L61.7 20.55L64.65 18.95Q67.15 17.85 69.6 17.85L69.95 17.85L70 17.85L70.05 17.85L70.35 17.85Q72.8 17.85 75.3 18.95L78.25 20.55L78.65 23.8L78.7 24.2L78.75 24.9L78.75 24.95L78.85 25.6L78.9 26.7L78.9 26.75L79 29.1L78.9 34.6Q78.8 38.8 78.5 40.55Q78.25 42.3 77.1 43L74.65 44.4L72.5 45.5L70.55 46.05L70 46.1L69.4 46.05L67.45 45.5L65.3 44.4L62.9 43Q61.7 42.3 61.45 40.55Q61.15 38.8 61.05 34.6" />
<path style="fill:none;stroke-width:0.25;stroke-linecap:round;stroke-linejoin:round;stroke-miterlimit:3;stroke:#F1A585;stroke-opacity:1" d="M61.05,34.6L60.95 29.1L61.05 26.75L61.05 26.7L61.15 25.6L61.2 24.95L61.2 24.9L61.25 24.2L61.3 23.8L61.7 20.55L64.65 18.95Q67.15 17.85 69.6 17.85L69.95 17.85L70 17.85L70.05 17.85L70.35 17.85Q72.8 17.85 75.3 18.95L78.25 20.55L78.65 23.8L78.7 24.2L78.75 24.9L78.75 24.95L78.85 25.6L78.9 26.7L78.9 26.75L79 29.1L78.9 34.6" />
<path style="fill:none;stroke-width:0.25;stroke-linecap:round;stroke-linejoin:round;stroke-miterlimit:3;stroke:#F1A585;stroke-opacity:1" d="M78.9,34.6Q78.8 38.8 78.5 40.55Q78.25 42.3 77.1 43L74.65 44.4L72.5 45.5L70.55 46.05L70 46.1L69.4 46.05L67.45 45.5L65.3 44.4L62.9 43Q61.7 42.3 61.45 40.55Q61.15 38.8 61.05 34.6" />
</g>
</svg>
