<?xml version="1.0" encoding="utf-8"?>
<svg version="1.1" id="Layer_1"
xmlns="http://www.w3.org/2000/svg"
xmlns:xlink="http://www.w3.org/1999/xlink"
xmlns:author="http://www.sothink.com"
width="21px" height="29px"
xml:space="preserve">
<g id="84" transform="matrix(1, 0, 0, 1, -59.95, -17.75)">
<path style="fill:#FEDEC1;fill-opacity:1" d="M70.05,17.9L70.1 17.9Q73.3 17.8 76.35 19.2L78.65 20.3L79.35 25.45L60.65 25.45L61.35 20.3L63.65 19.2Q66.7 17.8 69.9 17.9L70 17.9L70.05 17.9M79.35,25.45L79.4 25.7L79.7 27.95Q80.15 31.2 79.75 34.5L79.35 37.45Q79.05 39.75 78.35 41Q77.6 42.2 75.95 43.3L73.05 45.05L71.5 45.8L70.6 45.95L70.05 46L70 46L69.4 45.95L68.5 45.8L66.95 45.05L64.05 43.3Q62.4 42.2 61.7 41Q60.95 39.75 60.65 37.45L60.25 34.5Q59.85 31.2 60.35 27.95L60.65 25.7L60.65 25.45L79.35 25.45" />
<path style="fill:none;stroke-width:0.25;stroke-linecap:round;stroke-linejoin:round;stroke-miterlimit:3;stroke:#F1A585;stroke-opacity:1" d="M70.05,17.9L70.1 17.9Q73.3 17.8 76.35 19.2L78.65 20.3L79.35 25.45L79.4 25.7L79.7 27.95Q80.15 31.2 79.75 34.5L79.35 37.45Q79.05 39.75 78.35 41Q77.6 42.2 75.95 43.3L73.05 45.05L71.5 45.8L70.6 45.95L70.05 46L70 46L69.4 45.95L68.5 45.8L66.95 45.05L64.05 43.3Q62.4 42.2 61.7 41Q60.95 39.75 60.65 37.45L60.25 34.5Q59.85 31.2 60.35 27.95L60.65 25.7L60.65 25.45L61.35 20.3L63.65 19.2Q66.7 17.8 69.9 17.9L70 17.9" />
</g>
</svg>
