<?xml version="1.0" encoding="utf-8"?>
<svg version="1.1" id="Layer_1"
xmlns="http://www.w3.org/2000/svg"
xmlns:xlink="http://www.w3.org/1999/xlink"
xmlns:author="http://www.sothink.com"
width="19px" height="29px"
xml:space="preserve">
<g id="79" transform="matrix(1, 0, 0, 1, -60.55, -17.7)">
<path style="fill:#FEDEC1;fill-opacity:1" d="M79.25,30.15L79.2 32.5L79 35.15L78.6 38.65Q78.3 41.6 77.35 42.45Q76.45 43.35 74.4 44.6Q72.4 45.9 70.55 46.2L70 46.25L69.35 46.2Q67.5 45.9 65.5 44.6Q63.5 43.35 62.55 42.45Q61.65 41.6 61.3 38.65L60.9 35.15L60.7 32.5L60.65 30.15L60.9 26.65L60.9 26.6L60.95 26.3L61.1 25.35L61.55 20.8L62.05 20.45Q65.85 17.7 70 17.8Q74.05 17.7 77.9 20.45L78.35 20.8L78.85 25.35L61.1 25.35L78.85 25.35M78.85,25.35L78.95 26.3L79 26.6L79 26.65L79.25 30.15" />
<path style="fill:none;stroke-width:0.25;stroke-linecap:round;stroke-linejoin:round;stroke-miterlimit:3;stroke:#F1A585;stroke-opacity:1" d="M79.25,30.15L79 26.65L79 26.6L78.95 26.3L78.85 25.35L78.35 20.8L77.9 20.45Q74.05 17.7 70 17.8Q65.85 17.7 62.05 20.45L61.55 20.8L61.1 25.35L60.95 26.3L60.9 26.6L60.9 26.65L60.65 30.15" />
<path style="fill:none;stroke-width:0.25;stroke-linecap:round;stroke-linejoin:round;stroke-miterlimit:3;stroke:#F1A585;stroke-opacity:1" d="M60.65,30.15L60.7 32.5L60.9 35.15L61.3 38.65Q61.65 41.6 62.55 42.45Q63.5 43.35 65.5 44.6Q67.5 45.9 69.35 46.2L70 46.25L70.55 46.2Q72.4 45.9 74.4 44.6Q76.45 43.35 77.35 42.45Q78.3 41.6 78.6 38.65L79 35.15L79.2 32.5L79.25 30.15" />
<radialGradient
id="RadialGradID_327" gradientUnits="userSpaceOnUse" gradientTransform="matrix(-0.000793457, 0, 0, 0.00134277, 76.5, 38.65)" spreadMethod ="pad" cx="0" cy="0" r="819.2" fx="0" fy="0" >
<stop  offset="0"  style="stop-color:#F7896F;stop-opacity:0.25098" />
<stop  offset="1"  style="stop-color:#E1A293;stop-opacity:0" />
</radialGradient>
<path style="fill:url(#RadialGradID_327) " d="M75.9,38.65L76.1 38L76.55 37.6L76.95 38L77.15 38.65L76.95 39.4L76.55 39.7L76.1 39.4L75.9 38.65" />
<radialGradient
id="RadialGradID_328" gradientUnits="userSpaceOnUse" gradientTransform="matrix(0.000808716, 0, 0, 0.00134277, 63.3, 38.65)" spreadMethod ="pad" cx="0" cy="0" r="819.2" fx="0" fy="0" >
<stop  offset="0"  style="stop-color:#F7896F;stop-opacity:0.25098" />
<stop  offset="1"  style="stop-color:#E1A293;stop-opacity:0" />
</radialGradient>
<path style="fill:url(#RadialGradID_328) " d="M62.65,38.65L62.9 38L63.3 37.6L63.75 38L63.95 38.65L63.75 39.4L63.3 39.7L62.9 39.4L62.65 38.65" />
</g>
</svg>
