<?xml version="1.0" encoding="utf-8"?>
<svg version="1.1" id="Layer_1"
xmlns="http://www.w3.org/2000/svg"
xmlns:xlink="http://www.w3.org/1999/xlink"
xmlns:author="http://www.sothink.com"
width="21px" height="28px"
xml:space="preserve">
<g id="76" transform="matrix(1, 0, 0, 1, -59.85, -18.25)">
<path style="fill:#FEDEC1;fill-opacity:1" d="M70,18.4L70.1 18.4Q74.55 18.3 79 21.5L79.45 25.25L79.75 27.85L79.75 27.9L79.95 29.2L80.05 30.95L79.95 31.8L79.5 34.6L78.7 38.55L77.9 41.65Q77.5 42.5 76.9 43L73.2 45.05Q72 45.9 70.8 46.05L70.1 46.05L70 46.05L69.9 46.05L69.2 46.05Q68 45.9 66.8 45.05L63.1 43Q62.45 42.5 62.1 41.65L61.3 38.55L60.5 34.6Q60.1 32.8 60.05 31.8L59.95 30.95L60.05 29.2L60.25 27.9L60.25 27.85L60.55 25.25L61 21.5Q65.45 18.3 69.9 18.4L70 18.4" />
<path style="fill:none;stroke-width:0.25;stroke-linecap:round;stroke-linejoin:round;stroke-miterlimit:3;stroke:#F1A585;stroke-opacity:1" d="M70,18.4L70.1 18.4Q74.55 18.3 79 21.5L79.45 25.25L79.75 27.85L79.75 27.9L79.95 29.2L80.05 30.95L79.95 31.8L79.5 34.6L78.7 38.55L77.9 41.65Q77.5 42.5 76.9 43L73.2 45.05Q72 45.9 70.8 46.05L70.1 46.05L70 46.05L69.9 46.05L69.2 46.05Q68 45.9 66.8 45.05L63.1 43Q62.45 42.5 62.1 41.65L61.3 38.55L60.5 34.6Q60.1 32.8 60.05 31.8L59.95 30.95" />
<path style="fill:none;stroke-width:0.25;stroke-linecap:round;stroke-linejoin:round;stroke-miterlimit:3;stroke:#F1A585;stroke-opacity:1" d="M59.95,30.95L60.05 29.2L60.25 27.9L60.25 27.85L60.55 25.25L61 21.5Q65.45 18.3 69.9 18.4L70 18.4" />
<radialGradient
id="RadialGradID_325" gradientUnits="userSpaceOnUse" gradientTransform="matrix(0.000808716, 0, 0, 0.00134277, 63.3, 39.4)" spreadMethod ="pad" cx="0" cy="0" r="819.2" fx="0" fy="0" >
<stop  offset="0"  style="stop-color:#F7896F;stop-opacity:0.25098" />
<stop  offset="1"  style="stop-color:#E1A293;stop-opacity:0" />
</radialGradient>
<path style="fill:url(#RadialGradID_325) " d="M63.3,38.35L63.75 38.7L63.95 39.4L63.75 40.1L63.3 40.45L62.9 40.1L62.65 39.4L62.9 38.7L63.3 38.35" />
<radialGradient
id="RadialGradID_326" gradientUnits="userSpaceOnUse" gradientTransform="matrix(-0.000793457, 0, 0, 0.00134277, 76.5, 39.4)" spreadMethod ="pad" cx="0" cy="0" r="819.2" fx="0" fy="0" >
<stop  offset="0"  style="stop-color:#F7896F;stop-opacity:0.25098" />
<stop  offset="1"  style="stop-color:#E1A293;stop-opacity:0" />
</radialGradient>
<path style="fill:url(#RadialGradID_326) " d="M75.9,39.4L76.1 38.7Q76.3 38.35 76.55 38.35L76.95 38.7L77.15 39.4L76.95 40.1L76.55 40.45L76.1 40.1L75.9 39.4" />
</g>
</svg>
