<?xml version="1.0" encoding="utf-8"?>
<svg version="1.1" id="Layer_1"
xmlns="http://www.w3.org/2000/svg"
xmlns:xlink="http://www.w3.org/1999/xlink"
xmlns:author="http://www.sothink.com"
width="21px" height="29px"
xml:space="preserve">
<g id="74" transform="matrix(1, 0, 0, 1, -59.9, -18.05)">
<path style="fill:#FEDEC1;fill-opacity:1" d="M79.2,22.95L79.5 24.7L79.7 26.75L79.85 27.65L80 29.85L79.95 31.8L79.6 34L79.2 36.15L78.8 38.05L78.3 40.15Q78 41.4 77.4 42.15L75.9 43.4L73.55 44.65L71.5 45.7L70 46.15L68.5 45.7L66.45 44.65L64.1 43.4L62.6 42.15Q62 41.4 61.7 40.15L61.2 38.05L60.85 36.15L60.4 34L60.05 31.8L60 29.85Q60 28.7 60.15 27.65L60.3 26.75L60.55 24.7L60.8 22.95L61 21.85Q65.45 18.05 69.9 18.15Q74.55 18.05 79 21.85L79.2 22.95" />
<path style="fill:none;stroke-width:0.25;stroke-linecap:round;stroke-linejoin:round;stroke-miterlimit:3;stroke:#F1A585;stroke-opacity:1" d="M79,21.85Q74.55 18.05 69.9 18.15Q65.45 18.05 61 21.85L60.8 22.95L60.55 24.7L60.3 26.75L60.15 27.65Q60 28.7 60 29.85L60.05 31.8L60.4 34L60.85 36.15L61.2 38.05L61.7 40.15Q62 41.4 62.6 42.15L64.1 43.4L66.45 44.65L68.5 45.7L70 46.15L71.5 45.7L73.55 44.65L75.9 43.4L77.4 42.15Q78 41.4 78.3 40.15L78.8 38.05L79.2 36.15L79.6 34L79.95 31.8L80 29.85L79.85 27.65L79.7 26.75L79.5 24.7L79.2 22.95L79 21.85z" />
</g>
</svg>
