<?xml version="1.0" encoding="utf-8"?>
<svg version="1.1" id="Layer_1"
xmlns="http://www.w3.org/2000/svg"
xmlns:xlink="http://www.w3.org/1999/xlink"
xmlns:author="http://www.sothink.com"
width="21px" height="29px"
xml:space="preserve">
<g id="83" transform="matrix(1, 0, 0, 1, -60, -17.45)">
<path style="fill:#FEDEC1;fill-opacity:1" d="M60.35,27.65L60.6 25.45L60.65 25.35L61.35 20L63.65 18.9Q66.7 17.5 70.1 17.55Q73.3 17.5 76.35 18.9L78.65 20L79.4 25.35L79.4 25.45L60.6 25.45L79.4 25.45M79.4,25.45L79.7 27.65Q80.1 30.7 79.8 33.75Q79.65 36 79.3 37.35L78.75 39.05L78.4 39.95L77.65 41.25L76.2 42.65L74.45 43.65Q73.5 44.1 72.5 44.75L71.75 45.15L70.8 45.6L70.15 45.7L70 45.7L69.9 45.7L69.25 45.6L68.3 45.15L67.5 44.75L65.55 43.65L63.8 42.65L62.4 41.25L61.6 39.95L61.25 39.05L60.75 37.35Q60.35 36 60.2 33.75Q59.9 30.7 60.35 27.65" />
<path style="fill:none;stroke-width:0.25;stroke-linecap:round;stroke-linejoin:round;stroke-miterlimit:3;stroke:#F1A585;stroke-opacity:1" d="M60.6,25.45L60.65 25.35L61.35 20L63.65 18.9Q66.7 17.5 70.1 17.55Q73.3 17.5 76.35 18.9L78.65 20L79.4 25.35L79.4 25.45L79.7 27.65Q80.1 30.7 79.8 33.75Q79.65 36 79.3 37.35L78.75 39.05L78.4 39.95L77.65 41.25L76.2 42.65L74.45 43.65Q73.5 44.1 72.5 44.75L71.75 45.15L70.8 45.6L70.15 45.7L70 45.7L69.9 45.7L69.25 45.6L68.3 45.15L67.5 44.75L65.55 43.65L63.8 42.65L62.4 41.25L61.6 39.95L61.25 39.05L60.75 37.35Q60.35 36 60.2 33.75Q59.9 30.7 60.35 27.65L60.6 25.45z" />
</g>
</svg>
