<?xml version="1.0" encoding="utf-8"?>
<svg version="1.1" id="Layer_1"
xmlns="http://www.w3.org/2000/svg"
xmlns:xlink="http://www.w3.org/1999/xlink"
xmlns:author="http://www.sothink.com"
width="21px" height="28px"
xml:space="preserve">
<g id="86" transform="matrix(1, 0, 0, 1, 0, 0)">
<path style="fill:#FFFFFF;fill-opacity:1" d="M17.95,19.9L18 19.95L17.95 20.15L17.85 20.35L17.95 19.9" />
<radialGradient
id="RadialGradID_339" gradientUnits="userSpaceOnUse" gradientTransform="matrix(0.0128479, 0.000473022, -0.000442505, 0.0136108, 10.65, 0.3)" spreadMethod ="pad" cx="0" cy="0" r="819.2" fx="0" fy="0" >
<stop  offset="0"  style="stop-color:#FBBD9D;stop-opacity:1" />
<stop  offset="1"  style="stop-color:#FEDEC1;stop-opacity:1" />
</radialGradient>
<path style="fill:url(#RadialGradID_339) " d="M17.85,20.35L16.9 22.85L14.25 26.05L13.45 26.85L13.05 27.1L13 27.1L12.95 27.15L12.6 27.25L12.35 27.3L10.2 27.4L8.65 27.3L8.65 27.25Q7.4 24.85 7.1 23.5L6.8 21.85L6.65 20.55Q6.6 19.5 6.85 18.9L5 17.1Q3.1 15.35 1.85 13.55L1.8 13.5L2 13.05Q2.15 12.45 3 11.45L3.55 10.9L4.05 10.85L6 11.2L6 11.15L4.35 10.55L4.6 10.5L4.25 10.5L4.1 10.5L3.4 10.55L3.1 10.6L2.45 10.75Q2.05 9.55 4.45 7.9L3.7 4.2L3 1.7Q9.6 -1.3 16.3 1.05L16.2 8.1Q17.5 8.8 17.85 9.55L18.25 10.45L17.2 10.35L17.05 10.35L16.65 10.4L16.65 10.45L16.55 10.35L15.55 10.55Q14.8 10.75 13.85 11.7Q14.9 11.05 16.95 10.75Q17.85 11 18.15 11.4L18.6 12.35L18.9 13.3L15.85 17.05L14.05 18.9L14.35 20.55L14.25 21.8L14 23.5L13.05 27.1L13.2 26.95L13.35 26.85L13.75 26.55L16.8 22.8L17.95 19.85L18.15 19.4L18.05 19.7L18.05 19.75L18 19.75L18 19.85L17.95 19.9L17.85 20.35M20.05,12.6L20 12.8L20.05 12.6M19.95,12.85L19.95 13L19.9 13.05L19.95 12.85M19.55,14.35L19.6 14.25L19.75 13.5L19.8 13.45L19.85 13.2L19.8 13.45L19.65 14.2L19.65 14.25L19.6 14.25L19.6 14.3L19.55 14.45L19.55 14.35" />
<radialGradient
id="RadialGradID_340" gradientUnits="userSpaceOnUse" gradientTransform="matrix(0.00384521, 0.000457764, -0.000427246, 0.0040741, 5.2, 7.85)" spreadMethod ="pad" cx="0" cy="0" r="819.2" fx="0" fy="0" >
<stop  offset="0"  style="stop-color:#FBBD9D;stop-opacity:1" />
<stop  offset="1"  style="stop-color:#FEDEC1;stop-opacity:1" />
</radialGradient>
<path style="fill:url(#RadialGradID_340) " d="M3.1,4.55L3.1 4.45L3.15 4.55L3.1 4.55" />
<radialGradient
id="RadialGradID_341" gradientUnits="userSpaceOnUse" gradientTransform="matrix(0.00506592, 0.000610352, -0.000579834, 0.00535583, 14.3, 6.9)" spreadMethod ="pad" cx="0" cy="0" r="819.2" fx="0" fy="0" >
<stop  offset="0"  style="stop-color:#FBBD9D;stop-opacity:1" />
<stop  offset="1"  style="stop-color:#FEDEC1;stop-opacity:1" />
</radialGradient>
<path style="fill:url(#RadialGradID_341) " d="M17.45,1.5L17.5 1.45L17.5 1.5L17.4 2.7L17.45 1.5" />
<radialGradient
id="RadialGradID_342" gradientUnits="userSpaceOnUse" gradientTransform="matrix(0.00941467, 0.00112915, -0.00106812, 0.00996399, 20.3, 21.1)" spreadMethod ="pad" cx="0" cy="0" r="819.2" fx="0" fy="0" >
<stop  offset="0"  style="stop-color:#FBBD9D;stop-opacity:1" />
<stop  offset="1"  style="stop-color:#FEDEC1;stop-opacity:1" />
</radialGradient>
<path style="fill:url(#RadialGradID_342) " d="M17.95,19.9L18 19.85L18 19.75L18.05 19.75L18.05 19.7L18.15 19.4L18.05 19.7L18.05 19.75L18.05 19.8L18 19.85L18 19.9L18 19.95L17.95 19.9" />
<radialGradient
id="RadialGradID_343" gradientUnits="userSpaceOnUse" gradientTransform="matrix(0.00984192, 0.00117493, -0.00109863, 0.0104218, -0.45, 21)" spreadMethod ="pad" cx="0" cy="0" r="819.2" fx="0" fy="0" >
<stop  offset="0"  style="stop-color:#FBBD9D;stop-opacity:1" />
<stop  offset="1"  style="stop-color:#FEDEC1;stop-opacity:1" />
</radialGradient>
<path style="fill:url(#RadialGradID_343) " d="M1.9,3.65L2 2.2L2.25 2.05L1.9 3.65M3.45,21.75L2.7 19.25L2.7 19.2Q4.15 21.15 4.7 20.8Q5.15 20.4 3.7 17.95L1.7 14.65L1.7 14.3L1.75 13.75L1.95 14.2L2.55 15.4Q3.95 17.8 6.35 20.1L6.65 20.55L6.8 21.85L7.1 23.5Q7.4 24.85 8.65 27.25L8.65 27.3L8.35 27.15L8.05 26.95L7.9 26.85L7.5 26.55Q4.8 23.9 3.55 21.9L3.5 21.9L3.45 21.75" />
<radialGradient
id="RadialGradID_344" gradientUnits="userSpaceOnUse" gradientTransform="matrix(0.00842285, 0, 0, 0.00842285, 0.35, 21)" spreadMethod ="pad" cx="0" cy="0" r="819.2" fx="0" fy="0" >
<stop  offset="0"  style="stop-color:#FBBD9D;stop-opacity:1" />
<stop  offset="1"  style="stop-color:#FEDEC1;stop-opacity:1" />
</radialGradient>
<path style="fill:url(#RadialGradID_344) " d="M1.85,13.55Q3.1 15.35 5 17.1L6.85 18.9Q6.6 19.5 6.65 20.55L6.35 20.1Q3.95 17.8 2.55 15.4L1.95 14.2L1.75 13.75L1.8 13.5L1.85 13.55" />
<radialGradient
id="RadialGradID_345" gradientUnits="userSpaceOnUse" gradientTransform="matrix(-0.00976563, 0.0015564, 0.00151062, 0.0103607, 21.45, 20.7)" spreadMethod ="pad" cx="0" cy="0" r="819.2" fx="0" fy="0" >
<stop  offset="0"  style="stop-color:#FBBD9D;stop-opacity:1" />
<stop  offset="1"  style="stop-color:#FEDEC1;stop-opacity:1" />
</radialGradient>
<path style="fill:url(#RadialGradID_345) " d="M16,19.85Q15.85 21.1 17.95 19.85L16.8 22.8L13.75 26.55L13.35 26.85L13.2 26.95L13.05 27.1L14 23.5L14.25 21.8L14.35 20.55L14.6 20.05Q16.95 17.7 18.25 15.25L18.95 13.65L19.25 14.35L16 19.85" />
<radialGradient
id="RadialGradID_346" gradientUnits="userSpaceOnUse" gradientTransform="matrix(-0.00839233, 0.000335693, 0.000335693, 0.00840759, 20.65, 20.7)" spreadMethod ="pad" cx="0" cy="0" r="819.2" fx="0" fy="0" >
<stop  offset="0"  style="stop-color:#FBBD9D;stop-opacity:1" />
<stop  offset="1"  style="stop-color:#FEDEC1;stop-opacity:1" />
</radialGradient>
<path style="fill:url(#RadialGradID_346) " d="M19.25,14.35L19.3 14.45L19.25 14.4L19.25 14.35L18.95 13.65L18.25 15.25Q16.95 17.7 14.6 20.05L14.35 20.55L14.05 18.9L15.85 17.05L18.9 13.3L19.25 14.35" />
<radialGradient
id="RadialGradID_347" gradientUnits="userSpaceOnUse" gradientTransform="matrix(0.00549316, 0.00119019, -0.00221252, 0.0104218, 0.3, 7.65)" spreadMethod ="pad" cx="0" cy="0" r="819.2" fx="0" fy="0" >
<stop  offset="0"  style="stop-color:#FBBD9D;stop-opacity:1" />
<stop  offset="1"  style="stop-color:#FEDEC1;stop-opacity:1" />
</radialGradient>
<path style="fill:url(#RadialGradID_347) " d="M1.25,12.95L1.3 12.85L1.45 10.75Q1.5 10.25 0.35 7.4L0.45 7L1.6 2.35L1.9 2.25L2 2.2L1.9 3.65L2.25 2.05L2.3 2L3.1 4.55L3.15 4.55L3.75 7.7Q2.25 9 1.9 10.2L1.3 12.9L1.25 12.95" />
<radialGradient
id="RadialGradID_348" gradientUnits="userSpaceOnUse" gradientTransform="matrix(0.00479126, 0.00106812, -0.00233459, 0.0105438, 0.45, 8.7)" spreadMethod ="pad" cx="0" cy="0" r="819.2" fx="0" fy="0" >
<stop  offset="0"  style="stop-color:#FBBD9D;stop-opacity:1" />
<stop  offset="1"  style="stop-color:#FEDEC1;stop-opacity:1" />
</radialGradient>
<path style="fill:url(#RadialGradID_348) " d="M3.7,4.2L4.45 7.9Q2.05 9.55 2.45 10.75L3.1 10.6L3.4 10.55L4.1 10.5L3.25 10.65L2.6 11.05L2.6 11.1L3.55 10.9L3 11.45Q2.15 12.45 2 13.05L1.8 13.5L1.75 13.75L1.7 14.3L1.7 14.65L1.2 13.9L1.2 13.3L1.25 13.1L1.25 13L1.3 12.9L1.9 10.2Q2.25 9 3.75 7.7L3.15 4.55L3.1 4.45L3.1 4.55L2.3 2L3 1.7L3.7 4.2M1.25,12.8L1.25 12.2L1.25 12.85L1.25 12.8M4.6,10.5L4.35 10.55L4.25 10.5L4.6 10.5" />
<radialGradient
id="RadialGradID_349" gradientUnits="userSpaceOnUse" gradientTransform="matrix(0.00520325, -0.000732422, 0.00146484, 0.0104065, 19.6, 6.9)" spreadMethod ="pad" cx="0" cy="0" r="819.2" fx="0" fy="0" >
<stop  offset="0"  style="stop-color:#FBBD9D;stop-opacity:1" />
<stop  offset="1"  style="stop-color:#FEDEC1;stop-opacity:1" />
</radialGradient>
<path style="fill:url(#RadialGradID_349) " d="M19.25,14.35L18.9 13.3L18.6 12.35L18.15 11.4Q17.85 11 16.95 10.75L18 10.55L18.25 10.45L17.85 9.55Q17.5 8.8 16.2 8.1L16.3 1.05L17.45 1.5L17.4 2.7L17.1 6.6L16.8 7.7L17.1 7.9L17.6 8.3L18.4 9.3L19.15 11.05L19.4 13.15L19.4 13.2L19.25 14.35" />
<radialGradient
id="RadialGradID_350" gradientUnits="userSpaceOnUse" gradientTransform="matrix(0.00518799, -0.001297, 0.00279236, 0.0111237, 19.9, 7.25)" spreadMethod ="pad" cx="0" cy="0" r="819.2" fx="0" fy="0" >
<stop  offset="0"  style="stop-color:#FBBD9D;stop-opacity:1" />
<stop  offset="1"  style="stop-color:#FEDEC1;stop-opacity:1" />
</radialGradient>
<path style="fill:url(#RadialGradID_350) " d="M19.35,11.05L19.4 13.15L19.15 11.05L18.4 9.3L17.6 8.3L17.1 7.9L16.8 7.7L17.1 6.6L17.4 2.7L17.5 1.5L17.7 1.6L18.85 2.1L19.65 2.55L19.85 3.3Q20.4 5.3 20.55 7.05L19.35 11.05" />
<radialGradient
id="RadialGradID_351" gradientUnits="userSpaceOnUse" gradientTransform="matrix(0.00909424, 0, 0, 0.00909424, 20, 11.1)" spreadMethod ="pad" cx="0" cy="0" r="819.2" fx="0" fy="0" >
<stop  offset="0"  style="stop-color:#FBBD9D;stop-opacity:1" />
<stop  offset="1"  style="stop-color:#FEDEC1;stop-opacity:1" />
</radialGradient>
<path style="fill:url(#RadialGradID_351) " d="M19.4,13.2L19.4 13.15L19.35 11.05L20.55 7.05Q20.9 10.3 20.05 12.6L20 12.8L19.95 12.85L19.9 13.05L19.85 13.2L19.8 13.45L19.75 13.5L19.7 13.7L19.7 13.65L19.6 13.8L19.25 14.35L19.4 13.2" />
<radialGradient
id="RadialGradID_352" gradientUnits="userSpaceOnUse" gradientTransform="matrix(0.00846863, 0, 0, 0.00846863, 0.8, 11.05)" spreadMethod ="pad" cx="0" cy="0" r="819.2" fx="0" fy="0" >
<stop  offset="0"  style="stop-color:#FBBD9D;stop-opacity:1" />
<stop  offset="1"  style="stop-color:#FEDEC1;stop-opacity:1" />
</radialGradient>
<path style="fill:url(#RadialGradID_352) " d="M0.95,13.55L0.9 13.8L0.8 13.5L0.8 13.3L0.7 13.15L0.6 12.95L0.4 12.15Q-0.05 10.7 0 9.15L0.35 7.4Q1.5 10.25 1.45 10.75L1.3 12.85L1.25 12.95L1.3 12.9L1.25 13L1.25 13.1L1.2 13.3L1.2 13.9L0.95 13.55M1.25,12.85L1.25 12.2L1.25 12.8L1.25 12.85" />
<radialGradient
id="RadialGradID_353" gradientUnits="userSpaceOnUse" gradientTransform="matrix(0.00231934, 0, 0, 0.00231934, 16, 10.6)" spreadMethod ="pad" cx="0" cy="0" r="819.2" fx="0" fy="0" >
<stop  offset="0"  style="stop-color:#FBBD9D;stop-opacity:1" />
<stop  offset="1"  style="stop-color:#FEDEC1;stop-opacity:1" />
</radialGradient>
<path style="fill:url(#RadialGradID_353) " d="M18,10.55L16.95 10.75Q14.9 11.05 13.85 11.7Q14.8 10.75 15.55 10.55L16.55 10.35L16.65 10.45L16.65 10.4L17.05 10.35L17.2 10.35L18.25 10.45L18 10.55" />
<radialGradient
id="RadialGradID_354" gradientUnits="userSpaceOnUse" gradientTransform="matrix(0.00265503, 0, 0, 0.00265503, 4.25, 10.65)" spreadMethod ="pad" cx="0" cy="0" r="819.2" fx="0" fy="0" >
<stop  offset="0"  style="stop-color:#FBBD9D;stop-opacity:1" />
<stop  offset="1"  style="stop-color:#FEDEC1;stop-opacity:1" />
</radialGradient>
<path style="fill:url(#RadialGradID_354) " d="M4.35,10.55L6 11.15L6 11.2L4.05 10.85L3.55 10.9Q3.95 10.6 4.35 10.55" />
<radialGradient
id="RadialGradID_355" gradientUnits="userSpaceOnUse" gradientTransform="matrix(0.00131226, 0, 0, 0.00131226, 3.6, 10.75)" spreadMethod ="pad" cx="0" cy="0" r="819.2" fx="0" fy="0" >
<stop  offset="0"  style="stop-color:#FBBD9D;stop-opacity:1" />
<stop  offset="1"  style="stop-color:#FEDEC1;stop-opacity:1" />
</radialGradient>
<path style="fill:url(#RadialGradID_355) " d="M3.55,10.9L2.6 11.1L2.6 11.05L3.25 10.65L4.1 10.5L4.25 10.5L4.35 10.55Q3.95 10.6 3.55 10.9" />
<radialGradient
id="RadialGradID_356" gradientUnits="userSpaceOnUse" gradientTransform="matrix(0.00700378, 0, 0, 0.00700378, 18.2, 17.2)" spreadMethod ="pad" cx="0" cy="0" r="819.2" fx="0" fy="0" >
<stop  offset="0"  style="stop-color:#FBBD9D;stop-opacity:1" />
<stop  offset="1"  style="stop-color:#FEDEC1;stop-opacity:1" />
</radialGradient>
<path style="fill:url(#RadialGradID_356) " d="M17.95,19.85Q15.85 21.1 16 19.85L19.25 14.35L19.25 14.4L19.3 14.45L19.25 14.35L19.6 13.8L19.7 13.65L19.7 13.7L19.75 13.5L19.6 14.25L19.55 14.35L19.55 14.45L19.5 14.65L19.25 15.75L19.15 16L18.7 17.75L18.45 18.45L18.25 18.95L18.15 19.35L18.15 19.4L17.95 19.85M19.8,13.65L19.8 13.75L19.8 13.65" />
<radialGradient
id="RadialGradID_357" gradientUnits="userSpaceOnUse" gradientTransform="matrix(0.00692749, 0, 0, 0.00692749, 2.75, 17.25)" spreadMethod ="pad" cx="0" cy="0" r="819.2" fx="0" fy="0" >
<stop  offset="0"  style="stop-color:#FBBD9D;stop-opacity:1" />
<stop  offset="1"  style="stop-color:#FEDEC1;stop-opacity:1" />
</radialGradient>
<path style="fill:url(#RadialGradID_357) " d="M3.7,17.95Q5.15 20.4 4.7 20.8Q4.15 21.15 2.7 19.2L0.95 14L0.95 13.9L0.9 13.8L0.95 13.55L1.2 13.9L1.7 14.65L3.7 17.95M3.5,21.9L3.45 21.75L3.5 21.9M0.8,13.5L0.75 13.4L0.7 13.15L0.8 13.3L0.8 13.5" />
<path style="fill:none;stroke-width:0.05;stroke-linecap:round;stroke-linejoin:bevel;stroke-miterlimit:3;stroke:#B76340;stroke-opacity:0.501961" d="M18,19.9L18 19.95" />
<path style="fill:none;stroke-width:0.05;stroke-linecap:round;stroke-linejoin:round;stroke-miterlimit:3;stroke:#B76340;stroke-opacity:0.501961" d="M0.45,7L1.6 2.35L1.9 2.25L2 2.2L2.25 2.05L2.3 2L3 1.7Q9.6 -1.3 16.3 1.05L16.3 0.65M0.6,12.95L0.4 12.15Q-0.05 10.7 0 9.15L0.35 7.4M16.3,1.05L17.45 1.5L17.5 1.5L17.7 1.6L18.85 2.1L19.65 2.55L19.85 3.3Q20.4 5.3 20.55 7.05Q20.9 10.3 20.05 12.6L20 12.8L19.95 12.85L19.95 13L19.9 13.05L19.85 13.2L19.8 13.45L19.65 14.2L19.65 14.25L19.6 14.25M19.6,14.3L19.55 14.45L19.5 14.65L19.25 15.75L19.15 16L18.7 17.75L18.45 18.45L18.25 18.95L18.15 19.35L18.15 19.4M18,19.95L17.95 20.15L17.85 20.35L16.9 22.85L14.25 26.05L13.45 26.85L13.05 27.1L13 27.1L12.95 27.15L12.6 27.25L12.35 27.3L10.2 27.4L8.65 27.3L8.35 27.15L8.05 26.95L7.9 26.85L7.5 26.55Q4.8 23.9 3.55 21.9L3.5 21.9L3.45 21.75L2.7 19.25L2.7 19.2L0.95 14M0.95,13.9L0.9 13.8L0.8 13.5L0.75 13.4L0.7 13.15M19.25,14.35L19.25 14.4L19.3 14.45M0.75,13.4L0.8 13.3M19.55,14.35L19.55 14.45M17.85,20.35L17.95 19.9L18 19.85L18 19.75L18.05 19.75L18.05 19.7L18.15 19.4" />
<radialGradient
id="RadialGradID_358" gradientUnits="userSpaceOnUse" gradientTransform="matrix(0.00474548, 0.000457764, -0.000228882, 0.00276184, 10.05, 26.05)" spreadMethod ="pad" cx="0" cy="0" r="819.2" fx="6" fy="0" >
<stop  offset="0"  style="stop-color:#FBBD9D;stop-opacity:1" />
<stop  offset="1"  style="stop-color:#F9E2C1;stop-opacity:1" />
</radialGradient>
<path style="fill:url(#RadialGradID_358) " d="M10.7,27.25Q8.7 27.3 8.3 26.75L8.85 26.85L10.75 27L12.9 26.75Q12.7 27.2 10.7 27.25" />
<radialGradient
id="RadialGradID_359" gradientUnits="userSpaceOnUse" gradientTransform="matrix(0.00137329, 0.00108337, -0.00326538, 0.00469971, 17, 22.75)" spreadMethod ="pad" cx="0" cy="0" r="819.2" fx="0" fy="0" >
<stop  offset="0.313725"  style="stop-color:#FFFFFF;stop-opacity:0.431373" />
<stop  offset="1"  style="stop-color:#FFFFFF;stop-opacity:0" />
</radialGradient>
<path style="fill:url(#RadialGradID_359) " d="M18,18.95L16.8 22.75Q15.05 25.2 13.9 25.85L16.45 22.7L18 18.95" />
<radialGradient
id="RadialGradID_360" gradientUnits="userSpaceOnUse" gradientTransform="matrix(-0.00115967, 0.00177002, 0.00274658, 0.00361633, 5.1, 16.4)" spreadMethod ="pad" cx="0" cy="0" r="819.2" fx="0" fy="0" >
<stop  offset="0"  style="stop-color:#FFFFFF;stop-opacity:0.313725" />
<stop  offset="1"  style="stop-color:#FFFFFF;stop-opacity:0" />
</radialGradient>
<path style="fill:url(#RadialGradID_360) " d="M7.4,17.75Q7.35 18.55 6.8 18.7Q6.3 18.85 5.35 18.35Q4.35 17.8 3.9 17.15Q3.4 16.5 3.45 15.7Q3.45 14.8 3.95 14.65Q4.45 14.5 5.5 15L6.9 16.2Q7.4 16.85 7.4 17.75" />
<radialGradient
id="RadialGradID_361" gradientUnits="userSpaceOnUse" gradientTransform="matrix(0.00115967, 0.00177002, -0.00273132, 0.00361633, 15.8, 16.4)" spreadMethod ="pad" cx="0" cy="0" r="819.2" fx="0" fy="0" >
<stop  offset="0"  style="stop-color:#FFFFFF;stop-opacity:0.313725" />
<stop  offset="1"  style="stop-color:#FFFFFF;stop-opacity:0" />
</radialGradient>
<path style="fill:url(#RadialGradID_361) " d="M13.5,17.7Q13.5 16.85 14.05 16.15Q14.5 15.5 15.45 15Q16.45 14.45 17 14.6Q17.45 14.8 17.5 15.65L17.05 17.15Q16.55 17.8 15.6 18.3L14.1 18.65Q13.55 18.5 13.5 17.7" />
</g>
</svg>
