<?xml version="1.0" encoding="utf-8"?>
<svg version="1.1" id="Layer_1"
xmlns="http://www.w3.org/2000/svg"
xmlns:xlink="http://www.w3.org/1999/xlink"
xmlns:author="http://www.sothink.com"
width="22px" height="31px"
xml:space="preserve">
<g id="91" transform="matrix(1, 0, 0, 1, 0, 3.25)">
<path style="fill:#FEE0CD;fill-opacity:1" d="M16.65,-1.85Q19.1 0 20.3 3.4Q21.45 6.75 20.95 9.8L19.65 17.2Q19.2 19.35 17.35 21.9L14 25.7L12 27.2L10.8 27.5Q10.2 27.55 9.5 27.1L7.85 25.9L4.7 22.5Q2.5 19.9 1.85 17.85L1.65 17.15L0.15 9.55Q-0.45 6.55 1.3 2.3Q3.45 -2.55 8.8 -3.1Q14.15 -3.7 16.65 -1.85" />
<radialGradient
id="RadialGradID_439" gradientUnits="userSpaceOnUse" gradientTransform="matrix(0.00831604, 0, 0, 0.0171967, 18.4, 16.4)" spreadMethod ="pad" cx="0" cy="0" r="819.2" fx="0" fy="0" >
<stop  offset="0"  style="stop-color:#EEB095;stop-opacity:1" />
<stop  offset="1"  style="stop-color:#FDDDC0;stop-opacity:0" />
</radialGradient>
<path style="fill:url(#RadialGradID_439) " d="M16,13.9L18.25 11.35Q20.4 8.9 20.2 14L19.65 17.2Q19.25 19.35 17.35 21.9L16.65 22.85Q15.3 22.6 14.1 21.95Q10.1 19.65 11.25 20.05Q12.35 20.35 12.25 18.55Q12.05 16.75 15.7 14.05Q16.2 14.05 16 13.9" />
<radialGradient
id="RadialGradID_440" gradientUnits="userSpaceOnUse" gradientTransform="matrix(0.0171967, 0, 0, 0.0171967, 16, 14.4)" spreadMethod ="pad" cx="0" cy="0" r="819.2" fx="0" fy="0" >
<stop  offset="0"  style="stop-color:#EEB095;stop-opacity:1" />
<stop  offset="1"  style="stop-color:#FDDDC0;stop-opacity:0" />
</radialGradient>
<path style="fill:url(#RadialGradID_440) " d="M19.9,2.3Q21.6 7.1 20.95 9.8L20.2 13.9L20.2 14L19.6 17.2Q19.3 18.85 18.15 20.7L15.1 24.75L14.4 25.4L14.4 25.45L13.7 26.15L13.5 26.45L12.8 27L12.2 27.25L10.95 27.45Q10.9 26.9 11.4 26.55L12.45 26.1L12.8 25.7L13.3 24.85Q13.6 24.15 11.45 23.6L9.45 23.1Q10.5 22.45 12.1 22.35L12.6 22.35L14.05 22Q15.15 21.4 16.35 20.05L16.7 19.6Q18.85 16.85 18.2 15.6Q17.6 14.35 16.4 14.25L16 13.9Q14.5 12.4 16.8 10.3Q18.3 9.15 18.3 4.9L17.8 1.35Q18.9 1.75 19.9 2.3" />
<radialGradient
id="RadialGradID_441" gradientUnits="userSpaceOnUse" gradientTransform="matrix(0.00538635, 0, 0, 0.0260315, -0.3, 15.9)" spreadMethod ="pad" cx="0" cy="0" r="819.2" fx="0" fy="0" >
<stop  offset="0"  style="stop-color:#EEB095;stop-opacity:1" />
<stop  offset="0.0352941"  style="stop-color:#EAA082;stop-opacity:1" />
<stop  offset="1"  style="stop-color:#FDDDC0;stop-opacity:0" />
</radialGradient>
<path style="fill:url(#RadialGradID_441) " d="M3.75,1.2Q2.95 4.25 2.85 6.4L2.85 7.15Q2.85 9.65 3.2 10.4Q3.55 11.2 2.95 12.15Q2.35 13.1 2.45 14.55L2.45 14.6L2.7 16.85Q2.85 17.75 3.25 18.45L3.4 18.65Q4.6 20.55 6 21.15L8 21.8L8.1 21.8Q9.15 22.15 8.5 22.5Q7.75 22.55 7.15 23.05Q6.65 23.4 6.55 24.05L6.5 24.75L2.7 19.8L1.8 17.85L0.15 9.55Q-0.2 7.65 0.3 5.3L1.3 2.3L3.75 1.2" />
<radialGradient
id="RadialGradID_442" gradientUnits="userSpaceOnUse" gradientTransform="matrix(0.00538635, 0, 0, 0.0260315, 0.15, 9.3)" spreadMethod ="pad" cx="0" cy="0" r="819.2" fx="0" fy="0" >
<stop  offset="0"  style="stop-color:#EEB095;stop-opacity:1" />
<stop  offset="0.0352941"  style="stop-color:#EAA082;stop-opacity:1" />
<stop  offset="1"  style="stop-color:#FDDDC0;stop-opacity:0" />
</radialGradient>
<path style="fill:url(#RadialGradID_442) " d="M3.35,8.25Q3.85 9.75 5.2 10.7Q6.55 11.6 4.45 12.35Q2.35 13.1 2.4 14.25L2.2 17Q1.9 18.65 1.2 14.85L0.15 9.55Q-0.35 6.9 0.9 3.45Q2.5 -1.85 2.85 6.4L3.35 8.25" />
<radialGradient
id="RadialGradID_443" gradientUnits="userSpaceOnUse" gradientTransform="matrix(0.0166321, 0, 0, 0.008255, 16.9, 24.6)" spreadMethod ="pad" cx="0" cy="0" r="819.2" fx="0" fy="0" >
<stop  offset="0"  style="stop-color:#EEB095;stop-opacity:1" />
<stop  offset="0.0352941"  style="stop-color:#EAA082;stop-opacity:1" />
<stop  offset="1"  style="stop-color:#FDDDC0;stop-opacity:0" />
</radialGradient>
<path style="fill:url(#RadialGradID_443) " d="M12.1,22.35L12.45 22.45L13.75 21.7Q14.95 20.85 16.65 18.6Q17.3 20.15 18.15 20.7L17.35 21.9L13.65 26.05L13.2 26.45Q10.7 27.4 12.85 25.7L13.3 24.85Q13.6 24.15 11.45 23.55L12.1 22.35" />
<radialGradient
id="RadialGradID_444" gradientUnits="userSpaceOnUse" gradientTransform="matrix(0.00495911, 0.0085907, -0.00494385, 0.00285339, 3.15, 21.15)" spreadMethod ="pad" cx="0" cy="0" r="819.2" fx="0" fy="0" >
<stop  offset="0"  style="stop-color:#EEB095;stop-opacity:1" />
<stop  offset="0.0352941"  style="stop-color:#EAA082;stop-opacity:1" />
<stop  offset="1"  style="stop-color:#FDDDC0;stop-opacity:0" />
</radialGradient>
<path style="fill:url(#RadialGradID_444) " d="M2.9,15.5Q3.35 16.7 5.45 19.15L7.85 21.7L8.15 21.8Q9.2 22.15 8.55 22.45Q7.85 22.55 7.2 23.05Q6.7 23.4 6.6 24.05L6.6 24.75L2.75 19.8Q1.9 18.9 2.2 16.6Q2.45 14.3 2.9 15.5" />
<radialGradient
id="RadialGradID_445" gradientUnits="userSpaceOnUse" gradientTransform="matrix(0.00645447, 0, 0, 0.00532532, 7.6, 21.9)" spreadMethod ="pad" cx="0" cy="0" r="819.2" fx="0" fy="0" >
<stop  offset="0"  style="stop-color:#EBA88B;stop-opacity:1" />
<stop  offset="0.447059"  style="stop-color:#FAD4B7;stop-opacity:0.121569" />
<stop  offset="1"  style="stop-color:#FDDDC0;stop-opacity:0" />
</radialGradient>
<path style="fill:url(#RadialGradID_445) " d="M9.3,22.1L9.7 22.2Q10.3 22.45 8.95 23.5Q7.6 24.5 8.1 25.6L5.4 22.55Q4.1 20.95 3.3 19.55L3.95 18.45L6.95 19.45Q8.55 20.05 9.4 21.25Q10.25 22.45 9.9 22.15L9.3 22.1" />
<radialGradient
id="RadialGradID_446" gradientUnits="userSpaceOnUse" gradientTransform="matrix(0.0102692, 0, 0, 0.006073, 11.6, 18.3)" spreadMethod ="pad" cx="0" cy="0" r="819.2" fx="0" fy="0" >
<stop  offset="0.00392157"  style="stop-color:#F3BEA0;stop-opacity:0.486275" />
<stop  offset="0.85098"  style="stop-color:#F8CDAF;stop-opacity:0.258824" />
<stop  offset="1"  style="stop-color:#FDDDC0;stop-opacity:0" />
</radialGradient>
<path style="fill:url(#RadialGradID_446) " d="M15.4,21.75L13.55 21.7L14.15 21Q13.8 19.9 12.75 18.5Q11.9 17.85 12.5 16.8Q13.1 18.65 14.55 19.05Q15.85 19.1 16.9 18.2Q17.6 21.25 15.4 21.75" />
<radialGradient
id="RadialGradID_447" gradientUnits="userSpaceOnUse" gradientTransform="matrix(0.0102692, 0, 0, 0.006073, 11.6, 18.3)" spreadMethod ="pad" cx="0" cy="0" r="819.2" fx="0" fy="0" >
<stop  offset="0.00392157"  style="stop-color:#F3BEA0;stop-opacity:0.486275" />
<stop  offset="0.85098"  style="stop-color:#F8CDAF;stop-opacity:0.258824" />
<stop  offset="1"  style="stop-color:#FDDDC0;stop-opacity:0" />
</radialGradient>
<path style="fill:url(#RadialGradID_447) " d="M12.5,16.8L12.5 14.95L12.9 15.15Q13.3 18 14.55 19.05Q15.85 19.1 16.9 18.2Q17.6 21.25 15.4 21.75L13.55 21.7L14.1 21.95Q8.25 21.25 12.75 18.5Q11.9 17.85 12.5 16.8" />
<radialGradient
id="RadialGradID_448" gradientUnits="userSpaceOnUse" gradientTransform="matrix(0.0050354, 0.000457764, -0.000259399, 0.00276184, 10.25, 26.05)" spreadMethod ="pad" cx="0" cy="0" r="819.2" fx="0" fy="0" >
<stop  offset="0"  style="stop-color:#FBBD9D;stop-opacity:1" />
<stop  offset="1"  style="stop-color:#F9E2C1;stop-opacity:1" />
</radialGradient>
<path style="fill:url(#RadialGradID_448) " d="M11.05,27.45L9.45 27.15L8.75 26.55L11.4 26.55L13.35 26.2Q12.15 27.45 11.05 27.45" />
<radialGradient
id="RadialGradID_449" gradientUnits="userSpaceOnUse" gradientTransform="matrix(0.00297546, -0.000289917, 0.000900269, 0.00178528, 9.6, 25.3)" spreadMethod ="pad" cx="0" cy="0" r="819.2" fx="0" fy="0" >
<stop  offset="0"  style="stop-color:#FFFFFF;stop-opacity:0.262745" />
<stop  offset="0.52549"  style="stop-color:#FFFFFF;stop-opacity:0.247059" />
<stop  offset="0.741176"  style="stop-color:#FFFFFF;stop-opacity:0.235294" />
<stop  offset="1"  style="stop-color:#FFFFFF;stop-opacity:0" />
</radialGradient>
<path style="fill:url(#RadialGradID_449) " d="M9,23.75Q9.85 23.65 10.9 24.1Q11.85 24.45 12.05 24.9Q12.3 25.35 11.8 25.95Q11.25 26.5 10.45 26.6L8.65 26.25Q7.6 25.85 7.4 25.4Q7.15 24.9 7.7 24.4Q8.25 23.8 9 23.75" />
<radialGradient
id="RadialGradID_450" gradientUnits="userSpaceOnUse" gradientTransform="matrix(0.00163269, -0.000152588, 0.000488281, 0.000976563, 9.15, 25.9)" spreadMethod ="pad" cx="0" cy="0" r="819.2" fx="0" fy="0" >
<stop  offset="0"  style="stop-color:#FFFFFF;stop-opacity:0.862745" />
<stop  offset="1"  style="stop-color:#FFFFFF;stop-opacity:0" />
</radialGradient>
<path style="fill:url(#RadialGradID_450) " d="M9.6,26.6L8.6 26.45Q8.05 26.2 7.9 25.95Q7.8 25.7 8.05 25.4Q8.35 25.1 8.8 25.05L9.85 25.25L10.5 25.7Q10.6 25.95 10.3 26.25L9.6 26.6" />
<radialGradient
id="RadialGradID_451" gradientUnits="userSpaceOnUse" gradientTransform="matrix(0.00184631, -0.000686646, 0.00088501, 0.000991821, 8.9, 20.8)" spreadMethod ="pad" cx="0" cy="0" r="819.2" fx="0" fy="0" >
<stop  offset="0"  style="stop-color:#FFFFFF;stop-opacity:0.662745" />
<stop  offset="1"  style="stop-color:#FFFFFF;stop-opacity:0" />
</radialGradient>
<path style="fill:url(#RadialGradID_451) " d="M8.45,21.6Q7.75 21.5 7.5 21.2Q7.25 20.95 7.55 20.55Q7.75 20.05 8.2 19.9L9.5 19.8L10.35 20.1Q10.65 20.35 10.4 20.85L9.65 21.45L8.45 21.6" />
<radialGradient
id="RadialGradID_452" gradientUnits="userSpaceOnUse" gradientTransform="matrix(0.00144958, 0.00108337, -0.003479, 0.00471497, 17.05, 22.7)" spreadMethod ="pad" cx="0" cy="0" r="819.2" fx="0" fy="0" >
<stop  offset="0.313725"  style="stop-color:#FFFFFF;stop-opacity:0.431373" />
<stop  offset="1"  style="stop-color:#FFFFFF;stop-opacity:0" />
</radialGradient>
<path style="fill:url(#RadialGradID_452) " d="M16.75,22.6L15.5 23.95Q12.75 27.2 16.5 22.6L18.65 19.35Q18.25 20.6 16.75 22.6" />
<radialGradient
id="RadialGradID_453" gradientUnits="userSpaceOnUse" gradientTransform="matrix(0.00263977, -0.000686646, 0.000793457, 0.00418091, 5.95, 17.4)" spreadMethod ="pad" cx="0" cy="0" r="819.2" fx="0" fy="0" >
<stop  offset="0"  style="stop-color:#FFFFFF;stop-opacity:0.262745" />
<stop  offset="0.52549"  style="stop-color:#FFFFFF;stop-opacity:0.247059" />
<stop  offset="1"  style="stop-color:#FFFFFF;stop-opacity:0" />
</radialGradient>
<path style="fill:url(#RadialGradID_453) " d="M7.1,14.5Q7.95 15.4 8.1 16.45Q8.35 17.6 7.9 18.95Q7.4 20.2 6.7 20.35Q6 20.55 5.1 19.65Q4.2 18.7 4 17.6Q3.75 16.5 4.25 15.25Q4.7 13.95 5.4 13.75Q6.15 13.6 7.1 14.5" />
<radialGradient
id="RadialGradID_454" gradientUnits="userSpaceOnUse" gradientTransform="matrix(0.00250244, 0.00123596, -0.000854492, 0.00563049, 15.45, 16.7)" spreadMethod ="pad" cx="0" cy="0" r="819.2" fx="0" fy="0" >
<stop  offset="0"  style="stop-color:#FFFFFF;stop-opacity:0.313725" />
<stop  offset="0.478431"  style="stop-color:#FFFFFF;stop-opacity:0.282353" />
<stop  offset="1"  style="stop-color:#FFFFFF;stop-opacity:0" />
</radialGradient>
<path style="fill:url(#RadialGradID_454) " d="M16.95,14.85Q17.5 15.75 17.4 16.75Q17.25 17.8 16.45 18.95Q15.65 20.1 14.95 20.2Q14.25 20.35 13.65 19.5Q13.1 18.55 13.25 17.5Q13.35 16.5 14.15 15.35Q15 14.15 15.65 14.05Q16.35 13.9 16.95 14.85" />
</g>
</svg>
