<?xml version="1.0" encoding="utf-8"?>
<svg version="1.1" id="Layer_1"
xmlns="http://www.w3.org/2000/svg"
xmlns:xlink="http://www.w3.org/1999/xlink"
xmlns:author="http://www.sothink.com"
width="21px" height="28px"
xml:space="preserve">
<g id="89" transform="matrix(1, 0, 0, 1, -59.75, -18.65)">
<path style="fill:#FFFFFF;fill-opacity:1" d="M77.75,38.6L77.7 38.8L77.6 39L77.7 38.55L77.75 38.6" />
<radialGradient
id="RadialGradID_407" gradientUnits="userSpaceOnUse" gradientTransform="matrix(0.0128479, 0.000473022, -0.000442505, 0.0136108, 70.4, 18.95)" spreadMethod ="pad" cx="0" cy="0" r="819.2" fx="0" fy="0" >
<stop  offset="0"  style="stop-color:#FBBD9D;stop-opacity:1" />
<stop  offset="1"  style="stop-color:#FEDEC1;stop-opacity:1" />
</radialGradient>
<path style="fill:url(#RadialGradID_407) " d="M75.05,27.3Q76.5 27.65 77.15 28.35L78 29.1L76.95 29L76.8 29L76.4 29.05L76.4 29.1L76.3 29L75.3 29.2Q74.55 29.4 73.6 30.35Q74.65 29.7 76.7 29.4Q77.6 29.65 77.9 30.05L78.35 31L78.65 31.95L75.6 35.7L73.8 37.55L74.1 39.2L74 40.45L73.75 42.15L72.8 45.75L72.95 45.6L73.1 45.5L73.5 45.2L76.55 41.45L77.7 38.5L77.9 38.05L77.8 38.35L77.8 38.4L77.75 38.4L77.75 38.5L77.7 38.55L77.6 39L76.65 41.5L74 44.7L73.2 45.5L72.8 45.75L72.75 45.75L72.7 45.8L72.35 45.9L72.1 45.95L69.95 46.05L68.4 45.95L68.4 45.9Q67.15 43.5 66.85 42.15L66.55 40.5L66.4 39.2Q66.35 38.15 66.6 37.55L64.75 35.75L61.6 32.2L61.55 32.15L61.75 31.7Q61.9 31.1 62.75 30.1L63.3 29.55L63.8 29.5L65.75 29.85L65.75 29.8Q64.7 29.25 64.1 29.2L64.35 29.15L64 29.15L63.85 29.15L63.15 29.2L62.85 29.25L62.2 29.4Q62.1 29.05 64.55 27.1Q65.05 26.05 64.25 23.5Q63.4 20.9 62.75 20.35Q69.35 17.35 76.05 19.7Q75.05 23.85 75.05 27.3M79.8,31.25L79.75 31.45L79.8 31.25M79.7,31.5L79.7 31.65L79.65 31.7L79.7 31.5M79.3,33L79.35 32.9L79.5 32.15L79.55 32.1L79.6 31.85L79.55 32.1L79.4 32.85L79.4 32.9L79.35 32.9L79.35 32.95L79.3 33.1L79.3 33" />
<radialGradient
id="RadialGradID_408" gradientUnits="userSpaceOnUse" gradientTransform="matrix(0.00506592, 0.000610352, -0.000579834, 0.00535583, 74.05, 25.55)" spreadMethod ="pad" cx="0" cy="0" r="819.2" fx="0" fy="0" >
<stop  offset="0"  style="stop-color:#FBBD9D;stop-opacity:1" />
<stop  offset="1"  style="stop-color:#FEDEC1;stop-opacity:1" />
</radialGradient>
<path style="fill:url(#RadialGradID_408) " d="M77.2,20.15L77.25 20.1L77.25 20.15L77.15 21.35L77.2 20.15" />
<radialGradient
id="RadialGradID_409" gradientUnits="userSpaceOnUse" gradientTransform="matrix(0.00941467, 0.00112915, -0.00106812, 0.00996399, 80.05, 39.75)" spreadMethod ="pad" cx="0" cy="0" r="819.2" fx="0" fy="0" >
<stop  offset="0"  style="stop-color:#FBBD9D;stop-opacity:1" />
<stop  offset="1"  style="stop-color:#FEDEC1;stop-opacity:1" />
</radialGradient>
<path style="fill:url(#RadialGradID_409) " d="M77.7,38.55L77.75 38.5L77.75 38.4L77.8 38.4L77.8 38.35L77.9 38.05L77.8 38.35L77.8 38.4L77.8 38.45L77.75 38.5L77.75 38.55L77.75 38.6L77.7 38.55" />
<radialGradient
id="RadialGradID_410" gradientUnits="userSpaceOnUse" gradientTransform="matrix(0.00984192, 0.00117493, -0.00109863, 0.0104218, 59.3, 39.65)" spreadMethod ="pad" cx="0" cy="0" r="819.2" fx="0" fy="0" >
<stop  offset="0"  style="stop-color:#FBBD9D;stop-opacity:1" />
<stop  offset="1"  style="stop-color:#FEDEC1;stop-opacity:1" />
</radialGradient>
<path style="fill:url(#RadialGradID_410) " d="M62,20.7L61.65 22.3L61.75 20.85L62 20.7M68.1,45.8L67.8 45.6L67.65 45.5L67.25 45.2Q64.55 42.55 63.3 40.55L63.25 40.55L63.2 40.4L62.45 37.9L62.45 37.85Q63.9 39.8 64.45 39.45Q64.9 39.05 63.45 36.6L61.45 33.3L61.45 32.95L61.5 32.4L61.7 32.85L62.3 34.05Q63.7 36.45 66.1 38.75L66.4 39.2L66.55 40.5L66.85 42.15Q67.15 43.5 68.4 45.9L68.4 45.95L68.1 45.8" />
<radialGradient
id="RadialGradID_411" gradientUnits="userSpaceOnUse" gradientTransform="matrix(0.00842285, 0, 0, 0.00842285, 60.1, 39.65)" spreadMethod ="pad" cx="0" cy="0" r="819.2" fx="0" fy="0" >
<stop  offset="0"  style="stop-color:#FBBD9D;stop-opacity:1" />
<stop  offset="1"  style="stop-color:#FEDEC1;stop-opacity:1" />
</radialGradient>
<path style="fill:url(#RadialGradID_411) " d="M66.1,38.75Q63.7 36.45 62.3 34.05L61.7 32.85L61.5 32.4L61.55 32.15L61.6 32.2L64.75 35.75L66.6 37.55Q66.35 38.15 66.4 39.2L66.1 38.75" />
<radialGradient
id="RadialGradID_412" gradientUnits="userSpaceOnUse" gradientTransform="matrix(-0.00976563, 0.0015564, 0.00151062, 0.0103607, 81.2, 39.35)" spreadMethod ="pad" cx="0" cy="0" r="819.2" fx="0" fy="0" >
<stop  offset="0"  style="stop-color:#FBBD9D;stop-opacity:1" />
<stop  offset="1"  style="stop-color:#FEDEC1;stop-opacity:1" />
</radialGradient>
<path style="fill:url(#RadialGradID_412) " d="M77.7,38.5L76.55 41.45L73.5 45.2L73.1 45.5L72.95 45.6L72.8 45.75L73.75 42.15L74 40.45L74.1 39.2L74.35 38.7Q76.7 36.35 78 33.9L78.7 32.3L79 33L75.75 38.5Q75.6 39.75 77.7 38.5" />
<radialGradient
id="RadialGradID_413" gradientUnits="userSpaceOnUse" gradientTransform="matrix(-0.00839233, 0.000335693, 0.000335693, 0.00840759, 80.4, 39.35)" spreadMethod ="pad" cx="0" cy="0" r="819.2" fx="0" fy="0" >
<stop  offset="0"  style="stop-color:#FBBD9D;stop-opacity:1" />
<stop  offset="1"  style="stop-color:#FEDEC1;stop-opacity:1" />
</radialGradient>
<path style="fill:url(#RadialGradID_413) " d="M79,33L79.05 33.1L79 33.05L79 33L78.7 32.3L78 33.9Q76.7 36.35 74.35 38.7L74.1 39.2L73.8 37.55L75.6 35.7L78.65 31.95L79 33" />
<radialGradient
id="RadialGradID_414" gradientUnits="userSpaceOnUse" gradientTransform="matrix(0.00549316, 0.00119019, -0.00221252, 0.0104218, 60.05, 26.3)" spreadMethod ="pad" cx="0" cy="0" r="819.2" fx="0" fy="0" >
<stop  offset="0"  style="stop-color:#FBBD9D;stop-opacity:1" />
<stop  offset="1"  style="stop-color:#FEDEC1;stop-opacity:1" />
</radialGradient>
<path style="fill:url(#RadialGradID_414) " d="M62.05,20.65Q63.25 21.75 63.85 24.15L64.4 26.8L62.15 28.6Q61.55 29.3 61.05 31.55L61 31.6L61.05 31.5L61.2 29.4Q61.25 28.9 60.1 26.05L60.2 25.65L61.35 21L61.65 20.9L61.75 20.85L61.65 22.3L62 20.7L62.05 20.65M62.85,23.1L61.55 26.1Q62.95 23.35 63.05 23.5L62.85 23.1" />
<radialGradient
id="RadialGradID_415" gradientUnits="userSpaceOnUse" gradientTransform="matrix(0.00479126, 0.00106812, -0.00233459, 0.0105438, 60.2, 27.35)" spreadMethod ="pad" cx="0" cy="0" r="819.2" fx="0" fy="0" >
<stop  offset="0"  style="stop-color:#FBBD9D;stop-opacity:1" />
<stop  offset="1"  style="stop-color:#FEDEC1;stop-opacity:1" />
</radialGradient>
<path style="fill:url(#RadialGradID_415) " d="M61.5,32.4L61.45 32.95L61.45 33.3L60.95 32.55L60.95 31.95L61 31.75L61 31.65L61.05 31.55Q61.55 29.3 62.15 28.6L64.4 26.8L63.85 24.15Q63.25 21.75 62.05 20.65L62.75 20.35Q63.4 20.9 64.25 23.5Q65.05 26.05 64.55 27.1Q62.1 29.05 62.2 29.4L62.85 29.25L63.15 29.2L63.85 29.15L63 29.3L62.35 29.7L62.35 29.75L63.3 29.55L62.75 30.1Q61.9 31.1 61.75 31.7L61.55 32.15L61.5 32.4M63.05,23.5Q62.95 23.35 61.55 26.1L62.85 23.1L63.05 23.5M64,29.15L64.35 29.15L64.1 29.2L64 29.15M61,30.85L61 31.5L61 31.45L61 30.85" />
<radialGradient
id="RadialGradID_416" gradientUnits="userSpaceOnUse" gradientTransform="matrix(0.00520325, -0.000732422, 0.00146484, 0.0104065, 79.35, 25.55)" spreadMethod ="pad" cx="0" cy="0" r="819.2" fx="0" fy="0" >
<stop  offset="0"  style="stop-color:#FBBD9D;stop-opacity:1" />
<stop  offset="1"  style="stop-color:#FEDEC1;stop-opacity:1" />
</radialGradient>
<path style="fill:url(#RadialGradID_416) " d="M78.65,31.95L78.35 31L77.9 30.05Q77.6 29.65 76.7 29.4L77.75 29.2L78 29.1L77.15 28.35Q76.5 27.65 75.05 27.3Q75.05 23.85 76.05 19.7L77.05 20.05L76.7 20.1L75.65 26.85L77.1 27.7Q78.65 28.75 78.9 29.7L79.15 31.8L79.15 31.85L79 33L78.65 31.95" />
<radialGradient
id="RadialGradID_417" gradientUnits="userSpaceOnUse" gradientTransform="matrix(0.00518799, -0.001297, 0.00279236, 0.0111237, 79.65, 25.9)" spreadMethod ="pad" cx="0" cy="0" r="819.2" fx="0" fy="0" >
<stop  offset="0"  style="stop-color:#FBBD9D;stop-opacity:1" />
<stop  offset="1"  style="stop-color:#FEDEC1;stop-opacity:1" />
</radialGradient>
<path style="fill:url(#RadialGradID_417) " d="M79.1,29.7L79.15 31.8L78.9 29.7Q78.65 28.75 77.1 27.7L75.65 26.85L76.7 20.1L77.05 20.05L77.2 20.15L77.15 21.35L77.25 20.15L77.45 20.25L77.7 20.35L78.6 20.75L79.4 21.2L79.6 21.95Q80.15 23.95 80.3 25.7L79.1 29.7" />
<radialGradient
id="RadialGradID_418" gradientUnits="userSpaceOnUse" gradientTransform="matrix(0.00909424, 0, 0, 0.00909424, 79.75, 29.75)" spreadMethod ="pad" cx="0" cy="0" r="819.2" fx="0" fy="0" >
<stop  offset="0"  style="stop-color:#FBBD9D;stop-opacity:1" />
<stop  offset="1"  style="stop-color:#FEDEC1;stop-opacity:1" />
</radialGradient>
<path style="fill:url(#RadialGradID_418) " d="M79.15,31.85L79.15 31.8L79.1 29.7L80.3 25.7Q80.65 28.95 79.8 31.25L79.75 31.45L79.7 31.5L79.65 31.7L79.6 31.85L79.55 32.1L79.5 32.15L79.45 32.35L79.45 32.3L79.35 32.45L79 33L79.15 31.85" />
<radialGradient
id="RadialGradID_419" gradientUnits="userSpaceOnUse" gradientTransform="matrix(0.00846863, 0, 0, 0.00846863, 60.55, 29.7)" spreadMethod ="pad" cx="0" cy="0" r="819.2" fx="0" fy="0" >
<stop  offset="0"  style="stop-color:#FBBD9D;stop-opacity:1" />
<stop  offset="1"  style="stop-color:#FEDEC1;stop-opacity:1" />
</radialGradient>
<path style="fill:url(#RadialGradID_419) " d="M60.35,31.6L60.15 30.8Q59.7 29.35 59.75 27.8L60.1 26.05Q61.25 28.9 61.2 29.4L61.05 31.5L61 31.6L61.05 31.55L61 31.65L61 31.75L60.95 31.95L60.95 32.55L60.7 32.2L60.65 32.45L60.55 32.15L60.55 31.95L60.45 31.8L60.35 31.6M61,31.45L61 31.5L61 30.85L61 31.45" />
<radialGradient
id="RadialGradID_420" gradientUnits="userSpaceOnUse" gradientTransform="matrix(0.00231934, 0, 0, 0.00231934, 75.75, 29.25)" spreadMethod ="pad" cx="0" cy="0" r="819.2" fx="0" fy="0" >
<stop  offset="0"  style="stop-color:#FBBD9D;stop-opacity:1" />
<stop  offset="1"  style="stop-color:#FEDEC1;stop-opacity:1" />
</radialGradient>
<path style="fill:url(#RadialGradID_420) " d="M76.7,29.4Q74.65 29.7 73.6 30.35Q74.55 29.4 75.3 29.2L76.3 29L76.4 29.1L76.4 29.05L76.8 29L76.95 29L78 29.1L77.75 29.2L76.7 29.4" />
<radialGradient
id="RadialGradID_421" gradientUnits="userSpaceOnUse" gradientTransform="matrix(0.00265503, 0, 0, 0.00265503, 64, 29.3)" spreadMethod ="pad" cx="0" cy="0" r="819.2" fx="0" fy="0" >
<stop  offset="0"  style="stop-color:#FBBD9D;stop-opacity:1" />
<stop  offset="1"  style="stop-color:#FEDEC1;stop-opacity:1" />
</radialGradient>
<path style="fill:url(#RadialGradID_421) " d="M64.1,29.2Q64.7 29.25 65.75 29.8L65.75 29.85L63.8 29.5L63.3 29.55Q63.7 29.25 64.1 29.2" />
<radialGradient
id="RadialGradID_422" gradientUnits="userSpaceOnUse" gradientTransform="matrix(0.00131226, 0, 0, 0.00131226, 63.35, 29.4)" spreadMethod ="pad" cx="0" cy="0" r="819.2" fx="0" fy="0" >
<stop  offset="0"  style="stop-color:#FBBD9D;stop-opacity:1" />
<stop  offset="1"  style="stop-color:#FEDEC1;stop-opacity:1" />
</radialGradient>
<path style="fill:url(#RadialGradID_422) " d="M64.1,29.2Q63.7 29.25 63.3 29.55L62.35 29.75L62.35 29.7L63 29.3L63.85 29.15L64 29.15L64.1 29.2" />
<radialGradient
id="RadialGradID_423" gradientUnits="userSpaceOnUse" gradientTransform="matrix(0.00700378, 0, 0, 0.00700378, 77.95, 35.85)" spreadMethod ="pad" cx="0" cy="0" r="819.2" fx="0" fy="0" >
<stop  offset="0"  style="stop-color:#FBBD9D;stop-opacity:1" />
<stop  offset="1"  style="stop-color:#FEDEC1;stop-opacity:1" />
</radialGradient>
<path style="fill:url(#RadialGradID_423) " d="M75.75,38.5L79 33L79 33.05L79.05 33.1L79 33L79.35 32.45L79.45 32.3L79.45 32.35L79.5 32.15L79.35 32.9L79.3 33L79.3 33.1L79.25 33.3L79 34.4L78.9 34.65L78.45 36.4L78.2 37.1L78 37.6L77.9 38L77.9 38.05L77.7 38.5Q75.6 39.75 75.75 38.5M79.55,32.3L79.55 32.4L79.55 32.3" />
<radialGradient
id="RadialGradID_424" gradientUnits="userSpaceOnUse" gradientTransform="matrix(0.00692749, 0, 0, 0.00692749, 62.5, 35.9)" spreadMethod ="pad" cx="0" cy="0" r="819.2" fx="0" fy="0" >
<stop  offset="0"  style="stop-color:#FBBD9D;stop-opacity:1" />
<stop  offset="1"  style="stop-color:#FEDEC1;stop-opacity:1" />
</radialGradient>
<path style="fill:url(#RadialGradID_424) " d="M60.65,32.45L60.7 32.2L60.95 32.55L61.45 33.3L63.45 36.6Q64.9 39.05 64.45 39.45Q63.9 39.8 62.45 37.85L60.7 32.65L60.7 32.55L60.65 32.45M60.45,31.8L60.55 31.95L60.55 32.15L60.5 32.05L60.45 31.8M63.2,40.4L63.25 40.55L63.2 40.4" />
<path style="fill:none;stroke-width:0.05;stroke-linecap:round;stroke-linejoin:round;stroke-miterlimit:3;stroke:#B76340;stroke-opacity:0.501961" d="M77.75,38.55L77.75 38.6" />
<path style="fill:none;stroke-width:0.05;stroke-linecap:round;stroke-linejoin:round;stroke-miterlimit:3;stroke:#B76340;stroke-opacity:0.501961" d="M62.05,20.65L62 20.7L61.75 20.85L61.65 20.9L61.35 21L60.2 25.65M62.05,20.65L62.75 20.35Q69.35 17.35 76.05 19.7L76.05 19.3M60.35,31.6L60.15 30.8Q59.7 29.35 59.75 27.8L60.1 26.05M63.25,40.55L63.3 40.55Q64.55 42.55 67.25 45.2L67.65 45.5L67.8 45.6L68.1 45.8L68.4 45.95L69.95 46.05L72.1 45.95L72.35 45.9L72.7 45.8L72.75 45.75L72.8 45.75L73.2 45.5L74 44.7L76.65 41.5L77.6 39L77.7 38.55L77.75 38.5L77.75 38.4L77.8 38.4L77.8 38.35L77.9 38.05M76.05,19.7L77.05 20.05L77.2 20.15L77.25 20.15L77.45 20.25L77.7 20.35L78.6 20.75L79.4 21.2L79.6 21.95Q80.15 23.95 80.3 25.7Q80.65 28.95 79.8 31.25L79.75 31.45L79.7 31.5L79.7 31.65L79.65 31.7L79.6 31.85L79.55 32.1L79.4 32.85L79.4 32.9L79.35 32.9M79.35,32.95L79.3 33.1L79.25 33.3L79 34.4L78.9 34.65L78.45 36.4L78.2 37.1L78 37.6L77.9 38L77.9 38.05M77.75,38.6L77.7 38.8L77.6 39M60.55,31.95L60.5 32.05L60.55 32.15L60.65 32.45L60.7 32.55M60.45,31.8L60.5 32.05M60.7,32.65L62.45 37.85L62.45 37.9L63.2 40.4M63.25,40.55L63.2 40.4M79.3,33L79.3 33.1M79.05,33.1L79 33.05L79 33" />
<radialGradient
id="RadialGradID_425" gradientUnits="userSpaceOnUse" gradientTransform="matrix(0.00474548, 0.000457764, -0.000228882, 0.00276184, 69.8, 44.7)" spreadMethod ="pad" cx="0" cy="0" r="819.2" fx="0" fy="0" >
<stop  offset="0"  style="stop-color:#FBBD9D;stop-opacity:1" />
<stop  offset="1"  style="stop-color:#F9E2C1;stop-opacity:1" />
</radialGradient>
<path style="fill:url(#RadialGradID_425) " d="M70.45,45.9Q68.45 45.95 68.05 45.4L68.6 45.5L70.5 45.65L72.65 45.4Q72.45 45.85 70.45 45.9" />
<radialGradient
id="RadialGradID_426" gradientUnits="userSpaceOnUse" gradientTransform="matrix(0.00137329, 0.00108337, -0.00326538, 0.00469971, 76.75, 41.4)" spreadMethod ="pad" cx="0" cy="0" r="819.2" fx="0" fy="0" >
<stop  offset="0.313725"  style="stop-color:#FFFFFF;stop-opacity:0.431373" />
<stop  offset="1"  style="stop-color:#FFFFFF;stop-opacity:0" />
</radialGradient>
<path style="fill:url(#RadialGradID_426) " d="M77.75,37.6L76.55 41.4Q74.8 43.85 73.65 44.5L76.2 41.35L77.75 37.6" />
<radialGradient
id="RadialGradID_427" gradientUnits="userSpaceOnUse" gradientTransform="matrix(-0.00115967, 0.00177002, 0.00274658, 0.00361633, 64.85, 35.05)" spreadMethod ="pad" cx="0" cy="0" r="819.2" fx="0" fy="0" >
<stop  offset="0"  style="stop-color:#FFFFFF;stop-opacity:0.313725" />
<stop  offset="1"  style="stop-color:#FFFFFF;stop-opacity:0" />
</radialGradient>
<path style="fill:url(#RadialGradID_427) " d="M67.15,36.4Q67.1 37.2 66.55 37.35L65.1 37Q64.1 36.45 63.65 35.8Q63.15 35.15 63.2 34.35Q63.2 33.45 63.7 33.3Q64.2 33.15 65.25 33.65L66.65 34.85Q67.15 35.5 67.15 36.4" />
<radialGradient
id="RadialGradID_428" gradientUnits="userSpaceOnUse" gradientTransform="matrix(0.00115967, 0.00177002, -0.00273132, 0.00361633, 75.55, 35.05)" spreadMethod ="pad" cx="0" cy="0" r="819.2" fx="0" fy="0" >
<stop  offset="0"  style="stop-color:#FFFFFF;stop-opacity:0.313725" />
<stop  offset="1"  style="stop-color:#FFFFFF;stop-opacity:0" />
</radialGradient>
<path style="fill:url(#RadialGradID_428) " d="M73.8,34.8Q74.25 34.15 75.2 33.65Q76.2 33.1 76.75 33.25Q77.2 33.45 77.25 34.3L76.8 35.8L75.35 36.95L73.85 37.3Q73.3 37.15 73.25 36.35Q73.25 35.5 73.8 34.8" />
</g>
</svg>
