<?xml version="1.0" encoding="utf-8"?>
<svg version="1.1" id="Layer_1"
xmlns="http://www.w3.org/2000/svg"
xmlns:xlink="http://www.w3.org/1999/xlink"
xmlns:author="http://www.sothink.com"
width="25px" height="28px"
xml:space="preserve">
<g id="95" transform="matrix(1, 0, 0, 1, 0, 0)">
<radialGradient
id="RadialGradID_500" gradientUnits="userSpaceOnUse" gradientTransform="matrix(-0.00453186, 0.00038147, 0.00038147, 0.00448608, 4, 16)" spreadMethod ="pad" cx="0" cy="0" r="819.2" fx="0" fy="0" >
<stop  offset="0"  style="stop-color:#FCA783;stop-opacity:1" />
<stop  offset="1"  style="stop-color:#FEDEC1;stop-opacity:1" />
</radialGradient>
<path style="fill:url(#RadialGradID_500) " d="M2.95,18.4L3.2 17.9Q3.2 17.25 2.7 17.1Q2.2 16.95 2.25 16.5L2.45 16.05L2.45 16L2.4 15.7L1.9 15.05Q1.45 14.6 1 14.6L1.1 15.2Q1.2 15.75 1.7 15.95L1.8 15.95L2 16.2L2.05 16.3L1.7 16.35L1.5 16.2Q1.3 16.45 1.4 16.7L1.85 17.25L2.1 17.65Q2 17.75 2.2 18.05L2.5 18.35L2.55 18.35L2.95 18.4M0.35,14.1Q0.05 14 0 13.35Q-0.1 12.65 0.65 12.75Q1.35 12.85 1.75 13.2L2.2 13.55L2.65 15.1L2.7 15.35L2.8 15.7L2.9 15.85L2.95 16.05L2.95 16.1L3 16.25L3.3 17.1L3.3 17.2L3.4 17.35L3.4 17.4L3.4 17.45L3.45 17.45L3.45 17.5L3.55 17.95L3.6 18L3.6 17.95L3.9 18.8L3.9 18.85L4.1 19.75L4.15 19.8L4.15 19.9L4.15 19.95L3.3 20L2.95 19.35L2.7 18.95L2.2 18.6L1.55 17.6L1 16.7L0.9 15.65L0.75 14.55L0.4 14.15L0.35 14.1" />
<radialGradient
id="RadialGradID_501" gradientUnits="userSpaceOnUse" gradientTransform="matrix(-0.0038147, 0.000152588, 0.000152588, 0.00376892, 3.35, 16.65)" spreadMethod ="pad" cx="0" cy="0" r="819.2" fx="0" fy="0" >
<stop  offset="0"  style="stop-color:#EFA06D;stop-opacity:1" />
<stop  offset="1"  style="stop-color:#FCC7A5;stop-opacity:1" />
</radialGradient>
<path style="fill:url(#RadialGradID_501) " d="M2.55,18.35L2.5 18.35L2.2 18.05Q2 17.75 2.1 17.65L1.85 17.25L1.4 16.7Q1.3 16.45 1.5 16.2L1.7 16.35L2.05 16.3L2 16.2L1.8 15.95L1.7 15.95Q1.2 15.75 1.1 15.2L1 14.6Q1.45 14.6 1.9 15.05L2.4 15.7L2.45 16L2.45 16.05L2.25 16.5Q2.2 16.95 2.7 17.1Q3.2 17.25 3.2 17.9L2.95 18.4L2.55 18.35M3.45,17.45L3.4 17.45L3.4 17.4L3.45 17.45" />
<radialGradient
id="RadialGradID_502" gradientUnits="userSpaceOnUse" gradientTransform="matrix(0.00453186, 0.00038147, -0.00038147, 0.00448608, 20.4, 15.95)" spreadMethod ="pad" cx="0" cy="0" r="819.2" fx="0" fy="0" >
<stop  offset="0"  style="stop-color:#FCA783;stop-opacity:1" />
<stop  offset="1"  style="stop-color:#FEDEC1;stop-opacity:1" />
</radialGradient>
<path style="fill:url(#RadialGradID_502) " d="M21,17.35L21.05 17.3L21.1 17.15L21.1 17.1L21.45 16.2L21.45 16.1L21.45 16L21.5 15.85L21.6 15.7L21.7 15.35L21.75 15.1L22.2 13.55L22.65 13.2Q23.05 12.85 23.8 12.75Q24.5 12.6 24.45 13.3L24.1 14.1L24 14.15L23.7 14.5Q23.55 14.7 23.55 15.6L23.4 16.7L22.9 17.6L22.2 18.55L21.75 18.95Q21.55 19 21.5 19.35L21.1 20L20.25 19.95L20.25 19.85L20.3 19.8L20.3 19.75L20.3 19.7L20.5 18.85L20.55 18.75L20.8 17.9L20.85 17.95L20.95 17.5L21 17.4L21 17.35M21.5,18.35L21.9 18.3L21.95 18.3L22.2 18L22.3 17.6L22.6 17.2L23 16.7L22.9 16.15L22.7 16.3L22.4 16.25L22.4 16.2L22.65 15.95L22.75 15.95L23.3 15.2L23.4 14.6Q22.95 14.55 22.5 15.05Q22.05 15.5 22.05 15.7L21.95 16L22.2 16.5Q22.2 16.95 21.7 17.05Q21.2 17.2 21.2 17.85Q21.2 18.2 21.5 18.35" />
<radialGradient
id="RadialGradID_503" gradientUnits="userSpaceOnUse" gradientTransform="matrix(0.0038147, 0.000152588, -0.000152588, 0.00376892, 21, 16.6)" spreadMethod ="pad" cx="0" cy="0" r="819.2" fx="0" fy="0" >
<stop  offset="0"  style="stop-color:#EFA06D;stop-opacity:1" />
<stop  offset="1"  style="stop-color:#FCC7A5;stop-opacity:1" />
</radialGradient>
<path style="fill:url(#RadialGradID_503) " d="M21,17.4L21 17.35L21 17.4M21.2,17.85Q21.2 17.2 21.7 17.05Q22.2 16.95 22.2 16.5L21.95 16L22.05 15.7Q22.05 15.5 22.5 15.05Q22.95 14.55 23.4 14.6L23.3 15.2L22.75 15.95L22.65 15.95L22.4 16.2L22.4 16.25L22.7 16.3L22.9 16.15L23 16.7L22.6 17.2L22.3 17.6L22.2 18L21.95 18.3L21.9 18.3L21.5 18.35Q21.2 18.2 21.2 17.85" />
<path style="fill:none;stroke-width:0.05;stroke-linecap:round;stroke-linejoin:round;stroke-miterlimit:3;stroke:#B76340;stroke-opacity:0.501961" d="M22.65,13.2Q23.05 12.85 23.8 12.75Q24.5 12.6 24.45 13.3L24.1 14.1L24 14.15L23.7 14.5Q23.55 14.7 23.55 15.6L23.4 16.7L22.9 17.6L22.2 18.55L21.75 18.95Q21.55 19 21.5 19.35L21.1 20L20.25 19.95M24,14.15Q21.9 14.85 21.9 15.9L21.95 16L22.2 16.5Q22.2 16.95 21.7 17.05Q21.2 17.2 21.2 17.85Q21.2 18.2 21.5 18.35L21.95 18.3M2.45,16.05L2.5 15.9Q2.5 14.85 0.4 14.15L0.75 14.55L0.9 15.65L1 16.7L1.55 17.6L2.2 18.6L2.7 18.95L2.95 19.35L3.3 20L4.15 19.95M1.75,13.2Q1.35 12.85 0.65 12.75Q-0.1 12.65 0 13.35Q0.05 14 0.35 14.1L0.4 14.15M2.45,16.05L2.25 16.5Q2.2 16.95 2.7 17.1Q3.2 17.25 3.2 17.9L2.95 18.4L2.5 18.35" />
<path style="fill:#FFFFFF;fill-opacity:1" d="M20.4,19.9L20.45 19.95L20.4 20.15L20.3 20.35L20.4 19.9" />
<radialGradient
id="RadialGradID_504" gradientUnits="userSpaceOnUse" gradientTransform="matrix(0.00587463, 0.00119019, -0.00238037, 0.0104218, 1.45, 7.65)" spreadMethod ="pad" cx="0" cy="0" r="819.2" fx="0" fy="0" >
<stop  offset="0"  style="stop-color:#FBBD9D;stop-opacity:1" />
<stop  offset="1"  style="stop-color:#FEDEC1;stop-opacity:1" />
</radialGradient>
<path style="fill:url(#RadialGradID_504) " d="M2.75,10.75L1.5 7.4L1.55 7.15L1.6 7L1.7 6.75Q2.4 4.4 3.95 2.85L4.5 4.55L5.2 7.7Q3.55 8.95 3.2 10.2L2.95 11.35L2.75 10.75" />
<radialGradient
id="RadialGradID_505" gradientUnits="userSpaceOnUse" gradientTransform="matrix(0.0105286, 0.00117493, -0.00119019, 0.0104218, 0.7, 21)" spreadMethod ="pad" cx="0" cy="0" r="819.2" fx="0" fy="0" >
<stop  offset="0"  style="stop-color:#FBBD9D;stop-opacity:1" />
<stop  offset="1"  style="stop-color:#FEDEC1;stop-opacity:1" />
</radialGradient>
<path style="fill:url(#RadialGradID_505) " d="M8.3,20L8.3 20.55L8.4 21.85L8.75 23.5Q9.05 24.8 10.45 27.25L10.35 27.55L10.1 27.35L9.85 27.1L9.1 26.45Q6.25 23.85 4.95 21.9L4.85 21.75L4.05 19.25L4.05 19.2Q6.25 21.5 7.35 21.1Q8.45 20.65 7.3 19.35L5.3 16.95L3.9 15.15L3.35 14.25L3.35 14.15L3.35 13.9L3.45 13.9L3.5 14L7.25 18.65L7.55 18.95L8.3 20" />
<radialGradient
id="RadialGradID_506" gradientUnits="userSpaceOnUse" gradientTransform="matrix(0.0137634, 0.000473022, -0.000488281, 0.0136108, 12.55, 0.3)" spreadMethod ="pad" cx="0" cy="0" r="819.2" fx="0" fy="0" >
<stop  offset="0"  style="stop-color:#FBBD9D;stop-opacity:1" />
<stop  offset="1"  style="stop-color:#FEDEC1;stop-opacity:1" />
</radialGradient>
<path style="fill:url(#RadialGradID_506) " d="M16.4,21.85L15.95 23.6L14.55 27.2L13.9 27.6L12.4 27.7L10.35 27.55L10.45 27.25Q9.05 24.8 8.75 23.5L8.4 21.85L8.3 20.55L8.3 20Q8.25 19.45 8.9 18.4L7.35 17.2L5.75 15.95L3.75 13.8L3.85 12.95L4.3 11.7L4.25 11.6L4.2 11.6L4.35 11.45Q4.65 11.1 4.95 10.9L5.5 10.85L7.6 11.2L7.6 11.15Q6.45 10.6 5.85 10.55L6.1 10.5L5.7 10.5L5.55 10.5L4.8 10.55L4.45 10.6L3.8 10.75Q3.35 9.55 5.95 7.9L5.1 4.2L4.6 2.3Q6.2 1 8.6 0.4Q12.4 -0.35 16.2 0.4L18.65 1.35L18.55 8.1Q19.9 8.75 20.3 9.55L20.7 10.45L19.6 10.35L19.4 10.35L19 10.4L19 10.45L18.9 10.35L17.8 10.55Q17 10.7 16 11.7Q17.15 11.05 19.35 10.75L20.3 11.15L20.25 11.2L20.65 12.4Q20.65 13.15 20.8 13.5L18.85 15.7L17.15 17.6L15.95 18.4L16.5 19.75L16.4 21.85M22.55,12.85L22.55 13L22.5 13.05L22.55 12.85M22.35,13.5L22.35 13.45L22.45 13.2L22.4 13.45L22.2 14.2L22.2 14.25L22.15 14.25L22.15 14.3L22.1 14.45L22.1 14.35L22.15 14.25L22.35 13.5M20.3,20.35L19.25 22.85L18.45 23.7L19.15 22.8L20.4 19.85L20.6 19.4L20.5 19.7L20.5 19.75L20.45 19.75L20.45 19.85L20.4 19.9L20.3 20.35" />
<radialGradient
id="RadialGradID_507" gradientUnits="userSpaceOnUse" gradientTransform="matrix(0.00512695, 0.00106812, -0.00250244, 0.0105438, 1.65, 8.7)" spreadMethod ="pad" cx="0" cy="0" r="819.2" fx="0" fy="0" >
<stop  offset="0"  style="stop-color:#FBBD9D;stop-opacity:1" />
<stop  offset="1"  style="stop-color:#FEDEC1;stop-opacity:1" />
</radialGradient>
<path style="fill:url(#RadialGradID_507) " d="M4.5,4.45L4.5 4.55L4.5 4.45M3.95,2.85L4.6 2.3L5.1 4.2L5.95 7.9Q3.35 9.55 3.8 10.75L4.45 10.6L4.8 10.55L5.55 10.5L4.65 10.65L3.95 11.05L3.95 11.1L4.95 10.9Q4.65 11.1 4.35 11.45L4.2 11.6L4.25 11.6L4.3 11.7L3.85 12.95L3.75 13.8L3.75 13.75L3.7 13.7L3.6 13.7L3.55 13.75L3.6 13.8L3.5 14L3.45 13.9L3.35 13.9L3.35 14.15L3.15 13.75L3.1 13.6L3.15 13.25L2.95 11.35L3.2 10.2Q3.55 8.95 5.2 7.7L4.5 4.55L3.95 2.85M6.1,10.5L5.85 10.55L5.7 10.5L6.1 10.5" />
<radialGradient
id="RadialGradID_508" gradientUnits="userSpaceOnUse" gradientTransform="matrix(0.00411987, 0.000457764, -0.000473022, 0.0040741, 6.7, 7.85)" spreadMethod ="pad" cx="0" cy="0" r="819.2" fx="0" fy="0" >
<stop  offset="0"  style="stop-color:#FBBD9D;stop-opacity:1" />
<stop  offset="1"  style="stop-color:#FEDEC1;stop-opacity:1" />
</radialGradient>
<path style="fill:url(#RadialGradID_508) " d="M4.5,4.55L4.5 4.45L4.5 4.55" />
<radialGradient
id="RadialGradID_509" gradientUnits="userSpaceOnUse" gradientTransform="matrix(0.00907898, 0, 0, 0.00846863, 2, 11.05)" spreadMethod ="pad" cx="0" cy="0" r="819.2" fx="0" fy="0" >
<stop  offset="0"  style="stop-color:#FBBD9D;stop-opacity:1" />
<stop  offset="1"  style="stop-color:#FEDEC1;stop-opacity:1" />
</radialGradient>
<path style="fill:url(#RadialGradID_509) " d="M3.15,13.85L3.15 13.95L3.05 13.95L2.5 13.8L2.15 13.55L2.1 13.8L2 13.5L2 13.3L1.9 13.15L1.8 12.95L1.5 11.55Q1.25 10.55 1.3 9.6L1.5 7.4L2.75 10.75L2.95 11.35L3.15 13.25L3.1 13.6L3.15 13.75L3.15 13.85" />
<radialGradient
id="RadialGradID_510" gradientUnits="userSpaceOnUse" gradientTransform="matrix(0.00140381, 0, 0, 0.00131226, 5, 10.75)" spreadMethod ="pad" cx="0" cy="0" r="819.2" fx="0" fy="0" >
<stop  offset="0"  style="stop-color:#FBBD9D;stop-opacity:1" />
<stop  offset="1"  style="stop-color:#FEDEC1;stop-opacity:1" />
</radialGradient>
<path style="fill:url(#RadialGradID_510) " d="M5.7,10.5L5.85 10.55L4.95 10.9L3.95 11.1L3.95 11.05L4.65 10.65L5.55 10.5L5.7 10.5" />
<radialGradient
id="RadialGradID_511" gradientUnits="userSpaceOnUse" gradientTransform="matrix(0.00283813, 0, 0, 0.00265503, 5.7, 10.65)" spreadMethod ="pad" cx="0" cy="0" r="819.2" fx="0" fy="0" >
<stop  offset="0"  style="stop-color:#FBBD9D;stop-opacity:1" />
<stop  offset="1"  style="stop-color:#FEDEC1;stop-opacity:1" />
</radialGradient>
<path style="fill:url(#RadialGradID_511) " d="M5.85,10.55Q6.45 10.6 7.6 11.15L7.6 11.2L5.5 10.85L4.95 10.9L5.85 10.55" />
<radialGradient
id="RadialGradID_512" gradientUnits="userSpaceOnUse" gradientTransform="matrix(0.00248718, 0, 0, 0.00231934, 18.3, 10.6)" spreadMethod ="pad" cx="0" cy="0" r="819.2" fx="0" fy="0" >
<stop  offset="0"  style="stop-color:#FBBD9D;stop-opacity:1" />
<stop  offset="1"  style="stop-color:#FEDEC1;stop-opacity:1" />
</radialGradient>
<path style="fill:url(#RadialGradID_512) " d="M19.35,10.75Q17.15 11.05 16 11.7Q17 10.7 17.8 10.55L18.9 10.35L19 10.45L19 10.4L19.4 10.35L19.6 10.35L20.7 10.45L20.45 10.55L19.35 10.75" />
<radialGradient
id="RadialGradID_513" gradientUnits="userSpaceOnUse" gradientTransform="matrix(-0.00900269, 0.000335693, 0.000350952, 0.00840759, 23.3, 20.7)" spreadMethod ="pad" cx="0" cy="0" r="819.2" fx="0" fy="0" >
<stop  offset="0"  style="stop-color:#FBBD9D;stop-opacity:1" />
<stop  offset="1"  style="stop-color:#FEDEC1;stop-opacity:1" />
</radialGradient>
<path style="fill:url(#RadialGradID_513) " d="M21.25,13.65L21.4 13.45L21.3 14L21.25 13.65M19.6,15.7L17.5 18.6L16.5 19.75L15.95 18.4L17.15 17.6L18.85 15.7L20.8 13.5L20.9 13.4Q21.1 13.4 21.15 13.55L19.6 15.7" />
<radialGradient
id="RadialGradID_514" gradientUnits="userSpaceOnUse" gradientTransform="matrix(-0.0104675, 0.0015564, 0.00161743, 0.0103607, 24.1, 20.7)" spreadMethod ="pad" cx="0" cy="0" r="819.2" fx="0" fy="0" >
<stop  offset="0"  style="stop-color:#FBBD9D;stop-opacity:1" />
<stop  offset="1"  style="stop-color:#FEDEC1;stop-opacity:1" />
</radialGradient>
<path style="fill:url(#RadialGradID_514) " d="M16.5,19.75L17.5 18.6L19.6 15.7L21.15 13.55L21.15 13.65L21.15 13.7L21.25 13.65L21.3 14L21.3 14.05L21.25 14.3L20.8 14.95L18.9 17.8L18.7 18.25L17.9 19.35Q15.95 21.9 20.4 19.85L19.15 22.8L18.45 23.7L14.55 27.2L15.95 23.6L16.4 21.85L16.5 19.75" />
<radialGradient
id="RadialGradID_515" gradientUnits="userSpaceOnUse" gradientTransform="matrix(0.00901794, 0, 0, 0.00842285, 1.5, 21)" spreadMethod ="pad" cx="0" cy="0" r="819.2" fx="0" fy="0" >
<stop  offset="0"  style="stop-color:#FBBD9D;stop-opacity:1" />
<stop  offset="1"  style="stop-color:#FEDEC1;stop-opacity:1" />
</radialGradient>
<path style="fill:url(#RadialGradID_515) " d="M3.2,14.05L3.15 14L3.15 13.95L3.15 13.85L3.15 13.75L3.35 14.15L3.35 14.25L3.9 15.15L3.2 14.05M7.55,18.95L7.25 18.65L3.5 14L3.6 13.8L3.55 13.75L3.6 13.7L3.7 13.7L3.75 13.75L3.75 13.8L5.75 15.95L7.35 17.2L8.9 18.4Q8.25 19.45 8.3 20L7.55 18.95" />
<radialGradient
id="RadialGradID_516" gradientUnits="userSpaceOnUse" gradientTransform="matrix(0.00741577, 0, 0, 0.00692749, 4.1, 17.25)" spreadMethod ="pad" cx="0" cy="0" r="819.2" fx="0" fy="0" >
<stop  offset="0"  style="stop-color:#FBBD9D;stop-opacity:1" />
<stop  offset="1"  style="stop-color:#FEDEC1;stop-opacity:1" />
</radialGradient>
<path style="fill:url(#RadialGradID_516) " d="M4.05,19.2L2.2 14L2.15 13.9L2.1 13.8L2.15 13.55L2.5 13.8L3.05 13.95L3.15 13.95L3.15 14L3.2 14.05L3.9 15.15L5.3 16.95L7.3 19.35Q8.45 20.65 7.35 21.1Q6.25 21.5 4.05 19.2M2,13.5L1.95 13.4L1.9 13.15L2 13.3L2 13.5" />
<radialGradient
id="RadialGradID_517" gradientUnits="userSpaceOnUse" gradientTransform="matrix(0.0055542, -0.001297, 0.00299072, 0.0111237, 22.5, 7.25)" spreadMethod ="pad" cx="0" cy="0" r="819.2" fx="0" fy="0" >
<stop  offset="0"  style="stop-color:#FBBD9D;stop-opacity:1" />
<stop  offset="1"  style="stop-color:#FEDEC1;stop-opacity:1" />
</radialGradient>
<path style="fill:url(#RadialGradID_517) " d="M21.7,11.05Q21.4 10.1 20.9 9.3L20.05 8.3L19.45 7.9L19.15 7.7L19.45 6.6L19.8 2.7L19.85 2.05Q22.25 3.75 23.15 6.9L23.2 7.05L22.05 10.35Q21.8 10.6 21.75 11.35L21.7 11.05" />
<radialGradient
id="RadialGradID_518" gradientUnits="userSpaceOnUse" gradientTransform="matrix(0.00556946, -0.000732422, 0.00157166, 0.0104065, 22.15, 6.9)" spreadMethod ="pad" cx="0" cy="0" r="819.2" fx="0" fy="0" >
<stop  offset="0"  style="stop-color:#FBBD9D;stop-opacity:1" />
<stop  offset="1"  style="stop-color:#FEDEC1;stop-opacity:1" />
</radialGradient>
<path style="fill:url(#RadialGradID_518) " d="M21.25,13.65L21.15 13.7L21.15 13.65L21.15 13.55Q21.1 13.4 20.9 13.4L20.8 13.5Q20.65 13.15 20.65 12.4L20.25 11.2L20.3 11.15L19.35 10.75L20.45 10.55L20.7 10.45L20.3 9.55Q19.9 8.75 18.55 8.1L18.65 1.35L19.85 2.05L19.8 2.7L19.45 6.6L19.15 7.7L19.45 7.9L20.05 8.3L20.9 9.3Q21.4 10.1 21.7 11.05L21.75 11.35L21.7 12.3L21.4 13.3L21.4 13.45L21.25 13.65" />
<radialGradient
id="RadialGradID_519" gradientUnits="userSpaceOnUse" gradientTransform="matrix(0.00541687, 0.000610352, -0.00062561, 0.00535583, 16.5, 6.9)" spreadMethod ="pad" cx="0" cy="0" r="819.2" fx="0" fy="0" >
<stop  offset="0"  style="stop-color:#FBBD9D;stop-opacity:1" />
<stop  offset="1"  style="stop-color:#FEDEC1;stop-opacity:1" />
</radialGradient>
<path style="fill:url(#RadialGradID_519) " d="M19.8,2.7L19.85 2.05L19.85 1.5L19.9 1.45L19.9 1.5L19.85 2.05L19.8 2.7" />
<radialGradient
id="RadialGradID_520" gradientUnits="userSpaceOnUse" gradientTransform="matrix(0.00973511, 0, 0, 0.00909424, 22.55, 11.1)" spreadMethod ="pad" cx="0" cy="0" r="819.2" fx="0" fy="0" >
<stop  offset="0"  style="stop-color:#FBBD9D;stop-opacity:1" />
<stop  offset="1"  style="stop-color:#FEDEC1;stop-opacity:1" />
</radialGradient>
<path style="fill:url(#RadialGradID_520) " d="M22.5,13.05L22.45 13.2L22.35 13.45L22.35 13.5L22.3 13.7L22.25 13.65L22.15 13.8L21.7 13.85L21.6 14L21.25 14.3L21.3 14.05L21.3 14L21.4 13.45L21.4 13.3L21.7 12.3L21.75 11.35Q21.8 10.6 22.05 10.35L23.2 7.05L23.2 7.2Q23.55 10.35 22.65 12.6L22.55 12.8L22.55 12.85L22.5 13.05" />
<radialGradient
id="RadialGradID_521" gradientUnits="userSpaceOnUse" gradientTransform="matrix(0.00749207, 0, 0, 0.00700378, 20.65, 17.2)" spreadMethod ="pad" cx="0" cy="0" r="819.2" fx="0" fy="0" >
<stop  offset="0"  style="stop-color:#FBBD9D;stop-opacity:1" />
<stop  offset="1"  style="stop-color:#FEDEC1;stop-opacity:1" />
</radialGradient>
<path style="fill:url(#RadialGradID_521) " d="M20.4,19.85Q15.95 21.9 17.9 19.35L18.7 18.25L18.9 17.8L20.8 14.95L21.25 14.3L21.6 14L21.7 13.85L22.15 13.8L22.25 13.65L22.3 13.7L22.35 13.5L22.15 14.25L22.1 14.35L22.1 14.45L22.05 14.65L21.75 15.75L21.7 16L21.2 17.75L20.9 18.45L20.7 18.95L20.6 19.35L20.6 19.4L20.4 19.85" />
<radialGradient
id="RadialGradID_522" gradientUnits="userSpaceOnUse" gradientTransform="matrix(0.0100708, 0.00112915, -0.00114441, 0.00996399, 22.9, 21.1)" spreadMethod ="pad" cx="0" cy="0" r="819.2" fx="0" fy="0" >
<stop  offset="0"  style="stop-color:#FBBD9D;stop-opacity:1" />
<stop  offset="1"  style="stop-color:#FEDEC1;stop-opacity:1" />
</radialGradient>
<path style="fill:url(#RadialGradID_522) " d="M20.4,19.9L20.45 19.85L20.45 19.75L20.5 19.75L20.5 19.7L20.6 19.4L20.5 19.7L20.5 19.75L20.5 19.8L20.45 19.85L20.45 19.9L20.45 19.95L20.4 19.9" />
<path style="fill:none;stroke-width:0.05;stroke-linecap:round;stroke-linejoin:round;stroke-miterlimit:3;stroke:#B76340;stroke-opacity:0.501961" d="M20.45,19.9L20.45 19.95" />
<path style="fill:none;stroke-width:0.05;stroke-linecap:round;stroke-linejoin:round;stroke-miterlimit:3;stroke:#B76340;stroke-opacity:0.501961" d="M8.6,0.4Q12.4 -0.35 16.2 0.4M22.55,12.85L22.55 13L22.5 13.05M22.45,13.2L22.4 13.45L22.2 14.2L22.2 14.25L22.15 14.25M22.15,14.3L22.1 14.45M20.45,19.95L20.4 20.15L20.3 20.35L19.25 22.85L18.45 23.7L14.55 27.2L13.9 27.6L12.4 27.7L10.35 27.55L10.1 27.35L9.85 27.1L9.1 26.45Q6.25 23.85 4.95 21.9L4.85 21.75L4.05 19.25L4.05 19.2L2.2 14L2.15 13.9L2.1 13.8L2 13.5L1.95 13.4L1.9 13.15L1.8 12.95L1.5 11.55Q1.25 10.55 1.3 9.6L1.5 7.4M19.85,1.5L19.9 1.5M1.6,7L1.7 6.75M2,13.3L1.95 13.4M23.15,6.9L23.2 7.05M22.35,13.45L22.4 13.45M20.3,20.35L20.4 19.9L20.45 19.85L20.45 19.75L20.5 19.75L20.5 19.7L20.6 19.4" />
<path style="fill:none;stroke-width:0.05;stroke-linecap:round;stroke-linejoin:round;stroke-miterlimit:3;stroke:#F1A585;stroke-opacity:1" d="M4.6,2.3L3.95 2.85M4.6,2.3Q6.2 1 8.6 0.4M16.2,0.4L18.65 1.35L19.85 2.05Q22.25 3.75 23.15 6.9L23.2 7.2M1.55,7.15L1.7 6.75Q2.4 4.4 3.95 2.85" />
<radialGradient
id="RadialGradID_523" gradientUnits="userSpaceOnUse" gradientTransform="matrix(0.00485229, 0.000457764, -0.000228882, 0.00276184, 11.6, 26.4)" spreadMethod ="pad" cx="0" cy="0" r="819.2" fx="0" fy="0" >
<stop  offset="0"  style="stop-color:#FBBD9D;stop-opacity:1" />
<stop  offset="1"  style="stop-color:#F9E2C1;stop-opacity:1" />
</radialGradient>
<path style="fill:url(#RadialGradID_523) " d="M12.3,27.6Q10.25 27.65 9.85 27.1L10.45 27.2L12.35 27.35L14.55 27.1Q14.35 27.55 12.3 27.6" />
<radialGradient
id="RadialGradID_524" gradientUnits="userSpaceOnUse" gradientTransform="matrix(0.00146484, 0.00108337, -0.00350952, 0.00469971, 19.35, 22.75)" spreadMethod ="pad" cx="0" cy="0" r="819.2" fx="0" fy="0" >
<stop  offset="0.313725"  style="stop-color:#FFFFFF;stop-opacity:0.431373" />
<stop  offset="1"  style="stop-color:#FFFFFF;stop-opacity:0" />
</radialGradient>
<path style="fill:url(#RadialGradID_524) " d="M20.45,18.95L19.15 22.75Q17.3 25.2 16.05 25.85L18.8 22.7L20.45 18.95" />
<radialGradient
id="RadialGradID_525" gradientUnits="userSpaceOnUse" gradientTransform="matrix(-0.00123596, 0.00177002, 0.00292969, 0.00361633, 6.65, 16.4)" spreadMethod ="pad" cx="0" cy="0" r="819.2" fx="0" fy="0" >
<stop  offset="0"  style="stop-color:#FFFFFF;stop-opacity:0.313725" />
<stop  offset="1"  style="stop-color:#FFFFFF;stop-opacity:0" />
</radialGradient>
<path style="fill:url(#RadialGradID_525) " d="M9.1,17.75Q9.05 18.55 8.45 18.7L6.9 18.35L5.3 17.15Q4.8 16.5 4.85 15.7Q4.85 14.8 5.35 14.65Q5.95 14.5 7.05 15Q8.05 15.5 8.55 16.2Q9.1 16.85 9.1 17.75" />
<radialGradient
id="RadialGradID_526" gradientUnits="userSpaceOnUse" gradientTransform="matrix(0.00123596, 0.00177002, -0.00292969, 0.00361633, 18.1, 16.4)" spreadMethod ="pad" cx="0" cy="0" r="819.2" fx="0" fy="0" >
<stop  offset="0"  style="stop-color:#FFFFFF;stop-opacity:0.313725" />
<stop  offset="1"  style="stop-color:#FFFFFF;stop-opacity:0" />
</radialGradient>
<path style="fill:url(#RadialGradID_526) " d="M15.65,17.7Q15.65 16.85 16.2 16.15Q16.65 15.5 17.7 15Q18.8 14.45 19.35 14.6Q19.85 14.8 19.9 15.65Q19.9 16.45 19.4 17.15L17.85 18.3L16.25 18.65Q15.7 18.5 15.65 17.7" />
</g>
</svg>
