<?xml version="1.0" encoding="utf-8"?>
<svg version="1.1" id="Layer_1"
xmlns="http://www.w3.org/2000/svg"
xmlns:xlink="http://www.w3.org/1999/xlink"
xmlns:author="http://www.sothink.com"
width="26px" height="30px"
xml:space="preserve">
<g id="94" transform="matrix(1, 0, 0, 1, 0, 0)">
<radialGradient
id="RadialGradID_489" gradientUnits="userSpaceOnUse" gradientTransform="matrix(0.00480652, 0.000427246, -0.000411987, 0.00500488, 4.95, 16.7)" spreadMethod ="pad" cx="0" cy="0" r="819.2" fx="0" fy="0" >
<stop  offset="0"  style="stop-color:#FCA783;stop-opacity:1" />
<stop  offset="1"  style="stop-color:#FEDEC1;stop-opacity:1" />
</radialGradient>
<path style="fill:url(#RadialGradID_489) " d="M2.35,14.25L2.75 15.65L3.15 16.7L3.3 17.25L3.5 17.75L3.55 17.9L3.7 18.6L3.75 18.75L4 19.3L4.3 20.15L4.3 20.55L4.3 20.6L3.55 20.7L3.4 20.55L3.3 20.45L3.1 20.25L2.45 19.85L2.2 19.7L1.65 19.1L0.4 17.15L0.35 17.05Q-0.25 16.3 0.2 15.6L0.4 15.15L0.6 14.9L0.9 14.6L0.95 14.55L1.05 14.4Q1.3 14.05 1.85 14.2L2.35 14.25M3.15,17.6L2.5 16.85Q2.5 14.2 1.2 15.15L1.05 16.15Q1.6 16.85 2.05 17L2.5 17.3L2.55 17.3L1.75 17.3L1.05 16.95L2.05 18.3Q2 18.7 2.5 19.05L3 19.35Q4 19.85 3.7 18.65L3.3 18.3L3.25 18.2L3.15 17.6" />
<radialGradient
id="RadialGradID_490" gradientUnits="userSpaceOnUse" gradientTransform="matrix(0.00512695, 0.000183105, -0.000167847, 0.00534058, 3.1, 18.15)" spreadMethod ="pad" cx="0" cy="0" r="819.2" fx="0" fy="0" >
<stop  offset="0"  style="stop-color:#EFA06D;stop-opacity:1" />
<stop  offset="1"  style="stop-color:#FCC7A5;stop-opacity:1" />
</radialGradient>
<path style="fill:url(#RadialGradID_490) " d="M3.25,18.2L3.3 18.3L3.7 18.65Q4 19.85 3 19.35L2.5 19.05Q2 18.7 2.05 18.3L1.05 16.95L1.75 17.3L2.55 17.3L2.5 17.3L2.05 17Q1.6 16.85 1.05 16.15L1.2 15.15Q2.5 14.2 2.5 16.85L3.15 17.6L3.25 18.2" />
<path style="fill:none;stroke-width:0.05;stroke-linecap:round;stroke-linejoin:round;stroke-miterlimit:3;stroke:#B76340;stroke-opacity:0.501961" d="M4.3,20.15L4.3 20.55M4.3,20.6L3.55 20.7L3.4 20.55L3.3 20.45L3.1 20.25L2.45 19.85L2.2 19.7L1.65 19.1L0.4 17.15L0.35 17.05Q-0.25 16.3 0.2 15.6L0.4 15.15L0.6 14.9L0.9 14.6M0.95,14.55L1.05 14.4Q1.3 14.05 1.85 14.2L2.35 14.25" />
<radialGradient
id="RadialGradID_491" gradientUnits="userSpaceOnUse" gradientTransform="matrix(0.00361633, 0.000152588, -0.000137329, 0.00376892, 22, 17.4)" spreadMethod ="pad" cx="0" cy="0" r="819.2" fx="0" fy="0" >
<stop  offset="0"  style="stop-color:#EFA06D;stop-opacity:1" />
<stop  offset="1"  style="stop-color:#FCC7A5;stop-opacity:1" />
</radialGradient>
<path style="fill:url(#RadialGradID_491) " d="M21.85,18.7L21.9 18.25L21.95 18.2L21.95 18.15L21.95 18.2L22.3 17.95L22.5 17.6L22.5 17.4L22.6 17.25L22.9 16.75L22.9 16.5Q22.8 16 23.05 15.2Q23.3 14.4 24.3 15.35L24.3 16.3L24.3 16.4L24.05 16.6L23.6 16.7L23.5 16.7L23.3 16.95L23.25 17.05L23.6 17.1L23.8 16.9L24.2 16.9L24.1 17.45L23.9 17.9L23.7 18.3L23.55 18.5L22.8 19.1Q22.2 19.3 21.8 18.75L21.85 18.7" />
<radialGradient
id="RadialGradID_492" gradientUnits="userSpaceOnUse" gradientTransform="matrix(0.00431824, 0.00038147, -0.000366211, 0.00448608, 21.35, 16.75)" spreadMethod ="pad" cx="0" cy="0" r="819.2" fx="0" fy="0" >
<stop  offset="0"  style="stop-color:#FCA783;stop-opacity:1" />
<stop  offset="1"  style="stop-color:#FEDEC1;stop-opacity:1" />
</radialGradient>
<path style="fill:url(#RadialGradID_492) " d="M22,18.1L22.05 17.95L22.05 17.85L22.35 17L22.4 16.85L22.4 16.8L22.45 16.6L22.5 16.45L22.6 16.1L22.65 15.85L23.1 14.3L23.1 14.25L24.2 14.3L24.7 14.8L25.1 15.45Q25.6 16.15 25 17L24.45 17.8L24.2 18.35L23.9 19.05L23.85 19.05L23.15 19.85L22.5 20.3L22.05 20.75L21.25 20.7L21.25 20.65L21.3 20.55L21.3 20.5L21.5 19.6L21.5 19.55L21.8 18.7L21.8 18.75Q22.2 19.3 22.8 19.1L23.55 18.5L23.7 18.3L23.9 17.9L24.1 17.45L24.2 16.9L23.8 16.9L23.6 17.1L23.25 17.05L23.3 16.95L23.5 16.7L23.6 16.7L24.05 16.6L24.3 16.4L24.3 16.3L24.3 15.35Q23.3 14.4 23.05 15.2Q22.8 16 22.9 16.5L22.9 16.75L22.6 17.25L22.5 17.4L22.5 17.6L22.3 17.95L21.95 18.2L21.95 18.15L22 18.1" />
<path style="fill:none;stroke-width:0.05;stroke-linecap:round;stroke-linejoin:round;stroke-miterlimit:3;stroke:#B76340;stroke-opacity:0.501961" d="M21.25,20.7L22.05 20.75L22.5 20.3L23.15 19.85L23.85 19.05L23.9 19.05L24.2 18.35L24.45 17.8L25 17Q25.6 16.15 25.1 15.45L24.7 14.8L24.2 14.3L23.1 14.25" />
<radialGradient
id="RadialGradID_493" gradientUnits="userSpaceOnUse" gradientTransform="matrix(-0.0134583, 0.000198364, 0.000183105, 0.0132294, 13.6, -0.15)" spreadMethod ="pad" cx="0" cy="0" r="819.2" fx="0" fy="0" >
<stop  offset="0"  style="stop-color:#FBBD9D;stop-opacity:1" />
<stop  offset="1"  style="stop-color:#FEDEC1;stop-opacity:1" />
</radialGradient>
<path style="fill:url(#RadialGradID_493) " d="M12.8,0.05L13.7 0.05L15.15 0.2L15.6 0.3Q16.95 0.6 18.3 1.35Q22.2 3.7 23.2 9.85L21.85 10.15Q19.55 10.8 17.95 12Q16.25 13.25 15.4 15.1Q13.25 19.65 15.7 27.8L15.75 27.9L13.7 29.1L13.25 29.2L12.8 29.25L12.8 0.05" />
<radialGradient
id="RadialGradID_494" gradientUnits="userSpaceOnUse" gradientTransform="matrix(0.0148773, 0.000213623, -0.000198364, 0.0146027, 12.3, -0.65)" spreadMethod ="pad" cx="0" cy="0" r="819.2" fx="0" fy="0" >
<stop  offset="0"  style="stop-color:#FBBD9D;stop-opacity:1" />
<stop  offset="1"  style="stop-color:#FEDEC1;stop-opacity:1" />
</radialGradient>
<path style="fill:url(#RadialGradID_494) " d="M12.8,29.25L12.65 29.25L11.75 29.1L9.75 27.9Q13.2 16.3 7.55 12Q5.45 10.45 2.25 9.85Q3.2 3.7 7.15 1.35Q8.5 0.6 9.9 0.3L10.35 0.2L11.75 0.05L12.65 0.05L12.8 0.05L12.8 29.25" />
<radialGradient
id="RadialGradID_495" gradientUnits="userSpaceOnUse" gradientTransform="matrix(0.00947571, 0.000137329, -0.000137329, 0.00971985, 1.1, 23.35)" spreadMethod ="pad" cx="0" cy="0" r="819.2" fx="0" fy="0" >
<stop  offset="0"  style="stop-color:#FBBD9D;stop-opacity:1" />
<stop  offset="1"  style="stop-color:#FEDEC1;stop-opacity:1" />
</radialGradient>
<path style="fill:url(#RadialGradID_495) " d="M9.75,27.9L8 26.45Q5.8 24.55 4.75 22Q3.35 18.4 2.2 13.95L2.05 13.3L2 12.5Q2.05 11.1 2.25 9.85Q5.45 10.45 7.55 12Q13.2 16.3 9.75 27.9" />
<radialGradient
id="RadialGradID_496" gradientUnits="userSpaceOnUse" gradientTransform="matrix(-0.00946045, 0.000137329, 0.000137329, 0.00971985, 24.95, 24.15)" spreadMethod ="pad" cx="0" cy="0" r="819.2" fx="0" fy="0" >
<stop  offset="0"  style="stop-color:#FBBD9D;stop-opacity:1" />
<stop  offset="1"  style="stop-color:#FEDEC1;stop-opacity:1" />
</radialGradient>
<path style="fill:url(#RadialGradID_496) " d="M15.7,27.8Q13.25 19.65 15.4 15.1Q16.25 13.25 17.95 12Q19.55 10.8 21.85 10.15L23.2 9.85L23.45 12.5L23.4 13.3L23.25 13.95Q22.05 18.4 20.7 22Q19.65 24.55 17.5 26.45L15.75 27.9L15.7 27.8" />
<path style="fill:none;stroke-width:0.05;stroke-linecap:round;stroke-linejoin:round;stroke-miterlimit:3;stroke:#B76340;stroke-opacity:0.501961" d="M12.65,0.05L12.8 0.05M12.8,29.25L12.65 29.25" />
<path style="fill:none;stroke-width:0.05;stroke-linecap:round;stroke-linejoin:round;stroke-miterlimit:3;stroke:#B76340;stroke-opacity:0.501961" d="M12.8,0.05L13.7 0.05L15.15 0.2L15.6 0.3Q16.95 0.6 18.3 1.35Q22.2 3.7 23.2 9.85L23.45 12.5L23.4 13.3L23.25 13.95Q22.05 18.4 20.7 22Q19.65 24.55 17.5 26.45L15.75 27.9L13.7 29.1L13.25 29.2L12.8 29.25M12.65,29.25L11.75 29.1L9.75 27.9L8 26.45Q5.8 24.55 4.75 22Q3.35 18.4 2.2 13.95L2.05 13.3L2 12.5Q2.05 11.1 2.25 9.85Q3.2 3.7 7.15 1.35Q8.5 0.6 9.9 0.3L10.35 0.2L11.75 0.05L12.65 0.05" />
<radialGradient
id="RadialGradID_497" gradientUnits="userSpaceOnUse" gradientTransform="matrix(0.00216675, 0.00112915, -0.000732422, 0.00509644, 17.7, 20.6)" spreadMethod ="pad" cx="0" cy="0" r="819.2" fx="0" fy="0" >
<stop  offset="0"  style="stop-color:#FFFFFF;stop-opacity:0.313725" />
<stop  offset="1"  style="stop-color:#FFFFFF;stop-opacity:0" />
</radialGradient>
<path style="fill:url(#RadialGradID_497) " d="M18.95,18.95Q19.45 19.7 19.35 20.65Q19.25 21.55 18.55 22.6Q17.85 23.65 17.25 23.75Q16.65 23.9 16.15 23.15Q15.65 22.25 15.75 21.3Q15.85 20.4 16.55 19.4Q17.25 18.3 17.9 18.15Q18.45 18.05 18.95 18.95" />
<radialGradient
id="RadialGradID_498" gradientUnits="userSpaceOnUse" gradientTransform="matrix(0.00195313, -0.000518799, 0.000595093, 0.00320435, 8, 20.85)" spreadMethod ="pad" cx="0" cy="0" r="819.2" fx="0" fy="0" >
<stop  offset="0"  style="stop-color:#FFFFFF;stop-opacity:0.262745" />
<stop  offset="1"  style="stop-color:#FFFFFF;stop-opacity:0" />
</radialGradient>
<path style="fill:url(#RadialGradID_498) " d="M8.85,18.6Q9.5 19.25 9.6 20.1Q9.8 20.95 9.45 22Q9.1 22.95 8.6 23.1Q8.05 23.2 7.4 22.55Q6.7 21.8 6.6 21Q6.4 20.15 6.8 19.15Q7.1 18.15 7.65 18Q8.15 17.9 8.85 18.6" />
<radialGradient
id="RadialGradID_499" gradientUnits="userSpaceOnUse" gradientTransform="matrix(0.00138855, 0.00108337, -0.00331116, 0.00471497, 20.35, 23)" spreadMethod ="pad" cx="0" cy="0" r="819.2" fx="0" fy="0" >
<stop  offset="0.313725"  style="stop-color:#FFFFFF;stop-opacity:0.431373" />
<stop  offset="1"  style="stop-color:#FFFFFF;stop-opacity:0" />
</radialGradient>
<path style="fill:url(#RadialGradID_499) " d="M20,23L21.4 19.2Q20.9 21.85 20.25 23L18.6 25.2L20 23" />
</g>
</svg>
