<?xml version="1.0" encoding="utf-8"?>
<svg version="1.1" id="Layer_1"
xmlns="http://www.w3.org/2000/svg"
xmlns:xlink="http://www.w3.org/1999/xlink"
xmlns:author="http://www.sothink.com"
width="190px" height="264px"
xml:space="preserve">
<g id="96" transform="matrix(1, 0, 0, 1, 71.35, 149.25)">
<radialGradient
id="RadialGradID_527" gradientUnits="userSpaceOnUse" gradientTransform="matrix(0.160797, 0, 0, 0.13739, 24.55, -151)" spreadMethod ="pad" cx="0" cy="0" r="819.2" fx="0" fy="0" >
<stop  offset="0"  style="stop-color:#FBBD9D;stop-opacity:1" />
<stop  offset="0.847059"  style="stop-color:#FEDEC1;stop-opacity:1" />
</radialGradient>
<path style="fill:url(#RadialGradID_527) " d="M110.15,1.9Q101.15 60.3 40.8 110.4Q35.65 114.15 23.3 113.9Q11.45 113.65 5.8 110.4Q-54.75 60.3 -63.7 1.9Q-87.2 -94.75 -38.7 -133.1Q22.25 -165.4 85.2 -133.1Q133.6 -94.75 110.15 1.9" />
<path style="fill:none;stroke-width:0.05;stroke-linecap:round;stroke-linejoin:round;stroke-miterlimit:3;stroke:#CF8E74;stroke-opacity:1" d="M85.2,-133.1Q22.25 -165.4 -38.7 -133.1Q-87.2 -94.75 -63.7 1.9Q-54.75 60.3 5.8 110.4Q11.45 113.65 23.3 113.9Q35.65 114.15 40.8 110.4Q101.15 60.3 110.15 1.9Q133.6 -94.75 85.2 -133.1z" />
<radialGradient
id="RadialGradID_528" gradientUnits="userSpaceOnUse" gradientTransform="matrix(-0.024353, 0.0480194, -0.060257, -0.00559998, 100.55, 37.55)" spreadMethod ="pad" cx="0" cy="0" r="819.2" fx="0" fy="0" >
<stop  offset="0"  style="stop-color:#F39F69;stop-opacity:0.352941" />
<stop  offset="0.85098"  style="stop-color:#FEDEC1;stop-opacity:0.380392" />
</radialGradient>
<path style="fill:url(#RadialGradID_528) " d="M112.1,-7.75Q110.15 0.6 109.1 6.8Q107.75 14.95 101.6 32.3Q96.6 46.35 82.55 66.05Q70.65 82.85 67.85 84.3Q63.9 86.45 54.05 79.35Q47.45 74.65 43.1 67.1Q36.45 55.7 34.9 45.1Q29.9 11 46.45 -5.2Q51.9 -10.6 59.05 -13.3Q64 -15.15 66.55 -15.05Q69.9 -15 76.9 -16.55Q85.4 -18.5 88.1 -21.1Q94.95 -27.1 99 -27.35Q105.9 -27.9 107.85 -26.45L115.1 -20.45L112.1 -7.75" />
<radialGradient
id="RadialGradID_529" gradientUnits="userSpaceOnUse" gradientTransform="matrix(-0.0460358, -0.0150146, 0.009552, -0.0402374, 65.55, 17.8)" spreadMethod ="pad" cx="0" cy="0" r="819.2" fx="0" fy="0" >
<stop  offset="0"  style="stop-color:#FEF3DE;stop-opacity:0.741176" />
<stop  offset="1"  style="stop-color:#FEDEC1;stop-opacity:0" />
</radialGradient>
<path style="fill:url(#RadialGradID_529) " d="M84.8,-6.8Q91.7 -3.3 93.7 9.4Q94.75 16.15 86.7 38Q84.5 44.25 80.25 48.55Q78.45 50.45 72.25 55.3L68.35 59.25Q65.7 61.65 63.25 61.75Q61 61.75 58.1 58.45Q54.55 54.7 53.85 54.35Q50.4 52.65 49.95 51.5Q49.45 50.7 48.55 44.75Q48.1 41.9 45.65 31.75Q43.45 22.85 43 17.9Q41.25 -0.25 48.1 -5.45L59.9 -5.05Q70.5 -3.25 72.85 -4.4Q81.6 -8.3 84.8 -6.8" />
<radialGradient
id="RadialGradID_530" gradientUnits="userSpaceOnUse" gradientTransform="matrix(0.0426331, -0.00465393, -0.00920105, -0.022934, 24.55, 99.3)" spreadMethod ="pad" cx="0" cy="0" r="819.2" fx="0" fy="0" >
<stop  offset="0"  style="stop-color:#FEF3DE;stop-opacity:0.741176" />
<stop  offset="1"  style="stop-color:#FEDEC1;stop-opacity:0" />
</radialGradient>
<path style="fill:url(#RadialGradID_530) " d="M51.85,91.8Q49.55 100.05 45.35 105.3Q43.9 107.1 37.6 111.55Q35.45 112.55 30.7 113.1L25.05 113.45Q10.6 112.55 7.8 110.8Q5.65 109.55 1.75 105.8Q-2 102.15 -3.2 100.3Q-9.5 90.4 -6.8 83Q-4.2 76.05 3.55 74.55Q7.05 73.9 16.6 76.6L30.95 77L44 77.45Q48.1 79.3 50.4 82.95Q53 87.15 51.85 91.8" />
<radialGradient
id="RadialGradID_531" gradientUnits="userSpaceOnUse" gradientTransform="matrix(0.0244141, 0.0480194, 0.0604095, -0.00559998, -54.05, 37.55)" spreadMethod ="pad" cx="0" cy="0" r="819.2" fx="0" fy="0" >
<stop  offset="0"  style="stop-color:#F39F69;stop-opacity:0.352941" />
<stop  offset="0.85098"  style="stop-color:#FEDEC1;stop-opacity:0.380392" />
</radialGradient>
<path style="fill:url(#RadialGradID_531) " d="M-65.6,-7.75Q-63.65 0.6 -62.6 6.8Q-61.25 14.95 -55.1 32.3Q-50.1 46.35 -36 66.05Q-24.05 82.85 -21.25 84.3Q-17.3 86.45 -7.45 79.35Q-0.8 74.65 3.55 67.1Q10.2 55.7 11.75 45.1Q16.8 11 0.2 -5.2Q-5.25 -10.6 -12.45 -13.3Q-17.4 -15.15 -19.95 -15.05Q-23.3 -15 -30.35 -16.55Q-38.85 -18.5 -41.55 -21.1Q-48.45 -27.1 -52.5 -27.35Q-59.4 -27.9 -61.35 -26.45L-68.65 -20.45L-65.6 -7.75" />
<radialGradient
id="RadialGradID_532" gradientUnits="userSpaceOnUse" gradientTransform="matrix(0.0461426, -0.0150146, -0.00958252, -0.0402374, -18.95, 17.8)" spreadMethod ="pad" cx="0" cy="0" r="819.2" fx="0" fy="0" >
<stop  offset="0"  style="stop-color:#FEF3DE;stop-opacity:0.741176" />
<stop  offset="1"  style="stop-color:#FEDEC1;stop-opacity:0" />
</radialGradient>
<path style="fill:url(#RadialGradID_532) " d="M-38.25,-6.8Q-45.15 -3.3 -47.15 9.4Q-48.25 16.15 -40.2 38Q-37.95 44.25 -33.65 48.55L-25.65 55.3L-21.7 59.25Q-19.1 61.65 -16.6 61.75Q-14.45 61.75 -11.45 58.45L-7.25 54.35Q-3.8 52.65 -3.3 51.5Q-2.85 50.7 -1.9 44.75Q-1.5 41.9 1.05 31.75Q3.2 22.85 3.7 17.9Q5.45 -0.25 -1.4 -5.45L-13.3 -5.05Q-23.85 -3.25 -26.3 -4.4Q-35.05 -8.3 -38.25 -6.8" />
</g>
</svg>
