<?xml version="1.0" encoding="utf-8"?>
<svg version="1.1" id="Layer_1"
xmlns="http://www.w3.org/2000/svg"
xmlns:xlink="http://www.w3.org/1999/xlink"
xmlns:author="http://www.sothink.com"
width="25px" height="31px"
xml:space="preserve">
<g id="99" transform="matrix(1, 0, 0, 1, 12.25, 15.25)">
<radialGradient
id="RadialGradID_570" gradientUnits="userSpaceOnUse" gradientTransform="matrix(0.00491333, 0, 0, 0.00608826, 8.1, 0.5)" spreadMethod ="pad" cx="0" cy="0" r="819.2" fx="0" fy="0" >
<stop  offset="0"  style="stop-color:#FB8F62;stop-opacity:1" />
<stop  offset="0.698039"  style="stop-color:#FEC7A3;stop-opacity:1" />
<stop  offset="1"  style="stop-color:#FEDEC1;stop-opacity:1" />
</radialGradient>
<path style="fill:url(#RadialGradID_570) " d="M9.8,-1.65L10.45 -2.1L11.25 -2.35Q11.7 -2.35 11.9 -1.95L12.25 0.1L11.2 2.45L9.7 5L9.35 5.25L9.05 5.25L8.75 5.25L9.8 -1.65M11.2,0.2L10.9 2.45L11.55 0.75L11.6 0.55L11.75 -0.4L11.7 -1.25L11.45 -1.55Q10.8 -1.2 10.25 -0.35Q9.7 0.55 9.7 1L9.8 1.5L9.6 2.2L9.45 2.9L9.55 3.5L9.9 2.95L10.45 2.65Q10.65 2.55 10.45 1.45L11.05 -0.65L11.2 0.2" />
<radialGradient
id="RadialGradID_571" gradientUnits="userSpaceOnUse" gradientTransform="matrix(0.00328064, 0.00088501, -0.00137329, 0.00511169, 9.35, 0.7)" spreadMethod ="pad" cx="0" cy="0" r="819.2" fx="0" fy="0" >
<stop  offset="0"  style="stop-color:#EA8440;stop-opacity:1" />
<stop  offset="1"  style="stop-color:#FCC7A5;stop-opacity:1" />
</radialGradient>
<path style="fill:url(#RadialGradID_571) " d="M11.05,-0.65L10.45 1.45Q10.65 2.55 10.45 2.65L9.9 2.95L9.55 3.5L9.45 2.9L9.6 2.2L9.8 1.5L9.7 1Q9.7 0.55 10.25 -0.35Q10.8 -1.2 11.45 -1.55L11.7 -1.25L11.75 -0.4L11.6 0.55L11.55 0.75L10.9 2.45L11.2 0.2L11.05 -0.65" />
<path style="fill:none;stroke-width:0.05;stroke-linecap:round;stroke-linejoin:round;stroke-miterlimit:3;stroke:#B76340;stroke-opacity:0.501961" d="M9.8,-1.65L10.45 -2.1L11.25 -2.35Q11.7 -2.35 11.9 -1.95L12.25 0.1L11.2 2.45L9.7 5L9.35 5.25L9.05 5.25L8.75 5.25" />
<radialGradient
id="RadialGradID_572" gradientUnits="userSpaceOnUse" gradientTransform="matrix(-0.00491333, 0, 0, 0.00608826, -8.1, 0.5)" spreadMethod ="pad" cx="0" cy="0" r="819.2" fx="0" fy="0" >
<stop  offset="0"  style="stop-color:#FB8F62;stop-opacity:1" />
<stop  offset="0.698039"  style="stop-color:#FEC7A3;stop-opacity:1" />
<stop  offset="1"  style="stop-color:#FEDEC1;stop-opacity:1" />
</radialGradient>
<path style="fill:url(#RadialGradID_572) " d="M-11.75,-0.4L-11.6 0.55L-11.55 0.75L-10.9 2.45L-11.2 0.2L-11.05 -0.65L-10.45 1.45L-10.5 2.65L-9.9 2.95L-9.6 3.5Q-9.45 3.35 -9.45 2.9L-9.6 2.2L-9.8 1.5L-9.7 1Q-9.7 0.55 -10.25 -0.35Q-10.8 -1.2 -11.5 -1.55L-11.7 -1.25L-11.75 -0.4M-8.75,5.25L-9.05 5.25L-9.35 5.25L-9.7 5L-11.2 2.45L-12.25 0.1L-11.9 -1.95Q-11.7 -2.35 -11.25 -2.35L-10.5 -2.1L-9.8 -1.65L-8.75 5.25" />
<radialGradient
id="RadialGradID_573" gradientUnits="userSpaceOnUse" gradientTransform="matrix(-0.00328064, 0.00088501, 0.00137329, 0.00511169, -9.35, 0.7)" spreadMethod ="pad" cx="0" cy="0" r="819.2" fx="0" fy="0" >
<stop  offset="0"  style="stop-color:#EA8440;stop-opacity:1" />
<stop  offset="1"  style="stop-color:#FCC7A5;stop-opacity:1" />
</radialGradient>
<path style="fill:url(#RadialGradID_573) " d="M-11.7,-1.25L-11.5 -1.55Q-10.8 -1.2 -10.25 -0.35Q-9.7 0.55 -9.7 1L-9.8 1.5L-9.6 2.2L-9.45 2.9Q-9.45 3.35 -9.6 3.5L-9.9 2.95L-10.5 2.65L-10.45 1.45L-11.05 -0.65L-11.2 0.2L-10.9 2.45L-11.55 0.75L-11.6 0.55L-11.75 -0.4L-11.7 -1.25" />
<path style="fill:none;stroke-width:0.05;stroke-linecap:round;stroke-linejoin:round;stroke-miterlimit:3;stroke:#B76340;stroke-opacity:0.501961" d="M-9.8,-1.65L-10.5 -2.1L-11.25 -2.35Q-11.7 -2.35 -11.9 -1.95L-12.25 0.1L-11.2 2.45L-9.7 5L-9.35 5.25L-9.05 5.25L-8.75 5.25" />
<radialGradient
id="RadialGradID_574" gradientUnits="userSpaceOnUse" gradientTransform="matrix(0.0131378, 0.000366211, -0.000350952, 0.0136566, 0, -11.8)" spreadMethod ="pad" cx="0" cy="0" r="819.2" fx="0" fy="0" >
<stop  offset="0"  style="stop-color:#FBBD9D;stop-opacity:1" />
<stop  offset="1"  style="stop-color:#FEDEC1;stop-opacity:1" />
</radialGradient>
<path style="fill:url(#RadialGradID_574) " d="M8.05,3.95L8 3.95L8 3.9L8.05 3.9L8.05 3.95" />
<radialGradient
id="RadialGradID_575" gradientUnits="userSpaceOnUse" gradientTransform="matrix(0.0116577, 0, 0, 0.0228271, -0.05, 4.1)" spreadMethod ="pad" cx="0" cy="0" r="819.2" fx="210515" fy="0" >
<stop  offset="0"  style="stop-color:#FFE5D1;stop-opacity:1" />
<stop  offset="1"  style="stop-color:#FBC9AB;stop-opacity:1" />
</radialGradient>
<path style="fill:url(#RadialGradID_575) " d="M4,14.25L2.9 14.25L-2.9 14.25L-4.95 14.15L-6.6 13.7Q-4.15 14.05 -2.05 13.65Q-0.85 12.45 -0.4 10.75L-0.3 9.8Q-0.15 8.3 -0.55 7.05L-1.45 5.4L-2.15 4.55L-2.6 4.2Q-2.85 4 -3.05 3.9L-3.1 3.85L-3.35 3.75Q-3.55 3.6 -3.8 3.55L-4.2 3.4L-5 3.25Q-7.15 3 -8.85 4.55L-8.9 4.45L-9.05 3.95L-9.35 2.9L-9.75 2.9L-9.8 2.9L-10.45 -0.6L-10.45 -0.75L-10.5 -1L-10.5 -1.1L-10.75 -2.8Q-10.95 -4.5 -10.6 -6.65Q-10.25 -8.85 -9 -10.55L-6.8 -12.9L-5.75 -13.6L-4.15 -14.5L-2.4 -15L1.45 -15.15Q4.05 -14.75 6.35 -13.2L6.6 -13Q8.85 -11.3 10.05 -8.6L10.15 -8.25L10.4 -7.5L10.45 -7.3L10.65 -6.1Q10.95 -4.25 10.7 -2.4L10.65 -2.1L10.6 -1.65L9.7 2.9L9.65 2.9L9.2 2.9L8.85 3.9L8.8 4L8.75 4.05L8.65 4L8.45 3.95L8.45 3.9L8.05 3.95L8.05 3.9L8.05 3.85L6.6 3.75Q4.65 3.75 3.55 5.7Q2.75 7.1 2.75 8.55Q2.75 12.1 6.85 13.35L5.4 14.1L4.3 14.25L4 14.25" />
<radialGradient
id="RadialGradID_576" gradientUnits="userSpaceOnUse" gradientTransform="matrix(0.00947571, 0.00108337, -0.00172424, 0.0150604, 8.85, 9.1)" spreadMethod ="pad" cx="0" cy="0" r="819.2" fx="0" fy="0" >
<stop  offset="0"  style="stop-color:#FBBD9D;stop-opacity:1" />
<stop  offset="1"  style="stop-color:#FDDDC7;stop-opacity:1" />
</radialGradient>
<path style="fill:url(#RadialGradID_576) " d="M6.85,13.35Q2.75 12.1 2.75 8.55Q2.75 7.1 3.55 5.7Q4.65 3.75 6.6 3.75L8.05 3.85L8.05 3.9L8 3.9L8 3.95L8.05 3.95L8.45 3.9L8.45 3.95L8.65 4L8.75 4.05L8.8 4L8.85 3.9L9.2 2.9L9.65 2.9L9.6 3.4L9.45 4.3L9.05 7.3L8.3 11.9Q7.85 13.6 6.4 13.9L5.4 14.1L6.85 13.35" />
<radialGradient
id="RadialGradID_577" gradientUnits="userSpaceOnUse" gradientTransform="matrix(0.0103455, -0.00274658, 0.00466919, 0.0171204, -8.95, 10)" spreadMethod ="pad" cx="0" cy="0" r="819.2" fx="0" fy="0" >
<stop  offset="0"  style="stop-color:#FBBD9D;stop-opacity:1" />
<stop  offset="1"  style="stop-color:#FDDDC7;stop-opacity:1" />
</radialGradient>
<path style="fill:url(#RadialGradID_577) " d="M-4.95,14.2L-6.55 13.9Q-8.05 13.6 -8.4 11.9L-9.25 7.3L-9.75 2.9L-9.35 2.9L-9.05 3.95L-8.9 4.45L-8.85 4.55Q-7.15 3 -5 3.25L-4.2 3.4L-3.8 3.55Q-3.55 3.6 -3.35 3.75L-3.1 3.85L-3.05 3.9Q-2.85 4 -2.6 4.2L-2.15 4.55L-1.45 5.4L-0.55 7.05Q-0.15 8.3 -0.3 9.8L-0.4 10.75Q-0.85 12.45 -2.05 13.65Q-4.15 14.05 -6.6 13.7L-4.95 14.15L-4.95 14.2" />
<radialGradient
id="RadialGradID_578" gradientUnits="userSpaceOnUse" gradientTransform="matrix(0.0100098, 0, 0, 0.00610352, 0, 15)" spreadMethod ="pad" cx="0" cy="0" r="819.2" fx="0" fy="0" >
<stop  offset="0"  style="stop-color:#FBBD9D;stop-opacity:1" />
<stop  offset="1"  style="stop-color:#FDDDC7;stop-opacity:1" />
</radialGradient>
<path style="fill:url(#RadialGradID_578) " d="M4,14.3L3.3 14.35L1.1 14.5L0.15 14.55L-0.35 14.55L-2.7 14.4L-3.4 14.35L-4.95 14.2L-4.95 14.15L-2.9 14.25L2.9 14.25L4 14.25L4 14.3" />
<path style="fill:none;stroke-width:0.05;stroke-linecap:round;stroke-linejoin:round;stroke-miterlimit:3;stroke:#B76340;stroke-opacity:0.501961" d="M-9.8,2.9L-10.45 -0.6L-10.45 -0.75L-10.5 -1L-10.5 -1.1L-10.75 -2.8Q-10.95 -4.5 -10.6 -6.65Q-10.25 -8.85 -9 -10.55L-6.8 -12.9L-5.75 -13.6L-4.15 -14.5L-2.4 -15L1.45 -15.15Q4.05 -14.75 6.35 -13.2L6.6 -13Q8.85 -11.3 10.05 -8.6L10.15 -8.25L10.4 -7.5L10.45 -7.3L10.65 -6.1Q10.95 -4.25 10.7 -2.4L10.65 -2.1L10.6 -1.65L9.7 2.9M9.65,2.9L9.6 3.4L9.45 4.3L9.05 7.3L8.3 11.9Q7.85 13.6 6.4 13.9L5.4 14.1L4.3 14.25L4 14.3L3.3 14.35L1.1 14.5L0.15 14.55L-0.35 14.55L-2.7 14.4L-3.4 14.35L-4.95 14.2L-6.55 13.9Q-8.05 13.6 -8.4 11.9L-9.25 7.3L-9.75 2.9" />
<radialGradient
id="RadialGradID_579" gradientUnits="userSpaceOnUse" gradientTransform="matrix(0.00485229, 0.000411987, -0.000213623, 0.0027771, 0, 12.75)" spreadMethod ="pad" cx="0" cy="0" r="819.2" fx="6" fy="0" >
<stop  offset="0"  style="stop-color:#FBBD9D;stop-opacity:1" />
<stop  offset="1"  style="stop-color:#F9E2C1;stop-opacity:1" />
</radialGradient>
<path style="fill:url(#RadialGradID_579) " d="M-1.25,13.6L-1.5 13.25L0.75 13.6L2.7 13.15Q1.65 14 0.35 13.95L-1.25 13.6" />
<radialGradient
id="RadialGradID_580" gradientUnits="userSpaceOnUse" gradientTransform="matrix(0.00140381, 0.00106812, -0.00332642, 0.00474548, 7.05, 12)" spreadMethod ="pad" cx="0" cy="0" r="819.2" fx="0" fy="0" >
<stop  offset="0.313725"  style="stop-color:#FFFFFF;stop-opacity:0.431373" />
<stop  offset="1"  style="stop-color:#FFFFFF;stop-opacity:0" />
</radialGradient>
<path style="fill:url(#RadialGradID_580) " d="M3.6,15.25L3.55 15.25L3.6 15.2L3.6 15.25" />
<radialGradient
id="RadialGradID_581" gradientUnits="userSpaceOnUse" gradientTransform="matrix(0.00215149, 0, 0, 0.00222778, 7.55, 12.45)" spreadMethod ="pad" cx="0" cy="0" r="819.2" fx="0" fy="0" >
<stop  offset="0"  style="stop-color:#FFFFFF;stop-opacity:0.431373" />
<stop  offset="1"  style="stop-color:#FFFFFF;stop-opacity:0" />
</radialGradient>
<path style="fill:url(#RadialGradID_581) " d="M7.45,10.75Q7.7 12.85 4.75 13.65Q7.25 12.1 7.3 10.3L7.45 10.75" />
<radialGradient
id="RadialGradID_582" gradientUnits="userSpaceOnUse" gradientTransform="matrix(0.00973511, 0, 0, 0.00881958, -6.85, -8.1)" spreadMethod ="pad" cx="0" cy="0" r="819.2" fx="0" fy="0" >
<stop  offset="0"  style="stop-color:#FFFFFF;stop-opacity:0.501961" />
<stop  offset="1"  style="stop-color:#FFFFFF;stop-opacity:0" />
</radialGradient>
<path style="fill:url(#RadialGradID_582) " d="M-3.45,-14.55L-3.4 -14.55L-3.4 -14.5L-3.45 -14.55M-9.75,-3.2L-9.35 -1.95L-9.35 -1.75L-9.4 -1.75L-9.8 -3.25L-9.75 -3.2" />
<radialGradient
id="RadialGradID_583" gradientUnits="userSpaceOnUse" gradientTransform="matrix(0.00921631, 0, 0, 0.00921631, -8.15, -10.5)" spreadMethod ="pad" cx="0" cy="0" r="819.2" fx="0" fy="0" >
<stop  offset="0"  style="stop-color:#FFFFFF;stop-opacity:0.392157" />
<stop  offset="1"  style="stop-color:#FFFFFF;stop-opacity:0" />
</radialGradient>
<path style="fill:url(#RadialGradID_583) " d="M-9.8,-3.25L-10.25 -6.4L-10.1 -7.7Q-10.1 -8.65 -7.95 -11.4Q-6.4 -13.55 -3.45 -14.55L-3.4 -14.5Q-6.3 -12.9 -8.15 -10Q-9.9 -7.3 -9.9 -4.75L-9.75 -3.2L-9.8 -3.25" />
<radialGradient
id="RadialGradID_584" gradientUnits="userSpaceOnUse" gradientTransform="matrix(0.00939941, 0, 0, 0.0085144, 6.3, -8.35)" spreadMethod ="pad" cx="0" cy="0" r="819.2" fx="0" fy="0" >
<stop  offset="0"  style="stop-color:#FFFFFF;stop-opacity:0.392157" />
<stop  offset="1"  style="stop-color:#FFFFFF;stop-opacity:0" />
</radialGradient>
<path style="fill:url(#RadialGradID_584) " d="M2.7,-14.3Q6.2 -13.8 8.45 -10.95Q10.35 -8.5 10.35 -6L9.85 -2.45L9.8 -2.45L10.05 -4.3Q10.05 -7.3 8.3 -10.05Q6.1 -13.5 2.3 -14.3L2.7 -14.3" />
</g>
</svg>
