<?xml version="1.0" encoding="utf-8"?>
<svg version="1.1" id="Layer_1"
xmlns="http://www.w3.org/2000/svg"
xmlns:xlink="http://www.w3.org/1999/xlink"
xmlns:author="http://www.sothink.com"
width="25px" height="31px"
xml:space="preserve">
<g id="104" transform="matrix(1, 0, 0, 1, 12.25, 15.15)">
<radialGradient
id="RadialGradID_650" gradientUnits="userSpaceOnUse" gradientTransform="matrix(0.00491333, 0, 0, 0.00608826, 8.1, 0.55)" spreadMethod ="pad" cx="0" cy="0" r="819.2" fx="0" fy="0" >
<stop  offset="0"  style="stop-color:#FB8F62;stop-opacity:1" />
<stop  offset="0.698039"  style="stop-color:#FEC7A3;stop-opacity:1" />
<stop  offset="1"  style="stop-color:#FEDEC1;stop-opacity:1" />
</radialGradient>
<path style="fill:url(#RadialGradID_650) " d="M11.7,-1.2L11.45 -1.5Q10.8 -1.15 10.25 -0.3Q9.7 0.6 9.7 1.05L9.8 1.55L9.6 2.25L9.45 2.95L9.55 3.55L9.9 3L10.45 2.7Q10.65 2.6 10.45 1.5L11.05 -0.6L11.2 0.25L10.9 2.5L11.55 0.8L11.6 0.6L11.75 -0.35L11.7 -1.2M9.8,-1.6L10.45 -2.05L11.25 -2.3Q11.7 -2.3 11.9 -1.9L12.25 0.15L11.2 2.5L9.7 5.05L9.35 5.3L9.05 5.3L8.75 5.3L9.8 -1.6" />
<radialGradient
id="RadialGradID_651" gradientUnits="userSpaceOnUse" gradientTransform="matrix(0.00328064, 0.00088501, -0.00137329, 0.00511169, 9.35, 0.75)" spreadMethod ="pad" cx="0" cy="0" r="819.2" fx="0" fy="0" >
<stop  offset="0"  style="stop-color:#EA8440;stop-opacity:1" />
<stop  offset="1"  style="stop-color:#FCC7A5;stop-opacity:1" />
</radialGradient>
<path style="fill:url(#RadialGradID_651) " d="M11.75,-0.35L11.6 0.6L11.55 0.8L10.9 2.5L11.2 0.25L11.05 -0.6L10.45 1.5Q10.65 2.6 10.45 2.7L9.9 3L9.55 3.55L9.45 2.95L9.6 2.25L9.8 1.55L9.7 1.05Q9.7 0.6 10.25 -0.3Q10.8 -1.15 11.45 -1.5L11.7 -1.2L11.75 -0.35" />
<path style="fill:none;stroke-width:0.05;stroke-linecap:round;stroke-linejoin:round;stroke-miterlimit:3;stroke:#B76340;stroke-opacity:0.501961" d="M9.8,-1.6L10.45 -2.05L11.25 -2.3Q11.7 -2.3 11.9 -1.9L12.25 0.15L11.2 2.5L9.7 5.05L9.35 5.3L9.05 5.3L8.75 5.3" />
<radialGradient
id="RadialGradID_652" gradientUnits="userSpaceOnUse" gradientTransform="matrix(-0.00491333, 0, 0, 0.00608826, -8.1, 0.6)" spreadMethod ="pad" cx="0" cy="0" r="819.2" fx="0" fy="0" >
<stop  offset="0"  style="stop-color:#FB8F62;stop-opacity:1" />
<stop  offset="0.698039"  style="stop-color:#FEC7A3;stop-opacity:1" />
<stop  offset="1"  style="stop-color:#FEDEC1;stop-opacity:1" />
</radialGradient>
<path style="fill:url(#RadialGradID_652) " d="M-11.7,-1.15L-11.45 -1.45Q-10.8 -1.1 -10.25 -0.25Q-9.7 0.65 -9.7 1.1L-9.8 1.6L-9.6 2.3L-9.45 3L-9.55 3.6L-9.9 3.05L-10.45 2.75Q-10.65 2.65 -10.45 1.55L-11.05 -0.55L-11.2 0.3L-10.9 2.55L-11.55 0.85L-11.6 0.65L-11.75 -0.3L-11.7 -1.15M-9.8,-1.55L-10.45 -2L-11.25 -2.25Q-11.7 -2.25 -11.9 -1.85L-12.25 0.2L-11.2 2.55L-9.7 5.1L-9.35 5.35L-9.05 5.35L-8.75 5.35L-9.8 -1.55" />
<radialGradient
id="RadialGradID_653" gradientUnits="userSpaceOnUse" gradientTransform="matrix(-0.00328064, 0.00088501, 0.00137329, 0.00511169, -9.35, 0.8)" spreadMethod ="pad" cx="0" cy="0" r="819.2" fx="0" fy="0" >
<stop  offset="0"  style="stop-color:#EA8440;stop-opacity:1" />
<stop  offset="1"  style="stop-color:#FCC7A5;stop-opacity:1" />
</radialGradient>
<path style="fill:url(#RadialGradID_653) " d="M-11.75,-0.3L-11.6 0.65L-11.55 0.85L-10.9 2.55L-11.2 0.3L-11.05 -0.55L-10.45 1.55Q-10.65 2.65 -10.45 2.75L-9.9 3.05L-9.55 3.6L-9.45 3L-9.6 2.3L-9.8 1.6L-9.7 1.1Q-9.7 0.65 -10.25 -0.25Q-10.8 -1.1 -11.45 -1.45L-11.7 -1.15L-11.75 -0.3" />
<path style="fill:none;stroke-width:0.05;stroke-linecap:round;stroke-linejoin:round;stroke-miterlimit:3;stroke:#B76340;stroke-opacity:0.501961" d="M-9.8,-1.55L-10.45 -2L-11.25 -2.25Q-11.7 -2.25 -11.9 -1.85L-12.25 0.2L-11.2 2.55L-9.7 5.1L-9.35 5.35L-9.05 5.35L-8.75 5.35" />
<path style="fill:#FEDEC2;fill-opacity:1" d="M-9.5,3.75L-9.95 1.7L-9.9 1.7L-9.5 3.75" />
<radialGradient
id="RadialGradID_654" gradientUnits="userSpaceOnUse" gradientTransform="matrix(0.0102081, 0.00109863, -0.00106812, 0.0104675, -10.9, 12.15)" spreadMethod ="pad" cx="0" cy="0" r="819.2" fx="0" fy="0" >
<stop  offset="0"  style="stop-color:#FBBD9D;stop-opacity:1" />
<stop  offset="1"  style="stop-color:#FEDEC1;stop-opacity:1" />
</radialGradient>
<path style="fill:url(#RadialGradID_654) " d="M-7.6,9.05L-7.6 9.15L-7.65 9.1L-7.6 9.05M-9.35,4.45L-9.4 4.4L-9.4 4.35L-9.35 4.45M-1.7,14.75L-1.7 14.8L-1.7 14.75" />
<radialGradient
id="RadialGradID_655" gradientUnits="userSpaceOnUse" gradientTransform="matrix(0.0133209, 0.000366211, -0.000366211, 0.0136566, 0.15, -12.2)" spreadMethod ="pad" cx="0" cy="0" r="819.2" fx="0" fy="0" >
<stop  offset="0"  style="stop-color:#FBBD9D;stop-opacity:1" />
<stop  offset="1"  style="stop-color:#FEDEC1;stop-opacity:1" />
</radialGradient>
<path style="fill:url(#RadialGradID_655) " d="M0.75,15.05L0.1 15.15L-1.35 14.95L0 15.1L0.75 15.05M-9.4,4.35L-9.4 4.1L-9.35 4.45L-9.4 4.35M-2.55,14.2L-2.8 14.05L-2.4 14.25L-2.35 14.3L-2.3 14.35Q-2.45 14.25 -2.55 14.2" />
<radialGradient
id="RadialGradID_656" gradientUnits="userSpaceOnUse" gradientTransform="matrix(0.00978088, 0.0010376, -0.00100708, 0.0100098, 10.3, 10.85)" spreadMethod ="pad" cx="0" cy="0" r="819.2" fx="0" fy="0" >
<stop  offset="0"  style="stop-color:#FBBD9D;stop-opacity:1" />
<stop  offset="1"  style="stop-color:#FEDEC1;stop-opacity:1" />
</radialGradient>
<path style="fill:url(#RadialGradID_656) " d="M7.6,9.4Q6.35 11.95 4.05 13.65L2.35 14.6L4 13.65L6 11.75L7.6 9.4M1.1,15L0.75 15.05L1.1 14.95L1.1 15M9.7,0.9L9.7 0.85L9.75 0.95L9.7 0.95L9.7 0.9" />
<radialGradient
id="RadialGradID_657" gradientUnits="userSpaceOnUse" gradientTransform="matrix(0.0134277, 0, 0, 0.0233765, -0.1, 4.4)" spreadMethod ="pad" cx="0" cy="0" r="819.2" fx="210515" fy="0" >
<stop  offset="0"  style="stop-color:#FFE5D1;stop-opacity:1" />
<stop  offset="1"  style="stop-color:#FBC9AB;stop-opacity:1" />
</radialGradient>
<path style="fill:url(#RadialGradID_657) " d="M-9.4,4.1L-9.5 3.75L-9.9 1.7L-9.95 1.7L-10.4 -0.4L-10.45 -0.5L-10.45 -0.65L-10.5 -0.9L-10.5 -1L-10.75 -2.7Q-10.95 -4.4 -10.6 -6.55Q-10.25 -8.75 -9 -10.45L-6.8 -12.8L-5.75 -13.5L-4.15 -14.4L-2.4 -14.9L1.45 -15.05Q4.05 -14.65 6.35 -13.1L6.6 -12.9Q8.85 -11.2 10.05 -8.5L10.15 -8.15L10.4 -7.4L10.45 -7.2L10.65 -6Q10.95 -4.2 10.75 -2.4L10.05 1.55L10.05 1.7L9.55 3.9L8.85 3.6L8.6 3.35L8.5 3.25L8.2 3.1L7.95 2.95L7.5 2.75L7.05 2.6L6.25 2.45Q4 2.2 2.2 3.8Q0.85 5.05 0.4 6.9L0.25 7.85L0.2 8.7Q0.2 9.75 0.55 10.65L1.4 12.25L1.65 12.6L2.75 13.65L2.2 14.4L1.1 14.95L0.75 15.05L0 15.1L-1.35 14.95L-1.65 14.75L-1.8 14.65L-1.7 14.75L-2.15 14.45L-2.3 14.35L-2.35 14.3L-2.3 14.3L-2.6 14.1L-2.6 14.05L-2.55 14L-2.15 13.45Q-0.8 12.2 -0.35 10.35L-0.2 9.4L-0.15 8.7Q-0.15 7.6 -0.5 6.65Q-0.8 5.75 -1.35 5L-2.05 4.15L-2.5 3.8L-3 3.5L-3.05 3.45L-3.3 3.35L-3.7 3.15L-4.15 3L-5 2.85Q-6.25 2.7 -8.75 5.05L-9.1 5.35L-9.35 4.5L-9.35 4.45L-9.4 4.1M9.75,0.95L9.7 0.85L9.7 0.9L9.65 0.95L9.7 0.95L9.75 0.95" />
<radialGradient
id="RadialGradID_658" gradientUnits="userSpaceOnUse" gradientTransform="matrix(0.00717163, -0.00192261, 0.00300598, 0.0112152, -6.55, 9.55)" spreadMethod ="pad" cx="0" cy="0" r="819.2" fx="0" fy="0" >
<stop  offset="0"  style="stop-color:#FBBD9D;stop-opacity:1" />
<stop  offset="1"  style="stop-color:#FDDDC7;stop-opacity:1" />
</radialGradient>
<path style="fill:url(#RadialGradID_658) " d="M-1.7,14.8Q-2.8 14.45 -3.9 13.65L-5.9 11.75L-6.75 10.65L-6.9 10.35L-7.3 9.7L-7.4 9.5L-7.6 9.05L-7.65 9.1L-8.6 6.9L-8.9 5.9L-9.1 5.35L-8.75 5.05Q-6.25 2.7 -5 2.85L-4.15 3L-3.7 3.15L-3.3 3.35L-3.05 3.45L-3 3.5L-2.5 3.8L-2.05 4.15L-1.35 5Q-0.8 5.75 -0.5 6.65Q-0.15 7.6 -0.15 8.7L-0.2 9.4L-0.35 10.35Q-0.8 12.2 -2.15 13.45L-2.55 14L-2.6 14.05L-2.6 14.1L-2.3 14.3L-2.35 14.3L-2.4 14.25L-2.8 14.05L-2.55 14.2Q-2.45 14.25 -2.3 14.35L-2.15 14.45L-1.7 14.75L-1.7 14.8" />
<radialGradient
id="RadialGradID_659" gradientUnits="userSpaceOnUse" gradientTransform="matrix(0.00759888, 0.00202942, -0.00299072, 0.0111694, 7, 8.7)" spreadMethod ="pad" cx="0" cy="0" r="819.2" fx="0" fy="0" >
<stop  offset="0"  style="stop-color:#FBBD9D;stop-opacity:1" />
<stop  offset="1"  style="stop-color:#FDDDC7;stop-opacity:1" />
</radialGradient>
<path style="fill:url(#RadialGradID_659) " d="M1.1,14.95L2.2 14.4L2.75 13.65L1.65 12.6L1.4 12.25L0.55 10.65Q0.2 9.75 0.2 8.7L0.25 7.85L0.4 6.9Q0.85 5.05 2.2 3.8Q4 2.2 6.25 2.45L7.05 2.6L7.5 2.75L7.95 2.95L8.2 3.1L8.5 3.25L8.6 3.35L8.85 3.6L9.55 3.9L8.9 6.4L8.7 6.9L7.6 9.4L6 11.75L4 13.65L2.35 14.6L1.8 14.8L1.8 14.85L1.65 14.9L1.45 14.95L1.4 14.95L1.1 15L1.1 14.95M8.8,4.5L8.75 4.45L8.75 4.5L8.8 4.5" />
<path style="fill:none;stroke-width:0.05;stroke-linecap:round;stroke-linejoin:round;stroke-miterlimit:3;stroke:#B76340;stroke-opacity:0.501961" d="M-9.35,4.5L-9.35 4.45L-9.4 4.1L-9.5 3.75L-9.95 1.7L-10.4 -0.4L-10.45 -0.5L-10.45 -0.65L-10.5 -0.9L-10.5 -1L-10.75 -2.7Q-10.95 -4.4 -10.6 -6.55Q-10.25 -8.75 -9 -10.45L-6.8 -12.8L-5.75 -13.5L-4.15 -14.4L-2.4 -14.9L1.45 -15.05Q4.05 -14.65 6.35 -13.1L6.6 -12.9Q8.85 -11.2 10.05 -8.5L10.15 -8.15L10.4 -7.4L10.45 -7.2L10.65 -6Q10.95 -4.2 10.75 -2.4L10.05 1.55L10.05 1.7M8.7,6.9L7.6 9.4M2.35,14.6L1.8 14.8L1.8 14.85L1.65 14.9L1.45 14.95L1.4 14.95L1.1 15L0.75 15.05M-1.35,14.95L-1.65 14.85L-1.7 14.8Q-2.8 14.45 -3.9 13.65L-5.9 11.75L-6.75 10.65L-6.9 10.35L-7.3 9.7L-7.4 9.5L-7.6 9.15L-7.65 9.1L-8.6 6.9M-1.35,14.95L0 15.1L0.75 15.05M2.35,14.6L4 13.65L6 11.75L7.6 9.4" />
<path style="fill:none;stroke-width:0.05;stroke-linecap:round;stroke-linejoin:bevel;stroke-miterlimit:3;stroke:#B76340;stroke-opacity:0.501961" d="M10.05,1.7L9.55 3.9L8.9 6.4L8.7 6.9M-8.6,6.9L-8.9 5.9L-9.1 5.35L-9.35 4.5M-9.4,4.35L-9.4 4.1M-9.4,4.35L-9.35 4.45" />
<radialGradient
id="RadialGradID_660" gradientUnits="userSpaceOnUse" gradientTransform="matrix(0.00756836, 0, 0, 0.00494385, -0.9, 14.9)" spreadMethod ="pad" cx="0" cy="0" r="819.2" fx="0" fy="0" >
<stop  offset="0"  style="stop-color:#FBBD9D;stop-opacity:1" />
<stop  offset="1"  style="stop-color:#FDDDC7;stop-opacity:1" />
</radialGradient>
<path style="fill:url(#RadialGradID_660) " d="M2.5,13.65Q1.4 14.5 0.05 14.45L-1.5 14.1L-1.8 13.75L0.55 14.1L2.5 13.65" />
<radialGradient
id="RadialGradID_661" gradientUnits="userSpaceOnUse" gradientTransform="matrix(0.00143433, 0.00106812, -0.00337219, 0.00474548, 6.8, 10.45)" spreadMethod ="pad" cx="0" cy="0" r="819.2" fx="0" fy="0" >
<stop  offset="0"  style="stop-color:#FFFFFF;stop-opacity:0.431373" />
<stop  offset="1"  style="stop-color:#FFFFFF;stop-opacity:0" />
</radialGradient>
<path style="fill:url(#RadialGradID_661) " d="M7,8.7L7.85 6.65L6.6 10.4L3.35 13.7L6.25 10.15L7 8.7" />
<radialGradient
id="RadialGradID_662" gradientUnits="userSpaceOnUse" gradientTransform="matrix(0.00973511, 0, 0, 0.00881958, -6.85, -8)" spreadMethod ="pad" cx="0" cy="0" r="819.2" fx="0" fy="0" >
<stop  offset="0"  style="stop-color:#FFFFFF;stop-opacity:0.501961" />
<stop  offset="1"  style="stop-color:#FFFFFF;stop-opacity:0" />
</radialGradient>
<path style="fill:url(#RadialGradID_662) " d="M-3.45,-14.45L-3.4 -14.45L-3.4 -14.4L-3.45 -14.45M-9.75,-3.1L-9.35 -1.85L-9.35 -1.65L-9.4 -1.65L-9.8 -3.15L-9.75 -3.1" />
<radialGradient
id="RadialGradID_663" gradientUnits="userSpaceOnUse" gradientTransform="matrix(0.00921631, 0, 0, 0.00921631, -8.15, -10.4)" spreadMethod ="pad" cx="0" cy="0" r="819.2" fx="0" fy="0" >
<stop  offset="0"  style="stop-color:#FFFFFF;stop-opacity:0.392157" />
<stop  offset="1"  style="stop-color:#FFFFFF;stop-opacity:0" />
</radialGradient>
<path style="fill:url(#RadialGradID_663) " d="M-9.8,-3.15L-10.25 -6.3L-10.1 -7.6Q-10.1 -8.55 -7.95 -11.3Q-6.4 -13.45 -3.45 -14.45L-3.4 -14.4Q-6.3 -12.8 -8.15 -9.9Q-9.9 -7.2 -9.9 -4.65L-9.75 -3.1L-9.8 -3.15" />
<radialGradient
id="RadialGradID_664" gradientUnits="userSpaceOnUse" gradientTransform="matrix(0.00939941, 0, 0, 0.0085144, 6.3, -8.25)" spreadMethod ="pad" cx="0" cy="0" r="819.2" fx="0" fy="0" >
<stop  offset="0"  style="stop-color:#FFFFFF;stop-opacity:0.392157" />
<stop  offset="1"  style="stop-color:#FFFFFF;stop-opacity:0" />
</radialGradient>
<path style="fill:url(#RadialGradID_664) " d="M2.7,-14.2Q6.2 -13.7 8.45 -10.85Q10.35 -8.4 10.35 -5.9L9.85 -2.35L9.8 -2.35L10.05 -4.2Q10.05 -7.2 8.3 -9.95Q6.1 -13.4 2.3 -14.2L2.7 -14.2" />
</g>
</svg>
