<?xml version="1.0" encoding="utf-8"?>
<svg version="1.1" id="Layer_1"
xmlns="http://www.w3.org/2000/svg"
xmlns:xlink="http://www.w3.org/1999/xlink"
xmlns:author="http://www.sothink.com"
width="25px" height="31px"
xml:space="preserve">
<g id="103" transform="matrix(1, 0, 0, 1, 12.25, 15.1)">
<radialGradient
id="RadialGradID_633" gradientUnits="userSpaceOnUse" gradientTransform="matrix(0.00491333, 0, 0, 0.00608826, 8.1, 0.65)" spreadMethod ="pad" cx="0" cy="0" r="819.2" fx="0" fy="0" >
<stop  offset="0"  style="stop-color:#FB8F62;stop-opacity:1" />
<stop  offset="0.698039"  style="stop-color:#FEC7A3;stop-opacity:1" />
<stop  offset="1"  style="stop-color:#FEDEC1;stop-opacity:1" />
</radialGradient>
<path style="fill:url(#RadialGradID_633) " d="M11.7,-1.1L11.45 -1.4Q10.8 -1.05 10.25 -0.2Q9.7 0.7 9.7 1.15L9.8 1.65L9.6 2.35L9.45 3.05L9.55 3.65L9.9 3.1L10.45 2.8Q10.65 2.7 10.45 1.6L11.05 -0.5L11.2 0.35L10.9 2.6L11.55 0.9L11.6 0.7L11.75 -0.25L11.7 -1.1M9.8,-1.5L10.45 -1.95L11.25 -2.2Q11.7 -2.2 11.9 -1.8L12.25 0.25L11.2 2.6L9.7 5.15L9.35 5.4L9.05 5.4L8.75 5.4L9.8 -1.5" />
<radialGradient
id="RadialGradID_634" gradientUnits="userSpaceOnUse" gradientTransform="matrix(0.00328064, 0.00088501, -0.00137329, 0.00511169, 9.35, 0.85)" spreadMethod ="pad" cx="0" cy="0" r="819.2" fx="0" fy="0" >
<stop  offset="0"  style="stop-color:#EA8440;stop-opacity:1" />
<stop  offset="1"  style="stop-color:#FCC7A5;stop-opacity:1" />
</radialGradient>
<path style="fill:url(#RadialGradID_634) " d="M11.75,-0.25L11.6 0.7L11.55 0.9L10.9 2.6L11.2 0.35L11.05 -0.5L10.45 1.6Q10.65 2.7 10.45 2.8L9.9 3.1L9.55 3.65L9.45 3.05L9.6 2.35L9.8 1.65L9.7 1.15Q9.7 0.7 10.25 -0.2Q10.8 -1.05 11.45 -1.4L11.7 -1.1L11.75 -0.25" />
<path style="fill:none;stroke-width:0.05;stroke-linecap:round;stroke-linejoin:round;stroke-miterlimit:3;stroke:#B76340;stroke-opacity:0.501961" d="M9.8,-1.5L10.45 -1.95L11.25 -2.2Q11.7 -2.2 11.9 -1.8L12.25 0.25L11.2 2.6L9.7 5.15L9.35 5.4L9.05 5.4L8.75 5.4" />
<radialGradient
id="RadialGradID_635" gradientUnits="userSpaceOnUse" gradientTransform="matrix(-0.00491333, 0, 0, 0.00608826, -8.1, 0.65)" spreadMethod ="pad" cx="0" cy="0" r="819.2" fx="0" fy="0" >
<stop  offset="0"  style="stop-color:#FB8F62;stop-opacity:1" />
<stop  offset="0.698039"  style="stop-color:#FEC7A3;stop-opacity:1" />
<stop  offset="1"  style="stop-color:#FEDEC1;stop-opacity:1" />
</radialGradient>
<path style="fill:url(#RadialGradID_635) " d="M-11.7,-1.1L-11.45 -1.4Q-10.8 -1.05 -10.25 -0.2Q-9.7 0.7 -9.7 1.15L-9.8 1.65L-9.6 2.35L-9.45 3.05L-9.55 3.65L-9.9 3.1L-10.45 2.8Q-10.65 2.7 -10.45 1.6L-11.05 -0.5L-11.2 0.35L-10.9 2.6L-11.55 0.9L-11.6 0.7L-11.75 -0.25L-11.7 -1.1M-9.8,-1.5L-10.45 -1.95L-11.25 -2.2Q-11.7 -2.2 -11.9 -1.8L-12.25 0.25L-11.2 2.6L-9.7 5.15L-9.35 5.4L-9.05 5.4L-8.75 5.4L-9.8 -1.5" />
<radialGradient
id="RadialGradID_636" gradientUnits="userSpaceOnUse" gradientTransform="matrix(-0.00328064, 0.00088501, 0.00137329, 0.00511169, -9.35, 0.85)" spreadMethod ="pad" cx="0" cy="0" r="819.2" fx="0" fy="0" >
<stop  offset="0"  style="stop-color:#EA8440;stop-opacity:1" />
<stop  offset="1"  style="stop-color:#FCC7A5;stop-opacity:1" />
</radialGradient>
<path style="fill:url(#RadialGradID_636) " d="M-11.75,-0.25L-11.6 0.7L-11.55 0.9L-10.9 2.6L-11.2 0.35L-11.05 -0.5L-10.45 1.6Q-10.65 2.7 -10.45 2.8L-9.9 3.1L-9.55 3.65L-9.45 3.05L-9.6 2.35L-9.8 1.65L-9.7 1.15Q-9.7 0.7 -10.25 -0.2Q-10.8 -1.05 -11.45 -1.4L-11.7 -1.1L-11.75 -0.25" />
<path style="fill:none;stroke-width:0.05;stroke-linecap:round;stroke-linejoin:round;stroke-miterlimit:3;stroke:#B76340;stroke-opacity:0.501961" d="M-9.8,-1.5L-10.45 -1.95L-11.25 -2.2Q-11.7 -2.2 -11.9 -1.8L-12.25 0.25L-11.2 2.6L-9.7 5.15L-9.35 5.4L-9.05 5.4L-8.75 5.4" />
<radialGradient
id="RadialGradID_637" gradientUnits="userSpaceOnUse" gradientTransform="matrix(0.0132294, 0.000350952, -0.000350952, 0.0133209, 0.05, -10.65)" spreadMethod ="pad" cx="0" cy="0" r="819.2" fx="0" fy="0" >
<stop  offset="0"  style="stop-color:#FBBD9D;stop-opacity:1" />
<stop  offset="1"  style="stop-color:#FEDEC1;stop-opacity:1" />
</radialGradient>
<path style="fill:url(#RadialGradID_637) " d="M-7.95,9.35L-8.15 8.8L-8.05 8.75L-7.95 9.35M-7.8,7.95L-7.8 8L-7.85 7.95L-7.8 7.95" />
<radialGradient
id="RadialGradID_638" gradientUnits="userSpaceOnUse" gradientTransform="matrix(0.00970459, 0.00102234, -0.00100708, 0.00976563, 10.15, 11.85)" spreadMethod ="pad" cx="0" cy="0" r="819.2" fx="0" fy="0" >
<stop  offset="0"  style="stop-color:#FBBD9D;stop-opacity:1" />
<stop  offset="1"  style="stop-color:#FEDEC1;stop-opacity:1" />
</radialGradient>
<path style="fill:url(#RadialGradID_638) " d="M8.75,3.8L8.75 3.75L8.8 3.55L8.75 3.8M2.45,14.35L2.35 14.35L2.25 14.4L2.4 14.3L2.45 14.3L2.45 14.35" />
<radialGradient
id="RadialGradID_639" gradientUnits="userSpaceOnUse" gradientTransform="matrix(0.00518799, 0.000106812, -0.00012207, 0.00523376, -9.5, 5.5)" spreadMethod ="pad" cx="0" cy="0" r="819.2" fx="0" fy="0" >
<stop  offset="0"  style="stop-color:#EFA06D;stop-opacity:1" />
<stop  offset="1"  style="stop-color:#FCC7A5;stop-opacity:1" />
</radialGradient>
<path style="fill:url(#RadialGradID_639) " d="M-8.8,6.15L-8.5 6.1L-8.8 6.2L-8.8 6.15" />
<radialGradient
id="RadialGradID_640" gradientUnits="userSpaceOnUse" gradientTransform="matrix(0.0112762, 0, 0, 0.0235596, 0.1, 3.6)" spreadMethod ="pad" cx="0" cy="0" r="819.2" fx="210515" fy="0" >
<stop  offset="0"  style="stop-color:#FFE5D1;stop-opacity:1" />
<stop  offset="1"  style="stop-color:#FBC9AB;stop-opacity:1" />
</radialGradient>
<path style="fill:url(#RadialGradID_640) " d="M2.4,14.3L2.25 14.4L2.35 14.35L2.45 14.35L2.65 14.35L2.95 14.3L3.4 14.65L0.8 15.15L-0.1 15.15L-0.6 15.15L-3.05 14.7L-2.65 14.5L-2.25 13.95Q-0.95 12.8 -0.5 11.2L-0.4 10.35L-0.3 9.7Q-0.4 8.65 -0.65 7.7Q-0.95 6.85 -1.4 6.25L-2.15 5.4L-2.6 5.1Q-2.85 4.9 -3.05 4.8L-3.05 4.75Q-3.2 4.65 -3.3 4.6L-3.7 4.5L-4.1 4.35L-4.9 4.25L-7.2 4.5L-7.65 4.1L-8.3 3.85L-9.3 4.3L-10.15 0.9L-10.45 -0.45L-10.45 -0.6L-10.5 -0.85L-10.5 -0.95L-10.75 -2.65Q-10.95 -4.35 -10.6 -6.5Q-10.25 -8.7 -9 -10.4L-6.8 -12.75L-5.75 -13.45L-4.15 -14.35L-2.4 -14.85L1.45 -15Q4.05 -14.6 6.35 -13.05L6.6 -12.85Q8.85 -11.15 10.05 -8.45L10.15 -8.1L10.4 -7.35L10.45 -7.15L10.65 -5.95Q10.95 -4.1 10.7 -2.25L10.65 -1.95L10.6 -1.5L10.2 0.4L10.15 0.45L10.15 0.6L10.1 0.65L10.05 0.9L9.35 4.25L9.3 4.25L8.75 3.85L8.75 3.8L8.8 3.55L8.75 3.75L8.75 3.8L8.65 3.9L8.6 4.15L8.5 4.5L8.45 4.6L8.4 4.8L8.4 4.85L8.35 5L8.2 4.9L8.05 4.8L7.9 4.6L7.6 4.5L7.55 4.5Q7.45 4.35 7.35 4.35L6.95 4.15L6.55 3.95L5.8 3.8Q3.6 3.55 1.9 5.15Q0.55 6.3 0.2 8.05Q0.05 8.35 0.05 8.9L0 9.7L0.25 11.45L1.05 12.9L1.35 13.25L2.3 14.2L2.45 14.25L2.45 14.3L2.4 14.3" />
<radialGradient
id="RadialGradID_641" gradientUnits="userSpaceOnUse" gradientTransform="matrix(0.00714111, 0.00274658, -0.00468445, 0.0121765, 6.75, 9.2)" spreadMethod ="pad" cx="0" cy="0" r="819.2" fx="0" fy="0" >
<stop  offset="0"  style="stop-color:#FBBD9D;stop-opacity:1" />
<stop  offset="1"  style="stop-color:#FDDDC7;stop-opacity:1" />
</radialGradient>
<path style="fill:url(#RadialGradID_641) " d="M2.45,14.3L2.45 14.25L2.3 14.2L1.35 13.25L1.05 12.9L0.25 11.45L0 9.7L0.05 8.9Q0.05 8.35 0.2 8.05Q0.55 6.3 1.9 5.15Q3.6 3.55 5.8 3.8L6.55 3.95L6.95 4.15L7.35 4.35Q7.45 4.35 7.55 4.5L7.6 4.5L7.9 4.6L8.05 4.8L8.2 4.9L8.35 5L8.4 4.85L8.4 4.8L8.45 4.6L8.5 4.5L8.6 4.15L8.65 3.9L8.75 3.8L8.75 3.85L9.3 4.25L9.2 4.95L9.15 5.2L9 6.2L8.35 8.8L8.1 9.45L7.1 11.5Q5.65 13.8 3.4 14.65L2.95 14.3L2.65 14.35L2.45 14.35L2.45 14.3" />
<radialGradient
id="RadialGradID_642" gradientUnits="userSpaceOnUse" gradientTransform="matrix(0.0088501, -0.00283813, 0.00486755, 0.0151062, -8.4, 10)" spreadMethod ="pad" cx="0" cy="0" r="819.2" fx="0" fy="0" >
<stop  offset="0"  style="stop-color:#FBBD9D;stop-opacity:1" />
<stop  offset="1"  style="stop-color:#FDDDC7;stop-opacity:1" />
</radialGradient>
<path style="fill:url(#RadialGradID_642) " d="M-8.05,8.75L-8.15 8.8L-8.6 7.4L-8.65 7.15L-8.7 6.6L-8.75 6.4L-8.75 6.35L-8.75 6.3L-8.8 6.2L-9.3 4.3L-8.3 3.85L-7.65 4.1L-7.2 4.5L-4.9 4.25L-4.1 4.35L-3.7 4.5L-3.3 4.6Q-3.2 4.65 -3.05 4.75L-3.05 4.8Q-2.85 4.9 -2.6 5.1L-2.15 5.4L-1.4 6.25Q-0.95 6.85 -0.65 7.7Q-0.4 8.65 -0.3 9.7L-0.4 10.35L-0.5 11.2Q-0.95 12.8 -2.25 13.95L-2.65 14.5L-3.05 14.7Q-5 14 -6.35 12.3L-6.9 11.5L-7.95 9.35L-8.05 8.75M-8.8,6.2L-8.5 6.1L-8.8 6.15L-8.8 6.2M-7.85,7.95L-7.8 8L-7.8 7.95L-7.85 7.95" />
<path style="fill:none;stroke-width:0.05;stroke-linecap:round;stroke-linejoin:bevel;stroke-miterlimit:3;stroke:#B76340;stroke-opacity:0.501961" d="M9,6.2L8.35 8.8L8.1 9.45L7.1 11.5Q5.65 13.8 3.4 14.65L0.8 15.15L-0.1 15.15L-0.6 15.15L-3.05 14.7Q-5 14 -6.35 12.3L-6.9 11.5L-7.95 9.35L-8.15 8.8L-8.6 7.4L-8.65 7.15L-8.7 6.6M-8.75,6.4L-8.75 6.35M-8.8,6.2L-8.8 6.15" />
<path style="fill:none;stroke-width:0.05;stroke-linecap:round;stroke-linejoin:round;stroke-miterlimit:3;stroke:#B76340;stroke-opacity:0.501961" d="M-8.75,6.35L-8.75 6.3L-8.8 6.2L-9.3 4.3L-10.15 0.9L-10.45 -0.45L-10.45 -0.6L-10.5 -0.85L-10.5 -0.95L-10.75 -2.65Q-10.95 -4.35 -10.6 -6.5Q-10.25 -8.7 -9 -10.4L-6.8 -12.75L-5.75 -13.45L-4.15 -14.35L-2.4 -14.85L1.45 -15Q4.05 -14.6 6.35 -13.05L6.6 -12.85Q8.85 -11.15 10.05 -8.45L10.15 -8.1L10.4 -7.35L10.45 -7.15L10.65 -5.95Q10.95 -4.1 10.7 -2.25L10.65 -1.95L10.6 -1.5L10.2 0.4L10.15 0.45L10.15 0.6L10.1 0.65L10.05 0.9L9.35 4.25L9.2 4.95L9.15 5.2L9 6.2M-8.7,6.6L-8.75 6.4" />
<radialGradient
id="RadialGradID_643" gradientUnits="userSpaceOnUse" gradientTransform="matrix(0.00610352, 0, 0, 0.00610352, -0.9, 14.5)" spreadMethod ="pad" cx="0" cy="0" r="819.2" fx="0" fy="0" >
<stop  offset="0"  style="stop-color:#FBBD9D;stop-opacity:1" />
<stop  offset="1"  style="stop-color:#FDDDC7;stop-opacity:1" />
</radialGradient>
<path style="fill:url(#RadialGradID_643) " d="M2.15,13.85Q1.1 14.75 -0.2 14.7L-0.55 14.65L-1.8 14.35L-2.05 13.95Q-1.35 14.4 0.2 14.3L2.15 13.85" />
<radialGradient
id="RadialGradID_644" gradientUnits="userSpaceOnUse" gradientTransform="matrix(0.00973511, 0, 0, 0.00881958, -6.85, -7.95)" spreadMethod ="pad" cx="0" cy="0" r="819.2" fx="0" fy="0" >
<stop  offset="0"  style="stop-color:#FFFFFF;stop-opacity:0.501961" />
<stop  offset="1"  style="stop-color:#FFFFFF;stop-opacity:0" />
</radialGradient>
<path style="fill:url(#RadialGradID_644) " d="M-3.45,-14.4L-3.4 -14.4L-3.4 -14.35L-3.45 -14.4M-9.75,-3.05L-9.35 -1.8L-9.35 -1.6L-9.4 -1.6L-9.8 -3.1L-9.75 -3.05" />
<radialGradient
id="RadialGradID_645" gradientUnits="userSpaceOnUse" gradientTransform="matrix(0.00921631, 0, 0, 0.00921631, -8.15, -10.35)" spreadMethod ="pad" cx="0" cy="0" r="819.2" fx="0" fy="0" >
<stop  offset="0"  style="stop-color:#FFFFFF;stop-opacity:0.392157" />
<stop  offset="1"  style="stop-color:#FFFFFF;stop-opacity:0" />
</radialGradient>
<path style="fill:url(#RadialGradID_645) " d="M-9.8,-3.1L-10.25 -6.25L-10.1 -7.55Q-10.1 -8.5 -7.95 -11.25Q-6.4 -13.4 -3.45 -14.4L-3.4 -14.35Q-6.3 -12.75 -8.15 -9.85Q-9.9 -7.15 -9.9 -4.6L-9.75 -3.05L-9.8 -3.1" />
<radialGradient
id="RadialGradID_646" gradientUnits="userSpaceOnUse" gradientTransform="matrix(0.00939941, 0, 0, 0.0085144, 6.3, -8.2)" spreadMethod ="pad" cx="0" cy="0" r="819.2" fx="0" fy="0" >
<stop  offset="0"  style="stop-color:#FFFFFF;stop-opacity:0.392157" />
<stop  offset="1"  style="stop-color:#FFFFFF;stop-opacity:0" />
</radialGradient>
<path style="fill:url(#RadialGradID_646) " d="M2.7,-14.15Q6.2 -13.65 8.45 -10.8Q10.35 -8.35 10.35 -5.85L9.85 -2.3L9.8 -2.3L10.05 -4.15Q10.05 -7.15 8.3 -9.9Q6.1 -13.35 2.3 -14.15L2.7 -14.15" />
<radialGradient
id="RadialGradID_647" gradientUnits="userSpaceOnUse" gradientTransform="matrix(0.00141907, 0.0010376, -0.00335693, 0.00463867, 7.5, 10.4)" spreadMethod ="pad" cx="0" cy="0" r="819.2" fx="0" fy="0" >
<stop  offset="0"  style="stop-color:#FFFFFF;stop-opacity:0.431373" />
<stop  offset="1"  style="stop-color:#FFFFFF;stop-opacity:0" />
</radialGradient>
<path style="fill:url(#RadialGradID_647) " d="M7.7,8.7L8.5 6.65L7.3 10.4L4 13.55L6.95 10.1L7.7 8.7" />
<radialGradient
id="RadialGradID_648" gradientUnits="userSpaceOnUse" gradientTransform="matrix(0.00221252, 0.00102234, -0.000701904, 0.00480652, 6, 5.6)" spreadMethod ="pad" cx="0" cy="0" r="819.2" fx="0" fy="0" >
<stop  offset="0"  style="stop-color:#FFFFFF;stop-opacity:0.25098" />
<stop  offset="1"  style="stop-color:#FFFFFF;stop-opacity:0" />
</radialGradient>
<path style="fill:url(#RadialGradID_648) " d="M7.7,5.65Q7.6 6.55 6.95 7.5Q6.2 8.5 5.6 8.65Q5 8.8 4.45 8.05Q3.95 7.25 4.05 6.35Q4.15 5.45 4.9 4.55Q5.55 3.5 6.2 3.35Q6.8 3.25 7.3 4.05Q7.8 4.8 7.7 5.65" />
<radialGradient
id="RadialGradID_649" gradientUnits="userSpaceOnUse" gradientTransform="matrix(0.00196838, -0.000518799, 0.00062561, 0.00302124, -5.55, 5.85)" spreadMethod ="pad" cx="0" cy="0" r="819.2" fx="0" fy="0" >
<stop  offset="0"  style="stop-color:#FFFFFF;stop-opacity:0.25098" />
<stop  offset="1"  style="stop-color:#FFFFFF;stop-opacity:0" />
</radialGradient>
<path style="fill:url(#RadialGradID_649) " d="M-6.8,4.35Q-6.45 3.35 -5.9 3.2Q-5.4 3.1 -4.7 3.8Q-4.05 4.4 -3.9 5.15Q-3.7 6 -4.05 6.95Q-4.45 7.85 -4.95 8Q-5.45 8.15 -6.15 7.5L-6.95 6Q-7.15 5.25 -6.8 4.35" />
</g>
</svg>
