<?xml version="1.0" encoding="utf-8"?>
<svg version="1.1" id="Layer_1"
xmlns="http://www.w3.org/2000/svg"
xmlns:xlink="http://www.w3.org/1999/xlink"
xmlns:author="http://www.sothink.com"
width="25px" height="31px"
xml:space="preserve">
<g id="98" transform="matrix(1, 0, 0, 1, 12.4, 15.1)">
<radialGradient
id="RadialGradID_547" gradientUnits="userSpaceOnUse" gradientTransform="matrix(0.0157928, 0, 0, 0.0186768, 0.15, 5.35)" spreadMethod ="pad" cx="0" cy="0" r="819.2" fx="210515" fy="0" >
<stop  offset="0"  style="stop-color:#FFE5D1;stop-opacity:1" />
<stop  offset="1"  style="stop-color:#FBC9AB;stop-opacity:1" />
</radialGradient>
<path style="fill:url(#RadialGradID_547) " d="M10.25,0.4L10.3 0.4L9.6 4.95L9.55 4.95L9.6 4.25L8.55 3.8L8.5 3.8L8.2 3.65L7.95 3.5L7.5 3.3L7.05 3.15L6.3 3Q4 2.75 2.25 4.35Q0.85 5.6 0.45 7.45Q0.3 7.9 0.3 8.4Q0.1 9.9 0.55 11.2L0.95 12.15L1.4 12.8L1.65 13.15L1.9 13.45L2.1 13.6L2.35 13.85L-2 13.85L-1.75 13.6Q-1.1 12.95 -0.75 12.15L-0.3 10.9L-0.15 9.95Q0 8.45 -0.45 7.2Q-0.8 6.3 -1.3 5.55L-2.05 4.7L-2.5 4.35L-2.95 4.05L-3 4L-3.25 3.9L-3.7 3.7L-4.1 3.55L-4.9 3.4Q-6.75 3.2 -8.6 4.85L-9.05 5.25L-9.75 1.95L-9.85 1.5L-9.8 1.95L-9.5 4.95L-9.55 4.95L-10.4 -0.6L-10.45 -0.85L-10.45 -0.95L-10.7 -2.65Q-10.9 -4.35 -10.55 -6.5Q-10.2 -8.7 -8.95 -10.4L-6.75 -12.75L-5.7 -13.45L-4.1 -14.35L-2.35 -14.85L1.5 -15Q4.1 -14.6 6.4 -13.05L6.65 -12.85Q8.9 -11.15 10.1 -8.45L10.2 -8.1L10.45 -7.35L10.5 -7.15L10.7 -5.95Q11 -4.1 10.75 -2.25L10.7 -1.95L10.65 -1.5L10.45 -0.6L10.25 0.4M10,0.9L9.9 0.9L10 0.95L10 0.9" />
<radialGradient
id="RadialGradID_548" gradientUnits="userSpaceOnUse" gradientTransform="matrix(0.012207, 0, 0, 0.0133057, -10, 11.5)" spreadMethod ="pad" cx="0" cy="0" r="819.2" fx="210524" fy="0" >
<stop  offset="0"  style="stop-color:#FBBD9D;stop-opacity:1" />
<stop  offset="1"  style="stop-color:#FDDDC7;stop-opacity:1" />
</radialGradient>
<path style="fill:url(#RadialGradID_548) " d="M-3.5,14.3Q-5.4 13.9 -6.6 13.2L-6.85 13.05L-7.85 12.25L-8.5 11.45L-8.9 10.25L-9.2 8.15L-9.45 5.4L-9.45 5.35L-9.5 4.95L-9.8 1.95L-9.75 1.95L-9.05 5.25L-8.6 4.85Q-6.75 3.2 -4.9 3.4L-4.1 3.55L-3.7 3.7L-3.25 3.9L-3 4L-2.95 4.05L-2.5 4.35L-2.05 4.7L-1.3 5.55Q-0.8 6.3 -0.45 7.2Q0 8.45 -0.15 9.95L-0.3 10.9L-0.75 12.15Q-1.1 12.95 -1.75 13.6L-2 13.85L-2.7 14.5L-2.65 14.55L-2.75 14.6L-3 14.45L-3.05 14.4L-3.1 14.4L-3.15 14.4L-3.25 14.35L-3.5 14.15L-3.65 14.05L-3.65 14.15L-3.5 14.3M-8.35,6.8L-8.45 6.4L-8.4 6.8L-8.35 6.85L-8.35 6.8M-8.1,7.4L-8.1 7.45L-8.05 7.4L-8.1 7.4M-5.25,12.15L-5.2 12.25L-5.1 12.35L-5.2 12.2L-5.25 12.15" />
<radialGradient
id="RadialGradID_549" gradientUnits="userSpaceOnUse" gradientTransform="matrix(0.00489807, 0.000366211, -0.000350952, 0.00502014, -7.5, 3.45)" spreadMethod ="pad" cx="0" cy="0" r="819.2" fx="0" fy="0" >
<stop  offset="0"  style="stop-color:#FCA783;stop-opacity:1" />
<stop  offset="1"  style="stop-color:#FEDEC1;stop-opacity:1" />
</radialGradient>
<path style="fill:url(#RadialGradID_549) " d="M-8.35,6.85L-8.4 6.8L-8.45 6.4L-8.35 6.8L-8.35 6.85" />
<radialGradient
id="RadialGradID_550" gradientUnits="userSpaceOnUse" gradientTransform="matrix(0.0151215, 0.000411987, -0.000396729, 0.0155182, 0.55, -14.65)" spreadMethod ="pad" cx="0" cy="0" r="819.2" fx="0" fy="0" >
<stop  offset="0"  style="stop-color:#FBBD9D;stop-opacity:1" />
<stop  offset="1"  style="stop-color:#FEDEC1;stop-opacity:1" />
</radialGradient>
<path style="fill:url(#RadialGradID_550) " d="M0.25,15L0.2 15L0.2 14.5L0.25 15M8.55,3.9L8.5 3.8L8.55 3.8L8.55 3.9M-8.05,7.4L-8.1 7.45L-8.1 7.4L-8.05 7.4" />
<radialGradient
id="RadialGradID_551" gradientUnits="userSpaceOnUse" gradientTransform="matrix(0.0101929, 0.00109863, -0.00106812, 0.0104675, -10.85, 12.7)" spreadMethod ="pad" cx="0" cy="0" r="819.2" fx="0" fy="0" >
<stop  offset="0"  style="stop-color:#FBBD9D;stop-opacity:1" />
<stop  offset="1"  style="stop-color:#FEDEC1;stop-opacity:1" />
</radialGradient>
<path style="fill:url(#RadialGradID_551) " d="M-5.2,12.2L-5.1 12.35L-5.2 12.25L-5.25 12.15L-5.2 12.2" />
<radialGradient
id="RadialGradID_552" gradientUnits="userSpaceOnUse" gradientTransform="matrix(0.0111694, 0, 0, 0.00856018, 2.15, 17.5)" spreadMethod ="pad" cx="0" cy="0" r="819.2" fx="0" fy="0" >
<stop  offset="0"  style="stop-color:#FBBD9D;stop-opacity:1" />
<stop  offset="1"  style="stop-color:#FDDDC7;stop-opacity:1" />
</radialGradient>
<path style="fill:url(#RadialGradID_552) " d="M0.2,14.5L0.2 15L0.05 15L-0.8 15.05L-1.55 15L-1.95 14.95L-2.1 14.9L-2.3 14.8L-2.35 14.75L-2.35 14.8L-2.5 14.75L-2.55 14.65L-2.6 14.65L-2.65 14.55L-2.7 14.5L-2 13.85L2.35 13.85L4.7 13L4.35 13.85L4.05 14.15L3.9 14.3L3.75 14.3L3.45 14.4L3.05 14.5L3.05 14.45L2.8 14.6L1.65 15L0.9 15L0.25 15L0.2 14.5" />
<radialGradient
id="RadialGradID_553" gradientUnits="userSpaceOnUse" gradientTransform="matrix(0.0101929, 0.00109863, -0.00106812, 0.0104675, -10.75, 13.15)" spreadMethod ="pad" cx="0" cy="0" r="819.2" fx="0" fy="0" >
<stop  offset="0"  style="stop-color:#FBBD9D;stop-opacity:1" />
<stop  offset="1"  style="stop-color:#FEDEC1;stop-opacity:1" />
</radialGradient>
<path style="fill:url(#RadialGradID_553) " d="M-2.5,14.75L-2.35 14.8L-2.45 14.8L-2.5 14.75M-3.1,14.4L-3.15 14.4L-3.1 14.4M-2.35,14.8L-2.35 14.75L-2.35 14.8" />
<radialGradient
id="RadialGradID_554" gradientUnits="userSpaceOnUse" gradientTransform="matrix(0.00727844, 0, 0, 0.00747681, -8.6, 12.05)" spreadMethod ="pad" cx="0" cy="0" r="819.2" fx="0" fy="0" >
<stop  offset="0"  style="stop-color:#FBBD9D;stop-opacity:1" />
<stop  offset="1"  style="stop-color:#FEDEC1;stop-opacity:1" />
</radialGradient>
<path style="fill:url(#RadialGradID_554) " d="M-2.65,14.55L-2.6 14.65L-2.55 14.65L-2.5 14.75L-2.45 14.8L-2.65 14.65L-2.75 14.6L-2.65 14.55" />
<radialGradient
id="RadialGradID_555" gradientUnits="userSpaceOnUse" gradientTransform="matrix(0.0133057, 0.000366211, -0.000350952, 0.0136566, 0.25, -11.2)" spreadMethod ="pad" cx="0" cy="0" r="819.2" fx="0" fy="0" >
<stop  offset="0"  style="stop-color:#FBBD9D;stop-opacity:1" />
<stop  offset="1"  style="stop-color:#FEDEC1;stop-opacity:1" />
</radialGradient>
<path style="fill:url(#RadialGradID_555) " d="M4.05,14.15L4 14.25L3.9 14.3L4.05 14.15M-3.65,14.15L-3.65 14.05L-3.5 14.15L-3.25 14.35L-3.5 14.3L-3.65 14.15" />
<radialGradient
id="RadialGradID_556" gradientUnits="userSpaceOnUse" gradientTransform="matrix(0.00975037, 0.0010376, -0.00100708, 0.0100098, 10.3, 11.4)" spreadMethod ="pad" cx="0" cy="0" r="819.2" fx="0" fy="0" >
<stop  offset="0"  style="stop-color:#FBBD9D;stop-opacity:1" />
<stop  offset="1"  style="stop-color:#FEDEC1;stop-opacity:1" />
</radialGradient>
<path style="fill:url(#RadialGradID_556) " d="M4.1,14.25L4 14.25L4.05 14.15L4.1 14.25M10,0.95L9.9 0.9L10 0.9L10 0.95" />
<radialGradient
id="RadialGradID_557" gradientUnits="userSpaceOnUse" gradientTransform="matrix(0.0136566, 0.00144958, -0.00157166, 0.0155334, 11.25, 10.75)" spreadMethod ="pad" cx="0" cy="0" r="819.2" fx="0" fy="0" >
<stop  offset="0"  style="stop-color:#FBBD9D;stop-opacity:1" />
<stop  offset="1"  style="stop-color:#FDDDC7;stop-opacity:1" />
</radialGradient>
<path style="fill:url(#RadialGradID_557) " d="M4.05,14.15L4.35 13.85L4.7 13L2.35 13.85L2.1 13.6L1.9 13.45L1.65 13.15L1.4 12.8L0.95 12.15L0.55 11.2Q0.1 9.9 0.3 8.4Q0.3 7.9 0.45 7.45Q0.85 5.6 2.25 4.35Q4 2.75 6.3 3L7.05 3.15L7.5 3.3L7.95 3.5L8.2 3.65L8.5 3.8L8.55 3.9L8.55 3.8L9.6 4.25L9.55 4.95L9.55 5.4L9.3 8.15L9 10.25L8.5 11.45L7.95 12.25L7.8 12.4L6.65 13.2Q5.7 13.8 4.1 14.25L4.05 14.15" />
<radialGradient
id="RadialGradID_558" gradientUnits="userSpaceOnUse" gradientTransform="matrix(0.00975037, 0.0010376, -0.00100708, 0.0100098, 10.4, 11.85)" spreadMethod ="pad" cx="0" cy="0" r="819.2" fx="0" fy="0" >
<stop  offset="0"  style="stop-color:#FBBD9D;stop-opacity:1" />
<stop  offset="1"  style="stop-color:#FEDEC1;stop-opacity:1" />
</radialGradient>
<path style="fill:url(#RadialGradID_558) " d="M3.9,14.3L3.8 14.4L3.75 14.3L3.9 14.3" />
<path style="fill:none;stroke-width:0.05;stroke-linecap:round;stroke-linejoin:round;stroke-miterlimit:3;stroke:#B76340;stroke-opacity:0.501961" d="M-2.5,14.75L-2.65 14.65L-2.75 14.6L-3 14.45L-3.05 14.4L-3.1 14.4L-3.15 14.4L-3.25 14.35L-3.5 14.3Q-5.4 13.9 -6.6 13.2L-6.85 13.05L-7.85 12.25L-8.5 11.45L-8.9 10.25L-9.2 8.15L-9.45 5.4L-9.45 5.35L-9.55 4.95L-10.4 -0.6L-10.45 -0.85L-10.45 -0.95L-10.7 -2.65Q-10.9 -4.35 -10.55 -6.5Q-10.2 -8.7 -8.95 -10.4L-6.75 -12.75L-5.7 -13.45L-4.1 -14.35L-2.35 -14.85L1.5 -15Q4.1 -14.6 6.4 -13.05L6.65 -12.85Q8.9 -11.15 10.1 -8.45L10.2 -8.1L10.45 -7.35L10.5 -7.15L10.7 -5.95Q11 -4.1 10.75 -2.25L10.7 -1.95L10.65 -1.5L10.45 -0.6L10.3 0.4L9.6 4.95L9.55 5.4L9.3 8.15L9 10.25L8.5 11.45L7.95 12.25L7.8 12.4L6.65 13.2Q5.7 13.8 4.1 14.25L4 14.25L3.9 14.3L3.75 14.3L3.45 14.4L3.05 14.5L3.05 14.45L2.8 14.6L1.65 15L0.9 15L0.25 15L0.2 15L0.05 15L-0.8 15.05L-1.55 15L-1.95 14.95L-2.1 14.9L-2.35 14.8M-2.5,14.75L-2.35 14.8" />
<radialGradient
id="RadialGradID_559" gradientUnits="userSpaceOnUse" gradientTransform="matrix(-0.00491333, -0.000259399, -0.000320435, 0.006073, -8.3, 0.5)" spreadMethod ="pad" cx="0" cy="0" r="819.2" fx="0" fy="0" >
<stop  offset="0"  style="stop-color:#FB8F62;stop-opacity:1" />
<stop  offset="0.698039"  style="stop-color:#FEC7A3;stop-opacity:1" />
<stop  offset="1"  style="stop-color:#FEDEC1;stop-opacity:1" />
</radialGradient>
<path style="fill:url(#RadialGradID_559) " d="M-11.55,-1.8L-11.8 -1.45L-11.9 -0.6L-11.8 0.35L-11.8 0.5Q-11.7 1.4 -11.2 2.3L-11.35 -0.05L-11.2 -0.85L-10.65 1.25L-10.8 2.45L-10.25 2.8L-9.9 3.35Q-9.75 3.25 -9.75 2.75L-9.9 2.05L-10.05 1.4L-9.95 0.85Q-9.9 0.45 -10.35 -0.5L-11.55 -1.8M-9.2,5.15L-9.5 5.15L-9.75 5.1L-10.15 4.85L-11.45 2.25L-12.4 -0.2L-12 -2.2Q-11.75 -2.55 -11.25 -2.55L-10.55 -2.3L-9.9 -1.8L-9.2 5.15" />
<radialGradient
id="RadialGradID_560" gradientUnits="userSpaceOnUse" gradientTransform="matrix(-0.00331116, 0.000717163, 0.00109863, 0.00518799, -9.55, 0.55)" spreadMethod ="pad" cx="0" cy="0" r="819.2" fx="0" fy="0" >
<stop  offset="0"  style="stop-color:#EA8440;stop-opacity:1" />
<stop  offset="1"  style="stop-color:#FCC7A5;stop-opacity:1" />
</radialGradient>
<path style="fill:url(#RadialGradID_560) " d="M-10.35,-0.5Q-9.9 0.45 -9.95 0.85L-10.05 1.4L-9.9 2.05L-9.75 2.75Q-9.75 3.25 -9.9 3.35L-10.25 2.8L-10.8 2.45L-10.65 1.25L-11.2 -0.85L-11.35 -0.05L-11.2 2.3Q-11.7 1.4 -11.8 0.5L-11.8 0.35L-11.9 -0.6L-11.8 -1.45L-11.55 -1.8L-10.35 -0.5" />
<path style="fill:none;stroke-width:0.05;stroke-linecap:round;stroke-linejoin:round;stroke-miterlimit:3;stroke:#B76340;stroke-opacity:0.501961" d="M-9.9,-1.8L-10.55 -2.3L-11.25 -2.55Q-11.75 -2.55 -12 -2.2L-12.4 -0.2L-11.45 2.25L-10.15 4.85L-9.75 5.1L-9.5 5.15L-9.2 5.15" />
<radialGradient
id="RadialGradID_561" gradientUnits="userSpaceOnUse" gradientTransform="matrix(0.00334167, 0.000717163, -0.00111389, 0.00517273, 9.55, 0.65)" spreadMethod ="pad" cx="0" cy="0" r="819.2" fx="0" fy="0" >
<stop  offset="0"  style="stop-color:#EA8440;stop-opacity:1" />
<stop  offset="1"  style="stop-color:#FCC7A5;stop-opacity:1" />
</radialGradient>
<path style="fill:url(#RadialGradID_561) " d="M11.15,-0.85L10.7 1.3Q10.95 2.45 10.8 2.55L10.25 2.85L9.9 3.45L9.75 2.8L9.85 2.1L10.05 1.45L9.9 0.9L10.4 -0.45Q10.85 -1.3 11.55 -1.75L11.8 -1.4L11.9 -0.55L11.8 0.35L11.75 0.5L11.2 2.35L11.35 0.05L11.15 -0.85" />
<radialGradient
id="RadialGradID_562" gradientUnits="userSpaceOnUse" gradientTransform="matrix(0.00491333, -0.000259399, 0.000320435, 0.006073, 8.25, 0.5)" spreadMethod ="pad" cx="0" cy="0" r="819.2" fx="0" fy="0" >
<stop  offset="0"  style="stop-color:#FB8F62;stop-opacity:1" />
<stop  offset="0.698039"  style="stop-color:#FEC7A3;stop-opacity:1" />
<stop  offset="1"  style="stop-color:#FEDEC1;stop-opacity:1" />
</radialGradient>
<path style="fill:url(#RadialGradID_562) " d="M11.35,0.05L11.2 2.35L11.75 0.5L11.8 0.35L11.9 -0.55L11.8 -1.4L11.55 -1.75Q10.85 -1.3 10.4 -0.45L9.9 0.9L10.05 1.45L9.85 2.1L9.75 2.8L9.9 3.45L10.25 2.85L10.8 2.55Q10.95 2.45 10.7 1.3L11.15 -0.85L11.35 0.05M9.9,-1.75L10.55 -2.2L11.25 -2.5Q11.75 -2.55 11.9 -2.15L12.4 -0.1L11.45 2.3L10.15 4.9L9.8 5.2L9.5 5.2L9.2 5.2L9.9 -1.75" />
<path style="fill:none;stroke-width:0.05;stroke-linecap:round;stroke-linejoin:round;stroke-miterlimit:3;stroke:#B76340;stroke-opacity:0.501961" d="M9.9,-1.75L10.55 -2.2L11.25 -2.5Q11.75 -2.55 11.9 -2.15L12.4 -0.1L11.45 2.3L10.15 4.9L9.8 5.2L9.5 5.2L9.2 5.2" />
<radialGradient
id="RadialGradID_563" gradientUnits="userSpaceOnUse" gradientTransform="matrix(0.00143433, 0.00106812, -0.00335693, 0.00474548, 7.25, 11.35)" spreadMethod ="pad" cx="0" cy="0" r="819.2" fx="0" fy="0" >
<stop  offset="0.313725"  style="stop-color:#FFFFFF;stop-opacity:0.25098" />
<stop  offset="1"  style="stop-color:#FFFFFF;stop-opacity:0" />
</radialGradient>
<path style="fill:url(#RadialGradID_563) " d="M6.8,12.55Q8.75 11.2 8.9 8.1Q9.15 10.3 8.05 12Q6.8 13.9 3.55 14.05Q4.8 13.9 6.8 12.55" />
<radialGradient
id="RadialGradID_564" gradientUnits="userSpaceOnUse" gradientTransform="matrix(0.00973511, 0, 0, 0.00881958, -6.8, -7.95)" spreadMethod ="pad" cx="0" cy="0" r="819.2" fx="0" fy="0" >
<stop  offset="0"  style="stop-color:#FFFFFF;stop-opacity:0.501961" />
<stop  offset="1"  style="stop-color:#FFFFFF;stop-opacity:0" />
</radialGradient>
<path style="fill:url(#RadialGradID_564) " d="M-3.4,-14.4L-3.35 -14.4L-3.35 -14.35L-3.4 -14.4M-9.7,-3.05L-9.3 -1.8L-9.3 -1.6L-9.35 -1.6L-9.75 -3.1L-9.7 -3.05" />
<radialGradient
id="RadialGradID_565" gradientUnits="userSpaceOnUse" gradientTransform="matrix(0.00939941, 0, 0, 0.0085144, 6.35, -8.35)" spreadMethod ="pad" cx="0" cy="0" r="819.2" fx="0" fy="0" >
<stop  offset="0"  style="stop-color:#FFFFFF;stop-opacity:0.392157" />
<stop  offset="1"  style="stop-color:#FFFFFF;stop-opacity:0" />
</radialGradient>
<path style="fill:url(#RadialGradID_565) " d="M8.5,-10.95Q10.4 -8.5 10.4 -6L9.9 -2.45L9.85 -2.45L10.1 -4.3Q10.1 -7.3 8.35 -10.05Q6.15 -13.5 2.35 -14.3L2.75 -14.3Q6.25 -13.8 8.5 -10.95" />
<radialGradient
id="RadialGradID_566" gradientUnits="userSpaceOnUse" gradientTransform="matrix(0.00973511, 0, 0, 0.00881958, -6.8, -7.95)" spreadMethod ="pad" cx="0" cy="0" r="819.2" fx="0" fy="0" >
<stop  offset="0"  style="stop-color:#FFFFFF;stop-opacity:0.392157" />
<stop  offset="1"  style="stop-color:#FFFFFF;stop-opacity:0" />
</radialGradient>
<path style="fill:url(#RadialGradID_566) " d="M-3.35,-14.35Q-6.25 -12.75 -8.1 -9.85Q-9.85 -7.15 -9.85 -4.6L-9.7 -3.05L-9.75 -3.1L-10.2 -6.25L-10.05 -7.55Q-10.05 -8.5 -7.9 -11.25Q-6.35 -13.4 -3.4 -14.4L-3.35 -14.35" />
<radialGradient
id="RadialGradID_567" gradientUnits="userSpaceOnUse" gradientTransform="matrix(0.00221252, 0.00109863, -0.000701904, 0.00512695, 5.9, 5.85)" spreadMethod ="pad" cx="0" cy="0" r="819.2" fx="0" fy="0" >
<stop  offset="0"  style="stop-color:#FFFFFF;stop-opacity:0.2" />
<stop  offset="1"  style="stop-color:#FFFFFF;stop-opacity:0" />
</radialGradient>
<path style="fill:url(#RadialGradID_567) " d="M7.2,4.2Q7.7 5 7.6 5.9Q7.5 6.85 6.85 7.9L5.5 9.1Q4.9 9.25 4.35 8.45Q3.85 7.6 3.95 6.65Q4.05 5.7 4.8 4.7Q5.45 3.6 6.1 3.45Q6.7 3.35 7.2 4.2" />
<radialGradient
id="RadialGradID_568" gradientUnits="userSpaceOnUse" gradientTransform="matrix(0.00198364, -0.000549316, 0.00062561, 0.0032196, -5.7, 6.1)" spreadMethod ="pad" cx="0" cy="0" r="819.2" fx="0" fy="0" >
<stop  offset="0"  style="stop-color:#FFFFFF;stop-opacity:0.2" />
<stop  offset="1"  style="stop-color:#FFFFFF;stop-opacity:0" />
</radialGradient>
<path style="fill:url(#RadialGradID_568) " d="M-4.8,3.9Q-4.2 4.55 -4.05 5.35Q-3.85 6.25 -4.2 7.3Q-4.55 8.25 -5.05 8.4Q-5.6 8.55 -6.3 7.85Q-6.95 7.15 -7.1 6.3Q-7.3 5.45 -6.9 4.5Q-6.55 3.45 -6.05 3.3Q-5.55 3.2 -4.8 3.9" />
<radialGradient
id="RadialGradID_569" gradientUnits="userSpaceOnUse" gradientTransform="matrix(0.00357056, 0, 0, 0.000991821, 0.05, 15.1)" spreadMethod ="pad" cx="0" cy="0" r="819.2" fx="0" fy="0" >
<stop  offset="0"  style="stop-color:#F15E1F;stop-opacity:0.580392" />
<stop  offset="1"  style="stop-color:#FFEFEA;stop-opacity:0" />
</radialGradient>
<path style="fill:url(#RadialGradID_569) " d="M0.9,14.2L0.95 14.2L2.95 14.3Q3.45 14.65 2.05 14.85L0.9 15.05L0.45 15.1L-0.05 15.1L-0.25 15.05L-0.35 15.05L-0.5 15.05L-2.7 14.55Q-4 14.1 0.9 14.2" />
</g>
</svg>
