<?xml version="1.0" encoding="utf-8"?>
<svg version="1.1" id="Layer_1"
xmlns="http://www.w3.org/2000/svg"
xmlns:xlink="http://www.w3.org/1999/xlink"
xmlns:author="http://www.sothink.com"
width="26px" height="33px"
xml:space="preserve">
<g id="107" transform="matrix(1, 0, 0, 1, -57.2, -14)">
<radialGradient
id="RadialGradID_669" gradientUnits="userSpaceOnUse" gradientTransform="matrix(0.0124207, 0, 0, 0.0124207, 73.1, 11.55)" spreadMethod ="pad" cx="0" cy="0" r="819.2" fx="41" fy="0" >
<stop  offset="0"  style="stop-color:#FEEADE;stop-opacity:1" />
<stop  offset="0.988235"  style="stop-color:#FEDEC2;stop-opacity:1" />
</radialGradient>
<path style="fill:url(#RadialGradID_669) " d="M78.05,17.65Q81.35 21.2 81.4 26.25Q81.35 28.3 80.8 30.2L80.1 31.85L80.1 31.7Q79.6 32.5 79.7 33.55Q79.2 34.75 78 35.1L69.4 35.85Q66.1 35.85 63 34.35L59.95 32.3L59.9 31.9Q58.95 29.95 58.7 27.75L58.65 26.25Q58.6 24.7 58.9 23.35Q59.25 21.65 60.1 20.2Q60.8 18.8 61.95 17.65Q65.25 14.05 70 14.1Q74.7 14.05 78.05 17.65" />
<path style="fill:#231D18;fill-opacity:1" d="M74.85,42.9Q74.8 42.4 75.25 41.8L74.95 42.55L74.85 42.9M73.45,43.85L73.4 44.1L73.3 44.1L73.45 43.85" />
<path style="fill:#FFFFFF;fill-opacity:1" d="M78.1,38.55L78.15 38.6L78 39L78.1 38.55" />
<radialGradient
id="RadialGradID_670" gradientUnits="userSpaceOnUse" gradientTransform="matrix(0.0136108, 0.000473022, -0.000473022, 0.0136108, 70.35, 18.95)" spreadMethod ="pad" cx="0" cy="0" r="819.2" fx="0" fy="0" >
<stop  offset="0"  style="stop-color:#FBBD9D;stop-opacity:1" />
<stop  offset="1"  style="stop-color:#FEDEC1;stop-opacity:1" />
</radialGradient>
<path style="fill:url(#RadialGradID_670) " d="M60.95,35.25L60.95 35.1L60.75 34.6L60.55 34L60.15 32.95L59.7 31.6L59.45 30.8Q59 29.35 59.05 27.8Q59.1 26.8 60.75 21Q70.25 16.2 79.85 21.2L80.1 21.95Q81.75 27.9 80.2 31.5L80.2 31.65L80.15 31.7L80.05 32.1L80 32.15L80.05 32.2L79.6 33.75L79.55 34L79.45 34.35L79.4 34.5L79.35 34.65L79.35 34.75L79.3 34.85L79.15 34.75L79 34.65L78.8 34.45L78.5 34.3L78.45 34.3L78.2 34.15L77.8 33.95L77.35 33.8L76.5 33.65Q74.2 33.4 72.4 34.95Q70.95 36.2 70.5 38.05Q70.35 38.5 70.35 39Q70.15 40.45 70.6 41.75L71.45 43.4L71.7 43.7L72.85 44.75L72.15 45.65L70.3 46.05Q68.8 46.1 67.8 45.45L67.35 45.15L67.4 45.1L67.8 44.55Q69.25 43.3 69.7 41.5L69.85 40.5Q70.05 39 69.6 37.75L68.75 36.15L68 35.25L67.55 34.9L67.05 34.6L67.05 34.55L66.8 34.45L66.3 34.25L65.9 34.1L65.05 33.95Q62.75 33.65 60.95 35.25M61.85,37.9L61.8 37.9L61.85 37.9M79.75,28.05L77.85 25.7L77.55 21.6L77.05 26.3L79.75 28.05M62.35,23.1Q62.25 26.05 60.65 28.85L63.05 26.35L62.35 23.1" />
<radialGradient
id="RadialGradID_671" gradientUnits="userSpaceOnUse" gradientTransform="matrix(0.00535583, 0.000610352, -0.000610352, 0.00535583, 74.2, 25.55)" spreadMethod ="pad" cx="0" cy="0" r="819.2" fx="0" fy="0" >
<stop  offset="0"  style="stop-color:#FBBD9D;stop-opacity:1" />
<stop  offset="1"  style="stop-color:#FEDEC1;stop-opacity:1" />
</radialGradient>
<path style="fill:url(#RadialGradID_671) " d="M77.05,26.3L77.55 21.6L77.85 25.7L79.75 28.05L77.05 26.3" />
<radialGradient
id="RadialGradID_672" gradientUnits="userSpaceOnUse" gradientTransform="matrix(0.00996399, 0.00112915, -0.00112915, 0.00996399, 80.55, 42.05)" spreadMethod ="pad" cx="0" cy="0" r="819.2" fx="0" fy="0" >
<stop  offset="0"  style="stop-color:#FBBD9D;stop-opacity:1" />
<stop  offset="1"  style="stop-color:#FEDEC1;stop-opacity:1" />
</radialGradient>
<path style="fill:url(#RadialGradID_672) " d="M78,39L76.95 41.5L73.4 44.9L72.15 45.65L72.85 44.75L71.7 43.7L71.45 43.4L70.6 41.75Q70.15 40.45 70.35 39Q70.35 38.5 70.5 38.05Q70.95 36.2 72.4 34.95Q74.2 33.4 76.5 33.65L77.35 33.8L77.8 33.95L78.2 34.15L78.45 34.3L78.5 34.3L78.8 34.45L79 34.65L79.15 34.75L79.3 34.85L79 35.75L79 35.8L78.9 35.95L78.9 36L78.85 36.05L78.85 36.15L78.75 36.6L78.7 36.6L78.7 36.55L78.4 37.4L78.4 37.5L78.2 38.35L78.2 38.4L78.15 38.45L78.15 38.5L78.15 38.55L78.15 38.6L78.1 38.55L78 39" />
<radialGradient
id="RadialGradID_673" gradientUnits="userSpaceOnUse" gradientTransform="matrix(0.0040741, 0.000457764, -0.000457764, 0.0040741, 64.55, 26.5)" spreadMethod ="pad" cx="0" cy="0" r="819.2" fx="0" fy="0" >
<stop  offset="0"  style="stop-color:#FBBD9D;stop-opacity:1" />
<stop  offset="1"  style="stop-color:#FEDEC1;stop-opacity:1" />
</radialGradient>
<path style="fill:url(#RadialGradID_673) " d="M63.05,26.35L60.65 28.85Q62.25 26.05 62.35 23.1L63.05 26.35" />
<radialGradient
id="RadialGradID_674" gradientUnits="userSpaceOnUse" gradientTransform="matrix(0.0104218, 0.00117493, -0.00117493, 0.0104218, 58.9, 43.15)" spreadMethod ="pad" cx="0" cy="0" r="819.2" fx="0" fy="0" >
<stop  offset="0"  style="stop-color:#FBBD9D;stop-opacity:1" />
<stop  offset="1"  style="stop-color:#FEDEC1;stop-opacity:1" />
</radialGradient>
<path style="fill:url(#RadialGradID_674) " d="M61.85,37.75L61.75 37.45L61.45 36.65L61.2 36.05L61.15 35.95L60.95 35.25Q62.75 33.65 65.05 33.95L65.9 34.1L66.3 34.25L66.8 34.45L67.05 34.55L67.05 34.6L67.55 34.9L68 35.25L68.75 36.15L69.6 37.75Q70.05 39 69.85 40.5L69.7 41.5Q69.25 43.3 67.8 44.55L67.4 45.1Q64 42.4 62.7 40.4L61.9 37.9L61.85 37.75" />
<radialGradient
id="RadialGradID_675" gradientUnits="userSpaceOnUse" gradientTransform="matrix(0.00500488, 0.000427246, -0.000427246, 0.00500488, 62.45, 34)" spreadMethod ="pad" cx="0" cy="0" r="819.2" fx="0" fy="0" >
<stop  offset="0"  style="stop-color:#FCA783;stop-opacity:1" />
<stop  offset="1"  style="stop-color:#FEDEC1;stop-opacity:1" />
</radialGradient>
<path style="fill:url(#RadialGradID_675) " d="M61.9,37.9L61.85 37.9L61.8 37.9L61.75 37.45L61.85 37.75L61.9 37.9" />
<path style="fill:none;stroke-width:0.05;stroke-linecap:round;stroke-linejoin:round;stroke-miterlimit:3;stroke:#B76340;stroke-opacity:0.501961" d="M78.15,38.55L78.15 38.6" />
<path style="fill:none;stroke-width:0.05;stroke-linecap:round;stroke-linejoin:round;stroke-miterlimit:3;stroke:#B76340;stroke-opacity:0.501961" d="M59.7,31.6L59.45 30.8Q59 29.35 59.05 27.8Q59.1 26.8 60.75 21Q70.25 16.2 79.85 21.2L80.1 21.95Q81.75 27.9 80.2 31.5L80.2 31.65L80.15 31.7L80.05 32.1L80 32.15M78.15,38.6L78 39L76.95 41.5L73.4 44.9L72.15 45.65L70.3 46.05Q68.8 46.1 67.8 45.45L67.4 45.1Q64 42.4 62.7 40.4L61.9 37.9M61.85,37.9L61.8 37.9L61.85 37.9M78.4,37.5L78.15 38.35L78.15 38.4L78.1 38.5L78.1 38.55L78 39" />
<radialGradient
id="RadialGradID_676" gradientUnits="userSpaceOnUse" gradientTransform="matrix(0.00502014, 0.000457764, -0.000244141, 0.00276184, 69.7, 44.65)" spreadMethod ="pad" cx="0" cy="0" r="819.2" fx="6" fy="0" >
<stop  offset="0"  style="stop-color:#FBBD9D;stop-opacity:1" />
<stop  offset="1"  style="stop-color:#F9E2C1;stop-opacity:1" />
</radialGradient>
<path style="fill:url(#RadialGradID_676) " d="M68.45,45.5L68.15 45.15L70.5 45.5L72.5 45.05Q71.45 45.95 70.05 45.9Q68.7 45.8 68.45 45.5" />
<radialGradient
id="RadialGradID_677" gradientUnits="userSpaceOnUse" gradientTransform="matrix(0.00144958, 0.00108337, -0.00346375, 0.00469971, 77.05, 41.4)" spreadMethod ="pad" cx="0" cy="0" r="819.2" fx="0" fy="0" >
<stop  offset="0.313725"  style="stop-color:#FFFFFF;stop-opacity:0.431373" />
<stop  offset="1"  style="stop-color:#FFFFFF;stop-opacity:0" />
</radialGradient>
<path style="fill:url(#RadialGradID_677) " d="M77.25,39.65L78.15 37.6L76.85 41.4L73.45 44.6L76.5 41.1L77.25 39.65" />
<radialGradient
id="RadialGradID_678" gradientUnits="userSpaceOnUse" gradientTransform="matrix(0.0022583, 0.00111389, -0.000762939, 0.00509644, 76.15, 36.5)" spreadMethod ="pad" cx="0" cy="0" r="819.2" fx="0" fy="0" >
<stop  offset="0"  style="stop-color:#FFFFFF;stop-opacity:0.313725" />
<stop  offset="1"  style="stop-color:#FFFFFF;stop-opacity:0" />
</radialGradient>
<path style="fill:url(#RadialGradID_678) " d="M77.5,34.9Q78.05 35.65 77.95 36.55L77.1 38.55Q76.35 39.6 75.75 39.7Q75.05 39.85 74.55 39.05Q74.05 38.2 74.2 37.25Q74.25 36.35 75 35.3Q75.75 34.25 76.4 34.1Q77.05 34 77.5 34.9" />
<radialGradient
id="RadialGradID_679" gradientUnits="userSpaceOnUse" gradientTransform="matrix(0.00204468, -0.000534058, 0.000610352, 0.00320435, 64.35, 36.65)" spreadMethod ="pad" cx="0" cy="0" r="819.2" fx="0" fy="0" >
<stop  offset="0"  style="stop-color:#FFFFFF;stop-opacity:0.262745" />
<stop  offset="1"  style="stop-color:#FFFFFF;stop-opacity:0" />
</radialGradient>
<path style="fill:url(#RadialGradID_679) " d="M65.2,34.45Q65.85 35.1 66 35.9Q66.2 36.8 65.85 37.85Q65.4 38.8 64.95 38.95Q64.4 39.1 63.7 38.4Q63 37.65 62.85 36.85Q62.65 36 63.05 35.05Q63.45 34 63.95 33.85Q64.55 33.75 65.2 34.45" />
<radialGradient
id="RadialGradID_680" gradientUnits="userSpaceOnUse" gradientTransform="matrix(-0.00465393, 0.000991821, 0.000854492, 0.00274658, 75.6, 31.75)" spreadMethod ="pad" cx="0" cy="0" r="819.2" fx="0" fy="0" >
<stop  offset="0.447059"  style="stop-color:#B15F56;stop-opacity:0.792157" />
<stop  offset="1"  style="stop-color:#FEDEC1;stop-opacity:0" />
</radialGradient>
<path style="fill:url(#RadialGradID_680) " d="M74.85,29.8L77.7 29.75Q79.05 30.05 79.35 31Q79.6 31.9 78.65 32.8Q77.8 33.6 76.25 33.95L73.4 33.9Q72.1 33.4 71.85 32.55Q71.6 31.6 72.45 30.9Q73.3 30.15 74.85 29.8" />
<path style="fill:#FFFFFF;fill-opacity:1" d="M75.65,32.75L76.05 32.55L76.45 31.95L76.55 31.3L76.6 31.3L76.75 31.35L77.1 31.85L77 32.05L76.55 32.55Q76.35 32.6 76.3 32.7L76.25 32.7L75.65 32.75M74.75,32.8L74.25 32.8L73.95 32.9Q73.2 32.55 73.45 31.9L73.9 31.55L73.85 31.7L73.9 31.9L74.05 32.3L74.1 32.4L74.2 32.45L74.3 32.55L74.65 32.75L74.75 32.8M74.55,32.75L74.35 32.8L74.55 32.8L74.65 32.75L74.55 32.75" />
<path style="fill:#FBD0D0;fill-opacity:1" d="M73.45,31.9Q73.2 32.55 73.95 32.9L73.9 32.9Q73.85 32.85 73.8 32.95L73.7 32.95L73.55 32.9L72.7 32.55L73.15 32.05L73.45 31.9M77.3,32.05L76.65 32.6L76.25 32.7L76.3 32.7Q76.35 32.6 76.55 32.55L77 32.05L77.1 31.85L76.75 31.35L77.15 31.6L77.45 31.85L77.45 31.9L77.3 32.05" />
<path style="fill:#000000;fill-opacity:1" d="M75.75,31.8L75.2 32.05L74.6 31.85L74.45 31.75L74.35 31.4L74.4 31.35L74.55 31.35L75.85 31.3L75.8 31.2L75.95 31.2L75.95 31.3L75.9 31.5L75.85 31.6L75.75 31.8" />
<path style="fill:#6C5146;fill-opacity:1" d="M75.75,30.55L74.25 30.75L72.85 31.4Q73.75 30.7 74.7 30.45L75.9 30.35L76.1 30.4L77.45 30.85L78.1 31.25L77.65 31.2L77.05 31.05Q76.8 30.85 76.5 30.8L75.95 30.6L75.75 30.55" />
<radialGradient
id="RadialGradID_681" gradientUnits="userSpaceOnUse" gradientTransform="matrix(0.00801086, -0.000228882, 4.57764e-005, 0.0037384, 75.4, 30)" spreadMethod ="pad" cx="0" cy="0" r="819.2" fx="0" fy="0" >
<stop  offset="0.564706"  style="stop-color:#462020;stop-opacity:1" />
<stop  offset="1"  style="stop-color:#D6C2C2;stop-opacity:1" />
</radialGradient>
<path style="fill:url(#RadialGradID_681) " d="M73.15,32.05L72.65 32.35L72.65 32.4L72.65 32.35Q72.8 31.9 73.2 31.5L73.2 31.45Q73.7 31 74.25 30.75L75.75 30.55L75.95 30.6Q77.05 31 77.85 31.55L78.05 31.75L77.95 31.7L77.95 31.8L77.7 31.8L77.45 31.9L77.45 31.85L77.15 31.6L76.75 31.35L76.6 31.3L76.55 31.3L76.2 31.25L75.95 31.2L75.8 31.2L75.2 31.15L74.6 31.25Q74.25 31.35 73.95 31.55L73.9 31.55L73.45 31.9L73.15 32.05" />
<radialGradient
id="RadialGradID_682" gradientUnits="userSpaceOnUse" gradientTransform="matrix(0.00294495, -0.00012207, 0.000396729, 0.00328064, 75.05, 34)" spreadMethod ="pad" cx="0" cy="0" r="819.2" fx="0" fy="0" >
<stop  offset="0.698039"  style="stop-color:#F3C4A5;stop-opacity:0.733333" />
<stop  offset="1"  style="stop-color:#E2AD7A;stop-opacity:0.921569" />
<stop  offset="1"  style="stop-color:#FEDEC1;stop-opacity:1" />
</radialGradient>
<path style="fill:url(#RadialGradID_682) " d="M74.05,33L73.85 32.95L73.7 33L73.7 32.95L73.8 32.95Q73.85 32.85 73.9 32.9L73.95 32.9L74.3 32.95L75.45 32.95L76.65 32.8L77.3 32.4L77.7 31.8L77.95 31.8L77.4 32.45L76.85 33.05L75.15 33.2L74.05 33" />
<radialGradient
id="RadialGradID_683" gradientUnits="userSpaceOnUse" gradientTransform="matrix(0.00717163, -0.000289917, 0.000396729, 0.00328064, 78.3, 30.55)" spreadMethod ="pad" cx="0" cy="0" r="819.2" fx="210527" fy="0" >
<stop  offset="0.564706"  style="stop-color:#462020;stop-opacity:1" />
<stop  offset="1"  style="stop-color:#D6C2C2;stop-opacity:1" />
</radialGradient>
<path style="fill:url(#RadialGradID_683) " d="M75.35,32.8L75.65 32.75L76.25 32.7L76.65 32.6L77.3 32.05L77.45 31.9L77.7 31.8L77.3 32.4L76.65 32.8L75.45 32.95L74.3 32.95L73.95 32.9L74.25 32.8L74.75 32.8L75.35 32.8" />
<radialGradient
id="RadialGradID_684" gradientUnits="userSpaceOnUse" gradientTransform="matrix(0.0012207, 9.15527e-005, -0.00012207, 0.00138855, 75.15, 31.6)" spreadMethod ="pad" cx="0" cy="0" r="819.2" fx="25" fy="0" >
<stop  offset="0"  style="stop-color:#7D4646;stop-opacity:1" />
<stop  offset="0.380392"  style="stop-color:#917777;stop-opacity:1" />
<stop  offset="0.898039"  style="stop-color:#C0A5A5;stop-opacity:1" />
<stop  offset="0.992157"  style="stop-color:#673D32;stop-opacity:1" />
</radialGradient>
<path style="fill:url(#RadialGradID_684) " d="M74.75,32.8L74.65 32.75L74.3 32.55L74.2 32.45L74.1 32.4L74.05 32.3L73.9 31.9L73.85 31.7L73.9 31.55L73.95 31.55Q74.25 31.35 74.6 31.25L74.55 31.35L74.4 31.35L74.35 31.4L74.45 31.75L74.5 31.85L74.7 32.1L74.75 32.2L75.25 32.3L75.65 32.05L75.8 31.9L75.85 31.6L75.9 31.5L75.95 31.3L75.95 31.2L75.8 31.2L75.95 31.2L76.2 31.25L76.55 31.3L76.45 31.95L76.05 32.55L75.65 32.75L75.35 32.8L74.75 32.8" />
<radialGradient
id="RadialGradID_685" gradientUnits="userSpaceOnUse" gradientTransform="matrix(0.00506592, -1.52588e-005, 1.52588e-005, 0.00506592, 72.9, 32.95)" spreadMethod ="pad" cx="0" cy="0" r="819.2" fx="0" fy="0" >
<stop  offset="0"  style="stop-color:#F8C898;stop-opacity:1" />
<stop  offset="0.0352941"  style="stop-color:#FDC7A7;stop-opacity:1" />
<stop  offset="1"  style="stop-color:#FDDDC0;stop-opacity:1" />
</radialGradient>
<path style="fill:url(#RadialGradID_685) " d="M72.8,32.9L73 32.9L72.7 32.8L72.85 32.8L73.55 32.9L73.7 32.95L73.7 33L73.85 32.95L74.05 33L75.15 33.2L75.5 33.3L76.85 33.2L75.7 34Q74 34.2 72.75 32.9L72.65 32.85L72.65 32.8L72.8 32.9" />
<radialGradient
id="RadialGradID_686" gradientUnits="userSpaceOnUse" gradientTransform="matrix(0.00386047, 0.000305176, -0.000350952, 0.00402832, 75.8, 29.95)" spreadMethod ="pad" cx="0" cy="0" r="819.2" fx="0" fy="0" >
<stop  offset="0.564706"  style="stop-color:#462020;stop-opacity:1" />
<stop  offset="1"  style="stop-color:#B39191;stop-opacity:1" />
</radialGradient>
<path style="fill:url(#RadialGradID_686) " d="M72.65,32.8L72.7 32.8L73 32.9L72.8 32.9L72.65 32.8M74.65,32.75L74.55 32.8L74.35 32.8L74.55 32.75L74.65 32.75" />
<radialGradient
id="RadialGradID_687" gradientUnits="userSpaceOnUse" gradientTransform="matrix(0.00184631, -1.52588e-005, -1.52588e-005, 0.00189209, 70.1, 39.25)" spreadMethod ="pad" cx="0" cy="0" r="819.2" fx="0" fy="0" >
<stop  offset="0"  style="stop-color:#F39B61;stop-opacity:1" />
<stop  offset="1"  style="stop-color:#F9C29F;stop-opacity:1" />
</radialGradient>
<path style="fill:url(#RadialGradID_687) " d="M72.75,32.9L72.7 32.9L72.75 32.9" />
<radialGradient
id="RadialGradID_688" gradientUnits="userSpaceOnUse" gradientTransform="matrix(0.00291443, 0.000213623, -0.000167847, 0.00195313, 75.3, 31.5)" spreadMethod ="pad" cx="0" cy="0" r="819.2" fx="0" fy="0" >
<stop  offset="0"  style="stop-color:#000000;stop-opacity:1" />
<stop  offset="0.992157"  style="stop-color:#673D32;stop-opacity:0" />
</radialGradient>
<path style="fill:url(#RadialGradID_688) " d="M75.85,31.1L76.45 31.35L76.6 31.4L76.65 31.45L76.55 32.05L76.15 32.55L75.75 32.75L75.4 32.8L75.15 32.8L74.95 32.75L74.4 32.55L74.3 32.5L74.25 32.45L74.2 32.4L74.05 31.95L74.05 31.8L74.05 31.7L74 31.7L74 31.6L74.05 31.55L74.05 31.6L74.35 31.45L74.35 31.4L74.5 31.3Q75.3 30.85 75.85 31.1" />
<radialGradient
id="RadialGradID_689" gradientUnits="userSpaceOnUse" gradientTransform="matrix(-0.000579834, -0.000396729, -0.000228882, 0.000289917, 74.85, 32.3)" spreadMethod ="pad" cx="0" cy="0" r="819.2" fx="0" fy="0" >
<stop  offset="0.490196"  style="stop-color:#FFFFFF;stop-opacity:0.682353" />
<stop  offset="0.772549"  style="stop-color:#FFFFFF;stop-opacity:0.192157" />
<stop  offset="1"  style="stop-color:#FFFFFF;stop-opacity:0" />
</radialGradient>
<path style="fill:url(#RadialGradID_689) " d="M74.7,32.5L75 32.6L75.2 32.5L75.2 32.35L75 32.1L74.75 32.05L74.45 32.05L74.5 32.25L74.7 32.5" />
<radialGradient
id="RadialGradID_690" gradientUnits="userSpaceOnUse" gradientTransform="matrix(0.000762939, -6.10352e-005, 0.000213623, 0.00050354, 75.75, 31.7)" spreadMethod ="pad" cx="0" cy="0" r="819.2" fx="0" fy="0" >
<stop  offset="0.490196"  style="stop-color:#FFFFFF;stop-opacity:1" />
<stop  offset="0.772549"  style="stop-color:#FFFFFF;stop-opacity:0.192157" />
<stop  offset="1"  style="stop-color:#FFFFFF;stop-opacity:0" />
</radialGradient>
<path style="fill:url(#RadialGradID_690) " d="M76.05,32.05L75.75 32L75.5 31.8L75.5 31.6L75.85 31.45L76.2 31.55L76.4 31.75L76.35 32L76.05 32.05" />
<radialGradient
id="RadialGradID_691" gradientUnits="userSpaceOnUse" gradientTransform="matrix(0.00442505, 0.00172424, -0.00128174, 0.00256348, 64.55, 31.9)" spreadMethod ="pad" cx="0" cy="0" r="819.2" fx="0" fy="0" >
<stop  offset="0.447059"  style="stop-color:#B15F56;stop-opacity:0.792157" />
<stop  offset="1"  style="stop-color:#FEDEC1;stop-opacity:0" />
</radialGradient>
<path style="fill:url(#RadialGradID_691) " d="M65.65,30.15Q64.15 29.55 62.8 29.6Q61.45 29.7 61 30.5Q60.6 31.4 61.35 32.4Q62.05 33.4 63.55 34L66.4 34.35Q67.7 34.15 68.15 33.3Q68.6 32.4 67.8 31.55Q67.1 30.7 65.65 30.15" />
<path style="fill:#FFFFFF;fill-opacity:1" d="M65.85,32.9L66 32.9L66.05 32.9L65.95 32.9L65.8 32.9L65.7 32.9L65.55 32.9L65.4 32.9L65.55 32.9L65.6 32.9L65.95 32.75L66.1 32.6L66.2 32.5L66.3 32.5L66.3 32.45L66.35 32.4L66.4 32.3L66.55 31.95L66.55 31.8L66.55 31.7L66.55 31.6L66.65 31.65L66.75 31.7L66.9 31.8L66.9 31.85Q67.15 32.25 66.9 32.6L66.7 32.75L66.35 32.95L66.3 32.95L65.85 32.9M64.2,32.85L64.1 32.8L63.8 32.65L63.45 32.25L63.4 32.1L63.3 31.95L63.6 31.55L63.95 31.45L63.95 31.5L63.9 31.5L64 32.1L64.35 32.65L64.6 32.8L64.75 32.85L64.9 32.9L64.2 32.85M65.35,32.9L65.4 32.9L65.75 32.9L65.35 32.9" />
<path style="fill:#FBD0D0;fill-opacity:1" d="M66.7,32.75L66.9 32.6Q67.15 32.25 66.9 31.85L67.1 32L67.55 32.4L67.7 32.6L66.65 32.95L66.35 32.95L66.7 32.75M66.3,32.95L66.35 32.95L66.3 32.95M63.9,32.8L63.7 32.75L63.6 32.7L62.9 31.95Q63.05 31.8 63.25 31.75L63.6 31.55L63.3 31.95L63.4 32.1L63.45 32.25L63.8 32.65L64.1 32.8L64.2 32.85L63.9 32.8" />
<path style="fill:#6C5146;fill-opacity:1" d="M64,30.8L63.9 30.85L63.9 30.8L63.6 30.95L62.75 31.35L62.25 31.45L62.8 31.05L64.05 30.55L63.85 30.6L64.05 30.55L64.1 30.55L65.65 30.5Q66.55 30.7 67.5 31.4Q66.55 30.9 65.9 30.85L65.85 30.8L65.65 30.8L65.45 30.8Q64.75 30.6 64 30.8" />
<path style="fill:#000000;fill-opacity:1" d="M66,31.45L66.1 31.75L65.85 32.05L65.3 32.25Q64.95 32.25 64.75 32L64.5 31.55L64.55 31.45L64.6 31.4L66 31.45" />
<radialGradient
id="RadialGradID_692" gradientUnits="userSpaceOnUse" gradientTransform="matrix(0.00502014, 0.000671387, -0.000305176, 0.00257874, 65.25, 31.15)" spreadMethod ="pad" cx="0" cy="0" r="819.2" fx="0" fy="0" >
<stop  offset="0.564706"  style="stop-color:#462020;stop-opacity:1" />
<stop  offset="1"  style="stop-color:#D6C2C2;stop-opacity:1" />
</radialGradient>
<path style="fill:url(#RadialGradID_692) " d="M62.3,31.85L62.4 31.8Q63.2 31.1 63.9 30.85L64 30.8Q64.75 30.6 65.45 30.8Q66.5 31 67.15 31.6L68 32.8L67.55 32.4L67.1 32L66.9 31.8L66.75 31.7L66.65 31.65L66.55 31.6L66 31.45L64.6 31.4L64.45 31.4L63.95 31.6L63.95 31.5L63.95 31.45L63.6 31.55L63.25 31.75Q63.05 31.8 62.9 31.95L63.6 32.7L63.7 32.75L63.9 32.8L64.2 32.85L64.9 32.9L65 32.9L65.05 32.9L65.2 32.95L65.35 32.9L65.75 32.9L65.85 32.9L66.3 32.95L66.35 32.95L66.5 33L64.7 33.15L63.6 32.95L63.1 32.55L62.95 32.35L62.3 31.85" />
<radialGradient
id="RadialGradID_693" gradientUnits="userSpaceOnUse" gradientTransform="matrix(-0.0012207, 0.00012207, 0.00012207, 0.00128174, 65.25, 31.75)" spreadMethod ="pad" cx="0" cy="0" r="819.2" fx="25" fy="0" >
<stop  offset="0"  style="stop-color:#7D4646;stop-opacity:1" />
<stop  offset="0.380392"  style="stop-color:#917777;stop-opacity:1" />
<stop  offset="0.898039"  style="stop-color:#C0A5A5;stop-opacity:1" />
<stop  offset="0.992157"  style="stop-color:#673D32;stop-opacity:1" />
</radialGradient>
<path style="fill:url(#RadialGradID_693) " d="M66.55,31.6L66.55 31.7L66.55 31.8L66.55 31.95L66.4 32.3L66.35 32.4L66.3 32.45L66.3 32.5L66.2 32.5L66.1 32.6L65.95 32.75L65.6 32.9L65.55 32.9L65.4 32.9L65.35 32.9L65.2 32.95L65.05 32.9L65 32.9L64.9 32.9L64.75 32.85L64.6 32.8L64.35 32.65L64 32.1L63.9 31.5L63.95 31.5L63.95 31.6L64.45 31.4L64.6 31.4L64.55 31.45L64.5 31.55L64.75 32Q64.95 32.25 65.3 32.25L65.85 32.05L66.1 31.75L66 31.45L66.55 31.6" />
<radialGradient
id="RadialGradID_694" gradientUnits="userSpaceOnUse" gradientTransform="matrix(0.00300598, -7.62939e-005, 7.62939e-005, 0.00311279, 65.45, 33.65)" spreadMethod ="pad" cx="0" cy="0" r="819.2" fx="0" fy="0" >
<stop  offset="0.698039"  style="stop-color:#F3C4A5;stop-opacity:0.733333" />
<stop  offset="1"  style="stop-color:#E2AD7A;stop-opacity:0.921569" />
<stop  offset="1"  style="stop-color:#FEDEC1;stop-opacity:1" />
</radialGradient>
<path style="fill:url(#RadialGradID_694) " d="M62.95,32.35L63.1 32.55L63.6 32.95L64.7 33.15L66.5 33L66.6 33L66.65 33.05L66.6 33.05L66.5 33.1L66.35 33.05L65.9 33.2L64.4 33.45Q63.6 33.55 63.1 32.8L63 32.7L62.85 32.4L62.3 31.85L62.95 32.35" />
<radialGradient
id="RadialGradID_695" gradientUnits="userSpaceOnUse" gradientTransform="matrix(-0.00505066, 0.000106812, 0.00012207, 0.00524902, 67.45, 33.1)" spreadMethod ="pad" cx="0" cy="0" r="819.2" fx="0" fy="0" >
<stop  offset="0"  style="stop-color:#F8C898;stop-opacity:1" />
<stop  offset="0.0352941"  style="stop-color:#FDC7A7;stop-opacity:1" />
<stop  offset="1"  style="stop-color:#FDDDC0;stop-opacity:1" />
</radialGradient>
<path style="fill:url(#RadialGradID_695) " d="M66.65,33.05L66.7 33.05L67.45 33L67.5 33L67.55 33L67.45 33.05L67.55 33.05L67.6 33.05L67.55 33L67.65 33L67.65 33.05L67.6 33.1L67.25 33.45Q66.1 34.4 64.65 34.25L63.55 33.45L64.8 33.55L65.9 33.2L66.3 33.1L66.55 33.1L66.6 33.05L66.65 33.05M67.6,32.95L67.65 33L67.6 33L67.6 32.95" />
<radialGradient
id="RadialGradID_696" gradientUnits="userSpaceOnUse" gradientTransform="matrix(-0.00386047, 0.000411987, 0.000411987, 0.00408936, 64.85, 30.2)" spreadMethod ="pad" cx="0" cy="0" r="819.2" fx="0" fy="0" >
<stop  offset="0.564706"  style="stop-color:#462020;stop-opacity:1" />
<stop  offset="1"  style="stop-color:#B39191;stop-opacity:1" />
</radialGradient>
<path style="fill:url(#RadialGradID_696) " d="M65.75,32.9L65.4 32.9L65.55 32.9L65.7 32.9L65.8 32.9L65.95 32.9L66.05 32.9L66 32.9L65.85 32.9L65.75 32.9" />
<radialGradient
id="RadialGradID_697" gradientUnits="userSpaceOnUse" gradientTransform="matrix(-0.0018158, 3.05176e-005, 3.05176e-005, 0.00192261, 70.4, 39.35)" spreadMethod ="pad" cx="0" cy="0" r="819.2" fx="0" fy="0" >
<stop  offset="0"  style="stop-color:#F39B61;stop-opacity:1" />
<stop  offset="1"  style="stop-color:#F9C29F;stop-opacity:1" />
</radialGradient>
<path style="fill:url(#RadialGradID_697) " d="M67.65,33L67.7 33L67.65 33" />
<radialGradient
id="RadialGradID_698" gradientUnits="userSpaceOnUse" gradientTransform="matrix(-0.00289917, 0.000305176, 0.000183105, 0.00198364, 65.25, 31.55)" spreadMethod ="pad" cx="0" cy="0" r="819.2" fx="0" fy="0" >
<stop  offset="0"  style="stop-color:#000000;stop-opacity:1" />
<stop  offset="0.992157"  style="stop-color:#673D32;stop-opacity:0" />
</radialGradient>
<path style="fill:url(#RadialGradID_698) " d="M66.55,31.7L66.55 31.75L66.55 31.8L66.55 32L66.4 32.4L66.35 32.45L66.3 32.45L66.3 32.55L66.15 32.65L65.65 32.9L65.5 32.95L65.2 32.9L64.9 32.9L64.45 32.65L64.05 32.15Q63.85 31.85 63.9 31.55L63.95 31.45L64.1 31.45L64.65 31.3L64.6 31.4L66 31.45L66.05 31.45L66.3 31.5L66.55 31.6L66.55 31.7" />
<radialGradient
id="RadialGradID_699" gradientUnits="userSpaceOnUse" gradientTransform="matrix(-0.000579834, -0.000366211, -0.000213623, 0.000320435, 64.85, 32.6)" spreadMethod ="pad" cx="0" cy="0" r="819.2" fx="0" fy="0" >
<stop  offset="0.490196"  style="stop-color:#FFFFFF;stop-opacity:0.682353" />
<stop  offset="0.772549"  style="stop-color:#FFFFFF;stop-opacity:0.192157" />
<stop  offset="1"  style="stop-color:#FFFFFF;stop-opacity:0" />
</radialGradient>
<path style="fill:url(#RadialGradID_699) " d="M64.7,32.75L65 32.9L65.2 32.8L65.25 32.6L65 32.4L64.7 32.3L64.45 32.3L64.55 32.55L64.7 32.75" />
<radialGradient
id="RadialGradID_700" gradientUnits="userSpaceOnUse" gradientTransform="matrix(0.000747681, 0.000106812, 0.000152588, 0.000488281, 65.6, 31.8)" spreadMethod ="pad" cx="0" cy="0" r="819.2" fx="0" fy="0" >
<stop  offset="0.490196"  style="stop-color:#FFFFFF;stop-opacity:1" />
<stop  offset="0.772549"  style="stop-color:#FFFFFF;stop-opacity:0.192157" />
<stop  offset="1"  style="stop-color:#FFFFFF;stop-opacity:0" />
</radialGradient>
<path style="fill:url(#RadialGradID_700) " d="M65.8,32.2L65.45 32.05L65.3 31.8L65.35 31.6L65.7 31.6L66 31.75L66.2 31.95L66.15 32.15L65.8 32.2" />
<radialGradient
id="RadialGradID_701" gradientUnits="userSpaceOnUse" gradientTransform="matrix(0.00408936, 0.00178528, -0.00195313, 0.00413513, 71.4, 30.95)" spreadMethod ="pad" cx="0" cy="0" r="819.2" fx="0" fy="0" >
<stop  offset="0"  style="stop-color:#FFD5C4;stop-opacity:1" />
<stop  offset="0.988235"  style="stop-color:#473327;stop-opacity:1" />
</radialGradient>
<path style="fill:url(#RadialGradID_701) " d="M76.9,28.35L75.5 29.6Q75.1 29.7 74.7 29.95L73.3 30.5L72.15 30.4L71.95 30.35Q72.55 29.65 73.5 29.15L73.15 29.4L76.7 28L78.7 28.55L77.6 28.4L76.9 28.35M76.4,28.35L76.65 28.3L76.4 28.3L76.4 28.35" />
<radialGradient
id="RadialGradID_702" gradientUnits="userSpaceOnUse" gradientTransform="matrix(0.00750732, -0.00132751, 0.000518799, 0.00364685, 73.55, 29.35)" spreadMethod ="pad" cx="0" cy="0" r="819.2" fx="0" fy="0" >
<stop  offset="0.25098"  style="stop-color:#E6926F;stop-opacity:1" />
<stop  offset="0.988235"  style="stop-color:#FFEFEA;stop-opacity:0" />
</radialGradient>
<path style="fill:url(#RadialGradID_702) " d="M71.65,32.85Q71.45 31.85 72.15 30.4L73.3 30.5L74.7 29.95Q73.45 30.85 71.65 32.85" />
<radialGradient
id="RadialGradID_703" gradientUnits="userSpaceOnUse" gradientTransform="matrix(0.00402832, 0.00244141, -0.00192261, 0.00390625, 71.45, 30.3)" spreadMethod ="pad" cx="0" cy="0" r="819.2" fx="0" fy="0" >
<stop  offset="0"  style="stop-color:#FFD5C4;stop-opacity:1" />
<stop  offset="0.988235"  style="stop-color:#473327;stop-opacity:1" />
</radialGradient>
<path style="fill:url(#RadialGradID_703) " d="M76.4,29.25L76.6 29.25L75.5 29.6L76.9 28.35L77.6 28.4L77.65 28.45L77.7 28.45L78.75 29.15L79.35 29.55L78.65 29.3L78.6 29.3L78.4 29.25L77.25 29.15L76.4 29.25M76.4,28.3L76.65 28.3L76.4 28.35L76.4 28.3" />
<radialGradient
id="RadialGradID_704" gradientUnits="userSpaceOnUse" gradientTransform="matrix(0.00402832, 0.00244141, -0.00192261, 0.00390625, 71.25, 30.3)" spreadMethod ="pad" cx="0" cy="0" r="819.2" fx="0" fy="0" >
<stop  offset="0"  style="stop-color:#FFD5C4;stop-opacity:1" />
<stop  offset="0.988235"  style="stop-color:#473327;stop-opacity:1" />
</radialGradient>
<path style="fill:url(#RadialGradID_704) " d="M77.25,29.15L76.6 29.25L76.4 29.25L77.25 29.15" />
<radialGradient
id="RadialGradID_705" gradientUnits="userSpaceOnUse" gradientTransform="matrix(-0.00741577, -0.00137329, -0.00050354, 0.00366211, 67.2, 29.25)" spreadMethod ="pad" cx="0" cy="0" r="819.2" fx="0" fy="0" >
<stop  offset="0.25098"  style="stop-color:#E6926F;stop-opacity:1" />
<stop  offset="0.988235"  style="stop-color:#FFEFEA;stop-opacity:0" />
</radialGradient>
<path style="fill:url(#RadialGradID_705) " d="M68.25,30.25Q69.35 31.4 69.05 32.85Q66.9 30.65 65.25 29.75L65.7 29.95L67.15 30.45L67.6 30.45L68.05 30.4L68.25 30.25" />
<radialGradient
id="RadialGradID_706" gradientUnits="userSpaceOnUse" gradientTransform="matrix(-0.00402832, 0.00193787, 0.00213623, 0.00405884, 69, 30.85)" spreadMethod ="pad" cx="0" cy="0" r="819.2" fx="0" fy="0" >
<stop  offset="0"  style="stop-color:#FFD5C4;stop-opacity:1" />
<stop  offset="0.988235"  style="stop-color:#473327;stop-opacity:1" />
</radialGradient>
<path style="fill:url(#RadialGradID_706) " d="M68.05,30.4L67.6 30.45L67.15 30.45L65.7 29.95L65.25 29.75L64.95 29.7L64.75 29.5L64.7 29.5L63.4 28.45L62.8 28.6L61.65 28.7L63.6 28.15L67.2 29.3L66.9 29.15L67.25 29.3L68.45 30.2L68.25 30.25L68.05 30.4" />
<radialGradient
id="RadialGradID_707" gradientUnits="userSpaceOnUse" gradientTransform="matrix(-0.00390625, 0.00257874, 0.00209045, 0.00382996, 68.95, 30.25)" spreadMethod ="pad" cx="0" cy="0" r="819.2" fx="0" fy="0" >
<stop  offset="0"  style="stop-color:#FFD5C4;stop-opacity:1" />
<stop  offset="0.988235"  style="stop-color:#473327;stop-opacity:1" />
</radialGradient>
<path style="fill:url(#RadialGradID_707) " d="M63.4,28.45L64.7 29.5L64.75 29.5L64.95 29.7L63.8 29.35L64 29.35L63.1 29.3L62.05 29.45L61.75 29.5L61.05 29.75L61.6 29.4L62.7 28.55L62.75 28.6L62.8 28.6L63.4 28.45" />
<radialGradient
id="RadialGradID_708" gradientUnits="userSpaceOnUse" gradientTransform="matrix(0.00120544, 0.000183105, -0.000183105, 0.00120544, 70, 39.55)" spreadMethod ="pad" cx="0" cy="0" r="819.2" fx="0" fy="0" >
<stop  offset="0"  style="stop-color:#F15E1F;stop-opacity:0.423529" />
<stop  offset="1"  style="stop-color:#FFEFEA;stop-opacity:0" />
</radialGradient>
<path style="fill:url(#RadialGradID_708) " d="M70.25,39.7L69.85 39.45L69.8 39.1L70 38.65Q70.1 39.1 70.8 39Q70.6 39.8 70.25 39.7" />
<path style="fill:#D18E72;fill-opacity:1" d="M68.25,41.95L68.3 41.95L68.35 42L68.4 42L68.6 42.1L68.65 42.15L68.65 42.1L69.05 42.25L70.8 42.35L72.2 42.05L72.2 42.1L72.25 42.05L72.35 42L72.45 42L72.55 41.9L72.6 41.9L71.65 42.55L71 42.6L70.45 42.6L69.7 42.65L68.8 42.4L68.15 41.95L68.05 41.85L68.25 41.95" />
<path style="fill:#C16A46;fill-opacity:1" d="M66.85,40.7L66.8 40.7L66.85 40.7" />
<radialGradient
id="RadialGradID_709" gradientUnits="userSpaceOnUse" gradientTransform="matrix(0.00488281, 0.000198364, -6.10352e-005, 0.00192261, 70.45, 40.95)" spreadMethod ="pad" cx="0" cy="0" r="819.2" fx="6" fy="0" >
<stop  offset="0.568627"  style="stop-color:#ED9B79;stop-opacity:1" />
<stop  offset="1"  style="stop-color:#FFFFFF;stop-opacity:0.192157" />
</radialGradient>
<path style="fill:url(#RadialGradID_709) " d="M67.1,40.2L67.85 40.05L68.85 39.8L70.2 40.05Q71.1 39.65 71.55 39.8L73.25 40.15L73.7 40.15L74.05 40.05L74.05 40.2L74.35 40.1Q73.9 40.5 73.55 40.5L73.2 40.5L71.35 40.2L71.05 40.3L70.25 40.55L69.05 40.3L67.9 40.4L67 40.45L66.75 40.4L66.35 39.9Q66.8 40.15 67.1 40.2" />
<radialGradient
id="RadialGradID_710" gradientUnits="userSpaceOnUse" gradientTransform="matrix(0.00587463, 0.000991821, -0.000686646, 0.00401306, 69.95, 38.75)" spreadMethod ="pad" cx="0" cy="0" r="819.2" fx="6" fy="0" >
<stop  offset="0.568627"  style="stop-color:#ED9B79;stop-opacity:1" />
<stop  offset="1"  style="stop-color:#FFCFBB;stop-opacity:0" />
</radialGradient>
<path style="fill:url(#RadialGradID_710) " d="M66.8,40.7L66.65 40.7L66.75 40.7L66.8 40.65L66.85 40.65L66.9 40.7L67 40.7L66.95 40.8L67.05 40.7L67.1 40.7L67.15 40.75L67.15 40.7L69.25 40.45L69.8 40.75L71.15 40.5L73.6 40.7L73.55 40.85L72.45 42L72.35 42L72.25 42.05L72.25 42L72.2 42.05L70.8 42.35L69.05 42.25L68.65 42.1L68.65 42.15L68.6 42.1L68.4 42L68.35 42L68.3 41.95L68.25 41.95L68.05 41.85L66.85 40.7L66.8 40.7M66.95,40.7L66.9 40.65L67 40.65L67 40.7L66.95 40.7" />
<radialGradient
id="RadialGradID_711" gradientUnits="userSpaceOnUse" gradientTransform="matrix(0.00512695, 4.57764e-005, -4.57764e-005, 0.00468445, 70.35, 40.75)" spreadMethod ="pad" cx="0" cy="0" r="819.2" fx="210518" fy="0" >
<stop  offset="0.776471"  style="stop-color:#C16A46;stop-opacity:1" />
<stop  offset="1"  style="stop-color:#C16A46;stop-opacity:0.0235294" />
</radialGradient>
<path style="fill:url(#RadialGradID_711) " d="M73.7,40.75L73.75 40.75L73.65 40.75L73.55 40.85L73.6 40.7L71.15 40.5L69.8 40.75L69.25 40.45L67.15 40.7L67.1 40.7L67.05 40.7L66.95 40.8L67 40.7L66.9 40.7L66.85 40.65L66.8 40.65L66.35 40.45L66.2 40.1L66.35 39.9L66.75 40.4L67 40.45L67.9 40.4L69.05 40.3L70.25 40.55L71.05 40.3L71.35 40.2L73.2 40.5L73.55 40.5Q73.9 40.5 74.35 40.1Q74.3 40.7 73.75 40.75L73.85 40.65L73.7 40.75M67,40.7L67 40.65L66.9 40.65L66.95 40.7L67 40.7" />
<radialGradient
id="RadialGradID_712" gradientUnits="userSpaceOnUse" gradientTransform="matrix(0.00175476, 0.000350952, -7.62939e-005, 0.000366211, 69.25, 41.5)" spreadMethod ="pad" cx="0" cy="0" r="819.2" fx="0" fy="0" >
<stop  offset="0.313725"  style="stop-color:#FFFFFF;stop-opacity:0.662745" />
<stop  offset="1"  style="stop-color:#FFFFFF;stop-opacity:0" />
</radialGradient>
<path style="fill:url(#RadialGradID_712) " d="M70.65,41.85L70.2 42L69.15 41.9L68.1 41.6L67.75 41.25Q67.8 41.15 68.2 41.1L69.3 41.2L70.3 41.5L70.65 41.85" />
<radialGradient
id="RadialGradID_713" gradientUnits="userSpaceOnUse" gradientTransform="matrix(0.000762939, -0.00012207, 0.000244141, 0.000411987, 71.1, 40.1)" spreadMethod ="pad" cx="0" cy="0" r="819.2" fx="0" fy="0" >
<stop  offset="0.313725"  style="stop-color:#FFFFFF;stop-opacity:0.282353" />
<stop  offset="1"  style="stop-color:#FFFFFF;stop-opacity:0" />
</radialGradient>
<path style="fill:url(#RadialGradID_713) " d="M71.25,40.35L70.75 40.35L70.5 40.2L70.55 40L70.95 39.85L71.4 39.85L71.7 40L71.6 40.2L71.25 40.35" />
<radialGradient
id="RadialGradID_714" gradientUnits="userSpaceOnUse" gradientTransform="matrix(0.000473022, 7.62939e-005, -6.10352e-005, 0.00038147, 71.1, 41.45)" spreadMethod ="pad" cx="0" cy="0" r="819.2" fx="0" fy="0" >
<stop  offset="0.313725"  style="stop-color:#FFFFFF;stop-opacity:0.662745" />
<stop  offset="1"  style="stop-color:#FFFFFF;stop-opacity:0" />
</radialGradient>
<path style="fill:url(#RadialGradID_714) " d="M70.85,41.25L71.15 41.2L71.4 41.35L71.45 41.5L71.3 41.65L71.05 41.65L70.75 41.55L70.7 41.35Q70.7 41.25 70.85 41.25" />
<radialGradient
id="RadialGradID_715" gradientUnits="userSpaceOnUse" gradientTransform="matrix(0.000106812, -0.00257874, -0.00532532, -0.000244141, 70.2, 42.8)" spreadMethod ="pad" cx="0" cy="0" r="819.2" fx="0" fy="0" >
<stop  offset="0"  style="stop-color:#F15E1F;stop-opacity:0.423529" />
<stop  offset="1"  style="stop-color:#FFEFEA;stop-opacity:0" />
</radialGradient>
<path style="fill:url(#RadialGradID_715) " d="M72.65,41.85Q73.55 42.3 73.55 42.95Q73.5 43.65 72.55 44.05L70.1 44.45L67.8 43.9Q66.85 43.35 66.9 42.7Q66.9 42 67.9 41.6L70.3 41.2Q71.65 41.25 72.65 41.85" />
<path style="fill:#823909;fill-opacity:1" d="M71.6,37.75L71.05 37.9L70.8 37.95L70.7 37.95L70.45 38.25L70.3 38.3L70.25 38.3L70.05 38.25L69.75 38.2L69.7 38.15L69.95 38.25L70.4 38.15L70.6 37.95L70.65 37.95L70.95 37.7L71.15 37.65L71.6 37.7L71.6 37.75M69.5,38.1L69.4 38.05L69.15 38L68.55 37.8L68.55 37.75Q68.65 37.55 69.05 37.75L69.25 37.8L69.65 38.15L69.5 38.1M69.7,38.2L69.65 38.15L69.7 38.2" />
<radialGradient
id="RadialGradID_716" gradientUnits="userSpaceOnUse" gradientTransform="matrix(0.00183105, 6.10352e-005, -6.10352e-005, 0.00183105, 70.15, 39.15)" spreadMethod ="pad" cx="0" cy="0" r="819.2" fx="0" fy="0" >
<stop  offset="0"  style="stop-color:#F39B61;stop-opacity:1" />
<stop  offset="1"  style="stop-color:#F8BE98;stop-opacity:1" />
</radialGradient>
<path style="fill:url(#RadialGradID_716) " d="M71.3,35.95L71.2 35.35L71.25 36.1L71.2 35.65L71.1 33.3L71.25 31.6L72.35 30.3Q71.7 32.35 71.85 34.05L71.9 35.5L71.95 35.6L72 36.05L71.3 35.95" />
<radialGradient
id="RadialGradID_717" gradientUnits="userSpaceOnUse" gradientTransform="matrix(0.000701904, 6.10352e-005, -3.05176e-005, 0.00268555, 70.05, 33.65)" spreadMethod ="pad" cx="0" cy="0" r="819.2" fx="0" fy="0" >
<stop  offset="0.313725"  style="stop-color:#FFFFFF;stop-opacity:0.431373" />
<stop  offset="1"  style="stop-color:#FFFFFF;stop-opacity:0" />
</radialGradient>
<path style="fill:url(#RadialGradID_717) " d="M70.4,32.15L70.5 33.7L70.4 35.25L70.3 35.55L70.25 35.6L70.05 35.9L69.85 35.55L69.8 35.5L69.8 35.2Q69.6 34.5 69.65 33.65Q69.65 32.75 69.8 32.1Q69.9 31.45 70.1 31.45L70.4 32.15" />
<radialGradient
id="RadialGradID_718" gradientUnits="userSpaceOnUse" gradientTransform="matrix(0.00183105, 6.10352e-005, -6.10352e-005, 0.00183105, 70.2, 38.85)" spreadMethod ="pad" cx="0" cy="0" r="819.2" fx="0" fy="0" >
<stop  offset="0"  style="stop-color:#F39B61;stop-opacity:1" />
<stop  offset="1"  style="stop-color:#F8BE98;stop-opacity:1" />
</radialGradient>
<path style="fill:url(#RadialGradID_718) " d="M72,36.05L71.95 35.6L71.95 35.65L72.2 36.4L72.3 37.1L72.35 37.2L72.15 37.7L71.55 38L71.05 38.2L70.5 38.55L69.75 38.65Q69.15 38.2 68.5 38.05L68.4 37.95L68.4 37.9Q68.05 37.55 68.45 37.1L68.5 37.05L68.55 37.05L69.3 37.25L70 37.5L70.9 37.25Q71.45 36.9 71.4 36.45L71.3 35.95L72 36.05M71.6,37.7L71.15 37.65L70.95 37.7L70.65 37.95L70.6 37.95L70.4 38.15L69.95 38.25L69.7 38.15L69.75 38.2L70.05 38.25L70.25 38.3L70.3 38.3L70.45 38.25L70.7 37.95L70.8 37.95L71.05 37.9L71.6 37.75L71.6 37.7M69.65,38.15L69.25 37.8L69.05 37.75Q68.65 37.55 68.55 37.75L68.55 37.8L69.15 38L69.4 38.05L69.5 38.1L69.65 38.15L69.7 38.2L69.65 38.15" />
<radialGradient
id="RadialGradID_719" gradientUnits="userSpaceOnUse" gradientTransform="matrix(0.000534058, 3.05176e-005, -3.05176e-005, 0.000534058, 69.95, 36.55)" spreadMethod ="pad" cx="0" cy="0" r="819.2" fx="0" fy="0" >
<stop  offset="0.313725"  style="stop-color:#FFFFFF;stop-opacity:0.431373" />
<stop  offset="1"  style="stop-color:#FFFFFF;stop-opacity:0" />
</radialGradient>
<path style="fill:url(#RadialGradID_719) " d="M69.65,36.9L69.5 36.55Q69.5 36.35 69.65 36.25L69.95 36.15L70.25 36.25L70.4 36.6L70.2 36.9L69.9 37L69.65 36.9" />
<radialGradient
id="RadialGradID_720" gradientUnits="userSpaceOnUse" gradientTransform="matrix(0.00143433, -0.000213623, 0.000366211, 0.00253296, 71.7, 33.95)" spreadMethod ="pad" cx="0" cy="0" r="819.2" fx="210473" fy="0" >
<stop  offset="0.337255"  style="stop-color:#F9C29F;stop-opacity:1" />
<stop  offset="1"  style="stop-color:#FEDEC1;stop-opacity:0" />
</radialGradient>
<path style="fill:url(#RadialGradID_720) " d="M73.25,34.4Q73.2 34.8 72.4 35.1L71.9 35.7L71.9 35.65L71.7 34.1L71.85 32.1L71.85 32.35L71.85 32.05Q72.35 33.45 72.85 33.7L73.15 33.9L73.25 34.4" />
<radialGradient
id="RadialGradID_721" gradientUnits="userSpaceOnUse" gradientTransform="matrix(0.00448608, 0.00038147, -0.00038147, 0.00448608, 78.25, 34.6)" spreadMethod ="pad" cx="0" cy="0" r="819.2" fx="0" fy="0" >
<stop  offset="0"  style="stop-color:#FCA783;stop-opacity:1" />
<stop  offset="1"  style="stop-color:#FEDEC1;stop-opacity:1" />
</radialGradient>
<path style="fill:url(#RadialGradID_721) " d="M78.9,36L78.9 35.95L79 35.8L79 35.75L79.3 34.85L79.35 34.75L79.35 34.65L79.4 34.5L79.45 34.35L79.55 34L79.6 33.75L80.05 32.2L80.1 32.1L81.2 32.2L81.7 32.65L82.15 33.3Q82.65 34 82.05 34.85L81.5 35.65L81.2 36.25L80.9 36.9L80.85 36.95L80.1 37.75L79.45 38.15L79 38.65L78.15 38.6L78.15 38.5L78.15 38.45L78.2 38.4L78.2 38.35L78.4 37.5L78.4 37.4L78.7 36.55L78.7 36.6Q79.15 37.15 79.75 36.95L80.55 36.4L80.7 36.15L80.9 35.75L81.1 35.3L81.2 34.75L80.8 34.8Q80.7 34.8 80.55 34.95L80.25 34.9L80.25 34.85L80.5 34.6L80.6 34.6L81.05 34.45Q81.2 34.35 81.3 34.3L81.3 34.15L81.3 33.25Q80.25 32.25 80 33.1Q79.75 33.85 79.85 34.4L79.85 34.65L79.55 35.1L79.45 35.3L79.45 35.5L79.2 35.8L78.9 36.05L78.9 36" />
<radialGradient
id="RadialGradID_722" gradientUnits="userSpaceOnUse" gradientTransform="matrix(0.00376892, 0.000152588, -0.000152588, 0.00376892, 78.9, 35.25)" spreadMethod ="pad" cx="0" cy="0" r="819.2" fx="0" fy="0" >
<stop  offset="0"  style="stop-color:#EFA06D;stop-opacity:1" />
<stop  offset="1"  style="stop-color:#FCC7A5;stop-opacity:1" />
</radialGradient>
<path style="fill:url(#RadialGradID_722) " d="M78.9,36.05L79.2 35.8L79.45 35.5L79.45 35.3L79.55 35.1L79.85 34.65L79.85 34.4Q79.75 33.85 80 33.1Q80.25 32.25 81.3 33.25L81.3 34.15L81.3 34.3Q81.2 34.35 81.05 34.45L80.6 34.6L80.5 34.6L80.25 34.85L80.25 34.9L80.55 34.95Q80.7 34.8 80.8 34.8L81.2 34.75L81.1 35.3L80.9 35.75L80.7 36.15L80.55 36.4L79.75 36.95Q79.15 37.15 78.7 36.6L78.75 36.6L78.85 36.15L78.85 36.05L78.9 36L78.9 36.05" />
<radialGradient
id="RadialGradID_723" gradientUnits="userSpaceOnUse" gradientTransform="matrix(0.00500488, 0.000427246, -0.000427246, 0.00500488, 62.45, 34)" spreadMethod ="pad" cx="0" cy="0" r="819.2" fx="0" fy="0" >
<stop  offset="0"  style="stop-color:#FCA783;stop-opacity:1" />
<stop  offset="1"  style="stop-color:#FEDEC1;stop-opacity:1" />
</radialGradient>
<path style="fill:url(#RadialGradID_723) " d="M59.7,31.6L60.15 32.95L60.55 34L60.75 34.6L60.95 35.1L60.95 35.25L61.15 35.95L61.2 36.05L61.45 36.65L61.75 37.45L61.8 37.9L60.95 38L60.8 37.85L60.7 37.8L60.5 37.6L59.8 37.2L59.55 37L59 36.4L57.7 34.45L57.65 34.4Q57.05 33.6 57.5 32.9L57.7 32.5L57.9 32.25L58.2 31.9L58.25 31.9L58.35 31.75Q58.65 31.35 59.25 31.55L59.7 31.6M58.35,33.5L59.4 34.3L59.9 34.6L59.95 34.65L59.1 34.65L58.4 34.25L58.35 34.25Q59.3 35.1 59.4 35.65Q59.35 36 59.9 36.4L60.4 36.65Q61.4 37.15 61.1 36L60.7 35.65L60.7 35.55L60.6 34.9L59.9 34.2Q59.85 31.5 58.55 32.5L58.35 33.5" />
<radialGradient
id="RadialGradID_724" gradientUnits="userSpaceOnUse" gradientTransform="matrix(0.00534058, 0.000183105, -0.000183105, 0.00534058, 60.5, 35.45)" spreadMethod ="pad" cx="0" cy="0" r="819.2" fx="0" fy="0" >
<stop  offset="0"  style="stop-color:#EFA06D;stop-opacity:1" />
<stop  offset="1"  style="stop-color:#FCC7A5;stop-opacity:1" />
</radialGradient>
<path style="fill:url(#RadialGradID_724) " d="M58.55,32.5Q59.85 31.5 59.9 34.2L60.6 34.9L60.7 35.55L60.7 35.65L61.1 36Q61.4 37.15 60.4 36.65L59.9 36.4Q59.35 36 59.4 35.65Q59.3 35.1 58.35 34.25L58.4 34.25L59.1 34.65L59.95 34.65L59.9 34.6L59.4 34.3L58.35 33.5L58.55 32.5" />
<path style="fill:none;stroke-width:0.05;stroke-linecap:round;stroke-linejoin:round;stroke-miterlimit:3;stroke:#B76340;stroke-opacity:0.501961" d="M80.1,32.1L81.2 32.2L81.7 32.65L82.15 33.3Q82.65 34 82.05 34.85L81.5 35.65L81.2 36.25L80.9 36.9L80.85 36.95L80.1 37.75L79.45 38.15L79 38.65L78.15 38.6" />
<path style="fill:none;stroke-width:0.05;stroke-linecap:round;stroke-linejoin:round;stroke-miterlimit:3;stroke:#B76340;stroke-opacity:0.501961" d="M61.75,37.45L61.8 37.9L60.95 38L60.8 37.85L60.7 37.8L60.5 37.6L59.8 37.2L59.55 37L59 36.4L57.7 34.45L57.65 34.4Q57.05 33.6 57.5 32.9L57.7 32.5L57.9 32.25L58.2 31.9M58.25,31.9L58.35 31.75Q58.65 31.35 59.25 31.55L59.7 31.6" />
<path style="fill:#FFFFFF;fill-opacity:1" d="M78.2,38.4L78.25 38.45L78.1 38.85L78.2 38.4" />
<radialGradient
id="RadialGradID_725" gradientUnits="userSpaceOnUse" gradientTransform="matrix(0.0045166, 0.000335693, -0.000335693, 0.0045166, 78.3, 34.45)" spreadMethod ="pad" cx="0" cy="0" r="819.2" fx="0" fy="0" >
<stop  offset="0"  style="stop-color:#FCA783;stop-opacity:1" />
<stop  offset="1"  style="stop-color:#FEDEC1;stop-opacity:1" />
</radialGradient>
<path style="fill:url(#RadialGradID_725) " d="M79,35.8L79.05 35.65L79.1 35.6L79.4 34.7L79.4 34.55L79.45 34.5L79.5 34.35L79.55 34.2L79.65 33.85L79.7 33.55L80.1 32L80.15 31.95L81.25 32L81.8 32.5L82.25 33.1Q82.75 33.85 82.15 34.7L81.6 35.5L81.3 36.05L81 36.75L80.95 36.8L80.2 37.55L79.55 38L79.1 38.5L79 38.6L78.25 38.45L78.25 38.4L78.3 38.3L78.3 38.2L78.55 37.25L78.8 36.4L78.8 36.45L79 36.65L79.85 36.8L80.65 36.25L80.8 36L81 35.6L81.15 35.15L81.3 34.6L80.9 34.6L80.65 34.8L80.3 34.75L80.35 34.65L80.6 34.4L80.7 34.45L81.15 34.3L81.4 34.1L81.4 33.95L81.35 33.05Q80.35 32.1 80.1 32.9Q79.8 33.7 79.95 34.25L79.9 34.45L79.65 34.95L79.55 35.15L79.55 35.35L79.3 35.65L79 35.9L78.95 35.85L79 35.8" />
<radialGradient
id="RadialGradID_726" gradientUnits="userSpaceOnUse" gradientTransform="matrix(0.00378418, 0.00012207, -0.00012207, 0.00378418, 78.9, 35.1)" spreadMethod ="pad" cx="0" cy="0" r="819.2" fx="0" fy="0" >
<stop  offset="0"  style="stop-color:#EFA06D;stop-opacity:1" />
<stop  offset="1"  style="stop-color:#FCC7A5;stop-opacity:1" />
</radialGradient>
<path style="fill:url(#RadialGradID_726) " d="M78.85,36.45L78.95 36L78.95 35.9L78.95 35.85L79 35.9L79.3 35.65L79.55 35.35L79.55 35.15L79.65 34.95L79.9 34.45L79.95 34.25Q79.8 33.7 80.1 32.9Q80.35 32.1 81.35 33.05L81.4 33.95L81.4 34.1L81.15 34.3L80.7 34.45L80.6 34.4L80.35 34.65L80.3 34.75L80.65 34.8L80.9 34.6L81.3 34.6L81.15 35.15L81 35.6L80.8 36L80.65 36.25L79.85 36.8L79 36.65L78.8 36.45L78.85 36.45" />
<radialGradient
id="RadialGradID_727" gradientUnits="userSpaceOnUse" gradientTransform="matrix(0.00502014, 0.000366211, -0.000366211, 0.00502014, 62.45, 33.95)" spreadMethod ="pad" cx="0" cy="0" r="819.2" fx="0" fy="0" >
<stop  offset="0"  style="stop-color:#FCA783;stop-opacity:1" />
<stop  offset="1"  style="stop-color:#FEDEC1;stop-opacity:1" />
</radialGradient>
<path style="fill:url(#RadialGradID_727) " d="M61.9,37.9L61.85 37.9L61.85 37.95L61 38.05L60.85 37.85L60.75 37.8L60.55 37.6L59.85 37.2L59.6 37.05L59 36.45L57.7 34.5L57.65 34.4Q57.05 33.65 57.45 32.9L57.7 32.5L57.85 32.25L58.2 31.95L58.2 31.9L58.35 31.75Q58.65 31.4 59.25 31.55L59.7 31.6L60.15 32.95L60.55 34L60.75 34.6L60.95 35.1L61 35.25L61.2 35.95L61.25 36.05L61.5 36.65L61.8 37.45L61.9 37.75L61.95 37.9L61.9 37.9M58.35,33.5L59.4 34.35Q59.85 34.45 59.95 34.65L59.1 34.65L58.4 34.3L58.35 34.3Q59.3 35.15 59.45 35.65Q59.4 36 59.95 36.4L60.45 36.7Q61.45 37.2 61.15 36L60.75 35.65L60.7 35.55L60.6 34.9L59.9 34.2Q59.85 31.5 58.55 32.5L58.35 33.5" />
<radialGradient
id="RadialGradID_728" gradientUnits="userSpaceOnUse" gradientTransform="matrix(0.00535583, 0.00012207, -0.00012207, 0.00535583, 60.55, 35.45)" spreadMethod ="pad" cx="0" cy="0" r="819.2" fx="0" fy="0" >
<stop  offset="0"  style="stop-color:#EFA06D;stop-opacity:1" />
<stop  offset="1"  style="stop-color:#FCC7A5;stop-opacity:1" />
</radialGradient>
<path style="fill:url(#RadialGradID_728) " d="M58.55,32.5Q59.85 31.5 59.9 34.2L60.6 34.9L60.7 35.55L60.75 35.65L61.15 36Q61.45 37.2 60.45 36.7L59.95 36.4Q59.4 36 59.45 35.65Q59.3 35.15 58.35 34.3L58.4 34.3L59.1 34.65L59.95 34.65Q59.85 34.45 59.4 34.35L58.35 33.5L58.55 32.5" />
<radialGradient
id="RadialGradID_729" gradientUnits="userSpaceOnUse" gradientTransform="matrix(0.0104675, 0.00109863, -0.00109863, 0.0104675, 59, 43.2)" spreadMethod ="pad" cx="0" cy="0" r="819.2" fx="0" fy="0" >
<stop  offset="0"  style="stop-color:#FBBD9D;stop-opacity:1" />
<stop  offset="1"  style="stop-color:#FEDEC1;stop-opacity:1" />
</radialGradient>
<path style="fill:url(#RadialGradID_729) " d="M62.9,40.6L62.8 40.4L61.95 37.9L61.9 37.75L61.8 37.45L61.5 36.65L61.25 36.05L61.2 35.95L61 35.25Q62.8 33.65 65.1 33.9L65.95 34.05L66.35 34.2L66.8 34.4L67.05 34.5L67.1 34.55Q67.35 34.65 67.6 34.85L68.05 35.2L68.8 36.05L69.7 37.7Q70.15 38.95 70 40.45L69.95 40.6L69.85 41.4Q69.35 43.25 67.95 44.5Q67.65 44.75 67.5 45.1Q64.25 42.55 62.9 40.6" />
<radialGradient
id="RadialGradID_730" gradientUnits="userSpaceOnUse" gradientTransform="matrix(0.0100098, 0.0010376, -0.0010376, 0.0100098, 80.7, 41.9)" spreadMethod ="pad" cx="0" cy="0" r="819.2" fx="0" fy="0" >
<stop  offset="0"  style="stop-color:#FBBD9D;stop-opacity:1" />
<stop  offset="1"  style="stop-color:#FEDEC1;stop-opacity:1" />
</radialGradient>
<path style="fill:url(#RadialGradID_730) " d="M78.1,38.85L77.4 40.6L77.05 41.4L73.55 44.85L72.3 45.6L73 44.7L71.85 43.65L71.6 43.3L70.7 41.7L70.45 40.6L70.45 38.9Q70.45 38.4 70.6 37.95Q71 36.1 72.45 34.85Q74.25 33.25 76.6 33.5L77.4 33.65L77.85 33.8L78.3 34L78.55 34.15L78.85 34.3L79 34.45L79.1 34.5L79.25 34.6L79.4 34.7L79.1 35.6L79.05 35.65L79 35.7L78.95 35.75L78.95 35.85L78.9 35.9L78.9 36L78.75 36.4L78.75 36.45L78.5 37.25L78.5 37.35L78.2 38.3L78.25 38.25L78.25 38.3L78.25 38.35L78.2 38.4L78.1 38.85" />
<radialGradient
id="RadialGradID_731" gradientUnits="userSpaceOnUse" gradientTransform="matrix(0.0045166, 0.000335693, -0.000335693, 0.0045166, 78.25, 34.5)" spreadMethod ="pad" cx="0" cy="0" r="819.2" fx="0" fy="0" >
<stop  offset="0"  style="stop-color:#FCA783;stop-opacity:1" />
<stop  offset="1"  style="stop-color:#FEDEC1;stop-opacity:1" />
</radialGradient>
<path style="fill:url(#RadialGradID_731) " d="M78.25,38.25L78.2 38.3L78.5 37.35L78.25 38.2L78.25 38.25" />
<radialGradient
id="RadialGradID_732" gradientUnits="userSpaceOnUse" gradientTransform="matrix(0.0136566, 0.000366211, -0.000366211, 0.0136566, 70.3, 15.55)" spreadMethod ="pad" cx="0" cy="0" r="819.2" fx="0" fy="0" >
<stop  offset="0"  style="stop-color:#FBBD9D;stop-opacity:1" />
<stop  offset="1"  style="stop-color:#FEDEC1;stop-opacity:1" />
</radialGradient>
<path style="fill:url(#RadialGradID_732) " d="M67.5,45.15L67.5 45.1L67.95 45.45L67.5 45.15M61.85,37.95L61.85 37.9L61.9 37.9L61.85 37.95" />
<path style="fill:#FEDEC1;fill-opacity:1" d="M80.1,32L79.7 33.55L79.65 33.85L79.55 34.2L79.5 34.35L79.45 34.5L79.4 34.55L79.4 34.7L79.25 34.6L79.1 34.5L79 34.45L78.85 34.3L78.55 34.15L78.3 34L77.85 33.8L77.4 33.65L76.6 33.5Q74.25 33.25 72.45 34.85Q71 36.1 70.6 37.95Q70.45 38.4 70.45 38.9L70.45 40.6L70.7 41.7L71.6 43.3L71.85 43.65L73 44.7L72.3 45.6L70.45 46Q68.95 46.05 67.95 45.45L67.5 45.1Q67.65 44.75 67.95 44.5Q69.35 43.25 69.85 41.4L69.95 40.6L70 40.45Q70.15 38.95 69.7 37.7L68.8 36.05L68.05 35.2L67.6 34.85Q67.35 34.65 67.1 34.55L67.05 34.5L66.8 34.4L66.35 34.2L65.95 34.05L65.1 33.9Q62.8 33.65 61 35.25L60.95 35.1L60.75 34.6L60.55 34L60.15 32.95L59.7 31.6L59.45 30.85Q58.95 29.35 59 27.8L59.1 27.2Q59.35 25.65 60.65 20.95Q70.1 16.05 79.8 20.95L79.8 21L80.05 21.7Q81.8 27.7 80.25 31.3L80.25 31.45L80.2 31.55L80.2 31.6L80.1 31.95L80.05 32L80.1 32" />
<path style="fill:none;stroke-width:0.25;stroke-linecap:round;stroke-linejoin:round;stroke-miterlimit:3;stroke:#B76340;stroke-opacity:0.501961" d="M80.15,31.95L80.2 31.6L80.2 31.55L80.25 31.45L80.25 31.3Q81.8 27.7 80.05 21.7L79.8 21L79.8 20.95Q70.1 16.05 60.65 20.95Q59.35 25.65 59.1 27.2L59 27.8Q58.95 29.35 59.45 30.85L59.7 31.6L59.25 31.55Q58.65 31.4 58.35 31.75L58.2 31.9L58.2 31.95L57.85 32.25L57.7 32.5L57.45 32.9Q57.05 33.65 57.65 34.4L57.7 34.5L59 36.45L59.6 37.05L59.85 37.2L60.55 37.6L60.75 37.8L60.85 37.85L61 38.05L61.85 37.95L61.85 37.9L61.8 37.45M61.95,37.9L62.8 40.4L62.9 40.6Q64.25 42.55 67.5 45.1L67.95 45.45Q68.95 46.05 70.45 46L72.3 45.6M61.95,37.9L61.9 37.75M61.85,37.95L61.9 37.9L61.85 37.9M78.1,38.85L78.2 38.4L78.25 38.35L78.25 38.3L78.25 38.25M78.5,37.35L78.25 38.2L78.25 38.25M78.25,38.45L78.1 38.85L77.4 40.6L77.05 41.4L73.55 44.85L72.3 45.6" />
<path style="fill:none;stroke-width:0.25;stroke-linecap:round;stroke-linejoin:round;stroke-miterlimit:3;stroke:#B76340;stroke-opacity:0.501961" d="M78.25,38.45L79 38.6L79.1 38.5L79.55 38L80.2 37.55L80.95 36.8L81 36.75L81.3 36.05L81.6 35.5L82.15 34.7Q82.75 33.85 82.25 33.1L81.8 32.5L81.25 32L80.15 31.95" />
<radialGradient
id="RadialGradID_733" gradientUnits="userSpaceOnUse" gradientTransform="matrix(0.00505066, 0.000411987, -0.000228882, 0.0027771, 69.85, 44.6)" spreadMethod ="pad" cx="0" cy="0" r="819.2" fx="6" fy="0" >
<stop  offset="0"  style="stop-color:#FBBD9D;stop-opacity:1" />
<stop  offset="1"  style="stop-color:#F9E2C1;stop-opacity:1" />
</radialGradient>
<path style="fill:url(#RadialGradID_733) " d="M68.6,45.45L68.35 45.1L70.65 45.45L72.65 45Q71.6 45.85 70.25 45.8L68.6 45.45" />
<radialGradient
id="RadialGradID_734" gradientUnits="userSpaceOnUse" gradientTransform="matrix(0.00146484, 0.00106812, -0.00344849, 0.00474548, 77.1, 41.25)" spreadMethod ="pad" cx="0" cy="0" r="819.2" fx="0" fy="0" >
<stop  offset="0.313725"  style="stop-color:#FFFFFF;stop-opacity:0.431373" />
<stop  offset="1"  style="stop-color:#FFFFFF;stop-opacity:0" />
</radialGradient>
<path style="fill:url(#RadialGradID_734) " d="M77.3,39.5L78.15 37.45L76.9 41.25L73.5 44.5L76.55 40.95L77.3 39.5" />
<radialGradient
id="RadialGradID_735" gradientUnits="userSpaceOnUse" gradientTransform="matrix(0.00227356, 0.00109863, -0.000717163, 0.00512695, 76.2, 36.35)" spreadMethod ="pad" cx="0" cy="0" r="819.2" fx="0" fy="0" >
<stop  offset="0"  style="stop-color:#FFFFFF;stop-opacity:0.313725" />
<stop  offset="1"  style="stop-color:#FFFFFF;stop-opacity:0" />
</radialGradient>
<path style="fill:url(#RadialGradID_735) " d="M77.55,34.7Q78.05 35.5 77.95 36.4Q77.85 37.35 77.15 38.4L75.8 39.6Q75.15 39.75 74.6 38.95Q74.1 38.1 74.2 37.15Q74.3 36.2 75.05 35.2Q75.75 34.1 76.4 33.95Q77 33.85 77.55 34.7" />
<radialGradient
id="RadialGradID_736" gradientUnits="userSpaceOnUse" gradientTransform="matrix(0.00202942, -0.000549316, 0.000640869, 0.0032196, 64.3, 36.6)" spreadMethod ="pad" cx="0" cy="0" r="819.2" fx="0" fy="0" >
<stop  offset="0"  style="stop-color:#FFFFFF;stop-opacity:0.262745" />
<stop  offset="1"  style="stop-color:#FFFFFF;stop-opacity:0" />
</radialGradient>
<path style="fill:url(#RadialGradID_736) " d="M65.2,34.4Q65.85 35.05 66 35.85Q66.2 36.75 65.85 37.8Q65.45 38.75 64.95 38.9Q64.4 39.05 63.7 38.35Q63 37.65 62.85 36.8Q62.65 35.95 63.05 35Q63.4 33.95 63.95 33.8Q64.45 33.7 65.2 34.4" />
<radialGradient
id="RadialGradID_737" gradientUnits="userSpaceOnUse" gradientTransform="matrix(0.012085, 0, 0, 0.012085, 77.1, 17.9)" spreadMethod ="pad" cx="0" cy="0" r="819.2" fx="0" fy="0" >
<stop  offset="0"  style="stop-color:#FFFFFF;stop-opacity:0.160784" />
<stop  offset="1"  style="stop-color:#FFFFFF;stop-opacity:0" />
</radialGradient>
<path style="fill:url(#RadialGradID_737) " d="M69.85,18.25Q69.85 15.9 70.75 14.45L70.85 14.5Q76.95 16.2 77.95 17.35Q80.15 19.95 80.15 22.4Q80.15 26.4 73.55 26.4L71.7 26.1Q71.05 25.6 70.45 23.8Q69.8 21.8 69.9 20.7L69.85 18.25" />
<radialGradient
id="RadialGradID_738" gradientUnits="userSpaceOnUse" gradientTransform="matrix(0.0124207, 0, 0, 0.0124207, 73.1, 11.55)" spreadMethod ="pad" cx="0" cy="0" r="819.2" fx="41" fy="0" >
<stop  offset="0"  style="stop-color:#FEEADE;stop-opacity:1" />
<stop  offset="0.988235"  style="stop-color:#FEDEC2;stop-opacity:1" />
</radialGradient>
<path style="fill:url(#RadialGradID_738) " d="M58.9,23.35Q59.25 21.65 60.1 20.2Q60.8 18.8 61.95 17.65Q65.25 14.05 70 14.1Q74.7 14.05 78.05 17.65Q81.35 21.2 81.4 26.25Q81.35 28.3 80.8 30.2L80.1 31.85L80.15 30.15L80.25 28.1Q80.25 25.35 79.05 23.25L78.05 22.55Q76.9 21.85 75.45 21.75Q72.5 21.45 70.35 24.05Q68.2 21.45 65.25 21.75Q62.1 22 60.45 24.75L59.75 26.1L59.6 28.35L59.8 30.8L59.9 31.9Q58.95 29.95 58.7 27.75L58.65 26.25Q58.6 24.7 58.9 23.35" />
<path style="fill:none;stroke-width:0.25;stroke-linecap:round;stroke-linejoin:round;stroke-miterlimit:3;stroke:#B76340;stroke-opacity:0.501961" d="M80.1,31.85L80.8 30.2Q81.35 28.3 81.4 26.25Q81.35 21.2 78.05 17.65Q74.7 14.05 70 14.1Q65.25 14.05 61.95 17.65Q60.8 18.8 60.1 20.2Q59.25 21.65 58.9 23.35L58.65 25.6L58.65 25.65L58.65 26.15L58.7 27.75Q58.95 29.95 59.9 31.9L59.95 32.3M58.7,27.75L58.65 26.25Q58.6 24.7 58.9 23.35M80.1,31.85L80.1 32L80.35 31.8L80.6 31L80.8 30.2" />
<radialGradient
id="RadialGradID_739" gradientUnits="userSpaceOnUse" gradientTransform="matrix(0.010376, 0, 0, 0.010376, 62.7, 22.45)" spreadMethod ="pad" cx="0" cy="0" r="819.2" fx="0" fy="0" >
<stop  offset="0"  style="stop-color:#FFFFFF;stop-opacity:0.501961" />
<stop  offset="1"  style="stop-color:#FFFFFF;stop-opacity:0" />
</radialGradient>
<path style="fill:url(#RadialGradID_739) " d="M61.3,20.2Q59.45 23.4 59.45 26.4Q59.45 28.35 60 29.7L60 29.95L59.95 29.95Q59.05 26.95 59.05 24.45L59.2 22.95Q59.2 21.8 61.5 18.6Q63.15 16.05 66.3 14.9L66.35 14.9Q63.25 16.8 61.3 20.2" />
<radialGradient
id="RadialGradID_740" gradientUnits="userSpaceOnUse" gradientTransform="matrix(0.0100098, 0, 0, 0.0100098, 76.7, 22)" spreadMethod ="pad" cx="0" cy="0" r="819.2" fx="0" fy="0" >
<stop  offset="0"  style="stop-color:#FFFFFF;stop-opacity:0.643137" />
<stop  offset="1"  style="stop-color:#FFFFFF;stop-opacity:0" />
</radialGradient>
<path style="fill:url(#RadialGradID_740) " d="M78.95,18.95Q81 21.8 81 24.75L80.45 28.95L80.4 28.95L80.65 26.75Q80.65 23.25 78.8 20Q76.45 15.95 72.4 15L72.85 15Q76.6 15.6 78.95 18.95" />
<radialGradient
id="RadialGradID_741" gradientUnits="userSpaceOnUse" gradientTransform="matrix(0.0115967, 0, 0, 0.0115967, 69.65, 17.95)" spreadMethod ="pad" cx="0" cy="0" r="819.2" fx="0" fy="0" >
<stop  offset="0"  style="stop-color:#FFFFFF;stop-opacity:0.501961" />
<stop  offset="1"  style="stop-color:#FFFFFF;stop-opacity:0" />
</radialGradient>
<path style="fill:url(#RadialGradID_741) " d="M64.1,15.9Q65.85 14.85 67.6 14.4L70 14.1L72.05 14.25L73.45 14.7L74.85 15.35Q75.75 15.7 76.95 16.75Q78.1 17.75 79 19.25Q78.5 21.7 76.3 23.5Q73.55 25.8 69.65 25.8Q65.75 25.8 62.95 23.5Q60.5 21.45 60.25 18.6L61.4 17.7Q62.3 16.95 64.1 15.9" />
</g>
</svg>
