<?xml version="1.0" encoding="utf-8"?>
<svg version="1.1" id="Layer_1"
xmlns="http://www.w3.org/2000/svg"
xmlns:xlink="http://www.w3.org/1999/xlink"
xmlns:author="http://www.sothink.com"
width="26px" height="8px"
xml:space="preserve">
<g id="119" transform="matrix(1, 0, 0, 1, -57.3, -31.5)">
<radialGradient
id="RadialGradID_857" gradientUnits="userSpaceOnUse" gradientTransform="matrix(0.00448608, 0.00038147, -0.00038147, 0.00448608, 78.25, 34.6)" spreadMethod ="pad" cx="0" cy="0" r="819.2" fx="0" fy="0" >
<stop  offset="0"  style="stop-color:#FCA783;stop-opacity:1" />
<stop  offset="1"  style="stop-color:#FEDEC1;stop-opacity:1" />
</radialGradient>
<path style="fill:url(#RadialGradID_857) " d="M78.9,36L78.9 35.95L79 35.8L79 35.75L79.3 34.85L79.35 34.75L79.35 34.65L79.4 34.5L79.45 34.35L79.55 34L79.6 33.75L80.05 32.2L80.1 32.1L81.2 32.2L81.7 32.65L82.15 33.3Q82.65 34 82.05 34.85L81.5 35.65L81.2 36.25L80.9 36.9L80.85 36.95L80.1 37.75L79.45 38.15L79 38.65L78.15 38.6L78.15 38.5L78.15 38.45L78.2 38.4L78.2 38.35L78.4 37.5L78.4 37.4L78.7 36.55L78.7 36.6Q79.15 37.15 79.75 36.95L80.55 36.4L80.7 36.15L80.9 35.75L81.1 35.3L81.2 34.75L80.8 34.8Q80.7 34.8 80.55 34.95L80.25 34.9L80.25 34.85L80.5 34.6L80.6 34.6L81.05 34.45Q81.2 34.35 81.3 34.3L81.3 34.15L81.3 33.25Q80.25 32.25 80 33.1Q79.75 33.85 79.85 34.4L79.85 34.65L79.55 35.1L79.45 35.3L79.45 35.5L79.2 35.8L78.9 36.05L78.9 36" />
<radialGradient
id="RadialGradID_858" gradientUnits="userSpaceOnUse" gradientTransform="matrix(0.00376892, 0.000152588, -0.000152588, 0.00376892, 78.9, 35.25)" spreadMethod ="pad" cx="0" cy="0" r="819.2" fx="0" fy="0" >
<stop  offset="0"  style="stop-color:#EFA06D;stop-opacity:1" />
<stop  offset="1"  style="stop-color:#FCC7A5;stop-opacity:1" />
</radialGradient>
<path style="fill:url(#RadialGradID_858) " d="M78.9,36.05L79.2 35.8L79.45 35.5L79.45 35.3L79.55 35.1L79.85 34.65L79.85 34.4Q79.75 33.85 80 33.1Q80.25 32.25 81.3 33.25L81.3 34.15L81.3 34.3Q81.2 34.35 81.05 34.45L80.6 34.6L80.5 34.6L80.25 34.85L80.25 34.9L80.55 34.95Q80.7 34.8 80.8 34.8L81.2 34.75L81.1 35.3L80.9 35.75L80.7 36.15L80.55 36.4L79.75 36.95Q79.15 37.15 78.7 36.6L78.75 36.6L78.85 36.15L78.85 36.05L78.9 36L78.9 36.05" />
<radialGradient
id="RadialGradID_859" gradientUnits="userSpaceOnUse" gradientTransform="matrix(0.00500488, 0.000427246, -0.000427246, 0.00500488, 62.45, 34)" spreadMethod ="pad" cx="0" cy="0" r="819.2" fx="0" fy="0" >
<stop  offset="0"  style="stop-color:#FCA783;stop-opacity:1" />
<stop  offset="1"  style="stop-color:#FEDEC1;stop-opacity:1" />
</radialGradient>
<path style="fill:url(#RadialGradID_859) " d="M59.7,31.6L60.15 32.95L60.55 34L60.75 34.6L60.95 35.1L60.95 35.25L61.15 35.95L61.2 36.05L61.45 36.65L61.75 37.45L61.8 37.9L60.95 38L60.8 37.85L60.7 37.8L60.5 37.6L59.8 37.2L59.55 37L59 36.4L57.7 34.45L57.65 34.4Q57.05 33.6 57.5 32.9L57.7 32.5L57.9 32.25L58.2 31.9L58.25 31.9L58.35 31.75Q58.65 31.35 59.25 31.55L59.7 31.6M58.35,33.5L59.4 34.3L59.9 34.6L59.95 34.65L59.1 34.65L58.4 34.25L58.35 34.25Q59.3 35.1 59.4 35.65Q59.35 36 59.9 36.4L60.4 36.65Q61.4 37.15 61.1 36L60.7 35.65L60.7 35.55L60.6 34.9L59.9 34.2Q59.85 31.5 58.55 32.5L58.35 33.5" />
<radialGradient
id="RadialGradID_860" gradientUnits="userSpaceOnUse" gradientTransform="matrix(0.00534058, 0.000183105, -0.000183105, 0.00534058, 60.5, 35.45)" spreadMethod ="pad" cx="0" cy="0" r="819.2" fx="0" fy="0" >
<stop  offset="0"  style="stop-color:#EFA06D;stop-opacity:1" />
<stop  offset="1"  style="stop-color:#FCC7A5;stop-opacity:1" />
</radialGradient>
<path style="fill:url(#RadialGradID_860) " d="M58.55,32.5Q59.85 31.5 59.9 34.2L60.6 34.9L60.7 35.55L60.7 35.65L61.1 36Q61.4 37.15 60.4 36.65L59.9 36.4Q59.35 36 59.4 35.65Q59.3 35.1 58.35 34.25L58.4 34.25L59.1 34.65L59.95 34.65L59.9 34.6L59.4 34.3L58.35 33.5L58.55 32.5" />
<path style="fill:none;stroke-width:0.05;stroke-linecap:round;stroke-linejoin:bevel;stroke-miterlimit:3;stroke:#B76340;stroke-opacity:0.501961" d="M80.1,32.1L81.2 32.2L81.7 32.65L82.15 33.3Q82.65 34 82.05 34.85L81.5 35.65L81.2 36.25L80.9 36.9L80.85 36.95L80.1 37.75L79.45 38.15L79 38.65L78.15 38.6" />
<path style="fill:none;stroke-width:0.05;stroke-linecap:round;stroke-linejoin:round;stroke-miterlimit:3;stroke:#B76340;stroke-opacity:0.501961" d="M61.75,37.45L61.8 37.9L60.95 38L60.8 37.85L60.7 37.8L60.5 37.6L59.8 37.2L59.55 37L59 36.4L57.7 34.45L57.65 34.4Q57.05 33.6 57.5 32.9L57.7 32.5L57.9 32.25L58.2 31.9M58.25,31.9L58.35 31.75Q58.65 31.35 59.25 31.55L59.7 31.6" />
</g>
</svg>
