<?xml version="1.0" encoding="utf-8"?>
<svg version="1.1" id="Layer_1"
xmlns="http://www.w3.org/2000/svg"
xmlns:xlink="http://www.w3.org/1999/xlink"
xmlns:author="http://www.sothink.com"
width="25px" height="8px"
xml:space="preserve">
<g id="117" transform="matrix(1, 0, 0, 1, -57.7, -28.5)">
<radialGradient
id="RadialGradID_834" gradientUnits="userSpaceOnUse" gradientTransform="matrix(0.00517273, 0, 0, 0.00640869, 78, 31.5)" spreadMethod ="pad" cx="0" cy="0" r="819.2" fx="0" fy="0" >
<stop  offset="0"  style="stop-color:#FB8F62;stop-opacity:1" />
<stop  offset="0.698039"  style="stop-color:#FEC7A3;stop-opacity:1" />
<stop  offset="1"  style="stop-color:#FEDEC1;stop-opacity:1" />
</radialGradient>
<path style="fill:url(#RadialGradID_834) " d="M81.8,29.65Q81.75 29.3 81.55 29.3Q80.85 29.7 80.25 30.6Q79.7 31.55 79.7 32L79.8 32.55L79.6 33.25L79.4 34Q79.4 34.5 79.55 34.65L79.9 34.05L80.5 33.75L80.45 32.45L81.1 30.25L81.25 31.15L80.95 33.55Q81.5 32.7 81.65 31.75L81.7 31.55L81.85 30.55L81.8 29.65M79.8,29.2L80.5 28.75L81.3 28.5Q81.8 28.5 82 28.9Q82.25 29.4 82.35 31.05L81.25 33.55L79.7 36.2L79.3 36.45L79 36.45L78.7 36.45L79.8 29.2" />
<radialGradient
id="RadialGradID_835" gradientUnits="userSpaceOnUse" gradientTransform="matrix(0.00344849, 0.000930786, -0.00144958, 0.00538635, 79.3, 31.7)" spreadMethod ="pad" cx="0" cy="0" r="819.2" fx="0" fy="0" >
<stop  offset="0"  style="stop-color:#EA8440;stop-opacity:1" />
<stop  offset="1"  style="stop-color:#FCC7A5;stop-opacity:1" />
</radialGradient>
<path style="fill:url(#RadialGradID_835) " d="M81.85,30.55L81.7 31.55L81.65 31.75Q81.5 32.7 80.95 33.55L81.25 31.15L81.1 30.25L80.45 32.45L80.5 33.75L79.9 34.05L79.55 34.65Q79.4 34.5 79.4 34L79.6 33.25L79.8 32.55L79.7 32Q79.7 31.55 80.25 30.6Q80.85 29.7 81.55 29.3Q81.75 29.3 81.8 29.65L81.85 30.55" />
<path style="fill:none;stroke-width:0.05;stroke-linecap:round;stroke-linejoin:round;stroke-miterlimit:3;stroke:#B76340;stroke-opacity:0.501961" d="M79.8,29.2L80.5 28.75L81.3 28.5Q81.8 28.5 82 28.9Q82.25 29.4 82.35 31.05L81.25 33.55L79.7 36.2L79.3 36.45L79 36.45L78.7 36.45" />
<radialGradient
id="RadialGradID_836" gradientUnits="userSpaceOnUse" gradientTransform="matrix(-0.00517273, 0, 0, 0.00640869, 62.05, 31.5)" spreadMethod ="pad" cx="0" cy="0" r="819.2" fx="0" fy="0" >
<stop  offset="0"  style="stop-color:#FB8F62;stop-opacity:1" />
<stop  offset="0.698039"  style="stop-color:#FEC7A3;stop-opacity:1" />
<stop  offset="1"  style="stop-color:#FEDEC1;stop-opacity:1" />
</radialGradient>
<path style="fill:url(#RadialGradID_836) " d="M58.25,29.65Q58.3 29.3 58.5 29.3L59.8 30.6Q60.35 31.55 60.35 32L60.25 32.55L60.45 33.25L60.65 34L60.5 34.65L60.15 34.05L59.55 33.75Q59.35 33.65 59.6 32.45Q59.1 31.4 58.95 30.25L58.8 31.15L59.1 33.55Q58.55 32.7 58.4 31.75L58.35 31.55L58.2 30.55L58.25 29.65M60.25,29.2L59.55 28.75L58.75 28.5Q58.25 28.5 58.05 28.9Q57.8 29.4 57.7 31.05L58.8 33.55L60.35 36.2L60.75 36.45L61.05 36.45L61.35 36.45L60.25 29.2" />
<radialGradient
id="RadialGradID_837" gradientUnits="userSpaceOnUse" gradientTransform="matrix(-0.00344849, 0.000930786, 0.00144958, 0.00538635, 60.75, 31.7)" spreadMethod ="pad" cx="0" cy="0" r="819.2" fx="0" fy="0" >
<stop  offset="0"  style="stop-color:#EA8440;stop-opacity:1" />
<stop  offset="1"  style="stop-color:#FCC7A5;stop-opacity:1" />
</radialGradient>
<path style="fill:url(#RadialGradID_837) " d="M58.2,30.55L58.35 31.55L58.4 31.75Q58.55 32.7 59.1 33.55L58.8 31.15L58.95 30.25Q59.1 31.4 59.6 32.45Q59.35 33.65 59.55 33.75L60.15 34.05L60.5 34.65L60.65 34L60.45 33.25L60.25 32.55L60.35 32Q60.35 31.55 59.8 30.6L58.5 29.3Q58.3 29.3 58.25 29.65L58.2 30.55" />
<path style="fill:none;stroke-width:0.05;stroke-linecap:round;stroke-linejoin:round;stroke-miterlimit:3;stroke:#B76340;stroke-opacity:0.501961" d="M60.25,29.2L59.55 28.75L58.75 28.5Q58.25 28.5 58.05 28.9Q57.8 29.4 57.7 31.05L58.8 33.55L60.35 36.2L60.75 36.45L61.05 36.45L61.35 36.45" />
</g>
</svg>
