<?xml version="1.0" encoding="utf-8"?>
<svg version="1.1" id="Layer_1"
xmlns="http://www.w3.org/2000/svg"
xmlns:xlink="http://www.w3.org/1999/xlink"
xmlns:author="http://www.sothink.com"
width="52px" height="88px"
xml:space="preserve">
<g id="132" transform="matrix(1, 0, 0, 1, 0, 0)">
<radialGradient
id="RadialGradID_1077" gradientUnits="userSpaceOnUse" gradientTransform="matrix(0.0751801, -0.0220032, 0.0220032, 0.0751801, 57.65, 31.3)" spreadMethod ="pad" cx="0" cy="0" r="819.2" fx="0" fy="0" >
<stop  offset="0"  style="stop-color:#D78875;stop-opacity:1" />
<stop  offset="0.847059"  style="stop-color:#FDD7B9;stop-opacity:1" />
</radialGradient>
<path style="fill:url(#RadialGradID_1077) " d="M8.65,39.25L0.5 23.6L0.35 22.3Q-2.2 -2.25 14.45 0.25Q25.2 3.85 36.15 16.75L39.9 30.95Q28.5 15.7 17.15 12.9L16.75 12.8L10.1 12.3L5.95 12.85Q4.15 13.8 3.25 17.25L4.8 16.45Q5.9 15.75 6.9 15.75L7.75 15.95L8.9 16.6L8.85 16.7Q8.1 18.05 7.9 19.05L7.65 21.05Q7.65 23.9 9.25 27.4Q10.9 30.9 12.95 32.4L11.95 29.55Q11.45 27.35 11.4 26.15L11.3 22.05Q13.45 20.3 15.05 20.3Q19.5 20.3 24.35 23.7Q29.65 27.45 29.65 31.85L29.6 32.85L29.55 32.95L29.25 32.7Q25.45 29.25 23.45 29.4Q21.15 29.55 19.95 32.75Q18.9 35.55 19.15 38.7Q19.35 41.95 22.4 47.05Q25.3 51.75 27.9 53L28.85 53.3L34.6 53.3L36.2 55.9Q37.25 57.6 37.25 58.4Q37.25 62.4 32.5 62.4Q28.85 62.4 25.95 60.05L21.9 56.1Q23.9 64.95 26.6 65.9Q29.6 66.95 32.25 66.75Q35.5 66.5 45.7 69.2L46.25 71.55Q47.1 75.6 47.1 77.15Q47.1 82.6 44.1 87L39.25 86.85Q28.65 88.95 22.4 69.15Q9.1 55.75 8.65 39.25" />
<radialGradient
id="RadialGradID_1078" gradientUnits="userSpaceOnUse" gradientTransform="matrix(0.0558472, -0.0147858, 0.0222473, 0.084137, 53.3, 43.7)" spreadMethod ="pad" cx="0" cy="0" r="819.2" fx="305" fy="0" >
<stop  offset="0"  style="stop-color:#B0462D;stop-opacity:1" />
<stop  offset="1"  style="stop-color:#FCC7A5;stop-opacity:1" />
</radialGradient>
<path style="fill:url(#RadialGradID_1078) " d="M16.75,13L16.85 13L17.15 12.9Q28.5 15.7 39.9 30.95L51.15 73.7Q51.5 85.7 44.1 87Q47.1 82.6 47.1 77.15Q47.1 75.6 46.25 71.55L45.7 69.2Q35.5 66.5 32.25 66.75Q29.6 66.95 26.6 65.9Q23.9 64.95 21.9 56.1L25.95 60.05Q28.85 62.4 32.5 62.4Q37.25 62.4 37.25 58.4Q37.25 57.6 36.2 55.9L34.6 53.3L28.85 53.3L27.9 53Q25.3 51.75 22.4 47.05Q19.35 41.95 19.15 38.7Q18.9 35.55 19.95 32.75Q21.15 29.55 23.45 29.4Q25.45 29.25 29.25 32.7L29.55 32.95L29.6 32.85L29.65 31.85Q29.65 27.45 24.35 23.7Q19.5 20.3 15.05 20.3Q13.45 20.3 11.3 22.05L11.4 26.15Q11.45 27.35 11.95 29.55L12.95 32.4Q10.9 30.9 9.25 27.4Q7.65 23.9 7.65 21.05L7.9 19.05Q8.1 18.05 8.85 16.7L8.9 16.6L7.75 15.95L6.9 15.75Q5.9 15.75 4.8 16.45L3.25 17.25Q4.15 13.8 5.95 12.85L10.1 12.3L16.75 12.8L16.75 13" />
<path style="fill:none;stroke-width:0.05;stroke-linecap:round;stroke-linejoin:round;stroke-miterlimit:3;stroke:#B76340;stroke-opacity:0.501961" d="M44.1,87Q51.5 85.7 51.15 73.7L39.9 30.95L36.15 16.75Q25.2 3.85 14.45 0.25Q-2.2 -2.25 0.35 22.3L0.5 23.6L8.65 39.25L9.2 40.4M44.1,87L39.25 86.85Q28.65 88.95 22.4 69.15Q9.1 55.75 8.65 39.25" />
</g>
</svg>
