<?xml version="1.0" encoding="utf-8"?>
<svg version="1.1" id="Layer_1"
xmlns="http://www.w3.org/2000/svg"
xmlns:xlink="http://www.w3.org/1999/xlink"
xmlns:author="http://www.sothink.com"
width="23px" height="32px"
xml:space="preserve">
<g id="138" transform="matrix(1, 0, 0, 1, 11.3, 15.2)">
<radialGradient
id="RadialGradID_1166" gradientUnits="userSpaceOnUse" gradientTransform="matrix(0.00526428, -3.05176e-005, 3.05176e-005, 0.00532532, 8.1, 3.6)" spreadMethod ="pad" cx="0" cy="0" r="819.2" fx="0" fy="0" >
<stop  offset="0"  style="stop-color:#FCA783;stop-opacity:1" />
<stop  offset="1"  style="stop-color:#FEDEC1;stop-opacity:1" />
</radialGradient>
<path style="fill:url(#RadialGradID_1166) " d="M9.2,7.45L9.1 7.15L9.15 6.75L9.35 5.95L9.6 5.05L9.65 3.6L9.75 3.65L10.1 4.3L10.05 4.7L10 5.05L9.9 5.2L10.1 5.4L10.25 5.3L10.25 5.05Q10.2 4.35 10.3 3.7L10.3 3.65L10.45 3.1L10.7 2.55L10.9 1.4L9.55 1.4L9.4 1.4L9.9 0.75Q10.1 0.5 10.3 0.5Q10.5 0.35 10.75 0.35Q11.25 0.45 11.3 1.05L11.3 1.55L11.15 2L10.85 2.75L10.75 3.65L10.6 4.6L10.55 5.05L10.25 6.3L10 6.75L9.55 7.3L9.25 7.5L9.2 7.45" />
<radialGradient
id="RadialGradID_1167" gradientUnits="userSpaceOnUse" gradientTransform="matrix(0.00332642, -1.52588e-005, 1.52588e-005, 0.00335693, 9.95, 2.7)" spreadMethod ="pad" cx="0" cy="0" r="819.2" fx="0" fy="0" >
<stop  offset="0"  style="stop-color:#EFA06D;stop-opacity:1" />
<stop  offset="1"  style="stop-color:#FCC7A5;stop-opacity:1" />
</radialGradient>
<path style="fill:url(#RadialGradID_1167) " d="M9.6,3.65L9.5 3.8L9.35 3.95L9.55 1.4L10.9 1.4L10.7 2.55L10.45 3.1L10.3 3.65L10.3 3.7Q10.2 4.35 10.25 5.05L10.25 5.3L10.1 5.4L9.9 5.2L10 5.05L10.05 4.7L10.1 4.3L9.75 3.65L9.65 3.6L9.6 3.65" />
<radialGradient
id="RadialGradID_1168" gradientUnits="userSpaceOnUse" gradientTransform="matrix(0.00440979, -1.52588e-005, 1.52588e-005, 0.00447083, 8.9, 7.15)" spreadMethod ="pad" cx="0" cy="0" r="819.2" fx="0" fy="0" >
<stop  offset="0"  style="stop-color:#EFA06D;stop-opacity:1" />
<stop  offset="1"  style="stop-color:#FCC7A5;stop-opacity:1" />
</radialGradient>
<path style="fill:url(#RadialGradID_1168) " d="M9.25,7.5L8.15 8L8.45 6.75L8.45 6.7L8.6 5.9L8.85 5.05L9.25 4.15L9.35 3.95L9.5 3.8L9.6 3.65L9.65 3.6L9.6 5.05L9.35 5.95L9.15 6.75L9.1 7.15L9.2 7.45L9.25 7.5" />
<radialGradient
id="RadialGradID_1169" gradientUnits="userSpaceOnUse" gradientTransform="matrix(0.00978088, -4.57764e-005, 4.57764e-005, 0.00987244, -8.15, 7.6)" spreadMethod ="pad" cx="0" cy="0" r="819.2" fx="0" fy="0" >
<stop  offset="0"  style="stop-color:#FCA783;stop-opacity:1" />
<stop  offset="1"  style="stop-color:#FEDEC1;stop-opacity:1" />
</radialGradient>
<path style="fill:url(#RadialGradID_1169) " d="M-10.3,1.05Q-10.65 0.65 -10.9 0.7Q-11.2 0.65 -11.15 0.95L-10.9 1.75L-10.5 2.55Q-10.3 3 -10.3 4.55Q-10.35 4.85 -10 5.05L-9.5 5.65L-9.25 6.1L-8.75 6.2L-8.6 7L-8.6 7.1L-8.45 7.9L-8.5 8Q-9.35 7.85 -10 6.7Q-10.7 5.55 -10.7 4.65Q-10.7 3.7 -11 2.7Q-11.35 1.6 -11.3 0.8Q-11.35 0.3 -11.1 0.1L-10.45 -0.05Q-10 0 -9.75 0.7L-9.35 2.65L-10.3 1.05" />
<radialGradient
id="RadialGradID_1170" gradientUnits="userSpaceOnUse" gradientTransform="matrix(0.00500488, -3.05176e-005, 3.05176e-005, 0.0050354, -7.9, 3.15)" spreadMethod ="pad" cx="0" cy="0" r="819.2" fx="0" fy="0" >
<stop  offset="0"  style="stop-color:#EFA06D;stop-opacity:1" />
<stop  offset="1"  style="stop-color:#FCC7A5;stop-opacity:1" />
</radialGradient>
<path style="fill:url(#RadialGradID_1170) " d="M-8.75,6.2L-9.25 6.1L-9.5 5.65L-10 5.05Q-10.35 4.85 -10.3 4.55Q-10.3 3 -10.5 2.55L-10.9 1.75L-11.15 0.95Q-11.2 0.65 -10.9 0.7Q-10.65 0.65 -10.3 1.05L-9.35 2.65L-9.15 4.25L-8.75 6.2" />
<path style="fill:none;stroke-width:0.05;stroke-linecap:round;stroke-linejoin:round;stroke-miterlimit:3;stroke:#B76340;stroke-opacity:0.501961" d="M9.4,1.4L9.9 0.75Q10.1 0.5 10.3 0.5Q10.5 0.35 10.75 0.35Q11.25 0.45 11.3 1.05L11.3 1.55L11.15 2L10.85 2.75L10.75 3.65L10.6 4.6L10.55 5.05L10.25 6.3L10 6.75L9.55 7.3L9.25 7.5L8.15 8M-9.35,2.65L-9.75 0.7Q-10 0 -10.45 -0.05L-11.1 0.1Q-11.35 0.3 -11.3 0.8Q-11.35 1.6 -11 2.7Q-10.7 3.7 -10.7 4.65Q-10.7 5.55 -10 6.7Q-9.35 7.85 -8.5 8L-8.45 7.9" />
<radialGradient
id="RadialGradID_1171" gradientUnits="userSpaceOnUse" gradientTransform="matrix(0.0112915, -6.10352e-005, 6.10352e-005, 0.0116119, 0.05, -12.75)" spreadMethod ="pad" cx="0" cy="0" r="819.2" fx="0" fy="0" >
<stop  offset="0"  style="stop-color:#EDB395;stop-opacity:1" />
<stop  offset="1"  style="stop-color:#FFD9B8;stop-opacity:1" />
</radialGradient>
<path style="fill:url(#RadialGradID_1171) " d="M-7.3,-3.85L-6.4 -4.5L-5.05 -5.25Q-4.45 -5.65 -4.45 -6.15L-4.8 -7.3L-5.15 -8.8Q-5.2 -9.75 -4.75 -10.6L-4.6 -10.9L-4.95 -12.2L-5.55 -13.7L-6.4 -13.5Q-3.9 -15.4 -0.05 -15.2Q4.1 -15.4 6.7 -13.15L7.05 -12.85L7 -12.8L6.55 -12.4Q5.25 -11.45 4.9 -11L4.6 -10.75L5.05 -9.05L5.45 -7.5L5.2 -6.1L5 -5.4Q4.95 -5 5.45 -4.45L6.15 -3.75L3.9 -3.05L0.3 -2.45L-4 -2.95L-7.3 -3.85" />
<radialGradient
id="RadialGradID_1172" gradientUnits="userSpaceOnUse" gradientTransform="matrix(0.0137787, 0.00241089, -0.006073, 0.0374756, -13.45, -3.75)" spreadMethod ="pad" cx="0" cy="0" r="819.2" fx="210534" fy="0" >
<stop  offset="0"  style="stop-color:#EDB395;stop-opacity:1" />
<stop  offset="1"  style="stop-color:#FFD9B8;stop-opacity:1" />
</radialGradient>
<path style="fill:url(#RadialGradID_1172) " d="M-5.55,-13.7L-4.95 -12.2L-4.6 -10.9L-4.75 -10.6Q-5.2 -9.75 -5.15 -8.8L-4.8 -7.3L-4.45 -6.15Q-4.45 -5.65 -5.05 -5.25L-6.4 -4.5L-7.3 -3.85L-7.7 -3.4Q-8.35 -2.55 -8.5 -0.9Q-8.7 0.7 -8.1 2.05L-7 4.45L-6.3 6.25L-6.5 6.05L-9.3 4.35L-9.75 1.75L-10.05 -0.4L-10.5 -2.85Q-10.75 -4.75 -10.4 -6.6L-10.15 -7.75Q-9.3 -11.1 -6.8 -13.15L-6.4 -13.5L-5.55 -13.7" />
<radialGradient
id="RadialGradID_1173" gradientUnits="userSpaceOnUse" gradientTransform="matrix(0.00875854, -0.00134277, 0.00378418, 0.0267181, 11.3, -3.55)" spreadMethod ="pad" cx="0" cy="0" r="819.2" fx="0" fy="0" >
<stop  offset="0"  style="stop-color:#EDB395;stop-opacity:1" />
<stop  offset="1"  style="stop-color:#FFD9B8;stop-opacity:1" />
</radialGradient>
<path style="fill:url(#RadialGradID_1173) " d="M8.85,3.8L9.15 2.65L9.25 2.35L7.9 4.35L6.7 6.1L6.85 4.75Q6.9 3.75 7.1 3.25L7.65 1.7L7.8 0.05Q7.8 -1.95 6.4 -3.5L6.15 -3.75L5.45 -4.45Q4.95 -5 5 -5.4L5.2 -6.1L5.45 -7.5L5.05 -9.05L4.6 -10.75L4.9 -11Q5.25 -11.45 6.55 -12.4L7 -12.8L7.05 -12.85Q9.7 -10.5 10.35 -6.6Q10.65 -4.75 10.45 -2.85L10 -0.4L9.65 1.75L9.55 2.6L8.85 3.8M3.95,14.65L3.85 14.75L3.9 14.65L3.95 14.65M2.4,15.6L2.4 15.7L1.9 15.8L1.75 15.8L2.4 15.6M-0.75,15.85L-1.95 15.8L-2.25 15.75L-2.25 15.65L-0.75 15.85" />
<radialGradient
id="RadialGradID_1174" gradientUnits="userSpaceOnUse" gradientTransform="matrix(0.0135651, -6.10352e-005, 6.10352e-005, 0.0139618, 0, -12.35)" spreadMethod ="pad" cx="0" cy="0" r="819.2" fx="0" fy="0" >
<stop  offset="0"  style="stop-color:#EDB395;stop-opacity:1" />
<stop  offset="1"  style="stop-color:#FFD9B8;stop-opacity:1" />
</radialGradient>
<path style="fill:url(#RadialGradID_1174) " d="M5.8,7.65Q5.1 8.85 4.7 11.15L3.35 13.4L2.8 14.2L1.9 14.7L0.35 14.95L-0.65 14.95Q-2.15 14.45 -3.3 12.85L-4.25 11.3L-4.3 11.2L-4.3 11.1L-5.35 7.95L-6.25 6.35L-6.3 6.25L-7 4.45L-8.1 2.05Q-8.7 0.7 -8.5 -0.9Q-8.35 -2.55 -7.7 -3.4L-7.3 -3.85L-4 -2.95L0.3 -2.45L3.9 -3.05L6.15 -3.75L6.4 -3.5Q7.8 -1.95 7.8 0.05L7.65 1.7L7.1 3.25Q6.9 3.75 6.85 4.75L6.7 6.1L5.8 7.65M-2.85,-1.5L-2.9 -1.5L-2.9 -1.45L-2.85 -1.5" />
<radialGradient
id="RadialGradID_1175" gradientUnits="userSpaceOnUse" gradientTransform="matrix(0.0059967, 0.00344849, -0.0131226, 0.0243073, 9.7, 9)" spreadMethod ="pad" cx="0" cy="0" r="819.2" fx="210319" fy="0" >
<stop  offset="0"  style="stop-color:#FBBD9D;stop-opacity:1" />
<stop  offset="1"  style="stop-color:#FEDEC1;stop-opacity:1" />
</radialGradient>
<path style="fill:url(#RadialGradID_1175) " d="M2.4,15.6L3.05 15.3L3.7 14.75L3.75 14.65L4.25 14.2L4.3 13.75L4.7 11.15Q5.1 8.85 5.8 7.65L6.7 6.1L7.9 4.35L9.25 2.35L9.15 2.65L8.85 3.8L9.55 2.6L8.75 6.85Q8.1 10.05 6.35 12L4.4 14.2L3.95 14.65L3.9 14.65L3.85 14.75L3.2 15.3L3.05 15.35L2.4 15.7L2.4 15.6" />
<radialGradient
id="RadialGradID_1176" gradientUnits="userSpaceOnUse" gradientTransform="matrix(0.024231, -0.00012207, 0.00012207, 0.0249329, 0.15, -4.5)" spreadMethod ="pad" cx="0" cy="0" r="819.2" fx="0" fy="0" >
<stop  offset="0"  style="stop-color:#FBBD9D;stop-opacity:1" />
<stop  offset="1"  style="stop-color:#FEDEC1;stop-opacity:1" />
</radialGradient>
<path style="fill:url(#RadialGradID_1176) " d="M-2.9,-1.45L-2.9 -1.5L-2.85 -1.5L-2.9 -1.45" />
<radialGradient
id="RadialGradID_1177" gradientUnits="userSpaceOnUse" gradientTransform="matrix(0.00631714, -0.00294495, 0.00643921, 0.0146484, -8.6, 11.4)" spreadMethod ="pad" cx="0" cy="0" r="819.2" fx="138" fy="0" >
<stop  offset="0"  style="stop-color:#FBBD9D;stop-opacity:1" />
<stop  offset="1"  style="stop-color:#FEDEC1;stop-opacity:1" />
</radialGradient>
<path style="fill:url(#RadialGradID_1177) " d="M-2.25,15.75L-3.25 15.3L-3.95 14.75L-4 14.65L-4.45 14.2L-6.45 12Q-8.2 10.05 -8.8 6.85L-9.3 4.35L-6.5 6.05L-6.3 6.25L-6.25 6.35L-5.35 7.95L-4.3 11.1L-4.3 11.2L-4.15 12.5L-4.1 13.5L-4.1 14.1L-3.6 14.75L-3.15 15.2Q-2.9 15.5 -2.25 15.65L-2.25 15.75" />
<radialGradient
id="RadialGradID_1178" gradientUnits="userSpaceOnUse" gradientTransform="matrix(0.0116882, -6.10352e-005, 6.10352e-005, 0.0120239, 0.5, 15.8)" spreadMethod ="pad" cx="0" cy="0" r="819.2" fx="210531" fy="0" >
<stop  offset="0"  style="stop-color:#FBBD9D;stop-opacity:1" />
<stop  offset="1"  style="stop-color:#FEDEC1;stop-opacity:1" />
</radialGradient>
<path style="fill:url(#RadialGradID_1178) " d="M1.75,15.8L1.05 15.85L0.45 15.85L-0.05 15.85L-0.15 15.85L-0.75 15.85L-2.25 15.65Q-2.9 15.5 -3.15 15.2L-3.6 14.75L-4.1 14.1L-4.1 13.5L-4.15 12.5L-4.3 11.2L-4.25 11.3L-3.3 12.85Q-2.15 14.45 -0.65 14.95L0.35 14.95L1.9 14.7L2.8 14.2L3.35 13.4L4.7 11.15L4.3 13.75L4.25 14.2L3.75 14.65L3.7 14.75L3.05 15.3L2.4 15.6L1.75 15.8" />
<path style="fill:none;stroke-width:0.05;stroke-linecap:round;stroke-linejoin:round;stroke-miterlimit:3;stroke:#B76340;stroke-opacity:0.501961" d="M-6.4,-13.5L-6.8 -13.15Q-9.3 -11.1 -10.15 -7.75L-10.4 -6.6Q-10.75 -4.75 -10.5 -2.85L-10.05 -0.4L-9.75 1.75L-9.3 4.35M-6.4,-13.5Q-3.9 -15.4 -0.05 -15.2Q4.1 -15.4 6.7 -13.15L7.05 -12.85Q9.7 -10.5 10.35 -6.6Q10.65 -4.75 10.45 -2.85L10 -0.4L9.65 1.75L9.55 2.6L8.75 6.85Q8.1 10.05 6.35 12L4.4 14.2L3.95 14.65L3.85 14.75L3.2 15.3L3.05 15.35L2.4 15.7L1.9 15.8L1.75 15.8L1.05 15.85L0.45 15.85L-0.05 15.85L-0.15 15.85L-0.75 15.85L-1.95 15.8L-2.25 15.75L-3.25 15.3L-3.95 14.75L-4 14.65L-4.45 14.2L-6.45 12Q-8.2 10.05 -8.8 6.85L-9.3 4.35M3.85,14.75L3.9 14.65L3.95 14.65" />
<radialGradient
id="RadialGradID_1179" gradientUnits="userSpaceOnUse" gradientTransform="matrix(0.0135956, -0.00114441, 0.00160217, 0.0202484, -12, -5.45)" spreadMethod ="pad" cx="0" cy="0" r="819.2" fx="0" fy="0" >
<stop  offset="0.0313725"  style="stop-color:#CF9479;stop-opacity:1" />
<stop  offset="1"  style="stop-color:#FFD1AD;stop-opacity:0" />
</radialGradient>
<path style="fill:url(#RadialGradID_1179) " d="M-6.95,1.05Q-7.3 1 -7.6 1.25L-7.65 1.3L-7.8 1.4L-8.25 1.9L-8.75 5.8L-8.85 6.7L-9.3 4.35L-9.75 1.75L-10.05 -0.4L-10.5 -2.85Q-10.75 -4.75 -10.4 -6.6L-10.15 -7.75Q-9.3 -11.1 -6.8 -13.15L-6.4 -13.5L-6.3 -13.55L-5.85 -4.6Q-5.85 -3.7 -6 -2.9Q-6.2 -2.15 -4.95 -1.1Q-5.2 -0.8 -0.65 -0.05L-1.25 0.6L-1.45 0.75L-2.15 1.3L-3.85 1.6L-6.1 1.25L-6.95 1.05" />
<radialGradient
id="RadialGradID_1180" gradientUnits="userSpaceOnUse" gradientTransform="matrix(0.0137482, 1.52588e-005, -3.05176e-005, 0.0216217, 12.35, -4.15)" spreadMethod ="pad" cx="0" cy="0" r="819.2" fx="0" fy="0" >
<stop  offset="0.0313725"  style="stop-color:#CF9479;stop-opacity:1" />
<stop  offset="1"  style="stop-color:#FFD1AD;stop-opacity:0" />
</radialGradient>
<path style="fill:url(#RadialGradID_1180) " d="M7.15,1.05L6.4 1.2L6.35 1.25L4.05 1.6L2.35 1.3L0.65 -0.25L4.2 -2.65Q6.15 -3.35 6.15 -5.05L4.9 -14.35Q5.85 -13.9 6.7 -13.15L7.05 -12.85Q9.7 -10.5 10.35 -6.6Q10.65 -4.75 10.45 -2.85L10 -0.4L9.65 1.75L9.55 2.6L9.4 3.55L9.15 4.3L8.95 3.65L8.95 3.5L7.85 1.3L7.4 1.05L7.15 1.05" />
<radialGradient
id="RadialGradID_1181" gradientUnits="userSpaceOnUse" gradientTransform="matrix(0.015274, 0.00112915, -0.00164795, 0.0240479, 10.75, -0.9)" spreadMethod ="pad" cx="0" cy="0" r="819.2" fx="0" fy="0" >
<stop  offset="0"  style="stop-color:#E8AB88;stop-opacity:1" />
<stop  offset="1"  style="stop-color:#FCCFAF;stop-opacity:0.823529" />
</radialGradient>
<path style="fill:url(#RadialGradID_1181) " d="M9.75,-9.8L9.75 -9.75L9.7 -9.75L9.75 -9.8" />
<radialGradient
id="RadialGradID_1182" gradientUnits="userSpaceOnUse" gradientTransform="matrix(0.0104218, 0.0039978, -0.0072937, 0.0201569, 11.65, 9.5)" spreadMethod ="pad" cx="0" cy="0" r="819.2" fx="0" fy="0" >
<stop  offset="0.27451"  style="stop-color:#DB987C;stop-opacity:1" />
<stop  offset="1"  style="stop-color:#FFDBBF;stop-opacity:0" />
</radialGradient>
<path style="fill:url(#RadialGradID_1182) " d="M2.6,15L3.6 14.2L3.6 14.05Q3.8 13 4.4 12.2L5.5 10.7L5.5 10.65L5.65 10.45L6.1 9.35L6.55 7.8L7.1 4.3L7.4 1.05L7.85 1.3L8.95 3.5L8.95 3.65L9.15 4.3L9.4 3.55L8.75 6.85Q8.25 9.3 7.05 11.05L6.35 12L4.95 13.55L4.4 14.2L3.15 15.4L3.05 15.5L2.95 15.4L2.6 15M7.95,4.2L7.95 4.25L8 4.3L8 4.25L7.95 4.2" />
<radialGradient
id="RadialGradID_1183" gradientUnits="userSpaceOnUse" gradientTransform="matrix(0.0140533, 0, 0, 0.0144653, 11.75, 11.65)" spreadMethod ="pad" cx="0" cy="0" r="819.2" fx="0" fy="0" >
<stop  offset="0"  style="stop-color:#DB987C;stop-opacity:1" />
<stop  offset="1"  style="stop-color:#FFDBBF;stop-opacity:0" />
</radialGradient>
<path style="fill:url(#RadialGradID_1183) " d="M2.55,14.4L2.7 13.95Q3.15 12.5 4.35 10.4Q6.4 6.7 6.4 1.9L6.35 1.25L6.4 1.2L7.15 1.05L7.4 1.05L7.1 4.3L6.55 7.8L6.1 9.35L5.65 10.45L5.5 10.65L5.5 10.7L4.4 12.2Q3.8 13 3.6 14.05L2.55 14.4" />
<radialGradient
id="RadialGradID_1184" gradientUnits="userSpaceOnUse" gradientTransform="matrix(0.00566101, 0, 0, 0.00868225, 9.15, -2.05)" spreadMethod ="pad" cx="0" cy="0" r="819.2" fx="0" fy="0" >
<stop  offset="0"  style="stop-color:#FBBD9D;stop-opacity:1" />
<stop  offset="1"  style="stop-color:#FEDEC1;stop-opacity:1" />
</radialGradient>
<path style="fill:url(#RadialGradID_1184) " d="M8,4.25L7.95 4.25L7.95 4.2L8 4.25" />
<radialGradient
id="RadialGradID_1185" gradientUnits="userSpaceOnUse" gradientTransform="matrix(0.0133209, 0, 0, 0.0137024, -12.2, 10.1)" spreadMethod ="pad" cx="0" cy="0" r="819.2" fx="0" fy="0" >
<stop  offset="0"  style="stop-color:#DB987C;stop-opacity:1" />
<stop  offset="1"  style="stop-color:#FFDBBF;stop-opacity:0" />
</radialGradient>
<path style="fill:url(#RadialGradID_1185) " d="M-3.65,13.9L-3.75 13.7L-4.45 12.2L-5.5 10.7L-6.4 8.4L-7.05 6.15L-6.95 6.2L-7.05 6.05L-7.65 1.3L-7.6 1.25Q-7.3 1 -6.95 1.05L-6.1 1.25L-6.15 2.45Q-6.2 7.2 -4.1 10.95Q-2.95 13.05 -2.45 14.45Q-3.25 14.2 -3.65 13.9" />
<radialGradient
id="RadialGradID_1186" gradientUnits="userSpaceOnUse" gradientTransform="matrix(0.00898743, -0.00395203, 0.00596619, 0.014389, -9.15, 10.1)" spreadMethod ="pad" cx="0" cy="0" r="819.2" fx="0" fy="0" >
<stop  offset="0"  style="stop-color:#F0A786;stop-opacity:1" />
<stop  offset="1"  style="stop-color:#FCCBAF;stop-opacity:0.8" />
</radialGradient>
<path style="fill:url(#RadialGradID_1186) " d="M-7.75,3.25L-7.75 3.3L-7.8 3.25L-7.75 3.25" />
<radialGradient
id="RadialGradID_1187" gradientUnits="userSpaceOnUse" gradientTransform="matrix(0.0110016, -0.00411987, 0.00845337, 0.0240326, -11.45, 11.8)" spreadMethod ="pad" cx="0" cy="0" r="819.2" fx="6" fy="0" >
<stop  offset="0.27451"  style="stop-color:#DB987C;stop-opacity:1" />
<stop  offset="1"  style="stop-color:#FFDBBF;stop-opacity:0" />
</radialGradient>
<path style="fill:url(#RadialGradID_1187) " d="M-2.1,15.75L-2.25 15.75L-3.2 15.35L-3.45 15.1L-4 14.7L-4 14.65L-4.45 14.2L-6.45 12L-7.85 9.8L-8.35 8.2L-8.85 6.8L-8.85 6.7L-8.75 5.8L-8.25 1.9L-7.8 1.4L-7.65 1.3L-7.05 6.05L-7.05 6.1L-7.05 6.15L-6.4 8.4L-5.5 10.7L-4.45 12.2L-3.75 13.7L-3.65 13.9L-3.6 14.2L-2.25 15.1L-1.85 15.3L-2.1 15.75M-7.8,3.25L-7.75 3.3L-7.75 3.25L-7.8 3.25" />
<radialGradient
id="RadialGradID_1188" gradientUnits="userSpaceOnUse" gradientTransform="matrix(0.0201569, -1.52588e-005, 0, 0.0272827, -12.4, 3.8)" spreadMethod ="pad" cx="0" cy="0" r="819.2" fx="0" fy="0" >
<stop  offset="0"  style="stop-color:#FBBD9D;stop-opacity:1" />
<stop  offset="1"  style="stop-color:#FEDEC1;stop-opacity:1" />
</radialGradient>
<path style="fill:url(#RadialGradID_1188) " d="M-7.05,6.15L-7.05 6.1L-7.05 6.05L-6.95 6.2L-7.05 6.15" />
<radialGradient
id="RadialGradID_1189" gradientUnits="userSpaceOnUse" gradientTransform="matrix(0.0070343, 0, 0, 0.00416565, -0.15, 17.8)" spreadMethod ="pad" cx="0" cy="0" r="819.2" fx="6" fy="0" >
<stop  offset="0.27451"  style="stop-color:#E69F82;stop-opacity:1" />
<stop  offset="1"  style="stop-color:#FFDBBF;stop-opacity:0" />
</radialGradient>
<path style="fill:url(#RadialGradID_1189) " d="M3.6,14.05L3.6 14.2L2.6 15L2.95 15.4L2.6 15.6L2.4 15.7L2.3 15.75L1.9 15.8L1.75 15.8L1.05 15.85L0.45 15.85L-0.05 15.85L-0.15 15.85L-0.75 15.85L-1.95 15.8L-2.1 15.75L-1.85 15.3L-2.25 15.1L-3.6 14.2L-3.65 13.9Q-3.25 14.2 -2.45 14.45L-2.4 14.5L0.15 14.9L2.35 14.45L2.55 14.4L3.6 14.05" />
<radialGradient
id="RadialGradID_1190" gradientUnits="userSpaceOnUse" gradientTransform="matrix(0.0252686, 0, 0, 0.0185242, -0.6, -15.7)" spreadMethod ="pad" cx="0" cy="0" r="819.2" fx="210531" fy="0" >
<stop  offset="0"  style="stop-color:#E8936D;stop-opacity:0.823529" />
<stop  offset="1"  style="stop-color:#FFDEC2;stop-opacity:0" />
</radialGradient>
<path style="fill:url(#RadialGradID_1190) " d="M-6.45,-13.5Q-3.9 -15.4 -0.05 -15.2Q4.1 -15.4 6.7 -13.2L7.05 -12.9Q9.7 -10.5 10.35 -6.6L10.45 -6.05Q9.15 -4.05 6.2 -3.15Q3.1 -2.2 -0.8 -2.25Q-4.8 -2.3 -7.65 -3.85Q-9.95 -5.1 -10.5 -6.35L-10.45 -6.6L-10.2 -7.8Q-9.3 -11.1 -6.85 -13.2L-6.45 -13.5" />
</g>
</svg>
