<svg width="24" height="32" xmlns="http://www.w3.org/2000/svg"><defs><linearGradient x2="819.2" x1="-819.2" gradientTransform="matrix(.00021 .00179 .0015 -.00017 81.275 32.35)" gradientUnits="userSpaceOnUse" id="a"><stop stop-color="#B0462D" offset="0"/><stop stop-color="#FCC7A5" offset="1"/></linearGradient><radialGradient fy="0" fx="210283" r="819.2" cy="0" cx="0" spreadMethod="pad" gradientTransform="matrix(-.00313 -.00056 -.00179 .00865 78.725 34.2)" gradientUnits="userSpaceOnUse" id="b"><stop stop-color="#B0462D" offset="0"/><stop stop-color="#FCC7A5" offset="1"/></radialGradient><radialGradient fy="0" fx="210299" r="819.2" cy="0" cx="0" spreadMethod="pad" gradientTransform="matrix(-.00314 -.00075 -.00197 .0078 78.975 34.95)" gradientUnits="userSpaceOnUse" id="c"><stop stop-color="#D78875" offset="0"/><stop stop-color="#FDD7B9" offset=".847"/></radialGradient><linearGradient x2="819.2" x1="-819.2" gradientTransform="matrix(-.00021 .00179 -.0015 -.00017 59.425 32.1)" gradientUnits="userSpaceOnUse" id="d"><stop stop-color="#B0462D" offset="0"/><stop stop-color="#FCC7A5" offset="1"/></linearGradient><radialGradient fy="0" fx="210299" r="819.2" cy="0" cx="0" spreadMethod="pad" gradientTransform="matrix(.00314 -.00075 .00197 .0078 61.675 34.95)" gradientUnits="userSpaceOnUse" id="e"><stop stop-color="#D78875" offset="0"/><stop stop-color="#FDD7B9" offset=".847"/></radialGradient><radialGradient fy="0" fx="210283" r="819.2" cy="0" cx="0" spreadMethod="pad" gradientTransform="matrix(.00313 -.00056 .00179 .00865 61.775 34.4)" gradientUnits="userSpaceOnUse" id="f"><stop stop-color="#B0462D" offset="0"/><stop stop-color="#FCC7A5" offset="1"/></radialGradient><radialGradient fy="0" fx="0" r="819.2" cy="0" cx="0" spreadMethod="pad" gradientTransform="matrix(.00769 -.00105 .0016 .00934 79.875 24.7)" gradientUnits="userSpaceOnUse" id="g"><stop stop-color="#FBBD9D" offset=".031"/><stop stop-color="#FEDEC1" offset="1"/></radialGradient><radialGradient fy="0" fx="0" r="819.2" cy="0" cx="0" spreadMethod="pad" gradientTransform="matrix(.00975 -.00151 .00203 .01343 81.725 24.95)" gradientUnits="userSpaceOnUse" id="h"><stop stop-color="#FBBD9D" offset=".031"/><stop stop-color="#FEDEC1" offset="1"/></radialGradient><radialGradient fy="0" fx="0" r="819.2" cy="0" cx="0" spreadMethod="pad" gradientTransform="matrix(.02493 0 0 .00981 69.925 15.8)" gradientUnits="userSpaceOnUse" id="i"><stop stop-color="#FBBD9D" offset=".031"/><stop stop-color="#FDD4B7" offset=".541"/></radialGradient><radialGradient fy="0" fx="0" r="819.2" cy="0" cx="0" spreadMethod="pad" gradientTransform="matrix(.01038 0 0 .00874 63.025 21.25)" gradientUnits="userSpaceOnUse" id="j"><stop stop-color="#FFF" stop-opacity=".502" offset="0"/><stop stop-color="#FFF" stop-opacity="0" offset="1"/></radialGradient><radialGradient fy="0" fx="0" r="819.2" cy="0" cx="0" spreadMethod="pad" gradientTransform="matrix(.01001 0 0 .01176 59.275 27)" gradientUnits="userSpaceOnUse" id="k"><stop stop-color="#FBBD9D" offset=".063"/><stop stop-color="#FEDEC1" offset="1"/></radialGradient><radialGradient fy="0" fx="0" r="819.2" cy="0" cx="0" spreadMethod="pad" gradientTransform="matrix(.00728 0 0 .00967 60.025 27.35)" gradientUnits="userSpaceOnUse" id="l"><stop stop-color="#FBBD9D" offset=".063"/><stop stop-color="#FEDEC1" offset="1"/></radialGradient><radialGradient fy="0" fx="210515" r="819.2" cy="0" cx="0" spreadMethod="pad" gradientTransform="matrix(.02469 0 0 .02432 69.475 32.1)" gradientUnits="userSpaceOnUse" id="m"><stop stop-color="#FBD3B5" offset="0"/><stop stop-color="#FBC9AB" offset="1"/></radialGradient><radialGradient fy="0" fx="0" r="819.2" cy="0" cx="0" spreadMethod="pad" gradientTransform="matrix(.00223 -.0017 .01134 .01529 65.075 46.05)" gradientUnits="userSpaceOnUse" id="n"><stop stop-color="#F7AF8D" offset=".016"/><stop stop-color="#FBBD9D" offset=".306"/><stop stop-color="#FBCDAF" offset="1"/></radialGradient><linearGradient x2="819.2" x1="-819.2" gradientTransform="matrix(.00595 0 0 .00224 70.675 38.45)" gradientUnits="userSpaceOnUse" id="o"><stop stop-color="#FBCCAE" offset="0"/><stop stop-color="#FBCAAB" offset=".173"/><stop stop-color="#FCD6B9" offset=".537"/><stop stop-color="#FBCCAD" offset=".851"/><stop stop-color="#FBCEB0" offset="1"/></linearGradient><radialGradient fy="0" fx="257" r="819.2" cy="0" cx="0" spreadMethod="pad" gradientTransform="matrix(.00427 .00229 -.00528 .0098 77.125 44.3)" gradientUnits="userSpaceOnUse" id="p"><stop stop-color="#F7AA87" offset="0"/><stop stop-color="#FBBD9D" offset=".314"/><stop stop-color="#FEDEC1" offset="1"/></radialGradient><linearGradient x2="819.2" x1="-819.2" gradientTransform="matrix(.0019 -.00137 .00182 .0025 64.775 42.3)" gradientUnits="userSpaceOnUse" id="q"><stop stop-color="#FBBD9D" offset="0"/><stop stop-color="#FCD6BA" offset=".992"/></linearGradient><linearGradient x2="819.2" x1="-819.2" gradientTransform="matrix(-.00291 -.0075 .00417 -.00151 63.275 44)" gradientUnits="userSpaceOnUse" id="r"><stop stop-color="#F7AF8D" offset=".016"/><stop stop-color="#FBCAAC" offset="1"/></linearGradient><radialGradient fy="0" fx="0" r="819.2" cy="0" cx="0" spreadMethod="pad" gradientTransform="matrix(.00223 -.0017 .01134 .01529 65.075 46.05)" gradientUnits="userSpaceOnUse" id="s"><stop stop-color="#F7AF8D" offset=".016"/><stop stop-color="#FBBD9D" offset=".306"/><stop stop-color="#FBCCAE" offset="1"/></radialGradient><radialGradient fy="0" fx="28" r="819.2" cy="0" cx="0" spreadMethod="pad" gradientTransform="matrix(.00616 0 0 .00253 71.225 45.75)" gradientUnits="userSpaceOnUse" id="t"><stop stop-color="#FBBD9D" offset=".18"/><stop stop-color="#FBD4B8" offset="1"/></radialGradient><linearGradient x2="819.2" x1="-819.2" gradientTransform="matrix(-.00224 -.00148 .00122 -.00172 77.425 41.75)" gradientUnits="userSpaceOnUse" id="u"><stop stop-color="#FBBD9D" offset="0"/><stop stop-color="#FDD3B5" offset=".651"/><stop stop-color="#FBCDAF" offset=".992"/></linearGradient><radialGradient fy="0" fx="0" r="819.2" cy="0" cx="0" spreadMethod="pad" gradientTransform="matrix(.00684 0 0 .00223 70.775 46)" gradientUnits="userSpaceOnUse" id="v"><stop stop-color="#F39872" offset=".016"/><stop stop-color="#F39872" stop-opacity="0" offset=".604"/></radialGradient><radialGradient fy="0" fx="0" r="819.2" cy="0" cx="0" spreadMethod="pad" gradientTransform="matrix(.01209 0 0 .0102 77.425 18.1)" gradientUnits="userSpaceOnUse" id="w"><stop stop-color="#FFF" stop-opacity=".161" offset="0"/><stop stop-color="#FFF" stop-opacity="0" offset="1"/></radialGradient></defs><path fill="none" d="M-1-1h582v402H-1z"/><g><path fill="url(#a)" d="M81.025 32.55q-.35.1-1 .7l-.5.4.05-.55 1.3-.9.5-.2q.55.05.1 2.35l-.15-.85-.05-.2-.25-.75" transform="translate(-58.35 -14.1)"/><path fill="url(#b)" d="M81.375 35.2l-.5 1.1-.4.25.85-1.35h.05m-2.2 3.2l.35-4.75.5-.4q.65-.6 1-.7l.25.75-.2-.05q-.3 0-.5.3v.15l.2.15.15.5-.25.55-.45.2h-.05l.25.15q.35 0 .55-.4l.1-.7.1.2.05.2v.3l-.2.25-.2.4-.45.35-.2-.1-.15-.15h-.05l-.05.1-.05.2.1.25.15.25-.25.55-.2.85.15.4.25.15q.45 0 .95-.65l.25-.4q-.15.75-.85 1.3l-.05.05q-.6.4-1.2-.25" transform="translate(-58.35 -14.1)"/><path fill="url(#c)" d="M81.325 35.2l-.85 1.35.4-.25.5-1.1h-.05m-1.65-3.05l.5-.55 1-.2q.6-.05.8.9.1 1.1-.3 2.5l-.35 2.2-.05.3-.25.4q-.5.65-.95.65l-.25-.15-.15-.4.2-.85.25-.55-.15-.25-.1-.25.05-.2.05-.1h.05l.15.15.2.1.45-.35.2-.4.2-.25v-.3l-.05-.2-.1-.2-.1.7q-.2.4-.55.4l-.25-.15h.05l.45-.2.25-.55-.15-.5-.2-.15v-.15q.2-.3.5-.3l.2.05.05.2.15.85q.45-2.3-.1-2.35l-.5.2-1.3.9.1-.95" transform="translate(-58.35 -14.1)"/><path fill="none" stroke-width=".05" stroke-linecap="round" stroke-linejoin="round" stroke-miterlimit="3" stroke="#00F" d="M22.025 24.55l.05-.05"/><path fill="none" stroke-width=".05" stroke-linecap="round" stroke-linejoin="round" stroke-miterlimit="3" stroke="#B76340" stroke-opacity=".502" d="M22.075 24.5q.7-.55.85-1.3l.05-.3.35-2.2q.4-1.4.3-2.5-.2-.95-.8-.9l-1 .2-.5.55-.1.95-.05.55-.35 4.75q.6.65 1.2.25"/><path fill="url(#d)" d="M60.675 33q-.65-.6-1-.7l-.25.75-.05.2-.15.85q-.45-2.3.1-2.35l.5.2 1.3.9.05.55-.5-.4" transform="translate(-58.35 -14.1)"/><path fill="url(#e)" d="M59.825 31.95l-.5-.2q-.55.05-.1 2.35l.15-.85.05-.2.25-.05q.25 0 .45.3v.15l-.2.15q-.15.2-.15.5l.25.55.45.2h.05l-.25.15q-.35 0-.55-.4l-.1-.7-.1.2-.05.2v.3l.2.25.2.4.45.35.2-.1.15-.15h.05l.05.1.05.2-.1.25-.1.25.2.55.2.85-.15.4-.25.15-.95-.65-.25-.4-.05-.3-.35-2.2q-.35-1.4-.3-2.5.2-.95.8-.9l1 .2.5.55.1.95-1.3-.9m-.5 3q.2.75.5 1.1l.4.25-.85-1.35h-.05" transform="translate(-58.35 -14.1)"/><path fill="url(#f)" d="M61.175 33.4l.35 4.75q-.6.65-1.2.25l-.05-.05q-.7-.55-.85-1.3l.25.4.95.65.25-.15.15-.4-.2-.85-.2-.55.1-.25.1-.25-.05-.2-.05-.1h-.05l-.15.15-.2.1-.45-.35-.2-.4-.2-.25v-.3l.05-.2.1-.2.1.7q.2.4.55.4l.25-.15h-.05l-.45-.2-.25-.55q0-.3.15-.5l.2-.15v-.15q-.2-.3-.45-.3l-.25.05.25-.75q.35.1 1 .7l.5.4m-1.8 1.55l.85 1.35-.4-.25q-.3-.35-.5-1.1h.05" transform="translate(-58.35 -14.1)"/><path fill="none" stroke-width=".05" stroke-linecap="round" stroke-linejoin="round" stroke-miterlimit="3" stroke="#00F" d="M1.975 24.3l-.05-.05"/><path fill="none" stroke-width=".05" stroke-linecap="round" stroke-linejoin="round" stroke-miterlimit="3" stroke="#B76340" stroke-opacity=".502" d="M1.925 24.25q-.7-.55-.85-1.3l-.05-.3-.35-2.2q-.35-1.4-.3-2.5.2-.95.8-.9l1 .2.5.55.1.95.05.55.35 4.75q-.6.65-1.2.25"/><path fill="url(#g)" d="M80.075 19.05q1.45 1.8 1.55 3.65v.2l-.05.2h-3.25l.05-.2h-.05v-.75l.05-.15.05-.25.1-.3h.05l.05.05.5-1.2v-.05l.35-.5.3-.35.05-.1.1-.15q.05-.1.15-.1" transform="translate(-58.35 -14.1)"/><path fill="url(#h)" d="M79.725 34l-.1-.15-1.35-2.45-1.2-1.95-.45-.8q.05-.5.45-1.1l.55-.8q.95-1.2.85-1.95v-.25l-.15-1.45h3.3v.15l-.05-.15v.9l-.05.2q-.7 4.9-1.75 9v.95l-.05-.15" transform="translate(-58.35 -14.1)"/><path fill="url(#i)" d="M79.925 19.15l-.1.15-.05.1-.3.35-.35.5v.05l-.5 1.2-.05-.05h-.05l-.1.3-.05.25-.05.15v.75h.05l-.05.2.15 1.45v.25q.1.75-.85 1.95l-.55.8q-.4.6-.45 1.1l-.35-.55.1-.25-1.1.25-1.5.4-4.05.15.4 1-.55-1h-.05l-1.75-.1-1.6-.15-1.65-.2-.05-.1-.5-1.05-.8-2.5-.15-.9-.05-.1-.05-.45v-.2l-.05-.25-.05-.2-.05-.2-.1-.7-.1.05-.3-.6q-.65-.95-1.8-1.6l.4-.7.65-.75.75-.7.55-.5q3.15-2.55 7.5-2.55 4.45 0 7.65 2.7l.4.35 1.7 1.8q-.1 0-.15.1m-13.3-4.25l.05.05v-.05h-.05" transform="translate(-58.35 -14.1)"/><path fill="url(#j)" d="M66.675 14.9v.05l-.05-.05h.05" transform="translate(-58.35 -14.1)"/><path fill="url(#k)" d="M64.675 28.55q-.05.85-.85 1.85-.45.8-.95 2.7l-.1.35-.75-.35-.5-.4-1.05-.95-.1-.45-.3-1.6v-.05l-.15-.5-.4-1.85-.55-2.4v-.65l.05-.65v-.05l.05-.3V22.8l.15-.8q.3-1.15.95-2.25l.25-.35h.05q1.15.65 1.8 1.6l.3.6.1-.05.1.7.05.2.05.2.05.25v.2h-.45l.55.55.15.9.8 2.5.5 1.05.05.1.15.35" transform="translate(-58.35 -14.1)"/><path fill="url(#l)" d="M62.975 23.55l.05.1-.55-.55h.45l.05.45" transform="translate(-58.35 -14.1)"/><path fill="url(#m)" d="M64.525 28.2l1.65.2 1.6.15 1.75.1h.05l.55 1-.4-1 4.05-.15 1.5-.4 1.1-.25-.1.25.35.55.45.8 1.2 1.95 1.35 2.45.1.15.05.15-.15 1.9-.3.6-.55 1.1-.5.75v.1l-.6 1-.15-.05q-.35 0-1.15.75-.1 0-.25.15l-.3.35q-.7.8-.7 1.45 0 .4.15.55l.05.1-.2.25-.65.8h-.05l-.2-.05-.95-.25-1.55-.2H70.425l-1.05.2-1.4.2-.5-.1-.1-.05-.15-.4v-.1l-.6-1.05v-.05q-.75-1.05.3-.25-1.35-1.95-1.95-2.2l-.1-.05-.5-.2-.2-.1-1.1-1.6-.35-.65h-.05l-.25-.45-.15-.3-.05-.15-.2-.55-.2-.4-.45-.85-.4-.5-.2-.2-.1-.2-.05-.35-.15-1.35 1.05.95.5.4.75.35.1-.35q.5-1.9.95-2.7.8-1 .85-1.85l-.15-.35m7.05 8.85l-1.45.35q-.75 0-1.55-.5l-.8-.3-.55.1v.05l-.3.3-.15.2-.15.2-.2.25q-.55.75-.55 1.35l.1.35.25.25.3.2.7.3.95-.2 1.2-.1 1.2-.15 1.15-.15 1.95.35 1.05.4.4-.3.3-.4q0-.95-.85-1.85-.9-.85-1.7-.85l-1.3.15" transform="translate(-58.35 -14.1)"/><path fill="url(#n)" d="M63.275 38.65l-.45.15-.25.25-.15-.25-.2-.5-.25-.35-.05-.05q-.25-.3-.75-.45v-.3l-.4-2.85v-.15l-.1-.7.1.2.2.2.4.5.45.85.2.4.2.55.05.15.15.3.25.45h.05l.35.65 1.1 1.6-.9-.65" transform="translate(-58.35 -14.1)"/><path fill="url(#o)" d="M72.875 36.9q.8 0 1.7.85.85.9.85 1.85l-.3.4-.4.3-1.05-.4-1.95-.35-1.15.15-1.2.15-1.2.1-.95.2-.7-.3-.3-.2-.25-.25-.1-.35q0-.6.55-1.35l.2-.25.15-.2.15-.2.3-.3v-.05l.55-.1.8.3q.8.5 1.55.5l1.45-.35 1.3-.15" transform="translate(-58.35 -14.1)"/><path fill="url(#p)" d="M74.475 43.95l.65-.8.2-.25.25.05h.05q.8 0 1.75-1l.3-.25q.6-.8.6-1.55v-.25l-.25-.15h-.5l.15-.15.6-1v-.1l.5-.75.55-1.1.3-.6-.1 1.3v.1l-.1.9v.1l-.9 3.3-1 1.7-1.6 1.2-.65.35-1.8.3.25-.5.35-.5q.3-.2.35-.25l.05-.1" transform="translate(-58.35 -14.1)"/><path fill="url(#q)" d="M67.225 43.6v.15l-.65-.25-1.15-.45-.7-.3-.7-.55-.35-.8-1.1-2.35.25-.25.45-.15.9.65.2.1.5.2.1.05q.6.25 1.95 2.2-1.05-.8-.3.25v.05l.6 1.05v.1l.15.4-.15-.1" transform="translate(-58.35 -14.1)"/><path fill="url(#r)" d="M63.675 41.4l.35.8.7 2.3-.25-.1-1.05-.75-.9-.95q-.45-.55-.65-1.75l-.35-1.55-.25-1.05-.1-.9q.5.15.75.45l.05.05.25.35.2.5.15.25 1.1 2.35" transform="translate(-58.35 -14.1)"/><path fill="url(#s)" d="M67.225 43.85l-.15.65.3.65v.05l-2.65-.7-.7-2.3.7.55.7.3 1.15.45.65.25v.1" transform="translate(-58.35 -14.1)"/><path fill="url(#t)" d="M74.425 44.05q-.05.05-.35.25l-.35.5-.25.5h-.15l-3.2.1h-.85l-1.9-.2v-.05l-.3-.65.15-.65v-.25l.15.1.1.05.5.1 1.4-.2 1.05-.2H71.725l1.55.2.95.25.2.05v.1" transform="translate(-58.35 -14.1)"/><path fill="url(#u)" d="M75.325 42.9l-.05-.1q-.15-.15-.15-.55 0-.65.7-1.45l.3-.35q.15-.15.25-.15.8-.75 1.15-.75l.15.05-.15.15h.5l.25.15v.25q0 .75-.6 1.55l-.3.25q-.95 1-1.75 1h-.05l-.25-.05" transform="translate(-58.35 -14.1)"/><path fill="none" stroke-width=".05" stroke-linecap="round" stroke-linejoin="round" stroke-miterlimit="3" stroke="#B76340" stroke-opacity=".502" d="M21.425 19.1v.95l-.15 1.9-.1 1.3v.1l-.1.9v.1l-.9 3.3-1 1.7-1.6 1.2-.65.35-1.8.3h-.15l-3.2.1h-.85l-1.9-.2-2.65-.7-.25-.1-1.05-.75-.9-.95q-.45-.55-.65-1.75l-.35-1.55-.25-1.05-.1-.9m0-.3l-.4-2.85v-.15l-.1-.7-.05-.35-.15-1.35-.1-.45-.3-1.6v-.05"/><path fill="none" stroke-width=".25" stroke-linecap="round" stroke-linejoin="round" stroke-miterlimit="3" stroke="#B76340" stroke-opacity=".502" d="M23.275 9v.15l-.05-.15v.9l-.05.2q-.7 4.9-1.75 9m-19.7-3.55l-.15-.5-.4-1.85-.55-2.4v-.65l.05-.65v-.05l.05-.3V8.7l.15-.8q.3-1.15.95-2.25l.25-.35h.05l.4-.7.65-.75.75-.7.55-.5Q7.625.1 11.975.1q4.45 0 7.65 2.7l.4.35 1.7 1.8q1.45 1.8 1.55 3.65v.2l-.05.2"/><path fill="url(#v)" d="M68.325 44.4l.55-.1 2.1-.05 1.15-.1 2.1.25q.9.25 1.2.6l-2 .3h-.25l-3.15.15h-.95l-.3-.4-.45-.65" transform="translate(-58.35 -14.1)"/><path fill="url(#w)" d="M70.175 18.4q0-2 .9-3.2h.1q6.1 1.45 7.1 2.4 2.2 2.2 2.2 4.3 0 3.35-6.6 3.35l-1.85-.25q-.65-.4-1.25-1.95-.65-1.65-.55-2.6l-.05-2.05" transform="translate(-58.35 -14.1)"/></g></svg>