<?xml version="1.0" encoding="utf-8"?>
<svg version="1.1" id="Layer_1"
xmlns="http://www.w3.org/2000/svg"
xmlns:xlink="http://www.w3.org/1999/xlink"
xmlns:author="http://www.sothink.com"
width="21px" height="31px"
xml:space="preserve">
<g id="145" transform="matrix(1, 0, 0, 1, 10.1, 15.15)">
<path style="fill:#FEDEC1;fill-opacity:1" d="M8.2,7Q7.75 9.05 6.65 10.6L2.8 14.45Q2.25 14.9 1.7 15L0.45 15.15L-1.45 15Q-2.05 14.9 -2.55 14.45Q-5.25 12.2 -6.4 10.6L-7.35 9.05L-7.3 9L-8 6.95L-8.05 6.7L-8.5 4.45L-9 2.05L-9.25 1.05L-9.55 -0.6L-9.7 -1.8L-9.95 -3.7Q-10.15 -5.15 -9.95 -7.2Q-9.75 -9.3 -8.05 -11.3L-7.95 -11.45Q-4.4 -15.3 0.3 -15.15Q5.7 -15.1 8.85 -10.45Q9.9 -8.85 10.05 -7.2L10.1 -3.7L9.85 -1.8L9.65 -0.6L9.35 1.05L9.15 2.05L8.65 4.45L8.65 4.6L8.4 5.9L8.25 6.7L8.2 6.8L8.15 6.95L8.2 7" />
<path style="fill:none;stroke-width:0.05;stroke-linecap:round;stroke-linejoin:round;stroke-miterlimit:3;stroke:#B76340;stroke-opacity:0.501961" d="M8.2,6.8L8.2 7Q7.75 9.05 6.65 10.6L2.8 14.45Q2.25 14.9 1.7 15L0.45 15.15L-1.45 15Q-2.05 14.9 -2.55 14.45Q-5.25 12.2 -6.4 10.6L-7.35 9.05L-8 6.95L-8.05 6.7L-8.5 4.45L-9 2.05L-9.25 1.05L-9.55 -0.6L-9.7 -1.8L-9.95 -3.7Q-10.15 -5.15 -9.95 -7.2Q-9.75 -9.3 -8.05 -11.3L-7.95 -11.45Q-4.4 -15.3 0.3 -15.15Q5.7 -15.1 8.85 -10.45Q9.9 -8.85 10.05 -7.2L10.1 -3.7L9.85 -1.8L9.65 -0.6L9.35 1.05L9.15 2.05L8.65 4.45L8.65 4.6L8.4 5.9L8.2 6.7L8.2 6.8z" />
<radialGradient
id="RadialGradID_1354" gradientUnits="userSpaceOnUse" gradientTransform="matrix(0.0199432, 0, 6.10352e-005, 0.0106506, -0.4, -13.9)" spreadMethod ="pad" cx="0" cy="0" r="819.2" fx="0" fy="0" >
<stop  offset="0"  style="stop-color:#E8936D;stop-opacity:0.823529" />
<stop  offset="1"  style="stop-color:#FFDEC2;stop-opacity:0" />
</radialGradient>
<path style="fill:url(#RadialGradID_1354) " d="M5.9,-4.2Q2.95 -3.4 -0.75 -3.45Q-4.5 -3.5 -7.25 -4.8Q-9.5 -5.9 -10 -7L-10 -7.2Q-9.8 -9.3 -8.1 -11.3Q-6.45 -13.3 -4.7 -14.15Q-2.95 -14.95 -2.25 -15L-0.3 -15.1L0.2 -15.1L2.2 -15Q2.85 -14.95 4.75 -14.1Q6 -13.55 7.15 -12.5L7.95 -11.65L8.25 -11.3L8.65 -10.75Q9.8 -9 9.9 -6.75Q8.75 -5 5.9 -4.2" />
<radialGradient
id="RadialGradID_1355" gradientUnits="userSpaceOnUse" gradientTransform="matrix(-0.0104523, -0.00291443, -0.00312805, 0.0096283, 8.1, -4.45)" spreadMethod ="pad" cx="0" cy="0" r="819.2" fx="0" fy="0" >
<stop  offset="0"  style="stop-color:#FDCEAF;stop-opacity:1" />
<stop  offset="1"  style="stop-color:#FFDEC2;stop-opacity:0" />
</radialGradient>
<path style="fill:url(#RadialGradID_1355) " d="M8.2,-10.1L8.25 -9.65Q8.15 -10 8.1 -8.75L7.8 -6.8L6.3 -4.25Q5.15 -2.45 2.1 -2.25Q1.4 -3.05 1.1 -4.1L0.95 -4.95Q0.8 -6.25 1.2 -7.3L2 -8.7L2.7 -9.45L3.1 -9.75L3.55 -10L3.55 -10.05L3.8 -10.15L4.25 -10.3L4.65 -10.45L5.45 -10.55Q7.25 -10.8 8.2 -10.1" />
<radialGradient
id="RadialGradID_1356" gradientUnits="userSpaceOnUse" gradientTransform="matrix(0.0104218, -0.00291443, 0.0032196, 0.0096283, -8.15, -4.65)" spreadMethod ="pad" cx="0" cy="0" r="819.2" fx="0" fy="0" >
<stop  offset="0"  style="stop-color:#FDCEAF;stop-opacity:1" />
<stop  offset="1"  style="stop-color:#FFDEC2;stop-opacity:0" />
</radialGradient>
<path style="fill:url(#RadialGradID_1356) " d="M-4,-10.05L-4 -10L-3.55 -9.75L-3.15 -9.45L-2.45 -8.7L-1.65 -7.3Q-1.2 -6.25 -1.4 -4.95L-1.55 -4.1Q-1.85 -3.05 -2.5 -2.25Q-5.6 -2.45 -6.75 -4.25L-8.25 -6.8Q-8.55 -7.5 -8.55 -8.75L-8.6 -9.75L-8.55 -10.15Q-7.7 -10.8 -5.9 -10.55L-5.1 -10.45L-4.7 -10.3L-4.25 -10.15L-4 -10.05" />
<radialGradient
id="RadialGradID_1357" gradientUnits="userSpaceOnUse" gradientTransform="matrix(0.00944519, 0.00106812, -0.00102234, 0.00933838, 7.55, 9)" spreadMethod ="pad" cx="0" cy="0" r="819.2" fx="0" fy="0" >
<stop  offset="0"  style="stop-color:#FBBD9D;stop-opacity:1" />
<stop  offset="1"  style="stop-color:#FFDEC2;stop-opacity:0" />
</radialGradient>
<path style="fill:url(#RadialGradID_1357) " d="M8.35,2.9L8.65 3.05L8.85 3.25L8.95 3.3L8.65 4.85L8.7 4.85L8.55 5.8L8.05 7.65L7.9 8.15L7.45 9.1L7.4 9.2L6.5 10.5L5.9 11.1L5.8 11.2L4.5 12.55L4.3 12.7L4.25 12.8L3.4 13.55L3.2 13.55L2.95 13.35L2.75 13.15L2.65 12.7Q2.55 12.3 1.9 12L1.15 11.7L0.5 10.35L0.4 9.95Q0.1 8.85 0.25 7.6Q0.25 7.1 0.4 6.65Q0.85 4.8 2.3 3.55Q4.05 2 6.35 2.25L7.2 2.4L7.65 2.55L8.05 2.75L8.3 2.9L8.35 2.9" />
<radialGradient
id="RadialGradID_1358" gradientUnits="userSpaceOnUse" gradientTransform="matrix(0.00906372, -0.00274658, 0.00280762, 0.00907898, -7, 9.2)" spreadMethod ="pad" cx="0" cy="0" r="819.2" fx="0" fy="0" >
<stop  offset="0"  style="stop-color:#FBBD9D;stop-opacity:1" />
<stop  offset="1"  style="stop-color:#FFDEC2;stop-opacity:0" />
</radialGradient>
<path style="fill:url(#RadialGradID_1358) " d="M-3.85,2.85L-3.35 3.05L-3.1 3.15L-3.1 3.2L-2.55 3.5L-2.1 3.85L-1.35 4.75Q-0.8 5.5 -0.5 6.35Q-0.05 7.6 -0.25 9.1L-0.35 9.95L-0.4 10.1L-1.1 11.8L-1.65 12Q-2.4 12.35 -2.4 12.85L-2.3 13.15Q-2.35 13.8 -2.6 13.75L-2.95 13.7L-3.05 13.65L-3.8 13L-4.45 12.4L-4.7 12.15L-5.15 11.75L-5.7 11.2L-6.8 9.95L-7.3 9.2L-7.95 7.55L-8.25 6.5L-8.2 6.5L-8.25 6.35L-8.25 6.3L-8.3 6.1L-8.8 3.6Q-7.2 2.3 -5.1 2.55L-4.25 2.7L-3.85 2.85" />
<radialGradient
id="RadialGradID_1359" gradientUnits="userSpaceOnUse" gradientTransform="matrix(0.0184021, 0, 9.15527e-005, 0.0184021, 12, -2.75)" spreadMethod ="pad" cx="0" cy="0" r="819.2" fx="0" fy="0" >
<stop  offset="0"  style="stop-color:#FBBD9D;stop-opacity:1" />
<stop  offset="1"  style="stop-color:#FFDEC2;stop-opacity:0" />
</radialGradient>
<path style="fill:url(#RadialGradID_1359) " d="M8.65,3.95L6.55 4.7L6.85 4.15L6.95 4L7.95 2.65L8 2.65L7.95 2.6Q8.45 2.1 8.1 1.2Q7.5 0.9 6.2 1.6L4.4 2.25L2.7 1.8Q1.5 1.3 1.1 0.8L0.95 0.6L0.55 0.15L-0.05 0.15L-0.05 0.1L-0.05 -1.4L0.15 -1.4L5.05 -2.95Q7.75 -5.05 8.65 -10.65L9.75 -8.45L9.9 -7.95L9.95 -7.45Q10.25 -5.2 10.05 -3.85L9.8 -2.15L9.55 -0.4L9.5 -0.25L9.1 2.35L8.85 3.85L8.65 3.95" />
<radialGradient
id="RadialGradID_1360" gradientUnits="userSpaceOnUse" gradientTransform="matrix(0.0119019, 0, 6.10352e-005, 0.0119019, 7.8, 1.55)" spreadMethod ="pad" cx="0" cy="0" r="819.2" fx="0" fy="0" >
<stop  offset="0"  style="stop-color:#FABD9D;stop-opacity:0.2" />
<stop  offset="1"  style="stop-color:#FFDEC2;stop-opacity:0" />
</radialGradient>
<path style="fill:url(#RadialGradID_1360) " d="M0.95,0.6L1.1 0.8Q1.5 1.3 2.7 1.8L4.4 2.25L6.2 1.6Q7.5 0.9 8.1 1.2Q8.45 2.1 7.95 2.6L7.95 2.65L6.95 4L6.85 4.15L6.55 4.7L6.3 5.35L5.8 6.55Q5.1 8.3 4.25 8.95Q3.4 9.55 3.3 10.15Q2.05 4.2 0.95 0.6" />
<radialGradient
id="RadialGradID_1361" gradientUnits="userSpaceOnUse" gradientTransform="matrix(0.00566101, 0, 4.57764e-005, 0.00842285, 9.15, -3.45)" spreadMethod ="pad" cx="0" cy="0" r="819.2" fx="0" fy="0" >
<stop  offset="0"  style="stop-color:#FBBD9D;stop-opacity:1" />
<stop  offset="1"  style="stop-color:#FEDEC1;stop-opacity:1" />
</radialGradient>
<path style="fill:url(#RadialGradID_1361) " d="M7.95,2.6L8 2.65L7.95 2.65L7.95 2.6" />
<radialGradient
id="RadialGradID_1362" gradientUnits="userSpaceOnUse" gradientTransform="matrix(0.0100861, 0.00790405, -0.0120544, 0.0154266, 11.15, 10.6)" spreadMethod ="pad" cx="0" cy="0" r="819.2" fx="0" fy="0" >
<stop  offset="0"  style="stop-color:#FBBD9D;stop-opacity:1" />
<stop  offset="1"  style="stop-color:#FFDEC2;stop-opacity:0" />
</radialGradient>
<path style="fill:url(#RadialGradID_1362) " d="M3.15,13.8L2.95 13.95L3 13.85L3.05 13.75L3.15 13.6L2.6 13.1L2.55 13.05L2.65 12.95Q3.25 12.2 3.25 11.2L3.3 10.25L3.3 10.15Q3.4 9.55 4.25 8.95Q5.1 8.3 5.8 6.55L6.3 5.35L6.55 4.7L8.65 3.95L8.85 3.85L8.9 3.8L8.4 6.1L8.25 6.7L8.2 7L8 7.6L7.45 9.1L7.4 9.2L7.45 9.25L6.65 10.6L3.15 14.15L3.15 13.8" />
<radialGradient
id="RadialGradID_1363" gradientUnits="userSpaceOnUse" gradientTransform="matrix(0.00881958, 0, 3.05176e-005, 0.00497437, 0.25, 16.2)" spreadMethod ="pad" cx="0" cy="0" r="819.2" fx="0" fy="0" >
<stop  offset="0"  style="stop-color:#FBBD9D;stop-opacity:1" />
<stop  offset="1"  style="stop-color:#FFDEC2;stop-opacity:0" />
</radialGradient>
<path style="fill:url(#RadialGradID_1363) " d="M-2.5,14.15L-2.2 14.35L-1.85 13.6L-1.65 13.7L0.15 14.05L1.9 13.7L2.6 13.1L3.15 13.6L3.05 13.75L3 13.85L2.95 13.95L3.15 13.8L3.15 14.15L2.8 14.45Q2.25 14.9 1.7 15L0.45 15.15L-1.45 15Q-1.95 14.9 -2.35 14.6L-2.5 14.15" />
<radialGradient
id="RadialGradID_1364" gradientUnits="userSpaceOnUse" gradientTransform="matrix(0.0187531, 0, 9.15527e-005, 0.0192413, -12.45, -1.65)" spreadMethod ="pad" cx="0" cy="0" r="819.2" fx="0" fy="0" >
<stop  offset="0"  style="stop-color:#FBBD9D;stop-opacity:1" />
<stop  offset="1"  style="stop-color:#FFDEC2;stop-opacity:0" />
</radialGradient>
<path style="fill:url(#RadialGradID_1364) " d="M-8.65,4.2L-9.1 2.35L-9.1 2.3L-9.15 1.65L-9.45 -0.4L-9.5 -0.7L-9.75 -2.05L-10 -3.8Q-10.2 -5.15 -10 -7.2Q-9.85 -8.8 -8.8 -10.35L-8.8 -10.3Q-7.75 -4.75 -6.2 -3.9Q-4.85 -2.8 -2.45 -1.8L-1.8 -1.7L-0.05 -1.4L-0.05 0.1Q-0.2 0 -0.15 0.15L-0.45 0.2L-0.7 0.25L-2.2 1.7Q-3.45 2.5 -5.65 2Q-7.25 1.1 -7.7 1.8L-7.75 1.75L-7.75 1.85L-7.8 1.9L-7.8 2.35L-7.8 2.55L-7.8 2.8L-7.75 3.2L-7.1 4.25L-7.15 4.3L-7.1 4.35L-6.9 4.55L-6.7 4.85L-8.65 4.2" />
<radialGradient
id="RadialGradID_1365" gradientUnits="userSpaceOnUse" gradientTransform="matrix(0.0112915, 0, 6.10352e-005, 0.0112915, -7.15, 2.2)" spreadMethod ="pad" cx="0" cy="0" r="819.2" fx="0" fy="0" >
<stop  offset="0"  style="stop-color:#FABD9D;stop-opacity:0.2" />
<stop  offset="1"  style="stop-color:#FFDEC2;stop-opacity:0" />
</radialGradient>
<path style="fill:url(#RadialGradID_1365) " d="M-0.75,1.15L-1.35 3L-2 6.05L-2.4 8.35L-2.9 10.35Q-3.1 9.7 -3.45 9.25L-3.65 9L-4.65 8.15L-5.85 6.4L-6.5 5.25L-6.55 5.1L-6.7 4.85L-6.9 4.55L-7.1 4.25L-7.75 3.2L-7.8 2.8L-7.8 2.55L-7.8 2.35L-7.8 1.9L-7.75 1.85L-7.75 1.75L-7.7 1.8Q-7.25 1.1 -5.65 2Q-3.45 2.5 -2.2 1.7L-0.7 0.25L-0.45 0.2L-0.75 1.15" />
<radialGradient
id="RadialGradID_1366" gradientUnits="userSpaceOnUse" gradientTransform="matrix(0.00920105, -0.00744629, 0.012558, 0.0155029, -10.7, 10.8)" spreadMethod ="pad" cx="0" cy="0" r="819.2" fx="210534" fy="0" >
<stop  offset="0.0823529"  style="stop-color:#FBBD9D;stop-opacity:1" />
<stop  offset="1"  style="stop-color:#FFDEC2;stop-opacity:0" />
</radialGradient>
<path style="fill:url(#RadialGradID_1366) " d="M-2.35,14.6L-2.55 14.45Q-5.25 12.2 -6.4 10.6L-7 9.65L-7.3 9.2L-7.35 9.05L-7.35 9L-7.4 8.95L-7.95 7.55L-8 7.35L-8.15 6.75L-8.3 6.1L-8.65 4.2L-6.7 4.85L-6.55 5.1L-6.5 5.25L-5.85 6.4L-4.65 8.15L-3.65 9L-3.45 9.25Q-3.1 9.7 -2.9 10.35Q-2.75 11.1 -2.85 12.15L-2.35 12.7L-2.4 12.85Q-2.4 13.25 -1.85 13.6L-2.2 14.35L-2.5 14.15L-2.35 14.6" />
<radialGradient
id="RadialGradID_1367" gradientUnits="userSpaceOnUse" gradientTransform="matrix(0.0201416, -1.52588e-005, 0.000137329, 0.0264893, -12.35, 2.25)" spreadMethod ="pad" cx="0" cy="0" r="819.2" fx="0" fy="0" >
<stop  offset="0"  style="stop-color:#FBBD9D;stop-opacity:1" />
<stop  offset="1"  style="stop-color:#FEDEC1;stop-opacity:1" />
</radialGradient>
<path style="fill:url(#RadialGradID_1367) " d="M-7.1,4.25L-6.9 4.55L-7.1 4.35L-7.15 4.3L-7.1 4.25" />
<radialGradient
id="RadialGradID_1368" gradientUnits="userSpaceOnUse" gradientTransform="matrix(0.0119171, 0.00135803, -0.00128174, 0.0117645, 8.95, -4.1)" spreadMethod ="pad" cx="0" cy="0" r="819.2" fx="0" fy="0" >
<stop  offset="0"  style="stop-color:#FBBD9D;stop-opacity:1" />
<stop  offset="1"  style="stop-color:#FEDEC1;stop-opacity:1" />
</radialGradient>
<path style="fill:url(#RadialGradID_1368) " d="M7.8,-9.5L7.85 -9.5L7.85 -9.45L7.8 -9.45L7.8 -9.5" />
</g>
</svg>
