<svg width="24" height="30" xmlns="http://www.w3.org/2000/svg"><defs><radialGradient id="a" gradientUnits="userSpaceOnUse" gradientTransform="matrix(-.0064 0 0 .00777 77.075 30.8)" spreadMethod="pad" cx="0" cy="0" r="819.2" fx="6" fy="0"><stop offset="0" stop-color="#FB8F62"/><stop offset=".698" stop-color="#FEC7A3"/><stop offset="1" stop-color="#FEDEC1"/></radialGradient><radialGradient id="b" gradientUnits="userSpaceOnUse" gradientTransform="matrix(-.00409 0 0 .00517 79.075 31.7)" spreadMethod="pad" cx="0" cy="0" r="819.2" fx="0" fy="0"><stop offset="0" stop-color="#EA8440"/><stop offset="1" stop-color="#FCC7A5"/></radialGradient><radialGradient id="c" gradientUnits="userSpaceOnUse" gradientTransform="matrix(.0064 0 0 .00777 63.925 30.8)" spreadMethod="pad" cx="0" cy="0" r="819.2" fx="6" fy="0"><stop offset="0" stop-color="#FB8F62"/><stop offset=".698" stop-color="#FEC7A3"/><stop offset="1" stop-color="#FEDEC1"/></radialGradient><radialGradient id="d" gradientUnits="userSpaceOnUse" gradientTransform="matrix(.00409 0 0 .00517 61.925 31.7)" spreadMethod="pad" cx="0" cy="0" r="819.2" fx="0" fy="0"><stop offset="0" stop-color="#EA8440"/><stop offset="1" stop-color="#FCC7A5"/></radialGradient><radialGradient id="e" gradientUnits="userSpaceOnUse" gradientTransform="matrix(.01003 .00096 -.00323 .03348 72.675 29.7)" spreadMethod="pad" cx="0" cy="0" r="819.2" fx="0" fy="0"><stop offset=".424" stop-color="#FED9BD"/><stop offset=".773" stop-color="#FCC5A5"/></radialGradient><radialGradient id="f" gradientUnits="userSpaceOnUse" gradientTransform="matrix(.00562 0 0 .0102 70.575 26.8)" spreadMethod="pad" cx="0" cy="0" r="819.2" fx="0" fy="0"><stop offset=".11" stop-color="#FFE4CF"/><stop offset="1" stop-color="#FED9BD"/></radialGradient><radialGradient id="g" gradientUnits="userSpaceOnUse" gradientTransform="matrix(.01016 -.00139 .0048 .03511 68.575 30.2)" spreadMethod="pad" cx="0" cy="0" r="819.2" fx="0" fy="0"><stop offset=".408" stop-color="#FED9BD"/><stop offset=".773" stop-color="#FCC5A5"/></radialGradient><radialGradient id="h" gradientUnits="userSpaceOnUse" gradientTransform="matrix(.02563 0 0 .02563 69.375 29.4)" spreadMethod="pad" cx="0" cy="0" r="819.2" fx="0" fy="0"><stop offset="0" stop-color="#F5AE8E"/><stop offset="1" stop-color="#FDCBAD"/></radialGradient><radialGradient id="i" gradientUnits="userSpaceOnUse" gradientTransform="matrix(.02463 0 0 .02463 70.675 29.9)" spreadMethod="pad" cx="0" cy="0" r="819.2" fx="0" fy="0"><stop offset="0" stop-color="#F5AE8E"/><stop offset="1" stop-color="#FDCBAD"/></radialGradient></defs><path fill="none" d="M-1-1h3.5v3.875H-1z"/><g><path d="M81.575 30.95l-.3-.75-.2-.4q.05-.15-.7.4-.8.55-1.15 1.8-.4 1.25-.2 1.7l.3.7.15.35-.1.6.85-.95q.8-1.2.2-1.55l-.5-.25.05-.4-.05-.6.2-.6q.25-.4.65-.3.4.1.65 2.3.35-1.35.15-2.05m-1.45-2.15l1-.05.55.4.45 2.55-.2 1.25-1.55 3.45-.45.35-.75-.1-.85-.1-.4-.25.8-5.2q.35-2.45 1.1-2.35l.3.05" fill="url(#a)" transform="translate(-58.5 -15.8)"/><path d="M81.425 33q-.25-2.2-.65-2.3-.4-.1-.65.3l-.2.6.05.6-.05.4.5.25q.6.35-.2 1.55l-.85.95.1-.6-.15-.35-.3-.7q-.2-.45.2-1.7.35-1.25 1.15-1.8.75-.55.7-.4l.2.4.3.75q.2.7-.15 2.05" fill="url(#b)" transform="translate(-58.5 -15.8)"/><path d="M21.625 13l1-.05.55.4.45 2.55-.2 1.25-1.55 3.45-.45.35-.75-.1-.85-.1" stroke-opacity=".502" stroke="#B76340" stroke-miterlimit="3" stroke-linejoin="round" stroke-linecap="round" stroke-width=".05" fill="none"/><path d="M59.425 30.95l.3-.75.2-.4.7.4q.8.55 1.15 1.8.4 1.25.2 1.7l-.3.7-.15.35.1.6-.85-.95q-.8-1.2-.2-1.55l.5-.25-.05-.4.05-.6-.2-.6q-.25-.4-.65-.3-.4.1-.65 2.3-.35-1.35-.15-2.05m1.45-2.15l-1-.05-.55.4-.45 2.55.2 1.25 1.55 3.45.45.35.75-.1.85-.1.4-.25-.8-5.2q-.35-2.45-1.1-2.35l-.3.05" fill="url(#c)" transform="translate(-58.5 -15.8)"/><path d="M59.575 33q.25-2.2.65-2.3.4-.1.65.3l.2.6-.05.6.05.4-.5.25q-.6.35.2 1.55l.85.95-.1-.6.15-.35.3-.7q.2-.45-.2-1.7-.35-1.25-1.15-1.8l-.7-.4-.2.4-.3.75q-.2.7.15 2.05" fill="url(#d)" transform="translate(-58.5 -15.8)"/><path d="M2.375 13l-1-.05-.55.4-.45 2.55.2 1.25 1.55 3.45.45.35.75-.1.85-.1" stroke-opacity=".502" stroke="#B76340" stroke-miterlimit="3" stroke-linejoin="round" stroke-linecap="round" stroke-width=".05" fill="none"/><path d="M79.375 20.35l.3 1.25q.35 1.45.35 2.85l-.7 9.4q-.65 6.75-4.3 9.55l-1.45 1-.35.15-.1.1-.05-.05-1.75.2h-.6l1.05-.2q.35-3.85 1.65-5.55V38.45q.2-6.5 1.8-11.15l.9-2.25-.05-.2q-.8-2.35-1.5-5.95-1.15-1.75-2.7-1.95l-.6-.1h-.95l.4-1.05h.05l.95.05 1.15.15 2.05.65q2.55 1.05 4.4 3.6l.1.1h-.05" fill="url(#e)" transform="translate(-58.5 -15.8)"/><path d="M70.325 16.85h.95l.6.1q1.55.2 2.7 1.95.7 3.6 1.5 5.95l.05.2-.9 2.25q-1.6 4.65-1.8 11.15V39.05q-1.3 1.7-1.65 5.55l-1.05.2h-.1l-1.2-.15.05-1.3q0-6.45-2.3-12.05-1.15-2.95-2.35-4.25l.45-2.35q.15-2.15 1-5.9 1.15-1.6 2.65-1.85l1.1-.1h.3" fill="url(#f)" transform="translate(-58.5 -15.8)"/><path d="M72.625 44.9l-3.15.35h-.1l-1.5-.7-1.75-1.15q-3.65-2.8-4.3-9.55-.7-6.75-.7-9.4 0-1.4.35-2.85l.3-1.25-.05-.05.1-.15.4-.5.1-.15q1.8-1.9 3.9-2.8 1.5-.7 3.2-.85l1.3-.05-.4 1.05h-.3l-1.1.1q-1.5.25-2.65 1.85-.85 3.75-1 5.9l-.45 2.35q1.2 1.3 2.35 4.25 2.3 5.6 2.3 12.05l-.05 1.3 1.2.15h.7l1.75-.2.05.05-.5.25" fill="url(#g)" transform="translate(-58.5 -15.8)"/><path d="M71.175 45.75h-1.1l-.7-.1q-1.65-.25-3-1.1-1.15-.7-2.1-1.85-2.15-2.45-2.65-5.7l-.2-2.15-.05-.35-.4-2.5-.05-.3-.1-.6-.15-.75-.15-1.2-.25-1.9q-.2-1.45 0-3.5.15-1.75 1.4-3.4l.05-.05.05.05-.3 1.25q-.35 1.45-.35 2.85 0 2.65.7 9.4.65 6.75 4.3 9.55l1.75 1.15 1.5.7h.1l1 .35h.15l.55.15" fill="url(#h)" transform="translate(-58.5 -15.8)"/><path d="M70.625 45.6h-.15l-1-.35 3.15-.35.5-.25.1-.1.35-.15 1.45-1q3.65-2.8 4.3-9.55l.7-9.4q0-1.4-.35-2.85l-.3-1.25h.05l.1.15q1.1 1.6 1.25 3.25l.05 3.5-.25 1.9-.2 1.2-.1.7-.1.65-.05.3-.4 2.5-.05.35-.15 2.15q-.45 3.25-2.6 5.7l-2.05 1.85q-1.65 1.05-3.7 1.2l-.55-.15" fill="url(#i)" transform="translate(-58.5 -15.8)"/><path d="M22.275 7.95l.05 3.5-.25 1.9-.2 1.2-.1.7-.1.65-.05.3-.4 2.5-.05.35-.15 2.15q-.45 3.25-2.6 5.7-2.6 3.05-6.35 3.05-3.7 0-6.3-3.05-2.15-2.45-2.65-5.7l-.2-2.15-.05-.35-.4-2.5-.05-.3-.1-.6-.15-.75-.15-1.2-.25-1.9q-.2-1.45 0-3.5.2-2.1 1.95-4.1l.1-.15q3.65-3.85 8.45-3.7 5.55.05 8.75 4.7 1.1 1.6 1.25 3.25z" stroke-opacity=".502" stroke="#B76340" stroke-miterlimit="3" stroke-linejoin="round" stroke-linecap="round" stroke-width=".05" fill="none"/></g></svg>