<svg xmlns="http://www.w3.org/2000/svg" width="23" height="31"><g transform="translate(11.3 15.4)"><radialGradient id="a" gradientUnits="userSpaceOnUse" gradientTransform="matrix(.00493 -.00061 .00075 .0061 7.35 1.8)" spreadMethod="pad" cx="0" cy="0" r="819.2" fx="0" fy="0"><stop offset="0" stop-color="#fb8f62"/><stop offset=".698" stop-color="#fec7a3"/><stop offset="1" stop-color="#fedec1"/></radialGradient><path d="M8.75-.6l.6-.55.75-.35q.5-.05.7.35.35.45.55 2l-.75 2.5-1.15 2.7-.35.3-.25.05h-.3l.2-7m1.95.15l-.3-.25Q9.8-.3 9.3.65L9 2.05l.15.55-.1.65L8.9 4l.25.6.25-.6.55-.4q.2-.1-.2-1.2l.4-2.15.2.8V3.4l.45-1.85.05-.15v-1l-.15-.85" fill="url(#a)"/><radialGradient id="b" gradientUnits="userSpaceOnUse" gradientTransform="matrix(.00339 .00049 -.00075 .0053 8.55 1.8)" spreadMethod="pad" cx="0" cy="0" r="819.2" fx="0" fy="0"><stop offset="0" stop-color="#ea8440"/><stop offset="1" stop-color="#fcc7a5"/></radialGradient><path d="M10.85.4v1l-.05.15-.45 1.85V1.05l-.2-.8-.4 2.15q.4 1.1.2 1.2L9.4 4l-.25.6L8.9 4l.15-.75.1-.65L9 2.05l.3-1.4Q9.8-.3 10.4-.7l.3.25.15.85" fill="url(#b)"/><path d="M8.75-.6l.6-.55.75-.35q.5-.05.7.35.35.45.55 2l-.75 2.5-1.15 2.7-.35.3-.25.05h-.3" fill="none" stroke-width=".05" stroke-linecap="round" stroke-linejoin="round" stroke-miterlimit="3" stroke="#b76340" stroke-opacity=".502"/><radialGradient id="c" gradientUnits="userSpaceOnUse" gradientTransform="matrix(-.00494 -.00047 -.0006 .00612 -7.2 1.75)" spreadMethod="pad" cx="0" cy="0" r="819.2" fx="0" fy="0"><stop offset="0" stop-color="#fb8f62"/><stop offset=".698" stop-color="#fec7a3"/><stop offset="1" stop-color="#fedec1"/></radialGradient><path d="M-8.75-.6l-.6-.5-.75-.3q-.5-.05-.7.3l-.5 2.05.8 2.5 1.2 2.65q.1.2.4.25l.3.05h.25l-.4-7m-1.95.25l.3-.35q.6.5 1.1 1.4.45.95.4 1.4l-.15.5.15.7.1.7-.2.65-.3-.65-.5-.35q-.2-.05.15-1.2L-10.1.3l-.2.85.05 2.3-.5-1.8v-.2L-10.8.5l.1-.85" fill="url(#c)"/><radialGradient id="d" gradientUnits="userSpaceOnUse" gradientTransform="matrix(-.00339 .00056 .00089 .00528 -8.5 1.8)" spreadMethod="pad" cx="0" cy="0" r="819.2" fx="0" fy="0"><stop offset="0" stop-color="#ea8440"/><stop offset="1" stop-color="#fcc7a5"/></radialGradient><path d="M-10.8.5l.05.95v.2l.5 1.8-.05-2.3.2-.85.45 2.15Q-10 3.6-9.8 3.65l.5.35.3.65.2-.65-.1-.7-.15-.7.15-.5q.05-.45-.4-1.4-.5-.9-1.1-1.4l-.3.35-.1.85" fill="url(#d)"/><path d="M-8.75-.6l-.6-.5-.75-.3q-.5-.05-.7.3l-.5 2.05.8 2.5 1.2 2.65q.1.2.4.25l.3.05h.25" fill="none" stroke-width=".05" stroke-linecap="round" stroke-linejoin="round" stroke-miterlimit="3" stroke="#b76340" stroke-opacity=".502"/><radialGradient id="e" gradientUnits="userSpaceOnUse" gradientTransform="matrix(.0122 0 0 .02081 .8 -.7)" spreadMethod="pad" cx="0" cy="0" r="819.2" fx="210515" fy="0"><stop offset="0" stop-color="#fbd3b5"/><stop offset="1" stop-color="#fbc9ab"/></radialGradient><path d="M3.2 12.95q-.9.65-2.6 1.3l-.15.05-.5.05-.6-.05-.45-.15-.05-.05-.6-.15-1.8-1.3-1.15-1.3-.6-3.8-2-3.35q-.85-1.65-.7-2.4l.15-.4 2.45-3.3.15-.6.05-1.25-.1-2.6-.15-1.8v-5.65q2.4-1.65 5.5-1.6 2.55-.05 4.65 1.1v5.95l-.05 2v2.6q0 .8.2 1.05L7.4 1.2l.4.65V1.8l.05.1q.1.75-.75 2.3L5.15 7.55 4.5 11.7l-1.3 1.25" fill="url(#e)"/><radialGradient id="f" gradientUnits="userSpaceOnUse" gradientTransform="matrix(.00624 .00063 -.00093 .00926 -9.95 -5.3)" spreadMethod="pad" cx="0" cy="0" r="819.2" fx="99" fy="0"><stop offset="0" stop-color="#f0b192"/><stop offset="1" stop-color="#fbc9ab"/></radialGradient><path d="M-7.8 1.2l.2-.55.7-1.55q.95-1.85.95-2.6l-.2-1.3-.2-1.45-.05-.35-.1-1.15-.4-4.85 1.45-1.2v5.65l.15 1.8.1 2.6-.05 1.25-.15.6-2.45 3.3.05-.2" fill="url(#f)"/><radialGradient id="g" gradientUnits="userSpaceOnUse" gradientTransform="matrix(.00803 0 0 .01204 -10.6 11.1)" spreadMethod="pad" cx="0" cy="0" r="819.2" fx="0" fy="0"><stop offset="0" stop-color="#f0b192"/><stop offset="1" stop-color="#fbc9ab"/></radialGradient><path d="M-8.55 3.2l.15-.65.35-.9.2-.45.25-.55-.2.55-.05.2-.15.4q-.15.75.7 2.4l2 3.35.6 3.8.25 1.4-.65-.6q-1.05-1-2.55-3.95l-.9-5" fill="url(#g)"/><radialGradient id="h" gradientUnits="userSpaceOnUse" gradientTransform="matrix(.01144 0 0 .01144 2.9 -17.75)" spreadMethod="pad" cx="0" cy="0" r="819.2" fx="41" fy="0"><stop offset="0" stop-color="#feeade"/><stop offset=".988" stop-color="#fedec2"/></radialGradient><path d="M-10.4-4.2v-.55.55" fill="url(#h)"/><radialGradient id="i" gradientUnits="userSpaceOnUse" gradientTransform="matrix(.0072 0 0 .01071 -10.4 -4.2)" spreadMethod="pad" cx="0" cy="0" r="819.2" fx="0" fy="0"><stop offset="0" stop-color="#f0b192"/><stop offset="1" stop-color="#fbc9ab"/></radialGradient><path d="M-6.5-7.75l.1 1.15.05.35.2 1.45.2 1.3q0 .75-.95 2.6L-7.6.65l-.25.55-.2.45-.35.9-.15.65-.15-.75-.1-.5V.85l.25-2.05.25-1.55-.1-.65-.25-.8-.2-1.2-.4-4.05.2-.35q.65-1.25 1.7-2.35l.45-.45.4 4.85" fill="url(#i)"/><radialGradient id="j" gradientUnits="userSpaceOnUse" gradientTransform="matrix(.0064 0 0 .0099 10.55 -3.75)" spreadMethod="pad" cx="0" cy="0" r="819.2" fx="0" fy="0"><stop offset="0" stop-color="#f0b192"/><stop offset="1" stop-color="#fbc9ab"/></radialGradient><path d="M8.85-6.05L8.5-4.2l-.25.8-.1.65.25 1.55.2 2.05v.3l.05.5v.3l-.15.5L8 1.3l-.2-.2-.35-.6H7.4L6.7-.9q-.95-1.85-.95-2.6l.2-1.3.15-1 .1-.8.2-1.5.35-4.8.75.75Q8.85-10.7 9.6-8.9l-.75 2.85" fill="url(#j)"/><radialGradient id="k" gradientUnits="userSpaceOnUse" gradientTransform="matrix(.00583 -.00098 .00204 .01222 10.85 -3.95)" spreadMethod="pad" cx="0" cy="0" r="819.2" fx="99" fy="0"><stop offset="0" stop-color="#f0b192"/><stop offset="1" stop-color="#fbc9ab"/></radialGradient><path d="M7.6 1.05l.2.75v.05l-.4-.65-2.55-3.9q-.2-.25-.2-1.05v-2.6l.05-2v-5.95l2.05 1.4-.35 4.8-.2 1.5-.1.8-.15 1-.2 1.3q0 .75.95 2.6L7.4.5l.2.55" fill="url(#k)"/><radialGradient id="l" gradientUnits="userSpaceOnUse" gradientTransform="matrix(.01343 0 0 .02689 14.2 2.15)" spreadMethod="pad" cx="0" cy="0" r="819.2" fx="0" fy="0"><stop offset=".224" stop-color="#f0b192"/><stop offset="1" stop-color="#fbc9ab"/></radialGradient><path d="M8.35 8.15l-1.15 2-.05.05.35-2 .95-5.5.05-.25.15-.5v-.3l-.05-.5v-.3L8.4-1.2l-.25-1.55.1-.65.25-.8.35-1.85.75-2.85q.9 2.15.95 4.7Q10.5-2.3 10-.55L9.35 1.3 9.4.5l-.1.5v.15L9.15 2.3l-.1 1.15-.05 1v.9l-.15.8-.05.3v.1l-.45 1.6" fill="url(#l)"/><radialGradient id="m" gradientUnits="userSpaceOnUse" gradientTransform="matrix(.00858 0 0 .01213 11.4 9.55)" spreadMethod="pad" cx="0" cy="0" r="819.2" fx="0" fy="0"><stop offset="0" stop-color="#f0b192"/><stop offset="1" stop-color="#fbc9ab"/></radialGradient><path d="M4.95 12.15l-.65.6.2-1.05.65-4.15L7.1 4.2q.85-1.55.75-2.3l-.05-.1-.2-.75L7.4.5h.05l.35.6.2.2.5 1.15-.05.25-.95 5.5q-1.55 2.95-2.55 3.95" fill="url(#m)"/><linearGradient id="n" gradientUnits="userSpaceOnUse" gradientTransform="matrix(.00351 0 0 .01143 -8.75 1.85)" x1="-819.2" x2="819.2"><stop offset=".376" stop-color="#f0b192"/><stop offset=".988" stop-color="#fbc9ab"/></linearGradient><path d="M-7.65 8.2l.25 1.75-.85-1.55-.15-.4-.2-.65-.2-.9-.15-1.1-.05-.8V4.2l-.05-.7v-.15l-.05-.3V2.7l-.05-.35V2.3l-.1-.65-.05-.5q-.8-2.05-1.05-4l-.05-1.35V-4.8l.25-2.1q.25-1.35.9-2.55l.4 4.05.2 1.2.25.8.1.65-.25 1.55L-8.8.85v1.1l.1.5.15.75.9 5" fill="url(#n)"/><linearGradient id="o" gradientUnits="userSpaceOnUse" gradientTransform="matrix(.00037 -.01138 .01726 .00055 -.9 18.25)" x1="-819.2" x2="819.2"><stop offset="0" stop-color="#f0b192"/><stop offset="1" stop-color="#fbc9ab"/></linearGradient><path d="M9 4.55v-.1l.05-1 .1-1.15.15-1.15V1l.1-.5-.05.8-.05.35-.1.65v.05l-.05.35v.25l-.1 1.5v.1l-.05.2v-.2m-16.4 5.4l-.25-1.75q1.5 2.95 2.55 3.95l.65.6-.25-1.4 1.15 1.3 1.8 1.3.6.15.05.05.45.15.6.05.5-.05.15-.05q1.7-.65 2.6-1.3l1.3-1.25-.2 1.05.65-.6q1-1 2.55-3.95l-.35 2 .05-.05 1.15-2 .45-1.6-.15.7Q8.4 8.6 7.5 10.2l-2.4 3.05q-1.45 1.5-2.4 1.9l-2.1.3H-.5l-2.15-.3-2.4-1.9q-1.4-1.5-2.25-2.95l-.95-1.9.85 1.55" fill="url(#o)"/><path d="M-6.9-12.6l-.45.45q-1.05 1.1-1.7 2.35l-.2.35m2.35-3.15l1.45-1.2q2.4-1.65 5.5-1.6 2.55-.05 4.65 1.1l2.05 1.4.75.75Q8.85-10.7 9.6-8.9q.9 2.15.95 4.7Q10.5-2.3 10-.55L9.35 1.3l-.05.35-.1.65v.05l-.05.35v.25l-.1 1.5v.1l-.05.2v.6l-.15.8-.05.3v.1l-.15.7Q8.4 8.6 7.5 10.2l-2.4 3.05q-1.45 1.5-2.4 1.9l-2.1.3H-.5l-2.15-.3-2.4-1.9q-1.4-1.5-2.25-2.95l-.95-1.9-.15-.4-.2-.65-.2-.9m-.2-1.9V4.2l-.05-.7v-.15l-.05-.3V2.7l-.05-.35V2.3l-.1-.65-.05-.5q-.8-2.05-1.05-4l-.05-1.35V-4.8l.25-2.1q.25-1.35.9-2.55m-1.15 4.7v.55M-9 4.55l.05.2.15 1.7" fill="none" stroke-width=".05" stroke-linecap="round" stroke-linejoin="round" stroke-miterlimit="3" stroke="#b76340" stroke-opacity=".502"/><radialGradient id="p" gradientUnits="userSpaceOnUse" gradientTransform="matrix(.00385 0 0 .00385 .2 13.4)" spreadMethod="pad" cx="0" cy="0" r="819.2" fx="0" fy="0"><stop offset="0" stop-color="#fff" stop-opacity=".243"/><stop offset=".988" stop-color="#fff" stop-opacity="0"/></radialGradient><path d="M-1.95 12.7q1.6-1.75 1.85-.85v1.2q0 .6-.25.7l-.85.1-.85-.15q-.45-.25-.45-.85l.55-.15" fill="url(#p)"/><radialGradient id="q" gradientUnits="userSpaceOnUse" gradientTransform="matrix(.00644 0 0 .00458 1.9 -7)" spreadMethod="pad" cx="0" cy="0" r="819.2" fx="0" fy="0"><stop offset="0" stop-color="#fff" stop-opacity=".243"/><stop offset=".988" stop-color="#fff" stop-opacity="0"/></radialGradient><path d="M-3.6-9.45q1.7-.9 4.05-.9 2.35 0 3.95.9 1.7 1 1.7 2.3 0 1.35-1.7 2.3-1.6.95-3.95.95t-4.05-.95q-1.65-.95-1.65-2.3 0-1.3 1.65-2.3" fill="url(#q)"/><radialGradient id="r" gradientUnits="userSpaceOnUse" gradientTransform="matrix(.00385 0 0 .00385 .2 13.4)" spreadMethod="pad" cx="0" cy="0" r="819.2" fx="0" fy="0"><stop offset="0" stop-color="#fff" stop-opacity=".122"/><stop offset=".988" stop-color="#fff" stop-opacity="0"/></radialGradient><path d="M.7 12.3l1.2.3 1.15.05-.55.7-1 .4h-.05L.8 14q-.25.1-.6-.6L.15 12l.55.3" fill="url(#r)"/><radialGradient id="s" gradientUnits="userSpaceOnUse" gradientTransform="matrix(.00372 0 0 .00372 2 8.25)" spreadMethod="pad" cx="0" cy="0" r="819.2" fx="0" fy="0"><stop offset="0" stop-color="#fff" stop-opacity=".133"/><stop offset=".988" stop-color="#fff" stop-opacity="0"/></radialGradient><path d="M.6 7.55q1.65.2 2.5-.6l.45 1.1.55 1.5v.5h-.2l-1-.5-1.3-.3H1l-.25-.2-.15-1.5" fill="url(#s)"/><radialGradient id="t" gradientUnits="userSpaceOnUse" gradientTransform="matrix(.00426 -.00146 .00156 .00452 -5.9 4.25)" spreadMethod="pad" cx="0" cy="0" r="819.2" fx="0" fy="0"><stop offset="0" stop-color="#fff" stop-opacity=".133"/><stop offset=".988" stop-color="#fff" stop-opacity="0"/></radialGradient><path d="M-8.05 2.4q0-.95.45-.95l.4.2 1.3.55 2.35.65q1.45.4.9.75-.5.45-1.25 2.15l-.95 2.4q-.7-.2-1.95-2.35-1.25-2.25-1.25-3.4" fill="url(#t)"/><radialGradient id="u" gradientUnits="userSpaceOnUse" gradientTransform="matrix(.00665 0 0 .00665 5.85 4.85)" spreadMethod="pad" cx="0" cy="0" r="819.2" fx="0" fy="0"><stop offset="0" stop-color="#fff" stop-opacity=".18"/><stop offset=".988" stop-color="#fff" stop-opacity="0"/></radialGradient><path d="M2.95 3.4l1.3.1q.4 0 1.45-1.3Q6.7.8 7.1.8q.15 0 .25.15v3.8l-.1.2-.75 1.4q-.5 1-.85 1-.7 0-1.5-1.05l-2.1-2.45V3.4h.9" fill="url(#u)"/><radialGradient id="v" gradientUnits="userSpaceOnUse" gradientTransform="matrix(.00217 0 0 .00217 -1.6 -3.1)" spreadMethod="pad" cx="0" cy="0" r="819.2" fx="0" fy="0"><stop offset="0" stop-color="#fff" stop-opacity=".173"/><stop offset=".988" stop-color="#fff" stop-opacity="0"/></radialGradient><path d="M-.55-2.85l.05 1.1-2.35-.95-2.65-.95h2.7l1.1.2q1.05.25 1.1.55l.05.05" fill="url(#v)"/><radialGradient id="w" gradientUnits="userSpaceOnUse" gradientTransform="matrix(.00319 0 0 .00319 2.85 -3.2)" spreadMethod="pad" cx="0" cy="0" r="819.2" fx="0" fy="0"><stop offset="0" stop-color="#fff" stop-opacity=".173"/><stop offset=".988" stop-color="#fff" stop-opacity="0"/></radialGradient><path d="M4.65-3.25l.2.5-.2.35-1.2.1-1.95-.3Q.25-2.95.6-3H.25l.2-.15 2.4-.45 1.8.35" fill="url(#w)"/><radialGradient id="x" gradientUnits="userSpaceOnUse" gradientTransform="matrix(.01114 0 0 .01114 6.6 -11.9)" spreadMethod="pad" cx="0" cy="0" r="819.2" fx="0" fy="0"><stop offset="0" stop-color="#fff" stop-opacity=".161"/><stop offset="1" stop-color="#fff" stop-opacity="0"/></radialGradient><path d="M.85-15.05q5.6 1.6 6.55 2.65 2 2.4 2 4.65 0 3.7-6.05 3.7-1.3 0-1.7-.3-.6-.45-1.15-2.1Q-.1-8.3-.05-9.3l-.05-2.3q0-2.15.85-3.5l.1.05" fill="url(#x)"/><radialGradient id="y" gradientUnits="userSpaceOnUse" gradientTransform="matrix(.00957 0 0 .00957 -6.65 -7.7)" spreadMethod="pad" cx="0" cy="0" r="819.2" fx="0" fy="0"><stop offset="0" stop-color="#fff" stop-opacity=".502"/><stop offset="1" stop-color="#fff" stop-opacity="0"/></radialGradient><path d="M-3.35-14.65h.05Q-6.15-12.9-7.95-9.8q-1.7 2.95-1.7 5.75 0 1.8.5 3v.25h-.05q-.85-2.75-.85-5.05l.15-1.4q0-1.05 2.15-4 1.5-2.35 4.4-3.4" fill="url(#y)"/><radialGradient id="z" gradientUnits="userSpaceOnUse" gradientTransform="translate(6.25 -8.15) scale(.00923)" spreadMethod="pad" cx="0" cy="0" r="819.2" fx="0" fy="0"><stop offset="0" stop-color="#fff" stop-opacity=".643"/><stop offset="1" stop-color="#fff" stop-opacity="0"/></radialGradient><path d="M2.25-14.6h.45q3.45.6 5.6 3.65 1.9 2.65 1.9 5.35l-.5 3.9h-.05l.25-2.05q0-3.2-1.75-6.2Q6-13.7 2.25-14.6" fill="url(#z)"/></g></svg>