<svg xmlns="http://www.w3.org/2000/svg" width="25" height="32"><g><radialGradient id="a" gradientUnits="userSpaceOnUse" gradientTransform="matrix(.00517 0 0 .0064 20.3 16.95)" spreadMethod="pad" cx="0" cy="0" r="819.2" fx="0" fy="0"><stop offset="0" stop-color="#fb8f62"/><stop offset=".698" stop-color="#fec7a3"/><stop offset="1" stop-color="#fedec1"/></radialGradient><path d="M22.1 14.65l.7-.45.8-.25q.5 0 .7.4.25.5.35 2.15l-1.1 2.5L22 21.65l-.4.25H21l1.1-7.25m2 .45l-.25-.35q-.7.4-1.3 1.3-.55.95-.55 1.4l.1.55-.2.7-.2.75q0 .5.15.65l.35-.6.6-.3-.05-1.3.65-2.2.15.9-.3 2.4q.55-.85.7-1.8L24 17l.15-1-.05-.9" fill="url(#a)"/><radialGradient id="b" gradientUnits="userSpaceOnUse" gradientTransform="matrix(.00345 .00093 -.00145 .00539 21.6 17.15)" spreadMethod="pad" cx="0" cy="0" r="819.2" fx="0" fy="0"><stop offset="0" stop-color="#ea8440"/><stop offset="1" stop-color="#fcc7a5"/></radialGradient><path d="M24.15 16L24 17l-.05.2q-.15.95-.7 1.8l.3-2.4-.15-.9-.65 2.2.05 1.3-.6.3-.35.6q-.15-.15-.15-.65l.2-.75.2-.7-.1-.55q0-.45.55-1.4.6-.9 1.3-1.3l.25.35.05.9" fill="url(#b)"/><path d="M22.1 14.65l.7-.45.8-.25q.5 0 .7.4.25.5.35 2.15l-1.1 2.5L22 21.65l-.4.25H21" fill="none" stroke-width=".05" stroke-linecap="round" stroke-linejoin="round" stroke-miterlimit="3" stroke="#b76340" stroke-opacity=".502"/><radialGradient id="c" gradientUnits="userSpaceOnUse" gradientTransform="matrix(-.00517 0 0 .0064 4.35 16.95)" spreadMethod="pad" cx="0" cy="0" r="819.2" fx="0" fy="0"><stop offset="0" stop-color="#fb8f62"/><stop offset=".698" stop-color="#fec7a3"/><stop offset="1" stop-color="#fedec1"/></radialGradient><path d="M2.55 14.65l-.7-.45-.8-.25q-.5 0-.7.4-.25.5-.35 2.15L1.1 19l1.55 2.65.4.25h.6l-1.1-7.25m-2 .45q.05-.35.25-.35l1.3 1.3.55 1.4-.1.55.2.7.2.75-.15.65-.35-.6-.6-.3q-.2-.1.05-1.3-.5-1.05-.65-2.2l-.15.9.3 2.4q-.55-.85-.7-1.8L.65 17 .5 16l.05-.9" fill="url(#c)"/><radialGradient id="d" gradientUnits="userSpaceOnUse" gradientTransform="matrix(-.00345 .00093 .00145 .00539 3.05 17.15)" spreadMethod="pad" cx="0" cy="0" r="819.2" fx="0" fy="0"><stop offset="0" stop-color="#ea8440"/><stop offset="1" stop-color="#fcc7a5"/></radialGradient><path d="M.5 16l.15 1 .05.2q.15.95.7 1.8l-.3-2.4.15-.9q.15 1.15.65 2.2-.25 1.2-.05 1.3l.6.3.35.6.15-.65-.2-.75-.2-.7.1-.55-.55-1.4-1.3-1.3q-.2 0-.25.35L.5 16" fill="url(#d)"/><path d="M2.55 14.65l-.7-.45-.8-.25q-.5 0-.7.4-.25.5-.35 2.15L1.1 19l1.55 2.65.4.25h.6" fill="none" stroke-width=".05" stroke-linecap="round" stroke-linejoin="round" stroke-miterlimit="3" stroke="#b76340" stroke-opacity=".502"/><path d="M17.1 7.2L17 8.8q0 2 .45 2.7l.65 1.05 1.2 1.8.65.9.15 1.45-.15 1.95v.1l-.1.65-.85 4.05-1.75 2.85q-.8 1.25-1.2 2.25-.45 1.05-1.35 1.35l-.75.2q-3.3-.5-3.55-1l-.25-.75v-.2q0-.65.4-1.4l1.8-3.75-1.55-.45q-.6-.4-1.15.45l-.85 1.45-.55.55-.5-.25q-.6-.55-.9-2.05l-1-4.4-.15-.55-.05-.7q0-.7.55-1.55l1.2-1.6q1.7-2.45 1.7-5.3L9 7.2 8.6.75q1.8-.7 3.85-.7 2.85-.05 5.2 1.4L17.1 7.2" fill="#fbcfb1"/><radialGradient id="e" gradientUnits="userSpaceOnUse" gradientTransform="matrix(.02315 0 0 .02235 4.8 17.55)" spreadMethod="pad" cx="0" cy="0" r="819.2" fx="0" fy="0"><stop offset=".424" stop-color="#f0b192"/><stop offset="1" stop-color="#fbc9ab"/></radialGradient><path d="M14 31.05l-1.1.15h-.15l1.25-.15m-9.5-7.5l1.25 3.6.25.65-1-1.35q-.65-1.05-1.05-3.1l-.2-1.05-.3-1.65-.05-.35q-1.3-5.4-1.55-7.45l-.05-1.4v-.65l.25-2.1q.25-1.25.85-2.3l.8 10.4-.05.55.05.55.15 2.05.35 2.55.3 1.05" fill="url(#e)"/><radialGradient id="f" gradientUnits="userSpaceOnUse" gradientTransform="matrix(.0086 0 0 .02484 -5.2 8)" spreadMethod="pad" cx="0" cy="0" r="819.2" fx="210447" fy="0"><stop offset="0" stop-color="#f0b192"/><stop offset="1" stop-color="#fbc9ab"/></radialGradient><path d="M13.6 30.25l-.3.1-1.45.05-1.7-.45q-.9-.35-1.3-1.4L7.6 26.3l-1.65-2.85L5 19.5v-.1l-.05-.65-.05-.1-.1-1.95q0-1.15.15-1.45l.65-.9 1.2-1.8.7-1.05q.35-.7.35-2.7L7.8 7.25l-.55-5.8q.65-.4 1.35-.7L9 7.2l.1 1.4q0 2.85-1.7 5.3l-1.2 1.6q-.55.85-.55 1.55l.05.7.15.55 1 4.4q.3 1.5.9 2.05l.5.25.55-.55.85-1.45q.55-.85 1.15-.45l1.55.45-1.8 3.75q-.4.75-.4 1.4v.2l.25.75q.25.5 3.55 1-.15.1-.35.15" fill="url(#f)"/><linearGradient id="g" gradientUnits="userSpaceOnUse" gradientTransform="matrix(.00314 .00027 -.00105 .01115 4.5 12)" x1="-819.2" x2="819.2"><stop offset="0" stop-color="#f0b192"/><stop offset="1" stop-color="#fbc9ab"/></linearGradient><path d="M4.35 21.75l-.15.75-.35-2.55-.15-2.05-.05-.55.05-.55-.8-10.4.3-.65q.65-1.3 1.7-2.35Q6 2.2 7.25 1.45l.55 5.8.05 1.55q0 2-.35 2.7l-.7 1.05-1.2 1.8-.65.9q-.15.3-.15 1.45l.1 1.95.05.1-.6 3" fill="url(#g)"/><linearGradient id="h" gradientUnits="userSpaceOnUse" gradientTransform="matrix(-.00377 .00046 -.00162 -.01224 20.95 11.55)" x1="-819.2" x2="819.2"><stop offset="0" stop-color="#f0b192"/><stop offset="1" stop-color="#fbc9ab"/></linearGradient><path d="M20.55 21.75l-.6-3v-.1l.15-1.95-.15-1.45-.65-.9-1.2-1.8-.65-1.05Q17 10.8 17 8.8l.1-1.6.55-5.75Q18.9 2.2 20 3.4q1.45 1.5 2.2 3.35l-.15 6.5-.15.7-.5 2.15-.4 3.85-.35 2.55-.1-.75" fill="url(#h)"/><radialGradient id="i" gradientUnits="userSpaceOnUse" gradientTransform="matrix(.02023 0 0 .01953 21.45 17.9)" spreadMethod="pad" cx="0" cy="0" r="819.2" fx="0" fy="0"><stop offset=".424" stop-color="#f0b192"/><stop offset="1" stop-color="#fbc9ab"/></radialGradient><path d="M19.1 27.25l.1-.25 1.25-3.45.2-1.05.35-2.55.4-3.85.5-2.15.15-.7.15-6.5q.9 2.15.9 4.7 0 1.9-.55 3.7l-.9 4-.05.45v.25l-.1.8-.5 2.7q-.4 2.05-1.05 3.1L18.8 27.9l.3-.65" fill="url(#i)"/><linearGradient id="j" gradientUnits="userSpaceOnUse" gradientTransform="matrix(-.00288 -.0016 .00401 -.00671 19.35 26.8)" x1="-819.2" x2="819.2"><stop offset="0" stop-color="#f0b192"/><stop offset="1" stop-color="#fbc9ab"/></linearGradient><path d="M12.75 31.2H12.05q.45-.55.85-.7l.4-.15.3-.1q.2-.05.35-.15l.75-.2q.9-.3 1.35-1.35.4-1 1.2-2.25L19 23.45l.85-4.05.1-.65.6 3 .1.75-.2 1.05L19.2 27l-.1.25-.3.65-.05.1-1.2.95-2 1.4q-.8.45-1.55.7l-1.25.15" fill="url(#j)"/><linearGradient id="k" gradientUnits="userSpaceOnUse" gradientTransform="matrix(.00404 -.00166 .00346 .00784 6 26.65)" x1="-819.2" x2="819.2"><stop offset="0" stop-color="#f0b192"/><stop offset="1" stop-color="#fbc9ab"/></linearGradient><path d="M12.9 30.5q-.4.15-.85.7l-.95-.15-1.7-.7-2-1.4-1.25-1.05-.15-.1-.25-.65-1.25-3.6-.3-1.05.15-.75.6-3 .05.65v.1l.95 3.95L7.6 26.3l1.25 2.25q.4 1.05 1.3 1.4l1.7.45 1.45-.05-.4.15" fill="url(#k)"/><radialGradient id="l" gradientUnits="userSpaceOnUse" gradientTransform="matrix(.01163 0 0 .01163 15.35 -2.35)" spreadMethod="pad" cx="0" cy="0" r="819.2" fx="41" fy="0"><stop offset="0" stop-color="#feeade"/><stop offset=".988" stop-color="#fedec2"/></radialGradient><path d="M1.8 11.45v-.6.6" fill="url(#l)"/><path d="M17.65 1.45Q15.3 0 12.45.05q-2.05 0-3.85.7m9.05.7Q18.9 2.2 20 3.4q1.45 1.5 2.2 3.35.9 2.15.9 4.7 0 1.9-.55 3.7l-.9 4-.05.45v.25l-.1.8-.5 2.7q-.4 2.05-1.05 3.1L18.8 27.9l-.05.1-1.2.95-2 1.4q-.8.45-1.55.7l-1.1.15H12.05l-.95-.15-1.7-.7-2-1.4-1.25-1.05-.15-.1-1-1.35q-.65-1.05-1.05-3.1l-.2-1.05-.3-1.65-.05-.35q-1.3-5.4-1.55-7.45l-.05-1.4v-.65l.25-2.1q.25-1.25.85-2.3l.3-.65q.65-1.3 1.7-2.35Q6 2.2 7.25 1.45q.65-.4 1.35-.7m-6.8 10.1v.6" fill="none" stroke-width=".05" stroke-linecap="round" stroke-linejoin="round" stroke-miterlimit="3" stroke="#b76340" stroke-opacity=".502"/><radialGradient id="m" gradientUnits="userSpaceOnUse" gradientTransform="matrix(.00726 0 0 .00378 12.65 8.9)" spreadMethod="pad" cx="0" cy="0" r="819.2" fx="210508" fy="0"><stop offset="0" stop-color="#fff" stop-opacity=".243"/><stop offset=".988" stop-color="#fff" stop-opacity="0"/></radialGradient><path d="M14.55 11.45l-1.4.1h-.5l-3.3-.5-.9-.35Q6.7 9.95 6.7 8.9q0-1.15 1.75-1.9l.6-.2 3.6-.5 2.15.1 1.85.5.25.1 1.35.95q.35.4.35.95 0 1.05-1.6 1.75l-.1.05q-.75.4-1.7.6l-.65.15" fill="url(#m)"/><radialGradient id="n" gradientUnits="userSpaceOnUse" gradientTransform="matrix(.00513 0 0 .00348 16.45 13.2)" spreadMethod="pad" cx="0" cy="0" r="819.2" fx="210508" fy="0"><stop offset="0" stop-color="#fff" stop-opacity=".263"/><stop offset=".988" stop-color="#fff" stop-opacity="0"/></radialGradient><path d="M15.2 11.3l1.05.3 2.1.6.25.1v.1q-2.8.55-4.7 1.3l.2-.85q-.05-.8.25-1.25l.2-.15.65-.15" fill="url(#n)"/><radialGradient id="o" gradientUnits="userSpaceOnUse" gradientTransform="matrix(.00159 0 0 .00285 12.75 12.6)" spreadMethod="pad" cx="0" cy="0" r="819.2" fx="210508" fy="0"><stop offset="0" stop-color="#fff" stop-opacity=".263"/><stop offset=".988" stop-color="#fff" stop-opacity="0"/></radialGradient><path d="M13.15 11.55l.1.95q-.2 1.25-.65 1.55-.5.25-.3-.6l.15-1.2-.05-.6.3-.1h.45" fill="url(#o)"/><radialGradient id="p" gradientUnits="userSpaceOnUse" gradientTransform="matrix(.0024 0 0 .00665 17.85 20.05)" spreadMethod="pad" cx="0" cy="0" r="819.2" fx="0" fy="0"><stop offset="0" stop-color="#fff" stop-opacity=".29"/><stop offset=".988" stop-color="#fff" stop-opacity="0"/></radialGradient><path d="M15.35 17.8q1.45 1 3.65-.45l.5.4.3.6-.9 6.8-.65.05q-.55-.1-1.35-2.45L16 19.7l-.65-1.9" fill="url(#p)"/><radialGradient id="q" gradientUnits="userSpaceOnUse" gradientTransform="matrix(.0038 0 0 .00366 9.85 13.25)" spreadMethod="pad" cx="0" cy="0" r="819.2" fx="210508" fy="0"><stop offset="0" stop-color="#fff" stop-opacity=".263"/><stop offset=".988" stop-color="#fff" stop-opacity="0"/></radialGradient><path d="M9.9 12.25l1.45.95v.1l-1.5-.05-.65-.3-2.35-.4q.8-1.1 1.65-1.1l1.4.8" fill="url(#q)"/><radialGradient id="r" gradientUnits="userSpaceOnUse" gradientTransform="matrix(.00328 0 0 .00653 7.3 20.35)" spreadMethod="pad" cx="0" cy="0" r="819.2" fx="0" fy="0"><stop offset="0" stop-color="#fff" stop-opacity=".29"/><stop offset=".988" stop-color="#fff" stop-opacity="0"/></radialGradient><path d="M6.7 17.65l2.35.1q.4.2.4.8l-.15.75-.25 1-.05.15-.3.85-1.4 4.15Q6.85 25.3 6 23q-.95-2.3-1.05-3.75-.15-1.45 1.75-1.6" fill="url(#r)"/><radialGradient id="s" gradientUnits="userSpaceOnUse" gradientTransform="matrix(.0056 0 0 .00296 12.6 29.35)" spreadMethod="pad" cx="0" cy="0" r="819.2" fx="0" fy="0"><stop offset="0" stop-color="#fff" stop-opacity=".251"/><stop offset=".988" stop-color="#fff" stop-opacity="0"/></radialGradient><path d="M10.05 30.65q-1-.55-1-1.3t1-1.3q1.1-.55 2.55-.55 1.5 0 2.55.55 1.1.55 1.1 1.3t-1.1 1.3q-1.05.55-2.55.55-1.45 0-2.55-.55" fill="url(#s)"/><radialGradient id="t" gradientUnits="userSpaceOnUse" gradientTransform="translate(19.1 3.6) scale(.01132)" spreadMethod="pad" cx="0" cy="0" r="819.2" fx="0" fy="0"><stop offset="0" stop-color="#fff" stop-opacity=".161"/><stop offset="1" stop-color="#fff" stop-opacity="0"/></radialGradient><path d="M13.25.45Q18.95 2 19.9 3.1q2.05 2.45 2.05 4.75 0 3.7-6.2 3.7l-1.7-.25q-.6-.5-1.2-2.15-.6-1.9-.5-2.9l-.05-2.3q0-2.2.85-3.55l.1.05" fill="url(#t)"/><radialGradient id="u" gradientUnits="userSpaceOnUse" gradientTransform="matrix(.00972 0 0 .00972 5.6 7.85)" spreadMethod="pad" cx="0" cy="0" r="819.2" fx="0" fy="0"><stop offset="0" stop-color="#fff" stop-opacity=".502"/><stop offset="1" stop-color="#fff" stop-opacity="0"/></radialGradient><path d="M4.3 5.75q-1.75 3-1.75 5.8 0 1.85.55 3.1v.25h-.05q-.85-2.8-.85-5.15l.15-1.4q0-1.1 2.15-4.1Q6.05 1.9 9 .8h.05Q6.15 2.6 4.3 5.75" fill="url(#u)"/><radialGradient id="v" gradientUnits="userSpaceOnUse" gradientTransform="matrix(.00937 0 0 .00937 18.7 7.45)" spreadMethod="pad" cx="0" cy="0" r="819.2" fx="0" fy="0"><stop offset="0" stop-color="#fff" stop-opacity=".643"/><stop offset="1" stop-color="#fff" stop-opacity="0"/></radialGradient><path d="M14.7.9h.4q3.55.55 5.75 3.7 1.9 2.65 1.9 5.45l-.5 3.9h-.05l.2-2.05q0-3.3-1.7-6.3-2.2-3.8-6-4.7" fill="url(#v)"/><radialGradient id="w" gradientUnits="userSpaceOnUse" gradientTransform="matrix(.01086 0 0 .01086 12.1 3.65)" spreadMethod="pad" cx="0" cy="0" r="819.2" fx="0" fy="0"><stop offset="0" stop-color="#fff" stop-opacity=".502"/><stop offset="1" stop-color="#fff" stop-opacity="0"/></radialGradient><path d="M6.9 1.75q1.65-1 3.3-1.4l2.25-.3 1.9.15 1.35.4 1.3.6 1.95 1.35q1.1.9 1.95 2.35-.5 2.25-2.55 3.95Q15.75 11 12.1 11T5.85 8.85q-2.3-1.9-2.55-4.6l1.1-.85q.85-.7 2.5-1.65" fill="url(#w)"/></g></svg>