<?xml version="1.0" encoding="utf-8"?>
<svg version="1.1" id="Layer_1"
xmlns="http://www.w3.org/2000/svg"
xmlns:xlink="http://www.w3.org/1999/xlink"
xmlns:author="http://www.sothink.com"
width="25px" height="32px"
xml:space="preserve">
<g id="155" transform="matrix(1, 0, 0, 1, 0, 0)">
<radialGradient
id="RadialGradID_1575" gradientUnits="userSpaceOnUse" gradientTransform="matrix(0.00517273, 0, 0, 0.00640869, 20.3, 16.55)" spreadMethod ="pad" cx="0" cy="0" r="819.2" fx="0" fy="0" >
<stop  offset="0"  style="stop-color:#FB8F62;stop-opacity:1" />
<stop  offset="0.698039"  style="stop-color:#FEC7A3;stop-opacity:1" />
<stop  offset="1"  style="stop-color:#FEDEC1;stop-opacity:1" />
</radialGradient>
<path style="fill:url(#RadialGradID_1575) " d="M22.1,14.25L22.8 13.8L23.6 13.55Q24.1 13.55 24.3 13.95Q24.55 14.45 24.65 16.1L23.55 18.6L22 21.25L21.6 21.5L21.3 21.5L21 21.5L22.1 14.25M24.1,14.7L23.85 14.35Q23.15 14.75 22.55 15.65Q22 16.6 22 17.05L22.1 17.6L21.9 18.3L21.7 19.05Q21.7 19.55 21.85 19.7L22.2 19.1L22.8 18.8L22.75 17.5L23.4 15.3L23.55 16.2L23.25 18.6Q23.8 17.75 23.95 16.8L24 16.6L24.15 15.6L24.1 14.7" />
<radialGradient
id="RadialGradID_1576" gradientUnits="userSpaceOnUse" gradientTransform="matrix(0.00344849, 0.000930786, -0.00144958, 0.00538635, 21.6, 16.75)" spreadMethod ="pad" cx="0" cy="0" r="819.2" fx="0" fy="0" >
<stop  offset="0"  style="stop-color:#EA8440;stop-opacity:1" />
<stop  offset="1"  style="stop-color:#FCC7A5;stop-opacity:1" />
</radialGradient>
<path style="fill:url(#RadialGradID_1576) " d="M24.15,15.6L24 16.6L23.95 16.8Q23.8 17.75 23.25 18.6L23.55 16.2L23.4 15.3L22.75 17.5L22.8 18.8L22.2 19.1L21.85 19.7Q21.7 19.55 21.7 19.05L21.9 18.3L22.1 17.6L22 17.05Q22 16.6 22.55 15.65Q23.15 14.75 23.85 14.35L24.1 14.7L24.15 15.6" />
<path style="fill:none;stroke-width:0.05;stroke-linecap:round;stroke-linejoin:round;stroke-miterlimit:3;stroke:#B76340;stroke-opacity:0.501961" d="M22.1,14.25L22.8 13.8L23.6 13.55Q24.1 13.55 24.3 13.95Q24.55 14.45 24.65 16.1L23.55 18.6L22 21.25L21.6 21.5L21.3 21.5L21 21.5" />
<radialGradient
id="RadialGradID_1577" gradientUnits="userSpaceOnUse" gradientTransform="matrix(-0.00517273, 0, 0, 0.00640869, 4.35, 16.55)" spreadMethod ="pad" cx="0" cy="0" r="819.2" fx="0" fy="0" >
<stop  offset="0"  style="stop-color:#FB8F62;stop-opacity:1" />
<stop  offset="0.698039"  style="stop-color:#FEC7A3;stop-opacity:1" />
<stop  offset="1"  style="stop-color:#FEDEC1;stop-opacity:1" />
</radialGradient>
<path style="fill:url(#RadialGradID_1577) " d="M2.55,14.25L1.85 13.8L1.05 13.55Q0.55 13.55 0.35 13.95Q0.1 14.45 0 16.1L1.1 18.6L2.65 21.25L3.05 21.5L3.35 21.5L3.65 21.5L2.55 14.25M0.55,14.7Q0.6 14.35 0.8 14.35L2.1 15.65L2.65 17.05L2.55 17.6L2.75 18.3L2.95 19.05L2.8 19.7L2.45 19.1L1.85 18.8Q1.65 18.7 1.9 17.5Q1.4 16.45 1.25 15.3L1.1 16.2L1.4 18.6Q0.85 17.75 0.7 16.8L0.65 16.6L0.5 15.6L0.55 14.7" />
<radialGradient
id="RadialGradID_1578" gradientUnits="userSpaceOnUse" gradientTransform="matrix(-0.00344849, 0.000930786, 0.00144958, 0.00538635, 3.05, 16.75)" spreadMethod ="pad" cx="0" cy="0" r="819.2" fx="0" fy="0" >
<stop  offset="0"  style="stop-color:#EA8440;stop-opacity:1" />
<stop  offset="1"  style="stop-color:#FCC7A5;stop-opacity:1" />
</radialGradient>
<path style="fill:url(#RadialGradID_1578) " d="M0.5,15.6L0.65 16.6L0.7 16.8Q0.85 17.75 1.4 18.6L1.1 16.2L1.25 15.3Q1.4 16.45 1.9 17.5Q1.65 18.7 1.85 18.8L2.45 19.1L2.8 19.7L2.95 19.05L2.75 18.3L2.55 17.6L2.65 17.05L2.1 15.65L0.8 14.35Q0.6 14.35 0.55 14.7L0.5 15.6" />
<path style="fill:none;stroke-width:0.05;stroke-linecap:round;stroke-linejoin:round;stroke-miterlimit:3;stroke:#B76340;stroke-opacity:0.501961" d="M2.55,14.25L1.85 13.8L1.05 13.55Q0.55 13.55 0.35 13.95Q0.1 14.45 0 16.1L1.1 18.6L2.65 21.25L3.05 21.5L3.35 21.5L3.65 21.5" />
<path style="fill:#FBCDAF;fill-opacity:1" d="M7.9,25.05L7.2 24.1L6.35 21.55L5.2 17.75L5.2 17.55L5.25 16.95L5.4 15.55L6.7 14.15Q7.45 13.3 7.45 12.2L7.45 1.3Q9.6 0 12.3 0.05Q15.2 0 17.5 1.5L17.5 6.95L17.45 8.55L17.4 10.4Q17.35 13.9 19.25 15.9L19.35 16.8Q18.9 17.7 18.55 20.35Q18.15 23 17.75 23.95L17.7 24.05Q17.3 24.9 16.1 25.7L15.9 25.8L14.6 25.55Q13.65 25.2 14.3 26.75Q15.05 28.3 14.7 29.1Q14.45 29.85 13.4 30.25L12.35 30.45L12.3 30.45L11.2 30.25Q10.2 29.85 9.9 29.1Q9.6 28.3 10.3 26.75Q11 25.2 10 25.55L8.65 25.85L7.9 25.05" />
<linearGradient
id="LinearGradID_1579" gradientUnits="userSpaceOnUse" gradientTransform="matrix(0.00657654, -0.00108337, 0.00265503, 0.0160828, 4.7, 19.9)" spreadMethod ="pad" x1="-819.2" y1="0" x2="819.2" y2="0" >
<stop  offset="0" style="stop-color:#F0B192;stop-opacity:1" />
<stop  offset="1" style="stop-color:#FBC9AB;stop-opacity:1" />
</linearGradient>
<path style="fill:url(#LinearGradID_1579) " d="M7.45,12.2Q7.45 13.3 6.7 14.15L5.4 15.55L5.25 16.95L5.2 17.55L5.2 17.75Q5.15 18.75 5.25 19.75L5.55 21.95Q5.75 23.35 6.25 24.6Q6.8 25.9 7.9 25.9L8.65 25.85L10 25.55Q11 25.2 10.3 26.75Q9.6 28.3 9.9 29.1Q10.2 29.85 11.2 30.25L12.3 30.45L12.35 30.45L12.35 31.1L12.15 31.1L10.15 30.65L9.8 30.5Q8.4 30 7.05 28.75L6.15 27.9L5 26.4L4.5 23.4Q4.15 19.95 4.15 17.3L4.15 17.15L4.15 17L3.9 13.2L3.9 13.1L3.8 13.55L3.4 5.6L3.4 5.55Q4 4.25 5.05 3.25Q6.15 2.05 7.45 1.3L7.45 12.2" />
<linearGradient
id="LinearGradID_1580" gradientUnits="userSpaceOnUse" gradientTransform="matrix(-0.00720215, -0.00192261, 0.00405884, -0.0151215, 21.4, 19.8)" spreadMethod ="pad" x1="-819.2" y1="0" x2="819.2" y2="0" >
<stop  offset="0" style="stop-color:#F0B192;stop-opacity:1" />
<stop  offset="1" style="stop-color:#FBC9AB;stop-opacity:1" />
</linearGradient>
<path style="fill:url(#LinearGradID_1580) " d="M19.6,26.6L18.6 27.9L17.7 28.75Q16.1 30.15 14.55 30.65L12.6 31.1L12.35 31.1L12.35 30.45L13.4 30.25Q14.45 29.85 14.7 29.1Q15.05 28.3 14.3 26.75Q13.65 25.2 14.6 25.55L15.9 25.8L16.7 25.9Q17.85 25.9 18.35 24.6L18.6 24.05L19.1 21.95L19.35 19.75L19.45 18L19.35 16.95L19.35 16.8L19.25 15.9Q17.35 13.9 17.4 10.4L17.45 8.55L17.5 6.95L17.5 1.5Q18.6 2.2 19.55 3.25Q21.15 5 21.9 7.1L21.3 10.6L20.7 13.2L20.5 16.95L20.5 17.15L20.45 18.1L20.1 23.4L20 24.2L19.6 26.6" />
<radialGradient
id="RadialGradID_1581" gradientUnits="userSpaceOnUse" gradientTransform="matrix(0.0169373, 0, 0, 0.0218964, 20.35, 18.7)" spreadMethod ="pad" cx="0" cy="0" r="819.2" fx="0" fy="0" >
<stop  offset="0.317647"  style="stop-color:#F0B192;stop-opacity:1" />
<stop  offset="1"  style="stop-color:#FBC9AB;stop-opacity:1" />
</radialGradient>
<path style="fill:url(#RadialGradID_1581) " d="M20,24.2L20.1 23.4L20.45 18.1L20.5 17.15L20.5 16.95L20.7 13.2L21.3 10.6L21.9 7.1Q22.55 8.9 22.55 10.95L22.15 14.3L21.8 15.8L21.5 17.1L21.5 17.3L21.5 17.45L21.5 18.15L21.45 20.05L21 23.8L20.9 24.25L19.6 26.6L20 24.2M21.5,17.3L21.45 17.3L21.45 17.4L21.5 17.3" />
<radialGradient
id="RadialGradID_1582" gradientUnits="userSpaceOnUse" gradientTransform="matrix(0.0261383, 0, 0, 0.0306702, 4.3, 16.45)" spreadMethod ="pad" cx="0" cy="0" r="819.2" fx="0" fy="0" >
<stop  offset="0.317647"  style="stop-color:#F0B192;stop-opacity:1" />
<stop  offset="1"  style="stop-color:#FBC9AB;stop-opacity:1" />
</radialGradient>
<path style="fill:url(#RadialGradID_1582) " d="M3.4,5.6L3.8 13.55L3.9 13.1L3.9 13.2L4.15 17L4.15 17.15L4.15 17.3Q4.15 19.95 4.5 23.4L5 26.4Q4.05 25.05 3.75 23.8Q3.3 21.95 3.25 20.05L3.25 17.7L3.25 17.1L3.25 17L3.15 17.65L3.15 18.15L2.15 12.3L2.1 10.95L2.1 10.9L2.1 10.45L2.1 10.4L2.3 8.35Q2.6 6.85 3.4 5.6" />
<linearGradient
id="LinearGradID_1583" gradientUnits="userSpaceOnUse" gradientTransform="matrix(-0.00292969, -0.000991821, 0.00170898, -0.00514221, 20.3, 23.6)" spreadMethod ="pad" x1="-819.2" y1="0" x2="819.2" y2="0" >
<stop  offset="0" style="stop-color:#F0B192;stop-opacity:1" />
<stop  offset="1" style="stop-color:#FBC9AB;stop-opacity:1" />
</linearGradient>
<path style="fill:url(#LinearGradID_1583) " d="M16.1,25.7Q17.3 24.9 17.7 24.05L17.75 23.95Q18.15 23 18.55 20.35Q18.9 17.7 19.35 16.8L19.35 16.95L19.45 18L19.35 19.75L19.1 21.95L18.6 24.05L18.35 24.6Q17.85 25.9 16.7 25.9L15.9 25.8L16.1 25.7" />
<linearGradient
id="LinearGradID_1584" gradientUnits="userSpaceOnUse" gradientTransform="matrix(0.00279236, -0.000747681, 0.00131226, 0.00518799, 4.9, 23.55)" spreadMethod ="pad" x1="-819.2" y1="0" x2="819.2" y2="0" >
<stop  offset="0" style="stop-color:#F0B192;stop-opacity:1" />
<stop  offset="1" style="stop-color:#FBC9AB;stop-opacity:1" />
</linearGradient>
<path style="fill:url(#LinearGradID_1584) " d="M8.65,25.85L7.9 25.9Q6.8 25.9 6.25 24.6Q5.75 23.35 5.55 21.95L5.25 19.75Q5.15 18.75 5.2 17.75L6.35 21.55L7.2 24.1L7.9 25.05L8.65 25.85" />
<radialGradient
id="RadialGradID_1585" gradientUnits="userSpaceOnUse" gradientTransform="matrix(0.0111847, 0, 0, 0.0111847, 15.1, -2.25)" spreadMethod ="pad" cx="0" cy="0" r="819.2" fx="41" fy="0" >
<stop  offset="0"  style="stop-color:#FEEADE;stop-opacity:1" />
<stop  offset="0.988235"  style="stop-color:#FEDEC2;stop-opacity:1" />
</radialGradient>
<path style="fill:url(#RadialGradID_1585) " d="M2.3,8.35L2.1 10.4L2.1 10.45L2.1 10.9Q2.05 9.6 2.3 8.35M21.45,17.4L21.45 17.3L21.5 17.3L21.45 17.4" />
<path style="fill:none;stroke-width:0.05;stroke-linecap:round;stroke-linejoin:round;stroke-miterlimit:3;stroke:#B76340;stroke-opacity:0.501961" d="M7.45,1.3Q6.15 2.05 5.05 3.25Q4 4.25 3.4 5.55L3.4 5.6M3.25,17L3.25 17.1L3.25 17.7L3.25 20.05Q3.3 21.95 3.75 23.8Q4.05 25.05 5 26.4L6.15 27.9L7.05 28.75Q8.4 30 9.8 30.5L10.15 30.65L12.15 31.1L12.35 31.1M7.45,1.3Q9.6 0 12.3 0.05Q15.2 0 17.5 1.5Q18.6 2.2 19.55 3.25Q21.15 5 21.9 7.1Q22.55 8.9 22.55 10.95L22.15 14.3L21.8 15.8L21.5 17.1L21.5 17.3L21.5 17.45L21.5 18.15L21.45 20.05L21 23.8L20.9 24.25L19.6 26.6L18.6 27.9L17.7 28.75Q16.1 30.15 14.55 30.65L12.6 31.1L12.35 31.1M2.1,10.9Q2.05 9.6 2.3 8.35L2.1 10.4L2.1 10.45L2.1 10.9L2.1 10.95L2.15 12.3L3.15 18.15M2.3,8.35Q2.6 6.85 3.4 5.6M21.5,17.3L21.45 17.4" />
<radialGradient
id="RadialGradID_1586" gradientUnits="userSpaceOnUse" gradientTransform="matrix(0.00679016, 0, 0, 0.004776, 11.85, 11.15)" spreadMethod ="pad" cx="0" cy="0" r="819.2" fx="210508" fy="0" >
<stop  offset="0"  style="stop-color:#FFFFFF;stop-opacity:0.243137" />
<stop  offset="0.988235"  style="stop-color:#FFFFFF;stop-opacity:0" />
</radialGradient>
<path style="fill:url(#RadialGradID_1586) " d="M7.9,8.8L8.5 8.55Q9.95 7.9 11.85 7.9L13.8 8.1Q14.8 8.25 15.6 8.7L15.85 8.8L17.1 10L17.45 11.15Q17.45 12.55 15.95 13.45L15.85 13.5Q14.2 14.55 11.85 14.55Q10.1 14.55 8.75 13.95L7.9 13.5Q6.3 12.6 6.3 11.15Q6.3 9.75 7.9 8.8" />
<radialGradient
id="RadialGradID_1587" gradientUnits="userSpaceOnUse" gradientTransform="matrix(0.00282288, 0.000778198, -0.00135803, 0.00502014, 7.25, 21.15)" spreadMethod ="pad" cx="0" cy="0" r="819.2" fx="0" fy="0" >
<stop  offset="0"  style="stop-color:#FFFFFF;stop-opacity:0.352941" />
<stop  offset="0.988235"  style="stop-color:#FFFFFF;stop-opacity:0" />
</radialGradient>
<path style="fill:url(#RadialGradID_1587) " d="M5.75,18.3Q6.7 17.9 9.2 18.8L9.35 19.15Q9.85 20 9.7 21.05L9.4 22.1Q8.4 24.15 6.65 25.3Q4.3 23.25 4.55 20.95Q4.75 18.6 5.75 18.3" />
<radialGradient
id="RadialGradID_1588" gradientUnits="userSpaceOnUse" gradientTransform="matrix(0.00265503, 0.000717163, -0.00135803, 0.00508118, 17.2, 20.45)" spreadMethod ="pad" cx="0" cy="0" r="819.2" fx="0" fy="0" >
<stop  offset="0"  style="stop-color:#FFFFFF;stop-opacity:0.352941" />
<stop  offset="0.988235"  style="stop-color:#FFFFFF;stop-opacity:0" />
</radialGradient>
<path style="fill:url(#RadialGradID_1588) " d="M19.35,20.05L18.45 22.55L17.55 24.65L16.9 24.05L16.4 23.15L15.25 21.25L14.35 19.2L14.15 18.7L15.5 19.2Q16.2 19.5 17.5 18.8L19.2 18.7Q19.6 19.3 19.35 20.05" />
<radialGradient
id="RadialGradID_1589" gradientUnits="userSpaceOnUse" gradientTransform="matrix(0.00390625, 0, 0, 0.00227356, 12.4, 28.7)" spreadMethod ="pad" cx="0" cy="0" r="819.2" fx="0" fy="0" >
<stop  offset="0.0705882"  style="stop-color:#FFFFFF;stop-opacity:0.372549" />
<stop  offset="0.988235"  style="stop-color:#FFFFFF;stop-opacity:0" />
</radialGradient>
<path style="fill:url(#RadialGradID_1589) " d="M10.75,27.85Q11.5 27.4 12.5 27.4Q13.6 27.4 14.35 27.85Q15.1 28.25 15.1 28.85Q15.1 29.45 14.35 29.9L12.5 30.3Q11.5 30.3 10.75 29.9Q10 29.45 10 28.85Q10 28.25 10.75 27.85" />
<radialGradient
id="RadialGradID_1590" gradientUnits="userSpaceOnUse" gradientTransform="matrix(0.0018158, -0.00105286, 0.00128174, 0.00222778, 14.5, 23.35)" spreadMethod ="pad" cx="0" cy="0" r="819.2" fx="0" fy="0" >
<stop  offset="0"  style="stop-color:#FFFFFF;stop-opacity:0.392157" />
<stop  offset="0.988235"  style="stop-color:#FFFFFF;stop-opacity:0" />
</radialGradient>
<path style="fill:url(#RadialGradID_1590) " d="M15.9,24.85L15.35 25.1L14.2 24.3Q13.2 23.65 13.2 23.1L13.2 22.95L13.25 22.85Q14.25 22.55 14.65 22.15Q15.45 22.85 15.7 23.75L15.85 24.75L15.9 24.85" />
<radialGradient
id="RadialGradID_1591" gradientUnits="userSpaceOnUse" gradientTransform="matrix(0.0010376, 0.00720215, -0.00300598, 0.000427246, 13.35, 10.65)" spreadMethod ="pad" cx="0" cy="0" r="819.2" fx="210508" fy="0" >
<stop  offset="0"  style="stop-color:#FFFFFF;stop-opacity:0.231373" />
<stop  offset="0.988235"  style="stop-color:#FFFFFF;stop-opacity:0" />
</radialGradient>
<path style="fill:url(#RadialGradID_1591) " d="M15.25,13.3Q14.75 14.6 13.9 14.7Q13 14.85 12.25 13.75Q11.45 12.6 11.25 10.95Q11 9.25 11.4 8.05Q11.85 6.75 12.75 6.6Q13.6 6.5 14.4 7.6Q15.2 8.65 15.45 10.35Q15.65 12 15.25 13.3" />
<radialGradient
id="RadialGradID_1592" gradientUnits="userSpaceOnUse" gradientTransform="matrix(0.00360107, 0, 0, 0.00192261, 15.75, 13.95)" spreadMethod ="pad" cx="0" cy="0" r="819.2" fx="0" fy="0" >
<stop  offset="0"  style="stop-color:#FFFFFF;stop-opacity:0.392157" />
<stop  offset="0.988235"  style="stop-color:#FFFFFF;stop-opacity:0" />
</radialGradient>
<path style="fill:url(#RadialGradID_1592) " d="M17.85,13.65Q15.7 14.75 14.95 14.75L14.4 14.7Q14.15 14.6 14.15 14.15L14.15 13.9L14.5 13.75L17.45 13.45L17.85 13.65" />
<radialGradient
id="RadialGradID_1593" gradientUnits="userSpaceOnUse" gradientTransform="matrix(-0.00382996, 0, 0, 0.00192261, 8.95, 13.95)" spreadMethod ="pad" cx="0" cy="0" r="819.2" fx="0" fy="0" >
<stop  offset="0"  style="stop-color:#FFFFFF;stop-opacity:0.392157" />
<stop  offset="0.988235"  style="stop-color:#FFFFFF;stop-opacity:0" />
</radialGradient>
<path style="fill:url(#RadialGradID_1593) " d="M7.25,13.45L10.2 13.75L10.55 13.9L10.55 14.15L10.3 14.7L9.75 14.75Q9 14.75 6.85 13.65L7.25 13.45" />
<radialGradient
id="RadialGradID_1594" gradientUnits="userSpaceOnUse" gradientTransform="matrix(0.0108795, 0, 0, 0.0108795, 18.7, 3.45)" spreadMethod ="pad" cx="0" cy="0" r="819.2" fx="0" fy="0" >
<stop  offset="0"  style="stop-color:#FFFFFF;stop-opacity:0.160784" />
<stop  offset="1"  style="stop-color:#FFFFFF;stop-opacity:0" />
</radialGradient>
<path style="fill:url(#RadialGradID_1594) " d="M13.05,0.4Q18.55 1.95 19.45 2.95Q21.45 5.3 21.45 7.5Q21.45 11.1 15.5 11.1L13.85 10.85Q13.25 10.4 12.7 8.75Q12.1 6.95 12.2 6L12.15 3.75Q12.15 1.65 12.95 0.35L13.05 0.4" />
<radialGradient
id="RadialGradID_1595" gradientUnits="userSpaceOnUse" gradientTransform="matrix(0.00933838, 0, 0, 0.00933838, 5.75, 7.55)" spreadMethod ="pad" cx="0" cy="0" r="819.2" fx="0" fy="0" >
<stop  offset="0"  style="stop-color:#FFFFFF;stop-opacity:0.501961" />
<stop  offset="1"  style="stop-color:#FFFFFF;stop-opacity:0" />
</radialGradient>
<path style="fill:url(#RadialGradID_1595) " d="M4.45,5.55Q2.8 8.4 2.8 11.1Q2.8 12.85 3.3 14.1L3.3 14.3L3.25 14.3Q2.45 11.6 2.45 9.35L2.6 8Q2.6 6.95 4.65 4.1Q6.15 1.8 8.95 0.75L9 0.75Q6.2 2.45 4.45 5.55" />
<radialGradient
id="RadialGradID_1596" gradientUnits="userSpaceOnUse" gradientTransform="matrix(0.00900269, 0, 0, 0.00900269, 18.35, 7.15)" spreadMethod ="pad" cx="0" cy="0" r="819.2" fx="0" fy="0" >
<stop  offset="0"  style="stop-color:#FFFFFF;stop-opacity:0.643137" />
<stop  offset="1"  style="stop-color:#FFFFFF;stop-opacity:0" />
</radialGradient>
<path style="fill:url(#RadialGradID_1596) " d="M14.45,0.85L14.85 0.85Q18.25 1.4 20.35 4.4Q22.2 6.95 22.2 9.6L21.7 13.4L21.65 13.4L21.9 11.4Q21.9 8.25 20.2 5.35Q18.1 1.7 14.45 0.85" />
<radialGradient
id="RadialGradID_1597" gradientUnits="userSpaceOnUse" gradientTransform="matrix(0.010437, 0, 0, 0.010437, 12, 3.5)" spreadMethod ="pad" cx="0" cy="0" r="819.2" fx="0" fy="0" >
<stop  offset="0"  style="stop-color:#FFFFFF;stop-opacity:0.501961" />
<stop  offset="1"  style="stop-color:#FFFFFF;stop-opacity:0" />
</radialGradient>
<path style="fill:url(#RadialGradID_1597) " d="M7,1.65Q8.55 0.7 10.15 0.3L12.3 0.05L14.15 0.15L15.4 0.6L16.65 1.15Q17.45 1.5 18.55 2.4L20.4 4.65Q19.95 6.9 17.95 8.5Q15.5 10.55 12 10.55Q8.45 10.55 5.95 8.5Q3.75 6.65 3.5 4.1L4.55 3.3L7 1.65" />
</g>
</svg>
