<svg xmlns="http://www.w3.org/2000/svg" width="25" height="32"><g><radialGradient id="a" gradientUnits="userSpaceOnUse" gradientTransform="matrix(.00517 0 0 .0064 20.3 17.3)" spreadMethod="pad" cx="0" cy="0" r="819.2" fx="0" fy="0"><stop offset="0" stop-color="#fb8f62"/><stop offset=".698" stop-color="#fec7a3"/><stop offset="1" stop-color="#fedec1"/></radialGradient><path d="M24.1 15.45l-.25-.35q-.7.4-1.3 1.3-.55.95-.55 1.4l.1.55-.2.7-.2.75q0 .5.15.65l.35-.6.6-.3-.05-1.3.65-2.2.15.9-.3 2.4q.55-.85.7-1.8l.05-.2.15-1-.05-.9m-2-.45l.7-.45.8-.25q.5 0 .7.4.25.5.35 2.15l-1.1 2.5L22 22l-.4.25H21L22.1 15" fill="url(#a)"/><radialGradient id="b" gradientUnits="userSpaceOnUse" gradientTransform="matrix(.00345 .00093 -.00145 .00539 21.6 17.5)" spreadMethod="pad" cx="0" cy="0" r="819.2" fx="0" fy="0"><stop offset="0" stop-color="#ea8440"/><stop offset="1" stop-color="#fcc7a5"/></radialGradient><path d="M24.15 16.35l-.15 1-.05.2q-.15.95-.7 1.8l.3-2.4-.15-.9-.65 2.2.05 1.3-.6.3-.35.6q-.15-.15-.15-.65l.2-.75.2-.7-.1-.55q0-.45.55-1.4.6-.9 1.3-1.3l.25.35.05.9" fill="url(#b)"/><path d="M22.1 15l.7-.45.8-.25q.5 0 .7.4.25.5.35 2.15l-1.1 2.5L22 22l-.4.25H21" fill="none" stroke-width=".05" stroke-linecap="round" stroke-linejoin="round" stroke-miterlimit="3" stroke="#b76340" stroke-opacity=".502"/><radialGradient id="c" gradientUnits="userSpaceOnUse" gradientTransform="matrix(-.00517 0 0 .0064 4.35 17.3)" spreadMethod="pad" cx="0" cy="0" r="819.2" fx="0" fy="0"><stop offset="0" stop-color="#fb8f62"/><stop offset=".698" stop-color="#fec7a3"/><stop offset="1" stop-color="#fedec1"/></radialGradient><path d="M.55 15.45q.05-.35.25-.35l1.3 1.3.55 1.4-.1.55.2.7.2.75-.15.65-.35-.6-.6-.3q-.2-.1.05-1.3-.5-1.05-.65-2.2l-.15.9.3 2.4q-.55-.85-.7-1.8l-.05-.2-.15-1 .05-.9m2-.45l-.7-.45-.8-.25q-.5 0-.7.4-.25.5-.35 2.15l1.1 2.5L2.65 22l.4.25h.6L2.55 15" fill="url(#c)"/><radialGradient id="d" gradientUnits="userSpaceOnUse" gradientTransform="matrix(-.00345 .00093 .00145 .00539 3.05 17.5)" spreadMethod="pad" cx="0" cy="0" r="819.2" fx="0" fy="0"><stop offset="0" stop-color="#ea8440"/><stop offset="1" stop-color="#fcc7a5"/></radialGradient><path d="M.5 16.35l.15 1 .05.2q.15.95.7 1.8l-.3-2.4.15-.9q.15 1.15.65 2.2-.25 1.2-.05 1.3l.6.3.35.6.15-.65-.2-.75-.2-.7.1-.55-.55-1.4-1.3-1.3q-.2 0-.25.35l-.05.9" fill="url(#d)"/><path d="M2.55 15l-.7-.45-.8-.25q-.5 0-.7.4-.25.5-.35 2.15l1.1 2.5L2.65 22l.4.25h.6" fill="none" stroke-width=".05" stroke-linecap="round" stroke-linejoin="round" stroke-miterlimit="3" stroke="#b76340" stroke-opacity=".502"/><radialGradient id="e" gradientUnits="userSpaceOnUse" gradientTransform="translate(11.8 11.5) scale(.02371)" spreadMethod="pad" cx="0" cy="0" r="819.2" fx="210515" fy="0"><stop offset="0" stop-color="#fbd3b5"/><stop offset="1" stop-color="#fbc9ab"/></radialGradient><path d="M18.3 24.8q-.25.8-1.05 1l-.85-.2-1-.25h-.05l-.75.8q-.3.3-.3.55l.3 1.15.3 1.45-.35.8q-.4.35-2.1.8-1.75-.45-2.1-.8-.45-.35-.35-.8l.3-1.45.25-1.15-.25-.55-.8-.75-.05-.05-.95.25-.9.2q-.8-.2-1-1l-.1-.45-1.2-5.05-.2-.8-.1-1.2q0-.4 1.05-2.15 1-1.75 1-3.05L6.7 8.4l-.05-.7-.8-5.45Q8.6 0 12.35.05 16.2 0 19.1 2.5l-.85 5.15-.05.75q-.35 2.45-.35 3.7-.05 1.3 1 3.05 1 1.75 1 2.15l-.1 1.2-.35 1.6-.9 3.7-.2 1" fill="url(#e)"/><linearGradient id="f" gradientUnits="userSpaceOnUse" gradientTransform="matrix(.00697 -.00032 .0008 .01685 1.7 19.5)" x1="-819.2" x2="819.2"><stop offset="0" stop-color="#f0b192"/><stop offset="1" stop-color="#fbc9ab"/></linearGradient><path d="M6.65 7.7l.05.7.35 3.7q0 1.3-1 3.05Q5 16.9 5 17.3l.1 1.2.2.8 1.2 5.05q-.6 0-1.3-.75l-.35-.55-.55-3.65-.55-3.4-1.15-4.85-.55-3.9.6-1.2q.65-1.4 1.8-2.5l1.4-1.3.8 5.45" fill="url(#f)"/><linearGradient id="g" gradientUnits="userSpaceOnUse" gradientTransform="matrix(-.00615 -.00021 .00061 -.01804 21.3 18.1)" x1="-819.2" x2="819.2"><stop offset="0" stop-color="#f0b192"/><stop offset="1" stop-color="#fbc9ab"/></linearGradient><path d="M22.15 11.6v.15l-.1.6-.9 3.65-.6 3.7-.4 2.65-.75.65-.9.8.9-3.7.35-1.6.1-1.2q0-.4-1-2.15-1.05-1.75-1-3.05 0-1.25.35-3.7l.05-.75.85-5.15 1.1 1.05q1.7 1.85 2.55 4.1l-.6 3.95" fill="url(#g)"/><radialGradient id="h" gradientUnits="userSpaceOnUse" gradientTransform="matrix(.02338 0 0 .02338 20.95 17.05)" spreadMethod="pad" cx="0" cy="0" r="819.2" fx="0" fy="0"><stop offset="0" stop-color="#f0b192"/><stop offset="1" stop-color="#fbc9ab"/></radialGradient><path d="M20.15 22.35l.4-2.65.6-3.7.9-3.65.1-.6v-.15l.6-3.95q.75 1.95.75 4.3-.05 2-.6 3.9l-.6 1.4-.45 2-1.35 5.25-.95 2.15.6-4.3" fill="url(#h)"/><radialGradient id="i" gradientUnits="userSpaceOnUse" gradientTransform="matrix(.02489 0 0 .02489 2.05 15.7)" spreadMethod="pad" cx="0" cy="0" r="819.2" fx="0" fy="0"><stop offset="0" stop-color="#f0b192"/><stop offset="1" stop-color="#fbc9ab"/></radialGradient><path d="M5.4 26.95L4.25 24.5 2.9 19.3l-.45-1.8q-.95-1.9-1.2-4.05l-.05-1.5V11.35q.05-1.15.25-2.2l.6-1.9.55 3.9L3.75 16l.55 3.4.55 3.65.55 3.9" fill="url(#i)"/><radialGradient id="j" gradientUnits="userSpaceOnUse" gradientTransform="matrix(.0097 0 0 .0097 20.25 29.35)" spreadMethod="pad" cx="0" cy="0" r="819.2" fx="0" fy="0"><stop offset="0" stop-color="#f0b192"/><stop offset="1" stop-color="#fbc9ab"/></radialGradient><path d="M19.55 26.65l-.75 1.15-.85 1.15q-1.8 1.9-3.35 2.45l-1.9.4H12.05l-.15-.05q.3-.8.55-.85 1.7-.45 2.1-.8l.35-.8-.3-1.45-.3-1.15q0-.25.3-.55l.75-.8h.05l1 .25.85.2q.8-.2 1.05-1l.2-1 .9-.8.75-.65-.6 4.3" fill="url(#j)"/><radialGradient id="k" gradientUnits="userSpaceOnUse" gradientTransform="matrix(.0085 0 0 .0085 4.6 30.65)" spreadMethod="pad" cx="0" cy="0" r="819.2" fx="0" fy="0"><stop offset="0" stop-color="#f0b192"/><stop offset="1" stop-color="#fbc9ab"/></radialGradient><path d="M11.9 31.75l-1.75-.35q-1.55-.55-3.35-2.45l-1.4-2-.55-3.9.35.55q.7.75 1.3.75l.1.45q.2.8 1 1l.9-.2.95-.25.05.05.8.75.25.55-.25 1.15-.3 1.45q-.1.45.35.8.35.35 2.1.8-.25.05-.55.85" fill="url(#k)"/><radialGradient id="l" gradientUnits="userSpaceOnUse" gradientTransform="translate(15.35 -2.45) scale(.01216)" spreadMethod="pad" cx="0" cy="0" r="819.2" fx="41" fy="0"><stop offset="0" stop-color="#feeade"/><stop offset=".988" stop-color="#fedec2"/></radialGradient><path d="M1.2 11.95v-.55.55" fill="url(#l)"/><path d="M5.85 2.25l-1.4 1.3q-1.15 1.1-1.8 2.5l-.6 1.2m3.8-5Q8.6 0 12.35.05 16.2 0 19.1 2.5l1.1 1.05q1.7 1.85 2.55 4.1.75 1.95.75 4.3-.05 2-.6 3.9l-.6 1.4-.45 2-1.35 5.25-.95 2.15-.75 1.15-.85 1.15q-1.8 1.9-3.35 2.45l-1.9.4H12.05l-.15-.05-1.75-.35q-1.55-.55-3.35-2.45l-1.4-2-1.15-2.45-1.35-5.2-.45-1.8q-.95-1.9-1.2-4.05l-.05-1.5V11.35q.05-1.15.25-2.2l.6-1.9M1.2 11.4v.55" fill="none" stroke-width=".05" stroke-linecap="round" stroke-linejoin="round" stroke-miterlimit="3" stroke="#b76340" stroke-opacity=".502"/><radialGradient id="m" gradientUnits="userSpaceOnUse" gradientTransform="matrix(.00702 0 0 .003 12.15 7.25)" spreadMethod="pad" cx="0" cy="0" r="819.2" fx="210508" fy="0"><stop offset="0" stop-color="#fff" stop-opacity=".243"/><stop offset=".988" stop-color="#fff" stop-opacity="0"/></radialGradient><path d="M6.4 7.25q0-.9 1.7-1.5l.55-.15 3.5-.4 2.05.1 1.8.4.25.05 1.3.75q.35.35.35.75 0 .85-1.55 1.4l-.1.05-4.1.65-3.2-.4-.85-.25q-1.7-.6-1.7-1.45" fill="url(#m)"/><radialGradient id="n" gradientUnits="userSpaceOnUse" gradientTransform="matrix(.0054 0 0 .0032 12.5 29.15)" spreadMethod="pad" cx="0" cy="0" r="819.2" fx="0" fy="0"><stop offset="0" stop-color="#fff" stop-opacity=".251"/><stop offset=".988" stop-color="#fff" stop-opacity="0"/></radialGradient><path d="M10.05 30.55q-1-.6-1-1.4 0-.8 1-1.4 1.05-.6 2.45-.6 1.45 0 2.45.6 1.05.6 1.05 1.4 0 .8-1.05 1.4-1 .6-2.45.6-1.4 0-2.45-.6" fill="url(#n)"/><radialGradient id="o" gradientUnits="userSpaceOnUse" gradientTransform="matrix(.00317 0 0 .00653 7.45 20)" spreadMethod="pad" cx="0" cy="0" r="819.2" fx="0" fy="0"><stop offset="0" stop-color="#fff" stop-opacity=".29"/><stop offset=".988" stop-color="#fff" stop-opacity="0"/></radialGradient><path d="M6.9 17.3l2.25.1q.4.2.4.8l-.15.75-.25 1-.05.15-.3.85-1.35 4.15q-.4-.15-1.25-2.45-.9-2.3-1-3.75-.15-1.45 1.7-1.6" fill="url(#o)"/><radialGradient id="p" gradientUnits="userSpaceOnUse" gradientTransform="matrix(.00232 0 0 .00665 17.65 19.7)" spreadMethod="pad" cx="0" cy="0" r="819.2" fx="0" fy="0"><stop offset="0" stop-color="#fff" stop-opacity=".29"/><stop offset=".988" stop-color="#fff" stop-opacity="0"/></radialGradient><path d="M15.25 17.45q1.4 1 3.5-.45l.5.4.3.6-.9 6.8-.6.05q-.55-.1-1.3-2.45l-.9-3.05-.6-1.9" fill="url(#p)"/><radialGradient id="q" gradientUnits="userSpaceOnUse" gradientTransform="matrix(.0064 0 0 .00311 11.95 11.9)" spreadMethod="pad" cx="0" cy="0" r="819.2" fx="210508" fy="0"><stop offset="0" stop-color="#fff" stop-opacity=".263"/><stop offset=".988" stop-color="#fff" stop-opacity="0"/></radialGradient><path d="M16.5 12.1q-1.1 1.3-4 3.05-.35 0-.75-.35l-1.25-1.2-2-1.45-.95-.9v-.05l.35-.2H8v-.05l.6-.15 2 .3 3.1-.05 2.7-.35q1.1.05.1 1.4" fill="url(#q)"/><radialGradient id="r" gradientUnits="userSpaceOnUse" gradientTransform="translate(19.3 3.8) scale(.01184)" spreadMethod="pad" cx="0" cy="0" r="819.2" fx="0" fy="0"><stop offset="0" stop-color="#fff" stop-opacity=".161"/><stop offset="1" stop-color="#fff" stop-opacity="0"/></radialGradient><path d="M13.15.45q6 1.65 6.95 2.8 2.15 2.55 2.15 4.95 0 3.9-6.45 3.9l-1.8-.3q-.65-.45-1.25-2.25-.6-1.95-.5-3l-.05-2.4q0-2.3.85-3.75l.1.05" fill="url(#r)"/><radialGradient id="s" gradientUnits="userSpaceOnUse" gradientTransform="translate(5.2 8.25) scale(.01016)" spreadMethod="pad" cx="0" cy="0" r="819.2" fx="0" fy="0"><stop offset="0" stop-color="#fff" stop-opacity=".502"/><stop offset="1" stop-color="#fff" stop-opacity="0"/></radialGradient><path d="M3.8 6.05Q2 9.15 2 12.1q0 1.9.55 3.25v.25H2.5q-.9-2.95-.9-5.4l.15-1.45q0-1.15 2.25-4.3 1.6-2.5 4.7-3.6h.05Q5.7 2.7 3.8 6.05" fill="url(#s)"/><radialGradient id="t" gradientUnits="userSpaceOnUse" gradientTransform="translate(18.9 7.8) scale(.00981)" spreadMethod="pad" cx="0" cy="0" r="819.2" fx="0" fy="0"><stop offset="0" stop-color="#fff" stop-opacity=".643"/><stop offset="1" stop-color="#fff" stop-opacity="0"/></radialGradient><path d="M14.7.95h.4q3.7.6 6 3.85 2 2.8 2 5.7l-.55 4.1h-.05l.25-2.15q0-3.4-1.8-6.6-2.3-3.95-6.25-4.9" fill="url(#t)"/><radialGradient id="u" gradientUnits="userSpaceOnUse" gradientTransform="matrix(.01137 0 0 .01137 12 3.85)" spreadMethod="pad" cx="0" cy="0" r="819.2" fx="0" fy="0"><stop offset="0" stop-color="#fff" stop-opacity=".502"/><stop offset="1" stop-color="#fff" stop-opacity="0"/></radialGradient><path d="M6.55 1.85Q8.25.8 10 .35l2.35-.3 2 .15 1.35.45 1.4.65q.85.35 2.05 1.35 1.1 1 2 2.45-.5 2.4-2.65 4.15-2.7 2.3-6.5 2.3-3.85 0-6.6-2.3-2.4-2-2.6-4.8l1.1-.85q.9-.75 2.65-1.75" fill="url(#u)"/></g></svg>