<svg xmlns="http://www.w3.org/2000/svg" width="25" height="32"><g><radialGradient id="a" gradientUnits="userSpaceOnUse" gradientTransform="matrix(.00517 0 0 .0064 20.3 16.75)" spreadMethod="pad" cx="0" cy="0" r="819.2" fx="0" fy="0"><stop offset="0" stop-color="#fb8f62"/><stop offset=".698" stop-color="#fec7a3"/><stop offset="1" stop-color="#fedec1"/></radialGradient><path d="M24.1 14.9l-.25-.35q-.7.4-1.3 1.3-.55.95-.55 1.4l.1.55-.2.7-.2.75q0 .5.15.65l.35-.6.6-.3-.05-1.3.65-2.2.15.9-.3 2.4q.55-.85.7-1.8l.05-.2.15-1-.05-.9m-2-.45l.7-.45.8-.25q.5 0 .7.4.25.5.35 2.15l-1.1 2.5L22 21.45l-.4.25H21l1.1-7.25" fill="url(#a)"/><radialGradient id="b" gradientUnits="userSpaceOnUse" gradientTransform="matrix(.00345 .00093 -.00145 .00539 21.6 16.95)" spreadMethod="pad" cx="0" cy="0" r="819.2" fx="0" fy="0"><stop offset="0" stop-color="#ea8440"/><stop offset="1" stop-color="#fcc7a5"/></radialGradient><path d="M24.15 15.8l-.15 1-.05.2q-.15.95-.7 1.8l.3-2.4-.15-.9-.65 2.2.05 1.3-.6.3-.35.6q-.15-.15-.15-.65l.2-.75.2-.7-.1-.55q0-.45.55-1.4.6-.9 1.3-1.3l.25.35.05.9" fill="url(#b)"/><path d="M22.1 14.45l.7-.45.8-.25q.5 0 .7.4.25.5.35 2.15l-1.1 2.5L22 21.45l-.4.25H21" fill="none" stroke-width=".05" stroke-linecap="round" stroke-linejoin="round" stroke-miterlimit="3" stroke="#b76340" stroke-opacity=".502"/><radialGradient id="c" gradientUnits="userSpaceOnUse" gradientTransform="matrix(-.00517 0 0 .0064 4.35 16.75)" spreadMethod="pad" cx="0" cy="0" r="819.2" fx="0" fy="0"><stop offset="0" stop-color="#fb8f62"/><stop offset=".698" stop-color="#fec7a3"/><stop offset="1" stop-color="#fedec1"/></radialGradient><path d="M.55 14.9q.05-.35.25-.35l1.3 1.3.55 1.4-.1.55.2.7.2.75-.15.65-.35-.6-.6-.3q-.2-.1.05-1.3-.5-1.05-.65-2.2l-.15.9.3 2.4Q.85 17.95.7 17l-.05-.2-.15-1 .05-.9m2-.45l-.7-.45-.8-.25q-.5 0-.7.4-.25.5-.35 2.15l1.1 2.5 1.55 2.65.4.25h.6l-1.1-7.25" fill="url(#c)"/><radialGradient id="d" gradientUnits="userSpaceOnUse" gradientTransform="matrix(-.00345 .00093 .00145 .00539 3.05 16.95)" spreadMethod="pad" cx="0" cy="0" r="819.2" fx="0" fy="0"><stop offset="0" stop-color="#ea8440"/><stop offset="1" stop-color="#fcc7a5"/></radialGradient><path d="M.5 15.8l.15 1 .05.2q.15.95.7 1.8l-.3-2.4.15-.9q.15 1.15.65 2.2-.25 1.2-.05 1.3l.6.3.35.6.15-.65-.2-.75-.2-.7.1-.55-.55-1.4-1.3-1.3q-.2 0-.25.35l-.05.9" fill="url(#d)"/><path d="M2.55 14.45l-.7-.45-.8-.25q-.5 0-.7.4-.25.5-.35 2.15l1.1 2.5 1.55 2.65.4.25h.6" fill="none" stroke-width=".05" stroke-linecap="round" stroke-linejoin="round" stroke-miterlimit="3" stroke="#b76340" stroke-opacity=".502"/><radialGradient id="e" gradientUnits="userSpaceOnUse" gradientTransform="translate(12.45 12) scale(.0233)" spreadMethod="pad" cx="0" cy="0" r="819.2" fx="210515" fy="0"><stop offset="0" stop-color="#fbd3b5"/><stop offset="1" stop-color="#fbc9ab"/></radialGradient><path d="M6.7 25.05l-.05-.4-.1-1.2-.7-3.35q-.55-1.95.55-3.95l1.1-2.55.2-2.65-.05-3.75-.5-5.8q2.3-1.45 5.2-1.4 2.7-.05 4.95 1.25v5.9l-.05 3.8.15 2.65 1.2 2.55q1.05 2 .55 3.95l-.7 3.35-.15 1.2-.05.4v.05l-1.6 1.3q-1 .85-1.25 1.6l-.7 1.65q-.4.85-2.2 1.35-1.5.05-2-1.15l-.85-1.95-1.35-1.5-1.6-1.3v-.05" fill="url(#e)"/><radialGradient id="f" gradientUnits="userSpaceOnUse" gradientTransform="matrix(.01767 0 0 .01767 2.4 18.1)" spreadMethod="pad" cx="0" cy="0" r="819.2" fx="0" fy="0"><stop offset=".424" stop-color="#f0b192"/><stop offset="1" stop-color="#fbc9ab"/></radialGradient><path d="M5.15 23.85l.75 2.05.5 2.05-1.05-1.1 1.15 1.4 2.4 2 1.5.85-.95-.35-.1-.05-.25-.1-.05-.05-.1-.05-.1-.1-.1-.1-2.4-2-1.25-1.45-.7-1.3-.3-1.15-.3-1.6-.3-2.05-.15-.95-.15-.9-.15-1.05v-.05l-.15-1.35q-.85-1.8-1.1-3.75v-2l.05-1.05.15-1q.35-1.6 1.15-2.95.6-1.2 1.55-2.2L5 8.2l.1 1.35.15 3.15q.1 1.1-.6 3-.7 2-.7 2.6.1 1.75 1.1 5.35l.1.2m6.05 7.55h-.1l-.35-.15.85.15h.05l.2.05h.1l-.75-.05" fill="url(#f)"/><linearGradient id="g" gradientUnits="userSpaceOnUse" gradientTransform="matrix(.00278 0 0 .01224 4.85 14.65)" x1="-819.2" x2="819.2"><stop offset="0" stop-color="#f0b192"/><stop offset="1" stop-color="#fbc9ab"/></linearGradient><path d="M4.85 3.3l2.3-1.9.5 5.8.05 3.75-.2 2.65-1.1 2.55q-1.1 2-.55 3.95l.7 3.35.1 1.2.05.4h-.05l-1.6-1.4q-1-3.6-1.1-5.35 0-.6.7-2.6.7-1.9.6-3L5.1 9.55 5 8.2l-.3-4.7.15-.2" fill="url(#g)"/><radialGradient id="h" gradientUnits="userSpaceOnUse" gradientTransform="matrix(.01707 0 0 .01707 22.5 17.95)" spreadMethod="pad" cx="0" cy="0" r="819.2" fx="0" fy="0"><stop offset=".424" stop-color="#f0b192"/><stop offset="1" stop-color="#fbc9ab"/></radialGradient><path d="M14.4 31.1l1.35-.8 2.4-2 .65-.75.55-.7-.6.7.3-1.65.75-2.05.1-.2q1-3.6 1.1-5.35l-.7-2.6q-.7-1.9-.6-3l.1-3.15.25-1.55.4-3.95q2.45 3.1 2.5 7.3L22.4 15l-.6 1.45-.15 1.4-.45 2.9-.3 2.05-.3 1.6-.3 1.15-.75 1.3-1.2 1.45-2.4 2q-1 .75-2.1 1l.55-.2" fill="url(#h)"/><linearGradient id="i" gradientUnits="userSpaceOnUse" gradientTransform="matrix(-.00356 0 0 -.01227 20.05 14.15)" x1="-819.2" x2="819.2"><stop offset="0" stop-color="#f0b192"/><stop offset="1" stop-color="#fbc9ab"/></linearGradient><path d="M19.85 3.3l.6.75-.4 3.95-.25 1.55-.1 3.15q-.1 1.1.6 3l.7 2.6q-.1 1.75-1.1 5.35-.15.05-1.6 1.4h-.05l.05-.4.15-1.2.7-3.35q.5-1.95-.55-3.95l-1.2-2.55-.15-2.65.05-3.8v-5.9q1.35.8 2.55 2.05" fill="url(#i)"/><radialGradient id="j" gradientUnits="userSpaceOnUse" gradientTransform="matrix(.01154 0 0 .01154 2.55 31.85)" spreadMethod="pad" cx="0" cy="0" r="819.2" fx="0" fy="0"><stop offset="0" stop-color="#f0b192"/><stop offset="1" stop-color="#fbc9ab"/></radialGradient><path d="M11.95 31.45h-.1l-.2-.05h-.05l-.85-.15-.35-.15-1.5-.85-2.4-2-1.15-1.4 1.05 1.1-.5-2.05-.75-2.05-.1-.2 1.6 1.4.05.05 1.6 1.3 1.35 1.5.85 1.95q.5 1.2 2 1.15.2-.05.7.4H13l-.3.05-.35-.05-.15.05h-.25m6.85-3.9h-.05l.6-.7-.55.7m-4.4 3.55l-.55.2.55-.25v.05" fill="url(#j)"/><radialGradient id="k" gradientUnits="userSpaceOnUse" gradientTransform="matrix(.01157 0 0 .01157 21.8 31.2)" spreadMethod="pad" cx="0" cy="0" r="819.2" fx="0" fy="0"><stop offset="0" stop-color="#f0b192"/><stop offset="1" stop-color="#fbc9ab"/></radialGradient><path d="M13.75 31.3l-.25.05-.15.05h-.15q-.5-.45-.7-.4 1.8-.5 2.2-1.35l.7-1.65q.25-.75 1.25-1.6l1.6-1.3.05-.05q1.45-1.35 1.6-1.4l-.1.2-.75 2.05-.3 1.65h.05l-.65.75-2.4 2-1.35.8v-.05l-.55.25h-.1" fill="url(#k)"/><radialGradient id="l" gradientUnits="userSpaceOnUse" gradientTransform="translate(15.2 -2.35) scale(.01155)" spreadMethod="pad" cx="0" cy="0" r="819.2" fx="41" fy="0"><stop offset="0" stop-color="#feeade"/><stop offset=".988" stop-color="#fedec2"/></radialGradient><path d="M1.8 10.7v.55-.55" fill="url(#l)"/><path d="M13.85 31.3q1.1-.25 2.1-1l2.4-2 1.2-1.45.75-1.3.3-1.15.3-1.6.3-2.05.45-2.9.15-1.4.6-1.45.55-3.65q-.05-4.2-2.5-7.3l-.6-.75q-1.2-1.25-2.55-2.05Q15.05-.05 12.35 0q-2.9-.05-5.2 1.4l-2.3 1.9-.15.2q-.95 1-1.55 2.2Q2.35 7.05 2 8.65l-.15 1-.05 1.05v2q.25 1.95 1.1 3.75l.15 1.35v.05l.15 1.05.15.9.15.95.3 2.05.3 1.6.3 1.15.7 1.3 1.25 1.45 2.4 2 .1.1.1.1.1.05.05.05.25.1.1.05.95.35M1.8 11.25v-.55m8.95 20.55l.35.15h.5m-.85-.15l-.35-.15m1.45.35l-.2-.05h-.05m.25.05h.35l.15-.05.35.05.3-.05h.2m.3-.05l-.15.05" fill="none" stroke-width=".05" stroke-linecap="round" stroke-linejoin="round" stroke-miterlimit="3" stroke="#b76340" stroke-opacity=".502"/><radialGradient id="m" gradientUnits="userSpaceOnUse" gradientTransform="matrix(.0066 0 0 .0028 11.9 9)" spreadMethod="pad" cx="0" cy="0" r="819.2" fx="210508" fy="0"><stop offset="0" stop-color="#fff" stop-opacity=".243"/><stop offset=".988" stop-color="#fff" stop-opacity="0"/></radialGradient><path d="M6.5 9q0-.85 1.6-1.4l.5-.15 3.3-.4 1.9.1 1.7.4.25.05q.8.3 1.2.7l.3.7q0 .8-1.45 1.3l-.05.05q-1.6.6-3.85.6l-3-.35-.8-.25Q6.5 9.8 6.5 9" fill="url(#m)"/><radialGradient id="n" gradientUnits="userSpaceOnUse" gradientTransform="matrix(.00601 0 0 .00291 11.7 13.35)" spreadMethod="pad" cx="0" cy="0" r="819.2" fx="210508" fy="0"><stop offset="0" stop-color="#fff" stop-opacity=".263"/><stop offset=".988" stop-color="#fff" stop-opacity="0"/></radialGradient><path d="M15.95 13.55q-1 1.2-3.75 2.85-.3 0-.7-.3l-1.15-1.15-1.9-1.35-.9-.85v-.05l.35-.2H8v-.05l.55-.1 1.85.25 2.95-.05 2.5-.3q1.05.05.1 1.3" fill="url(#n)"/><radialGradient id="o" gradientUnits="userSpaceOnUse" gradientTransform="matrix(.00218 0 0 .00624 17.05 20.7)" spreadMethod="pad" cx="0" cy="0" r="819.2" fx="0" fy="0"><stop offset="0" stop-color="#fff" stop-opacity=".29"/><stop offset=".988" stop-color="#fff" stop-opacity="0"/></radialGradient><path d="M18.55 18.5l.25.6-.8 6.35-.6.05q-.5-.1-1.2-2.3l-.85-2.85-.55-1.8q1.3.95 3.25-.4l.5.35" fill="url(#o)"/><radialGradient id="p" gradientUnits="userSpaceOnUse" gradientTransform="matrix(.00298 0 0 .00613 7.45 20.95)" spreadMethod="pad" cx="0" cy="0" r="819.2" fx="0" fy="0"><stop offset="0" stop-color="#fff" stop-opacity=".29"/><stop offset=".988" stop-color="#fff" stop-opacity="0"/></radialGradient><path d="M6.95 18.45l2.1.05q.4.2.4.75L9.3 20l-.25.9-.05.15-.25.8-1.3 3.9q-.35-.15-1.15-2.3-.85-2.15-.95-3.5-.15-1.4 1.6-1.5" fill="url(#p)"/><radialGradient id="q" gradientUnits="userSpaceOnUse" gradientTransform="matrix(.00507 0 0 .003 12.2 29.55)" spreadMethod="pad" cx="0" cy="0" r="819.2" fx="0" fy="0"><stop offset="0" stop-color="#fff" stop-opacity=".251"/><stop offset=".988" stop-color="#fff" stop-opacity="0"/></radialGradient><path d="M9.9 30.85q-.95-.55-.95-1.3t.95-1.3q1-.6 2.3-.6 1.35 0 2.3.6 1 .55 1 1.3t-1 1.3q-.95.55-2.3.55-1.3 0-2.3-.55" fill="url(#q)"/><radialGradient id="r" gradientUnits="userSpaceOnUse" gradientTransform="matrix(.01125 0 0 .01125 18.95 3.55)" spreadMethod="pad" cx="0" cy="0" r="819.2" fx="0" fy="0"><stop offset="0" stop-color="#fff" stop-opacity=".161"/><stop offset="1" stop-color="#fff" stop-opacity="0"/></radialGradient><path d="M13.15.4q5.65 1.6 6.6 2.65 2.05 2.4 2.05 4.7 0 3.7-6.15 3.7l-1.75-.25q-.6-.5-1.15-2.15-.6-1.85-.5-2.9L12.2 3.9q0-2.2.85-3.55l.1.05" fill="url(#r)"/><radialGradient id="s" gradientUnits="userSpaceOnUse" gradientTransform="matrix(.00966 0 0 .00966 5.55 7.8)" spreadMethod="pad" cx="0" cy="0" r="819.2" fx="0" fy="0"><stop offset="0" stop-color="#fff" stop-opacity=".502"/><stop offset="1" stop-color="#fff" stop-opacity="0"/></radialGradient><path d="M4.25 5.7q-1.75 3-1.75 5.75 0 1.85.55 3.1v.2H3q-.85-2.75-.85-5.1l.15-1.4q0-1.05 2.15-4.05Q5.95 1.85 8.9.75h.05q-2.9 1.8-4.7 4.95" fill="url(#s)"/><radialGradient id="t" gradientUnits="userSpaceOnUse" gradientTransform="matrix(.0093 0 0 .0093 18.55 7.35)" spreadMethod="pad" cx="0" cy="0" r="819.2" fx="0" fy="0"><stop offset="0" stop-color="#fff" stop-opacity=".643"/><stop offset="1" stop-color="#fff" stop-opacity="0"/></radialGradient><path d="M14.55.85H15q3.5.55 5.65 3.7 1.95 2.65 1.95 5.4l-.55 3.9H22l.25-2.05q0-3.25-1.7-6.3-2.2-3.75-6-4.65" fill="url(#t)"/><radialGradient id="u" gradientUnits="userSpaceOnUse" gradientTransform="matrix(.01079 0 0 .01079 12 3.6)" spreadMethod="pad" cx="0" cy="0" r="819.2" fx="0" fy="0"><stop offset="0" stop-color="#fff" stop-opacity=".502"/><stop offset="1" stop-color="#fff" stop-opacity="0"/></radialGradient><path d="M6.85 1.7Q8.5.7 10.1.3l2.25-.3 1.9.15 1.3.45q.4.2 1.3.6.85.3 1.95 1.3 1.1.9 1.9 2.3-.45 2.3-2.5 3.95-2.55 2.15-6.2 2.15-3.6 0-6.2-2.15-2.3-1.9-2.55-4.55l1.1-.85q.8-.7 2.5-1.65" fill="url(#u)"/></g></svg>