<svg xmlns="http://www.w3.org/2000/svg" width="24" height="31"><g transform="translate(11.95 15)"><radialGradient id="a" gradientUnits="userSpaceOnUse" gradientTransform="matrix(.00502 0 0 .00621 7.75 .5)" spreadMethod="pad" cx="0" cy="0" r="819.2" fx="0" fy="0"><stop offset="0" stop-color="#fb8f62"/><stop offset=".698" stop-color="#fec7a3"/><stop offset="1" stop-color="#fedec1"/></radialGradient><path d="M9.5-1.75l.7-.4.75-.25q.5 0 .7.4L12 .05 10.9 2.5 9.4 5.05q-.1.2-.4.25h-.55L9.5-1.75m1.95.45l-.25-.35q-.7.4-1.25 1.3T9.4 1l.1.5-.2.7-.2.75q0 .45.15.6L9.6 3l.6-.3-.05-1.25.6-2.15.15.85-.3 2.35q.55-.85.7-1.75l.05-.2.15-.95-.05-.9" fill="url(#a)"/><radialGradient id="b" gradientUnits="userSpaceOnUse" gradientTransform="matrix(.00334 .0009 -.0014 .00522 9 .7)" spreadMethod="pad" cx="0" cy="0" r="819.2" fx="0" fy="0"><stop offset="0" stop-color="#ea8440"/><stop offset="1" stop-color="#fcc7a5"/></radialGradient><path d="M11.5-.4l-.15.95-.05.2q-.15.9-.7 1.75l.3-2.35-.15-.85-.6 2.15.05 1.25-.6.3-.35.55q-.15-.15-.15-.6l.2-.75.2-.7-.1-.5q0-.45.55-1.35.55-.9 1.25-1.3l.25.35.05.9" fill="url(#b)"/><path d="M9.5-1.75l.7-.4.75-.25q.5 0 .7.4L12 .05 10.9 2.5 9.4 5.05q-.1.2-.4.25h-.55" fill="none" stroke-width=".05" stroke-linecap="round" stroke-linejoin="round" stroke-miterlimit="3" stroke="#b76340" stroke-opacity=".502"/><radialGradient id="c" gradientUnits="userSpaceOnUse" gradientTransform="matrix(-.00502 0 0 .00621 -7.7 .5)" spreadMethod="pad" cx="0" cy="0" r="819.2" fx="0" fy="0"><stop offset="0" stop-color="#fb8f62"/><stop offset=".698" stop-color="#fec7a3"/><stop offset="1" stop-color="#fedec1"/></radialGradient><path d="M-9.45-1.75l-.7-.4-.75-.25q-.5 0-.7.4l-.35 2.05 1.1 2.45 1.5 2.55.4.25h.55l-1.05-7.05m-1.95.45l.25-.35q.7.4 1.25 1.3T-9.35 1l-.1.5.2.7.2.75q0 .45-.15.6L-9.55 3l-.6-.3.05-1.25-.6-2.15-.15.85.3 2.35q-.55-.85-.7-1.75l-.05-.2-.15-.95.05-.9" fill="url(#c)"/><radialGradient id="d" gradientUnits="userSpaceOnUse" gradientTransform="matrix(-.00334 .0009 .0014 .00522 -8.95 .7)" spreadMethod="pad" cx="0" cy="0" r="819.2" fx="0" fy="0"><stop offset="0" stop-color="#ea8440"/><stop offset="1" stop-color="#fcc7a5"/></radialGradient><path d="M-11.45-.4l.15.95.05.2q.15.9.7 1.75l-.3-2.35.15-.85.6 2.15-.05 1.25.6.3.35.55q.15-.15.15-.6l-.2-.75-.2-.7.1-.5q0-.45-.55-1.35-.55-.9-1.25-1.3l-.25.35-.05.9" fill="url(#d)"/><path d="M-9.45-1.75l-.7-.4-.75-.25q-.5 0-.7.4l-.35 2.05 1.1 2.45 1.5 2.55.4.25h.55" fill="none" stroke-width=".05" stroke-linecap="round" stroke-linejoin="round" stroke-miterlimit="3" stroke="#b76340" stroke-opacity=".502"/><radialGradient id="e" gradientUnits="userSpaceOnUse" gradientTransform="matrix(.0141 0 0 .01831 -17.55 .45)" spreadMethod="pad" cx="0" cy="0" r="819.2" fx="0" fy="0"><stop offset=".424" stop-color="#f0b192"/><stop offset="1" stop-color="#fbc9ab"/></radialGradient><path d="M-6.15 11.6l.05.1-.05-.05v-.05" fill="url(#e)"/><radialGradient id="f" gradientUnits="userSpaceOnUse" gradientTransform="matrix(.01118 0 0 .01118 2.8 -18.35)" spreadMethod="pad" cx="0" cy="0" r="819.2" fx="41" fy="0"><stop offset="0" stop-color="#feeade"/><stop offset=".988" stop-color="#fedec2"/></radialGradient><path d="M-10.2-5.2l.2-2.55-.2 2.05v.5" fill="url(#f)"/><radialGradient id="g" gradientUnits="userSpaceOnUse" gradientTransform="matrix(.01375 0 0 .01375 5.25 20.6)" spreadMethod="pad" cx="0" cy="0" r="819.2" fx="0" fy="0"><stop offset="0" stop-color="#f0b192"/><stop offset="1" stop-color="#fbc9ab"/></radialGradient><path d="M-6.6 10l-.05.05V10h.05" fill="url(#g)"/><radialGradient id="h" gradientUnits="userSpaceOnUse" gradientTransform="matrix(.01756 0 0 .02252 .15 5.4)" spreadMethod="pad" cx="0" cy="0" r="819.2" fx="210531" fy="0"><stop offset="0" stop-color="#ffe5d1"/><stop offset="1" stop-color="#fbc9ab"/></radialGradient><path d="M5.7-4.4q0 .45.55 1.8L7.7.45 7.1 5l-.4 1.4-.55.55q-.4.3-1.4 0-.95-.4-1.45 1.4-.5 1.7-1 1.65l.25 2.1-.05.4-.95 1.6-1.05.05-1.5-.1-1.2-1.55-.05-.4.3-2.1q-.55.05-1-1.65-.55-1.8-1.45-1.4-1 .3-1.4 0l-.6-.55-.4-1.4q-.35-1.2-.55-4.55L-5.9-2.6l.5-1.8-.85-4.3-.3-4.3.05-.05q1.4-1.1 4-1.75h.4l1.8-.2 2 .1 1 .15.7.25 1.3.5q1.3.6 2.45 1.65L5.7-4.4" fill="url(#h)"/><radialGradient id="i" gradientUnits="userSpaceOnUse" gradientTransform="matrix(.0102 -.00273 .00438 .01634 2.3 -4.35)" spreadMethod="pad" cx="0" cy="0" r="819.2" fx="210527" fy="0"><stop offset="0" stop-color="#ffe5cf"/><stop offset="1" stop-color="#fbbd9d"/></radialGradient><path d="M7.7.45L6.25-2.6Q5.7-3.95 5.7-4.4l1.45-7.95.3.25.2.2.6.65.3.35.1.15.3.4.05.05.35.7.3.75L8.4-1.7l-.15 3.4L7.7.45" fill="url(#i)"/><radialGradient id="j" gradientUnits="userSpaceOnUse" gradientTransform="matrix(.01224 .00195 -.00246 .0156 -.55 -3.85)" spreadMethod="pad" cx="0" cy="0" r="819.2" fx="0" fy="0"><stop offset="0" stop-color="#ffe5cf"/><stop offset="1" stop-color="#fbbd9d"/></radialGradient><path d="M-7.95 1.7l-.1-13.25.95-.95.55-.5.3 4.3.85 4.3-.5 1.8L-7.35.45l-.6 1.25" fill="url(#j)"/><radialGradient id="k" gradientUnits="userSpaceOnUse" gradientTransform="matrix(.0155 0 0 .02063 1.05 1.15)" spreadMethod="pad" cx="0" cy="0" r="819.2" fx="0" fy="0"><stop offset="0" stop-color="#ffe5cf"/><stop offset="1" stop-color="#fab998"/></radialGradient><path d="M-6.15 11.65l-.2-.15.05.3-1.65-2.05q-.6-1-.75-2.35v-.45L-10.15-3.8l-.05-1.4v-.5l.2-2.05q.3-1.5 1.1-2.8l.2-.25.35-.35.15-.2.15-.2.1 13.25v1.6q.35 5 .9 6l.45.7h-.05v.05l.5 1.55v.05" fill="url(#k)"/><radialGradient id="l" gradientUnits="userSpaceOnUse" gradientTransform="matrix(.01553 0 0 .01845 -1.8 -.2)" spreadMethod="pad" cx="0" cy="0" r="819.2" fx="0" fy="0"><stop offset="0" stop-color="#ffe5cf"/><stop offset="1" stop-color="#fab998"/></radialGradient><path d="M6 11.95l.1-.2.5-1.4.75-1.05q.55-1 .9-6V1.7l.15-3.4 1.25-7.15q.6 1.7.6 3.7L8.85 7.4v.05q-.15 1.3-.75 2.3L5.9 12.3l.1-.35" fill="url(#l)"/><radialGradient id="m" gradientUnits="userSpaceOnUse" gradientTransform="matrix(.01306 0 0 .01627 .1 4.65)" spreadMethod="pad" cx="0" cy="0" r="819.2" fx="0" fy="0"><stop offset="0" stop-color="#ffe5cf"/><stop offset="1" stop-color="#fab998"/></radialGradient><path d="M-1 14.05l1.5.1 1.05-.05 1.75-.45q1.1-.5.9-1.6-.2-1.1-.6-1.6l-.35-.6q0-.3.3-.5l.4-.1 1.05.8q.9.9 1.35.6l.25-.3-.5 1.4-.1.2-.1.35-.5.4-1.85 1.2L.85 15l-.75.05-.75-.05-2.75-1.1-2.9-2.1-.05-.3.2.15.05.05-.05-.1-.5-1.55.05-.05.6.65q.4.3 1.35-.6l1.1-.8.35.1.3.5-.4.6q-.4.5-.6 1.6-.2 1.1.95 1.6l1.95.4" fill="url(#m)"/><radialGradient id="n" gradientUnits="userSpaceOnUse" gradientTransform="matrix(.01363 0 0 .01595 1.55 5.75)" spreadMethod="pad" cx="0" cy="0" r="819.2" fx="210515" fy="0"><stop offset="0" stop-color="#ffe5d1"/><stop offset="1" stop-color="#fbc9ab"/></radialGradient><path d="M-2.95 13.65q-1.15-.5-.95-1.6.2-1.1.6-1.6l.4-.6-.3-.5-.35-.1-1.1.8q-.95.9-1.35.6l-.6-.65-.45-.7q-.55-1-.9-6V1.7l.6-1.25q.2 3.35.55 4.55l.4 1.4.6.55q.4.3 1.4 0 .9-.4 1.45 1.4.45 1.7 1 1.65l-.3 2.1.05.4 1.2 1.55-1.95-.4" fill="url(#n)"/><radialGradient id="o" gradientUnits="userSpaceOnUse" gradientTransform="matrix(.0128 0 0 .01392 -.35 4.2)" spreadMethod="pad" cx="0" cy="0" r="819.2" fx="210515" fy="0"><stop offset="0" stop-color="#ffe5d1"/><stop offset="1" stop-color="#fbc9ab"/></radialGradient><path d="M6.35 10.65q-.45.3-1.35-.6l-1.05-.8-.4.1q-.3.2-.3.5l.35.6q.4.5.6 1.6.2 1.1-.9 1.6l-1.75.45.95-1.6.05-.4L2.3 10q.5.05 1-1.65.5-1.8 1.45-1.4 1 .3 1.4 0l.55-.55.4-1.4.6-4.55.55 1.25v1.6q-.35 5-.9 6l-.75 1.05-.25.3" fill="url(#o)"/><path d="M7.15-12.35Q6-13.4 4.7-14l-1.3-.5-.7-.25-1-.15-2-.1-1.8.2h-.4q-2.6.65-4 1.75l-.05.05m13.7.65l.3.25.2.2.6.65.3.35.1.15.3.4.05.05.35.7.3.75q.6 1.7.6 3.7L8.85 7.4v.05q-.15 1.3-.75 2.3L5.9 12.3l-.5.4-1.85 1.2L.85 15l-.75.05-.75-.05-2.75-1.1-2.9-2.1-1.65-2.05q-.6-1-.75-2.35v-.45L-10.15-3.8l-.05-1.4.2-2.55q.3-1.5 1.1-2.8l.2-.25.35-.35.15-.2.15-.2.95-.95.55-.5M-10-7.75l-.2 2.05v.5" fill="none" stroke-width=".05" stroke-linecap="round" stroke-linejoin="round" stroke-miterlimit="3" stroke="#b76340" stroke-opacity=".502"/><radialGradient id="p" gradientUnits="userSpaceOnUse" gradientTransform="matrix(.00464 0 0 .00327 4.65 -3.25)" spreadMethod="pad" cx="0" cy="0" r="819.2" fx="210508" fy="0"><stop offset="0" stop-color="#fff" stop-opacity=".133"/><stop offset=".988" stop-color="#fff" stop-opacity="0"/></radialGradient><path d="M6.1-3.45L1.8-2.2l.15-.4.2-.15 1.4-1.8q.45-.35 1.65 0 1.2.3 1.55.95.25.55 0 .15H6.1" fill="url(#p)"/><radialGradient id="q" gradientUnits="userSpaceOnUse" gradientTransform="matrix(.00218 0 0 .00624 4.9 4.2)" spreadMethod="pad" cx="0" cy="0" r="819.2" fx="0" fy="0"><stop offset="0" stop-color="#fff" stop-opacity=".133"/><stop offset=".988" stop-color="#fff" stop-opacity="0"/></radialGradient><path d="M6.4 2.05l.3.55L5.85 9l-.55.05q-.55-.1-1.25-2.3L2.65 2.1q1.35.95 3.3-.4l.45.35" fill="url(#q)"/><radialGradient id="r" gradientUnits="userSpaceOnUse" gradientTransform="matrix(.0043 0 0 .00343 -3.95 -3.3)" spreadMethod="pad" cx="0" cy="0" r="819.2" fx="210508" fy="0"><stop offset="0" stop-color="#fff" stop-opacity=".133"/><stop offset=".988" stop-color="#fff" stop-opacity="0"/></radialGradient><path d="M-.95-2.85v.1l-1.7-.05-.75-.25-2.65-.4q.9-1 1.9-1l3.2 1.6" fill="url(#r)"/><radialGradient id="s" gradientUnits="userSpaceOnUse" gradientTransform="matrix(.00298 0 0 .00612 -4.65 4.5)" spreadMethod="pad" cx="0" cy="0" r="819.2" fx="0" fy="0"><stop offset="0" stop-color="#fff" stop-opacity=".133"/><stop offset=".988" stop-color="#fff" stop-opacity="0"/></radialGradient><path d="M-5.15 1.95l2.1.1q.35.2.35.75l-.1.7-1.85 5.75q-.4-.1-1.15-2.3-.85-2.15-.95-3.5-.15-1.35 1.6-1.5" fill="url(#s)"/><radialGradient id="t" gradientUnits="userSpaceOnUse" gradientTransform="matrix(.00507 0 0 .00214 .2 12.55)" spreadMethod="pad" cx="0" cy="0" r="819.2" fx="0" fy="0"><stop offset="0" stop-color="#fff" stop-opacity=".133"/><stop offset=".988" stop-color="#fff" stop-opacity="0"/></radialGradient><path d="M2.5 11.6q.95.4.95.95 0 .55-.95.95l-2.3.35-2.3-.35q-.95-.4-.95-.95 0-.55.95-.95l2.3-.4 2.3.4" fill="url(#t)"/><radialGradient id="u" gradientUnits="userSpaceOnUse" gradientTransform="matrix(.01088 0 0 .01088 6.4 -12.65)" spreadMethod="pad" cx="0" cy="0" r="819.2" fx="0" fy="0"><stop offset="0" stop-color="#fff" stop-opacity=".161"/><stop offset="1" stop-color="#fff" stop-opacity="0"/></radialGradient><path d="M-.15-12.35q0-1.55.45-2.65l1.4.1 1 .15.7.25 1.3.5q1.45.7 2.75 1.9l.2.2.6.65.3.35.1.15.05.05.45 2.1Q9.15-5 3.2-5l-1.65-.25Q.95-5.7.4-7.35q-.6-1.8-.5-2.75l-.05-2.25" fill="url(#u)"/><radialGradient id="v" gradientUnits="userSpaceOnUse" gradientTransform="matrix(.00934 0 0 .00934 -6.55 -8.55)" spreadMethod="pad" cx="0" cy="0" r="819.2" fx="0" fy="0"><stop offset="0" stop-color="#fff" stop-opacity=".314"/><stop offset="1" stop-color="#fff" stop-opacity="0"/></radialGradient><path d="M-5.35-13.75q-1.45 1.35-2.5 3.2Q-9.5-7.7-9.5-5q0 1.75.5 3v.2h-.05q-.8-2.7-.8-4.95l.15-1.35q0-1.05 2.05-3.9l.55-.5.6-.55 1.15-.7" fill="url(#v)"/><radialGradient id="w" gradientUnits="userSpaceOnUse" gradientTransform="matrix(.009 0 0 .009 6.05 -8.95)" spreadMethod="pad" cx="0" cy="0" r="819.2" fx="0" fy="0"><stop offset="0" stop-color="#fff" stop-opacity=".314"/><stop offset="1" stop-color="#fff" stop-opacity="0"/></radialGradient><path d="M8.65-10.75l.05.05q1.2 2.05 1.2 4.2l-.5 3.8h-.05l.25-2q0-3.15-1.7-6.05-.9-1.6-2.15-2.65l1.7 1.3.2.2.6.65.3.35.1.15" fill="url(#w)"/></g></svg>