<svg xmlns="http://www.w3.org/2000/svg" width="24" height="32"><g transform="translate(11.85 15.85)"><radialGradient id="a" gradientUnits="userSpaceOnUse" gradientTransform="matrix(.00517 0 0 .0064 7.5 1.25)" spreadMethod="pad" cx="0" cy="0" r="819.2" fx="0" fy="0"><stop offset="0" stop-color="#fb8f62"/><stop offset=".698" stop-color="#fec7a3"/><stop offset="1" stop-color="#fedec1"/></radialGradient><path d="M11.3-.6l-.25-.35q-.7.4-1.3 1.3-.55.95-.55 1.4l.1.55-.2.7-.2.75q0 .5.15.65l.35-.6.6-.3-.05-1.3.65-2.2.15.9-.3 2.4q.55-.85.7-1.8l.05-.2.15-1-.05-.9m-2-.45l.7-.45.8-.25q.5 0 .7.4L11.85.8l-1.1 2.5L9.2 5.95l-.4.25h-.6l1.1-7.25" fill="url(#a)"/><radialGradient id="b" gradientUnits="userSpaceOnUse" gradientTransform="matrix(.00345 .00093 -.00145 .00539 8.8 1.45)" spreadMethod="pad" cx="0" cy="0" r="819.2" fx="0" fy="0"><stop offset="0" stop-color="#ea8440"/><stop offset="1" stop-color="#fcc7a5"/></radialGradient><path d="M11.35.3l-.15 1-.05.2q-.15.95-.7 1.8l.3-2.4-.15-.9-.65 2.2.05 1.3-.6.3-.35.6q-.15-.15-.15-.65L9.1 3l.2-.7-.1-.55q0-.45.55-1.4.6-.9 1.3-1.3l.25.35.05.9" fill="url(#b)"/><path d="M9.3-1.05l.7-.45.8-.25q.5 0 .7.4L11.85.8l-1.1 2.5L9.2 5.95l-.4.25h-.6" fill="none" stroke-width=".05" stroke-linecap="round" stroke-linejoin="round" stroke-miterlimit="3" stroke="#b76340" stroke-opacity=".502"/><radialGradient id="c" gradientUnits="userSpaceOnUse" gradientTransform="matrix(-.00345 .00093 .00145 .00539 -8.8 1.45)" spreadMethod="pad" cx="0" cy="0" r="819.2" fx="0" fy="0"><stop offset="0" stop-color="#ea8440"/><stop offset="1" stop-color="#fcc7a5"/></radialGradient><path d="M-11.3-.6l.25-.35q.7.4 1.3 1.3.55.95.55 1.4l-.1.55.2.7.2.75q0 .5-.15.65l-.35-.6-.6-.3.05-1.3-.65-2.2-.15.9.3 2.4q-.55-.85-.7-1.8l-.05-.2-.15-1 .05-.9" fill="url(#c)"/><radialGradient id="d" gradientUnits="userSpaceOnUse" gradientTransform="matrix(-.00517 0 0 .0064 -7.5 1.25)" spreadMethod="pad" cx="0" cy="0" r="819.2" fx="0" fy="0"><stop offset="0" stop-color="#fb8f62"/><stop offset=".698" stop-color="#fec7a3"/><stop offset="1" stop-color="#fedec1"/></radialGradient><path d="M-11.35.3l.15 1 .05.2q.15.95.7 1.8l-.3-2.4.15-.9.65 2.2-.05 1.3.6.3.35.6q.15-.15.15-.65L-9.1 3l-.2-.7.1-.55q0-.45-.55-1.4-.6-.9-1.3-1.3l-.25.35-.05.9m3.15 5.9h-.6l-.4-.25-1.55-2.65-1.1-2.5.35-2.15q.2-.4.7-.4l.8.25.7.45 1.1 7.25" fill="url(#d)"/><path d="M-9.3-1.05l-.7-.45-.8-.25q-.5 0-.7.4L-11.85.8l1.1 2.5 1.55 2.65.4.25h.6" fill="none" stroke-width=".05" stroke-linecap="round" stroke-linejoin="round" stroke-miterlimit="3" stroke="#b76340" stroke-opacity=".502"/><radialGradient id="e" gradientUnits="userSpaceOnUse" gradientTransform="matrix(.00627 0 0 .01788 -.1 .35)" spreadMethod="pad" cx="0" cy="0" r="819.2" fx="210515" fy="0"><stop offset="0" stop-color="#fbd3b5"/><stop offset="1" stop-color="#fbc9ab"/></radialGradient><path d="M-.8 14.5q-.25-.35-1.05-.55l-1.35-.9-.1-.1-.25-.5-.25-.35-.8-1.35-.1-.7.2-.85.25-.85q.1-.35.05-1.25l-2-2.45-.05-.05q-.6-.95-.65-1.65 0-.75.7-1.6l1.15-1.3q.1-.5.05-1.35l-.1-3.15v-.25l-.1-3.8v-5.95q2.3-1.4 5.1-1.35 3-.05 5.4 1.5v5.75L5.15-4.8v.1l-.1 3.4Q5-.45 5.1.05l1.15 1.3q.7.85.7 1.6l-.6 1.65-.1.05-1.9 2.45-.15.1v.05q-.05.75.05 1.1l.25.85.2.85-.1.7-.8 1.35-.05.15-.35.7-.15.15q-.6.65-1.3.85-.85.2-1.1.55-.25.45-.4 1.35H-.4q-.1-.9-.4-1.35" fill="url(#e)"/><linearGradient id="f" gradientUnits="userSpaceOnUse" gradientTransform="matrix(.00308 0 0 .01031 -7.8 -2.8)" x1="-819.2" x2="819.2"><stop offset="0" stop-color="#f0b192"/><stop offset="1" stop-color="#fbc9ab"/></linearGradient><path d="M-5.2-8.5l.1 3.8v.25L-5-1.3q.05.85-.05 1.35l-1.15 1.3q-.7.85-.7 1.6.05.7.65 1.65h-.05l-1.2-1.15-.75-.95-.05-.15L-8.7.9l-.1-.75L-9-3.1l-.15-1.6v-.35l-.05-.45v-4.9l1.55-2.05 2.45-2v5.95" fill="url(#f)"/><radialGradient id="g" gradientUnits="userSpaceOnUse" gradientTransform="matrix(.0151 0 0 .03046 -11.2 4)" spreadMethod="pad" cx="0" cy="0" r="819.2" fx="0" fy="0"><stop offset=".251" stop-color="#f0b192"/><stop offset="1" stop-color="#fbc9ab"/></radialGradient><path d="M-6.85 11.1l-1.1-1.85q-.6-1.2-.95-4.3l-.45-2.35-.3-1.8q-.8-1.75-1.05-3.75l-.05-1.4V-4.95l.25-2.15q.3-1.6 1.1-2.95l.2-.35v4.9l.05.45v.35L-9-3.1l.2 3.25.1.75.4 1.45.05.15.9 2.35L-6 6.3l.85.7.1 1.95-2.9-3.5q.4 3.4.95 4.1l1.35.95q.85.35 1 .6.15.25.75 2.2l.45 1.45-2.9-2.9-.6-.8.1.05" fill="url(#g)"/><linearGradient id="h" gradientUnits="userSpaceOnUse" gradientTransform="matrix(-.00333 0 0 -.01022 7.8 -4.1)" x1="-819.2" x2="819.2"><stop offset="0" stop-color="#f0b192"/><stop offset="1" stop-color="#fbc9ab"/></linearGradient><path d="M9.25-5.2l-.05.5-.15 2.05-.2 2.8L8.8.9l-.45 1.45-.05.15-.75.95-1.2 1.15.6-1.65q0-.75-.7-1.6L5.1.05Q5-.45 5.05-1.3l.1-3.4v-.1l.15-3.75v-5.75l2.2 1.85 1.35 1.75.4 5.5" fill="url(#h)"/><radialGradient id="i" gradientUnits="userSpaceOnUse" gradientTransform="matrix(.01428 .00383 -.00613 .02287 11.05 5.8)" spreadMethod="pad" cx="0" cy="0" r="819.2" fx="0" fy="0"><stop offset=".251" stop-color="#f0b192"/><stop offset="1" stop-color="#fbc9ab"/></radialGradient><path d="M3.65 14.35v-.05l.35-1 .7-2.2 1-.6 1.4-.95q.55-.7.9-4.1l-2.75 3.4L5.2 7.1l1.05-.9q.6-.85 1.15-1.35l.9-2.35.05-.15L8.8.9l.05-.75.2-2.8.15-2.05.05-.5-.4-5.5q1.75 2.8 1.8 6.35-.05 1.95-.55 3.7L9.55.75 9.2 2.6l-.45 2.35q-.35 3.1-.95 4.3L6.6 11.3l-3.05 3.25q-.8.85-2.1 1.15 1.35-.35 2.2-1.35m-10.6-3.3q-.7-.9-1-1.8l1.1 1.85-.1-.05" fill="url(#i)"/><linearGradient id="j" gradientUnits="userSpaceOnUse" gradientTransform="matrix(-.00293 -.00095 .0025 -.00772 5.4 9.85)" x1="-819.2" x2="819.2"><stop offset="0" stop-color="#f0b192"/><stop offset="1" stop-color="#fbc9ab"/></linearGradient><path d="M6.35 4.6l1.2-1.15.75-.95-.9 2.35q-.55.5-1.15 1.35l-1.05.9.05 1.75L8 5.45q-.35 3.4-.9 4.1l-1.4.95-1 .6-.7 2.2-.35 1v.05q-.85 1-2.2 1.35l-.9.15h-.1q.15-.9.4-1.35.25-.35 1.1-.55.7-.2 1.3-.85l.15-.15.35-.7.05-.15.8-1.35.1-.7-.2-.85-.25-.85q-.1-.35-.05-1.1V7.2l.15-.1 1.9-2.45.1-.05" fill="url(#j)"/><linearGradient id="k" gradientUnits="userSpaceOnUse" gradientTransform="matrix(.00232 -.00069 .0023 .00778 -5.1 10.7)" x1="-819.2" x2="819.2"><stop offset="0" stop-color="#f0b192"/><stop offset="1" stop-color="#fbc9ab"/></linearGradient><path d="M-8.25 2.5l.75.95 1.2 1.15h.05l.05.05 2 2.45q.05.9-.05 1.25l-.25.85-.2.85.1.7.8 1.35.25.35.25.5.1.1 1.35.9q.8.2 1.05.55.3.45.4 1.35-1.9-.1-3.05-1.1l-.45-1.45q-.6-1.95-.75-2.2-.15-.25-1-.6L-7 9.55q-.55-.7-.95-4.1l2.9 3.5-.1-1.95-.85-.7-1.35-1.45-.9-2.35" fill="url(#k)"/><radialGradient id="l" gradientUnits="userSpaceOnUse" gradientTransform="matrix(.01169 0 0 .01169 2.85 -18.2)" spreadMethod="pad" cx="0" cy="0" r="819.2" fx="41" fy="0"><stop offset="0" stop-color="#feeade"/><stop offset=".988" stop-color="#fedec2"/></radialGradient><path d="M-10.75-4.35v-.55.55" fill="url(#l)"/><path d="M-5.2-14.45l-2.45 2-1.55 2.05m4-4.05q2.3-1.4 5.1-1.35 3-.05 5.4 1.5l2.2 1.85 1.35 1.75q1.75 2.8 1.8 6.35-.05 1.95-.55 3.7L9.55.75 9.2 2.6l-.45 2.35q-.35 3.1-.95 4.3L6.6 11.3l-3.05 3.25q-.8.85-2.1 1.15l-.9.15H-.4q-1.9-.1-3.05-1.1l-2.9-2.9-.6-.8q-.7-.9-1-1.8-.6-1.2-.95-4.3l-.45-2.35-.3-1.8q-.8-1.75-1.05-3.75l-.05-1.4V-4.95l.25-2.15q.3-1.6 1.1-2.95l.2-.35m-1.55 5.5v.55" fill="none" stroke-width=".05" stroke-linecap="round" stroke-linejoin="round" stroke-miterlimit="3" stroke="#b76340" stroke-opacity=".502"/><radialGradient id="m" gradientUnits="userSpaceOnUse" gradientTransform="matrix(.00208 -.00113 .00159 .00392 -4.4 4.65)" spreadMethod="pad" cx="0" cy="0" r="819.2" fx="0" fy="0"><stop offset="0" stop-color="#fff" stop-opacity=".2"/><stop offset=".988" stop-color="#fff" stop-opacity="0"/></radialGradient><path d="M-2.55 6.35q-1.25 2.4-2 1.9-1.5-3-2.4-6.1 2.3 1.7 4.9.3.05 2.25-.25 3l-.25.9" fill="url(#m)"/><radialGradient id="n" gradientUnits="userSpaceOnUse" gradientTransform="translate(-70.3 -30.3)" spreadMethod="pad" cx="0" cy="0" r="819.2" fx="0" fy="0"><stop offset="0" stop-color="#fff" stop-opacity=".082"/><stop offset=".988" stop-color="#fff" stop-opacity="0"/></radialGradient><path d="M4.5 8.65l-2.55-1.3.5-.2q.8-.55.3-.55.85-.2 1.4 1.25l.35.8" fill="url(#n)"/><radialGradient id="o" gradientUnits="userSpaceOnUse" gradientTransform="matrix(.00305 0 0 .00186 .9 14)" spreadMethod="pad" cx="0" cy="0" r="819.2" fx="0" fy="0"><stop offset="0" stop-color="#fff" stop-opacity=".173"/><stop offset=".988" stop-color="#fff" stop-opacity="0"/></radialGradient><path d="M-1.7 13.8l.75-.85q.8-.45 1.85-.45t1.85.45q.8.45.8 1.05 0 .6-.8 1l-1.85.45L-.95 15q-.75-.4-.75-1v-.2" fill="url(#o)"/><radialGradient id="p" gradientUnits="userSpaceOnUse" gradientTransform="matrix(0 .00146 -.00574 0 .3 -2.5)" spreadMethod="pad" cx="0" cy="0" r="819.2" fx="210508" fy="0"><stop offset="0" stop-color="#fff" stop-opacity=".133"/><stop offset=".988" stop-color="#fff" stop-opacity="0"/></radialGradient><path d="M3.15-1.7L.3-1.35l-2.9-.35q-1.15-.3-1.15-.8t1.15-.85l2.9-.3 2.85.3q1.2.35 1.2.85t-1.2.8" fill="url(#p)"/><radialGradient id="q" gradientUnits="userSpaceOnUse" gradientTransform="matrix(.00717 0 0 .00438 .4 -6.8)" spreadMethod="pad" cx="0" cy="0" r="819.2" fx="210508" fy="0"><stop offset="0" stop-color="#fff" stop-opacity=".212"/><stop offset=".988" stop-color="#fff" stop-opacity="0"/></radialGradient><path d="M-3.7-8.95l.5-.25 3.6-.65 2.15.2 1.8.55.2.15q.95.45 1.4 1.05l.3 1.1q0 1.2-1.55 2.1h-.15q-1.7.95-4.15.95-1.85 0-3.3-.55l-.8-.4q-1.75-.85-1.75-2.1 0-1.3 1.75-2.15" fill="url(#q)"/><radialGradient id="r" gradientUnits="userSpaceOnUse" gradientTransform="matrix(.00192 .00111 -.0026 .0045 4.8 4.4)" spreadMethod="pad" cx="0" cy="0" r="819.2" fx="0" fy="0"><stop offset="0" stop-color="#fff" stop-opacity=".173"/><stop offset=".988" stop-color="#fff" stop-opacity="0"/></radialGradient><path d="M5 3.1q1-.65 1.65-.85.6-.2.45.35l-.35.85q-.25.3-.8 1.55l-.9 1.8q-.3.6-1.15-.35-.8-.9-1.05-2.1L2.4 2.6h.05l.9.6L5 3.1" fill="url(#r)"/><radialGradient id="s" gradientUnits="userSpaceOnUse" gradientTransform="matrix(.01137 0 0 .01137 6.6 -12.2)" spreadMethod="pad" cx="0" cy="0" r="819.2" fx="0" fy="0"><stop offset="0" stop-color="#fff" stop-opacity=".161"/><stop offset="1" stop-color="#fff" stop-opacity="0"/></radialGradient><path d="M9.5-7.95q0 3.75-6.25 3.75L1.5-4.5Q.9-4.95.35-6.65q-.6-1.9-.5-2.9L-.2-11.9q0-2.2.85-3.55l.05.05q5.75 1.6 6.7 2.7 2.1 2.4 2.1 4.75" fill="url(#s)"/><radialGradient id="t" gradientUnits="userSpaceOnUse" gradientTransform="matrix(.00977 0 0 .00977 -6.95 -7.9)" spreadMethod="pad" cx="0" cy="0" r="819.2" fx="0" fy="0"><stop offset="0" stop-color="#fff" stop-opacity=".502"/><stop offset="1" stop-color="#fff" stop-opacity="0"/></radialGradient><path d="M-8.25-10.05Q-10-7.05-10-4.2q0 1.85.5 3.1v.25h-.05q-.85-2.85-.85-5.2l.15-1.4q0-1.1 2.15-4.1 1.6-2.4 4.55-3.5h.05q-2.95 1.8-4.75 5" fill="url(#t)"/><radialGradient id="u" gradientUnits="userSpaceOnUse" gradientTransform="matrix(.00941 0 0 .00941 6.25 -8.35)" spreadMethod="pad" cx="0" cy="0" r="819.2" fx="0" fy="0"><stop offset="0" stop-color="#fff" stop-opacity=".643"/><stop offset="1" stop-color="#fff" stop-opacity="0"/></radialGradient><path d="M2.6-14.95q3.55.6 5.75 3.75 1.95 2.65 1.95 5.45 0 1.2-.55 3.95H9.7l.25-2.1q0-3.25-1.75-6.35-2.2-3.8-6-4.7h.4" fill="url(#u)"/><radialGradient id="v" gradientUnits="userSpaceOnUse" gradientTransform="translate(-.4 -12.15) scale(.01091)" spreadMethod="pad" cx="0" cy="0" r="819.2" fx="0" fy="0"><stop offset="0" stop-color="#fff" stop-opacity=".502"/><stop offset="1" stop-color="#fff" stop-opacity="0"/></radialGradient><path d="M-5.65-14.1q1.65-1 3.3-1.4l2.25-.3 1.95.15 1.3.45 1.35.6q.85.3 1.95 1.3l1.95 2.35q-.5 2.3-2.55 4-2.6 2.2-6.25 2.2-3.7 0-6.3-2.2-2.3-1.9-2.55-4.6l1.1-.85 2.5-1.7" fill="url(#v)"/></g></svg>