<svg width="23" height="31" xmlns="http://www.w3.org/2000/svg"><defs><radialGradient fy="0" fx="0" r="819.2" cy="0" cx="0" spreadMethod="pad" gradientTransform="matrix(.00493 -.00061 .00075 .0061 7.475 1.8)" gradientUnits="userSpaceOnUse" id="a"><stop stop-color="#FB8F62" offset="0"/><stop stop-color="#FEC7A3" offset=".698"/><stop stop-color="#FEDEC1" offset="1"/></radialGradient><radialGradient fy="0" fx="0" r="819.2" cy="0" cx="0" spreadMethod="pad" gradientTransform="matrix(.00339 .00049 -.00075 .0053 8.675 1.8)" gradientUnits="userSpaceOnUse" id="b"><stop stop-color="#EA8440" offset="0"/><stop stop-color="#FCC7A5" offset="1"/></radialGradient><radialGradient fy="0" fx="0" r="819.2" cy="0" cx="0" spreadMethod="pad" gradientTransform="matrix(-.00494 -.00047 -.0006 .00612 -7.075 1.75)" gradientUnits="userSpaceOnUse" id="c"><stop stop-color="#FB8F62" offset="0"/><stop stop-color="#FEC7A3" offset=".698"/><stop stop-color="#FEDEC1" offset="1"/></radialGradient><radialGradient fy="0" fx="0" r="819.2" cy="0" cx="0" spreadMethod="pad" gradientTransform="matrix(-.00339 .00056 .00089 .00528 -8.375 1.8)" gradientUnits="userSpaceOnUse" id="d"><stop stop-color="#EA8440" offset="0"/><stop stop-color="#FCC7A5" offset="1"/></radialGradient><radialGradient fy="0" fx="210515" r="819.2" cy="0" cx="0" spreadMethod="pad" gradientTransform="matrix(.0122 0 0 .02081 .925 -.7)" gradientUnits="userSpaceOnUse" id="e"><stop stop-color="#FBD3B5" offset="0"/><stop stop-color="#FBC9AB" offset="1"/></radialGradient><radialGradient fy="0" fx="99" r="819.2" cy="0" cx="0" spreadMethod="pad" gradientTransform="matrix(.00624 .00063 -.00093 .00926 -9.825 -5.3)" gradientUnits="userSpaceOnUse" id="f"><stop stop-color="#F0B192" offset="0"/><stop stop-color="#FBC9AB" offset="1"/></radialGradient><radialGradient fy="0" fx="0" r="819.2" cy="0" cx="0" spreadMethod="pad" gradientTransform="matrix(.00803 0 0 .01204 -10.475 11.1)" gradientUnits="userSpaceOnUse" id="g"><stop stop-color="#F0B192" offset="0"/><stop stop-color="#FBC9AB" offset="1"/></radialGradient><radialGradient fy="0" fx="41" r="819.2" cy="0" cx="0" spreadMethod="pad" gradientTransform="matrix(.01144 0 0 .01144 3.025 -17.75)" gradientUnits="userSpaceOnUse" id="h"><stop stop-color="#FEEADE" offset="0"/><stop stop-color="#FEDEC2" offset=".988"/></radialGradient><radialGradient fy="0" fx="0" r="819.2" cy="0" cx="0" spreadMethod="pad" gradientTransform="matrix(.0072 0 0 .01071 -10.275 -4.2)" gradientUnits="userSpaceOnUse" id="i"><stop stop-color="#F0B192" offset="0"/><stop stop-color="#FBC9AB" offset="1"/></radialGradient><radialGradient fy="0" fx="0" r="819.2" cy="0" cx="0" spreadMethod="pad" gradientTransform="matrix(.0064 0 0 .0099 10.675 -3.75)" gradientUnits="userSpaceOnUse" id="j"><stop stop-color="#F0B192" offset="0"/><stop stop-color="#FBC9AB" offset="1"/></radialGradient><radialGradient fy="0" fx="99" r="819.2" cy="0" cx="0" spreadMethod="pad" gradientTransform="matrix(.00583 -.00098 .00204 .01222 10.975 -3.95)" gradientUnits="userSpaceOnUse" id="k"><stop stop-color="#F0B192" offset="0"/><stop stop-color="#FBC9AB" offset="1"/></radialGradient><radialGradient fy="0" fx="0" r="819.2" cy="0" cx="0" spreadMethod="pad" gradientTransform="matrix(.01343 0 0 .02689 14.325 2.15)" gradientUnits="userSpaceOnUse" id="l"><stop stop-color="#F0B192" offset=".224"/><stop stop-color="#FBC9AB" offset="1"/></radialGradient><radialGradient fy="0" fx="0" r="819.2" cy="0" cx="0" spreadMethod="pad" gradientTransform="matrix(.00858 0 0 .01213 11.525 9.55)" gradientUnits="userSpaceOnUse" id="m"><stop stop-color="#F0B192" offset="0"/><stop stop-color="#FBC9AB" offset="1"/></radialGradient><linearGradient x2="819.2" x1="-819.2" gradientTransform="matrix(.00351 0 0 .01143 -8.625 1.85)" gradientUnits="userSpaceOnUse" id="n"><stop stop-color="#F0B192" offset=".376"/><stop stop-color="#FBC9AB" offset=".988"/></linearGradient><linearGradient x2="819.2" x1="-819.2" gradientTransform="matrix(.00037 -.01138 .01726 .00055 -.775 18.25)" gradientUnits="userSpaceOnUse" id="o"><stop stop-color="#F0B192" offset="0"/><stop stop-color="#FBC9AB" offset="1"/></linearGradient><radialGradient fy="0" fx="0" r="819.2" cy="0" cx="0" spreadMethod="pad" gradientTransform="matrix(.00385 0 0 .00385 .325 13.4)" gradientUnits="userSpaceOnUse" id="p"><stop stop-color="#FFF" stop-opacity=".243" offset="0"/><stop stop-color="#FFF" stop-opacity="0" offset=".988"/></radialGradient><radialGradient fy="0" fx="0" r="819.2" cy="0" cx="0" spreadMethod="pad" gradientTransform="matrix(.00644 0 0 .00458 2.025 -7)" gradientUnits="userSpaceOnUse" id="q"><stop stop-color="#FFF" stop-opacity=".243" offset="0"/><stop stop-color="#FFF" stop-opacity="0" offset=".988"/></radialGradient><radialGradient fy="0" fx="0" r="819.2" cy="0" cx="0" spreadMethod="pad" gradientTransform="matrix(.00385 0 0 .00385 .325 13.4)" gradientUnits="userSpaceOnUse" id="r"><stop stop-color="#FFF" stop-opacity=".122" offset="0"/><stop stop-color="#FFF" stop-opacity="0" offset=".988"/></radialGradient><radialGradient fy="0" fx="0" r="819.2" cy="0" cx="0" spreadMethod="pad" gradientTransform="matrix(.00372 0 0 .00372 2.125 8.25)" gradientUnits="userSpaceOnUse" id="s"><stop stop-color="#FFF" stop-opacity=".133" offset="0"/><stop stop-color="#FFF" stop-opacity="0" offset=".988"/></radialGradient><radialGradient fy="0" fx="0" r="819.2" cy="0" cx="0" spreadMethod="pad" gradientTransform="matrix(.00426 -.00146 .00156 .00452 -5.775 4.25)" gradientUnits="userSpaceOnUse" id="t"><stop stop-color="#FFF" stop-opacity=".133" offset="0"/><stop stop-color="#FFF" stop-opacity="0" offset=".988"/></radialGradient><radialGradient fy="0" fx="0" r="819.2" cy="0" cx="0" spreadMethod="pad" gradientTransform="matrix(.00665 0 0 .00665 5.975 4.85)" gradientUnits="userSpaceOnUse" id="u"><stop stop-color="#FFF" stop-opacity=".18" offset="0"/><stop stop-color="#FFF" stop-opacity="0" offset=".988"/></radialGradient><radialGradient fy="0" fx="0" r="819.2" cy="0" cx="0" spreadMethod="pad" gradientTransform="matrix(.00217 0 0 .00217 -1.475 -3.1)" gradientUnits="userSpaceOnUse" id="v"><stop stop-color="#FFF" stop-opacity=".173" offset="0"/><stop stop-color="#FFF" stop-opacity="0" offset=".988"/></radialGradient><radialGradient fy="0" fx="0" r="819.2" cy="0" cx="0" spreadMethod="pad" gradientTransform="matrix(.00319 0 0 .00319 2.975 -3.2)" gradientUnits="userSpaceOnUse" id="w"><stop stop-color="#FFF" stop-opacity=".173" offset="0"/><stop stop-color="#FFF" stop-opacity="0" offset=".988"/></radialGradient><radialGradient fy="0" fx="0" r="819.2" cy="0" cx="0" spreadMethod="pad" gradientTransform="matrix(.01114 0 0 .01114 6.725 -11.9)" gradientUnits="userSpaceOnUse" id="x"><stop stop-color="#FFF" stop-opacity=".161" offset="0"/><stop stop-color="#FFF" stop-opacity="0" offset="1"/></radialGradient><radialGradient fy="0" fx="0" r="819.2" cy="0" cx="0" spreadMethod="pad" gradientTransform="matrix(.00957 0 0 .00957 -6.525 -7.7)" gradientUnits="userSpaceOnUse" id="y"><stop stop-color="#FFF" stop-opacity=".502" offset="0"/><stop stop-color="#FFF" stop-opacity="0" offset="1"/></radialGradient><radialGradient fy="0" fx="0" r="819.2" cy="0" cx="0" spreadMethod="pad" gradientTransform="translate(6.375 -8.15) scale(.00923)" gradientUnits="userSpaceOnUse" id="z"><stop stop-color="#FFF" stop-opacity=".643" offset="0"/><stop stop-color="#FFF" stop-opacity="0" offset="1"/></radialGradient></defs><path fill="none" d="M-1-1h582v402H-1z"/><g><path fill="url(#a)" d="M8.875-.6l.6-.55.75-.35q.5-.05.7.35.35.45.55 2l-.75 2.5-1.15 2.7-.35.3-.25.05h-.3l.2-7m1.95.15l-.3-.25q-.6.4-1.1 1.35l-.3 1.4.15.55-.1.65-.15.75.25.6.25-.6.55-.4q.2-.1-.2-1.2l.4-2.15.2.8V3.4l.45-1.85.05-.15v-1l-.15-.85" transform="translate(11.3 15.4)"/><path fill="url(#b)" d="M10.975.4v1l-.05.15-.45 1.85V1.05l-.2-.8-.4 2.15q.4 1.1.2 1.2l-.55.4-.25.6-.25-.6.15-.75.1-.65-.15-.55.3-1.4q.5-.95 1.1-1.35l.3.25.15.85" transform="translate(11.3 15.4)"/><path fill="none" stroke-width=".05" stroke-linecap="round" stroke-linejoin="round" stroke-miterlimit="3" stroke="#B76340" stroke-opacity=".502" d="M20.175 14.8l.6-.55.75-.35q.5-.05.7.35.35.45.55 2l-.75 2.5-1.15 2.7-.35.3-.25.05h-.3"/><path fill="url(#c)" d="M-8.625-.6l-.6-.5-.75-.3q-.5-.05-.7.3l-.5 2.05.8 2.5 1.2 2.65q.1.2.4.25l.3.05h.25l-.4-7m-1.95.25l.3-.35q.6.5 1.1 1.4.45.95.4 1.4l-.15.5.15.7.1.7-.2.65-.3-.65-.5-.35q-.2-.05.15-1.2L-9.975.3l-.2.85.05 2.3-.5-1.8v-.2l-.05-.95.1-.85" transform="translate(11.3 15.4)"/><path fill="url(#d)" d="M-10.675.5l.05.95v.2l.5 1.8-.05-2.3.2-.85.45 2.15q-.35 1.15-.15 1.2l.5.35.3.65.2-.65-.1-.7-.15-.7.15-.5q.05-.45-.4-1.4-.5-.9-1.1-1.4l-.3.35-.1.85" transform="translate(11.3 15.4)"/><path fill="none" stroke-width=".05" stroke-linecap="round" stroke-linejoin="round" stroke-miterlimit="3" stroke="#B76340" stroke-opacity=".502" d="M2.675 14.8l-.6-.5-.75-.3q-.5-.05-.7.3l-.5 2.05.8 2.5 1.2 2.65q.1.2.4.25l.3.05h.25"/><path fill="url(#e)" d="M3.325 12.95q-.9.65-2.6 1.3l-.15.05-.5.05-.6-.05-.45-.15-.05-.05-.6-.15-1.8-1.3-1.15-1.3-.6-3.8-2-3.35q-.85-1.65-.7-2.4l.15-.4 2.45-3.3.15-.6.05-1.25-.1-2.6-.15-1.8v-5.65q2.4-1.65 5.5-1.6 2.55-.05 4.65 1.1v5.95l-.05 2v2.6q0 .8.2 1.05l2.55 3.9.4.65V1.8l.05.1q.1.75-.75 2.3l-1.95 3.35-.65 4.15-1.3 1.25" transform="translate(11.3 15.4)"/><path fill="url(#f)" d="M-7.675 1.2l.2-.55.7-1.55q.95-1.85.95-2.6l-.2-1.3-.2-1.45-.05-.35-.1-1.15-.4-4.85 1.45-1.2v5.65l.15 1.8.1 2.6-.05 1.25-.15.6-2.45 3.3.05-.2" transform="translate(11.3 15.4)"/><path fill="url(#g)" d="M-8.425 3.2l.15-.65.35-.9.2-.45.25-.55-.2.55-.05.2-.15.4q-.15.75.7 2.4l2 3.35.6 3.8.25 1.4-.65-.6q-1.05-1-2.55-3.95l-.9-5" transform="translate(11.3 15.4)"/><path fill="url(#h)" d="M-10.275-4.2v-.55.55" transform="translate(11.3 15.4)"/><path fill="url(#i)" d="M-6.375-7.75l.1 1.15.05.35.2 1.45.2 1.3q0 .75-.95 2.6l-.7 1.55-.25.55-.2.45-.35.9-.15.65-.15-.75-.1-.5V.85l.25-2.05.25-1.55-.1-.65-.25-.8-.2-1.2-.4-4.05.2-.35q.65-1.25 1.7-2.35l.45-.45.4 4.85" transform="translate(11.3 15.4)"/><path fill="url(#j)" d="M8.975-6.05l-.35 1.85-.25.8-.1.65.25 1.55.2 2.05v.3l.05.5v.3l-.15.5-.5-1.15-.2-.2-.35-.6h-.05l-.7-1.4q-.95-1.85-.95-2.6l.2-1.3.15-1 .1-.8.2-1.5.35-4.8.75.75q1.35 1.45 2.1 3.25l-.75 2.85" transform="translate(11.3 15.4)"/><path fill="url(#k)" d="M7.725 1.05l.2.75v.05l-.4-.65-2.55-3.9q-.2-.25-.2-1.05v-2.6l.05-2v-5.95l2.05 1.4-.35 4.8-.2 1.5-.1.8-.15 1-.2 1.3q0 .75.95 2.6l.7 1.4.2.55" transform="translate(11.3 15.4)"/><path fill="url(#l)" d="M8.475 8.15l-1.15 2-.05.05.35-2 .95-5.5.05-.25.15-.5v-.3l-.05-.5v-.3l-.2-2.05-.25-1.55.1-.65.25-.8.35-1.85.75-2.85q.9 2.15.95 4.7-.05 1.9-.55 3.65l-.65 1.85.05-.8-.1.5v.15l-.15 1.15-.1 1.15-.05 1v.9l-.15.8-.05.3v.1l-.45 1.6" transform="translate(11.3 15.4)"/><path fill="url(#m)" d="M5.075 12.15l-.65.6.2-1.05.65-4.15 1.95-3.35q.85-1.55.75-2.3l-.05-.1-.2-.75-.2-.55h.05l.35.6.2.2.5 1.15-.05.25-.95 5.5q-1.55 2.95-2.55 3.95" transform="translate(11.3 15.4)"/><path fill="url(#n)" d="M-7.525 8.2l.25 1.75-.85-1.55-.15-.4-.2-.65-.2-.9-.15-1.1-.05-.8V4.2l-.05-.7v-.15l-.05-.3V2.7l-.05-.35V2.3l-.1-.65-.05-.5q-.8-2.05-1.05-4l-.05-1.35V-4.8l.25-2.1q.25-1.35.9-2.55l.4 4.05.2 1.2.25.8.1.65-.25 1.55-.25 2.05v1.1l.1.5.15.75.9 5" transform="translate(11.3 15.4)"/><path fill="url(#o)" d="M9.125 4.55v-.1l.05-1 .1-1.15.15-1.15V1l.1-.5-.05.8-.05.35-.1.65v.05l-.05.35v.25l-.1 1.5v.1l-.05.2v-.2m-16.4 5.4l-.25-1.75q1.5 2.95 2.55 3.95l.65.6-.25-1.4 1.15 1.3 1.8 1.3.6.15.05.05.45.15.6.05.5-.05.15-.05q1.7-.65 2.6-1.3l1.3-1.25-.2 1.05.65-.6q1-1 2.55-3.95l-.35 2 .05-.05 1.15-2 .45-1.6-.15.7q-.25 1.35-1.15 2.95l-2.4 3.05q-1.45 1.5-2.4 1.9l-2.1.3h-1.1l-2.15-.3-2.4-1.9q-1.4-1.5-2.25-2.95l-.95-1.9.85 1.55" transform="translate(11.3 15.4)"/><path fill="none" stroke-width=".05" stroke-linecap="round" stroke-linejoin="round" stroke-miterlimit="3" stroke="#B76340" stroke-opacity=".502" d="M4.525 2.8l-.45.45q-1.05 1.1-1.7 2.35l-.2.35m2.35-3.15l1.45-1.2q2.4-1.65 5.5-1.6 2.55-.05 4.65 1.1l2.05 1.4.75.75q1.35 1.45 2.1 3.25.9 2.15.95 4.7-.05 1.9-.55 3.65l-.65 1.85-.05.35-.1.65v.05l-.05.35v.25l-.1 1.5v.1l-.05.2v.6l-.15.8-.05.3v.1l-.15.7q-.25 1.35-1.15 2.95l-2.4 3.05q-1.45 1.5-2.4 1.9l-2.1.3h-1.1l-2.15-.3-2.4-1.9q-1.4-1.5-2.25-2.95l-.95-1.9-.15-.4-.2-.65-.2-.9m-.2-1.9v-.35l-.05-.7v-.15l-.05-.3v-.35l-.05-.35v-.05l-.1-.65-.05-.5q-.8-2.05-1.05-4l-.05-1.35V10.6l.25-2.1q.25-1.35.9-2.55m-1.15 4.7v.55m1.4 8.75l.05.2.15 1.7"/><path fill="url(#p)" d="M-1.825 12.7q1.6-1.75 1.85-.85v1.2q0 .6-.25.7l-.85.1-.85-.15q-.45-.25-.45-.85l.55-.15" transform="translate(11.3 15.4)"/><path fill="url(#q)" d="M-3.475-9.45q1.7-.9 4.05-.9 2.35 0 3.95.9 1.7 1 1.7 2.3 0 1.35-1.7 2.3-1.6.95-3.95.95t-4.05-.95q-1.65-.95-1.65-2.3 0-1.3 1.65-2.3" transform="translate(11.3 15.4)"/><path fill="url(#r)" d="M.825 12.3l1.2.3 1.15.05-.55.7-1 .4h-.05l-.65.25q-.25.1-.6-.6L.275 12l.55.3" transform="translate(11.3 15.4)"/><path fill="url(#s)" d="M.725 7.55q1.65.2 2.5-.6l.45 1.1.55 1.5v.5h-.2l-1-.5-1.3-.3h-.6l-.25-.2-.15-1.5" transform="translate(11.3 15.4)"/><path fill="url(#t)" d="M-7.925 2.4q0-.95.45-.95l.4.2 1.3.55 2.35.65q1.45.4.9.75-.5.45-1.25 2.15l-.95 2.4q-.7-.2-1.95-2.35-1.25-2.25-1.25-3.4" transform="translate(11.3 15.4)"/><path fill="url(#u)" d="M3.075 3.4l1.3.1q.4 0 1.45-1.3 1-1.4 1.4-1.4.15 0 .25.15v3.8l-.1.2-.75 1.4q-.5 1-.85 1-.7 0-1.5-1.05l-2.1-2.45V3.4h.9" transform="translate(11.3 15.4)"/><path fill="url(#v)" d="M-.425-2.85l.05 1.1-2.35-.95-2.65-.95h2.7l1.1.2q1.05.25 1.1.55l.05.05" transform="translate(11.3 15.4)"/><path fill="url(#w)" d="M4.775-3.25l.2.5-.2.35-1.2.1-1.95-.3q-1.25-.35-.9-.4h-.35l.2-.15 2.4-.45 1.8.35" transform="translate(11.3 15.4)"/><path fill="url(#x)" d="M.975-15.05q5.6 1.6 6.55 2.65 2 2.4 2 4.65 0 3.7-6.05 3.7-1.3 0-1.7-.3-.6-.45-1.15-2.1-.6-1.85-.55-2.85l-.05-2.3q0-2.15.85-3.5l.1.05" transform="translate(11.3 15.4)"/><path fill="url(#y)" d="M-3.225-14.65h.05q-2.85 1.75-4.65 4.85-1.7 2.95-1.7 5.75 0 1.8.5 3v.25h-.05q-.85-2.75-.85-5.05l.15-1.4q0-1.05 2.15-4 1.5-2.35 4.4-3.4" transform="translate(11.3 15.4)"/><path fill="url(#z)" d="M2.375-14.6h.45q3.45.6 5.6 3.65 1.9 2.65 1.9 5.35l-.5 3.9h-.05l.25-2.05q0-3.2-1.75-6.2-2.15-3.75-5.9-4.65" transform="translate(11.3 15.4)"/></g></svg>