<svg xmlns="http://www.w3.org/2000/svg" width="24" height="33"><g transform="translate(11.65 16.45)"><radialGradient id="a" gradientUnits="userSpaceOnUse" gradientTransform="matrix(.00468 -.00052 .00053 .00452 7.55 4.15)" spreadMethod="pad" cx="0" cy="0" r="819.2" fx="0" fy="0"><stop offset="0" stop-color="#fca783"/><stop offset="1" stop-color="#fedec1"/></radialGradient><path d="M8.5 5.4l.05-.05V5.05l.15-.9V3.8l.05-.15.05-.4V3l.1-1.65.05-.05 1.15-.15.6.35.6.55q.65.6.2 1.6l-.4.9-.15.55-.2.75-.05.05-.55.95-.6.55-.4.55-.9.15v-.2l.05-.05h-.05l.05-.9v-.1l.15-.9V6l1.15.15.7-.75.15-.25.1-.45.1-.45v-.6l-.4.15L10 4h-.35l.05-.05.15-.3h.1l.5-.2.2-.25v-.1l-.2-.95q-1.3-.75-1.4.1-.1.85.1 1.35l.05.25-.15.5-.15.2.1.2-.2.35-.3.3" fill="url(#a)"/><radialGradient id="b" gradientUnits="userSpaceOnUse" gradientTransform="matrix(.0039 -.00061 .00063 .00375 8.35 4.6)" spreadMethod="pad" cx="0" cy="0" r="819.2" fx="0" fy="0"><stop offset="0" stop-color="#efa06d"/><stop offset="1" stop-color="#fcc7a5"/></radialGradient><path d="M8.8 5.1l.2-.35-.1-.2.15-.2.15-.5-.05-.25q-.2-.5-.1-1.35.1-.85 1.4-.1l.2.95v.1l-.2.25-.5.2h-.1l-.15.3-.05.05H10l.25-.2.4-.15v.6l-.1.45-.1.45-.15.25-.7.75L8.45 6v-.5l.05-.1.3-.3" fill="url(#b)"/><path d="M8.95 1.3l1.15-.15.6.35.6.55q.65.6.2 1.6l-.4.9-.15.55-.2.75-.05.05-.55.95-.6.55-.4.55-.9.15" fill="none" stroke-width=".05" stroke-linecap="round" stroke-linejoin="round" stroke-miterlimit="3" stroke="#b76340" stroke-opacity=".502"/><radialGradient id="c" gradientUnits="userSpaceOnUse" gradientTransform="matrix(-.0039 -.00061 -.00063 .00375 -8.4 4.65)" spreadMethod="pad" cx="0" cy="0" r="819.2" fx="0" fy="0"><stop offset="0" stop-color="#efa06d"/><stop offset="1" stop-color="#fcc7a5"/></radialGradient><path d="M-8.45 6q-.55.5-1.1.2l-.75-.75-.1-.25-.1-.45-.15-.45v-.6l.4.1.25.25h.35V4l-.2-.3-.1-.05-.5-.2-.15-.25v-.1l.2-.9q1.2-.75 1.3.1.1.8-.1 1.3v.3l.2.5.1.2-.1.2.2.35.3.3V5.4 6h.05" fill="url(#c)"/><radialGradient id="d" gradientUnits="userSpaceOnUse" gradientTransform="matrix(-.00468 -.00052 -.00053 .00452 -7.55 4.2)" spreadMethod="pad" cx="0" cy="0" r="819.2" fx="0" fy="0"><stop offset="0" stop-color="#fca783"/><stop offset="1" stop-color="#fedec1"/></radialGradient><path d="M-8.5 5.45l-.3-.3-.2-.35.1-.2-.1-.2-.2-.5v-.3q.2-.5.1-1.3-.1-.85-1.3-.1l-.2.9v.1l.15.25.5.2.1.05.2.3v.05H-10l-.25-.25-.4-.1v.6l.15.45.1.45.1.25.75.75q.55.3 1.1-.2h.05l.1.9v1.05l.05.1-.05.05-.9-.1-.3-.55-.6-.55-.6-1h-.05l-.15-.75-.2-.6-.35-.9q-.5-.95.15-1.55l.6-.55.65-.4q.45-.3 1.15.2v.05l.1 1.6v.3l.05.35.05.15v.4l.15.9V5.4h.05v.05" fill="url(#d)"/><path d="M-8.9 1.35q-.7-.5-1.15-.2l-.65.4-.6.55q-.65.6-.15 1.55l.35.9.2.6.15.75h.05l.6 1 .6.55.3.55.9.1" fill="none" stroke-width=".05" stroke-linecap="round" stroke-linejoin="round" stroke-miterlimit="3" stroke="#b76340" stroke-opacity=".502"/><path d="M3.9 11.05h-.05l-1.65.45-1.2.3q-1.75.4-1.45.65l-.25-.05v-.05q1.25-.9 3.15-1.6l-1.9-1.3-1.9-1.4q0-1.15 2.9-1.15h.05l.3-.05.95.05h.65L4 7q.2 0 .65.45l.85.65.95-1.85.1-.55.15-.9q0-.4-.4-1.05L7 2.7l.4-.9.25-.4Q8.4.95 10 .55L9.25 3.1v.15l-.75 2.8v.35l-.1.55v.3l-.05.8-.1.95-.2.8L7 11.6l-1.75 1.8-1.45 1.1-.2.15-.7.55-.75.6.55-.7.6-1.25-.15-.25.1-.15.3-.25q.25-.1.55-2.1h-.05l.25-.25-.25.2V10.65l.05-.3-.15.65-.05.05" fill="#fdd4b6"/><radialGradient id="e" gradientUnits="userSpaceOnUse" gradientTransform="matrix(.01195 0 0 .01247 -1.1 -11.7)" spreadMethod="pad" cx="0" cy="0" r="819.2" fx="0" fy="0"><stop offset="0" stop-color="#fbbd9d"/><stop offset="1" stop-color="#fedec1"/></radialGradient><path d="M7.65 1.4l-.25.4-.4.9-.7 1.05q.4.65.4 1.05l-.15.9-.1.55L5.5 8.1l-.85-.65Q4.2 7 4 7l-.5-.1h-.65l-.95-.05-.3.05h-.05q-2.9 0-2.9 1.15l1.9 1.4 1.9 1.3q-1.9.7-3.15 1.6v.05l.25.05 2.05.2h.2l.25.05.25.1h.05l-.5.55-.85.6.05.05.95-.4q.15-.2.35-.2l.25-.1.4-.55.85-1.7.1.05V11l.15-.65-.05.3L4 11v.05h.05l.25-.2-.25.25h.05q-.3 2-.55 2.1l-.3.25-.1.15.15.25-.6 1.25-.55.7-1.55.55-.8.1-1.15-.2-.2-.1-.5-.2-1-.65-.45-1.15q-.7-1.85-.8-3.8-.15-1.5-.35-1.9l-.65-.55.1 1.3-.1 1.15-.25.05-.2-.05q-.5-.95-1.1-3.85l-.45-.4-1.3-1.6-.2-.2-.35-.5-.8-2.65-.15-.5-.35-1.6-.75-3.15.15-1.7h.05q.4 0 3-4.5l2.85-2.45q1.7-1.2 3.85-1.2 3.05 0 5.85 1.3Q7.2-11.45 8-10l1.7 2.9.45.85.45 1.6.3 1.65-.3 1.35-.4 1.6-.2.55v.05q-1.6.4-2.35.85m-3.7 9.75l.05.05v-.05h-.05" fill="url(#e)"/><radialGradient id="f" gradientUnits="userSpaceOnUse" gradientTransform="matrix(.00873 0 0 .0091 8.3 11.65)" spreadMethod="pad" cx="0" cy="0" r="819.2" fx="0" fy="0"><stop offset="0" stop-color="#fbbd9d"/><stop offset="1" stop-color="#fedec1"/></radialGradient><path d="M4.05 11.05H4V11l.05-.35V11.05m-.1-.05v.05H3.9l.05-.05" fill="url(#f)"/><radialGradient id="g" gradientUnits="userSpaceOnUse" gradientTransform="matrix(.00893 0 0 .00932 -9.25 14.45)" spreadMethod="pad" cx="0" cy="0" r="819.2" fx="0" fy="0"><stop offset="0" stop-color="#fbbd9d"/><stop offset="1" stop-color="#fedec1"/></radialGradient><path d="M-4.1 14.55l-.65-.5-.45-.45-2-2.25-.85-1.7-.15-.55-.15-.9-.05-.85V7.1l-.05-.4-.7-2.9.35.5.2.2 1.3 1.6.45.4q.6 2.9 1.1 3.85l.2.05.25-.05.1-1.15-.1-1.3.65.55q.2.4.35 1.9.1 1.95.8 3.8l.45 1.15-1.05-.75" fill="url(#g)"/><radialGradient id="h" gradientUnits="userSpaceOnUse" gradientTransform="matrix(.0059 -.00044 .00015 .00208 .9 12.25)" spreadMethod="pad" cx="0" cy="0" r="819.2" fx="0" fy="0"><stop offset="0" stop-color="#facbb4"/><stop offset="1" stop-color="#fedec1"/></radialGradient><path d="M3.95 11.05v.05l-.1-.05-.85 1.7-.4.55-.25.1q-.2 0-.35.2l-.95.4-.05-.05.85-.6.5-.55H2.3l-.25-.1-.25-.05h-.2l-2.05-.2q-.3-.25 1.45-.65l1.2-.3 1.65-.45h.1" fill="url(#h)"/><radialGradient id="i" gradientUnits="userSpaceOnUse" gradientTransform="matrix(.0059 -.00044 .00015 .00208 .9 12.25)" spreadMethod="pad" cx="0" cy="0" r="819.2" fx="0" fy="0"><stop offset="0" stop-color="#fbbd9d"/><stop offset="1" stop-color="#fedec1"/></radialGradient><path d="M4 11.15v.05l-.05-.05H4" fill="url(#i)"/><path d="M10 .55V.5l.2-.55.4-1.6.3-1.35m-21.95-2.8l-.15 1.7.75 3.15.35 1.6.15.5.8 2.65.7 2.9.05.4v.25l.05.85.15.9.15.55.85 1.7 2 2.25.45.45.65.5 1.05.75 1 .65.5.2.2.1 1.15.2.8-.1 1.55-.55M10 .55L9.25 3.1v.15l-.75 2.8v.35l-.1.55v.3l-.05.8-.1.95-.2.8L7 11.6l-1.75 1.8-1.45 1.1-.2.15-.7.55-.75.6" fill="none" stroke-width=".05" stroke-linecap="round" stroke-linejoin="round" stroke-miterlimit="3" stroke="#b76340" stroke-opacity=".502"/><radialGradient id="j" gradientUnits="userSpaceOnUse" gradientTransform="matrix(.01253 .00015 -.0002 .00621 -.85 -1.85)" spreadMethod="pad" cx="0" cy="0" r="819.2" fx="0" fy="0"><stop offset="0" stop-color="#fff8f7" stop-opacity=".353"/><stop offset=".831" stop-color="#ffdec2" stop-opacity="0"/></radialGradient><path d="M-10.3-1.45q0-1.7 3.4-3.45Q-5-6.05-1.3-6.05q2.3 0 5.3 1.2 3.55 1.4 3.55 3.2L6.9-.2 5.8 0 2.35.75l-3.75.75-4.45-.8L-9.8-.45l-.35-.15-.15-.85" fill="url(#j)"/><radialGradient id="k" gradientUnits="userSpaceOnUse" gradientTransform="matrix(.01204 0 0 .01257 -10.8 11.65)" spreadMethod="pad" cx="0" cy="0" r="819.2" fx="0" fy="0"><stop offset="0" stop-color="#fbbd9d"/><stop offset="1" stop-color="#fedec1"/></radialGradient><path d="M-7.5 4.7l.2 2.5q.05 1.7.5 3l.85 1.75 1 1.05.3.5.1.2h-.05l-1.65-1.45-.9-.8q-.75-.85-1.05-2.2V9.1l-.15-.9-.05-.85V7.1l-.05-.4-.7-2.9-.65-2.25 2.1 2.8.2.35" fill="url(#k)"/><radialGradient id="l" gradientUnits="userSpaceOnUse" gradientTransform="matrix(.0181 0 0 .01889 8.85 11.2)" spreadMethod="pad" cx="0" cy="0" r="819.2" fx="0" fy="0"><stop offset="0" stop-color="#fabd9d" stop-opacity=".624"/><stop offset="1" stop-color="#fedec1"/></radialGradient><path d="M10.9-2.95l-.3 1.3-.4 1.6-.2.55-.75 2.6v.15l-.75 2.8v.35l-.1.55v.3l-.05.8-.1.95-.05.1q-.3 1.35-1.05 2.25L4.6 13.6l-.8.8L2 15.8l-.4.25-.05.05-.65.2q-1.45.3-2.9-.4l-.25-.15 2.55-.1 1.15-.55 2.05-1.75.3-.25.35-.35.55-.95.6-1.25q0-.3.7-.8l.85-1 .2-.8.05-.15.1-1.25.1-.9.3-.75.55-2.2q0-.6.15-.55-.55-.5-2.35-3.55l1.6-2.4q1.3-1.45 2.9-1.5l.35 1.4.1.95" fill="url(#l)"/><radialGradient id="m" gradientUnits="userSpaceOnUse" gradientTransform="matrix(.0123 0 0 .0123 2.85 -18.9)" spreadMethod="pad" cx="0" cy="0" r="819.2" fx="41" fy="0"><stop offset="0" stop-color="#feeade"/><stop offset=".988" stop-color="#fedec2"/></radialGradient><path d="M-11.45-4.95v.6-.6" fill="url(#m)"/><radialGradient id="n" gradientUnits="userSpaceOnUse" gradientTransform="matrix(.01195 0 0 .01247 -1.1 -11.7)" spreadMethod="pad" cx="0" cy="0" r="819.2" fx="0" fy="0"><stop offset="0" stop-color="#fbbd9d"/><stop offset="1" stop-color="#fedec1"/></radialGradient><path d="M-11.4-2.9l-.05-1.45V-5l.25-2.25q.35-1.65 1.2-3.1l1.85-2.55q3.25-3.55 7.95-3.5 4.65-.05 7.95 3.5t3.35 8.55q-.05 2-.6 3.9L9.8 1.2l.05-1.7.1-2.05q0-2.7-1.2-4.8l-1-.7Q6.65-8.7 5.2-8.8 2.25-9.1.15-6.55-2-9.1-4.9-8.8q-2.85.25-4.45 2.5l-.4 7.9q-1.4-2.4-1.65-4.5" fill="url(#n)"/><path d="M9.8 1.2l.7-1.65q.55-1.9.6-3.9-.05-5-3.35-8.55-3.3-3.55-7.95-3.5-4.7-.05-7.95 3.5L-10-10.35q-.85 1.45-1.2 3.1L-11.45-5v.65l.05 1.45q.25 2.1 1.65 4.5m-1.7-5.95v-.6" fill="none" stroke-width=".05" stroke-linecap="round" stroke-linejoin="round" stroke-miterlimit="3" stroke="#b76340" stroke-opacity=".502"/><radialGradient id="o" gradientUnits="userSpaceOnUse" gradientTransform="matrix(.01196 0 0 .01196 6.85 -12.65)" spreadMethod="pad" cx="0" cy="0" r="819.2" fx="0" fy="0"><stop offset="0" stop-color="#fff" stop-opacity=".161"/><stop offset="1" stop-color="#fff" stop-opacity="0"/></radialGradient><path d="M-.35-12.3q0-2.3.9-3.75l.1.05q6.05 1.7 7 2.85 2.2 2.55 2.2 5 0 3.95-6.55 3.95l-1.8-.3Q.85-5 .25-6.8-.4-8.75-.3-9.85l-.05-2.45" fill="url(#o)"/><radialGradient id="p" gradientUnits="userSpaceOnUse" gradientTransform="matrix(.01027 0 0 .01027 -7.45 -8.1)" spreadMethod="pad" cx="0" cy="0" r="819.2" fx="0" fy="0"><stop offset="0" stop-color="#fff" stop-opacity=".502"/><stop offset="1" stop-color="#fff" stop-opacity="0"/></radialGradient><path d="M-8.8-10.35q-1.85 3.15-1.85 6.15 0 1.9.55 3.25v.25h-.05q-.9-2.95-.9-5.45l.15-1.5q0-1.1 2.3-4.3 1.6-2.5 4.75-3.65h.05q-3.1 1.9-5 5.25" fill="url(#p)"/><radialGradient id="q" gradientUnits="userSpaceOnUse" gradientTransform="matrix(.0099 0 0 .0099 6.45 -8.55)" spreadMethod="pad" cx="0" cy="0" r="819.2" fx="0" fy="0"><stop offset="0" stop-color="#fff" stop-opacity=".643"/><stop offset="1" stop-color="#fff" stop-opacity="0"/></radialGradient><path d="M8.65-11.6q2.05 2.85 2.05 5.75l-.55 4.15h-.05l.25-2.15q0-3.5-1.85-6.7-2.3-4-6.3-4.95h.4q3.75.6 6.05 3.9" fill="url(#q)"/><radialGradient id="r" gradientUnits="userSpaceOnUse" gradientTransform="matrix(.01147 0 0 .01147 -.55 -12.6)" spreadMethod="pad" cx="0" cy="0" r="819.2" fx="0" fy="0"><stop offset="0" stop-color="#fff" stop-opacity=".502"/><stop offset="1" stop-color="#fff" stop-opacity="0"/></radialGradient><path d="M-6.05-14.6q1.75-1.05 3.45-1.5l2.4-.3 2.05.15 1.35.45q.45.25 1.4.65.9.35 2.1 1.4 1.1.95 2 2.45-.5 2.45-2.65 4.2Q3.3-4.8-.55-4.8q-3.85 0-6.65-2.3-2.4-2-2.65-4.85l1.15-.9 2.65-1.75" fill="url(#r)"/><radialGradient id="s" gradientUnits="userSpaceOnUse" gradientTransform="matrix(.00218 .00084 -.00014 .00528 4.8 4.7)" spreadMethod="pad" cx="0" cy="0" r="819.2" fx="0" fy="0"><stop offset="0" stop-color="#fff" stop-opacity=".263"/><stop offset="1" stop-color="#fff" stop-opacity="0"/></radialGradient><path d="M6.35 3.1l.1.05-.1.5-.05.15L6 5.3l-.7 1.45q-.95.65-1.9.25-1.45-.85-1.95-1.25-.5-.45 0-.85L2.9 3.4q.85-1.05 1.75-1.2.85-.05 1.7.9" fill="url(#s)"/><radialGradient id="t" gradientUnits="userSpaceOnUse" gradientTransform="matrix(.00003 -.00273 .0043 .0001 -1.55 9.5)" spreadMethod="pad" cx="0" cy="0" r="819.2" fx="0" fy="0"><stop offset="0" stop-color="#fff" stop-opacity=".314"/><stop offset="1" stop-color="#fff" stop-opacity="0"/></radialGradient><path d="M-5.3 9.25V9.2q.05-.6.85-1.15l.35-.25q1.05-.7 2.15-.65 1.15 0 2.4.75 1.1.7 1.05 1.45 0 .75-1.15 1.5l-.85.4-.95-.3-.7-.3-.9-.25-1.45.1q-.8-.65-.8-1.25" fill="url(#t)"/><radialGradient id="u" gradientUnits="userSpaceOnUse" gradientTransform="matrix(.00175 -.00209 .00327 .0028 -2.2 13.35)" spreadMethod="pad" cx="0" cy="0" r="819.2" fx="0" fy="0"><stop offset="0" stop-color="#fff" stop-opacity=".263"/><stop offset="1" stop-color="#fff" stop-opacity="0"/></radialGradient><path d="M-1 11.3l1 1.25.35.85q.4 1.25-.05 1.75-.5.6-1.85.45-1.3-.2-2.15-.95-.85-.75-1.25-2-.45-1.3.05-1.85l.4-.3 1.45-.1.9.25.7.3.45.35" fill="url(#u)"/><radialGradient id="v" gradientUnits="userSpaceOnUse" gradientTransform="matrix(.0027 -.00053 .0008 .00424 -6.45 6.35)" spreadMethod="pad" cx="0" cy="0" r="819.2" fx="0" fy="0"><stop offset="0" stop-color="#fff" stop-opacity=".243"/><stop offset="1" stop-color="#fff" stop-opacity="0"/></radialGradient><path d="M-4.2 5.45q.2 1.2-.25 2.5v.1q-.8.55-.85 1.15l-.35.15q-.75.1-1.7-.85-.9-.95-1.05-2.1-.25-1.1.25-2.35.5-1.3 1.2-1.45.75-.1 1.7.9.85.9 1.05 1.95" fill="url(#v)"/><radialGradient id="w" gradientUnits="userSpaceOnUse" gradientTransform="matrix(.00005 -.00275 .00432 .0001 1.15 14.65)" spreadMethod="pad" cx="0" cy="0" r="819.2" fx="0" fy="0"><stop offset="0" stop-color="#fff" stop-opacity=".263"/><stop offset="1" stop-color="#fff" stop-opacity="0"/></radialGradient><path d="M-1.6 15.75q-1-.7-1-1.35 0-.75 1.2-1.5 1.05-.65 2.15-.6 1.2 0 2.4.75l.05.05.3.5-.95.75Q.85 15.8.25 15.8l-1.2-.2-.65.15" fill="url(#w)"/><radialGradient id="x" gradientUnits="userSpaceOnUse" gradientTransform="matrix(.00876 0 0 .01079 -8.65 -3.45)" spreadMethod="pad" cx="0" cy="0" r="819.2" fx="0" fy="0"><stop offset="0" stop-color="#fabd9d" stop-opacity=".643"/><stop offset="1" stop-color="#ffdec2" stop-opacity="0"/></radialGradient><path d="M-9.4-11.45l3.05.25q.25 1.8-.2 3.65Q-7-5.75-6.8-3.6q.2 2.15-.6 2.8-.75 1.2-.9 2.2-.15 1-.35.3-.2-.7-.25 1.15l.1.5-.05.6v.65l-.3-1.85-.5-1.35-.9-2.1-.65-2.45-.15-2.8q-.05-1.85 1.95-5.5" fill="url(#x)"/><radialGradient id="y" gradientUnits="userSpaceOnUse" gradientTransform="matrix(.00696 0 0 .00989 8.3 -2.2)" spreadMethod="pad" cx="0" cy="0" r="819.2" fx="0" fy="0"><stop offset="0" stop-color="#fabd9d" stop-opacity=".643"/><stop offset="1" stop-color="#ffdec2" stop-opacity="0"/></radialGradient><path d="M5.95-8.05l-.2.9v-2.2h.05v-.05l1-3.75q3.2 1.5 3.85 5.8.6 4.3 0 6.25L9.4 3 7.65 7.4l.7-4.4.05-.25.1-1.1h-.05Q8.4.15 7.1-1.05l-.3-.65.2-1.35q-.2-2.9-.6-4.2-.45-1.3-.45-.8" fill="url(#y)"/><radialGradient id="z" gradientUnits="userSpaceOnUse" gradientTransform="matrix(.00478 .00046 -.00024 .00273 -.4 14.85)" spreadMethod="pad" cx="0" cy="0" r="819.2" fx="6" fy="0"><stop offset="0" stop-color="#fbbd9d"/><stop offset="1" stop-color="#f9e2c1"/></radialGradient><path d="M-1.55 15.65l-.3-.35 2.25.35 1.9-.4q-1.05.85-2.35.8-1.3-.1-1.5-.4" fill="url(#z)"/></g></svg>