<svg xmlns="http://www.w3.org/2000/svg" width="24" height="32"><g transform="translate(11.85 15.8)"><radialGradient id="a" gradientUnits="userSpaceOnUse" gradientTransform="matrix(.00517 0 0 .0064 7.5 2.2)" spreadMethod="pad" cx="0" cy="0" r="819.2" fx="0" fy="0"><stop offset="0" stop-color="#fb8f62"/><stop offset=".698" stop-color="#fec7a3"/><stop offset="1" stop-color="#fedec1"/></radialGradient><path d="M11.3.35Q11.25 0 11.05 0q-.7.4-1.3 1.3-.55.95-.55 1.4l.1.55-.2.7-.2.75q0 .5.15.65l.35-.6.6-.3-.05-1.3.65-2.2.15.9-.3 2.4q.55-.85.7-1.8l.05-.2.15-1-.05-.9m-2-.45l.7-.45.8-.25q.5 0 .7.4.25.5.35 2.15l-1.1 2.5L9.2 6.9l-.4.25h-.6L9.3-.1" fill="url(#a)"/><radialGradient id="b" gradientUnits="userSpaceOnUse" gradientTransform="matrix(.00345 .00093 -.00145 .00539 8.8 2.4)" spreadMethod="pad" cx="0" cy="0" r="819.2" fx="0" fy="0"><stop offset="0" stop-color="#ea8440"/><stop offset="1" stop-color="#fcc7a5"/></radialGradient><path d="M11.35 1.25l-.15 1-.05.2q-.15.95-.7 1.8l.3-2.4-.15-.9-.65 2.2.05 1.3-.6.3-.35.6Q8.9 5.2 8.9 4.7l.2-.75.2-.7-.1-.55q0-.45.55-1.4.6-.9 1.3-1.3.2 0 .25.35l.05.9" fill="url(#b)"/><path d="M9.3-.1l.7-.45.8-.25q.5 0 .7.4.25.5.35 2.15l-1.1 2.5L9.2 6.9l-.4.25h-.6" fill="none" stroke-width=".05" stroke-linecap="round" stroke-linejoin="round" stroke-miterlimit="3" stroke="#b76340" stroke-opacity=".502"/><radialGradient id="c" gradientUnits="userSpaceOnUse" gradientTransform="matrix(-.00517 0 0 .0064 -7.5 2.2)" spreadMethod="pad" cx="0" cy="0" r="819.2" fx="0" fy="0"><stop offset="0" stop-color="#fb8f62"/><stop offset=".698" stop-color="#fec7a3"/><stop offset="1" stop-color="#fedec1"/></radialGradient><path d="M-11.3.35q.05-.35.25-.35.7.4 1.3 1.3.55.95.55 1.4l-.1.55.2.7.2.75q0 .5-.15.65l-.35-.6-.6-.3.05-1.3-.65-2.2-.15.9.3 2.4q-.55-.85-.7-1.8l-.05-.2-.15-1 .05-.9m2-.45l-.7-.45-.8-.25q-.5 0-.7.4-.25.5-.35 2.15l1.1 2.5L-9.2 6.9l.4.25h.6L-9.3-.1" fill="url(#c)"/><radialGradient id="d" gradientUnits="userSpaceOnUse" gradientTransform="matrix(-.00345 .00093 .00145 .00539 -8.8 2.4)" spreadMethod="pad" cx="0" cy="0" r="819.2" fx="0" fy="0"><stop offset="0" stop-color="#ea8440"/><stop offset="1" stop-color="#fcc7a5"/></radialGradient><path d="M-11.35 1.25l.15 1 .05.2q.15.95.7 1.8l-.3-2.4.15-.9.65 2.2-.05 1.3.6.3.35.6q.15-.15.15-.65l-.2-.75-.2-.7.1-.55q0-.45-.55-1.4-.6-.9-1.3-1.3-.2 0-.25.35l-.05.9" fill="url(#d)"/><path d="M-9.3-.1l-.7-.45-.8-.25q-.5 0-.7.4-.25.5-.35 2.15l1.1 2.5L-9.2 6.9l.4.25h.6" fill="none" stroke-width=".05" stroke-linecap="round" stroke-linejoin="round" stroke-miterlimit="3" stroke="#b76340" stroke-opacity=".502"/><radialGradient id="e" gradientUnits="userSpaceOnUse" gradientTransform="matrix(.00928 0 0 .01744 .15 .8)" spreadMethod="pad" cx="0" cy="0" r="819.2" fx="210515" fy="0"><stop offset="0" stop-color="#ffe4cf"/><stop offset="1" stop-color="#fbc9ab"/></radialGradient><path d="M4.85 7.35q-.45 1-.55 1.9L4 10.8l-1.05 3.35-2 .7q-1.45.4-3.85-.7l-1.05-3.35-.3-1.55q-.1-.9-.55-1.9l-1.15-2.1-.75-3.85-.25-1.5v-.15l.25-1.7.25-.4.3-.45q.6-1.1.7-5.3v-.25l.6-6.25q2.15-1.2 4.8-1.15 3.45-.05 6.15 2L5.75-8.4l-.25-.05q.1 4.5.7 5.65l.3.45.25.4q.3.45.3 1.85L6.8 1.4l-.25 1.1L6 5.25l-1.15 2.1" fill="url(#e)"/><radialGradient id="f" gradientUnits="userSpaceOnUse" gradientTransform="matrix(.0121 0 0 .01529 10.75 -4.2)" spreadMethod="pad" cx="0" cy="0" r="819.2" fx="212" fy="0"><stop offset="0" stop-color="#f0b192"/><stop offset="1" stop-color="#ffd5bd"/></radialGradient><path d="M9.3-5.3l-.1-.4-.5 1.4-.1.35q-.65 2-.65 3L8.05.4l.15 1.2-.15.95-.15.2L6 5.25l.55-2.75.25-1.1.25-1.5q0-1.4-.3-1.85l-.25-.4-.3-.45q-.6-1.15-.7-5.65l.25.05.35-5.35 1.5 1.35q1.7 1.85 2.5 4.15L9.3-5.3" fill="url(#f)"/><radialGradient id="g" gradientUnits="userSpaceOnUse" gradientTransform="matrix(.00899 -.00264 .00528 .01807 -9.75 9.5)" spreadMethod="pad" cx="0" cy="0" r="819.2" fx="6" fy="0"><stop offset="0" stop-color="#f0b192"/><stop offset="1" stop-color="#ffd5bd"/></radialGradient><path d="M-8 2.55q1.5 1.75 2.05 2.7l1.15 2.1q.45 1 .55 1.9l.3 1.55 1.05 3.35.3.95q-1.2-.75-2.8-2.6l-1.3-1.55-1.3-8.4" fill="url(#g)"/><radialGradient id="h" gradientUnits="userSpaceOnUse" gradientTransform="matrix(.009 .00241 -.00395 .0147 9.3 10.8)" spreadMethod="pad" cx="0" cy="0" r="819.2" fx="6" fy="0"><stop offset="0" stop-color="#f0b192"/><stop offset="1" stop-color="#ffd5bd"/></radialGradient><path d="M2.95 14.15L4 10.8l.3-1.55q.1-.9.55-1.9L6 5.25l1.9-2.5.15-.2v.25L6.8 10.85 5.45 12.5q-1.6 1.8-2.8 2.6l.3-.95" fill="url(#h)"/><radialGradient id="i" gradientUnits="userSpaceOnUse" gradientTransform="matrix(.01521 0 0 .02432 -11.6 -1.15)" spreadMethod="pad" cx="0" cy="0" r="819.2" fx="0" fy="0"><stop offset="0" stop-color="#f0b192"/><stop offset="1" stop-color="#fbc9ab"/></radialGradient><path d="M-6.7 10.95l-.6-.95q-.9-1.5-1.05-3.3l-.05-.65-.3-1.35-.3-1.1-.35-1.55q-1.2-2.8-1.45-4.85l-.05-1.4v-.65l.25-2.1q.35-1.65 1.15-3h.05l.35 4.2-.05.1.1.3.45 1.4q.7 2 .7 3l-.05.4-.1.95-.15 1.2.15.95 1.3 8.4" fill="url(#i)"/><radialGradient id="j" gradientUnits="userSpaceOnUse" gradientTransform="matrix(.0137 0 0 .02188 12.55 .55)" spreadMethod="pad" cx="0" cy="0" r="819.2" fx="0" fy="0"><stop offset="0" stop-color="#f0b192"/><stop offset="1" stop-color="#fbc9ab"/></radialGradient><path d="M8.05 2.8v-.25l.15-.95L8.05.4l-.1-1.35q0-1 .65-3l.1-.35.5-1.4.1.4.8-2.95q.7 1.85.7 4.05-.05 1.95-.6 3.75L9.5 1.7h-.05l-.05.25L9.2 3l-.15.6-.35 1.1-.25 1.35-.1.65q-.15 1.8-1 3.3l-.55.85L8.05 2.8" fill="url(#j)"/><radialGradient id="k" gradientUnits="userSpaceOnUse" gradientTransform="matrix(.00702 0 0 .00813 .55 19.5)" spreadMethod="pad" cx="0" cy="0" r="819.2" fx="0" fy="0"><stop offset="0" stop-color="#f0b192"/><stop offset="1" stop-color="#fbc9ab"/></radialGradient><path d="M2.65 15.1l-1.1.5-1.55.2-1.5-.2-1.1-.5-.3-.95q2.4 1.1 3.85.7l2-.7-.3.95" fill="url(#k)"/><radialGradient id="l" gradientUnits="userSpaceOnUse" gradientTransform="matrix(.01 0 0 .01677 -10.5 -4.75)" spreadMethod="pad" cx="0" cy="0" r="819.2" fx="6" fy="0"><stop offset="0" stop-color="#f0b192"/><stop offset="1" stop-color="#ffd5bd"/></radialGradient><path d="M-5.45-8.35v.25q-.1 4.2-.7 5.3l-.3.45-.25.4-.25 1.7v.15l.25 1.5.75 3.85Q-6.5 4.3-8 2.55l-.15-.95L-8 .4l.1-.95.05-.4q0-1-.7-3L-9-5.35l-.1-.3.05-.1-.35-4.2q.6-1.35 1.7-2.45 1.3-1.4 2.85-2.2l-.6 6.25" fill="url(#l)"/><radialGradient id="m" gradientUnits="userSpaceOnUse" gradientTransform="matrix(.0118 0 0 .0118 2.9 -18.2)" spreadMethod="pad" cx="0" cy="0" r="819.2" fx="41" fy="0"><stop offset="0" stop-color="#feeade"/><stop offset=".988" stop-color="#fedec2"/></radialGradient><path d="M9.5 1.7l-.05.05V1.7h.05m-20.35-5.9v-.6.6m1.4-5.75h.05-.05" fill="url(#m)"/><path d="M-4.85-14.6q-1.55.8-2.85 2.2-1.1 1.1-1.7 2.45m4.55-4.65q2.15-1.2 4.8-1.15 3.45-.05 6.15 2l1.5 1.35q1.7 1.85 2.5 4.15.7 1.85.7 4.05-.05 1.95-.6 3.75L9.5 1.7l-.05.05m0-.05l-.05.25L9.2 3l-.15.6-.35 1.1-.25 1.35-.1.65q-.15 1.8-1 3.3l-.55.85-1.35 1.65q-1.6 1.8-2.8 2.6l-1.1.5-1.55.2-1.5-.2-1.1-.5q-1.2-.75-2.8-2.6l-1.3-1.55-.6-.95q-.9-1.5-1.05-3.3l-.05-.65-.3-1.35-.3-1.1-.35-1.55q-1.2-2.8-1.45-4.85l-.05-1.4v-.65l.25-2.1q.35-1.65 1.15-3h.05m.05 12l-.05-.1L-9.75.1l-.05-.25m-1.05-4.65v.6" fill="none" stroke-width=".05" stroke-linecap="round" stroke-linejoin="round" stroke-miterlimit="3" stroke="#b76340" stroke-opacity=".502"/><radialGradient id="n" gradientUnits="userSpaceOnUse" gradientTransform="matrix(.00262 -.0007 .00122 .00394 -6.2 4.75)" spreadMethod="pad" cx="0" cy="0" r="819.2" fx="0" fy="0"><stop offset="0" stop-color="#fff" stop-opacity=".361"/><stop offset=".988" stop-color="#fff" stop-opacity="0"/></radialGradient><path d="M-4.2 6.55Q-4.65 8-5.95 8q-.6 0-1.6-1.75-1.05-1.7-.25-3.85l.75-.25q.85 0 1.95 1.05 1.15 1.1 1.15 1.9l-.25 1.45" fill="url(#n)"/><radialGradient id="o" gradientUnits="userSpaceOnUse" gradientTransform="matrix(.00232 .00089 -.00188 .0042 7.2 4.35)" spreadMethod="pad" cx="0" cy="0" r="819.2" fx="0" fy="0"><stop offset="0" stop-color="#fff" stop-opacity=".361"/><stop offset=".988" stop-color="#fff" stop-opacity="0"/></radialGradient><path d="M4.85 5.35L5.15 4l1.2-2.15q1.15 0 1.85.45.7.4.7.95L8.4 5.6q-.65 2.1-1.5 2.1-.7 0-1.4-1.05-.65-.95-.65-1.3" fill="url(#o)"/><radialGradient id="p" gradientUnits="userSpaceOnUse" gradientTransform="matrix(.00212 -.00026 .00052 .00414 -2.55 12.05)" spreadMethod="pad" cx="0" cy="0" r="819.2" fx="0" fy="0"><stop offset="0" stop-color="#fff" stop-opacity=".231"/><stop offset=".988" stop-color="#fff" stop-opacity="0"/></radialGradient><path d="M-2.65 10.35q.8.3 1.1 1.35l.4 1.6-.05 1.1-.6.35-.6.05q-.55 0-1-.75l-.9-2.2q-.45-1.5.2-1.65l1.45.15" fill="url(#p)"/><radialGradient id="q" gradientUnits="userSpaceOnUse" gradientTransform="matrix(.0015 .00066 -.00127 .00291 2.8 12.4)" spreadMethod="pad" cx="0" cy="0" r="819.2" fx="0" fy="0"><stop offset="0" stop-color="#fff" stop-opacity=".322"/><stop offset=".988" stop-color="#fff" stop-opacity="0"/></radialGradient><path d="M3.1 10.3q.5-.05.7.25l.15.6-.15 1.2q-.35 1.65-1.15 2.2l-.4.3Q2 15 1.8 14.7l-.25-.6-.1-1.35q0-.85.65-1.7l1-.75" fill="url(#q)"/><radialGradient id="r" gradientUnits="userSpaceOnUse" gradientTransform="matrix(.01147 0 0 .01147 6.7 -12.15)" spreadMethod="pad" cx="0" cy="0" r="819.2" fx="0" fy="0"><stop offset="0" stop-color="#fff" stop-opacity=".161"/><stop offset="1" stop-color="#fff" stop-opacity="0"/></radialGradient><path d="M.75-15.4q5.8 1.65 6.75 2.75 2.1 2.45 2.1 4.8 0 3.8-6.3 3.8l-1.75-.3q-.6-.5-1.15-2.2-.65-1.9-.55-2.95l-.05-2.3q0-2.25.85-3.6h.1" fill="url(#r)"/><radialGradient id="s" gradientUnits="userSpaceOnUse" gradientTransform="matrix(.0095 0 0 .0095 6.3 -8.25)" spreadMethod="pad" cx="0" cy="0" r="819.2" fx="0" fy="0"><stop offset="0" stop-color="#fff" stop-opacity=".643"/><stop offset="1" stop-color="#fff" stop-opacity="0"/></radialGradient><path d="M8.45-11.15q1.95 2.7 1.95 5.5l-.5 4h-.05l.2-2.1q0-3.3-1.75-6.4Q6.1-14 2.25-14.9h.4q3.55.55 5.8 3.75" fill="url(#s)"/><radialGradient id="t" gradientUnits="userSpaceOnUse" gradientTransform="matrix(.00986 0 0 .00986 -7 -7.8)" spreadMethod="pad" cx="0" cy="0" r="819.2" fx="0" fy="0"><stop offset="0" stop-color="#fff" stop-opacity=".502"/><stop offset="1" stop-color="#fff" stop-opacity="0"/></radialGradient><path d="M-8.3-9.95q-1.75 3.05-1.75 5.9 0 1.85.5 3.1v.25h-.05q-.85-2.85-.85-5.2l.15-1.45q0-1.1 2.15-4.15 1.6-2.4 4.6-3.5h.05q-2.95 1.8-4.8 5.05" fill="url(#t)"/><radialGradient id="u" gradientUnits="userSpaceOnUse" gradientTransform="matrix(.01102 0 0 .01102 -.4 -12.1)" spreadMethod="pad" cx="0" cy="0" r="819.2" fx="0" fy="0"><stop offset="0" stop-color="#fff" stop-opacity=".502"/><stop offset="1" stop-color="#fff" stop-opacity="0"/></radialGradient><path d="M-5.65-14.05q1.65-1 3.3-1.4l2.3-.3 1.95.15 1.35.4q.4.25 1.3.65.85.3 2 1.3l1.95 2.4q-.5 2.3-2.55 4Q3.3-4.65-.4-4.65q-3.7 0-6.35-2.2-2.35-1.9-2.55-4.65.2-.15 1.1-.85l2.55-1.7" fill="url(#u)"/></g></svg>