<svg xmlns="http://www.w3.org/2000/svg" width="24" height="32"><g transform="translate(11.95 15.5)"><radialGradient id="a" gradientUnits="userSpaceOnUse" gradientTransform="matrix(.00517 0 0 .0064 7.6 1.3)" spreadMethod="pad" cx="0" cy="0" r="819.2" fx="0" fy="0"><stop offset="0" stop-color="#fb8f62"/><stop offset=".698" stop-color="#fec7a3"/><stop offset="1" stop-color="#fedec1"/></radialGradient><path d="M11.4-.55l-.25-.35q-.7.4-1.3 1.3-.55.95-.55 1.4l.1.55-.2.7-.2.75q0 .5.15.65l.35-.6.6-.3-.05-1.3.65-2.2.15.9-.3 2.4.7-1.8.05-.2.15-1-.05-.9M9.4-1l.7-.45.8-.25q.5 0 .7.4l.35 2.15-1.1 2.5L9.3 6q-.1.2-.4.25h-.6L9.4-1" fill="url(#a)"/><radialGradient id="b" gradientUnits="userSpaceOnUse" gradientTransform="matrix(.00345 .00093 -.00145 .00539 8.9 1.5)" spreadMethod="pad" cx="0" cy="0" r="819.2" fx="0" fy="0"><stop offset="0" stop-color="#ea8440"/><stop offset="1" stop-color="#fcc7a5"/></radialGradient><path d="M11.45.35l-.15 1-.05.2-.7 1.8.3-2.4-.15-.9-.65 2.2.05 1.3-.6.3-.35.6Q9 4.3 9 3.8l.2-.75.2-.7-.1-.55q0-.45.55-1.4.6-.9 1.3-1.3l.25.35.05.9" fill="url(#b)"/><path d="M9.4-1l.7-.45.8-.25q.5 0 .7.4l.35 2.15-1.1 2.5L9.3 6q-.1.2-.4.25h-.6" fill="none" stroke-width=".05" stroke-linecap="round" stroke-linejoin="round" stroke-miterlimit="3" stroke="#b76340" stroke-opacity=".502"/><radialGradient id="c" gradientUnits="userSpaceOnUse" gradientTransform="matrix(-.00517 0 0 .0064 -7.6 1.3)" spreadMethod="pad" cx="0" cy="0" r="819.2" fx="0" fy="0"><stop offset="0" stop-color="#fb8f62"/><stop offset=".698" stop-color="#fec7a3"/><stop offset="1" stop-color="#fedec1"/></radialGradient><path d="M-11.4-.55l.25-.35q.7.4 1.3 1.3.55.95.55 1.4l-.1.55.2.7.2.75q0 .5-.15.65l-.35-.6-.6-.3.05-1.3-.65-2.2-.15.9.3 2.4-.7-1.8-.05-.2-.15-1 .05-.9m2-.45l-.7-.45-.8-.25q-.5 0-.7.4l-.35 2.15 1.1 2.5L-9.3 6q.1.2.4.25h.6L-9.4-1" fill="url(#c)"/><radialGradient id="d" gradientUnits="userSpaceOnUse" gradientTransform="matrix(-.00345 .00093 .00145 .00539 -8.9 1.5)" spreadMethod="pad" cx="0" cy="0" r="819.2" fx="0" fy="0"><stop offset="0" stop-color="#ea8440"/><stop offset="1" stop-color="#fcc7a5"/></radialGradient><path d="M-11.45.35l.15 1 .05.2.7 1.8-.3-2.4.15-.9.65 2.2-.05 1.3.6.3.35.6Q-9 4.3-9 3.8l-.2-.75-.2-.7.1-.55q0-.45-.55-1.4-.6-.9-1.3-1.3l-.25.35-.05.9" fill="url(#d)"/><path d="M-9.4-1l-.7-.45-.8-.25q-.5 0-.7.4l-.35 2.15 1.1 2.5L-9.3 6q.1.2.4.25h.6" fill="none" stroke-width=".05" stroke-linecap="round" stroke-linejoin="round" stroke-miterlimit="3" stroke="#b76340" stroke-opacity=".502"/><radialGradient id="e" gradientUnits="userSpaceOnUse" gradientTransform="matrix(.00952 0 0 .02011 -.1 -.5)" spreadMethod="pad" cx="0" cy="0" r="819.2" fx="0" fy="0"><stop offset="0" stop-color="#fbd3b5"/><stop offset="1" stop-color="#fbc9ab"/></radialGradient><path d="M-7.55 1.75V1.7l.35-2.15.15-.7.85-1.95q.45-.85.45-2.15L-5.8-7.7V-8h-.1v-5.45q2.6-2.05 6.05-2Q2.8-15.5 5-14.25l-.3 5.9v.4l-.2 1.8L4.2-3l.85 1.8L6.3 1.5 4.95 4l-.9 1.75-.6 2.15Q3.1 9.35 2.5 9.85l-.95.65q-.4.2-.1 1.35l.05.6q-.1 1.4-1.25 1.75l-1.95.25-1.15-.4-.25-.6q0-.6.2-.7 1.55-1.9-.3-2.4-1.55-.65-1.85-1.75l-.5-1.75-.8-2.25-1.2-2.85" fill="url(#e)"/><radialGradient id="f" gradientUnits="userSpaceOnUse" gradientTransform="matrix(.01071 .00209 -.0026 .01337 8.65 12.25)" spreadMethod="pad" cx="0" cy="0" r="819.2" fx="0" fy="0"><stop offset="0" stop-color="#f0b192"/><stop offset="1" stop-color="#fbc9ab"/></radialGradient><path d="M4.85 9.8l-.8 2.45q-1.75 2-2.5 2.2l-2.15.35-1.55-.1-.7-.65 1.15.4 1.95-.25q1.15-.35 1.25-1.75l-.05-.6q-.3-1.15.1-1.35l.95-.65q.6-.5.95-1.95l.6-2.15.9-1.75L6.3 1.5 6.35.25h.05q.45.95.7 3.1l.05.6-.35.65q-.35.85-.6 2.05L6 7.5l.7-.65-.75.95-1.1 2" fill="url(#f)"/><linearGradient id="g" gradientUnits="userSpaceOnUse" gradientTransform="matrix(.00357 -.00203 .00417 .00732 -6.15 10.1)" x1="-819.2" x2="819.2"><stop offset="0" stop-color="#f0b192"/><stop offset="1" stop-color="#fbc9ab"/></linearGradient><path d="M-6.35 4.6l.8 2.25.5 1.75q.3 1.1 1.85 1.75 1.85.5.3 2.4-.2.1-.2.7l.25.6.7.65-1.05-.25h-.1l-.85-2.8q-.2-.65-.65-1.15l-.75-.85-.95-2-.65-1.9-.8-1.45.4-2.55 1.2 2.85" fill="url(#g)"/><radialGradient id="h" gradientUnits="userSpaceOnUse" gradientTransform="matrix(.01157 0 0 .01157 3.05 -17.85)" spreadMethod="pad" cx="0" cy="0" r="819.2" fx="41" fy="0"><stop offset="0" stop-color="#feeade"/><stop offset=".988" stop-color="#fedec2"/></radialGradient><path d="M-10.4-4.7v.55-.55" fill="url(#h)"/><radialGradient id="i" gradientUnits="userSpaceOnUse" gradientTransform="matrix(.00848 -.001 .00179 .01501 -11.8 -2.75)" spreadMethod="pad" cx="0" cy="0" r="819.2" fx="0" fy="0"><stop offset="0" stop-color="#f0b192"/><stop offset="1" stop-color="#fbc9ab"/></radialGradient><path d="M-5.9-8h.1v.3l.05 2.45q0 1.3-.45 2.15l-.85 1.95-.15.7-.35 2.15v.05l-.4 2.55-.6-.95L-9 2.7l-.05-.8-.2-.8q-.85-1.8-1.1-3.85l-.05-1.4V-4.75l.25-2.1q.3-1.6 1.1-2.95l1.75-2.35 1.4-1.3V-8" fill="url(#i)"/><radialGradient id="j" gradientUnits="userSpaceOnUse" gradientTransform="matrix(.00917 0 0 .01613 11.95 -2.7)" spreadMethod="pad" cx="0" cy="0" r="819.2" fx="0" fy="0"><stop offset="0" stop-color="#f0b192"/><stop offset="1" stop-color="#fbc9ab"/></radialGradient><path d="M9.35 1.35V1L9.5.5 8.15 2.4l-1 1.55-.05-.6Q6.85 1.2 6.4.25L6.35.2v.05L6.3 1.5 5.05-1.2 4.2-3l.3-3.15.2-1.8v-.4l.3-5.9 2.65 2.1q3.1 3.3 3.15 8-.05 1.9-.6 3.65l-.8 1.75-.05.1" fill="url(#j)"/><radialGradient id="k" gradientUnits="userSpaceOnUse" gradientTransform="matrix(.01878 0 0 .01878 9.9 10.3)" spreadMethod="pad" cx="0" cy="0" r="819.2" fx="0" fy="0"><stop offset="0" stop-color="#f0b192"/><stop offset="1" stop-color="#fbc9ab"/></radialGradient><path d="M5.15 12.9l.4-2.5.4-2.6.75-.95-.7.65.2-.85q.25-1.2.6-2.05l.35-.65 1-1.55L9.5.5l-.15.5v.35l.05-.1-.6 2.65L8.25 7l-.5 2.55q-.35 1.1-2 2.8l-.3.3-.3.25" fill="url(#k)"/><radialGradient id="l" gradientUnits="userSpaceOnUse" gradientTransform="translate(4.2 17.45) scale(.01683)" spreadMethod="pad" cx="0" cy="0" r="819.2" fx="0" fy="0"><stop offset=".302" stop-color="#f0b192"/><stop offset="1" stop-color="#fbc9ab"/></radialGradient><path d="M4.9 13.15L2.4 15.1l-1.6.45-1.8-.05-1.7-.5-.9-.65.3.1h.1l1.05.25 1.55.1 2.15-.35q.75-.2 2.5-2.2l.8-2.45 1.1-2-.4 2.6-.4 2.5-.25.25" fill="url(#l)"/><radialGradient id="m" gradientUnits="userSpaceOnUse" gradientTransform="matrix(.01852 0 0 .0198 -11.15 11.2)" spreadMethod="pad" cx="0" cy="0" r="819.2" fx="0" fy="0"><stop offset="0" stop-color="#f0b192"/><stop offset="1" stop-color="#fbc9ab"/></radialGradient><path d="M-3.6 14.35l-1.35-1.15-.85-.8q-1.45-1.5-2-3.95l-.95-4L-9 2.7l.45.65.6.95.8 1.45.65 1.9.95 2 .75.85q.45.5.65 1.15l.85 2.8-.3-.1" fill="url(#m)"/><path d="M-5.9-13.45l-1.4 1.3-1.75 2.35q-.8 1.35-1.1 2.95l-.25 2.1v.6l.05 1.4q.25 2.05 1.1 3.85l.2.8.05.8m3.1-16.15q2.6-2.05 6.05-2Q2.8-15.5 5-14.25l2.65 2.1q3.1 3.3 3.15 8-.05 1.9-.6 3.65l-.8 1.75-.6 2.65L8.25 7l-.5 2.55q-.35 1.1-2 2.8l-.3.3-.55.5-2.5 1.95-1.6.45-1.8-.05-1.7-.5-.9-.65-1.35-1.15-.85-.8q-1.45-1.5-2-3.95l-.95-4L-9 2.7M9.35 1.35l.05-.1m-19.8-5.4v-.55" fill="none" stroke-width=".05" stroke-linecap="round" stroke-linejoin="round" stroke-miterlimit="3" stroke="#b76340" stroke-opacity=".502"/><radialGradient id="n" gradientUnits="userSpaceOnUse" gradientTransform="matrix(.00343 .00183 -.00238 .00449 4.45 3.6)" spreadMethod="pad" cx="0" cy="0" r="819.2" fx="0" fy="0"><stop offset="0" stop-color="#fff" stop-opacity=".282"/><stop offset=".898" stop-color="#fff" stop-opacity="0"/></radialGradient><path d="M2.2 3.6q.05-1.35 1.05-1.9.85-.5 2.65-.5 1.05 0 1.55.5.35.4.35 1 0 .7-.7 1-1.2.4-1.7 1.1L4.35 6.15q-.5.6-1 .6H3l-.25-.15-.1-.5-.2-.7-.15-1-.1-.65V3.6" fill="url(#n)"/><radialGradient id="o" gradientUnits="userSpaceOnUse" gradientTransform="matrix(.00227 -.00137 .00267 .00443 -5.3 3.95)" spreadMethod="pad" cx="0" cy="0" r="819.2" fx="0" fy="0"><stop offset="0" stop-color="#fff" stop-opacity=".282"/><stop offset=".898" stop-color="#fff" stop-opacity="0"/></radialGradient><path d="M-2.7 5.95q.1 1.1-.15 1.4-.3.3-1.05.3-.8 0-.95-.65l-.3-.55-.4-.7L-7.2 4q-.8-.95-.9-1.75.8-.8 1.75-.8 1.05 0 2.3 1.7l.8 1.3q.45.85.55 1.5" fill="url(#o)"/><radialGradient id="p" gradientUnits="userSpaceOnUse" gradientTransform="matrix(.00395 0 0 .00133 -.15 13.15)" spreadMethod="pad" cx="0" cy="0" r="819.2" fx="0" fy="0"><stop offset="0" stop-color="#fff" stop-opacity=".302"/><stop offset=".898" stop-color="#fff" stop-opacity="0"/></radialGradient><path d="M-3.35 13.15q0-.45.95-.75l2.25-.3 2.3.3q.95.3.95.75 0 .4-.95.7l-2.3.35-2.25-.35q-.95-.3-.95-.7" fill="url(#p)"/><radialGradient id="q" gradientUnits="userSpaceOnUse" gradientTransform="matrix(.01125 0 0 .01125 6.8 -11.95)" spreadMethod="pad" cx="0" cy="0" r="819.2" fx="0" fy="0"><stop offset="0" stop-color="#fff" stop-opacity=".161"/><stop offset="1" stop-color="#fff" stop-opacity="0"/></radialGradient><path d="M7.55-12.45q2.05 2.4 2.05 4.7Q9.6-4 3.5-4l-1.75-.3Q1.15-4.75.6-6.45 0-8.3.1-9.35L.05-11.6q0-2.2.8-3.55l.1.05q5.7 1.6 6.6 2.65" fill="url(#q)"/><radialGradient id="r" gradientUnits="userSpaceOnUse" gradientTransform="matrix(.00966 0 0 .00966 -6.65 -7.7)" spreadMethod="pad" cx="0" cy="0" r="819.2" fx="0" fy="0"><stop offset="0" stop-color="#fff" stop-opacity=".502"/><stop offset="1" stop-color="#fff" stop-opacity="0"/></radialGradient><path d="M-7.95-9.8q-1.7 3-1.7 5.8 0 1.8.5 3.05v.25h-.05q-.8-2.8-.8-5.15l.1-1.4q0-1.05 2.15-4.05 1.55-2.35 4.5-3.45-2.85 1.8-4.7 4.95" fill="url(#r)"/><radialGradient id="s" gradientUnits="userSpaceOnUse" gradientTransform="matrix(.00932 0 0 .00932 6.4 -8.1)" spreadMethod="pad" cx="0" cy="0" r="819.2" fx="0" fy="0"><stop offset="0" stop-color="#fff" stop-opacity=".643"/><stop offset="1" stop-color="#fff" stop-opacity="0"/></radialGradient><path d="M2.4-14.65h.4q3.5.55 5.7 3.7 1.9 2.65 1.9 5.4l-.5 3.9h-.05l.25-2.05q0-3.25-1.75-6.3-2.2-3.75-5.95-4.65" fill="url(#s)"/><radialGradient id="t" gradientUnits="userSpaceOnUse" gradientTransform="matrix(.0108 0 0 .0108 -.15 -11.9)" spreadMethod="pad" cx="0" cy="0" r="819.2" fx="0" fy="0"><stop offset="0" stop-color="#fff" stop-opacity=".424"/><stop offset="1" stop-color="#fff" stop-opacity="0"/></radialGradient><path d="M.15-15.45l1.95.1 1.3.45 1.3.6L6.65-13q1.05.95 1.9 2.3-.45 2.3-2.5 4Q3.5-4.6-.15-4.6q-3.65 0-6.25-2.1-2.25-1.95-2.5-4.6l1.05-.8 2.55-1.7q1.6-.95 3.25-1.4l2.2-.25" fill="url(#t)"/></g></svg>