<svg width="24" height="32" xmlns="http://www.w3.org/2000/svg"><defs><radialGradient fy="0" fx="0" r="819.2" cy="0" cx="0" spreadMethod="pad" gradientTransform="matrix(.00496 0 0 .00615 7.775 2.025)" gradientUnits="userSpaceOnUse" id="a"><stop stop-color="#FB8F62" offset="0"/><stop stop-color="#FEC7A3" offset=".698"/><stop stop-color="#FEDEC1" offset="1"/></radialGradient><radialGradient fy="0" fx="0" r="819.2" cy="0" cx="0" spreadMethod="pad" gradientTransform="matrix(.00331 .0009 -.00139 .00517 9.025 2.225)" gradientUnits="userSpaceOnUse" id="b"><stop stop-color="#EA8440" offset="0"/><stop stop-color="#FCC7A5" offset="1"/></radialGradient><radialGradient fy="0" fx="0" r="819.2" cy="0" cx="0" spreadMethod="pad" gradientTransform="matrix(-.00496 0 0 .00615 -7.025 2.025)" gradientUnits="userSpaceOnUse" id="c"><stop stop-color="#FB8F62" offset="0"/><stop stop-color="#FEC7A3" offset=".698"/><stop stop-color="#FEDEC1" offset="1"/></radialGradient><radialGradient fy="0" fx="0" r="819.2" cy="0" cx="0" spreadMethod="pad" gradientTransform="matrix(-.00331 .0009 .00139 .00517 -8.275 2.225)" gradientUnits="userSpaceOnUse" id="d"><stop stop-color="#EA8440" offset="0"/><stop stop-color="#FCC7A5" offset="1"/></radialGradient><radialGradient fy="0" fx="0" r="819.2" cy="0" cx="0" spreadMethod="pad" gradientTransform="matrix(.01437 0 0 .01884 9.125 3.625)" gradientUnits="userSpaceOnUse" id="e"><stop stop-color="#F0B192" offset=".224"/><stop stop-color="#FBC9AB" offset="1"/></radialGradient><radialGradient fy="0" fx="0" r="819.2" cy="0" cx="0" spreadMethod="pad" gradientTransform="translate(14.875 .625) scale(.01512)" gradientUnits="userSpaceOnUse" id="f"><stop stop-color="#F0B192" offset="0"/><stop stop-color="#FBC9AB" offset="1"/></radialGradient><radialGradient fy="0" fx="210515" r="819.2" cy="0" cx="0" spreadMethod="pad" gradientTransform="matrix(.01031 0 0 .0187 -1.075 5.225)" gradientUnits="userSpaceOnUse" id="g"><stop stop-color="#FBD3B5" offset="0"/><stop stop-color="#FBC9AB" offset="1"/></radialGradient><radialGradient fy="0" fx="0" r="819.2" cy="0" cx="0" spreadMethod="pad" gradientTransform="matrix(.0052 .003 -.00485 .0084 6.925 11.875)" gradientUnits="userSpaceOnUse" id="h"><stop stop-color="#F0B192" offset="0"/><stop stop-color="#FBC9AB" offset="1"/></radialGradient><radialGradient fy="0" fx="0" r="819.2" cy="0" cx="0" spreadMethod="pad" gradientTransform="matrix(.00739 0 0 .00974 -8.325 12.975)" gradientUnits="userSpaceOnUse" id="i"><stop stop-color="#F0B192" offset="0"/><stop stop-color="#FBC9AB" offset="1"/></radialGradient><radialGradient fy="0" fx="0" r="819.2" cy="0" cx="0" spreadMethod="pad" gradientTransform="matrix(.00526 0 0 .00526 .975 17.575)" gradientUnits="userSpaceOnUse" id="j"><stop stop-color="#F0B192" offset="0"/><stop stop-color="#FBC9AB" offset="1"/></radialGradient><radialGradient fy="0" fx="41" r="819.2" cy="0" cx="0" spreadMethod="pad" gradientTransform="matrix(.01144 0 0 .01144 3.125 -17.425)" gradientUnits="userSpaceOnUse" id="k"><stop stop-color="#FEEADE" offset="0"/><stop stop-color="#FEDEC2" offset=".988"/></radialGradient><radialGradient fy="0" fx="0" r="819.2" cy="0" cx="0" spreadMethod="pad" gradientTransform="matrix(.00806 0 0 .01805 -10.425 -1.675)" gradientUnits="userSpaceOnUse" id="l"><stop stop-color="#F0B192" offset="0"/><stop stop-color="#FBC9AB" offset="1"/></radialGradient><radialGradient fy="0" fx="0" r="819.2" cy="0" cx="0" spreadMethod="pad" gradientTransform="matrix(.01308 0 0 .02065 -10.725 2.525)" gradientUnits="userSpaceOnUse" id="m"><stop stop-color="#F0B192" offset=".224"/><stop stop-color="#FBC9AB" offset="1"/></radialGradient><radialGradient fy="0" fx="0" r="819.2" cy="0" cx="0" spreadMethod="pad" gradientTransform="matrix(.00266 -.00072 .00085 .00317 5.325 5.325)" gradientUnits="userSpaceOnUse" id="n"><stop stop-color="#FFF" stop-opacity=".243" offset="0"/><stop stop-color="#FFF" stop-opacity="0" offset=".988"/></radialGradient><radialGradient fy="0" fx="0" r="819.2" cy="0" cx="0" spreadMethod="pad" gradientTransform="matrix(.0026 -.0007 .001 .00372 -4.875 4.925)" gradientUnits="userSpaceOnUse" id="o"><stop stop-color="#FFF" stop-opacity=".302" offset="0"/><stop stop-color="#FFF" stop-opacity="0" offset=".988"/></radialGradient><radialGradient fy="0" fx="0" r="819.2" cy="0" cx="0" spreadMethod="pad" gradientTransform="matrix(.0042 0 0 .00285 -1.425 13.375)" gradientUnits="userSpaceOnUse" id="p"><stop stop-color="#FFF" stop-opacity=".282" offset="0"/><stop stop-color="#FFF" stop-opacity="0" offset=".988"/></radialGradient><radialGradient fy="0" fx="0" r="819.2" cy="0" cx="0" spreadMethod="pad" gradientTransform="matrix(.001 .00058 -.00226 .00392 5.575 9.175)" gradientUnits="userSpaceOnUse" id="q"><stop stop-color="#FFF" stop-opacity=".353" offset="0"/><stop stop-color="#FFF" stop-opacity="0" offset=".988"/></radialGradient><radialGradient fy="0" fx="0" r="819.2" cy="0" cx="0" spreadMethod="pad" gradientTransform="matrix(.01114 0 0 .01114 6.825 -11.575)" gradientUnits="userSpaceOnUse" id="r"><stop stop-color="#FFF" stop-opacity=".161" offset="0"/><stop stop-color="#FFF" stop-opacity="0" offset="1"/></radialGradient><radialGradient fy="0" fx="0" r="819.2" cy="0" cx="0" spreadMethod="pad" gradientTransform="matrix(.00957 0 0 .00957 -6.425 -7.375)" gradientUnits="userSpaceOnUse" id="s"><stop stop-color="#FFF" stop-opacity=".502" offset="0"/><stop stop-color="#FFF" stop-opacity="0" offset="1"/></radialGradient><radialGradient fy="0" fx="0" r="819.2" cy="0" cx="0" spreadMethod="pad" gradientTransform="translate(6.475 -7.775) scale(.00923)" gradientUnits="userSpaceOnUse" id="t"><stop stop-color="#FFF" stop-opacity=".643" offset="0"/><stop stop-color="#FFF" stop-opacity="0" offset="1"/></radialGradient><radialGradient fy="0" fx="0" r="819.2" cy="0" cx="0" spreadMethod="pad" gradientTransform="translate(-.025 -11.525) scale(.01068)" gradientUnits="userSpaceOnUse" id="u"><stop stop-color="#FFF" stop-opacity=".502" offset="0"/><stop stop-color="#FFF" stop-opacity="0" offset="1"/></radialGradient></defs><path fill="none" d="M-1-1h582v402H-1z"/><g><path fill="url(#a)" d="M9.475-.175l.7-.45.75-.25q.5 0 .65.4l.35 2.05-1.05 2.4-1.5 2.55-.35.25h-.6l1.05-6.95m1.95.4l-.25-.3q-.7.35-1.25 1.25t-.55 1.3l.1.55-.2.65-.2.75q0 .45.15.6l.35-.55.6-.3-.05-1.25.6-2.1.15.85-.3 2.3q.55-.8.7-1.7l.05-.2.15-.95-.05-.9" transform="translate(11.55 15.5)"/><path fill="url(#b)" d="M11.475 1.125l-.15.95-.05.2q-.15.9-.7 1.7l.3-2.3-.15-.85-.6 2.1.05 1.25-.6.3-.35.55q-.15-.15-.15-.6l.2-.75.2-.65-.1-.55q0-.4.55-1.3t1.25-1.25l.25.3.05.9" transform="translate(11.55 15.5)"/><path fill="none" stroke-width=".05" stroke-linecap="round" stroke-linejoin="round" stroke-miterlimit="3" stroke="#B76340" stroke-opacity=".502" d="M21.025 15.325l.7-.45.75-.25q.5 0 .65.4l.35 2.05-1.05 2.4-1.5 2.55-.35.25h-.6"/><path fill="url(#c)" d="M-8.725-.175l-.7-.45-.75-.25q-.5 0-.65.4l-.35 2.05 1.05 2.4 1.5 2.55.35.25h.6l-1.05-6.95m-1.95.4l.25-.3q.7.35 1.25 1.25t.55 1.3l-.1.55.2.65.2.75q0 .45-.15.6l-.35-.55-.6-.3.05-1.25-.6-2.1-.15.85.3 2.3q-.55-.8-.7-1.7l-.05-.2-.15-.95.05-.9" transform="translate(11.55 15.5)"/><path fill="url(#d)" d="M-10.725 1.125l.15.95.05.2q.15.9.7 1.7l-.3-2.3.15-.85.6 2.1-.05 1.25.6.3.35.55q.15-.15.15-.6l-.2-.75-.2-.65.1-.55q0-.4-.55-1.3t-1.25-1.25l-.25.3-.05.9" transform="translate(11.55 15.5)"/><path fill="none" stroke-width=".05" stroke-linecap="round" stroke-linejoin="round" stroke-miterlimit="3" stroke="#B76340" stroke-opacity=".502" d="M2.825 15.325l-.7-.45-.75-.25q-.5 0-.65.4l-.35 2.05 1.05 2.4 1.5 2.55.35.25h.6"/><path fill="url(#e)" d="M6.725 9.625l.7-2.1.55-2q.55-1.95.7-3.5l.5-5.75.1-1 .05-.35.2-4.15q1.25 2.4 1.25 5.35 0 1.9-.55 3.65l-.7 1.8-.05.05-.55 2.25-.55 3.35q-.2 1.65-1.9 4l.25-1.6" transform="translate(11.55 15.5)"/><path fill="url(#f)" d="M9.325-5.075l-.05.35-.1 1-.5 5.75q-.15 1.55-.7 3.5l-1.6 1.9.5-2.4.3-2.1-.25-2.95-.25-3.8.1-3.15.1-.7-.2-.05.1-5 .95.9q1.1 1.2 1.8 2.6l-.2 4.15" transform="translate(11.55 15.5)"/><path fill="url(#g)" d="M5.175 8.775q-.5.65-.85 1.95l-.95 2.5-.75 1.25q-1.9 1-3.85.25l-.6-.3-.75-1.2-.95-2.5q-.4-1.3-.85-1.95-.35-.55-1.15-1.35l-.55-2.4-.3-2.1.25-2.95q.3-1.9.3-3.8v-.55l-.05.1-.35-8.4q2.75-2.45 6.5-2.4 3.7-.05 6.5 2.35l-.1 5 .2.05-.1.7-.1 3.15.25 3.8.25 2.95-.3 2.1-.5 2.4-1.2 1.35" transform="translate(11.55 15.5)"/><path fill="url(#h)" d="M2.625 14.475l.75-1.25.95-2.5q.35-1.3.85-1.95l1.2-1.35 1.6-1.9-.55 2-.7 2.1-.25 1.6-1.35 1.65q-1.85 2.25-3.2 2.75l-.4.15 1.1-1.3" transform="translate(11.55 15.5)"/><path fill="url(#i)" d="M-.675 15.775l-.5-.15q-1.4-.5-3.25-2.75l-1.2-1.55q0-.7-.3-1.7l-.65-2.1-.6-2 1.65 1.9q.8.8 1.15 1.35.45.65.85 1.95l.95 2.5.75 1.2 1.15 1.35" transform="translate(11.55 15.5)"/><path fill="url(#j)" d="M1.525 15.775l-1.15.15-1.05-.15-1.15-1.35.6.3q1.95.75 3.85-.25l-1.1 1.3" transform="translate(11.55 15.5)"/><path fill="url(#k)" d="M9.525 1.575l-.05.1.05-.1m-19.7-5.45v-.55.55" transform="translate(11.55 15.5)"/><path fill="url(#l)" d="M-5.875-4.275l.05-.1v.55q0 1.9-.3 3.8l-.25 2.95.3 2.1.55 2.4-1.65-1.9-.65-3.5-.15-1.8-.05.1-1.15-9.1.35-.7q.65-1.25 1.7-2.35l.9-.85.35 8.4" transform="translate(11.55 15.5)"/><path fill="url(#m)" d="M-6.575 7.525l.65 2.1q.3 1 .3 1.7-1.75-2.4-2-4.1l-.6-3.35-.5-2q-1.15-2.35-1.4-4.35l-.05-1.4V-4.475l.25-2.1.75-2.2 1.15 9.1.05-.1.15 1.8.65 3.5.6 2" transform="translate(11.55 15.5)"/><path fill="none" stroke-width=".05" stroke-linecap="round" stroke-linejoin="round" stroke-miterlimit="3" stroke="#B76340" stroke-opacity=".502" d="M5.325 2.825l-.9.85q-1.05 1.1-1.7 2.35l-.35.7m2.95-3.9q2.75-2.45 6.5-2.4 3.7-.05 6.5 2.35l.95.9q1.1 1.2 1.8 2.6 1.25 2.4 1.25 5.35 0 1.9-.55 3.65l-.7 1.8-.05.1m0-.05l-.55 2.25-.55 3.35q-.2 1.65-1.9 4l-1.35 1.65q-1.85 2.25-3.2 2.75l-.4.15-1.15.15-1.05-.15-.5-.15q-1.4-.5-3.25-2.75l-1.2-1.55q-1.75-2.4-2-4.1l-.6-3.35-.5-2q-1.15-2.35-1.4-4.35l-.05-1.4V11.025l.25-2.1.75-2.2m-1 4.35v.55"/><path fill="url(#n)" d="M7.125 6.475q-.5 1.2-1.6 1.2l-.2-.05-.3-.1-.65-.75-.15-.2v-.05l-.55-1.35-.25-.8q0-.6.45-.6l.7.05.65.05 1.8-.1.4.2.05.7q0 1-.35 1.8" transform="translate(11.55 15.5)"/><path fill="url(#o)" d="M-6.925 2.025l.4-.15 1.8 1.05q1.25 1.05 1.95 1.05.15 1.25-.65 2.6-.9 1.45-2.25 1.45-.45 0-1.05-1.75-.55-1.7-.55-3.1 0-.85.35-1.15" transform="translate(11.55 15.5)"/><path fill="url(#p)" d="M1.475 12.575l.1.05.6.65q.15.4-.25.8l-.85.8-1.3.3-.55.05q-.85 0-1.75-.95-1-1.1-1-2.65l.15-.5.4-.2.55.25.75.6q1.2.9 2.7.9l.25-.05.2-.05" transform="translate(11.55 15.5)"/><path fill="url(#q)" d="M6.125 8.675v.4l-.25.75-1.85 2.5-.05-.25-.1-.65q0-.25.15-.4l1-1.7.55-.15.45-.45.1-.05" transform="translate(11.55 15.5)"/><path fill="url(#r)" d="M.175-11.275q0-2.15.8-3.5l.1.05q5.6 1.6 6.55 2.65 2 2.4 2 4.65 0 3.7-6.05 3.7l-1.7-.3q-.6-.45-1.15-2.1-.6-1.85-.5-2.85l-.05-2.3" transform="translate(11.55 15.5)"/><path fill="url(#s)" d="M-7.725-9.475q-1.7 2.95-1.7 5.75 0 1.8.5 3v.25h-.05q-.8-2.75-.8-5.05l.1-1.4q0-1.05 2.15-4 1.5-2.35 4.4-3.4h.05q-2.85 1.75-4.65 4.85" transform="translate(11.55 15.5)"/><path fill="url(#t)" d="M8.525-10.625q1.9 2.65 1.9 5.35l-.5 3.9h-.05l.25-2.05q0-3.2-1.7-6.2-2.2-3.75-5.9-4.6h.4q3.45.55 5.6 3.6" transform="translate(11.55 15.5)"/><path fill="url(#u)" d="M-5.125-13.425q1.6-.95 3.2-1.4l2.2-.25 1.9.15 1.3.4q.4.25 1.3.6l1.9 1.3 1.9 2.3q-.45 2.25-2.5 3.9-2.5 2.15-6.1 2.15-3.6 0-6.2-2.15-2.25-1.9-2.45-4.5l1.05-.85 2.5-1.65" transform="translate(11.55 15.5)"/></g></svg>