<svg xmlns="http://www.w3.org/2000/svg" width="24" height="32"><g transform="translate(11.55 15.5)"><radialGradient id="a" gradientUnits="userSpaceOnUse" gradientTransform="matrix(.00496 0 0 .00615 7.4 1.65)" spreadMethod="pad" cx="0" cy="0" r="819.2" fx="0" fy="0"><stop offset="0" stop-color="#fb8f62"/><stop offset=".698" stop-color="#fec7a3"/><stop offset="1" stop-color="#fedec1"/></radialGradient><path d="M9.1-.55L9.8-1l.75-.25q.5 0 .65.4l.35 2.05-1.05 2.4L9 6.15l-.35.25h-.6L9.1-.55m1.95.4l-.25-.3Q10.1-.1 9.55.8T9 2.1l.1.55-.2.65-.2.75q0 .45.15.6l.35-.55.6-.3-.05-1.25.6-2.1.15.85-.3 2.3q.55-.8.7-1.7l.05-.2.15-.95-.05-.9" fill="url(#a)"/><radialGradient id="b" gradientUnits="userSpaceOnUse" gradientTransform="matrix(.00331 .0009 -.00139 .00517 8.65 1.85)" spreadMethod="pad" cx="0" cy="0" r="819.2" fx="0" fy="0"><stop offset="0" stop-color="#ea8440"/><stop offset="1" stop-color="#fcc7a5"/></radialGradient><path d="M11.1.75l-.15.95-.05.2q-.15.9-.7 1.7l.3-2.3-.15-.85-.6 2.1.05 1.25-.6.3-.35.55q-.15-.15-.15-.6l.2-.75.2-.65L9 2.1q0-.4.55-1.3T10.8-.45l.25.3.05.9" fill="url(#b)"/><path d="M9.1-.55L9.8-1l.75-.25q.5 0 .65.4l.35 2.05-1.05 2.4L9 6.15l-.35.25h-.6" fill="none" stroke-width=".05" stroke-linecap="round" stroke-linejoin="round" stroke-miterlimit="3" stroke="#b76340" stroke-opacity=".502"/><radialGradient id="c" gradientUnits="userSpaceOnUse" gradientTransform="matrix(-.00496 0 0 .00615 -7.4 1.65)" spreadMethod="pad" cx="0" cy="0" r="819.2" fx="0" fy="0"><stop offset="0" stop-color="#fb8f62"/><stop offset=".698" stop-color="#fec7a3"/><stop offset="1" stop-color="#fedec1"/></radialGradient><path d="M-9.1-.55L-9.8-1l-.75-.25q-.5 0-.65.4l-.35 2.05 1.05 2.4L-9 6.15l.35.25h.6L-9.1-.55m-1.95.4l.25-.3q.7.35 1.25 1.25T-9 2.1l-.1.55.2.65.2.75q0 .45-.15.6l-.35-.55-.6-.3.05-1.25-.6-2.1-.15.85.3 2.3q-.55-.8-.7-1.7l-.05-.2-.15-.95.05-.9" fill="url(#c)"/><radialGradient id="d" gradientUnits="userSpaceOnUse" gradientTransform="matrix(-.00331 .0009 .00139 .00517 -8.65 1.85)" spreadMethod="pad" cx="0" cy="0" r="819.2" fx="0" fy="0"><stop offset="0" stop-color="#ea8440"/><stop offset="1" stop-color="#fcc7a5"/></radialGradient><path d="M-11.1.75l.15.95.05.2q.15.9.7 1.7l-.3-2.3.15-.85.6 2.1-.05 1.25.6.3.35.55q.15-.15.15-.6l-.2-.75-.2-.65.1-.55q0-.4-.55-1.3T-10.8-.45l-.25.3-.05.9" fill="url(#d)"/><path d="M-9.1-.55L-9.8-1l-.75-.25q-.5 0-.65.4l-.35 2.05 1.05 2.4L-9 6.15l.35.25h.6" fill="none" stroke-width=".05" stroke-linecap="round" stroke-linejoin="round" stroke-miterlimit="3" stroke="#b76340" stroke-opacity=".502"/><radialGradient id="e" gradientUnits="userSpaceOnUse" gradientTransform="matrix(.01437 0 0 .01884 8.75 3.25)" spreadMethod="pad" cx="0" cy="0" r="819.2" fx="0" fy="0"><stop offset=".224" stop-color="#f0b192"/><stop offset="1" stop-color="#fbc9ab"/></radialGradient><path d="M6.35 9.25l.7-2.1.55-2q.55-1.95.7-3.5l.5-5.75.1-1 .05-.35.2-4.15q1.25 2.4 1.25 5.35 0 1.9-.55 3.65l-.7 1.8-.05.05-.55 2.25L8 6.85q-.2 1.65-1.9 4l.25-1.6" fill="url(#e)"/><radialGradient id="f" gradientUnits="userSpaceOnUse" gradientTransform="translate(14.5 .25) scale(.01512)" spreadMethod="pad" cx="0" cy="0" r="819.2" fx="0" fy="0"><stop offset="0" stop-color="#f0b192"/><stop offset="1" stop-color="#fbc9ab"/></radialGradient><path d="M8.95-5.45l-.05.35-.1 1-.5 5.75q-.15 1.55-.7 3.5L6 7.05l.5-2.4.3-2.1L6.55-.4 6.3-4.2l.1-3.15.1-.7-.2-.05.1-5 .95.9q1.1 1.2 1.8 2.6l-.2 4.15" fill="url(#f)"/><radialGradient id="g" gradientUnits="userSpaceOnUse" gradientTransform="matrix(.01031 0 0 .0187 -1.45 4.85)" spreadMethod="pad" cx="0" cy="0" r="819.2" fx="210515" fy="0"><stop offset="0" stop-color="#fbd3b5"/><stop offset="1" stop-color="#fbc9ab"/></radialGradient><path d="M4.8 8.4q-.5.65-.85 1.95L3 12.85l-.75 1.25q-1.9 1-3.85.25l-.6-.3-.75-1.2-.95-2.5q-.4-1.3-.85-1.95-.35-.55-1.15-1.35l-.55-2.4-.3-2.1.25-2.95q.3-1.9.3-3.8v-.55l-.05.1-.35-8.4q2.75-2.45 6.5-2.4 3.7-.05 6.5 2.35l-.1 5 .2.05-.1.7-.1 3.15.25 3.8.25 2.95-.3 2.1-.5 2.4L4.8 8.4" fill="url(#g)"/><radialGradient id="h" gradientUnits="userSpaceOnUse" gradientTransform="matrix(.0052 .003 -.00485 .0084 6.55 11.5)" spreadMethod="pad" cx="0" cy="0" r="819.2" fx="0" fy="0"><stop offset="0" stop-color="#f0b192"/><stop offset="1" stop-color="#fbc9ab"/></radialGradient><path d="M2.25 14.1L3 12.85l.95-2.5q.35-1.3.85-1.95L6 7.05l1.6-1.9-.55 2-.7 2.1-.25 1.6-1.35 1.65q-1.85 2.25-3.2 2.75l-.4.15 1.1-1.3" fill="url(#h)"/><radialGradient id="i" gradientUnits="userSpaceOnUse" gradientTransform="matrix(.00739 0 0 .00974 -8.7 12.6)" spreadMethod="pad" cx="0" cy="0" r="819.2" fx="0" fy="0"><stop offset="0" stop-color="#f0b192"/><stop offset="1" stop-color="#fbc9ab"/></radialGradient><path d="M-1.05 15.4l-.5-.15q-1.4-.5-3.25-2.75L-6 10.95q0-.7-.3-1.7l-.65-2.1-.6-2 1.65 1.9q.8.8 1.15 1.35.45.65.85 1.95l.95 2.5.75 1.2 1.15 1.35" fill="url(#i)"/><radialGradient id="j" gradientUnits="userSpaceOnUse" gradientTransform="matrix(.00526 0 0 .00526 .6 17.2)" spreadMethod="pad" cx="0" cy="0" r="819.2" fx="0" fy="0"><stop offset="0" stop-color="#f0b192"/><stop offset="1" stop-color="#fbc9ab"/></radialGradient><path d="M1.15 15.4L0 15.55l-1.05-.15-1.15-1.35.6.3q1.95.75 3.85-.25l-1.1 1.3" fill="url(#j)"/><radialGradient id="k" gradientUnits="userSpaceOnUse" gradientTransform="matrix(.01144 0 0 .01144 2.75 -17.8)" spreadMethod="pad" cx="0" cy="0" r="819.2" fx="41" fy="0"><stop offset="0" stop-color="#feeade"/><stop offset=".988" stop-color="#fedec2"/></radialGradient><path d="M9.15 1.2l-.05.1.05-.1m-19.7-5.45v-.55.55" fill="url(#k)"/><radialGradient id="l" gradientUnits="userSpaceOnUse" gradientTransform="matrix(.00806 0 0 .01805 -10.8 -2.05)" spreadMethod="pad" cx="0" cy="0" r="819.2" fx="0" fy="0"><stop offset="0" stop-color="#f0b192"/><stop offset="1" stop-color="#fbc9ab"/></radialGradient><path d="M-6.25-4.65l.05-.1v.55q0 1.9-.3 3.8l-.25 2.95.3 2.1.55 2.4-1.65-1.9-.65-3.5-.15-1.8-.05.1-1.15-9.1.35-.7q.65-1.25 1.7-2.35l.9-.85.35 8.4" fill="url(#l)"/><radialGradient id="m" gradientUnits="userSpaceOnUse" gradientTransform="matrix(.01308 0 0 .02065 -11.1 2.15)" spreadMethod="pad" cx="0" cy="0" r="819.2" fx="0" fy="0"><stop offset=".224" stop-color="#f0b192"/><stop offset="1" stop-color="#fbc9ab"/></radialGradient><path d="M-6.95 7.15l.65 2.1q.3 1 .3 1.7-1.75-2.4-2-4.1l-.6-3.35-.5-2q-1.15-2.35-1.4-4.35l-.05-1.4V-4.85l.25-2.1.75-2.2 1.15 9.1.05-.1.15 1.8.65 3.5.6 2" fill="url(#m)"/><path d="M-6.6-13.05l-.9.85q-1.05 1.1-1.7 2.35l-.35.7m2.95-3.9q2.75-2.45 6.5-2.4 3.7-.05 6.5 2.35l.95.9q1.1 1.2 1.8 2.6 1.25 2.4 1.25 5.35 0 1.9-.55 3.65l-.7 1.8-.05.1m0-.05L8.55 3.5 8 6.85q-.2 1.65-1.9 4L4.75 12.5q-1.85 2.25-3.2 2.75l-.4.15-1.15.15-1.05-.15-.5-.15q-1.4-.5-3.25-2.75L-6 10.95q-1.75-2.4-2-4.1l-.6-3.35-.5-2q-1.15-2.35-1.4-4.35l-.05-1.4V-4.85l.25-2.1.75-2.2m-1 4.35v.55" fill="none" stroke-width=".05" stroke-linecap="round" stroke-linejoin="round" stroke-miterlimit="3" stroke="#b76340" stroke-opacity=".502"/><radialGradient id="n" gradientUnits="userSpaceOnUse" gradientTransform="matrix(.00266 -.00072 .00085 .00317 4.95 4.95)" spreadMethod="pad" cx="0" cy="0" r="819.2" fx="0" fy="0"><stop offset="0" stop-color="#fff" stop-opacity=".243"/><stop offset=".988" stop-color="#fff" stop-opacity="0"/></radialGradient><path d="M6.75 6.1q-.5 1.2-1.6 1.2l-.2-.05-.3-.1L4 6.4l-.15-.2v-.05L3.3 4.8 3.05 4q0-.6.45-.6l.7.05.65.05 1.8-.1.4.2.05.7q0 1-.35 1.8" fill="url(#n)"/><radialGradient id="o" gradientUnits="userSpaceOnUse" gradientTransform="matrix(.0026 -.0007 .001 .00372 -5.25 4.55)" spreadMethod="pad" cx="0" cy="0" r="819.2" fx="0" fy="0"><stop offset="0" stop-color="#fff" stop-opacity=".302"/><stop offset=".988" stop-color="#fff" stop-opacity="0"/></radialGradient><path d="M-7.3 1.65l.4-.15 1.8 1.05Q-3.85 3.6-3.15 3.6-3 4.85-3.8 6.2q-.9 1.45-2.25 1.45-.45 0-1.05-1.75-.55-1.7-.55-3.1 0-.85.35-1.15" fill="url(#o)"/><radialGradient id="p" gradientUnits="userSpaceOnUse" gradientTransform="matrix(.0042 0 0 .00285 -1.8 13)" spreadMethod="pad" cx="0" cy="0" r="819.2" fx="0" fy="0"><stop offset="0" stop-color="#fff" stop-opacity=".282"/><stop offset=".988" stop-color="#fff" stop-opacity="0"/></radialGradient><path d="M1.1 12.2l.1.05.6.65q.15.4-.25.8l-.85.8-1.3.3-.55.05q-.85 0-1.75-.95-1-1.1-1-2.65l.15-.5.4-.2.55.25.75.6q1.2.9 2.7.9l.25-.05.2-.05" fill="url(#p)"/><radialGradient id="q" gradientUnits="userSpaceOnUse" gradientTransform="matrix(.001 .00058 -.00226 .00392 5.2 8.8)" spreadMethod="pad" cx="0" cy="0" r="819.2" fx="0" fy="0"><stop offset="0" stop-color="#fff" stop-opacity=".353"/><stop offset=".988" stop-color="#fff" stop-opacity="0"/></radialGradient><path d="M5.75 8.3v.4l-.25.75-1.85 2.5-.05-.25-.1-.65q0-.25.15-.4l1-1.7.55-.15.45-.45.1-.05" fill="url(#q)"/><radialGradient id="r" gradientUnits="userSpaceOnUse" gradientTransform="matrix(.01114 0 0 .01114 6.45 -11.95)" spreadMethod="pad" cx="0" cy="0" r="819.2" fx="0" fy="0"><stop offset="0" stop-color="#fff" stop-opacity=".161"/><stop offset="1" stop-color="#fff" stop-opacity="0"/></radialGradient><path d="M-.2-11.65q0-2.15.8-3.5l.1.05q5.6 1.6 6.55 2.65 2 2.4 2 4.65 0 3.7-6.05 3.7l-1.7-.3Q.9-4.85.35-6.5q-.6-1.85-.5-2.85l-.05-2.3" fill="url(#r)"/><radialGradient id="s" gradientUnits="userSpaceOnUse" gradientTransform="matrix(.00957 0 0 .00957 -6.8 -7.75)" spreadMethod="pad" cx="0" cy="0" r="819.2" fx="0" fy="0"><stop offset="0" stop-color="#fff" stop-opacity=".502"/><stop offset="1" stop-color="#fff" stop-opacity="0"/></radialGradient><path d="M-8.1-9.85Q-9.8-6.9-9.8-4.1q0 1.8.5 3v.25h-.05q-.8-2.75-.8-5.05l.1-1.4q0-1.05 2.15-4 1.5-2.35 4.4-3.4h.05Q-6.3-12.95-8.1-9.85" fill="url(#s)"/><radialGradient id="t" gradientUnits="userSpaceOnUse" gradientTransform="translate(6.1 -8.15) scale(.00923)" spreadMethod="pad" cx="0" cy="0" r="819.2" fx="0" fy="0"><stop offset="0" stop-color="#fff" stop-opacity=".643"/><stop offset="1" stop-color="#fff" stop-opacity="0"/></radialGradient><path d="M8.15-11q1.9 2.65 1.9 5.35l-.5 3.9H9.5l.25-2.05q0-3.2-1.7-6.2-2.2-3.75-5.9-4.6h.4q3.45.55 5.6 3.6" fill="url(#t)"/><radialGradient id="u" gradientUnits="userSpaceOnUse" gradientTransform="translate(-.4 -11.9) scale(.01068)" spreadMethod="pad" cx="0" cy="0" r="819.2" fx="0" fy="0"><stop offset="0" stop-color="#fff" stop-opacity=".502"/><stop offset="1" stop-color="#fff" stop-opacity="0"/></radialGradient><path d="M-5.5-13.8q1.6-.95 3.2-1.4l2.2-.25 1.9.15 1.3.4q.4.25 1.3.6L6.3-13l1.9 2.3q-.45 2.25-2.5 3.9Q3.2-4.65-.4-4.65q-3.6 0-6.2-2.15-2.25-1.9-2.45-4.5l1.05-.85 2.5-1.65" fill="url(#u)"/></g></svg>