<svg width="24" height="33" xmlns="http://www.w3.org/2000/svg"><defs><radialGradient fy="0" fx="0" r="819.2" cy="0" cx="0" spreadMethod="pad" gradientTransform="matrix(.00468 -.00052 .00053 .00452 7.925 4.15)" gradientUnits="userSpaceOnUse" id="a"><stop stop-color="#FCA783" offset="0"/><stop stop-color="#FEDEC1" offset="1"/></radialGradient><radialGradient fy="0" fx="0" r="819.2" cy="0" cx="0" spreadMethod="pad" gradientTransform="matrix(.0039 -.00061 .00063 .00375 8.725 4.6)" gradientUnits="userSpaceOnUse" id="b"><stop stop-color="#EFA06D" offset="0"/><stop stop-color="#FCC7A5" offset="1"/></radialGradient><radialGradient fy="0" fx="0" r="819.2" cy="0" cx="0" spreadMethod="pad" gradientTransform="matrix(-.0039 -.00061 -.00063 .00375 -8.025 4.65)" gradientUnits="userSpaceOnUse" id="c"><stop stop-color="#EFA06D" offset="0"/><stop stop-color="#FCC7A5" offset="1"/></radialGradient><radialGradient fy="0" fx="0" r="819.2" cy="0" cx="0" spreadMethod="pad" gradientTransform="matrix(-.00468 -.00052 -.00053 .00452 -7.175 4.2)" gradientUnits="userSpaceOnUse" id="d"><stop stop-color="#FCA783" offset="0"/><stop stop-color="#FEDEC1" offset="1"/></radialGradient><radialGradient fy="0" fx="0" r="819.2" cy="0" cx="0" spreadMethod="pad" gradientTransform="matrix(.01195 0 0 .01247 -.725 -11.7)" gradientUnits="userSpaceOnUse" id="e"><stop stop-color="#FBBD9D" offset="0"/><stop stop-color="#FEDEC1" offset="1"/></radialGradient><radialGradient fy="0" fx="0" r="819.2" cy="0" cx="0" spreadMethod="pad" gradientTransform="matrix(.00873 0 0 .0091 8.675 11.65)" gradientUnits="userSpaceOnUse" id="f"><stop stop-color="#FBBD9D" offset="0"/><stop stop-color="#FEDEC1" offset="1"/></radialGradient><radialGradient fy="0" fx="0" r="819.2" cy="0" cx="0" spreadMethod="pad" gradientTransform="matrix(.00893 0 0 .00932 -8.875 14.45)" gradientUnits="userSpaceOnUse" id="g"><stop stop-color="#FBBD9D" offset="0"/><stop stop-color="#FEDEC1" offset="1"/></radialGradient><radialGradient fy="0" fx="0" r="819.2" cy="0" cx="0" spreadMethod="pad" gradientTransform="matrix(.0059 -.00044 .00015 .00208 1.275 12.25)" gradientUnits="userSpaceOnUse" id="h"><stop stop-color="#FACBB4" offset="0"/><stop stop-color="#FEDEC1" offset="1"/></radialGradient><radialGradient fy="0" fx="0" r="819.2" cy="0" cx="0" spreadMethod="pad" gradientTransform="matrix(.0059 -.00044 .00015 .00208 1.275 12.25)" gradientUnits="userSpaceOnUse" id="i"><stop stop-color="#FBBD9D" offset="0"/><stop stop-color="#FEDEC1" offset="1"/></radialGradient><radialGradient fy="0" fx="0" r="819.2" cy="0" cx="0" spreadMethod="pad" gradientTransform="matrix(.01253 .00015 -.0002 .00621 -.475 -1.85)" gradientUnits="userSpaceOnUse" id="j"><stop stop-color="#FFF8F7" stop-opacity=".353" offset="0"/><stop stop-color="#FFDEC2" stop-opacity="0" offset=".831"/></radialGradient><radialGradient fy="0" fx="0" r="819.2" cy="0" cx="0" spreadMethod="pad" gradientTransform="matrix(.01204 0 0 .01257 -10.425 11.65)" gradientUnits="userSpaceOnUse" id="k"><stop stop-color="#FBBD9D" offset="0"/><stop stop-color="#FEDEC1" offset="1"/></radialGradient><radialGradient fy="0" fx="0" r="819.2" cy="0" cx="0" spreadMethod="pad" gradientTransform="matrix(.0181 0 0 .01889 9.225 11.2)" gradientUnits="userSpaceOnUse" id="l"><stop stop-color="#FABD9D" stop-opacity=".624" offset="0"/><stop stop-color="#FEDEC1" offset="1"/></radialGradient><radialGradient fy="0" fx="41" r="819.2" cy="0" cx="0" spreadMethod="pad" gradientTransform="matrix(.0123 0 0 .0123 3.225 -18.9)" gradientUnits="userSpaceOnUse" id="m"><stop stop-color="#FEEADE" offset="0"/><stop stop-color="#FEDEC2" offset=".988"/></radialGradient><radialGradient fy="0" fx="0" r="819.2" cy="0" cx="0" spreadMethod="pad" gradientTransform="matrix(.01195 0 0 .01247 -.725 -11.7)" gradientUnits="userSpaceOnUse" id="n"><stop stop-color="#FBBD9D" offset="0"/><stop stop-color="#FEDEC1" offset="1"/></radialGradient><radialGradient fy="0" fx="0" r="819.2" cy="0" cx="0" spreadMethod="pad" gradientTransform="matrix(.01196 0 0 .01196 7.225 -12.65)" gradientUnits="userSpaceOnUse" id="o"><stop stop-color="#FFF" stop-opacity=".161" offset="0"/><stop stop-color="#FFF" stop-opacity="0" offset="1"/></radialGradient><radialGradient fy="0" fx="0" r="819.2" cy="0" cx="0" spreadMethod="pad" gradientTransform="matrix(.01027 0 0 .01027 -7.075 -8.1)" gradientUnits="userSpaceOnUse" id="p"><stop stop-color="#FFF" stop-opacity=".502" offset="0"/><stop stop-color="#FFF" stop-opacity="0" offset="1"/></radialGradient><radialGradient fy="0" fx="0" r="819.2" cy="0" cx="0" spreadMethod="pad" gradientTransform="matrix(.0099 0 0 .0099 6.825 -8.55)" gradientUnits="userSpaceOnUse" id="q"><stop stop-color="#FFF" stop-opacity=".643" offset="0"/><stop stop-color="#FFF" stop-opacity="0" offset="1"/></radialGradient><radialGradient fy="0" fx="0" r="819.2" cy="0" cx="0" spreadMethod="pad" gradientTransform="matrix(.01147 0 0 .01147 -.175 -12.6)" gradientUnits="userSpaceOnUse" id="r"><stop stop-color="#FFF" stop-opacity=".502" offset="0"/><stop stop-color="#FFF" stop-opacity="0" offset="1"/></radialGradient><radialGradient fy="0" fx="0" r="819.2" cy="0" cx="0" spreadMethod="pad" gradientTransform="matrix(.00218 .00084 -.00014 .00528 5.175 4.7)" gradientUnits="userSpaceOnUse" id="s"><stop stop-color="#FFF" stop-opacity=".263" offset="0"/><stop stop-color="#FFF" stop-opacity="0" offset="1"/></radialGradient><radialGradient fy="0" fx="0" r="819.2" cy="0" cx="0" spreadMethod="pad" gradientTransform="matrix(.00003 -.00273 .0043 .0001 -1.175 9.5)" gradientUnits="userSpaceOnUse" id="t"><stop stop-color="#FFF" stop-opacity=".314" offset="0"/><stop stop-color="#FFF" stop-opacity="0" offset="1"/></radialGradient><radialGradient fy="0" fx="0" r="819.2" cy="0" cx="0" spreadMethod="pad" gradientTransform="matrix(.00175 -.00209 .00327 .0028 -1.825 13.35)" gradientUnits="userSpaceOnUse" id="u"><stop stop-color="#FFF" stop-opacity=".263" offset="0"/><stop stop-color="#FFF" stop-opacity="0" offset="1"/></radialGradient><radialGradient fy="0" fx="0" r="819.2" cy="0" cx="0" spreadMethod="pad" gradientTransform="matrix(.0027 -.00053 .0008 .00424 -6.075 6.35)" gradientUnits="userSpaceOnUse" id="v"><stop stop-color="#FFF" stop-opacity=".243" offset="0"/><stop stop-color="#FFF" stop-opacity="0" offset="1"/></radialGradient><radialGradient fy="0" fx="0" r="819.2" cy="0" cx="0" spreadMethod="pad" gradientTransform="matrix(.00005 -.00275 .00432 .0001 1.525 14.65)" gradientUnits="userSpaceOnUse" id="w"><stop stop-color="#FFF" stop-opacity=".263" offset="0"/><stop stop-color="#FFF" stop-opacity="0" offset="1"/></radialGradient><radialGradient fy="0" fx="0" r="819.2" cy="0" cx="0" spreadMethod="pad" gradientTransform="matrix(.00876 0 0 .01079 -8.275 -3.45)" gradientUnits="userSpaceOnUse" id="x"><stop stop-color="#FABD9D" stop-opacity=".643" offset="0"/><stop stop-color="#FFDEC2" stop-opacity="0" offset="1"/></radialGradient><radialGradient fy="0" fx="0" r="819.2" cy="0" cx="0" spreadMethod="pad" gradientTransform="matrix(.00696 0 0 .00989 8.675 -2.2)" gradientUnits="userSpaceOnUse" id="y"><stop stop-color="#FABD9D" stop-opacity=".643" offset="0"/><stop stop-color="#FFDEC2" stop-opacity="0" offset="1"/></radialGradient><radialGradient fy="0" fx="6" r="819.2" cy="0" cx="0" spreadMethod="pad" gradientTransform="matrix(.00478 .00046 -.00024 .00273 -.025 14.85)" gradientUnits="userSpaceOnUse" id="z"><stop stop-color="#FBBD9D" offset="0"/><stop stop-color="#F9E2C1" offset="1"/></radialGradient></defs><path fill="none" d="M-1-1h582v402H-1z"/><g><path fill="url(#a)" d="M8.875 5.4l.05-.05V5.05l.15-.9V3.8l.05-.15.05-.4V3l.1-1.65.05-.05 1.15-.15.6.35.6.55q.65.6.2 1.6l-.4.9-.15.55-.2.75-.05.05-.55.95-.6.55-.4.55-.9.15v-.2l.05-.05h-.05l.05-.9v-.1l.15-.9V6l1.15.15.7-.75.15-.25.1-.45.1-.45v-.6l-.4.15-.25.2h-.35l.05-.05.15-.3h.1l.5-.2.2-.25v-.1l-.2-.95q-1.3-.75-1.4.1-.1.85.1 1.35l.05.25-.15.5-.15.2.1.2-.2.35-.3.3" transform="translate(11.65 16.45)"/><path fill="url(#b)" d="M9.175 5.1l.2-.35-.1-.2.15-.2.15-.5-.05-.25q-.2-.5-.1-1.35.1-.85 1.4-.1l.2.95v.1l-.2.25-.5.2h-.1l-.15.3-.05.05h.35l.25-.2.4-.15v.6l-.1.45-.1.45-.15.25-.7.75L8.825 6v-.5l.05-.1.3-.3" transform="translate(11.65 16.45)"/><path fill="none" stroke-width=".05" stroke-linecap="round" stroke-linejoin="round" stroke-miterlimit="3" stroke="#B76340" stroke-opacity=".502" d="M20.975 17.75l1.15-.15.6.35.6.55q.65.6.2 1.6l-.4.9-.15.55-.2.75-.05.05-.55.95-.6.55-.4.55-.9.15"/><path fill="url(#c)" d="M-8.075 6q-.55.5-1.1.2l-.75-.75-.1-.25-.1-.45-.15-.45v-.6l.4.1.25.25h.35V4l-.2-.3-.1-.05-.5-.2-.15-.25v-.1l.2-.9q1.2-.75 1.3.1.1.8-.1 1.3v.3l.2.5.1.2-.1.2.2.35.3.3V5.4 6h.05" transform="translate(11.65 16.45)"/><path fill="url(#d)" d="M-8.125 5.45l-.3-.3-.2-.35.1-.2-.1-.2-.2-.5v-.3q.2-.5.1-1.3-.1-.85-1.3-.1l-.2.9v.1l.15.25.5.2.1.05.2.3v.05h-.35l-.25-.25-.4-.1v.6l.15.45.1.45.1.25.75.75q.55.3 1.1-.2h.05l.1.9v1.05l.05.1-.05.05-.9-.1-.3-.55-.6-.55-.6-1h-.05l-.15-.75-.2-.6-.35-.9q-.5-.95.15-1.55l.6-.55.65-.4q.45-.3 1.15.2v.05l.1 1.6v.3l.05.35.05.15v.4l.15.9V5.4h.05v.05" transform="translate(11.65 16.45)"/><path fill="none" stroke-width=".05" stroke-linecap="round" stroke-linejoin="round" stroke-miterlimit="3" stroke="#B76340" stroke-opacity=".502" d="M3.125 17.8q-.7-.5-1.15-.2l-.65.4-.6.55q-.65.6-.15 1.55l.35.9.2.6.15.75h.05l.6 1 .6.55.3.55.9.1"/><path fill="#FDD4B6" d="M15.925 27.5h-.05l-1.65.45-1.2.3q-1.75.4-1.45.65l-.25-.05v-.05q1.25-.9 3.15-1.6l-1.9-1.3-1.9-1.4q0-1.15 2.9-1.15h.05l.3-.05.95.05h.65l.5.1q.2 0 .65.45l.85.65.95-1.85.1-.55.15-.9q0-.4-.4-1.05l.7-1.05.4-.9.25-.4q.75-.45 2.35-.85l-.75 2.55v.15l-.75 2.8v.35l-.1.55v.3l-.05.8-.1.95-.2.8-1.05 1.8-1.75 1.8-1.45 1.1-.2.15-.7.55-.75.6.55-.7.6-1.25-.15-.25.1-.15.3-.25q.25-.1.55-2.1h-.05l.25-.25-.25.2V27.1l.05-.3-.15.65-.05.05"/><path fill="url(#e)" d="M8.025 1.4l-.25.4-.4.9-.7 1.05q.4.65.4 1.05l-.15.9-.1.55-.95 1.85-.85-.65Q4.575 7 4.375 7l-.5-.1h-.65l-.95-.05-.3.05h-.05q-2.9 0-2.9 1.15l1.9 1.4 1.9 1.3q-1.9.7-3.15 1.6v.05l.25.05 2.05.2h.2l.25.05.25.1h.05l-.5.55-.85.6.05.05.95-.4q.15-.2.35-.2l.25-.1.4-.55.85-1.7.1.05V11l.15-.65-.05.3-.05.35v.05h.05l.25-.2-.25.25h.05q-.3 2-.55 2.1l-.3.25-.1.15.15.25-.6 1.25-.55.7-1.55.55-.8.1-1.15-.2-.2-.1-.5-.2-1-.65-.45-1.15q-.7-1.85-.8-3.8-.15-1.5-.35-1.9l-.65-.55.1 1.3-.1 1.15-.25.05-.2-.05q-.5-.95-1.1-3.85l-.45-.4-1.3-1.6-.2-.2-.35-.5-.8-2.65-.15-.5-.35-1.6-.75-3.15.15-1.7h.05q.4 0 3-4.5l2.85-2.45q1.7-1.2 3.85-1.2 3.05 0 5.85 1.3 2.65 1.2 3.45 2.65l1.7 2.9.45.85.45 1.6.3 1.65-.3 1.35-.4 1.6-.2.55v.05q-1.6.4-2.35.85m-3.7 9.75l.05.05v-.05h-.05" transform="translate(11.65 16.45)"/><path fill="url(#f)" d="M4.425 11.05h-.05V11l.05-.35V11.05m-.1-.05v.05h-.05l.05-.05" transform="translate(11.65 16.45)"/><path fill="url(#g)" d="M-3.725 14.55l-.65-.5-.45-.45-2-2.25-.85-1.7-.15-.55-.15-.9-.05-.85V7.1l-.05-.4-.7-2.9.35.5.2.2 1.3 1.6.45.4q.6 2.9 1.1 3.85l.2.05.25-.05.1-1.15-.1-1.3.65.55q.2.4.35 1.9.1 1.95.8 3.8l.45 1.15-1.05-.75" transform="translate(11.65 16.45)"/><path fill="url(#h)" d="M4.325 11.05v.05l-.1-.05-.85 1.7-.4.55-.25.1q-.2 0-.35.2l-.95.4-.05-.05.85-.6.5-.55h-.05l-.25-.1-.25-.05h-.2l-2.05-.2q-.3-.25 1.45-.65l1.2-.3 1.65-.45h.1" transform="translate(11.65 16.45)"/><path fill="url(#i)" d="M4.375 11.15v.05l-.05-.05h.05" transform="translate(11.65 16.45)"/><path fill="none" stroke-width=".05" stroke-linecap="round" stroke-linejoin="round" stroke-miterlimit="3" stroke="#B76340" stroke-opacity=".502" d="M22.025 17v-.05l.2-.55.4-1.6.3-1.35m-21.95-2.8l-.15 1.7.75 3.15.35 1.6.15.5.8 2.65.7 2.9.05.4v.25l.05.85.15.9.15.55.85 1.7 2 2.25.45.45.65.5 1.05.75 1 .65.5.2.2.1 1.15.2.8-.1 1.55-.55M22.025 17l-.75 2.55v.15l-.75 2.8v.35l-.1.55v.3l-.05.8-.1.95-.2.8-1.05 1.8-1.75 1.8-1.45 1.1-.2.15-.7.55-.75.6"/><path fill="url(#j)" d="M-9.925-1.45q0-1.7 3.4-3.45 1.9-1.15 5.6-1.15 2.3 0 5.3 1.2 3.55 1.4 3.55 3.2L7.275-.2l-1.1.2-3.45.75-3.75.75-4.45-.8-3.95-1.15-.35-.15-.15-.85" transform="translate(11.65 16.45)"/><path fill="url(#k)" d="M-7.125 4.7l.2 2.5q.05 1.7.5 3l.85 1.75 1 1.05.3.5.1.2h-.05l-1.65-1.45-.9-.8q-.75-.85-1.05-2.2V9.1l-.15-.9-.05-.85V7.1l-.05-.4-.7-2.9-.65-2.25 2.1 2.8.2.35" transform="translate(11.65 16.45)"/><path fill="url(#l)" d="M11.275-2.95l-.3 1.3-.4 1.6-.2.55-.75 2.6v.15l-.75 2.8v.35l-.1.55v.3l-.05.8-.1.95-.05.1q-.3 1.35-1.05 2.25l-2.55 2.25-.8.8-1.8 1.4-.4.25-.05.05-.65.2q-1.45.3-2.9-.4l-.25-.15 2.55-.1 1.15-.55 2.05-1.75.3-.25.35-.35.55-.95.6-1.25q0-.3.7-.8l.85-1 .2-.8.05-.15.1-1.25.1-.9.3-.75.55-2.2q0-.6.15-.55-.55-.5-2.35-3.55l1.6-2.4q1.3-1.45 2.9-1.5l.35 1.4.1.95" transform="translate(11.65 16.45)"/><path fill="url(#m)" d="M-11.075-4.95v.6-.6" transform="translate(11.65 16.45)"/><path fill="url(#n)" d="M-11.025-2.9l-.05-1.45V-5l.25-2.25q.35-1.65 1.2-3.1l1.85-2.55q3.25-3.55 7.95-3.5 4.65-.05 7.95 3.5t3.35 8.55q-.05 2-.6 3.9l-.7 1.65.05-1.7.1-2.05q0-2.7-1.2-4.8l-1-.7q-1.1-.65-2.55-.75-2.95-.3-5.05 2.25-2.15-2.55-5.05-2.25-2.85.25-4.45 2.5l-.4 7.9q-1.4-2.4-1.65-4.5" transform="translate(11.65 16.45)"/><path fill="none" stroke-width=".05" stroke-linecap="round" stroke-linejoin="round" stroke-miterlimit="3" stroke="#B76340" stroke-opacity=".502" d="M21.825 17.65l.7-1.65q.55-1.9.6-3.9-.05-5-3.35-8.55-3.3-3.55-7.95-3.5-4.7-.05-7.95 3.5L2.025 6.1q-.85 1.45-1.2 3.1l-.25 2.25v.65l.05 1.45q.25 2.1 1.65 4.5m-1.7-5.95v-.6"/><path fill="url(#o)" d="M.025-12.3q0-2.3.9-3.75l.1.05q6.05 1.7 7 2.85 2.2 2.55 2.2 5 0 3.95-6.55 3.95l-1.8-.3q-.65-.5-1.25-2.3-.65-1.95-.55-3.05l-.05-2.45" transform="translate(11.65 16.45)"/><path fill="url(#p)" d="M-8.425-10.35q-1.85 3.15-1.85 6.15 0 1.9.55 3.25v.25h-.05q-.9-2.95-.9-5.45l.15-1.5q0-1.1 2.3-4.3 1.6-2.5 4.75-3.65h.05q-3.1 1.9-5 5.25" transform="translate(11.65 16.45)"/><path fill="url(#q)" d="M9.025-11.6q2.05 2.85 2.05 5.75l-.55 4.15h-.05l.25-2.15q0-3.5-1.85-6.7-2.3-4-6.3-4.95h.4q3.75.6 6.05 3.9" transform="translate(11.65 16.45)"/><path fill="url(#r)" d="M-5.675-14.6q1.75-1.05 3.45-1.5l2.4-.3 2.05.15 1.35.45q.45.25 1.4.65.9.35 2.1 1.4 1.1.95 2 2.45-.5 2.45-2.65 4.2-2.75 2.3-6.6 2.3-3.85 0-6.65-2.3-2.4-2-2.65-4.85l1.15-.9 2.65-1.75" transform="translate(11.65 16.45)"/><path fill="url(#s)" d="M6.725 3.1l.1.05-.1.5-.05.15-.3 1.5-.7 1.45q-.95.65-1.9.25-1.45-.85-1.95-1.25-.5-.45 0-.85l1.45-1.5q.85-1.05 1.75-1.2.85-.05 1.7.9" transform="translate(11.65 16.45)"/><path fill="url(#t)" d="M-4.925 9.25V9.2q.05-.6.85-1.15l.35-.25q1.05-.7 2.15-.65 1.15 0 2.4.75 1.1.7 1.05 1.45 0 .75-1.15 1.5l-.85.4-.95-.3-.7-.3-.9-.25-1.45.1q-.8-.65-.8-1.25" transform="translate(11.65 16.45)"/><path fill="url(#u)" d="M-.625 11.3l1 1.25.35.85q.4 1.25-.05 1.75-.5.6-1.85.45-1.3-.2-2.15-.95-.85-.75-1.25-2-.45-1.3.05-1.85l.4-.3 1.45-.1.9.25.7.3.45.35" transform="translate(11.65 16.45)"/><path fill="url(#v)" d="M-3.825 5.45q.2 1.2-.25 2.5v.1q-.8.55-.85 1.15l-.35.15q-.75.1-1.7-.85-.9-.95-1.05-2.1-.25-1.1.25-2.35.5-1.3 1.2-1.45.75-.1 1.7.9.85.9 1.05 1.95" transform="translate(11.65 16.45)"/><path fill="url(#w)" d="M-1.225 15.75q-1-.7-1-1.35 0-.75 1.2-1.5 1.05-.65 2.15-.6 1.2 0 2.4.75l.05.05.3.5-.95.75q-1.7 1.45-2.3 1.45l-1.2-.2-.65.15" transform="translate(11.65 16.45)"/><path fill="url(#x)" d="M-9.025-11.45l3.05.25q.25 1.8-.2 3.65-.45 1.8-.25 3.95.2 2.15-.6 2.8-.75 1.2-.9 2.2-.15 1-.35.3-.2-.7-.25 1.15l.1.5-.05.6v.65l-.3-1.85-.5-1.35-.9-2.1-.65-2.45-.15-2.8q-.05-1.85 1.95-5.5" transform="translate(11.65 16.45)"/><path fill="url(#y)" d="M6.325-8.05l-.2.9v-2.2h.05v-.05l1-3.75q3.2 1.5 3.85 5.8.6 4.3 0 6.25L9.775 3l-1.75 4.4.7-4.4.05-.25.1-1.1h-.05q-.05-1.5-1.35-2.7l-.3-.65.2-1.35q-.2-2.9-.6-4.2-.45-1.3-.45-.8" transform="translate(11.65 16.45)"/><path fill="url(#z)" d="M-1.175 15.65l-.3-.35 2.25.35 1.9-.4q-1.05.85-2.35.8-1.3-.1-1.5-.4" transform="translate(11.65 16.45)"/></g></svg>