<svg width="23" height="32" xmlns="http://www.w3.org/2000/svg"><defs><radialGradient fy="0" fx="0" r="819.2" cy="0" cx="0" spreadMethod="pad" gradientTransform="matrix(.00392 0 0 .00565 8.375 2.7)" gradientUnits="userSpaceOnUse" id="a"><stop stop-color="#FB8F62" offset="0"/><stop stop-color="#FEC7A3" offset=".698"/><stop stop-color="#FEDEC1" offset="1"/></radialGradient><radialGradient fy="0" fx="0" r="819.2" cy="0" cx="0" spreadMethod="pad" gradientTransform="matrix(.00238 .00098 -.00168 .0041 9.475 3.4)" gradientUnits="userSpaceOnUse" id="b"><stop stop-color="#EA8440" offset="0"/><stop stop-color="#FCC7A5" offset="1"/></radialGradient><radialGradient fy="0" fx="0" r="819.2" cy="0" cx="0" spreadMethod="pad" gradientTransform="matrix(-.00392 0 0 .00565 -8.025 2.7)" gradientUnits="userSpaceOnUse" id="c"><stop stop-color="#FB8F62" offset="0"/><stop stop-color="#FEC7A3" offset=".698"/><stop stop-color="#FEDEC1" offset="1"/></radialGradient><radialGradient fy="0" fx="0" r="819.2" cy="0" cx="0" spreadMethod="pad" gradientTransform="matrix(-.00238 .00098 .00168 .0041 -9.175 3.4)" gradientUnits="userSpaceOnUse" id="d"><stop stop-color="#EA8440" offset="0"/><stop stop-color="#FCC7A5" offset="1"/></radialGradient><radialGradient fy="0" fx="0" r="819.2" cy="0" cx="0" spreadMethod="pad" gradientTransform="matrix(.0066 -.00153 .00311 .01347 10.075 -4)" gradientUnits="userSpaceOnUse" id="e"><stop stop-color="#F0B192" offset=".192"/><stop stop-color="#FBC9AB" offset="1"/></radialGradient><radialGradient fy="0" fx="0" r="819.2" cy="0" cx="0" spreadMethod="pad" gradientTransform="matrix(.00554 0 0 .01553 .275 2.45)" gradientUnits="userSpaceOnUse" id="f"><stop stop-color="#FBD3B5" offset="0"/><stop stop-color="#FBC9AB" offset="1"/></radialGradient><linearGradient x2="819.2" x1="-819.2" gradientTransform="matrix(-.0035 -.00037 .00131 -.01244 7.025 1)" gradientUnits="userSpaceOnUse" id="g"><stop stop-color="#F0B192" offset=".392"/><stop stop-color="#FBC9AB" offset="1"/></linearGradient><radialGradient fy="0" fx="0" r="819.2" cy="0" cx="0" spreadMethod="pad" gradientTransform="matrix(.00772 .0006 -.00105 .01347 10.525 8.65)" gradientUnits="userSpaceOnUse" id="h"><stop stop-color="#F0B192" offset=".259"/><stop stop-color="#FBC9AB" offset="1"/></radialGradient><radialGradient fy="0" fx="0" r="819.2" cy="0" cx="0" spreadMethod="pad" gradientTransform="matrix(.01044 0 0 .01044 .325 17.6)" gradientUnits="userSpaceOnUse" id="i"><stop stop-color="#F0B192" offset=".118"/><stop stop-color="#FBC9AB" offset="1"/></radialGradient><radialGradient fy="0" fx="0" r="819.2" cy="0" cx="0" spreadMethod="pad" gradientTransform="matrix(.00714 0 0 .01321 -8.575 -4.5)" gradientUnits="userSpaceOnUse" id="j"><stop stop-color="#F0B192" offset=".118"/><stop stop-color="#FBC9AB" offset="1"/></radialGradient><linearGradient x2="819.2" x1="-819.2" gradientTransform="matrix(.0046 0 0 .0121 -7.425 2.6)" gradientUnits="userSpaceOnUse" id="k"><stop stop-color="#F0B192" offset=".506"/><stop stop-color="#FBC9AB" offset="1"/></linearGradient><radialGradient fy="0" fx="0" r="819.2" cy="0" cx="0" spreadMethod="pad" gradientTransform="matrix(.00742 -.00096 .00201 .01558 -9.275 10.7)" gradientUnits="userSpaceOnUse" id="l"><stop stop-color="#F0B192" offset=".196"/><stop stop-color="#F0B192" offset=".212"/><stop stop-color="#FBC9AB" offset="1"/></radialGradient><radialGradient fy="0" fx="41" r="819.2" cy="0" cx="0" spreadMethod="pad" gradientTransform="matrix(.01169 0 0 .01169 3.125 -17.8)" gradientUnits="userSpaceOnUse" id="m"><stop stop-color="#FEEADE" offset="0"/><stop stop-color="#FEDEC2" offset=".988"/></radialGradient><radialGradient fy="0" fx="0" r="819.2" cy="0" cx="0" spreadMethod="pad" gradientTransform="matrix(.0019 .00146 -.00214 .0028 5.725 4.7)" gradientUnits="userSpaceOnUse" id="n"><stop stop-color="#FFF" stop-opacity=".302" offset=".114"/><stop stop-color="#FFF" stop-opacity="0" offset="1"/></radialGradient><radialGradient fy="0" fx="0" r="819.2" cy="0" cx="0" spreadMethod="pad" gradientTransform="matrix(.00235 -.00098 .0014 .00339 -5.275 4.5)" gradientUnits="userSpaceOnUse" id="o"><stop stop-color="#FFF" stop-opacity=".302" offset=".114"/><stop stop-color="#FFF" stop-opacity="0" offset="1"/></radialGradient><radialGradient fy="0" fx="0" r="819.2" cy="0" cx="0" spreadMethod="pad" gradientTransform="matrix(.00366 0 0 .00148 .125 13.8)" gradientUnits="userSpaceOnUse" id="p"><stop stop-color="#FFF" stop-opacity=".302" offset=".114"/><stop stop-color="#FFF" stop-opacity="0" offset="1"/></radialGradient><radialGradient fy="0" fx="0" r="819.2" cy="0" cx="0" spreadMethod="pad" gradientTransform="matrix(.0064 0 0 .00308 .475 -4.9)" gradientUnits="userSpaceOnUse" id="q"><stop stop-color="#FFF" stop-opacity=".302" offset=".114"/><stop stop-color="#FFF" stop-opacity="0" offset="1"/></radialGradient><radialGradient fy="0" fx="0" r="819.2" cy="0" cx="0" spreadMethod="pad" gradientTransform="matrix(.01137 0 0 .01137 6.875 -11.8)" gradientUnits="userSpaceOnUse" id="r"><stop stop-color="#FFF" stop-opacity=".161" offset="0"/><stop stop-color="#FFF" stop-opacity="0" offset="1"/></radialGradient><radialGradient fy="0" fx="0" r="819.2" cy="0" cx="0" spreadMethod="pad" gradientTransform="matrix(.00977 0 0 .00977 -6.675 -7.55)" gradientUnits="userSpaceOnUse" id="s"><stop stop-color="#FFF" stop-opacity=".502" offset="0"/><stop stop-color="#FFF" stop-opacity="0" offset="1"/></radialGradient><radialGradient fy="0" fx="0" r="819.2" cy="0" cx="0" spreadMethod="pad" gradientTransform="matrix(.00941 0 0 .00941 6.475 -7.95)" gradientUnits="userSpaceOnUse" id="t"><stop stop-color="#FFF" stop-opacity=".643" offset="0"/><stop stop-color="#FFF" stop-opacity="0" offset="1"/></radialGradient><radialGradient fy="0" fx="0" r="819.2" cy="0" cx="0" spreadMethod="pad" gradientTransform="matrix(.01091 0 0 .01091 -.125 -11.75)" gradientUnits="userSpaceOnUse" id="u"><stop stop-color="#FFF" stop-opacity=".502" offset="0"/><stop stop-color="#FFF" stop-opacity="0" offset="1"/></radialGradient></defs><path fill="none" d="M-1-1h582v402H-1z"/><g><path fill="url(#a)" d="M11.175.3l-.5.6-.25.5-.3.4-.3.4-.25.8-.15.9.05.65-.2.6-.3.55v.2l.35-.5.3-.35.2-.45.2-.25q.35-.2.4-.9V1.75l.15-.4.15.7.3-.8.2-.8-.05-.15m-1.8.2q.1-.45.75-.75l.8-.25.4.15.2.5-.3.85q-.35.55-.4.85l-.1.85-.1.95-.2.55-.15.55-.05.35-.1.45-.3.65q-.4.5-1 .5l-.45-.05 1-6.15" transform="translate(11.35 15.7)"/><path fill="url(#b)" d="M11.225.45l-.2.8-.3.8-.15-.7-.15.4V3.45q-.05.7-.4.9l-.2.25-.2.45-.3.35-.35.5v-.2l.3-.55.2-.6-.05-.65.15-.9.25-.8.3-.4.3-.4.25-.5.5-.6.05.15" transform="translate(11.35 15.7)"/><path fill="url(#c)" d="M-8.075 6.65l-.45.05q-.55 0-.95-.5l-.35-.65-.1-.45-.05-.35-.15-.55-.2-.55-.1-.95-.1-.85q-.05-.3-.4-.85l-.3-.85.2-.5.4-.15.85.25q.65.3.75.75l.95 6.15m-2.85-6.2l.2.8.35.8.15-.7.1.4V3.45q.05.7.4.9l.2.25.25.45.25.35.35.5v-.2l-.25-.55-.25-.6.05-.65-.1-.9-.3-.8-.25-.4-.35-.4-.2-.5-.55-.6-.05.15" transform="translate(11.35 15.7)"/><path fill="url(#d)" d="M-10.875.3l.55.6.2.5.35.4.25.4.3.8.1.9-.05.65.25.6.25.55v.2l-.35-.5-.25-.35-.25-.45-.2-.25q-.35-.2-.4-.9V1.75l-.1-.4-.15.7-.35-.8-.2-.8.05-.15" transform="translate(11.35 15.7)"/><path fill="none" stroke-width=".05" stroke-linecap="round" stroke-linejoin="round" stroke-miterlimit="3" stroke="#B76340" stroke-opacity=".502" d="M20.725 16.2q.1-.45.75-.75l.8-.25.4.15.2.5-.3.85q-.35.55-.4.85l-.1.85-.1.95-.2.55-.15.55-.05.35-.1.45-.3.65q-.4.5-1 .5l-.45-.05m-17.4-6.15q-.1-.45-.75-.75l-.85-.25-.4.15-.2.5.3.85q.35.55.4.85l.1.85.1.95.2.55.15.55.05.35.1.45.35.65q.4.5.95.5l.45-.05"/><path fill="#FFF" d="M20.875 21.6l-.05.05-.05.15v.05l.05.05.1.05-.1.05h-.1l-.05.05v.05l-.05-.05.05-.1-.05-.05v-.05l.05-.15.2-.15v.05m0 .45l-.1.1-.1.15-.05-.1.05-.1.15-.05h.05m.25-.4l.05.05-.05.15-.15-.05.1-.05.05-.1"/><path fill="#C2B6BA" d="M20.575 22.2l-.05-.35.3-.35.25-.15.1.1.05.45v.1l.1.05-.15.1h-.15l-.2.2-.1.1h-.1l-.05-.25m.55-.65l-.05-.05v.05l-.15.1-.1.1.1.1.2.1-.1.1-.25.1-.05.15v.05l.1-.15.15-.1.2-.15-.2-.15-.1-.05.15-.05.1-.1v-.05m-.25 0l-.2.15-.05.15v.05l.05.05-.05.1.05.05v-.05l.05-.05h.1l.1-.05-.1-.05-.05-.05v-.05l.05-.15.05-.05v-.05m-.05.5l-.15.05-.05.1.05.1.1-.15.1-.1h-.05m.25-.3l-.1.05.15.05.05-.15-.05-.05-.05.1"/><path fill="#726869" d="M21.125 21.6l-.1.1-.15.05.1.05.2.15-.2.15-.15.1-.1.15v-.05l.05-.15.25-.1.1-.1-.2-.1-.1-.1.1-.1.15-.1v-.05l.05.05v.05"/><path fill="#23191A" d="M21.075 21.35l-.25.15-.3.35.05.35.05.25-.15-.05q-.15-.15-.15-.65l.25-.25.35-.2h.1l.05.05"/><path fill="url(#e)" d="M6.925 3.95l-.15.2.2-1.45.05-1.6-.3-1.15-.65-1.05q-1-1.45-1.45-2.7l-.15-.4q-.4-1.25-.45-3.95h-.2l.25-6.55q1.95.8 3.65 2.55l.05 4.7-.15-.1.7 4.65q.3 2.2.05 4.45l-1.45 2.4" transform="translate(11.35 15.7)"/><path fill="url(#f)" d="M2.575 14.75l-1.35.65-.45.1h-.45q-1.55.05-2.5-.75l-1.95-2.15-.25-2.95q-.2-1.85-.65-2.95-.3-.9-1.05-2.05l-.3-.5-.2-1.45-.05-1.6.3-1.15.65-1.05q1.1-1.6 1.55-2.9l.05-.2q.4-1.15.45-3.55v-.45h.05l.6-6.75 3.15-.45q2.1 0 3.9.7l-.25 6.55h.2q.05 2.7.45 3.95l.15.4q.45 1.25 1.45 2.7l.65 1.05.3 1.15-.05 1.6-.2 1.45-.3.5-1.1 2.05q-.4 1.1-.6 2.95l-.25 2.95q-.7 1.15-1.95 2.15" transform="translate(11.35 15.7)"/><path fill="url(#g)" d="M6.975 10.3q.25-3.3 1.05-6.6l.35-2.15q.25-2.25-.05-4.45l-.7-4.65.15.1-.05-4.7.05.1q3.1 3.35 3.15 8.1-.05 1.95-.6 3.7l-.65 1.9.05-.55-.2 1.6-.8 3.4-1.05 3.65-.75 1.55.05-1" transform="translate(11.35 15.7)"/><path fill="url(#h)" d="M4.525 12.6l.25-2.95q.2-1.85.6-2.95l1.1-2.05.3-.5.15-.2 1.45-2.4-.35 2.15q-.8 3.3-1.05 6.6l-.05 1-.7.85-1.75 1.75.05-1.3" transform="translate(11.35 15.7)"/><path fill="url(#i)" d="M-4.125 12.6l1.95 2.15q.95.8 2.5.75h.45l.45-.1 1.35-.65q1.25-1 1.95-2.15l-.05 1.3-.35.3-1.65 1.3q-.7.4-1.85.45-1.75.05-2.7-.45l-1.7-1.3-.3-.3-.05-1.3" transform="translate(11.35 15.7)"/><path fill="url(#j)" d="M-3.575-8.2h-.05v.45q-.05 2.4-.45 3.55l-.05.2q-.45 1.3-1.55 2.9l-.65 1.05-.3 1.15.05 1.6.2 1.45-.15-.2-1.45-2.4q-.25-2.05 0-4.05l-.25.95.35-9.9.5-.6q1.65-1.8 3.65-2.6l.75-.3-.6 6.75" transform="translate(11.35 15.7)"/><path fill="url(#k)" d="M-7.625 3.7q.8 3.3 1.05 6.6l.05 1.05-.75-1.65-1.1-3.65-.75-3.35-.1-.9q-1-2.45-1.2-4.35l-.05-1.4V-4.55l.2-2.15 1.15-2.95 1.25-1.8-.35 9.9.25-.95q-.25 2 0 4.05l.35 2.15" transform="translate(11.35 15.7)"/><path fill="url(#l)" d="M-4.075 13.9l-1.8-1.8-.65-.75-.05-1.05q-.25-3.3-1.05-6.6l-.35-2.15 1.45 2.4.15.2.3.5q.75 1.15 1.05 2.05.45 1.1.65 2.95l.25 2.95.05 1.3" transform="translate(11.35 15.7)"/><path fill="url(#m)" d="M-10.475-4.05v-.5.5" transform="translate(11.35 15.7)"/><path fill="none" stroke-width=".05" stroke-linecap="round" stroke-linejoin="round" stroke-miterlimit="3" stroke="#B76340" stroke-opacity=".502" d="M8.375.75l-.75.3q-2 .8-3.65 2.6l-.5.6m4.9-3.5l3.15-.45q2.1 0 3.9.7 1.95.8 3.65 2.55l.05.1q3.1 3.35 3.15 8.1-.05 1.95-.6 3.7l-.65 1.9m.05-.55l-.2 1.6-.8 3.4-1.05 3.65-.75 1.55-.7.85-1.75 1.75-.35.3-1.65 1.3q-.7.4-1.85.45-1.75.05-2.7-.45l-1.7-1.3-.3-.3-1.8-1.8-.65-.75-.75-1.65-1.1-3.65-.75-3.35-.1-.9q-1-2.45-1.2-4.35l-.05-1.4v-.6l.2-2.15 1.15-2.95 1.25-1.8m-2.6 6.9v.5"/><path fill="url(#n)" d="M7.275 1.55l.5.45.5.95-.3 1.1-.7 1.4q-1.1 1.7-2.1 1.7-.35 0-.85-.4-.6-.45-.9-1.55-.25-1.1.2-1.45.4-.35 1.3-.55.85-.2 1.6-.75l.75-.9" transform="translate(11.35 15.7)"/><path fill="url(#o)" d="M-2.225 4.55l-.4 1.3q-.65 1.8-1.8 1.8l-1.15-.45-1-1.25q-1-1.7-.85-3.7l.05-.05.2-.15.6-.15q.3 0 1 .4l1.3.6 1.55.4q.6.2.6.65l-.1.6" transform="translate(11.35 15.7)"/><path fill="url(#p)" d="M2.175 14.7l-2.05.35-2.05-.35q-.85-.35-.85-.9 0-.5.85-.85l2.05-.35 2.05.35q.8.35.8.85 0 .55-.8.9" transform="translate(11.35 15.7)"/><path fill="url(#q)" d="M5.975-5.8q0 1.35-1.6 2.35-1.6.95-3.85.95t-3.85-.95q-1.6-1-1.6-2.35t1.6-2.3q1.6-.95 3.85-.95t3.85.95q1.6.95 1.6 2.3" transform="translate(11.35 15.7)"/><path fill="url(#r)" d="M.075-9.15l-.05-2.35q0-2.2.85-3.55l.1.05q5.75 1.6 6.7 2.65 2.05 2.45 2.05 4.8 0 3.75-6.2 3.75l-1.75-.3q-.6-.45-1.15-2.15-.65-1.9-.55-2.9" transform="translate(11.35 15.7)"/><path fill="url(#s)" d="M-7.975-9.65q-1.75 3-1.75 5.85 0 1.8.5 3.1v.25h-.05q-.85-2.85-.85-5.2l.15-1.4q0-1.1 2.15-4.1 1.55-2.4 4.55-3.5h.05q-2.95 1.8-4.75 5" transform="translate(11.35 15.7)"/><path fill="url(#t)" d="M2.875-14.55q3.5.6 5.75 3.75 1.9 2.65 1.9 5.45l-.5 3.95h-.05l.25-2.1q0-3.25-1.75-6.35-2.2-3.8-6.05-4.7h.45" transform="translate(11.35 15.7)"/><path fill="url(#u)" d="M.175-15.4l1.95.15 1.3.45 1.3.6 2 1.3 1.95 2.35q-.5 2.3-2.55 4-2.6 2.15-6.25 2.15-3.7 0-6.3-2.15-2.35-1.9-2.55-4.6l1.05-.85 2.55-1.7q1.65-1 3.3-1.4l2.25-.3" transform="translate(11.35 15.7)"/></g></svg>