<svg xmlns="http://www.w3.org/2000/svg" width="23" height="32"><g transform="translate(11.35 15.7)"><radialGradient id="a" gradientUnits="userSpaceOnUse" gradientTransform="matrix(.00392 0 0 .00565 8.25 2.45)" spreadMethod="pad" cx="0" cy="0" r="819.2" fx="0" fy="0"><stop offset="0" stop-color="#fb8f62"/><stop offset=".698" stop-color="#fec7a3"/><stop offset="1" stop-color="#fedec1"/></radialGradient><path d="M11.05.05l-.5.6-.25.5-.3.4-.3.4-.25.8-.15.9.05.65-.2.6-.3.55v.2l.35-.5.3-.35.2-.45.2-.25q.35-.2.4-.9V1.5l.15-.4.15.7.3-.8.2-.8-.05-.15m-1.8.2q.1-.45.75-.75l.8-.25.4.15.2.5-.3.85q-.35.55-.4.85l-.1.85-.1.95-.2.55-.15.55-.05.35-.1.45-.3.65q-.4.5-1 .5l-.45-.05 1-6.15" fill="url(#a)"/><radialGradient id="b" gradientUnits="userSpaceOnUse" gradientTransform="matrix(.00238 .00098 -.00168 .0041 9.35 3.15)" spreadMethod="pad" cx="0" cy="0" r="819.2" fx="0" fy="0"><stop offset="0" stop-color="#ea8440"/><stop offset="1" stop-color="#fcc7a5"/></radialGradient><path d="M11.1.2l-.2.8-.3.8-.15-.7-.15.4V3.2q-.05.7-.4.9l-.2.25-.2.45-.3.35-.35.5v-.2l.3-.55.2-.6-.05-.65.15-.9.25-.8.3-.4.3-.4.25-.5.5-.6.05.15" fill="url(#b)"/><radialGradient id="c" gradientUnits="userSpaceOnUse" gradientTransform="matrix(-.00392 0 0 .00565 -8.15 2.45)" spreadMethod="pad" cx="0" cy="0" r="819.2" fx="0" fy="0"><stop offset="0" stop-color="#fb8f62"/><stop offset=".698" stop-color="#fec7a3"/><stop offset="1" stop-color="#fedec1"/></radialGradient><path d="M-8.2 6.4l-.45.05q-.55 0-.95-.5l-.35-.65-.1-.45-.05-.35-.15-.55-.2-.55-.1-.95-.1-.85q-.05-.3-.4-.85l-.3-.85.2-.5.4-.15.85.25q.65.3.75.75l.95 6.15M-11.05.2l.2.8.35.8.15-.7.1.4V3.2q.05.7.4.9l.2.25.25.45.25.35.35.5v-.2l-.25-.55-.25-.6.05-.65-.1-.9-.3-.8-.25-.4-.35-.4-.2-.5-.55-.6-.05.15" fill="url(#c)"/><radialGradient id="d" gradientUnits="userSpaceOnUse" gradientTransform="matrix(-.00238 .00098 .00168 .0041 -9.3 3.15)" spreadMethod="pad" cx="0" cy="0" r="819.2" fx="0" fy="0"><stop offset="0" stop-color="#ea8440"/><stop offset="1" stop-color="#fcc7a5"/></radialGradient><path d="M-11 .05l.55.6.2.5.35.4.25.4.3.8.1.9-.05.65.25.6.25.55v.2l-.35-.5-.25-.35-.25-.45-.2-.25q-.35-.2-.4-.9V1.5l-.1-.4-.15.7-.35-.8-.2-.8.05-.15" fill="url(#d)"/><path d="M9.25.25q.1-.45.75-.75l.8-.25.4.15.2.5-.3.85q-.35.55-.4.85l-.1.85-.1.95-.2.55-.15.55-.05.35-.1.45-.3.65q-.4.5-1 .5l-.45-.05M-9.15.25q-.1-.45-.75-.75l-.85-.25-.4.15-.2.5.3.85q.35.55.4.85l.1.85.1.95.2.55.15.55.05.35.1.45.35.65q.4.5.95.5l.45-.05" fill="none" stroke-width=".05" stroke-linecap="round" stroke-linejoin="round" stroke-miterlimit="3" stroke="#b76340" stroke-opacity=".502"/><path d="M9.4 5.65l-.05.05-.05.15v.05l.05.05.1.05-.1.05h-.1l-.05.05v.05l-.05-.05.05-.1-.05-.05V5.9l.05-.15.2-.15v.05m0 .45l-.1.1-.1.15-.05-.1.05-.1.15-.05h.05m.25-.4l.05.05-.05.15-.15-.05.1-.05.05-.1" fill="#fff"/><path d="M9.1 6.25l-.05-.35.3-.35.25-.15.1.1.05.45v.1l.1.05-.15.1h-.15l-.2.2-.1.1h-.1l-.05-.25m.55-.65l-.05-.05v.05l-.15.1-.1.1.1.1.2.1-.1.1-.25.1-.05.15v.05l.1-.15.15-.1.2-.15-.2-.15-.1-.05.15-.05.1-.1V5.6m-.25 0l-.2.15-.05.15v.05L9.2 6l-.05.1.05.05V6.1l.05-.05h.1l.1-.05-.1-.05-.05-.05v-.05l.05-.15.05-.05V5.6m-.05.5l-.15.05-.05.1.05.1.1-.15.1-.1h-.05m.25-.3l-.1.05.15.05.05-.15-.05-.05-.05.1" fill="#c2b6ba"/><path d="M9.65 5.65l-.1.1-.15.05.1.05.2.15-.2.15-.15.1-.1.15v-.05l.05-.15.25-.1.1-.1-.2-.1-.1-.1.1-.1.15-.1v-.05l.05.05v.05" fill="#726869"/><path d="M9.6 5.4l-.25.15-.3.35.05.35.05.25L9 6.45q-.15-.15-.15-.65l.25-.25.35-.2h.1l.05.05" fill="#23191a"/><radialGradient id="e" gradientUnits="userSpaceOnUse" gradientTransform="matrix(.0066 -.00153 .00311 .01347 9.95 -4.25)" spreadMethod="pad" cx="0" cy="0" r="819.2" fx="0" fy="0"><stop offset=".192" stop-color="#f0b192"/><stop offset="1" stop-color="#fbc9ab"/></radialGradient><path d="M6.8 3.7l-.15.2.2-1.45.05-1.6L6.6-.3l-.65-1.05q-1-1.45-1.45-2.7l-.15-.4Q3.95-5.7 3.9-8.4h-.2l.25-6.55q1.95.8 3.65 2.55l.05 4.7-.15-.1.7 4.65q.3 2.2.05 4.45L6.8 3.7" fill="url(#e)"/><radialGradient id="f" gradientUnits="userSpaceOnUse" gradientTransform="matrix(.00554 0 0 .01553 .15 2.2)" spreadMethod="pad" cx="0" cy="0" r="819.2" fx="0" fy="0"><stop offset="0" stop-color="#fbd3b5"/><stop offset="1" stop-color="#fbc9ab"/></radialGradient><path d="M2.45 14.5l-1.35.65-.45.1H.2q-1.55.05-2.5-.75l-1.95-2.15-.25-2.95q-.2-1.85-.65-2.95-.3-.9-1.05-2.05l-.3-.5-.2-1.45-.05-1.6.3-1.15.65-1.05q1.1-1.6 1.55-2.9l.05-.2q.4-1.15.45-3.55v-.45h.05l.6-6.75 3.15-.45q2.1 0 3.9.7L3.7-8.4h.2q.05 2.7.45 3.95l.15.4q.45 1.25 1.45 2.7L6.6-.3 6.9.85l-.05 1.6-.2 1.45-.3.5-1.1 2.05q-.4 1.1-.6 2.95l-.25 2.95q-.7 1.15-1.95 2.15" fill="url(#f)"/><linearGradient id="g" gradientUnits="userSpaceOnUse" gradientTransform="matrix(-.0035 -.00037 .00131 -.01244 6.9 .75)" x1="-819.2" x2="819.2"><stop offset=".392" stop-color="#f0b192"/><stop offset="1" stop-color="#fbc9ab"/></linearGradient><path d="M6.85 10.05q.25-3.3 1.05-6.6l.35-2.15Q8.5-.95 8.2-3.15L7.5-7.8l.15.1-.05-4.7.05.1q3.1 3.35 3.15 8.1-.05 1.95-.6 3.7l-.65 1.9.05-.55-.2 1.6-.8 3.4L7.55 9.5l-.75 1.55.05-1" fill="url(#g)"/><radialGradient id="h" gradientUnits="userSpaceOnUse" gradientTransform="matrix(.00772 .0006 -.00105 .01347 10.4 8.4)" spreadMethod="pad" cx="0" cy="0" r="819.2" fx="0" fy="0"><stop offset=".259" stop-color="#f0b192"/><stop offset="1" stop-color="#fbc9ab"/></radialGradient><path d="M4.4 12.35l.25-2.95q.2-1.85.6-2.95l1.1-2.05.3-.5.15-.2 1.45-2.4-.35 2.15q-.8 3.3-1.05 6.6l-.05 1-.7.85-1.75 1.75.05-1.3" fill="url(#h)"/><radialGradient id="i" gradientUnits="userSpaceOnUse" gradientTransform="matrix(.01044 0 0 .01044 .2 17.35)" spreadMethod="pad" cx="0" cy="0" r="819.2" fx="0" fy="0"><stop offset=".118" stop-color="#f0b192"/><stop offset="1" stop-color="#fbc9ab"/></radialGradient><path d="M-4.25 12.35l1.95 2.15q.95.8 2.5.75h.45l.45-.1 1.35-.65q1.25-1 1.95-2.15l-.05 1.3-.35.3-1.65 1.3q-.7.4-1.85.45-1.75.05-2.7-.45l-1.7-1.3-.3-.3-.05-1.3" fill="url(#i)"/><radialGradient id="j" gradientUnits="userSpaceOnUse" gradientTransform="matrix(.00714 0 0 .01321 -8.7 -4.75)" spreadMethod="pad" cx="0" cy="0" r="819.2" fx="0" fy="0"><stop offset=".118" stop-color="#f0b192"/><stop offset="1" stop-color="#fbc9ab"/></radialGradient><path d="M-3.7-8.45h-.05V-8q-.05 2.4-.45 3.55l-.05.2q-.45 1.3-1.55 2.9L-6.45-.3l-.3 1.15.05 1.6.2 1.45-.15-.2-1.45-2.4q-.25-2.05 0-4.05l-.25.95.35-9.9.5-.6q1.65-1.8 3.65-2.6l.75-.3-.6 6.75" fill="url(#j)"/><linearGradient id="k" gradientUnits="userSpaceOnUse" gradientTransform="matrix(.0046 0 0 .0121 -7.55 2.35)" x1="-819.2" x2="819.2"><stop offset=".506" stop-color="#f0b192"/><stop offset="1" stop-color="#fbc9ab"/></linearGradient><path d="M-7.75 3.45q.8 3.3 1.05 6.6l.05 1.05-.75-1.65-1.1-3.65-.75-3.35-.1-.9q-1-2.45-1.2-4.35l-.05-1.4V-4.8l.2-2.15 1.15-2.95L-8-11.7l-.35 9.9.25-.95q-.25 2 0 4.05l.35 2.15" fill="url(#k)"/><radialGradient id="l" gradientUnits="userSpaceOnUse" gradientTransform="matrix(.00742 -.00096 .00201 .01558 -9.4 10.45)" spreadMethod="pad" cx="0" cy="0" r="819.2" fx="0" fy="0"><stop offset=".196" stop-color="#f0b192"/><stop offset=".212" stop-color="#f0b192"/><stop offset="1" stop-color="#fbc9ab"/></radialGradient><path d="M-4.2 13.65l-1.8-1.8-.65-.75-.05-1.05q-.25-3.3-1.05-6.6L-8.1 1.3l1.45 2.4.15.2.3.5q.75 1.15 1.05 2.05.45 1.1.65 2.95l.25 2.95.05 1.3" fill="url(#l)"/><radialGradient id="m" gradientUnits="userSpaceOnUse" gradientTransform="matrix(.01169 0 0 .01169 3 -18.05)" spreadMethod="pad" cx="0" cy="0" r="819.2" fx="41" fy="0"><stop offset="0" stop-color="#feeade"/><stop offset=".988" stop-color="#fedec2"/></radialGradient><path d="M-10.6-4.3v-.5.5" fill="url(#m)"/><path d="M-3.1-15.2l-.75.3q-2 .8-3.65 2.6l-.5.6m4.9-3.5l3.15-.45q2.1 0 3.9.7 1.95.8 3.65 2.55l.05.1q3.1 3.35 3.15 8.1-.05 1.95-.6 3.7l-.65 1.9M9.6.85l-.2 1.6-.8 3.4L7.55 9.5l-.75 1.55-.7.85-1.75 1.75-.35.3-1.65 1.3q-.7.4-1.85.45-1.75.05-2.7-.45l-1.7-1.3-.3-.3-1.8-1.8-.65-.75-.75-1.65-1.1-3.65-.75-3.35-.1-.9q-1-2.45-1.2-4.35l-.05-1.4v-.6l.2-2.15 1.15-2.95L-8-11.7m-2.6 6.9v.5" fill="none" stroke-width=".05" stroke-linecap="round" stroke-linejoin="round" stroke-miterlimit="3" stroke="#b76340" stroke-opacity=".502"/><radialGradient id="n" gradientUnits="userSpaceOnUse" gradientTransform="matrix(.0019 .00146 -.00214 .0028 5.6 4.45)" spreadMethod="pad" cx="0" cy="0" r="819.2" fx="0" fy="0"><stop offset=".114" stop-color="#fff" stop-opacity=".302"/><stop offset="1" stop-color="#fff" stop-opacity="0"/></radialGradient><path d="M7.15 1.3l.5.45.5.95-.3 1.1-.7 1.4q-1.1 1.7-2.1 1.7-.35 0-.85-.4-.6-.45-.9-1.55-.25-1.1.2-1.45.4-.35 1.3-.55.85-.2 1.6-.75l.75-.9" fill="url(#n)"/><radialGradient id="o" gradientUnits="userSpaceOnUse" gradientTransform="matrix(.00235 -.00098 .0014 .00339 -5.4 4.25)" spreadMethod="pad" cx="0" cy="0" r="819.2" fx="0" fy="0"><stop offset=".114" stop-color="#fff" stop-opacity=".302"/><stop offset="1" stop-color="#fff" stop-opacity="0"/></radialGradient><path d="M-2.35 4.3l-.4 1.3q-.65 1.8-1.8 1.8l-1.15-.45-1-1.25Q-7.7 4-7.55 2l.05-.05.2-.15.6-.15q.3 0 1 .4l1.3.6 1.55.4q.6.2.6.65l-.1.6" fill="url(#o)"/><radialGradient id="p" gradientUnits="userSpaceOnUse" gradientTransform="matrix(.00366 0 0 .00148 0 13.55)" spreadMethod="pad" cx="0" cy="0" r="819.2" fx="0" fy="0"><stop offset=".114" stop-color="#fff" stop-opacity=".302"/><stop offset="1" stop-color="#fff" stop-opacity="0"/></radialGradient><path d="M2.05 14.45L0 14.8l-2.05-.35q-.85-.35-.85-.9 0-.5.85-.85L0 12.35l2.05.35q.8.35.8.85 0 .55-.8.9" fill="url(#p)"/><radialGradient id="q" gradientUnits="userSpaceOnUse" gradientTransform="matrix(.0064 0 0 .00308 .35 -5.15)" spreadMethod="pad" cx="0" cy="0" r="819.2" fx="0" fy="0"><stop offset=".114" stop-color="#fff" stop-opacity=".302"/><stop offset="1" stop-color="#fff" stop-opacity="0"/></radialGradient><path d="M5.85-6.05q0 1.35-1.6 2.35-1.6.95-3.85.95t-3.85-.95q-1.6-1-1.6-2.35t1.6-2.3Q-1.85-9.3.4-9.3t3.85.95q1.6.95 1.6 2.3" fill="url(#q)"/><radialGradient id="r" gradientUnits="userSpaceOnUse" gradientTransform="matrix(.01137 0 0 .01137 6.75 -12.05)" spreadMethod="pad" cx="0" cy="0" r="819.2" fx="0" fy="0"><stop offset="0" stop-color="#fff" stop-opacity=".161"/><stop offset="1" stop-color="#fff" stop-opacity="0"/></radialGradient><path d="M-.05-9.4l-.05-2.35q0-2.2.85-3.55l.1.05q5.75 1.6 6.7 2.65Q9.6-10.15 9.6-7.8q0 3.75-6.2 3.75l-1.75-.3Q1.05-4.8.5-6.5q-.65-1.9-.55-2.9" fill="url(#r)"/><radialGradient id="s" gradientUnits="userSpaceOnUse" gradientTransform="matrix(.00977 0 0 .00977 -6.8 -7.8)" spreadMethod="pad" cx="0" cy="0" r="819.2" fx="0" fy="0"><stop offset="0" stop-color="#fff" stop-opacity=".502"/><stop offset="1" stop-color="#fff" stop-opacity="0"/></radialGradient><path d="M-8.1-9.9q-1.75 3-1.75 5.85 0 1.8.5 3.1v.25h-.05q-.85-2.85-.85-5.2l.15-1.4q0-1.1 2.15-4.1 1.55-2.4 4.55-3.5h.05q-2.95 1.8-4.75 5" fill="url(#s)"/><radialGradient id="t" gradientUnits="userSpaceOnUse" gradientTransform="matrix(.00941 0 0 .00941 6.35 -8.2)" spreadMethod="pad" cx="0" cy="0" r="819.2" fx="0" fy="0"><stop offset="0" stop-color="#fff" stop-opacity=".643"/><stop offset="1" stop-color="#fff" stop-opacity="0"/></radialGradient><path d="M2.75-14.8q3.5.6 5.75 3.75 1.9 2.65 1.9 5.45l-.5 3.95h-.05l.25-2.1q0-3.25-1.75-6.35-2.2-3.8-6.05-4.7h.45" fill="url(#t)"/><radialGradient id="u" gradientUnits="userSpaceOnUse" gradientTransform="translate(-.25 -12) scale(.01091)" spreadMethod="pad" cx="0" cy="0" r="819.2" fx="0" fy="0"><stop offset="0" stop-color="#fff" stop-opacity=".502"/><stop offset="1" stop-color="#fff" stop-opacity="0"/></radialGradient><path d="M.05-15.65L2-15.5l1.3.45 1.3.6 2 1.3 1.95 2.35q-.5 2.3-2.55 4Q3.4-4.65-.25-4.65q-3.7 0-6.3-2.15-2.35-1.9-2.55-4.6l1.05-.85 2.55-1.7q1.65-1 3.3-1.4l2.25-.3" fill="url(#u)"/></g></svg>