<svg xmlns="http://www.w3.org/2000/svg" width="24" height="31"><g transform="translate(-58.5 -15.8)"><radialGradient id="a" gradientUnits="userSpaceOnUse" gradientTransform="matrix(.00476 0 0 .00586 78.05 31.35)" spreadMethod="pad" cx="0" cy="0" r="819.2" fx="0" fy="0"><stop offset="0" stop-color="#ea8440"/><stop offset="1" stop-color="#fcc7a5"/></radialGradient><path d="M81.2 31.6q0 .45-.2.45l-.15-.05.1-.8q.05-.45-.3-.45l-.3.15-.25.3-.4.85-.25.95q-.2.75.55.65.75-.1-1.05 1.75h-.2l-.15-.25.3-.55.25-.7-.15-.6-.2-.6.2-.85q.25-.75 1-1.65 1.2-1.4 1.2 1v.4" fill="url(#a)"/><radialGradient id="b" gradientUnits="userSpaceOnUse" gradientTransform="matrix(.00679 0 0 .00848 76.8 30)" spreadMethod="pad" cx="0" cy="0" r="819.2" fx="0" fy="0"><stop offset="0" stop-color="#fb8f62"/><stop offset=".698" stop-color="#fec7a3"/><stop offset="1" stop-color="#fedec1"/></radialGradient><path d="M79.65 28.8q.85-.3 1.55 0l.6 1.45-.5 1.8-.1.35-.2.75-.6 1.3-.65 1.3-.5.4-.75.05-.8-.15.8-5.45q.45-1.2 1.1-1.55l.05-.25m1.55 2.4q0-2.4-1.2-1-.75.9-1 1.65l-.2.85.2.6.15.6-.25.7-.3.55.15.25h.2q1.8-1.85 1.05-1.75-.75.1-.55-.65l.25-.95.4-.85.25-.3.3-.15q.35 0 .3.45l-.1.8.15.05q.2 0 .2-.45v-.4" fill="url(#b)"/><path d="M79.65 28.8q.85-.3 1.55 0l.6 1.45-.5 1.8-.3 1.1-.6 1.3-.65 1.3-.5.4-.75.05-.8-.15" fill="none" stroke-width=".05" stroke-linecap="round" stroke-linejoin="round" stroke-miterlimit="3" stroke="#b76340" stroke-opacity=".502"/><radialGradient id="c" gradientUnits="userSpaceOnUse" gradientTransform="matrix(-.00476 0 0 .00586 62.25 31.35)" spreadMethod="pad" cx="0" cy="0" r="819.2" fx="0" fy="0"><stop offset="0" stop-color="#ea8440"/><stop offset="1" stop-color="#fcc7a5"/></radialGradient><path d="M59.1 31.6q0 .45.2.45l.15-.05-.1-.8q-.05-.45.3-.45l.3.15.25.3.4.85.25.95q.2.75-.55.65-.75-.1 1.05 1.75h.2l.15-.25-.3-.55-.25-.7.15-.6.2-.6-.2-.85-1-1.65q-1.2-1.4-1.2 1v.4" fill="url(#c)"/><radialGradient id="d" gradientUnits="userSpaceOnUse" gradientTransform="matrix(-.00679 0 0 .00848 63.5 30)" spreadMethod="pad" cx="0" cy="0" r="819.2" fx="0" fy="0"><stop offset="0" stop-color="#fb8f62"/><stop offset=".698" stop-color="#fec7a3"/><stop offset="1" stop-color="#fedec1"/></radialGradient><path d="M60.65 28.8q-.85-.3-1.55 0l-.6 1.45.5 1.8.1.35.2.75.6 1.3.65 1.3.5.4.75.05.8-.15-.8-5.45q-.45-1.2-1.1-1.55l-.05-.25m-1.55 2.4q0-2.4 1.2-1l1 1.65.2.85-.2.6-.15.6.25.7.3.55-.15.25h-.2q-1.8-1.85-1.05-1.75.75.1.55-.65l-.25-.95-.4-.85-.25-.3-.3-.15q-.35 0-.3.45l.1.8-.15.05q-.2 0-.2-.45v-.4" fill="url(#d)"/><path d="M60.65 28.8q-.85-.3-1.55 0l-.6 1.45.5 1.8.3 1.1.6 1.3.65 1.3.5.4.75.05.8-.15" fill="none" stroke-width=".05" stroke-linecap="round" stroke-linejoin="round" stroke-miterlimit="3" stroke="#b76340" stroke-opacity=".502"/><path d="M60.15 29.15h.05-.05" fill="#fdd6b8" fill-opacity=".722"/><radialGradient id="e" gradientUnits="userSpaceOnUse" gradientTransform="matrix(.023 0 0 .023 53.5 33.1)" spreadMethod="pad" cx="0" cy="0" r="819.2" fx="210518" fy="0"><stop offset="0" stop-color="#f5ae8e"/><stop offset="1" stop-color="#fdcbad"/></radialGradient><path d="M65.65 43.6l-1.3-1.3q-2.2-2.25-2.5-3.9l-.4-2.05-.15-.85-.25-1.1-.35-2-.4-2.05-.15-1.2h.05-.05l-.05-.35-.2-1.55q-.2-1.45 0-3.5.1-1.25.8-2.45-.15.85-.15 2.65 0 1.05.7 6.2l.7 4.7.75 2.85.25.75q.7 2.05 3.1 5.55l-.4-.4" fill="url(#e)"/><radialGradient id="f" gradientUnits="userSpaceOnUse" gradientTransform="matrix(.02112 0 0 .02112 86.2 35.75)" spreadMethod="pad" cx="0" cy="0" r="819.2" fx="0" fy="0"><stop offset="0" stop-color="#f5ae8e"/><stop offset="1" stop-color="#fdcbad"/></radialGradient><path d="M74.65 43.6q2.1-3.15 2.8-5.1l.25-.8.1-.3.4-1.45.15-1.1.7-4.7.7-6.2-.15-2.65v-.05h.05l.6 1.4.05.3.1.8q.2 2.05 0 3.5l-.25 1.9v.3l-.15.9-.4 2.05-.35 2-.25 1.1-.15.85-.4 2.05q-.3 1.65-2.5 3.9l-1.3 1.3" fill="url(#f)"/><radialGradient id="g" gradientUnits="userSpaceOnUse" gradientTransform="matrix(.00597 0 0 .00865 70.05 27.85)" spreadMethod="pad" cx="0" cy="0" r="819.2" fx="0" fy="0"><stop offset=".11" stop-color="#ffe4cf"/><stop offset="1" stop-color="#fed9bd"/></radialGradient><path d="M70.4 15.8l2.5.3 1.2.4-.25 2.05q0 1.75 1.7 6.25 1.75 4.5 1.15 5.6-.6 1.1-1.85 4.75t-1 5.7q.2 2-.35 2.75l-1.35 1.85-.75.6-.25.05-.85.1-1.1-.1h-.05l-.9-.65-1.35-1.85q-.55-.75-.3-2.8.25-2.1-1.5-5.75t-1.85-4.7q-.15-1.05 1.6-5.55 1.7-4.5 1.7-6.25l-.25-2.05q1.95-.75 4.1-.7" fill="url(#g)"/><radialGradient id="h" gradientUnits="userSpaceOnUse" gradientTransform="matrix(.00903 -.00029 .00124 .03894 67.5 28.7)" spreadMethod="pad" cx="0" cy="0" r="819.2" fx="0" fy="0"><stop offset=".38" stop-color="#fed9bd"/><stop offset=".773" stop-color="#fcc5a5"/></radialGradient><path d="M72.95 45.45h-.05q-.55.75-1.35 1l-1.05.2h-.7l-1.05-.2q-.8-.25-1.35-1l-.1-.1L66.05 44q-2.4-3.5-3.1-5.55l-.25-.75-.75-2.85-.7-4.7q-.7-5.15-.7-6.2 0-1.8.15-2.65v-.05l1.15-1.6.1-.15q2-2.1 4.35-3l.25 2.05q0 1.75-1.7 6.25-1.75 4.5-1.6 5.55.1 1.05 1.85 4.7 1.75 3.65 1.5 5.75-.25 2.05.3 2.8l1.35 1.85.9.65h.05l1.1.1.85-.1.25-.05 1.55-.6" fill="url(#h)"/><radialGradient id="i" gradientUnits="userSpaceOnUse" gradientTransform="matrix(.00963 .00003 -.0001 .03543 72.6 28.15)" spreadMethod="pad" cx="0" cy="0" r="819.2" fx="0" fy="0"><stop offset=".38" stop-color="#fed9bd"/><stop offset=".773" stop-color="#fcc5a5"/></radialGradient><path d="M72.95 45.45l-1.55.6.75-.6 1.35-1.85q.55-.75.35-2.75-.25-2.05 1-5.7 1.25-3.65 1.85-4.75.6-1.1-1.15-5.6-1.7-4.5-1.7-6.25l.25-2.05q2.35.95 4.3 3l.05.05.05.1 1.1 1.5.05.1h-.05v.05l.15 2.65-.7 6.2-.7 4.7-.15 1.1-.4 1.45-.1.3-.25.8q-.7 1.95-2.8 5.1l-.05.1-1.65 1.75" fill="url(#i)"/><path d="M61.95 19.5q3.65-3.85 8.45-3.7l2.5.3q3.05.8 5.5 3.4l.1.15q1.3 1.45 1.75 3l.05.3.1.8q.2 2.05 0 3.5l-.25 1.9-.15 1.2-.4 2.05-.35 2-.25 1.1-.15.85-.4 2.05q-.3 1.65-2.5 3.9l-1.3 1.3-1.75 1.85q-.55.75-1.35 1l-1.05.2h-.7l-1.05-.2q-.8-.25-1.35-1l-1.75-1.85-1.3-1.3q-2.2-2.25-2.5-3.9l-.4-2.05-.15-.85-.25-1.1-.35-2-.4-2.05-.15-1.2-.25-1.9q-.2-1.45 0-3.5.2-2.1 1.95-4.1l.1-.15z" fill="none" stroke-width=".05" stroke-linecap="round" stroke-linejoin="round" stroke-miterlimit="3" stroke="#b76340" stroke-opacity=".502"/></g></svg>