<svg width="24" height="31" xmlns="http://www.w3.org/2000/svg"><defs><radialGradient fy="0" fx="0" r="819.2" cy="0" cx="0" spreadMethod="pad" gradientTransform="matrix(.00476 0 0 .00586 78.425 31.35)" gradientUnits="userSpaceOnUse" id="a"><stop stop-color="#EA8440" offset="0"/><stop stop-color="#FCC7A5" offset="1"/></radialGradient><radialGradient fy="0" fx="0" r="819.2" cy="0" cx="0" spreadMethod="pad" gradientTransform="matrix(.00679 0 0 .00848 77.175 30)" gradientUnits="userSpaceOnUse" id="b"><stop stop-color="#FB8F62" offset="0"/><stop stop-color="#FEC7A3" offset=".698"/><stop stop-color="#FEDEC1" offset="1"/></radialGradient><radialGradient fy="0" fx="0" r="819.2" cy="0" cx="0" spreadMethod="pad" gradientTransform="matrix(-.00476 0 0 .00586 62.625 31.35)" gradientUnits="userSpaceOnUse" id="c"><stop stop-color="#EA8440" offset="0"/><stop stop-color="#FCC7A5" offset="1"/></radialGradient><radialGradient fy="0" fx="0" r="819.2" cy="0" cx="0" spreadMethod="pad" gradientTransform="matrix(-.00679 0 0 .00848 63.875 30)" gradientUnits="userSpaceOnUse" id="d"><stop stop-color="#FB8F62" offset="0"/><stop stop-color="#FEC7A3" offset=".698"/><stop stop-color="#FEDEC1" offset="1"/></radialGradient><radialGradient fy="0" fx="210518" r="819.2" cy="0" cx="0" spreadMethod="pad" gradientTransform="matrix(.023 0 0 .023 53.875 33.1)" gradientUnits="userSpaceOnUse" id="e"><stop stop-color="#F5AE8E" offset="0"/><stop stop-color="#FDCBAD" offset="1"/></radialGradient><radialGradient fy="0" fx="0" r="819.2" cy="0" cx="0" spreadMethod="pad" gradientTransform="matrix(.02112 0 0 .02112 86.575 35.75)" gradientUnits="userSpaceOnUse" id="f"><stop stop-color="#F5AE8E" offset="0"/><stop stop-color="#FDCBAD" offset="1"/></radialGradient><radialGradient fy="0" fx="0" r="819.2" cy="0" cx="0" spreadMethod="pad" gradientTransform="matrix(.00597 0 0 .00865 70.425 27.85)" gradientUnits="userSpaceOnUse" id="g"><stop stop-color="#FFE4CF" offset=".11"/><stop stop-color="#FED9BD" offset="1"/></radialGradient><radialGradient fy="0" fx="0" r="819.2" cy="0" cx="0" spreadMethod="pad" gradientTransform="matrix(.00903 -.00029 .00124 .03894 67.875 28.7)" gradientUnits="userSpaceOnUse" id="h"><stop stop-color="#FED9BD" offset=".38"/><stop stop-color="#FCC5A5" offset=".773"/></radialGradient><radialGradient fy="0" fx="0" r="819.2" cy="0" cx="0" spreadMethod="pad" gradientTransform="matrix(.00963 .00003 -.0001 .03543 72.975 28.15)" gradientUnits="userSpaceOnUse" id="i"><stop stop-color="#FED9BD" offset=".38"/><stop stop-color="#FCC5A5" offset=".773"/></radialGradient></defs><path fill="none" d="M-1-1h582v402H-1z"/><g><path fill="url(#a)" d="M81.575 31.6q0 .45-.2.45l-.15-.05.1-.8q.05-.45-.3-.45l-.3.15-.25.3-.4.85-.25.95q-.2.75.55.65.75-.1-1.05 1.75h-.2l-.15-.25.3-.55.25-.7-.15-.6-.2-.6.2-.85q.25-.75 1-1.65 1.2-1.4 1.2 1v.4" transform="translate(-58.5 -15.8)"/><path fill="url(#b)" d="M80.025 28.8q.85-.3 1.55 0l.6 1.45-.5 1.8-.1.35-.2.75-.6 1.3-.65 1.3-.5.4-.75.05-.8-.15.8-5.45q.45-1.2 1.1-1.55l.05-.25m1.55 2.4q0-2.4-1.2-1-.75.9-1 1.65l-.2.85.2.6.15.6-.25.7-.3.55.15.25h.2q1.8-1.85 1.05-1.75-.75.1-.55-.65l.25-.95.4-.85.25-.3.3-.15q.35 0 .3.45l-.1.8.15.05q.2 0 .2-.45v-.4" transform="translate(-58.5 -15.8)"/><path fill="none" stroke-width=".05" stroke-linecap="round" stroke-linejoin="round" stroke-miterlimit="3" stroke="#B76340" stroke-opacity=".502" d="M21.525 13q.85-.3 1.55 0l.6 1.45-.5 1.8-.3 1.1-.6 1.3-.65 1.3-.5.4-.75.05-.8-.15"/><path fill="url(#c)" d="M59.475 31.6q0 .45.2.45l.15-.05-.1-.8q-.05-.45.3-.45l.3.15.25.3.4.85.25.95q.2.75-.55.65-.75-.1 1.05 1.75h.2l.15-.25-.3-.55-.25-.7.15-.6.2-.6-.2-.85-1-1.65q-1.2-1.4-1.2 1v.4" transform="translate(-58.5 -15.8)"/><path fill="url(#d)" d="M61.025 28.8q-.85-.3-1.55 0l-.6 1.45.5 1.8.1.35.2.75.6 1.3.65 1.3.5.4.75.05.8-.15-.8-5.45q-.45-1.2-1.1-1.55l-.05-.25m-1.55 2.4q0-2.4 1.2-1l1 1.65.2.85-.2.6-.15.6.25.7.3.55-.15.25h-.2q-1.8-1.85-1.05-1.75.75.1.55-.65l-.25-.95-.4-.85-.25-.3-.3-.15q-.35 0-.3.45l.1.8-.15.05q-.2 0-.2-.45v-.4" transform="translate(-58.5 -15.8)"/><path fill="none" stroke-width=".05" stroke-linecap="round" stroke-linejoin="round" stroke-miterlimit="3" stroke="#B76340" stroke-opacity=".502" d="M2.525 13q-.85-.3-1.55 0l-.6 1.45.5 1.8.3 1.1.6 1.3.65 1.3.5.4.75.05.8-.15"/><path fill="#FDD6B8" fill-opacity=".722" d="M2.025 13.35h.05-.05"/><path fill="url(#e)" d="M66.025 43.6l-1.3-1.3q-2.2-2.25-2.5-3.9l-.4-2.05-.15-.85-.25-1.1-.35-2-.4-2.05-.15-1.2h.05-.05l-.05-.35-.2-1.55q-.2-1.45 0-3.5.1-1.25.8-2.45-.15.85-.15 2.65 0 1.05.7 6.2l.7 4.7.75 2.85.25.75q.7 2.05 3.1 5.55l-.4-.4" transform="translate(-58.5 -15.8)"/><path fill="url(#f)" d="M75.025 43.6q2.1-3.15 2.8-5.1l.25-.8.1-.3.4-1.45.15-1.1.7-4.7.7-6.2-.15-2.65v-.05h.05l.6 1.4.05.3.1.8q.2 2.05 0 3.5l-.25 1.9v.3l-.15.9-.4 2.05-.35 2-.25 1.1-.15.85-.4 2.05q-.3 1.65-2.5 3.9l-1.3 1.3" transform="translate(-58.5 -15.8)"/><path fill="url(#g)" d="M70.775 15.8l2.5.3 1.2.4-.25 2.05q0 1.75 1.7 6.25 1.75 4.5 1.15 5.6-.6 1.1-1.85 4.75t-1 5.7q.2 2-.35 2.75l-1.35 1.85-.75.6-.25.05-.85.1-1.1-.1h-.05l-.9-.65-1.35-1.85q-.55-.75-.3-2.8.25-2.1-1.5-5.75t-1.85-4.7q-.15-1.05 1.6-5.55 1.7-4.5 1.7-6.25l-.25-2.05q1.95-.75 4.1-.7" transform="translate(-58.5 -15.8)"/><path fill="url(#h)" d="M73.325 45.45h-.05q-.55.75-1.35 1l-1.05.2h-.7l-1.05-.2q-.8-.25-1.35-1l-.1-.1-1.25-1.35q-2.4-3.5-3.1-5.55l-.25-.75-.75-2.85-.7-4.7q-.7-5.15-.7-6.2 0-1.8.15-2.65v-.05l1.15-1.6.1-.15q2-2.1 4.35-3l.25 2.05q0 1.75-1.7 6.25-1.75 4.5-1.6 5.55.1 1.05 1.85 4.7 1.75 3.65 1.5 5.75-.25 2.05.3 2.8l1.35 1.85.9.65h.05l1.1.1.85-.1.25-.05 1.55-.6" transform="translate(-58.5 -15.8)"/><path fill="url(#i)" d="M73.325 45.45l-1.55.6.75-.6 1.35-1.85q.55-.75.35-2.75-.25-2.05 1-5.7 1.25-3.65 1.85-4.75.6-1.1-1.15-5.6-1.7-4.5-1.7-6.25l.25-2.05q2.35.95 4.3 3l.05.05.05.1 1.1 1.5.05.1h-.05v.05l.15 2.65-.7 6.2-.7 4.7-.15 1.1-.4 1.45-.1.3-.25.8q-.7 1.95-2.8 5.1l-.05.1-1.65 1.75" transform="translate(-58.5 -15.8)"/><path fill="none" stroke-width=".05" stroke-linecap="round" stroke-linejoin="round" stroke-miterlimit="3" stroke="#B76340" stroke-opacity=".502" d="M3.825 3.7q3.65-3.85 8.45-3.7l2.5.3q3.05.8 5.5 3.4l.1.15q1.3 1.45 1.75 3l.05.3.1.8q.2 2.05 0 3.5l-.25 1.9-.15 1.2-.4 2.05-.35 2-.25 1.1-.15.85-.4 2.05q-.3 1.65-2.5 3.9l-1.3 1.3-1.75 1.85q-.55.75-1.35 1l-1.05.2h-.7l-1.05-.2q-.8-.25-1.35-1l-1.75-1.85-1.3-1.3q-2.2-2.25-2.5-3.9l-.4-2.05-.15-.85-.25-1.1-.35-2-.4-2.05-.15-1.2-.25-1.9q-.2-1.45 0-3.5.2-2.1 1.95-4.1l.1-.15z"/></g></svg>