<svg xmlns="http://www.w3.org/2000/svg" width="23" height="31"><g transform="translate(-58.65 -15.8)"><radialGradient id="a" gradientUnits="userSpaceOnUse" gradientTransform="matrix(-.00476 0 0 .00586 62.25 31.7)" spreadMethod="pad" cx="0" cy="0" r="819.2" fx="0" fy="0"><stop offset="0" stop-color="#ea8440"/><stop offset="1" stop-color="#fcc7a5"/></radialGradient><path d="M59.1 31.95q0 .45.2.45l.15-.05-.1-.8q-.05-.45.3-.45l.3.15.25.3.4.85.25.95q.2.75-.55.65-.75-.1 1.05 1.75h.2l.15-.25-.3-.55-.25-.7.15-.6.2-.6q0-1.05-1.2-2.5-1.2-1.4-1.2 1v.4" fill="url(#a)"/><radialGradient id="b" gradientUnits="userSpaceOnUse" gradientTransform="matrix(-.00679 0 0 .00848 63.5 30.35)" spreadMethod="pad" cx="0" cy="0" r="819.2" fx="0" fy="0"><stop offset="0" stop-color="#fb8f62"/><stop offset=".698" stop-color="#fec7a3"/><stop offset="1" stop-color="#fedec1"/></radialGradient><path d="M59.1 31.55q0-2.4 1.2-1 1.2 1.45 1.2 2.5l-.2.6-.15.6.25.7.3.55-.15.25h-.2Q59.55 33.9 60.3 34q.75.1.55-.65l-.25-.95-.4-.85-.25-.3-.3-.15q-.35 0-.3.45l.1.8-.15.05q-.2 0-.2-.45v-.4m-.45-1.5v.4l.45 2.6 1.65 3.2.55.15h1.3l-.8-5.45q-.5-1.85-1.35-1.8l-.65.05h-.25l-.2.05-.2.05-.5.75" fill="url(#b)"/><path d="M62.6 36.4h-1.3l-.55-.15-1.65-3.2-.45-2.6v-.4l.5-.75.2-.05.2-.05h.25l.65-.05q.85-.05 1.35 1.8" fill="none" stroke-width=".05" stroke-linecap="round" stroke-linejoin="round" stroke-miterlimit="3" stroke="#b76340" stroke-opacity=".502"/><radialGradient id="c" gradientUnits="userSpaceOnUse" gradientTransform="matrix(.00476 0 0 .00586 78.05 31.7)" spreadMethod="pad" cx="0" cy="0" r="819.2" fx="0" fy="0"><stop offset="0" stop-color="#ea8440"/><stop offset="1" stop-color="#fcc7a5"/></radialGradient><path d="M81.2 31.95q0 .45-.2.45l-.15-.05.1-.8q.05-.45-.3-.45l-.3.15-.25.3-.4.85-.25.95q-.2.75.55.65.75-.1-1.05 1.75h-.2l-.15-.25.3-.55.25-.7-.15-.6-.2-.6q0-1.05 1.2-2.5 1.2-1.4 1.2 1v.4" fill="url(#c)"/><radialGradient id="d" gradientUnits="userSpaceOnUse" gradientTransform="matrix(.00679 0 0 .00848 76.8 30.35)" spreadMethod="pad" cx="0" cy="0" r="819.2" fx="0" fy="0"><stop offset="0" stop-color="#fb8f62"/><stop offset=".698" stop-color="#fec7a3"/><stop offset="1" stop-color="#fedec1"/></radialGradient><path d="M81.2 31.55q0-2.4-1.2-1-1.2 1.45-1.2 2.5l.2.6.15.6-.25.7-.3.55.15.25h.2Q80.75 33.9 80 34q-.75.1-.55-.65l.25-.95.4-.85.25-.3.3-.15q.35 0 .3.45l-.1.8.15.05q.2 0 .2-.45v-.4m.45-1.5v.4l-.45 2.6-1.65 3.2-.55.15h-1.3l.8-5.45q.5-1.85 1.35-1.8l.65.05h.25l.2.05.2.05.5.75" fill="url(#d)"/><path d="M77.7 36.4H79l.55-.15 1.65-3.2.45-2.6v-.4l-.5-.75-.2-.05-.2-.05h-.25l-.65-.05q-.85-.05-1.35 1.8" fill="none" stroke-width=".05" stroke-linecap="round" stroke-linejoin="round" stroke-miterlimit="3" stroke="#b76340" stroke-opacity=".502"/><radialGradient id="e" gradientUnits="userSpaceOnUse" gradientTransform="matrix(.00504 0 0 .00877 70.25 27)" spreadMethod="pad" cx="0" cy="0" r="819.2" fx="0" fy="0"><stop offset=".11" stop-color="#ffe4cf"/><stop offset="1" stop-color="#fed9bd"/></radialGradient><path d="M70.4 15.8q2.55 0 4.6 1l.1 2.5q.05 2.45.6 4.25.5 1.8 1.4 3 .55.75.65 2.3l-.8 3.8-.85.65q-2.25 2-3.6 5.15-1.15 2.65-1.45 5.5l-.7.1h-.65q.45-2.05-1.25-4.85-2.4-3.9-4.65-5.9l-.95-4.5.55-1.1q1.1-1.7 1.5-4.05.4-2.4.5-6.75 2.3-1.2 5-1.1" fill="url(#e)"/><radialGradient id="f" gradientUnits="userSpaceOnUse" gradientTransform="matrix(.00653 .00043 -.00136 .02013 64.9 24.75)" spreadMethod="pad" cx="0" cy="0" r="819.2" fx="0" fy="0"><stop offset=".38" stop-color="#fed9bd"/><stop offset=".773" stop-color="#fcc5a5"/></radialGradient><path d="M60.45 31.2l-.15-.85-.15-1.2-.25-1.9q-.2-1.45 0-3.5.2-2.1 1.95-4.1l.1-.15q1.6-1.7 3.45-2.6-.1 4.35-.5 6.75-.4 2.35-1.5 4.05l-.55 1.1.95 4.5q-1.5-1.3-3.35-2.1" fill="url(#f)"/><radialGradient id="g" gradientUnits="userSpaceOnUse" gradientTransform="matrix(.0105 0 -.00002 .02705 73 26.85)" spreadMethod="pad" cx="0" cy="0" r="819.2" fx="0" fy="0"><stop offset=".506" stop-color="#fed9bd"/><stop offset=".773" stop-color="#fcc5a5"/></radialGradient><path d="M76.95 32.65l.8-3.8q-.1-1.55-.65-2.3-.9-1.2-1.4-3-.55-1.8-.6-4.25l-.1-2.5q2.4 1.15 4.15 3.7 1.1 1.6 1.25 3.25l.05 3.5-.25 1.9-.1.8-.2 1.05-.45.2q-1.35.6-2.5 1.45" fill="url(#g)"/><radialGradient id="h" gradientUnits="userSpaceOnUse" gradientTransform="matrix(.01732 0 0 .01732 57.25 45.8)" spreadMethod="pad" cx="0" cy="0" r="819.2" fx="210499" fy="0"><stop offset="0" stop-color="#f5ae8e"/><stop offset="1" stop-color="#fdcbad"/></radialGradient><path d="M72.55 45.7l-.8.15-.85.15-1.9-.05-.4-.1-.75-.15-.2-.05L66.5 45l-1.2-1.25-1.75-1.6q-1.05-.8-1.45-1.8l-.25-.8-.15-.95 1.3 1.85q.9 1 2.5 2.2l1.3 1.8q.65.7 2.1 1l.1.05 1.2.15.7.05h1.65" fill="url(#h)"/><radialGradient id="i" gradientUnits="userSpaceOnUse" gradientTransform="matrix(.0163 0 0 .0163 83 45.45)" spreadMethod="pad" cx="0" cy="0" r="819.2" fx="0" fy="0"><stop offset="0" stop-color="#f5ae8e"/><stop offset="1" stop-color="#fdcbad"/></radialGradient><path d="M71.85 45.7h-.95l-.7-.05.7-.1.65-.1q1.35-.35 2-1L74.6 43l.25-.35 2.5-2.2 1.3-1.8-.15.9-.25.8q-.4 1-1.45 1.8l-1.75 1.6-1.2 1.25-.05.05-1.1.6-.15.05h-.7" fill="url(#i)"/><radialGradient id="j" gradientUnits="userSpaceOnUse" gradientTransform="matrix(.0073 -.00359 .00883 .01788 67.9 37.55)" spreadMethod="pad" cx="0" cy="0" r="819.2" fx="0" fy="0"><stop offset=".365" stop-color="#fed9bd"/><stop offset=".773" stop-color="#fcc5a5"/></radialGradient><path d="M69 45.5l-.1-.05q-1.45-.3-2.1-1l-1.3-1.8q-1.6-1.2-2.5-2.2l-1.3-1.85v-.25L60.6 32l-.05-.3-.1-.5q1.85.8 3.35 2.1 2.25 2 4.65 5.9 1.7 2.8 1.25 4.85L69 45.5" fill="url(#j)"/><radialGradient id="k" gradientUnits="userSpaceOnUse" gradientTransform="matrix(.00867 .00339 -.00867 .02237 72.8 35.8)" spreadMethod="pad" cx="0" cy="0" r="819.2" fx="0" fy="0"><stop offset=".38" stop-color="#fed9bd"/><stop offset=".773" stop-color="#fcc5a5"/></radialGradient><path d="M77.35 40.45l-2.5 2.2-.25.35-1.05 1.45q-.65.65-2 1l-.65.1-.7.1-1.2-.15.7-1.45h.65l.7-.1q.3-2.85 1.45-5.5 1.35-3.15 3.6-5.15l.85-.65q1.15-.85 2.5-1.45l.45-.2-.4 2.6-.85 4.9v.15l-1.3 1.8" fill="url(#k)"/><path d="M61.95 19.5q3.65-3.85 8.45-3.7 5.55.05 8.75 4.7 1.1 1.6 1.25 3.25l.05 3.5-.25 1.9-.1.8-.6 3.65-.85 4.9-.15 1.05-.25.8q-.4 1-1.45 1.8l-1.75 1.6-1.2 1.25-1.15.65-.95.2q-1.55.35-3.15 0l-.95-.2L66.5 45l-1.2-1.25-1.75-1.6q-1.05-.8-1.45-1.8l-.25-.8-.15-1.05-1.1-6.5-.05-.3-.25-1.35-.15-1.2-.25-1.9q-.2-1.45 0-3.5.2-2.1 1.95-4.1l.1-.15z" fill="none" stroke-width=".05" stroke-linecap="round" stroke-linejoin="round" stroke-miterlimit="3" stroke="#b76340" stroke-opacity=".502"/></g></svg>