<svg xmlns="http://www.w3.org/2000/svg" width="23" height="31"><g transform="translate(-58.9 -15.8)"><radialGradient id="a" gradientUnits="userSpaceOnUse" gradientTransform="matrix(-.0064 0 0 .00816 76.45 31.2)" spreadMethod="pad" cx="0" cy="0" r="819.2" fx="6" fy="0"><stop offset="0" stop-color="#fb8f62"/><stop offset=".698" stop-color="#fec7a3"/><stop offset="1" stop-color="#fedec1"/></radialGradient><path d="M81.05 29.9l.45.95-.25 1.5v1.5L80.2 35.9l-.35 1.1-.05.05-.05.2-1.75.5-.75-.3.85-5.95.1-.3.3-1.7h.8l.75.1.7.15.3.15m-1.2.95l-.25.25q-1.2 1.45-1.2 2.5l.2.6.15.6-.25.7-.3.55.15.25h.2q1.8-1.85 1.05-1.75-.75.1-.55-.65l.25-.95.4-.85.25-.3.3-.15q.35 0 .3.45l-.1.8.15.05.2-.45v-.4l-.15-1.15-.15-.2-.65.1" fill="url(#a)"/><radialGradient id="b" gradientUnits="userSpaceOnUse" gradientTransform="matrix(-.00409 0 0 .00543 78.45 32.1)" spreadMethod="pad" cx="0" cy="0" r="819.2" fx="0" fy="0"><stop offset="0" stop-color="#ea8440"/><stop offset="1" stop-color="#fcc7a5"/></radialGradient><path d="M80.5 30.75l.15.2.15 1.15v.4l-.2.45-.15-.05.1-.8q.05-.45-.3-.45l-.3.15-.25.3-.4.85-.25.95q-.2.75.55.65.75-.1-1.05 1.75h-.2l-.15-.25.3-.55.25-.7-.15-.6-.2-.6q0-1.05 1.2-2.5l.25-.25.65-.1" fill="url(#b)"/><path d="M80.75 29.75h.2l.1.15.45.95-.25 1.5v1.5L80.2 35.9l-.35 1.1-.05.05-.05.2-1.75.5-.75-.3m3.5-7.7l-1.45-.25" fill="none" stroke-width=".05" stroke-linecap="round" stroke-linejoin="round" stroke-miterlimit="3" stroke="#b76340" stroke-opacity=".502"/><radialGradient id="c" gradientUnits="userSpaceOnUse" gradientTransform="matrix(.0064 0 0 .00816 63.95 31.2)" spreadMethod="pad" cx="0" cy="0" r="819.2" fx="6" fy="0"><stop offset="0" stop-color="#fb8f62"/><stop offset=".698" stop-color="#fec7a3"/><stop offset="1" stop-color="#fedec1"/></radialGradient><path d="M59.35 29.9l-.45.95.25 1.5v1.5l1.05 2.05.35 1.1.05.05.05.2 1.75.5.75-.3-.85-5.95-.1-.3-.3-1.7h-.8l-.75.1-.7.15-.3.15m1.2.95l.25.25q1.2 1.45 1.2 2.5l-.2.6-.15.6.25.7.3.55-.15.25h-.2q-1.8-1.85-1.05-1.75.75.1.55-.65l-.25-.95-.4-.85-.25-.3-.3-.15q-.35 0-.3.45l.1.8-.15.05-.2-.45v-.4q0-.75.15-1.15l.15-.2.65.1" fill="url(#c)"/><radialGradient id="d" gradientUnits="userSpaceOnUse" gradientTransform="matrix(.00409 0 0 .00543 61.95 32.1)" spreadMethod="pad" cx="0" cy="0" r="819.2" fx="0" fy="0"><stop offset="0" stop-color="#ea8440"/><stop offset="1" stop-color="#fcc7a5"/></radialGradient><path d="M59.9 30.75l-.15.2q-.15.4-.15 1.15v.4l.2.45.15-.05-.1-.8q-.05-.45.3-.45l.3.15.25.3.4.85.25.95q.2.75-.55.65-.75-.1 1.05 1.75h.2l.15-.25-.3-.55-.25-.7.15-.6.2-.6q0-1.05-1.2-2.5l-.25-.25-.65-.1" fill="url(#d)"/><path d="M59.65 29.75h-.2l-.1.15-.45.95.25 1.5v1.5l1.05 2.05.35 1.1.05.05.05.2 1.75.5.75-.3m-3.5-7.7l1.45-.25" fill="none" stroke-width=".05" stroke-linecap="round" stroke-linejoin="round" stroke-miterlimit="3" stroke="#b76340" stroke-opacity=".502"/><radialGradient id="e" gradientUnits="userSpaceOnUse" gradientTransform="matrix(.00604 0 0 .00941 70 26.3)" spreadMethod="pad" cx="0" cy="0" r="819.2" fx="0" fy="0"><stop offset=".11" stop-color="#ffe4cf"/><stop offset="1" stop-color="#fed9bd"/></radialGradient><path d="M75.2 17.15l-.3 3.1-.1 3.4q0 1.55.4 2.5l.2.4.35.6.05 3.3q0 1.6-3.2 6.5-1.55 1.9-2.4 4.3-1.15-3.15-3.4-5.5l-.5-.5-1.45-8.8.1-.3q.4-.95.4-2.5l-.1-3.4-.3-3.1q2.5-1.45 5.45-1.35l2.5.3 1.25.4 1.1.5-.05.15" fill="url(#e)"/><radialGradient id="f" gradientUnits="userSpaceOnUse" gradientTransform="matrix(.01181 .00082 -.00272 .03883 71.55 25.7)" spreadMethod="pad" cx="0" cy="0" r="819.2" fx="0" fy="0"><stop offset=".424" stop-color="#fed9bd"/><stop offset=".773" stop-color="#fcc5a5"/></radialGradient><path d="M69.7 46.2l.05-.6v-.15q.15-1.7.75-3.4l-.3-.8q.85-2.4 2.4-4.3 3.2-4.9 3.2-6.5l-.05-3.3-.35-.6-.2-.4q-.4-.95-.4-2.5l.1-3.4.3-3.1.05-.15q1.65.95 3.15 2.5l.1.15q1.35 1.55 1.8 3.2v.1h-.05q-.5 2.15-1.1 6.4l-.4 3.35-.05.15-.65 5.45q-.15 1.3-.85 2.3l-1.4 1.75-1.4 1.4-1.1 1.35-.45.55-.65.4-.95.15-1.1.05-.45-.05" fill="url(#f)"/><radialGradient id="g" gradientUnits="userSpaceOnUse" gradientTransform="matrix(.01273 -.001 .00275 .03471 69.35 27.45)" spreadMethod="pad" cx="0" cy="0" r="819.2" fx="9" fy="0"><stop offset=".424" stop-color="#fed9bd"/><stop offset=".773" stop-color="#fcc5a5"/></radialGradient><path d="M65.25 20.25l.1 3.4q0 1.55-.4 2.5l-.1.3 1.45 8.8.5.5q2.25 2.35 3.4 5.5l.3.8q-.6 1.7-.75 3.4v.15l-.05.6h-.55l-1.05-.15-.65-.4-.45-.55-1.1-1.35-1.4-1.4-1.4-1.75q-.7-1-.85-2.3l-.7-5.65-.4-3.3-1.1-6.4q.4-1.7 1.8-3.3l.1-.15q1.4-1.5 3-2.35l.3 3.1" fill="url(#g)"/><radialGradient id="h" gradientUnits="userSpaceOnUse" gradientTransform="matrix(.01587 0 0 .02835 67.95 33.15)" spreadMethod="pad" cx="0" cy="0" r="819.2" fx="0" fy="0"><stop offset="0" stop-color="#f5ae8e"/><stop offset="1" stop-color="#fdcbad"/></radialGradient><path d="M70.15 46.25H71.6l1.4.1-.95.25-.8.1H69.15l-.85-.1-.9-.25-.5-.45-.1-.2-1.25-1.25-2.3-2.3Q61.8 40.7 61.7 38.9l-.25-2.4-.15-1-.25-1.1-.35-2v-.05l-.4-2-.15-1.2-.25-1.9q-.2-1.45 0-3.5l.15-.8 1.1 6.4.4 3.3.7 5.65q.15 1.3.85 2.3l1.4 1.75 1.4 1.4L67 45.1l.45.55.65.4 1.05.15h.55l.45.05" fill="url(#h)"/><radialGradient id="i" gradientUnits="userSpaceOnUse" gradientTransform="matrix(.01617 0 0 .02704 72.3 31.5)" spreadMethod="pad" cx="0" cy="0" r="819.2" fx="0" fy="0"><stop offset="0" stop-color="#f5ae8e"/><stop offset="1" stop-color="#fdcbad"/></radialGradient><path d="M71.6 46.25H70.15l1.1-.05.95-.15.65-.4.45-.55 1.1-1.35 1.4-1.4 1.4-1.75q.7-1 .85-2.3l.65-5.45.05-.15.4-3.35q.6-4.25 1.1-6.4h.05l.15.8q.2 2.05 0 3.5l-.25 1.9-.15 1.2-.4 2.05v.2l-.35 1.8-.25 1.1-.15 1-.25 2.4q-.1 1.8-1.55 3.25l-2.3 2.3-1.2 1.3-.15.15-.45.45-1.4-.1" fill="url(#i)"/><path d="M70.4 15.8l2.5.3 1.25.4q2.3.95 4.25 3l.1.15q1.75 2 1.95 4.1.2 2.05 0 3.5l-.25 1.9-.15 1.2-.4 2.05-.35 2-.25 1.1-.15 1-.25 2.4q-.1 1.8-1.55 3.25l-2.3 2.3-1.35 1.45q-.45.6-1.4.7l-1.4.1h-.95l-1.4-.1q-.95-.1-1.4-.7l-1.35-1.45-2.3-2.3Q61.8 40.7 61.7 38.9l-.25-2.4-.15-1-.25-1.1-.35-2-.4-2.05-.15-1.2-.25-1.9q-.2-1.45 0-3.5.2-2.1 1.95-4.1l.1-.15q3.65-3.85 8.45-3.7z" fill="none" stroke-width=".05" stroke-linecap="round" stroke-linejoin="round" stroke-miterlimit="3" stroke="#b76340" stroke-opacity=".502"/></g></svg>