<svg width="23" height="31" xmlns="http://www.w3.org/2000/svg"><defs><radialGradient fy="0" fx="6" r="819.2" cy="0" cx="0" spreadMethod="pad" gradientTransform="matrix(.0062 0 0 .00792 64.275 30.75)" gradientUnits="userSpaceOnUse" id="a"><stop stop-color="#FB8F62" offset="0"/><stop stop-color="#FEC7A3" offset=".698"/><stop stop-color="#FEDEC1" offset="1"/></radialGradient><radialGradient fy="0" fx="0" r="819.2" cy="0" cx="0" spreadMethod="pad" gradientTransform="matrix(.00397 0 0 .00526 62.325 31.6)" gradientUnits="userSpaceOnUse" id="b"><stop stop-color="#EA8440" offset="0"/><stop stop-color="#FCC7A5" offset="1"/></radialGradient><radialGradient fy="0" fx="6" r="819.2" cy="0" cx="0" spreadMethod="pad" gradientTransform="matrix(-.0062 0 0 .00792 76.775 30.75)" gradientUnits="userSpaceOnUse" id="c"><stop stop-color="#FB8F62" offset="0"/><stop stop-color="#FEC7A3" offset=".698"/><stop stop-color="#FEDEC1" offset="1"/></radialGradient><radialGradient fy="0" fx="0" r="819.2" cy="0" cx="0" spreadMethod="pad" gradientTransform="matrix(-.00397 0 0 .00526 78.725 31.6)" gradientUnits="userSpaceOnUse" id="d"><stop stop-color="#EA8440" offset="0"/><stop stop-color="#FCC7A5" offset="1"/></radialGradient><radialGradient fy="0" fx="0" r="819.2" cy="0" cx="0" spreadMethod="pad" gradientTransform="matrix(.00519 0 0 .00993 70.175 26.75)" gradientUnits="userSpaceOnUse" id="e"><stop stop-color="#FFE4CF" offset=".11"/><stop stop-color="#FED9BD" offset="1"/></radialGradient><radialGradient fy="0" fx="0" r="819.2" cy="0" cx="0" spreadMethod="pad" gradientTransform="matrix(.0113 -.0015 .00491 .03717 69.075 28.85)" gradientUnits="userSpaceOnUse" id="f"><stop stop-color="#FED9BD" offset=".408"/><stop stop-color="#FCC5A5" offset=".773"/></radialGradient><radialGradient fy="0" fx="0" r="819.2" cy="0" cx="0" spreadMethod="pad" gradientTransform="matrix(.01929 0 0 .02391 69.275 30.7)" gradientUnits="userSpaceOnUse" id="g"><stop stop-color="#F5AE8E" offset="0"/><stop stop-color="#FDCBAD" offset="1"/></radialGradient><radialGradient fy="0" fx="0" r="819.2" cy="0" cx="0" spreadMethod="pad" gradientTransform="matrix(.0201 0 0 .0241 69.775 32.55)" gradientUnits="userSpaceOnUse" id="h"><stop stop-color="#F5AE8E" offset="0"/><stop stop-color="#FDCBAD" offset="1"/></radialGradient><radialGradient fy="0" fx="0" r="819.2" cy="0" cx="0" spreadMethod="pad" gradientTransform="matrix(.00983 .00047 -.00188 .0388 72.675 27.5)" gradientUnits="userSpaceOnUse" id="i"><stop stop-color="#FED9BD" offset=".424"/><stop stop-color="#FCC5A5" offset=".773"/></radialGradient></defs><path fill="none" d="M-1-1h582v402H-1z"/><g><path fill="url(#a)" d="M60.175 34.7l-.1-.25-.65-4.75.25-.5.75-.35.55.35h.85q.7 0 .85 1.85l.75 5.25-1.2.2-.3.05-.55-.05h-.05q-.6-.35-1.1-1.45l-.05-.35m.5-4.65l-.65.4v2.1q0 1.3.25 1.6l.05-1.6v-.25l.25-1.7h.4l.55 1.25-.45-.2q-.25-.1-.35.6-.15.65.4 2.1l.5.7q.35.35.4-1.25.05-1.6-.25-2.25l-.55-1-.25-.5h-.3" transform="translate(-59.05 -15.8)"/><path fill="url(#b)" d="M60.975 30.05l.25.5.55 1q.3.65.25 2.25-.05 1.6-.4 1.25l-.5-.7q-.55-1.45-.4-2.1.1-.7.35-.6l.45.2-.55-1.25h-.4l-.25 1.7v.25l-.05 1.6q-.25-.3-.25-1.6v-2.1l.65-.4h.3" transform="translate(-59.05 -15.8)"/><path fill="none" stroke-width=".05" stroke-linecap="round" stroke-linejoin="round" stroke-miterlimit="3" stroke="#B76340" stroke-opacity=".502" d="M3.175 20.7h-.9q-.6-.35-1.1-1.45l-.1-.25-.05-.35-.65-4.75.25-.5.75-.35.55.35h.35"/><path fill="url(#c)" d="M80.875 34.7l.1-.25.65-4.75-.25-.5-.75-.35-.55.35h-.85q-.7 0-.85 1.85l-.75 5.25 1.2.2.3.05.55-.05h.05q.6-.35 1.1-1.45l.05-.35m-.5-4.65l.65.4v2.1l-.25 1.6-.05-1.6v-.25l-.25-1.7h-.4q-.75 1.35-.55 1.25.2-.15.45-.2.25-.1.35.6.15.65-.4 2.1l-.5.7q-.35.35-.4-1.25-.05-1.6.25-2.25l.55-1 .25-.5h.3" transform="translate(-59.05 -15.8)"/><path fill="url(#d)" d="M80.075 30.05l-.25.5-.55 1q-.3.65-.25 2.25.05 1.6.4 1.25l.5-.7q.55-1.45.4-2.1-.1-.7-.35-.6-.25.05-.45.2-.2.1.55-1.25h.4l.25 1.7v.25l.05 1.6.25-1.6v-2.1l-.65-.4h-.3" transform="translate(-59.05 -15.8)"/><path fill="none" stroke-width=".05" stroke-linecap="round" stroke-linejoin="round" stroke-miterlimit="3" stroke="#B76340" stroke-opacity=".502" d="M19.775 20.7h.9q.6-.35 1.1-1.45l.1-.25.05-.35.65-4.75-.25-.5-.75-.35-.55.35h-.35"/><path fill="#FDD6B8" fill-opacity=".722" d="M15.325.7l.05-.05-.05.05"/><path fill="url(#e)" d="M76.175 19.9V21.85q-.15 1.35 0 2.75l-.85 9.5q-1.15 1.9-2.25 4.65l-.8 2.35-.2.55.1.6q0 1.6-.5 2.25l-.35.25-.05.1h-.15l-.6.15-1.15-.25q-.5-5.35-2.3-10.2l-.9-2q-.65-5.25-1.4-6.95l.1-.6q.2-1.75 0-3.5-.4-2.85 1.8-5 1.9-.75 4.1-.7 1.85 0 3.45.55l.2.1-.05.05q1.55 1.5 1.8 3.4" transform="translate(-59.05 -15.8)"/><path fill="url(#f)" d="M64.875 21.5q.2 1.75 0 3.5l-.1.6q.75 1.7 1.4 6.95l.9 2q1.8 4.85 2.3 10.2l1.15.25 1.15.25-.5.1-.6.1-1.15-.2h-.05l-.25-.05q-1.45-.4-2.7-1.35-3.1-2.45-3.5-4.4l-.6-4.55-1-14 .9-1.25.1-.15q2-2.1 4.35-3-2.2 2.15-1.8 5" transform="translate(-59.05 -15.8)"/><path fill="url(#g)" d="M73.375 45.2l-1.1.55-1.2.15H70.125l-.65-.05-.6-.1-1-.5-.5-.3-1.35-.85q-2.2-1.45-2.9-2.45-.75-1.05-1.05-2.65l-.75-4.85-.05-.3-.3-1.85-.05-.3-.25-1.35-.15-1.2-.25-1.9q-.2-1.45 0-3.5.15-1.45 1.05-2.85l1 14 .6 4.55q.4 1.95 3.5 4.4 1.25.95 2.7 1.35l.25.05h.05l1.15.2h1.45l1.35-.25" transform="translate(-59.05 -15.8)"/><path fill="url(#h)" d="M72.025 45.45h-1.45l.6-.1.5-.1 2.15-.85.8-.55q3.1-2.45 3.5-4.4l.6-4.55.4-5.6.6-8.4h.05q.85 1.4 1 2.85l.05 3.5-.05.5-.05.4-.15 1-.2 1.2-.25 1.35v.2l-.25 1.95-.05.25-.75 4.9q-.3 1.6-1.05 2.65-.7 1-2.9 2.45l-1.4.9-.05.05-.3.15-1.35.25" transform="translate(-59.05 -15.8)"/><path fill="url(#i)" d="M79.725 20.9l-.6 8.4-.4 5.6-.6 4.55q-.4 1.95-3.5 4.4l-.8.55-2.15.85-1.15-.25.6-.15h.15l.05-.1.35-.25q.5-.65.5-2.25l-.1-.6.2-.55.8-2.35q1.1-2.75 2.25-4.65l.85-9.5q-.15-1.4 0-2.75V19.9q-.25-1.9-1.8-3.4l.05-.05q3.05 1.05 5.1 4.05l.2.35.05.05h-.05" transform="translate(-59.05 -15.8)"/><path fill="none" stroke-width=".05" stroke-linecap="round" stroke-linejoin="round" stroke-miterlimit="3" stroke="#B76340" stroke-opacity=".502" d="M11.475 30.1h-.4l-1.25-.15-2.85-1.65q-2.2-1.45-2.9-2.45-.75-1.05-1.05-2.65l-.75-4.85-.05-.3-.3-1.85-.05-.3-.25-1.35-.15-1.2-.25-1.9q-.2-1.45 0-3.5.2-2.1 1.95-4.1l.1-.15q3.65-3.85 8.45-3.7 5.55.05 8.75 4.7 1.1 1.6 1.25 3.25l.05 3.5-.25 1.9-.2 1.2-.25 1.35v.2l-.25 1.95"/><path fill="none" stroke-width=".05" stroke-linecap="round" stroke-linejoin="round" stroke-miterlimit="3" stroke="#B76340" stroke-opacity=".502" d="M20.825 18.05l-.05.25-.75 4.9q-.3 1.6-1.05 2.65-.7 1-2.9 2.45l-2.85 1.65-1.25.15h-.5"/></g></svg>