<svg xmlns="http://www.w3.org/2000/svg" width="23" height="31"><g transform="translate(-58.7 -15.8)"><radialGradient id="a" gradientUnits="userSpaceOnUse" gradientTransform="matrix(.00426 0 0 .00586 78.3 31.85)" spreadMethod="pad" cx="0" cy="0" r="819.2" fx="0" fy="0"><stop offset="0" stop-color="#ea8440"/><stop offset="1" stop-color="#fcc7a5"/></radialGradient><path d="M80.9 32.55l-.1-.05.1-.8q0-.45-.3-.45l-.25.15-.25.3-.35.85-.2.95q-.2.75.5.65.65-.1-.95 1.75h-.2l-.1-.25.25-.55.2-.7-.1-.6-.2-.6q0-1.05 1.1-2.5 1.05-1.4 1.05 1v.4q0 .45-.2.45" fill="url(#a)"/><radialGradient id="b" gradientUnits="userSpaceOnUse" gradientTransform="matrix(.00606 0 0 .00848 77.15 30.5)" spreadMethod="pad" cx="0" cy="0" r="819.2" fx="0" fy="0"><stop offset="0" stop-color="#fb8f62"/><stop offset=".698" stop-color="#fec7a3"/><stop offset="1" stop-color="#fedec1"/></radialGradient><path d="M81.1 32.1v-.4q0-2.4-1.05-1-1.1 1.45-1.1 2.5l.2.6.1.6-.2.7-.25.55.1.25h.2q1.6-1.85.95-1.75-.7.1-.5-.65l.2-.95.35-.85.25-.3.25-.15q.3 0 .3.45l-.1.8.1.05q.2 0 .2-.45m-2.4-1q-.35-.25.1-1 .4-.75 1-.75H81l.6 1.4-.3 2.8-.1.35-.25.5-1.15 2.4-.6.15-1.15-.05-.1-.35.75-5.45" fill="url(#b)"/><path d="M78.7 31.1q-.35-.25.1-1 .4-.75 1-.75H81l.6 1.4-.3 2.8-.1.35-.25.5-1.15 2.4-.6.15-1.15-.05-.1-.35" fill="none" stroke-width=".05" stroke-linecap="round" stroke-linejoin="round" stroke-miterlimit="3" stroke="#b76340" stroke-opacity=".502"/><radialGradient id="c" gradientUnits="userSpaceOnUse" gradientTransform="matrix(-.00426 0 0 .00586 62 31.85)" spreadMethod="pad" cx="0" cy="0" r="819.2" fx="0" fy="0"><stop offset="0" stop-color="#ea8440"/><stop offset="1" stop-color="#fcc7a5"/></radialGradient><path d="M59.4 32.55l.1-.05-.1-.8q0-.45.3-.45l.25.15.25.3.35.85.2.95q.2.75-.5.65-.65-.1.95 1.75h.2l.1-.25-.25-.55-.2-.7.1-.6.2-.6q0-1.05-1.1-2.5-1.05-1.4-1.05 1v.4q0 .45.2.45" fill="url(#c)"/><radialGradient id="d" gradientUnits="userSpaceOnUse" gradientTransform="matrix(-.00606 0 0 .00848 63.15 30.5)" spreadMethod="pad" cx="0" cy="0" r="819.2" fx="0" fy="0"><stop offset="0" stop-color="#fb8f62"/><stop offset=".698" stop-color="#fec7a3"/><stop offset="1" stop-color="#fedec1"/></radialGradient><path d="M59.2 32.1v-.4q0-2.4 1.05-1 1.1 1.45 1.1 2.5l-.2.6-.1.6.2.7.25.55-.1.25h-.2q-1.6-1.85-.95-1.75.7.1.5-.65l-.2-.95-.35-.85-.25-.3-.25-.15q-.3 0-.3.45l.1.8-.1.05q-.2 0-.2-.45m2.4-1q.35-.25-.1-1-.4-.75-1-.75H59.3l-.6 1.4.3 2.8.1.35.25.5 1.15 2.4.6.15 1.15-.05.1-.35-.75-5.45" fill="url(#d)"/><path d="M61.6 31.1q.35-.25-.1-1-.4-.75-1-.75H59.3l-.6 1.4.3 2.8.1.35.25.5 1.15 2.4.6.15 1.15-.05.1-.35" fill="none" stroke-width=".05" stroke-linecap="round" stroke-linejoin="round" stroke-miterlimit="3" stroke="#b76340" stroke-opacity=".502"/><radialGradient id="e" gradientUnits="userSpaceOnUse" gradientTransform="matrix(.00589 0 0 .0088 70.15 26.3)" spreadMethod="pad" cx="0" cy="0" r="819.2" fx="0" fy="0"><stop offset=".11" stop-color="#ffe4cf"/><stop offset="1" stop-color="#fed9bd"/></radialGradient><path d="M70.4 15.8q2.35 0 4.3.9v.1l-.05 1.35.2 4.25.25 2.9.05 2.15.1 1.45-.05 2.5-.8 5.55L73 42.9q-.75 2.5-2.8 2.6-2.1-.05-2.85-2.6-.75-2.55-1-5.25-.3-2.7-1.15-5.5-.85-2.8-1.3-3.55-.5-.7.05-1.55l.95-1.85.55-2.8.2-4.25-.05-1.35q2.25-1.1 4.8-1" fill="url(#e)"/><radialGradient id="f" gradientUnits="userSpaceOnUse" gradientTransform="matrix(.00961 -.00047 .00163 .03406 67.5 29.65)" spreadMethod="pad" cx="0" cy="0" r="819.2" fx="0" fy="0"><stop offset=".408" stop-color="#fed9bd"/><stop offset=".773" stop-color="#fcc5a5"/></radialGradient><path d="M70.9 45.45l.7.4-1.45.25-1.4-.3q-1.15-.4-2.15-1.35-2.35-2.2-3.45-4.45-1.8-3.7-3.3-13.55l.05-2.7q.2-2.1 1.95-4.1l.1-.15q1.7-1.8 3.65-2.7l.05 1.35-.2 4.25-.55 2.8-.95 1.85q-.55.85-.05 1.55.45.75 1.3 3.55.85 2.8 1.15 5.5.25 2.7 1 5.25t2.85 2.6l.7-.05" fill="url(#f)"/><radialGradient id="g" gradientUnits="userSpaceOnUse" gradientTransform="matrix(.0096 .0006 -.00201 .0329 72.9 29.35)" spreadMethod="pad" cx="0" cy="0" r="819.2" fx="0" fy="0"><stop offset=".424" stop-color="#fed9bd"/><stop offset=".773" stop-color="#fcc5a5"/></radialGradient><path d="M77.25 40q-1.1 2.25-3.45 4.45-1.05 1-2.2 1.4l-.7-.4-.7.05q2.05-.1 2.8-2.6l1.4-5.95.8-5.55.05-2.5-.1-1.45-.05-2.15-.25-2.9-.2-4.25.05-1.35v-.1q2.6 1.15 4.45 3.8 1.1 1.6 1.25 3.25l.1 3.15-.05.35Q79 36.45 77.25 40" fill="url(#g)"/><radialGradient id="h" gradientUnits="userSpaceOnUse" gradientTransform="matrix(.0152 0 0 .0152 71.55 36.05)" spreadMethod="pad" cx="0" cy="0" r="819.2" fx="0" fy="0"><stop offset="0" stop-color="#f5ae8e"/><stop offset="1" stop-color="#fdcbad"/></radialGradient><path d="M71.75 45.95l-1.6.15 1.45-.25q1.15-.4 2.2-1.4 2.35-2.2 3.45-4.45 1.75-3.55 3.2-12.75l-.25 1.9-.2 1.2-.1.7-.8 4.85-.15 1.05-.45 2.1-.75 1.85-.8 1.2-1 1.2-.7.8-.05.05q-1.5 1.6-2.65 2.1l-.8-.3" fill="url(#h)"/><radialGradient id="i" gradientUnits="userSpaceOnUse" gradientTransform="translate(68.3 33.2) scale(.01782)" spreadMethod="pad" cx="0" cy="0" r="819.2" fx="0" fy="0"><stop offset="0" stop-color="#f5ae8e"/><stop offset="1" stop-color="#fdcbad"/></radialGradient><path d="M72.55 46.25l-.1.05-.6.15-1.5.1h-.05l-1.55-.1-.75-.25q-1.1-.5-2.65-2.1-2.1-2.15-2.65-3.3l-.95-2.4-.95-4.95v-.15l-.2-1.3-.05-.3-.1-.6-.15-.75-.15-1.2-.25-1.9-.05-.8q1.5 9.85 3.3 13.55 1.1 2.25 3.45 4.45 1 .95 2.15 1.35l1.4.3 1.6-.15.8.3" fill="url(#i)"/><path d="M70.3 46.55l-1.55-.1q-1.35-.2-3.4-2.35-2.1-2.15-2.65-3.3l-.95-2.4-.95-4.95v-.15l-.2-1.3-.05-.3-.1-.6-.15-.75-.15-1.2-.25-1.9q-.2-1.45 0-3.5.2-2.1 1.95-4.1l.1-.15q3.65-3.85 8.45-3.7 5.55.05 8.75 4.7 1.1 1.6 1.25 3.25l.05 3.5-.25 1.9-.2 1.2-.1.7M79.9 31.05l-.8 4.85-.15 1.05-.45 2.1-.75 1.85-.8 1.2-1 1.2-.7.8-.05.05q-2 2.1-3.35 2.3l-1.5.1" fill="none" stroke-width=".05" stroke-linecap="round" stroke-linejoin="round" stroke-miterlimit="3" stroke="#b76340" stroke-opacity=".502"/></g></svg>