<svg xmlns="http://www.w3.org/2000/svg" width="23" height="31"><g transform="translate(-59.05 -15.8)"><radialGradient id="a" gradientUnits="userSpaceOnUse" gradientTransform="matrix(.0062 0 0 .00792 63.9 30.75)" spreadMethod="pad" cx="0" cy="0" r="819.2" fx="6" fy="0"><stop offset="0" stop-color="#fb8f62"/><stop offset=".698" stop-color="#fec7a3"/><stop offset="1" stop-color="#fedec1"/></radialGradient><path d="M59.8 34.7l-.1-.25-.65-4.75.25-.5.75-.35.55.35h.85q.7 0 .85 1.85l.75 5.25-1.2.2-.3.05-.55-.05h-.05q-.6-.35-1.1-1.45l-.05-.35m.5-4.65l-.65.4v2.1q0 1.3.25 1.6l.05-1.6v-.25l.25-1.7h.4l.55 1.25-.45-.2q-.25-.1-.35.6-.15.65.4 2.1l.5.7q.35.35.4-1.25.05-1.6-.25-2.25l-.55-1-.25-.5h-.3" fill="url(#a)"/><radialGradient id="b" gradientUnits="userSpaceOnUse" gradientTransform="matrix(.00397 0 0 .00526 61.95 31.6)" spreadMethod="pad" cx="0" cy="0" r="819.2" fx="0" fy="0"><stop offset="0" stop-color="#ea8440"/><stop offset="1" stop-color="#fcc7a5"/></radialGradient><path d="M60.6 30.05l.25.5.55 1q.3.65.25 2.25-.05 1.6-.4 1.25l-.5-.7q-.55-1.45-.4-2.1.1-.7.35-.6l.45.2-.55-1.25h-.4l-.25 1.7v.25l-.05 1.6q-.25-.3-.25-1.6v-2.1l.65-.4h.3" fill="url(#b)"/><path d="M61.85 36.5h-.9q-.6-.35-1.1-1.45l-.1-.25-.05-.35-.65-4.75.25-.5.75-.35.55.35h.35" fill="none" stroke-width=".05" stroke-linecap="round" stroke-linejoin="round" stroke-miterlimit="3" stroke="#b76340" stroke-opacity=".502"/><radialGradient id="c" gradientUnits="userSpaceOnUse" gradientTransform="matrix(-.0062 0 0 .00792 76.4 30.75)" spreadMethod="pad" cx="0" cy="0" r="819.2" fx="6" fy="0"><stop offset="0" stop-color="#fb8f62"/><stop offset=".698" stop-color="#fec7a3"/><stop offset="1" stop-color="#fedec1"/></radialGradient><path d="M80.5 34.7l.1-.25.65-4.75-.25-.5-.75-.35-.55.35h-.85q-.7 0-.85 1.85l-.75 5.25 1.2.2.3.05.55-.05h.05q.6-.35 1.1-1.45l.05-.35m-.5-4.65l.65.4v2.1l-.25 1.6-.05-1.6v-.25l-.25-1.7h-.4q-.75 1.35-.55 1.25.2-.15.45-.2.25-.1.35.6.15.65-.4 2.1l-.5.7q-.35.35-.4-1.25-.05-1.6.25-2.25l.55-1 .25-.5h.3" fill="url(#c)"/><radialGradient id="d" gradientUnits="userSpaceOnUse" gradientTransform="matrix(-.00397 0 0 .00526 78.35 31.6)" spreadMethod="pad" cx="0" cy="0" r="819.2" fx="0" fy="0"><stop offset="0" stop-color="#ea8440"/><stop offset="1" stop-color="#fcc7a5"/></radialGradient><path d="M79.7 30.05l-.25.5-.55 1q-.3.65-.25 2.25.05 1.6.4 1.25l.5-.7q.55-1.45.4-2.1-.1-.7-.35-.6-.25.05-.45.2-.2.1.55-1.25h.4l.25 1.7v.25l.05 1.6.25-1.6v-2.1l-.65-.4h-.3" fill="url(#d)"/><path d="M78.45 36.5h.9q.6-.35 1.1-1.45l.1-.25.05-.35.65-4.75-.25-.5-.75-.35-.55.35h-.35" fill="none" stroke-width=".05" stroke-linecap="round" stroke-linejoin="round" stroke-miterlimit="3" stroke="#b76340" stroke-opacity=".502"/><path d="M74 16.5l.05-.05-.05.05" fill="#fdd6b8" fill-opacity=".722"/><radialGradient id="e" gradientUnits="userSpaceOnUse" gradientTransform="matrix(.00519 0 0 .00993 69.8 26.75)" spreadMethod="pad" cx="0" cy="0" r="819.2" fx="0" fy="0"><stop offset=".11" stop-color="#ffe4cf"/><stop offset="1" stop-color="#fed9bd"/></radialGradient><path d="M75.8 19.9V21.85q-.15 1.35 0 2.75l-.85 9.5Q73.8 36 72.7 38.75l-.8 2.35-.2.55.1.6q0 1.6-.5 2.25l-.35.25-.05.1h-.15l-.6.15-1.15-.25q-.5-5.35-2.3-10.2l-.9-2q-.65-5.25-1.4-6.95l.1-.6q.2-1.75 0-3.5-.4-2.85 1.8-5 1.9-.75 4.1-.7 1.85 0 3.45.55l.2.1-.05.05q1.55 1.5 1.8 3.4" fill="url(#e)"/><radialGradient id="f" gradientUnits="userSpaceOnUse" gradientTransform="matrix(.0113 -.0015 .00491 .03717 68.7 28.85)" spreadMethod="pad" cx="0" cy="0" r="819.2" fx="0" fy="0"><stop offset=".408" stop-color="#fed9bd"/><stop offset=".773" stop-color="#fcc5a5"/></radialGradient><path d="M64.5 21.5q.2 1.75 0 3.5l-.1.6q.75 1.7 1.4 6.95l.9 2q1.8 4.85 2.3 10.2l1.15.25 1.15.25-.5.1-.6.1-1.15-.2H69l-.25-.05q-1.45-.4-2.7-1.35-3.1-2.45-3.5-4.4l-.6-4.55-1-14 .9-1.25.1-.15q2-2.1 4.35-3-2.2 2.15-1.8 5" fill="url(#f)"/><radialGradient id="g" gradientUnits="userSpaceOnUse" gradientTransform="matrix(.01929 0 0 .02391 68.9 30.7)" spreadMethod="pad" cx="0" cy="0" r="819.2" fx="0" fy="0"><stop offset="0" stop-color="#f5ae8e"/><stop offset="1" stop-color="#fdcbad"/></radialGradient><path d="M73 45.2l-1.1.55-1.2.15H69.75l-.65-.05-.6-.1-1-.5-.5-.3-1.35-.85q-2.2-1.45-2.9-2.45Q62 40.6 61.7 39l-.75-4.85-.05-.3-.3-1.85-.05-.3-.25-1.35-.15-1.2-.25-1.9q-.2-1.45 0-3.5.15-1.45 1.05-2.85l1 14 .6 4.55q.4 1.95 3.5 4.4 1.25.95 2.7 1.35l.25.05h.05l1.15.2h1.45L73 45.2" fill="url(#g)"/><radialGradient id="h" gradientUnits="userSpaceOnUse" gradientTransform="matrix(.0201 0 0 .0241 69.4 32.55)" spreadMethod="pad" cx="0" cy="0" r="819.2" fx="0" fy="0"><stop offset="0" stop-color="#f5ae8e"/><stop offset="1" stop-color="#fdcbad"/></radialGradient><path d="M71.65 45.45H70.2l.6-.1.5-.1 2.15-.85.8-.55q3.1-2.45 3.5-4.4l.6-4.55.4-5.6.6-8.4h.05q.85 1.4 1 2.85l.05 3.5-.05.5-.05.4-.15 1-.2 1.2-.25 1.35v.2l-.25 1.95-.05.25-.75 4.9q-.3 1.6-1.05 2.65-.7 1-2.9 2.45l-1.4.9-.05.05-.3.15-1.35.25" fill="url(#h)"/><radialGradient id="i" gradientUnits="userSpaceOnUse" gradientTransform="matrix(.00983 .00047 -.00188 .0388 72.3 27.5)" spreadMethod="pad" cx="0" cy="0" r="819.2" fx="0" fy="0"><stop offset=".424" stop-color="#fed9bd"/><stop offset=".773" stop-color="#fcc5a5"/></radialGradient><path d="M79.35 20.9l-.6 8.4-.4 5.6-.6 4.55q-.4 1.95-3.5 4.4l-.8.55-2.15.85-1.15-.25.6-.15h.15l.05-.1.35-.25q.5-.65.5-2.25l-.1-.6.2-.55.8-2.35q1.1-2.75 2.25-4.65l.85-9.5q-.15-1.4 0-2.75V19.9q-.25-1.9-1.8-3.4l.05-.05q3.05 1.05 5.1 4.05l.2.35.05.05h-.05" fill="url(#i)"/><path d="M70.15 45.9h-.4l-1.25-.15-2.85-1.65q-2.2-1.45-2.9-2.45Q62 40.6 61.7 39l-.75-4.85-.05-.3-.3-1.85-.05-.3-.25-1.35-.15-1.2-.25-1.9q-.2-1.45 0-3.5.2-2.1 1.95-4.1l.1-.15q3.65-3.85 8.45-3.7 5.55.05 8.75 4.7 1.1 1.6 1.25 3.25l.05 3.5-.25 1.9-.2 1.2-.25 1.35v.2l-.25 1.95" fill="none" stroke-width=".05" stroke-linecap="round" stroke-linejoin="round" stroke-miterlimit="3" stroke="#b76340" stroke-opacity=".502"/><path d="M79.5 33.85l-.05.25-.75 4.9q-.3 1.6-1.05 2.65-.7 1-2.9 2.45l-2.85 1.65-1.25.15h-.5" fill="none" stroke-width=".05" stroke-linecap="round" stroke-linejoin="round" stroke-miterlimit="3" stroke="#b76340" stroke-opacity=".502"/></g></svg>