<svg xmlns="http://www.w3.org/2000/svg" width="23" height="31"><g transform="translate(-58.65 -15.8)"><radialGradient id="a" gradientUnits="userSpaceOnUse" gradientTransform="matrix(-.0064 0 0 .00816 76.8 30.25)" spreadMethod="pad" cx="0" cy="0" r="819.2" fx="6" fy="0"><stop offset="0" stop-color="#fb8f62"/><stop offset=".698" stop-color="#fec7a3"/><stop offset="1" stop-color="#fedec1"/></radialGradient><path d="M81.15 31.15l-.1-.9q-.15-1.2-1.1-.1-1.2 1.45-1.2 2.5l.2.6.15.6-.25.7-.2.3-.1.25.15.25h.2l.45-.5q1.25-1.35.6-1.25-.75.1-.55-.65l.25-.95.4-.85.2-.25.05-.05q.15-.15.3-.15.35 0 .3.45l-.1.8.15.05.2-.45v-.4m-2.7-.6q.1-1.6 1.1-1.95l1.65.1.25.5.2 1.85-.9 3.35-.35.55-.45.75-.65.6-.9-.1-.75-.2.8-5.45" fill="url(#a)"/><radialGradient id="b" gradientUnits="userSpaceOnUse" gradientTransform="matrix(-.00409 0 0 .00543 78.8 31.15)" spreadMethod="pad" cx="0" cy="0" r="819.2" fx="0" fy="0"><stop offset="0" stop-color="#ea8440"/><stop offset="1" stop-color="#fcc7a5"/></radialGradient><path d="M81.15 31.55l-.2.45-.15-.05.1-.8q.05-.45-.3-.45-.15 0-.3.15l-.05.05-.2.25-.4.85-.25.95q-.2.75.55.65.65-.1-.6 1.25l-.45.5h-.2l-.15-.25.1-.25.2-.3.25-.7-.15-.6-.2-.6q0-1.05 1.2-2.5.95-1.1 1.1.1l.1.9v.4" fill="url(#b)"/><path d="M77.65 36l.75.2.9.1.65-.6.45-.75.35-.55.9-3.35-.2-1.85-.25-.5-1.65-.1q-1 .35-1.1 1.95" fill="none" stroke-width=".05" stroke-linecap="round" stroke-linejoin="round" stroke-miterlimit="3" stroke="#b76340" stroke-opacity=".502"/><radialGradient id="c" gradientUnits="userSpaceOnUse" gradientTransform="matrix(.0064 0 0 .00816 63.5 30.25)" spreadMethod="pad" cx="0" cy="0" r="819.2" fx="6" fy="0"><stop offset="0" stop-color="#fb8f62"/><stop offset=".698" stop-color="#fec7a3"/><stop offset="1" stop-color="#fedec1"/></radialGradient><path d="M59.15 31.15l.1-.9q.15-1.2 1.1-.1 1.2 1.45 1.2 2.5l-.2.6-.15.6.25.7.2.3.1.25-.15.25h-.2l-.45-.5q-1.25-1.35-.6-1.25.75.1.55-.65l-.25-.95-.4-.85-.2-.25-.05-.05q-.15-.15-.3-.15-.35 0-.3.45l.1.8-.15.05-.2-.45v-.4m2.7-.6q-.1-1.6-1.1-1.95l-1.65.1q-.2.2-.25.5l-.2 1.85.9 3.35.35.55.45.75q.35.65.65.6l.9-.1.75-.2-.8-5.45" fill="url(#c)"/><radialGradient id="d" gradientUnits="userSpaceOnUse" gradientTransform="matrix(.00409 0 0 .00543 61.5 31.15)" spreadMethod="pad" cx="0" cy="0" r="819.2" fx="0" fy="0"><stop offset="0" stop-color="#ea8440"/><stop offset="1" stop-color="#fcc7a5"/></radialGradient><path d="M59.15 31.55l.2.45.15-.05-.1-.8q-.05-.45.3-.45.15 0 .3.15l.05.05.2.25.4.85.25.95q.2.75-.55.65-.65-.1.6 1.25l.45.5h.2l.15-.25-.1-.25-.2-.3-.25-.7.15-.6.2-.6q0-1.05-1.2-2.5-.95-1.1-1.1.1l-.1.9v.4" fill="url(#d)"/><path d="M62.65 36l-.75.2-.9.1q-.3.05-.65-.6l-.45-.75-.35-.55-.9-3.35.2-1.85q.05-.3.25-.5l1.65-.1q1 .35 1.1 1.95" fill="none" stroke-width=".05" stroke-linecap="round" stroke-linejoin="round" stroke-miterlimit="3" stroke="#b76340" stroke-opacity=".502"/><radialGradient id="e" gradientUnits="userSpaceOnUse" gradientTransform="matrix(.00528 0 0 .00768 70.05 26.5)" spreadMethod="pad" cx="0" cy="0" r="819.2" fx="210521" fy="0"><stop offset=".11" stop-color="#ffe4cf"/><stop offset="1" stop-color="#fed9bd"/></radialGradient><path d="M70 44.3l-.7.15.05-1.25q0-4.2-1.2-6.2-1.15-1.95-3.9-3.75 3.45 1.7 2.2-2.5l-1.3-4.85.05-.05q.55-.75.65-2.15l.15-4.85V16.6q2.05-.85 4.4-.8 2.1 0 3.9.7v2.35l.15 4.85q.1 1.4.65 2.15l1.1 1.35q-.65 2.3-.65 5.9v.65l-.65.95q-2.6 4.5-3.8 7.45l-.7 2.15H70" fill="url(#e)"/><radialGradient id="f" gradientUnits="userSpaceOnUse" gradientTransform="matrix(.00993 -.00064 .00227 .03444 68.2 27.8)" spreadMethod="pad" cx="0" cy="0" r="819.2" fx="0" fy="0"><stop offset=".424" stop-color="#fed9bd"/><stop offset=".773" stop-color="#fcc5a5"/></radialGradient><path d="M71.7 45.6l-.4-.15h-.05l-.3-.6q-.15-.15-.65-.15l-.85.15q-.3.15-.35.6h.05l-.05.05-1.3.15h-.1l-.7-.05-.75-.5-1.5-2.2q-1.85-2.25-2.15-3.55l-.7-4.55-.5-3.15-.5-2.95q-.5-2.9-.75-6.1.45-1.5 1.7-2.95l.1-.15q1.85-1.95 4.05-2.9v2.25l-.15 4.85q-.1 1.4-.65 2.15l-.05.05 1.3 4.85q1.25 4.2-2.2 2.5 2.75 1.8 3.9 3.75 1.2 2 1.2 6.2l-.05 1.25.7-.15h.4l1.35.4.15.1.65.85-.85-.05" fill="url(#f)"/><radialGradient id="g" gradientUnits="userSpaceOnUse" gradientTransform="matrix(.01018 .00095 -.0033 .03561 71.95 28.45)" spreadMethod="pad" cx="0" cy="0" r="819.2" fx="0" fy="0"><stop offset=".424" stop-color="#fed9bd"/><stop offset=".773" stop-color="#fcc5a5"/></radialGradient><path d="M72.75 45.65h-.2l-.65-.85-.15-.1-1.35-.4.7-2.15q1.2-2.95 3.8-7.45l.65-.95v-.65q0-3.6.65-5.9l-1.1-1.35q-.55-.75-.65-2.15l-.15-4.85V16.5q2.85 1.15 4.85 4 .8 1.15 1.1 2.3l-.75 5.9-.4 2.35-.6 3.75-.7 4.55q-.3 1.3-2.15 3.55l-1.5 2.2-.75.5-.65.05" fill="url(#g)"/><radialGradient id="h" gradientUnits="userSpaceOnUse" gradientTransform="matrix(.01787 0 0 .0266 83.95 38.15)" spreadMethod="pad" cx="0" cy="0" r="819.2" fx="67" fy="0"><stop offset="0" stop-color="#f5ae8e"/><stop offset="1" stop-color="#fdcbad"/></radialGradient><path d="M75.65 42.9q1.85-2.25 2.15-3.55l.7-4.55.6-3.75.4-2.35.75-5.9.15.95.05 3.5-.25 1.9-.2 1.2-.05.35-.2 1v.2l-.4 2.75-.6 3.5q-.45 2.6-2.05 4.15l-.35.3-1.85 2.15-.15.2-.2.15 1.5-2.2" fill="url(#h)"/><radialGradient id="i" gradientUnits="userSpaceOnUse" gradientTransform="matrix(.01086 0 0 .02689 58.25 36)" spreadMethod="pad" cx="0" cy="0" r="819.2" fx="210428" fy="0"><stop offset="0" stop-color="#f5ae8e"/><stop offset="1" stop-color="#fdcbad"/></radialGradient><path d="M66.25 45.1l-.15-.15-.2-.2-1.85-2.15-.35-.3q-1.6-1.55-2.05-4.15l-.65-3.5-.05-.5-.05-.3-.3-1.85-.05-.3-.1-.5-.15-.85-.15-1.2-.25-1.9q-.2-1.45 0-3.5.05-.6.25-1.15.25 3.2.75 6.1l.5 2.95.5 3.15.7 4.55q.3 1.3 2.15 3.55l1.5 2.2" fill="url(#i)"/><radialGradient id="j" gradientUnits="userSpaceOnUse" gradientTransform="matrix(.0058 0 0 .0022 70.3 46.1)" spreadMethod="pad" cx="0" cy="0" r="819.2" fx="22" fy="0"><stop offset=".369" stop-color="#f5a47f"/><stop offset="1" stop-color="#fdcbad"/></radialGradient><path d="M72.55 45.65h.2l.65-.05-.75.2-.9.15-1.55-.15-.15.05-.9.15-.5-.05-1-.15-.65-.2.7.05h.1l1.3-.15.05-.05h-.05q.05-.45.35-.6l.85-.15q.5 0 .65.15l.3.6h.05l.4.15.85.05" fill="url(#j)"/><path d="M80.4 23.75l.05 3.5-.25 1.9-.2 1.2-.25 1.35v.2l-.4 2.75-.6 3.5q-.45 2.6-2.05 4.15l-.35.3-1.85 2.15q-.85 1.05-2.75 1.2l-1.55-.15-1.55.15q-1.9-.15-2.75-1.2l-1.85-2.15-.35-.3q-1.6-1.55-2.05-4.15l-.65-3.5-.05-.5-.05-.3-.3-1.85-.05-.3-.25-1.35-.15-1.2-.25-1.9q-.2-1.45 0-3.5.2-2.1 1.95-4.1l.1-.15q3.65-3.85 8.45-3.7 5.55.05 8.75 4.7 1.1 1.6 1.25 3.25z" fill="none" stroke-width=".05" stroke-linecap="round" stroke-linejoin="round" stroke-miterlimit="3" stroke="#b76340" stroke-opacity=".502"/></g></svg>