<?xml version="1.0" encoding="utf-8"?>
<svg version="1.1" id="Layer_1"
xmlns="http://www.w3.org/2000/svg"
xmlns:xlink="http://www.w3.org/1999/xlink"
xmlns:author="http://www.sothink.com"
width="7px" height="6px"
xml:space="preserve">
<g id="1" transform="matrix(1, 0, 0, 1, 3.2, 2.55)">
<radialGradient
id="RadialGradID_13" gradientUnits="userSpaceOnUse" gradientTransform="matrix(0.00154114, 0, 0, 0.00193787, -0.2, -2.9)" spreadMethod ="pad" cx="0" cy="0" r="819.2" fx="0" fy="0" >
<stop  offset="0"  style="stop-color:#E66A4D;stop-opacity:0.592157" />
<stop  offset="0.917647"  style="stop-color:#FFECD9;stop-opacity:0.262745" />
</radialGradient>
<path style="fill:url(#RadialGradID_13) " d="M0.1,-2.4L0.65 -2.55L0.8 -1.5L0.8 -1.4L0.3 -1.15L-0.2 -1.2L-0.5 -1.35L-0.35 -2.55L0.1 -2.4" />
<radialGradient
id="RadialGradID_14" gradientUnits="userSpaceOnUse" gradientTransform="matrix(0.00100708, 0, 0, 0.00100708, -2.55, -0.05)" spreadMethod ="pad" cx="0" cy="0" r="819.2" fx="0" fy="0" >
<stop  offset="0"  style="stop-color:#E66A4D;stop-opacity:0.592157" />
<stop  offset="0.917647"  style="stop-color:#FFECD9;stop-opacity:0.262745" />
</radialGradient>
<path style="fill:url(#RadialGradID_14) " d="M-3,0.4L-3.2 -0.05L-3 -0.5L-2.55 -0.7L-2.05 -0.5L-1.9 -0.05L-2.05 0.4L-2.55 0.6L-3 0.4" />
<radialGradient
id="RadialGradID_15" gradientUnits="userSpaceOnUse" gradientTransform="matrix(0.00257874, 0, 0, 0.00125122, 0, 1.6)" spreadMethod ="pad" cx="0" cy="0" r="819.2" fx="0" fy="0" >
<stop  offset="0.0666667"  style="stop-color:#E37653;stop-opacity:0.662745" />
<stop  offset="1"  style="stop-color:#FFEFEA;stop-opacity:0" />
</radialGradient>
<path style="fill:url(#RadialGradID_15) " d="M-1.5,0.95L0 0.65L1.5 0.95L2.15 1.6Q2.1 2 1.5 2.3L0 2.55L-1.5 2.3Q-2.1 2 -2.05 1.6Q-2.1 1.25 -1.5 0.95" />
<radialGradient
id="RadialGradID_16" gradientUnits="userSpaceOnUse" gradientTransform="matrix(0.00100708, 0, 0, 0.00100708, 2.65, -0.25)" spreadMethod ="pad" cx="0" cy="0" r="819.2" fx="0" fy="0" >
<stop  offset="0"  style="stop-color:#E66A4D;stop-opacity:0.592157" />
<stop  offset="0.917647"  style="stop-color:#FFECD9;stop-opacity:0.262745" />
</radialGradient>
<path style="fill:url(#RadialGradID_16) " d="M2.2,-0.7Q2.35 -0.9 2.65 -0.9L3.05 -0.7L3.25 -0.2L3.05 0.2L2.65 0.4Q2.35 0.35 2.2 0.2L2 -0.2L2.2 -0.7" />
<path style="fill:#8F3029;fill-opacity:1" d="M-0.95,-0.3L-0.5 -0.35L0.45 -0.3L1.3 -0.3L1.55 -0.3L1.6 -0.05L1.45 -0.05L0.3 -0.05L-0.9 -0.05L-1 -0.05Q-1.75 -0.05 -1.45 -0.2L-0.95 -0.3" />
<radialGradient
id="RadialGradID_17" gradientUnits="userSpaceOnUse" gradientTransform="matrix(0.00196838, 0, 0, 0.00196838, 0, -0.15)" spreadMethod ="pad" cx="0" cy="0" r="819.2" fx="0" fy="0" >
<stop  offset="0"  style="stop-color:#A3352F;stop-opacity:1" />
<stop  offset="1"  style="stop-color:#C94B3F;stop-opacity:1" />
</radialGradient>
<path style="fill:url(#RadialGradID_17) " d="M-1.45,-0.2Q-1.75 -0.05 -1 -0.05L-0.9 -0.05L0.3 -0.05L1.45 -0.05L1.6 -0.05L1.55 -0.3L1.3 -0.3L0.45 -0.3L-0.5 -0.35L-0.95 -0.3L-1.45 -0.2M2.8,-0.3L2.8 -0.25L2.75 -0.2L2.75 -0.15L2.75 -0.1L2.5 -0.05L1.35 0.05L-0.1 0.1L-1.05 0.1L-1.95 0.1L-2.3 0L-2.35 0L-2.7 -0.2L-2.75 -0.25L-2.75 -0.3L-2.7 -0.35L-2.7 -0.3L-2 -0.25L-1.45 -0.35L-1 -0.5L-0.55 -0.45L0.1 -0.4L0.65 -0.45L0.7 -0.45L2.05 -0.35L2.75 -0.35L2.8 -0.3" />
<radialGradient
id="RadialGradID_18" gradientUnits="userSpaceOnUse" gradientTransform="matrix(0.00390625, 0, 0, 0.00302124, 0.5, -0.4)" spreadMethod ="pad" cx="0" cy="0" r="819.2" fx="210521" fy="0" >
<stop  offset="0"  style="stop-color:#E65750;stop-opacity:1" />
<stop  offset="0.490196"  style="stop-color:#FF958C;stop-opacity:0.933333" />
<stop  offset="1"  style="stop-color:#FFD1CF;stop-opacity:0.862745" />
</radialGradient>
<path style="fill:url(#RadialGradID_18) " d="M-2.3,0L-1.95 0.1L-1.05 0.1L-0.1 0.1L1.35 0.05L2.5 -0.05L2.75 -0.1L1.85 0.95Q1.35 1.4 0.5 1.5L0.1 1.5L-0.25 1.5L-0.9 1.4L-1.65 0.95L-2.3 0" />
<linearGradient
id="LinearGradID_19" gradientUnits="userSpaceOnUse" gradientTransform="matrix(0.00012207, 0.00149536, -0.000564575, 4.57764e-005, 0.25, -0.95)" spreadMethod ="pad" x1="-819.2" y1="0" x2="819.2" y2="0" >
<stop  offset="0.14902" style="stop-color:#FFC6BF;stop-opacity:0.862745" />
<stop  offset="0.47451" style="stop-color:#FFAFA6;stop-opacity:0.862745" />
<stop  offset="1" style="stop-color:#E65750;stop-opacity:1" />
</linearGradient>
<path style="fill:url(#LinearGradID_19) " d="M-2.65,-0.4L-1.4 -1L-0.55 -1.4Q-0.3 -1.4 -0.05 -1.1L0.25 -1.1L0.9 -1.4Q1.25 -1.45 1.9 -0.95L2.75 -0.35L2.05 -0.35L0.7 -0.45L0.65 -0.45L0.1 -0.4L-0.55 -0.45L-1 -0.5L-1.45 -0.35L-2 -0.25L-2.7 -0.3L-2.7 -0.35L-2.65 -0.4" />
<path style="fill:#EDABB0;fill-opacity:1" d="M-0.6,-0.35L-0.95 -0.35L0.15 -0.15L1 -0.3L1.25 -0.3L0.15 -0.35L-0.6 -0.35" />
<radialGradient
id="RadialGradID_20" gradientUnits="userSpaceOnUse" gradientTransform="matrix(0.000976563, 0, 0, 0.000976563, 0.1, -1.3)" spreadMethod ="pad" cx="0" cy="0" r="819.2" fx="0" fy="0" >
<stop  offset="0"  style="stop-color:#FFFFFF;stop-opacity:0.8" />
<stop  offset="0.988235"  style="stop-color:#FFFFFF;stop-opacity:0" />
</radialGradient>
<path style="fill:url(#RadialGradID_20) " d="M0.7,-1.45L0.85 -1.4L0.8 -1.4L0.2 -0.9L-0.1 -1L-0.3 -1.2L-0.3 -1.35L-0.05 -1.35L0.1 -1.25L0.7 -1.45" />
<radialGradient
id="RadialGradID_21" gradientUnits="userSpaceOnUse" gradientTransform="matrix(0.00456238, 0, 0, 0.00186157, -1.55, 1.05)" spreadMethod ="pad" cx="0" cy="0" r="819.2" fx="0" fy="0" >
<stop  offset="0"  style="stop-color:#FFFFFF;stop-opacity:1" />
<stop  offset="0.988235"  style="stop-color:#FFFFFF;stop-opacity:0" />
</radialGradient>
<path style="fill:url(#RadialGradID_21) " d="M-1.6,0.25L0.1 0.65L1.4 0.4L2.1 0.2L1.95 0.5L1.5 0.9L1.2 1.15L0.05 1.25Q-0.8 1.25 -1.45 0.85L-2.2 0.25L-1.6 0.25" />
</g>
</svg>
