<?xml version="1.0" encoding="utf-8"?>
<svg version="1.1" id="Layer_1"
xmlns="http://www.w3.org/2000/svg"
xmlns:xlink="http://www.w3.org/1999/xlink"
xmlns:author="http://www.sothink.com"
width="7px" height="4px"
xml:space="preserve">
<g id="10" transform="matrix(1, 0, 0, 1, 3.25, 1.7)">
<radialGradient
id="RadialGradID_122" gradientUnits="userSpaceOnUse" gradientTransform="matrix(0.000228882, 0.000701904, -0.000808716, 0.000473022, -2.6, -0.95)" spreadMethod ="pad" cx="0" cy="0" r="819.2" fx="0" fy="0" >
<stop  offset="0.211765"  style="stop-color:#E66A4D;stop-opacity:0.592157" />
<stop  offset="0.917647"  style="stop-color:#FFECD9;stop-opacity:0.262745" />
</radialGradient>
<path style="fill:url(#RadialGradID_122) " d="M-3.25,-0.55L-3.15 -1.05L-2.8 -1.45L-2.3 -1.55L-2 -1.25L-2.05 -0.75L-2.45 -0.35L-2.9 -0.25L-3.25 -0.55" />
<radialGradient
id="RadialGradID_123" gradientUnits="userSpaceOnUse" gradientTransform="matrix(0.000228882, 0.000701904, -0.000808716, 0.000473022, 2.65, -0.85)" spreadMethod ="pad" cx="0" cy="0" r="819.2" fx="0" fy="0" >
<stop  offset="0.211765"  style="stop-color:#E66A4D;stop-opacity:0.592157" />
<stop  offset="0.917647"  style="stop-color:#FFECD9;stop-opacity:0.262745" />
</radialGradient>
<path style="fill:url(#RadialGradID_123) " d="M2.5,-1.4L2.95 -1.45L3.3 -1.2L3.25 -0.7L2.85 -0.3L2.35 -0.2L2.05 -0.45L2.1 -0.95L2.5 -1.4" />
<radialGradient
id="RadialGradID_124" gradientUnits="userSpaceOnUse" gradientTransform="matrix(0.00254822, 0, 0, 0.00128174, -0.1, 0.65)" spreadMethod ="pad" cx="0" cy="0" r="819.2" fx="0" fy="0" >
<stop  offset="0.172549"  style="stop-color:#E9765A;stop-opacity:0.643137" />
<stop  offset="1"  style="stop-color:#FFECD9;stop-opacity:0.380392" />
</radialGradient>
<path style="fill:url(#RadialGradID_124) " d="M1.35,-0.05Q2 0.2 2 0.65Q2 1.1 1.35 1.4L-0.1 1.7L-1.6 1.4Q-2.2 1.1 -2.2 0.65Q-2.2 0.2 -1.6 -0.05L-0.1 -0.35L1.35 -0.05" />
<radialGradient
id="RadialGradID_125" gradientUnits="userSpaceOnUse" gradientTransform="matrix(0.00349426, 0, 0, 0.00349426, -0.15, -0.45)" spreadMethod ="pad" cx="0" cy="0" r="819.2" fx="0" fy="0" >
<stop  offset="0"  style="stop-color:#B93E57;stop-opacity:1" />
<stop  offset="1"  style="stop-color:#943242;stop-opacity:1" />
</radialGradient>
<path style="fill:url(#RadialGradID_125) " d="M2.6,-0.95L2.65 -0.9Q2.6 -0.6 2.25 -0.6L1.55 -0.65L0.7 -0.5L0 -0.4L-0.75 -0.5L-1.6 -0.65L-2.3 -0.6Q-2.65 -0.6 -2.7 -0.9L-2.65 -0.95L-2.5 -0.9L-2.4 -0.85L-1.8 -0.8L-1.3 -0.85L-0.35 -0.7L0 -0.65L0.3 -0.7L1.25 -0.85L1.75 -0.8L2.4 -0.85L2.45 -0.9L2.6 -0.95" />
<radialGradient
id="RadialGradID_126" gradientUnits="userSpaceOnUse" gradientTransform="matrix(0.00428772, 0, 0, 0.00244141, -0.05, -0.5)" spreadMethod ="pad" cx="0" cy="0" r="819.2" fx="0" fy="0" >
<stop  offset="0"  style="stop-color:#F06262;stop-opacity:1" />
<stop  offset="1"  style="stop-color:#FCC9C9;stop-opacity:0.25098" />
</radialGradient>
<path style="fill:url(#RadialGradID_126) " d="M-1.4,-1.45L-0.35 -1.6L0 -1.5L0.3 -1.6L1.4 -1.45L2.45 -0.9L2.4 -0.85L1.75 -0.8L1.25 -0.85L0.3 -0.7L0 -0.65L-0.35 -0.7L-1.3 -0.85L-1.8 -0.8L-2.4 -0.85L-2.5 -0.9L-1.4 -1.45" />
<radialGradient
id="RadialGradID_127" gradientUnits="userSpaceOnUse" gradientTransform="matrix(0.00418091, 0, 0, 0.00253296, 0.25, -0.55)" spreadMethod ="pad" cx="0" cy="0" r="819.2" fx="0" fy="0" >
<stop  offset="0"  style="stop-color:#EF5454;stop-opacity:1" />
<stop  offset="1"  style="stop-color:#FFB5B5;stop-opacity:0.372549" />
</radialGradient>
<path style="fill:url(#RadialGradID_127) " d="M1.9,0Q1.25 0.7 0.1 0.75Q-1.15 0.8 -1.65 0.25L-2.3 -0.6L-1.6 -0.65L-0.75 -0.5L0 -0.4L0.7 -0.5L1.55 -0.65L2.25 -0.6L1.9 0" />
<linearGradient
id="LinearGradID_128" gradientUnits="userSpaceOnUse" gradientTransform="matrix(-0.00135803, 0, 0, -0.000335693, -1.1, -1.4)" spreadMethod ="pad" x1="-819.2" y1="0" x2="819.2" y2="0" >
<stop  offset="0" style="stop-color:#FFFFFF;stop-opacity:0.45098" />
<stop  offset="1" style="stop-color:#FFFFFF;stop-opacity:0" />
</linearGradient>
<path style="fill:url(#LinearGradID_128) " d="M-1.3,-1.1L-1.5 -1.1L-1.15 -1.4L-0.7 -1.6L-0.15 -1.35L-0.45 -1.05L-0.65 -1.05L-1.3 -1.1" />
<linearGradient
id="LinearGradID_129" gradientUnits="userSpaceOnUse" gradientTransform="matrix(0.00317383, 0, 0, 0.000534058, -0.75, 0.3)" spreadMethod ="pad" x1="-819.2" y1="0" x2="819.2" y2="0" >
<stop  offset="0" style="stop-color:#FFFFFF;stop-opacity:1" />
<stop  offset="1" style="stop-color:#FFFFFF;stop-opacity:0" />
</linearGradient>
<path style="fill:url(#LinearGradID_129) " d="M-0.75,-0.35L-0.4 -0.3L-0.1 -0.25L1.1 -0.25L1.15 -0.25L1 0.05L-0.3 0.4L-0.65 0.35Q-1.45 0.2 -1.45 -0.15Q-1.5 -0.5 -1.15 -0.5L-0.75 -0.35" />
</g>
</svg>
