<?xml version="1.0" encoding="utf-8"?>
<svg version="1.1" id="Layer_1"
xmlns="http://www.w3.org/2000/svg"
xmlns:xlink="http://www.w3.org/1999/xlink"
xmlns:author="http://www.sothink.com"
width="29px" height="13px"
xml:space="preserve">
<g id="28" transform="matrix(1, 0, 0, 1, -33.2, -81.35)">
<radialGradient
id="RadialGradID_291" gradientUnits="userSpaceOnUse" gradientTransform="matrix(-0.000167847, -0.0059967, -0.0123749, 0.000305176, 46.95, 90.25)" spreadMethod ="pad" cx="0" cy="0" r="819.2" fx="0" fy="0" >
<stop  offset="0.0470588"  style="stop-color:#DA6969;stop-opacity:0.513725" />
<stop  offset="1"  style="stop-color:#FFEFEA;stop-opacity:0" />
</radialGradient>
<path style="fill:url(#RadialGradID_291) " d="M46.9,86.7Q50.1 86.6 52.5 87.7Q54.7 88.65 54.7 90.2Q54.7 91.75 52.6 93Q50.25 94.05 47.05 94.2Q43.85 94.25 41.7 93.3Q39.25 92.15 39.25 90.6Q39.2 89 41.55 87.95Q43.7 86.75 46.9 86.7" />
<radialGradient
id="RadialGradID_292" gradientUnits="userSpaceOnUse" gradientTransform="matrix(0.00352478, -4.57764e-005, 4.57764e-005, 0.00352478, 35.95, 84.5)" spreadMethod ="pad" cx="0" cy="0" r="819.2" fx="0" fy="0" >
<stop  offset="0.0470588"  style="stop-color:#C52929;stop-opacity:0.580392" />
<stop  offset="1"  style="stop-color:#FFEFEA;stop-opacity:0" />
</radialGradient>
<path style="fill:url(#RadialGradID_292) " d="M37.95,86.45Q37.15 87.25 36 87.25Q34.85 87.3 34.05 86.5Q33.2 85.7 33.2 84.55Q33.2 83.4 34 82.55Q34.8 81.75 35.95 81.75Q37.1 81.75 37.9 82.5Q38.7 83.3 38.75 84.5Q38.75 85.65 37.95 86.45" />
<radialGradient
id="RadialGradID_293" gradientUnits="userSpaceOnUse" gradientTransform="matrix(0.00352478, -4.57764e-005, 4.57764e-005, 0.00352478, 58.65, 84.1)" spreadMethod ="pad" cx="0" cy="0" r="819.2" fx="0" fy="0" >
<stop  offset="0.0470588"  style="stop-color:#C52929;stop-opacity:0.580392" />
<stop  offset="1"  style="stop-color:#FFEFEA;stop-opacity:0" />
</radialGradient>
<path style="fill:url(#RadialGradID_293) " d="M58.7,86.85Q57.55 86.85 56.7 86.05Q55.9 85.25 55.9 84.15Q55.9 83 56.65 82.15Q57.45 81.35 58.65 81.35Q59.75 81.3 60.55 82.1Q61.4 82.9 61.4 84.05Q61.4 85.2 60.6 86Q59.8 86.85 58.7 86.85" />
<radialGradient
id="RadialGradID_294" gradientUnits="userSpaceOnUse" gradientTransform="matrix(0.0145264, -0.000259399, 0.000259399, 0.0145264, 47.5, 85.25)" spreadMethod ="pad" cx="0" cy="0" r="819.2" fx="0" fy="0" >
<stop  offset="0.760784"  style="stop-color:#EB5858;stop-opacity:1" />
<stop  offset="1"  style="stop-color:#D24F4F;stop-opacity:1" />
</radialGradient>
<path style="fill:url(#RadialGradID_294) " d="M39.2,85.05L43.65 84.9L45 84.8L46.8 85.3L48 85.2L50.5 84.9L52.95 85.1Q54.4 85.05 56.95 84L57.15 83.8L57.2 83.65Q57.55 82.75 58.15 82.55Q58.65 82.6 58.9 82.9L59.05 83.15L59.05 83.05L59.1 83.15Q59.1 84.4 57.65 84.9L54.45 85.6L51.1 85.9L43.95 86L37.5 85.65L37.45 85.65Q35.6 85.45 35.35 84.85Q34.8 83.85 35.55 83.5Q36.3 83.3 36.75 83.75L37 84.05L37.05 84.15L36.9 84.05L37.3 84.4Q37.6 84.8 38.95 85L39.05 85.05L39.2 85.05" />
<radialGradient
id="RadialGradID_295" gradientUnits="userSpaceOnUse" gradientTransform="matrix(0.0146484, -0.000198364, 4.57764e-005, 0.00923157, 46.95, 83.75)" spreadMethod ="pad" cx="0" cy="0" r="819.2" fx="0" fy="0" >
<stop  offset="0"  style="stop-color:#F84B80;stop-opacity:1" />
<stop  offset="1"  style="stop-color:#FDD0D0;stop-opacity:0.501961" />
</radialGradient>
<path style="fill:url(#RadialGradID_295) " d="M39.05,85.05L38.95 85L39.2 85.05L39.05 85.05" />
<radialGradient
id="RadialGradID_296" gradientUnits="userSpaceOnUse" gradientTransform="matrix(0.0146484, -0.000198364, 4.57764e-005, 0.00923157, 46.95, 83.75)" spreadMethod ="pad" cx="0" cy="0" r="819.2" fx="0" fy="0" >
<stop  offset="0"  style="stop-color:#F85454;stop-opacity:1" />
<stop  offset="1"  style="stop-color:#FDCECE;stop-opacity:0.501961" />
</radialGradient>
<path style="fill:url(#RadialGradID_296) " d="M57.65,84.9Q56.6 85.95 56.3 86.55L54.7 88.25Q53.45 89.25 49.45 90.1L44.9 90.1Q40.2 89.65 38.85 87.7L37.5 85.65L43.95 86L51.1 85.9L54.45 85.6L57.65 84.9" />
<radialGradient
id="RadialGradID_297" gradientUnits="userSpaceOnUse" gradientTransform="matrix(0.0131226, 0, 0, 0.0131226, 47.15, 90.1)" spreadMethod ="pad" cx="0" cy="0" r="819.2" fx="0" fy="0" >
<stop  offset="0"  style="stop-color:#F85454;stop-opacity:1" />
<stop  offset="1"  style="stop-color:#FDCECE;stop-opacity:0.501961" />
</radialGradient>
<path style="fill:url(#RadialGradID_297) " d="M57.15,83.8L56.95 84Q54.4 85.05 52.95 85.1L50.5 84.9L48 85.2L46.8 85.3L45 84.8L43.65 84.9L39.2 85.05L38.95 85Q37.6 84.8 37.3 84.4L36.9 84.05L37.05 84.15L37 84.05L41.75 83.3L44.8 83.1Q46.9 84.15 48.3 83.45Q49.65 82.75 51.4 82.9L53.75 83.3L57.2 83.65L57.15 83.8" />
<radialGradient
id="RadialGradID_298" gradientUnits="userSpaceOnUse" gradientTransform="matrix(0.00538635, -0.000106812, 6.10352e-005, 0.00300598, 44.15, 87.8)" spreadMethod ="pad" cx="0" cy="0" r="819.2" fx="0" fy="0" >
<stop  offset="0"  style="stop-color:#FFFFFF;stop-opacity:1" />
<stop  offset="0.992157"  style="stop-color:#FA82A2;stop-opacity:0" />
</radialGradient>
<path style="fill:url(#RadialGradID_298) " d="M44.4,88.55L43.1 88.45L42.55 87.55L42.05 88.05Q41.55 87.45 42.3 86.8L42.55 87.15L43.75 87.3Q44.15 87.15 44.4 87.5L46.45 87.9Q45.95 88.3 45.4 88.65L45.05 88.65L44.4 88L44.4 88.55" />
<radialGradient
id="RadialGradID_299" gradientUnits="userSpaceOnUse" gradientTransform="matrix(0.00364685, -6.10352e-005, 6.10352e-005, 0.00364685, 50.9, 87.85)" spreadMethod ="pad" cx="0" cy="0" r="819.2" fx="0" fy="0" >
<stop  offset="0"  style="stop-color:#FFFFFF;stop-opacity:1" />
<stop  offset="0.992157"  style="stop-color:#FA82A2;stop-opacity:0" />
</radialGradient>
<path style="fill:url(#RadialGradID_299) " d="M49.1,88.2Q48.95 87.4 50 87.5Q50.7 87.6 51.2 87.1Q51.8 86.55 52.25 87.3L51.75 87.4Q50.9 87.45 51.1 88.15L49.55 88.15L49.25 89.1L48.6 88L49.1 88.2" />
<radialGradient
id="RadialGradID_300" gradientUnits="userSpaceOnUse" gradientTransform="matrix(0.00285339, -4.57764e-005, 4.57764e-005, 0.00285339, 50.25, 83.55)" spreadMethod ="pad" cx="0" cy="0" r="819.2" fx="0" fy="0" >
<stop  offset="0"  style="stop-color:#FFFFFF;stop-opacity:1" />
<stop  offset="0.992157"  style="stop-color:#FA82A2;stop-opacity:0" />
</radialGradient>
<path style="fill:url(#RadialGradID_300) " d="M48.05,84.4L48.15 83.75L49.2 83.45Q51.15 82.8 52.6 83.75L51.15 83.8Q49.6 83.45 48.2 84.5L48.05 84.4" />
</g>
</svg>
