<?xml version="1.0" encoding="utf-8"?>
<svg version="1.1" id="Layer_1"
xmlns="http://www.w3.org/2000/svg"
xmlns:xlink="http://www.w3.org/1999/xlink"
xmlns:author="http://www.sothink.com"
width="9px" height="5px"
xml:space="preserve">
<g id="23" transform="matrix(1, 0, 0, 1, 4.05, 2.2)">
<radialGradient
id="RadialGradID_247" gradientUnits="userSpaceOnUse" gradientTransform="matrix(-0.00088501, 0.000183105, 0.000488281, 0.000900269, -3.25, -1.3)" spreadMethod ="pad" cx="0" cy="0" r="819.2" fx="0" fy="0" >
<stop  offset="0.0470588"  style="stop-color:#C52929;stop-opacity:0.580392" />
<stop  offset="1"  style="stop-color:#FFEFEA;stop-opacity:0" />
</radialGradient>
<path style="fill:url(#RadialGradID_247) " d="M-3.95,-1.8L-3.65 -2Q-2.75 -2.2 -2.5 -1.55Q-2.25 -0.85 -2.7 -0.65Q-3.1 -0.45 -3.55 -0.8Q-4.25 -1.25 -3.95 -1.8" />
<radialGradient
id="RadialGradID_248" gradientUnits="userSpaceOnUse" gradientTransform="matrix(0.000854492, 0.000244141, -0.000579834, 0.000869751, 3.25, -1.5)" spreadMethod ="pad" cx="0" cy="0" r="819.2" fx="0" fy="0" >
<stop  offset="0.0470588"  style="stop-color:#C52929;stop-opacity:0.580392" />
<stop  offset="1"  style="stop-color:#FFEFEA;stop-opacity:0" />
</radialGradient>
<path style="fill:url(#RadialGradID_248) " d="M3.95,-1.9L3.75 -2.1Q2.85 -2.4 2.5 -1.75Q2.25 -1.15 2.6 -0.85L3.55 -0.9Q4.25 -1.35 3.95 -1.9" />
<radialGradient
id="RadialGradID_249" gradientUnits="userSpaceOnUse" gradientTransform="matrix(-0.000320435, -0.00164795, 0.00453186, -0.000228882, 0.05, 1.15)" spreadMethod ="pad" cx="0" cy="0" r="819.2" fx="0" fy="0" >
<stop  offset="0.0666667"  style="stop-color:#E37653;stop-opacity:0.662745" />
<stop  offset="1"  style="stop-color:#FFEFEA;stop-opacity:0" />
</radialGradient>
<path style="fill:url(#RadialGradID_249) " d="M2.2,1.85L0.25 2.2L-1.85 2Q-2.65 1.75 -2.75 1.3Q-2.85 0.85 -2.1 0.55L-0.15 0.15L1.85 0.35Q2.8 0.6 2.85 1.05Q3 1.5 2.2 1.85" />
<radialGradient
id="RadialGradID_250" gradientUnits="userSpaceOnUse" gradientTransform="matrix(0.00564575, 0.000244141, -0.000106812, 0.00224304, 0.1, -0.6)" spreadMethod ="pad" cx="0" cy="0" r="819.2" fx="0" fy="0" >
<stop  offset="0.129412"  style="stop-color:#FF6800;stop-opacity:0.811765" />
<stop  offset="0.494118"  style="stop-color:#FF8224;stop-opacity:0.282353" />
<stop  offset="0.956863"  style="stop-color:#FFB6A1;stop-opacity:0.180392" />
</radialGradient>
<path style="fill:url(#RadialGradID_250) " d="M2.9,-1.55L2.7 -1.35L1.8 -1.1L1.3 -0.95L0.8 -0.85L0.75 -0.85L0.45 -0.8L0.05 -0.7L-0.05 -0.7L-0.3 -0.75L-0.65 -0.8L-0.75 -0.85L-1.35 -0.9L-1.75 -1L-2.65 -1.3L-2.8 -1.45L-3.05 -1.55L-1.9 -1.4L-1.2 -1.45L-1 -1.5L-0.65 -1.45L-0.6 -1.45L0 -1.35L0.65 -1.5L0.75 -1.5L1.05 -1.55L1.25 -1.55L2 -1.5L3.05 -1.7L2.9 -1.55" />
<radialGradient
id="RadialGradID_251" gradientUnits="userSpaceOnUse" gradientTransform="matrix(0.00457764, 0.000198364, -0.000198364, 0.00445557, 0.05, -0.25)" spreadMethod ="pad" cx="0" cy="0" r="819.2" fx="0" fy="0" >
<stop  offset="0.00784314"  style="stop-color:#E35116;stop-opacity:1" />
<stop  offset="1"  style="stop-color:#B31E00;stop-opacity:0.811765" />
</radialGradient>
<path style="fill:url(#RadialGradID_251) " d="M2.6,-0.95L2.55 -0.85L2.5 -0.85L1.45 0.05L0.05 0.4L-1.35 0.1L-2.45 -0.75L-2.45 -0.8L-2.5 -0.85L-3.1 -1.2L-3.2 -1.25L-3.35 -1.45L-3.35 -1.6L-3.2 -1.55L-3.05 -1.55L-2.8 -1.45L-2.65 -1.3L-1.75 -1L-1.35 -0.9L-0.75 -0.85L-0.65 -0.8L-0.3 -0.75L-0.05 -0.7L0.05 -0.7L0.45 -0.8L0.75 -0.85L0.8 -0.85L1.3 -0.95L1.8 -1.1L2.7 -1.35L2.9 -1.55L3.05 -1.7L3.15 -1.7L3.35 -1.65L3.35 -1.55L3.25 -1.35L3.1 -1.35L2.6 -0.95" />
<radialGradient
id="RadialGradID_252" gradientUnits="userSpaceOnUse" gradientTransform="matrix(0.00419617, 0.000183105, -0.00012207, 0.00256348, 0.1, -0.6)" spreadMethod ="pad" cx="0" cy="0" r="819.2" fx="0" fy="0" >
<stop  offset="0.333333"  style="stop-color:#F23900;stop-opacity:0.843137" />
<stop  offset="0.647059"  style="stop-color:#FF4F00;stop-opacity:0.341176" />
<stop  offset="0.972549"  style="stop-color:#FF8E38;stop-opacity:0.0627451" />
</radialGradient>
<path style="fill:url(#RadialGradID_252) " d="M3.1,-1.35L2.9 -0.9L2.85 -0.85Q1.9 1.2 0.85 1.45L0.45 1.55L0.1 1.55L-0.2 1.55L-0.65 1.5Q-1.7 1.25 -2.8 -0.75L-3.1 -1.2L-2.5 -0.85L-2.45 -0.8L-2.45 -0.75L-1.35 0.1L0.05 0.4L1.45 0.05L2.5 -0.85L2.55 -0.85L2.6 -0.95L3.1 -1.35" />
<path style="fill:#FFFFFF;fill-opacity:1" d="M-1.95,-0.8L-1.5 -0.7L-1.1 -0.65L-0.75 -0.6L-0.3 -0.55L0.1 -0.5L0.4 -0.55L0.75 -0.65L1.05 -0.7L1.3 -0.75L1.55 -0.75L1.8 -0.85L2.15 -1L2.2 -1L2.1 -0.85L1.85 -0.6L1.65 -0.45L1.55 -0.3L1.4 -0.2L0.3 0L-0.85 -0.05L-1.3 -0.3Q-1.65 -0.65 -2 -0.8L-1.95 -0.8" />
<radialGradient
id="RadialGradID_253" gradientUnits="userSpaceOnUse" gradientTransform="matrix(0.00250244, 0.000106812, -4.57764e-005, 0.00102234, 0.1, 0.9)" spreadMethod ="pad" cx="0" cy="0" r="819.2" fx="0" fy="0" >
<stop  offset="0"  style="stop-color:#FFFFFF;stop-opacity:1" />
<stop  offset="0.980392"  style="stop-color:#FFD8C4;stop-opacity:0" />
</radialGradient>
<path style="fill:url(#RadialGradID_253) " d="M2.05,0.2L1.15 0.95L0.2 1.15L-0.45 1.05L-0.65 0.85L0.35 0.7L2.05 0.2" />
<radialGradient
id="RadialGradID_254" gradientUnits="userSpaceOnUse" gradientTransform="matrix(0.00233459, 0.000106812, -6.10352e-005, 0.00126648, -0.6, -1.1)" spreadMethod ="pad" cx="0" cy="0" r="819.2" fx="0" fy="0" >
<stop  offset="0"  style="stop-color:#FFFFFF;stop-opacity:0.560784" />
<stop  offset="0.980392"  style="stop-color:#E3A59A;stop-opacity:0" />
</radialGradient>
<path style="fill:url(#RadialGradID_254) " d="M-1.65,-1.1L-1.15 -1.3L-0.8 -1.35Q-0.45 -1.35 -0.25 -1.15Q-0.1 -0.95 -0.3 -0.8L-0.5 -0.95L-0.75 -1L-1.25 -1.05L-1.65 -1.1" />
</g>
</svg>
