<?xml version="1.0" encoding="utf-8"?>
<svg version="1.1" id="Layer_1"
xmlns="http://www.w3.org/2000/svg"
xmlns:xlink="http://www.w3.org/1999/xlink"
xmlns:author="http://www.sothink.com"
width="8px" height="4px"
xml:space="preserve">
<g id="21" transform="matrix(1, 0, 0, 1, 3.6, 1.7)">
<radialGradient
id="RadialGradID_231" gradientUnits="userSpaceOnUse" gradientTransform="matrix(0.00306702, -7.62939e-005, 3.05176e-005, 0.001297, -0.05, 0.85)" spreadMethod ="pad" cx="0" cy="0" r="819.2" fx="0" fy="0" >
<stop  offset="0.172549"  style="stop-color:#E9765A;stop-opacity:0.643137" />
<stop  offset="1"  style="stop-color:#FFECD9;stop-opacity:0.101961" />
</radialGradient>
<path style="fill:url(#RadialGradID_231) " d="M-0.05,-0.05L1.7 0.15Q2.4 0.35 2.4 0.75L1.7 1.45L0 1.75L-1.75 1.5Q-2.5 1.3 -2.5 0.9Q-2.5 0.5 -1.75 0.2L-0.05 -0.05" />
<radialGradient
id="RadialGradID_232" gradientUnits="userSpaceOnUse" gradientTransform="matrix(0.000701904, -1.52588e-005, 1.52588e-005, 0.000640869, 3.05, -1.2)" spreadMethod ="pad" cx="0" cy="0" r="819.2" fx="0" fy="0" >
<stop  offset="0.211765"  style="stop-color:#E66A4D;stop-opacity:0.592157" />
<stop  offset="1"  style="stop-color:#FFECD9;stop-opacity:0.0313725" />
</radialGradient>
<path style="fill:url(#RadialGradID_232) " d="M3.05,-1.7L3.45 -1.55L3.6 -1.2L3.45 -0.8Q3.3 -0.65 3.05 -0.65L2.65 -0.75Q2.5 -0.9 2.5 -1.15L2.65 -1.5L3.05 -1.7" />
<radialGradient
id="RadialGradID_233" gradientUnits="userSpaceOnUse" gradientTransform="matrix(0.000701904, -1.52588e-005, 1.52588e-005, 0.000640869, -3.05, -1.05)" spreadMethod ="pad" cx="0" cy="0" r="819.2" fx="0" fy="0" >
<stop  offset="0.211765"  style="stop-color:#E66A4D;stop-opacity:0.592157" />
<stop  offset="1"  style="stop-color:#FFECD9;stop-opacity:0.0313725" />
</radialGradient>
<path style="fill:url(#RadialGradID_233) " d="M-3.05,-1.55L-2.65 -1.4L-2.5 -1.05Q-2.5 -0.8 -2.65 -0.65Q-2.8 -0.5 -3.05 -0.5L-3.45 -0.6L-3.6 -1L-3.45 -1.35L-3.05 -1.55" />
<radialGradient
id="RadialGradID_234" gradientUnits="userSpaceOnUse" gradientTransform="matrix(0.00576782, -0.000152588, 4.57764e-005, 0.00192261, 0.1, -0.3)" spreadMethod ="pad" cx="0" cy="0" r="819.2" fx="0" fy="0" >
<stop  offset="0.219608"  style="stop-color:#EC4646;stop-opacity:1" />
<stop  offset="0.988235"  style="stop-color:#FCD8C9;stop-opacity:0.25098" />
</radialGradient>
<path style="fill:url(#RadialGradID_234) " d="M2.4,-0.95L0.45 -0.6L0.25 -0.55L0 -0.5L-0.25 -0.55L-0.5 -0.6L-2.4 -0.85L-2.45 -0.85L-3 -1L-2.45 -1.05L-1.75 -1.05L-0.6 -1.15L-0.05 -1.05L0 -1.05L0.6 -1.15L1.8 -1.15L3 -1.15L2.4 -0.95" />
<radialGradient
id="RadialGradID_235" gradientUnits="userSpaceOnUse" gradientTransform="matrix(0.00352478, -9.15527e-005, 9.15527e-005, 0.00326538, 0, -0.4)" spreadMethod ="pad" cx="0" cy="0" r="819.2" fx="0" fy="0" >
<stop  offset="0.6"  style="stop-color:#9B2828;stop-opacity:1" />
<stop  offset="1"  style="stop-color:#A22B2B;stop-opacity:1" />
</radialGradient>
<path style="fill:url(#RadialGradID_235) " d="M-2.9,-0.7L-3 -0.8L-3.1 -1L-3 -1L-2.45 -0.85L-2.4 -0.85L-0.5 -0.6L-0.25 -0.55L0 -0.5L0.25 -0.55L0.45 -0.6L2.4 -0.95L3 -1.15L3.1 -1.15L3 -0.95L2.9 -0.85L2.2 -0.35L0.05 0.15L0 0.15L-2.1 -0.25L-2.45 -0.4L-2.9 -0.7" />
<radialGradient
id="RadialGradID_236" gradientUnits="userSpaceOnUse" gradientTransform="matrix(0.00645447, -0.000167847, 7.62939e-005, 0.00271606, 0, -0.4)" spreadMethod ="pad" cx="0" cy="0" r="819.2" fx="0" fy="0" >
<stop  offset="0.129412"  style="stop-color:#EC3E3E;stop-opacity:1" />
<stop  offset="0.596078"  style="stop-color:#FF4545;stop-opacity:0.211765" />
<stop  offset="0.894118"  style="stop-color:#FF3A19;stop-opacity:0.572549" />
</radialGradient>
<path style="fill:url(#RadialGradID_236) " d="M-2.45,-0.4L-2.1 -0.25L0 0.15L0.05 0.15L2.2 -0.35L2.9 -0.85L2.65 -0.25L1.9 0.5L1.15 0.9L0.05 1.15L0 1.15L-1.05 0.95L-1.85 0.6L-2.4 0.05L-2.5 -0.1L-2.9 -0.7L-2.45 -0.4" />
<path style="fill:#FFFFFF;fill-opacity:1" d="M-2.75,-0.8L0 -0.4L2.75 -0.9Q2.2 -0.5 1.55 -0.3L0 0.05L-1 -0.1Q-1.75 -0.2 -2.75 -0.8" />
<radialGradient
id="RadialGradID_237" gradientUnits="userSpaceOnUse" gradientTransform="matrix(0.00183105, -4.57764e-005, 4.57764e-005, 0.00169373, -0.8, -1.25)" spreadMethod ="pad" cx="0" cy="0" r="819.2" fx="0" fy="0" >
<stop  offset="0"  style="stop-color:#FFFFFF;stop-opacity:0.631373" />
<stop  offset="1"  style="stop-color:#FFFFFF;stop-opacity:0" />
</radialGradient>
<path style="fill:url(#RadialGradID_237) " d="M-0.2,-0.75L-0.55 -0.8L-2.05 -0.9L-0.9 -1.05L-0.25 -1L-0.15 -0.85L-0.2 -0.75" />
<radialGradient
id="RadialGradID_238" gradientUnits="userSpaceOnUse" gradientTransform="matrix(0.00274658, -7.62939e-005, 1.52588e-005, 0.000686646, -0.1, 0.5)" spreadMethod ="pad" cx="0" cy="0" r="819.2" fx="0" fy="0" >
<stop  offset="0"  style="stop-color:#FAFEFF;stop-opacity:0.701961" />
<stop  offset="1"  style="stop-color:#FAFDFE;stop-opacity:0" />
</radialGradient>
<path style="fill:url(#RadialGradID_238) " d="M1.9,0L0.8 0.65L0 0.85L-0.75 0.75L-1.35 0.55L-1.65 0.1L-0.45 0.4L1.45 0.15L1.9 0" />
<path style="fill:#FDD7E3;fill-opacity:1" d="M-2.25,-0.2L-2.25 -0.15L-2.2 -0.1L-2.3 -0.1L-2.35 -0.1L-2.4 -0.15L-2.4 -0.2L-2.35 -0.2L-2.25 -0.2M-1.85,0L-1.9 0.05L-2 0.1L-2.05 0.05L-2.1 0L-2.05 -0.1L-2.05 -0.15L-1.9 -0.1L-1.85 0M0.55,0.5L0.5 0.5L0.45 0.5L0.4 0.4L0.45 0.35L0.5 0.35L0.55 0.35L0.6 0.4L0.55 0.5M0.55,0.7L0.5 0.7L0.5 0.65L0.5 0.6L0.55 0.6L0.6 0.6L0.6 0.65L0.6 0.7L0.55 0.7M-0.15,0.7L-0.05 0.7L-0.05 0.75L-0.05 0.85L-0.15 0.85L-0.2 0.85L-0.25 0.75L-0.2 0.7L-0.15 0.7" />
<path style="fill:#FFFFFF;fill-opacity:1" d="M-0.65,0.5L-0.65 0.4L-0.5 0.35L-0.4 0.4L-0.35 0.5L-0.4 0.6L-0.5 0.65L-0.65 0.6L-0.65 0.5M-0.1,0.6L-0.15 0.6L-0.25 0.6L-0.25 0.55L-0.25 0.45L-0.15 0.45L-0.1 0.45L-0.05 0.55L-0.1 0.6M-0.3,0.7L-0.35 0.75L-0.4 0.75L-0.45 0.7L-0.4 0.65L-0.35 0.65L-0.3 0.7" />
<path style="fill:#FFFFFF;fill-opacity:0.698039" d="M-0.95,0.3L-1.1 0.2L-1.05 0.25L-0.95 0.3L-0.95 0.35L-0.95 0.3M-0.85,0.35L-0.9 0.35L-0.85 0.35M-1.15,0.2L-1.1 0.25L-1.05 0.25L-1.05 0.3L-1 0.35L-1.05 0.3L-1.15 0.2L-1.2 0.15L-1.15 0.15L-1.15 0.2M-1,0.55L-1.05 0.55L-1 0.5L-1 0.55L-0.95 0.5L-1 0.5L-0.95 0.45L-0.95 0.5L-1 0.55L-1 0.6L-1 0.55M-0.7,0.6L-0.65 0.65L-0.55 0.75L-0.6 0.7L-0.65 0.65L-0.65 0.7L-0.6 0.7L-0.75 0.55L-0.75 0.6L-0.8 0.55L-0.75 0.55M-0.75,0.45L-0.8 0.4L-0.75 0.45M-1.15,0.65L-1.2 0.7L-1.2 0.65L-1.15 0.65L-1.1 0.6L-1.15 0.65M-0.85,0.5L-0.85 0.55L-0.85 0.5M-0.75,0.35L-0.7 0.3L-0.75 0.4L-0.75 0.35M-0.75,0.55L-0.7 0.6L-0.7 0.65L-0.65 0.65L-0.75 0.6L-0.7 0.6" />
<path style="fill:#FFFFFF;fill-opacity:0.545098" d="M-1.05,0.25L-1 0.25L-1.05 0.25L-1.1 0.2L-1.15 0.15L-1.2 0.15L-1.15 0.2L-1.05 0.3L-1.25 0.05L-1.05 0.25M-0.95,0.35L-0.95 0.3L-0.95 0.35M-0.85,0.35L-0.8 0.35L-0.85 0.35M-1,0.45L-0.95 0.45L-1 0.45M-1.05,0.55L-1 0.5L-1.05 0.55M-0.95,0.5L-0.9 0.5L-0.9 0.55L-0.95 0.55L-0.95 0.5M-1.2,0.7L-1.1 0.65L-1 0.6L-1 0.55L-0.95 0.55L-1 0.6L-1.05 0.65L-1.2 0.7M-0.6,0.2L-0.65 0.25L-0.8 0.35L-0.65 0.25L-0.55 0.15L-0.45 0.15L-0.5 0.15L-0.6 0.2M-0.75,0.45L-0.75 0.4L-0.75 0.45M-0.55,0.8L-0.55 0.75L-0.7 0.6L-0.75 0.55L-0.65 0.6L-0.55 0.7L-0.5 0.85L-0.5 0.8L-0.55 0.8M-1.25,0.75L-1.3 0.75L-1.25 0.7L-1.2 0.7L-1.25 0.75M-0.75,0.6L-0.8 0.6L-0.8 0.55L-0.75 0.6" />
<path style="fill:#FFFFFF;fill-opacity:0.0431373" d="M-0.85,0.3L-0.85 0.25L-0.85 0.3M-0.85,0.1L-0.85 0.15L-0.85 0.05L-0.85 0.1M-0.9,0.3L-0.9 0.25L-0.85 0.25L-0.9 0.3L-0.95 0.3L-0.9 0.3M-0.8,0.35L-0.8 0.3L-0.8 0.35M-0.95,0.25L-0.95 0.3L-0.95 0.25M-1.05,0.4L-1 0.4L-1.05 0.4L-1.05 0.35L-1.05 0.4L-1.1 0.4M-1.4,-0.05L-1.2 0.2L-1.45 -0.1L-1.4 -0.05M-1.1,0.4L-1.05 0.4M-1.1,0.45L-1.35 0.4L-1.3 0.4L-1.1 0.45M-1,0.45L-1.05 0.5L-1.05 0.45L-1 0.45L-1.05 0.45L-1 0.45M-0.75,0.25L-0.75 0.3L-0.75 0.25M-0.65,0.45L-0.7 0.4L-0.65 0.4L-0.65 0.45M-0.55,0.45L-0.4 0.45L-0.45 0.45L-0.55 0.45M-0.7,0.55L-0.7 0.5L-0.7 0.55L-0.65 0.55L-0.7 0.55M-0.9,0.7L-0.85 0.65L-0.9 0.85L-0.9 0.8L-0.9 0.7M-1.5,0.95L-1.55 1.05L-1.55 1L-1.5 0.95M-0.75,0.5L-0.7 0.5L-0.75 0.5M-1.5,-0.15L-1.45 -0.1L-1.5 -0.15M-0.85,0.55L-0.8 0.6L-0.85 0.6L-0.85 0.55M-0.9,0.55L-0.9 0.6L-0.9 0.65L-0.9 0.6L-0.95 0.55M-0.95,0.6L-1 0.6L-0.95 0.6M-0.95,0.55L-0.9 0.55" />
<path style="fill:#FFFFFF;fill-opacity:1" d="M-0.85,0.25L-0.85 0.3L-0.85 0.25M-0.7,0.45L-0.75 0.45L-0.8 0.4L-0.75 0.35L-0.7 0.3L-0.75 0.35L-0.8 0.4L-0.75 0.45L-0.8 0.45L-0.8 0.4L-0.8 0.45L-0.8 0.5L-0.75 0.5L-0.8 0.5L-0.75 0.5L-0.75 0.55L-0.7 0.65L-0.75 0.6L-0.75 0.55L-0.8 0.55L-0.8 0.5L-0.85 0.5L-0.9 0.5L-0.95 0.5L-1 0.55L-1.05 0.6L-1 0.55L-0.95 0.5L-1 0.55L-1.05 0.6L-1 0.55L-0.95 0.5L-0.95 0.45L-0.95 0.4L-0.95 0.45L-0.95 0.4L-1 0.4L-0.95 0.4L-1 0.35L-0.95 0.35L-0.9 0.4L-0.85 0.4L-0.85 0.35L-0.85 0.3L-0.85 0.35M-0.85,0.35L-0.85 0.4L-0.8 0.4L-0.75 0.4L-0.75 0.45L-0.7 0.45M-0.95,0.35L-0.9 0.35L-0.95 0.35M-1.05,0.3L-1.05 0.25L-1 0.35L-1.05 0.3M-1.05,0.4L-1 0.4L-1.05 0.4M-1.05,0.45L-1 0.45L-1.05 0.45M-1,0.45L-0.95 0.45L-1 0.45M-0.9,0.5L-0.9 0.55L-0.9 0.5L-0.95 0.5L-0.9 0.5M-0.9,0.65L-0.9 0.6L-0.9 0.55L-0.85 0.55L-0.85 0.5L-0.8 0.5L-0.8 0.55L-0.85 0.55L-0.85 0.6L-0.9 0.65M-0.8,0.35L-0.8 0.3L-0.8 0.35M-0.75,0.45L-0.75 0.5L-0.75 0.55L-0.75 0.5L-0.75 0.45M-0.75,0.55L-0.7 0.55L-0.65 0.6L-0.75 0.55M-0.9,0.55L-0.9 0.6L-0.85 0.55L-0.9 0.55" />
<path style="fill:#FFFFFF;fill-opacity:0.74902" d="M-1.15,0.2L-1.15 0.15L-1.1 0.2L-0.95 0.3L-1.1 0.25L-1.1 0.2L-1.15 0.2M-1,0.6L-1.1 0.65L-1.05 0.6L-1 0.55L-1 0.5L-0.95 0.5L-0.95 0.45L-0.95 0.5L-1 0.55L-1 0.6M-1.1,0.6L-1.05 0.55L-1 0.55L-1.1 0.6M-0.85,0.55L-0.9 0.55L-0.9 0.5L-0.85 0.5L-0.85 0.55M-0.6,0.2L-0.65 0.25L-0.6 0.2M-0.75,0.35L-0.75 0.4L-0.75 0.35M-0.75,0.4L-0.8 0.4L-0.75 0.4M-0.75,0.5L-0.8 0.5L-0.75 0.45L-0.75 0.5L-0.75 0.55L-0.75 0.5M-1.1,0.65L-1.2 0.7L-1.15 0.65L-1.1 0.65" />
<path style="fill:#FFFFFF;fill-opacity:0.796078" d="M-0.95,0.3L-0.95 0.35L-0.9 0.35L-0.95 0.35L-0.95 0.3M-0.95,0.45L-0.95 0.5L-0.95 0.45M-1.1,0.2L-1.1 0.25L-1.15 0.2L-1.1 0.2M-0.95,0.4L-1 0.35L-0.95 0.4M-0.95,0.5L-1 0.55L-0.95 0.5M-1.15,0.65L-1.1 0.6L-1 0.55L-1.05 0.55L-1.15 0.65M-0.65,0.7L-0.65 0.65L-0.7 0.65L-0.75 0.55L-0.75 0.5L-0.8 0.5L-0.85 0.5L-0.8 0.5L-0.75 0.5L-0.75 0.55L-0.6 0.7M-0.85,0.5L-0.9 0.5L-0.85 0.5M-0.8,0.5L-0.8 0.55L-0.8 0.5M-0.6,0.7L-0.65 0.7" />
<path style="fill:#FFFFFF;fill-opacity:0.847059" d="M-0.65,0.25L-0.75 0.35L-0.8 0.4L-0.8 0.35L-0.65 0.25L-0.7 0.3L-0.65 0.25M-0.85,0.35L-0.85 0.4L-0.85 0.35M-0.95,0.3L-0.95 0.35L-1 0.35L-1.05 0.25L-1.1 0.25L-0.95 0.3M-1.1,0.2L-1.1 0.25L-1.1 0.2M-0.9,0.5L-0.95 0.5L-0.9 0.5L-0.85 0.5L-0.8 0.5L-0.85 0.5L-0.9 0.5M-0.7,0.65L-0.75 0.55L-0.75 0.5L-0.8 0.5L-0.8 0.45L-0.75 0.45L-0.8 0.5L-0.75 0.5L-0.75 0.55L-0.7 0.65M-1.05,0.55L-1.1 0.65L-1.15 0.65L-1.05 0.55M-0.75,0.35L-0.7 0.3L-0.75 0.35L-0.75 0.4L-0.75 0.35M-0.8,0.5L-0.8 0.55L-0.8 0.5M-0.7,0.6L-0.75 0.6L-0.7 0.6M-0.65,0.65L-0.65 0.7L-0.65 0.65" />
<path style="fill:#FFFFFF;fill-opacity:0.647059" d="M-0.95,0.35L-0.95 0.3L-0.95 0.35L-0.9 0.35L-0.85 0.35L-0.9 0.35L-0.95 0.35M-0.65,0.25L-0.8 0.35L-0.8 0.4L-0.85 0.4L-0.85 0.35L-0.8 0.35L-0.65 0.25M-1,0.35L-1.05 0.3L-1 0.35L-0.95 0.4L-1 0.4L-1 0.35M-1,0.4L-0.95 0.4L-0.95 0.45L-1 0.4M-1,0.5L-1 0.45L-0.95 0.45L-1 0.5M-1.2,0.7L-1.25 0.7L-1.2 0.65L-1.2 0.7M-0.85,0.5L-0.85 0.55L-0.85 0.5M-0.5,0.15L-0.55 0.2L-0.6 0.2L-0.5 0.15M-0.75,0.5L-0.75 0.55L-0.75 0.5M-0.8,0.55L-0.75 0.6L-0.65 0.65L-0.6 0.7L-0.75 0.6L-0.8 0.55M-0.55,0.75L-0.55 0.8L-0.55 0.75L-0.65 0.65L-0.55 0.75" />
<path style="fill:#FFFFFF;fill-opacity:0.396078" d="M-0.9,0.35L-0.95 0.3L-0.9 0.35L-0.85 0.35L-0.9 0.35M-1,0.25L-1.05 0.25L-1.15 0.15L-1.05 0.25L-0.95 0.3L-1 0.25M-0.85,0.3L-0.85 0.35L-0.85 0.3M-1.35,0L-1.3 0L-1.25 0.1L-1.35 0M-1,0.45L-1 0.5L-1.05 0.55L-1.15 0.6L-1.25 0.7L-1.1 0.55L-1 0.5L-1 0.45L-1.05 0.45L-1.1 0.4L-1.05 0.4L-1 0.45M-1.35,0.8L-1.35 0.85L-1.35 0.8L-1.4 0.85L-1.35 0.8L-1.3 0.75L-1.25 0.7L-1.3 0.75L-1.25 0.75L-1.35 0.8M-0.95,0.55L-0.9 0.55L-0.95 0.55M-0.75,0.4L-0.75 0.35L-0.75 0.4L-0.75 0.45L-0.75 0.4M-0.35,0.05L-0.45 0.1L-0.4 0.1L-0.35 0.05M-0.45,0.1L-0.5 0.15L-0.55 0.15L-0.65 0.25L-0.75 0.3L-0.65 0.2L-0.45 0.1M-0.75,0.6L-0.8 0.6L-0.75 0.6M-0.9,0.55L-0.85 0.55L-0.8 0.6L-0.85 0.55L-0.9 0.6M-0.9,0.6L-0.9 0.55" />
<path style="fill:#FFFFFF;fill-opacity:0.345098" d="M-0.9,0.35L-0.85 0.35L-0.9 0.35M-1.2,0.15L-1.3 0L-1.35 0L-1.2 0.15M-1.25,0.1L-1.05 0.35L-1 0.35L-1 0.4L-1.05 0.35L-1.35 0L-1.25 0.1M-1.05,0.4L-1 0.4L-1.05 0.4M-1,0.5L-1 0.45L-1 0.5M-1.05,0.45L-1.1 0.4L-1.05 0.45M-0.95,0.55L-0.95 0.6L-1 0.6L-1.05 0.65L-1 0.6L-0.95 0.55L-0.9 0.55L-0.95 0.55M-0.55,0.15L-0.35 0.05L-0.55 0.2L-0.75 0.4L-0.75 0.35L-0.45 0.1L-0.35 0.05L-0.4 0.1M-0.4,0.1L-0.45 0.1L-0.65 0.2L-0.55 0.15M-0.4,0.9L-0.45 0.85L-0.4 0.9M-1.4,0.85L-1.35 0.8L-1.35 0.85L-1.4 0.85M-1.05,0.65L-1.1 0.65L-1.15 0.7L-1.35 0.8L-1.05 0.65M-0.6,0.75L-0.45 0.85L-0.6 0.75M-0.85,0.55L-0.8 0.6L-0.85 0.55" />
<path style="fill:#FFFFFF;fill-opacity:0.447059" d="M-0.95,0.3L-0.9 0.35L-0.95 0.35L-0.95 0.3M-1.05,0.35L-1.25 0.1L-1.3 0L-1.2 0.15L-1.3 0.05L-1.25 0.05L-1.05 0.3L-1 0.35L-1.05 0.35M-1,0.35L-1 0.4L-1 0.35M-1,0.45L-1.05 0.4L-1 0.4L-1 0.45M-1.2,0.65L-1.25 0.7L-1.15 0.6L-1.15 0.65L-1.2 0.65M-0.9,0.55L-0.95 0.55L-0.9 0.55M-0.45,0.15L-0.45 0.1L-0.4 0.1L-0.45 0.1L-0.75 0.35L-0.75 0.4L-0.6 0.2L-0.55 0.2L-0.5 0.15L-0.45 0.15M-0.8,0.35L-0.8 0.3L-0.75 0.3L-0.8 0.35M-1.05,0.65L-1.35 0.8L-1.25 0.75L-1.2 0.7L-1.05 0.65M-0.55,0.75L-0.5 0.8L-0.5 0.85L-0.45 0.85L-0.6 0.75L-0.75 0.6L-0.6 0.7L-0.55 0.75" />
<path style="fill:#FFFFFF;fill-opacity:0.247059" d="M-0.85,0.3L-0.85 0.35L-0.85 0.3M-0.95,0.3L-1.05 0.25L-1.15 0.15L-1.2 0.15L-1.35 0L-1.4 -0.05L-0.95 0.3M-0.8,0.35L-0.85 0.35L-0.8 0.35M-1,0.4L-1.05 0.4L-1 0.4M-0.35,0.05L-0.55 0.25L-0.55 0.2L-0.35 0.05L-0.3 0L-0.35 0.05M-0.45,0.85L-0.35 0.95L-0.45 0.85M-0.7,0.45L-0.75 0.4L-0.7 0.45M-0.75,0.55L-0.75 0.5L-0.7 0.55L-0.75 0.55M-1.15,0.7L-1.25 0.75L-1.35 0.85L-1.35 0.8L-1.15 0.7M-0.8,0.6L-0.85 0.55L-0.85 0.6L-0.85 0.55L-0.8 0.6M-0.9,0.7L-0.9 0.65L-0.85 0.6L-0.85 0.65L-0.9 0.7" />
<path style="fill:#FFFFFF;fill-opacity:0.294118" d="M-0.9,0.35L-0.85 0.3L-0.85 0.35L-0.9 0.35M-0.95,0.3L-1.05 0.25L-0.95 0.3M-0.8,0.35L-0.85 0.35L-0.8 0.35M-1,0.4L-1.05 0.4L-1.05 0.35L-1 0.4M-1.25,0.4L-1.1 0.4L-1.05 0.4L-1.1 0.4L-1.05 0.45L-1.1 0.45L-1.25 0.4M-1,0.45L-1 0.5L-1.1 0.55L-1.05 0.55L-1.05 0.5L-1 0.5L-1 0.45M-0.7,0.45L-0.75 0.45L-0.75 0.4L-0.55 0.2L-0.55 0.25L-0.75 0.4L-0.7 0.45L-0.75 0.45L-0.7 0.45L-0.55 0.45L-0.7 0.45M-0.55,0.15L-0.5 0.1L-0.45 0.1L-0.35 0.05L-0.3 0L-0.35 0.05L-0.55 0.15M-0.65,0.2L-0.75 0.3L-0.8 0.3L-0.65 0.2M-0.75,0.55L-0.75 0.5L-0.75 0.55M-1.45,0.85L-1.4 0.85L-1.35 0.85L-1.45 0.85M-0.8,0.6L-0.75 0.6L-0.8 0.6M-0.9,0.6L-0.9 0.55L-0.9 0.6" />
<path style="fill:#FFFFFF;fill-opacity:0.196078" d="M-0.85,0.25L-0.85 0.2L-0.85 0.3L-0.85 0.25M-0.85,0.35L-0.85 0.3L-0.85 0.35M-0.95,0.3L-0.9 0.3L-0.9 0.35L-0.95 0.3M-0.9,0.3L-0.9 0.35L-0.9 0.3M-0.8,0.35L-0.8 0.3L-0.8 0.35M-1,0.4L-1.05 0.4L-1.05 0.35L-1.05 0.4L-1 0.4M-1.2,0.2L-1.4 -0.05L-1.45 -0.1L-1.4 -0.05L-1.35 0L-1.05 0.35L-1.2 0.2M-1.25,0.7L-1.05 0.55L-1.05 0.5L-1.05 0.55L-1.1 0.55L-1.25 0.7M-0.3,1L-0.35 1L-0.35 0.95L-0.3 1M-0.45,0.85L-0.35 0.95L-0.65 0.7L-0.75 0.65L-0.75 0.6L-0.8 0.6L-0.75 0.6L-0.6 0.75L-0.45 0.85M-1.25,0.75L-1.45 0.9L-1.5 0.9L-1.45 0.9L-1.45 0.85M-0.7,0.4L-0.65 0.45L-0.55 0.45L-0.7 0.45L-0.75 0.4L-0.7 0.4M-0.75,0.5L-0.75 0.45L-0.75 0.5M-0.7,0.45L-0.55 0.45L-0.7 0.45M-1.45,0.85L-1.35 0.85L-1.25 0.75M-0.85,0.55L-0.8 0.6L-0.85 0.55" />
<path style="fill:#FFFFFF;fill-opacity:0.0941176" d="M-0.85,0.3L-0.9 0.35L-0.9 0.3L-0.85 0.25L-0.85 0.3L-0.85 0.2L-0.85 0.15L-0.85 0.25L-0.85 0.2L-0.85 0.25L-0.85 0.3M-0.85,0.1L-0.85 0.15L-0.85 0.1M-1.45,-0.1L-1.5 -0.15L-1.45 -0.1L-1.4 -0.05L-1.45 -0.1M-1,0.4L-1.05 0.4L-1 0.4M-1.1,0.4L-1.05 0.4L-1.1 0.4M-1.3,0.4L-1.25 0.4L-1.1 0.45L-1.3 0.4M-1.05,0.45L-1.1 0.45L-1.05 0.45M-1.05,0.5L-1 0.45L-1.05 0.5M-1.45,0.9L-1.5 0.95L-1.55 1L-1.3 0.7L-1.3 0.75L-1.35 0.8L-1.4 0.85L-1.45 0.85L-1.45 0.9M-0.3,0L-0.35 0.05L-0.45 0.1L-0.5 0.1L-0.75 0.3L-0.8 0.3L-0.75 0.3L-0.75 0.25L-0.45 0.1L-0.2 -0.05M-0.6,0.3L-0.7 0.4L-0.6 0.3M-0.45,0.45L-0.5 0.45L-0.65 0.45L-0.7 0.45L-0.55 0.45L-0.45 0.45M-0.65,0.55L-0.4 0.9L-0.65 0.6L-0.7 0.55L-0.7 0.5L-0.75 0.5L-0.7 0.5L-0.7 0.55L-0.65 0.55M-0.35,1L-0.35 0.95L-0.25 1.05L-0.3 1L-0.35 0.95L-0.65 0.7L-0.35 0.95L-0.35 1M-0.75,0.45L-0.75 0.5L-0.75 0.45M-0.5,0.45L-0.55 0.45L-0.5 0.45M-0.95,0.6L-0.95 0.55L-0.95 0.6M-0.9,0.55L-0.9 0.6L-0.9 0.55M-0.85,0.6L-0.85 0.55L-0.85 0.6M-0.2,-0.05L-0.25 -0.05L-0.3 0" />
<path style="fill:#FFFFFF;fill-opacity:0.113725" d="M-0.65,0.45L-0.65 0.4L-0.55 0.45L-0.65 0.45" />
<path style="fill:#FFFFFF;fill-opacity:0.00392157" d="M-0.8,0.3L-0.85 0.3L-0.8 0.3M-0.95,0.3L-0.9 0.3L-0.95 0.3M-1.05,0.35L-1.05 0.4L-1.05 0.35M-1.05,0.45L-1.05 0.5L-1.05 0.45M-0.7,0.5L-0.7 0.45L-0.7 0.55L-0.7 0.5M-0.95,0.6L-0.9 0.65L-1 0.6L-0.95 0.6M-0.85,0.65L-0.8 0.6L-0.85 0.65" />
<path style="fill:#FFFFFF;fill-opacity:0.898039" d="M-0.9,0.4L-0.9 0.35L-0.85 0.35L-0.9 0.4M-0.95,0.35L-0.9 0.35L-0.95 0.35M-1.1,0.2L-1.1 0.25L-1.05 0.3L-1.05 0.25L-1.1 0.25L-1.1 0.2M-1,0.35L-1.05 0.3L-1 0.35L-0.95 0.4L-1 0.35M-0.95,0.45L-0.95 0.4L-0.95 0.45M-0.95,0.5L-1 0.55L-0.95 0.5L-1 0.55L-1.05 0.6L-1 0.55L-1.05 0.6L-1.1 0.65L-1.05 0.55L-1 0.55L-0.95 0.5M-0.8,0.55L-0.75 0.55L-0.8 0.55M-0.8,0.45L-0.8 0.4L-0.8 0.45L-0.75 0.45L-0.8 0.45M-0.7,0.3L-0.75 0.35L-0.65 0.25L-0.7 0.3L-0.75 0.35L-0.7 0.3M-0.75,0.4L-0.8 0.4L-0.75 0.4M-0.65,0.65L-0.7 0.65L-0.65 0.65" />
<path style="fill:#FFFFFF;fill-opacity:0.94902" d="M-0.9,0.35L-0.9 0.4L-0.85 0.35L-0.85 0.4L-0.9 0.4L-0.95 0.35L-0.9 0.35M-1.05,0.3L-1.1 0.25L-1.05 0.25L-1.05 0.3L-1 0.35L-1.05 0.3M-0.95,0.4L-0.95 0.45L-0.95 0.4M-1,0.55L-0.95 0.5L-0.9 0.5L-0.95 0.5L-1 0.55M-0.8,0.5L-0.8 0.45L-0.8 0.5L-0.75 0.5L-0.8 0.5L-0.8 0.55L-0.8 0.5M-0.75,0.6L-0.7 0.65L-0.7 0.6L-0.75 0.6M-0.75,0.4L-0.8 0.4L-0.75 0.35L-0.7 0.3L-0.75 0.35L-0.8 0.4L-0.75 0.35L-0.7 0.3L-0.75 0.35M-0.75,0.35L-0.75 0.4" />
<path style="fill:#FFFFFF;fill-opacity:0.145098" d="M-1.4,-0.05L-1.45 -0.1L-0.95 0.25L-0.95 0.3L-0.9 0.3L-0.9 0.35L-0.9 0.3L-0.95 0.3L-1.4 -0.05M-0.8,0.35L-0.85 0.35L-0.8 0.35L-0.8 0.3L-0.8 0.35M-1.05,0.4L-1 0.4L-1.05 0.4M-1,0.45L-1 0.5L-1.05 0.5L-1 0.45M-1.3,0.75L-1.35 0.8L-1.3 0.75L-1.3 0.7L-1.1 0.55L-1.05 0.55L-1.05 0.5L-1.05 0.55L-1.25 0.7L-1.3 0.75M-1.05,0.65L-1 0.6L-0.95 0.6L-0.95 0.55L-0.9 0.55L-0.95 0.55L-0.95 0.6L-1 0.6L-1 0.65L-1.45 0.9L-1.5 0.9L-1.5 0.95L-1.45 0.9L-1.25 0.75L-1.15 0.7L-1.1 0.65L-1.05 0.65M-0.6,0.3L-0.7 0.4L-0.75 0.4L-0.55 0.25L-0.35 0.05L-0.3 0L-0.25 -0.05L-0.6 0.3M-0.55,0.15L-0.65 0.2L-0.8 0.3L-0.75 0.3L-0.5 0.1L-0.55 0.15M-0.9,0.8L-0.9 0.65L-0.9 0.7L-0.9 0.8M-0.65,0.6L-0.7 0.55L-0.75 0.5L-0.75 0.45L-0.7 0.45L-0.75 0.45L-0.75 0.5L-0.7 0.5M-0.7,0.5L-0.7 0.55L-0.65 0.6M-0.55,0.45L-0.5 0.45L-0.55 0.45M-0.9,0.6L-0.9 0.65L-0.9 0.6L-0.9 0.55L-0.9 0.6L-0.9 0.55L-0.9 0.6M-0.85,0.6L-0.85 0.55L-0.85 0.6M-1.1,0.45L-1.25 0.4L-1.1 0.45M-0.35,0.95L-0.3 1L-0.35 0.95" />
<path style="fill:#FFFFFF;fill-opacity:0.596078" d="M-1,0.25L-0.95 0.3L-0.95 0.35L-0.9 0.35L-0.95 0.35L-0.95 0.3L-1.05 0.25L-1 0.25M-0.85,0.4L-0.85 0.35L-0.85 0.4M-0.95,0.4L-1 0.4L-0.95 0.45L-1 0.4L-0.95 0.4M-1.05,0.55L-1 0.5L-1 0.45L-1 0.5M-1,0.5L-1.05 0.55L-1.1 0.6L-1.15 0.65L-1.15 0.6L-1.05 0.55M-1,0.55L-0.95 0.5L-0.95 0.55L-1 0.55M-0.9,0.55L-0.9 0.5L-0.9 0.55M-0.85,0.55L-0.8 0.55L-0.85 0.55M-0.7,0.3L-0.65 0.25L-0.6 0.2L-0.55 0.2L-0.5 0.15L-0.55 0.2L-0.6 0.2L-0.75 0.4L-0.7 0.3M-1.25,0.75L-1.2 0.7L-1.25 0.75M-1.1,0.65L-1.2 0.7L-1.1 0.65M-0.55,0.8L-0.5 0.8L-0.55 0.75L-0.55 0.8M-0.65,0.65L-0.7 0.6L-0.55 0.75L-0.65 0.65" />
<path style="fill:#FFFFFF;fill-opacity:0.498039" d="M-1.25,0.05L-1.3 0.05L-1.2 0.15L-1.15 0.15L-1.05 0.25L-1.25 0.05M-0.65,0.25L-0.8 0.35L-0.85 0.35L-0.8 0.35L-0.75 0.3L-0.65 0.25M-1.05,0.3L-1 0.35L-1.05 0.3M-1,0.45L-1 0.4L-1 0.35L-1 0.4M-1,0.4L-0.95 0.45L-1 0.45L-1 0.5L-1 0.45M-1.05,0.55L-1.15 0.6L-1.05 0.55M-0.9,0.55L-0.9 0.5L-0.9 0.55M-0.8,0.6L-0.75 0.6L-0.8 0.6L-0.85 0.55L-0.8 0.55L-0.8 0.6M-0.55,0.15L-0.5 0.15L-0.45 0.1L-0.45 0.15L-0.55 0.15M-0.75,0.45L-0.75 0.4L-0.75 0.45M-0.55,0.7L-0.45 0.85L-0.5 0.85L-0.55 0.7" />
<path style="fill:#FFFFFF;fill-opacity:0.00784314" d="M-0.8,0.3L-0.85 0.3L-0.8 0.3M-0.7,0.5L-0.7 0.45L-0.7 0.5" />
<path style="fill:#FFFFFF;fill-opacity:0.0156863" d="M-0.8,0.3L-0.85 0.3L-0.8 0.3" />
<path style="fill:#FFFFFF;fill-opacity:0.0352941" d="M-0.8,0.6L-0.85 0.6L-0.8 0.6M-0.95,0.55L-0.9 0.6L-0.95 0.6L-0.95 0.55" />
<path style="fill:#FFFFFF;fill-opacity:0.0235294" d="M-1.05,0.5L-1.05 0.45L-1.05 0.5M-0.75,0.4L-0.7 0.4L-0.75 0.4" />
<path style="fill:#FFFFFF;fill-opacity:0.027451" d="M-0.85,0.35L-0.85 0.3L-0.8 0.35L-0.85 0.35M-1.05,0.4L-1 0.4L-1.05 0.4M-0.85,0.6L-0.8 0.6L-0.85 0.6" />
<path style="fill:#FFFFFF;fill-opacity:0.0313725" d="M-1.05,0.45L-1 0.45L-1.05 0.45M-0.75,0.45L-0.75 0.5L-0.75 0.45M-0.85,0.6L-0.8 0.6L-0.85 0.6M-0.95,0.6L-0.9 0.6L-0.95 0.6" />
<path style="fill:#FFFFFF;fill-opacity:0" d="M-1.05,0.45L-1.05 0.5L-1.1 0.45L-1.05 0.45M-0.75,0.6L-0.75 0.65L-0.85 0.65L-0.8 0.6L-0.75 0.6" />
<path style="fill:#FFFFFF;fill-opacity:0.0196078" d="M-1.05,0.5L-1.05 0.45L-1.05 0.5M-0.8,0.6L-0.85 0.6L-0.8 0.6" />
<path style="fill:#FFFFFF;fill-opacity:0.0392157" d="M-0.8,0.6L-0.85 0.6L-0.8 0.6" />
<path style="fill:#FFFFFF;fill-opacity:0.0470588" d="M-0.8,0.6L-0.85 0.6L-0.8 0.6" />
<path style="fill:#FFFFFF;fill-opacity:0.0784314" d="M-0.95,0.6L-0.9 0.6L-0.95 0.6" />
</g>
</svg>
