<?xml version="1.0" encoding="utf-8"?>
<svg version="1.1" id="Layer_1"
xmlns="http://www.w3.org/2000/svg"
xmlns:xlink="http://www.w3.org/1999/xlink"
xmlns:author="http://www.sothink.com"
width="8px" height="5px"
xml:space="preserve">
<g id="25" transform="matrix(1, 0, 0, 1, 0, 0)">
<radialGradient
id="RadialGradID_263" gradientUnits="userSpaceOnUse" gradientTransform="matrix(0.000167847, -0.000610352, 0.000854492, 0.000228882, 0.7, 1.45)" spreadMethod ="pad" cx="0" cy="0" r="819.2" fx="0" fy="0" >
<stop  offset="0.211765"  style="stop-color:#E66A4D;stop-opacity:0.592157" />
<stop  offset="1"  style="stop-color:#FFECD9;stop-opacity:0.0313725" />
</radialGradient>
<path style="fill:url(#RadialGradID_263) " d="M0,1.25L0.3 0.9L0.8 0.9L1.3 1.2L1.4 1.65L1.1 1.9L0.55 1.9Q0.25 1.85 0.1 1.65L0 1.25" />
<radialGradient
id="RadialGradID_264" gradientUnits="userSpaceOnUse" gradientTransform="matrix(-0.000259399, -0.000579834, -0.000808716, 0.000366211, 6.6, 1.45)" spreadMethod ="pad" cx="0" cy="0" r="819.2" fx="0" fy="0" >
<stop  offset="0.211765"  style="stop-color:#E66A4D;stop-opacity:0.592157" />
<stop  offset="1"  style="stop-color:#FFECD9;stop-opacity:0.0313725" />
</radialGradient>
<path style="fill:url(#RadialGradID_264) " d="M7.25,1.15Q7.15 0.95 6.9 0.9L6.4 0.95L6 1.3Q5.85 1.55 5.95 1.75L6.3 1.95L6.8 1.9L7.2 1.55L7.25 1.15" />
<radialGradient
id="RadialGradID_265" gradientUnits="userSpaceOnUse" gradientTransform="matrix(-0.00306702, 0, 0, 0.00175476, 4.2, 3.5)" spreadMethod ="pad" cx="0" cy="0" r="819.2" fx="0" fy="0" >
<stop  offset="0"  style="stop-color:#E9765A;stop-opacity:0.643137" />
<stop  offset="1"  style="stop-color:#FFECD9;stop-opacity:0.101961" />
</radialGradient>
<path style="fill:url(#RadialGradID_265) " d="M6.05,2.8L6.15 3.45Q6.15 3.95 5.75 4.4L4.05 4.65L2.05 4.05Q1.4 3.6 1.25 3.15L2 3.4L4.25 3.65L5.2 3.3Q5.45 3.1 6.05 2.8" />
<radialGradient
id="RadialGradID_266" gradientUnits="userSpaceOnUse" gradientTransform="matrix(0.00424194, 0, 0, 0.0018158, 3.55, 1.85)" spreadMethod ="pad" cx="0" cy="0" r="819.2" fx="0" fy="0" >
<stop  offset="0.0705882"  style="stop-color:#ED6E68;stop-opacity:1" />
<stop  offset="1"  style="stop-color:#FFA896;stop-opacity:0.25098" />
</radialGradient>
<path style="fill:url(#RadialGradID_266) " d="M6.3,1.45L5.05 1.55L3.55 1.75L2 1.5L0.85 1.45L0.7 1.4L1.65 1.1L2.6 0.85L3.6 1.1L4.55 0.85L5.5 1.1L6.5 1.4L6.3 1.45" />
<radialGradient
id="RadialGradID_267" gradientUnits="userSpaceOnUse" gradientTransform="matrix(0.00401306, 0, 0, 0.00401306, 3.7, 2.2)" spreadMethod ="pad" cx="0" cy="0" r="819.2" fx="0" fy="0" >
<stop  offset="0.694118"  style="stop-color:#BA4C4C;stop-opacity:1" />
<stop  offset="1"  style="stop-color:#5C1717;stop-opacity:1" />
</radialGradient>
<path style="fill:url(#RadialGradID_267) " d="M6.25,1.85L5.1 2.45L3.65 2.75Q2.85 2.75 2.05 2.3L0.95 1.8L0.65 1.65L0.6 1.55L0.6 1.4L0.7 1.4L0.85 1.45L2 1.5L3.55 1.75L5.05 1.55L6.3 1.45L6.5 1.4L6.55 1.4L6.6 1.55L6.5 1.65L6.25 1.85" />
<radialGradient
id="RadialGradID_268" gradientUnits="userSpaceOnUse" gradientTransform="matrix(0.00488281, 0, 0, 0.00265503, 3.55, 1.85)" spreadMethod ="pad" cx="0" cy="0" r="819.2" fx="0" fy="0" >
<stop  offset="0.301961"  style="stop-color:#ED7C76;stop-opacity:1" />
<stop  offset="0.596078"  style="stop-color:#FF4C4C;stop-opacity:0.321569" />
<stop  offset="0.882353"  style="stop-color:#FF3A19;stop-opacity:0.572549" />
</radialGradient>
<path style="fill:url(#RadialGradID_268) " d="M6.5,1.65L5.25 3.3L4.2 3.7L3.8 3.7L3.1 3.7L2.5 3.6L2 3.35L1.65 3L1.3 2.65L0.65 1.65L0.95 1.8L2.05 2.3Q2.85 2.75 3.65 2.75L5.1 2.45L6.25 1.85L6.5 1.65" />
<path style="fill:#FFFFFF;fill-opacity:1" d="M1.35,1.7Q1.2 1.5 1.6 1.6L2.4 1.7L3.55 1.85L5 1.7L5.95 1.6L6.1 1.55L5.9 1.85L5.55 2.05L5.1 2.25L3.65 2.6L2.35 2.35L1.65 2L1.35 1.7" />
<radialGradient
id="RadialGradID_269" gradientUnits="userSpaceOnUse" gradientTransform="matrix(0.000961304, 0, 0, 0.000961304, 3.7, 1)" spreadMethod ="pad" cx="0" cy="0" r="819.2" fx="0" fy="0" >
<stop  offset="0.180392"  style="stop-color:#FAFEFF;stop-opacity:0.572549" />
<stop  offset="1"  style="stop-color:#FAFDFE;stop-opacity:0" />
</radialGradient>
<path style="fill:url(#RadialGradID_269) " d="M4.25,0.4Q4.25 0.75 4.5 0.8L4.5 0.85L4.45 0.8L3.9 1L3.5 1.05L2.7 0.85L2.65 0.85Q2.75 0.7 3.1 0.7L3.5 0.75L3.95 0.35Q4.05 0 4.2 0L4.25 0.4" />
<radialGradient
id="RadialGradID_270" gradientUnits="userSpaceOnUse" gradientTransform="matrix(0.0020752, 0, 0, 0.0020752, 3.85, 1.3)" spreadMethod ="pad" cx="0" cy="0" r="819.2" fx="0" fy="0" >
<stop  offset="0.180392"  style="stop-color:#FDC6CB;stop-opacity:0.572549" />
<stop  offset="1"  style="stop-color:#F7B4BB;stop-opacity:0" />
</radialGradient>
<path style="fill:url(#RadialGradID_270) " d="M3.9,1.05L4.45 1L5.1 1.1L5.4 1.4L5.4 1.45L5.2 1.45L4.2 1.4L3.75 1.4L3.7 1.25L3.9 1.05" />
<radialGradient
id="RadialGradID_271" gradientUnits="userSpaceOnUse" gradientTransform="matrix(-3.05176e-005, 0.000518799, -0.0015564, -0.000106812, 3.85, 3.2)" spreadMethod ="pad" cx="0" cy="0" r="819.2" fx="0" fy="0" >
<stop  offset="0.180392"  style="stop-color:#FAFEFF;stop-opacity:0.921569" />
<stop  offset="1"  style="stop-color:#FAFDFE;stop-opacity:0" />
</radialGradient>
<path style="fill:url(#RadialGradID_271) " d="M4.1,3L5 3.05L5 3.35L4.6 3.5L4.25 3.55L3.75 3.6L3.1 3.45Q2.75 3.35 2.8 3.2L3.65 3L4.1 3" />
<radialGradient
id="RadialGradID_272" gradientUnits="userSpaceOnUse" gradientTransform="matrix(0.00146484, 0, 0, 0.00146484, 5.45, 2.45)" spreadMethod ="pad" cx="0" cy="0" r="819.2" fx="0" fy="0" >
<stop  offset="0.180392"  style="stop-color:#FDC6CB;stop-opacity:0.572549" />
<stop  offset="1"  style="stop-color:#F7B4BB;stop-opacity:0" />
</radialGradient>
<path style="fill:url(#RadialGradID_272) " d="M6.15,2.05L5.7 2.6L5.5 2.65L4.3 2.8L6.1 2.05L6.15 2.05" />
<radialGradient
id="RadialGradID_273" gradientUnits="userSpaceOnUse" gradientTransform="matrix(0.00137329, 0, 0, 0.00137329, 1.55, 2.15)" spreadMethod ="pad" cx="0" cy="0" r="819.2" fx="0" fy="0" >
<stop  offset="0.180392"  style="stop-color:#FDC6CB;stop-opacity:0.572549" />
<stop  offset="1"  style="stop-color:#F7B4BB;stop-opacity:0" />
</radialGradient>
<path style="fill:url(#RadialGradID_273) " d="M1,1.95L1.95 2.4L2.45 2.65L2.05 2.65L1.55 2.5L0.9 2L1 1.95" />
</g>
</svg>
