<?xml version="1.0" encoding="utf-8"?>
<svg version="1.1" id="Layer_1"
xmlns="http://www.w3.org/2000/svg"
xmlns:xlink="http://www.w3.org/1999/xlink"
xmlns:author="http://www.sothink.com"
width="12px" height="8px"
xml:space="preserve">
<g id="34" transform="matrix(1, 0, 0, 1, 5.65, 3.85)">
<radialGradient
id="RadialGradID_349" gradientUnits="userSpaceOnUse" gradientTransform="matrix(0.00186157, -0.000610352, 0.00163269, 0.00494385, 4.35, -1.55)" spreadMethod ="pad" cx="0" cy="0" r="819.2" fx="0" fy="0" >
<stop  offset="0"  style="stop-color:#FACBBE;stop-opacity:0.482353" />
<stop  offset="1"  style="stop-color:#FCDCC9;stop-opacity:0" />
</radialGradient>
<path style="fill:url(#RadialGradID_349) " d="M4.85,-2.75L5.45 -2.1L5.65 -1.5L5.3 -1.05L4.35 -0.15L4.35 -0.5L4.35 -0.6L4.5 -1.4L4.35 -1.85L3.85 -2.75L3.1 -3.45L3.3 -3.85Q4.5 -3.2 4.85 -2.75" />
<radialGradient
id="RadialGradID_350" gradientUnits="userSpaceOnUse" gradientTransform="matrix(0.0015564, 0.00088501, -0.0020752, 0.00364685, -4.4, -1.45)" spreadMethod ="pad" cx="0" cy="0" r="819.2" fx="0" fy="0" >
<stop  offset="0"  style="stop-color:#F2A08C;stop-opacity:0.360784" />
<stop  offset="1"  style="stop-color:#FFE6CC;stop-opacity:0" />
</radialGradient>
<path style="fill:url(#RadialGradID_350) " d="M-4.45,-1.6L-5 -0.5L-5.2 -0.6L-5.3 -0.4L-5.15 0.4L-5.2 0.4L-5.5 -0.25L-5.6 -1.15L-4.85 -2.55L-3.2 -3.7Q-3.5 -2.9 -3.95 -2.3L-4.45 -1.6" />
<radialGradient
id="RadialGradID_351" gradientUnits="userSpaceOnUse" gradientTransform="matrix(0.000564575, 0.000518799, -0.000762939, 0.000839233, -4.9, -1.35)" spreadMethod ="pad" cx="0" cy="0" r="819.2" fx="0" fy="0" >
<stop  offset="0.203922"  style="stop-color:#FF7357;stop-opacity:0.45098" />
<stop  offset="1"  style="stop-color:#FFECD9;stop-opacity:0.0313725" />
</radialGradient>
<path style="fill:url(#RadialGradID_351) " d="M-4.55,-2Q-4.5 -2 -4.35 -2.1L-4.2 -1.85L-4.9 -1.25L-5.05 -1.05L-5.1 -0.7Q-5.8 -1.15 -5.1 -1.7L-4.55 -2" />
<radialGradient
id="RadialGradID_352" gradientUnits="userSpaceOnUse" gradientTransform="matrix(0.000640869, -0.000320435, 0.000732422, 0.00141907, 4.75, -1.8)" spreadMethod ="pad" cx="0" cy="0" r="819.2" fx="0" fy="0" >
<stop  offset="0"  style="stop-color:#FF7357;stop-opacity:0.45098" />
<stop  offset="1"  style="stop-color:#FFECD9;stop-opacity:0.0313725" />
</radialGradient>
<path style="fill:url(#RadialGradID_352) " d="M4.25,-2.4L4.3 -2.6L4.85 -2.15L5.15 -1.8L5.2 -1.7L5.25 -1.25L5.2 -0.85L5.1 -0.7L4.75 -1.6L4.3 -2.25L4.25 -2.4" />
<radialGradient
id="RadialGradID_353" gradientUnits="userSpaceOnUse" gradientTransform="matrix(0.00462341, 0, 0, 0.00233459, 0.7, 2.05)" spreadMethod ="pad" cx="0" cy="0" r="819.2" fx="0" fy="0" >
<stop  offset="0.176471"  style="stop-color:#E9765A;stop-opacity:0.643137" />
<stop  offset="1"  style="stop-color:#FFECD9;stop-opacity:0.121569" />
</radialGradient>
<path style="fill:url(#RadialGradID_353) " d="M3.05,3.3Q2.1 3.85 0.7 3.85Q-0.65 3.85 -1.6 3.3Q-2.6 2.8 -2.6 2.05Q-2.6 1.3 -1.6 0.8Q-0.65 0.25 0.7 0.25Q2.1 0.25 3.05 0.8Q4 1.3 4 2.05Q4 2.8 3.05 3.3" />
<radialGradient
id="RadialGradID_354" gradientUnits="userSpaceOnUse" gradientTransform="matrix(-0.000473022, 0.00062561, 0.000793457, 0.00062561, -4.1, -0.6)" spreadMethod ="pad" cx="0" cy="0" r="819.2" fx="0" fy="0" >
<stop  offset="0.14902"  style="stop-color:#E66A4D;stop-opacity:0.592157" />
<stop  offset="0.917647"  style="stop-color:#FFECD9;stop-opacity:0.262745" />
</radialGradient>
<path style="fill:url(#RadialGradID_354) " d="M-3.75,-1.1L-3.4 -0.6L-3.45 -0.15Q-3.6 0 -3.9 0L-4.45 -0.15L-4.75 -0.65L-4.65 -1.1L-4.3 -1.25L-3.75 -1.1" />
<radialGradient
id="RadialGradID_355" gradientUnits="userSpaceOnUse" gradientTransform="matrix(0.000473022, 0.00062561, -0.000793457, 0.00062561, 4.2, -0.65)" spreadMethod ="pad" cx="0" cy="0" r="819.2" fx="0" fy="0" >
<stop  offset="0.14902"  style="stop-color:#E66A4D;stop-opacity:0.592157" />
<stop  offset="0.917647"  style="stop-color:#FFECD9;stop-opacity:0.262745" />
</radialGradient>
<path style="fill:url(#RadialGradID_355) " d="M3.6,-0.2L3.5 -0.65L3.85 -1.15L4.35 -1.3L4.8 -1.15L4.9 -0.7L4.55 -0.2Q4.35 0 4 0Q3.75 0 3.6 -0.2" />
<radialGradient
id="RadialGradID_356" gradientUnits="userSpaceOnUse" gradientTransform="matrix(0.00559998, 0, 0, 0.0017395, 0.95, 0.15)" spreadMethod ="pad" cx="0" cy="0" r="819.2" fx="0" fy="0" >
<stop  offset="0.129412"  style="stop-color:#FF6171;stop-opacity:1" />
<stop  offset="0.992157"  style="stop-color:#FC94A6;stop-opacity:0.172549" />
</radialGradient>
<path style="fill:url(#RadialGradID_356) " d="M-3.05,-0.5L-2 -0.6L-0.7 -0.6L-0.05 -0.5L0.95 -0.65L2.25 -0.65L3.15 -0.65L4.1 -0.6L3.05 -0.45L2.4 -0.2L1.85 -0.05L1.75 -0.05L0.75 0.2L0 0.4L-0.1 0.35Q-1.2 -0.05 -1.85 -0.1L-2.45 -0.2L-3.4 -0.45L-3.7 -0.55L-3.05 -0.5" />
<radialGradient
id="RadialGradID_357" gradientUnits="userSpaceOnUse" gradientTransform="matrix(0.00769043, 0, 0, 0.00178528, 0.05, 0.5)" spreadMethod ="pad" cx="0" cy="0" r="819.2" fx="0" fy="0" >
<stop  offset="0.611765"  style="stop-color:#6B2427;stop-opacity:1" />
<stop  offset="1"  style="stop-color:#BE1F40;stop-opacity:1" />
</radialGradient>
<path style="fill:url(#RadialGradID_357) " d="M4.25,-0.55L4.15 -0.45L3.2 0.25L1.65 1.1L1.05 1.35L0.2 1.4L-1.4 1.05L-2.45 0.45L-3.7 -0.3Q-4.3 -0.45 -4.1 -0.65L-3.8 -0.55L-3.7 -0.55L-3.4 -0.45L-2.45 -0.2L-1.85 -0.1Q-1.2 -0.05 -0.1 0.35L0 0.4L0.75 0.2L1.75 -0.05L1.85 -0.05L2.4 -0.2L3.05 -0.45L4.1 -0.6L4.25 -0.55" />
<radialGradient
id="RadialGradID_358" gradientUnits="userSpaceOnUse" gradientTransform="matrix(0.00527954, 0, 0, 0.00260925, 0.45, 0.75)" spreadMethod ="pad" cx="0" cy="0" r="819.2" fx="0" fy="0" >
<stop  offset="0.364706"  style="stop-color:#FF6180;stop-opacity:1" />
<stop  offset="0.8"  style="stop-color:#FFB2B2;stop-opacity:0.741176" />
<stop  offset="1"  style="stop-color:#FF8787;stop-opacity:0.921569" />
</radialGradient>
<path style="fill:url(#RadialGradID_358) " d="M3.45,0.7L2.75 1.55L1.85 2.25L0.85 2.65Q-0.6 2.9 -1.65 2.2Q-2.65 1.5 -3.7 -0.3L-2.45 0.45L-1.4 1.05L0.2 1.4L1.05 1.35L1.65 1.1L3.2 0.25L4.15 -0.45L3.45 0.7" />
<radialGradient
id="RadialGradID_359" gradientUnits="userSpaceOnUse" gradientTransform="matrix(0.00308228, 0, 0, 0.00123596, 0.3, 1.7)" spreadMethod ="pad" cx="0" cy="0" r="819.2" fx="0" fy="0" >
<stop  offset="0"  style="stop-color:#FFFFFF;stop-opacity:0.631373" />
<stop  offset="1"  style="stop-color:#FFFFFF;stop-opacity:0" />
</radialGradient>
<path style="fill:url(#RadialGradID_359) " d="M-1,2Q-2.1 1.6 -1.9 1.35L0.9 1.75Q2.15 1.6 2.85 0.9Q2.25 1.8 1.15 2.1L-1 2" />
<radialGradient
id="RadialGradID_360" gradientUnits="userSpaceOnUse" gradientTransform="matrix(0.00222778, 0, 0, 0.00222778, -0.8, 0.25)" spreadMethod ="pad" cx="0" cy="0" r="819.2" fx="0" fy="0" >
<stop  offset="0"  style="stop-color:#FFFFFF;stop-opacity:0.482353" />
<stop  offset="1"  style="stop-color:#FFFFFF;stop-opacity:0" />
</radialGradient>
<path style="fill:url(#RadialGradID_360) " d="M-0.15,0L0.15 0.25L0.15 0.3L0.05 0.3L-2 -0.2L-1.35 -0.2L-0.5 0L-0.15 0" />
<radialGradient
id="RadialGradID_361" gradientUnits="userSpaceOnUse" gradientTransform="matrix(0.00100708, 0, 0, 0.00100708, -2.95, -0.4)" spreadMethod ="pad" cx="0" cy="0" r="819.2" fx="0" fy="0" >
<stop  offset="0"  style="stop-color:#FFFFFF;stop-opacity:0.482353" />
<stop  offset="1"  style="stop-color:#FFFFFF;stop-opacity:0" />
</radialGradient>
<path style="fill:url(#RadialGradID_361) " d="M-3.35,-0.5L-2.7 -0.4L-2.3 -0.15L-2.8 -0.25L-3.45 -0.45L-3.35 -0.5" />
<radialGradient
id="RadialGradID_362" gradientUnits="userSpaceOnUse" gradientTransform="matrix(0.000915527, 0, 0, 0.000915527, 3.35, -0.55)" spreadMethod ="pad" cx="0" cy="0" r="819.2" fx="0" fy="0" >
<stop  offset="0"  style="stop-color:#FFFFFF;stop-opacity:0.341176" />
<stop  offset="1"  style="stop-color:#FFFFFF;stop-opacity:0" />
</radialGradient>
<path style="fill:url(#RadialGradID_362) " d="M4.1,-0.7L3.3 -0.5L3.15 -0.45L2.75 -0.4L2.85 -0.4L3.1 -0.55L3.15 -0.55L3.85 -0.7L4.1 -0.7" />
<radialGradient
id="RadialGradID_363" gradientUnits="userSpaceOnUse" gradientTransform="matrix(0.00143433, 0, 0, 0.00143433, 3.15, 0.3)" spreadMethod ="pad" cx="0" cy="0" r="819.2" fx="0" fy="0" >
<stop  offset="0"  style="stop-color:#FFFFFF;stop-opacity:0.341176" />
<stop  offset="1"  style="stop-color:#FFFFFF;stop-opacity:0" />
</radialGradient>
<path style="fill:url(#RadialGradID_363) " d="M3.75,-0.15L3.25 0.4L3.2 0.45L2.3 1L3.2 0.25L3.75 -0.15" />
<radialGradient
id="RadialGradID_364" gradientUnits="userSpaceOnUse" gradientTransform="matrix(0.00152588, 0, 0, 0.00152588, -0.25, 1.65)" spreadMethod ="pad" cx="0" cy="0" r="819.2" fx="0" fy="0" >
<stop  offset="0.54902"  style="stop-color:#FFFFFF;stop-opacity:1" />
<stop  offset="1"  style="stop-color:#FFFFFF;stop-opacity:0" />
</radialGradient>
<path style="fill:url(#RadialGradID_364) " d="M0.25,1.9L-0.4 1.9L-1.05 1.85L-1.45 1.5L-0.7 1.65L-0.15 1.7L0.45 1.75L0.9 1.9L0.9 1.95L0.85 1.95L0.25 1.9" />
<path style="fill:#C24955;fill-opacity:1" d="M0,0.6L-1.9 0.1L-2.5 0L-2.55 0L-2.65 -0.2L-2.55 -0.2L-1.95 -0.1L-0.1 0.35L0 0.4L0.8 0.2L1.9 -0.05L1.95 -0.05L2.55 -0.2L3.25 -0.4L2.6 0L2 0.15L1.95 0.15L0.85 0.4L0.05 0.6L0 0.6" />
<path style="fill:#CCC9C0;fill-opacity:1" d="M-1.6,0.15L-1.9 0.5L-2 0.6Q-2.2 0.5 -2.35 0.35L-2.6 -0.1L-1.6 0.15M2.05,0.6L1.75 0.15L3.15 -0.25L2.45 0.35L2.05 0.6" />
<path style="fill:#EDEADE;fill-opacity:1" d="M2.05,0.6L1.8 0.8L1.75 0.8L1.5 0.55L0.6 0.65L-0.85 0.55Q-1.45 0.35 -1.65 0.8L-2 0.6L-1.9 0.5L-1.6 0.15L-0.95 0.3L0.05 0.45L1 0.3L1.75 0.15L2.05 0.6" />
<path style="fill:#FFFFFF;fill-opacity:1" d="M1.45,0.95L0.05 1.3L-1.4 0.95L-1.65 0.8Q-1.45 0.35 -0.85 0.55L0.6 0.65L1.5 0.55L1.75 0.8L1.45 0.95" />
<radialGradient
id="RadialGradID_365" gradientUnits="userSpaceOnUse" gradientTransform="matrix(0.00234985, 0, 0, 0.00120544, 0.2, -0.8)" spreadMethod ="pad" cx="0" cy="0" r="819.2" fx="0" fy="0" >
<stop  offset="0.211765"  style="stop-color:#E07849;stop-opacity:0.282353" />
<stop  offset="1"  style="stop-color:#FFDEC2;stop-opacity:0" />
</radialGradient>
<path style="fill:url(#RadialGradID_365) " d="M0,-0.7L-0.35 -0.8L-0.8 -1.1L-0.65 -1.4L-0.3 -1.35L0.05 -1.35L0.5 -1.55L0.7 -1.05Q0.5 -0.85 0.3 -0.8L0 -0.7" />
<radialGradient
id="RadialGradID_366" gradientUnits="userSpaceOnUse" gradientTransform="matrix(0.00233459, 0, 0, 0.00233459, -0.4, -0.6)" spreadMethod ="pad" cx="0" cy="0" r="819.2" fx="210508" fy="0" >
<stop  offset="0"  style="stop-color:#FFFFFF;stop-opacity:0.572549" />
<stop  offset="1"  style="stop-color:#FFFFFF;stop-opacity:0" />
</radialGradient>
<path style="fill:url(#RadialGradID_366) " d="M-1,-1.05L-1 -1.25L-0.85 -1.4L-0.75 -1.3L-0.75 -1.2L-0.7 -1.15L-0.7 -0.9Q-0.7 -0.8 -0.45 -0.75L-0.15 -0.7Q-0.05 -0.6 0.05 -0.6L0.4 -0.8L0.75 -1.05L0.9 -0.95L0.95 -0.7L0.85 -0.6L0.05 -0.45L-0.9 -0.65L-1 -0.85L-1 -1.05" />
</g>
</svg>
