<?xml version="1.0" encoding="utf-8"?>
<svg version="1.1" id="Layer_1"
xmlns="http://www.w3.org/2000/svg"
xmlns:xlink="http://www.w3.org/1999/xlink"
xmlns:author="http://www.sothink.com"
width="8px" height="5px"
xml:space="preserve">
<g id="32" transform="matrix(1, 0, 0, 1, 0, 0)">
<radialGradient
id="RadialGradID_330" gradientUnits="userSpaceOnUse" gradientTransform="matrix(0.000396729, 0.00050354, -0.000656128, 0.00050354, 6.75, 2.2)" spreadMethod ="pad" cx="0" cy="0" r="819.2" fx="0" fy="0" >
<stop  offset="0.14902"  style="stop-color:#E66A4D;stop-opacity:0.592157" />
<stop  offset="0.917647"  style="stop-color:#FFECD9;stop-opacity:0.262745" />
</radialGradient>
<path style="fill:url(#RadialGradID_330) " d="M7.3,2.2L7.05 2.55L6.6 2.7Q6.4 2.7 6.25 2.55L6.2 2.2L6.45 1.8L6.9 1.7L7.25 1.8L7.3 2.2" />
<radialGradient
id="RadialGradID_331" gradientUnits="userSpaceOnUse" gradientTransform="matrix(-0.000396729, 0.00050354, 0.000656128, 0.00050354, 0.55, 2.2)" spreadMethod ="pad" cx="0" cy="0" r="819.2" fx="0" fy="0" >
<stop  offset="0.14902"  style="stop-color:#E66A4D;stop-opacity:0.592157" />
<stop  offset="0.917647"  style="stop-color:#FFECD9;stop-opacity:0.262745" />
</radialGradient>
<path style="fill:url(#RadialGradID_331) " d="M0.85,1.8L1.1 2.2L1.05 2.55L0.7 2.7L0.25 2.55L0 2.2L0.1 1.8Q0.2 1.7 0.4 1.7L0.85 1.8" />
<radialGradient
id="RadialGradID_332" gradientUnits="userSpaceOnUse" gradientTransform="matrix(0.00219727, 0, 0, 0.00219727, 3.7, 1.3)" spreadMethod ="pad" cx="0" cy="0" r="819.2" fx="210508" fy="0" >
<stop  offset="0"  style="stop-color:#FFFFFF;stop-opacity:0.572549" />
<stop  offset="1"  style="stop-color:#FFFFFF;stop-opacity:0" />
</radialGradient>
<path style="fill:url(#RadialGradID_332) " d="M3.35,0.1L3.3 0.85L3.5 1.1L3.8 1.3L4.2 1.05L4.25 1L4.3 0.75L4.25 0.25L4.25 0.1L4.4 0.4L4.5 1.1L4.05 1.3L3.75 1.4L2.85 1.05L3.15 0.1L3.35 0.1" />
<radialGradient
id="RadialGradID_333" gradientUnits="userSpaceOnUse" gradientTransform="matrix(0.00166321, 0, 0, 0.00166321, 3.85, 0.35)" spreadMethod ="pad" cx="0" cy="0" r="819.2" fx="0" fy="0" >
<stop  offset="0"  style="stop-color:#E07849;stop-opacity:0.282353" />
<stop  offset="1"  style="stop-color:#FFDEC2;stop-opacity:0" />
</radialGradient>
<path style="fill:url(#RadialGradID_333) " d="M3.95,0.15L4.15 0L4.2 0.5L4.2 1.05L3.75 1.25L3.5 1.1L3.3 0.85L3.5 0.1L3.6 0.15L3.75 0.25L3.95 0.15" />
<radialGradient
id="RadialGradID_334" gradientUnits="userSpaceOnUse" gradientTransform="matrix(0.00419617, 0, 0, 0.00419617, 3.7, 2.65)" spreadMethod ="pad" cx="0" cy="0" r="819.2" fx="0" fy="0" >
<stop  offset="0.470588"  style="stop-color:#73272E;stop-opacity:1" />
<stop  offset="1"  style="stop-color:#BE1F40;stop-opacity:1" />
</radialGradient>
<path style="fill:url(#RadialGradID_334) " d="M0.5,2.15L0.6 2.1L0.7 2.1L0.85 2.2L1.35 2.3L1.95 2.1L2.65 2.05L3.4 2.25L3.7 2.25L4.05 2.25L4.8 2.05L5.45 2.1L6.1 2.3L6.55 2.2L6.75 2.1L6.85 2.1L6.95 2.15L6.55 2.45L6.2 2.5L5 2.65L3.7 2.75L2.45 2.65L1.25 2.5L0.9 2.45L0.5 2.15" />
<radialGradient
id="RadialGradID_335" gradientUnits="userSpaceOnUse" gradientTransform="matrix(0.00564575, 0, 0, 0.00299072, 3.55, 3.6)" spreadMethod ="pad" cx="0" cy="0" r="819.2" fx="0" fy="0" >
<stop  offset="0.176471"  style="stop-color:#E9765A;stop-opacity:0.643137" />
<stop  offset="1"  style="stop-color:#FFECD9;stop-opacity:0.121569" />
</radialGradient>
<path style="fill:url(#RadialGradID_335) " d="M0.9,2.45Q1.05 3.25 1.7 3.65Q2.35 4.05 3.45 4.05L3.7 4.05L4 4.05L5.7 3.65Q6.3 3.3 6.5 2.65Q6.7 3.65 6 4.05L4.05 4.45L3.8 4.45L3.45 4.45Q2.3 4.45 1.55 4.05Q0.85 3.65 0.9 2.45" />
<radialGradient
id="RadialGradID_336" gradientUnits="userSpaceOnUse" gradientTransform="matrix(0.00500488, 0, 0, 0.00186157, 3.7, 2.3)" spreadMethod ="pad" cx="0" cy="0" r="819.2" fx="0" fy="0" >
<stop  offset="0.364706"  style="stop-color:#F75D7E;stop-opacity:1" />
<stop  offset="0.8"  style="stop-color:#FF9C9C;stop-opacity:0.741176" />
<stop  offset="1"  style="stop-color:#FF8787;stop-opacity:0.921569" />
</radialGradient>
<path style="fill:url(#RadialGradID_336) " d="M6.5,2.65Q6.3 3.3 5.7 3.65L4 4.05L3.7 4.05L3.45 4.05Q2.35 4.05 1.7 3.65Q1.05 3.25 0.9 2.45L1.25 2.5L2.45 2.65L3.7 2.75L5 2.65L6.2 2.5L6.55 2.45L6.5 2.65" />
<radialGradient
id="RadialGradID_337" gradientUnits="userSpaceOnUse" gradientTransform="matrix(0.00524902, 0, 0, 0.00167847, 3.7, 2.3)" spreadMethod ="pad" cx="0" cy="0" r="819.2" fx="0" fy="0" >
<stop  offset="0.266667"  style="stop-color:#FF6171;stop-opacity:1" />
<stop  offset="0.992157"  style="stop-color:#FC94A6;stop-opacity:0.172549" />
</radialGradient>
<path style="fill:url(#RadialGradID_337) " d="M6.75,2.1L6.55 2.2L6.1 2.3L5.45 2.1L4.8 2.05L4.05 2.25L3.7 2.25L3.4 2.25L2.65 2.05L1.95 2.1L1.35 2.3L0.85 2.2L0.7 2.1L1.8 1.5Q2.4 1.05 2.7 1.05L3.3 1.3L3.7 1.4L4.15 1.3L4.75 1.05L5.65 1.5Q6.3 2 6.75 2.1" />
<path style="fill:#FFFFFF;fill-opacity:1" d="M2.8,2.2L2.85 2.15L3.4 2.25L3.7 2.3L4.05 2.25L4.65 2.15L4.7 2.35L4.75 2.5L3.7 2.65L2.7 2.5L2.7 2.45L2.8 2.2" />
<path style="fill:#EDEADE;fill-opacity:1" d="M4.7,2.35L4.65 2.15L4.8 2.25L4.9 2.25L5.15 2.4L5 2.4L4.75 2.5L4.7 2.35M2.7,2.45L2.7 2.5L2.45 2.4L2.35 2.4L2.6 2.3L2.65 2.25L2.7 2.25L2.8 2.2L2.8 2.15L2.85 2.15L2.8 2.2L2.7 2.45" />
<path style="fill:#CCC9C0;fill-opacity:1" d="M4.9,2.25L4.8 2.25L4.65 2.15L4.8 2.1L5.45 2.15L5.7 2.25L5.15 2.4L4.9 2.25M2.8,2.2L2.7 2.25L2.65 2.25L2.6 2.3L2.35 2.4L1.8 2.25L1.95 2.15L2.65 2.1L2.8 2.15L2.8 2.2" />
<radialGradient
id="RadialGradID_338" gradientUnits="userSpaceOnUse" gradientTransform="matrix(0.00305176, 0, 0, 0.0012207, 4, 3)" spreadMethod ="pad" cx="0" cy="0" r="819.2" fx="0" fy="0" >
<stop  offset="0"  style="stop-color:#FFFFFF;stop-opacity:1" />
<stop  offset="1"  style="stop-color:#FFFFFF;stop-opacity:0" />
</radialGradient>
<path style="fill:url(#RadialGradID_338) " d="M6.05,2.55Q6.15 3.05 4.9 3.3L2.65 3.35L2.05 3L4.7 2.9L6.05 2.55" />
<radialGradient
id="RadialGradID_339" gradientUnits="userSpaceOnUse" gradientTransform="matrix(0.0017395, 0, 0, 0.0017395, 3.3, 1.35)" spreadMethod ="pad" cx="0" cy="0" r="819.2" fx="0" fy="0" >
<stop  offset="0"  style="stop-color:#FFFFFF;stop-opacity:0.482353" />
<stop  offset="1"  style="stop-color:#FFFFFF;stop-opacity:0" />
</radialGradient>
<path style="fill:url(#RadialGradID_339) " d="M3.5,1.55L4.2 1.5L4.6 1.35L4.7 1.4L4.7 1.45Q4.15 1.75 4.05 1.8L3.75 1.9Q3.05 1.9 2.65 1.55L2.6 1.55Q2.6 1.3 2.75 1.2L2.85 1.2L3.15 1.3L3.5 1.55" />
</g>
</svg>
