<?xml version="1.0" encoding="utf-8"?>
<svg version="1.1" id="Layer_1"
xmlns="http://www.w3.org/2000/svg"
xmlns:xlink="http://www.w3.org/1999/xlink"
xmlns:author="http://www.sothink.com"
width="14px" height="4px"
xml:space="preserve">
<g id="30" transform="matrix(1, 0, 0, 1, 6.85, 1.95)">
<radialGradient
id="RadialGradID_314" gradientUnits="userSpaceOnUse" gradientTransform="matrix(0.00579834, 0.00050354, -0.000305176, 0.00376892, -0.05, 0.05)" spreadMethod ="pad" cx="0" cy="0" r="819.2" fx="0" fy="0" >
<stop  offset="0"  style="stop-color:#FBA784;stop-opacity:1" />
<stop  offset="0.988235"  style="stop-color:#FFECD9;stop-opacity:0" />
</radialGradient>
<path style="fill:url(#RadialGradID_314) " d="M-1.2,2L-1.35 1.9L-1.4 1.9L-2.6 0.6L-2.8 0Q-2.3 0.45 -1.6 0.65L0.75 0.8Q1.9 0.65 2.5 0.2L3.8 -1L3.05 0.85L2.1 1.6L0.2 1.75L-1.2 2" />
<radialGradient
id="RadialGradID_315" gradientUnits="userSpaceOnUse" gradientTransform="matrix(0.00518799, 9.15527e-005, -9.15527e-005, 0.00518799, 0.05, -0.3)" spreadMethod ="pad" cx="0" cy="0" r="819.2" fx="0" fy="0" >
<stop  offset="0.25098"  style="stop-color:#BA4C4C;stop-opacity:1" />
<stop  offset="0.847059"  style="stop-color:#5C1717;stop-opacity:1" />
<stop  offset="1"  style="stop-color:#3D1010;stop-opacity:1" />
</radialGradient>
<path style="fill:url(#RadialGradID_315) " d="M-3.1,-0.8L-2.6 -0.65L-1.9 -0.65L-0.7 -0.4L-0.1 -0.3L0.9 -0.45L2.2 -0.6L2.7 -0.65L3.15 -0.8L3.65 -1L4.1 -1.15L4.1 -0.85L3.85 -0.8L3.55 -0.7L3.25 -0.65L2.65 -0.5L1.75 -0.35L0.3 -0.15L-0.15 -0.15L-0.95 -0.3L-1.95 -0.45L-2.55 -0.5Q-2.7 -0.5 -3.05 -0.65L-3.45 -0.75L-4 -1L-3.9 -1.25L-3.55 -1L-3.1 -0.8" />
<radialGradient
id="RadialGradID_316" gradientUnits="userSpaceOnUse" gradientTransform="matrix(0.00627136, 0.000106812, -4.57764e-005, 0.00253296, 0.65, 0.05)" spreadMethod ="pad" cx="0" cy="0" r="819.2" fx="0" fy="0" >
<stop  offset="0.0705882"  style="stop-color:#ED342F;stop-opacity:1" />
<stop  offset="1"  style="stop-color:#FFA896;stop-opacity:0.25098" />
</radialGradient>
<path style="fill:url(#RadialGradID_316) " d="M4.1,-1.15L3.65 -1L3.15 -0.8L2.7 -0.65L2.2 -0.6L0.9 -0.45L-0.1 -0.3L-0.7 -0.4L-1.9 -0.65L-2.6 -0.65L-3.1 -0.8L-3.55 -1L-3.4 -1L-0.85 -1.05L-0.4 -0.95L0.3 -1L1.05 -1.1L2.1 -1.1L3.15 -1.1L3.7 -1.05L3.95 -1.2L4.1 -1.15" />
<radialGradient
id="RadialGradID_317" gradientUnits="userSpaceOnUse" gradientTransform="matrix(0.00556946, 9.15527e-005, -4.57764e-005, 0.00234985, 0.15, -0.65)" spreadMethod ="pad" cx="0" cy="0" r="819.2" fx="0" fy="0" >
<stop  offset="0.227451"  style="stop-color:#ED4D44;stop-opacity:1" />
<stop  offset="0.596078"  style="stop-color:#FF2E2E;stop-opacity:0.321569" />
<stop  offset="0.882353"  style="stop-color:#FF0000;stop-opacity:0.572549" />
</radialGradient>
<path style="fill:url(#RadialGradID_317) " d="M-3.45,-0.75L-3.05 -0.65Q-2.7 -0.5 -2.55 -0.5L-1.95 -0.45L-0.95 -0.3L-0.15 -0.15L0.3 -0.15L1.75 -0.35L2.65 -0.5L3.25 -0.65L3.55 -0.7Q2.75 0.25 1.35 0.75L0.9 0.8L-1.6 0.65Q-2.4 0.45 -2.95 -0.15L-3.45 -0.75" />
<radialGradient
id="RadialGradID_318" gradientUnits="userSpaceOnUse" gradientTransform="matrix(0.00616455, 0.000106812, -3.05176e-005, 0.001297, -0.1, 0.15)" spreadMethod ="pad" cx="0" cy="0" r="819.2" fx="0" fy="0" >
<stop  offset="0.180392"  style="stop-color:#FAFEFF;stop-opacity:0.921569" />
<stop  offset="1"  style="stop-color:#FAFDFE;stop-opacity:0" />
</radialGradient>
<path style="fill:url(#RadialGradID_318) " d="M-2.75,-0.5L-1.5 -0.2L3.2 -0.55L2.95 -0.4Q2.45 0.05 1.2 0.25Q-0.15 0.45 -1.4 0.25L-2.5 -0.2L-2.75 -0.5" />
<radialGradient
id="RadialGradID_319" gradientUnits="userSpaceOnUse" gradientTransform="matrix(0.000198364, -0.000686646, 0.000946045, 0.000274658, -3.85, -0.95)" spreadMethod ="pad" cx="0" cy="0" r="819.2" fx="0" fy="0" >
<stop  offset="0.211765"  style="stop-color:#E66A4D;stop-opacity:0.592157" />
<stop  offset="1"  style="stop-color:#FFECD9;stop-opacity:0.0313725" />
</radialGradient>
<path style="fill:url(#RadialGradID_319) " d="M-4.6,-1.15L-4.25 -1.55L-3.65 -1.5L-3.15 -1.15L-3.05 -0.7L-3.35 -0.35L-4 -0.4L-4.45 -0.75L-4.6 -1.15" />
<radialGradient
id="RadialGradID_320" gradientUnits="userSpaceOnUse" gradientTransform="matrix(-0.000274658, -0.000640869, -0.000900269, 0.00038147, 3.85, -1)" spreadMethod ="pad" cx="0" cy="0" r="819.2" fx="0" fy="0" >
<stop  offset="0.211765"  style="stop-color:#E66A4D;stop-opacity:0.592157" />
<stop  offset="1"  style="stop-color:#FFECD9;stop-opacity:0.0313725" />
</radialGradient>
<path style="fill:url(#RadialGradID_320) " d="M4.6,-1.3L4.25 -1.55L3.65 -1.5Q3.35 -1.35 3.2 -1.1L3.15 -0.65L3.5 -0.35L4.1 -0.45L4.55 -0.8L4.6 -1.3" />
<radialGradient
id="RadialGradID_321" gradientUnits="userSpaceOnUse" gradientTransform="matrix(0.000793457, -0.000106812, 0.000259399, 0.00164795, -6.45, -1)" spreadMethod ="pad" cx="0" cy="0" r="819.2" fx="0" fy="0" >
<stop  offset="0"  style="stop-color:#FF7357;stop-opacity:0.45098" />
<stop  offset="1"  style="stop-color:#FFECD9;stop-opacity:0.0313725" />
</radialGradient>
<path style="fill:url(#RadialGradID_321) " d="M-6.05,-0.65Q-6.1 -0.2 -6.3 -0.15L-6.6 -0.5Q-6.9 -1 -6.8 -1.75Q-6.4 -2.05 -6.2 -1.55L-6.05 -0.65" />
<radialGradient
id="RadialGradID_322" gradientUnits="userSpaceOnUse" gradientTransform="matrix(-0.0015564, -6.10352e-005, -0.000106812, 0.00331116, 6.35, -1.3)" spreadMethod ="pad" cx="0" cy="0" r="819.2" fx="0" fy="0" >
<stop  offset="0"  style="stop-color:#FF7357;stop-opacity:0.341176" />
<stop  offset="1"  style="stop-color:#FFECD9;stop-opacity:0.0313725" />
</radialGradient>
<path style="fill:url(#RadialGradID_322) " d="M5.8,0.2Q6.15 -0.75 5.95 -1.35Q5.6 -2.05 6.9 -1.9Q6.85 -0.85 5.8 0.2" />
</g>
</svg>
