<?xml version="1.0" encoding="utf-8"?>
<svg version="1.1" id="Layer_1"
xmlns="http://www.w3.org/2000/svg"
xmlns:xlink="http://www.w3.org/1999/xlink"
xmlns:author="http://www.sothink.com"
width="8px" height="5px"
xml:space="preserve">
<g id="31" transform="matrix(1, 0, 0, 1, 0, 0)">
<radialGradient
id="RadialGradID_323" gradientUnits="userSpaceOnUse" gradientTransform="matrix(0.000686646, -0.000793457, 0.000747681, 0.000701904, 6.75, 1.15)" spreadMethod ="pad" cx="0" cy="0" r="819.2" fx="0" fy="0" >
<stop  offset="0"  style="stop-color:#EEB2A8;stop-opacity:1" />
<stop  offset="1"  style="stop-color:#FCEAD8;stop-opacity:0" />
</radialGradient>
<path style="fill:url(#RadialGradID_323) " d="M6.8,1.75Q6.55 1.75 6.4 1.55L6.15 1.15L6.25 0.75Q6.4 0.5 6.65 0.55L7.05 0.75L7.35 1.2L7.2 1.6L6.8 1.75" />
<radialGradient
id="RadialGradID_324" gradientUnits="userSpaceOnUse" gradientTransform="matrix(-0.000747681, -0.000701904, -0.000686646, 0.000793457, 0.6, 1.1)" spreadMethod ="pad" cx="0" cy="0" r="819.2" fx="0" fy="0" >
<stop  offset="0"  style="stop-color:#EEB2A8;stop-opacity:1" />
<stop  offset="1"  style="stop-color:#FCEAD8;stop-opacity:0" />
</radialGradient>
<path style="fill:url(#RadialGradID_324) " d="M0.2,0.75L0.6 0.5L1 0.6L1.15 1L0.95 1.45L0.55 1.7L0.15 1.65L0 1.2L0.2 0.75" />
<radialGradient
id="RadialGradID_325" gradientUnits="userSpaceOnUse" gradientTransform="matrix(0.00340271, 0.000167847, -0.000167847, 0.00137329, 3.6, 3.3)" spreadMethod ="pad" cx="0" cy="0" r="819.2" fx="0" fy="0" >
<stop  offset="0"  style="stop-color:#ED9182;stop-opacity:1" />
<stop  offset="1"  style="stop-color:#EDDCCB;stop-opacity:0" />
</radialGradient>
<path style="fill:url(#RadialGradID_325) " d="M3.5,4.4L1.6 3.95Q0.8 3.6 0.9 3.15Q0.95 2.7 1.75 2.4L3.7 2.2L5.6 2.6Q6.35 2.95 6.35 3.45Q6.25 3.9 5.45 4.15L3.5 4.4" />
<path style="fill:#B93E57;fill-opacity:1" d="M0.7,1.35L0.6 1.35L0.35 1.25L0.35 1.2L0.45 1.1L0.75 1.2L0.8 1.2L1.45 1.15L2.35 1.05L3 1.1L3.5 1.2L4.05 1.1L4.7 1.05L5.6 1.15L6.25 1.2L6.3 1.2L6.55 1.1L6.7 1.2L6.6 1.35L6.35 1.35L6.2 1.4L5.2 1.65L4.05 1.9L3.5 1.95L2.95 1.9L1.85 1.65L1.3 1.5L1.15 1.45L0.95 1.4L0.7 1.35" />
<radialGradient
id="RadialGradID_326" gradientUnits="userSpaceOnUse" gradientTransform="matrix(0.00473022, 0, 0, 0.00210571, 3.5, 1.2)" spreadMethod ="pad" cx="0" cy="0" r="819.2" fx="0" fy="0" >
<stop  offset="0.219608"  style="stop-color:#FB9AA2;stop-opacity:1" />
<stop  offset="0.494118"  style="stop-color:#FCC7C1;stop-opacity:1" />
<stop  offset="0.690196"  style="stop-color:#FBABAE;stop-opacity:1" />
<stop  offset="1"  style="stop-color:#FB949E;stop-opacity:1" />
</radialGradient>
<path style="fill:url(#RadialGradID_326) " d="M5.6,1.15L4.7 1.05L4.05 1.1L3.5 1.2L3 1.1L2.35 1.05L1.45 1.15L0.8 1.2L1.8 0.6Q2.5 0.2 2.8 0.25L3.2 0.35L3.5 0.45L3.8 0.35L4.25 0.25Q4.5 0.2 5.2 0.6L6.25 1.2L5.6 1.15" />
<radialGradient
id="RadialGradID_327" gradientUnits="userSpaceOnUse" gradientTransform="matrix(0.00567627, 0, 0, 0.00256348, 3.45, 1.7)" spreadMethod ="pad" cx="0" cy="0" r="819.2" fx="0" fy="0" >
<stop  offset="0"  style="stop-color:#FA6B72;stop-opacity:1" />
<stop  offset="0.329412"  style="stop-color:#FB9AA2;stop-opacity:1" />
<stop  offset="0.635294"  style="stop-color:#FCC7C1;stop-opacity:1" />
<stop  offset="0.94902"  style="stop-color:#FBABAE;stop-opacity:1" />
</radialGradient>
<path style="fill:url(#RadialGradID_327) " d="M0.95,1.4L1.15 1.45L1.3 1.5L1.85 1.65L2.95 1.9L3.5 1.95L4.05 1.9L5.2 1.65L6.2 1.4L6.35 1.35L5.35 2.8Q4.7 3.45 3.5 3.45Q2.35 3.45 1.65 2.8L0.7 1.35L0.95 1.4" />
<radialGradient
id="RadialGradID_328" gradientUnits="userSpaceOnUse" gradientTransform="matrix(0.000137329, 0.000656128, -0.00215149, 0.000320435, 4.1, 2.55)" spreadMethod ="pad" cx="0" cy="0" r="819.2" fx="0" fy="0" >
<stop  offset="0.192157"  style="stop-color:#FFFFFF;stop-opacity:0.913725" />
<stop  offset="1"  style="stop-color:#FFE5E3;stop-opacity:0" />
</radialGradient>
<path style="fill:url(#RadialGradID_328) " d="M6,1.7L5.05 2.5L4.05 2.8L3.2 2.8L2.6 2.4Q2.3 2.05 3.35 2.2L6 1.7" />
<path style="fill:#FFFFFF;fill-opacity:1" d="M3.45,1.7L3.05 1.65L2.15 1.45Q2.35 1.2 2.55 1.2L3.05 1.3L3.45 1.35L3.5 1.35L3.85 1.3L4.4 1.2L4.75 1.45L3.9 1.65L3.5 1.7L3.45 1.7" />
<radialGradient
id="RadialGradID_329" gradientUnits="userSpaceOnUse" gradientTransform="matrix(0.00120544, 0.000228882, -0.000274658, 0.00102234, 4.15, 0.2)" spreadMethod ="pad" cx="0" cy="0" r="819.2" fx="0" fy="0" >
<stop  offset="0.0196078"  style="stop-color:#FFFFFF;stop-opacity:0.682353" />
<stop  offset="1"  style="stop-color:#FFE5E3;stop-opacity:0" />
</radialGradient>
<path style="fill:url(#RadialGradID_329) " d="M4.2,0Q4.6 0 4.85 0.3Q5.1 0.6 4.75 0.5L3.5 0.4Q3.8 0 4.2 0" />
<path style="fill:#EFEFF2;fill-opacity:0.643137" d="M2.7,2.15L2.75 2.25L2.8 2.45L2.75 2.65L2.7 2.75L2.6 2.65L2.6 2.45L2.6 2.25L2.7 2.15M5,2.25L5.1 2.25L5.2 2.25L5.25 2.35L5.2 2.45L5.1 2.5L5 2.45L4.95 2.35L5 2.25" />
<path style="fill:#FFFFFF;fill-opacity:0.572549" d="M3.7,2.85L3.55 2.8L3.5 2.65L3.55 2.5L3.7 2.45L3.8 2.5L3.85 2.65L3.8 2.8L3.7 2.85" />
</g>
</svg>
