<?xml version="1.0" encoding="utf-8"?>
<svg version="1.1" id="Layer_1"
xmlns="http://www.w3.org/2000/svg"
xmlns:xlink="http://www.w3.org/1999/xlink"
xmlns:author="http://www.sothink.com"
width="7px" height="5px"
xml:space="preserve">
<g id="35" transform="matrix(1, 0, 0, 1, 3.1, 2.45)">
<radialGradient
id="RadialGradID_367" gradientUnits="userSpaceOnUse" gradientTransform="matrix(0.000427246, -0.00109863, -0.0037384, -0.000106812, -0.1, 1.75)" spreadMethod ="pad" cx="0" cy="0" r="819.2" fx="0" fy="0" >
<stop  offset="0"  style="stop-color:#E37653;stop-opacity:0.521569" />
<stop  offset="1"  style="stop-color:#FFEFEA;stop-opacity:0" />
</radialGradient>
<path style="fill:url(#RadialGradID_367) " d="M-2.45,1.7Q-2.35 1.45 -1.55 1.25L0.15 1.1L1.75 1.35Q2.3 1.55 2.2 1.85L1.4 2.3L-0.4 2.5L-1.9 2.25L-2.45 1.7" />
<radialGradient
id="RadialGradID_368" gradientUnits="userSpaceOnUse" gradientTransform="matrix(0.000366211, 0.000473022, -0.000595093, 0.000473022, 2.6, 0.15)" spreadMethod ="pad" cx="0" cy="0" r="819.2" fx="0" fy="0" >
<stop  offset="0.14902"  style="stop-color:#E66A4D;stop-opacity:0.592157" />
<stop  offset="0.917647"  style="stop-color:#FFECD9;stop-opacity:0.262745" />
</radialGradient>
<path style="fill:url(#RadialGradID_368) " d="M2.1,0.15L2.35 -0.2L2.75 -0.35L3.1 -0.2L3.15 0.15L2.9 0.5L2.5 0.65L2.2 0.5L2.1 0.15" />
<radialGradient
id="RadialGradID_369" gradientUnits="userSpaceOnUse" gradientTransform="matrix(-0.000366211, 0.000473022, 0.000595093, 0.000473022, -2.6, 0.1)" spreadMethod ="pad" cx="0" cy="0" r="819.2" fx="0" fy="0" >
<stop  offset="0.14902"  style="stop-color:#E66A4D;stop-opacity:0.592157" />
<stop  offset="0.917647"  style="stop-color:#FFECD9;stop-opacity:0.262745" />
</radialGradient>
<path style="fill:url(#RadialGradID_369) " d="M-2.1,0.4Q-2.2 0.55 -2.45 0.55L-2.85 0.4L-3.1 0.05L-3 -0.3L-2.7 -0.4L-2.3 -0.3L-2.1 0.1L-2.1 0.4" />
<radialGradient
id="RadialGradID_370" gradientUnits="userSpaceOnUse" gradientTransform="matrix(0.00167847, 0, 0, 0.00167847, 0.15, -1.15)" spreadMethod ="pad" cx="0" cy="0" r="819.2" fx="0" fy="0" >
<stop  offset="0"  style="stop-color:#D67259;stop-opacity:0.541176" />
<stop  offset="1"  style="stop-color:#FFEDDB;stop-opacity:0" />
</radialGradient>
<path style="fill:url(#RadialGradID_370) " d="M-0.15,-2.2L0 -2.25L0.1 -2.3L0.35 -1.3Q0.15 -1.1 -0.05 -1.1L-0.35 -1.15L-0.6 -1.3L-0.35 -2.3Q-0.25 -2.2 -0.15 -2.2" />
<radialGradient
id="RadialGradID_371" gradientUnits="userSpaceOnUse" gradientTransform="matrix(0.0035553, 0, 0, 0.00221252, -0.15, 0.45)" spreadMethod ="pad" cx="0" cy="0" r="819.2" fx="0" fy="0" >
<stop  offset="0.27451"  style="stop-color:#FF4A87;stop-opacity:1" />
<stop  offset="0.721569"  style="stop-color:#FFA8BD;stop-opacity:0.701961" />
<stop  offset="1"  style="stop-color:#FCDDF1;stop-opacity:0.301961" />
</radialGradient>
<path style="fill:url(#RadialGradID_371) " d="M2.3,0.1L1.95 0.05L1.45 -0.05L1 -0.05L0.45 0L-0.75 -0.05L-0.95 -0.05L-1 -0.05L-1.1 -0.05L-1.6 0L-2.2 0.05L-2.45 0L-2.35 -0.2L-2.35 -0.25L-1.55 -0.9L-0.9 -1.15L-0.55 -1.15L-0.1 -0.9L0.4 -1.1L0.75 -1.15L1.4 -0.9L2.2 -0.25L2.2 -0.2L2.35 0.1L2.3 0.1" />
<radialGradient
id="RadialGradID_372" gradientUnits="userSpaceOnUse" gradientTransform="matrix(0.0032196, 0, 0, 0.00216675, -0.15, 0.2)" spreadMethod ="pad" cx="0" cy="0" r="819.2" fx="0" fy="0" >
<stop  offset="0.0784314"  style="stop-color:#F75D8A;stop-opacity:1" />
<stop  offset="0.631373"  style="stop-color:#FF94B6;stop-opacity:0.733333" />
<stop  offset="0.980392"  style="stop-color:#FFC2D7;stop-opacity:0.482353" />
</radialGradient>
<path style="fill:url(#RadialGradID_372) " d="M2.55,0.3L1.4 1.35L-0.1 1.7Q-1.4 1.7 -1.8 1.3L-2.4 0.4L-1.95 0.45L-1.45 0.35L-0.7 0.25L0.1 0.25L0.45 0.25L1.3 0.25L1.95 0.25L2.35 0.35L2.4 0.35L2.55 0.3" />
<radialGradient
id="RadialGradID_373" gradientUnits="userSpaceOnUse" gradientTransform="matrix(0.00340271, 0, 0, 0.00340271, -0.1, 0.15)" spreadMethod ="pad" cx="0" cy="0" r="819.2" fx="0" fy="0" >
<stop  offset="0.0156863"  style="stop-color:#751327;stop-opacity:1" />
<stop  offset="1"  style="stop-color:#73272E;stop-opacity:1" />
</radialGradient>
<path style="fill:url(#RadialGradID_373) " d="M2.4,0.35L2.35 0.35L1.95 0.25L1.3 0.25L0.45 0.25L0.1 0.25L-0.7 0.25L-1.45 0.35L-1.95 0.45L-2.4 0.4L-2.5 0.35L-2.65 0.1L-2.65 0.05L-2.6 -0.05L-2.55 -0.1L-2.45 0L-2.2 0.05L-1.6 0L-1.1 -0.05L-1 -0.05L-0.95 -0.05L-0.75 -0.05L0.45 0L1 -0.05L1.45 -0.05L1.95 0.05L2.3 0.1L2.35 0.1L2.5 0.1L2.55 0.05L2.6 0.1L2.7 0.1L2.7 0.2L2.55 0.3L2.4 0.35" />
<radialGradient
id="RadialGradID_374" gradientUnits="userSpaceOnUse" gradientTransform="matrix(0.00288391, -0.000213623, 9.15527e-005, 0.00115967, -0.65, 0.25)" spreadMethod ="pad" cx="0" cy="0" r="819.2" fx="210325" fy="0" >
<stop  offset="0.0705882"  style="stop-color:#F7495B;stop-opacity:1" />
<stop  offset="1"  style="stop-color:#FC94A6;stop-opacity:0.180392" />
</radialGradient>
<path style="fill:url(#RadialGradID_374) " d="M0.1,0.25L0.45 0.25L1.1 0.25L0 0.7L-0.95 0.9L-1.15 1.15L-1.7 1.35L-1.8 1.3L-2.35 0.4L-2.05 0.45L-1.95 0.45L-1.45 0.35L-0.7 0.25L-0.4 0.25L0.1 0.25" />
<radialGradient
id="RadialGradID_375" gradientUnits="userSpaceOnUse" gradientTransform="matrix(0.001297, -0.000350952, 0.000152588, 0.000564575, 1.3, 0.8)" spreadMethod ="pad" cx="0" cy="0" r="819.2" fx="0" fy="0" >
<stop  offset="0"  style="stop-color:#FFFFFF;stop-opacity:1" />
<stop  offset="1"  style="stop-color:#FFFFFF;stop-opacity:0" />
</radialGradient>
<path style="fill:url(#RadialGradID_375) " d="M1.4,0.4L1.85 0.4L2 0.55L1.4 0.95L0.5 1.3L0.2 1.05L0.65 0.7L1.4 0.4" />
<radialGradient
id="RadialGradID_376" gradientUnits="userSpaceOnUse" gradientTransform="matrix(0.000717163, 0, 0, 0.000717163, -1.15, 0.55)" spreadMethod ="pad" cx="0" cy="0" r="819.2" fx="0" fy="0" >
<stop  offset="0"  style="stop-color:#FFFFFF;stop-opacity:0.501961" />
<stop  offset="1"  style="stop-color:#FFFFFF;stop-opacity:0" />
</radialGradient>
<path style="fill:url(#RadialGradID_376) " d="M-1.35,0.6L-1.35 0.5L-1.3 0.5L-1.1 0.45Q-0.7 0.45 -0.8 0.8L-1.05 0.8L-1.25 0.75L-1.35 0.6" />
<path style="fill:#FFFFFF;fill-opacity:1" d="M-1,0L-0.95 0L-0.75 0L0.45 0.05L0.75 0L0.7 0.1L0.55 0.15L0.45 0.15L0.4 0.15L0.1 0.15L-0.6 0.15L-0.65 0.15L-0.7 0.15L-1.05 0L-1 0" />
<path style="fill:#F2D6CD;fill-opacity:1" d="M-0.95,0.2L-1.3 0.05L-1.1 0L-1.05 0L-0.7 0.15L-0.95 0.2M0.55,0.15L0.7 0.1L0.75 0L0.8 0L1.05 0.05L1 0.05L0.8 0.15L0.55 0.15" />
<radialGradient
id="RadialGradID_377" gradientUnits="userSpaceOnUse" gradientTransform="matrix(0.00224304, 0, 0, 0.00224304, 1.95, -1.15)" spreadMethod ="pad" cx="0" cy="0" r="819.2" fx="0" fy="0" >
<stop  offset="0.145098"  style="stop-color:#FFFFFF;stop-opacity:0.45098" />
<stop  offset="1"  style="stop-color:#FFFFFF;stop-opacity:0" />
</radialGradient>
<path style="fill:url(#RadialGradID_377) " d="M0.9,-1.1L1.65 -0.7L2.3 0.2Q2.05 -0.25 1.25 -0.25L0.8 -0.35Q0.65 -0.45 0.65 -0.75L0.65 -0.85L0.8 -1.05L0.85 -1.05L0.9 -1.1" />
<radialGradient
id="RadialGradID_378" gradientUnits="userSpaceOnUse" gradientTransform="matrix(0.00476074, 0.00126648, -0.000686646, 0.00256348, 0.2, 0.45)" spreadMethod ="pad" cx="0" cy="0" r="819.2" fx="210527" fy="0" >
<stop  offset="0.227451"  style="stop-color:#FFFFFF;stop-opacity:0.45098" />
<stop  offset="1"  style="stop-color:#FFFFFF;stop-opacity:0" />
</radialGradient>
<path style="fill:url(#RadialGradID_378) " d="M-0.65,-0.5L-0.6 -0.3L-0.45 -0.3L-0.4 -0.45L-0.3 -0.45L-0.3 -0.3L-0.15 -0.5L-0.1 -0.35L-0.05 -0.3L0.1 -0.25L0.2 -0.35L0.3 -0.45L0.55 -0.3L0.8 -0.1L0.55 -0.15Q0.3 -0.15 0.65 -0.15L0.15 -0.1L-0.25 -0.1L-0.3 -0.15L-0.55 -0.15L-1.35 -0.15L-1.9 -0.25L-2.2 -0.3L-2.1 -0.4L-1.5 -0.85L-1.2 -0.55Q-1 -0.4 -0.7 -0.4L-0.65 -0.5" />
<radialGradient
id="RadialGradID_379" gradientUnits="userSpaceOnUse" gradientTransform="matrix(0.00411987, 0, 0, 0.00411987, 1.3, 2.9)" spreadMethod ="pad" cx="0" cy="0" r="819.2" fx="0" fy="0" >
<stop  offset="0.0705882"  style="stop-color:#FFFFFF;stop-opacity:1" />
<stop  offset="1"  style="stop-color:#FFFFFF;stop-opacity:0" />
</radialGradient>
<path style="fill:url(#RadialGradID_379) " d="M2.3,0.4L2.4 0.4L1.7 1.1Q1.2 1.55 0.55 1.6L-1.05 1.6L-1.4 1.35Q0.15 1.6 0.85 1.35L1.9 0.75L2.3 0.4" />
<radialGradient
id="RadialGradID_380" gradientUnits="userSpaceOnUse" gradientTransform="matrix(0.00190735, 0, 0, 0.00300598, 1.3, -1.4)" spreadMethod ="pad" cx="0" cy="0" r="819.2" fx="0" fy="0" >
<stop  offset="0.145098"  style="stop-color:#FFFFFF;stop-opacity:0.831373" />
<stop  offset="1"  style="stop-color:#FFFFFF;stop-opacity:0" />
</radialGradient>
<path style="fill:url(#RadialGradID_380) " d="M2.45,-0.05L1.15 -1.1L0.75 -1.1L0.35 -1.05L0.1 -0.95L-0.05 -1.05L-0.25 -1.2L-0.1 -1.15L0 -1.1L0.15 -1.15L0.55 -1.5L0.8 -1.6L0.9 -1.55L1.15 -1.3L1.9 -0.85L2.45 -0.05" />
<radialGradient
id="RadialGradID_381" gradientUnits="userSpaceOnUse" gradientTransform="matrix(0.00151062, 0, 0, 0.00151062, 1.95, 0.6)" spreadMethod ="pad" cx="0" cy="0" r="819.2" fx="0" fy="0" >
<stop  offset="0.145098"  style="stop-color:#FFFFFF;stop-opacity:0.560784" />
<stop  offset="1"  style="stop-color:#FFFFFF;stop-opacity:0" />
</radialGradient>
<path style="fill:url(#RadialGradID_381) " d="M2.3,0.5Q2.6 0.55 2.6 0.9Q2.6 1.4 1.9 1.65L2 1.15L2.15 0.8L2.3 0.5" />
<radialGradient
id="RadialGradID_382" gradientUnits="userSpaceOnUse" gradientTransform="matrix(0.00233459, 0, 0, 0.00233459, -1.05, -1.65)" spreadMethod ="pad" cx="0" cy="0" r="819.2" fx="0" fy="0" >
<stop  offset="0"  style="stop-color:#FFFFFF;stop-opacity:0.592157" />
<stop  offset="1"  style="stop-color:#FFFFFF;stop-opacity:0" />
</radialGradient>
<path style="fill:url(#RadialGradID_382) " d="M-0.5,-1.85L-0.65 -1.3Q-1.55 -1.15 -2.1 -0.6L-1.55 -1.15Q-1.15 -1.35 -0.9 -1.5L-0.55 -2.3L-0.45 -2.45L-0.35 -2.25L-0.5 -1.85" />
</g>
</svg>
