<?xml version="1.0" encoding="utf-8"?>
<svg version="1.1" id="Layer_1"
xmlns="http://www.w3.org/2000/svg"
xmlns:xlink="http://www.w3.org/1999/xlink"
xmlns:author="http://www.sothink.com"
width="6px" height="6px"
xml:space="preserve">
<g id="49" transform="matrix(1, 0, 0, 1, -67.3, -44.45)">
<radialGradient
id="RadialGradID_600" gradientUnits="userSpaceOnUse" gradientTransform="matrix(0.0032196, 0, 0, 0.00138855, 70.4, 48.9)" spreadMethod ="pad" cx="0" cy="0" r="819.2" fx="0" fy="0" >
<stop  offset="0.172549"  style="stop-color:#E37653;stop-opacity:0.482353" />
<stop  offset="1"  style="stop-color:#FFEFEA;stop-opacity:0" />
</radialGradient>
<path style="fill:url(#RadialGradID_600) " d="M72.9,48.9Q72.9 49.35 72.2 49.65L70.4 50L68.6 49.65Q67.85 49.35 67.85 48.9Q67.85 48.45 68.6 48.15L70.4 47.85L72.2 48.15Q72.9 48.45 72.9 48.9" />
<path style="fill:#C72B2C;fill-opacity:1" d="M72.55,48.05L72.1 48.45L72 48.5L70.35 48.9L70.25 48.9L70.15 48.9Q69.35 48.95 68.55 48.5L68.05 48.15L68.45 48.4Q69.3 48.85 70.15 48.8L70.25 48.8L70.35 48.8L72.1 48.4L72.55 48.05" />
<radialGradient
id="RadialGradID_601" gradientUnits="userSpaceOnUse" gradientTransform="matrix(0.00354004, 0, 0, 0.00354004, 70.2, 46.75)" spreadMethod ="pad" cx="0" cy="0" r="819.2" fx="0" fy="0" >
<stop  offset="0.658824"  style="stop-color:#6B0A0A;stop-opacity:1" />
<stop  offset="0.992157"  style="stop-color:#CC4545;stop-opacity:0.760784" />
</radialGradient>
<path style="fill:url(#RadialGradID_601) " d="M72,47.25L71.75 47.3L70.85 47.35L70.25 47.35L69.65 47.35L68.75 47.3L68.5 47.25L67.55 47.25L67.3 47.1L67.3 47.05L67.35 47L67.4 47L67.4 46.95L67.55 46.95L68.05 47L68.8 46.85L69.45 46.65L69.9 46.55L70.25 46.6L70.55 46.6L70.95 46.6L71.6 46.75L72.35 47L72.95 46.95L73.15 47L73.2 47.05L73.2 47.1L72.95 47.25L72 47.25" />
<radialGradient
id="RadialGradID_602" gradientUnits="userSpaceOnUse" gradientTransform="matrix(0.00392151, 0, 0, 0.00282288, 70.35, 47)" spreadMethod ="pad" cx="0" cy="0" r="819.2" fx="0" fy="0" >
<stop  offset="0.4"  style="stop-color:#F20000;stop-opacity:1" />
<stop  offset="0.976471"  style="stop-color:#990000;stop-opacity:1" />
</radialGradient>
<path style="fill:url(#RadialGradID_602) " d="M72.1,48.4L70.35 48.8L70.25 48.8L70.15 48.8Q69.3 48.85 68.45 48.4L68.05 48.15L67.65 47.5L67.6 47.4L67.6 47.3L67.55 47.25L68.5 47.25L68.75 47.3L69.65 47.35L70.25 47.35L70.85 47.35L71.75 47.3L72 47.25L72.95 47.25L72.9 47.3L72.9 47.4L72.8 47.6L72.55 48.05L72.1 48.4" />
<radialGradient
id="RadialGradID_603" gradientUnits="userSpaceOnUse" gradientTransform="matrix(0.00508118, 0, 0, 0.00152588, 70.15, 45.8)" spreadMethod ="pad" cx="0" cy="0" r="819.2" fx="0" fy="0" >
<stop  offset="0.384314"  style="stop-color:#F20000;stop-opacity:1" />
<stop  offset="0.976471"  style="stop-color:#990000;stop-opacity:1" />
</radialGradient>
<path style="fill:url(#RadialGradID_603) " d="M72.95,46.95L72.35 47L71.6 46.75L70.95 46.6L70.55 46.6L70.25 46.6L69.9 46.55L69.45 46.65L68.8 46.85L68.05 47L67.55 46.95L67.4 46.95L67.4 47L67.65 46.55L68.2 45.9L69.1 45.35L69.85 45.3L70.25 45.5L70.65 45.3Q70.95 45.15 71.35 45.3L72.2 45.9L72.75 46.5L72.95 46.7L73.15 47L72.95 46.95" />
<path style="fill:#FFFFFF;fill-opacity:1" d="M69.75,47L69.7 46.9L69.9 46.75L70.3 46.75L71.05 46.85L71.15 46.85L71.15 46.9L71.1 46.9L71 47L70.8 47L70.35 47L69.9 47L69.75 47" />
<path style="fill:#F2F2F2;fill-opacity:1" d="M71.1,46.9L71.15 46.9L71.15 46.85L71.05 46.85L70.3 46.75L69.9 46.75L69.7 46.9L69.75 47L69.65 47L69.55 47L69.5 47L69.1 46.8L69.25 46.7L69.5 46.6L70 46.55L70.45 46.6L70.65 46.6L71 46.6L71.5 46.75L71.6 46.8L71.65 46.8L71.6 46.85L71.25 47L71.2 47L71 47L71.1 46.9" />
<radialGradient
id="RadialGradID_604" gradientUnits="userSpaceOnUse" gradientTransform="matrix(0.00418091, 0, 0, 0.00242615, 70.35, 47.55)" spreadMethod ="pad" cx="0" cy="0" r="819.2" fx="0" fy="0" >
<stop  offset="0.00784314"  style="stop-color:#FFFFFF;stop-opacity:0.760784" />
<stop  offset="0.972549"  style="stop-color:#FF4900;stop-opacity:0" />
</radialGradient>
<path style="fill:url(#RadialGradID_604) " d="M68.85,47.75L69.1 47.8L71.3 47.65L71.7 47.6L72 47.6L72.1 47.65Q71.95 47.95 71.2 48.15L69.65 48.15L68.7 47.85L68.6 47.7L68.65 47.7L68.85 47.75" />
<radialGradient
id="RadialGradID_605" gradientUnits="userSpaceOnUse" gradientTransform="matrix(0.00134277, 0, 0, 0.00134277, 70.2, 45.5)" spreadMethod ="pad" cx="0" cy="0" r="819.2" fx="0" fy="0" >
<stop  offset="0.0823529"  style="stop-color:#FFFFFF;stop-opacity:0.423529" />
<stop  offset="0.988235"  style="stop-color:#FFFFFF;stop-opacity:0" />
</radialGradient>
<path style="fill:url(#RadialGradID_605) " d="M70.3,45.8L70.7 45.6L71.15 45.5L70.45 45.8L70.35 45.85L70.4 45.9L70.35 46.1L70.3 46.25L70.15 46.1L70.15 45.95L70.25 45.8L70.3 45.8" />
<radialGradient
id="RadialGradID_606" gradientUnits="userSpaceOnUse" gradientTransform="matrix(0.00192261, 0, 0, 0.00192261, 70.6, 45.75)" spreadMethod ="pad" cx="0" cy="0" r="819.2" fx="0" fy="0" >
<stop  offset="0"  style="stop-color:#E67A60;stop-opacity:0.541176" />
<stop  offset="1"  style="stop-color:#FFD1C4;stop-opacity:0" />
</radialGradient>
<path style="fill:url(#RadialGradID_606) " d="M70.55,44.7L70.7 45.45L70.65 45.6L70.45 45.65L70.25 45.8L70 45.7L69.75 45.55L70.1 44.55L70.5 44.45L70.55 44.65L70.55 44.7" />
<path style="fill:#FFFFFF;fill-opacity:0.8" d="M70.35,45.75L70.5 45.75L70.5 45.9L70.45 45.95L70.35 45.9L70.35 45.75M69.65,45.95L69.7 46.05L69.6 46.15L69.5 46.1L69.5 45.95L69.65 45.95M68.85,45.85L68.85 46L68.8 46.05L68.7 46L68.7 45.85L68.85 45.85M68.45,47.45L68.55 47.5L68.55 47.6L68.45 47.65L68.4 47.6L68.4 47.5L68.45 47.45M68.75,47.65L68.85 47.65L68.9 47.75L68.85 47.8L68.75 47.8L68.7 47.75L68.75 47.65M70.3,46.4L70.35 46.5L70.3 46.55L70.15 46.55L70.15 46.4L70.3 46.4M69.65,47.75L69.7 47.8L69.65 47.9L69.5 47.9L69.5 47.75L69.65 47.75M71.6,45.95L71.5 46.05L71.4 46L71.4 45.85L71.55 45.85L71.6 45.95M71.1,46.15L71.1 46.3L70.95 46.3L70.95 46.15L71.1 46.15M71.95,47.6L72.1 47.6L72.15 47.7L72.1 47.75L71.95 47.75L71.95 47.6M71.85,48.35L71.8 48.3L71.8 48.15L71.95 48.15L71.95 48.3L71.85 48.35M71.5,48.3L71.3 48.4Q70.95 48.45 71 48.1L71.15 47.9L71.3 47.85Q71.65 47.95 71.5 48.3M71.35,48.5L71.4 48.6L71.3 48.7L71.2 48.65L71.2 48.5L71.35 48.5M70.6,48.3L70.65 48.4L70.55 48.5L70.45 48.45L70.45 48.3L70.6 48.3M71,48.45L71 48.6L70.85 48.6L70.85 48.45L71 48.45M70.3,47.9L70.4 47.9L70.45 48L70.4 48.05L70.3 48.05L70.25 48L70.3 47.9M70,48.5L69.95 48.45L69.95 48.3L70.1 48.3L70.1 48.45L70 48.5M69.4,48.4L69.4 48.55L69.25 48.55L69.25 48.4L69.4 48.4M68.85,48.15L68.75 48.15L68.7 48.05L68.75 48L68.85 48L68.9 48.05L68.85 48.15M68.3,47.95L68.2 47.9L68.2 47.8L68.3 47.75L68.35 47.8L68.35 47.9L68.3 47.95" />
<radialGradient
id="RadialGradID_607" gradientUnits="userSpaceOnUse" gradientTransform="matrix(0.00105286, 0, 0, 0.00105286, 68.15, 48.25)" spreadMethod ="pad" cx="0" cy="0" r="819.2" fx="0" fy="0" >
<stop  offset="0.145098"  style="stop-color:#FFFFFF;stop-opacity:0.831373" />
<stop  offset="1"  style="stop-color:#FFFFFF;stop-opacity:0" />
</radialGradient>
<path style="fill:url(#RadialGradID_607) " d="M67.5,47.7L68 48.2L68.8 48.75L68.75 48.75L67.95 48.25L67.5 47.75L67.5 47.7" />
<radialGradient
id="RadialGradID_608" gradientUnits="userSpaceOnUse" gradientTransform="matrix(0.001297, 0, 0, 0.001297, 72.15, 48.35)" spreadMethod ="pad" cx="0" cy="0" r="819.2" fx="0" fy="0" >
<stop  offset="0.145098"  style="stop-color:#FFFFFF;stop-opacity:0.831373" />
<stop  offset="1"  style="stop-color:#FFFFFF;stop-opacity:0" />
</radialGradient>
<path style="fill:url(#RadialGradID_608) " d="M72.85,47.75L72.2 48.4L71.45 48.95L71.4 48.95L71.9 48.6L72.8 47.7L72.85 47.75" />
<radialGradient
id="RadialGradID_609" gradientUnits="userSpaceOnUse" gradientTransform="matrix(0.000717163, 0, 0, 0.000717163, 70.3, 45.4)" spreadMethod ="pad" cx="0" cy="0" r="819.2" fx="0" fy="0" >
<stop  offset="0.145098"  style="stop-color:#FFFFFF;stop-opacity:0.831373" />
<stop  offset="1"  style="stop-color:#FFFFFF;stop-opacity:0" />
</radialGradient>
<path style="fill:url(#RadialGradID_609) " d="M70.85,45.2L70.85 45.25L70.55 45.45L70.2 45.55L69.95 45.45L69.75 45.35L69.75 45.3L69.8 45.3L69.95 45.35L70.2 45.45L70.55 45.35L70.85 45.2" />
<radialGradient
id="RadialGradID_610" gradientUnits="userSpaceOnUse" gradientTransform="matrix(0.00132751, 0.000167847, -0.000167847, 0.00132751, 72.2, 46.25)" spreadMethod ="pad" cx="0" cy="0" r="819.2" fx="0" fy="0" >
<stop  offset="0.145098"  style="stop-color:#FFFFFF;stop-opacity:0.831373" />
<stop  offset="1"  style="stop-color:#FFFFFF;stop-opacity:0" />
</radialGradient>
<path style="fill:url(#RadialGradID_610) " d="M72.35,46.15L72.7 46.55L73 46.95L72.95 46.95L72.55 46.5L71.4 45.5L72.35 46.15" />
<radialGradient
id="RadialGradID_611" gradientUnits="userSpaceOnUse" gradientTransform="matrix(0.00112915, -0.000213623, 0.000213623, 0.00112915, 68.25, 46.15)" spreadMethod ="pad" cx="0" cy="0" r="819.2" fx="0" fy="0" >
<stop  offset="0.145098"  style="stop-color:#FFFFFF;stop-opacity:0.831373" />
<stop  offset="1"  style="stop-color:#FFFFFF;stop-opacity:0" />
</radialGradient>
<path style="fill:url(#RadialGradID_611) " d="M68.9,45.5L68.2 46.15L67.65 46.8L67.6 46.8Q67.55 46.65 68.15 46.05L68.85 45.45L68.9 45.5" />
</g>
</svg>
