<?xml version="1.0" encoding="utf-8"?>
<svg version="1.1" id="Layer_1"
xmlns="http://www.w3.org/2000/svg"
xmlns:xlink="http://www.w3.org/1999/xlink"
xmlns:author="http://www.sothink.com"
width="7px" height="6px"
xml:space="preserve">
<g id="45" transform="matrix(1, 0, 0, 1, -66.8, -44.45)">
<radialGradient
id="RadialGradID_523" gradientUnits="userSpaceOnUse" gradientTransform="matrix(0.00088501, 0.000244141, -0.000305176, 0.00111389, 72.9, 47)" spreadMethod ="pad" cx="0" cy="0" r="819.2" fx="0" fy="0" >
<stop  offset="0"  style="stop-color:#C52929;stop-opacity:0.580392" />
<stop  offset="1"  style="stop-color:#FFEFEA;stop-opacity:0" />
</radialGradient>
<path style="fill:url(#RadialGradID_523) " d="M73.3,46.4Q73.55 46.5 73.45 46.95L73.25 47.4L73 47.7L72.65 47.65L72.35 47.15Q72.35 46.85 72.5 46.7L72.55 46.55L72.75 46.4L72.95 46.35L73.3 46.4" />
<radialGradient
id="RadialGradID_524" gradientUnits="userSpaceOnUse" gradientTransform="matrix(-0.00088501, 0.000244141, 0.000305176, 0.00111389, 67.4, 47.05)" spreadMethod ="pad" cx="0" cy="0" r="819.2" fx="0" fy="0" >
<stop  offset="0"  style="stop-color:#C52929;stop-opacity:0.580392" />
<stop  offset="1"  style="stop-color:#FFEFEA;stop-opacity:0" />
</radialGradient>
<path style="fill:url(#RadialGradID_524) " d="M67.35,46.4L67.55 46.45L67.7 46.6L67.75 46.75L67.9 47.2L67.6 47.7L67.3 47.75L67 47.45L66.8 46.95Q66.75 46.55 66.95 46.45L67.35 46.4" />
<radialGradient
id="RadialGradID_525" gradientUnits="userSpaceOnUse" gradientTransform="matrix(0.00323486, 0, 0, 0.00146484, 70.3, 49)" spreadMethod ="pad" cx="0" cy="0" r="819.2" fx="0" fy="0" >
<stop  offset="0.109804"  style="stop-color:#E37653;stop-opacity:0.482353" />
<stop  offset="1"  style="stop-color:#FFEFEA;stop-opacity:0" />
</radialGradient>
<path style="fill:url(#RadialGradID_525) " d="M72.1,49.8L70.3 50.15L68.5 49.8Q67.75 49.5 67.75 49Q67.75 48.55 68.5 48.2L70.3 47.85L72.1 48.2Q72.85 48.55 72.85 49Q72.85 49.5 72.1 49.8" />
<radialGradient
id="RadialGradID_526" gradientUnits="userSpaceOnUse" gradientTransform="matrix(0.00367737, 0, 0, 0.00340271, 70.25, 46.5)" spreadMethod ="pad" cx="0" cy="0" r="819.2" fx="0" fy="0" >
<stop  offset="0.682353"  style="stop-color:#B5173D;stop-opacity:1" />
<stop  offset="1"  style="stop-color:#C21941;stop-opacity:0.741176" />
</radialGradient>
<path style="fill:url(#RadialGradID_526) " d="M72.4,47.05L72.4 46.95L72.35 46.95L71.65 46.7L70.85 46.5L70.65 46.55L70.2 46.6L69.85 46.55L69.6 46.5L68.8 46.7L68.05 46.95L68.05 47.05L68.3 47.15L67.75 47.15L67.7 47.15L67.5 47.15L67.35 47Q67.4 46.9 67.5 46.9L67.85 46.95L68.65 46.65L69.65 46.4L70.2 46.45L70.8 46.4L71.8 46.65L72.6 46.95L73 46.9L73.1 47L72.95 47.15L72.9 47.15L72.65 47.15L72.2 47.15L72.4 47.05" />
<radialGradient
id="RadialGradID_527" gradientUnits="userSpaceOnUse" gradientTransform="matrix(0.00396729, 0, 0, 0.00205994, 70.15, 46.75)" spreadMethod ="pad" cx="0" cy="0" r="819.2" fx="0" fy="0" >
<stop  offset="0.101961"  style="stop-color:#FF6687;stop-opacity:1" />
<stop  offset="0.54902"  style="stop-color:#FF7DA3;stop-opacity:0.913725" />
<stop  offset="1"  style="stop-color:#FF99CA;stop-opacity:0.313725" />
</radialGradient>
<path style="fill:url(#RadialGradID_527) " d="M72.6,46.95L71.8 46.65L70.8 46.4L70.2 46.45L69.65 46.4L68.65 46.65L67.85 46.95L67.5 46.9L68.5 45.75Q68.95 45.35 69.3 45.4Q69.6 45.45 69.95 45.65L70.2 45.7L70.6 45.6L71.1 45.4Q71.3 45.35 71.9 45.75L73 46.9L72.6 46.95" />
<radialGradient
id="RadialGradID_528" gradientUnits="userSpaceOnUse" gradientTransform="matrix(0.00326538, 0, 0, 0.00230408, 70.25, 46.95)" spreadMethod ="pad" cx="0" cy="0" r="819.2" fx="0" fy="0" >
<stop  offset="0.486275"  style="stop-color:#6B0A0A;stop-opacity:1" />
<stop  offset="1"  style="stop-color:#B73E3E;stop-opacity:1" />
</radialGradient>
<path style="fill:url(#RadialGradID_528) " d="M72.2,47.15L72.15 47.15L71.35 47.35L70.2 47.5L69.15 47.35L68.35 47.15L68.3 47.15L68.05 47.05L68.05 46.95L68.8 46.7L69.6 46.5L69.85 46.55L70.2 46.6L70.65 46.55L70.85 46.5L71.65 46.7L72.35 46.95L72.4 46.95L72.4 47.05L72.2 47.15" />
<radialGradient
id="RadialGradID_529" gradientUnits="userSpaceOnUse" gradientTransform="matrix(0.00135803, 0, 0, 0.00125122, 70.6, 45.45)" spreadMethod ="pad" cx="0" cy="0" r="819.2" fx="0" fy="0" >
<stop  offset="0"  style="stop-color:#E67A60;stop-opacity:0.541176" />
<stop  offset="1"  style="stop-color:#FFD1C4;stop-opacity:0" />
</radialGradient>
<path style="fill:url(#RadialGradID_529) " d="M70.5,44.65L70.65 45.05L70.6 45.4L70.3 45.5L70.05 45.45L69.75 45.35L69.65 45.35L69.6 45.25L69.8 45.25L70.1 45.15L70.15 44.85L70.15 44.6L70.35 44.45L70.5 44.65" />
<radialGradient
id="RadialGradID_530" gradientUnits="userSpaceOnUse" gradientTransform="matrix(0.00305176, 0, 0, 0.00152588, 70.3, 46.9)" spreadMethod ="pad" cx="0" cy="0" r="819.2" fx="0" fy="0" >
<stop  offset="0.337255"  style="stop-color:#FFFFFF;stop-opacity:1" />
<stop  offset="1"  style="stop-color:#FFFFFF;stop-opacity:0.701961" />
</radialGradient>
<path style="fill:url(#RadialGradID_530) " d="M70.15,46.65L70.35 46.65L70.65 46.6L70.85 46.6L71.65 46.8L72 46.95L70.95 47.1L69.95 47.2L68.8 46.95L68.6 46.9L68.8 46.8L69.6 46.6L69.85 46.6L70.15 46.65" />
<radialGradient
id="RadialGradID_531" gradientUnits="userSpaceOnUse" gradientTransform="matrix(0.00286865, 0, 0, 0.00216675, 70.3, 47.45)" spreadMethod ="pad" cx="0" cy="0" r="819.2" fx="0" fy="0" >
<stop  offset="0.270588"  style="stop-color:#FFFFFF;stop-opacity:1" />
<stop  offset="1"  style="stop-color:#FFFFFF;stop-opacity:0.380392" />
</radialGradient>
<path style="fill:url(#RadialGradID_531) " d="M69.85,47.55L69.45 47.5Q69.05 47.4 68.65 47.1L68.7 47Q69.35 47.35 70.1 47.35L71.5 47.15L72.15 47L72.2 47.1L72.15 47.15L71.3 47.45L70.8 47.55L70.25 47.55L69.85 47.55" />
<path style="fill:#D13E56;fill-opacity:1" d="M72.1,48.35L71.6 48.7L71.05 48.95L70.35 49.05L70.15 49L69.65 48.95L69.1 48.8L68.55 48.45L68.35 48.3L68.95 48.65L69.55 48.85L70.1 48.9L70.3 48.9L71.1 48.8L71.75 48.6L72.2 48.25L72.1 48.35" />
<radialGradient
id="RadialGradID_532" gradientUnits="userSpaceOnUse" gradientTransform="matrix(0.0032959, 0, 0, 0.00160217, 70.35, 47.8)" spreadMethod ="pad" cx="0" cy="0" r="819.2" fx="0" fy="0" >
<stop  offset="0.00784314"  style="stop-color:#FF476B;stop-opacity:0.231373" />
<stop  offset="0.831373"  style="stop-color:#FF7093;stop-opacity:0.792157" />
</radialGradient>
<path style="fill:url(#RadialGradID_532) " d="M67.9,47.5L68.15 47.65L68.4 47.5L68.5 47.55L68.45 47.65L68.35 47.8L68.35 48.1L68.65 47.9L68.95 47.75L69.1 48.1Q69.05 48.4 69.3 48.45L69.95 48.55L70 48.25L70.1 48L70.15 48.25L70.15 48.45L70.2 48.55L70.5 48.55L70.5 48.2Q70.5 47.85 70.6 47.85L70.7 48.25Q70.7 48.55 70.85 48.5L71.55 48.2L71.85 47.9L71.8 47.7L71.7 47.6L71.75 47.55L71.85 47.65L72 47.75L72 47.55L72.1 47.55L72.3 47.7L72.4 47.7L72.55 47.65L72.9 47.1L72.95 47.1L72.75 47.6L72.75 47.65L72.5 47.9L72.25 48.2L71.75 48.6L71.1 48.8L70.3 48.9L70.1 48.9L69.55 48.85L68.95 48.65L68.35 48.3L67.8 47.75L67.55 47.3L67.5 47.1L67.7 47.1L67.9 47.5" />
<radialGradient
id="RadialGradID_533" gradientUnits="userSpaceOnUse" gradientTransform="matrix(0.003479, 0, 0, 0.00172424, 70.15, 46.95)" spreadMethod ="pad" cx="0" cy="0" r="819.2" fx="0" fy="0" >
<stop  offset="0.443137"  style="stop-color:#FF6B8B;stop-opacity:1" />
<stop  offset="0.709804"  style="stop-color:#FF6696;stop-opacity:0.701961" />
<stop  offset="1"  style="stop-color:#FF99CA;stop-opacity:0.843137" />
</radialGradient>
<path style="fill:url(#RadialGradID_533) " d="M72.9,47.1L72.55 47.65L72.4 47.7L72.3 47.7L72.1 47.55L72 47.55L72 47.75L71.85 47.65L71.75 47.55L71.7 47.6L71.8 47.7L71.85 47.9L71.55 48.2L70.85 48.5Q70.7 48.55 70.7 48.25L70.6 47.85Q70.5 47.85 70.5 48.2L70.5 48.55L70.2 48.55L70.15 48.45L70.15 48.25L70.1 48L70 48.25L69.95 48.55L69.3 48.45Q69.05 48.4 69.1 48.1L68.95 47.75L68.65 47.9L68.35 48.1L68.35 47.8L68.45 47.65L68.5 47.55L68.4 47.5L68.15 47.65L67.9 47.5L67.7 47.1L67.75 47.1L68.3 47.1L68.35 47.1L69.15 47.35L70.2 47.5L71.35 47.35L72.15 47.1L72.2 47.1L72.65 47.1L72.9 47.1" />
<radialGradient
id="RadialGradID_534" gradientUnits="userSpaceOnUse" gradientTransform="matrix(0.000991821, 0, 0, 0.000915527, 70.15, 45.5)" spreadMethod ="pad" cx="0" cy="0" r="819.2" fx="0" fy="0" >
<stop  offset="0"  style="stop-color:#FFFFFF;stop-opacity:0.733333" />
<stop  offset="1"  style="stop-color:#FFFFFF;stop-opacity:0" />
</radialGradient>
<path style="fill:url(#RadialGradID_534) " d="M70.35,45.45L70 45.45L69.5 45.25L69.65 45.2L70.05 45.35L70.15 45.35L70.45 45.3L70.6 45.25L70.65 45.25L70.35 45.45" />
<radialGradient
id="RadialGradID_535" gradientUnits="userSpaceOnUse" gradientTransform="matrix(0.00154114, 0, 0, 0.00141907, 69.25, 45.95)" spreadMethod ="pad" cx="0" cy="0" r="819.2" fx="210376" fy="0" >
<stop  offset="0"  style="stop-color:#FFFFFF;stop-opacity:0.733333" />
<stop  offset="1"  style="stop-color:#FFFFFF;stop-opacity:0" />
</radialGradient>
<path style="fill:url(#RadialGradID_535) " d="M67.8,46.1L67.9 46L68.1 45.8Q68.45 45.45 69 45.3L69.05 45.35L68.7 45.55L67.85 46.1L67.8 46.1" />
<radialGradient
id="RadialGradID_536" gradientUnits="userSpaceOnUse" gradientTransform="matrix(0.0014801, 0, 0, 0.00137329, 71.85, 45.95)" spreadMethod ="pad" cx="0" cy="0" r="819.2" fx="0" fy="0" >
<stop  offset="0"  style="stop-color:#FFFFFF;stop-opacity:0.733333" />
<stop  offset="1"  style="stop-color:#FFFFFF;stop-opacity:0" />
</radialGradient>
<path style="fill:url(#RadialGradID_536) " d="M71.65,45.65L71.25 45.35L71.1 45.25L71.7 45.55L72.1 45.8L72.45 46L72.75 46.25L72.95 46.5L72.95 46.55L72.6 46.25L72.3 46L72.05 45.85L71.65 45.65" />
<radialGradient
id="RadialGradID_537" gradientUnits="userSpaceOnUse" gradientTransform="matrix(0.000305176, 0, 0, 0.000274658, 68.3, 47.35)" spreadMethod ="pad" cx="0" cy="0" r="819.2" fx="0" fy="0" >
<stop  offset="0.156863"  style="stop-color:#FFFFFF;stop-opacity:0.423529" />
<stop  offset="1"  style="stop-color:#FFFFFF;stop-opacity:0" />
</radialGradient>
<path style="fill:url(#RadialGradID_537) " d="M68.2,47.45L68.45 47.3L68.4 47.35L68.15 47.55L68.2 47.45" />
<radialGradient
id="RadialGradID_538" gradientUnits="userSpaceOnUse" gradientTransform="matrix(0.00050354, 0, 0, 0.000473022, 68.7, 47.5)" spreadMethod ="pad" cx="0" cy="0" r="819.2" fx="0" fy="0" >
<stop  offset="0.156863"  style="stop-color:#FFFFFF;stop-opacity:0.423529" />
<stop  offset="1"  style="stop-color:#FFFFFF;stop-opacity:0" />
</radialGradient>
<path style="fill:url(#RadialGradID_538) " d="M68.55,47.7L68.7 47.5L68.9 47.45L68.85 47.6L69.1 47.55L68.95 47.7L68.65 47.85L68.75 47.65L68.5 47.8L68.55 47.7" />
<radialGradient
id="RadialGradID_539" gradientUnits="userSpaceOnUse" gradientTransform="matrix(0.000930786, 0, 0, 0.000869751, 69.75, 48.05)" spreadMethod ="pad" cx="0" cy="0" r="819.2" fx="0" fy="0" >
<stop  offset="0.156863"  style="stop-color:#FFFFFF;stop-opacity:0.8" />
<stop  offset="1"  style="stop-color:#FFFFFF;stop-opacity:0" />
</radialGradient>
<path style="fill:url(#RadialGradID_539) " d="M69.85,47.9L69.9 47.75L70 48.3L69.95 48.3L69.9 48.1L69.85 48.4L69.8 48.55L69.75 48.05L69.65 48.4L69.6 48.4L69.6 48L69.4 48.45L69.45 47.9L69.25 48.25L69.25 47.9L69.3 47.8L69.2 47.8L69.2 47.7L69.15 47.75L69.1 47.75L69.2 47.55L69.3 47.7L69.35 47.65L69.4 47.7L69.35 47.9L69.5 47.65L69.55 47.7L69.5 48.05L69.8 47.7L69.85 47.9" />
<radialGradient
id="RadialGradID_540" gradientUnits="userSpaceOnUse" gradientTransform="matrix(0.000656128, 0, 0, 0.000595093, 70.35, 48.05)" spreadMethod ="pad" cx="0" cy="0" r="819.2" fx="0" fy="0" >
<stop  offset="0.156863"  style="stop-color:#FFFFFF;stop-opacity:0.8" />
<stop  offset="1"  style="stop-color:#FFFFFF;stop-opacity:0" />
</radialGradient>
<path style="fill:url(#RadialGradID_540) " d="M70.45,47.95L70.45 48.3L70.4 48.3L70.35 48.55L70.25 48L70.25 47.75L70.35 48.05L70.35 47.8L70.45 47.95" />
<radialGradient
id="RadialGradID_541" gradientUnits="userSpaceOnUse" gradientTransform="matrix(0.000564575, 0, 0, 0.000534058, 70.8, 47.95)" spreadMethod ="pad" cx="0" cy="0" r="819.2" fx="0" fy="0" >
<stop  offset="0.156863"  style="stop-color:#FFFFFF;stop-opacity:0.6" />
<stop  offset="1"  style="stop-color:#FFFFFF;stop-opacity:0" />
</radialGradient>
<path style="fill:url(#RadialGradID_541) " d="M70.8,47.95L70.85 47.75L70.9 48L70.85 48.35L70.7 48.05L70.75 47.7L70.8 47.95" />
<radialGradient
id="RadialGradID_542" gradientUnits="userSpaceOnUse" gradientTransform="matrix(0.000488281, 0, 0, 0.000442505, 71.7, 47.7)" spreadMethod ="pad" cx="0" cy="0" r="819.2" fx="0" fy="0" >
<stop  offset="0.156863"  style="stop-color:#FFFFFF;stop-opacity:0.423529" />
<stop  offset="1"  style="stop-color:#FFFFFF;stop-opacity:0" />
</radialGradient>
<path style="fill:url(#RadialGradID_542) " d="M71.8,47.9L71.85 48.05L71.8 48L71.65 47.8L71.7 48.05L71.65 48.05L71.6 47.95L71.5 47.45L71.6 47.55L71.7 47.7L71.8 47.9" />
<radialGradient
id="RadialGradID_543" gradientUnits="userSpaceOnUse" gradientTransform="matrix(0.000549316, 0, 0, 0.000518799, 71.1, 48)" spreadMethod ="pad" cx="0" cy="0" r="819.2" fx="0" fy="0" >
<stop  offset="0.156863"  style="stop-color:#FFFFFF;stop-opacity:0.6" />
<stop  offset="1"  style="stop-color:#FFFFFF;stop-opacity:0" />
</radialGradient>
<path style="fill:url(#RadialGradID_543) " d="M71.2,47.7L71.4 47.95L71.45 48.05L71.4 48.05L71.15 47.8L71.25 48.25L71.2 48.35L71.15 48.25L70.9 47.65L70.95 47.65L71.1 48L71.1 47.8L71.1 47.6L71.2 47.7" />
<radialGradient
id="RadialGradID_544" gradientUnits="userSpaceOnUse" gradientTransform="matrix(0.00050354, 0, 0, 0.000457764, 72.05, 47.45)" spreadMethod ="pad" cx="0" cy="0" r="819.2" fx="0" fy="0" >
<stop  offset="0.156863"  style="stop-color:#FFFFFF;stop-opacity:0.423529" />
<stop  offset="1"  style="stop-color:#FFFFFF;stop-opacity:0" />
</radialGradient>
<path style="fill:url(#RadialGradID_544) " d="M72.2,47.35L72.3 47.35L72.45 47.55L72.3 47.45L72.3 47.6L72.2 47.6L72.05 47.45L72.05 47.6L71.95 47.65L71.9 47.4L72 47.5L72.05 47.4L72.1 47.35L72.2 47.5L72.2 47.35" />
<radialGradient
id="RadialGradID_545" gradientUnits="userSpaceOnUse" gradientTransform="matrix(0.00204468, 0, 0, 0.00189209, 71.6, 49.25)" spreadMethod ="pad" cx="0" cy="0" r="819.2" fx="0" fy="0" >
<stop  offset="0"  style="stop-color:#FFFFFF;stop-opacity:0.423529" />
<stop  offset="1"  style="stop-color:#FFFFFF;stop-opacity:0" />
</radialGradient>
<path style="fill:url(#RadialGradID_545) " d="M70.15,48.9L71.35 48.55L72.3 48.05L72.3 48.1L71.5 48.6L70.3 48.9L70.15 48.9" />
<radialGradient
id="RadialGradID_546" gradientUnits="userSpaceOnUse" gradientTransform="matrix(0.00050354, 0, 0, 0.000686646, 69.4, 45.75)" spreadMethod ="pad" cx="0" cy="0" r="819.2" fx="0" fy="0" >
<stop  offset="0"  style="stop-color:#FFFFFF;stop-opacity:0.25098" />
<stop  offset="1"  style="stop-color:#FFFFFF;stop-opacity:0" />
</radialGradient>
<path style="fill:url(#RadialGradID_546) " d="M69.15,45.6L69.2 45.55Q69.55 45.4 69.7 45.7L69.65 45.8L68.75 45.85L69.15 45.6" />
<radialGradient
id="RadialGradID_547" gradientUnits="userSpaceOnUse" gradientTransform="matrix(0.00062561, 0, 0, 0.000579834, 70.3, 45.85)" spreadMethod ="pad" cx="0" cy="0" r="819.2" fx="0" fy="0" >
<stop  offset="0.156863"  style="stop-color:#FFFFFF;stop-opacity:0.6" />
<stop  offset="1"  style="stop-color:#FFFFFF;stop-opacity:0" />
</radialGradient>
<path style="fill:url(#RadialGradID_547) " d="M70.15,45.75L70.45 45.6Q70.2 45.85 70.25 46.15L70.2 46.3L70.15 46.3L70.15 45.9L70.15 45.75" />
<radialGradient
id="RadialGradID_548" gradientUnits="userSpaceOnUse" gradientTransform="matrix(0.00050354, 0, 0, 0.000457764, 70.65, 45.9)" spreadMethod ="pad" cx="0" cy="0" r="819.2" fx="0" fy="0" >
<stop  offset="0.156863"  style="stop-color:#FFFFFF;stop-opacity:0.423529" />
<stop  offset="1"  style="stop-color:#FFFFFF;stop-opacity:0" />
</radialGradient>
<path style="fill:url(#RadialGradID_548) " d="M70.65,45.7L70.65 45.95L70.55 46.25Q70.4 45.95 70.55 45.65L70.65 45.7" />
<radialGradient
id="RadialGradID_549" gradientUnits="userSpaceOnUse" gradientTransform="matrix(0.000366211, 0, 0, 0.000335693, 71.15, 45.85)" spreadMethod ="pad" cx="0" cy="0" r="819.2" fx="0" fy="0" >
<stop  offset="0.156863"  style="stop-color:#FFFFFF;stop-opacity:0.423529" />
<stop  offset="1"  style="stop-color:#FFFFFF;stop-opacity:0" />
</radialGradient>
<path style="fill:url(#RadialGradID_549) " d="M71.15,46.1L71.15 45.8L71.3 45.6L71.3 45.7L71.25 45.75L71.2 46.15L71.15 46.1" />
<path style="fill:#FFFFFF;fill-opacity:0.8" d="M68.85,46.1L68.75 46.05L68.75 45.9L68.9 45.9L68.9 46.05L68.85 46.1M69.55,46L69.7 46L69.75 46.1L69.65 46.2L69.55 46.15L69.55 46M70.65,46.2L70.7 46.3L70.65 46.35L70.5 46.35L70.5 46.2L70.65 46.2M70.75,45.8L70.9 45.8L70.9 45.95L70.85 46L70.75 45.95L70.75 45.8M68.25,47.75L68.35 47.7L68.4 47.75L68.4 47.85L68.35 47.9L68.25 47.85L68.25 47.75M70.5,47.95L70.45 48L70.35 48L70.3 47.95L70.35 47.85L70.45 47.85L70.5 47.95M69.7,47.85L69.55 47.85L69.55 47.7L69.7 47.7L69.75 47.75L69.7 47.85M68.45,47.45L68.5 47.4L68.6 47.45L68.6 47.55L68.5 47.6L68.45 47.55L68.45 47.45M68.9,47.6L68.95 47.7L68.9 47.75L68.8 47.75L68.75 47.7L68.8 47.6L68.9 47.6M68.9,47.95L68.95 48L68.9 48.1L68.8 48.1L68.75 48L68.8 47.95L68.9 47.95M69.3,48.35L69.45 48.35L69.45 48.5L69.3 48.5L69.3 48.35M70.65,48.25L70.7 48.35L70.6 48.45L70.5 48.4L70.5 48.25L70.65 48.25M70,48.25L70.15 48.25L70.15 48.4L70.05 48.45L70 48.4L70 48.25M71.2,46.1L71.35 46.1L71.35 46.25L71.2 46.25L71.2 46.1M71.6,45.8L71.75 45.8L71.8 45.9L71.7 46L71.6 45.95L71.6 45.8M72.2,47.65L72.15 47.7L72 47.7L72 47.55L72.15 47.55L72.2 47.65M71.35,47.8Q71.7 47.9 71.55 48.25L71.35 48.35Q71 48.4 71.05 48.05L71.2 47.85L71.35 47.8M71.9,48.3L71.85 48.25L71.85 48.1L72 48.1L72 48.25L71.9 48.3M70.9,48.55L70.9 48.4L71.05 48.4L71.05 48.55L70.9 48.55M71.25,48.45L71.4 48.45L71.45 48.55L71.35 48.65L71.25 48.6L71.25 48.45" />
</g>
</svg>
