<?xml version="1.0" encoding="utf-8"?>
<svg version="1.1" id="Layer_1"
xmlns="http://www.w3.org/2000/svg"
xmlns:xlink="http://www.w3.org/1999/xlink"
xmlns:author="http://www.sothink.com"
width="7px" height="4px"
xml:space="preserve">
<g id="52" transform="matrix(1, 0, 0, 1, 3.15, 1.55)">
<radialGradient
id="RadialGradID_635" gradientUnits="userSpaceOnUse" gradientTransform="matrix(0.000320435, -0.00119019, -0.00323486, 0, 0.05, 0.75)" spreadMethod ="pad" cx="0" cy="0" r="819.2" fx="0" fy="0" >
<stop  offset="0.176471"  style="stop-color:#E37653;stop-opacity:0.6" />
<stop  offset="1"  style="stop-color:#FFEFEA;stop-opacity:0" />
</radialGradient>
<path style="fill:url(#RadialGradID_635) " d="M0.2,0L1.6 0.25Q2.1 0.5 2.1 0.8L1.4 1.35L-0.2 1.55L-1.45 1.35L-2 0.8Q-1.95 0.45 -1.2 0.25L0.2 0" />
<radialGradient
id="RadialGradID_636" gradientUnits="userSpaceOnUse" gradientTransform="matrix(0.0012207, -1.52588e-005, 1.52588e-005, 0.00117493, 2.9, -0.8)" spreadMethod ="pad" cx="0" cy="0" r="819.2" fx="0" fy="0" >
<stop  offset="0"  style="stop-color:#430000;stop-opacity:1" />
<stop  offset="1"  style="stop-color:#A55844;stop-opacity:1" />
</radialGradient>
<path style="fill:url(#RadialGradID_636) " d="M1.9,-0.6L2.15 -0.6L2.3 -0.6L2.35 -0.6L2.7 -0.75L2.85 -0.9L2.95 -1L3 -0.9L3 -0.8L2.95 -0.7L2.85 -0.7L2.8 -0.65L2.75 -0.65L2.7 -0.65L2.2 -0.55L2.1 -0.55L2 -0.55L1.95 -0.55L1.9 -0.6" />
<radialGradient
id="RadialGradID_637" gradientUnits="userSpaceOnUse" gradientTransform="matrix(0.00306702, -4.57764e-005, 4.57764e-005, 0.00296021, 0.2, -1.45)" spreadMethod ="pad" cx="0" cy="0" r="819.2" fx="0" fy="0" >
<stop  offset="0.14902"  style="stop-color:#FFFAFA;stop-opacity:0.741176" />
<stop  offset="1"  style="stop-color:#FFD1D1;stop-opacity:0" />
</radialGradient>
<path style="fill:url(#RadialGradID_637) " d="M2.1,-1L1.8 -1.1L0.75 -1.45L0.45 -1.4L0.1 -1.3L-0.7 -1.4L-1.4 -1.25L-1.1 -1.35L-0.4 -1.55L-0.15 -1.5L0.05 -1.45L0.15 -1.45L0.4 -1.5L0.65 -1.55L1.6 -1.25L2.4 -0.95L2.45 -0.9L2.1 -1" />
<radialGradient
id="RadialGradID_638" gradientUnits="userSpaceOnUse" gradientTransform="matrix(0.00170898, -3.05176e-005, 3.05176e-005, 0.00164795, 0.65, -0.6)" spreadMethod ="pad" cx="0" cy="0" r="819.2" fx="0" fy="0" >
<stop  offset="0"  style="stop-color:#741C18;stop-opacity:1" />
<stop  offset="1"  style="stop-color:#B56751;stop-opacity:1" />
</radialGradient>
<path style="fill:url(#RadialGradID_638) " d="M1.95,-0.55L1.7 -0.55L1.25 -0.6L1.15 -0.65L0.1 -0.55L0.05 -0.55L-0.05 -0.55L-0.1 -0.55L-0.25 -0.6L0.15 -0.6L0.8 -0.65L1.1 -0.7L1.25 -0.7L1.65 -0.65L1.9 -0.6L1.95 -0.55" />
<radialGradient
id="RadialGradID_639" gradientUnits="userSpaceOnUse" gradientTransform="matrix(0.00372314, -4.57764e-005, 4.57764e-005, 0.00360107, -0.15, 0.65)" spreadMethod ="pad" cx="0" cy="0" r="819.2" fx="0" fy="0" >
<stop  offset="0"  style="stop-color:#DEA698;stop-opacity:1" />
<stop  offset="1"  style="stop-color:#F1CAC0;stop-opacity:1" />
</radialGradient>
<path style="fill:url(#RadialGradID_639) " d="M2.4,-0.25L2.55 -0.35L2.35 -0.2L2.4 -0.25" />
<radialGradient
id="RadialGradID_640" gradientUnits="userSpaceOnUse" gradientTransform="matrix(0.000839233, -1.52588e-005, 1.52588e-005, 0.00138855, -0.7, -0.7)" spreadMethod ="pad" cx="0" cy="0" r="819.2" fx="0" fy="0" >
<stop  offset="0"  style="stop-color:#78120E;stop-opacity:1" />
<stop  offset="1"  style="stop-color:#A05447;stop-opacity:1" />
</radialGradient>
<path style="fill:url(#RadialGradID_640) " d="M-0.1,-0.55L-0.15 -0.55L-0.4 -0.55L-0.55 -0.55L-0.95 -0.6L-1.45 -0.6L-1.55 -0.6L-1.15 -0.65L-0.6 -0.7L-0.45 -0.65L-0.3 -0.6L-0.25 -0.6L-0.1 -0.55" />
<radialGradient
id="RadialGradID_641" gradientUnits="userSpaceOnUse" gradientTransform="matrix(0.00149536, -1.52588e-005, 1.52588e-005, 0.00143433, -2.75, -0.9)" spreadMethod ="pad" cx="0" cy="0" r="819.2" fx="0" fy="0" >
<stop  offset="0"  style="stop-color:#3C0107;stop-opacity:1" />
<stop  offset="1"  style="stop-color:#A05447;stop-opacity:1" />
</radialGradient>
<path style="fill:url(#RadialGradID_641) " d="M-2.35,-0.7L-2.6 -0.75L-2.8 -0.8L-2.85 -0.85L-2.85 -0.9L-2.9 -0.9L-2.75 -1L-2.7 -1L-2.6 -0.9L-2.35 -0.8L-2.1 -0.65L-1.9 -0.6L-1.55 -0.6L-1.45 -0.6L-1.75 -0.55L-1.8 -0.55L-2.1 -0.65L-2.35 -0.7" />
<radialGradient
id="RadialGradID_642" gradientUnits="userSpaceOnUse" gradientTransform="matrix(0.00372314, -4.57764e-005, 4.57764e-005, 0.00360107, -0.15, 0.65)" spreadMethod ="pad" cx="0" cy="0" r="819.2" fx="0" fy="0" >
<stop  offset="0"  style="stop-color:#F37272;stop-opacity:0.623529" />
<stop  offset="1"  style="stop-color:#F44F4F;stop-opacity:0.572549" />
</radialGradient>
<path style="fill:url(#RadialGradID_642) " d="M-2.2,-0.25L-1.95 0L-1.45 0.25L-0.8 0.5L0 0.55L0.95 0.45L1.7 0.25L2 0.05L2.35 -0.2L2 0.15L1.6 0.4L1.1 0.55L0.35 0.7L-0.65 0.65L-1.45 0.4L-2 0.05L-2.55 -0.65L-2.2 -0.25" />
<radialGradient
id="RadialGradID_643" gradientUnits="userSpaceOnUse" gradientTransform="matrix(-4.57764e-005, -0.00088501, 0.00431824, -0.000213623, 0.1, -0.7)" spreadMethod ="pad" cx="0" cy="0" r="819.2" fx="0" fy="0" >
<stop  offset="0"  style="stop-color:#FF6F6F;stop-opacity:1" />
<stop  offset="1"  style="stop-color:#FF9191;stop-opacity:0.501961" />
</radialGradient>
<path style="fill:url(#RadialGradID_643) " d="M2.45,-0.9L2.5 -0.9L2.6 -0.9L2.65 -0.95L2.7 -0.95L2.9 -1L2.95 -1L2.85 -0.9L2.7 -0.75L2.35 -0.6L2.3 -0.6L2.15 -0.6L1.9 -0.6L1.65 -0.65L1.25 -0.7L1.1 -0.7L0.8 -0.65L0.15 -0.6L-0.25 -0.6L-0.3 -0.6L-0.45 -0.65L-0.6 -0.7L-1.15 -0.65L-1.55 -0.6L-1.9 -0.6L-2.1 -0.65L-2.35 -0.8L-2.6 -0.9L-2.7 -1L-2.6 -1.05L-2.45 -1L-2.3 -1L-2.1 -1L-1.85 -1.1L-1.8 -1.1L-1.7 -1.15L-1.4 -1.25L-0.7 -1.4L0.1 -1.3L0.45 -1.4L0.75 -1.45L1.8 -1.1L2.1 -1L2.45 -0.9" />
<radialGradient
id="RadialGradID_644" gradientUnits="userSpaceOnUse" gradientTransform="matrix(-1.52588e-005, -0.00144958, 0.003479, -3.05176e-005, 0.05, -0.5)" spreadMethod ="pad" cx="0" cy="0" r="819.2" fx="0" fy="0" >
<stop  offset="0"  style="stop-color:#FF6F6F;stop-opacity:1" />
<stop  offset="1"  style="stop-color:#FF9191;stop-opacity:0.521569" />
</radialGradient>
<path style="fill:url(#RadialGradID_644) " d="M2.35,-0.2L2 0.05L1.7 0.25L0.95 0.45L0 0.55L-0.8 0.5L-1.45 0.25L-1.95 0L-2.2 -0.25L-2.55 -0.65L-2.6 -0.75L-2.35 -0.7L-2.1 -0.65L-1.8 -0.55L-1.75 -0.55L-1.45 -0.6L-0.95 -0.6L-0.55 -0.55L-0.4 -0.55L-0.15 -0.55L-0.1 -0.55L-0.05 -0.55L0.05 -0.55L0.1 -0.55L1.15 -0.65L1.25 -0.6L1.7 -0.55L1.95 -0.55L2 -0.55L2.1 -0.55L2.2 -0.55L2.7 -0.65L2.75 -0.65L2.65 -0.55L2.65 -0.5L2.55 -0.35L2.4 -0.25L2.35 -0.2" />
<radialGradient
id="RadialGradID_645" gradientUnits="userSpaceOnUse" gradientTransform="matrix(0.00222778, -0.000167847, 6.10352e-005, 0.000686646, 0.2, -0.35)" spreadMethod ="pad" cx="0" cy="0" r="819.2" fx="0" fy="0" >
<stop  offset="0"  style="stop-color:#FFFFFF;stop-opacity:0.701961" />
<stop  offset="1"  style="stop-color:#FFFFFF;stop-opacity:0" />
</radialGradient>
<path style="fill:url(#RadialGradID_645) " d="M-0.1,-0.35L0.85 -0.45L1.2 -0.45L1.25 -0.35L1.2 -0.15L1.05 -0.1L0.95 -0.05L0 0.15Q-0.65 0.2 -0.85 -0.1L-1.05 -0.45L-0.9 -0.45L-0.7 -0.45L-0.1 -0.35" />
<path style="fill:#000000;fill-opacity:0.152941" d="M-0.85,-0.6L-0.5 -0.55L-0.85 -0.55L-0.85 -0.6" />
<radialGradient
id="RadialGradID_646" gradientUnits="userSpaceOnUse" gradientTransform="matrix(0.00244141, 0, 0, 0.00244141, 2.2, -0.55)" spreadMethod ="pad" cx="0" cy="0" r="819.2" fx="0" fy="0" >
<stop  offset="0"  style="stop-color:#F37272;stop-opacity:0.623529" />
<stop  offset="1"  style="stop-color:#F44F4F;stop-opacity:0.572549" />
</radialGradient>
<path style="fill:url(#RadialGradID_646) " d="M0.2,-0.55L1.2 -0.65L1.3 -0.6L1.75 -0.55L2 -0.55L2.1 -0.55L2.25 -0.55L2.7 -0.65L2.8 -0.65L2.7 -0.55L2.15 -0.35L1.8 -0.4L1.45 -0.5L0.75 -0.55L0.2 -0.55" />
<radialGradient
id="RadialGradID_647" gradientUnits="userSpaceOnUse" gradientTransform="matrix(0.00164795, 0, 0, 0.00164795, -2.2, -0.6)" spreadMethod ="pad" cx="0" cy="0" r="819.2" fx="0" fy="0" >
<stop  offset="0"  style="stop-color:#F37272;stop-opacity:0.623529" />
<stop  offset="1"  style="stop-color:#F44F4F;stop-opacity:0.572549" />
</radialGradient>
<path style="fill:url(#RadialGradID_647) " d="M-0.85,-0.55L-1.5 -0.5L-1.95 -0.45L-2.5 -0.6L-2.6 -0.75L-2.35 -0.7L-2.05 -0.65L-1.75 -0.55L-1.7 -0.55L-0.9 -0.6L-0.85 -0.6L-0.85 -0.55" />
<radialGradient
id="RadialGradID_648" gradientUnits="userSpaceOnUse" gradientTransform="matrix(0.000350952, 9.15527e-005, -0.000137329, 0.000411987, 3, -0.95)" spreadMethod ="pad" cx="0" cy="0" r="819.2" fx="0" fy="0" >
<stop  offset="0.14902"  style="stop-color:#E66A4D;stop-opacity:0.592157" />
<stop  offset="0.917647"  style="stop-color:#FFECD9;stop-opacity:0.262745" />
</radialGradient>
<path style="fill:url(#RadialGradID_648) " d="M2.7,-1L2.9 -1.15L3.05 -1.3L3.2 -1.2L3.2 -0.9L3.05 -0.65L2.9 -0.6L2.75 -0.8L2.7 -1" />
<radialGradient
id="RadialGradID_649" gradientUnits="userSpaceOnUse" gradientTransform="matrix(0.000305176, -0.000274658, 0.000244141, 0.000335693, -2.9, -0.9)" spreadMethod ="pad" cx="0" cy="0" r="819.2" fx="0" fy="0" >
<stop  offset="0.14902"  style="stop-color:#E66A4D;stop-opacity:0.592157" />
<stop  offset="0.917647"  style="stop-color:#FFECD9;stop-opacity:0.262745" />
</radialGradient>
<path style="fill:url(#RadialGradID_649) " d="M-3.15,-0.7L-3.15 -0.95L-3.1 -1.15L-2.9 -1.25L-2.65 -1.1L-2.6 -0.9L-2.7 -0.7L-2.9 -0.6L-3.15 -0.7" />
<path style="fill:#FDD7E3;fill-opacity:1" d="M0.2,-1.3L0.25 -1.35L0.3 -1.3L0.35 -1.25L0.3 -1.2L0.2 -1.2L0.15 -1.25L0.2 -1.3M-0.75,0.25L-0.7 0.25L-0.6 0.25L-0.55 0.3L-0.6 0.35L-0.75 0.35L-0.75 0.25M0.25,0.05L0.2 0.15L0.1 0.15L0.05 0.05L0.1 0.05L0.15 0L0.2 0.05L0.25 0.05M0.25,-0.2L0.2 -0.1L0.1 -0.1L0.05 -0.2L0.1 -0.25L0.2 -0.25L0.25 -0.2M0.15,-0.35L0 -0.35L-0.05 -0.4L0 -0.45L0.05 -0.5L0.15 -0.45L0.15 -0.35M1.15,-0.25L1.05 -0.25L1 -0.3L1.05 -0.35L1.1 -0.4L1.15 -0.35L1.2 -0.3L1.15 -0.25" />
<path style="fill:#FFFFFF;fill-opacity:1" d="M0,-0.8L0.1 -0.9L0.15 -0.9L0.2 -0.85L0.2 -0.75L0.05 -0.7L0 -0.8M-0.2,-1.15L-0.35 -1L-0.45 -1.05L-0.35 -1.2L-0.2 -1.15M0.4,-1.15L0.45 -1.1L0.45 -1L0.3 -0.95L0.25 -1.05L0.35 -1.15L0.4 -1.15M-0.3,0L-0.35 -0.05L-0.4 -0.1L-0.4 -0.15L-0.35 -0.15L-0.15 -0.2L-0.15 -0.1L-0.25 -0.05L-0.3 0" />
<path style="fill:#FFFFFF;fill-opacity:1" d="M0.4,-0.75L0.4 -0.4L0.25 -0.55L0.3 -0.45L0.1 -0.35L0.4 -0.3L0.3 -0.2L0.45 -0.3L0.5 -0.1L0.5 -0.35L0.65 -0.25L0.55 -0.35L0.85 -0.4L0.5 -0.5L0.6 -0.6L0.5 -0.5L0.4 -0.75M0.4,-0.35L0.4 -0.3L0.4 -0.35M-0.2,-0.35L-0.15 -0.35L-0.25 -0.3L-0.3 -0.3L-0.3 -0.25L-0.35 -0.25L-0.4 -0.25L-0.45 -0.25L-0.55 -0.3L-0.5 -0.25L-0.45 -0.25L-0.45 -0.2L-0.5 -0.2L-0.5 -0.25L-0.5 -0.2L-0.45 -0.2L-0.45 -0.15L-0.45 -0.1L-0.5 -0.05L-0.55 0L-0.5 0L-0.45 -0.05L-0.45 -0.1L-0.4 -0.1L-0.45 -0.05L-0.4 -0.05L-0.4 -0.1L-0.35 -0.1L-0.3 -0.1L-0.2 -0.05L-0.2 0L-0.2 -0.05L-0.25 -0.15L-0.3 -0.15L-0.25 -0.2L-0.2 -0.2L-0.25 -0.2L-0.25 -0.25L-0.25 -0.3L-0.2 -0.35M-0.35,-0.3L-0.35 -0.35L-0.35 -0.4L-0.35 -0.35L-0.35 -0.3M-0.45,-0.15L-0.5 -0.15L-0.55 -0.15L-0.5 -0.15L-0.5 -0.1M-0.6,0L-0.55 -0.05L-0.6 0M-0.5,-0.1L-0.55 -0.05L-0.5 -0.05L-0.45 -0.15M-0.35,-0.1L-0.35 -0.05L-0.3 -0.05L-0.35 -0.05L-0.4 -0.05L-0.35 -0.05L-0.35 -0.1M-0.35,-0.05L-0.35 0L-0.35 -0.05M-0.4,-0.05L-0.45 -0.05L-0.4 -0.05" />
<path style="fill:#FFFFFF;fill-opacity:0.0941176" d="M-0.4,-0.5L-0.35 -0.4L-0.35 -0.35L-0.35 -0.3L-0.35 -0.35L-0.4 -0.5L-0.45 -0.55L-0.4 -0.4L-0.4 -0.5M-1.05,-0.7L-1 -0.6L-0.85 -0.55L-0.45 -0.35L-0.85 -0.55L-1.1 -0.7L-1.05 -0.7M-0.55,-0.15L-0.75 -0.15L-0.8 -0.15L-0.6 -0.15L-0.55 -0.15M-0.6,0L-0.55 -0.05L-0.6 -0.05L-0.9 0.35L-0.6 0M0.25,0.3L0.3 0.35L0.35 0.4L0.1 0.15L0.15 0.2L0.25 0.3M-0.2,-0.1L-0.2 -0.15L-0.2 -0.1M-0.45,-0.35L-0.45 -0.3L-0.45 -0.35M-0.55,-0.25L-0.55 -0.2L-0.5 -0.2L-0.55 -0.25M-0.5,-0.15L-0.55 -0.1L-0.55 -0.05L-0.55 -0.1L-0.5 -0.15M-0.25,0L-0.3 -0.05L-0.35 0L-0.3 0L-0.3 -0.05L-0.3 0L-0.25 0M-0.4,-0.05L-0.4 0L-0.35 0L-0.4 -0.05" />
<path style="fill:#FFFFFF;fill-opacity:0.0431373" d="M-0.4,-0.5L-0.45 -0.6L-0.45 -0.55L-0.4 -0.5M-0.55,-0.05L-0.55 -0.1L-0.55 -0.05L-0.6 -0.05L-0.55 -0.05M-0.3,-0.05L-0.3 0L-0.35 0L-0.35 0.05L-0.35 0.25L-0.35 0.2L-0.35 0.05L-0.3 0.05L-0.3 0L-0.3 -0.05M-0.15,-0.1L-0.2 -0.1L-0.15 -0.1M-0.2,-0.25L-0.2 -0.2L-0.2 -0.25M-0.5,-0.2L-0.55 -0.2L-0.5 -0.2M-0.6,-0.2L-0.6 -0.15L-0.55 -0.2L-0.6 -0.2M-0.55,-0.1L-0.5 -0.15L-0.55 -0.15L-0.55 -0.1M-0.4,-0.05L-0.4 0L-0.4 -0.05M-0.35,0.05L-0.35 0L-0.35 0.05" />
<path style="fill:#FFFFFF;fill-opacity:0.447059" d="M-0.2,-0.3L-0.2 -0.25L-0.15 -0.3L0.1 -0.65L0.05 -0.6L-0.15 -0.35L-0.2 -0.3M-0.25,-0.35L-0.3 -0.35L-0.3 -0.3L-0.25 -0.35M-0.2,-0.2L-0.2 -0.25L-0.25 -0.25L-0.25 -0.2L-0.2 -0.2M-0.45,-0.2L-0.7 -0.4L-0.55 -0.25L-0.5 -0.25L-0.5 -0.2L-0.45 -0.2M-0.2,-0.15L-0.2 -0.2L-0.2 -0.15M-0.8,-0.45L-0.8 -0.5L-0.85 -0.55L-0.9 -0.55L-0.95 -0.55L-0.9 -0.55L-0.8 -0.45M-0.35,-0.3L-0.35 -0.25L-0.35 -0.3M-0.75,-0.4L-0.7 -0.4L-0.75 -0.4L-0.8 -0.45L-0.75 -0.4M-0.7,0.2L-0.75 0.2L-0.8 0.25L-0.7 0.2L-0.45 0L-0.6 0.1L-0.65 0.15L-0.7 0.2M-0.45,-0.15L-0.5 -0.15L-0.45 -0.15M-0.3,-0.05L-0.25 -0.05L-0.3 -0.05M0.05,0.15L-0.1 0L-0.05 0.05L0 0.1L0.05 0.15" />
<path style="fill:#FFFFFF;fill-opacity:0.596078" d="M-0.2,-0.4L-0.2 -0.35L-0.25 -0.35L-0.25 -0.3L-0.2 -0.4M-0.1,0L-0.2 -0.05L-0.2 -0.1L-0.25 -0.15L-0.2 -0.2L-0.25 -0.2L-0.25 -0.15L-0.2 -0.1L-0.2 -0.05M-0.45,-0.25L-0.4 -0.25L-0.35 -0.25L-0.4 -0.25L-0.45 -0.25M-0.8,-0.45L-0.75 -0.4L-0.7 -0.4L-0.45 -0.2L-0.6 -0.35L-0.65 -0.35L-0.75 -0.4L-0.8 -0.5L-0.8 -0.45M-0.7,0.15L-0.65 0.05L-0.55 0L-0.7 0.15M-0.55,-0.05L-0.5 -0.05L-0.55 -0.05M-0.25,-0.05L-0.3 -0.1L-0.3 -0.05L-0.25 -0.05M-0.35,-0.05L-0.3 -0.05L-0.3 -0.1L-0.35 -0.1L-0.35 -0.05M-0.7,0.2L-0.75 0.2L-0.7 0.2M-0.2,-0.05L-0.1 0L-0.05 0.05L-0.1 0M0.05,0.15L0 0.15L0 0.1L0.1 0.2L0.05 0.15" />
<path style="fill:#FFFFFF;fill-opacity:0.545098" d="M-0.1,-0.4L-0.15 -0.35L0.05 -0.6L-0.2 -0.4L-0.2 -0.35L-0.2 -0.4L-0.15 -0.4L-0.15 -0.45L-0.1 -0.5L-0.1 -0.45L-0.1 -0.4M-0.3,-0.3L-0.25 -0.3L-0.25 -0.35L-0.3 -0.3M-0.75,-0.4L-0.65 -0.4L-0.45 -0.3L-0.6 -0.4L-0.8 -0.5L-0.75 -0.4M-0.85,-0.55L-0.8 -0.5L-0.85 -0.55M-0.4,-0.25L-0.45 -0.25L-0.4 -0.25M-0.7,0.15L-0.55 0L-0.55 -0.05L-0.6 0L-0.7 0.15M-0.4,-0.05L-0.45 0L-0.4 -0.05M-0.55,-0.05L-0.5 -0.05L-0.55 -0.05M-0.2,0L-0.25 -0.05L-0.3 -0.05L-0.3 -0.1L-0.3 -0.05L-0.25 -0.05L-0.2 0M-0.8,0.25L-0.75 0.2L-0.75 0.15L-0.8 0.25M-0.2,-0.05L-0.2 -0.1L-0.2 -0.05M0.1,0.2L0.05 0.15L0.1 0.2M-0.05,0.1L-0.05 0.05L-0.1 0.05L-0.2 0L-0.15 0.05L0 0.1L-0.05 0.1" />
<path style="fill:#FFFFFF;fill-opacity:0.247059" d="M-0.3,-0.35L-0.2 -0.4L0.05 -0.6L0.05 -0.65L-0.3 -0.35M-0.55,-0.15L-0.5 -0.2L-0.45 -0.2L-0.5 -0.2L-0.55 -0.2L-0.55 -0.15M-0.2,-0.2L-0.2 -0.25L-0.2 -0.2M-1.05,-0.65L-1 -0.6L-1.05 -0.7L-1.05 -0.65M-0.35,-0.35L-0.4 -0.3L-0.35 -0.3L-0.35 -0.35M-0.9,-0.55L-0.7 -0.4L-0.75 -0.4L-0.8 -0.45L-0.9 -0.55M-0.55,-0.1L-0.55 -0.05L-0.55 -0.1M-0.45,0L-0.4 -0.05L-0.45 0M-0.35,-0.05L-0.35 0L-0.35 0.05L-0.35 0L-0.35 -0.05M0.2,0.25L0.15 0.25L0.05 0.2L0.15 0.25L0.25 0.3L0.2 0.25" />
<path style="fill:#FFFFFF;fill-opacity:0.345098" d="M0.15,-0.7L0.05 -0.65L0.1 -0.65L0.15 -0.7M0.1,-0.65L-0.15 -0.3L0.1 -0.65M-0.15,-0.2L-0.2 -0.2L-0.15 -0.2M-0.9,0.35L-0.85 0.3L-0.9 0.35M-0.95,-0.55L-0.9 -0.55L-1 -0.6L-0.95 -0.55M-0.35,-0.25L-0.35 -0.3L-0.4 -0.25L-0.35 -0.25M-0.8,0.25L-0.85 0.3L-0.7 0.2L-0.8 0.25M-0.45,-0.15L-0.5 -0.15L-0.45 -0.15M-0.25,-0.05L-0.3 -0.05L-0.25 0L-0.15 0.05L-0.2 0L-0.25 -0.05M-0.2,-0.1L-0.2 -0.15L-0.25 -0.15L-0.2 -0.1M0.25,0.3L0.15 0.2L0.15 0.25L0.1 0.2L0 0.1L-0.15 0.05L-0.05 0.1L0.05 0.2L0.15 0.25L0.2 0.25L0.25 0.3" />
<path style="fill:#FFFFFF;fill-opacity:0.396078" d="M-0.2,-0.35L-0.2 -0.4L-0.3 -0.35L-0.25 -0.35L-0.2 -0.35M0.1,-0.65L0.05 -0.65L0.05 -0.6L0.1 -0.65M-0.3,-0.3L-0.3 -0.35L-0.3 -0.3M-0.2,-0.2L-0.25 -0.2L-0.2 -0.2L-0.2 -0.15L-0.15 -0.15L-0.15 -0.2L-0.2 -0.2M-0.45,-0.15L-0.45 -0.2L-0.5 -0.2L-0.45 -0.2L-0.5 -0.15L-0.45 -0.15L-0.5 -0.15L-0.45 -0.15M-0.35,-0.3L-0.35 -0.25L-0.35 -0.3L-0.35 -0.25M-0.35,-0.25L-0.35 -0.3M-0.25,-0.05L-0.3 -0.05L-0.25 -0.05M-0.35,-0.05L-0.3 -0.05L-0.35 -0.05M-0.45,0L-0.4 -0.05L-0.45 0M-0.1,0L0.05 0.15L0.1 0.2L0.05 0.15L-0.15 -0.05L-0.2 -0.1L-0.25 -0.15L-0.2 -0.1L-0.2 -0.05L-0.1 0M0.15,0.2L0.1 0.2L0.15 0.25L0.15 0.2" />
<path style="fill:#FFFFFF;fill-opacity:0.498039" d="M-0.2,-0.4L0.05 -0.6L-0.2 -0.4M-0.2,-0.25L-0.2 -0.3L-0.2 -0.25L-0.25 -0.25L-0.2 -0.25M-0.35,-0.3L-0.35 -0.25L-0.3 -0.25L-0.3 -0.3L-0.35 -0.3M-0.25,-0.15L-0.2 -0.15L-0.2 -0.2L-0.25 -0.15L-0.2 -0.1L-0.25 -0.15M-0.85,-0.55L-0.8 -0.5L-0.9 -0.55L-0.85 -0.55M-0.35,-0.25L-0.4 -0.25L-0.45 -0.3L-0.45 -0.25L-0.4 -0.25M-0.4,-0.25L-0.35 -0.25M-0.4,-0.05L-0.45 0L-0.4 -0.05M-0.1,0L-0.2 -0.05L-0.1 0" />
<path style="fill:#FFFFFF;fill-opacity:0.847059" d="M-0.15,-0.45L-0.15 -0.4L-0.15 -0.45M-0.15,-0.35L-0.15 -0.4L-0.1 -0.4L-0.15 -0.4L-0.25 -0.3L-0.15 -0.35M-0.3,-0.1L-0.35 -0.1L-0.3 -0.1M-0.5,-0.25L-0.45 -0.2L-0.45 -0.25L-0.45 -0.3L-0.65 -0.4L-0.6 -0.35L-0.45 -0.3L-0.45 -0.25L-0.5 -0.25L-0.55 -0.3L-0.55 -0.35L-0.6 -0.35L-0.65 -0.35L-0.6 -0.35L-0.5 -0.25M-0.6,0.05L-0.65 0.1L-0.6 0.1L-0.6 0.05M-0.25,-0.15L-0.3 -0.15L-0.25 -0.15M-0.1,0L-0.1 0.05L-0.1 0L-0.2 -0.05L-0.1 0" />
<path style="fill:#FFFFFF;fill-opacity:0.796078" d="M-0.15,-0.4L-0.1 -0.45L-0.15 -0.45L-0.15 -0.4M-0.45,-0.05L-0.4 -0.1L-0.45 -0.1L-0.45 -0.15L-0.45 -0.1L-0.45 -0.05M-0.5,-0.05L-0.55 -0.05L-0.55 0L-0.5 -0.05L-0.45 -0.1L-0.5 -0.05M-0.25,-0.25L-0.2 -0.25L-0.2 -0.3L-0.25 -0.25M-0.65,0.15L-0.65 0.1L-0.6 0.05L-0.55 0L-0.65 0.05L-0.65 0.15" />
<path style="fill:#FFFFFF;fill-opacity:0.698039" d="M-0.2,-0.25L-0.2 -0.3L-0.15 -0.35L-0.1 -0.4L-0.1 -0.45L-0.15 -0.4L-0.2 -0.4L-0.25 -0.3L-0.15 -0.4L-0.1 -0.4L-0.2 -0.3L-0.2 -0.25M-0.25,-0.3L-0.3 -0.3L-0.25 -0.3M-0.2,0L-0.2 -0.05L-0.2 -0.1L-0.2 -0.05L-0.3 -0.1L-0.25 -0.05L-0.2 0M-0.45,-0.05L-0.5 0L-0.45 0L-0.4 -0.05L-0.45 -0.05M-0.65,-0.35L-0.6 -0.35L-0.65 -0.4L-0.65 -0.35M-0.65,0.15L-0.6 0.1L-0.65 0.1L-0.65 0.15L-0.7 0.2L-0.65 0.15M-0.55,0.05L-0.5 0L-0.55 0.05M-0.4,-0.1L-0.35 -0.05L-0.4 -0.1M-0.1,0L-0.1 0.05L-0.05 0.05L-0.1 0M0,0.1L-0.05 0.05L-0.05 0.1L0 0.1L0 0.15L0 0.1" />
<path style="fill:#FFFFFF;fill-opacity:0.74902" d="M-0.1,-0.45L-0.1 -0.5L-0.15 -0.45L-0.1 -0.45M-0.2,-0.1L-0.25 -0.15L-0.2 -0.05L-0.2 -0.1M-0.1,0L-0.2 0L-0.2 -0.05L-0.1 0L-0.2 -0.05L-0.2 0M-0.35,-0.1L-0.4 -0.1L-0.35 -0.05L-0.35 -0.1M-0.65,-0.4L-0.75 -0.4L-0.65 -0.35L-0.65 -0.4M-0.6,-0.35L-0.45 -0.2L-0.5 -0.25L-0.6 -0.35M-0.5,-0.05L-0.45 -0.1L-0.45 -0.15L-0.5 -0.05M-0.2,0L-0.1 0.05L-0.1 0M-0.05,0.1L-0.05 0.05L-0.05 0.1" />
<path style="fill:#FFFFFF;fill-opacity:0.196078" d="M0.15,-0.7L0.1 -0.65L-0.15 -0.3L0.15 -0.7M-0.3,-0.3L-0.3 -0.35L-0.3 -0.3M-0.4,-0.4L-0.4 -0.35L-0.4 -0.3L-0.35 -0.35L-0.35 -0.4L-0.4 -0.5L-0.4 -0.4M-0.7,-0.15L-0.75 -0.15L-0.55 -0.15L-0.55 -0.2L-0.6 -0.15L-0.55 -0.15L-0.7 -0.15M-0.7,0.2L-0.85 0.3L-0.95 0.4L-0.45 0L-0.7 0.2M0.25,0.3L0.15 0.25L0.3 0.35L0.25 0.3M-0.1,-0.05L-0.15 -0.05L0.05 0.15L-0.1 -0.05M-0.2,-0.2L-0.2 -0.25L-0.2 -0.2M-0.35,-0.05L-0.4 -0.05L-0.35 -0.05M-0.4,-0.05L-0.45 0L-0.4 0L-0.4 -0.05M-0.2,-0.1L-0.15 -0.05L-0.15 -0.1L-0.2 -0.1" />
<path style="fill:#FFFFFF;fill-opacity:0.145098" d="M-0.35,-0.35L-0.35 -0.3L-0.3 -0.3L-0.35 -0.3L-0.35 -0.35M-1,-0.6L-1.05 -0.65L-1.05 -0.7L-1.1 -0.7L-1.05 -0.65L-0.55 -0.25L-0.5 -0.2L-0.55 -0.25L-0.7 -0.4L-0.9 -0.55L-0.95 -0.55L-1 -0.6M-0.75,-0.15L-0.8 -0.15L-0.75 -0.15M-0.35,0.2L-0.35 0.05L-0.35 0.2M-0.25,0L-0.3 -0.05L-0.35 -0.05L-0.4 -0.05L-0.35 0L-0.35 -0.05L-0.35 0L-0.3 -0.05L-0.25 0L-0.05 0.1L0.15 0.25L0.05 0.2L-0.05 0.1L-0.15 0.05L-0.25 0M0.05,0.15L0.1 0.2L0.15 0.2L0.1 0.15L-0.1 -0.05L0.05 0.15M-0.15,-0.05L-0.15 -0.1L-0.15 -0.05M-0.6,-0.4L-0.45 -0.3L-0.45 -0.35L-0.85 -0.55L-0.8 -0.5L-0.6 -0.4M-0.4,-0.3L-0.45 -0.3L-0.4 -0.3M-0.5,-0.15L-0.55 -0.15L-0.5 -0.15L-0.55 -0.1L-0.5 -0.1L-0.5 -0.15M-0.35,0L-0.35 0.05L-0.35 0M-0.2,-0.15L-0.2 -0.1L-0.2 -0.15" />
<path style="fill:#FFFFFF;fill-opacity:0.898039" d="M-0.2,-0.35L-0.2 -0.3L-0.25 -0.3L-0.25 -0.25L-0.2 -0.3L-0.1 -0.4L-0.15 -0.4L-0.2 -0.35M-0.25,-0.2L-0.3 -0.15L-0.25 -0.15L-0.25 -0.2M-0.1,0L-0.2 -0.05L-0.2 0L-0.1 0M-0.45,-0.2L-0.45 -0.25L-0.45 -0.2M-0.45,-0.3L-0.6 -0.35L-0.55 -0.35L-0.45 -0.3M-0.6,0.05L-0.6 0.1L-0.55 0.05L-0.55 0L-0.6 0.05" />
<path style="fill:#FFFFFF;fill-opacity:0.94902" d="M-0.25,-0.3L-0.2 -0.3L-0.2 -0.35L-0.15 -0.4L-0.15 -0.35L-0.2 -0.35L-0.25 -0.3M-0.3,-0.15L-0.25 -0.15L-0.3 -0.15M-0.45,-0.1L-0.45 -0.05L-0.45 -0.1M-0.5,0L-0.55 0L-0.55 0.05L-0.5 0M-0.55,-0.35L-0.55 -0.3L-0.45 -0.25L-0.45 -0.3L-0.55 -0.35" />
<path style="fill:#FFFFFF;fill-opacity:0.294118" d="M-0.2,-0.4L-0.3 -0.35L-0.2 -0.4M-0.15,-0.15L0.05 -0.2L-0.15 -0.2L-0.15 -0.15M-0.2,-0.2L-0.15 -0.2L-0.2 -0.2M-0.55,-0.25L-0.5 -0.2L-0.5 -0.25L-0.55 -0.25L-0.7 -0.4L-0.55 -0.25M-1,-0.6L-1.05 -0.65L-1 -0.6L-0.9 -0.55L-0.8 -0.5L-0.85 -0.55L-1 -0.6M-0.4,-0.3L-0.45 -0.3L-0.6 -0.4L-0.45 -0.3L-0.4 -0.25M-0.4,-0.25L-0.35 -0.3L-0.4 -0.3M-0.75,-0.4L-0.7 -0.4L-0.75 -0.4M-0.5,-0.15L-0.45 -0.2L-0.5 -0.2L-0.55 -0.15L-0.5 -0.15M-0.55,-0.15L-0.6 -0.15L-0.7 -0.15L-0.55 -0.15M-0.5,-0.1L-0.55 -0.1L-0.55 -0.05L-0.5 -0.1M-0.35,0L-0.35 -0.05L-0.35 0M-0.25,-0.15L-0.2 -0.15L-0.25 -0.15M-0.2,-0.1L-0.15 -0.05L-0.2 -0.1M0.2,0.25L0.15 0.25L0.2 0.25" />
<path style="fill:#FFFFFF;fill-opacity:0.647059" d="M-0.25,-0.3L-0.3 -0.3L-0.25 -0.3M-0.35,-0.25L-0.3 -0.25L-0.3 -0.3L-0.3 -0.25L-0.35 -0.25M-0.4,-0.05L-0.35 -0.05L-0.4 -0.1L-0.4 -0.05L-0.45 -0.05L-0.4 -0.05M-0.25,-0.15L-0.25 -0.2L-0.25 -0.15M-0.25,-0.25L-0.2 -0.25L-0.25 -0.25M-0.45,-0.25L-0.45 -0.3L-0.45 -0.25M-0.5,0L-0.55 0.05L-0.6 0.1L-0.45 0L-0.5 0M-0.7,0.2L-0.65 0.15L-0.65 0.05L-0.7 0.15L-0.75 0.15L-0.75 0.2L-0.7 0.2M0,0.15L0.05 0.15L0 0.1L0 0.15" />
<path style="fill:#FFFFFF;fill-opacity:0.0313725" d="M-0.5,-0.2L-0.55 -0.2L-0.5 -0.2M-0.4,0L-0.35 0L-0.4 0" />
<path style="fill:#FFFFFF;fill-opacity:0.0196078" d="M-0.2,-0.15L-0.2 -0.1L-0.15 -0.1L-0.15 -0.15L-0.2 -0.15M-0.45,0L-0.35 0L-0.45 0" />
<path style="fill:#FFFFFF;fill-opacity:0.32549" d="M-0.2,-0.25L-0.2 -0.2L-0.15 -0.2L-0.2 -0.25" />
<path style="fill:#FFFFFF;fill-opacity:0.00392157" d="M-0.2,-0.25L-0.15 -0.2L-0.2 -0.25M-0.3,-0.35L-0.35 -0.35L-0.3 -0.35M-0.4,-0.35L-0.45 -0.35L-0.4 -0.35M-0.55,-0.15L-0.6 -0.15L-0.55 -0.05L-0.55 -0.1L-0.55 -0.15M-0.45,0L-0.35 0.05L-0.35 0L-0.45 0M-0.3,0L-0.3 0.05L-0.25 0L-0.3 0M-0.15,-0.1L-0.15 -0.15L-0.15 -0.1" />
<path style="fill:#FFFFFF;fill-opacity:0.027451" d="M-0.5,-0.2L-0.55 -0.2L-0.5 -0.2M-0.45,0L-0.35 0L-0.4 0L-0.45 0" />
<path style="fill:#FFFFFF;fill-opacity:0.0352941" d="M-0.35,-0.35L-0.3 -0.3L-0.3 -0.35L-0.35 -0.35M-0.3,-0.05L-0.3 0L-0.3 -0.05" />
<path style="fill:#FFFFFF;fill-opacity:0" d="M-0.55,-0.2L-0.55 -0.25L-0.6 -0.2L-0.55 -0.2" />
<path style="fill:#FFFFFF;fill-opacity:0.113725" d="M-0.6,-0.15L-0.6 -0.2L-0.7 -0.15L-0.6 -0.15" />
<path style="fill:#FFFFFF;fill-opacity:0.0156863" d="M-0.45,-0.35L-0.45 -0.3L-0.4 -0.35L-0.45 -0.35" />
<path style="fill:#FFFFFF;fill-opacity:0.0470588" d="M-0.35,0L-0.45 0L-0.35 0" />
<path style="fill:#FFFFFF;fill-opacity:0.00784314" d="M-0.55,-0.1L-0.55 -0.15L-0.55 -0.1" />
</g>
</svg>
