<?xml version="1.0" encoding="utf-8"?>
<svg version="1.1" id="Layer_1"
xmlns="http://www.w3.org/2000/svg"
xmlns:xlink="http://www.w3.org/1999/xlink"
xmlns:author="http://www.sothink.com"
width="7px" height="4px"
xml:space="preserve">
<g id="62" transform="matrix(1, 0, 0, 1, -66.75, -46.1)">
<radialGradient
id="RadialGradID_850" gradientUnits="userSpaceOnUse" gradientTransform="matrix(0.000823975, 1.52588e-005, -1.52588e-005, 0.000732422, 67.5, 46.65)" spreadMethod ="pad" cx="0" cy="0" r="819.2" fx="0" fy="0" >
<stop  offset="0.211765"  style="stop-color:#BA4027;stop-opacity:0.701961" />
<stop  offset="1"  style="stop-color:#FFECD9;stop-opacity:0.0313725" />
</radialGradient>
<path style="fill:url(#RadialGradID_850) " d="M66.95,47.1L66.75 46.7Q66.8 46.4 67 46.3Q67.25 46.05 67.5 46.1Q67.75 46.05 68 46.3L68.15 46.75L67.95 47.1L67.45 47.25L66.95 47.1" />
<radialGradient
id="RadialGradID_851" gradientUnits="userSpaceOnUse" gradientTransform="matrix(0.000823975, 1.52588e-005, -1.52588e-005, 0.000732422, 73, 46.7)" spreadMethod ="pad" cx="0" cy="0" r="819.2" fx="0" fy="0" >
<stop  offset="0.211765"  style="stop-color:#BA4027;stop-opacity:0.701961" />
<stop  offset="1"  style="stop-color:#FFECD9;stop-opacity:0.0313725" />
</radialGradient>
<path style="fill:url(#RadialGradID_851) " d="M72.9,47.3L72.45 47.15L72.3 46.75L72.5 46.3L73 46.1Q73.3 46.1 73.45 46.3L73.6 46.75L73.4 47.15L72.9 47.3" />
<radialGradient
id="RadialGradID_852" gradientUnits="userSpaceOnUse" gradientTransform="matrix(0.00335693, 0, 0, 0.00152588, 70.3, 48.35)" spreadMethod ="pad" cx="0" cy="0" r="819.2" fx="0" fy="0" >
<stop  offset="0"  style="stop-color:#E9765A;stop-opacity:0.643137" />
<stop  offset="1"  style="stop-color:#FFECD9;stop-opacity:0.101961" />
</radialGradient>
<path style="fill:url(#RadialGradID_852) " d="M72.75,47.55Q72.3 48.95 71 49.5Q69.7 50 68.45 49.25Q67.2 48.5 67.55 47.15Q69.1 48.7 71.15 48.05L72.75 47.55" />
</g>
</svg>
