<?xml version="1.0" encoding="utf-8"?>
<svg version="1.1" id="Layer_1"
xmlns="http://www.w3.org/2000/svg"
xmlns:xlink="http://www.w3.org/1999/xlink"
xmlns:author="http://www.sothink.com"
width="6px" height="4px"
xml:space="preserve">
<g id="66" transform="matrix(1, 0, 0, 1, -67.15, -45.45)">
<path style="fill:#FFEA87;fill-opacity:1" d="M68.1,46.3L68.1 46.2L68 46.05L67.95 46.15L67.95 46.25L67.7 46.15L67.65 46.25L67.9 46.45L67.85 46.5L67.75 46.6L67.85 46.65L67.95 46.65L68.1 46.6L68.15 46.55L68.35 46.65L68.2 46.8L68.1 47L67.55 46.8Q67.2 46.55 67.2 46.2L67.45 45.75L67.95 45.65L68.4 45.85L68.75 46.2L68.6 46.3L68.5 46.45L68.45 46.45L68.45 46.5L68.1 46.3" />
<path style="fill:#A3E7E5;fill-opacity:1" d="M68.45,46.5L68.4 46.55L68.35 46.65L68.15 46.55L68.1 46.6L67.95 46.65L67.85 46.65L67.75 46.6L67.85 46.5L67.9 46.45L67.65 46.25L67.7 46.15L67.95 46.25L67.95 46.15L68 46.05L68.1 46.2L68.1 46.3L68.45 46.5" />
<path style="fill:none;stroke-width:0.1;stroke-linecap:round;stroke-linejoin:round;stroke-miterlimit:3;stroke:#FFA800;stroke-opacity:1" d="M68.1,47L67.55 46.8Q67.2 46.55 67.2 46.2L67.45 45.75L67.95 45.65L68.4 45.85L68.75 46.2" />
<path style="fill:#FFEA87;fill-opacity:1" d="M71.95,46.6L72.2 46.5L72.45 46.5L72.55 46.4L72.5 46.35L72.3 46.4L72.45 46.2L72.65 46L72.6 45.95L72.5 45.95L72.4 46.05L72.3 46.15L72.3 46L72.2 45.9Q72.05 45.85 72.05 46L72.1 46.15L71.9 46.4L71.75 46.5L71.55 46.4L71.45 46.35Q71.45 45.85 71.9 45.75L72.4 45.7L72.75 45.85L72.9 46.15L72.6 46.75L72.05 46.85L71.9 46.65L71.95 46.6" />
<path style="fill:#A3E7E5;fill-opacity:1" d="M71.9,46.65L71.85 46.65L71.8 46.55L71.75 46.5L71.9 46.4L72.1 46.15L72.05 46Q72.05 45.85 72.2 45.9L72.3 46L72.3 46.15L72.4 46.05L72.5 45.95L72.6 45.95L72.65 46L72.45 46.2L72.3 46.4L72.5 46.35L72.55 46.4L72.45 46.5L72.2 46.5L71.95 46.6L71.9 46.65" />
<path style="fill:none;stroke-width:0.1;stroke-linecap:round;stroke-linejoin:round;stroke-miterlimit:3;stroke:#FFA800;stroke-opacity:1" d="M71.45,46.35Q71.45 45.85 71.9 45.75L72.4 45.7L72.75 45.85L72.9 46.15L72.6 46.75L72.05 46.85" />
<path style="fill:#090806;fill-opacity:1" d="M69.05,46L69 45.95Q68.85 45.65 69 45.55L69.05 45.55L69.15 45.85L69.15 45.95L69.05 46M70.75,45.85L70.7 45.75L70.8 45.45L70.9 45.45L70.95 45.6L70.95 45.8L70.9 45.85L70.8 45.85L70.75 45.85M71.7,48.1L71.95 47.65L71.95 47.7L72 47.75L72.05 48.1L71.75 48.3L71.7 48.1M71.05,48.45L71.15 48.35L71.45 48.25L71.5 48.55L71.1 48.7L71.05 48.45M69.6,48.55L70 48.65L70.3 48.6L70.4 48.9L70.1 48.95L70.05 48.95L69.7 48.85L69.6 48.55M68.7,48.2L68.7 48.15L69 48.4L69 48.55L69 48.7L68.8 48.55L68.7 48.5L68.7 48.2M68.4,48.3L68.15 48.1L68.15 48L68.2 47.75L68.2 47.7L68.3 47.6L68.35 47.55L68.7 47.45L68.75 47.45L68.6 47.6L68.4 47.9L68.45 47.95L68.4 48.3M69.7,46.35L69.7 46.45L69.65 46.55L69.65 46.65L69.55 46.65L69.45 46.65L69.35 46.5L69.3 46.35L69.45 46.45L69.6 46.35L69.6 46.25L69.7 46.35M70.55,46.4L70.65 46.5L70.8 46.35L70.8 46.3L70.85 46.25L70.85 46.3L70.8 46.4L70.8 46.45L70.65 46.65L70.55 46.6L70.5 46.4L70.5 46.3L70.55 46.4M68.85,47.5L68.85 47.35L68.9 47.3L69.35 47.25L69.6 47.2L69.7 47.2L69.65 47.25L69.35 47.5L68.85 47.5M71.15,47.1L71.2 47.1L71.35 47.2L71.6 47.05L71.6 47.1L71.5 47.2L71.55 47.25L71.5 47.25L71.4 47.3L71.3 47.35L71.25 47.4L71.1 47.25L71.05 47.25L71.1 47.4L71.15 47.45L71.25 47.55L70.65 47.55L70.55 47.55L70.5 47.4L70.45 47.35L70.35 47.25L70.65 47.25L70.85 47.25L70.95 47.2L71 47.2L71.15 47.1M68.8,47.15L68.85 47.1L68.9 47.1L69 47.15L69.2 47.2L68.85 47.25L68.75 47.3L68.5 47.2L68.65 47.2L68.8 47.15M69.75,47.3L70 47.35L70.3 47.3L70.25 47.4L70.2 47.5L70.1 47.5L69.75 47.5L69.75 47.3" />
<path style="fill:#FFEF11;fill-opacity:1" d="M68.65,46.65L68.6 46.7L68.55 46.8L68.45 46.75L68.4 46.6L68.4 46.5L68.4 46.45L68.45 46.45L68.65 46.3L68.8 46.15L69 46.05L69.05 46L69.15 45.95L69.5 45.85L69.7 45.85L69.85 45.95L70 45.9L70.1 45.85L70.2 45.85L70.3 45.85L70.6 45.85L70.75 45.85L70.8 45.85L70.9 45.85L71.15 46L71.25 46.2L71.4 46.3L71.6 46.35L71.65 46.45L71.75 46.55L71.65 46.7L71.6 46.7L71.55 46.6L71.35 46.35Q71.1 46.1 70.8 46L70.65 46L70.2 46.05L70 46.15L69.75 46.1L69.7 46.05L69.4 46.05L69 46.25L68.85 46.3L68.8 46.45L68.65 46.65M72.15,47.35L72.1 47.35L71.85 47L72 46.85L72.25 47.25L72.3 47.4L72.15 47.35M68.45,47.2L68.3 47.25L68 47.2L68 47.15L68.1 46.85L68.45 47.2" />
<path style="fill:#FFF9E2;fill-opacity:1" d="M69.3,46.15L69.4 46.15L69.6 46.25L69.6 46.35L69.45 46.45L69.3 46.35L69.3 46.15M70.85,46.25L70.8 46.3L70.8 46.35L70.65 46.5L70.55 46.4L70.5 46.3L70.55 46.3L70.6 46.2L70.65 46.2L70.65 46.15L70.8 46.2L70.8 46.25L70.85 46.25" />
<path style="fill:#FFD911;fill-opacity:1" d="M69.6,46.25L69.4 46.15L69.3 46.15L69.3 46.35L69.35 46.5L69.45 46.65L69.55 46.65L69.65 46.65L69.65 46.55L69.7 46.45L69.7 46.35L69.6 46.25M69.8,46.3L69.85 46.55L69.85 46.7Q69.8 46.85 69.65 46.8L69.05 46.7L68.8 46.45L68.85 46.3L69 46.25L69.4 46.05L69.7 46.05L69.75 46.1L69.8 46.3M71.1,46.6L70.65 46.7L70.4 46.7L70.3 46.6L70.2 46.4L70.2 46.15L70.2 46.05L70.65 46L70.8 46Q71.1 46.1 71.35 46.35L71.1 46.6M70.8,46.25L70.8 46.2L70.65 46.15L70.65 46.2L70.6 46.2L70.55 46.3L70.5 46.3L70.5 46.4L70.55 46.6L70.65 46.65L70.8 46.45L70.8 46.4L70.85 46.3L70.85 46.25L70.8 46.25" />
<path style="fill:#FFCE11;fill-opacity:1" d="M68.8,46.45L69.05 46.7L69.65 46.8Q69.8 46.85 69.85 46.7L69.85 46.55L69.8 46.3L69.75 46.1L70 46.15L70.2 46.05L70.2 46.15L70.2 46.4L70.3 46.6L70.4 46.7L70.65 46.7L71.1 46.6L71.35 46.35L71.55 46.6L70.55 46.9L70.15 46.75L70.1 46.75L70.05 46.7L70.05 46.75L69.3 46.9L69 46.9L68.65 46.65L68.8 46.45" />
<path style="fill:#464136;fill-opacity:1" d="M71.85,47L71.8 46.9L71.65 46.7L71.75 46.55L71.8 46.6L72 46.8L72 46.85L71.85 47M68.45,47.2L68.1 46.85L68.3 46.7L68.4 46.6L68.45 46.75L68.55 46.8L68.45 47.05L68.45 47.2" />
<path style="fill:#D48000;fill-opacity:1" d="M71.7,47.5L71.65 47.45L71.3 47.4L71.3 47.35L71.4 47.3L71.9 47.45L72.25 47.6L72.45 47.65L72.4 47.65L72.25 47.65L72.15 47.65L71.95 47.5L71.75 47.5L71.7 47.5M68.5,47.4L68.75 47.3L68.9 47.3L68.85 47.35L68.8 47.4L68.75 47.4L68.75 47.45L68.7 47.45L68.35 47.55L68.3 47.6L68.1 47.6L68.05 47.65L67.95 47.65L67.9 47.55L67.9 47.5L68.5 47.4M70.5,47.15L70.95 47.2L70.85 47.25L70.65 47.25L70.35 47.25L70.3 47.25L70.3 47.3L70 47.35L69.75 47.3L69.7 47.2L70.5 47.15M69.45,47.2L69.6 47.2L69.35 47.25L69.2 47.2L69.45 47.2" />
<path style="fill:#E7A500;fill-opacity:1" d="M71.4,47.3L71.5 47.25L71.55 47.25L71.65 47.25L72.1 47.35L72.15 47.35L72.3 47.4L72.45 47.6L72.45 47.65L72.25 47.6L71.9 47.45L71.4 47.3M72,47.75L71.95 47.7L71.95 47.65L71.85 47.6L71.75 47.5L71.95 47.5L72.15 47.65L72.25 47.65L72.4 47.65L72.35 47.75L72.15 47.95L72.1 48.05L72.05 48.1L72 47.75M71.45,48.25L71.7 48.1L71.75 48.3L71.6 48.4L71.5 48.55L71.45 48.25M71.1,48.7L71 48.75L70.4 48.9L70.3 48.6L71.05 48.45L71.1 48.7M69.7,48.85L69.4 48.8L69 48.7L69 48.55L69 48.4L69.15 48.45L69.6 48.55L69.7 48.85M68.45,47.95L68.7 48.1L68.7 48.15L68.7 48.2L68.7 48.5L68.4 48.3L68.45 47.95M68.15,48.1L67.95 47.65L68.05 47.65L68.1 47.6L68.3 47.6L68.2 47.7L68.2 47.75L68.15 48L68.15 48.1M68.75,47.3L68.5 47.4L67.9 47.5L68 47.2L68.3 47.25L68.45 47.2L68.5 47.2L68.75 47.3M68.6,47.6L68.75 47.45L68.75 47.4L68.8 47.4L68.85 47.35L68.85 47.5L68.6 47.6M70.3,47.25L70.35 47.25L70.45 47.35L70.5 47.4L70.55 47.55L70.2 47.5L70.25 47.4L70.3 47.3L70.3 47.25M69.55,47.5L69.35 47.5L69.65 47.25L69.7 47.2L69.75 47.3L69.75 47.5L69.55 47.5M71.3,47.4L71.4 47.5L71.55 47.65L71.5 47.65L71.25 47.55L71.15 47.45L71.1 47.4L71.05 47.25L71.1 47.25L71.25 47.4L71.3 47.4" />
<path style="fill:#F29F00;fill-opacity:1" d="M69.4,47.1L69.2 47.1L69 47.15L68.9 47.1L68.85 47L68.55 46.8L68.6 46.7L68.85 46.85L69.15 47.05L69.35 46.95L69.6 47L69.75 47.1L69.95 46.95L70.2 46.9L70.3 46.95L70.35 47L70.7 46.95L70.75 46.95L71 46.95L71.5 46.75L71.6 46.7L71.25 47.05L71.2 47.1L71.15 47.1L71 47.1L70.75 47.05L70.3 47.1L69.8 47.1L69.75 47.1L69.4 47.1" />
<path style="fill:#E77F00;fill-opacity:1" d="M71,47.2L70.95 47.2L70.5 47.15L69.7 47.2L69.6 47.2L69.45 47.2L69.2 47.2L69 47.15L69.2 47.1L69.4 47.1L69.75 47.1L69.8 47.1L70.3 47.1L70.75 47.05L71 47.1L71.15 47.1L71 47.2" />
<path style="fill:#FFA800;fill-opacity:1" d="M68.65,46.65L69 46.9L69.3 46.9L70.05 46.75L70.05 46.7L70.1 46.75L70.15 46.75L70.55 46.9L71.55 46.6L71.6 46.7L71.5 46.75L71 46.95L70.75 46.95L70.7 46.95L70.35 47L70.3 46.95L70.2 46.9L69.95 46.95L69.75 47.1L69.6 47L69.35 46.95L69.15 47.05L68.85 46.85L68.6 46.7L68.65 46.65" />
<path style="fill:#332F25;fill-opacity:1" d="M70.2,47.75L69.85 47.75L69.65 47.7L69.75 47.5L70.1 47.5L70.2 47.5L70.2 47.75M70.25,48.45L70.1 48.45L70 48.45L69.6 48.4L69.6 48.15L69.7 48.15L70.2 48.15L70.25 48.45M71.25,47.65L70.65 47.7L70.55 47.55L70.65 47.55L71.25 47.55L71.25 47.65M68.45,47.95L68.4 47.9L68.6 47.6L68.45 47.85L68.45 47.95M68.7,48.1L68.7 47.85L69.05 48.1L69.05 48.3L68.95 48.25L68.7 48.1M68.75,47.7L68.85 47.5L69.35 47.5L69.2 47.65L68.75 47.7M71.3,47.8L71.4 47.95L71.25 48.1L70.95 48.25L70.9 48.1L70.8 48L71.3 47.8M71.6,47.8L71.6 47.75L71.55 47.65L71.75 47.7L71.6 47.8" />
<path style="fill:#464035;fill-opacity:1" d="M70.2,47.8L70.2 48.15L69.7 48.15L69.6 48.15L69.6 48.05L69.65 47.75L69.65 47.7L69.85 47.75L70.2 47.75L70.2 47.8M68.7,47.85L68.75 47.7L69.2 47.65L69.15 47.8L69.05 48.1L68.7 47.85M71.3,47.8L70.8 48L70.65 47.7L71.25 47.65L71.25 47.7L71.3 47.7L71.3 47.8" />
<path style="fill:#FFF569;fill-opacity:1" d="M69.65,47.7L69.65 47.75L69.6 48.05L69.6 48.15L69.05 48.1L69.15 47.8L69.2 47.65L69.65 47.7M70.8,48L70.65 48.1L70.2 48.15L70.2 47.8L70.2 47.75L70.55 47.7L70.65 47.7L70.8 48" />
<path style="fill:#FFE211;fill-opacity:1" d="M69.2,47.65L69.35 47.5L69.55 47.5L69.75 47.5L69.65 47.7L69.2 47.65M70.65,47.7L70.55 47.7L70.2 47.75L70.2 47.5L70.55 47.55L70.65 47.7M68.85,47.5L68.75 47.7L68.7 47.85L68.7 48.1L68.45 47.95L68.45 47.85L68.6 47.6L68.85 47.5M69.6,48.15L69.6 48.4L69.05 48.3L69.05 48.1L69.6 48.15M70.9,48.1L70.95 48.25L70.25 48.45L70.2 48.15L70.65 48.1L70.8 48L70.9 48.1M71.4,47.95L71.3 47.8L71.3 47.7L71.25 47.7L71.25 47.65L71.25 47.55L71.5 47.65L71.55 47.65L71.6 47.75L71.6 47.8L71.4 47.95" />
<path style="fill:#000000;fill-opacity:1" d="M69.35,47.25L68.9 47.3L68.75 47.3L68.85 47.25L69.2 47.2L69.35 47.25M68.65,47.2L68.5 47.1L68.5 47.05L68.55 47.05L68.75 47.1L68.8 47.15L68.65 47.2" />
<path style="fill:#2C281F;fill-opacity:1" d="M71.8,46.9L71.85 47L71.55 47.2L71.55 47.25L71.5 47.2L71.6 47.1L71.6 47.05L71.35 47.2L71.2 47.1L71.25 47.05L71.6 46.7L71.65 46.7L71.8 46.9M68.85,47.1L68.8 47.15L68.75 47.1L68.55 47.05L68.5 47.05L68.5 47.1L68.65 47.2L68.5 47.2L68.45 47.2L68.45 47.05L68.55 46.8L68.85 47L68.9 47.1L68.85 47.1M71.75,47.7L71.55 47.65L71.4 47.5L71.3 47.4L71.65 47.45L71.7 47.5L71.75 47.5L71.85 47.6L71.75 47.7" />
<path style="fill:#FFC025;fill-opacity:1" d="M69.6,48.55L69.15 48.45L69 48.4L69.05 48.3L69.6 48.4L69.6 48.55M71.05,48.45L70.3 48.6L70.3 48.5L70.25 48.45L70.95 48.25L71.05 48.45M71.4,47.95L71.6 47.8L71.7 48.1L71.45 48.25L71.4 47.95" />
<path style="fill:#27241C;fill-opacity:1" d="M68.7,48.1L68.95 48.25L69.05 48.3L69 48.4L68.7 48.15L68.7 48.1M70,48.45L70.1 48.45L70.25 48.45L70.3 48.5L70.3 48.6L70 48.65L69.6 48.55L69.6 48.4L70 48.45M71.45,48.25L71.15 48.35L71.05 48.45L70.95 48.25L71.25 48.1L71.4 47.95L71.45 48.25M71.7,48.1L71.6 47.8L71.75 47.7L71.85 47.6L71.95 47.65L71.7 48.1" />
<path style="fill:#FFD011;fill-opacity:1" d="M72.1,47.35L71.65 47.25L71.55 47.25L71.55 47.2L71.85 47L72.1 47.35" />
<linearGradient
id="LinearGradID_917" gradientUnits="userSpaceOnUse" gradientTransform="matrix(0.00143433, 7.62939e-005, 0, 0.000640869, 69.7, 46.4)" spreadMethod ="pad" x1="-819.2" y1="0" x2="819.2" y2="0" >
<stop  offset="0" style="stop-color:#FFFFFF;stop-opacity:0.8" />
<stop  offset="0.603922" style="stop-color:#FFFCDB;stop-opacity:0" />
</linearGradient>
<path style="fill:url(#LinearGradID_917) " d="M68.6,46.85L68.5 46.75Q68.4 46.65 68.85 46.2Q69.15 45.9 69.45 45.85L69.9 45.95L70.4 46.25L70.75 46.45L70.9 46.65L70.85 46.7L70.75 46.75L70.5 46.65L69.85 46.55L69.1 46.7L68.7 46.9L68.6 46.85" />
<linearGradient
id="LinearGradID_918" gradientUnits="userSpaceOnUse" gradientTransform="matrix(-0.00143433, -7.62939e-005, 0, 0.000488281, 70.45, 46.3)" spreadMethod ="pad" x1="-819.2" y1="0" x2="819.2" y2="0" >
<stop  offset="0" style="stop-color:#FFF258;stop-opacity:0.8" />
<stop  offset="0.603922" style="stop-color:#FFFCDB;stop-opacity:0" />
</linearGradient>
<path style="fill:url(#LinearGradID_918) " d="M71.55,46.75L71.65 46.65L71.3 46.25L70.7 45.9L70.25 45.95L69.75 46.1L69.4 46.25L69.25 46.4L69.3 46.45L69.4 46.5L69.65 46.45L70.3 46.45L71.05 46.65L71.45 46.8L71.55 46.75" />
<radialGradient
id="RadialGradID_919" gradientUnits="userSpaceOnUse" gradientTransform="matrix(0.00534058, 0.000274658, 0, 0.0017395, 69.85, 47.3)" spreadMethod ="pad" cx="0" cy="0" r="819.2" fx="0" fy="0" >
<stop  offset="0"  style="stop-color:#130006;stop-opacity:0.8" />
<stop  offset="0.603922"  style="stop-color:#1F0508;stop-opacity:0" />
</radialGradient>
<path style="fill:url(#RadialGradID_919) " d="M67.85,47.7L67.75 47.65L67.7 47.65L68.6 47.4L69.2 47.3L69.6 47.25L69.8 47.2L70.05 47.25L70.55 47.25L71.3 47.4L71.95 47.6L72.3 47.7L72.2 47.7L71.4 47.5L70.45 47.35L70.05 47.45L69.85 47.45L69.6 47.4L69.25 47.4L68.5 47.55L67.85 47.7" />
<path style="fill:none;stroke-width:0.1;stroke-linecap:round;stroke-linejoin:round;stroke-miterlimit:3;stroke:#FFA800;stroke-opacity:1" d="M67.95,47.65Q67.8 47.65 67.9 47.35Q68.9 45.5 69.95 45.95Q71.1 45.35 72.45 47.65" />
</g>
</svg>
