<?xml version="1.0" encoding="utf-8"?>
<svg version="1.1" id="Layer_1"
xmlns="http://www.w3.org/2000/svg"
xmlns:xlink="http://www.w3.org/1999/xlink"
xmlns:author="http://www.sothink.com"
width="7px" height="6px"
xml:space="preserve">
<g id="54" transform="matrix(1, 0, 0, 1, 3.35, 2.6)">
<radialGradient
id="RadialGradID_662" gradientUnits="userSpaceOnUse" gradientTransform="matrix(0.00395203, 0, 0, 0.00198364, 0.45, 1)" spreadMethod ="pad" cx="0" cy="0" r="819.2" fx="0" fy="0" >
<stop  offset="0"  style="stop-color:#E9765A;stop-opacity:0.643137" />
<stop  offset="1"  style="stop-color:#FFECD9;stop-opacity:0.101961" />
</radialGradient>
<path style="fill:url(#RadialGradID_662) " d="M3.15,0.05Q2.65 1.7 1.2 2.35Q-0.2 3 -1.55 2.1Q-2.9 1.2 -2.2 -0.7Q-1.05 0.65 0.75 0.45L3.15 0.05" />
<radialGradient
id="RadialGradID_663" gradientUnits="userSpaceOnUse" gradientTransform="matrix(0.00102234, 0, 0, 0.00102234, -2.45, -0.95)" spreadMethod ="pad" cx="0" cy="0" r="819.2" fx="0" fy="0" >
<stop  offset="0.211765"  style="stop-color:#E66A4D;stop-opacity:0.592157" />
<stop  offset="1"  style="stop-color:#FFECD9;stop-opacity:0.0313725" />
</radialGradient>
<path style="fill:url(#RadialGradID_663) " d="M-1.9,-1.4L-1.65 -0.85L-1.9 -0.3Q-2.2 -0.05 -2.45 -0.05L-3.1 -0.3L-3.35 -0.85L-3.1 -1.4Q-2.85 -1.8 -2.45 -1.7Q-2.2 -1.8 -1.9 -1.4" />
<linearGradient
id="LinearGradID_664" gradientUnits="userSpaceOnUse" gradientTransform="matrix(0.000610352, 0.000320435, -0.000289917, 0.000534058, -0.85, -1.9)" spreadMethod ="pad" x1="-819.2" y1="0" x2="819.2" y2="0" >
<stop  offset="0" style="stop-color:#B01D2C;stop-opacity:1" />
<stop  offset="1" style="stop-color:#911B23;stop-opacity:1" />
</linearGradient>
<path style="fill:url(#LinearGradID_664) " d="M-0.45,-2.4L-0.45 -2.45L-0.5 -2.45L-0.5 -2.5L-0.45 -2.5L-0.45 -2.45L-0.4 -2.45L-0.35 -2.35L-0.45 -2.4M-1.55,-1.85L-1.55 -1.9L-1.45 -1.95L-1.4 -1.95L-1.35 -1.9L-1.3 -1.85L-1.25 -1.85L-1.2 -1.9L-1.2 -1.95L-1.1 -1.95L-1 -1.9L-0.75 -1.85L-0.3 -1.95L-0.2 -1.95L-0.15 -2L-0.15 -2.05L-0.15 -2.15L-0.1 -2.05L-0.05 -1.95L-0.3 -1.85L-0.4 -1.8L-0.9 -1.8L-1.15 -1.9L-1.15 -1.8L-1.15 -1.75L-1.25 -1.8L-1.3 -1.75L-1.35 -1.75L-1.35 -1.7L-1.4 -1.7L-1.5 -1.65L-1.55 -1.6L-1.6 -1.65L-1.6 -1.7L-1.55 -1.7L-1.55 -1.75L-1.55 -1.85M-1.4,-1.9L-1.45 -1.85L-1.45 -1.8L-1.4 -1.8L-1.35 -1.8L-1.4 -1.9M-1.7,-1.55L-1.9 -1.5L-1.75 -1.6L-1.7 -1.65L-1.65 -1.65L-1.6 -1.65L-1.6 -1.55L-1.7 -1.55" />
<path style="fill:#A80D1F;fill-opacity:1" d="M-0.5,-2.45L-0.6 -2.45L-0.7 -2.4L-0.8 -2.35L-0.9 -2.35L-1 -2.25L-1.05 -2.25L-1.15 -2.15L-1.4 -1.95L-1.45 -1.95L-1.55 -1.9L-1.6 -1.85L-1.65 -1.8L-1.65 -1.75L-1.7 -1.75L-1.7 -1.7L-1.7 -1.65L-1.75 -1.75L-1.8 -1.7L-1.8 -1.75L-1.75 -1.8L-1.6 -1.95L-1.5 -2L-1.35 -2.1L-1.3 -2.15L-0.95 -2.35L-0.6 -2.5L-0.5 -2.5L-0.5 -2.45M-1.85,-1.7L-1.8 -1.7L-1.8 -1.65L-1.9 -1.55L-1.95 -1.5L-1.9 -1.5L-1.7 -1.55L-1.9 -1.45L-2 -1.45L-2.05 -1.4L-2.05 -1.45L-2 -1.5L-2.2 -1.4L-1.9 -1.65L-1.85 -1.7" />
<path style="fill:#EEFBF1;fill-opacity:1" d="M-1.7,-1.7L-1.7 -1.75L-1.65 -1.75L-1.65 -1.65L-1.7 -1.7M-1.35,-1.9L-1.4 -1.95L-1.2 -2.1L-1.25 -1.95L-1.35 -1.9M-1.6,-1.8L-1.55 -1.85L-1.55 -1.75L-1.65 -1.75L-1.6 -1.8M-1.05,-2.2L-0.95 -2.25L-0.65 -2.4L-0.6 -2.4L-0.65 -2.35L-0.7 -2.3L-0.7 -2.25L-0.7 -2.2L-0.75 -2.25L-0.75 -2.3L-0.8 -2.3L-0.85 -2.25L-0.95 -2.25L-0.95 -2.2L-1.05 -2.2" />
<path style="fill:#E98891;fill-opacity:1" d="M-1.65,-1.65L-1.7 -1.65L-1.7 -1.7L-1.65 -1.65M-1.65,-1.75L-1.55 -1.75L-1.55 -1.7L-1.6 -1.7L-1.6 -1.65L-1.65 -1.65L-1.65 -1.75L-1.65 -1.8L-1.6 -1.85L-1.55 -1.9L-1.55 -1.85L-1.6 -1.8L-1.65 -1.75M-0.95,-2.2L-1.1 -2.1L-1.15 -2.05L-1.2 -1.95L-1.2 -1.9L-1.25 -1.85L-1.3 -1.85L-1.35 -1.9L-1.25 -1.95L-1.2 -2.1L-1.4 -1.95L-1.15 -2.15L-1.05 -2.2L-0.9 -2.3L-0.8 -2.35L-0.7 -2.4L-0.6 -2.45L-0.5 -2.45L-0.45 -2.45L-0.45 -2.4L-0.5 -2.4L-0.6 -2.35L-0.65 -2.35L-0.6 -2.4L-0.65 -2.4L-0.95 -2.25L-1.05 -2.2L-0.95 -2.2M-0.7,-2.2L-0.75 -2.2L-0.75 -2.25L-0.7 -2.2M-0.65,-2.35L-0.7 -2.25L-0.7 -2.3L-0.65 -2.35M-1.8,-1.65L-1.75 -1.65L-1.75 -1.6L-1.9 -1.5L-1.95 -1.5L-1.9 -1.55L-1.8 -1.65" />
<path style="fill:#DC5C73;fill-opacity:1" d="M-1.75,-1.6L-1.75 -1.65L-1.8 -1.65L-1.8 -1.7L-1.75 -1.75L-1.7 -1.65L-1.75 -1.6M-1.35,-1.8L-1.4 -1.8L-1.45 -1.8L-1.4 -1.85L-1.4 -1.9L-1.35 -1.8" />
<path style="fill:#FA9DA5;fill-opacity:1" d="M-1.45,-1.85L-1.4 -1.9L-1.4 -1.85L-1.45 -1.8L-1.45 -1.85" />
<path style="fill:#B8262E;fill-opacity:1" d="M-0.95,-2.15L-1.05 -2.1L-1.1 -2.1L-1.1 -2L-1.15 -2.05L-1.1 -2.1L-0.95 -2.2L-0.95 -2.15M-0.75,-2.1L-0.85 -2.15L-0.85 -2.2L-0.95 -2.2L-0.95 -2.25L-0.85 -2.25L-0.8 -2.3L-0.75 -2.3L-0.75 -2.25L-0.75 -2.2L-0.7 -2.2L-0.7 -2.25L-0.65 -2.2L-0.65 -2.15L-0.6 -2.15L-0.6 -2.1L-0.55 -2.05L-0.65 -2.1L-0.7 -2.15L-0.7 -2.1L-0.75 -2.1" />
<radialGradient
id="RadialGradID_665" gradientUnits="userSpaceOnUse" gradientTransform="matrix(0.00100708, 0, 0, 0.00100708, -0.95, -2.2)" spreadMethod ="pad" cx="0" cy="0" r="819.2" fx="0" fy="0" >
<stop  offset="0"  style="stop-color:#D42A36;stop-opacity:1" />
<stop  offset="1"  style="stop-color:#9C222D;stop-opacity:1" />
</radialGradient>
<path style="fill:url(#RadialGradID_665) " d="M-0.35,-2.35L-0.3 -2.35L-0.15 -2.15L-0.15 -2.05L-0.15 -2L-0.2 -1.95L-0.3 -1.95L-0.75 -1.85L-1 -1.9L-1.1 -1.95L-1.2 -1.95L-1.15 -2.05L-1.1 -2L-1.1 -2.1L-1.05 -2.05L-1.05 -2L-1 -1.95L-0.95 -2L-0.75 -1.95L-0.65 -1.95L-0.6 -2L-0.55 -2L-0.6 -2.05L-0.65 -2.1L-0.55 -2.05L-0.6 -2.1L-0.6 -2.15L-0.5 -2.25L-0.45 -2.3L-0.45 -2.35L-0.5 -2.4L-0.45 -2.4L-0.35 -2.35M-0.4,-2.25L-0.35 -2.25L-0.4 -2.3L-0.4 -2.25M-0.25,-2.2L-0.3 -2.25L-0.3 -2.2L-0.25 -2.2" />
<linearGradient
id="LinearGradID_666" gradientUnits="userSpaceOnUse" gradientTransform="matrix(0.00196838, 0, 0, 0.000701904, -0.5, -1.95)" spreadMethod ="pad" x1="-819.2" y1="0" x2="819.2" y2="0" >
<stop  offset="0" style="stop-color:#7A1322;stop-opacity:1" />
<stop  offset="0.462745" style="stop-color:#9C172A;stop-opacity:1" />
<stop  offset="1" style="stop-color:#80222E;stop-opacity:1" />
</linearGradient>
<path style="fill:url(#LinearGradID_666) " d="M1.1,-1.9L0.95 -2L0.9 -2L0.65 -2L0.45 -2.05L0.35 -2.05L0.15 -1.95L0.1 -1.9L-0.3 -1.8L-0.45 -1.75L-0.5 -1.75L-0.75 -1.75L-0.95 -1.75L-1 -1.7L-1.3 -1.75L-1.25 -1.8L-1.15 -1.75L-1.15 -1.8L-1.15 -1.9L-0.9 -1.8L-0.4 -1.8L-0.3 -1.85L-0.05 -1.95L-0.1 -2.05L-0.15 -2.15L-0.3 -2.35L-0.35 -2.35L-0.4 -2.45L-0.25 -2.4L-0.1 -2.35L0 -2.3L0.05 -2.3L0.05 -2.2L0.05 -2.15L0.1 -2.1L0.1 -2.05L0.15 -2.1L0.2 -2.1L0.25 -2.1L0.35 -2.1L0.6 -2.15L0.8 -2.1L1.05 -2.05L1.05 -1.95L1.1 -1.95L1.1 -1.9M-1.3,-1.65L-1.5 -1.65L-1.5 -1.6L-1.55 -1.6L-1.5 -1.65L-1.4 -1.7L-1.35 -1.7L-1.3 -1.65M-2.2,-1.4L-2 -1.5L-2.05 -1.45L-2.05 -1.4L-2 -1.45L-1.9 -1.45L-1.7 -1.55L-1.6 -1.55L-1.6 -1.5L-1.7 -1.5L-1.8 -1.45L-1.95 -1.4L-2 -1.35L-2.1 -1.3L-2.15 -1.3L-2.2 -1.35L-2.2 -1.4" />
<radialGradient
id="RadialGradID_667" gradientUnits="userSpaceOnUse" gradientTransform="matrix(0.00178528, 0, 0, 0.00178528, -0.95, -1.7)" spreadMethod ="pad" cx="0" cy="0" r="819.2" fx="0" fy="0" >
<stop  offset="0"  style="stop-color:#780B18;stop-opacity:1" />
<stop  offset="1"  style="stop-color:#610E16;stop-opacity:1" />
<stop  offset="1"  style="stop-color:#630811;stop-opacity:1" />
</radialGradient>
<path style="fill:url(#RadialGradID_667) " d="M-1.35,-1.7L-1.35 -1.75L-1.3 -1.75L-1 -1.7L-0.7 -1.7L-0.5 -1.75L-0.45 -1.75L-0.3 -1.75L-0.05 -1.75L0 -1.75L0.1 -1.75L0.15 -1.8L0.4 -1.8L0.5 -1.8L0.55 -1.8L1 -1.75L0.75 -1.75L0.4 -1.75L0.25 -1.75L0.2 -1.7L0.1 -1.7L0.1 -1.65L0 -1.65L-0.05 -1.7L-0.25 -1.7L-0.3 -1.7L-0.55 -1.65L-0.65 -1.65L-0.75 -1.6L-1 -1.65L-1.25 -1.6L-1.4 -1.55L-1.45 -1.5L-1.5 -1.5L-2.1 -1.25L-2.2 -1.3L-2.2 -1.35L-2.15 -1.3L-2.1 -1.3L-2 -1.35L-1.95 -1.4L-1.8 -1.45L-1.7 -1.5L-1.6 -1.5L-1.6 -1.55L-1.6 -1.65L-1.55 -1.6L-1.5 -1.6L-1.5 -1.65L-1.3 -1.65L-1.35 -1.7M1.55,-1.75L1.2 -1.75L1 -1.75L1.15 -1.8L1.2 -1.8L1.25 -1.85L1.35 -1.8L1.45 -1.8L1.65 -1.75L1.7 -1.7L1.55 -1.75" />
<path style="fill:#CF2935;fill-opacity:1" d="M-0.65,-2.35L-0.6 -2.35L-0.5 -2.4L-0.45 -2.35L-0.45 -2.3L-0.5 -2.25L-0.6 -2.15L-0.65 -2.15L-0.65 -2.2L-0.7 -2.25L-0.65 -2.35M-1.05,-2.1L-0.95 -2.15L-0.95 -2.2L-0.85 -2.2L-0.85 -2.15L-0.85 -2.1L-0.8 -2.05L-0.75 -2.1L-0.7 -2.1L-0.7 -2.05L-0.65 -2L-0.65 -2.05L-0.6 -2.05L-0.55 -2L-0.6 -2L-0.65 -1.95L-0.75 -1.95L-0.95 -2L-1.05 -2.1" />
<path style="fill:#ED7D85;fill-opacity:1" d="M-0.6,-2.05L-0.65 -2.05L-0.65 -2L-0.7 -2.05L-0.7 -2.1L-0.7 -2.15L-0.65 -2.1L-0.6 -2.05M-0.95,-2L-1 -1.95L-1.05 -2L-1.05 -2.05L-1.1 -2.1L-1.05 -2.1L-0.95 -2M-0.8,-2.05L-0.85 -2.1L-0.85 -2.15L-0.75 -2.1L-0.8 -2.05M-0.4,-2.3L-0.35 -2.25L-0.4 -2.25L-0.4 -2.3M-0.3,-2.2L-0.3 -2.25L-0.25 -2.2L-0.3 -2.2" />
<path style="fill:#A3222C;fill-opacity:1" d="M-0.9,-2.3L-1.05 -2.2L-1.15 -2.15L-1.05 -2.25L-1 -2.25L-0.9 -2.35L-0.8 -2.35L-0.9 -2.3" />
<linearGradient
id="LinearGradID_668" gradientUnits="userSpaceOnUse" gradientTransform="matrix(0.00132751, 0, 0, 0.000289917, 0.95, -1.95)" spreadMethod ="pad" x1="-819.2" y1="0" x2="819.2" y2="0" >
<stop  offset="0" style="stop-color:#861623;stop-opacity:1" />
<stop  offset="1" style="stop-color:#5E0617;stop-opacity:1" />
</linearGradient>
<path style="fill:url(#LinearGradID_668) " d="M2.05,-1.8L1.85 -1.7L1.8 -1.7L1.7 -1.7L1.65 -1.75L1.45 -1.8L1.35 -1.8L1.25 -1.85L1.2 -1.8L1.15 -1.8L1 -1.75L0.55 -1.8L0.5 -1.8L0.4 -1.8L0.15 -1.8L0.1 -1.75L0 -1.75L-0.05 -1.75L-0.3 -1.75L-0.45 -1.75L-0.3 -1.8L0.1 -1.9L0.15 -1.95L0.35 -2.05L0.45 -2.05L0.65 -2L0.9 -2L0.95 -2L1.1 -1.9L1.1 -1.85L1.2 -1.85L1.3 -1.9L1.4 -1.9L1.5 -1.85L1.55 -1.8L1.7 -1.8L1.75 -1.8L1.9 -1.8L1.95 -1.8L1.95 -1.9L2.05 -1.8M-0.5,-1.75L-0.7 -1.7L-1 -1.7L-0.95 -1.75L-0.75 -1.75L-0.5 -1.75" />
<linearGradient
id="LinearGradID_669" gradientUnits="userSpaceOnUse" gradientTransform="matrix(0.00126648, 0, 0, 0.000518799, 1.4, -2.2)" spreadMethod ="pad" x1="-819.2" y1="0" x2="819.2" y2="0" >
<stop  offset="0" style="stop-color:#B21830;stop-opacity:1" />
<stop  offset="0.964706" style="stop-color:#650E1E;stop-opacity:1" />
</linearGradient>
<path style="fill:url(#LinearGradID_669) " d="M2.05,-1.95L1.85 -2.1L1.8 -2.1L1.7 -2.15L1.55 -2.2L1.5 -2.2L1.4 -2.25L1.4 -2.3L1.1 -2.5L0.9 -2.5L0.8 -2.5L0.5 -2.45L0.4 -2.4L0.3 -2.4L0.25 -2.4L0.4 -2.45L0.45 -2.45L0.55 -2.5L0.7 -2.55L1.05 -2.55L1.15 -2.5L1.6 -2.3L2.4 -1.75L2.05 -1.95" />
<path style="fill:#A82326;fill-opacity:1" d="M0.05,-2.2L0.05 -2.3L0.1 -2.3L0.15 -2.25L0.25 -2.2L0.4 -2.25L0.5 -2.25L0.7 -2.25L0.75 -2.2L0.85 -2.25L0.95 -2.25L1 -2.3L1.05 -2.4L1.1 -2.5L1.4 -2.3L1.4 -2.25L1.3 -2.3L1.25 -2.3L1.15 -2.35L1.1 -2.35L1.05 -2.3L1.05 -2.2L1.05 -2.05L0.8 -2.1L0.6 -2.15L0.35 -2.1L0.25 -2.1L0.2 -2.1L0.05 -2.2" />
<path style="fill:#BF3138;fill-opacity:1" d="M0.25,-2.35L0.15 -2.3L0.2 -2.25L0.4 -2.25L0.25 -2.2L0.15 -2.25L0.1 -2.3L0.25 -2.4L0.25 -2.35M0.9,-2.5L1.1 -2.5L1.05 -2.4L1 -2.3L0.95 -2.25L0.85 -2.25L0.75 -2.2L0.7 -2.25L0.5 -2.25L0.4 -2.25L0.45 -2.3L0.55 -2.3L0.75 -2.3L0.85 -2.3L0.95 -2.35L1 -2.45L0.9 -2.5" />
<path style="fill:#94171B;fill-opacity:1" d="M0.2,-2.1L0.15 -2.1L0.1 -2.05L0.1 -2.1L0.05 -2.15L0.05 -2.2L0.2 -2.1" />
<path style="fill:#4D0912;fill-opacity:1" d="M2.05,-1.95L2.4 -1.75L2 -1.6L1.75 -1.5L1.7 -1.5L1.55 -1.45L1.3 -1.45L1.15 -1.5L1 -1.5L0.55 -1.5L0.45 -1.5L0.25 -1.5L0.15 -1.45L0.05 -1.45L-0.05 -1.45L-0.5 -1.45L-0.65 -1.45L-0.7 -1.45L-0.95 -1.45L-2.3 -1.15L-2.45 -1.15L-2.2 -1.35L-2.2 -1.3L-2.1 -1.25L-1.5 -1.5L-1.45 -1.5L-1.4 -1.55L-1.25 -1.6L-1 -1.65L-0.75 -1.6L-0.65 -1.65L-0.55 -1.65L-0.3 -1.7L-0.25 -1.7L-0.05 -1.7L0 -1.65L0.1 -1.65L0.1 -1.7L0.2 -1.7L0.25 -1.75L0.4 -1.75L0.75 -1.75L1 -1.75L1.2 -1.75L1.55 -1.75L1.7 -1.7L1.8 -1.7L1.85 -1.7L2.05 -1.8L2.05 -1.95" />
<path style="fill:#EDE3D9;fill-opacity:1" d="M0.45,-2.4L0.55 -2.45L0.8 -2.5L0.85 -2.45L0.8 -2.4L0.55 -2.4L0.45 -2.4" />
<path style="fill:#E62B41;fill-opacity:1" d="M0.85,-2.4L1 -2.45L0.95 -2.35L0.85 -2.3L0.75 -2.3L0.55 -2.3L0.45 -2.3L0.4 -2.25L0.2 -2.25L0.15 -2.3L0.25 -2.35L0.25 -2.4L0.3 -2.4L0.4 -2.4L0.5 -2.45L0.8 -2.5L0.55 -2.45L0.45 -2.4L0.4 -2.4L0.3 -2.35L0.25 -2.3L0.3 -2.3L0.4 -2.3L0.45 -2.35L0.55 -2.4L0.8 -2.4L0.85 -2.4" />
<path style="fill:#FC9BA6;fill-opacity:1" d="M1,-2.45L0.85 -2.4L0.8 -2.4L0.85 -2.45L0.8 -2.5L0.9 -2.5L1 -2.45M0.45,-2.4L0.55 -2.4L0.45 -2.35L0.4 -2.3L0.3 -2.3L0.25 -2.3L0.3 -2.35L0.4 -2.4L0.45 -2.4" />
<linearGradient
id="LinearGradID_670" gradientUnits="userSpaceOnUse" gradientTransform="matrix(0.000564575, 0, 0, 0.000595093, -2.05, -1.45)" spreadMethod ="pad" x1="-819.2" y1="0" x2="819.2" y2="0" >
<stop  offset="0" style="stop-color:#733136;stop-opacity:1" />
<stop  offset="0.917647" style="stop-color:#AE3544;stop-opacity:1" />
</linearGradient>
<path style="fill:url(#LinearGradID_670) " d="M-2.5,-1.15L-2.15 -1.45L-1.85 -1.7L-1.8 -1.75L-1.8 -1.7L-1.85 -1.7L-1.9 -1.65L-2.2 -1.4L-2.2 -1.35L-2.45 -1.15L-2.4 -1L-2.5 -1.15" />
<path style="fill:#110A11;fill-opacity:1" d="M-2.3,-1.15L-0.95 -1.45L-0.9 -1.35L-0.65 -1.1L-0.6 -1.2L-0.55 -1.2L-0.55 -1.3L-0.5 -1.4L-0.45 -1.35L-0.4 -1.35L-0.05 -1.35L0 -1.35L0.2 -1.35L0.25 -1.4L0.3 -1.35L0.4 -1.3L0.25 -1.3L0.1 -1.3L-0.05 -1.3L-0.35 -1.25L-0.5 -1.25L-0.55 -1.15L-0.55 -1.1L-0.7 -1.05L-0.8 -1L-1.05 -1.05L-1.25 -1L-1.4 -0.95L-1.55 -0.9L-1.85 -0.95L-2.1 -1.05L-2.25 -1.05L-2.35 -1L-2.3 -1.15M1,-1.35L0.95 -1.35L0.8 -1.35L0.9 -1.4L1 -1.5L1.15 -1.5L1.3 -1.45L1 -1.35M0.4,-1.3L0.4 -1.35L0.6 -1.35L0.75 -1.35L0.4 -1.3" />
<path style="fill:#120B12;fill-opacity:1" d="M1.15,-1.35L1 -1.35L1.3 -1.45L1.55 -1.45L1.15 -1.35M-0.9,-0.5L-1.1 -0.55L-1.4 -0.65L-2.25 -1L-2.35 -1L-2.25 -1.05L-2.1 -1.05L-1.85 -0.95L-1.55 -0.9L-1.4 -0.95L-1.25 -1L-1.05 -1.05L-0.8 -1L-0.7 -1.05L-0.55 -1.1L-0.55 -1.15L-0.5 -1.25L-0.35 -1.25L-0.05 -1.3L0.1 -1.3L0.25 -1.3L0.4 -1.3L0.75 -1.35L0.8 -1.35L0.95 -1.35L-0.05 -1.25L-0.1 -1.25L-0.35 -1.25L-0.5 -1.15L-0.5 -1.1L-0.55 -1.1L-0.6 -1L-0.7 -1L-0.7 -0.95L-0.65 -0.85L-0.55 -0.8L-0.5 -0.75L-0.5 -0.65L-0.8 -0.8L-0.9 -0.8L-0.95 -0.75L-0.8 -0.6L-0.9 -0.5M-1.4,-0.7L-1.4 -0.65L-1.2 -0.6L-1.1 -0.6L-1.05 -0.55L-1 -0.55L-0.95 -0.55L-0.85 -0.55L-0.95 -0.65L-1.05 -0.7L-1.15 -0.7L-1.1 -0.8L-1.05 -0.9L-1.05 -0.95L-1.15 -0.95L-1.2 -0.9L-1.3 -0.85L-1.35 -0.7L-1.4 -0.7" />
<linearGradient
id="LinearGradID_671" gradientUnits="userSpaceOnUse" gradientTransform="matrix(0.0025177, 0, 0, 0.000747681, -0.45, -0.55)" spreadMethod ="pad" x1="-819.2" y1="0" x2="819.2" y2="0" >
<stop  offset="0" style="stop-color:#801926;stop-opacity:1" />
<stop  offset="1" style="stop-color:#A82132;stop-opacity:1" />
</linearGradient>
<path style="fill:url(#LinearGradID_671) " d="M1.6,-0.25L1.7 -0.25L1.95 -0.25L1.95 -0.15L1.85 -0.2L1.75 -0.2L1.7 -0.2L1.55 -0.2L1.45 -0.2L1.45 -0.15L1.4 -0.15L0.55 0L-0.05 -0.05L-0.3 -0.1L-0.3 -0.15L-0.4 -0.2L-0.55 -0.25L-0.8 -0.25L-0.9 -0.3L-1 -0.35L-1.2 -0.4L-1.4 -0.5L-1.5 -0.55L-1.7 -0.65L-2.1 -0.8L-2.25 -0.85L-2.5 -0.95L-2.5 -1L-2.5 -1.15L-2.4 -1L-2.1 -0.9L-1.4 -0.6L-1.35 -0.55L-1.05 -0.45L-0.75 -0.4L-0.4 -0.3L-0.1 -0.15L-0.05 -0.15L0.9 -0.1L1.15 -0.15L1.45 -0.25L1.6 -0.25" />
<linearGradient
id="LinearGradID_672" gradientUnits="userSpaceOnUse" gradientTransform="matrix(0.00193787, 0, 0, 0.000686646, -0.95, -0.7)" spreadMethod ="pad" x1="-819.2" y1="0" x2="819.2" y2="0" >
<stop  offset="0" style="stop-color:#3B171B;stop-opacity:1" />
<stop  offset="1" style="stop-color:#721A26;stop-opacity:1" />
</linearGradient>
<path style="fill:url(#LinearGradID_672) " d="M-2.35,-1L-2.25 -1L-1.4 -0.65L-1.1 -0.55L-0.9 -0.5L-0.4 -0.35L-0.05 -0.2L0 -0.15L1 -0.2L1.15 -0.2L1.35 -0.3L1.4 -0.3L1.5 -0.35L1.55 -0.35L1.55 -0.3L1.45 -0.25L1.15 -0.15L0.9 -0.1L-0.05 -0.15L-0.1 -0.15L-0.4 -0.3L-0.75 -0.4L-1.05 -0.45L-1.35 -0.55L-1.4 -0.6L-2.1 -0.9L-2.4 -1L-2.45 -1.15L-2.3 -1.15L-2.35 -1" />
<linearGradient
id="LinearGradID_673" gradientUnits="userSpaceOnUse" gradientTransform="matrix(0.00392151, 0, 0, 0.000274658, -0.5, -0.6)" spreadMethod ="pad" x1="-819.2" y1="0" x2="819.2" y2="0" >
<stop  offset="0" style="stop-color:#C2303B;stop-opacity:1" />
<stop  offset="1" style="stop-color:#9B162B;stop-opacity:1" />
</linearGradient>
<path style="fill:url(#LinearGradID_673) " d="M-2.2,-0.8L-2.25 -0.85L-2.25 -0.8L-2.15 -0.55L-2.3 -0.7L-2.35 -0.75L-2.35 -0.8L-2.4 -0.85L-2.45 -0.85L-2.5 -0.9L-2.5 -0.95L-2.25 -0.85L-2.1 -0.8L-1.7 -0.65L-1.5 -0.55L-1.6 -0.5M-1.6,-0.5L-1.65 -0.6L-1.7 -0.55L-1.85 -0.65L-1.9 -0.7L-2.05 -0.75L-2.2 -0.8" />
<linearGradient
id="LinearGradID_674" gradientUnits="userSpaceOnUse" gradientTransform="matrix(0.00268555, 0, 0, 0.000808716, 0.5, 0.35)" spreadMethod ="pad" x1="-819.2" y1="0" x2="819.2" y2="0" >
<stop  offset="0" style="stop-color:#B32133;stop-opacity:1" />
<stop  offset="0.552941" style="stop-color:#871B2A;stop-opacity:1" />
<stop  offset="1" style="stop-color:#731829;stop-opacity:1" />
</linearGradient>
<path style="fill:url(#LinearGradID_674) " d="M-2.1,-0.5L-2.15 -0.45L-2.15 -0.5L-2.2 -0.55L-2.25 -0.6L-2.3 -0.65L-2.4 -0.8L-2.45 -0.85L-2.4 -0.85L-2.35 -0.8L-2.35 -0.75L-2.3 -0.7L-2.15 -0.55L-2.1 -0.5" />
<linearGradient
id="LinearGradID_675" gradientUnits="userSpaceOnUse" gradientTransform="matrix(0.00292969, 0, 0, 0.00088501, 0.1, -0.15)" spreadMethod ="pad" x1="-819.2" y1="0" x2="819.2" y2="0" >
<stop  offset="0" style="stop-color:#FF3842;stop-opacity:1" />
<stop  offset="0.819608" style="stop-color:#D32E3A;stop-opacity:1" />
<stop  offset="1" style="stop-color:#AC2630;stop-opacity:1" />
</linearGradient>
<path style="fill:url(#LinearGradID_675) " d="M-1.9,-0.55L-1.85 -0.55L-1.85 -0.6L-1.95 -0.6L-1.9 -0.5L-1.9 -0.55M-1.95,-0.45L-1.95 -0.5L-2 -0.6L-2 -0.65L-1.9 -0.7L-1.85 -0.65L-1.7 -0.55L-1.75 -0.5L-1.7 -0.45L-1.8 -0.45L-1.85 -0.5L-1.9 -0.45L-1.9 -0.5L-1.95 -0.45M-1.6,-0.45L-1.6 -0.5L-1.65 -0.5L-1.7 -0.55L-1.65 -0.6L-1.6 -0.5L-1.5 -0.55L-1.5 -0.5L-1.55 -0.4L-1.6 -0.45M1.85,0.45L1.55 0.55L1.5 0.6L1.35 0.6L1.25 0.55L1.15 0.55L0.95 0.6L0.7 0.55L0.5 0.5L0.15 0.5L0.1 0.55L-0.05 0.55L-0.25 0.5L-0.5 0.45L-0.85 0.3L-1.15 0.05L-1.2 0.05L-1.4 -0.1L-1.5 -0.25L-1.6 -0.3L-1.65 -0.3L-1.65 -0.35L-1.6 -0.35L-1.6 -0.3L-1.5 -0.3L-1.45 -0.3L-1.45 -0.25L-1.4 -0.25L-1.35 -0.3L-1.4 -0.35L-1.45 -0.35L-1.45 -0.4L-1.4 -0.45L-1.4 -0.4L-1.2 -0.35L-1 -0.3L-1 -0.25L-0.9 -0.25L-0.8 -0.15L-0.05 0.05L0.15 0.1L0.5 0.1L0.55 0.1L0.65 0.1L1.15 0.05L1.35 0L1.85 -0.1L2.05 -0.05L2.1 -0.05L2.15 0L2.05 0L1.9 0L1.45 0.05L1.15 0.1L0.95 0.15L0.6 0.15L0.1 0.15L-0.05 0.15L-0.2 0.15L-0.3 0.1L-0.4 0.1L-0.5 0L-0.65 -0.05L-1 -0.25L-1.2 -0.25L-1.3 -0.2L-1.3 -0.15L-1.25 -0.05L-1.2 0.05L-1.2 0L-1.15 -0.05L-1.1 0.05L-1 0.1L-0.75 0.25L-0.65 0.3L-0.5 0.35L-0.45 0.4L-0.4 0.4L-0.25 0.45L-0.15 0.45L-0.05 0.45L0 0.45L0.1 0.45L0.15 0.45L0.25 0.45L0.3 0.45L0.45 0.4L0.55 0.45L0.6 0.45L0.65 0.45L0.8 0.5L0.85 0.5L0.95 0.5L1.15 0.5L1.4 0.5L1.45 0.55L1.5 0.55L1.6 0.5L1.7 0.45L1.75 0.45L1.8 0.4L1.85 0.4L1.85 0.45M-1.25,-0.3L-1.3 -0.3L-1.35 -0.25L-1.35 -0.2L-1.3 -0.2L-1.25 -0.3M2.5,0L2.45 0L2.4 0.05L2.35 0.1L2.3 0.2L2.25 0.25L2.2 0.3L2.15 0.3L2.3 0.1L2.35 0L2.2 0L2.3 -0.05L2.35 -0.05L2.4 -0.15L2.45 -0.1L2.5 0" />
<path style="fill:#FF7074;fill-opacity:1" d="M-1.9,-0.5L-1.95 -0.6L-1.85 -0.6L-1.85 -0.55L-1.9 -0.55L-1.9 -0.5M-1.5,-0.3L-1.6 -0.3L-1.6 -0.35L-1.65 -0.35L-1.7 -0.35L-1.7 -0.45L-1.75 -0.5L-1.7 -0.55L-1.65 -0.5L-1.6 -0.5L-1.6 -0.45L-1.55 -0.4L-1.45 -0.4L-1.45 -0.45L-1.45 -0.4L-1.45 -0.35L-1.5 -0.3M-1.4,-0.35L-1.35 -0.3L-1.4 -0.25L-1.45 -0.25L-1.45 -0.3L-1.4 -0.35" />
<linearGradient
id="LinearGradID_676" gradientUnits="userSpaceOnUse" gradientTransform="matrix(0.00392151, 0, 0, 0.000274658, -0.5, -0.6)" spreadMethod ="pad" x1="-819.2" y1="0" x2="819.2" y2="0" >
<stop  offset="0" style="stop-color:#ED3B40;stop-opacity:1" />
<stop  offset="1" style="stop-color:#A61D24;stop-opacity:1" />
</linearGradient>
<path style="fill:url(#LinearGradID_676) " d="M2.15,0.3L2.15 0.35L2.1 0.4L1.95 0.5L1.8 0.55L1.7 0.6L1.55 0.65L1.45 0.7L1.15 0.8L0.95 0.8L0.65 0.8L0.15 0.7L0 0.7L-0.05 0.7L-0.65 0.65L-0.85 0.5L-1.4 0.05L-1.45 0L-1.7 -0.25L-1.4 0.3L-1.3 0.35L-1 0.75L-1.25 0.55L-1.3 0.5L-1.3 0.45L-1.35 0.45L-1.35 0.4L-1.55 0.15L-1.7 0L-1.8 -0.15L-1.9 -0.3L-2 -0.4L-2.1 -0.5L-2.15 -0.55L-2.25 -0.8L-2.25 -0.85L-2.2 -0.8L-2.05 -0.75L-1.9 -0.7L-2 -0.65L-2 -0.6L-1.95 -0.5L-1.95 -0.45L-1.9 -0.5L-1.9 -0.45L-1.85 -0.5L-1.8 -0.45L-1.7 -0.45L-1.7 -0.35L-1.65 -0.35L-1.65 -0.3L-1.6 -0.3L-1.5 -0.25L-1.4 -0.1L-1.2 0.05L-1.15 0.05L-0.85 0.3L-0.5 0.45L-0.25 0.5L-0.05 0.55L0.1 0.55L0.15 0.5L0.5 0.5L0.7 0.55L0.95 0.6L1.15 0.55L1.25 0.55L1.35 0.6L1.5 0.6L1.55 0.55L1.85 0.45L1.9 0.45L2 0.4L2.1 0.3L2.15 0.3M2.45,-0.1L2.4 -0.15L2.35 -0.05L2.3 -0.05L2.15 -0.1L1.95 -0.15L1.95 -0.25L2 -0.2L2.05 -0.2L2.15 -0.2L2.45 -0.2L2.55 -0.2L2.55 -0.1L2.5 -0.1L2.5 -0.05L2.5 0L2.5 0.05L2.45 0.1L2.35 0.2L2.2 0.3L2.25 0.25L2.3 0.2L2.35 0.1L2.4 0.05L2.45 0L2.5 0L2.45 -0.1M-1.75,-0.35L-1.8 -0.4L-1.8 -0.45L-1.85 -0.4L-1.75 -0.3L-1.75 -0.35" />
<linearGradient
id="LinearGradID_677" gradientUnits="userSpaceOnUse" gradientTransform="matrix(0.00253296, 0, 0, 0.000823975, 0.65, 0.5)" spreadMethod ="pad" x1="-819.2" y1="0" x2="819.2" y2="0" >
<stop  offset="0" style="stop-color:#A32A33;stop-opacity:1" />
<stop  offset="1" style="stop-color:#661726;stop-opacity:1" />
</linearGradient>
<path style="fill:url(#LinearGradID_677) " d="M2.1,-0.3L2.2 -0.3L2.4 -0.35L2.75 -0.45L2.8 -0.3L2.8 -0.25L2.8 0L2.8 0.05L2.75 0.1L2.7 0.25L2.65 0.25L2.65 0.3L2.55 0.45L2.45 0.55L2.15 0.8L2.1 0.85L2 0.9L1.7 1L1.6 1L1.45 1.05L1.15 1.1L0.5 1.15L0.25 1.15L-0.05 1.1L-0.65 0.95L-0.9 0.75L-1.4 0.15L-1.45 0.05L-1.4 0.1L-0.55 0.85L-0.55 0.75L-0.5 0.85L-0.25 0.95L-0.25 0.8L-0.2 0.95L-0.05 0.95L0.05 0.95L0.1 0.9L0.15 1L0.2 1L0.15 0.8L0.25 0.95L0.7 1L1.15 0.95L1.3 0.95L1.45 0.9L1.7 0.75L2.1 0.5L2.15 0.4L2.2 0.45L2.2 0.35L2.45 0.15L2.55 0.05L2.5 -0.05L2.6 0L2.65 -0.15L2.65 -0.25L2.55 -0.3L2.45 -0.3L2.15 -0.25L1.8 -0.3L1.7 -0.3L1.6 -0.3L1.55 -0.3L1.55 -0.35L1.6 -0.35L1.8 -0.3L1.85 -0.3L2 -0.3L2.1 -0.3M-1.35,0.4L-1.4 0.4L-2.05 -0.4L-2.15 -0.45L-2.1 -0.5L-2 -0.4L-1.9 -0.3L-1.8 -0.15L-1.7 0L-1.55 0.15L-1.35 0.4" />
<radialGradient
id="RadialGradID_678" gradientUnits="userSpaceOnUse" gradientTransform="matrix(0.00895691, 0, 0, 0.00215149, -0.95, -0.2)" spreadMethod ="pad" cx="0" cy="0" r="819.2" fx="0" fy="0" >
<stop  offset="0"  style="stop-color:#FF7A81;stop-opacity:1" />
<stop  offset="1"  style="stop-color:#E0252F;stop-opacity:1" />
</radialGradient>
<path style="fill:url(#RadialGradID_678) " d="M-1.75,-0.3L-1.85 -0.4L-1.8 -0.45L-1.8 -0.4L-1.75 -0.35L-1.75 -0.3M-1.2,0.05L-1.25 -0.05L-1.3 -0.15L-1.3 -0.2L-1.2 -0.25L-1 -0.25L-0.65 -0.05L-0.5 0L-0.4 0.1L-0.3 0.1L-0.2 0.15L-0.05 0.15L0.1 0.15L0.6 0.15L0.95 0.15L1.15 0.1L1.45 0.05L1.9 0L2.05 0L2.15 0L2.2 0L2.25 0.05L2.2 0.05L2.2 0.15L2.15 0.15L2.15 0.2L2.1 0.2L2.05 0.25L2.05 0.3L2 0.3L1.9 0.35L1.75 0.4L1.55 0.5L1.45 0.5L1.4 0.5L1.15 0.5L0.95 0.5L0.85 0.5L1 0.45L1.05 0.45L1.1 0.4L1.15 0.4L1.25 0.4L1.35 0.45L1.4 0.45L1.55 0.35L1.5 0.35L1.5 0.3L1.45 0.2L1.3 0.15L1.25 0.2L1.15 0.2L1.05 0.2L1 0.2L0.9 0.25L0.8 0.3L0.85 0.25L0.85 0.2L0.8 0.2L0.75 0.2L0.65 0.2L0.65 0.25L0.6 0.25L0.55 0.2L0.5 0.2L0.4 0.25L0.35 0.3L0.3 0.25L0.3 0.2L0.25 0.2L0.2 0.25L0.15 0.25L0.15 0.2L0.1 0.2L-0.05 0.25L-0.1 0.25L-0.1 0.2L-0.15 0.2L-0.2 0.2L-0.2 0.3L-0.3 0.3L-0.4 0.35L-0.35 0.4L-0.25 0.4L-0.2 0.4L-0.15 0.4L-0.15 0.45L-0.25 0.45L-0.4 0.4L-0.45 0.4L-0.5 0.35L-0.45 0.3L-0.45 0.2L-0.5 0.2L-0.5 0.15L-0.45 0.15L-0.4 0.15L-0.5 0.1L-0.65 0L-0.75 -0.05L-0.85 -0.05L-0.9 -0.05L-0.9 -0.1L-1.05 -0.2L-1.1 -0.2L-1.2 -0.2L-1.25 -0.15L-1.2 0L-1.2 0.05M-0.75,0.25L-1 0.1L-1.1 0.05L-1.15 -0.05L-1.2 0L-1.15 -0.1L-1.05 0.05L-1 0.05L-0.95 0L-0.9 0.15L-0.8 0.15L-0.75 0.15L-0.75 0.2L-0.65 0.3L-0.75 0.25M0.55,0.4L0.6 0.4L0.6 0.45L0.55 0.45L0.45 0.4L0.3 0.45L0.3 0.4L0.35 0.4L0.4 0.35L0.55 0.4M0.1,0.4L0.15 0.4L0.15 0.45L0.1 0.45L0 0.45L0.1 0.4M1.7,0.1L1.7 0.15L1.65 0.15L1.6 0.15L1.55 0.2L1.6 0.2L1.6 0.35L1.65 0.4L1.8 0.35L1.85 0.35L1.95 0.3L2 0.25L2.05 0.2L2.15 0.1L2.15 0.05L2.1 0.1L2.05 0.1L2.05 0.05L1.95 0.05L1.95 0.1L1.85 0.1L1.7 0.1" />
<path style="fill:#7E787C;fill-opacity:1" d="M0.45,-1.5L0.55 -1.5L0.7 -1.5L0.8 -1.4L0.8 -1.35L0.75 -1.35L0.6 -1.35L0.55 -1.4L0.45 -1.45L0.35 -1.45L0.45 -1.5M0.35,-1.45L0.3 -1.35L0.25 -1.4L0.35 -1.45" />
<path style="fill:#4E4548;fill-opacity:1" d="M0.25,-1.5L0.45 -1.5L0.35 -1.45L0.25 -1.4L0.25 -1.5M0.9,-1.4L0.8 -1.35L0.8 -1.4L0.7 -1.5L0.55 -1.5L1 -1.5L0.9 -1.4" />
<path style="fill:#9E9C9F;fill-opacity:1" d="M0.35,-1.45L0.45 -1.45L0.55 -1.4L0.6 -1.35L0.4 -1.35L0.4 -1.3L0.3 -1.35L0.35 -1.45" />
<path style="fill:#918B8F;fill-opacity:1" d="M0.25,-1.4L0.2 -1.35L0.2 -1.4L0.15 -1.45L0.25 -1.5L0.25 -1.4M-0.4,-1.45L-0.3 -1.45L-0.25 -1.4L-0.1 -1.4L-0.05 -1.4L0.1 -1.4L0 -1.35L-0.05 -1.35L-0.4 -1.35L-0.4 -1.45" />
<path style="fill:#A9AAAC;fill-opacity:1" d="M0.15,-1.45L0.2 -1.4L0.2 -1.35L0 -1.35L0.1 -1.4L0.15 -1.45" />
<linearGradient
id="LinearGradID_679" gradientUnits="userSpaceOnUse" gradientTransform="matrix(0.000350952, 0, 0, 0.000137329, 0.6, -1.05)" spreadMethod ="pad" x1="-819.2" y1="0" x2="819.2" y2="0" >
<stop  offset="0.0156863" style="stop-color:#6E3A46;stop-opacity:1" />
<stop  offset="0.980392" style="stop-color:#9D4553;stop-opacity:1" />
</linearGradient>
<path style="fill:url(#LinearGradID_679) " d="M0.8,-1.1L0.75 -1.05L0.75 -1L0.8 -1L0.85 -1L0.95 -1L1 -1L1 -0.95L0.95 -0.95L0.8 -0.95L0.65 -0.9L0.5 -0.95L0.45 -1L0.45 -1.05L0.55 -1.05L0.65 -1.1L0.8 -1.15L0.8 -1.1" />
<linearGradient
id="LinearGradID_680" gradientUnits="userSpaceOnUse" gradientTransform="matrix(0.00144958, 0, 0, 0.00062561, 1.4, -1.3)" spreadMethod ="pad" x1="-819.2" y1="0" x2="819.2" y2="0" >
<stop  offset="0" style="stop-color:#643640;stop-opacity:1" />
<stop  offset="0.329412" style="stop-color:#963D4F;stop-opacity:1" />
<stop  offset="0.980392" style="stop-color:#A55161;stop-opacity:1" />
</linearGradient>
<path style="fill:url(#LinearGradID_680) " d="M1.45,-1.3L1.7 -1.4L1.8 -1.45L2.05 -1.55L2.15 -1.6L2.45 -1.75L2.5 -1.8L2.55 -1.8L2.5 -1.75L2.45 -1.75L2.45 -1.7L2.4 -1.65L2.3 -1.6L2.25 -1.55L2.15 -1.55L2.05 -1.45L1.95 -1.45L1.7 -1.35L1.55 -1.3L1.45 -1.3M1.15,-1.2L1.05 -1.2L1 -1.2L1.15 -1.25L1.2 -1.25L1.3 -1.25L1.35 -1.25L1.15 -1.2M0.2,-0.9L0.2 -1.05L0.5 -1.1L0.75 -1.15L0.95 -1.2L0.95 -1.15L0.95 -1.1L0.9 -1.15L0.8 -1.15L0.65 -1.1L0.55 -1.05L0.45 -1.05L0.45 -1L0.5 -0.95L0.65 -0.9L0.8 -0.95L0.95 -0.95L1 -0.95L0.95 -0.9L0.95 -0.85L1 -0.8L0.95 -0.8L0.9 -0.8L0.8 -0.75L0.7 -0.8L0.55 -0.85L0.4 -0.85L0.25 -0.8L0.2 -0.9" />
<path style="fill:#562B34;fill-opacity:1" d="M0.1,-0.85L0.1 -0.9L0.1 -0.95L0.35 -1.15L0.75 -1.2L1.15 -1.25L1 -1.2L0.95 -1.2L0.75 -1.15L0.5 -1.1L0.2 -1.05L0.2 -0.9L0.1 -0.85M1.35,-1.25L1.3 -1.25L1.2 -1.25L1.45 -1.3L1.35 -1.25" />
<linearGradient
id="LinearGradID_681" gradientUnits="userSpaceOnUse" gradientTransform="matrix(0.001297, 0, 0, 0.000518799, 1.8, -1.35)" spreadMethod ="pad" x1="-819.2" y1="0" x2="819.2" y2="0" >
<stop  offset="0" style="stop-color:#B55868;stop-opacity:1" />
<stop  offset="1" style="stop-color:#E37379;stop-opacity:1" />
</linearGradient>
<path style="fill:url(#LinearGradID_681) " d="M2.65,-1.8L2.75 -1.8L2.8 -1.75L2.85 -1.6L2.75 -1.7L2.8 -1.6L2.7 -1.5L2.5 -1.5L2.45 -1.45L2.35 -1.45L2.3 -1.4L2.2 -1.35L2.15 -1.3L2.1 -1.3L2.2 -1.4L2.3 -1.45L2.45 -1.5L2.5 -1.5L2.6 -1.55L2.75 -1.65L2.7 -1.7L2.7 -1.75L2.65 -1.75L2.65 -1.8M1,-1.05L0.95 -1L0.85 -1L0.8 -1L0.75 -1L0.75 -1.05L0.8 -1.1L0.8 -1.15L0.9 -1.15L0.95 -1.1L1.05 -1.05L1.1 -1.1L1.15 -1.15L1.1 -1.15L1.1 -1.1L1.05 -1.15L1.05 -1.2L1.15 -1.2L1.35 -1.2L1.4 -1.2L1.3 -1.15L1.25 -1.15L1.15 -1.1L1.15 -1.05L1.2 -1.05L1.25 -1L1.2 -0.95L1.15 -0.95L1.05 -0.95L1 -0.95L1 -1L1 -1.05M2.4,-1.6L2.3 -1.5L2.2 -1.45L2.25 -1.5L2.4 -1.6M1.55,-1.3L1.7 -1.3L1.8 -1.3L2 -1.35L1.95 -1.3L1.8 -1.3L1.75 -1.25L1.8 -1.25L1.9 -1.25L2 -1.25L1.9 -1.2L1.85 -1.2L1.8 -1.15L1.8 -1.25L1.75 -1.2L1.75 -1.15L1.7 -1.15L1.65 -1.1L1.5 -1.05L1.35 -1L1.3 -1L1.7 -1.2L1.75 -1.25L1.7 -1.25L1.6 -1.25L1.5 -1.25L1.55 -1.3" />
<linearGradient
id="LinearGradID_682" gradientUnits="userSpaceOnUse" gradientTransform="matrix(0.00163269, 0, 0, 0.000564575, 1.15, -1.3)" spreadMethod ="pad" x1="-819.2" y1="0" x2="819.2" y2="0" >
<stop  offset="0" style="stop-color:#37171C;stop-opacity:1" />
<stop  offset="0.980392" style="stop-color:#6E3B48;stop-opacity:1" />
</linearGradient>
<path style="fill:url(#LinearGradID_682) " d="M2.15,-1.6L2.05 -1.55L1.8 -1.45L1.7 -1.4L1.45 -1.3L1.2 -1.25L1.15 -1.25L0.75 -1.2L0.35 -1.15L0.1 -0.95L0.1 -0.9L-0.05 -1L-0.1 -1L-0.15 -1.2L-0.05 -1.2L1.15 -1.3L1.3 -1.35L1.7 -1.45L2 -1.6L2.4 -1.75L2.45 -1.75L2.15 -1.6" />
<path style="fill:#554A50;fill-opacity:1" d="M-0.5,-1.45L-0.05 -1.45L0.05 -1.45L0.15 -1.45L0.1 -1.4L-0.05 -1.4L-0.1 -1.4L-0.25 -1.4L-0.3 -1.45L-0.4 -1.45L-0.4 -1.35L-0.45 -1.35L-0.5 -1.4L-0.5 -1.45" />
<linearGradient
id="LinearGradID_683" gradientUnits="userSpaceOnUse" gradientTransform="matrix(0.000350952, 0.000228882, -0.000289917, 0.000457764, -0.1, -1.3)" spreadMethod ="pad" x1="-819.2" y1="0" x2="819.2" y2="0" >
<stop  offset="0" style="stop-color:#240F14;stop-opacity:1" />
<stop  offset="0.976471" style="stop-color:#38191F;stop-opacity:1" />
</linearGradient>
<path style="fill:url(#LinearGradID_683) " d="M1.55,-1.45L1.7 -1.5L1.75 -1.5L2 -1.6L1.7 -1.45L1.3 -1.35L1.15 -1.3L-0.05 -1.2L-0.15 -1.2L-0.1 -1L-0.05 -0.95L-0.05 -0.9L0 -0.9L0.1 -0.85L0 -0.8L-0.05 -0.85L-0.1 -0.85L-0.25 -0.9L-0.3 -0.85L-0.3 -0.8L-0.25 -0.8L-0.2 -0.75L-0.1 -0.65L0.05 -0.65L0.1 -0.6L0.25 -0.6L0.4 -0.6L0.4 -0.55L0.35 -0.55L0.15 -0.55L0.05 -0.6L-0.05 -0.6L-0.1 -0.6L-0.2 -0.65Q-0.55 -0.85 -0.5 -1.1L-0.5 -1.15L-0.35 -1.25L-0.1 -1.25L-0.05 -1.25L0.95 -1.35L1 -1.35L1.15 -1.35L1.55 -1.45" />
<linearGradient
id="LinearGradID_684" gradientUnits="userSpaceOnUse" gradientTransform="matrix(0.000396729, -1.52588e-005, 1.52588e-005, 0.000320435, 0.05, -0.8)" spreadMethod ="pad" x1="-819.2" y1="0" x2="819.2" y2="0" >
<stop  offset="0" style="stop-color:#412126;stop-opacity:1" />
<stop  offset="1" style="stop-color:#5E2F39;stop-opacity:1" />
</linearGradient>
<path style="fill:url(#LinearGradID_684) " d="M0.1,-0.85L0.25 -0.7L0.45 -0.6L0.4 -0.6L0.25 -0.6L0.1 -0.6L0.05 -0.65L-0.1 -0.65L-0.2 -0.75L-0.25 -0.8L-0.3 -0.8L-0.3 -0.85L-0.25 -0.9L-0.1 -0.85L-0.05 -0.85L0 -0.8L0.1 -0.85L0 -0.9L-0.05 -0.9L-0.05 -0.95L-0.1 -1L-0.05 -1L0.1 -0.9L0.1 -0.85" />
<linearGradient
id="LinearGradID_685" gradientUnits="userSpaceOnUse" gradientTransform="matrix(0.000640869, 0, 0, 0.000427246, -0.2, -0.8)" spreadMethod ="pad" x1="-819.2" y1="0" x2="819.2" y2="0" >
<stop  offset="0" style="stop-color:#251017;stop-opacity:1" />
<stop  offset="0.988235" style="stop-color:#4B222A;stop-opacity:1" />
</linearGradient>
<path style="fill:url(#LinearGradID_685) " d="M0.35,-0.45L0.3 -0.45L0.25 -0.45L0.2 -0.45L0.1 -0.45L0 -0.45L-0.05 -0.5L-0.25 -0.55L-0.5 -0.65L-0.5 -0.75L-0.55 -0.8L-0.65 -0.85L-0.7 -0.95L-0.7 -1L-0.6 -1L-0.55 -1.1L-0.5 -1.1Q-0.55 -0.85 -0.2 -0.65L-0.1 -0.6L-0.05 -0.6L0.05 -0.6L0.15 -0.55L0.35 -0.45" />
<linearGradient
id="LinearGradID_686" gradientUnits="userSpaceOnUse" gradientTransform="matrix(0.00392151, 0, 0, 0.000274658, -0.5, -0.6)" spreadMethod ="pad" x1="-819.2" y1="0" x2="819.2" y2="0" >
<stop  offset="0" style="stop-color:#D4262E;stop-opacity:1" />
<stop  offset="1" style="stop-color:#991B2A;stop-opacity:1" />
</linearGradient>
<path style="fill:url(#LinearGradID_686) " d="M-0.25,-0.05L-0.05 0L0.05 0L0.45 0.05L0.5 0.1L0.15 0.1L-0.05 0.05L-0.8 -0.15L-0.9 -0.25L-1 -0.25L-1 -0.3L-1.2 -0.35L-1.4 -0.4L-1.4 -0.45L-1.45 -0.4L-1.45 -0.45L-1.45 -0.4L-1.55 -0.4L-1.5 -0.5L-1.5 -0.55L-1.4 -0.5L-1.2 -0.4L-1 -0.35L-0.9 -0.3L-0.8 -0.25L-0.55 -0.25L-0.4 -0.2L-0.3 -0.15L-0.3 -0.1L-0.25 -0.05" />
<linearGradient
id="LinearGradID_687" gradientUnits="userSpaceOnUse" gradientTransform="matrix(0.000534058, 0, 0, 0.000259399, -0.25, -0.45)" spreadMethod ="pad" x1="-819.2" y1="0" x2="819.2" y2="0" >
<stop  offset="0.00784314" style="stop-color:#472E32;stop-opacity:1" />
<stop  offset="0.972549" style="stop-color:#663B44;stop-opacity:1" />
</linearGradient>
<path style="fill:url(#LinearGradID_687) " d="M0.1,-0.4L0.15 -0.3L0.05 -0.3L0.1 -0.25L0.05 -0.25L0 -0.3L-0.05 -0.35L-0.1 -0.35L-0.2 -0.45L-0.35 -0.5L-0.5 -0.55L-0.65 -0.6L-0.65 -0.5L-0.7 -0.5Q-0.8 -0.75 -0.6 -0.65L-0.45 -0.55L-0.3 -0.5L-0.15 -0.5L-0.05 -0.45L0 -0.45L0.1 -0.45L0.1 -0.4" />
<linearGradient
id="LinearGradID_688" gradientUnits="userSpaceOnUse" gradientTransform="matrix(0.000411987, 0, 0, 0.000228882, -0.3, -0.45)" spreadMethod ="pad" x1="-819.2" y1="0" x2="819.2" y2="0" >
<stop  offset="0.00784314" style="stop-color:#5A474D;stop-opacity:1" />
<stop  offset="0.972549" style="stop-color:#906B73;stop-opacity:1" />
</linearGradient>
<path style="fill:url(#LinearGradID_688) " d="M-0.65,-0.5L-0.65 -0.6L-0.5 -0.55L-0.35 -0.5L-0.2 -0.45L-0.1 -0.35L-0.05 -0.35L0 -0.3L-0.05 -0.3L-0.1 -0.25L-0.5 -0.45L-0.65 -0.5" />
<linearGradient
id="LinearGradID_689" gradientUnits="userSpaceOnUse" gradientTransform="matrix(0.000717163, 0, 0, 0.000305176, -0.35, -0.55)" spreadMethod ="pad" x1="-819.2" y1="0" x2="819.2" y2="0" >
<stop  offset="0" style="stop-color:#23161F;stop-opacity:1" />
<stop  offset="0.972549" style="stop-color:#523138;stop-opacity:1" />
</linearGradient>
<path style="fill:url(#LinearGradID_689) " d="M-0.8,-0.6L-0.95 -0.75L-0.9 -0.8L-0.8 -0.8L-0.5 -0.65L-0.25 -0.55L-0.05 -0.5L0 -0.45L-0.05 -0.45L-0.15 -0.5L-0.3 -0.5L-0.45 -0.55L-0.6 -0.65Q-0.8 -0.75 -0.7 -0.5L-0.8 -0.6M0.15,-0.3L0.1 -0.4L0.1 -0.45L0.2 -0.35L0.2 -0.3L0.15 -0.3" />
<path style="fill:#CDA3A5;fill-opacity:1" d="M0.4,-0.2L0.45 -0.2L0.65 -0.25L0.7 -0.25L0.75 -0.25L0.8 -0.2L0.75 -0.2L0.05 -0.2L0 -0.2L-0.1 -0.25L-0.05 -0.3L0 -0.3L0.05 -0.25L0.1 -0.25L0.25 -0.25L0.4 -0.2" />
<path style="fill:#3D2229;fill-opacity:1" d="M-0.8,-0.6L-0.7 -0.5L-0.65 -0.5L-0.5 -0.45L-0.1 -0.25L0 -0.2L-0.05 -0.2L-0.4 -0.35L-0.9 -0.5L-0.8 -0.6" />
<path style="fill:#81172D;fill-opacity:1" d="M0.9,-0.2L1 -0.2L0 -0.15L-0.05 -0.2L0 -0.2L0.05 -0.2L0.75 -0.2L0.8 -0.2L0.9 -0.2" />
<path style="fill:#62393F;fill-opacity:1" d="M0.2,-0.3L0.2 -0.35L0.3 -0.3L0.4 -0.2L0.25 -0.25L0.1 -0.25L0.05 -0.3L0.15 -0.3L0.2 -0.3" />
<linearGradient
id="LinearGradID_690" gradientUnits="userSpaceOnUse" gradientTransform="matrix(0.000488281, 0, 0, 0.000106812, 0.65, -0.75)" spreadMethod ="pad" x1="-819.2" y1="0" x2="819.2" y2="0" >
<stop  offset="0" style="stop-color:#743643;stop-opacity:1" />
<stop  offset="0.964706" style="stop-color:#B54F5D;stop-opacity:1" />
</linearGradient>
<path style="fill:url(#LinearGradID_690) " d="M1.05,-0.7L0.9 -0.65L0.7 -0.75L0.45 -0.8L0.4 -0.8L0.45 -0.65L0.25 -0.8L0.4 -0.85L0.55 -0.85L0.7 -0.8L0.8 -0.75L0.9 -0.8L0.95 -0.8L1.05 -0.7" />
<linearGradient
id="LinearGradID_691" gradientUnits="userSpaceOnUse" gradientTransform="matrix(0.00187683, 0, 0, 0.00062561, 1.65, -1)" spreadMethod ="pad" x1="-819.2" y1="0" x2="819.2" y2="0" >
<stop  offset="0" style="stop-color:#693641;stop-opacity:1" />
<stop  offset="0.317647" style="stop-color:#964453;stop-opacity:1" />
<stop  offset="0.768627" style="stop-color:#9E4757;stop-opacity:1" />
<stop  offset="0.988235" style="stop-color:#88414F;stop-opacity:1" />
</linearGradient>
<path style="fill:url(#LinearGradID_691) " d="M1.95,-0.65L2.15 -0.75L2.25 -0.8L2.35 -0.9L2.45 -0.95L2.5 -1L2.6 -1.05L2.65 -1.1L2.75 -1.15L2.75 -1.2L2.9 -1.35L3 -1.4L3.1 -1.4L3.15 -1.45L3.15 -1.55L3.2 -1.5L3.2 -1.45L3.15 -1.25L3.1 -1.25L3 -1.3L3 -1.35L2.9 -1.25L2.8 -1.15L2.7 -1.1L2.65 -1.05L2.55 -0.95L2.45 -0.85L2.45 -0.8L2.25 -0.7L2.15 -0.7L2.05 -0.65L1.95 -0.65M0.2,-0.9L0.25 -0.8L0.45 -0.65L0.85 -0.6L1.15 -0.6L1.2 -0.6L1.3 -0.6L1.4 -0.6L1.45 -0.65L1.6 -0.65L1.7 -0.7L1.75 -0.75L1.8 -0.65L1.85 -0.65L1.95 -0.65L1.75 -0.6L1.7 -0.6L1.45 -0.55L1.4 -0.55L1.3 -0.55L1.2 -0.55L1.15 -0.55L1.05 -0.55L0.95 -0.5L0.9 -0.5L0.8 -0.5L0.7 -0.55L0.65 -0.55L0.45 -0.6L0.25 -0.7L0.1 -0.85L0.2 -0.9" />
<path style="fill:#51242B;fill-opacity:1" d="M2.05,-0.65L1.95 -0.55L1.9 -0.55L1.75 -0.5L1.65 -0.5L1.6 -0.45L1.5 -0.45L1.45 -0.4L1.3 -0.45L1.25 -0.45L1.35 -0.35L1.3 -0.3L1.25 -0.3L1.15 -0.25L1.2 -0.3L1.2 -0.35L1.15 -0.4L1.15 -0.45L1.1 -0.45L1.05 -0.45L1.05 -0.35L0.95 -0.35L0.8 -0.45L0.75 -0.45L0.75 -0.35L0.8 -0.35L0.75 -0.3L0.65 -0.4L0.6 -0.45L0.6 -0.5L0.8 -0.5L0.6 -0.55L0.4 -0.6L0.45 -0.6L0.65 -0.55L0.7 -0.55L0.8 -0.5L0.9 -0.5L1.15 -0.5L1.3 -0.5L1.4 -0.55L1.45 -0.55L1.6 -0.55L1.7 -0.55L1.75 -0.55L1.9 -0.55L2.05 -0.65" />
<path style="fill:#492028;fill-opacity:1" d="M0.6,-0.55L0.8 -0.5L0.6 -0.5L0.6 -0.45L0.55 -0.45L0.4 -0.45L0.35 -0.45L0.15 -0.55L0.35 -0.55L0.4 -0.55L0.4 -0.6L0.6 -0.55" />
<linearGradient
id="LinearGradID_692" gradientUnits="userSpaceOnUse" gradientTransform="matrix(0.00132751, 0, 0, 0.000198364, 0.55, -0.8)" spreadMethod ="pad" x1="-819.2" y1="0" x2="819.2" y2="0" >
<stop  offset="0" style="stop-color:#7F3A47;stop-opacity:1" />
<stop  offset="1" style="stop-color:#D16270;stop-opacity:1" />
</linearGradient>
<path style="fill:url(#LinearGradID_692) " d="M2.25,-0.8L2.15 -0.75L1.95 -0.65L1.85 -0.65L1.8 -0.65L1.75 -0.75L1.7 -0.7L1.6 -0.65L1.45 -0.65L1.4 -0.6L1.3 -0.6L1.2 -0.6L1.15 -0.6L0.85 -0.6L0.45 -0.65L0.4 -0.8L0.45 -0.8L0.7 -0.75L0.9 -0.65L1.05 -0.7L1.15 -0.7L1.2 -0.75L1.45 -0.8L1.5 -0.8L1.55 -0.75L1.7 -0.85L1.85 -0.9L1.85 -0.85L1.9 -0.8L2.1 -0.85L2.15 -0.85L2.3 -0.9L2.35 -0.9L2.25 -0.8" />
<path style="fill:#572C33;fill-opacity:1" d="M0.25,-0.4L0.35 -0.35L0.4 -0.3L0.45 -0.25L0.55 -0.25L0.65 -0.25L0.45 -0.2L0.4 -0.2L0.3 -0.3L0.2 -0.35L0.1 -0.45L0.2 -0.45L0.25 -0.45L0.25 -0.4" />
<linearGradient
id="LinearGradID_693" gradientUnits="userSpaceOnUse" gradientTransform="matrix(0.000305176, 0, 0, 0.000137329, 0.45, -0.35)" spreadMethod ="pad" x1="-819.2" y1="0" x2="819.2" y2="0" >
<stop  offset="0" style="stop-color:#3A1A1F;stop-opacity:1" />
<stop  offset="0.972549" style="stop-color:#452027;stop-opacity:1" />
</linearGradient>
<path style="fill:url(#LinearGradID_693) " d="M0.7,-0.25L0.65 -0.3L0.6 -0.3L0.5 -0.35L0.45 -0.35L0.3 -0.45L0.35 -0.45L0.4 -0.45L0.55 -0.45L0.6 -0.45L0.65 -0.4L0.75 -0.3L0.7 -0.25" />
<path style="fill:#562F34;fill-opacity:1" d="M0.65,-0.3L0.7 -0.25L0.65 -0.25L0.6 -0.3L0.5 -0.3L0.45 -0.35L0.35 -0.35L0.25 -0.4L0.25 -0.45L0.3 -0.45L0.45 -0.35L0.5 -0.35L0.6 -0.3L0.65 -0.3" />
<path style="fill:#693F43;fill-opacity:1" d="M0.45,-0.35L0.5 -0.3L0.6 -0.3L0.65 -0.25L0.55 -0.25L0.45 -0.25L0.4 -0.3L0.35 -0.35L0.45 -0.35" />
<path style="fill:#8B4D58;fill-opacity:1" d="M0.85,-0.25L0.8 -0.2L0.75 -0.25L0.7 -0.25L0.75 -0.3L0.85 -0.3L0.9 -0.25L0.85 -0.25" />
<path style="fill:#79444E;fill-opacity:1" d="M0.75,-0.35L0.75 -0.45L0.8 -0.35L0.75 -0.35M0.9,-0.3L0.9 -0.25L0.85 -0.3L0.75 -0.3L0.8 -0.35L0.85 -0.35L0.9 -0.3" />
<path style="fill:#723A45;fill-opacity:1" d="M0.8,-0.45L0.85 -0.35L0.8 -0.35L0.75 -0.45L0.8 -0.45M0.9,-0.25L0.9 -0.3L0.85 -0.35L0.9 -0.35L0.95 -0.3L0.9 -0.25L0.9 -0.2L0.8 -0.2L0.85 -0.25L0.9 -0.25" />
<path style="fill:#594E54;fill-opacity:1" d="M-0.55,-1.3L-0.55 -1.2L-0.7 -1.45L-0.85 -1.4L-0.9 -1.35L-0.95 -1.45L-0.7 -1.45L-0.65 -1.45L-0.55 -1.3" />
<path style="fill:#2D2A31;fill-opacity:1" d="M-0.65,-1.45L-0.5 -1.45L-0.5 -1.4L-0.55 -1.3L-0.65 -1.45" />
<path style="fill:#A7A7B1;fill-opacity:1" d="M-0.55,-1.2L-0.6 -1.2L-0.65 -1.1L-0.9 -1.35L-0.85 -1.4L-0.7 -1.45L-0.55 -1.2M-0.75,-1.35L-0.8 -1.35L-0.65 -1.15L-0.65 -1.2L-0.7 -1.3L-0.75 -1.4L-0.75 -1.35" />
<path style="fill:#F7FAFF;fill-opacity:1" d="M-0.75,-1.4L-0.7 -1.3L-0.65 -1.2L-0.65 -1.15L-0.8 -1.35L-0.75 -1.35L-0.75 -1.4" />
<path style="fill:#261D22;fill-opacity:1" d="M-1.35,-0.7L-1.3 -0.85L-1.2 -0.9L-1.15 -0.95L-1.05 -0.95L-1.05 -0.9L-1.1 -0.8L-1.15 -0.7L-1.35 -0.7" />
<path style="fill:#2F2526;fill-opacity:1" d="M-1.4,-0.65L-1.4 -0.7L-1.35 -0.7L-1.15 -0.7L-1.05 -0.7L-0.95 -0.65L-0.85 -0.55L-0.95 -0.55L-0.95 -0.6L-0.95 -0.65L-1.05 -0.65L-1.15 -0.65L-1.3 -0.7L-1.35 -0.7L-1.4 -0.65" />
<path style="fill:#41282E;fill-opacity:1" d="M-1.35,-0.7L-1.3 -0.7L-1.15 -0.65L-1.05 -0.65L-0.95 -0.65L-0.95 -0.6L-0.95 -0.55L-1 -0.55L-1.05 -0.55L-1.1 -0.6L-1.2 -0.6L-1.4 -0.65L-1.35 -0.7M-0.95,-0.6L-1 -0.6L-1 -0.55L-0.95 -0.6" />
<path style="fill:#FFACB4;fill-opacity:1" d="M-1.45,-0.35L-1.4 -0.35L-1.45 -0.3L-1.5 -0.3L-1.45 -0.35" />
<path style="fill:#FFC4C9;fill-opacity:1" d="M-0.55,0.1L-0.65 0.05L-0.7 0.05L-0.75 0.1L-0.8 0.1L-0.8 0.15L-0.9 0.15L-0.95 0L-1 0.05L-1.05 0.05L-1.15 -0.1L-1.2 0L-1.25 -0.15L-1.2 -0.2L-1.1 -0.2L-1.05 -0.2L-0.9 -0.1L-0.9 -0.05L-0.85 -0.05L-0.75 -0.05L-0.65 0L-0.5 0.1L-0.4 0.15L-0.45 0.15L-0.55 0.1M-0.55,0.2L-0.55 0.15L-0.5 0.15L-0.5 0.2L-0.55 0.2M-0.15,0.2L-0.1 0.2L-0.1 0.25L-0.05 0.25L0.1 0.2L0.15 0.2L0.15 0.25L0.15 0.35L0.1 0.4L0 0.45L-0.05 0.45L-0.15 0.45L-0.15 0.4L-0.1 0.4L-0.05 0.45L0 0.4L0.1 0.4L0.1 0.25L0.05 0.25L0 0.3L-0.05 0.25L-0.05 0.3L-0.1 0.35L-0.1 0.25L-0.15 0.2M-0.2,0.35L-0.2 0.4L-0.25 0.4L-0.2 0.35M-0.35,0.35L-0.35 0.4L-0.4 0.35L-0.3 0.3L-0.35 0.35M1.4,0.45L1.3 0.4L1.25 0.4L1.15 0.4L1.1 0.4L1.05 0.45L1 0.45L0.95 0.45L1 0.4L1.05 0.45L1.05 0.4L1.1 0.3L1.05 0.25L1.05 0.2L1.1 0.3L1.15 0.25L1.3 0.2L1.35 0.25L1.35 0.3L1.45 0.4L1.4 0.45M-0.7,0.1L-0.65 0.1L-0.65 0.3L-0.75 0.2L-0.75 0.15L-0.7 0.1M-0.9,0L-0.9 0.05L-0.85 0L-0.85 0.1L-0.8 0.05L-0.75 0.05L-0.75 0L-0.85 0L-0.85 -0.05L-0.9 0M-1,-0.1L-1.05 -0.1L-1.1 -0.05L-1.05 0L-1 0L-0.95 -0.05L-1 -0.05L-1 -0.1M0.4,0.35L0.45 0.25L0.55 0.25L0.55 0.4L0.4 0.35M0.65,0.4L0.7 0.35L0.75 0.3L0.8 0.3L0.85 0.35L0.85 0.4L0.9 0.4L0.95 0.4L0.95 0.45L0.85 0.45L0.65 0.45L0.6 0.45L0.6 0.4L0.6 0.35L0.65 0.4M1.7,0.3L1.65 0.2L1.7 0.2L1.75 0.25L1.75 0.3L1.7 0.3" />
<path style="fill:#FFE8E0;fill-opacity:1" d="M-1.3,-0.2L-1.35 -0.2L-1.35 -0.25L-1.3 -0.3L-1.25 -0.3L-1.3 -0.2" />
<path style="fill:#706164;fill-opacity:1" d="M-1,-0.55L-1 -0.6L-0.95 -0.6L-1 -0.55" />
<path style="fill:#FDF6FE;fill-opacity:1" d="M-0.65,0.3L-0.65 0.1L-0.7 0.1L-0.75 0.15L-0.8 0.15L-0.8 0.1L-0.75 0.1L-0.7 0.05L-0.65 0.05L-0.55 0.1L-0.45 0.15L-0.5 0.15L-0.55 0.15L-0.55 0.2L-0.6 0.25L-0.65 0.3M-0.1,0.25L-0.1 0.35L-0.05 0.3L-0.05 0.25L0 0.3L0.05 0.25L0.1 0.25L0.1 0.4L0 0.4L-0.05 0.45L-0.1 0.4L-0.15 0.4L-0.2 0.4L-0.2 0.35L-0.25 0.4L-0.35 0.4L-0.35 0.35L-0.3 0.3L-0.2 0.3L-0.2 0.2L-0.15 0.2L-0.1 0.25M0.75,0.25L0.75 0.3L0.7 0.35L0.65 0.4L0.6 0.35L0.6 0.3L0.65 0.3L0.65 0.25L0.65 0.2L0.75 0.2L0.75 0.25M1.1,0.3L1.05 0.4L1.05 0.45L1 0.4L0.95 0.45L0.95 0.4L0.9 0.4L0.95 0.3L1 0.2L1.05 0.2L1.05 0.25L1.1 0.3M-0.5,0.2L-0.5 0.3L-0.55 0.3L-0.55 0.25L-0.5 0.2M-0.85,-0.05L-0.85 0L-0.75 0L-0.75 0.05L-0.8 0.05L-0.85 0.1L-0.85 0L-0.9 0.05L-0.9 0L-0.85 -0.05M-1,-0.05L-0.95 -0.05L-1 0L-1.05 0L-1.1 -0.05L-1.05 -0.1L-1 -0.1L-1 -0.05M0.2,0.3L0.25 0.3L0.25 0.25L0.3 0.3L0.3 0.4L0.2 0.4L0.2 0.3" />
<path style="fill:#FFD1D5;fill-opacity:1" d="M-0.65,0.3L-0.6 0.25L-0.55 0.2L-0.5 0.2L-0.45 0.2L-0.45 0.3L-0.5 0.35L-0.65 0.3M-0.55,0.25L-0.55 0.3L-0.5 0.3L-0.5 0.2L-0.55 0.25" />
<linearGradient
id="LinearGradID_694" gradientUnits="userSpaceOnUse" gradientTransform="matrix(0.00268555, 0, 0, 0.000808716, 0.5, 0.35)" spreadMethod ="pad" x1="-819.2" y1="0" x2="819.2" y2="0" >
<stop  offset="0" style="stop-color:#C42434;stop-opacity:1" />
<stop  offset="0.552941" style="stop-color:#A1202C;stop-opacity:1" />
<stop  offset="1" style="stop-color:#871C2B;stop-opacity:1" />
</linearGradient>
<path style="fill:url(#LinearGradID_694) " d="M-1.3,0.35L-1.4 0.3L-1.7 -0.25L-1.45 0L-1.4 0.05L-0.85 0.5L-0.65 0.65L-0.05 0.7L0 0.7L0.15 0.7L0.65 0.8L0.95 0.8L1.15 0.8L1.45 0.7L1.55 0.65L1.7 0.6L1.8 0.55L1.95 0.5L2.1 0.4L2.15 0.35L2.15 0.3L2.2 0.3L2.35 0.2L2.45 0.1L2.5 0.05L2.5 0L2.5 -0.05L2.55 0.05L2.45 0.15L2.2 0.35L2.2 0.45L2.15 0.4L2.1 0.5L1.7 0.75L1.45 0.9L1.3 0.95L1.15 0.95L0.7 1L0.25 0.95L0.15 0.8L0.2 1L0.15 1L0.1 0.9L0.05 0.95L-0.05 0.95L-0.2 0.95L-0.25 0.8L-0.25 0.95L-0.5 0.85L-0.55 0.75L-0.55 0.85L-1.4 0.1L-1.45 0.05L-1.4 0.15L-0.9 0.75L-0.65 0.95L-0.95 0.75L-1 0.75L-1.3 0.35M2.5,-0.1L2.55 -0.1L2.55 -0.2L2.45 -0.2L2.15 -0.2L2.05 -0.2L2 -0.2L1.95 -0.25L1.7 -0.25L1.6 -0.25L1.45 -0.25L1.55 -0.3L1.6 -0.3L1.7 -0.3L1.8 -0.3L2.15 -0.25L2.45 -0.3L2.55 -0.3L2.65 -0.25L2.65 -0.15L2.6 0L2.5 -0.05L2.5 -0.1" />
<linearGradient
id="LinearGradID_695" gradientUnits="userSpaceOnUse" gradientTransform="matrix(0.0017395, 0, 0, 0.000213623, 1.35, -0.05)" spreadMethod ="pad" x1="-819.2" y1="0" x2="819.2" y2="0" >
<stop  offset="0" style="stop-color:#A31A27;stop-opacity:1" />
<stop  offset="0.615686" style="stop-color:#C73540;stop-opacity:1" />
<stop  offset="1" style="stop-color:#9C1925;stop-opacity:1" />
</linearGradient>
<path style="fill:url(#LinearGradID_695) " d="M2.15,-0.1L2.3 -0.05L2.2 0L2.15 0L2.1 -0.05L2.05 -0.05L1.85 -0.1L1.35 0L1.15 0.05L0.65 0.1L0.55 0.1L0.5 0.1L0.45 0.05L0.05 0L-0.05 0L-0.25 -0.05L-0.3 -0.1L-0.05 -0.05L0.55 0L1.4 -0.15L1.45 -0.15L1.45 -0.2L1.55 -0.2L1.7 -0.2L1.75 -0.2L1.85 -0.2L1.95 -0.15L2.15 -0.1" />
<path style="fill:#FFB2BB;fill-opacity:1" d="M0.75,0.25L0.75 0.2L0.8 0.2L0.75 0.25M0.6,0.3L0.65 0.25L0.65 0.3L0.6 0.3" />
<path style="fill:#FF878A;fill-opacity:1" d="M0.2,0.25L0.25 0.2L0.3 0.2L0.3 0.25L0.35 0.3L0.4 0.25L0.5 0.2L0.55 0.2L0.6 0.25L0.65 0.25L0.6 0.3L0.6 0.35L0.6 0.4L0.55 0.4L0.55 0.25L0.45 0.25L0.4 0.35L0.35 0.4L0.3 0.4L0.3 0.3L0.25 0.25L0.25 0.3L0.2 0.3L0.2 0.25M0.95,0.3L0.9 0.4L0.85 0.4L0.85 0.35L0.8 0.3L0.75 0.3L0.75 0.25L0.8 0.2L0.85 0.2L0.85 0.25L0.8 0.3L0.9 0.25L1 0.2L0.95 0.3M1.45,0.4L1.35 0.3L1.35 0.25L1.3 0.2L1.15 0.25L1.1 0.3L1.05 0.2L1.15 0.2L1.25 0.2L1.3 0.15L1.45 0.2L1.5 0.3L1.5 0.35L1.55 0.35L1.4 0.45L1.35 0.45L1.25 0.4L1.3 0.4L1.4 0.45L1.45 0.4M1,0.45L0.85 0.5L0.8 0.5L0.65 0.45L0.85 0.45L0.95 0.45L1 0.45M0.3,0.4L0.3 0.45L0.25 0.45L0.2 0.4L0.3 0.4" />
<path style="fill:#ED7E85;fill-opacity:1" d="M0.15,0.45L0.15 0.4L0.1 0.4L0.15 0.35L0.15 0.25L0.2 0.25L0.2 0.3L0.2 0.4L0.25 0.45L0.15 0.45" />
<path style="fill:#D96A6D;fill-opacity:1" d="M1.05,-2.25L1.1 -2.3L1.2 -2.3L1.25 -2.3L1.25 -2.25L1.25 -2.15L1.15 -2.1L1.1 -2.15L1.05 -2.2L1.05 -2.25" />
<path style="fill:#DE5B62;fill-opacity:1" d="M1.2,-2.3L1.1 -2.3L1.05 -2.25L1.05 -2.2L1.05 -2.3L1.1 -2.35L1.15 -2.35L1.2 -2.3" />
<path style="fill:#BA575A;fill-opacity:1" d="M1.6,-2.15L1.6 -2.1L1.4 -2.15L1.25 -2.1L1.2 -2L1.1 -2L1.05 -2.05L1.05 -2.2L1.1 -2.15L1.15 -2.1L1.25 -2.15L1.25 -2.25L1.25 -2.3L1.3 -2.3L1.4 -2.25L1.5 -2.2L1.6 -2.15" />
<linearGradient
id="LinearGradID_696" gradientUnits="userSpaceOnUse" gradientTransform="matrix(0.000518799, 0, 0, 0.000198364, 1.45, -2)" spreadMethod ="pad" x1="-819.2" y1="0" x2="819.2" y2="0" >
<stop  offset="0" style="stop-color:#8C3A40;stop-opacity:1" />
<stop  offset="1" style="stop-color:#9C4C52;stop-opacity:1" />
</linearGradient>
<path style="fill:url(#LinearGradID_696) " d="M1.55,-2.2L1.7 -2.05L1.9 -1.85L1.7 -1.95L1.5 -2.05L1.45 -2.05L1.25 -2L1.2 -1.95L1.1 -1.95L1.05 -1.95L1.05 -2.05L1.1 -2L1.2 -2L1.25 -2.1L1.4 -2.15L1.6 -2.1L1.6 -2.15L1.55 -2.2" />
<radialGradient
id="RadialGradID_697" gradientUnits="userSpaceOnUse" gradientTransform="matrix(0.000915527, 0, 0, 0.000915527, 1.2, -1.95)" spreadMethod ="pad" cx="0" cy="0" r="819.2" fx="0" fy="0" >
<stop  offset="0"  style="stop-color:#7A2125;stop-opacity:1" />
<stop  offset="1"  style="stop-color:#63282F;stop-opacity:1" />
</radialGradient>
<path style="fill:url(#RadialGradID_697) " d="M1.9,-2L1.95 -1.9L1.95 -1.8L1.9 -1.8L1.75 -1.8L1.7 -1.8L1.55 -1.8L1.5 -1.85L1.4 -1.9L1.3 -1.9L1.2 -1.85L1.1 -1.85L1.1 -1.9L1.1 -1.95L1.2 -1.95L1.25 -2L1.3 -2L1.5 -1.95L1.65 -1.9L1.7 -1.9L1.9 -1.85L1.9 -1.9L1.95 -1.9L1.9 -1.95L1.7 -2.1L1.65 -2.15L1.55 -2.2L1.7 -2.15L1.8 -2.1L1.9 -2" />
<path style="fill:#80353D;fill-opacity:1" d="M1.9,-1.9L1.9 -1.85L1.7 -1.9L1.65 -1.9L1.5 -1.95L1.3 -2L1.25 -2L1.45 -2.05L1.5 -2.05L1.7 -1.95L1.9 -1.85L1.7 -2.05L1.55 -2.2L1.65 -2.15L1.7 -2.1L1.9 -1.95L1.95 -1.9L1.9 -1.9" />
<path style="fill:#5E0617;fill-opacity:1" d="M2.05,-1.8L1.95 -1.9L1.9 -2L1.8 -2.1L1.85 -2.1L2.05 -1.95L2.05 -1.8" />
<path style="fill:#84404B;fill-opacity:1" d="M1.5,-2.2L1.55 -2.2L1.6 -2.15L1.5 -2.2" />
<linearGradient
id="LinearGradID_698" gradientUnits="userSpaceOnUse" gradientTransform="matrix(0.000961304, 0, 0, 0.00038147, 1.85, -1.5)" spreadMethod ="pad" x1="-819.2" y1="0" x2="819.2" y2="0" >
<stop  offset="0" style="stop-color:#B15867;stop-opacity:1" />
<stop  offset="0.980392" style="stop-color:#C56573;stop-opacity:1" />
</linearGradient>
<path style="fill:url(#LinearGradID_698) " d="M2.25,-1.5L2.2 -1.45L2.15 -1.45L2.05 -1.35L2 -1.35L1.8 -1.3L1.7 -1.3L1.55 -1.3L1.7 -1.35L1.95 -1.45L2.05 -1.45L2.15 -1.55L2.25 -1.55L2.3 -1.6L2.4 -1.65L2.45 -1.7L2.45 -1.75L2.5 -1.75L2.55 -1.8L2.65 -1.8L2.65 -1.75L2.5 -1.7L2.45 -1.65L2.4 -1.6L2.25 -1.5M1.35,-1.25L1.45 -1.3L1.55 -1.3L1.5 -1.25L1.45 -1.25L1.4 -1.2L1.35 -1.2L1.15 -1.2L1.35 -1.25" />
<linearGradient
id="LinearGradID_699" gradientUnits="userSpaceOnUse" gradientTransform="matrix(0.000961304, -0.000213623, 7.62939e-005, 0.000335693, 1.95, -1.4)" spreadMethod ="pad" x1="-819.2" y1="0" x2="819.2" y2="0" >
<stop  offset="0" style="stop-color:#DB677A;stop-opacity:1" />
<stop  offset="1" style="stop-color:#F08890;stop-opacity:1" />
</linearGradient>
<path style="fill:url(#LinearGradID_699) " d="M1.2,-1.1L1.15 -1.1L1.25 -1.15L1.3 -1.15L1.4 -1.2L1.45 -1.25L1.5 -1.25L1.6 -1.25L1.7 -1.25L1.75 -1.25L1.7 -1.2L1.3 -1L1.3 -1.05L1.25 -1.05L1.25 -1L1.2 -1.05L1.2 -1.1M2.05,-1.3L2 -1.25L1.9 -1.25L1.8 -1.25L1.75 -1.25L1.8 -1.3L1.95 -1.3L2 -1.35L2.05 -1.35L2.15 -1.45L2.2 -1.45L2.3 -1.5L2.4 -1.6L2.45 -1.65L2.5 -1.7L2.65 -1.75L2.7 -1.75L2.7 -1.7L2.75 -1.65L2.6 -1.55L2.5 -1.5L2.45 -1.5L2.3 -1.45L2.2 -1.4L2.1 -1.3L2.05 -1.3M1.35,-1.15L1.35 -1.1L1.4 -1.1L1.4 -1.15L1.35 -1.15" />
<linearGradient
id="LinearGradID_700" gradientUnits="userSpaceOnUse" gradientTransform="matrix(0.001297, 0, 0, 0.000595093, 2, -1.3)" spreadMethod ="pad" x1="-819.2" y1="0" x2="819.2" y2="0" >
<stop  offset="0" style="stop-color:#A5485A;stop-opacity:1" />
<stop  offset="0.521569" style="stop-color:#C0465B;stop-opacity:1" />
<stop  offset="1" style="stop-color:#D16E76;stop-opacity:1" />
</linearGradient>
<path style="fill:url(#LinearGradID_700) " d="M2.2,-1L2.25 -1L2.45 -1.1L2.45 -1.15L2.5 -1.15L2.6 -1.2L2.7 -1.3L2.65 -1.4L2.55 -1.45L2.45 -1.45L2.4 -1.4L2.3 -1.4L2.3 -1.35L2.25 -1.35L2.2 -1.35L2.3 -1.4L2.35 -1.45L2.45 -1.45L2.5 -1.5L2.7 -1.5L2.8 -1.6L2.75 -1.7L2.85 -1.6L2.8 -1.75L2.75 -1.8L3.05 -1.65L3.05 -1.6L3 -1.5L2.95 -1.5L2.9 -1.45L2.8 -1.45L2.75 -1.4L2.7 -1.25L2.6 -1.15L2.5 -1.1L2.45 -1.1L2.45 -1.05L2.3 -1L2.15 -0.95L2.2 -1M1.05,-0.95L1.15 -0.95L1.2 -0.95L1.25 -1L1.3 -1L1.35 -1L1.5 -1.05L1.65 -1.1L1.65 -1.05L1.6 -1L1.65 -1L1.7 -0.95L1.8 -1L1.9 -1L1.95 -1L2 -0.95L1.95 -0.95L1.85 -0.95L1.7 -0.95L1.5 -0.9L1.25 -0.8L1.1 -0.85L1 -0.8L0.95 -0.85L0.95 -0.9L1 -0.95L1.05 -0.9L1.05 -0.95M2.1,-1.25L2.05 -1.25L2.05 -1.2L2 -1.2L1.95 -1.2L1.85 -1.15L1.8 -1.15L1.85 -1.2L1.9 -1.2L2 -1.25L2.05 -1.3L2.1 -1.3L2.15 -1.3L2.1 -1.25M1.2,-0.95L1.2 -0.9L1.25 -0.95L1.2 -0.95M1.3,-0.95L1.3 -0.9L1.4 -0.9L1.4 -0.95L1.3 -0.95" />
<path style="fill:#7B2A39;fill-opacity:1" d="M3.2,-1.25L3.1 -1.2L3 -1.2L2.9 -1.15L2.6 -0.95L2.55 -0.9L2.45 -0.8L2.2 -0.65L2.15 -0.65L2.05 -0.65L2.15 -0.7L2.25 -0.7L2.45 -0.8L2.45 -0.85L2.55 -0.95L2.65 -1.05L2.7 -1.1L2.8 -1.15L2.9 -1.25L3 -1.35L3 -1.3L3.1 -1.25L3.15 -1.25L3.2 -1.45L3.2 -1.35L3.2 -1.25M1.3,-0.5L1.15 -0.5L0.9 -0.5L0.95 -0.5L1.05 -0.55L1.15 -0.55L1.2 -0.55L1.3 -0.55L1.4 -0.55L1.3 -0.5M1.9,-0.55L1.75 -0.55L1.7 -0.55L1.6 -0.55L1.45 -0.55L1.7 -0.6L1.75 -0.6L1.95 -0.65L2.05 -0.65L1.9 -0.55" />
<path style="fill:#AB5360;fill-opacity:1" d="M3,-1.5L3.05 -1.6L3.05 -1.65L3.15 -1.55L3.15 -1.45L3.1 -1.4L3 -1.4L3 -1.5" />
<path style="fill:#411E24;fill-opacity:1" d="M3.25,-1.15L3.25 -1.05L3.15 -1L3.05 -0.85L2.9 -0.65L2.8 -0.55L2.8 -0.65L2.85 -0.75L2.9 -0.9L2.95 -1L2.95 -0.9L3 -0.85L3.05 -0.95L3.05 -1L3.1 -1L3.1 -1.05L3.15 -1.1L3.2 -1.15L3.2 -1.35L3.25 -1.4L3.25 -1.15" />
<linearGradient
id="LinearGradID_701" gradientUnits="userSpaceOnUse" gradientTransform="matrix(0.00123596, 0, 0, 0.000488281, 1.95, -1.1)" spreadMethod ="pad" x1="-819.2" y1="0" x2="819.2" y2="0" >
<stop  offset="0.0156863" style="stop-color:#BC5361;stop-opacity:1" />
<stop  offset="0.698039" style="stop-color:#B85261;stop-opacity:1" />
<stop  offset="1" style="stop-color:#BD5564;stop-opacity:1" />
</linearGradient>
<path style="fill:url(#LinearGradID_701) " d="M0.95,-0.8L1 -0.8L1.1 -0.85L1.25 -0.8L1.5 -0.9L1.7 -0.95L1.85 -0.95L1.95 -0.95L2 -0.95L2.15 -0.95L2.3 -1L2.45 -1.05L2.45 -1.1L2.5 -1.1L2.6 -1.15L2.7 -1.25L2.75 -1.4L2.8 -1.45L2.9 -1.45L2.95 -1.5L3 -1.5L3 -1.4L2.9 -1.35L2.75 -1.2L2.75 -1.15L2.65 -1.1L2.6 -1.05L2.5 -1L2.45 -0.95L2.35 -0.9L2.3 -0.9L2.15 -0.85L2.1 -0.85L1.9 -0.8L1.85 -0.85L1.85 -0.9L1.7 -0.85L1.55 -0.75L1.5 -0.8L1.45 -0.8L1.2 -0.75L1.15 -0.7L1.05 -0.7L0.95 -0.8" />
<linearGradient
id="LinearGradID_702" gradientUnits="userSpaceOnUse" gradientTransform="matrix(0.000473022, -0.00126648, 0.000610352, 0.000228882, 2.35, -0.9)" spreadMethod ="pad" x1="-819.2" y1="0" x2="819.2" y2="0" >
<stop  offset="0" style="stop-color:#270F13;stop-opacity:1" />
<stop  offset="0.988235" style="stop-color:#69303A;stop-opacity:1" />
</linearGradient>
<path style="fill:url(#LinearGradID_702) " d="M1.45,-0.35L1.55 -0.4L1.55 -0.35L1.5 -0.35L1.45 -0.35M3.05,-0.95L3 -0.85L2.95 -0.9L2.95 -1L2.8 -0.9L2.75 -0.8L2.7 -0.65L2.65 -0.6L2.45 -0.5L2.45 -0.45L2.6 -0.5L2.75 -0.5L2.75 -0.45L2.4 -0.35L2.3 -0.35L2.2 -0.3L2.1 -0.3L2.1 -0.35L2 -0.3L1.85 -0.3L1.9 -0.35L1.8 -0.35L1.85 -0.3L1.8 -0.3L1.6 -0.35L1.65 -0.35L1.6 -0.4L1.7 -0.4L1.85 -0.4L1.95 -0.35L2.15 -0.4L2.2 -0.45L2.25 -0.45L2.3 -0.45L2.45 -0.55L2.6 -0.65L2.75 -0.85L2.55 -0.75L2.8 -1L2.85 -1.05L2.95 -1.1L3 -0.95L3.05 -1L3.05 -0.95M3.05,-1L3.1 -1.05L3.1 -1L3.05 -1M3.2,-1.35L3.2 -1.15L3.15 -1.1L3.2 -1.25L3.2 -1.35M2.2,-0.35L2.25 -0.35L2.25 -0.4L2.2 -0.35" />
<linearGradient
id="LinearGradID_703" gradientUnits="userSpaceOnUse" gradientTransform="matrix(0.000778198, 0, 0, 0.00062561, 2.6, -1)" spreadMethod ="pad" x1="-819.2" y1="0" x2="819.2" y2="0" >
<stop  offset="0" style="stop-color:#4F242E;stop-opacity:1" />
<stop  offset="1" style="stop-color:#6E333D;stop-opacity:1" />
</linearGradient>
<path style="fill:url(#LinearGradID_703) " d="M2.7,-1L2.65 -0.9L2.55 -0.85L2.45 -0.75L2.35 -0.65L2.2 -0.55L2.15 -0.5L2.1 -0.5L2 -0.45L1.95 -0.45L2.05 -0.5L2.1 -0.6L2.05 -0.65L2.15 -0.65L2.2 -0.65L2.45 -0.8L2.55 -0.9L2.6 -0.95L2.9 -1.15L3 -1.2L3.1 -1.2L3.2 -1.25L3.15 -1.1L3.1 -1.05L3.05 -1L3 -0.95L2.95 -1.1L2.85 -1.05L2.8 -1L2.7 -1" />
<radialGradient
id="RadialGradID_704" gradientUnits="userSpaceOnUse" gradientTransform="matrix(0.00108337, 0, 0, 0.00138855, 2.95, -0.95)" spreadMethod ="pad" cx="0" cy="0" r="819.2" fx="0" fy="0" >
<stop  offset="0"  style="stop-color:#E9765A;stop-opacity:0.643137" />
<stop  offset="1"  style="stop-color:#FFECD9;stop-opacity:0.101961" />
</radialGradient>
<path style="fill:url(#RadialGradID_704) " d="M3.25,-1.4L3.35 -1.15L3.4 -1L3.4 -0.65L3.2 -0.3L3.1 -0.65L3.1 -0.8L3.2 -1L3.25 -1.05L3.25 -1.15L3.25 -1.4" />
<path style="fill:#2E181B;fill-opacity:1" d="M2.75,-0.5L2.6 -0.5L2.45 -0.45L2.45 -0.5L2.65 -0.6L2.7 -0.65L2.75 -0.8L2.8 -0.9L2.95 -1L2.9 -0.9L2.85 -0.75L2.8 -0.65L2.8 -0.55L2.9 -0.65L3.05 -0.85L3.15 -1L3.25 -1.05L3.2 -1L3.1 -0.9L3 -0.65L2.9 -0.55L2.75 -0.5" />
<path style="fill:#B33E4F;fill-opacity:1" d="M2.15,-1.3L2.2 -1.35L2.2 -1.3L2.25 -1.25L2.3 -1.3L2.35 -1.3L2.4 -1.25L2.4 -1.2L2.3 -1.2L2.35 -1.15L2.4 -1.15L2.4 -1.2L2.45 -1.2L2.45 -1.25L2.5 -1.25L2.55 -1.2L2.6 -1.25L2.55 -1.3L2.6 -1.3L2.6 -1.35L2.55 -1.35L2.5 -1.35L2.45 -1.4L2.4 -1.35L2.4 -1.4L2.45 -1.45L2.55 -1.45L2.65 -1.4L2.7 -1.3L2.6 -1.2L2.5 -1.15L2.45 -1.15L2.45 -1.1L2.25 -1L2.2 -1L2.15 -0.95L2 -0.95L1.95 -1L1.9 -1L1.8 -1L1.7 -0.95L1.65 -1L1.6 -1L1.65 -1.05L1.65 -1.1L1.7 -1.15L1.7 -1.05L1.7 -1L1.75 -1.05L1.75 -1.1L1.75 -1.15L1.8 -1.15L1.85 -1.15L1.95 -1.2L1.95 -1.15L1.9 -1.15L1.9 -1.1L1.95 -1.1L2.05 -1.1L2.05 -1.15L2.1 -1.2L2.15 -1.2L2.15 -1.25L2.1 -1.25L2.15 -1.3M2.1,-1.1L2.05 -1.05L2.05 -1L2.1 -1L2.15 -1.05L2.15 -1.1L2.1 -1.1M2.25,-1.05L2.25 -1.1L2.2 -1.1L2.15 -1.05L2.15 -1L2.2 -1L2.25 -1.05" />
<path style="fill:#FDC3D2;fill-opacity:1" d="M2.55,-1.35L2.6 -1.35L2.6 -1.3L2.55 -1.3L2.6 -1.25L2.55 -1.2L2.5 -1.25L2.45 -1.25L2.45 -1.2L2.4 -1.2L2.4 -1.15L2.35 -1.15L2.3 -1.2L2.4 -1.2L2.4 -1.25L2.35 -1.3L2.3 -1.3L2.25 -1.25L2.2 -1.3L2.2 -1.35L2.25 -1.35L2.3 -1.35L2.3 -1.4L2.4 -1.4L2.4 -1.35L2.45 -1.4L2.5 -1.35L2.45 -1.35L2.35 -1.3L2.5 -1.3L2.5 -1.25L2.55 -1.3L2.55 -1.35M2.2,-1.3L2.25 -1.3L2.25 -1.35L2.2 -1.3" />
<path style="fill:#FFFFFF;fill-opacity:1" d="M2.55,-1.3L2.5 -1.25L2.5 -1.3L2.35 -1.3L2.45 -1.35L2.5 -1.35L2.55 -1.35L2.55 -1.3M2.25,-1.35L2.25 -1.3L2.2 -1.3L2.25 -1.35" />
<path style="fill:#F1FFF2;fill-opacity:1" d="M2.15,-1.25L2.15 -1.2L2.1 -1.2L2.1 -1.25L2.15 -1.25M1.95,-1.15L1.95 -1.2L2 -1.2L2.05 -1.2L2.05 -1.15L1.95 -1.1L1.95 -1.15M1.75,-1.1L1.7 -1.05L1.7 -1.15L1.75 -1.15L1.75 -1.1" />
<path style="fill:#DF98A6;fill-opacity:1" d="M2.15,-1.1L2.15 -1.05L2.1 -1L2.05 -1L2.05 -1.05L2.1 -1.05L2.1 -1.1L2.15 -1.1M2.25,-1.05L2.2 -1L2.15 -1L2.15 -1.05L2.2 -1.1L2.2 -1.05L2.25 -1.05" />
<path style="fill:#FFD9DC;fill-opacity:1" d="M2.1,-1.1L2.1 -1.05L2.05 -1.05L2.1 -1.1M2.2,-1.05L2.2 -1.1L2.25 -1.1L2.25 -1.05L2.2 -1.05" />
<path style="fill:#E6A2AF;fill-opacity:1" d="M1.95,-1.1L2.05 -1.15L2.05 -1.2L2 -1.2L2.05 -1.2L2.05 -1.25L2.1 -1.25L2.1 -1.2L2.05 -1.15L2.05 -1.1L1.95 -1.1L1.9 -1.1L1.9 -1.15L1.95 -1.15L1.95 -1.1M1.75,-1.1L1.75 -1.05L1.7 -1L1.7 -1.05L1.75 -1.1" />
<linearGradient
id="LinearGradID_705" gradientUnits="userSpaceOnUse" gradientTransform="matrix(0.000656128, 0, 0, 0.000350952, 2.25, -0.75)" spreadMethod ="pad" x1="-819.2" y1="0" x2="819.2" y2="0" >
<stop  offset="0" style="stop-color:#713E47;stop-opacity:1" />
<stop  offset="1" style="stop-color:#633037;stop-opacity:1" />
<stop  offset="1" style="stop-color:#794E55;stop-opacity:1" />
</linearGradient>
<path style="fill:url(#LinearGradID_705) " d="M2.35,-0.55L2.4 -0.6L2.35 -0.6L2.15 -0.5L2.2 -0.55L2.35 -0.65L2.45 -0.75L2.55 -0.85L2.65 -0.9L2.7 -1L2.8 -1L2.55 -0.75L2.75 -0.85L2.6 -0.65L2.45 -0.55L2.3 -0.45L2.25 -0.45L2.35 -0.55M1.75,-0.5L1.8 -0.5L1.9 -0.5L1.95 -0.45L1.8 -0.45L1.75 -0.5" />
<linearGradient
id="LinearGradID_706" gradientUnits="userSpaceOnUse" gradientTransform="matrix(0.000473022, 0, 0, 0.000137329, 2, -0.5)" spreadMethod ="pad" x1="-819.2" y1="0" x2="819.2" y2="0" >
<stop  offset="0" style="stop-color:#884C58;stop-opacity:1" />
<stop  offset="1" style="stop-color:#794E55;stop-opacity:1" />
</linearGradient>
<path style="fill:url(#LinearGradID_706) " d="M2.25,-0.45L2.2 -0.45L2.15 -0.4L1.95 -0.35L1.85 -0.4L1.7 -0.4L1.6 -0.4L1.65 -0.45L1.7 -0.45L1.75 -0.5L1.8 -0.45L1.95 -0.45L2 -0.45L2.1 -0.5L2.15 -0.5L2.35 -0.6L2.4 -0.6L2.35 -0.55L2.25 -0.45" />
<path style="fill:#AE989B;fill-opacity:1" d="M2.25,-0.4L2.25 -0.35L2.2 -0.35L2.25 -0.4" />
<linearGradient
id="LinearGradID_707" gradientUnits="userSpaceOnUse" gradientTransform="matrix(0.000549316, 0, 0, 0.000106812, 2.25, -0.3)" spreadMethod ="pad" x1="-819.2" y1="0" x2="819.2" y2="0" >
<stop  offset="0" style="stop-color:#5C1922;stop-opacity:1" />
<stop  offset="0.960784" style="stop-color:#2B0E13;stop-opacity:1" />
</linearGradient>
<path style="fill:url(#LinearGradID_707) " d="M2.2,-0.3L2.3 -0.35L2.4 -0.35L2.2 -0.3" />
<path style="fill:#F6DFE5;fill-opacity:1" d="M2,-0.3L2.1 -0.35L2.1 -0.3L2 -0.3" />
<linearGradient
id="LinearGradID_708" gradientUnits="userSpaceOnUse" gradientTransform="matrix(0.000106812, 0.000289917, -0.000732422, 0.000259399, 3, -0.4)" spreadMethod ="pad" x1="-819.2" y1="0" x2="819.2" y2="0" >
<stop  offset="0" style="stop-color:#220F15;stop-opacity:1" />
<stop  offset="1" style="stop-color:#321319;stop-opacity:1" />
</linearGradient>
<path style="fill:url(#LinearGradID_708) " d="M2.75,-0.45L2.75 -0.5L2.9 -0.55L3 -0.65L3.1 -0.9L3.2 -1L3.1 -0.8L3.1 -0.65L3.2 -0.3L3.2 -0.1L3.15 0L3.15 -0.15L3.1 -0.25L3.1 -0.35L3 -0.5L2.9 -0.4L2.8 -0.3L2.75 -0.45" />
<radialGradient
id="RadialGradID_709" gradientUnits="userSpaceOnUse" gradientTransform="matrix(0.0010376, 0, 0, 0.0010376, 2.9, 0.55)" spreadMethod ="pad" cx="0" cy="0" r="819.2" fx="0" fy="0" >
<stop  offset="0"  style="stop-color:#0C050D;stop-opacity:1" />
<stop  offset="1"  style="stop-color:#42001B;stop-opacity:1" />
</radialGradient>
<path style="fill:url(#RadialGradID_709) " d="M2.85,0.6L2.8 0.55L2.75 0.35L2.75 0.25L2.75 0.2L2.8 0.2L2.8 0.05L2.8 0L2.8 -0.25L2.8 -0.3L2.9 -0.4L3 -0.5L3.1 -0.35L3.1 -0.25L3.15 -0.15L3.15 0L3.2 0.1L3.1 0.5L2.85 0.6M2.8,0.25L2.85 0.25L2.8 0.3L2.8 0.35L2.85 0.4L2.85 0.5L2.9 0.5L2.9 0.55L2.95 0.55L2.95 0.6L3 0.55L3.05 0.45L3 0.3L2.95 0.1L2.8 0.2L2.85 0.2L2.8 0.25" />
<path style="fill:#F3C9CA;fill-opacity:1" d="M1.75,-1.15L1.75 -1.2L1.8 -1.25L1.8 -1.15L1.75 -1.15" />
<path style="fill:#DE7380;fill-opacity:1" d="M1,-1.15L1 -1.1L1.05 -1.1L1 -1.15L1 -1.2L1.05 -1.2L1.05 -1.15L1.1 -1.1L1.05 -1.05L0.95 -1.1L0.95 -1.15L0.95 -1.2L1 -1.2L0.95 -1.15L1 -1.15" />
<path style="fill:#E692A2;fill-opacity:1" d="M1,-1L0.95 -1L1 -1.05L1 -1M1.1,-1.1L1.1 -1.15L1.15 -1.15L1.1 -1.1" />
<path style="fill:#EBC2C8;fill-opacity:1" d="M0.95,-1.15L1 -1.2L1 -1.15L1.05 -1.1L1 -1.1L1 -1.15L0.95 -1.15" />
<path style="fill:#ECA9B0;fill-opacity:1" d="M1.05,-0.9L1 -0.95L1.05 -0.95L1.05 -0.9M1.25,-0.95L1.2 -0.9L1.2 -0.95L1.25 -0.95" />
<path style="fill:#FFBCC7;fill-opacity:1" d="M1.4,-0.95L1.4 -0.9L1.3 -0.9L1.3 -0.95L1.4 -0.95" />
<path style="fill:#F2A4B2;fill-opacity:1" d="M1.2,-1.05L1.15 -1.05L1.15 -1.1L1.2 -1.1L1.2 -1.05M1.25,-1L1.25 -1.05L1.3 -1.05L1.3 -1L1.25 -1M1.4,-1.15L1.4 -1.1L1.35 -1.1L1.35 -1.15L1.4 -1.15" />
<path style="fill:#673842;fill-opacity:1" d="M0.95,-0.35L1.05 -0.35L1.05 -0.45L1.1 -0.35L1.1 -0.3L1.05 -0.3L1 -0.3L1 -0.25L0.9 -0.25L0.95 -0.3L0.9 -0.35L0.85 -0.35L0.8 -0.45L0.95 -0.35" />
<path style="fill:#48232A;fill-opacity:1" d="M1.55,-0.4L1.45 -0.35L1.5 -0.35L1.4 -0.3L1.35 -0.3L1.15 -0.2L1 -0.2L0.9 -0.2L0.9 -0.25L1 -0.25L1.05 -0.25L1.15 -0.25L1.25 -0.3L1.3 -0.3L1.35 -0.35L1.25 -0.45L1.3 -0.45L1.45 -0.4L1.5 -0.45L1.6 -0.45L1.65 -0.5L1.75 -0.5L1.7 -0.45L1.65 -0.45L1.6 -0.4L1.55 -0.4M1.9,-0.5L1.8 -0.5L1.75 -0.5L1.9 -0.55L1.95 -0.55L2.05 -0.65L2.1 -0.6L2.05 -0.5L1.95 -0.45L1.9 -0.5" />
<path style="fill:#5F2D38;fill-opacity:1" d="M1.15,-0.35L1.1 -0.45L1.15 -0.45L1.15 -0.4L1.2 -0.35L1.2 -0.3L1.15 -0.25L1.05 -0.25L1.05 -0.3L1.1 -0.3L1.1 -0.35L1.15 -0.35" />
<path style="fill:#A67B84;fill-opacity:1" d="M1,-0.25L1 -0.3L1.05 -0.3L1.05 -0.25L1 -0.25" />
<path style="fill:#774551;fill-opacity:1" d="M1.1,-0.35L1.05 -0.45L1.1 -0.45L1.15 -0.35L1.1 -0.35" />
<path style="fill:#956B75;fill-opacity:1" d="M1.6,-0.4L1.65 -0.35L1.6 -0.35L1.6 -0.4M1.85,-0.3L1.8 -0.35L1.9 -0.35L1.85 -0.3" />
<path style="fill:#FED5DB;fill-opacity:1" d="M1.6,-0.4L1.6 -0.35L1.55 -0.35L1.55 -0.4L1.6 -0.4" />
<path style="fill:#FF6E79;fill-opacity:1" d="M1.95,0.1L1.95 0.05L2.05 0.05L2.05 0.1L2.1 0.1L2.15 0.05L2.15 0.1L2.05 0.2L2 0.25L1.95 0.3L1.85 0.35L1.8 0.35L1.65 0.4L1.6 0.35L1.6 0.2L1.55 0.2L1.6 0.15L1.65 0.15L1.65 0.2L1.7 0.3L1.65 0.3L1.65 0.35L1.75 0.35L1.85 0.3L1.95 0.25L2 0.2L2 0.15L1.95 0.15L1.95 0.2L1.9 0.15L1.85 0.1L1.95 0.1M1.85,0.1L1.85 0.25L1.8 0.2L1.7 0.15L1.7 0.1L1.85 0.1" />
<path style="fill:#FF9C9F;fill-opacity:1" d="M1.75,0.3L1.75 0.25L1.7 0.2L1.65 0.2L1.65 0.15L1.7 0.15L1.8 0.2L1.85 0.25L1.85 0.1L1.9 0.15L1.95 0.2L1.95 0.15L2 0.15L2 0.2L1.95 0.25L1.85 0.3L1.75 0.35L1.65 0.35L1.65 0.3L1.7 0.3L1.75 0.3" />
<radialGradient
id="RadialGradID_710" gradientUnits="userSpaceOnUse" gradientTransform="matrix(0.00233459, 0, 0, 0.000564575, 0.05, 0.25)" spreadMethod ="pad" cx="0" cy="0" r="819.2" fx="0" fy="0" >
<stop  offset="0"  style="stop-color:#EE3D51;stop-opacity:1" />
<stop  offset="1"  style="stop-color:#CB2A3A;stop-opacity:1" />
</radialGradient>
<path style="fill:url(#RadialGradID_710) " d="M2.35,0L2.3 0.1L2.15 0.3L2.1 0.3L2 0.4L1.9 0.45L1.85 0.45L1.85 0.4L1.8 0.4L1.75 0.45L1.7 0.45L1.6 0.5L1.5 0.55L1.45 0.55L1.4 0.5L1.45 0.5L1.55 0.5L1.75 0.4L1.9 0.35L2 0.3L2.05 0.3L2.05 0.25L2.1 0.2L2.15 0.2L2.15 0.15L2.2 0.15L2.2 0.05L2.25 0.05L2.2 0L2.35 0" />
<radialGradient
id="RadialGradID_711" gradientUnits="userSpaceOnUse" gradientTransform="matrix(0.0010376, 0, 0, 0.0010376, 2.9, 0.55)" spreadMethod ="pad" cx="0" cy="0" r="819.2" fx="0" fy="0" >
<stop  offset="0"  style="stop-color:#0C050D;stop-opacity:1" />
<stop  offset="1"  style="stop-color:#54000C;stop-opacity:1" />
</radialGradient>
<path style="fill:url(#RadialGradID_711) " d="M3.15,0L3.2 -0.1L3.2 0L3.2 0.1L3.15 0" />
<radialGradient
id="RadialGradID_712" gradientUnits="userSpaceOnUse" gradientTransform="matrix(0.000915527, 0, 0, 0.000915527, 3, 0.25)" spreadMethod ="pad" cx="0" cy="0" r="819.2" fx="0" fy="0" >
<stop  offset="0"  style="stop-color:#E9765A;stop-opacity:0.643137" />
<stop  offset="1"  style="stop-color:#FFECD9;stop-opacity:0.101961" />
</radialGradient>
<path style="fill:url(#RadialGradID_712) " d="M3.1,0.5L3.2 0.1L3.2 0L3.25 0.3L3.2 0.65L2.85 0.6L3.1 0.5" />
<path style="fill:#2E0011;fill-opacity:1" d="M3,0.5L2.95 0.35L2.95 0.3L2.85 0.2L2.8 0.2L2.95 0.1L3 0.3L3.05 0.45L3 0.55L3 0.5" />
<path style="fill:#2E2328;fill-opacity:1" d="M2.95,0.4L2.95 0.35L3 0.5L2.95 0.4M2.9,0.5L2.85 0.5L2.85 0.4L2.9 0.5" />
<radialGradient
id="RadialGradID_713" gradientUnits="userSpaceOnUse" gradientTransform="matrix(9.15527e-005, -3.05176e-005, 6.10352e-005, 0.000213623, 2.9, 0.45)" spreadMethod ="pad" cx="0" cy="0" r="819.2" fx="0" fy="0" >
<stop  offset="0"  style="stop-color:#FFF2F2;stop-opacity:1" />
<stop  offset="0.109804"  style="stop-color:#BFA0A9;stop-opacity:1" />
<stop  offset="0.988235"  style="stop-color:#42001B;stop-opacity:1" />
</radialGradient>
<path style="fill:url(#RadialGradID_713) " d="M2.85,0.4L2.8 0.35L2.8 0.3L2.85 0.25L2.8 0.25L2.85 0.2L2.95 0.3L2.95 0.35L2.95 0.4L3 0.5L3 0.55L2.95 0.6L2.95 0.55L2.9 0.55L2.9 0.5L2.85 0.4" />
</g>
</svg>
