<?xml version="1.0" encoding="utf-8"?>
<svg version="1.1" id="Layer_1"
xmlns="http://www.w3.org/2000/svg"
xmlns:xlink="http://www.w3.org/1999/xlink"
xmlns:author="http://www.sothink.com"
width="7px" height="5px"
xml:space="preserve">
<g id="64" transform="matrix(1, 0, 0, 1, -67, -45.5)">
<radialGradient
id="RadialGradID_878" gradientUnits="userSpaceOnUse" gradientTransform="matrix(0.000778198, 1.52588e-005, -1.52588e-005, 0.000732422, 72.85, 47.05)" spreadMethod ="pad" cx="0" cy="0" r="819.2" fx="0" fy="0" >
<stop  offset="0.211765"  style="stop-color:#BA4027;stop-opacity:0.701961" />
<stop  offset="1"  style="stop-color:#FFECD9;stop-opacity:0.0313725" />
</radialGradient>
<path style="fill:url(#RadialGradID_878) " d="M73.25,46.7Q73.45 46.85 73.45 47.15L73.2 47.55L72.75 47.65L72.3 47.55L72.2 47.15Q72.2 46.85 72.35 46.7L72.85 46.5L73.25 46.7" />
<radialGradient
id="RadialGradID_879" gradientUnits="userSpaceOnUse" gradientTransform="matrix(0.000778198, 1.52588e-005, -1.52588e-005, 0.000732422, 67.75, 47.15)" spreadMethod ="pad" cx="0" cy="0" r="819.2" fx="0" fy="0" >
<stop  offset="0.211765"  style="stop-color:#BA4027;stop-opacity:0.701961" />
<stop  offset="1"  style="stop-color:#FFECD9;stop-opacity:0.0313725" />
</radialGradient>
<path style="fill:url(#RadialGradID_879) " d="M67.3,46.75Q67.5 46.55 67.75 46.6L68.2 46.75L68.35 47.25L68.2 47.6L67.7 47.75L67.25 47.6L67 47.2Q67.05 46.9 67.3 46.75" />
<radialGradient
id="RadialGradID_880" gradientUnits="userSpaceOnUse" gradientTransform="matrix(0.00318909, 0, 0, 0.00152588, 70.4, 48.35)" spreadMethod ="pad" cx="0" cy="0" r="819.2" fx="0" fy="0" >
<stop  offset="0"  style="stop-color:#E9765A;stop-opacity:0.643137" />
<stop  offset="1"  style="stop-color:#FFECD9;stop-opacity:0.101961" />
</radialGradient>
<path style="fill:url(#RadialGradID_880) " d="M67.8,47.1Q69.25 48.65 71.25 48L72.75 47.5Q72.3 48.9 71.1 49.45Q69.85 49.95 68.65 49.2Q67.5 48.45 67.8 47.1" />
<path style="fill:#F0C6EC;fill-opacity:1" d="M72.15,47.5L72.1 47.35L72.05 47.3L72.15 47.35L72.15 47.5" />
<path style="fill:#B49289;fill-opacity:1" d="M69.2,46.75L69.45 46.7L69.5 46.7L70.25 46.65L71.15 46.65L71.45 46.75L71.35 46.85L69.5 46.9L69.25 46.9L69.2 46.75" />
<path style="fill:#E6CFCA;fill-opacity:1" d="M69.4,47L69.25 46.9L69.5 46.9L71.35 46.85L71.2 46.95L69.4 47" />
<path style="fill:#8A675F;fill-opacity:1" d="M69.25,46.9L69.4 47L69.35 47L69.2 47L69.05 46.95L68.95 46.9L68.9 46.9L68.95 46.9L69.2 46.75L69.25 46.9M71.45,46.75L71.65 46.8L71.5 46.95L71.25 47L71.2 46.95L71.35 46.85L71.45 46.75" />
<path style="fill:#FBDFF6;fill-opacity:1" d="M69.2,47.35L69.15 47.45L69.1 47.6L69.1 47.55L69.1 47.5L69.15 47.3L69.3 47.25L69.2 47.3L69.2 47.35" />
<path style="fill:#FFF2FD;fill-opacity:1" d="M69.8,47.4L69.85 47.4L70.1 47.45L70.25 47.5L70.2 47.5L70.05 47.5L69.9 47.45L69.8 47.5L69.7 47.5L69.7 47.6L69.75 47.65L69.8 47.65L69.85 47.7L70 47.75L70.2 47.8L70.3 47.8L70.4 47.75L70.45 47.7L70.6 47.65L70.65 47.65L70.85 47.6L70.95 47.6L71.05 47.45L71 47.4L70.85 47.4L70.75 47.4L70.5 47.4L70.45 47.45L70.4 47.45L70.3 47.5L70.25 47.5L70.35 47.45L70.45 47.35L70.75 47.4L70.9 47.35L71.05 47.35L71.15 47.35L71.15 47.4L71.1 47.55L71.1 47.65L71 47.7L70.8 47.75L70.65 47.75L70.55 47.75L70.5 47.75L70.45 47.8L70.4 47.8L70.3 47.85L70.2 47.85L70.1 47.85L69.95 47.8L69.8 47.75L69.75 47.75L69.7 47.7L69.6 47.65L69.6 47.55L69.55 47.45L69.5 47.55L69.45 47.6L69.45 47.65L69.4 47.7L69.35 47.7L69.35 47.5Q69.35 47.35 69.5 47.35L69.6 47.4L69.65 47.4L69.8 47.4" />
<path style="fill:#FCE0F6;fill-opacity:1" d="M69.3,47.45L69.3 47.55L69.25 47.6L69.2 47.6L69.2 47.55L69.3 47.45" />
<path style="fill:#FFD4FF;fill-opacity:1" d="M69.3,47.75L69.25 47.8L69.25 47.75L69.3 47.75" />
<path style="fill:#FFFFFF;fill-opacity:1" d="M70.25,47.5L70.3 47.5L70.4 47.45L70.45 47.45L70.5 47.4L70.75 47.4L70.85 47.4L71 47.4L71.05 47.45L70.95 47.6L70.85 47.6L70.65 47.65L70.6 47.65L70.45 47.7L70.4 47.75L70.3 47.8L70.2 47.8L70 47.75L69.85 47.7L69.8 47.65L69.75 47.65L69.7 47.6L69.7 47.5L69.8 47.5L69.9 47.45L70.05 47.5L70.2 47.5L70.25 47.5" />
<path style="fill:#E7A0DA;fill-opacity:1" d="M71.95,47.35L72 47.55L71.9 47.35L71.85 47.3L71.8 47.25L71.75 47.15L71.9 47.3L71.95 47.35" />
<path style="fill:#E093BF;fill-opacity:1" d="M69.05,47.25L69 47.45L69 47.5L68.9 47.75L68.9 47.45L68.9 47.6L68.95 47.45L69 47.25L68.9 47.4L69.05 47.25" />
<path style="fill:#EFE6F7;fill-opacity:1" d="M68.9,47.4L69 47.25L68.95 47.45L68.9 47.6L68.9 47.45L68.9 47.4" />
<radialGradient
id="RadialGradID_881" gradientUnits="userSpaceOnUse" gradientTransform="matrix(0.00175476, 0, 0, 0.00163269, 68, 46.75)" spreadMethod ="pad" cx="0" cy="0" r="819.2" fx="0" fy="0" >
<stop  offset="0"  style="stop-color:#5A2E49;stop-opacity:1" />
<stop  offset="0.415686"  style="stop-color:#733A5B;stop-opacity:1" />
<stop  offset="0.619608"  style="stop-color:#7E4D69;stop-opacity:1" />
<stop  offset="0.894118"  style="stop-color:#A28A97;stop-opacity:1" />
</radialGradient>
<path style="fill:url(#RadialGradID_881) " d="M68.95,45.85L68.8 45.95L68.85 45.85L68.9 45.85L68.9 45.8L68.95 45.8L68.95 45.75L69.45 45.6L68.95 45.85M68.7,46.35L68.2 46.65Q67.95 46.85 68.15 46.55L68.45 46.25L68.7 46.35" />
<radialGradient
id="RadialGradID_882" gradientUnits="userSpaceOnUse" gradientTransform="matrix(0.00253296, 0, 0, 0.00239563, 70.1, 45.6)" spreadMethod ="pad" cx="0" cy="0" r="819.2" fx="0" fy="0" >
<stop  offset="0"  style="stop-color:#D8C2CE;stop-opacity:1" />
<stop  offset="0.65098"  style="stop-color:#95758A;stop-opacity:1" />
<stop  offset="0.980392"  style="stop-color:#8B4F72;stop-opacity:1" />
</radialGradient>
<path style="fill:url(#RadialGradID_882) " d="M68.8,45.9L68.9 45.85L68.8 45.95L68.95 45.85L69.45 45.6L69.65 45.55L69.95 45.6L70.05 45.65L70.2 45.7L70.2 45.8L70.25 45.85L70.15 45.85L70.05 45.8L69.95 45.8L69.85 45.75L69.7 45.7L69.5 45.7L69.2 45.8L68.95 45.9L68.85 45.95L68.8 46L68.75 46L68.65 46.1L68.75 45.95L68.8 45.95L68.75 45.95L68.8 45.9" />
<radialGradient
id="RadialGradID_883" gradientUnits="userSpaceOnUse" gradientTransform="matrix(0.00175476, 0, 0, 0.00164795, 70.4, 46.4)" spreadMethod ="pad" cx="0" cy="0" r="819.2" fx="0" fy="0" >
<stop  offset="0.00784314"  style="stop-color:#B75C95;stop-opacity:1" />
<stop  offset="0.431373"  style="stop-color:#AF5691;stop-opacity:1" />
<stop  offset="0.894118"  style="stop-color:#984684;stop-opacity:1" />
</radialGradient>
<path style="fill:url(#RadialGradID_883) " d="M69.05,46.2L69.05 46.25L69 46.15L69 46.2L69.05 46.35L69.1 46.5L68.95 46.3L68.85 46.2L68.8 46.2L68.75 46.1L68.75 46L68.8 46L68.8 46.1L68.9 46.1L68.95 46.1L69 46.1L69.05 46.15L69.2 46.25L69.35 46.2L69.45 46.05L69.5 46.1L69.6 46.2L69.7 46.2L69.8 46.25L69.8 46.3L69.85 46.4L69.95 46.45L70.05 46.5L70.1 46.4L70.15 46.3L70.25 46.3L70.35 46.35L70.45 46.35L70.45 46.4L70.35 46.4L70.2 46.35L70.15 46.35L70.15 46.5L70.15 46.55L69.95 46.55L69.8 46.4L69.65 46.3L69.5 46.15L69.5 46.3L69.4 46.35L69.25 46.4L69.1 46.3L69.1 46.25L69.05 46.2" />
<radialGradient
id="RadialGradID_884" gradientUnits="userSpaceOnUse" gradientTransform="matrix(0.00117493, -0.000366211, 0.000198364, 0.000549316, 68.75, 46)" spreadMethod ="pad" cx="0" cy="0" r="819.2" fx="0" fy="0" >
<stop  offset="0"  style="stop-color:#A35B7D;stop-opacity:1" />
<stop  offset="0.894118"  style="stop-color:#752D5F;stop-opacity:1" />
</radialGradient>
<path style="fill:url(#RadialGradID_884) " d="M68.45,46.25L68.15 46.55L68.05 46.65L67.75 46.85L67.55 46.95Q68.3 46.2 69 45.75L68.95 45.75L68.95 45.8L68.9 45.8L68.9 45.85L68.8 45.9L68.75 45.95L68.65 46.1L68.75 46L68.75 46.1L68.8 46.2L68.85 46.2L68.95 46.3L69.1 46.5L69.1 46.55L69 46.4L68.95 46.35L68.85 46.3L68.8 46.3L68.7 46.35L68.45 46.25" />
<radialGradient
id="RadialGradID_885" gradientUnits="userSpaceOnUse" gradientTransform="matrix(0.0020752, -0.000183105, 7.62939e-005, 0.000640869, 69.55, 45.7)" spreadMethod ="pad" cx="0" cy="0" r="819.2" fx="0" fy="0" >
<stop  offset="0.00784314"  style="stop-color:#BF9FB6;stop-opacity:1" />
<stop  offset="1"  style="stop-color:#BE64A1;stop-opacity:1" />
</radialGradient>
<path style="fill:url(#RadialGradID_885) " d="M70.1,45.9L70.15 45.95L70.15 46.05L70.05 45.95L69.95 45.9L69.9 46.05L69.8 46.1L69.75 46.05L69.65 46L69.5 46L69.3 45.95L69.1 45.95L68.95 46L68.85 46L68.8 46L68.85 45.95L68.95 45.9L69.2 45.8L69.5 45.7L69.7 45.7L69.85 45.75L69.95 45.8L70.05 45.8L70.1 45.9" />
<radialGradient
id="RadialGradID_886" gradientUnits="userSpaceOnUse" gradientTransform="matrix(0.00088501, 0, 0, 0.000488281, 68.85, 46.15)" spreadMethod ="pad" cx="0" cy="0" r="819.2" fx="210511" fy="0" >
<stop  offset="0.00784314"  style="stop-color:#A14C89;stop-opacity:1" />
<stop  offset="0.878431"  style="stop-color:#BE64A1;stop-opacity:1" />
</radialGradient>
<path style="fill:url(#RadialGradID_886) " d="M69.8,46.2L69.8 46.25L69.7 46.2L69.6 46.2L69.5 46.1L69.45 46.05L69.35 46.2L69.2 46.25L69.05 46.15L69 46.1L68.95 46.1L68.9 46.1L68.8 46.1L68.8 46L68.85 46L68.95 46L69.1 45.95L69.3 45.95L69.5 46L69.65 46L69.75 46.05L69.8 46.1L69.8 46.2" />
<radialGradient
id="RadialGradID_887" gradientUnits="userSpaceOnUse" gradientTransform="matrix(0.00245667, 0, 0, 0.00231934, 69.8, 46.4)" spreadMethod ="pad" cx="0" cy="0" r="819.2" fx="0" fy="0" >
<stop  offset="0"  style="stop-color:#7B325F;stop-opacity:1" />
<stop  offset="0.392157"  style="stop-color:#672354;stop-opacity:1" />
<stop  offset="0.92549"  style="stop-color:#461938;stop-opacity:1" />
</radialGradient>
<path style="fill:url(#RadialGradID_887) " d="M68.05,47.2L68.05 47.25L67.75 47.25L67.7 47.25L67.65 47.25Q67.4 47.05 67.5 46.95L67.55 46.95L67.75 46.85L68.05 46.65L68.05 46.75L68.25 46.75L68.8 46.45L68.4 46.9L68.8 46.7L68.85 46.65L69 46.55L69.1 46.55L69.15 46.5L69.1 46.35L69.05 46.25L69.05 46.2L69.1 46.25L69.15 46.4L69.3 46.5L69.35 46.45L69.45 46.4L69.55 46.4L69.65 46.35L69.8 46.45L69.9 46.55L69.8 46.5L69.6 46.45L69.5 46.45L69.4 46.5L69.2 46.55L68.95 46.7L68.8 46.75L68.35 47L68.2 47.1L68.25 47.15L68.3 47.15L68.25 47.2L68.05 47.2" />
<radialGradient
id="RadialGradID_888" gradientUnits="userSpaceOnUse" gradientTransform="matrix(0.00134277, 0, 0, 0.00123596, 69.15, 46.5)" spreadMethod ="pad" cx="0" cy="0" r="819.2" fx="0" fy="0" >
<stop  offset="0"  style="stop-color:#722C5E;stop-opacity:1" />
<stop  offset="0.501961"  style="stop-color:#964472;stop-opacity:1" />
<stop  offset="0.894118"  style="stop-color:#994977;stop-opacity:1" />
</radialGradient>
<path style="fill:url(#RadialGradID_888) " d="M69.8,46.45L69.65 46.35L69.55 46.4L69.45 46.4L69.35 46.45L69.3 46.5L69.15 46.4L69.1 46.25L69.1 46.3L69.25 46.4L69.4 46.35L69.5 46.3L69.5 46.15L69.65 46.3L69.8 46.4L69.95 46.55L70.15 46.55L70.2 46.6L70.1 46.6L70 46.6L69.95 46.55L69.9 46.55L69.8 46.45M69.1,46.35L69.15 46.5L69.1 46.55L69.1 46.5L69.05 46.35L69 46.2L69 46.15L69.05 46.25L69.1 46.35" />
<radialGradient
id="RadialGradID_889" gradientUnits="userSpaceOnUse" gradientTransform="matrix(0.00218201, 0.000137329, -4.57764e-005, 0.000671387, 70.45, 46.05)" spreadMethod ="pad" cx="0" cy="0" r="819.2" fx="0" fy="0" >
<stop  offset="0.00784314"  style="stop-color:#D889B6;stop-opacity:1" />
<stop  offset="1"  style="stop-color:#A95A95;stop-opacity:1" />
</radialGradient>
<path style="fill:url(#RadialGradID_889) " d="M69.8,46.1L69.9 46.05L69.95 45.9L70.05 45.95L70.15 46.05L70.15 45.95L70.1 45.9L70.05 45.8L70.15 45.85L70.25 45.85L70.3 45.85L70.45 45.85L70.45 45.9L70.55 45.85L70.6 45.85L70.55 45.9L70.5 45.95L70.6 45.95L70.75 45.9L70.85 46L70.95 46.1L70.75 46.3L71.2 46.1L71.1 46.3L71 46.3L70.9 46.35L70.85 46.45L70.8 46.5L70.65 46.55L70.5 46.45L70.45 46.35L70.35 46.35L70.25 46.3L70.15 46.3L70.1 46.4L70.05 46.5L69.95 46.45L69.85 46.4L69.8 46.3L69.8 46.25L69.8 46.2L69.8 46.1" />
<radialGradient
id="RadialGradID_890" gradientUnits="userSpaceOnUse" gradientTransform="matrix(0.00256348, 0, 0, 0.00115967, 70.45, 45.8)" spreadMethod ="pad" cx="0" cy="0" r="819.2" fx="0" fy="0" >
<stop  offset="0"  style="stop-color:#C7A5BC;stop-opacity:1" />
<stop  offset="0.407843"  style="stop-color:#C778AA;stop-opacity:1" />
<stop  offset="0.752941"  style="stop-color:#924882;stop-opacity:1" />
<stop  offset="1"  style="stop-color:#8C427D;stop-opacity:1" />
</radialGradient>
<path style="fill:url(#RadialGradID_890) " d="M71.2,46.1L70.75 46.3L70.95 46.1L70.85 46L70.75 45.9L70.6 45.95L70.5 45.95L70.55 45.9L70.6 45.85L70.55 45.85L70.45 45.9L70.45 45.85L70.3 45.85L70.45 45.8L70.75 45.75L70.9 45.75L70.95 45.8L71 45.8L71.2 45.9L71.6 46.2L71.35 46.25L71.15 46.3L71.1 46.3L71.2 46.1" />
<radialGradient
id="RadialGradID_891" gradientUnits="userSpaceOnUse" gradientTransform="matrix(0.00186157, 0, 0, 0.00175476, 70.25, 45.75)" spreadMethod ="pad" cx="0" cy="0" r="819.2" fx="0" fy="0" >
<stop  offset="0"  style="stop-color:#CEB6C3;stop-opacity:1" />
<stop  offset="0.721569"  style="stop-color:#AD85A8;stop-opacity:1" />
<stop  offset="1"  style="stop-color:#956893;stop-opacity:1" />
</radialGradient>
<path style="fill:url(#RadialGradID_891) " d="M72.2,46.4L71.8 46.15L71.75 46.15L71.55 46L71.15 45.85L71.05 45.8L71 45.8L70.95 45.8L70.9 45.75L70.75 45.75L70.45 45.8L70.3 45.85L70.25 45.85L70.2 45.8L70.2 45.7L70.8 45.5L71.05 45.55L71.2 45.65L71.55 45.8L71.65 45.85L71.7 45.9L71.8 45.95L72.45 46.5L72.2 46.4" />
<radialGradient
id="RadialGradID_892" gradientUnits="userSpaceOnUse" gradientTransform="matrix(0.00157166, 0, 0, 0.00115967, 70.85, 45.75)" spreadMethod ="pad" cx="0" cy="0" r="819.2" fx="0" fy="0" >
<stop  offset="0"  style="stop-color:#B794B0;stop-opacity:1" />
<stop  offset="1"  style="stop-color:#76486D;stop-opacity:1" />
</radialGradient>
<path style="fill:url(#RadialGradID_892) " d="M71,45.8L71.05 45.8L71.15 45.85L71.55 46L71.75 46.15L71.8 46.15L71.8 46.2L71.8 46.25L71.7 46.25L71.65 46.25L71.6 46.2L71.2 45.9L71 45.8" />
<radialGradient
id="RadialGradID_893" gradientUnits="userSpaceOnUse" gradientTransform="matrix(0.00167847, 0, 0, 0.00157166, 71.75, 45.9)" spreadMethod ="pad" cx="0" cy="0" r="819.2" fx="0" fy="0" >
<stop  offset="0"  style="stop-color:#85537D;stop-opacity:1" />
<stop  offset="0.894118"  style="stop-color:#4C1A3D;stop-opacity:1" />
</radialGradient>
<path style="fill:url(#RadialGradID_893) " d="M72.85,46.9L72.8 46.9L72.85 47L72.4 46.75L72.05 46.45L72 46.45L72 46.4L71.85 46.35L71.8 46.25L71.8 46.2L71.8 46.15L72.2 46.4L72.45 46.5L72.6 46.6L72.9 46.9L72.95 46.9L72.95 46.95L72.85 46.9M72.3,46.45L72.25 46.4L72.25 46.45L72.3 46.45" />
<radialGradient
id="RadialGradID_894" gradientUnits="userSpaceOnUse" gradientTransform="matrix(0.00144958, 0, 0, 0.00137329, 70.45, 46.3)" spreadMethod ="pad" cx="0" cy="0" r="819.2" fx="0" fy="0" >
<stop  offset="0.00784314"  style="stop-color:#A95892;stop-opacity:1" />
<stop  offset="0.431373"  style="stop-color:#9E508E;stop-opacity:1" />
<stop  offset="0.894118"  style="stop-color:#893D7B;stop-opacity:1" />
</radialGradient>
<path style="fill:url(#RadialGradID_894) " d="M70.45,46.35L70.5 46.45L70.65 46.55L70.8 46.5L70.85 46.45L70.9 46.35L71 46.3L71.1 46.3L71.15 46.3L71.35 46.25L71.6 46.2L71.65 46.25L71.55 46.25L71.45 46.3L71.3 46.35L71.15 46.35L71.05 46.45L70.9 46.5L70.75 46.55L70.65 46.55L70.45 46.5L70.45 46.4L70.45 46.35" />
<radialGradient
id="RadialGradID_895" gradientUnits="userSpaceOnUse" gradientTransform="matrix(0.00236511, 0, 0, 0.00221252, 70.2, 46.4)" spreadMethod ="pad" cx="0" cy="0" r="819.2" fx="0" fy="0" >
<stop  offset="0"  style="stop-color:#A14E8E;stop-opacity:1" />
<stop  offset="0.894118"  style="stop-color:#702358;stop-opacity:1" />
</radialGradient>
<path style="fill:url(#RadialGradID_895) " d="M71.45,46.3L71.35 46.35L71.1 46.55L70.8 46.55L70.8 46.6L70.2 46.6L70.15 46.55L70.15 46.5L70.15 46.35L70.2 46.35L70.35 46.4L70.45 46.4L70.45 46.5L70.65 46.55L70.75 46.55L70.9 46.5L71.05 46.45L71.15 46.35L71.3 46.35L71.45 46.3L71.55 46.25L71.65 46.25L71.45 46.3M71.85,46.35L71.7 46.25L71.8 46.25L71.85 46.35" />
<radialGradient
id="RadialGradID_896" gradientUnits="userSpaceOnUse" gradientTransform="matrix(0.00143433, 0.000854492, -0.00144958, 0.00216675, 71.4, 46.05)" spreadMethod ="pad" cx="0" cy="0" r="819.2" fx="0" fy="0" >
<stop  offset="0"  style="stop-color:#84346E;stop-opacity:1" />
<stop  offset="0.92549"  style="stop-color:#441028;stop-opacity:1" />
</radialGradient>
<path style="fill:url(#RadialGradID_896) " d="M71.6,46.65L71.15 46.55L71.1 46.55L71.35 46.35L71.45 46.3L71.65 46.25L71.7 46.25L71.85 46.35L72 46.4L72 46.45L71.9 46.45L71.8 46.4L71.75 46.35L71.65 46.3L71.6 46.4L72.3 46.85L72.25 46.95L71.6 46.65" />
<radialGradient
id="RadialGradID_897" gradientUnits="userSpaceOnUse" gradientTransform="matrix(0.00212097, 0, 0, 0.00198364, 71.65, 46.35)" spreadMethod ="pad" cx="0" cy="0" r="819.2" fx="0" fy="0" >
<stop  offset="0"  style="stop-color:#692858;stop-opacity:1" />
<stop  offset="0.945098"  style="stop-color:#33030F;stop-opacity:1" />
</radialGradient>
<path style="fill:url(#RadialGradID_897) " d="M72.95,46.9L72.95 46.95L72.95 46.9M72.05,46.45L72.4 46.75L72.85 47L72.4 47.05L72.25 46.95L72.3 46.85L71.6 46.4L71.65 46.3L71.75 46.35L71.8 46.4L71.9 46.45L72 46.45L72.05 46.45M72.25,46.45L72.25 46.4L72.3 46.45L72.25 46.45" />
<linearGradient
id="LinearGradID_898" gradientUnits="userSpaceOnUse" gradientTransform="matrix(0.00224304, 0, 0, 0.000244141, 70.35, 46.95)" spreadMethod ="pad" x1="-819.2" y1="0" x2="819.2" y2="0" >
<stop  offset="0" style="stop-color:#2F0104;stop-opacity:1" />
<stop  offset="0.14902" style="stop-color:#55130F;stop-opacity:1" />
<stop  offset="0.439216" style="stop-color:#601913;stop-opacity:1" />
<stop  offset="0.682353" style="stop-color:#4C1610;stop-opacity:1" />
<stop  offset="0.866667" style="stop-color:#44150F;stop-opacity:1" />
<stop  offset="0.956863" style="stop-color:#230E09;stop-opacity:1" />
</linearGradient>
<path style="fill:url(#LinearGradID_898) " d="M68.95,46.9L69.05 46.95L69.2 47L69.35 47L69.4 47L71.2 46.95L71.25 47L71.5 46.95L71.65 46.8L72 47L72.1 47.05L72.15 47.1L72.1 47.15L72 47.15L71.35 47.05L70.3 47.1L70.05 47.05L70 47.05L69.85 47.05L69.6 47.05L69.55 47.05L69.5 47.05L69.1 47.05L68.7 47.1L68.5 47.15L68.45 47.15L68.5 47.1L68.65 47L68.7 47L68.8 46.9L68.85 46.9L68.9 46.9L68.95 46.9" />
<radialGradient
id="RadialGradID_899" gradientUnits="userSpaceOnUse" gradientTransform="matrix(0.00257874, 0, 0, 0.00280762, 70.45, 46.65)" spreadMethod ="pad" cx="0" cy="0" r="819.2" fx="0" fy="0" >
<stop  offset="0"  style="stop-color:#821031;stop-opacity:1" />
<stop  offset="0.960784"  style="stop-color:#561519;stop-opacity:1" />
</radialGradient>
<path style="fill:url(#RadialGradID_899) " d="M70.9,46.6L71.3 46.6L71.35 46.65L72.4 47.15L72.25 47.15L72.15 47.15L72.1 47.15L72.15 47.1L72.1 47.05L72 47L71.65 46.8L71.45 46.75L71.15 46.65L70.25 46.65L69.5 46.7L69.45 46.7L69.2 46.75L68.95 46.9L68.9 46.9L68.85 46.9L68.8 46.9L68.7 47L68.65 47L68.5 47.1L68.45 47.15L68.35 47.2L68.25 47.2L68.3 47.15Q68.4 47.05 68.55 47L68.8 46.85L68.95 46.8L69.2 46.65L69.5 46.6L69.95 46.6L70 46.6L70.1 46.6L70.9 46.6" />
<radialGradient
id="RadialGradID_900" gradientUnits="userSpaceOnUse" gradientTransform="matrix(0.00311279, 0, 0, 0.00294495, 70.45, 46.65)" spreadMethod ="pad" cx="0" cy="0" r="819.2" fx="0" fy="0" >
<stop  offset="0"  style="stop-color:#872B50;stop-opacity:1" />
<stop  offset="0.329412"  style="stop-color:#610F26;stop-opacity:1" />
<stop  offset="0.960784"  style="stop-color:#450305;stop-opacity:1" />
</radialGradient>
<path style="fill:url(#RadialGradID_900) " d="M72.4,47.15L71.35 46.65L71.3 46.6L70.9 46.6L70.1 46.6L70.2 46.6L70.8 46.6L70.8 46.55L71.1 46.55L71.15 46.55L71.6 46.65L72.25 46.95L72.4 47.05L72.85 47L72.8 46.9L72.85 46.9L72.95 46.95L73 46.95L73.05 46.95L73.05 47L73.05 47.1L72.95 47.15L72.9 47.15L72.45 47.2L72.4 47.15M69.95,46.55L70 46.6L69.95 46.6L69.95 46.55" />
<radialGradient
id="RadialGradID_901" gradientUnits="userSpaceOnUse" gradientTransform="matrix(0.00280762, 0, 0, 0.00108337, 70.1, 47.1)" spreadMethod ="pad" cx="0" cy="0" r="819.2" fx="0" fy="0" >
<stop  offset="0"  style="stop-color:#F2B0D6;stop-opacity:1" />
<stop  offset="1"  style="stop-color:#DE91C7;stop-opacity:1" />
</radialGradient>
<path style="fill:url(#RadialGradID_901) " d="M69.45,47.6L69.5 47.55L69.55 47.45L69.6 47.55L69.6 47.65L69.7 47.7L69.75 47.75L69.8 47.75L69.95 47.9L70.3 48L70.7 47.9L70.85 47.9L70.95 47.85L71.1 47.75L71.15 47.6L71.2 47.5L71.3 47.3L71.25 47.25L71.15 47.25L70.95 47.25L70.8 47.25L70.6 47.25L70.5 47.25L70.45 47.25L70.4 47.25L70.4 47.35L70.35 47.35L70.25 47.15L70.1 47.1Q69.75 47.1 69.75 47.25L69.8 47.3L69.85 47.4L69.8 47.4L69.7 47.35L69.6 47.4L69.5 47.35Q69.35 47.35 69.35 47.5L69.3 47.45L69.3 47.4L69.25 47.35L69.3 47.25L69.35 47.25L69.4 47.25L69.45 47.25L69.5 47.2L69.55 47.15L69.7 47.1L69.85 47.05L70 47.05L70.05 47.05L70.3 47.1L70.4 47.15L70.5 47.2L70.6 47.15L70.8 47.15L70.9 47.15L71 47.2L71.15 47.15L71.25 47.15L71.35 47.2L71.4 47.3L71.4 47.35L71.4 47.45L71.4 47.5L71.4 47.6L71.35 47.8L71.25 47.6L71.2 47.75L71.15 47.85L71.15 47.9L71.1 47.9L71 47.9L70.95 47.9L70.8 48L70.65 48L70.5 48.05L70.4 48.05L70.2 48.05L70.05 48L70 47.95L69.9 47.9L69.8 47.9L69.8 47.85L69.7 47.8L69.55 47.8L69.5 47.75L69.45 47.65L69.45 47.6" />
<radialGradient
id="RadialGradID_902" gradientUnits="userSpaceOnUse" gradientTransform="matrix(0.00358582, 0, 0, 0.00131226, 70.4, 47.1)" spreadMethod ="pad" cx="0" cy="0" r="819.2" fx="0" fy="0" >
<stop  offset="0"  style="stop-color:#DD86BB;stop-opacity:1" />
<stop  offset="0.431373"  style="stop-color:#D279B2;stop-opacity:1" />
<stop  offset="1"  style="stop-color:#AA4990;stop-opacity:1" />
</radialGradient>
<path style="fill:url(#RadialGradID_902) " d="M69.85,47.05L69.7 47.1L69.55 47.15L69.5 47.2L69.45 47.25L69.4 47.25L69.35 47.25L69.3 47.25L69.25 47.35L69.3 47.4L69.3 47.45L69.35 47.5L69.35 47.7L69.4 47.7L69.45 47.65L69.5 47.75L69.55 47.8L69.7 47.8L69.8 47.85L69.8 47.9L69.9 47.9L70 47.95L70.05 48L70.2 48.05L70.4 48.05L70.5 48.05L70.65 48L70.8 48L70.95 47.9L71 47.9L71.1 47.9L71.15 47.9L71.15 47.85L71.2 47.75L71.25 47.6L71.35 47.8L71.4 47.6L71.4 47.5L71.4 47.45L71.4 47.35L71.4 47.3L71.35 47.2L71.25 47.15L71.15 47.15L71 47.2L70.9 47.15L70.8 47.15L70.6 47.15L70.5 47.2L70.4 47.15L70.3 47.1L71.35 47.05L72 47.15L72.15 47.3L72.2 47.45L72.1 47.6L71.95 47.7L71.9 47.75L71.75 47.8L71.5 47.85L71.4 47.85L71.25 47.9L71.15 47.95L71.1 47.95L70.25 48.1L69.65 47.95L69.55 47.95L69.5 47.95L69.35 47.9L69.15 47.85L69.1 47.7L69.05 47.55L69.05 47.5L69.1 47.3L69.1 47.15L69.05 47.2L68.9 47.25L69 47.15L68.85 47.25L68.95 47.15L69.1 47.05L69.5 47.05L69.55 47.05L69.6 47.05L69.85 47.05M72.15,47.35L72.05 47.3L72.1 47.35L72.15 47.5L72.15 47.35M71.9,47.3L71.75 47.15L71.8 47.25L71.85 47.3L71.9 47.35L72 47.55L71.95 47.35L71.9 47.3M69.2,47.3L69.3 47.25L69.15 47.3L69.1 47.5L69.1 47.55L69.1 47.6L69.15 47.45L69.2 47.35L69.2 47.3M69.2,47.55L69.2 47.6L69.25 47.6L69.3 47.55L69.3 47.45L69.2 47.55M69.25,47.75L69.25 47.8L69.3 47.75L69.25 47.75" />
<radialGradient
id="RadialGradID_903" gradientUnits="userSpaceOnUse" gradientTransform="matrix(0.00198364, 0, 0, 0.000854492, 70.15, 47.4)" spreadMethod ="pad" cx="0" cy="0" r="819.2" fx="0" fy="0" >
<stop  offset="0"  style="stop-color:#FAD8F3;stop-opacity:1" />
<stop  offset="1"  style="stop-color:#E8A0C8;stop-opacity:1" />
</radialGradient>
<path style="fill:url(#RadialGradID_903) " d="M69.65,47.4L69.6 47.4L69.7 47.35L69.8 47.4L69.65 47.4M69.85,47.4L69.8 47.3L69.75 47.25Q69.75 47.1 70.1 47.1L70.25 47.15L70.35 47.35L70.4 47.35L70.4 47.25L70.45 47.25L70.5 47.25L70.6 47.25L70.8 47.25L70.95 47.25L71.15 47.25L71.25 47.25L71.3 47.3L71.2 47.5L71.15 47.6L71.1 47.75L70.95 47.85L70.85 47.9L70.7 47.9L70.3 48L69.95 47.9L69.8 47.75L69.95 47.8L70.1 47.85L70.2 47.85L70.3 47.85L70.4 47.8L70.45 47.8L70.5 47.75L70.55 47.75L70.65 47.75L70.8 47.75L71 47.7L71.1 47.65L71.1 47.55L71.15 47.4L71.15 47.35L71.05 47.35L70.9 47.35L70.75 47.4L70.45 47.35L70.35 47.45L70.25 47.5L70.1 47.45L69.85 47.4" />
<radialGradient
id="RadialGradID_904" gradientUnits="userSpaceOnUse" gradientTransform="matrix(0.00195313, 0, 0, 0.00183105, 68.3, 47.3)" spreadMethod ="pad" cx="0" cy="0" r="819.2" fx="0" fy="0" >
<stop  offset="0"  style="stop-color:#3C0A12;stop-opacity:1" />
<stop  offset="0.980392"  style="stop-color:#631A48;stop-opacity:1" />
</radialGradient>
<path style="fill:url(#RadialGradID_904) " d="M68.25,47.15L68.2 47.1L68.35 47L68.8 46.75L68.95 46.7L69.2 46.55L69.4 46.5L69.5 46.45L69.6 46.45L69.8 46.5L69.9 46.55L69.95 46.55L69.95 46.6L69.5 46.6L69.2 46.65L68.95 46.8L68.8 46.85L68.55 47Q68.4 47.05 68.3 47.15L68.25 47.15" />
<radialGradient
id="RadialGradID_905" gradientUnits="userSpaceOnUse" gradientTransform="matrix(0.00308228, 0, 0, 0.00169373, 70.45, 47)" spreadMethod ="pad" cx="0" cy="0" r="819.2" fx="0" fy="0" >
<stop  offset="0"  style="stop-color:#C75FAA;stop-opacity:1" />
<stop  offset="0.443137"  style="stop-color:#C45DA8;stop-opacity:1" />
<stop  offset="1"  style="stop-color:#87336E;stop-opacity:1" />
</radialGradient>
<path style="fill:url(#RadialGradID_905) " d="M72.05,47.75L70.55 48.15L70.5 48.15L69.5 48.1L69.05 47.95Q68.15 47.35 68.7 47.1L69.1 47.05L68.95 47.15L68.85 47.25L69 47.15L68.9 47.25L69.05 47.2L69.1 47.15L69.1 47.3L69.05 47.5L69.05 47.55L69.1 47.7L69.15 47.85L69.35 47.9L69.5 47.95L69.55 47.95L69.65 47.95L70.25 48.1L71.1 47.95L71.15 47.95L71.25 47.9L71.4 47.85L71.5 47.85L71.75 47.8L71.9 47.75L71.95 47.7L72.1 47.6L72.2 47.45L72.15 47.3L72 47.15L72.1 47.15L72.15 47.15Q72.5 47.45 72.05 47.75M68.9,47.45L68.9 47.75L69 47.5L69 47.45L69.05 47.25L68.9 47.4L68.9 47.45" />
<radialGradient
id="RadialGradID_906" gradientUnits="userSpaceOnUse" gradientTransform="matrix(0.00341797, 0, 0, 0.00149536, 70.4, 47.15)" spreadMethod ="pad" cx="0" cy="0" r="819.2" fx="0" fy="0" >
<stop  offset="0"  style="stop-color:#963E7C;stop-opacity:1" />
<stop  offset="0.568627"  style="stop-color:#963E7C;stop-opacity:1" />
<stop  offset="1"  style="stop-color:#6B3857;stop-opacity:1" />
</radialGradient>
<path style="fill:url(#RadialGradID_906) " d="M72.45,47.2L72.9 47.15L72.95 47.15L73.05 47.1L72.9 47.25L72.85 47.3L72.8 47.35L72.75 47.4L71.95 48.05L71.75 48.1L71.55 48.1L71.4 48.1L71.25 48.1L71.1 48.2L69.5 48.2L68.75 48.05L68.5 47.9Q68.3 47.8 68.4 47.5L68.3 47.65L68.15 47.75L67.85 47.4L67.75 47.25L67.7 47.25L67.75 47.25L68.05 47.25L68.05 47.2L68.25 47.2L68.35 47.2L68.45 47.15L68.5 47.15L68.7 47.1Q68.15 47.35 69.05 47.95L69.5 48.1L70.5 48.15L70.55 48.15L72.05 47.75Q72.5 47.45 72.15 47.15L72.25 47.15L72.4 47.15L72.45 47.2" />
<radialGradient
id="RadialGradID_907" gradientUnits="userSpaceOnUse" gradientTransform="matrix(0.00233459, 0, 0, 0.00334167, 70.35, 48.3)" spreadMethod ="pad" cx="0" cy="0" r="819.2" fx="0" fy="0" >
<stop  offset="0"  style="stop-color:#3F182A;stop-opacity:1" />
<stop  offset="1"  style="stop-color:#6B3857;stop-opacity:1" />
</radialGradient>
<path style="fill:url(#RadialGradID_907) " d="M71.95,48.05L71.2 48.35L71.05 48.35L69.9 48.35L69.5 48.35L69.45 48.35L69.4 48.3L69.35 48.3L69.2 48.3L69.1 48.3L68.8 48.2L68.15 47.75L68.3 47.65L68.4 47.5Q68.3 47.8 68.5 47.9L68.75 48.05L69.5 48.2L71.1 48.2L71.25 48.1L71.4 48.1L71.55 48.1L71.75 48.1L71.95 48.05" />
<radialGradient
id="RadialGradID_908" gradientUnits="userSpaceOnUse" gradientTransform="matrix(0.00125122, 0, 0, 0.00117493, 68.95, 46.2)" spreadMethod ="pad" cx="0" cy="0" r="819.2" fx="0" fy="0" >
<stop  offset="0"  style="stop-color:#7C3E67;stop-opacity:1" />
<stop  offset="0.909804"  style="stop-color:#4C1A3D;stop-opacity:1" />
</radialGradient>
<path style="fill:url(#RadialGradID_908) " d="M69,46.55L68.85 46.65L68.8 46.7L68.4 46.9L68.8 46.45L68.25 46.75L68.05 46.75L68.05 46.65L68.15 46.55Q67.95 46.85 68.2 46.65L68.7 46.35L68.8 46.3L68.85 46.3L68.95 46.35L69 46.4L69.1 46.55L69 46.55" />
<radialGradient
id="RadialGradID_909" gradientUnits="userSpaceOnUse" gradientTransform="matrix(0.00382996, 0, 0, 0.00363159, 70.8, 45.3)" spreadMethod ="pad" cx="0" cy="0" r="819.2" fx="0" fy="0" >
<stop  offset="0"  style="stop-color:#FF9EDD;stop-opacity:0.701961" />
<stop  offset="1"  style="stop-color:#FFADE0;stop-opacity:0" />
</radialGradient>
<path style="fill:url(#RadialGradID_909) " d="M68.05,47.05L67.95 47.05L67.95 47L68.1 46.65L68.55 46.2L68.8 45.95L69.15 45.85L69.25 45.8L69.2 45.85L69.1 45.9L69.2 45.9L69.25 45.85L69.15 46.15L69.15 46.3L69.25 46.3L69.2 46.35L69.1 46.35L69.1 46.3L68.95 46.15L69.05 46.3L69.05 46.4L68.8 46.5L68.05 47.05" />
<radialGradient
id="RadialGradID_910" gradientUnits="userSpaceOnUse" gradientTransform="matrix(0.00212097, 0, 0, 0.000488281, 70.15, 46.2)" spreadMethod ="pad" cx="0" cy="0" r="819.2" fx="0" fy="0" >
<stop  offset="0"  style="stop-color:#FF9EDD;stop-opacity:0.701961" />
<stop  offset="1"  style="stop-color:#FFADE0;stop-opacity:0" />
</radialGradient>
<path style="fill:url(#RadialGradID_910) " d="M71.35,46.1L71.1 46.25L71.05 46.25L71.05 46.05L71 46.2L70.95 46.35L70.9 46.35L70.7 46.4L70.45 46.4L70.35 46.35L70.2 46.4L70.05 46.45L69.8 46.4L69.65 46.3L69.6 46.2L69.6 46.3L69.45 46.3L69.4 46.3L69.35 46.2L69.3 46L69.3 46.3L69.25 46.3L69.15 46.3L69.15 46.15L69.25 45.85L69.65 45.75L69.85 45.8L70.1 45.85L70.4 45.8L70.75 45.75L71.25 45.85Q71.45 45.9 71.45 46.1L71.4 46.1L71.35 46.1" />
<radialGradient
id="RadialGradID_911" gradientUnits="userSpaceOnUse" gradientTransform="matrix(0.00392151, 0, 0, 0.00267029, 70.2, 46.5)" spreadMethod ="pad" cx="0" cy="0" r="819.2" fx="0" fy="0" >
<stop  offset="0"  style="stop-color:#54002A;stop-opacity:0.0823529" />
<stop  offset="0.368627"  style="stop-color:#54002A;stop-opacity:0.0509804" />
<stop  offset="0.980392"  style="stop-color:#610037;stop-opacity:0" />
</radialGradient>
<path style="fill:url(#RadialGradID_911) " d="M68.8,46.5L69.05 46.4L69.05 46.3L68.95 46.15L69.1 46.3L69.1 46.35L69.2 46.35L69.25 46.3L69.3 46.3L69.3 46L69.35 46.2L69.4 46.3L69.45 46.3L69.6 46.3L69.6 46.2L69.65 46.3L69.8 46.4L70.05 46.45L70.2 46.4L70.35 46.35L70.45 46.4L70.7 46.4L70.9 46.35L70.95 46.35L71 46.2L71.05 46.05L71.05 46.25L71.05 46.3L71.3 46.35L71.35 46.1L71.4 46.1L71.4 46.35L71.55 46.4L72.4 46.6L72.45 46.6L72.5 46.8L72.45 46.9L72.4 46.9L71.7 46.7L71.4 46.55L71.15 46.55L70.95 46.55L70.55 46.6L70.25 46.6L69.85 46.55L69.5 46.55L69.1 46.65L68.65 46.85L68.15 47.05L68.05 47.05L68.8 46.5" />
<radialGradient
id="RadialGradID_912" gradientUnits="userSpaceOnUse" gradientTransform="matrix(0.00282288, 0, 0, 0.00177002, 69.95, 45.9)" spreadMethod ="pad" cx="0" cy="0" r="819.2" fx="0" fy="0" >
<stop  offset="0"  style="stop-color:#FF9EDD;stop-opacity:0.701961" />
<stop  offset="1"  style="stop-color:#FFADE0;stop-opacity:0" />
</radialGradient>
<path style="fill:url(#RadialGradID_912) " d="M71.35,45.85Q71.75 46 72 46.2L72.35 46.55L72.4 46.55L72.5 46.6L72.45 46.6L72.4 46.6L71.55 46.4L71.4 46.35L71.4 46.1L71.45 46.1Q71.45 45.9 71.25 45.85L71.35 45.85M71.05,46.25L71.1 46.25L71.35 46.1L71.3 46.35L71.05 46.3L71.05 46.25" />
<radialGradient
id="RadialGradID_913" gradientUnits="userSpaceOnUse" gradientTransform="matrix(0.00138855, -0.00126648, 0.000579834, 0.000564575, 72.55, 47.15)" spreadMethod ="pad" cx="0" cy="0" r="819.2" fx="0" fy="0" >
<stop  offset="0"  style="stop-color:#FFD9F1;stop-opacity:0.360784" />
<stop  offset="1"  style="stop-color:#FFADE0;stop-opacity:0" />
</radialGradient>
<path style="fill:url(#RadialGradID_913) " d="M72.3,47.65L72.3 47.6L72.3 47.35L72.3 47.25L72.4 47.4L72.45 47.5L72.45 47.65L72.5 47.45L72.5 47.3L72.5 47.25L72.55 47.35L72.55 47.2L72.55 47.1L72.75 47.15L72.85 47.15L72.9 47.15L72.9 47.2L72.85 47.4Q72.8 47.65 72.25 47.9L71.2 48.2L71.15 48.2L71.9 47.9L72.3 47.65" />
<radialGradient
id="RadialGradID_914" gradientUnits="userSpaceOnUse" gradientTransform="matrix(0.00300598, 0.00196838, -0.00149536, 0.00201416, 66.55, 46.5)" spreadMethod ="pad" cx="0" cy="0" r="819.2" fx="0" fy="0" >
<stop  offset="0"  style="stop-color:#FFD9F1;stop-opacity:0.701961" />
<stop  offset="1"  style="stop-color:#FFADE0;stop-opacity:0" />
</radialGradient>
<path style="fill:url(#RadialGradID_914) " d="M67.95,47.25L68.1 47.25L68.05 47.3L68 47.4L68.15 47.25L68.3 47.25L68.35 47.25L68.4 47.25L68.4 47.35L68.4 47.4L68.35 47.5L68.35 47.65L68.45 47.45L68.55 47.4L69.1 48.15L68.35 47.85L67.75 47.25L67.95 47.25" />
</g>
</svg>
