<?xml version="1.0" encoding="utf-8"?>
<svg version="1.1" id="Layer_1"
xmlns="http://www.w3.org/2000/svg"
xmlns:xlink="http://www.w3.org/1999/xlink"
xmlns:author="http://www.sothink.com"
width="7px" height="4px"
xml:space="preserve">
<g id="61" transform="matrix(1, 0, 0, 1, -66.65, -45.65)">
<radialGradient
id="RadialGradID_830" gradientUnits="userSpaceOnUse" gradientTransform="matrix(0.000793457, 4.57764e-005, -1.52588e-005, 0.000793457, 72.9, 46.6)" spreadMethod ="pad" cx="0" cy="0" r="819.2" fx="0" fy="0" >
<stop  offset="0.211765"  style="stop-color:#BA4027;stop-opacity:0.701961" />
<stop  offset="1"  style="stop-color:#FFECD9;stop-opacity:0.0313725" />
</radialGradient>
<path style="fill:url(#RadialGradID_830) " d="M72.85,47.25L72.4 47.1L72.25 46.7L72.45 46.2Q72.6 46 72.9 46L73.35 46.2L73.55 46.7L73.3 47.1L72.85 47.25" />
<radialGradient
id="RadialGradID_831" gradientUnits="userSpaceOnUse" gradientTransform="matrix(0.000793457, 4.57764e-005, -1.52588e-005, 0.000793457, 67.4, 46.6)" spreadMethod ="pad" cx="0" cy="0" r="819.2" fx="0" fy="0" >
<stop  offset="0.211765"  style="stop-color:#BA4027;stop-opacity:0.701961" />
<stop  offset="1"  style="stop-color:#FFECD9;stop-opacity:0.0313725" />
</radialGradient>
<path style="fill:url(#RadialGradID_831) " d="M66.85,47.1L66.65 46.6Q66.7 46.3 66.9 46.2Q67.1 45.95 67.4 46Q67.6 45.95 67.85 46.2L68 46.7L67.8 47.1L67.35 47.25L66.85 47.1" />
<radialGradient
id="RadialGradID_832" gradientUnits="userSpaceOnUse" gradientTransform="matrix(0.00323486, 9.15527e-005, 0, 0.00163269, 70.2, 48.15)" spreadMethod ="pad" cx="0" cy="0" r="819.2" fx="0" fy="0" >
<stop  offset="0"  style="stop-color:#E9765A;stop-opacity:0.643137" />
<stop  offset="1"  style="stop-color:#FFECD9;stop-opacity:0.101961" />
</radialGradient>
<path style="fill:url(#RadialGradID_832) " d="M70.9,49.35Q69.65 49.85 68.45 49.05Q67.25 48.2 67.55 46.75Q69.05 48.45 71.05 47.8L72.6 47.3Q72.15 48.8 70.9 49.35" />
<radialGradient
id="RadialGradID_833" gradientUnits="userSpaceOnUse" gradientTransform="matrix(0.00306702, 9.15527e-005, 0, 0.00164795, 70.15, 46.3)" spreadMethod ="pad" cx="0" cy="0" r="819.2" fx="0" fy="0" >
<stop  offset="0"  style="stop-color:#F03464;stop-opacity:1" />
<stop  offset="0.188235"  style="stop-color:#F13D88;stop-opacity:1" />
<stop  offset="0.360784"  style="stop-color:#F24094;stop-opacity:1" />
<stop  offset="0.666667"  style="stop-color:#EE3B8D;stop-opacity:1" />
<stop  offset="0.964706"  style="stop-color:#DB2067;stop-opacity:1" />
</radialGradient>
<path style="fill:url(#RadialGradID_833) " d="M68.65,46.15L68.5 46.3L68.8 46.4L69.05 46.45L69.25 46.45L69.4 46.45L69.45 46.35L69.7 46.1L69.6 45.95L69.25 45.85L69.15 45.85L68.95 45.95L68.8 46.05L68.8 46.1L68.75 46.1L68.65 46.15M72.6,46.55L72.65 46.55L72.35 46.65L72.3 46.65L72.2 46.65L71.95 46.5L71.6 46.4L71.3 46.4L71.15 46.45L71.05 46.55L71.05 46.35L70.95 46.4L70.95 46.45L70.9 46.45L70.85 46.5L70.7 46.5L70.45 46.45L70.25 46.3L69.95 46.35L69.75 46.4L69.65 46.35L69.55 46.3L69.5 46.45L69.3 46.55L69.15 46.5L68.95 46.45L68.6 46.4L68.4 46.45L68.25 46.5L68.15 46.5L68.1 46.5L68 46.45L68.1 46.4L68.95 45.8L69.3 45.65L70.25 45.8L71 45.65L71.4 45.75L71.55 45.8L72.25 46.3L72.4 46.4L72.6 46.55M70.85,46.35L71 46.3L71.1 46.35L71.2 46.35L71.3 46.35L71.5 46.35L71.7 46.35L71.8 46.35L71.85 46.3L71.5 46L71.1 45.85L71 45.85L70.85 45.85L70.55 46.1L70.55 46.2L70.6 46.3L70.7 46.35L70.85 46.35" />
<radialGradient
id="RadialGradID_834" gradientUnits="userSpaceOnUse" gradientTransform="matrix(0.00224304, 6.10352e-005, 0, 0.00128174, 69.3, 46.3)" spreadMethod ="pad" cx="0" cy="0" r="819.2" fx="0" fy="0" >
<stop  offset="0"  style="stop-color:#F95AC1;stop-opacity:1" />
<stop  offset="0.564706"  style="stop-color:#F43084;stop-opacity:1" />
<stop  offset="0.980392"  style="stop-color:#F32E8A;stop-opacity:1" />
</radialGradient>
<path style="fill:url(#RadialGradID_834) " d="M68.75,46.1L68.8 46.1L68.8 46.05L68.95 45.95L69.15 45.85L69.25 45.85L69.6 45.95L69.7 46.1L69.45 46.35L69.4 46.45L69.25 46.45L69.05 46.45L68.8 46.4L68.5 46.3L68.65 46.15L68.75 46.1" />
<radialGradient
id="RadialGradID_835" gradientUnits="userSpaceOnUse" gradientTransform="matrix(0.00177002, 4.57764e-005, 0, 0.000991821, 71.05, 45.95)" spreadMethod ="pad" cx="0" cy="0" r="819.2" fx="0" fy="0" >
<stop  offset="0"  style="stop-color:#F949AE;stop-opacity:1" />
<stop  offset="0.980392"  style="stop-color:#ED398B;stop-opacity:1" />
</radialGradient>
<path style="fill:url(#RadialGradID_835) " d="M70.7,46.35L70.6 46.3L70.55 46.2L70.55 46.1L70.85 45.85L71 45.85L71.1 45.85L71.5 46L71.85 46.3L71.8 46.35L71.7 46.35L71.5 46.35L71.3 46.35L71.2 46.35L71.1 46.35L71 46.3L70.85 46.35L70.7 46.35" />
<radialGradient
id="RadialGradID_836" gradientUnits="userSpaceOnUse" gradientTransform="matrix(0.00260925, 7.62939e-005, 0, 0.00260925, 70.3, 46.25)" spreadMethod ="pad" cx="0" cy="0" r="819.2" fx="0" fy="0" >
<stop  offset="0"  style="stop-color:#E62D6B;stop-opacity:1" />
<stop  offset="0.862745"  style="stop-color:#E22A75;stop-opacity:1" />
</radialGradient>
<path style="fill:url(#RadialGradID_836) " d="M71.8,46.55L71.6 46.5L71.35 46.45L71.2 46.5L71.05 46.55L71 46.55L70.95 46.5L70.85 46.55L70.7 46.55L70.35 46.45L70.1 46.4L69.95 46.45L69.85 46.5L69.75 46.5L69.65 46.45L69.45 46.55L69.35 46.6L69.15 46.55L68.95 46.5L68.9 46.5L68.85 46.55L68.8 46.55L68.65 46.5L68.55 46.5L68.5 46.5L68.4 46.55L68.15 46.5L68.25 46.5L68.4 46.45L68.6 46.4L68.95 46.45L69.15 46.5L69.3 46.55L69.5 46.45L69.55 46.3L69.65 46.35L69.75 46.4L69.95 46.35L70.25 46.3L70.45 46.45L70.7 46.5L70.85 46.5L70.9 46.45L70.95 46.45L70.95 46.4L71.05 46.35L71.05 46.55L71.15 46.45L71.3 46.4L71.6 46.4L71.95 46.5L72.2 46.65L71.8 46.55" />
<radialGradient
id="RadialGradID_837" gradientUnits="userSpaceOnUse" gradientTransform="matrix(0.00389099, 0.000106812, 0, 0.00532532, 70.2, 46.6)" spreadMethod ="pad" cx="0" cy="0" r="819.2" fx="0" fy="0" >
<stop  offset="0"  style="stop-color:#DE2257;stop-opacity:1" />
<stop  offset="0.862745"  style="stop-color:#DB2067;stop-opacity:1" />
<stop  offset="1"  style="stop-color:#C02044;stop-opacity:1" />
</radialGradient>
<path style="fill:url(#RadialGradID_837) " d="M69.25,46.75L69.15 46.7L68.9 46.5L68.9 46.55L68.95 46.6L68.95 46.7L68.8 46.65L68.75 46.65L68.75 46.7L68.65 46.65L68.55 46.5L68.65 46.5L68.8 46.55L68.85 46.55L68.9 46.5L68.95 46.5L69.15 46.55L69.35 46.6L69.45 46.55L69.65 46.45L69.75 46.5L69.85 46.5L69.95 46.45L70.1 46.4L70.35 46.45L70.7 46.55L70.85 46.55L70.95 46.5L71 46.55L71.05 46.55L71.2 46.5L71.35 46.45L71.6 46.5L71.8 46.55L72.2 46.65L72.3 46.65L72.35 46.65L72.65 46.55L72.6 46.55L72.4 46.4L72.95 46.45L72.65 46.7L72.25 46.75L71.85 46.65L71.8 46.65L71.75 46.7L71.65 46.75L71.45 46.7L71.5 46.65L71.6 46.5Q71.55 46.5 71.45 46.6L71.25 46.7L71.2 46.7L71.2 46.65L71.2 46.5L71.1 46.65L70.95 46.7L70.9 46.7L70.9 46.55L70.75 46.65L70.5 46.65L70.45 46.65L70.4 46.6L70.35 46.45L70.25 46.65L70.15 46.55L70.1 46.4L70.05 46.55L70 46.7L69.8 46.65L69.6 46.5L69.6 46.6L69.6 46.7L69.25 46.75M72.75,46.9L72.9 46.85L72.85 46.9L72.75 46.9M67.35,46.7L67.3 46.7L67.25 46.65L67.3 46.65L67.35 46.7M68.4,46.55L68.5 46.5L68.55 46.5L68.6 46.65L68.55 46.65L68.45 46.65L68.3 46.7L68.25 46.75L68.2 46.75L67.9 46.7L67.45 46.55L68 46.45L68.1 46.5L68.15 46.5L68.4 46.55" />
<radialGradient
id="RadialGradID_838" gradientUnits="userSpaceOnUse" gradientTransform="matrix(0.00222778, -0.000320435, 0.00012207, 0.000671387, 68.6, 46.5)" spreadMethod ="pad" cx="0" cy="0" r="819.2" fx="0" fy="0" >
<stop  offset="0"  style="stop-color:#DC215D;stop-opacity:1" />
<stop  offset="0.964706"  style="stop-color:#AC1136;stop-opacity:1" />
</radialGradient>
<path style="fill:url(#RadialGradID_838) " d="M67.6,47L67.6 46.95L67.7 46.95L67.9 46.95L67.6 47M68.65,46.65L68.75 46.7L68.75 46.65L68.8 46.65L68.95 46.7L68.95 46.6L68.9 46.55L68.9 46.5L69.15 46.7L69.25 46.75L69 46.75L68.8 46.8L68.2 46.9L67.95 46.9L67.75 46.85L67.45 46.7L67.4 46.8L67.35 46.7L67.3 46.65L67.25 46.6L67.25 46.55L67.3 46.45L67.35 46.5L67.45 46.55L67.9 46.7L68.2 46.75L68.25 46.75L68.3 46.7L68.45 46.65L68.55 46.65L68.6 46.65L68.55 46.5L68.65 46.65" />
<radialGradient
id="RadialGradID_839" gradientUnits="userSpaceOnUse" gradientTransform="matrix(0.00367737, 0.000106812, 0, 0.00367737, 70.1, 47)" spreadMethod ="pad" cx="0" cy="0" r="819.2" fx="0" fy="0" >
<stop  offset="0.00784314"  style="stop-color:#910F2B;stop-opacity:1" />
<stop  offset="1"  style="stop-color:#4F0816;stop-opacity:1" />
</radialGradient>
<path style="fill:url(#RadialGradID_839) " d="M72.7,46.8L72.85 46.7L72.8 46.8L73.1 46.5L73.1 46.55L73 46.65L72.95 46.7L72.9 46.85L72.75 46.9L72.55 46.95L72.45 46.95L71.7 46.95L71.3 46.95L70.1 47L69.25 46.95L69.05 46.95L68.85 46.95L68.75 46.95L68.5 46.95L68.4 46.95L68 47L68 46.95L67.9 46.95L67.7 46.95L67.6 46.95L67.55 46.95L67.4 46.8L67.45 46.7L67.75 46.85L67.95 46.9L68.2 46.9L68.75 46.9L69.05 46.9L69.1 46.9L69.15 46.9L69.6 46.9L69.65 46.95L70.2 46.9L71.05 46.9L71.35 46.85L71.45 46.85L72.05 46.9L72.25 46.95L72.4 46.9L72.7 46.8" />
<radialGradient
id="RadialGradID_840" gradientUnits="userSpaceOnUse" gradientTransform="matrix(0.00157166, 4.57764e-005, 0, 0.000335693, 67.8, 46.95)" spreadMethod ="pad" cx="0" cy="0" r="819.2" fx="0" fy="0" >
<stop  offset="0"  style="stop-color:#C71555;stop-opacity:1" />
<stop  offset="0.988235"  style="stop-color:#EE318F;stop-opacity:1" />
</radialGradient>
<path style="fill:url(#RadialGradID_840) " d="M67.9,46.95L68 46.95L68 47L68.4 46.95L68.2 47L67.85 47.1L67.65 47.1L67.6 47L67.9 46.95" />
<radialGradient
id="RadialGradID_841" gradientUnits="userSpaceOnUse" gradientTransform="matrix(0.00128174, 0.000289917, -0.000152588, 0.000762939, 68.2, 47.05)" spreadMethod ="pad" cx="0" cy="0" r="819.2" fx="0" fy="0" >
<stop  offset="0"  style="stop-color:#EE318F;stop-opacity:1" />
<stop  offset="0.533333"  style="stop-color:#F43084;stop-opacity:1" />
<stop  offset="1"  style="stop-color:#EE3A9D;stop-opacity:1" />
</radialGradient>
<path style="fill:url(#RadialGradID_841) " d="M68.55,48L68.4 47.95L67.65 47.1L67.85 47.1L68.2 47L68.4 46.95L68.45 47.05L68.45 47.2L68.5 47.15L68.5 47.3L68.5 47.45L68.5 47.55L68.5 47.7L68.55 47.8L68.55 47.9L68.55 48" />
<radialGradient
id="RadialGradID_842" gradientUnits="userSpaceOnUse" gradientTransform="matrix(0.00250244, 7.62939e-005, 0, 0.000946045, 70.4, 46.25)" spreadMethod ="pad" cx="0" cy="0" r="819.2" fx="0" fy="0" >
<stop  offset="0"  style="stop-color:#DD2158;stop-opacity:1" />
<stop  offset="0.964706"  style="stop-color:#BC0F41;stop-opacity:1" />
</radialGradient>
<path style="fill:url(#RadialGradID_842) " d="M71.65,46.8L71.6 46.8L71.55 46.75L71.4 46.8L71.05 46.8L70.25 46.7L70 46.7L70.05 46.55L70.1 46.4L70.15 46.55L70.25 46.65L70.35 46.45L70.4 46.6L70.45 46.65L70.5 46.65L70.75 46.65L70.9 46.55L70.9 46.7L70.95 46.7L71.1 46.65L71.2 46.5L71.2 46.65L71.2 46.7L71.25 46.7L71.45 46.6Q71.55 46.5 71.6 46.5L71.5 46.65L71.45 46.7L71.65 46.75L71.65 46.8M69.6,46.7L69.6 46.6L69.6 46.5L69.8 46.65L70 46.7L69.6 46.7" />
<path style="fill:#BA9CB0;fill-opacity:1" d="M69,46.75L69.25 46.75L69.6 46.7L70 46.7L70.25 46.7L71.05 46.8L71.4 46.8L71.55 46.75L71.45 46.85L71.35 46.85L71.05 46.9L70.85 46.85L70.7 46.85L70.55 46.85L70.3 46.8L69.9 46.8L69.15 46.9L69.1 46.9L69 46.75" />
<path style="fill:#E6CEDD;fill-opacity:1" d="M69.15,46.9L69.9 46.8L70.3 46.8L70.55 46.85L70.7 46.85L70.85 46.85L71.05 46.9L70.2 46.9L69.65 46.95L69.6 46.9L69.15 46.9" />
<radialGradient
id="RadialGradID_843" gradientUnits="userSpaceOnUse" gradientTransform="matrix(0.00398254, 0.00012207, 0, 0.000595093, 70, 46.95)" spreadMethod ="pad" cx="0" cy="0" r="819.2" fx="3" fy="0" >
<stop  offset="0"  style="stop-color:#EE2887;stop-opacity:1" />
<stop  offset="0.301961"  style="stop-color:#F12F6E;stop-opacity:1" />
<stop  offset="1"  style="stop-color:#EE318F;stop-opacity:1" />
</radialGradient>
<path style="fill:url(#RadialGradID_843) " d="M68.45,47.2L68.45 47.05L68.4 46.95L68.5 46.95L68.75 46.95L68.85 46.95L69.05 46.95L69.25 46.95L70.1 47L71.3 46.95L71.7 46.95L72.45 46.95L72.65 47L72.55 47.1L72.45 47.1L72.4 47.05L72.3 47.3L72.2 47.2L72.15 47.1L72.15 47.35L72.1 47.35L72.05 47.2L72 47.05L72 47.2L71.95 47.15L71.85 47.05L71.85 47.4L71.75 47.25L71.65 47.15L71.65 47.35L71.7 47.4L71.7 47.5L71.65 47.5L71.6 47.4L71.6 47.45L71.5 47.35L71.5 47.5L71.2 47.05L71.2 47.1L71.2 47.35L71.05 47.2L70.95 47.1L70.9 47.15L70.65 47.05L70.5 47.1L70.35 47.1L70.3 47.05L69.85 47.25Q69.6 47.5 69.65 47.7L69.6 47.5L69.65 47.3L69.75 47.15L69.55 47.25L69.35 47.3L69.35 47.2L69.2 47.25L69.1 47.4L69.1 47.15L68.95 47.45L68.95 47.3L68.95 47.2L69 47.1L69 47L68.8 47.3L68.75 47.6L68.75 47.3L68.8 47.2L68.8 47.05L68.7 47.3L68.6 47.5L68.6 47.2L68.6 47.1L68.65 46.95L68.55 47.1L68.5 47.15L68.45 47.2" />
<radialGradient
id="RadialGradID_844" gradientUnits="userSpaceOnUse" gradientTransform="matrix(0.00494385, -0.000518799, 0.000213623, 0.00164795, 70.45, 47.45)" spreadMethod ="pad" cx="0" cy="0" r="819.2" fx="210515" fy="0" >
<stop  offset="0.0313725"  style="stop-color:#F864C4;stop-opacity:1" />
<stop  offset="0.509804"  style="stop-color:#F62976;stop-opacity:1" />
<stop  offset="1"  style="stop-color:#EE3A9D;stop-opacity:1" />
</radialGradient>
<path style="fill:url(#RadialGradID_844) " d="M71.7,47.8L71.35 48L70.85 48.15L70.4 48.15L70.05 48.2L69.85 48.2L69.75 48.25L69.65 47.7Q69.6 47.5 69.85 47.25L70.3 47.05L70.35 47.1L70.5 47.1L70.65 47.05L70.9 47.15L70.95 47.1L71.05 47.2L71.2 47.35L71.2 47.1L71.2 47.05L71.5 47.5L71.5 47.35L71.6 47.45L71.6 47.4L71.65 47.5L71.7 47.5L71.7 47.4L71.65 47.35L71.65 47.15L71.75 47.25L71.85 47.4L71.7 47.8" />
<radialGradient
id="RadialGradID_845" gradientUnits="userSpaceOnUse" gradientTransform="matrix(0.00294495, 0.000610352, -0.000228882, 0.00128174, 69.4, 47.4)" spreadMethod ="pad" cx="0" cy="0" r="819.2" fx="0" fy="0" >
<stop  offset="0"  style="stop-color:#F75DBB;stop-opacity:1" />
<stop  offset="0.533333"  style="stop-color:#F43084;stop-opacity:1" />
<stop  offset="0.847059"  style="stop-color:#F53A8C;stop-opacity:1" />
<stop  offset="1"  style="stop-color:#F957A4;stop-opacity:1" />
</radialGradient>
<path style="fill:url(#RadialGradID_845) " d="M69.7,48.3L69.2 48.25L69.15 48.2L68.65 48.05L68.55 48L68.55 47.9L68.55 47.8L68.5 47.7L68.5 47.55L68.5 47.45L68.5 47.3L68.5 47.15L68.55 47.1L68.65 46.95L68.6 47.1L68.6 47.2L68.6 47.5L68.7 47.3L68.8 47.05L68.8 47.2L68.75 47.3L68.75 47.6L68.8 47.3L69 47L69 47.1L68.95 47.2L68.95 47.3L68.95 47.45L69.1 47.15L69.1 47.4L69.2 47.25L69.35 47.2L69.35 47.3L69.55 47.25L69.75 47.15L69.65 47.3L69.6 47.5L69.65 47.7L69.75 48.25L69.7 48.3" />
<path style="fill:#856F7E;fill-opacity:1" d="M72.3,46.9L72.4 46.9L72.25 46.95L72.05 46.9L71.45 46.85L71.55 46.75L71.6 46.8L71.65 46.8L72.3 46.9M69.1,46.9L69.05 46.9L68.75 46.9L68.2 46.9L68.8 46.8L69 46.75L69.1 46.9" />
<radialGradient
id="RadialGradID_846" gradientUnits="userSpaceOnUse" gradientTransform="matrix(0.00617981, -0.00291443, 0.000701904, 0.00141907, 71.95, 47.25)" spreadMethod ="pad" cx="0" cy="0" r="819.2" fx="0" fy="0" >
<stop  offset="0"  style="stop-color:#ED216F;stop-opacity:1" />
<stop  offset="0.823529"  style="stop-color:#F75DBB;stop-opacity:1" />
<stop  offset="1"  style="stop-color:#F957A4;stop-opacity:1" />
</radialGradient>
<path style="fill:url(#RadialGradID_846) " d="M72.85,46.9L72.8 47Q72.4 47.8 71.35 48.2L71.15 48.25L69.7 48.3L69.75 48.25L69.85 48.2L70.05 48.2L70.4 48.15L70.85 48.15L71.35 48L71.7 47.8L71.85 47.4L71.85 47.05L71.95 47.15L72 47.2L72 47.05L72.05 47.2L72.1 47.35L72.15 47.35L72.15 47.1L72.2 47.2L72.3 47.3L72.4 47.05L72.45 47.1L72.55 47.1L72.65 47L72.45 46.95L72.55 46.95L72.75 46.9L72.85 46.9" />
<radialGradient
id="RadialGradID_847" gradientUnits="userSpaceOnUse" gradientTransform="matrix(0.00154114, 4.57764e-005, 0, 0.00102234, 72, 46.45)" spreadMethod ="pad" cx="0" cy="0" r="819.2" fx="0" fy="0" >
<stop  offset="0"  style="stop-color:#DC2061;stop-opacity:1" />
<stop  offset="1"  style="stop-color:#A91233;stop-opacity:1" />
</radialGradient>
<path style="fill:url(#RadialGradID_847) " d="M72.65,46.8L72.35 46.85L71.65 46.75L71.75 46.7L71.8 46.65L71.85 46.65L72.25 46.75L72.65 46.7L72.95 46.45L73 46.4L73.1 46.45L73.1 46.5L72.8 46.8L72.85 46.7L72.7 46.8L72.65 46.8" />
<path style="fill:#910F2B;fill-opacity:1" d="M72.4,46.9L72.3 46.9L71.65 46.8L71.65 46.75L72.35 46.85L72.65 46.8L72.7 46.8L72.4 46.9" />
<linearGradient
id="LinearGradID_848" gradientUnits="userSpaceOnUse" gradientTransform="matrix(0.00358582, 3.05176e-005, 3.05176e-005, 0.000915527, 70.25, 47.6)" spreadMethod ="pad" x1="-819.2" y1="0" x2="819.2" y2="0" >
<stop  offset="0" style="stop-color:#FF96D5;stop-opacity:0.643137" />
<stop  offset="0.454902" style="stop-color:#FF40B7;stop-opacity:0" />
<stop  offset="1" style="stop-color:#FF8CD1;stop-opacity:0.552941" />
</linearGradient>
<path style="fill:url(#LinearGradID_848) " d="M69.05,48L70.1 48.25L71.1 48.1L71.75 47.85L72.5 47.4L71.35 48.2L71.15 48.25L69.15 48.25L68.5 48Q67.9 47.65 67.65 47.1L67.8 47.15L68 47.1Q68.2 47.05 68.25 47.3L69.05 48" />
<radialGradient
id="RadialGradID_849" gradientUnits="userSpaceOnUse" gradientTransform="matrix(0.00180054, 4.57764e-005, 0, 0.00180054, 70.1, 46.95)" spreadMethod ="pad" cx="0" cy="0" r="819.2" fx="0" fy="0" >
<stop  offset="0"  style="stop-color:#FF96D5;stop-opacity:0.643137" />
<stop  offset="1"  style="stop-color:#FF40B7;stop-opacity:0" />
</radialGradient>
<path style="fill:url(#RadialGradID_849) " d="M68.95,47.15L69.1 47.1L69.3 47.1L69.65 47.2L70.15 47.25L70.55 47.2L71 47.1L71.55 47.15L71.55 47.25L70.7 47.9L69.85 48.05L69.2 47.6L68.95 47.15" />
</g>
</svg>
