<?xml version="1.0" encoding="utf-8"?>
<svg version="1.1" id="Layer_1"
xmlns="http://www.w3.org/2000/svg"
xmlns:xlink="http://www.w3.org/1999/xlink"
xmlns:author="http://www.sothink.com"
width="7px" height="4px"
xml:space="preserve">
<g id="59" transform="matrix(1, 0, 0, 1, -67.1, -46.3)">
<radialGradient
id="RadialGradID_792" gradientUnits="userSpaceOnUse" gradientTransform="matrix(0.00300598, 0, 0, 0.00158691, 70.5, 48.7)" spreadMethod ="pad" cx="0" cy="0" r="819.2" fx="0" fy="0" >
<stop  offset="0"  style="stop-color:#E9765A;stop-opacity:0.643137" />
<stop  offset="1"  style="stop-color:#FFECD9;stop-opacity:0.101961" />
</radialGradient>
<path style="fill:url(#RadialGradID_792) " d="M72.75,47.8Q72.3 49.25 71.15 49.85Q70 50.4 68.85 49.6Q67.75 48.85 68.05 47.4Q69.45 49.05 71.3 48.35L72.75 47.8" />
<radialGradient
id="RadialGradID_793" gradientUnits="userSpaceOnUse" gradientTransform="matrix(0.000747681, 1.52588e-005, -1.52588e-005, 0.000778198, 72.7, 46.9)" spreadMethod ="pad" cx="0" cy="0" r="819.2" fx="0" fy="0" >
<stop  offset="0.211765"  style="stop-color:#BA4027;stop-opacity:0.701961" />
<stop  offset="1"  style="stop-color:#FFECD9;stop-opacity:0.0313725" />
</radialGradient>
<path style="fill:url(#RadialGradID_793) " d="M72.75,46.3L73.15 46.55L73.3 47L73.1 47.4L72.7 47.55L72.3 47.4L72.1 46.95L72.3 46.5Q72.45 46.3 72.75 46.3" />
<radialGradient
id="RadialGradID_794" gradientUnits="userSpaceOnUse" gradientTransform="matrix(0.000747681, 1.52588e-005, -1.52588e-005, 0.000778198, 67.75, 47.05)" spreadMethod ="pad" cx="0" cy="0" r="819.2" fx="0" fy="0" >
<stop  offset="0.211765"  style="stop-color:#BA4027;stop-opacity:0.701961" />
<stop  offset="1"  style="stop-color:#FFECD9;stop-opacity:0.0313725" />
</radialGradient>
<path style="fill:url(#RadialGradID_794) " d="M67.25,47.5L67.1 47.05L67.3 46.65Q67.5 46.4 67.75 46.45Q67.95 46.4 68.2 46.65L68.35 47.1L68.15 47.55L67.75 47.65L67.25 47.5" />
</g>
</svg>
