<?xml version="1.0" encoding="utf-8"?>
<svg version="1.1" id="Layer_1"
xmlns="http://www.w3.org/2000/svg"
xmlns:xlink="http://www.w3.org/1999/xlink"
xmlns:author="http://www.sothink.com"
width="7px" height="4px"
xml:space="preserve">
<g id="58" transform="matrix(1, 0, 0, 1, -66.65, -45.4)">
<radialGradient
id="RadialGradID_778" gradientUnits="userSpaceOnUse" gradientTransform="matrix(0.00273132, 0, -3.05176e-005, 0.00125122, 70.3, 48.25)" spreadMethod ="pad" cx="0" cy="0" r="819.2" fx="0" fy="0" >
<stop  offset="0"  style="stop-color:#E9765A;stop-opacity:0.643137" />
<stop  offset="1"  style="stop-color:#FFECD9;stop-opacity:0.101961" />
</radialGradient>
<path style="fill:url(#RadialGradID_778) " d="M72.35,47.55Q71.9 48.65 70.85 49.15L68.8 48.95Q67.8 48.3 68.1 47.25Q69.35 48.5 71 48L72.35 47.55" />
<radialGradient
id="RadialGradID_779" gradientUnits="userSpaceOnUse" gradientTransform="matrix(0.000732422, 1.52588e-005, -3.05176e-005, 0.000671387, 67.35, 46.35)" spreadMethod ="pad" cx="0" cy="0" r="819.2" fx="0" fy="0" >
<stop  offset="0.211765"  style="stop-color:#BA4027;stop-opacity:0.701961" />
<stop  offset="1"  style="stop-color:#FFECD9;stop-opacity:0.0313725" />
</radialGradient>
<path style="fill:url(#RadialGradID_779) " d="M67.75,46.05L67.9 46.4L67.75 46.8L67.35 46.9L66.85 46.8L66.65 46.4Q66.7 46.15 66.9 46.05Q67.05 45.8 67.35 45.85Q67.55 45.8 67.75 46.05" />
<radialGradient
id="RadialGradID_780" gradientUnits="userSpaceOnUse" gradientTransform="matrix(0.000732422, 1.52588e-005, -3.05176e-005, 0.000671387, 72.8, 46.45)" spreadMethod ="pad" cx="0" cy="0" r="819.2" fx="0" fy="0" >
<stop  offset="0.211765"  style="stop-color:#BA4027;stop-opacity:0.701961" />
<stop  offset="1"  style="stop-color:#FFECD9;stop-opacity:0.0313725" />
</radialGradient>
<path style="fill:url(#RadialGradID_780) " d="M73.45,46.55L73.2 46.9L72.8 47.05L72.4 46.9L72.25 46.55Q72.25 46.3 72.4 46.15Q72.55 46 72.8 46Q73.15 46 73.25 46.15L73.45 46.55" />
<radialGradient
id="RadialGradID_781" gradientUnits="userSpaceOnUse" gradientTransform="matrix(0.00346375, 0.00012207, -7.62939e-005, 0.00299072, 69.95, 45.45)" spreadMethod ="pad" cx="0" cy="0" r="819.2" fx="0" fy="0" >
<stop  offset="0.211765"  style="stop-color:#DB1581;stop-opacity:1" />
<stop  offset="1"  style="stop-color:#B30055;stop-opacity:1" />
</radialGradient>
<path style="fill:url(#RadialGradID_781) " d="M68.3,45.8L68.4 45.75L68.7 45.6L68.9 45.5L69.25 45.45L69.75 45.6L70.15 45.6L70.65 45.4L71.1 45.45L71.35 45.6L71 45.5L70.15 45.7L69.9 45.75L69.8 45.7L69.55 45.6L69.4 45.55L68.85 45.6L68.3 45.85L68.3 45.8M67.45,46.4L67.6 46.4L67.7 46.45L67.85 46.45L67.45 46.4M69.75,46.3L70.05 46.3L70.15 46.35L70.05 46.35L69.75 46.3M71.45,46.3L71.6 46.35L71.65 46.4L71.45 46.3M71.7,46.4L71.75 46.4L71.9 46.45L71.7 46.4M72.75,46.4L72.5 46.5L72.05 46.5L72.15 46.5L72.2 46.5L72.55 46.4L72.65 46.4L72.7 46.4L72.75 46.4M72.2,47.5L71.95 47.8L71.4 48.2L70.5 48.45L69.55 48.4L68.65 48.15L68.05 47.6L67.85 47.2L68.1 47.5L68.7 47.9L68.7 47.95L69.65 48.15L70.3 48.1L70.5 48.1L70.75 48.05L71.15 47.95L71.2 47.95L71.9 47.65L72.25 47.35L72.2 47.5" />
<radialGradient
id="RadialGradID_782" gradientUnits="userSpaceOnUse" gradientTransform="matrix(0.00340271, 0.00012207, -7.62939e-005, 0.00294495, 69.9, 45.05)" spreadMethod ="pad" cx="0" cy="0" r="819.2" fx="0" fy="0" >
<stop  offset="0.211765"  style="stop-color:#F33CA7;stop-opacity:1" />
<stop  offset="1"  style="stop-color:#CC006B;stop-opacity:1" />
</radialGradient>
<path style="fill:url(#RadialGradID_782) " d="M71.5,45.65L71.85 45.9L72.35 46.2L72.5 46.25L72.7 46.4L72.65 46.4L72.55 46.4L72.2 46.5L72.15 46.5L72.05 46.5L71.9 46.45L71.75 46.4L71.7 46.4L71.65 46.4L71.6 46.35L71.45 46.3L71.4 46.3L71.3 46.25L71.25 46.25L70.95 46.2L70.45 46.3L70.25 46.35L70.15 46.35L70.05 46.3L69.75 46.3L69.35 46.2L69.1 46.2L68.45 46.35L67.85 46.45L67.7 46.45L67.6 46.4L67.45 46.4L67.4 46.4L67.3 46.35L67.4 46.35L67.7 46.2L67.85 46.15Q68 46.05 68.3 45.85L68.85 45.6L69.4 45.55L69.55 45.6L69.8 45.7L69.9 45.75L70.15 45.7L71 45.5L71.35 45.6L71.5 45.65M68.75,46.2L69.4 46.05L69.6 46.05L69.85 46.1L70 46.15L70.2 46.15L71.35 46.2L71.8 46.25L72 46.25L72.1 46.25L72.15 46.25L72.05 46.15L72 46.15L71.85 46L71.75 46L71.75 45.95L71.45 45.75L71.35 45.7L70.7 45.65L70.05 45.8L70 45.8L69.45 45.65L69.4 45.65L68.9 45.7L67.95 46.2L67.85 46.25L68.1 46.3L68.15 46.3L68.5 46.25L68.75 46.2M71.9,46.9L71.85 46.9L72.1 46.85L71.9 46.9" />
<radialGradient
id="RadialGradID_783" gradientUnits="userSpaceOnUse" gradientTransform="matrix(0.00418091, 0.000152588, -4.57764e-005, 0.00167847, 69.65, 45.4)" spreadMethod ="pad" cx="0" cy="0" r="819.2" fx="0" fy="0" >
<stop  offset="0.211765"  style="stop-color:#FA5BBF;stop-opacity:1" />
<stop  offset="0.988235"  style="stop-color:#E7067E;stop-opacity:1" />
</radialGradient>
<path style="fill:url(#RadialGradID_783) " d="M68.5,46.25L68.15 46.3L68.1 46.3L67.85 46.25L67.95 46.2L68.9 45.7L69.4 45.65L69.45 45.65L70 45.8L70.05 45.8L70.7 45.65L71.35 45.7L71.45 45.75L71.75 45.95L71.75 46L71.85 46L72 46.15L72.05 46.15L72.15 46.25L72.1 46.25L72 46.25L71.8 46.25L71.35 46.2L70.2 46.15L70 46.15L69.85 46.1L69.6 46.05L69.4 46.05L68.75 46.2L68.5 46.25" />
<path style="fill:#B30055;fill-opacity:1" d="M71.9,46.45L72.05 46.5L72.5 46.5L72.2 46.6L72 46.6L71.85 46.6L71.8 46.6L71.75 46.55L71.65 46.5L71.35 46.45L70.9 46.4L70 46.65L69.95 46.6L69.25 46.45L68.85 46.45L68.45 46.5L68.3 46.5L68.05 46.55L67.95 46.55L67.7 46.5L67.45 46.45L67.45 46.4L67.85 46.45L68.45 46.35L69.1 46.2L69.35 46.2L69.75 46.3L70.05 46.35L70.15 46.35L70.25 46.35L70.45 46.3L70.95 46.2L71.25 46.25L71.3 46.25L71.4 46.3L71.45 46.3L71.65 46.4L71.7 46.4L71.9 46.45" />
<radialGradient
id="RadialGradID_784" gradientUnits="userSpaceOnUse" gradientTransform="matrix(0.00366211, 0.000137329, -7.62939e-005, 0.00315857, 70.1, 46.95)" spreadMethod ="pad" cx="0" cy="0" r="819.2" fx="0" fy="0" >
<stop  offset="0"  style="stop-color:#660000;stop-opacity:1" />
<stop  offset="0.792157"  style="stop-color:#4D0000;stop-opacity:1" />
<stop  offset="1"  style="stop-color:#000203;stop-opacity:1" />
</radialGradient>
<path style="fill:url(#RadialGradID_784) " d="M71.65,46.5L71.75 46.55L71.8 46.6L71.85 46.6L72 46.6L72.2 46.6L72.5 46.5L72.75 46.4L72.8 46.4L72.8 46.45L72.7 46.6L72.65 46.65L72.45 46.75L72.1 46.85L71.85 46.9L71.9 46.9L71.65 46.95L71.6 46.9L71.6 46.95L71.65 46.95L70.15 47.1L69.85 47.1L68.6 46.95L68.6 46.9L68.45 46.9L68.35 46.9L68.25 46.85L67.95 46.8L67.85 46.75L67.75 46.75L67.65 46.7L67.6 46.7L67.5 46.6L67.4 46.55L67.35 46.5L67.3 46.35L67.4 46.4L67.45 46.4L67.45 46.45L67.7 46.5L67.95 46.55L68.05 46.55L68.3 46.5L68.45 46.5L68.5 46.55L68.6 46.6L68.7 46.65L69.05 46.75L69.95 46.8L70.2 46.85L71.25 46.7L71.65 46.5" />
<radialGradient
id="RadialGradID_785" gradientUnits="userSpaceOnUse" gradientTransform="matrix(0.00344849, -4.57764e-005, 4.57764e-005, 0.000854492, 70.15, 47.15)" spreadMethod ="pad" cx="0" cy="0" r="819.2" fx="0" fy="0" >
<stop  offset="0"  style="stop-color:#EC1F91;stop-opacity:1" />
<stop  offset="0.486275"  style="stop-color:#FA5BBF;stop-opacity:1" />
<stop  offset="0.666667"  style="stop-color:#F74BB3;stop-opacity:1" />
<stop  offset="0.988235"  style="stop-color:#E7067E;stop-opacity:1" />
</radialGradient>
<path style="fill:url(#RadialGradID_785) " d="M68,46.95L68.3 46.95L69.05 47.1L70.35 47.25L71.45 47.05L72.15 46.95L72 47.25L71.9 47.3L71.85 47.3L71.85 47.35L71.8 47.4L71.6 47.55L70.7 47.85L70.65 47.85L70.3 47.85L70.25 47.85L69.55 47.85L69.2 47.85L68.8 47.7L68.75 47.7L68.6 47.55L68.45 47.5L68.35 47.4L68.25 47.3L68.05 47.1L68 46.95" />
<radialGradient
id="RadialGradID_786" gradientUnits="userSpaceOnUse" gradientTransform="matrix(0.00279236, 0.000106812, -7.62939e-005, 0.00315857, 70.15, 47.8)" spreadMethod ="pad" cx="0" cy="0" r="819.2" fx="0" fy="0" >
<stop  offset="0.211765"  style="stop-color:#E8208F;stop-opacity:1" />
<stop  offset="1"  style="stop-color:#D41F86;stop-opacity:1" />
</radialGradient>
<path style="fill:url(#RadialGradID_786) " d="M72.1,46.85L72.45 46.75L72.4 46.8L72.3 47.25L72.25 47.35L71.9 47.65L71.2 47.95L71.15 47.95L70.75 48.05L70.5 48.1L70.3 48.1L69.65 48.15L68.7 47.95L68.7 47.9L68.1 47.5L67.85 47.2L67.75 46.75L67.85 46.75L67.95 46.8L68.25 46.85L68.35 46.9L68.45 46.9L68.6 46.9L68.6 46.95L69.85 47.1L70.15 47.1L71.65 46.95L71.9 46.9L72.1 46.85M68.05,47.1L68.25 47.3L68.35 47.4L68.45 47.5L68.6 47.55L68.75 47.7L68.8 47.7L69.2 47.85L69.55 47.85L70.25 47.85L70.3 47.85L70.65 47.85L70.7 47.85L71.6 47.55L71.8 47.4L71.85 47.35L71.85 47.3L71.9 47.3L72 47.25L72.15 46.95L71.45 47.05L70.35 47.25L69.05 47.1L68.3 46.95L68 46.95L68.05 47.1" />
<path style="fill:#EEDBD4;fill-opacity:1" d="M71.25,46.7L70.8 46.65L70.1 46.7L69.9 46.7L69.85 46.7L69.35 46.6L69.05 46.75L68.7 46.65L68.6 46.6L68.5 46.55L68.45 46.5L68.85 46.45L69.25 46.45L69.95 46.6L70 46.65L70.9 46.4L71.35 46.45L71.65 46.5L71.25 46.7M71.65,46.95L71.6 46.95L71.6 46.9L71.65 46.95" />
<path style="fill:#FFFAF7;fill-opacity:1" d="M71.25,46.7L70.2 46.85L69.95 46.8L69.05 46.75L69.35 46.6L69.85 46.7L69.9 46.7L70.1 46.7L70.8 46.65L71.25 46.7" />
<path style="fill:#2B0011;fill-opacity:0.611765" d="M69.4,45.6L69.35 45.55L69.45 45.55L69.45 45.6L69.4 45.65L69.35 45.65L69.4 45.6M69.35,45.65L69.1 45.65L69.05 45.6L69.1 45.55L69.15 45.55L69.15 45.6L69.25 45.65L69.35 45.65M68.6,45.75L68.7 45.75L68.75 45.75L68.75 45.65L68.85 45.7L68.8 45.8L68.85 45.8L68.85 45.85L68.9 45.9L68.95 46L68.9 46L68.85 46.05L68.85 46L68.8 46L68.75 45.9L68.75 45.85L68.75 45.8L68.45 45.75L68.55 45.7L68.6 45.75M68.6,45.65L68.7 45.65L68.65 45.7L68.6 45.65M68.9,45.75L69.05 45.7L68.95 45.8L68.9 45.8L68.9 45.75M68.8,45.95L68.85 45.95L68.85 45.9L68.8 45.85L68.8 45.95M68.35,46L68.3 46.05L68.1 46L68.15 46L68.25 46L68.3 46L68.3 45.9L68.4 45.95L68.35 46M68.45,46.4L68.3 46.5L68.3 46.55L68.35 46.55L68.4 46.5L68.5 46.45L68.45 46.55L68.25 46.6L68.25 46.5L68.35 46.45L68.35 46.4L68.45 46.35L68.5 46.4L68.45 46.4M68.65,46.35L68.7 46.35L68.75 46.45L68.65 46.45L68.6 46.4L68.65 46.35M68.85,46.25L68.85 46.3L68.9 46.35L68.8 46.35L68.8 46.25L68.85 46.25M68.85,46.05L68.9 46.1L68.95 46.15L68.85 46.15L68.8 46.15L68.75 46.1L68.8 46.05L68.85 46.05M69.5,45.75L69.45 45.75L69.4 45.7L69.5 45.7L69.55 45.7L69.55 45.75L69.5 45.75M69.6,45.85L69.65 45.85L69.65 45.95L69.55 45.95L69.5 45.9L69.55 45.9L69.6 45.85M69.4,46.35L69.45 46.3L69.45 46.25L69.55 46.2L69.6 46.2L69.6 46.25L69.65 46.3L69.55 46.35L69.6 46.3L69.55 46.25L69.5 46.3L69.45 46.35L69.4 46.35M69.55,46.05L69.65 46.05L69.65 46.1L69.6 46.1L69.55 46.05M70.2,45.65L70.2 45.6L70.25 45.6L70.25 45.65L70.3 45.65L70.4 45.7L70.45 45.65L70.4 45.55L70.45 45.55L70.55 45.65L70.45 45.7L70.4 45.7L70.2 45.65M70.4,45.6L70.3 45.6L70.3 45.55L70.35 45.55L70.4 45.6M70.8,45.55L70.85 45.55L70.85 45.5L70.95 45.5L70.9 45.55L70.85 45.6L70.6 45.55L70.7 45.55L70.8 45.55M70.2,46.2L70.2 46.3L70.25 46.25L70.35 46.2L70.35 46.15L70.4 46.15L70.4 46.2L70.4 46.3L70.3 46.3L70.25 46.35L70.2 46.35L70.15 46.3L70.15 46.2L70.1 46.15L70.1 46.1L70.2 46.05L70.25 46.1L70.3 46.15L70.2 46.2M70,45.7L70.05 45.7L70 45.75L69.95 45.75L70 45.7M69.75,45.65L69.75 45.7L69.8 45.7L69.95 45.75L69.7 45.7L69.65 45.7L69.7 45.65L69.75 45.6L69.8 45.65L69.75 45.65M69.75,46.3L69.7 46.3L69.7 46.15L69.75 46.15L69.8 46.2L69.8 46.25L69.75 46.3M70.75,45.7L70.75 45.75L70.8 45.75L70.85 45.8L70.85 45.85L70.95 45.95L70.75 46L70.7 46L70.65 45.95L70.6 45.9L70.55 45.85L70.55 45.8L70.65 45.8L70.65 45.75L70.75 45.7M70.75,45.8L70.7 45.85L70.7 45.9L70.75 45.95L70.85 45.9L70.8 45.85L70.75 45.8M67.7,46.35L67.6 46.45L67.5 46.45L67.6 46.4L67.7 46.35M68.05,46.35L67.95 46.35L67.95 46.4L67.85 46.4L67.85 46.35L67.9 46.35L67.95 46.35L67.95 46.3M67.95,46.3L68.05 46.25L68.05 46.35M67.95,46.1L68 46.15L67.95 46.25L67.85 46.25L67.9 46.2L67.95 46.2L67.9 46.15L67.95 46.1M67.65,46.5L67.75 46.45L67.75 46.4L67.8 46.4L67.7 46.5L67.6 46.5L67.55 46.5L67.6 46.45L67.65 46.45L67.65 46.5M67.85,46.6L67.85 46.65L67.75 46.6L67.75 46.55L67.85 46.5L67.85 46.55L67.9 46.5L68 46.45L68 46.5L68.05 46.5L67.95 46.65L67.9 46.65L67.85 46.6M67.85,47L67.85 46.9L67.85 46.85L67.9 46.85L67.9 46.8L67.95 46.85L68.05 46.85L68.05 46.9L68.1 46.95L68.05 47L68 47L68 46.9L67.9 46.9L67.9 47L67.85 47M67.9,47L68 47L68 47.05L67.9 47M68.25,47.6L68.1 47.5L68 47.4L68.05 47.3L68.1 47.35L68.2 47.3L68.25 47.3L68.4 47.45L68.25 47.6M68.25,47.5L68.3 47.5L68.3 47.45L68.25 47.4L68.2 47.35L68.15 47.4L68.15 47.45L68.2 47.45L68.25 47.5M68.1,47.25L68.2 47.25L68.15 47.3L68.1 47.3L68.05 47.25L68.05 47.2L68.1 47.25M70.5,47.15L70.45 47.2L70.35 47.15L70.5 47.15M70.7,47.15L70.75 47.1L70.8 47.1L70.7 47.25L70.75 47.3L70.7 47.3L70.6 47.2L70.6 47.15L70.7 47.1L70.7 47.15M70,47.15L70 47.2L69.95 47.25L69.95 47.35L69.9 47.45L69.85 47.45L69.75 47.45L69.75 47.4L69.7 47.4L69.7 47.3L69.75 47.3L69.75 47.2L69.85 47.2L69.9 47.15L70 47.15M69.9,47.25L69.95 47.25L69.95 47.2L69.85 47.2L69.9 47.25M70.05,47.2L70.1 47.15L70.25 47.15L70.3 47.2L70.35 47.25L70.35 47.3L70.35 47.35L70.3 47.4L70.25 47.35L70.2 47.3L70.25 47.3L70.15 47.3L70.15 47.25L70.1 47.2L70.05 47.2M70.2,47.25L70.25 47.25L70.25 47.2L70.15 47.2L70.2 47.25M69.75,47.35L69.8 47.4L69.85 47.4L69.85 47.3L69.75 47.3L69.75 47.35M69.75,47.55L69.75 47.6L69.8 47.6L69.85 47.65L69.75 47.7L69.55 47.6L69.5 47.6L69.5 47.55L69.55 47.5L69.7 47.5L69.75 47.55M69.65,47.95L69.75 47.95L69.75 47.9L69.7 47.85L69.6 47.85L69.6 47.95L69.65 47.95M69.55,47.95L69.5 47.9L69.5 47.85L69.55 47.8L69.65 47.8L69.75 47.8L69.75 47.85L69.8 47.9L69.7 48.05L69.6 48L69.6 47.95L69.55 47.95M69.7,47.6L69.65 47.55L69.6 47.6L69.65 47.65L69.75 47.65L69.7 47.6M70.1,47.7L69.95 47.7L69.95 47.6L70.05 47.6L70.1 47.65L70.1 47.7M70.35,48.15L70.25 48.15L70.15 48.15L70.15 48.1L70.1 48.05L70.05 48.05L70.1 47.95L70.15 47.95L70.3 48L70.35 48.1L70.35 48.15M70.1,47.85L70.05 47.9L69.95 47.85L69.9 47.85L69.95 47.8L70 47.8L70.05 47.75L70.1 47.85M69.6,48.1L69.6 48.15L69.5 48.15L69.45 48.15L69.45 48.05L69.55 48.05L69.6 48.05L69.7 48.1L69.75 48.15L69.75 48.05L69.8 48L69.85 48L69.9 47.95L70 47.95L70 48L69.95 48.1L69.95 48.15L69.8 48.15L69.75 48.15L69.65 48.15L69.6 48.1M70.5,47.3L70.55 47.3L70.6 47.3L70.55 47.35L70.5 47.35L70.5 47.3M70.55,47.95L70.5 47.95L70.45 48L70.3 47.95L70.2 47.85L70.25 47.8L70.4 47.8L70.55 47.95M70.25,47.65L70.3 47.65L70.4 47.7L70.35 47.75L70.3 47.75L70.25 47.65M70.45,47.9L70.4 47.85L70.35 47.85L70.35 47.9L70.4 47.95L70.5 47.95L70.45 47.9M70.85,47.7L70.95 47.7L71.05 47.75L71.1 47.8L71.05 47.8L71.05 47.9L71 47.9L70.85 47.85L70.85 47.7M69.4,47.15L69.45 47.2L69.45 47.25L69.5 47.2L69.55 47.2L69.5 47.15L69.45 47.1L69.55 47.1L69.6 47.15L69.5 47.3L69.35 47.25L69.25 47.1L69.25 47.05L69.4 47.1L69.4 47.15M68.65,47.1L68.75 47.1L68.8 47.1L68.8 47.05L68.95 47.2L68.85 47.3L68.8 47.3L68.75 47.3L68.65 47.15L68.65 47.1M68.85,47.25L68.9 47.25L68.85 47.15L68.8 47.1L68.8 47.15L68.8 47.2L68.8 47.3L68.85 47.25M68.8,48L68.8 47.95L68.85 47.95L68.85 48L68.8 48M68.7,47.9L68.75 47.95L68.6 47.9L68.7 47.85L68.7 47.9M69.2,47.6L69.15 47.65L69.25 47.75L69.35 47.65L69.3 47.6L69.35 47.6L69.4 47.65L69.45 47.7L69.35 47.8L69.25 47.8L69.15 47.75L69.1 47.7L69.05 47.65L69.05 47.6L69.1 47.6L69.1 47.55L69.2 47.5L69.2 47.55L69.25 47.6L69.2 47.6M70.25,48.05L70.2 48L70.15 48L70.15 48.05L70.2 48.1L70.25 48.1L70.25 48.05M69.95,48L69.85 48.05L69.9 48.1L69.95 48.1L69.95 48M71.4,45.6L71.5 45.65L71.4 45.7L71.35 45.7L71.1 45.55L71.1 45.5L71.2 45.5L71.2 45.55L71.25 45.6L71.35 45.65L71.4 45.65L71.4 45.6M71.25,45.95L71 45.8L71 45.75L71.05 45.7L71.2 45.7L71.25 45.75L71.3 45.8L71.35 45.8L71.4 45.9L71.3 45.95L71.25 45.95M71.5,45.8L71.55 45.8L71.65 45.9L71.65 45.95L71.5 45.95L71.5 45.8M71.2,45.8L71.15 45.75L71.1 45.75L71.1 45.8L71.15 45.85L71.25 45.9L71.3 45.9L71.3 45.8L71.2 45.8M71.1,46.05L71.1 46.15L71.15 46.2L71.25 46.15L71.25 46.05L71.3 46.05L71.35 46.1L71.2 46.3L71.1 46.25L71.1 46.2L71.05 46.15L71 46.1L71 46.05L71.05 46L71.15 46L71.2 46.05L71.1 46.05M71,46.45L70.95 46.45L70.95 46.3L71.05 46.25L71.1 46.3L71.2 46.35L71.05 46.35L71.05 46.4L71.1 46.45L71 46.45M71.1,46.45L71.2 46.35L71.25 46.4L71.3 46.45L71.25 46.5L71.1 46.45M71.5,46.25L71.4 46.3L71.45 46.35L71.4 46.4L71.35 46.35L71.3 46.35L71.3 46.3L71.35 46.25L71.4 46.25L71.45 46.2L71.55 46.2L71.55 46.25L71.5 46.3L71.5 46.25M71.5,46L71.6 46L71.65 46.05L71.45 46.05L71.5 46M71.95,45.95L71.9 45.95L71.7 45.8L71.75 45.8L71.8 45.85L71.85 45.9L71.95 45.95M71.65,46.2L71.7 46.2L71.8 46.25L71.85 46.35L71.75 46.35L71.65 46.35L71.65 46.55L71.5 46.5L71.55 46.4L71.6 46.35L71.65 46.35L71.65 46.3L71.6 46.25L71.65 46.2M71.7,46.25L71.7 46.3L71.75 46.3L71.75 46.25L71.7 46.25M72,46.15L72 46.1L71.9 46.1L71.9 46.15L72 46.25L72.05 46.2L72.1 46.2L72.1 46.15L72.15 46.2L72.15 46.25L72.1 46.25L72 46.3L71.8 46.15L71.8 46.05L71.9 46.05L72 46.1L72.05 46.15L72 46.15M72.25,46.35L72.25 46.4L72.3 46.45L72.3 46.5L72.4 46.45L72.4 46.5L72.3 46.55L72.25 46.55L72.2 46.5L72.2 46.4L72.15 46.35L72.2 46.3L72.25 46.3L72.35 46.35L72.25 46.35M72.35,46.25L72.15 46.15L72.15 46.1L72.2 46.1L72.25 46.15L72.3 46.2L72.35 46.25M72.6,46.5L72.65 46.45L72.7 46.45L72.6 46.5M72.2,46.65L72.05 46.65L72.05 46.6L72.1 46.55L72.15 46.6L72.2 46.65M72.25,46.95L72.3 47L72.2 47L72.25 46.95M72.35,47.05L72.35 47.2L72.3 47.15L72.25 47.15L72.3 47.1L72.35 47.05M72.15,47.15L72.05 47.15L72.1 47.1L72.2 47.1L72.2 47.15L72.15 47.2L72.15 47.15M72.15,47.2L72.15 47.25L72.05 47.3L72 47.3L71.95 47.25L71.95 47.15L72.05 47.15L72.1 47.2L72.15 47.2M72.2,47.3L72.25 47.35L72.15 47.4L72.05 47.4L71.95 47.4L71.95 47.35L72.05 47.35L72.1 47.35L72.15 47.35L72.2 47.35L72.15 47.3L72.2 47.3M71.65,47.15L71.65 47.2L71.7 47.2L71.7 47.15L71.65 47.15M71.65,47.1L71.75 47.15L71.8 47.25L71.65 47.25L71.55 47.15L71.6 47.1L71.65 47.1M71.85,47.05L71.9 47.1L71.9 47.05L71.95 47.05L71.9 47.15L71.75 47.1L71.65 47L71.8 47L71.85 47.05M71.05,47.05L71.05 47.1L71.15 47.15L71.15 47.2L71.05 47.2L70.95 47.2L70.9 47.15L70.85 47.1L70.95 47.1L71.05 47.05M71,47.15L71.05 47.15L71.05 47.1L70.95 47.1L71 47.15M71.25,47.3L71.25 47.2L71.3 47.15L71.35 47.15L71.4 47.1L71.5 47.1L71.5 47.15L71.45 47.2L71.45 47.3L71.6 47.3L71.65 47.35L71.65 47.55L71.45 47.55L71.45 47.4L71.45 47.3L71.35 47.3L71.3 47.3L71.25 47.3M71.25,47.1L71.15 47.05L71.3 47.05L71.25 47.1M71.45,47.15L71.35 47.2L71.4 47.25L71.45 47.2L71.45 47.15M71.35,47.55L71.4 47.6L71.45 47.6L71.4 47.65L71.3 47.6L71.3 47.55L71.35 47.55M71.5,47.5L71.6 47.5L71.6 47.45L71.6 47.35L71.5 47.35L71.5 47.45L71.5 47.5M70.95,47.75L70.9 47.8L70.95 47.8L71 47.8L71 47.75L70.95 47.75M71.15,47.95L71.1 47.95L71.1 47.9L71.15 47.85L71.15 47.8L71.2 47.8L71.25 47.85L71.25 47.9L71.2 47.95L71.15 47.95M71.25,47.65L71.25 47.7L71.2 47.7L71.15 47.65L71.2 47.65L71.2 47.6L71.25 47.65M72.05,47.5L71.95 47.6L71.9 47.55L71.9 47.5L72.05 47.5M71.7,47.3L71.85 47.35L71.75 47.35L71.7 47.3M72.1,47.55L72.15 47.55L72.05 47.6L72.1 47.55" />
<path style="fill:#FF0049;fill-opacity:0.643137" d="M69.25,45.65L69.15 45.6L69.15 45.55L69.35 45.55L69.4 45.6L69.35 45.65L69.25 45.65M68.65,45.7L68.7 45.65L68.75 45.65L68.75 45.75L68.7 45.75L68.6 45.75L68.55 45.7L68.6 45.65L68.65 45.7M68.8,45.85L68.85 45.9L68.85 45.95L68.8 45.95L68.8 45.85M68.5,46.4L68.5 46.45L68.4 46.5L68.35 46.55L68.3 46.55L68.3 46.5L68.45 46.4L68.5 46.4M68.5,46.15L68.4 46.15L68.4 46.1L68.45 46.1L68.5 46.05L68.55 46.05L68.6 46.1L68.6 46.15L68.55 46.2L68.5 46.15M68.1,46.35L68.15 46.3L68.3 46.3L68.25 46.35L68.1 46.35M68.85,46.45L68.9 46.45L68.9 46.5L68.8 46.5L68.85 46.45M69.35,45.95L69.3 45.95L69.25 45.9L69.2 45.9L69.2 45.85L69.15 45.85L69.2 45.8L69.25 45.8L69.3 45.85L69.35 45.95M69.25,46.5L69.15 46.5L69.1 46.4L69.2 46.35L69.25 46.4L69.25 46.5M69.15,46.15L69.25 46.1L69.35 46.1L69.3 46.2L69.25 46.2L69.2 46.15L69.15 46.15M69.45,46.35L69.5 46.3L69.55 46.25L69.6 46.3L69.55 46.35L69.45 46.35M70.4,45.6L70.4 45.55L70.45 45.65L70.4 45.7L70.3 45.65L70.25 45.65L70.25 45.6L70.3 45.6L70.4 45.6M70.85,45.5L70.85 45.55L70.8 45.55L70.7 45.55L70.85 45.5M70.2,45.85L70.25 45.85L70.3 45.8L70.4 45.85L70.4 45.9L70.35 45.95L70.3 45.95L70.2 45.95L70.2 45.85M70.3,46.15L70.35 46.15L70.35 46.2L70.25 46.25L70.2 46.3L70.2 46.2L70.3 46.15M69.8,45.65L70 45.7L69.95 45.75L69.8 45.7L69.75 45.7L69.75 45.65L69.8 45.65M69.8,46.05L69.8 46L69.9 45.95L69.95 45.95L69.95 46.05L69.85 46.05L69.8 46.05M70,46.35L69.95 46.35L69.95 46.25L70 46.3L70 46.35M69.95,46.6L69.95 46.5L70.05 46.5L70.05 46.55L70.05 46.6L69.95 46.6M70.8,45.85L70.85 45.9L70.75 45.95L70.7 45.9L70.7 45.85L70.75 45.8L70.8 45.85M70.45,46.5L70.35 46.5L70.4 46.4L70.45 46.4L70.5 46.45L70.5 46.5L70.45 46.5M70.75,46.3L70.7 46.3L70.65 46.25L70.6 46.2L70.65 46.15L70.75 46.15L70.8 46.25L70.75 46.3M69.55,46.5L69.65 46.45L69.7 46.45L69.7 46.55L69.55 46.5M67.95,46.35L67.9 46.35L67.95 46.3L67.95 46.35M67.9,46.15L67.95 46.2L67.9 46.2L67.9 46.15M67.75,46.4L67.75 46.45L67.65 46.5L67.65 46.45L67.75 46.4M67.85,46.65L67.85 46.6L67.9 46.65L67.85 46.65M67.9,47L67.9 46.9L68 46.9L68 47L67.9 47M68.15,47L68.2 47L68.25 47.05L68.25 47.1L68.2 47.1L68.15 47.05L68.15 47M68.45,47.8L68.35 47.7L68.45 47.7L68.45 47.8M68.2,47.45L68.15 47.45L68.15 47.4L68.2 47.35L68.25 47.4L68.3 47.45L68.3 47.5L68.25 47.5L68.2 47.45M68.2,47.75L68.3 47.75L68.35 47.85L68.3 47.9L68.2 47.8L68.2 47.75M70.7,47.1L70.75 47.1L70.7 47.15L70.7 47.1M70.05,47.55L70.05 47.45L70.1 47.45L70.15 47.5L70.15 47.55L70.1 47.55L70.05 47.55M69.85,47.2L69.95 47.2L69.95 47.25L69.9 47.25L69.85 47.2M70.15,47.2L70.25 47.2L70.25 47.25L70.2 47.25L70.15 47.2M69.75,47.3L69.85 47.3L69.85 47.4L69.8 47.4L69.75 47.35L69.75 47.3M69.6,47.95L69.6 47.85L69.7 47.85L69.75 47.9L69.75 47.95L69.65 47.95L69.6 47.95M69.75,47.65L69.65 47.65L69.6 47.6L69.65 47.55L69.7 47.6L69.75 47.65M70.4,48.3L70.35 48.3L70.35 48.2L70.4 48.2L70.4 48.3M69.65,48.15L69.6 48.15L69.6 48.1L69.65 48.15M69.7,48.35L69.5 48.35L69.5 48.25L69.7 48.25L69.7 48.35M70.9,47.6L70.85 47.6L70.85 47.5L70.95 47.5L71.05 47.55L71 47.6L70.9 47.6M70.4,47.6L70.35 47.6L70.35 47.5L70.4 47.5L70.4 47.6M70.7,47.65L70.7 47.7L70.6 47.7L70.6 47.65L70.6 47.6L70.7 47.6L70.7 47.65M70.5,47.95L70.4 47.95L70.35 47.9L70.35 47.85L70.4 47.85L70.45 47.9L70.5 47.95M70.9,48.1L70.85 48.1L70.7 48.15L70.7 48.05L70.75 47.95L70.8 48L70.85 48L70.85 48.05L70.9 48.1M69.4,47.1L69.45 47.1L69.5 47.15L69.55 47.2L69.5 47.2L69.45 47.25L69.45 47.2L69.4 47.15L69.4 47.1M68.4,47.3L68.4 47.2L68.45 47.1L68.55 47.15L68.55 47.2L68.5 47.3L68.4 47.3M68.8,47.3L68.8 47.2L68.8 47.15L68.8 47.1L68.85 47.15L68.9 47.25L68.85 47.25L68.8 47.3M68.9,47.35L68.95 47.35L69 47.4L69 47.45L68.95 47.45L68.9 47.4L68.9 47.35M68.45,47.4L68.5 47.4L68.55 47.45L68.55 47.5L68.5 47.5L68.45 47.45L68.45 47.4M68.85,47.6L68.85 47.65L68.8 47.7L68.8 47.75L68.7 47.7L68.7 47.65L68.75 47.65L68.8 47.6L68.85 47.6M69.15,48.1L69.1 48.05L69.05 47.95L69.25 47.95L69.3 48.05L69.25 48.1L69.2 48.1L69.2 48.05L69.15 48.05L69.15 48.1M69,48.25L68.95 48.25L68.95 48.2L68.9 48.2L68.8 48.1L69 48.1L69.05 48.2L69 48.25M69.4,47.4L69.35 47.45L69.35 47.5L69.25 47.5L69.25 47.4L69.35 47.3L69.4 47.35L69.4 47.4M69.3,47.6L69.35 47.65L69.25 47.75L69.15 47.65L69.2 47.6L69.25 47.6L69.3 47.6M70.8,48.2L70.85 48.2L70.85 48.3L70.8 48.3L70.8 48.2M70.7,48.4L70.6 48.4L70.6 48.35L70.6 48.3L70.7 48.3L70.7 48.4M70.25,48.1L70.2 48.1L70.15 48.05L70.15 48L70.2 48L70.25 48.05L70.25 48.1M70.1,48.45L70.1 48.35L70.3 48.35L70.3 48.45L70.1 48.45M69.95,48.1L69.9 48.1L69.85 48.05L69.95 48L69.95 48.1M71.4,45.65L71.35 45.65L71.25 45.6L71.2 45.55L71.2 45.5L71.4 45.6L71.4 45.65M71.3,45.8L71.3 45.9L71.25 45.9L71.15 45.85L71.1 45.8L71.1 45.75L71.15 45.75L71.2 45.8L71.3 45.8M71.25,46.05L71.25 46.15L71.15 46.2L71.1 46.15L71.1 46.05L71.2 46.05L71.25 46.05M71.1,46.45L71.05 46.4L71.05 46.35L71.2 46.35L71.1 46.45M71.5,46.3L71.5 46.35L71.45 46.35L71.4 46.3L71.5 46.25L71.5 46.3M71.75,46.25L71.75 46.3L71.7 46.3L71.7 46.25L71.75 46.25M72.05,46.15L72.1 46.15L72.1 46.2L72.05 46.2L72 46.25L71.9 46.15L71.9 46.1L72 46.1L72 46.15L72.05 46.15M71.85,46.6L71.8 46.6L71.8 46.5L71.9 46.45L71.9 46.5L71.95 46.5L71.95 46.55L71.9 46.55L71.85 46.6M72.35,46.35L72.4 46.4L72.4 46.45L72.3 46.5L72.3 46.45L72.25 46.4L72.25 46.35L72.35 46.35M72.1,47.2L72.05 47.15L72.15 47.15L72.15 47.2L72.1 47.2M72.15,47.3L72.2 47.35L72.15 47.35L72.1 47.35L72.05 47.35L72.15 47.3M71.7,47.15L71.7 47.2L71.65 47.2L71.65 47.15L71.7 47.15M71.9,47.05L71.9 47.1L71.85 47.05L71.8 47L71.85 46.95L71.85 47.05L71.9 47.05M70.95,47.1L71.05 47.1L71.05 47.15L71 47.15L70.95 47.1M71.1,47.3L71.25 47.3L71.25 47.35L71.2 47.45L71.15 47.45L71.15 47.4L71.1 47.35L71.1 47.3M71.45,47.2L71.4 47.25L71.35 47.2L71.45 47.15L71.45 47.2M71.5,47.45L71.5 47.35L71.6 47.35L71.6 47.45L71.6 47.5L71.5 47.5L71.5 47.45M71,47.75L71 47.8L70.95 47.8L70.9 47.8L70.95 47.75L71 47.75M71.5,47.95L71.45 47.9L71.45 47.8L71.55 47.8L71.6 47.8L71.6 47.9L71.55 47.95L71.5 47.95M71.9,47.65L71.8 47.75L71.75 47.75L71.75 47.6L71.85 47.6L71.9 47.65M71.3,48.2L71.25 48.2L71.25 48.1L71.3 48.1L71.3 48.2M71.05,48.35L71.05 48.3L71.15 48.3L71.05 48.35" />
<path style="fill:#2B0013;fill-opacity:0.701961" d="M68.45,46.35L68.45 46.3L68.4 46.2L68.35 46.2L68.3 46.15L68.3 46.1L68.35 46.1L68.35 46.05L68.5 46L68.6 46L68.6 46.05L68.65 46.1L68.7 46.15L68.7 46.25L68.6 46.3L68.45 46.35M68.55,46.2L68.6 46.15L68.6 46.1L68.55 46.05L68.5 46.05L68.45 46.1L68.4 46.1L68.4 46.15L68.5 46.15L68.55 46.2M68.15,46.25L68.15 46.2L68.2 46.25L68.35 46.25L68.4 46.3L68.35 46.35L68.3 46.35L68.25 46.45L68.2 46.45L68.1 46.35L68.15 46.25M68.25,46.35L68.3 46.3L68.15 46.3L68.1 46.35L68.25 46.35M68.9,46.45L68.85 46.45L68.85 46.4L68.95 46.4L69 46.45L68.95 46.5L68.9 46.5L68.9 46.45M68.8,46.5L68.75 46.5L68.85 46.45L68.8 46.5M69.4,45.85L69.45 45.9L69.45 45.95L69.4 46L69.3 46L69.15 45.9L69.1 45.8L69.1 45.75L69.15 45.75L69.15 45.8L69.2 45.75L69.3 45.75L69.3 45.8L69.4 45.85M69.3,45.85L69.25 45.8L69.2 45.8L69.15 45.85L69.2 45.85L69.2 45.9L69.25 45.9L69.3 45.95L69.35 45.95L69.3 45.85M69.25,46.4L69.2 46.35L69.1 46.4L69.15 46.5L69.05 46.5L69.1 46.45L69.05 46.45L69 46.4L69 46.35L69.05 46.35L69.1 46.3L69.15 46.35L69.2 46.35L69.3 46.35L69.3 46.4L69.35 46.45L69.3 46.5L69.25 46.5L69.25 46.4M69.2,46.15L69.25 46.2L69.3 46.2L69.35 46.1L69.25 46.1L69.15 46.15L69.2 46.15M69.1,46.15L69.1 46.05L69.2 46.05L69.4 46.05L69.45 46.1L69.4 46.15L69.35 46.2L69.3 46.3L69.15 46.15L69.1 46.15M70.2,45.95L70.3 45.95L70.35 45.95L70.4 45.9L70.4 45.85L70.3 45.8L70.25 45.85L70.2 45.85L70.2 45.95M70.2,46.05L70.2 46L70.15 46L70.05 45.95L70.05 45.9L70.1 45.85L70.4 45.75L70.4 45.8L70.45 45.85L70.5 45.95L70.45 46L70.4 46.05L70.2 46.05M70,46.3L69.95 46.25L69.95 46.35L69.9 46.35L69.9 46.2L69.95 46.15L70.05 46.25L70.1 46.35L70 46.35L70 46.3M70.05,46.5L69.95 46.5L69.95 46.6L69.9 46.6L69.9 46.55L69.85 46.5L69.9 46.4L69.95 46.4L70 46.45L70.05 46.45L70.05 46.4L70.1 46.45L70.1 46.5L70.1 46.55L70.05 46.55L70.05 46.5M70.75,45.7L70.85 45.7L70.95 45.7L70.9 45.75L70.85 45.75L70.75 45.7M70.3,46.55L70.35 46.45L70.3 46.4L70.35 46.35L70.55 46.35L70.55 46.4L70.5 46.5L70.5 46.45L70.45 46.4L70.4 46.4L70.35 46.5L70.45 46.5L70.3 46.55M70.55,46.35L70.55 46.2L70.5 46.15L70.5 46.1L70.55 46.1L70.6 46.05L70.65 46.05L70.8 46.15L70.85 46.35L70.65 46.35L70.55 46.35M70.8,46.25L70.75 46.15L70.65 46.15L70.6 46.2L70.65 46.25L70.7 46.3L70.75 46.3L70.8 46.25M69.7,46.45L69.65 46.45L69.55 46.5L69.5 46.5L69.5 46.45L69.55 46.4L69.75 46.4L69.8 46.45L69.75 46.55L69.7 46.55L69.7 46.45M67.8,47.05L67.85 47.05L67.85 47.1L67.8 47.05M68.15,47.05L68.2 47.1L68.25 47.1L68.25 47.05L68.2 47L68.25 47L68.3 47.05L68.3 47.1L68.25 47.15L68.2 47.15L68.15 47.1L68.1 47.05L68.1 47L68.15 47L68.15 47.05M67.95,47.2L67.9 47.3L67.85 47.15L67.9 47.2L67.95 47.2M68.35,47.85L68.3 47.75L68.2 47.75L68.15 47.65L68.3 47.7L68.35 47.75L68.4 47.95L68.3 47.9L68.35 47.85M70,47.4L70.05 47.35L70.15 47.35L70.15 47.45L70.2 47.45L70.2 47.55L70.15 47.6L70.1 47.6L70 47.55L69.95 47.5L70 47.45L70 47.4M70.1,47.55L70.15 47.55L70.15 47.5L70.1 47.45L70.05 47.45L70.05 47.55L70.1 47.55M70.4,48.2L70.35 48.2L70.35 48.3L70.3 48.25L70.3 48.2L70.35 48.15L70.4 48.15L70.45 48.2L70.5 48.2L70.5 48.3L70.45 48.3L70.4 48.3L70.4 48.2M69.7,48.25L69.5 48.25L69.5 48.35L69.45 48.35L69.45 48.25L69.4 48.25L69.4 48.2L69.5 48.2L69.5 48.15L69.6 48.15L69.7 48.2L69.75 48.25L69.75 48.35L69.7 48.35L69.7 48.25M71,47.6L71.05 47.55L70.95 47.5L70.85 47.5L70.85 47.6L70.8 47.6L70.8 47.5L70.8 47.45L70.85 47.35L70.95 47.35L71 47.4L71 47.5L71.05 47.5L71.05 47.55L71.1 47.6L71.05 47.6L71 47.65L70.9 47.6L71 47.6M70.4,47.5L70.35 47.5L70.35 47.6L70.3 47.55L70.3 47.5L70.35 47.45L70.4 47.45L70.45 47.5L70.5 47.5L70.5 47.6L70.45 47.6L70.4 47.6L70.4 47.5M70.7,47.6L70.6 47.6L70.6 47.65L70.6 47.7L70.7 47.7L70.7 47.8L70.55 47.75L70.55 47.65L70.55 47.5L70.7 47.5L70.7 47.6L70.75 47.6L70.7 47.65L70.7 47.6M70.85,48.05L70.85 48L70.8 48L70.75 47.95L70.7 48.05L70.7 48.15L70.65 48.15L70.65 48.05L70.7 48L70.7 47.9L70.75 47.9L70.75 47.95L70.9 47.95L70.95 48.1L70.9 48.1L70.85 48.05M69.5,47.3L69.55 47.35L69.5 47.45L69.45 47.5L69.4 47.55L69.35 47.55L69.25 47.55L69.2 47.45L69.15 47.4L69.15 47.35L69.1 47.35L69.2 47.3L69.4 47.3L69.5 47.3M68.55,47.1L68.6 47.1L68.6 47.15L68.6 47.25L68.55 47.3L68.4 47.3L68.35 47.25L68.4 47.15L68.35 47.1L68.4 47.05L68.4 47L68.45 47L68.55 47L68.6 47.05L68.55 47.1M68.5,47.3L68.55 47.2L68.55 47.15L68.45 47.1L68.4 47.2L68.4 47.3L68.5 47.3M68.9,47.4L68.95 47.45L69 47.45L69 47.4L68.95 47.35L68.9 47.35L68.9 47.4M68.95,47.3L69 47.35L69.05 47.4L69.05 47.45L69 47.55L68.95 47.55L68.9 47.5L68.85 47.4L68.85 47.35L68.9 47.35L68.95 47.3M68.8,47.5L68.85 47.55L68.85 47.6L68.9 47.65L68.95 47.7L68.9 47.75L68.9 47.8L68.85 47.8L68.75 47.85L68.7 47.8L68.7 47.75L68.65 47.75L68.55 47.7L68.55 47.65L68.65 47.6L68.7 47.55L68.8 47.5M68.5,47.5L68.55 47.5L68.55 47.45L68.5 47.4L68.45 47.4L68.5 47.35L68.55 47.4L68.6 47.4L68.6 47.45L68.65 47.5L68.55 47.6L68.5 47.6L68.45 47.55L68.45 47.45L68.5 47.5M68.4,47.4L68.45 47.4L68.45 47.45L68.4 47.4M68.8,47.6L68.75 47.65L68.7 47.65L68.7 47.7L68.8 47.75L68.8 47.7L68.85 47.65L68.85 47.6L68.8 47.6M69.05,48.2L69 48.1L68.8 48.1L68.7 48.05L68.8 48.05L68.8 48L68.85 48L69 48.05L69 47.95L68.95 47.95L68.95 47.9L69.05 47.9L69.05 47.85L69.1 47.85L69.25 47.9L69.3 47.95L69.35 48.15L69.25 48.1L69.3 48.05L69.25 47.95L69.05 47.95L69.1 48.05L69.15 48.1L69.15 48.05L69.2 48.05L69.2 48.1L69.15 48.1L69 48.05L69.05 48.1L69.1 48.3L69 48.25L69.05 48.2M69.4,47.35L69.35 47.3L69.25 47.4L69.25 47.5L69.35 47.5L69.35 47.45L69.4 47.4L69.4 47.35M70.8,48.3L70.75 48.25L70.75 48.2L70.8 48.15L70.85 48.15L70.9 48.2L70.95 48.2L70.95 48.3L70.9 48.3L70.85 48.3L70.85 48.2L70.8 48.2L70.8 48.3M70.6,48.3L70.6 48.35L70.6 48.4L70.7 48.4L70.6 48.45L70.5 48.45L70.55 48.35L70.55 48.2L70.7 48.2L70.7 48.3L70.6 48.3M70.3,48.35L70.1 48.35L70.1 48.45L70 48.4L70.05 48.35L70 48.35L70 48.3L70.1 48.3L70.1 48.25L70.15 48.25L70.3 48.3L70.35 48.35L70.35 48.45L70.3 48.45L70.3 48.35M71.9,46.5L71.9 46.45L71.8 46.5L71.8 46.6L71.75 46.6L71.75 46.55L71.7 46.5L71.75 46.45L71.8 46.45L71.85 46.4L71.9 46.4L72 46.45L71.95 46.5L71.9 46.5M71.9,46.55L71.95 46.55L71.9 46.6L71.85 46.6L71.9 46.55M71.1,47.35L71.15 47.4L71.15 47.45L71.2 47.45L71.25 47.35L71.25 47.3L71.3 47.3L71.3 47.4L71.3 47.5L71.25 47.5L71.2 47.5L71.1 47.45L71.05 47.3L71.1 47.3L71.1 47.35M71.2,47.95L71.3 47.95L71.3 48L71.1 48.05L71.1 48L71.15 47.95L71.2 47.95M71.85,47.6L71.75 47.6L71.75 47.75L71.7 47.75L71.7 47.65L71.7 47.55L71.7 47.5L71.8 47.5L71.8 47.55L71.9 47.6L71.9 47.65L71.85 47.6M71.3,48.1L71.25 48.1L71.25 48.2L71.2 48.15L71.2 48.1L71.25 48.05L71.3 48.05L71.35 48.1L71.4 48.1L71.4 48.2L71.35 48.2L71.3 48.2L71.3 48.1M71.45,48.15L71.45 48.1L71.5 48.1L71.45 48.15M71.05,48.3L71.05 48.35L71 48.35L71 48.2L71.15 48.2L71.15 48.3L71.05 48.3" />
<path style="fill:#63002D;fill-opacity:0.65098" d="M69.7,46L69.75 45.9L69.75 45.8L69.8 45.8L69.85 45.85L70 46.05L70 46.1L69.95 46.1L69.85 46.15L69.8 46.15L69.8 46.05L69.7 46M69.85,46.05L69.95 46.05L69.95 45.95L69.9 45.95L69.8 46L69.8 46.05L69.85 46.05M68.45,47.7L68.35 47.7L68.2 47.6L68.25 47.6L68.3 47.6L68.35 47.65L68.5 47.7L68.5 47.85L68.45 47.8L68.45 47.7M71.6,47.8L71.55 47.8L71.45 47.8L71.45 47.9L71.5 47.95L71.35 47.95L71.35 47.8L71.35 47.75L71.4 47.7L71.45 47.7L71.5 47.65L71.55 47.65L71.6 47.65L71.65 47.7L71.6 47.75L71.65 47.85L71.6 47.9L71.6 47.8" />
<radialGradient
id="RadialGradID_787" gradientUnits="userSpaceOnUse" gradientTransform="matrix(0.00431824, 0, -6.10352e-005, 0.00227356, 70.05, 45.4)" spreadMethod ="pad" cx="0" cy="0" r="819.2" fx="0" fy="0" >
<stop  offset="0"  style="stop-color:#FFB2DE;stop-opacity:0.501961" />
<stop  offset="1"  style="stop-color:#FF5CBE;stop-opacity:0.152941" />
</radialGradient>
<path style="fill:url(#RadialGradID_787) " d="M71.3,46.15L71.15 46.05L70.2 46.1L69.6 46.1L68.9 46.25L68.75 46.25L68.65 46.25L68.6 46.15L68.6 46L68.85 45.9L68.9 45.85L69.25 45.8L69.4 45.8L69.55 45.85L69.65 45.9L70.15 45.95L70.8 45.9L70.75 45.85L70.65 45.8L71.05 45.8L71.45 45.9L71.5 45.95L71.75 46.2L71.65 46.2L71.35 46.15L71.3 46.15" />
<radialGradient
id="RadialGradID_788" gradientUnits="userSpaceOnUse" gradientTransform="matrix(0.00392151, 0, -9.15527e-005, 0.00337219, 70.1, 46.05)" spreadMethod ="pad" cx="0" cy="0" r="819.2" fx="0" fy="0" >
<stop  offset="0"  style="stop-color:#AD0046;stop-opacity:0.160784" />
<stop  offset="1"  style="stop-color:#8F003D;stop-opacity:0.560784" />
</radialGradient>
<path style="fill:url(#RadialGradID_788) " d="M72.35,46.5L72.25 46.5L71.75 46.4L71.6 46.3L71.1 46.3L71 46.3L70.25 46.35L69.95 46.3L69.55 46.3L69.25 46.3L68.8 46.4L68.5 46.45L68.2 46.45L68.1 46.45L68 46.45L67.6 46.45L67.75 46.4L68.05 46.25L68.15 46.3L68.3 46.3L68.7 46.3L69.65 46.2L70.3 46.25L71.3 46.15L71.7 46.3L72.1 46.3L71.9 46L72.15 46.2L72.2 46.3L72.25 46.3L72.35 46.4L72.75 46.45L72.35 46.5" />
<radialGradient
id="RadialGradID_789" gradientUnits="userSpaceOnUse" gradientTransform="matrix(0.00354004, 0, -0.00012207, 0.00485229, 69.8, 46.95)" spreadMethod ="pad" cx="0" cy="0" r="819.2" fx="0" fy="0" >
<stop  offset="0"  style="stop-color:#87003A;stop-opacity:0.243137" />
<stop  offset="1"  style="stop-color:#4F0025;stop-opacity:0.870588" />
</radialGradient>
<path style="fill:url(#RadialGradID_789) " d="M72.75,46.45L72.8 46.45L72.8 46.55L72.3 46.65L72.05 46.6L71.95 46.6L71.85 46.6L71.4 46.5L71 46.45L70.9 46.45L69.95 46.65L69.9 46.6L69.35 46.5L68.95 46.5L68.5 46.55L68.45 46.55L68.15 46.6L68.05 46.6L67.4 46.5L67.4 46.4L67.6 46.45L68 46.45L68.1 46.45L68.2 46.45L68.5 46.45L68.8 46.4L69.25 46.3L69.55 46.3L69.95 46.3L70.25 46.35L71 46.3L71.1 46.3L71.6 46.3L71.75 46.4L72.25 46.5L72.35 46.5L72.75 46.45" />
<radialGradient
id="RadialGradID_790" gradientUnits="userSpaceOnUse" gradientTransform="matrix(0.00279236, 0, -7.62939e-005, 0.0027771, 70.05, 47.95)" spreadMethod ="pad" cx="0" cy="0" r="819.2" fx="0" fy="0" >
<stop  offset="0"  style="stop-color:#9E0044;stop-opacity:0.0901961" />
<stop  offset="1"  style="stop-color:#B3004D;stop-opacity:0.443137" />
</radialGradient>
<path style="fill:url(#RadialGradID_790) " d="M68.3,46.9L68.3 47L68.35 47.25L68.45 47.35L68.55 47.5L68.55 47.55L68.85 47.75L68.95 47.75L68.95 47.8L69.25 47.9L69.5 47.9L69.55 47.9L70.3 47.9L70.8 47.9L71.3 47.8L71.65 47.6L71.7 47.55L71.8 47.55L71.9 47.35L72 47.2L72 47.05L72 46.9L72.1 46.9L72.45 46.85L72.4 47.1L72.4 47.15L71.3 48L71.25 48L70.85 48.1L70.55 48.15L69.7 48.2L68.8 48L68.7 47.95Q68.05 47.55 67.75 46.95L67.75 46.85L67.7 46.75L67.95 46.8L68.05 46.85L68.3 46.9" />
<radialGradient
id="RadialGradID_791" gradientUnits="userSpaceOnUse" gradientTransform="matrix(0.00393677, 0, -6.10352e-005, 0.00247192, 70.15, 47.5)" spreadMethod ="pad" cx="0" cy="0" r="819.2" fx="0" fy="0" >
<stop  offset="0"  style="stop-color:#FFC4E5;stop-opacity:0.713725" />
<stop  offset="1"  style="stop-color:#FF5CBE;stop-opacity:0.152941" />
</radialGradient>
<path style="fill:url(#RadialGradID_791) " d="M70.05,47.8L69.4 47.7L69.35 47.65L69.25 47.6L69.1 47.45L69.3 47.4L70.1 47.45L71.5 47.25L71.35 47.45L71.2 47.55L70.75 47.7L70.15 47.8L70.05 47.8" />
</g>
</svg>
