<?xml version="1.0" encoding="utf-8"?>
<svg version="1.1" id="Layer_1"
xmlns="http://www.w3.org/2000/svg"
xmlns:xlink="http://www.w3.org/1999/xlink"
xmlns:author="http://www.sothink.com"
width="6px" height="11px"
xml:space="preserve">
<g id="504" transform="matrix(1, 0, 0, 1, -88.25, -46.2)">
<path style="fill:#823909;fill-opacity:1" d="M92.85,54.7L93.05 54.85L93.1 55.15L93.1 55.35L92.95 55.5L92.8 55.55L92.75 55.55L92.7 55.55L92.45 55.45L92.35 55.35L92.3 55.2L92.2 55.2L91.9 55.3L91.7 55.4L91.65 55.4L91.75 55.3L91.75 55.25Q92.25 54.65 92.7 54.65L92.75 54.65L92.85 54.7M89,54.65L89.05 54.65L89.2 54.65L89.75 55L90 55.25L90 55.3L90.05 55.35L90.1 55.35L90 55.35L89.8 55.35L89.45 55.25L89.2 55.45L89.05 55.55L88.9 55.65L88.85 55.65L88.8 55.6L88.75 55.5L88.7 55.45L88.65 55.15L88.7 54.95L88.75 54.9L88.75 54.85L88.8 54.75L88.95 54.65L89 54.65" />
<path style="fill:#F9C29F;fill-opacity:1" d="M92.85,54.7L92.85 54.65L92.75 54.65L92.7 54.65Q92.25 54.65 91.75 55.25L91.75 55.3L91.4 55.45L90.85 55.5L90.35 55.45L90.1 55.35L90.05 55.35L90 55.3L90 55.25L89.75 55L89.2 54.65L89.05 54.65L89 54.65L88.95 54.65L88.8 54.75L88.75 54.85L88.75 54.9L88.7 54.95L88.65 55.15L88.7 55.45L88.75 55.5L88.8 55.6L89.05 55.8L89.3 55.6L89.65 55.35L90.1 55.55L90.15 55.55L90.15 55.6L90.15 55.55L90.2 55.6L89.75 55.6L89.5 55.8L89.05 56L89 56.05L88.8 56.15L88.5 56L88.4 55.75L88.3 55.5L88.3 55.45Q88.25 54.45 88.95 54.15L89.6 53.8L89.65 53.8L89.95 53.65Q90.25 53.45 90.4 53.5L91.25 53.45L91.55 53.55L91.8 53.65L91.9 53.6L91.9 53.65L91.95 53.55L92.05 53.55L92.05 53.5L92.1 53.4L92.3 52.75L92.3 52.7L92.15 52L91.95 50.55L91.8 48.65L91.75 47.15L91.75 46.8L92.15 49L92.95 51.7L93.45 52.85L93.65 53.25L93.95 53.95L94.1 55.2L94 55.8L93.5 56.15L92.55 56.4L92.15 56.3L92.15 56.25L91.95 56.15L91.9 56.15L91.7 55.95L91.2 55.7L91.75 55.5L92.15 55.3L92.35 55.35L92.45 55.45L92.7 55.55L92.75 55.55L92.8 55.55L92.95 55.5L92.9 55.65L92.85 55.7L93.1 55.8L93.3 55.85L93.75 55.5L94.05 54.95L93.95 54.1L93.65 53.55L93.2 52.95L92.65 52.05L92.65 52.3L92.7 52.65L92.75 53.05L92.95 53.25L93.1 53.45L93.3 53.7L93.5 54.05L93.7 54.45L93.7 54.55L93.75 54.8L93.75 54.9L93.75 54.95L93.75 55L93.7 55.05L93.35 55.3L93.25 55.25L93.25 55.2L93.2 55.15L93.15 55.05L93.1 54.85L93.05 54.85L92.85 54.7M92.5,54.1L92.7 54.45L92.95 54.55L93.05 54.6L93.1 54.65L93.3 54.95L93.45 55.15L93.55 55.05L93.55 55L93.6 54.95L93.4 54.25L92.85 53.65L92.7 53.65L92.5 53.8L92.5 54L92.5 54.1M93.1,55.6L93.1 55.65L93.05 55.65L93.1 55.6" />
<path style="fill:#FCE0CF;fill-opacity:1" d="M91.75,46.8L91.75 47.15L91.8 48.65L91.95 50.55L92.15 52L92.3 52.7L92.3 52.75L92.1 53.4L92.05 53.5L92.05 53.55L91.95 53.55L91.9 53.65L91.9 53.6L91.8 53.65L91.55 53.55L91.25 53.45L90.4 53.5Q90.25 53.45 89.95 53.65L89.65 53.8L89.6 53.8L88.95 54.15Q88.25 54.45 88.3 55.45L88.25 55.3L88.25 55.25L88.35 54.55L88.7 54.05L88.75 54.05Q88.95 53.9 89.2 53.9L89.25 53.9L89.25 53.85L89.55 53.65L90.15 53.15L90.2 53.15L90.85 53.05L91.6 53.15L91.8 53.1L91.85 53.1L91.85 53L91.85 52.75L91.75 51.5L91.45 48L91.6 46.85L91.7 46.5L91.8 46.3L91.8 46.25L91.85 46.2L91.8 46.55L91.75 46.8M92.75,54.65L92.85 54.65L92.85 54.7L92.75 54.65M92.5,54L92.5 53.8L92.7 53.65L92.85 53.65L93.4 54.25L93.6 54.95L93.55 55L93.55 55.05L93.45 55.15L93.3 54.95L93.1 54.65L93.05 54.6L92.95 54.55L92.7 54.45L92.5 54.1L92.5 54" />
<path style="fill:#ECAB82;fill-opacity:1" d="M93.1,55.35L93.1 55.15L93.05 54.85L93.1 54.85L93.15 55.05L93.2 55.15L93.25 55.2L93.25 55.25L93.35 55.3L93.7 55.05L93.75 55L93.75 54.95L93.75 54.9L93.75 54.8L93.7 54.55L93.7 54.45L93.5 54.05L93.3 53.7L93.1 53.45L92.95 53.25L92.75 53.05L92.7 52.65L92.65 52.3L92.65 52.05L93.2 52.95L93.65 53.55L93.95 54.1L94.05 54.95L93.75 55.5L93.3 55.85L93.1 55.8L92.85 55.7L92.9 55.65L92.95 55.5L93.1 55.35M91.65,55.4L91.7 55.4L91.9 55.3L92.2 55.2L92.3 55.2L92.35 55.35L92.15 55.3L91.75 55.5L91.2 55.7L90.95 55.75L90.2 55.6L90.15 55.55L90.1 55.55L89.65 55.35L89.3 55.6L89.05 55.8L88.8 55.6L88.85 55.65L88.9 55.65L89.05 55.55L89.2 55.45L89.45 55.25L89.8 55.35L90 55.35L90.1 55.35L90.35 55.45L90.85 55.5L91.4 55.45L91.75 55.3L91.65 55.4M90.1,55.55L90.1 55.5L90.1 55.55M93.05,55.65L93.1 55.65L93.1 55.6L93.05 55.65" />
<path style="fill:none;stroke-width:0.05;stroke-linecap:round;stroke-linejoin:round;stroke-miterlimit:3;stroke:#FD9E66;stroke-opacity:1" d="M93,55.9L93.05 55.85" />
</g>
</svg>
