<?xml version="1.0" encoding="utf-8"?>
<svg version="1.1" id="Layer_1"
xmlns="http://www.w3.org/2000/svg"
xmlns:xlink="http://www.w3.org/1999/xlink"
xmlns:author="http://www.sothink.com"
width="34px" height="51px"
xml:space="preserve">
<g id="505" transform="matrix(1, 0, 0, 1, -103.3, -141)">
<radialGradient
id="RadialGradID_4283" gradientUnits="userSpaceOnUse" gradientTransform="matrix(0.00376892, 9.15527e-005, -0.00038147, 0.0154266, 114.1, 164.45)" spreadMethod ="pad" cx="0" cy="0" r="819.2" fx="0" fy="0" >
<stop  offset="0.313725"  style="stop-color:#FFFFFF;stop-opacity:0.670588" />
<stop  offset="1"  style="stop-color:#FFFFFF;stop-opacity:0" />
</radialGradient>
<path style="fill:url(#RadialGradID_4283) " d="M117,171.55Q115.65 174.15 114.3 174.1Q112.55 174.05 111.25 171.4Q110.05 168.4 110.15 164.35Q110.25 160.25 111.6 157.65Q113 155.1 114.75 155.15Q116.1 155.2 117.35 157.8Q118.2 160.45 118.5 164.55Q118 168.6 117 171.55" />
<path style="fill:#823909;fill-opacity:1" d="M129.65,181.25L129.65 182L128.9 182.5L125.3 184.55Q123.55 185.45 122.65 186.4L122.3 186.65L121.05 187.85L122.25 186.4L122.3 186.35L122.3 186Q123.7 183.95 124.9 182.95Q126.25 181.85 128.2 181.25L129.65 181.25M107.25,182.65L107.1 182.5L106.5 182.1L106.35 182L106.35 181.25L107.7 181.25Q109.45 181.85 110.6 182.95L111.25 183.55L112.85 185.85L113 186L113.05 186.35L113.05 186.4L113.9 187.5L114.05 187.7L113.85 187.45L113 186.65L112.7 186.4L111.55 185.4L110.25 184.55L107.25 182.65" />
<path style="fill:#F9C29F;fill-opacity:1" d="M123.6,141L125.05 147.1L133.4 172.25L133.65 172.4L135.3 175.3Q137.05 178.05 137.05 180.05Q137.05 184.05 129.8 186.75Q128.85 187.1 127.6 187.95L125.4 189.55Q123.05 191.15 120.8 191.45L119.95 191.55L119.8 191.55L119.45 191.65L119.4 191.65Q116.55 191.65 114.4 190.45L113.2 189.7L111.6 187.95Q109.85 185.95 108.6 185.25Q106.35 184.4 105.25 183.85Q103.4 182.85 103.3 181.15L103.65 180.9Q104.85 180.2 105.65 180.2Q106.9 180.2 111.3 182.25L111.35 182.25L111.6 182.4L111.55 182.5L114.3 184.85Q116.5 186.45 117.8 186.45L118.05 186.45L121.65 183.8L125.2 180.75Q126.1 180.1 129.2 179.05Q131.25 178.05 131.75 176.45L131.35 175.7L129.4 174.55L129.05 174.35L128.5 174.25L126.6 174.55Q126.2 174.55 125.45 170.25L124.25 163.15Q123.85 161.1 123.4 153.9L123 146.7Q123 145.45 123.5 143.85L123.55 142.05L123.6 141M130.9,179.1Q129.35 179.15 127 180.55Q125.55 181.35 123.85 182.7Q120.05 185.65 119.55 187.15L117.9 187.45L117.65 187.45L117.5 187.45L117.45 187.45L116.85 187.4L116.9 187.45L115.6 187.15L115.5 187.25L115.45 187.35Q115.6 188.5 116.5 189.5Q117.35 190.4 117.9 190.4L118.85 190.1L118.9 190.1L119.15 189.75L119.6 189.1L121.65 185.55Q122.65 184.3 123.65 183.6Q126.9 181.15 131.55 179.4L131.5 179.15L130.9 179.1M128.2,181.25Q126.25 181.85 124.9 182.95Q123.7 183.95 122.3 186L122.3 186.35L122.25 186.4L121.05 187.85L122.3 186.65L122.65 186.4Q123.55 185.45 125.3 184.55L128.9 182.5L129.65 182L129.65 181.25L128.2 181.25M110.25,184.55L111.55 185.4L112.7 186.4L113 186.65L113.85 187.45L114.05 187.7L113.9 187.5L113.05 186.4L113.05 186.35L113 186L112.85 185.85L111.25 183.55L110.6 182.95Q109.45 181.85 107.7 181.25L106.35 181.25L106.35 182L106.5 182.1L107.1 182.5L107.25 182.65L110.25 184.55" />
<path style="fill:#FCE0CF;fill-opacity:1" d="M103.3,180.9Q103.3 179.4 104.1 178.8L105.4 178.75Q106.95 178.75 108.8 179.3L108.95 179.4L111.4 180.65L111.45 180.7L114.4 183.15Q115.85 184.05 118.35 184.15Q120.4 183.35 122.65 180.15L122.65 180.05L122.8 179.65L123 178.9Q123.65 178.25 124.7 177.7Q124.75 178.25 125.4 178.35L126.3 178.5L127.1 177.95L127.35 177.85Q128.3 177.55 129.15 176.95L129.6 176.65L129.8 175.95L129.8 175.9L129.8 175.95L129.05 175.3Q128.5 174.95 128.25 174.95Q127.65 174.95 126.45 175.65L124.8 176.5L124.85 176.2L124.2 176.5L123.7 175.85L123.7 175.55L123.7 175.1L123.55 173.9Q123.2 171 123 167.85Q121.45 152 121.45 150.7Q121.45 148.25 122.35 145.2L123.3 142.55L123.4 142.3L123.55 142.05L123.5 143.85Q123 145.45 123 146.7L123.4 153.9Q123.85 161.1 124.25 163.15L125.45 170.25Q126.2 174.55 126.6 174.55L128.5 174.25L129.05 174.35L129.4 174.55L131.35 175.7L131.75 176.45Q131.25 178.05 129.2 179.05Q126.1 180.1 125.2 180.75L121.65 183.8L118.05 186.45L117.8 186.45Q116.5 186.45 114.3 184.85L111.55 182.5L111.6 182.4L111.35 182.25L111.3 182.25Q106.9 180.2 105.65 180.2Q104.85 180.2 103.65 180.9L103.3 181.15L103.3 180.9" />
<path style="fill:#F5AE81;fill-opacity:1" d="M131.5,179.15L131.55 179.4Q126.9 181.15 123.65 183.6Q122.65 184.3 121.65 185.55L119.6 189.1L119.15 189.75L118.9 190.1L118.85 190.1L117.9 190.4Q117.35 190.4 116.5 189.5Q115.6 188.5 115.45 187.35L115.5 187.25L115.6 187.15L116.9 187.45L116.85 187.4L117.45 187.45L117.5 187.45L117.65 187.45L117.9 187.45L119.55 187.15Q120.05 185.65 123.85 182.7Q125.55 181.35 127 180.55Q129.35 179.15 130.9 179.1L131.5 179.15" />
<path style="fill:#FDEDE8;fill-opacity:1" d="M123.7,175.85L124.2 176.5L124.85 176.2L124.8 176.5L124.8 176.55L124.7 177.55L124.7 177.7Q123.65 178.25 123 178.9L123.7 175.85" />
</g>
</svg>
