<?xml version="1.0" encoding="utf-8"?>
<svg version="1.1" id="Layer_1"
xmlns="http://www.w3.org/2000/svg"
xmlns:xlink="http://www.w3.org/1999/xlink"
xmlns:author="http://www.sothink.com"
width="28px" height="43px"
xml:space="preserve">
<g id="506" transform="matrix(1, 0, 0, 1, -102.1, -151.9)">
<radialGradient
id="RadialGradID_4284" gradientUnits="userSpaceOnUse" gradientTransform="matrix(0.00376892, 9.15527e-005, -0.00038147, 0.0154266, 113.75, 165.3)" spreadMethod ="pad" cx="0" cy="0" r="819.2" fx="0" fy="0" >
<stop  offset="0.313725"  style="stop-color:#FFFFFF;stop-opacity:0.670588" />
<stop  offset="1"  style="stop-color:#FFFFFF;stop-opacity:0" />
</radialGradient>
<path style="fill:url(#RadialGradID_4284) " d="M116.65,172.4Q115.3 175 113.95 174.95Q112.2 174.9 110.9 172.25Q109.7 169.25 109.8 165.2Q109.9 161.1 111.25 158.5Q112.65 155.95 114.4 156Q115.75 156.05 117 158.65Q117.85 161.3 118.15 165.4Q117.65 169.45 116.65 172.4" />
<path style="fill:#823909;fill-opacity:1" d="M107.3,186.1Q109.55 186.75 112.45 190.15Q111.2 188.75 108.15 188.15Q105.75 187.9 105.25 187.05Q105.2 185.95 107.3 186.1M121.95,187.45Q119.35 187.55 117.45 189.8Q120.1 186.4 122 185.7L124.2 185.6Q124.25 187.3 121.95 187.45" />
<path style="fill:#F9C29F;fill-opacity:1" d="M120.7,156.8L128.85 181.4L129.3 184.8L128.2 186.75L126.5 188.45L117.9 193.45Q115.95 195.25 114 193.8L103.95 189.45L102.35 187.25L102.1 185.05L102.4 183.35L103.15 182.15L105.6 181.15L107.95 180.8L108.65 180.8L113.65 181.45L115.7 181.05Q117.95 180.5 118.65 178.9L118.6 175.5L119.55 151.9L120.7 156.8M105.25,187.05Q105.75 187.9 108.15 188.15Q111.2 188.75 112.45 190.15Q109.55 186.75 107.3 186.1Q105.2 185.95 105.25 187.05M124.2,185.6L122 185.7Q120.1 186.4 117.45 189.8Q119.35 187.55 121.95 187.45Q124.25 187.3 124.2 185.6" />
</g>
</svg>
