<?xml version="1.0" encoding="utf-8"?>
<svg version="1.1" id="Layer_1"
xmlns="http://www.w3.org/2000/svg"
xmlns:xlink="http://www.w3.org/1999/xlink"
xmlns:author="http://www.sothink.com"
width="2px" height="4px"
xml:space="preserve">
<g id="512" transform="matrix(1, 0, 0, 1, 0, 0)">
<radialGradient
id="RadialGradID_4297" gradientUnits="userSpaceOnUse" gradientTransform="matrix(0.000259399, 0, -3.05176e-005, 0.00111389, 0.85, 0.95)" spreadMethod ="pad" cx="0" cy="0" r="819.2" fx="0" fy="0" >
<stop  offset="0.313725"  style="stop-color:#FFFFFF;stop-opacity:0.670588" />
<stop  offset="1"  style="stop-color:#FFFFFF;stop-opacity:0" />
</radialGradient>
<path style="fill:url(#RadialGradID_4297) " d="M1,1.45L0.85 1.65L0.65 1.45L0.6 0.95L0.7 0.45L0.9 0.3L1.05 0.45L1.15 0.95L1 1.45" />
<path style="fill:#823909;fill-opacity:1" d="M0.35,2.45L0.7 2.75L0.4 2.6L0.2 2.55Q0.2 2.45 0.35 2.45M1.35,2.55Q1.15 2.55 1.05 2.75L1.35 2.45L1.5 2.45L1.35 2.55" />
<path style="fill:#F9C29F;fill-opacity:1" d="M1.25,0.35L1.8 2.15L1.85 2.35L1.75 2.5L1.65 2.65L1.05 3L0.8 3L0.1 2.7L0 2.55L0 2.4L0 2.25L0.05 2.2L0.25 2.1L0.4 2.1L0.45 2.1L0.75 2.15L0.9 2.1L1.1 1.95L1.1 1.7L1.15 0L1.25 0.35M0.2,2.55L0.4 2.6L0.7 2.75L0.35 2.45Q0.2 2.45 0.2 2.55M1.5,2.45L1.35 2.45L1.05 2.75Q1.15 2.55 1.35 2.55L1.5 2.45" />
</g>
</svg>
