<?xml version="1.0" encoding="utf-8"?>
<svg version="1.1" id="Layer_1"
xmlns="http://www.w3.org/2000/svg"
xmlns:xlink="http://www.w3.org/1999/xlink"
xmlns:author="http://www.sothink.com"
width="28px" height="43px"
xml:space="preserve">
<g id="524" transform="matrix(1, 0, 0, 1, -102.5, -150.55)">
<radialGradient
id="RadialGradID_4331" gradientUnits="userSpaceOnUse" gradientTransform="matrix(0.00376892, 9.15527e-005, -0.00038147, 0.0154266, 114.15, 163.95)" spreadMethod ="pad" cx="0" cy="0" r="819.2" fx="0" fy="0" >
<stop  offset="0.313725"  style="stop-color:#FFFFFF;stop-opacity:0.670588" />
<stop  offset="1"  style="stop-color:#FFFFFF;stop-opacity:0" />
</radialGradient>
<path style="fill:url(#RadialGradID_4331) " d="M117.05,171.05Q115.7 173.65 114.35 173.6Q112.6 173.55 111.3 170.9Q110.1 167.9 110.2 163.85Q110.3 159.75 111.65 157.15Q113.05 154.6 114.8 154.65Q116.15 154.7 117.4 157.3Q118.25 159.95 118.55 164.05Q118.05 168.1 117.05 171.05" />
<path style="fill:#823909;fill-opacity:1" d="M107.7,184.75Q109.95 185.4 112.85 188.8Q111.6 187.4 108.55 186.8Q106.15 186.55 105.65 185.7Q105.6 184.6 107.7 184.75M122.35,186.1Q119.75 186.2 117.85 188.45Q120.5 185.05 122.4 184.35L124.6 184.25Q124.65 185.95 122.35 186.1" />
<path style="fill:#F9C29F;fill-opacity:1" d="M121.1,155.45L129.25 180.05L129.7 183.45L128.6 185.4L126.9 187.1L118.3 192.1Q116.35 193.9 114.4 192.45L104.35 188.1L102.75 185.9L102.5 183.7L102.8 182L103.55 180.8L106 179.8L108.35 179.45L109.05 179.45L114.05 180.1L116.1 179.7Q118.35 179.15 119.05 177.55L119 174.15L119.95 150.55L121.1 155.45M105.65,185.7Q106.15 186.55 108.55 186.8Q111.6 187.4 112.85 188.8Q109.95 185.4 107.7 184.75Q105.6 184.6 105.65 185.7M124.6,184.25L122.4 184.35Q120.5 185.05 117.85 188.45Q119.75 186.2 122.35 186.1Q124.65 185.95 124.6 184.25" />
</g>
</svg>
