<?xml version="1.0" encoding="utf-8"?>
<svg version="1.1" id="Layer_1"
xmlns="http://www.w3.org/2000/svg"
xmlns:xlink="http://www.w3.org/1999/xlink"
xmlns:author="http://www.sothink.com"
width="4px" height="6px"
xml:space="preserve">
<g id="521" transform="matrix(1, 0, 0, 1, 0, 0)">
<linearGradient
id="LinearGradID_4322" gradientUnits="userSpaceOnUse" gradientTransform="matrix(0, -0.00216675, 0.00177002, 0, 1.55, 2.05)" spreadMethod ="pad" x1="-819.2" y1="0" x2="819.2" y2="0" >
<stop  offset="0.494118" style="stop-color:#FFECD9;stop-opacity:1" />
<stop  offset="1" style="stop-color:#FFECD9;stop-opacity:0" />
</linearGradient>
<path style="fill:url(#LinearGradID_4322) " d="M1.85,0.15Q3 1.7 3 4.3Q3 5.05 1.8 5.05Q1.2 5.05 0.1 4.5Q1.2 -0.75 1.85 0.15" />
<radialGradient
id="RadialGradID_4323" gradientUnits="userSpaceOnUse" gradientTransform="matrix(0, -0.00602722, 0.00474548, 0, 1.7, 6.35)" spreadMethod ="pad" cx="0" cy="0" r="819.2" fx="0" fy="0" >
<stop  offset="0"  style="stop-color:#F9966C;stop-opacity:1" />
<stop  offset="1"  style="stop-color:#FFECD9;stop-opacity:1" />
</radialGradient>
<path style="fill:url(#RadialGradID_4323) " d="M1.7,4.15L2.05 3.8L2.05 3.35L2.2 0L2.3 0.7L3.35 4.15L3.4 4.65L3.25 4.9L3.05 5.15L2 5.9Q1.75 6.1 1.5 5.9L0.25 5.3L0.05 5L0 4.7L0.05 4.45L0.15 4.25L0.45 4.15L0.75 4.1L0.8 4.1L1.45 4.2L1.7 4.15" />
<path style="fill:#823909;fill-opacity:1" d="M0.45,5.05Q0.4 4.9 0.65 4.95L1.25 5.4Q1.15 5.25 0.85 5.25Q0.5 5.2 0.45 5.05M2.15,5.3L2.6 4.9L2.9 4.9L2.35 5.25L2.15 5.3" />
<radialGradient
id="RadialGradID_4324" gradientUnits="userSpaceOnUse" gradientTransform="matrix(0.00038147, 1.52588e-005, -4.57764e-005, 0.00158691, 1.6, 1.85)" spreadMethod ="pad" cx="0" cy="0" r="819.2" fx="0" fy="0" >
<stop  offset="0.313725"  style="stop-color:#FFFFFF;stop-opacity:0.670588" />
<stop  offset="1"  style="stop-color:#FFFFFF;stop-opacity:0" />
</radialGradient>
<path style="fill:url(#RadialGradID_4324) " d="M1.9,2.6L1.6 2.85L1.3 2.6L1.2 1.85Q1.2 1.45 1.35 1.2L1.65 0.9L1.95 1.2L2.05 1.85L1.9 2.6" />
<radialGradient
id="RadialGradID_4325" gradientUnits="userSpaceOnUse" gradientTransform="matrix(0.000396729, 1.52588e-005, -1.52588e-005, 0.00062561, 1.35, 3.65)" spreadMethod ="pad" cx="0" cy="0" r="819.2" fx="0" fy="0" >
<stop  offset="0.313725"  style="stop-color:#FFFFFF;stop-opacity:0.670588" />
<stop  offset="1"  style="stop-color:#FFFFFF;stop-opacity:0" />
</radialGradient>
<path style="fill:url(#RadialGradID_4325) " d="M1.65,3.9L1.35 4L1.1 3.9L0.95 3.65L1.1 3.35L1.4 3.25L1.65 3.4L1.8 3.65L1.65 3.9" />
</g>
</svg>
