<?xml version="1.0" encoding="utf-8"?>
<svg version="1.1" id="Layer_1"
xmlns="http://www.w3.org/2000/svg"
xmlns:xlink="http://www.w3.org/1999/xlink"
xmlns:author="http://www.sothink.com"
width="4px" height="5px"
xml:space="preserve">
<g id="525" transform="matrix(1, 0, 0, 1, 0, 0)">
<radialGradient
id="RadialGradID_4332" gradientUnits="userSpaceOnUse" gradientTransform="matrix(-0.000228882, -0.00485229, 0.00274658, -0.00012207, 1.9, 5.55)" spreadMethod ="pad" cx="0" cy="0" r="819.2" fx="0" fy="0" >
<stop  offset="0"  style="stop-color:#F9966C;stop-opacity:1" />
<stop  offset="1"  style="stop-color:#FFECD9;stop-opacity:1" />
</radialGradient>
<path style="fill:url(#RadialGradID_4332) " d="M0.65,1.4L1.6 0Q3.65 2.4 3.35 3.45Q3.05 4.5 1.7 4.8Q-1 4.15 0.65 1.4" />
<path style="fill:#823909;fill-opacity:1" d="M1.25,4.6L1 4.35L0.65 4.1L1.2 4.3L1.25 4.6M2.2,4.55L2.25 4.25Q2.5 3.95 2.85 4.1L2.5 4.3L2.2 4.55" />
<radialGradient
id="RadialGradID_4333" gradientUnits="userSpaceOnUse" gradientTransform="matrix(0.00038147, 1.52588e-005, -4.57764e-005, 0.00158691, 1.45, 1.75)" spreadMethod ="pad" cx="0" cy="0" r="819.2" fx="0" fy="0" >
<stop  offset="0.313725"  style="stop-color:#FFFFFF;stop-opacity:0.670588" />
<stop  offset="1"  style="stop-color:#FFFFFF;stop-opacity:0" />
</radialGradient>
<path style="fill:url(#RadialGradID_4333) " d="M1.75,2.5L1.45 2.75L1.15 2.5L1.05 1.75Q1.05 1.35 1.2 1.1L1.5 0.8L1.8 1.1L1.9 1.75L1.75 2.5" />
<radialGradient
id="RadialGradID_4334" gradientUnits="userSpaceOnUse" gradientTransform="matrix(0.00038147, 1.52588e-005, -1.52588e-005, 0.000610352, 1.15, 3.5)" spreadMethod ="pad" cx="0" cy="0" r="819.2" fx="0" fy="0" >
<stop  offset="0.313725"  style="stop-color:#FFFFFF;stop-opacity:0.670588" />
<stop  offset="1"  style="stop-color:#FFFFFF;stop-opacity:0" />
</radialGradient>
<path style="fill:url(#RadialGradID_4334) " d="M1.5,3.8L1.2 3.9L0.9 3.8L0.75 3.5L0.95 3.25L1.25 3.15L1.55 3.25L1.6 3.5L1.5 3.8" />
</g>
</svg>
