<?xml version="1.0" encoding="utf-8"?>
<svg version="1.1" id="Layer_1"
xmlns="http://www.w3.org/2000/svg"
xmlns:xlink="http://www.w3.org/1999/xlink"
xmlns:author="http://www.sothink.com"
width="4px" height="5px"
xml:space="preserve">
<g id="518" transform="matrix(1, 0, 0, 1, 0, 0)">
<radialGradient
id="RadialGradID_4313" gradientUnits="userSpaceOnUse" gradientTransform="matrix(-0.000213623, -0.00471497, 0.00263977, -0.00012207, 1.75, 5.45)" spreadMethod ="pad" cx="0" cy="0" r="819.2" fx="0" fy="0" >
<stop  offset="0"  style="stop-color:#F9966C;stop-opacity:1" />
<stop  offset="1"  style="stop-color:#FFECD9;stop-opacity:1" />
</radialGradient>
<path style="fill:url(#RadialGradID_4313) " d="M3.25,3.75Q2.9 5 1.05 4.8Q-0.8 4.6 0.6 1.45L1.5 0Q3.5 2.45 3.25 3.75" />
<path style="fill:#823909;fill-opacity:1" d="M2.2,4.5L1.9 4.65L2.05 4.4Q2.25 4.15 2.55 4.4L2.2 4.5M1.25,4.65L0.95 4.5L0.55 4.4Q0.85 4.15 1.05 4.4L1.25 4.65" />
<radialGradient
id="RadialGradID_4314" gradientUnits="userSpaceOnUse" gradientTransform="matrix(0.000366211, 1.52588e-005, -3.05176e-005, 0.00177002, 1.25, 1.5)" spreadMethod ="pad" cx="0" cy="0" r="819.2" fx="0" fy="0" >
<stop  offset="0.313725"  style="stop-color:#FFFFFF;stop-opacity:0.670588" />
<stop  offset="1"  style="stop-color:#FFFFFF;stop-opacity:0" />
</radialGradient>
<path style="fill:url(#RadialGradID_4314) " d="M1.6,2.35L1.3 2.65L1 2.3L0.9 1.45L1.05 0.7L1.35 0.45L1.65 0.75L1.7 1.5L1.6 2.35" />
<radialGradient
id="RadialGradID_4315" gradientUnits="userSpaceOnUse" gradientTransform="matrix(0.000366211, 1.52588e-005, -1.52588e-005, 0.000686646, 1, 3.5)" spreadMethod ="pad" cx="0" cy="0" r="819.2" fx="0" fy="0" >
<stop  offset="0.313725"  style="stop-color:#FFFFFF;stop-opacity:0.670588" />
<stop  offset="1"  style="stop-color:#FFFFFF;stop-opacity:0" />
</radialGradient>
<path style="fill:url(#RadialGradID_4315) " d="M1.35,3.8L1.05 3.95L0.75 3.75L0.65 3.45L0.75 3.15L1.05 3.1L1.35 3.2L1.45 3.5L1.35 3.8" />
</g>
</svg>
