<?xml version="1.0" encoding="utf-8"?>
<svg version="1.1" id="Layer_1"
xmlns="http://www.w3.org/2000/svg"
xmlns:xlink="http://www.w3.org/1999/xlink"
xmlns:author="http://www.sothink.com"
width="36px" height="55px"
xml:space="preserve">
<g id="527" transform="matrix(1, 0, 0, 1, 18.3, 27.25)">
<path style="fill:#F3BE9C;fill-opacity:1" d="M7.25,4.1Q3.7 -4.55 4.7 -27.25Q11.4 -0.1 15.55 7.95Q19.85 14.5 15.6 19.15Q14.1 20.7 11.1 22.6Q9.4 23.6 6.25 25.5Q2.4 28.1 -2.25 27.45Q-5.35 27.05 -10.3 24.9Q-20.45 20.75 -17.7 13.15Q-16.75 10.45 -14.8 9.3Q-12.85 8.05 -12.25 9.85Q-10.45 15.9 -1.05 15.9Q4 15.9 6.55 13.25Q9.65 10 7.25 4.1" />
<path style="fill:#7E391F;fill-opacity:1" d="M4.2,21.65L6.3 19.4Q8.75 17.1 10.4 17.05Q12.35 16.95 12.3 18.5Q12.3 20.1 10.55 20.1L7.75 19.85Q6.25 19.9 4.2 21.65" />
<path style="fill:#7E391F;fill-opacity:1" d="M-11.8,20.4Q-13.95 20.2 -14.35 18.9Q-14.75 17.6 -12.95 17.6Q-10.6 17.6 -6.35 21.35Q-7.2 20.85 -11.8 20.4" />
</g>
</svg>
