<?xml version="1.0" encoding="utf-8"?>
<svg version="1.1" id="Layer_1"
xmlns="http://www.w3.org/2000/svg"
xmlns:xlink="http://www.w3.org/1999/xlink"
xmlns:author="http://www.sothink.com"
width="4px" height="6px"
xml:space="preserve">
<g id="532" transform="matrix(1, 0, 0, 1, 0, 0.6)">
<path style="fill:#FBD1B7;fill-opacity:1" d="M0,3.55L0.1 3.4L0.55 3.35L1.35 3.6L2.45 3.45L3.2 3.4L3.3 3.5L3.1 3.85L2.5 4.35L1.85 4.65L1.3 4.6L0.45 4.1L0 3.55" />
<path style="fill:#F19F63;fill-opacity:1" d="M1.95,4.25Q2.25 3.7 2.85 3.95Q2.4 3.9 1.95 4.25M1.25,4.3Q0.8 3.85 0.4 4Q0.95 3.65 1.25 4.3" />
<radialGradient
id="RadialGradID_4342" gradientUnits="userSpaceOnUse" gradientTransform="matrix(0.000442505, 1.52588e-005, -4.57764e-005, 0.00209045, 1.65, 0.65)" spreadMethod ="pad" cx="0" cy="0" r="819.2" fx="0" fy="0" >
<stop  offset="0.313725"  style="stop-color:#FFFFFF;stop-opacity:0.670588" />
<stop  offset="1"  style="stop-color:#FFFFFF;stop-opacity:0" />
</radialGradient>
<path style="fill:url(#RadialGradID_4342) " d="M1.95,1.6L1.65 1.95L1.25 1.6L1.15 0.65Q1.15 0.1 1.3 -0.25L1.7 -0.6L2 -0.25L2.15 0.65L1.95 1.6" />
<radialGradient
id="RadialGradID_4343" gradientUnits="userSpaceOnUse" gradientTransform="matrix(0.000442505, 1.52588e-005, -1.52588e-005, 0.000808716, 1.75, 3)" spreadMethod ="pad" cx="0" cy="0" r="819.2" fx="0" fy="0" >
<stop  offset="0.313725"  style="stop-color:#FFFFFF;stop-opacity:0.670588" />
<stop  offset="1"  style="stop-color:#FFFFFF;stop-opacity:0" />
</radialGradient>
<path style="fill:url(#RadialGradID_4343) " d="M2.1,3.4L1.75 3.5L1.4 3.4L1.25 3L1.4 2.65Q1.55 2.5 1.8 2.5Q1.95 2.5 2.1 2.65L2.25 3L2.1 3.4" />
</g>
</svg>
