<?xml version="1.0" encoding="utf-8"?>
<svg version="1.1" id="Layer_1"
xmlns="http://www.w3.org/2000/svg"
xmlns:xlink="http://www.w3.org/1999/xlink"
xmlns:author="http://www.sothink.com"
width="4px" height="5px"
xml:space="preserve">
<g id="540" transform="matrix(1, 0, 0, 1, 1.7, 2.35)">
<linearGradient
id="LinearGradID_4362" gradientUnits="userSpaceOnUse" gradientTransform="matrix(0, -0.00137329, 0.00210571, 0, 0, -0.55)" spreadMethod ="pad" x1="-819.2" y1="0" x2="819.2" y2="0" >
<stop  offset="0" style="stop-color:#FDDBBE;stop-opacity:1" />
<stop  offset="1" style="stop-color:#FBCEAA;stop-opacity:0" />
</linearGradient>
<path style="fill:url(#LinearGradID_4362) " d="M1.55,1L1.4 1.35L1 1.45L0.95 1.5L0.85 1.3L0.8 1.3L0.7 1.45L0.65 1.55L0.5 1.6L0.45 1.65L0 1.8L-0.45 1.7L-0.7 1.5L-0.8 1.3L-1 1.35L-1.35 1.3L-1.5 0.85L-1.45 0.45L-1.4 0.4L-1.2 -0.35L-1.05 -1.7Q-0.9 -2.25 -0.1 -2.35Q0.65 -2.45 1.05 -1.7L1.2 -0.35L1.4 0.4L1.55 0.8L1.55 1" />
<linearGradient
id="LinearGradID_4363" gradientUnits="userSpaceOnUse" gradientTransform="matrix(0, -0.00137329, 0.00210571, 0, 0, -0.55)" spreadMethod ="pad" x1="-819.2" y1="0" x2="819.2" y2="0" >
<stop  offset="0" style="stop-color:#FBCFAB;stop-opacity:1" />
<stop  offset="1" style="stop-color:#FBCEAA;stop-opacity:0" />
</linearGradient>
<path style="fill:url(#LinearGradID_4363) " d="M1.6,1.3L1.45 1.5L1.25 1.6L0.95 1.7L0.7 1.9L0.2 2.1L-0.45 1.95L-0.95 1.65L-1.25 1.6Q-1.65 1.5 -1.65 1.05L-1.65 0.95L-1.45 0.45L-1.5 0.85L-1.35 1.3L-1 1.35L-0.8 1.3L-0.7 1.5L-0.45 1.7L0 1.8L0.45 1.65L0.5 1.6L0.65 1.55L0.7 1.45L0.8 1.3L0.85 1.3L0.95 1.5L1 1.45L1.4 1.35L1.55 1L1.55 0.8L1.6 0.95L1.65 0.95L1.6 1.3" />
<linearGradient
id="LinearGradID_4364" gradientUnits="userSpaceOnUse" gradientTransform="matrix(0, -0.00137329, 0.00210571, 0, 0, -0.55)" spreadMethod ="pad" x1="-819.2" y1="0" x2="819.2" y2="0" >
<stop  offset="0" style="stop-color:#F5B88E;stop-opacity:1" />
<stop  offset="1" style="stop-color:#F5B88E;stop-opacity:0" />
</linearGradient>
<path style="fill:url(#LinearGradID_4364) " d="M1.65,0.95L1.7 1.1L1.7 1.15L1.7 1.2L1.7 1.25L1.7 1.35L1.55 1.65L1.5 1.65L1 2L0.9 2L0.75 2.1L0.65 2.15L0.6 2.2L0.5 2.25L0.45 2.3L0.25 2.35L0 2.4L-0.25 2.35L-0.45 2.3L-0.5 2.3L-0.5 2.25L-0.55 2.25L-0.65 2.2L-0.85 2.05L-0.95 2L-1.3 1.85L-1.7 1.25L-1.7 1.2L-1.7 1.1L-1.65 0.95L-1.65 1.05Q-1.65 1.5 -1.25 1.6L-0.95 1.65L-0.45 1.95L0.2 2.1L0.7 1.9L0.95 1.7L1.25 1.6L1.45 1.5L1.6 1.3L1.65 0.95" />
<radialGradient
id="RadialGradID_4365" gradientUnits="userSpaceOnUse" gradientTransform="matrix(0.000473022, 0, 0, 0.000473022, -1.25, 0.9)" spreadMethod ="pad" cx="0" cy="0" r="819.2" fx="0" fy="0" >
<stop  offset="0"  style="stop-color:#FFFFFF;stop-opacity:0.301961" />
<stop  offset="0.933333"  style="stop-color:#FFFFFF;stop-opacity:0" />
</radialGradient>
<path style="fill:url(#RadialGradID_4365) " d="M-1.05,0.75L-0.95 1L-1.05 1.2L-1.3 1.15L-1.35 0.9L-1.2 0.6L-1.15 0.55L-1.05 0.75" />
<radialGradient
id="RadialGradID_4366" gradientUnits="userSpaceOnUse" gradientTransform="matrix(0.00050354, 0, 0, 0.00050354, 1.3, 0.95)" spreadMethod ="pad" cx="0" cy="0" r="819.2" fx="0" fy="0" >
<stop  offset="0"  style="stop-color:#FFFFFF;stop-opacity:0.301961" />
<stop  offset="0.933333"  style="stop-color:#FFFFFF;stop-opacity:0" />
</radialGradient>
<path style="fill:url(#RadialGradID_4366) " d="M1.4,1.15L1.1 1.25L1.1 1.2L1.05 1.1L1.1 0.85L1.15 0.7L1.2 0.65L1.25 0.6L1.4 0.8L1.4 1.15" />
<radialGradient
id="RadialGradID_4367" gradientUnits="userSpaceOnUse" gradientTransform="matrix(0.00138855, 0, 0, 0.00166321, 0.05, 0.65)" spreadMethod ="pad" cx="0" cy="0" r="819.2" fx="0" fy="0" >
<stop  offset="0"  style="stop-color:#FFFFFF;stop-opacity:0.501961" />
<stop  offset="0.933333"  style="stop-color:#FFFFFF;stop-opacity:0" />
</radialGradient>
<path style="fill:url(#RadialGradID_4367) " d="M0.85,0.45L0.6 1.15L0 1.45L-0.6 1.15L-0.85 0.45L-0.6 -0.25L0 -0.55L0.6 -0.25L0.85 0.45" />
</g>
</svg>
