<?xml version="1.0" encoding="utf-8"?>
<svg version="1.1" id="Layer_1"
xmlns="http://www.w3.org/2000/svg"
xmlns:xlink="http://www.w3.org/1999/xlink"
xmlns:author="http://www.sothink.com"
width="5px" height="7px"
xml:space="preserve">
<g id="543" transform="matrix(1, 0, 0, 1, 2.05, 3.5)">
<radialGradient
id="RadialGradID_4378" gradientUnits="userSpaceOnUse" gradientTransform="matrix(0.000473022, 1.52588e-005, -4.57764e-005, 0.00346375, -0.1, -0.8)" spreadMethod ="pad" cx="0" cy="0" r="819.2" fx="0" fy="0" >
<stop  offset="0.313725"  style="stop-color:#FFFFFF;stop-opacity:0.670588" />
<stop  offset="1"  style="stop-color:#FFFFFF;stop-opacity:0" />
</radialGradient>
<path style="fill:url(#RadialGradID_4378) " d="M0.3,-2.25L0.45 -0.75L0.25 0.8L-0.1 1.4L-0.45 0.75L-0.6 -0.8L-0.4 -2.3L0 -2.85L0.3 -2.25" />
<radialGradient
id="RadialGradID_4379" gradientUnits="userSpaceOnUse" gradientTransform="matrix(0.00352478, 0, 0, 0.00476074, -0.15, 0.1)" spreadMethod ="pad" cx="0" cy="0" r="819.2" fx="0" fy="0" >
<stop  offset="0"  style="stop-color:#DA8069;stop-opacity:1" />
<stop  offset="0.988235"  style="stop-color:#FDCAAF;stop-opacity:1" />
</radialGradient>
<path style="fill:url(#RadialGradID_4379) " d="M0.6,-1.95Q0.65 -3.4 1.1 -3.5L0.85 -2.75L0.8 -2.45Q0.8 -1.55 1.1 -0.3L1.3 0.4L1.6 1L1.95 2L1.95 2.05L2 2.05L2.05 2.2Q2.05 3.3 0.95 3.3L0.5 3.25L0.45 3.25L0.3 3.35L0.25 3.35L0.1 3.45L-0.15 3.5L-1.1 3.2L-1.3 3.2L-1.3 3.25L-1.5 3.15Q-2.05 3 -2.05 2.3L-1.75 1.35L-1.45 0.9L-1.4 0.85L-1.35 0.85L-1.3 0.75L-1.15 0.55L-1.05 0.45L-1.15 0.6L-1.25 0.9L-1.3 1.45L-1.15 2.05L-0.95 2.25L-0.65 2.5L-0.1 2.6L0.3 2.5L0.5 2.4L0.55 2.35L0.7 2.15L0.9 1.9L0.95 1.85L1.05 1.35L0.7 -0.65L0.6 -0.95L0.6 -1.95M0.7,2.9L1.2 3L1.3 2.85Q1.3 2.5 0.9 2.5L0.5 2.75L0.15 3.05L0.4 2.95L0.7 2.9M-1.55,3L-1 2.9L-0.7 2.95L-0.45 3.05L-0.8 2.75L-1.25 2.5Q-1.6 2.5 -1.6 2.85L-1.55 3" />
<radialGradient
id="RadialGradID_4380" gradientUnits="userSpaceOnUse" gradientTransform="matrix(0.000869751, 0, 0, 0.00115967, -2.15, -2.25)" spreadMethod ="pad" cx="0" cy="0" r="819.2" fx="0" fy="0" >
<stop  offset="0.823529"  style="stop-color:#F7E1DD;stop-opacity:1" />
<stop  offset="1"  style="stop-color:#FDD0BD;stop-opacity:1" />
</radialGradient>
<path style="fill:url(#RadialGradID_4380) " d="M0.8,0.7L0.6 -0.95L0.7 -0.65L1.05 1.35L0.95 1.85L0.9 1.9L0.7 2.15L0.8 0.7" />
<path style="fill:#FAD1B8;fill-opacity:1" d="M-0.25,2.3L0.55 2.2L0.7 2.15L0.55 2.35L0.5 2.4L0.3 2.5L-0.1 2.6L-0.65 2.5L-0.95 2.25L-0.25 2.3" />
<path style="fill:#823909;fill-opacity:1" d="M0.4,2.95L0.15 3.05L0.5 2.75L0.9 2.5Q1.3 2.5 1.3 2.85L1.2 3L0.7 2.9L0.4 2.95M-1.6,2.85Q-1.6 2.5 -1.25 2.5L-0.8 2.75L-0.45 3.05L-0.7 2.95L-1 2.9L-1.55 3L-1.6 2.85" />
</g>
</svg>
