<?xml version="1.0" encoding="utf-8"?>
<svg version="1.1" id="Layer_1"
xmlns="http://www.w3.org/2000/svg"
xmlns:xlink="http://www.w3.org/1999/xlink"
xmlns:author="http://www.sothink.com"
width="3px" height="6px"
xml:space="preserve">
<g id="539" transform="matrix(1, 0, 0, 1, 1.25, 2.55)">
<linearGradient
id="LinearGradID_4358" gradientUnits="userSpaceOnUse" gradientTransform="matrix(0, -0.00254822, 0.00138855, 0, -0.1, -0.9)" spreadMethod ="pad" x1="-819.2" y1="0" x2="819.2" y2="0" >
<stop  offset="0.494118" style="stop-color:#FFECD9;stop-opacity:1" />
<stop  offset="1" style="stop-color:#FFECD9;stop-opacity:0" />
</linearGradient>
<path style="fill:url(#LinearGradID_4358) " d="M0.05,-2.55Q1 0.25 1 1.2Q1 2.15 0.1 2.15Q-0.9 2.15 -1.25 1.6L-1.25 1.3Q-0.9 -0.4 0.05 -2.55" />
<radialGradient
id="RadialGradID_4359" gradientUnits="userSpaceOnUse" gradientTransform="matrix(0, -0.00442505, 0.003479, 0, 0, 2.9)" spreadMethod ="pad" cx="0" cy="0" r="819.2" fx="0" fy="0" >
<stop  offset="0"  style="stop-color:#F9966C;stop-opacity:1" />
<stop  offset="1"  style="stop-color:#FFECD9;stop-opacity:1" />
</radialGradient>
<path style="fill:url(#RadialGradID_4359) " d="M0.45,-1.3L1.15 1.3L1.25 1.65L1.15 1.85L1 2L0.2 2.55L-0.2 2.55L-1.1 2.1L-1.2 2Q-1.05 1.5 -0.5 1.55Q0.1 1.65 0.2 1.1L0.25 1L0.25 0.65L0.35 -1.8L0.45 -1.3" />
<path style="fill:#823909;fill-opacity:1" d="M0.35,2.1Q0.55 1.95 0.65 1.9L0.9 1.9L0.45 2.1L0.35 2.1M-0.35,2.2L-0.65 2.1L-0.9 2L-0.75 1.95L-0.35 2.2" />
<radialGradient
id="RadialGradID_4360" gradientUnits="userSpaceOnUse" gradientTransform="matrix(0.000289917, 0, -3.05176e-005, 0.00115967, -0.05, -0.4)" spreadMethod ="pad" cx="0" cy="0" r="819.2" fx="0" fy="0" >
<stop  offset="0.313725"  style="stop-color:#FFFFFF;stop-opacity:0.670588" />
<stop  offset="1"  style="stop-color:#FFFFFF;stop-opacity:0" />
</radialGradient>
<path style="fill:url(#RadialGradID_4360) " d="M0.1,0.2L-0.1 0.4L-0.3 0.15L-0.35 -0.4L-0.25 -0.9L-0.05 -1.05L0.15 -0.85L0.25 -0.35L0.1 0.2" />
<radialGradient
id="RadialGradID_4361" gradientUnits="userSpaceOnUse" gradientTransform="matrix(0.000289917, 0, -1.52588e-005, 0.000457764, -0.25, 0.9)" spreadMethod ="pad" cx="0" cy="0" r="819.2" fx="0" fy="0" >
<stop  offset="0.313725"  style="stop-color:#FFFFFF;stop-opacity:0.670588" />
<stop  offset="1"  style="stop-color:#FFFFFF;stop-opacity:0" />
</radialGradient>
<path style="fill:url(#RadialGradID_4361) " d="M-0.05,1.1L-0.25 1.15L-0.5 1.1L-0.6 0.9L-0.5 0.7L-0.25 0.6L-0.05 0.7L0.05 0.9L-0.05 1.1" />
</g>
</svg>
