<?xml version="1.0" encoding="utf-8"?>
<svg version="1.1" id="Layer_1"
xmlns="http://www.w3.org/2000/svg"
xmlns:xlink="http://www.w3.org/1999/xlink"
xmlns:author="http://www.sothink.com"
width="4px" height="5px"
xml:space="preserve">
<g id="538" transform="matrix(1, 0, 0, 1, 1.8, 2.1)">
<radialGradient
id="RadialGradID_4351" gradientUnits="userSpaceOnUse" gradientTransform="matrix(0.00204468, 0, 0, 0.00204468, -1, -0.4)" spreadMethod ="pad" cx="0" cy="0" r="819.2" fx="0" fy="0" >
<stop  offset="0"  style="stop-color:#F9C29F;stop-opacity:1" />
<stop  offset="1"  style="stop-color:#FDDCBE;stop-opacity:0" />
</radialGradient>
<path style="fill:url(#RadialGradID_4351) " d="M-0.4,-0.95L-1.35 -0.25L-1.25 -0.75L-1.1 -2.1L-0.35 -2.1L-0.35 -2.05L-0.35 -0.95L-0.4 -0.95" />
<linearGradient
id="LinearGradID_4352" gradientUnits="userSpaceOnUse" gradientTransform="matrix(0, -0.00134277, 0.00170898, 0, 0.5, -0.95)" spreadMethod ="pad" x1="-819.2" y1="0" x2="819.2" y2="0" >
<stop  offset="0" style="stop-color:#FEDEC1;stop-opacity:1" />
<stop  offset="1" style="stop-color:#FEDEC1;stop-opacity:0" />
</linearGradient>
<path style="fill:url(#LinearGradID_4352) " d="M1.15,-2.1L1.3 -0.75L1.65 0.35L1.85 0.85L1.85 1L1.85 1.1L1.85 1.2L1.85 1.25L1.85 1.2L1.8 1.05L1.75 0.9Q1.6 0.75 1.4 0.75L0.9 0.9Q0.8 0.9 0.75 1L0.15 1.2L-0.3 1.15L-0.5 1.05L-0.55 1.05L-0.85 0.6L-0.8 0.3L-0.65 -0.05L-0.45 -0.6L-0.35 -0.95L-0.35 -2.05L-0.35 -2.1L1.15 -2.1" />
<radialGradient
id="RadialGradID_4353" gradientUnits="userSpaceOnUse" gradientTransform="matrix(0.00180054, 0, 0, 0.00180054, -1, -0.2)" spreadMethod ="pad" cx="0" cy="0" r="819.2" fx="0" fy="0" >
<stop  offset="0"  style="stop-color:#F9C29F;stop-opacity:1" />
<stop  offset="1"  style="stop-color:#FDDCBE;stop-opacity:1" />
</radialGradient>
<path style="fill:url(#RadialGradID_4353) " d="M-1.65,0.55L-1.6 0.45L-1.35 -0.25L-0.4 -0.95L-0.35 -0.95L-0.45 -0.6L-0.65 -0.05L-0.8 0.3L-0.85 0.6L-0.55 1.05L-0.85 0.85L-1.45 0.7Q-1.65 0.7 -1.75 0.9L-1.65 0.55" />
<radialGradient
id="RadialGradID_4354" gradientUnits="userSpaceOnUse" gradientTransform="matrix(0.0025177, 0, 0, 0.0025177, 0, 1.95)" spreadMethod ="pad" cx="0" cy="0" r="819.2" fx="0" fy="0" >
<stop  offset="0"  style="stop-color:#F5AD7E;stop-opacity:1" />
<stop  offset="1"  style="stop-color:#FACCAB;stop-opacity:1" />
</radialGradient>
<path style="fill:url(#RadialGradID_4354) " d="M-1.75,0.9Q-1.65 0.7 -1.45 0.7L-0.85 0.85L-0.55 1.05L-0.5 1.05L-0.3 1.15L0.15 1.2L0.75 1Q0.8 0.9 0.9 0.9L1.4 0.75Q1.6 0.75 1.75 0.9L1.8 1.05L1.55 0.95Q1.15 0.9 0.7 1.25L0 1.6L-0.6 1.3Q-0.95 0.95 -1.3 0.95L-1.75 1.05L-1.8 1.1L-1.75 0.9" />
<radialGradient
id="RadialGradID_4355" gradientUnits="userSpaceOnUse" gradientTransform="matrix(0.0025177, 0, 0, 0.0025177, 0, 1.95)" spreadMethod ="pad" cx="0" cy="0" r="819.2" fx="0" fy="0" >
<stop  offset="0"  style="stop-color:#F39C63;stop-opacity:1" />
<stop  offset="1"  style="stop-color:#F7BB94;stop-opacity:1" />
</radialGradient>
<path style="fill:url(#RadialGradID_4355) " d="M1.75,1.4L1.6 1.6L1.4 1.7L0.9 1.85L0.05 2.15L-0.85 1.85L-1.35 1.7L-1.4 1.7L-1.65 1.5L-1.8 1.15L-1.8 1.1L-1.75 1.05L-1.3 0.95Q-0.95 0.95 -0.6 1.3L0 1.6L0.7 1.25Q1.15 0.9 1.55 0.95L1.8 1.05L1.85 1.2L1.85 1.25L1.75 1.4M-1.25,1.3L-1.35 1.35L-1.2 1.55L-0.45 1.7L-1.25 1.3M1.25,1.55L1.4 1.35Q1.4 1.25 1.3 1.3L0.5 1.7L0.55 1.7L1.25 1.55" />
<path style="fill:#823909;fill-opacity:1" d="M-0.45,1.7L-1.2 1.55L-1.35 1.35L-1.25 1.3L-0.45 1.7M0.55,1.7L0.5 1.7L1.3 1.3Q1.4 1.25 1.4 1.35L1.25 1.55L0.55 1.7" />
<radialGradient
id="RadialGradID_4356" gradientUnits="userSpaceOnUse" gradientTransform="matrix(0.00138855, 0, 0, 0.00166321, 0, 0.45)" spreadMethod ="pad" cx="0" cy="0" r="819.2" fx="0" fy="0" >
<stop  offset="0"  style="stop-color:#FFFFFF;stop-opacity:0.501961" />
<stop  offset="0.933333"  style="stop-color:#FFFFFF;stop-opacity:0" />
</radialGradient>
<path style="fill:url(#RadialGradID_4356) " d="M-0.05,1.25Q-0.4 1.25 -0.65 0.95L-0.9 0.25L-0.65 -0.45L-0.05 -0.75L0.55 -0.45L0.8 0.25L0.55 0.95Q0.3 1.25 -0.05 1.25" />
<radialGradient
id="RadialGradID_4357" gradientUnits="userSpaceOnUse" gradientTransform="matrix(0.000549316, 0, 0, 0.000549316, 0.25, 0.15)" spreadMethod ="pad" cx="0" cy="0" r="819.2" fx="0" fy="0" >
<stop  offset="0"  style="stop-color:#FFFFFF;stop-opacity:0.8" />
<stop  offset="0.933333"  style="stop-color:#FFFFFF;stop-opacity:0" />
</radialGradient>
<path style="fill:url(#RadialGradID_4357) " d="M0.45,0.45L0.25 0.6L0 0.45L-0.05 0.15L0 -0.2L0.25 -0.3L0.45 -0.2L0.55 0.15L0.45 0.45" />
</g>
</svg>
