<svg xmlns="http://www.w3.org/2000/svg" width="5" height="8"><g transform="translate(1.9 4.4)"><radialGradient id="a" gradientUnits="userSpaceOnUse" gradientTransform="matrix(.00406 -.00002 .00002 .00433 .45 .8)" spreadMethod="pad" cx="0" cy="0" r="819.2" fx="0" fy="0"><stop offset=".035" stop-color="#fccab3" stop-opacity=".761"/><stop offset=".737" stop-color="#fdddcd" stop-opacity=".502"/><stop offset="1" stop-color="#ffecd9" stop-opacity=".502"/></radialGradient><path d="M.95 1.4l-.1.6-.2.3-.1.15-.4.15-.5-.2-.05-.15-.15-.2q0-.15.3 0l-.1-.15-.1-.1-.25-.25.2.15.1.1h.05l.2.35.3.25.35-.3V.7Q.3-.5.4-1.45L.65-2.5l.3-.75L2.3-4.4l-.4.65Q.85-2.2.85-1.25l.1 1.3.15.7-.15.65" fill="url(#a)"/><path d="M1.15 1.85L1 1.9.85 2l.1-.6.15-.65q.55.4.45.75l-.3.5-.1-.15" fill="#fadecc"/><path d="M-.55 2.05l.15.2-.15-.1-.3-.1-.05-.25.05-.05h.1l.2.3M1.25 2l-.3.2-.3.1.2-.3.15-.1.15-.05.1.15" fill="#7f5c5c"/><path d="M-.75 1.75h-.1l-.05.05.05.25-.45-.45.1-.55.3-.35.4 1-.2-.15.25.25.1.1.1.15q-.3-.15-.3 0l-.2-.3" fill="#fce2ce" fill-opacity=".682"/><radialGradient id="b" gradientUnits="userSpaceOnUse" gradientTransform="matrix(.00166 -.00002 .00003 .00514 .1 1.4)" spreadMethod="pad" cx="0" cy="0" r="819.2" fx="0" fy="0"><stop offset="0" stop-color="#f9cfb5" stop-opacity=".463"/><stop offset="1" stop-color="#ffecd9" stop-opacity="0"/></radialGradient><path d="M-.05-2.2l.45-.15.5 2.7.45 1.4-.05.2-.15.1-.1-.1L1 1.9H.85l-.3.2-.25.35-.3.05-.15-.1-.45-.5-.2-.05-.1.1.35.25-.1-.05-.3-.05-.2-.15-.05-.2.45-1.4.45-2.6.25.05" fill="url(#b)"/><radialGradient id="c" gradientUnits="userSpaceOnUse" gradientTransform="matrix(.00203 -.00002 .00002 .00174 .1 1.65)" spreadMethod="pad" cx="0" cy="0" r="819.2" fx="0" fy="0"><stop offset=".035" stop-color="#f9cfb5" stop-opacity=".702"/><stop offset=".863" stop-color="#f9cfb5" stop-opacity=".271"/><stop offset="1" stop-color="#ffecd9" stop-opacity=".271"/></radialGradient><path d="M.65-2.1L.9.35l.45 1.35-.05.2-.1.05-.15-.05h-.2l-.2.4q-.45.6-1 .1l-.35-.55h-.15l-.05.05.25.25-.3-.1-.2-.15-.05-.2q-.35-.45.3-1l.35-1.5q.1-.65-.25-1.45-.35-.8-.95-1.25-.4-.4.25 0 .6.35 1.5.35.8.05 1.1-.2Q.65-2.8.65-2.1" fill="url(#c)"/><radialGradient id="d" gradientUnits="userSpaceOnUse" gradientTransform="matrix(.00156 -.0001 .00041 .00533 .15 1.1)" spreadMethod="pad" cx="0" cy="0" r="819.2" fx="411" fy="0"><stop offset="0" stop-color="#f8d0b8" stop-opacity=".631"/><stop offset="1" stop-color="#ffecd9" stop-opacity="0"/></radialGradient><path d="M-.05-2.35l.45-.2.95 4.25-.05.2-.1.05-.15-.05L1 1.85H.85l-.55.6-.25.05-.15-.1-.3-.3-.3-.25h-.15l-.05.05.3.25h-.05l-.3-.1-.2-.15-.05-.2.65-2.35Q-.3-1.7-.8-2.9l.75.55" fill="url(#d)"/><radialGradient id="e" gradientUnits="userSpaceOnUse" gradientTransform="matrix(.0008 -.00008 .0004 .00423 .45 -.15)" spreadMethod="pad" cx="0" cy="0" r="819.2" fx="0" fy="0"><stop offset=".192" stop-color="#f8d8c2" stop-opacity=".8"/><stop offset="1" stop-color="#ffecd9" stop-opacity="0"/></radialGradient><path d="M.65-1.45Q.8.2 1.1.85l.25.8-.05.25-.15.1L1 1.85H.85l-.3.2-.2.35-.05.05-.25.05-.15-.1-.55-.55h-.2l-.05.05.25.25-.3-.1-.2-.15-.05-.2.6-2.4q.15-.75 0-1.75L-1-3.2l.65.55.85.05.15 1.15" fill="url(#e)"/><radialGradient id="f" gradientUnits="userSpaceOnUse" gradientTransform="matrix(.00043 .00008 -.0005 .00296 -.6 .2)" spreadMethod="pad" cx="0" cy="0" r="819.2" fx="0" fy="0"><stop offset=".18" stop-color="#f4c29f" stop-opacity=".463"/><stop offset="1" stop-color="#ffecd9" stop-opacity="0"/></radialGradient><path d="M.65-1.65Q.8.15 1.1.8l.25.85-.05.25-.1.05-.25-.1-.15.05-.45.65-.5-.15-.4-.5-.25-.1-.1.1.2.25-.25-.1-.25-.35q-.25-.4.25-.75l.1-.55.35-1.8q.15-.8-.1-1.55-.3-.85 0-.45l.45.55q.2.15.65 0l.15 1.2" fill="url(#f)"/><radialGradient id="g" gradientUnits="userSpaceOnUse" gradientTransform="matrix(.00021 0 0 .00085 .1 1.5)" spreadMethod="pad" cx="0" cy="0" r="819.2" fx="0" fy="0"><stop offset="0" stop-color="#fff" stop-opacity=".8"/><stop offset="1" stop-color="#fff" stop-opacity="0"/></radialGradient><path d="M0 .95h.1l.05-.1.15.2.05.05.05.55-.1.5-.3.25-.35-.25-.1-.5.1-.55v-.05l.3-.25H0v.15" fill="url(#g)"/></g></svg>