<?xml version="1.0" encoding="utf-8"?>
<svg version="1.1" id="Layer_1"
xmlns="http://www.w3.org/2000/svg"
xmlns:xlink="http://www.w3.org/1999/xlink"
xmlns:author="http://www.sothink.com"
width="7px" height="9px"
xml:space="preserve">
<g id="544" transform="matrix(1, 0, 0, 1, 3.35, 4.8)">
<radialGradient
id="RadialGradID_4381" gradientUnits="userSpaceOnUse" gradientTransform="matrix(0.000701904, 6.10352e-005, -3.05176e-005, 0.00268555, -0.65, -1.25)" spreadMethod ="pad" cx="0" cy="0" r="819.2" fx="0" fy="0" >
<stop  offset="0.313725"  style="stop-color:#FFFFFF;stop-opacity:0.431373" />
<stop  offset="1"  style="stop-color:#FFFFFF;stop-opacity:0" />
</radialGradient>
<path style="fill:url(#RadialGradID_4381) " d="M-0.9,-2.8L-0.6 -3.45L-0.3 -2.75L-0.2 -1.2L-0.3 0.35L-0.4 0.65L-0.45 0.7L-0.65 1L-0.85 0.65L-0.9 0.6L-0.9 0.3L-0.95 0.1L-1.05 -1.25L-0.9 -2.8" />
<radialGradient
id="RadialGradID_4382" gradientUnits="userSpaceOnUse" gradientTransform="matrix(0.000534058, 3.05176e-005, -3.05176e-005, 0.000534058, -0.75, 1.65)" spreadMethod ="pad" cx="0" cy="0" r="819.2" fx="0" fy="0" >
<stop  offset="0.313725"  style="stop-color:#FFFFFF;stop-opacity:0.431373" />
<stop  offset="1"  style="stop-color:#FFFFFF;stop-opacity:0" />
</radialGradient>
<path style="fill:url(#RadialGradID_4382) " d="M-0.75,1.25L-0.45 1.35L-0.3 1.7L-0.5 2L-0.8 2.1L-1.05 2L-1.2 1.65L-1.05 1.35L-0.75 1.25" />
<path style="fill:#F9C29F;fill-opacity:1" d="M0.5,-3.65Q0.5 -4.3 0.65 -4.8L0.65 -3.75L0.65 -3.8Q0.65 -1.85 1.25 -1L2.25 0.25Q2.65 0.7 2.7 1.3L2.4 2.2L2.2 2.35L1.9 2.6L1.2 3.05L0.2 3.4L-0.65 3.5L-1.55 3.3L-2.2 3.15L-2.3 3.05L-2.3 3L-2.35 3.05L-2.5 2.9L-3.05 2.35L-3.35 1.45Q-3.35 0.9 -2.55 0.15Q-1.8 -0.55 -1.9 -1.05L-1.85 -0.85L-2 -0.25L-2.05 -0.2L-2.15 -0.05L-2.65 0.55L-2.95 1.45Q-2.95 2.4 -2.2 2.45L-1.55 2.7L-0.1 2.8L0.55 2.65L0.95 2.45Q1.85 2.35 2.1 1.85L2.15 1L1.85 0.35L1.5 -0.1L1.15 -0.65Q0.85 -1.1 0.65 -1.9L0.5 -3.1L0.5 -3.65" />
<path style="fill:#823909;fill-opacity:1" d="M0.95,2.95L0.4 3.1L0.15 3.15L0.05 3.15L0 3.2L0 3.15L0.3 2.9L0.5 2.85L0.95 2.9L0.95 2.95M-1.15,3.15L-1.25 3.1L-1.5 3.05L-2.1 2.85L-2.1 2.8Q-2 2.6 -1.6 2.8L-1.4 2.85L-1 3.2L-1.15 3.15" />
<path style="fill:#F9C29F;fill-opacity:1" d="M1.05,1.75L0.7 2.6Q0.35 3 -0.45 2.95Q-1.35 2.9 -1.6 2.5L-1.9 1.85L-1.35 2.4L-0.25 2.65L0.7 2.25L1.05 1.75" />
<radialGradient
id="RadialGradID_4383" gradientUnits="userSpaceOnUse" gradientTransform="matrix(0.00531006, 0, 0, 0.00531006, -0.6, 1.9)" spreadMethod ="pad" cx="0" cy="0" r="819.2" fx="0" fy="0" >
<stop  offset="0.00784314"  style="stop-color:#F9C8A8;stop-opacity:0.333333" />
<stop  offset="1"  style="stop-color:#F39B61;stop-opacity:0" />
</radialGradient>
<path style="fill:url(#RadialGradID_4383) " d="M1.95,0.3L2 0.45L1.75 0.4Q1 0.7 0.95 1.3L0.95 1.5L0.9 1.9L0.6 2.35L0.6 2.7L1.05 2.7Q2 2.1 2 1.6Q2 1.15 2.4 1L2.1 1.7L1.35 2.85Q0.6 3.55 -0.55 3.55Q-1.7 3.55 -2.3 3.05L-3.05 2.1L-3.2 1.35L-3.15 1.05L-2.9 1.25Q-2.9 2.8 -2 2.8L-1.25 2.85L-1.55 2.4L-1.45 2.5L-1.45 2.4L-1.85 1.85L-2 1.55L-2.15 1Q-2.2 0.5 -2.55 0.3L-1.8 -1.05L-1.8 -2.5L-1.75 -2.6L0.1 -2.55L0.5 -2.55L0.65 -2.25L1.55 -0.4L2 0.2L1.95 0.3L2.1 0.25L1.95 0.3" />
<radialGradient
id="RadialGradID_4384" gradientUnits="userSpaceOnUse" gradientTransform="matrix(0.00531006, 0, 0, 0.00531006, -0.6, 1.9)" spreadMethod ="pad" cx="0" cy="0" r="819.2" fx="0" fy="0" >
<stop  offset="0.00784314"  style="stop-color:#F07828;stop-opacity:0.333333" />
<stop  offset="1"  style="stop-color:#F39B61;stop-opacity:0" />
</radialGradient>
<path style="fill:url(#RadialGradID_4384) " d="M2.1,0.25Q1.85 0.4 2.4 1Q2 1.15 2 1.6Q2 2.1 1.05 2.7L0.6 2.7L0.6 2.35L0.9 1.9L0.95 1.5L0.95 1.3Q1 0.7 1.75 0.4L2 0.45L1.95 0.3L2.1 0.25M-3.15,1.05L-2.75 0.45L-2.5 0.4L-2.55 0.3Q-2.2 0.5 -2.15 1L-2 1.55L-1.85 1.85L-1.45 2.4L-1.45 2.5L-1.55 2.4L-1.25 2.85L-2 2.8Q-2.9 2.8 -2.9 1.25L-3.15 1.05" />
</g>
</svg>
