<svg xmlns="http://www.w3.org/2000/svg" width="3" height="5"><g transform="translate(1.15 2.15)"><linearGradient id="a" gradientUnits="userSpaceOnUse" gradientTransform="matrix(0 -.0011 .001 0 .05 -.55)" x1="-819.2" x2="819.2"><stop offset="0" stop-color="#fddbbe"/><stop offset=".788" stop-color="#fccfab" stop-opacity=".039"/><stop offset=".871" stop-color="#fbceaa" stop-opacity="0"/></linearGradient><path d="M.1-1.2L.55.3l.1.45L.7 1l-.1.1.1.25-.65.35q-.6-.05-.65-.3l-.05-.1.05-.05.05-.1H-.6V1l.15-.65L0-1.2l.05-.2.05.2" fill="url(#a)"/><radialGradient id="b" gradientUnits="userSpaceOnUse" gradientTransform="matrix(.0049 0 0 .00433 .1 2.2)" spreadMethod="pad" cx="0" cy="0" r="819.2" fx="0" fy="0"><stop offset=".314" stop-color="#f7c4a2"/><stop offset=".925" stop-color="#fddbbe" stop-opacity="0"/></radialGradient><path d="M1.05 1.9l.05-.1-.25-.1q-.15 0-.45.15l-.4.1-.4-.15-.35-.1-.25.1.05.1-.2-.3.1-.3.05-.1.05-.15.15-.6.25-.75.15-.55.5-.8h.05l.8 2.3L1 1l.05.15.1.2.05.15-.2.45.05-.05m-1-3.3L0-1.2-.45.35-.6 1v.15h.05l-.05.1-.05.05.05.1q.05.25.65.3l.65-.35-.1-.25.1-.1L.65.75.55.3.1-1.2l-.05-.2" fill="url(#b)"/><radialGradient id="c" gradientUnits="userSpaceOnUse" gradientTransform="matrix(.0049 0 0 .00433 .1 2.2)" spreadMethod="pad" cx="0" cy="0" r="819.2" fx="0" fy="0"><stop offset="0" stop-color="#ea946a"/><stop offset=".329" stop-color="#f5b98f" stop-opacity=".965"/><stop offset=".925" stop-color="#fddbbe" stop-opacity="0"/></radialGradient><path d="M1 1.95L.9 2H.75l-.2.05-.2.1-.15.05h-.3l-.05-.05-.15-.05-.2-.05h-.1L-.75 2H-.8l-.15-.1-.05-.1.25-.1.35.1.4.15.4-.1q.3-.15.45-.15l.25.1-.05.1-.05.05m-1 .1l-.45-.15-.05-.05-.3-.1-.1.05.15.1h.3l.2.1.25.05m.5-.15l-.45.15L.3 2l.25-.1H.8l.2-.05V1.8l-.15-.05-.3.1-.05.05" fill="url(#c)"/><path d="M-.25 2l-.2-.1h-.3l-.15-.1.1-.05.3.1.05.05.45.15L-.25 2m.8-.15l.3-.1.15.05v.05l-.2.05H.55L.3 2l-.25.05.45-.15.05-.05" fill="#823909"/><radialGradient id="d" gradientUnits="userSpaceOnUse" gradientTransform="matrix(.00038 0 0 .0005 .15 1.15)" spreadMethod="pad" cx="0" cy="0" r="819.2" fx="0" fy="0"><stop offset="0" stop-color="#fff" stop-opacity=".702"/><stop offset=".933" stop-color="#fff" stop-opacity="0"/></radialGradient><path d="M.4 1.5l-.25.1-.25-.1-.1-.35.1-.3Q0 .7.15.7L.4.85l.1.3-.1.35" fill="url(#d)"/><radialGradient id="e" gradientUnits="userSpaceOnUse" gradientTransform="matrix(.0002 0 0 .00241 .2 -.45)" spreadMethod="pad" cx="0" cy="0" r="819.2" fx="0" fy="0"><stop offset="0" stop-color="#fff" stop-opacity=".6"/><stop offset=".933" stop-color="#fff" stop-opacity="0"/></radialGradient><path d="M.1-1.75l.1-.4.1.4V.3L.2.7.1.3v-2.05" fill="url(#e)"/></g></svg>