<?xml version="1.0" encoding="utf-8"?>
<svg version="1.1" id="Layer_1"
xmlns="http://www.w3.org/2000/svg"
xmlns:xlink="http://www.w3.org/1999/xlink"
xmlns:author="http://www.sothink.com"
width="4px" height="7px"
xml:space="preserve">
<g id="545" transform="matrix(1, 0, 0, 1, 1.75, 3)">
<radialGradient
id="RadialGradID_4385" gradientUnits="userSpaceOnUse" gradientTransform="matrix(0.00241089, 0, 0, 0.00299072, 0.05, 1.15)" spreadMethod ="pad" cx="0" cy="0" r="819.2" fx="0" fy="0" >
<stop  offset="0.109804"  style="stop-color:#FEDEC5;stop-opacity:1" />
<stop  offset="1"  style="stop-color:#FFECD9;stop-opacity:1" />
</radialGradient>
<path style="fill:url(#RadialGradID_4385) " d="M-1.5,-1.3L-1.3 -1.65L0 -3L0 -2.9L1.3 -1.65L1.55 -1.3L1.8 0.5L1.8 1.3L1.55 2L1.5 1.95L1.5 2L1.55 2L0.65 2.65L0.05 2.85L-0.55 2.65Q-1.2 2.45 -1.55 2L-1.75 1.3L-1.75 0.5L-1.5 -1.3M-1.5,1.95L-1.5 2L-1.5 1.95" />
<radialGradient
id="RadialGradID_4386" gradientUnits="userSpaceOnUse" gradientTransform="matrix(0.000457764, 1.52588e-005, -4.57764e-005, 0.00205994, -0.3, -1.25)" spreadMethod ="pad" cx="0" cy="0" r="819.2" fx="0" fy="0" >
<stop  offset="0.313725"  style="stop-color:#FFFFFF;stop-opacity:0.670588" />
<stop  offset="1"  style="stop-color:#FFFFFF;stop-opacity:0" />
</radialGradient>
<path style="fill:url(#RadialGradID_4386) " d="M0.05,-0.3L-0.25 0.05Q-0.5 0.05 -0.65 -0.3L-0.8 -1.25L-0.6 -2.15L-0.2 -2.5L0.1 -2.15L0.2 -1.25L0.05 -0.3" />
<radialGradient
id="RadialGradID_4387" gradientUnits="userSpaceOnUse" gradientTransform="matrix(0.000457764, 0, -4.57764e-005, 0.000823975, -0.3, 0.75)" spreadMethod ="pad" cx="0" cy="0" r="819.2" fx="0" fy="0" >
<stop  offset="0.313725"  style="stop-color:#FFFFFF;stop-opacity:0.670588" />
<stop  offset="1"  style="stop-color:#FFFFFF;stop-opacity:0" />
</radialGradient>
<path style="fill:url(#RadialGradID_4387) " d="M0.05,1.1L-0.25 1.25L-0.65 1.1L-0.8 0.75L-0.6 0.4L-0.2 0.25Q-0.05 0.25 0.1 0.4L0.2 0.75L0.05 1.1" />
<path style="fill:#FBD1B7;fill-opacity:1" d="M-1.1,1.3L-0.3 1.8Q0.2 2.05 0.9 1.5Q1.5 0.95 1.7 1.35L1.8 1.5L1.7 1.9L0.75 2.5L0.3 2.95Q-0.1 3.2 -0.55 2.65L-0.55 2.55L-1.45 2.15L-1.7 1.55L-1.6 1.35L-1.1 1.3" />
<path style="fill:#F19F63;fill-opacity:1" d="M0.4,2.45Q0.7 1.7 1.35 2.05Q0.85 1.95 0.4 2.45M-0.35,2.5Q-0.85 1.9 -1.3 2.1Q-0.7 1.6 -0.35 2.5" />
</g>
</svg>
