<svg xmlns="http://www.w3.org/2000/svg" width="3" height="4"><g transform="translate(1.45 1.55)"><radialGradient id="a" gradientUnits="userSpaceOnUse" gradientTransform="matrix(.00317 0 0 .00221 -1.25 .6)" spreadMethod="pad" cx="0" cy="0" r="819.2" fx="0" fy="0"><stop offset="0" stop-color="#f5ad7e" stop-opacity=".851"/><stop offset="1" stop-color="#faccab" stop-opacity="0"/></radialGradient><path d="M1.05.9L.65.7.2.75-.35.8H-1l-.45-.2.15-.5.15-.55.15-.75.05-.05 1.8-.05Q1.9-.2 1.1 1L1.05.9" fill="url(#a)"/><path d="M.8 1.05l.05.05-.15.1-.15.05-.2.05h-.1l.2-.2.3-.05H.8" fill="#823909"/><radialGradient id="b" gradientUnits="userSpaceOnUse" gradientTransform="matrix(.00206 0 0 .00183 -.65 .9)" spreadMethod="pad" cx="0" cy="0" r="819.2" fx="0" fy="0"><stop offset="0" stop-color="#f39d64" stop-opacity=".851"/><stop offset="1" stop-color="#f6b78c" stop-opacity=".6"/></radialGradient><path d="M1.1 1l-.35.35h-.1l-.85.25-.45-.15-.55-.35-.15-.2-.1-.3.45.2h.65L.2.75.65.7l.4.2.05.1m-.35.05l-.3.05-.2.2h.1l.2-.05.15-.05.15-.1-.05-.05H.75" fill="url(#b)"/><radialGradient id="c" gradientUnits="userSpaceOnUse" gradientTransform="matrix(.00111 0 0 .00117 -.25 .15)" spreadMethod="pad" cx="0" cy="0" r="819.2" fx="0" fy="0"><stop offset="0" stop-color="#fff" stop-opacity=".502"/><stop offset=".933" stop-color="#fff" stop-opacity="0"/></radialGradient><path d="M.2-.5l.2.5-.2.5-.5.2-.45-.2-.2-.5.2-.5.45-.2.5.2" fill="url(#c)"/><radialGradient id="d" gradientUnits="userSpaceOnUse" gradientTransform="matrix(.00044 0 0 .0004 -.2 .3)" spreadMethod="pad" cx="0" cy="0" r="819.2" fx="0" fy="0"><stop offset="0" stop-color="#fff" stop-opacity=".8"/><stop offset=".933" stop-color="#fff" stop-opacity="0"/></radialGradient><path d="M-.05.5L-.2.6-.35.5l-.1-.2.1-.25.15-.1.15.1.1.25-.1.2" fill="url(#d)"/></g></svg>