<svg xmlns="http://www.w3.org/2000/svg" width="4" height="5"><g transform="translate(1.5 2.4)"><radialGradient id="a" gradientUnits="userSpaceOnUse" gradientTransform="matrix(.00043 .00002 -.00005 .00175 -.2 -.85)" spreadMethod="pad" cx="0" cy="0" r="819.2" fx="0" fy="0"><stop offset=".314" stop-color="#fff" stop-opacity=".671"/><stop offset="1" stop-color="#fff" stop-opacity="0"/></radialGradient><path d="M.15-.05l-.3.3-.35-.3-.15-.8.2-.8.35-.3.3.3.1.8-.15.8" fill="url(#a)"/><path d="M-1.15 1.6l.2-.1q.3.05.6.45l-.5-.25-.3-.1m1.9.05q-.3 0-.5.25l.5-.45H1l-.25.2" fill="#823909"/><path d="M.6-1.85l.95 2.8v.4l-.1.2-.2.2-.95.55-.45.05-1.15-.5-.2-.25v-.45l.1-.1.3-.15.25-.05h.1l.55.1L.05.9l.3-.25V.3l.1-2.7.15.55M-.85 1.7l.5.25q-.3-.4-.6-.45l-.2.1.3.1M1 1.45H.75l-.5.45q.2-.25.5-.25l.25-.2" fill="#f9c29f"/></g></svg>