<?xml version="1.0" encoding="utf-8"?>
<svg version="1.1" id="Layer_1"
xmlns="http://www.w3.org/2000/svg"
xmlns:xlink="http://www.w3.org/1999/xlink"
xmlns:author="http://www.sothink.com"
width="5px" height="7px"
xml:space="preserve">
<g id="541" transform="matrix(1, 0, 0, 1, 2.1, 3.4)">
<radialGradient
id="RadialGradID_4368" gradientUnits="userSpaceOnUse" gradientTransform="matrix(0.0037384, 0.000656128, -0.00175476, 0.00692749, 0.65, 2.1)" spreadMethod ="pad" cx="0" cy="0" r="819.2" fx="0" fy="0" >
<stop  offset="0.6"  style="stop-color:#FDDBBE;stop-opacity:1" />
<stop  offset="0.941176"  style="stop-color:#FCCFAB;stop-opacity:0.0392157" />
</radialGradient>
<path style="fill:url(#RadialGradID_4368) " d="M0.9,-1.2L0.95 -0.15Q1.05 1.2 1.35 1.95L1.05 2.35L0.65 2.6L0.4 2.6L-0.2 2.45Q-0.65 2.25 -0.85 2.2L-1.5 2.15Q-1.9 2.25 -1.9 2.7L-2.1 2.05L-2.05 1.3L-1.85 0.45L-1.3 -0.8L-0.85 -1.6L-0.7 -1.85L-0.65 -1.95L0.1 -3.1Q0.65 -3.5 1.05 -3.4Q0.85 -3.05 0.9 -2.3L0.9 -2.2L0.9 -1.2" />
<radialGradient
id="RadialGradID_4369" gradientUnits="userSpaceOnUse" gradientTransform="matrix(0.00666809, -0.000671387, 0.000595093, 0.00588989, 0.45, 3.05)" spreadMethod ="pad" cx="0" cy="0" r="819.2" fx="0" fy="0" >
<stop  offset="0.313725"  style="stop-color:#F8C8A9;stop-opacity:1" />
<stop  offset="1"  style="stop-color:#F8C8A9;stop-opacity:1" />
</radialGradient>
<path style="fill:url(#RadialGradID_4369) " d="M1.05,-0.7L1.15 0.35L1.45 1.5L1.6 2.15L1.6 2.3L1.55 2.4L0.6 3.05L-0.3 2.8L-1.3 2.6L-1.75 2.8L-1.75 2.95L-1.9 2.7Q-1.9 2.25 -1.5 2.15L-0.85 2.2Q-0.65 2.25 -0.2 2.45L0.4 2.6L0.65 2.6L1.05 2.35L1.35 1.95Q1.05 1.2 0.95 -0.15L0.9 -1.2L0.9 -2.2L0.95 -1.45L0.95 -1.4L1 -1.2L1.05 -0.7M1.6,2.6L1.55 2.6L1.75 2.3L1.75 2.2L1.75 2.05L1.95 2.15L2.1 2.4L2.05 2.75L1.8 3L1.7 3L1.9 2.9L2 2.7L1.95 2.6L1.7 2.55L1.65 2.55L1.6 2.6M1.75,2.4L1.65 2.55L1.75 2.4" />
<radialGradient
id="RadialGradID_4370" gradientUnits="userSpaceOnUse" gradientTransform="matrix(0.00236511, -0.000244141, 0.000213623, 0.00209045, 0.1, 2.9)" spreadMethod ="pad" cx="0" cy="0" r="819.2" fx="0" fy="0" >
<stop  offset="0"  style="stop-color:#EA976D;stop-opacity:1" />
<stop  offset="1"  style="stop-color:#F3B78F;stop-opacity:1" />
</radialGradient>
<path style="fill:url(#RadialGradID_4370) " d="M1.65,2.55L1.7 2.55L1.95 2.6L2 2.7L1.9 2.9L1.7 3L1.4 3L1.1 3.1L1 3.15L0.5 3.45L-0.6 3.35L-1.6 3.05L-1.75 2.95L-1.75 2.8L-1.3 2.6L-0.3 2.8L0.6 3.05L1.55 2.4L1.6 2.3L1.6 2.15L1.45 1.5L1.15 0.35L1.05 -0.7L1 -1.2L1.55 1.5L1.7 1.95L1.75 2.05L1.75 2.2L1.75 2.3L1.55 2.6L1.6 2.6L1.65 2.55M-1.35,2.95L-1.3 3.05L-0.3 3.3L-1.1 2.9L-1.35 2.95M1.15,3.05Q1.4 2.9 1.6 2.9L1.8 2.8L1.75 2.8L1.65 2.8L1.25 2.95L1.15 3.05" />
<path style="fill:#823909;fill-opacity:1" d="M-1.1,2.9L-0.3 3.3L-1.3 3.05L-1.35 2.95L-1.1 2.9M1.25,2.95L1.65 2.8L1.75 2.8L1.8 2.8L1.6 2.9Q1.4 2.9 1.15 3.05L1.25 2.95" />
<linearGradient
id="LinearGradID_4371" gradientUnits="userSpaceOnUse" gradientTransform="matrix(-0.000961304, -0.000457764, 0.00227356, -0.00367737, -0.35, -0.25)" spreadMethod ="pad" x1="-819.2" y1="0" x2="819.2" y2="0" >
<stop  offset="0" style="stop-color:#FDDBBE;stop-opacity:1" />
<stop  offset="0.788235" style="stop-color:#FCCFAB;stop-opacity:0.0392157" />
</linearGradient>
<path style="fill:url(#LinearGradID_4371) " d="M1.65,2.55L1.75 2.4L1.65 2.55" />
<radialGradient
id="RadialGradID_4372" gradientUnits="userSpaceOnUse" gradientTransform="matrix(0.000671387, -6.10352e-005, 9.15527e-005, 0.000915527, 0.45, 1.25)" spreadMethod ="pad" cx="0" cy="0" r="819.2" fx="0" fy="0" >
<stop  offset="0"  style="stop-color:#FFFFFF;stop-opacity:0.701961" />
<stop  offset="0.933333"  style="stop-color:#FFFFFF;stop-opacity:0" />
</radialGradient>
<path style="fill:url(#RadialGradID_4372) " d="M1.05,1.25L0.9 1.85Q0.75 2.1 0.5 2.15Q0.2 2.15 0.05 1.9L-0.2 1.4L-0.05 0.75Q0.05 0.5 0.35 0.5Q0.6 0.45 0.8 0.7L1.05 1.25" />
<radialGradient
id="RadialGradID_4373" gradientUnits="userSpaceOnUse" gradientTransform="matrix(0.000350952, -3.05176e-005, 0.000213623, 0.0020752, 0.3, -0.85)" spreadMethod ="pad" cx="0" cy="0" r="819.2" fx="0" fy="0" >
<stop  offset="0"  style="stop-color:#FFFFFF;stop-opacity:0.6" />
<stop  offset="0.933333"  style="stop-color:#FFFFFF;stop-opacity:0" />
</radialGradient>
<path style="fill:url(#RadialGradID_4373) " d="M0.45,-1.05L0.5 -0.2L0.4 0.15L0.2 -0.15L0 -1L0.05 -1.9L0.15 -2.3L0.35 -1.95L0.45 -1.05" />
<radialGradient
id="RadialGradID_4374" gradientUnits="userSpaceOnUse" gradientTransform="matrix(-3.05176e-005, -0.000350952, 0.000610352, -6.10352e-005, -1.25, 1.7)" spreadMethod ="pad" cx="0" cy="0" r="819.2" fx="0" fy="0" >
<stop  offset="0"  style="stop-color:#FFFFFF;stop-opacity:0.4" />
<stop  offset="0.933333"  style="stop-color:#FFFFFF;stop-opacity:0" />
</radialGradient>
<path style="fill:url(#RadialGradID_4374) " d="M-1.25,1.4L-0.9 1.45L-0.7 1.65L-0.85 1.85L-1.2 2L-1.6 1.95L-1.75 1.75L-1.65 1.55L-1.25 1.4" />
</g>
</svg>
