<svg xmlns="http://www.w3.org/2000/svg" width="6" height="10"><g transform="translate(-66.2 -36.05)"><linearGradient id="a" gradientUnits="userSpaceOnUse" gradientTransform="matrix(.0001 -.00137 .00102 .00006 71.25 42.95)" x1="-819.2" x2="819.2"><stop offset="0" stop-color="#f9c29f"/><stop offset=".816" stop-color="#f7b488" stop-opacity=".29"/><stop offset="1" stop-color="#f7b488" stop-opacity=".102"/></linearGradient><path d="M68.6 36.9l1 1.85q.4.95.25 1.45l-.1 2.2v.8l.4.65h.35l.5-.25h.1l.35-.05.25.2.15.15.05.25-.05.25-.25.3-1.25.55-.55-.05-1.15-.6-.25-.25-.1-.25.05-.4.1-.15q.55-1.4.55-3.35-.05-2-2.8-4.15 1.75-.1 2.4.85" fill="url(#a)"/><radialGradient id="b" gradientUnits="userSpaceOnUse" gradientTransform="matrix(-.00049 .00002 .00005 .00284 70.3 41.65)" spreadMethod="pad" cx="0" cy="0" r="819.2" fx="0" fy="0"><stop offset=".314" stop-color="#fff" stop-opacity=".671"/><stop offset="1" stop-color="#fff" stop-opacity="0"/></radialGradient><path d="M69.95 42.95l.35.5.4-.5.1-1.3-.15-1.2q-.2-.5-.4-.5t-.35.5l-.2 1.25.25 1.25" fill="url(#b)"/><path d="M71.05 44.25l-.7.6.6-.3.45-.2-.35-.1m-1.85.25q.4 0 .65.3l-.65-.55h-.3l.3.25" fill="#823909"/></g></svg>