<svg xmlns="http://www.w3.org/2000/svg" width="4" height="10"><g transform="translate(2 4.5)"><path d="M1.45-1.9l.5 5.25q-1.2.6-2.85.6l-1-.2.2-4.45q.15-3.55 1.5-3.8t1.65 2.6" fill="#ffecd9"/><radialGradient id="a" gradientUnits="userSpaceOnUse" gradientTransform="matrix(-.00046 .00002 .00005 .00247 -.15 .7)" spreadMethod="pad" cx="0" cy="0" r="819.2" fx="0" fy="0"><stop offset=".314" stop-color="#fff" stop-opacity=".4"/><stop offset="1" stop-color="#fff" stop-opacity="0"/></radialGradient><path d="M-.5 1.8L-.65.75-.5-.4q.05-.45.3-.45l.35.45.2 1.1L.2 1.8l-.35.4-.35-.4" fill="url(#a)"/><radialGradient id="b" gradientUnits="userSpaceOnUse" gradientTransform="matrix(-.00084 0 .0001 .00085 0 2.95)" spreadMethod="pad" cx="0" cy="0" r="819.2" fx="0" fy="0"><stop offset=".314" stop-color="#fff" stop-opacity=".671"/><stop offset="1" stop-color="#fff" stop-opacity="0"/></radialGradient><path d="M-.65 3.3l.6.15.65-.15.25-.35q0-.25-.35-.4l-.65-.15-.6.15-.25.4.35.35" fill="url(#b)"/><radialGradient id="c" gradientUnits="userSpaceOnUse" gradientTransform="matrix(.00252 0 0 .00287 0 3.9)" spreadMethod="pad" cx="0" cy="0" r="819.2" fx="0" fy="0"><stop offset=".118" stop-color="#ed7b6f" stop-opacity=".812"/><stop offset=".729" stop-color="#f9a886" stop-opacity=".482"/></radialGradient><path d="M-1.8 2.9l.05.45.25.3.4-.1h.4l.4.2.3.05.5-.1.4-.15h.6l.25-.75h.05l.1.25.1.35-.2.55-.4.45-.7.05-.3.05-.25.05H-.1l-.4-.1h-.75q-.2 0-.4-.2l-.25-.65.1-.7" fill="url(#c)"/><path d="M-.85 4.1l.2.15.15.15h-.4q-.2.05-.2-.1l.05-.25.2.05m1.55.1l.2-.1h.15l.05.2H.7l-.2.1.2-.2" fill="#b55353"/><radialGradient id="d" gradientUnits="userSpaceOnUse" gradientTransform="matrix(-.00044 0 .00005 .00052 -1.5 3.2)" spreadMethod="pad" cx="0" cy="0" r="819.2" fx="0" fy="0"><stop offset=".314" stop-color="#fff" stop-opacity=".373"/><stop offset="1" stop-color="#fff" stop-opacity="0"/></radialGradient><path d="M-1.85 3.45L-2 3.2l.15-.2.3-.1.35.1q.15.05.15.2l-.15.25-.3.1-.35-.1" fill="url(#d)"/><radialGradient id="e" gradientUnits="userSpaceOnUse" gradientTransform="matrix(-.00044 0 .00005 .00052 1.3 3.2)" spreadMethod="pad" cx="0" cy="0" r="819.2" fx="0" fy="0"><stop offset=".314" stop-color="#fff" stop-opacity=".373"/><stop offset="1" stop-color="#fff" stop-opacity="0"/></radialGradient><path d="M.95 3.45L.8 3.2.95 3l.3-.1.35.1.15.2-.15.25-.3.1-.35-.1" fill="url(#e)"/></g></svg>