<svg xmlns="http://www.w3.org/2000/svg" width="9" height="11"><g transform="translate(4.3 5.15)"><path d="M4.35-4.75l-.55.5Q2.25-3.1 1.25-1.7L0 .2q-.25.45-.1 1.1h-.05l.05.15.05.1.2.4.6 1.5v.1l.05.1.05.3-.1.45-.25.3-.1.1H.35l-.5.05-.15.05-.35.1-.25.15-.75-.35-.35.05-.6-.4V4.4l-.1-.45v-.3l.05-.1.05-.1.1-.25.5-1.25V1.9q0-1.2-.4-2.55-.55-2.05-1.9-4.45l2.1-.05 6.05.3.5.1M-1.7 1.3h-.05.05" fill="#ffecd9"/><radialGradient id="a" gradientUnits="userSpaceOnUse" gradientTransform="matrix(.00351 .00319 -.00597 .0054 3.8 -2.35)" spreadMethod="pad" cx="0" cy="0" r="819.2" fx="0" fy="0"><stop offset="0" stop-color="#f5a878" stop-opacity=".643"/><stop offset=".988" stop-color="#f5a878" stop-opacity=".102"/></radialGradient><path d="M3.8-4.25Q2.25-3.1 1.25-1.7L0 .2q-.25.45-.1 1.1h-.05l.05.15.05.1.2.4.6 1.5v.1l.05.1.05.3-.1.45-.35.3H.35q.3-.5.05-.75l-.6-1.3-.75-3-.15-.45v-.75l.8-1.25q.7-1 3.15-1.8 2.4-.8.95.35" fill="url(#a)"/><radialGradient id="b" gradientUnits="userSpaceOnUse" gradientTransform="matrix(.00415 0 0 .00153 -.95 4.4)" spreadMethod="pad" cx="0" cy="0" r="819.2" fx="0" fy="0"><stop offset=".161" stop-color="#ffb496"/><stop offset=".337" stop-color="#ffb495" stop-opacity=".973"/><stop offset=".541" stop-color="#f5a878" stop-opacity=".392"/><stop offset="1" stop-color="#f5a878" stop-opacity="0"/></radialGradient><path d="M-.6.75L.1 2.8.6 4q.1.35-.2.8H.35l-.5.05-.15.05-.35.1-.25.15-.75-.35-.35.05q-.6 0-.6-.55l.5-.45.75.15q.55.1.75-.35V2.9L-.85.45q.05-.8.25.3" fill="url(#b)"/><path d="M-2.1 4.45l.25-.1.45.2h-.15l-.3.05-.25-.1v-.05m1.6.1q.2-.2.45-.2l.25.1v.05l-.25.1-.25-.05h-.2" fill="#823909"/><radialGradient id="c" gradientUnits="userSpaceOnUse" gradientTransform="matrix(.00049 0 0 .00194 -1.05 2.15)" spreadMethod="pad" cx="0" cy="0" r="819.2" fx="0" fy="0"><stop offset=".176" stop-color="#fff" stop-opacity=".671"/><stop offset="1" stop-color="#fff" stop-opacity="0"/></radialGradient><path d="M-.75 3.25l-.3.5-.3-.5-.1-1.1.1-1.15.3-.45.3.45.1 1.15-.1 1.1" fill="url(#c)"/></g></svg>