<svg xmlns="http://www.w3.org/2000/svg" width="4" height="9"><g transform="translate(1.65 4.05)"><path d="M-1.35-1.4q.25-2.45 1.4-2.65Q1.2-4.3 1.5-1.35q.25 2.75.1 4.6v.2l-.3.35-.4.05-.5.1-.3.2-.65-.25-.55-.05-.25-.2-.25-.3-.05-.3.05-.45.25-4" fill="#ffecd9"/><radialGradient id="a" gradientUnits="userSpaceOnUse" gradientTransform="matrix(.00507 0 0 .00563 .05 3.6)" spreadMethod="pad" cx="0" cy="0" r="819.2" fx="0" fy="0"><stop offset="0" stop-color="#d67259" stop-opacity=".714"/><stop offset="1" stop-color="#ffeddb" stop-opacity="0"/></radialGradient><path d="M-.55 2.35q.15.7.95.7L1.1 3q.5 0 .5.45l-.3.35-.4.05-.5.1-.3.2-.65-.25-.55-.05-.25-.2-.3-.6L-1.4 2-.9.55-.7-.8l.1 2.35.05.8" fill="url(#a)"/><path d="M-.85 3.2l.4.3.1.1-.4-.05L-1 3.3q0-.1.15-.1m1.5.25L.5 3.5q.25-.3.45-.25.25 0 .25.15l-.4.1-.15-.05" fill="#823709"/><radialGradient id="b" gradientUnits="userSpaceOnUse" gradientTransform="matrix(.00043 0 -.00002 .00227 .15 -.05)" spreadMethod="pad" cx="0" cy="0" r="819.2" fx="0" fy="0"><stop offset=".314" stop-color="#fff" stop-opacity=".671"/><stop offset="1" stop-color="#fff" stop-opacity="0"/></radialGradient><path d="M.45 1l-.3.4L-.2 1-.3-.05l.15-1L.2-1.4l.3.35.15 1L.45 1" fill="url(#b)"/><radialGradient id="c" gradientUnits="userSpaceOnUse" gradientTransform="matrix(.00043 0 -.00005 .00075 .05 2.2)" spreadMethod="pad" cx="0" cy="0" r="819.2" fx="0" fy="0"><stop offset=".314" stop-color="#fff" stop-opacity=".671"/><stop offset="1" stop-color="#fff" stop-opacity="0"/></radialGradient><path d="M.4 2.55l-.3.15-.35-.15-.15-.35.15-.3.4-.15.25.15.2.35-.2.3" fill="url(#c)"/></g></svg>