<svg xmlns="http://www.w3.org/2000/svg" width="4" height="8"><g transform="translate(1.7 3.55)"><path d="M1.65 2.75q-.35.5-.9.5l-2.2-.2-.15-.55.5-2.6.45-2.45q.2-.95 1.1-1 .9-.1 1.2 6.3" fill="#ffecd9"/><radialGradient id="a" gradientUnits="userSpaceOnUse" gradientTransform="matrix(.01949 .00322 -.0008 .0099 -.05 2.9)" spreadMethod="pad" cx="0" cy="0" r="819.2" fx="0" fy="0"><stop offset="0" stop-color="#e6835c" stop-opacity=".722"/><stop offset=".161" stop-color="#eea37c" stop-opacity=".322"/><stop offset=".694" stop-color="#f0aa86" stop-opacity="0"/></radialGradient><path d="M-.4-1.55L-.35.2v1.45l.05.05.05.05v.05l.15.15.35.1v.05L.7 2h.6l.3.25.05.05v.15l.05.3q-.1.55-1.05.6l-.45.2-.25-.15-.3-.15-1-.15q-.4-.1-.35-.55l.1-.4.45-.6.2-2.1.15-2.75.4 1.75" fill="url(#a)"/><radialGradient id="b" gradientUnits="userSpaceOnUse" gradientTransform="matrix(.0005 0 .00002 .00064 .15 1.55)" spreadMethod="pad" cx="0" cy="0" r="819.2" fx="0" fy="0"><stop offset=".314" stop-color="#fff" stop-opacity=".812"/><stop offset="1" stop-color="#fff" stop-opacity="0"/></radialGradient><path d="M.05 1.05H.1q.15 0 .3.15l.1.4-.1.3-.3.15-.25-.1-.2-.4.15-.35q.1-.15.2-.15h.05" fill="url(#b)"/><radialGradient id="c" gradientUnits="userSpaceOnUse" gradientTransform="matrix(.0005 .00003 .00012 .00241 -.05 -.9)" spreadMethod="pad" cx="0" cy="0" r="819.2" fx="0" fy="0"><stop offset=".314" stop-color="#fff" stop-opacity=".682"/><stop offset="1" stop-color="#fff" stop-opacity="0"/></radialGradient><path d="M0 1.05L-.1.8-.15.75-.2.45-.35-.9v-1.4l.2-.6.25.6.15 1.45L.2.45V.8H.15l-.1.25H0" fill="url(#c)"/><path d="M-.85 2.9l.2-.2.3.1.15.05-.35.1-.3-.05m1.9.05l-.3-.1h.1l.35-.15.05.25h-.2" fill="#823709"/></g></svg>