<svg xmlns="http://www.w3.org/2000/svg" width="8" height="9"><g transform="translate(3.75 4.45)"><radialGradient id="a" gradientUnits="userSpaceOnUse" gradientTransform="matrix(.0009 0 0 .00093 1.55 2.55)" spreadMethod="pad" cx="0" cy="0" r="819.2" fx="0" fy="0"><stop offset=".051" stop-color="#fff" stop-opacity=".78"/><stop offset="1" stop-color="#fff" stop-opacity="0"/></radialGradient><path d="M2 2.1l.2.45L2 3l-.45.2q-.25 0-.45-.2l-.15-.45.15-.45.45-.2.45.2" fill="url(#a)"/><radialGradient id="b" gradientUnits="userSpaceOnUse" gradientTransform="matrix(.00063 0 0 .00266 1.4 -.3)" spreadMethod="pad" cx="0" cy="0" r="819.2" fx="0" fy="0"><stop offset=".051" stop-color="#fff" stop-opacity=".6"/><stop offset="1" stop-color="#fff" stop-opacity="0"/></radialGradient><path d="M1.8-1.7l.15 1.4-.15 1.45q-.15.6-.4.6-.2 0-.35-.6Q.9.55.9-.3t.15-1.4q.15-.6.35-.6.25 0 .4.6" fill="url(#b)"/><radialGradient id="c" gradientUnits="userSpaceOnUse" gradientTransform="matrix(.0157 0 0 .01544 -1.25 .85)" spreadMethod="pad" cx="0" cy="0" r="819.2" fx="210502" fy="0"><stop offset="0" stop-color="#d67259" stop-opacity=".541"/><stop offset="1" stop-color="#ffeddb" stop-opacity="0"/></radialGradient><path d="M3.75 3.65l-.65.45-.4-.05q-.45 0-.85.4l-.45.05-.55-.15-.6-.2-.6.05Q-1 3.95-1 3.2l.25-.65.55-1.3q.15-.4.15-1.1 0-.65-.35-1.4l-1.05-1.6q-.9-.95-2.3-1.6l2.75.2q.75.25 1.3 1.4Q.75-1.8.75.55L.65 1.9q-.1 1.1.4 1.3l.7.1.35-.1.5-.3.75-.1q.4.1.4.85" fill="url(#c)"/><path d="M3 4l-.25.15-.6-.1.45-.25q.4 0 .4.2M.65 4l-.6.1q-.3 0-.3-.15 0-.2.4-.2l.5.25" fill="#823709"/></g></svg>