<svg xmlns="http://www.w3.org/2000/svg" width="7" height="10"><g><radialGradient id="a" gradientUnits="userSpaceOnUse" gradientTransform="matrix(.00586 0 0 .00586 5.3 3.5)" spreadMethod="pad" cx="0" cy="0" r="819.2" fx="0" fy="0"><stop offset=".239" stop-color="#d67259" stop-opacity=".541"/><stop offset="1" stop-color="#ffeddb" stop-opacity="0"/></radialGradient><path d="M3.8 7.05l-.45-.65-.3-.45-.45-.9V5l-.1-.7V3.2q0-.55.35-.95l.2-.25.5-.7L4.6.45l.3-.2Q5.15.1 5.45 0l-.4.5 1.2-.45L5 1.4l-.85 1.2q-.75 1.05-.75 3l.05.35.25.7v.05l.1.35" fill="url(#a)"/><radialGradient id="b" gradientUnits="userSpaceOnUse" gradientTransform="matrix(.00069 0 0 .00435 2.1 5.75)" spreadMethod="pad" cx="0" cy="0" r="819.2" fx="0" fy="0"><stop offset="0" stop-color="#fff"/><stop offset="1" stop-color="#fff" stop-opacity="0"/></radialGradient><path d="M2.1 3.45l.35.7.05 1.6-.05 1.65-.35.7q-.2 0-.35-.7l-.1-1.65.1-1.6q.15-.7.35-.7" fill="url(#b)"/><radialGradient id="c" gradientUnits="userSpaceOnUse" gradientTransform="matrix(.00607 -.00276 .0021 .0063 2.6 9.75)" spreadMethod="pad" cx="0" cy="0" r="819.2" fx="0" fy="0"><stop offset=".239" stop-color="#d67259" stop-opacity=".541"/><stop offset="1" stop-color="#ffeddb" stop-opacity="0"/></radialGradient><path d="M3.7 6.7l.15.35.05.1v.05l.35.75L4 8.4l-.65.3-.3.1-.35.25-.55.2H2.1l-.3-.05-.15-.05-.1-.05-.35-.2-.25-.1-.55-.2-.15-.05-.25-.3.25-.3.9.1 1.25.2q.55-.1.35-1.15L2.6 5.05l.45.9.3.45.45.65-.1-.35" fill="url(#c)"/><path d="M3.8 8.45l-.15.05-.8.35.3-.3q.25-.2.45-.2t.2.1m-2.45.45L.6 8.6q-.3-.2 0-.15l.65.25.1.15v.05" fill="#823709" fill-opacity=".753"/></g></svg>