<svg xmlns="http://www.w3.org/2000/svg" width="5" height="9"><g><radialGradient id="a" gradientUnits="userSpaceOnUse" gradientTransform="matrix(-.00525 .00131 .00217 .00566 2.5 7.95)" spreadMethod="pad" cx="0" cy="0" r="819.2" fx="0" fy="0"><stop offset=".125" stop-color="#d67259" stop-opacity=".541"/><stop offset="1" stop-color="#ffeddb" stop-opacity="0"/></radialGradient><path d="M3.05 5.5l.35.35-.15-.15-.35-.35-.25-.4.2.3.2.25M.4 7.85L.1 7.7l.2.2.6.05-.5-.1" fill="url(#a)"/><radialGradient id="b" gradientUnits="userSpaceOnUse" gradientTransform="matrix(-.00076 -.00023 -.00012 .0008 1.95 6.45)" spreadMethod="pad" cx="0" cy="0" r="819.2" fx="0" fy="0"><stop offset=".224" stop-color="#fff"/><stop offset="1" stop-color="#fff" stop-opacity="0"/></radialGradient><path d="M2.05 5.8l-.45.1q-.2.05-.25.35l.1.55.4.3.45-.05.3-.4-.15-.5-.4-.35" fill="url(#b)"/><radialGradient id="c" gradientUnits="userSpaceOnUse" gradientTransform="matrix(-.00061 .00003 .00012 .0026 1.75 3.85)" spreadMethod="pad" cx="0" cy="0" r="819.2" fx="0" fy="0"><stop offset="0" stop-color="#fff"/><stop offset="1" stop-color="#fff" stop-opacity="0"/></radialGradient><path d="M1.5 5.35l.35.6q.25 0 .3-.6l.1-1.55-.2-1.5-.35-.6q-.25 0-.4.65-.1.65-.05 1.55l.25 1.45" fill="url(#c)"/><radialGradient id="d" gradientUnits="userSpaceOnUse" gradientTransform="matrix(-.00525 .00131 .00217 .00566 2.5 7.95)" spreadMethod="pad" cx="0" cy="0" r="819.2" fx="0" fy="0"><stop offset=".125" stop-color="#d67259" stop-opacity=".541"/><stop offset="1" stop-color="#ffeddb" stop-opacity="0"/></radialGradient><path d="M2.65 4.95V4.9l.15 1.05v.7l-.1.4-.2.3-.35.15-.6-.05-.85-.3H.45q-.25 0-.4.3L0 7.5v.05l.1.05v.1l.3.15.6.1.05.05.4.1q.75.4 1 .2.5-.35.55-.35h.65L3.6 8q.55 0 .7-.4l.05-.15.05-.65-.5-.55-.2-.2h-.05l-.25-.2-.35-.25v-.1l-.2-.25-.2-.3" fill="url(#d)"/><path d="M1.1 7.85l-.4.1.05.1H1l.25.05.3.1-.45-.35m2.4 0q-.35-.1-.7.5.2-.3.5-.25l.3-.05-.1-.2" fill="#823909"/><radialGradient id="e" gradientUnits="userSpaceOnUse" gradientTransform="matrix(-.00352 -.00107 -.00093 .00615 3.75 3.2)" spreadMethod="pad" cx="0" cy="0" r="819.2" fx="0" fy="0"><stop offset=".039" stop-color="#d67259" stop-opacity=".541"/><stop offset="1" stop-color="#ffeddb" stop-opacity="0"/></radialGradient><path d="M4.9 0Q3.4.35 3 .85q-.3.4-.45 1.4-.15.9-.05 2.25v.35l.05.1.1.05.25.35.3.4h.05l.15.15.1.1v.05L3.55 6l.05.1.05.05V6.1l.6.45h.1q-.3-.05-.65-.95l-.3-1.95q-.05-1.05.5-2.1L4.9 0M3.25 5.7h.05-.05" fill="url(#e)"/></g></svg>