<svg xmlns="http://www.w3.org/2000/svg" width="5" height="9"><g transform="translate(2.05 4.3)"><radialGradient id="a" gradientUnits="userSpaceOnUse" gradientTransform="matrix(.0237 -.00087 .00073 .02147 .25 3.7)" spreadMethod="pad" cx="0" cy="0" r="819.2" fx="0" fy="0"><stop offset="0" stop-color="#e6835c" stop-opacity=".722"/><stop offset=".161" stop-color="#eea37c" stop-opacity=".322"/><stop offset=".694" stop-color="#f0aa86" stop-opacity="0"/></radialGradient><path d="M-1.45-1.85q.05-1.55-.4-2.45 1 1.35 1.15 3.35.1 1.95-.2 2.9-.3.95.3 1.25l.9.25.6-.2q.35-.3.7-.35.3 0 .4.35v.5l-.25.15-.35.1-.6.15-.5.2-.65-.25q-1.35-.25-1.55-.85-.3-.65-.05-1.1.25-.5.35-1.45l.15-2.55" fill="url(#a)"/><path d="M1.5 3.55l-.7.35q.1-.35.45-.45.3-.15.25.1m-2.3-.1q.3.1.45.45l-.75-.35q-.05-.25.3-.1" fill="#823709"/><radialGradient id="b" gradientUnits="userSpaceOnUse" gradientTransform="matrix(.00165 -.0001 .00008 .0015 .1 2.4)" spreadMethod="pad" cx="0" cy="0" r="819.2" fx="0" fy="0"><stop offset=".157" stop-color="#fff"/><stop offset="1" stop-color="#fff" stop-opacity="0"/></radialGradient><path d="M0 .8q.6.95.6 1.6 0 .65-.5.7-.45 0-.45-.55L0 .8" fill="url(#b)"/><radialGradient id="c" gradientUnits="userSpaceOnUse" gradientTransform="matrix(.00153 .00017 -.00052 .00502 -.45 -.55)" spreadMethod="pad" cx="0" cy="0" r="819.2" fx="0" fy="0"><stop offset=".616" stop-color="#fff" stop-opacity=".533"/><stop offset="1" stop-color="#fff" stop-opacity="0"/></radialGradient><path d="M.05-3.1q.5.55.5 2.8T0 1.8q-.5-.2-.4-2.85.05-2.7.45-2.05" fill="url(#c)"/></g></svg>