<svg xmlns="http://www.w3.org/2000/svg" width="8" height="11"><g transform="translate(3.8 5.25)"><radialGradient id="a" gradientUnits="userSpaceOnUse" gradientTransform="matrix(.00505 -.00012 .00032 .00404 -1.85 3.4)" spreadMethod="pad" cx="0" cy="0" r="819.2" fx="210499" fy="0"><stop offset="0" stop-color="#d7745b"/><stop offset="1" stop-color="#ffeddb" stop-opacity="0"/></radialGradient><path d="M-3.7 3.25l.2.6.45.1q.3 0 .6.3l.65.25.3-.1.25-.25L-.7 4l.45-.15q.2-.2.15-.65l.05-.05.1.55q-.2.75-.8 1.05l-1 .5H-2l-.65-.5-.85-.35-.25-.6-.05-.65.05-.2.05.3" fill="url(#a)"/><radialGradient id="b" gradientUnits="userSpaceOnUse" gradientTransform="matrix(.00514 0 0 .00786 -1.95 3.75)" spreadMethod="pad" cx="0" cy="0" r="819.2" fx="210499" fy="0"><stop offset="0" stop-color="#d67259" stop-opacity=".412"/><stop offset="1" stop-color="#ffeddb" stop-opacity="0"/></radialGradient><path d="M-.5 1.75h-.05l.45.75.1.4.05.35q.1.4-.5.95l-.6.15-.8.5-.7-.3-.75-.25q-.55-.2-.45-1.5.35-.65.3-.1-.1.5.15.7l.5.25.35.25.5.15q.3 0 .75-.35.4-.4.3-.9l-.15-.9-.1-1 .05-.9q.15 1.95.6 1.75m-.55 2.6l.1-.05-.1.05" fill="url(#b)"/><radialGradient id="c" gradientUnits="userSpaceOnUse" gradientTransform="matrix(.00726 -.00087 .00284 .0218 -2.55 -6.25)" spreadMethod="pad" cx="0" cy="0" r="819.2" fx="210499" fy="0"><stop offset="0" stop-color="#d67259" stop-opacity=".882"/><stop offset="1" stop-color="#ffeddb" stop-opacity="0"/></radialGradient><path d="M-.95 4.3l-.1.05.1-.05" fill="url(#c)"/><radialGradient id="d" gradientUnits="userSpaceOnUse" gradientTransform="matrix(.0111 0 0 .01172 -6.35 0)" spreadMethod="pad" cx="0" cy="0" r="819.2" fx="210499" fy="0"><stop offset="0" stop-color="#d67259" stop-opacity=".6"/><stop offset=".663" stop-color="#f1c5b1" stop-opacity=".286"/><stop offset="1" stop-color="#ffeddb" stop-opacity="0"/></radialGradient><path d="M3.15-4.8q-.55.15-.6-.2l1-.25q.7.15-.4.45M-1.1 0l.1-.85.4-1.4Q-.4-2.95 1-4-.35-2.15-.5-.8-.7.5-.5 1.75q-.45.2-.6-1.75" fill="url(#d)"/><radialGradient id="e" gradientUnits="userSpaceOnUse" gradientTransform="matrix(.00063 .00003 .00002 .003 -1.9 .1)" spreadMethod="pad" cx="0" cy="0" r="819.2" fx="0" fy="0"><stop offset="0" stop-color="#fff"/><stop offset="1" stop-color="#fff" stop-opacity="0"/></radialGradient><path d="M-1.6 1.7q-.15.75-.3.7l-.35-.75L-2.4.1l.15-1.7.35-.65.3.7q.15.75.15 1.7 0 .9-.15 1.55" fill="url(#e)"/><radialGradient id="f" gradientUnits="userSpaceOnUse" gradientTransform="matrix(.00084 -.00002 .00006 .00072 -1.95 3.1)" spreadMethod="pad" cx="0" cy="0" r="819.2" fx="0" fy="0"><stop offset=".176" stop-color="#fff"/><stop offset="1" stop-color="#fff" stop-opacity="0"/></radialGradient><path d="M-1.45 3.45l-.45.2q-.25 0-.5-.2l-.2-.3.15-.45.5-.15q.25 0 .45.15l.2.4-.15.35" fill="url(#f)"/></g></svg>