<svg xmlns="http://www.w3.org/2000/svg" width="9" height="10"><g transform="translate(4.4 4.95)"><radialGradient id="a" gradientUnits="userSpaceOnUse" gradientTransform="matrix(.00452 0 0 .00374 -.5 2.35)" spreadMethod="pad" cx="0" cy="0" r="819.2" fx="0" fy="0"><stop offset="0" stop-color="#e66f49" stop-opacity=".651"/><stop offset="1" stop-color="#f0aa86" stop-opacity="0"/></radialGradient><path d="M1.75 3.15L2 3.9l-.15.6q-.2.4-.95.45L-.2 4.8l-.9-.45-.95-.05-.15-.05-.15-.2L-2.4 4l-.1-.2.05.1-.05-.15V3.7h.05l.7.4.45-.15.2.1.1.05.45.15.75-.2.45.15.7-.2.1-.1.3-.75" fill="url(#a)"/><radialGradient id="b" gradientUnits="userSpaceOnUse" gradientTransform="matrix(.00685 0 0 .00542 -.6 4.05)" spreadMethod="pad" cx="0" cy="0" r="819.2" fx="0" fy="0"><stop offset="0" stop-color="#fca783"/><stop offset=".729" stop-color="#fcdcce" stop-opacity=".651"/><stop offset="1" stop-color="#fcead8" stop-opacity="0"/></radialGradient><path d="M.95.45l-.05.8.05-.5.1.55v.4l.25.6.45.85-.3.75-.1.1-.7.2-.45-.15-.75.2L-1 4.1l-.1-.05-.2-.1-.45.15-.7-.4-.05-.05-.05-.05.15-.25q.05-.4.65-.25l.3.05.8.35h.3L0 3.45l.3-.3.2-.35.05-.4v-.55q.15.2.4-1.4" fill="url(#b)"/><radialGradient id="c" gradientUnits="userSpaceOnUse" gradientTransform="matrix(.00507 0 0 .00507 -1.3 -2.5)" spreadMethod="pad" cx="0" cy="0" r="819.2" fx="0" fy="0"><stop offset="0" stop-color="#fca783"/><stop offset=".729" stop-color="#fcdcce" stop-opacity=".651"/><stop offset="1" stop-color="#fcead8" stop-opacity="0"/></radialGradient><path d="M.9-.85q-.05-.8 1.6-3.75l1.95.15q-2.3 1.3-3 3.05l-.5.8L.9-.85" fill="url(#c)"/><radialGradient id="d" gradientUnits="userSpaceOnUse" gradientTransform="matrix(.01093 0 0 .01762 -7.15 .85)" spreadMethod="pad" cx="0" cy="0" r="819.2" fx="0" fy="0"><stop offset=".133" stop-color="#f58b69" stop-opacity=".624"/><stop offset="1" stop-color="#ffdec2" stop-opacity="0"/></radialGradient><path d="M-2.55 3.6v-.05h-.05l-.1-.15.05-.2V3l.25-.7.3-.95.05-.9L-2 .2h-.05Q-2.2-2.35-4.4-4.55l.3.25-.25-.65 1.3.45 1.1.75q.55.65.85 1.45l.05.15q0 .9-.15 1.5l-.35 1.3-.35 1.4q-.2.75.1.85l.35.15.2.1.3.3.3.05-.8-.35-.3-.05q-.6-.15-.65.25l-.15.25" fill="url(#d)"/><radialGradient id="e" gradientUnits="userSpaceOnUse" gradientTransform="matrix(.0192 0 0 .0192 -8.7 -1)" spreadMethod="pad" cx="0" cy="0" r="819.2" fx="0" fy="0"><stop offset="0" stop-color="#db8664"/><stop offset="1" stop-color="#fcead8" stop-opacity="0"/></radialGradient><path d="M.55 1.85l-.05-.6-.1-.9-.1-.6-.1-.4L.15-.9.1-1.3l-.05-.85Q.5-3.55 2.5-4.6.85-1.65.9-.85l.05.25V.45q-.25 1.6-.4 1.4" fill="url(#e)"/><path d="M.35 3.8q.3-.2.55-.2l.2.15-.75.05m-1.9 0h-.55q0-.2.3-.2.2 0 .45.25l.05.05-.25-.1" fill="#823709"/><radialGradient id="f" gradientUnits="userSpaceOnUse" gradientTransform="matrix(.00069 0 0 .00273 -.55 .9)" spreadMethod="pad" cx="0" cy="0" r="819.2" fx="0" fy="0"><stop offset="0" stop-color="#fff"/><stop offset="1" stop-color="#fff" stop-opacity="0"/></radialGradient><path d="M-.55 2.85l-.3-.55L-1 .9l.15-1.4.3-.55.35.55q.15.6.15 1.4 0 .8-.15 1.4l-.35.55" fill="url(#f)"/><radialGradient id="g" gradientUnits="userSpaceOnUse" gradientTransform="matrix(.00072 0 0 .00072 -.6 2.8)" spreadMethod="pad" cx="0" cy="0" r="819.2" fx="0" fy="0"><stop offset="0" stop-color="#fff"/><stop offset="1" stop-color="#fff" stop-opacity="0"/></radialGradient><path d="M-1.05 2.4l.45-.15.4.15q.15.15.15.4l-.15.4-.4.2-.45-.2-.15-.4.15-.4" fill="url(#g)"/></g></svg>