<svg xmlns="http://www.w3.org/2000/svg" width="8" height="10"><g transform="translate(3.65 4.9)"><radialGradient id="a" gradientUnits="userSpaceOnUse" gradientTransform="matrix(.00734 .00584 -.0107 .01494 -6.95 1.7)" spreadMethod="pad" cx="0" cy="0" r="819.2" fx="0" fy="0"><stop offset="0" stop-color="#d67259" stop-opacity=".753"/><stop offset="1" stop-color="#ffeddb" stop-opacity="0"/></radialGradient><path d="M-3.65-4.9l2.25.65q1.15.35 1.6 1.4.45 1 .45 2.2L.55.45.1 2.05l-1-3.65-.25-.55-.65-1.2q-.55-.95-1.85-1.55" fill="url(#a)"/><radialGradient id="b" gradientUnits="userSpaceOnUse" gradientTransform="matrix(.00629 0 0 .0064 .9 1.3)" spreadMethod="pad" cx="0" cy="0" r="819.2" fx="0" fy="0"><stop offset="0" stop-color="#f58b69" stop-opacity=".243"/><stop offset="1" stop-color="#ffdec2" stop-opacity="0"/></radialGradient><path d="M3.45 3.6v-.1l.05.3-.05-.15V3.6" fill="url(#b)"/><radialGradient id="c" gradientUnits="userSpaceOnUse" gradientTransform="matrix(.00658 0 0 .0085 1.35 .55)" spreadMethod="pad" cx="0" cy="0" r="819.2" fx="0" fy="0"><stop offset=".353" stop-color="#f58b69" stop-opacity=".243"/><stop offset="1" stop-color="#ffdec2" stop-opacity="0"/></radialGradient><path d="M3.45 3.65v.3l-.1.35-.15-.2v.1q-.15-.55-.6-.65l.05-.1q.3.05.45.3v-.2l-.05-.35q-.1-.45-.4-.75L2.4 2.4l-.2 1.15.05.05-.1.05-.35.3.25-.9v-.5L2 1.5 1.75-.45q-.2-1.1.45-2.05.65-1 1.45-1.45-.85 2.05-.95 2.7L2.6.2q-.05.8.15 1.35l.5 1.25.2.8v.05" fill="url(#c)"/><radialGradient id="d" gradientUnits="userSpaceOnUse" gradientTransform="matrix(.01288 0 0 .01036 1 4.25)" spreadMethod="pad" cx="0" cy="0" r="819.2" fx="0" fy="0"><stop offset="0" stop-color="#e6835c" stop-opacity=".722"/><stop offset=".227" stop-color="#ed9e76" stop-opacity=".553"/><stop offset=".694" stop-color="#f0aa86" stop-opacity=".392"/><stop offset=".894" stop-color="#f0aa86" stop-opacity="0"/></radialGradient><path d="M.6-.05L.65 1.3l-.1 1.05v1q.05.4.4.65l.55.1.3-.15.35-.3.1-.05q.05-.1.15-.1h.1l.1.05q.45.1.6.65l-.05.25-.35.1h-.15l-.7.05-.15.1-.5.25-.5-.25-.2-.1h-.65l-.7-.15V4.4l-.15-.2-.1-.35.1-.75.05-.15.05-.15.3-1.45q.15-.85.15-1.9-.05-1.1-.8-2.05l-1.8-1.75Q-.7-3.9-.1-2.45l.7 2.4" fill="url(#d)"/><path d="M2.65 4l-.95.45.6-.75.35.3M.5 3.95l.3.45-.75-.3v-.2l.45.05" fill="#823709"/><path d="M.1 3.05l.15.55Q-.2 4-.4 4l-.25-.4q-.05-.65.4-1.1l.3-.05.05.6" fill="#fdd4bd"/><radialGradient id="e" gradientUnits="userSpaceOnUse" gradientTransform="matrix(.00073 0 0 .00401 1.5 -.05)" spreadMethod="pad" cx="0" cy="0" r="819.2" fx="0" fy="0"><stop offset=".02" stop-color="#fff" stop-opacity=".761"/><stop offset="1" stop-color="#fff" stop-opacity="0"/></radialGradient><path d="M1.8 1.75l-.25.75q-.2 0-.3-.75L1.15 0l.1-1.8q.1-.75.3-.75l.25.75.15 1.8-.15 1.75" fill="url(#e)"/><radialGradient id="f" gradientUnits="userSpaceOnUse" gradientTransform="matrix(.00087 0 0 .00089 1.45 3.05)" spreadMethod="pad" cx="0" cy="0" r="819.2" fx="0" fy="0"><stop offset=".259" stop-color="#fff" stop-opacity=".761"/><stop offset="1" stop-color="#fff" stop-opacity="0"/></radialGradient><path d="M1.95 3.5l-.5.25L1 3.5l-.2-.45.2-.55q.2-.15.45-.15l.5.15.2.55-.2.45" fill="url(#f)"/></g></svg>