<svg xmlns="http://www.w3.org/2000/svg" width="7" height="9"><g transform="translate(-66.75 -37.65)"><radialGradient id="a" gradientUnits="userSpaceOnUse" gradientTransform="matrix(.00565 -.00023 .00014 .00357 68.25 44.9)" spreadMethod="pad" cx="0" cy="0" r="819.2" fx="250" fy="0"><stop offset=".494" stop-color="#e8a892" stop-opacity=".49"/><stop offset="1" stop-color="#fdddd0" stop-opacity=".69"/></radialGradient><path d="M69 40q.2-1.45.25 2.4v.7l-.1.6.05.4.15.15.15.05.15.05.45.15H70.5l.15-.05.2-.1.25-.25.15-.35-.05-.6-.2-.7.7.6.2.55v.3l-.15.6v.05l-.25.1h.05l-.25.1-.45.1-.4.05h-.4l-.45-.05h-.8l-.2-.15-.35-.4-.1-.25.05-.3.15-.3.15-.25.2-.85L69 40m.8 4.75h.05-.05" fill="url(#a)"/><radialGradient id="b" gradientUnits="userSpaceOnUse" gradientTransform="matrix(.00214 -.0001 .00003 .0008 70.25 44.45)" spreadMethod="pad" cx="0" cy="0" r="819.2" fx="0" fy="0"><stop offset="0" stop-color="#e8a892" stop-opacity=".671"/><stop offset="1" stop-color="#fdddd0" stop-opacity="0"/></radialGradient><path d="M68.7 45.05q-.65-.2-.65-.5-.05-.3.6-.55l1.55-.3 1.5.15.7.55-.65.5-1.5.25-1.55-.1" fill="url(#b)"/><path d="M69.3 42.3l-.05.45q-.1.15-.05.5l.2.6.2.4-.05.1h-.1l-.5-.15-.2-.4.15-.8.1-1.2.3.5" fill="#ffecd8" fill-opacity=".643"/><path d="M71.1 44.55l-.55.1-.05.05.05-.05.6-.4h.25l.05.05v.1l-.35.15m-1.6.1l-.35-.1h-.2l-.05.05-.05-.05-.05-.15q-.05-.15.15-.15.15 0 .4.15l.25.2.15.1h-.05l-.2-.05" fill="#b84326"/><radialGradient id="c" gradientUnits="userSpaceOnUse" gradientTransform="matrix(.0009 -.00003 .00005 .00122 68.9 44.55)" spreadMethod="pad" cx="0" cy="0" r="819.2" fx="0" fy="0"><stop offset=".18" stop-color="#ffecd9" stop-opacity=".69"/><stop offset="1" stop-color="#ffecd9" stop-opacity="0"/></radialGradient><path d="M69.7 44.7l.05.05v.05l-.05.05-.45-.15-.35-.1.05-.05h.2l.35.1.2.05" fill="url(#c)"/><radialGradient id="d" gradientUnits="userSpaceOnUse" gradientTransform="rotate(-1.371 1289.34 -2016.409) scale(.00087)" spreadMethod="pad" cx="0" cy="0" r="819.2" fx="0" fy="0"><stop offset=".18" stop-color="#ffecd9" stop-opacity=".69"/><stop offset="1" stop-color="#ffecd9" stop-opacity="0"/></radialGradient><path d="M71.45 44.4l-.4.25-.6.15.1-.15.55-.1.35-.15" fill="url(#d)"/><radialGradient id="e" gradientUnits="userSpaceOnUse" gradientTransform="matrix(.00021 .00078 -.00066 .00026 70.15 43.65)" spreadMethod="pad" cx="0" cy="0" r="819.2" fx="0" fy="0"><stop offset=".314" stop-color="#fff"/><stop offset="1" stop-color="#fff" stop-opacity="0"/></radialGradient><path d="M69.75 43.4l.35-.25h.35l.25.35v.45l-.35.3h-.4l-.2-.4v-.45" fill="url(#e)"/><radialGradient id="f" gradientUnits="userSpaceOnUse" gradientTransform="matrix(-.00041 .00008 .00017 .00267 69.9 41.2)" spreadMethod="pad" cx="0" cy="0" r="819.2" fx="0" fy="0"><stop offset=".259" stop-color="#fff"/><stop offset="1" stop-color="#fff" stop-opacity="0"/></radialGradient><path d="M69.8 42.75l-.2-1.45v-1.55l.15-.7.3.6.15 1.5v1.55l-.15.65q-.15.05-.25-.6" fill="url(#f)"/><radialGradient id="g" gradientUnits="userSpaceOnUse" gradientTransform="rotate(-2.688 1143.694 -1751.766) scale(.00388)" spreadMethod="pad" cx="0" cy="0" r="819.2" fx="0" fy="0"><stop offset=".141" stop-color="#e09079" stop-opacity=".761"/><stop offset="1" stop-color="#ffeddb" stop-opacity="0"/></radialGradient><path d="M70.1 45.95l-.05-.1-.05-.05-.05-.1-.1-.15-.05-.05.05-.4q.05-.3.25-.3h.45l.05 1.15-.4.1-.1-.1m-.2-.05v-.05.05" fill="url(#g)"/><radialGradient id="h" gradientUnits="userSpaceOnUse" gradientTransform="translate(69.6 46.35) scale(.00119)" spreadMethod="pad" cx="0" cy="0" r="819.2" fx="0" fy="0"><stop offset=".039" stop-color="#e09079" stop-opacity=".761"/><stop offset="1" stop-color="#ffeddb" stop-opacity="0"/></radialGradient><path d="M69.9 45.85v-.05l-.05-.25.1.15.05.1.05.05.05.1.1.1v.05l.1.1-.05.05-.25-.15-.1-.15v-.1" fill="url(#h)"/><radialGradient id="i" gradientUnits="userSpaceOnUse" gradientTransform="matrix(.0007 -.00003 .00003 .00096 70.2 45.05)" spreadMethod="pad" cx="0" cy="0" r="819.2" fx="0" fy="0"><stop offset=".18" stop-color="#ffecd9" stop-opacity=".69"/><stop offset="1" stop-color="#ffecd9" stop-opacity="0"/></radialGradient><path d="M70.15 44.8l.2.45.1.75v.15h-.1q-.35 0-.4-.2v-.75q.05-.4.2-.4" fill="url(#i)"/><radialGradient id="j" gradientUnits="userSpaceOnUse" gradientTransform="matrix(.00203 .00005 .00143 .00557 68.4 40.1)" spreadMethod="pad" cx="0" cy="0" r="819.2" fx="250" fy="0"><stop offset=".192" stop-color="#d7745b" stop-opacity=".224"/><stop offset=".737" stop-color="#ffeddb" stop-opacity="0"/></radialGradient><path d="M66.75 37.75l1.85.1.55.05q.6.1.8 1.15.2.95-.1 3.15-.25 2.1-.6 2.05-.4 0-.45-1.15l.15-1.55q.05-.65-.3-2-.3-1.35-1.9-1.8" fill="url(#j)"/><radialGradient id="k" gradientUnits="userSpaceOnUse" gradientTransform="matrix(-.00183 .00023 -.00061 .00577 71.4 40.6)" spreadMethod="pad" cx="0" cy="0" r="819.2" fx="250" fy="0"><stop offset=".192" stop-color="#d7745b" stop-opacity=".114"/><stop offset=".737" stop-color="#ffeddb" stop-opacity="0"/></radialGradient><path d="M70.2 39.1q.15-1 .65-1.2l.45-.05 1.6-.2q-1.35.5-1.6 1.85v2.05l.2 1.55q0 .5-.45 0-.4-.45-.65-1.75-.3-1.25-.2-2.25" fill="url(#k)"/></g></svg>