<svg xmlns="http://www.w3.org/2000/svg" width="5" height="9"><g><path d="M3.8 6.6l.1.35v.15l-.1.1-.25-.25-.3-.2.15-.2.2-.1q.1 0 .2.15" fill="#fadcca"/><radialGradient id="a" gradientUnits="userSpaceOnUse" gradientTransform="matrix(.0079 0 0 .00836 5 6.15)" spreadMethod="pad" cx="0" cy="0" r="819.2" fx="160" fy="0"><stop offset=".494" stop-color="#e8a892" stop-opacity=".49"/><stop offset="1" stop-color="#fdddd0" stop-opacity=".69"/></radialGradient><path d="M4.05 6.3l-.3-.35-.2-.35v-.05l-.05-.1q-.3-.6-.3-1.05l-.05.05.05.85v.1q0 .5.15.65l.15.2.35.25q.3.35.25.95v.05l-.2.2-.7.2-.3-.1-.35.05-.3.1-.3-.1H1.5l-.55.05q-.6-.05-.7-.45l.1-.3q.15-.4.4-.5l.15-.1h.35l.45.25.6.1h.1l.45-.4-.05-.95Q2.55 3.1 3 1.9 3.3.95 4.3 0q-.2.4-.05.4-1 1.55-.95 2.55l.1 1.3.2.9.15.6.3.55m-.45.15l-.2.1-.15.2.3.2.25.25.1-.1v-.15l-.1-.35q-.1-.15-.2-.15" fill="url(#a)"/><radialGradient id="b" gradientUnits="userSpaceOnUse" gradientTransform="matrix(.00565 0 0 .008 1 4.7)" spreadMethod="pad" cx="0" cy="0" r="819.2" fx="0" fy="0"><stop offset="0" stop-color="#d7745b" stop-opacity=".224"/><stop offset="1" stop-color="#ffeddb" stop-opacity="0"/></radialGradient><path d="M.25 7.45l-.1-.25q-.1-.7.3-1.3l.1-.2q.65-1.3.5-4.85l.3 1.05.1 3.85q-.05.8.25 1.05l-.45-.25H.9q-.05-.15.25-.25-.75-.05-.8.55v.3l-.1.3" fill="url(#b)"/><radialGradient id="c" gradientUnits="userSpaceOnUse" gradientTransform="matrix(.0063 0 0 .00272 2.95 6.8)" spreadMethod="pad" cx="0" cy="0" r="819.2" fx="0" fy="0"><stop offset=".396" stop-color="#d67259" stop-opacity=".541"/><stop offset="1" stop-color="#ffeddb" stop-opacity="0"/><stop offset="1" stop-color="#fde7d5" stop-opacity=".027"/></radialGradient><path d="M4.15 6.85l-.1-.5V6.3l-.3-.55.45.75.15 1.05-.1.15-.1.1-.15.1-.8.25-.6-.1h-.05l-.35.05H2l-.1-.05L1.8 8h-.2L.35 7.9q-.4-.4-.35-1.2.1-.45.55-1l-.1.2q-.4.6-.3 1.3l.1.25q.1.4.7.45l.55-.05h.45l.3.1.3-.1.35-.05.3.1.7-.2.2-.2.05-.65" fill="url(#c)"/><radialGradient id="d" gradientUnits="userSpaceOnUse" gradientTransform="matrix(.00266 -.00134 .00249 .00493 2.7 6.45)" spreadMethod="pad" cx="0" cy="0" r="819.2" fx="0" fy="0"><stop offset=".396" stop-color="#d67259" stop-opacity=".541"/><stop offset="1" stop-color="#ffeddb" stop-opacity="0"/><stop offset="1" stop-color="#fde7d5" stop-opacity=".027"/></radialGradient><path d="M4.1 7.5v-.05q.05-.6-.25-.95l-.35-.25-.15-.2Q3.2 5.9 3.2 5.4v-.1l-.05-.85.05-.05q0 .45.3 1.05l.05.1v.05l.2.35.3.35v.05l.1.5-.05.65" fill="url(#d)"/><radialGradient id="e" gradientUnits="userSpaceOnUse" gradientTransform="matrix(.00647 0 0 .01099 3.95 3.95)" spreadMethod="pad" cx="0" cy="0" r="819.2" fx="0" fy="0"><stop offset="0" stop-color="#d7745b" stop-opacity=".224"/><stop offset="1" stop-color="#ffeddb" stop-opacity="0"/></radialGradient><path d="M3 1.9q-.45 1.2-.2 3.65l.05.95-.45.4q.4-.6.2-1.1-.25-.55-.25-2.2.05-1.5.4-2.65L2.8.9l.6-.45Q3.85.1 4.3 0 3.3.95 3 1.9" fill="url(#e)"/><path d="M3.4 7.2l-.1.25-.4.15-.35-.1.5-.4h.3l.05.1m-2.45.25l-.2-.2Q.7 7.05.9 7l.5.2.1.15-.55.1" fill="#b84326"/><radialGradient id="f" gradientUnits="userSpaceOnUse" gradientTransform="matrix(-.00052 -.00002 -.00008 .00275 2.1 3.55)" spreadMethod="pad" cx="0" cy="0" r="819.2" fx="0" fy="0"><stop offset=".063" stop-color="#fff"/><stop offset="1" stop-color="#fff" stop-opacity="0"/></radialGradient><path d="M2.15 1.3l.25.7.1 1.55-.15 1.6-.3.7-.35-.75q-.1-.6-.05-1.6l.15-1.55q.15-.7.35-.65" fill="url(#f)"/><radialGradient id="g" gradientUnits="userSpaceOnUse" gradientTransform="matrix(.00061 -.00043 .00037 .00076 2 6.25)" spreadMethod="pad" cx="0" cy="0" r="819.2" fx="0" fy="0"><stop offset=".173" stop-color="#fff" stop-opacity=".812"/><stop offset="1" stop-color="#fff" stop-opacity="0"/></radialGradient><path d="M1.75 5.65l.4-.05.4.35.05.5-.3.45-.4.05-.3-.3-.1-.55q.05-.3.25-.45" fill="url(#g)"/></g></svg>