<svg xmlns="http://www.w3.org/2000/svg" width="5" height="9"><g transform="translate(2.2 4.4)"><radialGradient id="a" gradientUnits="userSpaceOnUse" gradientTransform="matrix(.00531 0 0 .0037 .4 2.2)" spreadMethod="pad" cx="0" cy="0" r="819.2" fx="0" fy="0"><stop offset=".396" stop-color="#d67259" stop-opacity=".541"/><stop offset="1" stop-color="#ffeddb" stop-opacity="0"/></radialGradient><path d="M-.3 3.1l-.15-.05-.6.05-.55.05-.35-.05-.2-.2-.05-.45.05-.3v.3l.4.55.6-.05.45-.05.35.05h.15L0 3h.6l.4.05q.5.05.8-.4.25-.3.05-1.1L1.6.85 1.45.4l.45 1.05.2.35v.05l.05 1-.55.45-.7-.1-.55-.1-.3.05H0l-.3-.05" fill="url(#a)"/><radialGradient id="b" gradientUnits="userSpaceOnUse" gradientTransform="matrix(.00607 0 0 .00613 .3 1.7)" spreadMethod="pad" cx="0" cy="0" r="819.2" fx="250" fy="0"><stop offset=".494" stop-color="#e8a892" stop-opacity=".49"/><stop offset="1" stop-color="#fdddd0" stop-opacity=".69"/></radialGradient><path d="M-2.15 2.45l.3-.5.5-.15.5.1.2.1H.2q.5-.15.5-.7L.65.15.6-.15l-.15-1.5Q.4-2.3.8-3.75q.75-.75 1.25-.65L1.5-3.35q-.45.95-.45 1.85 0 .7.3 1.65l.1.25.15.45.25.7q.2.8-.05 1.1-.3.45-.8.4L.6 3H0l-.2-.05h-.15L-.7 2.9l-.45.05-.6.05-.4-.55" fill="url(#b)"/><radialGradient id="c" gradientUnits="userSpaceOnUse" gradientTransform="matrix(.00273 -.00044 .0008 .00508 .3 -.1)" spreadMethod="pad" cx="0" cy="0" r="819.2" fx="250" fy="0"><stop offset=".192" stop-color="#d7745b" stop-opacity=".224"/><stop offset="1" stop-color="#ffeddb" stop-opacity="0"/></radialGradient><path d="M1.45.4l-.1-.25q-.3-.95-.3-1.65 0-.9.45-1.85L1.35-2q.05.6.45 1.55.4.95.1 1.9L1.45.4" fill="url(#c)"/><radialGradient id="d" gradientUnits="userSpaceOnUse" gradientTransform="matrix(.0039 0 0 .00627 -.55 .2)" spreadMethod="pad" cx="0" cy="0" r="819.2" fx="250" fy="0"><stop offset=".192" stop-color="#d7745b" stop-opacity=".224"/><stop offset="1" stop-color="#ffeddb" stop-opacity="0"/></radialGradient><path d="M-1.35 1.8l-.5.15-.3.5v-.3l.1-.65q.1-.5.05-1.25l.2-1.5q.25-.7.15-2.95l.55 1 .2 1.25-.05 2.1-.05.9v.05l.15.8-.5-.1" fill="url(#d)"/><radialGradient id="e" gradientUnits="userSpaceOnUse" gradientTransform="matrix(.00142 0 0 .00233 -.15 2.7)" spreadMethod="pad" cx="0" cy="0" r="819.2" fx="0" fy="0"><stop offset="0" stop-color="#e09079" stop-opacity=".761"/><stop offset="1" stop-color="#ffeddb" stop-opacity="0"/></radialGradient><path d="M0 3.15l.1.65q0 .6-.2.6l-.15-.1v-.2l-.05-1 .3.05" fill="url(#e)"/><path d="M1.2 2.55l-.2.1-.5-.1q.2-.15.5-.15.2 0 .2.15m-1.9.05l-.45.05-.25-.25.3-.05q.2.05.25.15l.15.1" fill="#b84326"/><radialGradient id="f" gradientUnits="userSpaceOnUse" gradientTransform="matrix(.00063 0 0 .0037 -.35 -1.45)" spreadMethod="pad" cx="0" cy="0" r="819.2" fx="0" fy="0"><stop offset=".063" stop-color="#fff"/><stop offset="1" stop-color="#fff" stop-opacity="0"/></radialGradient><path d="M-.25-3.85l.3.7.15 1.7L.05.25l-.3.7H-.3l-.4-.7-.1-1v-1.4l.1-1 .4-.7h.05" fill="url(#f)"/><radialGradient id="g" gradientUnits="userSpaceOnUse" gradientTransform="matrix(.0008 0 0 .0008 -.15 1.4)" spreadMethod="pad" cx="0" cy="0" r="819.2" fx="0" fy="0"><stop offset=".255" stop-color="#fff"/><stop offset="1" stop-color="#fff" stop-opacity="0"/></radialGradient><path d="M-.15.75l.45.2.2.45-.2.45-.45.2-.45-.2-.2-.45.2-.45.45-.2" fill="url(#g)"/></g></svg>