<svg xmlns="http://www.w3.org/2000/svg" width="5" height="9"><g><path d="M3.7 5.75l.2.5-.2.2-.3-.15-.45.05.3-.55q.05-.4.2-.4l.25.35" fill="#f5dbcb"/><radialGradient id="a" gradientUnits="userSpaceOnUse" gradientTransform="matrix(.00879 0 -.00008 .00868 2.6 7.2)" spreadMethod="pad" cx="0" cy="0" r="819.2" fx="250" fy="0"><stop offset=".494" stop-color="#e8a892" stop-opacity=".49"/><stop offset="1" stop-color="#fdddd0" stop-opacity=".69"/></radialGradient><path d="M3.2 7.15H3l-.25.05-.1.05-.15.15-.35.1-.35-.1-.2-.2h-.2l-.25-.05-.3.05H.5l-.05-.05V7.1L.4 6.9v-.05L.35 6.8l.15-.35.45-.15.45.2.15.05v.05l.7.1.55-.35.2-.7-.1-.8-.05-.3-.05-.45-.1-.95-.05-1.1V1.4Q2.7.8 3.1.5 3.65 0 4.45 0h.1L3.6 1.4q-.3.6-.3 1.4 0 .65.15 1.3l.05.25.1.35.05.15.15.4.2.3.15 1Q4.1 7 3.7 7.1l-.5.05m.25-1.75q-.15 0-.2.4l-.3.55.45-.05.3.15.2-.2-.2-.5-.25-.35" fill="url(#a)"/><radialGradient id="b" gradientUnits="userSpaceOnUse" gradientTransform="matrix(.00539 0 -.00006 .0075 -1.8 3.6)" spreadMethod="pad" cx="0" cy="0" r="819.2" fx="250" fy="0"><stop offset=".192" stop-color="#d7745b" stop-opacity=".224"/><stop offset="1" stop-color="#ffeddb" stop-opacity="0"/></radialGradient><path d="M1.15 5.55l-.2-.15-.55.85-.05.25v.3L.3 6.75.25 6.4v-.1q0-.35.15-.75v-.1l.1-.2.25-.4.1-.15.05-.35.05-.25L1 2.8.85 1.4 0 .05q1.05.4 1.45.85.3.5.1 2.65v.55l-.1.75v1l.1.7-.15-.05-.25-.95" fill="url(#b)"/><radialGradient id="c" gradientUnits="userSpaceOnUse" gradientTransform="matrix(.0016 0 -.00002 .00157 1 6.55)" spreadMethod="pad" cx="0" cy="0" r="819.2" fx="0" fy="0"><stop offset=".396" stop-color="#d67259" stop-opacity=".541"/><stop offset="1" stop-color="#ffeddb" stop-opacity="0"/></radialGradient><path d="M.35 6.8l.05.05v.05l.05.2v.05l.05.05H.4l-.15-.05-.1-.55v-.05q0-.55.25-1-.15.4-.15.75v.1l.05.35.05.05" fill="url(#c)"/><radialGradient id="d" gradientUnits="userSpaceOnUse" gradientTransform="matrix(.00201 0 -.00002 .00198 3.55 6.35)" spreadMethod="pad" cx="0" cy="0" r="819.2" fx="0" fy="0"><stop offset=".396" stop-color="#d67259" stop-opacity=".541"/><stop offset="1" stop-color="#ffeddb" stop-opacity="0"/></radialGradient><path d="M3.7 7.1q.4-.1.45-.55l-.15-1-.2-.3q.35.35.5.95l-.2.9-.9.05.5-.05" fill="url(#d)"/><path d="M1.35 6.8l.35.4q-.3-.3-.6-.35H.8q0-.15.15-.15l.4.1m1.95 0q-.35.1-.6.35l.35-.4.4-.1.15.15h-.3" fill="#b84326"/><radialGradient id="e" gradientUnits="userSpaceOnUse" gradientTransform="matrix(.00058 0 -.00003 .00359 2.1 3.2)" spreadMethod="pad" cx="0" cy="0" r="819.2" fx="0" fy="0"><stop offset=".063" stop-color="#fff" stop-opacity=".851"/><stop offset="1" stop-color="#fff" stop-opacity="0"/></radialGradient><path d="M2.6 3.2l-.15 1.65-.3.7H2.1q-.2 0-.3-.7l-.15-.95.05-1.35.15-.95q.1-.7.3-.7h.05l.3.7.1 1.6" fill="url(#e)"/><radialGradient id="f" gradientUnits="userSpaceOnUse" gradientTransform="matrix(.0008 0 0 .00078 2.25 6.35)" spreadMethod="pad" cx="0" cy="0" r="819.2" fx="0" fy="0"><stop offset=".063" stop-color="#fff" stop-opacity=".902"/><stop offset="1" stop-color="#fff" stop-opacity="0"/></radialGradient><path d="M1.8 5.9q.15-.2.45-.2l.45.2.15.45-.15.45-.45.2q-.3 0-.45-.2l-.2-.45.2-.45" fill="url(#f)"/><radialGradient id="g" gradientUnits="userSpaceOnUse" gradientTransform="matrix(.00052 .00241 -.00182 .00041 2.2 6.85)" spreadMethod="pad" cx="0" cy="0" r="819.2" fx="0" fy="0"><stop offset="0" stop-color="#f79982" stop-opacity=".322"/><stop offset="1" stop-color="#ffeddb" stop-opacity="0"/></radialGradient><path d="M2.3 8.4l-.45-.25L1.75 7l.05-.05.45.2.2-.2.05 1.25-.2.2" fill="url(#g)"/></g></svg>