<svg xmlns="http://www.w3.org/2000/svg" width="8" height="9"><g transform="translate(3.75 4.45)"><path d="M2.2 3.3H2.35L2 3.6l-.55.1-.3-.05-.25.05.2-.1H.75v-.05q.15-.2.45-.25h.1l.2.05.2.05.1.05.4-.15m-1.45.4H.7h.05m-2.85-.15l.25-.15.45.05.2.15.05.1-.15-.05h-.1l-.45.1h-.25l-.75-.65.75.45" fill="#e9a994"/><radialGradient id="a" gradientUnits="userSpaceOnUse" gradientTransform="matrix(.00856 -.00038 .00034 .00722 -.35 .75)" spreadMethod="pad" cx="0" cy="0" r="819.2" fx="250" fy="0"><stop offset=".192" stop-color="#d7745b" stop-opacity=".224"/><stop offset="1" stop-color="#ffeddb" stop-opacity="0"/></radialGradient><path d="M-1 1.75l-.05.35-.05.45.25.55.65.3H0l.7-.45.2-.6-.25-.65-.1-.4V.95Q.45.7.5-.55l.1-1.6.05-.9q.05-.5 1.2-1.15l-.5.4Q1.1-3.55 1-2.15.85-.75 1.05.6l.2 1.7-.45.85-.95.55q-.55 0-.85-.4l-.5-.7v-.05l-.05-.2L-1.8 2l-.4-.25H-1" fill="url(#a)"/><radialGradient id="b" gradientUnits="userSpaceOnUse" gradientTransform="matrix(.00856 -.00038 .00034 .00722 -.35 .75)" spreadMethod="pad" cx="0" cy="0" r="819.2" fx="250" fy="0"><stop offset=".192" stop-color="#d7745b" stop-opacity=".082"/><stop offset="1" stop-color="#ffeddb" stop-opacity="0"/></radialGradient><path d="M-2.2 1.75h-.25l.55-2.2q.25-.7.2-.9l-.05-.55-.25-.65-.35-.65-.5-.8.55-.2 1.4 1.5.1.4-.05.4-.05.95-.1.9-.05.7.05.6v.5h-1.2" fill="url(#b)"/><path d="M1.15 3.05l.3-.6.25-.4.3-.1.35.3.15.35-.75.5-.5.1q-.25.05-.1-.15" fill="#f8ded3"/><path d="M-2.55 2.5l.35-.35q.2 0 .25.1l.4.55q.4.45.1.45l-.65-.1-.4-.1-.15-.15q-.15-.1.1-.35V2.5" fill="#fae9e2"/><radialGradient id="c" gradientUnits="userSpaceOnUse" gradientTransform="matrix(.00458 -.00021 .00021 .0048 .75 1.95)" spreadMethod="pad" cx="0" cy="0" r="819.2" fx="250" fy="0"><stop offset=".494" stop-color="#e8a892" stop-opacity=".49"/><stop offset="1" stop-color="#fdddd0" stop-opacity=".831"/></radialGradient><path d="M2.2 3.3h-.1l-.3.15-.1-.05-.2-.05-.2-.05h-.1q-.3.05-.45.25l-.1.05H1l-.2.1H.7L.4 4l-.1.1L-.75 4l-.35-.2-.05-.1-.05-.1-.2-.15-.45-.05-.25.15-.75-.45v.15l-.05-.15v-.4l.1-.55.25-.3.1-.1h.25l.4.25.25.35.05.2v.05l.5.7q.3.4.85.4l.95-.55.45-.85-.2-1.7Q.85-.75 1-2.15q.1-1.4.35-1.65l.5-.4.2-.1.5-.15L1.7-2.9q-.5.85-.4 1.7.05.75.25 1.4L2 1.3l.2.3.05.1q.8.45.5 1.25l-.5.35H2.2m-4.75-.75q-.25.25-.1.35l.15.15.4.1.65.1q.3 0-.1-.45l-.4-.55q-.05-.1-.25-.1l-.35.35v.05m3.8.65l.5-.1.75-.5-.15-.35-.35-.3-.3.1-.25.4-.3.6q-.15.2.1.15m1.45-.55V2.6l-.05-.3q-.05-.3 0 .15l.05.2" fill="url(#c)"/><path d="M-1.9 3.5l.25-.05.4.1.25.15-.6-.1h-.45l.15-.1m3.45.1l-.75.05.75-.2H1.85l-.3.15" fill="#b84326"/><radialGradient id="d" gradientUnits="userSpaceOnUse" gradientTransform="matrix(.0009 -.00005 .00018 .00401 -.4 .45)" spreadMethod="pad" cx="0" cy="0" r="819.2" fx="0" fy="0"><stop offset=".063" stop-color="#fff"/><stop offset="1" stop-color="#fff" stop-opacity="0"/></radialGradient><path d="M.35.4l-.1 1.9-.45.75h-.1q-.3 0-.5-.7l-.25-1.05-.05-.8-.05-.75.15-1.1q.2-.8.5-.8h.1l.45.75.3 1.8" fill="url(#d)"/><radialGradient id="e" gradientUnits="userSpaceOnUse" gradientTransform="matrix(.00562 -.00026 .00021 .00476 .05 3.35)" spreadMethod="pad" cx="0" cy="0" r="819.2" fx="0" fy="0"><stop offset=".396" stop-color="#d67259" stop-opacity=".541"/><stop offset="1" stop-color="#ffeddb" stop-opacity="0"/></radialGradient><path d="M2.55 2.65l.25-.55 1 1.35-.6-.3-1.3.45.65-.95" fill="url(#e)"/><radialGradient id="f" gradientUnits="userSpaceOnUse" gradientTransform="matrix(.00562 -.00026 .00021 .00476 -.3 3.3)" spreadMethod="pad" cx="0" cy="0" r="819.2" fx="0" fy="0"><stop offset=".396" stop-color="#d67259" stop-opacity=".761"/><stop offset="1" stop-color="#ffeddb" stop-opacity="0"/></radialGradient><path d="M-2.25 3.8l-.95-.4-.55.3.9-1.45.05.7.55.85" fill="url(#f)"/><radialGradient id="g" gradientUnits="userSpaceOnUse" gradientTransform="matrix(.00578 -.00026 .00021 .00476 -.05 3.45)" spreadMethod="pad" cx="0" cy="0" r="819.2" fx="0" fy="0"><stop offset=".396" stop-color="#d67259" stop-opacity=".541"/><stop offset="1" stop-color="#ffeddb" stop-opacity="0"/></radialGradient><path d="M2.1 3.45l.35-.2.1-.05.05.1v.1q-.25.4-.9.4l-.8.1-.7.55h-.65l-.6-.5h-.1l-.4.05-.8-.25-.05-.05-.25-.45-.05-.1.1.15.45.3.5.05.45-.1H-1.05l.35.5 1 .1.5-.5.1-.05h.05l.35-.05h.35l.45-.1" fill="url(#g)"/></g></svg>