<svg xmlns="http://www.w3.org/2000/svg" width="6" height="9"><g><path d="M4.15 6.05h.1l.3.25.05.05.1.5-.15.4-.8.1.25-.4.1-.5V6.3l.05-.25" fill="#fbdecc"/><radialGradient id="a" gradientUnits="userSpaceOnUse" gradientTransform="matrix(.00824 0 0 .00638 3.5 7.35)" spreadMethod="pad" cx="0" cy="0" r="819.2" fx="250" fy="0"><stop offset=".494" stop-color="#e8a792" stop-opacity=".373"/><stop offset="1" stop-color="#fcdcce" stop-opacity=".58"/></radialGradient><path d="M.85 7.45l.2-.15.4-.2.2.05.4.2.05.05.45.2.2.05.4-.15.3-.3.15-.4-.05-.3v-.2l-.05-.95-.05-3.45Q3.5.85 4.75 0L4.3 1.5Q3.9 2.55 4 3.6q.05.7.45 1.75l.4.95.1.25v.05l.05.5q-.05.45-.5.6l-.8.3-.85.15H2.7L2.1 8l-.8-.25-.45-.3M4.1 6.3v.15l-.1.5-.25.4.8-.1.15-.4-.1-.5-.05-.05-.3-.25h-.1l-.05.25" fill="url(#a)"/><radialGradient id="b" gradientUnits="userSpaceOnUse" gradientTransform="matrix(.00386 0 0 .007 2 5.15)" spreadMethod="pad" cx="0" cy="0" r="819.2" fx="0" fy="0"><stop offset="0" stop-color="#f58b69" stop-opacity=".243"/><stop offset="1" stop-color="#ffdec2" stop-opacity="0"/></radialGradient><path d="M2.1 7.4l-.05-.05-.4-.2-.2-.55-.05-.3-.1-.1-.1.1-.1.15L1 7l.05.3-.2.15-.05-.3V6.6l.15-.3.3-.95L1.4 5l.15-1.35q.05-.85-.4-1.3L0 .95h.1l1.35.4q.7.3.75 1.6l-.1 1.5-.05.45v1.4q0 1.05.5 1.3l-.45-.2" fill="url(#b)"/><radialGradient id="c" gradientUnits="userSpaceOnUse" gradientTransform="matrix(.00432 0 0 .00175 2.85 7.4)" spreadMethod="pad" cx="0" cy="0" r="819.2" fx="0" fy="0"><stop offset=".49" stop-color="#d67259" stop-opacity=".541"/><stop offset="1" stop-color="#ffeddb" stop-opacity="0"/></radialGradient><path d="M1.3 7.75l.8.25.6.15h.15L3.7 8l.8-.3q.45-.15.5-.6l-.05-.5.15.65v.1l-.5.7-.6.1q-.3 0-.75.5-.4.5-.8 0-.45-.5-.8-.5l-.45-.1Q.9 8 .7 7.4v-.1l.1-.5v.35l.05.3.45.3" fill="url(#c)"/><path d="M1.5 7.55h.05l.35.05.25.2-.35-.1-.3-.1v-.05m2 .2l.25-.15.15-.05.2.05-.3.1-.35.1.05-.05" fill="#b84326"/><radialGradient id="d" gradientUnits="userSpaceOnUse" gradientTransform="matrix(.00069 0 0 .00429 2.8 3.85)" spreadMethod="pad" cx="0" cy="0" r="819.2" fx="0" fy="0"><stop offset=".02" stop-color="#fff" stop-opacity=".761"/><stop offset="1" stop-color="#fff" stop-opacity="0"/></radialGradient><path d="M3.05 2.15L3.2 3.9l-.15 1.7-.2.7q-.2 0-.3-.7l-.1-1.7.1-1.75q.1-.7.3-.7l.2.7" fill="url(#d)"/><radialGradient id="e" gradientUnits="userSpaceOnUse" gradientTransform="matrix(.0008 0 0 .00085 2.85 6.75)" spreadMethod="pad" cx="0" cy="0" r="819.2" fx="0" fy="0"><stop offset=".259" stop-color="#fff" stop-opacity=".761"/><stop offset="1" stop-color="#fff" stop-opacity="0"/></radialGradient><path d="M3.3 7.25q-.2.2-.45.2-.3 0-.45-.2l-.2-.5.2-.45q.15-.2.45-.2.25 0 .45.2l.2.45-.2.5" fill="url(#e)"/><radialGradient id="f" gradientUnits="userSpaceOnUse" gradientTransform="matrix(.001 0 0 .00237 2.8 9.6)" spreadMethod="pad" cx="0" cy="0" r="819.2" fx="0" fy="0"><stop offset=".118" stop-color="#d67259" stop-opacity=".541"/><stop offset="1" stop-color="#ffe3db" stop-opacity=".153"/></radialGradient><path d="M1.6 8.55l-1.05-1 1.3.55.9.05h.45l1.75-.6q-.2.6-1 1l-1.2.4-1.15-.4" fill="url(#f)"/></g></svg>