<svg xmlns="http://www.w3.org/2000/svg" width="8" height="11"><g transform="translate(3.65 5.25)"><radialGradient id="a" gradientUnits="userSpaceOnUse" gradientTransform="matrix(.00285 .00221 -.00388 .00655 1.95 -6)" spreadMethod="pad" cx="0" cy="0" r="819.2" fx="210521" fy="0"><stop offset="0" stop-color="#d7745b"/><stop offset="1" stop-color="#ffeddb" stop-opacity="0"/></radialGradient><path d="M2-4.1Q.95-3.1.65-2.05L.15.2-.3-.85l.15-1.35.45-1.2q1-1.85 3.4-1.85Q3.05-5.1 2-4.1" fill="url(#a)"/><path d="M-.25 3.4L0 3.3l.2.05.1.15-.25.15-.25-.05-.25.1v-.05l.2-.25m-2.2-.05l.15-.05.3.1.25.3v.05l-.3-.15-.3.05-.2-.15.1-.15" fill="#823709" fill-opacity=".753"/><radialGradient id="b" gradientUnits="userSpaceOnUse" gradientTransform="matrix(.00743 .00014 -.00017 .01083 -2.5 1.7)" spreadMethod="pad" cx="0" cy="0" r="819.2" fx="250" fy="0"><stop offset=".192" stop-color="#d67259" stop-opacity=".141"/><stop offset=".988" stop-color="#ffeddb" stop-opacity="0"/></radialGradient><path d="M.2-2.95l-.65 1.5.4 3.8v.1l.05.3-.05.25-.7.4-.8-.05q-.55-.3-.5-.6l.2-2.25q.15-1.95-.2-2.6-.3-.6-1.6-1.35l.65.25q.8.4 1.25.9.4.45.1 4.7l-.05.45.25.25.4.15.55-.15.25-.25V2.4l-.3-2.95v-1.3q.05-.7.95-1.35l-.2.25" fill="url(#b)"/><radialGradient id="c" gradientUnits="userSpaceOnUse" gradientTransform="matrix(.00644 .00012 -.00015 .01031 -.15 -.6)" spreadMethod="pad" cx="0" cy="0" r="819.2" fx="250" fy="0"><stop offset=".192" stop-color="#d7745b" stop-opacity=".224"/><stop offset=".941" stop-color="#ffeddb" stop-opacity="0"/></radialGradient><path d="M.4-3.2l.35-.2-.4.7Q0-2.05.05-1.45L.2.15l.55 2.8-.25.6V3.3Q.4 2.8.05 3h-.1L0 2.75l-.05-.3v-.1l-.4-3.8.65-1.5.2-.25" fill="url(#c)"/><radialGradient id="d" gradientUnits="userSpaceOnUse" gradientTransform="matrix(.0122 .00023 -.00021 .013 -1.1 3.9)" spreadMethod="pad" cx="0" cy="0" r="819.2" fx="0" fy="0"><stop offset="0" stop-color="#d67259" stop-opacity=".451"/><stop offset=".494" stop-color="#e09079" stop-opacity=".302"/><stop offset="1" stop-color="#ffeddb" stop-opacity=".192"/></radialGradient><path d="M-2.05-2.1q.35.65.2 2.6l-.2 2.25q-.05.3.5.6l.8.05.7-.4h.1q.35-.2.45.3v.25q-.05.2-.3.25l-.05-.05-.25.05-.1.05h-.05l-.5.3-.45.1-.35-.05-.2-.2q-.25-.2-.75-.25l-.2-.05-.25-.4.05-1.2.4-1.8.05-1.5-.45-1.2-.75-1.05q1.3.75 1.6 1.35m1.6 5.75v.05l.25-.1.25.05.25-.15-.1-.15L0 3.3l-.25.1-.2.25m-2.1-.15l.2.15.3-.05.3.15V3.7L-2 3.4l-.3-.1-.15.05-.1.15" fill="url(#d)"/><radialGradient id="e" gradientUnits="userSpaceOnUse" gradientTransform="matrix(.00015 .00067 -.00064 .00018 -.9 2.65)" spreadMethod="pad" cx="0" cy="0" r="819.2" fx="0" fy="0"><stop offset=".192" stop-color="#fff"/><stop offset="1" stop-color="#fff" stop-opacity="0"/></radialGradient><path d="M-1.35 2.4l.3-.25.35.05.25.3-.05.4-.35.25-.4-.05-.15-.3.05-.4" fill="url(#e)"/><radialGradient id="f" gradientUnits="userSpaceOnUse" gradientTransform="matrix(-.0005 .00005 .00003 .00238 -1 -.05)" spreadMethod="pad" cx="0" cy="0" r="819.2" fx="0" fy="0"><stop offset=".259" stop-color="#fff"/><stop offset="1" stop-color="#fff" stop-opacity="0"/></radialGradient><path d="M-1.2 1.35L-1.35 0l.1-1.35.25-.6.25.6.1 1.3q.05.8-.05 1.4l-.25.55-.25-.55" fill="url(#f)"/><radialGradient id="g" gradientUnits="userSpaceOnUse" gradientTransform="matrix(.00093 0 0 .00264 -1.1 3.8)" spreadMethod="pad" cx="0" cy="0" r="819.2" fx="0" fy="0"><stop offset="0" stop-color="#e09079" stop-opacity=".682"/><stop offset="1" stop-color="#ffeddb" stop-opacity="0"/></radialGradient><path d="M-.8 4.1V5l-.25.25q-.25 0-.35-1.05h.15l.45-.1" fill="url(#g)"/></g></svg>