<svg xmlns="http://www.w3.org/2000/svg" width="13" height="10"><g transform="translate(6.35 4.75)"><path d="M-.85 3.65l-.65.2h-.05l.1-.25.15-.05h.4l.25.1h-.2m2.4.2l-.35-.1-.3.05.6-.1.15.05.05.15-.15-.05" fill="#823909"/><path d="M1.7 3.9l.35-.05.1-.1.05.1-.2.25h-.6q-.35 0-.55.35l-.65.3L0 4.7h-.05q-.5-.65-.9-.65h-.6l-.3-.1-.2-.15-.3-.7.1-.6-.05.4v.25l.1.3.2.25.2.1.25.05h.05l.65-.2h.2l.3.2.55.25.7-.3.3-.05.35.1.15.05m.6-.4l.05-.25v.25H2.3" fill="#ba8468" fill-opacity=".702"/><linearGradient id="a" gradientUnits="userSpaceOnUse" gradientTransform="matrix(-.00378 -.00157 .00166 -.00293 1.5 2.35)" x1="-819.2" x2="819.2"><stop offset=".314" stop-color="#fac39f"/><stop offset="1" stop-color="#ffc7a3" stop-opacity=".502"/></linearGradient><path d="M2.15 3.75l-.1.1-.35.05-.05-.15-.15-.05-.6.1-.7.3-.55-.25-.3-.2-.25-.1h-.4l-.15.05-.1.25-.25-.05-.2-.1-.2-.25-.1-.3V2.9l.05-.4.15-.25.1-.15-.1.45-.1.35.2.45.5.15.65-.05 1.3.05.05-.05.2-.8L.65 2v-.15l-.1-.9V.9L.45-.45q0-.8.3-1.9.5-1.25 1.8-1.7l1.75-.5Q1.45-2.7 1.45-.9q-.05.85.2 1.8l.65 1.25q.5.55.45.95l-.25.5-.2.2-.1.05-.05-.1m.2-.25v-.25l-.05.25h.05" fill="url(#a)"/><radialGradient id="b" gradientUnits="userSpaceOnUse" gradientTransform="matrix(.00092 -.00002 .00002 .00082 -1.6 2.85)" spreadMethod="pad" cx="0" cy="0" r="819.2" fx="0" fy="0"><stop offset=".314" stop-color="#fff" stop-opacity=".502"/><stop offset="1" stop-color="#fff" stop-opacity="0"/></radialGradient><path d="M-1.4 3.2l-.2.15-.25-.15-.05-.35.05-.4.25-.15.2.1.05.1.05.3-.1.35v.05" fill="url(#b)"/><radialGradient id="c" gradientUnits="userSpaceOnUse" gradientTransform="matrix(.00182 -.00003 .00003 .00165 .2 2.7)" spreadMethod="pad" cx="0" cy="0" r="819.2" fx="0" fy="0"><stop offset=".314" stop-color="#fff" stop-opacity=".502"/><stop offset="1" stop-color="#fff" stop-opacity="0"/></radialGradient><path d="M-1.4 3.15l.1-.35-.05-.3.2-.15.2-.25.5-.35.35-.1.85.2.1.05.15.05q.6.4.65.95l-.3.4-.7.1-.3.05-1.75-.25v-.05" fill="url(#c)"/><radialGradient id="d" gradientUnits="userSpaceOnUse" gradientTransform="matrix(.00404 -.00006 .00008 .00545 .2 .5)" spreadMethod="pad" cx="0" cy="0" r="819.2" fx="0" fy="0"><stop offset=".314" stop-color="#fff" stop-opacity=".431"/><stop offset="1" stop-color="#fff" stop-opacity="0"/></radialGradient><path d="M.45 1.45Q.5 3.6.15 3.3l-.3-1.4L-.2-.5 0-3.35l.3.55.15 1.35v2.9" fill="url(#d)"/><radialGradient id="e" gradientUnits="userSpaceOnUse" gradientTransform="matrix(-.0055 .00002 .00002 .00493 -2.15 -4.75)" spreadMethod="pad" cx="0" cy="0" r="819.2" fx="0" fy="0"><stop offset="0" stop-color="#d7745b"/><stop offset="1" stop-color="#ffeddb" stop-opacity="0"/></radialGradient><path d="M-6.15-4.4l2.35.6 1.25.5.25.1v.05q.6.35.95 1.15.45.8 0 2.35V.4l-.15.75-.05-.3-.1-.4L-2.2-.8l-.3-.5-.5-.1-.5-.3-.85-.55.05-.25q0-.35-.35-.8l-1.7-1.1h.2" fill="url(#e)"/><radialGradient id="f" gradientUnits="userSpaceOnUse" gradientTransform="matrix(.0055 -.00034 .00037 .00491 2.15 -4.95)" spreadMethod="pad" cx="0" cy="0" r="819.2" fx="0" fy="0"><stop offset="0" stop-color="#d7745b"/><stop offset="1" stop-color="#ffeddb" stop-opacity="0"/></radialGradient><path d="M6.35-4.75q-1.15.65-1.6 1.3-.35.35-.3.7l.05.3-.85.55-.45.35-.45.1q-.45.05-.5-.5l-.6.8L1.2.05q-.25-1.7.45-2.6l.7-.75v.05L3.85-4l2.3-.75h.2" fill="url(#f)"/></g></svg>