<svg xmlns="http://www.w3.org/2000/svg" width="5" height="9"><g transform="translate(2.5 4.35)"><radialGradient id="a" gradientUnits="userSpaceOnUse" gradientTransform="matrix(.00673 -.00032 .00046 .00941 .2 4.5)" spreadMethod="pad" cx="0" cy="0" r="819.2" fx="0" fy="0"><stop offset="0" stop-color="#e6835c" stop-opacity=".722"/><stop offset=".227" stop-color="#ed9e76" stop-opacity=".553"/><stop offset=".694" stop-color="#f0aa86" stop-opacity=".392"/><stop offset="1" stop-color="#f0aa86" stop-opacity="0"/></radialGradient><path d="M-2.5-4.35q1.7 1 1.85 1.55v.05l.1 1.3V.5L-.6.95-.7 2Q-.75 3 0 3.05L1.15 3l.65-.15q.2-.05.6.3l.1.7-.15.25-.75.15-.65-.1H.8l-.55.25-.3-.1-.35-.05-.45.05H-1.3l-.55-.1-.2-.2-.1-.35.35-1.35.25-.7.2-.75q.15-.6.15-1.4l-.05-.55q-.1-1.1-1-2.85l-.25-.4" fill="url(#a)"/><path d="M-.5 3.7l.2.25-.25.1-.4-.1-.4-.1.3-.15.3-.15q.1 0 .25.15m1.65-.1h.2l.25.05.3.35-.1.05-.95-.15v-.1l.3-.2" fill="#823709"/><radialGradient id="b" gradientUnits="userSpaceOnUse" gradientTransform="matrix(.00067 -.00003 .00015 .00305 .55 -.4)" spreadMethod="pad" cx="0" cy="0" r="819.2" fx="0" fy="0"><stop offset="0" stop-color="#fff" stop-opacity=".78"/><stop offset="1" stop-color="#fff" stop-opacity="0"/></radialGradient><path d="M.85-2.2L1.1-.45 1 1.25q-.1.8-.35.8l-.4-.75-.2-1.7Q0-1.45.1-2.15t.3-.7l.45.65" fill="url(#b)"/><radialGradient id="c" gradientUnits="userSpaceOnUse" gradientTransform="matrix(.00114 -.00006 .00006 .00114 .35 2.65)" spreadMethod="pad" cx="0" cy="0" r="819.2" fx="0" fy="0"><stop offset=".082" stop-color="#fff" stop-opacity=".824"/><stop offset="1" stop-color="#fff" stop-opacity="0"/></radialGradient><path d="M1 3.2q-.2.3-.6.3l-.65-.2-.25-.6.2-.6q.25-.3.6-.3l.65.2.3.6-.25.6" fill="url(#c)"/></g></svg>