<svg xmlns="http://www.w3.org/2000/svg" width="9" height="9"><g><radialGradient id="a" gradientUnits="userSpaceOnUse" gradientTransform="translate(6.15 7.25) scale(.00357)" spreadMethod="pad" cx="0" cy="0" r="819.2" fx="0" fy="0"><stop offset=".161" stop-color="#d67259" stop-opacity=".541"/><stop offset="1" stop-color="#ffeddb" stop-opacity="0"/></radialGradient><path d="M6.7 5.5l-.2-.45L7.75 6.1l1.2 2.05-.3-.25-.15-.15-.45-.45-.65-.5.05-.1q.1-.3-.2-.65L6.7 5.5" fill="url(#a)"/><radialGradient id="b" gradientUnits="userSpaceOnUse" gradientTransform="matrix(.00288 0 0 .00288 2.6 7.05)" spreadMethod="pad" cx="0" cy="0" r="819.2" fx="0" fy="0"><stop offset=".161" stop-color="#d67259" stop-opacity=".541"/><stop offset="1" stop-color="#ffeddb" stop-opacity="0"/></radialGradient><path d="M1.8 6.85l-.55.5Q.9 7.9 0 8.1l1.2-1.55q.5-.8 1.65-1.45l-.2.4q-.6.3-.8.6l-.1.6.05.15" fill="url(#b)"/><radialGradient id="c" gradientUnits="userSpaceOnUse" gradientTransform="matrix(.00517 0 0 .00282 4.35 6.9)" spreadMethod="pad" cx="0" cy="0" r="819.2" fx="0" fy="0"><stop offset=".396" stop-color="#d67259" stop-opacity=".541"/><stop offset="1" stop-color="#ffeddb" stop-opacity="0"/></radialGradient><path d="M7.25 6.05q.3.35.2.65l-.05.1-.45.65-.75.4-.75.45q-.4.35-.8.4-.4.1-.9-.3l-.35-.25-.55-.3-.65-.35-.4-.65-.05-.15.1-.6q.2-.3.8-.6l-.15.2-.35.65q0 .75.35.95l.55.05q.4 0 .8.3l.1.05.65.15.55-.2.75-.3.4.05.25-.05.4-.25.2-.65-.3-.65-.15-.3.55.55" fill="url(#c)"/><radialGradient id="d" gradientUnits="userSpaceOnUse" gradientTransform="matrix(.00891 0 0 .00607 4.7 7.15)" spreadMethod="pad" cx="0" cy="0" r="819.2" fx="210370" fy="0"><stop offset=".082" stop-color="#e8a892" stop-opacity=".49"/><stop offset="1" stop-color="#fcdcce" stop-opacity=".392"/></radialGradient><path d="M5.3 2.55V2.3l.1-.7q.1-.45.75-1.1l-.05.65-.1 1.3q-.1.6.1 1.45l.4 1.15.2.45.15.3.3.65-.2.65-.4.25-.25.05-.4-.05-.75.3-.55.2-.65-.15-.1-.05q-.4-.3-.8-.3L2.5 7.3q-.35-.2-.35-.95l.35-.65.15-.2.2-.4.05-.1.4-.9V4l.15-.85-.1-1.45-.4-1.5-.1-.2.45.45.05.05.6 1.1.1.95-.1.7-.2 1.15-.15 1.15v.55q0 .35.15.55l.65.4.9-.1.2-.3.2-.45.05-.65L5.6 4.4l-.2-1.15-.1-.7m-2 4.2L3.15 5.7l-.5.35-.3.45.05.35.3.05.6-.15m2.85-.9l-.1.5-.15.5.5.2.4-.1.05-.3-.15-.5-.3-.3h-.25" fill="url(#d)"/><radialGradient id="e" gradientUnits="userSpaceOnUse" gradientTransform="translate(3.15 8) scale(.00737)" spreadMethod="pad" cx="0" cy="0" r="819.2" fx="250" fy="0"><stop offset="0" stop-color="#d7745b" stop-opacity=".224"/><stop offset="1" stop-color="#ffeddb" stop-opacity="0"/></radialGradient><path d="M5.4 3.25l.2 1.15.15 1.15-.05.65-.2.45-.2.3-.9.1-.65-.4q-.15-.2-.15-.55v-.55l.15-1.15.2-1.15.1-.7-.1-.95-.6-1.1.8 1.1.05 1L4 4.45 3.85 6.1l.2.55.65.25q.55-.15.55-1.5-.05-1.8.05-2.85l.1.7" fill="url(#e)"/><path d="M3.2 7.25l.55.3v.05l-.55-.15-.3-.15.3-.05m2 .4q.35-.3.7-.3l.3.05-1 .25" fill="#b84326"/></g></svg>