<svg xmlns="http://www.w3.org/2000/svg" width="11" height="11"><g transform="translate(5.25 5.1)"><path d="M1.75.85q.25.15.3.85l-.1.25-.25.2-.25-.05-.15-.05L1 2l.3-.9q.2-.4.45-.25" fill="#ffe5d4"/><radialGradient id="a" gradientUnits="userSpaceOnUse" gradientTransform="matrix(.00128 -.00621 .00388 .00085 .75 -.6)" spreadMethod="pad" cx="0" cy="0" r="819.2" fx="250" fy="0"><stop offset="0" stop-color="#fcdcce" stop-opacity=".482"/><stop offset=".965" stop-color="#edab95" stop-opacity=".533"/></radialGradient><path d="M-2.25 2.6l-.1-.1.1-.2 1.1-.1.3.1Q1.1 2.15.85.9l-.25-2-.05-1.85Q.65-3.6 1-4l.35-.45L1.2-3l.25 1.9L1.7.1l.15.45.1.25.1.3.05 1.25-.05.1L2 2.5l-.55-.05q-.6 0-1.35.45l-.8.45-.7-.3h-.05l-.1-.05-.7-.4M1.6-5.1l-.05.05-.05.15.1-.2m-.3 6.2L1 2l.3.05.15.05.25.05.25-.2.1-.25Q2 1 1.75.85 1.5.7 1.3 1.1" fill="url(#a)"/><radialGradient id="b" gradientUnits="userSpaceOnUse" gradientTransform="matrix(.0058 0 0 .006 -.7 -.85)" spreadMethod="pad" cx="0" cy="0" r="819.2" fx="250" fy="0"><stop offset="0" stop-color="#ffeddb" stop-opacity=".071"/><stop offset=".714" stop-color="#d67259" stop-opacity=".102"/></radialGradient><path d="M1-4q-.35.4-.45 1.05L.6-1.1l.25 2q.25 1.25-1.7 1.4l-.3-.1-1.1.1-.05-.15q.7-.45 1.05-.35h.95l.55-.4v-.35l-.1-1.7v-.8q0-.65.45-1.8.4-1.15.85-1.5h.05l-.1.05-.05.25L1-4" fill="url(#b)"/><radialGradient id="c" gradientUnits="userSpaceOnUse" gradientTransform="matrix(.00406 0 0 .00897 -3.15 -1.8)" spreadMethod="pad" cx="0" cy="0" r="819.2" fx="250" fy="0"><stop offset="0" stop-color="#dd8b77" stop-opacity=".224"/><stop offset="1" stop-color="#ffeddb" stop-opacity="0"/></radialGradient><path d="M-2.35 2.5l-.2-.75.25-.9.05-.05.05-.1.2-.45.05-.15.35-1.2.05-.7q.1-1.35-.25-2.45l-.4-.8.95.75q.25.3.35.8l.1 1.2-.1 1.2-.15.8-.3 1.75q-.05.7-.65-.5l-.15.2-.2.6.05.4.05.15-.1.2" fill="url(#c)"/><radialGradient id="d" gradientUnits="userSpaceOnUse" gradientTransform="matrix(.00285 0 0 .00294 -1.85 1.6)" spreadMethod="pad" cx="0" cy="0" r="819.2" fx="0" fy="0"><stop offset="0" stop-color="#d67259" stop-opacity=".733"/><stop offset="1" stop-color="#ffeddb" stop-opacity="0"/></radialGradient><path d="M-1.55 3l-1.15-.4L-3 2q-.35 0-.55.3l.3-.5.3-.45.05-.15h-.05l.1-.2.85-.75-.2.45-.05.1-.05.05-.25.9.2.75.1.1.7.4" fill="url(#d)"/><radialGradient id="e" gradientUnits="userSpaceOnUse" gradientTransform="matrix(.00525 0 0 .00244 1.35 3.1)" spreadMethod="pad" cx="0" cy="0" r="819.2" fx="0" fy="0"><stop offset=".22" stop-color="#d67259" stop-opacity=".541"/><stop offset="1" stop-color="#ffeddb" stop-opacity=".412"/></radialGradient><path d="M2 2.5l-.1.15-.75.4q-.3.05-.65.3l-.55.25-.65-.25.8-.45q.75-.45 1.35-.45L2 2.5" fill="url(#e)"/><radialGradient id="f" gradientUnits="userSpaceOnUse" gradientTransform="matrix(.00357 .00142 -.00078 .0021 .1 2.85)" spreadMethod="pad" cx="0" cy="0" r="819.2" fx="0" fy="0"><stop offset="0" stop-color="#d67259" stop-opacity=".733"/><stop offset="1" stop-color="#ffeddb" stop-opacity="0"/></radialGradient><path d="M-.7 3.35l.65.25.55-.25q.35-.25.65-.3l.75-.4-.2.45q-.5.9-1.75.95-.6-.05-1.25-.9l-.1-.1.7.3" fill="url(#f)"/><radialGradient id="g" gradientUnits="userSpaceOnUse" gradientTransform="matrix(.00352 0 0 .00365 1.3 2.1)" spreadMethod="pad" cx="0" cy="0" r="819.2" fx="0" fy="0"><stop offset="0" stop-color="#d67259" stop-opacity=".733"/><stop offset="1" stop-color="#ffeddb" stop-opacity="0"/></radialGradient><path d="M1.7.1h.05l1 1.1.3.4.7.95-.6-.65-.6-.2-.55.85V2.5l.05-.05.05-.1-.05-1.25-.1-.3-.1-.25L1.7.1" fill="url(#g)"/><path d="M-1.05 2.9l.3.4q-.25-.25-.7-.4l-.4-.15.1-.1.05-.05q.2 0 .65.3m2-.15l.45-.15.2.05-.15.1q-.5.1-.75.3l-.25.15q.2-.3.5-.45" fill="#b84326"/><radialGradient id="h" gradientUnits="userSpaceOnUse" gradientTransform="matrix(.00049 0 .00003 .00296 -.35 -.95)" spreadMethod="pad" cx="0" cy="0" r="819.2" fx="0" fy="0"><stop offset=".063" stop-color="#fff" stop-opacity=".851"/><stop offset="1" stop-color="#fff" stop-opacity="0"/></radialGradient><path d="M.05-.95L0 .4l-.25.55H-.3L-.55.4l-.1-.8-.05-1.1.1-.8.25-.6.05.05.25.55.1 1.35" fill="url(#h)"/><radialGradient id="i" gradientUnits="userSpaceOnUse" gradientTransform="matrix(.00084 0 0 .00085 -.3 1.25)" spreadMethod="pad" cx="0" cy="0" r="819.2" fx="0" fy="0"><stop offset=".063" stop-color="#fff" stop-opacity=".902"/><stop offset="1" stop-color="#fff" stop-opacity="0"/></radialGradient><path d="M-.8.75l.5-.2q.3 0 .45.2l.2.5-.2.45q-.15.2-.45.2-.3 0-.5-.2l-.2-.45.2-.5" fill="url(#i)"/><radialGradient id="j" gradientUnits="userSpaceOnUse" gradientTransform="matrix(.00223 .00221 -.00397 .00397 -3.15 1.45)" spreadMethod="pad" cx="0" cy="0" r="819.2" fx="0" fy="0"><stop offset="0" stop-color="#facbbe" stop-opacity=".482"/><stop offset="1" stop-color="#fcdcc9" stop-opacity="0"/></radialGradient><path d="M-2.35 1.85l-.15.1-.05.1-2.05 2.5q-.35.6-.65.25.15-2 1.1-2.7.8-.65 2.35-1.35l-.35.75-.2.35" fill="url(#j)"/><radialGradient id="k" gradientUnits="userSpaceOnUse" gradientTransform="matrix(.0057 0 0 .0057 2.1 3.55)" spreadMethod="pad" cx="0" cy="0" r="819.2" fx="0" fy="0"><stop offset="0" stop-color="#facbbe" stop-opacity=".482"/><stop offset="1" stop-color="#fcdcc9" stop-opacity="0"/></radialGradient><path d="M4.85 5.1L4 4 2.65 2.55l-.55-.9-.55-.8q.85.35 1.55 1l1.7 1.7q1 1.05.05 1.55" fill="url(#k)"/></g></svg>