<svg xmlns="http://www.w3.org/2000/svg" width="5" height="11"><g><path d="M.8 8l.05.4-.55.4-.15-.05L.2 8q.1-.7.65-1.1L.8 8" fill="#fce3d0"/><path d="M.7 9l.45-.05.5.6-.6-.3q-.45.1-.4-.2L.7 9m3.15.05q.05.3-.4.2-.25-.05-.65.3.25-.55.55-.6l.4.05.1.05" fill="#b84326"/><radialGradient id="a" gradientUnits="userSpaceOnUse" gradientTransform="matrix(.0075 0 0 .0075 .55 8.35)" spreadMethod="pad" cx="0" cy="0" r="819.2" fx="160" fy="0"><stop offset="0" stop-color="#e8a792" stop-opacity=".263"/><stop offset="1" stop-color="#fcdcce" stop-opacity=".031"/></radialGradient><path d="M3.2 1.6l-.25 1.1q-.15.85.1 2.5l.05.25.05.4.2 1.6.05.55-.25.55q-.3.45-.85.55-.6-.1-.9-.55L1.15 8v-.55l.25-1.6.05-.4.05-.25.1-2.5-.3-1.2q.4.8.5 2.2l-.15 1.9-.25 2.15q-.15 1 .75 1.2l.3-.05q.75-.2.65-1.15l-.3-2.4-.05-2.25q.05-.65.45-1.5" fill="url(#a)"/><radialGradient id="b" gradientUnits="userSpaceOnUse" gradientTransform="matrix(.00494 0 0 .0027 2.3 9.65)" spreadMethod="pad" cx="0" cy="0" r="819.2" fx="0" fy="0"><stop offset=".396" stop-color="#d67259" stop-opacity=".541"/><stop offset="1" stop-color="#ffeddb" stop-opacity="0"/></radialGradient><path d="M.2 9.3l.85-.45.75.3.45.15.55-.15.75-.3q.3-.1.8.4l-.4.35-.25.1-.4-.05-.45.25L2 10l-.35-.1-.45-.25-.35.05-.25-.1-.4-.3m.45-.25q-.05.3.4.2l.6.3-.5-.6L.7 9l-.05.05M3.75 9l-.4-.05q-.3.05-.55.6.4-.35.65-.3.45.1.4-.2L3.75 9" fill="url(#b)"/><radialGradient id="c" gradientUnits="userSpaceOnUse" gradientTransform="matrix(.00436 -.00117 .00243 .00908 .35 6.6)" spreadMethod="pad" cx="0" cy="0" r="819.2" fx="32" fy="0"><stop offset=".478" stop-color="#e8a792" stop-opacity=".341"/><stop offset="1" stop-color="#fcdcce" stop-opacity=".4"/></radialGradient><path d="M3.55 8.85l-.75.3-.55.15-.45-.15-.75-.3-.85.45q-.25-.35-.2-.95L.1 8l.5-2.15.05-.25v-.15l.3-2.3L.7 2.2l-.05-.05L.4 0l.7 1.1.2.4.3 1.2-.1 2.5-.05.25-.05.4-.25 1.6V8l.25.55q.3.45.9.55.55-.1.85-.55L3.4 8l-.05-.55-.2-1.6-.05-.4-.05-.25q-.25-1.65-.1-2.5l.25-1.1v-.1l.2-.35.1-.15.6-.95-.25 1.55-.3 1.55q-.1.65.3 2.3l.05.15.05.25.5 2.15.05.35q.1.55-.15.9-.5-.5-.8-.4M.85 6.9Q.3 7.3.2 8l-.05.75.15.05.55-.4L.8 8l.05-1.1m2.8 0l.1 1.1-.05.4.5.4.2-.05L4.35 8q-.15-.7-.7-1.1" fill="url(#c)"/><radialGradient id="d" gradientUnits="userSpaceOnUse" gradientTransform="matrix(.00092 0 0 .00092 2.35 7.8)" spreadMethod="pad" cx="0" cy="0" r="819.2" fx="0" fy="0"><stop offset=".314" stop-color="#fff" stop-opacity=".671"/><stop offset="1" stop-color="#fff" stop-opacity="0"/></radialGradient><path d="M2.4 7.1l.45.2.25.5-.25.45-.5.2-.55-.2-.2-.45.2-.5.5-.2h.1" fill="url(#d)"/><radialGradient id="e" gradientUnits="userSpaceOnUse" gradientTransform="matrix(.00072 0 0 .0038 2.35 4.45)" spreadMethod="pad" cx="0" cy="0" r="819.2" fx="0" fy="0"><stop offset=".196" stop-color="#fff" stop-opacity=".671"/><stop offset="1" stop-color="#fff" stop-opacity="0"/></radialGradient><path d="M2.35 7.1H2.3q-.2-.05-.35-.75l-.2-1.9.2-1.85q.15-.8.4-.8l.4.8.2 1.85-.2 1.9-.35.75h-.05" fill="url(#e)"/></g></svg>