<svg xmlns="http://www.w3.org/2000/svg" width="6" height="10"><g transform="translate(2.55 4.55)"><path d="M-1.55 2.6l.1.55-.6.25-.15.1q-.2-.4.05-.85l.45-.5q.15 0 .15.45" fill="#fce3d0"/><radialGradient id="a" gradientUnits="userSpaceOnUse" gradientTransform="matrix(.0039 0 0 .0034 .8 2.8)" spreadMethod="pad" cx="0" cy="0" r="819.2" fx="0" fy="0"><stop offset=".396" stop-color="#d67259" stop-opacity=".541"/><stop offset="1" stop-color="#ffeddb" stop-opacity="0"/></radialGradient><path d="M1.75 1.4l.5.7.25.65.05.5-.3.6L1.5 4l-.95.15Q.8 4 1 3.95h.55l.55-.2.15-.3v-.5L2 2l-.25-.6" fill="url(#a)"/><radialGradient id="b" gradientUnits="userSpaceOnUse" gradientTransform="matrix(.00395 -.00183 .00307 .00664 -1.65 -.35)" spreadMethod="pad" cx="0" cy="0" r="819.2" fx="250" fy="0"><stop offset="0" stop-color="#ffeddb" stop-opacity=".09"/><stop offset="1" stop-color="#d7745b" stop-opacity=".224"/></radialGradient><path d="M1.85 2.45q-.3-.3-.5-.3-.15-.05-.15.45l-.15.65-.6.25q.3-.45.2-1.05v-.1L.4-.5Q.35-1.85.65-2.75q.25-.9.95-1.3-.35 1.1-.35 2.7Q1.25.1 1.5.9l.2.4.05.1L2 2l.25.95v.5l-.3-.15q.15-.5-.1-.85" fill="url(#b)"/><radialGradient id="c" gradientUnits="userSpaceOnUse" gradientTransform="matrix(.00842 0 0 .00708 -3.3 1.55)" spreadMethod="pad" cx="0" cy="0" r="819.2" fx="25" fy="0"><stop offset=".494" stop-color="#e8a792" stop-opacity=".341"/><stop offset="1" stop-color="#fdddd0" stop-opacity=".69"/></radialGradient><path d="M1.05 3.25h.05l.5-.05.35.1.3.15-.15.3-.55.2H1q-.2.05-.45.2l-.2.15-.05.05-.45.2-.25-.05h-.05l-.15-.15-.95-.35-.65-.05q-.35-.15-.35-.8l.45-1.3q.4-.7.7-2.25.1-1.05-.15-2-.2-.95-1-2.15 1.55.8 1.75 1.5L-.7-.8q0 1.45-.25 2.6L-1 3.2l.4.4.35.1.65-.2h.05l.6-.25m-2.75-1.1l-.45.5q-.25.45-.05.85l.15-.1.6-.25-.1-.55q0-.45-.15-.45" fill="url(#c)"/><path d="M.4 4.15l.25-.25.25-.25.3.05.25.1h-.3q-.25 0-.75.35m-1.15 0q-.5-.35-.7-.35h-.3l.25-.1.25-.05.25.25.25.25" fill="#b84326"/><radialGradient id="d" gradientUnits="userSpaceOnUse" gradientTransform="matrix(-.00061 -.00003 -.00003 .00359 0 -.55)" spreadMethod="pad" cx="0" cy="0" r="819.2" fx="0" fy="0"><stop offset=".063" stop-color="#fff"/><stop offset="1" stop-color="#fff" stop-opacity="0"/></radialGradient><path d="M.35-2.15l.1.9V.2l-.1.9-.35.65h-.05l-.3-.7-.15-1.6.15-1.65.3-.7H0l.35.75" fill="url(#d)"/><radialGradient id="e" gradientUnits="userSpaceOnUse" gradientTransform="matrix(-.00075 -.00043 -.00046 .00078 -.2 2.85)" spreadMethod="pad" cx="0" cy="0" r="819.2" fx="0" fy="0"><stop offset=".255" stop-color="#fff"/><stop offset="1" stop-color="#fff" stop-opacity="0"/></radialGradient><path d="M.15 2.2l-.55-.05-.4.35-.1.55.3.4.55.1.45-.35.05-.55-.3-.45" fill="url(#e)"/></g></svg>