<svg xmlns="http://www.w3.org/2000/svg" width="5" height="9"><g><path d="M.45 6.5l.35-.25h.1v.05l-.05.25-.05.35.05.35-.4.25-.15-.05-.05-.3.2-.65" fill="#fce3d0"/><path d="M4.1 6.25l.25.25.15.5-.1.4-.35.1-.2-.1v-.75l.05-.4h.2" fill="#ffecd9"/><radialGradient id="a" gradientUnits="userSpaceOnUse" gradientTransform="matrix(-.0093 .0025 -.00192 -.00713 .8 4.35)" spreadMethod="pad" cx="0" cy="0" r="819.2" fx="250" fy="0"><stop offset=".141" stop-color="#d67259" stop-opacity=".263"/><stop offset="1" stop-color="#ffeddb" stop-opacity="0"/></radialGradient><path d="M4.3 7.7l-.5-.2-.75.2-.6.2-.4.05-.55-.35-.2-.5.1-.8.2-.9.15-1.2-.15-1.55-.25-.5-.65-.9-.15-.2L.4 0l.7.55.7 1.1q.3.8.25 1.7L1.9 5.1l-.2 1.35q-.1.45.35.85l.9.1.5-.55v-.5l-.1-1.2-.15-2.4q0-.45.4-1.35L4.25.2l-.15.95-.15 1.25.25 1.1q.3.6.15 1.35-.2.7.3 1.85.3.95.05 1.35l-.4-.35m-.4-1.45l-.05.4v.75l.2.1.35-.1.1-.4-.15-.5-.25-.25h-.2" fill="url(#a)"/><radialGradient id="b" gradientUnits="userSpaceOnUse" gradientTransform="matrix(.00574 0 0 .007 1.8 7.5)" spreadMethod="pad" cx="0" cy="0" r="819.2" fx="160" fy="0"><stop offset=".494" stop-color="#e8a792" stop-opacity=".451"/><stop offset="1" stop-color="#fdddd0" stop-opacity=".69"/></radialGradient><path d="M4.7 8.05l-.15.15-.35.15-.1.05h-.05l-.3-.1H3.5l-1.1.25L2 8.5l-.5-.15-.65-.15-.75-.55q-.25-.35.05-1l.35-.8.05-.1V5.7l.2-1.25.15-1.9-.2-1.3.65.9.25.5.15 1.55-.15 1.2-.2.9-.1.8.2.5.55.35.4-.05.6-.2.75-.2.5.2.4.35m-4.45-.9l.05.3.15.05.4-.25L.8 6.9l.05-.35.05-.25v-.05H.8l-.35.25-.2.65" fill="url(#b)"/><path d="M1.4 8.05l-.3-.15-.1-.05q-.15-.15.15-.1.35.1.75.5l-.5-.2m2.25 0L3.4 8l-.3.1q.2-.15.3-.15l.25-.05.25.05L4 8l-.1.05h-.25" fill="#b84326"/><radialGradient id="c" gradientUnits="userSpaceOnUse" gradientTransform="matrix(-.00085 -.0004 -.00052 .00073 2.55 7.05)" spreadMethod="pad" cx="0" cy="0" r="819.2" fx="0" fy="0"><stop offset=".173" stop-color="#fff"/><stop offset="1" stop-color="#fff" stop-opacity="0"/></radialGradient><path d="M3.3 6.9l-.1.5q-.15.25-.5.3l-.6-.05-.35-.4q-.1-.25.1-.5l.5-.3.6.05.35.4" fill="url(#c)"/><radialGradient id="d" gradientUnits="userSpaceOnUse" gradientTransform="matrix(.00069 -.00003 .0001 .00397 2.7 3.85)" spreadMethod="pad" cx="0" cy="0" r="819.2" fx="0" fy="0"><stop offset=".063" stop-color="#fff"/><stop offset="1" stop-color="#fff" stop-opacity="0"/></radialGradient><path d="M2.95 2l.15 1.8-.05 1.85-.3.8q-.2 0-.3-.75-.15-.8-.15-1.85-.05-1.1.05-1.85t.25-.75l.35.75" fill="url(#d)"/></g></svg>