<svg xmlns="http://www.w3.org/2000/svg" width="6" height="12"><g transform="translate(2.5 5.65)"><radialGradient id="a" gradientUnits="userSpaceOnUse" gradientTransform="matrix(.00415 0 0 .00421 -.7 2.75)" spreadMethod="pad" cx="0" cy="0" r="819.2" fx="0" fy="0"><stop offset=".118" stop-color="#d67259" stop-opacity=".541"/><stop offset="1" stop-color="#ffeddb" stop-opacity="0"/></radialGradient><path d="M-1.65 1.25l-.3 1.15q0 .7.45.9l.15.05h.2l.8.1v.05h.05l.2.1q-.1.7-.5 1l-1.9 1.05q.45-1.1.35-1.9l-.1-1.1.1-.45.55-1.2-.05.25" fill="url(#a)"/><radialGradient id="b" gradientUnits="userSpaceOnUse" gradientTransform="matrix(.0028 -.00043 .00064 .0041 -1.15 .35)" spreadMethod="pad" cx="0" cy="0" r="819.2" fx="160" fy="0"><stop offset="0" stop-color="#e8a792" stop-opacity=".451"/><stop offset="1" stop-color="#fdddd0" stop-opacity=".69"/></radialGradient><path d="M-.9-4.05q.45.85.4 1.65l-.35 4 .2.65.6.45q.55 0 .9-.35l.3-.95-.05-4.55q.15-1 .65-2l.4-.35h.05l.35-.15q-.6.95-.75 1.75l-.2 2.3q0 1.45.4 2.9l.3 1.15-.3.95-.4.05-1.2.1-.5.1-.2-.1h-.05V3.5l-.8-.1h-.2l-.15-.05q-.45-.2-.45-.9l.3-1.15.05-.25q.35-1.35.35-2.65l-.2-2.3q-.15-.8-.75-1.75.9.75 1.3 1.6M-.9.6l-.65.95-.25.8.25-.15.25-.1.2-.1.1-.4.15-.95L-.9.6m2.15.05l.05.95.05.45.25.05.3.1.25.15-.3-.9-.6-.85v.05" fill="url(#b)"/><radialGradient id="c" gradientUnits="userSpaceOnUse" gradientTransform="matrix(.00458 0 0 .00908 -1.5 -.7)" spreadMethod="pad" cx="0" cy="0" r="819.2" fx="210502" fy="0"><stop offset=".141" stop-color="#d67259" stop-opacity=".263"/><stop offset="1" stop-color="#ffeddb" stop-opacity="0"/></radialGradient><path d="M2.15-5.5l-.4.35q-.5 1-.65 2l.05 4.55-.3.95q-.35.35-.9.35l-.6-.45-.2-.65.35-4q.05-.8-.4-1.65-.4-.85-1.3-1.6l.6.05Q-.05-4.5-.2-2.5L-.45.8Q-.6 2.05 0 2.35q.45.1.7-.2l.25-.7-.1-4Q.8-5.05 2.15-5.5" fill="url(#c)"/><path d="M-.85.65L-1 1.6l-.1.4-.2.1-.25.1-.25.15.25-.8L-.9.6l.05.05" fill="#fce3d0"/><path d="M1.25.6l.6.85.3.9-.25-.15-.3-.1-.25-.05-.05-.45-.05-.95V.6" fill="#ffecd9"/><path d="M1.2 2.65q.25.05.3.25v.2l-.2.05h-.15l-.3-.05-.3.05-.15.1.35-.45q.2-.15.45-.15m-2.45.05l.2-.05.3.25.3.35-.65-.15-.15-.3v-.1" fill="#b84326"/><radialGradient id="d" gradientUnits="userSpaceOnUse" gradientTransform="matrix(-.00075 -.00035 -.00044 .00064 .35 1.7)" spreadMethod="pad" cx="0" cy="0" r="819.2" fx="0" fy="0"><stop offset=".173" stop-color="#fff"/><stop offset="1" stop-color="#fff" stop-opacity="0"/></radialGradient><path d="M1 1.55L.9 2l-.4.25-.55-.05-.3-.35.1-.4q.1-.25.4-.3l.55.05q.25.1.3.35" fill="url(#d)"/><radialGradient id="e" gradientUnits="userSpaceOnUse" gradientTransform="matrix(.0006 -.00002 -.00003 .00386 .4 -1.55)" spreadMethod="pad" cx="0" cy="0" r="819.2" fx="0" fy="0"><stop offset=".063" stop-color="#fff"/><stop offset="1" stop-color="#fff" stop-opacity="0"/></radialGradient><path d="M.75-1.55L.65.2.4.95.15.25l-.1-1.8.1-1.8q.1-.75.25-.75l.25.75.1 1.8" fill="url(#e)"/></g></svg>