<svg xmlns="http://www.w3.org/2000/svg" width="7" height="9"><g transform="translate(3.05 4.45)"><path d="M1.8 2.9L1 2.8q.1-1.1.4-1.05.25 0 .4.35l.2.55-.2.25" fill="#fce3d0"/><radialGradient id="a" gradientUnits="userSpaceOnUse" gradientTransform="matrix(.00502 0 0 .0098 -.1 3.15)" spreadMethod="pad" cx="0" cy="0" r="819.2" fx="160" fy="0"><stop offset=".494" stop-color="#e8a792" stop-opacity=".451"/><stop offset="1" stop-color="#fcdcce" stop-opacity=".243"/></radialGradient><path d="M1.7-4.35l-.2.55-.2.65q-.3 1-.3 1.7l.6 2.6.1.25.1.25.35 1-.25.6-.4.15q-.55-.05-.85.2l-.5.35-.55.1q-.3.05-.65-.3l-.55-.35-.75-.35-.25-.15-.15-.3v-.2l.3-.75L-1.8.2l.2-.65.1-1.05-.2-1.45-.15-.65-.2-.85.3.2.15.1.65.8q.2.6.15 1.55L-.9-.4-1.1.7l-.2.95-.1.7.7.95.65.05.55-.4.35-.75-.05-.55-.15-.9L.5-.4.45-1.8l.1-1.55.7-.8.45-.2m.3 7l-.2-.55q-.15-.35-.4-.35Q1.1 1.7 1 2.8l.8.1.2-.25m-4.1.1h.55l-.2-.7q-.05-.4-.3-.4l-.4.35-.15.55.15.2h.35" fill="url(#a)"/><radialGradient id="b" gradientUnits="userSpaceOnUse" gradientTransform="matrix(.00385 0 0 .00484 1.15 -.65)" spreadMethod="pad" cx="0" cy="0" r="819.2" fx="0" fy="0"><stop offset="0" stop-color="#d67259" stop-opacity=".212"/><stop offset="1" stop-color="#ffeddb" stop-opacity="0"/></radialGradient><path d="M1.6 1.15L1-1.45q0-.7.3-1.7l.2-.65-.1.6-.05.85q0 .5.15.85T2.75-.25l.05.05V.4l-.2.75-.35.7-.65-.7" fill="url(#b)"/><radialGradient id="c" gradientUnits="userSpaceOnUse" gradientTransform="matrix(.00583 0 0 .00583 .15 3.3)" spreadMethod="pad" cx="0" cy="0" r="819.2" fx="0" fy="0"><stop offset=".396" stop-color="#d67259" stop-opacity=".541"/><stop offset="1" stop-color="#ffeddb" stop-opacity="0"/></radialGradient><path d="M2.2 2.25l.1.55-.1.35-.3.3-.5.15-.6.15-.55.3-.6.2-.2-.05-.35-.1-.05-.05-.9-.55-.3-.1-.15-.05-.3-.2q-.25-.25-.15-.65v.1l.15.3.25.15.75.35.55.35q.35.35.65.3l.55-.1.5-.35q.3-.25.85-.2l.4-.15.25-.6-.35-1-.1-.25.5.85" fill="url(#c)"/><radialGradient id="d" gradientUnits="userSpaceOnUse" gradientTransform="matrix(.0058 0 0 .00465 .85 3.45)" spreadMethod="pad" cx="0" cy="0" r="819.2" fx="0" fy="0"><stop offset="0" stop-color="#d67259" stop-opacity=".451"/><stop offset="1" stop-color="#ffeddb" stop-opacity="0"/></radialGradient><path d="M2.25 1.85l.75 1 .05.5L1.6 4l-1.2.5H.35L-.8 4.35l-.35-.25-.65-.4-.35-.3.3.1.9.55.05.05.35.1.2.05.6-.2.55-.3.6-.15.5-.15.3-.3.1-.35-.1-.55-.5-.85-.1-.25.65.7" fill="url(#d)"/><radialGradient id="e" gradientUnits="userSpaceOnUse" gradientTransform="matrix(.00574 0 0 .00963 1.6 1.15)" spreadMethod="pad" cx="0" cy="0" r="819.2" fx="6" fy="0"><stop offset=".141" stop-color="#d67259" stop-opacity=".18"/><stop offset="1" stop-color="#ffeddb" stop-opacity="0"/></radialGradient><path d="M-.95-3.75q.2.3.3 1l.1 1-.05.65v.2l-.1.55-.3 1.7-.15 1.05.55.7.5.05.6-.5.1-.9L.4.25.2-1.5Q.15-2.35.25-3q.05-.6 1-1.15l-.7.8-.1 1.55L.5-.4.65.75l.15.9.05.55-.35.75-.55.4-.65-.05-.7-.95.1-.7.2-.95.2-1.1.1-1.4q.05-.95-.15-1.55l-.65-.8.65.4" fill="url(#e)"/><radialGradient id="f" gradientUnits="userSpaceOnUse" gradientTransform="matrix(.00267 0 0 .00435 -.95 -.15)" spreadMethod="pad" cx="0" cy="0" r="819.2" fx="0" fy="0"><stop offset="0" stop-color="#d67259" stop-opacity=".212"/><stop offset="1" stop-color="#ffeddb" stop-opacity="0"/></radialGradient><path d="M-1.85-3.6l.15.65.2 1.45-.1 1.05-.2.65-.65 1.45-.3.75-.25-.85-.05-.85V.15q1.3-1.35 1.3-2.05.05-.75-.05-1.15l-.05-.55" fill="url(#f)"/><path d="M1.55 3.4l-.45.15-.65.25q.4-.35.65-.4l.35-.05.1.05m-3.65-.1l.1-.05.3.05.65.45-.6-.3-.45-.15" fill="#b84326"/><radialGradient id="g" gradientUnits="userSpaceOnUse" gradientTransform="matrix(-.0007 -.00035 -.00043 .00066 -.3 2.75)" spreadMethod="pad" cx="0" cy="0" r="819.2" fx="0" fy="0"><stop offset=".173" stop-color="#fff"/><stop offset="1" stop-color="#fff" stop-opacity="0"/></radialGradient><path d="M.3 2.55L.25 3l-.4.3-.5-.05-.3-.35.1-.45q.1-.2.4-.3l.5.05.25.35" fill="url(#g)"/><radialGradient id="h" gradientUnits="userSpaceOnUse" gradientTransform="matrix(.0006 .00003 -.00018 .00368 -.25 -.75)" spreadMethod="pad" cx="0" cy="0" r="819.2" fx="0" fy="0"><stop offset=".063" stop-color="#fff"/><stop offset="1" stop-color="#fff" stop-opacity="0"/></radialGradient><path d="M.1-.75L-.05.95l-.3.7-.25-.7V-.8l.05-.7.15-.95.3-.7.2.7v1.7" fill="url(#h)"/></g></svg>