<svg xmlns="http://www.w3.org/2000/svg" width="5" height="9"><g transform="translate(2.15 4.35)"><path d="M1.1 1.75q.05-.3.35-.25.25 0 .25.5l-.25.45-.45-.3.1-.4" fill="#fce3d0"/><path d="M-1.9 2.3l-.05-.3.25-.5q.3-.05.35.25l.05.4-.05.1-.3-.05-.25.1" fill="#ffecd9"/><radialGradient id="a" gradientUnits="userSpaceOnUse" gradientTransform="matrix(.00703 0 0 .00703 -.15 1.3)" spreadMethod="pad" cx="0" cy="0" r="819.2" fx="89" fy="0"><stop offset=".192" stop-color="#d67259" stop-opacity=".141"/><stop offset=".988" stop-color="#ffeddb" stop-opacity="0"/></radialGradient><path d="M.6-3.65l-.25.95.05 1L.45-.05l.05.3.1.8q.15.6-.1.95l-.5.45-.85-.1-.5-.1.05-.1-.05-.4q-.05-.3-.35-.25l-.25.5.05.3-.05.05-.1.25q-.3-.6.15-1.75l.15-.6.4-2.2-.15-1.75.5.6q.25.45.15 1.65L-1 .25l-.05.65-.05.4q0 .55.7.75l.55-.35L.2 1 .1.25l-.05-1V-3.2q.2-.75 1.1-.7l-.55.25" fill="url(#a)"/><radialGradient id="b" gradientUnits="userSpaceOnUse" gradientTransform="matrix(.00893 0 0 .00893 .7 2.75)" spreadMethod="pad" cx="0" cy="0" r="819.2" fx="0" fy="0"><stop offset="0" stop-color="#d67259" stop-opacity=".451"/><stop offset=".494" stop-color="#e09079" stop-opacity=".263"/><stop offset="1" stop-color="#ffeddb" stop-opacity=".192"/></radialGradient><path d="M-1.65 2.2l.3.05.5.1.85.1L.5 2q.25-.35.1-.95L.5.25l-.05-.3L.4-1.7l-.05-1 .25-.95.55-.25 1.05-.45q-1 .75-1.1 1.2l-.15 1.2.5 2.2.05.25.1.35Q2 2.3 1.8 2.6l-.05.1-.35.2-.3.05L.85 3l-.4.2-.25.1-.35.05-.4-.15-.8-.25-.35-.05-.3-.2-.05-.05V2.6l.1-.25.05-.05.25-.1M1 2.15l.45.3L1.7 2q0-.5-.25-.5-.3-.05-.35.25l-.1.4" fill="url(#b)"/><radialGradient id="c" gradientUnits="userSpaceOnUse" gradientTransform="matrix(.00145 0 0 .00229 -.1 3.3)" spreadMethod="pad" cx="0" cy="0" r="819.2" fx="0" fy="0"><stop offset="0" stop-color="#e09079" stop-opacity=".682"/><stop offset="1" stop-color="#ffeddb" stop-opacity="0"/></radialGradient><path d="M.45 3.2v.15l-.15.1-.25.25v.65l-.2.05q-.45 0-.45-.2l.05-1 .4.15.35-.05.25-.1" fill="url(#c)"/><path d="M.75 2.55l.3-.15.25.1.05.15v.1h-.2L.55 3l.2-.45m-2.3.2h-.05l-.05-.1.1-.15.2-.1q.15 0 .35.15l.2.45-.65-.25h-.1" fill="#b84326"/><radialGradient id="d" gradientUnits="userSpaceOnUse" gradientTransform="matrix(-.00066 -.0003 -.0004 .00056 -.4 1.65)" spreadMethod="pad" cx="0" cy="0" r="819.2" fx="0" fy="0"><stop offset=".173" stop-color="#fff"/><stop offset="1" stop-color="#fff" stop-opacity="0"/></radialGradient><path d="M.1 1.9l-.35.2h-.5L-1 1.75l.05-.35q.15-.2.4-.25l.45.05.3.3-.1.4" fill="url(#d)"/><radialGradient id="e" gradientUnits="userSpaceOnUse" gradientTransform="matrix(.00064 -.00003 .0001 .0033 -.3 -1)" spreadMethod="pad" cx="0" cy="0" r="819.2" fx="0" fy="0"><stop offset=".063" stop-color="#fff"/><stop offset="1" stop-color="#fff" stop-opacity="0"/></radialGradient><path d="M-.1-2.55L.1-1 0 .5l-.25.65-.3-.6L-.7-1l.1-1.5.2-.65.3.6" fill="url(#e)"/></g></svg>