<svg xmlns="http://www.w3.org/2000/svg" width="22" height="8"><g transform="translate(-59.8 -29.5)"><radialGradient id="a" gradientUnits="userSpaceOnUse" gradientTransform="matrix(-.00052 .00014 .00035 .00131 71.85 32.95)" spreadMethod="pad" cx="0" cy="0" r="819.2" fx="0" fy="0"><stop offset="0" stop-color="#919688"/><stop offset="1" stop-color="#dedfd6"/></radialGradient><path d="M71.85 31.9l.35.4.25.6v.8l-.35.45-.55-.8-.1-.95q0-.6.3-.6v.05l.1.05" fill="url(#a)"/><path d="M72.05 33.9l.05.15q1.35 2.45 4.45 2.3 1.7-.05 2.6-1.65l.55-1.25.15-.95.75.15-.25.5-.45 1.15-1.15 1.65q-.8.85-2.5.95l-1.8-.3-.2-.05q-1.65-.6-2.45-2.05-.5-1.15-.7-2.55l.5-.15q0 .8.45 2.1" fill="#a4a892"/><linearGradient id="b" gradientUnits="userSpaceOnUse" gradientTransform="matrix(.00696 0 0 .00192 75.45 31)" x1="-819.2" x2="819.2"><stop offset="0" stop-color="#a4a892"/><stop offset=".463" stop-color="#4f5041"/><stop offset="1" stop-color="#a4a892"/></linearGradient><path d="M79.85 32.5v-.05q0-1.45-1.25-1.9-4.85-1.35-6.95.8l-.05.45-.5.15v-.05l-.05-.25-.05-.05-.3.05h-.5v-.4h.5l.45-.15.35-.3.45-.4q1.15-.55 2.3-.8l3.6.15q1.4.35 2 .9l.2.15 1 .55V32l-.45.65-.75-.15" fill="url(#b)"/><linearGradient id="c" gradientUnits="userSpaceOnUse" gradientTransform="matrix(-.00116 .0018 .00069 .00044 79 34.4)" x1="-819.2" x2="819.2"><stop offset="0" stop-color="#a4a892"/><stop offset=".463" stop-color="#fbfbfb"/><stop offset="1" stop-color="#a4a892"/></linearGradient><path d="M77.05 36.85l-.2-.25q2.75-1 3.1-3.9l.3.2q-.55 3-3.2 3.95" fill="url(#c)"/><linearGradient id="d" gradientUnits="userSpaceOnUse" gradientTransform="matrix(.00212 -.00024 -.0001 -.0008 73.55 30.6)" x1="-819.2" x2="819.2"><stop offset="0" stop-color="#a4a892"/><stop offset=".463" stop-color="#fbfbfb"/><stop offset="1" stop-color="#a4a892"/></linearGradient><path d="M76.7 30q-3.55-.45-5.15 1.25L71.3 31q2.25-1.8 5.4-1.3v.3" fill="url(#d)"/><linearGradient id="e" gradientUnits="userSpaceOnUse" gradientTransform="matrix(.00185 .0011 .00044 -.00067 77.6 30.55)" x1="-819.2" x2="819.2"><stop offset="0" stop-color="#a4a892"/><stop offset=".463" stop-color="#fbfbfb"/><stop offset="1" stop-color="#a4a892"/></linearGradient><path d="M80.1 31l-.15.6q-.55-1.5-4.35-1.7v-.25q3.1 0 4.5 1.35" fill="url(#e)"/><path d="M80.15 31.5l.1.05-.1-.05m.8.05H81q-.25.7-.5.6-.3-.1-.3-.6h.75" fill="#545738"/><linearGradient id="f" gradientUnits="userSpaceOnUse" gradientTransform="matrix(.0006 .00107 -.00056 .0003 80.35 31.4)" x1="-819.2" x2="819.2"><stop offset="0" stop-color="#a4a892"/><stop offset=".463" stop-color="#fbfbfb"/><stop offset="1" stop-color="#a4a892"/></linearGradient><path d="M80.95 31.55h-.7q.05-.45.4-.25.35.15.3.25" fill="url(#f)"/><linearGradient id="g" gradientUnits="userSpaceOnUse" gradientTransform="matrix(.00433 .00075 -.00027 .00064 75.85 36.05)" x1="-819.2" x2="819.2"><stop offset="0" stop-color="#a4a892"/><stop offset=".463" stop-color="#fbfbfb"/><stop offset="1" stop-color="#a4a892"/></linearGradient><path d="M78.85 35.35l.25.15q-2.65 2.4-6.65-.1l.2-.15q3.8 2.35 6.2.1" fill="url(#g)"/><linearGradient id="h" gradientUnits="userSpaceOnUse" gradientTransform="matrix(.00052 .00116 -.0005 .00014 72.05 33.45)" x1="-819.2" x2="819.2"><stop offset="0" stop-color="#a4a892"/><stop offset=".463" stop-color="#fbfbfb"/><stop offset="1" stop-color="#a4a892"/></linearGradient><path d="M71.25 32.2l.2.05q.15 1.55 1.35 2.95l-.15.15q-1.1-1.1-1.4-3.15" fill="url(#h)"/><radialGradient id="i" gradientUnits="userSpaceOnUse" gradientTransform="matrix(.00052 .00014 -.00035 .00131 68.95 32.95)" spreadMethod="pad" cx="0" cy="0" r="819.2" fx="0" fy="0"><stop offset="0" stop-color="#919688"/><stop offset="1" stop-color="#dedfd6"/></radialGradient><path d="M68.95 31.9l-.35.4-.25.6v.8q.05.45.35.45l.55-.8.1-.95q0-.6-.3-.6v.05l-.1.05" fill="url(#i)"/><path d="M61 32.5l.15.95.5 1.25q.9 1.6 2.6 1.65 3.1.15 4.5-2.3l.05-.15.4-2.1.55.15-.7 2.55q-.85 1.45-2.5 2.05l-.2.05-1.75.3q-1.75-.1-2.55-.95-.75-.85-1.1-1.65l-.45-1.15-.25-.5.75-.15" fill="#a4a892"/><linearGradient id="j" gradientUnits="userSpaceOnUse" gradientTransform="matrix(-.00696 0 0 .00192 65.35 31)" x1="-819.2" x2="819.2"><stop offset="0" stop-color="#a4a892"/><stop offset=".463" stop-color="#4f5041"/><stop offset="1" stop-color="#a4a892"/></linearGradient><path d="M69.15 31.35q-2.1-2.15-6.9-.8-1.3.45-1.25 1.9v.05l-.75.15-.45-.65v-.65q.3-.25.95-.55l.2-.15q.6-.55 2-.9l3.65-.15 2.25.8h.05l.45.4.35.3.4.15h.55v.4h-.55l-.25-.05h-.05v.05l-.05.25v.05l-.55-.15-.05-.45" fill="url(#j)"/><linearGradient id="k" gradientUnits="userSpaceOnUse" gradientTransform="matrix(.00116 .0018 -.00069 .00044 61.8 34.4)" x1="-819.2" x2="819.2"><stop offset="0" stop-color="#a4a892"/><stop offset=".463" stop-color="#fbfbfb"/><stop offset="1" stop-color="#a4a892"/></linearGradient><path d="M63.75 36.85l.2-.25q-2.75-1-3.1-3.9l-.3.2q.55 3 3.2 3.95" fill="url(#k)"/><linearGradient id="l" gradientUnits="userSpaceOnUse" gradientTransform="matrix(-.00212 -.00024 .0001 -.0008 67.25 30.6)" x1="-819.2" x2="819.2"><stop offset="0" stop-color="#a4a892"/><stop offset=".463" stop-color="#fbfbfb"/><stop offset="1" stop-color="#a4a892"/></linearGradient><path d="M64.1 30q3.55-.45 5.15 1.25l.25-.25q-2.25-1.8-5.4-1.3v.3" fill="url(#l)"/><linearGradient id="m" gradientUnits="userSpaceOnUse" gradientTransform="matrix(-.00185 .0011 -.00044 -.00067 63.2 30.55)" x1="-819.2" x2="819.2"><stop offset="0" stop-color="#a4a892"/><stop offset=".463" stop-color="#fbfbfb"/><stop offset="1" stop-color="#a4a892"/></linearGradient><path d="M60.7 31l.15.6q.55-1.5 4.35-1.7v-.25q-3.1 0-4.5 1.35" fill="url(#m)"/><path d="M60.55 31.55h-.75q.25.7.5.6.3-.1.3-.6h-.05l.1-.05-.1.05" fill="#545738"/><linearGradient id="n" gradientUnits="userSpaceOnUse" gradientTransform="matrix(-.0006 .00107 .00056 .0003 60.45 31.4)" x1="-819.2" x2="819.2"><stop offset="0" stop-color="#a4a892"/><stop offset=".463" stop-color="#fbfbfb"/><stop offset="1" stop-color="#a4a892"/></linearGradient><path d="M60.55 31.55q-.05-.45-.4-.25l-.3.25h.7" fill="url(#n)"/><linearGradient id="o" gradientUnits="userSpaceOnUse" gradientTransform="matrix(-.00433 .00075 .00027 .00064 64.95 36.05)" x1="-819.2" x2="819.2"><stop offset="0" stop-color="#a4a892"/><stop offset=".463" stop-color="#fbfbfb"/><stop offset="1" stop-color="#a4a892"/></linearGradient><path d="M61.95 35.35l-.25.15q2.65 2.4 6.65-.1l-.2-.15q-3.8 2.35-6.2.1" fill="url(#o)"/><linearGradient id="p" gradientUnits="userSpaceOnUse" gradientTransform="matrix(-.00052 .00116 .0005 .00014 68.75 33.45)" x1="-819.2" x2="819.2"><stop offset="0" stop-color="#a4a892"/><stop offset=".463" stop-color="#fbfbfb"/><stop offset="1" stop-color="#a4a892"/></linearGradient><path d="M69.55 32.2l-.2.05Q69.2 33.8 68 35.2l.15.15q1.1-1.1 1.4-3.15" fill="url(#p)"/></g></svg>