<svg xmlns="http://www.w3.org/2000/svg" width="23" height="8"><g transform="translate(-58.9 -29.3)"><path d="M62.1 32.3v.15l-.1-.15h.1" fill="#140200"/><radialGradient id="a" gradientUnits="userSpaceOnUse" gradientTransform="matrix(.0064 -.00076 .00084 .00713 66.8 34.1)" spreadMethod="pad" cx="0" cy="0" r="819.2" fx="0" fy="0"><stop offset=".255" stop-color="#964d39" stop-opacity=".314"/><stop offset="1" stop-color="#964d39" stop-opacity="0"/></radialGradient><path d="M61.7 35.9q-.25-.4-.1-.9.35-1.05 1.75-1.3l1.55-.4 1.8-.8 1.6-1 .9-.35.35.05.25.15q.25.75-.05 1.6l-.85 1.45-1.6 1.6-1.55.55-2.4-.05q-1.45-.2-1.65-.6" fill="url(#a)"/><radialGradient id="b" gradientUnits="userSpaceOnUse" gradientTransform="rotate(-6.623 321.719 -605.507) scale(.00659)" spreadMethod="pad" cx="0" cy="0" r="819.2" fx="0" fy="0"><stop offset="0" stop-color="#964d39" stop-opacity=".424"/><stop offset="1" stop-color="#964d39" stop-opacity="0"/></radialGradient><path d="M71 33.25q-.45-1.15-.15-1.8.45-.1 2.45.6l2.95.95 1.6.5q.75.2.75.7l-.9 1.2q-.9.85-3.1.9l-1.95-.55-.6-.65-.6-.95-.45-.9" fill="url(#b)"/><path d="M69.15 30.45l2.35.15-.1.2-2.2-.15-.05-.2m.3 1.1l1.55.05-.1.15-1.35-.05-.1-.15" fill="#2c1915"/><path d="M69.25 30.85l-.05-.2 2.2.15-.1.15-2.05-.1m.2.7l-.05-.2 1.65.05-.05.2-1.55-.05" fill="#4b2616"/><path d="M81.65 29.6l.05.15-1.9 1.5-1.2 1.05h-.1l.05-.2q.4-.75.95-.95l1.25-.7.9-.85m-22.7 0l.9.85 1.25.7q.55.2.95.95l.05.2H62q-.5-.6-1.2-1.05-1.9-1.25-1.9-1.5l.05-.15" fill="#140200"/><path d="M79.05 30.75q-.05.2.05.2l.25-.1.15.05-.6.5v-.5l.15-.15m-17.8.1l.25.1.05-.2.15.15v.5l-.6-.5.15-.05" fill="#776d64"/><linearGradient id="c" gradientUnits="userSpaceOnUse" gradientTransform="matrix(.00089 .00012 -.0001 .00061 60.95 30.05)" x1="-819.2" x2="819.2"><stop offset="0" stop-color="#100c0d"/><stop offset="1" stop-color="#47423e"/></linearGradient><path d="M59.45 29.3q1.3.95 2.7 1.15v.25l-1.7-.55-1.35-.8.35-.05" fill="url(#c)"/><linearGradient id="d" gradientUnits="userSpaceOnUse" gradientTransform="matrix(.00122 .00052 -.00032 .00076 60.6 30.7)" x1="-819.2" x2="819.2"><stop offset=".047" stop-color="#0e1213"/><stop offset=".243" stop-color="#282722"/><stop offset="1" stop-color="#57514c"/></linearGradient><path d="M62.1 31.65l-.05.45q-.4-.75-.95-.95l-1.25-.7-.9-.85.05-.1.1-.15 1.35.8 1.7.55-.05.95m-1-.75l.6.5v-.5l-.15-.15-.05.2-.25-.1-.15.05" fill="url(#d)"/><linearGradient id="e" gradientUnits="userSpaceOnUse" gradientTransform="matrix(.00085 .0001 -.00005 .00038 70.2 31.15)" x1="-819.2" x2="819.2"><stop offset="0" stop-color="#4b3528"/><stop offset=".62" stop-color="#ad856b"/><stop offset="1" stop-color="#80644c"/></linearGradient><path d="M69.3 31.05l-.05-.2 2.05.1-.15.25-.1.2-1.65-.05-.1-.3" fill="url(#e)"/><radialGradient id="f" gradientUnits="userSpaceOnUse" gradientTransform="matrix(.00458 -.00053 .00026 .00217 70.4 31.35)" spreadMethod="pad" cx="0" cy="0" r="819.2" fx="0" fy="0"><stop offset="0" stop-color="#964d39" stop-opacity=".533"/><stop offset="1" stop-color="#964d39" stop-opacity="0"/></radialGradient><path d="M69.4 31.35l.05.2.1.15 1.35.05.1-.15.05-.2.1-.2.05.35-.05.35.15.85.05.05-.55-.25-.75-.1-.9.15q-.05-.8.15-1.55l.1.3" fill="url(#f)"/><linearGradient id="g" gradientUnits="userSpaceOnUse" gradientTransform="matrix(-.00122 .00052 .00032 .00076 80 30.7)" x1="-819.2" x2="819.2"><stop offset=".047" stop-color="#0e1213"/><stop offset=".243" stop-color="#282722"/><stop offset="1" stop-color="#57514c"/></linearGradient><path d="M80.75 30.45l-1.25.7q-.55.2-.95.95l-.05-.45-.05-.95 1.7-.55 1.35-.8.1.15.05.1-.9.85m-1.85.45v.5l.6-.5-.15-.05-.25.1q-.1 0-.05-.2l-.15.15" fill="url(#g)"/><linearGradient id="h" gradientUnits="userSpaceOnUse" gradientTransform="matrix(-.00089 .00012 .0001 .00061 79.65 30.05)" x1="-819.2" x2="819.2"><stop offset="0" stop-color="#100c0d"/><stop offset="1" stop-color="#47423e"/></linearGradient><path d="M80.15 30.15l-1.7.55v-.25q1.4-.2 2.7-1.15l.35.05-1.35.8" fill="url(#h)"/><path d="M68.1 30.2q1.75.65 1.2 2.45-.95 2.5-3.55 2.85l-.4.05q-.9-.05-1.6-.45l-1.15-1.2q-.4-.65-.45-1.85V32l-.1-.25.05-.35q.05-.5.25-.85v-.05h.05l1-.35q1.7-.3 4.7 0v.05m-5.65.4q-.2.35-.25.8l-.05.4.05.2.05-.05V32q.05 1.2.45 1.9l1.1 1.15 1.6.4.35-.05q2.55-.35 3.45-2.75.5-1.7-1.15-2.4-2.95-.3-4.6 0l-1 .35"/><linearGradient id="i" gradientUnits="userSpaceOnUse" gradientTransform="matrix(.00377 -.0028 .00241 .00323 65.9 32.85)" x1="-819.2" x2="819.2"><stop offset="0" stop-color="#2a1713"/><stop offset=".38" stop-color="#180f0b"/><stop offset=".804" stop-color="#0d0906"/><stop offset="1" stop-color="#312823"/></linearGradient><path d="M68.1 30.15q-3-.3-4.7 0l-1 .35h-.05v.05q-.2.35-.25.85l-.05.35.1.25v.05q.05 1.2.45 1.85l1.15 1.2q.7.4 1.6.45l.4-.05q2.6-.35 3.55-2.85.55-1.8-1.2-2.45v-.05m-4.95-.3l5.15.15q1.95.75 1.3 2.65-1 2.75-3.85 3.1l-.4.05q-1.05-.05-1.8-.5-.85-.45-1.25-1.25-.45-.75-.5-2.1v-.05l-.15-.2.05-.45.3-.9q.6-.45 1.15-.5" fill="url(#i)"/><radialGradient id="j" gradientUnits="userSpaceOnUse" gradientTransform="matrix(.0073 -.00087 .00063 .00525 66.55 30.05)" spreadMethod="pad" cx="0" cy="0" r="819.2" fx="0" fy="0"><stop offset=".008"/><stop offset=".549" stop-color="#030303" stop-opacity=".902"/><stop offset="1" stop-color="#120703" stop-opacity=".714"/></radialGradient><path d="M63.45 30.25q1.65-.3 4.6 0 1.65.7 1.15 2.4-.9 2.4-3.45 2.75l-.35.05-1.6-.4-1.1-1.15q-.4-.7-.45-1.9v-.05l-.05.05-.05-.2.05-.4q.05-.45.25-.8l1-.35" fill="url(#j)"/><path d="M64.6 30.6q-1 .55-1.5 1.35l-.15.6q-.15.6-.15 1.25-.55-2-.25-2.5.35-.55.9-.65l1.15-.05m1.9 2.65l1.45-.3.75-.2-.25.7q-.25.65-1.35 1.3-1.05.65-2 .55-1.05-.1-1.5-.55-.5-.5-.55-.95l.6-.7.05-.1q.5-.5.75-.5l.75.5 1.3.25" fill="#fff" fill-opacity=".102"/><path d="M68.6 33l-.55.6-1.4.5-1.2-.05q-.6-.15-.7-.55h.9l.9-.05.95-.15.3-.1.6-.25.2.05" fill="#fff" fill-opacity=".141"/><radialGradient id="k" gradientUnits="userSpaceOnUse" gradientTransform="rotate(-7.333 303.36 -492.063) scale(.0006)" spreadMethod="pad" cx="0" cy="0" r="819.2" fx="0" fy="0"><stop offset="0" stop-color="#fff"/><stop offset="1" stop-color="#fff" stop-opacity="0"/></radialGradient><path d="M65.3 34.2l.2.3-.1.35-.3.2-.35-.1-.2-.35.1-.3q.15-.2.35-.2l.3.1" fill="url(#k)"/><radialGradient id="l" gradientUnits="userSpaceOnUse" gradientTransform="rotate(-7.332 332.768 -542.015) scale(.0004)" spreadMethod="pad" cx="0" cy="0" r="819.2" fx="0" fy="0"><stop offset="0" stop-color="#fff" stop-opacity=".533"/><stop offset="1" stop-color="#fff" stop-opacity="0"/></radialGradient><path d="M65.1 33.6l-.15.3.05.05-.2.05-.3-.05-.1-.25.05-.25.25-.15.2.1.2.2" fill="url(#l)"/><path d="M68.3 30.05q.85.35 1 .8-.5-.8-3.5-.95l2.5.15m-5.35.15q-1.1.25-1.05 1.75l-.05-.3-.05-.05q-.15-.75.45-1.3l3.45-.45-2.75.35" fill="#fff" fill-opacity=".631"/><path d="M69.45 31.9q.15 1.2-.65 2.1-.8.85-1.8 1.3l-1.15.35q1.55-.35 2.65-1.5l.85-1.5.1-.75" fill="#e3e3e3"/><linearGradient id="m" gradientUnits="userSpaceOnUse" gradientTransform="matrix(-.00395 -.00253 -.00217 .00339 74.6 32.9)" x1="-819.2" x2="819.2"><stop offset="0" stop-color="#2a1713"/><stop offset=".38" stop-color="#180f0b"/><stop offset=".804" stop-color="#0d0906"/><stop offset="1" stop-color="#312823"/></linearGradient><path d="M77.95 30.3v.05l.4.8v.4l-.05.2v.05q0 1.2-.35 1.95-.35.8-1.05 1.25l-1.6.5h-.4q-2.6-.2-3.65-2.6-.7-1.75 1-2.5v-.05l4.65-.3 1 .25h.05m-.8-.5l-5.15.4q-1.85.85-1.05 2.75 1.1 2.6 4 2.8h.4q1.05-.1 1.8-.55.75-.5 1.15-1.4.35-.8.3-2.15h.05l.05-.25v-.45l-.4-.9-1.15-.25" fill="url(#m)"/><path d="M77.9 30.3l-1-.25-4.65.3v.05q-1.7.75-1 2.5 1.05 2.4 3.65 2.6h.4l1.6-.5q.7-.45 1.05-1.25.35-.75.35-1.95v-.05l.05-.2v-.4l-.4-.8v-.05h-.05m0 .1l.35.75v.4l-.05.2v.05l-.3 1.9-1.05 1.2q-.65.4-1.6.5h-.35q-2.55-.2-3.55-2.55-.7-1.6.95-2.4l4.6-.3 1 .25"/><radialGradient id="n" gradientUnits="userSpaceOnUse" gradientTransform="matrix(-.00734 -.00037 -.00026 .00528 73.75 30.15)" spreadMethod="pad" cx="0" cy="0" r="819.2" fx="0" fy="0"><stop offset=".008"/><stop offset=".549" stop-color="#030303" stop-opacity=".902"/><stop offset="1" stop-color="#120703" stop-opacity=".714"/></radialGradient><path d="M76.9 30.15l-4.6.3q-1.65.8-.95 2.4 1 2.35 3.55 2.55h.35q.95-.1 1.6-.5l1.05-1.2.3-1.9v-.05l.05-.2v-.4l-.35-.75-1-.25" fill="url(#n)"/><path d="M75.75 30.55q1.1.5 1.55 1.25l.25.55.2 1.25q.45-1.95.1-2.5-.4-.55-.95-.55h-1.15M74 33.3l-1.45-.15-.7-.2.2.7q.35.65 1.5 1.25 1.05.55 2.05.4 1-.15 1.4-.7l.55-1-.7-.65-.05-.05q-.55-.5-.8-.5l-.7.55q-.55.35-1.3.35" fill="#fff" fill-opacity=".102"/><path d="M71.9 33.2l.65.6q.6.35 1.35.4l1.25-.15.65-.6-.9.05-.9.05-.95-.15-.3-.05-.65-.2-.2.05" fill="#fff" fill-opacity=".141"/><radialGradient id="o" gradientUnits="userSpaceOnUse" gradientTransform="matrix(-.0006 -.00003 -.00003 .0006 75.6 34.55)" spreadMethod="pad" cx="0" cy="0" r="819.2" fx="0" fy="0"><stop offset="0" stop-color="#fff"/><stop offset="1" stop-color="#fff" stop-opacity="0"/></radialGradient><path d="M75.3 34.15l-.2.35.15.35.35.15.3-.1.15-.35-.1-.35-.3-.15h-.05l-.3.1" fill="url(#o)"/><radialGradient id="p" gradientUnits="userSpaceOnUse" gradientTransform="matrix(-.00041 -.00002 -.00002 .00041 75.8 33.6)" spreadMethod="pad" cx="0" cy="0" r="819.2" fx="0" fy="0"><stop offset="0" stop-color="#fff" stop-opacity=".533"/><stop offset="1" stop-color="#fff" stop-opacity="0"/></radialGradient><path d="M75.45 33.55l.15.3.05.05.15.05.25-.1.1-.25-.1-.25-.25-.05-.2.05-.15.2" fill="url(#p)"/><path d="M72 30.25q-.85.4-1 .85.45-.9 3.5-1.2l-2.5.35m5.4-.2q1.15.15 1.1 1.65l.05-.3v-.05q.1-.75-.5-1.25l-3.45-.25 2.8.2" fill="#fff" fill-opacity=".631"/><path d="M71 32.15q-.05 1.2.8 2.1.85.75 1.85 1.15l1.2.25q-1.6-.2-2.75-1.3-.65-.65-.95-1.4l-.15-.8" fill="#e3e3e3"/></g></svg>