<svg xmlns="http://www.w3.org/2000/svg" width="21" height="6"><g transform="translate(-59.9 -30)"><path d="M69 33.4l-.1-.55.1-.5.25-.25.25.25.1.5-.1.55-.25.2-.25-.2" fill="#e3d0c1" fill-opacity=".541"/><radialGradient id="a" gradientUnits="userSpaceOnUse" gradientTransform="matrix(-.00037 0 0 .00073 69.35 32.8)" spreadMethod="pad" cx="0" cy="0" r="819.2" fx="0" fy="0"><stop offset="0" stop-color="#fff"/><stop offset="1" stop-color="#fff" stop-opacity="0"/></radialGradient><path d="M69.2 33.1l.15.15.15-.15.05-.3-.05-.35-.15-.1q-.1 0-.15.1l-.1.35.1.3" fill="url(#a)"/><path d="M60.4 30.65l-.05-.2v-.1L60 30l-.1.05.1.4.05.4.2.25.05.05.1-.5m2.1 1.55l-.05-.15-.8-.3-.15.1v.25l.05.2.15.1.15.05h.65v-.25" fill="#311100"/><path d="M61.5 32.1v-.25l.15-.1-.2-.1-1.1-1.2.05.2-.1.5.05.05 1.2 1.1-.05-.2" fill="#65452e" fill-opacity=".792"/><path d="M62.5 32.45l.4.05v-.15l-.15-.2-.05-.1h-.25l.05.15v.25" fill="#8a6552"/><path d="M71.55 33.4l-.25.2-.25-.2-.1-.55.1-.5.25-.25.25.25.1.5-.1.55" fill="#e3d0c1" fill-opacity=".541"/><radialGradient id="b" gradientUnits="userSpaceOnUse" gradientTransform="matrix(.00037 0 0 .00073 71.25 32.8)" spreadMethod="pad" cx="0" cy="0" r="819.2" fx="0" fy="0"><stop offset="0" stop-color="#fff"/><stop offset="1" stop-color="#fff" stop-opacity="0"/></radialGradient><path d="M71.4 33.1l-.15.15-.2-.15-.05-.3.05-.35.2-.1.15.1.05.35-.05.3" fill="url(#b)"/><path d="M80.1 30.65l.05-.2v-.1l.35-.35.1.05-.1.4-.05.4-.2.25-.05.05-.1-.5M78 32.2l.05-.15.8-.3.15.1v.25l-.05.2-.15.1-.15.05H78v-.25" fill="#311100"/><path d="M79 32.1v-.25l-.15-.1.2-.1 1.1-1.2-.05.2.1.5-.05.05-1.2 1.1.05-.2" fill="#65452e" fill-opacity=".792"/><path d="M78 32.45l-.4.05v-.15l.15-.2.05-.1h.25l-.05.15v.25" fill="#8a6552"/><path d="M71.45 34.05l-.15-.45.05-.05.3.5.65.65.85.4.85.2.7-.05.7-.05.85-.2.5-.2.7-.5.45-.7.2-.45h.05v.1l-.35.75-.55.65-.45.25-.5.2-.9.2-.65.1h-.95l-.5-.15-.9-.35-.65-.5-.3-.35" fill="#a28067"/><path d="M71.75 34.4l.65.5.9.35.5.15h.95l.65-.1.9-.2.5-.2.45-.25.55-.65.35-.75V33.1l.05-.3v.25q-.1 2.25-3.2 2.55-2.95.45-3.55-1.55l.3.35" fill="#5c3317" fill-opacity=".243"/><path d="M77.3 31l-1.6-.2q-1.85-.05-3.55.65l-.55.2.55-.3q1.7-.65 3.55-.6l1.6.2.6.25-.6-.2" fill="#5a3a2b"/><linearGradient id="c" gradientUnits="userSpaceOnUse" gradientTransform="matrix(.00383 -.00023 .0001 .00157 74.75 32.1)" x1="-819.2" x2="819.2"><stop offset="0" stop-color="#50311c"/><stop offset=".424" stop-color="#beaca2"/><stop offset=".518" stop-color="#e3d8d1"/><stop offset=".635" stop-color="#ab978b"/><stop offset="1" stop-color="#714d35"/></linearGradient><path d="M77.9 31.2l.3 1.45v.15l-.05.3v.05h-.05l-.1-.45-.35-1.15q-2.5-.8-5.2 0l-.3.1q-.45.15-.55.35l-.05.35-.1.85v.05l-.1.3-.05-.35.05-.7V32l.2-.35h.05l.55-.2q1.7-.7 3.55-.65l1.6.2.6.2" fill="url(#c)"/><radialGradient id="d" gradientUnits="userSpaceOnUse" gradientTransform="matrix(.00476 0 0 .0048 74.5 34.7)" spreadMethod="pad" cx="0" cy="0" r="819.2" fx="0" fy="0"><stop offset="0" stop-color="#fff" stop-opacity=".482"/><stop offset="1" stop-color="#fff" stop-opacity="0"/></radialGradient><path d="M77.95 32.9q-.15 1.3-1.15 1.7l-3.05.4q-2.05.05-2-2 .15 1.65 2 1.7l2.85-.3q.9-.25 1.35-1.5" fill="url(#d)"/><path d="M62.45 33.15l.15.45.45.7.75.5.45.2.9.2.7.05.65.05.85-.2q.5-.1.85-.4l.65-.65.3-.5h.05v.05l-.1.45-.3.35-.7.5-.85.35-.5.15h-.95l-.7-.1-.9-.2-.5-.2-.4-.25-.55-.65-.4-.75.05-.1h.05" fill="#a28067"/><path d="M62.4 33.15l-.05.1.4.75.55.65.4.25.5.2.9.2.7.1h.95l.5-.15.85-.35.7-.5.3-.35q-.6 2-3.6 1.55-3.25-.3-3.2-2.8l.1.35" fill="#5c3317" fill-opacity=".243"/><path d="M68.4 31.45q-1.75-.7-3.6-.65l-1.6.2-.55.2.55-.25 1.6-.2q1.85-.05 3.6.6l.55.3-.55-.2" fill="#5a3a2b"/><linearGradient id="e" gradientUnits="userSpaceOnUse" gradientTransform="matrix(-.00381 -.00023 -.0001 .00157 65.75 32.1)" x1="-819.2" x2="819.2"><stop offset="0" stop-color="#50311c"/><stop offset=".424" stop-color="#beaca2"/><stop offset=".518" stop-color="#e3d8d1"/><stop offset=".635" stop-color="#ab978b"/><stop offset="1" stop-color="#714d35"/></linearGradient><path d="M62.3 32.8l.3-1.6h.05l.55-.2 1.6-.2q1.85-.05 3.6.65l.55.2.2.35.05.5V33.55h-.05l-.1-.3v-.05l-.05-.85-.1-.35-.5-.35-.35-.1q-2.7-.8-5.2 0l-.35 1.15-.1.45-.1-.35" fill="url(#e)"/><radialGradient id="f" gradientUnits="userSpaceOnUse" gradientTransform="matrix(-.00476 0 0 .0048 66.05 34.7)" spreadMethod="pad" cx="0" cy="0" r="819.2" fx="0" fy="0"><stop offset="0" stop-color="#fff" stop-opacity=".482"/><stop offset="1" stop-color="#fff" stop-opacity="0"/></radialGradient><path d="M62.55 32.9q.2 1.3 1.15 1.7l3.05.4q2.05.05 2-2-.1 1.65-2 1.7l-2.8-.3q-.95-.25-1.4-1.5" fill="url(#f)"/><path d="M71.45 32.3l.05-.15h.1l-.15.3-2.35.1h-.05v-.1l.05-.05 2.35-.1" fill="#5c3d23" fill-opacity=".792"/><linearGradient id="g" gradientUnits="userSpaceOnUse" gradientTransform="matrix(.00108 0 0 .0003 70.25 32.15)" x1="-819.2" x2="819.2"><stop offset="0" stop-color="#3b200b"/><stop offset=".494" stop-color="#ad8364"/><stop offset="1" stop-color="#563a24"/></linearGradient><path d="M69.1 32.4h-.05v-.1l.05-.05v-.15l2.5-.1-.1.15-.05.15-2.35.1" fill="url(#g)"/></g></svg>