<svg xmlns="http://www.w3.org/2000/svg" width="22" height="8"><g transform="translate(-59.35 -28.6)"><path d="M68.35 32.8h-.2l.05-.05.2-.35.1-.15.25-.2h.1l.05-.05.05.05.1.2v.4l-.1.5-.35.9h-.25l.35-.4.15-.4.1-.45V32.65l.05-.4-.15-.1h-.05l-.25.25-.15.4h-.05" fill="#a8a7ac"/><path d="M68.1 33.35h-.05L68 33.2q-.05-.1.05-.25l.15-.2-.05.05h.3l.05.1v.1l.05-.1v.3l-.05.1-.05.15H68.3q-.15.05-.2-.1m.85-.7v.1l-.05-.1h.05m-.6.2l-.05.05-.1.15.15.05v-.25" fill="#050505"/><path d="M68.95 32.7v-.05l-.05-.3-.1-.15v-.05h.05l.15.1-.05.4V32.8v-.1m-.7 1.1l-.1-.05v-.15l.1.1v.1" fill="#eeeeec"/><path d="M68.1 33.4v-.05q.05.15.2.1H68.45l.05-.15.05-.1v-.3l-.05.1v-.1l-.05-.1h-.05l.15-.4.25-.25v.05l.1.15.05.3h-.05l.05.1v-.05.1l-.1.45-.15.4-.35.4-.05-.05h-.05l-.15-.3v-.3m.15.3l-.1-.1v.15l.1.05v-.1" fill="#d4d4d4"/><path d="M68.1 33.7l.15.3h.05l.05.05h.25l.35-.9.1-.5v-.4l-.1-.2-.05-.05.1.05.15.25-.15 1.2-.25.5-.05.1h-.1l-.05.05q-.35.1-.45-.3l-.05-.25.05-.2v.3" fill="#56595e"/><path d="M68.35 32.9v.2l-.15-.05.1-.15.05-.05v.05" fill="#d5d6d0"/><path d="M68.55 31.65l-1.05-1.8-.7-.75.8.65.5.6q.6.9.65 2.05l-.2-.75" fill="#fffee6"/><path d="M68.45 32q.3 1.25-.45 2.35l-.2.25.6-1.4.05-.65V32" fill="#050100"/><path d="M61.4 30.55l.05-.1v.05l-.05.05" fill="#ab9a7c"/><linearGradient id="a" gradientUnits="userSpaceOnUse" gradientTransform="matrix(.00027 .00435 -.00467 .00029 64.8 32.4)" x1="-819.2" x2="819.2"><stop offset=".008" stop-color="#504030"/><stop offset=".886" stop-color="#131210"/></linearGradient><path d="M68 34.35q.75-1.1.45-2.35l-.65-1.55-.15-.2-.25-.3q-1.1-1.05-2.6-1.05t-2.55 1.05Q61.2 31 61.2 32.45v.1q0 1.45 1.05 2.55 1.05 1 2.5 1.05h.1q1.5 0 2.55-1.05l.4-.5.2-.25m.65-1.8q-.05 1.55-1.15 2.65-1.1 1.1-2.7 1.15-1.6 0-2.7-1.1-1.15-1.15-1.1-2.7 0-1.6 1.05-2.65l.1-.05q1.1-1.15 2.65-1.1 1.6-.05 2.7 1.1l1.05 1.8.1.9" fill="url(#a)"/><radialGradient id="b" gradientUnits="userSpaceOnUse" gradientTransform="matrix(.00864 .00175 -.00113 .0055 64.15 34.15)" spreadMethod="pad" cx="0" cy="0" r="819.2" fx="0" fy="0"><stop offset=".031" stop-color="#fff" stop-opacity="0"/><stop offset=".965" stop-color="#fff" stop-opacity=".353"/></radialGradient><path d="M68.45 32.45v.1l-.05.65-.6 1.4-.4.5q-1.05 1.05-2.55 1.05h-.1q-1.45-.05-2.5-1.05-1.05-1.1-1.05-2.55v-.1q0-1.45 1.05-2.5t2.55-1.05q1.5 0 2.6 1.05l.25.3.15.2.65 1.55v.45m-.85-.15l.3-1.25q-.55-.85-1.4-1.15l-.15 2.3 1.25.1m-1.55-2.55l-1.45-.15.1 2.45 1.15.1.2-2.4" fill="url(#b)"/><linearGradient id="c" gradientUnits="userSpaceOnUse" gradientTransform="matrix(.00037 .00484 -.00478 .00035 64.8 32.6)" x1="-819.2" x2="819.2"><stop offset=".008" stop-color="#796b50"/><stop offset=".886" stop-color="#b69f76"/></linearGradient><path d="M61.45 30.5l.6-.6Q61 30.95 61 32.55q-.05 1.55 1.1 2.7 1.1 1.1 2.7 1.1 1.6-.05 2.7-1.15 1.1-1.1 1.15-2.65l-.1-.9.2.75v.15q-.05 1-.5 1.85l-.65.9q-1.15 1.15-2.8 1.15t-2.75-1.15l-.3-.35-.4-.6-.25-.6-.2-1.2q0-.8.25-1.45l.05-.1.2-.45.05-.05" fill="url(#c)"/><linearGradient id="d" gradientUnits="userSpaceOnUse" gradientTransform="matrix(.00017 -.0021 .00092 .00008 67 32.85)" x1="-819.2" x2="819.2"><stop offset=".031" stop-color="#fff" stop-opacity="0"/><stop offset=".965" stop-color="#fff" stop-opacity=".522"/></linearGradient><path d="M66.35 32.2l.15-2.3q.85.3 1.4 1.15l-.3 1.25-1.25-.1" fill="url(#d)"/><linearGradient id="e" gradientUnits="userSpaceOnUse" gradientTransform="matrix(.00006 .00157 -.0009 .00003 65.65 29.15)" x1="-819.2" x2="819.2"><stop offset=".031" stop-color="#fff" stop-opacity="0"/><stop offset=".965" stop-color="#fff" stop-opacity=".522"/></linearGradient><path d="M65.85 32.15l-1.15-.1-.1-2.45 1.45.15-.2 2.4" fill="url(#e)"/><path d="M61.45 30.45l.6-.7q1.1-1.15 2.75-1.15 1.1 0 2 .5l.7.75q-1.1-1.15-2.7-1.1-1.55-.05-2.65 1.1l-.1.05-.6.6v-.05" fill="#e0d49a"/><path d="M72.2 34.05h-.25l-.35-.9-.1-.5v-.4l.05-.2.1-.05.05.05h.05l.3.2.1.15.2.35v.05h-.2l-.15-.4-.25-.25h-.05q-.1-.05-.15.1v.4l.05.1v.05l.1.45.15.4.35.4" fill="#a8a7ac"/><path d="M72.25 33.45H72.1l-.1-.15v-.1l-.05-.3.05.1.05-.1.05-.1h.25v-.05l.15.2.05.25-.05.15h-.05q-.1.15-.2.1m-.65-.8v.1-.1m.6.2l-.05.05v.2h.05l.1-.05-.05-.15-.05-.05" fill="#050505"/><path d="M71.6 32.65V32.8v-.05l-.05-.1v-.4q.05-.15.15-.1l.05.05-.1.15-.05.3m.7 1.15v-.1l.1-.1v.15l-.1.05" fill="#eeeeec"/><path d="M72.45 33.35v.35l-.2.3-.05.05-.35-.4-.15-.4-.1-.45v-.1.05-.1l.05-.3.1-.15-.05-.05h.05l.25.25.15.4h-.05l-.05.1-.05.1-.05-.1.05.3v.1l.1.15H72.25q.1.05.2-.1m-.05.4v-.15l-.1.1v.1l.1-.05" fill="#d4d4d4"/><path d="M71.55 32.05l-.05.2v.4l.1.5.35.9h.25l.05-.05.2-.3v-.3.2l-.05.25q-.1.4-.4.3l-.1-.05h-.05l-.05-.1-.25-.5-.2-1.2.15-.25.15-.05-.1.05" fill="#56595e"/><path d="M72.25 32.9l.05.15-.1.05h-.05v-.2l.05-.05.05.05" fill="#d5d6d0"/><linearGradient id="f" gradientUnits="userSpaceOnUse" gradientTransform="matrix(.00145 -.00014 .00005 .0003 70.15 31.45)" x1="-819.2" x2="819.2"><stop offset=".031" stop-color="#615135"/><stop offset=".965" stop-color="#decdb4"/></linearGradient><path d="M70.7 31.4l-2.05.15-.05-.2.3.05 3.05.05.05.1-1.3-.15" fill="url(#f)"/><linearGradient id="g" gradientUnits="userSpaceOnUse" gradientTransform="matrix(.00214 .00008 0 .00029 70.5 31.8)" x1="-819.2" x2="819.2"><stop offset=".031" stop-color="#615135"/><stop offset=".965" stop-color="#decdb4"/></linearGradient><path d="M70.35 31.5l1.7.2-.15.1-.15-.05-3.1.2v-.35l.35.1 1.35-.2" fill="url(#g)"/><path d="M70.35 31.5q-.4-.05.35-.1l1.3.15.05.1v.05l-1.7-.2" fill="#f7f7ef"/><path d="M69 31.7l-.35-.1v-.05l2.05-.15q-.75.05-.35.1l-1.35.2" fill="#030000"/><path d="M59.35 32l.05-.05 1.9.2v.1L59.35 32" fill="#897a59"/><linearGradient id="h" gradientUnits="userSpaceOnUse" gradientTransform="matrix(0 .0002 -.00122 -.00005 60.3 32.6)" x1="-819.2" x2="819.2"><stop offset=".031" stop-color="#423725"/><stop offset=".965" stop-color="#675736"/></linearGradient><path d="M61.3 32.4v.35l-1.95-.25v-.35l1.95.25" fill="url(#h)"/><path d="M61.3 32.25v.15l-1.95-.25V32l1.95.25" fill="#040100"/><path d="M79.4 31.65q-.4-1.05-1.05-1.8l-.7-.75.8.65.5.6q.6.9.65 2.05l-.2-.75" fill="#fffee6"/><path d="M79.3 32q.3 1.25-.45 2.35l-.2.25.6-1.4.05-.65V32" fill="#050100"/><linearGradient id="i" gradientUnits="userSpaceOnUse" gradientTransform="matrix(.00027 .00435 -.00467 .00029 75.65 32.4)" x1="-819.2" x2="819.2"><stop offset=".008" stop-color="#504030"/><stop offset=".886" stop-color="#131210"/></linearGradient><path d="M78.85 34.35q.75-1.1.45-2.35l-.65-1.55-.15-.2-.25-.3q-1.1-1.05-2.6-1.05t-2.55 1.05q-1.05 1.05-1.05 2.5v.1q0 1.45 1.05 2.55 1.05 1 2.5 1.05h.1q1.5 0 2.55-1.05l.4-.5.2-.25M72.9 29.9l.1-.05q1.1-1.15 2.65-1.1 1.6-.05 2.7 1.1.65.75 1.05 1.8l.1.9q-.05 1.55-1.15 2.65-1.1 1.1-2.7 1.15-1.6 0-2.7-1.1-1.15-1.15-1.1-2.7 0-1.6 1.05-2.65" fill="url(#i)"/><radialGradient id="j" gradientUnits="userSpaceOnUse" gradientTransform="matrix(.00864 .00175 -.00113 .0055 75 34.15)" spreadMethod="pad" cx="0" cy="0" r="819.2" fx="0" fy="0"><stop offset=".031" stop-color="#fff" stop-opacity="0"/><stop offset=".965" stop-color="#fff" stop-opacity=".353"/></radialGradient><path d="M79.3 32.45v.1l-.05.65-.6 1.4-.4.5q-1.05 1.05-2.55 1.05h-.1q-1.45-.05-2.5-1.05-1.05-1.1-1.05-2.55v-.1q0-1.45 1.05-2.5t2.55-1.05q1.5 0 2.6 1.05l.25.3.15.2.65 1.55v.45m-.85-.15l.3-1.25q-.55-.85-1.4-1.15l-.15 2.3 1.25.1m-1.55-2.55l-1.45-.15.1 2.45 1.15.1.2-2.4" fill="url(#j)"/><linearGradient id="k" gradientUnits="userSpaceOnUse" gradientTransform="matrix(.00017 -.0021 .00092 .00008 77.85 32.85)" x1="-819.2" x2="819.2"><stop offset=".031" stop-color="#fff" stop-opacity="0"/><stop offset=".965" stop-color="#fff" stop-opacity=".522"/></linearGradient><path d="M77.2 32.2l.15-2.3q.85.3 1.4 1.15l-.3 1.25-1.25-.1" fill="url(#k)"/><linearGradient id="l" gradientUnits="userSpaceOnUse" gradientTransform="matrix(.00006 .00157 -.0009 .00003 76.5 29.15)" x1="-819.2" x2="819.2"><stop offset=".031" stop-color="#fff" stop-opacity="0"/><stop offset=".965" stop-color="#fff" stop-opacity=".522"/></linearGradient><path d="M76.7 32.15l-1.15-.1-.1-2.45 1.45.15-.2 2.4" fill="url(#l)"/><path d="M75.65 28.75q-1.55-.05-2.65 1.1l-.1.05-.65.65.05-.1.6-.7q1.1-1.15 2.75-1.15 1.1 0 2 .5l.7.75q-1.1-1.15-2.7-1.1" fill="#e0d49a"/><linearGradient id="m" gradientUnits="userSpaceOnUse" gradientTransform="matrix(.00037 .00484 -.00478 .00035 75.65 32.6)" x1="-819.2" x2="819.2"><stop offset=".008" stop-color="#796b50"/><stop offset=".871" stop-color="#b69f76"/></linearGradient><path d="M71.85 32.55q-.05 1.55 1.1 2.7 1.1 1.1 2.7 1.1 1.6-.05 2.7-1.15 1.1-1.1 1.15-2.65l-.1-.9.2.75v.15q-.05 1-.5 1.85l-.65.9q-1.15 1.15-2.8 1.15T72.9 35.3l-.3-.35-.4-.6-.25-.6-.2-1.2q0-.8.25-1.45l.05-.1.2-.45.65-.65q-1.05 1.05-1.05 2.65" fill="url(#m)"/><path d="M81.25 32l-.05-.05-1.9.2v.1l1.95-.25" fill="#897a59"/><linearGradient id="n" gradientUnits="userSpaceOnUse" gradientTransform="matrix(0 .0002 .00122 -.00005 80.3 32.6)" x1="-819.2" x2="819.2"><stop offset=".031" stop-color="#423725"/><stop offset=".965" stop-color="#675736"/></linearGradient><path d="M79.3 32.4v.35l1.95-.25v-.35l-1.95.25" fill="url(#n)"/><path d="M81.25 32.15V32l-1.95.25v.15l1.95-.25" fill="#040100"/></g></svg>