<svg xmlns="http://www.w3.org/2000/svg" width="20" height="7"><g transform="translate(-60.35 -29.1)"><path d="M69.2 32.25v-.2l-.1-.25-.1-.2.05-.3.1.15.2.15.2-.25q.1-.3.3-.3l.45.35.6.3-.15.3q-.1-.35-.55-.4l-.65.05-.25.35-.05.15v.25l-.05-.15" fill="#040404"/><path d="M69.1 31.1q.3-.2.95-.25l1 .25v.1l-1-.2-.55.05-.3.15-.1-.1" fill="#171614"/><path d="M62.9 32.35v.05q-.1 1.15.8 2.05.75.8 1.95.75H65.8q1.25.05 2.05-.7l.55-.7q1-1.35-.25-3.05v-.05l-.15-.2-.2-.2q-.8-.8-2-.8-1.25 0-2 .8-.85.8-.9 1.95v.1m5.95-.7l.1.7q0 1.25-1 2.2-.85.95-2.15.95-1.35 0-2.2-.95-1-.95-1-2.2 0-1.3 1-2.25.85-.9 2.2-.9 1.3 0 2.15.9H68l.85 1.55" fill="#070906"/><path d="M68.45 30.5l.6.65v.15l-.05.3.1.2.1.25v.2l.05.15v.1l-.1-.1-.15-.2q-.05-.95-.55-1.7m-.65 3.85l.8-1.45.05-.55v-.1q-.05-.85-.5-1.5 1.25 1.7.25 3.05l-.55.7q-.8.75-2.05.7 1.2 0 2-.85m-4 0q.7.8 1.85.85-1.2.05-1.95-.75-.9-.9-.8-2.05.05 1.1.9 1.95" fill="#626669"/><path d="M69 32.2l.15.2.1.1-.65 1.4q.4-.7.4-1.55v-.15" fill="#2a2a28"/><path d="M62.25 31.6l-.15.05-.1.05-.05-.05.1-.05.1-.05.45-.3.4-.65-.2.45-.05.1-.5.45m.45 1.7l.2.55-.3-.55-.35-.6-.05-.1q-.15-.2-.45-.25l.1-.4.05-.1-.05.4.35.15.05.1.2.4.25.4" fill="#434841"/><path d="M69 32.2l-.15-.55L68 30.1l-.55-.55.6.5.4.45q.5.75.55 1.7m-7.15.05l.05-.4.05-.15H62l.1-.05v.2l.05.35.05.2-.35-.15" fill="#919191"/><path d="M68.65 32.25q-.1-1.05-.85-1.85l-.85-.55-1.15-.25q-1.25 0-2 .8-.8.8-.9 1.85.05-1.15.9-1.95.75-.8 2-.8 1.2 0 2 .8l.2.2.15.2v.05q.45.65.5 1.5" fill="#c4a07d" fill-opacity=".69"/><linearGradient id="a" gradientUnits="userSpaceOnUse" gradientTransform="matrix(.00029 .00003 -.0001 .00134 62.2 32.25)" x1="-819.2" x2="819.2"><stop offset="0" stop-color="#6a706c"/><stop offset=".157" stop-color="#475149"/></linearGradient><path d="M62.45 32.9l-.2-.4-.05-.1-.05-.2-.05-.35v-.2l.15-.05.5-.45q-.25.55-.2 1.2-.05.55.15.95l-.25-.4" fill="url(#a)"/><linearGradient id="b" gradientUnits="userSpaceOnUse" gradientTransform="matrix(-.00005 .00388 -.00397 -.00005 65.75 32.35)" x1="-819.2" x2="819.2"><stop offset="0" stop-color="#4a4945"/><stop offset="1" stop-color="#16130e"/></linearGradient><path d="M62.7 33.3q-.2-.4-.15-.95-.05-.65.2-1.2l.05-.1.2-.45.5-.55q.9-.95 2.3-.95.85 0 1.65.45l.55.55h-.05q-.85-.9-2.15-.9-1.35 0-2.2.9-1 .95-1 2.25 0 1.25 1 2.2.85.95 2.2.95 1.3 0 2.15-.95 1-.95 1-2.2l-.1-.7.15.55v.15q0 .85-.4 1.55l-.55.75q-.9.95-2.25.95-1.4 0-2.3-.95l-.3-.3-.3-.5-.2-.55" fill="url(#b)"/><linearGradient id="c" gradientUnits="userSpaceOnUse" gradientTransform="matrix(.0012 .00002 0 .00044 70.2 31.35)" x1="-819.2" x2="819.2"><stop offset="0" stop-color="#6a706c"/><stop offset=".349" stop-color="#222224"/><stop offset=".773" stop-color="#7c8280"/><stop offset="1" stop-color="#6e797b"/></linearGradient><path d="M70.3 31.4l-.45-.35q-.2 0-.3.3l-.2.25-.2-.15-.1-.15v-.2h.05l.1.1.3-.15.55-.05 1 .2-.15.5-.6-.3" fill="url(#c)"/><radialGradient id="d" gradientUnits="userSpaceOnUse" gradientTransform="matrix(.00948 0 0 .00623 65.8 29.85)" spreadMethod="pad" cx="0" cy="0" r="819.2" fx="0" fy="0"><stop offset="0" stop-color="#4f1e00" stop-opacity=".851"/><stop offset=".886" stop-color="#110300"/></radialGradient><path d="M62.9 32.4V32.25q.1-1.05.9-1.85.75-.8 2-.8l1.15.25.85.55q.75.8.85 1.85v.1l-.05.55-.8 1.45q-.8.85-2 .85H65.65q-1.15-.05-1.85-.85-.85-.85-.9-1.95" fill="url(#d)"/><linearGradient id="e" gradientUnits="userSpaceOnUse" gradientTransform="matrix(.00102 0 0 .00124 61.15 31.3)" x1="-819.2" x2="819.2"><stop offset="0" stop-color="#475149"/><stop offset="1"/></linearGradient><path d="M62 31.7h-.05l-.05.15-.05.1-.1.4-.45-.4-.55-.55-.35-.85q-.15-.5.55.2l1 .9.05.05" fill="url(#e)"/><path d="M67.8 30.45q.8.75.85 1.8v.65q-.75-1.15-2.1-1.9l.4-1.15.85.6" fill="#fff" fill-opacity=".314"/><path d="M71.25 31.6l-.05.2-.1.25v.2l-.1.15V32l-.2-.35-.7-.05q-.4.05-.5.4l-.2-.3.6-.3.5-.35.3.3.2.25.15-.15.05-.15.05.3" fill="#040404"/><path d="M69.25 31.1l1-.25.95.25-.15.1-.2-.15-.6-.05-.95.2-.05-.1" fill="#171614"/><path d="M76.6 30.3q-.9-.8-2.1-.8-1.15 0-2 .8l-.2.2-.15.2v.05l-.05.1q-1.2 1.65-.25 2.95 1.05 1.45 2.6 1.4h.15q1.15-.05 2-.85.8-.85.8-2V32q-.15-1-.8-1.7m-4.3-.2q.9-.9 2.2-.9 1.3 0 2.3.9.85.95.85 2.25 0 1.25-.85 2.2-1 .95-2.3.95-1.3 0-2.2-.95-.95-.95-.9-2.2v-.7l.9-1.55" fill="#070906"/><path d="M71 32.4l.1-.15v-.2l.1-.25.05-.2-.05-.3.05-.15.55-.65q-.5.75-.55 1.7l-.05.2-.2.1v-.1" fill="#626669"/><path d="M71 32.5l.2-.1.05-.2v.15q0 .85.4 1.55L71 32.5" fill="#2a2a28"/><path d="M71.65 32.25v.1l.05.55q.1.8.8 1.45.85.85 1.95.85-1.55.05-2.6-1.4-.95-1.3.25-2.95-.45.6-.45 1.4" fill="#3e403f"/><path d="M78.5 32.35h-.05l-.35.25-.05.1-.35.6-.3.55.2-.55.25-.4.2-.4.05-.1.35-.15-.1-.55-.2-.05-.05-.05-.55-.45-.05-.1-.15-.45.35.65.45.3.1.05.25.15v.6" fill="#434841"/><path d="M78.15 31.65l.2.05.1.55-.35.15.05-.2v-.55M71.8 30.5l.4-.45q.35-.3.75-.5l-.65.55-.9 1.55-.15.55q.05-.95.55-1.7" fill="#919191"/><path d="M72.1 30.85l.05-.1v-.05l.15-.2.2-.2q.85-.8 2-.8 1.2 0 2.1.8.65.7.8 1.7-.15-.9-.8-1.6-.9-.8-2.1-.8l-1.15.25q-.45.2-.85.55-.8.8-.85 1.85 0-.8.45-1.4" fill="#c4a07d" fill-opacity=".69"/><radialGradient id="f" gradientUnits="userSpaceOnUse" gradientTransform="matrix(-.00835 0 0 .00546 74.55 30.7)" spreadMethod="pad" cx="0" cy="0" r="819.2" fx="0" fy="0"><stop offset="0" stop-color="#4f1e00" stop-opacity=".851"/><stop offset=".886" stop-color="#110300"/></radialGradient><path d="M72.5 34.35q-.7-.65-.8-1.45l-.05-.55v-.1q.05-1.05.85-1.85.4-.35.85-.55l1.15-.25q1.2 0 2.1.8.65.7.8 1.6v.35q0 1.15-.8 2-.85.8-2 .85h-.15q-1.1 0-1.95-.85" fill="url(#f)"/><linearGradient id="g" gradientUnits="userSpaceOnUse" gradientTransform="matrix(.00005 .00388 .00397 -.00005 74.5 32.35)" x1="-819.2" x2="819.2"><stop offset="0" stop-color="#4a4945"/><stop offset="1" stop-color="#16130e"/></linearGradient><path d="M72.95 29.55q.7-.45 1.55-.45 1.35 0 2.35.95l.5.55.15.45.05.1.2 1.2-.15.95-.2.55-.3.5-.25.3q-1 .95-2.35.95t-2.3-.95l-.55-.75q-.4-.7-.4-1.55v-.15l.15-.55v.7q-.05 1.25.9 2.2.9.95 2.2.95 1.3 0 2.3-.95.85-.95.85-2.2 0-1.3-.85-2.25-1-.9-2.3-.9-1.3 0-2.2.9l.65-.55" fill="url(#g)"/><linearGradient id="h" gradientUnits="userSpaceOnUse" gradientTransform="matrix(-.0012 .00002 0 .00044 70.1 31.35)" x1="-819.2" x2="819.2"><stop offset="0" stop-color="#6a706c"/><stop offset=".349" stop-color="#222224"/><stop offset=".773" stop-color="#7c8280"/><stop offset="1" stop-color="#6e797b"/></linearGradient><path d="M71.2 31.3l-.05.15-.15.15-.2-.25-.3-.3-.5.35-.6.3-.1-.5.95-.2.6.05.2.15.15-.1h.05v.05l-.05.15" fill="url(#h)"/><linearGradient id="i" gradientUnits="userSpaceOnUse" gradientTransform="matrix(-.00029 .00003 .0001 .00134 78.1 32.25)" x1="-819.2" x2="819.2"><stop offset="0" stop-color="#6a706c"/><stop offset=".157" stop-color="#475149"/></linearGradient><path d="M77.75 32.35l-.2-1.2.55.45.05.05v.55l-.05.2-.05.1-.2.4-.25.4.15-.95" fill="url(#i)"/><linearGradient id="j" gradientUnits="userSpaceOnUse" gradientTransform="matrix(-.00102 0 0 .00124 79.1 31.35)" x1="-819.2" x2="819.2"><stop offset="0" stop-color="#475149"/><stop offset="1"/></linearGradient><path d="M78.5 32.35v-.6l-.1-.1.95-.85q.7-.75.55-.2l-.35.85-.6.55-.45.35" fill="url(#j)"/><path d="M76.6 30.45q.75.75.85 1.8v.1l-.05.55q-.75-1.15-2.05-1.9l.35-1.15.9.6" fill="#fff" fill-opacity=".314"/></g></svg>