<svg xmlns="http://www.w3.org/2000/svg" width="20" height="5"><g transform="translate(-60.7 -30.05)"><path d="M79.1 32.7l-.25.95-.4.65-.5.35-.6.1-.45.05-1.05.05h-.1l-1.2-.05-.6-.05-.85-.25-.2-.15-.3-.35-.05-.1-.45-1-.1-.35-.1-.6v-.2l-.05-.25-.1-.1-.35-.1H69.95v-.2h1.1l.6.05h.05l.1.05.05.05.15.2v-.1l.05.1h.05V31.75l.05.15v.1l.05.25.05.3.05.25-.05-.1.45.8-.3-.45.05.15.1.15.2.3.1.1-.05-.1.15.2.25.25.6.2 1.2.15h1.1l1.2-.05.1-.05q1.15-.3 1.3-1.7l.1-.75h.25l.05.8m-6.9 0v-.05.05m.15.55l.2.5.4.5.05.05q.35.35 1.7.4h2.25l1.15-.25.45-.4.3-.55.05-1.45-.1.25v.7q-.2 1.35-1.7 1.55l-.05.05H75.8l-1.6-.05h-.1l-.95-.3-.15-.15-.25-.25-.4-.6" fill="#93968d"/><path d="M79.15 32.05h.75v.3h-.75v-.3" fill="#a8ada7"/><path d="M79.15 31.9h.75v.15H79.15v-.15" fill="#e0e6de"/><path d="M72.2 32.65v.05-.05m.55 1.2l.25.25.15.15.95.3h.1l1.6.05h1.25l.05-.05q1.5-.2 1.7-1.55v-.7l.1-.25-.05 1.45-.3.55-.45.4-1.15.25H74.7q-1.35-.05-1.7-.4l-.05-.05-.4-.5-.2-.5.4.6" fill="#c1c8c0"/><path d="M79.15 32.05v.3l.05.05q-.1 1.15-.4 1.6l-.6.6-.4.2-.65.1-1.3.05-1.9-.05q-.75-.1-1.1-.4l-.05-.05-.15-.15-.15-.2-.2-.3-.2-.35-.1-.25-.05-.15-.15-.6-.1-.25v-.25l-.1-.2-.05-.1h-.1l-.2-.15-.25-.05h-.15l-.9.05v-.2H71.4l.35.1.1.1.05.25v.2l.1.6.1.35.45 1 .05.1.3.35.2.15.85.25.6.05 1.2.05h.1l1.05-.05.45-.05.6-.1.5-.35.4-.65.25-.95-.05-.8h.1v.15" fill="#61615f"/><path d="M71.45 31.65l-.05-.05h-1.45v-.1l.9-.05H71l.25.05.2.15" fill="#8d928b"/><path d="M79.05 31.9H78.9V31l-.05-.3-.1-.15-.4-.25-2.55-.1-2.75.15q-.8.15-.85.3l-.15.65-.05.05v.1l-.15-.2.05-.15.15-.6.95-.3 2.85-.15 2.5.1.55.2.1.25.05.3.05 1h-.05" fill-opacity=".251"/><radialGradient id="a" gradientUnits="userSpaceOnUse" gradientTransform="matrix(.00714 -.00006 0 .00705 77.55 30.55)" spreadMethod="pad" cx="0" cy="0" r="819.2" fx="0" fy="0"><stop offset="0" stop-color="#fff" stop-opacity=".973"/><stop offset="1" stop-color="#fff" stop-opacity="0"/></radialGradient><path d="M75.8 30.25l.1-.15h.15l1.1.05h.65l.7.15.35.25.05.45-.1.75h-.05L78.7 31l-.1-.4q-.05-.15-.45-.2l-.25-.05h-.15l-1.3-.1-.05.05h-.6v-.05" fill="url(#a)"/><radialGradient id="b" gradientUnits="userSpaceOnUse" gradientTransform="matrix(.0073 0 0 .00739 73.85 30.5)" spreadMethod="pad" cx="0" cy="0" r="819.2" fx="0" fy="0"><stop offset="0" stop-color="#fff" stop-opacity=".973"/><stop offset="1" stop-color="#fff" stop-opacity="0"/></radialGradient><path d="M75.85 30.1h.05l-.1.15v.05h-.9l-1.65.1-.85.3-.1.6-.05.3-.1-.05v-.4l.1-.55.5-.25 1.3-.2h1.2l.55-.05h.05" fill="url(#b)"/><radialGradient id="c" gradientUnits="userSpaceOnUse" gradientTransform="matrix(.00786 0 0 .00797 73.8 30.35)" spreadMethod="pad" cx="0" cy="0" r="819.2" fx="0" fy="0"><stop offset="0" stop-color="#fff" stop-opacity=".973"/><stop offset="1" stop-color="#fff" stop-opacity="0"/></radialGradient><path d="M75.8 30.1h.05-.05" fill="url(#c)"/><radialGradient id="d" gradientUnits="userSpaceOnUse" gradientTransform="matrix(.00462 -.00026 -.00023 -.00545 74.35 32.8)" spreadMethod="pad" cx="0" cy="0" r="819.2" fx="0" fy="0"><stop offset="0" stop-color="#fff" stop-opacity=".973"/><stop offset="1" stop-color="#fff" stop-opacity="0"/></radialGradient><path d="M72.1 32.55q.35 1 .75 1.4l.35.4h.05l.05.05.7.15.25.05h.05l.15.05.95.1H74.05l-.5-.1h-.15l-.2-.15-.25-.15-.2-.2-.1-.15-.45-.9-.1-.55" fill="url(#d)"/><radialGradient id="e" gradientUnits="userSpaceOnUse" gradientTransform="matrix(-.00465 -.00005 -.00208 -.00545 75.8 31.65)" spreadMethod="pad" cx="0" cy="0" r="819.2" fx="0" fy="0"><stop offset="0" stop-color="#fff" stop-opacity=".973"/><stop offset="1" stop-color="#fff" stop-opacity="0"/></radialGradient><path d="M79 32.85l-.2.7-.3.75-.35.25-.35.1-1.2.1.65-.15.3-.05.15-.05.35-.15.4-.4.3-.65.15-.95.1.5" fill="url(#e)"/><path d="M61.6 31.9h.2l.15.75q.1 1.4 1.25 1.7l.15.05 1.15.05h1.15l1.2-.15.6-.2.2-.25.2-.2-.05.1.05-.1.2-.3.1-.15.1-.15-.3.45.4-.8-.05.1.1-.25.05-.3.05-.25v-.35l.05-.05V31.45l.05-.1v.1h.05l.15-.2.05-.05.1-.05H69l.55-.05h1.1v.2H69.2l-.35.1-.05.1-.05.25-.05.2-.1.6-.05.35-.45 1-.05.1-.35.35-.15.15-.85.25-.6.05-1.25.05h-.1l-1-.05-.5-.05-.55-.1-.55-.35-.4-.65-.2-.95.05-.8m.15.15q-.15 1.1 0 1.45l.3.55.45.4 1.2.25h2.2q1.35-.05 1.7-.4l.1-.05.35-.5.25-.5-.45.6-.2.25q-.1 0-.2.15l-.95.3h-.05l-1.65.05h-1.2l-.1-.05q-1.5-.2-1.65-1.55v-.7l-.1-.25m6.7.6l-.05.05h.05v-.05" fill="#93968d"/><path d="M61.45 32.35h-.75v-.3h.75v.3" fill="#a8ada7"/><path d="M61.45 32.05h-.75v-.15h.75v.15" fill="#e0e6de"/><path d="M61.85 32.3v.7q.15 1.35 1.65 1.55l.1.05h1.2l1.65-.05h.05l.95-.3q.1-.15.2-.15l.2-.25.45-.6-.25.5-.35.5-.1.05q-.35.35-1.7.4h-2.2l-1.2-.25-.45-.4-.3-.55q-.15-.35 0-1.45l.1.25m6.6.4h-.05l.05-.05v.05" fill="#c1c8c0"/><path d="M69.8 31.45h-.15l-.3.05-.2.15h-.05l-.1.1-.05.2v.1l-.05.05v.1l-.05.25-.15.6-.05.15-.15.25-.15.35-.2.3-.2.2-.15.15-.05.05q-.35.3-1.05.4l-1.95.05-1.3-.05-.6-.1-.45-.2-.55-.6q-.35-.45-.4-1.6v-.5H61.6l-.05.8.2.95.4.65.55.35.55.1.5.05 1 .05h.1l1.25-.05.6-.05.85-.25.15-.15.35-.35.05-.1.45-1 .05-.35.1-.6.05-.2.05-.25.05-.1.35-.1h1.45v.2l-.85-.05" fill="#61615f"/><path d="M70.65 31.5v.1H69.25l-.1.05.2-.15.3-.05h.15l.85.05" fill="#8d928b"/><path d="M61.65 31.9h-.1l.05-1 .05-.3.1-.25.55-.2 2.5-.1 2.85.15.9.3.15.6.1.15-.15.2h-.05V31.3l-.15-.65-.9-.3-2.75-.15-2.5.1q-.4.1-.45.25l-.05.15-.05.3v.9h-.1" fill-opacity=".251"/><radialGradient id="f" gradientUnits="userSpaceOnUse" gradientTransform="matrix(-.00714 -.00006 0 .00705 63.05 30.55)" spreadMethod="pad" cx="0" cy="0" r="819.2" fx="0" fy="0"><stop offset="0" stop-color="#fff" stop-opacity=".973"/><stop offset="1" stop-color="#fff" stop-opacity="0"/></radialGradient><path d="M64.8 30.25l-.1-.15h-.15l-1.1.05h-.65l-.7.15-.35.25-.05.45.1.75h.05l.05-.75.1-.4q.05-.15.45-.2l.25-.05h.15l1.3-.1.05.05h.6v-.05" fill="url(#f)"/><radialGradient id="g" gradientUnits="userSpaceOnUse" gradientTransform="matrix(-.0073 0 0 .00739 66.75 30.5)" spreadMethod="pad" cx="0" cy="0" r="819.2" fx="0" fy="0"><stop offset="0" stop-color="#fff" stop-opacity=".973"/><stop offset="1" stop-color="#fff" stop-opacity="0"/></radialGradient><path d="M64.75 30.1h-.05l.1.15v.05h.9l1.65.1.85.3.1.6.05.3.1-.05v-.4l-.1-.55-.5-.25-1.3-.2h-1.2l-.55-.05h-.05" fill="url(#g)"/><radialGradient id="h" gradientUnits="userSpaceOnUse" gradientTransform="matrix(-.00786 0 0 .00797 66.8 30.35)" spreadMethod="pad" cx="0" cy="0" r="819.2" fx="0" fy="0"><stop offset="0" stop-color="#fff" stop-opacity=".973"/><stop offset="1" stop-color="#fff" stop-opacity="0"/></radialGradient><path d="M64.8 30.1h-.05.05" fill="url(#h)"/><radialGradient id="i" gradientUnits="userSpaceOnUse" gradientTransform="matrix(-.00462 -.00026 .00023 -.00545 66.25 32.8)" spreadMethod="pad" cx="0" cy="0" r="819.2" fx="0" fy="0"><stop offset="0" stop-color="#fff" stop-opacity=".973"/><stop offset="1" stop-color="#fff" stop-opacity="0"/></radialGradient><path d="M68.5 32.55l-.75 1.4-.35.4h-.05l-.05.05-.7.15-.25.05h-.05l-.15.05-.95.1H66.55l.5-.1h.15l.2-.15.25-.15.2-.2.1-.15.45-.9.1-.55" fill="url(#i)"/><radialGradient id="j" gradientUnits="userSpaceOnUse" gradientTransform="matrix(.00465 -.00005 .00208 -.00545 64.8 31.65)" spreadMethod="pad" cx="0" cy="0" r="819.2" fx="0" fy="0"><stop offset="0" stop-color="#fff" stop-opacity=".973"/><stop offset="1" stop-color="#fff" stop-opacity="0"/></radialGradient><path d="M61.6 32.85l.2.7.3.75.35.25.35.1 1.2.1-.65-.15-.3-.05-.15-.05-.35-.15-.4-.4-.3-.65-.15-.95-.1.5" fill="url(#j)"/></g></svg>