<svg xmlns="http://www.w3.org/2000/svg" width="20" height="7"><g transform="translate(-60.2 -28.65)"><linearGradient id="a" gradientUnits="userSpaceOnUse" gradientTransform="matrix(.0017 .0001 -.00005 .00063 70.35 31.9)" x1="-819.2" x2="819.2"><stop offset="0" stop-color="#9e6c5e" stop-opacity=".651"/><stop offset=".243" stop-color="#c7846f" stop-opacity=".451"/><stop offset="1" stop-color="#9c4d44" stop-opacity=".514"/></linearGradient><path d="M71.35 32.35L71 32q-.3-.45-.95-.45-.75 0-1.05.35l-.35.4q.05-.9 1.35-.95 1.2 0 1.6 1.1l-.25-.1" fill="url(#a)"/><linearGradient id="b" gradientUnits="userSpaceOnUse" gradientTransform="matrix(.00485 -.0012 .00029 .00114 65.5 33.6)" x1="-819.2" x2="819.2"><stop offset="0" stop-color="#e0a496" stop-opacity=".09"/><stop offset=".565" stop-color="#e3bbb1" stop-opacity=".231"/><stop offset="1" stop-color="#cc8f76" stop-opacity=".412"/></linearGradient><path d="M64.05 33.15l2.65-.05q1.2-.15 1.95-.8l-.2.55-1.15 1q-.95.6-4.7 1.45.15-1.55.6-1.9l.85-.25" fill="url(#b)"/><linearGradient id="c" gradientUnits="userSpaceOnUse" gradientTransform="matrix(-.00473 -.00067 .00018 -.00125 73.55 33.75)" x1="-819.2" x2="819.2"><stop offset="0" stop-color="#e0a496" stop-opacity=".09"/><stop offset=".565" stop-color="#e3bbb1" stop-opacity=".231"/><stop offset="1" stop-color="#cc8f76" stop-opacity=".412"/></linearGradient><path d="M71.6 32.45q.5.5 1.65.65l2.7.05.8.25q.5.35.65 1.9-3.75-.85-4.7-1.45-1-.6-1.2-1l-.15-.5.25.1" fill="url(#c)"/><linearGradient id="d" gradientUnits="userSpaceOnUse" gradientTransform="matrix(.00157 .00003 0 .00018 70 31)" x1="-819.2" x2="819.2"><stop offset=".129" stop-color="#b49670"/><stop offset=".396" stop-color="#e6d0b8"/><stop offset=".494" stop-color="#f6f7fb"/><stop offset=".659" stop-color="#8e704e"/><stop offset=".902" stop-color="#e6c19a"/><stop offset=".976" stop-color="#ab8e6c"/></linearGradient><path d="M71.45 30.9l.05.1h.05l-.05.1h-.1l-2.5-.05-.1-.05-.05-.05.05-.05.05-.05 2.55.05h.05" fill="url(#d)"/><path d="M71.9 31.4l.15.1-.05.05-.1-.1v-.05" fill="#fff"/><path d="M71.6 31.1h-.1l-.1.1-.05.15.2.5.45.65-.1-.05q-.35-.15-.65-1.15l.3-.25.05.05" fill="#ccae93"/><linearGradient id="e" gradientUnits="userSpaceOnUse" gradientTransform="matrix(-.00058 .0001 .00008 .00043 71.7 31.7)" x1="-819.2" x2="819.2"><stop offset="0" stop-color="#d19f7a" stop-opacity=".8"/><stop offset=".988" stop-color="#fff1d9" stop-opacity=".522"/></linearGradient><path d="M71.55 31.85l-.2-.5.05-.15.1-.1h.1l.05.1.15.2-.05.05v.1l.1.25.25-.1.15.55-.05.2-.15.1-.05-.05-.45-.65" fill="url(#e)"/><path d="M72.2 32.45l.05-.2-.15-.55.1-.1.1.4v.3l-.2.25h-.05l.15-.1" fill="#ccaf9b"/><path d="M71.55 31.05l.1-.05.15.15.1.15-.1.1-.15-.2-.05-.1-.05-.05" fill="#a68470"/><path d="M71.9 31.3l.1-.05q.1 0 .2.15l.05.15-.1.05-.05.05-.2.05-.15-.15v-.1l.05-.05.1-.1m.1.35l.05-.05.05-.15q0-.1-.15-.1l-.1.05.1.25H72" fill="#6d5235"/><path d="M72.1 31.7l-.25.1-.1-.25.15.15.2-.05.05-.05.1-.05-.05.05-.1.1" fill="#8a7567"/><path d="M71.9 31.45l.1.1.05-.05-.15-.1v.05m.05.2l-.1-.25.1-.05q.15 0 .15.1l-.05.15-.05.05h-.05" fill="#99795a"/><linearGradient id="f" gradientUnits="userSpaceOnUse" gradientTransform="matrix(.00195 .00258 .00188 -.00143 75.25 31.35)" x1="-819.2" x2="819.2"><stop offset="0" stop-color="#c38c6d" stop-opacity=".263"/><stop offset=".176" stop-color="#fcf8f9" stop-opacity=".588"/><stop offset=".396" stop-color="#fff"/><stop offset=".792" stop-color="#ffd3c7" stop-opacity=".4"/><stop offset="1" stop-color="#fff1e5" stop-opacity=".682"/></linearGradient><path d="M73.1 32.9l-1.3-.7-.2-.45q-.25-1.1.45-1.4 1.7-.8 4.2-.65 1.35.1 1.4.5l.1.7q0 1.3-.75 1.75l-3.9.25m3.8-.35q.7-.45.7-1.65l-.1-.6q-.05-.35-1.3-.45-2.45-.15-4.1.6-.65.25-.4 1.25l.2.4 1.2.65 3.8-.2" fill="url(#f)"/><linearGradient id="g" gradientUnits="userSpaceOnUse" gradientTransform="matrix(-.00287 .00053 .00026 .0014 74.4 30.8)" x1="-819.2" x2="819.2"><stop offset="0" stop-color="#fdd1bb"/><stop offset=".4" stop-color="#fee7de"/><stop offset=".663" stop-color="#f7e5f3"/><stop offset=".792" stop-color="#ffede5"/><stop offset="1" stop-color="#fdd7c5"/></linearGradient><path d="M77.75 31.35h-.05v-.65l-.05-.3-.5-.45-1.75-.25-2.5.35q-1.25.35-1.3.75l-.05.45q.05.6.25.85h-.15l-.2-.9v-.55q.3-.45 1.4-.75l2.55-.3 1.95.3q.6.35.5.85l-.1.6" fill="url(#g)"/><path d="M78.2 30.5l.1.05-.35.05-.25-.05.05-.05h.45" fill="#b4a9a3"/><path d="M78.95 30.45l.1-.1.1-.05-.1.15-.1.1v-.1m-.2.15l.1-.1v.05l-.05.05-.05.05v-.05" fill="#c3bfb3"/><path d="M78.95 30.55l-.2.15v-.05l.05-.05.05-.05v-.05l.1-.05v.1" fill="#857367"/><path d="M78.75 30.65v.05h-.15l-.8.1h-.1l-.05-.15v-.2h.65v.2h.25l.05-.05v.05l.15-.05v.05m-.4-.25h.05-.05m-.6.1l-.05.05.25.05.35-.05-.1-.05h-.45" fill="#795d36"/><linearGradient id="h" gradientUnits="userSpaceOnUse" gradientTransform="matrix(-.0011 .0011 -.00017 -.00017 79.45 29.55)" x1="-819.2" x2="819.2"><stop offset="0" stop-color="#5d5d55"/><stop offset=".188" stop-color="#e3e0db"/><stop offset=".69" stop-color="#f8e9d4"/><stop offset="1" stop-color="#826b42"/></linearGradient><path d="M79.05 30.35l-.1.1-.1.05-.1.1-.15.05v-.1l.05-.1.05-.05.05-.05.1-.1.45-.35.9-1.25V28.8l-.2.4-.65.85-.2.25-.1.05" fill="url(#h)"/><path d="M78.4 30.4l.95-.65.7-1 .1-.1h.05l-.9 1.25-.45.35-.1.1-.05.05-.05.05-.05.1v.05l-.05.05h-.25v-.2l.05-.05h.05" fill="#b39a72"/><path d="M68.55 31.4l-.15.1.05.05.1-.1v-.05" fill="#fff"/><path d="M68.85 31.1h.1l.1.1.05.15-.2.5-.45.65.1-.05.65-1.15q0-.2-.3-.25l-.05.05" fill="#ccae93"/><linearGradient id="i" gradientUnits="userSpaceOnUse" gradientTransform="matrix(.00058 .0001 -.00008 .00043 68.75 31.7)" x1="-819.2" x2="819.2"><stop offset="0" stop-color="#d19f7a" stop-opacity=".8"/><stop offset=".988" stop-color="#fff1d9" stop-opacity=".522"/></linearGradient><path d="M68.9 31.85l.2-.5-.05-.15-.1-.1h-.1l-.05.1-.15.2.05.05v.1l-.1.25-.25-.1-.15.55.05.2.15.1.05-.05.45-.65" fill="url(#i)"/><path d="M68.25 32.45l-.05-.2.15-.55-.1-.1-.1.4v.3l.2.25h.05l-.15-.1" fill="#ccaf9b"/><path d="M68.9 31.05l-.1-.05-.15.15-.1.15.1.1.15-.2.05-.1.05-.05" fill="#a68470"/><path d="M68.55 31.3l-.1-.05-.2.15-.05.15.1.05.05.05.2.05.15-.15v-.1l-.05-.05-.1-.1m-.1.35l-.05-.05-.05-.15q0-.1.15-.1l.1.05-.1.25h-.05" fill="#6d5235"/><path d="M68.35 31.7l.25.1.1-.25-.15.15-.2-.05-.05-.05-.1-.05.05.05.1.1" fill="#8a7567"/><path d="M68.55 31.45l-.1.1-.05-.05.15-.1v.05m-.05.2l.1-.25-.1-.05q-.15 0-.15.1l.05.15.05.05h.05" fill="#99795a"/><linearGradient id="j" gradientUnits="userSpaceOnUse" gradientTransform="matrix(-.00195 .00258 -.00188 -.00143 65.2 31.35)" x1="-819.2" x2="819.2"><stop offset="0" stop-color="#c38c6d" stop-opacity=".263"/><stop offset=".176" stop-color="#fcf8f9" stop-opacity=".588"/><stop offset=".396" stop-color="#fff"/><stop offset=".792" stop-color="#ffd3c7" stop-opacity=".4"/><stop offset="1" stop-color="#fff1e5" stop-opacity=".682"/></linearGradient><path d="M67.35 32.9q1.05-.2 1.3-.7l.2-.45q.25-1.1-.45-1.4-1.7-.8-4.2-.65-1.35.1-1.4.5l-.1.7q0 1.3.75 1.75l3.9.25m-3.8-.35q-.7-.45-.7-1.65l.1-.6q.05-.35 1.3-.45 2.45-.15 4.1.6.65.25.4 1.25l-.2.4q-.2.45-1.2.65l-3.8-.2" fill="url(#j)"/><linearGradient id="k" gradientUnits="userSpaceOnUse" gradientTransform="matrix(.00287 .00053 -.00026 .0014 66.05 30.8)" x1="-819.2" x2="819.2"><stop offset="0" stop-color="#fdd1bb"/><stop offset=".4" stop-color="#fee7de"/><stop offset=".663" stop-color="#f7e5f3"/><stop offset=".792" stop-color="#ffede5"/><stop offset="1" stop-color="#fdd7c5"/></linearGradient><path d="M62.7 31.35h.05v-.65l.05-.3q0-.25.5-.45l1.75-.25 2.5.35q1.25.35 1.3.75l.05.45-.25.85h.15l.2-.9v-.55q-.3-.45-1.4-.75l-2.55-.3-1.95.3q-.6.35-.5.85l.1.6" fill="url(#k)"/><path d="M62.25 30.5l-.1.05.35.05.25-.05-.05-.05h-.45" fill="#b4a9a3"/><path d="M61.5 30.45l-.1-.1-.1-.05.1.15.1.1v-.1m.2.15l-.1-.1v.05l.05.05.05.05v-.05" fill="#c3bfb3"/><path d="M61.5 30.55l.2.15v-.05l-.05-.05-.05-.05v-.05l-.1-.05v.1" fill="#857367"/><path d="M61.7 30.65v.05h.15l.8.1h.1l.05-.15v-.2h-.65v.2h-.25l-.05-.05v.05l-.15-.05v.05m.4-.25h-.05.05m.6.1l.05.05-.25.05-.35-.05.1-.05h.45" fill="#795d36"/><linearGradient id="l" gradientUnits="userSpaceOnUse" gradientTransform="matrix(.0011 .0011 .00017 -.00017 61 29.55)" x1="-819.2" x2="819.2"><stop offset="0" stop-color="#5d5d55"/><stop offset=".188" stop-color="#e3e0db"/><stop offset=".69" stop-color="#f8e9d4"/><stop offset="1" stop-color="#826b42"/></linearGradient><path d="M61.4 30.35l.1.1.1.05.1.1.15.05v-.1l-.05-.1-.05-.05-.05-.05-.1-.1-.45-.35-.9-1.25V28.8l.2.4.65.85.2.25.1.05" fill="url(#l)"/><path d="M62.05 30.4l-.95-.65-.7-1-.1-.1h-.05l.9 1.25.45.35.1.1.05.05.05.05.05.1v.05l.05.05h.25v-.2l-.05-.05h-.05" fill="#b39a72"/><linearGradient id="m" gradientUnits="userSpaceOnUse" gradientTransform="matrix(.00015 .00233 -.00069 .00005 64.9 30.65)" x1="-819.2" x2="819.2"><stop offset="0" stop-color="#fff"/><stop offset="1" stop-color="#fff" stop-opacity="0"/></linearGradient><path d="M64.5 32.75l-.45-2.85 1.1.05.15 2.85-.8-.05" fill="url(#m)"/><linearGradient id="n" gradientUnits="userSpaceOnUse" gradientTransform="matrix(.0002 .00237 -.00063 .00005 65.6 30.7)" x1="-819.2" x2="819.2"><stop offset="0" stop-color="#fff" stop-opacity=".533"/><stop offset="1" stop-color="#fff" stop-opacity="0"/></linearGradient><path d="M66.1 30.05l.1 2.75h-.9l-.15-2.85.95.1" fill="url(#n)"/><linearGradient id="o" gradientUnits="userSpaceOnUse" gradientTransform="matrix(.0002 .00237 -.00063 .00005 73.85 30.75)" x1="-819.2" x2="819.2"><stop offset="0" stop-color="#fff" stop-opacity=".533"/><stop offset="1" stop-color="#fff" stop-opacity="0"/></linearGradient><path d="M73.4 30.05V30h.05l.9.1.1 2.75h-.9l-.15-2.8" fill="url(#o)"/><linearGradient id="p" gradientUnits="userSpaceOnUse" gradientTransform="matrix(.00015 .00233 -.00069 .00005 73.15 30.65)" x1="-819.2" x2="819.2"><stop offset="0" stop-color="#fff"/><stop offset="1" stop-color="#fff" stop-opacity="0"/></linearGradient><path d="M73.4 30.05l.15 2.8-.8-.05-.4-2.45 1.05-.3" fill="url(#p)"/></g></svg>