<svg xmlns="http://www.w3.org/2000/svg" width="21" height="5"><g transform="translate(-60.15 -29.25)"><linearGradient id="a" gradientUnits="userSpaceOnUse" gradientTransform="matrix(.00174 .00003 0 .00027 69.95 30.7)" x1="-819.2" x2="819.2"><stop offset="0" stop-color="#3d2b29"/><stop offset=".267" stop-color="#9a8172"/><stop offset=".447" stop-color="#fff"/><stop offset=".647" stop-color="#b89c8b"/><stop offset="1" stop-color="#44342b"/></linearGradient><path d="M69.85 30.5l1.5.1.05.35-2-.15-.6.1-.1-.2-.15-.25 1.3.05" fill="url(#a)"/><path d="M68.35 32.2l-.3-.25.35-.45.1-.45.05-.15.05.35v.2l-.25.75" fill="#453129"/><linearGradient id="b" gradientUnits="userSpaceOnUse" gradientTransform="matrix(.00012 .00073 -.00375 .00046 63.15 31.3)" x1="-819.2" x2="819.2"><stop offset="0" stop-color="#3d2b29"/><stop offset=".267" stop-color="#9a8172"/><stop offset=".447" stop-color="#fff"/><stop offset=".647" stop-color="#b89c8b"/><stop offset="1" stop-color="#44342b"/></linearGradient><path d="M62.3 31.05l-.15.05-.15.15-.05-.05.1-.4.4-.1-.1.3v.05h-.05" fill="url(#b)"/><radialGradient id="c" gradientUnits="userSpaceOnUse" gradientTransform="matrix(.00471 0 0 .00375 67.05 33.7)" spreadMethod="pad" cx="0" cy="0" r="819.2" fx="32" fy="0"><stop offset="0" stop-color="#fff" stop-opacity=".792"/><stop offset="1" stop-color="#fff" stop-opacity="0"/></radialGradient><path d="M68.55 30.9l-.05.15-.1.45-.35.45.3.25-.05.15-.1.2-.15.25q-.6.65-1.95.75l-.1.05-2.45-.3q-.9-.35-1.2-1.4V31l.1-.3.05-.1.2-.2.65-.4 1.85-.25 2.05.25q.8.2 1.05.5l.2.3.05.1" fill="url(#c)"/><linearGradient id="d" gradientUnits="userSpaceOnUse" gradientTransform="matrix(-.00053 -.00003 .00002 -.00053 61.5 31.2)" x1="-819.2" x2="819.2"><stop offset="0" stop-color="#3d2b29"/><stop offset=".267" stop-color="#9a8172"/><stop offset=".447" stop-color="#fff"/><stop offset=".647" stop-color="#b89c8b"/><stop offset="1" stop-color="#44342b"/></linearGradient><path d="M61.25 31.2q-.4.05-1.1.8v-.6l.9-.55 1-.05-.1.4h-.7" fill="url(#d)"/><linearGradient id="e" gradientUnits="userSpaceOnUse" gradientTransform="matrix(.004 -.00005 .00005 .0012 65.55 30.45)" x1="-819.2" x2="819.2"><stop offset="0" stop-color="#3d2b29"/><stop offset=".267" stop-color="#9a8172"/><stop offset=".447" stop-color="#fff"/><stop offset=".647" stop-color="#b89c8b"/><stop offset="1" stop-color="#44342b"/></linearGradient><path d="M68.6 31.25l-.05-.35-.05-.1-.1-.5.15.15.05.1.05.05.1.2.05.15V31l.05.4-.15.05h-.1v-.2" fill="url(#e)"/><linearGradient id="f" gradientUnits="userSpaceOnUse" gradientTransform="matrix(.00182 -.00002 .00006 .00142 67.4 32.6)" x1="-819.2" x2="819.2"><stop offset="0" stop-color="#3d2b29"/><stop offset=".647" stop-color="#b89c8b"/><stop offset="1" stop-color="#44342b"/></linearGradient><path d="M68.6 31.45h.1l-.4.9.05-.15.25-.75" fill="url(#f)"/><linearGradient id="g" gradientUnits="userSpaceOnUse" gradientTransform="matrix(.004 -.00005 .00005 .0012 65.55 30.45)" x1="-819.2" x2="819.2"><stop offset="0" stop-color="#858585" stop-opacity="0"/><stop offset=".447" stop-color="#fff"/><stop offset="1" stop-color="#98a8a6" stop-opacity="0"/></linearGradient><path d="M62.05 30.8l.2-.35q.4-.5 1.3-.85h.05l.5-.05.6-.05 1.25.05 1.85.35.6.4.1.5-.2-.3q-.25-.3-1.05-.5l-2.05-.25-1.85.25-.65.4-.2.2-.05.1-.4.1" fill="url(#g)"/><linearGradient id="h" gradientUnits="userSpaceOnUse" gradientTransform="matrix(.00182 -.00002 .00006 .00142 67.4 32.6)" x1="-819.2" x2="819.2"><stop offset="0" stop-color="#858585" stop-opacity=".102"/><stop offset=".447" stop-color="#fff"/><stop offset="1" stop-color="#98a8a6" stop-opacity="0"/></linearGradient><path d="M68.7 31.45l.15-.05-.25.85-.95 1.15-1.4.35-.25.05v-.2l.1-.05q1.35-.1 1.95-.75l.15-.25.1-.2.4-.9" fill="url(#h)"/><linearGradient id="i" gradientUnits="userSpaceOnUse" gradientTransform="matrix(.00012 .00073 -.00375 .00046 63.15 31.3)" x1="-819.2" x2="819.2"><stop offset="0" stop-color="#848484"/><stop offset=".447" stop-color="#fff"/><stop offset="1" stop-color="#98a8a6" stop-opacity=".102"/></linearGradient><path d="M66 33.8h-1.45q-.85-.05-1.7-.65-.8-.55-.85-1.75v-.15l.15-.15.15-.05h.05v.85q.3 1.05 1.2 1.4l2.45.3v.2" fill="url(#i)"/><path d="M71.55 31.3l.1.1.05.1-.15.5h-.05v-.05l-.15-.35-.05-.15-.1-.25v-.3.1-.1l.1-.4.25.8" fill="#453129"/><linearGradient id="j" gradientUnits="userSpaceOnUse" gradientTransform="matrix(.00053 -.00003 -.00005 -.00053 78.3 30.95)" x1="-819.2" x2="819.2"><stop offset="0" stop-color="#3d2b29"/><stop offset=".267" stop-color="#9a8172"/><stop offset=".447" stop-color="#fff"/><stop offset=".647" stop-color="#b89c8b"/><stop offset="1" stop-color="#44342b"/></linearGradient><path d="M77.75 30.55l.45-.1.55.05 1.5.55q.15.45-.05.5l-1.4-.65-.95.05-.1-.4" fill="url(#j)"/><linearGradient id="k" gradientUnits="userSpaceOnUse" gradientTransform="matrix(-.00008 .00073 .00378 .00043 76.7 31.05)" x1="-819.2" x2="819.2"><stop offset="0" stop-color="#858585" stop-opacity=".714"/><stop offset=".447" stop-color="#fff"/><stop offset="1" stop-color="#98a8a6" stop-opacity=".102"/></linearGradient><path d="M77.85 31v.1q0 1.2-.8 1.8-.75.6-1.6.65H74v-.2l2.4-.3q.9-.4 1.1-1.4l.05-.7.3.05" fill="url(#k)"/><linearGradient id="l" gradientUnits="userSpaceOnUse" gradientTransform="matrix(-.00008 .00073 .00378 .00043 76.7 31.05)" x1="-819.2" x2="819.2"><stop offset="0" stop-color="#3d2b29"/><stop offset=".267" stop-color="#9a8172"/><stop offset=".447" stop-color="#fff"/><stop offset=".647" stop-color="#b89c8b"/><stop offset="1" stop-color="#44342b"/></linearGradient><path d="M77.55 30.95l-.1-.25-.15-.35.2-.2.2.35.05.05.1.4V31l-.3-.05" fill="url(#l)"/><linearGradient id="m" gradientUnits="userSpaceOnUse" gradientTransform="matrix(-.004 -.00002 .00003 .0012 74.25 30.2)" x1="-819.2" x2="819.2"><stop offset="0" stop-color="#858585" stop-opacity=".102"/><stop offset=".447" stop-color="#fff"/><stop offset="1" stop-color="#98a8a6" stop-opacity=".102"/></linearGradient><path d="M77.3 30.35l-.25-.25-.7-.35-1.85-.25-2 .25q-.8.25-1.05.55l-.1.15v-.05l-.05-.25.65-.45q.65-.35 1.8-.4l1.3-.05.55.05.5.05h.1q.9.3 1.3.8l-.2.2" fill="url(#m)"/><linearGradient id="n" gradientUnits="userSpaceOnUse" gradientTransform="matrix(-.004 -.00002 .00003 .0012 74.25 30.2)" x1="-819.2" x2="819.2"><stop offset="0" stop-color="#3d2b29"/><stop offset=".267" stop-color="#9a8172"/><stop offset=".447" stop-color="#fff"/><stop offset=".647" stop-color="#b89c8b"/><stop offset="1" stop-color="#44342b"/></linearGradient><path d="M71 31.2v-.45l.05-.15.15-.3.05-.1.05-.05.05.25v.05l-.05.05-.1.4v.1-.1.3H71" fill="url(#n)"/><linearGradient id="o" gradientUnits="userSpaceOnUse" gradientTransform="matrix(-.00182 0 .00003 .00142 72.5 32.35)" x1="-819.2" x2="819.2"><stop offset="0" stop-color="#3d2b29"/><stop offset=".647" stop-color="#b89c8b"/><stop offset="1" stop-color="#44342b"/></linearGradient><path d="M71.2 31.2l.1.25-.3-.25h.2" fill="url(#o)"/><linearGradient id="p" gradientUnits="userSpaceOnUse" gradientTransform="matrix(-.00182 0 .00003 .00142 72.5 32.35)" x1="-819.2" x2="819.2"><stop offset="0" stop-color="#858585" stop-opacity=".102"/><stop offset=".447" stop-color="#fff"/><stop offset="1" stop-color="#98a8a6" stop-opacity=".643"/></linearGradient><path d="M74 33.55l-.25-.05-1.45-.3-.65-.55-.4-.65-.25-.8.3.25.05.15.15.35V32h.05l.15.35q.55.85 2.2 1h.1v.2" fill="url(#p)"/><radialGradient id="q" gradientUnits="userSpaceOnUse" gradientTransform="matrix(.00285 0 0 .00151 74.3 30.15)" spreadMethod="pad" cx="0" cy="0" r="819.2" fx="32" fy="0"><stop offset="0" stop-color="#fff" stop-opacity=".792"/><stop offset="1" stop-color="#fff" stop-opacity="0"/></radialGradient><path d="M77.45 30.7l.1.25-.05.7q-.2 1-1.1 1.4l-2.4.3h-.1q-1.65-.15-2.2-1l-.15-.35.15-.5-.05-.1-.1-.1-.25-.8.05-.05.1-.15q.25-.3 1.05-.55l2-.25 1.85.25.7.35.25.25.15.35" fill="url(#q)"/></g></svg>