<svg xmlns="http://www.w3.org/2000/svg" width="20" height="6"><g transform="translate(-60.1 -29.65)"><path d="M71.35 32.35h-.05l-.45-.3-.25-.65v-.15l.05-.2h.25l.35.45.3.8-.2.05m-2.8 0h-.05l-.15-.05.3-.8.35-.45h.25v.35l-.2.65-.5.3" fill="#594743"/><path d="M71.15 31.2l.2.35.25.4V32.1l-.05.2-.3-.8-.35-.45.25.15m-2.5.3l-.3.8-.05-.2V31.95l.2-.4.25-.35.25-.15-.35.45" fill="#857471"/><radialGradient id="a" gradientUnits="userSpaceOnUse" gradientTransform="matrix(.01213 0 0 .01027 69.95 31.6)" spreadMethod="pad" cx="0" cy="0" r="819.2" fx="0" fy="0"><stop offset="0" stop-color="#964d39" stop-opacity=".424"/><stop offset="1" stop-color="#964d39" stop-opacity="0"/></radialGradient><path d="M69.05 32.05l.2-.65.6-.1h.2l.55.1.25.65.45.3.3.55q.5.75 1.4.95l3.15.1q1.1-.05 1.65.5l-.25.25-.15.05-1.25-.2H73.2q-.9-.15-1.3-.75l-.95-1.05q-.2-1.05-1-1.05t-1.05 1.05L68 33.8l-1.3.75h-3l-1.2.2-.15-.05-.3-.25q.65-.55 1.65-.5l3.2-.1q.85-.2 1.4-.95l.25-.55.5-.3" fill="url(#a)"/><path d="M62.1 31.5l-1.5.05-.5.3v-.1l.5-.3 1.5-.05v.1" fill="#191820"/><linearGradient id="b" gradientUnits="userSpaceOnUse" gradientTransform="matrix(.00096 0 0 .00055 60.9 31.4)" x1="-819.2" x2="819.2"><stop offset=".055" stop-color="#262d33"/><stop offset=".314" stop-color="#2a353b"/><stop offset=".835" stop-color="#1b1e26"/></linearGradient><path d="M60.1 31.2l.5-.3 1.5-.05v.55l-1.5.05-.5.3v-.55" fill="url(#b)"/><radialGradient id="c" gradientUnits="userSpaceOnUse" gradientTransform="matrix(-.00052 -.00336 .00853 -.00131 65 32.2)" spreadMethod="pad" cx="0" cy="0" r="819.2" fx="0" fy="0"><stop offset=".298" stop-color="#322a27"/><stop offset=".631"/><stop offset=".867" stop-color="#060505"/><stop offset=".918" stop-color="#5a524f"/></radialGradient><path d="M69.15 30.3l.05.85v.05l-.05.1v.15l-.3.8q-.55.95-1.7 1l-2.1.15-1.9-.25-.95-.65-.2-.85v-.2l.05-.65q.05-.45.45-.6l.55-.2 2.1-.35 1.85.05.35.05q.95.1 1.75.45l.05.1m-.25 1.25l.05-1.15-1.35-.5-1.3-.1-.7-.05-.3.05-2.15.35q-.25.05-.4.15-.6.25-.6.75v.05l.05.5.15.75q.2.55.95.7l1.9.15 2.05-.15q.9-.15 1.15-.45l.1-.2.4-.85" fill="url(#c)"/><linearGradient id="d" gradientUnits="userSpaceOnUse" gradientTransform="matrix(.00188 -.00157 .00122 .00145 65.25 31.35)" x1="-819.2" x2="819.2"><stop offset=".031" stop-color="#59514e" stop-opacity=".29"/><stop offset=".259" stop-color="#fff" stop-opacity=".502"/><stop offset=".753" stop-color="#fffcfc" stop-opacity=".263"/><stop offset="1" stop-color="#59514e" stop-opacity=".424"/></linearGradient><path d="M68.5 32.4l.15-.6.05-.05.05-.2q.3-.7.1-1.05-.35-.3-1.3-.45l-1.95-.1-2.35.35-.4.1q-.55.2-.55.7v.05l.05.75-.15-.3-.05-.5v-.05q0-.5.6-.75.15-.1.4-.15l2.15-.35.3-.05.7.05 1.3.1 1.35.5-.05 1.15-.4.85" fill="url(#d)"/><linearGradient id="e" gradientUnits="userSpaceOnUse" gradientTransform="matrix(.00378 0 0 .001 65.35 32.55)" x1="-819.2" x2="819.2"><stop offset=".094" stop-color="#bdbab3" stop-opacity=".29"/><stop offset=".322" stop-color="#fff"/><stop offset=".753" stop-color="#fffdfd"/><stop offset="1" stop-color="#59514e" stop-opacity=".4"/></linearGradient><path d="M68.5 32.4l-.1.2q-.25.3-1.15.45l-2.05.15-1.9-.15q-.75-.15-.95-.7l-.15-.75.15.3.15.4q.15.5.85.6l1.85.15 1.95-.1 1.1-.45.4-.7-.15.6" fill="url(#e)"/><linearGradient id="f" gradientUnits="userSpaceOnUse" gradientTransform="matrix(.00455 -.00015 .00005 .00124 65.85 32.55)" x1="-819.2" x2="819.2"><stop offset=".031" stop-color="#59514e" stop-opacity=".29"/><stop offset=".259" stop-color="#fff" stop-opacity=".314"/><stop offset=".753" stop-color="#fffcfc" stop-opacity=".18"/><stop offset="1" stop-color="#59514e" stop-opacity=".424"/></linearGradient><path d="M68.85 32.4q-.55.95-1.7 1l-2.1.15-1.9-.25-.95-.65-.2-.85v-.15l.2.85.95.65 1.9.25 2.1-.15q1.15-.05 1.7-1l.3-.8-.3.95" fill="url(#f)"/><linearGradient id="g" gradientUnits="userSpaceOnUse" gradientTransform="matrix(-.00082 0 0 -.0006 69.2 30.85)" x1="-819.2" x2="819.2"><stop offset="0" stop-color="#21242b"/><stop offset="1" stop-color="#040305"/></linearGradient><path d="M70 30.4v.2q-.65.05-.8.55l-.05-.85.85.1" fill="url(#g)"/><path d="M70 30.6v.1q-.65.05-.85.6l.05-.1v-.05q.15-.5.8-.55m-.85-.3l-.05-.1.9.05v.15l-.85-.1"/><linearGradient id="h" gradientUnits="userSpaceOnUse" gradientTransform="matrix(0 .00168 -.00072 0 65.4 31.55)" x1="-819.2" x2="819.2"><stop offset=".196" stop-color="#fff" stop-opacity="0"/><stop offset=".525" stop-color="#f5f5ff" stop-opacity=".063"/><stop offset="1" stop-color="#fff" stop-opacity="0"/></linearGradient><path d="M65.2 32l-.15-2.05h.6l.25 2.15.1.85-.2.05-.5.05-.1-1.05" fill="url(#h)"/><linearGradient id="i" gradientUnits="userSpaceOnUse" gradientTransform="matrix(0 .00168 -.00072 0 65.4 31.55)" x1="-819.2" x2="819.2"><stop offset=".196" stop-color="#fff" stop-opacity="0"/><stop offset=".525" stop-color="#f5f5ff" stop-opacity=".2"/><stop offset="1" stop-color="#fff" stop-opacity="0"/></linearGradient><path d="M65.3 33.05H65l-.75-.1h-.05l-.1-.7-.25-2 .55-.15.65-.15.15 2.05.1 1.05" fill="url(#i)"/><path d="M79.4 31.45l-1.5-.05v.1l1.5.05.5.3v-.1l-.5-.3" fill="#191820"/><linearGradient id="j" gradientUnits="userSpaceOnUse" gradientTransform="matrix(-.00096 0 0 .00055 79.1 31.4)" x1="-819.2" x2="819.2"><stop offset=".055" stop-color="#262d33"/><stop offset=".314" stop-color="#2a353b"/><stop offset=".835" stop-color="#1b1e26"/></linearGradient><path d="M79.9 31.75v-.55l-.5-.3-1.5-.05v.55l1.5.05.5.3" fill="url(#j)"/><radialGradient id="k" gradientUnits="userSpaceOnUse" gradientTransform="matrix(.00052 -.00336 -.00853 -.00131 75 32.2)" spreadMethod="pad" cx="0" cy="0" r="819.2" fx="0" fy="0"><stop offset=".298" stop-color="#322a27"/><stop offset=".631"/><stop offset=".867" stop-color="#060505"/><stop offset=".918" stop-color="#5a524f"/></radialGradient><path d="M70.85 30.3l-.05.85v.05l.05.1v.15l.3.8q.55.95 1.7 1l2.1.15 1.9-.25q.75-.2.95-.65l.2-.85v-.2l-.05-.65q-.05-.45-.45-.6l-.55-.2-2.1-.35-1.85.05-.35.05q-.95.1-1.75.45l-.05.1m6.8 2.05q-.2.55-.95.7l-1.9.15-2.05-.15q-.9-.15-1.15-.45l-.1-.2-.4-.85q-.25-.8-.05-1.15.35-.3 1.35-.5l1.3-.1.7-.05.3.05 2.15.35.4.15q.6.25.6.75v.05l-.05.5-.15.75" fill="url(#k)"/><linearGradient id="l" gradientUnits="userSpaceOnUse" gradientTransform="matrix(-.00188 -.00157 -.00122 .00145 74.75 31.35)" x1="-819.2" x2="819.2"><stop offset=".031" stop-color="#59514e" stop-opacity=".29"/><stop offset=".259" stop-color="#fff" stop-opacity=".502"/><stop offset=".753" stop-color="#fffcfc" stop-opacity=".263"/><stop offset="1" stop-color="#59514e" stop-opacity=".424"/></linearGradient><path d="M71.35 31.8l-.05-.05-.05-.2q-.3-.7-.1-1.05.35-.3 1.3-.45l1.95-.1 2.35.35.4.1q.55.2.55.7v.05l-.05.75.15-.3.05-.5v-.05q0-.5-.6-.75l-.4-.15-2.15-.35-.3-.05-.7.05-1.3.1q-1 .2-1.35.5-.2.35.05 1.15l.4.85-.15-.6" fill="url(#l)"/><linearGradient id="m" gradientUnits="userSpaceOnUse" gradientTransform="matrix(-.00378 0 0 .001 74.65 32.55)" x1="-819.2" x2="819.2"><stop offset=".094" stop-color="#bdbab3" stop-opacity=".29"/><stop offset=".322" stop-color="#fff"/><stop offset=".753" stop-color="#fffdfd"/><stop offset="1" stop-color="#59514e" stop-opacity=".4"/></linearGradient><path d="M77.5 32.3q-.15.5-.85.6l-1.85.15-1.95-.1-1.1-.45-.4-.7.15.6.1.2q.25.3 1.15.45l2.05.15 1.9-.15q.75-.15.95-.7l.15-.75-.15.3-.15.4" fill="url(#m)"/><linearGradient id="n" gradientUnits="userSpaceOnUse" gradientTransform="matrix(-.00455 -.00015 -.00005 .00124 74.15 32.55)" x1="-819.2" x2="819.2"><stop offset=".031" stop-color="#59514e" stop-opacity=".29"/><stop offset=".259" stop-color="#fff" stop-opacity=".314"/><stop offset=".753" stop-color="#fffcfc" stop-opacity=".18"/><stop offset="1" stop-color="#59514e" stop-opacity=".424"/></linearGradient><path d="M71.15 32.4q.55.95 1.7 1l2.1.15 1.9-.25q.75-.2.95-.65l.2-.85v-.15l-.2.85q-.2.45-.95.65l-1.9.25-2.1-.15q-1.15-.05-1.7-1l-.3-.8.3.95" fill="url(#n)"/><linearGradient id="o" gradientUnits="userSpaceOnUse" gradientTransform="matrix(.00082 0 0 -.0006 70.8 30.85)" x1="-819.2" x2="819.2"><stop offset="0" stop-color="#21242b"/><stop offset="1" stop-color="#040305"/></linearGradient><path d="M70.8 31.15l.05-.85-.85.1v.2q.65.05.8.55" fill="url(#o)"/><path d="M70 30.6v.1q.65.05.85.6l-.05-.1v-.05q-.15-.5-.8-.55m.85-.3l.05-.1-.9.05v.15l.85-.1"/><linearGradient id="p" gradientUnits="userSpaceOnUse" gradientTransform="matrix(0 .00168 .00072 0 74.6 31.55)" x1="-819.2" x2="819.2"><stop offset=".196" stop-color="#fff" stop-opacity="0"/><stop offset=".525" stop-color="#f5f5ff" stop-opacity=".063"/><stop offset="1" stop-color="#fff" stop-opacity="0"/></linearGradient><path d="M74.8 32l.15-2.05h-.6l-.25 2.15-.1.85.2.05.5.05.1-1.05" fill="url(#p)"/><linearGradient id="q" gradientUnits="userSpaceOnUse" gradientTransform="matrix(0 .00168 .00072 0 74.6 31.55)" x1="-819.2" x2="819.2"><stop offset=".196" stop-color="#fff" stop-opacity="0"/><stop offset=".525" stop-color="#f5f5ff" stop-opacity=".2"/><stop offset="1" stop-color="#fff" stop-opacity="0"/></linearGradient><path d="M74.7 33.05h.3l.75-.1h.05l.1-.7.25-2-.55-.15-.65-.15L74.8 32l-.1 1.05" fill="url(#q)"/></g></svg>