<svg xmlns="http://www.w3.org/2000/svg" width="21" height="5"><g transform="translate(-60.25 -29.85)"><path d="M74.35 33.2q-1.4 0-2-1.35l.1-.15.65.45 1.95 1.05h-.7" fill="#fff" fill-opacity=".192"/><path d="M71.6 31.25l.25-.05.1-.15V31l.05.1-.05.15v.1h-.3l-.05-.1" fill="#2f2023"/><path d="M71.95 31.25l.05-.15.15-.05.2.05.05.15-.05.15-.2.1-.15-.1-.05-.05v-.1m.3 0l-.1-.1-.1.05-.1.15.3-.1" fill="#755b5a"/><path d="M71.95 31.35l.1-.15.1-.05.1.1-.3.1m-.35-.2l.3-.15.05.05-.1.15-.25.05v-.1" fill="#e8f0f3"/><path d="M71.8 32.4l-.05-.05-.15.2-.1-.15-.1-.2.15-.45-.1-.3v-.1l-.05-.15v-.1l.15-.2h.05v.35l.05.1v.15l.2.4.15.2-.05.25-.15.05m-.25-.15h.15l.1-.2V32l-.15-.05-.1.15v.15" fill="#706466"/><path d="M71.7 32.95h-.1l-.25-.3.05-.05.05-.05-.15-.5v-.6h.15l.1.3-.15.45.1.2.1.15.15-.2.05.05.05.3-.15.25" fill="#e49e6a"/><path d="M71.3 32.05l.15.5-.05.05-.05.05-.2-.55-.05-.3.2-.35v.6" fill="#954628"/><path d="M71.55 32.1l.1-.15.15.05v.05l-.1.2h-.15v-.15" fill="#d2d0db"/><path d="M71.7 32.95l.15-.25-.05-.3.15-.05-.05.45-.05.05-.15.1" fill="#ba8a73"/><path d="M80.1 31.05l-.4.35-.1-.05h-.05l.8-.75v.05l-.25.4" fill="#c2adb4"/><path d="M79.1 31.65l-.05.05h-.75l-.05-.1h.9l-.05.05" fill="#a58a79"/><path d="M79.5 31.65l-.15.1h-.1l.3-.25-.05.15" fill="#b9c8cf"/><path d="M78.3 31.7h.75v.15h-.8l.05-.15" fill="#2a060a"/><path d="M80.35 30.65l.05.2-.65.7-.05-.1v-.05l.4-.35.25-.4" fill="#775a52"/><path d="M78.2 31.7l-.35-.15H78l.2.1v.05m-.6-.2l.15.15-.05.05-.1-.05v-.15" fill="#faf8f9"/><path d="M77.65 31.45h-.05l-.1.2h-.05l-.1-.2.05-.1.2-.1.15.25-.1-.05" fill="#9d6f62"/><radialGradient id="a" gradientUnits="userSpaceOnUse" gradientTransform="matrix(-.00047 0 0 .00049 79.35 31.4)" spreadMethod="pad" cx="0" cy="0" r="819.2" fx="0" fy="0"><stop offset="0" stop-color="#ebcbc0"/><stop offset="1" stop-color="#1b111a"/></radialGradient><path d="M79.05 31.7l.05-.05.05-.05.15-.15.25-.1h.05l.1.05v.05l.05.1-.05.1-.2.15-.25.1-.2-.05v-.15m.5-.2l-.3.25h.1l.15-.1.05-.15" fill="url(#a)"/><linearGradient id="b" gradientUnits="userSpaceOnUse" gradientTransform="matrix(-.00209 -.00105 -.0001 .00023 76.45 30.45)" x1="-819.2" x2="819.2"><stop offset="0" stop-color="#e2b7a4" stop-opacity=".263"/><stop offset=".114" stop-color="#fff"/><stop offset=".208" stop-color="#ffdfd7" stop-opacity=".565"/><stop offset=".808" stop-color="#ffd3c7" stop-opacity=".4"/><stop offset="1" stop-color="#fff1e5" stop-opacity=".682"/></linearGradient><path d="M78.15 31.5l-.05-.05-.2-.45-.05-.1-.1-.1q-.75-1.05-4.1-.75-1.55.15-2.05.95v-.1h-.05l.55-.6q1.15-.5 3.1-.45 1.95 0 2.45.55l.3.35.15.3.15.55-.1-.1" fill="url(#b)"/><radialGradient id="c" gradientUnits="userSpaceOnUse" gradientTransform="matrix(-.00089 0 0 .00049 77.8 31.45)" spreadMethod="pad" cx="0" cy="0" r="819.2" fx="0" fy="0"><stop offset="0" stop-color="#aaaeaf"/><stop offset="1" stop-color="#45494c"/></radialGradient><path d="M78.25 31.85h-.2l-.2-.05-.3.05-.05-.15v-.05l.1-.2h.05l.1.05.15-.05h.2l.05.05.1.1.05.1-.05.15m-.05-.2l-.2-.1h-.15l.35.15v-.05m-.6 0l.1.05.05-.05-.15-.15v.15" fill="url(#c)"/><linearGradient id="d" gradientUnits="userSpaceOnUse" gradientTransform="matrix(.0022 -.00008 .00003 .0007 74.1 30.6)" x1="-819.2" x2="819.2"><stop offset="0" stop-color="#c49c90" stop-opacity=".263"/><stop offset=".518" stop-color="#936d64" stop-opacity=".565"/><stop offset=".925" stop-color="#99726b" stop-opacity=".4"/></linearGradient><path d="M77.75 30.9q-.75-1.05-4.1-.75-1.55.15-2.05.95V31q.5-.8 2.05-.95 3.35-.3 4.1.75l.1.1.05.1-.15-.1" fill="url(#d)"/><linearGradient id="e" gradientUnits="userSpaceOnUse" gradientTransform="matrix(-.00447 -.0001 -.00002 .00117 74.25 32.7)" x1="-819.2" x2="819.2"><stop offset="0" stop-color="#c38c6d" stop-opacity=".263"/><stop offset=".176" stop-color="#fcf8f9" stop-opacity=".588"/><stop offset=".506" stop-color="#fff"/><stop offset=".792" stop-color="#ffd3c7" stop-opacity=".4"/><stop offset="1" stop-color="#fff1e5" stop-opacity=".682"/></linearGradient><path d="M78.25 31.85q-.25 1-.85 1.45-.55.4-1.7.4l-2.3-.15q-1.15-.2-1.7-.6l.15-.1 1.6.5 2.2.2 1.7-.45.7-1.25h.2" fill="url(#e)"/><linearGradient id="f" gradientUnits="userSpaceOnUse" gradientTransform="matrix(.001 -.00005 .00002 .00014 70.45 31.4)" x1="-819.2" x2="819.2"><stop offset="0" stop-color="#774f4f"/><stop offset=".243" stop-color="#cbc1b5"/><stop offset="1" stop-color="#280201"/></linearGradient><path d="M71.4 31.2l.05.15H69.7v-.15h1.7" fill="url(#f)"/><linearGradient id="g" gradientUnits="userSpaceOnUse" gradientTransform="matrix(.00131 .00002 0 .00008 70.5 31.1)" x1="-819.2" x2="819.2"><stop offset="0" stop-color="#d7c0b0"/><stop offset=".243" stop-color="#e9e7ec"/><stop offset="1" stop-color="#8a6457"/></linearGradient><path d="M69.7 31.2v-.1h1.7v.1h-1.7" fill="url(#g)"/><linearGradient id="h" gradientUnits="userSpaceOnUse" gradientTransform="matrix(-.00336 -.00034 -.0001 .00096 74.75 33.45)" x1="-819.2" x2="819.2"><stop offset="0" stop-color="#e0a697" stop-opacity=".263"/><stop offset=".243" stop-color="#cc9076" stop-opacity=".561"/><stop offset=".565" stop-color="#e3bdb2" stop-opacity=".4"/><stop offset="1" stop-color="#d58e7c" stop-opacity=".682"/></linearGradient><path d="M78.1 33.2q-.65.75-1.7.9l-2.2.1q-1.15-.05-1.95-.55l-.5-.4-.1-.15-.05-.25.7.6q.8.5 1.95.55l2.2-.15q1.05-.15 1.45-.7l.2.05" fill="url(#h)"/><linearGradient id="i" gradientUnits="userSpaceOnUse" gradientTransform="matrix(-.00168 -.00023 -.00017 .00133 78.3 32.35)" x1="-819.2" x2="819.2"><stop offset="0" stop-color="#9e6c5e" stop-opacity=".651"/><stop offset=".243" stop-color="#c7846f" stop-opacity=".451"/><stop offset="1" stop-color="#9c4d44" stop-opacity=".514"/></linearGradient><path d="M78.1 33.2l-.2-.05-.3-.15q-.65-.1-.55-.35l.05-.35v-.2h.05l.25.6q.9.45 1.4 0l.45-.55.5-.4.15-.35.2-.15-.2.8-.55.4-.45.55q-.3.3-.8.2" fill="url(#i)"/><path d="M68.3 31.85q-.6 1.4-2 1.4h-.7l1.95-1.05.65-.5.1.15" fill="#fff" fill-opacity=".192"/><path d="M69 31.4h-.3v-.1l-.05-.2.05-.05.1.15.25.05-.05.15" fill="#2f2023"/><path d="M68.7 31.4l-.1-.2-.1-.05-.1.15.3.1-.05.05-.15.05-.2-.05-.05-.15.05-.2.2-.05.15.05.05.2v.1" fill="#755b5a"/><path d="M69.05 31.25l-.25-.05-.1-.15h.05l.3.1v.1m-.45-.05l.1.2-.3-.1.1-.15.1.05" fill="#e8f0f3"/><path d="M68.7 32.35l-.05-.2.15-.25.2-.35v-.15l.05-.15v-.35h.05l.15.2v.1l-.05.15v.1l-.1.3.15.45-.1.25-.1.1-.15-.15-.05.05-.15-.1m.15-.35v.1l.1.15h.15v-.1L69 32h-.15" fill="#706466"/><path d="M69.3 32.7l-.25.3-.1-.05-.15-.25.05-.25.05-.05.15.15.1-.1.1-.25-.15-.45.1-.3h.15v.65l-.15.45.05.1.05.05" fill="#e49e6a"/><path d="M69.25 32.65l-.05-.1.15-.45v-.65l.2.4-.05.25-.2.6-.05-.05" fill="#954628"/><path d="M69 32l.1.15v.1h-.15l-.1-.15V32H69" fill="#d2d0db"/><path d="M68.85 32.45l-.05.25.15.25-.15-.1h-.05l-.05-.5.15.1" fill="#ba8a73"/><path d="M60.3 30.6l.8.75h-.05l-.1.1-.4-.35-.25-.4v-.1" fill="#c2adb4"/><path d="M61.55 31.65l-.05-.05h.9l-.05.15h-.75l-.05-.1" fill="#a58a79"/><path d="M61.1 31.5l.3.25-.1.05-.15-.1-.05-.2" fill="#b9c8cf"/><path d="M61.6 31.75h.75l.05.1h-.8v-.1" fill="#2a060a"/><path d="M60.9 31.55q-.6-.45-.65-.7l.05-.15.25.4.4.35-.05.1" fill="#775a52"/><path d="M63.05 31.55v.1l-.1.05h-.05q0-.15.15-.15m-.4 0l.15.05-.35.15v-.1l.2-.1" fill="#faf8f9"/><path d="M63.05 31.3l.2.05.05.1-.1.25-.05-.05-.1-.15H62.9l.15-.2" fill="#9d6f62"/><linearGradient id="j" gradientUnits="userSpaceOnUse" gradientTransform="matrix(.0021 -.00105 .0001 .00023 64.2 30.5)" x1="-819.2" x2="819.2"><stop offset="0" stop-color="#e2b7a4" stop-opacity=".263"/><stop offset=".114" stop-color="#fff"/><stop offset=".208" stop-color="#ffdfd7" stop-opacity=".565"/><stop offset=".808" stop-color="#ffd3c7" stop-opacity=".4"/><stop offset="1" stop-color="#fff1e5" stop-opacity=".682"/></linearGradient><path d="M69.05 30.9v.1q-.5-.8-2.05-.95-3.35-.3-4.1.75l-.1.15v.1l-.25.45-.05.05-.1.05.15-.5.15-.35.3-.3q.5-.55 2.45-.6l3.1.45.55.6h-.05" fill="url(#j)"/><radialGradient id="k" gradientUnits="userSpaceOnUse" gradientTransform="matrix(.00049 0 0 .00049 61.3 31.4)" spreadMethod="pad" cx="0" cy="0" r="819.2" fx="0" fy="0"><stop offset="0" stop-color="#ebcbc0"/><stop offset="1" stop-color="#1b111a"/></radialGradient><path d="M61.5 31.6l.05.05.05.1v.1l-.2.1-.25-.1-.2-.15-.05-.15.05-.1.1-.1h.05l.25.1.15.15m-.35.1l.15.1.1-.05-.3-.25.05.2" fill="url(#k)"/><linearGradient id="l" gradientUnits="userSpaceOnUse" gradientTransform="matrix(-.00237 -.00014 .00005 -.00075 65.95 30.6)" x1="-819.2" x2="819.2"><stop offset="0" stop-color="#c49c90" stop-opacity=".263"/><stop offset=".518" stop-color="#936d64" stop-opacity=".565"/><stop offset=".925" stop-color="#99726b" stop-opacity=".4"/></linearGradient><path d="M69.05 31.1q-.55-.8-2.05-.95-3.35-.3-4.1.75l-.1.15v-.1l.1-.15q.75-1.05 4.1-.75 1.55.15 2.05.95v.1" fill="url(#l)"/><radialGradient id="m" gradientUnits="userSpaceOnUse" gradientTransform="matrix(.00089 0 0 .00049 62.85 31.45)" spreadMethod="pad" cx="0" cy="0" r="819.2" fx="0" fy="0"><stop offset="0" stop-color="#aaaeaf"/><stop offset="1" stop-color="#45494c"/></radialGradient><path d="M62.4 31.6l.1-.05.05-.05H63.05l.1.15v.05l-.05.15h-.5l-.1.05-.1-.05-.05-.1.05-.15m.5.1h.05l.1-.05v-.1q-.15 0-.15.15m-.45-.05v.1l.35-.15-.15-.05-.2.1" fill="url(#m)"/><linearGradient id="n" gradientUnits="userSpaceOnUse" gradientTransform="matrix(.00447 -.0001 .00003 .00117 66.4 32.75)" x1="-819.2" x2="819.2"><stop offset="0" stop-color="#c38c6d" stop-opacity=".263"/><stop offset=".176" stop-color="#fcf8f9" stop-opacity=".588"/><stop offset=".506" stop-color="#fff"/><stop offset=".792" stop-color="#ffd3c7" stop-opacity=".4"/><stop offset="1" stop-color="#fff1e5" stop-opacity=".682"/></linearGradient><path d="M68.95 32.95q-.55.45-1.7.6l-2.3.2q-1.15 0-1.7-.45-.6-.45-.85-1.45l.1.05.1-.05q.2.85.7 1.3.6.4 1.7.4l2.2-.15 1.6-.55.15.1" fill="url(#n)"/><linearGradient id="o" gradientUnits="userSpaceOnUse" gradientTransform="matrix(.001 -.00005 .00002 .00014 70.45 31.4)" x1="-819.2" x2="819.2"><stop offset="0" stop-color="#774f4f"/><stop offset=".243" stop-color="#cbc1b5"/><stop offset="1" stop-color="#280201"/></linearGradient><path d="M70.95 31.2v.15H69.2l.05-.15h1.7" fill="url(#o)"/><linearGradient id="p" gradientUnits="userSpaceOnUse" gradientTransform="matrix(.00131 .00002 0 .00008 70.5 31.1)" x1="-819.2" x2="819.2"><stop offset="0" stop-color="#d7c0b0"/><stop offset=".243" stop-color="#e9e7ec"/><stop offset="1" stop-color="#8a6457"/></linearGradient><path d="M69.25 31.2v-.1h1.7v.1h-1.7" fill="url(#p)"/><linearGradient id="q" gradientUnits="userSpaceOnUse" gradientTransform="matrix(.00337 -.00034 .0001 .00096 65.9 33.5)" x1="-819.2" x2="819.2"><stop offset="0" stop-color="#e0a697" stop-opacity=".263"/><stop offset=".243" stop-color="#cc9076" stop-opacity=".561"/><stop offset=".565" stop-color="#e3bdb2" stop-opacity=".4"/><stop offset="1" stop-color="#d58e7c" stop-opacity=".682"/></linearGradient><path d="M62.8 33.2q.35.55 1.4.7l2.25.15q1.15-.05 1.95-.55l.65-.6v.25l-.1.15-.5.4q-.8.5-1.95.55l-2.25-.1q-1.05-.15-1.65-.9l.2-.05" fill="url(#q)"/><linearGradient id="r" gradientUnits="userSpaceOnUse" gradientTransform="matrix(.00168 -.00023 .00018 .00133 62.35 32.4)" x1="-819.2" x2="819.2"><stop offset="0" stop-color="#9e6c5e" stop-opacity=".651"/><stop offset=".243" stop-color="#c7846f" stop-opacity=".451"/><stop offset="1" stop-color="#9c4d44" stop-opacity=".514"/></linearGradient><path d="M62.6 33.25q-.5.1-.85-.2l-.45-.55-.5-.4-.25-.8.2.15.15.35.55.4.45.55q.45.45 1.4 0l.25-.6h.05v.2l.05.35q.05.25-.55.35l-.3.15-.2.05" fill="url(#r)"/></g></svg>