<svg xmlns="http://www.w3.org/2000/svg" width="23" height="4"><g transform="translate(-58.65 -30.4)"><path d="M60.75 31.5l-1.25-.25-.25.1-.25.25-.15-.05-.2-.05.15-.1.5-.4.35-.1.85.2.8.2.2.05.05.1-.05.25-.75-.2" fill="#ce5051"/><path d="M61.5 31.7v.1l-.3.1-.65-.25-1.05-.3-.3.25v.05l-.2-.05.25-.25.25-.1 1.25.25.75.2" fill="#8c2f2f"/><radialGradient id="a" gradientUnits="userSpaceOnUse" gradientTransform="matrix(.00174 0 0 .00168 60.1 31.25)" spreadMethod="pad" cx="0" cy="0" r="819.2" fx="0" fy="0"><stop offset="0" stop-color="#f7f7f7" stop-opacity=".514"/><stop offset="1" stop-color="#fefef7" stop-opacity=".153"/></radialGradient><path d="M61.45 31.5v.1h-.1l-.8-.2-1-.25q-.15 0-.35.2l-.3.15h-.1l.45-.4q.15-.15.35-.15l1.8.45h.05v.1" fill="url(#a)"/><linearGradient id="b" gradientUnits="userSpaceOnUse" gradientTransform="matrix(.00003 -.00047 .00064 .00005 61.9 31.8)" x1="-819.2" x2="819.2"><stop offset="0" stop-color="#706568"/><stop offset=".259" stop-color="#828a7d"/><stop offset=".588" stop-color="#8a887d"/><stop offset="1" stop-color="#fefef7"/></linearGradient><path d="M62.4 31.35q-.1.2-.05.95l-.9-.15q-.2-.45.1-.85l.85.05" fill="url(#b)"/><path d="M62.8 33.35l.05.05v.05l.05.1.1.2-.05-.05-.4-.35-.05-.6.15.35.05.05.05.1.05.15v-.05" fill="#d2cece"/><radialGradient id="c" gradientUnits="userSpaceOnUse" gradientTransform="matrix(.00385 0 0 .00311 65.8 31)" spreadMethod="pad" cx="0" cy="0" r="819.2" fx="0" fy="0"><stop offset="0" stop-color="#b69d9a"/><stop offset="1" stop-color="#d3c3bd"/></radialGradient><path d="M62.4 31.5l-.05-.15.05-.15.1-.1q.4-.45 1.4-.6 1.2-.15 3.25.05l.75.1q.65.05 1.25.5l.1.2-.05.05-.25-.1v-.05L68.5 31l-1.6-.2-2.95-.1q-1.2.05-1.5.8v.05l-.05-.05" fill="url(#c)"/><linearGradient id="d" gradientUnits="userSpaceOnUse" gradientTransform="matrix(-.0003 .00148 -.00154 -.00029 69.05 32.3)" x1="-819.2" x2="819.2"><stop offset="0" stop-color="#746d69"/><stop offset="1" stop-color="#e0d7c9"/></linearGradient><path d="M68.75 33.3l.2-.45v-.05l.15-1.15-.15-.35.25.1.05-.05v1.1l-.05.1-.55 1.2-.2.05.15-.3.15-.2" fill="url(#d)"/><radialGradient id="e" gradientUnits="userSpaceOnUse" gradientTransform="matrix(.0006 0 0 .00134 62.4 32.25)" spreadMethod="pad" cx="0" cy="0" r="819.2" fx="0" fy="0"><stop offset="0" stop-color="#746d69"/><stop offset=".945" stop-color="#e0d7c9"/></radialGradient><path d="M62.55 33.35L62.4 33l-.1-.45q-.15-1.05.1-1.35l-.05.15.05.15.05.05q-.05.75.05 1.2l.05.6" fill="url(#e)"/><radialGradient id="f" gradientUnits="userSpaceOnUse" gradientTransform="matrix(.00522 0 0 .00508 68.5 33.35)" spreadMethod="pad" cx="0" cy="0" r="819.2" fx="0" fy="0"><stop offset="0" stop-color="#a8a098"/><stop offset="1" stop-color="#efd3ba"/></radialGradient><path d="M68.75 33.3l-.15.15q-.6.55-2.95.5h-.05l-2.65-.45-.05-.05h-.05v-.05l-.05-.05v.05h.05l.15.05.35.05h.1l.7.15 2.1.15 2.05-.3.1-.05.3-.25.25-.35-.2.45" fill="url(#f)"/><radialGradient id="g" gradientUnits="userSpaceOnUse" gradientTransform="matrix(.0039 0 0 .00378 66.4 33.85)" spreadMethod="pad" cx="0" cy="0" r="819.2" fx="0" fy="0"><stop offset="0" stop-color="#fdede8"/><stop offset="1" stop-color="#f5e1d6"/></radialGradient><path d="M68.6 33.5l-.15.3-.7.2h-.05l-1.75.1h-.1L63 33.75l-.1-.2-.05-.1h.05l.05.05 2.65.45h.05q2.35.05 2.95-.5l.15-.15-.15.2" fill="url(#g)"/><linearGradient id="h" gradientUnits="userSpaceOnUse" gradientTransform="matrix(.00407 0 0 .0019 65.75 32.25)" spreadMethod="reflect" x1="-819.2" x2="819.2"><stop offset="0" stop-color="#fff" stop-opacity=".361"/><stop offset=".945" stop-color="#fefefd" stop-opacity="0"/></linearGradient><path d="M69.1 31.65l-.15 1.15v.05l-.25.35-.3.25-.1.05-2.05.3-2.1-.15-.7-.15h-.1l-.35-.05-.15-.05h-.05l-.05-.15-.05-.1-.05-.05-.15-.35q-.1-.45-.05-1.2v-.05q.3-.75 1.5-.8l2.95.1 1.6.2.45.25v.05l.15.35" fill="url(#h)"/><radialGradient id="i" gradientUnits="userSpaceOnUse" gradientTransform="matrix(.00165 0 0 .0016 68.35 31.25)" spreadMethod="pad" cx="0" cy="0" r="819.2" fx="0" fy="0"><stop offset="0" stop-color="#fff" stop-opacity=".322"/><stop offset="1" stop-color="#fff" stop-opacity="0"/></radialGradient><path d="M69 31.9q-.1-.4-.6-.7l-1.8-.4 1.95.25q.55.25.45.65v.2" fill="url(#i)"/><radialGradient id="j" gradientUnits="userSpaceOnUse" gradientTransform="matrix(.13385 0 0 .13025 17.9 -.2)" spreadMethod="pad" cx="0" cy="0" r="819.2" fx="0" fy="0"><stop offset="0" stop-color="#fff" stop-opacity=".322"/><stop offset="1" stop-color="#fff" stop-opacity="0"/></radialGradient><path d="M69.2 31.75l-.2-.5q0-.15.15.05l.1.25-.05.2m-5.6-1.2l2-.1.05.05-1.6.15-1.35.35q0-.25.9-.45m.95 3.25l1.2.2-.2.1-1.8-.25q-.6-.15-.7-.35v-.05l1.5.35" fill="url(#j)"/><path d="M79.5 31.9l-.55.2-.05-.25.05-.15h.15l.6-.2.6-.25q.15-.05.3.15l.1.05-.4.15v.05l-.8.25" fill="#ce5051"/><path d="M78.95 32.1l.55-.2.8-.25q-.15.1 0 .05-.45.2-.65.35l-.5.25q-.15.05-.2-.1v-.1" fill="#8c2f2f"/><radialGradient id="k" gradientUnits="userSpaceOnUse" gradientTransform="matrix(-.00131 0 0 .00168 80 31.7)" spreadMethod="pad" cx="0" cy="0" r="819.2" fx="0" fy="0"><stop offset="0" stop-color="#f7f7f7" stop-opacity=".514"/><stop offset="1" stop-color="#fefef7" stop-opacity=".153"/></radialGradient><path d="M79 31.95v.1h.1l.55-.2.75-.25.3.2.2.15h.1l-.35-.4-.25-.15-1.35.45H79v.1" fill="url(#k)"/><linearGradient id="l" gradientUnits="userSpaceOnUse" gradientTransform="matrix(-.00003 -.00047 -.00064 .00005 78.7 32.05)" x1="-819.2" x2="819.2"><stop offset="0" stop-color="#706568"/><stop offset=".259" stop-color="#828a7d"/><stop offset=".588" stop-color="#8a887d"/><stop offset="1" stop-color="#fefef7"/></linearGradient><path d="M78.2 31.6l.05.95.9-.15q.2-.45-.1-.85l-.85.05" fill="url(#l)"/><path d="M77.85 33.7l.05-.05h-.05l.1-.1.05-.1v-.1l.15-.3-.05.55v.05l-.4.35h-.05l.1-.15.05-.15h.05" fill="#d2cece"/><radialGradient id="m" gradientUnits="userSpaceOnUse" gradientTransform="matrix(-.0006 0 0 .00134 78.25 32.55)" spreadMethod="pad" cx="0" cy="0" r="819.2" fx="0" fy="0"><stop offset="0" stop-color="#746d69"/><stop offset=".945" stop-color="#e0d7c9"/></radialGradient><path d="M78.15 33.05l.1-1.2v-.05l.05-.15-.05-.15h.05l.1 1.35-.1.45-.15.3h-.05l.05-.55" fill="url(#m)"/><radialGradient id="n" gradientUnits="userSpaceOnUse" gradientTransform="matrix(-.00385 0 0 .00311 74.85 31.3)" spreadMethod="pad" cx="0" cy="0" r="819.2" fx="0" fy="0"><stop offset="0" stop-color="#b69d9a"/><stop offset="1" stop-color="#d3c3bd"/></radialGradient><path d="M71.5 31.65h-.1l.1-.2q.6-.45 1.25-.55l.75-.05q2.1-.2 3.3-.05 1 .1 1.4.55l.05.1v.05l.05.15-.05.15v.05-.05q-.35-.75-1.55-.8l-2.95.05-1.6.25-.4.25-.05.05-.2.05" fill="url(#n)"/><radialGradient id="o" gradientUnits="userSpaceOnUse" gradientTransform="matrix(-.0039 0 0 .00378 74.3 34.1)" spreadMethod="pad" cx="0" cy="0" r="819.2" fx="0" fy="0"><stop offset="0" stop-color="#fdede8"/><stop offset="1" stop-color="#f5e1d6"/></radialGradient><path d="M72.05 33.75q.65.55 2.95.45l.05.05 2.65-.5h.1v-.05l-.05.15-.1.15-2.85.4h-.05L73 34.3h-.05l-.75-.2-.15-.35-.1-.2.1.2" fill="url(#o)"/><radialGradient id="p" gradientUnits="userSpaceOnUse" gradientTransform="matrix(-.00522 0 0 .00508 72.2 33.65)" spreadMethod="pad" cx="0" cy="0" r="819.2" fx="0" fy="0"><stop offset="0" stop-color="#a8a098"/><stop offset="1" stop-color="#efd3ba"/></radialGradient><path d="M77.8 33.7v.05h-.1l-2.65.5-.05-.05q-2.3.1-2.95-.45l-.1-.2-.25-.4.3.3.25.3h.1l2.05.35 2.1-.2.7-.1h.1l.4-.05.1-.1h.1l-.05.05h-.05" fill="url(#p)"/><linearGradient id="q" gradientUnits="userSpaceOnUse" gradientTransform="matrix(.0003 .00148 .00154 -.00029 71.65 32.6)" x1="-819.2" x2="819.2"><stop offset="0" stop-color="#746d69"/><stop offset="1" stop-color="#e0d7c9"/></linearGradient><path d="M71.95 33.55l.1.2.15.35-.15-.1q-.45-.3-.6-1.2v-.05l-.05-1.1h.1l.2-.05-.15.35.15 1.15v.05l.25.4" fill="url(#q)"/><linearGradient id="r" gradientUnits="userSpaceOnUse" gradientTransform="matrix(-.00407 0 0 .0019 74.9 32.55)" spreadMethod="reflect" x1="-819.2" x2="819.2"><stop offset="0" stop-color="#fff" stop-opacity=".251"/><stop offset=".945" stop-color="#fefefd" stop-opacity="0"/></linearGradient><path d="M78.15 33.05l-.15.3v.1l-.05.1-.1.1h-.05l-.1.1-.4.05h-.1l-.7.1-2.1.2-2.05-.35h-.1l-.25-.3-.3-.3v-.05l-.15-1.15.15-.35.05-.05.4-.25 1.6-.25L76.7 31q1.2.05 1.55.8v.05l-.1 1.2" fill="url(#r)"/><radialGradient id="s" gradientUnits="userSpaceOnUse" gradientTransform="matrix(-.00165 0 0 .0016 72.3 31.5)" spreadMethod="pad" cx="0" cy="0" r="819.2" fx="0" fy="0"><stop offset="0" stop-color="#fff" stop-opacity=".322"/><stop offset="1" stop-color="#fff" stop-opacity="0"/></radialGradient><path d="M71.65 32.15q.1-.4.6-.7l1.8-.4-1.95.25q-.55.25-.45.65v.2" fill="url(#s)"/><radialGradient id="t" gradientUnits="userSpaceOnUse" gradientTransform="matrix(-.13385 0 0 .13025 122.75 .05)" spreadMethod="pad" cx="0" cy="0" r="819.2" fx="0" fy="0"><stop offset="0" stop-color="#fff" stop-opacity=".322"/><stop offset="1" stop-color="#fff" stop-opacity="0"/></radialGradient><path d="M71.45 32l.2-.5q0-.15-.15.05l-.1.25.05.2m5.6-1.2l-2-.1-.05.05 1.6.15q.9.1 1.35.35 0-.25-.9-.45m-.95 3.25l-1.2.2.2.1 1.8-.25.7-.35v-.05l-1.5.35" fill="url(#t)"/><linearGradient id="u" gradientUnits="userSpaceOnUse" gradientTransform="matrix(.00002 -.00037 -.00157 -.00003 69.4 31.4)" x1="-819.2" x2="819.2"><stop offset=".267" stop-color="#746d69"/><stop offset=".588" stop-color="#e0d7c9"/></linearGradient><path d="M69.2 31.55v-.05l-.05-.1.85-.15.95.05.6.2-.05.1-.05.05h-.2l-.6-.1h-1.3l-.05.05h-.05l-.05-.05" fill="url(#u)"/><linearGradient id="v" gradientUnits="userSpaceOnUse" gradientTransform="matrix(.13385 0 0 .13025 17.9 -.2)" x1="-819.2" x2="819.2"><stop offset=".251" stop-color="#fff"/><stop offset="1" stop-color="#e0d7c9"/></linearGradient><path d="M70.7 31.35l.1.05v.05l-1.05-.05h-.25l.35-.05H70.7" fill="url(#v)"/></g></svg>