<svg xmlns="http://www.w3.org/2000/svg" width="20" height="6"><g transform="translate(-60.45 -28.1)"><path d="M68.65 31.05q-.3 0-.45.3l-.1.6.2.75-.1.1-.2-.75q0-1.1.8-1.1v.2l-.15-.1" fill="#ac6853"/><path d="M68.55 31.4h-.05l.1-.1.1-.1h.1v.25l-.25-.05" fill="#513531"/><path d="M68.6 31.75l.05-.2v-.05l-.15.25-.2.1-.1-.1v-.1q0-.2.3-.25h.05l.25.05-.1.45-.05.15-.15-.05.1-.25m-.3-.1V31.8l.25-.25v-.1l-.05-.05-.1.05-.1.15v.05" fill="#52414b"/><path d="M68.3 31.6l.1-.15.1-.05.05.05v.1l-.25.25v-.2" fill="#9b8f9d"/><path d="M68.3 31.85l.2-.1.15-.25v.05l-.05.2-.1.25-.1-.05-.1-.1" fill="#2f1c1e"/><radialGradient id="a" gradientUnits="userSpaceOnUse" gradientTransform="matrix(.00143 0 0 .0017 68.5 31.9)" spreadMethod="pad" cx="0" cy="0" r="819.2" fx="0" fy="0"><stop offset="0" stop-color="#ffdcc4"/><stop offset="1" stop-color="#b0876b" stop-opacity="0"/></radialGradient><path d="M68.4 31.95l.1.05.05.3-.2.3-.05.1-.2-.75.1-.6q.15-.3.45-.3l.15.1v.05h-.1l-.1.1-.1.1q-.3.05-.3.25v.1l.1.1.1.1" fill="url(#a)"/><path d="M70.15 30.85l-1.05-.05-.15-.05v-.1l1.2.1h.05v.1h-.05" fill="#432849"/><path d="M69.1 30.8l1.05.05h.05v.05l-.15.05-.65-.05-.3-.1" fill="#746778"/><path d="M69.4 30.9l.65.05.15-.05v.1l-.5.05-.7.1-.05-.35v-.05l.15.05.3.1" fill="#381a1a"/><path d="M61 29.9l.1.25h-.05l-.1.05-.1-.3-.4-1.75.05-.05h.1l.4 1.8" fill="#f3eafd"/><path d="M61.45 30.75v-.15h-.05l.05-.05-.05-.1h.7v.15l-.1.35V31h-.05v-.15l.05-.15v-.05h-.05l-.05-.1-.2-.05h-.15l-.05.05v.3l-.05-.1" fill="#5e4968"/><path d="M61.1 30.15l-.1-.25-.4-1.8.1.05.05.05.05.3.35 1.4.05.25h-.1" fill="#452d52"/><path d="M61.1 30.55l-.1-.25-.05-.1.1-.05h.25-.05l-.05.05.05.15-.05.1-.1.1m.3.3l-.05-.2-.05-.05v-.05l-.1.15-.05-.05.15-.2.05.15v.1l.05.2v-.05m-.35-.6l.1.2.05-.1-.05-.15v-.05l-.1.1" fill="#decbb1"/><path d="M61.5 30.9h-.1l-.05-.2v-.1l-.05-.15-.15.2-.05-.1.1-.1.05-.1-.05-.15.05-.05h.1v.35l.05.1.1.3" fill="#be9e6f"/><path d="M61.4 30.9l-.1-.05-.1-.15.1-.15v.05l.05.05.05.2v.05m-.25-.75v.05l.05.15-.05.1-.1-.2.1-.1" fill="#fffbf3"/><path d="M61.4 30.45l.05.1-.05.05-.05-.1v-.05h.05m.5.15h-.25l-.1.05v.2h-.05v-.3l.05-.05h.15l.2.05.05.1-.05-.05" fill="#857784"/><path d="M61.5 30.85h.05v-.2l.1-.05h.25l.05.05H62v.05l-.05.15V31l-.45-.1-.1-.3h.05v.15l.05.1" fill="#1b0b0c"/><path d="M61.4 30.45h-.05v-.05h.15l.05-.15h.15l.1.05v.15h-.4" fill="#261920"/><path d="M61.7 30.25h-.15l-.05.15h-.15v-.25l.45.1v.05l-.1-.05" fill="#4e3d43"/><radialGradient id="b" gradientUnits="userSpaceOnUse" gradientTransform="matrix(.00774 -.00313 .00217 .00536 65.75 33.3)" spreadMethod="pad" cx="0" cy="0" r="819.2" fx="0" fy="0"><stop offset="0" stop-color="#fff"/><stop offset="1" stop-color="#fff" stop-opacity="0"/></radialGradient><path d="M64.25 33.1l2.2.15q1.65-.2 1.9-.65l.3-.55.05-.15.05-1.25q-.2-.4-2.2-.65l-3-.1q-.95.15-1.2.55l-.1 1q.05.65.4 1.05.35.4 1.5.6h.1m4.2-.35q-.25.5-1.95.7l-2.4-.15q-1.2-.25-1.55-.65l-.35-.55q-.25-1.35 0-1.75.25-.45 1.25-.55l3.15.1q2.05.25 2.25.7.25.45-.05 1.35l-.05.2-.3.6" fill="url(#b)"/><radialGradient id="c" gradientUnits="userSpaceOnUse" gradientTransform="matrix(.0036 -.00154 .00233 .00543 65.35 30.35)" spreadMethod="pad" cx="0" cy="0" r="819.2" fx="0" fy="0"><stop offset=".161" stop-color="#927996"/><stop offset=".345" stop-color="#695266"/><stop offset=".647" stop-color="#481c1d"/><stop offset=".867" stop-color="#695056"/><stop offset="1" stop-color="#37250f"/></radialGradient><path d="M68.75 32.15l.05-.2q.3-.9.05-1.35-.2-.45-2.25-.7l-3.15-.1q-1 .1-1.25.55-.25.4 0 1.75l.35.55q.35.4 1.55.65l2.4.15q1.7-.2 1.95-.7l.3-.6m.15-.25l-.25.7q-.2.55-1.05.8-1.8.35-3.6-.05-1.2-.2-1.55-.65-.35-.4-.4-1.05-.1-1.05.1-1.5.25-.45 1.3-.6l3.2.15q2.1.25 2.3.7.25.45-.05 1.4v.1" fill="url(#c)"/><path d="M66.9 29.9v-.05l.1-.05.05.05.05.05-.05.05-.15-.05m-.55-.15h-.15l-.1-.05h.45l-.05.05h-.15m1.6.25h-.3l.05-.05h.25L68 30h-.05m-3.8-.35v.1H64l-.05-.05.05-.05.05-.05.1.05m4.5.7l-.05-.05.05-.05.05-.05.05.05v.1l-.05.05-.05-.05m1 .55h-.2v-.1h.2l.05.05-.05.05m.45-.05h.1v.05h-.05l-.05-.05m-2.8 2.5v-.05H67.45v.1l-.05.05-.1-.05v-.05m-.45.1l-.05.05H66.65v-.1h.15l.05.05m-1.4.1h-.1v-.05l.05-.05.05.05v.05M62.1 31.2v.15h-.05L62 31.3v-.05l.05-.05h.05" fill="#ffe6cc"/><radialGradient id="d" gradientUnits="userSpaceOnUse" gradientTransform="matrix(.00417 0 0 .00258 64.9 31.45)" spreadMethod="pad" cx="0" cy="0" r="819.2" fx="0" fy="0"><stop offset=".478" stop-color="#fff" stop-opacity="0"/><stop offset="1" stop-color="#fff" stop-opacity=".863"/></radialGradient><path d="M63.6 31.5l.15.9q.15.4.45.6-1.05-.15-1.35-.5l-.3-.5q-.2-1.1 0-1.45.2-.35 1.1-.45l.8-.05-.7.45q-.15.2-.15 1" fill="url(#d)"/><path d="M72.15 32.8l.2-.75q0-1.1-.8-1.1v.2q.1-.1.15-.1.3 0 .45.3l.1.6-.2.75.1.1" fill="#ac6853"/><path d="M71.55 31.45l.25-.05h.05l-.1-.1-.1-.1h-.1v.25" fill="#513531"/><path d="M71.65 31.9l.05.15.15-.05-.1-.25-.05-.2v-.05l.15.25.2.1.1-.1v-.1l-.3-.25h-.05l-.25.05.1.45m.4-.25V31.8l-.25-.25v-.1l.05-.05.1.05.1.15v.05" fill="#52414b"/><path d="M72.05 31.6l-.1-.15-.1-.05-.05.05v.1l.25.25v-.2" fill="#9b8f9d"/><path d="M71.85 32l.1-.05.1-.1-.2-.1-.15-.25v.05l.05.2.1.25" fill="#2f1c1e"/><radialGradient id="e" gradientUnits="userSpaceOnUse" gradientTransform="matrix(-.00143 0 0 .0017 71.85 31.9)" spreadMethod="pad" cx="0" cy="0" r="819.2" fx="0" fy="0"><stop offset="0" stop-color="#ffdcc4"/><stop offset="1" stop-color="#b0876b" stop-opacity="0"/></radialGradient><path d="M72.15 31.65v.1l-.1.1-.1.1-.1.05-.05.3.2.3.05.1.2-.75-.1-.6q-.15-.3-.45-.3-.05 0-.15.1v.05h.1l.1.1.1.1.3.25" fill="url(#e)"/><path d="M71.4 30.65l-1.2.1h-.05v.1h.05l1.05-.05.15-.05v-.1" fill="#432849"/><path d="M70.2 30.85h-.05v.05l.15.05.65-.05.3-.1-1.05.05" fill="#746778"/><path d="M70.15 31l.5.05.7.1.05-.35v-.05l-.15.05-.3.1-.65.05-.15-.05v.1" fill="#381a1a"/><path d="M79.35 29.9l-.1.25h.05l.1.05.1-.3.4-1.75-.05-.05h-.1l-.4 1.8" fill="#f3eafd"/><path d="M78.9 30.75v-.15h.05l-.05-.05.05-.1h-.7v.15l.1.35V31h.05v-.15l-.05-.15v-.05h.05l.05-.1.2-.05h.15l.05.05v.3l.05-.1" fill="#5e4968"/><path d="M79.25 30.15l.1-.25.4-1.8-.1.05-.05.05-.05.3-.35 1.4-.05.25h.1" fill="#452d52"/><path d="M79.25 30.55l.1-.25.05-.1-.1-.05h-.25.05l.05.05-.05.15.05.1.1.1m-.3.35v-.05l.05-.2.05-.05v-.05l.1.15.05-.05-.15-.2-.05.15v.1l-.05.2m.35-.65l-.1.2-.05-.1.05-.15v-.05l.1.1" fill="#decbb1"/><path d="M79 30.4v.1l-.05.1-.1.3h.1l.05-.2v-.1l.05-.15.15.2.05-.1-.1-.1-.05-.1.05-.15-.05-.05H79v.25" fill="#be9e6f"/><path d="M78.95 30.9l.1-.05.1-.15-.1-.15v.05l-.05.05-.05.2v.05m.25-.75v.05l-.05.15.05.1.1-.2-.1-.1" fill="#fffbf3"/><path d="M79 30.5v-.05h-.05l-.05.1.05.05.05-.1m-.55.1h.25l.1.05v.2h.05v-.3l-.05-.05h-.15l-.2.05-.05.1.05-.05" fill="#857784"/><path d="M78.85 30.85h-.05v-.2l-.1-.05h-.25l-.05.05h-.05v.05l.05.15V31l.45-.1.1-.3h-.05v.15l-.05.1" fill="#1b0b0c"/><path d="M78.55 30.3v.15H79v-.05h-.15l-.05-.15h-.15l-.1.05" fill="#261920"/><path d="M78.65 30.25h.15l.05.15H79v-.25l-.45.1v.05l.1-.05" fill="#4e3d43"/><radialGradient id="f" gradientUnits="userSpaceOnUse" gradientTransform="matrix(-.00774 -.00313 -.00217 .00536 74.6 33.3)" spreadMethod="pad" cx="0" cy="0" r="819.2" fx="0" fy="0"><stop offset="0" stop-color="#fff"/><stop offset="1" stop-color="#fff" stop-opacity="0"/></radialGradient><path d="M76.1 33.1l-2.2.15q-1.65-.2-1.9-.65l-.3-.55-.05-.15q-.2-.85-.05-1.25.2-.4 2.2-.65l3-.1q.95.15 1.2.55l.1 1-.4 1.05q-.35.4-1.5.6h-.1m-4.2-.35q.25.5 1.95.7l2.4-.15 1.55-.65.35-.55q.25-1.35 0-1.75-.25-.45-1.25-.55l-3.15.1q-2.05.25-2.25.7-.25.45.05 1.35l.05.2.3.6" fill="url(#f)"/><radialGradient id="g" gradientUnits="userSpaceOnUse" gradientTransform="matrix(-.0036 -.00154 -.00233 .00543 75 30.35)" spreadMethod="pad" cx="0" cy="0" r="819.2" fx="0" fy="0"><stop offset=".161" stop-color="#927996"/><stop offset=".345" stop-color="#695266"/><stop offset=".647" stop-color="#481c1d"/><stop offset=".867" stop-color="#695056"/><stop offset="1" stop-color="#37250f"/></radialGradient><path d="M71.6 32.15l-.05-.2q-.3-.9-.05-1.35.2-.45 2.25-.7l3.15-.1q1 .1 1.25.55.25.4 0 1.75l-.35.55-1.55.65-2.4.15q-1.7-.2-1.95-.7l-.3-.6m.1.45q.2.55 1.05.8 1.8.35 3.6-.05 1.2-.2 1.55-.65l.4-1.05-.1-1.5q-.25-.45-1.3-.6l-3.2.15q-2.1.25-2.3.7-.25.45.05 1.4v.1l.25.7" fill="url(#g)"/><path d="M73.45 29.9v-.05l-.1-.05-.05.05-.05.05.05.05.15-.05m.55-.15h.15l.1-.05h-.45l.05.05H74m-1.6.25h.3l-.05-.05h-.25l-.05.05h.05m3.8-.35v.1h.15l.05-.05-.05-.05-.05-.05-.1.05m-4.45.65l-.05-.05-.05-.05-.05.05v.1l.05.05.05-.05.05-.05m-1.05.6h.2v-.1h-.2l-.05.05.05.05m-.45-.05h-.1v.05h.05l.05-.05m2.8 2.5v-.05H72.9v.1l.05.05.1-.05v-.05m.45.1l.05.05H73.7v-.1h-.15l-.05.05m1.4.1h.1v-.05l-.05-.05-.05.05v.05m3.35-2.35v.15h.05l.05-.05v-.05l-.05-.05h-.05" fill="#ffe6cc"/><radialGradient id="h" gradientUnits="userSpaceOnUse" gradientTransform="matrix(-.00417 0 0 .00258 75.45 31.45)" spreadMethod="pad" cx="0" cy="0" r="819.2" fx="0" fy="0"><stop offset=".478" stop-color="#fff" stop-opacity="0"/><stop offset="1" stop-color="#fff" stop-opacity=".863"/></radialGradient><path d="M76.75 31.5l-.15.9-.45.6q1.05-.15 1.35-.5l.3-.5q.2-1.1 0-1.45-.2-.35-1.1-.45l-.8-.05.7.45.15 1" fill="url(#h)"/></g></svg>