<svg xmlns="http://www.w3.org/2000/svg" width="22" height="9"><g transform="translate(9.35 -4.7)"><path d="M.85 5.8l-1 .25h-.1l-.7-.1-.15-.1-1.05-.55-1.2-.4-1.05-.15h-.8l.35-.05 1.5.15h.05q1.2.3 2.45 1.05l.05.05.3.05h.25l.6-.15h.1l.4-.1h.45v.05H.85M-9.3 7.95l.25.4.8 1.55.35.6.5.65.05.05q.75.75 2.1 1.25l2 .15h.05l1.55-.6.15-.1.45-.4q.6-.65 1.05-1.75l.35-1.4-.2-.4q-.25-.4.05-.85l.65-.2.45.05V7H.6l-.25.1Q0 7.45.3 8l.15.7q-.25 1.15-.85 2v.05l-.2.3-.5.6q-.8.8-2 1l-.05.05q-1.6.25-3.15-.6-1-.5-1.6-1.45l-.35-.55-.8-1.7-.3-.5V5.65l.05 2.3m8.7 1.8l-.05.15-.1.3-.4.6-.15.25-.15.2h-.05q-.85.8-2.05 1l-2.2-.4q-1.1-.55-1.85-1.65l-.4-.9-.15-.5-.05-.2-.05-.45.1-.7.05-.1.4-.75q.35-.4 1.05-.7l-.5.35-.55.6-.35 1.1v.4q.1 1 .7 1.85.95 1.25 2.4 1.7l.15.05.55.1h.2l1.3-.2 1.05-.65.15-.15q.9-.9.9-2.5V8.5l-.05-.45q-.05-.4-.25-.75l-.45-.6.05.05.65.95.05.1q.15.35.15.8V9.25l-.1.5"/><radialGradient id="a" gradientUnits="userSpaceOnUse" gradientTransform="matrix(.00748 0 0 .00748 -4.65 4.8)" spreadMethod="pad" cx="0" cy="0" r="819.2" fx="0" fy="0"><stop offset="0" stop-color="#4f4954"/><stop offset="1"/></radialGradient><path d="M-.35 6.25H-.4l-.85-.3q-1.2-.75-2.2-.95l.1-.1 1.2.4 1.05.55.15.1.7.1h.1l1-.25h.45V6H.85l-1.1.25h-.1M-7.9 5.4l-1.45.25v-.1l.45-.15.85-.15h.2l-.05.15" fill="url(#a)"/><path d="M-1 11.3l.15-.6H-.9l.05-.1.25-.8.1-.55V8.6l.05-.3.2-2v-.05L.85 6h.45v.95L.85 6.9l-.65.2q-.3.45-.05.85l.2.4L0 9.75q-.45 1.1-1.05 1.75l.05-.2m-7-1.7l.05.55.05.35-.35-.6-.8-1.55-.25-.4-.05-2.3 1.45-.25-.05.15-.2 1.8h.05l-.05.1-.1.7.05.45.05.2.15.8" fill="#19171c"/><linearGradient id="b" gradientUnits="userSpaceOnUse" gradientTransform="matrix(.0061 0 0 .00238 -4.2 6.8)" x1="-819.2" x2="819.2"><stop offset="0" stop-color="#060506"/><stop offset=".443" stop-color="#2f2b32"/><stop offset="1"/></linearGradient><path d="M-6.45 5.8l-.1.05-.1.05q-.7.3-1.05.7l-.4.75h-.05l.2-1.8.05-.15.6-.15 1.6-.35h.05l2.15.1h.05q1 .2 2.2.95l.85.3H-.25v.05l-.2 2-.05.3q0-.45-.15-.8l-.05-.1-.65-.95-.05-.05-.05-.05-.1-.1-.15-.15q-1.1-.85-2.65-.85h-.5l-.55.05-.8.1-.05.05-.15.05h-.05" fill="url(#b)"/><radialGradient id="c" gradientUnits="userSpaceOnUse" gradientTransform="matrix(.0299 0 0 .01282 -4.1 5.95)" spreadMethod="pad" cx="0" cy="0" r="819.2" fx="0" fy="0"><stop offset="0" stop-color="#4f4f59" stop-opacity=".89"/><stop offset="1"/></radialGradient><path d="M-.95 7.3q.2.35.25.75l.05.45v.05q0 1.6-.9 2.5l-.15.15-1.05.65q2.65-1.7 1.65-4.5-1.5-2.2-5.3-1.55l.15-.05.05-.05.8-.1.55-.05h.5q1.55 0 2.65.85l.15.15.1.1.05.05.45.6m-4 4.6q-1.45-.45-2.4-1.7-.6-.85-.7-1.85v-.4l.35-1.1.55-.6.5-.35-.35.25-.55.65-.35 1.1v.4q.1 1 .7 1.9.95 1.25 2.4 1.7v.05l-.15-.05" fill="url(#c)"/><radialGradient id="d" gradientUnits="userSpaceOnUse" gradientTransform="matrix(.00748 0 0 .00748 -4.65 4.8)" spreadMethod="pad" cx="0" cy="0" r="819.2" fx="0" fy="0"><stop offset="0" stop-color="#625c69"/><stop offset="1"/></radialGradient><path d="M-7.85 5.25l1.45-.35h.05l1.15-.15h.8l1.05.15-.1.1h-.05l-2.15-.1h-.05l-1.6.35-.6.15.05-.15" fill="url(#d)"/><radialGradient id="e" gradientUnits="userSpaceOnUse" gradientTransform="matrix(.0299 0 0 .01282 -4.1 5.95)" spreadMethod="pad" cx="0" cy="0" r="819.2" fx="0" fy="0"><stop offset="0" stop-color="#1e1d30" stop-opacity=".761"/><stop offset="1"/></radialGradient><path d="M-4.05 12.05h-.2l-.55-.1v-.05q-1.45-.45-2.4-1.7-.6-.9-.7-1.9v-.4l.35-1.1.55-.65.35-.25.1-.05.1-.05h.05q3.8-.65 5.3 1.55 1 2.8-1.65 4.5l-1.3.2" fill="url(#e)"/><linearGradient id="f" gradientUnits="userSpaceOnUse" gradientTransform="matrix(.00436 0 0 .00186 -4.45 11.1)" x1="-819.2" x2="819.2"><stop offset="0"/><stop offset=".459" stop-color="#332f36"/><stop offset="1"/></linearGradient><path d="M-7.95 10.15L-8 9.6l.3.65q.65 1 1.5 1.55l.05.05q.85.5 2.4.55l1.7-.6H-2l1.1-1.1h.05l-.15.6-.05.2-.45.4-.15.1-1.55.6h-.05l-2-.15q-1.35-.5-2.1-1.25l-.05-.05-.5-.65-.05-.35" fill="url(#f)"/><radialGradient id="g" gradientUnits="userSpaceOnUse" gradientTransform="matrix(.01079 0 0 .00648 -4.45 12.3)" spreadMethod="pad" cx="0" cy="0" r="819.2" fx="0" fy="0"><stop offset="0" stop-color="#625c69"/><stop offset="1"/></radialGradient><path d="M-.75 10.25l-.1.35-.05.1-1.1 1.1h-.05l-1.7.6q-1.55-.05-2.4-.55l-.05-.05q-.85-.55-1.5-1.55L-8 9.6v-.3l.4.9q.75 1.1 1.85 1.65l2.2.4q1.2-.2 2.05-1h.05l.15-.2.15-.25.4-.6v.05" fill="url(#g)"/><radialGradient id="h" gradientUnits="userSpaceOnUse" gradientTransform="matrix(.01079 0 0 .00648 -4.45 12.3)" spreadMethod="pad" cx="0" cy="0" r="819.2" fx="0" fy="0"><stop offset="0" stop-color="#3c3840"/><stop offset="1"/></radialGradient><path d="M-.75 10.2l.1-.3.05-.15.1-.5-.1.55-.25.8.1-.35v-.05m-7.4-1.4l.15.5v.3l-.15-.8" fill="url(#h)"/><radialGradient id="i" gradientUnits="userSpaceOnUse" gradientTransform="matrix(-.00748 0 0 .00748 7.25 4.8)" spreadMethod="pad" cx="0" cy="0" r="819.2" fx="0" fy="0"><stop offset="0" stop-color="#4f4954"/><stop offset="1"/></radialGradient><path d="M10.5 5.4l-.05-.15h.2l.85.15.45.15v.1L10.5 5.4M1.3 6v-.2h.4l1.05.25h.1l.7-.1.15-.1 1.05-.55q.55-.25 1.2-.4l.1.1q-1 .2-2.2.95l-.85.3H2.85L1.7 6h-.4" fill="url(#i)"/><radialGradient id="j" gradientUnits="userSpaceOnUse" gradientTransform="matrix(-.00748 0 0 .00748 7.25 4.8)" spreadMethod="pad" cx="0" cy="0" r="819.2" fx="0" fy="0"><stop offset="0" stop-color="#625c69"/><stop offset="1"/></radialGradient><path d="M6.05 5l-.1-.1L7 4.75h.8l1.15.15H9l1.45.35.05.15-.6-.15-1.6-.35h-.05L6.1 5h-.05" fill="url(#j)"/><path d="M11.9 7.95l-.25.4-.8 1.55-.35.6.05-.35.05-.55.1-.6.05-.2.05-.2.05-.45-.1-.7-.05-.1h.05l-.2-1.8-.05-.15 1.45.25-.05 2.3M3.45 10.7l.15.6.05.2q-.6-.65-1.05-1.75-.35-.7-.35-1.4l.2-.4q.25-.4-.05-.85l-.7-.2-.4.05V6h.4l1.15.25v.05l.15 2 .05.3.05.15v.5l.1.55.25.8.05.1h-.05" fill="#19171c"/><linearGradient id="k" gradientUnits="userSpaceOnUse" gradientTransform="matrix(-.0061 0 0 .00238 6.8 6.8)" x1="-819.2" x2="819.2"><stop offset="0" stop-color="#060506"/><stop offset=".443" stop-color="#2f2b32"/><stop offset="1"/></linearGradient><path d="M9.05 5.8H9l-.15-.05H8.8l-.05-.05L8 5.6l-.55-.05h-.5q-1.55 0-2.65.85l-.15.15-.1.1L4 6.7l-.1.05-.6.95-.05.1q-.15.4-.15.95l-.05-.15L3 8.3l-.15-2v-.05H3l.85-.3q1.2-.75 2.2-.95h.05l2.15-.1h.05l1.6.35.6.15.05.15.2 1.8h-.05l-.4-.75q-.35-.45-1.15-.75l-.1-.05" fill="url(#k)"/><path d="M4.1 11.9l.15.1q.7.4 1.55.6h.05l2-.15q1.35-.5 2.1-1.25l.05-.05.5-.65.35-.6.8-1.55.25-.4.05-2.3V7.9l-.3.5-.8 1.7-.35.55q-.6.95-1.6 1.45-1.55.85-3.15.6l-.05-.05q-1.2-.2-2-1l-.5-.6-.2-.3v-.05q-.6-.85-.85-2-.1-.35.15-.7.3-.55-.05-.9L2 7h-.7v-.05l.4-.05.7.2q.3.45.05.85l-.2.4q0 .7.35 1.4.45 1.1 1.05 1.75l.45.4M7 4.75l-1.05.15q-.65.15-1.2.4l-1.05.55-.15.1-.7.1h-.1L1.7 5.8h-.4v-.05h.4l.45.1h.1l.6.15h.25l.3-.05.05-.05Q4.7 5.15 5.9 4.85h.05l1.5-.15.35.05H7m3.6 4.55l-.4.9q-.75 1.1-1.85 1.65-.85.45-2.2.4-1.2-.2-2.05-1h-.05l-.15-.2-.2-.25-.35-.6-.1-.3-.05-.15-.1-.5v-.5q0-.55.15-.95l.05-.1.6-.95.1-.05-.45.6-.3.75v.5q0 1.6.9 2.5l.15.15 1.05.65 1.3.2h.2l.5-.1.2-.05q1.45-.45 2.4-1.7.6-.85.7-1.85v-.4l-.35-1.1-.55-.6-.6-.4q.8.3 1.15.75l.4.75.05.1.1.7-.05.45-.05.2-.05.2-.1.3"/><radialGradient id="l" gradientUnits="userSpaceOnUse" gradientTransform="matrix(-.0299 0 0 .01282 6.7 5.95)" spreadMethod="pad" cx="0" cy="0" r="819.2" fx="0" fy="0"><stop offset="0" stop-color="#4f4f59" stop-opacity=".89"/><stop offset="1"/></radialGradient><path d="M9.15 5.85l.6.4.55.6.35 1.1v.4q-.1 1-.7 1.85-.95 1.25-2.4 1.7l-.2.05v-.05q1.45-.45 2.4-1.7.6-.9.7-1.9v-.4l-.35-1.1-.55-.65-.5-.35.1.05m-5.1.8l.1-.1.15-.15q1.1-.85 2.65-.85h.5L8 5.6l.75.1.05.05h.05L9 5.8q-3.8-.65-5.35 1.55-1 2.8 1.7 4.5L4.3 11.2l-.15-.15q-.9-.9-.9-2.5v-.5l.3-.75.45-.6.05-.05" fill="url(#l)"/><radialGradient id="m" gradientUnits="userSpaceOnUse" gradientTransform="matrix(-.0299 0 0 .01282 6.7 5.95)" spreadMethod="pad" cx="0" cy="0" r="819.2" fx="0" fy="0"><stop offset="0" stop-color="#1e1d30" stop-opacity=".761"/><stop offset="1"/></radialGradient><path d="M3.65 7.35Q5.2 5.15 9 5.8h.05l.5.35.55.65.35 1.1v.4q-.1 1-.7 1.9-.95 1.25-2.4 1.7v.05l-.5.1h-.2l-1.3-.2q-2.7-1.7-1.7-4.5" fill="url(#m)"/><radialGradient id="n" gradientUnits="userSpaceOnUse" gradientTransform="matrix(-.01079 0 0 .00648 7.05 12.3)" spreadMethod="pad" cx="0" cy="0" r="819.2" fx="0" fy="0"><stop offset="0" stop-color="#3c3840"/><stop offset="1"/></radialGradient><path d="M10.6 9.3l.1-.3-.1.6v-.3m-7.25.95l.1.35-.25-.8-.1-.55.1.5.05.15.1.3v.05" fill="url(#n)"/><radialGradient id="o" gradientUnits="userSpaceOnUse" gradientTransform="matrix(-.01079 0 0 .00648 7.05 12.3)" spreadMethod="pad" cx="0" cy="0" r="819.2" fx="0" fy="0"><stop offset="0" stop-color="#625c69"/><stop offset="1"/></radialGradient><path d="M3.35 10.2l.35.6.2.25.15.2h.05q.85.8 2.05 1 1.35.05 2.2-.4 1.1-.55 1.85-1.65l.4-.9v.3l-.3.65-1.5 1.55-.05.05-2.4.55q-.8-.1-1.7-.6H4.6l-1.1-1.1-.05-.1-.1-.35v-.05" fill="url(#o)"/><linearGradient id="p" gradientUnits="userSpaceOnUse" gradientTransform="matrix(-.00436 0 0 .00186 7.05 11.1)" x1="-819.2" x2="819.2"><stop offset="0"/><stop offset=".459" stop-color="#332f36"/><stop offset="1"/></linearGradient><path d="M3.65 11.5l-.05-.2-.15-.6h.05l1.1 1.1h.05q.9.5 1.7.6l2.4-.55.05-.05 1.5-1.55.3-.65-.05.55-.05.35-.5.65-.05.05q-.75.75-2.1 1.25l-2 .15H5.8q-.85-.2-1.55-.6l-.15-.1-.45-.4" fill="url(#p)"/></g></svg>