<svg xmlns="http://www.w3.org/2000/svg" width="23" height="7"><g transform="translate(14 -16.6)"><path d="M6.4 16.75q-2.3-.1-4.6.05l-.1.05-3.2.5v.05l-.3.05-1.2.05h-.2l-.4-.05h-.3l-.6-.1-.85-.1h-.05l-5.6-.5-2.35.1-.4.05-.2.05v-.05l2.8-.2h.05l6.6.55h.15l.45.1.9.05 2.15-.25h.05l5.25-.55 4 .15v.1l-.4-.05-1.65-.05" fill="#10150f"/><linearGradient id="a" gradientUnits="userSpaceOnUse" gradientTransform="matrix(-.00047 -.00005 .00014 -.00145 8.4 17.9)" x1="-819.2" x2="819.2"><stop offset="0" stop-color="#88888a"/><stop offset=".984" stop-color="#2e2c2f"/></linearGradient><path d="M7.85 19.25q.45-1.4.2-2.45l.4.05v.45l-.05 1.3v.05l-.25.25-.15.15-.15.2" fill="url(#a)"/><linearGradient id="b" gradientUnits="userSpaceOnUse" gradientTransform="matrix(.00021 -.00002 .0001 .00136 -13.9 18.05)" x1="-819.2" x2="819.2"><stop offset="0" stop-color="#88888a"/><stop offset=".984" stop-color="#2e2c2f"/></linearGradient><path d="M-13.6 19.05v.1l-.05-.1-.25-.3-.05-.05v-1.75l.2-.05.15 2.15" fill="url(#b)"/><linearGradient id="c" gradientUnits="userSpaceOnUse" gradientTransform="matrix(.00087 -.00085 .0008 .0008 -12.65 17.9)" x1="-819.2" x2="819.2"><stop offset="0" stop-color="#451b1d"/><stop offset=".184" stop-color="#2b1f23"/><stop offset=".486" stop-color="#4e343d"/><stop offset="1" stop-color="#3b2f33"/></linearGradient><path d="M-12.25 17.3l-.15.1-.4.35-.05.05V19l-.1.15V17.8l.05-.1v-.05l.25-.25.4-.1" fill="url(#c)"/><radialGradient id="d" gradientUnits="userSpaceOnUse" gradientTransform="matrix(.00177 -.00029 .00195 .01163 -13.95 17.95)" spreadMethod="pad" cx="0" cy="0" r="819.2" fx="210511" fy="0"><stop offset="0" stop-color="#323033"/><stop offset=".984" stop-color="#222123"/></radialGradient><path d="M-5.2 22.75l-.05.1-1.45.5-2.1.1-1.5-.15h-.05l-.8-.25-.65-.2-.75-.95-.6-1.8-.05-.1-.4-.95-.15-2.15.4-.05q.15.45.7.55l-.25.25v.05l-.05.1v.1l-.1.6.2 1.5.05.1.25 1 .2.55.2.45.45.55.55.2.45.15 1.75.25h1.55l1.3-.25.7-.45.3-.35q.1.15-.1.55" fill="url(#d)"/><path d="M-5.85 22.75l-1.4.3-1.95.05-1.8-.35-.05-.05h-.1l-.45-.2-.25-.25-.6-1.45v-.05l-.2-.75-.2-1V17.8l.05-.05.4-.35v.05l-.3.35.05 1.8.1.4.35 1.1v.1l.35.85.6.5 1.95.45h1.95l1.45-.3.6-.45-.55.5m.55-.5l.05-.1v.05l-.05.05" fill="#291919"/><radialGradient id="e" gradientUnits="userSpaceOnUse" gradientTransform="matrix(.0091 0 0 .0091 -7.4 15.75)" spreadMethod="pad" cx="0" cy="0" r="819.2" fx="77" fy="0"><stop offset="0" stop-color="#af63de" stop-opacity=".361"/><stop offset="1" stop-color="#d467c3" stop-opacity=".902"/></radialGradient><path d="M-10.45 21.3q2.3 1.25 4.1.05l.05-.05 1.8-1.7.4-.55-.1.35-.1.6v.05l-.2.5-.4 1-.35.6-.05.1-.6.45-1.45.3H-9.3l-1.95-.45-.6-.5-.35-.85v-.1l-.35-1.1-.1-.4-.05-1.8.3-.35v-.05l.15-.05 1.3-.1q-1.2 2.55.5 4.05" fill="url(#e)"/><linearGradient id="f" gradientUnits="userSpaceOnUse" gradientTransform="matrix(.00612 0 0 .00366 -8.65 19.7)" x1="-819.2" x2="819.2"><stop offset="0" stop-color="#191819"/><stop offset=".635" stop-color="#444"/><stop offset="1" stop-color="#1d1b1e"/></linearGradient><path d="M-5.1 22.2l.25-.4.35-.95.2-.6h.05L-4 19v-.3l-.1-.65-.3-.25h-.1l-.1-.05-.95-.2-1.9-.25-.6-.05-2.4-.1-1.75.15h-.05l-.4.1q-.55-.1-.7-.55l2.35-.1 5.6.5h.05l.85.1.6.1.15 1.15.15.75-.15.3-.75 2-.25.55-.05.05-.05.05-.05.1-.3.35q.2-.4.1-.55" fill="url(#f)"/><path d="M-12.8 20l.55 1.7.35.7h.05l.4.3.3.1.95.25 2.25.15 1.9-.25v-.05l.65-.45.1-.1.15-.2.4-.85.25-.6.05-.1v-.05q.25-.6.35-1.5l.05-.3-.05-.25v-.1l-.05-.15q-.05-.3-.25-.45l.3.25.1.65v.3l-.25 1.25h-.05l-.2.6-.35.95-.25.4-.3.35-.7.45-1.3.25h-1.55L-10.7 23l-.45-.15-.55-.2-.45-.55-.2-.45-.2-.55-.25-1-.05-.1-.2-1.5.1-.6v1.25l.15.85" fill="#3c2420"/><linearGradient id="g" gradientUnits="userSpaceOnUse" gradientTransform="matrix(.0008 .00217 -.00197 .00075 -12.3 20.75)" x1="-819.2" x2="819.2"><stop offset="0" stop-color="#661b1f"/><stop offset=".486" stop-color="#ae2127"/><stop offset="1" stop-color="#7b1d1d"/></linearGradient><path d="M-11.75 22.45l-.1-.05h-.05l-.35-.7-.55-1.7-.15-.85.1-.15.2 1 .2.75v.05l.6 1.45.25.25-.15-.05" fill="url(#g)"/><path d="M-4.9 22.4q-.3.7-1.3.9l-3 .15h-.05l-1.9-.35-.35-.1-.9-.75-.8-2.2-.05-.05q-.1-.45-.35-.85v-.1l.4.95.05.1.6 1.8.75.95.65.2.8.25h.05l1.5.15 2.1-.1 1.45-.5.05-.1.3-.35"/><linearGradient id="h" gradientUnits="userSpaceOnUse" gradientTransform="matrix(.00616 0 0 .00412 3.1 20.1)" x1="-819.2" x2="819.2"><stop offset="0" stop-color="#191819"/><stop offset=".635" stop-color="#353535"/><stop offset="1" stop-color="#1d1b1e"/></linearGradient><path d="M-1.9 18.85l.1-1.25v-.15l.3-.05v-.05l3.2-.5.1-.05q2.3-.15 4.6-.05l1.65.05q.25 1.05-.2 2.45l.15-.2-.2.35-.2.85h-.05Q7.3 21.6 6.6 22.5l-.1.1-1.35.55-.05.05-.9.15h-.05q-1.95.25-3.6-.05l-.95-.45-.35-.4-.65-1.35-.45-1.15-.1-.35.05-.75m.85 2.15l.05.1.3.7.5.7.2.2.25.15H.3l1.55.3 2.55-.1h.05l1.2-.35.3-.15.25-.15.65-1.1.45-1.75.05-.6v-.05l.05-.1V17.8l-.05-.1-.1-.15-.4-.3-.75-.05-1.55-.1-1.75.1-2 .15-.15.05-.1.05h-.2l-.7.1-.75.2-.45.2V18l-.15.45v.05l.3 1.55.2.5v.05l.1.15.05.25" fill="url(#h)"/><path d="M-.35 17.6l-.95.3q-.4.15-.3.85l.65 2.35.05.05v.05l.1.25-.2-.35v-.05l-.05-.05v-.05l-.05-.2-.1-.15v-.05l-.2-.5-.3-1.55v-.05l.15-.45v-.05l.45-.2.75-.2.7-.1-.7.15" fill="#452b38"/><linearGradient id="i" gradientUnits="userSpaceOnUse" gradientTransform="matrix(.00122 -.00003 .00003 .00131 -2.85 18.3)" x1="-819.2" x2="819.2"><stop offset="0" stop-color="#191819"/><stop offset=".486" stop-color="#3a393a"/><stop offset="1" stop-color="#1d1b1e"/></linearGradient><path d="M-3.75 18.6l-.15-1.15h.3l.4.05h.2l1.2-.05v.15l-.1 1.25-.05.75-.3-.4-.75-.1H-3.15l-.15.05-.3.2-.15-.75" fill="url(#i)"/><radialGradient id="j" gradientUnits="userSpaceOnUse" gradientTransform="matrix(.00836 0 0 .00583 2.95 17.55)" spreadMethod="pad" cx="0" cy="0" r="819.2" fx="77" fy="0"><stop offset="0" stop-color="#c66bff" stop-opacity=".537"/><stop offset="1" stop-color="#d467c3" stop-opacity=".761"/></radialGradient><path d="M3.25 21.4q-3.3.5-3.6-3.8l.7-.15h.2l.1-.05.15-.05 2-.15h.25l3.05.05q.15 3.8-2.85 4.15" fill="url(#j)"/><radialGradient id="k" gradientUnits="userSpaceOnUse" gradientTransform="matrix(.0075 0 0 .0075 2.15 16.05)" spreadMethod="pad" cx="0" cy="0" r="819.2" fx="77" fy="0"><stop offset="0" stop-color="#af63de" stop-opacity=".361"/><stop offset="1" stop-color="#d467c3" stop-opacity=".902"/></radialGradient><path d="M6.1 17.25l.75.1.05.05q.4.3.25 1.6v.15L6.6 21.2l-.05.1-.35.7-.65.45H5.5l-2.65.45H2.8q-1.9.15-2.95-.55l-.05-.1-.7-1.05v-.05l-.05-.05-.65-2.35q-.1-.7.3-.85l.95-.3q.3 4.3 3.6 3.8 3-.35 2.85-4.15" fill="url(#k)"/><linearGradient id="l" gradientUnits="userSpaceOnUse" gradientTransform="matrix(.00075 .00096 -.00085 .00067 5.8 18.35)" x1="-819.2" x2="819.2"><stop offset="0" stop-color="#342a33"/><stop offset=".443" stop-color="#47313d"/><stop offset="1" stop-color="#2b1f1f"/></linearGradient><path d="M7.25 18.75V17.8L7 17.45l-.05-.05H6.9l-.05-.05-.75-.1-3.05-.05H2.8l1.75-.1 1.55.1.75.05.4.3.1.15.05.1v1l-.05.1-.1-.15" fill="url(#l)"/><path d="M6.2 22l.35-.7.05-.1.55-2.05V19q.15-1.3-.25-1.6h.05l.05.05.25.75-.1 1v.05l-.25 1.1-.25.9-.45.9V22" fill="#560c31"/><path d="M-1 21.1l-.05-.1.05.05v.05l.2.35v.05l-.2-.4M7.25 19v.05l-.35 1.6v.05l-.45 1.2-.55.55-1.2.4-2.2.25-1.65-.15q-.6-.15-.95-.45l-.1-.1-.45-.6-.15-.25.35.5.25.3.3.2.05.05 1.05.35 1.85.05h.05l2.15-.35q.55-.15.9-.5h.05l.45-.9.25-.9.25-1.1v-.05l.1-1-.25-.75.25.35V19" fill="#260607"/><path d="M-12.2 17.3l1.75-.15 2.4.1.05.05-1.4-.05h-1.55l-1.3.1-.15.05.15-.1h.05" fill="#3b2f33"/><path d="M-4.35 17.9l-.15-.05-1.65-.35-1.85-.2-.05-.05.6.05 1.9.25.95.2.1.05h.1q.2.15.25.45l-.2-.35" fill="#352736"/><radialGradient id="m" gradientUnits="userSpaceOnUse" gradientTransform="matrix(.01286 0 0 .00708 -5.85 17.85)" spreadMethod="pad" cx="0" cy="0" r="819.2" fx="77" fy="0"><stop offset="0" stop-color="#c66bff" stop-opacity=".537"/><stop offset="1" stop-color="#d467c3" stop-opacity=".761"/></radialGradient><path d="M-4.1 18.85v.2l-.4.55-1.8 1.7-.05.05q-1.8 1.2-4.1-.05-1.7-1.5-.5-4.05h1.55l1.4.05 1.85.2 1.65.35.15.05.2.35.05.15v.1l.05.25-.05.1" fill="url(#m)"/><path d="M-5.15 22.05l-.1.15v-.05l.35-.6.4-1 .2-.5V20l.1-.6.1-.35q-.1.9-.35 1.5v.05l-.05.1-.25.6-.4.85-.15.2.15-.3m1.1-3.3l-.05.3v-.2l.05-.1" fill="#3f2530"/><linearGradient id="n" gradientUnits="userSpaceOnUse" gradientTransform="matrix(.0041 0 0 .00072 -8.5 22.65)" x1="-819.2" x2="819.2"><stop offset="0" stop-color="#572420"/><stop offset=".443" stop-color="#997c78"/><stop offset="1" stop-color="#5a2824"/></linearGradient><path d="M-11.6 22.5l.45.2h.1l.05.05 1.8.35 1.95-.05 1.4-.3.55-.5.05-.05.1-.15-.15.3-.1.1-.65.45v.05l-1.9.25-2.25-.15-.95-.25-.3-.1-.4-.3.1.05.15.05" fill="url(#n)"/><linearGradient id="o" gradientUnits="userSpaceOnUse" gradientTransform="matrix(.0007 -.00233 .00221 .00067 6.65 20.65)" x1="-819.2" x2="819.2"><stop offset="0" stop-color="#781a18"/><stop offset=".443" stop-color="#972324"/><stop offset="1" stop-color="#551d20"/></linearGradient><path d="M5.9 22.45l.55-.55.45-1.2v-.05l.35-1.6v-.3l.1.15v.05l-.05.6-.45 1.75-.65 1.1-.25.15-.05-.1" fill="url(#o)"/><linearGradient id="p" gradientUnits="userSpaceOnUse" gradientTransform="matrix(.00432 0 0 .00111 2.65 22.1)" x1="-819.2" x2="819.2"><stop offset=".02" stop-color="#71415b"/><stop offset=".2" stop-color="#5a2834"/><stop offset=".459" stop-color="#604354"/><stop offset="1" stop-color="#635063"/></linearGradient><path d="M-.8 21.5v-.05l-.1-.25.7 1.05.05.1q1.05.7 2.95.55h.05l2.65-.45h.05L6.2 22v.15h-.05q-.35.35-.9.5L3.1 23h-.05l-1.85-.05-1.05-.35-.05-.05-.3-.2-.25-.3-.35-.5v-.05" fill="url(#p)"/><linearGradient id="q" gradientUnits="userSpaceOnUse" gradientTransform="matrix(.00352 0 0 .00037 2.9 22.9)" x1="-819.2" x2="819.2"><stop offset=".02" stop-color="#3d1d20"/><stop offset=".443" stop-color="#695258"/><stop offset="1" stop-color="#781a18"/></linearGradient><path d="M5.65 22.7l-1.2.35H4.4l-2.55.1-1.55-.3H.25L0 22.7l.9.3 1.65.15 1.6-.1 1.65-.45-.15.1" fill="url(#q)"/><linearGradient id="r" gradientUnits="userSpaceOnUse" gradientTransform="matrix(.00436 0 0 .00156 2.35 21.85)" x1="-819.2" x2="819.2"><stop offset=".004" stop-color="#291d1d"/><stop offset=".443" stop-color="#571e24"/><stop offset=".992" stop-color="#791a18"/></linearGradient><path d="M-.8 21.5v.05l.15.25.45.6.1.1q.35.3.95.45l1.65.15 2.2-.25 1.2-.4.05.1-.3.15.15-.1-1.65.45-1.6.1L.9 23l-.9-.3-.2-.2-.5-.7-.3-.7.2.4m-.25-.5l-.05-.25.05.2V21" fill="url(#r)"/></g></svg>