<svg xmlns="http://www.w3.org/2000/svg" width="48" height="62"><g transform="translate(-47.75 -17.8)"><linearGradient id="a" gradientUnits="userSpaceOnUse" gradientTransform="matrix(.00627 .00148 -.00143 .00604 88.55 57.9)" x1="-819.2" x2="819.2"><stop offset="0" stop-color="#5e2f15"/><stop offset=".522" stop-color="#a6623b"/><stop offset="1" stop-color="#763611"/></linearGradient><path d="M91.05 61.25L91 61.2q-.95-1.95-2.15-3.6l-2.5-2.85-.75-1.05-.7-1.15-.2-.45h.1l.3.4.85 1.2 1.7 2.1.15.25 1.45 1.5q1.2 1.55 2.05 3.3.75 1.55 1.2 3.25l-1.45-2.85" fill="url(#a)"/><linearGradient id="b" gradientUnits="userSpaceOnUse" gradientTransform="matrix(-.0013 -.01022 .00586 -.00075 86.75 56.9)" x1="-819.2" x2="819.2"><stop offset="0" stop-color="#2b1307"/><stop offset=".447" stop-color="#673417"/><stop offset=".973" stop-color="#2b1307"/></linearGradient><path d="M82.9 52.1h.2l.5 1 .35.6 1.5 2.5-1.2-2.5-.35-.75-.4-.85h.45l.4.65.65.95.75 1.1-.7-1.1-.55-1-.25-.6h.45l.2.45.7 1.15.75 1.05 2.5 2.85q1.2 1.65 2.15 3.6l.05.05 1.45 2.85.1.35.05.25-.9-.65-1.05-2.5q-1-2.15-2.25-3.85l-1.7-1.95 1.3 2.05q1.3 2.1 2.2 4.25l.6 1.5-.85-.4-.05-.05-.4-.35q-1.55-1.7-2.4-3.6l.95 2.45-1.95-2.85.85 2-2.3-3.55-1.85-3.5-.05-.05-.7-1.55h.35l2.35 4.3-1.9-4.3m4.2 5.9l-1.3-1.25.95 1.3 2.05 3.2-.45-1.6 2 3.2-.25-.6L89 60l-.1-.15-1.15-2-.8-1.4-1.95-2q1.3 1.65 2.2 3.5l.2.4-.3-.35" fill="url(#b)"/><linearGradient id="c" gradientUnits="userSpaceOnUse" gradientTransform="matrix(.00526 .01001 -.01434 .00755 87.9 64.1)" x1="-819.2" x2="819.2"><stop offset="0" stop-color="#2b1307"/><stop offset=".71" stop-color="#673417"/><stop offset="1" stop-color="#401d0b"/></linearGradient><path d="M77.8 53.7q-.2 2.35.3 4.35l.25-1.75.15 1.55.6 1.45-.25-1.85V54.7q0 1.3.3 2.4.25 1.5.95 2.65l-.25-3.6v.15q.25 2.15 1.3 3.8l-.25-1.65.7 1.5.55.75-.65-.15-.2-.15-.5-.1q-2.1-.55-2.9-1.75l-.45-1.05q-.2-1.85-.05-3.8l.2-1.6h.35l-.15 1.6m.9-1.6h.15l-.1 1.15-.05-1.15m12.5 20.7l-1.45 1.6q1.15-1.95 1.35-3.7l.05-.4q.05-1.35-.4-2.6-.5-1.2-1.55-2.25l-.3-.3-.5-.6-.3-.45-1.45-1.3q-1.5-1.15-3.5-1.8l-.85-1.65.2.25 1.5 1.45-1.1-1.65-.3-.65 1.7 1.95-1-1.45L81 55.1l-.6-1.4-.15-.35.3 2.2-.5-1.85-.3-1.6h1.2l.55 1.6.25.75.35.85-1.8-2.8.6 1.2.5 1.1 2.45 4.25.4.65q1.85 2.2 4.65 3.7l.05.1q2.3 1.8 3.3 3.8l.3.65-.4-.65q-1-1.4-2.3-2.35 1.1 1.3 1.65 2.6l.4 1.5.05.75-.05.45q-.1 1.3-.6 2.45l-.1.1m-1.25-9.65l-.5-.3q-2.8-1.65-4.7-3.85l-.2-.2-.9-1.8 1.85 2.05-2.3-3.7-.8-1.4-.1-.25-.75-1.6h.55l.7 1.55.05.05 1.85 3.5 2.3 3.55-.85-2 1.95 2.85-.95-2.45q.85 1.9 2.4 3.6l.4.35v.05M84.8 56.4l-2.35-4.3h.45l1.9 4.3m-.9-3.45l.35.75 1.2 2.5-1.5-2.5-.35-.6-.5-1h.4l.4.85m.6-.25l.55 1 .7 1.1-.75-1.1-.65-.95-.4-.65h.3l.25.6" fill="url(#c)"/><linearGradient id="d" gradientUnits="userSpaceOnUse" gradientTransform="matrix(-.00098 -.00764 .00243 -.0003 82.65 53.05)" x1="-819.2" x2="819.2"><stop offset="0" stop-color="#2b1307"/><stop offset="1" stop-color="#673417"/></linearGradient><path d="M82.3 53.7l.1.25.8 1.4 2.3 3.7L83.65 57l.9 1.8-.35-.4-2.1-3.1-.35-.85-.25-.75-.55-1.6h.6l.75 1.6" fill="url(#d)"/><linearGradient id="e" gradientUnits="userSpaceOnUse" gradientTransform="matrix(-.00136 -.01064 .0073 -.00093 81.85 56.15)" x1="-819.2" x2="819.2"><stop offset="0" stop-color="#2b1307"/><stop offset=".447" stop-color="#673417"/><stop offset=".973" stop-color="#2b1307"/></linearGradient><path d="M78.75 53.25l.1-1.15h.9l.3 1.6.5 1.85-.3-2.2.15.35.6 1.4 2.3 4.15 1 1.45-1.7-1.95.3.65 1.1 1.65-1.5-1.45-.2-.25.85 1.65-1-.3-.55-.75-.7-1.5.25 1.65q-1.05-1.65-1.3-3.8v-.15l.25 3.6q-.7-1.15-.95-2.65-.3-1.1-.3-2.4v2.75l.25 1.85-.6-1.45-.15-1.55-.25 1.75q-.5-2-.3-4.35l.15-1.6h.75l.05 1.15" fill="url(#e)"/><linearGradient id="f" gradientUnits="userSpaceOnUse" gradientTransform="matrix(.009 .00214 -.00209 .00883 83.1 66.5)" x1="-819.2" x2="819.2"><stop offset="0" stop-color="#5e2f15"/><stop offset=".522" stop-color="#a6623b"/><stop offset="1" stop-color="#763611"/></linearGradient><path d="M86.65 62.8l1.15 1.55.15.8-.6-.45q-1.2-.9-2.5-1.3 1.3.65 2.25 1.45 1.05.95 1.75 2.1l.5 1.35.35 2-.05.5.05.4-.05.2q-.15 2-1.2 4l-.05-.2v-.15l-.15-.6-.05-.15-.15-.3q-.95-2.25-2.85-4.1 1.65 1.05 2.85 2.9l-.4-.65-1.7-2.45-1.75-1.8 2.3 1.65 1.25 1.35-1.05-1.4-1.7-1.65 2.15 1.45 1.4 1.45-.95-1.6-2.65-2.3-2.05-1.1q1.05.15 2.35.75l.8.4q.95.75 1.7 2.1l1.15 2.2-1.7-1.55 1.4 2.05.1.1.2.55-2.15-1.95 1.1 1.6.05.1.65 1.4-.1-1.15.45 1.1.2-1.3.3.25-.4-1.7.5.5-.8-1.7.55.35-.9-1.05-2.3-1.9 1.15.7-1.75-1.35-1.3-.8 1.45.75q1.7.85 3 2.35-.65-1.8-2.55-2.8l-1.6-.7-.3-.1-2.4-.7-.25-.1q-1.15-.45-1.55-1 1.2.6 2.5.75-1.55-.65-2.85-1.65l2.1.9-1.85-1.55 4.8 2.05q-.85-1.05-2.75-1.8 2.55.1 4.7 2.05-.9-1.5-3.35-2.2l-.05-.1-3.5-.75q-1.5-.6-1.95-1.45l-.1-.55-.2-1.35.45 1.05q.8 1.2 2.9 1.75l.5.1.2.15.65.15 1 .3q2 .65 3.5 1.8m-.1 2.85l2.25 2.25q-.1-.95-1.3-2.2l-.7-.55q-2.1-1.45-5.1-2.35 1.05.6 1.65 1.3L82 64.05q2.3.35 4.3 1.45l.25.15" fill="url(#f)"/><linearGradient id="g" gradientUnits="userSpaceOnUse" gradientTransform="matrix(.00574 .00136 -.00053 .00224 82 62.3)" x1="-819.2" x2="819.2"><stop offset="0" stop-color="#361808"/><stop offset="1" stop-color="#834420"/></linearGradient><path d="M79.35 63.6q-.7-.9-1.05-1.95l-.05-.35-.5-1.9q.45.85 1.95 1.45l3.5.75.05.1q2.45.7 3.35 2.2-2.15-1.95-4.7-2.05 1.9.75 2.75 1.8l-4.8-2.05 1.85 1.55-2.1-.9q1.3 1 2.85 1.65-1.3-.15-2.5-.75.4.55 1.55 1l-2.15-.55" fill="url(#g)"/><linearGradient id="h" gradientUnits="userSpaceOnUse" gradientTransform="matrix(.00525 .0087 -.00836 .00505 88.35 67.15)" x1="-819.2" x2="819.2"><stop offset="0" stop-color="#6e3e27"/><stop offset=".537" stop-color="#b97747"/><stop offset="1" stop-color="#724128"/></linearGradient><path d="M92.7 74.85l-1.2 1L90.05 77l.55-.55.35-.45q.85-.5 1.65-1.75l.15-.2.1-.1q1.5-2.4 1.2-4.85l-.25-.65-.55-1.35-.85-1.35q.75.45 1.5 1.25l.3.45-.25-.45q-1.3-2.1-4.15-3.35l-.15-.15-.55-.3-3.25-2.3h-.05l-1.6-1.95-.75-1.2.75.65.35.4.2.2q1.9 2.2 4.7 3.85l.5.3H90l2.8 2q.85.65 1.35 1.45l.05.15.05.2.4.75.1.9-.15 1.2-.35-1.45.1.55v2.45l-.05.15q-.4 2.05-1.6 3.35" fill="url(#h)"/><linearGradient id="i" gradientUnits="userSpaceOnUse" gradientTransform="matrix(.00955 .00848 -.00826 .0093 88.1 65.25)" x1="-819.2" x2="819.2"><stop offset="0" stop-color="#411f0c"/><stop offset=".525" stop-color="#8b4923"/><stop offset="1" stop-color="#502710"/></linearGradient><path d="M90.35 75.8q2.75-1.75 3-5.3l-.15-.95-.15-.5-.15-.2v.3l-.15.65q-.4 1.35-1.45 2.9.5-1.15.6-2.45l.05-.45-.05-.75-.4-1.5q-.55-1.3-1.65-2.6 1.3.95 2.3 2.35l.4.65-.3-.65q-1-2-3.3-3.8l-.05-.1q-2.8-1.5-4.65-3.7l-.4-.65-2.45-4.25-.5-1.1-.6-1.2 1.8 2.8 2.1 3.1-.75-.65.75 1.2 1.6 1.95h.05l3.25 2.3.55.3.15.15q2.85 1.25 4.15 3.35l.25.45-.3-.45q-.75-.8-1.5-1.25l.85 1.35.55 1.35.25.65q.3 2.45-1.2 4.85l-.1.1-.15.2q-1.15 1.35-2.25 1.55" fill="url(#i)"/><linearGradient id="j" gradientUnits="userSpaceOnUse" gradientTransform="matrix(.00418 .00581 -.00342 .00247 89.55 60.55)" x1="-819.2" x2="819.2"><stop offset="0" stop-color="#592c13"/><stop offset=".522" stop-color="#955632"/><stop offset="1" stop-color="#47220e"/></linearGradient><path d="M91.35 63.85l-.15-.1-.35-.2-.6-1.5q-.9-2.15-2.2-4.25l-1.3-2.05 1.7 1.95q1.25 1.7 2.25 3.85l1.05 2.5-.4-.2" fill="url(#j)"/><linearGradient id="k" gradientUnits="userSpaceOnUse" gradientTransform="matrix(.00394 .00534 -.00343 .00252 87.95 59)" x1="-819.2" x2="819.2"><stop offset="0" stop-color="#592c13"/><stop offset=".522" stop-color="#955632"/><stop offset="1" stop-color="#47220e"/></linearGradient><path d="M87.4 58.35l-.2-.4q-.9-1.85-2.2-3.5l1.95 2 .8 1.4 1.15 2 .1.15 1.1 2.25.25.6-2-3.2.45 1.6-2.05-3.2-.95-1.3L87.1 58l.3.35" fill="url(#k)"/><linearGradient id="l" gradientUnits="userSpaceOnUse" gradientTransform="matrix(.00758 .01224 -.00557 .00345 90.9 66.3)" x1="-819.2" x2="819.2"><stop offset="0" stop-color="#7f5137"/><stop offset=".478" stop-color="#e8b586"/><stop offset="1" stop-color="#8c5b3d"/></linearGradient><path d="M91.75 64.05l.9.65q1.4 1.05 2 2.25l.2.4.35 1.05.05.55q-.25 3.8-2.55 5.9 1.2-1.3 1.6-3.35l.05-.15V68.9l-.1-.55.35 1.45.15-1.2-.1-.9-.4-.75-.05-.2-.05-.15q-.5-.8-1.35-1.45l-2.8-2 .85.4.35.2.15.1.4.2" fill="url(#l)"/><linearGradient id="m" gradientUnits="userSpaceOnUse" gradientTransform="matrix(.00465 .0011 -.0017 .00716 87.25 69.1)" x1="-819.2" x2="819.2"><stop offset="0" stop-color="#904e28"/><stop offset="1" stop-color="#421c08"/></linearGradient><path d="M88.45 75.4q1.05-2 1.2-4l.05-.2-.05-.4.05-.5-.35-2-.5-1.35q-.7-1.15-1.75-2.1-.95-.8-2.25-1.45 1.3.4 2.5 1.3l.6.45-.15-.8-1.15-1.55 1.45 1.3.3.45.5.6.15.3q.7 1.3 1.05 2.55.4 1.35.35 2.7v.35q-.1 1.75-.85 3.5l-1.1 1.2-.05-.35" fill="url(#m)"/><linearGradient id="n" gradientUnits="userSpaceOnUse" gradientTransform="matrix(.0057 .00134 -.00047 .002 85.65 65.55)" x1="-819.2" x2="819.2"><stop offset="0" stop-color="#995b38"/><stop offset=".463" stop-color="#c78763"/><stop offset="1" stop-color="#7e3d18"/></linearGradient><path d="M86.3 65.5q-2-1.1-4.3-1.45l1.35.05q-.6-.7-1.65-1.3 3 .9 5.1 2.35l.7.55q1.2 1.25 1.3 2.2l-2.25-2.25-.25-.15" fill="url(#n)"/><linearGradient id="o" gradientUnits="userSpaceOnUse" gradientTransform="matrix(.00394 .00534 -.00343 .00252 87.95 59)" x1="-819.2" x2="819.2"><stop offset="0" stop-color="#4d230c"/><stop offset=".522" stop-color="#955632"/><stop offset="1" stop-color="#47220e"/></linearGradient><path d="M88.8 77.3l-.3-1.25v-.3l1.1-1.2q.75-1.75.85-3.5v-.35q.05-1.35-.35-2.7-.35-1.25-1.05-2.55l-.15-.3.3.3q1.05 1.05 1.55 2.25.45 1.25.4 2.6l-.05.4q-.2 1.75-1.35 3.7l1.45-1.6.1-.1q1.05-1.55 1.45-2.9l.15-.65v-.3l.15.2.15.5.15.95q-.25 3.55-3 5.3 1.1-.2 2.25-1.55-.8 1.25-1.65 1.75l-.35.45-1.8.85" fill="url(#o)"/><linearGradient id="p" gradientUnits="userSpaceOnUse" gradientTransform="matrix(.00626 -.00017 .00012 .00493 84.55 68.5)" x1="-819.2" x2="819.2"><stop offset="0" stop-color="#411f0c"/><stop offset="1" stop-color="#8b4923"/></linearGradient><path d="M81.5 64.15l.25.1 2.4.7.3.1 1.6.7q1.9 1 2.55 2.8-1.3-1.5-3-2.35l-1.45-.75 1.3.8 1.75 1.35-1.15-.7-.8-.4q-1.3-.6-2.35-.75l2.05 1.1 2.65 2.3.95 1.6-1.4-1.45L85 67.85l1.7 1.65 1.05 1.4-1.25-1.35-2.3-1.65 1.75 1.8 1.7 2.45.4.65q-1.2-1.85-2.85-2.9 1.9 1.85 2.85 4.1-.65-1.4-3.45-3.7l-.25-.25-.1-.05-.65-.7q-1.55-1.65-2.2-3.9-1.3-.8-2.05-1.8l2.15.55" fill="url(#p)"/><linearGradient id="q" gradientUnits="userSpaceOnUse" gradientTransform="matrix(.00337 .00209 -.00232 .00372 86.65 74.8)" x1="-819.2" x2="819.2"><stop offset="0" stop-color="#230f01"/><stop offset=".412" stop-color="#421807"/><stop offset="1" stop-color="#240f01"/></linearGradient><path d="M85.35 71.6l1.35 3.1-2.25-3.55Q84.7 73.2 86 74.9l-1.25-.95q.65 1.55 2.8 3.05-1-.35-2-1.2l-.65-.65-.8-.65q.25 1.6 1.5 2.5.95.75 1.95.95l-.5.05-1.65-.35q-1.05-.4-1.45-1.85l-.05-.05q-.2-2.45.45-5.7l.25.25q2.8 2.3 3.45 3.7l.15.3.05.15.15.6v.15l.05.2.05.35v.3q-1.3-2.65-3.15-4.45" fill="url(#q)"/><linearGradient id="r" gradientUnits="userSpaceOnUse" gradientTransform="matrix(.0027 .00053 -.00053 .00275 87.9 69.7)" x1="-819.2" x2="819.2"><stop offset="0" stop-color="#995b38"/><stop offset=".447" stop-color="#c1815e"/><stop offset="1" stop-color="#7e3d18"/></linearGradient><path d="M86.05 66.9l2.3 1.9.9 1.05-.55-.35.8 1.7-.5-.5.4 1.7-.3-.25-.2 1.3-.45-1.1.1 1.15-.65-1.4-.05-.1-1.1-1.6 2.15 1.95-.2-.55-.1-.1-1.4-2.05 1.7 1.55-1.15-2.2q-.75-1.35-1.7-2.1" fill="url(#r)"/><linearGradient id="s" gradientUnits="userSpaceOnUse" gradientTransform="matrix(.00581 .00137 -.00021 .0009 87.4 76.85)" x1="-819.2" x2="819.2"><stop offset="0" stop-color="#49210b"/><stop offset=".376" stop-color="#8b4923"/><stop offset="1" stop-color="#48200b"/></linearGradient><path d="M87.55 77l1.25.3 1.8-.85-.55.55 1.45-1.15 1.4-1.05q-2.95 2.8-4.2 2.95h-.1l-1.75-.35q-1.25-.7-2.1-1.9l.8.3q1 .85 2 1.2" fill="url(#s)"/><linearGradient id="t" gradientUnits="userSpaceOnUse" gradientTransform="matrix(.00426 .00366 -.002 .00233 87 75.3)" x1="-819.2" x2="819.2"><stop offset="0" stop-color="#321303"/><stop offset=".396" stop-color="#623116"/><stop offset="1" stop-color="#321304"/></linearGradient><path d="M85.55 75.8l-.8-.3q.85 1.2 2.1 1.9l1.75.35-1.05.2q-1-.2-1.95-.95-1.25-.9-1.5-2.5l.8.65.65.65m2.95.25l.3 1.25-1.25-.3q-2.15-1.5-2.8-3.05l1.25.95q-1.3-1.7-1.55-3.75l2.25 3.55-1.35-3.1q1.85 1.8 3.15 4.45" fill="url(#t)"/><linearGradient id="u" gradientUnits="userSpaceOnUse" gradientTransform="matrix(-.00307 .00987 .01634 .00711 54.8 63.5)" x1="-819.2" x2="819.2"><stop offset="0" stop-color="#2b1307"/><stop offset=".71" stop-color="#673417"/><stop offset="1" stop-color="#401d0b"/></linearGradient><path d="M63.1 53.1l.55 2.1.1.6.1.65.05.4-.15 1.05q-.6 1.2-2.6 1.8l-.5.1-.15.1-.6.15.35-.7.35-1.5.1 1.65q.6-1.4.55-3.05l-.05-.65v-.45l.55 3.75q.45-1.1.4-2.6v-.05l-.05-.65-.05-.6-.2-1.05.35 1.05.1.6.15.65.05.35.15 1.85.3-1.45-.05-.75-.15-.65.6 1.6v-.95l-.1-.65-.05-.6-.5-2.1h.4m-2.65 0l-.1 2v.1l-.2-2.1h.3m-4.7 9.1l-.1.1-1.05 1.2-.3.45-.3.6-.05.35q-.4 1.25-.5 2.5v.2q-.05 1.2.25 2.45l.05.3q.5 1.7 1.65 3.4l1.45 1.1.05.4.05.6-1-.15-1.2-.5 1.9.25Q53.7 74.15 52 72.5l-.75-1.25-.55-1.4v-1.4l.1-.2.05.3.3.65.55.95 1.6 1.8q-.8-1.1-1.2-2.35l-.05-.1-.1-.35-.15-.7v-.85l.05-.7q.3-1.25 1.15-2.5-1.1.95-1.8 2.35l-.3.65.15-.7q.55-1.95 2.5-3.8l.05-.05.8-.55q1.95-1.3 3.05-3.15l.3-.65.85-2.05.2-.65.2-.6.25-.95.35-1.15h.45l-.3 1.5-.15.6-.2.6-.2.65-.85 2.25-.65 1.4 1.3-1.95-.2.7-.75 1.6 1.2-1.45.15-.25-.5 1.65q-1.9.65-3.15 1.8m2.95-7.4l-.15.4-.25.6-.3.65-.5.95.25-.95.3-1.25.45-2.1h.9l-.7 1.7m-4.15 20.3l.1.05h-.05l-.05-.05" fill="url(#u)"/><linearGradient id="v" gradientUnits="userSpaceOnUse" gradientTransform="matrix(-.00105 -.01042 -.00768 -.00076 59.15 55.65)" x1="-819.2" x2="819.2"><stop offset="0" stop-color="#2b1307"/><stop offset=".447" stop-color="#673417"/><stop offset=".973" stop-color="#2b1307"/></linearGradient><path d="M58.9 60.4l.5-1.65-.15.25-1.2 1.45.75-1.6.2-.7-1.3 1.95.65-1.4.85-2.25.2-.65.2-.6.15-.6.3-1.5h.1l.2 2.1v-.1l.1-2h2.25l.5 2.1.05.6.1.65v.95l-.6-1.6.15.65.05.75-.3 1.45-.15-1.85-.05-.35-.15-.65-.1-.6-.35-1.05.2 1.05.05.6.05.65v.05q.05 1.5-.4 2.6l-.55-3.75v.45l.05.65q.05 1.65-.55 3.05l-.1-1.65-.35 1.5-.35.7-1 .35" fill="url(#v)"/><linearGradient id="w" gradientUnits="userSpaceOnUse" gradientTransform="matrix(-.0087 .00224 .00415 .0086 60.2 65.75)" x1="-819.2" x2="819.2"><stop offset="0" stop-color="#5e2f15"/><stop offset=".522" stop-color="#a6623b"/><stop offset="1" stop-color="#763611"/></linearGradient><path d="M57.35 71.75l-.1.15-.3.4q-.65.95-.5 1.8-1.25-1.7-1.75-3.4l-.1-.2-.1-.4-.1-.5-.15-1.95v-.05l.2-1.3q.4-1.15 1.3-2.05.8-.8 1.95-1.45-1.25.35-2.25 1.3l-.45.45q-.15-.35-.05-.8.1-.65.7-1.45l.1-.1q1.25-1.15 3.15-1.8l1-.35.6-.15.15-.1.5-.1q2-.6 2.6-1.8l.15-1.05.15 1.35v.55q-.3.8-1.7 1.45L59 61l-.1.1q-1.4.45-2.2 1.2-.45.45-.65 1l1.15-1q1.4-1 3.2-1.1-1.15.5-1.85 1.1l-.6.65 4.45-2-1.5 1.5 1.9-.9q-.45.4-.95.75l-1.55.95q1.25-.2 2.35-.8l-1.35 1-.25.1-2.2.7-.3.15q-.9.25-1.5.7-1.6.95-2 2.5l-.05.25.2-.25q1.05-1.25 2.4-2.1.6-.45 1.3-.7l-1.15.8-1.4 1.35.95-.7q.35-.25.7-.4 1.2-.65 2.25-.8l-1.8 1.1-1.6 1.45-.6.8q-.5.8-.6 1.65l1.05-1.5 1.1-.95.8-.5-.5.5-.85 1.15q-.5.65-.75 1.45l.95-1.4 1.25-1.2q.35-.3.75-.5l-.4.5L58 68.95q-.75 1.2-1.15 2.4l-.25.65q.85-1.8 2.25-2.85l.1-.1-.05.1q-.95 1.15-1.5 2.4l-.05.2m3.15-9.45l.3-.2-.6.2q-2.45.9-4.05 2.2l-.6.55q-.9 1.3-.8 2.25.65-1.4 1.75-2.3l.2-.15q1.8-1.1 4.05-1.5l-1.35.1 1.1-1.15m-4.7 5.3l-.4.5-.65 1.05.45-.35-.4 1.7.35-.5v1.7l.25-.35.5 1.35.2-1.1.2 1.1.3-1.35.05-.1q.25-.85.75-1.6l-1.75 1.95.1-.5.05-.1v-.05q.25-.95.95-2.05l-1.35 1.55.6-2.15.35-.7 1-1.35q-.9.55-1.55 1.35" fill="url(#w)"/><linearGradient id="x" gradientUnits="userSpaceOnUse" gradientTransform="matrix(-.00554 .00143 .00105 .00218 60.4 61.7)" x1="-819.2" x2="819.2"><stop offset="0" stop-color="#361808"/><stop offset="1" stop-color="#834420"/></linearGradient><path d="M61.3 63.45l1.35-1q-1.1.6-2.35.8l1.55-.95q.5-.35.95-.75l-1.9.9 1.5-1.5-4.45 2 .6-.65q.7-.6 1.85-1.1-1.8.1-3.2 1.1l-1.15 1q.2-.55.65-1 .8-.75 2.2-1.2l.1-.1 3.35-.8q1.4-.65 1.7-1.45L64 60.6v.35l-.3 1.35-.3.55-2.1.6" fill="url(#x)"/><linearGradient id="y" gradientUnits="userSpaceOnUse" gradientTransform="matrix(-.0064 -.00005 .001 .00482 59.15 67.75)" x1="-819.2" x2="819.2"><stop offset="0" stop-color="#411f0c"/><stop offset="1" stop-color="#8b4923"/></linearGradient><path d="M58.3 66.85q1.45-1.15 2.7-1.35l-1.75 2.1-.65 1 .95-1L61 66.35l-.7 1.25-1.95 2.75-.95 1.2q.55-1.25 1.5-2.4l.05-.1-.1.1Q57.45 70.2 56.6 72l.25-.65q.4-1.2 1.15-2.4l1.05-1.35.4-.5q-.4.2-.75.5l-1.25 1.2-.95 1.4q.25-.8.75-1.45l.85-1.15.5-.5-.8.5-1.1.95-1.05 1.5q.1-.85.6-1.65l.6-.8 1.6-1.45 1.8-1.1q-1.05.15-2.25.8-.35.15-.7.4l-.95.7 1.4-1.35 1.15-.8q-.7.25-1.3.7-1.35.85-2.4 2.1l-.2.25.05-.25q.4-1.55 2-2.5.6-.45 1.5-.7l.3-.15 2.2-.7.25-.1 2.1-.6-1.6 1.75-.1.05q-1.9.7-3.4 2.2" fill="url(#y)"/><linearGradient id="z" gradientUnits="userSpaceOnUse" gradientTransform="matrix(-.00296 -.00002 .00003 -.00523 57.5 70.2)" x1="-819.2" x2="819.2"><stop offset="0" stop-color="#411f0c"/><stop offset="1" stop-color="#7b401e"/></linearGradient><path d="M56.45 74.1q-.15-.85.5-1.8l.3-.4.1-.15.05-.2.95-1.2 1.95-2.75.7-1.25-1.45 1.25-.95 1 .65-1L61 65.5q-1.25.2-2.7 1.35 1.5-1.5 3.4-2.2-.15 1.65-.75 2.95l-.55.9-.55.7-.1.05-.25.25q-2.25 2.3-2.65 3.7l-.05.25-.05.25.05.5v.35l-.3-.35-.05-.1" fill="url(#z)"/><linearGradient id="A" gradientUnits="userSpaceOnUse" gradientTransform="matrix(-.0031 .01463 .01692 .00557 56.4 55.8)" x1="-819.2" x2="819.2"><stop offset="0" stop-color="#2b1307"/><stop offset=".471" stop-color="#8c512f"/><stop offset="1" stop-color="#401d0b"/></linearGradient><path d="M54.85 54.35l.5-1.25h.15l-.65 1.25m.85.85l-.25.55.2-.55.55-2.1h.3l-.8 2.1m.5.7l.65-2.8h.3l-.95 2.8m1.85-.7l-.3 1.25-.25.95-.3.45-.25.4-.1.25q-1.45 2.15-3.95 3.8l-.4.3h-.05l.2-.3.1-.1q1.2-1.7 1.65-3.5l-.4 2.35 1.35-2.8-.4 1.95 1.5-3.45.1-.3.25-.65.2-.6.6-2.05.05-.05h.85l-.45 2.1" fill="url(#A)"/><linearGradient id="B" gradientUnits="userSpaceOnUse" gradientTransform="matrix(-.00102 -.01001 -.00613 -.00061 54.25 56.5)" x1="-819.2" x2="819.2"><stop offset="0" stop-color="#512a15"/><stop offset=".431" stop-color="#c98c5e"/><stop offset=".973" stop-color="#562d15"/></linearGradient><path d="M50.05 64.2l.05-.25-.05-.35.9-2.8v-.05q.55-1.95 1.4-3.55l1.9-2.9.65-1.2h.45l-.5 1.25.65-1.25h.7l-.55 2.1-.2.55.25-.55.8-2.1h.35l-.65 2.8.95-2.8h.5l-.05.05-.6 2.05-.2.6-.25.65-.1.3-1.5 3.45.4-1.95-1.35 2.8.4-2.35q-.45 1.8-1.65 3.5l-.1.1-.2.3-.8.45.15-.75.15-.75q.35-2.15 1.2-4.2l.4-.9.3-.65.2-.5-.3.5-.45.65-.55.85q-.95 1.7-1.45 3.75l-.25 1.25-.2 1.25-.2.15-.6.5M52 62.4l.05-.05v-.05l1.25-3.15-.1 1.55q.5-1.45 1.35-3.1l.55-1.15.1-.2-.2.2-.8 1.1-.2.35.05-.4.35-1.05.3-.65.25-.6.55-1.2-1.45 1.9-.05.15-.15.4-.35.95-.7 1.95-.05.2q-.45 1.05-.65 2.15l-.1.6v.1" fill="url(#B)"/><linearGradient id="C" gradientUnits="userSpaceOnUse" gradientTransform="matrix(-.0078 .00847 .01054 .00893 54.85 64.6)" x1="-819.2" x2="819.2"><stop offset="0" stop-color="#411f0c"/><stop offset=".525" stop-color="#8b4923"/><stop offset="1" stop-color="#502710"/></linearGradient><path d="M54.75 75.2l1.2.5 1 .15-.1.55-1.6-.1.2.15q-2.35-.25-3.7-1.35v-.05q2.2 1.05 4.25.75-.75-.1-1.4-.65h.05l.1.05M55 75q-1.1-.2-2.5-1.25l-.05-.05-.15-.2-.2-.15v-.1l-.1-.05-1.05-1.35-.3-.45q-.8-1.4-1-2.9l.05-.25.05-.4.05-.15.05-.1.15-1.05.55-1.35-1.2 1.25-.3.4.2-.4q.45-1.1 1.4-2 .85-.75 2.05-1.4l.15-.1.5-.3.5-.35 2.3-1.95h.05l1.15-1.8.05-.15.4-1.15-.6.6.3-.45.5-.95.3-.65.25-.6.15-.4.7-1.7h.2l-.35 1.15-.25.95-.2.6-.2.65-.85 2.05-.3.65Q56.35 61 54.4 62.3l-.8.55-.05.05q-1.95 1.85-2.5 3.8l-.15.7.3-.65q.7-1.4 1.8-2.35-.85 1.25-1.15 2.5l-.05.7v.85l.15.7.1.35.05.1q.4 1.25 1.2 2.35l-1.6-1.8-.55-.95-.3-.65-.05-.3-.1.2v1.4l.55 1.4.75 1.25q1.1 1.55 3 2.5" fill="url(#C)"/><linearGradient id="D" gradientUnits="userSpaceOnUse" gradientTransform="matrix(-.00604 .00157 .00284 .00587 52.7 57.5)" x1="-819.2" x2="819.2"><stop offset="0" stop-color="#7f5137"/><stop offset=".478" stop-color="#e8b586"/><stop offset="1" stop-color="#8c5b3d"/></linearGradient><path d="M54.25 54.3l-1.9 2.9q-.85 1.6-1.4 3.55v.05l-.9 2.8.15-1.3q.1-1 .35-1.95l.1-.3q.5-1.55 1.3-2.9l.45-.7.5-.65.1-.15.05-.25.15-.2 1.3-2.1h.4l-.65 1.2" fill="url(#D)"/><linearGradient id="E" gradientUnits="userSpaceOnUse" gradientTransform="matrix(-.0028 .0053 .00407 .00241 53.55 58.55)" x1="-819.2" x2="819.2"><stop offset="0" stop-color="#7f5137"/><stop offset=".478" stop-color="#e8b586"/><stop offset="1" stop-color="#8c5b3d"/></linearGradient><path d="M52 62.3l.1-.6q.2-1.1.65-2.15l.05-.2.7-1.95.35-.95.15-.4.05-.15L55.5 54l-.55 1.2-.25.6-.3.65-.35 1.05-.05.4.2-.35.8-1.1.2-.2-.1.2-.55 1.15q-.85 1.65-1.35 3.1l.1-1.55-1.25 3.15H52" fill="url(#E)"/><linearGradient id="F" gradientUnits="userSpaceOnUse" gradientTransform="matrix(-.00293 .00575 .00406 .00237 52.75 58.05)" x1="-819.2" x2="819.2"><stop offset="0" stop-color="#7f5137"/><stop offset=".478" stop-color="#e8b586"/><stop offset="1" stop-color="#8c5b3d"/></linearGradient><path d="M50.85 63.55l.2-1.25.25-1.25q.5-2.05 1.45-3.75l.55-.85.45-.65.3-.5-.2.5-.3.65-.4.9q-.85 2.05-1.2 4.2l-.15.75-.15.75-.35.2-.1.05-.35.25" fill="url(#F)"/><linearGradient id="G" gradientUnits="userSpaceOnUse" gradientTransform="matrix(-.00336 .0086 .00967 .00478 55 66.55)" x1="-819.2" x2="819.2"><stop offset="0" stop-color="#6e3e27"/><stop offset=".537" stop-color="#b97747"/><stop offset="1" stop-color="#724128"/></linearGradient><path d="M54.65 75.15l-.1-.05.05.05q.65.55 1.4.65-2.05.3-4.25-.75v.05q.5.9 1.85 1.55-1.75-.55-2.95-1.5l-.5-.5q-.8-.85-1.25-1.9l-.1-.25q-.6-1.55-.55-3.5.15 2.75 2.1 4.7l.1.1.2.1q1.75 1 3 1.1-1.55-.55-3-1.95l-.1-.05-.1-.1 2 .8.05.05Q53.9 74.8 55 75q-1.9-.95-3-2.5 1.7 1.65 4.65 2.95l-1.9-.25-.1-.05m3.15-17.9l-.4 1.15-.05.15-1.15 1.8h-.05l-2.3 1.95-.5.35-.5.3-.15.1q-1.2.65-2.05 1.4-.95.9-1.4 2l-.2.4.3-.4 1.2-1.25-.55 1.35-.15 1.05-.05.1-.05.15-.05.4-.05.25q.2 1.5 1 2.9l.3.45L52 73.2l.1.05v.05l-1.3-1.05-.15-.15-.2-.2q-1.55-1.75-1.65-3.85v-.45l.1-1.05.05-.15v-.3q.4-.8 1.05-1.5l2.45-2h.05l.4-.3q2.5-1.65 3.95-3.8l.1-.25.25-.4.6-.6" fill="url(#G)"/><linearGradient id="H" gradientUnits="userSpaceOnUse" gradientTransform="matrix(-.00491 .0121 .00647 .00327 52.25 65.75)" x1="-819.2" x2="819.2"><stop offset="0" stop-color="#7f5137"/><stop offset=".478" stop-color="#e8b586"/><stop offset="1" stop-color="#8c5b3d"/></linearGradient><path d="M50.65 63.7l.2-.15.35-.25.1-.05.35-.2.8-.45-2.45 2q-.65.7-1.05 1.5v.3l-.05.15-.1 1.05v.45q.1 2.1 1.65 3.85l.2.2.15.15 1.3 1.05v.05l.2.15.15.2-2-.8.1.1.1.05q1.45 1.4 3 1.95-1.25-.1-3-1.1l-.2-.1-.1-.1q-1.95-1.95-2.1-4.7l.05-1.1v-.2l.05-.1v-.45l.05-.35.15-.35q.4-1.2 1.5-2.25l.6-.5" fill="url(#H)"/><linearGradient id="I" gradientUnits="userSpaceOnUse" gradientTransform="matrix(-.0055 .00142 .00095 .00194 57.45 64.9)" x1="-819.2" x2="819.2"><stop offset="0" stop-color="#995b38"/><stop offset=".463" stop-color="#c78763"/><stop offset="1" stop-color="#7e3d18"/></linearGradient><path d="M59.4 63.45l1.35-.1q-2.25.4-4.05 1.5l-.2.15q-1.1.9-1.75 2.3-.1-.95.8-2.25l.6-.55q1.6-1.3 4.05-2.2l.6-.2-.3.2-1.1 1.15" fill="url(#I)"/><linearGradient id="J" gradientUnits="userSpaceOnUse" gradientTransform="matrix(-.0045 .00116 .00337 .00696 56.55 68.4)" x1="-819.2" x2="819.2"><stop offset="0" stop-color="#904e28"/><stop offset="1" stop-color="#421c08"/></linearGradient><path d="M56.5 74.2l.3.35.05.3-1.45-1.1q-1.15-1.7-1.65-3.4l-.05-.3q-.3-1.25-.25-2.45v-.2q.1-1.25.5-2.5l.05-.35.3-.6.3-.45 1.05-1.2q-.6.8-.7 1.45-.1.45.05.8l.45-.45q1-.95 2.25-1.3-1.15.65-1.95 1.45-.9.9-1.3 2.05l-.2 1.3v.05l.15 1.95.1.5.1.4.1.2q.5 1.7 1.75 3.4l.05.1" fill="url(#J)"/><linearGradient id="K" gradientUnits="userSpaceOnUse" gradientTransform="matrix(-.0026 .00058 .00117 .00266 56.05 68.95)" x1="-819.2" x2="819.2"><stop offset="0" stop-color="#995b38"/><stop offset=".447" stop-color="#c1815e"/><stop offset="1" stop-color="#7e3d18"/></linearGradient><path d="M57.35 66.25l-1 1.35-.35.7-.6 2.15 1.35-1.55q-.7 1.1-.95 2.05V71l-.05.1-.1.5 1.75-1.95q-.5.75-.75 1.6l-.05.1-.3 1.35-.2-1.1-.2 1.1-.5-1.35-.25.35V70l-.35.5.4-1.7-.45.35.65-1.05.4-.5q.65-.8 1.55-1.35" fill="url(#K)"/><linearGradient id="L" gradientUnits="userSpaceOnUse" gradientTransform="matrix(-.0028 .0053 .00407 .00241 53.55 58.55)" x1="-819.2" x2="819.2"><stop offset="0" stop-color="#6e3e27"/><stop offset=".537" stop-color="#b97747"/><stop offset="1" stop-color="#724128"/></linearGradient><path d="M52.05 62.3v.05l-.05.05v-.1h.05" fill="url(#L)"/><linearGradient id="M" gradientUnits="userSpaceOnUse" gradientTransform="matrix(-.00294 .0021 .0032 .00359 58.5 73.95)" x1="-819.2" x2="819.2"><stop offset="0" stop-color="#230f01"/><stop offset=".412" stop-color="#421807"/><stop offset="1" stop-color="#240f01"/></linearGradient><path d="M58.1 76.1l.2-.1q1.65-1.55 1.95-2.95l-1.1.95q.95-1.65.7-3.7l-1.4 3.55.65-3.05q-1.45 1.85-2.2 4.45l-.05-.4-.05-.3v-.35l-.05-.5.05-.25.05-.25q.4-1.4 2.65-3.7l.25-.25q1.4 3.2 1.8 5.6l-.05.1q-.05 1.35-1.1 1.75l-1.6.35h-.5q1-.25 1.75-.95 1.15-.9.95-2.55l-.65.7-.55.7q-.8.8-1.7 1.15" fill="url(#M)"/><linearGradient id="N" gradientUnits="userSpaceOnUse" gradientTransform="matrix(-.0035 .00366 .00258 .00224 58.2 74.45)" x1="-819.2" x2="819.2"><stop offset="0" stop-color="#321303"/><stop offset=".396" stop-color="#623116"/><stop offset="1" stop-color="#321304"/></linearGradient><path d="M58.9 76.5q1.1-.7 1.7-1.95l-.8.4.55-.7.65-.7q.2 1.65-.95 2.55-.75.7-1.75.95l-1.1-.2 1.7-.35m-1.65-.1h-.4l.1-.55-.05-.6q.75-2.6 2.2-4.45l-.65 3.05 1.4-3.55q.25 2.05-.7 3.7l1.1-.95q-.3 1.4-1.95 2.95l-.2.1-.85.3" fill="url(#N)"/><linearGradient id="O" gradientUnits="userSpaceOnUse" gradientTransform="matrix(-.00562 .00145 .00043 .00087 58.2 75.95)" x1="-819.2" x2="819.2"><stop offset="0" stop-color="#49210b"/><stop offset=".376" stop-color="#8b4923"/><stop offset="1" stop-color="#48200b"/></linearGradient><path d="M55.25 76.3l1.6.1h.4l.85-.3q.9-.35 1.7-1.15l.8-.4q-.6 1.25-1.7 1.95l-1.7.35h-.15l-1.6-.4-.2-.15" fill="url(#O)"/><path d="M48.35 67.55v-.4" fill="none" stroke-width=".05" stroke-linecap="round" stroke-linejoin="round" stroke-miterlimit="3" stroke="red"/><radialGradient id="P" gradientUnits="userSpaceOnUse" gradientTransform="matrix(.01813 0 0 .01892 68.1 26.45)" spreadMethod="pad" cx="0" cy="0" r="819.2" fx="0" fy="0"><stop offset=".361" stop-color="#e34b21" stop-opacity=".4"/><stop offset="1" stop-color="#f5c4a9" stop-opacity=".133"/></radialGradient><path d="M78.85 28.55v8.55l-.35-2.05-.15-.1-.15-.15-.2-.35.25.7q-.65-.45-1.1-1.3l.65 1.4-.75-1.15-.95-1.85-1.45-3.45-.2-.65-.1-.4.05.4 1.05 3 .05.2.1.2-.05-.2.1.25.25.65.15.35.25.6 1 2.15-.9-1.4.75 1.6-.65-.75.25.5.1.1v.05l.3.4-.25-.25-1.25-1.6-.2-.35-.15-.25-.3-.45-.1-.15v-.05l-.25-.4-.15-.25-.25-.5-.15-.35.2.65.2.45.55 1.05.35.65.05.1-.1-.1q-1.7-2.15-2.4-3.95l-.05 1.65q0 1.05-.7 2.3l-.05.05v.2l-.05.05v-.15l-.4.65-.1.05v.05l-.15.15v.05l-.15.1-.15.15.05-.2.1-.2h-.05q-.3.25-.65.45l.2-.4h-.05l-.25.25-.05.05-.3.2.15-.45v-.05l-.05.05-.3.3.2-.4.25-.6.8-2.8v-.2l.05-.25v-.05l-.05-.2-.05.25-.1.4v.05l-.35 1.35-.1.25-.1.2-.35.7-.15.3v.1h-.05l-.1.2-.65.95-.45.45.45-.65.5-.85.3-.65.55-1.55-.75 1.3.75-2-.2.4q.6-1.95.5-3.8-.6 1.8-1.6 3.15l-.4.55-.85 1-.15.2-1.9 1.8-.1.05-.5.15.45-.55-.3.3-.1.1-.4.4-.45.35.45-.45.4-.45 1.6-2.3.05-.05.65-1.2.2-.4v-.05l-.15.3-.05-.05v.05l-.05.05-.85 1.35-1.1 1.35-.05.1-.2.2-.05.05-.35.35-.05.1-.15.15-.9.75.2-.25.85-1.1.25-.3.15-.25.35-.55.3-.5-.4.5-.2.25-.05.1-.4.45-.8.9-.1.1-.15.15-.25.25-.2.15 1.5-1.7 1-1.25.4-.55q1.25-1.85 1.6-3.35l-1.95 3.1-.65.8-.4.45-1.65 1.55 1.55-3.25h.05l.1-.45.15-.35-.2.3-.15.35-.1.15-.05.15-.05.1-.1.1v.1l-.15.3-.05.1-.05.05v.05L63 34.75l-.5.7.2-.45.05-.1.25-.85-.4.7-.35.5-.1.2v.15l-.05.05-.1.65-.05.3-.05.3-.1.65-.05.15h-.4V26.5h8.9v.05h.2v-.05h8.4v2.05m-4.55-.9l-.05-.15v.15h.05m-2.15-.25h.05l-.05-.1v.1m.05 3.1v.05h.05l-.05-.05m5.3 6.45v-.05h.05l-.05.05m-9.4-6.65h.05v-.1l-.05.1m-5.6 5v-.1l.05-.15v.05h.05l-.05.1-.05.1m6.2-4.35l.1-.25-.15.25h.05m-2.65 2l.05.05v-.05h-.05" fill="url(#P)"/><linearGradient id="Q" gradientUnits="userSpaceOnUse" gradientTransform="matrix(-.00542 -.0045 .00717 -.00865 77.85 26.65)" x1="-819.2" x2="819.2"><stop offset="0" stop-color="#612e0b"/><stop offset=".839" stop-color="#d48741"/><stop offset=".988" stop-color="#a4612a"/></linearGradient><path d="M75.95 19.7l-.8-.4-.1-.05v.05l-1.55-.45-1.75-.25.1-.1.55-.2h1.05l.2.1h.55l.6.15q.35.05.7.25l.5.3h.05v-.05l1.8 1.1.05.05 2.35 2.45 1.7 2.75.1.2.2.65.25.65.1.4.7 3.2.1.8v.25l.05.25.05 1.7-.25 2.6-.15-.15v-.05l-.05-.05-.15-.15h-.05l-.2-.35q0-1.95-.8-4.3 1 1.55 1.15 3.45.1-2.8-.6-5.65l-.2-.85-.8-2.35-.15-.3-.1-.25-.35-.7-.15-.2-1.7-2.3-1.6-1.4-.85-.5-.55-.3" fill="url(#Q)"/><linearGradient id="R" gradientUnits="userSpaceOnUse" gradientTransform="matrix(-.00192 -.00717 -.00725 .0038 80.25 27.9)" x1="-819.2" x2="819.2"><stop offset="0" stop-color="#82400f"/><stop offset=".957" stop-color="#c79255"/></linearGradient><path d="M75.4 19.7l-1.3-.5-.7-.35h.1l1.55.45.1.05v-.05l.8.4.5.35.05-.05.85.5 1.6 1.4 1.7 2.3.15.2.35.7.1.25.15.3.8 2.35.2.85q.7 2.85.6 5.65-.15-1.9-1.15-3.45.8 2.35.8 4.3l-.15-.25-.35-.6-.1-.2-.25-.6-.1-.15-.05-.05-.45-1.1-.15-.35-.15-.55-.15-.6v-.05l.05.05.9 1.2-.05-.25-.05-.35-.2-.7-.85-2.75-.05-.2-.15-.55-.2-.65-.75-2.5.45.75.6 1.25.4 1 .05.15.1.3.7 2.5-.5-2.6-.05-.2-.35-1.15-.35-.9-.15-.45-.45-.95-.3-.65-.1-.3-.5-.65-.05-.05.05-.05-.15-.1v.05l-1.65-1.45q-.8-.55-1.75-.95m.35-.8l.3.15v.05l-.3-.2m-1.55-.5H74v-.05l.2.05m7.65 8.8l-1.45-2.95-.75-1.1.9 1.6.55 1.45.35 1.1.05.05.75 3.3.05.35v-.35l-.4-3.05-.05-.3v-.1m-2.1-4.15l.25.3-.2-.35-.05.05" fill="url(#R)"/><linearGradient id="S" gradientUnits="userSpaceOnUse" gradientTransform="matrix(-.00342 -.00534 -.00606 .00633 80.95 30.3)" x1="-819.2" x2="819.2"><stop offset="0" stop-color="#945521"/><stop offset=".98" stop-color="#d99867"/></linearGradient><path d="M79.65 31.35l-.1-.2-.25-1.2-.15-.65-.15-.6-.35-1.15-.1-.25-.45-1.2-.1-.3.15.3.45.8.25.4.05.15.05.1.2.5-.15-.4.15.25.15.35v-.6l.25.75.15.65.8 2.6-.8-4.05-.05-.15-.05-.15-.3-.8-.15-.4-.15-.3-.4-.8-.35-.6L78 24l-.3-.5.2.3.15.15.3.35.2.25.25.45.25.35-.15-.3.7 1.1.3.5-.2-.5-.45-1.2-.5-1.05-.25-.45-.2-.3-.85-1.45v-.05l-.1-.1h.05l1.4 1.4.25.35.15.25.4.65.25.35.05.05.2.25.25.4-.55-1.4-.3-.6-.4-.75-.2-.3-.1-.15.15.1-.05.05.05.05.5.65.1.3.3.65.45.95.15.45.35.9.35 1.15.05.2.5 2.6-.7-2.5-.1-.3-.05-.15-.4-1-.6-1.25-.45-.75.75 2.5.2.65.15.55.05.2.85 2.75.2.7.05.35.05.25-.9-1.2-.05-.05v.05l.15.6.15.55.15.35.45 1.1.05.05.1.15.25.6.1.2.35.6.15.25.2.35-.2-.2-.4-.4-.25-.25-.2-.25-.45-.6-.3-.5-.1-.2-.35-.7-.15-.35-.2-.7-.05-.05-.05-.1-.1-.3.05.3v.25l.1.65.1.4.15.45.05.1.15.25.45.85.4.65.1.1.05.05.85.85.25.2h-1.4l-.35-.55-.1-.25-.1-.3-.05-.15 1.3 1.1-.7-.8-.1-.15-.35-.55-.5-1.05-.2-.45-.15-.3-.1-.35-.1-.2-.1-.3-.05-.1v-.1l-.05-.1v-.25m2.2-4.05l.05.3.4 3.05V31l-.05-.35-.75-3.3-.05-.05-.35-1.1-.55-1.45-.9-1.6.75 1.1 1.45 2.95v.1" fill="url(#S)"/><linearGradient id="T" gradientUnits="userSpaceOnUse" gradientTransform="matrix(-.00288 0 -.00043 .00543 82.05 35.55)" x1="-819.2" x2="819.2"><stop offset="0" stop-color="#b77946"/><stop offset=".424" stop-color="#e3a36f"/><stop offset=".973" stop-color="#c38650"/></linearGradient><path d="M83.4 36.2h-.65l-.25-.2-.85-.85-.05-.05-.1-.1-.4-.65-.45-.85-.15-.25-.05-.1-.15-.45-.1-.4-.1-.65v-.25l-.05-.3.1.3.05.1.05.05.2.7.15.35.35.7.1.2.3.5.45.6.2.25.25.25.4.4.2.2h.05l.15.15.05.05v.05l.15.15.15.1" fill="url(#T)"/><path d="M80.7 36.05l-.25-.55v-.05l-.15-.3v-.05l-.5-1.6-.15-.55v-.05l-.05-.35-.1-.55-.05-.1-.05-.4v-.15l-.05-.15-.05-.15v.2l.05.1v.15l.05.55v.55l.05.3v.1l.1.5.15 1.15.1.45.1.4v.05l.1.45-.25-.4-.05-.05-.25-.4-.15-.25-.15-.25-.15-.25-.5-1.35-.05-.1v-.2l-.1-.3-.3-.95-.05-.1-.15-.35-.05-.15-.2-.7-.05-.1-.05-.2v-.2l-.35-2.35.1.2.15.65.05.1.15.45.2.65.1.7.2.7.05.1.2.5v.1h.05l.3.75.05.1.15.4.05.1.1.15.05.15.05.2.05.15v.05l.1.2v-.25l-.1-.35v-.75l-.05-.2v-.05L79 31.5l-.05-.1v-.1l-.05-.4-.05-.1-.1-.2-.6-3.2 1.3 3.5v.05l.2.55v.1l.05.1v.1l.05.1.1.3.1.2.1.35.15.3.2.45.5 1.05.35.55.1.15.7.8-1.3-1.1.05.15.1.3.1.25.35.55 1.55 1.55.15.15.6.45.05.05v.45l-.1-.05-.15-.1-.1-.05-.05-.05-.1-.05-.1-.1-.1-.05-.05-.05-.1-.1-1.8-1.7-.25-.3v-.05l-.1-.15" fill="#934b21"/><linearGradient id="U" gradientUnits="userSpaceOnUse" gradientTransform="matrix(-.00288 0 -.00043 .005 82.05 35.6)" x1="-819.2" x2="819.2"><stop offset="0" stop-color="#b77946"/><stop offset=".424" stop-color="#e3a36f"/><stop offset=".973" stop-color="#c38650"/></linearGradient><path d="M84.15 38.35l-.05.5H84v-.5l-.25-1-.2-.25-.35-.6h-.05l-.15-.1-.25-.2h.65q.85.9.75 2.15" fill="url(#U)"/><linearGradient id="V" gradientUnits="userSpaceOnUse" gradientTransform="matrix(-.00342 -.00491 -.00606 .00583 80.95 30.75)" x1="-819.2" x2="819.2"><stop offset="0" stop-color="#945521"/><stop offset=".98" stop-color="#d99867"/></linearGradient><path d="M83.65 38.35l-.6-.45-.15-.15-1.55-1.55h1.4l.25.2.15.1h.05l.35.6-.25-.25-.1-.05.05.1.45 1.45v.05l-.05-.05" fill="url(#V)"/><linearGradient id="W" gradientUnits="userSpaceOnUse" gradientTransform="matrix(-.00172 -.00104 -.00082 .00162 82.1 39.05)" x1="-819.2" x2="819.2"><stop offset="0" stop-color="#884e29"/><stop offset=".914" stop-color="#632a0c"/></linearGradient><path d="M81.85 38.3l-.8-.7 1.05.65-.25.05m-.75.55l-.15.15-.2-.4-.25-.45.25.2.5.35-.15.15" fill="url(#W)"/><linearGradient id="X" gradientUnits="userSpaceOnUse" gradientTransform="matrix(-.00304 -.00388 -.00363 .00383 81.1 35.3)" x1="-819.2" x2="819.2"><stop offset="0" stop-color="#6a2d0f"/><stop offset=".455" stop-color="#451e01"/><stop offset=".929" stop-color="#6b310e"/></linearGradient><path d="M83.7 38.85h-.1l-.15-.15.15.1.1.05m-4-1.9v-.75h.05l.4.4-.1-.4h.75v.05l.25.3 1.8 1.7.1.1.05.05.1.05.1.1.1.05-.6-.1q-.75 0-1.45.95l-1 1.8-.75 1.45.5-2.55-.05-1.55q-.05-.85-.8 2.95l.55-4.6m2.4 1.3l-1.05-.65.8.7.25-.05m-.85.45l-.5-.35-.25-.2.25.45.2.4.15-.15.15-.15" fill="url(#X)"/><linearGradient id="Y" gradientUnits="userSpaceOnUse" gradientTransform="matrix(.00612 -.01137 .00671 .00362 63.15 27.1)" x1="-819.2" x2="819.2"><stop offset="0" stop-color="#612e0b"/><stop offset=".839" stop-color="#d48741"/><stop offset=".992" stop-color="#aa662d"/></linearGradient><path d="M57.55 35.4l-.3.4h-.05l-.1.1-.05.05V36l-.15.1-.05-2.6q.05-3.3 1-6.2l.15-.4q.45-1.45 1.2-2.75l.3-.55.6-.9q1.1-1.4 2.4-2.3 2.4-1.8 5.35-2.05l1.5.2-1.6.05-.55.05-.15.05-1.5.4.4-.05.3-.05q-1.9.7-3.4 1.9l.7-.75-.6.45-.6.5-.15.15-.55.55-1.45 2-.6 1q-1.5 2.75-2.15 6.65l.6-1.2-.05.5q-.6 2.4-.45 4.65" fill="url(#Y)"/><linearGradient id="Z" gradientUnits="userSpaceOnUse" gradientTransform="matrix(.00214 -.00711 .00789 .00375 60.2 28)" x1="-819.2" x2="819.2"><stop offset="0" stop-color="#82400f"/><stop offset=".957" stop-color="#c79255"/></linearGradient><path d="M66.25 19l.95-.35.55-.05.3.1-.6.35-1.75.6.05-.05-.15.1-1.1.5q-1.45.75-2.3 1.45l.65-.75q1.5-1.2 3.4-1.9m-8.8 12.45q.65-3.9 2.15-6.65l.6-1 .85-1.15.1.1-1.35 2.3-.5.75-.7 1.55v-.05l-.05.05-.2.65-.1.8-.05.3-.05.2-.05.7v.15l-.05.1-.6 1.2m.55-.7v.35l.15-.85.05-.25.2-.75.55-1.95.2-.45.7-1.7q.55-1.25 1.25-2.1l-.45.95-.65 1.35-.05.05-.5 1.4-.2.5-.65 2.9 1-2.9v-.05l.2-.45.45-1.05.85-1.5.1-.1-.85 2.6-.05.05-.15.5-.3.9-.75 2.05-.5 1.9 1.05-1.2-.95 2.55-.05.1-.45.75-.45.75-.2.3q-.15-2.25.45-4.65m8.05-11.45v-.05l-.1.1v.05H66l.05-.1" fill="url(#Z)"/><linearGradient id="aa" gradientUnits="userSpaceOnUse" gradientTransform="matrix(.0026 -.00392 .00284 .00252 63.7 21.9)" x1="-819.2" x2="819.2"><stop offset="0" stop-color="#e2a777"/><stop offset=".455" stop-color="#ffe7c9"/><stop offset=".973" stop-color="#d59d6d"/></linearGradient><path d="M60.65 24.55l.7-1.15 1.2-1.6 1.75-1.35 1.3-.75.15-.1-.05.05-1.2 1.45-.95 1.3-.7 1.15-.35.5-.3.45-.1.2-.6.85.25-.4.45-.95.15-.3.4-.8.75-1.35.45-.65-.45.35-.95.7-.35.3-.1.1-.35.45q-.65.8-1.15 1.7l.05-.15M66 19.4h-.05v-.05l.1-.1v.05l-.05.1" fill="url(#aa)"/><linearGradient id="ab" gradientUnits="userSpaceOnUse" gradientTransform="matrix(.00473 -.0092 .01125 .00824 65.25 25.05)" x1="-819.2" x2="819.2"><stop offset="0" stop-color="#a8662e"/><stop offset=".439" stop-color="#eebe97"/><stop offset=".973" stop-color="#c38650"/></linearGradient><path d="M61.25 25.8l-.25.35-.2.3-.15.3.1-.35q.55-1.5 1.35-2.85l.1-.1.15-.15.35-.6.5-.8.05-.05.1-.15-.75.55-.4.4-.4.5-1.2 1.55q.5-.9 1.15-1.7l.35-.45.1-.1.35-.3.95-.7.45-.35-.45.65-.75 1.35-.4.8-.15.3-.45.95-.5.65m1.2 1.5l.05-.15.1-.35.05-.15.35-.85.25-.65.15-.4.05-.05.25-.55.15-.15-.15.1-.35.6-.15.3-.35.55-.1.25-.5.85-.05.05-.35.6-.15.25.1-.25.3-.65.1-.2.4-.65.55-.95.1-.2.45-.7.35-.55.3-.45 1.45-2.1-.45.45-1.7 1.95-.1.1-.5 1-.1.1-.6 1.35-.15.25-.25.6-.2.65-.1.25v.05l-.1.2-.05.15V28l-.3.35.15-.9.05-.15.3-.6.45-.9v-.15l.05-.1.05-.1.55-1.2.15-.25.55-.95.1-.15.1-.2-.1.15-.65.8-.05.15-.15.15-.15.15-.4.5-.1.1.1-.2.3-.45.35-.5.7-1.15.95-1.3 1.2-1.45 1.75-.6h.25q-.95.35-1.7.95l-1.2 1.2-.5.75.65-.7 1.1-.95 1.35-.55q-.8.35-1.3 1.1l-.15.15.15-.1q.95-.8 2.05-.95l.2-.1-.2.15q-1.05.45-1.95 1.45l-.05.05-.7 1 .7-.6.6-.35.2-.15-.75 1.2 1.15-1 .85-.7-.25.35-1.85 1.55-.4.2.7-1.05-1.2 1.1-.25.45-1 1.85-.15.3-.05.15-.25.55-.1.25-.05.2-.2.4.15-.6.15-.45.15-.35.1-.3.1-.15.05-.1.95-1.75.25-.55.1-.2-.55.7-.85 1.15-.2.25-.25.5-.2.45-.4.85-.2.65-.05.15v-.15m2.05-7.1l1.1-.5-1.3.75-1.75 1.35-1.2 1.6-.7 1.15-.05.15v.05l-.5.6.2-.3.4-1.05q.35-.75.85-1.35l.3-.45-.25.25.6-.8q.85-.7 2.3-1.45m.4 7.25h.05l-.05.1v.05l-.05.05.05-.1v-.1m-.6 2.45v-.05h.05l-.05.05" fill="url(#ab)"/><linearGradient id="ac" gradientUnits="userSpaceOnUse" gradientTransform="matrix(.00288 -.0044 .00041 .00038 63.8 23.2)" x1="-819.2" x2="819.2"><stop offset="0" stop-color="#e2a777"/><stop offset=".455" stop-color="#ffe7c9"/><stop offset=".973" stop-color="#d59d6d"/></linearGradient><path d="M61.7 27.55l-.05.1-.15.35v-.05l.05-.15.1-.2v-.05l.1-.25.2-.65.25-.6.15-.25.6-1.35.1-.1.5-1 .1-.1 1.7-1.95.45-.45-1.45 2.1-.3.45-.35.55-.45.7-.1.2-.55.95-.4.65-.1.2-.3.65-.1.25" fill="url(#ac)"/><linearGradient id="ad" gradientUnits="userSpaceOnUse" gradientTransform="matrix(.00375 -.0053 .0066 .00627 59.45 30.4)" x1="-819.2" x2="819.2"><stop offset="0" stop-color="#945521"/><stop offset=".98" stop-color="#d99867"/></linearGradient><path d="M62.2 24.6l.4-.5.15-.15.15-.15-.25.35-.45.7-.5.95-.45.9-.1.25-.15.35-.15.35-.1.1-.65 3.1-.1.9.75-2.55.25-.8.35-.95-.15.9.3-.35.15-.35.05-.1.15-.25.35-.6.05-.05.5-.85-.35.85-.2.4-.1.25-.05.25-.15.4-.15.35-.1.3-.5 1.65-.15.6-.2.85v.1l-.05.1-.15.35-.15.5-.15.4-.2.35-.05.1-1 1.5-.15.2-.7.8 1.45-1.1v.1l-.35.6-.3.5h-1.5l1.2-1.1.05-.05 1.05-1.45.05-.1.05-.15q.45-.95.5-2.15-.35 1.25-1.05 2.3l-.1.1-.85 1.05-.4.45-.75.7.3-.4.2-.3.45-.75.45-.75.05-.1.95-2.55-1.05 1.2.5-1.9.75-2.05.3-.9.15-.5.05-.05.85-2.6-.1.1-.85 1.5-.45 1.05-.2.45v.05l-1 2.9.65-2.9.2-.5.5-1.4.05-.05.65-1.35.45-.95q-.7.85-1.25 2.1l-.7 1.7-.2.45-.55 1.95-.2.75-.05.25-.15.85v-.35l.05-.5.05-.1V30l.05-.7.05-.2.05-.3.1-.8.2-.65.05-.05v.05l.7-1.55.5-.75 1.35-2.3-.1-.1-.85 1.15 1.45-2 .55-.55.15-.15.6-.5.6-.45-.7.75-.65.75-.6.8.25-.25-.3.45q-.5.6-.85 1.35l-.4 1.05-.2.3.5-.6v-.05l1.2-1.55.4-.5.4-.4.75-.55-.1.15-.05.05-.5.8-.35.6-.15.15-.1.1q-.8 1.35-1.35 2.85l-.1.35.15-.3.2-.3.25-.35.5-.65-.25.4.6-.85.1-.1" fill="url(#ad)"/><linearGradient id="ae" gradientUnits="userSpaceOnUse" gradientTransform="matrix(.00276 0 .00046 .0055 61.85 27.2)" x1="-819.2" x2="819.2"><stop offset=".02" stop-color="#965c31"/><stop offset=".941" stop-color="#b8825a"/></linearGradient><path d="M61.35 27.45l-.35.95-.25.8-.75 2.55.1-.9.65-3.1.1-.1.15-.35.15-.35.1-.25.45-.9.5-.95.45-.7.25-.35.05-.15.65-.8.1-.15-.1.2-.1.15-.55.95-.15.25-.55 1.2-.05.1-.05.1v.15l-.45.9-.3.6-.05.15" fill="url(#ae)"/><linearGradient id="af" gradientUnits="userSpaceOnUse" gradientTransform="matrix(.0026 -.00984 .01006 .00438 62.95 32.7)" x1="-819.2" x2="819.2"><stop offset="0" stop-color="#9b5935"/><stop offset="1" stop-color="#c48052"/></linearGradient><path d="M62.9 25.8l.1-.35-.15.35-.7 1.5-.1.25.05-.25.1-.25.2-.4.35-.85.1-.25.35-.55.15-.3.35-.6.15-.1-.15.15-.25.55-.05.05-.15.4-.25.65-.35.85.25-.85m1 0l1.5-2.25.7-.75 1.85-1.55-.25.4-.2.3-.5.35v.05q-.65.5-1.15 1.15l-.1.1-.3.4-.05.05-.2.25-.1.15-.4.8-.25.55h-.05l-.1.15-.15.2-.2.4-.3.75-.05.15-.05.1v.05l-.25.7v.15l-.05.05v.1l-.25.5v.1l-.1.15-.4 1.15v-.25l.3-1.1.3-.95.1-.3-.15.2-.35.65.25-1-.4 1.1-.3.95-.05-.05-.25.9-.2.85-.1.45-.05.25-.2 1.3-.1.55.05.05-.15.7-.2.85-.1.55h-.1l.2-1.9.1-.8.3-1.55v-.15l.25-1.1.05-.05.5-2.3.2-.8.05-.2v.1l.05-.15.2-.65.4-.85.2-.45.25-.5.2-.25.85-1.15.55-.7-.1.2-.25.55-.95 1.75-.05.1-.1.15-.1.3-.15.35-.15.45-.15.6.2-.4.55-1" fill="url(#af)"/><linearGradient id="ag" gradientUnits="userSpaceOnUse" gradientTransform="matrix(-.0046 .009 -.0085 -.00511 65.95 27.65)" x1="-819.2" x2="819.2"><stop offset=".255" stop-color="#482110"/><stop offset=".502" stop-color="#724224"/><stop offset="1" stop-color="#6c2d03"/></linearGradient><path d="M65.75 34.8l-.7.45.45-.55 1.6-1.5h.05l.65-.65v.05l-2.05 2.2m3.5-6.65l.05-.1V28l-.05.15M63.8 33.6l-.1.1h-.05l.2-.25.05-.05.05-.05v-.05l.5-.75-.25.5-.2.2v.05h.1l-.1.05-.1.05v.05l-.1.15m-.3.3l-.9.9.35-.4.35-.45.05-.25h.05l.1-.2.1-.1.05-.05.25-.5.1-.2-.5 1.25m1.3-3.25l-.1.25-.05.1-.15.4-.05.1-.15.25v.05l-.05.15-.1.2-.25.5-.4.7-.1.15-.05.05-.05.05v.1l-.05.05-.5.75 1.15-2.05.85-1.8L65 30l-.2.65m-2.9 4l.15-.9.05-.25v-.2l.1-.4.2-.85.1-.45.2-.95.3-1.2.25-.85v-.1l.05-.05v-.15l.25-.7v-.05l.05-.1.05-.15.3-.75.2-.4.15-.2.1-.15h.05l.25-.55.4-.8.1-.15.2-.25.05-.05.3-.4.1-.1q.5-.65 1.15-1.15v-.05l.5-.35.45-.3.35-.2v.05l.15-.1 1.35-.6.05.1.4-.1h.2l.35-.05h.15v-.15l.25-.15.05.15.1.05v.05l-.15.1v.05l-.25.25-.1.15-.3.45-.8 1.35-.15.35-.05.05.45-1.75.05-.15-.1.15-.2.35-.5.7-.7 1.2h-.05l-.1.1-.3.5-.2.35-.3.55-.15.35-.05.05-.3.55-.3.6.2-.6.3-.6.1-.35.5-1.15v-.05l.1-.2.1-.15v-.05l.9-1.65.05-.1-.1.1q-.9.1-1.8 1.55l-.25.35.65-1.6-1.05 1.15-1.45 2.15-.85 1.5-.1.25-.45 1.5L62.3 33h.05l1.55-3.2-.8 3.1.95-1.3h.05l-.2.35-1.7 2.8.25-.45.05-.1.25-.85-.4.7-.35.5-.1.2v-.1" fill="url(#ag)"/><linearGradient id="ah" gradientUnits="userSpaceOnUse" gradientTransform="matrix(.00287 -.00438 .0024 .00214 65.35 24.7)" x1="-819.2" x2="819.2"><stop offset="0" stop-color="#c89567"/><stop offset=".455" stop-color="#ffe7c9"/><stop offset="1" stop-color="#d59d6d"/></linearGradient><path d="M63.35 26.8l.05-.2.1-.25.25-.55.05-.15.15-.3 1-1.85.25-.45 1.2-1.1-.7 1.05.4-.2-.7.75-1.5 2.25-.55 1" fill="url(#ah)"/><radialGradient id="ai" gradientUnits="userSpaceOnUse" gradientTransform="matrix(.00667 0 .00063 .0076 70.25 19.55)" spreadMethod="pad" cx="0" cy="0" r="819.2" fx="0" fy="0"><stop offset="0" stop-color="#754835"/><stop offset="1" stop-color="#d99867"/></radialGradient><path d="M67.5 21.95l.2-.3.25-.4.25-.35-.85.7-1.15 1 .75-1.2-.2.15-.6.35-.7.6.7-1 .05-.05q.9-1 1.95-1.45l.2-.15-.2.1q-1.1.15-2.05.95l-.15.1.15-.15q.5-.75 1.3-1.1l-1.35.55-1.1.95-.65.7.5-.75L66 20q.75-.6 1.7-.95h-.25l.6-.35.25.05 1.55.65.1.05.05.05-1.35.2 1.5.05q-1.1.25-1.95.7l-.95.65.95-.45q1-.45 1.85-.55-.65.35-1.15.8l-.45.5-.15.1v-.05l-.35.2-.45.3m-.3-3.3l-.95.35-.3.05-.4.05 1.5-.4.15-.05" fill="url(#ai)"/><radialGradient id="aj" gradientUnits="userSpaceOnUse" gradientTransform="matrix(-.00424 0 .00044 .0053 70.75 20.2)" spreadMethod="pad" cx="0" cy="0" r="819.2" fx="0" fy="0"><stop offset="0" stop-color="#754835"/><stop offset=".004" stop-color="#52301a"/><stop offset="1" stop-color="#996447"/></radialGradient><path d="M70.8 20l-.05.05-.05-.05h.1" fill="url(#aj)"/><radialGradient id="ak" gradientUnits="userSpaceOnUse" gradientTransform="matrix(.00723 0 .00069 .00826 70.3 20.2)" spreadMethod="pad" cx="0" cy="0" r="819.2" fx="0" fy="0"><stop offset="0" stop-color="#451300"/><stop offset=".004" stop-color="#52301a"/><stop offset="1" stop-color="#996447"/></radialGradient><path d="M69.35 18.55l1.15.2.25-.1.65-.2 1-.15-.55.2-.1.1q-.6.3-.85.45l1.5.05q-1 0-1.3.35l.2-.1 1.2.15-1.35.05q1.7.45 2.7 1.4l-1.15-.6-1.45-.4q1 .55 1.6 1.4l.15.25.2.35-.6-.55-.5-.4-.4-.15-.05-.05-.3-.15-.1-.05-.05-.15-.25.15v.15h-.15l-.35.05h-.2l-.4.1-.05-.1-1.35.6.45-.5q.5-.45 1.15-.8-.85.1-1.85.55l-.95.45.95-.65q.85-.45 1.95-.7l-1.5-.05 1.35-.2-.05-.05-.1-.05-1.55-.65-.25-.05-.3-.1 1.6-.05M70.7 20l.05.05.05-.05h-.1" fill="url(#ak)"/><linearGradient id="al" gradientUnits="userSpaceOnUse" gradientTransform="matrix(-.00247 .0054 -.00085 -.0004 65.6 27.1)" x1="-819.2" x2="819.2"><stop offset="0" stop-color="#9d5c39"/><stop offset=".494" stop-color="#c2875f"/><stop offset="1" stop-color="#9e5e3b"/></linearGradient><path d="M67.7 23.9l-1.85 2.6.65-2.5.25-.3.45-.5-.95 2.2 2.25-2.9-4.4 10.2.7-2.05.65-1.9-.45.85 2.7-5.7m-2.35 3.9l.35-.6-.05.1-.7 2.3H65v.05l-1.25 2.1.1-.25-.1.15 1.55-3.9.05.05m-.6.7l-.85 1.05q.15-.8.65-2v-.05l.1-.2.15-.3.3-.7h-.05l.25-.5 1.2-1.8-1.55 3.75-.2.75m.1-.85l.05-.05v-.05l-.05.1m.05-.1l.05-.1h-.05v.1" fill="url(#al)"/><linearGradient id="am" gradientUnits="userSpaceOnUse" gradientTransform="matrix(.00325 -.0069 .0063 .0035 65.7 28.3)" x1="-819.2" x2="819.2"><stop offset="0" stop-color="#6e3511"/><stop offset=".471" stop-color="#9c5336"/><stop offset="1" stop-color="#6c2d03"/></linearGradient><path d="M62.55 34.75l.1-.15.1-.1.5-.75.05-.05v-.1l.05-.05.05-.05.1-.15.4-.7.25-.5.1-.2.05-.15v-.05l.15-.25.05-.1.15-.4.05-.1.1-.25.2-.65.05-.15v-.15l-.4.8-.05.15-.1.15-.05.1-.05.1-.05.05h.05l-.05.05-.15.3-.05.1-.05.05v.05h-.05l-.95 1.3.8-3.1-1.55 3.2h-.05l1.35-3.95.45-1.5.1-.25.85-1.5 1.45-2.15 1.05-1.15-.65 1.6.25-.35q.9-1.45 1.8-1.55l.1-.1-.05.1-.9 1.65v.05l-.1.15-.1.2v.05l-.5 1.15-.1.35-.3.6-.2.6.3-.6.3-.55.05-.05.15-.35.3-.55.2-.35.3-.5.1-.1h.05l.7-1.2.5-.7.2-.35.1-.15-.05.15-.45 1.75.05-.05.15-.35.8-1.35.3-.45.1-.15.25-.25.75.45-.05-.05.3.25 1.15 1 .45.4-.2-.2-.2-.2-.4-.4-.65-.65-.65-.6.4.15.5.4.6.55-.2-.35 1.05.95.1.1.05.1.65.85.15.2.6 1.05-.6-.7-.9-.85-.35-.2-.85-.65-.85-.7.15.8.05.15v.15l.05.15v.1l-.05-.1-.1-.25-.05-.2v.1l-.05-.1-.1-.2v.05l-.2-.35-.2-.45-.2-.4-.1.4-.05 1.15v.15l-.05-.1-.2-.65-.1-.4v-.05l-.3.7-.1.2v.05l-.05.1-.3.4-.35.45-.15.3-.1.15v.05l-.1.15-.05-1.2-.15.55-.1.4-.05.05-.05.15-.15.45-.35.8-.1.35-.2.5-.05.05-.05.1-.2.4.35-2.3-.15.5-.25.55-.05.2-.15.25-.2.35-.45.9-.1.25-.05.1-.75 1.55-.2.45-.3.6-.1.2-.1.2-.15.25-.35.6-.05.15-.05.1-.05.05-.05.1-.05.1v.05l1.3-1.8H66l.1-.35 1.35-1.9-2.05 3.7 2.6-3.85-.1.4v.05l-.05.2-.1.35-1.6 2.35-1.85 2.3-.15.15h-.05l-.05.1-1.15 1.05.9-1.2.1-.15v-.05l.1-.05.1-.05H64v-.05l.2-.2.25-.5-.5.75v.05l-.05.05-.05.05-.2.25-.15.2.5-1.25-.1.2-.25.5-.05.05-.1.1-.1.2h-.05l-.05.25-.35.45-.35.4-.05-.05m2.75-8.95l-.25.5h.05l-.3.7-.15.3-.1.2v.05q-.5 1.2-.65 2l.85-1.05.55-.75-1.55 3.9.1-.15-.1.25 1.25-2.1v-.05l.45-.85-.65 1.9-.7 2.05 4.4-10.2-2.25 2.9.95-2.2-.45.5-.25.3-1.2 1.8m-.95 4.05h-.05v.05l.05-.05" fill="url(#am)"/><linearGradient id="an" gradientUnits="userSpaceOnUse" gradientTransform="matrix(.0011 .00792 -.00693 .00113 72.45 26.55)" x1="-819.2" x2="819.2"><stop offset="0" stop-color="#6c2d03"/><stop offset=".427" stop-color="#ae6b42"/><stop offset="1" stop-color="#6e2f05"/></linearGradient><path d="M67.8 32.6l.05-.05h-.05l-.65.65h-.05l-1.6 1.5-.4.4.15-.2-.5.35.55-.65-.7.55.5-.5-.65.4.65-.55.15-.15.1-.1.3-.3.75-.85.1-.1.4-.5v-.05l.2-.3.25-.35h.05v-.1l.05-.05.1-.15.05-.05.3-.5v-.05l.15-.2h.05v-.05l.05-.15v-.05l.15-.2.3-.6.1-.2h.05l.3-.75.05-.05.05-.15v-.05l.05-.05v.05l-.1.2-.2.75-.05.25-.1.35-.05.1v.05l.05-.05.2-.45.15-.3.35-.6.1-.15v.25l-.1.4-.15.4-.1.25v.05l.2-.3.3-.5v-.05l.1-.25v-.05h.05l.3-.75v-.5l.05-.3V27l.05-.3v-.25l.05-.3v-.05l.05-.25.1-.75.1-.4.05-.25-.1.2-.2.45-.05.15v-.1l.1-.8v-.65l-.05.1-.05.05-.45 1 .1-.3.05-.1.05-.25v-.1l.05-.05v-.1l.05-.1v-.1l.15-.35v-.05l.05-.2.1-.25v-.1l.05-.15v-.05l.1-.2.3-.7v.05l.1.4.2.65.05.1v.05l-.15.45H71v.05l-.1.35-.15.5-.05.15-.1.5-.05.45-.05.45v.05l-.05.25v.3h-.05l.05.25-.05.05.05.5v.25l.05.1.15-.25.3-.35v-.05l.15-.15.3-.4v1.25l.05.25v.05l.2 2-.3 3.05-.1.5-.05.3.75-3.1-.05 1.55-.3 1.5.35-.8.45-3.1.1-.9.15.35v-.15l-.1-.35-.1-.65-.05-.3v-.25l-.05-.05v-.45l-.05-.35h.05l.1.45.05.1v.05l.05.05.2.85-.25-2.1v-.05l.05.05v-.05l.05.15.05.1.05.05.15.35v.05l.05.05v.05l.05.05V27l.05.3.1.25v.05l.4 1.65.15.4.2.8v.05h.05l.1.4.05.05v.15l.05.15v.05l.1.2v.05l.05.1.05.05v.05l.1.35v.05l.05.15q-1.1-1.8-1.65-4l-.05 1.55v.65l-.05.4-.1 1.1-.05.35-.1.55v.05l-.05.2h-.05v.05l-.05.2v.1l-.05.05v.2l-.05.05v.05l-.05.1V34l-.05.05-.05.15-.95 1.2.4-.75-.9.8.65-1 .05-.15-.1.1-.25.4-.1.15-.55.45.45-.9-.35.5h-.05l-.2.25-.1.05-.1.15-.2.1.25-.4.05-.1.35-.8.05-.05.05-.2.25-.65v-.05l.05-.05v-.05l.05-.15.05-.1.1-.25v-.25l.05-.2.15-.6v-.2l.05-.05v-.1l.05-.35.05-.4v-.2l-.05-.15v-.05l-.1-.2-.05-.05-.05-.15v-.1l.15.3-.1-.2v-.1l-.05-.15.05-.75.15.45.05.05v-.05l-.1-.2-.1-.5v-1.2l-.05-.35-.05.2v.05l-.15.35v.1h-.05v.1l-.2.55-.15.4-.35.85-.05.05v.05l-.15.3-.15.25-.15.3-.05.05v-.05l.05-.2h-.05v.05l-.05.05v.1l-.05.25-.3.4v-.05l-.4.6-.1.1-.65.8-.15.1-.05.05-.15.2-.2.15v.05l-.1.1-.55.6-.65.65-.15.15-.15.15h-.05l-.3.25-.1.1-.1.05.4-.4 2.05-2.2m2.65-8.1v-.25l-.05.2.05.05m.7 2.25l-.05.15.05-.1v-.05m.7 6.9l.05-.05-.05-.05v.1m.55-.8v.1l.05-.05-.05-.05m-1.9-5.1l.05.2-.05-.25v.05m.15.55l-.1-.35V28l.1.3M69 30.25l-.05.05H69v-.05" fill="url(#an)"/><linearGradient id="ao" gradientUnits="userSpaceOnUse" gradientTransform="matrix(-.00203 .00441 -.00485 -.00264 68 27.2)" x1="-819.2" x2="819.2"><stop offset="0" stop-color="#9d5c39"/><stop offset=".494" stop-color="#c2875f"/><stop offset="1" stop-color="#9e5e3b"/></linearGradient><path d="M69.3 28v.05-.2l.05-.1h-.05l-.5.65-.4.45-.1.25v.05l-.15.3-.05.05-.05.1v.05l-.05.1-.05.1-.05.05-.2.45-.05.1v.05l-.05.05-.85 1.35-.1.15-.5.6.45-.65q1.2-1.8 1.75-3.55l.85-1.85.1-.3.2-.5.1-.35.1-.25.05-.3.05-.1.1-.25-.1.3.45-1 .05-.05.05-.1v.65l-.1.8v.1l.05-.15.2-.45.1-.2-.05.25-.1.35-.1.75-.05.3-.05.35v.25l-.05.3v.25l-.05.3v.5l-.3.75h-.05v.05l-.1.25v.05l-.3.5-.2.3v-.05l.1-.25.15-.4.1-.4v-.25l-.1.15-.35.6-.15.3-.2.45-.05.05v-.05l.05-.1.1-.35.05-.25.2-.75.1-.2v-.05l-.05.05.05-.1.05-.2.05-.15m-3.2 1.8l-.15.45-1.3 1.8V32l.05-.1.05-.1.05-.05.05-.1.05-.15.35-.6.15-.25.1-.2.1-.2.3-.6.2-.45.75-1.55.05-.1.1-.25.45-.9.2-.35.15-.25.05-.2.25-.55.15-.5-.35 2.3.2-.4.05-.1.05-.05.2-.5.1-.35.35-.8.15-.45.05-.15.05-.05.1-.4.15-.55.05 1.2.1-.15v-.05l.1-.15.15-.3.35-.45.3-.4v.15l-.1.2v.05l-.05.2v.05l-.15.35v.05l-.15.25-.7 1.25-.15-.9v.1l-.15.95-.05.35-.2.5-.05.2-.1.2-.3 1.35-.5.8.1-.35.05-.2v-.05l.1-.4-2.6 3.85 2.05-3.7-1.35 1.9v-.1m4.15-5.7l-.35 1-.5 2.7.05-.05.35-1.15.1 1.95.35-4.35v-.1" fill="url(#ao)"/><linearGradient id="ap" gradientUnits="userSpaceOnUse" gradientTransform="matrix(.00157 -.00311 .00108 .00066 69.15 25.85)" x1="-819.2" x2="819.2"><stop offset="0" stop-color="#b1744e"/><stop offset=".039" stop-color="#b87b55"/><stop offset=".455" stop-color="#eac9a9"/><stop offset="1" stop-color="#9d5c39"/></linearGradient><path d="M69.8 24.8l-.05.1-.05.3-.1.25-.1.35-.2.5-.1.3-.85 1.85.2-.95-.3.55.3-1.35.1-.2.05-.2.2-.5.05-.35.15-.95v-.1l.15.9.7-1.25H70v.1l-.05.3-.05.1-.1.25" fill="url(#ap)"/><linearGradient id="aq" gradientUnits="userSpaceOnUse" gradientTransform="matrix(.00157 -.00311 .00108 .00066 69.15 25.85)" x1="-819.2" x2="819.2"><stop offset="0" stop-color="#b1744e"/><stop offset=".455" stop-color="#eac9a9"/><stop offset="1" stop-color="#9d5c39"/></linearGradient><path d="M70.25 24.2l-.35 4.35-.1-1.95-.35 1.15-.05.05.5-2.7.35-1v.1" fill="url(#aq)"/><linearGradient id="ar" gradientUnits="userSpaceOnUse" gradientTransform="matrix(.00076 .00146 -.00102 .00067 70.85 25.3)" x1="-819.2" x2="819.2"><stop offset="0" stop-color="#b48a6f"/><stop offset=".494" stop-color="#f2dfce"/><stop offset="1" stop-color="#b68e73"/></linearGradient><path d="M70.8 24.4l.05-.15.2-.55-.1 3.15-.1-.95-.25 1.1v-1.25l.15-1.05.05-.3" fill="url(#ar)"/><linearGradient id="as" gradientUnits="userSpaceOnUse" gradientTransform="matrix(.00096 .00468 -.0046 .00119 73 25.4)" x1="-819.2" x2="819.2"><stop offset="0" stop-color="#a2613b"/><stop offset=".494" stop-color="#d9a789"/><stop offset="1" stop-color="#935128"/></linearGradient><path d="M71.15 29.65l-.05-.05v-.1l.05.15m.1-.65l.1.2-.05-.05-.15-.45v-.2l.1.5m.4-5.65v-.4l.05-.3.05-.5v-.1l.1.75v.05l.1.5.05.35.05.7v.05l.05.75v.25l.05.45v-2.75l-.05-.4v-.2l.05.2.5 2.85-.05-.95V24l-.05-.25v-.15l-.05-.25.25.35v.15l.1 1.1.65 1.8-.4-2.3-.1-.2-.2-.35v-.05l-.05-1 .6.55 1.15 1.15.15.25.4.6.2.4.2.4.05.25.15.45v.25l.15.4v.05l.1.5-.85-1.85.05.5.1.65.05.6-.1-.45v-.05l-.2-.65-.15-.25-.15-.45-.1-.15-.1-.1-.1-.1.15.95v.2l.25 1.75-.15-.7-.1-.45-.05-.15-.2-.6-.25-.7-.1-.25v-.05l-.05-.05-.3-.7-.25-.45.35 1.2v.05l.05.2v.05l.15.65.15.6v.6l.05 1-.85-2.5.4 2.15.15 1.05-.1-.45-.1-.4-.25-.9-.1-.3v-.05l-.1-.25-.15-.35v-.1h-.05v-.05l-.05-.05-.15-.35-.05-.05-.05-.1-.05-.15v.05l-.05-.05v.05l.25 2.1-.2-.85v-.05l-.05-.05-.05-.15-.1-.45-.05-.1v.15l.05.35v.45l.05.05v.25l.05.3.1.65.1.35-.15-.25v.05l-.1.9-.05-.05v.05h.05l-.45 3.1-.35.8.3-1.5.05-1.55v-.05l-.7 2.85.1-.5.3-3.05-.2-2v-.05l-.05-.25V26.4l-.3.4-.15.15V27l-.3.35-.15.25v-.05l-.05-.1v-.2l-.05-.5.05-.05v-.55l.05-.25v-.05l.05-.45.05-.45.1-.5.05-.15.15-.5.1-.35v-.05h.05l.15-.45v-.05l.05-.15.05-.15v2.55l.05.4v.05l.05.2v.05l.05.35.1.4v-2.2l.05-.3v1.75l.1.8v.25l.05-.7.4 1.1-.5-3.95m-.9 1.35l-.15 1.05V27l.25-1.1.1.95.1-3.15-.2.55-.05.15-.05.3m2.45-.65l.55.6.05.15.1.1 1 1.1-.35-.7-.1-.15-.15-.2-.1-.15-.05-.1-.05-.05-.1-.15-.8-.7v.25" fill="url(#as)"/><radialGradient id="at" gradientUnits="userSpaceOnUse" gradientTransform="matrix(-.0061 0 -.00061 .00768 71 19.4)" spreadMethod="pad" cx="0" cy="0" r="819.2" fx="0" fy="0"><stop offset="0" stop-color="#754835"/><stop offset="1" stop-color="#d99867"/></radialGradient><path d="M73.65 18.35h.15l-.15.05-.2-.1.2.05m-.25.5l.7.35q1.05.6 1.75 1.5l.4.55.25.5-.3-.4-.55-.6q-.95-.9-1.95-1.2l1.3 1.3q-1-1-2.2-1.2 1 .45 1.8 1.35l.65 1 .15.3-.25-.25-1.05-.9.65 1.35-.1-.1-1.15-1.15-.4-.35-.2-.15.4.55.75 1.25L73 21.6l-.15-.25q-.6-.85-1.6-1.4l1.45.4 1.15.6q-1-.95-2.7-1.4l1.35-.05-1.2-.15-.2.1q.3-.35 1.3-.35l-1.5-.05q.25-.15.85-.45l1.75.25h-.1" fill="url(#at)"/><linearGradient id="au" gradientUnits="userSpaceOnUse" gradientTransform="matrix(-.00429 -.00926 -.01031 .0083 75.6 24.9)" x1="-819.2" x2="819.2"><stop offset="0" stop-color="#a8662e"/><stop offset=".439" stop-color="#eebe97"/><stop offset=".973" stop-color="#c38650"/></linearGradient><path d="M76.05 19.1H76l-.5-.3.25.1.3.2m-2.25-.75l.2.05h-.35l.15-.05m2.15 1.35l.55.3-.05.05-.5-.35m2.65 7.2l-.45-.8-.15-.3-.1-.2-.1-.2-.2-.4-.25-.45-.65-1.15.6 1.15v.05l.2.4v.05l.25.6.05.15.1.3.35 1.2-.45-1.2-.1-.3-.1-.2-.2-.45-.1-.15-.15-.3-1.3-1.9-.1-.15.05.15 1.05 2.15.05.15.15.25.05.1v.05l.15.3.05.3.35 1.2-.45-1.2-.1-.3-.1-.2-.1-.2-.1-.2-.1-.25-1.05-2.05-1.05-1.15.6 1.1-.9-.6-1.2-1.35.4.35 1.15 1.15.1.1-.65-1.35 1.05.9.25.25-.15-.3-.65-1q-.8-.9-1.8-1.35 1.2.2 2.2 1.2l-1.3-1.3q1 .3 1.95 1.2l.55.6.3.4-.25-.5-.4-.55q-.7-.9-1.75-1.5l1.3.5.7.95.35.5 1.7 2.75.25.35.15.3-.2-.25-.3-.35-.15-.15-.2-.3-.65-.95.2.35.65 1.25.15.4.2.45.1.3.1.15.05.1.1.25.15.3.45 1.2v.05l.1.3v.6l-.15-.35-.15-.25v-.1l-.1-.25-.35-1.2-.1-.3-.35-.8-.2-.35-.2-.4-.5-1.05-1.3-1.7-.65-.65-.15-.15 1.4 2.1.95 1.7.25.4.05.1.45.8.15.3.05.05.2.45.25.7-.25-.4m-1.15.65l-.15-.25-.2-.45-.4-.75-.05-.1-.15-.2-.05-.1-.15-.35-.15-.25-.05-.2-.45-.75-.2-.35.2.4.1.2-.55-.85-.2-.5 1.35 1.9.25.4v.05l.2.4.1.3.05.1.4 1.1.1.25M78.9 25l-.4-.85-.2-.4-1.45-2.8 1.65 1.4.1.1-.85-1.25-.6-.55 1.65 1.45v-.05l.1.15.2.3.4.75.3.6.55 1.4-.25-.4-.2-.25-.05-.05-.25-.35-.4-.65-.15-.25-.25-.35-1.4-1.4h-.05l.1.1v.05l.85 1.45.2.3.25.45.5 1.05.45 1.2.2.5-.3-.5-.7-1.1V25m.9-2l.2.35-.25-.3.05-.05m0 1.35l-.05-.05.05.1v-.05" fill="url(#au)"/><linearGradient id="av" gradientUnits="userSpaceOnUse" gradientTransform="matrix(-.00235 -.00395 -.0026 .00255 77 21.7)" x1="-819.2" x2="819.2"><stop offset="0" stop-color="#e2a777"/><stop offset=".455" stop-color="#ffe7c9"/><stop offset=".973" stop-color="#d59d6d"/></linearGradient><path d="M75.15 19.35l-.1-.1.1.05v.05m2 1.3l.6.55.85 1.25-.1-.1-1.65-1.4 1.45 2.8.2.4.4.85v.05l.15.3-.25-.35-.25-.45-.15-.3-.25-.35-1.7-2.75-.35-.5-.7-.95q.95.4 1.75.95m2.65 3.75l-.05-.1.05.05v.05" fill="url(#av)"/><linearGradient id="aw" gradientUnits="userSpaceOnUse" gradientTransform="matrix(-.00139 -.00818 .00322 -.00055 80.15 28.3)" x1="-819.2" x2="819.2"><stop offset="0" stop-color="#612e0b"/><stop offset="1" stop-color="#a66733"/></linearGradient><path d="M75.15 19.35l-.1-.05v-.05l.1.1" fill="url(#aw)"/><linearGradient id="ax" gradientUnits="userSpaceOnUse" gradientTransform="matrix(-.00262 -.00443 -.00038 .00038 76.9 23)" x1="-819.2" x2="819.2"><stop offset="0" stop-color="#e2a777"/><stop offset=".455" stop-color="#ffe7c9"/><stop offset=".973" stop-color="#d59d6d"/></linearGradient><path d="M79.15 28.05l-.2-.5-.05-.1-.05-.15-.25-.7-.2-.45-.05-.05-.15-.3-.45-.8-.05-.1-.25-.4-.95-1.7-1.4-2.1.15.15.65.65 1.3 1.7.5 1.05.2.4.2.35.35.8.1.3.35 1.2.1.25v.1l.15.4" fill="url(#ax)"/><linearGradient id="ay" gradientUnits="userSpaceOnUse" gradientTransform="matrix(.00465 .01091 -.0086 .00432 74.8 28.95)" x1="-819.2" x2="819.2"><stop offset=".255" stop-color="#482110"/><stop offset=".502" stop-color="#724224"/><stop offset="1" stop-color="#471400"/></linearGradient><path d="M77.35 33.1l.05.15.05.15.15.25.15.7-.55-1 .3 1-.8-1.1.7 1.4-.55-.55.25.5.05.05-.3-.2-1.05-1.1.45.95-.55-.95-.4-.65-.55-1.05-.2-.45-.25-.65.2.35.25.5.15.25.25.45v-.05l.05.05.05.15.3.45.2.25-.1-.25-.25-.65-.15-.45-.05-.1-.1-.45-.05-.15-.1-.3-.05-.15-.45-1.6-.1-.3 1.65 4.5-1.05-4.15.35.95-.35-1.2-.3-1.1v-.1l-.15-.5h.05l.15.5.05.1.15.55 1.5 3.45v-.05l-.15-.6-.15-.45v-.05L76 30l-.5-1.6-.25-.85v-.05l-.05-.1-.1-.65 1.15 3.15.05.2.1.15.05.15.05.05.2.45.15.55v.05l.1.3.3.9.05.15v.1l.05.15m-.8 1.65l.05.05h-.1v-.05l-.15-.25.2.25m-5.35-13.9v-.05l.15-.1v-.05l.3.15.05.05.65.6.65.65.4.4.2.2.2.2-.45-.4-1.15-1-.3-.25.05.05-.75-.45m5.4 11.65l-.25-.6.3.75-.05-.15" fill="url(#ay)"/><linearGradient id="az" gradientUnits="userSpaceOnUse" gradientTransform="matrix(.0011 .00792 -.00693 .00113 72.45 26.5)" x1="-819.2" x2="819.2"><stop offset="0" stop-color="#6c2d03"/><stop offset=".427" stop-color="#ae6b42"/><stop offset="1" stop-color="#6e2f05"/></linearGradient><path d="M71.6 24.1l-.05.3v2.2l-.1-.4-.05-.35v-.05l-.05-.2v-.05l-.05-.4V22.6l-.05.15-.05.15v-.15l.05-1.15.1-.4.2.4.2.45.2.35v-.05l.1.2.05.1v.1l.05.4v2.75l-.05-.45v-.25l-.05-.75v-.05l-.05-.7-.05-.35-.1-.5v-.05l-.1-.75v.1l-.05.5-.05.3v.75l-.05.15v.25m5.35 7.7l-.1-.3v-.05l-.15-.55-.2-.45-.05-.05-.05-.15-.1-.15-.05-.2-1.15-3.15-.05-.5.85 1.85-.1-.5v-.05l-.15-.4v-.25l-.15-.45-.05-.25-.2-.4-.2-.4-.4-.6-.15-.25-1.15-1.15-.6-.55.05 1-.05-.05v-.1l-.25-.35.05.25v.15l.05.25v.65l.05.95-.5-2.85.1.25.05.1V23l-.05-.15v-.15l-.05-.15-.15-.8.85.7.85.65.35.2.9.85.6.7.05.05.2.4.05.15h-.05l.05.1v-.1h.05l.15.35.1.25.05.05.1.25.35.95.1.25.3.95.15.35.05.15.2.7v.2l.05.2.05.1v.15l-.25-.7-.05-.05-.1-.45-.25-.65-.2-.65-.1-.3-.1-.25-.2-.35.1.9.05.15.15.55v.1l.2.75.05.5.05.25.1.75.05.55v.05l.05.25v.5l.1.45-.3-.9m-3.35-3.2l-.4-2.15.85 2.5-.05-1v-.6l-.15-.6-.15-.65v-.05l-.05-.2v-.05l-.35-1.2.25.45.3.7.05.05v.05l.1.25.25.7.2.6.05.15.1.45.15.7-.25-1.75.15.5v.1l.3 1.1.35 1.2-.35-.95L76 33.05l-1.65-4.5.1.3.45 1.6.05.15.1.3.05.15.1.45.05.1.15.45.25.65.1.25-.2-.25-.3-.45-.05-.15-.05-.05v.05l-.25-.45-.15-.25-.25-.5-.2-.35-.7-1.95m.9-1.8v-.05l-.15-.95.1.1.1.1.1.15.15.45.15.25.2.65v.05l.1.45-.05-.6.05.1v.05l.25.85.5 1.6.1.4v.05l.15.45.15.6v.05l-1.5-3.45-.15-.55-.05-.1-.15-.5-.05-.15m2.8 6.15v-.1l.05.25-.05-.15m-.65-.3l-.3-.75.25.6.05.15" fill="url(#az)"/><linearGradient id="aA" gradientUnits="userSpaceOnUse" gradientTransform="matrix(-.00233 -.00992 -.00922 .00441 77.7 32.55)" x1="-819.2" x2="819.2"><stop offset="0" stop-color="#9b5935"/><stop offset="1" stop-color="#c48052"/></linearGradient><path d="M77.55 28.05l.15.35.1.15.4.95.3.9-.1-.4-.05-.3-.15-.55-.2-.8-.25-.8-.05-.15-.05-.05v-.05l-.35-1.2-.05-.3-.15-.3v-.05l-.05-.1-.15-.25-.05-.15-1.05-2.15-.05-.15.1.15 1.3 1.9.15.3.1.15.2.45.1.2.1.3.45 1.2-.35-1.2-.1-.3-.05-.15-.25-.6V25l-.2-.4v-.05l-.6-1.15.65 1.15.25.45.2.4.1.2.1.2.1.3.45 1.2.1.25.35 1.15.15.6.15.65.25 1.2.1.2v.15l-.2-.55v-.05l-1.3-3.5.6 3.2.1.2.05.1.05.4v.1l.05.1.15.65v.05l.05.2v.75l.1.35v.25l-.1-.2v-.05l-.05-.15-.05-.2-.05-.15-.1-.15-.05-.1-.15-.4-.05-.1-.3-.75h-.05v-.1l-.2-.5-.05-.1-.2-.7-.1-.7-.2-.65-.15-.45-.05-.1-.15-.65-.1-.2.35 2.35-.2-.7-.05-.15-.15-.35-.3-.95-.1-.25-.35-.95-.1-.25-.05-.05-.1-.25-.15-.35h-.05l-.05-.15-.2-.4-.05-.05-.6-1.05-.15-.2-.65-.85-.05-.1-.1-.1-.75-1.25-.4-.55.2.15 1.2 1.35.2.25.7 1.05.55.85-.1-.2-.2-.4.2.35.45.75.05.2.15.25.15.35.05.1.15.2.05.1.4.75.2.45.15.25v.1l.1.4m.05 2.3l.05.1.05.2.05.25-.1-.25v-.05l-.05-.15v-.1" fill="url(#aA)"/><linearGradient id="aB" gradientUnits="userSpaceOnUse" gradientTransform="matrix(.00107 .002 -.00084 .00055 71.8 25.4)" x1="-819.2" x2="819.2"><stop offset="0" stop-color="#b48a6f"/><stop offset=".494" stop-color="#f2dfce"/><stop offset="1" stop-color="#b68e73"/></linearGradient><path d="M72.15 27.3l-.4-1.1-.05.7v-.25l-.1-.8v-2l.05-.15v-.35l.5 3.95" fill="url(#aB)"/><linearGradient id="aC" gradientUnits="userSpaceOnUse" gradientTransform="matrix(.00174 .00328 -.00217 .00139 73.65 24)" x1="-819.2" x2="819.2"><stop offset="0" stop-color="#b48a6f"/><stop offset=".494" stop-color="#f2dfce"/><stop offset="1" stop-color="#b68e73"/></linearGradient><path d="M72.8 23.85v.05l.2.35.1.2.4 2.3-.65-1.8-.1-1.1v-.05l.05.05m.4-.05l.8.7.1.15.05.05.05.1.1.15.15.2.1.15.35.7-1-1.1-.1-.1-.05-.15-.55-.6v-.25" fill="url(#aC)"/><linearGradient id="aD" gradientUnits="userSpaceOnUse" gradientTransform="matrix(-.0026 -.00441 -.0022 .00215 75.55 24.55)" x1="-819.2" x2="819.2"><stop offset="0" stop-color="#c89567"/><stop offset=".455" stop-color="#ffe7c9"/><stop offset="1" stop-color="#d59d6d"/></linearGradient><path d="M77.65 27.35l.05.05v.15l.2.85.05.25-.1-.2-.25-.45-.15-.35v-.1l-.1-.25-.4-1.1-.05-.1-.1-.3-.2-.4v-.05l-.25-.4-1.35-1.9.2.5-.7-1.05-.2-.25.9.6-.6-1.1 1.05 1.15 1.05 2.05.1.25.1.2.1.2.1.2.1.3.45 1.2v.05m-1.75-1.9v.1l-.05-.1h.05" fill="url(#aD)"/><linearGradient id="aE" gradientUnits="userSpaceOnUse" gradientTransform="matrix(-.00252 0 -.00044 .00554 78.8 27.1)" x1="-819.2" x2="819.2"><stop offset=".02" stop-color="#965c31"/><stop offset=".941" stop-color="#b8825a"/></linearGradient><path d="M79.3 27.65l-.1-.3v-.05l-.45-1.2-.15-.3-.1-.25-.05-.1-.1-.15-.1-.3-.2-.45-.15-.4-.65-1.25-.2-.35.65.95.3.5.25.4.35.6.4.8.15.3.15.4.3.8.05.15.05.15.8 4.05-.8-2.6-.15-.65-.25-.75" fill="url(#aE)"/><linearGradient id="aF" gradientUnits="userSpaceOnUse" gradientTransform="matrix(.00314 0 .00044 .00539 58.2 35.65)" x1="-819.2" x2="819.2"><stop offset="0" stop-color="#b77946"/><stop offset=".424" stop-color="#e3a36f"/><stop offset=".973" stop-color="#c38650"/></linearGradient><path d="M56.8 36.2l.1-.1.15-.1v-.05l.05-.05.1-.1h.05l.75-.7.4-.45.85-1.05.1-.1q.7-1.05 1.05-2.3-.05 1.2-.5 2.15l-.05.15-.05.1-1.05 1.45-.05.05-1.2 1.1h-.7" fill="url(#aF)"/><linearGradient id="aG" gradientUnits="userSpaceOnUse" gradientTransform="matrix(.00195 -.00653 .0084 .00401 60.45 32.1)" x1="-819.2" x2="819.2"><stop offset="0" stop-color="#884e29"/><stop offset=".475" stop-color="#65290a"/><stop offset=".929" stop-color="#a46b42"/></linearGradient><path d="M59 36.2l.3-.5.35-.6V35l-1.45 1.1.7-.8.15-.2 1-1.5.05-.1.2-.35.15-.4.15-.5.15-.35.05-.1v-.1l.9-2.2-.05.2-.2.95-.05.25-.15.6v-.4L61 32.25l-.25 1.25-.05.1-.5 1.5-.5 1-.1.1H59" fill="url(#aG)"/><linearGradient id="aH" gradientUnits="userSpaceOnUse" gradientTransform="matrix(.00375 -.00488 .0066 .00578 59.45 30.85)" x1="-819.2" x2="819.2"><stop offset="0" stop-color="#945521"/><stop offset=".98" stop-color="#d99867"/></linearGradient><path d="M56.4 38.4l.1-.3.4-1.25-.25.25.3-.5v-.05l.2-.1.35-.25H59l-1.75 1.55-.15.2-.25.15-.3.25-.15.05" fill="url(#aH)"/><linearGradient id="aI" gradientUnits="userSpaceOnUse" gradientTransform="matrix(.00314 0 .00044 .00496 58.2 35.7)" x1="-819.2" x2="819.2"><stop offset="0" stop-color="#b77946"/><stop offset=".424" stop-color="#e3a36f"/><stop offset=".973" stop-color="#c38650"/></linearGradient><path d="M57.5 36.2l-.35.25-.2.1v.05l-.3.5-.05.05-.25.25-.3.7v.75h-.15l-.05-.75q.05-1.1.95-1.9h.7" fill="url(#aI)"/><linearGradient id="aJ" gradientUnits="userSpaceOnUse" gradientTransform="matrix(.00159 0 0 .00958 61.7 33.3)" x1="-819.2" x2="819.2"><stop offset="0" stop-color="#873b0d"/><stop offset="1" stop-color="#a3613b"/></linearGradient><path d="M60.9 36.2l.1-.55.2-.85.15-.7-.05-.05.1-.55.2-1.3.05-.25.1-.45.2-.85.25-.9.05.05.3-.95.4-1.1-.25 1 .35-.65.15-.2-.1.3-.3.95-.3 1.1v.25l.4-1.15.1-.15-.05.15-.25.85v.05l-.05.4-.25.85v.15l-.1.65-.05.15-.05.45-.15.55v.3l-.15.9v.1l-.05.1v.05l-.05.05-.1.65-.05.3-.05.3-.05.65-.05.45-.05.7v1.2q-.05.7.6 5.4-.9-3.2-1-4.5l-.1-1.55.05-.7q-.3 1.7-.1 4.2l-.15-.05-.15-.4v-.1l-.2-2.65.05-.75V37l-1.05 1.05.9-1.4.05-.25.05-.1.05-.1.05-.05v-.1l.05-.15v-.05l.3-2.35.15-.85.25-1.15.15-.6.05-.25.2-.95.05-.2-.9 2.2.2-.85.15-.6.5-1.65.1-.3.15-.35.15-.4.1-.25.7-1.5.15-.35-.1.35-.25.85-.05.15-.1.35-.05.15v.05l-.05.2-.2.8-.5 2.3-.05.05-.25 1.1v.15l-.3 1.55-.1.8-.2 1.9-.1 1.25.2-1.25m.55-2.6l-.05.4.1-.35-.05-.05m-.7 2.45l-.05.15h.05v-.15" fill="url(#aJ)"/><linearGradient id="aK" gradientUnits="userSpaceOnUse" gradientTransform="matrix(.00334 -.00418 .00394 .00412 59.2 35.3)" x1="-819.2" x2="819.2"><stop offset="0" stop-color="#6a2d0f"/><stop offset=".455" stop-color="#451e01"/><stop offset=".929" stop-color="#6b310e"/></linearGradient><path d="M61.25 31.5L61 32.65l-.15.85-.3 2.35v.05l-.05.15v.1l-.05.05h-.85l.1-.1.5-1 .5-1.5.05-.1.25-1.25.25-1.15v.4m-.5 4.7h-.05l.05-.15v.15" fill="url(#aK)"/><linearGradient id="aL" gradientUnits="userSpaceOnUse" gradientTransform="matrix(.00334 -.00385 .00394 .0038 59.2 35.35)" x1="-819.2" x2="819.2"><stop offset="0" stop-color="#6a2d0f"/><stop offset=".455" stop-color="#451e01"/><stop offset=".929" stop-color="#6b310e"/></linearGradient><path d="M59.85 38.9l-.25-.35-.2-.3-.05-.05q-.8-.55-1.15-.55l1.9-1.25q-1 .35-.6-.1l.1-.1h.85l-.05.1-.05.1-.05.25-.9 1.4L60.45 37v1.1l-.05.75.2 2.65v.1l-.05-.3-.7-2.4m.05-.7l-.05.05v.05l.05-.1" fill="url(#aL)"/><linearGradient id="aM" gradientUnits="userSpaceOnUse" gradientTransform="matrix(.00195 -.00601 .0084 .0037 60.45 32.4)" x1="-819.2" x2="819.2"><stop offset="0" stop-color="#884e29"/><stop offset=".475" stop-color="#65290a"/><stop offset=".929" stop-color="#a46b42"/></linearGradient><path d="M56.55 38.35l.3-.25.25-.15.15-.2L59 36.2h.6l-.1.1q-.4.45.6.1l-1.9 1.25q.35 0 1.15.55l.05.05.2.3.25.35.7 2.4-.9-1.6Q58.6 38 57.5 38l-.5.1-.15.2-.45.55h-.05l.05-.45.15-.05" fill="url(#aM)"/><linearGradient id="aN" gradientUnits="userSpaceOnUse" gradientTransform="matrix(.0019 -.00104 .0009 .0016 58.15 39.05)" x1="-819.2" x2="819.2"><stop offset="0" stop-color="#884e29"/><stop offset=".914" stop-color="#632a0c"/></linearGradient><path d="M59.85 38.3v-.05l.05-.05-.05.1" fill="url(#aN)"/><linearGradient id="aO" gradientUnits="userSpaceOnUse" gradientTransform="matrix(-.00073 -.00545 -.00925 .00305 77.65 34.1)" x1="-819.2" x2="819.2"><stop offset="0" stop-color="#8e5332"/><stop offset=".549" stop-color="#632301"/><stop offset=".933" stop-color="#935838"/></linearGradient><path d="M78.65 34.45q-.65-.45-1.1-1.3l.65 1.4-.6-.9-.15-.25-.05-.15-.05-.15-.05-.25-.05-.15-.1-.45v-.5l-.05-.25v-.05l-.05-.55-.1-.75-.05-.25-.05-.5-.2-.75v-.1L76.5 28l-.05-.15-.1-.9.2.35.1.25.1.3.2.65.25.65.1.45.05.05.25.7v-.15l.2.7.05.15.15.35.05.1.3.95.1.3v.2l.05.1v.3l.05.15.05.6-.2-.35.25.6v.1m-1.05-4l.05.15v.05l.1.25-.05-.25-.05-.2-.05-.1v.1" fill="url(#aO)"/><path d="M77.45 27.65l.15.35.25.45.1.2-.05-.25-.2-.85v-.15l.05.15.25.8.2.8.15.55.05.3.1.4-.3-.9-.4-.95-.1-.15-.15-.35-.1-.4m-15.95 6l-.1.35.05-.4.05.05" fill="#c08255"/><linearGradient id="aP" gradientUnits="userSpaceOnUse" gradientTransform="matrix(.00465 .01091 -.0086 .00432 74.8 28.95)" x1="-819.2" x2="819.2"><stop offset=".255" stop-color="#482110"/><stop offset=".502" stop-color="#724224"/><stop offset="1" stop-color="#482110"/></linearGradient><path d="M76.35 34.5l.15.25-.45-.4-1.6-2.05v-.15l-.05-.05-.1-.4-.05-.1-.05-.1-.1-.25-.05-.15v-.15L74 30.9l-.1-.4-.05-.05-.2-.8-.15-.4-.4-1.65v-.05l-.1-.25-.05-.3v-.05l.15.35.1.25v.05l.1.3.25.9.1.4.1.45-.15-1.05.7 1.95.25.65.2.45.55 1.05.4.65.55.95.3.45-.2-.25" fill="url(#aP)"/><radialGradient id="aQ" gradientUnits="userSpaceOnUse" gradientTransform="translate(69.45 31.9) scale(.0258)" spreadMethod="pad" cx="0" cy="0" r="819.2" fx="0" fy="0"><stop offset="0" stop-color="#824927"/><stop offset=".494" stop-color="#a56943"/><stop offset="1" stop-color="#b17550"/></radialGradient><path d="M71.3 30.2v.1l-.05.15-.05.2-.05.25-.05.2-.35 1.15-.1.25-.05.2-.55 1v.1H70l-.65.95q1.15-1.85 1.55-4l.1-.5.05-.15.05-.35.05.15.05.05.1.2v.05m-1.75.3v-.05h.05l-.05.2-.05.1.05-.25" fill="url(#aQ)"/><radialGradient id="aR" gradientUnits="userSpaceOnUse" gradientTransform="translate(73.8 20.4) scale(.03046)" spreadMethod="pad" cx="0" cy="0" r="819.2" fx="0" fy="0"><stop offset=".361" stop-color="#e34b21" stop-opacity=".4"/><stop offset="1" stop-color="#f5c4a9" stop-opacity=".133"/></radialGradient><path d="M72.4 33.15l-.05.2-.05.05.05-.2v-.05h.05m-.1.35l-.05.1v-.05l.05-.05m-1.4-.55l-.05.1.05-.05v-.1l.1-.2-.1.25m.4-2l-.05.35.05-.4.05-.45v.1l-.05.35v.05m-8.7 3.85l-.2.2h-.05l.3-.4-.1.15.05.05m2.45-4.95l-.4.65.4-.8v.15m12.2 5.05v-.05l-.05-.1.3.4-.25-.25m-15-.4v-.1h.1l-.1.1-.05.1v-.1h.05" fill="url(#aR)"/><radialGradient id="aS" gradientUnits="userSpaceOnUse" gradientTransform="translate(73.8 20.45) scale(.03046)" spreadMethod="pad" cx="0" cy="0" r="819.2" fx="0" fy="0"><stop offset=".361" stop-color="#e34b21" stop-opacity=".4"/><stop offset="1" stop-color="#f5c4a9" stop-opacity=".133"/></radialGradient><path d="M72.25 33.75l-.05.1v-.05l.05-.05" fill="url(#aS)"/><linearGradient id="aT" gradientUnits="userSpaceOnUse" gradientTransform="matrix(-.00304 -.00421 -.00363 .00417 81.1 35.25)" x1="-819.2" x2="819.2"><stop offset="0" stop-color="#6a2d0f"/><stop offset=".455" stop-color="#451e01"/><stop offset=".929" stop-color="#6b310e"/></linearGradient><path d="M80 36l-.1-.45v-.05l-.1-.4-.1-.45-.15-1.15-.1-.5v-.1l-.05-.3v-.55l-.05-.55v-.15l-.05-.1v-.2l.05.15.05.15v.15l.05.4.05.1.1.55.05.35v.05l.15.55.5 1.6v.05l.15.3v.05l.25.55.1.15h-.75L80 36m-.35-.1l.1.3h-.05l-.05-.3" fill="url(#aT)"/><linearGradient id="aU" gradientUnits="userSpaceOnUse" gradientTransform="matrix(-.00177 -.00658 -.0077 .00404 80 32)" x1="-819.2" x2="819.2"><stop offset="0" stop-color="#884e29"/><stop offset=".475" stop-color="#65290a"/><stop offset=".929" stop-color="#a46b42"/></linearGradient><path d="M79.75 36.2l-.1-.3.05.3v.75l-.55 4.6q.35-4.4.15-5.15l-.35-2.05-.35-.25-.05-.6-.05-.15v-.3l.5 1.35.15.25.15.25.15.25.25.4.05.05.25.4.05.2h-.3m-1.1-1.85l.05.15-.05-.05v-.1" fill="url(#aU)"/><linearGradient id="aV" gradientUnits="userSpaceOnUse" gradientTransform="matrix(.00465 .01006 -.0086 .00398 74.8 29.5)" x1="-819.2" x2="819.2"><stop offset=".255" stop-color="#482110"/><stop offset=".502" stop-color="#724224"/><stop offset="1" stop-color="#471400"/></linearGradient><path d="M77.85 36.2h.05v.05l-.05-.05" fill="url(#aV)"/><linearGradient id="aW" gradientUnits="userSpaceOnUse" gradientTransform="matrix(-.00177 -.00606 -.0077 .00372 80 32.3)" x1="-819.2" x2="819.2"><stop offset="0" stop-color="#884e29"/><stop offset=".475" stop-color="#65290a"/><stop offset=".929" stop-color="#a46b42"/></linearGradient><path d="M80.05 36.2l.1.4-.4-.4h.3" fill="url(#aW)"/><linearGradient id="aX" gradientUnits="userSpaceOnUse" gradientTransform="matrix(-.00383 .00946 -.00894 -.00539 66.7 28.1)" x1="-819.2" x2="819.2"><stop offset=".255" stop-color="#482110"/><stop offset=".502" stop-color="#724224"/><stop offset="1" stop-color="#6c2d03"/></linearGradient><path d="M66.1 29.9l-.1.35h-.05l.15-.45v.1" fill="url(#aX)"/><linearGradient id="aY" gradientUnits="userSpaceOnUse" gradientTransform="matrix(-.00247 .0054 -.00085 -.0004 65.6 27.1)" x1="-819.2" x2="819.2"><stop offset="0" stop-color="#b1744e"/><stop offset=".455" stop-color="#eac9a9"/><stop offset="1" stop-color="#9d5c39"/></linearGradient><path d="M65.3 27.75l-.55.75.2-.75L66.5 24l-.65 2.5 1.85-2.6-2.7 5.7h-.05l.7-2.3.05-.1-.35.6-.05-.05" fill="url(#aY)"/><linearGradient id="aZ" gradientUnits="userSpaceOnUse" gradientTransform="matrix(.00084 -.0054 .01007 .00302 63.05 34.2)" x1="-819.2" x2="819.2"><stop offset="0" stop-color="#8e5332"/><stop offset=".549" stop-color="#632301"/><stop offset=".933" stop-color="#935838"/></linearGradient><path d="M62.05 33.75v-.3l.15-.55.05-.45.05-.15.1-.65v-.15l.25-.85.05-.4v-.05l.25-.85.05-.15v-.1l.25-.5-.25.85-.3 1.2-.2.95-.1.45-.2.85-.1.4v.2l-.05.25" fill="url(#aZ)"/><linearGradient id="ba" gradientUnits="userSpaceOnUse" gradientTransform="matrix(.0026 -.00906 .01006 .00403 62.95 32.95)" x1="-819.2" x2="819.2"><stop offset="0" stop-color="#9b5935"/><stop offset="1" stop-color="#c48052"/></linearGradient><path d="M60.7 37.45l.1-1.25h.1l-.2 1.25" fill="url(#ba)"/><linearGradient id="bb" gradientUnits="userSpaceOnUse" gradientTransform="matrix(.0069 0 0 .0047 76.2 21.65)" x1="-819.2" x2="819.2"><stop offset="0" stop-color="#8b4e29"/><stop offset=".549" stop-color="#be8659"/><stop offset="1" stop-color="#6d2e0d"/></linearGradient><path d="M81.8 25.5q-1.1-3.55-3.8-5.65-2.15-1.75-4-1.75-1.9 0-2.8.5l-.65.5q-.1-.45.5-.7l1.85-.5q3.15-.7 6.15 2.75 2.3 2.6 2.8 4.8l-.05.05" fill="url(#bb)"/><linearGradient id="bc" gradientUnits="userSpaceOnUse" gradientTransform="matrix(.00778 0 0 .00793 64.1 24.3)" x1="-819.2" x2="819.2"><stop offset="0" stop-color="#8b4e29"/><stop offset=".549" stop-color="#be8659"/><stop offset="1" stop-color="#6d2e0d"/></linearGradient><path d="M70.4 18.8q-1.2-.6-2.45-.6-4.95 0-8.05 5.2-.75 1.25-1.2 2.4.35-1.05.85-2.15 1.5-3.45 5.35-5.05 3.75-1.6 5.6.1l-.1.1m-12.65 12l.05-.75.05.75h-.1" fill="url(#bc)"/><linearGradient id="bd" gradientUnits="userSpaceOnUse" gradientTransform="matrix(.00513 0 0 .0151 79.95 31.4)" x1="-819.2" x2="819.2"><stop offset="0" stop-color="#985a26"/><stop offset=".549" stop-color="#daa477"/><stop offset=".941" stop-color="#9c5e2c"/></linearGradient><path d="M83.3 39.4q.6-1.85.6-4.2 0-11.9-8.15-16.15 8.4 3.45 8.4 16.9 0 1.9-.75 3.9h-.25l.15-.45" fill="url(#bd)"/><linearGradient id="be" gradientUnits="userSpaceOnUse" gradientTransform="matrix(.00562 0 0 .00925 77.85 27.1)" x1="-819.2" x2="819.2"><stop offset="0" stop-color="#8b4e29"/><stop offset=".549" stop-color="#be8659"/><stop offset="1" stop-color="#6d2e0d"/></linearGradient><path d="M82.4 34.7q-1.45-5.3-2.65-7.9-2.05-4.5-6.5-7.25 4.55 2.6 6.65 7.2 1.15 2.65 2.55 7.9l-.05.05" fill="url(#be)"/><linearGradient id="bf" gradientUnits="userSpaceOnUse" gradientTransform="matrix(.00305 .00589 -.00537 .0028 73.95 26.55)" x1="-819.2" x2="819.2"><stop offset="0" stop-color="#8b4e29"/><stop offset=".549" stop-color="#be8659"/><stop offset="1" stop-color="#6d2e0d"/></linearGradient><path d="M73.25 24.35l1.95 4.4q1.6 3.7 1.6 5.2l-.1.35q-.25-1.9-1.55-5l-2-4.95h.1" fill="url(#bf)"/><linearGradient id="bg" gradientUnits="userSpaceOnUse" gradientTransform="matrix(.005 0 0 .008 63.05 25.75)" x1="-819.2" x2="819.2"><stop offset="0" stop-color="#8b4e29"/><stop offset=".549" stop-color="#be8659"/><stop offset="1" stop-color="#6d2e0d"/></linearGradient><path d="M58.95 32.3l1.9-6.7q1.7-3.75 6.3-6.4-4.3 2.8-6.05 6.55-1 2.15-2.05 6.5l-.1.05" fill="url(#bg)"/><linearGradient id="bh" gradientUnits="userSpaceOnUse" gradientTransform="matrix(.00247 0 0 .0064 57.65 37.6)" x1="-819.2" x2="819.2"><stop offset="0" stop-color="#985a26"/><stop offset=".549" stop-color="#daa477"/><stop offset=".941" stop-color="#9c5e2c"/></linearGradient><path d="M56.85 36v-.2l2.8-3.4.05-.05v.15l-1.85 2.35q-1.9 2.35-1.9 4.4l.05.6h-.2l-.15-.6q0-1.85 1.1-3.35h.05l.05.1" fill="url(#bh)"/><linearGradient id="bi" gradientUnits="userSpaceOnUse" gradientTransform="matrix(.00876 0 0 .01093 63.5 27.05)" x1="-819.2" x2="819.2"><stop offset="0" stop-color="#985a26"/><stop offset=".549" stop-color="#daa477"/><stop offset=".941" stop-color="#9c5e2c"/></linearGradient><path d="M56.8 35.9q-.35-.7-.4-1.6l-.05-1.7q0-4.25 2.05-7.85 1.15-2.05 2.85-3.5-1.25 1.25-2.3 3.15-2.45 4.4-2.45 8.25 0 1.15.35 3.15v.2l-.05-.1" fill="url(#bi)"/><linearGradient id="bj" gradientUnits="userSpaceOnUse" gradientTransform="matrix(.00311 0 0 .00604 74.7 30.55)" x1="-819.2" x2="819.2"><stop offset="0" stop-color="#985a26"/><stop offset=".549" stop-color="#daa477"/><stop offset=".941" stop-color="#9c5e2c"/></linearGradient><path d="M72.25 25.6q.6 3.15 1.35 4.9 1.2 2.75 3.65 4.95l-.05.05q-2.45-1.9-3.65-4.55-.65-1.45-1.4-4.75v-.6h.1" fill="url(#bj)"/><linearGradient id="bk" gradientUnits="userSpaceOnUse" gradientTransform="matrix(.00302 0 0 .00476 68.2 30)" x1="-819.2" x2="819.2"><stop offset="0" stop-color="#985a26"/><stop offset=".549" stop-color="#daa477"/><stop offset=".941" stop-color="#9c5e2c"/></linearGradient><path d="M69.55 30.45q-1.25 2.25-3.05 3.5 1.9-1.75 2.8-3.5.95-1.95 1.2-4.35h.15l.05.55q0 1.8-1.15 3.8" fill="url(#bk)"/><linearGradient id="bl" gradientUnits="userSpaceOnUse" gradientTransform="matrix(.00333 0 0 .00516 65.8 30.2)" x1="-819.2" x2="819.2"><stop offset="0" stop-color="#985a26"/><stop offset=".549" stop-color="#daa477"/><stop offset=".941" stop-color="#9c5e2c"/></linearGradient><path d="M66.9 30.2q-1.35 2.45-3.75 4.25l-.05-.1q2.15-1.7 3.55-4.2l1.9-4.15-1.65 4.2" fill="url(#bl)"/><linearGradient id="bm" gradientUnits="userSpaceOnUse" gradientTransform="matrix(.00235 0 0 .00583 65 28.8)" x1="-819.2" x2="819.2"><stop offset="0" stop-color="#985a26"/><stop offset=".549" stop-color="#daa477"/><stop offset=".941" stop-color="#9c5e2c"/></linearGradient><path d="M63.15 33.6l-.05-1.25q0-1.6 1.35-4.75 1.45-3.25 2.5-3.55-1.9 2-2.75 4.75-.45 1.45-.95 4.75l-.1.05" fill="url(#bm)"/><linearGradient id="bn" gradientUnits="userSpaceOnUse" gradientTransform="matrix(-.00111 -.0028 -.00519 .00208 86.9 57.55)" x1="-819.2" x2="819.2"><stop offset="0" stop-color="#fff" stop-opacity="0"/><stop offset=".475" stop-color="#fff" stop-opacity=".514"/><stop offset="1" stop-color="#fff" stop-opacity="0"/></linearGradient><path d="M85.75 54.6q1.55 1.5 2.75 3.45l1.65 3 .2.4-.25-.3q-1.35-2.05-2.45-2.65l1.2 3-5.35-7.35 3.65 4-3.2-4.6 4 4.55-2.25-3.5h.05" fill="url(#bn)"/><linearGradient id="bo" gradientUnits="userSpaceOnUse" gradientTransform="matrix(-.00418 .00055 .00053 .00403 84.8 64.9)" x1="-819.2" x2="819.2"><stop offset="0" stop-color="#fff" stop-opacity="0"/><stop offset=".475" stop-color="#fff" stop-opacity=".514"/><stop offset="1" stop-color="#fff" stop-opacity="0"/></linearGradient><path d="M85.4 62.85q1.9 1 3 2.95-1.35-1.9-3.35-2.2 3.05 1.75 3.5 4.25-2.55-2.7-6.6-3.15 2-.55 4.75 1.05-1.95-2.4-5.7-3.2l3.8.45-2.2-1.1q1.5.25 2.75.9l-.1.45.15-.4" fill="url(#bo)"/><linearGradient id="bp" gradientUnits="userSpaceOnUse" gradientTransform="matrix(-.0022 -.00113 .00192 -.0037 87 72.15)" x1="-819.2" x2="819.2"><stop offset="0" stop-color="#fff" stop-opacity="0"/><stop offset=".475" stop-color="#fff" stop-opacity=".514"/><stop offset="1" stop-color="#fff" stop-opacity="0"/></linearGradient><path d="M87.8 72.05q.8 1.9.7 3.3-1.2-3.55-3.9-5.55l2.35 1.55-1.75-2.5q2.3 1.55 3.95 4.5l-1.35-1.3" fill="url(#bp)"/><linearGradient id="bq" gradientUnits="userSpaceOnUse" gradientTransform="matrix(.00269 .00247 -.00452 .00491 92.4 69.25)" x1="-819.2" x2="819.2"><stop offset="0" stop-color="#fff" stop-opacity="0"/><stop offset=".475" stop-color="#fff" stop-opacity=".514"/><stop offset="1" stop-color="#fff" stop-opacity="0"/></linearGradient><path d="M95.35 69.5q.2 2.6-2.1 5.25 1.5-2.2 1.55-4.45V70q-.3-4-5.45-6.2 1.7.25 2.85 1l.9.6q1.95 1.45 2.25 4.1" fill="url(#bq)"/><linearGradient id="br" gradientUnits="userSpaceOnUse" gradientTransform="matrix(.0026 -.0028 .00322 .00302 64 24.35)" x1="-819.2" x2="819.2"><stop offset="0" stop-color="#fff" stop-opacity="0"/><stop offset=".475" stop-color="#fff" stop-opacity=".773"/><stop offset="1" stop-color="#fff" stop-opacity="0"/></linearGradient><path d="M65.7 20.75l-1.8 1.9 2.55-1.8q-3.15 2.9-4.9 7.15.4-1.95 2.2-5.15-.6.25-1.3 1.05 1.35-1.95 3.25-3.15" fill="url(#br)"/><linearGradient id="bs" gradientUnits="userSpaceOnUse" gradientTransform="matrix(.00308 -.0033 .00063 .00058 63 21.8)" x1="-819.2" x2="819.2"><stop offset="0" stop-color="#fff" stop-opacity="0"/><stop offset=".475" stop-color="#fff" stop-opacity=".624"/><stop offset="1" stop-color="#fff" stop-opacity="0"/></linearGradient><path d="M63 20.95l.8-.55.4-.25 1.35-.5.5-.05q-3.6 2.45-5.35 5.1.9-1.9 2.45-3.3l-1.45.85 1.3-1.3" fill="url(#bs)"/><linearGradient id="bt" gradientUnits="userSpaceOnUse" gradientTransform="matrix(.00012 .0028 -.0048 .0002 70.15 26.05)" x1="-819.2" x2="819.2"><stop offset="0" stop-color="#fff" stop-opacity="0"/><stop offset=".475" stop-color="#fff" stop-opacity=".573"/><stop offset="1" stop-color="#fff" stop-opacity="0"/></linearGradient><path d="M70.85 22.75q.35 2.15.35 4.2v.35l-1 3.35q.45-1.65.55-4.2L69 29.9l1-2.7-.95 1.4 1.4-5.4-.25 3.35q.6-1.25.65-3.75v-.05" fill="url(#bt)"/><linearGradient id="bu" gradientUnits="userSpaceOnUse" gradientTransform="matrix(-.00266 -.00365 -.0007 .0005 77.4 22.15)" x1="-819.2" x2="819.2"><stop offset="0" stop-color="#fff" stop-opacity="0"/><stop offset=".475" stop-color="#fff" stop-opacity=".643"/><stop offset="1" stop-color="#fff" stop-opacity="0"/></linearGradient><path d="M75.15 19.7l1.25.7.4.3.7.65 1.15 1.4-1.35-1.05q1.4 1.6 2.05 3.6-1.45-2.85-4.7-5.7l.5.1" fill="url(#bu)"/><linearGradient id="bv" gradientUnits="userSpaceOnUse" gradientTransform="matrix(-.0026 -.0028 -.00322 .00302 75.85 24.7)" x1="-819.2" x2="819.2"><stop offset="0" stop-color="#fff" stop-opacity="0"/><stop offset=".475" stop-color="#fff" stop-opacity=".773"/><stop offset="1" stop-color="#fff" stop-opacity="0"/></linearGradient><path d="M76.1 23.2q1.8 3.2 2.2 5.15-1.75-4.25-4.9-7.15l2.55 1.8-1.8-1.9q1.9 1.2 3.25 3.15-.7-.8-1.3-1.05" fill="url(#bv)"/><linearGradient id="bw" gradientUnits="userSpaceOnUse" gradientTransform="matrix(.00075 -.0026 .00455 .00131 68.2 26.65)" x1="-819.2" x2="819.2"><stop offset="0" stop-color="#fff" stop-opacity="0"/><stop offset=".475" stop-color="#fff" stop-opacity=".573"/><stop offset="1" stop-color="#fff" stop-opacity="0"/></linearGradient><path d="M68.9 26.75l-1.9 4.1 1.4-4.5-1.9 2.8 1.8-4.25-.15 1.35q.85-.8 1.6-3.15l-.8 3.6-.05.05" fill="url(#bw)"/><linearGradient id="bx" gradientUnits="userSpaceOnUse" gradientTransform="matrix(.0019 -.00204 .00084 .0008 66.25 26.7)" x1="-819.2" x2="819.2"><stop offset="0" stop-color="#fff" stop-opacity="0"/><stop offset=".475" stop-color="#fff" stop-opacity=".573"/><stop offset="1" stop-color="#fff" stop-opacity="0"/></linearGradient><path d="M64.8 29.6q.7-3.4 2.95-5.9l-2.95 5.9" fill="url(#bx)"/><linearGradient id="by" gradientUnits="userSpaceOnUse" gradientTransform="matrix(.00421 0 0 .00406 58.2 63.45)" x1="-819.2" x2="819.2"><stop offset="0" stop-color="#fff" stop-opacity="0"/><stop offset=".475" stop-color="#fff" stop-opacity=".514"/><stop offset="1" stop-color="#fff" stop-opacity="0"/></linearGradient><path d="M57.95 61.55l3.7-.95q-3.6 1.3-5.25 3.9 2.5-1.9 4.6-1.65-3.95 1-6.15 3.95.15-2.5 2.9-4.6-1.9.55-3 2.6 1.4-3.45 5.2-4.65l-2 1.4" fill="url(#by)"/><linearGradient id="bz" gradientUnits="userSpaceOnUse" gradientTransform="matrix(.00044 -.003 .00552 .00082 53.3 57.95)" x1="-819.2" x2="819.2"><stop offset="0" stop-color="#fff" stop-opacity="0"/><stop offset=".475" stop-color="#fff" stop-opacity=".514"/><stop offset="1" stop-color="#fff" stop-opacity="0"/></linearGradient><path d="M53.8 54.8l-1.35 3.95 2.8-5.35-2.05 5.15 2.6-4.7-3.45 8.4.45-3.2q-1.05.95-1.95 3.5.35-2 1-3.7.75-2.25 1.9-4.05h.05" fill="url(#bz)"/><linearGradient id="bA" gradientUnits="userSpaceOnUse" gradientTransform="matrix(-.0026 -.0028 .00244 -.00229 50.3 69.85)" x1="-819.2" x2="819.2"><stop offset="0" stop-color="#fff" stop-opacity="0"/><stop offset=".475" stop-color="#fff" stop-opacity=".514"/><stop offset="1" stop-color="#fff" stop-opacity="0"/></linearGradient><path d="M49 69.25q-.2-2.1 1.1-4.45-1.7 5.95 2.55 9.7l-1.1-.45-1.9-1.7q-2.3-3.5-.25-7.15-.8 2.2-.4 4.05" fill="url(#bA)"/><linearGradient id="bB" gradientUnits="userSpaceOnUse" gradientTransform="matrix(.00491 0 0 .01675 84.85 64.1)" x1="-819.2" x2="819.2"><stop offset="0" stop-color="#985a26"/><stop offset=".549" stop-color="#daa477"/><stop offset=".941" stop-color="#9c5e2c"/></linearGradient><path d="M88.65 76.25v-.55l-.2-4.3q-.2-3.9-1.25-6.45l-3.45-6.5-2.1-4.1h.2l.9 2.1 3.6 6.1Q88.9 66.7 88.9 74.6l-.05 1.55V77l-.05.8-.1.05V77l-.05-.7v-.05" fill="url(#bB)"/><linearGradient id="bC" gradientUnits="userSpaceOnUse" gradientTransform="matrix(.0068 0 0 .01181 87.35 56.15)" x1="-819.2" x2="819.2"><stop offset="0" stop-color="#985a26"/><stop offset=".549" stop-color="#daa477"/><stop offset=".941" stop-color="#9c5e2c"/></linearGradient><path d="M92.9 64.85q-.15.6-.75 1l.35-.65.2-.7q0-2.05-1.65-4.3l-3.4-4.5-.9-1.35H87l.85 1.15 3.4 4.6q1.7 2.4 1.7 4.35l-.05.4" fill="url(#bC)"/><linearGradient id="bD" gradientUnits="userSpaceOnUse" gradientTransform="matrix(.00708 0 0 .01913 82.9 63.2)" x1="-819.2" x2="819.2"><stop offset="0" stop-color="#985a26"/><stop offset=".549" stop-color="#daa477"/><stop offset=".941" stop-color="#9c5e2c"/></linearGradient><path d="M88.65 76.3l.05.7v.25l-.1.45q-.3.75-1.45 1.2l1.15-1.35.05-1.15q0-1.65-1.75-3.5l-3.85-3.5q-5.65-5.3-5.65-12.2 0-1.45.15-2.85h.25q-.15 1.4-.15 2.85 0 6.7 5.7 11.9l3.9 3.6q1.4 1.5 1.7 3v.55l-.1.05h.1" fill="url(#bD)"/><linearGradient id="bE" gradientUnits="userSpaceOnUse" gradientTransform="matrix(.00415 0 0 .00748 92.05 70.85)" x1="-819.2" x2="819.2"><stop offset="0" stop-color="#985a26"/><stop offset=".549" stop-color="#daa477"/><stop offset=".941" stop-color="#9c5e2c"/></linearGradient><path d="M92.9 64.85q1 .45 1.8 2 .75 1.45.75 2.5 0 2.15-1.45 4.35-1.85 2.85-5.15 3.3 3.1-.7 4.9-3.45 1.45-2.15 1.45-4.2 0-.9-.75-2.4t-1.55-2.1" fill="url(#bE)"/><linearGradient id="bF" gradientUnits="userSpaceOnUse" gradientTransform="matrix(.00311 0 0 .00385 91.1 73.15)" x1="-819.2" x2="819.2"><stop offset="0" stop-color="#985a26"/><stop offset=".549" stop-color="#daa477"/><stop offset=".941" stop-color="#9c5e2c"/></linearGradient><path d="M88.85 76.15q2.35-1.1 3.4-3.1l1.4-3.05-1.05 3.15q-.95 1.8-3.35 3.15h-.4v-.15m-.3.15l.1-.05v.05h-.1" fill="url(#bF)"/><linearGradient id="bG" gradientUnits="userSpaceOnUse" gradientTransform="matrix(.00427 0 0 .01633 61.15 57.9)" x1="-819.2" x2="819.2"><stop offset="0" stop-color="#965824"/><stop offset=".549" stop-color="#daa477"/><stop offset=".941" stop-color="#9c5e2c"/></linearGradient><path d="M63.6 54.35q1.05 2.7 1.05 5.25 0 2.95-2.05 5.6l-4.95 6.1 4.6-6.15q2.1-2.75 2.1-5.55 0-2.4-1.05-5.25h.3" fill="url(#bG)"/><linearGradient id="bH" gradientUnits="userSpaceOnUse" gradientTransform="matrix(.00418 0 0 .00873 57.85 67.5)" x1="-819.2" x2="819.2"><stop offset="0" stop-color="#965824"/><stop offset=".549" stop-color="#daa477"/><stop offset=".941" stop-color="#9c5e2c"/></linearGradient><path d="M57.75 61.45q1.4-1.05 3.55-1.1v.05q-2.3.55-3.8 1.85-.55.45-1.2 1.35l1.45-2.15M55.7 64.4q-.7 1-.85 2.1l-.05 2.1q0 1.95.7 3.1.95 1.55 3.6 2.85l-.3.1q-2.4 0-3.6-2.85-.75-1.8-.75-3.2l.05-2.35.1-.4q.2-1 .9-1.8l1.2-1.55-2.1 3.35 1.1-1.45" fill="url(#bH)"/><linearGradient id="bI" gradientUnits="userSpaceOnUse" gradientTransform="matrix(.00516 0 0 .01257 53.65 53.85)" x1="-819.2" x2="819.2"><stop offset="0" stop-color="#965824"/><stop offset=".549" stop-color="#daa477"/><stop offset=".941" stop-color="#9c5e2c"/></linearGradient><path d="M49.55 61.25q.45-2.6 3-6.9h.3q-1.85 3.4-2.55 5.6l-.75 1.3m.4-.05l-.15 1.05.05.9q.25.55 1.25.75l.05.1-.4.15q-.95 0-1.2-.9l-.1-.95v-.15l.5-.95" fill="url(#bI)"/><linearGradient id="bJ" gradientUnits="userSpaceOnUse" gradientTransform="matrix(.00409 0 0 .01321 55.25 62.6)" x1="-819.2" x2="819.2"><stop offset="0" stop-color="#8b4e29"/><stop offset=".549" stop-color="#be8659"/><stop offset="1" stop-color="#6d2e0d"/></linearGradient><path d="M58.35 54.35Q57.7 57 55.4 59.9q-3.25 4.05-3.25 7.45 0 1.25.75 3.35.85 2.4 1.9 2.75-1.35-.25-2.2-2.7-.7-1.9-.7-3.4 0-3.65 2.85-6.9 2.3-2.65 3.2-6.1h.4" fill="url(#bJ)"/><linearGradient id="bK" gradientUnits="userSpaceOnUse" gradientTransform="matrix(.00381 0 0 .0126 57.6 55.6)" x1="-819.2" x2="819.2"><stop offset="0" stop-color="#965824"/><stop offset=".549" stop-color="#daa477"/><stop offset=".941" stop-color="#9c5e2c"/></linearGradient><path d="M54.6 65.85l2.1-3.35 2.1-3.5q1.15-2.35 1.55-4.65h.25q-.35 2.4-1.5 4.75l-1.35 2.35-1.45 2.15-.45.6-.15.2-1.1 1.45" fill="url(#bK)"/><linearGradient id="bL" gradientUnits="userSpaceOnUse" gradientTransform="matrix(.00378 0 0 .01102 50.85 66)" x1="-819.2" x2="819.2"><stop offset="0" stop-color="#965824"/><stop offset=".549" stop-color="#daa477"/><stop offset=".941" stop-color="#9c5e2c"/></linearGradient><path d="M52 74.75l-2.55-1.25q-.5-.3-.7-.9l-.3-1.05q-.55-1.2-.65-2.1l-.05-1.8q0-2.8 1.8-6.4l.75-1.3q1.15-2.1 2.25-2.95-1.6 2.25-2.6 4.2l-.5.95Q48.05 65 48.05 67q0 3 .6 4.5.85 2 2.75 2.8l.6.45m.4-.15l1.25.15.3.15-.75.15-.8-.45" fill="url(#bL)"/><linearGradient id="bM" gradientUnits="userSpaceOnUse" gradientTransform="matrix(.0062 0 0 .00613 54.8 70.6)" x1="-819.2" x2="819.2"><stop offset="0" stop-color="#965824"/><stop offset=".549" stop-color="#daa477"/><stop offset=".941" stop-color="#9c5e2c"/></linearGradient><path d="M50.05 67.75q0 2.05 2.3 4.75 3.05 3.6 7.55 2.85l-2.75.3q-3.4 0-5.7-3.6-1.7-2.7-1.7-4.3l.2-1.35q.3-.95.65-.75-.55.35-.55 2.1" fill="url(#bM)"/><linearGradient id="bN" gradientUnits="userSpaceOnUse" gradientTransform="matrix(.00555 0 0 .00497 52.75 72.25)" x1="-819.2" x2="819.2"><stop offset="0" stop-color="#965824"/><stop offset=".549" stop-color="#daa477"/><stop offset=".941" stop-color="#9c5e2c"/></linearGradient><path d="M51.4 74.3l-1.15-1.2q-2.05-2.45-2.05-4.15l.05-.75h.1q.1 2.5 1.95 4.6l2.1 1.8.8.45q1.75.85 4.1 1.2l-.2.1q-2.9 0-5.1-1.6l-.6-.45" fill="url(#bN)"/><linearGradient id="bO" gradientUnits="userSpaceOnUse" gradientTransform="matrix(.00528 0 0 .00766 88.95 58.75)" x1="-819.2" x2="819.2"><stop offset="0" stop-color="#a26430"/><stop offset=".459" stop-color="#ffc18c"/><stop offset=".941" stop-color="#a96b39"/></linearGradient><path d="M89.5 58.75q3.05 3.85 3.8 6.2l-.05.1q-.95-2.25-4.05-6.3-3.65-4.65-4.55-6.25h.1l4.75 6.25" fill="url(#bO)"/><linearGradient id="bP" gradientUnits="userSpaceOnUse" gradientTransform="matrix(.00366 0 0 .00781 51.8 69.3)" x1="-819.2" x2="819.2"><stop offset="0" stop-color="#a26430"/><stop offset=".459" stop-color="#ffc18c"/><stop offset=".941" stop-color="#a96b39"/></linearGradient><path d="M49.25 65.7q.6-2 1.6-2.8-.8.85-1.35 2.85-.45 1.7-.45 3.15 0 1.85 1.2 3.95 1.7 2.95 4.55 2.7l-.9.15q-2.55 0-4.05-3.15-1.05-2.2-1.05-3.7 0-1.55.45-3.15" fill="url(#bP)"/></g></svg>