<svg xmlns="http://www.w3.org/2000/svg" width="31" height="41"><g transform="translate(-54.6 -16.65)"><radialGradient id="a" gradientUnits="userSpaceOnUse" gradientTransform="matrix(.0357 0 0 .0279 70.45 27.05)" spreadMethod="pad" cx="0" cy="0" r="819.2" fx="210312" fy="0"><stop offset=".361" stop-color="#e34b21" stop-opacity=".4"/><stop offset="1" stop-color="#f5c4a9" stop-opacity=".133"/></radialGradient><path d="M81.05 39.3l-.3 1-.3.25-.75.55.8-1.9-.75.85.6-1.35.1-.4.2-.8.05-.65-.1.5-.35 1.3-.4-1.4-.05-.05-.1-.25.1.45.05.5-.2-.25-.5-.75.35.8-.25-.3-.2-.4-.2-.95-.05.45.1.65-.3-.6q-.2-.6-.25-1.2L78 36.4v-.8h-.05l-.05.1v.2l-.05.25-.1.55v-.65l-.2.55.05-.65-.2.45v-1.5l-.05-.2v.2l-.05.2-.35.85v-.7l-.15.6V35l-.2.75-.05-.55-.15.4v-.15l-.05-.9q-.3-1.45-1.2-2.6l.05 1.2-.15 1.4-.1.25-1.05 1.1.75-1.1-.95 1.1.4-.65-.1.15-.35.2.3-.25-.4.15.25-.25.05-.25-.2.2-.35.25.55-.8.25-.85-.25.65-.05.15-.05.05-.95.9-.45.2.45-.3-.5.2q.75-.5 1.15-1.55l.05-.1.2-2.05-.55 2.15-.1.2-.55.85-.15.1-1.25.7.3-.3-.5.25.5-.45-.65.35.8-.75-1.3.7.5-.5-.4.25q1.2-.8 1.5-1.85l.15-.75q.1-1.15-.15-2.2l-.1-.25.05 1.45q-.05 2.15-.75 2.8l-.05.05-1.05.75-.6.25.55-.4-1.05.5h-.05v-.05l.1-.1.15-.1-.7.25.45-.4-.5.25q1.9-1 2-3.15l.05-.1v-.1q0-2.6-.85-5.2l-.05-.1v.1q-.2 2.2-.7 3.8v.1l-.1.35-.05.1v.2l-.4 1-.25.6-.05.1-.05.1v.05l-.3.45-.2.4-1.25 1.2.4-.7-1.2 1.1.6-.85-1.3 1.15.8-.85-.8.5-.1.1-.3.15.45-.75-.15.15-.7.65.65-1-1.05 1.15.35-.7-1.7 1.7.6-1.1L61.3 38l-.1.15q-.55 1.1-.6 2.7l-.1-1.75-.25 1.7.1 1.05.05.4-.15-.35-.25-1.55q.05 1.6.2 1.95l-.35-.5-.15-.6.1.65.05.2.35.65-.35-.3-.25-.3-.35-.85.35 1.25-.45-.8-.35-1.2-.1-1.25q0-5.5.5-7.95.25-1.5 1.6-4.8l.5-1.15h15.85l1.9 2.35q2.35 3.65 2.35 9.2 0 1.55-.35 2.4m-3.35-5.7v.15l.05.05-.05-.2m3.1 2.6v.2l.05.05-.05-.25" fill="url(#a)"/><linearGradient id="b" gradientUnits="userSpaceOnUse" gradientTransform="matrix(.00725 .00012 -.00017 .0091 76.8 25.4)" x1="-819.2" x2="819.2"><stop offset="0" stop-color="#39251d"/><stop offset=".541" stop-color="#652913"/><stop offset=".949" stop-color="#8c5539"/></linearGradient><path d="M79.25 24.05l.1.1v.1l.5.85.7 1.4.2.4 1.6 3.75v.1l.05.15.1.45v.1l.05.1.05.3-.05.4.05.7-.5-1.9v-.1l-1.6-4.05-.2-.4-.7-1.4-1.6-2.65-.1-.2q-1.45-2.2-3.2-3.15 1.4 1.15 1.85 2.25l-1.1-1.15-1.7-1.3-.1-.1.1.15q2.65 2.9 3.3 4.55l-.7-1-.4-.5-1.25-1.65h.05l-.05-.05-1-.8q-.95-.65-1.85-.95l1.95-.05.8.15-.8-.2-2.55-.05-.3-.1.05-.05.35-.4h.05l2.4.4 1.35.5.3.2.25.1q1.65 1.65 3.55 5" fill="url(#b)"/><linearGradient id="c" gradientUnits="userSpaceOnUse" gradientTransform="matrix(.00348 .00679 -.00539 .00276 79 24.85)" x1="-819.2" x2="819.2"><stop offset="0" stop-color="#5d3529"/><stop offset=".62" stop-color="#895039"/><stop offset=".941" stop-color="#885134"/></linearGradient><path d="M75.7 19.05l.6.35.35.25q1.4 1.15 2.75 3.4l1.1 2.05.6 1.4.15.4 1.1 3.75-1.6-3.75-.2-.4-.7-1.4-.5-.85v-.1l-.1-.1q-1.9-3.35-3.55-5" fill="url(#c)"/><radialGradient id="d" gradientUnits="userSpaceOnUse" gradientTransform="rotate(.744 -942.574 3843.424) scale(.02611)" spreadMethod="pad" cx="0" cy="0" r="819.2" fx="0" fy="0"><stop offset="0" stop-color="#372b21"/><stop offset=".949" stop-color="#69382c"/></radialGradient><path d="M82.6 32.2v-.35l-.05-.3-.05-.1v-.1l-.1-.45-.05-.15v-.1l-1.1-3.75-.15-.4-.6-1.4-1.1-2.05q-1.35-2.25-2.75-3.4l-.35-.25-.6-.35-.25-.1-.3-.2-1.35-.5-2.4-.4h-.8l-.9-.2h-.15l-1.45.1h-.15q-1.25.25-2.35.8l-.6.3-1.7.05q.7-.7 1.95-.6l1.05-.5 1.25-.2.5-.25q.25-.25.55-.15l.55-.15.55-.2.55.25.4.35 2.15.2 1.1.15q2.1.5 4.2 2.4 1.95 2.15 3.1 4.9l.55 1.4.1.4.55 2.3.35 3 .1 1.75-.25-1.75" fill="url(#d)"/><linearGradient id="e" gradientUnits="userSpaceOnUse" gradientTransform="matrix(-.00197 .00829 -.0074 -.00175 81.8 30.95)" x1="-819.2" x2="819.2"><stop offset="0" stop-color="#83442a"/><stop offset=".949" stop-color="#471f13"/></linearGradient><path d="M82.4 37.6l.2-1.1-.2.65-.2.55-1 1.95.8-2.1-.65.85.25-2-.6 1.9v-.05l.2-2.05-.05-.3v-.45l-.05-2.2-.35 2.5-.15.5-.05-.8.05-.2.2-1.2-.05-1.55q-.2-2.05-1.05-5 1.05 1.4 1.45 4.95l.25 1.9v.1l.05 1.6.35-2.05.1 3.2.3-2.5.05-1.55.1 2.85.05-.25.15-1.4.05-1.4-.05-.7.05-.4v.35l.25 1.75v.15q.1 1.9-.2 3.4l-.15.65-.1.15-.2.35.2-1.05" fill="url(#e)"/><linearGradient id="f" gradientUnits="userSpaceOnUse" gradientTransform="matrix(.00523 .0097 -.00978 .00528 78.05 28)" x1="-819.2" x2="819.2"><stop offset="0" stop-color="#562419"/><stop offset=".424" stop-color="#94502d"/><stop offset=".949" stop-color="#6b3a2c"/></linearGradient><path d="M80.6 35.2l-.2-2.6-.5-2.25.15 2.15L78.9 28l-.4-1.1-.15-.4-.6-1.4q-1.35-2.7-3.2-4.5l1.4 1.4.4.5.7 1q-.65-1.65-3.3-4.55l-.1-.15.1.1 1.7 1.3 1.1 1.15q-.45-1.1-1.85-2.25 1.75.95 3.2 3.15l.1.2 1.6 2.65.7 1.4.2.4 1.6 4.05v.1l.5 1.9-.05 1.4-.15 1.4-.05.25-.1-2.85-.05 1.55-.3 2.5-.1-3.2-.35 2.05-.05-1.6v-.1l-.25-1.9q-.4-3.55-1.45-4.95.85 2.95 1.05 5l.05 1.55-.2 1.2v-.05m.85-2.25v-.5q0-1.65-.7-4.25.75 1.8 1.3 4.1-.35-2.25-1.15-4.15l-.55-1.25-.2-.4-.8-1.4-.35-.6-2.05-3.15 1.5 2.7-1.85-2.55q1.2 1.65 2.2 3.6l.35.75-.4-.75-2.05-2.9 1.6 2.9.4.85.05.2.15.35.2.4.9 2.75.4 1.55-.65-3.1v-.05l-.55-1.95.25.4.25.4.7 1.45v.1l.95 4 .1.5" fill="url(#f)"/><linearGradient id="g" gradientUnits="userSpaceOnUse" gradientTransform="matrix(-.00026 .00319 -.00337 -.00027 80.45 34.25)" x1="-819.2" x2="819.2"><stop offset="0" stop-color="#51210c"/><stop offset=".949" stop-color="#2b0b01"/></linearGradient><path d="M80.55 35.45l.05.8.15-.5.35-2.5.05 2.2v.7l-.05.1-.05.35-.4 1.45-.45-1.4-.05-.05-.35-3.9v.05q.5 1.6.6 3.2v.2l.15-.75v.05" fill="url(#g)"/><linearGradient id="h" gradientUnits="userSpaceOnUse" gradientTransform="matrix(.00148 .00575 -.00677 .00175 79.35 27.15)" x1="-819.2" x2="819.2"><stop offset="0" stop-color="#834228"/><stop offset=".471" stop-color="#bd6c47"/><stop offset=".949" stop-color="#925f4c"/></linearGradient><path d="M81.35 32.45l-.95-4v-.1l-.7-1.45-.25-.4-.25-.4.55 1.95v.05l.65 3.1-.4-1.55-.9-2.75-.2-.4-.15-.35-.05-.2-.4-.85-1.6-2.9 2.05 2.9.4.75-.35-.75q-1-1.95-2.2-3.6l1.85 2.55-1.5-2.7L79 24.5l.35.6.8 1.4.2.4.55 1.25q.8 1.9 1.15 4.15-.55-2.3-1.3-4.1.7 2.6.7 4.25v.5l-.1-.5" fill="url(#h)"/><linearGradient id="i" gradientUnits="userSpaceOnUse" gradientTransform="matrix(-.00153 .00215 -.00235 -.00166 81.9 38.35)" x1="-819.2" x2="819.2"><stop offset="0" stop-color="#51210c"/><stop offset=".949" stop-color="#2b0b01"/></linearGradient><path d="M81.1 36.25l.05-.1.05.05-.2 2.05v.05l.6-1.9-.25 2 .65-.85-.8 2.1 1-1.95.2-.55.2-.65-.2 1.1-.2 1.05-1.4 1.65-.8.55.85-1.9-.8.85.65-1.35.1-.4.25-1.45.05-.35" fill="url(#i)"/><linearGradient id="j" gradientUnits="userSpaceOnUse" gradientTransform="matrix(.00333 -.01123 .01175 .0035 64.9 27.25)" x1="-819.2" x2="819.2"><stop offset="0" stop-color="#48190d"/><stop offset=".286" stop-color="#8c4f35"/><stop offset=".714" stop-color="#61230e"/><stop offset="1" stop-color="#3b1814"/></linearGradient><path d="M62.15 36.5l-.65.65.65-1.1.05-.1.75-2q-1.1 2.25-1.9 2.9.85-1.25 1.3-2.95l-2.2 3.7.35-1.2.35-.6-.05.1.15-.2 1.9-4.15.05-.1.05-.35.05-.35.1-.6q.25-1.65.75-3.25l.1-.4.5-1.4q.75-2.15 1.95-4.25-1.5 2.05-2.4 4.25l-.05.1.05-.1q1.2-3.5 4.4-6.95l1-.45.3-.05.9.2h.75l-.35.4-.9.05.9-.15-.8-.15-.45-.05-1.1.4q-1.1.9-2.05 2.15l1.5-1.4-.75 1.25-.05.15q-1.1 2.05-1.8 4.1.75-2 2.45-4.8.45-.75 1.1-1.2l-.7 1.2q.6-1.05 1.55-1.45l-.65.75.9-.5q-1 .95-1.35 2.2l-.15.6-.05.15-.85 3.55-.15 1.4-.05.4-.05-1.15-.3 1.75.05-.6v-.75l.1-1.05q.4-3.2 2.05-5.85-.9.5-1.65 1.95l.4-1.25q-1.25 2.15-2 5.15l-.3 1.4-.1.4-.15.8.1-.8.05-.4.25-1.4.45-1.75.85-2.35-1.8 4.1-.5 1.4-.15.4-.5 1.5.35-1.5.1-.4.4-1.4q.8-2.5 2.1-4.9-1.65 2.2-2.6 4.9l-.45 1.4-.1.4-.25 1.05-.05.2-.6 3.3-.9 3.4 1.2-3.4.65-2.3-.4 2.3-.75 3.1v.1l-.9 1.85" fill="url(#j)"/><radialGradient id="k" gradientUnits="userSpaceOnUse" gradientTransform="translate(65.35 25.1) scale(.00949)" spreadMethod="pad" cx="0" cy="0" r="819.2" fx="0" fy="0"><stop offset="0" stop-color="#62240f"/><stop offset=".957" stop-color="#2d1511"/></radialGradient><path d="M70.95 18.3l-.5.3q-.9.7-1.65 2.2.35-1.25 1.35-2.2l-.9.5.65-.75q-.95.4-1.55 1.45l.7-1.2q-.65.45-1.1 1.2-1.7 2.8-2.45 4.8.7-2.05 1.8-4.1l.05-.15.75-1.25-1.5 1.4q.95-1.25 2.05-2.15l1.1-.4.45.05.8.15-.9.15.9-.05-.05.05" fill="url(#k)"/><radialGradient id="l" gradientUnits="userSpaceOnUse" gradientTransform="translate(71.05 18.35) scale(.0088)" spreadMethod="pad" cx="0" cy="0" r="819.2" fx="0" fy="0"><stop offset="0" stop-color="#35231e"/><stop offset=".808" stop-color="#45190f"/><stop offset=".973" stop-color="#5b2210"/></radialGradient><path d="M70.45 18.6l.5-.3.3.1.05.05.15.85v.05q.35 3.1 1.3 5.65l-1.4-4.1q.35 2.2 1 4.2l.5 1.4.15.4.3.75v.05l-.5-.3-.15-.5-.15-.4-.4-1.4q-.8-2.7-1.3-5.5.15 2.6.75 5.15-.7-1.7-.95-3.7.15 2.25.6 4.05l.2.85-.3-.85q-.6-1.65-.85-3.5.1 1.9.35 3.5v.15l-.05 1.45v-.2l-.2-1.4-.4-4.65-.1 4.65.05 1.4.05.4v.65l-.1-.65-.05-.4-.15-1.4q-.2-1.9-.15-3.95l-.3 1.05q-.4 1.5-.5 2.9 0-2.35.55-4.6-.8 2.45-.95 4.6-.1-1.8.35-3.7l.15-.6q.75-1.5 1.65-2.2m.35 2.65l-.3-1.95q-.4.85-.35 1.95l.1-.55q.05 1.1.35 2-.2-1.15-.1-2.4l.3.95" fill="url(#l)"/><linearGradient id="m" gradientUnits="userSpaceOnUse" gradientTransform="matrix(.00403 .00008 -.00008 .0046 74.5 22.05)" x1="-819.2" x2="819.2"><stop offset="0" stop-color="#22130e"/><stop offset=".941" stop-color="#5b2a1c"/></linearGradient><path d="M71.3 18.45l-.05-.05 2.55.05.8.2-.8-.15-1.95.05q.9.3 1.85.95l1 .8v.05l-1.25-.6.25.15q1.3.95 3.65 5.2l.4.75-.45-.75q-1.25-1.95-2.9-3.85l-.05-.1-.7-.75-1-1.1-.1-.05.95 2.05-1.55-2.35.5 1.2v.05l-1.15-1.75" fill="url(#m)"/><linearGradient id="n" gradientUnits="userSpaceOnUse" gradientTransform="matrix(.00182 .00003 -.0001 .00496 72.7 22.55)" x1="-819.2" x2="819.2"><stop offset="0" stop-color="#3a2721"/><stop offset=".949" stop-color="#411b12"/></linearGradient><path d="M72.3 20.3q.4 2.25 1.3 4.8l.1.4.35 1 .05.15-.05-.15-.3-.65-.35-.75q-1.25-2.8-1.95-5.75v-.05l-.15-.85 1.15 1.75h.05l.4 1.2-.6-1.1" fill="url(#n)"/><radialGradient id="o" gradientUnits="userSpaceOnUse" gradientTransform="rotate(.509 -1371.485 3418.599) scale(.01265)" spreadMethod="pad" cx="0" cy="0" r="819.2" fx="0" fy="0"><stop offset="0" stop-color="#7e3b20"/><stop offset=".988" stop-color="#43261e"/></radialGradient><path d="M66.5 19q-2.7 2.45-4.45 6.05 1.05-2.35 2.6-4.65-1.75 2.35-3 4.7L61 26.5l-.2.4.15-.4.6-1.4q1.1-2.45 2.65-4.95-1.75 2.1-3.15 4.7l.65-1.65-.2.15-.3.4-.8 1.35-.6 1.05.5-1.05q1.25-2.55 2.85-4.95.85-.8 1.85-1.3l.6-.3q-1.05 1.2-1.8 2.55.85-1.25 2.25-2.45l-.95 1.2q1.1-1.2 2.3-1.8l-.7.65q.85-.65 2.7-1l-1 .45-.15.05q-1.6.8-2.85 2.3l1.1-1.5m-4.3 3l-.55 1.15 2.35-3.3q-1.1.95-1.75 2.05l-.05.1" fill="url(#o)"/><radialGradient id="p" gradientUnits="userSpaceOnUse" gradientTransform="translate(65.1 21.7) scale(.0066)" spreadMethod="pad" cx="0" cy="0" r="819.2" fx="0" fy="0"><stop offset="0" stop-color="#5c2f1e"/><stop offset=".973" stop-color="#3e1c12"/></radialGradient><path d="M69.4 17.7q-1.85.35-2.7 1l.7-.65q-1.2.6-2.3 1.8l.95-1.2q-1.4 1.2-2.25 2.45.75-1.35 1.8-2.55 1.1-.55 2.35-.8h.15l1.45-.1-.15.05" fill="url(#p)"/><linearGradient id="q" gradientUnits="userSpaceOnUse" gradientTransform="matrix(.00311 -.01001 .0104 .00323 64.2 27.2)" x1="-819.2" x2="819.2"><stop offset="0" stop-color="#70331d"/><stop offset=".353" stop-color="#b87650"/><stop offset=".541" stop-color="#8e4929"/><stop offset=".988" stop-color="#512417"/></linearGradient><path d="M61.6 33.65l-1.1 1.95 1.5-4.15.6-2.8-.9 2.8q.35-2.4 1-4.55l.1-.4.4-1.4.95-2.5.05-.1 1.2-2q1.25-1.5 2.85-2.3l.15-.05Q65.2 21.6 64 25.1l-.05.1.05-.1q.9-2.2 2.4-4.25-1.2 2.1-1.95 4.25l-.5 1.4-.1.4q-.5 1.6-.75 3.25l-.1.6-.05.35-.05.35-.05.1-1.9 4.15-.15.2.05-.1.75-2.15m2.85-10.7l-1 2.15-.5 1.4-.1.4-.3 1 .25-.55-.5 3.65-.6 2.25.7-1.8.55-1.6v-.1l.7-2.85.15-.4.35-1.25-1 1.45.1-.2.45-1.4 1.45-3.5-.7 1.3v.05" fill="url(#q)"/><linearGradient id="r" gradientUnits="userSpaceOnUse" gradientTransform="matrix(-.00024 -.0032 .00562 -.00041 67.35 23.85)" x1="-819.2" x2="819.2"><stop offset="0" stop-color="#702f1e"/><stop offset=".973" stop-color="#4c2a23"/></linearGradient><path d="M65.4 26.5l.45-1.4.6-1.75L66 25.1l-.25 1.4-.05.4-.1.8.15-.8.1-.4.3-1.4q.75-3 2-5.15l-.4 1.25q.75-1.45 1.65-1.95-1.65 2.65-2.05 5.85l-.1 1.05v.75l-.05.6-.1-.85v-.15l.2-2.8-.7 2.25.15-.85.7-3.3-.7 1.75-.45 1.55-.35 1.4-.1.4-.35 1.5-.1-1.5v-.4" fill="url(#r)"/><linearGradient id="s" gradientUnits="userSpaceOnUse" gradientTransform="matrix(.00049 -.00812 .00862 .0005 67.4 27.6)" x1="-819.2" x2="819.2"><stop offset=".016" stop-color="#995239"/><stop offset=".267" stop-color="#bd7858"/><stop offset=".565" stop-color="#7f351c"/><stop offset=".851" stop-color="#3f1d14"/></linearGradient><path d="M68.65 28.8l-.4 1.5.1-3.35q-.3 2.55-.9 3.8l.3-2.35q-.55 2.7-1.35 4.05l.95-.8-.75 1.9L67.95 31l-.25 2.05-.05.1-.05.1v.05l-.3.45-.25.4.65-2.15q-.5 1.55-2.05 2.6.95-1.25 1.1-2l-1.2 1.6q1.65-3.8 1.95-6.55v-.2l.05-.45v-.1l.05-.4.15-1.4.85-3.55.05-.15q-.45 1.9-.35 3.7.15-2.15.95-4.6-.55 2.25-.55 4.6.1-1.4.5-2.9l-.2 2.9-.1 1.4v.4l-.05 1.2-.3 2.6v.1l-.1.35-.05.15.25-2.5" fill="url(#s)"/><radialGradient id="t" gradientUnits="userSpaceOnUse" gradientTransform="rotate(.984 -1189.36 4387.731) scale(.0038)" spreadMethod="pad" cx="0" cy="0" r="819.2" fx="0" fy="0"><stop offset="0" stop-color="#281710"/><stop offset=".949" stop-color="#3e1c14"/></radialGradient><path d="M70.5 20.3q-.1 1.25.1 2.4-.3-.9-.35-2l-.1.55q-.05-1.1.35-1.95l.3 1.95-.3-.95" fill="url(#t)"/><linearGradient id="u" gradientUnits="userSpaceOnUse" gradientTransform="matrix(-.00134 .00754 -.00914 -.00162 69.4 29.1)" x1="-819.2" x2="819.2"><stop offset="0" stop-color="#4a2318"/><stop offset=".553" stop-color="#b56f4b"/><stop offset="1" stop-color="#703627"/></linearGradient><path d="M68.85 35.35l-.75.25.5-.4-.55.25q2-1 2.1-3.15l.05-.1v-.1q0-2.6-.9-5.2l-.05-.1v.1l-.7 3.8.3-2.6.05-1.2v-.4l.1-1.4.2-2.9.3-1.05q-.05 2.05.15 3.95l.15 1.4.05.4.1.65v-.65l-.05-.4-.05-1.4.1-4.65.4 4.65.2 1.4v.2l.05.2.25 1.65q.4 3.15-.25 4.85l-.05.05-.8 1.1-.6.55-.3.25M70.1 25.1v1.4l.05.4q.05 1.4.25 2.5l.05.2q.05 3-.35 4.2.9-2.1.65-4.05l-.65-4.95v.3" fill="url(#u)"/><linearGradient id="v" gradientUnits="userSpaceOnUse" gradientTransform="matrix(.00018 .00523 -.00706 .00024 71.25 27.15)" x1="-819.2" x2="819.2"><stop offset="0" stop-color="#47251b"/><stop offset=".537" stop-color="#94482a"/><stop offset=".933" stop-color="#b16d53"/></linearGradient><path d="M71.95 32.65q.1-1.15-.15-2.2l-.1-.25-.05-.15v.15l-.55 2.3q.35-1.4 0-3.4l.05-.35-.35-1.85-.05-.4-.15-1.25v-.15q-.25-1.6-.35-3.5.25 1.85.85 3.5l.3.85-.2-.85q-.45-1.8-.6-4.05.25 2 .95 3.7v.05l.05.1.05.2.2 1.4.05.4v.45q.5 3.1.05 5.3m-.75-5.75l.2 2.45.05 1.3.25-1.3.35 1.45-.15-2.5-.45-2.1v.95l-.6-2.25.05.2.25 1.4.05.4" fill="url(#v)"/><linearGradient id="w" gradientUnits="userSpaceOnUse" gradientTransform="matrix(.00334 -.01071 .01068 .00334 62.2 27.85)" x1="-819.2" x2="819.2"><stop offset="0" stop-color="#82442a"/><stop offset=".329" stop-color="#b5714b"/><stop offset=".992" stop-color="#5f2a1a"/></linearGradient><path d="M63 25.1l-.45 1.4-.15.4-.7 2.85-.05.15-.35 1.55-1.55 4.2 1.2-4.2.8-3.8-2.2 6.85-.5 1.8.65-3.9q-.75 2.05-1.15 4.75-.2-1.4 1.05-5.7l.25-.8-.35.8q-.75 1.8-1.25 4.25v.1L58 37.15q-.2-.7-.25-1.7L58 34.2l.85-2.75 1.2-3.75q-.85 1.75-1.45 3.6.5-2.25 1.45-4.4l.15-.4.5-1.1.05-.05h-.05l.3-.4.05-.1q1.4-2.6 3.15-4.7-1.55 2.5-2.65 4.95l-.6 1.4-.15.4.2-.4.65-1.4q1.25-2.35 3-4.7-1.55 2.3-2.6 4.65 1.75-3.6 4.45-6.05l-1.1 1.5-1.2 2-.05.1L63 25.1m1.9-4.2q-1.75 2.3-2.75 4.2l-.4.8-1.7 2.95.4-1.65.15-.3.15-.4.6-1.4 1.05-2.25-1.25 2.25-.75 1.4-.2.4-.4.85.45-.55-1.15 4.05-.05.2-1.05 4q.45-1.85 1.35-4l.6-1.4 1.55-2.95q-1 2.05-1.6 4.35l-.15.55.2-.55 1.7-3.95.1-.2 1.05-2.5.05-.2q.85-1.9 2.05-3.7" fill="url(#w)"/><linearGradient id="x" gradientUnits="userSpaceOnUse" gradientTransform="matrix(.00319 -.00592 .00787 .00424 61.2 28.3)" x1="-819.2" x2="819.2"><stop offset="0" stop-color="#9d6448"/><stop offset=".349" stop-color="#cc8c64"/><stop offset=".988" stop-color="#8d4729"/></linearGradient><path d="M62.85 24.6l-.05.2-1.05 2.5-.1.2-1.7 3.95-.2.55.15-.55q.6-2.3 1.6-4.35l-1.55 2.95-.6 1.4q-.9 2.15-1.35 4l1.05-4 .05-.2 1.15-4.05-.45.55.4-.85.2-.4.75-1.4 1.25-2.25-1.05 2.25-.6 1.4-.15.4-.15.3-.4 1.65 1.7-2.95.4-.8q1-1.9 2.75-4.2-1.2 1.8-2.05 3.7" fill="url(#x)"/><linearGradient id="y" gradientUnits="userSpaceOnUse" gradientTransform="matrix(.00223 -.00432 .00632 .00327 62.9 29.05)" x1="-819.2" x2="819.2"><stop offset="0" stop-color="#92583d"/><stop offset=".298" stop-color="#d99c77"/><stop offset="1" stop-color="#854423"/></linearGradient><path d="M64.45 22.9l.7-1.3-1.45 3.5-.45 1.4-.1.2 1-1.45-.35 1.25-.15.4-.7 2.85v.1l-.55 1.6-.7 1.8.6-2.25.5-3.65-.25.55.3-1 .1-.4.5-1.4 1-2.15v-.05" fill="url(#y)"/><linearGradient id="z" gradientUnits="userSpaceOnUse" gradientTransform="matrix(.00166 -.00717 .00877 .00203 64.35 28.85)" x1="-819.2" x2="819.2"><stop offset="0" stop-color="#733b26"/><stop offset=".349" stop-color="#b3674d"/><stop offset="1" stop-color="#653320"/></linearGradient><path d="M63.25 34.15l-.2.4.75-3.1.4-2.3-.65 2.3-1.2 3.4.9-3.4.6-3.3.05-.2.25-1.05.1-.4.45-1.4q.95-2.7 2.6-4.9-1.3 2.4-2.1 4.9l-.4 1.4-.1.4-.35 1.5.5-1.5.15-.4.5-1.4 1.8-4.1-.85 2.35-.6 1.75-.45 1.4v.05l-.05.35-.15.7h-.05l-1.05 3.95-.85 2.6" fill="url(#z)"/><linearGradient id="A" gradientUnits="userSpaceOnUse" gradientTransform="matrix(.00374 .00006 -.00006 .00359 62.1 21.35)" x1="-819.2" x2="819.2"><stop offset="0" stop-color="#603424"/><stop offset="1" stop-color="#643927"/></linearGradient><path d="M63.15 20.15l-1 1-.4.5L61 22.7l-.05.1-1.1.65q-.75.55-1.05 1.05l1.5-2.05 1.05-1.05-.9.65-1.3 1.4q.7-1.3 1.65-2.25l1.35-1-1.35.65.2-.3.1-.05 1.2-.95 1-.6v-.05l1.7-.05q-1 .5-1.85 1.3" fill="url(#A)"/><linearGradient id="B" gradientUnits="userSpaceOnUse" gradientTransform="matrix(.00154 -.00597 .00531 .00137 65.5 28.6)" x1="-819.2" x2="819.2"><stop offset="0" stop-color="#a35e3d"/><stop offset=".227" stop-color="#cc8561"/><stop offset=".792" stop-color="#7d4023"/></linearGradient><path d="M65.5 29.3l1.25-5.3-.7 4.45-.9 3.45.05-.8-1.1 1.9.65-1.65.65-3.05.1 1" fill="url(#B)"/><linearGradient id="C" gradientUnits="userSpaceOnUse" gradientTransform="matrix(.00078 -.005 .00763 .00119 65.35 29.9)" x1="-819.2" x2="819.2"><stop offset="0" stop-color="#7e3e29"/><stop offset=".349" stop-color="#b36e52"/><stop offset=".604" stop-color="#9e5737"/><stop offset="1" stop-color="#702f1e"/></linearGradient><path d="M66.35 27.4q-.55 3.95-2.1 6.85l.8-2.7-.95 1.9-.35.55.35-1.05 1.05-5.35h.05l.15-.7.05-.35v.35l.1 1.5.35-1.5.1-.4.35-1.4.45-1.55.7-1.75-.7 3.3-.15.85.7-2.25-.2 2.8v.15l.1.85v.05q-.35 3.85-2.3 6.85 1.15-2.75 1.45-7m.65-.9l.05-1.4-1.25 7.1.8-2.4v-.1l.4-2.8v-.4m-1.6 1.8l-.65 3.05L64.1 33l1.1-1.9-.05.8.9-3.45.7-4.45-1.25 5.3-.1-1" fill="url(#C)"/><linearGradient id="D" gradientUnits="userSpaceOnUse" gradientTransform="matrix(.00111 -.00432 .00047 .00014 66.35 29.45)" x1="-819.2" x2="819.2"><stop offset="0" stop-color="#a35e3d"/><stop offset=".298" stop-color="#c98360"/><stop offset="1" stop-color="#7d4023"/></linearGradient><path d="M67 26.9l-.4 2.8v.1l-.8 2.4 1.25-7.1-.05 1.4v.4" fill="url(#D)"/><linearGradient id="E" gradientUnits="userSpaceOnUse" gradientTransform="matrix(.00084 .00441 -.00539 .00102 70.45 29.45)" x1="-819.2" x2="819.2"><stop offset="0" stop-color="#773b23"/><stop offset=".533" stop-color="#c77c59"/><stop offset=".973" stop-color="#aa6b51"/></linearGradient><path d="M70.1 24.8l.65 4.95q.25 1.95-.65 4.05.4-1.2.35-4.2l-.05-.2q-.2-1.1-.25-2.5l-.05-.4v-1.7" fill="url(#E)"/><radialGradient id="F" gradientUnits="userSpaceOnUse" gradientTransform="translate(61.25 23.45) scale(.00328)" spreadMethod="pad" cx="0" cy="0" r="819.2" fx="0" fy="0"><stop offset="0" stop-color="#7e3b20"/><stop offset=".973" stop-color="#43261e"/></radialGradient><path d="M62.25 21.9q.65-1.1 1.75-2.05l-2.35 3.3.55-1.15.05-.1" fill="url(#F)"/><linearGradient id="G" gradientUnits="userSpaceOnUse" gradientTransform="matrix(.00269 -.00624 .00545 .00235 60.7 25.15)" x1="-819.2" x2="819.2"><stop offset="0" stop-color="#7f432a"/><stop offset=".443" stop-color="#9e5e44"/><stop offset=".949" stop-color="#6f3a22"/></linearGradient><path d="M60 26.5l-.25.4q-.75 1.4-1.15 2.95.15-1.3.85-2.95l.1-.2-.15.2q-.55.65-1.1 2.2l.55-2.2v-.05l.15-.35v-.05l.05-.15.45-.95.15-.25.4-.85.05-.1.85-1.35.05-.1.75-1.05.4-.5 1-1q-1.6 2.4-2.85 4.95l-.5 1.05.6-1.05.8-1.35.3-.4.2-.15-.65 1.65-.05.1-.3.4v.05l-.7 1.1" fill="url(#G)"/><linearGradient id="H" gradientUnits="userSpaceOnUse" gradientTransform="matrix(.00244 .00005 -.00006 .00356 60.5 22.9)" x1="-819.2" x2="819.2"><stop offset="0" stop-color="#572d24"/><stop offset=".988" stop-color="#603524"/></linearGradient><path d="M57.6 27.8l-.1.1.2-.9 1.05-.95-1.15 1.75m.35-1.9l.3-.8.4-1q.5-1.1.75-1.4.15-.3 1.05-1.45l.3-.4h.05l1.35-.65-1.35 1q-.95.95-1.65 2.25l1.3-1.4.9-.65-1.05 1.05-1.5 2.05q.3-.5 1.05-1.05l1.1-.65-.85 1.35-.05.1-1.6 1.4.85-1-.5.45-.85.8" fill="url(#H)"/><linearGradient id="I" gradientUnits="userSpaceOnUse" gradientTransform="matrix(.00146 .00003 -.00005 .00218 59.35 25.75)" x1="-819.2" x2="819.2"><stop offset="0" stop-color="#3d1b12"/><stop offset=".988" stop-color="#5a3024"/></linearGradient><path d="M58.75 26.05L57.7 27l.05-.1v-.05l.1-.35.05-.35.05-.25.85-.8.5-.45-.85 1 1.6-1.4-.4.85-.15.25-.45.95-.05.15-1.4 1.35 1.15-1.75" fill="url(#I)"/><linearGradient id="J" gradientUnits="userSpaceOnUse" gradientTransform="matrix(.00385 -.00708 .00816 .00446 61.95 29.7)" x1="-819.2" x2="819.2"><stop offset="0" stop-color="#502414"/><stop offset=".494" stop-color="#994f32"/><stop offset=".992" stop-color="#6e2c10"/></linearGradient><path d="M59.55 34.5l2.2-6.85-.8 3.8-1.2 4.2 1.55-4.2.35-1.55.05-.15.7-2.85.15-.4.45-1.4 1.15-2.5-.95 2.5-.4 1.4-.1.4q-.65 2.15-1 4.55l.9-2.8-.6 2.8-1.5 4.15 1.1-1.95-.75 2.15-.35.6v-.2l-.75 1.5.5-2.55q-.6 1.45-.8 2.65l.05-2.55v-.05l.05-.7" fill="url(#J)"/><linearGradient id="K" gradientUnits="userSpaceOnUse" gradientTransform="matrix(.00023 -.00827 .00883 .00024 58.85 32.65)" x1="-819.2" x2="819.2"><stop offset="0" stop-color="#622a18"/><stop offset=".965" stop-color="#85482e"/></linearGradient><path d="M57.55 36.8q-.2 1.15 0 2.6l-.2-.8-.1-.55-.15-2.15q.1-2.35.5-4.45l.4-1.95q.35-1.4.85-2.6l-.55 2.2q.55-1.55 1.1-2.2l.15-.2-.1.2q-.7 1.65-.85 2.95.4-1.55 1.15-2.95l.25-.4.7-1.1-.5 1.1-.15.4q-.95 2.15-1.45 4.4.6-1.85 1.45-3.6l-1.2 3.75L58 34.2l-.25 1.25v1.8L58 39.1l.15.75q-.45-1-.6-3.05" fill="url(#K)"/><linearGradient id="L" gradientUnits="userSpaceOnUse" gradientTransform="matrix(.00119 -.0046 .0048 .00125 59.05 33.1)" x1="-819.2" x2="819.2"><stop offset="0" stop-color="#6f351f"/><stop offset=".976" stop-color="#a76542"/></linearGradient><path d="M57.75 37.25v-1.8q.05 1 .25 1.7l.25-1.35v-.1q.5-2.45 1.25-4.25l.35-.8-.25.8q-1.25 4.3-1.05 5.7.4-2.7 1.15-4.75l-.65 3.9-.05.1v-.05q-.3 1.15-.35 2.45-.25-1.1-.25-2.5l-.3 1-.1 1.8-.25-1.85" fill="url(#L)"/><linearGradient id="M" gradientUnits="userSpaceOnUse" gradientTransform="matrix(.0004 -.0037 .00406 .00044 67.5 30.3)" x1="-819.2" x2="819.2"><stop offset="0" stop-color="#b06d4c"/><stop offset=".443" stop-color="#c78263"/><stop offset=".957" stop-color="#9c4a2a"/></linearGradient><path d="M68.4 31.3v.05l-.05.1-.4 1-.25.6.25-2.05-1.35 2.55.75-1.9-.95.8q.8-1.35 1.35-4.05l-.3 2.35q.6-1.25.9-3.8l-.1 3.35.4-1.5-.25 2.5" fill="url(#M)"/><linearGradient id="N" gradientUnits="userSpaceOnUse" gradientTransform="matrix(-.00134 .00392 -.00513 -.00175 66.2 30.2)" x1="-819.2" x2="819.2"><stop offset="0" stop-color="#611f0d"/><stop offset=".455" stop-color="#a85636"/><stop offset=".988" stop-color="#823b20"/></linearGradient><path d="M65.55 34.25l-.2.3.65-1.85-1.2 1.9.1-.15v-.05q1.95-3 2.3-6.85v-.05l.3-1.75.05 1.15v.1l-.05.45v.2q-.3 2.75-1.95 6.55v.05" fill="url(#N)"/><linearGradient id="O" gradientUnits="userSpaceOnUse" gradientTransform="matrix(.00021 -.00223 .00462 .00043 64.3 32.75)" x1="-819.2" x2="819.2"><stop offset="0" stop-color="#622b1b"/><stop offset=".761" stop-color="#994e2e"/></linearGradient><path d="M64.1 31.55l1.05-3.95-1.05 5.35-.35 1.05.35-.55.95-1.9-.8 2.7q1.55-2.9 2.1-6.85-.3 4.25-1.45 7v.05l-.1.15-.35.35.85-2.7-1.2 2.35-.25.25.4-1.45-.95 1.55.5-2-.55 1.2.85-2.6" fill="url(#O)"/><linearGradient id="P" gradientUnits="userSpaceOnUse" gradientTransform="matrix(.00117 .00453 -.00587 .00153 77.2 28.8)" x1="-819.2" x2="819.2"><stop offset="0" stop-color="#8c4530"/><stop offset=".549" stop-color="#c0754d"/><stop offset=".949" stop-color="#9c5b3f"/></linearGradient><path d="M76.85 26.8l-.1-.3-.6-1.4-.95-1.9 1.15 1.9.75 1.4.05.15-.5-1.55.7 1.4.2.4.75 2.05.5 2.65-.7-1.95q.4 2.2.25 3.6l-.45-2.3v-.05l-1.55-4-.2-.4.25.4 1.55 3.1-1.05-3.1-.05-.1" fill="url(#P)"/><linearGradient id="Q" gradientUnits="userSpaceOnUse" gradientTransform="matrix(.00554 .01027 -.00824 .00444 76.2 27.7)" x1="-819.2" x2="819.2"><stop offset="0" stop-color="#3d2016"/><stop offset=".369" stop-color="#7b3c24"/><stop offset=".71" stop-color="#995940"/><stop offset=".949" stop-color="#602c1d"/></linearGradient><path d="M79.5 35.45l-.55-3.5.05 2.15-.1-.8-.45-2.2.1 2.55-.1 1-.05.05v.6l.1-.2.1-.2v.2l-.35 1.05v-.8h-.1l.05-1v-.3q-.15-1.7-.65-3.45l-.05-.3-1.4-3.4-.2-.4-.65-1.4-1.65-3.05-.7-1.15.7.95 2 3.25.8 1.4.2.4.2.35-.1-.35-.15-.4-.65-1.4-2.3-4.1-.5-.8-.1-.2.6.65q1.75 1.8 3.45 4.45l.35.6.45.8.15.4q1.05 2.3 1.45 4.9l.05 3.65m-2.6-8.55l1.05 3.1-1.55-3.1-.25-.4.2.4 1.55 4v.05l.45 2.3q.15-1.4-.25-3.6l.7 1.95-.5-2.65-.75-2.05-.2-.4-.7-1.4.5 1.55-.05-.15-.75-1.4-1.15-1.9.95 1.9.6 1.4.1.3.05.1" fill="url(#Q)"/><linearGradient id="R" gradientUnits="userSpaceOnUse" gradientTransform="matrix(.0028 .01064 -.01051 .00278 76.6 28.35)" x1="-819.2" x2="819.2"><stop offset="0" stop-color="#482115"/><stop offset=".471" stop-color="#693828"/><stop offset=".949" stop-color="#441c14"/></linearGradient><path d="M80.55 35.4l-.15.75v-.2q-.1-1.6-.6-3.2v-.05l.35 3.9-.1-.25.1.65-.05-.05-.1-.25.1.45-.1-.1-.05-.65-.35-3.5-.15-1.1q-.4-2.6-1.45-4.9l-.15-.4-.45-.8-.35-.6q-1.7-2.65-3.45-4.45L73 20l-.35-.7 1 1.1.7.75.05.1q1.65 1.9 2.9 3.85l.45.75-.4-.75Q75 20.85 73.7 19.9l-.25-.15 1.25.6L75.95 22l-1.4-1.4q1.85 1.8 3.2 4.5l.6 1.4.15.4.4 1.1 1.15 4.5-.15-2.15.5 2.25.2 2.6v.05l-.05.2v-.05" fill="url(#R)"/><linearGradient id="S" gradientUnits="userSpaceOnUse" gradientTransform="matrix(.0044 .00746 -.00851 .00504 75.05 27.1)" x1="-819.2" x2="819.2"><stop offset="0" stop-color="#321b17"/><stop offset=".329" stop-color="#692710"/><stop offset=".71" stop-color="#985037"/><stop offset=".949" stop-color="#5d2410"/></linearGradient><path d="M73.1 20.2l.5.8 2.3 4.1.65 1.4.15.4.1.35-.2-.35-.2-.4-.8-1.4-2-3.25-.7-.95.7 1.15 1.65 3.05.65 1.4.2.4 1.4 3.4.05.3q.5 1.75.65 3.45v.3l-.05 1-.1-1.15-.1-.65-.05-.2v.15l-.15-.35v-.1l-.05-.15q-.6-2.65-1.8-5.2l-.05-.1-.3-.7-.15-.4-.65-1.4-1.15-2.35-.7-1.35-.4-1.2-.05-.05-.5-1.2 1.55 2.35-.95-2.05.1.05.35.7.1.2" fill="url(#S)"/><linearGradient id="T" gradientUnits="userSpaceOnUse" gradientTransform="matrix(.002 .00844 -.00874 .00206 72.3 27.15)" x1="-819.2" x2="819.2"><stop offset="0" stop-color="#3f1d13"/><stop offset=".365" stop-color="#6a2a16"/><stop offset=".741" stop-color="#b0644b"/><stop offset="1" stop-color="#652814"/></linearGradient><path d="M73.25 28.6l.05.2q.4 1.45.4 2.7v.2l-.55 2.15q.35-2.65 0-3.95.05 3.35-.8 4.45.85-2.6.3-4.8.1 2.6-.3 3.55.25-3.5-.45-5.75v-.45l-.05-.4-.2-1.4-.05-.2-.05-.1v-.05q-.6-2.55-.75-5.15.5 2.8 1.3 5.5l.4 1.4.15.4.15.5.45 1.2m-1.3-3.5l.25 1.4.1.4.65 2.2.05.1.45 2.05v-1.2l-1.55-5.2.05.25" fill="url(#T)"/><linearGradient id="U" gradientUnits="userSpaceOnUse" gradientTransform="matrix(.00233 .00885 -.0084 .00221 75.05 27.7)" x1="-819.2" x2="819.2"><stop offset="0" stop-color="#48231a"/><stop offset=".282" stop-color="#6c2b15"/><stop offset=".675" stop-color="#9f5435"/><stop offset=".949" stop-color="#7a3929"/></linearGradient><path d="M76.45 30.15l.75 2.95-1.5-3.45q.85 2.15 1.15 4.05l-.7-1.65.35 1.45-.75-1.75-1.3-2.5-1.65-4.15-.05-.1q-.95-2.55-1.3-5.65.7 2.95 1.95 5.75l.35.75.3.65.05.15-.05-.15-.35-1-.1-.4q-.9-2.55-1.3-4.8l.6 1.1.7 1.35 1.15 2.35.65 1.4.15.4.3.7.05.1q1.2 2.55 1.8 5.2l-1.25-2.75m-3.3-7.8l2.4 5.4-.5-.85-.2-.4-.75-1.4-.5-.95-.2-.45.2.55.35.85.6 1.4.2.4.4.9.8 1.65.7 1.75-.5-1.95.95 1.8-1.6-4-.05-.15-.15-.4-.65-1.4-1.05-1.95-.45-.8m1.25 4.55l.7 2.6-1.15-2q1 2.75 2.1 4.4l-.75-2.25.5.8-1.5-3.95.1.4" fill="url(#U)"/><linearGradient id="V" gradientUnits="userSpaceOnUse" gradientTransform="matrix(.00314 .0061 -.00775 .004 73.15 28.1)" x1="-819.2" x2="819.2"><stop offset="0" stop-color="#4c2316"/><stop offset=".478" stop-color="#863a23"/><stop offset=".725" stop-color="#ac694f"/><stop offset=".957" stop-color="#8d503f"/></linearGradient><path d="M74.35 29.1q.6 1.35.65 2.35v.65q0 1.95-.4 2.3v-.95l-.55 1.45-.05.1-.45.25.25-.25.05-.25-.2.2-.35.25.6-.8.25-.85-.25.65q.3-1.05.1-2.35l.05-.15q-.05-1.9-.7-3.95l-.05-.05v-.05l-.3-.75-.15-.4-.5-1.4q-.65-2-1-4.2l1.4 4.1.05.1 1.65 4.15-.1-.15m-1.05-2.2q.9 2.6.9 5.45l.1-.55.15 1.65.4-1.8v-.1q-.2-1.4-.75-2.85l-.25-.6v-.15l-.5-1.05-.15-.25.1.25" fill="url(#V)"/><linearGradient id="W" gradientUnits="userSpaceOnUse" gradientTransform="matrix(.00172 .00284 -.0033 .00198 72.7 28.1)" x1="-819.2" x2="819.2"><stop offset="0" stop-color="#5c2817"/><stop offset=".682" stop-color="#86402b"/><stop offset=".988" stop-color="#b2725c"/></linearGradient><path d="M71.9 24.85l1.55 5.2v1.2L73 29.2l-.05-.1-.65-2.2-.1-.4-.25-1.4-.05-.25" fill="url(#W)"/><linearGradient id="X" gradientUnits="userSpaceOnUse" gradientTransform="matrix(-.00017 .00267 -.0036 -.00021 71.5 28.1)" x1="-819.2" x2="819.2"><stop offset="0" stop-color="#7c3720"/><stop offset=".992" stop-color="#c97756"/></linearGradient><path d="M71.15 26.5l-.25-1.4-.05-.2.6 2.25v-.95l.45 2.1.15 2.5-.35-1.45-.25 1.3-.05-1.3-.2-2.45-.05-.4" fill="url(#X)"/><linearGradient id="Y" gradientUnits="userSpaceOnUse" gradientTransform="matrix(.00258 .00345 -.00427 .0032 75.95 28.3)" x1="-819.2" x2="819.2"><stop offset="0" stop-color="#793415"/><stop offset=".675" stop-color="#af6645"/><stop offset=".949" stop-color="#934b2e"/></linearGradient><path d="M73.6 23.15l1.05 1.95.65 1.4.15.4.05.15 1.6 4-.95-1.8.5 1.95-.7-1.75-.8-1.65-.4-.9-.2-.4-.6-1.4-.35-.85-.2-.55.2.45.5.95.75 1.4.2.4.5.85-2.4-5.4.45.8" fill="url(#Y)"/><linearGradient id="Z" gradientUnits="userSpaceOnUse" gradientTransform="matrix(.00177 .0015 -.00209 .00249 75 29.2)" x1="-819.2" x2="819.2"><stop offset="0" stop-color="#8d402a"/><stop offset=".957" stop-color="#bb6f55"/></linearGradient><path d="M74.3 26.5l1.5 3.95-.5-.8.75 2.25q-1.1-1.65-2.1-4.4l1.15 2-.7-2.6-.1-.4" fill="url(#Z)"/><linearGradient id="aa" gradientUnits="userSpaceOnUse" gradientTransform="matrix(.0001 .00484 -.00499 .0001 73.25 31.1)" x1="-819.2" x2="819.2"><stop offset="0" stop-color="#63230f"/><stop offset=".502" stop-color="#904d32"/><stop offset=".949" stop-color="#6a2819"/></linearGradient><path d="M72.8 27.4l.5.3.05.05q.65 2.05.7 3.95l-.05.15q.2 1.3-.1 2.35l-.1.15-.05.05-1.45 1.1.45-.3-.5.2q.8-.5 1.2-1.55l.05-.1.2-2.1v-.15q0-1.25-.4-2.7l-.05-.2-.45-1.2" fill="url(#aa)"/><linearGradient id="ab" gradientUnits="userSpaceOnUse" gradientTransform="matrix(.00092 .0031 -.00398 .00117 74 30.05)" x1="-819.2" x2="819.2"><stop offset="0" stop-color="#803721"/><stop offset=".502" stop-color="#c27357"/><stop offset=".949" stop-color="#a25640"/></linearGradient><path d="M73.2 26.65l.15.25.5 1.05v.15l.25.6q.55 1.45.75 2.85v.1l-.4 1.8-.15-1.65-.1.55q0-2.85-.9-5.45l-.1-.25" fill="url(#ab)"/><linearGradient id="ac" gradientUnits="userSpaceOnUse" gradientTransform="matrix(.00017 -.00354 .0051 .00023 71.65 31.45)" x1="-819.2" x2="819.2"><stop offset="0" stop-color="#480f04"/><stop offset=".663" stop-color="#ab684d"/><stop offset="1" stop-color="#8b3e20"/></linearGradient><path d="M71.9 27.35q.7 2.25.45 5.75.4-.95.3-3.55.55 2.2-.3 4.8.85-1.1.8-4.45.35 1.3 0 3.95l-.1.2-.6.85-.15.1-1.3.7.3-.3-.5.25.5-.45-.65.35.8-.75-1.35.7.55-.5-.65.35q1.4-.8 1.8-1.95l.15-.75q.45-2.2-.05-5.3" fill="url(#ac)"/><linearGradient id="ad" gradientUnits="userSpaceOnUse" gradientTransform="matrix(.00038 .00482 -.00568 .00047 70.8 29.9)" x1="-819.2" x2="819.2"><stop offset="0" stop-color="#782f16"/><stop offset=".537" stop-color="#a25c3f"/><stop offset=".933" stop-color="#7f3b24"/></linearGradient><path d="M70.55 33.45l.05-.05q.65-1.7.25-4.85l-.25-1.65-.05-.2.05-1.45.15 1.25.05.4.35 1.85-.05.35q.35 2 0 3.4l.55-2.3.1 1.45q-.1 2.15-.8 2.8.5-.9.55-2.3-.55 1.75-1.05 2.1l.45-1q-.6 1.05-1.15 1.3l.8-1.1" fill="url(#ad)"/><linearGradient id="ae" gradientUnits="userSpaceOnUse" gradientTransform="matrix(.00066 .00316 -.0039 .00082 74.95 31.6)" x1="-819.2" x2="819.2"><stop offset="0" stop-color="#a1563b"/><stop offset=".949" stop-color="#7c391f"/></linearGradient><path d="M76.5 34.3q-.3-1.45-1.25-2.6l.05 1.2-.15 1.4-.1.25-1.1 1.1.75-1.1-1 1.1.45-.65-.5.35L74 35l.05-.1.55-1.45v.95q.4-.35.4-2.3v-.65q-.05-1-.65-2.35l.1.15 1.3 2.5.75 1.75v.8" fill="url(#ae)"/><linearGradient id="af" gradientUnits="userSpaceOnUse" gradientTransform="matrix(-.00014 -.00243 .0034 -.0002 76.75 32.2)" x1="-819.2" x2="819.2"><stop offset="0" stop-color="#421409"/><stop offset=".949" stop-color="#954b2e"/></linearGradient><path d="M76.5 33.5l-.35-1.45.7 1.65q-.3-1.9-1.15-4.05l1.5 3.45-.75-2.95 1.25 2.75.05.15v.1l.15.35.05.8-.15.7v-.5l-.45-1.8v1.25l-.45-1 .1 1.6-.2-.6-.1 1-.15.4v-.15l-.05-.9v-.8" fill="url(#af)"/><linearGradient id="ag" gradientUnits="userSpaceOnUse" gradientTransform="matrix(-.00043 .00388 -.00363 -.00038 79.25 34.1)" x1="-819.2" x2="819.2"><stop offset="0" stop-color="#8d4f37"/><stop offset=".62" stop-color="#471a12"/></linearGradient><path d="M80.05 36.35l.1.25.05.05.45 1.4.4-1.45-.3 1.5-.15.3-.45-1.4-.1-.65m-.6-4.55l.15 1.1.35 3.5.05.65.1.1.05.5-.2-.25-.5-.75.35.8-.25-.3q-.45-.55-.45-1.35l-.05.45.1.65q-.5-.9-.55-1.8v-.2l-.1.2-.1.2v-.6l.05-.05.1-1-.1-2.55.45 2.2.1.8-.05-2.15.55 3.5-.05-3.65" fill="url(#ag)"/><linearGradient id="ah" gradientUnits="userSpaceOnUse" gradientTransform="matrix(.00166 -.001 .00172 .00285 58.15 28.8)" x1="-819.2" x2="819.2"><stop offset="0" stop-color="#642d25"/><stop offset=".965" stop-color="#6d3f31"/></linearGradient><path d="M57.1 32.5l.2-.55-.4 4.45q-.25-1.35-.15-2.35v-.3l.35-1.25m-.25-.6l.1-.45v-.05L58.1 28l-.25.3-.75 1.1-.1.2.1-.45.35-.95.05-.3.1-.1 1.4-1.35v.05l-.15.35v.05q-.5 1.2-.85 2.6l-1.15 2.4" fill="url(#ah)"/><linearGradient id="ai" gradientUnits="userSpaceOnUse" gradientTransform="matrix(.00233 -.00233 .00148 .00148 58.8 29.6)" x1="-819.2" x2="819.2"><stop offset="0" stop-color="#4d1908"/><stop offset=".949" stop-color="#69382c"/></linearGradient><path d="M58 29.5l-.4 1.95q-.4 2.1-.5 4.45l.15 2.15.1.55-.25-.95-.2-1.25.4-4.45-.2.55-.35 1.25v-.3l.1-1.5v-.05L58 29.5m-1.05 1.9l-.05-.7.05-1 .05-.1.1-.2.75-1.1.25-.3-1.15 3.4" fill="url(#ai)"/><linearGradient id="aj" gradientUnits="userSpaceOnUse" gradientTransform="matrix(-.0005 -.00433 .00482 -.00055 58.95 35.9)" x1="-819.2" x2="819.2"><stop offset="0" stop-color="#4c180b"/><stop offset=".976" stop-color="#773c24"/></linearGradient><path d="M59.35 40.1q.05 1.6.2 1.95l-.35-.5-.2-.8.15.85.05.2.35.65-.35-.3-.25-.3q-.6-2.7-.6-4.7-.25 1.95.05 3.5l-.15-.25-.1-.55-.15-.75.1-1.8.3-1q0 1.4.25 2.5.05-1.3.35-2.45v.05l.05-.1.5-1.8-.05.7v.05q-.65 3.15-.15 4.85" fill="url(#aj)"/><linearGradient id="ak" gradientUnits="userSpaceOnUse" gradientTransform="matrix(.0011 .00159 -.00215 .0015 57.85 38.9)" x1="-819.2" x2="819.2"><stop offset="0" stop-color="#733822"/><stop offset=".976" stop-color="#4c180b"/></linearGradient><path d="M58.15 39.85l.1.55-.25-.35.25 1-.6-1.35-.1-.3q-.2-1.45 0-2.6.15 2.05.6 3.05" fill="url(#ak)"/><linearGradient id="al" gradientUnits="userSpaceOnUse" gradientTransform="matrix(.0012 .0023 -.00275 .00143 58.45 39.7)" x1="-819.2" x2="819.2"><stop offset="0" stop-color="#521d0e"/><stop offset=".976" stop-color="#380b05"/></linearGradient><path d="M58.25 40.4l.15.25q-.3-1.55-.05-3.5 0 2 .6 4.7L58.6 41l.35 1.25-.65-1-.05-.2-.25-1 .25.35" fill="url(#al)"/><linearGradient id="am" gradientUnits="userSpaceOnUse" gradientTransform="matrix(.00035 -.00247 .00224 .00032 77.3 33.35)" x1="-819.2" x2="819.2"><stop offset="0" stop-color="#340e06"/><stop offset=".949" stop-color="#5b210c"/></linearGradient><path d="M77.9 33.5l.05.05.1.65.1 1.15-.05.1v.2l-.05.25-.1.55v-.65l-.2.55.05-.65-.2.45v-1.5l-.05-.3v.3l-.05.2-.35.85-.05-.7-.15.6v-.85l-.2.75-.05-.55.1-1 .2.6-.1-1.6.45 1V32.7l.45 1.8v.5l.15-.7-.05-.8" fill="url(#am)"/><linearGradient id="an" gradientUnits="userSpaceOnUse" gradientTransform="matrix(.00024 -.00227 .00212 .00021 70.3 33.6)" x1="-819.2" x2="819.2"><stop offset="0" stop-color="#4e1a08"/><stop offset=".933" stop-color="#8c472e"/></linearGradient><path d="M69.15 35.1l.6-.55q.55-.25 1.15-1.3l-.45 1q.5-.35 1.05-2.1-.05 1.4-.55 2.3l-.05.05q-.9.75-1.75 1l.6-.4-1.15.5v-.05l.1-.1.15-.1.3-.25" fill="url(#an)"/><linearGradient id="ao" gradientUnits="userSpaceOnUse" gradientTransform="matrix(.00052 -.00204 .00243 .00063 66 34)" x1="-819.2" x2="819.2"><stop offset=".024" stop-color="#52190e"/><stop offset=".851" stop-color="#9c573d"/></linearGradient><path d="M65.35 34.55l.2-.3v-.05l1.2-1.6q-.15.75-1.1 2 1.55-1.05 2.05-2.6l-.65 2.15-1.3 1.2.4-.7-1.25 1.1.65-.85-1.35 1.15.8-.85.35-.65" fill="url(#ao)"/><linearGradient id="ap" gradientUnits="userSpaceOnUse" gradientTransform="matrix(.00047 -.00227 .00256 .00052 64.4 33.7)" x1="-819.2" x2="819.2"><stop offset="0" stop-color="#471608"/><stop offset=".769" stop-color="#743621"/></linearGradient><path d="M64.8 34.6l1.2-1.9-.65 1.85-.35.65-.8.5-.1.1-.35.15.5-.75-.15.15-.75.65.65-1-1.1 1.15.4-.7-1.15 1.05.9-1.85v-.1l.2-.4.55-1.2-.5 2 .95-1.55-.4 1.45.25-.25 1.2-2.35-.85 2.7.35-.35" fill="url(#ap)"/><linearGradient id="aq" gradientUnits="userSpaceOnUse" gradientTransform="matrix(-.00015 .00385 -.00497 -.00018 61 37.95)" x1="-819.2" x2="819.2"><stop offset="0" stop-color="#521d0e"/><stop offset=".976" stop-color="#260700"/></linearGradient><path d="M59.5 35.25l-.05 2.55q.2-1.2.8-2.65l-.5 2.55.75-1.5v.2l-.35 1.2 2.2-3.7q-.45 1.7-1.3 2.95.8-.65 1.9-2.9l-.75 2-.05.1-1.45 1.7-.1.15.15-.35-.15.35q-.55 1.1-.6 2.7l-.1-1.75-.25 1.7.1 1.05.05.4q-.4-.9-.45-1.9-.5-1.7.15-4.85" fill="url(#aq)"/><linearGradient id="ar" gradientUnits="userSpaceOnUse" gradientTransform="matrix(.00137 .0025 -.00517 .00284 80.25 26.15)" x1="-819.2" x2="819.2"><stop offset="0" stop-color="#fff" stop-opacity="0"/><stop offset=".494" stop-color="#fff" stop-opacity=".224"/><stop offset="1" stop-color="#fff" stop-opacity="0"/></linearGradient><path d="M82.05 30.4l-1.3-3.75L78 21.2q1.45 2.15 2.75 4.8-.6-1.95-1.6-3.85 1.65 2.35 2.3 4.2l1 4.65-.9-3.35.5 2.75" fill="url(#ar)"/><linearGradient id="as" gradientUnits="userSpaceOnUse" gradientTransform="matrix(.00165 .00294 -.00743 .00412 79.1 27)" x1="-819.2" x2="819.2"><stop offset="0" stop-color="#fff" stop-opacity="0"/><stop offset=".494" stop-color="#fff" stop-opacity=".333"/><stop offset="1" stop-color="#fff" stop-opacity="0"/></linearGradient><path d="M82 33.85q-.2-3.35-1.5-5.9 1 3.9.75 6.2.1-1.9-1.7-6.8l.15.65.35 1.9q.7 3.7.6 4.9-.45-3.2-1.55-6.3l.15 1.1q-.9-3.15-2.4-6 .95.9 2 3.05-.7-2.2-1.8-4.4l2.1 3.55q-.65-2.25-2.4-5 2.2 2.9 3.9 6.2l.1.2q1 2.4 1.3 4.6L82 33.85" fill="url(#as)"/><linearGradient id="at" gradientUnits="userSpaceOnUse" gradientTransform="matrix(.00127 .00293 -.00616 .00266 76.95 28.5)" x1="-819.2" x2="819.2"><stop offset="0" stop-color="#fff" stop-opacity="0"/><stop offset=".494" stop-color="#fff" stop-opacity=".333"/><stop offset="1" stop-color="#fff" stop-opacity="0"/></linearGradient><path d="M78.5 29.3l.95 4.75-1.1-3.95q.5 2.45.4 3.7-.3-2.7-1.25-4.85 1.05 4.15.8 4.95-.4-2.7-1.45-4.95l.1 1.05-.4-1.15-2.1-5.25 2.15 3.85-2-4.5 2.9 5.55q-.6-2.45-2.15-5.2 1.65 2.15 2.75 5l.4 1" fill="url(#at)"/><linearGradient id="au" gradientUnits="userSpaceOnUse" gradientTransform="matrix(.00026 .00235 -.00096 .0001 74.5 29.85)" x1="-819.2" x2="819.2"><stop offset="0" stop-color="#fff" stop-opacity="0"/><stop offset=".494" stop-color="#fff" stop-opacity=".333"/><stop offset="1" stop-color="#fff" stop-opacity="0"/></linearGradient><path d="M74.95 29.85l.05.3q.4 2.65-.25 4.5.3-1.45-.15-3.15l-.35 2.65q.15-1.55-.2-3.1l-.1 1.2-.15-2.65q-.2-1.9-.8-3.8.7 1.65 1.2 3.65l.3 1.4-.15-1.4q-.65-4.2-1.8-6.75 1.3 2.6 2.25 6.6l.15.55" fill="url(#au)"/><linearGradient id="av" gradientUnits="userSpaceOnUse" gradientTransform="matrix(.00165 .00296 -.00632 .00351 75.9 29.05)" x1="-819.2" x2="819.2"><stop offset="0" stop-color="#fff" stop-opacity="0"/><stop offset=".494" stop-color="#fff" stop-opacity=".333"/><stop offset="1" stop-color="#fff" stop-opacity="0"/></linearGradient><path d="M76.35 28.95q1.2 3.75 1.2 5.25-.75-2.95-1.8-5l1.05 4.2-1.4-4.05.35 2.35-.6-2.5-2.2-6.5 1.55 3.45-1.25-3.85 2.5 5 .2.4.4 1.25" fill="url(#av)"/><linearGradient id="aw" gradientUnits="userSpaceOnUse" gradientTransform="matrix(.00096 -.00403 .00156 .00037 61.2 28.55)" x1="-819.2" x2="819.2"><stop offset="0" stop-color="#fff" stop-opacity="0"/><stop offset=".494" stop-color="#fff" stop-opacity=".333"/><stop offset="1" stop-color="#fff" stop-opacity="0"/></linearGradient><path d="M60.6 30.25q1.4-4.75 2.95-7-1.25 4-1.8 7.9l.2-3.25-1.4 5.3.75-4.75-.9 2.65.15-.75.05-.1" fill="url(#aw)"/><linearGradient id="ax" gradientUnits="userSpaceOnUse" gradientTransform="matrix(.00114 -.004 .00154 .00044 61.55 27.15)" x1="-819.2" x2="819.2"><stop offset="0" stop-color="#fff" stop-opacity="0"/><stop offset=".494" stop-color="#fff" stop-opacity=".333"/><stop offset="1" stop-color="#fff" stop-opacity="0"/></linearGradient><path d="M60.75 29.2l-.1.5q-.45 1.25-.75 2.6.1-1.7.7-4.3-.95 2.5-1.85 5.9.3-2.4 1.1-4.9l-1.1 2.45q1.05-3.75 2.8-7.4l-1.15 3.7q1.15-3 3.1-5.8-1.35 2.4-2.7 6.85v.05l-.05.15v-.05.15l-.05.1h.05" fill="url(#ax)"/><linearGradient id="ay" gradientUnits="userSpaceOnUse" gradientTransform="matrix(.00105 -.0045 .0014 .00034 60 26.85)" x1="-819.2" x2="819.2"><stop offset="0" stop-color="#fff" stop-opacity="0"/><stop offset=".494" stop-color="#fff" stop-opacity=".333"/><stop offset="1" stop-color="#fff" stop-opacity="0"/></linearGradient><path d="M58.15 29.65q1.25-3.95 3.5-7.55l-1.45 3.05 2.1-2.95q-3.35 5.9-4.2 9.35.35-2.3 1.3-4.8l-1.25 2.9" fill="url(#ay)"/><linearGradient id="az" gradientUnits="userSpaceOnUse" gradientTransform="matrix(.00098 -.0041 .00613 .00145 63.25 28.35)" x1="-819.2" x2="819.2"><stop offset="0" stop-color="#fff" stop-opacity="0"/><stop offset=".494" stop-color="#fff" stop-opacity=".333"/><stop offset="1" stop-color="#fff" stop-opacity="0"/></linearGradient><path d="M62.15 29.8l1.1-3.6q.65-1.8 1.45-3.35l-.95 2.95q.55-1.6 1.35-2.45l-.85 2.8-.45 1.75-.2.6q-.7 3.3-1.7 4.65l.95-5-.7 1.65" fill="url(#az)"/><linearGradient id="aA" gradientUnits="userSpaceOnUse" gradientTransform="matrix(-.001 .00352 -.00476 -.00137 64.55 28.45)" x1="-819.2" x2="819.2"><stop offset="0" stop-color="#fff" stop-opacity="0"/><stop offset=".494" stop-color="#fff" stop-opacity=".333"/><stop offset="1" stop-color="#fff" stop-opacity="0"/></linearGradient><path d="M65.25 26.35l-.45 1.6-.3 1.35 1.25-3.05-.5 1.95-.7 2.45.2-1.5-.95 3.3.5-3.2-1.1 2.9.35-1.65q.2-1.55.65-3l.9-2.65-.6 2.3 1.15-2.25-.4 1.45" fill="url(#aA)"/><linearGradient id="aB" gradientUnits="userSpaceOnUse" gradientTransform="matrix(.00052 .00475 -.00667 .00073 71.7 29.95)" x1="-819.2" x2="819.2"><stop offset="0" stop-color="#fff" stop-opacity="0"/><stop offset=".494" stop-color="#fff" stop-opacity=".333"/><stop offset="1" stop-color="#fff" stop-opacity="0"/></linearGradient><path d="M72.45 30.8l-.05.1q.2 1.95-.25 3.05.2-1.95-.05-3.9l-.55-2.55.15 2.8-1.25-7.2L71.8 28q-.3-3-.8-5.05 1.2 3.3 1.45 7.15v.7" fill="url(#aB)"/><linearGradient id="aC" gradientUnits="userSpaceOnUse" gradientTransform="matrix(.00047 .0031 -.00586 .0009 72.65 29.65)" x1="-819.2" x2="819.2"><stop offset="0" stop-color="#fff" stop-opacity="0"/><stop offset=".494" stop-color="#fff" stop-opacity=".333"/><stop offset="1" stop-color="#fff" stop-opacity="0"/></linearGradient><path d="M72.75 29.95q-.25-2.5-.9-5.35l1.1 3.75-.45-3.15q.8 2.35 1.05 4.5l.1 1.15v.1q-.25 2.2-.95 3.4.6-1.45.45-3.6 0 1.75-.6 2.65l.25-2.45-.05-.1v-.9" fill="url(#aC)"/><linearGradient id="aD" gradientUnits="userSpaceOnUse" gradientTransform="matrix(.00044 .00363 -.00198 .00024 70.45 29.4)" x1="-819.2" x2="819.2"><stop offset="0" stop-color="#fff" stop-opacity="0"/><stop offset=".494" stop-color="#fff" stop-opacity=".333"/><stop offset="1" stop-color="#fff" stop-opacity="0"/></linearGradient><path d="M70.2 29.05l-.5-4.5.75 3.4-.3-4.55q1.85 7.7.4 10.75.4-1.7.4-3.5-.2 2.35-.95 3.8.7-2.35.25-5.15l-.05-.25" fill="url(#aD)"/><linearGradient id="aE" gradientUnits="userSpaceOnUse" gradientTransform="matrix(-.00084 .00327 -.00581 -.0015 67.35 29.7)" x1="-819.2" x2="819.2"><stop offset="0" stop-color="#fff" stop-opacity="0"/><stop offset=".494" stop-color="#fff" stop-opacity=".333"/><stop offset="1" stop-color="#fff" stop-opacity="0"/></linearGradient><path d="M68.9 25.25q.1 2.1-.2 4.1l-.4 1.95.15-1.6q-.55 2.6-1.55 3.95h-.05l.05-.05.65-2.15-.6 1.05-.9 1.3.9-1.9.4-1.9-.4 1.05-.7 1.15.75-2 .2-1.3.5-3.5-.05 2 .6-3.4-.7 6.65.4-1.65.6-4.4-.05 3 .4-2.35" fill="url(#aE)"/><linearGradient id="aF" gradientUnits="userSpaceOnUse" gradientTransform="matrix(-.00034 .0026 -.00552 -.0007 65.75 29.2)" x1="-819.2" x2="819.2"><stop offset="0" stop-color="#fff" stop-opacity="0"/><stop offset=".494" stop-color="#fff" stop-opacity=".333"/><stop offset="1" stop-color="#fff" stop-opacity="0"/></linearGradient><path d="M67 28.45q-.4 2.1-1.15 4.1l.5-3.35-1.15 3.4.2-1.85-.8 2 2.25-9.1-1.25 6.2.95-3-.2 1.5.95-3.35-.3 3.4v.05" fill="url(#aF)"/><linearGradient id="aG" gradientUnits="userSpaceOnUse" gradientTransform="matrix(.00345 0 0 .00592 80.3 47.45)" x1="-819.2" x2="819.2"><stop offset="0" stop-color="#944f35"/><stop offset=".431" stop-color="#c4815c"/><stop offset=".988" stop-color="#8e4d33"/></linearGradient><path d="M80.2 47.1l1.15-1.7h-.6q-.25.05-.25.4l-.7 1.4-.25.6q-1.05 1.15-1.05 2.35l.05.7q.25.4 1.55.4l.6.1.55-.4h.2l-.45.75q-.4.6-1.4.6-1.65 0-2.05-1.05l-.05-1.05q0-2.2 1.85-3.95l3.55-3.65.25 1.2q0 1.05-2.3 2.8l-.65.55v-.05" fill="url(#aG)"/><linearGradient id="aH" gradientUnits="userSpaceOnUse" gradientTransform="matrix(.00156 0 0 .00366 80.35 48.35)" x1="-819.2" x2="819.2"><stop offset="0" stop-color="#944f35"/><stop offset=".431" stop-color="#c4815c"/><stop offset=".988" stop-color="#8e4d33"/></linearGradient><path d="M79.55 47.8l.25-.6.7-1.4q0-.35.25-.4h.6l-1.15 1.7v.05q-.9 1.35-.9 1.95 0 1.95 1.15 1.95l.8-.3.4-.4-.4.6-.55.4-.6-.1q-.55-.2-.8-.75l-.2-.9q0-.8.45-1.8" fill="url(#aH)"/><linearGradient id="aI" gradientUnits="userSpaceOnUse" gradientTransform="matrix(.0062 0 0 .0111 59.65 40.55)" x1="-819.2" x2="819.2"><stop offset="0" stop-color="#944f35"/><stop offset=".431" stop-color="#c4815c"/><stop offset=".988" stop-color="#8e4d33"/></linearGradient><path d="M56.7 44.5q2.55 3.7 8.05 5.15-5.65-1.25-8.25-5-1.9-2.75-1.9-6.1 0-1.7.55-4.05.7-2.9 2.05-4-1.2 1.6-1.85 4.25-.55 2.2-.55 3.8 0 3.25 1.9 5.95" fill="url(#aI)"/><linearGradient id="aJ" gradientUnits="userSpaceOnUse" gradientTransform="matrix(.00201 0 0 .00198 74.85 52.4)" x1="-819.2" x2="819.2"><stop offset="0" stop-color="#944f35"/><stop offset=".431" stop-color="#c4815c"/><stop offset=".988" stop-color="#8e4d33"/></linearGradient><path d="M76.5 53.1l-.65.55-.85.4q-.95 0-1.45-.9l-.35-.95.05-1.4h.1l.05 1.7q.25 1.3 1.25 1.3.85 0 1.75-.75l.1.05" fill="url(#aJ)"/><linearGradient id="aK" gradientUnits="userSpaceOnUse" gradientTransform="matrix(.00323 0 0 .00223 64.3 52.6)" x1="-819.2" x2="819.2"><stop offset="0" stop-color="#944f35"/><stop offset=".431" stop-color="#c4815c"/><stop offset=".988" stop-color="#8e4d33"/></linearGradient><path d="M66.85 50.8l.1.55q0 2.7-5.3 3.1Q64 54.1 65.45 53q1.5-1.1 1.25-2.2h.15" fill="url(#aK)"/><linearGradient id="aL" gradientUnits="userSpaceOnUse" gradientTransform="matrix(.00125 0 0 .0036 61.35 51.15)" x1="-819.2" x2="819.2"><stop offset="0" stop-color="#944f35"/><stop offset=".431" stop-color="#c4815c"/><stop offset=".988" stop-color="#8e4d33"/></linearGradient><path d="M61.55 49.8q-.55-1.2-1.15-1.55 1.3.75 1.7 1.7.3.7.3 2.1l-.05 1.05q-.1.55-.6 1l-.1-.3.4-1.85q0-.95-.5-2.15" fill="url(#aL)"/><linearGradient id="aM" gradientUnits="userSpaceOnUse" gradientTransform="matrix(.0018 0 0 .00522 67.85 31)" x1="-819.2" x2="819.2"><stop offset="0" stop-color="#944f35"/><stop offset=".431" stop-color="#c4815c"/><stop offset=".988" stop-color="#8e4d33"/></linearGradient><path d="M69 27.3v-.55h.15l.2 1.75q0 2.1-.85 4.05-.85 1.9-2.1 2.75 3.25-4.05 2.6-8" fill="url(#aM)"/><linearGradient id="aN" gradientUnits="userSpaceOnUse" gradientTransform="matrix(.00485 0 0 .01126 80.65 42.45)" x1="-819.2" x2="819.2"><stop offset="0" stop-color="#944f35"/><stop offset=".431" stop-color="#c4815c"/><stop offset=".988" stop-color="#8e4d33"/></linearGradient><path d="M84.05 36.4q.6 1.8.6 3.15 0 1.2-.8 3.15l-1.6 3.1-2.75 3.1-2.8 2.8q.15-.95 2.95-3.05 1.05-.85 2.35-3l1.55-2.9q.85-2.05.85-3.2 0-2-.85-4.05l-.85-2.1.05-.15h.1l1.2 3.15" fill="url(#aN)"/><linearGradient id="aO" gradientUnits="userSpaceOnUse" gradientTransform="matrix(.00415 0 0 .0159 58.5 43.8)" x1="-819.2" x2="819.2"><stop offset="0" stop-color="#944f35"/><stop offset=".431" stop-color="#c4815c"/><stop offset=".988" stop-color="#8e4d33"/></linearGradient><path d="M56 33.4l.9-1.7q-.6 1.25-1 2.9-.55 2.15-.55 4 0 1.1 1 3.8.95 2.5 1.6 3.55l3.05 3.8q.9 1.1.9 3.25l-.1 1.6-1.05 2.25h-.1l.7-2.1.15-1.7q0-1.8-3.2-6.15-3.2-4.35-3.2-8.35 0-1.6.7-4.5l.05-.2.15-.45" fill="url(#aO)"/><linearGradient id="aP" gradientUnits="userSpaceOnUse" gradientTransform="matrix(.00827 0 0 .01279 76.4 27.6)" x1="-819.2" x2="819.2"><stop offset="0" stop-color="#944f35"/><stop offset=".431" stop-color="#c4815c"/><stop offset=".988" stop-color="#8e4d33"/></linearGradient><path d="M70.8 17.15q7.7.2 10.7 7.3 1.7 4 1.7 10.3l-.05 1.35-.45 1.9-.1.05-.05-.1.25-1.45.25-1.75q0-16.9-12.25-17.55v-.05m-.25.05l-.9-.05h.9v.05" fill="url(#aP)"/><linearGradient id="aQ" gradientUnits="userSpaceOnUse" gradientTransform="matrix(.00766 0 0 .01135 62.75 26.55)" x1="-819.2" x2="819.2"><stop offset="0" stop-color="#944f35"/><stop offset=".431" stop-color="#c4815c"/><stop offset=".988" stop-color="#8e4d33"/></linearGradient><path d="M67.55 17.3h1.5l-1.65.05.15-.05m-.45.05l-.1.05q-5.4.75-8.15 6.05-2.15 4.05-2.15 8.45l.2 3.9-.1.05q-.3-1.05-.3-3.95 0-4.5 2.15-8.6 2.85-5.65 8.6-6l-.15.05" fill="url(#aQ)"/><linearGradient id="aR" gradientUnits="userSpaceOnUse" gradientTransform="matrix(.00473 0 0 .00235 67.05 18.55)" x1="-819.2" x2="819.2"><stop offset="0" stop-color="#944f35"/><stop offset=".431" stop-color="#c4815c"/><stop offset=".988" stop-color="#8e4d33"/></linearGradient><path d="M70.55 17.15l-.05-.05-.8-.25q-1.05 0-2.15.45l-.15.05q-2 .85-4.15 3.15l-.05-.05q1.1-1.75 3.8-3.05l.1-.05.15-.05 3.55-.15v.05l.15.2v.05h-.25l-.15-.25v-.05" fill="url(#aR)"/></g></svg>