<svg xmlns="http://www.w3.org/2000/svg" width="30" height="37"><g transform="translate(-55.65 -19)"><linearGradient id="a" gradientUnits="userSpaceOnUse" gradientTransform="matrix(.00465 .00446 -.01067 .0129 78.9 30.4)" x1="-819.2" x2="819.2"><stop offset="0" stop-color="#32120b"/><stop offset=".502" stop-color="#5e2c18"/><stop offset=".988" stop-color="#471e11"/></linearGradient><path d="M84.9 36.85v-.25l.1-.9-.05-1.6V34l-.1-1-.05-.6.2 1.2v-1.15l-.05-.15v-.05l-.4-1.85-.15-.65-.15-.65-.15-.35-.25-.65-.05-.1-.05-.1-.2-.45-1.1-1.95-.4-.7.6 1.45-.4-.75-.55-.75-.05-.05-.35-.45-.1-.1.45.75-.75-1.05.15.4.3.45v.05l.35.7.35.65-1.2-1.4.45.75 1 1.85v.1l.2.45.35.8.1.35.2.7.1.35-.65-2.7.05.05.2.45.15.3v.1l.1.2.45 1.75v.15l.3 1.85v.05l.05.15.05.55.1 1 .05.15v.3l-.05-.3-.05-.15-.2-1-.1-.6v-.15l-.05-.05-.5-1.8-.1-.35.6 3.25-.7-2.6.35 1.55-.6-1.65v-.05l-.05-.1v-.1l-.25-.65-.2-.65-.2-.4-.35-.8-.3-.45-.1-.1 1 2.7-1.05-2.15.3.8.15.35.2.65.25.7.3 1.25-1-2.35.7 2-.5-.95v-.1l-.05-.15-.2-.4-.35-.7-.25-.35-.3-.3 1.35 3-1.35-2.35.3.65.25.65.25.75-1.2-2.1.3.7.25.65.6 1.5-.85-1.5-.45-.7-.1-.1-.1-.15-.15-.25 1.5 3.05-1.3-1.9-.05-.15-.45-.5-.2-.25-.05-.1-.45-.5 1.25 1.25-.7-1 .6.55-1.3-1.75.25.65-.45-.5.35.6v.05l-.25-.2-.4-.5-.05-.05.05.05.3.1-.65-.75.85.8-.5-.85-.05-.1 1.6 1.75-1.35-2.2.7.65-.55-.95.8.65-.5-.8 1.25 1.35-.75-1.6.75.75-.45-.95-.2-.25-.05-.1.05.05.2.2.45.6.15.15.75 1 .2.3.4.95-.6-1.7.3.45v.1l.05.05.45.65-.3-.7.1.2-.15-.75-.7-1.05.55 1.05-.25-.25-1-1.95.15.15.15.15.3.45.95 1.55-.8-1.55-.35-.75-.05-.05-.05-.05-.15-.25-.1-.15.1.1.15.1.3.25v.1l.65.7.9 1.45-.8-1.45-.4-.7-.05-.05-.3-.45-.4-.45-.1-.1-.3-.4v-.05l.15.1.25.25.15.1.55.6.35.4.05.05.55.75-.35-.75v-.05l-.25-.4-.4-.55-.45-.55-.9-1 .35.2.1.1.3.15.55.4-.35-.5-.05-.05.35.3.1.1.75.75.15.15.2.25.2.3.25.3.1.1.05.1.45.7 1 1.95.25.45.3.85.15.35v.05l.05.1.15.5.1.65.3 1.85v.05l.05.15.05.55.05 1v.1l.05 1.6-.05 1.3-.45 2.7.15-2.85M81.4 26.5l-.85-1.35 2.2 4.95-.35-1.1-.05-.1.1.1.25.65.1.3-.2-.95.3.7v-.05l-.1-.55-.05-.1-.15-.35-.35-.8-.25-.5-.95-1.75.35.9m-.2 2.5v-.05l-.5-.9.9 1.3-1.85-3.15.4.85-.65-.45.85 1.4-.25-.55 1.05 1.5.05.05m-.95-2.95l.65 1.55-1.45-2.7.4.45h.05l.1.15.75 1.1-.5-.55m-.75 1.6l-.75-.85.45.85-.55-.45 1.45 2.25-.45-1.05.5.4-.4-.55.5.55-.55-1.1.8.95-.75-1.1-.7-.8.45.9" fill="url(#a)"/><linearGradient id="b" gradientUnits="userSpaceOnUse" gradientTransform="matrix(.002 .00177 -.0026 .00343 79.55 26.3)" x1="-819.2" x2="819.2"><stop offset="0" stop-color="#160a03"/><stop offset="1" stop-color="#582312"/></linearGradient><path d="M75.9 28.4l1.2-1.15.8-1.35q.85-1.9.35-4.1l.15.05-.2-.2.65.1.75.35.2.15h-.05l.25.15h.05l.1.05.05.05.35.5-.55-.4-.3-.15-.1-.1-.35-.2.9 1 .45.55.4.55.25.4v.05l.35.75-.55-.75-.05-.05-.35-.4-.55-.6-.15-.1-.25-.25-.15-.1-.05-.05.05.1.3.4.1.1.4.45.3.45.05.05.4.7.8 1.45-.9-1.45-.65-.7v-.1l-.3-.25-.15-.1-.1-.1.1.15.15.25.05.05.05.05.35.75.8 1.55-.95-1.55-.3-.45-.15-.15-.15-.15 1 1.95-.75-1.1-.1-.15h-.05l-.4-.45 1.45 2.7-.2-.3-.75-1-.15-.15-.45-.6-.2-.2-.05-.05.05.1.2.25.45.95-.75-.75.75 1.6-1.25-1.35.5.8-.8-.65.55.95-.7-.65 1.35 2.2-1.6-1.75.05.1.5.85-.85-.8.65.75-.3-.1-.05-.05-.6-.45.75 1.1-.95-.85.4.8-.65-.65.8 1.4-1.05-1.1.4.75-.65-.55.4.65-.8-.45m3.05-6.4l-.05-.05V22h.05" fill="url(#b)"/><linearGradient id="c" gradientUnits="userSpaceOnUse" gradientTransform="matrix(.00655 .00925 -.00798 .00656 83.05 31.4)" x1="-819.2" x2="819.2"><stop offset="0" stop-color="#5d2e1c"/><stop offset=".38" stop-color="#ad645a"/><stop offset="1" stop-color="#38160b"/></linearGradient><path d="M84.4 36.15v-.5l.05-.6v-.95l-.05-.15-.1-1-.05-.55v-.15l-.05-.05-.5-1.85-.15-.65-.2-.65-.15-.35-.1-.25-.1-.2v-.1l-.15-.3-.2-.45-.05-.05.65 2.7-.1-.35-.2-.7-.1-.35-.35-.8-.2-.45v-.1l-1-1.85-.45-.75 1.2 1.4-.35-.65-.35-.7v-.05l-.3-.45-.15-.4.75 1.05-.45-.75.1.1.35.45.05.05.55.75.4.75-.6-1.45.4.7 1.1 1.95.2.45.05.1.05.1.25.65.15.35.15.65.15.65.4 1.85v.05l.05.15v1.15l-.2-1.2.05.6.1 1v.1l.05 1.6-.1.9v.25l-.15 2.85-.6 1.05.25-4.6m-2.5-10.7l1 1.95.15.45.3.75.05.1.15.35.15.65.2.7.45 1.8.05.05-.15-1 .35 1-.6-2.3.55 1.7-.3-1.25-.15-.65-.2-.7-.15-.35-.05-.15-.2-.65-.25-.45-.85-1.5.4.9-1-1.6.1.2" fill="url(#c)"/><linearGradient id="d" gradientUnits="userSpaceOnUse" gradientTransform="matrix(.0028 .00449 -.00342 .00249 83.1 28.75)" x1="-819.2" x2="819.2"><stop offset="0" stop-color="#915144"/><stop offset=".471" stop-color="#db8585"/><stop offset=".988" stop-color="#8f4d40"/></linearGradient><path d="M81.8 25.25l1 1.6-.4-.9.85 1.5.25.45.2.65.05.15.15.35.2.7.15.65.3 1.25-.55-1.7.6 2.3-.35-1 .15 1-.05-.05-.45-1.8-.2-.7-.15-.65-.15-.35-.05-.1-.3-.75-.15-.45-1-1.95-.1-.2" fill="url(#d)"/><linearGradient id="e" gradientUnits="userSpaceOnUse" gradientTransform="matrix(.00069 .0023 -.00163 .00055 80.55 27.75)" x1="-819.2" x2="819.2"><stop offset="0" stop-color="#5d2e1c"/><stop offset=".475" stop-color="#ad645a"/><stop offset="1" stop-color="#582312"/></linearGradient><path d="M80.75 26.6l.25.25-.55-1.05.7 1.05.15.75-.1-.2.3.7-.45-.65-.05-.05v-.1l-.3-.45.6 1.7-.4-.95-.65-1.55.5.55m.4 2.35l-1.05-1.5.25.55-.85-1.4.65.45-.4-.85 1.85 3.15-.9-1.3.5.9V29l-.05-.05" fill="url(#e)"/><linearGradient id="f" gradientUnits="userSpaceOnUse" gradientTransform="matrix(.00175 .00867 -.01248 .0029 80.55 37.5)" x1="-819.2" x2="819.2"><stop offset="0" stop-color="#36140d"/><stop offset=".502" stop-color="#1e0802"/><stop offset="1" stop-color="#34130c"/></linearGradient><path d="M81.15 38.7q-.5 2.25-.5.75v-.3l.05-.3v-.7l-.05.2v-.15l-.2.35v-.2l.1-.2v-.1l-.15-.25-.2-.2.35-.05v-.15l-.4-.3.05-.05.25-.05v-.15l-.3-.05-.1-.4.4.35v.05-.05l-.1-.2-.15-.45h.8l-.15-.6-.35-1.4-.15-.35-.3-.7 1.35 2.65-.05-.2-.45-1.4-.1-.35-.45-1-.2-.45.3.45.65 1.05.2.3.85 1.45-.2-.7v-.1l-.2-.65-.1-.3-.5-1-.25-.6-.1-.15-.05-.05-1-1.65-.1-.2-.45-.65-.2-.35.05.1.2.25.45.5.05.15 1.3 1.9-1.5-3.05.15.25.1.15.1.1.45.7.85 1.5-.6-1.5-.25-.65-.3-.7 1.2 2.1-.25-.75-.25-.65-.3-.65 1.35 2.35-1.35-3 .3.3.25.35.35.7.2.4.05.15v.1l.5.95-.7-2 1 2.35-.3-1.25-.25-.7-.2-.65-.15-.35-.3-.8 1.05 2.15-1-2.7.1.1.3.45.35.8.2.4.2.65.25.65v.1l.05.1v.05l.6 1.65-.35-1.55.7 2.6-.6-3.25.1.35.5 1.8.05.05v.15l.1.6.2 1 .05.15.05.3v-.3l-.05-.15-.1-1-.05-.55-.05-.15v-.05l-.3-1.85v-.15l-.45-1.75.1.25.15.35.2.65.15.65.5 1.85.05.05v.15l.05.55.1 1 .05.15v.95l-.05.6v.5l-.25 4.6-.05-.05.1.2-.1-.15v.1-.15q-1.35-2.7-2.95-1.05v-.95" fill="url(#f)"/><linearGradient id="g" gradientUnits="userSpaceOnUse" gradientTransform="matrix(.0021 .00252 -.00208 .00203 81.7 27.65)" x1="-819.2" x2="819.2"><stop offset="0" stop-color="#5d2e1c"/><stop offset=".475" stop-color="#ad645a"/><stop offset="1" stop-color="#582312"/></linearGradient><path d="M81.05 25.6l.95 1.75.25.5.35.8.15.35.05.1.1.55v.05l-.3-.7.2.95-.1-.3-.25-.65-.1-.1.05.1.35 1.1-2.2-4.95.85 1.35-.35-.9" fill="url(#g)"/><linearGradient id="h" gradientUnits="userSpaceOnUse" gradientTransform="matrix(.00423 .00403 -.00168 .00204 78.05 30.7)" x1="-819.2" x2="819.2"><stop offset="0" stop-color="#32120b"/><stop offset=".502" stop-color="#5e2c18"/><stop offset="1" stop-color="#3b180e"/></linearGradient><path d="M80.8 35.45l-.55-1.35-.2-.35-.35-.8.25.8.1.35.25.85.05.5.15.65-.2-.65-.2-.5-.25-.45-.05-.1-.05-.1-.1-.2-.4-.4-.2-.1.55.05-1.45-1.2.5.05-.2-.2-.35-.45-.2-.2-.5-.45-.1-.05-.5-.5.8.3-2.2-2.1.5-.45.8.45-.4-.65.65.55-.4-.75 1.05 1.1-.8-1.4.65.65-.4-.8.95.85-.75-1.1.6.45.05.05.4.5-.5-.4 1.2 1.65.05.05-.55-1 .05.05.45.5.2.35.45.65.1.2 1 1.65.05.05.1.15.25.6.5 1 .1.3.2.65v.1l.2.7-.85-1.45-.2-.3-.65-1.05-.3-.45.2.45.45 1 .1.35.45 1.4.05.2-1.35-2.65.3.7.15.35.35 1.4.15.6-.2-.65m.2-2.65l-.3-.6-.1-.15-.05-.05-.65-1.15-.1-.05-.05-.05L79 29.7l-.25-.25-.15-.15-.45-.55-.25-.2-.15-.15-.2-.15-.05-.05.5.85-.65-.6 1.2 1.75.1.05.3.3.75 1 .35.45.05.05.15.15-.65-1.15 1.6 2.3-.2-.55m-3.6-3.75l-.25-.35-.05-.05v.05l.8 1.25-1.05-1.05.65 1.1-.1-.05-.55-.6-.55-.45-.35-.25 1.4 1.6-1.1-.9-.05-.05-.35-.2.3.2.1.1 1.1 1.15.1.1.2.15.05.05.7 1-.65-.7.15.2.45.55.15.2.45.55.25.45-.2-.6.1.2.65 1 .15.3-.1-.3-.35-1-.35-.7.6.7.3.5-.25-.5-.35-.7-.05-.05-.25-.3.3.3.05.05.55.75.4.6-.2-.6-.3-.6-.1-.15-.05-.05-.05-.1-.25-.45-.5-.7-.4-.4-.65-.75-.15-.15-.25-.25-.1-.1" fill="url(#h)"/><linearGradient id="i" gradientUnits="userSpaceOnUse" gradientTransform="matrix(.00221 .00262 -.00208 .00203 78.75 29.5)" x1="-819.2" x2="819.2"><stop offset="0" stop-color="#5d2e1c"/><stop offset=".475" stop-color="#8c4b41"/><stop offset="1" stop-color="#582312"/></linearGradient><path d="M81.2 33.35l-1.6-2.3.65 1.15-.15-.15-.05-.05-.35-.45-.75-1-.3-.3-.1-.05-1.2-1.75.65.6-.5-.85.05.05.2.15.15.15.25.2.45.55.15.15.25.25.75 1.05.05.05.1.05.65 1.15.05.05.1.15.3.6.2.55" fill="url(#i)"/><linearGradient id="j" gradientUnits="userSpaceOnUse" gradientTransform="matrix(.00336 .00018 -.00024 .0054 77.6 33.4)" x1="-819.2" x2="819.2"><stop offset="0" stop-color="#ba654a" stop-opacity=".753"/><stop offset="1" stop-color="#421b0f" stop-opacity=".8"/></linearGradient><path d="M80.2 36.1l.15.45.1.2-.4-.35.1.4.3.05V37l-.25.05-.05.05.4.3v.15l-.35.05.2.2.15.25v.1l-.1.2v.2l.2-.35v.15l.05-.2v.7l-.05.3v.3q0 1.5.5-.75v.95l-.8 2.75.2-1.8-.85 2.05-.55.8.85-2.65.2-3.2v-.1.25l-.3-.85h.15l-.25-.55.2.05-.2-.3-.05-.1-.2-.4v-.15h.1v-.05l-.1-.25-.1-.2-.1-.1v-.05h.2l-.35-.7v-.05l-.25-.4-.55-.4-.3-.2h.35L77.1 31.6l.55.2-.25-.15-.1-.05-.65-.55.15-.05.1-.05-.45-.55-.25-.3-.15-.2-.1.15-.05-.05-.05-.25-.05-.15-.2.3v-.35l-.2-.15v-.15q-.05-.05-.35.2l.15-.5.2-.1 2.2 2.1-.8-.3.5.5.1.05.5.45.2.2.35.45.2.2-.5-.05 1.45 1.2-.55-.05.2.1.4.4.1.2.05.1.05.1-.25-.1h-.1l.35.45h-.2l.1.1.05.1.2.3-.3-.05.4.75-.2-.05.05.1h.25m-.2.25l.05.05v-.05H80" fill="url(#j)"/><linearGradient id="k" gradientUnits="userSpaceOnUse" gradientTransform="matrix(.00113 .00134 -.00043 .00043 79.55 28.05)" x1="-819.2" x2="819.2"><stop offset="0" stop-color="#5d2e1c"/><stop offset=".475" stop-color="#ad645a"/><stop offset="1" stop-color="#582312"/></linearGradient><path d="M79.05 26.75l.7.8.75 1.1-.8-.95.55 1.1-.5-.55.4.55-.5-.4.45 1.05-1.45-2.25.55.45-.45-.85.75.85-.45-.9" fill="url(#k)"/><linearGradient id="l" gradientUnits="userSpaceOnUse" gradientTransform="matrix(.0026 .00307 -.00061 .0006 78.3 31.05)" x1="-819.2" x2="819.2"><stop offset="0" stop-color="#5d2e1c"/><stop offset=".475" stop-color="#8c4b41"/><stop offset="1" stop-color="#582312"/></linearGradient><path d="M77.5 29.15l.25.25.15.15.65.75.4.4.5.7.25.45.05.1.05.05.1.15.3.6.2.6-.4-.6-.55-.75-.05-.05-.3-.3.25.3.05.05.35.7.25.5-.3-.5-.6-.7.35.7.35 1 .1.3-.15-.3-.65-1-.1-.2.2.6-.25-.45-.45-.55-.15-.2-.45-.55-.15-.2.65.7-.7-1-.05-.05-.2-.15-.1-.1-1.1-1.15-.1-.1-.3-.2.35.2.05.05 1.1.9-1.4-1.6.35.25.55.45.55.6.1.05-.65-1.1 1.05 1.05-.8-1.25v-.05l.05.05.25.35.1.1" fill="url(#l)"/><linearGradient id="m" gradientUnits="userSpaceOnUse" gradientTransform="matrix(.00114 .00136 -.0003 .0003 78.95 28.85)" x1="-819.2" x2="819.2"><stop offset="0" stop-color="#5d2e1c"/><stop offset=".475" stop-color="#8c4b41"/><stop offset="1" stop-color="#582312"/></linearGradient><path d="M78.5 28.6l.55 1-.05-.05-1.2-1.65.5.4.25.2v-.05l-.35-.6.45.5-.25-.65 1.3 1.75-.6-.55.7 1-1.25-1.25-.05-.05" fill="url(#m)"/><linearGradient id="n" gradientUnits="userSpaceOnUse" gradientTransform="matrix(.00153 -.0015 .00218 .0026 80.3 36.2)" x1="-819.2" x2="819.2"><stop offset="0" stop-color="#5e3a2f"/><stop offset="1" stop-color="#200902"/></linearGradient><path d="M79.95 36.1l-.05-.1.2.05-.4-.75.3.05-.2-.3-.05-.1-.1-.1h.2l-.35-.45h.1l.25.1.25.45.2.5.2.65-.15-.65-.05-.5-.25-.85-.1-.35-.25-.8.35.8.2.35.55 1.35.2.65h-1.05" fill="url(#n)"/><radialGradient id="o" gradientUnits="userSpaceOnUse" gradientTransform="matrix(.01086 0 0 .00597 74.95 20)" spreadMethod="pad" cx="0" cy="0" r="819.2" fx="0" fy="0"><stop offset="0" stop-color="#120501"/><stop offset="1" stop-color="#4b1f12"/></radialGradient><path d="M60.45 23.95q-.9 1.05-1.65 2.25.85-1.45 2-2.8 2.3-2.35 5.1-3.3l2.15-.5 1.15-.15-.75.9v.05h-.05q-2.5 1.35-3.9 3.4.85-1.55 2.7-3.1l-.8.4q-1.95 1.05-3.55 2.55l-.75.8q1.05-1.5 2.35-2.55l-.35.15q-1 .5-1.95 1.45l-.05-.05 1.55-1.85-.05.05q-3.05 2.5-4.4 4.05l1.25-1.75" fill="url(#o)"/><linearGradient id="p" gradientUnits="userSpaceOnUse" gradientTransform="matrix(.00595 -.01228 .00977 .00473 67.8 29.05)" x1="-819.2" x2="819.2"><stop offset="0" stop-color="#38150c"/><stop offset=".518" stop-color="#672f26"/><stop offset="1" stop-color="#38170e"/></linearGradient><path d="M68 21.05l-1.8 3.1-.5.8.3-.7-2.65 4.4 1-1.25L63 29.65l.55-.65-1 1.55-1.35 1.85 2.15-3.65-2.45 3.55 1.55-3.45-2.35 4.25 1.35-3.45-1.5 3 1.65-4.25q-1.1 1.9-1.7 3.75.4-1.9 1.4-4.1-2 3.8-2.55 7.55l-.05.2v.1q-.05.75-.5 1.7l-.15.1H58l-.55.2.05-2.3.1-1.05.7-2.9q-.45 1.95-.55 3.95l-.05 1.55.15-1.55q.3-2.35 1.1-5.15-.6 2.75-.75 5.15l-.05 1 .15-1q.4-2.75 1.35-5.25l.05-.05 1-2.05 2.05-3.1 2.05-2.5-2.05 2 1.9-2.2q-1.3 1.15-2.35 2.5l-1.55 2.3 1.35-2.45.75-1-1.7 1.85 1.55-2.45q-1.8 2-3.4 5.05l1.35-2.75-1.4 2.5q.85-2 2.05-3.9-2.05 2.3-3.1 5.5.85-2.7 1.8-4.4-3.2 4.85-3.6 10.4-.1 1.15-.05 2.4l-.4-.05.4.15.8.2-.75.25-.4.05-.05-1 .1-1.75q.2-2.35.8-4.55l.7-2.2.1-.3.2-.5.1-.2 1.25-2.4q1.35-1.55 4.4-4.05l.05-.05-1.55 1.85.05.05q.95-.95 1.95-1.45l.35-.15q-1.3 1.05-2.35 2.55l.75-.8q1.6-1.5 3.55-2.55l.8-.4q-1.85 1.55-2.7 3.1 1.4-2.05 3.9-3.4h.05l-.45.65m-3.7 5.45l2.35-4.1-1.6 2.05 1.6-2.45-2.3 2.75 1.4-2-2.25 2.55.7-1.45-1.15 1.45q-.95 1.3-1.6 2.8l-.05.1-.3.8 1.25-1.95-1 2.5 1.1-2-1 2.6 1.65-2.95-.75 2.5 1.35-2.4-.7 1.6 1.1-2 .2-.4" fill="url(#p)"/><linearGradient id="q" gradientUnits="userSpaceOnUse" gradientTransform="matrix(.00322 -.00789 .00862 .00354 61.2 27.5)" x1="-819.2" x2="819.2"><stop offset="0" stop-color="#502517"/><stop offset=".431" stop-color="#855149"/><stop offset="1" stop-color="#5d2a21"/></linearGradient><path d="M57.4 35.6l-.25 2.1.1-2.2v-.1q.2-3.75 2-7.4l1.4-2.5-1.35 2.75q1.6-3.05 3.4-5.05l-1.55 2.45 1.7-1.85-.75 1-1.35 2.45 1.55-2.3q1.05-1.35 2.35-2.5l-1.9 2.2 2.05-2-2.05 2.5-2.05 3.1-1 2.05-.05.05q-.95 2.5-1.35 5.25l-.15 1 .05-1q.15-2.4.75-5.15-.8 2.8-1.1 5.15l-.15 1.55.05-1.55q.1-2 .55-3.95l-.7 2.9-.2 1.05" fill="url(#q)"/><radialGradient id="r" gradientUnits="userSpaceOnUse" gradientTransform="matrix(.01086 0 0 .00597 74.95 20)" spreadMethod="pad" cx="0" cy="0" r="819.2" fx="0" fy="0"><stop offset="0" stop-color="#240b03"/><stop offset="1" stop-color="#4b1f12"/></radialGradient><path d="M74.6 19.6q2.2.55 3.6 2.05l.1.1.1.05.15.2.1.05.05.05.15.35.2.45.2 1v.2l-.45 1.15v-.8l.05-1.15-.15-.6-.1-.2-.35 2v-1.25l-.75 2.2v-.05q.6-2 .45-3.75l-.35-.05v.45l-.1 1-.55 2.5q.4-1.85.25-3.5l-.75 1.8.25-1.7-1.2 2.6.55-2.4-1.5 3.4 1.2-3.8-.9 2.4.5-2.6-1.15 2.85.15-.7.25-1.2-.5 1.25-1.55 3.2.75-2-1.4 2.6.2-.45.65-1.7-1.5 2.4 1.45-2.95-1.5 2.25-.25.3-.1.15.25-.5.35-.65.1-.2 2.7-5.6q-.7.75-1.9 3.05l1.45-3.25q-.8.8-1.7 2.6.45-1.45 1.4-2.85-1.2.9-2.95 3.9 0-.6.4-1.85l-1.8 4.05.6-2-1.45 3.2.1-.3.15-.55.65-1.85 1.15-2.9-1.15 2.35-1 2.3-.3.9.25-.9 1.05-3 1.2-2.55-.35.45-.85 1.15-.15.2-.55 1 .25-.7.45-.9.7-1.15.55-.8q-.4.15-.9.6l-.35.25-.45.4 1.1-1.45-.55.6-.1.1-1.45 1.95q.4-1.1 1.2-2.2l.1-.15-.1.15q-1.75 1.7-3.1 4.45l-.3.55.2-.5.45-1 1.8-3.1.45-.65v-.05l.75-.9 5.4.15" fill="url(#r)"/><linearGradient id="s" gradientUnits="userSpaceOnUse" gradientTransform="matrix(.00595 -.01228 .00977 .00473 67.8 29.05)" x1="-819.2" x2="819.2"><stop offset="0" stop-color="#38150c"/><stop offset=".533" stop-color="#73362d"/><stop offset="1" stop-color="#38170e"/></linearGradient><path d="M64.5 27.7l.2-.35.85-1.5-.6.7.75-1.6.5-.8-.45 1-.2.5.3-.55q1.35-2.75 3.1-4.45l.1-.15-.1.15q-.8 1.1-1.2 2.2l1.45-1.95.1-.1.55-.6-1.1 1.45.45-.4.35-.25q.5-.45.9-.6l-.55.8-.7 1.15-.45.9-.25.7.55-1 .15-.2.85-1.15.35-.45-1.2 2.55-1.05 3-.25.9.3-.9 1-2.3 1.15-2.35-1.15 2.9-.65 1.85-.15.55L65.3 32l-.35.35-.15.15-1.95 1.95-.2.1-1.2 1.05-2.25 1.45.75-.65.1-.1 3.1-2.75-2.25 1.55 2.1-1.75.05-.1 2.15-2.5-3.55 3.1 3.05-3.2-2.3 2.05 3.25-3.7-.3.3q-2.7 2.45-5.2 5.5L64.7 29l-3.3 3.4-.1.1 2.55-3.5-1.3 1.55 1-1.55.95-1.3m3.05-1.05l-2 2.9-.5.6.65-.7-1.3 1.85 1.85-1.8-.35.65-2.35 3.1 2.6-2.6.2-.3 1.4-2.2.2-.5-.75.7.2-.3.8-1.95-1.3 2.2 1.15-2.55-.5.9m-1.15.8l1.75-3.15-1.9 2.65 2.2-4.1-1.6 2.2 1.5-2.7-2.05 3.2.8-1.8-3.85 6.4 1.9-2.15-.85 1.15 1.65-1.85-2.45 3.55 2-2.2-.5.75.3-.25 1.25-1.35 1.55-2.5-1.7 2.15" fill="url(#s)"/><linearGradient id="t" gradientUnits="userSpaceOnUse" gradientTransform="matrix(.00266 -.0046 .0043 .00249 63.85 26.05)" x1="-819.2" x2="819.2"><stop offset="0" stop-color="#5d2a21"/><stop offset=".443" stop-color="#91504b"/><stop offset=".988" stop-color="#57271e"/></linearGradient><path d="M64.05 26.95l.05-.05-1.1 2 .7-1.6-1.35 2.4.75-2.5-1.65 2.95 1-2.6-1.1 2 1-2.5L61.1 29l.3-.8.05-.1q.65-1.5 1.6-2.8l1.15-1.45-.7 1.45 2.25-2.55-1.4 2 2.3-2.75-1.6 2.45 1.6-2.05-2.35 4.1-.25.45" fill="url(#t)"/><linearGradient id="u" gradientUnits="userSpaceOnUse" gradientTransform="matrix(.00554 -.01144 .00977 .00473 69 27.05)" x1="-819.2" x2="819.2"><stop offset="0" stop-color="#38150c"/><stop offset=".518" stop-color="#8c483f"/><stop offset="1" stop-color="#38170e"/></linearGradient><path d="M74.35 23.9l-.15.7 1.15-2.85-.5 2.6.9-2.4-1.2 3.8 1.5-3.4-.55 2.4 1.2-2.6-.25 1.7.75-1.8q.15 1.65-.25 3.5l.55-2.5.1-1v-.45l.35.05q.15 1.75-.45 3.75v.05l.75-2.2v1.25l.35-2 .1.2.15.6-.05 1.15v.8l-.1.15-1.2 1.55-.3.3-1.45 1.4-.55.5-.15.1-.75.6-1 .8 3.15-3.25.05-.15 1-1.15.7-1.15-1.35 1.7.55-1.05-1.8 2.15 1.3-2.05-.7.85.8-2.4-.5.9-.6 1.2-1.45 2.85-1.25 1.45h-.05l-.05.15-2.45 1.75-.05-.05q1.55-1.2 2.85-3.35l1.75-2.9.95-2.05-1.5 2.4.6-1.65L73.5 28l1.25-3.35-.65 1.05.7-1.8-1 1.9.1-.5.45-1.4m-3.05 6.25l-.2.4-.05.05-1.6 2.1 1.5-1.5-1.5 1.8.95-.7-1.55 1.45-1.25.65-.3.15 1.9-1.95 1.3-1.55-.9.9 1.7-1.8m1.7.7l.2-.1-.2.15v-.05m.45-.9l-.05.1.05-.1" fill="url(#u)"/><linearGradient id="v" gradientUnits="userSpaceOnUse" gradientTransform="matrix(.00595 -.01228 .00977 .00473 67.8 29.05)" x1="-819.2" x2="819.2"><stop offset="0" stop-color="#49201a"/><stop offset=".51" stop-color="#8c483f"/><stop offset="1" stop-color="#240e09"/></linearGradient><path d="M70.95 27.6l.25-.3 1.5-2.25L71.25 28l1.5-2.4-.65 1.7-.2.45 1.4-2.6-.75 2 1.55-3.2.5-1.25-.25 1.2-.45 1.4.15-.7-.1.25-1.1 2.4-1.55 2.9-1.7 1.8-.4.4-1.55 1.35q-1.5 1.25-2.75 1.8l2.15-1.6-2.6 1.55-.3.15q-2.65 1.2-5 2l-.35.1-.5.15v.05l-1.15.4-.8-.2-.4-.15.4.05h.4l.4-.05h.05l.25-.05.55-.2h.05l.15-.1.1-.05.15-.05.4-.25 1.9-.7.45-.2.05-.05h.05l.05-.05 1.35-.65 3.65-2.3.05-.05v-.05l1.15-.75-.4.5 1.35-1.25-1.55 1.85 2.4-2.05-1.4 1.6 1.25-1.05 1.55-1.55.85-1.6v-.05l.35-.8-.5.8-.2.2-.9.85.5-.6.3-.5.5-1.15-1.45 1.8.35-1.15.4-.7" fill="url(#v)"/><linearGradient id="w" gradientUnits="userSpaceOnUse" gradientTransform="matrix(.00604 -.00604 .00554 .00554 68 27.75)" x1="-819.2" x2="819.2"><stop offset="0" stop-color="#461c10"/><stop offset=".439" stop-color="#6c3229"/><stop offset=".973" stop-color="#4f231a"/></linearGradient><path d="M70.55 28.3l.15-.4-.4.7-.9 1.4-.2.3-1.65 2.15-1.15.75.55-.55 1.85-2.35-1.95 2.05-1.3.85 1.2-1.35.45-.6.95-1.6q-1.15 1.5-2.7 2.65l2.05-3-1.25 1.6-.95 1.1 3.1-4.65-.1.3 1.45-3.2-.6 2 1.8-4.05q-.4 1.25-.4 1.85 1.75-3 2.95-3.9-.95 1.4-1.4 2.85.9-1.8 1.7-2.6l-1.45 3.25q1.2-2.3 1.9-3.05l-2.7 5.6-.1.2-.35.65-.25.5.1-.15-.4.7m.35-2.1l1.4-2.2-1.15 1.25.7-1.35-1.95 2.9 1.9-3.65-1.75 2.6.35-1.1-1.15 2.3-.05.1-.75 1.2-.5.75.65-1.5-1.75 2.35.8-.8-.65 1.4.95-1.2-.8 1.25 1.55-1.65-1.15 2.2 1.25-1.5-.75 1.25 1.65-2.1-.75 1.25.65-.8v-.05l.4-.55.85-1.3 1.4-2.45-1.35 1.4" fill="url(#w)"/><linearGradient id="x" gradientUnits="userSpaceOnUse" gradientTransform="matrix(.0052 .0042 -.01085 .01346 79.05 30.5)" x1="-819.2" x2="819.2"><stop offset="0" stop-color="#32120b"/><stop offset=".502" stop-color="#5e2c18"/><stop offset=".988" stop-color="#471e11"/></linearGradient><path d="M79.4 23.3l-.05-.1.05.05v.05" fill="url(#x)"/><linearGradient id="y" gradientUnits="userSpaceOnUse" gradientTransform="matrix(.0033 -.00804 .00163 .00067 55.65 27.85)" x1="-819.2" x2="819.2"><stop offset="0" stop-color="#522a1d"/><stop offset=".455" stop-color="#82483f"/><stop offset="1" stop-color="#4a2116"/></linearGradient><path d="M56.35 38q-.05-1.25.05-2.4.4-5.55 3.6-10.4-.95 1.7-1.8 4.4 1.05-3.2 3.1-5.5-1.2 1.9-2.05 3.9-1.8 3.65-2 7.4v.1l-.1 2.2.25-2.1.2-1.05-.1 1.05-.05 2.3-.25.05h-.05l-.4.05h-.4" fill="url(#y)"/><radialGradient id="z" gradientUnits="userSpaceOnUse" gradientTransform="translate(58.45 37.55) scale(.0122)" spreadMethod="pad" cx="0" cy="0" r="819.2" fx="25" fy="0"><stop offset="0" stop-color="#240b03"/><stop offset="1" stop-color="#4b1f12"/></radialGradient><path d="M58.85 37.25l-.4.25-.15.05-.1.05q.45-.95.5-1.7v-.1l.05-.2q.55-3.75 2.55-7.55-1 2.2-1.4 4.1.6-1.85 1.7-3.75l-1.65 4.25 1.5-3-1.35 3.45 2.35-4.25-1.55 3.45 2.45-3.55-2.15 3.65 1.35-1.85 1.3-1.55-2.55 3.5.1-.1 3.3-3.4-4.55 5.8q2.5-3.05 5.2-5.5l.3-.3-3.25 3.7 2.3-2.05-3.05 3.2 3.55-3.1-2.15 2.5-.05.1-2.1 1.75 2.25-1.55-3.1 2.75-.1.1-.75.65-.35.2" fill="url(#z)"/><radialGradient id="A" gradientUnits="userSpaceOnUse" gradientTransform="translate(59.25 37.25) scale(.01152)" spreadMethod="pad" cx="0" cy="0" r="819.2" fx="25" fy="0"><stop offset="0" stop-color="#240b03"/><stop offset="1" stop-color="#4b1f12"/></radialGradient><path d="M56.75 38.6l-.35.05h-.2l-.2-.05.4-.05.75-.25 1.15-.4v-.05l.5-.15.35-.1q2.35-.8 5-2l.3-.15 2.6-1.55-2.15 1.6q1.25-.55 2.75-1.8l1.55-1.35.4-.4.9-.9-1.3 1.55-1.9 1.95v.05q-.25.1-.45.25l-.1.05-1.45.7-2.65 1.1 1.65-.95-3 1.3-.5.25-.3.1-.95.4-.4.15-.55.2-.2.05-.95.25-.7.15m9.5-7.7l1.25-1.6-2.05 3q1.55-1.15 2.7-2.65l-.95 1.6-.45.6-1.2 1.35 1.3-.85 1.95-2.05-1.85 2.35-.55.55v.05l-.05.05-3.65 2.3-1.35.65-.05.05h-.05l-.05.05-.45.2-1.9.7.35-.2 2.25-1.45 1.2-1.05.2-.1 1.95-1.95.15-.15.35-.35.95-1.1" fill="url(#A)"/><linearGradient id="B" gradientUnits="userSpaceOnUse" gradientTransform="matrix(.0022 .00511 -.00908 .0039 62.45 42.9)" x1="-819.2" x2="819.2"><stop offset="0" stop-color="#110504"/><stop offset=".871" stop-color="#7e361c"/><stop offset=".992" stop-color="#612815"/></linearGradient><path d="M61.1 39.4h.1q.05 1.9.6 4.25l1.05 2.95.45 1 .95 1.85.15.25 2.5 3.85L65.6 52l.85 1.6-1.15-1.65.9 1.65-1.4-2.05.5 1.15-1.65-2.7.35.8-.9-1.25-.05-.05q-2.8-4.55-3.65-9.6l-.05-.5h.05l-.25-1.45.4-.15.95-.4.3-.1.5-.25q-.3.7-.2 2.35m-.75 2.2l.3 1.25-1.05-3.2.3 1.15q.9 3.8 2.65 7.4l.05.1.85 1.4-.95-2.05 2.7 4.05-1.45-2.55 1 1.6-.6-1.05-1.4-2.8-.45-.95-.1-.25-1-3.15-.85-3.15h-.05l.55 3.15L60 39.4l.35 2.2" fill="url(#B)"/><linearGradient id="C" gradientUnits="userSpaceOnUse" gradientTransform="matrix(.00528 .00719 -.0069 .00507 61.1 44.95)" x1="-819.2" x2="819.2"><stop offset="0" stop-color="#270c06"/><stop offset=".976" stop-color="#552220"/></linearGradient><path d="M58.6 39.4v.15q.05 1.3.25 2.6-.15-1.35.1-2.55v-.1l.05.15q.5 2.9 1.45 5.6L60 44.4l.6 1.2.25.7.2.3 1.5 3.1.65 1.05.05.35.4.9-.5-.6-.35-.5-.7-1.2-.2-.35-.75-1.55.15.4-.7-1.35-.7-1.95.05.5-1.1-2.7L60 45.9q.2 1.2.65 2.25-2.25-4.6-2.3-8.65v-.1h.2l-.15-1.2.2-.05v1.25m2.95 9.7l.5 1.8-.9-2.55.4.75" fill="url(#C)"/><linearGradient id="D" gradientUnits="userSpaceOnUse" gradientTransform="matrix(.00528 .00719 -.0069 .00507 61.25 45.15)" x1="-819.2" x2="819.2"><stop offset="0"/><stop offset=".976" stop-color="#552220"/></linearGradient><path d="M63.45 50.35l.2.7-.25-.5.05.3-1.7-2.85-1.3-2.75q-.95-2.7-1.45-5.6l-.05-.15v.1q-.25 1.2-.1 2.55-.2-1.3-.25-2.6v-1.4l.55-.2.25 1.45h-.05l.05.5q.85 5.05 3.65 9.6l.05.05.35.8m.8-.9l-.95-1.85-.45-1q1.3 2.3 3.25 3.3l-.2-.05q-.8-.2-1-.4l.45.9-1.1-.9m-1.05 1.3l-.65-1.05-1.5-3.1-.2-.3-.25-.7 1.15 2.45q.8 1.65 1.75 2.85l.3.6-.45-.5-.15-.25" fill="url(#D)"/><linearGradient id="E" gradientUnits="userSpaceOnUse" gradientTransform="matrix(.00156 .00877 -.01031 .00183 60.2 47.2)" x1="-819.2" x2="819.2"><stop offset="0" stop-color="#36110f"/><stop offset=".431" stop-color="#5e2725"/><stop offset=".976" stop-color="#3f1614"/></linearGradient><path d="M61.15 48.35l.9 2.55-.5-1.8 1.95 3.05q-.45-.4-.75-.95.15.65.45 1.2l-.45-.75q.2.7.55 1.2l-.35-.45.6 1.05-.6-.7.5 1.15-1-1.45.8 2-.5-.7.55 1.55-.55-.95.35 1-1-1.75.3.95-.7-1.05-1.7-4.15 2 4.05-.45-1.35.9 1.75-1.5-4.9.5 2.05-.55-1.25q-2.05-4.5-2.95-8.4l.95 4.75-.15-.45-.95-3.1.1-.1-.35-2.8-.05-.2h.1l-.15-.95.95-.25.15 1.2h-.2v.1q.05 4.05 2.3 8.65-.45-1.05-.65-2.25l1.15 2.45m-1.2-2.95l-.05-.5.7 1.95-.65-1.45m1.35 2.8l-.15-.4.75 1.55-.6-1.15m1.5 2.7l.35.5.05.15-.4-.65" fill="url(#E)"/><linearGradient id="F" gradientUnits="userSpaceOnUse" gradientTransform="matrix(-.00273 -.00658 .00514 -.00215 59.4 48.5)" x1="-819.2" x2="819.2"><stop offset="0" stop-color="#522a1d"/><stop offset=".49" stop-color="#7c433a"/><stop offset="1" stop-color="#4a2116"/></linearGradient><path d="M57.25 39.7l-.05-.3h-.05l.05.3.85 5.15.1.3L60.9 52l-.95-1.65.7 2.05-1.05-2.05v-.05l-.3-.6-1.1-2.8-.15-.25q-1.1-3.2-1.5-6.2l-.1-1.05h.1l-.15-.75.35-.05.7-.15.15.95h-.1l.05.2.35 2.8-.1.1-.55-2.8m1 5.9l-.4-.9q.55 2.25 1.25 4.1l-.85-3.2" fill="url(#F)"/><linearGradient id="G" gradientUnits="userSpaceOnUse" gradientTransform="matrix(.00156 .00877 -.01031 .00183 60.2 47.2)" x1="-819.2" x2="819.2"><stop offset="0" stop-color="#36110f"/><stop offset=".447" stop-color="#763533"/><stop offset=".976" stop-color="#3f1614"/></linearGradient><path d="M61.7 53.5q.2.8.55 1.2l-1.05-1.3.15.15-.25-.25-.75-.85-.35-.7.1.35-1.1-1.8-.25-.6q-2.2-5.1-2.7-10.3l-.05-.6v-.2l.2.05h.2l.15.75h-.1l.1 1.05q.4 3 1.5 6.2l.15.25 1.1 2.8.3.6v.05l1.05 2.05-.7-2.05.95 1.65.8 1.5m-2.6-4.7q-.7-1.85-1.25-4.1l.4.9.85 3.2m2.05 4.6l.5 1-1.05-1.55.55.55m-.95-1l.2.75-.35-.75-.4-.7.55.7" fill="url(#G)"/><linearGradient id="H" gradientUnits="userSpaceOnUse" gradientTransform="matrix(.00272 .00737 -.0083 .00307 59.95 46.9)" x1="-819.2" x2="819.2"><stop offset="0" stop-color="#511b17"/><stop offset=".471" stop-color="#8c4c3f"/><stop offset="1" stop-color="#511b17"/></linearGradient><path d="M60.9 52l-2.75-6.85-.1-.3-.85-5.15-.05-.3h.05l.05.3.55 2.8.95 3.1.15.45-.95-4.75q.9 3.9 2.95 8.4l.55 1.25-.5-2.05 1.5 4.9-.9-1.75.45 1.35-2-4.05 1.7 4.15-.8-1.5" fill="url(#H)"/><linearGradient id="I" gradientUnits="userSpaceOnUse" gradientTransform="matrix(.00645 -.0073 .00085 .00075 73.3 29.65)" x1="-819.2" x2="819.2"><stop offset="0" stop-color="#703b29"/><stop offset=".455" stop-color="#aa6151"/><stop offset=".988" stop-color="#673229"/></linearGradient><path d="M73 30.85l.1-.15.05-.15h.05l1.25-1.45 1.45-2.85.6-1.2.5-.9-.8 2.4.7-.85-1.3 2.05 1.8-2.15-.55 1.05 1.35-1.7-.7 1.15-1 1.15-.05.15-3.15 3.25-.1.1-.2.1" fill="url(#I)"/><linearGradient id="J" gradientUnits="userSpaceOnUse" gradientTransform="matrix(.00412 -.00412 .00394 .00394 72.5 29.15)" x1="-819.2" x2="819.2"><stop offset="0" stop-color="#703b29"/><stop offset=".475" stop-color="#b86b5b"/><stop offset=".988" stop-color="#5c2c23"/></linearGradient><path d="M73.9 25.3l-.1.5 1-1.9-.7 1.8.65-1.05L73.5 28l1.75-3.15-.6 1.65 1.5-2.4-.95 2.05-1.75 2.9q-1.3 2.15-2.85 3.35l.05.05 2.45-1.75-.1.15v.05l-2.5 1.75v.05l-.2.1-1.1.7-.35.25 1.55-1.45-.95.7 1.5-1.8-1.5 1.5 1.6-2.1.05-.05.2-.4 1.55-2.9 1.1-2.4.1-.25-.15.7m-.5 4.75l.05-.1-.05.1" fill="url(#J)"/><linearGradient id="K" gradientUnits="userSpaceOnUse" gradientTransform="matrix(.00226 -.00296 .00381 .00291 69.15 28)" x1="-819.2" x2="819.2"><stop offset="0" stop-color="#6d3927"/><stop offset=".443" stop-color="#9e5a56"/><stop offset="1" stop-color="#5b2c1d"/></linearGradient><path d="M72.25 24.8l-1.4 2.45-.85 1.3-.4.55v.05l-.65.8.75-1.25-1.65 2.1.75-1.25-1.25 1.5 1.15-2.2-1.55 1.65.8-1.25-.95 1.2.65-1.4-.8.8 1.75-2.35-.65 1.5.5-.75.75-1.2.05-.1 1.15-2.3-.35 1.1 1.75-2.6-1.9 3.65 1.95-2.9-.7 1.35L72.3 24l-1.4 2.2 1.35-1.4" fill="url(#K)"/><linearGradient id="L" gradientUnits="userSpaceOnUse" gradientTransform="matrix(.00325 -.00484 .00298 .002 69.95 29.1)" x1="-819.2" x2="819.2"><stop offset="0" stop-color="#6d3927"/><stop offset=".447" stop-color="#a8605c"/><stop offset="1" stop-color="#5b2c1d"/></linearGradient><path d="M69.2 30.3l.2-.3.9-1.4.4-.7-.15.4-.35 1.15 1.45-1.8-.5 1.15-.3.5-.5.6.9-.85.2-.2.5-.8-.35.8v.05l-.85 1.6-1.55 1.55-1.25 1.05 1.4-1.6-2.4 2.05 1.55-1.85-1.35 1.25.4-.5 1.65-2.15" fill="url(#L)"/><linearGradient id="M" gradientUnits="userSpaceOnUse" gradientTransform="rotate(44.95 1.48 110.165) scale(.00414 .00089)" x1="-819.2" x2="819.2"><stop offset="0" stop-color="#5d2e1c"/><stop offset=".475" stop-color="#8c4b41"/><stop offset="1" stop-color="#582312"/></linearGradient><path d="M75.55 29.2l.2.15-.2-.15" fill="url(#M)"/><linearGradient id="N" gradientUnits="userSpaceOnUse" gradientTransform="matrix(.00224 -.0028 .00404 .00327 65.85 26.6)" x1="-819.2" x2="819.2"><stop offset="0" stop-color="#6d3927"/><stop offset=".443" stop-color="#9e5a56"/><stop offset="1" stop-color="#5b2c1d"/></linearGradient><path d="M68.1 25.3l-1.55 2.5-1.25 1.35-.3.25.5-.75-2 2.2 2.45-3.55-1.65 1.85.85-1.15-1.9 2.15 3.85-6.4-.8 1.8 2.05-3.2-1.5 2.7 1.6-2.2-2.2 4.1 1.9-2.65-1.75 3.15 1.7-2.15" fill="url(#N)"/><linearGradient id="O" gradientUnits="userSpaceOnUse" gradientTransform="matrix(.0029 -.0029 .00323 .00323 66.7 27.9)" x1="-819.2" x2="819.2"><stop offset="0" stop-color="#6d3927"/><stop offset=".443" stop-color="#9e5a56"/><stop offset="1" stop-color="#5b2c1d"/></linearGradient><path d="M68.05 25.75L66.9 28.3l1.3-2.2-.8 1.95-.2.3.75-.7-.2.5-1.4 2.2-.2.3-2.6 2.6 2.35-3.1.35-.65-1.85 1.8 1.3-1.85-.65.7.5-.6 2-2.9.5-.9" fill="url(#O)"/><linearGradient id="P" gradientUnits="userSpaceOnUse" gradientTransform="matrix(.00136 -.00215 .0028 .00175 64.5 26.95)" x1="-819.2" x2="819.2"><stop offset="0" stop-color="#6d3927"/><stop offset=".443" stop-color="#9e5a56"/><stop offset="1" stop-color="#5b2c1d"/></linearGradient><path d="M63.55 29l-.55.65 1.35-2.25-1 1.25 2.65-4.4-.3.7-.75 1.6.6-.7-.85 1.5-.2.35-.95 1.3" fill="url(#P)"/><linearGradient id="Q" gradientUnits="userSpaceOnUse" gradientTransform="matrix(.0038 -.00471 .00404 .00327 66.15 26.4)" x1="-819.2" x2="819.2"><stop offset="0" stop-color="#6d3927"/><stop offset=".443" stop-color="#9e5a56"/><stop offset="1" stop-color="#5b2c1d"/></linearGradient><path d="M58.55 26.65l.2-.35.05-.1q.75-1.2 1.65-2.25L59.2 25.7l-1.25 2.4.6-1.45m2.05 26.2l-.4-.45-.55-.7q-1.25-1.9-2.35-5-1.6-4.65-1.6-7.9 0-1.55.15-2.95.15-2.3.7-4.3l1-2.45-.7 2.2q-.6 2.2-.8 4.55l-.1 1.75-.05 1.25q0 3.2 1.5 7.65.75 2.15 1.6 3.8l1.1 1.8.25.35.75.85.25.25-.15-.15h-.05l-.55-.55" fill="url(#Q)"/><linearGradient id="R" gradientUnits="userSpaceOnUse" gradientTransform="matrix(.00487 .0066 -.00647 .00476 63.25 46.45)" x1="-819.2" x2="819.2"><stop offset="0" stop-color="#3d1b15"/><stop offset=".525" stop-color="#945346"/><stop offset="1" stop-color="#7e361c"/></linearGradient><path d="M60 39.4l.85 3.15-.55-3.15h.05l.85 3.15 1 3.15.1.25.45.95 1.4 2.8.6 1.05-1-1.6 1.45 2.55-2.7-4.05.95 2.05-.85-1.4-.05-.1q-1.75-3.6-2.65-7.4l-.3-1.15 1.05 3.2-.3-1.25-.35-2.2" fill="url(#R)"/><linearGradient id="S" gradientUnits="userSpaceOnUse" gradientTransform="matrix(.0038 -.00471 .00404 .00327 65.85 26.6)" x1="-819.2" x2="819.2"><stop offset="0" stop-color="#6d3927"/><stop offset=".443" stop-color="#9e5a56"/><stop offset="1" stop-color="#5b2c1d"/></linearGradient><path d="M63.2 51.55l1.45 2.05-1.15-1.45-1.95-3.05-.4-.75L60 45.9l-1.15-3.2 1.1 2.7.65 1.45.7 1.35.6 1.15.2.35.7 1.2.4.65m.3-.65q-.95-1.2-1.75-2.85L60.6 45.6l-.6-1.2.45.85 1.3 2.75 1.7 2.85.65.75v.05l-.6-.75" fill="url(#S)"/><linearGradient id="T" gradientUnits="userSpaceOnUse" gradientTransform="matrix(.00194 -.00262 .00455 .00334 62.5 46.15)" x1="-819.2" x2="819.2"><stop offset="0" stop-color="#a35a56" stop-opacity="0"/><stop offset=".471" stop-color="#ffc3bf" stop-opacity=".541"/><stop offset="1" stop-color="#9e5953" stop-opacity="0"/></linearGradient><path d="M60.4 41.25q2.05 5.6 4.3 9.8l-1.15-1.7q-2.3-3.7-3.15-8.1" fill="url(#T)"/><linearGradient id="U" gradientUnits="userSpaceOnUse" gradientTransform="matrix(.0038 -.00471 .00404 .00327 65.8 26.6)" x1="-819.2" x2="819.2"><stop offset="0" stop-color="#6d3927"/><stop offset=".443" stop-color="#9e5a56"/><stop offset="1" stop-color="#5b2c1d"/></linearGradient><path d="M83.7 26.75q-.55-1.3-1.65-2.65-1.9-2.4-3.65-2.35 1-.25 2.2.75l1.5 1.5q1.15 1.3 1.65 2.65l1.15 3.15.25 2.85v1.05l-.05.4-.1.45-.05-.1.1-1.75-.2-2.9-1.15-3.05" fill="url(#U)"/><linearGradient id="V" gradientUnits="userSpaceOnUse" gradientTransform="matrix(.0038 -.00471 .00404 .00327 65.85 26.6)" x1="-819.2" x2="819.2"><stop offset="0" stop-color="#6d3927"/><stop offset=".443" stop-color="#9e5a56"/><stop offset="1" stop-color="#5b2c1d"/></linearGradient><path d="M85.4 33.7l-.05.65h-.1l.15-.65M72.25 22.6l-2 2.6-.05-.05q.85-1.55 2.55-3.2 2-1.9 3.4-1.9 1.75 0 2.15 1.6l-.5-.8q-.65-.65-1.75-.65-1.65 0-3.8 2.4m-14.7 5.5q1.4-2.75 3.95-5.3-2.65 2.75-4 5.75-1.75 3.65-1.75 8.15l.3 1.85h-.1l-.3-1.9q0-4.75 1.9-8.55" fill="url(#V)"/><linearGradient id="W" gradientUnits="userSpaceOnUse" gradientTransform="matrix(.0038 -.00471 .00404 .00327 65.85 26.6)" x1="-819.2" x2="819.2"><stop offset="0" stop-color="#6d3927"/><stop offset=".443" stop-color="#9e5a56"/><stop offset="1" stop-color="#5b2c1d"/></linearGradient><path d="M77.1 24.5l-.2 3.15-.05-.1q0-6.8 1.9-6.1-1.5 1.15-1.65 3.05" fill="url(#W)"/><linearGradient id="X" gradientUnits="userSpaceOnUse" gradientTransform="matrix(.0038 -.00471 .00404 .00327 65.85 26.6)" x1="-819.2" x2="819.2"><stop offset="0" stop-color="#6d3927"/><stop offset=".443" stop-color="#9e5a56"/><stop offset="1" stop-color="#5b2c1d"/></linearGradient><path d="M73.45 19.45q-2.85 0-5.9 1.85-2.3 1.35-2.8 2.15h-.1q.75-1.2 2.9-2.4 2.6-1.55 5.45-1.8l1.25.05.6.25-1.4-.1" fill="url(#X)"/><linearGradient id="Y" gradientUnits="userSpaceOnUse" gradientTransform="matrix(.0038 -.00471 .00404 .00327 65.85 26.6)" x1="-819.2" x2="819.2"><stop offset="0" stop-color="#6d3927"/><stop offset=".443" stop-color="#9e5a56"/><stop offset="1" stop-color="#5b2c1d"/></linearGradient><path d="M85.55 34.75q0 3.75-1.7 8.35-1.8 4.9-4 6.1h-.05q2.2-1.55 3.95-6.35 1.7-4.55 1.7-8.05l-.15-1.9-.2-1.15.05-.15.4 3.15" fill="url(#Y)"/><linearGradient id="Z" gradientUnits="userSpaceOnUse" gradientTransform="matrix(.0038 -.00471 .00404 .00327 65.85 26.6)" x1="-819.2" x2="819.2"><stop offset="0" stop-color="#6d3927"/><stop offset=".443" stop-color="#9e5a56"/><stop offset="1" stop-color="#5b2c1d"/></linearGradient><path d="M60.95 22.9q-1.75 1.7-2.05 2.35l-.7 1.35-.5 1.2q.8-3.7 5.05-6.4 3.75-2.4 7.2-2.4l3.25.15.2.05-1.1.05.4-.05-1.8.05-1-.1q-2.1 0-5.25 1.45-2.95 1.3-3.7 2.3" fill="url(#Z)"/><linearGradient id="aa" gradientUnits="userSpaceOnUse" gradientTransform="matrix(.0038 -.00471 .00404 .00327 65.85 26.6)" x1="-819.2" x2="819.2"><stop offset="0" stop-color="#6d3927"/><stop offset=".443" stop-color="#9e5a56"/><stop offset="1" stop-color="#5b2c1d"/></linearGradient><path d="M74.1 29.9l-1.75 1.45-1.75 1.45-1.9 1.25q3.85-2.7 6.65-5.6L74.1 29.9" fill="url(#aa)"/><linearGradient id="ab" gradientUnits="userSpaceOnUse" gradientTransform="matrix(-.00166 -.00235 .00288 -.00195 80.6 27.7)" x1="-819.2" x2="819.2"><stop offset="0" stop-color="#a35a56" stop-opacity="0"/><stop offset=".471" stop-color="#ffc3bf" stop-opacity=".541"/><stop offset="1" stop-color="#9e5953" stop-opacity="0"/></linearGradient><path d="M82.4 30.05q-1.9-2.55-3.75-4.35l1.95 1.7-1.35-1.7 1.6 1.6-1.2-1.7q1.85 2.05 3.2 4.4l-1.55-2 1.1 2.05" fill="url(#ab)"/><linearGradient id="ac" gradientUnits="userSpaceOnUse" gradientTransform="matrix(-.00166 -.00235 .00288 -.00195 81.15 26.85)" x1="-819.2" x2="819.2"><stop offset="0" stop-color="#a35a56" stop-opacity="0"/><stop offset=".471" stop-color="#ffc3bf" stop-opacity=".541"/><stop offset="1" stop-color="#9e5953" stop-opacity="0"/></linearGradient><path d="M82.95 29.2q-1.9-2.55-3.75-4.35l1.95 1.7-1.35-1.7 1.6 1.6-1.2-1.7q1.85 2.05 3.2 4.4l-1.55-2 1.1 2.05" fill="url(#ac)"/><linearGradient id="ad" gradientUnits="userSpaceOnUse" gradientTransform="matrix(-.00166 -.00235 .00288 -.00195 81.55 25.55)" x1="-819.2" x2="819.2"><stop offset="0" stop-color="#a35a56" stop-opacity="0"/><stop offset=".471" stop-color="#ffc3bf" stop-opacity=".541"/><stop offset="1" stop-color="#9e5953" stop-opacity="0"/></linearGradient><path d="M83.35 27.9q-1.9-2.55-3.75-4.35l1.95 1.7-1.35-1.7 1.6 1.6-1.2-1.7q1.85 2.05 3.2 4.4l-1.55-2 1.1 2.05" fill="url(#ad)"/><linearGradient id="ae" gradientUnits="userSpaceOnUse" gradientTransform="matrix(.00333 -.00452 .00024 .00018 67.25 30.3)" x1="-819.2" x2="819.2"><stop offset="0" stop-color="#a35a56" stop-opacity="0"/><stop offset=".463" stop-color="#ffc3bf" stop-opacity=".302"/><stop offset="1" stop-color="#9e5953" stop-opacity="0"/></linearGradient><path d="M59.2 28.85l.2-.5v-.05q.75-1.65 1.9-3.35-2.7 3.5-3.85 6.85 1.65-5.6 5.3-8.85l-2.9 5.15 2.65-3.55q-2.8 3.9-4.1 8l.8-3.7" fill="url(#ae)"/><linearGradient id="af" gradientUnits="userSpaceOnUse" gradientTransform="matrix(-.00238 -.00319 .00383 -.00287 78.65 30.75)" x1="-819.2" x2="819.2"><stop offset="0" stop-color="#a35a56" stop-opacity="0"/><stop offset=".471" stop-color="#ffc3bf" stop-opacity=".541"/><stop offset="1" stop-color="#9e5953" stop-opacity="0"/></linearGradient><path d="M76.65 28.05l2.25 2.2-1.7-2.35q2.65 2.75 4.6 5.95l-2.2-2.7 1.55 2.75q-2.65-3.4-5.3-5.85l2.7 2.3-1.9-2.3" fill="url(#af)"/><linearGradient id="ag" gradientUnits="userSpaceOnUse" gradientTransform="matrix(-.00174 -.00229 .0028 -.00206 79.25 29.25)" x1="-819.2" x2="819.2"><stop offset="0" stop-color="#a35a56" stop-opacity="0"/><stop offset=".471" stop-color="#ffc3bf" stop-opacity=".541"/><stop offset="1" stop-color="#9e5953" stop-opacity="0"/></linearGradient><path d="M77.8 27.3l1.65 1.55-1.25-1.65q1.95 1.95 3.35 4.25l-1.6-1.95 1.15 2q-1.95-2.45-3.9-4.2l2 1.65-1.4-1.65" fill="url(#ag)"/><linearGradient id="ah" gradientUnits="userSpaceOnUse" gradientTransform="matrix(-.00174 -.00229 .0028 -.00206 79.75 28.35)" x1="-819.2" x2="819.2"><stop offset="0" stop-color="#a35a56" stop-opacity="0"/><stop offset=".471" stop-color="#ffc3bf" stop-opacity=".541"/><stop offset="1" stop-color="#9e5953" stop-opacity="0"/></linearGradient><path d="M79.7 28.05l-1.4-1.65 1.65 1.55-1.25-1.65q1.95 1.95 3.35 4.25l-1.6-1.95 1.15 2q-1.95-2.45-3.9-4.2l2 1.65" fill="url(#ah)"/><linearGradient id="ai" gradientUnits="userSpaceOnUse" gradientTransform="matrix(.00298 -.00404 .0006 .00043 73.25 28.1)" x1="-819.2" x2="819.2"><stop offset="0" stop-color="#a35a56" stop-opacity="0"/><stop offset=".471" stop-color="#ffc3bf" stop-opacity=".541"/><stop offset="1" stop-color="#9e5953" stop-opacity="0"/></linearGradient><path d="M74 27.3l2-2.3-4.25 6.15 1.2-2.4-2.05 2.75 2-3.8 1.3-1.85-1.25 2.6 2-2.95-.95 1.8" fill="url(#ai)"/><linearGradient id="aj" gradientUnits="userSpaceOnUse" gradientTransform="matrix(.00336 -.00557 .00128 .00078 70.5 28.65)" x1="-819.2" x2="819.2"><stop offset="0" stop-color="#a35a56" stop-opacity="0"/><stop offset=".471" stop-color="#ffc3bf" stop-opacity=".541"/><stop offset="1" stop-color="#9e5953" stop-opacity="0"/></linearGradient><path d="M71.85 27.5l-.1.1-.95 1.65-3.55 3.7 2.9-3.55-3.5 3.25q3.6-3.75 5.75-7.85L70.9 28l2.5-3.8-2.1 3.85.65-.75-.1.2" fill="url(#aj)"/><linearGradient id="ak" gradientUnits="userSpaceOnUse" gradientTransform="matrix(.00336 -.00557 .00128 .00078 70.25 28.7)" x1="-819.2" x2="819.2"><stop offset="0" stop-color="#a35a56" stop-opacity="0"/><stop offset=".471" stop-color="#ffc3bf" stop-opacity=".541"/><stop offset="1" stop-color="#9e5953" stop-opacity="0"/></linearGradient><path d="M72.05 27.15l.15-.5.1-.1 1.25-1.5L72.6 27l-3.2 4.85 2.55-4.55.1-.15" fill="url(#ak)"/><linearGradient id="al" gradientUnits="userSpaceOnUse" gradientTransform="matrix(.00267 -.00363 .00032 .00023 75.4 27.8)" x1="-819.2" x2="819.2"><stop offset="0" stop-color="#a35a56" stop-opacity="0"/><stop offset=".475" stop-color="#ffc3bf" stop-opacity=".29"/><stop offset="1" stop-color="#9e5953" stop-opacity="0"/></linearGradient><path d="M73 30.7l4.45-5.95-1.85 3.35-2.6 2.6m1.15-2.4l2.35-3.55-1.45 3.05-.9.5" fill="url(#al)"/><linearGradient id="am" gradientUnits="userSpaceOnUse" gradientTransform="matrix(.00333 -.00452 .00024 .00018 67.8 29.05)" x1="-819.2" x2="819.2"><stop offset="0" stop-color="#a35a56" stop-opacity="0"/><stop offset=".471" stop-color="#ffc3bf" stop-opacity=".541"/><stop offset="1" stop-color="#9e5953" stop-opacity="0"/></linearGradient><path d="M69.55 27.05l-.85 1.2-3.8 4.35 5.6-7.3-.25.6-.25.35-.05.15-.2.35-.2.3m1.25-.45l-4.5 5.3 2.75-4 1.75-1.3" fill="url(#am)"/><linearGradient id="an" gradientUnits="userSpaceOnUse" gradientTransform="matrix(.00195 -.00266 .00024 .00018 64.4 27.55)" x1="-819.2" x2="819.2"><stop offset="0" stop-color="#a35a56" stop-opacity="0"/><stop offset=".471" stop-color="#ffc3bf" stop-opacity=".541"/><stop offset="1" stop-color="#9e5953" stop-opacity="0"/></linearGradient><path d="M65.9 25.3v.15l-1.15 1.9-1.75 2.5-.05-.05q1.7-3.3 2.9-4.45l.05-.05" fill="url(#an)"/><linearGradient id="ao" gradientUnits="userSpaceOnUse" gradientTransform="matrix(.00237 -.0032 .00386 .00284 66.4 28.2)" x1="-819.2" x2="819.2"><stop offset="0" stop-color="#a35a56" stop-opacity="0"/><stop offset=".471" stop-color="#ffc3bf" stop-opacity=".541"/><stop offset="1" stop-color="#9e5953" stop-opacity="0"/></linearGradient><path d="M66.95 28.3L68.7 26q-1.85 3.35-4.35 6.15l1.95-2.9-2.2 2.3q2.5-3.55 4.1-6.8L66.75 28l1.65-2.45-1.45 2.75" fill="url(#ao)"/><linearGradient id="ap" gradientUnits="userSpaceOnUse" gradientTransform="matrix(.00333 -.00452 .00024 .00018 67.25 30.3)" x1="-819.2" x2="819.2"><stop offset="0" stop-color="#a35a56" stop-opacity="0"/><stop offset=".486" stop-color="#ffc3bf" stop-opacity=".412"/><stop offset="1" stop-color="#9e5953" stop-opacity="0"/></linearGradient><path d="M61.05 27.8l.5-1.1.15-.3L63 24l-1.05 2.55q1.1-2.1 2.25-3.3l-1.5 2.95q-1.4 2.5-2.35 5.15l1.3-3.85-1.85 3.85q.45-1.75 1.25-3.5v-.05" fill="url(#ap)"/><linearGradient id="aq" gradientUnits="userSpaceOnUse" gradientTransform="matrix(.00287 -.0039 .00117 .00087 63.8 26.8)" x1="-819.2" x2="819.2"><stop offset="0" stop-color="#a35a56" stop-opacity="0"/><stop offset=".49" stop-color="#ffc3bf" stop-opacity=".282"/><stop offset="1" stop-color="#9e5953" stop-opacity="0"/></linearGradient><path d="M63 27.9l-1.5 2.25.65-1.8.55-1.1q1.2-2.5 2.15-3.7L63.3 26.6l2.3-3.35q-1.2 3.95-3.3 7.55l1.65-5.1-1.15 2.8.2-.6" fill="url(#aq)"/><linearGradient id="ar" gradientUnits="userSpaceOnUse" gradientTransform="matrix(.00237 -.0032 .00386 .00284 65.25 27.55)" x1="-819.2" x2="819.2"><stop offset="0" stop-color="#a35a56" stop-opacity="0"/><stop offset=".471" stop-color="#ffc3bf" stop-opacity=".541"/><stop offset="1" stop-color="#9e5953" stop-opacity="0"/></linearGradient><path d="M62.95 30.9q2.7-3.8 4.3-7.25l-1.65 3.7 1.65-2.45-1.45 2.75 1.75-2.3Q65.7 28.7 63.2 31.5l1.95-2.9-2.2 2.3" fill="url(#ar)"/></g></svg>