<svg xmlns="http://www.w3.org/2000/svg" width="36" height="49"><g transform="translate(-52.8 -17)"><path d="M67.1 20.7l-.95-.8q.6.45 1.25.2l-.05-.8q.15.4.7.45-.15-.55.3-1.1-.2.6.05.95.2-.75.7-1.3-.3.6-.2 1.05.55-.65 1.8-.65-.8.2-.85.6 1.25.5 2.25 1.25l1.4 1.3q-1.9-1.6-3.55-2.2l-.05-.05q-1.3.1-.1 1.05l-1.2-.6.7 1.2-.95-.85.25.7-.65-.75q-.4.35-.15 1.1l-.65-.75h-.05" fill="#170e06"/><path d="M75.2 23.1l-.5-.75-.3-.4q1.6 1.6 3.1 3.8l.05.1-2.35-2.75" fill="#572c21"/><path d="M77.15 60.6h-.7l1.5-.35-.6.2.7-.05-1.05.3h-.55l.7-.1" fill="#734a4e"/><linearGradient id="a" gradientUnits="userSpaceOnUse" gradientTransform="matrix(.00616 .00128 -.00082 .00519 77.4 22.2)" x1="-819.2" x2="819.2"><stop offset="0" stop-color="#64342a"/><stop offset=".62" stop-color="#a0634b"/><stop offset=".988" stop-color="#64372a"/></linearGradient><path d="M78.4 23.15l-.75-.65q-3.05-2.4-6.45-3.25l2.65.45q-.5-.35-1.3-.55 2.15.2 4.6 1.85-1.2-1.25-2.95-2.15 2.35.9 4.55 2.85-2.05-2.55-4.8-3.3l-1.55-.45q1.9.15 3.65.9l.55.3q1.35.95 2.5 2.4l.1.25 1.75 2.9-1.3-1.2 1.9 2.6.3.5-.2-.2-3.25-3.25" fill="url(#a)"/><radialGradient id="b" gradientUnits="userSpaceOnUse" gradientTransform="matrix(.0219 0 .00131 .02567 69.75 19)" spreadMethod="pad" cx="0" cy="0" r="819.2" fx="0" fy="0"><stop offset=".008" stop-color="#552e23"/><stop offset=".62" stop-color="#724232"/><stop offset=".988" stop-color="#4d2b22"/></radialGradient><path d="M81.55 26.1l-1.9-2.6 1.3 1.2.6 1.4m-1.65-.6l1.15.75Q80 24.95 78.6 24.1l-.1-.05-.25-.3-2.35-1.4-.6-.7 3.85 2.5q-3-2.85-6.35-4-1.35-.7-2.5-.9l1.95-.2-1.55-.1 3.05-.05q-1.95-.8-4.2-.55.5-.6 2.4-.7h.15l2.05.15q1.3.5 2.45 1.35l-.55-.3q-1.75-.75-3.65-.9l1.55.45q2.75.75 4.8 3.3-2.2-1.95-4.55-2.85 1.75.9 2.95 2.15-2.45-1.65-4.6-1.85.8.2 1.3.55l-2.65-.45q3.4.85 6.45 3.25l.75.65 3.25 3.25.65 2.05q-.95-1.8-2.4-2.95m2.55 3.5l.2 1.15-1.45-2.45 1.25 1.3m.3 1.75v.75l-2.05-3.55 2.05 2.8m-5.1-5.7l.25.3 2.05 2.55.05.15q1.65 2 2.75 3.9l.05.65-1.9-3.05v-.05l-1.6-1.8-1.65-2.65M79.6 29l.4.4q1.65 1.65 2.8 3.35 0 2.5-.35 4.65l-.7.05h-.05v.35l-.05-.3v-.2l-.05-.15-.1-.4-.1-1.55.2.9-.2-2.15.85 1-1.6-3.85 1.95 3.3q-.65-2.5-2.55-4.85L79.6 29m-2.05-3.15l.4.65 1.1 1.95 1.35 3.65.65 2.5-.25-.85-.55-1.45q-1.05-2.75-2.75-5.1l-.15-.3-1.15-1.5-1.25-1.65-.4-.55-.1-.1-.6-.7q1.65 1.3 3 3.4l-.35-.8-1.3-1.9 2.35 2.75m.55-1.45l2.05 2.1q-1.05-.95-2.2-1.75l-1.3-.85-.15-.1h.05l-.85-.8-1-1.25 3.15 2.7-1.9-2 2.15 1.95" fill="url(#b)"/><linearGradient id="c" gradientUnits="userSpaceOnUse" gradientTransform="matrix(.0046 .00359 -.00296 .0039 79.15 30.2)" x1="-819.2" x2="819.2"><stop offset="0" stop-color="#6a3a2e"/><stop offset=".486" stop-color="#966554"/><stop offset=".988" stop-color="#64372a"/></linearGradient><path d="M80 29.4l-.3-.8-.4-.9 1.6 1.8v.05l1.9 3.05v.15q-1.15-1.7-2.8-3.35m.05.15q1.9 2.35 2.55 4.85l-1.95-3.3 1.6 3.85-.85-1 .2 2.15-.2-.9q-.35-3.1-1.35-5.65" fill="url(#c)"/><linearGradient id="d" gradientUnits="userSpaceOnUse" gradientTransform="matrix(.00536 .00197 -.00192 .00592 79.25 26.8)" x1="-819.2" x2="819.2"><stop offset="0" stop-color="#6a3a2e"/><stop offset=".486" stop-color="#966554"/><stop offset=".988" stop-color="#64372a"/></linearGradient><path d="M80.7 27.95l2.05 3.55v.45q-1.1-1.9-2.75-3.9l-.05-.15-2.05-2.55-.25-.3-1.15-1.25.15.1 1.3.85q1.15.8 2.2 1.75l-2.05-2.1-2.15-1.95-.1-.1h.05l2.35 1.4.25.3.1.05q1.4.85 2.45 2.15l-1.15-.75q1.45 1.15 2.4 2.95l.15.55-1.25-1.3 1.45 2.45.1.6-2.05-2.8" fill="url(#d)"/><linearGradient id="e" gradientUnits="userSpaceOnUse" gradientTransform="matrix(.00548 .01152 -.00214 .00093 76.75 30.75)" x1="-819.2" x2="819.2"><stop offset="0" stop-color="#693526"/><stop offset=".478" stop-color="#915442"/><stop offset="1" stop-color="#6a3a2b"/></linearGradient><path d="M81.3 39.5l-.3-1.45v-.15q-1-4.35-2.55-7.2l2.05 6.4v.25l.45 2.15h-.4l-.05-.3-.1-.25q-1-4.35-2.05-7.05 1.25 4.2 1.9 7.6h-.4q-.5-3.05-1.2-5.05l-.1-.3q-.55-2.2-1.5-4.35L76 27.5v-.1l-2.95-4.55 1.55 1.9-1.35-2.4 2.5 3.35-.8-1.65 1.8 2.45v.05l1.6 3.5-.85-2.85q1.7 2.35 2.75 5.1l.55 1.45.25.85.35 1.7.1.45.1.4.05.15v.2l-.1.1.05 1.9h-.3" fill="url(#e)"/><linearGradient id="f" gradientUnits="userSpaceOnUse" gradientTransform="matrix(.00723 -.01497 .01617 .0084 80.25 51.8)" x1="-819.2" x2="819.2"><stop offset="0" stop-color="#76341a"/><stop offset=".475" stop-color="#89492e"/><stop offset="1" stop-color="#552a1a"/></linearGradient><path d="M80.25 39.5q-.65-3.4-1.9-7.6 1.05 2.7 2.05 7.05l.1.25.05.3h-.3m.7 0l-.45-2.15v-.25l-2.05-6.4Q80 33.55 81 37.9v.15l.3 1.45h-.35" fill="url(#f)"/><linearGradient id="g" gradientUnits="userSpaceOnUse" gradientTransform="matrix(.00351 .01152 -.00229 .00093 78.2 30.75)" x1="-819.2" x2="819.2"><stop offset="0" stop-color="#693526"/><stop offset=".478" stop-color="#915442"/><stop offset="1" stop-color="#6a3a2b"/></linearGradient><path d="M81.25 43.65l.05-.65v-.2l-.05-3.3h.35q0 2.9-.4 5.9l.05-1.75m-1.75 1.6l.15-1.6.05-.85.1-3.3h.4l.05 2.5v.3l-.1.5-.1.85-.8 5.25.15-2.75.1-.9m1.35-2.45l-.1.85-.5 4.75-.05.15q-1.1 4.25-2.65 7.4 1.2-3.05 2.1-6.9l.05-.15.6-5.25.1-.85.1-3.3h.4l-.05 3.3" fill="url(#g)"/><linearGradient id="h" gradientUnits="userSpaceOnUse" gradientTransform="matrix(.0098 -.01497 .01474 .0084 78.1 51.8)" x1="-819.2" x2="819.2"><stop offset="0" stop-color="#76341a"/><stop offset=".475" stop-color="#89492e"/><stop offset="1" stop-color="#552a1a"/></linearGradient><path d="M81.25 39.5l.05 3.3v.2l-.05.65-.05 1.75v.1l-.05.25-.7 3.5h.05l-.4 1.65-.1-.2-.1.45-.1.35-1.65 4.35-.1.3-.8 1.7-.2.4-.9 1.75q.15-.95.8-2.05l-.1.05q-.8 1.15-1.15 2l.7-2.7 1.5-3.85q-2.7 2.9-3.35 4.4l-.05.05q-.55.95-.35 1.35-.35-.15-.35-.7v-.1l.2-.6.05-.15q.4-1.2 1.65-2.85l.75-.95.1-.1.6-1 .05-.1 1-2.05.05-.1v-.05l.15-.25q.75-1.9 1-4.1l-.15 2.75.8-5.25.1-.85.1-.5V42l-.05-2.5h.3l-.1 3.3-.1.85-.6 5.25-.05.15q-.9 3.85-2.1 6.9 1.55-3.15 2.65-7.4l.05-.15.5-4.75.1-.85.05-3.3h.35" fill="url(#h)"/><linearGradient id="i" gradientUnits="userSpaceOnUse" gradientTransform="matrix(.0014 0 -.00034 .0028 85.3 53.7)" x1="-819.2" x2="819.2"><stop offset=".024" stop-color="#6d3d2e"/><stop offset="1" stop-color="#ab9285"/></linearGradient><path d="M83.95 55.75L85.2 55l.4-.45q.65-1.1 1.15-3.15l-.3 1.75-.55 1.5-.05.1-.25.4-.7.5-.7.3-.25-.2" fill="url(#i)"/><linearGradient id="j" gradientUnits="userSpaceOnUse" gradientTransform="matrix(.00252 .0021 -.00356 .00406 82.2 54.9)" x1="-819.2" x2="819.2"><stop offset="0" stop-color="#935f4e"/><stop offset="1" stop-color="#643526"/></linearGradient><path d="M79.9 51.15l.1-.45.1.2q.45 1.35 1.5 2.55l1.5 1.45.05.05q.45.3.7.65l.1.15.25.2.25.3-.05.1.3.5v1l-.15.7-.2.55.05-.5-.05-.75v-.4L84.2 57l-.1-.25-.25-.55-.15-.1-.25-.25-2.2-2.2-1.25-1.8-.2-.35.1-.35" fill="url(#j)"/><linearGradient id="k" gradientUnits="userSpaceOnUse" gradientTransform="matrix(.00316 0 -.00055 .00452 80.7 55.15)" x1="-819.2" x2="819.2"><stop offset="0" stop-color="#8c4a35"/><stop offset="1" stop-color="#6d3724"/></linearGradient><path d="M83.7 56.1l.15.1-.95-.1-.2-.15.1.2q.45.5 1.1.7-.75-.2-1.2-.65l-.55-.4.5.05q-.75-.45-1.15-1.1l.85 1.65.65.95-1.05-1 .55 1.5-.8-1q-1-1.1-1.75-2.45l-.3-.6.25.75 1.45 2.5.45.8.05.05-.1-.05-.65-.7q-.9-.9-1.6-2.3l.55 1.65-1.25-1.35v.1q.7 1.4 1.85 2.2l.45.4.45.2.05.1.6.7-.95-.4v-.1l-.8-.5-.1-.15q-1.05-.85-2.3-1.55l.1-.3 1.65-4.35.2.35 1.1 1.9.05.15.05.1q1 1.4 2.25 1.85l.25.25m-2.75-.5l-.15-.65q.45.8 1.05 1.25l-1.4-2.5.7.55L79.8 52l.4 1.65-.55-.6.5 1.25.8 1.3m-1.85-1.95l.5 1.05.95 1.55-.5-1.25-.95-1.35m.5 3.05l-1.05-1.25.5.95-.7-.3 2.05 1.55.7.4-1.45-1.25-.05-.1" fill="url(#k)"/><linearGradient id="l" gradientUnits="userSpaceOnUse" gradientTransform="matrix(.00288 .00197 -.00293 .00385 81.55 57.4)" x1="-819.2" x2="819.2"><stop offset="0" stop-color="#723a26"/><stop offset=".553" stop-color="#431f13"/><stop offset="1" stop-color="#542c2a"/></linearGradient><path d="M84.35 59.1l-.15.25v-.55l-.45-.9-.15-.05.05.1.2.95-.05.3-.1-.25q-.3-.4-.6-.5l.25.7-.05.2q-.45 1-1.45 1.85l1.05-1.4-.05-.35-.35-.65-.1-.1-.55-.4v-.05l-.25-.1-.05-.1-.45-.2-.45-.4q-1.15-.8-1.85-2.2v-.1l1.25 1.35-.55-1.65q.7 1.4 1.6 2.3l.65.7.1.05-.05-.05-.45-.8-1.45-2.5-.25-.75.3.6q.75 1.35 1.75 2.45l.8 1-.55-1.5 1.05 1-.65-.95-.85-1.65q.4.65 1.15 1.1l-.5-.05.55.4q.45.45 1.2.65l.1.1h.1l.1.05.15.45v.4l.05.75-.05.5" fill="url(#l)"/><linearGradient id="m" gradientUnits="userSpaceOnUse" gradientTransform="matrix(.00142 .00165 -.00204 .00179 80.8 54.1)" x1="-819.2" x2="819.2"><stop offset="0" stop-color="#97553c"/><stop offset=".522" stop-color="#975b46"/><stop offset="1" stop-color="#814432"/></linearGradient><path d="M84.4 56.35l.05-.1h.05l.9-.05q.85-.15 1.9-.95v.05q-.45.6-1.45 1.1-.25.1-.55.3l-.6.15-.3-.5m-.3.4l.1.25-.1-.05H84l-.1-.1q-.65-.2-1.1-.7l-.1-.2.2.15.95.1.25.55m-3.95-2.45l-.5-1.25.55.6-.4-1.65 1.35 2.25-.7-.55 1.4 2.5q-.6-.45-1.05-1.25l.15.65-.8-1.3" fill="url(#m)"/><linearGradient id="n" gradientUnits="userSpaceOnUse" gradientTransform="matrix(.00417 0 -.00043 .00359 80.65 60.8)" x1="-819.2" x2="819.2"><stop offset="0" stop-color="#68392d"/><stop offset=".553" stop-color="#754237"/><stop offset="1" stop-color="#653d3c"/></linearGradient><path d="M78.85 63.6l.9-.85-.9.55-1.2.35-.65.05h-.15l.4-.1q1.05-.4 2.25-1.2l.8-.65.35-.2q1.7-1.1 1.75-1.8l-.15-.55-.15-.1-.85-.65.95.4-.6-.7.25.1v.05l.55.4.1.1.35.65.05.35-1.05 1.4q1-.85 1.45-1.85l.05-.2-.25-.7q.3.1.6.5l.1.25.05-.3-.2-.95-.05-.1.15.05.45.9v.55q-.75 1.25-2.5 2.8l-.15.05q-1.55 1.2-2.7 1.4m4.6-3.6l-2.9 2.25 1.6-1.7-3.7 2.75q.3-.2.65-.3l1.4-.55-1.15.9L81 62.4q1.5-1.05 2.45-2.4" fill="url(#n)"/><linearGradient id="o" gradientUnits="userSpaceOnUse" gradientTransform="matrix(.00107 0 -.00018 .00165 79.85 54.95)" x1="-819.2" x2="819.2"><stop offset="0" stop-color="#97553c"/><stop offset=".522" stop-color="#975b46"/><stop offset="1" stop-color="#814432"/></linearGradient><path d="M80.05 55l.5 1.25-.95-1.55-.5-1.05.95 1.35" fill="url(#o)"/><linearGradient id="p" gradientUnits="userSpaceOnUse" gradientTransform="matrix(.00183 0 -.00018 .00165 79.7 56.75)" x1="-819.2" x2="819.2"><stop offset="0" stop-color="#97553c"/><stop offset=".522" stop-color="#975b46"/><stop offset="1" stop-color="#814432"/></linearGradient><path d="M79.65 56.8l1.45 1.25-.7-.4-2.05-1.55.7.3-.5-.95 1.05 1.25.05.1" fill="url(#p)"/><linearGradient id="q" gradientUnits="userSpaceOnUse" gradientTransform="matrix(.00206 .0036 -.00409 .0026 78.85 59.9)" x1="-819.2" x2="819.2"><stop offset="0" stop-color="#652e1e"/><stop offset=".541" stop-color="#4e2417"/><stop offset="1" stop-color="#5b2e2a"/></linearGradient><path d="M77.05 58.25l.2-.4.8-1.7q1.25.7 2.3 1.55l.1.15.8.5v.1l.85.65.15.1.15.55q-.05.7-1.75 1.8l-.35.2-.8.65q-1.2.8-2.25 1.2l-.4.1-.95-.05-1.15-.2 1.5-.05 1.25-.25.05-.05h-.05l.75-.3 1.65-1.05h.05l.05-.1 1.2-1.1.1-.5-.1-.3-.1-.2q-.5-.85-1.2-1.55l-.35-.15-.2-.2.15.2.25.2q.8 1.05.7 1.85l-1.05-1.6-.45-.45-.85-.75.55.75.5.65.4 1.05-.7-.85q-.65-.5-1.3-.85l1 1.05.95 1.75-1.25-.9-.15-.55q-.25-.6-1.05-.95" fill="url(#q)"/><linearGradient id="r" gradientUnits="userSpaceOnUse" gradientTransform="matrix(.00102 .00317 -.00352 .00151 78.65 60.4)" x1="-819.2" x2="819.2"><stop offset="0" stop-color="#58281a"/><stop offset=".522" stop-color="#3d170e"/><stop offset="1" stop-color="#562a23"/></linearGradient><path d="M78 60q.05-.1.2-.1l.05-.05v-.1l1.25.9-.95-1.75-1-1.05q.65.35 1.3.85l.7.85-.4-1.05-.5-.65-.55-.75.85.75.45.45 1.05 1.6q.1-.8-.7-1.85l-.25-.2-.15-.2.2.2.35.15q.7.7 1.2 1.55l.1.2.1.3-.1.5-1.2 1.1-.05.1h-.05l-1.65 1.05-.75.3-.9.05-1.3-.15 1.65-.2.75-.2.25-.1q1.6-.75 1.45-1.25l-.1-.2q-.35-1-1.3-1.05" fill="url(#r)"/><linearGradient id="s" gradientUnits="userSpaceOnUse" gradientTransform="matrix(.00252 -.00163 .001 .00166 80.95 61.6)" x1="-819.2" x2="819.2"><stop offset="0" stop-color="#713f34"/><stop offset=".384" stop-color="#91584d"/><stop offset="1" stop-color="#6c3f39"/></linearGradient><path d="M81 62.4l-1.65.95 1.15-.9-1.4.55q-.35.1-.65.3l3.7-2.75-1.6 1.7 2.9-2.25q-.95 1.35-2.45 2.4" fill="url(#s)"/><linearGradient id="t" gradientUnits="userSpaceOnUse" gradientTransform="matrix(.00342 0 -.00027 .00221 78.5 64)" x1="-819.2" x2="819.2"><stop offset="0" stop-color="#49231a"/><stop offset="1" stop-color="#734136"/></linearGradient><path d="M81.55 62.2l-2.6 2.35-1.55.9-.95.35 1.3-.65-1.3.05 1.65-.8.75-.65-1.15.25-1.15.1-.85-.1 1.95-.35 1.2-.35.9-.55-.9.85q1.15-.2 2.7-1.4" fill="url(#t)"/><radialGradient id="u" gradientUnits="userSpaceOnUse" gradientTransform="matrix(.00972 0 .0005 .00972 67.7 20.2)" spreadMethod="pad" cx="0" cy="0" r="819.2" fx="0" fy="0"><stop offset="0" stop-color="#31150c"/><stop offset=".988" stop-color="#834f37"/></radialGradient><path d="M58.55 27.2h-.05q.5-3.05 2.2-5l.3-.55q1.1-2 3.05-2.2l.05.1.05-.1.05-.1.1-.1.15-.25q.5-.7 1.55-.75.85-.85 2.1-.75h.1l2.8-.35.9.05 2.25.6-2.05-.15q-2.95-.45-4.75 1.25.25-.7.9-1.25-1.15.55-1.6 1.6 0-.7.55-1.3-1.1.55-1.1 1.65-.5-.55-1.15-.55l.9.85q-.65-.3-1.35 0l-.35.2.35-.05q.55-.1.8.3l-.75.15-.15.05-1.3.45q-1 .45-1.65 1l-.05.1-.15.15q-.7.7-.95 1.6-1.1 1.4-1.75 3.35m3.7-5.2v-.05q.45-.35 1-.6l-.1.1-.05.05-.1.05-.75.45" fill="url(#u)"/><radialGradient id="v" gradientUnits="userSpaceOnUse" gradientTransform="matrix(.01173 0 .0006 .01173 68.85 20.7)" spreadMethod="pad" cx="0" cy="0" r="819.2" fx="0" fy="0"><stop offset=".008" stop-color="#2a1b13"/><stop offset=".988" stop-color="#502e22"/></radialGradient><path d="M71.95 17.65q-1.9.1-2.4.7 2.25-.25 4.2.55l-3.05.05 1.55.1-1.95.2q1.15.2 2.5.9 3.35 1.15 6.35 4l-3.85-2.5.6.7h-.05l.1.1 1.9 2-3.15-2.7 1 1.25-1.3-1.05.3.4.5.75 1.3 1.9.35.8q-1.35-2.1-3-3.4l.6.7-2.4-1.85q-1.65-1.4-2.4-1.1l.6 1.5-1-1 1.85 4-1.85-3.05.9 2.7Q69 21.6 68 20.75q-.2.95.2 2.1l-.85-1.6q.15 1.9.65 3.6-.7-1.45-1-2.9-.35 1.45-.3 2.9-.35-1.95.1-3.45-.85.85-1.2 2.05.05-.95.65-1.9-1.1.95-1.55 2-.35.85-.25 1.8l.45 2.3q.5 1.65 1.3 3.15l.05.05.7 1.15q-1.2-1.25-2-2.85-.7-1.6-1.05-3.45l-.05-.2-.05-.3v-.1q.2-1.25.85-2.2.85-1.25 2.5-2.2l.65.75q-.25-.75.15-1.1l.65.75-.25-.7.95.85-.7-1.2 1.2.6q-1.2-.95.1-1.05l.05.05q1.65.6 3.55 2.2l-1.4-1.3q-1-.75-2.25-1.25.05-.4.85-.6-1.25 0-1.8.65-.1-.45.2-1.05-.5.55-.7 1.3-.25-.35-.05-.95-.45.55-.3 1.1-.55-.05-.7-.45l.05.8q-.65.25-1.25-.2l.95.8-.7-.05-1.85.3-.5.15-.9.35.1-.1q-.55.25-1 .6l-.1.1q-1.05.75-1.85 1.8.25-.9.95-1.6l.15-.15.05-.1q.65-.55 1.65-1l1.3-.45.15-.05.75-.15q-.25-.4-.8-.3l-.35.05.35-.2q.7-.3 1.35 0l-.9-.85q.65 0 1.15.55 0-1.1 1.1-1.65-.55.6-.55 1.3.45-1.05 1.6-1.6-.65.55-.9 1.25 1.8-1.7 4.75-1.25h-.15" fill="url(#v)"/><linearGradient id="w" gradientUnits="userSpaceOnUse" gradientTransform="matrix(.00616 -.01292 .02257 .0116 59 32.2)" x1="-819.2" x2="819.2"><stop offset="0" stop-color="#703722"/><stop offset=".486" stop-color="#87523c"/><stop offset=".988" stop-color="#74493b"/></linearGradient><path d="M61.45 43.85q-1.6-5.1-.9-10.7.25-1.35.65-2.6.95-2.95 2.6-5.35l.05.3.05.2q-3.6 6.65-3.1 12.8l.15 1.75.15 1.1.15.95.4 2-.2-.45m-1.15-20q.8-1.05 1.85-1.8l.1-.05.75-.45.05.05q-1.75 2.05-2.95 4.45 1.8-2.9 4.4-4.9-1.45 1.2-2.4 2.6 1.1-1.2 2.5-2.15l.7-.45-.7.6q-2.45 2.2-3.75 4.95.55-1 1.35-1.75l.4-.3.55-.5q-1.55 2.05-2.35 4.4.85-1.75 2.1-3.25-2.05 3.6-2.95 7.65l-.05.2.05.1q-.65 3.45-.5 7.05v.1H59l-.1-1.15-.15-.85q-.05-2.9.3-5.2l.15 2.5.3-2.45q.55-2.6 1.75-5.15l-1.15 1.95 1.05-3.6q-1.65 3.15-2.1 6.4.4-3.7 1.65-6.35l-1.9 4.35q.45-2.75 2.2-5.6l.65-1.05L59.6 27q.6-1.75 1.4-2.9l-.75 1Q58.5 28.05 58 31.4l-.05.35q-.3 2.65-.15 5.65.15-3.05.9-6.15l-.4 4.2v2.6l.15 2.35h-.5v-.05l-.05-.75-.35-2.4-.15-2.55q-.15-3.8.8-6.6l.05-.15.3-.7q.65-1.95 1.75-3.35" fill="url(#w)"/><linearGradient id="x" gradientUnits="userSpaceOnUse" gradientTransform="matrix(.00404 0 .00018 .00366 63.25 23.65)" x1="-819.2" x2="819.2"><stop offset=".02" stop-color="#663c2b"/><stop offset=".973" stop-color="#402d26"/></linearGradient><path d="M63.15 21.45l.9-.35.5-.15 1.85-.3-1.8 1.55q-1.05 1.05-2 2.45l-.4.3q-.8.75-1.35 1.75 1.3-2.75 3.75-4.95l.7-.6-.7.45q-1.4.95-2.5 2.15.95-1.4 2.4-2.6-2.6 2-4.4 4.9 1.2-2.4 2.95-4.45l.1-.15" fill="url(#x)"/><linearGradient id="y" gradientUnits="userSpaceOnUse" gradientTransform="matrix(.00511 .01726 -.01904 .00473 73.3 34)" x1="-819.2" x2="819.2"><stop offset="0" stop-color="#382014"/><stop offset=".459" stop-color="#703c24"/><stop offset=".918" stop-color="#3f2316"/><stop offset="1" stop-color="#59301d"/></linearGradient><path d="M74.9 37.3l-3.45-5.05q.8 1.8 2.35 4.15-2-.8-3.4-2.1l.55.7q-2.2-1.15-3.7-2.75l-.3-.25-.7-1.15-.05-.05q-.8-1.5-1.3-3.15l-.45-2.3q-.1-.95.25-1.8.45-1.05 1.55-2-.6.95-.65 1.9.35-1.2 1.2-2.05-.45 1.5-.1 3.45-.05-1.45.3-2.9.3 1.45 1 2.9-.5-1.7-.65-3.6l.85 1.6q-.4-1.15-.2-2.1 1 .85 2.15 3.55l-.9-2.7 1.85 3.05-1.85-4 1 1-.6-1.5q.75-.3 2.4 1.1l2.4 1.85.1.1.4.55 1.25 1.65.55 1.1-1.8-2.45.8 1.65-2.5-3.35 1.35 2.4-1.55-1.9L76 27.4v.1l1.05 2.3q.95 2.15 1.5 4.35l.1.3q.7 2 1.2 5.05h-.7l-.35-.65.6.25-1.05-1.65-.05-.05.85.55Q77.95 36.4 77 34.3l-.1-.25Q75.75 30.45 74 27l-.2-.4q-1.9-3.6-3.65-5.8 2.9 5.5 3.55 7.9-1.2-2.75-2.35-4.25l2.05 5.25-3.15-6.15 2.45 6.5-3.9-8.1 2.4 6.1L68.15 22l2.35 5.95-2.1-4.3q1.5 4.6 4 9.5l.15.2.1.15q1.4 2.95 3.35 4.7l-.9-.7-.2-.2m-2.95-15.65l1.05.85-1.05-1.2q-1.15-.9-1.85-.95l2.25 1.95-.4-.65m3.35 5.05q-1.55-2.5-3.3-4.5l2.1 3.4-2.1-3q2.25 3.6 3.7 7l2.2 5.9-.55-2.7 1.4 4.05q-.7-3.3-1.75-6.15L75.35 27l-.05-.3m-7 4.3q1.65 2.75 3.55 4.05-1.75-2.55-2.4-4.4 1.55 2.4 3.15 4.2-1.55-2.1-2.15-4.15l.95.95q-1.8-3.55-3.2-7.25.45 2.3 1.25 4.3l-1.9-4.1q.45 2.15 1.55 4-1.4-1.8-2.15-3.9.5 3.05 1.95 6.05-2.05-3.05-2.7-6.9 0 2.85 1.35 6.05-1.25-1.85-2.15-5.7-.25 2.9 1.4 6.45 1.55 2.25 3.15 3.4-1-1.4-1.65-3.05" fill="url(#y)"/><linearGradient id="z" gradientUnits="userSpaceOnUse" gradientTransform="matrix(.01027 -.01077 .01477 .01411 63.6 37)" x1="-819.2" x2="819.2"><stop offset=".004" stop-color="#592817"/><stop offset=".557" stop-color="#7e3f29"/><stop offset=".957" stop-color="#27140d"/></linearGradient><path d="M67.15 20.7q-1.65.95-2.5 2.2-.65.95-.85 2.2v.1q-1.65 2.4-2.6 5.35-.4 1.25-.65 2.6-.3 1.35-.45 2.9l-.1 1.3q-.1 1.5-.05 3.05h-.5v-.1q-.15-3.6.5-7.05l-.05-.1.05-.2q.9-4.05 2.95-7.65-1.25 1.5-2.1 3.25.8-2.35 2.35-4.4l-.55.5q.95-1.4 2-2.45l1.8-1.55.7.05h.05" fill="url(#z)"/><linearGradient id="A" gradientUnits="userSpaceOnUse" gradientTransform="matrix(.00168 0 .00006 .0013 71.55 21.4)" x1="-819.2" x2="819.2"><stop offset="0" stop-color="#3a2114"/><stop offset=".475" stop-color="#613c2f"/><stop offset="1" stop-color="#452617"/></linearGradient><path d="M72.35 22.3l-2.25-1.95q.7.05 1.85.95L73 22.5l-1.05-.85.4.65" fill="url(#A)"/><linearGradient id="B" gradientUnits="userSpaceOnUse" gradientTransform="matrix(.0048 .00797 -.00906 .00514 73.95 29.85)" x1="-819.2" x2="819.2"><stop offset="0" stop-color="#472818"/><stop offset=".475" stop-color="#9e5b48"/><stop offset="1" stop-color="#552a1a"/></linearGradient><path d="M74.5 29.7q.95 4.1 2.7 7.6-1.75-2.6-3.2-5.65 1.1 3.2 2.4 5.65-2.2-2.35-3.75-6.05Q74 35.5 76.2 38.3l-.05-.05-.15-.05q-1.95-1.75-3.35-4.7l-.1-.15-.15-.2q-2.5-4.9-4-9.5l2.1 4.3L68.15 22l3.05 6.05-2.4-6.1 3.9 8.1-2.45-6.5 3.15 6.15-2.05-5.25q1.15 1.5 2.35 4.25-.65-2.4-3.55-7.9 1.75 2.2 3.65 5.8l.2.4q1.75 3.45 2.9 7.05l.1.25q.95 2.1 2.15 3.65l-.85-.55q-2.4-3.35-3.8-7.7m3.15-4.65l1.65 2.65.4.9.3.8-.4-.4.45.55q1 2.55 1.35 5.65l.1 1.55-.1-.45-.35-1.7-.65-2.5-1.35-3.65-1.1-1.95-.4-.65-.05-.1q-1.5-2.2-3.1-3.8L75.7 23l.85.8h-.05l1.15 1.25" fill="url(#B)"/><linearGradient id="C" gradientUnits="userSpaceOnUse" gradientTransform="matrix(.00365 .00856 -.00627 .0024 69.8 31.05)" x1="-819.2" x2="819.2"><stop offset="0" stop-color="#472818"/><stop offset=".49" stop-color="#874b3b"/><stop offset="1" stop-color="#5a321e"/></linearGradient><path d="M69.95 34.05q-1.6-1.15-3.15-3.4-1.65-3.55-1.4-6.45.9 3.85 2.15 5.7-1.35-3.2-1.35-6.05.65 3.85 2.7 6.9-1.45-3-1.95-6.05.75 2.1 2.15 3.9-1.1-1.85-1.55-4l1.9 4.1q-.8-2-1.25-4.3 1.4 3.7 3.2 7.25l-.95-.95q.6 2.05 2.15 4.15-1.6-1.8-3.15-4.2.65 1.85 2.4 4.4-1.9-1.3-3.55-4.05.65 1.65 1.65 3.05" fill="url(#C)"/><linearGradient id="D" gradientUnits="userSpaceOnUse" gradientTransform="matrix(.00438 .00922 -.00214 .00093 76 29.5)" x1="-819.2" x2="819.2"><stop offset="0" stop-color="#472818"/><stop offset=".475" stop-color="#9c5947"/><stop offset="1" stop-color="#552a1a"/></linearGradient><path d="M75.35 27L77 30.7q1.05 2.85 1.75 6.15l-1.4-4.05.55 2.7-2.2-5.9q-1.45-3.4-3.7-7l2.1 3-2.1-3.4q1.75 2 3.3 4.5l.05.3" fill="url(#D)"/><linearGradient id="E" gradientUnits="userSpaceOnUse" gradientTransform="matrix(.00404 -.00595 .00984 .00691 59.7 31.1)" x1="-819.2" x2="819.2"><stop offset="0" stop-color="#8d533f"/><stop offset=".486" stop-color="#9f6450"/><stop offset=".988" stop-color="#824e38"/></linearGradient><path d="M58.85 40.4h-.25l-.3-4.95.4-4.2q-.75 3.1-.9 6.15-.15-3 .15-5.65l.05-.35q.5-3.35 2.25-6.3l.75-1q-.8 1.15-1.4 2.9l2.05-2.8-.65 1.05q-1.75 2.85-2.2 5.6l1.9-4.35q-1.25 2.65-1.65 6.35.45-3.25 2.1-6.4l-1.05 3.6 1.15-1.95q-1.2 2.55-1.75 5.15l-.3 2.45-.15-2.5q-.35 2.3-.3 5.2l.15.85-.05 1.15" fill="url(#E)"/><linearGradient id="F" gradientUnits="userSpaceOnUse" gradientTransform="matrix(.00308 .00096 -.00217 .00826 58.85 43.45)" x1="-819.2" x2="819.2"><stop offset="0" stop-color="#6f3321"/><stop offset=".957" stop-color="#874d34"/></linearGradient><path d="M58.85 40.4l.05-1.15.1 1.15h-.15m-.25 0h-.15l-.15-2.35v-2.6l.3 4.95" fill="url(#F)"/><linearGradient id="G" gradientUnits="userSpaceOnUse" gradientTransform="matrix(.00404 .0137 -.01904 .00473 72.35 31.55)" x1="-819.2" x2="819.2"><stop offset="0" stop-color="#382014"/><stop offset=".459" stop-color="#703c24"/><stop offset="1" stop-color="#3f2316"/></linearGradient><path d="M76.2 25.4l1.15 1.5.15.3.85 2.85-1.6-3.5v-.05l-.55-1.1" fill="url(#G)"/><linearGradient id="H" gradientUnits="userSpaceOnUse" gradientTransform="matrix(.00394 .00432 -.0046 .00414 77.15 36.4)" x1="-819.2" x2="819.2"><stop offset=".024" stop-color="#663822"/><stop offset=".537" stop-color="#471f13"/><stop offset="1" stop-color="#65392b"/></linearGradient><path d="M78.3 37.4l.05.05 1.05 1.65-.6-.25.35.65h-.65q-1.25-.6-2.3-1.55l.5.65-.5-.3q-2.2-2.8-3.55-7.05 1.55 3.7 3.75 6.05-1.3-2.45-2.4-5.65 1.45 3.05 3.2 5.65-1.75-3.5-2.7-7.6 1.4 4.35 3.8 7.7" fill="url(#H)"/><linearGradient id="I" gradientUnits="userSpaceOnUse" gradientTransform="matrix(.00183 .004 -.0028 .00117 73.1 34.85)" x1="-819.2" x2="819.2"><stop offset="0" stop-color="#6c3a22"/><stop offset=".98" stop-color="#39170c"/></linearGradient><path d="M71.45 32.25l3.45 5.05-.9-.85-.2-.05q-1.55-2.35-2.35-4.15" fill="url(#I)"/><linearGradient id="J" gradientUnits="userSpaceOnUse" gradientTransform="matrix(.00215 .01726 -.01985 .00473 74.2 34)" x1="-819.2" x2="819.2"><stop offset="0" stop-color="#382014"/><stop offset=".459" stop-color="#703c24"/><stop offset=".918" stop-color="#3f2316"/><stop offset="1" stop-color="#59301d"/></linearGradient><path d="M74.5 57.9q-.4 1 .05 1.3l1.05.3-.05.3-1-.05-.55-.4h-.15l-.05-.8q0 .55.35.7-.2-.4.35-1.35m1.2-3.05q-1.25 1.65-1.65 2.85l-.05-.25q.25-1.8 3-5l-1.3 2.4m-1.65.1l.7-2.15 1.8-1q-1.4 1.25-2.5 3.15m5-8.8l-1.6 3.35-.65.95.55-1.05q.95-1.95 1.45-4.2l-1.6 3.75-.45.9-.5.65-.65.9.5-.15.35-.2-1.65 1.55q.3-.9 1-1.85l.25-.4.55-.85.4-.7 1.1-2.4.1-.15.55-2.6.1-.85q.1-1.55-.3-3 .45.35.9.3l-.35-.6h.7l-.1 3.3-.05.85-.15 1.6-.1.9q-.25 2.2-1 4.1.6-2.1.65-4.1" fill="url(#J)"/><linearGradient id="K" gradientUnits="userSpaceOnUse" gradientTransform="matrix(.0032 .00432 -.0053 .00414 77.65 36.4)" x1="-819.2" x2="819.2"><stop offset=".024" stop-color="#663822"/><stop offset=".537" stop-color="#471f13"/><stop offset="1" stop-color="#65392b"/></linearGradient><path d="M78.55 39.8v-.25l-.1-.05h.65l.35.6q-.45.05-.9-.3" fill="url(#K)"/><linearGradient id="L" gradientUnits="userSpaceOnUse" gradientTransform="matrix(.00298 -.00557 .0066 .00287 76.55 51.35)" x1="-819.2" x2="819.2"><stop offset="0" stop-color="#5e3621"/><stop offset=".478" stop-color="#733928"/><stop offset="1" stop-color="#5e311b"/></linearGradient><path d="M76.55 51.8l-1.8 1 .05-.2 1.65-1.55-.35.2-.5.15.65-.9.5-.65.45-.9 1.6-3.75q-.5 2.25-1.45 4.2l-.55 1.05.65-.95 1.6-3.35q-.05 2-.65 4.1l-.15.25v.05l-.05.1-1 2.05-.05.1-.6 1-.1.1-.75.95 1.3-2.4q-2.75 3.2-3 5-.2-1.1.05-2.3v-.2q1.1-1.9 2.5-3.15m.35-.85l-.25.15-.45.6 1.3-.9-2.55 3.45 1.9-2.05.25-.3.6-.95-.4 1.2.9-1.75.35-1.55-.55.9.5-1.75-.9 1.75-.6 1-.1.2" fill="url(#L)"/><linearGradient id="M" gradientUnits="userSpaceOnUse" gradientTransform="matrix(.00148 -.00212 .00304 .00188 77 50.6)" x1="-819.2" x2="819.2"><stop offset="0" stop-color="#6e3625"/><stop offset=".478" stop-color="#91503b"/><stop offset="1" stop-color="#743e29"/></linearGradient><path d="M77 50.75l.6-1 .9-1.75-.5 1.75.55-.9-.35 1.55-.9 1.75.4-1.2-.6.95-.25.3-1.9 2.05 2.55-3.45-1.3.9.45-.6.25-.15.1-.2" fill="url(#M)"/><linearGradient id="N" gradientUnits="userSpaceOnUse" gradientTransform="matrix(-.00131 .00163 -.00122 -.00093 76.3 59.45)" x1="-819.2" x2="819.2"><stop offset="0" stop-color="#814025"/><stop offset="1" stop-color="#481c15"/></linearGradient><path d="M76.75 60.95l-.4.1h-.25l-.5-.05h-.05l-.1-.3q-.25-.15-.2-.55l.3-.35.05-.3.8-2.2-.7 2.7q.35-.85 1.15-2l.1-.05q-.65 1.1-.8 2.05l-.1.25-.05.2.15.2.1.15.5.15" fill="url(#N)"/><linearGradient id="O" gradientUnits="userSpaceOnUse" gradientTransform="matrix(.00204 0 -.00008 .00064 77.65 60.45)" x1="-819.2" x2="819.2"><stop offset="0" stop-color="#5f362f"/><stop offset=".525" stop-color="#6a3f44"/><stop offset="1" stop-color="#4b2f26"/></linearGradient><path d="M76.25 60.8l-.1-.15-.15-.2.05-.2.1.1h.6L78 60q.95.05 1.3 1.05-.2-.35-1.1-.5l-1.45.4-.5-.15m.2-.1H77l1.05-.3-.7.05.6-.2-1.5.35h.7l-.7.1" fill="url(#O)"/><linearGradient id="P" gradientUnits="userSpaceOnUse" gradientTransform="matrix(.00514 -.01292 .02348 .0116 58.35 32.2)" x1="-819.2" x2="819.2"><stop offset="0" stop-color="#703722"/><stop offset=".486" stop-color="#87523c"/><stop offset=".988" stop-color="#74493b"/></linearGradient><path d="M60.3 59.8l-.15-.15-.05-.1-.05-.05-.4-.6-.7-1v-.15l-.2-.3-.15-.35-.05-.15-.7-2.1 1.4 2.9.05.1.55.95.45.6 1.8 1.3.95.6-1.25-1.2 2.4.55q-1.85-.55-3.1-1.55L60 57.85q-.6-.85-.85-1.95-1-3.75-.7-8l-.4 4.1-.05-8.35-.05-3.25h.45l.2 1.65.1 2 .05 1.5v.2l.05.35.05.15.05.6-.1.45.05 1.75q-.05 1.6.25 4.15v.1l.05.45.05.15q0 1.25.3 2.25v.05l.6 1.25v.1l.3.3.8 1 .4.3.3.25.85.4 1.8.45.45.05h.55l1.25-.05-1.35.35h-.05l-.15.05-.8.25h.9l2.3-.55-2.35.9h-.1l-.45.05.4.1h.15l.2.05 1.3-.15-1.4.45-.3.1-.1.05h-.2l-1.75-.15-.05-.1-.6-.2-1.3-.85-.15-.05-.6-.7-.05-.05m1.65-9.3v-.1q-1.85-4.2-2.5-7.3l-.25-1.05-.1-.45v-.2l-.15-1h.45l.05.2.2 1.45q.5 3.55 1.8 6.7l.2.1q.65 1.5 2.3 3l-.85-.15q-.65-.3-1.15-1.2" fill="url(#P)"/><linearGradient id="Q" gradientUnits="userSpaceOnUse" gradientTransform="matrix(.00943 -.01077 .01588 .01411 63.3 37)" x1="-819.2" x2="819.2"><stop offset=".004" stop-color="#592817"/><stop offset=".557" stop-color="#7e3f29"/><stop offset=".957" stop-color="#27140d"/></linearGradient><path d="M65.3 53.5v-.15l-.3-.1-.75-.35-1.25-.75-.7-.75.8.3.85.15q-1.65-1.5-2.3-3l-.2-.1q-1.3-3.15-1.8-6.7l-.2-1.45-.05-.2h.5l.1.8v.2l.1.65q.35 3.7 2.4 7.2l1.05 1.65.05.1v-.05l1.8 1.2.8 1.6-.9-.25" fill="url(#Q)"/><linearGradient id="R" gradientUnits="userSpaceOnUse" gradientTransform="matrix(.00316 .00096 -.00151 .00826 59.05 43.45)" x1="-819.2" x2="819.2"><stop offset="0" stop-color="#6f3321"/><stop offset=".957" stop-color="#874d34"/></linearGradient><path d="M59.75 45.5l.4 2.9v1.2l-.05-.05q-.95-1.65-1.25-3.3l-.05-.15-.05-.35v-.2l-.05-1.5-.1-2-.2-1.65h.15l.35 2.2-.1-2.2h.15l.15 1v.2l.1.45.25 1.05.3 2.4" fill="url(#R)"/><linearGradient id="S" gradientUnits="userSpaceOnUse" gradientTransform="matrix(.00357 -.00595 .0104 .00691 58.95 31.1)" x1="-819.2" x2="819.2"><stop offset="0" stop-color="#8d533f"/><stop offset=".486" stop-color="#9f6450"/><stop offset=".988" stop-color="#824e38"/></linearGradient><path d="M58.9 42.6l-.35-2.2h.25l.1 2.2" fill="url(#S)"/><linearGradient id="T" gradientUnits="userSpaceOnUse" gradientTransform="matrix(.00229 .00038 -.00023 .00652 62.55 46.8)" x1="-819.2" x2="819.2"><stop offset="0" stop-color="#451b0d"/><stop offset=".957" stop-color="#241207"/></linearGradient><path d="M61.65 44.3l.1.2q.4 1.05 2.15 4.5v.1l-2.1-2.3h-.1q.3 1.4 1.55 3.6l.3.55.05.05-.05-.1-1.05-1.65q-2.05-3.5-2.4-7.2l-.1-.65v-.2l-.1-.8h.05q-.05-1.55.05-3.05l.1-1.3q.15-1.55.45-2.9-.7 5.6.9 10.7l.2.45m2.8 16.6l.8-.25.15-.05-.1.3h-.85m.3.4l.45-.05-.05.15-.4-.1m.05.6h.2l-.05.05-.3.9.1-.35.05-.45v-.15" fill="url(#T)"/><linearGradient id="U" gradientUnits="userSpaceOnUse" gradientTransform="matrix(.00537 .0114 -.01067 .0038 60.95 54.55)" x1="-819.2" x2="819.2"><stop offset="0" stop-color="#6f3421"/><stop offset=".49" stop-color="#9c5339"/><stop offset=".973" stop-color="#6f3421"/></linearGradient><path d="M57.85 54.85q-.45-1.7-.45-3.65v-.15q.5-4.15.6-7.4l.05 8.35.4-4.1q-.3 4.25.7 8 .25 1.1.85 1.95l1.1 1.25q1.25 1 3.1 1.55l-2.4-.55 1.25 1.2-.95-.6-1.8-1.3-.45-.6-.55-.95-.05-.1-1.4-2.9" fill="url(#U)"/><linearGradient id="V" gradientUnits="userSpaceOnUse" gradientTransform="matrix(.00357 .00055 -.00015 .00652 61.15 49.3)" x1="-819.2" x2="819.2"><stop offset="0" stop-color="#703421"/><stop offset=".439" stop-color="#8c523d"/><stop offset=".973" stop-color="#6f3827"/></linearGradient><path d="M65.35 53.9l-1.05-.25-.65-.35h-.1l-.9-.55-.3-.25-.3-.25-.2-.15-.05-.1-.4-.45q-.8-.85-1.25-2.05v-1.1l-.4-2.9-.3-2.4q.65 3.1 2.5 7.3v.1q.5.9 1.15 1.2l-.8-.3.7.75 1.25.75.75.35.3.1v.15l.9.25 1.05.2-1 .05-.9-.1" fill="url(#V)"/><linearGradient id="W" gradientUnits="userSpaceOnUse" gradientTransform="matrix(-.0019 .00307 -.00383 -.0026 58.9 49.7)" x1="-819.2" x2="819.2"><stop offset="0" stop-color="#88503f"/><stop offset=".988" stop-color="#a76a51"/></linearGradient><path d="M60.15 49.7q0 2.4-1 4.05l-.05-.45v-.1q0-.95.55-1.85l-.55.65q.1-2.9-.3-4.7l.1-.45-.05-.6q.3 1.65 1.25 3.3l.05.05v.1" fill="url(#W)"/><linearGradient id="X" gradientUnits="userSpaceOnUse" gradientTransform="matrix(.00235 -.0013 .00134 .00206 61.05 54.75)" x1="-819.2" x2="819.2"><stop offset="0" stop-color="#572111"/><stop offset=".965" stop-color="#70341c"/></linearGradient><path d="M58.75 57.45h-.15l-1.55.1q-1.2-.15-1.9-.6l1.75.2 1.4-.15.2-.05h.05l.05.15.15.35m3.3-5.15q0 1.55-1 2.95l-.8 1 1.1-.85.8-.85-.5 1q-.4.85-1.55 1.9l-.6-1.25v-.05l1.2-1.05q1.1-1.2 1.15-2.95v-.05l.2.15v.05" fill="url(#X)"/><linearGradient id="Y" gradientUnits="userSpaceOnUse" gradientTransform="matrix(.00035 -.00302 .00388 .00093 61.9 55.95)" x1="-819.2" x2="819.2"><stop offset="0" stop-color="#7f4532"/><stop offset=".522" stop-color="#7c412f"/><stop offset=".976" stop-color="#7d422e"/></linearGradient><path d="M61.2 58.85l.7-1 .75-2-1.75 1.55 1.05-1.75q.65-1.1.5-2.1l-.7.75.7-1.5q.65 1.8.5 3.1l-.05.15v.05l-.4 1.75-.9 1.3-.4-.3" fill="url(#Y)"/><linearGradient id="Z" gradientUnits="userSpaceOnUse" gradientTransform="matrix(.00107 -.00407 .00426 .00159 61.6 55.85)" x1="-819.2" x2="819.2"><stop offset="0" stop-color="#662e1c"/><stop offset=".502" stop-color="#793f2a"/><stop offset=".976" stop-color="#682e1b"/></linearGradient><path d="M60.4 57.85l-.3-.3v-.1q1.15-1.05 1.55-1.9l.5-1-.8.85-1.1.85.8-1q1-1.4 1-2.95v-.05l.3.25.3.25q.55 1.65.55 3.2l-.15.8-.25 1.1-.9 1.55-.3-.25.9-1.3.4-1.75v-.05l.05-.15q.15-1.3-.5-3.1l-.7 1.5.7-.75q.15 1-.5 2.1L60.9 57.4l1.75-1.55-.75 2-.7 1-.8-1" fill="url(#Z)"/><linearGradient id="aa" gradientUnits="userSpaceOnUse" gradientTransform="matrix(.00053 -.00426 .0046 .00111 63.35 56.5)" x1="-819.2" x2="819.2"><stop offset="0" stop-color="#502213"/><stop offset=".502" stop-color="#682e1c"/><stop offset=".976" stop-color="#612816"/></linearGradient><path d="M61.9 59.4l.9-1.55.25-1.1.15-.8q0-1.55-.55-3.2l.9.55h.1q1.1 1.55 1.45 3.1l.2 1.45.05.4-.2 1.5Q65 60 65 60.3l-.45-.05q.45-1.1.45-2.4l-.05-.9-.05-.15-.1-.45q-.45-1.45-1.45-2.7l.7 2.2.05.35q.35.9.3 1.65l-.1 1.1-.15-1.1-.35-1.7-.2-.9-.05.85-.1 1.75q-.25 1.35-.7 1.95l-.85-.4" fill="url(#aa)"/><linearGradient id="ab" gradientUnits="userSpaceOnUse" gradientTransform="matrix(.00175 .00201 -.0022 .00182 64.8 55.8)" x1="-819.2" x2="819.2"><stop offset="0" stop-color="#461806"/><stop offset=".976" stop-color="#61260c"/></linearGradient><path d="M65.5 60.3H65q0-.3.15-.55l.2-1.5-.05-.4-.2-1.45q-.35-1.55-1.45-3.1l.65.35 1.05.25.9.1q.55 2.4-.7 6.3h-.05" fill="url(#ab)"/><linearGradient id="ac" gradientUnits="userSpaceOnUse" gradientTransform="matrix(-.00096 .0021 -.00372 -.00204 63.85 57.85)" x1="-819.2" x2="819.2"><stop offset="0" stop-color="#653428"/><stop offset=".494" stop-color="#7b4a3b"/><stop offset=".988" stop-color="#753321"/></linearGradient><path d="M62.75 59.8q.45-.6.7-1.95l.1-1.75.05-.85.2.9.35 1.7.15 1.1.1-1.1q.05-.75-.3-1.65l-.05-.35-.7-2.2q1 1.25 1.45 2.7l.1.45.05.15.05.9q0 1.3-.45 2.4l-1.8-.45" fill="url(#ac)"/><linearGradient id="ad" gradientUnits="userSpaceOnUse" gradientTransform="matrix(.0058 0 .00012 .00096 60.25 60.8)" x1="-819.2" x2="819.2"><stop offset="0" stop-color="#44150c"/><stop offset=".573" stop-color="#562115"/></linearGradient><path d="M58.2 61.1q-1.45-.4-2.35-1 2.05.85 3.6.5l1.05-.3-1.1.15.95-.6.6.7.15.05-.05.05-1.35.3h-1.3l1.45.15 1.25-.05-1.1.3-2 .05-.85-.2q-.7-.2-1.3-.55 1.25.65 2.35.45" fill="url(#ad)"/><linearGradient id="ae" gradientUnits="userSpaceOnUse" gradientTransform="matrix(.003 0 .00012 .0009 60.4 61.35)" x1="-819.2" x2="819.2"><stop offset="0" stop-color="#4c2118"/><stop offset=".973" stop-color="#431a14"/></linearGradient><path d="M62.6 61.95l-.55.05-1.4.1h-.45l.35-.1-1.55-.2-1.85-.6.85.2 2-.05 1.1-.3-1.25.05-1.45-.15h1.3l1.35-.3.05-.05 1.3.85.6.2-.4.3" fill="url(#ae)"/><linearGradient id="af" gradientUnits="userSpaceOnUse" gradientTransform="matrix(-.0006 .0024 -.00249 -.00087 62.9 63.75)" x1="-819.2" x2="819.2"><stop offset="0" stop-color="#51210c"/><stop offset=".965" stop-color="#6f3421"/></linearGradient><path d="M63 61.65l.05.1 1.75.15v.15l-1.1.5-1 .35.85-.65h-.05q-.65.25-1 .45l-1.15.2h-.65l.6-.15.9-.45.4-.35.4-.3" fill="url(#af)"/><linearGradient id="ag" gradientUnits="userSpaceOnUse" gradientTransform="matrix(.00423 0 .00034 .0026 56.5 58.05)" x1="-819.2" x2="819.2"><stop offset="0" stop-color="#582929"/><stop offset=".459" stop-color="#5d281b"/><stop offset=".933" stop-color="#54261b"/></linearGradient><path d="M60.1 59.55l.05.1-1.2.4-.85.1h-.2q-2.15-.35-3.75-2.3l-.05-.1-.05-.05-1.25-1.8q1.15 1.4 2.5 1.95l.2.1.25.05 1.75.15 1.3-.3.1-.1h.05v.15l.7 1-1.25.45-.6.05h-.25q-1.25-.3-3-1.55l-.25-.2.15.2 2.2 1.6-1.85-1.15q1.15 1.15 2.45 1.6h1.6l1.2-.4.05.05m-1.95-.5q.8-.15 1-.55l-1.4.2.95-.5-1 .15-2.35-.3q.95.8 2.3 1.1l.5-.1" fill="url(#ag)"/><linearGradient id="ah" gradientUnits="userSpaceOnUse" gradientTransform="matrix(.0035 0 .0002 .0015 57.1 58.8)" x1="-819.2" x2="819.2"><stop offset="0" stop-color="#592615"/><stop offset=".933" stop-color="#421709"/></linearGradient><path d="M60.05 59.5l-1.2.4h-1.6q-1.3-.45-2.45-1.6l1.85 1.15-2.2-1.6-.15-.2.25.2q1.75 1.25 3 1.55h.25l.6-.05 1.25-.45.4.6" fill="url(#ah)"/><linearGradient id="ai" gradientUnits="userSpaceOnUse" gradientTransform="matrix(.00378 0 .00034 .00256 56.2 58.6)" x1="-819.2" x2="819.2"><stop offset="0" stop-color="#724237"/><stop offset=".949" stop-color="#5b3121"/></linearGradient><path d="M59.55 60.25l-.4.05q-1.2.25-2.05 0H57q-1.45-.3-2.55-1.6 1.05 1.45 2.1 2l-1-.2-.05-.05-.45-.2q-1.35-1-1.85-2.4.5.6.95.5l-.45-.5-.8-1.35 1.15 1.25h.05l.05.1q1.6 1.95 3.75 2.3h.2l1.45.1" fill="url(#ai)"/><linearGradient id="aj" gradientUnits="userSpaceOnUse" gradientTransform="matrix(.0036 0 .0002 .0015 57.55 59.9)" x1="-819.2" x2="819.2"><stop offset="0" stop-color="#572919"/><stop offset=".949" stop-color="#5a291a"/></linearGradient><path d="M60.35 59.85l-.95.6 1.1-.15-1.05.3q-1.55.35-3.6-.5.9.6 2.35 1-1.1.2-2.35-.45l-.1-.05-.15-.05-.05-.05 1 .2q-1.05-.55-2.1-2 1.1 1.3 2.55 1.6h.1q.85.25 2.05 0l.4-.05-1.45-.1.85-.1 1.2-.4.15.15.05.05" fill="url(#aj)"/><linearGradient id="ak" gradientUnits="userSpaceOnUse" gradientTransform="matrix(.00346 -.00056 .00017 .00064 57.35 58.55)" x1="-819.2" x2="819.2"><stop offset="0" stop-color="#5a271a"/><stop offset=".459" stop-color="#714030"/><stop offset=".933" stop-color="#602c1d"/></linearGradient><path d="M57.65 59.15q-1.35-.3-2.3-1.1l2.35.3 1-.15-.95.5 1.4-.2q-.2.4-1 .55l-.5.1" fill="url(#ak)"/><radialGradient id="al" gradientUnits="userSpaceOnUse" gradientTransform="translate(63.75 26.95) scale(.03134)" spreadMethod="pad" cx="0" cy="0" r="819.2" fx="0" fy="0"><stop offset=".361" stop-color="#e34b21" stop-opacity=".4"/><stop offset="1" stop-color="#f5c4a9" stop-opacity=".133"/></radialGradient><path d="M75.1 37.5q-6.75-3.2-8.9-5.7-1.7-1.8-2.6-4.45-3 5.8-2.5 14l-.15-1.1-.15-1.75q-.5-6.15 3.1-12.8.35 1.85 1.05 3.45.8 1.6 2 2.85l.3.25q1.5 1.6 3.7 2.75l-.55-.7q1.4 1.3 3.4 2.1l.2.05.9.85.2.2" fill="url(#al)"/><linearGradient id="am" gradientUnits="userSpaceOnUse" gradientTransform="matrix(.00264 .0012 -.00092 .00218 79.55 26.35)" x1="-819.2" x2="819.2"><stop offset="0" stop-color="#fff" stop-opacity="0"/><stop offset=".471" stop-color="#fff" stop-opacity=".231"/><stop offset="1" stop-color="#fff" stop-opacity="0"/></linearGradient><path d="M77.5 23.5q2 1.6 3.65 3.6l-.85-.7 1.75 3.05-2.25-2.6 1.55 2.6q-1.65-2.5-3.8-4.75l2.95 2.5q-1.2-2-3-3.7" fill="url(#am)"/><linearGradient id="an" gradientUnits="userSpaceOnUse" gradientTransform="matrix(.0031 .00142 -.00105 .0025 77.15 21.8)" x1="-819.2" x2="819.2"><stop offset="0" stop-color="#fff" stop-opacity="0"/><stop offset=".471" stop-color="#fff" stop-opacity=".231"/><stop offset="1" stop-color="#fff" stop-opacity="0"/></linearGradient><path d="M78.1 21.65l2.4 2.45-2.35-2 1.05 1.45Q76.85 21.2 74.05 20l2.15.75-2.45-1.2q1.9.55 3.85 1.8l.5.3" fill="url(#an)"/><linearGradient id="ao" gradientUnits="userSpaceOnUse" gradientTransform="matrix(.00134 .00255 -.00514 .0025 77.6 29.3)" x1="-819.2" x2="819.2"><stop offset="0" stop-color="#fff" stop-opacity="0"/><stop offset=".471" stop-color="#fff" stop-opacity=".18"/><stop offset="1" stop-color="#fff" stop-opacity="0"/></linearGradient><path d="M76.15 25.7q2.25 2.35 3.95 7.1l.05.1.3 2.2q-.7-2.95-2.4-5.4L79.2 34l-1.4-3.8.95 4.15q-1.35-5-3.45-8.85l2.15 3.5-1.3-3.3" fill="url(#ao)"/><linearGradient id="ap" gradientUnits="userSpaceOnUse" gradientTransform="matrix(.00293 0 -.0001 .00204 80.95 61.9)" x1="-819.2" x2="819.2"><stop offset="0" stop-color="#fff" stop-opacity="0"/><stop offset=".459" stop-color="#fff" stop-opacity=".263"/><stop offset="1" stop-color="#fff" stop-opacity="0"/></linearGradient><path d="M81.15 62.7l-.25.2-1.3.7 2.1-1.7-3.2 1.6q2.4-1.25 3.45-2.35l-.7.8 2.25-1.7-2.35 2.45" fill="url(#ap)"/><linearGradient id="aq" gradientUnits="userSpaceOnUse" gradientTransform="matrix(.0026 .00119 -.00023 .00055 76.8 19.8)" x1="-819.2" x2="819.2"><stop offset="0" stop-color="#fff" stop-opacity="0"/><stop offset=".471" stop-color="#fff" stop-opacity=".231"/><stop offset="1" stop-color="#fff" stop-opacity="0"/></linearGradient><path d="M74.8 18.5q2 .35 3.95 2.7-1.8-1.55-3.95-2.7" fill="url(#aq)"/><linearGradient id="ar" gradientUnits="userSpaceOnUse" gradientTransform="matrix(.00175 .00313 -.00285 .0015 58.75 30.7)" x1="-819.2" x2="819.2"><stop offset="0" stop-color="#fff" stop-opacity="0"/><stop offset=".471" stop-color="#fff" stop-opacity=".314"/><stop offset="1" stop-color="#fff" stop-opacity="0"/></linearGradient><path d="M59.6 26.95q-.8 1.75-1.05 3.55l-.7 4q.05-3.45.85-5.95v-.15l.9-1.45" fill="url(#ar)"/><linearGradient id="as" gradientUnits="userSpaceOnUse" gradientTransform="matrix(-.00055 .00406 -.0017 -.00032 59.35 32.95)" x1="-819.2" x2="819.2"><stop offset="0" stop-color="#fff" stop-opacity="0"/><stop offset=".471" stop-color="#fff" stop-opacity=".314"/><stop offset="1" stop-color="#fff" stop-opacity="0"/></linearGradient><path d="M59.1 34.85l-.25-2.7q-.6 3.3-.25 6.6-.6-3.75.15-7.2l.55-1.95-.15 2.95.65-2.15-.5 2.35-.2 2.1" fill="url(#as)"/><linearGradient id="at" gradientUnits="userSpaceOnUse" gradientTransform="matrix(.00166 .00294 -.00076 .0004 67.75 30.15)" x1="-819.2" x2="819.2"><stop offset="0" stop-color="#fff" stop-opacity="0"/><stop offset=".471" stop-color="#fff" stop-opacity=".314"/><stop offset="1" stop-color="#fff" stop-opacity="0"/></linearGradient><path d="M66.7 27q1.3 3.4 3.6 6.35l-2.35-2.9q.25 1.25.8 2.25-2.15-2.45-3-5.6.85 2.05 2.15 3.65L66.7 27" fill="url(#at)"/><linearGradient id="au" gradientUnits="userSpaceOnUse" gradientTransform="matrix(.00098 -.00255 .00378 .00128 77.25 57.15)" x1="-819.2" x2="819.2"><stop offset="0" stop-color="#fff" stop-opacity="0"/><stop offset=".459" stop-color="#fff" stop-opacity=".263"/><stop offset="1" stop-color="#fff" stop-opacity="0"/></linearGradient><path d="M75.95 59.7l1.95-5.85-.7 2.95 1.3-3-2.4 6.65.9-3.2-1.05 2.45" fill="url(#au)"/><linearGradient id="av" gradientUnits="userSpaceOnUse" gradientTransform="matrix(.00319 -.00359 .00398 .0035 76.5 53.7)" x1="-819.2" x2="819.2"><stop offset="0" stop-color="#fff" stop-opacity="0"/><stop offset=".459" stop-color="#fff" stop-opacity=".263"/><stop offset="1" stop-color="#fff" stop-opacity="0"/></linearGradient><path d="M76.55 54.5l-.15.3q-1 1.2-1.65 2.4l-.5.95.4-.95q.95-2.25 2.8-4.25.8-1.5 1.4-3.75l-.95 3.6-1.35 1.7" fill="url(#av)"/><linearGradient id="aw" gradientUnits="userSpaceOnUse" gradientTransform="matrix(.002 0 .00066 .00441 60.8 47.55)" x1="-819.2" x2="819.2"><stop offset="0" stop-color="#fff" stop-opacity="0"/><stop offset=".459" stop-color="#fff" stop-opacity=".263"/><stop offset="1" stop-color="#fff" stop-opacity="0"/></linearGradient><path d="M60.75 48.95q-1.45-2.75-1.75-5 1.35 4.5 4 7.2l-1.75-1.35.45 1q-1.55-1.85-2.65-4.2l1.7 2.35" fill="url(#aw)"/><linearGradient id="ax" gradientUnits="userSpaceOnUse" gradientTransform="matrix(-.0001 -.00249 .0033 .00037 63.85 58.15)" x1="-819.2" x2="819.2"><stop offset="0" stop-color="#fff" stop-opacity="0"/><stop offset=".459" stop-color="#fff" stop-opacity=".263"/><stop offset="1" stop-color="#fff" stop-opacity="0"/></linearGradient><path d="M64.8 57.85l-.35 2.05.05-2-.55 2-.15-1.7-.55 1.1q.5-1.7.3-3.8l.45 3.2q.8-1.15-.1-4.2.7 1.55.9 3.15v.2" fill="url(#ax)"/><linearGradient id="ay" gradientUnits="userSpaceOnUse" gradientTransform="matrix(.00397 .00334 -.00105 .00128 60.3 57.95)" x1="-819.2" x2="819.2"><stop offset="0" stop-color="#fff" stop-opacity="0"/><stop offset=".443" stop-color="#fff" stop-opacity=".2"/><stop offset="1" stop-color="#fff" stop-opacity="0"/></linearGradient><path d="M62.4 60.35l-1.85-1.2 1.15 1.15-1-.7-.55-.45q-.8-.9-1.35-2.15-.55-1.1-.85-2.4l.4 1 .4.85.3.55 1.25 2-1.05-2-.4-.8-.05-.25q-.95-3.1-.85-4.65.3 3.15 1.5 5.7l.1.3v.1l.1.1q1.6 2.8 4.55 3.05l-1.8-.2" fill="url(#ay)"/><linearGradient id="az" gradientUnits="userSpaceOnUse" gradientTransform="matrix(.0036 0 .00021 .00142 57.35 59.35)" x1="-819.2" x2="819.2"><stop offset="0" stop-color="#fff" stop-opacity="0"/><stop offset=".459" stop-color="#fff" stop-opacity=".263"/><stop offset="1" stop-color="#fff" stop-opacity="0"/></linearGradient><path d="M58.45 60.55l-1.65-.3q-1.05-.3-1.7-1 .6.45 1.1.45-1.35-.75-1.95-1.5 2.5 2.25 5.35 1.7l-1.9.35 2.5.1-1.65.2h-.1" fill="url(#az)"/><linearGradient id="aA" gradientUnits="userSpaceOnUse" gradientTransform="matrix(.00214 .00378 -.00107 .00056 74.15 29.45)" x1="-819.2" x2="819.2"><stop offset="0" stop-color="#fff" stop-opacity="0"/><stop offset=".471" stop-color="#fff" stop-opacity=".314"/><stop offset=".49" stop-color="#fff" stop-opacity=".4"/><stop offset="1" stop-color="#fff" stop-opacity="0"/></linearGradient><path d="M72.55 24.85q2.5 4.45 4.15 9.5l-2.4-5.15q-.05 1.95.85 4.35-1.6-3.25-2.95-7.4l1.95 3.6-1.6-4.9" fill="url(#aA)"/><linearGradient id="aB" gradientUnits="userSpaceOnUse" gradientTransform="matrix(.0018 .0032 -.00462 .00243 72.1 29.75)" x1="-819.2" x2="819.2"><stop offset="0" stop-color="#fff" stop-opacity="0"/><stop offset=".471" stop-color="#fff" stop-opacity=".314"/><stop offset=".49" stop-color="#fff" stop-opacity=".4"/><stop offset="1" stop-color="#fff" stop-opacity="0"/></linearGradient><path d="M73.35 34.25q-1.9-3.55-3.5-7.35l1.55 3-1.55-4.4 1.85 3.7-1-3.05 2.45 5.2-1-4.05 2.35 6.75q-1.7-2.15-3-4.75l1.85 4.95" fill="url(#aB)"/><linearGradient id="aC" gradientUnits="userSpaceOnUse" gradientTransform="matrix(.00166 .00294 -.001 .00052 69.4 29.55)" x1="-819.2" x2="819.2"><stop offset="0" stop-color="#fff" stop-opacity="0"/><stop offset=".471" stop-color="#fff" stop-opacity=".314"/><stop offset=".49" stop-color="#fff" stop-opacity=".4"/><stop offset="1" stop-color="#fff" stop-opacity="0"/></linearGradient><path d="M69.9 30l-.85-2.85 1.75 3.8-1.35-1.25.5 1.1 1.1 1.85q-1.2-1.25-2.15-2.85l.95 2.5q-1.6-2.6-2.35-5.7.7 1.7 1.8 3.3l-.9-2.75L69.9 30" fill="url(#aC)"/><linearGradient id="aD" gradientUnits="userSpaceOnUse" gradientTransform="matrix(.00214 .0038 -.00072 .00037 75.8 29.05)" x1="-819.2" x2="819.2"><stop offset="0" stop-color="#fff" stop-opacity="0"/><stop offset=".471" stop-color="#fff" stop-opacity=".314"/><stop offset=".49" stop-color="#fff" stop-opacity=".4"/><stop offset="1" stop-color="#fff" stop-opacity="0"/></linearGradient><path d="M74.3 25.35q1.75 3.05 2.9 6.7l.35 1.75-.7-1.6-.7-1.95q-1.05-2.6-2.45-5.05l1.55 2.4-.95-2.25" fill="url(#aD)"/><linearGradient id="aE" gradientUnits="userSpaceOnUse" gradientTransform="matrix(.00327 0 0 .00534 82.85 51.2)" x1="-819.2" x2="819.2"><stop offset="0" stop-color="#764434"/><stop offset=".486" stop-color="#b57865"/><stop offset=".988" stop-color="#6f3f31"/></linearGradient><path d="M85.55 55.6q-2.05-.15-3.85-2.95-1.5-2.4-1.5-3.9 0-1.65.35-1.9l-.15 1.55q0 1.65 1.35 3.9 1.6 2.65 3.8 3.3" fill="url(#aE)"/><linearGradient id="aF" gradientUnits="userSpaceOnUse" gradientTransform="matrix(.00296 0 0 .01288 59.5 31.1)" x1="-819.2" x2="819.2"><stop offset="0" stop-color="#764434"/><stop offset=".486" stop-color="#b57865"/><stop offset=".988" stop-color="#6f3f31"/></linearGradient><path d="M61.95 20.6q-3.05 1.75-4.05 6.5-.55 2.5-.55 7.25 0 2.8.8 7.05l-.05.25q-1-3.15-1-7.3 0-4.6.6-7.35 1.05-4.6 4-6.45l.25.05" fill="url(#aF)"/><linearGradient id="aG" gradientUnits="userSpaceOnUse" gradientTransform="matrix(.00568 0 0 .00082 70.5 17.65)" x1="-819.2" x2="819.2"><stop offset="0" stop-color="#764434"/><stop offset=".486" stop-color="#b57865"/><stop offset=".988" stop-color="#6f3f31"/></linearGradient><path d="M65.85 18.35l1.05-.8 1.9-.55 5.4.5.95.75v.1l-.95-.65q-1.25-.6-3.5-.6-2.55 0-3.8.55l-1.05.7" fill="url(#aG)"/><linearGradient id="aH" gradientUnits="userSpaceOnUse" gradientTransform="matrix(.0048 0 0 .00314 57.95 54.35)" x1="-819.2" x2="819.2"><stop offset="0" stop-color="#764434"/><stop offset=".486" stop-color="#b57865"/><stop offset=".988" stop-color="#6f3f31"/></linearGradient><path d="M61.85 51.85l.05-.05v.15q0 1.75-1.25 3.05-1.9 1.95-6.25 1.95l-.35-.2q5.45-.45 6.75-2.15.75-.9 1.05-2.75" fill="url(#aH)"/><linearGradient id="aI" gradientUnits="userSpaceOnUse" gradientTransform="matrix(.00342 0 0 .00076 56.85 57.45)" x1="-819.2" x2="819.2"><stop offset="0" stop-color="#764434"/><stop offset=".486" stop-color="#b57865"/><stop offset=".988" stop-color="#6f3f31"/></linearGradient><path d="M54.05 57.05l.85.3 1.25.3 2.6-.45q.7-.4.9-.35l-1 .8-2.5.45q-.5 0-1.2-.35l-.9-.7" fill="url(#aI)"/><linearGradient id="aJ" gradientUnits="userSpaceOnUse" gradientTransform="matrix(.00204 0 0 .01236 80.45 43.75)" x1="-819.2" x2="819.2"><stop offset="0" stop-color="#764434"/><stop offset=".486" stop-color="#b57865"/><stop offset=".988" stop-color="#6f3f31"/></linearGradient><path d="M81.35 48.25q-.9 3.25-2.55 5.65 1.65-3.3 2.4-6.2.7-2.8.7-6 0-4.75-1.25-8.05h.1q1.4 3.4 1.4 8.65 0 3-.8 5.95" fill="url(#aJ)"/><linearGradient id="aK" gradientUnits="userSpaceOnUse" gradientTransform="matrix(.0054 -.0002 .00038 .01079 78.35 26.3)" x1="-819.2" x2="819.2"><stop offset="0" stop-color="#764434"/><stop offset=".486" stop-color="#b57865"/><stop offset=".988" stop-color="#6f3f31"/></linearGradient><path d="M82.6 34.95l-.05-.2.25-4.4q-.15-3.25-2.45-7.2-2.8-4.85-6.75-5.45l.05-.1q4.1.4 6.95 5.55 2.2 4 2.35 7.2.05 2.55-.35 4.6" fill="url(#aK)"/><linearGradient id="aL" gradientUnits="userSpaceOnUse" gradientTransform="translate(80.35 60.15) scale(.0054)" x1="-819.2" x2="819.2"><stop offset="0" stop-color="#764434"/><stop offset=".486" stop-color="#b57865"/><stop offset=".988" stop-color="#6f3f31"/></linearGradient><path d="M84.05 55.75l.55 1.8.2 1.85q0 1.35-2 3.05-2.55 2.15-6.4 2.15l-.45-.15q5.35-.95 7.25-2.8 1.25-1.2 1.25-3.35l-.5-2.5.05-.05h.05" fill="url(#aL)"/><linearGradient id="aM" gradientUnits="userSpaceOnUse" gradientTransform="matrix(.00473 0 0 .00409 77.9 60.35)" x1="-819.2" x2="819.2"><stop offset="0" stop-color="#764434"/><stop offset=".486" stop-color="#b57865"/><stop offset=".988" stop-color="#6f3f31"/></linearGradient><path d="M81.45 59.95q0-.95-.35-1.25l-2.2-1.55V57q1.9.85 2.45 1.5.45.45.45 1.45 0 1.4-1.75 2.5-2 1.25-5.15 1.25l-.85-.15 3.05-.5q1.65-.2 2.5-.8 1.25-.95 1.45-1.15.4-.45.4-1.15" fill="url(#aM)"/><linearGradient id="aN" gradientUnits="userSpaceOnUse" gradientTransform="matrix(.00363 0 0 .0037 63.2 21.1)" x1="-819.2" x2="819.2"><stop offset="0" stop-color="#764434"/><stop offset=".486" stop-color="#b57865"/><stop offset=".988" stop-color="#6f3f31"/></linearGradient><path d="M60.95 21.85l.55-1.15q1.35-2 4.7-2.6-3.35.9-4.5 2.7l-.25.75-1.1 2.6h-.1l.65-2.1.05-.2" fill="url(#aN)"/><linearGradient id="aO" gradientUnits="userSpaceOnUse" gradientTransform="matrix(.00284 0 0 .01639 59.2 34.85)" x1="-819.2" x2="819.2"><stop offset="0" stop-color="#6a3a2e"/><stop offset=".486" stop-color="#b57865"/><stop offset=".988" stop-color="#64372a"/></linearGradient><path d="M61.45 21.55l.1-.1-.1.1m-3.4 22.1l-.15.35q-1-4.3-1-7.25 0-4 .95-8.25 1.15-5 3.1-6.65l-.05.2q-1.75 1.8-2.8 6.5-.95 4.25-.95 8.15 0 2.35.7 5.75l.25 1.15-.05.05m.6 3.15l-.6-2.25.05-.8v-.1l.7 3.2-.15-.05m.4 1.5l-.2-.75.05-.1h.05l.15.75-.05.1" fill="url(#aO)"/><linearGradient id="aP" gradientUnits="userSpaceOnUse" gradientTransform="matrix(.00308 0 0 .01154 59.8 53.05)" x1="-819.2" x2="819.2"><stop offset="0" stop-color="#764434"/><stop offset=".486" stop-color="#b57865"/><stop offset=".988" stop-color="#6f3f31"/></linearGradient><path d="M58.05 44.55l-.25 2.3q-.3 3.05-.3 5.05 0 7.95 4.85 10.6Q57.3 61 57.3 51.95l.25-4.65.35-3.3.15-.35.05-.05v.15l-.05.8" fill="url(#aP)"/><linearGradient id="aQ" gradientUnits="userSpaceOnUse" gradientTransform="matrix(.00537 0 0 .004 62.6 50.05)" x1="-819.2" x2="819.2"><stop offset="0" stop-color="#6a3a2e"/><stop offset=".486" stop-color="#b57865"/><stop offset=".988" stop-color="#64372a"/></linearGradient><path d="M58.95 48.75v.05q-.75-.95-.75-1.6 0-.4.4-.4h.05l.15.05.2.35-.05.25h-.05l-.05.1-.1.15.3.6-.1.45m.4-.05l2 2.15q.75.75 2.15 1.25l3.5 1.1-.3.15q-2.9 0-5.9-2.65l-1.3-1.25-.15-.75" fill="url(#aQ)"/><linearGradient id="aR" gradientUnits="userSpaceOnUse" gradientTransform="matrix(.00351 0 0 .00726 61.75 53.65)" x1="-819.2" x2="819.2"><stop offset="0" stop-color="#6a3a2e"/><stop offset=".486" stop-color="#b57865"/><stop offset=".988" stop-color="#64372a"/></linearGradient><path d="M59.05 48.3l.05-.1.05-.1-.05.75.05.95v.4q0 2.5 1.1 5.1 1.5 3.55 4.4 4.25l-.65.05q-1.15 0-2.65-1.9-1.25-1.6-1.6-2.8-.85-3.05-.85-4.7l.05-1.4v-.05l.1-.45m.2-.3l.35-.3-.3.75-.05-.45" fill="url(#aR)"/><linearGradient id="aS" gradientUnits="userSpaceOnUse" gradientTransform="matrix(.0029 0 0 .00598 61.45 52.8)" x1="-819.2" x2="819.2"><stop offset="0" stop-color="#764434"/><stop offset=".486" stop-color="#b57865"/><stop offset=".988" stop-color="#6f3f31"/></linearGradient><path d="M59.3 48.45l.05.25.15.75.6 3.3q.95 2.85 3.75 4.95-2.2-.65-3.6-4.05-.9-2.1-1.1-3.85l-.05-.95.05-.75.05-.2.05.1.05.45" fill="url(#aS)"/><linearGradient id="aT" gradientUnits="userSpaceOnUse" gradientTransform="matrix(.00217 0 0 .00708 75.3 54.6)" x1="-819.2" x2="819.2"><stop offset="0" stop-color="#764434"/><stop offset=".486" stop-color="#b57865"/><stop offset=".988" stop-color="#6f3f31"/></linearGradient><path d="M74.9 60.25q-.95-.35-1.2-1.35-.15-.45-.15-2.15 0-2.6.55-3.95.7-1.7 3-4-2.05 2.6-2.65 4.2-.55 1.35-.55 3.75l.1 1.9q.25.85.9 1.25v.35m.4-.1l.4.1-.1.15h-.25l-.05-.25" fill="url(#aT)"/><linearGradient id="aU" gradientUnits="userSpaceOnUse" gradientTransform="matrix(.00296 0 0 .00491 77.3 57.9)" x1="-819.2" x2="819.2"><stop offset="0" stop-color="#764434"/><stop offset=".486" stop-color="#b57865"/><stop offset=".988" stop-color="#6f3f31"/></linearGradient><path d="M75.35 60.4q.25 1.05 1.8 1.05l1.7-.2.8-.15.1.1q-.95.75-2.65.75-1.6 0-2.05-.95l-.15-.75v-.4q0-1.9.5-2.9.4-.8 2.25-3.05l-1.85 3.15q-.5 1.05-.5 2.85v.25l.05.25" fill="url(#aU)"/><linearGradient id="aV" gradientUnits="userSpaceOnUse" gradientTransform="matrix(.0021 0 0 .00385 86.9 36.1)" x1="-819.2" x2="819.2"><stop offset="0" stop-color="#764434"/><stop offset=".486" stop-color="#c98370"/><stop offset=".988" stop-color="#6f3f31"/></linearGradient><path d="M85.1 34.3q0 3.3-2.6 4.65 1.35-1.1 1.9-2.2.5-1 .5-2.5 0-2.55-1.15-3.5v-.1h.05q1.3.75 1.3 3.65" fill="url(#aV)"/><linearGradient id="aW" gradientUnits="userSpaceOnUse" gradientTransform="matrix(.0021 0 0 .00385 86.9 36.1)" x1="-819.2" x2="819.2"><stop offset="0" stop-color="#764434"/><stop offset=".486" stop-color="#c98370"/><stop offset=".988" stop-color="#6f3f31"/></linearGradient><path d="M85.5 29.5q1.1 1.95 1.1 4.05l-.05 1.75-.8 2.35h-.1l.55-2.45.05-1.7q0-2.1-.5-3.2-1-2.25-4-2.35 2.65-.45 3.75 1.55m2 3.45l.3 1.15v.9q0 1.55-.75 2.85-1 1.7-3.15 2.05 3.7-1.15 3.7-5l-.2-1.85.1-.1" fill="url(#aW)"/><linearGradient id="aX" gradientUnits="userSpaceOnUse" gradientTransform="matrix(.0021 0 0 .00385 86.9 36.1)" x1="-819.2" x2="819.2"><stop offset="0" stop-color="#764434"/><stop offset=".486" stop-color="#c98370"/><stop offset=".988" stop-color="#6f3f31"/></linearGradient><path d="M86.8 32.15q-1.2-2.25-3.65-2.8 2.75.25 4.05 2.65.9 1.6.9 3.5 0 1.45-.8 3.05Q86.05 41 83.55 41l-1.25-.2-.65-.3h-.05l.15-.05 1.2.2q2.8 0 4.05-2.35.7-1.35.7-2.8 0-1.7-.9-3.35" fill="url(#aX)"/></g></svg>