<svg xmlns="http://www.w3.org/2000/svg" width="30" height="29"><g transform="translate(-56.55 -16.05)"><radialGradient id="a" gradientUnits="userSpaceOnUse" gradientTransform="matrix(.05673 0 0 .02075 70.85 31.55)" spreadMethod="pad" cx="0" cy="0" r="819.2" fx="210319" fy="0"><stop offset=".361" stop-color="#e34b21" stop-opacity=".271"/><stop offset="1" stop-color="#f5c4a9" stop-opacity=".133"/></radialGradient><path d="M58.9 38.15q0-3.9 2.7-7.75l.8-1.1 1.2-.35q1.1-.4 1.65-.45l1.6-.35 7.9.05.65.3h.05l.75.65 1.85 1.75.2.35q1.4 3 1.55 4.5l.15 5.35.05.6-.5.7-.05-.3-.05.15V42l.1-.6.05-.8-.15.4v-.95l-.1.25-.05.2.05-.25.1-1.55-.3.8-.1-1.4-.05.5h-.05l-.05-.55-.05-.4-.05.1-.05.05q-.1.2-.05.45l-.35-1.05-.05-.9-.15.4-.2.45v-.75l-.2.5v-.15l.05-.6-.2.55-.2.45-.05-1.35v-.5h-.05v.05l-.4.95-.05.05-.05-1.6-.25-1.15q.1 1.7-.3 2.35l-.2-1.3-.2.85-.3-2.8q0 1.85-.3 2.55l-.1-.8-.3.9-.2-1.6-.35 1.2q.2-.6 0-1.3L74 34.7l-.15.25q.25-.6-.05-1.7l-.3 1.5-.1-1.55-.35 1.1-.15-2.95v.1l-.35 2.95-.15-.95-.25 1.3-.1-1.55-.25 1.9-.25-1.25-.3 1.2-.3.4q.3-1 .2-1.8l-.4 1.15v-.85l-.45.95.2-1.1.05-.95-.45 1.7v-1.2q-.25 1.45-.9 1.8.35-.6.3-1.6l-.65 1.15.2-1.05-.1.2-.6 1.1.1-1.6-.15.7-.45.8q.35-1 .15-1.15-.3 1.05-.85 1.4.25-.55.15-1.55L66.15 35h-.05l-.3.15.35-.65-.05.05-.65.65.45-1.35-.55.95.4-2.1.05-.2v-.8l-.1.8-.05.25-.7 2.35v-1.3q-.15.95-.5 1.3l.2-2.05-.05-.55-.5 2.45.15-2.35v-.05l-.05.25v.05l-.05.35-.3 1.35-.25.85v-1.3l-.3.95-.2.35.2-1.05.15-.95.1-.9v-.75l-.1.75-.15.75-.05.25-.65 1.95.3-2.75-.25.95-1.05 3.2.35-1.6.1-1.2-.1.4v.1l-.2.85-.1.25-.2.65-.9 1.85.2-1.4v-.1l-.65 1.8.45 2.45.4 1.35.75 1.45v.05l-.05-.05q-.9-.5-1.4-1.45L60.1 42l.05.25.6 1.45.3.5-.35-.45-.05-.05-1-1.45-.15-.25-.25-1.05q-.35-1.85-.35-2.8m8.7-8.85h-.05v.05l.05-.05m12.05 12.45l.1-.15h-.05l-.05.15" fill="url(#a)"/><linearGradient id="b" gradientUnits="userSpaceOnUse" gradientTransform="matrix(.00076 -.00006 .00005 .00058 80.25 19)" x1="-819.2" x2="819.2"><stop offset="0" stop-color="#582b1a"/><stop offset=".98" stop-color="#2d0800"/></linearGradient><path d="M79.8 18.15l.2.1.35.25.55.8.1.55v.95l-1.45-.4 1.05.05-1.25-.55 1.4.2-.65-.45.9.2-.25-.25-.45-.25-.75-.3h1.05l-.25-.35-.4-.35-.25-.2h.1" fill="url(#b)"/><linearGradient id="c" gradientUnits="userSpaceOnUse" gradientTransform="matrix(.0034 0 0 .0026 78.25 19.95)" x1="-819.2" x2="819.2"><stop offset="0" stop-color="#7f4a32"/><stop offset=".478" stop-color="#795038"/><stop offset=".98" stop-color="#481a0c"/></linearGradient><path d="M81.35 21.95l-.4-.1-1.4-.1h-.05l-.7-.35-1.7-1 1.05.3-.4-.3q-.95-.65-2.1-.95l2.05.3q-1.1-.7-2.3-.75l1.85.05-1.8-.35q.4-.5 1.05-.7l3.05.1h.1l.05.05.25.2.4.35.25.35h-1.05l.75.3.45.25.25.25-.9-.2.65.45-1.4-.2 1.25.55-1.05-.05 1.45.4-.1.4.35.2.5.25.9.6-1.3-.3M79.2 18.3l-3.45.2 1.05-.1-.95.2 1.1.15 2.8.55-1.55-.45 1.55.05-2.2-.4 1.8.1-1.45-.35 1.3.05m.45 3.25l.85.1-.85-.4.95.25-2.05-.9 1.65.35-1.85-.85 1.2.1-1.25-.45 1.55.05-1.05-.3 1 .05-2.8-.65.75.45-1.1-.2q.85.25 1.65.8L77 19.8l1.6 1.1-.65-.1.75.4.95.35" fill="url(#c)"/><linearGradient id="d" gradientUnits="userSpaceOnUse" gradientTransform="matrix(.00182 .00165 -.0022 .0027 82.4 24.95)" x1="-819.2" x2="819.2"><stop offset="0" stop-color="#210305"/><stop offset=".584" stop-color="#150706"/><stop offset=".933" stop-color="#492e1f"/></linearGradient><path d="M83.15 27.8l.05-.1v-.05l.1-.2q.75-1.75.6-2.85v-.1q-.15-1.05-1.75-.85l.6.7-.2.15-2.1-1.45 2.35.35-.5-.45 1.1.45q-.9-.95-2.2-1.3l-.1-.1.1.05q1.1.2 2.05.75h.05l.75 1q.95 1.9-.85 3.95l-.05.05" fill="url(#d)"/><linearGradient id="e" gradientUnits="userSpaceOnUse" gradientTransform="matrix(.00401 0 0 .00198 80.1 22.95)" x1="-819.2" x2="819.2"><stop offset="0" stop-color="#2d160b"/><stop offset=".957" stop-color="#1f0004"/></linearGradient><path d="M79.85 23.1l-2.3-1.45.85.25.35.2.8.3 2.1.6q-.7-.45-.95-.55l.6.1-.4-.3-.15-.05-1.2-.45 1.4.1.4.1 1.3.3.6.55q-.95-.55-2.05-.75l-.1-.05.1.1q1.3.35 2.2 1.3l-1.1-.45.5.45-2.35-.35 2.1 1.45-.15.05-.85-.4-1.7-1.05" fill="url(#e)"/><linearGradient id="f" gradientUnits="userSpaceOnUse" gradientTransform="matrix(.00194 0 0 .00215 81.35 25.3)" x1="-819.2" x2="819.2"><stop offset="0" stop-color="#42281f"/><stop offset=".035" stop-color="#2a140f"/><stop offset="1" stop-color="#180000"/></linearGradient><path d="M79.75 23.5l1.8.65.85.4q-.2.8.55 2.5l-.15-.3q-.75-1.5-1.65-2.25l-.05-.05-1.35-.95" fill="url(#f)"/><linearGradient id="g" gradientUnits="userSpaceOnUse" gradientTransform="matrix(.00435 .00357 -.00212 .00287 80.05 25.35)" x1="-819.2" x2="819.2"><stop offset="0" stop-color="#42281f"/><stop offset=".443" stop-color="#25100d"/><stop offset="1" stop-color="#533223"/></linearGradient><path d="M83.2 27.65v.05l-.05.1-.05.05q-.8-.85-1.3-2.2l.5 1.85-.85-1.75.7 2.6-1.45-3.45.45 1.7-.65-1.3.6 2.3-.9-1.7.8 1.95-1.3-1.9.2.65-.35-.5-.9-1.05.1.05-.15-.15h-.05l-.9-.75-.65-.75h.1l.7.35-.85-.8.35.1.9.2-1-.9 2.7 1.4 1.2.65.05.05q.9.75 1.65 2.25l.15.3v.05l.25.55m-2.5-3.15L78.1 23l.6.7-1.2-.4 1.15 1.05-1.2-.55 2.7 2.25q-.25-.65-.85-1.25.85.5 1.3 1.15-.7-1.6-1.7-2.05l1.8.6" fill="url(#g)"/><linearGradient id="h" gradientUnits="userSpaceOnUse" gradientTransform="matrix(.00227 .00197 -.00352 .00452 84.2 33.45)" x1="-819.2" x2="819.2"><stop offset=".008" stop-color="#64472f"/><stop offset=".616" stop-color="#422f25"/><stop offset="1" stop-color="#645244"/></linearGradient><path d="M84 29.95l-.55-1.15-.3-1 .05-.05q.6 1.1 1.3 1.85l.35.75q.8 1.7.85 3.5l-.05.45q-.15 1.9-.6 3.15.6-2.45-.4-5.3.45 3.75-.35 6.25l-.5 1.15.55-3v-.5q.25-3.85-.35-6.1" fill="url(#h)"/><linearGradient id="i" gradientUnits="userSpaceOnUse" gradientTransform="matrix(.00104 .00293 -.00452 .00177 82.3 29.05)" x1="-819.2" x2="819.2"><stop offset="0" stop-color="#492c22"/><stop offset=".459" stop-color="#64422d"/><stop offset="1" stop-color="#43281a"/></linearGradient><path d="M84.1 31.4l-.65-1.15.4 1.55-.65-1.3.55 2.75q-.45-1.9-1.25-3.55l.65 2.95-1.15-3 .75 3.4q-.55-2.15-1.45-4l-.2-1.45-.6-2.3.65 1.3-.45-1.7 1.45 3.45-.7-2.6.85 1.75-.5-1.85q.5 1.35 1.3 2.2l.05-.05.3 1 .65 2.6m-.95-2.55l-.6-1.5.45 2.7.05-.4.35.9-.15-.9.5.8-.75-2.6.15 1m-1.9-.85l.25 1.15.25.6-.05-.9.8 1.5-.35-1.45.65.9-.65-2.25.15 1.2-1.05-1.9.5 1.85-.5-.7" fill="url(#i)"/><linearGradient id="j" gradientUnits="userSpaceOnUse" gradientTransform="matrix(.00006 .00186 -.00185 .00008 83.15 28.95)" x1="-819.2" x2="819.2"><stop offset="0" stop-color="#533426"/><stop offset=".443" stop-color="#785647"/><stop offset="1" stop-color="#4f3121"/></linearGradient><path d="M83 27.85l.75 2.6-.5-.8.15.9-.35-.9-.05.4-.45-2.7.6 1.5-.15-1" fill="url(#j)"/><linearGradient id="k" gradientUnits="userSpaceOnUse" gradientTransform="matrix(.0014 .00291 -.00183 .00098 82.05 28.6)" x1="-819.2" x2="819.2"><stop offset="0" stop-color="#492c22"/><stop offset=".443" stop-color="#84634c"/><stop offset="1" stop-color="#5e3d29"/></linearGradient><path d="M81.75 28.7l-.5-1.85 1.05 1.9-.15-1.2.65 2.25-.65-.9.35 1.45-.8-1.5.05.9-.25-.6-.25-1.15.5.7" fill="url(#k)"/><linearGradient id="l" gradientUnits="userSpaceOnUse" gradientTransform="matrix(.00063 .00253 -.00264 .00072 80.5 28.25)" x1="-819.2" x2="819.2"><stop offset="0" stop-color="#2a130f"/><stop offset=".439" stop-color="#55301e"/><stop offset="1" stop-color="#38261e"/></linearGradient><path d="M79.9 26.6l-.2-.65 1.3 1.9-.8-1.95.9 1.7.2 1.45.25 1.55q-.4-1.55-1-2.8l-.05-.1-.6-1.1" fill="url(#l)"/><linearGradient id="m" gradientUnits="userSpaceOnUse" gradientTransform="matrix(.00136 .0057 -.00763 .002 80.75 31.9)" x1="-819.2" x2="819.2"><stop offset="0" stop-color="#4b2c1e"/><stop offset="1" stop-color="#2b1205"/></linearGradient><path d="M83.45 28.8l.55 1.15q.6 2.25.35 6.1.05-.85-.25-1.4l-.05-.1-.1-.2-.55-1.25q.2 3.45-.3 4.75l-.15.25.05-2.5-.45 2.15h-.05l-.5.15-.2.6v.05l-.05.1-.05-.35q.75-2.95.1-6.5l-.25-1.2-.25-1.55q.9 1.85 1.45 4l-.75-3.4 1.15 3-.65-2.95q.8 1.65 1.25 3.55l-.55-2.75.65 1.3-.4-1.55.65 1.15-.65-2.6m-.3 10l.15-.15-.15.35v.05l-.05.15v-.25l.05-.15m-3-10.3h-.05v-.1l.05.1" fill="url(#m)"/><linearGradient id="n" gradientUnits="userSpaceOnUse" gradientTransform="matrix(-.00209 .00694 -.00246 -.00073 80.8 34.15)" x1="-819.2" x2="819.2"><stop offset="0" stop-color="#6d4633"/><stop offset=".973" stop-color="#331107"/></linearGradient><path d="M80.5 27.7l.05.1q.6 1.25 1 2.8l.25 1.2q.65 3.55-.1 6.5l-.5 1.65-.1.25-.05.05-.05.1v.05h-.1v-.05l.05-.25.05-.4.05-2.15-.05-.9.05-.2-.05-.7-.05-.1.1-3.6q.4 1.45.5 5.35l.2-2.3q-.3-5.05-1.95-7.7l-.35-1 1.05 1.3" fill="url(#n)"/><linearGradient id="o" gradientUnits="userSpaceOnUse" gradientTransform="matrix(-.00098 .0036 -.004 -.0012 79.95 35.95)" x1="-819.2" x2="819.2"><stop offset="0" stop-color="#563022"/><stop offset="1" stop-color="#2e150c"/></linearGradient><path d="M79.75 41.85l-.05.15v-.25l.1-.6.05-.8q-.15.25-.15.4v-.95l-.05.1-.05.15-.05.2.05-.5-.15-.55-.05.05v-.3h-.05l-.15-.5v-.1h-.05v-.05l-.15-.55-.05.35h-.05l-.05-.2v-.05l.05.1.05-.4.05-.05-.15-2.6.5 2.45V34.8l.4 3.35.2-2.3.05 4.3.45-3.6v3.5l.1-.35.05-.5.3-3.85.05.3.05.1.05.7-.05.2.05.9L81 39.7l-.05.4-.05.25-.05.05v.2l-.1.15-.3.45.1-.9-.45 1.1v-.2l-.05.1v.05H80l-.05.15-.2.35m-1.25-5.8l.05.75v.15l.15.4-.3-.5-.2.3v-.35l.1-.2.05-.15.15-.4" fill="url(#o)"/><path d="M83.1 38.95q-.15-1.1-.55-1.2L83 35.6l-.05 2.5.15-.25q.5-1.3.3-4.75l.55 1.25v1.3l-.45 2.2q.3 2.05-1.15 3.5.7-1 .8-2.15V39l.15-.35-.15.15-.05.15m-1.4-.65l.05.35-.55 1.3.5-1.65m-.85 2.1l.05-.05v.05h-.05" fill="#1f0d05"/><linearGradient id="p" gradientUnits="userSpaceOnUse" gradientTransform="matrix(0 .00598 -.01012 0 72.65 28.3)" x1="-819.2" x2="819.2"><stop offset="0" stop-color="#421e0f"/><stop offset=".49" stop-color="#825640"/><stop offset="1" stop-color="#76432a"/></linearGradient><path d="M80.9 35.35l-.2-1.3-.3-1.35-.5-1.75.5 2.45.2 1.75-.55-2.35.35 2.95-.95-3.7q.35 1.9.15 2.9l-.45-2.5-.3-1.05-.1-.3.1.5.05.35.25 2.35v.25l-.65-2.95.1 2.9-.8-3.95.1 2.25-.7-3.6.05.55q.25 2.5-.15 3.95l-.35-1.65-.3 1.95-.3-2.05-.1 1.45-.4-.95-.1 1.8v.05l-.1.35h-.05l.05-2.8h-.05q-.25.15-.45 2L74.8 32h-.05l-.2.65-.15.75-.1-1.35h-.05v-.4l.15-2.75.3 2.45.1-2 .05.15.3 2.2.1-1.55.15 1.5.05-2.4-.1-1-.2-.75-.25-.9-.25-.65.1.65.05.9.05.75-.1.65-.2-1.05.1-.1-.6-3.3.1.65-.3-1.65 1.25 2.3.3.85.1.35.25 1v-.8l-.1-.65-.25-.9 1 2.25v.05l.15.3-.1-.1-.2-.35-.25-.55-.05 1.05-.05.3-.05-.1v-.2l-.15-.35.05.35v.2l.05.75v1.75l.2-1 .2.75.2 1.8.1-1.35-.05-1.25.05-.85.05-.05.15.75.05.15.05.45.15 1.2.05-.2.05-.8-.05-1-.05-.15-.05-.35h.05v-.35l-.05.15-.1-.55h.05l-.05-.05v-.15l-.2-.95h-.05l.15 1.45-.15-.3v-.1l-.05-.3v-.05l-.7-2.55 1.35 2.55.15.4.1.3-.05-.3-.1-.4q-.35-1.35-1.3-3.2 1 1.25 1.85 3.2l.2.4-.1-.4-1.15-3-.05-.15v-.05l-.05-.05-.1-.15h.05l1.9 2-.8-1.75.45.4 1.3 1.3.35 1q1.65 2.65 1.95 7.7l-.2 2.3q-.1-3.9-.5-5.35l-.1 3.6-.05-.3m-12.25-3.4l-.2.5-.1.3.05-.3.05-.55v-.55l-.05-.7-.1.7-.1.25-.1.35-.1.5-.4.85.15-.85v-1.1l-.05-.4-.05.4-.1.55-.05.15-.15.4-.25.4.1-.4.05-.35.1-2.1-.05.1-.5 2.1-.05.25-.45 1.25.2-3.5-.6 3-.05-3.1v-.2l-.15 1-.35 1.35-.15.35-.2.5.05-.5.05-.35.05-1.35-.1-1.15v-.1l-.05.1-.2 1.15-.4 1.35-.3 1.5-.1.1.05-1.6.15-1.35.05-1.15-.05-.15.05-.4-.25.55-.25 1.15h-.05v-1.15q.05-.75.25-1.5l.1-.35v-.05l.75-1.5q-.3.8-.45 1.55l-.05.35-.15.8.45-.8.05-.35q.35-1.15 1.65-3.2l.6-.9-.1.4q-.55 1.75-.6 3.25l1.2-3.8q-.6 2.25-.75 4.25v.35l-.05.5.15-.5.05-.35q.2-1.15.55-2.35l-.2 1.25-.2 1.45-.05.4-.15 1.8-.1.7q.3-1.45.75-2.45v-.05l.1-.25.05-.1.05 2.05.3-1.4.15 1.6.25-1 .15-.9.05-.35.2 1.55.05-1.2v-.9l-.05-.95-.05-.7-.1.7-.25.95v.2l-.05.15v-.2q.1-2.3.55-4.8-.2 2.7.05 3.4l.1.4.35-3.65.25 4.65v.2l-.1.25-.15-3-.3 3.3v.05l.05.6.15-.95-.05 2.2.35-1.65v.1l.15 1.75.3-4.2-.3 1.1q.25-2 .15-4.3l.25 3.3.05 1.25v.35l-.05.6v.25l.05-.25.1-.6v-.35l.1-4.8.5 4.8v.6l-.05.25v-.5l-.05-.3-.1-.95-.2-1.05-.05 1.05-.05.95v.3l-.05.6-.05.8-.1 1.1.1-.2.3-.9.1-.75.25 1.15.2-1.2.2.8v.25l.05.65h-.05v.35l.05.45-.05.45.35-1.2.1 1.3.2-.95.15.9v-.4l.25-.3v.2l-.1.55-.05.25-.05.3-.3.85.1-.85v-.1l-.05-.45-.05-.1v.1l-.1.55-.05.05-.25.8.05-.65.05-.2v-1.1l-.05-.15v.15l-.05.55-.1.55-.05.05-.25.55.1-.6-.05-.55v-.55l-.05-.2v.2l-.15.55-.2.55-.05.05v-.05l.05-.55.05-.55-.05-.5-.05.5-.15.55-.2.55-.4.6.1-.6.05-.55.05-.55-.15-.8v.8l-.1.55-.2.55-.15.3.05-.3v-.55l-.05-.55-.1-.35-.05.35-.1.55-.15.4-.05.15-.1.1-.15.2.1-.3.05-.55.05-.55-.05-.8-.05-.3-.1 1.1-.1.55h-.05l.05.05m10.1-5.75l.35.55.45.95.15.15-1-1.75.05.1m-.35 2.05l.15.6.2.9.1.5.05.15-.55-1.4-.05.75-.3-.9-.2-.4-.05-.2-.2-.4-.4-.7.2.7.15.4.15.6.2.9.45 2.3v-1.2l.5 1.05-.35-1.8.4.55.3.5.75 1.5-.45-1.7.5.95-1.1-3.05-.25-.6-.2-.4-.55-1.05.4 1.05.15.4m1.7.15v.1h.05l-.05-.1m-.85-.55L78.1 26.2l.8 1.65.45 1 1 2.7.05.15.5 2.25-.5-3-.65-2.1-.35-.7-.15-.3m-5.45 1v-1q-.05-2.05-.75-4.6l1.1 2.8v1.05l-.35-1.4h-.05l.1.95.05.9.05.7v.1l-.05.25-.05.3.25 3.5-.05-2.1.15 1.05v.4l.05.35v.05l-.15.25v.05l-.25.55v-1.1h-.05l-.15.25.05-.5v-2.2l-.1-.8-.05-.4-.1-.5-.15-.7-.2 1.1v-.35l-.25-3.45.8 3.55.05.35.05.6v.25l.05-.25m-2.1.25l-.15-1.9-.1-3.85.45 1.65-.2 4.1m.95 1.4l.4-1.4.3 2.6.1-1.9.1 2.55-.05.1-.35.65v-.65l-.1-1.1-.05-.25-.05-.3v.4l-.5 1.7v-.45L72.4 32v-.1l-.05-.45v-.35l-.05-.85.05-.05-.35-4.6.1.85.1.8v.2l.05-.15v-.05l.05-.65-.1-3.25.7 4.55.05.35.05.5v.05l-.05.1-.45-1.85.05 1.35.1 2.1m.4-2.1v.1-.2.1m-.55-.25l-.1-.1.15.35-.05-.25M71 22.8l.5 3.8-.2 1.65-.2-1.6-.2 1.25.1-5.1m-3.45 4.9h-.05v-.05l-.05-.85-.05-1.4v-.1l.4-1.45q-.35 2.25-.25 3.75v.1m.45-1.85l-.35 1.85h-.05q.15-1.75.6-3.45l-.1 2.55-.1-.95m0 2.8l.05-.4.05-1.1.05.75.05.35-.2.4m-2.05-.4l.05-.35q0-1.15.3-2.5-.55 1.15-.95 2.5l-.1.35-.05.05v-.05l.15-1.3-.35.95-.1.35-.35 1.5-.05.35-.15 1.5.85-2.85.1 1 .05 1.15-.05.8.25-.8.25-1.15.1-.8.15 2.5.55-4.75-.65 1.75v-.2M64.6 25.1l-.45.85-.5 1.3-.2.65-.1.35-.2.75.35-.75.05-.1v.1l-.3 1.5-.15 1.1-.05-1.1-.6 1.9.25-1.75.05-.15.3-1.25.1-.25.1-.35.4-1.05v-.05l.05-.15.3-.7h.05l.55-.95v.1" fill="url(#p)"/><linearGradient id="q" gradientUnits="userSpaceOnUse" gradientTransform="matrix(.00899 0 0 .0038 72.25 19.1)" x1="-819.2" x2="819.2"><stop offset="0" stop-color="#411d0b"/><stop offset=".941" stop-color="#733c29"/></linearGradient><path d="M72.15 17.2l-.5.4q.6-.35 1.7-.4-.65.25-1.1.7l-.35.45.65-.35 1.3-.3-.9.45-.5.4-.2.2.7-.1 1.35-.05 1.15.1 1.8.35L75.4 19q1.2.05 2.3.75l-2.05-.3q1.15.3 2.1.95l.4.3-1.05-.3 1.7 1h-.05l-2.35-.8q.55.65 1.8.95l1.35.85-.8-.3-.35-.2-.85-.25-.15-.1-.55-.25h-.1l-.15-.15-.75-.55-.3-.2-.6-.25h-.1l-.3-.05h.9l-1.2-.4 2.6.45-2.35-.85h1.75l-.25-.05-2.25-.2 1.25-.2h-1.75L71.5 19l.85-.6-1.5.4.8-.65-1.4.45.9-.8-1.75.85q.1-.5.7-1-.75.4-1.05 1.05l-.65-.4.3.5-1.1-.8.85 1q-.5-.4-1.15-.5l.6.6-.95-.5.55.65q-.65-.35-1.25-.4l.65.55-1.2.1.25.25-.9.4-.25-.05.1-.1.25-.25.15-.15.2-.2.25-.45.2-.45q.1-.1.3-.1l.3-.1.4-.3.15-.3.1-.15.55-.1.6.2.4.25.3-.15.15-.1q.4-.3.45-.3l.5-.15.35-.05 1.55-.3h.1q.9-.75 1.65-.65l-1.65 1" fill="url(#q)"/><linearGradient id="r" gradientUnits="userSpaceOnUse" gradientTransform="matrix(.00432 0 0 .0031 62 23.85)" x1="-819.2" x2="819.2"><stop offset="0" stop-color="#451409"/><stop offset="1" stop-color="#2e120b"/></linearGradient><path d="M57.95 28.7l-.15-1.1.1-.75q.55-2.35 3.3-3.85.25-1.75 1.75-2.6.35-.2.75-.35l1.45-.3-.25.25h-.4l-.8.2-.65.3q-.55.35-.85 1l-.4.85q.65-.75 1.35-.95l.25-.1-.25.15-.6.55.6-.45.55-.15.35-.1-.9.6 1.45-.45-.6.4.55-.2 1 .1-.3.1h-.1l-.6.05-.85.2-.45.15q-.55.2-1 .55l.8-1.05-.85.8.2-.55-.9 1.5.45-.3-.85.8 1.75-.7-1.65 1.15-.15.1-.9.85.45-.8-1.65 1.45 1.75-2-.45.35q-1.05.85-1.8 2l-.1.45-.05.1-.05 1.05-.05.1-.05.15-.05.05-.15.4" fill="url(#r)"/><linearGradient id="s" gradientUnits="userSpaceOnUse" gradientTransform="matrix(.00195 0 0 .00142 63.9 21.1)" x1="-819.2" x2="819.2"><stop offset="0" stop-color="#452816"/><stop offset=".471" stop-color="#663f27"/><stop offset=".973" stop-color="#471f09"/></linearGradient><path d="M67 19.5l-1.5.65 2.8.1 1.25.35h-.1l-.4-.1-3.05-.1-.4.1q.75.2.95.55-1.2-.5-1.8-.25.85 0 1.3.5L65 21.15q.4.35 1.25.4l-.7.2-1-.1-.55.2.6-.4-1.45.45.9-.6-.35.1-.55.15-.6.45.6-.55.25-.15-.25.1q-.7.2-1.35.95l.4-.85q.3-.65.85-1l.65-.3.8-.2h.4l-.1.1.25.05.9-.4L67 19.5m-2.9 1.95l.45-.05.6.05-.7-.45h.7l-.6-.1-.85-.1 1.85-.3-1.05-.1-.8.05h-.15l-.45.3-.7.8q.3-.25.7-.35l.6-.1h.2l-.4.2h.2l.6-.15-.2.3m6.5-.55l.05.05-.6-.2.55.15" fill="url(#s)"/><linearGradient id="t" gradientUnits="userSpaceOnUse" gradientTransform="matrix(.00194 0 0 .00072 63.95 20.95)" x1="-819.2" x2="819.2"><stop offset="0" stop-color="#583521"/><stop offset=".471" stop-color="#7d4b39"/><stop offset=".988" stop-color="#522a13"/></linearGradient><path d="M64.3 21.15l-.6.15h-.2l.4-.2h-.2l-.6.1q-.4.1-.7.35l.7-.8.45-.3h.15l.8-.05 1.05.1-1.85.3.85.1.6.1h-.7l.7.45-.6-.05-.45.05.2-.3" fill="url(#t)"/><path d="M63 23.25h-.05l-.1.05-1.75.7.85-.8-.45.3.9-1.5-.2.55.85-.8-.8 1.05q.45-.35 1-.55l.45-.15.85-.2.6-.05-.45.2-.15.1-.85.55-.3.2-.25.2-.1.1-.05.05" fill="#0f0702"/><linearGradient id="u" gradientUnits="userSpaceOnUse" gradientTransform="matrix(-.00255 .00543 -.00421 -.00198 64.9 25)" x1="-819.2" x2="819.2"><stop offset="0" stop-color="#1c0e05"/><stop offset="1" stop-color="#62331e"/></linearGradient><path d="M65.55 21.75l.7-.2.7-.15.4-.05.95-.05-1.5 2.9.1-.4-.6.9q-1.3 2.05-1.65 3.2.1-1.35 1.2-3.5-.7 1-1.25 2.05h-.05l-.1.25-.1.15-.45 1.05-.1.35-.15.5v-.2l.05-.3.1-.35.5-1.55.25-.55q.7-1.45 1.8-3-1.05.95-1.75 2.05l-.55.8-.35.65-.05.1-.2.45-.4 1.05-.1.35-.05.05h-.05l.05-.05.05-.35.3-1.05.35-1 .1-.3.2-.4.7-1.15 1.1-1.45-1.1.85-.9.75-.05.05-1.5 1.65-.75 1-.35.55.25-.55.55-1q.7-1.2 1.65-2.15l.2-.2.85-.75.95-.7-.95.35-.85.5-.3.15-.3.2-.05-.05.1-.1.25-.2.3-.2.85-.55.15-.1.45-.2h.1l.3-.1" fill="url(#u)"/><linearGradient id="v" gradientUnits="userSpaceOnUse" gradientTransform="matrix(.00383 0 0 .00711 58.15 29.75)" x1="-819.2" x2="819.2"><stop offset="0" stop-color="#7d5440"/><stop offset=".02" stop-color="#4f2111"/><stop offset=".973" stop-color="#72391d"/></linearGradient><path d="M58.5 30.75l-.1.15-.1.15-.4.7-.4.95-.15.4-.1.35-.2.55.2-.65.1-.35.15-.55.45-1.6.35-1.05-.3.65-.6 1.55-.2.55-.05.2-.2.8-.1.45-.2.9.15-1.1.05-.5.2-1v-.15l.25-.85.2-.7v-.05l.05-.1.55-1.25.4-.7.15-.2.05-.05.15-.3.05-.05.05-.05.2-.35.3-.35-1.2 1.15v-.05l.05-.1.45-.8.1-.1.25-.4.4-.55.1-.1.25-.3.05-.05 1.15-1.3.15-.1 1.65-1.15.1-.05-.05.05-.2.15-.25.2-1.85 2.2-.6 1-.25.45-.3.6-.1.35-.05.05-.05.15-.05.1-.3.85-.1.35-.25.9-.05.1" fill="url(#v)"/><radialGradient id="w" gradientUnits="userSpaceOnUse" gradientTransform="matrix(.02101 0 0 .01144 69.9 20.95)" spreadMethod="pad" cx="0" cy="0" r="819.2" fx="0" fy="0"><stop offset="0" stop-color="#120b05"/><stop offset="1" stop-color="#542b1b"/></radialGradient><path d="M63 23.3l-.3.15.2-.15.05-.05H63l.05-.05.05.05-.1.05m-.3 5.95l.15-.95h.05l-.2.95m10.35-.85v-.6h.05v.35l-.05.25m.7.7v-.25h.05l-.05.25m-1.5-1.8l-.05.15v-.2l.05.05m-2.15 1.55l-.05.25v-.25h.05" fill="url(#w)"/><linearGradient id="x" gradientUnits="userSpaceOnUse" gradientTransform="matrix(-.00163 .00922 -.01044 -.00204 62.25 30.35)" x1="-819.2" x2="819.2"><stop offset="0" stop-color="#49200a"/><stop offset=".612" stop-color="#754d39"/><stop offset=".988" stop-color="#5f3016"/></linearGradient><path d="M62.9 28.3l.05-.05.1-.35.4-1.05.2-.45.05-.1.35-.65.55-.8q.7-1.1 1.75-2.05-1.1 1.55-1.8 3l-.25.55-.5 1.55-.1.35-.05.3v.2l.15-.5.1-.35.45-1.05.1-.15.1-.25h.05q.55-1.05 1.25-2.05-1.1 2.15-1.2 3.5l-.05.35-.45.8.15-.8.05-.35q.15-.75.45-1.55l-.75 1.5v.05l-.1.35q-.2.75-.25 1.5v1.45l.05-.3.25-1.15.25-.55-.05.4v.15l-.15 1.15-.3 1.35-.1.25-.05.15-.15-2.7-.15.95-.25 1.15-.05.2-.25 1.05.25-2.65-.95 3 .4-3.55-.75 3.2v-2.4l-.25 1.35-.35 1.6-.3.9.25-3.1-.7 2.7v-.25l.15-1.85.05-.5.1-.55.05-.3.15-1.15.3-1.45.05-.05.05-.35.15-.55-.2.55-.1.35-.05.05-.45 1.45-.15.6-.15.55-.05.15-.25 1.2-.35 2.05-.1 1.55-.15-1.4-.05-.2v-1.9l-.15 1.05-.1 1.15.05 1.35-.15-.95-.05-.35-.05-2.25-.3 2.4-.05 2.7.1.8v.15l-.15.55-.1.55v.35l-.05.55-.05-.25-.2-1.1-.15-1.5-.05-1.25v-.75l.05-.7.05-.7.3-2.3.1-.5.1-.45.05-.25.25-.9.1-.35.3-.85.05-.1.05-.15.05-.05.1-.35.3-.6.25-.45.6-1 1.85-2.2.25-.2.3-.15.1-.05.3-.2.3-.15.85-.5.95-.35-.95.7-.85.75-.2.2q-.95.95-1.65 2.15l-.55 1-.25.55.35-.55.75-1 1.5-1.65.05-.05.9-.75 1.1-.85L64.6 24l-.7 1.15-.2.4-.1.3-.35 1-.3 1.05-.05.35-.05.05-.15.95.2-.95m-3.05-.55l-.05.15-.2.35-.05.05-.25.55-.05.1-.3.8-.05.2-.25.95-.15.55-.1.5-.05.25v.1l-.05.5q-.3 2.8 0 5.35l.2-4.45q.15-1.2.45-2.3l.2-.5-.1 1.35v1.15l.4-2.85v1.5l.05.2.05.65.05.45.1-1.1.25-1.35.05-.4.15-.75.1-.2.4-1.25.05-.05.1-.35.05-.2-.9 1.45.1-.35.2-.5.05-.05.15-.35.45-1.05.5-1 .8-1.35-1.2 1.35-.65 1-.5.9M64.6 25l-.55.95H64l-.3.7-.05.15v.05l-.4 1.05-.1.35-.1.25-.3 1.25-.05.15-.25 1.75.6-1.9.05 1.1.15-1.1.3-1.5v-.1l-.05.1-.35.75.2-.75.1-.35.2-.65.5-1.3.45-.85V25m-2.05.85l-.55 1-.5 1.05-.05.35-.05.05-.35 1.45v.1l-.4 2.4.5-1.35.05-.1-.05 1.75.65-2.7.1 1.05-.05.9 1.1-4.6-.75 1.6.15-.5.05-.05.05-.35.35-1.05.4-1 .5-1.1-.7 1.1-.45 1-.35 1.05-.1.35-.05.05-.4 1.45-.05.2v-.2l.25-1.45.05-.05.05-.35.35-1.05.4-1 .35-.75-.5.75" fill="url(#x)"/><path d="M70.05 20.75l.6.2-.05-.05-.4-.45.65.3-.25-.3-.1-.05-.1-.1-.6-.4-.5-.2 1.55-.15 1.45.85-.6-.1 1.05.65.25.15-1.05-.35 1.25.9-.7-.25.7.55-1.5-.75h.65l-1.25-.95h.55l-1-.35-.7-.1.55.3.8.65-.4-.15.55.6-1.05-.1-.5-.15-.3-.05-.55-.1-.5-.05-2.1-.15.6.4q-.35.3-1.1 0 .35.4 1 .4l-.7.15q-.85-.05-1.25-.4l1.05.15q-.45-.5-1.3-.5.6-.25 1.8.25-.2-.35-.95-.55l.4-.1 3.05.1.4.1h.1l.5.15" fill="#26120b"/><path d="M68.3 21.3l-.95.05-.4.05q-.65 0-1-.4.75.3 1.1 0l-.6-.4 2.1.15.5.05.55.1.3.05.5.15 1.05.1-.55-.6.4.15-.8-.65-.55-.3.7.1 1 .35h-.55l1.25.95h-.65l1.5.75.85.6-.6-.35-.15-.05-1-.35-1.85-.35-.1-.05-1.3-.1h-.75"/><linearGradient id="y" gradientUnits="userSpaceOnUse" gradientTransform="matrix(.00241 -.0033 .00116 .00093 73.3 19.55)" x1="-819.2" x2="819.2"><stop offset="0" stop-color="#170304"/><stop offset=".98" stop-color="#683522"/></linearGradient><path d="M68.35 19.6L67 19.5l-1.05.25-.25-.25 1.2-.1-.65-.55q.6.05 1.25.4l-.55-.65.95.5-.6-.6q.65.1 1.15.5l-.85-1 1.1.8-.3-.5.65.4q.3-.65 1.05-1.05-.6.5-.7 1l1.75-.85-.9.8 1.4-.45-.8.65 1.5-.4-.85.6 1.75-.15H75l-1.25.2 2.25.2.25.05H74.5l2.35.85-2.6-.45 1.2.4h-1.9l-.45.1h-.15q-.95-.8-1.75-1.1l-2.15-.05H69l-.6.55h-.05" fill="url(#y)"/><linearGradient id="z" gradientUnits="userSpaceOnUse" gradientTransform="matrix(.00276 0 0 .00133 70.7 19.9)" x1="-819.2" x2="819.2"><stop offset="0" stop-color="#552912"/><stop offset=".957" stop-color="#462111"/></linearGradient><path d="M72.7 20.2l-1-.5.8.75h-.4l.65.5-1.05-.65.6.1-1.45-.85-1.55.15.5.2.6.4-1.25-.5-.1-.05.1-.05q.2-.35.8-.7l-.9.25-.55.35h-.1l.6-.55h.05l2.15.05q.8.3 1.75 1.1h-.25" fill="url(#z)"/><linearGradient id="A" gradientUnits="userSpaceOnUse" gradientTransform="matrix(.00343 .00084 -.0002 .00089 67.95 20.2)" x1="-819.2" x2="819.2"><stop offset="0" stop-color="#582e1a"/><stop offset=".792" stop-color="#744e39"/><stop offset=".973" stop-color="#573d38"/></linearGradient><path d="M70.05 20.75l-.5-.15-1.25-.35-2.8-.1 1.5-.65 1.35.1h.15l.55.15.1.05 1.25.5.1.1.1.05.25.3-.65-.3.4.45-.55-.15m-1-.8l-1.4-.2 1.4.5.3.1.8.3.1.1-.2-.4-.8-.35-.2-.05" fill="url(#A)"/><linearGradient id="B" gradientUnits="userSpaceOnUse" gradientTransform="matrix(.00092 0 0 .00046 69.2 19.4)" x1="-819.2" x2="819.2"><stop offset="0" stop-color="#6d4732"/><stop offset=".973" stop-color="#471f09"/><stop offset=".98" stop-color="#562911"/></linearGradient><path d="M68.5 19.6l.55-.35.9-.25q-.6.35-.8.7l-.1.05-.55-.15" fill="url(#B)"/><linearGradient id="C" gradientUnits="userSpaceOnUse" gradientTransform="matrix(.0016 0 0 .0006 68.95 20.25)" x1="-819.2" x2="819.2"><stop offset="0" stop-color="#69412d"/><stop offset=".957" stop-color="#8a6c60"/></linearGradient><path d="M69.25 20l.8.35.2.4-.1-.1-.8-.3-.3-.1-1.4-.5 1.4.2.2.05" fill="url(#C)"/><linearGradient id="D" gradientUnits="userSpaceOnUse" gradientTransform="matrix(.00026 .00421 -.00462 .00027 71.8 25.25)" x1="-819.2" x2="819.2"><stop offset="0" stop-color="#1c0e05"/><stop offset="1" stop-color="#6e3a23"/></linearGradient><path d="M69.55 28.1v-.2l-.25-4.65-.35 3.65-.1-.4q-.25-.7-.05-3.4-.45 2.5-.55 4.8v.2l-.05.15-.05-.35-.05-.75v-.35l.1-2.55q-.45 1.7-.6 3.45l-.05-.1q-.1-1.5.25-3.75l-.4 1.45-.05.25q-.35 1.2-.55 2.35l-.05.35-.15.5.05-.5v-.35q.15-2 .75-4.25l-1.2 3.8q.05-1.5.6-3.25l1.5-2.9h.75l1.3.1.1.05 1.85.35 1 .35.15.05.6.35-.85-.6.75.25 1.95.95.1.1-.05.05.95.5-.3-.3 1.05.7.9.75h.05l.05.1.9 1.05.35.5.6 1.1-1.05-1.3-1.3-1.3-.45-.4.8 1.75-1.9-2-.05-.05v.05l.1.15.05.1.05.15 1.15 3 .1.4-.2-.4q-.85-1.95-1.85-3.2.95 1.85 1.3 3.2l.1.4.05.3-.1-.3-.15-.4-1.35-2.55.7 2.55v.05l.05.3-.15-.3v-.05l-1-2.25.25.9.1.65v.8l-.25-1-.1-.35-.3-.85-1.25-2.3.3 1.65-.1-.65.6 3.3-.1.1-.25-1.35v-.05l-.05-.2-.1-.55v-.05l-.05-.25v.3l.05.35-1.1-2.8q.7 2.55.75 4.6v1h-.05l-.05-.6-.05-.35-.8-3.55.25 3.45h-.05v.7l-.05.1v.15l-.05-.5-.05-.35-.7-4.55.1 3.25-.05.65h-.05l-.1-.8-.1-.85-.1-1.15V25l-.45-1.65.1 3.85-.05-.85v.25l-.5-3.8-.1 5.1-.1.6v-.6l-.5-4.8-.1 4.8v.35l-.1.6h-.05l.05-.6v-.35l-.05-1.25-.25-3.3q.1 2.3-.15 4.3l-.1.45m6.85-4.35h-.05v.05l.05-.05m1.25.95l-.1-.1.05.1h.05" fill="url(#D)"/><linearGradient id="E" gradientUnits="userSpaceOnUse" gradientTransform="matrix(.00153 -.00128 .00133 .00174 78.05 17.7)" x1="-819.2" x2="819.2"><stop offset="0" stop-color="#76452e"/><stop offset=".98" stop-color="#290500"/></linearGradient><path d="M79.7 18.15l-.05-.05h-.1L76.5 18l1.3-.3q-1.15-.25-2.4.6.55-.8 1.7-1.1-1.05 0-2 .75l.8-.75q.3-.25.7-.35l1.4.35q.8.3 1.4.8l.1.05.3.1h-.1" fill="url(#E)"/><linearGradient id="F" gradientUnits="userSpaceOnUse" gradientTransform="matrix(.00375 0 0 .00156 74.7 17.45)" x1="-819.2" x2="819.2"><stop offset="0" stop-color="#5c2e1b"/><stop offset=".349" stop-color="#7d4e39"/><stop offset=".98" stop-color="#6e3a21"/></linearGradient><path d="M73.8 16.2h.05q.6.1 1.1.65h1.65q-.4.1-.7.35l-.8.75q.95-.75 2-.75-1.15.3-1.7 1.1 1.25-.85 2.4-.6l-1.3.3q-.65.2-1.05.7l-1.15-.1-1.35.05-.7.1.2-.2.5-.4.9-.45-1.3.3-.65.35.35-.45q.45-.45 1.1-.7-1.1.05-1.7.4l.5-.4 1.65-1m-.65 2.1l.9-.5-.45.55 1.6-.75-1.25-.2 1.1-.05-1.2-.2H75l-1.05-.35 1.15.2-2.65.05 1.15-.15-.9.2h1l-.15.1q-.65.3-1.05.7.65-.45 1.25-.5l-.55.25 1.05-.1-1.05.65-.05.1" fill="url(#F)"/><linearGradient id="G" gradientUnits="userSpaceOnUse" gradientTransform="matrix(.00256 0 0 .00073 77.75 18.7)" x1="-819.2" x2="819.2"><stop offset="0" stop-color="#7d4b33"/><stop offset=".478" stop-color="#946e58"/><stop offset=".98" stop-color="#693f2a"/></linearGradient><path d="M77.9 18.25l1.45.35-1.8-.1 2.2.4-1.55-.05 1.55.45-2.8-.55-1.1-.15.95-.2-1.05.1 3.45-.2-1.3-.05" fill="url(#G)"/><linearGradient id="H" gradientUnits="userSpaceOnUse" gradientTransform="matrix(.0017 0 0 .00107 73.8 17.5)" x1="-819.2" x2="819.2"><stop offset="0" stop-color="#683926"/><stop offset=".412" stop-color="#9c6e57"/><stop offset=".98" stop-color="#784832"/></linearGradient><path d="M73.2 18.2l1.05-.65-1.05.1.55-.25q-.6.05-1.25.5.4-.4 1.05-.7l.15-.1h-1l.9-.2-1.15.15L75.1 17l-1.15-.2 1.05.35h-1.15l1.2.2-1.1.05 1.25.2-1.6.75.45-.55-.9.5.05-.1" fill="url(#H)"/><linearGradient id="I" gradientUnits="userSpaceOnUse" gradientTransform="matrix(.00372 0 0 .00249 74.75 21.75)" x1="-819.2" x2="819.2"><stop offset="0" stop-color="#72513f"/><stop offset=".957" stop-color="#5f3e30"/></linearGradient><path d="M77.3 23.1l-.35-.1.85.8-.7-.35-.5-.35v-.05q-.85-.85-1.6-1.15l-1.2-.15.85.45-.85-.2.15.2-.75-.25-.7-.55.7.25-1.25-.9 1.05.35-.25-.15-.65-.5h.4l-.8-.75 1 .5h.4l.45-.1h1l.3.05h.1l.55.4.25.3-.3-.15-.95-.15h-.7L76.55 22v.05l.6.6-.65-.35.8.8m-2.8-1.55l.6.15 1.05.35-.95-.6-1-.5-.65-.25-.45-.1.65-.2h-.2l-1-.15.4.55-.6-.2 1 .65-.55-.05.85.35.7-.05.15.05" fill="url(#I)"/><linearGradient id="J" gradientUnits="userSpaceOnUse" gradientTransform="matrix(.00232 0 0 .00108 74.25 21.15)" x1="-819.2" x2="819.2"><stop offset="0" stop-color="#8f7060"/><stop offset=".957" stop-color="#654435"/></linearGradient><path d="M74.35 21.5l-.7.05-.85-.35.55.05-1-.65.6.2-.4-.55 1 .15h.2l-.65.2.45.1.65.25 1 .5.95.6-1.05-.35-.6-.15-.15-.05" fill="url(#J)"/><linearGradient id="K" gradientUnits="userSpaceOnUse" gradientTransform="matrix(.00244 .001 -.00076 .00208 76.85 22)" x1="-819.2" x2="819.2"><stop offset="0" stop-color="#49291c"/><stop offset=".494" stop-color="#5e3d2d"/><stop offset=".941" stop-color="#442b27"/></linearGradient><path d="M79.85 23.1l-.95-.25 1 .95-2.7-1.4-.1-.05h.05l-.6-.3V22l-2.75-1.45h.7l.95.15.3.15-.25-.3-.55-.4.6.25.3.2.75.55.15.15h.1l.55.25.15.1 2.3 1.45m-5.7-2.5l.2.1.95.45 1.55.85-1.45-1.05-.95-.35h-.3m4.35 2.1l-2.05-1.4.8.9 1.25.5" fill="url(#K)"/><linearGradient id="L" gradientUnits="userSpaceOnUse" gradientTransform="matrix(.00165 0 0 .00085 75.5 21.3)" x1="-819.2" x2="819.2"><stop offset="0" stop-color="#4b2b1e"/><stop offset=".494" stop-color="#220400"/><stop offset=".941" stop-color="#5b3a2a"/></linearGradient><path d="M74.45 20.6l.95.35L76.85 22l-1.55-.85-.95-.45-.2-.1h.3" fill="url(#L)"/><linearGradient id="M" gradientUnits="userSpaceOnUse" gradientTransform="matrix(.0028 .00056 -.00027 .00146 75.4 22.95)" x1="-819.2" x2="819.2"><stop offset="0" stop-color="#6b4a39"/><stop offset=".478" stop-color="#1d0602"/><stop offset=".941" stop-color="#5b3a2a"/><stop offset=".957" stop-color="#52362b"/></linearGradient><path d="M75.85 22.7l.75.8.3.3-.95-.5.05-.05-.1-.1-1.95-.95-.15-.2.85.2-.85-.45 1.2.15q.75.3 1.6 1.15v.05l-.75-.4" fill="url(#M)"/><linearGradient id="N" gradientUnits="userSpaceOnUse" gradientTransform="matrix(.00275 0 0 .0017 78.15 20.2)" x1="-819.2" x2="819.2"><stop offset="0" stop-color="#7d4b33"/><stop offset=".478" stop-color="#946e58"/><stop offset=".98" stop-color="#693f2a"/></linearGradient><path d="M78.7 21.2l-.75-.4.65.1-1.6-1.1 1.3.15q-.8-.55-1.65-.8l1.1.2-.75-.45 2.8.65-1-.05 1.05.3-1.55-.05 1.25.45-1.2-.1 1.85.85-1.65-.35 2.05.9-.95-.25.85.4-.85-.1-.95-.35" fill="url(#N)"/><linearGradient id="O" gradientUnits="userSpaceOnUse" gradientTransform="matrix(.0032 0 0 .00145 79.05 21.8)" x1="-819.2" x2="819.2"><stop offset="0" stop-color="#6a443b"/><stop offset=".62" stop-color="#785643"/><stop offset=".957" stop-color="#34151a"/></linearGradient><path d="M80.75 22.2l.15.05.4.3-.6-.1q.25.1.95.55l-2.1-.6-1.35-.85q-1.25-.3-1.8-.95l2.35.8h.05l.7.35h.05l1.2.45m-.75 0h.45l-1.9-.55.85.55 1.55.5-.95-.5" fill="url(#O)"/><linearGradient id="P" gradientUnits="userSpaceOnUse" gradientTransform="matrix(.00105 0 0 .00078 77.35 22.65)" x1="-819.2" x2="819.2"><stop offset="0" stop-color="#614032"/><stop offset=".941" stop-color="#311a14"/></linearGradient><path d="M76.5 22.3l.65.35-.6-.6.6.3h-.05l.1.05 1 .9-.9-.2-.8-.8" fill="url(#P)"/><linearGradient id="Q" gradientUnits="userSpaceOnUse" gradientTransform="matrix(-.0018 -.00142 .00023 -.00032 77.2 24)" x1="-819.2" x2="819.2"><stop offset="0" stop-color="#30160e"/><stop offset=".439" stop-color="#8c6a5e"/><stop offset="1" stop-color="#38261e"/></linearGradient><path d="M76.6 23.5l-.75-.8.75.4.5.35H77l.65.75-1.05-.7m2 1.45l.15.15-.1-.05-.05-.1" fill="url(#Q)"/><linearGradient id="R" gradientUnits="userSpaceOnUse" gradientTransform="matrix(.00516 .00778 -.00937 .00623 77.3 31.15)" x1="-819.2" x2="819.2"><stop offset="0" stop-color="#4c2816"/><stop offset=".49" stop-color="#825640"/><stop offset=".992" stop-color="#5a3727"/></linearGradient><path d="M76.6 24.45h-.05v-.05l.05.05m-.25-.65v-.05h.05l-.05.05" fill="url(#R)"/><linearGradient id="S" gradientUnits="userSpaceOnUse" gradientTransform="matrix(0 .00793 -.01012 0 73.1 30.55)" x1="-819.2" x2="819.2"><stop offset="0" stop-color="#26100b"/><stop offset=".518" stop-color="#805a47"/><stop offset="1" stop-color="#76432a"/></linearGradient><path d="M76.65 24.6l.05.05v.05l-.05-.1" fill="url(#S)"/><linearGradient id="T" gradientUnits="userSpaceOnUse" gradientTransform="matrix(.00328 .00365 -.00296 .00294 78.1 26.8)" x1="-819.2" x2="819.2"><stop offset="0" stop-color="#3c2016"/><stop offset=".129" stop-color="#61433a"/><stop offset=".38" stop-color="#3d2414"/><stop offset=".596" stop-color="#583d30"/><stop offset="1" stop-color="#391d11"/></linearGradient><path d="M77.6 24.7l-.05-.1.1.1h-.05" fill="url(#T)"/><linearGradient id="U" gradientUnits="userSpaceOnUse" gradientTransform="matrix(-.00148 0 0 -.00067 79.75 22.2)" x1="-819.2" x2="819.2"><stop offset="0" stop-color="#6a443b"/><stop offset=".024" stop-color="#735040"/><stop offset=".604" stop-color="#8a7365"/><stop offset=".933" stop-color="#593930"/></linearGradient><path d="M80.95 22.7l-1.55-.5-.85-.55 1.9.55H80l.95.5" fill="url(#U)"/><linearGradient id="V" gradientUnits="userSpaceOnUse" gradientTransform="matrix(.00162 0 0 .00098 80.2 23.65)" x1="-819.2" x2="819.2"><stop offset="0" stop-color="#5c4540"/><stop offset="1" stop-color="#220b08"/></linearGradient><path d="M81.55 24.15l-1.8-.65 1.35.95-1.2-.65-1-.95.95.25 1.7 1.05" fill="url(#V)"/><path d="M78.9 23.9q1 .45 1.7 2.05-.45-.65-1.3-1.15.6.6.85 1.25l-2.7-2.25 1.2.55-1.15-1.05 1.2.4-.6-.7 2.6 1.5-1.8-.6" fill="#250d11"/><path d="M77.25 22.2l-.8-.9 2.05 1.4-1.25-.5" fill="#6a493b"/><linearGradient id="W" gradientUnits="userSpaceOnUse" gradientTransform="matrix(.00151 0 0 .00241 59.45 26.05)" x1="-819.2" x2="819.2"><stop offset="0" stop-color="#2e0b00"/><stop offset=".965" stop-color="#42150a"/></linearGradient><path d="M59.7 25.85l-.05.05-.1.15-.45.6-.1.2-.15.2-.15.15-.2.35-.05.1-.05.1-.05.05-.1.2.05-1.05.05-.1.1-.45q.75-1.15 1.8-2l.45-.35-1.75 2 1.65-1.45-.45.8-.45.45" fill="url(#W)"/><path d="M56.65 35.15q-.2-1.1-.05-2.2v-.1l.25-1.35.05-.05.2-.7.05-.25.7-1.6.1-.2.15-.4.05-.05.05-.15.05-.1.1-.2.05-.05.05-.1.05-.1.2-.35.15-.15.15-.2.1-.2.45-.6.1-.15.05-.05.45-.45.9-.85-1.15 1.3-.05.05-.25.3-.1.1-.4.55-.25.4-.1.1-.45.8-.05.1v.05l1.2-1.15-.3.35-.2.35-.05.05-.05.05-.15.3-.05.05-.15.2-.4.7-.55 1.25-.05.1v.05l-.2.7-.25.85v.15l-.2 1-.05.5-.15 1.1v.25" fill="#471900"/><linearGradient id="X" gradientUnits="userSpaceOnUse" gradientTransform="matrix(-.00223 .00804 -.0076 -.00233 60.15 31.3)" x1="-819.2" x2="819.2"><stop offset="0" stop-color="#683817"/><stop offset=".612" stop-color="#895d44"/><stop offset=".988" stop-color="#703c1b"/></linearGradient><path d="M60.35 26.85l.65-1 1.2-1.35-.8 1.35-.5 1-.45 1.05-.15.35-.05.05-.2.5-.1.35.9-1.45-.05.2-.1.35-.05.05-.4 1.25-.1.2-.15.75-.05.4-.25 1.35-.1 1.1-.05-.45-.05-.65-.05-.2v-1.5l-.4 2.85v-1.15l.1-1.35-.2.5q-.3 1.1-.45 2.3l-.2 4.45q-.3-2.55 0-5.35l.05-.5v-.1l.05-.25.1-.5.15-.55.25-.95.05-.2.3-.8.05-.1.25-.55.05-.05.2-.35.05-.15.5-.9" fill="url(#X)"/><path d="M56.65 34.9l.2-.9.1-.45.2-.8.05-.2.2-.55.6-1.55.3-.65-.35 1.05-.45 1.6-.15.55-.1.35-.2.65.2-.55.1-.35.15-.4.4-.95.4-.7.1-.15.1-.15.05-.1-.05.25-.1.45-.1.5-.3 2.3-.05.7-.05.7v.75l.05 1.25.15 1.5-.4-.75-.05-.05-.2-2.2v-.9l.15-1.35.05-.35.2-.8-.25.55-.1.3-.15.5-.15.5-.1.4-.2 1.2-.2-.65-.05-.3v-.25" fill="#4a1e10"/><linearGradient id="Y" gradientUnits="userSpaceOnUse" gradientTransform="matrix(.00032 .00449 -.0073 .00058 60.15 33.6)" x1="-819.2" x2="819.2"><stop offset="0" stop-color="#5b321c"/><stop offset=".988" stop-color="#4e230d"/></linearGradient><path d="M58.65 39.85v-1.6l-.1-.8.05-2.7.3-2.4.05 2.25.05.35.15.95-.05-1.35.1-1.15.15-1.05v1.9l.05.2.15 1.4.1-1.55.35-2.05.25-1.2.05-.15.15-.55.15-.6.45-1.45.05-.05.1-.35.2-.55-.15.55-.05.35-.05.05-.3 1.45-.15 1.15-.05.3-.1.55-.05.5-.15 1.85v.25l.7-2.7-.25 3.1.3-.9.35-1.6.25-1.35v2.4l-.05.9v.1l-.15.6v.05l-.05.2-.1.25.2-1.6-1.05 2.35.05-1.55-.5 1.65v-1.7l-.3 1.85-.15.65-.05.2-.05.15-.2-1.3-.25 2.15H59l-.2-2.3-.1 4-.05-.1" fill="url(#Y)"/><path d="M57.65 38.25l-.15-.3-.1-.3-.05-.15-.05-.05-.4-1.35.2-1.2.1-.4.15-.5.15-.5.1-.3.25-.55-.2.8-.05.35-.15 1.35v.9l.2 2.2" fill="#351309"/><linearGradient id="Z" gradientUnits="userSpaceOnUse" gradientTransform="matrix(.00089 .00159 -.00339 .0021 60 36.05)" x1="-819.2" x2="819.2"><stop offset="0" stop-color="#522812"/><stop offset=".988" stop-color="#310704"/></linearGradient><path d="M61.15 36v.05l-.05.15-.9 1.7q.4-.95.25-1.4v-.1l-.7 1.8-.5 1.15.15-1.45-.1.25-.3 1-.05.15-.1 1-.05.3-.05-.25-.05-.4.1-4 .2 2.3h.05l.25-2.15.2 1.3.05-.15.05-.2.15-.65.3-1.85v1.7l.5-1.65-.05 1.55 1.05-2.35-.2 1.6-.2.6" fill="url(#Z)"/><linearGradient id="aa" gradientUnits="userSpaceOnUse" gradientTransform="matrix(.00188 .0023 -.0036 .00325 58 41.1)" x1="-819.2" x2="819.2"><stop offset="0" stop-color="#7b3a1c"/><stop offset=".988" stop-color="#4f1802"/></linearGradient><path d="M58.7 39.95l.05.4.05.25.05-.3.1-1 .05-.15.3-1 .1-.25-.15 1.45.5-1.15.2 1.25.25 1.2.45 1.35.75 1.45v.05l-.05-.05q-.9-.5-1.45-1.45l-.15-.25.05.25q.15.7.6 1.45l.35.5-.45-.5-1-1.45-.3-.5-.2-.55-.15-.3-.05-.2-.1-.25-.1-.35v-.35l.1-.55.15-.55v1.45l.05.1" fill="url(#aa)"/><linearGradient id="ab" gradientUnits="userSpaceOnUse" gradientTransform="matrix(-.00142 -.00111 .00046 -.00064 79 27.15)" x1="-819.2" x2="819.2"><stop offset="0" stop-color="#30160e"/><stop offset=".439" stop-color="#79594e"/><stop offset="1" stop-color="#38261e"/></linearGradient><path d="M78.7 26.1l1 1.75-.15-.15-.45-.95-.35-.55-.05-.1" fill="url(#ab)"/><linearGradient id="ac" gradientUnits="userSpaceOnUse" gradientTransform="matrix(.00061 .00346 -.0008 .00014 76.65 28.6)" x1="-819.2" x2="819.2"><stop offset="0" stop-color="#542e1d"/><stop offset=".443" stop-color="#ad745a"/><stop offset="1" stop-color="#794830"/></linearGradient><path d="M76.9 29.05l.05.35.05.15.05 1-.05.8-.05.2-.15-1.2-.05-.45-.05-.15-.15-.75-.05.05-.05.85.05 1.25-.1 1.35-.2-1.8-.2-.75-.2 1V29.2l-.05-.75v-.2l-.05-.35.15.35v.2l.05.1.05-.3.05-1.05.25.55.2.35.1.1v.1l.15.3-.15-1.45h.05l.2.95v.2l.1.55h.05l-.05.2m-.6 2.05v-.3l-.1-.1.1.4" fill="url(#ac)"/><linearGradient id="ad" gradientUnits="userSpaceOnUse" gradientTransform="matrix(.00102 .00412 -.00194 .00046 78.35 28.85)" x1="-819.2" x2="819.2"><stop offset="0" stop-color="#542e1d"/><stop offset=".443" stop-color="#ad745a"/><stop offset="1" stop-color="#794830"/></linearGradient><path d="M78.25 27.85l-.4-1.05.55 1.05.2.4.25.6 1.1 3.05-.5-.95.45 1.7-.75-1.5-.3-.5-.4-.55.35 1.8-.5-1.05v1.2l-.45-2.3-.2-.9-.15-.6-.15-.4-.2-.7.4.7.2.4.05.2.2.4.3.9.05-.75.55 1.4-.05-.15-.1-.5-.2-.9-.15-.6-.15-.4m1.15.3l.35.7.65 2.1.5 3-.5-2.25-.05-.15-1-2.7-.45-1-.8-1.65 1.15 1.65.15.3" fill="url(#ad)"/><linearGradient id="ae" gradientUnits="userSpaceOnUse" gradientTransform="matrix(-.0003 .00293 -.0008 -.0001 76.55 29.05)" x1="-819.2" x2="819.2"><stop offset="0" stop-color="#6b422e"/><stop offset=".38" stop-color="#b5846c"/><stop offset="1" stop-color="#7a4931"/></linearGradient><path d="M76.9 28.85l.05-.15v.15h-.05" fill="url(#ae)"/><linearGradient id="af" gradientUnits="userSpaceOnUse" gradientTransform="matrix(-.00056 .00536 -.00056 -.00006 76 29.5)" x1="-819.2" x2="819.2"><stop offset="0" stop-color="#6b422e"/><stop offset=".38" stop-color="#b5846c"/><stop offset="1" stop-color="#7a4931"/></linearGradient><path d="M76.2 30.7l.1.1v.3l-.1-.4" fill="url(#af)"/><linearGradient id="ag" gradientUnits="userSpaceOnUse" gradientTransform="matrix(-.00203 .0067 -.00719 -.00243 78.35 35)" x1="-819.2" x2="819.2"><stop offset="0" stop-color="#7d5440"/><stop offset=".973" stop-color="#331107"/></linearGradient><path d="M78.85 37.85l-.05-.1-.1-.4-.15-.4v-.15l-.05-.75-.15.4-.25-3-.2 1.65-.5-4.45.05 4.45-.25.65v.1l-.4-.3-.2-.4v.25l-.2-.15v-.15l-.05.1-.15-.1-.05-.15-.05-.2-.05.25-.15-.1-.05-.2-.05.15-.15-.1-.05-.1-.05-.35v-.05l.1-1.8.4.95.1-1.45.3 2.05.3-1.95.35 1.65q.4-1.45.15-3.95l-.05-.55.7 3.6-.1-2.25.8 3.95-.1-2.9.65 2.95v-.25l-.25-2.35-.05-.35-.1-.5.1.3.3 1.05.45 2.5q.2-1-.15-2.9l.95 3.7-.35-2.95.55 2.35-.2-1.75-.5-2.45.5 1.75.3 1.35.2 1.3-.3 3.85-.05.5-.1.35v-3.5l-.45 3.6-.05-4.3-.2 2.3-.4-3.35v2.55l-.5-2.45.15 2.6-.05.05-.05.4-.05-.1m-5.7-4.75l.35-.65.05-.1v.6l.1-.8.15-.25h.05V33l.25-.55v-.05l.15-.25v-.1h.05l.1 1.35.15-.75.2-.65h.05l.15 1.85q.2-1.85.45-2h.05l-.05 2.8-.1-.05-.05-.4-.1.35-.3-.1-.1-.15-.05.1-.45-.05-.35.05v-.1l-.05.05v-.2l-.15.25h-.15l-.05-.3v-.15l-.45.4.05-.3h-.05l-.1.1.15-.5.05.1v-.65m-.8.8l.1.3.05-.3.1-.15v.4l.05-.2.05-.1.2-.4-.05.75-.15.15h-.45l.05-.1.05-.35m-.15.3l-.1.05.05-.35.05-.05v.35m-.15.15h-.1v-.25l.1.25m-.4 0h-.05v-.15l.05.15" fill="url(#ag)"/><linearGradient id="ah" gradientUnits="userSpaceOnUse" gradientTransform="matrix(-.0003 .00554 -.0012 -.00008 74.6 28.55)" x1="-819.2" x2="819.2"><stop offset="0" stop-color="#6b422e"/><stop offset=".38" stop-color="#b5846c"/><stop offset="1" stop-color="#7a4931"/></linearGradient><path d="M74.25 32.1l-.05-.35.05.15v.2m-.15-6.4v-.3l.05.25v.05h-.05" fill="url(#ah)"/><linearGradient id="ai" gradientUnits="userSpaceOnUse" gradientTransform="matrix(-.0003 .00554 -.0012 -.00008 74.6 28.55)" x1="-819.2" x2="819.2"><stop offset="0" stop-color="#542e1d"/><stop offset=".443" stop-color="#ad745a"/><stop offset="1" stop-color="#794830"/></linearGradient><path d="M74.3 26.5l.25 1.35.2 1.05.1-.65-.05-.75-.05-.9-.1-.65.25.65.25.9.2.75.1 1-.05 2.4-.15-1.5-.1 1.55-.3-2.2-.05-.15-.1 2-.3-2.45-.15 2.75v.25l-.05-.15v-.4l-.15-1.05.05 2.1-.25-3.5.05-.3.05-.25v-.1l-.05-.7-.05-.9-.1-.95h.05l.35 1.4v-1.05l-.05-.35h.05l.1.55.05.25" fill="url(#ai)"/><linearGradient id="aj" gradientUnits="userSpaceOnUse" gradientTransform="matrix(-.0001 .00438 -.00308 -.00006 71.1 28.7)" x1="-819.2" x2="819.2"><stop offset="0" stop-color="#542e1d"/><stop offset=".443" stop-color="#ad745a"/><stop offset="1" stop-color="#794830"/></linearGradient><path d="M72.3 31.15l-.25.3v.4l-.15-.9-.2.95-.1-1.3-.35 1.2.05-.45-.05-.45v-.1l.05-.25-.05-.65v-.25l-.2-.8-.2 1.2-.25-1.15-.1.75-.3.9-.1.2.1-1.1.05-.8.05-.6v-.3l.05-.95.05-1.05.2 1.05.1.95.05.3v.5l.05-.25.1-.6.2-1.25.2 1.6.2-1.65v-.25l.05.85.15 1.9.2-4.1v-.55l.1 1.15.35 4.6-.05.05.05.85-.05.05" fill="url(#aj)"/><linearGradient id="ak" gradientUnits="userSpaceOnUse" gradientTransform="translate(0 .05)" x1="-819.2" x2="819.2"><stop offset="0" stop-color="#1e1109"/><stop offset="1" stop-color="#4c2616"/></linearGradient><path d="M72.25 27.3l-.05-.05h.05v.05" fill="url(#ak)"/><linearGradient id="al" gradientUnits="userSpaceOnUse" gradientTransform="matrix(-.00047 .00436 -.001 -.00012 73.1 28.8)" x1="-819.2" x2="819.2"><stop offset="0" stop-color="#542e1d"/><stop offset=".443" stop-color="#ad745a"/><stop offset="1" stop-color="#794830"/></linearGradient><path d="M73.55 32.35l-.1-2.55-.1 1.9-.3-2.6-.4 1.4-.1-2.1-.05-1.35.45 1.85.05-.1v-.2l.05-.1v-.1l.05-.25.2-1.1.15.7.1.5.05.4.1.8v2.2l-.05.5-.1.8v-.6" fill="url(#al)"/><linearGradient id="am" gradientUnits="userSpaceOnUse" gradientTransform="matrix(0 .00317 -.00473 0 69.1 32.6)" x1="-819.2" x2="819.2"><stop offset="0" stop-color="#7b4f39"/><stop offset=".973" stop-color="#461a06"/></linearGradient><path d="M61.35 35.4l.1-.25.05-.2.8-1.15.05.6.6-1 .1-.05.15.75.35-.3.2-.5h.05l.15.55H64l.1-.1.4-.7.05-.05.2.5.05.05.1-.3h.1l.2.55.3-1.3.05-.25.1-.7.2-1.45.05 3.1.6-3-.2 3.5.45-1.25.05-.25.5-2.1.05-.1-.1 2.1-.05.35-.1.4.25-.4.15-.4.05-.15.1-.55.05-.4.05.4v1.1l-.15.85.4-.85.1-.5.1-.35.1-.25.1-.7.05.7v.55l-.05.55-.05.3.1-.3.2-.5v-.05l.1-.55.1-1.1.05.3.05.8-.05.55-.05.55-.1.3.15-.2.1-.1.05-.15.15-.4.1-.55.05-.35.1.35.05.55v.55l-.05.3.15-.3.2-.55.1-.55v-.8l.15.8-.05.55-.05.55-.1.6.4-.6.2-.55.15-.55.05-.5.05.5-.05.55-.05.55v.05l.05-.05.2-.55.15-.55v-.2l.05.2v.55l.05.55-.1.6.25-.55.05-.05.1-.55.05-.55v-.15l.05.15v1.1l-.05.2-.05.65.25-.8.05-.05.1-.55v-.1l.05.1.05.45v.1l-.1.85.3-.85.05-.3.05-.25.1-.55v-.2l.05-.05v.35l.05.45v.1l.05.45v.45l.5-1.7v-.4l.05.3.05.25.1 1.1v1.3l-.05-.1-.15.5-.05.05-.05.1h-.05l.05-.1.05-.75-.2.4-.05.1-.05.2v-.4l-.1.15-.05.3-.1-.3-.05.35-.05-.1-.05.05v-.35l-.05.05-.05.35v.1h-.05l-.1-.25v.25h-.3l-.05-.15-.05-.05-.15.2h-.25l-.05-.4-.1.3-.05.1h-.2v-.65l-.3.65h-.05l.05-.25.05-.3-.35.55h-.2v-.1l-.05.1h-.2v-.05h-.1l-.05.05h-.35l.1-.25-.2.25h-.25l-.05-.2h-.05l-.15.2h-.35v-.4l-.3.4h-.2v-.25l-.15.25-.05-.05h-.5l-.05-.25-.25.25H66v-.05l-.05.05-.25.05h-.15l.2-.75-.4.75h-.05l.1-.3.1-.6-.2.5-.05.05-.15.35-.25.05h-.1v-.85l-.2.85-.25.05v-.15l-.1.15-.1.05v-.25l-.05.1-.1.15-.3.1v-.1l-.1.15-.5.25v-.1l-.05.1-.2.15-.3.25-.05.05.05-.3.05-.1-.1.1-.1.15v-.1l-.2.35V35h-.05l-.3.65-.05.05v.05l-.05.05v.05h-.05l-.15.1v-.05l.15-.65-.15.25-.3.5v.05l-.05-.05.2-.6" fill="url(#am)"/><linearGradient id="an" gradientUnits="userSpaceOnUse" gradientTransform="matrix(-.00084 .00272 -.00264 -.00089 77.9 34.55)" x1="-819.2" x2="819.2"><stop offset="0" stop-color="#563022"/><stop offset="1" stop-color="#2e150c"/></linearGradient><path d="M78.2 36.8l-.05.1.05-.3v-.1l-.05-.35-.2.5.05-.75-.1.35-.1.2v.05l-.35-.4-.05-.25-.05-.15-.05.1-.05.1-.05-.05v-.1l.25-.65-.05-4.45.5 4.45.2-1.65.25 3-.05.15-.1.2" fill="url(#an)"/><linearGradient id="ao" gradientUnits="userSpaceOnUse" gradientTransform="matrix(-.00043 .00374 -.00117 -.00015 67.9 28.45)" x1="-819.2" x2="819.2"><stop offset="0" stop-color="#542e1d"/><stop offset=".443" stop-color="#ad745a"/><stop offset="1" stop-color="#794830"/></linearGradient><path d="M68.2 28.25l.05-.15.05-.15v-.2l.25-.95.1-.7.05.7.05.95v.9l-.05 1.2-.2-1.55-.05.35-.15.9-.25 1-.15-1.6-.3 1.4-.05-2.05-.05.1-.1.25v.05q-.45 1-.75 2.45l.1-.7.15-1.8.05-.4.2-1.45.2-1.25.05-.25v.1l.05 1.4.05.85v.05l.05.25V28l.05-.05.05-.25.35-1.85.1.95v.35l-.05 1.1-.05.4.2-.4" fill="url(#ao)"/><linearGradient id="ap" gradientUnits="userSpaceOnUse" gradientTransform="matrix(-.00037 .00322 -.00056 -.00008 69.5 28.05)" x1="-819.2" x2="819.2"><stop offset="0" stop-color="#542e1d"/><stop offset=".443" stop-color="#ad745a"/><stop offset="1" stop-color="#794830"/></linearGradient><path d="M69.65 27.65l.3-1.1-.3 4.2L69.5 29v-.1l-.35 1.65.05-2.2-.15.95-.05-.6v-.05l.3-3.3.15 3 .1-.25.1-.45" fill="url(#ap)"/><linearGradient id="aq" gradientUnits="userSpaceOnUse" gradientTransform="matrix(0 .00598 -.01012 0 72.65 28.3)" x1="-819.2" x2="819.2"><stop offset="0" stop-color="#542e1d"/><stop offset=".443" stop-color="#ad745a"/><stop offset="1" stop-color="#794830"/></linearGradient><path d="M67.6 27.95l-.05.05v-.05l-.05-.25h.15l-.05.25" fill="url(#aq)"/><linearGradient id="ar" gradientUnits="userSpaceOnUse" gradientTransform="matrix(-.0004 .00337 -.00362 -.00047 65.5 28.55)" x1="-819.2" x2="819.2"><stop offset="0" stop-color="#542e1d"/><stop offset=".443" stop-color="#ad745a"/><stop offset="1" stop-color="#794830"/></linearGradient><path d="M65.95 28.45l.65-1.75-.55 4.75-.15-2.5-.1.8-.25 1.15-.25.8.05-.8-.05-1.15-.1-1-.85 2.85.15-1.5.05-.35.35-1.5.1-.35.35-.95-.15 1.3v.05l.05-.05.1-.35q.4-1.35.95-2.5-.3 1.35-.3 2.5l-.05.35v.2" fill="url(#ar)"/><linearGradient id="as" gradientUnits="userSpaceOnUse" gradientTransform="matrix(-.00008 .00287 -.00302 -.0001 65.05 32.25)" x1="-819.2" x2="819.2"><stop offset="0" stop-color="#7a4c36"/><stop offset=".988" stop-color="#622b0d"/></linearGradient><path d="M61.2 36.05h-.05V36l.05.05m2.8-2.2h-.05l-.15-.55h-.05l-.2.5-.35.3-.15-.75-.1.05-.6 1-.05-.6-.8 1.15v-.05l.15-.6v-.1l.05-.9.75-3.2-.4 3.55.95-3-.25 2.65.25-1.05.05-.2.25-1.15.15-.95.15 2.7.05-.15.1-.25.3-1.35.15-1.15v-.15l.05.15-.05 1.15-.15 1.35-.05 1.6m1.85-3.75l-.2 1.45-.1.7-.05.25-.3 1.3-.2-.55h-.1l-.1.3-.05-.05-.2-.5-.05.05-.4.7.3-1.5.4-1.35.2-1.15.05-.1v.1l.1 1.15-.05 1.35-.05.35-.05.5.2-.5.15-.35.35-1.35.15-1v.2" fill="url(#as)"/><linearGradient id="at" gradientUnits="userSpaceOnUse" gradientTransform="matrix(-.00072 .00383 -.00441 -.00093 62.2 28.8)" x1="-819.2" x2="819.2"><stop offset="0" stop-color="#572815"/><stop offset=".573" stop-color="#8f644a"/><stop offset=".988" stop-color="#744e37"/></linearGradient><path d="M63.05 25.1l-.35.75-.4 1-.35 1.05-.05.35-.05.05-.25 1.45v.2l.05-.2.4-1.45.05-.05.1-.35.35-1.05.45-1 .7-1.1-.5 1.1-.4 1-.35 1.05-.05.35-.05.05-.15.5.75-1.6-1.1 4.6.05-.9-.1-1.05-.65 2.7.05-1.75-.05.1-.5 1.35.4-2.4v-.1l.35-1.45.05-.05.05-.35.5-1.05.55-1 .5-.75" fill="url(#at)"/><linearGradient id="au" gradientUnits="userSpaceOnUse" gradientTransform="matrix(-.00058 .00262 -.00275 -.00067 64.25 28.8)" x1="-819.2" x2="819.2"><stop offset="0" stop-color="#482a18"/><stop offset="1" stop-color="#9c7258"/></linearGradient><path d="M63.75 30.9l-.05.3v-.3h.05" fill="url(#au)"/><linearGradient id="av" gradientUnits="userSpaceOnUse" gradientTransform="matrix(-.00032 .00293 -.00133 -.00015 71.2 29.4)" x1="-819.2" x2="819.2"><stop offset="0" stop-color="#382213"/><stop offset=".502" stop-color="#9c735d"/><stop offset="1" stop-color="#885a43"/></linearGradient><path d="M68.6 31.9h.05v.05l-.05-.05" fill="url(#av)"/><linearGradient id="aw" gradientUnits="userSpaceOnUse" gradientTransform="matrix(.00005 -.00151 .00159 .00005 80.8 41.4)" x1="-819.2" x2="819.2"><stop offset="0" stop-color="#7f4b34"/><stop offset=".973" stop-color="#522409"/></linearGradient><path d="M80.9 40.4h.05l-.05.05-.05.15v-.2h.05m-.95 1.1l.1-.15v-.05l.05-.1v.2l.45-1.1-.1.9-.05.05-.6.9-.05-.3.2-.35" fill="url(#aw)"/><linearGradient id="ax" gradientUnits="userSpaceOnUse" gradientTransform="matrix(.0031 0 0 .0014 79.5 23.25)" x1="-819.2" x2="819.2"><stop offset="0" stop-color="#fff" stop-opacity="0"/><stop offset=".51" stop-color="#fff" stop-opacity=".2"/><stop offset="1" stop-color="#fff" stop-opacity="0"/></linearGradient><path d="M81.95 24.4L79 23.2l-2.05-1.1q.55-.15 2.2.7l2.9 1.45v.05l-.1.1" fill="url(#ax)"/><linearGradient id="ay" gradientUnits="userSpaceOnUse" gradientTransform="matrix(.00113 0 0 .00314 82.35 29.85)" x1="-819.2" x2="819.2"><stop offset="0" stop-color="#fff" stop-opacity="0"/><stop offset=".51" stop-color="#fff" stop-opacity=".2"/><stop offset="1" stop-color="#fff" stop-opacity="0"/></linearGradient><path d="M81.5 27.25l1.05 2.55.7 2.55-.05.1-1.1-2.9-.7-2.15.1-.15" fill="url(#ay)"/><linearGradient id="az" gradientUnits="userSpaceOnUse" gradientTransform="matrix(.00113 0 0 .0023 83.55 29.6)" x1="-819.2" x2="819.2"><stop offset="0" stop-color="#fff" stop-opacity="0"/><stop offset=".51" stop-color="#fff" stop-opacity=".2"/><stop offset="1" stop-color="#fff" stop-opacity="0"/></linearGradient><path d="M82.65 27.75h.05q.1.75.75 1.85l1.05 1.85-.1.05q-1.75-2.85-1.75-3.4v-.35" fill="url(#az)"/><linearGradient id="aA" gradientUnits="userSpaceOnUse" gradientTransform="matrix(.00114 0 0 .00269 82.95 29.7)" x1="-819.2" x2="819.2"><stop offset="0" stop-color="#fff" stop-opacity="0"/><stop offset=".51" stop-color="#fff" stop-opacity=".2"/><stop offset="1" stop-color="#fff" stop-opacity="0"/></linearGradient><path d="M82.15 27.5l.9 2.1.85 2.25v.05h-.05q-1.8-3.55-1.8-4.2l.1-.2" fill="url(#aA)"/><linearGradient id="aB" gradientUnits="userSpaceOnUse" gradientTransform="matrix(.00197 0 0 .00061 68.75 20.4)" x1="-819.2" x2="819.2"><stop offset="0" stop-color="#fff" stop-opacity="0"/><stop offset=".51" stop-color="#fff" stop-opacity=".2"/><stop offset="1" stop-color="#fff" stop-opacity="0"/></linearGradient><path d="M70.35 20.9h-.05l-1.45-.4-1.7-.45v-.15l2.2.3 1 .65v.05" fill="url(#aB)"/><linearGradient id="aC" gradientUnits="userSpaceOnUse" gradientTransform="matrix(.00117 .00008 -.00015 .00267 77.75 18.8)" x1="-819.2" x2="819.2"><stop offset="0" stop-color="#fff" stop-opacity="0"/><stop offset=".51" stop-color="#fff" stop-opacity=".2"/><stop offset="1" stop-color="#fff" stop-opacity="0"/></linearGradient><path d="M78 18.5l1.7.3-1.55.05 1.7.45-4.2-.7 2.15.05-1.35-.3 3.1.05-1.55.1" fill="url(#aC)"/><linearGradient id="aD" gradientUnits="userSpaceOnUse" gradientTransform="matrix(.00055 -.00076 .00066 .00053 74.6 17.55)" x1="-819.2" x2="819.2"><stop offset="0" stop-color="#fff" stop-opacity="0"/><stop offset=".51" stop-color="#fff" stop-opacity=".2"/><stop offset="1" stop-color="#fff" stop-opacity="0"/></linearGradient><path d="M76.15 16.95q-.75.25-1.6.65-.9.4-1.2.7l-.25-.1 1.05-.9q.85-.5 1.9-.45l.1.1" fill="url(#aD)"/><linearGradient id="aE" gradientUnits="userSpaceOnUse" gradientTransform="matrix(.00087 -.00075 .0005 .00064 75.35 17.85)" x1="-819.2" x2="819.2"><stop offset="0" stop-color="#fff" stop-opacity="0"/><stop offset=".51" stop-color="#fff" stop-opacity=".2"/><stop offset="1" stop-color="#fff" stop-opacity="0"/></linearGradient><path d="M76.55 17.2l.15.1q-.5.1-2.55 1.15-.1.2-.1-.1 0-.15 1.05-.7 1.05-.5 1.35-.45h.1" fill="url(#aE)"/><linearGradient id="aF" gradientUnits="userSpaceOnUse" gradientTransform="matrix(.00117 -.00035 .00026 .00096 73.55 17.6)" x1="-819.2" x2="819.2"><stop offset="0" stop-color="#fff" stop-opacity="0"/><stop offset=".51" stop-color="#fff" stop-opacity=".2"/><stop offset="1" stop-color="#fff" stop-opacity="0"/></linearGradient><path d="M72.05 18.25q0-.35 1.25-.95 1.3-.65 1.75-.5-.55.2-1.55.75-1.2.75-1.4.85l-.05-.15" fill="url(#aF)"/><linearGradient id="aG" gradientUnits="userSpaceOnUse" gradientTransform="matrix(.00217 0 0 .00084 74.2 21.2)" x1="-819.2" x2="819.2"><stop offset="0" stop-color="#fff" stop-opacity="0"/><stop offset=".51" stop-color="#fff" stop-opacity=".2"/><stop offset="1" stop-color="#fff" stop-opacity="0"/></linearGradient><path d="M74.1 21.3l-1.65-.75 2.1.6 1.25.6.2.1v.05h-.1l-.65-.15-1.15-.45" fill="url(#aG)"/><linearGradient id="aH" gradientUnits="userSpaceOnUse" gradientTransform="matrix(.00203 0 0 .00055 78.2 19.45)" x1="-819.2" x2="819.2"><stop offset="0" stop-color="#fff" stop-opacity="0"/><stop offset=".51" stop-color="#fff" stop-opacity=".2"/><stop offset="1" stop-color="#fff" stop-opacity="0"/></linearGradient><path d="M78.5 19.45l1.35.45-3.3-.65 1.25.1L77 19l2.9.6-1.4-.15" fill="url(#aH)"/><linearGradient id="aI" gradientUnits="userSpaceOnUse" gradientTransform="matrix(.00119 0 0 .00092 78.55 20.4)" x1="-819.2" x2="819.2"><stop offset="0" stop-color="#fff" stop-opacity="0"/><stop offset=".51" stop-color="#fff" stop-opacity=".2"/><stop offset="1" stop-color="#fff" stop-opacity="0"/></linearGradient><path d="M78.5 20.2l1.85.75-1.55-.3 1.85.7-3.15-.7 1.1-.05-1.5-.75 1.4.1 1.2.3-1.2-.05" fill="url(#aI)"/><linearGradient id="aJ" gradientUnits="userSpaceOnUse" gradientTransform="matrix(.00153 0 0 .00174 77.8 24.1)" x1="-819.2" x2="819.2"><stop offset="0" stop-color="#fff" stop-opacity="0"/><stop offset=".51" stop-color="#fff" stop-opacity=".2"/><stop offset="1" stop-color="#fff" stop-opacity="0"/></linearGradient><path d="M77.55 24.05l.35.4 1.15.95v.05l-.1.1q-.85-.4-1.45-1.1l-.15-.25-.8-1.4.1-.1.15-.05.75 1.4" fill="url(#aJ)"/><linearGradient id="aK" gradientUnits="userSpaceOnUse" gradientTransform="matrix(.002 0 0 .00044 79.5 21.4)" x1="-819.2" x2="819.2"><stop offset="0" stop-color="#fff" stop-opacity="0"/><stop offset=".51" stop-color="#fff" stop-opacity=".2"/><stop offset="1" stop-color="#fff" stop-opacity="0"/></linearGradient><path d="M80.65 21.75l-2.75-.5 1.5.05-.95-.3 2.7.55h-1.2l.7.2" fill="url(#aK)"/><linearGradient id="aL" gradientUnits="userSpaceOnUse" gradientTransform="matrix(-.00041 .00174 -.00484 -.0013 59.8 29.9)" x1="-819.2" x2="819.2"><stop offset="0" stop-color="#fff" stop-opacity="0"/><stop offset=".494" stop-color="#fff" stop-opacity=".251"/><stop offset="1" stop-color="#fff" stop-opacity="0"/></linearGradient><path d="M60.05 27.55l1.15-1.95-1 2.6q-1.1 3.3-1.15 6.05-.2-1.75.1-3.55-.5 1.05-.7 2.25.3-2.7 1.3-4.8l.3-.6" fill="url(#aL)"/><linearGradient id="aM" gradientUnits="userSpaceOnUse" gradientTransform="matrix(-.00072 .00294 -.00458 -.00125 60.85 29.75)" x1="-819.2" x2="819.2"><stop offset="0" stop-color="#fff" stop-opacity="0"/><stop offset=".494" stop-color="#fff" stop-opacity=".251"/><stop offset="1" stop-color="#fff" stop-opacity="0"/></linearGradient><path d="M60.45 28.1l.6-1.7-.35 2.15.1-.4q.35-.95 1.05-2.15l-.7 2.2q-.8 2.85-1 4.65V31.2l-.6 3q.1-3.4.9-6.1" fill="url(#aM)"/><linearGradient id="aN" gradientUnits="userSpaceOnUse" gradientTransform="matrix(.00142 0 0 .00522 79.8 31)" x1="-819.2" x2="819.2"><stop offset="0" stop-color="#fff" stop-opacity="0"/><stop offset=".51" stop-color="#fff" stop-opacity=".2"/><stop offset="1" stop-color="#fff" stop-opacity="0"/></linearGradient><path d="M78.75 26.7l1.55 3.95q.65 2.25.65 3.95v.5l-.05.05-.05.1q-.3-.8-.45-2l-.3-2.15-.85-2.4-.6-1.75v-.2l.05-.05h.05" fill="url(#aN)"/><linearGradient id="aO" gradientUnits="userSpaceOnUse" gradientTransform="matrix(.00029 .00238 -.00403 .00053 78.5 29.55)" x1="-819.2" x2="819.2"><stop offset="0" stop-color="#fff" stop-opacity="0"/><stop offset=".51" stop-color="#fff" stop-opacity=".2"/><stop offset="1" stop-color="#fff" stop-opacity="0"/></linearGradient><path d="M77.4 26.5l1.05 2.25-.75-2.7q1.25 1.9 1.9 4.25l.45 2.7-.85-3.05.25 3.1-.85-3.55.25 2.65-.55-2.2.05 2.35-.75-4.05-.6-1.85.65 1.35-.25-1.25" fill="url(#aO)"/><linearGradient id="aP" gradientUnits="userSpaceOnUse" gradientTransform="matrix(.0008 .00264 -.0031 .00105 76.95 29.3)" x1="-819.2" x2="819.2"><stop offset="0" stop-color="#fff" stop-opacity="0"/><stop offset=".51" stop-color="#fff" stop-opacity=".2"/><stop offset="1" stop-color="#fff" stop-opacity="0"/></linearGradient><path d="M76.5 26.15q1 2.2 1.3 5.1l-.65-2.5.2 2.6-.45-2 .15 2.3-.6-2.65-.4-2.2.5 1.3-.25-1.7.5 1.45-.35-1.8.05.1" fill="url(#aP)"/><linearGradient id="aQ" gradientUnits="userSpaceOnUse" gradientTransform="matrix(-.00024 .0026 -.00386 -.00041 75.65 29.1)" x1="-819.2" x2="819.2"><stop offset="0" stop-color="#fff" stop-opacity="0"/><stop offset=".51" stop-color="#fff" stop-opacity=".2"/><stop offset="1" stop-color="#fff" stop-opacity="0"/></linearGradient><path d="M76.5 30.15l.15 2.2-.45-2.2.15 2.2-.45-2.15.15 1.75-.6-2.3-.1 2.8-.7-6.7.7 2.7L75 26.1l.85 3.45-.15-3.3.35 1.4.4 2.2.05.3" fill="url(#aQ)"/><linearGradient id="aR" gradientUnits="userSpaceOnUse" gradientTransform="matrix(-.0004 .00204 -.00378 -.0008 71.75 28.45)" x1="-819.2" x2="819.2"><stop offset="0" stop-color="#fff" stop-opacity="0"/><stop offset=".51" stop-color="#fff" stop-opacity=".2"/><stop offset="1" stop-color="#fff" stop-opacity="0"/></linearGradient><path d="M71.8 27.5L72 26l.2 2.85.3-3.4-.1 6.25-.25-2.25-.25 2.2-.1-2.65-.3 2.8-.05-3.25-.4 2.9.15-5.85.25 2.55.25-3 .1 2.35" fill="url(#aR)"/><linearGradient id="aS" gradientUnits="userSpaceOnUse" gradientTransform="matrix(.00017 .00237 -.00247 .0002 72.9 28.9)" x1="-819.2" x2="819.2"><stop offset="0" stop-color="#fff" stop-opacity="0"/><stop offset=".51" stop-color="#fff" stop-opacity=".2"/><stop offset="1" stop-color="#fff" stop-opacity="0"/></linearGradient><path d="M73.05 29.45l-.25 1.6-.1-3.35.2 1.4.15-2.35.05 2.6-.05.1" fill="url(#aS)"/><linearGradient id="aT" gradientUnits="userSpaceOnUse" gradientTransform="matrix(-.00027 .00232 -.0037 -.00047 73.95 29)" x1="-819.2" x2="819.2"><stop offset="0" stop-color="#fff" stop-opacity="0"/><stop offset=".51" stop-color="#fff" stop-opacity=".2"/><stop offset="1" stop-color="#fff" stop-opacity="0"/></linearGradient><path d="M73.55 29.1l.2-1.5.1 1.7q.25-1.35.15-3.5l.25 2.85.25-1.95q.3 2.8.2 5.5l-.3-2.3v2.35l-.35-2.35-.05 2.15-.4-2.5v2.4l-.35-5.7.3 2.85" fill="url(#aT)"/><linearGradient id="aU" gradientUnits="userSpaceOnUse" gradientTransform="matrix(.00005 .00302 -.00435 .00006 69.5 28.45)" x1="-819.2" x2="819.2"><stop offset="0" stop-color="#fff" stop-opacity="0"/><stop offset=".51" stop-color="#fff" stop-opacity=".2"/><stop offset="1" stop-color="#fff" stop-opacity="0"/></linearGradient><path d="M70.35 25.95q.15 3.05-.25 5.9l-.05-3-.4 3.35v-3.1l-.5 2.9.15-3.2-.65 2.95-.05-5.15.3 2 .3-3.4.05 2.6.4-3.1.1 3.4.3-2.9.1 2.4.2-1.65" fill="url(#aU)"/><linearGradient id="aV" gradientUnits="userSpaceOnUse" gradientTransform="matrix(-.00041 .0024 -.00473 -.00089 65.65 27.9)" x1="-819.2" x2="819.2"><stop offset="0" stop-color="#fff" stop-opacity="0"/><stop offset=".51" stop-color="#fff" stop-opacity=".2"/><stop offset="1" stop-color="#fff" stop-opacity="0"/></linearGradient><path d="M66.8 25.45L66.15 32l-.1-2.95-.7 3.5q.15-2.15-.1-4.15l-.3 3.55q-.15-1.5 0-3.5l-.5 2.8q-.05-1.85.4-3.65.35-1.6 1.1-3.15l-.45 2.15.8-2.3-.65 3.35-.15 1.8.8-4-.2 2.85.7-2.85" fill="url(#aV)"/><linearGradient id="aW" gradientUnits="userSpaceOnUse" gradientTransform="matrix(-.00032 .00294 -.00432 -.00052 67.4 29.05)" x1="-819.2" x2="819.2"><stop offset="0" stop-color="#fff" stop-opacity="0"/><stop offset=".51" stop-color="#fff" stop-opacity=".2"/><stop offset="1" stop-color="#fff" stop-opacity="0"/></linearGradient><path d="M67.8 28.3l.5-3q.05 4.45-.45 6.8l-.1-2.05-.55 2.75.2-3.35-.55 2.2.15-1.75-.45 2.05.35-5.15.05 2.4.45-3.05-.1 2.9.6-2.65-.1 1.9" fill="url(#aW)"/><linearGradient id="aX" gradientUnits="userSpaceOnUse" gradientTransform="matrix(-.00067 .0025 -.00476 -.00142 61.95 29.05)" x1="-819.2" x2="819.2"><stop offset="0" stop-color="#fff" stop-opacity="0"/><stop offset=".494" stop-color="#fff" stop-opacity=".251"/><stop offset="1" stop-color="#fff" stop-opacity="0"/></linearGradient><path d="M61.95 29.45q-.45 2.45-.5 4.15-.1-1.45.3-4.15-.6 2.4-.75 4.5-.1-1.5.25-3.6l-.55 1.9q.15-2.2.8-4.15.4-1.3 1.05-2.5l-.75 2.55-.15.75.2-.75q.45-1.4 1.2-2.75l-.85 2.8-.25 1.05v.2" fill="url(#aX)"/><linearGradient id="aY" gradientUnits="userSpaceOnUse" gradientTransform="matrix(-.00034 .00165 -.00415 -.00093 64 28.6)" x1="-819.2" x2="819.2"><stop offset="0" stop-color="#fff" stop-opacity="0"/><stop offset=".494" stop-color="#fff" stop-opacity=".251"/><stop offset="1" stop-color="#fff" stop-opacity="0"/></linearGradient><path d="M63.75 28.35l1.55-3.4q-.7 1.75-1.15 3.45-.45 1.9-.55 3.65l.05-2.9-.55 2.4.1-1.45-.5 1.7q.15-1.9.55-3.5.45-1.8 1.15-3.25-.65 1.75-.75 3.3l-.05.4.15-.4" fill="url(#aY)"/><linearGradient id="aZ" gradientUnits="userSpaceOnUse" gradientTransform="matrix(-.00023 .00215 -.004 -.00047 62.4 29)" x1="-819.2" x2="819.2"><stop offset="0" stop-color="#fff" stop-opacity="0"/><stop offset=".494" stop-color="#fff" stop-opacity=".251"/><stop offset="1" stop-color="#fff" stop-opacity="0"/></linearGradient><path d="M62.2 30.05l.95-2.55-1.05 5.6.3-3.1-.6 2.85q-.15-1.5.3-4.15l.95-2.55-.85 3.9" fill="url(#aZ)"/><path d="M81.3 19.75l-.05-.35q1.4 1.2 1.6 3.05-.5-1.5-1.6-2.25l.05-.45" fill="#1b0405"/><linearGradient id="ba" gradientUnits="userSpaceOnUse" gradientTransform="matrix(0 0 0 0 0 .05)" x1="-819.2" x2="819.2"><stop offset=".024" stop-color="#3f1c13"/><stop offset=".502" stop-color="#7d4830"/><stop offset="1" stop-color="#3f1c13"/></linearGradient><path d="M81.25 19.4l.05.35-.05.45-.5.95-.05-.1.4-1.25q0-1.1-1.55-2.15-1.8-1.3-4.2-.95h-.25l-.05-.05.25.3v.1l-.05.05-.55-.5q-.5-.4-1.2-.4-1.3 0-2.9.7-1.25.55-1.9 1.1l-.1-.05.6-.45 1.2-.65q1.8-.8 3.25-.8.7 0 1.15.35l.25.25 1.2-.15q2.5 0 3.95 1.35.9.8 1.05 1.55" fill="url(#ba)"/><linearGradient id="bb" gradientUnits="userSpaceOnUse" gradientTransform="matrix(0 0 0 0 0 .05)" x1="-819.2" x2="819.2"><stop offset="0" stop-color="#290f09"/><stop offset=".502" stop-color="#693a26"/><stop offset="1" stop-color="#2b120c"/></linearGradient><path d="M82.15 23.85q1.1.25 1.85 2.4.6 1.65.6 2.95l-.05 1.15-.5 1.25-.05-.25.25-2.15-.15-1.25-.3-1.4-.75-1.2-.95-1.4.05-.1M69.2 17.5l-2.7.35-.7.8-1.2.9q-.7.35-1.05.55-2.05 1.05-2.55 2.65l.55-.3-.65.65-.05.2h-.1v-.05l-2.5 2.35q-.95 1.15-.95 2.8l.2 1 .1.2.15-.3.05-.05v.15l-.1.85v.4q0 1.55-.4 2.2L57 35.3q0 1.6 1.15 4.15.95 2.15 2.15 3.85l-.05.1q-1.35-1.45-2.4-3.9-1.05-2.5-1.05-4.2l.2-2.75q.15-1.75.45-2.6l-.15-.5-.2-1.05q0-1.6 1.15-3.2.95-1.35 2.5-2.3.35-1.1.85-1.65.5-.6 1.85-1.3l2.1-1.3.65-.8q.7-.5 2-.5l.95.1.05.05m14.05 16.7q-.2 3.3-2.7 7h-.1q2.25-3.35 2.7-7h.1M57.4 32.05l-.05.35.15-.8-.1.45" fill="url(#bb)"/></g></svg>