<svg xmlns="http://www.w3.org/2000/svg" width="33" height="30"><g transform="translate(-53.45 -17.35)"><linearGradient id="a" gradientUnits="userSpaceOnUse" gradientTransform="matrix(.00323 0 0 .01205 83.4 30.95)" x1="-819.2" x2="819.2"><stop offset="0" stop-color="#d19364"/><stop offset=".459" stop-color="#f3d4bb"/><stop offset="1" stop-color="#c88653"/></linearGradient><path d="M84.65 39.9l-.45.95.5-1.1-.05.15" fill="url(#a)"/><linearGradient id="b" gradientUnits="userSpaceOnUse" gradientTransform="matrix(.00323 0 0 .01205 83.3 30.95)" x1="-819.2" x2="819.2"><stop offset="0" stop-color="#d19364"/><stop offset=".459" stop-color="#f3d4bb"/><stop offset="1" stop-color="#c88653"/></linearGradient><path d="M85.8 32.85q0-3.4-1.35-6.25-1.15-2.5-3.8-5.4v-.1q5.3 5.2 5.3 11.75 0 2.8-.4 4.15l-.5 1.5q.75-2.55.75-5.65" fill="url(#b)"/><linearGradient id="c" gradientUnits="userSpaceOnUse" gradientTransform="matrix(.008 0 0 .01358 60 29.2)" x1="-819.2" x2="819.2"><stop offset="0" stop-color="#d19364"/><stop offset=".459" stop-color="#f3d4bb"/><stop offset="1" stop-color="#c88653"/></linearGradient><path d="M66.55 18.25q-7.25 2.4-10.15 5.8-2.75 3.15-2.75 8.45 0 1.45 1.75 7.85-.55-.8-1.25-3.55t-.7-4.3q0-2.65.4-4.15.5-1.85 2-4.05.55-.9 1.7-1.75.45-.35 2.45-1.6 1.15-.8 3.05-1.65 2.2-1.05 3.5-1.2v.15" fill="url(#c)"/><radialGradient id="d" gradientUnits="userSpaceOnUse" gradientTransform="translate(74.45 30.85) scale(.04024)" spreadMethod="pad" cx="0" cy="0" r="819.2" fx="0" fy="0"><stop offset=".361" stop-color="#e3522a" stop-opacity=".4"/><stop offset="1" stop-color="#f5c4a9" stop-opacity=".133"/></radialGradient><path d="M59.45 37.7l-.2-2.15q0-1.45.45-2.25.65-1.35 2.95-3.2.8-.7 2.75-1.45 1.6-.6 2.8-.85l3.05-.6 2.3-.15q2.85 0 4.3.75 1.15.55 1.75 1.95l.85 2.35.2.9v.1-.05l.3 1.5.1 3.35-.2 3.35q-.2 1.2-1.5 2.8.55-1.9.55-2.8l-.05-1.95q.05-1.25.35-1.65l-.65.4-.1-.55v-.25q.1-2.5-.25-3.8-2.4 2.7-5.35 2.7l-2.5-.3.65-.4h-.05l-2.3.65v-.05l.25-.25.3-.25h-.1l-.8.3.05-.1.5-.35h-.05l-1.65.45-1.9.25H66v-.05l.75-.65h-.05l-1.6.5.4-.45q-1.15.25-2.65 1.15l.5-.9h-.05q-1.55 1.15-1.9 2v-.4l.1-.75v-.15l-.9 1.95v-.2l.15-.85v.05l-.55.8q-.25.45-.35.85l-.4-1.3" fill="url(#d)"/><radialGradient id="e" gradientUnits="userSpaceOnUse" gradientTransform="translate(77.4 20.6) scale(.0132)" spreadMethod="pad" cx="0" cy="0" r="819.2" fx="0" fy="0"><stop offset="0" stop-color="#c27c47"/><stop offset=".961" stop-color="#af6831"/></radialGradient><path d="M84.1 26.7l.75 2.5q1.35 6.45-.95 9.7l-.65.75-.05-.05-.1.2-.1.05.05-.05q.85-1.75.85-3.8v-.25L83.65 33v-.1l-.2-1.05-.5-1.65v-.1l-1.25-3.85 1.05 2.45q-.5-2.05-2.15-5.5 1.15 1.95 2.1 4.2-.25-1.2-1.95-4.65 1.75 2.55 2.3 4.1l.65 2.55.45 3q.55 3.6-.45 6.35l.1.05q1-1.8.9-4.65l.1 1.2q.3-3.45-.25-6.55l-.2-1.05-.1-.5-.15-.55" fill="url(#e)"/><radialGradient id="f" gradientUnits="userSpaceOnUse" gradientTransform="matrix(.015 0 0 .015 72.05 19.05)" spreadMethod="pad" cx="0" cy="0" r="819.2" fx="0" fy="0"><stop offset="0" stop-color="#e8d1bf"/><stop offset=".973" stop-color="#c17841"/></radialGradient><path d="M80.9 24.5l-.8-1.65q-.45-.95-2.15-2.3 1.8 2.2 2.25 3.85-1.7-2.8-3.7-3.95l1.6 1.5q-1.8-1.4-3-1.75 1.65.8 3.05 2.2l-.45-.2 1 1.1-2.4-1.85 1.25.65q-2.1-1.6-3.65-2.2l2.05.45q-.85-.55-1.65-.65l2.35.55.1.05q1.1.55 2.1 1.65-.7-1.2-1.55-1.85 1.2.5 2 1.1l-1.25-1.15-.1-.05q-2.65-1.35-4.65-1.1l-.9.2.5.3-1.55-.2.35.6q-.4-.5-1.35-.45l-.2-.1-.35-.15h.8l2.7-.45 2.15.15.1.05 1.2.25.35.2q.85.45 1.7 1.05l2.55 2.75q2.2 2.4 2.85 5.9.65 3.45.5 5.15.1 2.85-.9 4.65l-.1-.05q1-2.75.45-6.35l-.45-3-.65-2.55q-.55-1.55-2.3-4.1 1.7 3.45 1.95 4.65-.95-2.25-2.1-4.2 1.65 3.45 2.15 5.5l-1.05-2.45-.8-1.75" fill="url(#f)"/><linearGradient id="g" gradientUnits="userSpaceOnUse" gradientTransform="matrix(.00406 .00621 -.00594 .00388 79.25 26)" x1="-819.2" x2="819.2"><stop offset="0" stop-color="#c57b44"/><stop offset=".839" stop-color="#98531d"/></linearGradient><path d="M81.7 26.25l1.25 3.85v.1l.5 1.65-.95-2.55.45 2.1-.8-2.35.75 2.7q-.9-2.8-1.8-4.35l.35 1.4-1.7-3.5.75.8q-1.15-2.3-2.2-3.5v-.05l-.1-.1-.05-.05q-1.4-1.4-3.05-2.2 1.2.35 3 1.75l-1.6-1.5q2 1.15 3.7 3.95-.45-1.65-2.25-3.85 1.7 1.35 2.15 2.3l.8 1.65.8 1.75" fill="url(#g)"/><radialGradient id="h" gradientUnits="userSpaceOnUse" gradientTransform="translate(77.65 22.85) scale(.01848)" spreadMethod="pad" cx="0" cy="0" r="819.2" fx="0" fy="0"><stop offset="0" stop-color="#c17740"/><stop offset=".945" stop-color="#984a27"/></radialGradient><path d="M77.4 22.9l.2.15-.35-.65.65.45.15.15 1.3 1.3-.6-.9-.05-.1-1-1.1.45.2.05.05.1.1v.05q1.05 1.2 2.2 3.5l-.75-.8 1.7 3.5-.35-1.4q.9 1.55 1.8 4.35l-.75-2.7.8 2.35.05.7-.25 1.3-.05-1.5-.05.9-.6-2.75q.5 3.2.05 4.2v.1l-2.2 3.25-.3.25.75-1.05-.05.05 1-1.8v-.1q.95-1.8.45-4.05v-.05q-.6-2.65-2.25-5.65-1-1.45-1.8-2.2 1.25 1.4 1.8 2.8-1.85-2.7-2.75-3.35l.65.45" fill="url(#h)"/><linearGradient id="i" gradientUnits="userSpaceOnUse" gradientTransform="matrix(.00473 .00484 -.00726 .00711 78.4 29.6)" x1="-819.2" x2="819.2"><stop offset="0" stop-color="#a7613d"/><stop offset=".91" stop-color="#883c19"/></linearGradient><path d="M79.25 38l.6-1.25-.9 1.15.75-1.35.05-.1.05-.05q1.25-2 1.4-3.7v-.05q-.4-3.3-2.05-5.85v-.15l-.55-1.15q-.9-1.65-2.3-2.9-.45-.35-.95-.55V22h-.05l-.4-.7 1.15.9v.05q1.25.9 2.65 2.95-.75-1.5-1.95-2.75.9.65 2.75 3.35-.55-1.4-1.8-2.8.8.75 1.8 2.2 1.65 3 2.25 5.65v.05q.5 2.25-.45 4.05v.1l-1 1.8L79.25 38" fill="url(#i)"/><radialGradient id="j" gradientUnits="userSpaceOnUse" gradientTransform="translate(83.25 31.7) scale(.01305)" spreadMethod="pad" cx="0" cy="0" r="819.2" fx="0" fy="0"><stop offset="0" stop-color="#bf6f37"/><stop offset=".925" stop-color="#9d5a3e"/></radialGradient><path d="M83.45 31.85l.2 1.05v.1l.25 2.75V36q0 2.05-.85 3.8l-.05.05-.05.1-.25.2-.4.3v.05h-.05l-.05.05-.3.2-1.15.55-.3.1-.95.3 1.1-.55-.5.2v-.1l.05-.05.15-.1 1.05-.7.2-.1.1-.05.05-.05.1-.05.3-.25.4-.4.4-.4.5-1q.4-1.1.25-2.85l-.15-2.2-.25 1.35.05-1.8-.5 2.7-.05.15-.5 1.45-.1.1-1.2 1.85Q81.9 37.4 82.3 36l-1.05 1.9 1.15-3.1q.6-1.3.6-2.5v-.2l-.05-.7-.45-2.1.95 2.55" fill="url(#j)"/><radialGradient id="k" gradientUnits="userSpaceOnUse" gradientTransform="translate(82.4 32) scale(.00972)" spreadMethod="pad" cx="0" cy="0" r="819.2" fx="0" fy="0"><stop offset="0" stop-color="#742b12"/><stop offset=".925" stop-color="#904224"/></radialGradient><path d="M80.7 39.2h-.05l.4-.85L80 39.6l.7-1.05q1.1-1.9 1.3-3.3l-.7 1.1.8-2v-.1q.45-1-.05-4.2l.6 2.75.05-.9.05 1.5.25-1.3v.2q0 1.2-.6 2.5l-1.15 3.1L82.3 36q-.4 1.4-1.35 2.85l-.25.35" fill="url(#k)"/><linearGradient id="l" gradientUnits="userSpaceOnUse" gradientTransform="matrix(.00125 .00546 -.00668 .00151 76.7 31)" x1="-819.2" x2="819.2"><stop offset="0" stop-color="#69290e"/><stop offset=".463" stop-color="#945134"/><stop offset=".973" stop-color="#6e2d12"/></linearGradient><path d="M79.75 36.4q.9-2.15.35-4.7l-.05-.15-.9-2.4q.45 1.25.35 2.5v-.1q-.8 2.55-3.4 4.15l-.2.05-2.6.5-.65-.1-.65-.2.9-.15 1.75-.25q1.9-.5 2.75-1.25l-1.9.65q2.65-1.45 3.25-2.45h.1q.3-.9.25-1.9v-.05q-.05-1.55-.65-3.35l-.95-2.05q.9 1.25 1.65 3.05l.05.1v.05l.9 2.35v.2q.55 1.4.55 3.15l.05-1.35.15 1.1-.25-2.4-.1-.05q-.75-2.55-1.75-4.55l1.05 1.55-1.2-2.4.55.75v.1q1.65 2.55 2.05 5.85v.05q-.15 1.7-1.4 3.7h-.05" fill="url(#l)"/><linearGradient id="m" gradientUnits="userSpaceOnUse" gradientTransform="matrix(-.00186 .0026 -.0037 -.00269 82.7 36.4)" x1="-819.2" x2="819.2"><stop offset="0" stop-color="#894518"/><stop offset=".898" stop-color="#552207"/></linearGradient><path d="M81.75 40.15q.7-.75.85-1.6l-.9 1.05q1.35-2.2 1.45-4.2v-.6l-.5 1.4.1-.75.05-.15.5-2.7-.05 1.8.25-1.35.15 2.2q.15 1.75-.25 2.85l-.5 1-.4.4-.4.4-.3.25h-.05" fill="url(#m)"/><path d="M79.9 37.6l2.2-3.25-.8 2 .7-1.1q-.2 1.4-1.3 3.3l.35-1.05.25-1.1-.6.7.2-.65-.45.7-.05.05-.5.4m.75 1.6h.05l.25-.35 1.2-1.85.1-.1.5-1.45-.1.75.5-1.4v.6l-.35.95-.35 1.1-.35.95-.8 1 .2-.55.25-.7-.3.55-.45.6.4-.9-.45.65-.45.7h-.05l.2-.55" fill="#56280e"/><linearGradient id="n" gradientUnits="userSpaceOnUse" gradientTransform="matrix(.002 -.00041 .00075 .00356 81.45 38.4)" x1="-819.2" x2="819.2"><stop offset="0" stop-color="#551a13"/><stop offset=".882" stop-color="#1f0407"/></linearGradient><path d="M80.45 39.75v.05l.05-.05.45-.7.45-.65-.4.9.45-.6.3-.55-.25.7-.2.55.8-1 .35-.95.35-1.1.35-.95q-.1 2-1.45 4.2l.9-1.05q-.15.85-.85 1.6l-.05.05-.05.05-.1.05-.2.1-1.05.7-.15.1v-.1l.3-1.9-.35.4-.15.15.05-.15.05-.4h-.1l-.05.05.2-.45.2-.4-.2.2-.2.15.3-.7-.15.1.35-.55-.4.4.4-.8.05-.05.45-.7-.2.65.6-.7-.25 1.1-.35 1.05-.7 1.05 1.05-1.25-.4.85-.2.55" fill="url(#n)"/><linearGradient id="o" gradientUnits="userSpaceOnUse" gradientTransform="matrix(-.0006 .0021 -.00317 -.0009 81.4 42.35)" x1="-819.2" x2="819.2"><stop offset="0" stop-color="#6b3112"/><stop offset=".839" stop-color="#8f5222"/></linearGradient><path d="M82.15 41.7l.25-.6.3-.95.25-.2.05-.1.1-.05.1-.2v.05l-.4 1.45-.2.6q-.65 1.45-1.65 2.75l.7-1.3-.75.75 1.25-2.2" fill="url(#o)"/><linearGradient id="p" gradientUnits="userSpaceOnUse" gradientTransform="matrix(-.0022 .00278 -.0005 -.0004 80.25 44.05)" x1="-819.2" x2="819.2"><stop offset="0" stop-color="#60250a"/><stop offset=".839" stop-color="#924d26"/></linearGradient><path d="M80.9 43.9l-1.3 1.15 2.3-3.35.25-.6.1-.4.05-.2v-.05l.4-.3-.3.95-.25.6-1.25 2.2" fill="url(#p)"/><linearGradient id="q" gradientUnits="userSpaceOnUse" gradientTransform="matrix(-.00067 .0022 -.00311 -.00095 80.45 43.15)" x1="-819.2" x2="819.2"><stop offset="0" stop-color="#370a00"/><stop offset=".855" stop-color="#481e08"/></linearGradient><path d="M81.45 41.7l.2-.6V41l-1.05 1.85.7-1.65-.3.5-2.75 3.95.05-.1 2.05-3.85.1-.3.3-.1 1.15-.55.3-.2.05-.05h.05l-.05.2-.1.4-.25.6-2.3 3.35h-.05l-.7.55-.35.2.2-.55q1.95-1.65 2.75-3.55" fill="url(#q)"/><linearGradient id="r" gradientUnits="userSpaceOnUse" gradientTransform="matrix(.0086 -.00478 .00644 .01157 62.4 29.35)" x1="-819.2" x2="819.2"><stop offset="0" stop-color="#ba7d40"/><stop offset=".98" stop-color="#e8c3a2"/></linearGradient><path d="M68 18.75q1.1.05 1.9.65l-2-.05q1-.05 1.45.4h-.25l-.1-.05h-.05l-1.05-.1-1.9.7q-1.5.6-2.7 1.35l2.7-1.6 1.6-.65-1.6.4q-2.15.65-4.45 2.45l-1.15.95.9-.95q2.05-1.85 4.7-2.75l1.65-.5-1.65.2-2.2.8q.9-.6 2.2-1l1-.3-1 .1q-3.15.35-5.85 2.65l-.05.1-.65.7Q58.1 23.8 56.5 26.6q1.7-2.75 3.55-4.35l.6-.5-.55.5Q57.55 24.8 55.9 28q-.85 1.8-1.15 4.1l-.15 1.6.35-1.6q.65-2.25 1.95-4.6l.1-.1q.65-1.2 1.65-2.3-1.1 1.35-1.8 2.9l.9-.95q-1.5 2.2-2 4.75.7-2.5 2.1-4.6-1 1.9-1.55 3.75.85-2.3 2.6-4.2-1.6 2.1-2.5 4.45l-.1.45-.1.45-.1.7-.05.05-.2 1.4q-.15 1.75.15 3.5l.2 1.3-.3-1.1-.4-2.15.2 2.45q.15 1.1.45 1.9l-.65-1.55-.15-.7-.05-.3v-.3l-.1-2.55.05-.8.25-1.85q.45-2.45 1.4-4.05-1.25 1.85-1.75 4.05-.25.9-.35 1.85l-.1 1 .25-1 .05-.15v.15q-.2 1.85 0 3.85-.55-2-.65-3.85-.05-.95.05-1.85l.25-1.5.05-.3q1.75-5.15 4.35-8.05 2.7-3 6.35-3.65h.1l.5-.05q2.35-.25 4.45.5l-2.45-.3" fill="url(#r)"/><linearGradient id="s" gradientUnits="userSpaceOnUse" gradientTransform="matrix(.0044 -.00822 .00682 .00363 62.45 26.4)" x1="-819.2" x2="819.2"><stop offset=".008" stop-color="#915934"/><stop offset=".471" stop-color="#cf925e"/><stop offset="1" stop-color="#daa77f"/></linearGradient><path d="M63.7 23.3l-1.15 1.35-.15.2-2.9 4.35-1.5 2 .9-1.35 1.5-2.35q-2.3 2.8-3 4.6l-.3.8.15-.8q.45-1.7 2.1-3.9l-.85.8h-.05q-.85.6-1.35 1.6l.1-.25q.5-1.55 3-4.5l-2 3.1q1.6-2.35 4.45-5.4l-3.25 4.1 2.1-2.35-1.9 2.65 2.65-3.3-1.2 1.95 2.25-3.2.4-.5 2.3-2.25.35-.3-1.05 1.2.7-.5.6-.35-.6.45-.3.3h-.1l-1.9 1.85m-.6 1.25l.9-.75-1.8 2.1q.55-1.1 1.5-2.25l.4-.5-.25.6-.75.8" fill="url(#s)"/><linearGradient id="t" gradientUnits="userSpaceOnUse" gradientTransform="matrix(.00424 -.00375 .00311 .00351 62.55 25.35)" x1="-819.2" x2="819.2"><stop offset="0" stop-color="#6b3210"/><stop offset=".502" stop-color="#c9945e"/><stop offset=".925" stop-color="#824b24"/></linearGradient><path d="M59.5 29.2l2.9-4.35.15-.2 1.15-1.35 1.9-1.85.05.05-1.8 2.25.25-.6-.4.5q-.95 1.15-1.5 2.25l-.05.05-2.65 3.25" fill="url(#t)"/><linearGradient id="u" gradientUnits="userSpaceOnUse" gradientTransform="matrix(.00777 -.0093 .00601 .00502 62.6 26.35)" x1="-819.2" x2="819.2"><stop offset=".024" stop-color="#c17947"/><stop offset=".412" stop-color="#dca57c"/><stop offset="1" stop-color="#cc8c5e"/></linearGradient><path d="M60.6 28.5l-1.4 1.9-.2.05h.15L57.9 32.2l.9-1.6-1.1 1.5-.35.7.25-.7.3-.7.1-.2 1.5-2 2.65-3.25.05-.05 1.8-2.1-.9.75.75-.8 1.8-2.25.05-.05.3-.3.6-.45.05-.05.3-.2.45-.3.45-.25v.05l-.65.6v.05L66 21.65q-1.1 1.1-2.1 2.8l-.8 1 .5-.4-1.55 2.15-.55.55 1.55-2.45-2.15 2.75v.05l-.3.4" fill="url(#u)"/><linearGradient id="v" gradientUnits="userSpaceOnUse" gradientTransform="matrix(.00493 -.00801 .00507 .00313 60.9 22.75)" x1="-819.2" x2="819.2"><stop offset="0" stop-color="#ddae85"/><stop offset=".431" stop-color="#f5d6be"/><stop offset="1" stop-color="#e0b38c"/></linearGradient><path d="M54.3 33.95l-.05-1.45.2-1.65.9-3.45q.75-2.9 3.1-4.95l2.45-2.15 1.15-.65.35-.15.65-.3q1.5-.65 2.95-.85 2.4-.35 4.65.45l2.65-.3 2.15.3-2.15-.15-2.7.45h-.1l-.05-.05q-2.1-.75-4.45-.5l-.5.05h-.1q-3.65.65-6.35 3.65-2.6 2.9-4.35 8.05l-.05.3-.25 1.5q-.1.9-.05 1.85h-.05m6.85-11.7L58.9 24.6q.65-1 1.65-2.05l-2.25 2.5-.05.05q-1.55 2.05-2.55 4.2.6-1.9 1.9-3.8l.05-.1.05-.05q1.05-1.6 2.6-3.1l1.05-.95-1.65.95-.5.35.4-.35q1.7-1.65 3.95-2.75l-2.1 1.4 2.7-1.35q-1.85 1.2-3.05 2.35 1.35-1.05 3.35-2-1.7.95-3.15 2.25l-.1.1h-.05" fill="url(#v)"/><linearGradient id="w" gradientUnits="userSpaceOnUse" gradientTransform="matrix(.00517 -.00981 .01009 .00533 61.3 29.6)" x1="-819.2" x2="819.2"><stop offset=".024" stop-color="#c17947"/><stop offset="1" stop-color="#ebc7aa"/></linearGradient><path d="M55.1 38.05l.1.3.1.25-.05.05q-.7-1.35-.95-2.95-.85-8.05 2.8-12.4l1.35-1.35q1.05-.9 2.4-1.65h.05l-2.45 2.15q-2.35 2.05-3.1 4.95l-.9 3.45-.2 1.65.05 1.45h.05q.1 1.85.65 3.85l.1.25m1.65-5.95l-.1.95v-.95q.05-1 .45-2.1-.5 1.2-.6 2.1v1.1l.05.75q.1 1.25.35 2.25l.45 1.1v.1l-.5-1-.35-.85v-.15l-.25-1.45-.05-.7-.1.95v-.25q-.1-.55-.05-1.1l.05-.05.1-.7.1-.45.1-.45q.9-2.35 2.5-4.45-1.75 1.9-2.6 4.2.55-1.85 1.55-3.75-1.4 2.1-2.1 4.6.5-2.55 2-4.75l-.9.95q.7-1.55 1.8-2.9-1 1.1-1.65 2.3l-.1.1q-1.3 2.35-1.95 4.6l-.35 1.6.15-1.6q.3-2.3 1.15-4.1 1.65-3.2 4.2-5.75l.55-.5-.6.5q-1.85 1.6-3.55 4.35 1.6-2.8 2.95-4.35l.65-.7.05-.1q2.7-2.3 5.85-2.65l1-.1-1 .3q-1.3.4-2.2 1l2.2-.8 1.65-.2-1.65.5q-2.65.9-4.7 2.75l-.9.95 1.15-.95q2.3-1.8 4.45-2.45l1.6-.4-1.6.65-2.7 1.6q1.2-.75 2.7-1.35l1.9-.7 1.05.1q-.6-.1-1.05.2h-.05l-.45.25-.45.3-.3.2-.05.05-.6.35-.7.5 1.05-1.2-.35.3-2.3 2.25-.4.5-2.25 3.2 1.2-1.95-2.65 3.3 1.9-2.65-2.1 2.35 3.25-4.1q-2.85 3.05-4.45 5.4l2-3.1q-2.5 2.95-3 4.5l-.1.25-.35 1.5m4.45-9.85l.1-.1q1.45-1.3 3.15-2.25-2 .95-3.35 2 1.2-1.15 3.05-2.35l-2.7 1.35 2.1-1.4q-2.25 1.1-3.95 2.75l-.4.35.5-.35 1.65-.95-1.05.95q-1.55 1.5-2.6 3.1l-.05.05-.05.1q-1.3 1.9-1.9 3.8 1-2.15 2.55-4.2l.05-.05 2.25-2.5q-1 1.05-1.65 2.05l2.25-2.35h.05m2.5.4l1.8-1.75-1.7 1.15 1.7-1.45-2.55 1.65q-1.7 1.2-2.45 2.2l1.9-2.2q.3-.3.7-.65l-.9.65q-.95.7-1.7 1.5l1.45-1.5 1.6-1.25-1.8 1.25L59.7 24l.6-.8q-1.75 1.9-2.6 3.6l2-2.45q-1.15 1.65-1.75 3l1.8-2.35-1.45 2.2 1.45-1.6-1.4 2.35 1.15-1.45 2-2.2-.6.9 2.55-2.7-1.15 1.9 1.4-1.75" fill="url(#w)"/><linearGradient id="x" gradientUnits="userSpaceOnUse" gradientTransform="matrix(.00308 -.00401 .00368 .00284 64.7 24.75)" x1="-819.2" x2="819.2"><stop offset=".024" stop-color="#a97955"/><stop offset=".992" stop-color="#d0a888"/></linearGradient><path d="M66.6 22l.75-1.05-.55 1.25-.8 1.35-1.55 2.25v.05l-.75.95-1.4 1.45-.05.05-.1.1.35-.55.75-.95.45-.55 2.3-3.2.6-.95-2 2.45-.9 1.15-1.7 2.05 1.1-1.7-1.05 1.05 1.55-2.15-.5.4.8-1 .5-.5v-.1l1.6-1.9.45-.4-.55.85-.15.05-2.05 2.65-.55.7.55-.6 2.3-2.55.6-.75v.1" fill="url(#x)"/><linearGradient id="y" gradientUnits="userSpaceOnUse" gradientTransform="matrix(.00093 -.00116 .0025 .00198 65.9 21.9)" x1="-819.2" x2="819.2"><stop offset=".024" stop-color="#a97249"/><stop offset=".992" stop-color="#cd9c78"/></linearGradient><path d="M66 21.65l1.2-1.05-.6 1.3-.6.75-2.3 2.55-.55.6.55-.7 2.05-2.65.15-.05.55-.85-.45.4-1.6 1.9v.1l-.5.5q1-1.7 2.1-2.8" fill="url(#y)"/><linearGradient id="z" gradientUnits="userSpaceOnUse" gradientTransform="matrix(.00235 -.0054 .00406 .00179 61.65 24.3)" x1="-819.2" x2="819.2"><stop offset="0" stop-color="#d3a271"/><stop offset=".459" stop-color="#f6caac"/><stop offset=".957" stop-color="#e2b592"/></linearGradient><path d="M62.3 24.4l1.15-1.9-2.55 2.7.6-.9-2 2.2-1.15 1.45 1.4-2.35-1.45 1.6 1.45-2.2-1.8 2.35q.6-1.35 1.75-3l-2 2.45q.85-1.7 2.6-3.6l-.6.8 2.05-1.75 1.8-1.25-1.6 1.25-1.45 1.5q.75-.8 1.7-1.5l.9-.65q-.4.35-.7.65l-1.9 2.2q.75-1 2.45-2.2l2.55-1.65-1.7 1.45 1.7-1.15-1.8 1.75-1.4 1.75" fill="url(#z)"/><radialGradient id="A" gradientUnits="userSpaceOnUse" gradientTransform="translate(69.25 19.5) scale(.00844)" spreadMethod="pad" cx="0" cy="0" r="819.2" fx="0" fy="0"><stop offset="0" stop-color="#e7d3c8"/><stop offset=".988" stop-color="#8d8176"/></radialGradient><path d="M70.8 21q-.6-.25-1.1-1.1l.4.85-.45-.75q.1 1.3.75 1.8L70 21q1.05.2 1.8.9l-.45-.25.85 1.15q.25.95.1 1.6-.4-2-.95-2.3l.2.55-1.05-1.05q1.35 1.7 1.6 2.95l-1-1.75q.8 1.85 1 3l-.6-1.6q-.4-1.2-1.4-2.45l-.05-.05q-.55-1-.75-1.95h.05q-.45-.45-1.45-.4l2 .05q-.8-.6-1.9-.65l2.45.3.05.05h-.7l.35.15.2.1.15.05h-1l.35.2.25.15h-.5l.4.25.15.25.1.15.55.6" fill="url(#A)"/><radialGradient id="B" gradientUnits="userSpaceOnUse" gradientTransform="translate(72 19.4) scale(.01273)" spreadMethod="pad" cx="0" cy="0" r="819.2" fx="0" fy="0"><stop offset="0" stop-color="#f3eeea"/><stop offset=".973" stop-color="#cd8952"/></radialGradient><path d="M84.2 29q-.65-3.5-2.85-5.9l-2.55-2.75q-.85-.6-1.7-1.05l1.8.9q2.15 1.35 3.15 2.85l1.15 1.85.65 1.3.4 1.05.1.5.2 1.05q.55 3.1.25 6.55l-.1-1.2q.15-1.7-.5-5.15m-7.95-7.35l1.05 1.15-1.8-1.55-.95-.6q-.65-.4-1.05-.45.85.55 1.2 1.3l.4.8.2 1.65q-.2-1.55-.95-2.65l-.95-1 .3 1.3-.4-.7q-.45-.6-1.25-.95.85.6 1.15 1.85-.65-1.15-1.4-1.55.65.6.9 1.55-.4-.85-1.2-1.45.8.65.95 1.75-.25-.75-.85-1.15-.7-.75-1.25-.95l.75.8-.8-.4h-.05l-.1-.15L70 20l-.4-.25h.5l-.25-.15-.35-.2h1l-.15-.05q.95-.05 1.35.45l-.35-.6 1.55.2-.5-.3.9-.2q2-.25 4.65 1.1l.1.05 1.25 1.15q-.8-.6-2-1.1.85.65 1.55 1.85-1-1.1-2.1-1.65l-.1-.05-2.35-.55q.8.1 1.65.65l-2.05-.45q1.55.6 3.65 2.2l-1.25-.65 2.4 1.85.05.1.6.9-1.3-1.3-.15-.15-1.65-1.2" fill="url(#B)"/><radialGradient id="C" gradientUnits="userSpaceOnUse" gradientTransform="translate(71.15 26.4) scale(.00816)" spreadMethod="pad" cx="0" cy="0" r="819.2" fx="0" fy="0"><stop offset="0" stop-color="#4e2a1c"/><stop offset="1" stop-color="#c9b4a2"/></radialGradient><path d="M69.1 19.75h.2q.2.95.75 1.95l.05.05q1 1.25 1.4 2.45l.6 1.6q-.2-1.15-1-3l1 1.75q-.25-1.25-1.6-2.95l1.05 1.05-.2-.55q.55.3.95 2.3.15-.65-.1-1.6l-.85-1.15.45.25.05.05.65.85v.3l.05.1-.05.35v.8q-.3 1.3-.15 2.6l-.45-1.05.5 1.65-1.9-4.9 1.1 3.15-.95-2-.3-.9-.05-.15q-.65-2-1.5-2.4l.7 1.65-.7-1.2.2 1.1-.1 2.05-.05-2.3-.45-1 .25 1.1-.35-.8.15.6-.3-.35.15.7q-.55-.8 0-1.65l-.35.3h-.05q.6-.75 1.2-.8" fill="url(#C)"/><linearGradient id="D" gradientUnits="userSpaceOnUse" gradientTransform="matrix(.00311 -.00285 .00446 .00485 65.5 22.25)" x1="-819.2" x2="819.2"><stop offset=".024" stop-color="#b9825c"/><stop offset=".988" stop-color="#f3dacc"/></linearGradient><path d="M67.9 20.55v.05l-.3.5q-.65 1.7-1.5 2.9l.6-.7-.7 1.25-1.75 2.4-.1.1-2.1 2.2.65-.85q-1.6 1.5-2.9 2h-.3l-.3.05H59l.2-.05.5-.2.35-.15.05-.05.75-.4h.05l1.15-.85.05-.05.75-.75.1-.15.75-.65 2.3-3.3.8-1.65.55-1.25L66.6 22v-.1l.6-1.3v-.05l.65-.6v-.05h.05q.45-.3 1.05-.2H69l.1.05q-.6.05-1.2.8" fill="url(#D)"/><radialGradient id="E" gradientUnits="userSpaceOnUse" gradientTransform="translate(67.8 20.25) scale(.00865)" spreadMethod="pad" cx="0" cy="0" r="819.2" fx="0" fy="0"><stop offset="0" stop-color="#deded9"/><stop offset=".976" stop-color="#9b5a2f"/></radialGradient><path d="M66 33.9l-.7.8.7-.95.5-1 .05-.15.55-1.6.25-1.4-.5 1.25.75-2.65q.55-4 .3-5.55l-.35 3.8v-.2l.05-.25v-3.35l.05-.05-.05-1.5.3-.5.05-.05.35-.3q-.55.85 0 1.65l-.15-.7.3.35-.15-.6.35.8-.25-1.1.45 1 .05 2.3.1-2.05-.2-1.1.7 1.2-.7-1.65q.85.4 1.5 2.4l.05.15.3.9 1.7 4.5-2.65-5.85.35 2.15-.75-2.2q-.3 2.4-.8 3.75l-.9 3.15.85-2.15-.85 3.25-.25.7L68 30l-.1.4-1.25 2.75-.65.75" fill="url(#E)"/><linearGradient id="F" gradientUnits="userSpaceOnUse" gradientTransform="matrix(.00177 .0015 -.00156 .00183 70.9 21.45)" x1="-819.2" x2="819.2"><stop offset="0" stop-color="#b08168"/><stop offset=".988" stop-color="#70523d"/></linearGradient><path d="M72.35 22.4l.15.4-.65-.85-.05-.05q-.75-.7-1.8-.9l.4.8q-.65-.5-.75-1.8l.45.75-.4-.85q.5.85 1.1 1.1l-.55-.6h.05l1.25 1 .8 1" fill="url(#F)"/><linearGradient id="G" gradientUnits="userSpaceOnUse" gradientTransform="matrix(.00089 -.00308 .00443 .00125 67.1 26.4)" x1="-819.2" x2="819.2"><stop offset="0" stop-color="#552807"/><stop offset=".839" stop-color="#916650"/><stop offset=".976" stop-color="#aa9082"/></linearGradient><path d="M67.6 25.8v.2l-.05.25v.2L66.5 30.2l.25-1.55.15-.45.5-3.45.15-1.35v-.5l.05-.25v3.15" fill="url(#G)"/><linearGradient id="H" gradientUnits="userSpaceOnUse" gradientTransform="matrix(.00523 0 0 .00691 63.4 26.8)" x1="-819.2" x2="819.2"><stop offset=".024" stop-color="#8d5933"/><stop offset=".784" stop-color="#956847"/><stop offset="1" stop-color="#c4bbb5"/></linearGradient><path d="M67.5 21.7l-1 2.35-.5 1-.15.25-.05.1v.05l-1.65 2.15-.05.05-.4.5-.3.35-.3.35v.05h-.05l-1.55 1.65-.1.05-1.55 1.5-.4.3h-.05l1.45-1.55-1.75 1.2 2.2-2.2-1.5.55q1.3-.5 2.9-2l-.65.85 2.1-2.2.1-.1 1.75-2.4.7-1.25-.6.7q.85-1.2 1.5-2.9l.05 1.5-.05.05-.05.25-.05-1.2" fill="url(#H)"/><linearGradient id="I" gradientUnits="userSpaceOnUse" gradientTransform="matrix(-.00005 .00156 -.00244 -.0001 67.05 22.85)" x1="-819.2" x2="819.2"><stop offset=".008" stop-color="#110503"/><stop offset=".988" stop-color="#613d26"/></linearGradient><path d="M66.9 25.15l.4-1.95-1 2.55.8-2.45-.6.75 1-2.35.05 1.2v.5l-.65 1.75" fill="url(#I)"/><linearGradient id="J" gradientUnits="userSpaceOnUse" gradientTransform="matrix(.00284 0 0 .00754 65.25 29.4)" x1="-819.2" x2="819.2"><stop offset=".008" stop-color="#380801"/><stop offset=".988" stop-color="#67442b"/></linearGradient><path d="M66 29.9l-1.2 2.9-1.5 2.35-.4.4.65-1.15.15-.3.55-1.15.05-.2q1.15-2.25 1.65-4.65l-1.1 2.2L66 26.85l.15-.55-.85 1.9.85-2.75-1.7 3.75 1.35-3.75v-.05l.05-.1.15-.25.5-1 .6-.75-.8 2.45 1-2.55-.4 1.95.65-1.75-.15 1.35q-.35 2.3-1.4 5.15" fill="url(#J)"/><radialGradient id="K" gradientUnits="userSpaceOnUse" gradientTransform="translate(69.4 22.95) scale(.0129)" spreadMethod="pad" cx="0" cy="0" r="819.2" fx="0" fy="0"><stop offset="0" stop-color="#967665"/><stop offset=".251" stop-color="#82563f"/><stop offset=".965" stop-color="#6f381c"/></radialGradient><path d="M72.9 29.5l.1.2.3.7.25.4-.15-.15-.1-.15q-1.75-2.6-2.35-4.05l-.8-1.95.45 2.05q-.8-1.75-1.15-3.35l-.2 3.25q-.15 2.3-.9 4.15l-1 1.75.25-.8-.95 1.6 1.25-2.75.1-.4-.65 1.1.25-.7.85-3.25-.85 2.15.9-3.15q.5-1.35.8-3.75l.75 2.2-.35-2.15 2.65 5.85.55 1.2" fill="url(#K)"/><linearGradient id="L" gradientUnits="userSpaceOnUse" gradientTransform="matrix(.00296 -.00345 .00362 .0031 61.95 28.05)" x1="-819.2" x2="819.2"><stop offset=".024" stop-color="#764124"/><stop offset=".992" stop-color="#986646"/></linearGradient><path d="M60.9 28.1v-.05l2.15-2.75-1.55 2.45.55-.55 1.05-1.05-1.1 1.7 1.7-2.05.9-1.15 2-2.45-.6.95-2.3 3.2-.45.55-.75.95q-1.2.95-1.6 1.75h-.05l-.75.4.8-1.9" fill="url(#L)"/><linearGradient id="M" gradientUnits="userSpaceOnUse" gradientTransform="matrix(.00082 .00684 -.00688 .00082 75.75 26.75)" x1="-819.2" x2="819.2"><stop offset="0" stop-color="#8d4c2f"/><stop offset=".855" stop-color="#6c2f12"/></linearGradient><path d="M75.5 22.6l.2 3.95v.75q-.15 3.1 1.05 5.05l-.55-.6.2.3-.35-.4-.1-.1-.2-.5q-1-3.25-.5-5.65l.25-1.55v-.1q-.2-1.85-.85-2.75l.25.3.4.7h.05v.05l.15.55" fill="url(#M)"/><radialGradient id="N" gradientUnits="userSpaceOnUse" gradientTransform="translate(71.95 19.85) scale(.00906)" spreadMethod="pad" cx="0" cy="0" r="819.2" fx="0" fy="0"><stop offset="0" stop-color="#d4d4d3"/><stop offset=".518" stop-color="#bc9d8c"/><stop offset=".973" stop-color="#a0603d"/></radialGradient><path d="M77.4 22.9l-.65-.45q1.2 1.25 1.95 2.75-1.4-2.05-2.65-2.95v-.05l-1.15-.9-.25-.3q.65.9.85 2.75v.1l-.25 1.55-1.05 2.65.1-.65.45-1.45v-.1l.15-2.65-.85-2.15q.65 1.8.6 3.6-.3-2.1-.9-3.4l.5 2.7q-.5-2.2-.95-2.65l.2.6.05 1.3-.15-.6.1 2.25-.2-1.65-.5-1.6q.5 3 .3 4.4l-.4-3.65q.2 2.45 0 3.6l-.15-2.75-.05-.1v-.3l-.15-.4q-.25-.9-1.1-1.65l.35.2q.6.4.85 1.15-.15-1.1-.95-1.75.8.6 1.2 1.45-.25-.95-.9-1.55.75.4 1.4 1.55-.3-1.25-1.15-1.85.8.35 1.25.95l.4.7-.3-1.3.95 1q.75 1.1.95 2.65l-.2-1.65-.4-.8q-.35-.75-1.2-1.3.4.05 1.05.45l.95.6 1.8 1.55.1.1" fill="url(#N)"/><linearGradient id="O" gradientUnits="userSpaceOnUse" gradientTransform="matrix(.00131 0 0 .00146 71.3 21.2)" x1="-819.2" x2="819.2"><stop offset="0" stop-color="#ddbda1"/><stop offset=".839" stop-color="#c69571"/></linearGradient><path d="M71.55 21.4l-1.25-1 .8.4-.75-.8q.55.2 1.25.95l-.35-.2q.85.75 1.1 1.65l-.8-1" fill="url(#O)"/><linearGradient id="P" gradientUnits="userSpaceOnUse" gradientTransform="matrix(.00005 .00531 -.0064 .00006 73.85 26.8)" x1="-819.2" x2="819.2"><stop offset="0" stop-color="#ae7852"/><stop offset=".957" stop-color="#8e5332"/></linearGradient><path d="M72.5 24.35v-.8l.05-.35.15 2.75q.2-1.15 0-3.6l.4 3.65q.2-1.4-.3-4.4l.5 1.6.2 1.65-.1-2.25.15.6-.05-1.3.2 1.05-.2 4.05-.1-1.6-.1.95v1.55l.1.9.05.1q.2 1.05 1.05 2.35h.05v.05l.05.05.05.05.55.65L74 30.9l-.1-.15-.6-1.3q-.45-1.3-.5-2.85-.05 1.4.35 2.8-.45-1.25-.65-2.8v-2.25" fill="url(#P)"/><linearGradient id="Q" gradientUnits="userSpaceOnUse" gradientTransform="matrix(.001 .00172 -.00241 .00139 76.6 23.4)" x1="-819.2" x2="819.2"><stop offset="0" stop-color="#734120"/><stop offset="1" stop-color="#703523"/></linearGradient><path d="M75.7 26.55l-.2-3.95-.15-.55q.5.2.95.55 1.4 1.25 2.3 2.9l-1.8-1.95 1.3 1.8L76.75 24l1.1 2.2q-1-1.75-2.1-3l1.45 2.55-1.45-2.2h-.05v.05q.3 1.3 0 2.95" fill="url(#Q)"/><linearGradient id="R" gradientUnits="userSpaceOnUse" gradientTransform="matrix(.00096 .0059 -.00638 .00105 74.7 26.4)" x1="-819.2" x2="819.2"><stop offset="0" stop-color="#885e41"/><stop offset=".855" stop-color="#491909"/></linearGradient><path d="M74.25 29.3q0-.75.15-1.45l.2 2q-.1-1.05.1-1.85.1 1.7.6 2.55-.4-1.15-.4-2.45.35 1.75.85 2.95l.2.5.1.1q-.45-.2-.8-.55l.45.55q-2.5-1.1-2.05-4.45.45-2 .05-4.25l-.2-1.05-.2-.6q.45.45.95 2.65l-.5-2.7q.6 1.3.9 3.4.05-1.8-.6-3.6l.85 2.15-.15 2.65v.1l-.45 1.45-.1.65q-.1.7.05 1.25" fill="url(#R)"/><linearGradient id="S" gradientUnits="userSpaceOnUse" gradientTransform="matrix(.00214 .00406 -.0046 .00243 77.1 27.5)" x1="-819.2" x2="819.2"><stop offset="0" stop-color="#200300"/><stop offset=".886" stop-color="#592117"/></linearGradient><path d="M77.9 26.25l.6 1.85-.8-1.6.5 1.2.3 1.45-.8-1.95.55 1.95q.15 1.95-.1 2.6.2-1.9-.5-4l-.05-.15-1.5-3.35-.4-.65.05-.05 1.45 2.2-1.45-2.55q1.1 1.25 2.1 3l.05.05" fill="url(#S)"/><path d="M77.3 22.8l-1.05-1.15 1.65 1.2-.65-.45.35.65-.2-.15-.1-.1" fill="#c59262"/><linearGradient id="T" gradientUnits="userSpaceOnUse" gradientTransform="matrix(.00192 .00436 -.00488 .00217 76.7 27.35)" x1="-819.2" x2="819.2"><stop offset="0" stop-color="#270200"/><stop offset=".965" stop-color="#54281f"/></linearGradient><path d="M75.7 23.6l.4.65 1.3 3.6.1.15.25 3q-.25-2.35-.9-4.25l.35 3.4q-.3-2.65-1-4.35l.5 2.4.1 2.55q-.2-2.05-.6-3.5l.5 3.9q-.5-1.75-.7-3.75.1 3.05.75 4.95-1.2-1.95-1.05-5.05v-.75q.3-1.65 0-2.95" fill="url(#T)"/><linearGradient id="U" gradientUnits="userSpaceOnUse" gradientTransform="matrix(.00133 -.00243 .00508 .00278 58.2 34.2)" x1="-819.2" x2="819.2"><stop offset="0" stop-color="#552812"/><stop offset=".941" stop-color="#814622"/></linearGradient><path d="M57.25 33.7v.25q-.15 1.3.4 3.05-.75-1.3-.75-3.05l.15-1.85.35-1.65q.3-.7 1.05-1.45h.05l.85-.8q-1.65 2.2-2.1 3.9l-.15.8.3-.8q.7-1.8 3-4.6l-1.5 2.35-.9 1.35-.1.2-.3.7-.25.7-.2 1.15-.05.35.05-.35.1-.25" fill="url(#U)"/><linearGradient id="V" gradientUnits="userSpaceOnUse" gradientTransform="matrix(.0015 0 0 .00235 58.3 32.35)" x1="-819.2" x2="819.2"><stop offset=".024" stop-color="#854f26"/><stop offset="1" stop-color="#97613f"/></linearGradient><path d="M60.6 28.5l-.9 1.7-.5.2 1.4-1.9m-2.9 5.3v.1-.9l-.3.95-.05.2v-.2l.05-.7-.15.45-.1.25-.05.35.05-.35.2-1.15.35-.7 1.1-1.5-.9 1.6 1.25-1.75h.05l.3-.05-1.05 1.7q-.65 1.05-.75 1.7" fill="url(#V)"/><linearGradient id="W" gradientUnits="userSpaceOnUse" gradientTransform="matrix(.00143 -.00278 .00273 .00142 58.9 33.4)" x1="-819.2" x2="819.2"><stop offset=".024" stop-color="#552818"/><stop offset=".988" stop-color="#7a461f"/></linearGradient><path d="M58.7 32.9l.05-.1q-.3.5-.45 1.15-.15.45-.15.95l.05-.95q.15-.95.6-1.85l.4-.75-.6.75q-.7.95-.9 1.7.1-.65.75-1.7l1.05-1.7h.3l1.5-.55-2.2 2.2 1.75-1.2-1.45 1.55-.65.5m0 0l1.3-.7-.1.1q-.55.85-.8 1.65-.25.75-.25 1.4-.15-.6-.05-1.4l.05-.45-.15.45q-.2.6-.25 1.15v-1.15l.2-1 .05-.05h-.05m.4 5.7v-1.35l.05-.85.1-.95.7-2.4-.3.9L59.3 35l.15-1.05.45-1.35.15-.35.2-.15.05-.05v.1l.1-.05.9-.75-.95.9.25-.15 1.3-1.1-.55 1.1-.75 1.5v.05L60 34.7h-.05l-.25.7-.1.25-.05-.05v.05l-.05.35-.1.5.05-.55v-.05l-.05.05h.05l-.1.9-.05.15-.05.75.1 1-.25-.15m.7-.15v.15l.05.25.05.25.2 1.45-.8-1.2.2.15-.3-.35-.05-.2-.05-.1.3.15.3.05.2.05-.2-.1.1-.55" fill="url(#W)"/><path d="M60.9 28.1l-.8 1.9-.05.05-.35.15.9-1.7.3-.4" fill="#350300"/><linearGradient id="X" gradientUnits="userSpaceOnUse" gradientTransform="matrix(.00334 .00508 -.00534 .00351 58.15 34.25)" x1="-819.2" x2="819.2"><stop offset="0" stop-color="#a96f44"/><stop offset=".627" stop-color="#92532d"/><stop offset=".973" stop-color="#a86e43"/></linearGradient><path d="M57.35 37.3l-.45-1.1q-.25-1-.35-2.25l-.05-.75v-1.1q.1-.9.6-2.1-.4 1.1-.45 2.1v.95l.1-.95.35-1.5q.5-1 1.35-1.6-.75.75-1.05 1.45l-.35 1.65-.15 1.85q0 1.75.75 3.05l.3.4.75.85.25.2.15.15.25.15.35.25.2.1-.2-.05-.3-.05-.3-.15-.25-.15.3.35.05.1.3.35-.2-.15-.1-.1-1.45-1.35-.05-.05-.1-.15-.05-.05-.2-.35" fill="url(#X)"/><linearGradient id="Y" gradientUnits="userSpaceOnUse" gradientTransform="matrix(-.00238 .00533 -.00586 -.0026 55.25 34.25)" x1="-819.2" x2="819.2"><stop offset="0" stop-color="#9a5d28"/><stop offset=".957" stop-color="#bd843c"/></linearGradient><path d="M55 37.8q-.2-2 0-3.85v-.15l-.05.15-.25 1 .1-1q.1-.95.35-1.85.5-2.2 1.75-4.05-.95 1.6-1.4 4.05l-.25 1.85-.05.8.1 2.55-.05.1-.05.15.1 1.05-.1-.25-.1-.3-.1-.25" fill="url(#Y)"/><path d="M63.05 28.95l-.55.85v.1l-.05.1-.55 1-1.3 1.1-.25.15.95-.9-.9.75-.1.05v-.1l-.05.05-.2.15.05-.05v-.1l.6-.5.7-1 .1-.05 1.55-1.65h.05l-.05.05" fill="#8d5a3b"/><linearGradient id="Z" gradientUnits="userSpaceOnUse" gradientTransform="matrix(-.00027 -.00203 .00339 -.00044 58.55 34.75)" x1="-819.2" x2="819.2"><stop offset="0" stop-color="#140000"/><stop offset=".925" stop-color="#5d2d1b"/></linearGradient><path d="M60.05 32.25l-.15.35-.45 1.35L59.3 35l.35-1.05.3-.9-.7 2.4-.1.95-.05.85v1.35l-.15-.15-.25-.55-.15-.5h-.6l-.3-.4q-.55-1.75-.4-3.05v-.25l.15-.45-.05.7v.2l.05-.2.3-.95v.9-.1q.2-.75.9-1.7l.6-.75-.4.75q-.45.9-.6 1.85l-.05.95q0-.5.15-.95.15-.65.45-1.15l-.05.1v.05l-.2 1v1.15q.05-.55.25-1.15l.15-.45-.05.45q-.1.8.05 1.4 0-.65.25-1.4.25-.8.8-1.65l.1-.1h.05l-.05.05" fill="url(#Z)"/><path d="M59.4 32.4h.05l.4-.3 1.55-1.5-.7 1-.6.5v.1h-.05l-1.3.7.65-.5" fill="#643820"/><linearGradient id="aa" gradientUnits="userSpaceOnUse" gradientTransform="matrix(.00208 -.00282 .0036 .00266 61.25 32.9)" x1="-819.2" x2="819.2"><stop offset=".024" stop-color="#9b6c47"/><stop offset=".988" stop-color="#845235"/></linearGradient><path d="M61.9 31l.55-1-.7 1.65.75-1.25-1.6 4q-.55 1.4-.7 2.75l.05-.7.05-.3v-.4l-.4 1.55q0-1.5.85-3.35l.15-.4-.2.4-.95 2 .75-2 .1-.3v-.05l.75-1.5.55-1.1" fill="url(#aa)"/><linearGradient id="ab" gradientUnits="userSpaceOnUse" gradientTransform="matrix(-.00087 .00449 -.00554 -.00108 61.25 33.6)" x1="-819.2" x2="819.2"><stop offset=".024" stop-color="#6e3d25"/><stop offset=".537" stop-color="#824d35"/><stop offset=".988" stop-color="#92623d"/></linearGradient><path d="M60.25 36.45l-.05.7q.15-1.35.7-2.75l1.6-4-.75 1.25.7-1.65.05-.1v-.1l.55-.85-1 3.15-.75 1.85-.1.15q-.65 1.5-.85 2.85l.15-.3.2-.45-.4 1.25.1-.05-.3.75h-.05l.2-1.7m-.45 1.45l-.1-.2-.25-1.15-.05-.05-.05.35.1-.9-.05.55.1-.5.05-.35v-.05l.05.05.1-.25.25-.7H60l.6-1.05-.1.3-.75 2 .95-2 .2-.4-.15.4q-.85 1.85-.85 3.35l.4-1.55v.4l-.5 1.75m.95-.95l-.05.4-.05.2.1-.6" fill="url(#ab)"/><linearGradient id="ac" gradientUnits="userSpaceOnUse" gradientTransform="matrix(.00342 .00238 -.00322 .00464 57.1 37.5)" x1="-819.2" x2="819.2"><stop offset="0" stop-color="#ac6634"/><stop offset=".973" stop-color="#9c5628"/></linearGradient><path d="M55.35 37.9l.15.7.65 1.55q-.3-.8-.45-1.9l-.2-2.45.4 2.15.3 1.1-.2-1.3q-.3-1.75-.15-3.5l.2-1.4q-.05.55.05 1.1v.25l.1-.95.05.7.25 1.45v.15l.35.85.5 1v-.1l.2.35.25.65-.5-.55.05.35-.65-1.5-.3-1.15v1l-.4-2.2q-.15 1.75.1 3.25.4 1.6 1.3 2.9l-.85-1.9q.5 1.4 1.95 2.95l.15.2-.7-.35.6.65-.15-.1.4.3-.2-.05-.45-.25-.5-.4q-.75-.65-1.35-1.8v.1l.1.75.2.95.15.7-.35-.7-.65-1.9-.25-.9-.15-.75" fill="url(#ac)"/><linearGradient id="ad" gradientUnits="userSpaceOnUse" gradientTransform="matrix(.00151 0 0 .00404 57.2 37.55)" x1="-819.2" x2="819.2"><stop offset="0" stop-color="#703011"/><stop offset=".925" stop-color="#451a0c"/><stop offset=".957" stop-color="#662609"/></linearGradient><path d="M57.4 40.4q-.9-1.3-1.3-2.9-.25-1.5-.1-3.25l.4 2.2v-1l.3 1.15.65 1.5v.05l.45.65q-.6-.35-.95-1.45.1 1.1.85 2.55l-.35-1.3 1.05 2.25q-1.5-1.4-2.05-3.75l-.1-.6.05.75.25 1.25.85 1.9" fill="url(#ad)"/><linearGradient id="ae" gradientUnits="userSpaceOnUse" gradientTransform="matrix(.00186 0 0 .00342 57.75 39.3)" x1="-819.2" x2="819.2"><stop offset="0" stop-color="#965736"/><stop offset=".957" stop-color="#662609"/></linearGradient><path d="M58.85 41.2l.15.25.3.55-.6-.1.35.2-.5-.15-.6-.65.7.35-.15-.2q-1.45-1.55-1.95-2.95l-.25-1.25-.05-.75.1.6q.55 2.35 2.05 3.75l.45.35" fill="url(#ae)"/><path d="M59.7 39l-.35-.25-.1-1 .05-.75.05-.15.05-.35.05.05.25 1.15.05.45.05.3-.1.55" fill="#7a461f"/><linearGradient id="af" gradientUnits="userSpaceOnUse" gradientTransform="matrix(-.00105 .0022 -.00272 -.0013 61.3 35.7)" x1="-819.2" x2="819.2"><stop offset=".024" stop-color="#60361c"/><stop offset=".988" stop-color="#7d502f"/></linearGradient><path d="M61.7 33.2l-.25.75-.55 1.45 1.05-2.1-.45 1.3.75-1.3-.7 2.15.25-.35-.1.6-.4.55-.6 1.1.05-.4v-.2l-.2.35-.15.3-.1.05.4-1.25-.2.45-.15.3q.2-1.35.85-2.85l.1-.15.4-.75" fill="url(#af)"/><path d="M78.6 25.95l-.05-.1-.45-.5-1.3-1.8 1.8 1.95.55 1.15v.05l-.55-.75" fill="#3f0f09"/><linearGradient id="ag" gradientUnits="userSpaceOnUse" gradientTransform="matrix(.00403 .0008 -.0013 .00665 77.5 29.6)" x1="-819.2" x2="819.2"><stop offset="0" stop-color="#602817"/><stop offset="1" stop-color="#4a1911"/></linearGradient><path d="M75.35 35l-1.1.1h-.15q4.2-1.35 4.7-3.1l.05-.1-.35-3.8-.6-1.85-.05-.05-1.1-2.2 1.35 1.35.45.5.05.1 1.2 2.4-1.05-1.55q1 2 1.75 4.55l.1.05.25 2.4-.15-1.1-.05 1.35q0-1.75-.55-3.15v-.2l-.9-2.35v-.05l-.05-.1q-.75-1.8-1.65-3.05l.95 2.05q.6 1.8.65 3.35v.05q.05 1-.25 1.9h-.1q-.6 1-3.25 2.45l-.15.05" fill="url(#ag)"/><linearGradient id="ah" gradientUnits="userSpaceOnUse" gradientTransform="matrix(-.00082 .00418 -.0068 -.00131 75.35 29.95)" x1="-819.2" x2="819.2"><stop offset="0" stop-color="#481a12"/><stop offset=".941" stop-color="#873b2f"/></linearGradient><path d="M77.3 32.75q.4-.6.45-1.75l-.25-3-.1-.15-1.3-3.6 1.5 3.35.05.15q.7 2.1.5 4 .25-.65.1-2.6l-.55-1.95.8 1.95-.3-1.45-.5-1.2.8 1.6.35 3.8-.05.1q-.5 1.75-4.7 3.1h.15l-.95.4-.55.1h-.85l.95-.3.1-.05.35-.05 2.6-.95q1.6-.75 2.5-2.05l.25-1L77.5 33l.4-1.1-.6.9v-.05" fill="url(#ah)"/><linearGradient id="ai" gradientUnits="userSpaceOnUse" gradientTransform="matrix(.00066 .00485 -.0051 .0007 76.2 29.45)" x1="-819.2" x2="819.2"><stop offset="0" stop-color="#3c1106"/><stop offset=".945" stop-color="#61271b"/></linearGradient><path d="M77.3 32.75l-.05.05-.15.2-.05.05-.1.05-.25.2-.3.15-1.65.75.9-1 .25-.55.2.1-.45-.55.65.4-.45-.4v-.05l-.15-.3.5.45-.25-.55.65.6-.2-.3-.2-.3.55.6q-.65-1.9-.75-4.95.2 2 .7 3.75l-.5-3.9q.4 1.45.6 3.5l-.1-2.55-.5-2.4q.7 1.7 1 4.35l-.35-3.4q.65 1.9.9 4.25-.05 1.15-.45 1.75" fill="url(#ai)"/><linearGradient id="aj" gradientUnits="userSpaceOnUse" gradientTransform="matrix(.00125 .00078 -.0022 .00354 71.7 26.1)" x1="-819.2" x2="819.2"><stop offset=".016" stop-color="#280200"/><stop offset=".973" stop-color="#501a02"/></linearGradient><path d="M72.5 26.6q0 .8.15 1.6v.2l.25 1.1-.55-1.2-1.7-4.5.95 2-1.1-3.15 1.9 4.9-.5-1.65.45 1.05q-.15-1.3.15-2.6v2.25" fill="url(#aj)"/><linearGradient id="ak" gradientUnits="userSpaceOnUse" gradientTransform="matrix(.00333 .00598 -.00328 .00183 72.8 28.75)" x1="-819.2" x2="819.2"><stop offset="0" stop-color="#966a4b"/><stop offset=".871" stop-color="#692a0f"/></linearGradient><path d="M74.7 31.4l-.1-.05-.05-.05v-.05h-.05q-.85-1.3-1.05-2.35l-.05-.1-.1-.9v-1.55l.1-.95.1 1.6.2-4.05q.4 2.25-.05 4.25-.45 3.35 2.05 4.45l-.45-.55q.35.35.8.55l.35.4.2.3-.65-.6.25.55-.5-.45.15.3v.05l.45.4-.65-.4.45.55-.2-.1-.4-.2-.2-.1q-1-.6-1.6-1.4l-.15-.15-.25-.4-.3-.7-.1-.2-.25-1.1v-.2q-.15-.8-.15-1.6.2 1.55.65 2.8-.4-1.4-.35-2.8.05 1.55.5 2.85l.6 1.3.1.15 1.2 1.15-.55-.65h.05" fill="url(#ak)"/><linearGradient id="al" gradientUnits="userSpaceOnUse" gradientTransform="matrix(-.00113 .0021 -.00662 -.00354 69.9 29.4)" x1="-819.2" x2="819.2"><stop offset="0" stop-color="#250706"/><stop offset=".965" stop-color="#481713"/></linearGradient><path d="M64.5 35.55l.8-.85.7-.8.65-.75.95-1.6-.25.8 1-1.75q.75-1.85.9-4.15l.2-3.25q.35 1.6 1.15 3.35l-.45-2.05.8 1.95q.6 1.45 2.35 4.05l.1.15.15.15.15.15q.6.8 1.6 1.4l-1 1 .55-.9-1.2 1.2-.35.35-1.3 1 1.3-1.3.1-.15.7-1.2-1.3 1.45.3-.4.2-.35q.4-.75.4-1.5l-.2.45-.1-.6-.1-.35-.2-.45v-.1l-.6 1.05.25-.75-1.25 1.7-1.5 1.55 1.35-1.65.2-.3-1.85 1.6 1.65-1.8-.3.3q-2.75 2.4-3.4 2.55l1.05-.85.1-.05L70.7 32l.65-.8.05-.05.7-1.1-.65.75.7-1.8-.85 1.9.55-2.5-.85 2.4.2-.85.15-1-.8 2.3q.55-1.85.25-3.45l-.3 2.1q.2-1.45 0-2.65-.6 2.55-1.25 3.55 1.15-2.8 1.05-4.6l-.35 1.5L70 26q-.4 3.15-1.2 4.85l-.2.35.35-1.4-.35.95-.6 1.3.3-1.05-1.2 2.2-.1.05v.05l-1 1.2-.9.7-.15.05v.05l-.25.1-.2.15" fill="url(#al)"/><linearGradient id="am" gradientUnits="userSpaceOnUse" gradientTransform="matrix(-.00221 .0039 -.00499 -.00284 68.5 30.75)" x1="-819.2" x2="819.2"><stop offset="0" stop-color="#5a2516"/><stop offset=".965" stop-color="#69341e"/></linearGradient><path d="M69.1 33.15l1.25-1.55-1.5 1.4 1.35-1.85-1.4 1.6.9-1.35.6-1.45-.95 1.55.8-1.9-.8 1.6-1.05 1.5v.1L66 34.85l-1.2.6.15-.15v-.05l.15-.05.9-.7 1-1.2v-.05l.1-.05 1.2-2.2-.3 1.05.6-1.3.35-.95-.35 1.4.2-.35q.8-1.7 1.2-4.85l-.05 1.7.35-1.5q.1 1.8-1.05 4.6.65-1 1.25-3.55.2 1.2 0 2.65l.3-2.1q.3 1.6-.25 3.45l.8-2.3-.15 1-.2.85.85-2.4-.55 2.5.85-1.9-.7 1.8.65-.75-.7 1.1-.05.05-2.25 1.95" fill="url(#am)"/><linearGradient id="an" gradientUnits="userSpaceOnUse" gradientTransform="matrix(.00156 -.00336 .00272 .00127 69.4 33.8)" x1="-819.2" x2="819.2"><stop offset="0" stop-color="#66331f"/><stop offset=".443" stop-color="#7d422c"/><stop offset=".965" stop-color="#602b19"/></linearGradient><path d="M67.35 35.05l.1-.1.2-.2q.65-.15 3.4-2.55l.3-.3-1.65 1.8 1.85-1.6-.2.3L70 34.05l1.5-1.55 1.25-1.7-.25.75.6-1.05v.1l-.45 1.4h-.05l-.5.8-2.1 2v.05h-.05l-2.85.55q1.35-.3 2.2-1.15-.95.75-1.95.8" fill="url(#an)"/><linearGradient id="ao" gradientUnits="userSpaceOnUse" gradientTransform="matrix(.00069 .00317 -.00337 .00072 74.7 27.5)" x1="-819.2" x2="819.2"><stop offset="0" stop-color="#7a3b1e"/><stop offset=".855" stop-color="#4a1a0a"/></linearGradient><path d="M74.2 28.05l1.05-2.65q-.5 2.4.5 5.65-.5-1.2-.85-2.95 0 1.3.4 2.45-.5-.85-.6-2.55-.2.8-.1 1.85l-.2-2q-.15.7-.15 1.45-.15-.55-.05-1.25" fill="url(#ao)"/><linearGradient id="ap" gradientUnits="userSpaceOnUse" gradientTransform="matrix(.002 -.00272 .00217 .00159 72.7 33.6)" x1="-819.2" x2="819.2"><stop offset="0" stop-color="#6d2f12"/><stop offset=".439" stop-color="#96553a"/><stop offset=".973" stop-color="#561503"/></linearGradient><path d="M70.3 35.45l1.35-.85v-.05l1.15-1.35.5-1.1.1-.7.1.6.2-.45q0 .75-.4 1.5l-.2.35-.3.4 1.3-1.45-.7 1.2-.1.15L72 35l1.3-1 .35-.35 1.2-1.2-.55.9 1-1 .2.1.4.2-.25.55-1.45 1.05 1.3-1.75-1.65 1.7-.4.25-.15.1-1 .55-2.35.7.75-.4-.4.05" fill="url(#ap)"/><linearGradient id="aq" gradientUnits="userSpaceOnUse" gradientTransform="matrix(.00314 -.00198 .0016 .00253 71.3 33.45)" x1="-819.2" x2="819.2"><stop offset="0" stop-color="#905134"/><stop offset=".455" stop-color="#b87452"/><stop offset="1" stop-color="#66290c"/></linearGradient><path d="M73.3 32.1l-.5 1.1-1.15 1.35v.05l-1.35.85-.4.05.65-.25-.65.1q1.75-.9 2.65-2.3l.55-1.25-.75 1.15-1.15 1.1.9-1.25.5-.8h.05l.45-1.4.2.45.1.35-.1.7" fill="url(#aq)"/><linearGradient id="ar" gradientUnits="userSpaceOnUse" gradientTransform="matrix(.00235 0 0 .0022 71.2 33.6)" x1="-819.2" x2="819.2"><stop offset="0" stop-color="#b6785d"/><stop offset=".427" stop-color="#c58465"/><stop offset=".949" stop-color="#a45f42"/></linearGradient><path d="M69.55 35.2l.1-.05.1-.05.1-.05V35l.05-.05.05-.1H70v-.05l2.1-2-.9 1.25 1.15-1.1.75-1.15-.55 1.25q-.9 1.4-2.65 2.3h-.1l.75-.65q-.05 0-.45.3l-.8.4.25-.2" fill="url(#ar)"/><linearGradient id="as" gradientUnits="userSpaceOnUse" gradientTransform="matrix(.00336 0 0 .00093 74.65 35.05)" x1="-819.2" x2="819.2"><stop offset="0" stop-color="#7d472c"/><stop offset="1" stop-color="#682915"/></linearGradient><path d="M75.5 34.95l1.9-.65q-.85.75-2.75 1.25l-1.75.25h-.05l-.95-.05.95-.15h-.1l.55-.1.95-.4 1.1-.1.15-.05" fill="url(#as)"/><linearGradient id="at" gradientUnits="userSpaceOnUse" gradientTransform="matrix(.00452 -.0026 .00122 .0021 75.8 33.2)" x1="-819.2" x2="819.2"><stop offset="0" stop-color="#813d25"/><stop offset=".443" stop-color="#9e5941"/><stop offset="1" stop-color="#4d180d"/></linearGradient><path d="M74.75 34.2l1.65-.75.3-.15.25-.2.1-.05.05-.05.15-.2h.05l.6-.9-.4 1.1 1.15-1.8-.25 1q-.9 1.3-2.5 2.05l-2.6.95-.35.05.35-.15 1.45-.9" fill="url(#at)"/><linearGradient id="au" gradientUnits="userSpaceOnUse" gradientTransform="matrix(.00041 .00404 -.00443 .00046 79.75 33.6)" x1="-819.2" x2="819.2"><stop offset="0" stop-color="#491104"/><stop offset="1" stop-color="#8a4327"/></linearGradient><path d="M79.5 31.65q.1-1.25-.35-2.5l.9 2.4.05.15q.55 2.55-.35 4.7.2-2.7-.25-4.75" fill="url(#au)"/><linearGradient id="av" gradientUnits="userSpaceOnUse" gradientTransform="matrix(.00272 0 0 .00674 65.15 30.2)" x1="-819.2" x2="819.2"><stop offset=".008" stop-color="#895530"/><stop offset=".431" stop-color="#b47e5a"/><stop offset=".988" stop-color="#8b4d29"/></linearGradient><path d="M63.3 35.15l1.5-2.35 1.2-2.9q1.05-2.85 1.4-5.15l-.5 3.45-.15.45-.65 2.4-.1.2-1.45 2.55v.05h-.05v.05l-.9 1.3v.05h-.05l-.05.05v.1l-.55.35.35-.6" fill="url(#av)"/><linearGradient id="aw" gradientUnits="userSpaceOnUse" gradientTransform="matrix(.00188 -.00565 .00645 .00214 66.25 28.25)" x1="-819.2" x2="819.2"><stop offset="0" stop-color="#7e472a"/><stop offset=".839" stop-color="#916650"/><stop offset=".976" stop-color="#aa9082"/></linearGradient><path d="M66.1 32.5l.55-1.05-.65.9-.7.85.7-1.15.35-.8-.35.55-1.45 2L66 31.25l.1-.2.65-2.4-.25 1.55 1.05-3.75.35-3.8q.25 1.55-.3 5.55l-.75 2.65.5-1.25-.25 1.4-1 1.5" fill="url(#aw)"/><linearGradient id="ax" gradientUnits="userSpaceOnUse" gradientTransform="matrix(.00288 0 0 .00395 64.45 25.45)" x1="-819.2" x2="819.2"><stop offset=".024" stop-color="#9a6240"/><stop offset=".992" stop-color="#774b31"/></linearGradient><path d="M62.25 28.3l.05-.05 1.4-1.45.75-.95v-.05L66 23.55l.8-1.35-.8 1.65-2.3 3.3-.75.65-.1.15-.75.75.15-.4" fill="url(#ax)"/><linearGradient id="ay" gradientUnits="userSpaceOnUse" gradientTransform="matrix(.00087 -.00613 .00703 .001 63.9 31.2)" x1="-819.2" x2="819.2"><stop offset=".024" stop-color="#824e33"/><stop offset=".447" stop-color="#5e2a18"/><stop offset=".988" stop-color="#824e33"/></linearGradient><path d="M61.7 35.7l.1-.6.05-.05.35-1.1.25-.75.05-.15.8-2.75-.5 1 .6-2.8.3-.35-.4 1.95.8-2.45.05-.05 1.65-2.15-1.35 3.75 1.7-3.75-.85 2.75.85-1.9-.15.55-1.15 3.45 1.1-2.2q-.5 2.4-1.65 4.65l-.05.2-.55 1.15-.15.3-.65 1.15v.05l-.3.4-.55 1 .4-1.25-.55 1.15 1-2.9-.65 1.25 2.95-8.4-.7 1.45.4-1.45-3.25 8.95.05-.1m2.4-5.05l-.8 2.75.5-.85-.85 2.1 1.3-2.85-.35 1.55 1.25-3.2-.7 1.1 1-3.05-.5.65.15-.7-.85 2.25-.15.25" fill="url(#ay)"/><path d="M62.5 27.85l-.35.55.1-.1-.15.4-.05.05-1.15.85q.4-.8 1.6-1.75" fill="#603318"/><linearGradient id="az" gradientUnits="userSpaceOnUse" gradientTransform="matrix(-.00119 .00197 -.00363 -.0022 62.1 32)" x1="-819.2" x2="819.2"><stop offset=".024" stop-color="#53291a"/><stop offset=".447" stop-color="#2e0900"/><stop offset=".988" stop-color="#51271a"/></linearGradient><path d="M61.8 35.1l-.25.35.7-2.15-.75 1.3.45-1.3-1.05 2.1.55-1.45.25-.75-.4.75.75-1.85 1-3.15.05-.05v-.05l.3-.35-.6 2.8.5-1-.8 2.75-.05.15-.25.75-.35 1.1-.05.05" fill="url(#az)"/><linearGradient id="aA" gradientUnits="userSpaceOnUse" gradientTransform="matrix(.00182 -.00388 .00359 .00168 64.15 31.4)" x1="-819.2" x2="819.2"><stop offset=".024" stop-color="#6b3722"/><stop offset=".447" stop-color="#926140"/><stop offset=".988" stop-color="#66321e"/></linearGradient><path d="M64.25 30.4l.85-2.25-.15.7.5-.65-1 3.05.7-1.1-1.25 3.2.35-1.55-1.3 2.85.85-2.1-.5.85.8-2.75.15-.25" fill="url(#aA)"/><path d="M63.3 30.1l.4-1.95.4-.5-.8 2.45" fill="#300804"/><linearGradient id="aB" gradientUnits="userSpaceOnUse" gradientTransform="matrix(.00185 -.00465 .00601 .00237 63.45 31.8)" x1="-819.2" x2="819.2"><stop offset=".024" stop-color="#9f6a47"/><stop offset=".447" stop-color="#a6734e"/><stop offset=".988" stop-color="#875231"/></linearGradient><path d="M61.65 35.8l3.25-8.95-.4 1.45.7-1.45-2.95 8.4.65-1.25-1 2.9-.25.5.25-1-.35.7.1-1.3" fill="url(#aB)"/><path d="M66.1 32.5l-.05.15-.05.1-.7.85 1.05-1-.35.65-1.3 1.55.4-.75-1.15 1.3.4-.8-.7.7h-.05v-.05l.9-1.3v-.05h.05v-.05l1.45-2 .35-.55-.35.8-.7 1.15.7-.85.65-.9-.55 1.05" fill="#8c5a39"/><path d="M67.1 31l-.55 1.6-.05.15-.5 1-.7.95-.8.85-.8.35v-.05l.6-.45-1.05.6.3-.25.15-.15.1-.3-.75.6.45-.5v-.1l.05-.05h.1l.7-.7-.4.8 1.15-1.3-.4.75 1.3-1.55.35-.65-1.05 1 .7-.85.05-.1.05-.15 1-1.5" fill="#643721"/><linearGradient id="aC" gradientUnits="userSpaceOnUse" gradientTransform="matrix(.00197 -.00298 .0029 .0019 67.6 33.1)" x1="-819.2" x2="819.2"><stop offset="0" stop-color="#8b4f2f"/><stop offset=".443" stop-color="#9f5f44"/><stop offset=".965" stop-color="#602b19"/></linearGradient><path d="M68.3 32.8v-.1l1.05-1.5.8-1.6-.8 1.9.95-1.55-.6 1.45-.9 1.35 1.4-1.6L68.85 33l1.5-1.4-1.25 1.55 2.25-1.95-.65.8-1.9 1.85-.1.05-1.05.85-.2.2-.1.05-1.35.3-.5.05.5-.2 2-1.3-1.1.7q.8-.7 1.4-1.75" fill="url(#aC)"/><path d="M69.3 34.25q-.85.85-2.2 1.15l2.85-.55-.05.1-.05.05v.05l-.1.05-.1.05-.1.05-2.2.6.65-.25-1.5.2.85-.15-.85-.05.75-.45.05-.05h.05q1-.05 1.95-.8" fill="#4c1a05"/><linearGradient id="aD" gradientUnits="userSpaceOnUse" gradientTransform="matrix(.00249 -.00357 .0021 .00148 80.15 43.15)" x1="-819.2" x2="819.2"><stop offset="0" stop-color="#370a00"/><stop offset=".49" stop-color="#6c2e20"/><stop offset=".855" stop-color="#481e08"/></linearGradient><path d="M78.7 45.25l-.45.4L81 41.7l.3-.5-.7 1.65L81.65 41v.1l-.2.6q-.8 1.9-2.75 3.55" fill="url(#aD)"/><linearGradient id="aE" gradientUnits="userSpaceOnUse" gradientTransform="matrix(.00195 0 0 .00418 82.95 40.35)" x1="-819.2" x2="819.2"><stop offset="0" stop-color="#d19364"/><stop offset=".459" stop-color="#f3d4bb"/><stop offset="1" stop-color="#c88653"/></linearGradient><path d="M84.45 36.95l.1.6q0 2.85-3.2 6.25l2.1-3.45q1.1-2.05.85-3.4h.15" fill="url(#aE)"/><linearGradient id="aF" gradientUnits="userSpaceOnUse" gradientTransform="matrix(.00537 0 0 .0076 80.05 25.6)" x1="-819.2" x2="819.2"><stop offset="0" stop-color="#d19364"/><stop offset=".459" stop-color="#f3d4bb"/><stop offset="1" stop-color="#c88653"/></linearGradient><path d="M83.65 28.3q-1.65-4.2-2.1-4.65l-1.2-1.4-1.4-1.55q-1.1-.85-3.3-1.3h.15q4.5.65 6.7 5.15 1.7 3.45 1.95 5.9l-.8-2.15" fill="url(#aF)"/><linearGradient id="aG" gradientUnits="userSpaceOnUse" gradientTransform="matrix(.00342 -.00566 .00412 .00249 66.35 19.25)" x1="-819.2" x2="819.2"><stop offset=".459" stop-color="#f3d4bb"/><stop offset=".988" stop-color="#d49b70"/></linearGradient><path d="M69.3 17.85q-3.1 0-5.9 3L60 25.2l-.15.05q1.65-3.65 5.55-6.4 4.1-2.85 5.3-.3l-.05.1-.4-.45q-.4-.35-.95-.35" fill="url(#aG)"/><linearGradient id="aH" gradientUnits="userSpaceOnUse" gradientTransform="matrix(.00336 0 0 .01093 56.85 36.3)" x1="-819.2" x2="819.2"><stop offset="0" stop-color="#d19364"/><stop offset=".459" stop-color="#f3d4bb"/><stop offset="1" stop-color="#c88653"/></linearGradient><path d="M57.3 42.85l.25.4q-1.15-1.45-2-3.4-1.45-3.35-1.45-6.65 0-3.65 1.05-5.85-.95 2.2-.95 5.85 0 3.15 1.5 6.6l.45.95 1.15 2.1m1.1 1.25l1.2 1.15-.85-.7-.35-.45" fill="url(#aH)"/><linearGradient id="aI" gradientUnits="userSpaceOnUse" gradientTransform="matrix(.0044 0 0 .00647 58.75 42)" x1="-819.2" x2="819.2"><stop offset="0" stop-color="#d19364"/><stop offset=".459" stop-color="#f3d4bb"/><stop offset="1" stop-color="#c88653"/></linearGradient><path d="M58.75 44.55q1.8 2.3 3.6 2.75-2.45-.4-4.8-4.05l-.25-.4-1.15-2.1q-1-2.1-1-3.55 0-.4.2-.5l-.05.55q0 1.95 2.2 5.5l.9 1.35.35.45" fill="url(#aI)"/><linearGradient id="aJ" gradientUnits="userSpaceOnUse" gradientTransform="matrix(.00977 0 0 .01093 62.6 26.95)" x1="-819.2" x2="819.2"><stop offset="0" stop-color="#d19364"/><stop offset=".459" stop-color="#f3d4bb"/><stop offset="1" stop-color="#c88653"/></linearGradient><path d="M66.95 18.15q-3.1 0-6.55 2.25-2.9 1.9-3.85 3.7-1.85 3.25-1.85 7.8 0 2.5.35 4h-.1q-.35-2.45-.35-3.95 0-4.95 1.95-8.05 1.45-2.4 4.5-4.1 2.9-1.65 5.5-1.8l.9.05.45.05q2.35.15 2.7.7v.05l-1.35-.35-2.3-.35" fill="url(#aJ)"/><linearGradient id="aK" gradientUnits="userSpaceOnUse" gradientTransform="matrix(.0028 0 0 .00253 72.85 20.15)" x1="-819.2" x2="819.2"><stop offset="0" stop-color="#d19364"/><stop offset=".459" stop-color="#f3d4bb"/><stop offset="1" stop-color="#c88653"/></linearGradient><path d="M75.15 22.25L73.6 19.3q-1-1.4-2.7-.5l-.35-.05q1.8-1.5 3.3.55.85 1.25 1.3 2.95" fill="url(#aK)"/><linearGradient id="aL" gradientUnits="userSpaceOnUse" gradientTransform="matrix(.00754 0 0 .01407 79.5 30)" x1="-819.2" x2="819.2"><stop offset="0" stop-color="#d19364"/><stop offset=".459" stop-color="#f3d4bb"/><stop offset="1" stop-color="#c88653"/></linearGradient><path d="M85.7 35q0 2.2-.35 3.15-.55 1.3-2.65 3.4l-.05-.05q2.05-2.2 2.55-3.45.35-.9.35-3.05 0-4.3-1.6-8.6-2.85-7.6-9.45-7.6l-1.15-.15q6.75-1.1 10.15 6.55 2.2 4.95 2.2 9.8" fill="url(#aL)"/><linearGradient id="aM" gradientUnits="userSpaceOnUse" gradientTransform="matrix(.00093 -.00352 .00525 .00139 81.35 32.15)" x1="-819.2" x2="819.2"><stop offset="0" stop-color="#fff" stop-opacity="0"/><stop offset=".604" stop-color="#fff" stop-opacity=".29"/><stop offset="1" stop-color="#fff" stop-opacity="0"/></linearGradient><path d="M81.65 28.25q1.2 2.65.4 6.25l-1.65 2.1q2-3.2.5-8.9l.95 2.7-.2-2.15" fill="url(#aM)"/><linearGradient id="aN" gradientUnits="userSpaceOnUse" gradientTransform="matrix(.00691 -.00726 .00098 .00093 61.4 24.8)" x1="-819.2" x2="819.2"><stop offset="0" stop-color="#fff" stop-opacity="0"/><stop offset=".549" stop-color="#fff" stop-opacity=".58"/><stop offset="1" stop-color="#fff" stop-opacity="0"/></linearGradient><path d="M63.8 20.5l-.1.1 1.45-.4-2.55 1.75 4.55-2.3.65-.15q-7.55 3.75-11.25 11.95.85-3.4 5.45-8.55-2.15 1.55-3.9 3.95.85-1.75 4.35-5.5L63 21l.8-.5" fill="url(#aN)"/><linearGradient id="aO" gradientUnits="userSpaceOnUse" gradientTransform="matrix(.0055 -.00578 .00468 .00446 62.15 24.1)" x1="-819.2" x2="819.2"><stop offset="0" stop-color="#fff" stop-opacity="0"/><stop offset=".643" stop-color="#fff" stop-opacity=".502"/><stop offset="1" stop-color="#fff" stop-opacity="0"/></linearGradient><path d="M63 21q-.25 0-.35.15l-.7.45q-3.75 2.65-6.35 7.8 2.1-5.8 6.4-8.65l-2.45 1.55q1.15-1.15 2.55-1.95 1.6-1 3.55-1.55l-2.8 1.5q3.5-1.55 5.85-1.4-3.15.35-4.9 1.6l-.8.5" fill="url(#aO)"/><linearGradient id="aP" gradientUnits="userSpaceOnUse" gradientTransform="matrix(.00023 .00198 -.0057 .00064 69.45 21.8)" x1="-819.2" x2="819.2"><stop offset="0" stop-color="#fff" stop-opacity="0"/><stop offset=".643" stop-color="#fff" stop-opacity=".502"/><stop offset="1" stop-color="#fff" stop-opacity="0"/></linearGradient><path d="M69.4 21.2l-.05-1.55 1.5 5.05-1.2-3.1.35 2.5-.75-2.65-.05 2.25-.3-2.4q-.2 5-1.25 7.75l.4-2.05.3-4.15-.8 3.9.45-5.55.35 1 .55-2.4.5 1.4" fill="url(#aP)"/><linearGradient id="aQ" gradientUnits="userSpaceOnUse" gradientTransform="matrix(.00287 -.00432 .00539 .00357 64.05 25.05)" x1="-819.2" x2="819.2"><stop offset="0" stop-color="#fff" stop-opacity="0"/><stop offset=".643" stop-color="#fff" stop-opacity=".502"/><stop offset="1" stop-color="#fff" stop-opacity="0"/></linearGradient><path d="M67.8 20.5q-.75 1.25-1.25 3.2-1.4 3.55-6.75 6.65l4-3.25-1.05.65.75-.85q2.45-2.85 3.4-5.65.6-1.1 1.4-1.5l-.5.75" fill="url(#aQ)"/><linearGradient id="aR" gradientUnits="userSpaceOnUse" gradientTransform="matrix(.0019 .00128 -.00229 .00342 71.95 20.25)" x1="-819.2" x2="819.2"><stop offset="0" stop-color="#fff" stop-opacity="0"/><stop offset=".643" stop-color="#fff" stop-opacity=".502"/><stop offset="1" stop-color="#fff" stop-opacity="0"/></linearGradient><path d="M72.75 20.3q1 2.45.9 4.75l-.6-2.95q.15 2.4-.2 3.6.1-4.85-2.8-6.3.8-.05 2.1.7 0-.85-1.3-1.1 1.6-.35 3.55 1.8.9 1.7.85 3.25-.65-2.95-2.4-4.1.85.7 1.1 2.15l-1.2-1.8" fill="url(#aR)"/><linearGradient id="aS" gradientUnits="userSpaceOnUse" gradientTransform="matrix(.00159 .00069 -.00084 .00194 76.35 20.15)" x1="-819.2" x2="819.2"><stop offset="0" stop-color="#fff" stop-opacity="0"/><stop offset=".643" stop-color="#fff" stop-opacity=".502"/><stop offset="1" stop-color="#fff" stop-opacity="0"/></linearGradient><path d="M77.5 20.2l1.7 2.25q-1.2-1.4-2.35-2.1l.75 1.05q-1.65-1.5-3.55-2.05l2.35.6q-1.3-.85-2.45-.95 3.05 0 5.55 2.25l-2-1.05" fill="url(#aS)"/><linearGradient id="aT" gradientUnits="userSpaceOnUse" gradientTransform="matrix(.0016 .00484 -.00702 .00229 55.7 34.5)" x1="-819.2" x2="819.2"><stop offset="0" stop-color="#fff" stop-opacity="0"/><stop offset=".518" stop-color="#fff" stop-opacity=".361"/><stop offset="1" stop-color="#fff" stop-opacity="0"/></linearGradient><path d="M55.95 39.9q-2.65-5.85-.55-11.45-1.35 5.85 1.6 12.1l-1.55-2.75.5 2.1" fill="url(#aT)"/><linearGradient id="aU" gradientUnits="userSpaceOnUse" gradientTransform="matrix(.00037 -.00145 .00394 .001 60.95 33.8)" x1="-819.2" x2="819.2"><stop offset="0" stop-color="#fff" stop-opacity="0"/><stop offset=".518" stop-color="#fff" stop-opacity=".212"/><stop offset="1" stop-color="#fff" stop-opacity="0"/></linearGradient><path d="M60.65 34.2l-.9 2.3q.4-2.7 1.65-5.3l-.45 2.1 1.25-2.8-2 6.65.45-2.95" fill="url(#aU)"/><linearGradient id="aV" gradientUnits="userSpaceOnUse" gradientTransform="matrix(.00255 -.00275 .00365 .00337 61.8 26.6)" x1="-819.2" x2="819.2"><stop offset="0" stop-color="#fff" stop-opacity="0"/><stop offset=".518" stop-color="#fff" stop-opacity=".361"/><stop offset="1" stop-color="#fff" stop-opacity="0"/></linearGradient><path d="M60.1 28.55l4.8-6.05-1.95 3.25 1.35-1.4-3.2 4.1L62.65 26l-3.9 4.65 1.35-2.1" fill="url(#aV)"/><linearGradient id="aW" gradientUnits="userSpaceOnUse" gradientTransform="matrix(.00232 -.00238 .0017 .00165 75.9 33.9)" x1="-819.2" x2="819.2"><stop offset="0" stop-color="#fff" stop-opacity="0"/><stop offset=".522" stop-color="#fff" stop-opacity=".212"/><stop offset="1" stop-color="#fff" stop-opacity="0"/></linearGradient><path d="M73.2 35.85q1.55-.3 2.95-1.4l-1.6.45q2.15-1 3.7-2.95L77.1 33.7l1.55-1.3q-.4 1.45-2.8 2.95l-.25.15-2.4.35" fill="url(#aW)"/><linearGradient id="aX" gradientUnits="userSpaceOnUse" gradientTransform="matrix(.00137 -.00266 .00392 .00203 66.25 31.15)" x1="-819.2" x2="819.2"><stop offset="0" stop-color="#fff" stop-opacity="0"/><stop offset=".518" stop-color="#fff" stop-opacity=".212"/><stop offset="1" stop-color="#fff" stop-opacity="0"/></linearGradient><path d="M67.7 27.85l-.5 2.4 1.5-2.75q-.65 3.05-1.9 5.25l.6-2.15q-1 2.4-2.4 3.85l1.25-2.25q-1 1.65-2.45 2.55 2.3-2.95 3.35-7.05l-.4 2.55.95-2.4" fill="url(#aX)"/><linearGradient id="aY" gradientUnits="userSpaceOnUse" gradientTransform="matrix(.00111 -.00192 .00275 .00159 69.25 32.55)" x1="-819.2" x2="819.2"><stop offset="0" stop-color="#fff" stop-opacity="0"/><stop offset=".522" stop-color="#fff" stop-opacity=".212"/><stop offset="1" stop-color="#fff" stop-opacity="0"/></linearGradient><path d="M69.2 33.15l-1.2 1 .25-.45 2.15-4.2-.9 2.4 1.2-1.5-1.1 1.9 1.8-1.4q-1.4 2.3-3.65 3.8l1.45-1.55" fill="url(#aY)"/></g></svg>