<svg xmlns="http://www.w3.org/2000/svg" width="34" height="35"><g transform="translate(-53.4 -19.75)"><path d="M76.85 52.25h.1l-.15.05.05-.05m-15.2-3.95v.1l-.05-.1h.05m14.95 2.55l.35-.35.1.05-.45.35v-.05m.8.45h-.05l.05-.05.05-.15h.1l-.15.2m-14.65.3l.1.2.15.15-.55-.45-.15-.1.25.1.1.05h.05l.05.05m.05-1.45l.35.3.05.05v.05l-.5-.35.1-.05m-.6.6h.1l.1.2-.2-.2" fill="#251f21"/><path d="M79.1 51.7l.1-.05.1-.1-.1.15-.15.1.05-.1m-19.7-2.4h-.05v-.05l-.05-.15-.05-.3.15.45v.05m20.8.3l.15-.45-.05.3-.05.15v.05h-.05v-.05m-19.55 2v-.05l.15.25-.15-.2m-.15-.3l-.05.05-.1-.15.1.1h.05" fill="#3a383b"/><linearGradient id="a" gradientUnits="userSpaceOnUse" gradientTransform="matrix(.00163 .0066 -.0026 .00075 82.25 31.75)" x1="-819.2" x2="819.2"><stop offset="0" stop-color="#261e1c"/><stop offset=".439" stop-color="#4a4646"/><stop offset="1" stop-color="#191514"/></linearGradient><path d="M81.35 27.65l-.05.05v-.05h.05" fill="url(#a)"/><linearGradient id="b" gradientUnits="userSpaceOnUse" gradientTransform="matrix(-.00146 .00838 -.00188 -.00038 82.9 47.35)" x1="-819.2" x2="819.2"><stop offset=".094" stop-color="#261e1c"/><stop offset=".412" stop-color="#624b49"/><stop offset=".929" stop-color="#191514"/></linearGradient><path d="M84.6 38.55v-.45l-.05-.25v-.3l.05.15v.05l.1.8h-.15v-.1l.05.1m-2.85-12.7l.05.1-.05-.1" fill="url(#b)"/><linearGradient id="c" gradientUnits="userSpaceOnUse" gradientTransform="matrix(.00316 .00345 -.00208 .00223 80.05 25.5)" x1="-819.2" x2="819.2"><stop offset="0"/><stop offset=".502" stop-color="#2f2523"/></linearGradient><path d="M80.6 24.4l-.35-.9.55 1.2.6 1.25v.15l-.05-.15-.25-.3-.5-1.2v-.05m-1.85 5.05l-.15-.1-.05-.15.2.25" fill="url(#c)"/><linearGradient id="d" gradientUnits="userSpaceOnUse" gradientTransform="matrix(-.00386 .01561 -.00317 -.00093 80.55 47.5)" x1="-819.2" x2="819.2"><stop offset="0" stop-color="#261e1c"/><stop offset=".502" stop-color="#4a3937"/><stop offset="1" stop-color="#191514"/></linearGradient><path d="M82.95 34.85v-.6l.15 1.35-.15-.75m.3-.2h-.05v-.1l.05.05v.05m-1.1 1.6v.05l-.05-.2.05.15m-.45.4v.15l-.15.05v.05-.05l.15-.2m.25-.05l-.1.05v.05l.1-.1m1.45 1.1h.05v.2l-.05-.2m-1.05-.3l.15.05h.05l.15.25.05.05-.05.05v-.05l-.05-.05-.15-.25-.15-.05" fill="url(#d)"/><linearGradient id="e" gradientUnits="userSpaceOnUse" gradientTransform="matrix(-.00049 .0039 -.00226 -.00034 82.45 45.75)" x1="-819.2" x2="819.2"><stop offset="0"/><stop offset=".502" stop-color="#2f2523"/></linearGradient><path d="M83.65 36.65h-.05v-.25l.05.25m-.15-2.35v.15-.15" fill="url(#e)"/><linearGradient id="f" gradientUnits="userSpaceOnUse" gradientTransform="matrix(-.01175 .00812 -.00444 -.00758 68.1 26.45)" x1="-819.2" x2="819.2"><stop offset="0"/><stop offset=".502" stop-color="#2f2523"/></linearGradient><path d="M78.15 24.65l.1.1h-.05l-.05-.1" fill="url(#f)"/><linearGradient id="g" gradientUnits="userSpaceOnUse" gradientTransform="matrix(-.00336 .01038 -.00685 -.00375 66.1 33.15)" x1="-819.2" x2="819.2"><stop offset="0" stop-color="#261e1c"/><stop offset=".455" stop-color="#403a3a"/><stop offset="1" stop-color="#191514"/></linearGradient><path d="M61.7 33.6l.45-1.9v-.15h.15l-.05.05v.1l-.2.6-.35 1.3m.25.75l.1-.4.05-.25.05-.15-.05.15v.05l-.05.2-.05.4h-.05" fill="url(#g)"/><linearGradient id="h" gradientUnits="userSpaceOnUse" gradientTransform="matrix(.00206 -.00462 .00249 .00186 62.95 40.9)" x1="-819.2" x2="819.2"><stop offset="0"/><stop offset=".502" stop-color="#2f2523"/></linearGradient><path d="M62.35 34.55l.05-.2.1-.65.05-.4.05-.15V33l.15-.55.05-.15.25-.6.05-.1v-.05l.35-.65-.25.7-.05.1-.35 1.15-.2.85-.15.65-.05.2h-.05" fill="url(#h)"/><linearGradient id="i" gradientUnits="userSpaceOnUse" gradientTransform="matrix(-.00049 .00499 -.00226 -.00043 82.45 47.7)" x1="-819.2" x2="819.2"><stop offset="0"/><stop offset=".502" stop-color="#2f2523"/></linearGradient><path d="M83.9 40.3v-.2.2m-.15-1.4h-.05.05" fill="url(#i)"/><linearGradient id="j" gradientUnits="userSpaceOnUse" gradientTransform="matrix(.00163 .00844 -.0026 .00096 82.25 29.8)" x1="-819.2" x2="819.2"><stop offset="0" stop-color="#261e1c"/><stop offset=".439" stop-color="#4a4646"/><stop offset="1" stop-color="#191514"/></linearGradient><path d="M85.25 40.3v-.15h.05v.35l-.05-.2m-.35-1.4l.05.75-.1-.75h.05" fill="url(#j)"/><linearGradient id="k" gradientUnits="userSpaceOnUse" gradientTransform="matrix(-.00386 .01994 -.00317 -.00119 80.55 49.95)" x1="-819.2" x2="819.2"><stop offset="0" stop-color="#261e1c"/><stop offset=".502" stop-color="#4a3937"/><stop offset="1" stop-color="#191514"/></linearGradient><path d="M81.75 43.3l.05-.05v.5-.25l-.05-.2m1.9.85v.1l-.05-.1h.05M82.2 45v-.15.3V45m1.3 1.75v.15h-.05v-.15h.05" fill="url(#k)"/><path d="M81.3 27.65l-.15-.4.2.35v.05h-.05m-9.85-6.6l2.95-.15-.2.05-2.2.1h-.15l-.1.05h-.2l-.1-.05m5.65 3.6v-.05l.1.05h-.1m1.7 2.85l.15.25-.15-.25m-.95-1.4v.05l-.05-.05h.05m.25.05h-.05l-.1-.2H78l.1.2m1.15 2.7l.05.05-.05-.05m1 .95l-.05-.2.15.35h-.05l-.05-.15" fill="#12151a"/><path d="M73.45 25.9l-.4-.2-.75-.35h.5l1.3.35 1.3.3.2.1.4.1.1.05-.1-.1-.3-.15-.1-.05-.25-.1.25.05.4.1.25.1.15.05.55.15.35.15.2.1h.1l.05.05.05.05 1.5 1.9-1.25-1.45h-.05l-.2-.1-.2-.1-.2-.05-.55-.25h-.1l-.65-.25-.1-.05h-.3l-1.4-.35-.65-.2.95.5-.95-.2-.1-.15m7.9 4.25l-.05-.2-.05-.15v-.15l-.05-.25v-.05l.05.3.05.35.05.15m-.9-4.05h-.05l-.05-.1.1.1m-7.1-.45v.05l.2.05-.2-.1m6.3 7.05l-.15-.8.05.15.1.65v.05-.05" fill="#0a0a0c"/><path d="M77.2 21.7l-.15-.05-2.85-.7.2-.05-2.95.15-.45.05v.35l.15.05H71v.2l1.2.15-.1-.05h.1l.1-.05h-.2l-.1-.05-.25-.35-.1-.1-.1-.15h.4l.9.15.5.15.55.15.2.1.4.2-.7-.1h-.15l-1.35.2v-.05h-.35l-.3.15.75.1.1.05.1.05-.1-.1-.1-.05h.1l.75.15-.1.05h-.45l-.1.05v.1h-.3v.05l.3.05v-.1h.35l.75.2h-1.3l.1.05h.2l.45.1.5.15 1.95.6h.1v.05h-.1l-.85-.1.1.05H73.7l1.15.15v.05H73.8v.05l1.55.25.25.05.4.1.45.15.65.3-1.1-.3-.4-.05-.75-.05-.85.05.55.1.3.1h-.45l1.1.4.1.05.4.1.65.3.1.05-.65-.1-.1-.05-.4-.05-.45-.1-.2-.05 1.9.75h-.75l-.1-.1v.05h-.2l-.2-.05-.65-.1h-.1l.1.05.4.2.25.1.1.05.3.15.1.1-.1-.05-.4-.1-.2-.1-1.3-.3-1.3-.35h-.2v-.05h.25l1.55.15v-.05l-.85-.15-1.05-.15v-.05h.55l.5-.05-1.05-.1.75-.25-.55-.05-.3.1h-.1v-.05l.4-.3.25-.2.2-.1-.55.05q.2-.2-.1-.5v-.05l-.1-.05-.3-.25.1.7v.3l-.1.45-.15.15-.1-.5h-.1l-.1.2-.3.3-.1-.45-.1-.3-.15-.2.1.2.05.35-.05.55-.1-.05v.45l-.1-.05v.05l.1.15v.15l-.45-.25V25l-.1-.5-.05-.05-.15-.3.05.45v.15l-.35-.6h-.05l.05.2v.1l.1.3-.1-.15-.15-.2q-.15-.2-.3-.25l.3.65-.3-.3-.05-.05-.05-.05.05.25.05.35v.05l-.05-.1-.1-.05-.15-.15-.3-.25-.05-.05v.05h.05l.35.55h-.05l-.4-.1-.2-.05-.25-.05-.25.05-.3-.05h-.05l-.5.1.45-.15.3-.05.8-.1-.6-.15-.65-.1.65-.2.6-.1h.35l-.35-.2-.2-.05-.05-.05h.25l.4.1h.15l.1.05h.05l.25.05q.25.1-.1-.15l-.15-.05-.05-.05h-.1l-.15-.05-.4-.1-.3-.05q-.05-.15.3-.15h.4l.15-.05h.15l.55-.05-.55-.15-.05-.05h-.1l-.15.05-.35-.05h-.05l-.15-.05-1.5.05.95-.2.7-.05.4.05.15-.05h.75l-1.3-.25-.1-.05h.1l.4-.1.15-.05h.15l.85.1-.2-.3h-.8l-.1-.05-.05.05h-.4l-.4.05-.15.05h-.1l.65-.2.25-.05h.15q.05-.1.15-.1h.75l-.6-.2-.05-.05h-.1l-.15-.05.15-.05h.45v-.05l-.15-.1h.2v-.1l-.15-.05h.1v-.1l-.8-.35h.2q.1-.1.15-.1l.1.05h.05l.3.1.15.05-.15-.25-.05-.15-.2-.1h-.1l-.35-.1h.5l1.35.35 1-.25 3.6.35q2.6.6 4 2.35l1.05 1.3.5 1.2.25.3.05.15v-.15l-.6-1.25.75 1.05q1.4 2.1 2.25 4.45l.25.7.75 2.25h-.05l-.7-1.4-.6-1.55-.2-.45-1-2.15-.5-.55-.4-.9-.05-.05-.05-.15-.15-.3-.6-.9-.45-.65q-1.1-1.45-2.35-2.2l-.5-.2M83 46.05V46l.05-.1-.05.1v.05m-.5 4.2v-.05.05m-1.1-20h-.05v-.1l.05.05v.05m1.4 1.5l.3 1.6-.5-1.75-.2-.65-.25-.75-.75-1.8-.15-.3-.3-.55h.1l.35.55.95 2.1.35 1 .1.3v.1l.25.85-.25-.7m.55 1.75l-.4-1.9-.05-.15-.45-1.25-.85-2.1-.25-.5-.2-.35-.55-1.15-.1-.15-.35-.6-.25-.45h.1l.15.25.5.8.05.15 1.05 2 .9 2.1.35 1.2.05.2.5 2.45.05.15-.25-.7m-1.25 2.6l.05-.45h.05v.5l-.05.55v-.45l-.05-.15m1.45 9.7v.05l-.1.4.1-.4v-.05m-1.45 5.1l-.15.05.1-.1.05.05M70.2 21.55l.35-.05v-.35l-.1.1-.05-.1-.3.4h.1m.1-.65l-.2-.1.15.2.05-.1m.25.85v-.2l-.35.2h.35m1.95 1l.1.05v-.05h-.1m8.15 8.85l-.1-.15.1.15m.05 7.75l.05-.2.05-.05-.05.2-.05.05"/><path d="M81.95 35.1V35H82v.2l-.05-.1" fill="#0e0c12"/><path d="M60.4 33.35l.05-.1.1-.75-.05.55-.05.3h-.05" fill="#0c0c0e"/><path d="M69.45 26.45l-.1-.1-.15-.1-.05-.05-.05-.05h-.05l-.1-.05.1.1.05.3v.1l-.4-.4v.25l-.3-.25-.35-.1v.05l.15.25H68l-.1-.15-.15-.25h.55l-.1-.1.05-.05.3.15h.1l-.1-.3.25.15.05.05.35.2.1.05-.1-.15-.2-.3.2.15.15.05h.1v-.05l-.1-.15-.15-.2v-.05l-.05-.05-.05-.2.1.05.15.1.1.05.05.05.4.45-.05-.1v-.2l.1.1.3.15v-.05l-.3-.8v-.05l.45.4.1.1v.05-.05l-.1-.25.15.1v.15l.45.25v-.3l.2.1 1.9.65.7.35h.1l.6.35h.15l.1.05.25.2 1.1 1.1.65.9.15.25.05.1.1.2.25.4q1.25 2.45 1.85 6.25-.9-4.25-3-7.55L76 28.7l.2.05-.7-.85-1.5-.85h-.1v.05l.1.05v.05l.4.25-.2.05-1.05-.65-.2-.1-.95-.5h-.05l.05.15.15.15.15.1.3.25-.6-.3-.15-.05v.05l-.3-.15-.4-.15-.05-.05-.1-.05v-.05l-.7-.3-.05.05.3.25.4.35h-.1l-.3-.2h-.05l-.25-.15H70l-.05-.05v.1l.05.1-.05-.05-.15-.1-.15-.1v.2l-.05-.05-.1-.05v.35l-.05-.05m9 4.55l-.05-.1.1.1h-.05m.25 1.3l.05.05v.05l-.05-.1m1.1 1.7l-.05-.05v-.05l.05.1m.4 1.75l.05.2-.05-.1v-.1m-.15-.6h.05-.05" fill="#8e5e48"/><linearGradient id="l" gradientUnits="userSpaceOnUse" gradientTransform="matrix(.00146 -.0073 .00545 .00108 79.65 27.35)" x1="-819.2" x2="819.2"><stop offset="0"/><stop offset=".502" stop-color="#2f2523"/></linearGradient><path d="M81.65 30.6l-.1-.15-.15-.2v-.05l-.05-.05-.05-.15.15.2.05.1.45.75.05.1-.35-.55m.2-.4l.15.5.3.9v.1l-.05-.1-.15-.45-.1-.45-.15-.5" fill="url(#l)"/><linearGradient id="m" gradientUnits="userSpaceOnUse" gradientTransform="matrix(-.0054 .00018 -.00015 -.00543 78 33.05)" x1="-819.2" x2="819.2"><stop offset="0"/><stop offset=".502" stop-color="#241c1b"/></linearGradient><path d="M78.8 27.5h-.05v-.05l.05.05m1.5 2.45h.05-.05" fill="url(#m)"/><path d="M73.3 51.95l-.25-.05-.05-1.05.15-.1 1.3-.9.1-.05.65-.5.25-.2.2-.15.55-.35q3.2-4.1 3.3-9.15l-.35-3.15q-.6-3.8-1.85-6.25l-.25-.4-.1-.2v-.1h-.05l-.15-.25-.65-.9-1.1-1.1-.25-.2-.1-.05h-.15l-.6-.35h-.1l-.7-.35-.5-.25v-.05l-.5-.15-.1-.05-.05-.05v-.1l.15.1.65.2.2.05.6.2.95.2-.95-.5.65.2 1.4.35h.3l.1.05.65.25q5.3 9.05 2.3 18.1l-.25.6q-.85 2.3-3.35 3.95 2.25-.8 4.2-3.1l-.3.7-.85 1.3-.35.45-2.65 2.3-.45.3-.25-.3-.1.05V51l.05.05h.05l.15.15.15.15-1.7.55v.05m4.1-.65l.15-.2v.1l-.15.1m4.3-19.7l-.1-.35.1.35m.6 2.6l.05.6v.05l-.1-.65v-.15h.05v.15m-3.7-8.8l.05.05.35.4.2.25.3.45.15.15h-.05l.65 1.4v.1l-.05-.1-1.2-2-.4-.65v-.05m-2.5 2.1q.35.25.65.35l.1.05.25.2.2.15-1.1-1.3-.1-.15v-.05l-.1-.05-.95.05.55.45.4.2.1.1m1.75 1.8l.2.25-.1-.25h-.1m.1.3l-.05-.05v.05h.05m.2.5l.05.1v.05h.25-.05l-.15-.1-.1-.05m1.15-1.25v.05-.05M78.4 31l.25.35h-.05v.05l.05-.05.15.2-.15-.2-.2-.35h-.05m.1 0l-.1-.1.05.1h.05m.25 1.4v-.05l-.05-.05.05.1m1.9 6.15h.05l-.05.25v.05l-.35 1.4.3-1.5.05-.2m.05.8v.05-.05m.15 5.2h.05l-.05.05v-.05M76.25 49l-.05.05.1-.05h-.05m1.05 2.35l.1-.1-.05.05-.05.05" fill="#08080a"/><linearGradient id="n" gradientUnits="userSpaceOnUse" gradientTransform="matrix(-.00052 .00151 .00243 .00049 80.75 37.3)" x1="-819.2" x2="819.2"><stop offset="0" stop-color="#322632"/><stop offset="1" stop-color="#8e5e48"/></linearGradient><path d="M81.9 36.9l-.05-.05h.05v.05m.2.05l.05-.05-.05.05m-3.35-6.4l-.05-.1.05.05h.05v.05h-.05m-.1.8l-.05.05v-.05h.05m.95 1.35h.05v.05l-.05-.05m.25.1v-.05l.05.05h-.05m.75 5.95v-.2h.05l-.05.2m.1.65l-.05-.3.05.25v.05" fill="url(#n)"/><linearGradient id="o" gradientUnits="userSpaceOnUse" gradientTransform="matrix(-.00536 .00076 .00072 .00368 77.45 24.55)" x1="-819.2" x2="819.2"><stop offset=".094" stop-color="#261e1c"/><stop offset=".412" stop-color="#483837"/><stop offset=".929" stop-color="#191514"/></linearGradient><path d="M78 24.95V25l-.05-.05H78m0-.35h.05H78m.65 2.45l-.05.05v-.05h.05m.6.35v-.05l.05.05h-.05" fill="url(#o)"/><linearGradient id="p" gradientUnits="userSpaceOnUse" gradientTransform="matrix(-.00536 .00076 .00072 .00368 77.45 24.55)" x1="-819.2" x2="819.2"><stop offset="0" stop-color="#1e2126"/><stop offset=".506" stop-color="#2e343d"/><stop offset="1" stop-color="#0a0b0f"/></linearGradient><path d="M78.05 24.6l.1.05h-.1L78 24.6h.05m.75-.5V24l.05.05-.05.05" fill="url(#p)"/><linearGradient id="q" gradientUnits="userSpaceOnUse" gradientTransform="matrix(-.00137 .00032 .0008 .00264 76.55 27.45)" x1="-819.2" x2="819.2"><stop offset="0" stop-color="#101012"/><stop offset="1" stop-color="#65443b"/></linearGradient><path d="M77.8 26.1h.05-.05" fill="url(#q)"/><linearGradient id="r" gradientUnits="userSpaceOnUse" gradientTransform="matrix(-.00128 .0006 .00133 .00241 76.1 27.75)" x1="-819.2" x2="819.2"><stop offset="0" stop-color="#101012"/><stop offset="1" stop-color="#65443b"/></linearGradient><path d="M79.6 30.2l-.35-.3-.25-.2-.1-.1-.05-.1-.1-.05-.2-.25-.15-.25-.1-.2-.05-.05-.05-.05-.05-.1h.4l.15.05h.1l.15.15.05.1.05.05.15.25.15.25.05.1.15.25.25.45v.15h-.05l-.1-.1-.05-.05" fill="url(#r)"/><linearGradient id="s" gradientUnits="userSpaceOnUse" gradientTransform="matrix(-.0006 .00148 .0024 .00061 80.1 37.5)" x1="-819.2" x2="819.2"><stop offset="0" stop-color="#322632"/><stop offset="1" stop-color="#8e5e48"/></linearGradient><path d="M77.95 29.3l.1.25-.2-.25h.1m.3.85l.15.1h.05-.25v-.05l-.05-.1.1.05" fill="url(#s)"/><radialGradient id="t" gradientUnits="userSpaceOnUse" gradientTransform="matrix(-.01358 .00285 .00246 .01173 62.8 31.65)" spreadMethod="pad" cx="0" cy="0" r="819.2" fx="0" fy="0"><stop offset="0" stop-color="#6d4231"/><stop offset=".973" stop-color="#824a36" stop-opacity=".243"/></radialGradient><path d="M77.9 29.6v-.05l.05.05h-.05" fill="url(#t)"/><linearGradient id="u" gradientUnits="userSpaceOnUse" gradientTransform="matrix(-.00508 .00185 .00145 .00345 76.4 24.7)" x1="-819.2" x2="819.2"><stop offset="0" stop-color="#1e2126"/><stop offset=".506" stop-color="#2e343d"/><stop offset="1" stop-color="#0a0b0f"/></linearGradient><path d="M80.65 30.45v-.05l-.05-.05.05.05.05.05h-.05" fill="url(#u)"/><radialGradient id="v" gradientUnits="userSpaceOnUse" gradientTransform="matrix(-.012 0 0 .012 64.45 28.7)" spreadMethod="pad" cx="0" cy="0" r="819.2" fx="0" fy="0"><stop offset="0" stop-color="#6d4231"/><stop offset=".973" stop-color="#824a36" stop-opacity=".243"/></radialGradient><path d="M62.4 34.55l.05-.2.15-.65.2-.85.35-1.15.05-.1.25-.7.05-.1.05-.1H64l-.35.9-.55 1.6-.15.5-.1.3-.05.2-.1.35h-.3" fill="url(#v)"/><linearGradient id="w" gradientUnits="userSpaceOnUse" gradientTransform="matrix(-.00146 .0107 -.00188 -.00049 82.9 49.75)" x1="-819.2" x2="819.2"><stop offset="0"/><stop offset=".502" stop-color="#2f2523"/></linearGradient><path d="M81.45 46.9l.05-.05v.05h-.05m.8-.1l.1.1h-.1v-.1" fill="url(#w)"/><linearGradient id="x" gradientUnits="userSpaceOnUse" gradientTransform="matrix(-.00386 .01994 -.00317 -.00119 80.55 49.95)" x1="-819.2" x2="819.2"><stop offset="0"/><stop offset=".502" stop-color="#2f2523"/></linearGradient><path d="M83.25 46.9h-.05l.05-.05v.05" fill="url(#x)"/><linearGradient id="y" gradientUnits="userSpaceOnUse" gradientTransform="matrix(-.00146 .0107 -.00188 -.00049 82.45 51.3)" x1="-819.2" x2="819.2"><stop offset=".094" stop-color="#261e1c"/><stop offset=".412" stop-color="#574341"/><stop offset=".929" stop-color="#191514"/></linearGradient><path d="M83.9 40.45v-.15l.05.3h-.05v-.15m-2.15 3.75l.05-.15-.05.4v-.25m3.55-5.65l.05.05h-.05v-.05m-3.55 4.75h-.05v-.15l.05.15m2.4.35h.05l-.05.2v-.2m-3.3.95l.05-.05.1-.15-.05.1-.1.3-.15.6.05-.7h.05l.05-.1" fill="url(#y)"/><linearGradient id="z" gradientUnits="userSpaceOnUse" gradientTransform="matrix(.00238 -.01169 .00195 .00067 59.55 48.85)" x1="-819.2" x2="819.2"><stop offset="0"/><stop offset=".502" stop-color="#2f2523"/></linearGradient><path d="M62.15 31.7h-.05l.05-.1v-.05.15m-.05 2h-.05l.05-.15.05-.25.1-.25-.05.25-.05.25-.05.15" fill="url(#z)"/><linearGradient id="A" gradientUnits="userSpaceOnUse" gradientTransform="matrix(-.0088 .02023 -.00488 -.0025 54.3 36.05)" x1="-819.2" x2="819.2"><stop offset="0" stop-color="#1c1c1f"/><stop offset=".443" stop-color="#46484f"/><stop offset="1" stop-color="#141517"/></linearGradient><path d="M65.9 52.45h-.05l.1-.15-.05.15" fill="url(#A)"/><linearGradient id="B" gradientUnits="userSpaceOnUse" gradientTransform="matrix(-.00328 -.00835 .00186 -.00078 56.9 43.05)" x1="-819.2" x2="819.2"><stop offset="0"/><stop offset=".502" stop-color="#2c2d32"/></linearGradient><path d="M62.2 34.55l.05-.15.05-.2.1-.35.05-.15.1-.4-.05.4-.1.65-.05.2h-.15" fill="url(#B)"/><linearGradient id="C" gradientUnits="userSpaceOnUse" gradientTransform="matrix(.00447 .01326 -.00227 .00076 59.45 44.1)" x1="-819.2" x2="819.2"><stop offset="0" stop-color="#1c1c1f"/><stop offset=".443" stop-color="#46484f"/><stop offset="1" stop-color="#141517"/></linearGradient><path d="M62 34.35l-.05.2h-.15l.2-.65.05-.2h.05l-.05.25-.1.4H62" fill="url(#C)"/><linearGradient id="D" gradientUnits="userSpaceOnUse" gradientTransform="matrix(-.00336 .00864 -.00685 -.00313 66.1 32.95)" x1="-819.2" x2="819.2"><stop offset="0" stop-color="#1c1c1f"/><stop offset=".443" stop-color="#46484f"/><stop offset="1" stop-color="#141517"/></linearGradient><path d="M59.4 31.65l-.05-.05h.05v.05m.65 2.9l.25-.8.1-.4-.15 1.2h-.2" fill="url(#D)"/><path d="M69.5 20.5l-.05.05-.05.05h.05l.05-.1.05-.05.2.1.05.15.15.25-.15-.05-.3-.1h-.05l-.1-.05q-.05 0-.15.1H69l.8.35v.1h-.1l.15.05v.1h-.2l.15.1v.05h-.45l-.15.05.15.05h.1l.05.05.6.2h-.75q-.1 0-.15.1h-.15l-.25.05-.65.2h-.2q-.4.05-.8.3l-.15.1q-.55.3-1.25.9l-.2.2.3-.5.55-.55.6-.25.15-.05.4-.25 1.25-.3.4-.05-.4-.1-.4-.15-.4-.05.8-.1.4-.05.15-.05h.15l-.05-.05-.1-.1-.15-.1-.3-.15-.1-.05-.3-.1-.1-.05.1-.05h.3l.2-.1-.2-.05-.55-.05-.35-.05 1.2-.1.35.1h.05v.05m-3.25.7l-.1.15-.45.4-.25.3h-.05l-.05.05-.7.7-.1.15.1-.2.7-.9.05-.1.05-.05.15-.15.55-.4.15-.1-.05.15m-3.65 3l.75-.65 1.1-1.05-1.1 1.45-1.25 1.35-.45.5-.25.3-1.3 1.7 1.3-2 .15-.15.1-.2.1-.15.85-1.1m1-1.4l1.2-1.05.5-.4-.65.6-1.25 1.15.2-.3m1.05 2.55l.05-.05.65-.9.1-.05.35-.4.25-.2-.15.2-.4.55-.05.15-.1.05-.3.6v.05l.05-.05.25-.4.1-.05.5-.55.45-.4v.05l-.05.05-.9 1.05v.05l-.05.05-.05.1-.05.05-.5.65.15-.3-.3.35-.25.4-.7 1-.25.35.15-.35.45-.85.05-.15.55-1.05m-4.75 1.4l-.8.9.7-.8.1-.1m1.5-1.8l1.3-1.35-1.3 1.45v-.1" fill="#101012"/><linearGradient id="E" gradientUnits="userSpaceOnUse" gradientTransform="matrix(-.00536 .00076 .00072 .00368 77.45 24.55)" x1="-819.2" x2="819.2"><stop offset="0" stop-color="#1c1c1f"/><stop offset=".443" stop-color="#46484f"/><stop offset="1" stop-color="#141517"/></linearGradient><path d="M79 24.5h.05l.1.15-.15-.1v-.05" fill="url(#E)"/><linearGradient id="F" gradientUnits="userSpaceOnUse" gradientTransform="matrix(.00447 .01431 -.00227 .00082 59.45 44.8)" x1="-819.2" x2="819.2"><stop offset="0" stop-color="#1c1c1f"/><stop offset=".443" stop-color="#46484f"/><stop offset="1" stop-color="#141517"/></linearGradient><path d="M61.35 35.3l.1-.75h.05v.05l-.05.15v.05l-.1.5m-1.1 3.75h.05-.05m1.3 10.7v-.05.05m-1.3-2.5l-.05-.3h.05l.05.25-.05.05" fill="url(#F)"/><linearGradient id="G" gradientUnits="userSpaceOnUse" gradientTransform="matrix(-.0088 .02185 -.00488 -.0027 54.3 36.1)" x1="-819.2" x2="819.2"><stop offset="0" stop-color="#1c1c1f"/><stop offset=".443" stop-color="#46484f"/><stop offset="1" stop-color="#141517"/></linearGradient><path d="M58.9 34.8l-.05.1.05-.3v.2m-.45 2.9l.1-.6-.05.6h-.05m.7 10.35l-.1-.35.1.35" fill="url(#G)"/><linearGradient id="H" gradientUnits="userSpaceOnUse" gradientTransform="matrix(-.00336 .0112 -.00685 -.00406 66.1 33)" x1="-819.2" x2="819.2"><stop offset="0" stop-color="#261e1c"/><stop offset=".455" stop-color="#403a3a"/><stop offset="1" stop-color="#191514"/></linearGradient><path d="M58.4 38.8h.05l-.05.2v-.2m2.05.6l.05-.15v-.05.05l-.05.2v-.05m-.5.35h-.05v-.05h.05v.05" fill="url(#H)"/><linearGradient id="I" gradientUnits="userSpaceOnUse" gradientTransform="matrix(0 -.01096 .00497 0 60.35 42.05)" x1="-819.2" x2="819.2"><stop offset="0"/><stop offset=".502" stop-color="#2f2523"/></linearGradient><path d="M58.65 36.8l.25-1.9-.2 1.9h-.05" fill="url(#I)"/><linearGradient id="J" gradientUnits="userSpaceOnUse" gradientTransform="matrix(-.00899 .02675 -.00488 -.00325 59.25 32.25)" x1="-819.2" x2="819.2"><stop offset=".094" stop-color="#261e1c"/><stop offset=".412" stop-color="#483837"/><stop offset=".929" stop-color="#191514"/></linearGradient><path d="M58.45 39.05l-.05.25V39l.05-.2v.25" fill="url(#J)"/><linearGradient id="K" gradientUnits="userSpaceOnUse" gradientTransform="matrix(.00238 -.01262 .00195 .00073 59.55 49.95)" x1="-819.2" x2="819.2"><stop offset="0"/><stop offset=".502" stop-color="#2f2523"/></linearGradient><path d="M59.65 38.7v.05h-.05l.05-.05" fill="url(#K)"/><linearGradient id="L" gradientUnits="userSpaceOnUse" gradientTransform="matrix(-.00899 .02675 -.00488 -.00325 60.35 29.65)" x1="-819.2" x2="819.2"><stop offset=".094" stop-color="#261e1c"/><stop offset=".494" stop-color="#725755"/><stop offset=".929" stop-color="#191514"/></linearGradient><path d="M60.45 39.45h-.05l.05-.05v.05" fill="url(#L)"/><linearGradient id="M" gradientUnits="userSpaceOnUse" gradientTransform="matrix(0 -.00812 .00594 0 60.7 41.65)" x1="-819.2" x2="819.2"><stop offset="0"/><stop offset=".502" stop-color="#2f2523"/></linearGradient><path d="M57.75 40.35l-.05.3v-.3h.05" fill="url(#M)"/><linearGradient id="N" gradientUnits="userSpaceOnUse" gradientTransform="matrix(0 -.01096 .00594 0 60.7 42.05)" x1="-819.2" x2="819.2"><stop offset="0"/><stop offset=".502" stop-color="#2f2523"/></linearGradient><path d="M57.75 40.35h-.05l.05-.45v.45" fill="url(#N)"/><linearGradient id="O" gradientUnits="userSpaceOnUse" gradientTransform="matrix(-.00899 .01985 -.00488 -.00241 60.35 32.4)" x1="-819.2" x2="819.2"><stop offset=".094" stop-color="#261e1c"/><stop offset=".494" stop-color="#725755"/><stop offset=".929" stop-color="#191514"/></linearGradient><path d="M60.5 40.8l-.05.05v-.05h.05" fill="url(#O)"/><linearGradient id="P" gradientUnits="userSpaceOnUse" gradientTransform="matrix(-.00899 .01985 -.00488 -.00241 59.25 34.35)" x1="-819.2" x2="819.2"><stop offset=".094" stop-color="#261e1c"/><stop offset=".412" stop-color="#483837"/><stop offset=".929" stop-color="#191514"/></linearGradient><path d="M58.6 41.95h.05l-.05.2v-.2" fill="url(#P)"/><linearGradient id="Q" gradientUnits="userSpaceOnUse" gradientTransform="matrix(.00206 -.00313 .00249 .00127 62.95 41.3)" x1="-819.2" x2="819.2"><stop offset="0"/><stop offset=".502" stop-color="#2f2523"/></linearGradient><path d="M60.7 42.75l.05-.05h.05l-.1.1v-.05" fill="url(#Q)"/><linearGradient id="R" gradientUnits="userSpaceOnUse" gradientTransform="matrix(-.0088 .01595 -.00488 -.00198 54.3 38.45)" x1="-819.2" x2="819.2"><stop offset="0" stop-color="#1c1c1f"/><stop offset=".443" stop-color="#46484f"/><stop offset="1" stop-color="#141517"/></linearGradient><path d="M62.9 51.05h-.05L62.8 51v-.05l-.05-.05v-.05l-.1-.15v.05l.45.2.5.2-.35-.05-.35-.05.45.2.25.1h.1l.45.1.15.05h.15-.85l-.3-.05h-.05l-.2-.2-.15-.2m.45.5l.25.1h.1l.3.2h-.3l-.1-.05h.05l-.3-.25" fill="url(#R)"/><linearGradient id="S" gradientUnits="userSpaceOnUse" gradientTransform="matrix(-.00899 .01674 -.00488 -.00203 59.25 35.65)" x1="-819.2" x2="819.2"><stop offset=".094" stop-color="#261e1c"/><stop offset=".412" stop-color="#624b49"/><stop offset=".929" stop-color="#191514"/></linearGradient><path d="M60.05 44.35l-.1.1v-.05l.05-.05h.05" fill="url(#S)"/><linearGradient id="T" gradientUnits="userSpaceOnUse" gradientTransform="matrix(0 -.005 .00226 0 57.85 44.25)" x1="-819.2" x2="819.2"><stop offset="0"/><stop offset=".502" stop-color="#2f2523"/></linearGradient><path d="M57.2 44.5v.2l-.05.1v-.15l.05-.15" fill="url(#T)"/><linearGradient id="U" gradientUnits="userSpaceOnUse" gradientTransform="matrix(-.01071 .0145 -.00581 -.00177 59.4 37.15)" x1="-819.2" x2="819.2"><stop offset=".094" stop-color="#261e1c"/><stop offset=".412" stop-color="#483837"/><stop offset=".929" stop-color="#191514"/></linearGradient><path d="M59.05 50.25H59l.05-.05v.05" fill="url(#U)"/><linearGradient id="V" gradientUnits="userSpaceOnUse" gradientTransform="matrix(-.01212 .01628 -.00488 -.00146 55.2 40.75)" x1="-819.2" x2="819.2"><stop offset="0" stop-color="#261d1b"/><stop offset=".443" stop-color="#4f3d3c"/><stop offset="1" stop-color="#14100f"/></linearGradient><path d="M59.4 49.25h.05l.05.2-.1-.15v-.05" fill="url(#V)"/><radialGradient id="W" gradientUnits="userSpaceOnUse" gradientTransform="matrix(-.012 0 0 .01295 64.45 28.2)" spreadMethod="pad" cx="0" cy="0" r="819.2" fx="0" fy="0"><stop offset="0" stop-color="#6d4231"/><stop offset=".973" stop-color="#824a36" stop-opacity=".243"/></radialGradient><path d="M62.4 34.6v-.05h.3v.05l-.05.15v.05l-.5 1.45v.05l-.1.2.3-1.7v-.15l.05-.05" fill="url(#W)"/><linearGradient id="X" gradientUnits="userSpaceOnUse" gradientTransform="matrix(.00206 -.00499 .00249 .00201 62.95 41.35)" x1="-819.2" x2="819.2"><stop offset="0"/><stop offset=".502" stop-color="#2f2523"/></linearGradient><path d="M62.35 34.65v-.1h.05v.05l-.05.05" fill="url(#X)"/><linearGradient id="Y" gradientUnits="userSpaceOnUse" gradientTransform="matrix(.00238 -.00684 .00195 .0004 59.55 46.7)" x1="-819.2" x2="819.2"><stop offset="0"/><stop offset=".502" stop-color="#2f2523"/></linearGradient><path d="M63.5 48.65h.05l.05.05-.1-.05" fill="url(#Y)"/><linearGradient id="Z" gradientUnits="userSpaceOnUse" gradientTransform="matrix(.00447 .01047 -.00227 .0006 59.45 44.8)" x1="-819.2" x2="819.2"><stop offset=".008" stop-color="#2b221f"/><stop offset=".443" stop-color="#4f3d3c"/><stop offset=".933" stop-color="#1f1a18"/></linearGradient><path d="M65.2 50.55l.1.05h-.1v-.05" fill="url(#Z)"/><linearGradient id="aa" gradientUnits="userSpaceOnUse" gradientTransform="matrix(.00206 -.00272 .00249 .0011 62.95 42.05)" x1="-819.2" x2="819.2"><stop offset="0"/><stop offset=".502" stop-color="#2f2523"/></linearGradient><path d="M62.75 51.6q.35.25.85.35h.1l.15.05h.1l.35.05.35.05-.05.05h-.5l-.4-.05h-.1l-.45-.1-.1-.05H63l-.15-.15-.1-.2m2.05.5l.55.05h-.55v-.05" fill="url(#aa)"/><linearGradient id="ab" gradientUnits="userSpaceOnUse" gradientTransform="matrix(-.00899 .0145 -.00488 -.00177 59.25 37.15)" x1="-819.2" x2="819.2"><stop offset=".094" stop-color="#261e1c"/><stop offset=".412" stop-color="#483837"/><stop offset=".929" stop-color="#191514"/></linearGradient><path d="M64.05 52.7l.1-.05-.1.05" fill="url(#ab)"/><linearGradient id="ac" gradientUnits="userSpaceOnUse" gradientTransform="matrix(0 -.00594 .00497 0 60.35 42.45)" x1="-819.2" x2="819.2"><stop offset="0"/><stop offset=".502" stop-color="#2f2523"/></linearGradient><path d="M60.75 51.5l-.2-.15.2.1v.05m-.95-.8l.05.1h.05-.05l-.05-.05-.05-.05-.15-.15.05-.05.15.2" fill="url(#ac)"/><linearGradient id="ad" gradientUnits="userSpaceOnUse" gradientTransform="matrix(0 -.00133 .00348 0 62.95 51.5)" x1="-819.2" x2="819.2"><stop offset="0"/><stop offset=".502" stop-color="#2f2523"/></linearGradient><path d="M60.2 50.5h-.05v-.1l.05.1" fill="url(#ad)"/><linearGradient id="ae" gradientUnits="userSpaceOnUse" gradientTransform="matrix(.00838 .02185 .00465 -.0027 85.05 36.45)" x1="-819.2" x2="819.2"><stop offset="0" stop-color="#1c1c1f"/><stop offset=".443" stop-color="#46484f"/><stop offset="1" stop-color="#141517"/></linearGradient><path d="M81.15 37.1l.05-.05h.15-.05l-.15.05m.45.95V38v.05m-.6.85l.05-.1v.1H81" fill="url(#ae)"/><linearGradient id="af" gradientUnits="userSpaceOnUse" gradientTransform="matrix(.00838 .02023 .00465 -.0025 85.05 36.4)" x1="-819.2" x2="819.2"><stop offset="0" stop-color="#1c1c1f"/><stop offset=".443" stop-color="#46484f"/><stop offset="1" stop-color="#141517"/></linearGradient><path d="M84.65 39.25l.05.1v.05l-.05-.15m.65 2.65v.05h-.05l.05-.05m-7.75 11.95l-.15.05.15-.05m-3.6-1.2l.05.05-.05-.05" fill="url(#af)"/><linearGradient id="ag" gradientUnits="userSpaceOnUse" gradientTransform="matrix(-.00458 -.0138 -.00467 .00058 82.15 41)" x1="-819.2" x2="819.2"><stop offset="0"/><stop offset=".502" stop-color="#2f2523"/></linearGradient><path d="M84.7 47.25l.1-.35h.1l-.15.35h-.05m.6-6.75l-.05-.2.05.2m0 1.4v-.1.15-.05" fill="url(#ag)"/><linearGradient id="ah" gradientUnits="userSpaceOnUse" gradientTransform="matrix(.00319 .0112 .00653 -.00406 73.8 33.35)" x1="-819.2" x2="819.2"><stop offset="0" stop-color="#261e1c"/><stop offset=".455" stop-color="#403a3a"/><stop offset="1" stop-color="#191514"/></linearGradient><path d="M81.1 38.75l.05.15v.55-.15l-.05-.15-.05-.25v-.1l.05-.05" fill="url(#ah)"/><linearGradient id="ai" gradientUnits="userSpaceOnUse" gradientTransform="matrix(.00856 .02675 .00465 -.00325 80.35 32.6)" x1="-819.2" x2="819.2"><stop offset=".094" stop-color="#261e1c"/><stop offset=".412" stop-color="#483837"/><stop offset=".929" stop-color="#191514"/></linearGradient><path d="M81.1 39.15l.05.15v.35-.05l-.05-.45" fill="url(#ai)"/><linearGradient id="aj" gradientUnits="userSpaceOnUse" gradientTransform="matrix(0 -.00812 -.00565 0 78.95 42)" x1="-819.2" x2="819.2"><stop offset="0"/><stop offset=".502" stop-color="#2f2523"/></linearGradient><path d="M81.8 40.7v.3-.15l-.05-.15h.05" fill="url(#aj)"/><linearGradient id="ak" gradientUnits="userSpaceOnUse" gradientTransform="matrix(0 -.01096 -.00565 0 78.95 42.4)" x1="-819.2" x2="819.2"><stop offset="0"/><stop offset=".502" stop-color="#2f2523"/></linearGradient><path d="M81.8 40.7h-.05v-.45l.05.45" fill="url(#ak)"/><linearGradient id="al" gradientUnits="userSpaceOnUse" gradientTransform="matrix(.00838 .01842 .00465 -.00227 85.05 37.5)" x1="-819.2" x2="819.2"><stop offset="0" stop-color="#1c1c1f"/><stop offset=".443" stop-color="#46484f"/><stop offset="1" stop-color="#141517"/></linearGradient><path d="M81.1 44.5l.05-.1v.05l-.05.05" fill="url(#al)"/><linearGradient id="am" gradientUnits="userSpaceOnUse" gradientTransform="matrix(-.00458 -.01595 -.00467 .00066 82.15 40.05)" x1="-819.2" x2="819.2"><stop offset="0"/><stop offset=".502" stop-color="#2f2523"/></linearGradient><path d="M85.25 47.3l.05-.05h.05l-.05.05h-.05" fill="url(#am)"/><linearGradient id="an" gradientUnits="userSpaceOnUse" gradientTransform="matrix(.00838 .01595 .00465 -.00198 85.05 38.8)" x1="-819.2" x2="819.2"><stop offset="0" stop-color="#1c1c1f"/><stop offset=".443" stop-color="#46484f"/><stop offset="1" stop-color="#141517"/></linearGradient><path d="M83.7 47.25h.05l-.05.05v-.05m.85.5l.15-.5h.05l-.05.05-.1.3-.05.15m-1.2 1.9h.05-.05" fill="url(#an)"/><linearGradient id="ao" gradientUnits="userSpaceOnUse" gradientTransform="matrix(.0102 .0145 .00554 -.00177 80.2 37.5)" x1="-819.2" x2="819.2"><stop offset=".094" stop-color="#261e1c"/><stop offset=".412" stop-color="#483837"/><stop offset=".929" stop-color="#191514"/></linearGradient><path d="M82.9 48.15v-.2l.05.2h-.05m-2.3 2.35v.1h-.05v-.05l.05-.05" fill="url(#ao)"/><linearGradient id="ap" gradientUnits="userSpaceOnUse" gradientTransform="matrix(.01154 .01628 .00465 -.00146 84.2 41.1)" x1="-819.2" x2="819.2"><stop offset=".094" stop-color="#261e1c"/><stop offset=".427" stop-color="#473836"/><stop offset=".929" stop-color="#191514"/></linearGradient><path d="M84 50.15l-.05.05v-.05H84" fill="url(#ap)"/><linearGradient id="aq" gradientUnits="userSpaceOnUse" gradientTransform="matrix(.00856 .01985 .00465 -.00241 80.35 34.7)" x1="-819.2" x2="819.2"><stop offset=".094" stop-color="#261e1c"/><stop offset=".412" stop-color="#483837"/><stop offset=".929" stop-color="#191514"/></linearGradient><path d="M80.95 42.3v.15l-.05-.15h.05" fill="url(#aq)"/><linearGradient id="ar" gradientUnits="userSpaceOnUse" gradientTransform="matrix(-.00227 -.00684 -.00186 .0004 80.05 47.05)" x1="-819.2" x2="819.2"><stop offset="0"/><stop offset=".502" stop-color="#2f2523"/></linearGradient><path d="M76.3 49l-.1.05.05-.05h.05" fill="url(#ar)"/><linearGradient id="as" gradientUnits="userSpaceOnUse" gradientTransform="matrix(.01154 .01628 .00465 -.00146 84.2 41.1)" x1="-819.2" x2="819.2"><stop offset="0" stop-color="#261d1b"/><stop offset=".443" stop-color="#4f3d3c"/><stop offset="1" stop-color="#14100f"/></linearGradient><path d="M80.2 49.65l-.1.15.05-.2h.05v.05" fill="url(#as)"/><linearGradient id="at" gradientUnits="userSpaceOnUse" gradientTransform="matrix(0 -.00594 -.00473 0 79.3 42.8)" x1="-819.2" x2="819.2"><stop offset="0"/><stop offset=".502" stop-color="#2f2523"/></linearGradient><path d="M79 51.8l-.1.05v-.05l.2-.1-.1.1m.95-.95l.05.05-.45.55-.2.05.15-.15.45-.45v-.05" fill="url(#at)"/><linearGradient id="au" gradientUnits="userSpaceOnUse" gradientTransform="matrix(0 -.00133 -.00331 0 76.8 51.85)" x1="-819.2" x2="819.2"><stop offset="0"/><stop offset=".502" stop-color="#2f2523"/></linearGradient><path d="M79.55 50.7l-.05.15h-.05l.1-.15" fill="url(#au)"/><linearGradient id="av" gradientUnits="userSpaceOnUse" gradientTransform="matrix(-.00197 -.00272 -.00237 .0011 76.8 42.4)" x1="-819.2" x2="819.2"><stop offset="0"/><stop offset=".502" stop-color="#2f2523"/></linearGradient><path d="M76.8 52.3h-.25l.3-.05-.05.05" fill="url(#av)"/><linearGradient id="aw" gradientUnits="userSpaceOnUse" gradientTransform="matrix(-.00426 .01047 .00217 .0006 80.15 45.15)" x1="-819.2" x2="819.2"><stop offset=".008" stop-color="#2b221f"/><stop offset=".443" stop-color="#4f3d3c"/><stop offset=".933" stop-color="#1f1a18"/></linearGradient><path d="M75 51.35l-.15-.15-.15-.15-.1-.1.1-.05.25.3.1.1.3.4-.15-.15-.2-.2" fill="url(#aw)"/><linearGradient id="ax" gradientUnits="userSpaceOnUse" gradientTransform="matrix(-.00328 -.00902 .00186 -.00084 55.95 39.35)" x1="-819.2" x2="819.2"><stop offset="0"/><stop offset=".502" stop-color="#2c2d32"/></linearGradient><path d="M62.35 46.7l1.5 2.3q-1.15-2-2.05-4.5v-.15l-.25-1.45-.15-.9v-.3l-.1-.6.15-1.3.15-1.55v-.1l.25-2.35.05-.05.25-.95v-.05l.05-.15v-.05h.15v.25l-.3 1.7-.1 1.1v.1l-.05.55-.1 1.35v1.65l.05.5v.4l.05.4v.35l.2 1 .15.6.3 1.05.1.3.05.05.15.35.25.65h.05l.05.05.15.3.2.25.05.05v.05l.75.9.95.85 1.5 1.05.55.3-1.2.2.9.05.05.05-.3.1-.2.15h-.05l.05.05.55.3v.1h-.25l.25.15-.35.05h-.15l-.45-.15-1.25-.75-1.5-1.7-.6-1.1-.15-.3-.15-.35.25.35-.45-1.2m4.85 5.45h.1l-.1.05v-.05m-10.05-7.5v-.15h.05l-.05.15m.5-9.8v-.15l.05-.1.1-.5.1-.4-.1.45-.1.4-.05.3m-1.3 11.85l.05.2v.15l-.05-.35m7.25 2l-.05-.05h-.05l.1.05m1.6 1.9h.1l-.1-.05v.05m.25.6l.15.05.05-.05-.15-.05.05.05h-.1" fill="url(#ax)"/><linearGradient id="ay" gradientUnits="userSpaceOnUse" gradientTransform="matrix(.00368 .00848 -.00706 .00258 64.85 42.1)" x1="-819.2" x2="819.2"><stop offset="0" stop-color="#2e2f34"/><stop offset=".447" stop-color="#5b5e67"/><stop offset="1" stop-color="#2f3035"/></linearGradient><path d="M60.3 47.2l-.05-.25.05.25" fill="url(#ay)"/><linearGradient id="az" gradientUnits="userSpaceOnUse" gradientTransform="matrix(.004 -.01988 .00545 .00108 78.55 38)" x1="-819.2" x2="819.2"><stop offset="0"/><stop offset=".502" stop-color="#2d2e32"/></linearGradient><path d="M77.7 26.65v-.05h.05l.1.05 1.35 1.9-1.5-1.9m6.85 11.8l.05-.05v.15l-.05-.1m-1.3-3.85v.05-.05" fill="url(#az)"/><linearGradient id="aA" gradientUnits="userSpaceOnUse" gradientTransform="matrix(.00024 -.01454 -.0046 -.001 82.9 43.25)" x1="-819.2" x2="819.2"><stop offset=".035" stop-color="#605252"/><stop offset=".188"/><stop offset="1" stop-color="#27282c"/></linearGradient><path d="M86.3 46.1v.1h-.05l.05-.1" fill="url(#aA)"/><linearGradient id="aB" gradientUnits="userSpaceOnUse" gradientTransform="matrix(.00441 -.01271 -.00177 -.00084 81.5 47.3)" x1="-819.2" x2="819.2"><stop offset="0"/><stop offset=".502" stop-color="#2c2d32"/></linearGradient><path d="M80.85 44.6l-.05.1v-.9l.05.4v.4m-.35 9h.05-.05m-7.7-1.4l.1-.05v.05h-.1" fill="url(#aB)"/><linearGradient id="aC" gradientUnits="userSpaceOnUse" gradientTransform="matrix(-.00087 -.0207 -.00195 -.00012 82.9 43.4)" x1="-819.2" x2="819.2"><stop offset="0"/><stop offset=".337" stop-color="#2c2d32"/><stop offset=".918" stop-color="#070708"/><stop offset="1" stop-color="#2a2b30"/></linearGradient><path d="M84.45 48.05l.1-.3.05-.15.1-.3.05-.05.1.05-.2.45-.1.15-.1.15m-1.2-13.4h-.05.05M79.1 51.7l-.05.1H79l.1-.1" fill="url(#aC)"/><linearGradient id="aD" gradientUnits="userSpaceOnUse" gradientTransform="matrix(.00444 .02158 -.00542 .00076 50.3 44.2)" x1="-819.2" x2="819.2"><stop offset="0" stop-color="#1c1c1f"/><stop offset=".443" stop-color="#414349"/><stop offset="1" stop-color="#08090a"/></linearGradient><path d="M54.7 45.2l.25.9v.15l-.25-.95v-.1m6.5-7.85l.05-.9.05-.1-.1 1m-6.4 5.45l.05-.65v.65h-.05m2.55 6.25l.05-.05v.15l-.05-.1m1.8-1l.05.05h-.05v-.05" fill="url(#aD)"/><linearGradient id="aE" gradientUnits="userSpaceOnUse" gradientTransform="matrix(-.0019 -.01082 -.00339 .0006 46.35 45.45)" x1="-819.2" x2="819.2"><stop offset="0" stop-color="#070708"/><stop offset="1" stop-color="#25262a"/></linearGradient><path d="M60.6 51.6l-.05-.1.1.1.15.2v.05l-.1-.05-.1-.2m-5.9-6.3l.25.95v-.15l.7 1.9h.1l.1.4 1.2 1.95-1.4-1.3-.9-1.6q-.9-1.85-1.05-4.05 0-1.5.35-3.15l.7-2.85.4-1.15.35-.85q1.15-3.8 3.5-7.7l.35-.55q.75-1.3 1.65-2.3l1.35-1.6q3.15-2.75 6.75-2.95v.05l-1.2.1q-1.2.25-2.55.9h-.05l-.5.4-1.2 1.05v.05l-.25.2v.05l-1.3 1.5h.05l-.6.7-.1.1-1.55 2.4-1.6 2.35q-.75 1.2-1.35 2.55l-1.5 3.65v.1l-.15.45q-1.4 4.5-.55 8.3v.1m8.65-21.75l-.75.65-.45.5 1.2-1.5v.35m-3.55 3.3l-.7.8.8-.9-.1.1m-5 15.95v.5l-.05-.15v-.35h.05m5.65 5.85v-.05.05m3.4 3.35v-.05l.1.05h-.1M61.4 25.05l1.3-1.45-1.3 1.35v.1" fill="url(#aE)"/><linearGradient id="aF" gradientUnits="userSpaceOnUse" gradientTransform="matrix(-.00203 .0093 -.0015 -.00032 56.3 42.6)" x1="-819.2" x2="819.2"><stop offset="0" stop-color="#452e2e"/><stop offset=".463" stop-color="#7d5757"/><stop offset="1" stop-color="#493131"/></linearGradient><path d="M54.75 42.8v-.65q.05-2.7.95-5.45.55-1.8 1.45-3.6l1.35-2.5.1-.15.45-.75 3.4-4.35-1.05 1.5-.6.95-1.75 3.1-1.35 3.05-.3.8-.15.85.4-.9v.15l.05-.3.15-.3.2-.45.1-.2.05.05.05-.25 1.05-1.85.05.05-.05.1q-.65 1.55-1.05 3.1l-.4 1.45q-.25.95-.35 1.95l-.25 1.8v.55q-.1 3.65 1.35 7.75l-1.25-3.35v-.1h-.05l-.1-.35-.1-.4-.55-3.2-.15-1.9q-.6 2.95-.1 5.15l-.6-2.05-.15-1.65q-.45 4.8.4 7.05-.55-1.2-.85-2.4l-.2-1.05-.1-.75v-.5h-.05m.1 0v-.65l-.05.65h.05m1.1 2.35l-.2-1.8.25 1.2-.05.6m.55 1.35v.1-.1" fill="url(#aF)"/><linearGradient id="aG" gradientUnits="userSpaceOnUse" gradientTransform="matrix(-.0028 .0128 -.0106 -.00235 57.55 42.65)" x1="-819.2" x2="819.2"><stop offset="0" stop-color="#452e2e"/><stop offset=".463" stop-color="#7d5757"/><stop offset="1" stop-color="#493131"/></linearGradient><path d="M59.4 31.6h.05v.05h-.05v-.05m-1.25 2l-.1.2.05-.1.05-.3.15-.5-.1.6v.15l-.05-.05m.25 15.7l.2.35.1.35-.3-.7" fill="url(#aG)"/><linearGradient id="aH" gradientUnits="userSpaceOnUse" gradientTransform="matrix(.00368 .00848 -.00706 .00258 64.85 42.1)" x1="-819.2" x2="819.2"><stop offset="0" stop-color="#452e2e"/><stop offset=".463" stop-color="#7d5757"/><stop offset="1" stop-color="#493131"/></linearGradient><path d="M61.4 43.5h.05l.35 1q.9 2.5 2.05 4.5l-1.5-2.3-.5-.95-1.15-2.95-.05.05v-.05l-.05-.25-.35-1.4.65 3.2q.65 2.75 1.75 5.15l.1.3-.4-.8-.05-.1q-1.8-3.15-2.45-6.55l-.3-2.35-.05-.2.05-.55.05-.5h.05v-.05l.1-1.7-.25.25-.3 2.45q-.2 1.95-.1 3.65-.35-2.1-.35-4.05-.05-1.8.2-3.5.3-2.1.95-4.05l.55-1.45q.9-2.15 2.35-4.1l.2-.3.35-.45v.25l-.15.25-.2.3-.2.35-.1.25L61.65 29l-.25.6-.25.7-.45 1.3-.2.8-.05.2q-.3.95-.45 1.95h.15Q60 35.85 60 37.2v1.3l.1-1.15q.2-2.35.85-4.5.6-2 1.55-3.75-.75 2-1.2 4.1-.5 2.45-.55 5l.1 3.05.05.3.45 1.65.05.3m-1-4.05h.05l.05-.2v-.05.05l-.05.15-.05.05m-.1-.4h-.05.05m-.35.65h-.05v.05h.05v-.05m.5 1.1v.05l.05-.05h-.05M60 45.35l-.15-.75.05-.35v.2l.05.45.05.45m.7-2.55l.1-.1h-.05l-.05.05v.05" fill="url(#aH)"/><linearGradient id="aI" gradientUnits="userSpaceOnUse" gradientTransform="matrix(.00444 .02158 -.00542 .00076 50.3 44.2)" x1="-819.2" x2="819.2"><stop offset="0" stop-color="#140d0d"/><stop offset=".455" stop-color="#553939"/><stop offset="1" stop-color="#1b1212"/></linearGradient><path d="M60.7 51.8l-.75-.55 1.15 1.05-.2-.05-.6-.25.1.1.1.15h-.05l-.1-.1-.1-.1-.15-.15.05-.05L59 50.3l-.4-.65-.2-.35-.2-.45q-1-2.05-1.35-4.4v.6l.05-.05.1 1.7.05.3.25 1.55-.8-2v-.05l-.5-1.95-.25-1.2.2 1.8.3 1.65.1-.1.05.35.45 1.5.4.9.1.1.4.9.2.3.75.6-1.6-.95-.05-.05-1.2-1.95-.1-.4h-.1l-.7-1.9-.25-.9q-.85-3.8.55-8.3l.15-.45v-.1l1.5-3.65q.6-1.35 1.35-2.55l1.6-2.35 1.55-2.4.1-.1.6-.7v-.05l-.05.05 1.3-1.5v.1l-1.2 1.5.45-.5-.85 1.1-.1.15-.1.2-.15.15-1.3 2 1.3-1.7.25-.3.45-.5 1.25-1.35v.4l-.75.95-.7.95-.1.15-.4.55-.55.85q-.75 1.2-1.35 2.5l-.2.5-.1.25-.25.55-.4 1-.3.8-.05.25v-.15l.1-.6-.15.5-.05.3-.05.1-.2.45-.15.3.1-.4.1-.45-.1.4-.1.5-.05.1-.4.9.15-.85.3-.8 1.35-3.05 1.75-3.1.6-.95 1.05-1.5-3.4 4.35-.45.75-.1.15-1.35 2.5q-.9 1.8-1.45 3.6-.9 2.75-.95 5.45v1l.05.15.1.75.2 1.05q.3 1.2.85 2.4-.85-2.25-.4-7.05l.15 1.65.6 2.05q-.5-2.2.1-5.15l.15 1.9.55 3.2.1.4h-.05v.3l.05-.1v-.2l.1.35h.05v.1l1.25 3.35q-1.45-4.1-1.35-7.75V40l.25-1.8q.1-1 .35-1.95l.4-1.45q.4-1.55 1.05-3.1l.05-.1.05.05h.05v-.05h-.1l.1-.25.55-1v-.05l1.4-2.35.1-.15.1-.2.05.05.55-.8.35-.45.25-.35.2-.25.35-.45v.1l-.35.45-.2.3q-1.45 1.95-2.35 4.1l-.55 1.45q-.65 1.95-.95 4.05-.25 1.7-.2 3.5 0 1.95.35 4.05-.1-1.7.1-3.65l.3-2.45.25-.25-.1 1.7-.05.05-.05.5-.05.55.05.2.3 2.35q.65 3.4 2.45 6.55l.05.1.4.8-.1-.3q-1.1-2.4-1.75-5.15l-.65-3.2.35 1.4.05.25v.05l.05-.05 1.15 2.95.5.95.45 1.2-.25-.35.15.35.15.3.6 1.1 1.5 1.7 1.25.75.45.15-.35.05.9.2v.05l-1.1.1h.75l-.2.15h-.75l.05-.15-.1.15h-.3l-.8-.1h-.3l-.3-.2h.45l.05-.05-.35-.05-.35-.05-.1-.05-.1-.1H64l-.3-.2h-.1l-.25-.1-.05-.05v-.05l.3.05h.85-.15l-.15-.05-.45-.1h-.1l-.25-.1-.45-.2.35.05.35.05-.5-.2-.45-.2v-.05l-.25-.5-.1-.25-1.6-3-.05-.1-.7-1.95-.05-.45v-.2l-.05.35.15.75.8 2.6.15-.05v.1l.3.85.15.5.05.1.1.25v.05l.25.6.35.75-1.6-2.2-.1-.25v-.05.05l-.3-.55-.25-.6-.45-1.35-.05.05-.8-3.3-.15.1q.1 1.75.45 3.3.7 3.35 2.55 5.85l-.65-.3v-.05l-.15-.25v.05l-.1-.1.05.1.1.2m.65-8.6l.1.3h-.05l-.05-.3m1.85-17.25l-.2.35-.05.1-.15.2.2-.35.2-.3m-4.3 8.65l-.05.3.05-.1v-.2m-.2 2.2l.2-1.9-.25 1.9h.05m-.2.9l.05-.6-.1.6h.05m-.1 1.3v.3l.05-.25v-.25h-.05v.2m-.65.9l-.05.45v.3l.05-.3v-.45m.85 2.25l.05-.2h-.05v.2m1.4 2.2l-.05.05v.05l.1-.1H60m.3 2.85l-.05-.25h-.05l.05.3.05-.05m-1.15.9h.05l-.05-.05v.05m-.1-.4l.1.35-.1-.35m.45 1.75l-.05-.2h-.05l-.15-.45.05.3.05.15v.05h.05l.1.15m2.1-1.15l.05.1v-.1h-.05m3.2 3.85h.55l-.55-.05v.05m-2.1-1.95l.5.35v-.05l-.05-.05-.35-.3-.1.05m-1.95 1.25l-.2-.1.2.15v-.05m-1.1-.95l-.05.05.15.15.05.05.05.05h.05-.05l-.05-.1-.15-.2m.5-.1v.1h.05l-.05-.1m-1.1-.2l-.05.05h.05v-.05m1.4 1.1l-.1-.1.1.15.05-.05h-.05" fill="url(#aI)"/><linearGradient id="aJ" gradientUnits="userSpaceOnUse" gradientTransform="matrix(-.00087 -.0207 -.00195 -.00012 82.9 43.4)" x1="-819.2" x2="819.2"><stop offset="0" stop-color="#140d0d"/><stop offset=".455" stop-color="#553939"/><stop offset="1" stop-color="#1b1212"/></linearGradient><path d="M84.9 33.55l.1.45.5 1.65.25.95v.15l.5 2.45.25 1.3.1 1 .1.6-.1 2v.2l-.25 1.3-.2.4-.55.85-.35.45-.5.65-.45.9.15-.45.1-.5.1-.15.2-.45-.1-.05.15-.35h-.15l.2-1.3.1-.6.05-3 .05-.5v-1.15l.1 1.6.2 3.7q.35-1.95.25-4.15l-.15-1.4v-.3l-.05-.35-.15-.9q-.65-3.8-2.05-7.4l1.25 6.4v.3l.05.25v.3l-.05.05v.1h.15l.05.85v.35l-.05.7-.05-.65-1-5.35h-.05v-.25l-.05-.15-.5-2.45-.05-.2-.35-1.2-.9-2.1-1.05-2-.05-.15-.5-.8-.15-.25h-.1l.25.45.35.6.1.15.55 1.15.15.4v.05l.05-.05v-.05l.25.5.85 2.1.45 1.25.05.15.4 1.9.1.55.05.15h-.05l-.05-.1v-.05l-.35-1.6-.25-.85v-.1l-.1-.3-.35-1-.95-2.1-.35-.55h-.1l.3.55.15.3.75 1.8.25.75.2.65.5 1.75.45 2.5v-.05.05l.05.55v.25h.05l.15 1.5h.05v.45l.1 1.45.05 1.1.05.35v.45L84 41.5v-.35l-.05-.55-.05-.3v-.2.35-.15l-.05-.2-.15-1.2-.2-1.25-.25-1.25-.15-.8-.15-1.35v.6l-.95-3.7-.05-.1-.45-.75-.05-.1-.15-.2-.05-.35-.05-.3v.05l.05.25v.15l.05.15.05.2v.1h.05l.15.2q1.5 5.3 1.65 9.9l.05 1.15-.15 2.5-.45 1.95 1.05-2.7-.65 4.85.45-1.1v-.1q.75-2.05 1.05-5.05.35 2.1 0 3.55l.05-.1-.1.4-.35 1.2-.5 1.2-1.15 2.1v.05l-1.15.85.85-1.75.3-.95.5-2.35V46l.05-.1-.05.1v.05l-.25.55-.25.45-2 3.45-.3.4-.45.45.3-.45.45-.8 1.55-3.6.45-1.65.4-2.25.05-1.1.05-1.1v-.75l-.05.8-.1 1.05-.2 1.3-.15.75-1 3.25v.05l-.05.05-.45.95-.5.6-1.2 1.35-.9.8-.4.3-.45.3v-.1l.2-.2.65-.7 1.8-2.7.05-.05.25-.55.15-.25-.15.15-.1.1-.85.9-1.15 1.15-2.6 1.95-.75.4-.1-.1.45-.3 2.65-2.3.35-.45.85-1.3.3-.7q-1.95 2.3-4.2 3.1 2.5-1.65 3.35-3.95l.25-.6q3-9.05-2.3-18.1h.1l.95 1.15V27l.2.1h.05l1.25 1.45-1.35-1.9-.1-.05h-.05v-1.8l.25.15.05.05v-.05l-.05-.05-.05-.15-.2-.2v-.5h.05l.25.05.3.1h.05l.15.1.25.1.25.15.15.1-.1-.15H79l-.1-.1-.4-.3-.2-.1-.1-.1-.5-.2V23l.3.15q.6.3 1.15.75l.25.25-.15-.25-1.55-1.5v-.5q1.25.75 2.35 2.2l.45.65.6.9.15.3.05.15.05.05.4.9.5.55 1 2.15.2.45.6 1.55.7 1.4.15.4M82 30.7l.1.45.15.45.05.1v-.1l-.3-.9-.15-.5.15.5m-.4.55l.1.35-.1-.35m1.65 3.35l-.05-.05v.1h.05v-.05m-.95-.55h-.05v.15l.1.65v-.05l-.05-.6v-.15M82 35.2V35h-.05v.1l.05.1m.15 1.1v-.05.45l.05-.55v-.5h-.05l-.05.45.05.2m-1.35 8.35v.05h-.05l-.05.7.15-.6.1-.3.05-.1-.1.15h-.05v-.3l.05.05v-.1l.8-3.35v-.1.1q.05 2.9-.65 5.35l.7-1.9v-.1.25l.05-.4v-.15h.05v-.15l.3-1.9.1-1.15.1-1.95-.25-1.8v-.05q-.65-4.2-1.6-6.35l-.15-.3.15.5.25.95.95 4.95.05.25.1 2.15-.3-2.2-1.05-4.5-.75-2h.05v-.15l-.25-.45-.15-.25-.05-.1-.15-.25-.15-.25-.05-.05-.05-.1-.15-.15h-.1l-.15-.05h-.4l.05.1.05.05.05.05.1.2.15.25.05.15.15.1.1.05.05.1.1.1.25.2.35.3.05.05.7 2.8.15.8.65 4.9v.15l-.05-.15-.05.05-.05.1h.05l.05.25.05.45-.05 1.5-.1 1.2-.05.15-.65 3-.4 1.05.85-1.85.05-.15v.15m.75-7.8l.15-.05v-.15l-.15.2m.6.05l-.05.05.05-.05m3.2 1.65h-.05.05m-.65.85v-.05l-.05-.1.05.15m-1-.5h.05-.05m-1.2-1.45l.15.25.05.05v.05l.05-.05-.05-.05-.15-.25h-.05l-.15-.05.15.05m-1.35 7v-.05l-.05.1.05-.05m1.1 2.45h.1l-.1-.1v.1m.7 1.25l-.05-.2v.2h.05m.75-.85l.05-.05h-.05v.05m-5.65-22.7H78l.05.05h.1l-.1-.05m.15.15h.05l-.1-.1.05.1m.65-.7L78.8 24v.1l.05-.05m1.5 1.95l.05.1h.05l-.1-.1m-1.75-.55l.4.65 1.2 2 .05.1v-.1l-.65-1.4h.05l-.15-.15-.3-.45-.2-.25-.35-.4-.05-.05v.05m0 1.6v.05l.05-.05h-.05m.15.4v.05h.05l-.05-.05m.2.3l-.15-.25.15.25m.35-.35l-.05-.05v.05h.05m-1.45-1.25v-.05h-.05l.05.05m.15-.2h-.05l.1.2h.05l-.1-.2m1.3 2.95v-.05.05l-.05-.05.05.05m-.55 1.7h.05v-.1h-.05l-.05-.05.05.1v.05m1.55-.65h.05l-.15-.35.05.2.05.15m.4.5l-.05-.05-.05-.05.05.05v.05h.05m-.15 1l.1.15-.1-.15m-1 .6l-.05-.15.15.8-.1-.65m.05.65v.05h.05v-.05h-.05m.3.1l-.05-.05v.05h.05m-.15 1.1v.05l.05.05-.05-.1m.45 1.95l.05.1-.05-.2v.1m-.1-.7h-.05.05M80.05 34l.05.1-.05-.1m.25 6.25l.35-1.4v-.05l.05-.25h-.1v.2l-.3 1.5m.4-.9l.05-.05.05-.2-.05.05-.05.2-.05-.25.05.3v-.05m.2 2.95l.05.15v-.15h-.05" fill="url(#aJ)"/><linearGradient id="aK" gradientUnits="userSpaceOnUse" gradientTransform="matrix(.00336 -.00941 .00726 .00258 78.6 44.25)" x1="-819.2" x2="819.2"><stop offset="0"/><stop offset=".902" stop-color="#523737"/></linearGradient><path d="M73.3 51.9l1.7-.55.2.2.15.15-.3-.4.75-.4 2.6-1.95 1.15-1.15.85-.9.1-.1.15-.15-.15.25-.25.55-.05.05-1.8 2.7-.65.7-.2.2h-.1l-.05.15-.1.1.05-.05h.05l.15-.1.45-.3.4-.3.9-.8 1.2-1.35.5-.6.45-.95h.05v-.1l1-3.25.15-.75.2-1.3.1-1.05.05-.8v.75l-.05 1.1-.05 1.1-.4 2.25-.45 1.65-1.55 3.6-.45.8-.3.45.45-.45.3-.4 2-3.45.25-.45.25-.55-.5 2.35-.3.95-.85 1.75-.15.05-.2.15-.2.2-.65.45-.9.45q.65-.35 1.1-1.45l-.55.45-.2.1-.4.2.1-.15-.1.1-.1.05-.2.1v.05l-.5.15-1.35.3h-.25l.15-.05.3-.1.95-.7-.4.15-3.95.55.4-.1-.95-.1v-.05m8.75-1.05l.45-.3.7-.75q.5-.75.8-1.85-.45 1.1-1.1 1.85l-.4.45v-.05l1.15-2.1.5-1.2.35-1.2.1-.4v-.1.05q.4-1.2.5-3.25l-.05 3-.1.6-.2 1.3h.05l-.1.35-.15.5-.1.3.1-.15-.1.5-.15.45.45-.9.5-.65.35-.45.55-.85.2-.4-.15.65q-1 2.9-3.7 4.4l-.4.25-.05-.05m.15-5.7v-.3.3m3.1 2.15l.05-.05h-.05l-.05.05h.05m-1.9 2.35h-.05.05m-3.25-.05l-.05.2.1-.15h.05v-.05l.05-.15.05-.3-.15.45h-.05m-.2 1.3l-.45.45-.15.15.2-.05.45-.55-.05-.05v.05m.6-.35v.05h.05v-.1l-.05.05m-1.1.3h.05l.05-.15-.1.15m-2.85.05l.45-.35-.1-.05-.35.35v.05" fill="url(#aK)"/><linearGradient id="aL" gradientUnits="userSpaceOnUse" gradientTransform="matrix(.0033 -.00034 -.00035 -.00343 69.5 21.85)" x1="-819.2" x2="819.2"><stop offset="0" stop-color="#322"/><stop offset=".443" stop-color="#674747"/><stop offset="1" stop-color="#141517"/></linearGradient><path d="M59.3 31.55l-1.05 1.85.3-.8.4-1 .25-.55.1-.25.2-.5q.6-1.3 1.35-2.5l.55-.85.4-.55.1-.15.7-.95.75-.95v1l-.35.45-.2.25-.25.35-.35.45-.55.8-.05-.05-.1.2-.1.15L60 30.3v.05l-.55 1-.1.25-.05-.05m.05.05l-.05.1.05-.1m3.6-5.2l.05-.1.2-.35.15-.25v3.15l-.2.45-.05.2-.1.2-.2.5-.05.1-.2.5-.25.75h-.15v.05l-.05.1h.05l-.45 1.9v.1l-.05.25-.15.6h-.05l-.1.75-.05.7-.05.45-.05.9.1 1.6.1.6.05.25-.15 1.3.1.6v.3l.15.9.25 1.45v.15l-.35-1-.1-.3-.45-1.65-.05-.3-.1-3.05q.05-2.55.55-5 .45-2.1 1.2-4.1-.95 1.75-1.55 3.75-.65 2.15-.85 4.5L60 38.5v-1.3q0-1.35.15-2.65h.1l.15-1.2h.05l.05-.3.05-.55-.1.75-.05.1-.1.4-.25.8H60q.15-1 .45-1.95l.05-.2.2-.8.45-1.3.25-.7.25-.6 1.05-2.15.1-.25.15-.2" fill="url(#aL)"/><path d="M61.3 36.35l-.05.1.05-.45.05-.7.1-.5v-.05l.05-.15v-.05l.15-.6.05-.25v-.1l.35-1.3.2-.6v-.1l.05-.05.25-.75.2-.5.05-.1.2-.5.1-.2.05-.2.2-.45.05-.2.15-.35.05-.1.2-.4.25-.4.45-.7.15-.25.05-.05.75-1.1.15-.2 1.25-1.2.15-.1v.05h.15l.7-.35.35-.15q.25-.2.45-.25h-.4l-1.1.2-.15.05h-.1l-.6.2.7-.55.15-.05.3-.25q.75-.15.95-.4h-.15l.15-.05.4-.05h.4l.05-.05.1.05h.8l.2.3-.85-.1h-.15l-.15.05-.4.1h-.1l.1.05 1.3.25h-.75l-.15.05-.4-.05-.7.05-.95.2 1.5-.05.15.05h.05l.35.05.15-.05h.1l.05.05.55.15-.55.05h-.15l-.15.05h-.4q-.35 0-.3.15l.3.05.4.1.15.05h.1l.05.05.15.05q.35.25.1.15l-.25-.05h-.05l-.1-.05h-.15l-.4-.1h-.25l.05.05.2.05.35.2h-.35l-.6.1-.65.2.65.1.6.15-.8.1-.3.05-.45.15.5-.1-.2.1-.4.3-.15.1-.65.5-.45.5-.2.25-.2.15-.05.05-.15.1h.15l.05-.05.1-.05.3-.05-.45.4v.05l-.15.2-.25.3-.1.1-.3.4-.35.4-.05.1v.05l-.2.55-.1.15v.05l-.25.7v.05l-.05.05-.15.4h.05l-.05.1-.05.1-.35.65v.05l-.05.1-.25.6-.05.15-.15.55v.15l-.05.15-.1.4-.05.15-.1.35-.05.2-.05.15v.05l-.05.15v.05l-.25.95-.05.05-.25 2.35v.1l-.15 1.55-.05-.25-.1-.6-.1-1.6.1-1M67.95 24l.05-.05h-.05V24M62 33.9l-.2.65h.15l.05-.2.05-.4.05-.2v-.05l.05-.15.05-.25.05-.25-.1.25-.05.25-.05.15-.05.2" fill="#2b1516"/><linearGradient id="aM" gradientUnits="userSpaceOnUse" gradientTransform="matrix(-.00087 -.0207 -.00195 -.00012 82.9 43.4)" x1="-819.2" x2="819.2"><stop offset="0" stop-color="#452e2e"/><stop offset=".463" stop-color="#7d5757"/><stop offset="1" stop-color="#493131"/></linearGradient><path d="M81.85 43.9h-.05v-.05h.05v.05m-.95.35v.05l-.05-.05h.05" fill="url(#aM)"/><linearGradient id="aN" gradientUnits="userSpaceOnUse" gradientTransform="matrix(-.00208 .0095 -.003 -.00066 80.5 38.4)" x1="-819.2" x2="819.2"><stop offset="0" stop-color="#452e2e"/><stop offset=".463" stop-color="#7d5757"/><stop offset="1" stop-color="#493131"/></linearGradient><path d="M80.85 44.25h.05-.05" fill="url(#aN)"/><linearGradient id="aO" gradientUnits="userSpaceOnUse" gradientTransform="matrix(-.00217 .01012 -.00418 -.00089 83.15 39.45)" x1="-819.2" x2="819.2"><stop offset="0" stop-color="#452e2e"/><stop offset=".463" stop-color="#7d5757"/><stop offset="1" stop-color="#493131"/></linearGradient><path d="M84.6 45.25v-.05.1l-.05.1q.35-1.45 0-3.55-.3 3-1.05 5.05v.1l-.45 1.1.65-4.85-1.05 2.7.45-1.95.15-2.5-.05-1.15q-.15-4.6-1.65-9.9l.1.15.35.55.95 3.7.15.75.15.8.25 1.25.2 1.25.15 1.2.05.2v.3h.05l.05.55v.35l.05.45v-.45l-.05-.35-.05-1.1-.1-1.45v-.45h-.05l-.15-1.5-.05-.25-.05-.55v-.05.05l-.45-2.5-.3-1.6.25.7.35 1.6v.05l.05.1h.05l-.05-.15-.1-.55.25.7v.25h.05l1 5.35.05.65.05-.7v-.35l-.05-.85-.1-.8v-.05l-.05-.15-1.25-6.4q1.4 3.6 2.05 7.4l.15.9.05.35v.3l.15 1.4q.1 2.2-.25 4.15l-.2-3.7-.1-1.6v1.15l-.05.5q-.1 2.05-.5 3.25M83.5 34.4v.05-.15.1m-2.2 2.65h.05-.15l-.05.05.15-.05m.25-.15v-.05.05m.3 2.15l-.1-2.15-.05-.25-.95-4.95-.25-.95-.15-.5.15.3q.95 2.15 1.6 6.35v.05l.25 1.8-.1 1.95-.1 1.15-.3 1.9v.1h-.05v.2l-.05.15v.1l-.7 1.9q.7-2.45.65-5.35v-.1.1l-.8 3.35v.05h-.05v-.05l-.05-.4v.7l-.05.15-.85 1.85.4-1.05.65-3 .05-.15.1-1.2.05-1.5v.05-.9l-.65-4.9-.15-.8-.7-2.8.1.1.75 2 1.05 4.5.3 2.2m0-2.35v-.05l.1-.05-.1.1m.05.15h-.05l.05.05v-.05m3.4 1.75h.05l-.05-.05v.05m0-.05h.05-.05m0 1.95v-.35h-.05v.15l.05.2m-.45-1.6l.1.75-.05-.75h-.05m-1.4-1v-.2h-.05l.05.2m-1.85.1v.05V38m.15 2.25v.45l.05.15V41v-.3l-.05-.45m.05 3.25v.25-.5l-.05.05.05.2m-.1-.35v.15h.05l-.05-.15m3.55-1.2h.05v-.15.1l-.05.05m-1.65 2.2l.05.1v-.1h-.05m.55-.3l.05-.2h-.05v.2m-.6 2l-.1.4.1-.4v-.05.05m-.1.9v.15h.05v-.15h-.05m-.2.1l-.05.05h.05v-.05" fill="url(#aO)"/><linearGradient id="aP" gradientUnits="userSpaceOnUse" gradientTransform="matrix(-.00127 -.00032 .0006 -.0023 77 24)" x1="-819.2" x2="819.2"><stop offset="0" stop-color="#140d0d"/><stop offset=".455" stop-color="#553939"/><stop offset="1" stop-color="#1b1212"/></linearGradient><path d="M79 24.55l-.25-.15-.25-.1-.15-.1h-.05l-.3-.1-.25-.05h-.05v-.35l.5.2.1.1.2.1.4.3.1.1v.05m-1.05.4l-.25-.15v-.25l.2.2.05.15.05.05h-.05" fill="url(#aP)"/><linearGradient id="aQ" gradientUnits="userSpaceOnUse" gradientTransform="matrix(-.0019 .00026 -.00038 -.0028 77 22.75)" x1="-819.2" x2="819.2"><stop offset="0" stop-color="#140d0d"/><stop offset=".455" stop-color="#553939"/><stop offset="1" stop-color="#1b1212"/></linearGradient><path d="M77.7 22.4l1.55 1.5.15.25-.25-.25q-.55-.45-1.15-.75l-.3-.15v-.6" fill="url(#aQ)"/><linearGradient id="aR" gradientUnits="userSpaceOnUse" gradientTransform="matrix(-.0054 -.0073 .00221 -.00163 60.1 46.3)" x1="-819.2" x2="819.2"><stop offset="0"/><stop offset=".902" stop-color="#523737"/></linearGradient><path d="M63.05 51.25l.2.2h.05v.05l.05.05.3.25h-.05l.1.05h.05l.1.1V52l-.15-.05h-.1q-.5-.1-.85-.35v-.05h-.1l-.1-.05-.25-.1.15.1.55.45h.05l.1.05.45.1h.1l.4.05h.05l.3.2-.95-.2-.3-.05-1.1-.35q.9.8 1.65.85l-2.3-.45q-1.85-2.5-2.55-5.85-.35-1.55-.45-3.3l.15-.1.8 3.3.05-.05.45 1.35.25.6.3.55.1.25 1.6 2.2-.35-.75-.25-.6v-.05l-.1-.25-.05-.1-.15-.5-.3-.85v-.1l-.15.05-.8-2.6-.05-.45.7 1.95.05.1 1.6 3 .1.25.25.5.1.15v.05l.05.05V51l.05.05h.05l.15.2M58.7 50l-.1-.35.4.65 1.15 1.55-.05.05-1.35-.85q-.95-.7-1.45-1.65l.05.15-.1-.1-.4-.9-.45-1.5v-.15l-.05-.2-.1.1-.3-1.65.05-.6.5 1.95v.1-.05l.8 2-.25-1.55-.05-.3-.1-1.7-.05.05v-.6q.35 2.35 1.35 4.4l.2.45.3.7m-1.3-.85V49l-.05.05.05.1m5 1.8l-.1-.2h-.1l.2.2" fill="url(#aR)"/><linearGradient id="aS" gradientUnits="userSpaceOnUse" gradientTransform="matrix(-.00714 .02094 -.00388 -.00235 61.3 30.5)" x1="-819.2" x2="819.2"><stop offset=".094" stop-color="#261e1c"/><stop offset=".494" stop-color="#725755"/><stop offset=".929" stop-color="#191514"/></linearGradient><path d="M70.95 31.1l.05.05h-.05v-.05" fill="url(#aS)"/><linearGradient id="aT" gradientUnits="userSpaceOnUse" gradientTransform="matrix(-.00122 -.01076 -.00217 .0007 52.75 46.05)" x1="-819.2" x2="819.2"><stop offset="0" stop-color="#070708"/><stop offset="1" stop-color="#25262a"/></linearGradient><path d="M65.3 21.35h.05q1.35-.65 2.55-.9l.35.05.55.05.2.05-.2.1h-.3l-.1.05-1.25.05-.7.25.1-.1-.25.1-.15.1-.55.4-.1.05-.05.05h-.05l-.05.05-.3.3-.4.35v-.4l.65-.6" fill="url(#aT)"/><linearGradient id="aU" gradientUnits="userSpaceOnUse" gradientTransform="matrix(-.00754 .0085 -.00284 -.00745 66.7 26.35)" x1="-819.2" x2="819.2"><stop offset="0"/><stop offset=".502" stop-color="#2f2523"/></linearGradient><path d="M68.9 24.5h-.05v-.05l.05.05m-4.25-1.8v-.05l.4-.65.3-.3.05-.05h.05l.05-.05.1-.05-.15.15-.05.05-.05.1-.7.9v-.05m1.65-1.65l.25-.1-.1.1-.3.3.1-.15.05-.15m-1.65 3.6l.7-.9.1-.05-.1.1-.65 1-.05.05v-.2m1.75-.75h.05l.1-.1v.05l-.15.1v-.05m3.85-2.9l-.15-.2.2.1-.05.1m-3.95 1.5l-.05.1v-.05l.05-.05" fill="url(#aU)"/><linearGradient id="aV" gradientUnits="userSpaceOnUse" gradientTransform="matrix(.00212 -.00044 -.00023 -.00342 67.55 21.7)" x1="-819.2" x2="819.2"><stop offset="0" stop-color="#322"/><stop offset=".443" stop-color="#674747"/><stop offset="1" stop-color="#141517"/></linearGradient><path d="M68.4 22.3q-.2.25-.95.4l-.3.25L67 23l-.7.55.6-.2h.1l.15-.05 1.1-.2h.4q-.2.05-.45.25l-.35.15-.7.35H67v-.05l-.15.1-1.25 1.2-.15.2-.75 1.1-.05.05V26l.3-.35-.15.3.5-.65.05-.05.05-.1.05-.05v-.05l.9-1.05.05-.05.15-.1v-.05l-.1.1h-.05l-.45.4-.5.55-.1.05-.25.4-.05.05v-.05l.3-.6.1-.05.05-.15.4-.55.15-.2-.25.2-.35.4-.1.05-.65.9-.05.05v-.5l.05-.05.65-.85.1-.05.1-.1.2-.2q.7-.6 1.25-.9l.15-.1q.4-.25.8-.3h.45m-1.95-1.25l.7-.25 1.25-.05.1.05.3.1.1.05.3.15.15.1.1.1.05.05h-.15l-.15.05-.4.05-.8.1.4.05.4.15.4.1-.4.05-1.25.3-.4.25-.15.05-.6.25-.55.55-.35.3v.05l-.05.05-.1.05-.7.9V22.8l.7-.7.05-.05h.05l.25-.3.45-.4.3-.3m-.2 1.55l.05-.1-.05.05-.05.05-.15.25.15-.2.05-.05" fill="url(#aV)"/><linearGradient id="aW" gradientUnits="userSpaceOnUse" gradientTransform="matrix(.00284 .02144 -.00346 .00093 55.3 44.7)" x1="-819.2" x2="819.2"><stop offset="0" stop-color="#140d0d"/><stop offset=".455" stop-color="#553939"/><stop offset="1" stop-color="#1b1212"/></linearGradient><path d="M64.65 22.35l.4-.35-.4.65v-.3" fill="url(#aW)"/><linearGradient id="aX" gradientUnits="userSpaceOnUse" gradientTransform="matrix(-.00153 -.01082 -.00273 .0006 49.65 45.45)" x1="-819.2" x2="819.2"><stop offset="0" stop-color="#070708"/><stop offset="1" stop-color="#25262a"/></linearGradient><path d="M63.35 23.55v-.35l.05-.1 1.25-1.15v.4l-.2.15-1.1 1.05m.25-.7l-.25.25v-.05l.25-.2" fill="url(#aX)"/><linearGradient id="aY" gradientUnits="userSpaceOnUse" gradientTransform="matrix(-.00948 .00812 -.00359 -.00758 67.15 26.45)" x1="-819.2" x2="819.2"><stop offset="0"/><stop offset=".502" stop-color="#2f2523"/></linearGradient><path d="M64.4 23.05l.25-.35v.05l-.1.2-.15.1" fill="url(#aY)"/><linearGradient id="aZ" gradientUnits="userSpaceOnUse" gradientTransform="matrix(.00266 -.00034 -.00029 -.00343 68.3 21.85)" x1="-819.2" x2="819.2"><stop offset="0" stop-color="#322"/><stop offset=".443" stop-color="#674747"/><stop offset="1" stop-color="#141517"/></linearGradient><path d="M64.65 24.85v.5l-.55 1.05-.05.15-.45.85-.15.35.25-.35.7-1 .25-.4v.45l-.15.25-.45.7-.25.4-.2.4-.05.1-.15.35-.05.2V25.7l.2-.4.35-.65-.5.65-.05.05v-1l.7-1 .35-.3.15-.1.1-.15v2.05" fill="url(#aZ)"/><linearGradient id="ba" gradientUnits="userSpaceOnUse" gradientTransform="matrix(.00359 .02158 -.00436 .00076 52.8 44.2)" x1="-819.2" x2="819.2"><stop offset="0" stop-color="#140d0d"/><stop offset=".455" stop-color="#553939"/><stop offset="1" stop-color="#1b1212"/></linearGradient><path d="M63.4 23.1l-.05.1v-.1l.25-.25v-.05l-.2.3m1-.05l-.35.3-.7 1v-.4l1.1-1.45.2-.15v.35l-.25.35m-.5 1.6l-.45.65-.1.15v-.1l.05-.05.5-.65" fill="url(#ba)"/><linearGradient id="bb" gradientUnits="userSpaceOnUse" gradientTransform="matrix(-.00215 .00874 -.0044 -.00291 65.4 32.9)" x1="-819.2" x2="819.2"><stop offset="0" stop-color="#261e1c"/><stop offset=".455" stop-color="#403a3a"/><stop offset="1" stop-color="#191514"/></linearGradient><path d="M64.7 24.8l.65-1 .1-.1.05-.05v-.05l.35-.3-.3.5-.1.1-.1.05-.65.85m1.5-2.15l-.15.2.15-.25.05-.05v.05l-.05.05" fill="url(#bb)"/><linearGradient id="bc" gradientUnits="userSpaceOnUse" gradientTransform="matrix(-.00575 .02094 -.00313 -.00235 61 32.55)" x1="-819.2" x2="819.2"><stop offset=".094" stop-color="#261e1c"/><stop offset=".412" stop-color="#624b49"/><stop offset=".929" stop-color="#191514"/></linearGradient><path d="M69.5 20.45h.05l-.05.05-.05.1h-.05l.05-.05.05-.05v-.05" fill="url(#bc)"/><linearGradient id="bd" gradientUnits="userSpaceOnUse" gradientTransform="matrix(-.00296 .00092 .00041 .00366 72.45 24.25)" x1="-819.2" x2="819.2"><stop offset="0" stop-color="#1e2126"/><stop offset=".506" stop-color="#2e343d"/><stop offset="1" stop-color="#0a0b0f"/></linearGradient><path d="M70.1 21.55l.3-.4.05.1.1-.1v.35l-.35.05h-.1m.1.2l.35-.2v.2h-.35" fill="url(#bd)"/><linearGradient id="be" gradientUnits="userSpaceOnUse" gradientTransform="matrix(.00212 -.00044 -.00023 -.00342 67.55 21.7)" x1="-819.2" x2="819.2"><stop offset="0" stop-color="#1e2126"/><stop offset=".506" stop-color="#292f36"/><stop offset="1" stop-color="#0a0b0f"/></linearGradient><path d="M67.95 23.95H68l-.05.05v-.05" fill="url(#be)"/><linearGradient id="bf" gradientUnits="userSpaceOnUse" gradientTransform="matrix(-.00072 -.0019 -.00417 .00395 68.15 26.55)" x1="-819.2" x2="819.2"><stop offset="0" stop-color="#543932"/><stop offset=".361" stop-color="#211916"/><stop offset="1" stop-color="#170e0f"/></linearGradient><path d="M67.15 26.3l.15.1-.15.05-.15.05q-.45.1-1.25.75l-.1.1-.2.2v.05l-.15.15-.3.45-.35.5v-.5l.3-.4.1-.1.25-.3.15-.2v-.05l.45-.4-.3.05-.1.05-.05.05h-.15l.15-.1.05-.05.2-.15.2-.25.45-.5.65-.5.15-.1.4-.3.2-.1h.05l.3.05.25-.05.25.05.2.05.4.1h.05l-.35-.55.3.25.15.15.1.05.05.1V25l-.05-.35-.05-.25.05.05.05.05.3.3-.3-.65q.15.05.3.25l.15.2.1.15-.1-.3v-.1l-.05-.2h.05l.35.6v-.15l-.05-.45.15.3.05.05.1.5v.3l-.15-.1.1.25v.05-.05l-.1-.1-.45-.4V25l.3.8v.05l-.3-.15-.1-.1v.2l.05.1-.4-.45-.05-.05-.1-.05-.15-.1-.1-.05.05.2.05.05v.05l.15.2.1.15v.05h-.1l-.15-.05-.2-.15.2.3.1.15-.1-.05-.35-.2-.05-.05-.25-.15.1.3h-.1l-.3-.15-.05.05.1.1h-.55l.15.25.1.15-.85-.1" fill="url(#bf)"/><radialGradient id="bg" gradientUnits="userSpaceOnUse" gradientTransform="matrix(-.00769 .00038 0 .012 64.35 28.7)" spreadMethod="pad" cx="0" cy="0" r="819.2" fx="0" fy="0"><stop offset="0" stop-color="#6d4231"/><stop offset=".973" stop-color="#824a36" stop-opacity=".243"/></radialGradient><path d="M70.5 26.3h.05v.15l-.05-.15m-5.85 2.4l.35-.5.3-.45.15-.15v-.05l.2-.2.1-.1q.8-.65 1.25-.75l.15-.05.15-.05-.15-.1.85.1h.2l-.15-.25v-.05l.35.1.3.25v-.25l.4.4v-.1l-.05-.3-.1-.1.1.05h.05l.05.05.05.05.15.1.1.1.05.05v.05l-.05-.05h-.1l-.15-.05v.25h-.15l-.25-.1-.2-.1h-.15l.1.05v.05h-.05l-.4-.05.2.15-.25.05-.55-.2h-.1l.15.2.25.1v.05h-.35l-.3.05H67l-.05-.05h-.1l.05.05-.15.15h-.15l-.4.25-.3.4-.05.05-.3.35-.1.15-.35.35-.45.6v-.55m5.3-2.6l.05.05-.05.05v-.1" fill="url(#bg)"/><linearGradient id="bh" gradientUnits="userSpaceOnUse" gradientTransform="matrix(.00296 .00848 -.0057 .00258 64.55 42.1)" x1="-819.2" x2="819.2"><stop offset="0" stop-color="#452e2e"/><stop offset=".463" stop-color="#7d5757"/><stop offset="1" stop-color="#493131"/></linearGradient><path d="M63.35 25.7v-.25l.1-.15.45-.65-.35.65-.2.4" fill="url(#bh)"/><radialGradient id="bi" gradientUnits="userSpaceOnUse" gradientTransform="matrix(-.00967 0 0 .012 64.25 28.7)" spreadMethod="pad" cx="0" cy="0" r="819.2" fx="0" fy="0"><stop offset="0" stop-color="#6d4231"/><stop offset=".973" stop-color="#824a36" stop-opacity=".243"/></radialGradient><path d="M63.55 30.7h-.05l.15-.4.05-.05.05-.05.3-.6.05-.1.15-.2.05-.05.35-.55v.55l-.35.6-.1.2-.1.15-.05.1-.2.4h-.3" fill="url(#bi)"/><linearGradient id="bj" gradientUnits="userSpaceOnUse" gradientTransform="matrix(-.0009 -.00192 -.00525 .00374 69.05 26.7)" x1="-819.2" x2="819.2"><stop offset="0" stop-color="#543932"/><stop offset=".361" stop-color="#211916"/><stop offset="1" stop-color="#170e0f"/></linearGradient><path d="M63.7 30.2l.25-.7v-.05l.1-.15.2-.55v-.05l.05-.1.35-.4v.5l-.35.55-.05.05-.15.2-.05.1-.3.6-.05.05v-.05" fill="url(#bj)"/><linearGradient id="bk" gradientUnits="userSpaceOnUse" gradientTransform="matrix(-.0036 .00008 -.00072 -.00284 76.35 22.7)" x1="-819.2" x2="819.2"><stop offset="0" stop-color="#140d0d"/><stop offset=".455" stop-color="#553939"/><stop offset="1" stop-color="#1b1212"/></linearGradient><path d="M75.6 22.3h-.2l-.05-.05-1.15-.15-1.9-.1v-.05l1.35-.2h.15l.7.1-.4-.2-.2-.1-.55-.15-.5-.15-.9-.15v-.05H72l2.2-.1 2.85.7-.4-.05-1.05-.2h-.1l.1.05 1.15.45.95.5v.6l-2.1-.7" fill="url(#bk)"/><linearGradient id="bl" gradientUnits="userSpaceOnUse" gradientTransform="matrix(-.00165 -.02078 -.0037 -.0003 87.5 43.9)" x1="-819.2" x2="819.2"><stop offset="0" stop-color="#140d0d"/><stop offset=".455" stop-color="#553939"/><stop offset="1" stop-color="#1b1212"/></linearGradient><path d="M76.75 21.9l-1.15-.45-.1-.05h.1l1.05.2.4.05.15.05.5.2v.5l-.95-.5m-1.15 1.15l-2.9-.4h1l-.75-.2h-.35v-.1l.1-.05h.45l.1-.05-.75-.15h-.1l-.1-.1 1.9.1 1.15.15.05.05h.2l2.1.7v.7l-2.1-.65m1.35 1.05h.15l.4-.05h.2v.5l-.75-.45m-2 1.5l.65.1.2.05h.2l.1.05h.75l-1.9-.75.2.05.45.1.4.05.1.05.65.1-.1-.05-.65-.3-.4-.1-.1-.05-1.1-.4h.45l-.3-.1-.55-.1.85-.05.75.05.4.05 1.1.3h.1l.5.15v1.8h-.05l-.05-.05h-.1l-.2-.1-.35-.15-.55-.15-.15-.05L76 26l-.4-.1-.25-.05-.4-.2v-.05m2.35 1.25l.2.05.2.1v.75l-.95-1.15.55.25m-.65-1.3v.05l.1-.05h-.1" fill="url(#bl)"/><linearGradient id="bm" gradientUnits="userSpaceOnUse" gradientTransform="matrix(-.00873 .00034 .00117 .00374 76.65 24.6)" x1="-819.2" x2="819.2"><stop offset="0" stop-color="#1e2126"/><stop offset=".506" stop-color="#2e343d"/><stop offset="1" stop-color="#0a0b0f"/></linearGradient><path d="M72.6 22.45v.1l-.3-.05v-.05h.3m-.2-.35l.1.05v.05l-.1-.05-.75-.1.3-.15h.35v.1l.1.1m-.2-.3h-.1l.1.05-1.2-.15v-.2h.15l-.15-.05v-.35l.45-.05.1.05.1.15.1.1.25.35.1.05.1.05" fill="url(#bm)"/><linearGradient id="bn" gradientUnits="userSpaceOnUse" gradientTransform="matrix(-.0101 .00026 .00136 .00374 77.2 24.55)" x1="-819.2" x2="819.2"><stop offset=".094" stop-color="#261e1c"/><stop offset=".412" stop-color="#483837"/><stop offset=".929" stop-color="#191514"/></linearGradient><path d="M74.95 25.65l-.1-.05h.1v.05M72.7 22.7h-.2l-.1-.05h.3v.05m-.85-1.65h.1v.05h-.2l.1-.05" fill="url(#bn)"/><linearGradient id="bo" gradientUnits="userSpaceOnUse" gradientTransform="matrix(-.02217 .00702 -.00838 -.008 59.55 25.55)" x1="-819.2" x2="819.2"><stop offset="0"/><stop offset=".502" stop-color="#2f2523"/></linearGradient><path d="M76 25.75v-.05l.1.1-.1-.05m-3.5-3.6l.1.1-.1-.05v-.05m-.4-.4h.2l-.1.05-.1-.05m.5 1v.05l-.1-.05h.1m4.15 2.8l-.1.05v-.05h.1m-3.2.2l-.2-.05v-.05l.2.1" fill="url(#bo)"/><linearGradient id="bp" gradientUnits="userSpaceOnUse" gradientTransform="matrix(-.0024 -.00044 .00113 -.00224 76.35 23.95)" x1="-819.2" x2="819.2"><stop offset="0" stop-color="#140d0d"/><stop offset=".455" stop-color="#553939"/><stop offset="1" stop-color="#1b1212"/></linearGradient><path d="M77.7 24.05h-.2l-.4.05h-.15l.75.45v.25l-.5-.15-.1-.05v.05l-.65-.3-.45-.15-.4-.1-.25-.05-1.55-.25v-.05h1.05v-.05l-1.15-.15h1.15l-.1-.05.85.1h.1v-.05h-.1l-1.95-.6-.5-.15-.45-.1v-.05l2.9.4 2.1.65v.35" fill="url(#bp)"/><linearGradient id="bq" gradientUnits="userSpaceOnUse" gradientTransform="matrix(-.0021 -.00203 -.0123 .00313 63.9 26)" x1="-819.2" x2="819.2"><stop offset="0" stop-color="#543932"/><stop offset=".361" stop-color="#211916"/><stop offset="1" stop-color="#170e0f"/></linearGradient><path d="M71.95 25.5v.1l.05.05.1.05.5.15v.05l.5.25-1.9-.65-.2-.1v-.45l.1.05.05-.55-.05-.35-.1-.2.15.2.1.3.1.45.3-.3.1-.2h.1l.1.5.15-.15-.15.8m.35-1.35l-.1.1v-.3l-.1-.7.3.25-.1.65" fill="url(#bq)"/><linearGradient id="br" gradientUnits="userSpaceOnUse" gradientTransform="matrix(-.00244 -.00204 -.01422 .00304 62.4 25.85)" x1="-819.2" x2="819.2"><stop offset="0" stop-color="#543932"/><stop offset=".361" stop-color="#211916"/><stop offset="1" stop-color="#170e0f"/></linearGradient><path d="M72.1 24.7l.1-.45.1-.1.1-.65.1.05v.05q.3.3.1.5l.55-.05-.2.1-.25.2-.4.3v.05h.1l.3-.1.55.05-.75.25 1.05.1-.5.05h-.55v.05l1.05.15.85.15v.05l-1.55-.15h-.25v.05h-.3l.75.35.4.2.1.15-.6-.2-.2-.05-.65-.2-.15-.1.15-.8" fill="url(#br)"/><linearGradient id="bs" gradientUnits="userSpaceOnUse" gradientTransform="matrix(-.00166 .00125 .00418 .00131 79.2 37.95)" x1="-819.2" x2="819.2"><stop offset="0" stop-color="#322632"/><stop offset="1" stop-color="#8e5e48"/></linearGradient><path d="M76 27.4l-.4-.2-.55-.45.95-.05.1.05v.05l.1.15 1.1 1.3-.2-.15-.25-.2-.1-.05q-.3-.1-.65-.35l-.1-.1" fill="url(#bs)"/><linearGradient id="bt" gradientUnits="userSpaceOnUse" gradientTransform="matrix(.00754 -.0195 .01028 .0016 79.3 38.1)" x1="-819.2" x2="819.2"><stop offset="0"/><stop offset=".502" stop-color="#2d2e32"/></linearGradient><path d="M77.7 26.65l-.05-.05h.05v.05" fill="url(#bt)"/><radialGradient id="bu" gradientUnits="userSpaceOnUse" gradientTransform="matrix(-.0262 -.00131 0 .012 49.45 27.2)" spreadMethod="pad" cx="0" cy="0" r="819.2" fx="0" fy="0"><stop offset="0" stop-color="#6d4231"/><stop offset=".973" stop-color="#824a36" stop-opacity=".243"/></radialGradient><path d="M71.85 26.75h-.1l.1-.15v-.05l.15.05.6.3-.3-.25-.15-.1-.15-.15-.05-.15H72l.95.5.2.1 1.05.65.2-.05-.4-.25v-.05l-.1-.05v-.05h.1l1.5.85.7.85-.6-.25-.75-.4-.35-.25.25.05-.75-.4-1.05-.6.3.45-.3-.15-1-.4-.1-.05" fill="url(#bu)"/><radialGradient id="bv" gradientUnits="userSpaceOnUse" gradientTransform="matrix(-.02263 -.00113 0 .012 52.7 27.45)" spreadMethod="pad" cx="0" cy="0" r="819.2" fx="0" fy="0"><stop offset="0" stop-color="#6d4231"/><stop offset=".973" stop-color="#824a36" stop-opacity=".243"/></radialGradient><path d="M71.95 26.8v.05l-.1-.1.1.05m-1.4-.65l-.3-.25.05-.05.7.3v.05l.1.05.05.05.4.15.3.15-.1.15-.6-.3.4.35-.15-.05-.25-.05-.15-.1v-.05h-.05v-.05l-.4-.35m0 .3v.2l-.15-.1-.05-.05-.35-.05v.1l-.05-.05-.15-.1h-.2l.05.25-.15-.1v-.4l.1.05.05.05v-.2l.15.1.15.1.05.05-.05-.1.05-.05h.25l.25.15.05.15" fill="url(#bv)"/><path d="M71.6 23.75h.05v.1l-.1.05.05-.15m-.2 1.3h.15l-.15.05v-.05m-.8-.7l.05-.1v.1h-.05m-.1-1.6l-.05-.2h.05v.2" fill="#545454"/><path d="M70.75 21.25h-.15l.05.3-.25-.4h.35l-.3-.55.2-.1.05.2-.05-.05-.05.1.15.4v.1m.3-.4l.65-.35.45.25-1.05.2-.05-.1m-.05.9l-.15-.35.15-.2.15-.05.15.25h-.35l.45.2-.35.15H71m.15.15l-.1-.1.4.1v.05l-.45.15.15-.2m-.2.7v-.05l.15.05-.15-.4.75.35-.35.25-.3.1-.1-.3m.35 1.6l.25.1-.45.15.2-.25m-.2.35l.65.3-.2.2-.3-.25-.15-.25m.3.55l-.15.05-.3.05.35.3v.05h-.2l-.1.1.25.2v.05l-1.85-1.05h.95q-.55-.8-1.15-.8l1.05-.05.35.35h.05l.05.1h-.2l-.3-.1h-.05l.25.4.05.25h-.5l.9.7-.05-.6.55-.05h.05v.05m-.9-1.25l-.35-.35v-.1h.3l.2.15-.5-.65-.2-.25.1-.05.45.2.1.2h-.25l.35.55-.05.1h-.25l.1.2m0-1.45l-.2-.25-.55-.4.75.1-.05.1.05.35v.1" fill="#383838"/><path d="M71.55 23.9L71 24l.3.2-.2.25h-.05l.05.1.15.25.3.25h-.2l-.55.05.05.6-.9-.7h.5l-.05-.25-.25-.4h.05l.3.1h.2l-.05-.1v-.15l-.15-.35-.1-.2h.25l.05-.1-.35-.55h.25l-.1-.2h.05l-.05-.05v-.2h.2l-.2-.15v-.1l-.05-.35.05-.1h.05l-.05-.05-.05-.2h.25l-.05-.05-.05-.3h.15v-.1l-.15-.4.05-.1.05.05h.05l.15.25.15-.1.05.1h-.15l.2.2-.15.05-.15.2.15.35h.05v.05l.1.1-.15.2-.15.05.1.05.15.4-.15-.05v.05l.1.3-.2.05.15.1.45.3-.35.2q.05.1.5.2l-.05.15" fill="#636363"/><linearGradient id="bw" gradientUnits="userSpaceOnUse" gradientTransform="matrix(-.00453 .00122 .00018 .00067 65.45 20.45)" x1="-819.2" x2="819.2"><stop offset="0" stop-color="#d2d9d4" stop-opacity="0"/><stop offset=".463" stop-color="#d7e0de" stop-opacity=".251"/><stop offset=".914" stop-color="#d2d9d4" stop-opacity="0"/></linearGradient><path d="M66.2 23.25l-.1.05h-.05l.15-.05" fill="url(#bw)"/><linearGradient id="bx" gradientUnits="userSpaceOnUse" gradientTransform="matrix(-.0038 .00102 .00018 .00067 65.45 20.45)" x1="-819.2" x2="819.2"><stop offset="0" stop-color="#d2d9d4" stop-opacity="0"/><stop offset=".463" stop-color="#d7e0de" stop-opacity=".4"/><stop offset=".914" stop-color="#d2d9d4" stop-opacity="0"/></linearGradient><path d="M65.1 24.7h-.05.05m-2.7 1.4h.05-.05" fill="url(#bx)"/><linearGradient id="by" gradientUnits="userSpaceOnUse" gradientTransform="matrix(-.00453 .00122 .00018 .00067 65.45 20.45)" x1="-819.2" x2="819.2"><stop offset="0" stop-color="#3d3231" stop-opacity=".302"/><stop offset=".447" stop-color="#c2a198" stop-opacity=".302"/><stop offset=".976" stop-color="#26181f" stop-opacity=".302"/></linearGradient><path d="M67.95 21.5l-.75.15h.9l-1.95.5-.3.1q-1.3.45-2.65 1.25.65-.65 2.15-1.4l.8-.35q1.5-.6 2.45-.45l-.65.2m-1.75 1.7l.6-.45v-.05h-.15l-.5.2-.6.2-1.2.45-.05-.05 1.85-.95.15-.05 1.2-.45.55-.15.7.1.8-.05-1.25.2-1.2.35.95.05h.35l.25-.05h.6l-.55.1h-.45l-.6.15q-1.15.3-1.45.5v-.05" fill="url(#by)"/><linearGradient id="bz" gradientUnits="userSpaceOnUse" gradientTransform="matrix(-.0038 .00102 .00018 .00067 65.45 20.45)" x1="-819.2" x2="819.2"><stop offset="0" stop-color="#3d3231" stop-opacity=".302"/><stop offset=".447" stop-color="#c2a198" stop-opacity=".302"/><stop offset=".976" stop-color="#26181f" stop-opacity=".302"/></linearGradient><path d="M65.6 24.2q-.45.1-3.15 1.9 2.2-2 3.35-2.45l.4-.15 1.65-.45.65-.05-1.7.45-.6.2-.6.45.6-.05.35-.05.5.05-.8.2-.5.15-.65.3.5-.5m.85.3q1.1-.5 1.75-.55l-.5.2q-1 .35-1.25.55h.2l.35-.05h.45l-1 .5-.15.1-.9.5.4-.35.5-.4.05-.05v-.05h-.05l-1.05.5-1.3.65-.05-.05q1-.8 2.35-1.4l.2-.1" fill="url(#bz)"/><linearGradient id="bA" gradientUnits="userSpaceOnUse" gradientTransform="matrix(.0017 0 0 .00046 74.85 21.05)" x1="-819.2" x2="819.2"><stop offset="0" stop-color="#3d3130" stop-opacity=".153"/><stop offset=".475" stop-color="#c2a198" stop-opacity=".302"/><stop offset="1" stop-color="#26181f" stop-opacity=".302"/></linearGradient><path d="M74 20.7l1.25.25q.65.15 1 .45v.05l-2.8-.6v-.1l.55-.05" fill="url(#bA)"/><linearGradient id="bB" gradientUnits="userSpaceOnUse" gradientTransform="matrix(.00201 0 0 .0004 74.95 21.7)" x1="-819.2" x2="819.2"><stop offset="0" stop-color="#3d3130" stop-opacity=".153"/><stop offset=".475" stop-color="#c2a198" stop-opacity=".302"/><stop offset="1" stop-color="#26181f" stop-opacity=".302"/></linearGradient><path d="M73.3 21.5q2.65-.35 3.3.5l-.05.05-.5-.3-.85-.1-1.8-.1-.1-.05" fill="url(#bB)"/><linearGradient id="bC" gradientUnits="userSpaceOnUse" gradientTransform="matrix(.00247 0 0 .0008 75.15 23.3)" x1="-819.2" x2="819.2"><stop offset="0" stop-color="#3d3130" stop-opacity=".153"/><stop offset=".475" stop-color="#c2a198" stop-opacity=".302"/><stop offset="1" stop-color="#26181f" stop-opacity=".302"/></linearGradient><path d="M73.15 22.8v-.15h.45l1.85.35.95.35.8.5-.05.1q-1.3-.85-3.9-1.1l-.1-.05" fill="url(#bC)"/><linearGradient id="bD" gradientUnits="userSpaceOnUse" gradientTransform="matrix(.00156 0 0 .0003 75.1 22.75)" x1="-819.2" x2="819.2"><stop offset="0" stop-color="#3d3130" stop-opacity=".153"/><stop offset=".475" stop-color="#c2a198" stop-opacity=".302"/><stop offset="1" stop-color="#26181f" stop-opacity=".302"/></linearGradient><path d="M73.85 22.6l.2-.1h.45l1.2.2.7.3-.85-.25-1.65-.1-.05-.05" fill="url(#bD)"/><linearGradient id="bE" gradientUnits="userSpaceOnUse" gradientTransform="matrix(.00198 0 0 .0004 74.95 22.35)" x1="-819.2" x2="819.2"><stop offset="0" stop-color="#3d3130" stop-opacity=".153"/><stop offset=".475" stop-color="#c2a198" stop-opacity=".302"/><stop offset="1" stop-color="#26181f" stop-opacity=".302"/></linearGradient><path d="M74.4 22.05q1.3 0 2.2.45v.15l-.1.05-3.05-.45-.1-.05.1-.15h.95" fill="url(#bE)"/><linearGradient id="bF" gradientUnits="userSpaceOnUse" gradientTransform="matrix(.0017 0 0 .00034 75.45 23.7)" x1="-819.2" x2="819.2"><stop offset="0" stop-color="#3d3130" stop-opacity=".153"/><stop offset=".475" stop-color="#c2a198" stop-opacity=".302"/><stop offset="1" stop-color="#26181f" stop-opacity=".302"/></linearGradient><path d="M74.05 23.45l2.8.55-2.8-.45v-.1" fill="url(#bF)"/><linearGradient id="bG" gradientUnits="userSpaceOnUse" gradientTransform="matrix(.0017 0 0 .00043 75.55 24.6)" x1="-819.2" x2="819.2"><stop offset="0" stop-color="#3d3130" stop-opacity=".153"/><stop offset=".475" stop-color="#c2a198" stop-opacity=".302"/><stop offset="1" stop-color="#26181f" stop-opacity=".302"/></linearGradient><path d="M76.4 24.7v-.05l.55.25-.15.05-.85-.35.45.1m-1.8-.35l-.3.05-.15-.05.25-.05.2.05" fill="url(#bG)"/><linearGradient id="bH" gradientUnits="userSpaceOnUse" gradientTransform="matrix(.00131 0 0 .00037 75.3 24.4)" x1="-819.2" x2="819.2"><stop offset="0" stop-color="#3d3130" stop-opacity=".153"/><stop offset=".475" stop-color="#c2a198" stop-opacity=".302"/><stop offset="1" stop-color="#26181f" stop-opacity=".302"/></linearGradient><path d="M75.95 24.6l-.3-.05-1.05-.2-.2-.05-.15-.1q.7-.2 1.3 0l.85.4v.1l-.45-.1" fill="url(#bH)"/><linearGradient id="bI" gradientUnits="userSpaceOnUse" gradientTransform="matrix(.00186 0 0 .00061 75.5 25.2)" x1="-819.2" x2="819.2"><stop offset="0" stop-color="#3d3130" stop-opacity=".153"/><stop offset=".475" stop-color="#c2a198" stop-opacity=".302"/><stop offset="1" stop-color="#26181f" stop-opacity=".302"/></linearGradient><path d="M74.05 24.7l1.75.3q.6.05 1.2.65l.05.05-1.35-.5-.9-.1q-.6-.05-.8-.4h.05" fill="url(#bI)"/><linearGradient id="bJ" gradientUnits="userSpaceOnUse" gradientTransform="matrix(.0018 0 0 .00037 74.9 21.9)" x1="-819.2" x2="819.2"><stop offset="0" stop-color="#3d3130" stop-opacity=".153"/><stop offset=".475" stop-color="#c2a198" stop-opacity=".302"/><stop offset="1" stop-color="#26181f" stop-opacity=".302"/></linearGradient><path d="M73.45 21.6l2.95.55-.4.05-2.55-.5v-.1" fill="url(#bJ)"/><linearGradient id="bK" gradientUnits="userSpaceOnUse" gradientTransform="matrix(.00165 0 0 .0007 75.6 25.85)" x1="-819.2" x2="819.2"><stop offset="0" stop-color="#3d3130" stop-opacity=".153"/><stop offset=".475" stop-color="#c2a198" stop-opacity=".302"/><stop offset="1" stop-color="#26181f" stop-opacity=".302"/></linearGradient><path d="M76.9 26.45q-1.45-.9-2.65-1.05v-.1l1.45.35q1.05.4 1.25.75l-.05.05" fill="url(#bK)"/><linearGradient id="bL" gradientUnits="userSpaceOnUse" gradientTransform="matrix(.00284 0 0 .00125 75.4 21.5)" x1="-819.2" x2="819.2"><stop offset="0" stop-color="#3d3130" stop-opacity=".153"/><stop offset=".475" stop-color="#c2a198" stop-opacity=".302"/><stop offset="1" stop-color="#26181f" stop-opacity=".302"/></linearGradient><path d="M77.75 22.05l-1.85-.95 1.35 1.45Q74.85 21 73.1 21.3l1.95-.25-1.4-.5q1.25-.2 2.65.4l1.45 1.1" fill="url(#bL)"/><linearGradient id="bM" gradientUnits="userSpaceOnUse" gradientTransform="matrix(.00262 0 0 .0017 75.55 23.2)" x1="-819.2" x2="819.2"><stop offset="0" stop-color="#3d3130" stop-opacity=".153"/><stop offset=".475" stop-color="#c2a198" stop-opacity=".302"/><stop offset="1" stop-color="#26181f" stop-opacity=".302"/></linearGradient><path d="M75.75 22.95q1.35 1.05 1.7 1.65-2.1-1.65-3.95-2l1.6-.2-1.7-.6q2.95.15 4.3 1.95-1.3-1-1.95-.8" fill="url(#bM)"/><linearGradient id="bN" gradientUnits="userSpaceOnUse" gradientTransform="matrix(.00368 -.00038 .00046 .00427 76.4 26.9)" x1="-819.2" x2="819.2"><stop offset="0" stop-color="#3d3130" stop-opacity=".153"/><stop offset=".475" stop-color="#c2a198" stop-opacity=".302"/><stop offset="1" stop-color="#26181f" stop-opacity=".302"/></linearGradient><path d="M73.25 24.85l1.55.15-1.65-1.3q2 .1 3.7 1.6 2.15 1.9 2.95 4.75-1.45-2.8-2.85-3.95l1.15 2.35q-2.35-3.1-4.85-3.6" fill="url(#bN)"/><linearGradient id="bO" gradientUnits="userSpaceOnUse" gradientTransform="matrix(-.00296 -.00014 .0001 -.00243 69.35 21.2)" x1="-819.2" x2="819.2"><stop offset="0" stop-color="#3d3130" stop-opacity=".224"/><stop offset=".486" stop-color="#e8ddda" stop-opacity=".38"/><stop offset="1" stop-color="#26181e" stop-opacity=".231"/></linearGradient><path d="M72 21.05l.1.1q.2.2-.1.3v-.4" fill="url(#bO)"/><linearGradient id="bP" gradientUnits="userSpaceOnUse" gradientTransform="matrix(-.00282 .00089 -.00072 -.0023 66.8 21.75)" x1="-819.2" x2="819.2"><stop offset="0" stop-color="#3d3130" stop-opacity=".224"/><stop offset=".486" stop-color="#e8ddda" stop-opacity=".38"/><stop offset="1" stop-color="#26181e" stop-opacity=".231"/></linearGradient><path d="M64.8 23.8l.7-.8q.4-.4 1.35-.8 1.1-.45 1.65-.25l.05.1-.1.1-1.15.3q-1.4.5-1.9.85l-.55.5h-.05m-.05-1.4l.7-.45q.65-.4 2.05-.9l1.75-.3.1.35-.75.4-2.7.75-.85.5-.25-.15-.05-.2m3.75.2l-2.25 1.35-.95.9q-.1-.25.3-.8.7-.8 2.35-1.4l.55-.05" fill="url(#bP)"/><linearGradient id="bQ" gradientUnits="userSpaceOnUse" gradientTransform="matrix(.00183 0 0 .00064 75.65 21.95)" x1="-819.2" x2="819.2"><stop offset="0" stop-color="#3d3130" stop-opacity=".224"/><stop offset=".486" stop-color="#e8ddda" stop-opacity=".38"/><stop offset="1" stop-color="#26181e" stop-opacity=".231"/></linearGradient><path d="M74.15 21.65l1.5-.05q1.5.3 1.5.65l-.25.25-2.7-.7-.05-.15" fill="url(#bQ)"/><linearGradient id="bR" gradientUnits="userSpaceOnUse" gradientTransform="matrix(.00198 0 0 .00076 75.85 23.25)" x1="-819.2" x2="819.2"><stop offset="0" stop-color="#3d3130" stop-opacity=".224"/><stop offset=".486" stop-color="#e8ddda" stop-opacity=".38"/><stop offset="1" stop-color="#26181e" stop-opacity=".231"/></linearGradient><path d="M74.7 22.5l1.65.3q1.15.45 1.15.8 0 .35-1.3 0l-1.9-.65-.05-.15q0-.15.45-.3" fill="url(#bR)"/><linearGradient id="bS" gradientUnits="userSpaceOnUse" gradientTransform="matrix(.00204 0 0 .00082 76.05 24.7)" x1="-819.2" x2="819.2"><stop offset="0" stop-color="#3d3130" stop-opacity=".224"/><stop offset=".486" stop-color="#e8ddda" stop-opacity=".38"/><stop offset="1" stop-color="#26181e" stop-opacity=".231"/></linearGradient><path d="M74.4 24.05l1.95.35q1 .35 1.4.9l-.15.1-1.35-.5-1.8-.65-.05-.2" fill="url(#bS)"/><linearGradient id="bT" gradientUnits="userSpaceOnUse" gradientTransform="matrix(.00378 0 0 .01343 83.9 39.75)" x1="-819.2" x2="819.2"><stop offset="0" stop-color="#503838"/><stop offset=".471" stop-color="#8c6565"/><stop offset=".976" stop-color="#4a3434"/></linearGradient><path d="M86.9 44.7q-.15 5.3-6.1 6.05v-.1q5.9-.35 5.9-7.95 0-2.7-.65-5.2l-.1-.35-.3-1.2-.45-1.55q-.5-2-1.8-5.4 1.55 3.15 2.55 6.75 1.05 3.65.95 8.95" fill="url(#bT)"/><linearGradient id="bU" gradientUnits="userSpaceOnUse" gradientTransform="matrix(.0044 0 0 .01053 57.25 42.95)" x1="-819.2" x2="819.2"><stop offset="0" stop-color="#503838"/><stop offset=".471" stop-color="#8c6565"/><stop offset=".976" stop-color="#4a3434"/></linearGradient><path d="M54.85 37.15L54.5 40l-.5 3.2-.05 2.45q0 2.25.75 3.25 1.5 2 6.15 2.65l-1.05.05q-3.25 0-4.95-2.05-1.2-1.4-1.2-2.65 0-3.6.45-6.85.65-4.4 1.9-5.7h.35q-1.15 1.1-1.5 2.8" fill="url(#bU)"/><linearGradient id="bV" gradientUnits="userSpaceOnUse" gradientTransform="matrix(.0033 0 0 .008 82 29.4)" x1="-819.2" x2="819.2"><stop offset="0" stop-color="#503838"/><stop offset=".471" stop-color="#8c6565"/><stop offset=".976" stop-color="#4a3434"/></linearGradient><path d="M83.4 29.5q-1.25-3.65-4.1-6.5l.05-.15q3.05 2.6 4.25 6.4.6 2 1.1 6.65l-.1.05q-.45-4.2-1.2-6.45" fill="url(#bV)"/><linearGradient id="bW" gradientUnits="userSpaceOnUse" gradientTransform="matrix(.0065 0 0 .01685 81.85 35.05)" x1="-819.2" x2="819.2"><stop offset="0" stop-color="#503838"/><stop offset=".471" stop-color="#8c6565"/><stop offset=".976" stop-color="#4a3434"/></linearGradient><path d="M86.8 46.2l.2-2.35q0-6.25-2.1-12.5-2.9-8.65-8.35-10.1Q82 22.4 85 31.25q2.2 6.5 2.2 12.55l-.2 2.45q-.3 1.1-1.5 2.6l-.05-.05 1.35-2.6" fill="url(#bW)"/><linearGradient id="bX" gradientUnits="userSpaceOnUse" gradientTransform="matrix(.00024 0 0 .00018 78.45 21.5)" x1="-819.2" x2="819.2"><stop offset="0" stop-color="#503838"/><stop offset=".471" stop-color="#8c6565"/><stop offset=".976" stop-color="#4a3434"/></linearGradient><path d="M78.65 21.6l-.05.05-.35-.25.05-.05.35.25" fill="url(#bX)"/><linearGradient id="bY" gradientUnits="userSpaceOnUse" gradientTransform="matrix(.00772 0 0 .01141 61.2 29.8)" x1="-819.2" x2="819.2"><stop offset="0" stop-color="#503838"/><stop offset=".471" stop-color="#8c6565"/><stop offset=".976" stop-color="#4a3434"/></linearGradient><path d="M56.8 32.1l.65-1.3.8-1.7 1.05-2.05 2.05-2.45-1.2 1.15 1-1.2q2.4-2.5 6.4-4.1-3.6 1.85-6.05 4.4-2.2 2.25-3.1 4.65l-.05.1-2.3 4.75-.05.1.8-2.35m-1.05 2.85h.05q-1.1 2.55-.75 4.2h-.1L54.9 38q0-1.8 1.45-5.1l.05-.05-.65 2.1" fill="url(#bY)"/><linearGradient id="bZ" gradientUnits="userSpaceOnUse" gradientTransform="matrix(.00342 0 0 .00632 58.55 29.75)" x1="-819.2" x2="819.2"><stop offset="0" stop-color="#503838"/><stop offset=".471" stop-color="#8c6565"/><stop offset=".976" stop-color="#4a3434"/></linearGradient><path d="M56.4 32.85v-.1l.05-.1.2-.65.9-2.35q1-2.2 2.6-3.9l1.2-1.15-2.05 2.45-1.6 2.75-.65 1.65-.25.65-.8 2.35-.15.5h-.1l.65-2.1" fill="url(#bZ)"/><linearGradient id="ca" gradientUnits="userSpaceOnUse" gradientTransform="matrix(.0046 0 0 .0134 57.15 40.35)" x1="-819.2" x2="819.2"><stop offset="0" stop-color="#503838"/><stop offset=".471" stop-color="#8c6565"/><stop offset=".976" stop-color="#4a3434"/></linearGradient><path d="M56.45 32.65l-.3.65q-1.25 2.5-1.55 3.3-1 2.8-1 6.7 0 2.9.8 4.2 1.5 2.5 6.5 3.75l.05.1q-5.3-1.15-6.85-3.75-.7-1.2-.7-4.25 0-3.85 1.05-6.9.75-2.15 2.2-4.45l-.2.65m.6-1.2l.4-.65-.65 1.3.25-.65" fill="url(#ca)"/><linearGradient id="cb" gradientUnits="userSpaceOnUse" gradientTransform="matrix(0 .00867 -.01209 -.00002 80.85 39.5)" x1="-819.2" x2="819.2"><stop offset="0" stop-color="#fff" stop-opacity="0"/><stop offset=".506" stop-color="#fff" stop-opacity=".271"/><stop offset="1" stop-color="#fff" stop-opacity="0"/></linearGradient><path d="M81.15 35.5q-.5-2.95-1.6-5.9l1.3 2.6.65 4.65-.35-1.35m-1.1 13.25l-.3.65.15-.4.2-.45-.05.2" fill="url(#cb)"/><linearGradient id="cc" gradientUnits="userSpaceOnUse" gradientTransform="matrix(.00534 0 0 .0021 69.35 21.45)" x1="-819.2" x2="819.2"><stop offset="0" stop-color="#2c2e32"/><stop offset=".502" stop-color="#7a6967"/><stop offset="1" stop-color="#34363c"/></linearGradient><path d="M65.1 23q.5-1 1.2-1.65 1.7-1.6 4.35-1.6l2.2.4q.7.3.9.7l-.05.1q-.25-.4-.95-.65l-2.1-.4q-1.9 0-3.45.95-1.4.9-2.15 2.35H65l.1-.2" fill="url(#cc)"/><linearGradient id="cd" gradientUnits="userSpaceOnUse" gradientTransform="matrix(.00116 0 0 .00113 64.15 23.9)" x1="-819.2" x2="819.2"><stop offset="0" stop-color="#2c2e32"/><stop offset=".502" stop-color="#7a6967"/><stop offset="1" stop-color="#34363c"/></linearGradient><path d="M65.1 23q-1.6 1.45-1.85 1.85h-.05l.9-1 1-.85" fill="url(#cd)"/><linearGradient id="ce" gradientUnits="userSpaceOnUse" gradientTransform="matrix(.00418 0 0 .0032 63.8 50.05)" x1="-819.2" x2="819.2"><stop offset="0" stop-color="#2c2e32"/><stop offset=".502" stop-color="#7a6967"/><stop offset="1" stop-color="#34363c"/></linearGradient><path d="M60.55 47.45q.8 1.9 1.7 2.8 1.7 1.7 5 2.45-3.5-.55-5.2-2.3-1.05-1.05-1.65-2.95h.15" fill="url(#ce)"/><linearGradient id="cf" gradientUnits="userSpaceOnUse" gradientTransform="matrix(.00043 .0081 -.0011 .00006 83.45 38.75)" x1="-819.2" x2="819.2"><stop offset="0" stop-color="#fff" stop-opacity="0"/><stop offset=".459" stop-color="#fff" stop-opacity=".2"/><stop offset="1" stop-color="#fff" stop-opacity="0"/></linearGradient><path d="M84.5 40.7q-.1 2.75-.6 4.65.2-1.9.05-4.15-.25 3.3-1 4.25 1.2-4.05-.6-13.3l1.55 6.9-.35-5q.75 3.2.9 6.35l.05.3" fill="url(#cf)"/><linearGradient id="cg" gradientUnits="userSpaceOnUse" gradientTransform="matrix(.00055 .0103 -.0018 .0001 80.85 39.4)" x1="-819.2" x2="819.2"><stop offset="0" stop-color="#fff" stop-opacity="0"/><stop offset=".459" stop-color="#fff" stop-opacity=".2"/><stop offset="1" stop-color="#fff" stop-opacity="0"/></linearGradient><path d="M81.75 39.2q-.25 4.75-2 8.7 2.05-5.9 1.1-12.65L79.75 31q1.15 2.4 1.85 6.55.1-2.7-1.05-7.85 2.7 5.2 2.2 11.5l-.8-5.3.25 2.55q.35 4.4-.4 6.85.6-2.95-.05-6.1" fill="url(#cg)"/><linearGradient id="ch" gradientUnits="userSpaceOnUse" gradientTransform="matrix(.00034 .00627 -.00073 .00005 85.05 39)" x1="-819.2" x2="819.2"><stop offset="0" stop-color="#fff" stop-opacity="0"/><stop offset=".459" stop-color="#fff" stop-opacity=".2"/><stop offset="1" stop-color="#fff" stop-opacity="0"/></linearGradient><path d="M85.55 40.45q-.2 2.15-.75 3.7.55-4-.6-10.3 1 2.7 1.45 5.5l-.1 1.1" fill="url(#ch)"/><linearGradient id="ci" gradientUnits="userSpaceOnUse" gradientTransform="matrix(.00038 .00679 -.01477 .00084 61.8 40.85)" x1="-819.2" x2="819.2"><stop offset="0" stop-color="#fff" stop-opacity="0"/><stop offset=".459" stop-color="#fff" stop-opacity=".2"/><stop offset="1" stop-color="#fff" stop-opacity="0"/></linearGradient><path d="M58.9 34.25q1.8-6 5.25-9.7-5.85 8.8-4.9 16.65l.2 1.3-.05-1.25q-.05-2.65.45-5.1-.2 2.7.3 5.15l.4 1.85-.25-1.8q-.35-3.7.55-7.15-.3 3.8.2 7.2.55 3.75 2.05 7-2-2.55-3.15-5.45.6 2.85 2 5.85-2-2.7-3.3-6.05l-.3-1.65q-.35-3.05.35-6l.2-.85" fill="url(#ci)"/><linearGradient id="cj" gradientUnits="userSpaceOnUse" gradientTransform="matrix(.00035 .00655 -.00107 .00006 55.55 42)" x1="-819.2" x2="819.2"><stop offset="0" stop-color="#fff" stop-opacity="0"/><stop offset=".459" stop-color="#fff" stop-opacity=".2"/><stop offset="1" stop-color="#fff" stop-opacity="0"/></linearGradient><path d="M55.8 40.15q-.05 4.05.85 7.1-1-2-1.2-4.45-.15 2.6.55 4.55-1.7-3.5-1.25-7.35.15-1.65.75-3.35-.35 1.7-.45 3.4l.05 1.9q0-1 .15-1.9.2-1.45.7-2.7-.15 1.45-.15 2.8" fill="url(#cj)"/><linearGradient id="ck" gradientUnits="userSpaceOnUse" gradientTransform="matrix(-.00008 .01035 -.00168 -.00002 57.65 40.85)" x1="-819.2" x2="819.2"><stop offset="0" stop-color="#fff" stop-opacity="0"/><stop offset=".459" stop-color="#fff" stop-opacity=".2"/><stop offset="1" stop-color="#fff" stop-opacity="0"/></linearGradient><path d="M56.95 42.3l-.05-1.4q0-3.95 2.1-7.75-1.8 3.7-1.65 7.85.1 3.05 1.2 6.35l-1.5-4.1q.5 3.75 1.5 6.05-2.15-4.5-2.35-8.55-.2-4.45 1.9-8.35-1.7 4.25-1.3 8.5l.15 1.4" fill="url(#ck)"/></g></svg>