<svg xmlns="http://www.w3.org/2000/svg" width="29" height="78"><g transform="translate(-56.5 -16.2)"><linearGradient id="a" gradientUnits="userSpaceOnUse" gradientTransform="matrix(0 .00789 -.15 0 84.6 66.7)" x1="-819.2" x2="819.2"><stop offset="0" stop-color="#41231c"/><stop offset=".267" stop-color="#5d382d"/><stop offset=".357" stop-color="#835544"/><stop offset=".494" stop-color="#663f32"/><stop offset="1" stop-color="#502f25"/></linearGradient><path d="M81.2 68.95l-1.2 2.4h-.1l1-2.5q.4-1.1.4-2.25 0-1.25-.85-2.9l-.8-1.55.05-.1v.05q1.1 1.2 1.5 2.3l.3 2.2-.3 2.35" fill="url(#a)"/><linearGradient id="b" gradientUnits="userSpaceOnUse" gradientTransform="matrix(.0048 -.0048 .00198 .00198 58.45 67.4)" x1="-819.2" x2="819.2"><stop offset="0" stop-color="#41231c"/><stop offset=".357" stop-color="#835544"/><stop offset="1" stop-color="#512920"/><stop offset="1" stop-color="#693227"/><stop offset="1" stop-color="#472513"/></linearGradient><path d="M81.45 84.85l.1-.4q0-3.25-1.75-6.1l-1.2-1.85q-.55-.8-.55-1.25v-.55h.15q.7 1.6 2.35 4.2 1.2 2.25 1.2 4.1l-.05 1.05-.3 1.1.05-.3m-4.95-9.8l.15.2.05.35-.55 1.2L75 78.75q-1.65 2.95-1.65 5.6l.1.65.15.55.05-.15L75.2 82l.05.3q-.65 1.15-1.4 3.45-.85 2-2.65 3.3l-.05-.1q1.35-1.25 2.4-3.3l-.35-.85-.1-1.1q0-2.1 1.4-4.6l1.1-2 .8-2 .1-.05" fill="url(#b)"/><linearGradient id="c" gradientUnits="userSpaceOnUse" gradientTransform="matrix(.00504 .00504 -.00311 .00311 77.9 88.4)" x1="-819.2" x2="819.2"><stop offset="0" stop-color="#41231c"/><stop offset=".667" stop-color="#b68471"/></linearGradient><path d="M81.35 87.45q-.55-.2-1.05-1.4-.45-.95-.45-1.3l-.2-1.25-.15-1.25.05-2h.1l.3 3.55q.3 2.2 1.45 3.6l-.05.05m-3.15-1.4q.15 1 .75 2.2l1.5 2.2v.1q-.55-.1-1.35-1.35-.7-1.15-.7-1.6l-.2-.3-.15-.4v-.45l.05-.4h.1m-.6.45v1.6l-.05 1.15q0 1.3.15 2 .25 1.5 1.1 1.55l-.2.05q-.9 0-1.2-1.1l-.1-.8v-.35l.2-4.1h.1" fill="url(#c)"/><linearGradient id="d" gradientUnits="userSpaceOnUse" gradientTransform="matrix(.00237 -.00237 .00198 .00198 72.1 56.95)" x1="-819.2" x2="819.2"><stop offset="0" stop-color="#41231c"/><stop offset=".357" stop-color="#835544"/><stop offset="1" stop-color="#43231c"/><stop offset="1" stop-color="#693227"/><stop offset="1" stop-color="#472513"/></linearGradient><path d="M80.25 51.2h.1l.05.15.4 1.85.2 1.7-.25 1.2-.6.7q.65-1 .65-2.85l-.3-1.2-.3-.9.05-.5v-.15m-1.2 3.95q.7.75 1.2 2.15.45 1.35.5 2.2l-.15 2.05v-.05q.15-1.55-.3-3.15-.45-1.7-1.4-3.15l.15-.05" fill="url(#d)"/><linearGradient id="e" gradientUnits="userSpaceOnUse" gradientTransform="matrix(0 0 0 0 78.2 86.05)" x1="-819.2" x2="819.2"><stop offset="0" stop-color="#915133"/><stop offset="1" stop-color="#d0957b"/></linearGradient><path d="M78.95 51.25v-.05h.15l-.1.1-.05-.05" fill="url(#e)"/><linearGradient id="f" gradientUnits="userSpaceOnUse" gradientTransform="matrix(-.004 .00284 -.00162 -.00229 75 63.05)" x1="-819.2" x2="819.2"><stop offset="0" stop-color="#41231c"/><stop offset=".357" stop-color="#835544"/></linearGradient><path d="M74.15 54.5l-.5 2q-.55 1.95.1 3-.65-.5-.75-1.6-.1-1.1.25-1.95l.85-1.7.05.05v.2m-.55 7.35q-.2.7-.1 1.5.05.75.35 1.3l.45.6-.8-.75-.4-1.05q-.15-.65.35-2.5t1.3-3.35h.1l.05.3q-.6 1.55-1.3 3.95" fill="url(#f)"/><linearGradient id="g" gradientUnits="userSpaceOnUse" gradientTransform="matrix(0 0 0 0 29.2 11.3)" x1="-819.2" x2="819.2"><stop offset="0" stop-color="#41231c"/><stop offset=".357" stop-color="#835544"/></linearGradient><path d="M75.35 69.45l-.45 1.2q-.5.95-.55 2.05-.05 1.15.35 2.2l-.6-1.5-.15-1.1.25-1.45q.4-1.05 1.1-1.55l.05-.05v.2" fill="url(#g)"/><linearGradient id="h" gradientUnits="userSpaceOnUse" gradientTransform="matrix(0 0 0 0 47.45 1.35)" x1="-819.2" x2="819.2"><stop offset="0" stop-color="#41231c"/><stop offset=".357" stop-color="#835544"/></linearGradient><path d="M74.6 74.1l.05-1.2.15-.9q.25-.8.75-1.5.6-.95 1.45-1.2v-.05.2l-.75.9q-.7.7-.95 1.3-.4.9-.7 2.45" fill="url(#h)"/><linearGradient id="i" gradientUnits="userSpaceOnUse" gradientTransform="matrix(.00288 .00288 -.00313 .00313 78.75 52.25)" x1="-819.2" x2="819.2"><stop offset="0" stop-color="#150909"/><stop offset=".518" stop-color="#3a221c"/><stop offset="1" stop-color="#1b0d0c"/></linearGradient><path d="M79.75 50.15l.35.95.35 2.05v.15l-.2-.25.05.75-.05.8-.1.4-.1.4-.5-.4-.3-.3.2.3.4.8-.25-.15-.05-.05-.1-.1-.1-.15-.3-.35-.3-.35-.1-.15-.9-.95-.65-.75-.2-.35-.5-1.25.4.55.55.65-.2-.6-.1-.55v-.6l.05.25.1.4.1-.55.55 1.05.55 1.05v.05l-.6-.75-.45-.9v.2l.15.75.25.55-.65-.55.35.7v.05l.85.65v-.05l-.4-.9-.4-1q.85 1.7 2.25 3.1v-.1l-.4-1.6q-.25-.95-1.25-2.25l-.2-.3v.4l.25.9.4 1.15-.1-.05-.05-.05-.4-1.1q-.35-.95-.35-1.45v-.1l.1.2.1.25-.05-.8v-.1l.35.35.55.55.45.8.45.85v.25h-.05l-.45-.9-.75-1.05.25.5.85 1.6.45 1.65q.05-2.55-.2-3.2l-.15-.35-.55-.7.25.5.2.55-.4-.5-.05-.1h-.05l.1.1.4.8.15.8-.55-1.35-.95-1.5.55.5.45.55-.35-.75-.25-.45-.5-.35-.1-.05.15-.3.1.05v.05l.65.4.65.45.3.65" fill="url(#i)"/><linearGradient id="j" gradientUnits="userSpaceOnUse" gradientTransform="matrix(.00258 .00258 -.0026 .0026 78.95 52.55)" x1="-819.2" x2="819.2"><stop offset="0" stop-color="#090404"/><stop offset=".341" stop-color="#281510"/><stop offset="1" stop-color="#361d16"/></linearGradient><path d="M76.35 50.9l.75-.75.8-1.3.1.05.5.35.25.45.35.75-.45-.55-.55-.5.95 1.5.55 1.35.05.15-.05-.1-.45-.85-.45-.8-.55-.55-.35-.35v.1l.05.8-.1-.25-.1-.2v.1q0 .5.35 1.45l.4 1.1-.55-1.05-.55-1.05-.1.55-.1-.4-.05-.25v.6l.1.55.2.6-.55-.65-.4-.55-.05-.3" fill="url(#j)"/><path d="M79.75 55.85l-.15-.2.25.15-.4-.8h.1l.5.4.1-.4.1-.4.05-.8-.05-.75.2.25v-.15l-.35-2.05-.35-.95-.3-.65.2.15v.05l.45.65.5 1.5.15 1.8-.15 1.2V55l-.55 1.4-.3-.55" fill="#3b1f15"/><linearGradient id="k" gradientUnits="userSpaceOnUse" gradientTransform="matrix(.00203 .00203 -.0026 .0026 78.65 52.4)" x1="-819.2" x2="819.2"><stop offset="0" stop-color="#251212"/><stop offset=".471" stop-color="#5b3328"/><stop offset="1" stop-color="#2a1513"/></linearGradient><path d="M79.6 52.25l-.15-.8-.4-.8.4.5-.2-.55-.25-.5.55.7.15.35q.25.65.2 3.2l-.45-1.65-.85-1.6-.25-.5.75 1.05.45.9h.05v-.25l.05.1-.05-.15m-1.15.65l.1.05-.4-1.15-.25-.9v-.4l.2.3q1 1.3 1.25 2.25l.4 1.6v.1q-1.4-1.4-2.25-3.1l.4 1 .4.9v.05l-.85-.65v-.05l-.35-.7.65.55-.25-.55-.15-.75v-.2l.45.9.6.75h.05" fill="url(#k)"/><linearGradient id="l" gradientUnits="userSpaceOnUse" gradientTransform="matrix(-.00296 .00296 -.004 -.004 75.35 55.95)" x1="-819.2" x2="819.2"><stop offset="0" stop-color="#090808"/><stop offset="1" stop-color="#150e0d"/></linearGradient><path d="M76.4 51.2l.5 1.25.2.35.65.75L76.8 55l-.25.4-.2.25.15-.35.15-.3.1-.15.3-.9-.35.4-.3.3.65-1.6-.35.25.1-.2v-.2l-.3.35-.2.25.4-.9h-.05l-.7.95-.15.2.15-.5.3-1.05-.25.25-.2.2.1-.35.15-.3-.75.65-.65.8-.45.7.8-1.45 1.35-1.8.05.3" fill="url(#l)"/><linearGradient id="m" gradientUnits="userSpaceOnUse" gradientTransform="matrix(-.00305 .00305 -.004 -.004 75.3 55.9)" x1="-819.2" x2="819.2"><stop offset="0" stop-color="#150909"/><stop offset=".475" stop-color="#543128"/><stop offset="1" stop-color="#1c0d0c"/></linearGradient><path d="M76.3 55.75l-.5.6-.85.85q-.45.65-.6 1.25h-.05l-.1-.6-.05-.6-.25 1.6-.3-.85-.1-.25v-.05q-.1-1.2.2-2.35l.1-.3V55l.05-.25h.05v-.1l.15-.3.1-.15.05-.05.45-.7.65-.8.75-.65-.15.3-.1.35.2-.2.25-.25-.3 1.05-.15.5.15-.2.7-.95h.05l-.4.9.2-.25.3-.35v.2l-.1.2.35-.25-.65 1.6.3-.3.35-.4-.3.9-.1.15-.15.3-.15.35-.05.1m-2.4.95q.3-1 .65-1.15v.2l-.15.8-.1.95.05.2q.25-.9 1-1.9l.6-.8.8-1.35-1 .8-.55.55-.5.6v-.25l.15-.35.3-.75.4-1.05h-.1l-1.25 1.5-.05.05-.1.25q-.4 1.05-.4 2.35v.3l.05.1.2-1.05m-.2 1.3v-.25.25" fill="url(#m)"/><linearGradient id="n" gradientUnits="userSpaceOnUse" gradientTransform="matrix(.0011 .00409 -.00316 .00084 79.3 56.8)" x1="-819.2" x2="819.2"><stop offset="0" stop-color="#0b0a0a"/><stop offset="1" stop-color="#4d2a21"/></linearGradient><path d="M76.55 55.4l.25-.4.95-1.45.9.95.1.15.15.35.05.1.25.8h-.05l-.55-.8-.05-.1-.35-.55.1.55.05.25.15 1.9-.7-2.15-.05-.45-.05.4V55l-.1.45-.1-.45-.05-.25h-.05l-.05.25-.1.4-.1.6.05.45.1.35h-.05l-.7-1.05v-.35" fill="url(#n)"/><linearGradient id="o" gradientUnits="userSpaceOnUse" gradientTransform="matrix(-.0009 .00337 -.00426 -.00114 74.55 58.4)" x1="-819.2" x2="819.2"><stop offset="0" stop-color="#150909"/><stop offset="1" stop-color="#251511"/></linearGradient><path d="M75.8 56.35l.5-.6.05-.1.2-.25v.35l.15 1 .4 1.1.5.9.05.15-.1.65-.05.05-.15-1-.4-.95-.2.75-.05-.75-.15-.7-.15.4-.15.3.25-1.2-.5.4.2-.55-.9.95-.45.6.95-1.5" fill="url(#o)"/><linearGradient id="p" gradientUnits="userSpaceOnUse" gradientTransform="matrix(.00179 .0039 -.00436 .002 78.4 58.3)" x1="-819.2" x2="819.2"><stop offset="0" stop-color="#1e0e0c"/><stop offset=".455" stop-color="#3f2017"/><stop offset="1" stop-color="#23110e"/></linearGradient><path d="M77.8 59.15l-.15-.25-.05-.15-.5-.9-.4-1.1-.15-1 .7 1.05h.05l-.1-.35-.05-.45.1-.6.1-.4.05-.25h.05l.05.25.1.45.1-.45v-.05l.05-.4.05.45.7 2.15-.15-1.9-.05-.25-.1-.55.35.55.05.1.55.8h.05l-.25-.8-.05-.1-.15-.35.3.35.3.35.1.15.1.1.05.05.25 1.1.1 1.45-.1 1.75-.15-.9.05 1.7-.05.7-.1-.25-.15-.3h-.05l.1.35.05.35-.45-.5-.05-.05-.3-.4-.95-1.5m.95-3.7v.1l-.25-.4v.75l.05.95.2 1h-.05l-1.05-2.15-.1.6-.15 1.2-.3-.3.55 1.45.2.35 1.45 1.9-.1-.4-.4-.95.3.3.45.55-.05-2.7.1.35.15.4.05-.3V57l-.05.1v.15l-.05-.35-.45-1.25v.65-.05l-.4-.55-.05-.05v-.05l-.05-.15" fill="url(#p)"/><linearGradient id="q" gradientUnits="userSpaceOnUse" gradientTransform="matrix(.0026 .00453 -.00284 .00163 79.25 57.7)" x1="-819.2" x2="819.2"><stop offset="0" stop-color="#150909"/><stop offset=".455" stop-color="#5f3226"/><stop offset="1" stop-color="#301814"/></linearGradient><path d="M78.8 55.6v.05l.05.05.4.55v.05-.65l.45 1.25.05.35v-.15l.05-.1v1.15l-.05.3-.15-.4-.1-.35.05 2.7-.45-.55-.3-.3.4.95.1.4-1.45-1.9-.2-.35-.55-1.45.3.3.15-1.2.1-.6 1.05 2.15h.05l-.2-1-.05-.95v-.75l.25.4v-.1l.05.15m-1.25 1.05L77.8 58q.25 1 .95 2.15l-.4-1.5.35.5.55.6-.05-.75.05.1.05.2h.05l.15-1.05V57.1l.15.25.05.15-.05-.5-.15-.55-.1-.3v.95h-.05l-.3-.65-.4-.5.4 2.4-.05-.25v.75l-.8-1.15-.6-1.4h-.05v.35" fill="url(#q)"/><linearGradient id="r" gradientUnits="userSpaceOnUse" gradientTransform="matrix(.00226 -.00226 .00195 .00195 75.25 55.55)" x1="-819.2" x2="819.2"><stop offset="0" stop-color="#41231c"/><stop offset=".357" stop-color="#643929"/><stop offset="1" stop-color="#381d17"/><stop offset="1" stop-color="#693227"/><stop offset="1" stop-color="#472513"/></linearGradient><path d="M73.7 57.75l-.05-.1v-.3q0-1.3.4-2.35l.1-.25.05-.05 1.25-1.5h.1l-.4 1.05-.3.75-.15.35v.25l.5-.6.55-.55 1-.8-.8 1.35-.6.8q-.75 1-1 1.9l-.05-.2.1-.95.15-.8v-.2q-.35.15-.65 1.15l-.2 1.05" fill="url(#r)"/><path d="M73.7 55.2l.05-.2h.05v.05l-.1.15" fill="#170c0c"/><path d="M73.7 55.2v-.05l-.05-.1v.05-.1h.1l-.05.2" fill="#20100a"/><path d="M73.8 55.05l-.1.3v-.15l.1-.15m-.1.1l-.05-.05v-.05l.05.1" fill="#100e0e"/><linearGradient id="s" gradientUnits="userSpaceOnUse" gradientTransform="matrix(-.00296 .00296 -.004 -.004 75.35 55.95)" x1="-819.2" x2="819.2"><stop offset="0" stop-color="#150909"/><stop offset="1" stop-color="#170a07"/></linearGradient><path d="M74.85 57.85l-.15.25-.15.35q-.45.95-.55 1.7l-.35-.7v-.1l-.15-1.6.1.25.3.85.25-1.6.05.6.1.6h.05q.15-.6.6-1.25l.85-.85-.95 1.5" fill="url(#s)"/><path d="M73.7 57.75V58v-.25" fill="#412116"/><linearGradient id="t" gradientUnits="userSpaceOnUse" gradientTransform="matrix(.00237 -.00237 .00198 .00198 72.1 56.95)" x1="-819.2" x2="819.2"><stop offset="0" stop-color="#41231c"/><stop offset=".357" stop-color="#835544"/><stop offset="1" stop-color="#43231c"/><stop offset="1" stop-color="#693227"/><stop offset="1" stop-color="#472513"/></linearGradient><path d="M75.6 58.2l-.1.5-.15.95-.05.25v.25l.55-.7.6-1.05v.05l-.05.45-.15.85-.2.7-.15.45.2-.25.4-.6.55-1-.15.6-.8 1.45-1.1 1.2-.25.25.2-.65.05-.2.3-.9-.45.55-.05.15-.3.4v-.1l.2-.95.2-.65.05-.05-.3.2-.25.3v-.05q.05-.7.4-1.4.35-.75.9-1.25l-.1.25" fill="url(#t)"/><linearGradient id="u" gradientUnits="userSpaceOnUse" gradientTransform="matrix(.00256 -.00256 .0029 .0029 75.6 60.3)" x1="-819.2" x2="819.2"><stop offset="0" stop-color="#4a2319"/><stop offset=".522" stop-color="#5f3328"/><stop offset="1" stop-color="#200b07"/></linearGradient><path d="M73.85 62.25v-.7q.2-1 .55-1.95.6-1.4 1.6-2.6l-.1.2-.15.35v.05l.4-.45v.3l-.2.85-.2.75v.05l.45-.75.35-.9.15.9-.05.85.25-.55.2-.25.25.55.05.5v.2l-.25.6-.8 1.35-1.6 1.6-.4.45v-.1l.25-1.25-.2.4-.15.5v-1.25l.05-.6-.2.3-.05.1-.2.5m1.85-4.3q-.55.5-.9 1.25-.35.7-.4 1.4v.05l.25-.3.3-.2-.05.05-.2.65-.2.95v.1l.3-.4.05-.15.45-.55-.3.9-.05.2-.2.65.25-.25 1.1-1.2.8-1.45.15-.6-.55 1-.4.6-.2.25.15-.45.2-.7.15-.85.05-.45v-.05l-.6 1.05-.55.7v-.25l.05-.25.15-.95.1-.5.1-.25" fill="url(#u)"/><linearGradient id="v" gradientUnits="userSpaceOnUse" gradientTransform="matrix(-.0009 .00337 -.00426 -.00114 74.55 58.4)" x1="-819.2" x2="819.2"><stop offset="0" stop-color="#150909"/><stop offset=".404" stop-color="#2b1611"/><stop offset="1" stop-color="#361d16"/></linearGradient><path d="M74.55 58.45l.15-.35.15-.25.45-.6.9-.95-.2.55.5-.4-.25 1.2.15-.3.15-.4.15.7.05.75.2-.75.4.95.15 1-.1.05v-.2l-.05-.5-.25-.55-.2.25-.25.55.05-.85-.15-.9-.35.9-.45.75v-.05l.2-.75.2-.85v-.3l-.4.45v-.05l.15-.35.1-.2q-1 1.2-1.6 2.6-.35.95-.55 1.95l.15-1.4q.1-.75.55-1.7m3.25.7l-.25.4.1-.65.15.25" fill="url(#v)"/><linearGradient id="w" gradientUnits="userSpaceOnUse" gradientTransform="matrix(0 .00345 -.00354 0 75.8 62.05)" x1="-819.2" x2="819.2"><stop offset="0" stop-color="#311917"/><stop offset=".557" stop-color="#3a1c17"/><stop offset="1" stop-color="#24110e"/></linearGradient><path d="M74.4 64.95l-.4-1.4-.15-.9v-.4l.2-.5.05-.1.2-.3-.05.6v1.25l.15-.5.2-.4-.25 1.25v.1l.4-.45 1.6-1.6.8-1.35.25-.6.1-.05.05-.05.25-.4-.65 1.45-.6 1.25-.35.4-.05.05q-1.15.95-1.7 2.5l-.05.15" fill="url(#w)"/><linearGradient id="x" gradientUnits="userSpaceOnUse" gradientTransform="matrix(.00429 .00249 -.00159 .00275 77.2 61.15)" x1="-819.2" x2="819.2"><stop offset="0" stop-color="#150909"/><stop offset=".569" stop-color="#3f211a"/><stop offset="1" stop-color="#774c32"/></linearGradient><path d="M79.65 62l-.55-.9.45.5-.05-.35-.1-.35h.05l.15.3.1.25.05-.7-.05-1.7.15.9.1-1.75-.1-1.45-.25-1.1.15.2.3.55.3 3.1q0 1.65-.6 2.65l-.1-.15" fill="url(#x)"/><linearGradient id="y" gradientUnits="userSpaceOnUse" gradientTransform="matrix(.0017 .0017 -.00198 .00198 79.75 56.95)" x1="-819.2" x2="819.2"><stop offset="0" stop-color="#41231c"/><stop offset=".357" stop-color="#724534"/><stop offset="1" stop-color="#43231c"/><stop offset="1" stop-color="#693227"/><stop offset="1" stop-color="#472513"/></linearGradient><path d="M77.55 56.3h.05l.6 1.4.8 1.15v-.75l.05.25-.4-2.4.4.5.3.65h.05v-.95l.1.3.15.55.05.5-.05-.15-.15-.25v1.15l-.15 1.05h-.05l-.05-.2-.05-.1.05.75-.55-.6-.35-.5.4 1.5Q78.05 59 77.8 58l-.25-1.35v-.35" fill="url(#y)"/><linearGradient id="z" gradientUnits="userSpaceOnUse" gradientTransform="matrix(.00172 .003 -.00276 .00159 78.5 62.2)" x1="-819.2" x2="819.2"><stop offset="0" stop-color="#150909"/><stop offset=".404" stop-color="#2b1611"/><stop offset="1" stop-color="#361d16"/></linearGradient><path d="M77.2 61.45l-.15-.2v.05l.05.05.1.15v-.05m1.55-.8l.3.4.05.05.55.9-.6-.7-.95-.8.3.7.05.15-.75-.9v.05l.55.9.45 1.25h-.05l-.5-.9-.85-.9v.05l.5.8.5.8h-.05l-.5-.65-.45-.6.6.95.05.1-.5-.5-.25-.3.1.65.15.85v.05l-.25-.35.05.25.1.45.6 1.1.75 1.1.35.4.25.25.05.05-.1-.7-.2-.6v-.05l.35.4.25.4V64.4l-.2-.7-.25-.8v-.05l1.25 1.95.2 1.5-.25-.55-.2-.35.1.55.1.85-.05.8-.1-.15v.3h-.1l-.4-.65-.35-.45-.65-.85-.05-.1-.6-.7-.3-.35-.2-.25.2.2q-.9-1.25-1.3-2.65l.05-.1.6-1.25.65-1.45.95 1.5" fill="url(#z)"/><linearGradient id="A" gradientUnits="userSpaceOnUse" gradientTransform="matrix(.0028 .0028 -.00249 .00249 78.95 63.4)" x1="-819.2" x2="819.2"><stop offset="0" stop-color="#2c1711"/><stop offset=".518" stop-color="#542c21"/><stop offset="1" stop-color="#361d16"/></linearGradient><path d="M79.65 62l.1.15.1.15v.05l.3.65.4 1.35.3 1.55-.3-.85-.1-.25-1.25-1.95v.05l.25.8.2.7v1.35l-.25-.4-.35-.4V65l.2.6.1.7-.05-.05-.25-.25-.35-.4-.75-1.1-.6-1.1-.1-.45-.05-.25.25.35V63l-.15-.85m0 0l-.1-.65-.1-.15-.05-.05v-.05l.15.2v.05l.25.3.5.5-.05-.1-.6-.95.45.6.5.65h.05l-.5-.8-.5-.8v-.05l.85.9.5.9h.05l-.45-1.25-.55-.9v-.05l.75.9-.05-.15-.3-.7.95.8.6.7m-.85-.2l.1.6-.25-.55v.1l.05.35.05.4v.4l.05.2v.2l-.15-.4-.1-.2-.25-.7.1.5.1.5v.05l-.15-.3-.2-.35v.1l.15.55v.2l.1.6v.05l-.2-.3-.65-1.45.1.25-.05-.05-.05-.2v.2l.3 1.1.35.75.65.85-.2-.55-.05-.25-.1-.75.1.25.2.4v-.05l-.15-.7.05-.05.15.25.3.45.3.85-.25-1.1-.2-.85-.1-.25v-.2l.1.1.05.15.1.25.05-.1-.15-.4v-.2l.1.05.15.1.35.4.5.6v-.15l-.1-.2-.5-.9-.6-.75-.3-.35.15.5" fill="url(#A)"/><linearGradient id="B" gradientUnits="userSpaceOnUse" gradientTransform="matrix(.00142 .00247 -.00209 .0012 78.85 63.25)" x1="-819.2" x2="819.2"><stop offset="0" stop-color="#41211b"/><stop offset="0" stop-color="#270d0d"/><stop offset=".588" stop-color="#835546"/><stop offset="1" stop-color="#461e19"/></linearGradient><path d="M78.65 61.3l.3.35.6.75.5.9.1.2v.15l-.5-.6-.35-.4-.15-.1-.1-.05v.2l.15.4-.05.1-.1-.25-.05-.15-.1-.1v.2l.1.25.2.85.25 1.1-.3-.85-.3-.45-.15-.25-.05.05.15.7v.05l-.2-.4-.1-.25.1.75.05.25.2.55-.65-.85-.35-.75-.3-1.1v-.2l.05.2.05.05-.1-.25.65 1.45.2.3v-.05l-.1-.6v-.2l-.15-.55v-.1l.2.35.15.3v-.05l-.1-.5-.1-.5.25.7.1.2.15.4v-.2l-.05-.2v-.4l-.05-.4-.05-.35v-.1l.25.55-.1-.6-.15-.5" fill="url(#B)"/><linearGradient id="C" gradientUnits="userSpaceOnUse" gradientTransform="matrix(-.00124 .0046 -.0039 -.00104 75.6 66.3)" x1="-819.2" x2="819.2"><stop offset="0" stop-color="#170b09"/><stop offset="0" stop-color="#270d0d"/><stop offset=".588" stop-color="#5d3121"/><stop offset="1" stop-color="#321410"/></linearGradient><path d="M76.2 68.4l-.4.25q.65-.6.9-1.35l-.8.9-.55.4-.1-.6v-.35l-.05.1-.1.45-.05.2-.05.5-.2-.6-.15-.45V68l-.05.35-.2-1.1q-.05-1.05.2-1.9.3-.9.55-1.3l.2-.45.6-.7-.15.4-.3.85.25-.6.3-.5v.1l-.15.8-.1 1.05v.35l.05.05.5-2.2q0 .7.25 1.2h.05l.05-.45.05-.45.05.1.25 1.65.25-.3.15-.3.05.5.05.6q0 .85-.5 1.7l-.1.1-.65.8-.1.05m.3-2.8l-.05-.95-.7 2.35-.15-.7-.15-1.15-.5 1.3q-.2.8 0 1.7l.15-.7.3-.5.15.65.15.55q1-.9 1.35-2.45l-.7 1.35.15-1.45" fill="url(#C)"/><linearGradient id="D" gradientUnits="userSpaceOnUse" gradientTransform="matrix(-.00192 .00435 -.0037 -.00162 76.1 65.3)" x1="-819.2" x2="819.2"><stop offset="0" stop-color="#150909"/><stop offset=".553" stop-color="#411b11"/><stop offset="1" stop-color="#23110f"/></linearGradient><path d="M74.7 70.2l-.6-1.3-.15-.8v-1.15l.35-1.75.1-.25.05-.15q.55-1.55 1.7-2.5l.05-.05.35-.4-.05.1q.4 1.4 1.3 2.65l-.2-.2.2.25.3.35-.15 1.25-.15.35-.3.6-.2.35-.05.05-.6.55-.25.15-.05.05h-.05l.65-.8.1-.1q.5-.85.5-1.7l-.05-.6-.05-.5-.15.3-.25.3-.25-1.65-.05-.1-.05.45-.05.45h-.05q-.25-.5-.25-1.2l-.5 2.2-.05-.05V65l.1-1.05.15-.8v-.1l-.3.5-.25.6.3-.85.15-.4-.6.7-.2.45q-.25.4-.55 1.3-.25.85-.2 1.9l.2 1.1.05-.35v-.15l.15.45.2.6.05-.5.05-.2.1-.45.05-.1V68l.1.6.55-.4.8-.9q-.25.75-.9 1.35l-.15.1-.25.15-.05.05-.25.3-.4.95" fill="url(#D)"/><linearGradient id="E" gradientUnits="userSpaceOnUse" gradientTransform="matrix(.00124 .0046 -.0039 .00105 75.85 69.6)" x1="-819.2" x2="819.2"><stop offset="0" stop-color="#150909"/><stop offset="1" stop-color="#361d16"/></linearGradient><path d="M77.25 67.65v-.05l.05-.05.2-.35.3-.6.15-.35.15-1.25.6.7.05.1.65.85.3.55.1.25.05.1.3 1.15-.2-.35-.05-.1-.2-.6h-.1v.05l-.05.4-.2-.55-.05-.2-.4-.75-.1.75-.15-.6-.25-.3-.15.35-.1.35h-.05l-.05-.4-.5.75-.05.05-.25.45v-.35" fill="url(#E)"/><linearGradient id="F" gradientUnits="userSpaceOnUse" gradientTransform="matrix(.0007 .0047 -.00398 .0006 76 70.1)" x1="-819.2" x2="819.2"><stop offset="0" stop-color="#2a110e"/><stop offset=".525" stop-color="#3c1b10"/><stop offset="1" stop-color="#311510"/></linearGradient><path d="M80.2 69.1v.7q0 1.25-.6 2.7l-1.05 1.8-.5-1.9-.35-1.5-.15-.6-.2-.9-.1-1.4.25-.45.05-.05.5-.75.05.4h.05l.1-.35.15-.35.25.3.15.6.1-.75.4.75.05.2.2.55.05-.4v-.05h.1l.2.6.05.1.2.35v.3l.05.1m-2.15-.25l-.05-1.1v-.2l-.05-.15v.15l-.25.75-.2.5.05.7.1 1.05.3 1.05.3 1h.05l.1-.3.1-.35v1.3l.3-.8v.65l.85-1.55.25-2.05v-.9l-.1-.5-.15-.1v2.25q-.05 1.35-.6 2.2l.25-1.3.15-1.35-.15-1.25-.1-1v-.15l-.05.15-.15.65-.15.8-.2-1-.05-.45-.05-.35v-.1l-.15.45v.05l-.3 1v.05l-.05.2" fill="url(#F)"/><linearGradient id="G" gradientUnits="userSpaceOnUse" gradientTransform="matrix(-.00208 .00359 -.00383 -.00221 76.05 71.2)" x1="-819.2" x2="819.2"><stop offset="0" stop-color="#100805"/><stop offset=".518" stop-color="#25120d"/><stop offset="1" stop-color="#271510"/></linearGradient><path d="M76.15 74.8l-.95-1.35-.3-.45-.2-.6.25.45.5.75h.05l-.15-.25-.05-.2v-.05l.15.25.2.2h.05l-.05-.05-.15-1.3h.05v.1h.05l.15.75.1-.65.2-.7h.05v.1l-.05.35v.3l.5-1.05.55-1.3-.25.4-.55.6.9-2.5-1.45.75.35-.55.35-.5h-.05l.25-.15.6-.55v.4l.1 1.4.2.9-.45.95-.45.65-.35.55-.25.6v.3l-.05.15v.7l.15.6" fill="url(#G)"/><path d="M78.1 68.65v-.05l.3-1v-.05l.15-.45v.1l.05.35.05.45.2 1 .15-.8.15-.65.05-.15v.15l.1 1 .15 1.25-.15 1.35-.25 1.3q.55-.85.6-2.2V68l.15.1.1.5v.9l-.25 2.05-.85 1.55v-.65l-.3.8v-1.3l-.1.35-.1.3h-.05l-.3-1-.3-1.05-.1-1.05-.05-.7.2-.5.25-.75v-.15l.05.15v.2l.05 1.1.05-.2m-.2.05v1.65l.2-.45h.1l.05 2.1h.1l.45-1.8v1.7l-.15.55.5-1.85v-1.85l-.15.65-.2.55-.15-1.4h-.1l-.1.55-.1.5-.2-.45-.1-.3-.15-.15" fill="#431e13"/><linearGradient id="H" gradientUnits="userSpaceOnUse" gradientTransform="matrix(-.00124 .0046 -.0039 -.00104 75.6 66.3)" x1="-819.2" x2="819.2"><stop offset="0" stop-color="#170b09"/><stop offset="0" stop-color="#270d0d"/><stop offset=".588" stop-color="#855242"/><stop offset="1" stop-color="#321410"/></linearGradient><path d="M76.35 67.05l.7-1.35q-.35 1.55-1.35 2.45l-.15-.55-.15-.65-.3.5-.15.7q-.2-.9 0-1.7l.5-1.3.15 1.15.15.7.7-2.35.05.95-.15 1.45" fill="url(#H)"/><linearGradient id="I" gradientUnits="userSpaceOnUse" gradientTransform="matrix(.00542 .00545 -.00226 .00224 79.15 63.45)" x1="-819.2" x2="819.2"><stop offset="0" stop-color="#150909"/><stop offset=".663" stop-color="#4f261c"/><stop offset="1" stop-color="#774c32"/></linearGradient><path d="M80.15 69v-.3l-.3-1.15-.05-.1-.1-.25-.3-.55.35.45.4.65h.1v-.3l.1.15.05-.8-.1-.85-.1-.55.2.35.25.55-.2-1.5.1.25.3.85.05.7-.05.6-.1.35v.15l-.55 1.4-.05-.1" fill="url(#I)"/><linearGradient id="J" gradientUnits="userSpaceOnUse" gradientTransform="matrix(-.00208 .00359 -.00383 -.00221 76.05 71.2)" x1="-819.2" x2="819.2"><stop offset="0" stop-color="#100805"/><stop offset=".518" stop-color="#3f1f16"/><stop offset="1" stop-color="#361d16"/></linearGradient><path d="M74.7 72.4l-.1-1.15v-.15l.1-.9.4-.95.25-.3.05-.05.25-.15.15-.1.4-.25.1-.05h.05l.05-.05h.05l-.35.5-.35.55 1.45-.75-.9 2.5.55-.6.25-.4-.55 1.3-.5 1.05v-.3l.05-.35v-.1h-.05l-.2.7-.1.65-.15-.75q.15-1.5 1.1-2.85l-1 .85-.45.85-.05-.25-.05-.25.2-.8.25-.65-.25.2-.45.75-.15.7.05 1.05q.15.6.65 1.2L75.3 72v-.4l.15.3.1.3h-.05l.15 1.3.05.05h-.05l-.2-.2-.15-.25v.05l.05.2.15.25h-.05l-.5-.75-.25-.45" fill="url(#J)"/><linearGradient id="K" gradientUnits="userSpaceOnUse" gradientTransform="matrix(0 .00252 -.00238 0 75.7 71.15)" x1="-819.2" x2="819.2"><stop offset="0" stop-color="#4a2319"/><stop offset=".522" stop-color="#643e35"/><stop offset="1" stop-color="#4c251b"/></linearGradient><path d="M75.55 72.2l-.1-.3-.15-.3v.4l.15 1.1q-.5-.6-.65-1.2l-.05-1.05.15-.7.45-.75.25-.2-.25.65-.2.8.05.25.05.25.45-.85 1-.85q-.95 1.35-1.1 2.85h-.05v-.1" fill="url(#K)"/><linearGradient id="L" gradientUnits="userSpaceOnUse" gradientTransform="matrix(-.00104 .0018 -.00206 -.00119 78.55 70.5)" x1="-819.2" x2="819.2"><stop offset="0" stop-color="#4a2319"/><stop offset=".522" stop-color="#77493e"/><stop offset="1" stop-color="#4c251b"/></linearGradient><path d="M78.05 68.85l.1.3.2.45.1-.5.1-.55h.1l.15 1.4.2-.55.15-.65v1.85l-.5 1.85.15-.55v-1.7l-.45 1.8h-.1l-.05-2.1h-.1l-.2.45V68.7l.15.15" fill="url(#L)"/><path d="M76.3 72.45l.35-.55.45-.65.45-.95.15.6.35 1.5-.2.6-.1.6-.05.2h-.05v-.05l-.1-.9-.05-1-.4 1.2v-.1l.1-1.35h-.15l-.8 1.1-.2.35.25-.6" fill="#150b08"/><linearGradient id="M" gradientUnits="userSpaceOnUse" gradientTransform="matrix(.00163 0 0 .00536 79.45 78.2)" x1="-819.2" x2="819.2"><stop offset="0" stop-color="#27130c"/><stop offset="1" stop-color="#93583b"/></linearGradient><path d="M80.2 80.2l-.65-1.45-.15-.45-.3-.65-.05-.15-.05-.1-.1-.3-.1-.25-.3-1.1-.2-.5-.05-.4-.15-1.05.2.45.1.25-.1-.95-.2-.65-.2.65-.1.1-.1.15v.1l-.15.15-.05-.8-.05-.2v-.45l-.25.35-.2.25-.05-1.2v-.05l-.6.7-.3.7v-.3l.2-.35.8-1.1h.15l-.1 1.35v.1l.4-1.2.05 1 .1.9v.05h.05l.05-.2.1-.6.2-.6.5 1.9v.6q0 .75.6 2.1l.75 1.6.65 1.9.25 2.1-.6-2.4" fill="url(#M)"/><linearGradient id="N" gradientUnits="userSpaceOnUse" gradientTransform="matrix(.00284 -.0106 .01097 .00293 75.2 82.5)" x1="-819.2" x2="819.2"><stop offset="0" stop-color="#351b15"/><stop offset=".118" stop-color="#2c160e"/><stop offset=".553" stop-color="#512c24"/><stop offset="1" stop-color="#432217"/></linearGradient><path d="M78.1 80.45l.2 1.85.05 1.85q0 1.55-.55 3.85l-.25 1.05-.5 1.1q-.45.8-.45 1.35h-.05l-.1-.3-.05-.3-.05.7-.05.7h-.05l-.4-.55-.15-.2V91q0-1.9.55-4.1.55-2.2.55-3.6v-.95l-.2-.9-.55 2.5-.45 1.8-.2.8-.65 1.75-.4 1.4v-.1q.05-.75.4-1.95l.6-1.95v-.5l-.9 2.25-.9 1.8v-.4l.65-3.95-.8 2.55v-.6l.15-1.7.05-.45.2-.85.5-2-.65 1.65q-.4 1.35-.35 2.55l-.1-.65.15-1.65q.2-1.3 1.05-3.3l1.2-3.25.45-1.7-.15 2.35-.35 2.4.8-2.7v.7q0 1.3-.6 3.45l-.9 3.35q1.65-3 1.9-5.55l.15 1.8.15-3.1v-.1l-.05-.05v-.1l-.3-2.35-.05-.1v-.05l-.05-.25-.2-.85-.2-.55q-.15-.2.15-.8l.3-.65.05-.05v.05l.1.85.2.9v.6l-.2-.6-.15-1.2q-.5.5.05 2.05.5 1.55.45 2.05l.05-.6.05-.7.4 1.3.45 1.15-.4-1.55-.25-1.25v-.1l1 1.35-.25-1-.5-.85q-.45-.75-.35-1.25l-.15.45-.1.55v.05l-.05-.3L77 74l.1-.5.2-.55.2 1.2h.1l.1-.25v-.1l.1-.15.1-.1.15-.3v.1l-.15.5v.7l.15.2.25.5.2.5.3 1.1v.55l-.45-.7-.55-.65h-.05l.05.1.5 1.3-.1-.15.15.35.6 3-.4-.95v.15l.1.8.1 1-.4-1.65-.2-.7-.05-.1-.15-.5.1 1.15.05.4v.2m-2.65-2.5l-.9 2.5-.6 1.55.75-1.15-.5 2.4-.6 2.9.9-2-.1 1.8.55-2.15.65-2.2-.4.45.65-1.95-.35.6-.25.5.05-.75.1-.55.05-1.95m1.55 3.3l.1.85v1.05L77 84.5l-.05 1 .8-2.95.05.85.05.75.15-.8.05-.7-.25-2-.3-1.95-.05 1.9-.1 1.65-.2-.55-.15-.45" fill="url(#N)"/><linearGradient id="O" gradientUnits="userSpaceOnUse" gradientTransform="matrix(-.00166 .00623 -.00606 -.00162 75.95 78.95)" x1="-819.2" x2="819.2"><stop offset="0" stop-color="#311b1b"/><stop offset="1" stop-color="#381b14"/></linearGradient><path d="M76 74.2v-.7l.05-.15.3-.7.6-.7V72h-.05l-.2.35v-.05l-.05.05-.3.65q-.3.6-.15.8l.2.55.2.85.05.25v.05l.05.1.3 2.35v.1l.05.05v.1l-.15 3.1-.15-1.8q-.25 2.55-1.9 5.55l.9-3.35q.6-2.15.6-3.45v-.7l-.8 2.7.35-2.4.15-2.35.05-.15.05-.35v-.2l-.15-.6" fill="url(#O)"/><linearGradient id="P" gradientUnits="userSpaceOnUse" gradientTransform="matrix(.00157 0 0 .00258 77.25 73.7)" x1="-819.2" x2="819.2"><stop offset="0" stop-color="#311b1b"/><stop offset="1" stop-color="#381b14"/></linearGradient><path d="M77 74.1l-.2-.9-.1-.85.2-.35h.05l-.05.25.05 1 .05-.05.2-.25.25-.35v.45l.05.2.05.8.15-.15-.1.25h-.1l-.2-1.2-.2.55-.1.5v.1m.9-.55l.2-.65.2.65.1.95-.1-.25-.2-.45.15 1.05.05.4-.25-.5-.15-.2v-.7l.15-.5v-.1l-.15.3" fill="url(#P)"/><linearGradient id="Q" gradientUnits="userSpaceOnUse" gradientTransform="matrix(.00163 0 0 .00536 79.45 78.2)" x1="-819.2" x2="819.2"><stop offset="0" stop-color="#311b1b"/><stop offset="1" stop-color="#381b14"/></linearGradient><path d="M76.95 73.25l-.05-1 .05-.25.05 1.2-.05.05" fill="url(#Q)"/><linearGradient id="R" gradientUnits="userSpaceOnUse" gradientTransform="matrix(-.00041 -.00392 .01128 -.0012 76.65 75.35)" x1="-819.2" x2="819.2"><stop offset=".118" stop-color="#562b1e"/><stop offset=".553" stop-color="#5b2c22"/><stop offset="1" stop-color="#4a2011"/></linearGradient><path d="M77 74l.05.25.05.3v-.05l.1-.55.15-.45q-.1.5.35 1.25l.5.85.25 1-1-1.35v.1l.25 1.25.4 1.55-.45-1.15-.4-1.3-.05.7-.05.6q.05-.5-.45-2.05-.55-1.55-.05-2.05l.15 1.2.2.6V74" fill="url(#R)"/><path d="M79.9 80.1l.35 1.55-.6-1.3-1-2.15-.35-.75-.5-1.3-.05-.1h.05l.55.65.45.7v-.55l.1.25.1.3.05.1.05.15.8 2.45m-.2 2.25l.1.6v.1l-.1-.55-.35-1.05-.4-.8-.6-3 1.35 4.7" fill="#351911"/><linearGradient id="S" gradientUnits="userSpaceOnUse" gradientTransform="matrix(.00357 .0029 -.00444 .00546 79.3 83.3)" x1="-819.2" x2="819.2"><stop offset="0" stop-color="#27130c"/><stop offset="1" stop-color="#2e140b"/></linearGradient><path d="M78.65 82l.3 2.15-.1 1.35-.15 1.25q.2-1.25-.1-3.3l-.5-3.2-.05-.4-.1-1.15.15.5.05.1.5 2.7m-.1-2.2v-.1l.4.95.4.8.35 1.05v.4l-.05.65-.1.9q-.2-1.9-1-4.65" fill="url(#S)"/><linearGradient id="T" gradientUnits="userSpaceOnUse" gradientTransform="matrix(.00357 .0029 -.00444 .00546 79.3 83.3)" x1="-819.2" x2="819.2"><stop offset="0" stop-color="#27130c"/><stop offset="1" stop-color="#431f13"/></linearGradient><path d="M77.55 89.05L77.8 88q.55-2.3.55-3.85l-.05-1.85-.2-1.85v-.2l.5 3.2q.3 2.05.1 3.3l.15-1.25.1-1.35-.3-2.15-.5-2.7.2.7.4 1.65-.1-1-.1-.8v-.05q.8 2.75 1 4.65l.1-.9.05-.65v-.4l.1.55.05.1-.2 3.25h-.05l-.05-.3-.15-.4-.1 1-.3.95-.05.05-.3-.65.1.9.05.35v.15l-.45-1v.05q-.25.55-.2 1l-.05-.5-.15.6-.05.65h-.05l-.1-.35-.1.7-.15.65h-.05L77.4 90l.15-.95" fill="url(#T)"/><path d="M80.65 82.65l-.25-.45.05.75.15.6v.25l-.25-.6-.25-.55v.15l.3 1.95-.1 1.05v.05l-.05-.55v-.15l.05-.7q0-1.2-.9-4.05l-.75-2.2 1 2.15.6 1.3-.35-1.55-.8-2.45.3.65.15.45.65 1.45.6 2.4v.5l-.15-.45" fill="#5b2614"/><path d="M79.95 83.7l-.1-.55-.05-.1v-.1l-.1-.6-1.35-4.7-.15-.35.1.15.35.75.75 2.2q.9 2.85.9 4.05l-.05.7v.15l-.3-1.6" fill="#481e11"/><linearGradient id="U" gradientUnits="userSpaceOnUse" gradientTransform="matrix(.00137 -.00511 .00482 .0013 74.7 82.05)" x1="-819.2" x2="819.2"><stop offset="0" stop-color="#391d16"/><stop offset=".588" stop-color="#744536"/><stop offset="1" stop-color="#461e19"/></linearGradient><path d="M75.4 79.9l-.1.55-.05.75.25-.5.35-.6-.65 1.95.4-.45-.65 2.2-.55 2.15.1-1.8-.9 2 .6-2.9.5-2.4-.75 1.15.6-1.55.9-2.5-.05 1.95m1.75 1.8l.2.55.1-1.65.05-1.9.3 1.95.25 2-.05.7-.15.8-.05-.75-.05-.85-.8 2.95.05-1 .1-1.35V82.1l-.1-.85.15.45" fill="url(#U)"/><linearGradient id="V" gradientUnits="userSpaceOnUse" gradientTransform="matrix(0 .00743 -.0073 0 75.75 87.45)" x1="-819.2" x2="819.2"><stop offset="0" stop-color="#43221b"/><stop offset=".49" stop-color="#1e0f09"/><stop offset="1" stop-color="#31150b"/></linearGradient><path d="M75.75 92.15l-.65-.6q.05.5.4 1.1l.55.8-.65-.65-.4-.4-.15-.45-.2-1.3v-.1q0-1.1.75-4l.2-.8.45-1.8.55-2.5.2.9v.95q0 1.4-.55 3.6T75.7 91v.85l.05.3" fill="url(#V)"/><linearGradient id="W" gradientUnits="userSpaceOnUse" gradientTransform="matrix(.00143 -.0109 .01126 .00148 74.85 84)" x1="-819.2" x2="819.2"><stop offset="0" stop-color="#3c2019"/><stop offset=".165" stop-color="#231009"/><stop offset=".518" stop-color="#351a14"/><stop offset=".988" stop-color="#1e0e09"/></linearGradient><path d="M75 92.4l.15.5.15.3q-1.1-.75-1.1-1.3l-.2.25-.4.3-.2-.3-.05-.3-.2.25-.25.2v-.2l.05-.25.05-.2h-.1l-.4.3-.25.5.15-.6.15-.45-.2.15-.05.1q-.85.5-1.25.5l.6-.6h-.1l-.2.15-.4.05L72 90.5l-.3.1-.3.15v-.1q1-.6 1.5-2.3v-.25q-.9 1.85-1.7 2.2l.05-.1q1.35-1.25 2.05-4.05l.3-1.45-.05.45-.15 1.7v.6l.8-2.55-.65 3.95v.4l.9-1.8.9-2.25v.5l-.6 1.95q-.35 1.2-.4 1.95v.1l.4-1.4.65-1.75q-.75 2.9-.75 4v.1l.2 1.3.15.45" fill="url(#W)"/><path d="M79.3 89.15l-.05.1.05-.6-.25-.5.15-.45.2-.75v.8l.05-.05.1-.05.15-.85.15-.85h.05l.05.2.1.1.05-.1h.05l.1-.85.05.55v-.05l.1-1.05-.3-1.95v-.15l.25.55.25.6v-.25l-.15-.6-.05-.75.25.45.15.45v.1l-.15 1.6-.3 1.1.3 1.7-.1-.15-.3-.7-.2-.3-.2 1.35-.4 1.05-.15.3" fill="#653120"/><path d="M78.75 87.95l-.1-.9.3.65.05-.05.3-.95.1-1 .15.4.05.3h.05l.2-3.25.1.55.3 1.6-.1.85h-.05l-.05.1-.1-.1-.05-.2h-.05l-.15.85-.15.85-.1.05-.05.05v-.8l-.2.75-.15.45-.15.25-.1-.35-.05-.1" fill="#562717"/><path d="M79.45 88.85l.05.05.85.7q-.65-.15-1.05-.45l.15-.3m-.65-.4v-.15l-.05-.35.05.1.1.35.15-.25.25.5-.05.6h-.05l-.05-.15-.25-.25-.1-.4" fill="#66331b"/><path d="M77.4 90l.05.25h.05l.15-.65.1-.7.1.35h.05l.05-.65.15-.6.05.5q-.05-.45.2-1v-.05l.45 1 .1.4-.6-.8v.25q0 .3.55 1.1l.75 1.05h-.1l-.8-.9-.6-1 .3 1.25.35.9-.45-.6-.5-.8v.35l.2 1.05.55.9-.75-.6-.45-.95.05-.05" fill="#8b5640"/><path d="M75.7 91.85v-.3l.15.2.4.55h.05l.05-.7.05-.7.05.3.1.3h.05q0-.55.45-1.35l.5-1.1-.15.95-.05-.05v.1l-.25 2.5v-.1l-.1-.3q-.1-.2-.4-.2l.25.7.5.4h-.1q-.55-.05-1.5-.9l-.05-.3" fill="#492419"/><linearGradient id="X" gradientUnits="userSpaceOnUse" gradientTransform="matrix(.00159 0 0 .00063 77.35 74.6)" x1="-819.2" x2="819.2"><stop offset="0" stop-color="#814123"/><stop offset=".275" stop-color="#a05e39"/><stop offset=".38" stop-color="#c27d51"/><stop offset=".455" stop-color="#a86b46"/><stop offset="1" stop-color="#5d3726"/></linearGradient><path d="M78.3 74.7l-.65-.15-.85.1q-.45.1-.75.4v-.5h.05l.15-.15.45-.2.8-.1.55.1.55.35h.05l-.05.25-.3-.1" fill="url(#X)"/><linearGradient id="Y" gradientUnits="userSpaceOnUse" gradientTransform="matrix(.00172 0 0 .15 77.3 10.55)" x1="-819.2" x2="819.2"><stop offset="0" stop-color="#6e3d27"/><stop offset=".129" stop-color="#63341c"/><stop offset=".263" stop-color="#6b3b24"/><stop offset=".314" stop-color="#76442f"/><stop offset=".408" stop-color="#623723"/><stop offset=".855" stop-color="#432311"/><stop offset="1" stop-color="#855140"/></linearGradient><path d="M78.6 74.8v.4l-.8-.3-1-.05-.6.25-.2.15.05-.2q.3-.3.75-.4l.85-.1.65.15.3.1" fill="url(#Y)"/><linearGradient id="Z" gradientUnits="userSpaceOnUse" gradientTransform="matrix(0 0 0 0 28.9 11.4)" x1="-819.2" x2="819.2"><stop offset="0" stop-color="#915133"/><stop offset="1" stop-color="#d0957b"/></linearGradient><path d="M83.75 30.4l-.5-1.1-.4-1.25L82 25.3q-1.25-3.35-4.55-5.25l.05-.05q2.05 1.1 3.25 2.55 1 1.15 1.55 2.7l.75 2.8.2.8.5 1.55M72.7 17.7l-.15-.05 1.05-.1 1.8.2q.8.2 1.55.85l1.45 1.7-.2-.15q-1.55-2.15-3.4-2.3l-2.1-.15" fill="url(#Z)"/><linearGradient id="aa" gradientUnits="userSpaceOnUse" gradientTransform="matrix(0 0 0 0 29.15 11.4)" x1="-819.2" x2="819.2"><stop offset="0" stop-color="#915133"/><stop offset="1" stop-color="#d0957b"/></linearGradient><path d="M82.3 30.1l.95 1.5 1.05 2.35q.95 2.45.95 4l-.05 1.55-.45 1.4.3-1.6.05-1.25q0-1.45-1.1-3.95l-.75-1.55-1-2.45h.05" fill="url(#aa)"/><linearGradient id="ab" gradientUnits="userSpaceOnUse" gradientTransform="matrix(0 0 0 0 29.25 11)" x1="-819.2" x2="819.2"><stop offset="0" stop-color="#915133"/><stop offset="1" stop-color="#d0957b"/></linearGradient><path d="M83.65 38.25l-.2-.35-.15-.3.05-.1v.05q.45.5.7 1.5l.3 1.7-.35 1.4-.55 1.2.25-.9.3-1.35-.15-1.65-.2-1.2" fill="url(#ab)"/><linearGradient id="ac" gradientUnits="userSpaceOnUse" gradientTransform="matrix(.00307 .00412 -.00633 .00468 81.15 44.9)" x1="-819.2" x2="819.2"><stop offset="0" stop-color="#623024"/><stop offset="1" stop-color="#bf8e69"/></linearGradient><path d="M83.05 38.35l.2.6.1.55-.05 1.4-.05.45-.65 2.35q-.6 1.65-1.25 2.05 0 1-.6 2.75-.45 1.35-1.65 2.65 1.2-1.9 1.5-3l.4-2.6-.1-2.1-.25-.75.05-.1.05.1v-.05l.55 1.5.05 1.45q.65-1.15 1.3-3.25.6-2.1.3-4h.1" fill="url(#ac)"/><linearGradient id="ad" gradientUnits="userSpaceOnUse" gradientTransform="matrix(0 0 0 0 23.25 12.8)" x1="-819.2" x2="819.2"><stop offset="0" stop-color="#773414"/><stop offset="1" stop-color="#a35d3f"/></linearGradient><path d="M57.25 36.65l.1.35.15 2q.05 1.9.35 3.8.25 1.9.95 3.15t2.1 1.6q-1.3-1.25-1.8-2.7l-.65-3.25.05-.05 1.2 3.9q.95 2.3 2.4 2.2l.65-.25-.55.55-.75.05-.25-.2q-2.1.05-2.8-1.95-.7-2.05-.95-4-.3-1.95-.3-3.05v-2.15h.1" fill="url(#ad)"/><path d="M76.6 19.2l.1-.05.35-.15.5.4.35.4.1.15.95 1.15.7 1.45-.45-.35-.15-.1.1.2 1.25 1.4 1.15 2-.15-.2-.4-.35-.2-.2-.6-.6-.05-.05-1.1-.9.25.1.65.2-.45-.75-.35-.65-.3-.4-.1-.15-.85-1.45-.05-.05-.3-.25-.95-.8" fill="#924723"/><linearGradient id="ae" gradientUnits="userSpaceOnUse" gradientTransform="matrix(.00539 0 0 .01288 84.45 34.05)" x1="-819.2" x2="819.2"><stop offset="0" stop-color="#a15b38"/><stop offset="1" stop-color="#895c50"/></linearGradient><path d="M78.6 20.45l1.45 2.25q1.05 1.1 1.9 3.05l.9 2.5.45 2.5.1 1.65.6 1.95-1-2.1-.05-.2v-.15l-.3-2.05-.35-1.1v-.2l.1.25.45.95-.55-2.25-.9-2 .15.2-1.15-2-1.25-1.4-.1-.2.15.1.45.35-.7-1.45-.95-1.15-.1-.15-.35-.4-.5-.4 1.55 1.45" fill="url(#ae)"/><path d="M81.15 26.85l.3.85v.05l-.3-.3-.2-.15.75 1.6.6 1.55v.1l-.35-.5-.3-.5.5 1.3.3 1-.05-.1-.1-.2v-.05L82 31l-.55-.95.15.55.2.95q-.4-.15-.65-.5l.15 1 .1.4-.2-.05H81q.15.95.65 1.95l1 1.55-.95-1-.7-1.25h-.05v.2q.1 1.2 1.3 2.7l.5.7-.8-.8-1.1-1.25q-.5-.75-1.05-3.15l-.65-2-.1-.2-.5-.65-.05-.1v.05l-.2-.4-1.2-1.7.95 1 .25.3.05.05h.05l.5.6-.7-1.45-.75-.95.95.8.75 1.2-.1-.55-.25-.9.45.65.1.3.05.1.7 2.1.15.5.2.95.05.5q.1.8.5 1.35v-.05L80.65 32v-.1l.15.1.05.1v-.7l-.45-2.35.85 1.55v-.15l-.3-.95-.4-.85.45.5.35.55v-.1l-.45-1.4-.55-1.35.2.1.25.2v-.1q0-.7-1.45-2.55l-.05-.05.3.15.4.25-.95-1.15-.3-.25-.65-.85h.2l.2.05.15.1-.45-1-.55-.9-.05-.1.35.05-.4-.8.3.25.05.05.85 1.45.1.15.3.4.35.65.45.75-.65-.2-.25-.1 1.1.9.15.25.05.1 1.1 1.7v.05l-.75-.6-.25-.15.35.4.35.8M79 29.4l.85 2.45q.45 1.85.8 2.5l-.1-.35-.15-.85-.15-1.1-.2-.85-.3-1.5-.55-1.45.45 2.15-.3-.6-.35-.4" fill="#793b21"/><path d="M82.45 31.85l-.3-1-.5-1.3.3.5.35.5v-.1l-.6-1.55-.75-1.6.2.15.3.3v-.05l-.3-.85-.35-.8 1.3 2.2.1.3.1.2.35 1.1.3 2.05v.15l-.05.55-.45-.75" fill="#8f4e2f"/><path d="M80.2 24.35l.6.6.2.2.4.35.9 2 .55 2.25-.45-.95-.1-.25v.2l-.1-.2-.1-.3-1.3-2.2-.35-.4.25.15.75.6v-.05l-1.1-1.7-.05-.1-.15-.25.05.05" fill="#9e562c"/><linearGradient id="af" gradientUnits="userSpaceOnUse" gradientTransform="matrix(.00508 0 0 .00789 79.9 26.65)" x1="-819.2" x2="819.2"><stop offset="0" stop-color="#642812"/><stop offset="1" stop-color="#793b21"/></linearGradient><path d="M76.35 22.8l.4-.05-.2-.2.8.35h.15l.25.05.2.05h.4l-.5-.55-.75-.35.95.15-.45-.45-.6-.3v-.05l.05-.05.35-.1-.65.1-.25.05-.15-.1.75-.3h.1l.05.05.35.2-.6-1.25h.3l-.85-.85h.15l.95.8.4.8-.35-.05.05.1.55.9.45 1-.15-.1-.2-.05h-.2l.65.85.3.25.95 1.15-.4-.25-.3-.15.05.05q1.45 1.85 1.45 2.55v.1l-.25-.2-.2-.1.55 1.35.45 1.4v.1l-.35-.55-.45-.5.4.85.3.95v.15l-.85-1.55.45 2.35v.7l-.05-.1-.15-.1v-.1l-.15-.9-.25-1.35-.4-1.2-.45-1.1.65.7.5.6-.6-1.55q-.35-.85-1.05-1.6l.45.4.35.4v-.05l-.3-.75-.2-.25.2.1.4.25-.65-.9-.85-.9h.05l.4.25.35.1h.15V24l-.25-.15-.75-.45-1.05-.4h-.3l-.2-.05.1-.05-.45-.1M79 25l-.1-.05h.05L79 25" fill="url(#af)"/><linearGradient id="ag" gradientUnits="userSpaceOnUse" gradientTransform="matrix(.00528 .00142 -.0013 .00482 83.1 34.15)" x1="-819.2" x2="819.2"><stop offset="0" stop-color="#793b21"/><stop offset="1" stop-color="#7e5039"/></linearGradient><path d="M83.85 37.8l-1.1-1.75-.05-.05-.05-.1-1-1.55q-.5-1-.65-1.95h.2l.2.05-.1-.4-.15-1q.25.35.65.5l-.2-.95-.15-.55.55.95.3.5v.25l.2.5.4 1.2-.6-.85-.35-.45-.3-.3.3 1.1-.3-.1-.25-.05q.85 1.85 2.05 3.75l.65 1.7-.25-.45" fill="url(#ag)"/><linearGradient id="ah" gradientUnits="userSpaceOnUse" gradientTransform="matrix(.00539 0 0 .01288 84.45 34.05)" x1="-819.2" x2="819.2"><stop offset="0" stop-color="#7e5039"/><stop offset="1" stop-color="#895c50"/></linearGradient><path d="M84.15 35l.2 1.6-.1.3-.05-.1-.25-.6.1.65q-.2-1.3-.95-2.15l-1.05-1.35.75 1.5.7 1.2.55 1.15.05.05.15.45v-.8l.45 1.2.25 1.1-.2.55-.2.35-.45-1.85-.65-1.7q-1.2-1.9-2.05-3.75l.25.05.3.1-.3-1.1.3.3.35.45.6.85-.4-1.2-.2-.5v-.25.05l.1.2.05.1.45.75.05-.55.05.2 1 2.1.15.65" fill="url(#ah)"/><path d="M80.65 32.4V32l.35 1.55v.05q-.4-.55-.5-1.35l-.05-.5.2.65m-2.85-8.6l-.2-.25.65.4-.45-.15m-.9.45l-.65-.35-.1-.1-.35-.3q.6.2 1 .45l.85.75-.75-.45" fill="#6d2b11"/><linearGradient id="ai" gradientUnits="userSpaceOnUse" gradientTransform="matrix(.00221 .00206 -.10779 .10033 98.55 21.5)" x1="-819.2" x2="819.2"><stop offset="0" stop-color="#4a261e"/><stop offset="1" stop-color="#8c4e2f"/></linearGradient><path d="M83.75 38.9l-.1-.2q-.25-.8-.5-1.05l-.4-.4-.5-.7q-1.2-1.5-1.3-2.7v-.2H81l.7 1.25.95 1 .05.1-.5-.3-.5-.5.05.1 1.2 1.7q.7 1 .9 2.2l-.05-.15-.05-.15" fill="url(#ai)"/><path d="M84.3 40.3v.35l-.25.25v-.4l-.15-1.1-.1-.35.05.15q-.2-1.2-.9-2.2l-1.2-1.7-.05-.1.5.5.5.3.05.05 1.1 1.75.25.45.2 2.05" fill="#80503e"/><linearGradient id="aj" gradientUnits="userSpaceOnUse" gradientTransform="matrix(.00221 .00206 -.10779 .10033 98.55 21.5)" x1="-819.2" x2="819.2"><stop offset="0" stop-color="#684037"/><stop offset="1" stop-color="#9d6041"/></linearGradient><path d="M84.25 36.9v.8l-.15-.45-.05-.05-.55-1.15-.7-1.2-.75-1.5 1.05 1.35q.75.85.95 2.15l-.1-.65.25.6.05.1" fill="url(#aj)"/><path d="M83.3 41.75l-.45.15.05-.05.25-1.05-.05-.75.15.6.15.5v-.65l-.2-1.2-.1-.3.65.7q-.2-1.05-1.4-2.3-1.5-1.6-1.85-2.2-.55-.9-.85-2.6l-.2-1.25-.05-.15-.25-1.15.65 2q.55 2.4 1.05 3.15l1.1 1.25.8.8.4.4q.25.25.5 1.05l.1.2.05.15.1.35.15 1.1v.4l-.75.85" fill="#7e4630"/><path d="M84.3 40.65v-.35l-.2-2.05.45 1.85v.05l-.1.2-.15.3" fill="#9f5d3c"/><path d="M79.1 32.15v-.4l-.15-1.15-.4-1.4.5.65.1.2.25 1.15.05.15.2 1.25q.3 1.7.85 2.6.35.6 1.85 2.2 1.2 1.25 1.4 2.3l-.65-.7.1.3.2 1.2v.65l-.15-.5-.15-.6.05.75-.25 1.05-.05.05q-.6.65-.95.45l.35-.3.45-1.2-.05-1.8q-.1-1.1-1.1-2.1l-1.25-1.5-.35-.75-.25-.45-.25-.7-.1-.45-.25-.95" fill="#612e1d"/><linearGradient id="ak" gradientUnits="userSpaceOnUse" gradientTransform="matrix(.00414 -.0024 .0046 .00793 79.4 43.75)" x1="-819.2" x2="819.2"><stop offset="0" stop-color="#6e3f2d"/><stop offset=".608" stop-color="#985942"/><stop offset="1" stop-color="#3a1406"/></linearGradient><path d="M81.05 44.1l-1.15 3-.2.35.1-.35 1.35-6v-1.15l.05.25.15-.7.15-.75h.05l.15 2.6-.3 1v.05l-.1.2.2-.05-.45 1.55m-.55-6.85v-.1l.35 1.55.3 1.25h-.1l-.6 2.45-.75 1.85.5-2.6.35-3.25-.05-1.15" fill="url(#ak)"/><linearGradient id="al" gradientUnits="userSpaceOnUse" gradientTransform="matrix(-.00401 .00398 -.00647 -.0065 79.8 44.3)" x1="-819.2" x2="819.2"><stop offset="0" stop-color="#6e3f2d"/><stop offset=".141" stop-color="#7f4c39"/><stop offset=".345" stop-color="#b68461"/><stop offset="1" stop-color="#5a2714" stop-opacity=".8"/></linearGradient><path d="M80.4 47.05v.05q-1.15 3.2-3.1 5.1v-.1l1.35-2.4.85-2.6.05-.45-.2.45-.85 1.45L77.3 50l1.6-2.9.3-.55q.95-2 1.2-3.9-.4 2.3-1.6 4.3l-.05.15-2.4 3.05 1.55-2.7.15-.35.9-2.15-1.2 2.15v.1l-1.55 2 1.3-2.1L79 44l.5-1.4q.65-2.1.65-4.2v-.05l.15-.55.2-.55.05 1.15-.35 3.25-.5 2.6.75-1.85.6-2.45h.1v1.15l-1.35 6-.1.35.2-.35 1.15-3 .45-1.55.1-.05-1.2 4.55" fill="url(#al)"/><path d="M80.85 38.7l-.35-1.55v.1l-.2.55-.15.55v-.25L80 37v-.05l-.35-2.15-.3-1.7.1.45.25.7.25.45.35.75 1.25 1.5q1 1 1.1 2.1l.05 1.8-.45 1.2-.35.3-.3.15-.1.05-.2.05.1-.2v-.05l.3-1-.15-2.6h-.05l-.15.75-.15.7-.05-.25-.3-1.25" fill="#30170d"/><path d="M67.05 17.5l-.15.1v.15H68l-.8.3-.75.4L68 18.2l1.5-.2h-1.05l.5-.3.5-.2-1.15-.25.6-.1.35.2.7.2v.05l-.65.15.8.15.7.25-.6.25-.7.2-.05.05 1.45.1 1.3.25-1.05.1-1.05.25 1.5.25 1.3.3-.45.05-.55-.15-1-.1-1.4.25q-.85.25-1.5.75l1.65-.5.95-.15.3-.05h1.9l-.75.1h-.45l-1.85.25q-1.55.25-2.55.65l.15-.25 1.7-.85-1.8.45.55-.5.7-.4h-.05l-1.35.65-.9.45-.25.15 1.15-1.1h-.05l-.45.1h-.2v-.05l.2-.15h-1.35q.15-.4 1-.7l1.3-.35h-.25l-.5.1-.55.1h-.4l.4-.35.5-.3-.35-.1-.25-.05.9-.35m1.95.85q-3 .55-3.05.85l1.35-.1-.05.1-.05.05-.45.2h.1l.55-.1.6-.15h.35l-1.65.85h.05q1.85-1 4.5-1.1l-.55-.1-.6-.05h-1.25l.45-.2.9-.35-1.2.1" fill="#b16b33"/><path d="M66.4 20.7l-1.4.4.55-.65.7-.65h-.05l-1.55-.05.65-.7h-.2l-.7.15-.7.2.45-.45q1-.7 1.95-1.1h.05l.25.05.35.1-.5.3-.4.35h.4l.55-.1.5-.1h.25l-1.3.35q-.85.3-1 .7h1.35l-.2.15v.05h.2l.45-.1h.05l-1.15 1.1.25-.15.9-.45 1.35-.65h.05l-.7.4-.55.5-.85.35" fill="#9c5027"/><linearGradient id="am" gradientUnits="userSpaceOnUse" gradientTransform="matrix(.00423 -.00185 .00041 .00093 70 21.25)" x1="-819.2" x2="819.2"><stop offset="0" stop-color="#b16b33"/><stop offset=".447" stop-color="#d49740"/><stop offset="1" stop-color="#954c26"/></linearGradient><path d="M68.3 17.25l1.15.25-.5.2-.5.3h1.05l-1.5.2-1.55.25.75-.4.8-.3h-1.1v-.15l.15-.1.55-.15.7-.1m1.9 1l-.9.35-.45.2h1.25l.6.05.55.1q-2.65.1-4.5 1.1h-.05l1.65-.85H68l-.6.15-.55.1h-.1l.45-.2.05-.05.05-.1-1.35.1q.05-.3 3.05-.85l1.2-.1" fill="url(#am)"/><linearGradient id="an" gradientUnits="userSpaceOnUse" gradientTransform="matrix(.00256 -.00148 .00288 .00427 71 20.3)" x1="-819.2" x2="819.2"><stop offset=".447" stop-color="#954b26"/><stop offset="1" stop-color="#4c2919"/></linearGradient><path d="M72.45 19.95l.45-.05-1.3-.3-1.5-.25 1.05-.25 1.05-.1-1.3-.25-1.45-.1.05-.05.7-.2.6-.25-.7-.25-.8-.15.65-.15v-.05l-.7-.2-.35-.2h.1l1 .2.2.1.35.2-.3-.05-.2-.05 1.2.75v.05h-.5l-.2.05-.15.05h-.05l-.1.05h-.05l-.3.1 1.65.15 1.25.25.35.1v.1l-2.25.2 1.45.15q.8.2 1.05.5l-.6-.05-.35-.05" fill="url(#an)"/><path d="M71.8 18.25l-1.2-.5.8.65-.75.05h-.25l.15-.05.2-.05h.5v-.05l-1.2-.75.2.05.3.05-.35-.2-.2-.1-1-.2q1.1-.05 1.9.35l-.1-.65.55.55.35-.55.5-.65v.05l-.2.65-.05.45q0-.05.4-.15l.6-.3-.05.2-.05.25.2-.05.25-.05.35.15.15.35.75.15q1.4.3 2.5 1.05l-.85-.15h-1.05l.1-.25.05-.3-.75.3-.1.05.1-.15.2-.45-.2.15q-.1.05-.25.15l-.35.25-.1-.65h-.15l-.7.3.05-.2.05-.25H73l-.35.35-.25.3-.85-1v.1l.25.65v.1" fill="#7c4b33"/><radialGradient id="ao" gradientUnits="userSpaceOnUse" gradientTransform="matrix(.00418 .00104 -.00066 .00226 73.45 19.25)" spreadMethod="pad" cx="0" cy="0" r="819.2" fx="0" fy="0"><stop offset="0" stop-color="#120c0a"/><stop offset="1" stop-color="#513227"/></radialGradient><path d="M73.4 19.25l-.25-.1v-.05l-.35-.1-1.25-.25-1.65-.15.3-.1h.05l.1-.05h.3l.75-.05-.8-.65 1.2.5v-.05l.6.25 1.9 1.4-.9-.6" fill="url(#ao)"/><linearGradient id="ap" gradientUnits="userSpaceOnUse" gradientTransform="matrix(.00359 0 0 .00246 63.25 20.95)" x1="-819.2" x2="819.2"><stop offset="0" stop-color="#6e3420"/><stop offset="1" stop-color="#954c26"/></linearGradient><path d="M64.15 18.95l-.45.45.7-.2.7-.15h.2l-.65.7 1.55.05-.8.35h-.1l-1.2.6.1-.1.35-.35-.1.05q-1.25.5-2.4 1.35l-1.75 1.25.2-.2h-.05l.7-1.1.2-.35 1.05-.95.55-.5 1.2-.9m-.4.95l-.85.9 2.05-1.4-1.2.5" fill="url(#ap)"/><linearGradient id="aq" gradientUnits="userSpaceOnUse" gradientTransform="matrix(.00316 0 0 .00223 61.95 22.1)" x1="-819.2" x2="819.2"><stop offset="0" stop-color="#67301f"/><stop offset="1" stop-color="#9c5027"/></linearGradient><path d="M60.6 23.4l-1.25.55v-.1l.2-.3.05-.15 1.75-2.1-.2.35-.7 1.1h.05l-.2.2 1.75-1.25q1.15-.85 2.4-1.35l.1-.05-.35.35-.1.1q-1.95 1.05-3.35 2.55l-.15.1" fill="url(#aq)"/><path d="M58.85 28.55l-1.25 2.6-.05.1-.05.1.05-.15.05-.2.15-.6.6-1.8 1.25-2.75-.95.75-.55.55q1.05-1.95 2.1-3.2l.55-.65q1.4-1.5 3.35-2.55l1.2-.6h.1l.8-.35-.6.4-.85.7-.25.15-.05.1q-3 2.6-4.3 4.85l-.85 1.65-.45.9" fill="#612712"/><linearGradient id="ar" gradientUnits="userSpaceOnUse" gradientTransform="matrix(.001 -.00807 .00516 .00026 69 21.65)" x1="-819.2" x2="819.2"><stop offset="0" stop-color="#743825"/><stop offset="1" stop-color="#9c5027"/></linearGradient><path d="M63.8 22.4l3.55-1.65-.15.25q1-.4 2.55-.65l1.85-.25h.45l.85.2q0 .65-.45 1l-.85.5.85-.15.75-.1.15-.05h.2l-.6.25q-1.4.5-2.15 1.05l-1.15.8q-.4.25-1.05.8l-3 2.4.5-.65.5-.55 1.4-1.25 2.6-1.9-.7.25-.5.3 1.05-.95q-.7.2-1.45.5l-2 .75-2.1 1.25-.65.55.15-.45 1.4-1.5 1-.85.8-.5.15-.1.15-.1h-.05q-1.55.35-3.2 1.55l-.2.15-2.15 1.85q-.9.9-1.4 1.9V27l.6-1.2.1-.1 3.1-3.45q-1.35.8-2.45 2.05l.15-.45h-.05l-1.8 2.45-1.35 1.95v-.05l.1-.55.85-1.65q1.3-2.25 4.3-4.85l.05-.1.25-.15-.7.8-.4.5v.05l.85-.6.75-.3q-.75.45-1.45 1.05m1.5.05l.95-.45 1.15-.45 1.05-.5h-.2q-1.05.05-2.05.6-.85.45-1.55 1.2.05-.05.2-.15.1-.1.45-.25m3.15-1l-.35.25-.55.4h.05q.7-.55 2.1-.95l2.8-.5-.35-.2-.55-.05-1.95.4q-.4.15-1.2.65m2.15.6l.9-.55 1-.6-1.2.3-1.15.45q-.75.3-1.6.85l-.05.05 1.25-.5 1.3-.55-.25.3-.2.25m.4.2l-.95.9 2-1.3q-.5.05-1.05.4m-6.1 2.1q4.2-2.75 6.95-3.5-4.2.5-6.95 3.5" fill="url(#ar)"/><path d="M65.25 21.35l-.75.3-.85.6v-.05l.4-.5.7-.8.85-.7.6-.4h.05l-.7.65-.55.65 1.4-.4-1.15.65" fill="#893d23"/><path d="M64.95 19.4l-2.05 1.4.85-.9 1.2-.5m-.1 3.3q-.15.1-.2.15.7-.75 1.55-1.2 1-.55 2.05-.6h.2l-1.05.5-1.15.45-.95.45q-.35.15-.45.25" fill="#72321c"/><path d="M61.5 25.15q-.95 1.25-1.95 3.9.85-1.75 1.95-3.25l-.6 1.2v.05q.5-1 1.4-1.9l2.15-1.85-1.3 1.15-.05.05-.4.5-1.4 1.95-.5.85-.15.35-.2.5.95-1.1 1-.8-.8 1-.8 1.2v.1l.55-.65.25-.25-.85 1.6-.7 2 .6-.85q1.15-1.6 1.85-2.25l-.15.3-1.4 2.95q.6-1.15 2.45-2.8h.1q-.6.45-.9 1.35l-.15.65.8-1.25 1.45-1.45h.1l-1 1.3-.8 1.35-.1.3-.25.65-.05.1q-1.25 2.15-1.75 4.1l-.15.55h.05l-.2.55-.3 1.3.05-.5.15-1.1-.45 1.3-.25.75.25-1.65.2-1.85-.65 1.85-.25.85-.1.8v-.8l.1-.85.15-.8.15-.8q-.3.25-.65.85l-.25.7V37l.1-1.25-.55 1.3v.1l-.4 1.55q-.25-2.05-.15-3.55l.2-1.7.1-.65-.7 1.85-.3 1.1v-.6l.1-1.35.15-1.05.15-.9-.45 1.05-.25.6-.1.4v-1.35l.05-.15v-.45l.05-.3.3-1.85.85-2.9q.55-1.5 1.6-3.25l.1-.1-.2.3v.1l1.25-.55.15-.1-.55.65q-1.05 1.25-2.1 3.2l.55-.55.95-.75-1.25 2.75-.6 1.8-.15.6-.05.2v-.3l.15-1.5.65-2.25q-.85 1.45-1.1 2.65l-.3 1.85.1-.25.25-.3h.1l.05 1.05.1 1.1.7-2.1.95-2.2-.6 1.05-.15.2-.35.5-.5.6v-.15l1.25-2.6.45-.9-.1.55v.05l1.35-1.95 1.8-2.45h.05l-.15.45-.75.85m8.85.3l-1.35 1 .5-.2.25-.1.2-.1-.55.5-.6.65v.05l.8-.55.75-.4q-.6.15-1.55 1.45l-.15.2-2.05 1.6.25-.55 1-1.25-.55.2-.45.1.05-.1 2.4-1.9-1.6.8.2-.15 4.1-2.55h-.15l-.7.15-.75.45.1-.1 1.5-1.4.35-.3 1.05-.35h.05l-.2.1q-.35.15-.75.45l-.15.15-.85.7.4-.2.6-.2-.35.2-.4.25.5-.1.15-.05-2.05 1.55m2.1-1.55h.15l-.25.15-.05.1.15-.25m0 .9h-.1l1.3-1.3v-.05h-.05q-.05 0-.35.15l-.6.2q.45-.45 1.4-.65l-.7.8-.9.85m-12.3 3.95l.05-.2q-.75 1.05-1.35 2.25-.6 1.2-.85 3l.15-.25.25-.4.05-.05-.35 1.8-.15 1.55v.3l.25-.6.45-.95.45-.75.45-1-.1.4-.05.2-.05.3-.2.95v.05l.45-.95.55-1.05h.05l-.45 1.75v.05l.35-.5.35-.5-.05 1.05-.05 1.15h.1l.65-2 .55-1.25v-.15l-.35.5-.3.4.75-2.25-.75.95q-.5.65-.65 1.25v-.35l.15-.5.75-2.2q-.7.9-1.15 1.95l-.25.6v-.35l.45-1.15-1 .9v-.15l.15-1.15q.15-1.15.65-2.55v-.05h.05v-.1.05m3.55 2.35l1-.8-.8 1.55-.25.6v.1l-.3.95q-1.05 1.65-1.75 3.4l-.25.65v.05l-.4 1.3v-.1l.15-1.55v-.35l-.25.55-.1.1.5-1.05.05-.05.05-.05v1.15l.2-1.55.05-.05.3-1.1.3-.85.35-.85.15-.4 1-1.65m6.25-5.05l.15-.15v.1l-.15.05m-6.9 6.4l-.35.6-.55 1.2q-.4.9-.5 1.75l1.1-2.1q.7-1.2.75-2.15l-.3.35-.15.35" fill="#67301f"/><path d="M62.25 24.3q1.1-1.25 2.45-2.05l-3.1 3.45-.1.1q-1.1 1.5-1.95 3.25 1-2.65 1.95-3.9l.75-.85m4.1-.5l-.1.1-.8.45v.05h-.05q-1.45 1.05-2.2 2.1l.9-.5h.05l-1.65 2.65q-.7.65-1.85 2.25l-.6.85.7-2 .85-1.6-.25.25-.55.65v-.1l.8-1.2.8-1-1 .8-.95 1.1.2-.5.15-.35.5-.85L62.7 25l.4-.5.05-.05 1.3-1.15.2-.15q1.65-1.2 3.2-1.55h.05l-.15.1-.15.1-.8.5-1 .85-1.4 1.5-.15.45.65-.55L67 23.3l2-.75q-1.3.5-2.65 1.25m-2.1 3.35l1.2-.95q-1.55 1.4-2.15 2.3l-.95 1.35q.65-1.8 2.35-3.75l-.45 1.05" fill="#5e2917"/><linearGradient id="as" gradientUnits="userSpaceOnUse" gradientTransform="matrix(.0075 -.00055 .00055 .0064 66.95 27.55)" x1="-819.2" x2="819.2"><stop offset="0" stop-color="#622916"/><stop offset="1" stop-color="#3a160a"/></linearGradient><path d="M62.7 32.75l1.9-3.5L62.65 32l.25-.65.1-.3.8-1.35 1-1.3h-.1l-1.45 1.45-.8 1.25.15-.65q.3-.9.9-1.35h-.1q-1.85 1.65-2.45 2.8l1.4-2.95.15-.3L64.15 26h-.05l-.9.5q.75-1.05 2.2-2.1h.05v-.05l.8-.45-.05.05.4-.15.2-.1.95-.35-1.55.95-1.05.85.35-.15.25-.1.2-.05.05-.05.05-.05-.05.1-.3.4-.8 1.1h.05l1.4-1.1-.1.15-.7 1-.6.9.65-.7.5-.45-.5.65 3-2.4-1.15 1.15.8-.45.95-.65h.1l-1.95 1.65q-1.05 1-1.95 2.4l2-1.95 1.7-1.4q1.45-1.2 2.15-1.65l1-.65 1.1-.7-1 .8-.35.3-1.5 1.4-.1.1.75-.45.7-.15H72l-4.1 2.55-.2.15 1.6-.8-2.4 1.9-.2.15-.95 1q-.65.8-.95 1.65v-.1l.2-1.35.05-.15-1.15 1.65-.2.3-1 1.65m4.95-7.2L66.1 26.7q-.5.65-.65 1.25l.95-1.25 1.3-1.15h-.05m-2.95.55q-1.7 1.95-2.35 3.75l.95-1.35q.6-.9 2.15-2.3l-1.2.95.45-1.05" fill="url(#as)"/><linearGradient id="at" gradientUnits="userSpaceOnUse" gradientTransform="matrix(.00317 0 0 .00153 66.45 21.15)" x1="-819.2" x2="819.2"><stop offset="0" stop-color="#6e3420"/><stop offset="1" stop-color="#954c26"/></linearGradient><path d="M65.25 21.35l1.15-.65.85-.35 1.8-.45-1.7.85-3.55 1.65q.7-.6 1.45-1.05" fill="url(#at)"/><linearGradient id="au" gradientUnits="userSpaceOnUse" gradientTransform="matrix(.0042 -.00113 .00026 .00098 70.05 21.25)" x1="-819.2" x2="819.2"><stop offset="0" stop-color="#874325"/><stop offset=".608" stop-color="#dea554"/><stop offset="1" stop-color="#954c26"/></linearGradient><path d="M72.8 20h-1.9l-.3.05-.95.15-1.65.5q.65-.5 1.5-.75l1.4-.25 1 .1.55.15.35.05m-3.15.8l1.95-.4.55.05.35.2-2.8.5q-1.4.4-2.1.95h-.05l.55-.4.35-.25q.8-.5 1.2-.65m1.15 1l.25-.3-1.3.55-1.25.5.05-.05q.85-.55 1.6-.85l1.15-.45 1.2-.3-1 .6-.9.55.2-.25" fill="url(#au)"/><linearGradient id="av" gradientUnits="userSpaceOnUse" gradientTransform="matrix(-.00247 .00133 -.00116 -.00188 68.3 23.85)" x1="-819.2" x2="819.2"><stop offset="0" stop-color="#3d170b"/><stop offset=".592" stop-color="#502112"/></linearGradient><path d="M67.3 24.7l1-.9-2.35 1.25L66 25l1.65-1.3 1.15-.7-1.05.35-.95.35-.2.1-.4.15.05-.05.1-.1q1.35-.75 2.65-1.25.75-.3 1.45-.5L69.4 23l.5-.3.7-.25-2.6 1.9-1.4 1.25q.2-.45.7-.9" fill="url(#av)"/><linearGradient id="aw" gradientUnits="userSpaceOnUse" gradientTransform="matrix(.00294 -.00159 .0014 .00227 67.05 24.95)" x1="-819.2" x2="819.2"><stop offset="0" stop-color="#4c1f10"/><stop offset=".475" stop-color="#662e18"/><stop offset="1" stop-color="#4c1f10"/></linearGradient><path d="M67.75 23.35L68.8 23l-1.15.7L66 25l-.05.05 2.35-1.25-1 .9q-.5.45-.7.9l-.5.55-.5.45-.65.7.6-.9.7-1 .1-.15-1.4 1.1h-.05l.8-1.1.3-.4.05-.1-.05.05-.05.05-.2.05-.25.1-.35.15 1.05-.85 1.55-.95" fill="url(#aw)"/><linearGradient id="ax" gradientUnits="userSpaceOnUse" gradientTransform="matrix(.00504 0 0 .00412 69.5 25.1)" x1="-819.2" x2="819.2"><stop offset="0" stop-color="#4c1f10"/><stop offset="1" stop-color="#1c0e09"/></linearGradient><path d="M73.35 22.15l-1.1.7-1 .65q-.7.45-2.15 1.65l-1.7 1.4-2 1.95q.9-1.4 1.95-2.4l1.95-1.65h-.1l-.95.65-.8.45 1.15-1.15q.65-.55 1.05-.8l1.15-.8q.75-.55 2.15-1.05l-.25.2V22h.6l.35-.05-.3.2M70.6 23.3l.4-.15q-.25.15-.6.45l-.35.45 1.1-.9 1.1-.8h-.05q-.55.1-1.25.55-.7.5-.45.5l.1-.1" fill="url(#ax)"/><path d="M70.5 23.4q-.25 0 .45-.5.7-.45 1.25-.55h.05l-1.1.8-1.1.9.35-.45q.35-.3.6-.45l-.4.15-.1.1" fill="#4f261a"/><radialGradient id="ay" gradientUnits="userSpaceOnUse" gradientTransform="matrix(.00418 .00104 -.00066 .00226 74.1 19.8)" spreadMethod="pad" cx="0" cy="0" r="819.2" fx="0" fy="0"><stop offset="0" stop-color="#231712"/><stop offset="1" stop-color="#4a2b21"/></radialGradient><path d="M76.45 19.2l.85.85H77l.6 1.25-.35-.2-.05-.05-1.2-.15.2.15.1.25-.7-.05-.7.05v-.05l-.3-.25h.05v-.05h.05l.5-.25 1-.25-.5-.2-.55-.1 1.6-.1-.7-.25-.75-.05 1.05-.65v-.05l-.8.3q-.55.3-.7.75v-1.45l-.1.25-.15 1.1-.05-.15q-.35-.65-.85-.95l.15.15.45.75v.05l-1.9-1.4-.6-.25v-.05l-.25-.65v-.1l.85 1 .25-.3.35-.35h.1l-.05.25-.05.2.7-.3h.15l.1.65.35-.25q.15-.1.25-.15l.2-.15-.2.45-.1.15.1-.05.75-.3-.05.3-.1.25h1.05l.85.15V19l-.35.15-.1.05h-.15m-3.2 1.2l-.35-.1-.85-.2.75-.1.6.05q-.25-.3-1.05-.5l-1.45-.15 2.25-.2v-.05l.25.1.9.6v.05l-.3-.1-.2-.1h-.1l.5.6.35.65-1.3-.55" fill="url(#ay)"/><path d="M74.55 20.95l-.35-.65-.5-.6h.1l.2.1.3.1v-.1l-.45-.75-.15-.15q.5.3.85.95l.05.15.15-1.1.1-.25v1.45q.15-.45.7-.75l.8-.3v.05l-1.05.65.75.05.7.25-1.6.1.55.1.5.2-1 .25-.5.25h-.05V21h-.05l-.05-.05" fill="#231712"/><linearGradient id="az" gradientUnits="userSpaceOnUse" gradientTransform="matrix(.00304 0 0 .00307 73.6 22.5)" x1="-819.2" x2="819.2"><stop offset="0" stop-color="#934a25"/><stop offset=".592" stop-color="#2e1c15"/><stop offset="1" stop-color="#593a2a"/></linearGradient><path d="M75.3 21.85l.15.45-.15-.1-.1.05.15.25.1.1.1.25h-.25l-.1.1.2.3.15.35v.05l-.1.15-.1.1.2.35.15.45h-.1l.15.15.05.1.2.25-.3-.1-.7-.35v-.05h-.1l-.15-.05v-.45l-.05-.2.05-.15.1-.2-.25-.6.05-.2.2-.1-.2-.35-.1-.05-.1-.1.1-.1h.2l-.2-.25-.15-.2-.15-.3-.1.3-.05.05v-.1l-.4.25-.05.05-.35.05h-.6v-.05l.25-.2.6-.25h-.2l-.15.05-.75.1-.85.15.85-.5q.45-.35.45-1l.35.1 1.3.55.05.05.3.25v.05l.4.55" fill="url(#az)"/><linearGradient id="aA" gradientUnits="userSpaceOnUse" gradientTransform="matrix(.00139 0 0 .00233 76.05 22.8)" x1="-819.2" x2="819.2"><stop offset="0" stop-color="#40281e"/><stop offset=".592" stop-color="#875435"/></linearGradient><path d="M76.6 24.3v.2l-.35-.15-.4-.15.3.25.3.25h-.75l-.15-.45-.2-.35.1-.1.1-.15v-.05l-.15-.35-.2-.3.1-.1h.25l-.1-.25-.1-.1-.15-.25.1-.05.15.1-.15-.45-.4-.55.7-.05.7.05-.1-.25-.2-.15 1.2.15h-.1l-.75.3.15.1-.35.05.05.05.45.4h-.9l.1.1.6.45.1.05.2.2-.4.05h-.5l.6.55.2.25h-.45l-.25-.1-.25-.05h-.1l.2.05.35.3.1.1.35.4" fill="url(#aA)"/><linearGradient id="aB" gradientUnits="userSpaceOnUse" gradientTransform="matrix(.00383 0 0 .00192 74.3 23.65)" x1="-819.2" x2="819.2"><stop offset="0" stop-color="#934a25"/><stop offset=".592" stop-color="#2e1c15"/><stop offset="1" stop-color="#593a2a"/></linearGradient><path d="M73.35 23.95l.7-.8q-.95.2-1.4.65v-.05q.4-.6.95-.85h-.05l-.5.1.15-.25.05-.05.2-.1h-.05l-1.05.35 1-.8.3-.2.05-.05.4-.25v.1l-.1.2h.3V22h.1l-.3.35.15.15.05.15-.15.5h.3l-.05.3-.1.25h.25v.05L73.3 24.8l.05-.05.55-.8h-.1l-.6.4-.75.45.9-.85" fill="url(#aB)"/><path d="M73.25 22.7l-.05.05-.15.25.5-.1h.05q-.55.25-.95.85v.05h-.2l.3-.3.3-.35v-.05h-.2l-.35.05q.4-.3.75-.45" fill="#673a24"/><path d="M73.25 23.6q.3-.15.35-.15h.05v.05l-1.3 1.3h.1l.55-.25.5-.25-.95.85-1.25.9 1.05-1.1h-.05l-.7.3-.5.25 1.25-1.45.25-.15h-.2l-.15.05-.5.1.4-.25.35-.2-.6.2-.4.2.85-.7.15-.15.35-.05h.2v.05l-.3.35-.3.3h.2l.6-.2" fill="#a0613a"/><linearGradient id="aC" gradientUnits="userSpaceOnUse" gradientTransform="matrix(.0042 -.00113 .00026 .00098 70.05 21.25)" x1="-819.2" x2="819.2"><stop offset="0" stop-color="#874325"/><stop offset=".608" stop-color="#cd9545"/><stop offset="1" stop-color="#954c26"/></linearGradient><path d="M72.05 21.85l-2 1.3.95-.9q.55-.35 1.05-.4" fill="url(#aC)"/><path d="M72.55 25.35l-1.65 1.1-.35.25-.55.35-1.35.9.15-.2q.95-1.3 1.55-1.45l-.75.4-.8.55v-.05l.6-.65.55-.5-.2.1-.25.1-.5.2 1.35-1 2.05-1.55h.05l-.15.25.05-.1-1.25 1.45.5-.25.7-.3h.05l-1.05 1.1 1.25-.9.95-.85-.5.25-.55.25.75-.45.6-.4h.1l-.55.8-.05.05-.75.55m-8.9 7.2v-.1l.25-.6.8-1.55-1 .8.2-.3 1.15-1.65-.05.15-.2 1.35v.1q.3-.85.95-1.65l.95-1 .2-.15-.05.1.45-.1.55-.2-1 1.25-.25.55-.55.45-.95 1.1-1.45 1.95-.2.3-.1.15.3-.95M70.1 26v-.1l-.15.15.15-.05" fill="#5d2615"/><path d="M76.75 21.4l.65-.1-.35.1-.05.05v.05l.6.3.45.45-.95-.15.75.35.5.55h-.4l-.2-.05-.25-.05h-.15l-.8-.35-.1-.05-.6-.45-.1-.1h.9l-.45-.4-.05-.05.35-.05.25-.05m-.2.1l.1.2.1.3h-.45l.2.25.15.15.65.05h.15l-.65-.4.3-.1.4-.15-.5-.2-.45-.1" fill="#8e4d27"/><path d="M74.55 24.4l-.05-.05-.1-.1v-.1l.05-.2.15-.25h-.3l.1-.25.05-.3h-.3l.15-.5-.05-.15-.15-.15.3-.35h-.1v-.05H74l.1-.2.05-.05.1-.3.15.3.15.2.2.25h-.2l-.1.1.1.1.1.05.2.35-.2.1-.05.2.25.6-.1.2-.05.15.05.2v.4l-.2-.2" fill="#734c36"/><path d="M75.8 25.5l.25.4h-.2l-.2-.25-.5-.35-.1.25-.05.35-.05-.05h-.05v-.35l-.05-.35-.1.05h-.05l-.05.15-.1.05-.1-.3-.05-.3-.3.3-.3.3v-.05l.1-.45.05-.15-.55.35-.4.15-.2.1.5-.55 1.25-1.05v-.05h.05l-.15.25-.05.2v.1l.1.1.05.05.2.2v.05l.15.05h.1v.05l.7.35.1.4" fill="#5c3322"/><linearGradient id="aD" gradientUnits="userSpaceOnUse" gradientTransform="matrix(.00208 -.0002 .00014 .00238 76.9 22.75)" x1="-819.2" x2="819.2"><stop offset="0" stop-color="#7c4729"/><stop offset=".443" stop-color="#b46d42"/><stop offset=".604" stop-color="#7f4427"/><stop offset="1" stop-color="#642c1b"/></linearGradient><path d="M75.8 24.95l-.05-.1-.15-.15h.85l-.3-.25-.3-.25.4.15.35.15v-.2l-.35-.4.65.35.75.45.55.55-1.45-.65v.05l.55.35.45.35-.65-.2-.45-.05q1.6.55 2.6 2.7l-.45-.65-.05-.05-.2-.25-.05-.05-.65-.6-1.2-.8-.85-.45m0-1.45l-.2-.05h.1l.25.05.25.1h.45l-.2-.25-.6-.55h.5l.45.1-.1.05.2.05h-.1l.8.55.2.25-1.15-.45.9.8.05.05.35.3-.3-.2-1.05-.5.2.15q-.4-.25-1-.45" fill="url(#aD)"/><linearGradient id="aE" gradientUnits="userSpaceOnUse" gradientTransform="matrix(.00208 -.0002 .00014 .00238 76.9 22.75)" x1="-819.2" x2="819.2"><stop offset="0" stop-color="#7c4729"/><stop offset=".443" stop-color="#b46d42"/><stop offset="1" stop-color="#642c1b"/></linearGradient><path d="M77 21.6l.5.2-.4.15-.3.1.65.4h-.15l-.65-.05-.15-.15-.2-.25h.45l-.1-.3-.1-.2.45.1" fill="url(#aE)"/><linearGradient id="aF" gradientUnits="userSpaceOnUse" gradientTransform="matrix(.00252 0 0 .00572 78.6 27.7)" x1="-819.2" x2="819.2"><stop offset="0" stop-color="#793b21"/><stop offset=".345" stop-color="#642b16"/><stop offset=".761" stop-color="#5b2713"/><stop offset="1" stop-color="#793b21"/></linearGradient><path d="M80.45 31.75l-.2-.95-.15-.5-.7-2.1-.05-.1-.1-.3q-1-2.15-2.6-2.7l.45.05.65.2-.45-.35-.55-.35v-.05l1.45.65-.55-.55-.85-.75-.2-.15 1.05.5.3.2-.35-.3-.05-.05-.9-.8 1.15.45.45.15-.65-.4-.8-.55h.4l1.05.4.75.45.25.15v.05h-.15l-.35-.1-.4-.25h-.05l.85.9.65.9-.4-.25-.2-.1.2.25.3.75v.05l-.35-.4-.45-.4q.7.75 1.05 1.6l.6 1.55-.5-.6-.65-.7.45 1.1.4 1.2.25 1.35.15.9v.6l-.2-.65m-1.5-6.8h-.05l.1.05-.05-.05" fill="url(#aF)"/><path d="M71.85 20.85q-2.75.75-6.95 3.5 2.75-3 6.95-3.5" fill="#52210f"/><path d="M57.55 31.2l-.05.15.05-.1.05-.1v.15l.5-.6.35-.5.15-.2.6-1.05-.95 2.2-.7 2.1-.1-1.1-.05-1.05h-.1l-.25.3-.1.25.3-1.85q.25-1.2 1.1-2.65l-.65 2.25-.15 1.5v.3m5.65.9l.3-.35q-.05.95-.75 2.15l-1.1 2.1q.1-.85.5-1.75l.55-1.2.35-.6.15-.35" fill="#733927"/><linearGradient id="aG" gradientUnits="userSpaceOnUse" gradientTransform="matrix(-.00162 .00604 -.00497 -.00133 59.85 32.8)" x1="-819.2" x2="819.2"><stop offset="0" stop-color="#67301f"/><stop offset=".443" stop-color="#77402f"/><stop offset="1" stop-color="#67301f"/></linearGradient><path d="M60.15 28.7v.1h-.05v.05q-.5 1.4-.65 2.55l-.15 1.15v.15l1-.9-.45 1.15v.35l.25-.6q.45-1.05 1.15-1.95l-.75 2.2-.15.5v.35q.15-.6.65-1.25l.75-.95-.75 2.25.3-.4.35-.5v.15l-.55 1.25-.65 2h-.1l.05-1.15.05-1.05-.35.5-.35.5v-.05l.45-1.75h-.05l-.55 1.05-.45.95v-.05l.2-.95.05-.3.05-.2.1-.4-.45 1-.45.75-.45.95-.25.6v-.3l.15-1.55.35-1.8-.05.05-.25.4-.15.25q.25-1.8.85-3t1.35-2.25l-.05.2v-.05" fill="url(#aG)"/><path d="M60.2 38.85l.2-.55.35-.7v-.05l.1-.1.25-.55v.35l-.15 1.55v.1q-.5 1.9-.6 3.9v.7l.1 1.9q.2.8 1.15 1.7l.4.35v.05l-.8-.05-.2-.35-.65-1.35q-.35-1-.3-2.85l-.05 1v.9l.05 1.2v-.1H60l-.15-.65-.1-.35-.05-.05-.05-1 .05-.95.25-1.95.65-2.05-.3.65-.15.3-.15.2v-.4l-.1.25-.2.85-.65 1.2.05-.45.2-.9v-.05l-.3.8-.25.85h-.05l-.05-.35v-.35l.05-.75.05-.3.15-1-.05.15v-.4q-.65 1.1-.6 2l-.05-.95v-.9l-.1.55h-.05l-.05.25-.05.8-.6-2.55q-.25-1.5-.1-2.65h-.05l-.1.8-.05.9-.2-1.4-.2-1.3-.1.9-.05-1.2.1-1.9v1.35l.1-.4.25-.6.45-1.05-.15.9-.15 1.05-.1 1.35v.6l.3-1.1.7-1.85-.1.65-.2 1.7q-.1 1.5.15 3.55l.4-1.55v-.1l.55-1.3-.1 1.25v.35l.25-.7q.35-.6.65-.85l-.15.8-.15.8-.1.85v.8l.1-.8.25-.85.65-1.85-.2 1.85-.25 1.65.25-.75.45-1.3-.15 1.1-.05.5-.05.25m-1.3 4l.1-.7v.15l-.1.55" fill="#5a291b"/><path d="M59.65 40.85l-.4 2.05v.1q-.1 1 .1 1.8.2.85.65 1.25l.1.05-.05-.1-.05-1.2v-.9l.05-1q-.05 1.85.3 2.85L61 47.1l.2.35-.35-.15-.45-.2q-.35-.2-.55-.4l-.6-1.05-.2-.7-.1-.4v-.25l-.05-.05v-.1l-.05-.05v.15l-.1-.35-.05-.1-.3-.65-.1-.25-.3-.65-.3-1.05-.5-2.05-.1-.35-.4-2-.15-1.15.1-.9.2 1.3.2 1.4.05-.9.1-.8h.05q-.15 1.15.1 2.65l.6 2.55.05-.8.05-.25h.05l.1-.55v.9l.05.95q-.05-.9.6-2v.4l.05-.15-.15 1-.05.3-.05.75v.35l.05.35h.05l.25-.85.3-.8v.05l-.2.9-.05.45.65-1.2-.05.1M59 42.3v-.15l-.1.7.1-.55" fill="#4a1f13"/><path d="M64.6 29.25l-1.9 3.5-.15.4-.35.85-.3.85-.3 1.1-.05.05-.2 1.55V36.4l-.05.05-.05.05-.5 1.05v.05l-.35.7-.2.55.05-.25.3-1.3.2-.55h-.05l.15-.55q.5-1.95 1.75-4.1l.05-.1 1.95-2.75" fill="#502014"/><path d="M59.7 40.75l.2-.85.1-.25v.4l.15-.2.15-.3.3-.65-.65 2.05-.25 1.95-.05.95.05 1 .05.05.1.35.15.65h.05v.1l.05.1-.1-.05q-.45-.4-.65-1.25-.2-.8-.1-1.8v-.1l.4-2.05.05-.1" fill="#632a1c"/><radialGradient id="aH" gradientUnits="userSpaceOnUse" gradientTransform="matrix(.02144 0 0 .02711 71.4 43.05)" spreadMethod="pad" cx="0" cy="0" r="819.2" fx="0" fy="0"><stop offset="0" stop-color="#ffd7c9" stop-opacity=".518"/><stop offset="1" stop-color="#de4b12" stop-opacity=".588"/></radialGradient><path d="M79.5 42.6l.15-.6.15-1.7-.45-5.1-.85-3.75-.1-.2-1.05-1.5-1.15-1.15-1.15-1-.5-.4-.6-.3-.7.05-.55.05h-.65q-.3 0-1.4.75L68.2 29.5q-1.3 1.05-2.45 2.4-1.2 1.35-1.7 2.45l-.75 1.55-1.25 3.6-.35 1.4q-.3 1.1-.45 2.45l-.05.45.05-.9q.15-2.05.6-4.05l.3-1.1q.65-2.3 1.5-3.85l.7-1.05.15-.2q1.4-1.75 2.55-2.7l2.1-1.75 2-1.45 1.05-.65-.35.6.5-.35.65-.45-.05.3-.1.25v.2l.45-.6.1-.05.2.25.25.3v-.75l.35.15.25.4.05-.2.05-.2q.1.6.5 1l.75.8-.3-.5-.35-.75 1.25 1.35 1.7 2.1.9 2 .05.05v.05l.05.1v.1l.25.85.3 1.7.35 2.15V37l.15 1.1v.3q0 2.1-.65 4.2m-18.15-5v-.05l.25-.65q.7-1.75 1.75-3.4l.1-.15.2-.3 1.45-1.95.95-1.1.55-.45 2.05-1.6 1.35-.9.55-.35-2.4 1.95L66.7 30l-.6.6-1.45 1.45-1 1.3v.1l-1 1.85-.6 1.45L61.7 38l-.25 1.1-.6 2.75-.1 1.05v.45l-.15-.25-.15-.2-.1-.1q.1-2 .6-3.9l.4-1.3" fill="url(#aH)"/><linearGradient id="aI" gradientUnits="userSpaceOnUse" gradientTransform="matrix(.01225 -.01224 .01334 .01161 67.75 38.5)" x1="-819.2" x2="819.2"><stop offset="0" stop-color="#d49a80"/><stop offset=".071" stop-color="#804023"/><stop offset=".122" stop-color="#9c5638"/><stop offset=".216" stop-color="#98604f"/><stop offset=".282" stop-color="#702f19"/><stop offset=".486" stop-color="#b16847"/><stop offset=".62" stop-color="#642310"/><stop offset=".89" stop-color="#915133"/></linearGradient><path d="M73.15 25.5l-.1.1-.85.5-1.05.65-2 1.45-2.1 1.75q-1.15.95-2.55 2.7l-.15.2-.7 1.05q-.85 1.55-1.5 3.85l-.3 1.1q-.45 2-.6 4.05l-.05.9v.7q0 1.15.8 2.6l.35.55.8 1.35.35 1.25v.2l-.25.65-.2.85v.45l.25.5-.4-.35-.2-.75q0-.45.25-.85l.2-.7V50l-.45-1.4-.7-1.1v-.05l-.25-.35-.2-.3-.6-1.15-.25-.8v-.65l.05-.85v-.45l.1-1.05.6-2.75.25-1.1.35-1.25.6-1.45 1-1.85v-.1l1-1.3 1.45-1.45.6-.6 1.45-1.35 2.4-1.95.35-.25 1.65-1.1.75-.55-.5.55.2-.1.4-.15.55-.35-.05.15-.75.6" fill="url(#aI)"/><path d="M76.15 26.5l-.3-.5.55.35-.3-.6 1.25.5-.15-.15q.85.35 1.85 2l-.5-1.25.2.25.05.05.25.9.1.55-.75-1.2-.95-.8.75.95.7 1.45-.5-.6q-.2-.9-.8-1.5l-1.25-.9 1.05 1.15.9 1.2-.25-.3-.95-1 1.2 1.7.2.4v-.05l.05.1.4 1.4.15 1.15-1-2.85q-.7-1.4-1.95-2.4" fill="#632a18"/><path d="M79.05 28.1q-1-1.65-1.85-2l-.05-.05-.5-.65 1.2.8.65.6.05.05.5 1.25" fill="#562210"/><path d="M75.65 25.65l.2.25h.2l-.25-.4-.1-.4.3.1-.2-.25.85.45.5.65.05.05.15.15-1.25-.5.3.6-.55-.35-.2-.35" fill="#683620"/><path d="M78.4 28.4h-.05l-.05-.05-.9-1.2L76.35 26l1.25.9q.6.6.8 1.5" fill="#541c0a"/><radialGradient id="aJ" gradientUnits="userSpaceOnUse" gradientTransform="matrix(.0111 .00952 -.00627 .0073 72.5 32.1)" spreadMethod="pad" cx="0" cy="0" r="819.2" fx="0" fy="0"><stop offset=".184" stop-color="#e66d3e" stop-opacity=".988"/><stop offset="1" stop-color="#8a3e25"/></radialGradient><path d="M73.05 25.6l.1-.1v.2l.45-.3.05.4.6-.45h.05v.3h.1l.15-.05.15-.05-.05.3.25.2.35.15-.05.05.35.3.3.3.6.7.65.7.9 1.2.75 1.5.05.15.2.8.05.1-.05-.05-.9-2-1.7-2.1-1.25-1.35.35.75.3.5-.75-.8q-.4-.4-.5-1l-.05.2-.05.2-.25-.4-.35-.15v.75l-.25-.3-.2-.25-.1.05-.45.6v-.2l.1-.25.05-.3-.65.45-.5.35.35-.6.85-.5" fill="url(#aJ)"/><path d="M73.9 24.9l-.1.45v.05l.3-.3.3-.3.05.3.1.3.1-.05.05-.15h.05l.1-.05.05.35v.35h.05l.05.05.05-.35.1-.25.5.35.2.35.3.5 1.55 2.35 1.05 2.1-.75-1.5-.9-1.2-.65-.7-.6-.7-.3-.3-.35-.3.05-.05-.35-.15-.25-.2.05-.3-.15.05-.15.05h-.1v-.3h-.05l-.6.45-.05-.4-.45.3v-.2l.75-.6" fill="#6d341f"/><path d="M79.35 29.8l.3.6-.45-2.15.55 1.45.3 1.5.2.85.15 1.1.15.85.1.35q-.35-.65-.8-2.5L79 29.4l.35.4" fill="#b46339"/><path d="M79.35 33.1l-.25-.85v-.1l-.05-.1V32l-.05-.1-.2-.8-.05-.15-1.05-2.1-1.55-2.35q1.25 1 1.95 2.4l1 2.85v.4l.25.95" fill="#74311b"/><path d="M67.7 25.55l-1.3 1.15-.95 1.25q.15-.6.65-1.25l1.55-1.15h.05" fill="#52271c"/><path d="M67.1 18l-.35-.25.15-.1 3.6-.3h-.05l-.2.75v.25l.1.25.7.3-.55.6.5.05h.15l.6.15-.45.3-.1.05-.6.35v.05h.95l.65.1v.05l-.35.2-.1.05.15.2h.5l-.4.25-.4.45.7.15.1.15v.1l-.05.1-.15.35.4.3.2.1.35.1-.15.2v.05l-.15.1h.2l.45.05-.25.4-.25.3.35.1h.15l-.55.65-1.45.8h-.3l.3-.65.2-.7h-.8l.05-.05.05-.4.4-.8v-.4l-.75.05-.3-.05-.3-.05.15-.5.3-.5h-1.3l.25-.25.15-.35-.45-.05-.4-.05q.05-.3.4-.55l.6-.35V20h-.4l-.4.05-.8.15-.05-.05.55-.35.35-.5-.35-.1-.4.05-.35.05-.95-.05-.05-.05.25-.1.25-.2h-.85l-.8-.25q.1-.25.6-.4l.75-.25m9.15 3.35l-.2-1q.9.5 1.1.95l.05 1.3-.3 2.3q-.3 1.1-.5.9l.05.1-.2-.15h-.05v-.05l-.85-.55.25-.55.75-2.3-.1-.95" fill="#f3b352" fill-opacity=".149"/></g></svg>