<svg xmlns="http://www.w3.org/2000/svg" width="35" height="47"><g transform="translate(-56.55 -18.45)"><radialGradient id="a" gradientUnits="userSpaceOnUse" gradientTransform="matrix(.02084 0 0 .0213 70.8 33.15)" spreadMethod="pad" cx="0" cy="0" r="819.2" fx="0" fy="0"><stop offset=".42" stop-color="#e3522a" stop-opacity=".4"/><stop offset="1" stop-color="#f5c4a9" stop-opacity=".133"/></radialGradient><path d="M70.8 23.3q1.85 0 2.85.7.95.6 2.35 2.7.8 1.25 1.4 3.45l.8 3.85.65 3.6.45 2.7.4 1 .2.65-.5 1.2q-.5 1.1-.45.45 0-.65-.4-1.75l-.85-2.45-.95-3.1-1.05-3.6q-.6-1.8-1.6-3.45-1-1.7-2.2-2.15l-2.05-.45-1.65-.15q-.75-.15-2.2.4-1.5.6-3.15 2.8-.5.65-1.05 2.2l-.6 1.85-.35 1.3-.6 1.7-.2 1.4.05 1.45.2 1.05-.95-2-.4-.35-.05-.6q0-2.65.65-5.1.65-2.75 2.1-5L63 25.85q.75-.65 1.85-1.1l3.15-1.1 2.8-.35" fill="url(#a)"/><radialGradient id="b" gradientUnits="userSpaceOnUse" gradientTransform="matrix(.02084 0 0 .0213 70.8 33.15)" spreadMethod="pad" cx="0" cy="0" r="819.2" fx="0" fy="0"><stop offset=".361" stop-color="#e3522a" stop-opacity=".4"/><stop offset="1" stop-color="#f5c4a9" stop-opacity=".133"/></radialGradient><path d="M79.9 42.3v.05-.05" fill="url(#b)"/><linearGradient id="c" gradientUnits="userSpaceOnUse" gradientTransform="matrix(.00688 0 -.00044 .00847 78.65 25.8)" x1="-819.2" x2="819.2"><stop offset="0" stop-color="#2b2628"/><stop offset=".486" stop-color="#564c4f"/><stop offset="1" stop-color="#564a4a"/></linearGradient><path d="M76.45 20.55q.95.5 1.65 1.25l.75.9 1.9 2.65-.1-.05-.75-.35.8 1.2.85 1.35.75 1.25-.4-1.25-.35-.8-.35-.6.5.35.1.1v-.05l.05.1.5.65q-.6-1.95-2.1-3.75l-1.95-1.95-.9-.6h.05l.2.05h.15l-1-.85-.35-.25.5.7-.45-.1-.05.05m-1.75-.9l-1.2-.4q-.4-.15.3-.35l-.05-.05.5.05q.75.1 1.7.55l.4.2q1 .5 1.95 1.3l.85.7.55.45-.25-.15-1.1-.75 1.25 1.3 1.15 1.35 1.75 2.65.4.8.1.2.8 2.1-.9-1.5-.5-.6-.45-.5.35.5.15.25.3.8-.2-.25.2.4.2.65-.1-.1.1.2.05.15.05.4.05.15.5 1.35-.4-.45-.4-.55v.05l.3 1.05.35.6.1.25-.25-.25-.7-.7-.9-.95-.05-.05.9 1.6.1.1 1.25 2.2.05.1-.1-.1-.85-1.3-.55-.9-.5-.8v.1l.1.7.15.5.6 1.4-.85-1.5-.05-.2-.1-.2-.45-.75h.05l.35.5.15.1-.6-1.2.05.05.5.5-.6-1.25-.2-.45-.05-.1-.4-.65h.05l.6.6-.15-.4.3.45.05.1.05.1.4.35.45.5-.3-.5-.35-.55-.5-.75-.55-1.05.35.35.9.8-1.15-1.85-.6-1.2-1-1.5h.05l.55.1-.85-1.1-.45-.55.25.2-.65-.65-.05-.1-.05-.05h-.05l-.05-.1-.2-.15-.2-.2-.35-.25-1.9-1.4v-.05l1.3.4-1.8-.85" fill="url(#c)"/><linearGradient id="d" gradientUnits="userSpaceOnUse" gradientTransform="matrix(.00533 .00226 -.00237 .00484 78.75 23.8)" x1="-819.2" x2="819.2"><stop offset="0" stop-color="#4b4957"/><stop offset=".573" stop-color="#636578"/><stop offset="1" stop-color="#564b4f"/></linearGradient><path d="M76.5 20.5l.45.1-.5-.7.35.25 1 .85h-.15l-.2-.05h-.05l.9.6 1.95 1.95q1.5 1.8 2.1 3.75l-.5-.65-.05-.1v.05l-.1-.1-.5-.35.35.6.35.8.4 1.25-.75-1.25-.85-1.35-.8-1.2.75.35.1.05-1.9-2.65-.75-.9q-.7-.75-1.65-1.25l.05-.05" fill="url(#d)"/><linearGradient id="e" gradientUnits="userSpaceOnUse" gradientTransform="matrix(.00658 .00656 -.00818 .0074 85.3 35.2)" x1="-819.2" x2="819.2"><stop offset="0" stop-color="#564b56"/><stop offset=".427" stop-color="#79625c"/><stop offset="1" stop-color="#916d75"/></linearGradient><path d="M85.95 35.3l-.55-.65q-.85-.9-1.1-1.6l-.25-.85-.45-1.5-.15-.55-.25-.55-.45-.9-.2-.4.2.25-.3-.8-.15-.25-.35-.5.45.5.5.6.9 1.5.05.4.1.15.1.3.35 1 .2.6.05.15v.1l.55 1.7.75 1.25v.05" fill="url(#e)"/><linearGradient id="f" gradientUnits="userSpaceOnUse" gradientTransform="matrix(.00658 .00656 -.00818 .0074 85.3 35.2)" x1="-819.2" x2="819.2"><stop offset="0" stop-color="#564b56"/><stop offset=".678" stop-color="#a86c5e"/><stop offset="1" stop-color="#8c686e"/></linearGradient><path d="M85.6 35.05l-.4-.6h-.05q.3 1.05.75 1.8l.5.5.3.4.2.25.55.5.05.05.1.1-.05.05-1.1-.7-.25-.25-.1-.15-.1-.15.05.15-.4-.5-.35-.9.55 1.8.35.8.7 1.15.15.15v.05L87 39.5l-.35-.45v.05l.25.4.4.8.25 1.15q-.15-.65-.8-1.3l-.6-.65-.55-.45-1-1.1-.4-.55-.2-.65.55.65.1.15q.35.3.8.4l-.5-.55-.95-1.35q-1.15-1.8-1.15-2.55l.05-.1.45.55.5.45.1.1-.05-.1-1.25-2.2-.1-.1-.9-1.6.05.05.9.95.7.7.25.25-.1-.25-.35-.6-.3-1.05v-.05l.4.55.4.45-.5-1.35-.05-.15-.05-.4-.05-.15-.1-.2.1.1-.2-.65.45.9.25.55.15.55.45 1.5.25.85q.25.7 1.1 1.6l.55.65.1.1q.65 1.05.7 1.7h-.05v-.05l-1-1.55-.1-.45m-2.05-2.55h.05l-.05-.05v.05" fill="url(#f)"/><linearGradient id="g" gradientUnits="userSpaceOnUse" gradientTransform="matrix(.01222 .00183 -.0014 .0069 73.9 29.7)" x1="-819.2" x2="819.2"><stop offset="0" stop-color="#1c1b1f"/><stop offset=".259" stop-color="#48454f"/><stop offset=".624" stop-color="#38373e"/><stop offset="1" stop-color="#524c59"/></linearGradient><path d="M68.4 19.75l1.1-.25 1.05-.1.05-.05h.75q1.75.05 3.4.95.95.45 2.25 1.4l.15.1 1.3 1.05.45.55.85 1.1-.55-.1h-.05l1 1.5.6 1.2 1.15 1.85-.9-.8-.35-.35.55 1.05.5.75.35.55.3.5-.45-.5-.4-.35-.05-.1-.05-.1-.3-.45.15.4-.6-.6h-.05l.4.65.05.1.2.45.6 1.25-.5-.5-.05-.05.6 1.2-.15-.1-.35-.5q-.45-.65-.6-1.3l-.05-.05-.1-.5-.15-.5-.25-.8v-.2l.7.75-.5-.85-.25-.45v-.05l-.1-.25.05.05.35.2.15.05v-.05l-.65-.9v-.05l-.3-1.1-.25-.5v-.05l-.1-.15-.1-.15-.4-.7-.25-.3.15.15-.1-.25-.4-.35L77.1 22l-1.85-1.3q-2-1.05-4.1-.95l-.15.05-1.4.15h-.1l-.05.05h-.15l-.5.1-.2.05-.2.05q-.7.2-1.4.8l-.1.1-.6.7-.15.3-.15.6v.15q-.1.4-.05.75 0 .6.45 1.2l-.2-.1-.05-.05-.15-.15-.1-.1-.15-.25v-.05l-.05-.05-.05-.1-.05-.6.05-.4v.2L65.9 22l.1-.2q.25-.75 1.25-1.55h.05l.85-.4.25-.1m-2.65 3.9h.1l-.1-.05v.05" fill="url(#g)"/><linearGradient id="h" gradientUnits="userSpaceOnUse" gradientTransform="matrix(.00688 0 -.00044 .00847 78.65 25.8)" x1="-819.2" x2="819.2"><stop offset="0" stop-color="#3c3c44"/><stop offset="1" stop-color="#564a54"/></linearGradient><path d="M83.55 32.45l.05.05h-.05v-.05" fill="url(#h)"/><linearGradient id="i" gradientUnits="userSpaceOnUse" gradientTransform="matrix(.00658 .00656 -.00818 .0074 85.3 35.2)" x1="-819.2" x2="819.2"><stop offset=".008" stop-color="#564b56"/><stop offset=".373" stop-color="#6d5858"/><stop offset="1" stop-color="#956161"/></linearGradient><path d="M87.5 43.3l-.05-.4v-.45l-.25-1.05-.9-1-.1-.1-.2-.15-.8-.65-.05-.05-1.45-2.05-.1-.2-.55-1.35-.5-1.7 1.25 1.95-1-2-.6-1.4-.15-.5-.1-.7v-.1l.5.8.55.9.85 1.3-.5-.45-.45-.55-.05.1q0 .75 1.15 2.55l.95 1.35.5.55q-.45-.1-.8-.4l-.1-.15-.55-.65.2.65.4.55 1 1.1.55.45.6.65q.65.65.8 1.3l-.25-1.15-.4-.8-.25-.4v-.05l.35.45.05.05v-.05l-.15-.15-.7-1.15-.35-.8-.55-1.8.35.9.4.5.2.4.4.85.1.2.6 1 .05.05.45 1.3.2 1.1-.1.85-.2-1.45-.05 1.25-.1.2-.05.7-.05-.15" fill="url(#i)"/><linearGradient id="j" gradientUnits="userSpaceOnUse" gradientTransform="matrix(.0032 .00053 -.00163 .00693 79.85 30.25)" x1="-819.2" x2="819.2"><stop offset="0" stop-color="#232121"/><stop offset="1" stop-color="#5b4747"/></linearGradient><path d="M80.65 30.15l-.15-.35-.05-.2-.2-.5v-.05l-.1-1 .1.55v-.3l.25.8.15.5.1.5.05.05q.15.65.6 1.3h-.05l.45.75.1.2-.05-.05-.15-.15-.25-.2-.8-1.85M69.45 20l.05-.05h.1l-.15.05M80 26.6l.65.9v.05l-.15-.05-.35-.2-.05-.05-.05-.2-.05-.45m.2.95l.25.45.5.85-.7-.75v-.2l-.05-.35m-1 1.45l.2.6-.65-1.25-.1-.15v.05l-.4-.75-.05-.15-.05-.05-.05-.05-1.7-2.05-1.9-1.7.85.45 1.3 1.2 1.05 1.1.1.15-.65-1.05q-1.5-1.8-2.9-2.65 1.55.6 2.9 2.35l1 1.65-.1-.45.3.85.2.4.1.1v-.1l-.05-.65-.1-.95-.45-1.25-.25-.5-2.2-2.2-.2-.15q-1.45-1-3-1.4l1.2.25 1.05.5q2.05 1.15 3 2.35l.7 1.15.45 1.65h.05v-.7l-.25-.65.25.3.05.15.1.35.3 1.75.3 1.9.05.15-.45-.55" fill="url(#j)"/><linearGradient id="k" gradientUnits="userSpaceOnUse" gradientTransform="matrix(.00328 0 -.00037 .00703 81.4 30.35)" x1="-819.2" x2="819.2"><stop offset="0" stop-color="#38363c"/><stop offset="1" stop-color="#5b4747"/></linearGradient><path d="M81.9 32.4l.05.2.85 1.5 1 2-1.25-1.95-.05-.05-.9-1.9-.05-.05-.1-.15.25.2.15.15.05.05" fill="url(#k)"/><linearGradient id="l" gradientUnits="userSpaceOnUse" gradientTransform="matrix(.00902 .0051 -.00668 .01012 84.5 38.65)" x1="-819.2" x2="819.2"><stop offset="0" stop-color="#2d2b3c"/><stop offset=".588" stop-color="#925e56"/><stop offset="1" stop-color="#453e41"/></linearGradient><path d="M80.25 29.1l.2.5.05.2.15.35.8 1.85.1.15.05.05.9 1.9.05.05.5 1.7q-.15.85 0 1.55l.35.95.05.1.5.75.3.3.15.15.15.15.45.4.8.65-.75-.5-.35-.3-.55-.55-.35-.4.2.4.05.1 1 1.55-1.95-1.65-.4-.55V39l.3.5.5.8-.55-.45-.25-.35-.45-1.05.25 1.05q.35.95 1.3 1.5l.05.05.15.1.9.6.4.35 1.1 1.3-.4-.85v-.05l.55.6h.05l-.7-1.45-.4-.65.85.5.9.65.2.3v.45l.05.4.05.15-.05.2-.05.8-.05-.3-.1-.6-.1-.3-.9-1.5.65 1.45.2.95-.1.65h-.1q-.15-1.05-1.85-2.45l-1.95-1.55-.6-1-.1-.3-.3-1.1v-.05L82 37.4l-.5-2.2-.05-.2-.2-.65-.55-1.75.2.35.25.35-.05-.15V33l.4.55.05.05.55 1.55.3 1.75.1.5.45 1.2.85.9q-.65-.55-.85-2.1l-.3-1.95L82.2 34l-.4-.8-.55-1-.8-1.25-.05-.1-.05-.7-.05-.55-.05-.5" fill="url(#l)"/><linearGradient id="m" gradientUnits="userSpaceOnUse" gradientTransform="matrix(.0101 .0057 -.07507 .11366 83.8 18.35)" x1="-819.2" x2="819.2"><stop offset=".008" stop-color="#171616"/><stop offset=".255" stop-color="#5e4c49"/><stop offset=".49" stop-color="#926158"/><stop offset="1"/></linearGradient><path d="M66.5 24.95l-.1-.15q-.45-.6-.45-1.2-.05-.35.05-.75l.05-.15.1-.45q.25-.8 1.5-1.6l.75-.35.9-.3h.15l.15-.05 1.4-.15.15-.05q2.1-.1 4.1.95L77.1 22l1.15 1.15.4.35.1.25-.15-.15.25.3.4.7.1.15.1.15v.05l.25.5.3 1.1v.05l.05.45.05.2.1.25v.05l.05.35v.7l-.1-.55.1 1v.05l.05.5.05.55.05.7V31l.15.65-.65-1.45q.4 1.45 1.05 2.55l.15.25v.15l.05.15-.25-.35-.2-.35-.55-1.25-.35-1.2-.15-.55v-.05l-.05-.15-.3-1.9-.3-1.75-.1-.35-.05-.15q-.45-1.4-1.65-2.5.8.9 1.4 2.2l.25.65v.7h-.05l-.45-1.65-.7-1.15q-.95-1.2-3-2.35l.2.1.9.4-.55-.35q-.6-.45-1.05-.6l-1.75-.45-1.6-.1h-.45l-1.4.35-.55.2-.6.3-.6.4-.3.35q-.55.65-.6 1.65l.05.7v.05l.2.75.05.1.35.4h-.05l-.4-.45" fill="url(#m)"/><linearGradient id="n" gradientUnits="userSpaceOnUse" gradientTransform="matrix(.00328 0 -.00037 .00703 81.4 30.35)" x1="-819.2" x2="819.2"><stop offset="0" stop-color="#3c3636"/><stop offset="1" stop-color="#5f3838"/></linearGradient><path d="M80.95 32.75q-.65-1.1-1.05-2.55l.65 1.45-.15-.65v-.15l.05.1.8 1.25.55 1 .4.8.45 1.45.3 1.95q.2 1.55.85 2.1l-.85-.9-.45-1.2-.1-.5-.3-1.75-.55-1.55-.05-.05-.4-.55-.15-.25m-1.35-2.6l-.2-.55-.2-.6.45.55v.05l.15.55.35 1.2-.55-1.2" fill="url(#n)"/><linearGradient id="o" gradientUnits="userSpaceOnUse" gradientTransform="matrix(.00616 .00616 -.00694 .00694 82.85 41.05)" x1="-819.2" x2="819.2"><stop offset="0" stop-color="#80504a"/><stop offset=".318" stop-color="#422f32"/><stop offset=".741" stop-color="#80504a"/><stop offset=".961" stop-color="#582f29"/></linearGradient><path d="M80.6 33.55l.65.8.2.65.05.2.5 2.2.15.95v.05l.3 1.1.1.3.6 1 1.3 1.4 2.15 2.25.2.75.05.8-.05.45-.05.1-.05.05-.1.35-.1.25-.2.4-.2.4-.2.4-.1.15-.2.45-.35.65-.2.4-.15.25h-.05l.4-1.3.25-.6.25-.8.05-.15-.05.15-.55.8v.05l-.05-.05.35-.8.15-.4.3-.7-.2.3-.2.4-.2.4h-.05l.15-.4.35-1.2.1-.7-.25.7h-.05l.05-.4v-.4l-.05-.5v-.05q-.5-.8-1.45-1.1l-1.4-.6-.55-.45-.45-.5-.35-.75-.45-1.7v-.05l-.4-1.3-.1-.45-.1-.25v-.1l-.4-1.9v-.1l-.05-.45.35.15.35-.1.5 2.4.25.8.55 1.3.05.1v-.1l-.55-1.9-.05-.2-.1-.25-.3-1.65-.2-.6-.15-1.35m.55 5.3l-.05-.15.25.8q.35 1.05 1 1.75.75.8 1.65 1.2-1.8-1.3-2.55-2.95l-.3-.65" fill="url(#o)"/><linearGradient id="p" gradientUnits="userSpaceOnUse" gradientTransform="matrix(.00658 .00656 -.00818 .0074 85.3 35.2)" x1="-819.2" x2="819.2"><stop offset="0" stop-color="#474e5b"/><stop offset=".427" stop-color="#725148"/><stop offset="1" stop-color="#916d75"/></linearGradient><path d="M85.7 35.5l-.1-.15.1.15.3.7.4.55-.5-.5q-.45-.75-.75-1.8h.05l.4.6.1.45" fill="url(#p)"/><linearGradient id="q" gradientUnits="userSpaceOnUse" gradientTransform="matrix(.00902 .0051 -.00668 .01012 84.5 38.65)" x1="-819.2" x2="819.2"><stop offset="0" stop-color="#464c58"/><stop offset=".588" stop-color="#664749"/><stop offset="1" stop-color="#855e5e"/></linearGradient><path d="M86 40.15l.2.15.1.1.9 1 .25 1.05-.2-.3-.05-.05q-.3-.5-1.15-1.05l-.25-.2-.8-.65-.45-.4 1.25.8-.95-.75-.3-.35-.7-.95-.1-.1h.05l.05.1 1.1.95 1.05.65" fill="url(#q)"/><linearGradient id="r" gradientUnits="userSpaceOnUse" gradientTransform="matrix(.00902 .0051 -.00668 .01012 84.5 38.65)" x1="-819.2" x2="819.2"><stop offset="0" stop-color="#79514f"/><stop offset=".588" stop-color="#aa7265"/><stop offset="1" stop-color="#71504d"/></linearGradient><path d="M86.05 41.05q.85.55 1.15 1.05l.05.05-.9-.65-.85-.5.4.65.7 1.45h-.05l-.55-.6v.05l.4.85-1.1-1.3-.4-.35-.9-.6-.15-.1-.05-.05q-.95-.55-1.3-1.5l-.25-1.05.45 1.05.25.35.55.45-.5-.8-.3-.5v-.05l.4.55 1.95 1.65-1-1.55-.05-.1-.2-.4.35.4.55.55.35.3.75.5.25.2" fill="url(#r)"/><linearGradient id="s" gradientUnits="userSpaceOnUse" gradientTransform="matrix(.00539 .00305 -.00668 .01012 85.7 39.85)" x1="-819.2" x2="819.2"><stop offset="0" stop-color="#3c2727"/><stop offset=".588" stop-color="#664749"/><stop offset="1" stop-color="#855e5e"/></linearGradient><path d="M84.95 39.5l-1.1-.95-.05-.1h-.05l.1.1.7.95.3.35.95.75-1.25-.8-.15-.15-.15-.15-.3-.3-.5-.75-.05-.1-.35-.95q-.15-.7 0-1.55l.55 1.35.1.2 1.45 2.05.05.05.8.65-1.05-.65" fill="url(#s)"/><linearGradient id="t" gradientUnits="userSpaceOnUse" gradientTransform="matrix(.00269 .00229 -.00162 .0019 83.6 39.7)" x1="-819.2" x2="819.2"><stop offset="0" stop-color="#3c2727"/><stop offset=".588" stop-color="#664749"/><stop offset="1" stop-color="#855e5e"/></linearGradient><path d="M80.75 34.9l.2.6.3 1.65.1.25.05.2.55 1.9v.1l-.05-.1-.55-1.3-.25-.8-.5-2.4-.05-.15q-.4-2.1-.1-1.1l.3 1.15" fill="url(#t)"/><linearGradient id="u" gradientUnits="userSpaceOnUse" gradientTransform="matrix(.00269 .00229 -.00162 .0019 83.6 39.7)" x1="-819.2" x2="819.2"><stop offset="0" stop-color="#411818"/><stop offset=".588" stop-color="#66373a"/><stop offset="1" stop-color="#773f3f"/></linearGradient><path d="M81.45 39.5q.75 1.65 2.55 2.95-.9-.4-1.65-1.2-.65-.7-1-1.75l-.25-.8.05.15.3.65" fill="url(#u)"/><linearGradient id="v" gradientUnits="userSpaceOnUse" gradientTransform="matrix(.00882 0 -.00063 .01178 74.7 31.6)" x1="-819.2" x2="819.2"><stop offset="0" stop-color="#1e2323"/><stop offset=".294" stop-color="#372b2e"/><stop offset="1" stop-color="#4b3238"/></linearGradient><path d="M72.7 26q-1.2-.75-2.7-.65l.2-.1.2-.05.05-.1-.45-.15-.35-.2.2-.3q0-.2-.6-.45l-.7-.3.15-.1.2-.15-.5-.2-.05-.05-.15-.05-.3-.15.5-.55-.1-.2-.1-.15.05-.05h.4l.55-.05h1.1l.2.05-1.25.4v.05l.6.05.65.1q-1.25.15-1.8.55l.65.1 1.25.2 1.55.5 1.25.55-1.05-.15-1.25-.15-.65.05-.35.05 1.1.45 1.5.65 1.75 1 1.15.95.15.1.6.65.6.8.5.65.4.55.4.65.7 1.4.9 2.7.1.5v.1l.4 1.9v.1l.1.25.1.45.4 1.3v.05l.45 1.7-.2-.7-.25-.55v-.05l-.15-.45-.1-.2-.55-1.9-.15-.7-1.25-3.6-.4-.9-1-1.75-.2-.3-.4-.55-1.3-1.45-.8-.65-1.45-1.1 1.2.8-.3-.3-.9-.5-.15-.1-.3-.3h-.05" fill="url(#v)"/><path d="M80.7 39.3l.1.2.15.45V40l.25.55.2.7.35.75.55.7 1.15.95q-.65-.1-1.15-.55l-.8-.9-.2-.3q-.65-1-.9-2.15l-.05-.25L80 38l.7 1.3" fill="#54393f"/><linearGradient id="w" gradientUnits="userSpaceOnUse" gradientTransform="matrix(-.002 .00755 -.01268 -.00307 80.6 52.85)" x1="-819.2" x2="819.2"><stop offset="0" stop-color="#380f0f"/><stop offset=".42" stop-color="#78483b"/><stop offset=".753" stop-color="#3c150c"/><stop offset="1" stop-color="#200300"/></linearGradient><path d="M82.6 46.55V46l-.05-.25-.15-.35.5.6.1.05.8.35v-.1l-.25-.3-.05-.15-.1-.55.95.65-.45-.55-.15-.2-.45-.75.75.3.8-.1q-1.1-.1-1.6-.5l-.6-.5.4.2.65.1h.55l.1-.05-.9-.25-1.15-.95-.55-.7.45.5.55.45 1.4.6q.95.3 1.45 1.1v.55l-.1.8-.45 1.2-.15.25-.05.15-.45.8-.7 1.3-.4.7-.85 1.35v.05l-.1.1-.05.1-.45 1.4-.05.2-.05.2.05.45.05.15.3.5.5.4-.1.05-.15-.05-.25-.05-.2-.2-.35-.5-.05-.15-.05-.05v.05l.3 1.3.1.1h-.05l-.05-.05-.45-.5-.2-.25-.05-.05.3 1.25-.1.05v.05l-.55.35-.2-.1-.45-.75-.1-.2v.65l-.05-.05q-.3-.6-.4-1.6v-1l-.05-.15-.05.15-.1.25-.1.4v.15l-.05.6-.05.2-.05 1.5v.05q.1.8.7 1.05-1.15-.3-1.45-2.1l-.05-.9.15-.4.05-.15.25-.65.8-1.6.15-.2v-.05l.65-1.05.2-.3 1.2-2 .1-.15.35-.65.2-.4.05-.1v.1l-.15.4-.3.65-.05.15-.7 1.55 1.05-1.4.15-.15.55-.8.25-.4.1-.25v-.4l-.35.65-.2.4-.5.8-.15.1.05-.1.6-1.75-.3.55-.05.05v-.05l.05-.2.1-.45m.75.45l-.05.1.05-.05V47" fill="url(#w)"/><linearGradient id="x" gradientUnits="userSpaceOnUse" gradientTransform="matrix(.00204 .00893 -.0102 .00256 80.1 38.3)" x1="-819.2" x2="819.2"><stop offset="0" stop-color="#2c1b1b"/><stop offset="1" stop-color="#733c3c"/></linearGradient><path d="M81.6 42.55l.55.75.9 1-.65-.35.6 1-.65-.65h-.05l.35.9.05.15.6.65.5.3v.1l-.8-.35-.1-.05-.5-.6-.1-.2-.25-.4-.2-.55-.95-1.4-.8-1.4-.65-1.45-.1-.5-.4-2.1-.05-.15-.3-1.45-.15-.65-1-2.7-.15-.2v-.05l-.65-1.35-.25-.65.65.85.7 1.15.85 2.35.5 1.75.15.55.15.55.4 1.65v-1.4l.2.35.35 1.5.05.25q.25 1.15.9 2.15l.2.3.1.35m.45 1.1l.1.1-.05-.1h-.05" fill="url(#x)"/><linearGradient id="y" gradientUnits="userSpaceOnUse" gradientTransform="matrix(.00198 -.00107 .00185 .00333 82.05 43.3)" x1="-819.2" x2="819.2"><stop offset="0" stop-color="#69444a"/><stop offset=".349" stop-color="#663339"/><stop offset="1" stop-color="#380f0f"/></linearGradient><path d="M83.8 46.3l-.5-.3-.6-.65-.05-.15-.35-.9h.05l.65.65-.6-1 .65.35-.9-1-.55-.75-.1-.35.8.9q.5.45 1.15.55l.9.25-.1.05h-.55l-.65-.1-.4-.2.6.5q.5.4 1.6.5l-.8.1-.75-.3.45.75.15.2.45.55-.95-.65.1.55.05.15.25.3" fill="url(#y)"/><linearGradient id="z" gradientUnits="userSpaceOnUse" gradientTransform="matrix(.00902 .0051 -.00668 .01012 84.5 38.65)" x1="-819.2" x2="819.2"><stop offset="0" stop-color="#3a2929"/><stop offset=".588" stop-color="#513537"/><stop offset="1" stop-color="#3f2727"/></linearGradient><path d="M83.15 40.8l1.95 1.55q1.7 1.4 1.85 2.45h.1l.1-.65v.5l-.05.55-.1.8-.1.2-.1.25.05-.45-.05-.8-.2-.75-2.15-2.25-1.3-1.4" fill="url(#z)"/><linearGradient id="A" gradientUnits="userSpaceOnUse" gradientTransform="matrix(.0002 .00664 -.01773 .00133 83.1 48.95)" x1="-819.2" x2="819.2"><stop offset="0" stop-color="#351615"/><stop offset=".573" stop-color="#5b312b"/><stop offset=".922" stop-color="#481d1d"/></linearGradient><path d="M84.9 50.3l.15-.25-.1.35-.1.45-.2.9v.05l-.05.2v.1l.15.95.15.55.25.65.05.15v.05h-.1v-.05l-.1-.15-.3-.65-.05-.15-.25-1.05v-.1.1l-.05.15v1.05l.35.65.05.15.05.1h-.05l-.15-.1-.1-.1v-.05l-.3-.65-.15-.6v1l.05.25.05.15v.1l-.1-.1H84l-.05-.15-.1-.65v-.1l.1-1.4.05-.1v-.25l.1-.45-.15.45-.05.05-.05.2-.05.1-.2.45-.25 1.05v-.35l.05-.45.1-.7.05-.1.05-.2v-.05l.65-1.35.1-.2.05-.15.1-.1-.1.1-.3.35-.6 1.15-.05.2-.05.05-.05.2-.05.1-.2.55q-.15.5-.15.95l-.05.3.05.35v.2l.15.25.35.2-.1.05-.25-.05-.8-.5-.1-.1v-.05l-.3-.65-.05-.15v-.05l.45-1.4.05-.1.1-.1v-.05l.85-1.35.4-.7.7-1.3.45-.8.05-.15.15-.25.45-1.2.1-.8v-.5l.05.5v.4l-.05.4-.25.5v.05h.05l.25-.5V46l.25-.7-.1.7-.35 1.2-.15.4h-.05l-.1.25h.05l.1-.2.05-.05.2-.4.2-.4.2-.3-.3.7-.15.4-.35.8-.05.1v.05l.1-.1v-.05l.55-.8.05-.15-.05.15-.25.8-.25.6-.4 1.3v.1l.05-.1" fill="url(#A)"/><linearGradient id="B" gradientUnits="userSpaceOnUse" gradientTransform="scale(0)" x1="-819.2" x2="819.2"><stop offset="0" stop-color="#80504a"/><stop offset=".447" stop-color="#53484a"/><stop offset=".741" stop-color="#80504a"/><stop offset=".961" stop-color="#582f29"/></linearGradient><path d="M85.65 46.05L85.6 46h.05v.05m-.4 1.55h.1l-.05.05-.05-.05" fill="url(#B)"/><linearGradient id="C" gradientUnits="userSpaceOnUse" gradientTransform="matrix(.00752 .00424 -.07507 .11362 81.7 15.8)" x1="-819.2" x2="819.2"><stop offset="0" stop-color="#474144"/><stop offset=".447" stop-color="#564a4c"/><stop offset=".776" stop-color="#836666"/><stop offset=".933" stop-color="#80504a"/></linearGradient><path d="M80.75 34.9l-.3-1.15q-.3-1 .1 1.1l.05.15-.35.1-.35-.15-.3-1.55-.45-1.2-.65-1.25-.45-.8-.3-.55-1.6-2.1-.15-.15-.5-.5-1.1-.85-1.1-.65-.45-.2-.2-.1-.95-.3 1.35.1.9.15.75.2-1.1-.85-1.5-.8-1.9-.55.75-.05q1.25.05 2.85 1T78 28l.1.1.2.2.15.2q1.8 3 2.15 5.05l.15 1.35m4.1 15.4h.05-.05m.55-3.75l-.05-.05.25-.5.05.05-.25.5m-.1 1.1l-.1.2h-.05l.1-.25.05.05m-12.45-24.1l.05-.05h-.05v.05m5.4 3.95l-.05.05v-.05h.05m1.35 3.6v-.05l-.2-.4.15.4.05.05" fill="url(#C)"/><linearGradient id="D" gradientUnits="userSpaceOnUse" gradientTransform="matrix(.00198 -.00107 .00185 .00333 82.05 43.3)" x1="-819.2" x2="819.2"><stop offset="0" stop-color="#69444a"/><stop offset=".349" stop-color="#663339"/><stop offset="1" stop-color="#d98057"/></linearGradient><path d="M82.1 43.65l.05.1-.1-.1h.05" fill="url(#D)"/><linearGradient id="E" gradientUnits="userSpaceOnUse" gradientTransform="matrix(-.00287 .00905 -.00948 -.003 76.95 52.05)" x1="-819.2" x2="819.2"><stop offset="0" stop-color="#111112"/><stop offset=".533" stop-color="#331715"/><stop offset=".761" stop-color="#381613"/><stop offset="1" stop-color="#1e0505"/></linearGradient><path d="M76.3 59.15l-.4-.35-.05-.05-.65-1.05-.4-.75v.1l-.05.45.05.6.05.45.05.2-.05-.1-.05-.05-.1-.25-.05.8q-.25-.5-.25-1.65v-.15q-.1-1.2.05-1.95L74 56.5l-.2 1.15v1.1l-.1-.2-.05-.7q0-1.8.55-3.45l.05-.15.25-.65.3-.6.6-1 .1-.2.35-.5h-.05q-.25.1-.6.4l-.3.3-.1.1-.4.4-.25.35.65-.9.1-.1.3-.3 1.05-1h.05l.15-.15.25-.25 1.75-1.45.15-.1.25-.2.9-.8.3-.35.05-.05.15-.2v-.1l.6-.9v-.05l.2-.75V45l.05-.55-.25-.55.25.45.05.25.15.6v1l-.25 1-.2.4-.4.6-.1.2-.1.15-1.45 1.65-.15.2-.1.1-.95 1.25-.05.05-.1.2-.1.15-.1.1-.1.1-.5 1.25v.2l-.15.45v.15l-.15.95v.15-1.7l-.15.45-.05.1v.05l-.1.5q-.05 1.3.6 3l.7 1.25.4.45.65.25h.1l.1.05 1.15.2.4.05h-.25l-1.15.05h-.05l-.45-.2-1.15-.8-1.1-1.65-.15-.55-.15-.55-.05-.45.05-.5.2-1.1.15-.55.1-.25q.2-.65.9-1.6l.15-.2m0 0l2-2.4v-.05.05q-1.2 1-2.3 2.4l-.15.2-.15.15-.95 1.45-.35.8-.05.3v.3l-.1.3.05.7v.3l.1.6.1.5.3.75.6 1" fill="url(#E)"/><linearGradient id="F" gradientUnits="userSpaceOnUse" gradientTransform="matrix(.00418 .01825 -.02002 .00502 78.25 44)" x1="-819.2" x2="819.2"><stop offset="0" stop-color="#1a1919"/><stop offset=".427" stop-color="#7e4745"/><stop offset=".588" stop-color="#543333"/><stop offset=".682" stop-color="#6b382e"/><stop offset=".8" stop-color="#bf6748"/><stop offset="1" stop-color="#62372c"/><stop offset="1" stop-color="#5b3633"/></linearGradient><path d="M78.45 36.45l-.55-2.55-.45-1.45 1 2.7.15.65.3 1.45.05.15.4 2.1.1.5.65 1.45.8 1.4.95 1.4.2.55.25.4.1.2.15.35.05.25v.25l-.05.3h-.7l-.1-.55-.3-.8-.3-.6-.05-.25-.25-.45v-.05l-.15-.3-.25-.4-1.1-2.05-.15-.3-.45-1.3-.7-2.1-.05-.15-1.2-3.9-.2-.5v-.05l-.05-.15-.75-2.05-.2-.45-.25-.55-.7-1.35v-.05l.85 1.4.3.55V30l.15.15.25.35.6 1-.15-.25-.3-.55.6 1.5.8 2.4.85 2.8.35 1.3-.25-1-.05-.3-.1-.55-.1-.4" fill="url(#F)"/><linearGradient id="G" gradientUnits="userSpaceOnUse" gradientTransform="matrix(.0018 .00272 -.00496 .00294 83.85 45.7)" x1="-819.2" x2="819.2"><stop offset="0" stop-color="#090808"/><stop offset=".6" stop-color="#311b1b"/></linearGradient><path d="M81.85 46.8v.05l-.1.35-.15.4-.4.7-.05.1L80.1 50l.5-1.4h.05v-.1l.05-.1.05-.6-.3.6-.6.95v-.05l.4-.75.1-.15.1-.2.4-.6.2-.4.25-1v-1l-.15-.6.3.6.3.8.1.55v.25" fill="url(#G)"/><linearGradient id="H" gradientUnits="userSpaceOnUse" gradientTransform="matrix(.0041 .0062 -.00496 .00294 84.8 47.75)" x1="-819.2" x2="819.2"><stop offset="0" stop-color="#1e0000"/><stop offset=".365" stop-color="#3f2020"/><stop offset="1" stop-color="#653c32"/><stop offset="1" stop-color="#1e1b1b"/></linearGradient><path d="M82.5 47l-.05.2v.05l.05-.05.3-.55-.6 1.75-.05.1.15-.1.5-.8.2-.4.35-.65v.4l-.1.25-.25.4-.55.8-.15.15-1.05 1.4.7-1.55.05-.15.3-.65.15-.4v-.1l.05-.1" fill="url(#H)"/><linearGradient id="I" gradientUnits="userSpaceOnUse" gradientTransform="matrix(.0041 .0062 -.00496 .00294 84.8 47.75)" x1="-819.2" x2="819.2"><stop offset="0" stop-color="#1e2323"/><stop offset=".365" stop-color="#3c2b2b"/><stop offset="1" stop-color="#653c32"/><stop offset="1" stop-color="#1e1b1b"/></linearGradient><path d="M82.5 47l.05-.45.05-.3v.3l-.1.45m.85.05l-.05.05.05-.1v.05" fill="url(#I)"/><linearGradient id="J" gradientUnits="userSpaceOnUse" gradientTransform="matrix(.0028 .00485 -.00705 .00407 79.15 54.7)" x1="-819.2" x2="819.2"><stop offset="0" stop-color="#603530"/><stop offset=".463" stop-color="#875244"/><stop offset="1" stop-color="#210a08"/><stop offset="1" stop-color="#5b3633"/></linearGradient><path d="M78.05 56.15q-.05 1.1.55 2.1l.6.75.65.55.9.3.1.05h-.2q-1.15 0-1.95-.65-.85-.65-.95-1.8v.45l.05.4.05.35.1.3.25.6.3.3h-.1l-.65-.25-.4-.45-.7-1.25q-.65-1.7-.6-3l.1-.5v-.05l.05-.1.15-.45v1.75l.15.6q.05.5.75 1.4l.1-1.9q.1-.65.35-1.25l.05-.15.1-.2.2-.45.7-1.35.2-.25.15-.2v-.05l.95-1.3.05-.05 1.25-2 .05-.15.3-.65.1-.4.05-.35v-.3h.7l-.05.45-.05.1-.05.1-.2.4-.35.65-.1.15-1.2 2-.2.3-.65 1.05v.05l-.15.2-.8 1.6-.25.65-.05.15-.15.4-.25 1.35" fill="url(#J)"/><linearGradient id="K" gradientUnits="userSpaceOnUse" gradientTransform="matrix(-.003 .00754 -.0078 -.00249 79.3 51.15)" x1="-819.2" x2="819.2"><stop offset="0" stop-color="#1c0000"/><stop offset=".294" stop-color="#46221c"/><stop offset=".576" stop-color="#825449"/><stop offset="1" stop-color="#4a180f"/></linearGradient><path d="M80.25 48.55l-.4.75v.05l.6-.95.3-.6-.05.6-.05.1v.1h-.05l-.5 1.4 1.05-1.6.05-.1.4-.7.15-.4.1-.35-.05.35-.1.4-.3.65-.05.15-1.25 2-.05.05-.95 1.3v.05l-.15.2-.2.25-.7 1.35-.2.45-.1.2-.05.15q-.25.6-.35 1.25l-.1 1.9q-.7-.9-.75-1.4l-.15-.6v-.2l.15-.95v-.15l.15-.45v-.2l.5-1.25.1-.1.1-.1.1-.15.1-.2.05-.05.95-1.25.1-.1.15-.2 1.45-1.65m-.8 1.65l-.15.2-1.15 1.35-.05.05-.1.2-.65 1.05-.15.25-.1.3-.15.65-.05.15-.1.8v.4l.05-.5.15-.7.05-.15.1-.4.1-.25.1-.25.85-1.35.15-.2v-.05l.15-.2.9-1.15.7-.85.5-.95-1.15 1.6" fill="url(#K)"/><linearGradient id="L" gradientUnits="userSpaceOnUse" gradientTransform="matrix(.01082 .0136 -.01437 .01056 82.1 41.65)" x1="-819.2" x2="819.2"><stop offset="0" stop-color="#836666"/><stop offset=".114" stop-color="#b97d70"/><stop offset=".263" stop-color="#d49b86"/><stop offset=".329" stop-color="#a06b5d"/><stop offset=".408" stop-color="#7e483e"/><stop offset=".608" stop-color="#b66252"/><stop offset=".737" stop-color="#7e4536"/><stop offset=".922" stop-color="#562525"/></linearGradient><path d="M85.1 48.55v-.05l.05-.1.05.05-.1.1m.25-2v-.05l.05.05h-.05m-.15 1.3h-.05.05m-.3 2.45l-.05.1v-.1h.05M72.85 23.5h.05l-.05.05v-.05m5.35 4l-.05-.15v-.05l.05.05.05.15h-.05" fill="url(#L)"/><linearGradient id="M" gradientUnits="userSpaceOnUse" gradientTransform="matrix(.00319 .0003 -.00041 .00423 87.35 50.4)" x1="-819.2" x2="819.2"><stop offset="0" stop-color="#2c1416"/><stop offset=".925" stop-color="#562525"/></linearGradient><path d="M85.6 49l.2-.45.1-.15.2-.4.2-.4.2-.4.1-.25.05.25v.4l.05.8v.1l-.05-.1-.2-.6h-.05l-.1.8.05.65-.1-.7q-.35.55-.35 1.85v.15h-.05v-.65l-.1.2-.1.3.1.45.15.9v.05l.05.2v.1l.05.15-.15-.15-.05-.05-.05-.05-.15-.2-.05-.05-.1-.1-.05-.05v.05h.05l.05.1v.05l.1.2.05.1.85.75 1.85.45.35.1-.6-.05-1.2-.05-1.55-.4-.55-.25-.05-.55V52l.05-.2v-.05l.25-1.35.55-1.4m-2.5 6.05l-.45.25-.5-.4-.3-.5-.05-.15-.05-.45.05-.2.05-.2v.05l.05.15.3.65v.05l.1.1.8.5.25.05-.25.1m.35-.15l-.35-.2-.15-.25v-.2l-.05-.35.05-.3q0-.45.15-.95l.2-.55.05-.1.05-.2.05-.05.05-.2.6-1.15.3-.35-.05.15-.1.2-.65 1.35v.05l-.05.2-.05.1-.1.7-.05.45v.35l.25-1.05.2-.45.05-.1.05-.2.05-.05.15-.45-.1.45V52l-.05.1-.1 1.4v.1l.1.65.05.15-.3-.2.2.2.2.25v.05l-.65.2m.7-.4v-.1l-.05-.15-.05-.25v-1l.15.6.3.65v.05l.1.1.15.1-.45.1-.15-.1m.7-.05l-.05.05-.05-.1-.05-.15-.35-.65v-1.05l.05-.15.25 1.05.05.15.3.65.1.15v.05h-.25m0-1.3l.05.2.3.15.25.1.2.1h.1l.1.05.3.55-.8.1-.15.05v-.05l-.05-.15-.25-.65-.15-.55.1.1" fill="url(#M)"/><linearGradient id="N" gradientUnits="userSpaceOnUse" gradientTransform="matrix(-.0008 -.00345 .0048 -.00122 86.2 51.65)" x1="-819.2" x2="819.2"><stop offset=".012" stop-color="#3c1614"/><stop offset=".478" stop-color="#64372f"/><stop offset="1" stop-color="#4d2521"/></linearGradient><path d="M88.7 53.4l-.35-.1-1.85-.45-.85-.75-.05-.1-.1-.2v-.05l-.05-.1.1.1.05.05.15.2.05.05.05.05.15.15-.05-.15V52l-.05-.2v-.05l-.15-.9v-.75l.1-.2v.65h.05v-.15q0-1.3.35-1.85l.1.7-.05-.65.1-.8h.05l.2.6.05.1.25 1.9.1.35.35 1 .05.05.1.2.05.1q.5.7 1.35.95h.15l.15.15-.1.05-.15.05.35.15.05.05-.6-.05-.1-.05m-1.95-1.6l.05.2.05.1.55.55-.4-.55-.05-.1-.1-.2-.05-.05-.3-.8.05.3.15.5.05.05m-.6 0l.1.2.05.1.15.2v.1l.5.35-.4-.65-.05-.05V52l-.1-.2v-.05l-.45-1.05.2 1.05v.05" fill="url(#N)"/><linearGradient id="O" gradientUnits="userSpaceOnUse" gradientTransform="matrix(.00328 0 -.00037 .00703 81.4 30.35)" x1="-819.2" x2="819.2"><stop offset="0" stop-color="#38363c"/><stop offset="1" stop-color="#474e5b"/></linearGradient><path d="M82.5 26.5l-1.75-2.65-1.15-1.35-1.25-1.3 1.1.75.25.15q1 1.05 1.8 2.35l1 2.05" fill="url(#O)"/><linearGradient id="P" gradientUnits="userSpaceOnUse" gradientTransform="matrix(.00308 0 0 .00119 87.3 53.6)" x1="-819.2" x2="819.2"><stop offset="0" stop-color="#351515"/><stop offset=".753" stop-color="#422017"/><stop offset="1" stop-color="#1c0200"/></linearGradient><path d="M89.45 54.45v-.1h.2v.05l-.05.05-.1.15-.05-.15m-4-.85l-.25-.1-.3-.15-.05-.2-.05-.5.55.25 1.55.4h-.2l-1.15.3.1.05v.05l-.2-.1m.3.1h.1v.05l-.1-.05m.3.1l-.05-.05h.25l.95.15.25.05h-.15l-1.25-.15" fill="url(#P)"/><linearGradient id="Q" gradientUnits="userSpaceOnUse" gradientTransform="matrix(.00514 -.0008 .0064 .13898 83.7 11.05)" x1="-819.2" x2="819.2"><stop offset="0" stop-color="#2c0f11"/><stop offset=".573" stop-color="#8e5040"/><stop offset="1" stop-color="#7a6d87"/></linearGradient><path d="M88.8 53.45l.6.05.05.1.05.1.2.45-.2-.05-.7-.15h-.25l-2.3-.2H86l-.15-.05h-.2v-.05l-.1-.05 1.15-.3h.2l1.2.05.6.05.1.05m-.85 1.8l-.1.05-.05-.05h.15m1.45-.9h-.1v-.05l.1.05M84.15 57h.1v.05l-.2.05.05-.05.05-.05m.3.35l-.55.3-.2-.05h-.3l.2-.15.4-.3h.05l.6.1-.2.1m1.9 2v-.05h.05l-.05.05m-4.05-.55v-.05l.25-.25.15-.25.2.05-.3.25-.3.25m.75-.7l-.05.05h-.2l.1-.05h.15m.05-.2l.15-.15.3.1-.3.05-.05.05h-.15l.05-.05m-2.4 1.2l.05.05-.2.1.15-.15" fill="url(#Q)"/><linearGradient id="R" gradientUnits="userSpaceOnUse" gradientTransform="matrix(0 0 0 0 56.3 18)" x1="-819.2" x2="819.2"><stop offset="0" stop-color="#2c0f11"/><stop offset=".573" stop-color="#663224"/><stop offset="1" stop-color="#564566"/></linearGradient><path d="M89.3 54.3l-.35-.1h-.65l-.85-.25-.25-.05-.95-.15 2.3.2h.25l.7.15.2.05v.2h-.3l-.1-.05" fill="url(#R)"/><linearGradient id="S" gradientUnits="userSpaceOnUse" gradientTransform="matrix(.00523 -.0014 .00075 .0028 86.7 57)" x1="-819.2" x2="819.2"><stop offset="0" stop-color="#3b1f19"/><stop offset=".463" stop-color="#5e3229"/><stop offset=".961" stop-color="#542a26"/><stop offset="1" stop-color="#361715"/></linearGradient><path d="M80.9 56.75l-.15.1-.45.25-.3.2.25-.25.4-.3.1-.1.55-.35v-.05l.1-.05.6-.25h.05l1.05-.4.85-.25.35-.1.25-.05.4-.1 1.4-.2.7-.1 1.4-.1.2-.05h-.2l-1.1-.2-.65-.05-.4-.05h.3l.8-.05 1.1.05-.2-.1h.65l.35.1v.05l-.35-.05h-.3l.2.05.15.05.3.1.2.1.15.1-.2.2-.1.05-.1.25h.25-.25l-.2.05-.7.1-.6.1h-.15l-.2.05-.4.1-.35.15q-.3.1-.65.3l-.5.35h.05q.15-.1.55-.25.25-.15.6-.25l.35-.1.6-.15h.05l.6-.15h.05l.15.05-.2.15-.4.35-1.05.85-.3.2-.2.15.25-.05.25-.1 1.2-.4.1-.05.1-.05.2-.05.45-.1.05-.05h-.05l-.35.05-.2.05h-.15l-.15.05-.35.05.3-.25.3-.25.25-.25.4-.3.25-.15.05.25.15.2.15.55v.1l-.05.05.05.05-.2.55.1.4-.5 1.15-.3.4-.6.55-.05.05-.2.2v-.15l-.05-.35v-.05h.05l.05-.3.2-.7-.55.25v-.05l-.1-.15-.2-.35.9-.75.15-.1.9-.65-.9.3-.15.1-1.2.45-.25.1-.05.05-.65-.45.45-.35.4-.25 1-.7.1-.1-.15.05-1 .4-.55.25q-.25.1-.55.25l-.15.1-.15.1-.75-.15.2-.15.35-.2-.4.1-.7.3-.65.05.3.15-.3.2-.3.2-.1.05-.25.2h-.05l.05.05-.25.15-.35.3-.5.35-.1-.1-.15-.05.05-.05.4-.45.25-.25.9-.75.1-.1.15-.1.1-.05q.5-.35 1.05-.6l.2-.1.45-.15.45-.15.35-.1.7-.1.15-.05.75-.05h.35l.05.05h.05l.05-.05h.2l-.05-.05.25-.05.4-.1.3-.05H87l-.55.1-1.2.2-.5.1-.65.1-.1.05-.9.25-.4.2-.25.1-.15.05-.05.05-.6.2-.1.05-.1.05-.1.05-.45.2m4.5-.3l.1-.05-.1.05m-.25-.1l.1-.05-.1.05m.45 1.7l-.2.1-.3-.15-.2-.1.45-.35.25.15.25.2-.2.1-.05.05m.75 1.25l-.1-.45.05-.05.1.5h-.05m-2.4-.25l-.4.35-.2.15-.1.05-.05-.05.1-.05.5-.6.25-.25.3.1-.4.3m1.15 1.35l-.05.05-.15.1-.1-.1-.05-.05.15-.2.15-.15.25-.25.1.35-.3.25m3.65-4.35l-.2.3.15-.1.05-.2m.45 1.3l-.35-.05-.5.2-.05.05-.2.15-.15.1.15-.05.2-.05.4-.05h.15l.05.1.05.4.25-.5v-.3m-.9-.95h.05-.05m-.25 3.05l-.05.05h.05v-.05" fill="url(#S)"/><linearGradient id="T" gradientUnits="userSpaceOnUse" gradientTransform="matrix(.00635 0 0 .00116 84.9 55.25)" x1="-819.2" x2="819.2"><stop offset="0" stop-color="#481d1d"/><stop offset=".502" stop-color="#855250"/><stop offset="1" stop-color="#5f4240"/></linearGradient><path d="M81.85 55.8h.05l.35-.3.3-.15.1-.05.45-.25.25-.1.1-.05.65-.2.2-.1.45-.1h.05l.05-.05h.35l.15-.05.8-.1h.15l.4.05.65.05 1.1.2v.05l-1.4.1-.7.1-1.4.2-.4.1-.25.05-.35.1-.85.25-1.05.4H82l-.6.25.45-.4" fill="url(#T)"/><linearGradient id="U" gradientUnits="userSpaceOnUse" gradientTransform="matrix(.00204 .00606 -.12228 .07222 125.8 34.6)" x1="-819.2" x2="819.2"><stop offset="0" stop-color="#230500"/><stop offset="1" stop-color="#150d0f"/></linearGradient><path d="M80.55 56.55l.2.1-.1.1-.65-.55.55.35m3.75-1.95l-.2.1v-.05l-.2-.25-.2-.2.3.2h.05l.1.1.15.1m1.55-.85v-.05l.15.05.05.05.55.5h-.45l-.3-.55m.85 1.55l-.15.05-.05-.05h.2m-1.65.4l-.25-.25.55-.05.15.15-.45.15m-.45.15l-.2.1-.3-.35h.1l.4.25m.2.7l-.05-.1.4-.1-.35.2m1.15.55l-.05-.05-.1-.05-.15-.35q.3-.15.55-.25l.2.35-.45.35m-.45-.35l.15.2-.3-.1.15-.1m-2.1.4l.3-.2h.1l.2.05.1.05-.05.05h-.4l.35.05-.4.3-.2-.3m2.85 1.7l-.1-.1-.05-.05-.25-.25-.2-.45.2-.1.15.2.3.7-.05.05m1.85-1.9v.35l-.9.75-.3-.3v-.35l1.2-.45m-1.4.65l-.1-.05.05-.05.05.1m-1.9.15l.1.15-.95-.25h-.05l.55-.3.35.4m1.6 1.85v.45l-.05.1.05-.2-.05-.55v-.05l.05-.05v.3m-2.85-.95l.25.25-.5.6-.2-.25-.5-.7.3-.25.2.05.15.05.3.25m1.35 1.55l-.15.2-1.2-1 .3.55.2.55-.2-.2-.1-.15-.15-.2h.05l-.3-.4.2-.15.4-.35.85 1 .1.15m.15-.15l-.1-.2-.45-1 .35.2.45.75-.25.25m.1.5l-.05-.15.3-.25v.8l-.3-.15-.05-.05-.1-.05-.05-.15.15-.1.1.1m-1.9-3.95l-.15.1-.1.1-.65-.6-.05-.05.15-.05.65.3.25.15-.1.05m-1.55.65l.3.2.1.1-.25.25-1.1-.95.15-.1.8.5m1 .7h-.3l.45.1.05.05-.1.05h-.6l-.05-.05.35-.3.2.15m-.15.55l-.05-.05-.25-.25.45.05-.15.25m4.25-2l-.05-.35 1-.4.05.05-1 .7m.7 2.1l.55-.25-.2.7-.05.3h-.05l-.25-.75" fill="url(#U)"/><linearGradient id="V" gradientUnits="userSpaceOnUse" gradientTransform="matrix(.00194 .00636 -.01239 .00404 81.7 57.95)" x1="-819.2" x2="819.2"><stop offset="0" stop-color="#3c1208"/><stop offset="1" stop-color="#1c0000"/></linearGradient><path d="M79.5 58.4q-1.3-.85-1.4-1.75v.15q0 .55.75 1.55l1.1 1.05.75.25.05.2-.9-.3-.65-.55-.6-.75q-.6-1-.55-2.1l.25-1.35.05.9q.3 1.8 1.45 2.1-.6-.25-.7-1.05v-.05l.05-1.5.05-.2.05-.6v-.15l.1-.4.1-.25.05-.15.05.15v1q.1 1 .4 1.6l.05.05v-.65l.1.2.45.75-.55-.35.65.55-.4.3-.75-1.3v.05q.05 1.55.65 2.5l.05.05-.3-.05.3.15.2.25-.35.05-.55-.35m1.9-2.2l-.3-1.25.05.05.2.25.45.5.05.05-.45.4m.85-.7l-.35.3-.1-.1-.3-1.3v-.05l.05.05.05.15.35.5.2.2.25.05.15.05-.3.15m3.6-.05l-.35.1-.15-.15 1.15-.1.05.05-.7.1m-1.75.15l.3.35q-.55.25-1.05.6l-.25-.15-.65-.3.25-.1.4-.1 1-.3m.95.1l-.45.15-.4-.25.6-.15.25.25m-.45 1h-.25v.05h-.3l.7-.3.05.1-.2.15m.65-.4l-.1.05.1-.05m.25.45l.15-.1.15.35-.15-.05-.15-.2m-1.4.3L84 57h.15l-.05.05m.8.85l-.1-.15-.35-.4.2-.1.55.2.15.1-.45.35m-1.3-.45l-.2.15h-.65l.25-.2.1-.05.3-.2.2.3m2 .6l-.05.15-.15-.05.2-.1m-2.35.35l.8.25-.25.25-.25-.25-.3-.25m-.65.15l.5.7.2.25-.1.05-.05-.05-.05-.05q-.4-.45-.8-.65l.3-.25m1 1.4l-.35-.35.1-.05.3.4h-.05m.35-.9l.4-.3.15.1.45 1-.05.05-.1.15-.85-1m-1.85-1.5v-.1H82l-.3-.2-.35-.7.1-.05.4.5-.3-.55.1-.05.6-.2h.1l.65.6-.9.75m.1.6h-.1l.1.05h.05l.25.25.05.05-.25.25v.05l-.45-.3-.2-.05.5-.35.05.05m.9-.4h.15l-.15.15-.05.05h-.35l-.2-.15.25-.15.35.1m-2.35-.9l1.1.95-.4.45-.75-.65-.4-.5.45-.25m2.15 1.25l-.05-.05.05.05m3.85-1.95l.05.35-.4.25-.2-.35.55-.25" fill="url(#V)"/><linearGradient id="W" gradientUnits="userSpaceOnUse" gradientTransform="matrix(.00244 0 0 .00125 87.5 56.2)" x1="-819.2" x2="819.2"><stop offset="0" stop-color="#481d1d"/><stop offset=".502" stop-color="#855250"/><stop offset="1" stop-color="#5f4240"/></linearGradient><path d="M88.9 56.45l-.45.1-.2.05-.1.05-.1.05-1.2.4-.25.1-.25.05.2-.15.3-.2 1.05-.85.4-.35.2-.15-.15-.05h-.05l-.6.15h-.05l-.6.15-.35.1q-.35.1-.6.25-.4.15-.55.25h-.05l.5-.35q.35-.2.65-.3l.35-.15.4-.1.2-.05h.15l.6-.1.7-.1.2-.05-.05.2-.25.15-.4.3-.25.25-.3.25-.3.25.35-.05.15-.05h.15l.2-.05.35-.05v.05m-5.8-.55l-.4.1.4-.2.9-.25.1-.05.65-.1.5-.1 1.2-.2.55-.1h2.05l-.3.05-.4.1-.25.05-.1.05h-.55l-.75.05h-.2l-1.15.1-.55.05-.6.15h-.1l-1 .3" fill="url(#W)"/><linearGradient id="X" gradientUnits="userSpaceOnUse" gradientTransform="matrix(.0031 .0031 -.00325 .00294 86.35 52.1)" x1="-819.2" x2="819.2"><stop offset="0" stop-color="#27070b"/><stop offset=".486" stop-color="#4a2929"/><stop offset="1" stop-color="#310202"/></linearGradient><path d="M84.75 53.05l-.15-.95V52l.05-.2v-.05l.2-.9.1-.45.1-.35.2-.4.35-.65-.55 1.4-.25 1.35v.05l-.05.2v.1l.05.55.05.5-.1-.1m-.35-3l.1-.1-.1.1m0 2.35v-.1.1m2.9 1.55h.15l.85.25.2.1-1.1-.05-.8.05-.55-.5 1.25.15m2 .55l-.3-.1-.15-.05-.2-.05h.3l.35.05v.15" fill="url(#X)"/><linearGradient id="Y" gradientUnits="userSpaceOnUse" gradientTransform="matrix(.00499 -.00157 .04903 .12924 69.6 13.95)" x1="-819.2" x2="819.2"><stop offset=".141" stop-color="#d28366"/><stop offset=".373" stop-color="#eca388"/><stop offset=".588" stop-color="#c97e63"/><stop offset="1" stop-color="#694043"/></linearGradient><path d="M81.3 56.25l.1-.05-.1.05m7.15-1.65h.2l-.2.05v-.05m-2.9 1.8h-.05l-.1.05.1-.05h.05m3.35 0h.05l-.05.05v-.05" fill="url(#Y)"/><linearGradient id="Z" gradientUnits="userSpaceOnUse" gradientTransform="matrix(-.00441 -.00801 .01157 -.00612 91.7 55.6)" x1="-819.2" x2="819.2"><stop offset="0" stop-color="#090808"/><stop offset=".49" stop-color="#191413"/><stop offset="1" stop-color="#230d0a"/></linearGradient><path d="M88.1 55.2l.05.05H88l.1-.05m-.15.05l-.05.05h-.05l.1-.05m1.5-.9v.1l.05.15-.2-.1v-.15h.15M86.9 57.4v.35l-.05-.05-.15-.1-.05-.1.25-.1m-1.25.6l.2.45-.3-.25.05-.15.05-.05m-.6 2.75l-.05.05-.05-.1.1.05m-4.35-2.7l-.3-.1.6.55-.25-.05L80 57.3l-.2-.4.2.4.75.75h-.05m4.1 2l.1-.15.05-.05.1.2-.15.15-.1-.15m.25.4l.05-.05.05.15-.1-.1m3.3-4.05h-.05.05m-.45-.7l-.1.1-.05-.05.15-.05" fill="url(#Z)"/><path d="M85.75 50.85l-.1-.45.1-.3v.75" fill="#332729"/><path d="M85.45 51.65h-.05v-.05l.05.05" fill="#a67d72"/><linearGradient id="aa" gradientUnits="userSpaceOnUse" gradientTransform="matrix(-.00249 -.00516 .12418 -.06207 39.15 80.1)" x1="-819.2" x2="819.2"><stop offset="0" stop-color="#57281f"/><stop offset="1" stop-color="#955a50"/></linearGradient><path d="M85.9 57.05l.05.05.65.45.1.05.15.1.05.05.3.3.2.35.05.15.05.05.1.8v.15l-.05.3-.05.3-.1.25v-.2l-.05-.35-.15-.7v-.4l-.05-.15v.25l-.05.6v.05l-.1.65v.1h-.05L86.8 59l-.05-.05-.15-.4-.1-.15-.45-.6.35.95v.55l-.1-.5-.3-.7-.15-.2-.25-.2-.25-.15-.15-.1-.55-.2-.6-.1v-.05l.2-.05V57H84l-.2-.05h-.1l-.3-.15.65-.05h.3v-.05h.25l.75.15.3.1.15.05.1.05m-3.05 1l-.45-.1h.8l.05-.05.3-.05-.3-.1h-.15l-.35-.1v-.05h.95l.2.05h.05l.95.25.2.1.3.15.15.05.3.25.25.25.05.05.1.1.1.45v.1l.05.55-.05.2.05-.1-.1.65v.15l-.05.1-.05.15-.2.5v.05l-.05-.05.1-.4v-.6l-.1-.9-.15-.4-.05-.05q-.45-.8-1.1-.7v.05l.75.75-.95-.65-.3-.15-1.05-.3H83l-.2-.05v-.05h.2l.05-.05h-.15l-.05-.05m1.6.6h.05-.05m-3.9.05l.2-.05-.55-.2-.3-.15.3.05.55.1.25.05-.6-.55.3.1h.05l.65.25.15.05.1.1.2.05.45.3q.4.2.8.65l.05.05.05.05.05.05.35.35.15.2.1.15.2.5v.9L84 62h-.05v-.05l-.1-.25-.05-.1-.05-.1-.25-.85-.4-.5-.2-.2.4.85v.1l-.2-.3-.2-.25-1-.95-.05-.05-.7-.35-.1-.05-.15-.1h-.05l-.3-.1v-.05m2.25 1.1l.05.1.05.05-.1-.15" fill="url(#aa)"/><linearGradient id="ab" gradientUnits="userSpaceOnUse" gradientTransform="matrix(-.00224 -.0028 .11134 -.08252 44.55 88.45)" x1="-819.2" x2="819.2"><stop offset="0" stop-color="#792e20"/><stop offset=".843" stop-color="#e5a079"/><stop offset="1" stop-color="#ffd0b4"/></linearGradient><path d="M84.05 57.1v.05H84l-.35-.05h.4m.45 1.55h-.05.05m-1.75-1l-.05-.05h.05v.05" fill="url(#ab)"/><linearGradient id="ac" gradientUnits="userSpaceOnUse" gradientTransform="matrix(.00078 -.00407 .13455 .01566 42.35 57)" x1="-819.2" x2="819.2"><stop offset="0" stop-color="#170b07"/><stop offset="1" stop-color="#5e2d26"/></linearGradient><path d="M87 60.25v-.1l.1-.65v-.05l.05-.6h.05v.3l.15.7.05.35v.2l.1-.25.05-.3.05-.3v-.15l-.1-.8.25.75v.05l.05.35v.15q-.1.85-.6 1.65v.05l-.1.1-1.1 1.15-.35.15-.35.2-.8.25-.75.1h-.55l-.9.15-.8-.05-.75-.7h.05l.65.15h.25l.1.05h.55q1-.1 1.45-.65l.15-.3v-.1L84 62l.05-.3v-.9l-.2-.5.2.2-.2-.55-.3-.55 1.2 1 .05.05.1.1.05.15.05.1.1.8v.15l-.05.2.15-.25.05-.1.15-.65v-.8l-.1-.35-.45-.75-.35-.2-.15-.1-.3-.1-.8-.25-.15-.05-.2-.05-.2-.05-.45-.05v-.05h.35l.2.05.2.05h.1l1.05.3.3.15.95.65-.75-.75v-.05q.65-.1 1.1.7l.05.05.15.4.1.9v.6l-.1.4v.1l.05-.05v-.05l.2-.5.05-.15.05-.1v-.15l.1-.65v-1.3l-.35-.95.45.6.05.15.15.4h.05l.05.05.15 1.25v.3l-.05.3-.05.35.1-.35.05-.3v-.3m-3.25 1.35v.15l-.35.85-.75.2-.25-.05.7-.2.2-.85v-.1l-.2-.5-1-1.15-.55-.35-.8-.45-.05-.05-1.05-.35h.4l.35-.05h.05l.1.05.3.1h.05l.15.1.1.05.7.35.05.05 1 .95.2.25.2.3v-.1l-.4-.85.2.2.4.5.25.85v.1" fill="url(#ac)"/><linearGradient id="ad" gradientUnits="userSpaceOnUse" gradientTransform="matrix(.00514 -.0008 .0064 .13898 83.7 11.05)" x1="-819.2" x2="819.2"><stop offset="0" stop-color="#2c0f11"/><stop offset=".573" stop-color="#663224"/><stop offset="1" stop-color="#564566"/></linearGradient><path d="M82.7 56l-.25.1.25-.1" fill="url(#ad)"/><linearGradient id="ae" gradientUnits="userSpaceOnUse" gradientTransform="matrix(-.002 .00755 -.01268 -.00307 80.6 52.85)" x1="-819.2" x2="819.2"><stop offset="0" stop-color="#380f0f"/><stop offset=".42" stop-color="#794334"/><stop offset=".753" stop-color="#3c150c"/><stop offset="1" stop-color="#200300"/></linearGradient><path d="M82.3 56.15l.05.05h-.1l.05-.05m-.75.3l.3.55-.4-.5.1-.05m-.65.3l.45-.2.35.7-.8-.5" fill="url(#ae)"/><linearGradient id="af" gradientUnits="userSpaceOnUse" gradientTransform="matrix(.00204 .00891 -.0127 .00319 81.15 53.15)" x1="-819.2" x2="819.2"><stop offset="0" stop-color="#282121"/><stop offset=".49" stop-color="#614f4e"/><stop offset="1" stop-color="#331915"/></linearGradient><path d="M82 57.45h.1v.1l-.1-.1" fill="url(#af)"/><linearGradient id="ag" gradientUnits="userSpaceOnUse" gradientTransform="matrix(.00204 .00891 -.0127 .00319 81.15 53.15)" x1="-819.2" x2="819.2"><stop offset="0" stop-color="#1c0000"/><stop offset=".49" stop-color="#381b1b"/><stop offset="1" stop-color="#170200"/></linearGradient><path d="M80.75 58.05L80 57.3l.3-.2.4.5.75.65-.05.05-.65-.25m-.55.4l.55.2-.2.05h-.15l-.2-.25m0-.1l-.05-.05q-.6-.95-.65-2.5v-.05l.75 1.3-.25.25-.2-.4.2.4.75 1.15-.55-.1" fill="url(#ag)"/><linearGradient id="ah" gradientUnits="userSpaceOnUse" gradientTransform="matrix(-.00163 -.0055 .13307 -.04124 37.15 75.75)" x1="-819.2" x2="819.2"><stop offset="0" stop-color="#2a150f"/><stop offset="1" stop-color="#a34b3a"/></linearGradient><path d="M86.7 58.95l-.15-.4-.05-.15.1.15.15.4h-.05m.45-.1v-.25l.05.15v.1h-.05m.35-.25l-.05-.05-.05-.15.1.15v.05M84 62l-.05.1.05-.1m-1.75-3.8h-.05l-.1-.05h.15v.05" fill="url(#ah)"/><linearGradient id="ai" gradientUnits="userSpaceOnUse" gradientTransform="matrix(-.00249 -.00516 .12418 -.06207 39.15 80.1)" x1="-819.2" x2="819.2"><stop offset="0" stop-color="#652f24"/><stop offset="1" stop-color="#a5685d"/></linearGradient><path d="M85.95 61.7v-.1l.05.05-.05.05m-3.35-3.55h.2v.05l-.2-.05M83.95 62H84l-.05.1V62m-3.4-3.25l-.1-.05h.1v.05" fill="url(#ai)"/><linearGradient id="aj" gradientUnits="userSpaceOnUse" gradientTransform="matrix(.00179 -.0053 .1317 .03397 38.95 47.85)" x1="-819.2" x2="819.2"><stop offset="0" stop-color="#2a150f"/><stop offset="1" stop-color="#a34b3a"/></linearGradient><path d="M81.05 62.05q.75.6 1.3.65l.05.05.25.05.75-.2.35-.85v-.25l.05.1.05.1.1.25v.25l-.15.3q-.45.55-1.45.65h-.55l-.1-.05h-.1l-.2-.1-.15-.05-.4-.2-.15-.05-1.7-.3h-1.4l1.65-.15h.1l.8.1.95.1-1.2-.3-1.05-.3 1.3-.05-.35-.2-.2-.15-.2-.05.4-.15.65.35.6.45m1.8-2.15l-.05-.1.1.15-.05-.05" fill="url(#aj)"/><linearGradient id="ak" gradientUnits="userSpaceOnUse" gradientTransform="matrix(.00078 -.00407 .13455 .01566 42.35 57)" x1="-819.2" x2="819.2"><stop offset="0" stop-color="#31130a"/><stop offset="1" stop-color="#6d3128"/></linearGradient><path d="M82.9 59.95l-.05-.05.05.05" fill="url(#ak)"/><linearGradient id="al" gradientUnits="userSpaceOnUse" gradientTransform="matrix(-.00441 -.00801 .01157 -.00612 91.7 55.6)" x1="-819.2" x2="819.2"><stop offset="0" stop-color="#090808"/><stop offset=".49"/><stop offset="1" stop-color="#230d0a"/></linearGradient><path d="M82.35 62.7q-.55-.05-1.3-.65l-.05-.2-.1-.25-.2-.25-1.1-.6h.05l.6.25 1.35.3.45-.15.2-.35-.7-1.2.55.35 1 1.15.2.5v.1l-.2.85-.7.2-.05-.05" fill="url(#al)"/><linearGradient id="am" gradientUnits="userSpaceOnUse" gradientTransform="matrix(.00204 .00891 -.0127 .00319 81.15 53.15)" x1="-819.2" x2="819.2"><stop offset="0" stop-color="#1c0000"/><stop offset=".49" stop-color="#261212"/><stop offset="1" stop-color="#170200"/></linearGradient><path d="M80.8 59.9h.05l-.1-.05-.05-.2-.75-.25-1.1-1.05q-.75-1-.75-1.55v-.15q.1.9 1.4 1.75l.55.35h-.4l1.05.35-.15.15.2-.1.8.45.7 1.2-.2.35-.45.15-1.35-.3-.6-.25h.05l.45.05.45-.2.05-.05-.5-.25-.25-.15h.25l-.4-.05-.8-.35-.7-.6q.25.25 1 .5l1.55.35v-.1" fill="url(#am)"/><path d="M88.7 56.25l-.15.1.2-.3-.05.2" fill="#544348"/><linearGradient id="an" gradientUnits="userSpaceOnUse" gradientTransform="matrix(.00499 -.00157 .04903 .12924 69.6 13.95)" x1="-819.2" x2="819.2"><stop offset="0" stop-color="#481d1d"/><stop offset=".502" stop-color="#855250"/><stop offset="1" stop-color="#5f4240"/></linearGradient><path d="M89.2 57.65l-.25.5-.05-.4-.05-.1h-.15l-.4.05-.2.05-.15.05.15-.1.2-.15.05-.05.5-.2.35.05v.3" fill="url(#an)"/><linearGradient id="ao" gradientUnits="userSpaceOnUse" gradientTransform="matrix(.0086 .00053 -.00737 .13985 87.7 10.55)" x1="-819.2" x2="819.2"><stop offset="0" stop-color="#583234"/><stop offset=".549" stop-color="#724c4b"/><stop offset=".667" stop-color="#603e3e"/><stop offset="1" stop-color="#484c51"/></linearGradient><path d="M88.05 59.5H88l.05-.05v.05" fill="url(#ao)"/><linearGradient id="ap" gradientUnits="userSpaceOnUse" gradientTransform="matrix(.00179 -.0053 .1317 .03397 38.95 47.85)" x1="-819.2" x2="819.2"><stop offset="0" stop-color="#511f0f"/><stop offset="1" stop-color="#a34b3a"/></linearGradient><path d="M87 60.55l-.05.3-.1.35.05-.35.05-.3v-.3H87v.3m-.6-1.25v.3-.3" fill="url(#ap)"/><linearGradient id="aq" gradientUnits="userSpaceOnUse" gradientTransform="matrix(.00128 -.00156 .11076 .07845 43.4 35.95)" x1="-819.2" x2="819.2"><stop offset="0"/><stop offset="1" stop-color="#3a211d"/></linearGradient><path d="M80.1 62.8l.75-.05.4.2.15.05.2.1h-.15l-.65-.15h-.05l.75.7.8.05.9-.15h.55l.75-.1.8-.25.35-.2-.35.3-.7.45-1.8.4-2-.3-1.6-.95h-.45l1.35-.1" fill="url(#aq)"/><linearGradient id="ar" gradientUnits="userSpaceOnUse" gradientTransform="matrix(-.00586 .00098 -.00241 -.01286 78.8 69.25)" x1="-819.2" x2="819.2"><stop offset="0" stop-color="#200000"/><stop offset=".565" stop-color="#5b2614"/><stop offset="1" stop-color="#1c0400"/></linearGradient><path d="M80.45 61.6l-.65-.35-.4.15-.6.2-.9.35-.1.05-2.2.75.25.05h-.15l-.9-.2-.85-.45-.5-.3-.3-.25-.25-.2-.1-.1-.4-.6-.05-.1v-.5l.05-.55v-.15l.1-.35.15.8q.2.85.65 1.3l.8.45.35.1.35.05h.35l1.3-.15.9-.25.35-.1q1.3-.5 1.9-.5l1.1.6.2.25.1.25.05.2-.6-.45" fill="url(#ar)"/><path d="M70.7 18.95l-.1.4-.05.05-1.05.1v-.25q0-.45-.2-.55h-.4l-.5.15-.65.15.05.05.5.25h-1.45l-.2.05-.55.2-.15.1 1.15.1-.1.05v.05l-1.05.15-.35.1-.2.05h-.05l-.25.2.5-.6.6-.4.45-.15h-.15l.25-.15q.85-.4 1.65-.5l.95-.1 1.05.2.6.25-.3.05"/><linearGradient id="as" gradientUnits="userSpaceOnUse" gradientTransform="matrix(.00766 0 -.00056 .01076 63.95 27.5)" x1="-819.2" x2="819.2"><stop offset="0" stop-color="#38322f"/><stop offset=".071" stop-color="#1e1b1b"/><stop offset=".169" stop-color="#232326"/><stop offset=".875" stop-color="#2f3238"/><stop offset="1" stop-color="#212427"/></linearGradient><path d="M66.35 24.95l-.75.5-1.2.8v.05l.8.05-.4.2h-.05Q63.6 27.2 63 27.6q-1.2.9-1.85 1.7h-.1l1.35-1.65 1.2-1.2.4-.45h-.05q-1.6.75-3.1 2.35l-.65.75-.35.45q-1.05 1.4-1.5 2.65l-.3.9v.1l.5-.6.2-.2.25-.2.25-.2-.1.2-.65 1.15-.35.9Q58 34.6 58 35l.05.2-.05.1.05.15.75-1.1 1.15-1.4Q58.9 34 58.6 36.4l-.2 1-.05.15-.1-.15-.1-.25-.45-1.55-.15-1.15q.05-1 .55-2.25.5-1.4 1.5-3.05l.25-.4L61.1 27q1.4-1.5 2.3-1.85-.7.1-1.45.55l-1.3.8.7-.85.9-.85-2.4 1.2-.15.05.15-.2 1.5-2.15-.1.05-1.05.95-.35.35-.4.5v-.15l.4-1.15.35-.7.45-.65v-.05l.25-.25.2-.2.9-.9.6-.45h.05l.75-.25.55-.3.35-.45.75-.55.55-.25.3-.1.6.05h.15l-.45.15-.5.15-.1.1-.4.35-.15.25-.15.2.2-.05.25-.2h.05l1.2.1-1.3.55.3.05h.55l-.55.5-.35.3-.4.15-.15.05-.55.15.4-.2q.1-.05.25-.15l.7-.4h-.7l-1.6.2.25-.1 1.7-.6-2.5.65-.1.05-1.35 1.1q.5-.25 1.65-.55l.8-.2.2-.05-.1.05-.15.05-2.75 1.8 1.15-.6q.85-.5 3.1-1.25l-.15.2h.7v.05l-.05.25-.05.2v.05l-1.1.6v.05h1.05v.25l.05.1-.45.55h.65v.05l-.15.1-.15.05q-.25.05-.3.2l.45.05.4.1.15.05h.05l-.05.05v.05l.1.05.15.05-.05.05M61.8 24l-.9.9q1-.45 4.15-1.3l-1.25-.05-.45.15q.45-.4 1.45-1l-.9.1-.9.3-1.2.9m3.45-.4l-.15.05q-1.7.45-2.3 1l-.75.7q.5-.4 1.15-.65l1.05-.3-1.05 1.15-.15.2-.85 1.05 1.05-.65.3-.15q.35-.25.95-.6h.05l-.1.1 1.15-.55.4-.25v-.05l-.4.05h-.05l-1.3.35q.75-1.2 1.1-1.45h-.1" fill="url(#as)"/><linearGradient id="at" gradientUnits="userSpaceOnUse" gradientTransform="matrix(.00766 0 -.00056 .01076 63.95 27.5)" x1="-819.2" x2="819.2"><stop offset="0" stop-color="#38322f"/><stop offset=".071" stop-color="#1e1b1b"/><stop offset=".169" stop-color="#292933"/><stop offset="1" stop-color="#212427"/></linearGradient><path d="M68.85 19.3l-.45.35-.25.2-.85.4h-.05q-1 .8-1.25 1.55l-.1.2-.25 1.15v-.2l-.05.4.05.6.05.1.05.05h-.65l.45-.55-.05-.1v-.25h-1.05v-.05l1.1-.6v-.05l.05-.2.05-.25V22h-.7l.15-.2.15-.05v-.1l.35-.3.55-.5h-.55l-.3-.05 1.3-.55-1.2-.1.2-.05.35-.1 1.05-.15v-.05l.1-.05-1.15-.1.15-.1.55-.2.2-.05h1.45l-.5-.25-.05-.05.65-.15.45.45m-3.1 4.3l.1.05h-.1v-.05m.4 1.1l-.15-.05-.4-.1-.45-.05q.05-.15.3-.2l.15-.05.15-.1.15.25.1.1.15.15.05.05h-.05m-.65 1.5l-.25.1-.05.05-.8-.05v-.05l1.2-.8.75-.5.05-.05.1.05.4.45-.9.25-.4.25-.7.3v.05l.6-.05" fill="url(#at)"/><linearGradient id="au" gradientUnits="userSpaceOnUse" gradientTransform="matrix(.00284 0 0 .00177 63.15 22.2)" x1="-819.2" x2="819.2"><stop offset="0" stop-color="#242428"/><stop offset=".502" stop-color="#474d58"/><stop offset="1" stop-color="#222225"/></linearGradient><path d="M65.25 21.75l-.15.05q-2.25.75-3.1 1.25l-1.15.6 2.75-1.8.15-.05.1-.05-.2.05-.8.2q-1.15.3-1.65.55l1.35-1.1.1-.05 2.5-.65-1.7.6-.25.1 1.6-.2h.7l-.7.4q-.15.1-.25.15l-.4.2.55-.15.15-.05.4-.15v.1" fill="url(#au)"/><linearGradient id="av" gradientUnits="userSpaceOnUse" gradientTransform="matrix(-.00235 .007 -.01076 -.00278 57.2 28.25)" x1="-819.2" x2="819.2"><stop offset="0" stop-color="#090909"/><stop offset=".169" stop-color="#1b1d1e"/><stop offset="1" stop-color="#0f0f10"/></linearGradient><path d="M57.35 35.75v-.25l-.05-.15v-.9q.05-1.15.45-2.25.55-1.9 1.9-3.75l.2-.3.95-1.25-.2.1-.3.2-.45.4q-1.2.95-1.65 1.65l1.05-1.4.6-.75 1.1-1.45-1.1.9-.95.95-.75 1v-.35L58.5 27l.45-1q-.2.2-.1-.25.15-.55 1-1.75l.7-1 .1-.1-.45.65-.35.7-.4 1.15v.15l.4-.5.35-.35 1.05-.95.1-.05-1.5 2.15-.15.2.15-.05 2.4-1.2-.9.85-.7.85 1.3-.8q.75-.45 1.45-.55-.9.35-2.3 1.85l-1.25 1.75-.25.4q-1 1.65-1.5 3.05-.5 1.25-.55 2.25l.15 1.15.45 1.55.1.25-.25-.2-.1-.15-.55-1.3m3.2-9.15h.05l.05-.1-.1.1" fill="url(#av)"/><linearGradient id="aw" gradientUnits="userSpaceOnUse" gradientTransform="matrix(.00253 0 0 .00134 62.95 23.8)" x1="-819.2" x2="819.2"><stop offset="0" stop-color="#242428"/><stop offset=".502" stop-color="#474d58"/><stop offset="1" stop-color="#222225"/></linearGradient><path d="M63 23.1l.9-.3.9-.1q-1 .6-1.45 1l.45-.15 1.25.05q-3.15.85-4.15 1.3l.9-.9 1.2-.9" fill="url(#aw)"/><linearGradient id="ax" gradientUnits="userSpaceOnUse" gradientTransform="matrix(.00241 0 0 .00195 64 25.2)" x1="-819.2" x2="819.2"><stop offset="0" stop-color="#242428"/><stop offset=".502" stop-color="#474d58"/><stop offset="1" stop-color="#222225"/></linearGradient><path d="M65.35 23.6q-.35.25-1.1 1.45l1.3-.35h.05l.4-.05v.05l-.4.25-1.15.55.1-.1h-.05q-.6.35-.95.6l-.3.15-1.05.65.85-1.05.15-.2 1.05-1.15-1.05.3q-.65.25-1.15.65l.75-.7q.6-.55 2.3-1l.15-.05h.1" fill="url(#ax)"/><path d="M70.6 19.35l.1-.4.3-.05.85-.15 1.9.1.05.05q-.7.2-.3.35l1.2.4 1.8.85-1.3-.4v.05l1.9 1.4.35.25.2.2.2.15.05.1h.05l.05.05.05.1.65.65-.25-.2-1.3-1.05-.15-.1q-1.3-.95-2.25-1.4-1.65-.9-3.4-.95h-.75" fill="#2a2d33"/><linearGradient id="ay" gradientUnits="userSpaceOnUse" gradientTransform="matrix(.00766 0 -.00056 .01076 63.95 27.5)" x1="-819.2" x2="819.2"><stop offset="0" stop-color="#38322f"/><stop offset=".071" stop-color="#1e1b1b"/><stop offset=".169" stop-color="#232326"/><stop offset=".537" stop-color="#232731"/><stop offset="1" stop-color="#0c0d0e"/></linearGradient><path d="M68.15 19.85l.25-.2.45-.35-.45-.45.5-.15h.4q.2.1.2.55v.25l-1.1.25-.25.1" fill="url(#ay)"/><linearGradient id="az" gradientUnits="userSpaceOnUse" gradientTransform="matrix(.0021 0 0 .0029 67.7 22.35)" x1="-819.2" x2="819.2"><stop offset="0" stop-color="#38322f"/><stop offset=".071" stop-color="#1e1b1b"/><stop offset=".169" stop-color="#232326"/><stop offset=".537" stop-color="#1b1c20"/><stop offset="1" stop-color="#0c0d0e"/></linearGradient><path d="M66 22.7l.15-.6.2-.3.55-.7.1-.1q.7-.6 1.4-.8l.2-.05.2-.05.5-.1-.9.3-.75.35q-1.25.8-1.5 1.6l-.1.45H66m1.05-.95h.2l-.05.05-.25.25-.3.35.4-.65m-.4.7h.75l-.85.25.1-.25m.55.45l-.7.3.6.4.65.45v.05l-.3.05-.35.1h-.05l.6.5h-.5l-.45-.3.3-.1q-.1-.25-.45-.2L66.5 24l.5-.15v-.05l-.55-.35v-.3l.1-.4.15.05.25.05.25.05" fill="url(#az)"/><linearGradient id="aA" gradientUnits="userSpaceOnUse" gradientTransform="matrix(.00687 0 -.0003 .00587 74.05 24.75)" x1="-819.2" x2="819.2"><stop offset="0" stop-color="#201e1d"/><stop offset="1" stop-color="#413b4f"/></linearGradient><path d="M69.95 20.35h.8l1.65.05q1.55.4 3 1.4l.2.15 2.2 2.2.25.5.45 1.25.1.95.05.65v.1l-.1-.1-.2-.4-.3-.85.1.45-1-1.65q-1.35-1.75-2.9-2.35 1.4.85 2.9 2.65l.65 1.05-.1-.15-1.05-1.1-1.3-1.2-.85-.45-.75-.5-1.8-1-.5-.2-1.55-.3-.05-.05H69l.5-.4.65-.45h-.75l-.25.1-.4.05q.2-.15.3-.2l.9-.2" fill="url(#aA)"/><linearGradient id="aB" gradientUnits="userSpaceOnUse" gradientTransform="matrix(.00752 .00424 -.07507 .11362 81.7 15.8)" x1="-819.2" x2="819.2"><stop offset="0" stop-color="#2c2828"/><stop offset=".773" stop-color="#525057"/><stop offset="1" stop-color="#694441"/></linearGradient><path d="M80.15 31.35l.55 1.25.55 1.75-.65-.8q-.35-2.05-2.15-5.05l-.15-.2-.2-.2-.1-.1q-2.6-3.1-4.2-4.05-1.6-.95-2.85-1l-.75.05 1.9.55 1.5.8 1.1.85-.75-.2-.9-.15-1.35-.1.95.3.2.1.45.2 1.1.65 1.1.85.5.5.15.15 1.6 2.1.3.55.45.8.65 1.25.45 1.2.3 1.55.05.45-.1-.5-.9-2.7-.7-1.4-.4-.65-.4-.55-.5-.65-.6-.8-.6-.65-.15-.1-1.15-.95-1.75-1-1.5-.65-1.1-.45.35-.05.65-.05 1.25.15 1.05.15-1.25-.55-1.55-.5-1.25-.2-.65-.1q.55-.4 1.8-.55l-.65-.1-.6-.05v-.05l1.25-.4-.2-.05h-1.1l-.55.05h-.4l.15-.25v-.2l-.45-.5-.05-.05.5-.25.6-.25h.05q-.1.05-.3.2l.4-.05.25-.1h.75l-.65.45-.5.4h.85l.05.05 1.55.3.5.2 1.8 1 .75.5 1.9 1.7 1.7 2.05.05.05v.05l.05.15v.05l.05-.05.4.75v-.05l.1.15.65 1.25.2.55.55 1.2" fill="url(#aB)"/><linearGradient id="aC" gradientUnits="userSpaceOnUse" gradientTransform="matrix(.01398 .00789 -.07507 .11366 85.9 20.4)" x1="-819.2" x2="819.2"><stop offset="0" stop-color="#171515"/><stop offset="1" stop-color="#4a3e3d"/></linearGradient><path d="M66.95 25.4l-.35-.4-.05-.1-.2-.75v-.05l-.05-.7q.05-1 .6-1.65l.3-.35.6-.4.6-.3.55-.2 1.4-.35h.45l1.6.1 1.75.45q.45.15 1.05.6l.55.35-.9-.4-.2-.1-1.05-.5-1.2-.25-1.65-.05h-.8l-.9.2H69l-.6.25-.5.25-.4.3-.1.05-.15.15-.2.2-.4.65v.05l-.1.25v.05l-.1.4v.3l.05.55.05.15.15.3.15.15.45.35.25.2h-.1l.5.2.2.1-.05.05v.05l.2.1h-.5l-.35-.05-.5-.2" fill="url(#aC)"/><path d="M67.55 21.4l-.05.15-.05.25-.2.25v.2h.3l-.1.2-.05-.05h-.55l.45-.6.1-.25h-.15l.15-.15.1-.05.05.05m.35 2.75h.45l-.4.35-.3.25.15-.2-.15-.2-.25.05.2-.15.3-.2-.25-.35-.6-.5q.05-.1.2-.15h.2l-.2-.15-.3-.05v-.05l.45-.25-.05.15.2.1-.1.25v.15l.15.2.4.15v.15l-.05.15H68l-.1.3" fill="#624b46"/><path d="M67.25 21.55h.15l-.1.25-.45.6h.55l.05.05.1-.2h-.3v-.2l.2-.25.05-.25.05-.15-.05-.05.4-.3.05.05v.1l-.1.2-.15.2h.15l-.15.2-.25.35h.25l-.1.2-.15.3.35.05-.2.35-.05.2.35.1.15.1-.05.25v-.15l-.4-.15-.15-.2v-.15l.1-.25-.2-.1.05-.15.05-.05v-.05l-.05.1-.45.25v.05l-.25-.05-.15-.05v-.05l.85-.25h-.75v-.05l.3-.35.25-.25.05-.05h-.2l.2-.2m.25 3.4l-.45-.2h.6l-.6-.5h.05l.35-.1.3-.05v-.05l-.65-.45-.6-.4.7-.3-.25-.05.3.05.2.15h-.2q-.15.05-.2.15l.6.5.25.35-.3.2-.2.15.25-.05.15.2-.15.2.3-.25.4-.35h-.45l.1-.3.2.2.2.1.1.1-.1.2-.1.15-.1.1-.2.15-.05.05-.45.05" fill="#48332c"/><path d="M68.2 22.1l.1.15.1.2-.5.55.3.15.15.05.05.05.5.2-.2.15-.15.1.7.3q.6.25.6.45l-.2.3.35.2.45.15-.05.1-.2.05-.2.1q1.5-.1 2.7.65l-2.05-.15v-.2l.2-.1-.75.15-.75.15-.6-.2v-.05h-.1l-.25-.1-.6-.3-.2-.05.05-.05.35-.15h-.1l.05-.05H68v-.05l.2-.15.1-.1.1-.15.1-.2-.1-.1-.2-.1-.2-.2h-.05l.05-.15.05-.25-.15-.1-.35-.1.05-.2.2-.35-.35-.05.15-.3.1-.2h-.25l.25-.35.15-.2h-.15l.15-.2.1-.2v-.1l.45.5v.2l-.15.25-.05.05" fill="#311f1e"/><path d="M67.4 22.55l.05-.1v.05l-.05.05" fill="#53423c"/><path d="M66.05 22.7l-.05.15v-.15h.05m.1-.6l.15-.3.6-.7-.55.7-.2.3m.3 1.35l.55.35v.05l-.5.15-.05-.55m.1.7q.35-.05.45.2l-.3.1-.15-.3" fill="#1e2323"/><linearGradient id="aD" gradientUnits="userSpaceOnUse" gradientTransform="matrix(.01222 .00183 -.0014 .0069 73.9 29.7)" x1="-819.2" x2="819.2"><stop offset="0" stop-color="#38363c"/><stop offset=".2" stop-color="#6e6879"/><stop offset=".624" stop-color="#38373e"/><stop offset="1" stop-color="#524c59"/></linearGradient><path d="M78.6 24.95q-.6-1.3-1.4-2.2 1.2 1.1 1.65 2.5l-.25-.3m-11.55-.2l.45.2h-.2l-.45-.35-.15-.15.45.3h-.1" fill="url(#aD)"/><linearGradient id="aE" gradientUnits="userSpaceOnUse" gradientTransform="matrix(.00311 -.00471 .00543 .00307 58.6 32.3)" x1="-819.2" x2="819.2"><stop offset="0" stop-color="#332c2b"/><stop offset="1" stop-color="#171919"/></linearGradient><path d="M56.75 33.1v-.15l.15-.75V32l.45-2.3q.25-1.9 1.5-3.95-.1.45.1.25l-.45 1-.35 1.15v.35l.75-1 .95-.95 1.1-.9-1.1 1.45-.6.75-1.05 1.4q.45-.7 1.65-1.65l.45-.4.3-.2.2-.1-.95 1.25-.2.3q-1.35 1.85-1.9 3.75-.4 1.1-.45 2.25v.9l.05.15v.25l-.4-1.05-.2-1.6" fill="url(#aE)"/><linearGradient id="aF" gradientUnits="userSpaceOnUse" gradientTransform="matrix(.00766 0 -.00056 .01076 63.95 27.5)" x1="-819.2" x2="819.2"><stop offset="0" stop-color="#38322f"/><stop offset=".169" stop-color="#232625"/><stop offset="1" stop-color="#1e2323"/></linearGradient><path d="M60.65 26.5l-.05.1h-.05l.1-.1" fill="url(#aF)"/><linearGradient id="aG" gradientUnits="userSpaceOnUse" gradientTransform="matrix(.00601 -.00545 .00504 .00504 61.55 31.85)" x1="-819.2" x2="819.2"><stop offset="0" stop-color="#1e1d1c"/><stop offset=".443" stop-color="#111212"/><stop offset="1" stop-color="#1e2020"/></linearGradient><path d="M63.7 27.4l-.35.4-.2.2-.2.25-.95 1.9-.9 2.05-.55 1.5-.15.15h.05l-.65 1.5v.05l.15-.2-.2.5.05-.05q-.2.5-.25 1.75v.65l.1 1.65-.5-1.65-.05.85-.15-1.3v-.1l.05-.1v-.75l.1-.6q.2-1.35.55-2.15l.75-1.7.05-.2-.2.2-.9.8-.55.55.6-1.35.1-.25 1.05-1.8.15-.2-.25.2-.7.5-.8.9v-.05l.9-1.5 1-1.65q1.5-1.6 3.1-2.35H64l-.4.45-1.2 1.2-1.35 1.65h.1q.65-.8 1.85-1.7.6-.4 1.75-1.05l-1.05.85" fill="url(#aG)"/><linearGradient id="aH" gradientUnits="userSpaceOnUse" gradientTransform="matrix(.00601 -.00545 .00504 .00504 61.55 31.85)" x1="-819.2" x2="819.2"><stop offset=".071" stop-color="#1e1b1b"/><stop offset=".169" stop-color="#19191c"/><stop offset="1" stop-color="#111212"/></linearGradient><path d="M58.75 38.05l-.05-.15-.35-.35.05-.15.2-1q.3-2.4 1.35-3.45l-1.15 1.4-.75 1.1-.05-.15.05-.1L58 35q0-.4.15-.75l.35-.9.65-1.15.1-.2-.25.2-.25.2-.2.2-.5.6v-.1l.3-.9q.45-1.25 1.5-2.65l.35-.45.65-.75-1 1.65-.9 1.5v.05l.8-.9.7-.5.25-.2-.15.2-1.05 1.8-.1.25-.6 1.35.55-.55.9-.8.2-.2-.05.2-.75 1.7q-.35.8-.55 2.15l-.1.6v.75l-.05.1v.1l-.05.05-.05.4h-.1m-1.8-3.35l.4 1.05.55 1.3-.6-.55q-.7-1.1-.55-3.4l.2 1.6" fill="url(#aH)"/><path d="M65.25 26.3l.25-.1.1-.05.8-.3v-.05H66l.8-.15.65-.05.35.05h.5l-.2-.1.3.05.35.05.6.2.75-.15.75-.15-.2.1v.2l2.05.15h.05l.3.3.15.1.9 1 .1.1.1.15.15.3.1.15.1.1v.05l.7 1.35.25.55.2.45.75 2.05.05.15-1.25-2.65-.15-.3-.3-.55-1.05-1.5-.55-.55.25.1q-.7-.7-2-.9l.05-.05.15-.1-.65-.05-1.05-.05v-.05l.4-.2-.9.2-.2.1h-.05l-.1-.2-.2.1-.25-.1-.35-.1-.85-.2v.05l.2.1-1.15.25-.8.35-.2.1q-.4.15-.75.45l-.6.5-1.25 1.2-.9 1.4-.05.15-.15.45-.05.1-.4 1.2-.05.15-.25.8-.8 1.75v.05l.35-.25-.05.1-.55 1.2-.2.55.1-.1.15-.1-.2.45v.05l-.1.55v1.45q.1 1.1.5 2.25-.65-.7-.75-1.2h-.05l.05.45-.3-.6v.25l-.55-1.8h.1l.05-.4.05-.05.15 1.3.05-.85.5 1.65-.1-1.65v-.65q.05-1.25.25-1.75l-.05.05.2-.5-.15.2v-.05l.65-1.5h-.05l.15-.15.55-1.5.9-2.05.95-1.9.2-.25.2-.2.35-.4 1.05-.85h.05l.4-.2.05-.05" fill="#4a3130"/><linearGradient id="aI" gradientUnits="userSpaceOnUse" gradientTransform="matrix(-.00218 .00647 -.00787 -.00204 76.95 32.85)" x1="-819.2" x2="819.2"><stop offset="0" stop-color="#131515"/><stop offset="1" stop-color="#382a2d"/></linearGradient><path d="M77.9 33.9l.55 2.55q-.55-2.4-1.35-4.25l-.45-.95.15.25-.6-1-.25-.35-.15-.15v.15l-.3-.55-.85-1.4-.1-.1-.1-.15-.15-.3-.1-.15-.1-.1-.9-1 1.45 1.1.8.65 1.3 1.45.4.55.2.3 1 1.75.4.9L80 36.7l.15.7.55 1.9L80 38l-.2-.35v1.4l-.4-1.65-.15-.55-.15-.55-.5-1.75-.85-2.35-.7-1.15-.65-.85.25.65.65 1.35v.05l.15.2.45 1.45" fill="url(#aI)"/><path d="M73.2 26.4l.9.5.3.3-1.2-.8" fill="#38282d"/><linearGradient id="aJ" gradientUnits="userSpaceOnUse" gradientTransform="matrix(.00752 .00424 -.07507 .11362 81.7 15.8)" x1="-819.2" x2="819.2"><stop offset="0" stop-color="#2c2828"/><stop offset=".447" stop-color="#5c5769"/><stop offset="1" stop-color="#a85b56"/></linearGradient><path d="M79.55 31.05l-.15-.4.2.4v.05l-.05-.05" fill="url(#aJ)"/><linearGradient id="aK" gradientUnits="userSpaceOnUse" gradientTransform="matrix(.00766 0 -.00056 .01076 63.95 27.5)" x1="-819.2" x2="819.2"><stop offset="0" stop-color="#38322f"/><stop offset=".071" stop-color="#1e1b1b"/><stop offset=".169" stop-color="#232326"/><stop offset=".537" stop-color="#1b1c20"/><stop offset="1" stop-color="#0c0d0e"/></linearGradient><path d="M66.5 24.95l-.1-.05-.15-.05-.1-.05v-.05l.05-.05.2.1.1.15m1.45-.05l-.05.05h.1l-.35.15-.05.05.2.05.6.3.25.1h.1v.05l-.35-.05-.3-.05v-.05l.05-.05-.2-.1-.5-.2h.1l-.25-.2h.2l.45-.05m-3.05 1.35v-.05l.7-.3.4-.25.9-.25h.05l.5.2-.65.05-.8.15h.4v.05l-.8.3-.1.05-.6.05" fill="url(#aK)"/><linearGradient id="aL" gradientUnits="userSpaceOnUse" gradientTransform="matrix(.00517 .00291 -.00246 .0037 78.2 58)" x1="-819.2" x2="819.2"><stop offset="0" stop-color="#4d1300" stop-opacity=".498"/><stop offset=".251" stop-color="#cd7e4d" stop-opacity=".6"/><stop offset="1" stop-color="#722512"/></linearGradient><path d="M79.2 49.35v.05-.05" fill="url(#aL)"/><linearGradient id="aM" gradientUnits="userSpaceOnUse" gradientTransform="matrix(.00267 .00464 -.00394 .00227 78.55 55.7)" x1="-819.2" x2="819.2"><stop offset="0" stop-color="#603530"/><stop offset=".447" stop-color="#653a30"/><stop offset="1" stop-color="#210a08"/><stop offset="1" stop-color="#5b3633"/></linearGradient><path d="M77.2 51.8l-.15.2q-.7.95-.9 1.6l-.1.25-.15.55-.2 1.1-.05.5.05.45.15.55.15.55 1.1 1.65 1.15.8.45.2.35.1 1.5.25-2.3-.05-.55-.25-.05-.05q-.8-.5-1.3-1l-.05-.05-.6-1-.3-.75-.1-.5-.1-.6V56l-.05-.7.1-.3v-.3l.05-.3.35-.8.95-1.45.15-.15.15-.2q1.1-1.4 2.3-2.4l-2 2.4" fill="url(#aM)"/><linearGradient id="aN" gradientUnits="userSpaceOnUse" gradientTransform="matrix(.00418 .01825 -.02002 .00502 78.25 44)" x1="-819.2" x2="819.2"><stop offset="0" stop-color="#1a1919"/><stop offset=".471" stop-color="#482423"/><stop offset="1" stop-color="#231b1a"/></linearGradient><path d="M80.6 48.6l-.5.95-.7.85-.9 1.15-.15.2v.05l-.15.2-.85 1.35-.1.25-.1.25-.1.4-.05.15-.15.7-.05.5v-.4l.1-.8.05-.15.15-.65.1-.3.15-.25L78 52l.1-.2.05-.05 1.15-1.35.15-.2 1.15-1.6" fill="url(#aN)"/><linearGradient id="aO" gradientUnits="userSpaceOnUse" gradientTransform="matrix(-.00287 .00905 -.00948 -.003 76.95 52.05)" x1="-819.2" x2="819.2"><stop offset="0" stop-color="#111112"/><stop offset=".533" stop-color="#401815"/><stop offset=".761" stop-color="#4d251e"/><stop offset="1" stop-color="#270500"/></linearGradient><path d="M73.2 54.4l.1-.15v-.1l.3-.55.45-.65.05-.05.05-.05.25-.35.4-.4.1-.1.3-.3q.35-.3.6-.4h.05l-.35.5-.1.2-.6 1-.3.6-.25.65-.05.15q-.55 1.65-.55 3.45l.05.7q-.25-.65-.2-1.05l-.2.7v-.35l.2-1.05v-.2h-.05l-.4.85-.35.55-.05-.6v-.2l.25-1.65.1-.6.2-.55" fill="url(#aO)"/><linearGradient id="aP" gradientUnits="userSpaceOnUse" gradientTransform="matrix(-.00287 .00905 -.00948 -.003 76.95 52.05)" x1="-819.2" x2="819.2"><stop offset="0" stop-color="#111112"/><stop offset=".533" stop-color="#251817"/><stop offset=".761" stop-color="#3a2623"/><stop offset="1" stop-color="#170b09"/></linearGradient><path d="M73.1 54.6l.1-.2-.2.55.1-.35m-.45 3.4v-.6l.05.6h-.05" fill="url(#aP)"/><linearGradient id="aQ" gradientUnits="userSpaceOnUse" gradientTransform="matrix(.0024 .00342 -.0032 .00227 76.35 58.7)" x1="-819.2" x2="819.2"><stop offset="0" stop-color="#1a0c0a"/><stop offset="1" stop-color="#030100"/></linearGradient><path d="M76.25 59.25l1.1.85.3.1.05.05.55.25-.55-.05-.35-.15-.1-.1.1.1.4.4-.4-.15-.6-.35-.3-.2-.5-.35-.1-.05.55.7.95.75q-1.3-.5-2.45-2.25l.15.4.35.65 1 1.15-.95-.55.7.7q-.8-.25-1.35-1.05l-.2-.35q-.45-.75-.55-1.5L74 59l.05.75-.2-.75v.35l.1.65.15.4.1.25.15.3.05.1-.15-.05-.2-.05-.75-.5-.65-.6-.15-.8-.1.35v.15l-.05.55v.5q-.3-.75-.25-1.65v-.4l.1-.45.2-1.1.2-.7.35-1.3.15-.4-.1.35-.1.6-.25 1.65v.8h.05l.35-.55.4-.85h.05v.2l-.2 1.05v.35l.2-.7q-.05.4.2 1.05l.1.2v-1.1l.2-1.15.45-1.1q-.15.75-.05 1.95v.15q0 1.15.25 1.65l.05-.8.1.25.05.05.05.1-.05-.2-.05-.45-.05-.6.05-.45v-.1l.4.75.65 1.05.4.5" fill="url(#aQ)"/><linearGradient id="aR" gradientUnits="userSpaceOnUse" gradientTransform="matrix(.00441 .00801 -.01157 .00612 80.65 51.85)" x1="-819.2" x2="819.2"><stop offset="0" stop-color="#1e0505"/><stop offset=".49" stop-color="#472521"/><stop offset="1" stop-color="#250505"/></linearGradient><path d="M78.75 60.2l1.15-.05.25.15.5.25-.05.05-.45.2-.45-.05h-.1q-.6 0-1.9.5l-.35.1-.9.25-1.3.15h-.35l-.35-.05-.35-.1-.8-.45q-.45-.45-.65-1.3l.65.6.75.5.2.05.15.05-.05-.1-.15-.3-.1-.25-.15-.4-.1-.65V59l.2.75L74 59l.05-.75q.1.75.55 1.5l.2.35q.55.8 1.35 1.05l-.7-.7.95.55-1-1.15-.35-.65-.15-.4q1.15 1.75 2.45 2.25l-.95-.75-.55-.7.1.05.5.35.3.2.6.35.4.15-.4-.4-.1-.1.1.1.35.15.55.05 2.3.05-1.5-.25-.35-.1h.05m-1.3.85h-.1.1" fill="url(#aR)"/><linearGradient id="aS" gradientUnits="userSpaceOnUse" gradientTransform="matrix(.00441 .00801 -.01157 .00612 80.65 51.85)" x1="-819.2" x2="819.2"><stop offset="0" stop-color="#1e0505"/><stop offset=".49" stop-color="#703a34"/><stop offset="1" stop-color="#250505"/></linearGradient><path d="M75.85 58.75l.05.05.4.35.05.05q.5.5 1.3 1l-.3-.1-1.1-.85-.4-.5" fill="url(#aS)"/><linearGradient id="aT" gradientUnits="userSpaceOnUse" gradientTransform="matrix(.00441 .00801 -.01157 .00612 80.65 51.85)" x1="-819.2" x2="819.2"><stop offset="0" stop-color="#282121"/><stop offset=".49" stop-color="#4a2b28"/><stop offset="1" stop-color="#2a1511"/></linearGradient><path d="M80.8 60l-1.55-.35q-.75-.25-1-.5l.7.6.8.35-1.15-.2-.1-.05-.3-.3-.25-.6-.1-.3-.05-.35-.05-.4v-.45q.1 1.15.95 1.8.8.65 1.95.65h.15v.1" fill="url(#aT)"/><linearGradient id="aU" gradientUnits="userSpaceOnUse" gradientTransform="matrix(.0024 .00342 -.0032 .00227 76.35 58.7)" x1="-819.2" x2="819.2"><stop offset="0" stop-color="#2b1512"/><stop offset="1" stop-color="#120705"/></linearGradient><path d="M77.4 61.05h-.05.1-.05" fill="url(#aU)"/><linearGradient id="aV" gradientUnits="userSpaceOnUse" gradientTransform="matrix(.00179 .00246 -.10362 .0877 113.7 33.45)" x1="-819.2" x2="819.2"><stop offset="0" stop-color="#09080b"/><stop offset=".251" stop-color="#110e19"/><stop offset="1" stop-color="#331912"/></linearGradient><path d="M79.4 61.4l.2.05.2.15.35.2-1.3.05 1.05.3 1.2.3-.95-.1-.8-.1h-.1l-1.65.15H79l1.7.3.15.05-.75.05-1.35.1-.4.05-1.05.05-1-.15-.45-.05-.25-.05 2.2-.75.1-.05.9-.35.6-.2" fill="url(#aV)"/><linearGradient id="aW" gradientUnits="userSpaceOnUse" gradientTransform="matrix(.00357 .00206 -.00285 .00494 79.9 25.2)" x1="-819.2" x2="819.2"><stop offset="0" stop-color="#fff" stop-opacity="0"/><stop offset=".475" stop-color="#fff" stop-opacity=".29"/><stop offset="1" stop-color="#fff" stop-opacity="0"/></linearGradient><path d="M81.1 25.7q1.2 2.25 1.45 4.15-1.8-4.05-5.15-7.55l2.95 2.85Q79 22.9 76.5 20.5q2.25 1.25 4.35 3.45l-1.25-.75q2.15 2.2 3.65 5.5l-2.15-3" fill="url(#aW)"/><linearGradient id="aX" gradientUnits="userSpaceOnUse" gradientTransform="matrix(.00166 .00288 -.00597 .00345 85.35 36.25)" x1="-819.2" x2="819.2"><stop offset="0" stop-color="#fff" stop-opacity="0"/><stop offset=".475" stop-color="#fff" stop-opacity=".29"/><stop offset="1" stop-color="#fff" stop-opacity="0"/></linearGradient><path d="M85 36.35q-1.25-3-2.1-7 1.6 5 4.5 10.55l-1.85-2.45q.2 1.85 1.3 3.2-2.85-2.9-4.45-6.7 1.3 2.35 2.85 4-2-2.95-3.3-7.15L85 36.35" fill="url(#aX)"/><linearGradient id="aY" gradientUnits="userSpaceOnUse" gradientTransform="matrix(.00168 .00168 -.00252 .00252 81.6 43.1)" x1="-819.2" x2="819.2"><stop offset="0" stop-color="#fff" stop-opacity="0"/><stop offset=".475" stop-color="#fff" stop-opacity=".29"/><stop offset="1" stop-color="#fff" stop-opacity="0"/></linearGradient><path d="M81.9 43.4q.25 1.4 1.2 2.65-2.55-2.1-3.45-5.5.85 2.05 2 3.3-1-1.45-1.5-3.65 1.15 2.5 3.4 4.4l-1.65-1.2" fill="url(#aY)"/><linearGradient id="aZ" gradientUnits="userSpaceOnUse" gradientTransform="matrix(.00208 .00208 -.00285 .00285 84.4 39.6)" x1="-819.2" x2="819.2"><stop offset="0" stop-color="#fff" stop-opacity="0"/><stop offset=".475" stop-color="#fff" stop-opacity=".29"/><stop offset="1" stop-color="#fff" stop-opacity="0"/></linearGradient><path d="M86.3 42.9q-3.85-2.2-4.3-5.5.8 2.3 2.3 3.35-1.4-1.75-1.75-4.45.65 3.25 4.25 5.4l-2-.9q.55 1.2 1.5 2.1" fill="url(#aZ)"/><linearGradient id="ba" gradientUnits="userSpaceOnUse" gradientTransform="matrix(.00183 0 0 .001 87.05 55.8)" x1="-819.2" x2="819.2"><stop offset="0" stop-color="#fff" stop-opacity="0"/><stop offset=".49" stop-color="#fff" stop-opacity=".243"/><stop offset="1" stop-color="#fff" stop-opacity="0"/></linearGradient><path d="M89.2 55.4q-1.9.25-3.85 1.25l1.45-1-1.9.5q1.8-1.2 3.9-1.15-1.2.15-1.7.6l2.1-.2" fill="url(#ba)"/><linearGradient id="bb" gradientUnits="userSpaceOnUse" gradientTransform="matrix(.00076 -.00287 .00098 .00026 83.9 50.55)" x1="-819.2" x2="819.2"><stop offset="0" stop-color="#fff" stop-opacity="0"/><stop offset=".443" stop-color="#fff" stop-opacity=".333"/><stop offset="1" stop-color="#fff" stop-opacity="0"/></linearGradient><path d="M82.3 53.95q.45-3.8 2.8-6.55-1.35 1.95-1.7 3.55.65-1.8 2.25-3.75-1.2 1.95-1.5 3.65l-.05.45q-.5 1.4-.4 2.5-.6-1-.3-2.4-.85 1.35-1.1 2.55" fill="url(#bb)"/><linearGradient id="bc" gradientUnits="userSpaceOnUse" gradientTransform="matrix(.0021 0 0 .00143 84.4 58.9)" x1="-819.2" x2="819.2"><stop offset="0" stop-color="#fff" stop-opacity="0"/><stop offset=".443" stop-color="#fff" stop-opacity=".333"/><stop offset="1" stop-color="#fff" stop-opacity="0"/></linearGradient><path d="M86.05 60.1q-.95-1.5-3.35-2.15l.7-.15h.95l.4.15.35.15 1.05.65-1.7-.5q1.5.75 1.6 1.85" fill="url(#bc)"/><linearGradient id="bd" gradientUnits="userSpaceOnUse" gradientTransform="matrix(.00151 .00087 -.00061 .00105 85.8 57.8)" x1="-819.2" x2="819.2"><stop offset="0" stop-color="#fff" stop-opacity="0"/><stop offset=".443" stop-color="#fff" stop-opacity=".333"/><stop offset="1" stop-color="#fff" stop-opacity="0"/></linearGradient><path d="M86.25 57.35q.65.55.95 1.4l-.95-.95q-.8-.65-1.9-1.05 1.25.05 1.85.55l.05.05" fill="url(#bd)"/><linearGradient id="be" gradientUnits="userSpaceOnUse" gradientTransform="matrix(.0021 0 0 .00098 87.65 56.65)" x1="-819.2" x2="819.2"><stop offset="0" stop-color="#fff" stop-opacity="0"/><stop offset=".49" stop-color="#fff" stop-opacity=".243"/><stop offset="1" stop-color="#fff" stop-opacity="0"/></linearGradient><path d="M86.2 57.3l1.25-1.1q.9-.35 1.95-.35l-3.15 1.5-.05-.05" fill="url(#be)"/><linearGradient id="bf" gradientUnits="userSpaceOnUse" gradientTransform="matrix(.0037 0 0 .00085 84.9 55.1)" x1="-819.2" x2="819.2"><stop offset="0" stop-color="#fff" stop-opacity="0"/><stop offset=".49" stop-color="#fff" stop-opacity=".243"/><stop offset="1" stop-color="#fff" stop-opacity="0"/></linearGradient><path d="M81.9 55.8q2.8-1.8 6.05-1.3-2.95.05-6.05 1.3" fill="url(#bf)"/><linearGradient id="bg" gradientUnits="userSpaceOnUse" gradientTransform="matrix(.0007 -.0026 .00507 .00136 81.35 51.9)" x1="-819.2" x2="819.2"><stop offset="0" stop-color="#fff" stop-opacity="0"/><stop offset=".443" stop-color="#fff" stop-opacity=".333"/><stop offset="1" stop-color="#fff" stop-opacity="0"/></linearGradient><path d="M81.25 55.7q-.85-1.05-.95-2.85-.5 1.8 0 3.35-.95-1.4-.45-3.75-.55.55-.95 2 .45-3.5 2.85-5.7-1.45 1.65-1.4 3.3.5-2.1 2.85-4.45-1.7 2.2-2.25 4.4 1-2 2.85-3.85-3 3.95-2.55 7.55" fill="url(#bg)"/><linearGradient id="bh" gradientUnits="userSpaceOnUse" gradientTransform="matrix(.00249 .00249 -.00366 .00366 77.45 28.9)" x1="-819.2" x2="819.2"><stop offset="0" stop-color="#fff" stop-opacity="0"/><stop offset=".475" stop-color="#fff" stop-opacity=".29"/><stop offset="1" stop-color="#fff" stop-opacity="0"/></linearGradient><path d="M74.6 25.6q1.6 1 3.15 2.7-.65-1.65-2.95-3.65 1.7 1.4 3.25 3.35l.2.35q1.7 2.2 2.1 4.25-.5-1.7-2.3-3.65 1.3 2 1.85 4.2-1.7-4-5.3-7.55" fill="url(#bh)"/><linearGradient id="bi" gradientUnits="userSpaceOnUse" gradientTransform="matrix(.00055 .00206 -.0044 .00117 74.45 58.05)" x1="-819.2" x2="819.2"><stop offset="0" stop-color="#fff" stop-opacity="0"/><stop offset=".49" stop-color="#fff" stop-opacity=".243"/><stop offset="1" stop-color="#fff" stop-opacity="0"/></linearGradient><path d="M73 56q-.15 1.65.2 2.75-.2-2.1.75-4.45-.7 4.4 2.2 6.85-1.35-.2-2.35-1.7.1 1.4 1.25 2.3Q71.7 60.3 73 56" fill="url(#bi)"/><linearGradient id="bj" gradientUnits="userSpaceOnUse" gradientTransform="matrix(-.00073 .00273 -.00636 -.0017 78 55.2)" x1="-819.2" x2="819.2"><stop offset="0" stop-color="#fff" stop-opacity="0"/><stop offset=".443" stop-color="#fff" stop-opacity=".333"/><stop offset="1" stop-color="#fff" stop-opacity="0"/></linearGradient><path d="M79 59.55l-1.65-1.25q.5 1.1 1.4 1.6-1.6-.65-2.3-2.5-.5-1.45-.25-2.9.2 2.1.85 3.15l-.35-1.55q-.25-3.3 2.9-6.7-1.3 1.65-1.75 3.45.85-2 2.8-3.75-2.2 2.7-2.7 5.2-.55 2.5.75 4.75l.3.5" fill="url(#bj)"/><linearGradient id="bk" gradientUnits="userSpaceOnUse" gradientTransform="matrix(.00107 0 0 .00296 87.55 49.9)" x1="-819.2" x2="819.2"><stop offset="0" stop-color="#342d30"/><stop offset=".792" stop-color="#785753"/></linearGradient><path d="M87.15 47.5q-.25.4-.25 1 0 .75.5 2.1.5 1.25 1.05 1.75-.7-.6-1.2-1.7-.55-1.2-.55-2.1 0-1 .45-1.05" fill="url(#bk)"/><linearGradient id="bl" gradientUnits="userSpaceOnUse" gradientTransform="matrix(.00296 0 0 .00217 88.65 54.2)" x1="-819.2" x2="819.2"><stop offset="0" stop-color="#342d30"/><stop offset=".792" stop-color="#785753"/></linearGradient><path d="M86.25 53.55q2.35-1.7 3.8-.8 1.05.65 1.05 1.85l-.05.7-.5.7.2-.75q0-2.45-2.15-2.45-.45 0-1.2.4l-1.05.45-.1-.1" fill="url(#bl)"/><linearGradient id="bm" gradientUnits="userSpaceOnUse" gradientTransform="matrix(.00552 0 0 .00195 82.3 63.2)" x1="-819.2" x2="819.2"><stop offset="0" stop-color="#342d30"/><stop offset=".792" stop-color="#785753"/></linearGradient><path d="M85.6 63.1l1.25-1.5-1.25 1.7q-1.45 1.5-3.2 1.5-2.15 0-3.55-.9-1.05-.65-1.05-1.05l.05-.25.05-.15q.15.5.85 1.1 1.2.9 3.2.9 2.15 0 3.65-1.35" fill="url(#bm)"/><linearGradient id="bn" gradientUnits="userSpaceOnUse" gradientTransform="matrix(.0036 0 0 .01053 59.5 29.8)" x1="-819.2" x2="819.2"><stop offset="0" stop-color="#342d30"/><stop offset=".792" stop-color="#785753"/></linearGradient><path d="M56.65 33.55q0 1.4.25 2.15l1.25 2.75-1.35-2.65q-.25-.75-.25-2.25 0-7.8 5.9-12.35-3.25 3-4.6 6.1-1.2 2.75-1.2 6.25" fill="url(#bn)"/><linearGradient id="bo" gradientUnits="userSpaceOnUse" gradientTransform="matrix(.00262 0 0 .00867 85.7 36.65)" x1="-819.2" x2="819.2"><stop offset="0" stop-color="#564a4a"/><stop offset=".486" stop-color="#a8756b"/><stop offset="1" stop-color="#5c4d4c"/></linearGradient><path d="M84.5 31.15l.05-.05-.05-.25q3.35 5.25 3.35 10.25l-.15 1.75-.1-.2.05-.3q0-3.45-.95-6.3-.85-2.6-3.15-6.5h.1l.7 1 .15.6m3.1 12.35l-.05.25h-.1l.1-.5.05.25" fill="url(#bo)"/><linearGradient id="bp" gradientUnits="userSpaceOnUse" gradientTransform="matrix(.00854 0 0 .00763 77.55 24.9)" x1="-819.2" x2="819.2"><stop offset="0" stop-color="#342d30"/><stop offset=".792" stop-color="#785753"/></linearGradient><path d="M84.5 30.85l.05.25-.05.05-.15-.6q-1.15-3.85-2.45-6.1-3.35-5.65-8.7-5.65l-2.4.2-.25-.15 2.15-.2q5.2 0 8.65 4.75 2.4 3.35 3.15 7.45" fill="url(#bp)"/><linearGradient id="bq" gradientUnits="userSpaceOnUse" gradientTransform="matrix(.00146 0 0 .0075 86.85 46.9)" x1="-819.2" x2="819.2"><stop offset="0" stop-color="#564a4a"/><stop offset=".486" stop-color="#a8756b"/><stop offset="1" stop-color="#5c4d4c"/></linearGradient><path d="M87.55 43.25l-.1-.35-.6-2.15h.1l.65 1.9.1.2.05.2.3 2.15q0 1.2-1.05 2.5t-1.05 2.8q0 .8.15 1.1l.75 1.4-.05.05q-.75-.75-1-1.55-.15-.45-.15-1.45 0-1.05 1.05-2.45 1.05-1.4 1.05-2.55l-.15-1.55-.05-.25" fill="url(#bq)"/><linearGradient id="br" gradientUnits="userSpaceOnUse" gradientTransform="matrix(.0032 0 0 .00427 88.25 57.35)" x1="-819.2" x2="819.2"><stop offset="0" stop-color="#564a4a"/><stop offset=".486" stop-color="#a8756b"/><stop offset="1" stop-color="#5c4d4c"/></linearGradient><path d="M90.1 54.65q.8.65.8 1.5 0 1-.95 2.45-.95 1.4-2.1 2.25l1.65-2.3q1-1.45 1-2.35 0-2.05-4.25-2.05l-.6.2q0-.5 1.85-.5 1.6 0 2.6.8" fill="url(#br)"/><linearGradient id="bs" gradientUnits="userSpaceOnUse" gradientTransform="matrix(.00317 0 0 .00507 59.95 25.5)" x1="-819.2" x2="819.2"><stop offset="0" stop-color="#342d30"/><stop offset=".792" stop-color="#785753"/></linearGradient><path d="M58.9 25.3q-.75 1.45-1.45 4.3l-.1.05q1-5.85 4.95-8.3l.25.05q-2.4 1.55-3.65 3.9" fill="url(#bs)"/><linearGradient id="bt" gradientUnits="userSpaceOnUse" gradientTransform="matrix(.0046 0 0 .00562 75.35 58.6)" x1="-819.2" x2="819.2"><stop offset="0" stop-color="#564a4a"/><stop offset=".486" stop-color="#a8756b"/><stop offset="1" stop-color="#5c4d4c"/></linearGradient><path d="M71.8 59.1l.45 2q.85 1.85 3 1.85l3.9-.65q-1.4.9-3.95.9-2 0-2.9-1.4-.7-1.05-.7-2.7 0-2.45 1.75-5.1l-1.05 2.5q-.5 1.45-.5 2.6" fill="url(#bt)"/></g></svg>